<?xml version="1.0" encoding="UTF-8" standalone="no"?>
<svg xmlns:dc="http://purl.org/dc/elements/1.1/" xmlns:cc="http://creativecommons.org/ns#" xmlns:rdf="http://www.w3.org/1999/02/22-rdf-syntax-ns#" xmlns:svg="http://www.w3.org/2000/svg" xmlns="http://www.w3.org/2000/svg" viewBox="20 23.005273 313.735 159.41021" height="159.41021" width="313.735" xml:space="preserve" version="1.1" id="svg2">
  <metadata id="metadata8">
    <rdf:RDF>
      <cc:Work rdf:about="">
        <dc:format>image/svg+xml</dc:format>
        <dc:type rdf:resource="http://purl.org/dc/dcmitype/StillImage"/>
      </cc:Work>
    </rdf:RDF>
  </metadata>
  <defs id="defs6">
    <clipPath id="clipPath16" clipPathUnits="userSpaceOnUse">
      <path style="clip-rule:evenodd" id="path18" d="m 13.44,567.48 261.98,0 0,32.04 -261.98,0 0,-32.04 z"/>
    </clipPath>
    <clipPath id="clipPath28" clipPathUnits="userSpaceOnUse">
      <path style="clip-rule:evenodd" id="path30" d="m 13.44,460.3 261.98,0 0,139.22 -261.98,0 0,-139.22 z"/>
    </clipPath>
    <clipPath id="clipPath40" clipPathUnits="userSpaceOnUse">
      <path style="clip-rule:evenodd" id="path42" d="m 13.44,529.06 261.98,0 0,9.24 -261.98,0 0,-9.24 z"/>
    </clipPath>
    <clipPath id="clipPath98" clipPathUnits="userSpaceOnUse">
      <path style="clip-rule:evenodd" id="path100" d="m 12.48,460.32 262.92,0 0,140.16 -262.92,0 0,-140.16 z"/>
    </clipPath>
    <clipPath id="clipPath110" clipPathUnits="userSpaceOnUse">
      <path style="clip-rule:evenodd" id="path112" d="m 12.48,460.32 262.92,0 0,140.16 -262.92,0 0,-140.16 z"/>
    </clipPath>
    <clipPath id="clipPath122" clipPathUnits="userSpaceOnUse">
      <path style="clip-rule:evenodd" id="path124" d="m 12.48,460.32 262.92,0 0,140.16 -262.92,0 0,-140.16 z"/>
    </clipPath>
    <clipPath id="clipPath134" clipPathUnits="userSpaceOnUse">
      <path style="clip-rule:evenodd" id="path136" d="m 12.48,460.32 262.92,0 0,140.16 -262.92,0 0,-140.16 z"/>
    </clipPath>
    <clipPath id="clipPath146" clipPathUnits="userSpaceOnUse">
      <path style="clip-rule:evenodd" id="path148" d="m 12.48,460.32 262.92,0 0,140.16 -262.92,0 0,-140.16 z"/>
    </clipPath>
    <clipPath id="clipPath160" clipPathUnits="userSpaceOnUse">
      <path style="clip-rule:evenodd" id="path162" d="m 12.48,460.32 262.92,0 0,140.16 -262.92,0 0,-140.16 z"/>
    </clipPath>
    <clipPath id="clipPath172" clipPathUnits="userSpaceOnUse">
      <path style="clip-rule:evenodd" id="path174" d="m 12.48,460.32 262.92,0 0,140.16 -262.92,0 0,-140.16 z"/>
    </clipPath>
    <clipPath id="clipPath184" clipPathUnits="userSpaceOnUse">
      <path style="clip-rule:evenodd" id="path186" d="m 12.48,460.32 262.92,0 0,140.16 -262.92,0 0,-140.16 z"/>
    </clipPath>
    <clipPath id="clipPath196" clipPathUnits="userSpaceOnUse">
      <path style="clip-rule:evenodd" id="path198" d="m 12.48,460.32 262.92,0 0,140.16 -262.92,0 0,-140.16 z"/>
    </clipPath>
    <clipPath id="clipPath208" clipPathUnits="userSpaceOnUse">
      <path style="clip-rule:evenodd" id="path210" d="m 12.48,460.32 262.92,0 0,140.16 -262.92,0 0,-140.16 z"/>
    </clipPath>
    <clipPath id="clipPath222" clipPathUnits="userSpaceOnUse">
      <path style="clip-rule:evenodd" id="path224" d="m 12.48,460.32 262.92,0 0,140.16 -262.92,0 0,-140.16 z"/>
    </clipPath>
    <clipPath id="clipPath234" clipPathUnits="userSpaceOnUse">
      <path style="clip-rule:evenodd" id="path236" d="m 12.48,460.32 262.92,0 0,140.16 -262.92,0 0,-140.16 z"/>
    </clipPath>
    <clipPath id="clipPath246" clipPathUnits="userSpaceOnUse">
      <path style="clip-rule:evenodd" id="path248" d="m 12.48,460.32 262.92,0 0,140.16 -262.92,0 0,-140.16 z"/>
    </clipPath>
    <clipPath id="clipPath258" clipPathUnits="userSpaceOnUse">
      <path style="clip-rule:evenodd" id="path260" d="m 12.48,460.32 262.92,0 0,140.16 -262.92,0 0,-140.16 z"/>
    </clipPath>
    <clipPath id="clipPath270" clipPathUnits="userSpaceOnUse">
      <path style="clip-rule:evenodd" id="path272" d="m 12.48,460.32 262.92,0 0,140.16 -262.92,0 0,-140.16 z"/>
    </clipPath>
    <clipPath id="clipPath282" clipPathUnits="userSpaceOnUse">
      <path style="clip-rule:evenodd" id="path284" d="m 12.48,460.32 262.92,0 0,140.16 -262.92,0 0,-140.16 z"/>
    </clipPath>
  </defs>
  <g transform="matrix(1.25,0,0,-1.25,0,765)" id="g10">
    <g id="g12">
      <g clip-path="url(#clipPath16)" id="g14"><text id="text20" style="font-variant:normal;font-weight:bold;font-size:26.04000092px;font-family:'Roboto Condensed';-inkscape-font-specification:RobotoCondensed-Bold;writing-mode:lr-tb;fill:#000000;fill-opacity:1;fill-rule:nonzero;stroke:none" transform="matrix(1,0,0,-1,321.29,575.04)"><tspan id="tspan22" y="0" x="0 12.39504 18.957121 32.055241 44.86692 53.512199 65.985359 71.974564 85.150803 98.327042 105.90468 111.89388 126.58044 138.84528 151.65697 164.13013 173.58264 185.84747 194.3886 202.92972 209.49181 216.05388 222.66805 234.93288 242.92715 255.40031 268.31616 274.35745 290.84076 303.31393 315.57877 322.14084 330.13513 342.94681 348.936 368.25769 380.52252 393.3342 405.59903 418.69717 431.17032 439.81561 451.68985 457.67905 474.16235 486.97403 499.94196 505.93115 518.19598 530.17438 538.1687 544.78284 556.47479 568.94794 575.51001 587.1239 593.1131 605.92474 617.82501 630.29822 636.28741 656.07782 671.15497 686.77893 692.76819 705.57983 717.84467 729.53662 742.00983 747.99902 754.5611 773.88275 786.77258 795.41785 808.38574 819.97357 832.44672 845.36255 851.35175 866.27271 873.32953 887.75568 894.1615 900.1507 916.55591 929.36761 935.92969 942.56989 955.04303 961.03223 974.00018 981.99445 994.85822 1007.3314 1015.9766 1027.7988 1033.788 1046.6779 1058.9426 1070.6346 1083.1078 1089.0969 1101.9087 1114.8766 1122.8708">Figure 38. Bank-affiliated wealth managers who actively use M&amp;A have improved CIR, while others have not </tspan></text>
</g>
    </g>
    <g id="g24">
      <g clip-path="url(#clipPath28)" id="g26"><text id="text32" style="font-variant:normal;font-weight:bold;font-size:14.03999996px;font-family:'Roboto Condensed';-inkscape-font-specification:RobotoCondensed-Bold;writing-mode:lr-tb;fill:#000000;fill-opacity:1;fill-rule:nonzero;stroke:none" transform="matrix(1,0,0,-1,319.73,553.06)"><tspan id="tspan34" y="0" x="0 6.8374801 13.18356 20.17548 23.62932 30.579121 34.8894 38.385361 45.377281 52.284962 55.51416 62.506081 67.069077 70.298279 78.329163 82.134003 89.954277 93.183479 100.1754 104.71032 107.93952 116.82684 123.552 130.16484 133.63272 137.94299 144.89281 148.12199 158.53967 165.15253 172.11636 178.7292 185.79132 192.51648 197.17776 203.55193 206.78111 215.66844 219.15036 223.46065 230.41045 233.63963 237.94992 242.61121 249.22404 256.20193 262.57608 269.18893 275.64731 279.95761 283.43951 290.43143 297.33911 300.56833 307.18115 313.63956 317.99197 321.47388 327.81995 331.30188 335.61215 341.87399 345.10321 351.44928 357.82343 361.90909 365.13828 374.0256 377.49347 381.80377 388.75357 395.74548 402.65317 406.96344 410.19263 414.54504 419.20633 425.81915 432.76895 439.14313 445.75595 452.21436 456.52463 460.00656 466.99847 473.90616 477.13535 483.7482 490.2066 494.55899 498.04092 504.38699 507.86893 512.1792 518.44104">Evolution of CIR of wealth managers with transaction activity vs. without transaction activity </tspan></text>
</g>
    </g>
    <g id="g36">
      <g clip-path="url(#clipPath40)" id="g38"><text id="text44" style="font-variant:normal;font-weight:normal;font-size:8.03999996px;font-family:'Roboto Condensed';-inkscape-font-specification:RobotoCondensed-Regular;writing-mode:lr-tb;fill:#000000;fill-opacity:1;fill-rule:nonzero;stroke:none" transform="matrix(1,0,0,-1,319.01,530.86)"><tspan id="tspan46" y="0" x="0 4.9204798 8.9887199 11.38464 15.10716 17.020679 18.82164 23.010481 26.861641 32.85144 36.815159 38.608082 42.330601 44.131561 45.932522 49.775639 53.49012 55.299122 59.142239 63.105961 66.828484 70.542961 72.343918 74.739838 78.582962 82.305481 84.106438 88.078201 92.049957 93.826797 99.101044 103.16928 105.57324 107.3742 111.33792 112.89768 116.61216 118.41312 120.21408 124.06524 126.33252 130.29623 134.01073 137.7252 140.12112 141.92207 147.19632 150.91884 154.77 156.55489 158.95081 162.79391 164.59488 170.59271 174.44388 178.27092 182.12209 186.0858 189.79224 192.1962 195.91068 197.71164 202.98589 204.78683 207.18275 211.02588 212.82684 216.67799 218.46288 221.00352 225.0396 228.7782 232.62132 236.3358 238.13676 242.205 246.04813 247.84908 252.88213 257.80261 263.92908 265.72198 269.43649 271.24548 273.04645 276.76895 280.61209 283.008 286.72247 288.52344 292.3746 296.20163 300.16537 301.96631 305.80945 309.53195 313.38312 317.33075 321.39899 325.24213 329.09329 331.71432 334.11023 337.83276 340.23672 343.9512 345.75217 349.60333 353.31781 355.59311 359.66135 363.37585 367.09033 368.89127 372.73441 376.57751 378.86087 382.92911 386.89285 390.60733 392.18317 393.96805 398.88852 402.95676 405.58585 407.98175 411.82489 413.62585 418.29709 424.29492 428.01743 430.42139 432.22235 435.93683 439.78799 441.58093 445.43207 449.25912 453.22284 455.0238 459.69504 463.53815 468.20941 472.76807 474.56903 477.0936 480.80005 482.60101 488.59885 492.56256 494.35547 498.078 499.87897 503.73013 507.18732 510.90985 513.19318 517.04437 521.00806 524.71454 527.23102 531.54047 535.72931 539.79755 543.64069 545.92401 549.63855 553.36102 555.27454 557.0755 561.87543 563.67633 565.47729 568.95062 572.6731 575.07709 576.87805 583.00452 586.35718 592.35504 596.20618 600.03326 601.83423 607.83203 611.55457 615.4057 617.19061 619.58655 623.42963 625.23059 631.341 635.19214 639.01923 642.87036 646.83411 650.54053 656.53833 660.26086 664.104 666.49994 668.3009 672.7309 676.45343 680.29657 684.01105 687.85419 693.85199 697.70319 700.09106 703.69293 705.4939 709.33704 713.30078 715.09369 719.65234 723.50354 725.87531 729.7265 733.69019 737.54138 741.2478 744.97034 746.7713 750.74304 754.71478 758.65442 762.62616">Note: Sample includes the 20 world’s largest wealth managers with a focus on HNW clients and headquarters across Europe, North America and APAC (simple average) Source: Oliver Wyman Wealth Management Benchmarking Database 2025.</tspan></text>
</g>
    </g>
    <g id="g48">
      <path id="path50" style="fill:none;stroke:#000000;stroke-width:0.25;stroke-linecap:butt;stroke-linejoin:round;stroke-miterlimit:10;stroke-dasharray:2, 0.75;stroke-dashoffset:0;stroke-opacity:1" d="m 44.377,550.76 15.936,0"/>
    </g>
    <g id="g52">
      <path id="path54" style="fill:none;stroke:#000000;stroke-width:0.25;stroke-linecap:butt;stroke-linejoin:round;stroke-miterlimit:10;stroke-dasharray:2, 0.75;stroke-dashoffset:0;stroke-opacity:1" d="m 80.233,550.76 15.935,0"/>
    </g>
    <g id="g56">
      <path id="path58" style="fill:none;stroke:#000000;stroke-width:0.25;stroke-linecap:butt;stroke-linejoin:round;stroke-miterlimit:10;stroke-dasharray:2, 0.75;stroke-dashoffset:0;stroke-opacity:1" d="m 187.8,550.76 15.93,0"/>
    </g>
    <g id="g60">
      <path id="path62" style="fill:none;stroke:#000000;stroke-width:0.25;stroke-linecap:butt;stroke-linejoin:round;stroke-miterlimit:10;stroke-dasharray:2, 0.75;stroke-dashoffset:0;stroke-opacity:1" d="m 223.65,553.03 15.94,0"/>
    </g>
    <path id="path64" style="fill:#226b5a;fill-opacity:1;fill-rule:evenodd;stroke:none" d="m 60.064,550.01 20.169,0 0,0.75417 -20.169,0 0,-0.75417 z"/>
    <path id="path66" style="fill:none;stroke:#ffffff;stroke-width:0.75;stroke-linecap:butt;stroke-linejoin:miter;stroke-miterlimit:10;stroke-dasharray:none;stroke-opacity:1" d="m 60.064,550.01 20.169,0 0,0.75417 -20.169,0 0,-0.75417 z"/>
    <path id="path68" style="fill:#005aa4;fill-opacity:1;fill-rule:evenodd;stroke:none" d="m 23.461,477.6 20.169,0 0,73.912 -20.169,0 0,-73.912 z"/>
    <path id="path70" style="fill:none;stroke:#ffffff;stroke-width:0.75;stroke-linecap:butt;stroke-linejoin:round;stroke-miterlimit:10;stroke-dasharray:none;stroke-opacity:1" d="m 23.461,477.6 20.169,0 0,73.912 -20.169,0 0,-73.912 z"/>
    <path id="path72" style="fill:#d0b86a;fill-opacity:1;fill-rule:evenodd;stroke:none" d="m 95.172,477.6 20.169,0 0,73.158 -20.169,0 0,-73.158 z"/>
    <path id="path74" style="fill:none;stroke:#ffffff;stroke-width:0.75;stroke-linecap:butt;stroke-linejoin:round;stroke-miterlimit:10;stroke-dasharray:none;stroke-opacity:1" d="m 95.172,477.6 20.169,0 0,73.158 -20.169,0 0,-73.158 z"/>
    <path id="path76" style="fill:#005aa4;fill-opacity:1;fill-rule:evenodd;stroke:none" d="m 167.63,477.6 19.422,0 0,73.158 -19.422,0 0,-73.158 z"/>
    <path id="path78" style="fill:none;stroke:#ffffff;stroke-width:0.75;stroke-linecap:butt;stroke-linejoin:round;stroke-miterlimit:10;stroke-dasharray:none;stroke-opacity:1" d="m 167.63,477.6 19.422,0 0,73.158 -19.422,0 0,-73.158 z"/>
    <path id="path80" style="fill:#d0b86a;fill-opacity:1;fill-rule:evenodd;stroke:none" d="m 239.34,477.6 19.422,0 0,75.421 -19.422,0 0,-75.421 z"/>
    <path id="path82" style="fill:none;stroke:#ffffff;stroke-width:0.75;stroke-linecap:butt;stroke-linejoin:round;stroke-miterlimit:10;stroke-dasharray:none;stroke-opacity:1" d="m 239.34,477.6 19.422,0 0,75.421 -19.422,0 0,-75.421 z"/>
    <path id="path84" style="fill:#226b5a;fill-opacity:1;fill-rule:evenodd;stroke:none" d="m 59.317,550.76 20.169,0 0,0.75417 -20.169,0 0,-0.75417 z"/>
    <path id="path86" style="fill:none;stroke:#ffffff;stroke-width:0.75;stroke-linecap:butt;stroke-linejoin:round;stroke-miterlimit:10;stroke-dasharray:none;stroke-opacity:1" d="m 59.317,550.76 20.169,0 0,0.75417 -20.169,0 0,-0.75417 z"/>
    <path id="path88" style="fill:#9a1c1f;fill-opacity:1;fill-rule:evenodd;stroke:none" d="m 203.49,550.76 19.422,0 0,2.2626 -19.422,0 0,-2.2626 z"/>
    <path id="path90" style="fill:none;stroke:#ffffff;stroke-width:0.75;stroke-linecap:butt;stroke-linejoin:round;stroke-miterlimit:10;stroke-dasharray:none;stroke-opacity:1" d="m 203.49,550.76 19.422,0 0,2.2626 -19.422,0 0,-2.2626 z"/>
    <path id="path92" style="fill:none;stroke:#808080;stroke-width:1.25;stroke-linecap:butt;stroke-linejoin:round;stroke-miterlimit:10;stroke-dasharray:none;stroke-opacity:1" d="m 15.992,477.6 250.988,0"/>
    <g id="g94">
      <g clip-path="url(#clipPath98)" id="g96"><text id="text102" style="font-variant:normal;font-weight:normal;font-size:8.03999996px;font-family:'Roboto Condensed';-inkscape-font-specification:RobotoCondensed-Regular;writing-mode:lr-tb;fill:#000000;fill-opacity:1;fill-rule:nonzero;stroke:none" transform="matrix(1,0,0,-1,26.664,555.98)"><tspan id="tspan104" y="0" x="0 3.97176 7.9435201 10.05804">71.8</tspan></text>
</g>
    </g>
    <g id="g106">
      <g clip-path="url(#clipPath110)" id="g108"><text id="text114" style="font-variant:normal;font-weight:normal;font-size:8.03999996px;font-family:'Roboto Condensed';-inkscape-font-specification:RobotoCondensed-Regular;writing-mode:lr-tb;fill:#000000;fill-opacity:1;fill-rule:nonzero;stroke:none" transform="matrix(1,0,0,-1,98.52,555.24)"><tspan id="tspan116" y="0" x="0 3.97176 7.9435201 10.05804">71.3</tspan></text>
</g>
    </g>
    <g id="g118">
      <g clip-path="url(#clipPath122)" id="g120"><text id="text126" style="font-variant:normal;font-weight:normal;font-size:8.03999996px;font-family:'Roboto Condensed';-inkscape-font-specification:RobotoCondensed-Regular;writing-mode:lr-tb;fill:#000000;fill-opacity:1;fill-rule:nonzero;stroke:none" transform="matrix(1,0,0,-1,170.4,555.24)"><tspan id="tspan128" y="0" x="0 3.97176 7.9435201 10.05804">71.3</tspan></text>
</g>
    </g>
    <g id="g130">
      <g clip-path="url(#clipPath134)" id="g132"><text id="text138" style="font-variant:normal;font-weight:normal;font-size:8.03999996px;font-family:'Roboto Condensed';-inkscape-font-specification:RobotoCondensed-Regular;writing-mode:lr-tb;fill:#000000;fill-opacity:1;fill-rule:nonzero;stroke:none" transform="matrix(1,0,0,-1,242.26,557.5)"><tspan id="tspan140" y="0" x="0 3.97176 7.9435201 10.05804">73.6</tspan></text>
</g>
    </g>
    <g id="g142">
      <g clip-path="url(#clipPath146)" id="g144"><text id="text150" style="font-variant:normal;font-weight:normal;font-size:8.03999996px;font-family:'Roboto Condensed';-inkscape-font-specification:RobotoCondensed-Regular;writing-mode:lr-tb;fill:#000000;fill-opacity:1;fill-rule:nonzero;stroke:none" transform="matrix(1,0,0,-1,25.608,467.74)"><tspan id="tspan152" y="0" x="0 3.95996 7.91992 11.87988">2022</tspan></text>
</g>
    </g>
    <path id="path154" style="fill:#226b5a;fill-opacity:1;fill-rule:evenodd;stroke:none" d="m 62.678,545.86 14.193,0 0,9.8046 -14.193,0 0,-9.8046 z"/>
    <g id="g156">
      <g clip-path="url(#clipPath160)" id="g158"><text id="text164" style="font-variant:normal;font-weight:normal;font-size:8.03999996px;font-family:'Roboto Condensed';-inkscape-font-specification:RobotoCondensed-Regular;writing-mode:lr-tb;fill:#ffffff;fill-opacity:1;fill-rule:nonzero;stroke:none" transform="matrix(1,0,0,-1,63.6,548.45)"><tspan id="tspan166" y="0" x="0">-</tspan></text>
</g>
    </g>
    <g id="g168">
      <g clip-path="url(#clipPath172)" id="g170"><text id="text176" style="font-variant:normal;font-weight:normal;font-size:8.03999996px;font-family:'Roboto Condensed';-inkscape-font-specification:RobotoCondensed-Regular;writing-mode:lr-tb;fill:#ffffff;fill-opacity:1;fill-rule:nonzero;stroke:none" transform="matrix(1,0,0,-1,65.592,548.45)"><tspan id="tspan178" y="0" x="0 3.97176 6.1104002">0.5</tspan></text>
</g>
    </g>
    <g id="g180">
      <g clip-path="url(#clipPath184)" id="g182"><text id="text188" style="font-variant:normal;font-weight:normal;font-size:8.03999996px;font-family:'Roboto Condensed';-inkscape-font-specification:RobotoCondensed-Regular;writing-mode:lr-tb;fill:#000000;fill-opacity:1;fill-rule:nonzero;stroke:none" transform="matrix(1,0,0,-1,57.744,467.74)"><tspan id="tspan190" y="0" x="0 4.5586801 8.4018002 12.25296 16.08 20.04372">Change</tspan></text>
</g>
    </g>
    <g id="g192">
      <g clip-path="url(#clipPath196)" id="g194"><text id="text200" style="font-variant:normal;font-weight:normal;font-size:8.03999996px;font-family:'Roboto Condensed';-inkscape-font-specification:RobotoCondensed-Regular;writing-mode:lr-tb;fill:#000000;fill-opacity:1;fill-rule:nonzero;stroke:none" transform="matrix(1,0,0,-1,97.464,467.74)"><tspan id="tspan202" y="0" x="0 3.95996 7.91992 11.87988">2024</tspan></text>
</g>
    </g>
    <g id="g204">
      <g clip-path="url(#clipPath208)" id="g206"><text id="text212" style="font-variant:normal;font-weight:normal;font-size:8.03999996px;font-family:'Roboto Condensed';-inkscape-font-specification:RobotoCondensed-Regular;writing-mode:lr-tb;fill:#000000;fill-opacity:1;fill-rule:nonzero;stroke:none" transform="matrix(1,0,0,-1,169.3,467.74)"><tspan id="tspan214" y="0" x="0 3.95996 7.91992 11.87988">2022</tspan></text>
</g>
    </g>
    <path id="path216" style="fill:#9a1c1f;fill-opacity:1;fill-rule:evenodd;stroke:none" d="m 205.35,547.37 16.434,0 0,9.8046 -16.434,0 0,-9.8046 z"/>
    <g id="g218">
      <g clip-path="url(#clipPath222)" id="g220"><text id="text226" style="font-variant:normal;font-weight:normal;font-size:8.03999996px;font-family:'Roboto Condensed';-inkscape-font-specification:RobotoCondensed-Regular;writing-mode:lr-tb;fill:#ffffff;fill-opacity:1;fill-rule:nonzero;stroke:none" transform="matrix(1,0,0,-1,206.28,549.96)"><tspan id="tspan228" y="0" x="0">+</tspan></text>
</g>
    </g>
    <g id="g230">
      <g clip-path="url(#clipPath234)" id="g232"><text id="text238" style="font-variant:normal;font-weight:normal;font-size:8.03999996px;font-family:'Roboto Condensed';-inkscape-font-specification:RobotoCondensed-Regular;writing-mode:lr-tb;fill:#ffffff;fill-opacity:1;fill-rule:nonzero;stroke:none" transform="matrix(1,0,0,-1,210.26,549.96)"><tspan id="tspan240" y="0" x="0 3.97176 6.1104002">2.3</tspan></text>
</g>
    </g>
    <g id="g242">
      <g clip-path="url(#clipPath246)" id="g244"><text id="text250" style="font-variant:normal;font-weight:normal;font-size:8.03999996px;font-family:'Roboto Condensed';-inkscape-font-specification:RobotoCondensed-Regular;writing-mode:lr-tb;fill:#000000;fill-opacity:1;fill-rule:nonzero;stroke:none" transform="matrix(1,0,0,-1,201.43,467.74)"><tspan id="tspan252" y="0" x="0 4.5586801 8.4018002 12.25296 16.08 20.04372">Change</tspan></text>
</g>
    </g>
    <g id="g254">
      <g clip-path="url(#clipPath258)" id="g256"><text id="text262" style="font-variant:normal;font-weight:normal;font-size:8.03999996px;font-family:'Roboto Condensed';-inkscape-font-specification:RobotoCondensed-Regular;writing-mode:lr-tb;fill:#000000;fill-opacity:1;fill-rule:nonzero;stroke:none" transform="matrix(1,0,0,-1,241.15,467.74)"><tspan id="tspan264" y="0" x="0 3.95996 7.91992 11.87988">2024</tspan></text>
</g>
    </g>
    <g id="g266">
      <g clip-path="url(#clipPath270)" id="g268"><text id="text274" style="font-variant:normal;font-weight:bold;font-size:8.03999996px;font-family:'Roboto Condensed';-inkscape-font-specification:RobotoCondensed-Bold;writing-mode:lr-tb;fill:#000000;fill-opacity:1;fill-rule:nonzero;stroke:none" transform="matrix(1,0,0,-1,19.68,587.66)"><tspan id="tspan276" y="0" x="0 3.82704 5.8692002 8.50632 14.49612 18.09804 19.899 23.734079 27.43248 29.96508 31.991159 35.60112 39.452278 41.004002 43.030079 46.98576 48.802799 51.311279 53.948399 57.783482 61.739159 65.34108 69.176163 72.874557 75.407158 77.433243 81.404999 85.36068">Firms active in transactions</tspan></text>
</g>
    </g>
    <g id="g278">
      <g clip-path="url(#clipPath282)" id="g280"><text id="text286" style="font-variant:normal;font-weight:bold;font-size:8.03999996px;font-family:'Roboto Condensed';-inkscape-font-specification:RobotoCondensed-Bold;writing-mode:lr-tb;fill:#000000;fill-opacity:1;fill-rule:nonzero;stroke:none" transform="matrix(1,0,0,-1,162.29,587.66)"><tspan id="tspan288" y="0" x="0 3.82704 5.8692002 8.50632 14.49612 18.09804 19.899 23.854679 27.818399 30.32688 32.127838 35.962921 39.66132 42.19392 44.220001 47.82996 51.681122 53.232841 55.258919 59.2146 61.031639 63.540119 66.177238 70.012321 73.968002 77.569923 81.404999 85.103401 87.636002 89.662079 93.633842 97.589523">Firms not active in transactions</tspan></text>
</g>
    </g>
  </g>
</svg>
