<?xml version="1.0" encoding="UTF-8" standalone="no"?>
<svg xmlns:dc="http://purl.org/dc/elements/1.1/" xmlns:cc="http://creativecommons.org/ns#" xmlns:rdf="http://www.w3.org/1999/02/22-rdf-syntax-ns#" xmlns:svg="http://www.w3.org/2000/svg" xmlns="http://www.w3.org/2000/svg" viewBox="15.75 16 757.23125 405.23125" height="405.23125" width="757.23125" xml:space="preserve" version="1.1" id="svg2">
  <metadata id="metadata8">
    <rdf:RDF>
      <cc:Work rdf:about="">
        <dc:format>image/svg+xml</dc:format>
        <dc:type rdf:resource="http://purl.org/dc/dcmitype/StillImage"/>
      </cc:Work>
    </rdf:RDF>
  </metadata>
  <defs id="defs6">
    <clipPath id="clipPath20" clipPathUnits="userSpaceOnUse">
      <path style="clip-rule:evenodd" id="path22" d="m 12.6,271.08 606.84,0 0,329.28 -606.84,0 0,-329.28 z"/>
    </clipPath>
    <clipPath id="clipPath34" clipPathUnits="userSpaceOnUse">
      <path style="clip-rule:evenodd" id="path36" d="m 12.6,271.08 606.84,0 0,329.28 -606.84,0 0,-329.28 z"/>
    </clipPath>
    <clipPath id="clipPath50" clipPathUnits="userSpaceOnUse">
      <path style="clip-rule:evenodd" id="path52" d="m 12.6,271.08 606.84,0 0,329.28 -606.84,0 0,-329.28 z"/>
    </clipPath>
    <clipPath id="clipPath62" clipPathUnits="userSpaceOnUse">
      <path style="clip-rule:evenodd" id="path64" d="m 12.6,271.08 606.84,0 0,329.28 -606.84,0 0,-329.28 z"/>
    </clipPath>
    <clipPath id="clipPath76" clipPathUnits="userSpaceOnUse">
      <path style="clip-rule:evenodd" id="path78" d="m 12.6,271.08 606.84,0 0,329.28 -606.84,0 0,-329.28 z"/>
    </clipPath>
    <clipPath id="clipPath88" clipPathUnits="userSpaceOnUse">
      <path style="clip-rule:evenodd" id="path90" d="m 12.6,271.08 606.84,0 0,329.28 -606.84,0 0,-329.28 z"/>
    </clipPath>
    <clipPath id="clipPath102" clipPathUnits="userSpaceOnUse">
      <path style="clip-rule:evenodd" id="path104" d="m 12.6,271.08 606.84,0 0,329.28 -606.84,0 0,-329.28 z"/>
    </clipPath>
    <clipPath id="clipPath116" clipPathUnits="userSpaceOnUse">
      <path style="clip-rule:evenodd" id="path118" d="m 12.6,271.08 606.84,0 0,329.28 -606.84,0 0,-329.28 z"/>
    </clipPath>
    <clipPath id="clipPath128" clipPathUnits="userSpaceOnUse">
      <path style="clip-rule:evenodd" id="path130" d="m 199.2,293.64 101.88,0 0,98.04 -101.88,0 0,-98.04 z"/>
    </clipPath>
    <clipPath id="clipPath140" clipPathUnits="userSpaceOnUse">
      <path style="clip-rule:evenodd" id="path142" d="m 12.6,271.08 606.84,0 0,329.28 -606.84,0 0,-329.28 z"/>
    </clipPath>
    <clipPath id="clipPath152" clipPathUnits="userSpaceOnUse">
      <path style="clip-rule:evenodd" id="path154" d="m 199.2,293.64 101.88,0 0,98.04 -101.88,0 0,-98.04 z"/>
    </clipPath>
    <clipPath id="clipPath164" clipPathUnits="userSpaceOnUse">
      <path style="clip-rule:evenodd" id="path166" d="m 12.6,271.08 606.84,0 0,329.28 -606.84,0 0,-329.28 z"/>
    </clipPath>
    <clipPath id="clipPath176" clipPathUnits="userSpaceOnUse">
      <path style="clip-rule:evenodd" id="path178" d="m 199.2,293.64 101.88,0 0,98.04 -101.88,0 0,-98.04 z"/>
    </clipPath>
    <clipPath id="clipPath188" clipPathUnits="userSpaceOnUse">
      <path style="clip-rule:evenodd" id="path190" d="m 12.6,271.08 606.84,0 0,329.28 -606.84,0 0,-329.28 z"/>
    </clipPath>
    <clipPath id="clipPath202" clipPathUnits="userSpaceOnUse">
      <path style="clip-rule:evenodd" id="path204" d="m 328.56,293.64 101.88,0 0,98.04 -101.88,0 0,-98.04 z"/>
    </clipPath>
    <clipPath id="clipPath214" clipPathUnits="userSpaceOnUse">
      <path style="clip-rule:evenodd" id="path216" d="m 12.6,271.08 606.84,0 0,329.28 -606.84,0 0,-329.28 z"/>
    </clipPath>
    <clipPath id="clipPath226" clipPathUnits="userSpaceOnUse">
      <path style="clip-rule:evenodd" id="path228" d="m 12.6,271.08 606.84,0 0,329.28 -606.84,0 0,-329.28 z"/>
    </clipPath>
    <clipPath id="clipPath246" clipPathUnits="userSpaceOnUse">
      <path style="clip-rule:evenodd" id="path248" d="m 12.6,271.08 606.84,0 0,329.28 -606.84,0 0,-329.28 z"/>
    </clipPath>
    <clipPath id="clipPath256" clipPathUnits="userSpaceOnUse">
      <path style="clip-rule:evenodd" id="path258" d="m 12.6,271.08 606.84,0 0,329.28 -606.84,0 0,-329.28 z"/>
    </clipPath>
    <clipPath id="clipPath266" clipPathUnits="userSpaceOnUse">
      <path style="clip-rule:evenodd" id="path268" d="m 12.6,271.08 606.84,0 0,329.28 -606.84,0 0,-329.28 z"/>
    </clipPath>
    <clipPath id="clipPath282" clipPathUnits="userSpaceOnUse">
      <path style="clip-rule:evenodd" id="path284" d="m 12.6,271.08 606.84,0 0,329.28 -606.84,0 0,-329.28 z"/>
    </clipPath>
    <clipPath id="clipPath298" clipPathUnits="userSpaceOnUse">
      <path style="clip-rule:evenodd" id="path300" d="m 12.6,271.08 606.84,0 0,329.28 -606.84,0 0,-329.28 z"/>
    </clipPath>
    <clipPath id="clipPath314" clipPathUnits="userSpaceOnUse">
      <path style="clip-rule:evenodd" id="path316" d="m 12.6,271.08 606.84,0 0,329.28 -606.84,0 0,-329.28 z"/>
    </clipPath>
    <clipPath id="clipPath342" clipPathUnits="userSpaceOnUse">
      <path style="clip-rule:evenodd" id="path344" d="m 12.6,271.08 606.84,0 0,329.28 -606.84,0 0,-329.28 z"/>
    </clipPath>
  </defs>
  <g transform="matrix(1.25,0,0,-1.25,0,765)" id="g10">
    <path id="path12" style="fill:none;stroke:#002143;stroke-width:1.25;stroke-linecap:butt;stroke-linejoin:round;stroke-miterlimit:10;stroke-dasharray:none;stroke-opacity:1" d="m 178.62,275.64 273.13,0 0,273.56 -273.13,0 0,-273.56 z"/>
    <path id="path14" style="fill:none;stroke:#002143;stroke-width:1.25;stroke-linecap:butt;stroke-linejoin:round;stroke-miterlimit:10;stroke-dasharray:none;stroke-opacity:1" d="m 461.69,275.64 156.07,0 0,273.56 -156.07,0 0,-273.56 z"/>
    <g id="g16">
      <g clip-path="url(#clipPath20)" id="g18"><text id="text24" style="font-variant:normal;font-weight:bold;font-size:11.06400013px;font-family:Calibri;-inkscape-font-specification:Calibri-Bold;writing-mode:lr-tb;fill:#000000;fill-opacity:1;fill-rule:nonzero;stroke:none" transform="matrix(1,0,0,-1,482.02,408.67)"><tspan id="tspan26" y="0" x="0 5.509872 8.2537441 10.997616 14.836824 17.116009 24.551016 30.426001 34.840534 40.405727 44.333447 49.610977 55.010208 58.849415 61.604351 67.47934 73.354317 75.755211 80.800392 83.787674 89.994576 92.893341 95.172531 100.32835 105.72758">Tilt Observation FIB, SEM</tspan></text>
</g>
    </g>
    <path id="path28" style="fill:none;stroke:#002143;stroke-width:1.25;stroke-linecap:butt;stroke-linejoin:round;stroke-miterlimit:10;stroke-dasharray:none;stroke-opacity:1" d="m 13.365,276.77 156.07,0 0,273.56 -156.07,0 0,-273.56 z"/>
    <g id="g30">
      <g clip-path="url(#clipPath34)" id="g32"><text id="text38" style="font-variant:normal;font-weight:bold;font-size:11.03999996px;font-family:Calibri;-inkscape-font-specification:Calibri-Bold;writing-mode:lr-tb;fill:#000000;fill-opacity:1;fill-rule:nonzero;stroke:none" transform="matrix(1,0,0,-1,31.248,409.78)"><tspan id="tspan40" y="0" x="0 9.6048002 15.00336 20.88768 26.771999 30.260639 35.648159 40.318081 44.14896 50.033279 53.9856 56.734558 62.618881 67.884956 70.28064 75.668159 81.563522 87.447838 90.1968 96.081123 105.05664 110.60976 116.48304">Manufacturing Equipment</tspan></text>
</g>
    </g>
    <path id="path42" style="fill:#d8f3ed;fill-opacity:1;fill-rule:evenodd;stroke:none" d="m 185.5,530.93 c 0,4.49 3.65,8.14 8.15,8.14 l 243.06,0 c 4.5,0 8.15,-3.65 8.15,-8.14 l 0,-32.58 c 0,-4.5 -3.65,-8.15 -8.15,-8.15 l -243.06,0 c -4.5,0 -8.15,3.65 -8.15,8.15 l 0,32.58 z"/>
    <path id="path44" style="fill:none;stroke:#002143;stroke-width:2;stroke-linecap:butt;stroke-linejoin:round;stroke-miterlimit:10;stroke-dasharray:none;stroke-opacity:1" d="m 185.5,530.93 c 0,4.49 3.65,8.14 8.15,8.14 l 243.06,0 c 4.5,0 8.15,-3.65 8.15,-8.14 l 0,-32.58 c 0,-4.5 -3.65,-8.15 -8.15,-8.15 l -243.06,0 c -4.5,0 -8.15,3.65 -8.15,8.15 l 0,32.58 z"/>
    <g id="g46">
      <g clip-path="url(#clipPath50)" id="g48"><text id="text54" style="font-variant:normal;font-weight:normal;font-size:11.03999996px;font-family:Calibri;-inkscape-font-specification:Calibri;writing-mode:lr-tb;fill:#000000;fill-opacity:1;fill-rule:nonzero;stroke:none" transform="matrix(1,0,0,-1,251.16,517.61)"><tspan id="tspan56" y="0" x="0 2.7820799 8.5228796 11.06208 13.56816 19.331039 24.82896 27.357121 30.1392 35.880001 40.19664 45.992641 51.490559 56.16048 59.858879 62.398079 68.271362 74.034241 76.319519 81.607681 87.35952 93.122398 95.617439 101.61216 107.15424 112.18848 114.72768 120.2256 128.1192">Inline Inspection and Review </tspan></text>
</g>
    </g>
    <g id="g58">
      <g clip-path="url(#clipPath62)" id="g60"><text id="text66" style="font-variant:normal;font-weight:normal;font-size:11.03999996px;font-family:Calibri;-inkscape-font-specification:Calibri;writing-mode:lr-tb;fill:#000000;fill-opacity:1;fill-rule:nonzero;stroke:none" transform="matrix(1,0,0,-1,257.64,504.17)"><tspan id="tspan68" y="0" x="0 3.34512 10.22304 12.71808 17.87376 23.636641 26.13168 31.199039 36.961922 42.459839 47.990879 53.753761 58.059361 64.451523 70.181282 73.879677 79.77504 88.64016 93.928322 97.626717 100.16592 106.02816 111.79104">(High Speed/Automation)</tspan></text>
</g>
    </g>
    <path id="path70" style="fill:none;stroke:#002143;stroke-width:1.25;stroke-linecap:butt;stroke-linejoin:round;stroke-miterlimit:10;stroke-dasharray:none;stroke-opacity:1" d="m 189.33,284.65 120.88,0 0,198.14 -120.88,0 0,-198.14 z"/>
    <g id="g72">
      <g clip-path="url(#clipPath76)" id="g74"><text id="text80" style="font-variant:normal;font-weight:bold;font-size:11.03999996px;font-family:Calibri;-inkscape-font-specification:Calibri-Bold;writing-mode:lr-tb;fill:#000000;fill-opacity:1;fill-rule:nonzero;stroke:none" transform="matrix(1,0,0,-1,204.72,468.72)"><tspan id="tspan82" y="0" x="0 7.4630399 13.32528 17.15616 19.916161 24.586081 29.98464 32.733601 37.52496 42.680641 48.068161 57.683998 59.96928 66.924477 72.4776 75.933121 81.453117 86.123039 89.953918">Optical/SEM Defect </tspan></text>
</g>
    </g>
    <g id="g84">
      <g clip-path="url(#clipPath88)" id="g86"><text id="text92" style="font-variant:normal;font-weight:bold;font-size:11.03999996px;font-family:Calibri;-inkscape-font-specification:Calibri-Bold;writing-mode:lr-tb;fill:#000000;fill-opacity:1;fill-rule:nonzero;stroke:none" transform="matrix(1,0,0,-1,199.66,455.28)"><tspan id="tspan94" y="0" x="0 2.9918399 8.8761597 13.3032 19.187519 24.70752 29.377439 33.208321 35.968319 41.852638 47.736961 50.02224 55.40976 61.305119 67.189438 69.9384 75.822723 84.798241 90.351357 96.22464">Inspection Equipment</tspan></text>
</g>
    </g>
    <path id="path96" style="fill:none;stroke:#002143;stroke-width:1.25;stroke-linecap:butt;stroke-linejoin:round;stroke-miterlimit:10;stroke-dasharray:none;stroke-opacity:1" d="m 320.15,284.65 120.88,0 0,198.14 -120.88,0 0,-198.14 z"/>
    <g id="g98">
      <g clip-path="url(#clipPath102)" id="g100"><text id="text106" style="font-variant:normal;font-weight:bold;font-size:11.03999996px;font-family:Calibri;-inkscape-font-specification:Calibri-Bold;writing-mode:lr-tb;fill:#000000;fill-opacity:1;fill-rule:nonzero;stroke:none" transform="matrix(1,0,0,-1,327.38,455.28)"><tspan id="tspan108" y="0" x="0 6.6902399 12.61872 16.4496 22.32288 31.298401 36.752159 40.583038 43.298882 47.990879 50.276161 56.49168 62.0448 67.299843 70.048798 75.568802 83.837761 86.123039 91.278717 96.666237">Automatic Review SEM</tspan></text>
</g>
    </g>
    <path id="path110" style="fill:none;stroke:#002143;stroke-width:1.25;stroke-linecap:butt;stroke-linejoin:round;stroke-miterlimit:10;stroke-dasharray:none;stroke-opacity:1" d="m 199.27,293.65 101.75,0 0,97.942 -101.75,0 0,-97.942 z"/>
    <g id="g112">
      <g clip-path="url(#clipPath116)" id="g114"><text id="text120" style="font-variant:normal;font-weight:normal;font-size:11.03999996px;font-family:Calibri;-inkscape-font-specification:Calibri;writing-mode:lr-tb;fill:#000000;fill-opacity:1;fill-rule:nonzero;stroke:none" transform="matrix(1,0,0,-1,206.5,377.52)"><tspan id="tspan122" y="0" x="0 6.8337598 12.33168 15.69888 21.21888 25.8888 29.5872 31.89456 34.67664 40.417439 43.784641 49.646881 53.49984 62.35392 67.642082 71.340477 73.879677 79.74192">Defect Information</tspan></text>
</g>
    </g>
    <g id="g124">
      <g clip-path="url(#clipPath128)" id="g126"><text id="text132" style="font-variant:normal;font-weight:normal;font-size:11.06400013px;font-family:'Meiryo UI';-inkscape-font-specification:'Meiryo UI';writing-mode:lr-tb;fill:#000000;fill-opacity:1;fill-rule:nonzero;stroke:none" transform="matrix(1,0,0,-1,206.5,360.72)"><tspan id="tspan134" y="0" x="0">・</tspan></text>
</g>
    </g>
    <g id="g136">
      <g clip-path="url(#clipPath140)" id="g138"><text id="text144" style="font-variant:normal;font-weight:normal;font-size:11.06400013px;font-family:Calibri;-inkscape-font-specification:Calibri;writing-mode:lr-tb;fill:#000000;fill-opacity:1;fill-rule:nonzero;stroke:none" transform="matrix(1,0,0,-1,212.02,360.72)"><tspan id="tspan146" y="0" x="0 5.8971119 11.72784 17.624952 21.486288 27.228504 29.773224 35.504375 40.804031 44.510471 50.020344">Coordinates</tspan></text>
</g>
    </g>
    <g id="g148">
      <g clip-path="url(#clipPath152)" id="g150"><text id="text156" style="font-variant:normal;font-weight:normal;font-size:11.03999996px;font-family:'Meiryo UI';-inkscape-font-specification:'Meiryo UI';writing-mode:lr-tb;fill:#000000;fill-opacity:1;fill-rule:nonzero;stroke:none" transform="matrix(1,0,0,-1,206.5,342.58)"><tspan id="tspan158" y="0" x="0">・</tspan></text>
</g>
    </g>
    <g id="g160">
      <g clip-path="url(#clipPath164)" id="g162"><text id="text168" style="font-variant:normal;font-weight:normal;font-size:11.03999996px;font-family:Calibri;-inkscape-font-specification:Calibri;writing-mode:lr-tb;fill:#000000;fill-opacity:1;fill-rule:nonzero;stroke:none" transform="matrix(1,0,0,-1,212.02,342.58)"><tspan id="tspan170" y="0" x="0 5.0673599 7.5623999 11.87904">Size</tspan></text>
</g>
    </g>
    <g id="g172">
      <g clip-path="url(#clipPath176)" id="g174"><text id="text180" style="font-variant:normal;font-weight:normal;font-size:11.03999996px;font-family:'Meiryo UI';-inkscape-font-specification:'Meiryo UI';writing-mode:lr-tb;fill:#000000;fill-opacity:1;fill-rule:nonzero;stroke:none" transform="matrix(1,0,0,-1,206.5,324.46)"><tspan id="tspan182" y="0" x="0">・</tspan></text>
</g>
    </g>
    <g id="g184">
      <g clip-path="url(#clipPath188)" id="g186"><text id="text192" style="font-variant:normal;font-weight:normal;font-size:11.03999996px;font-family:Calibri;-inkscape-font-specification:Calibri;writing-mode:lr-tb;fill:#000000;fill-opacity:1;fill-rule:nonzero;stroke:none" transform="matrix(1,0,0,-1,212.02,324.46)"><tspan id="tspan194" y="0" x="0 5.8843198 8.4235201 14.16432 18.480961 22.179359 27.7104 31.56336 34.102558 39.832321">Clustering</tspan></text>
</g>
    </g>
    <path id="path196" style="fill:none;stroke:#002143;stroke-width:1.25;stroke-linecap:butt;stroke-linejoin:round;stroke-miterlimit:10;stroke-dasharray:none;stroke-opacity:1" d="m 328.57,293.65 101.75,0 0,97.942 -101.75,0 0,-97.942 z"/>
    <g id="g198">
      <g clip-path="url(#clipPath202)" id="g200"><text id="text206" style="font-variant:normal;font-weight:normal;font-size:11.03999996px;font-family:'Meiryo UI';-inkscape-font-specification:'Meiryo UI';writing-mode:lr-tb;fill:#000000;fill-opacity:1;fill-rule:nonzero;stroke:none" transform="matrix(1,0,0,-1,335.81,374.16)"><tspan id="tspan208" y="0" x="0">・</tspan></text>
</g>
    </g>
    <g id="g210">
      <g clip-path="url(#clipPath214)" id="g212"><text id="text218" style="font-variant:normal;font-weight:normal;font-size:11.03999996px;font-family:Calibri;-inkscape-font-specification:Calibri;writing-mode:lr-tb;fill:#000000;fill-opacity:1;fill-rule:nonzero;stroke:none" transform="matrix(1,0,0,-1,341.33,374.16)"><tspan id="tspan220" y="0" x="0 5.8843198 9.7372799 12.24336 15.94176 18.480961 23.150881 28.439039 30.978239 33.362881 39.23616 43.089119">Critical or </tspan></text>
</g>
    </g>
    <g id="g222">
      <g clip-path="url(#clipPath226)" id="g224"><text id="text230" style="font-variant:normal;font-weight:normal;font-size:11.06400013px;font-family:Calibri;-inkscape-font-specification:Calibri;writing-mode:lr-tb;fill:#000000;fill-opacity:1;fill-rule:nonzero;stroke:none" transform="matrix(1,0,0,-1,335.81,359.28)"><tspan id="tspan232" y="0" x="0 7.1030879 12.845304 17.879423 23.643768 29.507689 37.418449 43.182793 45.583679 52.410168 57.92004 61.294559 66.804436 71.484505 75.190941">Unknown Defects</tspan></text>
</g>
    </g>
    <path id="path234" style="fill:#000000;fill-opacity:1;fill-rule:evenodd;stroke:none" d="m 254.26,418.61 0,-12.33 4.56,0 -9.12,-9.12 -9.11,9.12 4.56,0 0,12.33 9.11,0 z"/>
    <path id="path236" style="fill:none;stroke:#000000;stroke-width:2;stroke-linecap:butt;stroke-linejoin:miter;stroke-miterlimit:8;stroke-dasharray:none;stroke-opacity:1" d="m 254.26,418.61 0,-12.33 4.56,0 -9.12,-9.12 -9.11,9.12 4.56,0 0,12.33 9.11,0 z"/>
    <path id="path238" style="fill:#000000;fill-opacity:1;fill-rule:evenodd;stroke:none" d="m 383.56,418.61 0,-12.33 4.56,0 -9.12,-9.12 -9.12,9.12 4.56,0 0,12.33 9.12,0 z"/>
    <path id="path240" style="fill:none;stroke:#000000;stroke-width:2;stroke-linecap:butt;stroke-linejoin:miter;stroke-miterlimit:8;stroke-dasharray:none;stroke-opacity:1" d="m 383.56,418.61 0,-12.33 4.56,0 -9.12,-9.12 -9.12,9.12 4.56,0 0,12.33 9.12,0 z"/>
    <g id="g242">
      <g clip-path="url(#clipPath246)" id="g244">
        <path id="path250" style="fill:#c6efff;fill-opacity:1;fill-rule:evenodd;stroke:none" d="m 12.6,592.1 c 0,3.37 2.732,6.1 6.102,6.1 l 97.198,0 c 3.37,0 6.1,-2.73 6.1,-6.1 l 0,-24.41 c 0,-3.37 -2.73,-6.1 -6.1,-6.1 l -97.198,0 c -3.37,0 -6.102,2.73 -6.102,6.1 l 0,24.41 z"/>
      </g>
    </g>
    <g id="g252">
      <g clip-path="url(#clipPath256)" id="g254">
        <path id="path260" style="fill:none;stroke:#002143;stroke-width:2;stroke-linecap:butt;stroke-linejoin:round;stroke-miterlimit:8;stroke-dasharray:none;stroke-opacity:1" d="m 12.6,592.1 c 0,3.37 2.732,6.1 6.102,6.1 l 97.198,0 c 3.37,0 6.1,-2.73 6.1,-6.1 l 0,-24.41 c 0,-3.37 -2.73,-6.1 -6.1,-6.1 l -97.198,0 c -3.37,0 -6.102,2.73 -6.102,6.1 l 0,24.41 z"/>
      </g>
    </g>
    <g id="g262">
      <g clip-path="url(#clipPath266)" id="g264"><text id="text270" style="font-variant:normal;font-weight:normal;font-size:11.03999996px;font-family:Calibri;-inkscape-font-specification:Calibri;writing-mode:lr-tb;fill:#000000;fill-opacity:1;fill-rule:nonzero;stroke:none" transform="matrix(1,0,0,-1,50.16,576.17)"><tspan id="tspan272" y="0" x="0 5.7518401 9.6048002 15.456 20.125919 25.62384 29.962561">Process</tspan></text>
</g>
    </g>
    <path id="path274" style="fill:#c6efff;fill-opacity:1;fill-rule:evenodd;stroke:none" d="m 177.6,592.1 c 0,3.37 2.73,6.1 6.1,6.1 l 97.2,0 c 3.37,0 6.1,-2.73 6.1,-6.1 l 0,-24.41 c 0,-3.37 -2.73,-6.1 -6.1,-6.1 l -97.2,0 c -3.37,0 -6.1,2.73 -6.1,6.1 l 0,24.41 z"/>
    <path id="path276" style="fill:none;stroke:#002143;stroke-width:2;stroke-linecap:butt;stroke-linejoin:round;stroke-miterlimit:8;stroke-dasharray:none;stroke-opacity:1" d="m 177.6,592.1 c 0,3.37 2.73,6.1 6.1,6.1 l 97.2,0 c 3.37,0 6.1,-2.73 6.1,-6.1 l 0,-24.41 c 0,-3.37 -2.73,-6.1 -6.1,-6.1 l -97.2,0 c -3.37,0 -6.1,2.73 -6.1,6.1 l 0,24.41 z"/>
    <g id="g278">
      <g clip-path="url(#clipPath282)" id="g280"><text id="text286" style="font-variant:normal;font-weight:normal;font-size:11.03999996px;font-family:Calibri;-inkscape-font-specification:Calibri;writing-mode:lr-tb;fill:#000000;fill-opacity:1;fill-rule:nonzero;stroke:none" transform="matrix(1,0,0,-1,194.28,576.17)"><tspan id="tspan288" y="0" x="0 6.8337598 12.33168 15.69888 21.21888 25.8888 29.5872 31.89456 38.728321 44.226238 47.95776 53.455681 58.125599 61.86816 64.407356 70.25856">Defect Detection</tspan></text>
</g>
    </g>
    <path id="path290" style="fill:#c6efff;fill-opacity:1;fill-rule:evenodd;stroke:none" d="m 342.59,592.1 c 0,3.37 2.74,6.1 6.11,6.1 l 97.2,0 c 3.37,0 6.1,-2.73 6.1,-6.1 l 0,-24.41 c 0,-3.37 -2.73,-6.1 -6.1,-6.1 l -97.2,0 c -3.37,0 -6.11,2.73 -6.11,6.1 l 0,24.41 z"/>
    <path id="path292" style="fill:none;stroke:#002143;stroke-width:2;stroke-linecap:butt;stroke-linejoin:round;stroke-miterlimit:8;stroke-dasharray:none;stroke-opacity:1" d="m 342.59,592.1 c 0,3.37 2.74,6.1 6.11,6.1 l 97.2,0 c 3.37,0 6.1,-2.73 6.1,-6.1 l 0,-24.41 c 0,-3.37 -2.73,-6.1 -6.1,-6.1 l -97.2,0 c -3.37,0 -6.11,2.73 -6.11,6.1 l 0,24.41 z"/>
    <g id="g294">
      <g clip-path="url(#clipPath298)" id="g296"><text id="text302" style="font-variant:normal;font-weight:normal;font-size:11.03999996px;font-family:Calibri;-inkscape-font-specification:Calibri;writing-mode:lr-tb;fill:#000000;fill-opacity:1;fill-rule:nonzero;stroke:none" transform="matrix(1,0,0,-1,365.06,576.17)"><tspan id="tspan304" y="0" x="0 6.8337598 12.33168 15.69888 21.21888 25.8888 29.5872 31.89456 37.889278 43.387199 48.44352 50.982719 56.48064">Defect Review</tspan></text>
</g>
    </g>
    <path id="path306" style="fill:#c6efff;fill-opacity:1;fill-rule:evenodd;stroke:none" d="m 507.59,592.1 c 0,3.37 2.73,6.1 6.1,6.1 l 97.2,0 c 3.37,0 6.1,-2.73 6.1,-6.1 l 0,-24.41 c 0,-3.37 -2.73,-6.1 -6.1,-6.1 l -97.2,0 c -3.37,0 -6.1,2.73 -6.1,6.1 l 0,24.41 z"/>
    <path id="path308" style="fill:none;stroke:#002143;stroke-width:2;stroke-linecap:butt;stroke-linejoin:round;stroke-miterlimit:8;stroke-dasharray:none;stroke-opacity:1" d="m 507.59,592.1 c 0,3.37 2.73,6.1 6.1,6.1 l 97.2,0 c 3.37,0 6.1,-2.73 6.1,-6.1 l 0,-24.41 c 0,-3.37 -2.73,-6.1 -6.1,-6.1 l -97.2,0 c -3.37,0 -6.1,2.73 -6.1,6.1 l 0,24.41 z"/>
    <g id="g310">
      <g clip-path="url(#clipPath314)" id="g312"><text id="text318" style="font-variant:normal;font-weight:normal;font-size:11.03999996px;font-family:Calibri;-inkscape-font-specification:Calibri;writing-mode:lr-tb;fill:#000000;fill-opacity:1;fill-rule:nonzero;stroke:none" transform="matrix(1,0,0,-1,544.25,576.17)"><tspan id="tspan320" y="0" x="0 6.3921599 12.12192 17.41008 19.94928 24.950399 29.26704 31.80624">Analysis</tspan></text>
</g>
    </g>
    <path id="path322" style="fill:#000000;fill-opacity:1;fill-rule:evenodd;stroke:none" d="m 140.66,587.76 9.14,0 0,5.35 9.14,-10.7 -9.14,-10.69 0,5.35 -9.14,0 0,10.69 z"/>
    <path id="path324" style="fill:none;stroke:#000000;stroke-width:2;stroke-linecap:butt;stroke-linejoin:miter;stroke-miterlimit:8;stroke-dasharray:none;stroke-opacity:1" d="m 140.66,587.76 9.14,0 0,5.35 9.14,-10.7 -9.14,-10.69 0,5.35 -9.14,0 0,10.69 z"/>
    <path id="path326" style="fill:#000000;fill-opacity:1;fill-rule:evenodd;stroke:none" d="m 305.65,587.76 9.15,0 0,5.35 9.14,-10.7 -9.14,-10.69 0,5.35 -9.15,0 0,10.69 z"/>
    <path id="path328" style="fill:none;stroke:#000000;stroke-width:2;stroke-linecap:butt;stroke-linejoin:miter;stroke-miterlimit:8;stroke-dasharray:none;stroke-opacity:1" d="m 305.65,587.76 9.15,0 0,5.35 9.14,-10.7 -9.14,-10.69 0,5.35 -9.15,0 0,10.69 z"/>
    <path id="path330" style="fill:#000000;fill-opacity:1;fill-rule:evenodd;stroke:none" d="m 470.65,587.76 9.14,0 0,5.35 9.15,-10.7 -9.15,-10.69 0,5.35 -9.14,0 0,10.69 z"/>
    <path id="path332" style="fill:none;stroke:#000000;stroke-width:2;stroke-linecap:butt;stroke-linejoin:miter;stroke-miterlimit:8;stroke-dasharray:none;stroke-opacity:1" d="m 470.65,587.76 9.14,0 0,5.35 9.15,-10.7 -9.15,-10.69 0,5.35 -9.14,0 0,10.69 z"/>
    <path id="path334" style="fill:#ffff00;fill-opacity:1;fill-rule:evenodd;stroke:none" d="m 94.078,355.87 25.442,24.17 -2.51,-22.19 28.88,3.62 -11.47,-11.91 30.05,-3.42 -23.86,-9.75 27.3,-11.72 -32.56,1.45 8.94,-21.48 -28.2,15.16 -5.28,-22 -18.564,20.01 -13.993,-27.77 -5.263,24.89 -20.187,-8.29 6.187,15.33 -37.817,-2.71 24.521,11.72 -25.444,13.16 31.63,4.16 -29.1,22.18 47.455,-16.77 7.109,16.77 16.734,-14.61 z"/>
    <path id="path336" style="fill:none;stroke:#002143;stroke-width:2;stroke-linecap:butt;stroke-linejoin:round;stroke-miterlimit:8;stroke-dasharray:none;stroke-opacity:1" d="m 94.078,355.87 25.442,24.17 -2.51,-22.19 28.88,3.62 -11.47,-11.91 30.05,-3.42 -23.86,-9.75 27.3,-11.72 -32.56,1.45 8.94,-21.48 -28.2,15.16 -5.28,-22 -18.564,20.01 -13.993,-27.77 -5.263,24.89 -20.187,-8.29 6.187,15.33 -37.817,-2.71 24.521,11.72 -25.444,13.16 31.63,4.16 -29.1,22.18 47.455,-16.77 7.109,16.77 16.734,-14.61 z"/>
    <g id="g338">
      <g clip-path="url(#clipPath342)" id="g340"><text id="text346" style="font-variant:normal;font-weight:bold;font-size:11.03999996px;font-family:Calibri;-inkscape-font-specification:Calibri-Bold;writing-mode:lr-tb;fill:#000000;fill-opacity:1;fill-rule:nonzero;stroke:none" transform="matrix(1,0,0,-1,78.168,334.06)"><tspan id="tspan348" y="0" x="0 6.9552002 12.50832 15.96384 21.483841 26.153761">Defect</tspan></text>
</g>
    </g>
  </g>
</svg>
