<?xml version="1.0" encoding="UTF-8" standalone="no"?>
<svg xmlns:dc="http://purl.org/dc/elements/1.1/" xmlns:cc="http://creativecommons.org/ns#" xmlns:rdf="http://www.w3.org/1999/02/22-rdf-syntax-ns#" xmlns:svg="http://www.w3.org/2000/svg" xmlns="http://www.w3.org/2000/svg" viewBox="63.2325 263.025 638.7675 464.175" height="464.175" width="638.7675" xml:space="preserve" version="1.1" id="svg2">
  <metadata id="metadata8">
    <rdf:RDF>
      <cc:Work rdf:about="">
        <dc:format>image/svg+xml</dc:format>
        <dc:type rdf:resource="http://purl.org/dc/dcmitype/StillImage"/>
      </cc:Work>
    </rdf:RDF>
  </metadata>
  <defs id="defs6">
    <clipPath id="clipPath16" clipPathUnits="userSpaceOnUse">
      <path style="clip-rule:evenodd" id="path18" d="m 50.4,210.24 511.2,0 0,371.52 -511.2,0 0,-371.52 z"/>
    </clipPath>
    <clipPath id="clipPath42" clipPathUnits="userSpaceOnUse">
      <path style="clip-rule:evenodd" id="path44" d="m 50.503,210.4 510.97,0 0,371.33 -510.97,0 0,-371.33 z"/>
    </clipPath>
    <clipPath id="clipPath92" clipPathUnits="userSpaceOnUse">
      <path style="clip-rule:evenodd" id="path94" d="m 50.52,210.36 510.96,0 0,371.28 -510.96,0 0,-371.28 z"/>
    </clipPath>
    <clipPath id="clipPath104" clipPathUnits="userSpaceOnUse">
      <path style="clip-rule:evenodd" id="path106" d="m 50.52,210.36 510.96,0 0,371.28 -510.96,0 0,-371.28 z"/>
    </clipPath>
    <clipPath id="clipPath116" clipPathUnits="userSpaceOnUse">
      <path style="clip-rule:evenodd" id="path118" d="m 50.52,210.36 510.96,0 0,371.28 -510.96,0 0,-371.28 z"/>
    </clipPath>
    <clipPath id="clipPath128" clipPathUnits="userSpaceOnUse">
      <path style="clip-rule:evenodd" id="path130" d="m 50.52,210.36 510.96,0 0,371.28 -510.96,0 0,-371.28 z"/>
    </clipPath>
    <clipPath id="clipPath140" clipPathUnits="userSpaceOnUse">
      <path style="clip-rule:evenodd" id="path142" d="m 50.52,210.36 510.96,0 0,371.28 -510.96,0 0,-371.28 z"/>
    </clipPath>
    <clipPath id="clipPath152" clipPathUnits="userSpaceOnUse">
      <path style="clip-rule:evenodd" id="path154" d="m 50.52,210.36 510.96,0 0,371.28 -510.96,0 0,-371.28 z"/>
    </clipPath>
    <clipPath id="clipPath164" clipPathUnits="userSpaceOnUse">
      <path style="clip-rule:evenodd" id="path166" d="m 50.52,210.36 510.96,0 0,371.28 -510.96,0 0,-371.28 z"/>
    </clipPath>
    <clipPath id="clipPath176" clipPathUnits="userSpaceOnUse">
      <path style="clip-rule:evenodd" id="path178" d="m 50.503,581.73 510.977,0 0,-371.33 -510.977,0 0,371.33 z"/>
    </clipPath>
    <clipPath id="clipPath186" clipPathUnits="userSpaceOnUse">
      <path style="clip-rule:evenodd" id="path188" d="m 561.48,581.73 0,-371.33 -510.977,0 0,371.33 510.977,0 z"/>
    </clipPath>
    <clipPath id="clipPath196" clipPathUnits="userSpaceOnUse">
      <path style="clip-rule:evenodd" id="path198" d="m 561.48,581.73 0,-371.33 -510.977,0 0,371.33 510.977,0 z"/>
    </clipPath>
    <clipPath id="clipPath206" clipPathUnits="userSpaceOnUse">
      <path style="clip-rule:evenodd" id="path208" d="m 561.48,581.73 0,-371.33 -510.977,0 0,371.33 510.977,0 z"/>
    </clipPath>
    <clipPath id="clipPath216" clipPathUnits="userSpaceOnUse">
      <path style="clip-rule:evenodd" id="path218" d="m 561.48,581.73 0,-371.33 -510.977,0 0,371.33 510.977,0 z"/>
    </clipPath>
    <clipPath id="clipPath226" clipPathUnits="userSpaceOnUse">
      <path style="clip-rule:evenodd" id="path228" d="m 561.48,581.73 0,-371.33 -510.977,0 0,371.33 510.977,0 z"/>
    </clipPath>
    <clipPath id="clipPath236" clipPathUnits="userSpaceOnUse">
      <path style="clip-rule:evenodd" id="path238" d="m 50.503,581.73 510.977,0 0,-371.33 -510.977,0 0,371.33 z"/>
    </clipPath>
    <clipPath id="clipPath246" clipPathUnits="userSpaceOnUse">
      <path style="clip-rule:evenodd" id="path248" d="m 561.48,581.73 0,-371.33 -510.977,0 0,371.33 510.977,0 z"/>
    </clipPath>
    <clipPath id="clipPath256" clipPathUnits="userSpaceOnUse">
      <path style="clip-rule:evenodd" id="path258" d="m 561.48,581.73 0,-371.33 -510.977,0 0,371.33 510.977,0 z"/>
    </clipPath>
    <clipPath id="clipPath266" clipPathUnits="userSpaceOnUse">
      <path style="clip-rule:evenodd" id="path268" d="m 561.48,581.73 0,-371.33 -510.977,0 0,371.33 510.977,0 z"/>
    </clipPath>
    <clipPath id="clipPath276" clipPathUnits="userSpaceOnUse">
      <path style="clip-rule:evenodd" id="path278" d="m 50.52,210.36 510.96,0 0,371.28 -510.96,0 0,-371.28 z"/>
    </clipPath>
    <clipPath id="clipPath288" clipPathUnits="userSpaceOnUse">
      <path style="clip-rule:evenodd" id="path290" d="m 50.503,210.4 510.97,0 0,371.33 -510.97,0 0,-371.33 z"/>
    </clipPath>
    <clipPath id="clipPath300" clipPathUnits="userSpaceOnUse">
      <path style="clip-rule:evenodd" id="path302" d="m 50.52,210.36 510.96,0 0,371.28 -510.96,0 0,-371.28 z"/>
    </clipPath>
    <clipPath id="clipPath314" clipPathUnits="userSpaceOnUse">
      <path style="clip-rule:evenodd" id="path316" d="m 50.52,210.36 510.96,0 0,371.28 -510.96,0 0,-371.28 z"/>
    </clipPath>
    <clipPath id="clipPath328" clipPathUnits="userSpaceOnUse">
      <path style="clip-rule:evenodd" id="path330" d="m 50.52,210.36 510.96,0 0,371.28 -510.96,0 0,-371.28 z"/>
    </clipPath>
    <clipPath id="clipPath344" clipPathUnits="userSpaceOnUse">
      <path style="clip-rule:evenodd" id="path346" d="m 50.52,210.36 510.96,0 0,371.28 -510.96,0 0,-371.28 z"/>
    </clipPath>
  </defs>
  <g transform="matrix(1.25,0,0,-1.25,0,990)" id="g10">
    <g id="g12">
      <g clip-path="url(#clipPath16)" id="g14">
        <path id="path20" style="fill:none;stroke:#000000;stroke-width:0.14;stroke-linecap:butt;stroke-linejoin:miter;stroke-miterlimit:10;stroke-dasharray:none;stroke-opacity:0" d="m 50.656,210.27 510.9,0 0,371.24 -510.9,0 0,-371.24 z"/>
      </g>
    </g>
    <path id="path22" style="fill:#ffffff;fill-opacity:1;fill-rule:evenodd;stroke:none" d="m 50.656,210.27 510.9,0 0,371.24 -510.9,0 0,-371.24 z"/>
    <path id="path24" style="fill:none;stroke:#c0c0c0;stroke-width:0.93997997;stroke-linecap:round;stroke-linejoin:round;stroke-miterlimit:10;stroke-dasharray:none;stroke-opacity:1" d="m 114.48,331.75 446.51,0 m -446.51,34.99 446.51,0 m -446.51,69.93 446.51,0 m -446.51,34.97 446.51,0 m -446.51,34.96 446.51,0 m -446.51,34.86 446.51,0"/>
    <path id="path26" style="fill:#005aa4;fill-opacity:1;fill-rule:nonzero;stroke:none" d="m 121.92,401.65 29.768,0 0,7.3397 -29.768,0 0,-7.3397 z"/>
    <path id="path28" style="fill:#80add2;fill-opacity:1;fill-rule:nonzero;stroke:none" d="m 166.68,403.73 29.56,0 0,-2.03 -29.56,0 0,2.03 z m 44.45,-32.03 29.78,0 0,30 -29.78,0 0,-30 z m 44.66,35.19 29.78,0 0,-5.19 -29.78,0 0,5.19 z m 44.67,12.63 29.78,0 0,-17.82 -29.78,0 0,17.82 z m 44.67,16.02 29.78,0 0,-33.84 -29.78,0 0,33.84 z m 44.67,-20.53 29.78,0 0,-13.31 -29.78,0 0,13.31 z m 44.67,-9.25 29.78,0 0,-4.06 -29.78,0 0,4.06 z m 44.66,3.61 29.78,0 0,-7.67 -29.78,0 0,7.67 z m 44.67,17.37 29.78,0 0,-25.04 -29.78,0 0,25.04 z"/>
    <path id="path30" style="fill:#d0b86a;fill-opacity:1;fill-rule:nonzero;stroke:none" d="m 121.92,408.99 29.768,0 0,10.485 -29.768,0 0,-10.485 z"/>
    <path id="path32" style="fill:#eadfbc;fill-opacity:1;fill-rule:nonzero;stroke:none" d="m 166.68,404.86 29.56,0 0,-1.13 -29.56,0 0,1.13 z m 44.45,-43.76 29.78,0 0,10.6 -29.78,0 0,-10.6 z m 44.66,60.23 29.78,0 0,-14.44 -29.78,0 0,14.44 z m 44.67,16.02 29.78,0 0,-17.83 -29.78,0 0,17.83 z m 44.67,17.14 29.78,0 0,-18.95 -29.78,0 0,18.95 z m 44.67,-24.59 29.78,0 0,-14.89 -29.78,0 0,14.89 z m 44.67,-3.38 29.78,0 0,-20.76 -29.78,0 0,20.76 z m 44.66,1.35 29.78,0 0,-18.5 -29.78,0 0,18.5 z m 44.67,25.27 29.78,0 0,-26.4 -29.78,0 0,26.4 z"/>
    <path id="path34" style="fill:#226b5a;fill-opacity:1;fill-rule:nonzero;stroke:none" d="m 121.92,419.48 29.768,0 0,26.913 -29.768,0 0,-26.913 z"/>
    <path id="path36" style="fill:#96c7bc;fill-opacity:1;fill-rule:nonzero;stroke:none" d="m 166.68,405.76 29.56,0 0,-0.9 -29.56,0 0,0.9 z m 44.45,42.64 29.78,0 0,-46.7 -29.78,0 0,46.7 z m 44.66,-2.25 29.78,0 0,-24.82 -29.78,0 0,24.82 z m 44.67,17.82 29.78,0 0,-26.62 -29.78,0 0,26.62 z m 44.67,0 29.78,0 0,-9.48 -29.78,0 0,9.48 z m 44.67,2.7 29.78,0 0,-36.77 -29.78,0 0,36.77 z m 44.67,10.83 29.78,0 0,-50.98 -29.78,0 0,50.98 z m 44.66,27.98 29.78,0 0,-77.61 -29.78,0 0,77.61 z m 44.67,18.04 29.78,0 0,-70.38 -29.78,0 0,70.38 z"/>
    <g id="g38">
      <g clip-path="url(#clipPath42)" id="g40">
        <path id="path46" style="fill:none;stroke:#808080;stroke-width:2.3499999;stroke-linecap:round;stroke-linejoin:round;stroke-miterlimit:10;stroke-dasharray:none;stroke-opacity:1" d="m 114.48,401.65 446.51,0"/>
      </g>
    </g>
    <path id="path48" style="fill:#005aa4;fill-opacity:1;fill-rule:nonzero;stroke:none" d="m 136.83,453.83 7.45,-7.45 -7.45,-7.44 -7.44,7.44 7.44,7.45 z"/>
    <path id="path50" style="fill:none;stroke:#ed7d31;stroke-width:1.40999997;stroke-linecap:round;stroke-linejoin:round;stroke-miterlimit:10;stroke-dasharray:none;stroke-opacity:1" d="m 136.83,453.83 7.45,-7.45 -7.45,-7.44 -7.44,7.44 7.44,7.45 z"/>
    <path id="path52" style="fill:#005aa4;fill-opacity:1;fill-rule:nonzero;stroke:none" d="m 181.28,413.22 7.44,-7.45 -7.44,-7.44 -7.45,7.44 7.45,7.45 z"/>
    <path id="path54" style="fill:none;stroke:#ed7d31;stroke-width:1.40999997;stroke-linecap:round;stroke-linejoin:round;stroke-miterlimit:10;stroke-dasharray:none;stroke-opacity:1" d="m 181.28,413.22 7.44,-7.45 -7.44,-7.44 -7.45,7.44 7.45,7.45 z"/>
    <path id="path56" style="fill:#005aa4;fill-opacity:1;fill-rule:nonzero;stroke:none" d="m 225.94,415.47 7.45,-7.44 -7.45,-7.45 -7.44,7.45 7.44,7.44 z"/>
    <path id="path58" style="fill:none;stroke:#ed7d31;stroke-width:1.40999997;stroke-linecap:round;stroke-linejoin:round;stroke-miterlimit:10;stroke-dasharray:none;stroke-opacity:1" d="m 225.94,415.47 7.45,-7.44 -7.45,-7.45 -7.44,7.45 7.44,7.44 z"/>
    <path id="path60" style="fill:#005aa4;fill-opacity:1;fill-rule:nonzero;stroke:none" d="m 270.61,453.6 7.45,-7.45 -7.45,-7.44 -7.44,7.44 7.44,7.45 z"/>
    <path id="path62" style="fill:none;stroke:#ed7d31;stroke-width:1.40999997;stroke-linecap:round;stroke-linejoin:round;stroke-miterlimit:10;stroke-dasharray:none;stroke-opacity:1" d="m 270.61,453.6 7.45,-7.45 -7.45,-7.44 -7.44,7.44 7.44,7.45 z"/>
    <path id="path64" style="fill:#005aa4;fill-opacity:1;fill-rule:nonzero;stroke:none" d="m 315.28,471.42 7.44,-7.44 -7.44,-7.45 -7.44,7.45 7.44,7.44 z"/>
    <path id="path66" style="fill:none;stroke:#ed7d31;stroke-width:1.40999997;stroke-linecap:round;stroke-linejoin:round;stroke-miterlimit:10;stroke-dasharray:none;stroke-opacity:1" d="m 315.28,471.42 7.44,-7.44 -7.44,-7.45 -7.44,7.45 7.44,7.44 z"/>
    <path id="path68" style="fill:#005aa4;fill-opacity:1;fill-rule:nonzero;stroke:none" d="m 359.95,471.42 7.44,-7.44 -7.44,-7.45 -7.45,7.45 7.45,7.44 z"/>
    <path id="path70" style="fill:none;stroke:#ed7d31;stroke-width:1.40999997;stroke-linecap:round;stroke-linejoin:round;stroke-miterlimit:10;stroke-dasharray:none;stroke-opacity:1" d="m 359.95,471.42 7.44,-7.44 -7.44,-7.45 -7.45,7.45 7.45,7.44 z"/>
    <path id="path72" style="fill:#005aa4;fill-opacity:1;fill-rule:nonzero;stroke:none" d="m 404.62,474.13 7.44,-7.45 -7.44,-7.44 -7.45,7.44 7.45,7.45 z"/>
    <path id="path74" style="fill:none;stroke:#ed7d31;stroke-width:1.40999997;stroke-linecap:round;stroke-linejoin:round;stroke-miterlimit:10;stroke-dasharray:none;stroke-opacity:1" d="m 404.62,474.13 7.44,-7.45 -7.44,-7.44 -7.45,7.44 7.45,7.45 z"/>
    <path id="path76" style="fill:#005aa4;fill-opacity:1;fill-rule:nonzero;stroke:none" d="m 449.28,484.96 7.45,-7.45 -7.45,-7.44 -7.44,7.44 7.44,7.45 z"/>
    <path id="path78" style="fill:none;stroke:#ed7d31;stroke-width:1.40999997;stroke-linecap:round;stroke-linejoin:round;stroke-miterlimit:10;stroke-dasharray:none;stroke-opacity:1" d="m 449.28,484.96 7.45,-7.45 -7.45,-7.44 -7.44,7.44 7.44,7.45 z"/>
    <path id="path80" style="fill:#005aa4;fill-opacity:1;fill-rule:nonzero;stroke:none" d="m 493.95,512.93 7.45,-7.44 -7.45,-7.45 -7.44,7.45 7.44,7.44 z"/>
    <path id="path82" style="fill:none;stroke:#ed7d31;stroke-width:1.40999997;stroke-linecap:round;stroke-linejoin:round;stroke-miterlimit:10;stroke-dasharray:none;stroke-opacity:1" d="m 493.95,512.93 7.45,-7.44 -7.45,-7.45 -7.44,7.45 7.44,7.44 z"/>
    <path id="path84" style="fill:#005aa4;fill-opacity:1;fill-rule:nonzero;stroke:none" d="m 538.62,530.98 7.44,-7.45 -7.44,-7.44 -7.44,7.44 7.44,7.45 z"/>
    <path id="path86" style="fill:none;stroke:#ed7d31;stroke-width:1.40999997;stroke-linecap:round;stroke-linejoin:round;stroke-miterlimit:10;stroke-dasharray:none;stroke-opacity:1" d="m 538.62,530.98 7.44,-7.45 -7.44,-7.44 -7.44,7.44 7.44,7.45 z"/>
    <g id="g88">
      <g clip-path="url(#clipPath92)" id="g90"><text id="text96" style="font-variant:normal;font-weight:normal;font-size:16.92000008px;font-family:'Roboto Condensed';-inkscape-font-specification:RobotoCondensed-Regular;writing-mode:lr-tb;fill:#000000;fill-opacity:1;fill-rule:nonzero;stroke:none" transform="matrix(1,0,0,-1,62.928,326.66)"><tspan id="tspan98" y="0" x="0 4.2469201 12.6054 16.85232 25.2108">-2.0%</tspan></text>
</g>
    </g>
    <g id="g100">
      <g clip-path="url(#clipPath104)" id="g102"><text id="text108" style="font-variant:normal;font-weight:normal;font-size:16.94400024px;font-family:'Roboto Condensed';-inkscape-font-specification:RobotoCondensed-Regular;writing-mode:lr-tb;fill:#000000;fill-opacity:1;fill-rule:nonzero;stroke:none" transform="matrix(1,0,0,-1,62.928,361.63)"><tspan id="tspan110" y="0" x="0 4.252944 12.62328 16.85928 25.229616">-1.0%</tspan></text>
</g>
    </g>
    <g id="g112">
      <g clip-path="url(#clipPath116)" id="g114"><text id="text120" style="font-variant:normal;font-weight:normal;font-size:16.92000008px;font-family:'Roboto Condensed';-inkscape-font-specification:RobotoCondensed-Regular;writing-mode:lr-tb;fill:#000000;fill-opacity:1;fill-rule:nonzero;stroke:none" transform="matrix(1,0,0,-1,67.104,396.58)"><tspan id="tspan122" y="0" x="0 8.3584805 12.84228 21.20076">0.0%</tspan></text>
</g>
    </g>
    <g id="g124">
      <g clip-path="url(#clipPath128)" id="g126"><text id="text132" style="font-variant:normal;font-weight:normal;font-size:16.94400024px;font-family:'Roboto Condensed';-inkscape-font-specification:RobotoCondensed-Regular;writing-mode:lr-tb;fill:#000000;fill-opacity:1;fill-rule:nonzero;stroke:none" transform="matrix(1,0,0,-1,67.104,431.54)"><tspan id="tspan134" y="0" x="0 8.3703356 12.826608 21.196943">1.0%</tspan></text>
</g>
    </g>
    <g id="g136">
      <g clip-path="url(#clipPath140)" id="g138"><text id="text144" style="font-variant:normal;font-weight:normal;font-size:16.92000008px;font-family:'Roboto Condensed';-inkscape-font-specification:RobotoCondensed-Regular;writing-mode:lr-tb;fill:#000000;fill-opacity:1;fill-rule:nonzero;stroke:none" transform="matrix(1,0,0,-1,67.104,466.49)"><tspan id="tspan146" y="0" x="0 8.3584805 12.84228 21.20076">2.0%</tspan></text>
</g>
    </g>
    <g id="g148">
      <g clip-path="url(#clipPath152)" id="g150"><text id="text156" style="font-variant:normal;font-weight:normal;font-size:16.92000008px;font-family:'Roboto Condensed';-inkscape-font-specification:RobotoCondensed-Regular;writing-mode:lr-tb;fill:#000000;fill-opacity:1;fill-rule:nonzero;stroke:none" transform="matrix(1,0,0,-1,67.104,501.46)"><tspan id="tspan158" y="0" x="0 8.3584805 12.84228 21.20076">3.0%</tspan></text>
</g>
    </g>
    <g id="g160">
      <g clip-path="url(#clipPath164)" id="g162"><text id="text168" style="font-variant:normal;font-weight:normal;font-size:16.92000008px;font-family:'Roboto Condensed';-inkscape-font-specification:RobotoCondensed-Regular;writing-mode:lr-tb;fill:#000000;fill-opacity:1;fill-rule:nonzero;stroke:none" transform="matrix(1,0,0,-1,67.104,536.4)"><tspan id="tspan170" y="0" x="0 8.3584805 12.84228 21.20076">4.0%</tspan></text>
</g>
    </g>
    <g id="g172">
      <g clip-path="url(#clipPath176)" id="g174">
        <path id="path180" style="fill:#000000;fill-opacity:1;fill-rule:nonzero;stroke:none" d="m 129.18,305.8 -3.01,-3.01 3.02,-3.01 3.5,3.5 0.92,-0.91 -4.57,-4.58 -8.51,8.51 4.52,4.51 0.91,-0.91 -3.44,-3.45 2.74,-2.74 3,3.01 0.92,-0.92 z m 7.5,4.09 -2.88,-2.88 1.57,-2.88 -1.1,-1.1 -5.76,11.24 0.91,0.92 11.25,-5.76 -1.09,-1.1 -2.9,1.56 z m -3.51,-1.68 2.32,2.32 -5.03,2.7 2.71,-5.02 z"/>
      </g>
    </g>
    <g id="g182">
      <g clip-path="url(#clipPath186)" id="g184">
        <path id="path190" style="fill:#000000;fill-opacity:1;fill-rule:nonzero;stroke:none" d="m 154.67,286.29 -2.87,-2.88 3.75,-3.75 -1.07,-1.07 -8.5,8.5 4.43,4.43 0.91,-0.91 -3.36,-3.36 2.92,-2.92 2.87,2.88 0.92,-0.92 z m 2.67,5.86 c -0.17,-0.12 -0.34,-0.26 -0.51,-0.43 -0.53,-0.53 -0.61,-1.19 -0.24,-1.98 l 4.52,-4.52 -1.03,-1.03 -6.32,6.32 1,1 0.66,-0.62 c -0.23,0.78 -0.09,1.42 0.42,1.93 0.16,0.16 0.33,0.27 0.49,0.33 l 1.01,-1 z m 9.66,-1.04 c -0.2,0.07 -0.47,0.26 -0.82,0.55 0.17,-0.9 -0.03,-1.64 -0.6,-2.2 -0.57,-0.58 -1.18,-0.86 -1.82,-0.86 -0.64,0 -1.25,0.29 -1.84,0.87 -0.64,0.65 -0.93,1.37 -0.88,2.19 0.06,0.81 0.47,1.6 1.22,2.37 l 0.76,0.76 -0.67,0.67 c -0.38,0.38 -0.73,0.56 -1.06,0.56 -0.33,-0.01 -0.66,-0.19 -1,-0.53 -0.32,-0.31 -0.48,-0.66 -0.49,-1.04 -0.01,-0.38 0.13,-0.71 0.42,-0.99 l -1.04,-1.04 c -0.32,0.33 -0.54,0.73 -0.64,1.21 -0.1,0.49 -0.08,0.98 0.08,1.47 0.16,0.49 0.43,0.93 0.83,1.33 0.65,0.65 1.3,0.98 1.96,0.99 0.66,0.02 1.3,-0.28 1.92,-0.88 l 3.19,-3.19 c 0.49,-0.49 0.98,-0.84 1.46,-1.07 l 0.1,-0.1 -1.08,-1.07 z m -2.2,-0.56 c 0.25,0.26 0.43,0.57 0.52,0.94 0.08,0.37 0.08,0.71 -0.03,1.03 l -1.51,1.5 -0.58,-0.58 c -0.48,-0.5 -0.76,-1 -0.83,-1.49 -0.07,-0.5 0.08,-0.94 0.46,-1.32 0.36,-0.36 0.69,-0.55 1,-0.56 0.3,-0.02 0.63,0.14 0.97,0.48 z m -0.65,10.34 0.71,-0.65 c -0.13,0.93 0.11,1.71 0.74,2.34 1.11,1.11 2.43,0.93 3.93,-0.54 l 4.2,-4.2 -1.02,-1.03 -4.16,4.15 c -0.49,0.5 -0.93,0.77 -1.3,0.81 -0.37,0.04 -0.73,-0.1 -1.06,-0.43 -0.26,-0.26 -0.4,-0.58 -0.43,-0.95 -0.04,-0.38 0.02,-0.77 0.17,-1.17 l 4.6,-4.59 -1.04,-1.03 -6.32,6.32 0.98,0.97 z m 12.52,1.41 c 0.34,0.34 0.51,0.73 0.5,1.14 0,0.42 -0.19,0.84 -0.57,1.25 l 0.98,0.98 c 0.58,-0.63 0.87,-1.35 0.86,-2.16 -0.01,-0.81 -0.3,-1.5 -0.89,-2.09 -0.78,-0.78 -1.63,-1.13 -2.53,-1.05 -0.9,0.08 -1.84,0.61 -2.82,1.58 l -0.69,0.7 c -0.96,0.95 -1.48,1.88 -1.56,2.79 -0.09,0.9 0.26,1.75 1.04,2.53 0.64,0.64 1.36,0.95 2.15,0.92 0.79,-0.03 1.55,-0.38 2.28,-1.07 l -0.97,-0.97 c -0.49,0.44 -0.96,0.68 -1.39,0.71 -0.44,0.04 -0.83,-0.13 -1.18,-0.48 -0.46,-0.46 -0.65,-0.95 -0.57,-1.47 0.08,-0.53 0.46,-1.14 1.14,-1.84 l 0.8,-0.8 c 0.75,-0.75 1.38,-1.16 1.91,-1.25 0.53,-0.09 1.03,0.11 1.51,0.58 z m 6.53,4.77 c -0.79,-0.79 -1.63,-1.16 -2.52,-1.11 -0.89,0.05 -1.79,0.52 -2.71,1.42 l -0.76,0.77 c -0.94,0.94 -1.48,1.88 -1.6,2.83 -0.13,0.95 0.18,1.79 0.91,2.52 0.74,0.74 1.53,1.06 2.37,0.96 0.84,-0.11 1.76,-0.66 2.76,-1.64 l 0.68,-0.68 -3.53,-3.53 0.15,-0.15 c 0.68,-0.67 1.3,-1.04 1.86,-1.09 0.56,-0.05 1.08,0.16 1.56,0.64 0.31,0.3 0.52,0.63 0.63,0.97 0.12,0.35 0.15,0.75 0.11,1.2 l 1.19,-0.12 c 0.18,-1.07 -0.19,-2.07 -1.1,-2.99 z m -5.79,5.55 c -0.43,-0.43 -0.6,-0.9 -0.51,-1.4 0.09,-0.5 0.43,-1.07 1.02,-1.72 l 2.49,2.49 -0.14,0.14 c -0.63,0.57 -1.16,0.89 -1.61,0.96 -0.45,0.07 -0.86,-0.09 -1.25,-0.47 z"/>
      </g>
    </g>
    <g id="g192">
      <g clip-path="url(#clipPath196)" id="g194">
        <path id="path200" style="fill:#000000;fill-opacity:1;fill-rule:nonzero;stroke:none" d="m 202.4,283.96 0.04,-0.42 c 0.09,-1.16 -0.38,-2.26 -1.42,-3.3 -0.92,-0.92 -1.94,-1.33 -3.08,-1.25 -1.13,0.09 -2.26,0.68 -3.38,1.78 l -1.67,1.68 c -1.2,1.19 -1.85,2.32 -1.97,3.39 -0.11,1.07 0.3,2.08 1.25,3.03 0.81,0.81 1.67,1.22 2.58,1.23 0.91,0.01 1.8,-0.39 2.69,-1.18 l -1.07,-1.07 c -0.58,0.49 -1.14,0.76 -1.69,0.81 -0.54,0.04 -1.07,-0.19 -1.58,-0.7 -0.62,-0.61 -0.86,-1.26 -0.75,-1.94 0.12,-0.69 0.61,-1.47 1.47,-2.36 l 1.74,-1.73 c 0.85,-0.86 1.67,-1.36 2.46,-1.49 0.78,-0.13 1.48,0.11 2.09,0.73 0.58,0.57 0.88,1.15 0.9,1.73 l 0.01,0.3 -1.95,1.96 -1.56,-1.56 -0.91,0.92 2.62,2.62 3.18,-3.18 z m -0.14,8.46 c -0.17,-0.12 -0.34,-0.26 -0.5,-0.43 -0.53,-0.53 -0.61,-1.19 -0.24,-1.98 l 4.52,-4.52 -1.04,-1.03 -6.32,6.32 1.01,1 0.66,-0.62 c -0.23,0.78 -0.09,1.43 0.41,1.93 0.17,0.17 0.33,0.27 0.49,0.33 l 1.01,-1 z m 8.79,-2.15 c -0.79,-0.79 -1.62,-1.16 -2.51,-1.11 -0.89,0.05 -1.8,0.53 -2.71,1.43 l -0.77,0.76 c -0.94,0.94 -1.47,1.89 -1.6,2.83 -0.12,0.95 0.18,1.79 0.92,2.53 0.74,0.74 1.53,1.06 2.37,0.95 0.83,-0.1 1.75,-0.65 2.76,-1.64 l 0.68,-0.68 -3.53,-3.53 0.14,-0.14 c 0.68,-0.68 1.3,-1.05 1.86,-1.1 0.57,-0.05 1.09,0.16 1.57,0.64 0.3,0.31 0.51,0.63 0.63,0.98 0.12,0.34 0.15,0.74 0.1,1.19 l 1.2,-0.11 c 0.18,-1.08 -0.19,-2.08 -1.11,-3 z m -5.78,5.55 c -0.43,-0.43 -0.6,-0.89 -0.51,-1.39 0.08,-0.5 0.42,-1.08 1.02,-1.72 l 2.48,2.49 -0.14,0.14 c -0.62,0.57 -1.16,0.89 -1.61,0.96 -0.44,0.06 -0.86,-0.09 -1.24,-0.48 z m 11.36,0.03 c -0.78,-0.78 -1.62,-1.15 -2.51,-1.1 -0.89,0.05 -1.79,0.52 -2.71,1.42 l -0.76,0.76 c -0.95,0.95 -1.48,1.89 -1.6,2.84 -0.13,0.94 0.18,1.79 0.91,2.52 0.74,0.74 1.53,1.06 2.37,0.95 0.84,-0.1 1.76,-0.65 2.76,-1.64 l 0.68,-0.68 -3.53,-3.52 0.15,-0.15 c 0.67,-0.68 1.3,-1.04 1.86,-1.1 0.56,-0.05 1.08,0.17 1.56,0.64 0.3,0.31 0.51,0.63 0.63,0.98 0.12,0.35 0.15,0.75 0.11,1.2 l 1.19,-0.12 c 0.18,-1.08 -0.19,-2.08 -1.11,-3 z m -5.78,5.55 c -0.43,-0.42 -0.6,-0.89 -0.51,-1.39 0.09,-0.5 0.43,-1.07 1.02,-1.72 l 2.49,2.49 -0.14,0.14 c -0.63,0.57 -1.17,0.89 -1.61,0.96 -0.45,0.07 -0.86,-0.09 -1.25,-0.48 z m 10.42,0.85 c 0.34,0.35 0.51,0.73 0.51,1.15 -0.01,0.42 -0.2,0.83 -0.57,1.24 l 0.97,0.98 c 0.59,-0.63 0.87,-1.35 0.87,-2.16 -0.01,-0.8 -0.31,-1.5 -0.9,-2.09 -0.78,-0.78 -1.62,-1.13 -2.53,-1.05 -0.9,0.08 -1.84,0.61 -2.81,1.58 l -0.7,0.7 c -0.95,0.95 -1.47,1.88 -1.56,2.79 -0.09,0.9 0.26,1.75 1.04,2.53 0.65,0.65 1.37,0.96 2.16,0.93 0.78,-0.03 1.54,-0.39 2.28,-1.07 l -0.98,-0.98 c -0.49,0.44 -0.95,0.68 -1.39,0.72 -0.43,0.03 -0.82,-0.13 -1.18,-0.49 -0.46,-0.46 -0.65,-0.95 -0.57,-1.47 0.08,-0.53 0.46,-1.14 1.14,-1.83 l 0.81,-0.81 c 0.74,-0.74 1.38,-1.16 1.91,-1.25 0.52,-0.08 1.03,0.11 1.5,0.58 z m 6.53,4.77 c -0.79,-0.79 -1.62,-1.16 -2.51,-1.11 -0.89,0.05 -1.8,0.53 -2.71,1.43 l -0.77,0.76 c -0.94,0.94 -1.47,1.89 -1.6,2.83 -0.12,0.95 0.18,1.79 0.92,2.53 0.74,0.74 1.53,1.06 2.37,0.95 0.83,-0.1 1.75,-0.65 2.76,-1.64 l 0.68,-0.68 -3.53,-3.53 0.14,-0.14 c 0.68,-0.68 1.3,-1.05 1.86,-1.1 0.57,-0.05 1.09,0.16 1.57,0.64 0.3,0.3 0.51,0.63 0.63,0.98 0.11,0.34 0.15,0.74 0.1,1.19 l 1.19,-0.11 c 0.19,-1.08 -0.18,-2.08 -1.1,-3 z m -5.78,5.55 c -0.43,-0.43 -0.6,-0.89 -0.51,-1.39 0.08,-0.5 0.42,-1.08 1.02,-1.72 l 2.48,2.48 -0.14,0.15 c -0.62,0.57 -1.16,0.89 -1.61,0.96 -0.44,0.06 -0.86,-0.09 -1.24,-0.48 z"/>
      </g>
    </g>
    <g id="g202">
      <g clip-path="url(#clipPath206)" id="g204">
        <path id="path210" style="fill:#000000;fill-opacity:1;fill-rule:nonzero;stroke:none" d="m 256.96,291.76 -1.07,-1.07 -8.51,8.51 1.07,1.07 8.51,-8.51 z m -4.73,10.98 1.53,-1.53 0.96,0.95 0.83,-0.84 -0.95,-0.95 3.92,-3.92 c 0.25,-0.25 0.48,-0.4 0.69,-0.45 0.21,-0.04 0.42,0.03 0.62,0.23 0.13,0.14 0.25,0.3 0.34,0.48 l 0.86,-0.88 c -0.16,-0.31 -0.36,-0.59 -0.6,-0.83 -0.41,-0.41 -0.87,-0.58 -1.37,-0.5 -0.51,0.08 -1.03,0.38 -1.56,0.92 l -3.93,3.92 -0.96,-0.96 -0.84,0.83 0.96,0.97 -1.53,1.53 1.03,1.03 z m 13.26,-2.45 c -0.2,0.08 -0.47,0.26 -0.82,0.56 0.17,-0.9 -0.03,-1.64 -0.6,-2.21 -0.57,-0.57 -1.18,-0.86 -1.82,-0.86 -0.64,0 -1.26,0.29 -1.84,0.88 -0.64,0.64 -0.94,1.37 -0.88,2.18 0.06,0.82 0.47,1.61 1.22,2.38 l 0.76,0.75 -0.67,0.68 c -0.38,0.37 -0.73,0.56 -1.06,0.55 -0.33,-0.01 -0.66,-0.18 -1.01,-0.52 -0.31,-0.32 -0.47,-0.66 -0.48,-1.04 -0.01,-0.38 0.13,-0.71 0.41,-1 l -1.03,-1.03 c -0.32,0.32 -0.54,0.73 -0.64,1.21 -0.1,0.49 -0.08,0.97 0.08,1.46 0.15,0.49 0.43,0.94 0.83,1.34 0.65,0.64 1.3,0.97 1.96,0.99 0.65,0.01 1.29,-0.28 1.92,-0.89 l 3.19,-3.19 c 0.49,-0.48 0.98,-0.84 1.46,-1.07 l 0.1,-0.09 -1.08,-1.08 z m -2.2,-0.55 c 0.25,0.25 0.42,0.56 0.51,0.93 0.09,0.37 0.09,0.72 -0.02,1.03 l -1.51,1.51 -0.58,-0.58 c -0.48,-0.5 -0.76,-1 -0.83,-1.5 -0.08,-0.49 0.08,-0.93 0.46,-1.31 0.36,-0.36 0.69,-0.55 1,-0.57 0.3,-0.02 0.63,0.15 0.97,0.49 z m 5.81,4.16 -1.04,-1.04 -8.97,8.98 1.03,1.03 8.98,-8.97 z m 1.6,5.04 -3.45,5.76 1.1,1.09 5.15,-9.28 c 0.38,-0.7 0.57,-1.33 0.57,-1.89 0,-0.57 -0.18,-1.04 -0.54,-1.4 -0.14,-0.14 -0.35,-0.29 -0.63,-0.44 l -0.88,0.87 0.25,0.21 c 0.3,0.3 0.46,0.6 0.49,0.92 0.03,0.31 -0.08,0.69 -0.33,1.15 l -0.5,0.91 -8.12,4.41 1.12,1.13 5.77,-3.44 z"/>
      </g>
    </g>
    <g id="g212">
      <g clip-path="url(#clipPath216)" id="g214">
        <path id="path220" style="fill:#000000;fill-opacity:1;fill-rule:nonzero;stroke:none" d="m 282.93,275.19 0.04,-0.42 c 0.09,-1.16 -0.38,-2.26 -1.42,-3.3 -0.92,-0.92 -1.94,-1.34 -3.08,-1.25 -1.13,0.08 -2.26,0.68 -3.38,1.78 l -1.68,1.67 c -1.19,1.19 -1.84,2.32 -1.96,3.4 -0.11,1.07 0.3,2.08 1.25,3.03 0.81,0.81 1.67,1.22 2.58,1.22 0.91,0.01 1.8,-0.38 2.69,-1.17 l -1.07,-1.07 c -0.58,0.49 -1.14,0.75 -1.69,0.8 -0.54,0.05 -1.07,-0.18 -1.58,-0.69 -0.62,-0.61 -0.86,-1.26 -0.75,-1.95 0.12,-0.68 0.61,-1.47 1.47,-2.35 l 1.73,-1.74 c 0.86,-0.85 1.68,-1.35 2.47,-1.48 0.78,-0.13 1.48,0.11 2.09,0.72 0.58,0.58 0.88,1.16 0.9,1.74 l 0.01,0.3 -1.95,1.95 -1.56,-1.55 -0.92,0.92 2.63,2.62 3.18,-3.18 z m 4.98,2.64 c -0.79,-0.79 -1.62,-1.16 -2.51,-1.11 -0.89,0.05 -1.8,0.52 -2.71,1.42 l -0.77,0.77 c -0.94,0.94 -1.47,1.89 -1.6,2.83 -0.12,0.95 0.18,1.79 0.92,2.53 0.74,0.74 1.53,1.05 2.37,0.95 0.83,-0.11 1.75,-0.65 2.76,-1.64 l 0.68,-0.68 -3.53,-3.53 0.14,-0.15 c 0.68,-0.67 1.3,-1.04 1.86,-1.09 0.57,-0.05 1.09,0.16 1.57,0.64 0.3,0.3 0.51,0.63 0.63,0.97 0.12,0.35 0.15,0.75 0.1,1.2 l 1.2,-0.11 c 0.18,-1.08 -0.19,-2.08 -1.11,-3 z m -5.78,5.55 c -0.43,-0.43 -0.6,-0.89 -0.51,-1.4 0.08,-0.5 0.42,-1.07 1.02,-1.72 l 2.48,2.49 -0.14,0.14 c -0.62,0.58 -1.16,0.9 -1.6,0.96 -0.45,0.07 -0.87,-0.09 -1.25,-0.47 z m 6.25,5.85 c -0.17,-0.12 -0.34,-0.26 -0.51,-0.43 -0.53,-0.53 -0.61,-1.19 -0.24,-1.98 l 4.52,-4.52 -1.03,-1.03 -6.32,6.32 1,1 0.66,-0.62 c -0.23,0.78 -0.09,1.43 0.42,1.93 0.16,0.17 0.32,0.27 0.49,0.33 l 1.01,-1 z m 1.06,3 0.61,-0.56 c -0.08,0.85 0.19,1.6 0.82,2.23 0.71,0.7 1.51,0.89 2.4,0.56 -0.22,1.01 0.03,1.87 0.74,2.57 1.16,1.17 2.49,1.04 3.97,-0.39 l 4.25,-4.26 -1.02,-1.02 -4.16,4.16 c -0.46,0.46 -0.89,0.72 -1.27,0.78 -0.39,0.06 -0.78,-0.11 -1.17,-0.5 -0.31,-0.31 -0.44,-0.68 -0.4,-1.12 0.05,-0.44 0.24,-0.86 0.59,-1.26 l 4.23,-4.24 -1.04,-1.04 -4.2,4.21 c -0.89,0.86 -1.69,0.95 -2.39,0.25 -0.52,-0.53 -0.63,-1.16 -0.32,-1.89 l 4.74,-4.74 -1.03,-1.03 -6.32,6.32 0.97,0.97 z m 17.69,5.05 c -0.2,0.08 -0.47,0.26 -0.82,0.56 0.17,-0.91 -0.03,-1.64 -0.6,-2.21 -0.57,-0.57 -1.18,-0.86 -1.82,-0.86 -0.64,0 -1.26,0.29 -1.84,0.88 -0.64,0.64 -0.93,1.37 -0.88,2.18 0.06,0.82 0.47,1.61 1.22,2.37 l 0.76,0.76 -0.67,0.68 c -0.38,0.37 -0.73,0.56 -1.06,0.55 -0.33,-0.01 -0.66,-0.18 -1.01,-0.53 -0.31,-0.31 -0.47,-0.65 -0.48,-1.03 -0.01,-0.38 0.13,-0.71 0.41,-1 l -1.03,-1.03 c -0.32,0.32 -0.54,0.72 -0.64,1.21 -0.1,0.48 -0.08,0.97 0.08,1.46 0.16,0.49 0.43,0.94 0.83,1.33 0.65,0.65 1.3,0.98 1.96,1 0.65,0.01 1.29,-0.28 1.92,-0.89 l 3.19,-3.19 c 0.49,-0.48 0.98,-0.84 1.46,-1.07 l 0.1,-0.09 -1.08,-1.08 z m -2.2,-0.55 c 0.25,0.25 0.42,0.56 0.51,0.93 0.09,0.37 0.09,0.72 -0.02,1.03 l -1.51,1.51 -0.58,-0.59 c -0.48,-0.49 -0.76,-0.99 -0.83,-1.49 -0.08,-0.5 0.08,-0.93 0.46,-1.32 0.36,-0.35 0.69,-0.54 1,-0.56 0.3,-0.02 0.63,0.15 0.97,0.49 z m -0.65,10.34 0.71,-0.66 c -0.13,0.94 0.11,1.72 0.73,2.34 1.12,1.12 2.43,0.94 3.94,-0.54 l 4.2,-4.2 -1.03,-1.03 -4.15,4.16 c -0.49,0.49 -0.93,0.76 -1.3,0.8 -0.38,0.05 -0.73,-0.1 -1.06,-0.43 -0.26,-0.25 -0.4,-0.57 -0.43,-0.95 -0.04,-0.37 0.02,-0.76 0.17,-1.16 l 4.6,-4.59 -1.04,-1.04 -6.32,6.32 0.98,0.98 z m 11.1,1.89 -3.46,5.76 1.1,1.09 5.15,-9.28 c 0.38,-0.7 0.58,-1.33 0.57,-1.89 0,-0.57 -0.18,-1.04 -0.54,-1.4 -0.14,-0.14 -0.35,-0.29 -0.63,-0.44 l -0.88,0.87 0.25,0.21 c 0.3,0.3 0.46,0.6 0.49,0.92 0.03,0.31 -0.08,0.69 -0.33,1.15 l -0.5,0.91 -8.12,4.41 1.12,1.13 5.78,-3.44 z"/>
      </g>
    </g>
    <g id="g222">
      <g clip-path="url(#clipPath226)" id="g224">
        <path id="path230" style="fill:#000000;fill-opacity:1;fill-rule:nonzero;stroke:none" d="m 333.1,283.05 -2.88,-2.88 1.57,-2.88 -1.1,-1.1 -5.77,11.24 0.92,0.92 11.25,-5.76 -1.1,-1.1 -2.89,1.56 z m -3.52,-1.68 2.32,2.32 -5.03,2.7 2.71,-5.02 z m 11.16,5.98 c 0.1,-0.79 -0.17,-1.52 -0.83,-2.18 -0.57,-0.57 -1.2,-0.8 -1.89,-0.7 -0.69,0.1 -1.41,0.53 -2.17,1.28 l -4.12,4.12 1.03,1.03 4.04,-4.04 c 0.99,-0.99 1.77,-1.19 2.37,-0.59 0.62,0.62 0.78,1.34 0.45,2.13 l -4.68,4.68 1.04,1.04 6.32,-6.32 -0.98,-0.98 -0.58,0.53 z m 4.53,6.65 c -0.23,0.22 -0.5,0.33 -0.83,0.32 -0.33,-0.01 -0.84,-0.14 -1.53,-0.41 -0.79,-0.32 -1.37,-0.52 -1.77,-0.58 -0.39,-0.07 -0.74,-0.05 -1.07,0.04 -0.32,0.1 -0.62,0.29 -0.91,0.58 -0.51,0.51 -0.75,1.13 -0.72,1.84 0.04,0.72 0.35,1.37 0.93,1.96 0.62,0.61 1.29,0.93 2.02,0.94 0.73,0.02 1.38,-0.25 1.94,-0.82 l -1.03,-1.02 c -0.28,0.28 -0.62,0.43 -1.01,0.44 -0.39,0.01 -0.74,-0.14 -1.03,-0.43 -0.3,-0.31 -0.46,-0.62 -0.48,-0.95 -0.02,-0.33 0.11,-0.63 0.37,-0.9 0.21,-0.21 0.44,-0.31 0.7,-0.31 0.25,0 0.73,0.13 1.42,0.41 1.07,0.46 1.88,0.69 2.44,0.68 0.57,-0.01 1.07,-0.24 1.51,-0.68 0.55,-0.55 0.8,-1.17 0.75,-1.88 -0.04,-0.71 -0.39,-1.38 -1.02,-2.02 -0.66,-0.65 -1.38,-1 -2.17,-1.03 -0.79,-0.03 -1.47,0.24 -2.05,0.82 l 1.04,1.04 c 0.36,-0.33 0.74,-0.5 1.15,-0.5 0.4,0.01 0.78,0.19 1.15,0.56 0.34,0.34 0.52,0.68 0.55,1.01 0.02,0.33 -0.09,0.63 -0.35,0.89 z m -2.37,10.1 1.53,-1.53 0.95,0.95 0.84,-0.83 -0.96,-0.96 3.93,-3.92 c 0.25,-0.25 0.48,-0.4 0.69,-0.45 0.21,-0.04 0.41,0.03 0.61,0.23 0.14,0.14 0.25,0.3 0.35,0.49 l 0.86,-0.89 c -0.16,-0.31 -0.36,-0.58 -0.61,-0.83 -0.41,-0.41 -0.86,-0.57 -1.37,-0.5 -0.51,0.08 -1.03,0.39 -1.56,0.92 l -3.92,3.93 -0.97,-0.97 -0.83,0.84 0.96,0.96 -1.53,1.53 1.03,1.03 z m 7.26,2.27 c -0.17,-0.12 -0.34,-0.26 -0.5,-0.43 -0.53,-0.53 -0.61,-1.19 -0.24,-1.98 l 4.52,-4.52 -1.04,-1.04 -6.32,6.32 1.01,1.01 0.66,-0.63 c -0.23,0.79 -0.09,1.43 0.41,1.94 0.17,0.16 0.33,0.27 0.49,0.32 l 1.01,-0.99 z m 7.53,-3.18 -1.04,-1.04 -6.32,6.32 1.04,1.04 6.32,-6.32 z m -7.92,8.08 c 0.18,-0.18 0.28,-0.37 0.29,-0.59 0.02,-0.21 -0.07,-0.42 -0.26,-0.62 -0.2,-0.19 -0.4,-0.28 -0.62,-0.26 -0.21,0.02 -0.41,0.12 -0.58,0.29 -0.18,0.18 -0.28,0.37 -0.3,0.59 -0.02,0.22 0.06,0.43 0.26,0.62 0.19,0.2 0.4,0.28 0.62,0.26 0.22,-0.02 0.42,-0.12 0.59,-0.29 z m 12.77,-3.23 c -0.2,0.07 -0.48,0.26 -0.83,0.55 0.18,-0.9 -0.02,-1.64 -0.59,-2.21 -0.57,-0.57 -1.18,-0.85 -1.82,-0.85 -0.65,0 -1.26,0.29 -1.84,0.87 -0.65,0.64 -0.94,1.37 -0.88,2.19 0.06,0.81 0.46,1.6 1.21,2.37 l 0.76,0.76 -0.67,0.67 c -0.38,0.38 -0.73,0.56 -1.06,0.55 -0.32,0 -0.66,-0.18 -1,-0.52 -0.31,-0.31 -0.47,-0.66 -0.48,-1.04 -0.01,-0.38 0.13,-0.71 0.41,-0.99 l -1.03,-1.04 c -0.33,0.33 -0.54,0.73 -0.64,1.21 -0.11,0.49 -0.08,0.98 0.08,1.47 0.15,0.49 0.43,0.93 0.82,1.33 0.65,0.65 1.3,0.98 1.96,0.99 0.66,0.02 1.3,-0.28 1.92,-0.89 l 3.19,-3.19 c 0.49,-0.48 0.98,-0.83 1.47,-1.06 l 0.09,-0.1 -1.07,-1.07 z m -2.2,-0.56 c 0.25,0.26 0.42,0.57 0.51,0.94 0.09,0.37 0.08,0.71 -0.02,1.03 l -1.51,1.5 -0.58,-0.58 c -0.49,-0.5 -0.77,-1 -0.84,-1.49 -0.07,-0.5 0.09,-0.94 0.47,-1.32 0.36,-0.36 0.69,-0.55 0.99,-0.57 0.31,-0.01 0.63,0.15 0.98,0.49 z"/>
      </g>
    </g>
    <g id="g232">
      <g clip-path="url(#clipPath236)" id="g234">
        <path id="path240" style="fill:#000000;fill-opacity:1;fill-rule:nonzero;stroke:none" d="m 371.49,272.34 -8.5,8.51 2.42,2.42 c 0.78,0.78 1.55,1.17 2.32,1.18 0.77,0.02 1.53,-0.35 2.28,-1.11 0.4,-0.4 0.65,-0.85 0.76,-1.35 0.1,-0.5 0.07,-1.01 -0.1,-1.51 0.51,0.27 1.05,0.34 1.64,0.21 0.59,-0.14 1.14,-0.46 1.65,-0.97 0.77,-0.76 1.16,-1.57 1.18,-2.43 0.01,-0.85 -0.37,-1.67 -1.14,-2.44 l -2.51,-2.51 z m -2.91,5.05 3.06,-3.06 1.47,1.46 c 0.4,0.4 0.59,0.86 0.56,1.36 -0.03,0.51 -0.29,1 -0.77,1.48 -1.02,1.03 -1.97,1.11 -2.83,0.24 l -1.49,-1.48 z m -0.9,0.9 1.38,1.37 c 0.37,0.37 0.54,0.79 0.52,1.27 -0.02,0.48 -0.24,0.93 -0.65,1.34 -0.47,0.47 -0.92,0.7 -1.34,0.71 -0.42,0.01 -0.84,-0.2 -1.26,-0.63 l -1.36,-1.35 2.71,-2.71 z m 12.58,2.59 c -0.78,-0.79 -1.62,-1.16 -2.51,-1.11 -0.89,0.05 -1.79,0.52 -2.71,1.42 l -0.76,0.77 c -0.95,0.94 -1.48,1.89 -1.6,2.83 -0.13,0.95 0.18,1.79 0.91,2.53 0.74,0.74 1.53,1.05 2.37,0.95 0.84,-0.11 1.76,-0.65 2.76,-1.64 l 0.68,-0.68 -3.53,-3.53 0.15,-0.14 c 0.68,-0.68 1.3,-1.05 1.86,-1.1 0.56,-0.05 1.08,0.16 1.56,0.64 0.3,0.3 0.52,0.63 0.63,0.98 0.12,0.34 0.15,0.74 0.11,1.19 l 1.19,-0.11 c 0.18,-1.08 -0.19,-2.08 -1.11,-3 z m -5.78,5.55 c -0.43,-0.43 -0.6,-0.89 -0.51,-1.39 0.09,-0.5 0.43,-1.08 1.02,-1.72 l 2.49,2.48 -0.14,0.14 c -0.63,0.58 -1.17,0.9 -1.61,0.96 -0.45,0.07 -0.86,-0.09 -1.25,-0.47 z m 10.11,-1 -1.04,-1.03 -8.97,8.97 1.03,1.04 8.98,-8.98 z m -2.06,4.84 c -0.98,0.99 -1.55,1.91 -1.7,2.77 -0.14,0.87 0.13,1.64 0.82,2.33 0.64,0.64 1.4,0.86 2.29,0.64 l -0.66,0.76 0.94,0.94 6.38,-6.38 c 0.78,-0.78 1.18,-1.58 1.2,-2.4 0.02,-0.82 -0.33,-1.59 -1.05,-2.31 -0.31,-0.31 -0.74,-0.58 -1.28,-0.82 -0.54,-0.23 -1.02,-0.33 -1.44,-0.3 l -0.29,1.13 c 0.85,0.01 1.53,0.27 2.05,0.79 0.86,0.86 0.83,1.77 -0.09,2.74 l -0.82,0.82 c 0.16,-0.83 -0.07,-1.55 -0.68,-2.17 -0.66,-0.65 -1.41,-0.92 -2.27,-0.79 -0.86,0.13 -1.76,0.64 -2.7,1.55 l -0.7,0.7 z m 1.62,0.45 c 0.71,-0.71 1.33,-1.12 1.87,-1.25 0.55,-0.12 1.05,0.05 1.53,0.53 0.51,0.51 0.64,1.16 0.37,1.94 l -3.16,3.16 c -0.78,0.25 -1.42,0.12 -1.92,-0.37 -0.47,-0.48 -0.65,-0.98 -0.53,-1.53 0.12,-0.54 0.53,-1.16 1.21,-1.85 l 0.63,-0.63 z m 9.05,3.33 -1.03,-1.04 -6.32,6.33 1.03,1.03 6.32,-6.32 z m -7.92,8.08 c 0.18,-0.18 0.28,-0.37 0.3,-0.59 0.02,-0.21 -0.07,-0.42 -0.27,-0.62 -0.2,-0.19 -0.4,-0.28 -0.62,-0.26 -0.21,0.02 -0.4,0.12 -0.58,0.29 -0.17,0.18 -0.27,0.38 -0.3,0.59 -0.02,0.22 0.06,0.43 0.26,0.62 0.19,0.2 0.4,0.28 0.62,0.26 0.23,-0.02 0.42,-0.12 0.59,-0.29 z m 12.19,-2.71 c 0.1,-0.79 -0.18,-1.51 -0.83,-2.17 -0.58,-0.57 -1.21,-0.81 -1.89,-0.7 -0.69,0.1 -1.41,0.53 -2.17,1.28 l -4.12,4.12 1.03,1.03 4.04,-4.05 c 0.98,-0.98 1.77,-1.18 2.36,-0.59 0.63,0.63 0.78,1.34 0.46,2.14 l -4.68,4.68 1.03,1.03 6.33,-6.32 -0.99,-0.98 -0.57,0.53 z m -2.12,9.42 0.61,-0.56 c -0.08,0.86 0.19,1.6 0.82,2.23 0.71,0.7 1.51,0.89 2.4,0.56 -0.21,1.01 0.03,1.87 0.74,2.57 1.17,1.17 2.49,1.04 3.97,-0.39 l 4.26,-4.26 -1.03,-1.02 -4.16,4.16 c -0.46,0.46 -0.88,0.72 -1.27,0.78 -0.39,0.06 -0.78,-0.11 -1.17,-0.5 -0.31,-0.31 -0.44,-0.68 -0.39,-1.12 0.04,-0.44 0.24,-0.86 0.58,-1.26 l 4.24,-4.24 -1.04,-1.04 -4.21,4.21 c -0.89,0.86 -1.68,0.95 -2.38,0.25 -0.53,-0.53 -0.63,-1.16 -0.33,-1.89 l 4.74,-4.74 -1.03,-1.03 -6.32,6.32 0.97,0.97 z"/>
      </g>
    </g>
    <g id="g242">
      <g clip-path="url(#clipPath246)" id="g244">
        <path id="path250" style="fill:#000000;fill-opacity:1;fill-rule:nonzero;stroke:none" d="m 402.78,258.97 -1.08,-1.07 -9.96,3.15 6.56,-6.56 -1.08,-1.07 -8.5,8.5 1.07,1.08 10,-3.17 -6.58,6.59 1.06,1.06 8.51,-8.51 z m 4.01,3.78 c -0.79,-0.78 -1.62,-1.15 -2.51,-1.1 -0.89,0.05 -1.8,0.52 -2.71,1.42 l -0.77,0.76 c -0.94,0.95 -1.47,1.89 -1.6,2.84 -0.12,0.94 0.18,1.79 0.92,2.52 0.74,0.74 1.53,1.06 2.37,0.95 0.83,-0.1 1.75,-0.65 2.76,-1.64 l 0.68,-0.68 -3.53,-3.52 0.14,-0.15 c 0.68,-0.68 1.3,-1.04 1.86,-1.1 0.57,-0.05 1.09,0.16 1.57,0.64 0.3,0.31 0.51,0.63 0.63,0.98 0.11,0.35 0.15,0.75 0.1,1.2 l 1.19,-0.12 c 0.19,-1.08 -0.18,-2.08 -1.1,-3 z m -5.78,5.55 c -0.43,-0.43 -0.6,-0.89 -0.51,-1.39 0.08,-0.5 0.42,-1.07 1.02,-1.72 l 2.48,2.49 -0.14,0.14 c -0.62,0.57 -1.16,0.89 -1.61,0.96 -0.44,0.07 -0.86,-0.09 -1.24,-0.48 z m 2.65,7.26 1.53,-1.53 0.95,0.95 0.84,-0.83 -0.95,-0.96 3.92,-3.92 c 0.25,-0.25 0.48,-0.4 0.69,-0.45 0.21,-0.04 0.42,0.03 0.61,0.23 0.14,0.14 0.26,0.3 0.35,0.49 l 0.86,-0.89 c -0.16,-0.31 -0.36,-0.59 -0.6,-0.83 -0.41,-0.41 -0.87,-0.58 -1.38,-0.5 -0.5,0.08 -1.02,0.39 -1.56,0.92 l -3.92,3.92 -0.97,-0.96 -0.83,0.84 0.96,0.96 -1.53,1.53 1.03,1.03 z m 5.37,1.01 c -0.12,0.9 0.13,1.66 0.74,2.27 1.12,1.12 2.43,0.94 3.94,-0.54 l 4.2,-4.2 -1.03,-1.03 -4.16,4.16 c -0.49,0.49 -0.92,0.76 -1.3,0.8 -0.37,0.05 -0.72,-0.1 -1.06,-0.43 -0.25,-0.25 -0.4,-0.57 -0.43,-0.95 -0.03,-0.37 0.03,-0.76 0.18,-1.16 l 4.59,-4.59 -1.03,-1.04 -8.98,8.97 1.04,1.04 3.3,-3.3 z m 12.76,1.18 c -0.79,-0.79 -1.63,-1.16 -2.52,-1.11 -0.89,0.05 -1.79,0.52 -2.71,1.42 l -0.76,0.77 c -0.94,0.94 -1.48,1.89 -1.6,2.83 -0.13,0.95 0.18,1.79 0.91,2.53 0.74,0.74 1.53,1.05 2.37,0.95 0.84,-0.11 1.76,-0.65 2.76,-1.64 l 0.68,-0.68 -3.53,-3.53 0.15,-0.15 c 0.68,-0.67 1.3,-1.04 1.86,-1.09 0.56,-0.05 1.08,0.16 1.56,0.64 0.31,0.3 0.52,0.63 0.63,0.97 0.12,0.35 0.15,0.75 0.11,1.2 l 1.19,-0.11 c 0.18,-1.08 -0.19,-2.08 -1.1,-3 z M 416,283.3 c -0.43,-0.43 -0.6,-0.89 -0.51,-1.4 0.09,-0.5 0.43,-1.07 1.02,-1.72 l 2.49,2.49 -0.14,0.14 c -0.63,0.58 -1.16,0.9 -1.61,0.96 -0.45,0.07 -0.86,-0.09 -1.25,-0.47 z m 6.25,5.85 c -0.17,-0.12 -0.34,-0.26 -0.51,-0.43 -0.53,-0.53 -0.61,-1.19 -0.24,-1.98 l 4.53,-4.52 -1.04,-1.03 -6.32,6.32 1,1 0.67,-0.62 c -0.23,0.78 -0.1,1.43 0.41,1.93 0.16,0.17 0.33,0.27 0.49,0.33 l 1.01,-1 z m 7.53,-3.18 -1.04,-1.03 -8.97,8.97 1.03,1.04 8.98,-8.98 z m 4.85,4.85 c -0.2,0.08 -0.48,0.26 -0.83,0.56 0.17,-0.91 -0.03,-1.64 -0.59,-2.21 -0.58,-0.57 -1.18,-0.86 -1.83,-0.86 -0.64,0 -1.25,0.29 -1.84,0.88 -0.64,0.64 -0.93,1.37 -0.87,2.18 0.06,0.82 0.46,1.61 1.21,2.37 l 0.76,0.76 -0.67,0.67 c -0.38,0.38 -0.73,0.57 -1.06,0.56 -0.32,-0.01 -0.66,-0.18 -1,-0.53 -0.31,-0.31 -0.47,-0.65 -0.48,-1.03 -0.01,-0.38 0.12,-0.71 0.41,-1 l -1.04,-1.03 c -0.32,0.32 -0.53,0.72 -0.64,1.21 -0.1,0.48 -0.07,0.97 0.08,1.46 0.16,0.49 0.44,0.94 0.83,1.33 0.65,0.65 1.3,0.98 1.96,1 0.66,0.01 1.3,-0.28 1.92,-0.89 l 3.19,-3.19 c 0.49,-0.48 0.98,-0.84 1.47,-1.07 l 0.09,-0.09 -1.07,-1.08 z m -2.21,-0.55 c 0.26,0.25 0.43,0.56 0.52,0.93 0.09,0.37 0.08,0.71 -0.03,1.03 l -1.5,1.51 -0.59,-0.59 c -0.48,-0.5 -0.76,-0.99 -0.83,-1.49 -0.07,-0.5 0.08,-0.94 0.46,-1.32 0.36,-0.36 0.69,-0.54 1,-0.56 0.31,-0.02 0.63,0.14 0.97,0.49 z m -0.65,10.34 0.71,-0.66 c -0.13,0.94 0.11,1.72 0.74,2.34 1.12,1.12 2.43,0.94 3.94,-0.54 l 4.2,-4.2 -1.03,-1.03 -4.16,4.16 c -0.49,0.49 -0.92,0.76 -1.3,0.8 -0.37,0.05 -0.73,-0.1 -1.06,-0.43 -0.25,-0.26 -0.4,-0.57 -0.43,-0.95 -0.03,-0.37 0.03,-0.76 0.18,-1.16 l 4.59,-4.59 -1.04,-1.04 -6.32,6.32 0.98,0.98 z m 7.42,1.67 c -0.97,0.98 -1.53,1.9 -1.68,2.78 -0.14,0.87 0.13,1.65 0.81,2.33 0.6,0.6 1.32,0.83 2.15,0.68 l -3.27,3.27 1.03,1.03 8.97,-8.97 -0.94,-0.95 -0.73,0.63 c 0.19,-0.87 -0.03,-1.62 -0.66,-2.25 -0.66,-0.65 -1.42,-0.91 -2.3,-0.78 -0.88,0.14 -1.79,0.67 -2.73,1.59 l -0.65,0.64 z m 1.63,0.45 c 0.7,-0.71 1.33,-1.12 1.87,-1.24 0.54,-0.13 1.05,0.05 1.53,0.53 0.51,0.51 0.64,1.15 0.37,1.92 l -3.18,3.19 c -0.77,0.24 -1.41,0.11 -1.91,-0.39 -0.47,-0.47 -0.65,-0.98 -0.53,-1.53 0.13,-0.54 0.53,-1.16 1.22,-1.85 l 0.63,-0.63 z m 9.39,6.92 c -0.22,0.22 -0.49,0.33 -0.82,0.32 -0.33,-0.01 -0.84,-0.15 -1.53,-0.41 -0.79,-0.33 -1.38,-0.52 -1.77,-0.59 -0.39,-0.06 -0.74,-0.05 -1.07,0.05 -0.32,0.09 -0.62,0.29 -0.91,0.57 -0.51,0.52 -0.75,1.13 -0.72,1.85 0.04,0.72 0.35,1.37 0.93,1.95 0.62,0.62 1.29,0.93 2.02,0.95 0.73,0.01 1.38,-0.26 1.94,-0.82 l -1.03,-1.03 c -0.28,0.29 -0.62,0.43 -1.01,0.44 -0.39,0.01 -0.74,-0.13 -1.03,-0.43 -0.31,-0.3 -0.47,-0.62 -0.48,-0.95 -0.02,-0.33 0.11,-0.63 0.37,-0.89 0.21,-0.21 0.44,-0.31 0.7,-0.32 0.25,0 0.72,0.14 1.42,0.41 1.06,0.47 1.88,0.7 2.44,0.69 0.57,-0.01 1.07,-0.24 1.51,-0.68 0.55,-0.55 0.8,-1.18 0.75,-1.89 -0.05,-0.7 -0.39,-1.37 -1.02,-2.01 -0.66,-0.66 -1.38,-1 -2.17,-1.03 -0.79,-0.03 -1.47,0.24 -2.05,0.82 l 1.04,1.04 c 0.36,-0.34 0.74,-0.51 1.14,-0.5 0.41,0 0.79,0.19 1.16,0.55 0.34,0.35 0.52,0.68 0.55,1.02 0.02,0.33 -0.09,0.63 -0.36,0.89 z"/>
      </g>
    </g>
    <g id="g252">
      <g clip-path="url(#clipPath256)" id="g254">
        <path id="path260" style="fill:#000000;fill-opacity:1;fill-rule:nonzero;stroke:none" d="m 474.29,290.13 c -0.43,0.42 -0.87,0.64 -1.32,0.63 -0.46,0 -1.1,-0.2 -1.91,-0.58 -0.81,-0.39 -1.5,-0.62 -2.05,-0.7 -0.55,-0.09 -1.06,-0.05 -1.52,0.09 -0.46,0.14 -0.88,0.41 -1.27,0.8 -0.68,0.67 -1.01,1.45 -0.99,2.34 0.01,0.89 0.38,1.69 1.11,2.42 0.5,0.5 1.05,0.83 1.67,1 0.61,0.17 1.22,0.16 1.82,-0.03 0.61,-0.19 1.15,-0.52 1.63,-0.99 l -1.08,-1.08 c -0.52,0.53 -1.06,0.81 -1.6,0.84 -0.54,0.04 -1.05,-0.18 -1.52,-0.66 -0.43,-0.43 -0.65,-0.88 -0.64,-1.36 0,-0.48 0.22,-0.94 0.66,-1.38 0.36,-0.36 0.79,-0.53 1.28,-0.51 0.5,0.01 1.12,0.19 1.85,0.54 1.11,0.56 2.05,0.82 2.82,0.77 0.76,-0.04 1.47,-0.39 2.12,-1.05 0.69,-0.69 1.02,-1.46 0.99,-2.33 -0.03,-0.86 -0.44,-1.67 -1.21,-2.45 -0.49,-0.49 -1.06,-0.84 -1.69,-1.04 -0.64,-0.2 -1.27,-0.23 -1.9,-0.08 -0.63,0.15 -1.2,0.48 -1.71,0.99 l 1.08,1.07 c 0.52,-0.52 1.08,-0.78 1.67,-0.78 0.58,0 1.13,0.25 1.64,0.76 0.47,0.47 0.7,0.95 0.7,1.43 -0.01,0.48 -0.22,0.92 -0.63,1.34 z m 6.22,7.64 c 1,-1.01 1.56,-1.93 1.69,-2.78 0.13,-0.85 -0.13,-1.61 -0.79,-2.27 -0.63,-0.63 -1.36,-0.88 -2.18,-0.74 l 3.03,-3.04 -1.03,-1.02 -8.75,8.75 0.93,0.93 0.76,-0.65 c -0.2,0.9 0.02,1.66 0.67,2.31 0.69,0.69 1.45,0.97 2.28,0.83 0.82,-0.14 1.72,-0.69 2.7,-1.64 l 0.69,-0.68 z m -1.62,-0.44 c -0.71,0.71 -1.34,1.12 -1.9,1.24 -0.55,0.12 -1.07,-0.06 -1.55,-0.55 -0.5,-0.49 -0.63,-1.12 -0.39,-1.87 l 3.29,-3.29 c 0.74,-0.23 1.36,-0.09 1.86,0.42 0.47,0.47 0.65,0.98 0.53,1.54 -0.12,0.55 -0.52,1.18 -1.21,1.88 l -0.63,0.63 z m 9.06,2.17 c -0.2,0.07 -0.47,0.26 -0.82,0.55 0.17,-0.9 -0.03,-1.64 -0.6,-2.21 -0.57,-0.57 -1.18,-0.86 -1.82,-0.86 -0.64,0 -1.26,0.3 -1.84,0.88 -0.64,0.64 -0.94,1.37 -0.88,2.19 0.06,0.81 0.47,1.6 1.22,2.37 l 0.76,0.76 -0.67,0.67 c -0.38,0.38 -0.73,0.56 -1.06,0.55 -0.33,0 -0.66,-0.18 -1.01,-0.52 -0.31,-0.31 -0.47,-0.66 -0.48,-1.04 -0.01,-0.38 0.13,-0.71 0.41,-1 l -1.03,-1.03 c -0.32,0.32 -0.54,0.73 -0.64,1.21 -0.1,0.49 -0.08,0.98 0.08,1.47 0.15,0.49 0.43,0.93 0.83,1.33 0.64,0.64 1.3,0.98 1.95,0.99 0.66,0.02 1.3,-0.28 1.93,-0.89 l 3.19,-3.19 c 0.49,-0.48 0.98,-0.84 1.46,-1.07 l 0.1,-0.09 -1.08,-1.07 z m -2.2,-0.56 c 0.25,0.25 0.42,0.57 0.51,0.94 0.09,0.37 0.08,0.71 -0.02,1.02 l -1.51,1.51 -0.58,-0.58 c -0.48,-0.5 -0.76,-1 -0.83,-1.5 -0.08,-0.49 0.08,-0.93 0.46,-1.31 0.36,-0.36 0.69,-0.55 1,-0.57 0.3,-0.01 0.63,0.15 0.97,0.49 z m 5.81,4.16 -1.04,-1.03 -6.32,6.32 1.03,1.03 6.33,-6.32 z m -7.92,8.08 c 0.18,-0.17 0.27,-0.37 0.29,-0.58 0.02,-0.22 -0.07,-0.42 -0.27,-0.62 -0.19,-0.2 -0.4,-0.29 -0.61,-0.27 -0.21,0.02 -0.41,0.12 -0.58,0.3 -0.18,0.17 -0.28,0.37 -0.3,0.59 -0.03,0.21 0.06,0.42 0.26,0.62 0.19,0.19 0.4,0.28 0.62,0.25 0.22,-0.02 0.42,-0.12 0.59,-0.29 z m 4.17,0.81 0.71,-0.65 c -0.13,0.93 0.11,1.71 0.74,2.34 1.11,1.11 2.43,0.93 3.93,-0.54 l 4.2,-4.2 -1.03,-1.03 -4.15,4.15 c -0.49,0.5 -0.93,0.77 -1.3,0.81 -0.38,0.04 -0.73,-0.1 -1.06,-0.43 -0.26,-0.26 -0.4,-0.58 -0.43,-0.95 -0.04,-0.38 0.02,-0.77 0.17,-1.17 l 4.6,-4.59 -1.04,-1.03 -6.32,6.32 0.98,0.97 z"/>
      </g>
    </g>
    <g id="g262">
      <g clip-path="url(#clipPath266)" id="g264">
        <path id="path270" style="fill:#000000;fill-opacity:1;fill-rule:nonzero;stroke:none" d="m 501.5,275.06 3.33,-3.33 -1.06,-1.07 -8.51,8.51 2.71,2.71 c 0.79,0.79 1.65,1.17 2.57,1.15 0.93,-0.02 1.78,-0.43 2.57,-1.21 0.82,-0.82 1.23,-1.67 1.25,-2.54 0.01,-0.87 -0.37,-1.71 -1.14,-2.5 l -1.72,-1.72 z m -0.91,0.92 1.64,1.64 c 0.47,0.47 0.7,0.98 0.66,1.52 -0.03,0.53 -0.31,1.07 -0.84,1.6 -0.51,0.51 -1.05,0.79 -1.62,0.84 -0.57,0.04 -1.08,-0.16 -1.54,-0.62 l -1.64,-1.64 3.34,-3.34 z m 6.06,4.47 c -0.92,0.92 -1.42,1.87 -1.51,2.85 -0.09,0.98 0.23,1.84 0.96,2.57 0.73,0.73 1.58,1.06 2.55,0.99 0.97,-0.08 1.91,-0.56 2.82,-1.45 l 0.67,-0.67 c 0.91,-0.91 1.41,-1.86 1.5,-2.84 0.09,-0.97 -0.23,-1.83 -0.97,-2.57 -0.73,-0.73 -1.58,-1.06 -2.54,-0.99 -0.96,0.08 -1.89,0.55 -2.79,1.42 l -0.69,0.69 z m 1.63,0.44 c 0.65,-0.65 1.29,-1.04 1.92,-1.15 0.62,-0.12 1.15,0.04 1.59,0.47 0.91,0.91 0.72,2.04 -0.57,3.38 l -0.71,0.72 c -0.65,0.64 -1.29,1.02 -1.92,1.14 -0.64,0.12 -1.17,-0.03 -1.6,-0.47 -0.43,-0.42 -0.58,-0.95 -0.46,-1.58 0.12,-0.63 0.51,-1.27 1.15,-1.91 l 0.6,-0.6 z m 5.2,10.19 c -0.17,-0.12 -0.34,-0.26 -0.51,-0.43 -0.53,-0.53 -0.61,-1.19 -0.24,-1.98 l 4.53,-4.52 -1.04,-1.03 -6.32,6.32 1.01,1 0.66,-0.62 c -0.23,0.78 -0.1,1.42 0.41,1.93 0.16,0.16 0.33,0.27 0.49,0.33 l 1.01,-1 z m -0.09,4.91 1.53,-1.53 0.96,0.95 0.83,-0.83 -0.95,-0.95 3.92,-3.93 c 0.25,-0.25 0.48,-0.4 0.69,-0.44 0.22,-0.05 0.42,0.02 0.62,0.22 0.13,0.14 0.25,0.3 0.34,0.49 l 0.86,-0.88 c -0.15,-0.32 -0.35,-0.59 -0.6,-0.84 -0.41,-0.41 -0.87,-0.57 -1.37,-0.5 -0.51,0.08 -1.03,0.39 -1.56,0.92 l -3.93,3.93 -0.96,-0.97 -0.84,0.84 0.97,0.96 -1.53,1.53 1.02,1.03 z m 12.68,-1.92 c 0.1,-0.79 -0.17,-1.51 -0.83,-2.17 -0.57,-0.57 -1.2,-0.81 -1.89,-0.7 -0.69,0.1 -1.41,0.53 -2.17,1.28 l -4.12,4.12 1.03,1.03 4.04,-4.05 c 0.99,-0.98 1.78,-1.18 2.37,-0.59 0.62,0.63 0.78,1.34 0.45,2.14 l -4.68,4.68 1.04,1.03 6.32,-6.32 -0.98,-0.98 -0.58,0.53 z m -0.42,5.37 c -0.98,0.98 -1.55,1.91 -1.7,2.77 -0.14,0.86 0.13,1.64 0.82,2.33 0.64,0.64 1.4,0.86 2.29,0.64 l -0.66,0.76 0.94,0.93 6.38,-6.37 c 0.78,-0.79 1.18,-1.59 1.2,-2.41 0.02,-0.82 -0.33,-1.59 -1.05,-2.3 -0.31,-0.31 -0.74,-0.59 -1.28,-0.82 -0.54,-0.23 -1.02,-0.34 -1.44,-0.3 l -0.29,1.13 c 0.84,0.01 1.53,0.27 2.05,0.79 0.86,0.86 0.83,1.77 -0.09,2.73 l -0.82,0.83 c 0.16,-0.83 -0.07,-1.56 -0.68,-2.17 -0.66,-0.66 -1.41,-0.92 -2.27,-0.79 -0.86,0.12 -1.76,0.64 -2.7,1.55 l -0.7,0.7 z m 1.62,0.45 c 0.71,-0.71 1.33,-1.13 1.87,-1.25 0.55,-0.13 1.05,0.05 1.53,0.52 0.51,0.52 0.64,1.17 0.37,1.95 l -3.16,3.15 c -0.78,0.25 -1.43,0.13 -1.92,-0.36 -0.47,-0.48 -0.65,-0.99 -0.53,-1.53 0.12,-0.54 0.53,-1.16 1.21,-1.85 l 0.63,-0.63 z m 11.03,5.3 c -0.2,0.08 -0.47,0.26 -0.83,0.56 0.18,-0.91 -0.02,-1.64 -0.59,-2.21 -0.57,-0.57 -1.18,-0.86 -1.82,-0.86 -0.65,0 -1.26,0.29 -1.84,0.88 -0.65,0.64 -0.94,1.37 -0.88,2.18 0.06,0.82 0.46,1.61 1.21,2.37 l 0.76,0.76 -0.67,0.67 c -0.38,0.38 -0.73,0.57 -1.05,0.56 -0.33,-0.01 -0.67,-0.18 -1.01,-0.53 -0.31,-0.31 -0.47,-0.65 -0.48,-1.03 -0.01,-0.38 0.13,-0.71 0.41,-1 l -1.03,-1.03 c -0.33,0.32 -0.54,0.72 -0.64,1.21 -0.11,0.48 -0.08,0.97 0.08,1.46 0.15,0.49 0.43,0.94 0.83,1.33 0.64,0.65 1.29,0.98 1.95,1 0.66,0.01 1.3,-0.28 1.92,-0.89 l 3.19,-3.19 c 0.49,-0.48 0.98,-0.84 1.47,-1.07 l 0.09,-0.09 -1.07,-1.08 z m -2.2,-0.55 c 0.25,0.25 0.42,0.56 0.51,0.93 0.09,0.37 0.08,0.72 -0.02,1.03 l -1.51,1.51 -0.58,-0.59 c -0.49,-0.49 -0.76,-0.99 -0.84,-1.49 -0.07,-0.5 0.09,-0.93 0.47,-1.32 0.36,-0.35 0.69,-0.54 0.99,-0.56 0.31,-0.02 0.63,0.15 0.98,0.49 z m 5.8,4.16 -1.03,-1.04 -8.97,8.98 1.03,1.03 8.97,-8.97 z"/>
      </g>
    </g>
    <g id="g272">
      <g clip-path="url(#clipPath276)" id="g274"><text id="text280" style="font-variant:normal;font-weight:bold;font-size:20.30400085px;font-family:'Roboto Condensed';-inkscape-font-specification:RobotoCondensed-Bold;writing-mode:lr-tb;fill:#000000;fill-opacity:1;fill-rule:nonzero;stroke:none" transform="matrix(1,0,0,-1,174.5,559.25)"><tspan id="tspan282" y="0" x="0 11.492064 21.400415 30.882383 40.790737 50.942738 60.66835 65.581917 70.739136 80.647491 85.317406 97.520111 107.67211 117.39773 122.51434 132.50391 142.6153 147.28522 158.85849 168.96989 178.1879 184.52275 189.03024 195.58842 200.70505 210.69461 215.36453 228.23726 240.17601 251.64778 263.20074">Change in Ageing Cost (in %GDP)</tspan></text>
</g>
    </g>
    <g id="g284">
      <g clip-path="url(#clipPath288)" id="g286">
        <path id="path292" style="fill:#ffffff;fill-opacity:1;fill-rule:evenodd;stroke:none" d="m 50.656,210.86 510.9,0 0,31.616 -510.9,0 0,-31.616 z"/>
      </g>
    </g>
    <path id="path294" style="fill:#80add2;fill-opacity:1;fill-rule:evenodd;stroke:none" d="m 100.73,222.1 9.1366,0 0,9.1367 -9.1366,0 0,-9.1367 z"/>
    <g id="g296">
      <g clip-path="url(#clipPath300)" id="g298"><text id="text304" style="font-variant:normal;font-weight:normal;font-size:16.92000008px;font-family:'Roboto Condensed';-inkscape-font-specification:RobotoCondensed-Regular;writing-mode:lr-tb;fill:#000000;fill-opacity:1;fill-rule:nonzero;stroke:none" transform="matrix(1,0,0,-1,113.76,221.57)"><tspan id="tspan306" y="0" x="0 8.3584805 16.716961 25.075439 33.433922 37.630081 45.98856">2023-26</tspan></text>
</g>
    </g>
    <path id="path308" style="fill:#eadfbc;fill-opacity:1;fill-rule:evenodd;stroke:none" d="m 217.43,222.1 9.1366,0 0,9.1367 -9.1366,0 0,-9.1367 z"/>
    <g id="g310">
      <g clip-path="url(#clipPath314)" id="g312"><text id="text318" style="font-variant:normal;font-weight:normal;font-size:16.92000008px;font-family:'Roboto Condensed';-inkscape-font-specification:RobotoCondensed-Regular;writing-mode:lr-tb;fill:#000000;fill-opacity:1;fill-rule:nonzero;stroke:none" transform="matrix(1,0,0,-1,230.47,221.57)"><tspan id="tspan320" y="0" x="0 8.3584805 16.716961 25.075439 33.433922 37.68084 46.039322">2026-30</tspan></text>
</g>
    </g>
    <path id="path322" style="fill:#96c7bc;fill-opacity:1;fill-rule:evenodd;stroke:none" d="m 334.13,222.1 9.1366,0 0,9.1367 -9.1366,0 0,-9.1367 z"/>
    <g id="g324">
      <g clip-path="url(#clipPath328)" id="g326"><text id="text332" style="font-variant:normal;font-weight:normal;font-size:16.92000008px;font-family:'Roboto Condensed';-inkscape-font-specification:RobotoCondensed-Regular;writing-mode:lr-tb;fill:#000000;fill-opacity:1;fill-rule:nonzero;stroke:none" transform="matrix(1,0,0,-1,347.21,221.57)"><tspan id="tspan334" y="0" x="0 8.3584805 16.649281 25.007759 33.298561 37.545479 45.903961">2030-40</tspan></text>
</g>
    </g>
    <path id="path336" style="fill:#005aa4;fill-opacity:1;fill-rule:nonzero;stroke:none" d="m 455.22,231.6 4.74,-4.73 -4.74,-4.74 -4.74,4.74 4.74,4.73 z"/>
    <path id="path338" style="fill:none;stroke:#ed7d31;stroke-width:1.40999997;stroke-linecap:round;stroke-linejoin:round;stroke-miterlimit:10;stroke-dasharray:none;stroke-opacity:1" d="m 455.22,231.6 4.74,-4.73 -4.74,-4.74 -4.74,4.74 4.74,4.73 z"/>
    <g id="g340">
      <g clip-path="url(#clipPath344)" id="g342"><text id="text348" style="font-variant:normal;font-weight:normal;font-size:16.92000008px;font-family:'Roboto Condensed';-inkscape-font-specification:RobotoCondensed-Regular;writing-mode:lr-tb;fill:#000000;fill-opacity:1;fill-rule:nonzero;stroke:none" transform="matrix(1,0,0,-1,463.92,221.57)"><tspan id="tspan350" y="0" x="0 8.3584805 16.716961 25.075439 33.433922 37.630081 45.98856">2023-40</tspan></text>
</g>
    </g>
  </g>
</svg>
