<?xml version="1.0" encoding="UTF-8" standalone="no"?>
<svg xmlns:dc="http://purl.org/dc/elements/1.1/" xmlns:cc="http://creativecommons.org/ns#" xmlns:rdf="http://www.w3.org/1999/02/22-rdf-syntax-ns#" xmlns:svg="http://www.w3.org/2000/svg" xmlns="http://www.w3.org/2000/svg" viewBox="63.01 368 618.14 367.0625" height="367.0625" width="618.14" xml:space="preserve" version="1.1" id="svg2">
  <metadata id="metadata8">
    <rdf:RDF>
      <cc:Work rdf:about="">
        <dc:format>image/svg+xml</dc:format>
        <dc:type rdf:resource="http://purl.org/dc/dcmitype/StillImage"/>
      </cc:Work>
    </rdf:RDF>
  </metadata>
  <defs id="defs6">
    <clipPath id="clipPath16" clipPathUnits="userSpaceOnUse">
      <path style="clip-rule:evenodd" id="path18" d="m 50.4,253.92 494.52,0 0,293.76 -494.52,0 0,-293.76 z"/>
    </clipPath>
    <clipPath id="clipPath26" clipPathUnits="userSpaceOnUse">
      <path style="clip-rule:evenodd" id="path28" d="m 50.4,253.92 494.52,0 0,293.76 -494.52,0 0,-293.76 z"/>
    </clipPath>
    <clipPath id="clipPath48" clipPathUnits="userSpaceOnUse">
      <path style="clip-rule:evenodd" id="path50" d="m 50.52,253.92 494.4,0 0,293.64 -494.4,0 0,-293.64 z"/>
    </clipPath>
    <clipPath id="clipPath60" clipPathUnits="userSpaceOnUse">
      <path style="clip-rule:evenodd" id="path62" d="m 50.52,253.92 494.4,0 0,293.64 -494.4,0 0,-293.64 z"/>
    </clipPath>
    <clipPath id="clipPath72" clipPathUnits="userSpaceOnUse">
      <path style="clip-rule:evenodd" id="path74" d="m 50.52,253.92 494.4,0 0,293.64 -494.4,0 0,-293.64 z"/>
    </clipPath>
    <clipPath id="clipPath84" clipPathUnits="userSpaceOnUse">
      <path style="clip-rule:evenodd" id="path86" d="m 50.52,253.92 494.4,0 0,293.64 -494.4,0 0,-293.64 z"/>
    </clipPath>
    <clipPath id="clipPath96" clipPathUnits="userSpaceOnUse">
      <path style="clip-rule:evenodd" id="path98" d="m 50.52,253.92 494.4,0 0,293.64 -494.4,0 0,-293.64 z"/>
    </clipPath>
    <clipPath id="clipPath108" clipPathUnits="userSpaceOnUse">
      <path style="clip-rule:evenodd" id="path110" d="m 50.52,253.92 494.4,0 0,293.64 -494.4,0 0,-293.64 z"/>
    </clipPath>
    <clipPath id="clipPath120" clipPathUnits="userSpaceOnUse">
      <path style="clip-rule:evenodd" id="path122" d="m 50.52,253.92 494.4,0 0,293.64 -494.4,0 0,-293.64 z"/>
    </clipPath>
    <clipPath id="clipPath132" clipPathUnits="userSpaceOnUse">
      <path style="clip-rule:evenodd" id="path134" d="m 50.52,253.92 494.4,0 0,293.64 -494.4,0 0,-293.64 z"/>
    </clipPath>
    <clipPath id="clipPath144" clipPathUnits="userSpaceOnUse">
      <path style="clip-rule:evenodd" id="path146" d="m 50.52,253.92 494.4,0 0,293.64 -494.4,0 0,-293.64 z"/>
    </clipPath>
    <clipPath id="clipPath156" clipPathUnits="userSpaceOnUse">
      <path style="clip-rule:evenodd" id="path158" d="m 50.52,253.92 494.4,0 0,293.64 -494.4,0 0,-293.64 z"/>
    </clipPath>
    <clipPath id="clipPath168" clipPathUnits="userSpaceOnUse">
      <path style="clip-rule:evenodd" id="path170" d="m 50.52,253.92 494.4,0 0,293.64 -494.4,0 0,-293.64 z"/>
    </clipPath>
    <clipPath id="clipPath180" clipPathUnits="userSpaceOnUse">
      <path style="clip-rule:evenodd" id="path182" d="m 50.52,253.92 494.4,0 0,293.64 -494.4,0 0,-293.64 z"/>
    </clipPath>
    <clipPath id="clipPath192" clipPathUnits="userSpaceOnUse">
      <path style="clip-rule:evenodd" id="path194" d="m 50.52,253.92 494.4,0 0,293.64 -494.4,0 0,-293.64 z"/>
    </clipPath>
    <clipPath id="clipPath204" clipPathUnits="userSpaceOnUse">
      <path style="clip-rule:evenodd" id="path206" d="m 50.52,253.92 494.4,0 0,293.64 -494.4,0 0,-293.64 z"/>
    </clipPath>
    <clipPath id="clipPath216" clipPathUnits="userSpaceOnUse">
      <path style="clip-rule:evenodd" id="path218" d="m 50.52,253.92 494.4,0 0,293.64 -494.4,0 0,-293.64 z"/>
    </clipPath>
    <clipPath id="clipPath230" clipPathUnits="userSpaceOnUse">
      <path style="clip-rule:evenodd" id="path232" d="m 50.52,253.92 494.4,0 0,293.64 -494.4,0 0,-293.64 z"/>
    </clipPath>
    <clipPath id="clipPath244" clipPathUnits="userSpaceOnUse">
      <path style="clip-rule:evenodd" id="path246" d="m 50.52,253.92 494.4,0 0,293.64 -494.4,0 0,-293.64 z"/>
    </clipPath>
    <clipPath id="clipPath258" clipPathUnits="userSpaceOnUse">
      <path style="clip-rule:evenodd" id="path260" d="m 50.52,253.92 494.4,0 0,293.64 -494.4,0 0,-293.64 z"/>
    </clipPath>
    <clipPath id="clipPath272" clipPathUnits="userSpaceOnUse">
      <path style="clip-rule:evenodd" id="path274" d="m 50.52,253.92 494.4,0 0,293.64 -494.4,0 0,-293.64 z"/>
    </clipPath>
  </defs>
  <g transform="matrix(1.25,0,0,-1.25,0,1052.4)" id="g10">
    <g id="g12">
      <g clip-path="url(#clipPath16)" id="g14">
        <path id="path20" style="fill:none;stroke:#000000;stroke-width:0.14;stroke-linecap:butt;stroke-linejoin:miter;stroke-miterlimit:10;stroke-dasharray:none;stroke-opacity:0" d="m 50.478,253.98 494.48,0 0,293.52 -494.48,0 0,-293.52 z"/>
      </g>
    </g>
    <g id="g22">
      <g clip-path="url(#clipPath26)" id="g24">
        <path id="path30" style="fill:#ffffff;fill-opacity:1;fill-rule:evenodd;stroke:none" d="m 50.478,253.98 494.48,0 0,293.52 -494.48,0 0,-293.52 z"/>
      </g>
    </g>
    <path id="path32" style="fill:none;stroke:#d9d9d9;stroke-width:0.73659003;stroke-linecap:butt;stroke-linejoin:round;stroke-miterlimit:10;stroke-dasharray:none;stroke-opacity:1" d="m 88.293,304.23 436.147,0"/>
    <path id="path34" style="fill:none;stroke:#d9d9d9;stroke-width:0.73659003;stroke-linecap:butt;stroke-linejoin:round;stroke-miterlimit:10;stroke-dasharray:none;stroke-opacity:1" d="m 88.31,304.22 0,-3.3 m 68.36,3.3 0,-3.3 m 68.35,3.3 0,-3.3 m 68.36,3.3 0,-3.3 m 68.35,3.3 0,-3.3 m 68.36,3.3 0,-3.3 m 68.36,3.3 0,-3.3"/>
    <path id="path36" style="fill:none;stroke:#137cb1;stroke-width:2.2098;stroke-linecap:round;stroke-linejoin:round;stroke-miterlimit:10;stroke-dasharray:none;stroke-opacity:1" d="m 93.201,383.71 9.779,4.48 3.19,3.3 3.29,3.89 3.19,-0.24 3.3,0.59 9.78,6.37 3.3,8.48 3.18,3.77 3.3,-4.12 3.18,1.18 9.78,-2.48 3.3,4.95 3.3,-2.12 3.19,8.01 3.3,-12.96 9.78,-3.89 3.18,-14.85 3.3,4.01 3.18,3.42 3.3,6.6 9.78,-2.24 3.3,-2.01 3.19,1.42 3.3,-3.3 3.18,2.47 9.78,-4.36 3.3,-10.61 3.18,6.49 3.3,16.26 3.3,-11.08 9.78,7.19 3.19,-13.79 3.3,0.83 3.18,0.47 3.3,4.71 9.78,4.72 3.18,1.29 3.3,0.24 3.3,-1.42 3.18,1.89 9.79,4.6 3.3,-6.96 3.18,-3.89 3.3,5.07 3.3,6.25 9.78,-6.13 3.18,-7.19 3.3,0.83 3.18,-3.66 3.3,-1.06 9.79,-9.31 3.18,7.66 3.3,-2 3.3,1.29 3.18,-2.94 9.78,6.13 3.3,1.41 3.18,3.18 3.3,-18.97 3.3,-4.72 9.67,-6.83 3.3,3.3 3.3,2.59 3.18,7.78 3.3,-2.95 9.78,6.25 3.18,-16.62 3.3,0.36 3.3,7.66 3.19,2.23 9.78,3.42 3.3,-1.29 3.18,-0.59 3.3,0.11 3.3,3.42 9.66,7.78 3.3,-3.89 3.3,1.65 3.19,-5.66 3.3,2.6 9.78,5.07 3.18,-1.42 3.3,8.96 3.3,11.67 3.18,4.24 9.78,8.72 3.3,-6.95 3.19,-4.84 3.3,1.65 3.3,0.24 9.66,5.66 3.3,-4.84 3.3,11.2 3.18,0.59"/>
    <path id="path38" style="fill:none;stroke:#eacc80;stroke-width:1.47319996;stroke-linecap:round;stroke-linejoin:round;stroke-miterlimit:10;stroke-dasharray:none;stroke-opacity:1" d="m 93.201,383.71 9.779,11.31 3.19,2.6 3.29,1.76 3.19,10.61 3.3,0.12 9.78,6.48 3.3,9.08 3.18,1.41 3.3,-4.24 3.18,3.3 9.78,6.95 3.3,7.43 3.3,-1.65 3.19,-0.36 3.3,0.95 9.78,-10.61 3.18,-13.2 3.3,10.72 3.18,0.59 3.3,-3.77 9.78,16.38 3.3,-0.23 3.19,-3.42 3.3,-5.54 3.18,3.77 9.78,-0.35 3.3,16.03 3.18,5.42 3.3,2 3.3,10.96 9.78,10.84 3.19,-23.92 3.3,-3.18 3.18,3.89 3.3,0 9.78,10.01 3.18,-14.37 3.3,3.77 3.3,-10.26 3.18,7.19 9.79,1.54 3.3,4.95 3.18,-8.25 3.3,18.03 3.3,-6.37 9.78,-1.29 3.18,-11.32 3.3,24.4 3.18,1.41 3.3,-1.29 9.79,-7.78 3.18,12.14 3.3,17.32 3.3,0 3.18,-17.2 9.78,4.95 3.3,-6.13 3.18,4.36 3.3,-10.02 3.3,-1.3 9.67,14.85 3.3,17.68 3.3,-22.04 3.18,-2.83 3.3,-12.49 9.78,8.37 3.18,-9.9 3.3,-11.43 3.3,5.18 3.19,-0.47 9.78,-5.07 3.3,8.96 3.18,-10.72 3.3,4.83 3.3,-7.19 9.66,-4.6 3.3,-22.04 3.3,6.49 3.19,13.43 3.3,-6.48 9.78,8.13 3.18,6.25 3.3,17.56 3.3,-4.6 3.18,-3.77 9.78,10.84 3.3,-7.19 3.19,-8.6 3.3,13.44 3.3,0.23 9.66,7.07 3.3,-1.88 3.3,9.31 3.18,-6.37"/>
    <path id="path40" style="fill:none;stroke:#4aac6b;stroke-width:1.47319996;stroke-linecap:round;stroke-linejoin:round;stroke-miterlimit:10;stroke-dasharray:none;stroke-opacity:1" d="m 93.201,383.71 9.779,0 3.19,4.12 3.29,-0.47 3.19,-0.82 3.3,-5.54 9.78,2.24 3.3,1.06 3.18,-2.48 3.3,1.18 3.18,0.71 9.78,0.82 3.3,-0.23 3.3,-1.89 3.19,2.71 3.3,2.36 9.78,0.47 3.18,-5.77 3.3,0.35 3.18,0.59 3.3,-4.01 9.78,6.37 3.3,-6.13 3.19,2.47 3.3,-5.54 3.18,1.89 9.78,-3.54 3.3,8.73 3.18,-2.83 3.3,-1.42 3.3,5.19 9.78,-0.47 3.19,-3.77 3.3,2.59 3.18,3.65 3.3,-3.18 9.78,4.24 3.18,2.01 3.3,6.36 3.3,-2.12 3.18,-5.66 9.79,2.01 3.3,-2.71 3.18,-1.18 3.3,3.53 3.3,0.36 9.78,1.29 3.18,-1.29 3.3,4.47 3.18,4.95 3.3,0.36 9.79,-0.36 3.18,5.31 3.3,0.82 3.3,0.95 3.18,-9.43 9.78,8.25 3.3,-0.83 3.18,3.54 3.3,3.89 3.3,5.06 9.67,2.48 3.3,1.77 3.3,2.47 3.18,3.18 3.3,-1.65 9.78,-2 3.18,2.48 3.3,0.35 3.3,1.89 3.19,0.7 9.78,-2.35 3.3,-6.72 3.18,-4.72 3.3,0.47 3.3,-2.94 9.66,2.59 3.3,-4.71 3.3,1.29 3.19,4.48 3.3,-3.89 9.78,4.48 3.18,3.42 3.3,3.06 3.3,2.71 3.18,0.48 9.78,4.36 3.3,-6.49 3.19,-1.29 3.3,2.59 3.3,2.36 9.66,-2.12 3.3,2 3.3,0.59 3.18,-2.24"/>
    <path id="path42" style="fill:none;stroke:#a8d7e2;stroke-width:1.47319996;stroke-linecap:round;stroke-linejoin:round;stroke-miterlimit:10;stroke-dasharray:none;stroke-opacity:1" d="m 93.201,383.71 9.779,-0.94 3.19,-0.36 3.29,0.83 3.19,-0.36 3.3,-5.89 9.78,2.01 3.3,4 3.18,-2.71 3.3,-1.06 3.18,4.13 9.78,-1.89 3.3,6.25 3.3,2.12 3.19,-0.47 3.3,1.65 9.78,-5.66 3.18,-2.24 3.3,-3.06 3.18,-2.36 3.3,-7.66 9.78,3.18 3.3,-1.65 3.19,-3.65 3.3,-6.25 3.18,4.01 9.78,-1.42 3.3,6.01 3.18,-2.94 3.3,-1.06 3.3,7.66 9.78,0.12 3.19,-2.95 3.3,-3.07 3.18,6.13 3.3,-3.3 9.78,6.84 3.18,3.53 3.3,1.65 3.3,-2.82 3.18,-5.31 9.79,-0.82 3.3,2.12 3.18,0.23 3.3,6.96 3.3,-2.12 9.78,-0.71 3.18,-4.71 3.3,-12.73 3.18,-3.3 3.3,-1.3 9.79,-1.18 3.18,5.31 3.3,5.42 3.3,-2.6 3.18,-7.42 9.78,0.12 3.3,2.35 3.18,2.6 3.3,7.07 3.3,-5.54 9.67,-0.94 3.3,-20.75 3.3,8.37 3.18,0.83 3.3,-3.19 9.78,-0.47 3.18,0.36 3.3,-3.77 3.3,-1.89 3.19,0.47 9.78,0.47 3.3,-1.29 3.18,5.42 3.3,-0.12 3.3,-5.54 9.66,2.59 3.3,-7.89 3.3,4.95 3.19,2.12 3.3,-5.89 9.78,2.71 3.18,-0.24 3.3,-7.9 3.3,-4.59 3.18,1.29 9.78,-7.54 3.3,-4.36 3.19,8.01 3.3,14.15 3.3,-2.36 9.66,-3.42 3.3,1.77 3.3,2.24 3.18,-3.42"/>
    <g id="g44">
      <g clip-path="url(#clipPath48)" id="g46"><text id="text52" style="font-variant:normal;font-weight:normal;font-size:11.7840004px;font-family:Arial;-inkscape-font-specification:Arial;writing-mode:lr-tb;fill:#595959;fill-opacity:1;fill-rule:nonzero;stroke:none" transform="matrix(1,0,0,-1,65.064,300.36)"><tspan id="tspan54" y="0" x="0 6.6000042">75</tspan></text>
</g>
    </g>
    <g id="g56">
      <g clip-path="url(#clipPath60)" id="g58"><text id="text64" style="font-variant:normal;font-weight:normal;font-size:11.7840004px;font-family:Arial;-inkscape-font-specification:Arial;writing-mode:lr-tb;fill:#595959;fill-opacity:1;fill-rule:nonzero;stroke:none" transform="matrix(1,0,0,-1,65.064,332.18)"><tspan id="tspan66" y="0" x="0 6.6000042">85</tspan></text>
</g>
    </g>
    <g id="g68">
      <g clip-path="url(#clipPath72)" id="g70"><text id="text76" style="font-variant:normal;font-weight:normal;font-size:11.7840004px;font-family:Arial;-inkscape-font-specification:Arial;writing-mode:lr-tb;fill:#595959;fill-opacity:1;fill-rule:nonzero;stroke:none" transform="matrix(1,0,0,-1,65.064,364.01)"><tspan id="tspan78" y="0" x="0 6.6000042">95</tspan></text>
</g>
    </g>
    <g id="g80">
      <g clip-path="url(#clipPath84)" id="g82"><text id="text88" style="font-variant:normal;font-weight:normal;font-size:11.80799961px;font-family:Arial;-inkscape-font-specification:Arial;writing-mode:lr-tb;fill:#595959;fill-opacity:1;fill-rule:nonzero;stroke:none" transform="matrix(1,0,0,-1,58.488,395.83)"><tspan id="tspan90" y="0" x="0 6.565248 13.083264">105</tspan></text>
</g>
    </g>
    <g id="g92">
      <g clip-path="url(#clipPath96)" id="g94"><text id="text100" style="font-variant:normal;font-weight:normal;font-size:11.7840004px;font-family:Arial;-inkscape-font-specification:Arial;writing-mode:lr-tb;fill:#595959;fill-opacity:1;fill-rule:nonzero;stroke:none" transform="matrix(1,0,0,-1,58.488,427.63)"><tspan id="tspan102" y="0" x="0 6.587256 13.068456">115</tspan></text>
</g>
    </g>
    <g id="g104">
      <g clip-path="url(#clipPath108)" id="g106"><text id="text112" style="font-variant:normal;font-weight:normal;font-size:11.7840004px;font-family:Arial;-inkscape-font-specification:Arial;writing-mode:lr-tb;fill:#595959;fill-opacity:1;fill-rule:nonzero;stroke:none" transform="matrix(1,0,0,-1,58.488,459.46)"><tspan id="tspan114" y="0" x="0 6.587256 13.068456">125</tspan></text>
</g>
    </g>
    <g id="g116">
      <g clip-path="url(#clipPath120)" id="g118"><text id="text124" style="font-variant:normal;font-weight:normal;font-size:11.7840004px;font-family:Arial;-inkscape-font-specification:Arial;writing-mode:lr-tb;fill:#595959;fill-opacity:1;fill-rule:nonzero;stroke:none" transform="matrix(1,0,0,-1,58.488,491.28)"><tspan id="tspan126" y="0" x="0 6.587256 13.068456">135</tspan></text>
</g>
    </g>
    <g id="g128">
      <g clip-path="url(#clipPath132)" id="g130"><text id="text136" style="font-variant:normal;font-weight:normal;font-size:10.84799957px;font-family:Arial;-inkscape-font-specification:Arial;writing-mode:lr-tb;fill:#595959;fill-opacity:1;fill-rule:nonzero;stroke:none" transform="matrix(1,0,0,-1,71.928,287.86)"><tspan id="tspan138" y="0" x="0 6.0314879 11.997888 15.631968 24.581568 30.613056">15-May</tspan></text>
</g>
    </g>
    <g id="g140">
      <g clip-path="url(#clipPath144)" id="g142"><text id="text148" style="font-variant:normal;font-weight:normal;font-size:10.84799957px;font-family:Arial;-inkscape-font-specification:Arial;writing-mode:lr-tb;fill:#595959;fill-opacity:1;fill-rule:nonzero;stroke:none" transform="matrix(1,0,0,-1,141.77,287.86)"><tspan id="tspan150" y="0" x="0 6.0314879 12.062976 15.707904 21.012575 27.044064">05-Jun</tspan></text>
</g>
    </g>
    <g id="g152">
      <g clip-path="url(#clipPath156)" id="g154"><text id="text160" style="font-variant:normal;font-weight:normal;font-size:10.84799957px;font-family:Arial;-inkscape-font-specification:Arial;writing-mode:lr-tb;fill:#595959;fill-opacity:1;fill-rule:nonzero;stroke:none" transform="matrix(1,0,0,-1,210.14,287.86)"><tspan id="tspan162" y="0" x="0 6.0314879 11.997888 15.631968 20.93664 26.968128">26-Jun</tspan></text>
</g>
    </g>
    <g id="g164">
      <g clip-path="url(#clipPath168)" id="g166"><text id="text172" style="font-variant:normal;font-weight:normal;font-size:10.84799957px;font-family:Arial;-inkscape-font-specification:Arial;writing-mode:lr-tb;fill:#595959;fill-opacity:1;fill-rule:nonzero;stroke:none" transform="matrix(1,0,0,-1,280.32,287.86)"><tspan id="tspan174" y="0" x="0 6.0314879 11.997888 15.631968 20.93664 26.968128">17-Jul</tspan></text>
</g>
    </g>
    <g id="g176">
      <g clip-path="url(#clipPath180)" id="g178"><text id="text184" style="font-variant:normal;font-weight:normal;font-size:10.84799957px;font-family:Arial;-inkscape-font-specification:Arial;writing-mode:lr-tb;fill:#595959;fill-opacity:1;fill-rule:nonzero;stroke:none" transform="matrix(1,0,0,-1,345.96,287.86)"><tspan id="tspan186" y="0" x="0 6.0314879 12.062976 15.707904 22.910976 28.942465">07-Aug</tspan></text>
</g>
    </g>
    <g id="g188">
      <g clip-path="url(#clipPath192)" id="g190"><text id="text196" style="font-variant:normal;font-weight:normal;font-size:10.84799957px;font-family:Arial;-inkscape-font-specification:Arial;writing-mode:lr-tb;fill:#595959;fill-opacity:1;fill-rule:nonzero;stroke:none" transform="matrix(1,0,0,-1,414.34,287.86)"><tspan id="tspan198" y="0" x="0 6.0314879 11.997888 15.631968 22.835039 28.866528">28-Aug</tspan></text>
</g>
    </g>
    <g id="g200">
      <g clip-path="url(#clipPath204)" id="g202"><text id="text208" style="font-variant:normal;font-weight:normal;font-size:10.84799957px;font-family:Arial;-inkscape-font-specification:Arial;writing-mode:lr-tb;fill:#595959;fill-opacity:1;fill-rule:nonzero;stroke:none" transform="matrix(1,0,0,-1,482.69,287.86)"><tspan id="tspan210" y="0" x="0 6.0314879 12.062976 15.707904 22.910976 28.942465">18-Sep</tspan></text>
</g>
    </g>
    <g id="g212">
      <g clip-path="url(#clipPath216)" id="g214"><text id="text220" style="font-variant:normal;font-weight:normal;font-size:13.77600002px;font-family:Arial;-inkscape-font-specification:Arial;writing-mode:lr-tb;fill:#595959;fill-opacity:1;fill-rule:nonzero;stroke:none" transform="matrix(1,0,0,-1,57.768,533.14)"><tspan id="tspan222" y="0" x="0 9.188592 16.848047 23.791151 27.662209 35.321663 39.909073 43.545937 51.205391 58.864849 63.452255 67.30954 74.968994 79.556396 90.976707 98.636162 106.29562 113.23872 120.89818 124.42484 129.01224 136.67169 146.54909 150.42015 154.19476 158.78218 166.44164 174.10109 181.76054 188.68987 196.34933 204.00879 208.59619">Sector performance (LC, rebased) </tspan></text>
</g>
    </g>
    <path id="path224" style="fill:none;stroke:#137cb1;stroke-width:2.2098;stroke-linecap:round;stroke-linejoin:round;stroke-miterlimit:10;stroke-dasharray:none;stroke-opacity:1" d="m 143.45,269.34 18.86,0"/>
    <g id="g226">
      <g clip-path="url(#clipPath230)" id="g228"><text id="text234" style="font-variant:normal;font-weight:normal;font-size:11.7840004px;font-family:Arial;-inkscape-font-specification:Arial;writing-mode:lr-tb;fill:#595959;fill-opacity:1;fill-rule:nonzero;stroke:none" transform="matrix(1,0,0,-1,164.33,265.46)"><tspan id="tspan236" y="0" x="0 8.5080481 15.08352 18.383039 24.864241 31.451496 37.343494">Defense</tspan></text>
</g>
    </g>
    <path id="path238" style="fill:none;stroke:#eacc80;stroke-width:1.47319996;stroke-linecap:round;stroke-linejoin:round;stroke-miterlimit:10;stroke-dasharray:none;stroke-opacity:1" d="m 222.16,269.34 18.86,0"/>
    <g id="g240">
      <g clip-path="url(#clipPath244)" id="g242"><text id="text248" style="font-variant:normal;font-weight:normal;font-size:11.7840004px;font-family:Arial;-inkscape-font-specification:Arial;writing-mode:lr-tb;fill:#595959;fill-opacity:1;fill-rule:nonzero;stroke:none" transform="matrix(1,0,0,-1,243.05,265.46)"><tspan id="tspan250" y="0" x="0 7.8834958 10.499544 17.051449 26.867519 33.348721 39.935974 45.827976 49.139278 57.022778 63.503975 70.091232 73.97995 80.567207">Siemens Energy</tspan></text>
</g>
    </g>
    <path id="path252" style="fill:none;stroke:#4aac6b;stroke-width:1.47319996;stroke-linecap:round;stroke-linejoin:round;stroke-miterlimit:10;stroke-dasharray:none;stroke-opacity:1" d="m 343.45,269.34 18.86,0"/>
    <g id="g254">
      <g clip-path="url(#clipPath258)" id="g256"><text id="text262" style="font-variant:normal;font-weight:normal;font-size:11.7840004px;font-family:Arial;-inkscape-font-specification:Arial;writing-mode:lr-tb;fill:#595959;fill-opacity:1;fill-rule:nonzero;stroke:none" transform="matrix(1,0,0,-1,364.37,265.46)"><tspan id="tspan264" y="0" x="0 7.8834958 14.364696 20.951952 26.843952">Banks</tspan></text>
</g>
    </g>
    <path id="path266" style="fill:none;stroke:#a8d7e2;stroke-width:1.47319996;stroke-linecap:round;stroke-linejoin:round;stroke-miterlimit:10;stroke-dasharray:none;stroke-opacity:1" d="m 411.02,269.34 18.86,0"/>
    <g id="g268">
      <g clip-path="url(#clipPath272)" id="g270"><text id="text276" style="font-variant:normal;font-weight:normal;font-size:11.7840004px;font-family:Arial;-inkscape-font-specification:Arial;writing-mode:lr-tb;fill:#595959;fill-opacity:1;fill-rule:nonzero;stroke:none" transform="matrix(1,0,0,-1,431.95,265.46)"><tspan id="tspan278" y="0" x="0 7.8834958 15.660936">SAP</tspan></text>
</g>
    </g>
    <path id="path280" style="fill:#137cb1;fill-opacity:1;fill-rule:nonzero;stroke:none" d="m 496.4,379.67 35.85,34.07 -0.34,0.36 -35.85,-34.08 0.34,-0.35 z m 36.99,31.44 2.25,6.19 -6.31,-1.92 4.06,-4.27 z"/>
  </g>
</svg>
