<?xml version="1.0" encoding="UTF-8" standalone="no"?>
<svg xmlns:dc="http://purl.org/dc/elements/1.1/" xmlns:cc="http://creativecommons.org/ns#" xmlns:rdf="http://www.w3.org/1999/02/22-rdf-syntax-ns#" xmlns:svg="http://www.w3.org/2000/svg" xmlns="http://www.w3.org/2000/svg" viewBox="63.11625 148.5625 863.8825 467.8875" height="467.8875" width="863.8825" xml:space="preserve" version="1.1" id="svg2">
  <metadata id="metadata8">
    <rdf:RDF>
      <cc:Work rdf:about="">
        <dc:format>image/svg+xml</dc:format>
        <dc:type rdf:resource="http://purl.org/dc/dcmitype/StillImage"/>
      </cc:Work>
    </rdf:RDF>
  </metadata>
  <defs id="defs6">
    <clipPath id="clipPath16" clipPathUnits="userSpaceOnUse">
      <path style="clip-rule:evenodd" id="path18" d="m 50.399,118.8 691.2,0 0,374.4 -691.2,0 0,-374.4 z"/>
    </clipPath>
    <clipPath id="clipPath36" clipPathUnits="userSpaceOnUse">
      <path style="clip-rule:evenodd" id="path38" d="m 50.52,118.92 690.96,0 0,374.16 -690.96,0 0,-374.16 z"/>
    </clipPath>
    <clipPath id="clipPath48" clipPathUnits="userSpaceOnUse">
      <path style="clip-rule:evenodd" id="path50" d="m 50.52,118.92 690.96,0 0,374.16 -690.96,0 0,-374.16 z"/>
    </clipPath>
    <clipPath id="clipPath60" clipPathUnits="userSpaceOnUse">
      <path style="clip-rule:evenodd" id="path62" d="m 50.52,118.92 690.96,0 0,374.16 -690.96,0 0,-374.16 z"/>
    </clipPath>
    <clipPath id="clipPath72" clipPathUnits="userSpaceOnUse">
      <path style="clip-rule:evenodd" id="path74" d="m 50.52,118.92 690.96,0 0,374.16 -690.96,0 0,-374.16 z"/>
    </clipPath>
    <clipPath id="clipPath84" clipPathUnits="userSpaceOnUse">
      <path style="clip-rule:evenodd" id="path86" d="m 50.52,118.92 690.96,0 0,374.16 -690.96,0 0,-374.16 z"/>
    </clipPath>
    <clipPath id="clipPath96" clipPathUnits="userSpaceOnUse">
      <path style="clip-rule:evenodd" id="path98" d="m 50.52,118.92 690.96,0 0,374.16 -690.96,0 0,-374.16 z"/>
    </clipPath>
    <clipPath id="clipPath108" clipPathUnits="userSpaceOnUse">
      <path style="clip-rule:evenodd" id="path110" d="m 50.52,118.92 690.96,0 0,374.16 -690.96,0 0,-374.16 z"/>
    </clipPath>
    <clipPath id="clipPath120" clipPathUnits="userSpaceOnUse">
      <path style="clip-rule:evenodd" id="path122" d="m 50.52,118.92 690.96,0 0,374.16 -690.96,0 0,-374.16 z"/>
    </clipPath>
    <clipPath id="clipPath132" clipPathUnits="userSpaceOnUse">
      <path style="clip-rule:evenodd" id="path134" d="m 50.52,118.92 690.96,0 0,374.16 -690.96,0 0,-374.16 z"/>
    </clipPath>
    <clipPath id="clipPath144" clipPathUnits="userSpaceOnUse">
      <path style="clip-rule:evenodd" id="path146" d="m 50.52,118.92 690.96,0 0,374.16 -690.96,0 0,-374.16 z"/>
    </clipPath>
    <clipPath id="clipPath156" clipPathUnits="userSpaceOnUse">
      <path style="clip-rule:evenodd" id="path158" d="m 50.52,118.92 690.96,0 0,374.16 -690.96,0 0,-374.16 z"/>
    </clipPath>
    <clipPath id="clipPath168" clipPathUnits="userSpaceOnUse">
      <path style="clip-rule:evenodd" id="path170" d="m 50.52,118.92 690.96,0 0,374.16 -690.96,0 0,-374.16 z"/>
    </clipPath>
    <clipPath id="clipPath180" clipPathUnits="userSpaceOnUse">
      <path style="clip-rule:evenodd" id="path182" d="m 50.52,118.92 690.96,0 0,374.16 -690.96,0 0,-374.16 z"/>
    </clipPath>
    <clipPath id="clipPath192" clipPathUnits="userSpaceOnUse">
      <path style="clip-rule:evenodd" id="path194" d="m 50.52,118.92 690.96,0 0,374.16 -690.96,0 0,-374.16 z"/>
    </clipPath>
    <clipPath id="clipPath204" clipPathUnits="userSpaceOnUse">
      <path style="clip-rule:evenodd" id="path206" d="m 50.52,118.92 690.96,0 0,374.16 -690.96,0 0,-374.16 z"/>
    </clipPath>
    <clipPath id="clipPath216" clipPathUnits="userSpaceOnUse">
      <path style="clip-rule:evenodd" id="path218" d="m 50.52,118.92 690.96,0 0,374.16 -690.96,0 0,-374.16 z"/>
    </clipPath>
    <clipPath id="clipPath228" clipPathUnits="userSpaceOnUse">
      <path style="clip-rule:evenodd" id="path230" d="m 50.52,118.92 690.96,0 0,374.16 -690.96,0 0,-374.16 z"/>
    </clipPath>
    <clipPath id="clipPath240" clipPathUnits="userSpaceOnUse">
      <path style="clip-rule:evenodd" id="path242" d="m 50.52,118.92 690.96,0 0,374.16 -690.96,0 0,-374.16 z"/>
    </clipPath>
    <clipPath id="clipPath252" clipPathUnits="userSpaceOnUse">
      <path style="clip-rule:evenodd" id="path254" d="m 50.52,118.92 690.96,0 0,374.16 -690.96,0 0,-374.16 z"/>
    </clipPath>
    <clipPath id="clipPath264" clipPathUnits="userSpaceOnUse">
      <path style="clip-rule:evenodd" id="path266" d="m 50.52,118.92 690.96,0 0,374.16 -690.96,0 0,-374.16 z"/>
    </clipPath>
    <clipPath id="clipPath276" clipPathUnits="userSpaceOnUse">
      <path style="clip-rule:evenodd" id="path278" d="m 50.52,118.92 690.96,0 0,374.16 -690.96,0 0,-374.16 z"/>
    </clipPath>
    <clipPath id="clipPath288" clipPathUnits="userSpaceOnUse">
      <path style="clip-rule:evenodd" id="path290" d="m 50.52,118.92 690.96,0 0,374.16 -690.96,0 0,-374.16 z"/>
    </clipPath>
    <clipPath id="clipPath300" clipPathUnits="userSpaceOnUse">
      <path style="clip-rule:evenodd" id="path302" d="m 50.52,118.92 690.96,0 0,374.16 -690.96,0 0,-374.16 z"/>
    </clipPath>
    <clipPath id="clipPath312" clipPathUnits="userSpaceOnUse">
      <path style="clip-rule:evenodd" id="path314" d="m 50.52,118.92 690.96,0 0,374.16 -690.96,0 0,-374.16 z"/>
    </clipPath>
    <clipPath id="clipPath324" clipPathUnits="userSpaceOnUse">
      <path style="clip-rule:evenodd" id="path326" d="m 50.52,118.92 690.96,0 0,374.16 -690.96,0 0,-374.16 z"/>
    </clipPath>
    <clipPath id="clipPath336" clipPathUnits="userSpaceOnUse">
      <path style="clip-rule:evenodd" id="path338" d="m 50.52,118.92 690.96,0 0,374.16 -690.96,0 0,-374.16 z"/>
    </clipPath>
    <clipPath id="clipPath348" clipPathUnits="userSpaceOnUse">
      <path style="clip-rule:evenodd" id="path350" d="m 50.52,118.92 690.96,0 0,374.16 -690.96,0 0,-374.16 z"/>
    </clipPath>
    <clipPath id="clipPath360" clipPathUnits="userSpaceOnUse">
      <path style="clip-rule:evenodd" id="path362" d="m 50.52,118.92 690.96,0 0,374.16 -690.96,0 0,-374.16 z"/>
    </clipPath>
    <clipPath id="clipPath374" clipPathUnits="userSpaceOnUse">
      <path style="clip-rule:evenodd" id="path376" d="m 50.52,118.92 690.96,0 0,374.16 -690.96,0 0,-374.16 z"/>
    </clipPath>
    <clipPath id="clipPath388" clipPathUnits="userSpaceOnUse">
      <path style="clip-rule:evenodd" id="path390" d="m 50.52,118.92 690.96,0 0,374.16 -690.96,0 0,-374.16 z"/>
    </clipPath>
  </defs>
  <g transform="matrix(1.25,0,0,-1.25,0,765)" id="g10">
    <g id="g12">
      <g clip-path="url(#clipPath16)" id="g14">
        <path id="path20" style="fill:none;stroke:#000000;stroke-width:0.14;stroke-linecap:butt;stroke-linejoin:miter;stroke-miterlimit:10;stroke-dasharray:none;stroke-opacity:0" d="m 50.563,118.91 690.98,0 0,374.17 -690.98,0 0,-374.17 z"/>
      </g>
    </g>
    <path id="path22" style="fill:#ffffff;fill-opacity:1;fill-rule:evenodd;stroke:none" d="m 50.563,118.91 690.98,0 0,374.17 -690.98,0 0,-374.17 z"/>
    <path id="path24" style="fill:none;stroke:#d9d9d9;stroke-width:1.34239995;stroke-linecap:butt;stroke-linejoin:round;stroke-miterlimit:10;stroke-dasharray:none;stroke-opacity:1" d="m 109.92,160.43 568.37,0 m -568.37,45.34 568.37,0 m -568.37,45.32 568.37,0 m -568.37,90.64 568.37,0 m -568.37,45.33 568.37,0 m -568.37,45.38 568.37,0"/>
    <path id="path26" style="fill:#a8d7e2;fill-opacity:1;fill-rule:nonzero;stroke:none" d="m 125.41,231.33 20.62,0 0,-70.9 -20.62,0 0,70.9 z m 51.77,6.66 20.62,0 0,-77.56 -20.62,0 0,77.56 z m 51.55,-23.41 20.62,0 0,-54.15 -20.62,0 0,54.15 z m 51.76,31.36 20.62,0 0,-85.51 -20.62,0 0,85.51 z m 51.55,-8.16 20.62,0 0,-77.35 -20.62,0 0,77.35 z m 51.77,8.59 20.62,0 0,-85.94 -20.62,0 0,85.94 z m 51.55,35.44 20.83,0 0,-121.38 -20.83,0 0,121.38 z m 51.76,73.03 20.62,0 0,-194.41 -20.62,0 0,194.41 z m 51.77,-6.66 20.62,0 0,-187.75 -20.62,0 0,187.75 z m 51.55,40.81 20.62,0 0,-228.56 -20.62,0 0,228.56 z m 51.76,22.12 20.62,0 0,-250.68 -20.62,0 0,250.68 z"/>
    <path id="path28" style="fill:none;stroke:#d9d9d9;stroke-width:1.34239995;stroke-linecap:butt;stroke-linejoin:round;stroke-miterlimit:10;stroke-dasharray:none;stroke-opacity:1" d="m 109.92,296.44 568.37,0"/>
    <path id="path30" style="fill:none;stroke:#137cb1;stroke-width:4.02729988;stroke-linecap:round;stroke-linejoin:round;stroke-miterlimit:10;stroke-dasharray:none;stroke-opacity:1" d="m 135.75,331.42 51.74,39.53 51.55,-195.56 51.76,58.95 51.55,67.87 51.77,-86.13 51.55,127.37 51.76,42.54 51.77,-144.99 51.55,-42.1 51.71,60.35"/>
    <g id="g32">
      <g clip-path="url(#clipPath36)" id="g34"><text id="text40" style="font-variant:normal;font-weight:normal;font-size:16.10400009px;font-family:Calibri;-inkscape-font-specification:Calibri;writing-mode:lr-tb;fill:#595959;fill-opacity:1;fill-rule:nonzero;stroke:none" transform="matrix(1,0,0,-1,693.34,155.81)"><tspan id="tspan42" y="0" x="0">0</tspan></text>
</g>
    </g>
    <g id="g44">
      <g clip-path="url(#clipPath48)" id="g46"><text id="text52" style="font-variant:normal;font-weight:normal;font-size:16.10400009px;font-family:Calibri;-inkscape-font-specification:Calibri;writing-mode:lr-tb;fill:#595959;fill-opacity:1;fill-rule:nonzero;stroke:none" transform="matrix(1,0,0,-1,693.34,183.02)"><tspan id="tspan54" y="0" x="0 8.1599979 16.319996">200</tspan></text>
</g>
    </g>
    <g id="g56">
      <g clip-path="url(#clipPath60)" id="g58"><text id="text64" style="font-variant:normal;font-weight:normal;font-size:16.12800026px;font-family:Calibri;-inkscape-font-specification:Calibri;writing-mode:lr-tb;fill:#595959;fill-opacity:1;fill-rule:nonzero;stroke:none" transform="matrix(1,0,0,-1,693.34,210.24)"><tspan id="tspan66" y="0" x="0 8.159996 16.319992">400</tspan></text>
</g>
    </g>
    <g id="g68">
      <g clip-path="url(#clipPath72)" id="g70"><text id="text76" style="font-variant:normal;font-weight:normal;font-size:16.10400009px;font-family:Calibri;-inkscape-font-specification:Calibri;writing-mode:lr-tb;fill:#595959;fill-opacity:1;fill-rule:nonzero;stroke:none" transform="matrix(1,0,0,-1,693.34,237.43)"><tspan id="tspan78" y="0" x="0 8.1599979 16.319996">600</tspan></text>
</g>
    </g>
    <g id="g80">
      <g clip-path="url(#clipPath84)" id="g82"><text id="text88" style="font-variant:normal;font-weight:normal;font-size:16.12800026px;font-family:Calibri;-inkscape-font-specification:Calibri;writing-mode:lr-tb;fill:#595959;fill-opacity:1;fill-rule:nonzero;stroke:none" transform="matrix(1,0,0,-1,693.34,264.65)"><tspan id="tspan90" y="0" x="0 8.159996 16.319992">800</tspan></text>
</g>
    </g>
    <g id="g92">
      <g clip-path="url(#clipPath96)" id="g94"><text id="text100" style="font-variant:normal;font-weight:normal;font-size:16.10400009px;font-family:Calibri;-inkscape-font-specification:Calibri;writing-mode:lr-tb;fill:#595959;fill-opacity:1;fill-rule:nonzero;stroke:none" transform="matrix(1,0,0,-1,693.34,291.84)"><tspan id="tspan102" y="0" x="0 8.1647282 12.222936 20.387665 28.552391">1,000</tspan></text>
</g>
    </g>
    <g id="g104">
      <g clip-path="url(#clipPath108)" id="g106"><text id="text112" style="font-variant:normal;font-weight:normal;font-size:16.10400009px;font-family:Calibri;-inkscape-font-specification:Calibri;writing-mode:lr-tb;fill:#595959;fill-opacity:1;fill-rule:nonzero;stroke:none" transform="matrix(1,0,0,-1,693.34,319.06)"><tspan id="tspan114" y="0" x="0 8.1647282 12.222936 20.387665 28.552391">1,200</tspan></text>
</g>
    </g>
    <g id="g116">
      <g clip-path="url(#clipPath120)" id="g118"><text id="text124" style="font-variant:normal;font-weight:normal;font-size:16.10400009px;font-family:Calibri;-inkscape-font-specification:Calibri;writing-mode:lr-tb;fill:#595959;fill-opacity:1;fill-rule:nonzero;stroke:none" transform="matrix(1,0,0,-1,693.34,346.25)"><tspan id="tspan126" y="0" x="0 8.1647282 12.222936 20.387665 28.552391">1,400</tspan></text>
</g>
    </g>
    <g id="g128">
      <g clip-path="url(#clipPath132)" id="g130"><text id="text136" style="font-variant:normal;font-weight:normal;font-size:16.10400009px;font-family:Calibri;-inkscape-font-specification:Calibri;writing-mode:lr-tb;fill:#595959;fill-opacity:1;fill-rule:nonzero;stroke:none" transform="matrix(1,0,0,-1,693.34,373.46)"><tspan id="tspan138" y="0" x="0 8.1647282 12.222936 20.387665 28.552391">1,600</tspan></text>
</g>
    </g>
    <g id="g140">
      <g clip-path="url(#clipPath144)" id="g142"><text id="text148" style="font-variant:normal;font-weight:normal;font-size:16.12800026px;font-family:Calibri;-inkscape-font-specification:Calibri;writing-mode:lr-tb;fill:#595959;fill-opacity:1;fill-rule:nonzero;stroke:none" transform="matrix(1,0,0,-1,693.34,400.68)"><tspan id="tspan150" y="0" x="0 8.1768961 12.208896 20.385792 28.562689">1,800</tspan></text>
</g>
    </g>
    <g id="g152">
      <g clip-path="url(#clipPath156)" id="g154"><text id="text160" style="font-variant:normal;font-weight:normal;font-size:16.10400009px;font-family:Calibri;-inkscape-font-specification:Calibri;writing-mode:lr-tb;fill:#595959;fill-opacity:1;fill-rule:nonzero;stroke:none" transform="matrix(1,0,0,-1,693.34,427.87)"><tspan id="tspan162" y="0" x="0 8.1647282 12.222936 20.387665 28.552391">2,000</tspan></text>
</g>
    </g>
    <g id="g164">
      <g clip-path="url(#clipPath168)" id="g166"><text id="text172" style="font-variant:normal;font-weight:normal;font-size:16.10400009px;font-family:Calibri;-inkscape-font-specification:Calibri;writing-mode:lr-tb;fill:#595959;fill-opacity:1;fill-rule:nonzero;stroke:none" transform="matrix(1,0,0,-1,62.208,155.81)"><tspan id="tspan174" y="0" x="0 4.927824 13.092552 21.25728">-30%</tspan></text>
</g>
    </g>
    <g id="g176">
      <g clip-path="url(#clipPath180)" id="g178"><text id="text184" style="font-variant:normal;font-weight:normal;font-size:16.12800026px;font-family:Calibri;-inkscape-font-specification:Calibri;writing-mode:lr-tb;fill:#595959;fill-opacity:1;fill-rule:nonzero;stroke:none" transform="matrix(1,0,0,-1,62.208,201.17)"><tspan id="tspan186" y="0" x="0 4.9351678 13.112064 21.28896">-20%</tspan></text>
</g>
    </g>
    <g id="g188">
      <g clip-path="url(#clipPath192)" id="g190"><text id="text196" style="font-variant:normal;font-weight:normal;font-size:16.10400009px;font-family:Calibri;-inkscape-font-specification:Calibri;writing-mode:lr-tb;fill:#595959;fill-opacity:1;fill-rule:nonzero;stroke:none" transform="matrix(1,0,0,-1,62.208,246.5)"><tspan id="tspan198" y="0" x="0 4.927824 13.092552 21.25728">-10%</tspan></text>
</g>
    </g>
    <g id="g200">
      <g clip-path="url(#clipPath204)" id="g202"><text id="text208" style="font-variant:normal;font-weight:normal;font-size:16.10400009px;font-family:Calibri;-inkscape-font-specification:Calibri;writing-mode:lr-tb;fill:#595959;fill-opacity:1;fill-rule:nonzero;stroke:none" transform="matrix(1,0,0,-1,75.312,291.84)"><tspan id="tspan210" y="0" x="0 8.1599979">0%</tspan></text>
</g>
    </g>
    <g id="g212">
      <g clip-path="url(#clipPath216)" id="g214"><text id="text220" style="font-variant:normal;font-weight:normal;font-size:16.12800026px;font-family:Calibri;-inkscape-font-specification:Calibri;writing-mode:lr-tb;fill:#595959;fill-opacity:1;fill-rule:nonzero;stroke:none" transform="matrix(1,0,0,-1,67.128,337.2)"><tspan id="tspan222" y="0" x="0 8.1839962 16.367992">10%</tspan></text>
</g>
    </g>
    <g id="g224">
      <g clip-path="url(#clipPath228)" id="g226"><text id="text232" style="font-variant:normal;font-weight:normal;font-size:16.10400009px;font-family:Calibri;-inkscape-font-specification:Calibri;writing-mode:lr-tb;fill:#595959;fill-opacity:1;fill-rule:nonzero;stroke:none" transform="matrix(1,0,0,-1,67.128,382.54)"><tspan id="tspan234" y="0" x="0 8.1840277 16.368055">20%</tspan></text>
</g>
    </g>
    <g id="g236">
      <g clip-path="url(#clipPath240)" id="g238"><text id="text244" style="font-variant:normal;font-weight:normal;font-size:16.10400009px;font-family:Calibri;-inkscape-font-specification:Calibri;writing-mode:lr-tb;fill:#595959;fill-opacity:1;fill-rule:nonzero;stroke:none" transform="matrix(1,0,0,-1,67.128,427.87)"><tspan id="tspan246" y="0" x="0 8.1840277 16.368055">30%</tspan></text>
</g>
    </g>
    <g id="g248">
      <g clip-path="url(#clipPath252)" id="g250"><text id="text256" style="font-variant:normal;font-weight:normal;font-size:16.10400009px;font-family:Calibri;-inkscape-font-specification:Calibri;writing-mode:lr-tb;fill:#595959;fill-opacity:1;fill-rule:nonzero;stroke:none" transform="matrix(1,0,0,-1,119.45,134.86)"><tspan id="tspan258" y="0" x="0 8.1599979 16.319996 24.479994">2017</tspan></text>
</g>
    </g>
    <g id="g260">
      <g clip-path="url(#clipPath264)" id="g262"><text id="text268" style="font-variant:normal;font-weight:normal;font-size:16.10400009px;font-family:Calibri;-inkscape-font-specification:Calibri;writing-mode:lr-tb;fill:#595959;fill-opacity:1;fill-rule:nonzero;stroke:none" transform="matrix(1,0,0,-1,171.12,134.86)"><tspan id="tspan270" y="0" x="0 8.1599979 16.319996 24.479994">2018</tspan></text>
</g>
    </g>
    <g id="g272">
      <g clip-path="url(#clipPath276)" id="g274"><text id="text280" style="font-variant:normal;font-weight:normal;font-size:16.10400009px;font-family:Calibri;-inkscape-font-specification:Calibri;writing-mode:lr-tb;fill:#595959;fill-opacity:1;fill-rule:nonzero;stroke:none" transform="matrix(1,0,0,-1,222.79,134.86)"><tspan id="tspan282" y="0" x="0 8.1840277 16.368055 24.552084">2019</tspan></text>
</g>
    </g>
    <g id="g284">
      <g clip-path="url(#clipPath288)" id="g286"><text id="text292" style="font-variant:normal;font-weight:normal;font-size:16.10400009px;font-family:Calibri;-inkscape-font-specification:Calibri;writing-mode:lr-tb;fill:#595959;fill-opacity:1;fill-rule:nonzero;stroke:none" transform="matrix(1,0,0,-1,274.49,134.86)"><tspan id="tspan294" y="0" x="0 8.1599979 16.319996 24.479994">2020</tspan></text>
</g>
    </g>
    <g id="g296">
      <g clip-path="url(#clipPath300)" id="g298"><text id="text304" style="font-variant:normal;font-weight:normal;font-size:16.10400009px;font-family:Calibri;-inkscape-font-specification:Calibri;writing-mode:lr-tb;fill:#595959;fill-opacity:1;fill-rule:nonzero;stroke:none" transform="matrix(1,0,0,-1,326.16,134.86)"><tspan id="tspan306" y="0" x="0 8.1599979 16.319996 24.479994">2021</tspan></text>
</g>
    </g>
    <g id="g308">
      <g clip-path="url(#clipPath312)" id="g310"><text id="text316" style="font-variant:normal;font-weight:normal;font-size:16.10400009px;font-family:Calibri;-inkscape-font-specification:Calibri;writing-mode:lr-tb;fill:#595959;fill-opacity:1;fill-rule:nonzero;stroke:none" transform="matrix(1,0,0,-1,377.83,134.86)"><tspan id="tspan318" y="0" x="0 8.1599979 16.319996 24.479994">2022</tspan></text>
</g>
    </g>
    <g id="g320">
      <g clip-path="url(#clipPath324)" id="g322"><text id="text328" style="font-variant:normal;font-weight:normal;font-size:16.10400009px;font-family:Calibri;-inkscape-font-specification:Calibri;writing-mode:lr-tb;fill:#595959;fill-opacity:1;fill-rule:nonzero;stroke:none" transform="matrix(1,0,0,-1,429.5,134.86)"><tspan id="tspan330" y="0" x="0 8.1840277 16.368055 24.552084">2023</tspan></text>
</g>
    </g>
    <g id="g332">
      <g clip-path="url(#clipPath336)" id="g334"><text id="text340" style="font-variant:normal;font-weight:normal;font-size:16.10400009px;font-family:Calibri;-inkscape-font-specification:Calibri;writing-mode:lr-tb;fill:#595959;fill-opacity:1;fill-rule:nonzero;stroke:none" transform="matrix(1,0,0,-1,481.2,134.86)"><tspan id="tspan342" y="0" x="0 8.1599979 16.319996 24.479994">2024</tspan></text>
</g>
    </g>
    <g id="g344">
      <g clip-path="url(#clipPath348)" id="g346"><text id="text352" style="font-variant:normal;font-weight:normal;font-size:16.10400009px;font-family:Calibri;-inkscape-font-specification:Calibri;writing-mode:lr-tb;fill:#595959;fill-opacity:1;fill-rule:nonzero;stroke:none" transform="matrix(1,0,0,-1,528.86,134.86)"><tspan id="tspan354" y="0" x="0 8.1599979 16.319996 24.479994 32.639992">2025e</tspan></text>
</g>
    </g>
    <g id="g356">
      <g clip-path="url(#clipPath360)" id="g358"><text id="text364" style="font-variant:normal;font-weight:normal;font-size:16.10400009px;font-family:Calibri;-inkscape-font-specification:Calibri;writing-mode:lr-tb;fill:#595959;fill-opacity:1;fill-rule:nonzero;stroke:none" transform="matrix(1,0,0,-1,580.54,134.86)"><tspan id="tspan366" y="0" x="0 8.1599979 16.319996 24.479994 32.639992">2026e</tspan></text>
</g>
    </g>
    <path id="path368" style="fill:#a8d7e2;fill-opacity:1;fill-rule:evenodd;stroke:none" d="m 118.69,462.81 34.367,0 0,8.8482 -34.367,0 0,-8.8482 z"/>
    <g id="g370">
      <g clip-path="url(#clipPath374)" id="g372"><text id="text378" style="font-variant:normal;font-weight:normal;font-size:16.10400009px;font-family:Calibri;-inkscape-font-specification:Calibri;writing-mode:lr-tb;fill:#595959;fill-opacity:1;fill-rule:nonzero;stroke:none" transform="matrix(1,0,0,-1,156.7,462.67)"><tspan id="tspan380" y="0" x="0 9.9039602 18.648432 27.972649 41.693256 45.33276 53.272034 61.211304 67.652901 73.047745 76.687248 84.433273 93.870216 107.63914 111.27864 115.99711 124.16184 137.02893 145.62848 149.49344 153.13293 161.92572 172.00682 179.33414">DRAM Test TAM ($mn, RHS)</tspan></text>
</g>
    </g>
    <path id="path382" style="fill:none;stroke:#137cb1;stroke-width:4.02729988;stroke-linecap:round;stroke-linejoin:round;stroke-miterlimit:10;stroke-dasharray:none;stroke-opacity:1" d="m 373.89,467.24 34.36,0"/>
    <g id="g384">
      <g clip-path="url(#clipPath388)" id="g386"><text id="text392" style="font-variant:normal;font-weight:normal;font-size:16.10400009px;font-family:Calibri;-inkscape-font-specification:Calibri;writing-mode:lr-tb;fill:#595959;fill-opacity:1;fill-rule:nonzero;stroke:none" transform="matrix(1,0,0,-1,411.94,462.67)"><tspan id="tspan394" y="0" x="0 9.2436962 17.827127 21.675983 30.066168 36.507767 41.902607 49.825775 58.199856 61.839359 67.427444 75.366722 81.598969 86.993805 90.633308 99.216743 107.78407 114.01632 119.41116 123.05067 131.618 139.55727 145.17757 148.81706 156.9818 167.0629 175.64633 179.28583 192.15292 200.55922 204.19872 209.14265 216.87257 223.08871 231.04408 235.10229 238.74181 245.42496 255.50606 262.80118">Adjusted test Cost per 2Gb mn (Y/Y, LHS)</tspan></text>
</g>
    </g>
  </g>
</svg>
