<?xml version="1.0" encoding="UTF-8" standalone="no"?>
<svg xmlns:dc="http://purl.org/dc/elements/1.1/" xmlns:cc="http://creativecommons.org/ns#" xmlns:rdf="http://www.w3.org/1999/02/22-rdf-syntax-ns#" xmlns:svg="http://www.w3.org/2000/svg" xmlns="http://www.w3.org/2000/svg" viewBox="63.1125 162.05 863.875 441" height="441" width="863.875" xml:space="preserve" version="1.1" id="svg2">
  <metadata id="metadata8">
    <rdf:RDF>
      <cc:Work rdf:about="">
        <dc:format>image/svg+xml</dc:format>
        <dc:type rdf:resource="http://purl.org/dc/dcmitype/StillImage"/>
      </cc:Work>
    </rdf:RDF>
  </metadata>
  <defs id="defs6">
    <clipPath id="clipPath16" clipPathUnits="userSpaceOnUse">
      <path style="clip-rule:evenodd" id="path18" d="m 50.4,129.6 691.2,0 0,352.92 -691.2,0 0,-352.92 z"/>
    </clipPath>
    <clipPath id="clipPath26" clipPathUnits="userSpaceOnUse">
      <path style="clip-rule:evenodd" id="path28" d="m 50.4,129.6 691.2,0 0,352.92 -691.2,0 0,-352.92 z"/>
    </clipPath>
    <clipPath id="clipPath48" clipPathUnits="userSpaceOnUse">
      <path style="clip-rule:evenodd" id="path50" d="m 50.52,129.72 691.08,0 0,352.68 -691.08,0 0,-352.68 z"/>
    </clipPath>
    <clipPath id="clipPath60" clipPathUnits="userSpaceOnUse">
      <path style="clip-rule:evenodd" id="path62" d="m 50.52,129.72 691.08,0 0,352.68 -691.08,0 0,-352.68 z"/>
    </clipPath>
    <clipPath id="clipPath72" clipPathUnits="userSpaceOnUse">
      <path style="clip-rule:evenodd" id="path74" d="m 50.52,129.72 691.08,0 0,352.68 -691.08,0 0,-352.68 z"/>
    </clipPath>
    <clipPath id="clipPath84" clipPathUnits="userSpaceOnUse">
      <path style="clip-rule:evenodd" id="path86" d="m 50.52,129.72 691.08,0 0,352.68 -691.08,0 0,-352.68 z"/>
    </clipPath>
    <clipPath id="clipPath96" clipPathUnits="userSpaceOnUse">
      <path style="clip-rule:evenodd" id="path98" d="m 50.52,129.72 691.08,0 0,352.68 -691.08,0 0,-352.68 z"/>
    </clipPath>
    <clipPath id="clipPath108" clipPathUnits="userSpaceOnUse">
      <path style="clip-rule:evenodd" id="path110" d="m 50.52,129.72 691.08,0 0,352.68 -691.08,0 0,-352.68 z"/>
    </clipPath>
    <clipPath id="clipPath120" clipPathUnits="userSpaceOnUse">
      <path style="clip-rule:evenodd" id="path122" d="m 50.52,129.72 691.08,0 0,352.68 -691.08,0 0,-352.68 z"/>
    </clipPath>
    <clipPath id="clipPath132" clipPathUnits="userSpaceOnUse">
      <path style="clip-rule:evenodd" id="path134" d="m 50.52,129.72 691.08,0 0,352.68 -691.08,0 0,-352.68 z"/>
    </clipPath>
    <clipPath id="clipPath144" clipPathUnits="userSpaceOnUse">
      <path style="clip-rule:evenodd" id="path146" d="m 50.52,129.72 691.08,0 0,352.68 -691.08,0 0,-352.68 z"/>
    </clipPath>
    <clipPath id="clipPath156" clipPathUnits="userSpaceOnUse">
      <path style="clip-rule:evenodd" id="path158" d="m 50.52,129.72 691.08,0 0,352.68 -691.08,0 0,-352.68 z"/>
    </clipPath>
    <clipPath id="clipPath168" clipPathUnits="userSpaceOnUse">
      <path style="clip-rule:evenodd" id="path170" d="m 50.52,129.72 691.08,0 0,352.68 -691.08,0 0,-352.68 z"/>
    </clipPath>
    <clipPath id="clipPath180" clipPathUnits="userSpaceOnUse">
      <path style="clip-rule:evenodd" id="path182" d="m 50.52,129.72 691.08,0 0,352.68 -691.08,0 0,-352.68 z"/>
    </clipPath>
    <clipPath id="clipPath192" clipPathUnits="userSpaceOnUse">
      <path style="clip-rule:evenodd" id="path194" d="m 50.52,129.72 691.08,0 0,352.68 -691.08,0 0,-352.68 z"/>
    </clipPath>
    <clipPath id="clipPath204" clipPathUnits="userSpaceOnUse">
      <path style="clip-rule:evenodd" id="path206" d="m 50.52,129.72 691.08,0 0,352.68 -691.08,0 0,-352.68 z"/>
    </clipPath>
    <clipPath id="clipPath216" clipPathUnits="userSpaceOnUse">
      <path style="clip-rule:evenodd" id="path218" d="m 50.52,129.72 691.08,0 0,352.68 -691.08,0 0,-352.68 z"/>
    </clipPath>
    <clipPath id="clipPath228" clipPathUnits="userSpaceOnUse">
      <path style="clip-rule:evenodd" id="path230" d="m 50.52,129.72 691.08,0 0,352.68 -691.08,0 0,-352.68 z"/>
    </clipPath>
    <clipPath id="clipPath240" clipPathUnits="userSpaceOnUse">
      <path style="clip-rule:evenodd" id="path242" d="m 50.52,129.72 691.08,0 0,352.68 -691.08,0 0,-352.68 z"/>
    </clipPath>
    <clipPath id="clipPath252" clipPathUnits="userSpaceOnUse">
      <path style="clip-rule:evenodd" id="path254" d="m 50.52,129.72 691.08,0 0,352.68 -691.08,0 0,-352.68 z"/>
    </clipPath>
    <clipPath id="clipPath264" clipPathUnits="userSpaceOnUse">
      <path style="clip-rule:evenodd" id="path266" d="m 50.52,129.72 691.08,0 0,352.68 -691.08,0 0,-352.68 z"/>
    </clipPath>
    <clipPath id="clipPath276" clipPathUnits="userSpaceOnUse">
      <path style="clip-rule:evenodd" id="path278" d="m 50.52,129.72 691.08,0 0,352.68 -691.08,0 0,-352.68 z"/>
    </clipPath>
    <clipPath id="clipPath288" clipPathUnits="userSpaceOnUse">
      <path style="clip-rule:evenodd" id="path290" d="m 50.52,129.72 691.08,0 0,352.68 -691.08,0 0,-352.68 z"/>
    </clipPath>
    <clipPath id="clipPath300" clipPathUnits="userSpaceOnUse">
      <path style="clip-rule:evenodd" id="path302" d="m 50.52,129.72 691.08,0 0,352.68 -691.08,0 0,-352.68 z"/>
    </clipPath>
    <clipPath id="clipPath312" clipPathUnits="userSpaceOnUse">
      <path style="clip-rule:evenodd" id="path314" d="m 50.52,129.72 691.08,0 0,352.68 -691.08,0 0,-352.68 z"/>
    </clipPath>
    <clipPath id="clipPath324" clipPathUnits="userSpaceOnUse">
      <path style="clip-rule:evenodd" id="path326" d="m 50.52,129.72 691.08,0 0,352.68 -691.08,0 0,-352.68 z"/>
    </clipPath>
    <clipPath id="clipPath336" clipPathUnits="userSpaceOnUse">
      <path style="clip-rule:evenodd" id="path338" d="m 50.52,129.72 691.08,0 0,352.68 -691.08,0 0,-352.68 z"/>
    </clipPath>
    <clipPath id="clipPath348" clipPathUnits="userSpaceOnUse">
      <path style="clip-rule:evenodd" id="path350" d="m 50.52,129.72 691.08,0 0,352.68 -691.08,0 0,-352.68 z"/>
    </clipPath>
    <clipPath id="clipPath360" clipPathUnits="userSpaceOnUse">
      <path style="clip-rule:evenodd" id="path362" d="m 50.52,129.72 691.08,0 0,352.68 -691.08,0 0,-352.68 z"/>
    </clipPath>
    <clipPath id="clipPath372" clipPathUnits="userSpaceOnUse">
      <path style="clip-rule:evenodd" id="path374" d="m 50.52,129.72 691.08,0 0,352.68 -691.08,0 0,-352.68 z"/>
    </clipPath>
    <clipPath id="clipPath384" clipPathUnits="userSpaceOnUse">
      <path style="clip-rule:evenodd" id="path386" d="m 50.52,129.72 691.08,0 0,352.68 -691.08,0 0,-352.68 z"/>
    </clipPath>
    <clipPath id="clipPath396" clipPathUnits="userSpaceOnUse">
      <path style="clip-rule:evenodd" id="path398" d="m 50.52,129.72 691.08,0 0,352.68 -691.08,0 0,-352.68 z"/>
    </clipPath>
    <clipPath id="clipPath408" clipPathUnits="userSpaceOnUse">
      <path style="clip-rule:evenodd" id="path410" d="m 50.52,129.72 691.08,0 0,352.68 -691.08,0 0,-352.68 z"/>
    </clipPath>
    <clipPath id="clipPath420" clipPathUnits="userSpaceOnUse">
      <path style="clip-rule:evenodd" id="path422" d="m 50.52,129.72 691.08,0 0,352.68 -691.08,0 0,-352.68 z"/>
    </clipPath>
    <clipPath id="clipPath432" clipPathUnits="userSpaceOnUse">
      <path style="clip-rule:evenodd" id="path434" d="m 50.52,129.72 691.08,0 0,352.68 -691.08,0 0,-352.68 z"/>
    </clipPath>
    <clipPath id="clipPath444" clipPathUnits="userSpaceOnUse">
      <path style="clip-rule:evenodd" id="path446" d="m 50.52,129.72 691.08,0 0,352.68 -691.08,0 0,-352.68 z"/>
    </clipPath>
    <clipPath id="clipPath456" clipPathUnits="userSpaceOnUse">
      <path style="clip-rule:evenodd" id="path458" d="m 50.52,129.72 691.08,0 0,352.68 -691.08,0 0,-352.68 z"/>
    </clipPath>
    <clipPath id="clipPath468" clipPathUnits="userSpaceOnUse">
      <path style="clip-rule:evenodd" id="path470" d="m 50.52,129.72 691.08,0 0,352.68 -691.08,0 0,-352.68 z"/>
    </clipPath>
    <clipPath id="clipPath480" clipPathUnits="userSpaceOnUse">
      <path style="clip-rule:evenodd" id="path482" d="m 50.52,129.72 691.08,0 0,352.68 -691.08,0 0,-352.68 z"/>
    </clipPath>
    <clipPath id="clipPath492" clipPathUnits="userSpaceOnUse">
      <path style="clip-rule:evenodd" id="path494" d="m 50.52,129.72 691.08,0 0,352.68 -691.08,0 0,-352.68 z"/>
    </clipPath>
    <clipPath id="clipPath504" clipPathUnits="userSpaceOnUse">
      <path style="clip-rule:evenodd" id="path506" d="m 50.52,129.72 691.08,0 0,352.68 -691.08,0 0,-352.68 z"/>
    </clipPath>
    <clipPath id="clipPath516" clipPathUnits="userSpaceOnUse">
      <path style="clip-rule:evenodd" id="path518" d="m 50.52,129.72 691.08,0 0,352.68 -691.08,0 0,-352.68 z"/>
    </clipPath>
    <clipPath id="clipPath528" clipPathUnits="userSpaceOnUse">
      <path style="clip-rule:evenodd" id="path530" d="m 50.52,129.72 691.08,0 0,352.68 -691.08,0 0,-352.68 z"/>
    </clipPath>
    <clipPath id="clipPath540" clipPathUnits="userSpaceOnUse">
      <path style="clip-rule:evenodd" id="path542" d="m 50.52,129.72 691.08,0 0,352.68 -691.08,0 0,-352.68 z"/>
    </clipPath>
    <clipPath id="clipPath552" clipPathUnits="userSpaceOnUse">
      <path style="clip-rule:evenodd" id="path554" d="m 50.52,129.72 691.08,0 0,352.68 -691.08,0 0,-352.68 z"/>
    </clipPath>
    <clipPath id="clipPath564" clipPathUnits="userSpaceOnUse">
      <path style="clip-rule:evenodd" id="path566" d="m 50.52,129.72 691.08,0 0,352.68 -691.08,0 0,-352.68 z"/>
    </clipPath>
    <clipPath id="clipPath576" clipPathUnits="userSpaceOnUse">
      <path style="clip-rule:evenodd" id="path578" d="m 50.52,129.72 691.08,0 0,352.68 -691.08,0 0,-352.68 z"/>
    </clipPath>
    <clipPath id="clipPath588" clipPathUnits="userSpaceOnUse">
      <path style="clip-rule:evenodd" id="path590" d="m 50.52,129.72 691.08,0 0,352.68 -691.08,0 0,-352.68 z"/>
    </clipPath>
    <clipPath id="clipPath600" clipPathUnits="userSpaceOnUse">
      <path style="clip-rule:evenodd" id="path602" d="m 50.52,129.72 691.08,0 0,352.68 -691.08,0 0,-352.68 z"/>
    </clipPath>
    <clipPath id="clipPath612" clipPathUnits="userSpaceOnUse">
      <path style="clip-rule:evenodd" id="path614" d="m 50.52,129.72 691.08,0 0,352.68 -691.08,0 0,-352.68 z"/>
    </clipPath>
    <clipPath id="clipPath626" clipPathUnits="userSpaceOnUse">
      <path style="clip-rule:evenodd" id="path628" d="m 50.52,129.72 691.08,0 0,352.68 -691.08,0 0,-352.68 z"/>
    </clipPath>
    <clipPath id="clipPath640" clipPathUnits="userSpaceOnUse">
      <path style="clip-rule:evenodd" id="path642" d="m 50.52,129.72 691.08,0 0,352.68 -691.08,0 0,-352.68 z"/>
    </clipPath>
    <clipPath id="clipPath654" clipPathUnits="userSpaceOnUse">
      <path style="clip-rule:evenodd" id="path656" d="m 50.52,129.72 691.08,0 0,352.68 -691.08,0 0,-352.68 z"/>
    </clipPath>
    <clipPath id="clipPath668" clipPathUnits="userSpaceOnUse">
      <path style="clip-rule:evenodd" id="path670" d="m 50.52,129.72 691.08,0 0,352.68 -691.08,0 0,-352.68 z"/>
    </clipPath>
  </defs>
  <g transform="matrix(1.25,0,0,-1.25,0,765)" id="g10">
    <g id="g12">
      <g clip-path="url(#clipPath16)" id="g14">
        <path id="path20" style="fill:none;stroke:#000000;stroke-width:0.14;stroke-linecap:butt;stroke-linejoin:miter;stroke-miterlimit:10;stroke-dasharray:none;stroke-opacity:0" d="m 50.56,129.6 690.96,0 0,352.69 -690.96,0 0,-352.69 z"/>
      </g>
    </g>
    <g id="g22">
      <g clip-path="url(#clipPath26)" id="g24">
        <path id="path30" style="fill:#ffffff;fill-opacity:1;fill-rule:evenodd;stroke:none" d="m 50.56,129.6 690.96,0 0,352.69 -690.96,0 0,-352.69 z"/>
      </g>
    </g>
    <path id="path32" style="fill:none;stroke:#d9d9d9;stroke-width:0.93002999;stroke-linecap:butt;stroke-linejoin:round;stroke-miterlimit:10;stroke-dasharray:none;stroke-opacity:1" d="m 90.017,254.43 638.023,0 m -638.023,26.94 638.023,0 m -638.023,27.08 638.023,0 m -638.023,27.08 638.023,0 m -638.023,26.94 638.023,0 m -638.023,27.08 638.023,0 m -638.023,26.93 638.023,0 m -638.023,27.06 638.023,0"/>
    <path id="path34" style="fill:#873246;fill-opacity:1;fill-rule:nonzero;stroke:none" d="m 92.86,417.67 5.803,0 0,-190.27 -5.803,0 0,190.27 z m 33.63,-98.95 5.8,0 0,-91.32 -5.8,0 0,91.32 z m 33.63,-45.98 5.65,0 0,-45.34 -5.65,0 0,45.34 z m 33.48,-14.44 5.8,0 0,-30.9 -5.8,0 0,30.9 z m 33.63,-0.29 5.8,0 0,-30.61 -5.8,0 0,30.61 z m 33.63,-0.3 5.66,0 0,-30.31 -5.66,0 0,30.31 z m 33.48,-1.49 5.81,0 0,-28.82 -5.81,0 0,28.82 z m 33.63,-0.15 5.81,0 0,-28.67 -5.81,0 0,28.67 z m 33.63,-3.57 5.66,0 0,-25.1 -5.66,0 0,25.1 z m 33.48,-5.06 5.81,0 0,-20.04 -5.81,0 0,20.04 z m 33.63,-0.6 5.81,0 0,-19.44 -5.81,0 0,19.44 z m 33.63,-2.82 5.66,0 0,-16.62 -5.66,0 0,16.62 z m 33.48,-0.9 5.81,0 0,-15.72 -5.81,0 0,15.72 z m 33.63,-0.29 5.81,0 0,-15.43 -5.81,0 0,15.43 z m 33.63,-0.3 5.66,0 0,-15.13 -5.66,0 0,15.13 z m 33.49,-1.04 5.8,0 0,-14.09 -5.8,0 0,14.09 z m 33.63,-1.94 5.8,0 0,-12.15 -5.8,0 0,12.15 z m 33.63,-2.23 5.65,0 0,-9.92 -5.65,0 0,9.92 z m 33.48,-1.49 5.8,0 0,-8.43 -5.8,0 0,8.43 z"/>
    <path id="path36" style="fill:#d0b86a;fill-opacity:1;fill-rule:nonzero;stroke:none" d="m 100.3,403.54 5.65,0 0,-176.14 -5.65,0 0,176.14 z m 33.48,-97.92 5.8,0 0,-78.22 -5.8,0 0,78.22 z m 33.63,-35.86 5.8,0 0,-42.36 -5.8,0 0,42.36 z m 33.63,-9.37 5.66,0 0,-32.99 -5.66,0 0,32.99 z m 33.48,-6.55 5.81,0 0,-26.44 -5.81,0 0,26.44 z m 33.63,6.69 5.81,0 0,-33.13 -5.81,0 0,33.13 z m 33.63,9.08 5.66,0 0,-42.21 -5.66,0 0,42.21 z m 33.48,-25.59 5.81,0 0,-16.62 -5.81,0 0,16.62 z m 33.63,6.1 5.81,0 0,-22.72 -5.81,0 0,22.72 z m 33.63,-2.68 5.66,0 0,-20.04 -5.66,0 0,20.04 z m 33.48,-0.45 5.81,0 0,-19.59 -5.81,0 0,19.59 z m 33.63,-1.63 5.81,0 0,-17.96 -5.81,0 0,17.96 z m 33.63,-3.57 5.66,0 0,-14.39 -5.66,0 0,14.39 z m 33.49,-0.45 5.8,0 0,-13.94 -5.8,0 0,13.94 z m 33.63,1.04 5.8,0 0,-14.98 -5.8,0 0,14.98 z m 33.63,0.45 5.65,0 0,-15.43 -5.65,0 0,15.43 z m 33.48,-0.45 5.8,0 0,-14.98 -5.8,0 0,14.98 z m 33.63,-4.91 5.8,0 0,-10.07 -5.8,0 0,10.07 z m 33.63,0 5.65,0 0,-10.07 -5.65,0 0,10.07 z"/>
    <path id="path38" style="fill:#3bc3a3;fill-opacity:1;fill-rule:nonzero;stroke:none" d="m 107.59,398.92 5.81,0 0,-171.52 -5.81,0 0,171.52 z m 33.63,-98.06 5.66,0 0,-73.46 -5.66,0 0,73.46 z m 33.48,-32.74 5.81,0 0,-40.72 -5.81,0 0,40.72 z m 33.63,-4.61 5.81,0 0,-36.11 -5.81,0 0,36.11 z m 33.63,-6.84 5.66,0 0,-29.27 -5.66,0 0,29.27 z m 33.48,7.14 5.81,0 0,-36.41 -5.81,0 0,36.41 z m 33.63,2.23 5.81,0 0,-38.64 -5.81,0 0,38.64 z m 33.63,-15.77 5.66,0 0,-22.87 -5.66,0 0,22.87 z m 33.49,-1.64 5.8,0 0,-21.23 -5.8,0 0,21.23 z m 33.62,-2.53 5.81,0 0,-18.7 -5.81,0 0,18.7 z m 33.63,0.74 5.66,0 0,-19.44 -5.66,0 0,19.44 z m 33.49,1.34 5.8,0 0,-20.78 -5.8,0 0,20.78 z m 33.63,-7.59 5.8,0 0,-13.19 -5.8,0 0,13.19 z m 33.63,3.58 5.65,0 0,-16.77 -5.65,0 0,16.77 z m 33.48,-1.79 5.8,0 0,-14.98 -5.8,0 0,14.98 z m 33.63,-2.08 5.8,0 0,-12.9 -5.8,0 0,12.9 z m 33.63,2.97 5.65,0 0,-15.87 -5.65,0 0,15.87 z m 33.48,-2.53 5.8,0 0,-13.34 -5.8,0 0,13.34 z m 33.63,-1.34 5.8,0 0,-12 -5.8,0 0,12 z"/>
    <path id="path40" style="fill:#005aa4;fill-opacity:1;fill-rule:nonzero;stroke:none" d="m 114.88,398.92 5.81,0 0,-171.52 -5.81,0 0,171.52 z m 33.63,-99.25 5.81,0 0,-72.27 -5.81,0 0,72.27 z m 33.63,-31.69 5.66,0 0,-40.58 -5.66,0 0,40.58 z m 33.48,-0.6 5.81,0 0,-39.98 -5.81,0 0,39.98 z m 33.63,-11.16 5.81,0 0,-28.82 -5.81,0 0,28.82 z m 33.63,12.2 5.66,0 0,-41.02 -5.66,0 0,41.02 z m 33.49,-2.53 5.8,0 0,-38.49 -5.8,0 0,38.49 z m 33.63,-12.05 5.8,0 0,-26.44 -5.8,0 0,26.44 z m 33.63,-5.06 5.65,0 0,-21.38 -5.65,0 0,21.38 z m 33.48,-3.72 5.8,0 0,-17.66 -5.8,0 0,17.66 z m 33.63,1.78 5.8,0 0,-19.44 -5.8,0 0,19.44 z m 33.63,1.94 5.65,0 0,-21.38 -5.65,0 0,21.38 z m 33.48,-9.08 5.8,0 0,-12.3 -5.8,0 0,12.3 z m 33.63,4.47 5.8,0 0,-16.77 -5.8,0 0,16.77 z m 33.63,-1.94 5.65,0 0,-14.83 -5.65,0 0,14.83 z m 33.48,-2.68 5.8,0 0,-12.15 -5.8,0 0,12.15 z m 33.63,4.02 5.8,0 0,-16.17 -5.8,0 0,16.17 z m 33.63,0 5.65,0 0,-16.17 -5.65,0 0,16.17 z m 33.48,-2.83 5.8,0 0,-13.34 -5.8,0 0,13.34 z"/>
    <path id="path42" style="fill:none;stroke:#d9d9d9;stroke-width:0.93002999;stroke-linecap:butt;stroke-linejoin:round;stroke-miterlimit:10;stroke-dasharray:none;stroke-opacity:1" d="m 90.017,227.4 638.023,0"/>
    <g id="g44">
      <g clip-path="url(#clipPath48)" id="g46"><text id="text52" style="font-variant:normal;font-weight:normal;font-size:11.15999985px;font-family:'Roboto Condensed';-inkscape-font-specification:RobotoCondensed-Regular;writing-mode:lr-tb;fill:#000000;fill-opacity:1;fill-rule:nonzero;stroke:none" transform="matrix(1,0,0,-1,110.78,407.3)"><tspan id="tspan54" y="0" x="0 5.52 11.04 16.559999">127 </tspan></text>
</g>
    </g>
    <g id="g56">
      <g clip-path="url(#clipPath60)" id="g58"><text id="text64" style="font-variant:normal;font-weight:normal;font-size:11.18400002px;font-family:'Roboto Condensed';-inkscape-font-specification:RobotoCondensed-Regular;writing-mode:lr-tb;fill:#000000;fill-opacity:1;fill-rule:nonzero;stroke:none" transform="matrix(1,0,0,-1,147.19,307.97)"><tspan id="tspan66" y="0" x="0 5.5199962 11.039992">53 </tspan></text>
</g>
    </g>
    <g id="g68">
      <g clip-path="url(#clipPath72)" id="g70"><text id="text76" style="font-variant:normal;font-weight:normal;font-size:11.15999985px;font-family:'Roboto Condensed';-inkscape-font-specification:RobotoCondensed-Regular;writing-mode:lr-tb;fill:#000000;fill-opacity:1;fill-rule:nonzero;stroke:none" transform="matrix(1,0,0,-1,180.79,276.38)"><tspan id="tspan78" y="0" x="0 5.4960399 10.99208">30 </tspan></text>
</g>
    </g>
    <g id="g80">
      <g clip-path="url(#clipPath84)" id="g82"><text id="text88" style="font-variant:normal;font-weight:normal;font-size:11.18400002px;font-family:'Roboto Condensed';-inkscape-font-specification:RobotoCondensed-Regular;writing-mode:lr-tb;fill:#000000;fill-opacity:1;fill-rule:nonzero;stroke:none" transform="matrix(1,0,0,-1,214.37,275.74)"><tspan id="tspan90" y="0" x="0 5.5199962 11.039992">30 </tspan></text>
</g>
    </g>
    <g id="g92">
      <g clip-path="url(#clipPath96)" id="g94"><text id="text100" style="font-variant:normal;font-weight:normal;font-size:11.15999985px;font-family:'Roboto Condensed';-inkscape-font-specification:RobotoCondensed-Regular;writing-mode:lr-tb;fill:#000000;fill-opacity:1;fill-rule:nonzero;stroke:none" transform="matrix(1,0,0,-1,247.97,264.58)"><tspan id="tspan102" y="0" x="0 5.4960399 10.99208">21 </tspan></text>
</g>
    </g>
    <g id="g104">
      <g clip-path="url(#clipPath108)" id="g106"><text id="text112" style="font-variant:normal;font-weight:normal;font-size:11.15999985px;font-family:'Roboto Condensed';-inkscape-font-specification:RobotoCondensed-Regular;writing-mode:lr-tb;fill:#000000;fill-opacity:1;fill-rule:nonzero;stroke:none" transform="matrix(1,0,0,-1,281.54,276.79)"><tspan id="tspan114" y="0" x="0 5.4960399 10.99208">30 </tspan></text>
</g>
    </g>
    <g id="g116">
      <g clip-path="url(#clipPath120)" id="g118"><text id="text124" style="font-variant:normal;font-weight:normal;font-size:11.15999985px;font-family:'Roboto Condensed';-inkscape-font-specification:RobotoCondensed-Regular;writing-mode:lr-tb;fill:#000000;fill-opacity:1;fill-rule:nonzero;stroke:none" transform="matrix(1,0,0,-1,315.12,274.27)"><tspan id="tspan126" y="0" x="0 5.52 11.04">29 </tspan></text>
</g>
    </g>
    <g id="g128">
      <g clip-path="url(#clipPath132)" id="g130"><text id="text136" style="font-variant:normal;font-weight:normal;font-size:11.15999985px;font-family:'Roboto Condensed';-inkscape-font-specification:RobotoCondensed-Regular;writing-mode:lr-tb;fill:#000000;fill-opacity:1;fill-rule:nonzero;stroke:none" transform="matrix(1,0,0,-1,348.72,262.13)"><tspan id="tspan138" y="0" x="0 5.4960399 10.99208">20 </tspan></text>
</g>
    </g>
    <g id="g140">
      <g clip-path="url(#clipPath144)" id="g142"><text id="text148" style="font-variant:normal;font-weight:normal;font-size:11.15999985px;font-family:'Roboto Condensed';-inkscape-font-specification:RobotoCondensed-Regular;writing-mode:lr-tb;fill:#000000;fill-opacity:1;fill-rule:nonzero;stroke:none" transform="matrix(1,0,0,-1,382.3,257.04)"><tspan id="tspan150" y="0" x="0 5.52 11.04">16 </tspan></text>
</g>
    </g>
    <g id="g152">
      <g clip-path="url(#clipPath156)" id="g154"><text id="text160" style="font-variant:normal;font-weight:normal;font-size:11.15999985px;font-family:'Roboto Condensed';-inkscape-font-specification:RobotoCondensed-Regular;writing-mode:lr-tb;fill:#000000;fill-opacity:1;fill-rule:nonzero;stroke:none" transform="matrix(1,0,0,-1,415.87,253.42)"><tspan id="tspan162" y="0" x="0 5.52 11.04">13 </tspan></text>
</g>
    </g>
    <g id="g164">
      <g clip-path="url(#clipPath168)" id="g166"><text id="text172" style="font-variant:normal;font-weight:normal;font-size:11.15999985px;font-family:'Roboto Condensed';-inkscape-font-specification:RobotoCondensed-Regular;writing-mode:lr-tb;fill:#000000;fill-opacity:1;fill-rule:nonzero;stroke:none" transform="matrix(1,0,0,-1,449.47,255.22)"><tspan id="tspan174" y="0" x="0 5.4960399 10.99208">14 </tspan></text>
</g>
    </g>
    <g id="g176">
      <g clip-path="url(#clipPath180)" id="g178"><text id="text184" style="font-variant:normal;font-weight:normal;font-size:11.15999985px;font-family:'Roboto Condensed';-inkscape-font-specification:RobotoCondensed-Regular;writing-mode:lr-tb;fill:#000000;fill-opacity:1;fill-rule:nonzero;stroke:none" transform="matrix(1,0,0,-1,483.05,257.14)"><tspan id="tspan186" y="0" x="0 5.52 11.04">16 </tspan></text>
</g>
    </g>
    <g id="g188">
      <g clip-path="url(#clipPath192)" id="g190"><text id="text196" style="font-variant:normal;font-weight:normal;font-size:11.18400002px;font-family:'Roboto Condensed';-inkscape-font-specification:RobotoCondensed-Regular;writing-mode:lr-tb;fill:#000000;fill-opacity:1;fill-rule:nonzero;stroke:none" transform="matrix(1,0,0,-1,519.31,248.06)"><tspan id="tspan198" y="0" x="0 5.5199962">9 </tspan></text>
</g>
    </g>
    <g id="g200">
      <g clip-path="url(#clipPath204)" id="g202"><text id="text208" style="font-variant:normal;font-weight:normal;font-size:11.15999985px;font-family:'Roboto Condensed';-inkscape-font-specification:RobotoCondensed-Regular;writing-mode:lr-tb;fill:#000000;fill-opacity:1;fill-rule:nonzero;stroke:none" transform="matrix(1,0,0,-1,550.22,252.46)"><tspan id="tspan210" y="0" x="0 5.4960399 10.99208">12 </tspan></text>
</g>
    </g>
    <g id="g212">
      <g clip-path="url(#clipPath216)" id="g214"><text id="text220" style="font-variant:normal;font-weight:normal;font-size:11.15999985px;font-family:'Roboto Condensed';-inkscape-font-specification:RobotoCondensed-Regular;writing-mode:lr-tb;fill:#000000;fill-opacity:1;fill-rule:nonzero;stroke:none" transform="matrix(1,0,0,-1,583.8,250.54)"><tspan id="tspan222" y="0" x="0 5.52 11.04">11 </tspan></text>
</g>
    </g>
    <g id="g224">
      <g clip-path="url(#clipPath228)" id="g226"><text id="text232" style="font-variant:normal;font-weight:normal;font-size:11.15999985px;font-family:'Roboto Condensed';-inkscape-font-specification:RobotoCondensed-Regular;writing-mode:lr-tb;fill:#000000;fill-opacity:1;fill-rule:nonzero;stroke:none" transform="matrix(1,0,0,-1,620.06,247.97)"><tspan id="tspan234" y="0" x="0 5.52">9 </tspan></text>
</g>
    </g>
    <g id="g236">
      <g clip-path="url(#clipPath240)" id="g238"><text id="text244" style="font-variant:normal;font-weight:normal;font-size:11.15999985px;font-family:'Roboto Condensed';-inkscape-font-specification:RobotoCondensed-Regular;writing-mode:lr-tb;fill:#000000;fill-opacity:1;fill-rule:nonzero;stroke:none" transform="matrix(1,0,0,-1,650.98,251.88)"><tspan id="tspan246" y="0" x="0 5.52 11.04">12 </tspan></text>
</g>
    </g>
    <g id="g248">
      <g clip-path="url(#clipPath252)" id="g250"><text id="text256" style="font-variant:normal;font-weight:normal;font-size:11.15999985px;font-family:'Roboto Condensed';-inkscape-font-specification:RobotoCondensed-Regular;writing-mode:lr-tb;fill:#000000;fill-opacity:1;fill-rule:nonzero;stroke:none" transform="matrix(1,0,0,-1,684.55,251.86)"><tspan id="tspan258" y="0" x="0 5.52 11.04">12 </tspan></text>
</g>
    </g>
    <g id="g260">
      <g clip-path="url(#clipPath264)" id="g262"><text id="text268" style="font-variant:normal;font-weight:normal;font-size:11.15999985px;font-family:'Roboto Condensed';-inkscape-font-specification:RobotoCondensed-Regular;writing-mode:lr-tb;fill:#000000;fill-opacity:1;fill-rule:nonzero;stroke:none" transform="matrix(1,0,0,-1,718.15,249.07)"><tspan id="tspan270" y="0" x="0 5.4960399 10.99208">10 </tspan></text>
</g>
    </g>
    <g id="g272">
      <g clip-path="url(#clipPath276)" id="g274"><text id="text280" style="font-variant:normal;font-weight:normal;font-size:11.15999985px;font-family:'Roboto Condensed';-inkscape-font-specification:RobotoCondensed-Regular;writing-mode:lr-tb;fill:#000000;fill-opacity:1;fill-rule:nonzero;stroke:none" transform="matrix(1,0,0,-1,69.33604,224.02)"><tspan id="tspan282" y="0" x="0">-</tspan></text>
</g>
    </g>
    <g id="g284">
      <g clip-path="url(#clipPath288)" id="g286"><text id="text292" style="font-variant:normal;font-weight:normal;font-size:11.15999985px;font-family:'Roboto Condensed';-inkscape-font-specification:RobotoCondensed-Regular;writing-mode:lr-tb;fill:#000000;fill-opacity:1;fill-rule:nonzero;stroke:none" transform="matrix(1,0,0,-1,66.19416,251.04)"><tspan id="tspan294" y="0" x="0 5.5130401">20</tspan></text>
</g>
    </g>
    <g id="g296">
      <g clip-path="url(#clipPath300)" id="g298"><text id="text304" style="font-variant:normal;font-weight:normal;font-size:11.15999985px;font-family:'Roboto Condensed';-inkscape-font-specification:RobotoCondensed-Regular;writing-mode:lr-tb;fill:#000000;fill-opacity:1;fill-rule:nonzero;stroke:none" transform="matrix(1,0,0,-1,66.19416,278.06)"><tspan id="tspan306" y="0" x="0 5.5130401">40</tspan></text>
</g>
    </g>
    <g id="g308">
      <g clip-path="url(#clipPath312)" id="g310"><text id="text316" style="font-variant:normal;font-weight:normal;font-size:11.15999985px;font-family:'Roboto Condensed';-inkscape-font-specification:RobotoCondensed-Regular;writing-mode:lr-tb;fill:#000000;fill-opacity:1;fill-rule:nonzero;stroke:none" transform="matrix(1,0,0,-1,66.19416,305.09)"><tspan id="tspan318" y="0" x="0 5.5130401">60</tspan></text>
</g>
    </g>
    <g id="g320">
      <g clip-path="url(#clipPath324)" id="g322"><text id="text328" style="font-variant:normal;font-weight:normal;font-size:11.15999985px;font-family:'Roboto Condensed';-inkscape-font-specification:RobotoCondensed-Regular;writing-mode:lr-tb;fill:#000000;fill-opacity:1;fill-rule:nonzero;stroke:none" transform="matrix(1,0,0,-1,66.19416,332.11)"><tspan id="tspan330" y="0" x="0 5.5130401">80</tspan></text>
</g>
    </g>
    <g id="g332">
      <g clip-path="url(#clipPath336)" id="g334"><text id="text340" style="font-variant:normal;font-weight:normal;font-size:11.15999985px;font-family:'Roboto Condensed';-inkscape-font-specification:RobotoCondensed-Regular;writing-mode:lr-tb;fill:#000000;fill-opacity:1;fill-rule:nonzero;stroke:none" transform="matrix(1,0,0,-1,60.67416,359.14)"><tspan id="tspan342" y="0" x="0 5.5130401 10.9926">100</tspan></text>
</g>
    </g>
    <g id="g344">
      <g clip-path="url(#clipPath348)" id="g346"><text id="text352" style="font-variant:normal;font-weight:normal;font-size:11.18400002px;font-family:'Roboto Condensed';-inkscape-font-specification:RobotoCondensed-Regular;writing-mode:lr-tb;fill:#000000;fill-opacity:1;fill-rule:nonzero;stroke:none" transform="matrix(1,0,0,-1,60.6684,386.16)"><tspan id="tspan354" y="0" x="0 5.5248961 10.993872">120</tspan></text>
</g>
    </g>
    <g id="g356">
      <g clip-path="url(#clipPath360)" id="g358"><text id="text364" style="font-variant:normal;font-weight:normal;font-size:11.15999985px;font-family:'Roboto Condensed';-inkscape-font-specification:RobotoCondensed-Regular;writing-mode:lr-tb;fill:#000000;fill-opacity:1;fill-rule:nonzero;stroke:none" transform="matrix(1,0,0,-1,60.67416,413.16)"><tspan id="tspan366" y="0" x="0 5.5130401 10.9926">140</tspan></text>
</g>
    </g>
    <g id="g368">
      <g clip-path="url(#clipPath372)" id="g370"><text id="text376" style="font-variant:normal;font-weight:normal;font-size:11.15999985px;font-family:'Roboto Condensed';-inkscape-font-specification:RobotoCondensed-Regular;writing-mode:lr-tb;fill:#000000;fill-opacity:1;fill-rule:nonzero;stroke:none" transform="matrix(1,0,0,-1,60.67416,440.18)"><tspan id="tspan378" y="0" x="0 5.5130401 10.9926">160</tspan></text>
</g>
    </g>
    <g id="g380">
      <g clip-path="url(#clipPath384)" id="g382"><text id="text388" style="font-variant:normal;font-weight:normal;font-size:11.15999985px;font-family:'Roboto Condensed';-inkscape-font-specification:RobotoCondensed-Regular;writing-mode:lr-tb;fill:#0000ff;fill-opacity:1;fill-rule:nonzero;stroke:none" transform="matrix(-4.4e-8,1,1,4.4e-8,110.69,205.49)"><tspan id="tspan390" y="0" x="0 2.8234799 8.6043596">ISP</tspan></text>
</g>
    </g>
    <g id="g392">
      <g clip-path="url(#clipPath396)" id="g394"><text id="text400" style="font-variant:normal;font-weight:normal;font-size:11.15999985px;font-family:'Roboto Condensed';-inkscape-font-specification:RobotoCondensed-Regular;writing-mode:lr-tb;fill:#0000ff;fill-opacity:1;fill-rule:nonzero;stroke:none" transform="matrix(-4.4e-8,1,1,4.4e-8,144.29,193.56)"><tspan id="tspan402" y="0" x="0 6.9973202 13.70448 20.41164">HOOD</tspan></text>
</g>
    </g>
    <g id="g404">
      <g clip-path="url(#clipPath408)" id="g406"><text id="text412" style="font-variant:normal;font-weight:normal;font-size:11.15999985px;font-family:'Roboto Condensed';-inkscape-font-specification:RobotoCondensed-Regular;writing-mode:lr-tb;fill:#0000ff;fill-opacity:1;fill-rule:nonzero;stroke:none" transform="matrix(-4.4e-8,1,1,4.4e-8,177.86,199.2)"><tspan id="tspan414" y="0" x="0 6.4281602 14.88744">AMP</tspan></text>
</g>
    </g>
    <g id="g416">
      <g clip-path="url(#clipPath420)" id="g418"><text id="text424" style="font-variant:normal;font-weight:normal;font-size:11.15999985px;font-family:'Roboto Condensed';-inkscape-font-specification:RobotoCondensed-Regular;writing-mode:lr-tb;fill:#0000ff;fill-opacity:1;fill-rule:nonzero;stroke:none" transform="matrix(-4.4e-8,1,1,4.4e-8,211.44,173.47)"><tspan id="tspan426" y="0" x="0 8.45928 10.98144 15.88068 21.27096 26.60544 32.263561 34.785721 40.142521">Mizuho FG</tspan></text>
</g>
    </g>
    <g id="g428">
      <g clip-path="url(#clipPath432)" id="g430"><text id="text436" style="font-variant:normal;font-weight:normal;font-size:11.15999985px;font-family:'Roboto Condensed';-inkscape-font-specification:RobotoCondensed-Regular;writing-mode:lr-tb;fill:#0000ff;fill-opacity:1;fill-rule:nonzero;stroke:none" transform="matrix(-4.4e-8,1,1,4.4e-8,245.04,196.27)"><tspan id="tspan438" y="0" x="0 6.0822001 12.51036 18.056881">BAER</tspan></text>
</g>
    </g>
    <g id="g440">
      <g clip-path="url(#clipPath444)" id="g442"><text id="text448" style="font-variant:normal;font-weight:normal;font-size:11.15999985px;font-family:'Roboto Condensed';-inkscape-font-specification:RobotoCondensed-Regular;writing-mode:lr-tb;fill:#0000ff;fill-opacity:1;fill-rule:nonzero;stroke:none" transform="matrix(-4.4e-8,1,1,4.4e-8,278.62,194.09)"><tspan id="tspan450" y="0" x="0 5.78088 14.27364 19.63044">SMFG</tspan></text>
</g>
    </g>
    <g id="g452">
      <g clip-path="url(#clipPath456)" id="g454"><text id="text460" style="font-variant:normal;font-weight:normal;font-size:11.18400002px;font-family:'Roboto Condensed';-inkscape-font-specification:RobotoCondensed-Regular;writing-mode:lr-tb;fill:#0000ff;fill-opacity:1;fill-rule:nonzero;stroke:none" transform="matrix(-4.4e-8,1,1,4.4e-8,312.19,211.39)"><tspan id="tspan462" y="0" x="0">C</tspan></text>
</g>
    </g>
    <g id="g464">
      <g clip-path="url(#clipPath468)" id="g466"><text id="text472" style="font-variant:normal;font-weight:normal;font-size:11.15999985px;font-family:'Roboto Condensed';-inkscape-font-specification:RobotoCondensed-Regular;writing-mode:lr-tb;fill:#0000ff;fill-opacity:1;fill-rule:nonzero;stroke:none" transform="matrix(-4.4e-8,1,1,4.4e-8,345.79,200.83)"><tspan id="tspan474" y="0" x="0 6.4281602 12.51036">ABN</tspan></text>
</g>
    </g>
    <g id="g476">
      <g clip-path="url(#clipPath480)" id="g478"><text id="text484" style="font-variant:normal;font-weight:normal;font-size:11.15999985px;font-family:'Roboto Condensed';-inkscape-font-specification:RobotoCondensed-Regular;writing-mode:lr-tb;fill:#0000ff;fill-opacity:1;fill-rule:nonzero;stroke:none" transform="matrix(-4.4e-8,1,1,4.4e-8,379.37,203.57)"><tspan id="tspan486" y="0" x="0 5.9594402 11.34972">RJF</tspan></text>
</g>
    </g>
    <g id="g488">
      <g clip-path="url(#clipPath492)" id="g490"><text id="text496" style="font-variant:normal;font-weight:normal;font-size:11.15999985px;font-family:'Roboto Condensed';-inkscape-font-specification:RobotoCondensed-Regular;writing-mode:lr-tb;fill:#0000ff;fill-opacity:1;fill-rule:nonzero;stroke:none" transform="matrix(-4.4e-8,1,1,4.4e-8,412.97,139.92)"><tspan id="tspan498" y="0" x="0 5.3568001 11.6064 20.087999 22.643641 28.72584 32.151958 34.7076 39.484081 44.82972 48.121922 53.456402 56.012039 62.094238 67.43988 72.796677">JPM Private Bank</tspan></text>
</g>
    </g>
    <g id="g500">
      <g clip-path="url(#clipPath504)" id="g502"><text id="text508" style="font-variant:normal;font-weight:normal;font-size:11.15999985px;font-family:'Roboto Condensed';-inkscape-font-specification:RobotoCondensed-Regular;writing-mode:lr-tb;fill:#0000ff;fill-opacity:1;fill-rule:nonzero;stroke:none" transform="matrix(-4.4e-8,1,1,4.4e-8,446.54,201.41)"><tspan id="tspan510" y="0" x="0 6.1045198 12.53268">BAC</tspan></text>
</g>
    </g>
    <g id="g512">
      <g clip-path="url(#clipPath516)" id="g514"><text id="text520" style="font-variant:normal;font-weight:normal;font-size:11.15999985px;font-family:'Roboto Condensed';-inkscape-font-specification:RobotoCondensed-Regular;writing-mode:lr-tb;fill:#0000ff;fill-opacity:1;fill-rule:nonzero;stroke:none" transform="matrix(-4.4e-8,1,1,4.4e-8,480.12,202.1)"><tspan id="tspan522" y="0" x="0 6.2719202 12.35412">UBS</tspan></text>
</g>
    </g>
    <g id="g524">
      <g clip-path="url(#clipPath528)" id="g526"><text id="text532" style="font-variant:normal;font-weight:normal;font-size:11.15999985px;font-family:'Roboto Condensed';-inkscape-font-specification:RobotoCondensed-Regular;writing-mode:lr-tb;fill:#0000ff;fill-opacity:1;fill-rule:nonzero;stroke:none" transform="matrix(-4.4e-8,1,1,4.4e-8,513.72,200.06)"><tspan id="tspan534" y="0" x="0 8.4960003 13.84488">WFC</tspan></text>
</g>
    </g>
    <g id="g536">
      <g clip-path="url(#clipPath540)" id="g538"><text id="text544" style="font-variant:normal;font-weight:normal;font-size:11.15999985px;font-family:'Roboto Condensed';-inkscape-font-specification:RobotoCondensed-Regular;writing-mode:lr-tb;fill:#0000ff;fill-opacity:1;fill-rule:nonzero;stroke:none" transform="matrix(-4.4e-8,1,1,4.4e-8,547.3,195.29)"><tspan id="tspan546" y="0" x="0 6.39468 12.82284 18.60372">CASA</tspan></text>
</g>
    </g>
    <g id="g548">
      <g clip-path="url(#clipPath552)" id="g550"><text id="text556" style="font-variant:normal;font-weight:normal;font-size:11.18400002px;font-family:'Roboto Condensed';-inkscape-font-specification:RobotoCondensed-Regular;writing-mode:lr-tb;fill:#0000ff;fill-opacity:1;fill-rule:nonzero;stroke:none" transform="matrix(-4.4e-8,1,1,4.4e-8,580.87,195.84)"><tspan id="tspan558" y="0" x="0 6.8446078 12.671472 18.610176">NTRS</tspan></text>
</g>
    </g>
    <g id="g560">
      <g clip-path="url(#clipPath564)" id="g562"><text id="text568" style="font-variant:normal;font-weight:normal;font-size:11.15999985px;font-family:'Roboto Condensed';-inkscape-font-specification:RobotoCondensed-Regular;writing-mode:lr-tb;fill:#0000ff;fill-opacity:1;fill-rule:nonzero;stroke:none" transform="matrix(-4.4e-8,1,1,4.4e-8,614.47,201.07)"><tspan id="tspan570" y="0" x="0 6.0822001 12.93444">BNP</tspan></text>
</g>
    </g>
    <g id="g572">
      <g clip-path="url(#clipPath576)" id="g574"><text id="text580" style="font-variant:normal;font-weight:normal;font-size:11.15999985px;font-family:'Roboto Condensed';-inkscape-font-specification:RobotoCondensed-Regular;writing-mode:lr-tb;fill:#0000ff;fill-opacity:1;fill-rule:nonzero;stroke:none" transform="matrix(-4.4e-8,1,1,4.4e-8,648.05,192.72)"><tspan id="tspan582" y="0" x="0 5.78088 12.07512 19.072439">SCHW</tspan></text>
</g>
    </g>
    <g id="g584">
      <g clip-path="url(#clipPath588)" id="g586"><text id="text592" style="font-variant:normal;font-weight:normal;font-size:11.15999985px;font-family:'Roboto Condensed';-inkscape-font-specification:RobotoCondensed-Regular;writing-mode:lr-tb;fill:#0000ff;fill-opacity:1;fill-rule:nonzero;stroke:none" transform="matrix(-4.4e-8,1,1,4.4e-8,681.65,197.04)"><tspan id="tspan594" y="0" x="0 5.3456402 11.439 16.784639">LPLA</tspan></text>
</g>
    </g>
    <g id="g596">
      <g clip-path="url(#clipPath600)" id="g598"><text id="text604" style="font-variant:normal;font-weight:normal;font-size:11.15999985px;font-family:'Roboto Condensed';-inkscape-font-specification:RobotoCondensed-Regular;writing-mode:lr-tb;fill:#0000ff;fill-opacity:1;fill-rule:nonzero;stroke:none" transform="matrix(-4.4e-8,1,1,4.4e-8,715.22,208.08)"><tspan id="tspan606" y="0" x="0 6.1199999">BK</tspan></text>
</g>
    </g>
    <g id="g608">
      <g clip-path="url(#clipPath612)" id="g610"><text id="text616" style="font-variant:normal;font-weight:bold;font-size:17.39999962px;font-family:'Roboto Condensed';-inkscape-font-specification:RobotoCondensed-Bold;writing-mode:lr-tb;fill:#000000;fill-opacity:1;fill-rule:nonzero;stroke:none" transform="matrix(1,0,0,-1,336.96,456.43)"><tspan id="tspan618" y="0" x="0 10.7184 19.052999 24.3948 28.257601 41.481602 49.676998 55.4538 64.206001 68.590797 77.203796 85.103401 89.383797 93.142197 101.7552 110.403">Net Margins, bps</tspan></text>
</g>
    </g>
    <path id="path620" style="fill:#873246;fill-opacity:1;fill-rule:evenodd;stroke:none" d="m 314.28,429.49 6.0266,0 0,6.0266 -6.0266,0 0,-6.0266 z"/>
    <g id="g622">
      <g clip-path="url(#clipPath626)" id="g624"><text id="text630" style="font-variant:normal;font-weight:normal;font-size:11.15999985px;font-family:'Roboto Condensed';-inkscape-font-specification:RobotoCondensed-Regular;writing-mode:lr-tb;fill:#000000;fill-opacity:1;fill-rule:nonzero;stroke:none" transform="matrix(1,0,0,-1,322.9,429.14)"><tspan id="tspan632" y="0" x="0 5.52 11.04 16.559999">2024</tspan></text>
</g>
    </g>
    <path id="path634" style="fill:#d0b86a;fill-opacity:1;fill-rule:evenodd;stroke:none" d="m 354.51,429.49 6.0266,0 0,6.0266 -6.0266,0 0,-6.0266 z"/>
    <g id="g636">
      <g clip-path="url(#clipPath640)" id="g638"><text id="text644" style="font-variant:normal;font-weight:normal;font-size:11.15999985px;font-family:'Roboto Condensed';-inkscape-font-specification:RobotoCondensed-Regular;writing-mode:lr-tb;fill:#000000;fill-opacity:1;fill-rule:nonzero;stroke:none" transform="matrix(1,0,0,-1,363.14,429.14)"><tspan id="tspan646" y="0" x="0 5.4960399 10.99208 16.488119 21.984159">2025E</tspan></text>
</g>
    </g>
    <path id="path648" style="fill:#3bc3a3;fill-opacity:1;fill-rule:evenodd;stroke:none" d="m 400.27,429.49 6.0266,0 0,6.0266 -6.0266,0 0,-6.0266 z"/>
    <g id="g650">
      <g clip-path="url(#clipPath654)" id="g652"><text id="text658" style="font-variant:normal;font-weight:normal;font-size:11.15999985px;font-family:'Roboto Condensed';-inkscape-font-specification:RobotoCondensed-Regular;writing-mode:lr-tb;fill:#000000;fill-opacity:1;fill-rule:nonzero;stroke:none" transform="matrix(1,0,0,-1,408.91,429.14)"><tspan id="tspan660" y="0" x="0 5.4960399 10.99208 16.488119 21.984159">2026E</tspan></text>
</g>
    </g>
    <path id="path662" style="fill:#005aa4;fill-opacity:1;fill-rule:evenodd;stroke:none" d="m 446.04,429.49 6.0266,0 0,6.0266 -6.0266,0 0,-6.0266 z"/>
    <g id="g664">
      <g clip-path="url(#clipPath668)" id="g666"><text id="text672" style="font-variant:normal;font-weight:normal;font-size:11.15999985px;font-family:'Roboto Condensed';-inkscape-font-specification:RobotoCondensed-Regular;writing-mode:lr-tb;fill:#000000;fill-opacity:1;fill-rule:nonzero;stroke:none" transform="matrix(1,0,0,-1,454.68,429.14)"><tspan id="tspan674" y="0" x="0 5.4960399 10.99208 16.488119 21.984159">2027E</tspan></text>
</g>
    </g>
  </g>
</svg>
