<svg version="1.1" width="100%" height="100%" viewBox="0 0 355 256" xmlns="http://www.w3.org/2000/svg" xmlns:xlink="http://www.w3.org/1999/xlink"><style type="text/css" /><defs><clipPath id="clip001"><path d="M0,0 L2761.333,0 L2761.333,2125.333 L0,2125.333 Z" clip-rule="evenodd" /></clipPath><clipPath id="clip002"><path d="M0,0 L2761.333,0 L2761.333,2125.333 L0,2125.333 Z" clip-rule="evenodd" /></clipPath><clipPath id="clip003"><path d="M0,0 L2761.333,0 L2761.333,2125.333 L0,2125.333 Z" clip-rule="evenodd" /></clipPath><clipPath id="clip004"><path d="M0,0 L5200,0 L5200,2224 L0,2224 Z" clip-rule="evenodd" /></clipPath><clipPath id="clip005"><path d="M-800,0 L6000,0 L6000,2224 L-800,2224 Z" clip-rule="evenodd" /></clipPath><clipPath id="clip006"><path d="M0,0 L2753.333,0 L2753.333,2124 L0,2124 Z" clip-rule="evenodd" /></clipPath><clipPath id="clip007"><path d="M294.6667,53.33333 L2502.667,53.33333 L2502.667,1913.333 L294.6667,1913.333 Z" clip-rule="evenodd" /></clipPath><clipPath id="clip008"><path d="M294.6667,53.33333 L2502.667,53.33333 L2502.667,1913.333 L294.6667,1913.333 Z" clip-rule="evenodd" /></clipPath><clipPath id="clip009"><path d="M0,0 L2753.333,0 L2753.333,2124 L0,2124 Z" clip-rule="evenodd" /></clipPath><clipPath id="clip010"><path d="M294.6667,53.33333 L2502.667,53.33333 L2502.667,1913.333 L294.6667,1913.333 Z" clip-rule="evenodd" /></clipPath><clipPath id="clip011"><path d="M0,0 L2753.333,0 L2753.333,2124 L0,2124 Z" clip-rule="evenodd" /></clipPath><clipPath id="clip012"><path d="M0,0 L2753.333,0 L2753.333,2124 L0,2124 Z" clip-rule="evenodd" /></clipPath><clipPath id="clip013"><path d="M0,0 L2753.333,0 L2753.333,2124 L0,2124 Z" clip-rule="evenodd" /></clipPath><clipPath id="clip014"><path d="M0,0 L2753.333,0 L2753.333,2124 L0,2124 Z" clip-rule="evenodd" /></clipPath><clipPath id="clip015"><path d="M0,0 L2753.333,0 L2753.333,2124 L0,2124 Z" clip-rule="evenodd" /></clipPath><clipPath id="clip016"><path d="M0,0 L2753.333,0 L2753.333,2124 L0,2124 Z" clip-rule="evenodd" /></clipPath><clipPath id="clip017"><path d="M0,0 L2753.333,0 L2753.333,2124 L0,2124 Z" clip-rule="evenodd" /></clipPath><clipPath id="clip018"><path d="M0,0 L2753.333,0 L2753.333,2124 L0,2124 Z" clip-rule="evenodd" /></clipPath><clipPath id="clip019"><path d="M0,0 L2753.333,0 L2753.333,2124 L0,2124 Z" clip-rule="evenodd" /></clipPath><clipPath id="clip020"><path d="M0,0 L2753.333,0 L2753.333,2124 L0,2124 Z" clip-rule="evenodd" /></clipPath><clipPath id="clip021"><path d="M0,0 L2753.333,0 L2753.333,2124 L0,2124 Z" clip-rule="evenodd" /></clipPath><clipPath id="clip022"><path d="M0,0 L2753.333,0 L2753.333,2124 L0,2124 Z" clip-rule="evenodd" /></clipPath><clipPath id="clip023"><path d="M0,0 L2753.333,0 L2753.333,2124 L0,2124 Z" clip-rule="evenodd" /></clipPath><clipPath id="clip024"><path d="M0,0 L2753.333,0 L2753.333,2124 L0,2124 Z" clip-rule="evenodd" /></clipPath><clipPath id="clip025"><path d="M0,0 L2753.333,0 L2753.333,2124 L0,2124 Z" clip-rule="evenodd" /></clipPath><clipPath id="clip026"><path d="M0,0 L2753.333,0 L2753.333,2124 L0,2124 Z" clip-rule="evenodd" /></clipPath><clipPath id="clip027"><path d="M0,0 L2753.333,0 L2753.333,2124 L0,2124 Z" clip-rule="evenodd" /></clipPath><clipPath id="clip028"><path d="M0,0 L2753.333,0 L2753.333,2124 L0,2124 Z" clip-rule="evenodd" /></clipPath><clipPath id="clip029"><path d="M0,0 L2753.333,0 L2753.333,2124 L0,2124 Z" clip-rule="evenodd" /></clipPath><clipPath id="clip030"><path d="M0,0 L2753.333,0 L2753.333,2124 L0,2124 Z" clip-rule="evenodd" /></clipPath><clipPath id="clip031"><path d="M0,0 L2753.333,0 L2753.333,2124 L0,2124 Z" clip-rule="evenodd" /></clipPath><clipPath id="clip032"><path d="M0,0 L2753.333,0 L2753.333,2124 L0,2124 Z" clip-rule="evenodd" /></clipPath><clipPath id="clip033"><path d="M0,0 L2753.333,0 L2753.333,2124 L0,2124 Z" clip-rule="evenodd" /></clipPath><clipPath id="clip034"><path d="M0,0 L2753.333,0 L2753.333,2124 L0,2124 Z" clip-rule="evenodd" /></clipPath><clipPath id="clip035"><path d="M0,0 L2753.333,0 L2753.333,2124 L0,2124 Z" clip-rule="evenodd" /></clipPath><clipPath id="clip036"><path d="M0,0 L2753.333,0 L2753.333,2124 L0,2124 Z" clip-rule="evenodd" /></clipPath><clipPath id="clip037"><path d="M0,0 L2753.333,0 L2753.333,2124 L0,2124 Z" clip-rule="evenodd" /></clipPath><clipPath id="clip038"><path d="M0,0 L2753.333,0 L2753.333,2124 L0,2124 Z" clip-rule="evenodd" /></clipPath><clipPath id="clip039"><path d="M0,0 L2753.333,0 L2753.333,2124 L0,2124 Z" clip-rule="evenodd" /></clipPath><clipPath id="clip040"><path d="M0,0 L2753.333,0 L2753.333,2124 L0,2124 Z" clip-rule="evenodd" /></clipPath><clipPath id="clip041"><path d="M0,0 L2753.333,0 L2753.333,2124 L0,2124 Z" clip-rule="evenodd" /></clipPath><clipPath id="clip042"><path d="M0,0 L2753.333,0 L2753.333,2124 L0,2124 Z" clip-rule="evenodd" /></clipPath><clipPath id="clip043"><path d="M0,0 L2753.333,0 L2753.333,2124 L0,2124 Z" clip-rule="evenodd" /></clipPath></defs><clipPath id="page-clip-path-1"><rect x="0" y="0" width="354.67" height="256" /></clipPath><g clip-path="url(#page-clip-path-1)" transform="translate(0.17,0)"><g transform="translate(1,1)"><g><g transform="matrix(0.1197006,0,0,0.1199812,0,0)" clip-path="url(#clip001)"><g><g clip-path="url(#clip002)"><g><g clip-path="url(#clip003)"><g transform="matrix(1.000214,0,0,1.000416,0.00016276,0)"><g><g><g clip-path="url(#clip004)"><g transform="translate(2753.333,2125.333)" /></g></g></g><g clip-path="url(#clip005)"><g transform="matrix(0.000656168,0,0,0.000656168,0,0)"><path d="M0,0 L4198112,0 L4198112,3239008 L0,3239008 Z" fill="#ffffff" fill-opacity="0" fill-rule="evenodd" /></g></g><g clip-path="url(#clip006)"><g transform="matrix(0.000656168,0,0,0.000656168,294.6667,53.33333)"><path d="M0,2586736 L3352800,2586736 M0,2353056 L3352800,2353056 M0,2117344 L3352800,2117344 M0,1881632 L3352800,1881632 M0,1645920 L3352800,1645920 M0,1412240 L3352800,1412240 M0,1176528 L3352800,1176528 M0,940816 L3352800,940816 M0,707136 L3352800,707136 M0,471424 L3352800,471424 M0,235712 L3352800,235712 M0,0 L3352800,0 " stroke-width="16933.33" stroke-linejoin="round" stroke-miterlimit="13.33333" stroke="#bababa" fill="none" fill-rule="nonzero" /></g></g><g clip-path="url(#clip007)"><g transform="matrix(0.000656168,0,0,0.000656168,294.6667,53.33333)"><path d="M79248,1133856 L400304,1133856 L400304,1133856 L400304,2822448 L400304,2822448 L79248,2822448 ZM558800,1066800 L877824,1066800 L877824,1066800 L877824,2822448 L877824,2822448 L558800,2822448 ZM1038352,1016000 L1357376,1016000 L1357376,1016000 L1357376,2822448 L1357376,2822448 L1038352,2822448 ZM1515872,1011936 L1836928,1011936 L1836928,1011936 L1836928,2822448 L1836928,2822448 L1515872,2822448 ZM1995424,1016000 L2314448,1016000 L2314448,1016000 L2314448,2822448 L2314448,2822448 L1995424,2822448 ZM2474976,985520 L2794000,985520 L2794000,985520 L2794000,2822448 L2794000,2822448 L2474976,2822448 ZM2952496,967232 L3273552,967232 L3273552,967232 L3273552,2822448 L3273552,2822448 L2952496,2822448 Z" fill="#012169" fill-rule="nonzero" /><path d="M79248,1133856 L400304,1133856 L400304,1133856 L400304,2822448 L400304,2822448 L79248,2822448 ZM558800,1066800 L877824,1066800 L877824,1066800 L877824,2822448 L877824,2822448 L558800,2822448 ZM1038352,1016000 L1357376,1016000 L1357376,1016000 L1357376,2822448 L1357376,2822448 L1038352,2822448 ZM1515872,1011936 L1836928,1011936 L1836928,1011936 L1836928,2822448 L1836928,2822448 L1515872,2822448 ZM1995424,1016000 L2314448,1016000 L2314448,1016000 L2314448,2822448 L2314448,2822448 L1995424,2822448 ZM2474976,985520 L2794000,985520 L2794000,985520 L2794000,2822448 L2794000,2822448 L2474976,2822448 ZM2952496,967232 L3273552,967232 L3273552,967232 L3273552,2822448 L3273552,2822448 L2952496,2822448 Z" stroke-width="8466.667" stroke-linejoin="round" stroke-miterlimit="13.33333" stroke="#ffffff" fill="none" fill-rule="nonzero" /></g></g><g clip-path="url(#clip008)"><g transform="matrix(0.000656168,0,0,0.000656168,294.6667,53.33333)"><path d="M79248,1081024 L400304,1081024 L400304,1081024 L400304,1133856 L400304,1133856 L79248,1133856 ZM558800,987552 L877824,987552 L877824,987552 L877824,1066800 L877824,1066800 L558800,1066800 ZM1038352,912368 L1357376,912368 L1357376,912368 L1357376,1016000 L1357376,1016000 L1038352,1016000 ZM1515872,772160 L1836928,772160 L1836928,772160 L1836928,1011936 L1836928,1011936 L1515872,1011936 ZM1995424,593344 L2314448,593344 L2314448,593344 L2314448,1016000 L2314448,1016000 L1995424,1016000 ZM2474976,436880 L2794000,436880 L2794000,436880 L2794000,985520 L2794000,985520 L2474976,985520 ZM2952496,302768 L3273552,302768 L3273552,302768 L3273552,967232 L3273552,967232 L2952496,967232 Z" fill="#009cde" fill-rule="nonzero" /><path d="M79248,1081024 L400304,1081024 L400304,1081024 L400304,1133856 L400304,1133856 L79248,1133856 ZM558800,987552 L877824,987552 L877824,987552 L877824,1066800 L877824,1066800 L558800,1066800 ZM1038352,912368 L1357376,912368 L1357376,912368 L1357376,1016000 L1357376,1016000 L1038352,1016000 ZM1515872,772160 L1836928,772160 L1836928,772160 L1836928,1011936 L1836928,1011936 L1515872,1011936 ZM1995424,593344 L2314448,593344 L2314448,593344 L2314448,1016000 L2314448,1016000 L1995424,1016000 ZM2474976,436880 L2794000,436880 L2794000,436880 L2794000,985520 L2794000,985520 L2474976,985520 ZM2952496,302768 L3273552,302768 L3273552,302768 L3273552,967232 L3273552,967232 L2952496,967232 Z" stroke-width="8466.667" stroke-linejoin="round" stroke-miterlimit="13.33333" stroke="#ffffff" fill="none" fill-rule="nonzero" /></g></g><g clip-path="url(#clip009)"><g transform="matrix(0.000656168,0,0,0.000656168,294.6667,1905.333)"><g><path d="M0.002693603,-6773.333 L3352800,-6772 " stroke-width="3386.667" stroke-linejoin="round" stroke-miterlimit="13.33333" stroke="#000000" fill="none" fill-rule="evenodd" /><path d="M-0.001346801,3386.667 L3352800,3388 " stroke-width="10160" stroke-linejoin="round" stroke-miterlimit="13.33333" stroke="#000000" fill="none" fill-rule="evenodd" /></g></g></g><g clip-path="url(#clip010)"><g transform="matrix(0.000656168,0,0,0.000656168,452.6667,279.3333)"><path d="M0,2192528 L477520,2068576 L477520,2068576 L957072,1973072 L957072,1973072 L1436624,1379728 L1436624,1379728 L1914144,699008 L1914144,699008 L2393696,310896 L2393696,310896 L2871216,0 " stroke-width="33866.67" stroke-linecap="round" stroke-linejoin="round" stroke-miterlimit="13.33333" stroke="#e56200" fill="none" fill-rule="nonzero" /></g></g><g><g clip-path="url(#clip011)"><g><g transform="translate(2576.111,1932.587)"><text><tspan x="0" y="0" font-family="Connections Cond Light,Arial Narrow" font-weight="normal" font-style="normal" font-size="94.66666" fill="#000000">0%</tspan></text></g></g></g></g><g><g clip-path="url(#clip012)"><g><g transform="translate(2576.111,1623.945)"><text><tspan x="0" y="0" font-family="Connections Cond Light,Arial Narrow" font-weight="normal" font-style="normal" font-size="94.66666" fill="#000000">5%</tspan></text></g></g></g></g><g><g clip-path="url(#clip013)"><g><g transform="translate(2576.111,1315.304)"><text><tspan x="0" y="0" font-family="Connections Cond Light,Arial Narrow" font-weight="normal" font-style="normal" font-size="94.66666" fill="#000000">10%</tspan></text></g></g></g></g><g><g clip-path="url(#clip014)"><g><g transform="translate(2576.111,1006.662)"><text><tspan x="0" y="0" font-family="Connections Cond Light,Arial Narrow" font-weight="normal" font-style="normal" font-size="94.66666" fill="#000000">15%</tspan></text></g></g></g></g><g><g clip-path="url(#clip015)"><g><g transform="translate(2576.111,698.0201)"><text><tspan x="0" y="0" font-family="Connections Cond Light,Arial Narrow" font-weight="normal" font-style="normal" font-size="94.66666" fill="#000000">20%</tspan></text></g></g></g></g><g><g clip-path="url(#clip016)"><g><g transform="translate(2576.111,389.3788)"><text><tspan x="0" y="0" font-family="Connections Cond Light,Arial Narrow" font-weight="normal" font-style="normal" font-size="94.66666" fill="#000000">25%</tspan></text></g></g></g></g><g><g clip-path="url(#clip017)"><g><g transform="translate(2576.111,80.73666)"><text><tspan x="0" y="0" font-family="Connections Cond Light,Arial Narrow" font-weight="normal" font-style="normal" font-size="94.66666" fill="#000000">30%</tspan></text></g></g></g></g><g><g clip-path="url(#clip018)"><g><g transform="translate(167.8889,1932.587)"><text><tspan x="0" y="0" font-family="Connections Cond Light,Arial Narrow" font-weight="normal" font-style="normal" font-size="94.66666" fill="#000000">0</tspan></text></g></g></g></g><g><g clip-path="url(#clip019)"><g><g transform="translate(77.22222,1778.266)"><text><tspan x="0" y="0" font-family="Connections Cond Light,Arial Narrow" font-weight="normal" font-style="normal" font-size="94.66666" fill="#000000">200</tspan></text></g></g></g></g><g><g clip-path="url(#clip020)"><g><g transform="translate(77.22222,1623.945)"><text><tspan x="0" y="0" font-family="Connections Cond Light,Arial Narrow" font-weight="normal" font-style="normal" font-size="94.66666" fill="#000000">400</tspan></text></g></g></g></g><g><g clip-path="url(#clip021)"><g><g transform="translate(77.22222,1469.625)"><text><tspan x="0" y="0" font-family="Connections Cond Light,Arial Narrow" font-weight="normal" font-style="normal" font-size="94.66666" fill="#000000">600</tspan></text></g></g></g></g><g><g clip-path="url(#clip022)"><g><g transform="translate(77.22222,1315.304)"><text><tspan x="0" y="0" font-family="Connections Cond Light,Arial Narrow" font-weight="normal" font-style="normal" font-size="94.66666" fill="#000000">800</tspan></text></g></g></g></g><g><g clip-path="url(#clip023)"><g><g transform="translate(16.66667,1160.983)"><text><tspan x="0" y="0" font-family="Connections Cond Light,Arial Narrow" font-weight="normal" font-style="normal" font-size="94.66666" fill="#000000">1,000</tspan></text></g></g></g></g><g><g clip-path="url(#clip024)"><g><g transform="translate(16.66667,1006.661)"><text><tspan x="0" y="0" font-family="Connections Cond Light,Arial Narrow" font-weight="normal" font-style="normal" font-size="94.66666" fill="#000000">1,200</tspan></text></g></g></g></g><g><g clip-path="url(#clip025)"><g><g transform="translate(16.66667,852.3412)"><text><tspan x="0" y="0" font-family="Connections Cond Light,Arial Narrow" font-weight="normal" font-style="normal" font-size="94.66666" fill="#000000">1,400</tspan></text></g></g></g></g><g><g clip-path="url(#clip026)"><g><g transform="translate(16.66667,698.0201)"><text><tspan x="0" y="0" font-family="Connections Cond Light,Arial Narrow" font-weight="normal" font-style="normal" font-size="94.66666" fill="#000000">1,600</tspan></text></g></g></g></g><g><g clip-path="url(#clip027)"><g><g transform="translate(16.66667,543.699)"><text><tspan x="0" y="0" font-family="Connections Cond Light,Arial Narrow" font-weight="normal" font-style="normal" font-size="94.66666" fill="#000000">1,800</tspan></text></g></g></g></g><g><g clip-path="url(#clip028)"><g><g transform="translate(16.66667,389.378)"><text><tspan x="0" y="0" font-family="Connections Cond Light,Arial Narrow" font-weight="normal" font-style="normal" font-size="94.66666" fill="#000000">2,000</tspan></text></g></g></g></g><g><g clip-path="url(#clip029)"><g><g transform="translate(16.66667,235.0577)"><text><tspan x="0" y="0" font-family="Connections Cond Light,Arial Narrow" font-weight="normal" font-style="normal" font-size="94.66666" fill="#000000">2,200</tspan></text></g></g></g></g><g><g clip-path="url(#clip030)"><g><g transform="translate(16.66667,80.73666)"><text><tspan x="0" y="0" font-family="Connections Cond Light,Arial Narrow" font-weight="normal" font-style="normal" font-size="94.66666" fill="#000000">2,400</tspan></text></g></g></g></g><g><g clip-path="url(#clip031)"><g><g transform="translate(361.3657,2045.536)"><text><tspan x="0" y="0" font-family="Connections Cond Light,Arial Narrow" font-weight="normal" font-style="normal" font-size="94.66666" fill="#000000">2021</tspan></text></g></g></g></g><g><g clip-path="url(#clip032)"><g><g transform="translate(675.5775,2045.536)"><text><tspan x="0" y="0" font-family="Connections Cond Light,Arial Narrow" font-weight="normal" font-style="normal" font-size="94.66666" fill="#000000">2022</tspan></text></g></g></g></g><g><g clip-path="url(#clip033)"><g><g transform="translate(989.7883,2045.536)"><text><tspan x="0" y="0" font-family="Connections Cond Light,Arial Narrow" font-weight="normal" font-style="normal" font-size="94.66666" fill="#000000">2023</tspan></text></g></g></g></g><g><g clip-path="url(#clip034)"><g><g transform="translate(1304,2045.536)"><text><tspan x="0" y="0" font-family="Connections Cond Light,Arial Narrow" font-weight="normal" font-style="normal" font-size="94.66666" fill="#000000">2024</tspan></text></g></g></g></g><g><g clip-path="url(#clip035)"><g><g transform="translate(1596.573,2045.536)"><text><tspan x="0" y="0" font-family="Connections Cond Light,Arial Narrow" font-weight="normal" font-style="normal" font-size="94.66666" fill="#000000">2025E</tspan></text></g></g></g></g><g><g clip-path="url(#clip036)"><g><g transform="translate(1910.784,2045.536)"><text><tspan x="0" y="0" font-family="Connections Cond Light,Arial Narrow" font-weight="normal" font-style="normal" font-size="94.66666" fill="#000000">2026E</tspan></text></g></g></g></g><g><g clip-path="url(#clip037)"><g><g transform="translate(2224.996,2045.536)"><text><tspan x="0" y="0" font-family="Connections Cond Light,Arial Narrow" font-weight="normal" font-style="normal" font-size="94.66666" fill="#000000">2027E</tspan></text></g></g></g></g><g clip-path="url(#clip038)"><g transform="matrix(0.000656168,0,0,0.000656168,268,66.66666)"><path d="M0,0 L325120,0 L325120,75184 L0,75184 Z" fill="#009cde" fill-rule="evenodd" /><path d="M0,0 L325120,0 L325120,0 L325120,75184 L325120,75184 L0,75184 Z" stroke-width="8466.667" stroke-linejoin="round" stroke-miterlimit="13.33333" stroke="#ffffff" fill="none" fill-rule="evenodd" /></g></g><g><g clip-path="url(#clip039)"><g><g transform="translate(503.1706,118.3675)"><text><tspan x="0" y="0" font-family="Connections Cond Light,Arial Narrow" font-weight="normal" font-style="normal" font-size="94.66666" fill="#000000">Global HBM wafer capacity k wspm (lhs)</tspan></text></g></g></g></g><g clip-path="url(#clip040)"><g transform="matrix(0.000656168,0,0,0.000656168,268,242.6667)"><path d="M0,0 L325120,0 L325120,73152 L0,73152 Z" fill="#012169" fill-rule="evenodd" /><path d="M0,0 L325120,0 L325120,0 L325120,73152 L325120,73152 L0,73152 Z" stroke-width="8466.667" stroke-linejoin="round" stroke-miterlimit="13.33333" stroke="#ffffff" fill="none" fill-rule="evenodd" /></g></g><g><g clip-path="url(#clip041)"><g><g transform="translate(503.1706,293.6632)"><text><tspan x="0" y="0" font-family="Connections Cond Light,Arial Narrow" font-weight="normal" font-style="normal" font-size="94.66666" fill="#000000">non-HBM DRAM capacity k wspm (lhs)</tspan></text></g></g></g></g><g clip-path="url(#clip042)"><g transform="matrix(0.000656168,0,0,0.000656168,267.3333,442)"><path d="M0,0 L325120,1.333333 " stroke-width="33866.67" stroke-linecap="round" stroke-linejoin="round" stroke-miterlimit="13.33333" stroke="#e56200" fill="none" fill-rule="evenodd" /></g></g><g><g clip-path="url(#clip043)"><g><g transform="translate(503.1706,468.9589)"><text><tspan x="0" y="0" font-family="Connections Cond Light,Arial Narrow" font-weight="normal" font-style="normal" font-size="94.66666" fill="#000000">% of global DRAM capacity (rhs)</tspan></text></g></g></g></g><g /></g></g></g></g></g></g></g></g></g></svg>