<?xml version="1.0" encoding="UTF-8" standalone="no"?>
<svg xmlns:dc="http://purl.org/dc/elements/1.1/" xmlns:cc="http://creativecommons.org/ns#" xmlns:rdf="http://www.w3.org/1999/02/22-rdf-syntax-ns#" xmlns:svg="http://www.w3.org/2000/svg" xmlns="http://www.w3.org/2000/svg" viewBox="120.06587 116.36337 921.31075 550.73788" height="550.73788" width="921.31075" xml:space="preserve" version="1.1" id="svg2">
  <metadata id="metadata8">
    <rdf:RDF>
      <cc:Work rdf:about="">
        <dc:format>image/svg+xml</dc:format>
        <dc:type rdf:resource="http://purl.org/dc/dcmitype/StillImage"/>
      </cc:Work>
    </rdf:RDF>
  </metadata>
  <defs id="defs6">
    <clipPath id="clipPath16" clipPathUnits="userSpaceOnUse">
      <path style="clip-rule:evenodd" id="path18" d="m 95.873,92.969 737.31,0 0,440.84 -737.31,0 0,-440.84 z"/>
    </clipPath>
    <clipPath id="clipPath40" clipPathUnits="userSpaceOnUse">
      <path style="clip-rule:evenodd" id="path42" d="m 96.758,93.726 735.66,0 0,439.2 -735.66,0 0,-439.2 z"/>
    </clipPath>
    <clipPath id="clipPath52" clipPathUnits="userSpaceOnUse">
      <path style="clip-rule:evenodd" id="path54" d="m 96.758,93.726 735.66,0 0,439.2 -735.66,0 0,-439.2 z"/>
    </clipPath>
    <clipPath id="clipPath64" clipPathUnits="userSpaceOnUse">
      <path style="clip-rule:evenodd" id="path66" d="m 96.758,93.726 735.66,0 0,439.2 -735.66,0 0,-439.2 z"/>
    </clipPath>
    <clipPath id="clipPath76" clipPathUnits="userSpaceOnUse">
      <path style="clip-rule:evenodd" id="path78" d="m 96.758,93.726 735.66,0 0,439.2 -735.66,0 0,-439.2 z"/>
    </clipPath>
    <clipPath id="clipPath88" clipPathUnits="userSpaceOnUse">
      <path style="clip-rule:evenodd" id="path90" d="m 96.758,93.726 735.66,0 0,439.2 -735.66,0 0,-439.2 z"/>
    </clipPath>
    <clipPath id="clipPath100" clipPathUnits="userSpaceOnUse">
      <path style="clip-rule:evenodd" id="path102" d="m 96.758,93.726 735.66,0 0,439.2 -735.66,0 0,-439.2 z"/>
    </clipPath>
    <clipPath id="clipPath112" clipPathUnits="userSpaceOnUse">
      <path style="clip-rule:evenodd" id="path114" d="m 96.758,93.726 735.66,0 0,439.2 -735.66,0 0,-439.2 z"/>
    </clipPath>
    <clipPath id="clipPath124" clipPathUnits="userSpaceOnUse">
      <path style="clip-rule:evenodd" id="path126" d="m 96.758,93.726 735.66,0 0,439.2 -735.66,0 0,-439.2 z"/>
    </clipPath>
    <clipPath id="clipPath136" clipPathUnits="userSpaceOnUse">
      <path style="clip-rule:evenodd" id="path138" d="m 96.758,93.726 735.66,0 0,439.2 -735.66,0 0,-439.2 z"/>
    </clipPath>
    <clipPath id="clipPath148" clipPathUnits="userSpaceOnUse">
      <path style="clip-rule:evenodd" id="path150" d="m 96.758,93.726 735.66,0 0,439.2 -735.66,0 0,-439.2 z"/>
    </clipPath>
    <clipPath id="clipPath160" clipPathUnits="userSpaceOnUse">
      <path style="clip-rule:evenodd" id="path162" d="m 96.758,93.726 735.66,0 0,439.2 -735.66,0 0,-439.2 z"/>
    </clipPath>
    <clipPath id="clipPath172" clipPathUnits="userSpaceOnUse">
      <path style="clip-rule:evenodd" id="path174" d="m 96.758,93.726 735.66,0 0,439.2 -735.66,0 0,-439.2 z"/>
    </clipPath>
    <clipPath id="clipPath184" clipPathUnits="userSpaceOnUse">
      <path style="clip-rule:evenodd" id="path186" d="m 96.758,93.726 735.66,0 0,439.2 -735.66,0 0,-439.2 z"/>
    </clipPath>
    <clipPath id="clipPath196" clipPathUnits="userSpaceOnUse">
      <path style="clip-rule:evenodd" id="path198" d="m 96.758,93.726 735.66,0 0,439.2 -735.66,0 0,-439.2 z"/>
    </clipPath>
    <clipPath id="clipPath208" clipPathUnits="userSpaceOnUse">
      <path style="clip-rule:evenodd" id="path210" d="m 96.758,93.726 735.66,0 0,439.2 -735.66,0 0,-439.2 z"/>
    </clipPath>
    <clipPath id="clipPath220" clipPathUnits="userSpaceOnUse">
      <path style="clip-rule:evenodd" id="path222" d="m 96.758,93.726 735.66,0 0,439.2 -735.66,0 0,-439.2 z"/>
    </clipPath>
    <clipPath id="clipPath232" clipPathUnits="userSpaceOnUse">
      <path style="clip-rule:evenodd" id="path234" d="m 96.758,93.726 735.66,0 0,439.2 -735.66,0 0,-439.2 z"/>
    </clipPath>
    <clipPath id="clipPath246" clipPathUnits="userSpaceOnUse">
      <path style="clip-rule:evenodd" id="path248" d="m 96.758,93.726 735.66,0 0,439.2 -735.66,0 0,-439.2 z"/>
    </clipPath>
    <clipPath id="clipPath260" clipPathUnits="userSpaceOnUse">
      <path style="clip-rule:evenodd" id="path262" d="m 96.758,93.726 735.66,0 0,439.2 -735.66,0 0,-439.2 z"/>
    </clipPath>
    <clipPath id="clipPath274" clipPathUnits="userSpaceOnUse">
      <path style="clip-rule:evenodd" id="path276" d="m 96.758,93.726 735.66,0 0,439.2 -735.66,0 0,-439.2 z"/>
    </clipPath>
    <clipPath id="clipPath288" clipPathUnits="userSpaceOnUse">
      <path style="clip-rule:evenodd" id="path290" d="m 96.758,93.726 735.66,0 0,439.2 -735.66,0 0,-439.2 z"/>
    </clipPath>
    <clipPath id="clipPath300" clipPathUnits="userSpaceOnUse">
      <path style="clip-rule:evenodd" id="path302" d="m 95.874,92.969 737.3,0 0,440.84 -737.3,0 0,-440.84 z"/>
    </clipPath>
  </defs>
  <g transform="matrix(1.25,0,0,-1.25,0,783.3125)" id="g10">
    <g id="g12">
      <g clip-path="url(#clipPath16)" id="g14">
        <path id="path20" style="fill:none;stroke:#000000;stroke-width:0.14;stroke-linecap:butt;stroke-linejoin:miter;stroke-miterlimit:10;stroke-dasharray:none;stroke-opacity:0" d="m 96.777,93.675 735.6,0 0,439.16 -735.6,0 0,-439.16 z"/>
      </g>
    </g>
    <path id="path22" style="fill:#ffffff;fill-opacity:1;fill-rule:evenodd;stroke:none" d="m 96.777,93.675 735.6,0 0,439.16 -735.6,0 0,-439.16 z"/>
    <path id="path24" style="fill:none;stroke:#d9d9d9;stroke-width:1.44860005;stroke-linecap:butt;stroke-linejoin:round;stroke-miterlimit:10;stroke-dasharray:none;stroke-opacity:1" d="m 223.7,237.47 587.43,0 m -587.43,54.64 587.43,0 M 223.7,347 l 587.43,0 m -587.43,54.89 587.43,0 m -587.43,54.89 587.43,0 m -587.43,54.81 587.43,0"/>
    <path id="path26" style="fill:#000000;fill-opacity:1;fill-rule:nonzero;stroke:none" d="m 243.29,208.2 26.1,0 0,-25.69 -26.1,0 0,25.69 z m 65.37,6.1 26.11,0 0,-31.79 -26.11,0 0,31.79 z m 65.14,8.78 26.1,0 0,-40.57 -26.1,0 0,40.57 z m 65.38,12.2 26.1,0 0,-52.77 -26.1,0 0,52.77 z m 65.13,16.34 26.1,0 0,-69.11 -26.1,0 0,69.11 z m 65.38,19.76 26.1,0 0,-88.87 -26.1,0 0,88.87 z m 65.13,22.93 26.1,0 0,-111.8 -26.1,0 0,111.8 z m 65.38,25.37 26.1,0 0,-137.17 -26.1,0 0,137.17 z m 65.13,27.32 26.11,0 0,-164.49 -26.11,0 0,164.49 z"/>
    <path id="path28" style="fill:#0070c0;fill-opacity:1;fill-rule:nonzero;stroke:none" d="m 243.29,226.01 26.1,0 0,-17.81 -26.1,0 0,17.81 z m 65.37,10.48 26.11,0 0,-22.19 -26.11,0 0,22.19 z m 65.14,10.74 26.1,0 0,-24.15 -26.1,0 0,24.15 z m 65.38,17.81 26.1,0 0,-29.76 -26.1,0 0,29.76 z m 65.13,21.95 26.1,0 0,-35.37 -26.1,0 0,35.37 z m 65.38,25.37 26.1,0 0,-40.98 -26.1,0 0,40.98 z m 65.13,27.81 26.1,0 0,-45.86 -26.1,0 0,45.86 z m 65.38,31.72 26.1,0 0,-52.21 -26.1,0 0,52.21 z m 65.13,35.37 26.11,0 0,-60.26 -26.11,0 0,60.26 z"/>
    <path id="path30" style="fill:#a6caec;fill-opacity:1;fill-rule:nonzero;stroke:none" d="m 243.29,231.86 26.1,0 0,-5.85 -26.1,0 0,5.85 z m 65.37,11.71 26.11,0 0,-7.08 -26.11,0 0,7.08 z m 65.14,11.46 26.1,0 0,-7.8 -26.1,0 0,7.8 z m 65.38,18.79 26.1,0 0,-8.78 -26.1,0 0,8.78 z m 65.13,23.66 26.1,0 0,-10.49 -26.1,0 0,10.49 z m 65.38,27.57 26.1,0 0,-12.69 -26.1,0 0,12.69 z m 65.13,30.74 26.1,0 0,-15.62 -26.1,0 0,15.62 z m 65.38,34.64 26.1,0 0,-18.54 -26.1,0 0,18.54 z m 65.13,38.54 26.11,0 0,-21.71 -26.11,0 0,21.71 z"/>
    <path id="path32" style="fill:#c1e5f5;fill-opacity:1;fill-rule:nonzero;stroke:none" d="m 243.29,236.49 26.1,0 0,-4.63 -26.1,0 0,4.63 z m 65.37,11.96 26.11,0 0,-4.88 -26.11,0 0,4.88 z m 65.14,12.68 26.1,0 0,-6.1 -26.1,0 0,6.1 z m 65.38,21.23 26.1,0 0,-8.54 -26.1,0 0,8.54 z m 65.13,26.59 26.1,0 0,-11.47 -26.1,0 0,11.47 z m 65.38,30.98 26.1,0 0,-14.88 -26.1,0 0,14.88 z m 65.13,34.64 26.1,0 0,-18.78 -26.1,0 0,18.78 z m 65.38,38.54 26.1,0 0,-22.68 -26.1,0 0,22.68 z m 65.13,42.94 26.11,0 0,-27.08 -26.11,0 0,27.08 z"/>
    <path id="path34" style="fill:none;stroke:#d9d9d9;stroke-width:1.44860005;stroke-linecap:butt;stroke-linejoin:round;stroke-miterlimit:10;stroke-dasharray:none;stroke-opacity:1" d="m 223.7,182.51 587.43,0"/>
    <g id="g36">
      <g clip-path="url(#clipPath40)" id="g38"><text id="text44" style="font-variant:normal;font-weight:normal;font-size:17.32600021px;font-family:'Aptos Narrow';-inkscape-font-specification:'Aptos Narrow';writing-mode:lr-tb;fill:#595959;fill-opacity:1;fill-rule:nonzero;stroke:none" transform="matrix(1,0,0,-1,198.86,177.64)"><tspan id="tspan46" y="0" x="0">0</tspan></text>
</g>
    </g>
    <g id="g48">
      <g clip-path="url(#clipPath52)" id="g50"><text id="text56" style="font-variant:normal;font-weight:normal;font-size:17.32600021px;font-family:'Aptos Narrow';-inkscape-font-specification:'Aptos Narrow';writing-mode:lr-tb;fill:#595959;fill-opacity:1;fill-rule:nonzero;stroke:none" transform="matrix(1,0,0,-1,159.12,232.51)"><tspan id="tspan58" y="0" x="0 8.7842817 17.568563 22.17728 30.961561 39.745846">50,000</tspan></text>
</g>
    </g>
    <g id="g60">
      <g clip-path="url(#clipPath64)" id="g62"><text id="text68" style="font-variant:normal;font-weight:normal;font-size:17.32600021px;font-family:'Aptos Narrow';-inkscape-font-specification:'Aptos Narrow';writing-mode:lr-tb;fill:#595959;fill-opacity:1;fill-rule:nonzero;stroke:none" transform="matrix(1,0,0,-1,150.29,287.37)"><tspan id="tspan70" y="0" x="0 8.7842817 17.568563 26.352846 31.030867 39.815147 48.59943">100,000</tspan></text>
</g>
    </g>
    <g id="g72">
      <g clip-path="url(#clipPath76)" id="g74"><text id="text80" style="font-variant:normal;font-weight:normal;font-size:17.32600021px;font-family:'Aptos Narrow';-inkscape-font-specification:'Aptos Narrow';writing-mode:lr-tb;fill:#595959;fill-opacity:1;fill-rule:nonzero;stroke:none" transform="matrix(1,0,0,-1,150.29,342.21)"><tspan id="tspan82" y="0" x="0 8.7842817 17.568563 26.352846 31.030867 39.815147 48.59943">150,000</tspan></text>
</g>
    </g>
    <g id="g84">
      <g clip-path="url(#clipPath88)" id="g86"><text id="text92" style="font-variant:normal;font-weight:normal;font-size:17.32600021px;font-family:'Aptos Narrow';-inkscape-font-specification:'Aptos Narrow';writing-mode:lr-tb;fill:#595959;fill-opacity:1;fill-rule:nonzero;stroke:none" transform="matrix(1,0,0,-1,150.29,397.07)"><tspan id="tspan94" y="0" x="0 8.7842817 17.568563 26.352846 31.030867 39.815147 48.59943">200,000</tspan></text>
</g>
    </g>
    <g id="g96">
      <g clip-path="url(#clipPath100)" id="g98"><text id="text104" style="font-variant:normal;font-weight:normal;font-size:17.32600021px;font-family:'Aptos Narrow';-inkscape-font-specification:'Aptos Narrow';writing-mode:lr-tb;fill:#595959;fill-opacity:1;fill-rule:nonzero;stroke:none" transform="matrix(1,0,0,-1,150.29,451.94)"><tspan id="tspan106" y="0" x="0 8.7842817 17.568563 26.352846 31.030867 39.815147 48.59943">250,000</tspan></text>
</g>
    </g>
    <g id="g108">
      <g clip-path="url(#clipPath112)" id="g110"><text id="text116" style="font-variant:normal;font-weight:normal;font-size:17.32600021px;font-family:'Aptos Narrow';-inkscape-font-specification:'Aptos Narrow';writing-mode:lr-tb;fill:#595959;fill-opacity:1;fill-rule:nonzero;stroke:none" transform="matrix(1,0,0,-1,150.29,506.8)"><tspan id="tspan118" y="0" x="0 8.7842817 17.568563 26.352846 31.030867 39.815147 48.59943">300,000</tspan></text>
</g>
    </g>
    <g id="g120">
      <g clip-path="url(#clipPath124)" id="g122"><text id="text128" style="font-variant:normal;font-weight:normal;font-size:17.32600021px;font-family:'Aptos Narrow';-inkscape-font-specification:'Aptos Narrow';writing-mode:lr-tb;fill:#595959;fill-opacity:1;fill-rule:nonzero;stroke:none" transform="matrix(1,0,0,-1,234.53,155.2)"><tspan id="tspan130" y="0" x="0 8.7787924 17.557585 26.336376 35.11517">2022a</tspan></text>
</g>
    </g>
    <g id="g132">
      <g clip-path="url(#clipPath136)" id="g134"><text id="text140" style="font-variant:normal;font-weight:normal;font-size:17.32600021px;font-family:'Aptos Narrow';-inkscape-font-specification:'Aptos Narrow';writing-mode:lr-tb;fill:#595959;fill-opacity:1;fill-rule:nonzero;stroke:none" transform="matrix(1,0,0,-1,299.79,155.2)"><tspan id="tspan142" y="0" x="0 8.7998819 17.599764 26.399647 35.199528">2023a</tspan></text>
</g>
    </g>
    <g id="g144">
      <g clip-path="url(#clipPath148)" id="g146"><text id="text152" style="font-variant:normal;font-weight:normal;font-size:17.32600021px;font-family:'Aptos Narrow';-inkscape-font-specification:'Aptos Narrow';writing-mode:lr-tb;fill:#595959;fill-opacity:1;fill-rule:nonzero;stroke:none" transform="matrix(1,0,0,-1,365.07,155.2)"><tspan id="tspan154" y="0" x="0 8.7787924 17.557585 26.336376 35.11517">2024a</tspan></text>
</g>
    </g>
    <g id="g156">
      <g clip-path="url(#clipPath160)" id="g158"><text id="text164" style="font-variant:normal;font-weight:normal;font-size:17.32600021px;font-family:'Aptos Narrow';-inkscape-font-specification:'Aptos Narrow';writing-mode:lr-tb;fill:#595959;fill-opacity:1;fill-rule:nonzero;stroke:none" transform="matrix(1,0,0,-1,430.36,155.2)"><tspan id="tspan166" y="0" x="0 8.7998819 17.599764 26.399647 35.199528">2025e</tspan></text>
</g>
    </g>
    <g id="g168">
      <g clip-path="url(#clipPath172)" id="g170"><text id="text176" style="font-variant:normal;font-weight:normal;font-size:17.32600021px;font-family:'Aptos Narrow';-inkscape-font-specification:'Aptos Narrow';writing-mode:lr-tb;fill:#595959;fill-opacity:1;fill-rule:nonzero;stroke:none" transform="matrix(1,0,0,-1,495.64,155.2)"><tspan id="tspan178" y="0" x="0 8.7787924 17.557585 26.336376 35.11517">2026e</tspan></text>
</g>
    </g>
    <g id="g180">
      <g clip-path="url(#clipPath184)" id="g182"><text id="text188" style="font-variant:normal;font-weight:normal;font-size:17.32600021px;font-family:'Aptos Narrow';-inkscape-font-specification:'Aptos Narrow';writing-mode:lr-tb;fill:#595959;fill-opacity:1;fill-rule:nonzero;stroke:none" transform="matrix(1,0,0,-1,560.93,155.2)"><tspan id="tspan190" y="0" x="0 8.7787924 17.557585 26.336376 35.11517">2027e</tspan></text>
</g>
    </g>
    <g id="g192">
      <g clip-path="url(#clipPath196)" id="g194"><text id="text200" style="font-variant:normal;font-weight:normal;font-size:17.32600021px;font-family:'Aptos Narrow';-inkscape-font-specification:'Aptos Narrow';writing-mode:lr-tb;fill:#595959;fill-opacity:1;fill-rule:nonzero;stroke:none" transform="matrix(1,0,0,-1,626.21,155.2)"><tspan id="tspan202" y="0" x="0 8.7787924 17.557585 26.336376 35.11517">2028e</tspan></text>
</g>
    </g>
    <g id="g204">
      <g clip-path="url(#clipPath208)" id="g206"><text id="text212" style="font-variant:normal;font-weight:normal;font-size:17.32600021px;font-family:'Aptos Narrow';-inkscape-font-specification:'Aptos Narrow';writing-mode:lr-tb;fill:#595959;fill-opacity:1;fill-rule:nonzero;stroke:none" transform="matrix(1,0,0,-1,691.47,155.2)"><tspan id="tspan214" y="0" x="0 8.7998819 17.599764 26.399647 35.199528">2029e</tspan></text>
</g>
    </g>
    <g id="g216">
      <g clip-path="url(#clipPath220)" id="g218"><text id="text224" style="font-variant:normal;font-weight:normal;font-size:17.32600021px;font-family:'Aptos Narrow';-inkscape-font-specification:'Aptos Narrow';writing-mode:lr-tb;fill:#595959;fill-opacity:1;fill-rule:nonzero;stroke:none" transform="matrix(1,0,0,-1,756.76,155.2)"><tspan id="tspan226" y="0" x="0 8.7787924 17.557585 26.336376 35.11517">2030e</tspan></text>
</g>
    </g>
    <g id="g228">
      <g clip-path="url(#clipPath232)" id="g230"><text id="text236" style="font-variant:normal;font-weight:normal;font-size:19.2840004px;font-family:'Aptos Narrow';-inkscape-font-specification:'Aptos Narrow';writing-mode:lr-tb;fill:#595959;fill-opacity:1;fill-rule:nonzero;stroke:none" transform="matrix(-4.4e-8,1,1,4.4e-8,138.99,219.79)"><tspan id="tspan238" y="0" x="0 12.457464 17.143476 26.881895 36.890293 46.378021 51.064034 54.670139 66.876915 76.364639 81.97628 91.464012 94.896561 107.10333 116.39822 126.17521 131.78685 141.06245 146.94408 151.07086 160.32718 169.85347 179.86186 189.34959 198.60591 203.02196 208.63359 216.67502 221.78528 224.96715 238.8902">Global Data Center capacity, MW</tspan></text>
</g>
    </g>
    <path id="path240" style="fill:#000000;fill-opacity:1;fill-rule:evenodd;stroke:none" d="m 263.87,118.25 9.548,0 0,9.548 -9.548,0 0,-9.548 z"/>
    <g id="g242">
      <g clip-path="url(#clipPath246)" id="g244"><text id="text250" style="font-variant:normal;font-weight:normal;font-size:17.32600021px;font-family:'Aptos Narrow';-inkscape-font-specification:'Aptos Narrow';writing-mode:lr-tb;fill:#595959;fill-opacity:1;fill-rule:nonzero;stroke:none" transform="matrix(1,0,0,-1,277.49,118.15)"><tspan id="tspan252" y="0" x="0 10.736646">US</tspan></text>
</g>
    </g>
    <path id="path254" style="fill:#0070c0;fill-opacity:1;fill-rule:evenodd;stroke:none" d="m 376.65,118.25 9.548,0 0,9.548 -9.548,0 0,-9.548 z"/>
    <g id="g256">
      <g clip-path="url(#clipPath260)" id="g258"><text id="text264" style="font-variant:normal;font-weight:normal;font-size:17.32600021px;font-family:'Aptos Narrow';-inkscape-font-specification:'Aptos Narrow';writing-mode:lr-tb;fill:#595959;fill-opacity:1;fill-rule:nonzero;stroke:none" transform="matrix(1,0,0,-1,390.29,118.15)"><tspan id="tspan266" y="0" x="0 10.967358 19.75164 23.632664 32.416946">China</tspan></text>
</g>
    </g>
    <path id="path268" style="fill:#a6caec;fill-opacity:1;fill-rule:evenodd;stroke:none" d="m 510.6,118.25 9.548,0 0,9.548 -9.548,0 0,-9.548 z"/>
    <g id="g270">
      <g clip-path="url(#clipPath274)" id="g272"><text id="text278" style="font-variant:normal;font-weight:normal;font-size:17.32600021px;font-family:'Aptos Narrow';-inkscape-font-specification:'Aptos Narrow';writing-mode:lr-tb;fill:#595959;fill-opacity:1;fill-rule:nonzero;stroke:none" transform="matrix(1,0,0,-1,524.27,118.15)"><tspan id="tspan280" y="0" x="0 8.8189344 17.776476 23.130211 31.879841 40.698772">Europe</tspan></text>
</g>
    </g>
    <path id="path282" style="fill:#c1e5f5;fill-opacity:1;fill-rule:evenodd;stroke:none" d="m 652.81,118.25 9.548,0 0,9.548 -9.548,0 0,-9.548 z"/>
    <g id="g284">
      <g clip-path="url(#clipPath288)" id="g286"><text id="text292" style="font-variant:normal;font-weight:normal;font-size:17.32600021px;font-family:'Aptos Narrow';-inkscape-font-specification:'Aptos Narrow';writing-mode:lr-tb;fill:#595959;fill-opacity:1;fill-rule:nonzero;stroke:none" transform="matrix(1,0,0,-1,666.51,118.15)"><tspan id="tspan294" y="0" x="0 11.69505 16.823545 25.607828 33.889656">Other</tspan></text>
</g>
    </g>
    <g id="g296">
      <g clip-path="url(#clipPath300)" id="g298">
        <path id="path304" style="fill:none;stroke:#d9d9d9;stroke-width:1.44860005;stroke-linecap:butt;stroke-linejoin:round;stroke-miterlimit:10;stroke-dasharray:none;stroke-opacity:1" d="m 96.777,93.675 735.6,0 0,439.16 -735.6,0 0,-439.16 z"/>
      </g>
    </g>
  </g>
</svg>
