<?xml version="1.0" encoding="UTF-8" standalone="no"?>
<svg xmlns:dc="http://purl.org/dc/elements/1.1/" xmlns:cc="http://creativecommons.org/ns#" xmlns:rdf="http://www.w3.org/1999/02/22-rdf-syntax-ns#" xmlns:svg="http://www.w3.org/2000/svg" xmlns="http://www.w3.org/2000/svg" viewBox="0.6 -0.6 454 128" height="128" width="454" xml:space="preserve" version="1.1" id="svg2">
  <metadata id="metadata8">
    <rdf:RDF>
      <cc:Work rdf:about="">
        <dc:format>image/svg+xml</dc:format>
        <dc:type rdf:resource="http://purl.org/dc/dcmitype/StillImage"/>
      </cc:Work>
    </rdf:RDF>
  </metadata>
  <defs id="defs6">
    <clipPath id="clipPath16" clipPathUnits="userSpaceOnUse">
      <path style="clip-rule:evenodd" id="path18" d="m 1.92,510.58 361.25,0 0,100.46 -361.25,0 0,-100.46 z"/>
    </clipPath>
    <clipPath id="clipPath206" clipPathUnits="userSpaceOnUse">
      <path style="clip-rule:evenodd" id="path208" d="m 53.04,587.04 309.65,0 0,12.24 -309.65,0 0,-12.24 z"/>
    </clipPath>
    <clipPath id="clipPath218" clipPathUnits="userSpaceOnUse">
      <path style="clip-rule:evenodd" id="path220" d="m 1.92,511.06 51.12,0 0,63.744 -51.12,0 0,-63.744 z"/>
    </clipPath>
    <clipPath id="clipPath230" clipPathUnits="userSpaceOnUse">
      <path style="clip-rule:evenodd" id="path232" d="m 0,508.54 365.21,0 0,104.42 -365.21,0 0,-104.42 z"/>
    </clipPath>
  </defs>
  <g transform="matrix(1.25,0,0,-1.25,0,765)" id="g10">
    <g id="g12">
      <g clip-path="url(#clipPath16)" id="g14"><path id="path20" style="fill:#000000;fill-opacity:1;fill-rule:evenodd;stroke:none" d="m 1.44,599.16 361.37,0 0,12.36 -361.37,0 0,-12.36 z"/><path id="path22" style="fill:#ffffff;fill-opacity:1;fill-rule:evenodd;stroke:none" d="m 1.44,586.92 361.37,0 0,12.36 -361.37,0 0,-12.36 z"/><path id="path24" style="fill:#ffffff;fill-opacity:1;fill-rule:evenodd;stroke:none" d="m 1.44,574.68 51.72,0 0,12.36 -51.72,0 0,-12.36 z"/><path id="path26" style="fill:#d9d9d9;fill-opacity:1;fill-rule:evenodd;stroke:none" d="m 53.04,574.68 309.77,0 0,12.36 -309.77,0 0,-12.36 z"/><path id="path28" style="fill:#d9d9d9;fill-opacity:1;fill-rule:evenodd;stroke:none" d="m 53.04,562.44 51.744,0 0,12.36 -51.744,0 0,-12.36 z"/><path id="path30" style="fill:#ffffff;fill-opacity:1;fill-rule:evenodd;stroke:none" d="m 104.66,562.44 258.14,0 0,12.36 -258.14,0 0,-12.36 z"/><path id="path32" style="fill:#d9d9d9;fill-opacity:1;fill-rule:evenodd;stroke:none" d="m 53.04,549.34 51.744,0 0,13.224 -51.744,0 0,-13.224 z"/><path id="path34" style="fill:#ffffff;fill-opacity:1;fill-rule:evenodd;stroke:none" d="m 104.66,549.34 258.14,0 0,13.224 -258.14,0 0,-13.224 z"/><path id="path36" style="fill:#d9d9d9;fill-opacity:1;fill-rule:evenodd;stroke:none" d="m 53.04,536.26 51.744,0 0,13.2 -51.744,0 0,-13.2 z"/><path id="path38" style="fill:#ffffff;fill-opacity:1;fill-rule:evenodd;stroke:none" d="m 104.66,536.26 103.32,0 0,13.2 -103.32,0 0,-13.2 z"/><path id="path40" style="fill:#ccffff;fill-opacity:1;fill-rule:evenodd;stroke:none" d="m 207.86,536.26 51.72,0 0,13.2 -51.72,0 0,-13.2 z"/><path id="path42" style="fill:#ffffff;fill-opacity:1;fill-rule:evenodd;stroke:none" d="m 259.46,536.26 103.34,0 0,13.2 -103.34,0 0,-13.2 z"/><path id="path44" style="fill:#d9d9d9;fill-opacity:1;fill-rule:evenodd;stroke:none" d="m 53.04,524.02 51.744,0 0,12.36 -51.744,0 0,-12.36 z"/><path id="path46" style="fill:#ffffff;fill-opacity:1;fill-rule:evenodd;stroke:none" d="m 104.66,524.02 258.14,0 0,12.36 -258.14,0 0,-12.36 z"/><path id="path48" style="fill:#d9d9d9;fill-opacity:1;fill-rule:evenodd;stroke:none" d="m 53.04,510.94 51.744,0 0,13.2 -51.744,0 0,-13.2 z"/><path id="path50" style="fill:#ffffff;fill-opacity:1;fill-rule:evenodd;stroke:none" d="m 104.66,510.94 51.72,0 0,13.2 -51.72,0 0,-13.2 z"/><path id="path52" style="fill:#ffffff;fill-opacity:1;fill-rule:evenodd;stroke:none" d="m 259.46,510.94 103.34,0 0,13.2 -103.34,0 0,-13.2 z"/><text id="text54" style="font-variant:normal;font-weight:bold;font-size:8.03999996px;font-family:'Roboto Condensed';-inkscape-font-specification:RobotoCondensed-Bold;writing-mode:lr-tb;fill:#ffffff;fill-opacity:1;fill-rule:nonzero;stroke:none" transform="matrix(1,0,0,-1,3,602.16)"><tspan id="tspan56" y="0" x="0 4.5586801 6.9545999 11.2962 13.668 15.46896 20.0196 24.940081 29.514839 33.341881 35.142841 37.321678 41.277359 43.777802 47.62896 50.258041 54.1092 57.695042 60.203522 62.004478 64.183319 68.139 71.837402 75.801117 81.790916 85.642082 87.426964 92.226837 96.206642 100.14624 104.10996 106.74708 109.25556 113.21124 117.16692 119.193 121.7256 125.31144 127.12848 129.75755 133.82581 137.8056 141.76128 144.39037 146.19131 149.06964 150.87061 154.93884 159.00708 163.09944">U.S. BNPL Interest Income Opportunity ($bn) - 2027</tspan></text>
<text id="text58" style="font-variant:normal;font-weight:normal;font-size:8.03999996px;font-family:'Roboto Condensed';-inkscape-font-specification:RobotoCondensed-Regular;writing-mode:lr-tb;fill:#d9d9d9;fill-opacity:1;fill-rule:nonzero;stroke:none" transform="matrix(1,0,0,-1,73.56,577.68)"><tspan id="tspan60" y="0" x="0 3.97176 7.9435201 11.88312 15.85488 17.993521 21.965281">1191.3%</tspan></text>
<text id="text62" style="font-variant:normal;font-weight:normal;font-size:8.03999996px;font-family:'Roboto Condensed';-inkscape-font-specification:RobotoCondensed-Regular;writing-mode:lr-tb;fill:#0000ff;fill-opacity:1;fill-rule:nonzero;stroke:none" transform="matrix(1,0,0,-1,120.14,577.68)"><tspan id="tspan64" y="0" x="0 3.97176 7.9435201 10.05804 14.0298">30.0%</tspan></text>
<text id="text66" style="font-variant:normal;font-weight:normal;font-size:8.03999996px;font-family:'Roboto Condensed';-inkscape-font-specification:RobotoCondensed-Regular;writing-mode:lr-tb;fill:#0000ff;fill-opacity:1;fill-rule:nonzero;stroke:none" transform="matrix(1,0,0,-1,171.74,577.68)"><tspan id="tspan68" y="0" x="0 3.97176 7.9435201 10.05804 14.0298">40.0%</tspan></text>
<text id="text70" style="font-variant:normal;font-weight:normal;font-size:8.03999996px;font-family:'Roboto Condensed';-inkscape-font-specification:RobotoCondensed-Regular;writing-mode:lr-tb;fill:#0000ff;fill-opacity:1;fill-rule:nonzero;stroke:none" transform="matrix(1,0,0,-1,223.34,577.68)"><tspan id="tspan72" y="0" x="0 3.97176 7.9435201 10.05804 14.0298">50.0%</tspan></text>
<text id="text74" style="font-variant:normal;font-weight:normal;font-size:8.03999996px;font-family:'Roboto Condensed';-inkscape-font-specification:RobotoCondensed-Regular;writing-mode:lr-tb;fill:#0000ff;fill-opacity:1;fill-rule:nonzero;stroke:none" transform="matrix(1,0,0,-1,274.94,577.68)"><tspan id="tspan76" y="0" x="0 3.97176 7.9435201 10.05804 14.0298">60.0%</tspan></text>
<text id="text78" style="font-variant:normal;font-weight:normal;font-size:8.03999996px;font-family:'Roboto Condensed';-inkscape-font-specification:RobotoCondensed-Regular;writing-mode:lr-tb;fill:#0000ff;fill-opacity:1;fill-rule:nonzero;stroke:none" transform="matrix(1,0,0,-1,326.57,577.68)"><tspan id="tspan80" y="0" x="0 3.97176 7.9435201 10.05804 14.0298">70.0%</tspan></text>
<text id="text82" style="font-style:italic;font-variant:normal;font-weight:normal;font-size:8.03999996px;font-family:'Roboto Condensed';-inkscape-font-specification:RobotoCondensed-Italic;writing-mode:lr-tb;fill:#0000ff;fill-opacity:1;fill-rule:nonzero;stroke:none" transform="matrix(1,0,0,-1,68.04,565.44)"><tspan id="tspan84" y="0" x="0 3.8399601 7.6799202 9.7189198 13.55888">15.0%</tspan></text>
<text id="text86" style="font-variant:normal;font-weight:normal;font-size:8.03999996px;font-family:'Roboto Condensed';-inkscape-font-specification:RobotoCondensed-Regular;writing-mode:lr-tb;fill:#000000;fill-opacity:1;fill-rule:nonzero;stroke:none" transform="matrix(1,0,0,-1,124.58,565.44)"><tspan id="tspan88" y="0" x="0 3.97176 6.1104002">4.3</tspan></text>
<text id="text90" style="font-variant:normal;font-weight:normal;font-size:8.03999996px;font-family:'Roboto Condensed';-inkscape-font-specification:RobotoCondensed-Regular;writing-mode:lr-tb;fill:#000000;fill-opacity:1;fill-rule:nonzero;stroke:none" transform="matrix(1,0,0,-1,176.18,565.44)"><tspan id="tspan92" y="0" x="0 3.97176 6.1104002">5.7</tspan></text>
<text id="text94" style="font-variant:normal;font-weight:normal;font-size:8.03999996px;font-family:'Roboto Condensed';-inkscape-font-specification:RobotoCondensed-Regular;writing-mode:lr-tb;fill:#000000;fill-opacity:1;fill-rule:nonzero;stroke:none" transform="matrix(1,0,0,-1,227.78,565.44)"><tspan id="tspan96" y="0" x="0 3.97176 6.1104002">7.1</tspan></text>
<text id="text98" style="font-variant:normal;font-weight:normal;font-size:8.03999996px;font-family:'Roboto Condensed';-inkscape-font-specification:RobotoCondensed-Regular;writing-mode:lr-tb;fill:#000000;fill-opacity:1;fill-rule:nonzero;stroke:none" transform="matrix(1,0,0,-1,279.38,565.44)"><tspan id="tspan100" y="0" x="0 3.97176 6.1104002">8.6</tspan></text>
<text id="text102" style="font-variant:normal;font-weight:normal;font-size:8.03999996px;font-family:'Roboto Condensed';-inkscape-font-specification:RobotoCondensed-Regular;writing-mode:lr-tb;fill:#000000;fill-opacity:1;fill-rule:nonzero;stroke:none" transform="matrix(1,0,0,-1,329.09,565.44)"><tspan id="tspan104" y="0" x="0 3.97176 7.9435201 10.05804">10.0</tspan></text>
<text id="text106" style="font-style:italic;font-variant:normal;font-weight:normal;font-size:8.03999996px;font-family:'Roboto Condensed';-inkscape-font-specification:RobotoCondensed-Italic;writing-mode:lr-tb;fill:#0000ff;fill-opacity:1;fill-rule:nonzero;stroke:none" transform="matrix(1,0,0,-1,68.04,553.32)"><tspan id="tspan108" y="0" x="0 3.8399601 7.6799202 9.7189198 13.55888">20.0%</tspan></text>
<text id="text110" style="font-variant:normal;font-weight:normal;font-size:8.03999996px;font-family:'Roboto Condensed';-inkscape-font-specification:RobotoCondensed-Regular;writing-mode:lr-tb;fill:#000000;fill-opacity:1;fill-rule:nonzero;stroke:none" transform="matrix(1,0,0,-1,124.58,553.32)"><tspan id="tspan112" y="0" x="0 3.97176 6.1104002">5.7</tspan></text>
<text id="text114" style="font-variant:normal;font-weight:normal;font-size:8.03999996px;font-family:'Roboto Condensed';-inkscape-font-specification:RobotoCondensed-Regular;writing-mode:lr-tb;fill:#000000;fill-opacity:1;fill-rule:nonzero;stroke:none" transform="matrix(1,0,0,-1,176.18,553.32)"><tspan id="tspan116" y="0" x="0 3.97176 6.1104002">7.6</tspan></text>
<text id="text118" style="font-variant:normal;font-weight:normal;font-size:8.03999996px;font-family:'Roboto Condensed';-inkscape-font-specification:RobotoCondensed-Regular;writing-mode:lr-tb;fill:#000000;fill-opacity:1;fill-rule:nonzero;stroke:none" transform="matrix(1,0,0,-1,227.78,553.32)"><tspan id="tspan120" y="0" x="0 3.97176 6.1104002">9.5</tspan></text>
<text id="text122" style="font-variant:normal;font-weight:normal;font-size:8.03999996px;font-family:'Roboto Condensed';-inkscape-font-specification:RobotoCondensed-Regular;writing-mode:lr-tb;fill:#000000;fill-opacity:1;fill-rule:nonzero;stroke:none" transform="matrix(1,0,0,-1,277.46,553.32)"><tspan id="tspan124" y="0" x="0 3.97176 7.9435201 10.05804">11.4</tspan></text>
<text id="text126" style="font-variant:normal;font-weight:normal;font-size:8.03999996px;font-family:'Roboto Condensed';-inkscape-font-specification:RobotoCondensed-Regular;writing-mode:lr-tb;fill:#000000;fill-opacity:1;fill-rule:nonzero;stroke:none" transform="matrix(1,0,0,-1,329.09,553.32)"><tspan id="tspan128" y="0" x="0 3.97176 7.9435201 10.05804">13.3</tspan></text>
<text id="text130" style="font-style:italic;font-variant:normal;font-weight:normal;font-size:8.03999996px;font-family:'Roboto Condensed';-inkscape-font-specification:RobotoCondensed-Italic;writing-mode:lr-tb;fill:#0000ff;fill-opacity:1;fill-rule:nonzero;stroke:none" transform="matrix(1,0,0,-1,68.04,540.22)"><tspan id="tspan132" y="0" x="0 3.8399601 7.6799202 9.7189198 13.55888">25.0%</tspan></text>
<text id="text134" style="font-variant:normal;font-weight:normal;font-size:8.03999996px;font-family:'Roboto Condensed';-inkscape-font-specification:RobotoCondensed-Regular;writing-mode:lr-tb;fill:#000000;fill-opacity:1;fill-rule:nonzero;stroke:none" transform="matrix(1,0,0,-1,124.58,540.22)"><tspan id="tspan136" y="0" x="0 3.97176 6.1104002">7.1</tspan></text>
<text id="text138" style="font-variant:normal;font-weight:normal;font-size:8.03999996px;font-family:'Roboto Condensed';-inkscape-font-specification:RobotoCondensed-Regular;writing-mode:lr-tb;fill:#000000;fill-opacity:1;fill-rule:nonzero;stroke:none" transform="matrix(1,0,0,-1,176.18,540.22)"><tspan id="tspan140" y="0" x="0 3.97176 6.1104002">9.5</tspan></text>
<text id="text142" style="font-variant:normal;font-weight:bold;font-size:8.03999996px;font-family:'Roboto Condensed';-inkscape-font-specification:RobotoCondensed-Bold;writing-mode:lr-tb;fill:#000000;fill-opacity:1;fill-rule:nonzero;stroke:none" transform="matrix(1,0,0,-1,225.5,540.22)"><tspan id="tspan144" y="0" x="0 4.0682402 8.1364803 10.54848">11.9</tspan></text>
<text id="text146" style="font-variant:normal;font-weight:normal;font-size:8.03999996px;font-family:'Roboto Condensed';-inkscape-font-specification:RobotoCondensed-Regular;writing-mode:lr-tb;fill:#000000;fill-opacity:1;fill-rule:nonzero;stroke:none" transform="matrix(1,0,0,-1,277.46,540.22)"><tspan id="tspan148" y="0" x="0 3.97176 7.9435201 10.05804">14.3</tspan></text>
<text id="text150" style="font-variant:normal;font-weight:normal;font-size:8.03999996px;font-family:'Roboto Condensed';-inkscape-font-specification:RobotoCondensed-Regular;writing-mode:lr-tb;fill:#000000;fill-opacity:1;fill-rule:nonzero;stroke:none" transform="matrix(1,0,0,-1,329.09,540.22)"><tspan id="tspan152" y="0" x="0 3.97176 7.9435201 10.05804">16.7</tspan></text>
<text id="text154" style="font-style:italic;font-variant:normal;font-weight:normal;font-size:8.03999996px;font-family:'Roboto Condensed';-inkscape-font-specification:RobotoCondensed-Italic;writing-mode:lr-tb;fill:#0000ff;fill-opacity:1;fill-rule:nonzero;stroke:none" transform="matrix(1,0,0,-1,68.04,527.02)"><tspan id="tspan156" y="0" x="0 3.8399601 7.6799202 9.7189198 13.55888">30.0%</tspan></text>
<text id="text158" style="font-variant:normal;font-weight:normal;font-size:8.03999996px;font-family:'Roboto Condensed';-inkscape-font-specification:RobotoCondensed-Regular;writing-mode:lr-tb;fill:#000000;fill-opacity:1;fill-rule:nonzero;stroke:none" transform="matrix(1,0,0,-1,124.58,527.02)"><tspan id="tspan160" y="0" x="0 3.97176 6.1104002">8.6</tspan></text>
<text id="text162" style="font-variant:normal;font-weight:normal;font-size:8.03999996px;font-family:'Roboto Condensed';-inkscape-font-specification:RobotoCondensed-Regular;writing-mode:lr-tb;fill:#000000;fill-opacity:1;fill-rule:nonzero;stroke:none" transform="matrix(1,0,0,-1,174.26,527.02)"><tspan id="tspan164" y="0" x="0 3.97176 7.9435201 10.05804">11.4</tspan></text>
<text id="text166" style="font-variant:normal;font-weight:normal;font-size:8.03999996px;font-family:'Roboto Condensed';-inkscape-font-specification:RobotoCondensed-Regular;writing-mode:lr-tb;fill:#000000;fill-opacity:1;fill-rule:nonzero;stroke:none" transform="matrix(1,0,0,-1,225.86,527.02)"><tspan id="tspan168" y="0" x="0 3.97176 7.9435201 10.05804">14.3</tspan></text>
<text id="text170" style="font-variant:normal;font-weight:normal;font-size:8.03999996px;font-family:'Roboto Condensed';-inkscape-font-specification:RobotoCondensed-Regular;writing-mode:lr-tb;fill:#000000;fill-opacity:1;fill-rule:nonzero;stroke:none" transform="matrix(1,0,0,-1,277.46,527.02)"><tspan id="tspan172" y="0" x="0 3.97176 7.9435201 10.05804">17.2</tspan></text>
<text id="text174" style="font-variant:normal;font-weight:normal;font-size:8.03999996px;font-family:'Roboto Condensed';-inkscape-font-specification:RobotoCondensed-Regular;writing-mode:lr-tb;fill:#000000;fill-opacity:1;fill-rule:nonzero;stroke:none" transform="matrix(1,0,0,-1,329.09,527.02)"><tspan id="tspan176" y="0" x="0 3.97176 7.9435201 10.05804">20.0</tspan></text>
<text id="text178" style="font-style:italic;font-variant:normal;font-weight:normal;font-size:8.03999996px;font-family:'Roboto Condensed';-inkscape-font-specification:RobotoCondensed-Italic;writing-mode:lr-tb;fill:#0000ff;fill-opacity:1;fill-rule:nonzero;stroke:none" transform="matrix(1,0,0,-1,68.04,514.9)"><tspan id="tspan180" y="0" x="0 3.8399601 7.6799202 9.7189198 13.55888">35.0%</tspan></text>
<text id="text182" style="font-variant:normal;font-weight:normal;font-size:8.03999996px;font-family:'Roboto Condensed';-inkscape-font-specification:RobotoCondensed-Regular;writing-mode:lr-tb;fill:#000000;fill-opacity:1;fill-rule:nonzero;stroke:none" transform="matrix(1,0,0,-1,122.66,514.9)"><tspan id="tspan184" y="0" x="0 3.97176 7.9435201 10.05804">10.0</tspan></text>
<text id="text186" style="font-variant:normal;font-weight:normal;font-size:8.03999996px;font-family:'Roboto Condensed';-inkscape-font-specification:RobotoCondensed-Regular;writing-mode:lr-tb;fill:#000000;fill-opacity:1;fill-rule:nonzero;stroke:none" transform="matrix(1,0,0,-1,174.26,514.9)"><tspan id="tspan188" y="0" x="0 3.97176 7.9435201 10.05804">13.3</tspan></text>
<text id="text190" style="font-variant:normal;font-weight:normal;font-size:8.03999996px;font-family:'Roboto Condensed';-inkscape-font-specification:RobotoCondensed-Regular;writing-mode:lr-tb;fill:#000000;fill-opacity:1;fill-rule:nonzero;stroke:none" transform="matrix(1,0,0,-1,225.86,514.9)"><tspan id="tspan192" y="0" x="0 3.97176 7.9435201 10.05804">16.7</tspan></text>
<text id="text194" style="font-variant:normal;font-weight:normal;font-size:8.03999996px;font-family:'Roboto Condensed';-inkscape-font-specification:RobotoCondensed-Regular;writing-mode:lr-tb;fill:#000000;fill-opacity:1;fill-rule:nonzero;stroke:none" transform="matrix(1,0,0,-1,277.46,514.9)"><tspan id="tspan196" y="0" x="0 3.97176 7.9435201 10.05804">20.0</tspan></text>
<text id="text198" style="font-variant:normal;font-weight:normal;font-size:8.03999996px;font-family:'Roboto Condensed';-inkscape-font-specification:RobotoCondensed-Regular;writing-mode:lr-tb;fill:#000000;fill-opacity:1;fill-rule:nonzero;stroke:none" transform="matrix(1,0,0,-1,329.09,514.9)"><tspan id="tspan200" y="0" x="0 3.97176 7.9435201 10.05804">23.3</tspan></text>
</g>
    </g>
    <g id="g202">
      <g clip-path="url(#clipPath206)" id="g204"><text id="text210" style="font-variant:normal;font-weight:bold;font-size:8.03999996px;font-family:'Roboto Condensed';-inkscape-font-specification:RobotoCondensed-Bold;writing-mode:lr-tb;fill:#000000;fill-opacity:1;fill-rule:nonzero;stroke:none" transform="matrix(1,0,0,-1,157.94,589.92)"><tspan id="tspan212" y="0" x="0 4.3415999 8.2972803 12.10824 14.74536 18.596519 20.381399 24.345119 26.982241 28.783199 30.80928 34.764961 37.297562 41.14872 43.777802 47.62896 51.214802 53.723282 56.601601 60.581402 64.400398 68.235481 70.872597 72.898682 76.854362 80.946716 82.747681 87.298317 92.218803 96.793556">Share of interest-bearing BNPL</tspan></text>
</g>
    </g>
    <g id="g214">
      <g clip-path="url(#clipPath218)" id="g216"><text id="text222" style="font-variant:normal;font-weight:bold;font-size:8.03999996px;font-family:'Roboto Condensed';-inkscape-font-specification:RobotoCondensed-Bold;writing-mode:lr-tb;fill:#000000;fill-opacity:1;fill-rule:nonzero;stroke:none" transform="matrix(-4.4e-8,1,1,4.4e-8,29.76,532.66)"><tspan id="tspan224" y="0" x="0 5.1375599 6.9626398 11.76252 16.33728">% APR</tspan></text>
</g>
    </g>
    <g id="g226">
      <g clip-path="url(#clipPath230)" id="g228">
        <path id="path234" style="fill:#000000;fill-opacity:1;fill-rule:evenodd;stroke:none" d="m 206.9,535.42 1.92,0 0,15 -1.92,0 0,-15 z"/>
        <path id="path236" style="fill:#000000;fill-opacity:1;fill-rule:evenodd;stroke:none" d="m 0.48,510.1 1.92,0 0,102.38 -1.92,0 0,-102.38 z"/>
        <path id="path238" style="fill:#000000;fill-opacity:1;fill-rule:evenodd;stroke:none" d="m 361.73,510.1 1.92,0 0,100.46 -1.92,0 0,-100.46 z"/>
        <path id="path240" style="fill:none;stroke:#000000;stroke-width:0.14;stroke-linecap:square;stroke-linejoin:round;stroke-miterlimit:10;stroke-dasharray:none;stroke-opacity:1" d="m 52.62,587.46 0,-75.38"/>
        <path id="path242" style="fill:#000000;fill-opacity:1;fill-rule:evenodd;stroke:none" d="m 52.56,512.02 0.96,0 0,75.504 -0.96,0 0,-75.504 z"/>
        <path id="path244" style="fill:none;stroke:#000000;stroke-width:0.14;stroke-linecap:square;stroke-linejoin:round;stroke-miterlimit:10;stroke-dasharray:none;stroke-opacity:1" d="m 104.24,575.22 0,-63.14"/>
        <path id="path246" style="fill:#000000;fill-opacity:1;fill-rule:evenodd;stroke:none" d="m 104.18,512.02 0.96,0 0,63.264 -0.96,0 0,-63.264 z"/>
        <path id="path248" style="fill:#ffffff;fill-opacity:1;fill-rule:evenodd;stroke:none" d="m 206.9,512.02 1.92,0 0,12.12 -1.92,0 0,-12.12 z"/>
        <path id="path250" style="fill:#000000;fill-opacity:1;fill-rule:evenodd;stroke:none" d="m 258.5,535.42 1.92,0 0,13.08 -1.92,0 0,-13.08 z"/>
        <path id="path252" style="fill:#000000;fill-opacity:1;fill-rule:evenodd;stroke:none" d="m 2.4,610.56 361.25,0 0,1.92 -361.25,0 0,-1.92 z"/>
        <path id="path254" style="fill:none;stroke:#000000;stroke-width:0.14;stroke-linecap:square;stroke-linejoin:round;stroke-miterlimit:10;stroke-dasharray:none;stroke-opacity:1" d="m 53.58,587.46 308.09,0"/>
        <path id="path256" style="fill:#000000;fill-opacity:1;fill-rule:evenodd;stroke:none" d="m 53.52,586.56 308.21,0 0,0.96 -308.21,0 0,-0.96 z"/>
        <path id="path258" style="fill:none;stroke:#000000;stroke-width:0.14;stroke-linecap:square;stroke-linejoin:round;stroke-miterlimit:10;stroke-dasharray:none;stroke-opacity:1" d="m 105.2,575.22 256.47,0"/>
        <path id="path260" style="fill:#000000;fill-opacity:1;fill-rule:evenodd;stroke:none" d="m 105.14,574.32 256.58,0 0,0.96 -256.58,0 0,-0.96 z"/>
        <path id="path262" style="fill:#000000;fill-opacity:1;fill-rule:evenodd;stroke:none" d="m 208.82,548.5 51.6,0 0,1.92 -51.6,0 0,-1.92 z"/>
        <path id="path264" style="fill:#000000;fill-opacity:1;fill-rule:evenodd;stroke:none" d="m 208.82,535.42 51.6,0 0,1.92 -51.6,0 0,-1.92 z"/>
        <path id="path266" style="fill:#000000;fill-opacity:1;fill-rule:evenodd;stroke:none" d="m 2.4,510.1 361.25,0 0,1.92 -361.25,0 0,-1.92 z"/>
      </g>
    </g>
  </g>
</svg>
