<?xml version="1.0" encoding="UTF-8" standalone="no"?>
<svg xmlns:dc="http://purl.org/dc/elements/1.1/" xmlns:cc="http://creativecommons.org/ns#" xmlns:rdf="http://www.w3.org/1999/02/22-rdf-syntax-ns#" xmlns:svg="http://www.w3.org/2000/svg" xmlns="http://www.w3.org/2000/svg" viewBox="15.6 15.8625 315.28181 260.06875" height="260.06875" width="315.28181" xml:space="preserve" version="1.1" id="svg2">
  <metadata id="metadata8">
    <rdf:RDF>
      <cc:Work rdf:about="">
        <dc:format>image/svg+xml</dc:format>
        <dc:type rdf:resource="http://purl.org/dc/dcmitype/StillImage"/>
      </cc:Work>
    </rdf:RDF>
  </metadata>
  <defs id="defs6">
    <clipPath id="clipPath16" clipPathUnits="userSpaceOnUse">
      <path style="clip-rule:evenodd" id="path18" d="m 13.44,567.48 260.66,0 0,32.04 -260.66,0 0,-32.04 z"/>
    </clipPath>
    <clipPath id="clipPath28" clipPathUnits="userSpaceOnUse">
      <path style="clip-rule:evenodd" id="path30" d="m 13.44,549.46 260.66,0 0,17.064 -260.66,0 0,-17.064 z"/>
    </clipPath>
    <clipPath id="clipPath40" clipPathUnits="userSpaceOnUse">
      <path style="clip-rule:evenodd" id="path42" d="m 13.44,549.46 260.66,0 0,17.064 -260.66,0 0,-17.064 z"/>
    </clipPath>
    <clipPath id="clipPath52" clipPathUnits="userSpaceOnUse">
      <path style="clip-rule:evenodd" id="path54" d="m 13.44,529.06 260.66,0 0,9.24 -260.66,0 0,-9.24 z"/>
    </clipPath>
    <clipPath id="clipPath64" clipPathUnits="userSpaceOnUse">
      <path style="clip-rule:evenodd" id="path66" d="m 13.44,518.86 260.66,0 0,9.24 -260.66,0 0,-9.24 z"/>
    </clipPath>
    <clipPath id="clipPath76" clipPathUnits="userSpaceOnUse">
      <path style="clip-rule:evenodd" id="path78" d="m 13.44,461.26 260.66,0 0,13.44 -260.66,0 0,-13.44 z"/>
    </clipPath>
    <clipPath id="clipPath88" clipPathUnits="userSpaceOnUse">
      <path style="clip-rule:evenodd" id="path90" d="m 13.44,446.86 260.66,0 0,13.44 -260.66,0 0,-13.44 z"/>
    </clipPath>
    <clipPath id="clipPath100" clipPathUnits="userSpaceOnUse">
      <path style="clip-rule:evenodd" id="path102" d="m 12.48,388.32 261.6,0 0,212.16 -261.6,0 0,-212.16 z"/>
    </clipPath>
    <clipPath id="clipPath110" clipPathUnits="userSpaceOnUse">
      <path style="clip-rule:evenodd" id="path112" d="m 12.48,388.32 261.6,0 0,212.16 -261.6,0 0,-212.16 z"/>
    </clipPath>
    <clipPath id="clipPath148" clipPathUnits="userSpaceOnUse">
      <path style="clip-rule:evenodd" id="path150" d="m 19.32,453.48 213.72,0 0,122.52 -213.72,0 0,-122.52 z"/>
    </clipPath>
    <clipPath id="clipPath164" clipPathUnits="userSpaceOnUse">
      <path style="clip-rule:evenodd" id="path166" d="m 12.48,388.32 261.6,0 0,212.16 -261.6,0 0,-212.16 z"/>
    </clipPath>
    <clipPath id="clipPath176" clipPathUnits="userSpaceOnUse">
      <path style="clip-rule:evenodd" id="path178" d="m 12.48,388.32 261.6,0 0,212.16 -261.6,0 0,-212.16 z"/>
    </clipPath>
    <clipPath id="clipPath188" clipPathUnits="userSpaceOnUse">
      <path style="clip-rule:evenodd" id="path190" d="m 12.48,388.32 261.6,0 0,212.16 -261.6,0 0,-212.16 z"/>
    </clipPath>
    <clipPath id="clipPath200" clipPathUnits="userSpaceOnUse">
      <path style="clip-rule:evenodd" id="path202" d="m 12.48,388.32 261.6,0 0,212.16 -261.6,0 0,-212.16 z"/>
    </clipPath>
    <clipPath id="clipPath212" clipPathUnits="userSpaceOnUse">
      <path style="clip-rule:evenodd" id="path214" d="m 12.48,388.32 261.6,0 0,212.16 -261.6,0 0,-212.16 z"/>
    </clipPath>
    <clipPath id="clipPath224" clipPathUnits="userSpaceOnUse">
      <path style="clip-rule:evenodd" id="path226" d="m 12.48,388.32 261.6,0 0,212.16 -261.6,0 0,-212.16 z"/>
    </clipPath>
    <clipPath id="clipPath236" clipPathUnits="userSpaceOnUse">
      <path style="clip-rule:evenodd" id="path238" d="m 12.48,388.32 261.6,0 0,212.16 -261.6,0 0,-212.16 z"/>
    </clipPath>
    <clipPath id="clipPath250" clipPathUnits="userSpaceOnUse">
      <path style="clip-rule:evenodd" id="path252" d="m 12.48,388.32 261.6,0 0,212.16 -261.6,0 0,-212.16 z"/>
    </clipPath>
    <clipPath id="clipPath264" clipPathUnits="userSpaceOnUse">
      <path style="clip-rule:evenodd" id="path266" d="m 12.48,388.32 261.6,0 0,212.16 -261.6,0 0,-212.16 z"/>
    </clipPath>
    <clipPath id="clipPath276" clipPathUnits="userSpaceOnUse">
      <path style="clip-rule:evenodd" id="path278" d="m 12.48,388.32 261.6,0 0,212.16 -261.6,0 0,-212.16 z"/>
    </clipPath>
    <clipPath id="clipPath288" clipPathUnits="userSpaceOnUse">
      <path style="clip-rule:evenodd" id="path290" d="m 12.48,388.32 261.6,0 0,212.16 -261.6,0 0,-212.16 z"/>
    </clipPath>
    <clipPath id="clipPath300" clipPathUnits="userSpaceOnUse">
      <path style="clip-rule:evenodd" id="path302" d="m 12.48,388.32 261.6,0 0,212.16 -261.6,0 0,-212.16 z"/>
    </clipPath>
    <clipPath id="clipPath312" clipPathUnits="userSpaceOnUse">
      <path style="clip-rule:evenodd" id="path314" d="m 12.48,388.32 261.6,0 0,212.16 -261.6,0 0,-212.16 z"/>
    </clipPath>
    <clipPath id="clipPath324" clipPathUnits="userSpaceOnUse">
      <path style="clip-rule:evenodd" id="path326" d="m 12.48,388.32 261.6,0 0,212.16 -261.6,0 0,-212.16 z"/>
    </clipPath>
    <clipPath id="clipPath336" clipPathUnits="userSpaceOnUse">
      <path style="clip-rule:evenodd" id="path338" d="m 12.48,388.32 261.6,0 0,212.16 -261.6,0 0,-212.16 z"/>
    </clipPath>
    <clipPath id="clipPath348" clipPathUnits="userSpaceOnUse">
      <path style="clip-rule:evenodd" id="path350" d="m 12.48,388.32 261.6,0 0,212.16 -261.6,0 0,-212.16 z"/>
    </clipPath>
    <clipPath id="clipPath360" clipPathUnits="userSpaceOnUse">
      <path style="clip-rule:evenodd" id="path362" d="m 12.48,388.32 261.6,0 0,212.16 -261.6,0 0,-212.16 z"/>
    </clipPath>
    <clipPath id="clipPath376" clipPathUnits="userSpaceOnUse">
      <path style="clip-rule:evenodd" id="path378" d="m 12.48,388.32 261.6,0 0,212.16 -261.6,0 0,-212.16 z"/>
    </clipPath>
    <clipPath id="clipPath416" clipPathUnits="userSpaceOnUse">
      <path style="clip-rule:evenodd" id="path418" d="m 12.48,388.32 261.6,0 0,212.16 -261.6,0 0,-212.16 z"/>
    </clipPath>
    <clipPath id="clipPath428" clipPathUnits="userSpaceOnUse">
      <path style="clip-rule:evenodd" id="path430" d="m 12.48,388.32 261.6,0 0,212.16 -261.6,0 0,-212.16 z"/>
    </clipPath>
    <clipPath id="clipPath440" clipPathUnits="userSpaceOnUse">
      <path style="clip-rule:evenodd" id="path442" d="m 12.48,388.32 261.6,0 0,212.16 -261.6,0 0,-212.16 z"/>
    </clipPath>
    <clipPath id="clipPath452" clipPathUnits="userSpaceOnUse">
      <path style="clip-rule:evenodd" id="path454" d="m 12.48,388.32 261.6,0 0,212.16 -261.6,0 0,-212.16 z"/>
    </clipPath>
    <clipPath id="clipPath464" clipPathUnits="userSpaceOnUse">
      <path style="clip-rule:evenodd" id="path466" d="m 12.48,388.32 261.6,0 0,212.16 -261.6,0 0,-212.16 z"/>
    </clipPath>
    <clipPath id="clipPath476" clipPathUnits="userSpaceOnUse">
      <path style="clip-rule:evenodd" id="path478" d="m 12.48,388.32 261.6,0 0,212.16 -261.6,0 0,-212.16 z"/>
    </clipPath>
    <clipPath id="clipPath488" clipPathUnits="userSpaceOnUse">
      <path style="clip-rule:evenodd" id="path490" d="m 12.48,388.32 261.6,0 0,212.16 -261.6,0 0,-212.16 z"/>
    </clipPath>
    <clipPath id="clipPath500" clipPathUnits="userSpaceOnUse">
      <path style="clip-rule:evenodd" id="path502" d="m 12.48,388.32 261.6,0 0,212.16 -261.6,0 0,-212.16 z"/>
    </clipPath>
    <clipPath id="clipPath512" clipPathUnits="userSpaceOnUse">
      <path style="clip-rule:evenodd" id="path514" d="m 12.48,388.32 261.6,0 0,212.16 -261.6,0 0,-212.16 z"/>
    </clipPath>
    <clipPath id="clipPath524" clipPathUnits="userSpaceOnUse">
      <path style="clip-rule:evenodd" id="path526" d="m 12.48,388.32 261.6,0 0,212.16 -261.6,0 0,-212.16 z"/>
    </clipPath>
    <clipPath id="clipPath536" clipPathUnits="userSpaceOnUse">
      <path style="clip-rule:evenodd" id="path538" d="m 12.48,388.32 261.6,0 0,212.16 -261.6,0 0,-212.16 z"/>
    </clipPath>
    <clipPath id="clipPath548" clipPathUnits="userSpaceOnUse">
      <path style="clip-rule:evenodd" id="path550" d="m 12.48,388.32 261.6,0 0,212.16 -261.6,0 0,-212.16 z"/>
    </clipPath>
    <clipPath id="clipPath560" clipPathUnits="userSpaceOnUse">
      <path style="clip-rule:evenodd" id="path562" d="m 12.48,388.32 261.6,0 0,212.16 -261.6,0 0,-212.16 z"/>
    </clipPath>
    <clipPath id="clipPath572" clipPathUnits="userSpaceOnUse">
      <path style="clip-rule:evenodd" id="path574" d="m 12.48,388.32 261.6,0 0,212.16 -261.6,0 0,-212.16 z"/>
    </clipPath>
    <clipPath id="clipPath584" clipPathUnits="userSpaceOnUse">
      <path style="clip-rule:evenodd" id="path586" d="m 12.48,388.32 261.6,0 0,212.16 -261.6,0 0,-212.16 z"/>
    </clipPath>
    <clipPath id="clipPath596" clipPathUnits="userSpaceOnUse">
      <path style="clip-rule:evenodd" id="path598" d="m 12.48,388.32 261.6,0 0,212.16 -261.6,0 0,-212.16 z"/>
    </clipPath>
    <clipPath id="clipPath608" clipPathUnits="userSpaceOnUse">
      <path style="clip-rule:evenodd" id="path610" d="m 12.48,388.32 261.6,0 0,212.16 -261.6,0 0,-212.16 z"/>
    </clipPath>
    <clipPath id="clipPath620" clipPathUnits="userSpaceOnUse">
      <path style="clip-rule:evenodd" id="path622" d="m 12.48,388.32 261.6,0 0,212.16 -261.6,0 0,-212.16 z"/>
    </clipPath>
    <clipPath id="clipPath632" clipPathUnits="userSpaceOnUse">
      <path style="clip-rule:evenodd" id="path634" d="m 12.48,388.32 261.6,0 0,212.16 -261.6,0 0,-212.16 z"/>
    </clipPath>
    <clipPath id="clipPath648" clipPathUnits="userSpaceOnUse">
      <path style="clip-rule:evenodd" id="path650" d="m 12.48,388.32 261.6,0 0,212.16 -261.6,0 0,-212.16 z"/>
    </clipPath>
    <clipPath id="clipPath664" clipPathUnits="userSpaceOnUse">
      <path style="clip-rule:evenodd" id="path666" d="m 12.48,388.32 261.6,0 0,212.16 -261.6,0 0,-212.16 z"/>
    </clipPath>
    <clipPath id="clipPath680" clipPathUnits="userSpaceOnUse">
      <path style="clip-rule:evenodd" id="path682" d="m 12.48,388.32 261.6,0 0,212.16 -261.6,0 0,-212.16 z"/>
    </clipPath>
    <clipPath id="clipPath696" clipPathUnits="userSpaceOnUse">
      <path style="clip-rule:evenodd" id="path698" d="m 12.48,388.32 261.6,0 0,212.16 -261.6,0 0,-212.16 z"/>
    </clipPath>
    <clipPath id="clipPath712" clipPathUnits="userSpaceOnUse">
      <path style="clip-rule:evenodd" id="path714" d="m 12.48,388.32 261.6,0 0,212.16 -261.6,0 0,-212.16 z"/>
    </clipPath>
    <clipPath id="clipPath724" clipPathUnits="userSpaceOnUse">
      <path style="clip-rule:evenodd" id="path726" d="m 12.48,388.32 261.6,0 0,212.16 -261.6,0 0,-212.16 z"/>
    </clipPath>
    <clipPath id="clipPath740" clipPathUnits="userSpaceOnUse">
      <path style="clip-rule:evenodd" id="path742" d="m 12.48,388.32 261.6,0 0,212.16 -261.6,0 0,-212.16 z"/>
    </clipPath>
  </defs>
  <g transform="matrix(1.25,0,0,-1.25,0,765)" id="g10">
    <g id="g12">
      <g clip-path="url(#clipPath16)" id="g14"><text id="text20" style="font-variant:normal;font-weight:bold;font-size:26.04000092px;font-family:'Roboto Condensed';-inkscape-font-specification:RobotoCondensed-Bold;writing-mode:lr-tb;fill:#000000;fill-opacity:1;fill-rule:nonzero;stroke:none" transform="matrix(1,0,0,-1,340.25,575.04)"><tspan id="tspan22" y="0" x="0 12.39504 18.957121 32.055241 44.86692 53.512199 65.985359 71.974564 85.150803 98.327042 105.90468 111.89388 124.67952 136.47565 149.28732 155.8494 168.81732 177.4626 184.02467 196.88844 209.98656 215.97575 223.97005 236.78172 249.25488 255.29616 268.18597 281.15387 293.96555 306.77725 319.69308 331.59335 337.58255 350.55048 359.09161 365.08081 371.64288 378.20496 391.19891 404.01059 410.57269 423.56665 430.12872 438.17508">Figure 10. Exploring the bounds of liquidity</tspan></text>
</g>
    </g>
    <g id="g24">
      <g clip-path="url(#clipPath28)" id="g26"><text id="text32" style="font-variant:normal;font-weight:normal;font-size:14.03999996px;font-family:'Roboto Condensed';-inkscape-font-specification:RobotoCondensed-Regular;writing-mode:lr-tb;fill:#000000;fill-opacity:1;fill-rule:nonzero;stroke:none" transform="matrix(1,0,0,-1,338.69,553.06)"><tspan id="tspan34" y="0" x="0">​</tspan></text>
</g>
    </g>
    <g id="g36">
      <g clip-path="url(#clipPath40)" id="g38"><text id="text44" style="font-variant:normal;font-weight:bold;font-size:14.03999996px;font-family:'Roboto Condensed';-inkscape-font-specification:RobotoCondensed-Bold;writing-mode:lr-tb;fill:#000000;fill-opacity:1;fill-rule:nonzero;stroke:none" transform="matrix(1,0,0,-1,338.69,553.06)"><tspan id="tspan46" y="0" x="0 8.1572399 11.63916 18.631081 25.580879 32.193722 35.633518 38.86272 49.533119 56.145962 63.053638 69.666481 76.756683 83.481842 90.445679 93.674881 102.05676 109.0206 119.66292 122.9202 127.4832 134.47511 139.1364 142.3656 148.73976 155.46492 165.8826 169.36452 174.5172 177.99911 181.48103 188.45892 195.36659 198.90468 205.86852 209.09772 216.04752 220.7088 227.70071 234.66457 241.57224 248.07275 252.38304 258.7572 261.98639 266.52133 273.62555 281.54413 290.16467 294.69958 298.19556 301.42477 308.52899 315.63324 322.6813 329.78555 334.88208 341.98633 349.09055 356.19479 363.24289">Global Managed AuM for semi-liquid products ($BN), 2023-2024 </tspan></text>
</g>
    </g>
    <g id="g48">
      <g clip-path="url(#clipPath52)" id="g50"><text id="text56" style="font-variant:normal;font-weight:normal;font-size:8.03999996px;font-family:'Roboto Condensed';-inkscape-font-specification:RobotoCondensed-Regular;writing-mode:lr-tb;fill:#000000;fill-opacity:1;fill-rule:nonzero;stroke:none" transform="matrix(1,0,0,-1,337.97,530.86)"><tspan id="tspan58" y="0" x="0 3.97176 6.1104002 7.9113598 12.36552 14.7534 16.554359 22.5522 26.40336 28.791241 30.592199 32.393162 35.745838 37.55484 40.095482 43.914478 47.757599 51.721321 55.435799 57.236759 59.64072 63.363239 67.326958 71.162041 72.962997 76.814163 79.185959 82.924561 86.888283 88.68924 92.532356 96.375481 100.3392 104.06172 106.46568 108.26664 110.66256 114.50568 118.2282 120.02916 124.00092 127.97268 131.91228 135.88403 137.66891 142.34016 146.05464 148.45056 150.60529 152.40623 157.32672 161.39496 163.79088 165.59184 169.44299 171.22787 173.02884 174.8298 178.79352 182.508 184.91196 188.62643 192.34895 196.19208 198.588 202.43916 206.40288 210.10931 213.82381 215.62476 219.47592 223.42355 227.38728 229.18823 233.03136 236.99509 238.78799 241.18391 245.25217 247.05312 251.02489 254.99664 258.93625 260.73721 264.70093 268.54404 272.26657 274.0675 276.46344 280.53168 282.33264 284.7366 288.80484 292.64795 296.49109 300.4548 302.25577 306.09888 310.06259">1. Primarily funds regulated under the 1940 Act. Not all percentages add up to 100 due to rounding.</tspan></text>
</g>
    </g>
    <g id="g60">
      <g clip-path="url(#clipPath64)" id="g62"><text id="text68" style="font-variant:normal;font-weight:normal;font-size:8.03999996px;font-family:'Roboto Condensed';-inkscape-font-specification:RobotoCondensed-Regular;writing-mode:lr-tb;fill:#000000;fill-opacity:1;fill-rule:nonzero;stroke:none" transform="matrix(1,0,0,-1,337.97,520.66)"><tspan id="tspan70" y="0" x="0 4.1888399 8.2570801 12.1002 14.50416 18.218639 21.94116 25.65564 27.56916 29.370119 35.480518 39.548759 41.952721 45.795841 47.596802 51.439919 55.403641 59.110081 61.506001 65.357162 67.745041 69.417358 71.218323 75.182037 79.01712 82.980843 84.773758 86.574722 90.2892 92.098198 95.812683 99.888962 105.8868 109.85052 113.70168 117.52872 120.8814 122.6904 125.09436 128.81688 132.78059 136.84885 139.25281 141.64873 143.44968 147.2928 151.25652 152.92081 154.72176 159.52164 161.3226 163.12357 166.59685 170.31937 172.72331 174.52428 180.65076 184.00343 190.00128 193.85245 197.67947 199.48044 203.3316 207.15865 211.0098 212.79468 216.14735 219.86987 221.67084 225.38531">Sources: Morningstar; public company reporting; Oliver Wyman analysis.</tspan></text>
</g>
    </g>
    <g id="g72">
      <g clip-path="url(#clipPath76)" id="g74"><text id="text80" style="font-variant:normal;font-weight:bold;font-size:11.03999996px;font-family:'Roboto Condensed';-inkscape-font-specification:RobotoCondensed-Bold;writing-mode:lr-tb;fill:#000000;fill-opacity:1;fill-rule:nonzero;stroke:none" transform="matrix(1,0,0,-1,338.33,464.74)"><tspan id="tspan82" y="0" x="0 5.2881598 11.28288 17.87376 23.128799">LTAFs</tspan></text>
</g>
    </g>
    <g id="g84">
      <g clip-path="url(#clipPath88)" id="g86"><text id="text92" style="font-variant:normal;font-weight:bold;font-size:11.03999996px;font-family:'Roboto Condensed';-inkscape-font-specification:RobotoCondensed-Bold;writing-mode:lr-tb;fill:#000000;fill-opacity:1;fill-rule:nonzero;stroke:none" transform="matrix(1,0,0,-1,338.33,450.34)"><tspan id="tspan94" y="0" x="0 5.42064 10.7088 16.70352 19.69536 24.950399">ELTIFs</tspan></text>
</g>
    </g>
    <g id="g96">
      <g clip-path="url(#clipPath100)" id="g98">
        <path id="path104" style="fill:none;stroke:#000000;stroke-width:0.14;stroke-linecap:butt;stroke-linejoin:miter;stroke-miterlimit:10;stroke-dasharray:none;stroke-opacity:0" d="m 12.48,447.65 226.79,0 0,134.78 -226.79,0 0,-134.78 z"/>
      </g>
    </g>
    <g id="g106">
      <g clip-path="url(#clipPath110)" id="g108">
        <path id="path114" style="fill:#ffffff;fill-opacity:1;fill-rule:evenodd;stroke:none" d="m 12.48,447.65 226.79,0 0,134.77 -226.79,0 0,-134.77 z"/>
      </g>
    </g>
    <path id="path116" style="fill:#ffffff;fill-opacity:1;fill-rule:evenodd;stroke:none" d="m 19.36,454.13 213.03,0 0,121.83 -213.03,0 0,-121.83 z"/>
    <path id="path118" style="fill:#005aa4;fill-opacity:1;fill-rule:nonzero;stroke:none" d="m 43.08,467.88 59.16,0 0,-13.75 -59.16,0 0,13.75 z m 106.44,-1.2 59.16,0 0,-12.55 -59.16,0 0,12.55 z"/>
    <path id="path120" style="fill:none;stroke:#ffffff;stroke-width:0.75;stroke-linecap:butt;stroke-linejoin:round;stroke-miterlimit:10;stroke-dasharray:none;stroke-opacity:1" d="m 43.08,467.88 59.16,0 0,-13.75 -59.16,0 0,13.75 z m 106.44,-1.2 59.16,0 0,-12.55 -59.16,0 0,12.55 z"/>
    <path id="path122" style="fill:#d0b86a;fill-opacity:1;fill-rule:nonzero;stroke:none" d="m 43.08,481.44 59.16,0 0,-13.56 -59.16,0 0,13.56 z m 106.44,4.32 59.16,0 0,-19.08 -59.16,0 0,19.08 z"/>
    <path id="path124" style="fill:none;stroke:#ffffff;stroke-width:0.75;stroke-linecap:butt;stroke-linejoin:round;stroke-miterlimit:10;stroke-dasharray:none;stroke-opacity:1" d="m 43.08,481.44 59.16,0 0,-13.56 -59.16,0 0,13.56 z m 106.44,4.32 59.16,0 0,-19.08 -59.16,0 0,19.08 z"/>
    <path id="path126" style="fill:#226b5a;fill-opacity:1;fill-rule:nonzero;stroke:none" d="m 43.08,511.56 59.16,0 0,-30.12 -59.16,0 0,30.12 z m 106.44,21.12 59.16,0 0,-46.92 -59.16,0 0,46.92 z"/>
    <path id="path128" style="fill:none;stroke:#ffffff;stroke-width:0.75;stroke-linecap:butt;stroke-linejoin:round;stroke-miterlimit:10;stroke-dasharray:none;stroke-opacity:1" d="m 43.08,511.56 59.16,0 0,-30.12 -59.16,0 0,30.12 z m 106.44,21.12 59.16,0 0,-46.92 -59.16,0 0,46.92 z"/>
    <path id="path130" style="fill:#00a1e2;fill-opacity:1;fill-rule:nonzero;stroke:none" d="m 43.08,526.92 59.16,0 0,-15.36 -59.16,0 0,15.36 z m 106.44,26.88 59.16,0 0,-21.12 -59.16,0 0,21.12 z"/>
    <path id="path132" style="fill:none;stroke:#ffffff;stroke-width:0.75;stroke-linecap:butt;stroke-linejoin:round;stroke-miterlimit:10;stroke-dasharray:none;stroke-opacity:1" d="m 43.08,526.92 59.16,0 0,-15.36 -59.16,0 0,15.36 z m 106.44,26.88 59.16,0 0,-21.12 -59.16,0 0,21.12 z"/>
    <path id="path134" style="fill:#eadfbc;fill-opacity:1;fill-rule:nonzero;stroke:none" d="m 43.08,536.76 59.16,0 0,-9.84 -59.16,0 0,9.84 z m 106.44,32.88 59.16,0 0,-15.84 -59.16,0 0,15.84 z"/>
    <path id="path136" style="fill:none;stroke:#ffffff;stroke-width:0.75;stroke-linecap:butt;stroke-linejoin:round;stroke-miterlimit:10;stroke-dasharray:none;stroke-opacity:1" d="m 43.08,536.76 59.16,0 0,-9.84 -59.16,0 0,9.84 z m 106.44,32.88 59.16,0 0,-15.84 -59.16,0 0,15.84 z"/>
    <path id="path138" style="fill:#80add2;fill-opacity:1;fill-rule:nonzero;stroke:none" d="m 43.08,540.6 59.16,0 0,-3.84 -59.16,0 0,3.84 z m 106.44,34.08 59.16,0 0,-5.04 -59.16,0 0,5.04 z"/>
    <path id="path140" style="fill:none;stroke:#ffffff;stroke-width:0.75;stroke-linecap:butt;stroke-linejoin:round;stroke-miterlimit:10;stroke-dasharray:none;stroke-opacity:1" d="m 43.08,540.6 59.16,0 0,-3.84 -59.16,0 0,3.84 z m 106.44,34.08 59.16,0 0,-5.04 -59.16,0 0,5.04 z"/>
    <path id="path142" style="fill:#96c7bc;fill-opacity:1;fill-rule:nonzero;stroke:none" d="m 149.52,574.68 59.16,0 0,1.2787 -59.16,0 0,-1.2787 z"/>
    <g id="g144">
      <g clip-path="url(#clipPath148)" id="g146">
        <path id="path152" style="fill:none;stroke:#ffffff;stroke-width:0.75;stroke-linecap:butt;stroke-linejoin:round;stroke-miterlimit:10;stroke-dasharray:none;stroke-opacity:1" d="m 149.52,574.68 59.16,0 0,1.2787 -59.16,0 0,-1.2787 z"/>
      </g>
    </g>
    <path id="path154" style="fill:none;stroke:#000000;stroke-width:0.75;stroke-linecap:butt;stroke-linejoin:round;stroke-miterlimit:10;stroke-dasharray:none;stroke-opacity:1" d="m 19.36,454.13 213.03,0"/>
    <path id="path156" style="fill:#000000;fill-opacity:1;fill-rule:nonzero;stroke:none" d="m 71.205,562.11 101.345,34.32 -0.24,0.71 -101.345,-34.32 0.24,-0.71 z m 101.245,31.52 4.72,4.76 -6.65,0.92 1.93,-5.68 z"/>
    <path id="path158" style="fill:#80add2;fill-opacity:1;fill-rule:evenodd;stroke:none" d="m 81.475,534 11.945,0 0,9.475 -11.945,0 0,-9.475 z"/>
    <g id="g160">
      <g clip-path="url(#clipPath164)" id="g162"><text id="text168" style="font-variant:normal;font-weight:normal;font-size:8.03999996px;font-family:'Roboto Condensed';-inkscape-font-specification:RobotoCondensed-Regular;writing-mode:lr-tb;fill:#000000;fill-opacity:1;fill-rule:nonzero;stroke:none" transform="matrix(1,0,0,-1,82.968,535.97)"><tspan id="tspan170" y="0" x="0 3.95996">4%</tspan></text>
</g>
    </g>
    <g id="g172">
      <g clip-path="url(#clipPath176)" id="g174"><text id="text180" style="font-variant:normal;font-weight:normal;font-size:8.03999996px;font-family:'Roboto Condensed';-inkscape-font-specification:RobotoCondensed-Regular;writing-mode:lr-tb;fill:#000000;fill-opacity:1;fill-rule:nonzero;stroke:none" transform="matrix(1,0,0,-1,51.288,529.66)"><tspan id="tspan182" y="0" x="0 3.95996 7.91992">11%</tspan></text>
</g>
    </g>
    <g id="g184">
      <g clip-path="url(#clipPath188)" id="g186"><text id="text192" style="font-variant:normal;font-weight:normal;font-size:8.03999996px;font-family:'Roboto Condensed';-inkscape-font-specification:RobotoCondensed-Regular;writing-mode:lr-tb;fill:#ffffff;fill-opacity:1;fill-rule:nonzero;stroke:none" transform="matrix(1,0,0,-1,66.168,517.06)"><tspan id="tspan194" y="0" x="0 3.95996 7.91992">18%</tspan></text>
</g>
    </g>
    <g id="g196">
      <g clip-path="url(#clipPath200)" id="g198"><text id="text204" style="font-variant:normal;font-weight:normal;font-size:8.03999996px;font-family:'Roboto Condensed';-inkscape-font-specification:RobotoCondensed-Regular;writing-mode:lr-tb;fill:#ffffff;fill-opacity:1;fill-rule:nonzero;stroke:none" transform="matrix(1,0,0,-1,66.168,494.26)"><tspan id="tspan206" y="0" x="0 3.95996 7.91992">35%</tspan></text>
</g>
    </g>
    <g id="g208">
      <g clip-path="url(#clipPath212)" id="g210"><text id="text216" style="font-variant:normal;font-weight:normal;font-size:8.03999996px;font-family:'Roboto Condensed';-inkscape-font-specification:RobotoCondensed-Regular;writing-mode:lr-tb;fill:#000000;fill-opacity:1;fill-rule:nonzero;stroke:none" transform="matrix(1,0,0,-1,66.168,471.86)"><tspan id="tspan218" y="0" x="0 3.95996 7.91992">16%</tspan></text>
</g>
    </g>
    <g id="g220">
      <g clip-path="url(#clipPath224)" id="g222"><text id="text228" style="font-variant:normal;font-weight:normal;font-size:8.03999996px;font-family:'Roboto Condensed';-inkscape-font-specification:RobotoCondensed-Regular;writing-mode:lr-tb;fill:#ffffff;fill-opacity:1;fill-rule:nonzero;stroke:none" transform="matrix(1,0,0,-1,66.168,458.23)"><tspan id="tspan230" y="0" x="0 3.95996 7.91992">16%</tspan></text>
</g>
    </g>
    <g id="g232">
      <g clip-path="url(#clipPath236)" id="g234"><text id="text240" style="font-variant:normal;font-weight:normal;font-size:8.03999996px;font-family:'Roboto Condensed';-inkscape-font-specification:RobotoCondensed-Regular;writing-mode:lr-tb;fill:#000000;fill-opacity:1;fill-rule:nonzero;stroke:none" transform="matrix(1,0,0,-1,64.272,444.1)"><tspan id="tspan242" y="0" x="0 3.95996 7.91992 11.87988">2023</tspan></text>
</g>
    </g>
    <path id="path244" style="fill:#96c7bc;fill-opacity:1;fill-rule:evenodd;stroke:none" d="m 187.56,570.43 12.125,0 0,9.775 -12.125,0 0,-9.775 z"/>
    <g id="g246">
      <g clip-path="url(#clipPath250)" id="g248"><text id="text254" style="font-variant:normal;font-weight:normal;font-size:8.03999996px;font-family:'Roboto Condensed';-inkscape-font-specification:RobotoCondensed-Regular;writing-mode:lr-tb;fill:#000000;fill-opacity:1;fill-rule:nonzero;stroke:none" transform="matrix(1,0,0,-1,189.07,572.54)"><tspan id="tspan256" y="0" x="0 3.95996">1%</tspan></text>
</g>
    </g>
    <path id="path258" style="fill:#80add2;fill-opacity:1;fill-rule:evenodd;stroke:none" d="m 158.45,567.6 11.825,0 0,9.775 -11.825,0 0,-9.775 z"/>
    <g id="g260">
      <g clip-path="url(#clipPath264)" id="g262"><text id="text268" style="font-variant:normal;font-weight:normal;font-size:8.03999996px;font-family:'Roboto Condensed';-inkscape-font-specification:RobotoCondensed-Regular;writing-mode:lr-tb;fill:#000000;fill-opacity:1;fill-rule:nonzero;stroke:none" transform="matrix(1,0,0,-1,159.84,569.71)"><tspan id="tspan270" y="0" x="0 3.95996">4%</tspan></text>
</g>
    </g>
    <g id="g272">
      <g clip-path="url(#clipPath276)" id="g274"><text id="text280" style="font-variant:normal;font-weight:normal;font-size:8.03999996px;font-family:'Roboto Condensed';-inkscape-font-specification:RobotoCondensed-Regular;writing-mode:lr-tb;fill:#000000;fill-opacity:1;fill-rule:nonzero;stroke:none" transform="matrix(1,0,0,-1,172.56,559.22)"><tspan id="tspan282" y="0" x="0 3.95996 7.91992">13%</tspan></text>
</g>
    </g>
    <g id="g284">
      <g clip-path="url(#clipPath288)" id="g286"><text id="text292" style="font-variant:normal;font-weight:normal;font-size:8.03999996px;font-family:'Roboto Condensed';-inkscape-font-specification:RobotoCondensed-Regular;writing-mode:lr-tb;fill:#ffffff;fill-opacity:1;fill-rule:nonzero;stroke:none" transform="matrix(1,0,0,-1,172.56,540.79)"><tspan id="tspan294" y="0" x="0 3.95996 7.91992">17%</tspan></text>
</g>
    </g>
    <g id="g296">
      <g clip-path="url(#clipPath300)" id="g298"><text id="text304" style="font-variant:normal;font-weight:normal;font-size:8.03999996px;font-family:'Roboto Condensed';-inkscape-font-specification:RobotoCondensed-Regular;writing-mode:lr-tb;fill:#ffffff;fill-opacity:1;fill-rule:nonzero;stroke:none" transform="matrix(1,0,0,-1,172.56,507.36)"><tspan id="tspan306" y="0" x="0 3.95996 7.91992">39%</tspan></text>
</g>
    </g>
    <g id="g308">
      <g clip-path="url(#clipPath312)" id="g310"><text id="text316" style="font-variant:normal;font-weight:normal;font-size:8.03999996px;font-family:'Roboto Condensed';-inkscape-font-specification:RobotoCondensed-Regular;writing-mode:lr-tb;fill:#000000;fill-opacity:1;fill-rule:nonzero;stroke:none" transform="matrix(1,0,0,-1,172.56,473.35)"><tspan id="tspan318" y="0" x="0 3.95996 7.91992">16%</tspan></text>
</g>
    </g>
    <g id="g320">
      <g clip-path="url(#clipPath324)" id="g322"><text id="text328" style="font-variant:normal;font-weight:normal;font-size:8.03999996px;font-family:'Roboto Condensed';-inkscape-font-specification:RobotoCondensed-Regular;writing-mode:lr-tb;fill:#ffffff;fill-opacity:1;fill-rule:nonzero;stroke:none" transform="matrix(1,0,0,-1,172.56,457.46)"><tspan id="tspan330" y="0" x="0 3.95996 7.91992">10%</tspan></text>
</g>
    </g>
    <g id="g332">
      <g clip-path="url(#clipPath336)" id="g334"><text id="text340" style="font-variant:normal;font-weight:normal;font-size:8.03999996px;font-family:'Roboto Condensed';-inkscape-font-specification:RobotoCondensed-Regular;writing-mode:lr-tb;fill:#000000;fill-opacity:1;fill-rule:nonzero;stroke:none" transform="matrix(1,0,0,-1,170.69,444.1)"><tspan id="tspan342" y="0" x="0 3.95996 7.91992 11.87988">2024</tspan></text>
</g>
    </g>
    <g id="g344">
      <g clip-path="url(#clipPath348)" id="g346"><text id="text352" style="font-variant:normal;font-weight:normal;font-size:8.03999996px;font-family:'Roboto Condensed';-inkscape-font-specification:RobotoCondensed-Regular;writing-mode:lr-tb;fill:#000000;fill-opacity:1;fill-rule:nonzero;stroke:none" transform="matrix(1,0,0,-1,66.48,545.5)"><tspan id="tspan354" y="0" x="0 3.95996 7.91992">346</tspan></text>
</g>
    </g>
    <g id="g356">
      <g clip-path="url(#clipPath360)" id="g358"><text id="text364" style="font-variant:normal;font-weight:normal;font-size:8.03999996px;font-family:'Roboto Condensed';-inkscape-font-specification:RobotoCondensed-Regular;writing-mode:lr-tb;fill:#000000;fill-opacity:1;fill-rule:nonzero;stroke:none" transform="matrix(1,0,0,-1,172.58,582.24)"><tspan id="tspan366" y="0" x="0 3.95996 7.91992">487</tspan></text>
</g>
    </g>
    <path id="path368" style="fill:#ffffff;fill-opacity:1;fill-rule:evenodd;stroke:none" d="m 113.16,582.52 c 0,3.76 5.66,6.81 12.65,6.81 6.99,0 12.66,-3.05 12.66,-6.81 0,-3.77 -5.67,-6.82 -12.66,-6.82 -6.99,0 -12.65,3.05 -12.65,6.82 z"/>
    <path id="path370" style="fill:none;stroke:#000000;stroke-width:0.75;stroke-linecap:butt;stroke-linejoin:round;stroke-miterlimit:10;stroke-dasharray:none;stroke-opacity:1" d="m 113.16,582.52 c 0,3.76 5.66,6.81 12.65,6.81 6.99,0 12.66,-3.05 12.66,-6.81 0,-3.77 -5.67,-6.82 -12.66,-6.82 -6.99,0 -12.65,3.05 -12.65,6.82 z"/>
    <g id="g372">
      <g clip-path="url(#clipPath376)" id="g374"><text id="text380" style="font-variant:normal;font-weight:bold;font-size:8.03999996px;font-family:'Roboto Condensed';-inkscape-font-specification:RobotoCondensed-Bold;writing-mode:lr-tb;fill:#000000;fill-opacity:1;fill-rule:nonzero;stroke:none" transform="matrix(1,0,0,-1,117.24,579.74)"><tspan id="tspan382" y="0" x="0 3.8399999 7.9292402 12.01848">+41%</tspan></text>
</g>
    </g>
    <path id="path384" style="fill:#005aa4;fill-opacity:1;fill-rule:evenodd;stroke:none" d="m 22.68,429.4 12,0 0,8.525 -12,0 0,-8.525 z"/>
    <path id="path386" style="fill:none;stroke:#ffffff;stroke-width:0.75;stroke-linecap:butt;stroke-linejoin:miter;stroke-miterlimit:8;stroke-dasharray:none;stroke-opacity:1" d="m 22.68,429.4 12,0 0,8.525 -12,0 0,-8.525 z"/>
    <path id="path388" style="fill:#d0b86a;fill-opacity:1;fill-rule:evenodd;stroke:none" d="m 22.68,415.03 12,0 0,8.525 -12,0 0,-8.525 z"/>
    <path id="path390" style="fill:none;stroke:#ffffff;stroke-width:0.75;stroke-linecap:butt;stroke-linejoin:miter;stroke-miterlimit:8;stroke-dasharray:none;stroke-opacity:1" d="m 22.68,415.03 12,0 0,8.525 -12,0 0,-8.525 z"/>
    <path id="path392" style="fill:#226b5a;fill-opacity:1;fill-rule:evenodd;stroke:none" d="m 22.68,391.63 12,0 0,8.975 -12,0 0,-8.975 z"/>
    <path id="path394" style="fill:none;stroke:#ffffff;stroke-width:0.75;stroke-linecap:butt;stroke-linejoin:miter;stroke-miterlimit:8;stroke-dasharray:none;stroke-opacity:1" d="m 22.68,391.63 12,0 0,8.975 -12,0 0,-8.975 z"/>
    <path id="path396" style="fill:#00a1e2;fill-opacity:1;fill-rule:evenodd;stroke:none" d="m 106.79,429.4 12,0 0,8.525 -12,0 0,-8.525 z"/>
    <path id="path398" style="fill:none;stroke:#ffffff;stroke-width:0.75;stroke-linecap:butt;stroke-linejoin:miter;stroke-miterlimit:8;stroke-dasharray:none;stroke-opacity:1" d="m 106.79,429.4 12,0 0,8.525 -12,0 0,-8.525 z"/>
    <path id="path400" style="fill:#eadfbc;fill-opacity:1;fill-rule:evenodd;stroke:none" d="m 106.79,415.03 12,0 0,8.525 -12,0 0,-8.525 z"/>
    <path id="path402" style="fill:none;stroke:#ffffff;stroke-width:0.75;stroke-linecap:butt;stroke-linejoin:miter;stroke-miterlimit:8;stroke-dasharray:none;stroke-opacity:1" d="m 106.79,415.03 12,0 0,8.525 -12,0 0,-8.525 z"/>
    <path id="path404" style="fill:#80add2;fill-opacity:1;fill-rule:evenodd;stroke:none" d="m 106.79,391.63 12,0 0,8.975 -12,0 0,-8.975 z"/>
    <path id="path406" style="fill:none;stroke:#ffffff;stroke-width:0.75;stroke-linecap:butt;stroke-linejoin:miter;stroke-miterlimit:8;stroke-dasharray:none;stroke-opacity:1" d="m 106.79,391.63 12,0 0,8.975 -12,0 0,-8.975 z"/>
    <path id="path408" style="fill:#96c7bc;fill-opacity:1;fill-rule:evenodd;stroke:none" d="m 201.06,429.4 12,0 0,8.525 -12,0 0,-8.525 z"/>
    <path id="path410" style="fill:none;stroke:#ffffff;stroke-width:0.75;stroke-linecap:butt;stroke-linejoin:miter;stroke-miterlimit:8;stroke-dasharray:none;stroke-opacity:1" d="m 201.06,429.4 12,0 0,8.525 -12,0 0,-8.525 z"/>
    <g id="g412">
      <g clip-path="url(#clipPath416)" id="g414"><text id="text420" style="font-variant:normal;font-weight:normal;font-size:8.03999996px;font-family:'Roboto Condensed';-inkscape-font-specification:RobotoCondensed-Regular;writing-mode:lr-tb;fill:#000000;fill-opacity:1;fill-rule:nonzero;stroke:none" transform="matrix(1,0,0,-1,38.784,430.18)"><tspan id="tspan422" y="0" x="0 4.9204798 8.9887199">Non</tspan></text>
</g>
    </g>
    <g id="g424">
      <g clip-path="url(#clipPath428)" id="g426"><text id="text432" style="font-variant:normal;font-weight:normal;font-size:8.03999996px;font-family:'Roboto Condensed';-inkscape-font-specification:RobotoCondensed-Regular;writing-mode:lr-tb;fill:#000000;fill-opacity:1;fill-rule:nonzero;stroke:none" transform="matrix(1,0,0,-1,51.624,430.18)"><tspan id="tspan434" y="0" x="0">-</tspan></text>
</g>
    </g>
    <g id="g436">
      <g clip-path="url(#clipPath440)" id="g438"><text id="text444" style="font-variant:normal;font-weight:normal;font-size:8.03999996px;font-family:'Roboto Condensed';-inkscape-font-specification:RobotoCondensed-Regular;writing-mode:lr-tb;fill:#000000;fill-opacity:1;fill-rule:nonzero;stroke:none" transform="matrix(1,0,0,-1,53.664,430.18)"><tspan id="tspan446" y="0" x="0 2.39592 4.79988 8.6510401 12.59868 16.321199 20.28492 22.08588 26.395321 30.359039 32.393162 36.582001">traded REITs</tspan></text>
</g>
    </g>
    <g id="g448">
      <g clip-path="url(#clipPath452)" id="g450"><text id="text456" style="font-variant:normal;font-weight:normal;font-size:8.03999996px;font-family:'Roboto Condensed';-inkscape-font-specification:RobotoCondensed-Regular;writing-mode:lr-tb;fill:#000000;fill-opacity:1;fill-rule:nonzero;stroke:none" transform="matrix(1,0,0,-1,38.784,416.54)"><tspan id="tspan458" y="0" x="0 4.1888399 7.9194002 11.76252 15.72624 19.448759 21.85272 23.766239 27.83448 30.37512 32.875561 36.59808 39.002041">Tender offers</tspan></text>
</g>
    </g>
    <g id="g460">
      <g clip-path="url(#clipPath464)" id="g462"><text id="text468" style="font-variant:normal;font-weight:normal;font-size:8.03999996px;font-family:'Roboto Condensed';-inkscape-font-specification:RobotoCondensed-Regular;writing-mode:lr-tb;fill:#000000;fill-opacity:1;fill-rule:nonzero;stroke:none" transform="matrix(1,0,0,-1,38.784,393)"><tspan id="tspan470" y="0" x="0 4.9204798 8.9887199">Non</tspan></text>
</g>
    </g>
    <g id="g472">
      <g clip-path="url(#clipPath476)" id="g474"><text id="text480" style="font-variant:normal;font-weight:normal;font-size:8.03999996px;font-family:'Roboto Condensed';-inkscape-font-specification:RobotoCondensed-Regular;writing-mode:lr-tb;fill:#000000;fill-opacity:1;fill-rule:nonzero;stroke:none" transform="matrix(1,0,0,-1,51.624,393)"><tspan id="tspan482" y="0" x="0">-</tspan></text>
</g>
    </g>
    <g id="g484">
      <g clip-path="url(#clipPath488)" id="g486"><text id="text492" style="font-variant:normal;font-weight:normal;font-size:8.03999996px;font-family:'Roboto Condensed';-inkscape-font-specification:RobotoCondensed-Regular;writing-mode:lr-tb;fill:#000000;fill-opacity:1;fill-rule:nonzero;stroke:none" transform="matrix(1,0,0,-1,53.664,393)"><tspan id="tspan494" y="0" x="0 4.1888399 6.6008401 10.452 14.39964 18.12216 22.08588 23.886841 28.316879 32.875561 37.434238">Traded BDCs</tspan></text>
</g>
    </g>
    <g id="g496">
      <g clip-path="url(#clipPath500)" id="g498"><text id="text504" style="font-variant:normal;font-weight:normal;font-size:8.03999996px;font-family:'Roboto Condensed';-inkscape-font-specification:RobotoCondensed-Regular;writing-mode:lr-tb;fill:#000000;fill-opacity:1;fill-rule:nonzero;stroke:none" transform="matrix(1,0,0,-1,122.59,430.18)"><tspan id="tspan506" y="0" x="0 2.0341201 5.8772402 8.27316 11.99568 14.39964 17.872919 21.724079 23.508961 25.309919 29.169121 32.988121 36.831242 40.79496">Interval Funds</tspan></text>
</g>
    </g>
    <g id="g508">
      <g clip-path="url(#clipPath512)" id="g510"><text id="text516" style="font-variant:normal;font-weight:normal;font-size:5.28000021px;font-family:'Roboto Condensed';-inkscape-font-specification:RobotoCondensed-Regular;writing-mode:lr-tb;fill:#000000;fill-opacity:1;fill-rule:nonzero;stroke:none" transform="matrix(1,0,0,-1,167.11,432.58)"><tspan id="tspan518" y="0" x="0">1</tspan></text>
</g>
    </g>
    <g id="g520">
      <g clip-path="url(#clipPath524)" id="g522"><text id="text528" style="font-variant:normal;font-weight:normal;font-size:8.03999996px;font-family:'Roboto Condensed';-inkscape-font-specification:RobotoCondensed-Regular;writing-mode:lr-tb;fill:#000000;fill-opacity:1;fill-rule:nonzero;stroke:none" transform="matrix(1,0,0,-1,122.59,416.45)"><tspan id="tspan530" y="0" x="0 4.9204798 8.9887199">Non</tspan></text>
</g>
    </g>
    <g id="g532">
      <g clip-path="url(#clipPath536)" id="g534"><text id="text540" style="font-variant:normal;font-weight:normal;font-size:8.03999996px;font-family:'Roboto Condensed';-inkscape-font-specification:RobotoCondensed-Regular;writing-mode:lr-tb;fill:#000000;fill-opacity:1;fill-rule:nonzero;stroke:none" transform="matrix(1,0,0,-1,135.43,416.45)"><tspan id="tspan542" y="0" x="0">-</tspan></text>
</g>
    </g>
    <g id="g544">
      <g clip-path="url(#clipPath548)" id="g546"><text id="text552" style="font-variant:normal;font-weight:normal;font-size:8.03999996px;font-family:'Roboto Condensed';-inkscape-font-specification:RobotoCondensed-Regular;writing-mode:lr-tb;fill:#000000;fill-opacity:1;fill-rule:nonzero;stroke:none" transform="matrix(1,0,0,-1,137.47,416.45)"><tspan id="tspan554" y="0" x="0 3.9637201 7.7827201 11.99568 14.0298 17.889 19.55328 23.517 27.360121 29.76408 33.832321 37.79604 41.510521 45.361679 49.188721">ELTIF European </tspan></text>
</g>
    </g>
    <g id="g556">
      <g clip-path="url(#clipPath560)" id="g558"><text id="text564" style="font-variant:normal;font-weight:normal;font-size:8.03999996px;font-family:'Roboto Condensed';-inkscape-font-specification:RobotoCondensed-Regular;writing-mode:lr-tb;fill:#000000;fill-opacity:1;fill-rule:nonzero;stroke:none" transform="matrix(1,0,0,-1,122.59,406.85)"><tspan id="tspan566" y="0" x="0 3.7225201 7.1957998 10.91832 13.32228 17.285999 19.681919 23.40444 27.126961 30.970079 32.883598 35.42424 39.24324 43.086361 47.050079">evergreen funds</tspan></text>
</g>
    </g>
    <g id="g568">
      <g clip-path="url(#clipPath572)" id="g570"><text id="text576" style="font-variant:normal;font-weight:normal;font-size:8.03999996px;font-family:'Roboto Condensed';-inkscape-font-specification:RobotoCondensed-Regular;writing-mode:lr-tb;fill:#000000;fill-opacity:1;fill-rule:nonzero;stroke:none" transform="matrix(1,0,0,-1,122.59,393)"><tspan id="tspan578" y="0" x="0 3.9637201 7.7827201 11.99568 14.0298 17.889">ELTIFs</tspan></text>
</g>
    </g>
    <g id="g580">
      <g clip-path="url(#clipPath584)" id="g582"><text id="text588" style="font-variant:normal;font-weight:normal;font-size:8.03999996px;font-family:'Roboto Condensed';-inkscape-font-specification:RobotoCondensed-Regular;writing-mode:lr-tb;fill:#000000;fill-opacity:1;fill-rule:nonzero;stroke:none" transform="matrix(1,0,0,-1,217.18,430.18)"><tspan id="tspan590" y="0" x="0 3.819 8.0319595 12.7032 16.562401">LTAFs</tspan></text>
</g>
    </g>
    <g id="g592">
      <g clip-path="url(#clipPath596)" id="g594"><text id="text600" style="font-variant:normal;font-weight:normal;font-size:8.03999996px;font-family:'Roboto Condensed';-inkscape-font-specification:RobotoCondensed-Regular;writing-mode:lr-tb;fill:#000000;fill-opacity:1;fill-rule:nonzero;stroke:none" transform="matrix(1,0,0,-1,235.9,592.92)"><tspan id="tspan602" y="0" x="0 4.7918401 7.1957998 11.26404 16.53828 18.9342 22.777321">Growth </tspan></text>
</g>
    </g>
    <g id="g604">
      <g clip-path="url(#clipPath608)" id="g606"><text id="text612" style="font-variant:normal;font-weight:normal;font-size:8.03999996px;font-family:'Roboto Condensed';-inkscape-font-specification:RobotoCondensed-Regular;writing-mode:lr-tb;fill:#000000;fill-opacity:1;fill-rule:nonzero;stroke:none" transform="matrix(1,0,0,-1,231.22,583.32)"><tspan id="tspan614" y="0" x="0 3.95996 7.91992 11.87988">2023</tspan></text>
</g>
    </g>
    <g id="g616">
      <g clip-path="url(#clipPath620)" id="g618"><text id="text624" style="font-variant:normal;font-weight:normal;font-size:8.03999996px;font-family:'Roboto Condensed';-inkscape-font-specification:RobotoCondensed-Regular;writing-mode:lr-tb;fill:#000000;fill-opacity:1;fill-rule:nonzero;stroke:none" transform="matrix(1,0,0,-1,247.06,583.32)"><tspan id="tspan626" y="0" x="0">-</tspan></text>
</g>
    </g>
    <g id="g628">
      <g clip-path="url(#clipPath632)" id="g630"><text id="text636" style="font-variant:normal;font-weight:normal;font-size:8.03999996px;font-family:'Roboto Condensed';-inkscape-font-specification:RobotoCondensed-Regular;writing-mode:lr-tb;fill:#000000;fill-opacity:1;fill-rule:nonzero;stroke:none" transform="matrix(1,0,0,-1,249.1,583.32)"><tspan id="tspan638" y="0" x="0 3.95996 7.91992 11.87988">2024</tspan></text>
</g>
    </g>
    <path id="path640" style="fill:#eadfbc;fill-opacity:1;fill-rule:evenodd;stroke:none" d="m 233.81,562.44 c 0,3.37 6.63,6.11 14.81,6.11 8.18,0 14.81,-2.74 14.81,-6.11 0,-3.37 -6.63,-6.1 -14.81,-6.1 -8.18,0 -14.81,2.73 -14.81,6.1 z"/>
    <path id="path642" style="fill:none;stroke:#ffffff;stroke-width:0.75;stroke-linecap:butt;stroke-linejoin:miter;stroke-miterlimit:8;stroke-dasharray:none;stroke-opacity:1" d="m 233.81,562.44 c 0,3.37 6.63,6.11 14.81,6.11 8.18,0 14.81,-2.74 14.81,-6.11 0,-3.37 -6.63,-6.1 -14.81,-6.1 -8.18,0 -14.81,2.73 -14.81,6.1 z"/>
    <g id="g644">
      <g clip-path="url(#clipPath648)" id="g646"><text id="text652" style="font-variant:normal;font-weight:normal;font-size:8.03999996px;font-family:'Roboto Condensed';-inkscape-font-specification:RobotoCondensed-Regular;writing-mode:lr-tb;fill:#000000;fill-opacity:1;fill-rule:nonzero;stroke:none" transform="matrix(1,0,0,-1,240.22,559.66)"><tspan id="tspan654" y="0" x="0 3.9637201 7.9354801 11.90724">+60%</tspan></text>
</g>
    </g>
    <path id="path656" style="fill:#d0b86a;fill-opacity:1;fill-rule:evenodd;stroke:none" d="m 233.81,479.31 c 0,3.37 6.63,6.1 14.81,6.1 8.18,0 14.81,-2.73 14.81,-6.1 0,-3.38 -6.63,-6.11 -14.81,-6.11 -8.18,0 -14.81,2.73 -14.81,6.11 z"/>
    <path id="path658" style="fill:none;stroke:#ffffff;stroke-width:0.75;stroke-linecap:butt;stroke-linejoin:miter;stroke-miterlimit:8;stroke-dasharray:none;stroke-opacity:1" d="m 233.81,479.31 c 0,3.37 6.63,6.1 14.81,6.1 8.18,0 14.81,-2.73 14.81,-6.1 0,-3.38 -6.63,-6.11 -14.81,-6.11 -8.18,0 -14.81,2.73 -14.81,6.11 z"/>
    <g id="g660">
      <g clip-path="url(#clipPath664)" id="g662"><text id="text668" style="font-variant:normal;font-weight:normal;font-size:8.03999996px;font-family:'Roboto Condensed';-inkscape-font-specification:RobotoCondensed-Regular;writing-mode:lr-tb;fill:#000000;fill-opacity:1;fill-rule:nonzero;stroke:none" transform="matrix(1,0,0,-1,240.22,476.52)"><tspan id="tspan670" y="0" x="0 3.9637201 7.9354801 11.90724">+41%</tspan></text>
</g>
    </g>
    <path id="path672" style="fill:#00a1e2;fill-opacity:1;fill-rule:evenodd;stroke:none" d="m 233.81,543.97 c 0,3.37 6.63,6.1 14.81,6.1 8.18,0 14.81,-2.73 14.81,-6.1 0,-3.37 -6.63,-6.11 -14.81,-6.11 -8.18,0 -14.81,2.74 -14.81,6.11 z"/>
    <path id="path674" style="fill:none;stroke:#ffffff;stroke-width:0.75;stroke-linecap:butt;stroke-linejoin:miter;stroke-miterlimit:8;stroke-dasharray:none;stroke-opacity:1" d="m 233.81,543.97 c 0,3.37 6.63,6.1 14.81,6.1 8.18,0 14.81,-2.73 14.81,-6.1 0,-3.37 -6.63,-6.11 -14.81,-6.11 -8.18,0 -14.81,2.74 -14.81,6.11 z"/>
    <g id="g676">
      <g clip-path="url(#clipPath680)" id="g678"><text id="text684" style="font-variant:normal;font-weight:normal;font-size:8.03999996px;font-family:'Roboto Condensed';-inkscape-font-specification:RobotoCondensed-Regular;writing-mode:lr-tb;fill:#ffffff;fill-opacity:1;fill-rule:nonzero;stroke:none" transform="matrix(1,0,0,-1,240.22,541.2)"><tspan id="tspan686" y="0" x="0 3.9637201 7.9354801 11.90724">+37%</tspan></text>
</g>
    </g>
    <path id="path688" style="fill:#80add2;fill-opacity:1;fill-rule:evenodd;stroke:none" d="m 233.81,576.15 c 0,3.39 6.63,6.14 14.81,6.14 8.18,0 14.81,-2.75 14.81,-6.14 0,-3.39 -6.63,-6.13 -14.81,-6.13 -8.18,0 -14.81,2.74 -14.81,6.13 z"/>
    <path id="path690" style="fill:none;stroke:#ffffff;stroke-width:0.75;stroke-linecap:butt;stroke-linejoin:miter;stroke-miterlimit:8;stroke-dasharray:none;stroke-opacity:1" d="m 233.81,576.15 c 0,3.39 6.63,6.14 14.81,6.14 8.18,0 14.81,-2.75 14.81,-6.14 0,-3.39 -6.63,-6.13 -14.81,-6.13 -8.18,0 -14.81,2.74 -14.81,6.13 z"/>
    <g id="g692">
      <g clip-path="url(#clipPath696)" id="g694"><text id="text700" style="font-variant:normal;font-weight:normal;font-size:8.03999996px;font-family:'Roboto Condensed';-inkscape-font-specification:RobotoCondensed-Regular;writing-mode:lr-tb;fill:#000000;fill-opacity:1;fill-rule:nonzero;stroke:none" transform="matrix(1,0,0,-1,240.22,573.38)"><tspan id="tspan702" y="0" x="0 3.9637201 7.9354801 11.90724">+35%</tspan></text>
</g>
    </g>
    <path id="path704" style="fill:#005aa4;fill-opacity:1;fill-rule:evenodd;stroke:none" d="m 233.81,463.01 c 0,3.37 6.63,6.1 14.81,6.1 8.18,0 14.81,-2.73 14.81,-6.1 0,-3.37 -6.63,-6.11 -14.81,-6.11 -8.18,0 -14.81,2.74 -14.81,6.11 z"/>
    <path id="path706" style="fill:none;stroke:#ffffff;stroke-width:0.75;stroke-linecap:butt;stroke-linejoin:miter;stroke-miterlimit:8;stroke-dasharray:none;stroke-opacity:1" d="m 233.81,463.01 c 0,3.37 6.63,6.1 14.81,6.1 8.18,0 14.81,-2.73 14.81,-6.1 0,-3.37 -6.63,-6.11 -14.81,-6.11 -8.18,0 -14.81,2.74 -14.81,6.11 z"/>
    <g id="g708">
      <g clip-path="url(#clipPath712)" id="g710"><text id="text716" style="font-variant:normal;font-weight:normal;font-size:8.03999996px;font-family:'Roboto Condensed';-inkscape-font-specification:RobotoCondensed-Regular;writing-mode:lr-tb;fill:#ffffff;fill-opacity:1;fill-rule:nonzero;stroke:none" transform="matrix(1,0,0,-1,243.22,460.22)"><tspan id="tspan718" y="0" x="0">-</tspan></text>
</g>
    </g>
    <g id="g720">
      <g clip-path="url(#clipPath724)" id="g722"><text id="text728" style="font-variant:normal;font-weight:normal;font-size:8.03999996px;font-family:'Roboto Condensed';-inkscape-font-specification:RobotoCondensed-Regular;writing-mode:lr-tb;fill:#ffffff;fill-opacity:1;fill-rule:nonzero;stroke:none" transform="matrix(1,0,0,-1,245.26,460.22)"><tspan id="tspan730" y="0" x="0 3.95996">9%</tspan></text>
</g>
    </g>
    <path id="path732" style="fill:#226b5a;fill-opacity:1;fill-rule:evenodd;stroke:none" d="m 233.81,511.5 c 0,3.38 6.63,6.11 14.81,6.11 8.18,0 14.81,-2.73 14.81,-6.11 0,-3.37 -6.63,-6.1 -14.81,-6.1 -8.18,0 -14.81,2.73 -14.81,6.1 z"/>
    <path id="path734" style="fill:none;stroke:#ffffff;stroke-width:0.75;stroke-linecap:butt;stroke-linejoin:miter;stroke-miterlimit:8;stroke-dasharray:none;stroke-opacity:1" d="m 233.81,511.5 c 0,3.38 6.63,6.11 14.81,6.11 8.18,0 14.81,-2.73 14.81,-6.11 0,-3.37 -6.63,-6.1 -14.81,-6.1 -8.18,0 -14.81,2.73 -14.81,6.1 z"/>
    <g id="g736">
      <g clip-path="url(#clipPath740)" id="g738"><text id="text744" style="font-variant:normal;font-weight:normal;font-size:8.03999996px;font-family:'Roboto Condensed';-inkscape-font-specification:RobotoCondensed-Regular;writing-mode:lr-tb;fill:#ffffff;fill-opacity:1;fill-rule:nonzero;stroke:none" transform="matrix(1,0,0,-1,240.22,508.73)"><tspan id="tspan746" y="0" x="0 3.9637201 7.9354801 11.90724">+56%</tspan></text>
</g>
    </g>
  </g>
</svg>
