<svg version="1.1" width="100%" height="100%" viewBox="0 0 355 205" xmlns="http://www.w3.org/2000/svg" xmlns:xlink="http://www.w3.org/1999/xlink"><style type="text/css" /><defs><clipPath id="clip001"><path d="M0,0 L2761.333,0 L2761.333,1708 L0,1708 Z" clip-rule="evenodd" /></clipPath><clipPath id="clip002"><path d="M0,0 L2761.333,0 L2761.333,1708 L0,1708 Z" clip-rule="evenodd" /></clipPath><clipPath id="clip003"><path d="M0,0 L2761.333,0 L2761.333,1708 L0,1708 Z" clip-rule="evenodd" /></clipPath><clipPath id="clip004"><path d="M0,0 L5200,0 L5200,1816 L0,1816 Z" clip-rule="evenodd" /></clipPath><clipPath id="clip005"><path d="M-800,0 L6000,0 L6000,1816 L-800,1816 Z" clip-rule="evenodd" /></clipPath><clipPath id="clip006"><path d="M0,0 L2753.333,0 L2753.333,1706.667 L0,1706.667 Z" clip-rule="evenodd" /></clipPath><clipPath id="clip007"><path d="M288,60 L2753.333,60 L2753.333,1484 L288,1484 Z" clip-rule="evenodd" /></clipPath><clipPath id="clip008"><path d="M0,0 L2753.333,0 L2753.333,1706.667 L0,1706.667 Z" clip-rule="evenodd" /></clipPath><clipPath id="clip009"><path d="M0,0 L2753.333,0 L2753.333,1706.667 L0,1706.667 Z" clip-rule="evenodd" /></clipPath><clipPath id="clip010"><path d="M0,0 L2753.333,0 L2753.333,1706.667 L0,1706.667 Z" clip-rule="evenodd" /></clipPath><clipPath id="clip011"><path d="M0,0 L2753.333,0 L2753.333,1706.667 L0,1706.667 Z" clip-rule="evenodd" /></clipPath><clipPath id="clip012"><path d="M0,0 L2753.333,0 L2753.333,1706.667 L0,1706.667 Z" clip-rule="evenodd" /></clipPath><clipPath id="clip013"><path d="M0,0 L2753.333,0 L2753.333,1706.667 L0,1706.667 Z" clip-rule="evenodd" /></clipPath><clipPath id="clip014"><path d="M0,0 L2753.333,0 L2753.333,1706.667 L0,1706.667 Z" clip-rule="evenodd" /></clipPath><clipPath id="clip015"><path d="M0,0 L2753.333,0 L2753.333,1706.667 L0,1706.667 Z" clip-rule="evenodd" /></clipPath><clipPath id="clip016"><path d="M0,0 L2753.333,0 L2753.333,1706.667 L0,1706.667 Z" clip-rule="evenodd" /></clipPath><clipPath id="clip017"><path d="M0,0 L2753.333,0 L2753.333,1706.667 L0,1706.667 Z" clip-rule="evenodd" /></clipPath><clipPath id="clip018"><path d="M0,0 L2753.333,0 L2753.333,1706.667 L0,1706.667 Z" clip-rule="evenodd" /></clipPath><clipPath id="clip019"><path d="M0,0 L2754.667,0 L2754.667,1708 L0,1708 Z" clip-rule="evenodd" /></clipPath><clipPath id="clip020"><path d="M0,0 L2754.667,0 L2754.667,1708 L0,1708 Z" clip-rule="evenodd" /></clipPath><clipPath id="clip021"><path d="M0,0 L2754.667,0 L2754.667,1708 L0,1708 Z" clip-rule="evenodd" /></clipPath><clipPath id="clip022"><path d="M0,0 L2754.667,0 L2754.667,1708 L0,1708 Z" clip-rule="evenodd" /></clipPath><clipPath id="clip023"><path d="M0,0 L2754.667,0 L2754.667,1708 L0,1708 Z" clip-rule="evenodd" /></clipPath><clipPath id="clip024"><path d="M0,0 L2754.667,0 L2754.667,1708 L0,1708 Z" clip-rule="evenodd" /></clipPath><clipPath id="clip025"><path d="M0,0 L2754.667,0 L2754.667,1708 L0,1708 Z" clip-rule="evenodd" /></clipPath><clipPath id="clip026"><path d="M0,0 L2754.667,0 L2754.667,1708 L0,1708 Z" clip-rule="evenodd" /></clipPath></defs><clipPath id="page-clip-path-1"><rect x="0" y="0" width="354.67" height="205.33" /></clipPath><g clip-path="url(#page-clip-path-1)" transform="translate(0.17,0)"><g transform="translate(1,1)"><g><g transform="matrix(0.1197006,0,0,0.1199844,0,0)" clip-path="url(#clip001)"><g><g clip-path="url(#clip002)"><g><g clip-path="url(#clip003)"><g transform="matrix(1.000214,0,0,1.000772,0.00016276,0)"><g><g><g clip-path="url(#clip004)"><g transform="translate(2753.333,1708)" /></g></g></g><g clip-path="url(#clip005)"><g transform="matrix(0.000656168,0,0,0.000656168,0,0)"><path d="M0,0 L4198112,0 L4198112,2602992 L0,2602992 Z" fill="#ffffff" fill-opacity="0" fill-rule="evenodd" /></g></g><g clip-path="url(#clip006)"><g transform="matrix(0.000656168,0,0,0.000656168,289.3333,60)"><path d="M0,1438656 L3757168,1438656 M0,719328 L3757168,719328 M0,0 L3757168,0 " stroke-width="16933.33" stroke-linejoin="round" stroke-miterlimit="13.33333" stroke="#f2f2f2" fill="none" fill-rule="nonzero" /></g></g><g clip-path="url(#clip007)"><g transform="matrix(0.000656168,0,0,0.000656168,289.3333,60)"><path d="M207264,2111248 L1042416,2111248 L1042416,2111248 L1042416,2160016 L1042416,2160016 L207264,2160016 ZM1461008,768096 L2296160,768096 L2296160,768096 L2296160,2160016 L2296160,2160016 L1461008,2160016 ZM2712720,335280 L3547872,335280 L3547872,335280 L3547872,2160016 L3547872,2160016 L2712720,2160016 Z" fill="#012169" fill-rule="nonzero" /><path d="M207264,2111248 L1042416,2111248 L1042416,2111248 L1042416,2160016 L1042416,2160016 L207264,2160016 ZM1461008,768096 L2296160,768096 L2296160,768096 L2296160,2160016 L2296160,2160016 L1461008,2160016 ZM2712720,335280 L3547872,335280 L3547872,335280 L3547872,2160016 L3547872,2160016 L2712720,2160016 Z" stroke-width="8466.667" stroke-linejoin="round" stroke-miterlimit="13.33333" stroke="#ffffff" fill="none" fill-rule="nonzero" /></g></g><g clip-path="url(#clip008)"><g transform="matrix(0.000656168,0,0,0.000656168,289.3333,1477.333)"><g><path d="M0.002403701,-6773.333 L3757168,-6772 " stroke-width="3386.667" stroke-linejoin="round" stroke-miterlimit="13.33333" stroke="#000000" fill="none" fill-rule="evenodd" /><path d="M-0.001201851,3386.667 L3757168,3388 " stroke-width="10160" stroke-linejoin="round" stroke-miterlimit="13.33333" stroke="#000000" fill="none" fill-rule="evenodd" /></g></g></g><g><g clip-path="url(#clip009)"><g><g transform="translate(634.9261,1400.041)"><text><tspan x="0" y="0" font-family="Connections Cond Light,Arial Narrow" font-weight="normal" font-style="normal" font-size="105.3333" fill="#000000">2%</tspan></text></g></g></g></g><g><g clip-path="url(#clip010)"><g><g transform="translate(1431.5,1053.584)"><text><tspan x="0" y="0" font-family="Connections Cond Light,Arial Narrow" font-weight="normal" font-style="normal" font-size="105.3333" fill="#ffffff">58%</tspan></text></g></g></g></g><g><g clip-path="url(#clip011)"><g><g transform="translate(2253.407,911.9072)"><text><tspan x="0" y="0" font-family="Connections Cond Light,Arial Narrow" font-weight="normal" font-style="normal" font-size="105.3333" fill="#ffffff">76%</tspan></text></g></g></g></g><g><g clip-path="url(#clip012)"><g><g transform="translate(67.33334,1506.458)"><text><tspan x="0" y="0" font-family="Connections Cond Light,Arial Narrow" font-weight="normal" font-style="normal" font-size="105.3333" fill="#000000">0%</tspan></text></g></g></g></g><g><g clip-path="url(#clip013)"><g><g transform="translate(16.66667,1034.203)"><text><tspan x="0" y="0" font-family="Connections Cond Light,Arial Narrow" font-weight="normal" font-style="normal" font-size="105.3333" fill="#000000">30%</tspan></text></g></g></g></g><g><g clip-path="url(#clip014)"><g><g transform="translate(16.66667,561.9493)"><text><tspan x="0" y="0" font-family="Connections Cond Light,Arial Narrow" font-weight="normal" font-style="normal" font-size="105.3333" fill="#000000">60%</tspan></text></g></g></g></g><g><g clip-path="url(#clip015)"><g><g transform="translate(16.66667,89.69466)"><text><tspan x="0" y="0" font-family="Connections Cond Light,Arial Narrow" font-weight="normal" font-style="normal" font-size="105.3333" fill="#000000">90%</tspan></text></g></g></g></g><g><g clip-path="url(#clip016)"><g><g transform="translate(598.343,1632.707)"><text><tspan x="0" y="0" font-family="Connections Cond Light,Arial Narrow" font-weight="normal" font-style="normal" font-size="105.3333" fill="#000000">2014</tspan></text></g></g></g></g><g><g clip-path="url(#clip017)"><g><g transform="translate(1420.25,1632.707)"><text><tspan x="0" y="0" font-family="Connections Cond Light,Arial Narrow" font-weight="normal" font-style="normal" font-size="105.3333" fill="#000000">2024</tspan></text></g></g></g></g><g><g clip-path="url(#clip018)"><g><g transform="translate(2217.991,1632.707)"><text><tspan x="0" y="0" font-family="Connections Cond Light,Arial Narrow" font-weight="normal" font-style="normal" font-size="105.3333" fill="#000000">2030E</tspan></text></g></g></g></g><g><g clip-path="url(#clip019)"><g><g transform="translate(829.7979,306.9799)"><text><tspan x="0" y="0" font-family="Connections,Arial" font-weight="normal" font-style="normal" font-size="100" fill="#009cde">2016: UPI </tspan></text></g></g></g></g><g><g clip-path="url(#clip020)"><g><g transform="translate(901.7979,424.3132)"><text><tspan x="0" y="0" font-family="Connections,Arial" font-weight="normal" font-style="normal" font-size="100" fill="#009cde">launch</tspan></text></g></g></g></g><g clip-path="url(#clip021)"><g transform="matrix(0.000656168,0,0,0.000656168,1041.333,508)"><path d="M0,0 L12634.67,1488093 " stroke-width="12700" stroke-linejoin="round" stroke-miterlimit="13.33333" stroke="#009cde" stroke-dashoffset="0" stroke-dasharray="50800 38100" fill="none" fill-rule="evenodd" /></g></g><g><g clip-path="url(#clip022)"><g><g transform="translate(1149.099,161.119)"><text><tspan x="0" y="0" font-family="Connections,Arial" font-weight="normal" font-style="normal" font-size="100" fill="#ff0000">+12% </tspan></text></g></g></g></g><g><g clip-path="url(#clip023)"><g><g transform="translate(1423.766,161.119)"><text><tspan x="0" y="0" font-family="Connections,Arial" font-weight="normal" font-style="normal" font-size="100" fill="#ff0000">2024</tspan></text></g></g></g></g><g><g clip-path="url(#clip024)"><g><g transform="translate(1642.433,161.119)"><text><tspan x="0" y="0" font-family="Connections,Arial" font-weight="normal" font-style="normal" font-size="100" fill="#ff0000">-</tspan></text></g></g></g></g><g><g clip-path="url(#clip025)"><g><g transform="translate(1678.433,161.119)"><text><tspan x="0" y="0" font-family="Connections,Arial" font-weight="normal" font-style="normal" font-size="100" fill="#ff0000">2030E CAGR</tspan></text></g></g></g></g><g clip-path="url(#clip026)"><g transform="matrix(0.000656168,0,0,-0.000656168,1566.667,483.5564)"><g><path d="M0,0 L1069374,457750.2 " stroke-width="16933.33" stroke-linejoin="round" stroke-miterlimit="13.33333" stroke="#ff0000" fill="none" fill-rule="evenodd" /><path d="M1073797,404385.3 L1147209,491068 L1033816,497787.9 Z" fill="#ff0000" fill-rule="nonzero" /></g></g></g><g /></g></g></g></g></g></g></g></g></g></svg>