<?xml version="1.0" encoding="UTF-8" standalone="no"?>
<svg xmlns:dc="http://purl.org/dc/elements/1.1/" xmlns:cc="http://creativecommons.org/ns#" xmlns:rdf="http://www.w3.org/1999/02/22-rdf-syntax-ns#" xmlns:svg="http://www.w3.org/2000/svg" xmlns="http://www.w3.org/2000/svg" viewBox="63.2875 128.3 926.1125 487.575" height="487.575" width="926.1125" xml:space="preserve" version="1.1" id="svg2">
  <metadata id="metadata8">
    <rdf:RDF>
      <cc:Work rdf:about="">
        <dc:format>image/svg+xml</dc:format>
        <dc:type rdf:resource="http://purl.org/dc/dcmitype/StillImage"/>
      </cc:Work>
    </rdf:RDF>
  </metadata>
  <defs id="defs6">
    <clipPath id="clipPath16" clipPathUnits="userSpaceOnUse">
      <path style="clip-rule:evenodd" id="path18" d="m 50.4,102.6 741.12,0 0,390.12 -741.12,0 0,-390.12 z"/>
    </clipPath>
    <clipPath id="clipPath28" clipPathUnits="userSpaceOnUse">
      <path style="clip-rule:evenodd" id="path30" d="m 50.473,102.75 740.88,0 0,389.86 -740.88,0 0,-389.86 z"/>
    </clipPath>
    <clipPath id="clipPath60" clipPathUnits="userSpaceOnUse">
      <path style="clip-rule:evenodd" id="path62" d="m 50.52,102.72 740.88,0 0,389.88 -740.88,0 0,-389.88 z"/>
    </clipPath>
    <clipPath id="clipPath72" clipPathUnits="userSpaceOnUse">
      <path style="clip-rule:evenodd" id="path74" d="m 50.52,102.72 740.88,0 0,389.88 -740.88,0 0,-389.88 z"/>
    </clipPath>
    <clipPath id="clipPath84" clipPathUnits="userSpaceOnUse">
      <path style="clip-rule:evenodd" id="path86" d="m 50.52,102.72 740.88,0 0,389.88 -740.88,0 0,-389.88 z"/>
    </clipPath>
    <clipPath id="clipPath96" clipPathUnits="userSpaceOnUse">
      <path style="clip-rule:evenodd" id="path98" d="m 50.52,102.72 740.88,0 0,389.88 -740.88,0 0,-389.88 z"/>
    </clipPath>
    <clipPath id="clipPath108" clipPathUnits="userSpaceOnUse">
      <path style="clip-rule:evenodd" id="path110" d="m 50.52,102.72 740.88,0 0,389.88 -740.88,0 0,-389.88 z"/>
    </clipPath>
    <clipPath id="clipPath120" clipPathUnits="userSpaceOnUse">
      <path style="clip-rule:evenodd" id="path122" d="m 50.52,102.72 740.88,0 0,389.88 -740.88,0 0,-389.88 z"/>
    </clipPath>
    <clipPath id="clipPath132" clipPathUnits="userSpaceOnUse">
      <path style="clip-rule:evenodd" id="path134" d="m 50.52,102.72 740.88,0 0,389.88 -740.88,0 0,-389.88 z"/>
    </clipPath>
    <clipPath id="clipPath144" clipPathUnits="userSpaceOnUse">
      <path style="clip-rule:evenodd" id="path146" d="m 50.52,102.72 740.88,0 0,389.88 -740.88,0 0,-389.88 z"/>
    </clipPath>
    <clipPath id="clipPath156" clipPathUnits="userSpaceOnUse">
      <path style="clip-rule:evenodd" id="path158" d="m 50.52,102.72 740.88,0 0,389.88 -740.88,0 0,-389.88 z"/>
    </clipPath>
    <clipPath id="clipPath168" clipPathUnits="userSpaceOnUse">
      <path style="clip-rule:evenodd" id="path170" d="m 50.52,102.72 740.88,0 0,389.88 -740.88,0 0,-389.88 z"/>
    </clipPath>
    <clipPath id="clipPath180" clipPathUnits="userSpaceOnUse">
      <path style="clip-rule:evenodd" id="path182" d="m 50.52,102.72 740.88,0 0,389.88 -740.88,0 0,-389.88 z"/>
    </clipPath>
    <clipPath id="clipPath192" clipPathUnits="userSpaceOnUse">
      <path style="clip-rule:evenodd" id="path194" d="m 50.52,102.72 740.88,0 0,389.88 -740.88,0 0,-389.88 z"/>
    </clipPath>
    <clipPath id="clipPath204" clipPathUnits="userSpaceOnUse">
      <path style="clip-rule:evenodd" id="path206" d="m 50.52,102.72 740.88,0 0,389.88 -740.88,0 0,-389.88 z"/>
    </clipPath>
    <clipPath id="clipPath216" clipPathUnits="userSpaceOnUse">
      <path style="clip-rule:evenodd" id="path218" d="m 50.52,102.72 740.88,0 0,389.88 -740.88,0 0,-389.88 z"/>
    </clipPath>
    <clipPath id="clipPath228" clipPathUnits="userSpaceOnUse">
      <path style="clip-rule:evenodd" id="path230" d="m 50.52,102.72 740.88,0 0,389.88 -740.88,0 0,-389.88 z"/>
    </clipPath>
    <clipPath id="clipPath240" clipPathUnits="userSpaceOnUse">
      <path style="clip-rule:evenodd" id="path242" d="m 50.52,102.72 740.88,0 0,389.88 -740.88,0 0,-389.88 z"/>
    </clipPath>
    <clipPath id="clipPath252" clipPathUnits="userSpaceOnUse">
      <path style="clip-rule:evenodd" id="path254" d="m 50.52,102.72 740.88,0 0,389.88 -740.88,0 0,-389.88 z"/>
    </clipPath>
    <clipPath id="clipPath264" clipPathUnits="userSpaceOnUse">
      <path style="clip-rule:evenodd" id="path266" d="m 50.52,102.72 740.88,0 0,389.88 -740.88,0 0,-389.88 z"/>
    </clipPath>
    <clipPath id="clipPath276" clipPathUnits="userSpaceOnUse">
      <path style="clip-rule:evenodd" id="path278" d="m 50.52,102.72 740.88,0 0,389.88 -740.88,0 0,-389.88 z"/>
    </clipPath>
    <clipPath id="clipPath288" clipPathUnits="userSpaceOnUse">
      <path style="clip-rule:evenodd" id="path290" d="m 50.52,102.72 740.88,0 0,389.88 -740.88,0 0,-389.88 z"/>
    </clipPath>
    <clipPath id="clipPath300" clipPathUnits="userSpaceOnUse">
      <path style="clip-rule:evenodd" id="path302" d="m 50.52,102.72 740.88,0 0,389.88 -740.88,0 0,-389.88 z"/>
    </clipPath>
    <clipPath id="clipPath312" clipPathUnits="userSpaceOnUse">
      <path style="clip-rule:evenodd" id="path314" d="m 50.52,102.72 740.88,0 0,389.88 -740.88,0 0,-389.88 z"/>
    </clipPath>
    <clipPath id="clipPath324" clipPathUnits="userSpaceOnUse">
      <path style="clip-rule:evenodd" id="path326" d="m 50.52,102.72 740.88,0 0,389.88 -740.88,0 0,-389.88 z"/>
    </clipPath>
    <clipPath id="clipPath340" clipPathUnits="userSpaceOnUse">
      <path style="clip-rule:evenodd" id="path342" d="m 50.52,102.72 740.88,0 0,389.88 -740.88,0 0,-389.88 z"/>
    </clipPath>
    <clipPath id="clipPath354" clipPathUnits="userSpaceOnUse">
      <path style="clip-rule:evenodd" id="path356" d="m 50.52,102.72 740.88,0 0,389.88 -740.88,0 0,-389.88 z"/>
    </clipPath>
    <clipPath id="clipPath370" clipPathUnits="userSpaceOnUse">
      <path style="clip-rule:evenodd" id="path372" d="m 50.52,102.72 740.88,0 0,389.88 -740.88,0 0,-389.88 z"/>
    </clipPath>
  </defs>
  <g transform="matrix(1.25,0,0,-1.25,0,744.15)" id="g10">
    <g id="g12">
      <g clip-path="url(#clipPath16)" id="g14">
        <path id="path20" style="fill:none;stroke:#000000;stroke-width:0.14;stroke-linecap:butt;stroke-linejoin:miter;stroke-miterlimit:10;stroke-dasharray:none;stroke-opacity:0" d="m 50.7,102.69 740.77,0 0,389.92 -740.77,0 0,-389.92 z"/>
      </g>
    </g>
    <path id="path22" style="fill:#ffffff;fill-opacity:1;fill-rule:evenodd;stroke:none" d="m 50.7,102.69 740.77,0 0,389.92 -740.77,0 0,-389.92 z"/>
    <g id="g24">
      <g clip-path="url(#clipPath28)" id="g26">
        <path id="path32" style="fill:none;stroke:#808080;stroke-width:2.54450011;stroke-linecap:round;stroke-linejoin:round;stroke-miterlimit:10;stroke-dasharray:none;stroke-opacity:1" d="m 121.92,245.73 669.55,0"/>
      </g>
    </g>
    <path id="path34" style="fill:none;stroke:#c6d9e2;stroke-width:3.05340004;stroke-linecap:round;stroke-linejoin:round;stroke-miterlimit:10;stroke-dasharray:none;stroke-opacity:1" d="m 149.81,382.93 55.78,-89.9 55.93,40.55 55.7,-130.15 55.69,58.09 55.94,64.98 55.69,-105.28 55.94,45.68 55.7,55.69 55.69,-103.57 55.94,63.51 55.76,36.64"/>
    <path id="path36" style="fill:none;stroke:#137cb1;stroke-width:3.05340004;stroke-linecap:round;stroke-linejoin:round;stroke-miterlimit:10;stroke-dasharray:none;stroke-opacity:1" d="m 149.81,333.09 55.78,23.18 55.93,-12.67 55.7,-161.77 55.69,78.47 55.94,59.36 55.69,-85.25 55.94,35.91 55.7,51.29 55.69,-95.51 55.94,46.9 55.76,48.37"/>
    <path id="path38" style="fill:none;stroke:#c00000;stroke-width:3.05340004;stroke-linecap:round;stroke-linejoin:round;stroke-miterlimit:10;stroke-dasharray:none;stroke-opacity:1" d="m 149.81,436.41 55.78,-169.51 55.93,85.49 55.7,-154.67 55.69,64.29 55.94,69.13 55.69,-123.85 55.85,42.26"/>
    <path id="path40" style="fill:#c00000;fill-opacity:1;fill-rule:nonzero;stroke:none" d="m 149.87,442.53 6.11,-6.11 -6.11,-6.11 -6.1,6.11 6.1,6.11 z"/>
    <path id="path42" style="fill:#c00000;fill-opacity:1;fill-rule:nonzero;stroke:none" d="m 205.57,273 6.1,-6.1 -6.1,-6.11 -6.11,6.11 6.11,6.1 z"/>
    <path id="path44" style="fill:#c00000;fill-opacity:1;fill-rule:nonzero;stroke:none" d="m 261.51,358.5 6.1,-6.11 -6.1,-6.11 -6.11,6.11 6.11,6.11 z"/>
    <path id="path46" style="fill:#c00000;fill-opacity:1;fill-rule:nonzero;stroke:none" d="m 317.2,203.87 6.11,-6.1 -6.11,-6.11 -6.11,6.11 6.11,6.1 z"/>
    <path id="path48" style="fill:#c00000;fill-opacity:1;fill-rule:nonzero;stroke:none" d="m 372.89,268.12 6.11,-6.11 -6.11,-6.11 -6.1,6.11 6.1,6.11 z"/>
    <path id="path50" style="fill:#c00000;fill-opacity:1;fill-rule:nonzero;stroke:none" d="m 428.83,337.25 6.11,-6.11 -6.11,-6.11 -6.1,6.11 6.1,6.11 z"/>
    <path id="path52" style="fill:#c00000;fill-opacity:1;fill-rule:nonzero;stroke:none" d="m 484.53,213.4 6.1,-6.11 -6.1,-6.1 -6.11,6.1 6.11,6.11 z"/>
    <path id="path54" style="fill:#c00000;fill-opacity:1;fill-rule:nonzero;stroke:none" d="m 540.46,255.66 6.11,-6.11 -6.11,-6.1 -6.1,6.1 6.1,6.11 z"/>
    <g id="g56">
      <g clip-path="url(#clipPath60)" id="g58"><text id="text64" style="font-variant:normal;font-weight:normal;font-size:18.33600044px;font-family:'Roboto Condensed';-inkscape-font-specification:RobotoCondensed-Regular;writing-mode:lr-tb;fill:#000000;fill-opacity:1;fill-rule:nonzero;stroke:none" transform="matrix(1,0,0,-1,53.76,136.58)"><tspan id="tspan66" y="0" x="0 5.8308482 14.888832 18.317663 27.375648 36.433632 45.491615">(3,000)</tspan></text>
</g>
    </g>
    <g id="g68">
      <g clip-path="url(#clipPath72)" id="g70"><text id="text76" style="font-variant:normal;font-weight:normal;font-size:18.31200027px;font-family:'Roboto Condensed';-inkscape-font-specification:RobotoCondensed-Regular;writing-mode:lr-tb;fill:#000000;fill-opacity:1;fill-rule:nonzero;stroke:none" transform="matrix(1,0,0,-1,53.76,171.12)"><tspan id="tspan78" y="0" x="0 5.8415279 14.887656 18.330313 27.37644 36.422569 45.468697">(2,000)</tspan></text>
</g>
    </g>
    <g id="g80">
      <g clip-path="url(#clipPath84)" id="g82"><text id="text88" style="font-variant:normal;font-weight:normal;font-size:18.33600044px;font-family:'Roboto Condensed';-inkscape-font-specification:RobotoCondensed-Regular;writing-mode:lr-tb;fill:#000000;fill-opacity:1;fill-rule:nonzero;stroke:none" transform="matrix(1,0,0,-1,53.76,205.68)"><tspan id="tspan90" y="0" x="0 5.8308482 14.888832 18.317663 27.375648 36.433632 45.491615">(1,000)</tspan></text>
</g>
    </g>
    <g id="g92">
      <g clip-path="url(#clipPath96)" id="g94"><text id="text100" style="font-variant:normal;font-weight:normal;font-size:18.31200027px;font-family:'Roboto Condensed';-inkscape-font-specification:RobotoCondensed-Regular;writing-mode:lr-tb;fill:#000000;fill-opacity:1;fill-rule:nonzero;stroke:none" transform="matrix(1,0,0,-1,91.896,240.22)"><tspan id="tspan102" y="0" x="0">0</tspan></text>
</g>
    </g>
    <g id="g104">
      <g clip-path="url(#clipPath108)" id="g106"><text id="text112" style="font-variant:normal;font-weight:normal;font-size:18.31200027px;font-family:'Roboto Condensed';-inkscape-font-specification:RobotoCondensed-Regular;writing-mode:lr-tb;fill:#000000;fill-opacity:1;fill-rule:nonzero;stroke:none" transform="matrix(1,0,0,-1,61.152,274.78)"><tspan id="tspan114" y="0" x="0 9.0461283 12.708528 21.754656 30.800783">1,000</tspan></text>
</g>
    </g>
    <g id="g116">
      <g clip-path="url(#clipPath120)" id="g118"><text id="text124" style="font-variant:normal;font-weight:normal;font-size:18.33600044px;font-family:'Roboto Condensed';-inkscape-font-specification:RobotoCondensed-Regular;writing-mode:lr-tb;fill:#000000;fill-opacity:1;fill-rule:nonzero;stroke:none" transform="matrix(1,0,0,-1,61.152,309.34)"><tspan id="tspan126" y="0" x="0 9.0579844 12.706848 21.764832 30.822817">2,000</tspan></text>
</g>
    </g>
    <g id="g128">
      <g clip-path="url(#clipPath132)" id="g130"><text id="text136" style="font-variant:normal;font-weight:normal;font-size:18.31200027px;font-family:'Roboto Condensed';-inkscape-font-specification:RobotoCondensed-Regular;writing-mode:lr-tb;fill:#000000;fill-opacity:1;fill-rule:nonzero;stroke:none" transform="matrix(1,0,0,-1,61.152,343.87)"><tspan id="tspan138" y="0" x="0 9.0461283 12.708528 21.754656 30.800783">3,000</tspan></text>
</g>
    </g>
    <g id="g140">
      <g clip-path="url(#clipPath144)" id="g142"><text id="text148" style="font-variant:normal;font-weight:normal;font-size:18.33600044px;font-family:'Roboto Condensed';-inkscape-font-specification:RobotoCondensed-Regular;writing-mode:lr-tb;fill:#000000;fill-opacity:1;fill-rule:nonzero;stroke:none" transform="matrix(1,0,0,-1,61.152,378.43)"><tspan id="tspan150" y="0" x="0 9.0579844 12.706848 21.764832 30.822817">4,000</tspan></text>
</g>
    </g>
    <g id="g152">
      <g clip-path="url(#clipPath156)" id="g154"><text id="text160" style="font-variant:normal;font-weight:normal;font-size:18.31200027px;font-family:'Roboto Condensed';-inkscape-font-specification:RobotoCondensed-Regular;writing-mode:lr-tb;fill:#000000;fill-opacity:1;fill-rule:nonzero;stroke:none" transform="matrix(1,0,0,-1,61.152,412.97)"><tspan id="tspan162" y="0" x="0 9.0461283 12.708528 21.754656 30.800783">5,000</tspan></text>
</g>
    </g>
    <g id="g164">
      <g clip-path="url(#clipPath168)" id="g166"><text id="text172" style="font-variant:normal;font-weight:normal;font-size:18.33600044px;font-family:'Roboto Condensed';-inkscape-font-specification:RobotoCondensed-Regular;writing-mode:lr-tb;fill:#000000;fill-opacity:1;fill-rule:nonzero;stroke:none" transform="matrix(1,0,0,-1,61.152,447.53)"><tspan id="tspan174" y="0" x="0 9.0579844 12.706848 21.764832 30.822817">6,000</tspan></text>
</g>
    </g>
    <g id="g176">
      <g clip-path="url(#clipPath180)" id="g178"><text id="text184" style="font-variant:normal;font-weight:normal;font-size:18.31200027px;font-family:'Roboto Condensed';-inkscape-font-specification:RobotoCondensed-Regular;writing-mode:lr-tb;fill:#000000;fill-opacity:1;fill-rule:nonzero;stroke:none" transform="matrix(1,0,0,-1,136.58,113.06)"><tspan id="tspan186" y="0" x="0 8.844696 17.616144">Jan</tspan></text>
</g>
    </g>
    <g id="g188">
      <g clip-path="url(#clipPath192)" id="g190"><text id="text196" style="font-variant:normal;font-weight:normal;font-size:18.31200027px;font-family:'Roboto Condensed';-inkscape-font-specification:RobotoCondensed-Regular;writing-mode:lr-tb;fill:#000000;fill-opacity:1;fill-rule:nonzero;stroke:none" transform="matrix(1,0,0,-1,192.43,113.06)"><tspan id="tspan198" y="0" x="0 8.7897596 17.359776">Feb</tspan></text>
</g>
    </g>
    <g id="g200">
      <g clip-path="url(#clipPath204)" id="g202"><text id="text208" style="font-variant:normal;font-weight:normal;font-size:18.31200027px;font-family:'Roboto Condensed';-inkscape-font-specification:RobotoCondensed-Regular;writing-mode:lr-tb;fill:#000000;fill-opacity:1;fill-rule:nonzero;stroke:none" transform="matrix(1,0,0,-1,247.34,113.06)"><tspan id="tspan210" y="0" x="0 13.898808 22.670256">Mar</tspan></text>
</g>
    </g>
    <g id="g212">
      <g clip-path="url(#clipPath216)" id="g214"><text id="text220" style="font-variant:normal;font-weight:normal;font-size:18.31200027px;font-family:'Roboto Condensed';-inkscape-font-specification:RobotoCondensed-Regular;writing-mode:lr-tb;fill:#000000;fill-opacity:1;fill-rule:nonzero;stroke:none" transform="matrix(1,0,0,-1,304.66,113.06)"><tspan id="tspan222" y="0" x="0 10.547712 19.575527">Apr</tspan></text>
</g>
    </g>
    <g id="g224">
      <g clip-path="url(#clipPath228)" id="g226"><text id="text232" style="font-variant:normal;font-weight:normal;font-size:18.31200027px;font-family:'Roboto Condensed';-inkscape-font-specification:RobotoCondensed-Regular;writing-mode:lr-tb;fill:#000000;fill-opacity:1;fill-rule:nonzero;stroke:none" transform="matrix(1,0,0,-1,357.91,113.06)"><tspan id="tspan234" y="0" x="0 13.91712 22.688568">May</tspan></text>
</g>
    </g>
    <g id="g236">
      <g clip-path="url(#clipPath240)" id="g238"><text id="text244" style="font-variant:normal;font-weight:normal;font-size:18.31200027px;font-family:'Roboto Condensed';-inkscape-font-specification:RobotoCondensed-Regular;writing-mode:lr-tb;fill:#000000;fill-opacity:1;fill-rule:nonzero;stroke:none" transform="matrix(1,0,0,-1,415.56,113.06)"><tspan id="tspan246" y="0" x="0 8.844696 17.835888">Jun</tspan></text>
</g>
    </g>
    <g id="g248">
      <g clip-path="url(#clipPath252)" id="g250"><text id="text256" style="font-variant:normal;font-weight:normal;font-size:18.31200027px;font-family:'Roboto Condensed';-inkscape-font-specification:RobotoCondensed-Regular;writing-mode:lr-tb;fill:#000000;fill-opacity:1;fill-rule:nonzero;stroke:none" transform="matrix(1,0,0,-1,473.71,113.06)"><tspan id="tspan258" y="0" x="0 8.7897596 17.799265">Jul</tspan></text>
</g>
    </g>
    <g id="g260">
      <g clip-path="url(#clipPath264)" id="g262"><text id="text268" style="font-variant:normal;font-weight:normal;font-size:18.31200027px;font-family:'Roboto Condensed';-inkscape-font-specification:RobotoCondensed-Regular;writing-mode:lr-tb;fill:#000000;fill-opacity:1;fill-rule:nonzero;stroke:none" transform="matrix(1,0,0,-1,526.25,113.06)"><tspan id="tspan270" y="0" x="0 10.488012 19.273008">Aug</tspan></text>
</g>
    </g>
    <g id="g272">
      <g clip-path="url(#clipPath276)" id="g274"><text id="text280" style="font-variant:normal;font-weight:normal;font-size:18.31200027px;font-family:'Roboto Condensed';-inkscape-font-specification:RobotoCondensed-Regular;writing-mode:lr-tb;fill:#000000;fill-opacity:1;fill-rule:nonzero;stroke:none" transform="matrix(1,0,0,-1,582.7,113.06)"><tspan id="tspan282" y="0" x="0 9.4856157 18.055632">Sep</tspan></text>
</g>
    </g>
    <g id="g284">
      <g clip-path="url(#clipPath288)" id="g286"><text id="text292" style="font-variant:normal;font-weight:normal;font-size:18.31200027px;font-family:'Roboto Condensed';-inkscape-font-specification:RobotoCondensed-Regular;writing-mode:lr-tb;fill:#000000;fill-opacity:1;fill-rule:nonzero;stroke:none" transform="matrix(1,0,0,-1,639.62,113.06)"><tspan id="tspan294" y="0" x="0 11.005512 19.520592">Oct</tspan></text>
</g>
    </g>
    <g id="g296">
      <g clip-path="url(#clipPath300)" id="g298"><text id="text304" style="font-variant:normal;font-weight:normal;font-size:18.31200027px;font-family:'Roboto Condensed';-inkscape-font-specification:RobotoCondensed-Regular;writing-mode:lr-tb;fill:#000000;fill-opacity:1;fill-rule:nonzero;stroke:none" transform="matrix(1,0,0,-1,693.67,113.06)"><tspan id="tspan306" y="0" x="0 11.26188 20.527752">Nov</tspan></text>
</g>
    </g>
    <g id="g308">
      <g clip-path="url(#clipPath312)" id="g310"><text id="text316" style="font-variant:normal;font-weight:normal;font-size:18.31200027px;font-family:'Roboto Condensed';-inkscape-font-specification:RobotoCondensed-Regular;writing-mode:lr-tb;fill:#000000;fill-opacity:1;fill-rule:nonzero;stroke:none" transform="matrix(1,0,0,-1,749.93,113.06)"><tspan id="tspan318" y="0" x="0 10.492776 19.062792">Dec</tspan></text>
</g>
    </g>
    <g id="g320">
      <g clip-path="url(#clipPath324)" id="g322"><text id="text328" style="font-variant:normal;font-weight:bold;font-size:22.4640007px;font-family:'Roboto Condensed';-inkscape-font-specification:RobotoCondensed-Bold;writing-mode:lr-tb;fill:#000000;fill-opacity:1;fill-rule:nonzero;stroke:none" transform="matrix(1,0,0,-1,269.42,456.05)"><tspan id="tspan330" y="0" x="0 13.680576 24.440832 38.660545 43.759872 57.440449 68.672447 79.724739 89.923393 100.68365 111.73594 122.92301 128.58394 139.79347 144.69063 157.38278 168.14304 179.39751 190.6295 200.87309 206.53401 213.31815 223.56172 229.15526 233.80531 246.25037 263.34546 276.03763 280.93478 292.16678">New Household Deposits, RMB bn</tspan></text>
</g>
    </g>
    <path id="path332" style="fill:#ffffff;fill-opacity:1;fill-rule:evenodd;stroke:none" d="m 232.01,401.22 378.15,0 0,33.978 -378.15,0 0,-33.978 z"/>
    <path id="path334" style="fill:none;stroke:#c6d9e2;stroke-width:3.05340004;stroke-linecap:round;stroke-linejoin:round;stroke-miterlimit:10;stroke-dasharray:none;stroke-opacity:1" d="m 254.18,418.21 39.08,0"/>
    <g id="g336">
      <g clip-path="url(#clipPath340)" id="g338"><text id="text344" style="font-variant:normal;font-weight:normal;font-size:18.33600044px;font-family:'Roboto Condensed';-inkscape-font-specification:RobotoCondensed-Regular;writing-mode:lr-tb;fill:#000000;fill-opacity:1;fill-rule:nonzero;stroke:none" transform="matrix(1,0,0,-1,297.43,412.75)"><tspan id="tspan346" y="0" x="0 10.231488 19.014433 27.320641 32.729759 36.855358 45.913345 55.411392 59.793697 70.355232 78.1297 87.169342">Past 5Y Avg.</tspan></text>
</g>
    </g>
    <path id="path348" style="fill:none;stroke:#137cb1;stroke-width:3.05340004;stroke-linecap:round;stroke-linejoin:round;stroke-miterlimit:10;stroke-dasharray:none;stroke-opacity:1" d="m 414.96,418.21 39.09,0"/>
    <g id="g350">
      <g clip-path="url(#clipPath354)" id="g352"><text id="text358" style="font-variant:normal;font-weight:normal;font-size:18.33600044px;font-family:'Roboto Condensed';-inkscape-font-specification:RobotoCondensed-Regular;writing-mode:lr-tb;fill:#000000;fill-opacity:1;fill-rule:nonzero;stroke:none" transform="matrix(1,0,0,-1,458.23,412.75)"><tspan id="tspan360" y="0" x="0 9.0480042 18.096008 27.144012">2024</tspan></text>
</g>
    </g>
    <path id="path362" style="fill:none;stroke:#c00000;stroke-width:3.05340004;stroke-linecap:round;stroke-linejoin:round;stroke-miterlimit:10;stroke-dasharray:none;stroke-opacity:1" d="m 515.77,418.21 39.08,0"/>
    <path id="path364" style="fill:#c00000;fill-opacity:1;fill-rule:nonzero;stroke:none" d="m 535.11,423.47 5.13,-5.12 -5.13,-5.13 -5.13,5.13 5.13,5.12 z"/>
    <g id="g366">
      <g clip-path="url(#clipPath370)" id="g368"><text id="text374" style="font-variant:normal;font-weight:normal;font-size:18.33600044px;font-family:'Roboto Condensed';-inkscape-font-specification:RobotoCondensed-Regular;writing-mode:lr-tb;fill:#000000;fill-opacity:1;fill-rule:nonzero;stroke:none" transform="matrix(1,0,0,-1,559.06,412.75)"><tspan id="tspan376" y="0" x="0 9.023984 18.047968 27.071953">2025</tspan></text>
</g>
    </g>
  </g>
</svg>
