<?xml version="1.0" encoding="UTF-8" standalone="no"?>
<svg xmlns:dc="http://purl.org/dc/elements/1.1/" xmlns:cc="http://creativecommons.org/ns#" xmlns:rdf="http://www.w3.org/1999/02/22-rdf-syntax-ns#" xmlns:svg="http://www.w3.org/2000/svg" xmlns="http://www.w3.org/2000/svg" viewBox="2.4 6.1526367 603 166.53486" height="166.53486" width="603" xml:space="preserve" version="1.1" id="svg2">
  <metadata id="metadata8">
    <rdf:RDF>
      <cc:Work rdf:about="">
        <dc:format>image/svg+xml</dc:format>
        <dc:type rdf:resource="http://purl.org/dc/dcmitype/StillImage"/>
      </cc:Work>
    </rdf:RDF>
  </metadata>
  <defs id="defs6">
    <clipPath id="clipPath16" clipPathUnits="userSpaceOnUse">
      <path style="clip-rule:evenodd" id="path18" d="m 1.92,473.86 482.33,0 0,137.18 -482.33,0 0,-137.18 z"/>
    </clipPath>
    <clipPath id="clipPath28" clipPathUnits="userSpaceOnUse">
      <path style="clip-rule:evenodd" id="path30" d="m 1.92,473.86 482.33,0 0,137.18 -482.33,0 0,-137.18 z"/>
    </clipPath>
    <clipPath id="clipPath38" clipPathUnits="userSpaceOnUse">
      <path style="clip-rule:evenodd" id="path40" d="m 1.92,473.86 482.33,0 0,137.18 -482.33,0 0,-137.18 z"/>
    </clipPath>
    <clipPath id="clipPath50" clipPathUnits="userSpaceOnUse">
      <path style="clip-rule:evenodd" id="path52" d="m 1.92,581.52 482.33,0 0,14.28 -482.33,0 0,-14.28 z"/>
    </clipPath>
    <clipPath id="clipPath62" clipPathUnits="userSpaceOnUse">
      <path style="clip-rule:evenodd" id="path64" d="m 1.92,566.28 482.33,0 0,14.28 -482.33,0 0,-14.28 z"/>
    </clipPath>
    <clipPath id="clipPath74" clipPathUnits="userSpaceOnUse">
      <path style="clip-rule:evenodd" id="path76" d="m 1.92,551.02 482.33,0 0,14.304 -482.33,0 0,-14.304 z"/>
    </clipPath>
    <clipPath id="clipPath86" clipPathUnits="userSpaceOnUse">
      <path style="clip-rule:evenodd" id="path88" d="m 1.92,551.02 482.33,0 0,14.304 -482.33,0 0,-14.304 z"/>
    </clipPath>
    <clipPath id="clipPath98" clipPathUnits="userSpaceOnUse">
      <path style="clip-rule:evenodd" id="path100" d="m 1.92,551.02 482.33,0 0,14.304 -482.33,0 0,-14.304 z"/>
    </clipPath>
    <clipPath id="clipPath110" clipPathUnits="userSpaceOnUse">
      <path style="clip-rule:evenodd" id="path112" d="m 1.92,551.02 482.33,0 0,14.304 -482.33,0 0,-14.304 z"/>
    </clipPath>
    <clipPath id="clipPath122" clipPathUnits="userSpaceOnUse">
      <path style="clip-rule:evenodd" id="path124" d="m 1.92,551.02 482.33,0 0,14.304 -482.33,0 0,-14.304 z"/>
    </clipPath>
    <clipPath id="clipPath134" clipPathUnits="userSpaceOnUse">
      <path style="clip-rule:evenodd" id="path136" d="m 1.92,551.02 482.33,0 0,14.304 -482.33,0 0,-14.304 z"/>
    </clipPath>
    <clipPath id="clipPath146" clipPathUnits="userSpaceOnUse">
      <path style="clip-rule:evenodd" id="path148" d="m 1.92,551.02 482.33,0 0,14.304 -482.33,0 0,-14.304 z"/>
    </clipPath>
    <clipPath id="clipPath158" clipPathUnits="userSpaceOnUse">
      <path style="clip-rule:evenodd" id="path160" d="m 1.92,535.78 482.33,0 0,14.28 -482.33,0 0,-14.28 z"/>
    </clipPath>
    <clipPath id="clipPath170" clipPathUnits="userSpaceOnUse">
      <path style="clip-rule:evenodd" id="path172" d="m 1.92,535.78 482.33,0 0,14.28 -482.33,0 0,-14.28 z"/>
    </clipPath>
    <clipPath id="clipPath182" clipPathUnits="userSpaceOnUse">
      <path style="clip-rule:evenodd" id="path184" d="m 1.92,535.78 482.33,0 0,14.28 -482.33,0 0,-14.28 z"/>
    </clipPath>
    <clipPath id="clipPath194" clipPathUnits="userSpaceOnUse">
      <path style="clip-rule:evenodd" id="path196" d="m 1.92,535.78 482.33,0 0,14.28 -482.33,0 0,-14.28 z"/>
    </clipPath>
    <clipPath id="clipPath206" clipPathUnits="userSpaceOnUse">
      <path style="clip-rule:evenodd" id="path208" d="m 1.92,535.78 482.33,0 0,14.28 -482.33,0 0,-14.28 z"/>
    </clipPath>
    <clipPath id="clipPath218" clipPathUnits="userSpaceOnUse">
      <path style="clip-rule:evenodd" id="path220" d="m 1.92,535.78 482.33,0 0,14.28 -482.33,0 0,-14.28 z"/>
    </clipPath>
    <clipPath id="clipPath230" clipPathUnits="userSpaceOnUse">
      <path style="clip-rule:evenodd" id="path232" d="m 1.92,535.78 482.33,0 0,14.28 -482.33,0 0,-14.28 z"/>
    </clipPath>
    <clipPath id="clipPath242" clipPathUnits="userSpaceOnUse">
      <path style="clip-rule:evenodd" id="path244" d="m 1.92,535.78 482.33,0 0,14.28 -482.33,0 0,-14.28 z"/>
    </clipPath>
    <clipPath id="clipPath254" clipPathUnits="userSpaceOnUse">
      <path style="clip-rule:evenodd" id="path256" d="m 1.92,520.54 482.33,0 0,14.28 -482.33,0 0,-14.28 z"/>
    </clipPath>
    <clipPath id="clipPath266" clipPathUnits="userSpaceOnUse">
      <path style="clip-rule:evenodd" id="path268" d="m 1.92,520.54 482.33,0 0,14.28 -482.33,0 0,-14.28 z"/>
    </clipPath>
    <clipPath id="clipPath278" clipPathUnits="userSpaceOnUse">
      <path style="clip-rule:evenodd" id="path280" d="m 1.92,520.54 482.33,0 0,14.28 -482.33,0 0,-14.28 z"/>
    </clipPath>
    <clipPath id="clipPath290" clipPathUnits="userSpaceOnUse">
      <path style="clip-rule:evenodd" id="path292" d="m 1.92,520.54 482.33,0 0,14.28 -482.33,0 0,-14.28 z"/>
    </clipPath>
    <clipPath id="clipPath302" clipPathUnits="userSpaceOnUse">
      <path style="clip-rule:evenodd" id="path304" d="m 1.92,520.54 482.33,0 0,14.28 -482.33,0 0,-14.28 z"/>
    </clipPath>
    <clipPath id="clipPath314" clipPathUnits="userSpaceOnUse">
      <path style="clip-rule:evenodd" id="path316" d="m 1.92,520.54 482.33,0 0,14.28 -482.33,0 0,-14.28 z"/>
    </clipPath>
    <clipPath id="clipPath326" clipPathUnits="userSpaceOnUse">
      <path style="clip-rule:evenodd" id="path328" d="m 1.92,520.54 482.33,0 0,14.28 -482.33,0 0,-14.28 z"/>
    </clipPath>
    <clipPath id="clipPath338" clipPathUnits="userSpaceOnUse">
      <path style="clip-rule:evenodd" id="path340" d="m 1.92,520.54 482.33,0 0,14.28 -482.33,0 0,-14.28 z"/>
    </clipPath>
    <clipPath id="clipPath350" clipPathUnits="userSpaceOnUse">
      <path style="clip-rule:evenodd" id="path352" d="m 1.92,505.3 482.33,0 0,14.28 -482.33,0 0,-14.28 z"/>
    </clipPath>
    <clipPath id="clipPath362" clipPathUnits="userSpaceOnUse">
      <path style="clip-rule:evenodd" id="path364" d="m 1.92,505.3 482.33,0 0,14.28 -482.33,0 0,-14.28 z"/>
    </clipPath>
    <clipPath id="clipPath374" clipPathUnits="userSpaceOnUse">
      <path style="clip-rule:evenodd" id="path376" d="m 1.92,505.3 482.33,0 0,14.28 -482.33,0 0,-14.28 z"/>
    </clipPath>
    <clipPath id="clipPath386" clipPathUnits="userSpaceOnUse">
      <path style="clip-rule:evenodd" id="path388" d="m 1.92,505.3 482.33,0 0,14.28 -482.33,0 0,-14.28 z"/>
    </clipPath>
    <clipPath id="clipPath398" clipPathUnits="userSpaceOnUse">
      <path style="clip-rule:evenodd" id="path400" d="m 1.92,505.3 482.33,0 0,14.28 -482.33,0 0,-14.28 z"/>
    </clipPath>
    <clipPath id="clipPath410" clipPathUnits="userSpaceOnUse">
      <path style="clip-rule:evenodd" id="path412" d="m 1.92,505.3 482.33,0 0,14.28 -482.33,0 0,-14.28 z"/>
    </clipPath>
    <clipPath id="clipPath422" clipPathUnits="userSpaceOnUse">
      <path style="clip-rule:evenodd" id="path424" d="m 1.92,505.3 482.33,0 0,14.28 -482.33,0 0,-14.28 z"/>
    </clipPath>
    <clipPath id="clipPath434" clipPathUnits="userSpaceOnUse">
      <path style="clip-rule:evenodd" id="path436" d="m 1.92,505.3 482.33,0 0,14.28 -482.33,0 0,-14.28 z"/>
    </clipPath>
    <clipPath id="clipPath446" clipPathUnits="userSpaceOnUse">
      <path style="clip-rule:evenodd" id="path448" d="m 1.92,490.06 482.33,0 0,14.28 -482.33,0 0,-14.28 z"/>
    </clipPath>
    <clipPath id="clipPath458" clipPathUnits="userSpaceOnUse">
      <path style="clip-rule:evenodd" id="path460" d="m 1.92,490.06 482.33,0 0,14.28 -482.33,0 0,-14.28 z"/>
    </clipPath>
    <clipPath id="clipPath470" clipPathUnits="userSpaceOnUse">
      <path style="clip-rule:evenodd" id="path472" d="m 1.92,490.06 482.33,0 0,14.28 -482.33,0 0,-14.28 z"/>
    </clipPath>
    <clipPath id="clipPath482" clipPathUnits="userSpaceOnUse">
      <path style="clip-rule:evenodd" id="path484" d="m 1.92,490.06 482.33,0 0,14.28 -482.33,0 0,-14.28 z"/>
    </clipPath>
    <clipPath id="clipPath494" clipPathUnits="userSpaceOnUse">
      <path style="clip-rule:evenodd" id="path496" d="m 1.92,490.06 482.33,0 0,14.28 -482.33,0 0,-14.28 z"/>
    </clipPath>
    <clipPath id="clipPath506" clipPathUnits="userSpaceOnUse">
      <path style="clip-rule:evenodd" id="path508" d="m 1.92,490.06 482.33,0 0,14.28 -482.33,0 0,-14.28 z"/>
    </clipPath>
    <clipPath id="clipPath518" clipPathUnits="userSpaceOnUse">
      <path style="clip-rule:evenodd" id="path520" d="m 1.92,490.06 482.33,0 0,14.28 -482.33,0 0,-14.28 z"/>
    </clipPath>
    <clipPath id="clipPath530" clipPathUnits="userSpaceOnUse">
      <path style="clip-rule:evenodd" id="path532" d="m 1.92,490.06 482.33,0 0,14.28 -482.33,0 0,-14.28 z"/>
    </clipPath>
    <clipPath id="clipPath542" clipPathUnits="userSpaceOnUse">
      <path style="clip-rule:evenodd" id="path544" d="m 1.92,474.82 482.33,0 0,14.28 -482.33,0 0,-14.28 z"/>
    </clipPath>
    <clipPath id="clipPath554" clipPathUnits="userSpaceOnUse">
      <path style="clip-rule:evenodd" id="path556" d="m 1.92,474.82 482.33,0 0,14.28 -482.33,0 0,-14.28 z"/>
    </clipPath>
    <clipPath id="clipPath566" clipPathUnits="userSpaceOnUse">
      <path style="clip-rule:evenodd" id="path568" d="m 1.92,474.82 482.33,0 0,14.28 -482.33,0 0,-14.28 z"/>
    </clipPath>
    <clipPath id="clipPath578" clipPathUnits="userSpaceOnUse">
      <path style="clip-rule:evenodd" id="path580" d="m 1.92,474.82 482.33,0 0,14.28 -482.33,0 0,-14.28 z"/>
    </clipPath>
    <clipPath id="clipPath590" clipPathUnits="userSpaceOnUse">
      <path style="clip-rule:evenodd" id="path592" d="m 1.92,474.82 482.33,0 0,14.28 -482.33,0 0,-14.28 z"/>
    </clipPath>
    <clipPath id="clipPath602" clipPathUnits="userSpaceOnUse">
      <path style="clip-rule:evenodd" id="path604" d="m 1.92,474.82 482.33,0 0,14.28 -482.33,0 0,-14.28 z"/>
    </clipPath>
    <clipPath id="clipPath614" clipPathUnits="userSpaceOnUse">
      <path style="clip-rule:evenodd" id="path616" d="m 1.92,474.82 482.33,0 0,14.28 -482.33,0 0,-14.28 z"/>
    </clipPath>
    <clipPath id="clipPath626" clipPathUnits="userSpaceOnUse">
      <path style="clip-rule:evenodd" id="path628" d="m 1.92,474.82 482.33,0 0,14.28 -482.33,0 0,-14.28 z"/>
    </clipPath>
    <clipPath id="clipPath638" clipPathUnits="userSpaceOnUse">
      <path style="clip-rule:evenodd" id="path640" d="m 1.92,474.34 48.72,0 0,76.2 -48.72,0 0,-76.2 z"/>
    </clipPath>
    <clipPath id="clipPath654" clipPathUnits="userSpaceOnUse">
      <path style="clip-rule:evenodd" id="path656" d="m 0,471.82 486.29,0 0,141.14 -486.29,0 0,-141.14 z"/>
    </clipPath>
  </defs>
  <g transform="matrix(1.25,0,0,-1.25,0,765)" id="g10">
    <g id="g12">
      <g clip-path="url(#clipPath16)" id="g14">
        <path id="path20" style="fill:#d9d9d9;fill-opacity:1;fill-rule:evenodd;stroke:none" d="m 1.44,580.92 482.45,0 0,15.36 -482.45,0 0,-15.36 z"/>
      </g>
    </g>
    <path id="path22" style="fill:#0070c0;fill-opacity:1;fill-rule:evenodd;stroke:none" d="m 99.84,565.68 384.05,0 0,15.36 -384.05,0 0,-15.36 z"/>
    <g id="g24">
      <g clip-path="url(#clipPath28)" id="g26">
        <path id="path32" style="fill:#0070c0;fill-opacity:1;fill-rule:evenodd;stroke:none" d="m 1.44,474.22 49.32,0 0,76.32 -49.32,0 0,-76.32 z"/>
      </g>
    </g>
    <g id="g34">
      <g clip-path="url(#clipPath38)" id="g36"><text id="text42" style="font-style:italic;font-variant:normal;font-weight:normal;font-size:9px;font-family:'Aptos Narrow';-inkscape-font-specification:'Aptos Narrow Italic';writing-mode:lr-tb;fill:#000000;fill-opacity:1;fill-rule:nonzero;stroke:none" transform="matrix(1,0,0,-1,3.12,600.24)"><tspan id="tspan44" y="0" x="0 5.6339998 10.305 15.93 17.613001 19.548 24.101999 25.785 32.859001 34.793999 36.926998 39.087002 41.021999 45.557999 50.112">USD in millions</tspan></text>
</g>
    </g>
    <g id="g46">
      <g clip-path="url(#clipPath50)" id="g48"><text id="text54" style="font-variant:normal;font-weight:bold;font-size:11.03999996px;font-family:'Aptos Narrow';-inkscape-font-specification:'Aptos Narrow Bold';writing-mode:lr-tb;fill:#000000;fill-opacity:1;fill-rule:nonzero;stroke:none" transform="matrix(1,0,0,-1,145.94,584.64)"><tspan id="tspan56" y="0" x="0 7.3084798 13.07136 16.54896 22.40016 28.196159 31.673759 34.6656 36.69696 43.51968 45.56208 47.847359 53.466721 59.097118 64.727524 66.758881 72.764641 78.273598 83.186401 92.084641 97.704002 103.46688 106.94448 108.97584 114.9816 118.69104 124.44288 129.95184 135.58224 140.6496 145.66176 148.4328 154.18465 159.22992 161.26128 166.90273 173.01888 176.02176 180.93456 187.92288">Output: U '27e Payment Processing EBITDA</tspan></text>
</g>
    </g>
    <g id="g58">
      <g clip-path="url(#clipPath62)" id="g60"><text id="text66" style="font-variant:normal;font-weight:bold;font-size:11.03999996px;font-family:'Aptos Narrow';-inkscape-font-specification:'Aptos Narrow Bold';writing-mode:lr-tb;fill:#ffffff;fill-opacity:1;fill-rule:nonzero;stroke:none" transform="matrix(1,0,0,-1,246.62,569.4)"><tspan id="tspan68" y="0" x="0 6.8227201 8.8651199 13.78896 17.4984 23.00736 28.80336 33.826561 39.335522 44.855518 48.333118 51.10416 56.844959 62.607841 64.639198 70.622879 76.385757 81.894722 85.604156">U Transaction Share</tspan></text>
</g>
    </g>
    <g id="g70">
      <g clip-path="url(#clipPath74)" id="g72"><text id="text78" style="font-variant:normal;font-weight:normal;font-size:11.03999996px;font-family:'Aptos Narrow';-inkscape-font-specification:'Aptos Narrow';writing-mode:lr-tb;fill:#000000;fill-opacity:1;fill-rule:nonzero;stroke:none" transform="matrix(1,0,0,-1,117.86,554.16)"><tspan id="tspan80" y="0" x="0 5.6399798 11.27996">10%</tspan></text>
</g>
    </g>
    <g id="g82">
      <g clip-path="url(#clipPath86)" id="g84"><text id="text90" style="font-variant:normal;font-weight:normal;font-size:11.03999996px;font-family:'Aptos Narrow';-inkscape-font-specification:'Aptos Narrow';writing-mode:lr-tb;fill:#000000;fill-opacity:1;fill-rule:nonzero;stroke:none" transform="matrix(1,0,0,-1,172.7,554.16)"><tspan id="tspan92" y="0" x="0 5.6399798 11.27996">20%</tspan></text>
</g>
    </g>
    <g id="g94">
      <g clip-path="url(#clipPath98)" id="g96"><text id="text102" style="font-variant:normal;font-weight:normal;font-size:11.03999996px;font-family:'Aptos Narrow';-inkscape-font-specification:'Aptos Narrow';writing-mode:lr-tb;fill:#000000;fill-opacity:1;fill-rule:nonzero;stroke:none" transform="matrix(1,0,0,-1,227.54,554.16)"><tspan id="tspan104" y="0" x="0 5.6399798 11.27996">30%</tspan></text>
</g>
    </g>
    <g id="g106">
      <g clip-path="url(#clipPath110)" id="g108"><text id="text114" style="font-variant:normal;font-weight:normal;font-size:11.03999996px;font-family:'Aptos Narrow';-inkscape-font-specification:'Aptos Narrow';writing-mode:lr-tb;fill:#000000;fill-opacity:1;fill-rule:nonzero;stroke:none" transform="matrix(1,0,0,-1,282.38,554.16)"><tspan id="tspan116" y="0" x="0 5.6399798 11.27996">40%</tspan></text>
</g>
    </g>
    <g id="g118">
      <g clip-path="url(#clipPath122)" id="g120"><text id="text126" style="font-variant:normal;font-weight:normal;font-size:11.03999996px;font-family:'Aptos Narrow';-inkscape-font-specification:'Aptos Narrow';writing-mode:lr-tb;fill:#000000;fill-opacity:1;fill-rule:nonzero;stroke:none" transform="matrix(1,0,0,-1,337.25,554.16)"><tspan id="tspan128" y="0" x="0 5.6399798 11.27996">50%</tspan></text>
</g>
    </g>
    <g id="g130">
      <g clip-path="url(#clipPath134)" id="g132"><text id="text138" style="font-variant:normal;font-weight:normal;font-size:11.03999996px;font-family:'Aptos Narrow';-inkscape-font-specification:'Aptos Narrow';writing-mode:lr-tb;fill:#000000;fill-opacity:1;fill-rule:nonzero;stroke:none" transform="matrix(1,0,0,-1,392.09,554.16)"><tspan id="tspan140" y="0" x="0 5.6399798 11.27996">60%</tspan></text>
</g>
    </g>
    <g id="g142">
      <g clip-path="url(#clipPath146)" id="g144"><text id="text150" style="font-variant:normal;font-weight:normal;font-size:11.03999996px;font-family:'Aptos Narrow';-inkscape-font-specification:'Aptos Narrow';writing-mode:lr-tb;fill:#000000;fill-opacity:1;fill-rule:nonzero;stroke:none" transform="matrix(1,0,0,-1,446.93,554.16)"><tspan id="tspan152" y="0" x="0 5.6399798 11.27996">70%</tspan></text>
</g>
    </g>
    <g id="g154">
      <g clip-path="url(#clipPath158)" id="g156"><text id="text162" style="font-variant:normal;font-weight:normal;font-size:11.03999996px;font-family:'Aptos Narrow';-inkscape-font-specification:'Aptos Narrow';writing-mode:lr-tb;fill:#000000;fill-opacity:1;fill-rule:nonzero;stroke:none" transform="matrix(1,0,0,-1,64.44,539.26)"><tspan id="tspan164" y="0" x="0 5.6304002 8.5008001 14.14224">1.0%</tspan></text>
</g>
    </g>
    <g id="g166">
      <g clip-path="url(#clipPath170)" id="g168"><text id="text174" style="font-variant:normal;font-weight:normal;font-size:11.03999996px;font-family:'Aptos Narrow';-inkscape-font-specification:'Aptos Narrow';writing-mode:lr-tb;fill:#000000;fill-opacity:1;fill-rule:nonzero;stroke:none" transform="matrix(1,0,0,-1,120.74,538.9)"><tspan id="tspan176" y="0" x="0 5.6399798">5%</tspan></text>
</g>
    </g>
    <g id="g178">
      <g clip-path="url(#clipPath182)" id="g180"><text id="text186" style="font-variant:normal;font-weight:normal;font-size:11.03999996px;font-family:'Aptos Narrow';-inkscape-font-specification:'Aptos Narrow';writing-mode:lr-tb;fill:#000000;fill-opacity:1;fill-rule:nonzero;stroke:none" transform="matrix(1,0,0,-1,172.7,538.9)"><tspan id="tspan188" y="0" x="0 5.6399798 11.27996">11%</tspan></text>
</g>
    </g>
    <g id="g190">
      <g clip-path="url(#clipPath194)" id="g192"><text id="text198" style="font-variant:normal;font-weight:normal;font-size:11.03999996px;font-family:'Aptos Narrow';-inkscape-font-specification:'Aptos Narrow';writing-mode:lr-tb;fill:#000000;fill-opacity:1;fill-rule:nonzero;stroke:none" transform="matrix(1,0,0,-1,227.54,538.9)"><tspan id="tspan200" y="0" x="0 5.6399798 11.27996">16%</tspan></text>
</g>
    </g>
    <g id="g202">
      <g clip-path="url(#clipPath206)" id="g204"><text id="text210" style="font-variant:normal;font-weight:normal;font-size:11.03999996px;font-family:'Aptos Narrow';-inkscape-font-specification:'Aptos Narrow';writing-mode:lr-tb;fill:#000000;fill-opacity:1;fill-rule:nonzero;stroke:none" transform="matrix(1,0,0,-1,282.38,538.9)"><tspan id="tspan212" y="0" x="0 5.6399798 11.27996">21%</tspan></text>
</g>
    </g>
    <g id="g214">
      <g clip-path="url(#clipPath218)" id="g216"><text id="text222" style="font-variant:normal;font-weight:normal;font-size:11.03999996px;font-family:'Aptos Narrow';-inkscape-font-specification:'Aptos Narrow';writing-mode:lr-tb;fill:#000000;fill-opacity:1;fill-rule:nonzero;stroke:none" transform="matrix(1,0,0,-1,337.25,538.9)"><tspan id="tspan224" y="0" x="0 5.6399798 11.27996">27%</tspan></text>
</g>
    </g>
    <g id="g226">
      <g clip-path="url(#clipPath230)" id="g228"><text id="text234" style="font-variant:normal;font-weight:normal;font-size:11.03999996px;font-family:'Aptos Narrow';-inkscape-font-specification:'Aptos Narrow';writing-mode:lr-tb;fill:#000000;fill-opacity:1;fill-rule:nonzero;stroke:none" transform="matrix(1,0,0,-1,392.09,538.9)"><tspan id="tspan236" y="0" x="0 5.6399798 11.27996">32%</tspan></text>
</g>
    </g>
    <g id="g238">
      <g clip-path="url(#clipPath242)" id="g240"><text id="text246" style="font-variant:normal;font-weight:normal;font-size:11.03999996px;font-family:'Aptos Narrow';-inkscape-font-specification:'Aptos Narrow';writing-mode:lr-tb;fill:#000000;fill-opacity:1;fill-rule:nonzero;stroke:none" transform="matrix(1,0,0,-1,446.93,538.9)"><tspan id="tspan248" y="0" x="0 5.6399798 11.27996">37%</tspan></text>
</g>
    </g>
    <g id="g250">
      <g clip-path="url(#clipPath254)" id="g252"><text id="text258" style="font-variant:normal;font-weight:normal;font-size:11.03999996px;font-family:'Aptos Narrow';-inkscape-font-specification:'Aptos Narrow';writing-mode:lr-tb;fill:#000000;fill-opacity:1;fill-rule:nonzero;stroke:none" transform="matrix(1,0,0,-1,64.44,524.02)"><tspan id="tspan260" y="0" x="0 5.6304002 8.5008001 14.14224">1.5%</tspan></text>
</g>
    </g>
    <g id="g262">
      <g clip-path="url(#clipPath266)" id="g264"><text id="text270" style="font-variant:normal;font-weight:normal;font-size:11.03999996px;font-family:'Aptos Narrow';-inkscape-font-specification:'Aptos Narrow';writing-mode:lr-tb;fill:#000000;fill-opacity:1;fill-rule:nonzero;stroke:none" transform="matrix(1,0,0,-1,120.74,523.66)"><tspan id="tspan272" y="0" x="0 5.6399798">8%</tspan></text>
</g>
    </g>
    <g id="g274">
      <g clip-path="url(#clipPath278)" id="g276"><text id="text282" style="font-variant:normal;font-weight:normal;font-size:11.03999996px;font-family:'Aptos Narrow';-inkscape-font-specification:'Aptos Narrow';writing-mode:lr-tb;fill:#000000;fill-opacity:1;fill-rule:nonzero;stroke:none" transform="matrix(1,0,0,-1,172.7,523.66)"><tspan id="tspan284" y="0" x="0 5.6399798 11.27996">16%</tspan></text>
</g>
    </g>
    <g id="g286">
      <g clip-path="url(#clipPath290)" id="g288"><text id="text294" style="font-variant:normal;font-weight:normal;font-size:11.03999996px;font-family:'Aptos Narrow';-inkscape-font-specification:'Aptos Narrow';writing-mode:lr-tb;fill:#000000;fill-opacity:1;fill-rule:nonzero;stroke:none" transform="matrix(1,0,0,-1,227.54,523.66)"><tspan id="tspan296" y="0" x="0 5.6399798 11.27996">24%</tspan></text>
</g>
    </g>
    <g id="g298">
      <g clip-path="url(#clipPath302)" id="g300"><text id="text306" style="font-variant:normal;font-weight:normal;font-size:11.03999996px;font-family:'Aptos Narrow';-inkscape-font-specification:'Aptos Narrow';writing-mode:lr-tb;fill:#000000;fill-opacity:1;fill-rule:nonzero;stroke:none" transform="matrix(1,0,0,-1,282.38,523.66)"><tspan id="tspan308" y="0" x="0 5.6399798 11.27996">32%</tspan></text>
</g>
    </g>
    <g id="g310">
      <g clip-path="url(#clipPath314)" id="g312"><text id="text318" style="font-variant:normal;font-weight:normal;font-size:11.03999996px;font-family:'Aptos Narrow';-inkscape-font-specification:'Aptos Narrow';writing-mode:lr-tb;fill:#000000;fill-opacity:1;fill-rule:nonzero;stroke:none" transform="matrix(1,0,0,-1,337.25,523.66)"><tspan id="tspan320" y="0" x="0 5.6399798 11.27996">40%</tspan></text>
</g>
    </g>
    <g id="g322">
      <g clip-path="url(#clipPath326)" id="g324"><text id="text330" style="font-variant:normal;font-weight:normal;font-size:11.03999996px;font-family:'Aptos Narrow';-inkscape-font-specification:'Aptos Narrow';writing-mode:lr-tb;fill:#000000;fill-opacity:1;fill-rule:nonzero;stroke:none" transform="matrix(1,0,0,-1,392.09,523.66)"><tspan id="tspan332" y="0" x="0 5.6399798 11.27996">48%</tspan></text>
</g>
    </g>
    <g id="g334">
      <g clip-path="url(#clipPath338)" id="g336"><text id="text342" style="font-variant:normal;font-weight:normal;font-size:11.03999996px;font-family:'Aptos Narrow';-inkscape-font-specification:'Aptos Narrow';writing-mode:lr-tb;fill:#000000;fill-opacity:1;fill-rule:nonzero;stroke:none" transform="matrix(1,0,0,-1,446.93,523.66)"><tspan id="tspan344" y="0" x="0 5.6399798 11.27996">56%</tspan></text>
</g>
    </g>
    <g id="g346">
      <g clip-path="url(#clipPath350)" id="g348"><text id="text354" style="font-variant:normal;font-weight:normal;font-size:11.03999996px;font-family:'Aptos Narrow';-inkscape-font-specification:'Aptos Narrow';writing-mode:lr-tb;fill:#000000;fill-opacity:1;fill-rule:nonzero;stroke:none" transform="matrix(1,0,0,-1,64.44,508.78)"><tspan id="tspan356" y="0" x="0 5.6304002 8.5008001 14.14224">2.0%</tspan></text>
</g>
    </g>
    <g id="g358">
      <g clip-path="url(#clipPath362)" id="g360"><text id="text366" style="font-variant:normal;font-weight:normal;font-size:11.03999996px;font-family:'Aptos Narrow';-inkscape-font-specification:'Aptos Narrow';writing-mode:lr-tb;fill:#000000;fill-opacity:1;fill-rule:nonzero;stroke:none" transform="matrix(1,0,0,-1,117.86,508.42)"><tspan id="tspan368" y="0" x="0 5.6399798 11.27996">11%</tspan></text>
</g>
    </g>
    <g id="g370">
      <g clip-path="url(#clipPath374)" id="g372"><text id="text378" style="font-variant:normal;font-weight:normal;font-size:11.03999996px;font-family:'Aptos Narrow';-inkscape-font-specification:'Aptos Narrow';writing-mode:lr-tb;fill:#000000;fill-opacity:1;fill-rule:nonzero;stroke:none" transform="matrix(1,0,0,-1,172.7,508.42)"><tspan id="tspan380" y="0" x="0 5.6399798 11.27996">21%</tspan></text>
</g>
    </g>
    <g id="g382">
      <g clip-path="url(#clipPath386)" id="g384"><text id="text390" style="font-variant:normal;font-weight:normal;font-size:11.03999996px;font-family:'Aptos Narrow';-inkscape-font-specification:'Aptos Narrow';writing-mode:lr-tb;fill:#000000;fill-opacity:1;fill-rule:nonzero;stroke:none" transform="matrix(1,0,0,-1,227.54,508.42)"><tspan id="tspan392" y="0" x="0 5.6399798 11.27996">32%</tspan></text>
</g>
    </g>
    <g id="g394">
      <g clip-path="url(#clipPath398)" id="g396"><text id="text402" style="font-variant:normal;font-weight:normal;font-size:11.03999996px;font-family:'Aptos Narrow';-inkscape-font-specification:'Aptos Narrow';writing-mode:lr-tb;fill:#000000;fill-opacity:1;fill-rule:nonzero;stroke:none" transform="matrix(1,0,0,-1,282.38,508.42)"><tspan id="tspan404" y="0" x="0 5.6399798 11.27996">43%</tspan></text>
</g>
    </g>
    <g id="g406">
      <g clip-path="url(#clipPath410)" id="g408"><text id="text414" style="font-variant:normal;font-weight:normal;font-size:11.03999996px;font-family:'Aptos Narrow';-inkscape-font-specification:'Aptos Narrow';writing-mode:lr-tb;fill:#000000;fill-opacity:1;fill-rule:nonzero;stroke:none" transform="matrix(1,0,0,-1,337.25,508.42)"><tspan id="tspan416" y="0" x="0 5.6399798 11.27996">53%</tspan></text>
</g>
    </g>
    <g id="g418">
      <g clip-path="url(#clipPath422)" id="g420"><text id="text426" style="font-variant:normal;font-weight:normal;font-size:11.03999996px;font-family:'Aptos Narrow';-inkscape-font-specification:'Aptos Narrow';writing-mode:lr-tb;fill:#000000;fill-opacity:1;fill-rule:nonzero;stroke:none" transform="matrix(1,0,0,-1,392.09,508.42)"><tspan id="tspan428" y="0" x="0 5.6399798 11.27996">64%</tspan></text>
</g>
    </g>
    <g id="g430">
      <g clip-path="url(#clipPath434)" id="g432"><text id="text438" style="font-variant:normal;font-weight:normal;font-size:11.03999996px;font-family:'Aptos Narrow';-inkscape-font-specification:'Aptos Narrow';writing-mode:lr-tb;fill:#000000;fill-opacity:1;fill-rule:nonzero;stroke:none" transform="matrix(1,0,0,-1,446.93,508.42)"><tspan id="tspan440" y="0" x="0 5.6399798 11.27996">74%</tspan></text>
</g>
    </g>
    <g id="g442">
      <g clip-path="url(#clipPath446)" id="g444"><text id="text450" style="font-variant:normal;font-weight:normal;font-size:11.03999996px;font-family:'Aptos Narrow';-inkscape-font-specification:'Aptos Narrow';writing-mode:lr-tb;fill:#000000;fill-opacity:1;fill-rule:nonzero;stroke:none" transform="matrix(1,0,0,-1,64.44,493.54)"><tspan id="tspan452" y="0" x="0 5.6304002 8.5008001 14.14224">2.5%</tspan></text>
</g>
    </g>
    <g id="g454">
      <g clip-path="url(#clipPath458)" id="g456"><text id="text462" style="font-variant:normal;font-weight:normal;font-size:11.03999996px;font-family:'Aptos Narrow';-inkscape-font-specification:'Aptos Narrow';writing-mode:lr-tb;fill:#000000;fill-opacity:1;fill-rule:nonzero;stroke:none" transform="matrix(1,0,0,-1,117.86,493.18)"><tspan id="tspan464" y="0" x="0 5.6399798 11.27996">13%</tspan></text>
</g>
    </g>
    <g id="g466">
      <g clip-path="url(#clipPath470)" id="g468"><text id="text474" style="font-variant:normal;font-weight:normal;font-size:11.03999996px;font-family:'Aptos Narrow';-inkscape-font-specification:'Aptos Narrow';writing-mode:lr-tb;fill:#000000;fill-opacity:1;fill-rule:nonzero;stroke:none" transform="matrix(1,0,0,-1,172.7,493.18)"><tspan id="tspan476" y="0" x="0 5.6399798 11.27996">27%</tspan></text>
</g>
    </g>
    <g id="g478">
      <g clip-path="url(#clipPath482)" id="g480"><text id="text486" style="font-variant:normal;font-weight:normal;font-size:11.03999996px;font-family:'Aptos Narrow';-inkscape-font-specification:'Aptos Narrow';writing-mode:lr-tb;fill:#000000;fill-opacity:1;fill-rule:nonzero;stroke:none" transform="matrix(1,0,0,-1,227.54,493.18)"><tspan id="tspan488" y="0" x="0 5.6399798 11.27996">40%</tspan></text>
</g>
    </g>
    <g id="g490">
      <g clip-path="url(#clipPath494)" id="g492"><text id="text498" style="font-variant:normal;font-weight:normal;font-size:11.03999996px;font-family:'Aptos Narrow';-inkscape-font-specification:'Aptos Narrow';writing-mode:lr-tb;fill:#000000;fill-opacity:1;fill-rule:nonzero;stroke:none" transform="matrix(1,0,0,-1,282.38,493.18)"><tspan id="tspan500" y="0" x="0 5.6399798 11.27996">53%</tspan></text>
</g>
    </g>
    <g id="g502">
      <g clip-path="url(#clipPath506)" id="g504"><text id="text510" style="font-variant:normal;font-weight:normal;font-size:11.03999996px;font-family:'Aptos Narrow';-inkscape-font-specification:'Aptos Narrow';writing-mode:lr-tb;fill:#000000;fill-opacity:1;fill-rule:nonzero;stroke:none" transform="matrix(1,0,0,-1,337.25,493.18)"><tspan id="tspan512" y="0" x="0 5.6399798 11.27996">66%</tspan></text>
</g>
    </g>
    <g id="g514">
      <g clip-path="url(#clipPath518)" id="g516"><text id="text522" style="font-variant:normal;font-weight:normal;font-size:11.03999996px;font-family:'Aptos Narrow';-inkscape-font-specification:'Aptos Narrow';writing-mode:lr-tb;fill:#000000;fill-opacity:1;fill-rule:nonzero;stroke:none" transform="matrix(1,0,0,-1,392.09,493.18)"><tspan id="tspan524" y="0" x="0 5.6399798 11.27996">80%</tspan></text>
</g>
    </g>
    <g id="g526">
      <g clip-path="url(#clipPath530)" id="g528"><text id="text534" style="font-variant:normal;font-weight:normal;font-size:11.03999996px;font-family:'Aptos Narrow';-inkscape-font-specification:'Aptos Narrow';writing-mode:lr-tb;fill:#000000;fill-opacity:1;fill-rule:nonzero;stroke:none" transform="matrix(1,0,0,-1,446.93,493.18)"><tspan id="tspan536" y="0" x="0 5.6399798 11.27996">93%</tspan></text>
</g>
    </g>
    <g id="g538">
      <g clip-path="url(#clipPath542)" id="g540"><text id="text546" style="font-variant:normal;font-weight:normal;font-size:11.03999996px;font-family:'Aptos Narrow';-inkscape-font-specification:'Aptos Narrow';writing-mode:lr-tb;fill:#000000;fill-opacity:1;fill-rule:nonzero;stroke:none" transform="matrix(1,0,0,-1,64.44,478.3)"><tspan id="tspan548" y="0" x="0 5.6304002 8.5008001 14.14224">3.0%</tspan></text>
</g>
    </g>
    <g id="g550">
      <g clip-path="url(#clipPath554)" id="g552"><text id="text558" style="font-variant:normal;font-weight:normal;font-size:11.03999996px;font-family:'Aptos Narrow';-inkscape-font-specification:'Aptos Narrow';writing-mode:lr-tb;fill:#000000;fill-opacity:1;fill-rule:nonzero;stroke:none" transform="matrix(1,0,0,-1,117.86,477.94)"><tspan id="tspan560" y="0" x="0 5.6399798 11.27996">16%</tspan></text>
</g>
    </g>
    <g id="g562">
      <g clip-path="url(#clipPath566)" id="g564"><text id="text570" style="font-variant:normal;font-weight:normal;font-size:11.03999996px;font-family:'Aptos Narrow';-inkscape-font-specification:'Aptos Narrow';writing-mode:lr-tb;fill:#000000;fill-opacity:1;fill-rule:nonzero;stroke:none" transform="matrix(1,0,0,-1,172.7,477.94)"><tspan id="tspan572" y="0" x="0 5.6399798 11.27996">32%</tspan></text>
</g>
    </g>
    <g id="g574">
      <g clip-path="url(#clipPath578)" id="g576"><text id="text582" style="font-variant:normal;font-weight:normal;font-size:11.03999996px;font-family:'Aptos Narrow';-inkscape-font-specification:'Aptos Narrow';writing-mode:lr-tb;fill:#000000;fill-opacity:1;fill-rule:nonzero;stroke:none" transform="matrix(1,0,0,-1,227.54,477.94)"><tspan id="tspan584" y="0" x="0 5.6399798 11.27996">48%</tspan></text>
</g>
    </g>
    <g id="g586">
      <g clip-path="url(#clipPath590)" id="g588"><text id="text594" style="font-variant:normal;font-weight:normal;font-size:11.03999996px;font-family:'Aptos Narrow';-inkscape-font-specification:'Aptos Narrow';writing-mode:lr-tb;fill:#000000;fill-opacity:1;fill-rule:nonzero;stroke:none" transform="matrix(1,0,0,-1,282.38,477.94)"><tspan id="tspan596" y="0" x="0 5.6399798 11.27996">64%</tspan></text>
</g>
    </g>
    <g id="g598">
      <g clip-path="url(#clipPath602)" id="g600"><text id="text606" style="font-variant:normal;font-weight:normal;font-size:11.03999996px;font-family:'Aptos Narrow';-inkscape-font-specification:'Aptos Narrow';writing-mode:lr-tb;fill:#000000;fill-opacity:1;fill-rule:nonzero;stroke:none" transform="matrix(1,0,0,-1,337.25,477.94)"><tspan id="tspan608" y="0" x="0 5.6399798 11.27996">80%</tspan></text>
</g>
    </g>
    <g id="g610">
      <g clip-path="url(#clipPath614)" id="g612"><text id="text618" style="font-variant:normal;font-weight:normal;font-size:11.03999996px;font-family:'Aptos Narrow';-inkscape-font-specification:'Aptos Narrow';writing-mode:lr-tb;fill:#000000;fill-opacity:1;fill-rule:nonzero;stroke:none" transform="matrix(1,0,0,-1,392.09,477.94)"><tspan id="tspan620" y="0" x="0 5.6399798 11.27996">96%</tspan></text>
</g>
    </g>
    <g id="g622">
      <g clip-path="url(#clipPath626)" id="g624"><text id="text630" style="font-variant:normal;font-weight:normal;font-size:11.03999996px;font-family:'Aptos Narrow';-inkscape-font-specification:'Aptos Narrow';writing-mode:lr-tb;fill:#000000;fill-opacity:1;fill-rule:nonzero;stroke:none" transform="matrix(1,0,0,-1,444.17,477.94)"><tspan id="tspan632" y="0" x="0 5.6399798 11.27996 16.919941">112%</tspan></text>
</g>
    </g>
    <g id="g634">
      <g clip-path="url(#clipPath638)" id="g636"><text id="text642" style="font-variant:normal;font-weight:bold;font-size:11.03999996px;font-family:'Aptos Narrow';-inkscape-font-specification:'Aptos Narrow Bold';writing-mode:lr-tb;fill:#ffffff;fill-opacity:1;fill-rule:nonzero;stroke:none" transform="matrix(-4.4e-8,1,1,4.4e-8,22.44,492.46)"><tspan id="tspan644" y="0" x="0 6.0057602 11.51472 16.427521 25.32576 30.94512 36.708 40.1856">Payment </tspan></text>
<text id="text646" style="font-variant:normal;font-weight:bold;font-size:11.03999996px;font-family:'Aptos Narrow';-inkscape-font-specification:'Aptos Narrow Bold';writing-mode:lr-tb;fill:#ffffff;fill-opacity:1;fill-rule:nonzero;stroke:none" transform="matrix(-4.4e-8,1,1,4.4e-8,37.68,478.06)"><tspan id="tspan648" y="0" x="0 6.0057602 9.7152004 15.46704 20.976 26.6064 31.673759 36.685921 39.456959 45.208801 50.254082 52.285439 57.59568 63.181919">Processing Fee</tspan></text>
</g>
    </g>
    <g id="g650">
      <g clip-path="url(#clipPath654)" id="g652">
        <path id="path658" style="fill:none;stroke:#000000;stroke-width:0.14;stroke-linecap:square;stroke-linejoin:round;stroke-miterlimit:10;stroke-dasharray:none;stroke-opacity:1" d="m 99.42,550.96 0,-77.04"/>
        <path id="path660" style="fill:#000000;fill-opacity:1;fill-rule:evenodd;stroke:none" d="m 99.36,473.86 0.984,0 0,77.16 -0.984,0 0,-77.16 z"/>
        <path id="path662" style="fill:none;stroke:#000000;stroke-width:0.14;stroke-linecap:square;stroke-linejoin:round;stroke-miterlimit:10;stroke-dasharray:none;stroke-opacity:1" d="m 483.35,550 0,-76.08"/>
        <path id="path664" style="fill:#000000;fill-opacity:1;fill-rule:evenodd;stroke:none" d="m 483.29,473.86 0.96002,0 0,76.2 -0.96002,0 0,-76.2 z"/>
        <path id="path666" style="fill:none;stroke:#000000;stroke-width:0.14;stroke-linecap:square;stroke-linejoin:round;stroke-miterlimit:10;stroke-dasharray:none;stroke-opacity:1" d="m 100.4,550.96 383.79,0"/>
        <path id="path668" style="fill:#000000;fill-opacity:1;fill-rule:evenodd;stroke:none" d="m 100.34,550.06 383.9,0 0,0.96 -383.9,0 0,-0.96 z"/>
        <path id="path670" style="fill:none;stroke:#000000;stroke-width:0.14;stroke-linecap:square;stroke-linejoin:round;stroke-miterlimit:10;stroke-dasharray:none;stroke-opacity:1" d="m 100.4,474.76 383.79,0"/>
        <path id="path672" style="fill:#000000;fill-opacity:1;fill-rule:evenodd;stroke:none" d="m 100.34,473.86 383.9,0 0,0.95999 -383.9,0 0,-0.95999 z"/>
      </g>
    </g>
  </g>
</svg>
