<?xml version="1.0" encoding="UTF-8" standalone="no"?>
<svg xmlns:dc="http://purl.org/dc/elements/1.1/" xmlns:cc="http://creativecommons.org/ns#" xmlns:rdf="http://www.w3.org/1999/02/22-rdf-syntax-ns#" xmlns:svg="http://www.w3.org/2000/svg" xmlns="http://www.w3.org/2000/svg" viewBox="63 376.2 639 237.6" height="237.6" width="639" xml:space="preserve" version="1.1" id="svg2">
  <metadata id="metadata8">
    <rdf:RDF>
      <cc:Work rdf:about="">
        <dc:format>image/svg+xml</dc:format>
        <dc:type rdf:resource="http://purl.org/dc/dcmitype/StillImage"/>
      </cc:Work>
    </rdf:RDF>
  </metadata>
  <defs id="defs6">
    <clipPath id="clipPath16" clipPathUnits="userSpaceOnUse">
      <path style="clip-rule:evenodd" id="path18" d="m 50.4,300.96 511.2,0 0,190.08 -511.2,0 0,-190.08 z"/>
    </clipPath>
    <clipPath id="clipPath32" clipPathUnits="userSpaceOnUse">
      <path style="clip-rule:evenodd" id="path34" d="m 50.418,301.04 511.09,0 0,189.99 -511.09,0 0,-189.99 z"/>
    </clipPath>
    <clipPath id="clipPath42" clipPathUnits="userSpaceOnUse">
      <path style="clip-rule:evenodd" id="path44" d="m 50.52,300.96 511.08,0 0,189.96 -511.08,0 0,-189.96 z"/>
    </clipPath>
    <clipPath id="clipPath54" clipPathUnits="userSpaceOnUse">
      <path style="clip-rule:evenodd" id="path56" d="m 50.52,300.96 511.08,0 0,189.96 -511.08,0 0,-189.96 z"/>
    </clipPath>
    <clipPath id="clipPath66" clipPathUnits="userSpaceOnUse">
      <path style="clip-rule:evenodd" id="path68" d="m 50.52,300.96 511.08,0 0,189.96 -511.08,0 0,-189.96 z"/>
    </clipPath>
    <clipPath id="clipPath78" clipPathUnits="userSpaceOnUse">
      <path style="clip-rule:evenodd" id="path80" d="m 50.52,300.96 511.08,0 0,189.96 -511.08,0 0,-189.96 z"/>
    </clipPath>
    <clipPath id="clipPath90" clipPathUnits="userSpaceOnUse">
      <path style="clip-rule:evenodd" id="path92" d="m 50.52,300.96 511.08,0 0,189.96 -511.08,0 0,-189.96 z"/>
    </clipPath>
    <clipPath id="clipPath102" clipPathUnits="userSpaceOnUse">
      <path style="clip-rule:evenodd" id="path104" d="m 50.52,300.96 511.08,0 0,189.96 -511.08,0 0,-189.96 z"/>
    </clipPath>
    <clipPath id="clipPath114" clipPathUnits="userSpaceOnUse">
      <path style="clip-rule:evenodd" id="path116" d="m 50.52,300.96 511.08,0 0,189.96 -511.08,0 0,-189.96 z"/>
    </clipPath>
    <clipPath id="clipPath126" clipPathUnits="userSpaceOnUse">
      <path style="clip-rule:evenodd" id="path128" d="m 50.52,300.96 511.08,0 0,189.96 -511.08,0 0,-189.96 z"/>
    </clipPath>
    <clipPath id="clipPath138" clipPathUnits="userSpaceOnUse">
      <path style="clip-rule:evenodd" id="path140" d="m 50.52,300.96 511.08,0 0,189.96 -511.08,0 0,-189.96 z"/>
    </clipPath>
    <clipPath id="clipPath150" clipPathUnits="userSpaceOnUse">
      <path style="clip-rule:evenodd" id="path152" d="m 50.52,300.96 511.08,0 0,189.96 -511.08,0 0,-189.96 z"/>
    </clipPath>
    <clipPath id="clipPath162" clipPathUnits="userSpaceOnUse">
      <path style="clip-rule:evenodd" id="path164" d="m 50.52,300.96 511.08,0 0,189.96 -511.08,0 0,-189.96 z"/>
    </clipPath>
    <clipPath id="clipPath174" clipPathUnits="userSpaceOnUse">
      <path style="clip-rule:evenodd" id="path176" d="m 50.52,300.96 511.08,0 0,189.96 -511.08,0 0,-189.96 z"/>
    </clipPath>
    <clipPath id="clipPath186" clipPathUnits="userSpaceOnUse">
      <path style="clip-rule:evenodd" id="path188" d="m 50.52,300.96 511.08,0 0,189.96 -511.08,0 0,-189.96 z"/>
    </clipPath>
    <clipPath id="clipPath198" clipPathUnits="userSpaceOnUse">
      <path style="clip-rule:evenodd" id="path200" d="m 50.52,300.96 511.08,0 0,189.96 -511.08,0 0,-189.96 z"/>
    </clipPath>
    <clipPath id="clipPath210" clipPathUnits="userSpaceOnUse">
      <path style="clip-rule:evenodd" id="path212" d="m 50.52,300.96 511.08,0 0,189.96 -511.08,0 0,-189.96 z"/>
    </clipPath>
    <clipPath id="clipPath222" clipPathUnits="userSpaceOnUse">
      <path style="clip-rule:evenodd" id="path224" d="m 50.52,300.96 511.08,0 0,189.96 -511.08,0 0,-189.96 z"/>
    </clipPath>
    <clipPath id="clipPath234" clipPathUnits="userSpaceOnUse">
      <path style="clip-rule:evenodd" id="path236" d="m 50.52,300.96 511.08,0 0,189.96 -511.08,0 0,-189.96 z"/>
    </clipPath>
    <clipPath id="clipPath246" clipPathUnits="userSpaceOnUse">
      <path style="clip-rule:evenodd" id="path248" d="m 50.52,300.96 511.08,0 0,189.96 -511.08,0 0,-189.96 z"/>
    </clipPath>
    <clipPath id="clipPath258" clipPathUnits="userSpaceOnUse">
      <path style="clip-rule:evenodd" id="path260" d="m 50.52,300.96 511.08,0 0,189.96 -511.08,0 0,-189.96 z"/>
    </clipPath>
    <clipPath id="clipPath270" clipPathUnits="userSpaceOnUse">
      <path style="clip-rule:evenodd" id="path272" d="m 50.52,300.96 511.08,0 0,189.96 -511.08,0 0,-189.96 z"/>
    </clipPath>
    <clipPath id="clipPath282" clipPathUnits="userSpaceOnUse">
      <path style="clip-rule:evenodd" id="path284" d="m 50.52,300.96 511.08,0 0,189.96 -511.08,0 0,-189.96 z"/>
    </clipPath>
    <clipPath id="clipPath294" clipPathUnits="userSpaceOnUse">
      <path style="clip-rule:evenodd" id="path296" d="m 50.52,300.96 511.08,0 0,189.96 -511.08,0 0,-189.96 z"/>
    </clipPath>
    <clipPath id="clipPath306" clipPathUnits="userSpaceOnUse">
      <path style="clip-rule:evenodd" id="path308" d="m 50.52,300.96 511.08,0 0,189.96 -511.08,0 0,-189.96 z"/>
    </clipPath>
    <clipPath id="clipPath318" clipPathUnits="userSpaceOnUse">
      <path style="clip-rule:evenodd" id="path320" d="m 50.52,300.96 511.08,0 0,189.96 -511.08,0 0,-189.96 z"/>
    </clipPath>
    <clipPath id="clipPath330" clipPathUnits="userSpaceOnUse">
      <path style="clip-rule:evenodd" id="path332" d="m 50.52,300.96 511.08,0 0,189.96 -511.08,0 0,-189.96 z"/>
    </clipPath>
    <clipPath id="clipPath342" clipPathUnits="userSpaceOnUse">
      <path style="clip-rule:evenodd" id="path344" d="m 50.52,300.96 511.08,0 0,189.96 -511.08,0 0,-189.96 z"/>
    </clipPath>
    <clipPath id="clipPath354" clipPathUnits="userSpaceOnUse">
      <path style="clip-rule:evenodd" id="path356" d="m 50.52,300.96 511.08,0 0,189.96 -511.08,0 0,-189.96 z"/>
    </clipPath>
    <clipPath id="clipPath366" clipPathUnits="userSpaceOnUse">
      <path style="clip-rule:evenodd" id="path368" d="m 50.52,300.96 511.08,0 0,189.96 -511.08,0 0,-189.96 z"/>
    </clipPath>
    <clipPath id="clipPath378" clipPathUnits="userSpaceOnUse">
      <path style="clip-rule:evenodd" id="path380" d="m 50.52,300.96 511.08,0 0,189.96 -511.08,0 0,-189.96 z"/>
    </clipPath>
    <clipPath id="clipPath390" clipPathUnits="userSpaceOnUse">
      <path style="clip-rule:evenodd" id="path392" d="m 50.52,300.96 511.08,0 0,189.96 -511.08,0 0,-189.96 z"/>
    </clipPath>
    <clipPath id="clipPath402" clipPathUnits="userSpaceOnUse">
      <path style="clip-rule:evenodd" id="path404" d="m 50.52,300.96 511.08,0 0,189.96 -511.08,0 0,-189.96 z"/>
    </clipPath>
    <clipPath id="clipPath414" clipPathUnits="userSpaceOnUse">
      <path style="clip-rule:evenodd" id="path416" d="m 50.52,300.96 511.08,0 0,189.96 -511.08,0 0,-189.96 z"/>
    </clipPath>
    <clipPath id="clipPath426" clipPathUnits="userSpaceOnUse">
      <path style="clip-rule:evenodd" id="path428" d="m 50.52,300.96 511.08,0 0,189.96 -511.08,0 0,-189.96 z"/>
    </clipPath>
    <clipPath id="clipPath438" clipPathUnits="userSpaceOnUse">
      <path style="clip-rule:evenodd" id="path440" d="m 50.52,300.96 511.08,0 0,189.96 -511.08,0 0,-189.96 z"/>
    </clipPath>
    <clipPath id="clipPath450" clipPathUnits="userSpaceOnUse">
      <path style="clip-rule:evenodd" id="path452" d="m 50.52,300.96 511.08,0 0,189.96 -511.08,0 0,-189.96 z"/>
    </clipPath>
    <clipPath id="clipPath462" clipPathUnits="userSpaceOnUse">
      <path style="clip-rule:evenodd" id="path464" d="m 50.52,300.96 511.08,0 0,189.96 -511.08,0 0,-189.96 z"/>
    </clipPath>
    <clipPath id="clipPath474" clipPathUnits="userSpaceOnUse">
      <path style="clip-rule:evenodd" id="path476" d="m 50.52,300.96 511.08,0 0,189.96 -511.08,0 0,-189.96 z"/>
    </clipPath>
    <clipPath id="clipPath486" clipPathUnits="userSpaceOnUse">
      <path style="clip-rule:evenodd" id="path488" d="m 50.52,300.96 511.08,0 0,189.96 -511.08,0 0,-189.96 z"/>
    </clipPath>
    <clipPath id="clipPath498" clipPathUnits="userSpaceOnUse">
      <path style="clip-rule:evenodd" id="path500" d="m 50.52,300.96 511.08,0 0,189.96 -511.08,0 0,-189.96 z"/>
    </clipPath>
    <clipPath id="clipPath510" clipPathUnits="userSpaceOnUse">
      <path style="clip-rule:evenodd" id="path512" d="m 50.52,300.96 511.08,0 0,189.96 -511.08,0 0,-189.96 z"/>
    </clipPath>
    <clipPath id="clipPath522" clipPathUnits="userSpaceOnUse">
      <path style="clip-rule:evenodd" id="path524" d="m 50.52,300.96 511.08,0 0,189.96 -511.08,0 0,-189.96 z"/>
    </clipPath>
    <clipPath id="clipPath534" clipPathUnits="userSpaceOnUse">
      <path style="clip-rule:evenodd" id="path536" d="m 50.52,300.96 511.08,0 0,189.96 -511.08,0 0,-189.96 z"/>
    </clipPath>
    <clipPath id="clipPath548" clipPathUnits="userSpaceOnUse">
      <path style="clip-rule:evenodd" id="path550" d="m 50.52,300.96 511.08,0 0,189.96 -511.08,0 0,-189.96 z"/>
    </clipPath>
    <clipPath id="clipPath562" clipPathUnits="userSpaceOnUse">
      <path style="clip-rule:evenodd" id="path564" d="m 50.52,300.96 511.08,0 0,189.96 -511.08,0 0,-189.96 z"/>
    </clipPath>
  </defs>
  <g transform="matrix(1.25,0,0,-1.25,0,990)" id="g10">
    <g id="g12">
      <g clip-path="url(#clipPath16)" id="g14">
        <path id="path20" style="fill:none;stroke:#000000;stroke-width:0.14;stroke-linecap:butt;stroke-linejoin:miter;stroke-miterlimit:10;stroke-dasharray:none;stroke-opacity:0" d="m 50.418,491.03 511.172,0 0,-190 -511.171,0 -10e-4,190 z"/>
      </g>
    </g>
    <path id="path22" style="fill:#ffffff;fill-opacity:1;fill-rule:evenodd;stroke:none" d="m 50.418,301.03 511.17,0 0,190 -511.17,0 0,-190 z"/>
    <path id="path24" style="fill:#137cb1;fill-opacity:1;fill-rule:nonzero;stroke:none" d="m 296.91,450.37 -161.55,0 0,-6.04 161.55,0 0,6.04 z m 125.18,-15.15 -286.73,0 0,-6.04 286.73,0 0,6.04 z m -165.62,-15.04 -121.11,0 0,-6.04 121.11,0 0,6.04 z m -52.74,-15.03 -68.37,0 0,-6.04 68.37,0 0,6.04 z M 508.65,390 l -373.29,0 0,-6.04 373.29,0 0,6.04 z m -216.76,-15.04 -156.53,0 0,-6.04 156.53,0 0,6.04 z m -88.16,-15.15 -68.37,0 0,-6.03 68.37,0 0,6.03 z m -26.31,-15.03 -42.06,0 0,-6.04 42.06,0 0,6.04 z m 148.3,-15.04 -190.36,0 0,-6.04 190.36,0 0,6.04 z m -84.85,-15.15 -105.51,0 0,-6.03 105.51,0 0,6.03 z"/>
    <path id="path26" style="fill:#eacc80;fill-opacity:1;fill-rule:nonzero;stroke:none" d="m 227.65,444.33 -92.29,0 0,-6.04 92.29,0 0,6.04 z m 127.69,-15.15 -219.98,0 0,-5.92 219.98,0 0,5.92 z m -124.38,-15.04 -95.6,0 0,-6.03 95.6,0 0,6.03 z m -60.15,-15.03 -35.45,0 0,-6.04 35.45,0 0,6.04 z m 232.37,-15.15 -267.82,0 0,-6.04 267.82,0 0,6.04 z m -173.93,-15.04 -93.89,0 0,-6.03 93.89,0 0,6.03 z m -51.83,-15.14 -42.06,0 0,-6.04 42.06,0 0,6.04 z m -23.92,-15.04 -18.14,0 0,-6.04 18.14,0 0,6.04 z m 103.77,-15.04 -121.91,0 0,-6.03 121.91,0 0,6.03 z m -52.74,-15.14 -69.17,0 0,-6.04 69.17,0 0,6.04 z"/>
    <g id="g28">
      <g clip-path="url(#clipPath32)" id="g30">
        <path id="path36" style="fill:none;stroke:#808080;stroke-width:1.18649995;stroke-linecap:round;stroke-linejoin:round;stroke-miterlimit:10;stroke-dasharray:none;stroke-opacity:1" d="m 135.36,451.86 0.01,-150.83"/>
      </g>
    </g>
    <g id="g38">
      <g clip-path="url(#clipPath42)" id="g40"><text id="text46" style="font-variant:normal;font-weight:normal;font-size:8.54399967px;font-family:Arial;-inkscape-font-specification:Arial;writing-mode:lr-tb;fill:#000000;fill-opacity:1;fill-rule:nonzero;stroke:none" transform="matrix(1,0,0,-1,302.54,444.22)"><tspan id="tspan48" y="0" x="0 4.7759638 9.5519276">20%</tspan></text>
</g>
    </g>
    <g id="g50">
      <g clip-path="url(#clipPath54)" id="g52"><text id="text58" style="font-variant:normal;font-weight:normal;font-size:8.54399967px;font-family:Arial;-inkscape-font-specification:Arial;writing-mode:lr-tb;fill:#000000;fill-opacity:1;fill-rule:nonzero;stroke:none" transform="matrix(1,0,0,-1,427.8,429.14)"><tspan id="tspan60" y="0" x="0 4.7759638 9.5519276">35%</tspan></text>
</g>
    </g>
    <g id="g62">
      <g clip-path="url(#clipPath66)" id="g64"><text id="text70" style="font-variant:normal;font-weight:normal;font-size:8.54399967px;font-family:Arial;-inkscape-font-specification:Arial;writing-mode:lr-tb;fill:#000000;fill-opacity:1;fill-rule:nonzero;stroke:none" transform="matrix(1,0,0,-1,262.15,414.05)"><tspan id="tspan72" y="0" x="0 4.7759638 9.5519276">15%</tspan></text>
</g>
    </g>
    <g id="g74">
      <g clip-path="url(#clipPath78)" id="g76"><text id="text82" style="font-variant:normal;font-weight:normal;font-size:8.54399967px;font-family:Arial;-inkscape-font-specification:Arial;writing-mode:lr-tb;fill:#000000;fill-opacity:1;fill-rule:nonzero;stroke:none" transform="matrix(1,0,0,-1,209.42,398.98)"><tspan id="tspan84" y="0" x="0 4.7759638">8%</tspan></text>
</g>
    </g>
    <g id="g86">
      <g clip-path="url(#clipPath90)" id="g88"><text id="text94" style="font-variant:normal;font-weight:normal;font-size:8.54399967px;font-family:Arial;-inkscape-font-specification:Arial;writing-mode:lr-tb;fill:#000000;fill-opacity:1;fill-rule:nonzero;stroke:none" transform="matrix(1,0,0,-1,514.32,383.88)"><tspan id="tspan96" y="0" x="0 4.799964 9.5999279">45%</tspan></text>
</g>
    </g>
    <g id="g98">
      <g clip-path="url(#clipPath102)" id="g100"><text id="text106" style="font-variant:normal;font-weight:normal;font-size:8.54399967px;font-family:Arial;-inkscape-font-specification:Arial;writing-mode:lr-tb;fill:#000000;fill-opacity:1;fill-rule:nonzero;stroke:none" transform="matrix(1,0,0,-1,297.6,368.81)"><tspan id="tspan108" y="0" x="0 4.7759638 9.5519276">19%</tspan></text>
</g>
    </g>
    <g id="g110">
      <g clip-path="url(#clipPath114)" id="g112"><text id="text118" style="font-variant:normal;font-weight:normal;font-size:8.54399967px;font-family:Arial;-inkscape-font-specification:Arial;writing-mode:lr-tb;fill:#000000;fill-opacity:1;fill-rule:nonzero;stroke:none" transform="matrix(1,0,0,-1,209.42,353.71)"><tspan id="tspan120" y="0" x="0 4.7759638">8%</tspan></text>
</g>
    </g>
    <g id="g122">
      <g clip-path="url(#clipPath126)" id="g124"><text id="text130" style="font-variant:normal;font-weight:normal;font-size:8.54399967px;font-family:Arial;-inkscape-font-specification:Arial;writing-mode:lr-tb;fill:#000000;fill-opacity:1;fill-rule:nonzero;stroke:none" transform="matrix(1,0,0,-1,183.05,338.62)"><tspan id="tspan132" y="0" x="0 4.7759638">5%</tspan></text>
</g>
    </g>
    <g id="g134">
      <g clip-path="url(#clipPath138)" id="g136"><text id="text142" style="font-variant:normal;font-weight:normal;font-size:8.54399967px;font-family:Arial;-inkscape-font-specification:Arial;writing-mode:lr-tb;fill:#000000;fill-opacity:1;fill-rule:nonzero;stroke:none" transform="matrix(1,0,0,-1,331.37,323.54)"><tspan id="tspan144" y="0" x="0 4.799964 9.5999279">23%</tspan></text>
</g>
    </g>
    <g id="g146">
      <g clip-path="url(#clipPath150)" id="g148"><text id="text154" style="font-variant:normal;font-weight:normal;font-size:8.54399967px;font-family:Arial;-inkscape-font-specification:Arial;writing-mode:lr-tb;fill:#000000;fill-opacity:1;fill-rule:nonzero;stroke:none" transform="matrix(1,0,0,-1,246.5,308.45)"><tspan id="tspan156" y="0" x="0 4.7759638 9.5519276">13%</tspan></text>
</g>
    </g>
    <g id="g158">
      <g clip-path="url(#clipPath162)" id="g160"><text id="text166" style="font-variant:normal;font-weight:normal;font-size:8.54399967px;font-family:Arial;-inkscape-font-specification:Arial;writing-mode:lr-tb;fill:#000000;fill-opacity:1;fill-rule:nonzero;stroke:none" transform="matrix(1,0,0,-1,233.3,438.19)"><tspan id="tspan168" y="0" x="0 4.799964 9.5999279">11%</tspan></text>
</g>
    </g>
    <g id="g170">
      <g clip-path="url(#clipPath174)" id="g172"><text id="text178" style="font-variant:normal;font-weight:normal;font-size:8.54399967px;font-family:Arial;-inkscape-font-specification:Arial;writing-mode:lr-tb;fill:#000000;fill-opacity:1;fill-rule:nonzero;stroke:none" transform="matrix(1,0,0,-1,361.06,423.1)"><tspan id="tspan180" y="0" x="0 4.7759638 9.5519276">27%</tspan></text>
</g>
    </g>
    <g id="g182">
      <g clip-path="url(#clipPath186)" id="g184"><text id="text190" style="font-variant:normal;font-weight:normal;font-size:8.54399967px;font-family:Arial;-inkscape-font-specification:Arial;writing-mode:lr-tb;fill:#000000;fill-opacity:1;fill-rule:nonzero;stroke:none" transform="matrix(1,0,0,-1,236.62,408.02)"><tspan id="tspan192" y="0" x="0 4.7759638 9.5519276">12%</tspan></text>
</g>
    </g>
    <g id="g194">
      <g clip-path="url(#clipPath198)" id="g196"><text id="text202" style="font-variant:normal;font-weight:normal;font-size:8.54399967px;font-family:Arial;-inkscape-font-specification:Arial;writing-mode:lr-tb;fill:#000000;fill-opacity:1;fill-rule:nonzero;stroke:none" transform="matrix(1,0,0,-1,176.45,392.93)"><tspan id="tspan204" y="0" x="0 4.799964">4%</tspan></text>
</g>
    </g>
    <g id="g206">
      <g clip-path="url(#clipPath210)" id="g208"><text id="text214" style="font-variant:normal;font-weight:normal;font-size:8.54399967px;font-family:Arial;-inkscape-font-specification:Arial;writing-mode:lr-tb;fill:#000000;fill-opacity:1;fill-rule:nonzero;stroke:none" transform="matrix(1,0,0,-1,408.84,377.86)"><tspan id="tspan216" y="0" x="0 4.799964 9.5999279">33%</tspan></text>
</g>
    </g>
    <g id="g218">
      <g clip-path="url(#clipPath222)" id="g220"><text id="text226" style="font-variant:normal;font-weight:normal;font-size:8.54399967px;font-family:Arial;-inkscape-font-specification:Arial;writing-mode:lr-tb;fill:#000000;fill-opacity:1;fill-rule:nonzero;stroke:none" transform="matrix(1,0,0,-1,234.96,362.76)"><tspan id="tspan228" y="0" x="0 4.7759638 9.5519276">11%</tspan></text>
</g>
    </g>
    <g id="g230">
      <g clip-path="url(#clipPath234)" id="g232"><text id="text238" style="font-variant:normal;font-weight:normal;font-size:8.54399967px;font-family:Arial;-inkscape-font-specification:Arial;writing-mode:lr-tb;fill:#000000;fill-opacity:1;fill-rule:nonzero;stroke:none" transform="matrix(1,0,0,-1,183.05,347.69)"><tspan id="tspan240" y="0" x="0 4.7759638">5%</tspan></text>
</g>
    </g>
    <g id="g242">
      <g clip-path="url(#clipPath246)" id="g244"><text id="text250" style="font-variant:normal;font-weight:normal;font-size:8.54399967px;font-family:Arial;-inkscape-font-specification:Arial;writing-mode:lr-tb;fill:#000000;fill-opacity:1;fill-rule:nonzero;stroke:none" transform="matrix(1,0,0,-1,159.14,332.59)"><tspan id="tspan252" y="0" x="0 4.799964">2%</tspan></text>
</g>
    </g>
    <g id="g254">
      <g clip-path="url(#clipPath258)" id="g256"><text id="text262" style="font-variant:normal;font-weight:normal;font-size:8.54399967px;font-family:Arial;-inkscape-font-specification:Arial;writing-mode:lr-tb;fill:#000000;fill-opacity:1;fill-rule:nonzero;stroke:none" transform="matrix(1,0,0,-1,262.97,317.52)"><tspan id="tspan264" y="0" x="0 4.799964 9.5999279">15%</tspan></text>
</g>
    </g>
    <g id="g266">
      <g clip-path="url(#clipPath270)" id="g268"><text id="text274" style="font-variant:normal;font-weight:normal;font-size:8.54399967px;font-family:Arial;-inkscape-font-specification:Arial;writing-mode:lr-tb;fill:#000000;fill-opacity:1;fill-rule:nonzero;stroke:none" transform="matrix(1,0,0,-1,210.24,304.22)"><tspan id="tspan276" y="0" x="0 4.799964">8%</tspan></text>
</g>
    </g>
    <g id="g278">
      <g clip-path="url(#clipPath282)" id="g280"><text id="text286" style="font-variant:normal;font-weight:normal;font-size:8.54399967px;font-family:Arial;-inkscape-font-specification:Arial;writing-mode:lr-tb;fill:#000000;fill-opacity:1;fill-rule:nonzero;stroke:none" transform="matrix(1,0,0,-1,129.22,459.26)"><tspan id="tspan288" y="0" x="0 4.7759638">0%</tspan></text>
</g>
    </g>
    <g id="g290">
      <g clip-path="url(#clipPath294)" id="g292"><text id="text298" style="font-variant:normal;font-weight:normal;font-size:8.54399967px;font-family:Arial;-inkscape-font-specification:Arial;writing-mode:lr-tb;fill:#000000;fill-opacity:1;fill-rule:nonzero;stroke:none" transform="matrix(1,0,0,-1,170.42,459.26)"><tspan id="tspan300" y="0" x="0 4.7759638">5%</tspan></text>
</g>
    </g>
    <g id="g302">
      <g clip-path="url(#clipPath306)" id="g304"><text id="text310" style="font-variant:normal;font-weight:normal;font-size:8.54399967px;font-family:Arial;-inkscape-font-specification:Arial;writing-mode:lr-tb;fill:#000000;fill-opacity:1;fill-rule:nonzero;stroke:none" transform="matrix(1,0,0,-1,209.26,459.26)"><tspan id="tspan312" y="0" x="0 4.750464 9.4582081">10%</tspan></text>
</g>
    </g>
    <g id="g314">
      <g clip-path="url(#clipPath318)" id="g316"><text id="text322" style="font-variant:normal;font-weight:normal;font-size:8.54399967px;font-family:Arial;-inkscape-font-specification:Arial;writing-mode:lr-tb;fill:#000000;fill-opacity:1;fill-rule:nonzero;stroke:none" transform="matrix(1,0,0,-1,250.46,459.26)"><tspan id="tspan324" y="0" x="0 4.750464 9.4325762">15%</tspan></text>
</g>
    </g>
    <g id="g326">
      <g clip-path="url(#clipPath330)" id="g328"><text id="text334" style="font-variant:normal;font-weight:normal;font-size:8.54399967px;font-family:Arial;-inkscape-font-specification:Arial;writing-mode:lr-tb;fill:#000000;fill-opacity:1;fill-rule:nonzero;stroke:none" transform="matrix(1,0,0,-1,291.67,459.26)"><tspan id="tspan336" y="0" x="0 4.750464 9.4325762">20%</tspan></text>
</g>
    </g>
    <g id="g338">
      <g clip-path="url(#clipPath342)" id="g340"><text id="text346" style="font-variant:normal;font-weight:normal;font-size:8.54399967px;font-family:Arial;-inkscape-font-specification:Arial;writing-mode:lr-tb;fill:#000000;fill-opacity:1;fill-rule:nonzero;stroke:none" transform="matrix(1,0,0,-1,332.88,459.26)"><tspan id="tspan348" y="0" x="0 4.750464 9.4325762">25%</tspan></text>
</g>
    </g>
    <g id="g350">
      <g clip-path="url(#clipPath354)" id="g352"><text id="text358" style="font-variant:normal;font-weight:normal;font-size:8.54399967px;font-family:Arial;-inkscape-font-specification:Arial;writing-mode:lr-tb;fill:#000000;fill-opacity:1;fill-rule:nonzero;stroke:none" transform="matrix(1,0,0,-1,374.09,459.26)"><tspan id="tspan360" y="0" x="0 4.750464 9.4325762">30%</tspan></text>
</g>
    </g>
    <g id="g362">
      <g clip-path="url(#clipPath366)" id="g364"><text id="text370" style="font-variant:normal;font-weight:normal;font-size:8.54399967px;font-family:Arial;-inkscape-font-specification:Arial;writing-mode:lr-tb;fill:#000000;fill-opacity:1;fill-rule:nonzero;stroke:none" transform="matrix(1,0,0,-1,415.27,459.26)"><tspan id="tspan372" y="0" x="0 4.7931838 9.475296">35%</tspan></text>
</g>
    </g>
    <g id="g374">
      <g clip-path="url(#clipPath378)" id="g376"><text id="text382" style="font-variant:normal;font-weight:normal;font-size:8.54399967px;font-family:Arial;-inkscape-font-specification:Arial;writing-mode:lr-tb;fill:#000000;fill-opacity:1;fill-rule:nonzero;stroke:none" transform="matrix(1,0,0,-1,456.48,459.26)"><tspan id="tspan384" y="0" x="0 4.7931838 9.475296">40%</tspan></text>
</g>
    </g>
    <g id="g386">
      <g clip-path="url(#clipPath390)" id="g388"><text id="text394" style="font-variant:normal;font-weight:normal;font-size:8.54399967px;font-family:Arial;-inkscape-font-specification:Arial;writing-mode:lr-tb;fill:#000000;fill-opacity:1;fill-rule:nonzero;stroke:none" transform="matrix(1,0,0,-1,497.69,459.26)"><tspan id="tspan396" y="0" x="0 4.7931838 9.475296">45%</tspan></text>
</g>
    </g>
    <g id="g398">
      <g clip-path="url(#clipPath402)" id="g400"><text id="text406" style="font-variant:normal;font-weight:normal;font-size:8.54399967px;font-family:Arial;-inkscape-font-specification:Arial;writing-mode:lr-tb;fill:#000000;fill-opacity:1;fill-rule:nonzero;stroke:none" transform="matrix(1,0,0,-1,538.9,459.26)"><tspan id="tspan408" y="0" x="0 4.7931838 9.475296">50%</tspan></text>
</g>
    </g>
    <g id="g410">
      <g clip-path="url(#clipPath414)" id="g412"><text id="text418" style="font-variant:normal;font-weight:normal;font-size:8.54399967px;font-family:Arial;-inkscape-font-specification:Arial;writing-mode:lr-tb;fill:#000000;fill-opacity:1;fill-rule:nonzero;stroke:none" transform="matrix(1,0,0,-1,93.384,441.55)"><tspan id="tspan420" y="0" x="0 5.6988478 10.449312 15.12288 17.498112 24.69216 29.34864 32.19379">Pop Mart</tspan></text>
</g>
    </g>
    <g id="g422">
      <g clip-path="url(#clipPath426)" id="g424"><text id="text430" style="font-variant:normal;font-weight:normal;font-size:8.54399967px;font-family:Arial;-inkscape-font-specification:Arial;writing-mode:lr-tb;fill:#000000;fill-opacity:1;fill-rule:nonzero;stroke:none" transform="matrix(1,0,0,-1,103.34,426.46)"><tspan id="tspan432" y="0" x="0 5.6988478 10.449312 15.139968 17.985121 19.933151">Sanrio</tspan></text>
</g>
    </g>
    <g id="g434">
      <g clip-path="url(#clipPath438)" id="g436"><text id="text442" style="font-variant:normal;font-weight:normal;font-size:8.54399967px;font-family:Arial;-inkscape-font-specification:Arial;writing-mode:lr-tb;fill:#000000;fill-opacity:1;fill-rule:nonzero;stroke:none" transform="matrix(1,0,0,-1,109.06,411.38)"><tspan id="tspan444" y="0" x="0 5.2203841 10.919232 17.087999">TPCi</tspan></text>
</g>
    </g>
    <g id="g446">
      <g clip-path="url(#clipPath450)" id="g448"><text id="text454" style="font-variant:normal;font-weight:normal;font-size:8.54399967px;font-family:Arial;-inkscape-font-specification:Arial;writing-mode:lr-tb;fill:#000000;fill-opacity:1;fill-rule:nonzero;stroke:none" transform="matrix(1,0,0,-1,93.84,396.29)"><tspan id="tspan456" y="0" x="0 6.1687679 8.0655355 12.85872 15.139968 19.890432 24.683617 29.43408">Nintendo</tspan></text>
</g>
    </g>
    <g id="g458">
      <g clip-path="url(#clipPath462)" id="g460"><text id="text466" style="font-variant:normal;font-weight:normal;font-size:8.54399967px;font-family:Arial;-inkscape-font-specification:Arial;writing-mode:lr-tb;fill:#000000;fill-opacity:1;fill-rule:nonzero;stroke:none" transform="matrix(1,0,0,-1,101.93,381.19)"><tspan id="tspan468" y="0" x="0 6.1687679 8.0655355 12.337536 17.087999 21.838465">Disney</tspan></text>
</g>
    </g>
    <g id="g470">
      <g clip-path="url(#clipPath474)" id="g472"><text id="text478" style="font-variant:normal;font-weight:normal;font-size:8.54399967px;font-family:Arial;-inkscape-font-specification:Arial;writing-mode:lr-tb;fill:#000000;fill-opacity:1;fill-rule:nonzero;stroke:none" transform="matrix(1,0,0,-1,80.088,366.12)"><tspan id="tspan480" y="0" x="0 8.0655355 12.875808 15.609888 20.403072 25.196257 28.041409 30.442272 36.141121 38.986271 43.694016">Warner Bros</tspan></text>
</g>
    </g>
    <g id="g482">
      <g clip-path="url(#clipPath486)" id="g484"><text id="text490" style="font-variant:normal;font-weight:normal;font-size:8.54399967px;font-family:Arial;-inkscape-font-specification:Arial;writing-mode:lr-tb;fill:#000000;fill-opacity:1;fill-rule:nonzero;stroke:none" transform="matrix(1,0,0,-1,104.78,351.02)"><tspan id="tspan492" y="0" x="0 7.057344 11.807808 14.200128 16.575359 21.342913">Mattel</tspan></text>
</g>
    </g>
    <g id="g494">
      <g clip-path="url(#clipPath498)" id="g496"><text id="text502" style="font-variant:normal;font-weight:normal;font-size:8.54399967px;font-family:Arial;-inkscape-font-specification:Arial;writing-mode:lr-tb;fill:#000000;fill-opacity:1;fill-rule:nonzero;stroke:none" transform="matrix(1,0,0,-1,53.016,335.95)"><tspan id="tspan504" y="0" x="0 7.057344 13.772928 19.471775 21.847008 27.545856 32.227966 34.603199 39.396385 42.241535 44.642399 49.324512 51.264 56.014465 63.097439 67.8479 72.64109">MGA Entertainment</tspan></text>
</g>
    </g>
    <g id="g506">
      <g clip-path="url(#clipPath510)" id="g508"><text id="text514" style="font-variant:normal;font-weight:normal;font-size:8.54399967px;font-family:Arial;-inkscape-font-specification:Arial;writing-mode:lr-tb;fill:#000000;fill-opacity:1;fill-rule:nonzero;stroke:none" transform="matrix(1,0,0,-1,100.51,320.86)"><tspan id="tspan516" y="0" x="0 6.1687679 10.919232 15.12288 19.873344 22.718496">Hasbro</tspan></text>
</g>
    </g>
    <g id="g518">
      <g clip-path="url(#clipPath522)" id="g520"><text id="text526" style="font-variant:normal;font-weight:normal;font-size:8.54399967px;font-family:Arial;-inkscape-font-specification:Arial;writing-mode:lr-tb;fill:#000000;fill-opacity:1;fill-rule:nonzero;stroke:none" transform="matrix(1,0,0,-1,67.248,305.78)"><tspan id="tspan528" y="0" x="0 6.1687679 10.961952 12.90144 17.583551 22.376736 24.751968 29.570784 31.390656 33.765888 38.584705 41.429855 46.12051 48.495743 53.31456 56.159714">China Literature</tspan></text>
</g>
    </g>
    <g id="g530">
      <g clip-path="url(#clipPath534)" id="g532"><text id="text538" style="font-variant:normal;font-weight:bold;font-size:10.24800014px;font-family:Arial;-inkscape-font-specification:'Arial Bold';writing-mode:lr-tb;fill:#000000;fill-opacity:1;fill-rule:nonzero;stroke:none" transform="matrix(1,0,0,-1,101.33,479.69)"><tspan id="tspan540" y="0" x="0 7.399056 13.660584 16.509527 22.771055 28.468945 31.881529 34.730473 42.160271 48.421799 51.270744 54.119686 59.817577 65.515465 68.928047 71.776993 78.038521 80.887466 86.58535 89.434296 95.695824 99.682297 105.38018 111.64171 117.3396 123.60113 126.45007 132.14796 137.84584 143.51299 146.36194 153.19736 159.45888 163.44536 169.14323 175.40477 181.10266 186.80054 192.49843 198.75996 201.6089 204.45786 210.71938 213.56831 216.98091 223.24243 228.94032 231.78926 238.62468 244.32257 250.02046 253.43304 256.28198 261.97986 267.63678 270.48572 279.02231 285.28381 291.54535 294.95795 301.21945 306.91736 309.7663 315.46417 321.16208 324.01102 326.85995 334.259 339.95691 345.65479 349.06738 351.91632 357.6142 363.3121">China: Collectible Franchises Purchased in the Past 12 Months vs. Next 12M</tspan></text>
</g>
    </g>
    <path id="path542" style="fill:#137cb1;fill-opacity:1;fill-rule:evenodd;stroke:none" d="m 387.81,351.16 4.2928,0 0,4.2928 -4.2928,0 0,-4.2928 z"/>
    <g id="g544">
      <g clip-path="url(#clipPath548)" id="g546"><text id="text552" style="font-variant:normal;font-weight:normal;font-size:8.54399967px;font-family:Arial;-inkscape-font-specification:Arial;writing-mode:lr-tb;fill:#000000;fill-opacity:1;fill-rule:nonzero;stroke:none" transform="matrix(1,0,0,-1,393.96,350.52)"><tspan id="tspan554" y="0" x="0 6.1687679 10.961952 15.755136 19.975872 21.915359 26.597471 31.390656 34.235809 36.636673 42.335522 47.137249 49.982399 54.220222 59.013409 63.806591 68.027328 69.96682 74.648926 79.442116 81.817345 83.773918 88.456032 90.831261 97.000031 101.81885 106.15066 108.43191 110.80714 115.62595 120.41914">Consider Purchasing in Next 12M</tspan></text>
</g>
    </g>
    <path id="path556" style="fill:#eacc80;fill-opacity:1;fill-rule:evenodd;stroke:none" d="m 387.81,324.17 4.2928,0 0,4.2928 -4.2928,0 0,-4.2928 z"/>
    <g id="g558">
      <g clip-path="url(#clipPath562)" id="g560"><text id="text566" style="font-variant:normal;font-weight:normal;font-size:8.54399967px;font-family:Arial;-inkscape-font-specification:Arial;writing-mode:lr-tb;fill:#000000;fill-opacity:1;fill-rule:nonzero;stroke:none" transform="matrix(1,0,0,-1,393.96,323.52)"><tspan id="tspan568" y="0" x="0 5.6988478 10.500576 14.721312 17.096544 19.514496 23.735231 28.528416 33.321602 36.166752 38.567616 43.249729 48.042912 50.888065 55.236961 59.919071 64.712257 68.932991 73.726173">Past year purchased</tspan></text>
</g>
    </g>
  </g>
</svg>
