<?xml version="1.0" encoding="UTF-8" standalone="no"?>
<svg xmlns:dc="http://purl.org/dc/elements/1.1/" xmlns:cc="http://creativecommons.org/ns#" xmlns:rdf="http://www.w3.org/1999/02/22-rdf-syntax-ns#" xmlns:svg="http://www.w3.org/2000/svg" xmlns="http://www.w3.org/2000/svg" viewBox="63.1775 322.0875 638.8225 345.7125" height="345.7125" width="638.8225" xml:space="preserve" version="1.1" id="svg2">
  <metadata id="metadata8">
    <rdf:RDF>
      <cc:Work rdf:about="">
        <dc:format>image/svg+xml</dc:format>
        <dc:type rdf:resource="http://purl.org/dc/dcmitype/StillImage"/>
      </cc:Work>
    </rdf:RDF>
  </metadata>
  <defs id="defs6">
    <clipPath id="clipPath16" clipPathUnits="userSpaceOnUse">
      <path style="clip-rule:evenodd" id="path18" d="m 50.4,257.76 511.2,0 0,276.6 -511.2,0 0,-276.6 z"/>
    </clipPath>
    <clipPath id="clipPath28" clipPathUnits="userSpaceOnUse">
      <path style="clip-rule:evenodd" id="path30" d="m 84.519,311.35 442.09,0 0,194.36 -442.09,0 0,-194.36 z"/>
    </clipPath>
    <clipPath id="clipPath38" clipPathUnits="userSpaceOnUse">
      <path style="clip-rule:evenodd" id="path40" d="m 84.519,311.35 442.09,0 0,194.36 -442.09,0 0,-194.36 z"/>
    </clipPath>
    <clipPath id="clipPath50" clipPathUnits="userSpaceOnUse">
      <path style="clip-rule:evenodd" id="path52" d="m 84.519,311.35 442.09,0 0,194.36 -442.09,0 0,-194.36 z"/>
    </clipPath>
    <clipPath id="clipPath60" clipPathUnits="userSpaceOnUse">
      <path style="clip-rule:evenodd" id="path62" d="m 84.519,311.35 442.09,0 0,194.36 -442.09,0 0,-194.36 z"/>
    </clipPath>
    <clipPath id="clipPath70" clipPathUnits="userSpaceOnUse">
      <path style="clip-rule:evenodd" id="path72" d="m 50.52,257.76 511.08,0 0,276.48 -511.08,0 0,-276.48 z"/>
    </clipPath>
    <clipPath id="clipPath82" clipPathUnits="userSpaceOnUse">
      <path style="clip-rule:evenodd" id="path84" d="m 50.52,257.76 511.08,0 0,276.48 -511.08,0 0,-276.48 z"/>
    </clipPath>
    <clipPath id="clipPath94" clipPathUnits="userSpaceOnUse">
      <path style="clip-rule:evenodd" id="path96" d="m 50.52,257.76 511.08,0 0,276.48 -511.08,0 0,-276.48 z"/>
    </clipPath>
    <clipPath id="clipPath106" clipPathUnits="userSpaceOnUse">
      <path style="clip-rule:evenodd" id="path108" d="m 50.52,257.76 511.08,0 0,276.48 -511.08,0 0,-276.48 z"/>
    </clipPath>
    <clipPath id="clipPath118" clipPathUnits="userSpaceOnUse">
      <path style="clip-rule:evenodd" id="path120" d="m 50.52,257.76 511.08,0 0,276.48 -511.08,0 0,-276.48 z"/>
    </clipPath>
    <clipPath id="clipPath130" clipPathUnits="userSpaceOnUse">
      <path style="clip-rule:evenodd" id="path132" d="m 50.52,257.76 511.08,0 0,276.48 -511.08,0 0,-276.48 z"/>
    </clipPath>
    <clipPath id="clipPath142" clipPathUnits="userSpaceOnUse">
      <path style="clip-rule:evenodd" id="path144" d="m 50.52,257.76 511.08,0 0,276.48 -511.08,0 0,-276.48 z"/>
    </clipPath>
    <clipPath id="clipPath154" clipPathUnits="userSpaceOnUse">
      <path style="clip-rule:evenodd" id="path156" d="m 50.52,257.76 511.08,0 0,276.48 -511.08,0 0,-276.48 z"/>
    </clipPath>
    <clipPath id="clipPath166" clipPathUnits="userSpaceOnUse">
      <path style="clip-rule:evenodd" id="path168" d="m 50.52,257.76 511.08,0 0,276.48 -511.08,0 0,-276.48 z"/>
    </clipPath>
    <clipPath id="clipPath178" clipPathUnits="userSpaceOnUse">
      <path style="clip-rule:evenodd" id="path180" d="m 50.52,257.76 511.08,0 0,276.48 -511.08,0 0,-276.48 z"/>
    </clipPath>
    <clipPath id="clipPath190" clipPathUnits="userSpaceOnUse">
      <path style="clip-rule:evenodd" id="path192" d="m 50.52,257.76 511.08,0 0,276.48 -511.08,0 0,-276.48 z"/>
    </clipPath>
    <clipPath id="clipPath202" clipPathUnits="userSpaceOnUse">
      <path style="clip-rule:evenodd" id="path204" d="m 50.52,257.76 511.08,0 0,276.48 -511.08,0 0,-276.48 z"/>
    </clipPath>
    <clipPath id="clipPath214" clipPathUnits="userSpaceOnUse">
      <path style="clip-rule:evenodd" id="path216" d="m 50.52,257.76 511.08,0 0,276.48 -511.08,0 0,-276.48 z"/>
    </clipPath>
    <clipPath id="clipPath226" clipPathUnits="userSpaceOnUse">
      <path style="clip-rule:evenodd" id="path228" d="m 50.52,257.76 511.08,0 0,276.48 -511.08,0 0,-276.48 z"/>
    </clipPath>
    <clipPath id="clipPath238" clipPathUnits="userSpaceOnUse">
      <path style="clip-rule:evenodd" id="path240" d="m 50.52,257.76 511.08,0 0,276.48 -511.08,0 0,-276.48 z"/>
    </clipPath>
    <clipPath id="clipPath250" clipPathUnits="userSpaceOnUse">
      <path style="clip-rule:evenodd" id="path252" d="m 50.52,257.76 511.08,0 0,276.48 -511.08,0 0,-276.48 z"/>
    </clipPath>
    <clipPath id="clipPath262" clipPathUnits="userSpaceOnUse">
      <path style="clip-rule:evenodd" id="path264" d="m 50.52,257.76 511.08,0 0,276.48 -511.08,0 0,-276.48 z"/>
    </clipPath>
    <clipPath id="clipPath274" clipPathUnits="userSpaceOnUse">
      <path style="clip-rule:evenodd" id="path276" d="m 50.52,257.76 511.08,0 0,276.48 -511.08,0 0,-276.48 z"/>
    </clipPath>
    <clipPath id="clipPath286" clipPathUnits="userSpaceOnUse">
      <path style="clip-rule:evenodd" id="path288" d="m 50.52,257.76 511.08,0 0,276.48 -511.08,0 0,-276.48 z"/>
    </clipPath>
    <clipPath id="clipPath298" clipPathUnits="userSpaceOnUse">
      <path style="clip-rule:evenodd" id="path300" d="m 50.52,257.76 511.08,0 0,276.48 -511.08,0 0,-276.48 z"/>
    </clipPath>
    <clipPath id="clipPath310" clipPathUnits="userSpaceOnUse">
      <path style="clip-rule:evenodd" id="path312" d="m 50.52,257.76 511.08,0 0,276.48 -511.08,0 0,-276.48 z"/>
    </clipPath>
    <clipPath id="clipPath322" clipPathUnits="userSpaceOnUse">
      <path style="clip-rule:evenodd" id="path324" d="m 50.52,257.76 511.08,0 0,276.48 -511.08,0 0,-276.48 z"/>
    </clipPath>
    <clipPath id="clipPath334" clipPathUnits="userSpaceOnUse">
      <path style="clip-rule:evenodd" id="path336" d="m 50.52,257.76 511.08,0 0,276.48 -511.08,0 0,-276.48 z"/>
    </clipPath>
    <clipPath id="clipPath346" clipPathUnits="userSpaceOnUse">
      <path style="clip-rule:evenodd" id="path348" d="m 50.52,257.76 511.08,0 0,276.48 -511.08,0 0,-276.48 z"/>
    </clipPath>
    <clipPath id="clipPath358" clipPathUnits="userSpaceOnUse">
      <path style="clip-rule:evenodd" id="path360" d="m 50.52,257.76 511.08,0 0,276.48 -511.08,0 0,-276.48 z"/>
    </clipPath>
    <clipPath id="clipPath370" clipPathUnits="userSpaceOnUse">
      <path style="clip-rule:evenodd" id="path372" d="m 50.52,257.76 511.08,0 0,276.48 -511.08,0 0,-276.48 z"/>
    </clipPath>
    <clipPath id="clipPath382" clipPathUnits="userSpaceOnUse">
      <path style="clip-rule:evenodd" id="path384" d="m 50.52,257.76 511.08,0 0,276.48 -511.08,0 0,-276.48 z"/>
    </clipPath>
    <clipPath id="clipPath394" clipPathUnits="userSpaceOnUse">
      <path style="clip-rule:evenodd" id="path396" d="m 50.52,257.76 511.08,0 0,276.48 -511.08,0 0,-276.48 z"/>
    </clipPath>
    <clipPath id="clipPath406" clipPathUnits="userSpaceOnUse">
      <path style="clip-rule:evenodd" id="path408" d="m 50.52,257.76 511.08,0 0,276.48 -511.08,0 0,-276.48 z"/>
    </clipPath>
    <clipPath id="clipPath418" clipPathUnits="userSpaceOnUse">
      <path style="clip-rule:evenodd" id="path420" d="m 50.52,257.76 511.08,0 0,276.48 -511.08,0 0,-276.48 z"/>
    </clipPath>
    <clipPath id="clipPath430" clipPathUnits="userSpaceOnUse">
      <path style="clip-rule:evenodd" id="path432" d="m 50.52,257.76 511.08,0 0,276.48 -511.08,0 0,-276.48 z"/>
    </clipPath>
    <clipPath id="clipPath442" clipPathUnits="userSpaceOnUse">
      <path style="clip-rule:evenodd" id="path444" d="m 50.52,257.76 511.08,0 0,276.48 -511.08,0 0,-276.48 z"/>
    </clipPath>
    <clipPath id="clipPath454" clipPathUnits="userSpaceOnUse">
      <path style="clip-rule:evenodd" id="path456" d="m 50.52,257.76 511.08,0 0,276.48 -511.08,0 0,-276.48 z"/>
    </clipPath>
    <clipPath id="clipPath470" clipPathUnits="userSpaceOnUse">
      <path style="clip-rule:evenodd" id="path472" d="m 50.52,257.76 511.08,0 0,276.48 -511.08,0 0,-276.48 z"/>
    </clipPath>
    <clipPath id="clipPath484" clipPathUnits="userSpaceOnUse">
      <path style="clip-rule:evenodd" id="path486" d="m 50.52,257.76 511.08,0 0,276.48 -511.08,0 0,-276.48 z"/>
    </clipPath>
    <clipPath id="clipPath498" clipPathUnits="userSpaceOnUse">
      <path style="clip-rule:evenodd" id="path500" d="m 50.52,257.76 511.08,0 0,276.48 -511.08,0 0,-276.48 z"/>
    </clipPath>
    <clipPath id="clipPath518" clipPathUnits="userSpaceOnUse">
      <path style="clip-rule:evenodd" id="path520" d="m 50.52,257.76 511.08,0 0,276.48 -511.08,0 0,-276.48 z"/>
    </clipPath>
    <clipPath id="clipPath530" clipPathUnits="userSpaceOnUse">
      <path style="clip-rule:evenodd" id="path532" d="m 50.52,257.76 511.08,0 0,276.48 -511.08,0 0,-276.48 z"/>
    </clipPath>
    <clipPath id="clipPath542" clipPathUnits="userSpaceOnUse">
      <path style="clip-rule:evenodd" id="path544" d="m 50.52,257.76 511.08,0 0,276.48 -511.08,0 0,-276.48 z"/>
    </clipPath>
    <clipPath id="clipPath554" clipPathUnits="userSpaceOnUse">
      <path style="clip-rule:evenodd" id="path556" d="m 50.52,257.76 511.08,0 0,276.48 -511.08,0 0,-276.48 z"/>
    </clipPath>
    <clipPath id="clipPath566" clipPathUnits="userSpaceOnUse">
      <path style="clip-rule:evenodd" id="path568" d="m 50.52,257.76 511.08,0 0,276.48 -511.08,0 0,-276.48 z"/>
    </clipPath>
    <clipPath id="clipPath578" clipPathUnits="userSpaceOnUse">
      <path style="clip-rule:evenodd" id="path580" d="m 50.52,257.76 511.08,0 0,276.48 -511.08,0 0,-276.48 z"/>
    </clipPath>
    <clipPath id="clipPath590" clipPathUnits="userSpaceOnUse">
      <path style="clip-rule:evenodd" id="path592" d="m 50.52,257.76 511.08,0 0,276.48 -511.08,0 0,-276.48 z"/>
    </clipPath>
    <clipPath id="clipPath602" clipPathUnits="userSpaceOnUse">
      <path style="clip-rule:evenodd" id="path604" d="m 50.52,257.76 511.08,0 0,276.48 -511.08,0 0,-276.48 z"/>
    </clipPath>
    <clipPath id="clipPath614" clipPathUnits="userSpaceOnUse">
      <path style="clip-rule:evenodd" id="path616" d="m 50.52,257.76 511.08,0 0,276.48 -511.08,0 0,-276.48 z"/>
    </clipPath>
    <clipPath id="clipPath626" clipPathUnits="userSpaceOnUse">
      <path style="clip-rule:evenodd" id="path628" d="m 50.52,257.76 511.08,0 0,276.48 -511.08,0 0,-276.48 z"/>
    </clipPath>
    <clipPath id="clipPath638" clipPathUnits="userSpaceOnUse">
      <path style="clip-rule:evenodd" id="path640" d="m 50.52,257.76 511.08,0 0,276.48 -511.08,0 0,-276.48 z"/>
    </clipPath>
    <clipPath id="clipPath650" clipPathUnits="userSpaceOnUse">
      <path style="clip-rule:evenodd" id="path652" d="m 50.52,257.76 511.08,0 0,276.48 -511.08,0 0,-276.48 z"/>
    </clipPath>
  </defs>
  <g transform="matrix(1.25,0,0,-1.25,0,990)" id="g10">
    <g id="g12">
      <g clip-path="url(#clipPath16)" id="g14">
        <path id="path20" style="fill:none;stroke:#000000;stroke-width:0.14;stroke-linecap:butt;stroke-linejoin:miter;stroke-miterlimit:10;stroke-dasharray:none;stroke-opacity:0" d="m 50.612,257.77 510.92,0 0,276.49 -510.92,0 0,-276.49 z"/>
      </g>
    </g>
    <path id="path22" style="fill:#ffffff;fill-opacity:1;fill-rule:evenodd;stroke:none" d="m 50.612,257.77 510.92,0 0,276.49 -510.92,0 0,-276.49 z"/>
    <g id="g24">
      <g clip-path="url(#clipPath28)" id="g26">
        <path id="path32" style="fill:#e0d19e;fill-opacity:1;fill-rule:nonzero;stroke:none" d="m 70.121,333.25 0.932,0 0,61.97 -0.932,0 0,-61.97 z m 2.23,7.79 0.811,0 0,54.18 -0.811,0 0,-54.18 z m 2.109,12.17 0.811,0 0,42.01 -0.811,0 0,-42.01 z m 2.109,5.51 0.812,0 0,36.5 -0.812,0 0,-36.5 z m 2.109,11.36 0.974,0 0,25.14 -0.974,0 0,-25.14 z m 2.272,9.57 0.811,0 0,15.57 -0.811,0 0,-15.57 z m 2.109,13.79 0.811,0 0,1.78 -0.811,0 0,-1.78 z m 2.109,14.44 0.811,0 0,-12.66 -0.811,0 0,12.66 z m 2.109,19.14 0.973,0 0,-31.8 -0.973,0 0,31.8 z m 2.271,32.29 0.811,0 0,-64.09 -0.811,0 0,64.09 z m 2.109,2.75 0.811,0 0,-66.84 -0.811,0 0,66.84 z m 2.109,-19.95 0.811,0 0,-46.89 -0.811,0 0,46.89 z m 2.109,35.53 0.974,0 0,-82.42 -0.974,0 0,82.42 z m 2.272,-33.91 0.811,0 0,-48.51 -0.811,0 0,48.51 z m 2.113,-24.98 0.81,0 0,-23.53 -0.81,0 0,23.53 z m 2.1,-3.08 0.82,0 0,-20.45 -0.82,0 0,20.45 z m 2.11,-2.28 0.98,0 0,-18.17 -0.98,0 0,18.17 z m 2.27,-19.63 0.82,0 0,1.46 -0.82,0 0,-1.46 z m 2.11,-8.76 0.82,0 0,10.22 -0.82,0 0,-10.22 z m 2.11,-14.44 0.98,0 0,24.66 -0.98,0 0,-24.66 z m 2.11,-0.32 0.98,0 0,24.98 -0.98,0 0,-24.98 z m 2.27,-17.85 0.81,0 0,42.83 -0.81,0 0,-42.83 z m 2.11,-11.84 0.81,0 0,54.67 -0.81,0 0,-54.67 z m 2.11,7.79 0.97,0 0,46.88 -0.97,0 0,-46.88 z m 2.27,-27.91 0.81,0 0,74.79 -0.81,0 0,-74.79 z m 2.11,27.26 0.81,0 0,47.53 -0.81,0 0,-47.53 z m 2.11,6.65 0.81,0 0,40.88 -0.81,0 0,-40.88 z m 2.11,1.95 0.97,0 0,38.93 -0.97,0 0,-38.93 z m 2.27,-0.65 0.81,0 0,39.58 -0.81,0 0,-39.58 z m 2.11,21.58 0.81,0 0,18 -0.81,0 0,-18 z m 2.11,4.05 0.81,0 0,13.95 -0.81,0 0,-13.95 z m 2.11,-2.76 0.97,0 0,16.71 -0.97,0 0,-16.71 z m 2.27,6.01 0.81,0 0,10.7 -0.81,0 0,-10.7 z m 2.11,-10.71 0.81,0 0,21.41 -0.81,0 0,-21.41 z m 2.11,0.81 0.81,0 0,20.6 -0.81,0 0,-20.6 z m 2.11,2.92 0.97,0 0,17.68 -0.97,0 0,-17.68 z m 2.27,22.06 0.81,0 0,-4.38 -0.81,0 0,4.38 z m 2.11,-23.2 0.81,0 0,18.82 -0.81,0 0,-18.82 z m 2.11,9.74 0.97,0 0,9.08 -0.97,0 0,-9.08 z m 2.11,-0.97 0.97,0 0,10.05 -0.97,0 0,-10.05 z m 2.27,1.29 0.81,0 0,8.76 -0.81,0 0,-8.76 z m 2.11,-0.48 0.81,0 0,9.24 -0.81,0 0,-9.24 z m 2.1,-5.03 0.98,0 0,14.27 -0.98,0 0,-14.27 z m 2.28,2.59 0.81,0 0,11.68 -0.81,0 0,-11.68 z m 2.1,-0.32 0.82,0 0,12 -0.82,0 0,-12 z m 2.11,1.78 0.82,0 0,10.22 -0.82,0 0,-10.22 z m 2.11,1.95 0.98,0 0,8.27 -0.98,0 0,-8.27 z m 2.27,4.06 0.82,0 0,4.21 -0.82,0 0,-4.21 z m 2.11,24.66 0.81,0 0,-20.45 -0.81,0 0,20.45 z m 2.11,-5.52 0.81,0 0,-14.93 -0.81,0 0,14.93 z m 2.11,0 0.97,0 0,-14.93 -0.97,0 0,14.93 z m 2.27,1.95 0.81,0 0,-16.88 -0.81,0 0,16.88 z m 2.11,0.16 0.81,0 0,-17.04 -0.81,0 0,17.04 z m 2.11,2.76 0.81,0 0,-19.8 -0.81,0 0,19.8 z m 2.11,2.43 0.97,0 0,-22.23 -0.97,0 0,22.23 z m 2.27,3.89 0.81,0 0,-26.12 -0.81,0 0,26.12 z m 2.11,-8.27 0.81,0 0,-17.85 -0.81,0 0,17.85 z m 2.11,6.98 0.97,0 0,-24.83 -0.97,0 0,24.83 z m 2.11,1.29 0.97,0 0,-26.12 -0.97,0 0,26.12 z m 2.27,-10.22 0.81,0 0,-15.9 -0.81,0 0,15.9 z m 2.11,-31.31 0.81,0 0,15.41 -0.81,0 0,-15.41 z m 2.11,27.91 0.97,0 0,-12.5 -0.97,0 0,12.5 z m 2.27,-7.79 0.81,0 0,-4.71 -0.81,0 0,4.71 z m 2.11,-5.03 0.81,0 0,0.32 -0.81,0 0,-0.32 z m 2.11,1.78 0.81,0 0,-1.46 -0.81,0 0,1.46 z m 2.11,1.14 0.97,0 0,-2.6 -0.97,0 0,2.6 z m 2.27,0.32 0.81,0 0,-2.92 -0.81,0 0,2.92 z m 2.11,-1.78 0.81,0 0,-1.14 -0.81,0 0,1.14 z m 2.11,1.46 0.81,0 0,-2.6 -0.81,0 0,2.6 z m 2.1,-2.43 0.98,0 0,-0.17 -0.98,0 0,0.17 z m 2.28,-2.6 0.81,0 0,2.43 -0.81,0 0,-2.43 z m 2.1,2.43 0.82,0 0,-0.16 -0.82,0 0,0.16 z m 2.11,13.79 0.81,0 0,-13.79 -0.81,0 0,13.79 z m 2.11,-25.47 0.98,0 0,11.68 -0.98,0 0,-11.68 z m 2.27,8.11 0.82,0 0,3.57 -0.82,0 0,-3.57 z m 2.11,-8.76 0.81,0 0,12.33 -0.81,0 0,-12.33 z m 2.11,-3.08 0.81,0 0,15.41 -0.81,0 0,-15.41 z m 2.11,0.49 0.97,0 0,14.92 -0.97,0 0,-14.92 z m 2.27,-1.3 0.81,0 0,16.22 -0.81,0 0,-16.22 z m 2.11,-0.32 0.81,0 0,16.54 -0.81,0 0,-16.54 z m 2.11,-4.71 0.97,0 0,21.25 -0.97,0 0,-21.25 z m 2.11,7.46 0.97,0 0,13.79 -0.97,0 0,-13.79 z m 2.27,0.98 0.81,0 0,12.81 -0.81,0 0,-12.81 z m 2.11,-5.19 0.81,0 0,18 -0.81,0 0,-18 z m 2.11,-9.58 0.97,0 0,27.58 -0.97,0 0,-27.58 z m 2.27,18.5 0.81,0 0,9.08 -0.81,0 0,-9.08 z m 2.11,-5.52 0.81,0 0,14.6 -0.81,0 0,-14.6 z m 2.11,11.85 0.81,0 0,2.75 -0.81,0 0,-2.75 z m 2.11,-11.36 0.97,0 0,14.11 -0.97,0 0,-14.11 z m 2.27,-16.55 0.81,0 0,30.66 -0.81,0 0,-30.66 z m 2.11,3.73 0.81,0 0,26.93 -0.81,0 0,-26.93 z m 2.11,4.87 0.81,0 0,22.06 -0.81,0 0,-22.06 z m 2.11,-1.78 0.97,0 0,23.84 -0.97,0 0,-23.84 z m 2.27,-2.11 0.81,0 0,25.95 -0.81,0 0,-25.95 z m 2.11,-0.81 0.81,0 0,26.76 -0.81,0 0,-26.76 z m 2.11,0.97 0.81,0 0,25.79 -0.81,0 0,-25.79 z m 2.1,0.97 0.98,0 0,24.82 -0.98,0 0,-24.82 z m 2.28,-4.38 0.81,0 0,29.2 -0.81,0 0,-29.2 z m 2.1,-1.46 0.82,0 0,30.66 -0.82,0 0,-30.66 z m 2.11,5.36 0.98,0 0,25.3 -0.98,0 0,-25.3 z m 2.11,11.19 0.98,0 0,14.11 -0.98,0 0,-14.11 z m 2.27,-0.49 0.82,0 0,14.6 -0.82,0 0,-14.6 z m 2.11,6.98 0.81,0 0,7.62 -0.81,0 0,-7.62 z m 2.11,-4.06 0.98,0 0,11.68 -0.98,0 0,-11.68 z m 2.27,0.33 0.81,0 0,11.35 -0.81,0 0,-11.35 z m 2.11,0.97 0.81,0 0,10.38 -0.81,0 0,-10.38 z m 2.11,3.73 0.81,0 0,6.65 -0.81,0 0,-6.65 z m 2.11,-3.73 0.97,0 0,10.38 -0.97,0 0,-10.38 z m 2.27,24.99 0.81,0 0,-14.61 -0.81,0 0,14.61 z m 2.11,-19.47 0.81,0 0,4.86 -0.81,0 0,-4.86 z m 2.11,2.75 0.81,0 0,2.11 -0.81,0 0,-2.11 z m 2.11,-0.32 0.97,0 0,2.43 -0.97,0 0,-2.43 z m 2.27,4.54 0.81,0 0,-2.11 -0.81,0 0,2.11 z m 2.11,0.33 0.81,0 0,-2.44 -0.81,0 0,2.44 z m 2.11,-3.57 0.81,0 0,1.13 -0.81,0 0,-1.13 z m 2.11,0 0.97,0 0,1.13 -0.97,0 0,-1.13 z m 2.27,-2.27 0.81,0 0,3.4 -0.81,0 0,-3.4 z m 2.11,-2.27 0.81,0 0,5.67 -0.81,0 0,-5.67 z m 2.11,-3.25 0.97,0 0,8.92 -0.97,0 0,-8.92 z m 2.11,6.81 0.97,0 0,2.11 -0.97,0 0,-2.11 z m 2.27,-24.82 0.81,0 0,26.93 -0.81,0 0,-26.93 z m 2.11,23.53 0.81,0 0,3.4 -0.81,0 0,-3.4 z m 2.1,0.81 0.98,0 0,2.59 -0.98,0 0,-2.59 z m 2.28,-0.81 0.81,0 0,3.4 -0.81,0 0,-3.4 z m 2.11,0.97 0.81,0 0,2.43 -0.81,0 0,-2.43 z m 2.1,1.3 0.82,0 0,1.13 -0.82,0 0,-1.13 z m 2.11,1.62 0.98,0 0,-0.49 -0.98,0 0,0.49 z m 2.27,2.11 0.82,0 0,-2.6 -0.82,0 0,2.6 z m 2.11,1.3 0.81,0 0,-3.9 -0.81,0 0,3.9 z m 2.11,6.32 0.81,0 0,-10.22 -0.81,0 0,10.22 z m 2.11,5.2 0.98,0 0,-15.42 -0.98,0 0,15.42 z m 2.27,1.78 0.81,0 0,-17.2 -0.81,0 0,17.2 z m 2.11,22.55 0.81,0 0,-39.75 -0.81,0 0,39.75 z m 2.11,-13.95 0.81,0 0,-25.8 -0.81,0 0,25.8 z m 2.11,-1.14 0.97,0 0,-24.66 -0.97,0 0,24.66 z m 2.27,7.79 0.81,0 0,-32.45 -0.81,0 0,32.45 z m 2.11,-0.16 0.81,0 0,-32.29 -0.81,0 0,32.29 z m 2.11,-0.81 0.81,0 0,-31.48 -0.81,0 0,31.48 z m 2.11,4.05 0.97,0 0,-35.53 -0.97,0 0,35.53 z m 2.27,-1.62 0.81,0 0,-33.91 -0.81,0 0,33.91 z m 2.11,-0.97 0.81,0 0,-32.94 -0.81,0 0,32.94 z m 2.11,-1.62 0.97,0 0,-31.32 -0.97,0 0,31.32 z m 2.11,-3.57 0.97,0 0,-27.75 -0.97,0 0,27.75 z m 2.27,-0.98 0.81,0 0,-26.77 -0.81,0 0,26.77 z m 2.11,0.49 0.81,0 0,-27.26 -0.81,0 0,27.26 z m 2.11,-13.79 0.97,0 0,-13.47 -0.97,0 0,13.47 z m 2.27,2.6 0.81,0 0,-16.07 -0.81,0 0,16.07 z m 2.11,-6.17 0.81,0 0,-9.9 -0.81,0 0,9.9 z m 2.11,1.46 0.81,0 0,-11.36 -0.81,0 0,11.36 z m 2.1,6.33 0.98,0 0,-17.69 -0.98,0 0,17.69 z m 2.28,-2.11 0.81,0 0,-15.58 -0.81,0 0,15.58 z m 2.11,2.27 0.81,0 0,-17.85 -0.81,0 0,17.85 z m 2.1,-1.46 0.82,0 0,-16.39 -0.82,0 0,16.39 z m 2.11,0.32 0.98,0 0,-16.71 -0.98,0 0,16.71 z m 2.27,1.3 0.82,0 0,-18.01 -0.82,0 0,18.01 z m 2.11,2.92 0.81,0 0,-20.93 -0.81,0 0,20.93 z m 2.11,-17.68 0.81,0 0,-3.25 -0.81,0 0,3.25 z m 2.11,18.01 0.98,0 0,-21.26 -0.98,0 0,21.26 z m 2.27,-0.81 0.81,0 0,-20.45 -0.81,0 0,20.45 z m 2.11,2.92 0.81,0 0,-23.37 -0.81,0 0,23.37 z m 2.11,-3.9 0.97,0 0,-19.47 -0.97,0 0,19.47 z m 2.11,-2.92 0.97,0 0,-16.55 -0.97,0 0,16.55 z m 2.27,-1.62 0.81,0 0,-14.93 -0.81,0 0,14.93 z m 2.11,-0.16 0.81,0 0,-14.77 -0.81,0 0,14.77 z m 2.11,-1.14 0.97,0 0,-13.63 -0.97,0 0,13.63 z m 2.27,-3.08 0.81,0 0,-10.55 -0.81,0 0,10.55 z m 2.11,1.3 0.81,0 0,-11.85 -0.81,0 0,11.85 z m 2.11,-2.6 0.81,0 0,-9.25 -0.81,0 0,9.25 z m 2.11,17.85 0.97,0 0,-27.1 -0.97,0 0,27.1 z m 2.27,-19.63 0.81,0 0,-7.47 -0.81,0 0,7.47 z m 2.11,0.32 0.81,0 0,-7.79 -0.81,0 0,7.79 z m 2.11,1.46 0.81,0 0,-9.25 -0.81,0 0,9.25 z m 2.11,0.16 0.97,0 0,-9.41 -0.97,0 0,9.41 z m 2.27,-1.94 0.81,0 0,-7.47 -0.81,0 0,7.47 z m 2.11,3.4 0.81,0 0,-10.87 -0.81,0 0,10.87 z m 2.11,1.46 0.81,0 0,-12.33 -0.81,0 0,12.33 z m 2.1,0.65 0.98,0 0,-12.98 -0.98,0 0,12.98 z m 2.28,6.49 0.81,0 0,-19.47 -0.81,0 0,19.47 z m 2.1,4.38 0.82,0 0,-23.85 -0.82,0 0,23.85 z m 2.11,6.98 0.98,0 0,-30.83 -0.98,0 0,30.83 z m 2.11,-5.19 0.98,0 0,-25.64 -0.98,0 0,25.64 z m 2.27,4.22 0.82,0 0,-29.86 -0.82,0 0,29.86 z m 2.11,-0.33 0.81,0 0,-29.53 -0.81,0 0,29.53 z m 2.11,-0.32 0.98,0 0,-29.21 -0.98,0 0,29.21 z m 2.27,2.75 0.81,0 0,-31.96 -0.81,0 0,31.96 z m 2.11,0.65 0.81,0 0,-32.61 -0.81,0 0,32.61 z m 2.11,1.3 0.81,0 0,-33.91 -0.81,0 0,33.91 z m 2.11,-0.32 0.97,0 0,-33.59 -0.97,0 0,33.59 z m 2.27,0.32 0.81,0 0,-33.91 -0.81,0 0,33.91 z m 2.11,-0.16 0.81,0 0,-33.75 -0.81,0 0,33.75 z m 2.11,-6.49 0.81,0 0,-27.26 -0.81,0 0,27.26 z m 2.11,-4.54 0.97,0 0,-22.72 -0.97,0 0,22.72 z m 2.27,-14.12 0.81,0 0,-8.6 -0.81,0 0,8.6 z m 2.11,10.06 0.81,0 0,-18.66 -0.81,0 0,18.66 z m 2.11,0.49 0.81,0 0,-19.15 -0.81,0 0,19.15 z m 2.11,3.89 0.97,0 0,-23.04 -0.97,0 0,23.04 z m 2.27,0.33 0.81,0 0,-23.37 -0.81,0 0,23.37 z m 2.11,0.97 0.81,0 0,-24.34 -0.81,0 0,24.34 z m 2.11,1.78 0.81,0 0,-26.12 -0.81,0 0,26.12 z m 2.11,-0.65 0.97,0 0,-25.47 -0.97,0 0,25.47 z m 2.27,-5.35 0.81,0 0,-20.12 -0.81,0 0,20.12 z m 2.11,-3.24 0.81,0 0,-16.88 -0.81,0 0,16.88 z m 2.11,1.29 0.97,0 0,-18.17 -0.97,0 0,18.17 z m 2.1,-0.97 0.98,0 0,-17.2 -0.98,0 0,17.2 z m 2.28,12.33 0.81,0 0,-29.53 -0.81,0 0,29.53 z m 2.1,-11.52 0.82,0 0,-18.01 -0.82,0 0,18.01 z m 2.11,-0.16 0.98,0 0,-17.85 -0.98,0 0,17.85 z m 2.28,-2.92 0.81,0 0,-14.93 -0.81,0 0,14.93 z m 2.1,0.49 0.82,0 0,-15.42 -0.82,0 0,15.42 z m 2.11,-1.79 0.81,0 0,-13.63 -0.81,0 0,13.63 z m 2.11,-5.51 0.98,0 0,-8.12 -0.98,0 0,8.12 z m 2.27,-2.6 0.81,0 0,-5.52 -0.81,0 0,5.52 z"/>
      </g>
    </g>
    <g id="g34">
      <g clip-path="url(#clipPath38)" id="g36">
        <path id="path42" style="fill:none;stroke:#e0d19e;stroke-width:1.01400006;stroke-linecap:butt;stroke-linejoin:round;stroke-miterlimit:10;stroke-dasharray:none;stroke-opacity:1" d="m 70.121,333.25 0.932,0 0,61.97 -0.932,0 0,-61.97 z m 2.23,7.79 0.811,0 0,54.18 -0.811,0 0,-54.18 z m 2.109,12.17 0.811,0 0,42.01 -0.811,0 0,-42.01 z m 2.109,5.51 0.812,0 0,36.5 -0.812,0 0,-36.5 z m 2.109,11.36 0.974,0 0,25.14 -0.974,0 0,-25.14 z m 2.272,9.57 0.811,0 0,15.57 -0.811,0 0,-15.57 z m 2.109,13.79 0.811,0 0,1.78 -0.811,0 0,-1.78 z m 2.109,14.44 0.811,0 0,-12.66 -0.811,0 0,12.66 z m 2.109,19.14 0.973,0 0,-31.8 -0.973,0 0,31.8 z m 2.271,32.29 0.811,0 0,-64.09 -0.811,0 0,64.09 z m 2.109,2.75 0.811,0 0,-66.84 -0.811,0 0,66.84 z m 2.109,-19.95 0.811,0 0,-46.89 -0.811,0 0,46.89 z m 2.109,35.53 0.974,0 0,-82.42 -0.974,0 0,82.42 z m 2.272,-33.91 0.811,0 0,-48.51 -0.811,0 0,48.51 z m 2.113,-24.98 0.81,0 0,-23.53 -0.81,0 0,23.53 z m 2.1,-3.08 0.82,0 0,-20.45 -0.82,0 0,20.45 z m 2.11,-2.28 0.98,0 0,-18.17 -0.98,0 0,18.17 z m 2.27,-19.63 0.82,0 0,1.46 -0.82,0 0,-1.46 z m 2.11,-8.76 0.82,0 0,10.22 -0.82,0 0,-10.22 z m 2.11,-14.44 0.98,0 0,24.66 -0.98,0 0,-24.66 z m 2.11,-0.32 0.98,0 0,24.98 -0.98,0 0,-24.98 z m 2.27,-17.85 0.81,0 0,42.83 -0.81,0 0,-42.83 z m 2.11,-11.84 0.81,0 0,54.67 -0.81,0 0,-54.67 z m 2.11,7.79 0.97,0 0,46.88 -0.97,0 0,-46.88 z m 2.27,-27.91 0.81,0 0,74.79 -0.81,0 0,-74.79 z m 2.11,27.26 0.81,0 0,47.53 -0.81,0 0,-47.53 z m 2.11,6.65 0.81,0 0,40.88 -0.81,0 0,-40.88 z m 2.11,1.95 0.97,0 0,38.93 -0.97,0 0,-38.93 z m 2.27,-0.65 0.81,0 0,39.58 -0.81,0 0,-39.58 z m 2.11,21.58 0.81,0 0,18 -0.81,0 0,-18 z m 2.11,4.05 0.81,0 0,13.95 -0.81,0 0,-13.95 z m 2.11,-2.76 0.97,0 0,16.71 -0.97,0 0,-16.71 z m 2.27,6.01 0.81,0 0,10.7 -0.81,0 0,-10.7 z m 2.11,-10.71 0.81,0 0,21.41 -0.81,0 0,-21.41 z m 2.11,0.81 0.81,0 0,20.6 -0.81,0 0,-20.6 z m 2.11,2.92 0.97,0 0,17.68 -0.97,0 0,-17.68 z m 2.27,22.06 0.81,0 0,-4.38 -0.81,0 0,4.38 z m 2.11,-23.2 0.81,0 0,18.82 -0.81,0 0,-18.82 z m 2.11,9.74 0.97,0 0,9.08 -0.97,0 0,-9.08 z m 2.11,-0.97 0.97,0 0,10.05 -0.97,0 0,-10.05 z m 2.27,1.29 0.81,0 0,8.76 -0.81,0 0,-8.76 z m 2.11,-0.48 0.81,0 0,9.24 -0.81,0 0,-9.24 z m 2.1,-5.03 0.98,0 0,14.27 -0.98,0 0,-14.27 z m 2.28,2.59 0.81,0 0,11.68 -0.81,0 0,-11.68 z m 2.1,-0.32 0.82,0 0,12 -0.82,0 0,-12 z m 2.11,1.78 0.82,0 0,10.22 -0.82,0 0,-10.22 z m 2.11,1.95 0.98,0 0,8.27 -0.98,0 0,-8.27 z m 2.27,4.06 0.82,0 0,4.21 -0.82,0 0,-4.21 z m 2.11,24.66 0.81,0 0,-20.45 -0.81,0 0,20.45 z m 2.11,-5.52 0.81,0 0,-14.93 -0.81,0 0,14.93 z m 2.11,0 0.97,0 0,-14.93 -0.97,0 0,14.93 z m 2.27,1.95 0.81,0 0,-16.88 -0.81,0 0,16.88 z m 2.11,0.16 0.81,0 0,-17.04 -0.81,0 0,17.04 z m 2.11,2.76 0.81,0 0,-19.8 -0.81,0 0,19.8 z m 2.11,2.43 0.97,0 0,-22.23 -0.97,0 0,22.23 z m 2.27,3.89 0.81,0 0,-26.12 -0.81,0 0,26.12 z m 2.11,-8.27 0.81,0 0,-17.85 -0.81,0 0,17.85 z m 2.11,6.98 0.97,0 0,-24.83 -0.97,0 0,24.83 z m 2.11,1.29 0.97,0 0,-26.12 -0.97,0 0,26.12 z m 2.27,-10.22 0.81,0 0,-15.9 -0.81,0 0,15.9 z m 2.11,-31.31 0.81,0 0,15.41 -0.81,0 0,-15.41 z m 2.11,27.91 0.97,0 0,-12.5 -0.97,0 0,12.5 z m 2.27,-7.79 0.81,0 0,-4.71 -0.81,0 0,4.71 z m 2.11,-5.03 0.81,0 0,0.32 -0.81,0 0,-0.32 z m 2.11,1.78 0.81,0 0,-1.46 -0.81,0 0,1.46 z m 2.11,1.14 0.97,0 0,-2.6 -0.97,0 0,2.6 z m 2.27,0.32 0.81,0 0,-2.92 -0.81,0 0,2.92 z m 2.11,-1.78 0.81,0 0,-1.14 -0.81,0 0,1.14 z m 2.11,1.46 0.81,0 0,-2.6 -0.81,0 0,2.6 z m 2.1,-2.43 0.98,0 0,-0.17 -0.98,0 0,0.17 z m 2.28,-2.6 0.81,0 0,2.43 -0.81,0 0,-2.43 z m 2.1,2.43 0.82,0 0,-0.16 -0.82,0 0,0.16 z m 2.11,13.79 0.81,0 0,-13.79 -0.81,0 0,13.79 z m 2.11,-25.47 0.98,0 0,11.68 -0.98,0 0,-11.68 z m 2.27,8.11 0.82,0 0,3.57 -0.82,0 0,-3.57 z m 2.11,-8.76 0.81,0 0,12.33 -0.81,0 0,-12.33 z m 2.11,-3.08 0.81,0 0,15.41 -0.81,0 0,-15.41 z m 2.11,0.49 0.97,0 0,14.92 -0.97,0 0,-14.92 z m 2.27,-1.3 0.81,0 0,16.22 -0.81,0 0,-16.22 z m 2.11,-0.32 0.81,0 0,16.54 -0.81,0 0,-16.54 z m 2.11,-4.71 0.97,0 0,21.25 -0.97,0 0,-21.25 z m 2.11,7.46 0.97,0 0,13.79 -0.97,0 0,-13.79 z m 2.27,0.98 0.81,0 0,12.81 -0.81,0 0,-12.81 z m 2.11,-5.19 0.81,0 0,18 -0.81,0 0,-18 z m 2.11,-9.58 0.97,0 0,27.58 -0.97,0 0,-27.58 z m 2.27,18.5 0.81,0 0,9.08 -0.81,0 0,-9.08 z m 2.11,-5.52 0.81,0 0,14.6 -0.81,0 0,-14.6 z m 2.11,11.85 0.81,0 0,2.75 -0.81,0 0,-2.75 z m 2.11,-11.36 0.97,0 0,14.11 -0.97,0 0,-14.11 z m 2.27,-16.55 0.81,0 0,30.66 -0.81,0 0,-30.66 z m 2.11,3.73 0.81,0 0,26.93 -0.81,0 0,-26.93 z m 2.11,4.87 0.81,0 0,22.06 -0.81,0 0,-22.06 z m 2.11,-1.78 0.97,0 0,23.84 -0.97,0 0,-23.84 z m 2.27,-2.11 0.81,0 0,25.95 -0.81,0 0,-25.95 z m 2.11,-0.81 0.81,0 0,26.76 -0.81,0 0,-26.76 z m 2.11,0.97 0.81,0 0,25.79 -0.81,0 0,-25.79 z m 2.1,0.97 0.98,0 0,24.82 -0.98,0 0,-24.82 z m 2.28,-4.38 0.81,0 0,29.2 -0.81,0 0,-29.2 z m 2.1,-1.46 0.82,0 0,30.66 -0.82,0 0,-30.66 z m 2.11,5.36 0.98,0 0,25.3 -0.98,0 0,-25.3 z m 2.11,11.19 0.98,0 0,14.11 -0.98,0 0,-14.11 z m 2.27,-0.49 0.82,0 0,14.6 -0.82,0 0,-14.6 z m 2.11,6.98 0.81,0 0,7.62 -0.81,0 0,-7.62 z m 2.11,-4.06 0.98,0 0,11.68 -0.98,0 0,-11.68 z m 2.27,0.33 0.81,0 0,11.35 -0.81,0 0,-11.35 z m 2.11,0.97 0.81,0 0,10.38 -0.81,0 0,-10.38 z m 2.11,3.73 0.81,0 0,6.65 -0.81,0 0,-6.65 z m 2.11,-3.73 0.97,0 0,10.38 -0.97,0 0,-10.38 z m 2.27,24.99 0.81,0 0,-14.61 -0.81,0 0,14.61 z m 2.11,-19.47 0.81,0 0,4.86 -0.81,0 0,-4.86 z m 2.11,2.75 0.81,0 0,2.11 -0.81,0 0,-2.11 z m 2.11,-0.32 0.97,0 0,2.43 -0.97,0 0,-2.43 z m 2.27,4.54 0.81,0 0,-2.11 -0.81,0 0,2.11 z m 2.11,0.33 0.81,0 0,-2.44 -0.81,0 0,2.44 z m 2.11,-3.57 0.81,0 0,1.13 -0.81,0 0,-1.13 z m 2.11,0 0.97,0 0,1.13 -0.97,0 0,-1.13 z m 2.27,-2.27 0.81,0 0,3.4 -0.81,0 0,-3.4 z m 2.11,-2.27 0.81,0 0,5.67 -0.81,0 0,-5.67 z m 2.11,-3.25 0.97,0 0,8.92 -0.97,0 0,-8.92 z m 2.11,6.81 0.97,0 0,2.11 -0.97,0 0,-2.11 z m 2.27,-24.82 0.81,0 0,26.93 -0.81,0 0,-26.93 z m 2.11,23.53 0.81,0 0,3.4 -0.81,0 0,-3.4 z m 2.1,0.81 0.98,0 0,2.59 -0.98,0 0,-2.59 z m 2.28,-0.81 0.81,0 0,3.4 -0.81,0 0,-3.4 z m 2.11,0.97 0.81,0 0,2.43 -0.81,0 0,-2.43 z m 2.1,1.3 0.82,0 0,1.13 -0.82,0 0,-1.13 z m 2.11,1.62 0.98,0 0,-0.49 -0.98,0 0,0.49 z m 2.27,2.11 0.82,0 0,-2.6 -0.82,0 0,2.6 z m 2.11,1.3 0.81,0 0,-3.9 -0.81,0 0,3.9 z m 2.11,6.32 0.81,0 0,-10.22 -0.81,0 0,10.22 z m 2.11,5.2 0.98,0 0,-15.42 -0.98,0 0,15.42 z m 2.27,1.78 0.81,0 0,-17.2 -0.81,0 0,17.2 z m 2.11,22.55 0.81,0 0,-39.75 -0.81,0 0,39.75 z m 2.11,-13.95 0.81,0 0,-25.8 -0.81,0 0,25.8 z m 2.11,-1.14 0.97,0 0,-24.66 -0.97,0 0,24.66 z m 2.27,7.79 0.81,0 0,-32.45 -0.81,0 0,32.45 z m 2.11,-0.16 0.81,0 0,-32.29 -0.81,0 0,32.29 z m 2.11,-0.81 0.81,0 0,-31.48 -0.81,0 0,31.48 z m 2.11,4.05 0.97,0 0,-35.53 -0.97,0 0,35.53 z m 2.27,-1.62 0.81,0 0,-33.91 -0.81,0 0,33.91 z m 2.11,-0.97 0.81,0 0,-32.94 -0.81,0 0,32.94 z m 2.11,-1.62 0.97,0 0,-31.32 -0.97,0 0,31.32 z m 2.11,-3.57 0.97,0 0,-27.75 -0.97,0 0,27.75 z m 2.27,-0.98 0.81,0 0,-26.77 -0.81,0 0,26.77 z m 2.11,0.49 0.81,0 0,-27.26 -0.81,0 0,27.26 z m 2.11,-13.79 0.97,0 0,-13.47 -0.97,0 0,13.47 z m 2.27,2.6 0.81,0 0,-16.07 -0.81,0 0,16.07 z m 2.11,-6.17 0.81,0 0,-9.9 -0.81,0 0,9.9 z m 2.11,1.46 0.81,0 0,-11.36 -0.81,0 0,11.36 z m 2.1,6.33 0.98,0 0,-17.69 -0.98,0 0,17.69 z m 2.28,-2.11 0.81,0 0,-15.58 -0.81,0 0,15.58 z m 2.11,2.27 0.81,0 0,-17.85 -0.81,0 0,17.85 z m 2.1,-1.46 0.82,0 0,-16.39 -0.82,0 0,16.39 z m 2.11,0.32 0.98,0 0,-16.71 -0.98,0 0,16.71 z m 2.27,1.3 0.82,0 0,-18.01 -0.82,0 0,18.01 z m 2.11,2.92 0.81,0 0,-20.93 -0.81,0 0,20.93 z m 2.11,-17.68 0.81,0 0,-3.25 -0.81,0 0,3.25 z m 2.11,18.01 0.98,0 0,-21.26 -0.98,0 0,21.26 z m 2.27,-0.81 0.81,0 0,-20.45 -0.81,0 0,20.45 z m 2.11,2.92 0.81,0 0,-23.37 -0.81,0 0,23.37 z m 2.11,-3.9 0.97,0 0,-19.47 -0.97,0 0,19.47 z m 2.11,-2.92 0.97,0 0,-16.55 -0.97,0 0,16.55 z m 2.27,-1.62 0.81,0 0,-14.93 -0.81,0 0,14.93 z m 2.11,-0.16 0.81,0 0,-14.77 -0.81,0 0,14.77 z m 2.11,-1.14 0.97,0 0,-13.63 -0.97,0 0,13.63 z m 2.27,-3.08 0.81,0 0,-10.55 -0.81,0 0,10.55 z m 2.11,1.3 0.81,0 0,-11.85 -0.81,0 0,11.85 z m 2.11,-2.6 0.81,0 0,-9.25 -0.81,0 0,9.25 z m 2.11,17.85 0.97,0 0,-27.1 -0.97,0 0,27.1 z m 2.27,-19.63 0.81,0 0,-7.47 -0.81,0 0,7.47 z m 2.11,0.32 0.81,0 0,-7.79 -0.81,0 0,7.79 z m 2.11,1.46 0.81,0 0,-9.25 -0.81,0 0,9.25 z m 2.11,0.16 0.97,0 0,-9.41 -0.97,0 0,9.41 z m 2.27,-1.94 0.81,0 0,-7.47 -0.81,0 0,7.47 z m 2.11,3.4 0.81,0 0,-10.87 -0.81,0 0,10.87 z m 2.11,1.46 0.81,0 0,-12.33 -0.81,0 0,12.33 z m 2.1,0.65 0.98,0 0,-12.98 -0.98,0 0,12.98 z m 2.28,6.49 0.81,0 0,-19.47 -0.81,0 0,19.47 z m 2.1,4.38 0.82,0 0,-23.85 -0.82,0 0,23.85 z m 2.11,6.98 0.98,0 0,-30.83 -0.98,0 0,30.83 z m 2.11,-5.19 0.98,0 0,-25.64 -0.98,0 0,25.64 z m 2.27,4.22 0.82,0 0,-29.86 -0.82,0 0,29.86 z m 2.11,-0.33 0.81,0 0,-29.53 -0.81,0 0,29.53 z m 2.11,-0.32 0.98,0 0,-29.21 -0.98,0 0,29.21 z m 2.27,2.75 0.81,0 0,-31.96 -0.81,0 0,31.96 z m 2.11,0.65 0.81,0 0,-32.61 -0.81,0 0,32.61 z m 2.11,1.3 0.81,0 0,-33.91 -0.81,0 0,33.91 z m 2.11,-0.32 0.97,0 0,-33.59 -0.97,0 0,33.59 z m 2.27,0.32 0.81,0 0,-33.91 -0.81,0 0,33.91 z m 2.11,-0.16 0.81,0 0,-33.75 -0.81,0 0,33.75 z m 2.11,-6.49 0.81,0 0,-27.26 -0.81,0 0,27.26 z m 2.11,-4.54 0.97,0 0,-22.72 -0.97,0 0,22.72 z m 2.27,-14.12 0.81,0 0,-8.6 -0.81,0 0,8.6 z m 2.11,10.06 0.81,0 0,-18.66 -0.81,0 0,18.66 z m 2.11,0.49 0.81,0 0,-19.15 -0.81,0 0,19.15 z m 2.11,3.89 0.97,0 0,-23.04 -0.97,0 0,23.04 z m 2.27,0.33 0.81,0 0,-23.37 -0.81,0 0,23.37 z m 2.11,0.97 0.81,0 0,-24.34 -0.81,0 0,24.34 z m 2.11,1.78 0.81,0 0,-26.12 -0.81,0 0,26.12 z m 2.11,-0.65 0.97,0 0,-25.47 -0.97,0 0,25.47 z m 2.27,-5.35 0.81,0 0,-20.12 -0.81,0 0,20.12 z m 2.11,-3.24 0.81,0 0,-16.88 -0.81,0 0,16.88 z m 2.11,1.29 0.97,0 0,-18.17 -0.97,0 0,18.17 z m 2.1,-0.97 0.98,0 0,-17.2 -0.98,0 0,17.2 z m 2.28,12.33 0.81,0 0,-29.53 -0.81,0 0,29.53 z m 2.1,-11.52 0.82,0 0,-18.01 -0.82,0 0,18.01 z m 2.11,-0.16 0.98,0 0,-17.85 -0.98,0 0,17.85 z m 2.28,-2.92 0.81,0 0,-14.93 -0.81,0 0,14.93 z m 2.1,0.49 0.82,0 0,-15.42 -0.82,0 0,15.42 z m 2.11,-1.79 0.81,0 0,-13.63 -0.81,0 0,13.63 z m 2.11,-5.51 0.98,0 0,-8.12 -0.98,0 0,8.12 z m 2.27,-2.6 0.81,0 0,-5.52 -0.81,0 0,5.52 z"/>
      </g>
    </g>
    <path id="path44" style="fill:none;stroke:#808080;stroke-width:1.01400006;stroke-linecap:butt;stroke-linejoin:round;stroke-miterlimit:10;stroke-dasharray:none;stroke-opacity:1" d="m 84.537,312.29 441.073,0"/>
    <g id="g46">
      <g clip-path="url(#clipPath50)" id="g48">
        <path id="path54" style="fill:none;stroke:#005aa4;stroke-width:2.36590004;stroke-linecap:round;stroke-linejoin:round;stroke-miterlimit:10;stroke-dasharray:none;stroke-opacity:1" d="m 70.551,434.32 2.125,-9.41 2.109,-7.62 2.271,4.22 2.109,7.3 2.109,-4.55 2.109,-6.65 2.271,-2.27 2.11,-4.54 2.109,-1.62 2.271,-1.46 2.109,19.46 2.109,6.17 2.109,10.38 2.269,32.94 2.11,2.92 2.11,-1.46 2.11,17.52 2.27,-0.17 2.11,0.65 2.11,5.03 2.11,1.3 2.27,1.53 2.11,-13.21 2.11,-10.22 2.11,-3.73 2.27,-19.63 2.11,-6.49 2.11,-3.08 2.27,-16.39 2.11,-5.52 2.1,10.39 2.11,-1.63 2.28,2.28 2.1,0.97 2.11,1.62 2.11,-16.22 2.27,-9.57 2.11,6 2.11,-8.44 2.11,-1.62 2.27,5.03 2.11,-7.79 2.11,-6.97 2.11,-3.41 2.27,-0.97 2.11,-1.14 2.11,5.84 2.11,-7.95 2.27,4.06 2.11,2.59 2.11,-4.05 2.27,2.43 2.11,3.08 2.11,1.95 2.11,-3.08 2.27,8.6 2.11,-4.38 2.1,-1.46 2.11,-0.49 2.28,13.46 2.1,-4.86 2.11,3.24 2.11,2.6 2.27,-1.79 2.11,-11.52 2.11,3.09 2.11,1.62 2.27,-3.57 2.11,0.65 2.11,-0.33 2.27,-4.05 2.11,-2.27 2.11,0.48 2.11,-8.11 2.27,7.3 2.11,1.63 2.11,8.27 2.11,-7.95 2.27,-4.22 2.11,0.49 2.11,-2.44 2.11,-1.46 2.27,-0.97 2.11,-8.92 2.1,11.19 2.11,-5.84 2.27,-9.89 2.11,4.86 2.11,6.01 2.27,10.05 2.11,0 2.11,-1.29 2.11,2.43 2.27,1.14 2.11,-2.11 2.11,4.05 2.11,-4.38 2.27,0.65 2.11,-3.57 2.11,-6.65 2.11,-0.16 2.27,-10.06 2.11,7.3 2.11,0.97 2.11,0.81 2.27,-1.62 2.11,-0.32 2.11,-4.06 2.11,-1.62 2.27,-2.11 2.11,-1.78 2.1,-4.71 2.28,-0.16 2.1,-1.3 2.11,-2.11 2.11,2.6 2.27,-0.65 2.11,1.62 2.11,-6.81 2.11,3.57 2.27,0.97 2.11,-3.57 2.11,0.81 2.11,-0.32 2.27,-2.11 2.11,3.57 2.11,-1.95 2.11,0.49 2.27,-1.79 2.11,-0.16 2.11,0.81 2.27,1.95 2.11,-2.6 2.11,3.73 2.11,-0.48 2.27,0 2.11,0 2.11,-2.6 2.1,0.65 2.28,1.3 2.1,0 2.11,-1.46 2.11,3.24 2.27,-1.78 2.11,2.43 2.11,8.44 2.11,6.49 2.27,0 2.11,0 2.11,-2.6 2.27,-1.95 2.11,3.25 2.11,-2.6 2.11,1.3 2.27,-3.89 2.11,-4.54 2.11,4.54 2.11,-4.54 2.27,-8.28 2.11,1.3 2.11,1.78 2.11,-1.78 2.27,-0.65 2.11,0.65 2.11,2.43 2.1,-1.13 2.28,3.08 2.1,5.19 2.11,-3.89 2.11,3.24 2.27,5.19 2.11,3.9 2.11,1.94 2.27,3.9 2.11,1.3 2.11,-0.65 2.11,-1.95 2.27,3.73 2.11,-3.73 2.11,5.03 2.11,1.95 2.27,-1.3 2.11,-1.95 2.11,-5.03 2.11,-1.94 2.27,-3.9 2.11,-0.65 2.11,-1.94 2.11,0 2.27,-1.95 2.11,-1.95 2.1,-6.49 2.28,0 2.11,-2.43 2.1,-7.14 2.11,-1.3 2.27,-5.17 2.11,0.63 2.11,0 2.11,3.25 2.27,4.54 2.11,-2.6 2.11,1.3 2.11,-1.95 2.27,0 2.11,0 2.11,6.49 2.11,-0.65 2.27,2.6 2.11,3.08 2.15,0"/>
      </g>
    </g>
    <g id="g56">
      <g clip-path="url(#clipPath60)" id="g58">
        <path id="path64" style="fill:none;stroke:#c6d9e2;stroke-width:2.36590004;stroke-linecap:round;stroke-linejoin:round;stroke-miterlimit:10;stroke-dasharray:none;stroke-opacity:1" d="m 70.551,362.13 2.125,-0.33 2.109,6.66 2.271,10.54 2.109,20.44 2.109,6.65 2.109,9.58 2.271,14.6 2.11,17.68 2.109,35.85 2.271,1.95 2.109,-3.89 2.109,47.76 2.109,-29.11 2.269,3.57 2.11,-0.65 2.11,-3.89 2.11,-5.52 2.27,-10.38 2.11,-16.06 2.11,4.71 2.11,-19.64 2.27,-12.49 2.11,-4.05 2.11,-42.67 2.11,27.9 2.27,-11.68 2.11,-4.38 2.11,-3.89 2.27,9.08 2.11,-0.97 2.1,7.14 2.11,5.35 2.28,-10.22 2.1,1.95 2.11,5.03 2.11,9.57 2.27,-36.5 2.11,17.19 2.11,-9.57 2.11,-0.16 2.27,4.54 2.11,-13.63 2.11,-4.05 2.11,-3.89 2.27,1.13 2.11,1.3 2.11,10.54 2.11,20.77 2.27,-2.27 2.11,2.59 2.11,-1.94 2.27,2.92 2.11,6.16 2.11,4.71 2.11,1.46 2.27,-0.98 2.11,3.74 2.1,0.16 2.11,-12.49 2.28,-23.2 2.1,27.9 2.11,-5.84 2.11,-3.41 2.27,0.33 2.11,-10.22 2.11,3.57 2.11,-0.49 2.27,-2.11 2.11,-2.11 2.11,-3.24 2.27,-1.3 2.11,13.95 2.11,-29.36 2.11,1.29 2.27,-2.75 2.11,-1.95 2.11,8.76 2.11,-9.25 2.27,-4.86 2.11,-4.87 2.11,6.33 2.11,-0.49 2.27,-6.98 2.11,-20.11 2.1,32.77 2.11,-12.17 2.27,3.73 2.11,-8.27 2.11,-13.31 2.27,14.28 2.11,5.68 2.11,-3.25 2.11,0 2.27,0.33 2.11,-1.3 2.11,5.35 2.11,-9.41 2.27,-0.97 2.11,2.44 2.11,6.48 2.11,-0.81 2.27,-1.94 2.11,2.59 2.11,1.3 2.11,2.11 2.27,2.76 2.11,-4.71 2.11,24.99 2.11,-24.34 2.27,1.14 2.11,-2.27 2.1,0.81 2.28,0.32 2.1,-5.68 2.11,-2.11 2.11,0.17 2.27,-3.25 2.11,-2.27 2.11,1.14 2.11,-25.42 2.27,28.34 2.11,-2.6 2.11,-0.16 2.11,0.81 2.27,-0.49 2.11,5.19 2.11,0.82 2.11,1.94 2.27,5.52 2.11,5.84 2.11,2.92 2.27,28.23 2.11,-18.82 2.11,2.59 2.11,8.28 2.27,0 2.11,-1.14 2.11,2.11 2.1,-1.13 2.28,0.16 2.1,-1.95 2.11,-5.51 2.11,2.1 2.27,-1.29 2.11,-13.63 2.11,11.52 2.11,-0.81 2.27,1.78 2.11,7.3 2.11,-5.03 2.27,0.81 2.11,1.46 2.11,-2.11 2.11,2.76 2.27,-0.48 2.11,-25.15 2.11,25.47 2.11,-5.35 2.27,-5.03 2.11,-3.25 2.11,-1.46 2.11,-3.89 2.27,-0.81 2.11,-0.65 2.11,-0.97 2.1,0.16 2.28,0.32 2.1,25.8 2.11,-26.77 2.11,3.73 2.27,6.81 2.11,4.06 2.11,-0.33 2.27,7.79 2.11,2.92 2.11,0.16 2.11,5.68 2.27,9.09 2.11,4.22 2.11,-0.98 2.11,6.82 2.27,-1.63 2.11,-2.27 2.11,-1.94 2.11,-1.3 2.27,-2.27 2.11,-1.14 2.11,-1.46 2.11,-0.16 2.27,-9.41 2.11,-7.14 2.1,-23.04 2.28,11.68 2.11,-2.1 2.1,-2.44 2.11,-0.97 2.27,-4.06 2.11,2.76 2.11,-0.81 2.11,-2.76 2.27,0.49 2.11,-0.98 2.11,0 2.11,12.66 2.27,-13.47 2.11,-0.16 2.11,2.92 2.11,0 2.27,0.49 2.11,-3.25 2.15,-3.08"/>
      </g>
    </g>
    <g id="g66">
      <g clip-path="url(#clipPath70)" id="g68"><text id="text74" style="font-variant:normal;font-weight:normal;font-size:12.16800022px;font-family:'Roboto Condensed';-inkscape-font-specification:RobotoCondensed-Regular;writing-mode:lr-tb;fill:#000000;fill-opacity:1;fill-rule:nonzero;stroke:none" transform="matrix(1,0,0,-1,536.86,308.62)"><tspan id="tspan76" y="0" x="0 3.0785041 9.0894957 15.100488">-15%</tspan></text>
</g>
    </g>
    <g id="g78">
      <g clip-path="url(#clipPath82)" id="g80"><text id="text86" style="font-variant:normal;font-weight:normal;font-size:12.16800022px;font-family:'Roboto Condensed';-inkscape-font-specification:RobotoCondensed-Regular;writing-mode:lr-tb;fill:#000000;fill-opacity:1;fill-rule:nonzero;stroke:none" transform="matrix(1,0,0,-1,536.86,336.24)"><tspan id="tspan88" y="0" x="0 3.0785041 9.0894957 15.100488">-10%</tspan></text>
</g>
    </g>
    <g id="g90">
      <g clip-path="url(#clipPath94)" id="g92"><text id="text98" style="font-variant:normal;font-weight:normal;font-size:12.16800022px;font-family:'Roboto Condensed';-inkscape-font-specification:RobotoCondensed-Regular;writing-mode:lr-tb;fill:#000000;fill-opacity:1;fill-rule:nonzero;stroke:none" transform="matrix(1,0,0,-1,536.86,363.86)"><tspan id="tspan100" y="0" x="0 3.0785041 9.0894957">-5%</tspan></text>
</g>
    </g>
    <g id="g102">
      <g clip-path="url(#clipPath106)" id="g104"><text id="text110" style="font-variant:normal;font-weight:normal;font-size:12.16800022px;font-family:'Roboto Condensed';-inkscape-font-specification:RobotoCondensed-Regular;writing-mode:lr-tb;fill:#000000;fill-opacity:1;fill-rule:nonzero;stroke:none" transform="matrix(1,0,0,-1,536.86,391.49)"><tspan id="tspan112" y="0" x="0 6.0239921">0%</tspan></text>
</g>
    </g>
    <g id="g114">
      <g clip-path="url(#clipPath118)" id="g116"><text id="text122" style="font-variant:normal;font-weight:normal;font-size:12.16800022px;font-family:'Roboto Condensed';-inkscape-font-specification:RobotoCondensed-Regular;writing-mode:lr-tb;fill:#000000;fill-opacity:1;fill-rule:nonzero;stroke:none" transform="matrix(1,0,0,-1,536.86,419.11)"><tspan id="tspan124" y="0" x="0 6.0239921">5%</tspan></text>
</g>
    </g>
    <g id="g126">
      <g clip-path="url(#clipPath130)" id="g128"><text id="text134" style="font-variant:normal;font-weight:normal;font-size:12.16800022px;font-family:'Roboto Condensed';-inkscape-font-specification:RobotoCondensed-Regular;writing-mode:lr-tb;fill:#000000;fill-opacity:1;fill-rule:nonzero;stroke:none" transform="matrix(1,0,0,-1,536.86,446.76)"><tspan id="tspan136" y="0" x="0 6.0239921 12.047984">10%</tspan></text>
</g>
    </g>
    <g id="g138">
      <g clip-path="url(#clipPath142)" id="g140"><text id="text146" style="font-variant:normal;font-weight:normal;font-size:12.16800022px;font-family:'Roboto Condensed';-inkscape-font-specification:RobotoCondensed-Regular;writing-mode:lr-tb;fill:#000000;fill-opacity:1;fill-rule:nonzero;stroke:none" transform="matrix(1,0,0,-1,536.86,474.38)"><tspan id="tspan148" y="0" x="0 6.0239921 12.047984">15%</tspan></text>
</g>
    </g>
    <g id="g150">
      <g clip-path="url(#clipPath154)" id="g152"><text id="text158" style="font-variant:normal;font-weight:normal;font-size:12.16800022px;font-family:'Roboto Condensed';-inkscape-font-specification:RobotoCondensed-Regular;writing-mode:lr-tb;fill:#000000;fill-opacity:1;fill-rule:nonzero;stroke:none" transform="matrix(1,0,0,-1,536.86,502.01)"><tspan id="tspan160" y="0" x="0 6.0239921 12.047984">20%</tspan></text>
</g>
    </g>
    <g id="g162">
      <g clip-path="url(#clipPath166)" id="g164"><text id="text170" style="font-variant:normal;font-weight:normal;font-size:12.16800022px;font-family:'Roboto Condensed';-inkscape-font-specification:RobotoCondensed-Regular;writing-mode:lr-tb;fill:#000000;fill-opacity:1;fill-rule:nonzero;stroke:none" transform="matrix(1,0,0,-1,59.688,308.62)"><tspan id="tspan172" y="0" x="0 5.9999919">0%</tspan></text>
</g>
    </g>
    <g id="g174">
      <g clip-path="url(#clipPath178)" id="g176"><text id="text182" style="font-variant:normal;font-weight:normal;font-size:12.16800022px;font-family:'Roboto Condensed';-inkscape-font-specification:RobotoCondensed-Regular;writing-mode:lr-tb;fill:#000000;fill-opacity:1;fill-rule:nonzero;stroke:none" transform="matrix(1,0,0,-1,59.688,340.85)"><tspan id="tspan184" y="0" x="0 5.9999919">5%</tspan></text>
</g>
    </g>
    <g id="g186">
      <g clip-path="url(#clipPath190)" id="g188"><text id="text194" style="font-variant:normal;font-weight:normal;font-size:12.16800022px;font-family:'Roboto Condensed';-inkscape-font-specification:RobotoCondensed-Regular;writing-mode:lr-tb;fill:#000000;fill-opacity:1;fill-rule:nonzero;stroke:none" transform="matrix(1,0,0,-1,53.664,373.08)"><tspan id="tspan196" y="0" x="0 6.0239921 12.047984">10%</tspan></text>
</g>
    </g>
    <g id="g198">
      <g clip-path="url(#clipPath202)" id="g200"><text id="text206" style="font-variant:normal;font-weight:normal;font-size:12.16800022px;font-family:'Roboto Condensed';-inkscape-font-specification:RobotoCondensed-Regular;writing-mode:lr-tb;fill:#000000;fill-opacity:1;fill-rule:nonzero;stroke:none" transform="matrix(1,0,0,-1,53.664,405.31)"><tspan id="tspan208" y="0" x="0 6.0239921 12.047984">15%</tspan></text>
</g>
    </g>
    <g id="g210">
      <g clip-path="url(#clipPath214)" id="g212"><text id="text218" style="font-variant:normal;font-weight:normal;font-size:12.16800022px;font-family:'Roboto Condensed';-inkscape-font-specification:RobotoCondensed-Regular;writing-mode:lr-tb;fill:#000000;fill-opacity:1;fill-rule:nonzero;stroke:none" transform="matrix(1,0,0,-1,53.664,437.54)"><tspan id="tspan220" y="0" x="0 6.0239921 12.047984">20%</tspan></text>
</g>
    </g>
    <g id="g222">
      <g clip-path="url(#clipPath226)" id="g224"><text id="text230" style="font-variant:normal;font-weight:normal;font-size:12.16800022px;font-family:'Roboto Condensed';-inkscape-font-specification:RobotoCondensed-Regular;writing-mode:lr-tb;fill:#000000;fill-opacity:1;fill-rule:nonzero;stroke:none" transform="matrix(1,0,0,-1,53.664,469.78)"><tspan id="tspan232" y="0" x="0 6.0239921 12.047984">25%</tspan></text>
</g>
    </g>
    <g id="g234">
      <g clip-path="url(#clipPath238)" id="g236"><text id="text242" style="font-variant:normal;font-weight:normal;font-size:12.16800022px;font-family:'Roboto Condensed';-inkscape-font-specification:RobotoCondensed-Regular;writing-mode:lr-tb;fill:#000000;fill-opacity:1;fill-rule:nonzero;stroke:none" transform="matrix(1,0,0,-1,53.664,502.01)"><tspan id="tspan244" y="0" x="0 6.0239921 12.047984">30%</tspan></text>
</g>
    </g>
    <g id="g246">
      <g clip-path="url(#clipPath250)" id="g248"><text id="text254" style="font-variant:normal;font-weight:normal;font-size:12.16800022px;font-family:'Roboto Condensed';-inkscape-font-specification:RobotoCondensed-Regular;writing-mode:lr-tb;fill:#000000;fill-opacity:1;fill-rule:nonzero;stroke:none" transform="matrix(-4.4e-8,1,1,4.4e-8,89.856,270.58)"><tspan id="tspan256" y="0" x="0 7.0087681 12.83724 18.836063 21.926737 27.937729">Aug-08</tspan></text>
</g>
    </g>
    <g id="g258">
      <g clip-path="url(#clipPath262)" id="g260"><text id="text266" style="font-variant:normal;font-weight:normal;font-size:12.16800022px;font-family:'Roboto Condensed';-inkscape-font-specification:RobotoCondensed-Regular;writing-mode:lr-tb;fill:#000000;fill-opacity:1;fill-rule:nonzero;stroke:none" transform="matrix(-4.4e-8,1,1,4.4e-8,115.68,270.58)"><tspan id="tspan268" y="0" x="0 7.0087681 12.83724 18.836063 21.926737 27.937729">Aug-09</tspan></text>
</g>
    </g>
    <g id="g270">
      <g clip-path="url(#clipPath274)" id="g272"><text id="text278" style="font-variant:normal;font-weight:normal;font-size:12.16800022px;font-family:'Roboto Condensed';-inkscape-font-specification:RobotoCondensed-Regular;writing-mode:lr-tb;fill:#000000;fill-opacity:1;fill-rule:nonzero;stroke:none" transform="matrix(-4.4e-8,1,1,4.4e-8,141.5,270.58)"><tspan id="tspan280" y="0" x="0 7.0087681 12.83724 18.836063 21.926737 27.937729">Aug-10</tspan></text>
</g>
    </g>
    <g id="g282">
      <g clip-path="url(#clipPath286)" id="g284"><text id="text290" style="font-variant:normal;font-weight:normal;font-size:12.16800022px;font-family:'Roboto Condensed';-inkscape-font-specification:RobotoCondensed-Regular;writing-mode:lr-tb;fill:#000000;fill-opacity:1;fill-rule:nonzero;stroke:none" transform="matrix(-4.4e-8,1,1,4.4e-8,167.33,270.58)"><tspan id="tspan292" y="0" x="0 7.0087681 12.83724 18.836063 21.926737 27.937729">Aug-11</tspan></text>
</g>
    </g>
    <g id="g294">
      <g clip-path="url(#clipPath298)" id="g296"><text id="text302" style="font-variant:normal;font-weight:normal;font-size:12.16800022px;font-family:'Roboto Condensed';-inkscape-font-specification:RobotoCondensed-Regular;writing-mode:lr-tb;fill:#000000;fill-opacity:1;fill-rule:nonzero;stroke:none" transform="matrix(-4.4e-8,1,1,4.4e-8,193.15,270.58)"><tspan id="tspan304" y="0" x="0 7.0087681 12.83724 18.836063 21.926737 27.937729">Aug-12</tspan></text>
</g>
    </g>
    <g id="g306">
      <g clip-path="url(#clipPath310)" id="g308"><text id="text314" style="font-variant:normal;font-weight:normal;font-size:12.16800022px;font-family:'Roboto Condensed';-inkscape-font-specification:RobotoCondensed-Regular;writing-mode:lr-tb;fill:#000000;fill-opacity:1;fill-rule:nonzero;stroke:none" transform="matrix(-4.4e-8,1,1,4.4e-8,218.98,270.58)"><tspan id="tspan316" y="0" x="0 7.0087681 12.83724 18.836063 21.926737 27.937729">Aug-13</tspan></text>
</g>
    </g>
    <g id="g318">
      <g clip-path="url(#clipPath322)" id="g320"><text id="text326" style="font-variant:normal;font-weight:normal;font-size:12.16800022px;font-family:'Roboto Condensed';-inkscape-font-specification:RobotoCondensed-Regular;writing-mode:lr-tb;fill:#000000;fill-opacity:1;fill-rule:nonzero;stroke:none" transform="matrix(-4.4e-8,1,1,4.4e-8,244.8,270.58)"><tspan id="tspan328" y="0" x="0 7.0087681 12.83724 18.836063 21.926737 27.937729">Aug-14</tspan></text>
</g>
    </g>
    <g id="g330">
      <g clip-path="url(#clipPath334)" id="g332"><text id="text338" style="font-variant:normal;font-weight:normal;font-size:12.16800022px;font-family:'Roboto Condensed';-inkscape-font-specification:RobotoCondensed-Regular;writing-mode:lr-tb;fill:#000000;fill-opacity:1;fill-rule:nonzero;stroke:none" transform="matrix(-4.4e-8,1,1,4.4e-8,270.62,270.58)"><tspan id="tspan340" y="0" x="0 7.0087681 12.83724 18.836063 21.926737 27.937729">Aug-15</tspan></text>
</g>
    </g>
    <g id="g342">
      <g clip-path="url(#clipPath346)" id="g344"><text id="text350" style="font-variant:normal;font-weight:normal;font-size:12.16800022px;font-family:'Roboto Condensed';-inkscape-font-specification:RobotoCondensed-Regular;writing-mode:lr-tb;fill:#000000;fill-opacity:1;fill-rule:nonzero;stroke:none" transform="matrix(-4.4e-8,1,1,4.4e-8,296.45,270.58)"><tspan id="tspan352" y="0" x="0 7.0087681 12.83724 18.836063 21.926737 27.937729">Aug-16</tspan></text>
</g>
    </g>
    <g id="g354">
      <g clip-path="url(#clipPath358)" id="g356"><text id="text362" style="font-variant:normal;font-weight:normal;font-size:12.16800022px;font-family:'Roboto Condensed';-inkscape-font-specification:RobotoCondensed-Regular;writing-mode:lr-tb;fill:#000000;fill-opacity:1;fill-rule:nonzero;stroke:none" transform="matrix(-4.4e-8,1,1,4.4e-8,322.27,270.58)"><tspan id="tspan364" y="0" x="0 7.0087681 12.83724 18.836063 21.926737 27.937729">Aug-17</tspan></text>
</g>
    </g>
    <g id="g366">
      <g clip-path="url(#clipPath370)" id="g368"><text id="text374" style="font-variant:normal;font-weight:normal;font-size:12.16800022px;font-family:'Roboto Condensed';-inkscape-font-specification:RobotoCondensed-Regular;writing-mode:lr-tb;fill:#000000;fill-opacity:1;fill-rule:nonzero;stroke:none" transform="matrix(-4.4e-8,1,1,4.4e-8,348.1,270.58)"><tspan id="tspan376" y="0" x="0 7.0087681 12.83724 18.836063 21.926737 27.937729">Aug-18</tspan></text>
</g>
    </g>
    <g id="g378">
      <g clip-path="url(#clipPath382)" id="g380"><text id="text386" style="font-variant:normal;font-weight:normal;font-size:12.16800022px;font-family:'Roboto Condensed';-inkscape-font-specification:RobotoCondensed-Regular;writing-mode:lr-tb;fill:#000000;fill-opacity:1;fill-rule:nonzero;stroke:none" transform="matrix(-4.4e-8,1,1,4.4e-8,373.92,270.58)"><tspan id="tspan388" y="0" x="0 7.0087681 12.83724 18.836063 21.926737 27.937729">Aug-19</tspan></text>
</g>
    </g>
    <g id="g390">
      <g clip-path="url(#clipPath394)" id="g392"><text id="text398" style="font-variant:normal;font-weight:normal;font-size:12.16800022px;font-family:'Roboto Condensed';-inkscape-font-specification:RobotoCondensed-Regular;writing-mode:lr-tb;fill:#000000;fill-opacity:1;fill-rule:nonzero;stroke:none" transform="matrix(-4.4e-8,1,1,4.4e-8,399.74,270.58)"><tspan id="tspan400" y="0" x="0 7.0087681 12.83724 18.836063 21.926737 27.937729">Aug-20</tspan></text>
</g>
    </g>
    <g id="g402">
      <g clip-path="url(#clipPath406)" id="g404"><text id="text410" style="font-variant:normal;font-weight:normal;font-size:12.16800022px;font-family:'Roboto Condensed';-inkscape-font-specification:RobotoCondensed-Regular;writing-mode:lr-tb;fill:#000000;fill-opacity:1;fill-rule:nonzero;stroke:none" transform="matrix(-4.4e-8,1,1,4.4e-8,425.57,270.58)"><tspan id="tspan412" y="0" x="0 7.0087681 12.83724 18.836063 21.926737 27.937729">Aug-21</tspan></text>
</g>
    </g>
    <g id="g414">
      <g clip-path="url(#clipPath418)" id="g416"><text id="text422" style="font-variant:normal;font-weight:normal;font-size:12.16800022px;font-family:'Roboto Condensed';-inkscape-font-specification:RobotoCondensed-Regular;writing-mode:lr-tb;fill:#000000;fill-opacity:1;fill-rule:nonzero;stroke:none" transform="matrix(-4.4e-8,1,1,4.4e-8,451.39,270.58)"><tspan id="tspan424" y="0" x="0 7.0087681 12.83724 18.836063 21.926737 27.937729">Aug-22</tspan></text>
</g>
    </g>
    <g id="g426">
      <g clip-path="url(#clipPath430)" id="g428"><text id="text434" style="font-variant:normal;font-weight:normal;font-size:12.16800022px;font-family:'Roboto Condensed';-inkscape-font-specification:RobotoCondensed-Regular;writing-mode:lr-tb;fill:#000000;fill-opacity:1;fill-rule:nonzero;stroke:none" transform="matrix(-4.4e-8,1,1,4.4e-8,477.22,270.58)"><tspan id="tspan436" y="0" x="0 7.0087681 12.83724 18.836063 21.926737 27.937729">Aug-23</tspan></text>
</g>
    </g>
    <g id="g438">
      <g clip-path="url(#clipPath442)" id="g440"><text id="text446" style="font-variant:normal;font-weight:normal;font-size:12.16800022px;font-family:'Roboto Condensed';-inkscape-font-specification:RobotoCondensed-Regular;writing-mode:lr-tb;fill:#000000;fill-opacity:1;fill-rule:nonzero;stroke:none" transform="matrix(-4.4e-8,1,1,4.4e-8,503.04,270.58)"><tspan id="tspan448" y="0" x="0 7.0087681 12.83724 18.836063 21.926737 27.937729">Aug-24</tspan></text>
</g>
    </g>
    <g id="g450">
      <g clip-path="url(#clipPath454)" id="g452"><text id="text458" style="font-variant:normal;font-weight:normal;font-size:12.16800022px;font-family:'Roboto Condensed';-inkscape-font-specification:RobotoCondensed-Regular;writing-mode:lr-tb;fill:#000000;fill-opacity:1;fill-rule:nonzero;stroke:none" transform="matrix(-4.4e-8,1,1,4.4e-8,528.86,270.58)"><tspan id="tspan460" y="0" x="0 7.0087681 12.83724 18.836063 21.926737 27.937729">Aug-25</tspan></text>
</g>
    </g>
    <path id="path462" style="fill:#e0d19e;fill-opacity:1;fill-rule:evenodd;stroke:none" d="m 222.67,517.43 25.957,0 0,6.5705 -25.957,0 0,-6.5705 z"/>
    <path id="path464" style="fill:none;stroke:#e0d19e;stroke-width:1.01400006;stroke-linecap:butt;stroke-linejoin:round;stroke-miterlimit:10;stroke-dasharray:none;stroke-opacity:1" d="m 222.67,517.43 25.957,0 0,6.5705 -25.957,0 0,-6.5705 z"/>
    <g id="g466">
      <g clip-path="url(#clipPath470)" id="g468"><text id="text474" style="font-variant:normal;font-weight:normal;font-size:12.16800022px;font-family:'Roboto Condensed';-inkscape-font-specification:RobotoCondensed-Regular;writing-mode:lr-tb;fill:#000000;fill-opacity:1;fill-rule:nonzero;stroke:none" transform="matrix(1,0,0,-1,251.42,517.06)"><tspan id="tspan476" y="0" x="0 7.1304479 12.95892 18.957745 21.744217 27.74304 33.547176 37.100231 44.875584 50.691887 56.386513 62.190647 64.977119 72.545616 78.544441 84.531097 90.031029 95.725655 101.52979 107.6868 110.47327 116.44776 119.23423 126.18216 131.82811 137.82693 143.98395 149.48389 152.27036 155.79907 158.69505 164.35318 170.33983 176.37515 179.1008 188.32414 194.33513 197.0851 203.40028 209.5573 215.87248 218.92665 225.38786">Gap between Household Deposit and M2 YoY-RS</tspan></text>
</g>
    </g>
    <path id="path478" style="fill:none;stroke:#005aa4;stroke-width:2.36590004;stroke-linecap:round;stroke-linejoin:round;stroke-miterlimit:10;stroke-dasharray:none;stroke-opacity:1" d="m 222.67,506.22 25.96,0"/>
    <g id="g480">
      <g clip-path="url(#clipPath484)" id="g482"><text id="text488" style="font-variant:normal;font-weight:normal;font-size:12.16800022px;font-family:'Roboto Condensed';-inkscape-font-specification:RobotoCondensed-Regular;writing-mode:lr-tb;fill:#000000;fill-opacity:1;fill-rule:nonzero;stroke:none" transform="matrix(1,0,0,-1,251.42,502.56)"><tspan id="tspan490" y="0" x="0 9.2233438 15.234336 17.485416 20.381399 26.696592 32.8536">M2, YoY</tspan></text>
</g>
    </g>
    <path id="path492" style="fill:none;stroke:#c6d9e2;stroke-width:2.36590004;stroke-linecap:round;stroke-linejoin:round;stroke-miterlimit:10;stroke-dasharray:none;stroke-opacity:1" d="m 222.67,491.72 25.96,0"/>
    <g id="g494">
      <g clip-path="url(#clipPath498)" id="g496"><text id="text502" style="font-variant:normal;font-weight:normal;font-size:12.16800022px;font-family:'Roboto Condensed';-inkscape-font-specification:RobotoCondensed-Regular;writing-mode:lr-tb;fill:#000000;fill-opacity:1;fill-rule:nonzero;stroke:none" transform="matrix(1,0,0,-1,251.42,488.06)"><tspan id="tspan504" y="0" x="0 7.5928321 13.591656 19.420128 25.06608 30.760704 36.564838 42.721848 45.50832 51.482807 54.269279 61.217209 66.863159 72.861984 79.01899 84.518929 87.305397 90.834122 93.243385 96.029854 102.32071 108.47772">Household Deposit, YoY</tspan></text>
</g>
    </g>
    <g id="g506">
      <path id="path508" style="fill:none;stroke:#ff0000;stroke-width:1.352;stroke-linecap:butt;stroke-linejoin:round;stroke-miterlimit:10;stroke-dasharray:1.352, 1.352;stroke-dashoffset:0;stroke-opacity:1" d="m 104.51,408.47 c 0,56.55 9.6,102.39 21.44,102.39 11.84,0 21.44,-45.84 21.44,-102.39 0,-56.54 -9.6,-102.38 -21.44,-102.38 -11.84,0 -21.44,45.84 -21.44,102.38 z"/>
    </g>
    <g id="g510">
      <path id="path512" style="fill:none;stroke:#ff0000;stroke-width:1.352;stroke-linecap:butt;stroke-linejoin:round;stroke-miterlimit:10;stroke-dasharray:1.352, 1.352;stroke-dashoffset:0;stroke-opacity:1" d="m 228.92,374.62 c 0,18.16 15.42,32.87 34.45,32.87 19.02,0 34.44,-14.71 34.44,-32.87 0,-18.15 -15.42,-32.87 -34.44,-32.87 -19.03,0 -34.45,14.72 -34.45,32.87 z"/>
    </g>
    <g id="g514">
      <g clip-path="url(#clipPath518)" id="g516"><text id="text522" style="font-variant:normal;font-weight:normal;font-size:12.16800022px;font-family:'Roboto Condensed';-inkscape-font-specification:RobotoCondensed-Regular;writing-mode:lr-tb;fill:#ff0000;fill-opacity:1;fill-rule:nonzero;stroke:none" transform="matrix(1,0,0,-1,158.28,458.38)"><tspan id="tspan524" y="0" x="0 6.3030238 9.8925838 16.06176 21.732048 27.219816 29.87244 35.700912 41.590225 47.625553 50.521538 56.520359 60.280273 66.437279 72.436104 78.13073 81.878471 85.468033">Stock and property</tspan></text>
</g>
    </g>
    <g id="g526">
      <g clip-path="url(#clipPath530)" id="g528"><text id="text534" style="font-variant:normal;font-weight:normal;font-size:12.16800022px;font-family:'Roboto Condensed';-inkscape-font-specification:RobotoCondensed-Regular;writing-mode:lr-tb;fill:#ff0000;fill-opacity:1;fill-rule:nonzero;stroke:none" transform="matrix(1,0,0,-1,158.28,443.76)"><tspan id="tspan536" y="0" x="0 9.1016636 14.930136 18.690048 24.177816 29.87244 33.462002 36.24847 39.947544 45.824688 48.61116 51.348961">market rally</tspan></text>
</g>
    </g>
    <g id="g538">
      <g clip-path="url(#clipPath542)" id="g540"><text id="text546" style="font-variant:normal;font-weight:normal;font-size:12.16800022px;font-family:'Roboto Condensed';-inkscape-font-specification:RobotoCondensed-Regular;writing-mode:lr-tb;fill:#ff0000;fill-opacity:1;fill-rule:nonzero;stroke:none" transform="matrix(1,0,0,-1,217.51,443.76)"><tspan id="tspan548" y="0" x="0 2.7864721 8.5906076">in </tspan></text>
</g>
    </g>
    <g id="g550">
      <g clip-path="url(#clipPath554)" id="g552"><text id="text558" style="font-variant:normal;font-weight:normal;font-size:12.16800022px;font-family:'Roboto Condensed';-inkscape-font-specification:RobotoCondensed-Regular;writing-mode:lr-tb;fill:#ff0000;fill-opacity:1;fill-rule:nonzero;stroke:none" transform="matrix(1,0,0,-1,158.28,429.17)"><tspan id="tspan560" y="0" x="0 6.0239921 12.047984 18.071976">2009</tspan></text>
</g>
    </g>
    <g id="g562">
      <g clip-path="url(#clipPath566)" id="g564"><text id="text570" style="font-variant:normal;font-weight:normal;font-size:12.16800022px;font-family:'Roboto Condensed';-inkscape-font-specification:RobotoCondensed-Regular;writing-mode:lr-tb;fill:#ff0000;fill-opacity:1;fill-rule:nonzero;stroke:none" transform="matrix(1,0,0,-1,182.3,429.17)"><tspan id="tspan572" y="0" x="0">-</tspan></text>
</g>
    </g>
    <g id="g574">
      <g clip-path="url(#clipPath578)" id="g576"><text id="text582" style="font-variant:normal;font-weight:normal;font-size:12.16800022px;font-family:'Roboto Condensed';-inkscape-font-specification:RobotoCondensed-Regular;writing-mode:lr-tb;fill:#ff0000;fill-opacity:1;fill-rule:nonzero;stroke:none" transform="matrix(1,0,0,-1,185.38,429.17)"><tspan id="tspan584" y="0" x="0 6.0239921">10</tspan></text>
</g>
    </g>
    <g id="g586">
      <g clip-path="url(#clipPath590)" id="g588"><text id="text594" style="font-variant:normal;font-weight:normal;font-size:12.16800022px;font-family:'Roboto Condensed';-inkscape-font-specification:RobotoCondensed-Regular;writing-mode:lr-tb;fill:#ff0000;fill-opacity:1;fill-rule:nonzero;stroke:none" transform="matrix(1,0,0,-1,222.62,330.65)"><tspan id="tspan596" y="0" x="0 6.3030238 9.8925838 16.049591 21.695543 27.183311 29.8116 35.640072 41.480713 47.516041 50.375519 56.374344 60.073418 66.254761 72.253586 77.948212 81.647278 85.236839 90.225723">Stock and property </tspan></text>
</g>
    </g>
    <g id="g598">
      <g clip-path="url(#clipPath602)" id="g600"><text id="text606" style="font-variant:normal;font-weight:normal;font-size:12.16800022px;font-family:'Roboto Condensed';-inkscape-font-specification:RobotoCondensed-Regular;writing-mode:lr-tb;fill:#ff0000;fill-opacity:1;fill-rule:nonzero;stroke:none" transform="matrix(1,0,0,-1,222.62,316.06)"><tspan id="tspan608" y="0" x="0 9.0773277 14.9058 18.604872 24.141312 29.835936 33.376823 36.163296 39.86237 45.690842 48.47731 51.202946">market rally</tspan></text>
</g>
    </g>
    <g id="g610">
      <g clip-path="url(#clipPath614)" id="g612"><text id="text618" style="font-variant:normal;font-weight:normal;font-size:12.16800022px;font-family:'Roboto Condensed';-inkscape-font-specification:RobotoCondensed-Regular;writing-mode:lr-tb;fill:#ff0000;fill-opacity:1;fill-rule:nonzero;stroke:none" transform="matrix(1,0,0,-1,281.86,316.06)"><tspan id="tspan620" y="0" x="0 2.7864721 8.5906076">in </tspan></text>
</g>
    </g>
    <g id="g622">
      <g clip-path="url(#clipPath626)" id="g624"><text id="text630" style="font-variant:normal;font-weight:normal;font-size:12.16800022px;font-family:'Roboto Condensed';-inkscape-font-specification:RobotoCondensed-Regular;writing-mode:lr-tb;fill:#ff0000;fill-opacity:1;fill-rule:nonzero;stroke:none" transform="matrix(1,0,0,-1,222.62,301.44)"><tspan id="tspan632" y="0" x="0 5.9999919 11.999984 17.999975">2015</tspan></text>
</g>
    </g>
    <g id="g634">
      <g clip-path="url(#clipPath638)" id="g636"><text id="text642" style="font-variant:normal;font-weight:normal;font-size:12.16800022px;font-family:'Roboto Condensed';-inkscape-font-specification:RobotoCondensed-Regular;writing-mode:lr-tb;fill:#ff0000;fill-opacity:1;fill-rule:nonzero;stroke:none" transform="matrix(1,0,0,-1,246.62,301.44)"><tspan id="tspan644" y="0" x="0">-</tspan></text>
</g>
    </g>
    <g id="g646">
      <g clip-path="url(#clipPath650)" id="g648"><text id="text654" style="font-variant:normal;font-weight:normal;font-size:12.16800022px;font-family:'Roboto Condensed';-inkscape-font-specification:RobotoCondensed-Regular;writing-mode:lr-tb;fill:#ff0000;fill-opacity:1;fill-rule:nonzero;stroke:none" transform="matrix(1,0,0,-1,249.72,301.44)"><tspan id="tspan656" y="0" x="0 5.9999919">16</tspan></text>
</g>
    </g>
  </g>
</svg>
