<?xml version="1.0" encoding="UTF-8" standalone="no"?>
<svg xmlns:dc="http://purl.org/dc/elements/1.1/" xmlns:cc="http://creativecommons.org/ns#" xmlns:rdf="http://www.w3.org/1999/02/22-rdf-syntax-ns#" xmlns:svg="http://www.w3.org/2000/svg" xmlns="http://www.w3.org/2000/svg" viewBox="63.07125 319 639 352.175" height="352.175" width="639" xml:space="preserve" version="1.1" id="svg2">
  <metadata id="metadata8">
    <rdf:RDF>
      <cc:Work rdf:about="">
        <dc:format>image/svg+xml</dc:format>
        <dc:type rdf:resource="http://purl.org/dc/dcmitype/StillImage"/>
      </cc:Work>
    </rdf:RDF>
  </metadata>
  <defs id="defs6">
    <clipPath id="clipPath16" clipPathUnits="userSpaceOnUse">
      <path style="clip-rule:evenodd" id="path18" d="m 50.4,255.12 511.2,0 0,281.76 -511.2,0 0,-281.76 z"/>
    </clipPath>
    <clipPath id="clipPath26" clipPathUnits="userSpaceOnUse">
      <path style="clip-rule:evenodd" id="path28" d="m 50.4,255.12 511.2,0 0,281.76 -511.2,0 0,-281.76 z"/>
    </clipPath>
    <clipPath id="clipPath40" clipPathUnits="userSpaceOnUse">
      <path style="clip-rule:evenodd" id="path42" d="m 50.52,255.12 511.08,0 0,281.64 -511.08,0 0,-281.64 z"/>
    </clipPath>
    <clipPath id="clipPath52" clipPathUnits="userSpaceOnUse">
      <path style="clip-rule:evenodd" id="path54" d="m 50.52,255.12 511.08,0 0,281.64 -511.08,0 0,-281.64 z"/>
    </clipPath>
    <clipPath id="clipPath64" clipPathUnits="userSpaceOnUse">
      <path style="clip-rule:evenodd" id="path66" d="m 50.52,255.12 511.08,0 0,281.64 -511.08,0 0,-281.64 z"/>
    </clipPath>
    <clipPath id="clipPath76" clipPathUnits="userSpaceOnUse">
      <path style="clip-rule:evenodd" id="path78" d="m 50.52,255.12 511.08,0 0,281.64 -511.08,0 0,-281.64 z"/>
    </clipPath>
    <clipPath id="clipPath88" clipPathUnits="userSpaceOnUse">
      <path style="clip-rule:evenodd" id="path90" d="m 50.52,255.12 511.08,0 0,281.64 -511.08,0 0,-281.64 z"/>
    </clipPath>
    <clipPath id="clipPath100" clipPathUnits="userSpaceOnUse">
      <path style="clip-rule:evenodd" id="path102" d="m 50.52,255.12 511.08,0 0,281.64 -511.08,0 0,-281.64 z"/>
    </clipPath>
    <clipPath id="clipPath112" clipPathUnits="userSpaceOnUse">
      <path style="clip-rule:evenodd" id="path114" d="m 50.52,255.12 511.08,0 0,281.64 -511.08,0 0,-281.64 z"/>
    </clipPath>
    <clipPath id="clipPath124" clipPathUnits="userSpaceOnUse">
      <path style="clip-rule:evenodd" id="path126" d="m 50.52,255.12 511.08,0 0,281.64 -511.08,0 0,-281.64 z"/>
    </clipPath>
    <clipPath id="clipPath136" clipPathUnits="userSpaceOnUse">
      <path style="clip-rule:evenodd" id="path138" d="m 50.52,255.12 511.08,0 0,281.64 -511.08,0 0,-281.64 z"/>
    </clipPath>
    <clipPath id="clipPath148" clipPathUnits="userSpaceOnUse">
      <path style="clip-rule:evenodd" id="path150" d="m 50.52,255.12 511.08,0 0,281.64 -511.08,0 0,-281.64 z"/>
    </clipPath>
    <clipPath id="clipPath160" clipPathUnits="userSpaceOnUse">
      <path style="clip-rule:evenodd" id="path162" d="m 50.52,255.12 511.08,0 0,281.64 -511.08,0 0,-281.64 z"/>
    </clipPath>
    <clipPath id="clipPath172" clipPathUnits="userSpaceOnUse">
      <path style="clip-rule:evenodd" id="path174" d="m 50.52,255.12 511.08,0 0,281.64 -511.08,0 0,-281.64 z"/>
    </clipPath>
    <clipPath id="clipPath184" clipPathUnits="userSpaceOnUse">
      <path style="clip-rule:evenodd" id="path186" d="m 50.52,255.12 511.08,0 0,281.64 -511.08,0 0,-281.64 z"/>
    </clipPath>
    <clipPath id="clipPath196" clipPathUnits="userSpaceOnUse">
      <path style="clip-rule:evenodd" id="path198" d="m 50.52,255.12 511.08,0 0,281.64 -511.08,0 0,-281.64 z"/>
    </clipPath>
    <clipPath id="clipPath208" clipPathUnits="userSpaceOnUse">
      <path style="clip-rule:evenodd" id="path210" d="m 50.52,255.12 511.08,0 0,281.64 -511.08,0 0,-281.64 z"/>
    </clipPath>
    <clipPath id="clipPath220" clipPathUnits="userSpaceOnUse">
      <path style="clip-rule:evenodd" id="path222" d="m 50.52,255.12 511.08,0 0,281.64 -511.08,0 0,-281.64 z"/>
    </clipPath>
    <clipPath id="clipPath232" clipPathUnits="userSpaceOnUse">
      <path style="clip-rule:evenodd" id="path234" d="m 50.52,255.12 511.08,0 0,281.64 -511.08,0 0,-281.64 z"/>
    </clipPath>
    <clipPath id="clipPath244" clipPathUnits="userSpaceOnUse">
      <path style="clip-rule:evenodd" id="path246" d="m 50.52,255.12 511.08,0 0,281.64 -511.08,0 0,-281.64 z"/>
    </clipPath>
    <clipPath id="clipPath256" clipPathUnits="userSpaceOnUse">
      <path style="clip-rule:evenodd" id="path258" d="m 50.52,255.12 511.08,0 0,281.64 -511.08,0 0,-281.64 z"/>
    </clipPath>
    <clipPath id="clipPath268" clipPathUnits="userSpaceOnUse">
      <path style="clip-rule:evenodd" id="path270" d="m 50.52,255.12 511.08,0 0,281.64 -511.08,0 0,-281.64 z"/>
    </clipPath>
  </defs>
  <g transform="matrix(1.25,0,0,-1.25,0,990)" id="g10">
    <g id="g12">
      <g clip-path="url(#clipPath16)" id="g14">
        <path id="path20" style="fill:none;stroke:#000000;stroke-width:0.14;stroke-linecap:butt;stroke-linejoin:miter;stroke-miterlimit:10;stroke-dasharray:none;stroke-opacity:0" d="m 50.527,255.11 511.07,0 0,281.68 -511.07,0 0,-281.68 z"/>
      </g>
    </g>
    <g id="g22">
      <g clip-path="url(#clipPath26)" id="g24">
        <path id="path30" style="fill:#ffffff;fill-opacity:1;fill-rule:evenodd;stroke:none" d="m 50.527,255.11 511.07,0 0,281.68 -511.07,0 0,-281.68 z"/>
      </g>
    </g>
    <path id="path32" style="fill:#005aa4;fill-opacity:1;fill-rule:nonzero;stroke:none" d="m 116.67,288.39 29.58,0 0,-4.79 -29.58,0 0,4.79 z m 74.09,185.01 29.58,0 0,-189.8 -29.58,0 0,189.8 z m 74.08,-133.77 29.58,0 0,-56.03 -29.58,0 0,56.03 z m 74.09,21.39 29.58,0 0,-77.42 -29.58,0 0,77.42 z m 74.08,0.79 29.58,0 0,-78.21 -29.58,0 0,78.21 z m 74.09,8.45 29.58,0 0,-86.66 -29.58,0 0,86.66 z"/>
    <path id="path34" style="fill:none;stroke:#808080;stroke-width:1.37559998;stroke-linecap:round;stroke-linejoin:round;stroke-miterlimit:10;stroke-dasharray:none;stroke-opacity:1" d="m 94.468,283.6 444.412,0"/>
    <g id="g36">
      <g clip-path="url(#clipPath40)" id="g38"><text id="text44" style="font-variant:normal;font-weight:normal;font-size:12.14400005px;font-family:'Roboto Condensed';-inkscape-font-specification:RobotoCondensed-Regular;writing-mode:lr-tb;fill:#000000;fill-opacity:1;fill-rule:nonzero;stroke:none" transform="matrix(1,0,0,-1,120.17,296.35)"><tspan id="tspan46" y="0" x="0 5.9505601 9.1444321 15.070704">0.1%</tspan></text>
</g>
    </g>
    <g id="g48">
      <g clip-path="url(#clipPath52)" id="g50"><text id="text56" style="font-variant:normal;font-weight:normal;font-size:12.16800022px;font-family:'Roboto Condensed';-inkscape-font-specification:RobotoCondensed-Regular;writing-mode:lr-tb;fill:#000000;fill-opacity:1;fill-rule:nonzero;stroke:none" transform="matrix(1,0,0,-1,194.26,481.37)"><tspan id="tspan58" y="0" x="0 5.9501519 9.1503363 15.076152">2.6%</tspan></text>
</g>
    </g>
    <g id="g60">
      <g clip-path="url(#clipPath64)" id="g62"><text id="text68" style="font-variant:normal;font-weight:normal;font-size:12.14400005px;font-family:'Roboto Condensed';-inkscape-font-specification:RobotoCondensed-Regular;writing-mode:lr-tb;fill:#000000;fill-opacity:1;fill-rule:nonzero;stroke:none" transform="matrix(1,0,0,-1,268.34,347.52)"><tspan id="tspan70" y="0" x="0 5.9262719 9.1201439 15.022128">0.8%</tspan></text>
</g>
    </g>
    <g id="g72">
      <g clip-path="url(#clipPath76)" id="g74"><text id="text80" style="font-variant:normal;font-weight:normal;font-size:12.14400005px;font-family:'Roboto Condensed';-inkscape-font-specification:RobotoCondensed-Regular;writing-mode:lr-tb;fill:#000000;fill-opacity:1;fill-rule:nonzero;stroke:none" transform="matrix(1,0,0,-1,342.41,368.95)"><tspan id="tspan82" y="0" x="0 5.9505601 9.1444321 15.094992">1.0%</tspan></text>
</g>
    </g>
    <g id="g84">
      <g clip-path="url(#clipPath88)" id="g86"><text id="text92" style="font-variant:normal;font-weight:normal;font-size:12.14400005px;font-family:'Roboto Condensed';-inkscape-font-specification:RobotoCondensed-Regular;writing-mode:lr-tb;fill:#000000;fill-opacity:1;fill-rule:nonzero;stroke:none" transform="matrix(1,0,0,-1,416.5,369.7)"><tspan id="tspan94" y="0" x="0 5.9505601 9.1444321 15.070704">1.1%</tspan></text>
</g>
    </g>
    <g id="g96">
      <g clip-path="url(#clipPath100)" id="g98"><text id="text104" style="font-variant:normal;font-weight:normal;font-size:12.14400005px;font-family:'Roboto Condensed';-inkscape-font-specification:RobotoCondensed-Regular;writing-mode:lr-tb;fill:#000000;fill-opacity:1;fill-rule:nonzero;stroke:none" transform="matrix(1,0,0,-1,490.58,378.17)"><tspan id="tspan106" y="0" x="0 5.9505601 9.1444321 15.070704">1.2%</tspan></text>
</g>
    </g>
    <g id="g108">
      <g clip-path="url(#clipPath112)" id="g110"><text id="text116" style="font-variant:normal;font-weight:normal;font-size:12.16800022px;font-family:'Roboto Condensed';-inkscape-font-specification:RobotoCondensed-Regular;writing-mode:lr-tb;fill:#000000;fill-opacity:1;fill-rule:nonzero;stroke:none" transform="matrix(1,0,0,-1,60.576,279.91)"><tspan id="tspan118" y="0" x="0 5.9501519 9.1503363 15.197832">0.0%</tspan></text>
</g>
    </g>
    <g id="g120">
      <g clip-path="url(#clipPath124)" id="g122"><text id="text128" style="font-variant:normal;font-weight:normal;font-size:12.14400005px;font-family:'Roboto Condensed';-inkscape-font-specification:RobotoCondensed-Regular;writing-mode:lr-tb;fill:#000000;fill-opacity:1;fill-rule:nonzero;stroke:none" transform="matrix(1,0,0,-1,60.576,316.9)"><tspan id="tspan130" y="0" x="0 5.9505601 9.1444321 15.204288">0.5%</tspan></text>
</g>
    </g>
    <g id="g132">
      <g clip-path="url(#clipPath136)" id="g134"><text id="text140" style="font-variant:normal;font-weight:normal;font-size:12.14400005px;font-family:'Roboto Condensed';-inkscape-font-specification:RobotoCondensed-Regular;writing-mode:lr-tb;fill:#000000;fill-opacity:1;fill-rule:nonzero;stroke:none" transform="matrix(1,0,0,-1,60.576,353.9)"><tspan id="tspan142" y="0" x="0 5.9505601 9.1444321 15.204288">1.0%</tspan></text>
</g>
    </g>
    <g id="g144">
      <g clip-path="url(#clipPath148)" id="g146"><text id="text152" style="font-variant:normal;font-weight:normal;font-size:12.14400005px;font-family:'Roboto Condensed';-inkscape-font-specification:RobotoCondensed-Regular;writing-mode:lr-tb;fill:#000000;fill-opacity:1;fill-rule:nonzero;stroke:none" transform="matrix(1,0,0,-1,60.576,390.89)"><tspan id="tspan154" y="0" x="0 5.9505601 9.1444321 15.204288">1.5%</tspan></text>
</g>
    </g>
    <g id="g156">
      <g clip-path="url(#clipPath160)" id="g158"><text id="text164" style="font-variant:normal;font-weight:normal;font-size:12.14400005px;font-family:'Roboto Condensed';-inkscape-font-specification:RobotoCondensed-Regular;writing-mode:lr-tb;fill:#000000;fill-opacity:1;fill-rule:nonzero;stroke:none" transform="matrix(1,0,0,-1,60.576,427.9)"><tspan id="tspan166" y="0" x="0 5.9505601 9.1444321 15.204288">2.0%</tspan></text>
</g>
    </g>
    <g id="g168">
      <g clip-path="url(#clipPath172)" id="g170"><text id="text176" style="font-variant:normal;font-weight:normal;font-size:12.16800022px;font-family:'Roboto Condensed';-inkscape-font-specification:RobotoCondensed-Regular;writing-mode:lr-tb;fill:#000000;fill-opacity:1;fill-rule:nonzero;stroke:none" transform="matrix(1,0,0,-1,60.576,464.9)"><tspan id="tspan178" y="0" x="0 5.9501519 9.1503363 15.197832">2.5%</tspan></text>
</g>
    </g>
    <g id="g180">
      <g clip-path="url(#clipPath184)" id="g182"><text id="text188" style="font-variant:normal;font-weight:normal;font-size:12.14400005px;font-family:'Roboto Condensed';-inkscape-font-specification:RobotoCondensed-Regular;writing-mode:lr-tb;fill:#000000;fill-opacity:1;fill-rule:nonzero;stroke:none" transform="matrix(1,0,0,-1,60.576,501.89)"><tspan id="tspan190" y="0" x="0 5.9505601 9.1444321 15.204288">3.0%</tspan></text>
</g>
    </g>
    <g id="g192">
      <g clip-path="url(#clipPath196)" id="g194"><text id="text200" style="font-variant:normal;font-weight:normal;font-size:12.14400005px;font-family:'Roboto Condensed';-inkscape-font-specification:RobotoCondensed-Regular;writing-mode:lr-tb;fill:#000000;fill-opacity:1;fill-rule:nonzero;stroke:none" transform="matrix(1,0,0,-1,119.57,264.36)"><tspan id="tspan202" y="0" x="0 5.9505601 12.010416 17.960976">2019</tspan></text>
</g>
    </g>
    <g id="g204">
      <g clip-path="url(#clipPath208)" id="g206"><text id="text212" style="font-variant:normal;font-weight:normal;font-size:12.14400005px;font-family:'Roboto Condensed';-inkscape-font-specification:RobotoCondensed-Regular;writing-mode:lr-tb;fill:#000000;fill-opacity:1;fill-rule:nonzero;stroke:none" transform="matrix(1,0,0,-1,193.66,264.36)"><tspan id="tspan214" y="0" x="0 5.9505601 12.010416 17.960976">2020</tspan></text>
</g>
    </g>
    <g id="g216">
      <g clip-path="url(#clipPath220)" id="g218"><text id="text224" style="font-variant:normal;font-weight:normal;font-size:12.14400005px;font-family:'Roboto Condensed';-inkscape-font-specification:RobotoCondensed-Regular;writing-mode:lr-tb;fill:#000000;fill-opacity:1;fill-rule:nonzero;stroke:none" transform="matrix(1,0,0,-1,267.74,264.36)"><tspan id="tspan226" y="0" x="0 5.9262719 11.986128 17.912399">2021</tspan></text>
</g>
    </g>
    <g id="g228">
      <g clip-path="url(#clipPath232)" id="g230"><text id="text236" style="font-variant:normal;font-weight:normal;font-size:12.14400005px;font-family:'Roboto Condensed';-inkscape-font-specification:RobotoCondensed-Regular;writing-mode:lr-tb;fill:#000000;fill-opacity:1;fill-rule:nonzero;stroke:none" transform="matrix(1,0,0,-1,341.83,264.36)"><tspan id="tspan238" y="0" x="0 5.9262719 11.986128 17.912399">2022</tspan></text>
</g>
    </g>
    <g id="g240">
      <g clip-path="url(#clipPath244)" id="g242"><text id="text248" style="font-variant:normal;font-weight:normal;font-size:12.14400005px;font-family:'Roboto Condensed';-inkscape-font-specification:RobotoCondensed-Regular;writing-mode:lr-tb;fill:#000000;fill-opacity:1;fill-rule:nonzero;stroke:none" transform="matrix(1,0,0,-1,415.9,264.36)"><tspan id="tspan250" y="0" x="0 5.9505601 12.034704 17.985264">2023</tspan></text>
</g>
    </g>
    <g id="g252">
      <g clip-path="url(#clipPath256)" id="g254"><text id="text260" style="font-variant:normal;font-weight:normal;font-size:12.14400005px;font-family:'Roboto Condensed';-inkscape-font-specification:RobotoCondensed-Regular;writing-mode:lr-tb;fill:#000000;fill-opacity:1;fill-rule:nonzero;stroke:none" transform="matrix(1,0,0,-1,489.98,264.36)"><tspan id="tspan262" y="0" x="0 5.9505601 12.010416 17.960976">2024</tspan></text>
</g>
    </g>
    <g id="g264">
      <g clip-path="url(#clipPath268)" id="g266"><text id="text272" style="font-variant:normal;font-weight:bold;font-size:14.52000046px;font-family:'Roboto Condensed';-inkscape-font-specification:RobotoCondensed-Bold;writing-mode:lr-tb;fill:#000000;fill-opacity:1;fill-rule:nonzero;stroke:none" transform="matrix(1,0,0,-1,175.1,514.63)"><tspan id="tspan274" y="0" x="0 7.1293201 13.7214 18.179041 21.89616 32.699039 39.53796 44.039162 50.99424 58.254238 61.274399 69.42012 78.306358 86.568237 93.566879 96.848396 103.44048 110.58432 117.42324 122.1858 129.14088 132.48048 139.71144 144.474 147.741 154.4202 161.69472 168.83856 175.43063 182.57448 193.34831 200.34695 205.095 208.37653 214.9686 222.09792 229.05299 236.19684 243.44232 247.10136 254.24519 261.54877">Estimated BNPL share of consumer spending </tspan></text>
</g>
    </g>
  </g>
</svg>
