<?xml version="1.0" encoding="UTF-8" standalone="no"?>
<svg xmlns:dc="http://purl.org/dc/elements/1.1/" xmlns:cc="http://creativecommons.org/ns#" xmlns:rdf="http://www.w3.org/1999/02/22-rdf-syntax-ns#" xmlns:svg="http://www.w3.org/2000/svg" xmlns="http://www.w3.org/2000/svg" viewBox="24.54375 9.225 727.69375 371.35" height="371.35" width="727.69375" xml:space="preserve" version="1.1" id="svg2">
  <metadata id="metadata8">
    <rdf:RDF>
      <cc:Work rdf:about="">
        <dc:format>image/svg+xml</dc:format>
        <dc:type rdf:resource="http://purl.org/dc/dcmitype/StillImage"/>
      </cc:Work>
    </rdf:RDF>
  </metadata>
  <defs id="defs6">
    <clipPath id="clipPath16" clipPathUnits="userSpaceOnUse">
      <path style="clip-rule:evenodd" id="path18" d="m 1.92,304.75 619.27,0 0,306.29 -619.27,0 0,-306.29 z"/>
    </clipPath>
    <clipPath id="clipPath36" clipPathUnits="userSpaceOnUse">
      <path style="clip-rule:evenodd" id="path38" d="m 0.95961,304.8 620.16,0 0,307.2 -620.16,0 0,-307.2 z"/>
    </clipPath>
    <clipPath id="clipPath52" clipPathUnits="userSpaceOnUse">
      <path style="clip-rule:evenodd" id="path54" d="m 329.64,307.68 272.04,0 0,256.44 -272.04,0 0,-256.44 z"/>
    </clipPath>
    <clipPath id="clipPath64" clipPathUnits="userSpaceOnUse">
      <path style="clip-rule:evenodd" id="path66" d="m 329.64,307.68 272.04,0 0,256.44 -272.04,0 0,-256.44 z"/>
    </clipPath>
    <clipPath id="clipPath76" clipPathUnits="userSpaceOnUse">
      <path style="clip-rule:evenodd" id="path78" d="m 329.64,307.68 272.04,0 0,256.44 -272.04,0 0,-256.44 z"/>
    </clipPath>
    <clipPath id="clipPath88" clipPathUnits="userSpaceOnUse">
      <path style="clip-rule:evenodd" id="path90" d="m 329.64,307.68 272.04,0 0,256.44 -272.04,0 0,-256.44 z"/>
    </clipPath>
    <clipPath id="clipPath100" clipPathUnits="userSpaceOnUse">
      <path style="clip-rule:evenodd" id="path102" d="m 329.64,307.68 272.04,0 0,256.44 -272.04,0 0,-256.44 z"/>
    </clipPath>
    <clipPath id="clipPath112" clipPathUnits="userSpaceOnUse">
      <path style="clip-rule:evenodd" id="path114" d="m 329.64,307.68 272.04,0 0,256.44 -272.04,0 0,-256.44 z"/>
    </clipPath>
    <clipPath id="clipPath124" clipPathUnits="userSpaceOnUse">
      <path style="clip-rule:evenodd" id="path126" d="m 329.64,307.68 272.04,0 0,256.44 -272.04,0 0,-256.44 z"/>
    </clipPath>
    <clipPath id="clipPath136" clipPathUnits="userSpaceOnUse">
      <path style="clip-rule:evenodd" id="path138" d="m 0.95961,304.8 620.16,0 0,307.2 -620.16,0 0,-307.2 z"/>
    </clipPath>
    <clipPath id="clipPath154" clipPathUnits="userSpaceOnUse">
      <path style="clip-rule:evenodd" id="path156" d="m 19.68,307.68 272.04,0 0,256.44 -272.04,0 0,-256.44 z"/>
    </clipPath>
    <clipPath id="clipPath166" clipPathUnits="userSpaceOnUse">
      <path style="clip-rule:evenodd" id="path168" d="m 19.68,307.68 272.04,0 0,256.44 -272.04,0 0,-256.44 z"/>
    </clipPath>
    <clipPath id="clipPath178" clipPathUnits="userSpaceOnUse">
      <path style="clip-rule:evenodd" id="path180" d="m 19.68,307.68 272.04,0 0,256.44 -272.04,0 0,-256.44 z"/>
    </clipPath>
    <clipPath id="clipPath190" clipPathUnits="userSpaceOnUse">
      <path style="clip-rule:evenodd" id="path192" d="m 19.68,307.68 272.04,0 0,256.44 -272.04,0 0,-256.44 z"/>
    </clipPath>
    <clipPath id="clipPath202" clipPathUnits="userSpaceOnUse">
      <path style="clip-rule:evenodd" id="path204" d="m 19.68,307.68 272.04,0 0,256.44 -272.04,0 0,-256.44 z"/>
    </clipPath>
    <clipPath id="clipPath214" clipPathUnits="userSpaceOnUse">
      <path style="clip-rule:evenodd" id="path216" d="m 19.68,307.68 272.04,0 0,256.44 -272.04,0 0,-256.44 z"/>
    </clipPath>
  </defs>
  <g transform="matrix(1.25,0,0,-1.25,0,765)" id="g10">
    <g id="g12">
      <g clip-path="url(#clipPath16)" id="g14"><text id="text20" style="font-variant:normal;font-weight:bold;font-size:18px;font-family:'Roboto Condensed';-inkscape-font-specification:RobotoCondensed-Bold;writing-mode:lr-tb;fill:#000000;fill-opacity:1;fill-rule:nonzero;stroke:none" transform="matrix(1,0,0,-1,243.02,591.12)"><tspan id="tspan22" y="0" x="0 9.9720001 18.594 26.676001 35.298 44.153999 53.009998 61.632 65.862 74.772003 82.800003 86.940002 96.912003 105.534 114.588 119.124 128.12399">Revenue by Region</tspan></text>
<text id="text24" style="font-variant:normal;font-weight:bold;font-size:15.96000004px;font-family:'Roboto Condensed';-inkscape-font-specification:RobotoCondensed-Bold;writing-mode:lr-tb;fill:#000000;fill-opacity:1;fill-rule:nonzero;stroke:none" transform="matrix(1,0,0,-1,143.9,568.92)"><tspan id="tspan26" y="0" x="0 9.0173998 16.662239">DLR</tspan></text>
<text id="text28" style="font-variant:normal;font-weight:bold;font-size:15.96000004px;font-family:'Roboto Condensed';-inkscape-font-specification:RobotoCondensed-Bold;writing-mode:lr-tb;fill:#000000;fill-opacity:1;fill-rule:nonzero;stroke:none" transform="matrix(1,0,0,-1,451.01,568.92)"><tspan id="tspan30" y="0" x="0 7.83636 17.3964 21.72156">EQIX</tspan></text>
</g>
    </g>
    <g id="g32">
      <g clip-path="url(#clipPath36)" id="g34">
        <path id="path40" style="fill:none;stroke:#000000;stroke-width:0.14;stroke-linecap:butt;stroke-linejoin:miter;stroke-miterlimit:10;stroke-dasharray:none;stroke-opacity:0" d="m 329.75,307.61 271.97,0 0,256.51 -271.97,0 0,-256.51 z"/>
      </g>
    </g>
    <path id="path42" style="fill:#ffffff;fill-opacity:1;fill-rule:evenodd;stroke:none" d="m 329.75,307.61 271.97,0 0,256.51 -271.97,0 0,-256.51 z"/>
    <path id="path44" style="fill:#ffffff;fill-opacity:1;fill-rule:evenodd;stroke:none" d="m 348.48,318.61 234.51,0 0,234.51 -234.51,0 0,-234.51 z"/>
    <path id="path46" style="fill:#005aa4;fill-opacity:1;fill-rule:evenodd;stroke:none" d="m 465.73,553.12 c 64.76,0 117.26,-52.5 117.26,-117.25 0,-49.46 -31.03,-93.59 -77.56,-110.34 l -39.7,110.34 0,117.25 z"/>
    <g id="g48">
      <g clip-path="url(#clipPath52)" id="g50">
        <path id="path56" style="fill:#d0b86a;fill-opacity:1;fill-rule:evenodd;stroke:none" d="m 505.43,325.53 c -60.94,-21.92 -128.11,9.71 -150.03,70.64 -7.53,20.93 -8.95,43.58 -4.09,65.29 l 114.42,-25.59 39.7,-110.34 z"/>
      </g>
    </g>
    <path id="path58" style="fill:#226b5a;fill-opacity:1;fill-rule:evenodd;stroke:none" d="m 351.31,461.46 c 11.98,53.57 59.53,91.66 114.42,91.66 l 0,-117.25 -114.42,25.59 z"/>
    <g id="g60">
      <g clip-path="url(#clipPath64)" id="g62"><text id="text68" style="font-variant:normal;font-weight:bold;font-size:10.56000042px;font-family:'Roboto Condensed';-inkscape-font-specification:RobotoCondensed-Bold;writing-mode:lr-tb;fill:#ffffff;fill-opacity:1;fill-rule:nonzero;stroke:none" transform="matrix(1,0,0,-1,500.02,448.54)"><tspan id="tspan70" y="0" x="0 6.4627199 9.58848 11.86944 18.216 26.051519 31.10976 34.562881 37.223999 42.007679">N. America</tspan></text>
</g>
    </g>
    <g id="g72">
      <g clip-path="url(#clipPath76)" id="g74"><text id="text80" style="font-variant:normal;font-weight:bold;font-size:10.56000042px;font-family:'Roboto Condensed';-inkscape-font-specification:RobotoCondensed-Bold;writing-mode:lr-tb;fill:#ffffff;fill-opacity:1;fill-rule:nonzero;stroke:none" transform="matrix(1,0,0,-1,514.8,435.94)"><tspan id="tspan82" y="0" x="0 5.39996 10.79992">45%</tspan></text>
</g>
    </g>
    <g id="g84">
      <g clip-path="url(#clipPath88)" id="g86"><text id="text92" style="font-variant:normal;font-weight:bold;font-size:10.56000042px;font-family:'Roboto Condensed';-inkscape-font-specification:RobotoCondensed-Bold;writing-mode:lr-tb;fill:#000000;fill-opacity:1;fill-rule:nonzero;stroke:none" transform="matrix(1,0,0,-1,412.3,394.49)"><tspan id="tspan94" y="0" x="0 5.1849599 10.31712 13.82304 19.081921 24.35136">Europe</tspan></text>
</g>
    </g>
    <g id="g96">
      <g clip-path="url(#clipPath100)" id="g98"><text id="text104" style="font-variant:normal;font-weight:bold;font-size:10.56000042px;font-family:'Roboto Condensed';-inkscape-font-specification:RobotoCondensed-Bold;writing-mode:lr-tb;fill:#000000;fill-opacity:1;fill-rule:nonzero;stroke:none" transform="matrix(1,0,0,-1,418.18,381.89)"><tspan id="tspan106" y="0" x="0 5.39996 10.79992">34%</tspan></text>
</g>
    </g>
    <g id="g108">
      <g clip-path="url(#clipPath112)" id="g110"><text id="text116" style="font-variant:normal;font-weight:bold;font-size:10.56000042px;font-family:'Roboto Condensed';-inkscape-font-specification:RobotoCondensed-Bold;writing-mode:lr-tb;fill:#ffffff;fill-opacity:1;fill-rule:nonzero;stroke:none" transform="matrix(1,0,0,-1,416.76,484.25)"><tspan id="tspan118" y="0" x="0 6.34656 12.3552 18.6912">APAC</tspan></text>
</g>
    </g>
    <g id="g120">
      <g clip-path="url(#clipPath124)" id="g122"><text id="text128" style="font-variant:normal;font-weight:bold;font-size:10.56000042px;font-family:'Roboto Condensed';-inkscape-font-specification:RobotoCondensed-Bold;writing-mode:lr-tb;fill:#ffffff;fill-opacity:1;fill-rule:nonzero;stroke:none" transform="matrix(1,0,0,-1,420.36,471.62)"><tspan id="tspan130" y="0" x="0 5.39996 10.79992">21%</tspan></text>
</g>
    </g>
    <g id="g132">
      <g clip-path="url(#clipPath136)" id="g134">
        <path id="path140" style="fill:none;stroke:#000000;stroke-width:0.14;stroke-linecap:butt;stroke-linejoin:miter;stroke-miterlimit:10;stroke-dasharray:none;stroke-opacity:0" d="m 19.705,564.12 272.065,0 0,-256.51 -272.065,0 0,256.51 z"/>
      </g>
    </g>
    <path id="path142" style="fill:#ffffff;fill-opacity:1;fill-rule:evenodd;stroke:none" d="m 19.705,307.61 272.06,0 0,256.51 -272.06,0 0,-256.51 z"/>
    <path id="path144" style="fill:#005aa4;fill-opacity:1;fill-rule:evenodd;stroke:none" d="m 155.74,553.12 c 64.75,0 117.25,-52.5 117.25,-117.25 0,-64.76 -52.5,-117.26 -117.25,-117.26 -38.89,0 -75.238,19.27 -97.056,51.46 l 97.056,65.8 0,117.25 z"/>
    <path id="path146" style="fill:#d0b86a;fill-opacity:1;fill-rule:evenodd;stroke:none" d="M 58.684,370.07 C 38.097,400.43 32.908,438.68 44.661,473.43 L 155.74,435.87 58.684,370.07 Z"/>
    <path id="path148" style="fill:#226b5a;fill-opacity:1;fill-rule:evenodd;stroke:none" d="m 44.661,473.43 c 16.108,47.63 60.789,79.69 111.079,79.69 l 0,-117.25 -111.079,37.56 z"/>
    <g id="g150">
      <g clip-path="url(#clipPath154)" id="g152"><text id="text158" style="font-variant:normal;font-weight:bold;font-size:10.56000042px;font-family:'Roboto Condensed';-inkscape-font-specification:RobotoCondensed-Bold;writing-mode:lr-tb;fill:#ffffff;fill-opacity:1;fill-rule:nonzero;stroke:none" transform="matrix(1,0,0,-1,187.63,411)"><tspan id="tspan160" y="0" x="0 6.34656 14.1504 19.208639 22.672319 25.333441 30.117121 35.038078">Americas</tspan></text>
</g>
    </g>
    <g id="g162">
      <g clip-path="url(#clipPath166)" id="g164"><text id="text170" style="font-variant:normal;font-weight:bold;font-size:10.56000042px;font-family:'Roboto Condensed';-inkscape-font-specification:RobotoCondensed-Bold;writing-mode:lr-tb;fill:#ffffff;fill-opacity:1;fill-rule:nonzero;stroke:none" transform="matrix(1,0,0,-1,198.79,398.4)"><tspan id="tspan172" y="0" x="0 5.39996 10.79992">65%</tspan></text>
</g>
    </g>
    <g id="g174">
      <g clip-path="url(#clipPath178)" id="g176"><text id="text182" style="font-variant:normal;font-weight:bold;font-size:10.56000042px;font-family:'Roboto Condensed';-inkscape-font-specification:RobotoCondensed-Bold;writing-mode:lr-tb;fill:#000000;fill-opacity:1;fill-rule:nonzero;stroke:none" transform="matrix(1,0,0,-1,85.2,430.58)"><tspan id="tspan184" y="0" x="0 5.1849599 13.18944 18.374399">EMEA</tspan></text>
</g>
    </g>
    <g id="g186">
      <g clip-path="url(#clipPath190)" id="g188"><text id="text194" style="font-variant:normal;font-weight:bold;font-size:10.56000042px;font-family:'Roboto Condensed';-inkscape-font-specification:RobotoCondensed-Bold;writing-mode:lr-tb;fill:#000000;fill-opacity:1;fill-rule:nonzero;stroke:none" transform="matrix(1,0,0,-1,88.8,417.98)"><tspan id="tspan196" y="0" x="0 5.39996 10.79992">15%</tspan></text>
</g>
    </g>
    <g id="g198">
      <g clip-path="url(#clipPath202)" id="g200"><text id="text206" style="font-variant:normal;font-weight:bold;font-size:10.56000042px;font-family:'Roboto Condensed';-inkscape-font-specification:RobotoCondensed-Bold;writing-mode:lr-tb;fill:#ffffff;fill-opacity:1;fill-rule:nonzero;stroke:none" transform="matrix(1,0,0,-1,109.22,486.12)"><tspan id="tspan208" y="0" x="0 6.34656 12.3552 18.6912">APAC</tspan></text>
</g>
    </g>
    <g id="g210">
      <g clip-path="url(#clipPath214)" id="g212"><text id="text218" style="font-variant:normal;font-weight:bold;font-size:10.56000042px;font-family:'Roboto Condensed';-inkscape-font-specification:RobotoCondensed-Bold;writing-mode:lr-tb;fill:#ffffff;fill-opacity:1;fill-rule:nonzero;stroke:none" transform="matrix(1,0,0,-1,112.82,473.52)"><tspan id="tspan220" y="0" x="0 5.39996 10.79992">20%</tspan></text>
</g>
    </g>
  </g>
</svg>
