<?xml version="1.0" encoding="UTF-8" standalone="no"?>
<svg xmlns:dc="http://purl.org/dc/elements/1.1/" xmlns:cc="http://creativecommons.org/ns#" xmlns:rdf="http://www.w3.org/1999/02/22-rdf-syntax-ns#" xmlns:svg="http://www.w3.org/2000/svg" xmlns="http://www.w3.org/2000/svg" viewBox="63.11625 312.0625 638.88375 366" height="366" width="638.88375" xml:space="preserve" version="1.1" id="svg2">
  <metadata id="metadata8">
    <rdf:RDF>
      <cc:Work rdf:about="">
        <dc:format>image/svg+xml</dc:format>
        <dc:type rdf:resource="http://purl.org/dc/dcmitype/StillImage"/>
      </cc:Work>
    </rdf:RDF>
  </metadata>
  <defs id="defs6">
    <clipPath id="clipPath16" clipPathUnits="userSpaceOnUse">
      <path style="clip-rule:evenodd" id="path18" d="m 50.4,249.6 511.2,0 0,292.92 -511.2,0 0,-292.92 z"/>
    </clipPath>
    <clipPath id="clipPath26" clipPathUnits="userSpaceOnUse">
      <path style="clip-rule:evenodd" id="path28" d="m 50.4,249.6 511.2,0 0,292.92 -511.2,0 0,-292.92 z"/>
    </clipPath>
    <clipPath id="clipPath38" clipPathUnits="userSpaceOnUse">
      <path style="clip-rule:evenodd" id="path40" d="m 89.771,294.98 451.62,0 0,222.12 -451.62,0 0,-222.12 z"/>
    </clipPath>
    <clipPath id="clipPath48" clipPathUnits="userSpaceOnUse">
      <path style="clip-rule:evenodd" id="path50" d="m 50.52,249.6 511.08,0 0,292.8 -511.08,0 0,-292.8 z"/>
    </clipPath>
    <clipPath id="clipPath60" clipPathUnits="userSpaceOnUse">
      <path style="clip-rule:evenodd" id="path62" d="m 50.52,249.6 511.08,0 0,292.8 -511.08,0 0,-292.8 z"/>
    </clipPath>
    <clipPath id="clipPath72" clipPathUnits="userSpaceOnUse">
      <path style="clip-rule:evenodd" id="path74" d="m 50.52,249.6 511.08,0 0,292.8 -511.08,0 0,-292.8 z"/>
    </clipPath>
    <clipPath id="clipPath84" clipPathUnits="userSpaceOnUse">
      <path style="clip-rule:evenodd" id="path86" d="m 50.52,249.6 511.08,0 0,292.8 -511.08,0 0,-292.8 z"/>
    </clipPath>
    <clipPath id="clipPath96" clipPathUnits="userSpaceOnUse">
      <path style="clip-rule:evenodd" id="path98" d="m 50.52,249.6 511.08,0 0,292.8 -511.08,0 0,-292.8 z"/>
    </clipPath>
    <clipPath id="clipPath108" clipPathUnits="userSpaceOnUse">
      <path style="clip-rule:evenodd" id="path110" d="m 50.52,249.6 511.08,0 0,292.8 -511.08,0 0,-292.8 z"/>
    </clipPath>
    <clipPath id="clipPath120" clipPathUnits="userSpaceOnUse">
      <path style="clip-rule:evenodd" id="path122" d="m 50.52,249.6 511.08,0 0,292.8 -511.08,0 0,-292.8 z"/>
    </clipPath>
    <clipPath id="clipPath132" clipPathUnits="userSpaceOnUse">
      <path style="clip-rule:evenodd" id="path134" d="m 50.52,249.6 511.08,0 0,292.8 -511.08,0 0,-292.8 z"/>
    </clipPath>
    <clipPath id="clipPath144" clipPathUnits="userSpaceOnUse">
      <path style="clip-rule:evenodd" id="path146" d="m 50.52,249.6 511.08,0 0,292.8 -511.08,0 0,-292.8 z"/>
    </clipPath>
    <clipPath id="clipPath156" clipPathUnits="userSpaceOnUse">
      <path style="clip-rule:evenodd" id="path158" d="m 50.52,249.6 511.08,0 0,292.8 -511.08,0 0,-292.8 z"/>
    </clipPath>
    <clipPath id="clipPath168" clipPathUnits="userSpaceOnUse">
      <path style="clip-rule:evenodd" id="path170" d="m 50.52,249.6 511.08,0 0,292.8 -511.08,0 0,-292.8 z"/>
    </clipPath>
    <clipPath id="clipPath180" clipPathUnits="userSpaceOnUse">
      <path style="clip-rule:evenodd" id="path182" d="m 50.472,542.41 511.048,0 0,-292.7 -511.048,0 0,292.7 z"/>
    </clipPath>
    <clipPath id="clipPath190" clipPathUnits="userSpaceOnUse">
      <path style="clip-rule:evenodd" id="path192" d="m 561.52,542.41 0,-292.7 -511.048,0 0,292.7 511.048,0 z"/>
    </clipPath>
    <clipPath id="clipPath200" clipPathUnits="userSpaceOnUse">
      <path style="clip-rule:evenodd" id="path202" d="m 50.472,542.41 511.048,0 0,-292.7 -511.048,0 0,292.7 z"/>
    </clipPath>
    <clipPath id="clipPath210" clipPathUnits="userSpaceOnUse">
      <path style="clip-rule:evenodd" id="path212" d="m 561.52,542.41 0,-292.7 -511.048,0 0,292.7 511.048,0 z"/>
    </clipPath>
    <clipPath id="clipPath220" clipPathUnits="userSpaceOnUse">
      <path style="clip-rule:evenodd" id="path222" d="m 561.52,542.41 0,-292.7 -511.048,0 0,292.7 511.048,0 z"/>
    </clipPath>
    <clipPath id="clipPath230" clipPathUnits="userSpaceOnUse">
      <path style="clip-rule:evenodd" id="path232" d="m 50.472,542.41 511.048,0 0,-292.7 -511.048,0 0,292.7 z"/>
    </clipPath>
    <clipPath id="clipPath240" clipPathUnits="userSpaceOnUse">
      <path style="clip-rule:evenodd" id="path242" d="m 561.52,542.41 0,-292.7 -511.048,0 0,292.7 511.048,0 z"/>
    </clipPath>
    <clipPath id="clipPath250" clipPathUnits="userSpaceOnUse">
      <path style="clip-rule:evenodd" id="path252" d="m 561.52,542.41 0,-292.7 -511.048,0 0,292.7 511.048,0 z"/>
    </clipPath>
    <clipPath id="clipPath260" clipPathUnits="userSpaceOnUse">
      <path style="clip-rule:evenodd" id="path262" d="m 50.472,542.41 511.048,0 0,-292.7 -511.048,0 0,292.7 z"/>
    </clipPath>
    <clipPath id="clipPath270" clipPathUnits="userSpaceOnUse">
      <path style="clip-rule:evenodd" id="path272" d="m 561.52,542.41 0,-292.7 -511.048,0 0,292.7 511.048,0 z"/>
    </clipPath>
    <clipPath id="clipPath280" clipPathUnits="userSpaceOnUse">
      <path style="clip-rule:evenodd" id="path282" d="m 50.472,542.41 511.048,0 0,-292.7 -511.048,0 0,292.7 z"/>
    </clipPath>
    <clipPath id="clipPath290" clipPathUnits="userSpaceOnUse">
      <path style="clip-rule:evenodd" id="path292" d="m 50.472,542.41 511.048,0 0,-292.7 -511.048,0 0,292.7 z"/>
    </clipPath>
    <clipPath id="clipPath300" clipPathUnits="userSpaceOnUse">
      <path style="clip-rule:evenodd" id="path302" d="m 561.52,542.41 0,-292.7 -511.048,0 0,292.7 511.048,0 z"/>
    </clipPath>
    <clipPath id="clipPath310" clipPathUnits="userSpaceOnUse">
      <path style="clip-rule:evenodd" id="path312" d="m 561.52,542.41 0,-292.7 -511.048,0 0,292.7 511.048,0 z"/>
    </clipPath>
    <clipPath id="clipPath320" clipPathUnits="userSpaceOnUse">
      <path style="clip-rule:evenodd" id="path322" d="m 50.472,542.41 511.048,0 0,-292.7 -511.048,0 0,292.7 z"/>
    </clipPath>
    <clipPath id="clipPath330" clipPathUnits="userSpaceOnUse">
      <path style="clip-rule:evenodd" id="path332" d="m 50.472,542.41 511.048,0 0,-292.7 -511.048,0 0,292.7 z"/>
    </clipPath>
    <clipPath id="clipPath342" clipPathUnits="userSpaceOnUse">
      <path style="clip-rule:evenodd" id="path344" d="m 50.52,249.6 511.08,0 0,292.8 -511.08,0 0,-292.8 z"/>
    </clipPath>
  </defs>
  <g transform="matrix(1.25,0,0,-1.25,0,990)" id="g10">
    <g id="g12">
      <g clip-path="url(#clipPath16)" id="g14">
        <path id="path20" style="fill:none;stroke:#000000;stroke-width:0.14;stroke-linecap:butt;stroke-linejoin:miter;stroke-miterlimit:10;stroke-dasharray:none;stroke-opacity:0" d="m 50.563,542.28 510.967,0 0,-292.7 -510.967,0 0,292.7 z"/>
      </g>
    </g>
    <g id="g22">
      <g clip-path="url(#clipPath26)" id="g24">
        <path id="path30" style="fill:#ffffff;fill-opacity:1;fill-rule:evenodd;stroke:none" d="m 50.563,249.58 510.97,0 0,292.7 -510.97,0 0,-292.7 z"/>
      </g>
    </g>
    <path id="path32" style="fill:none;stroke:#000000;stroke-width:0.98246998;stroke-linecap:butt;stroke-linejoin:round;stroke-miterlimit:10;stroke-dasharray:none;stroke-opacity:1" d="m 89.823,384.28 450.697,0"/>
    <g id="g34">
      <g clip-path="url(#clipPath38)" id="g36">
        <path id="path42" style="fill:none;stroke:#137cb1;stroke-width:2.94740009;stroke-linecap:round;stroke-linejoin:round;stroke-miterlimit:10;stroke-dasharray:none;stroke-opacity:1" d="m 91.028,352.83 2.359,23.58 2.515,19.81 2.358,2.04 2.36,-2.2 2.51,3.93 2.36,-0.78 2.36,1.1 2.51,-2.68 2.36,4.72 2.36,5.5 2.52,5.66 2.35,2.36 2.36,-4.25 2.52,-2.51 2.35,-3.62 2.36,1.73 2.52,3.15 2.36,-3.46 2.35,-0.79 2.52,-5.66 2.36,7.08 2.35,4.71 2.52,4.09 2.36,-3.14 2.35,-7.71 2.52,-0.94 2.36,-8.02 2.36,0.63 2.51,-2.04 2.36,10.53 2.36,6.45 2.51,-10.54 2.36,5.82 2.36,-4.4 2.51,11 2.36,-15.4 2.36,0.31 2.51,-4.09 2.36,4.88 2.36,2.2 2.52,4.4 2.35,-3.14 2.36,-0.95 2.52,14.94 2.35,-0.63 2.36,-0.16 2.52,-14.31 2.36,7.39 2.35,1.73 2.52,3.62 2.36,-0.95 2.35,0.79 2.52,-5.19 2.36,2.05 2.35,-2.2 2.52,4.55 2.36,-6.6 2.36,-3.77 2.51,-4.87 2.36,5.18 2.36,6.76 2.51,0.32 2.36,-0.79 2.36,-6.13 2.51,5.97 2.36,-0.62 2.36,-1.58 2.51,-5.81 2.36,-0.32 2.36,5.35 2.52,0.47 2.35,0.94 2.36,-7.39 2.52,3.93 2.35,-1.25 2.36,2.67 2.52,-2.99 2.35,-2.04 2.36,3.3 2.52,-2.67 2.36,2.67 2.35,-4.72 2.52,0 2.36,-2.98 2.35,5.66 2.52,2.98 2.36,0.79 2.36,-2.83 2.51,2.04 2.36,-2.04 2.36,1.73 2.51,-1.26 2.36,5.03 2.36,0.47 2.51,-0.78 2.36,-5.98 2.36,-4.24 2.51,0.63 2.36,3.14 2.36,5.03 2.51,-4.71 2.36,2.98 2.36,-1.73 2.52,-2.04 2.35,5.66 2.36,-1.42 2.52,-2.04 2.35,-13.2 2.36,-1.73 2.52,1.88 2.36,-0.62 2.35,-4.09 2.52,-7.55 2.36,1.57 2.35,0.63 2.52,23.43 2.36,-13.21 2.36,3.15 2.51,-20.13 2.36,-214.1 2.36,-122.923 2.51,-0.226 2.36,223.919 2.36,122.92 2.51,38.2 2.36,24.21 2.36,16.82 2.51,-7.86 2.36,-6.92 2.36,-13.99 2.51,-11.32 2.36,-14.61 2.36,-2.52 2.52,-1.89 2.35,35.37 2.36,41.5 2.52,19.96 2.35,-8.01 2.36,-24.05 2.52,-7.23 2.36,-21.22 2.35,-2.52 2.52,-15.56 2.36,3.93 2.35,-10.53 2.52,8.17 2.36,6.6 2.36,2.83 2.51,-1.88 2.36,-10.54 2.36,-3.77 2.51,-11.79 2.36,0.94 2.36,-2.35 2.36,-6.45 2.51,-4.24 2.36,-3.78 2.36,7.24 2.51,0.31 2.36,2.52 2.36,-1.89 2.51,-0.32 2.36,-0.78 2.36,0 2.51,0 2.36,-0.32 2.36,-0.47 2.51,-0.63 2.36,2.68 2.36,2.04 2.52,-2.67 2.35,0.63 2.36,2.2 2.52,6.6 2.35,0.79 2.36,-0.63 2.52,-1.26 2.36,-4.4 2.35,-1.1 2.52,-4.72 2.36,-2.04 2.35,-6.13 2.52,1.57 2.36,-1.26 2.36,-0.16 2.48,-2.35"/>
      </g>
    </g>
    <g id="g44">
      <g clip-path="url(#clipPath48)" id="g46"><text id="text52" style="font-variant:normal;font-weight:normal;font-size:11.80799961px;font-family:Roboto;-inkscape-font-specification:Roboto-Regular;writing-mode:lr-tb;fill:#000000;fill-opacity:1;fill-rule:nonzero;stroke:none" transform="matrix(1,0,0,-1,55.92,292.27)"><tspan id="tspan54" y="0" x="0 3.2590079 9.8951044 16.483969">-800</tspan></text>
</g>
    </g>
    <g id="g56">
      <g clip-path="url(#clipPath60)" id="g58"><text id="text64" style="font-variant:normal;font-weight:normal;font-size:11.7840004px;font-family:Roboto;-inkscape-font-specification:Roboto-Regular;writing-mode:lr-tb;fill:#000000;fill-opacity:1;fill-rule:nonzero;stroke:none" transform="matrix(1,0,0,-1,55.92,314.38)"><tspan id="tspan66" y="0" x="0 3.2759521 9.8985596 16.474031">-600</tspan></text>
</g>
    </g>
    <g id="g68">
      <g clip-path="url(#clipPath72)" id="g70"><text id="text76" style="font-variant:normal;font-weight:normal;font-size:11.80799961px;font-family:Roboto;-inkscape-font-specification:Roboto-Regular;writing-mode:lr-tb;fill:#000000;fill-opacity:1;fill-rule:nonzero;stroke:none" transform="matrix(1,0,0,-1,55.92,336.5)"><tspan id="tspan78" y="0" x="0 3.2590079 9.8951044 16.483969">-400</tspan></text>
</g>
    </g>
    <g id="g80">
      <g clip-path="url(#clipPath84)" id="g82"><text id="text88" style="font-variant:normal;font-weight:normal;font-size:11.7840004px;font-family:Roboto;-inkscape-font-specification:Roboto-Regular;writing-mode:lr-tb;fill:#000000;fill-opacity:1;fill-rule:nonzero;stroke:none" transform="matrix(1,0,0,-1,55.92,358.61)"><tspan id="tspan90" y="0" x="0 3.2759521 9.8985596 16.474031">-200</tspan></text>
</g>
    </g>
    <g id="g92">
      <g clip-path="url(#clipPath96)" id="g94"><text id="text100" style="font-variant:normal;font-weight:normal;font-size:11.80799961px;font-family:Roboto;-inkscape-font-specification:Roboto-Regular;writing-mode:lr-tb;fill:#000000;fill-opacity:1;fill-rule:nonzero;stroke:none" transform="matrix(1,0,0,-1,72.408,380.74)"><tspan id="tspan102" y="0" x="0">0</tspan></text>
</g>
    </g>
    <g id="g104">
      <g clip-path="url(#clipPath108)" id="g106"><text id="text112" style="font-variant:normal;font-weight:normal;font-size:11.7840004px;font-family:Roboto;-inkscape-font-specification:Roboto-Regular;writing-mode:lr-tb;fill:#000000;fill-opacity:1;fill-rule:nonzero;stroke:none" transform="matrix(1,0,0,-1,59.16,402.84)"><tspan id="tspan114" y="0" x="0 6.600008 13.200016">200</tspan></text>
</g>
    </g>
    <g id="g116">
      <g clip-path="url(#clipPath120)" id="g118"><text id="text124" style="font-variant:normal;font-weight:normal;font-size:11.7840004px;font-family:Roboto;-inkscape-font-specification:Roboto-Regular;writing-mode:lr-tb;fill:#000000;fill-opacity:1;fill-rule:nonzero;stroke:none" transform="matrix(1,0,0,-1,59.16,424.94)"><tspan id="tspan126" y="0" x="0 6.600008 13.200016">400</tspan></text>
</g>
    </g>
    <g id="g128">
      <g clip-path="url(#clipPath132)" id="g130"><text id="text136" style="font-variant:normal;font-weight:normal;font-size:11.7840004px;font-family:Roboto;-inkscape-font-specification:Roboto-Regular;writing-mode:lr-tb;fill:#000000;fill-opacity:1;fill-rule:nonzero;stroke:none" transform="matrix(1,0,0,-1,59.16,447.07)"><tspan id="tspan138" y="0" x="0 6.600008 13.200016">600</tspan></text>
</g>
    </g>
    <g id="g140">
      <g clip-path="url(#clipPath144)" id="g142"><text id="text148" style="font-variant:normal;font-weight:normal;font-size:11.7840004px;font-family:Roboto;-inkscape-font-specification:Roboto-Regular;writing-mode:lr-tb;fill:#000000;fill-opacity:1;fill-rule:nonzero;stroke:none" transform="matrix(1,0,0,-1,59.16,469.18)"><tspan id="tspan150" y="0" x="0 6.600008 13.200016">800</tspan></text>
</g>
    </g>
    <g id="g152">
      <g clip-path="url(#clipPath156)" id="g154"><text id="text160" style="font-variant:normal;font-weight:normal;font-size:11.80799961px;font-family:Roboto;-inkscape-font-specification:Roboto-Regular;writing-mode:lr-tb;fill:#000000;fill-opacity:1;fill-rule:nonzero;stroke:none" transform="matrix(1,0,0,-1,52.536,491.3)"><tspan id="tspan162" y="0" x="0 6.5999961 13.199992 19.799988">1000</tspan></text>
</g>
    </g>
    <g id="g164">
      <g clip-path="url(#clipPath168)" id="g166"><text id="text172" style="font-variant:normal;font-weight:normal;font-size:11.7840004px;font-family:Roboto;-inkscape-font-specification:Roboto-Regular;writing-mode:lr-tb;fill:#000000;fill-opacity:1;fill-rule:nonzero;stroke:none" transform="matrix(1,0,0,-1,52.536,513.41)"><tspan id="tspan174" y="0" x="0 6.600008 13.200016 19.800024">1200</tspan></text>
</g>
    </g>
    <g id="g176">
      <g clip-path="url(#clipPath180)" id="g178">
        <path id="path184" style="fill:#000000;fill-opacity:1;fill-rule:nonzero;stroke:none" d="m 79.564,266.12 -3.883,-3.88 -0.542,0.54 -0.228,4.33 c -0.04,0.65 -0.111,1.14 -0.211,1.47 -0.101,0.33 -0.266,0.61 -0.497,0.84 -0.309,0.31 -0.657,0.47 -1.042,0.48 -0.385,0.02 -0.734,-0.13 -1.046,-0.45 -0.375,-0.37 -0.559,-0.77 -0.554,-1.19 0.006,-0.42 0.198,-0.82 0.578,-1.2 l -0.753,-0.75 c -0.545,0.54 -0.811,1.16 -0.796,1.85 0.015,0.68 0.317,1.32 0.906,1.91 0.551,0.55 1.131,0.84 1.74,0.88 0.61,0.03 1.154,-0.2 1.635,-0.68 0.583,-0.58 0.906,-1.65 0.968,-3.2 l 0.135,-3.31 2.975,2.98 0.615,-0.62 z m 1.974,7.03 c 0.882,-0.88 1.386,-1.69 1.514,-2.42 0.128,-0.73 -0.129,-1.41 -0.769,-2.05 -0.633,-0.63 -1.31,-0.89 -2.034,-0.78 -0.723,0.12 -1.506,0.59 -2.35,1.41 l -1.006,1.01 c -0.871,0.87 -1.368,1.66 -1.49,2.39 -0.122,0.72 0.139,1.41 0.782,2.05 0.638,0.64 1.311,0.9 2.021,0.8 0.71,-0.11 1.495,-0.59 2.355,-1.43 l 0.977,-0.98 z m -1.783,0.28 c -0.638,0.64 -1.192,1.01 -1.663,1.13 -0.471,0.11 -0.9,-0.03 -1.288,-0.42 -0.386,-0.38 -0.521,-0.81 -0.407,-1.28 0.114,-0.46 0.469,-1 1.066,-1.61 l 1.205,-1.2 c 0.64,-0.64 1.206,-1.02 1.697,-1.14 0.492,-0.12 0.926,0.01 1.303,0.38 0.372,0.38 0.504,0.8 0.397,1.26 -0.107,0.47 -0.466,1.02 -1.077,1.65 l -1.233,1.23 z m 7.738,0.62 -0.758,-0.76 -5.019,5.02 -0.96,-2.07 -0.684,0.68 1.347,2.97 0.118,0.12 5.956,-5.96 z m 3.382,8.44 c 0.882,-0.88 1.386,-1.69 1.514,-2.42 0.127,-0.73 -0.129,-1.41 -0.769,-2.05 -0.633,-0.64 -1.31,-0.89 -2.034,-0.78 -0.723,0.12 -1.506,0.58 -2.35,1.41 l -1.006,1 c -0.871,0.87 -1.368,1.67 -1.49,2.4 -0.122,0.72 0.139,1.4 0.782,2.05 0.638,0.64 1.311,0.9 2.021,0.79 0.71,-0.1 1.494,-0.58 2.355,-1.42 l 0.977,-0.98 z m -1.783,0.28 c -0.638,0.63 -1.192,1.01 -1.663,1.12 -0.471,0.11 -0.9,-0.02 -1.288,-0.41 -0.386,-0.39 -0.521,-0.81 -0.407,-1.28 0.114,-0.47 0.469,-1 1.066,-1.61 l 1.205,-1.21 c 0.64,-0.64 1.206,-1.02 1.697,-1.14 0.492,-0.12 0.926,0.01 1.303,0.39 0.372,0.37 0.504,0.79 0.397,1.26 -0.107,0.47 -0.466,1.02 -1.077,1.64 l -1.233,1.24 z"/>
      </g>
    </g>
    <g id="g186">
      <g clip-path="url(#clipPath190)" id="g188">
        <path id="path194" style="fill:#000000;fill-opacity:1;fill-rule:nonzero;stroke:none" d="m 108.49,266.12 -3.89,-3.88 -0.54,0.54 -0.23,4.33 c -0.04,0.65 -0.11,1.14 -0.21,1.47 -0.1,0.33 -0.26,0.61 -0.49,0.84 -0.31,0.31 -0.66,0.47 -1.05,0.48 -0.38,0.02 -0.73,-0.13 -1.04,-0.45 -0.38,-0.37 -0.56,-0.77 -0.56,-1.19 0.01,-0.42 0.2,-0.82 0.58,-1.2 l -0.75,-0.75 c -0.547,0.54 -0.812,1.16 -0.798,1.85 0.015,0.68 0.317,1.32 0.908,1.91 0.55,0.55 1.13,0.84 1.74,0.88 0.61,0.03 1.15,-0.2 1.63,-0.68 0.59,-0.58 0.91,-1.65 0.97,-3.2 l 0.14,-3.31 2.97,2.98 0.62,-0.62 z m 1.97,7.03 c 0.88,-0.88 1.39,-1.69 1.51,-2.42 0.13,-0.73 -0.12,-1.41 -0.77,-2.05 -0.63,-0.63 -1.31,-0.89 -2.03,-0.78 -0.72,0.12 -1.51,0.59 -2.35,1.41 l -1,1.01 c -0.88,0.87 -1.37,1.66 -1.49,2.39 -0.13,0.72 0.13,1.41 0.78,2.05 0.63,0.64 1.31,0.9 2.02,0.8 0.71,-0.11 1.49,-0.59 2.35,-1.43 l 0.98,-0.98 z m -1.78,0.28 c -0.64,0.64 -1.2,1.01 -1.67,1.13 -0.47,0.11 -0.9,-0.03 -1.28,-0.42 -0.39,-0.38 -0.53,-0.81 -0.41,-1.28 0.11,-0.46 0.47,-1 1.07,-1.61 l 1.2,-1.2 c 0.64,-0.64 1.21,-1.02 1.7,-1.14 0.49,-0.12 0.92,0.01 1.3,0.38 0.37,0.38 0.5,0.8 0.4,1.26 -0.11,0.47 -0.47,1.02 -1.08,1.65 l -1.23,1.23 z m 7.73,0.62 -0.75,-0.76 -5.02,5.02 -0.96,-2.07 -0.69,0.68 1.35,2.97 0.12,0.12 5.95,-5.96 z m 4.67,4.67 -0.75,-0.76 -5.02,5.02 -0.96,-2.07 -0.69,0.68 1.35,2.97 0.12,0.12 5.95,-5.96 z"/>
      </g>
    </g>
    <g id="g196">
      <g clip-path="url(#clipPath200)" id="g198">
        <path id="path204" style="fill:#000000;fill-opacity:1;fill-rule:nonzero;stroke:none" d="m 137.41,266.12 -3.89,-3.88 -0.54,0.54 -0.22,4.33 c -0.05,0.65 -0.12,1.14 -0.22,1.47 -0.1,0.33 -0.26,0.61 -0.49,0.84 -0.31,0.31 -0.66,0.47 -1.04,0.48 -0.39,0.02 -0.74,-0.13 -1.05,-0.45 -0.38,-0.37 -0.56,-0.77 -0.55,-1.19 0,-0.42 0.19,-0.82 0.57,-1.2 l -0.75,-0.75 c -0.55,0.54 -0.81,1.16 -0.8,1.85 0.02,0.68 0.32,1.32 0.91,1.91 0.55,0.55 1.13,0.84 1.74,0.88 0.61,0.03 1.15,-0.2 1.63,-0.68 0.59,-0.58 0.91,-1.65 0.97,-3.2 l 0.14,-3.31 2.97,2.98 0.62,-0.62 z m 1.97,7.03 c 0.88,-0.88 1.39,-1.69 1.52,-2.42 0.12,-0.73 -0.13,-1.41 -0.77,-2.05 -0.64,-0.63 -1.31,-0.89 -2.04,-0.78 -0.72,0.12 -1.5,0.59 -2.35,1.41 l -1,1.01 c -0.87,0.87 -1.37,1.66 -1.49,2.39 -0.12,0.72 0.14,1.41 0.78,2.05 0.64,0.64 1.31,0.9 2.02,0.8 0.71,-0.11 1.49,-0.59 2.35,-1.43 l 0.98,-0.98 z m -1.78,0.28 c -0.64,0.64 -1.19,1.01 -1.66,1.13 -0.47,0.11 -0.9,-0.03 -1.29,-0.42 -0.39,-0.38 -0.52,-0.81 -0.41,-1.28 0.11,-0.46 0.47,-1 1.07,-1.61 l 1.2,-1.2 c 0.64,-0.64 1.21,-1.02 1.7,-1.14 0.49,-0.12 0.92,0.01 1.3,0.38 0.37,0.38 0.51,0.8 0.4,1.26 -0.11,0.47 -0.47,1.02 -1.08,1.65 l -1.23,1.23 z m 7.74,0.62 -0.76,-0.76 -5.02,5.02 -0.96,-2.07 -0.68,0.68 1.34,2.97 0.12,0.12 5.96,-5.96 z m 6.07,6.08 -3.88,-3.88 -0.54,0.54 -0.23,4.33 c -0.04,0.65 -0.11,1.14 -0.21,1.47 -0.1,0.33 -0.27,0.61 -0.5,0.84 -0.31,0.31 -0.65,0.47 -1.04,0.48 -0.38,0.01 -0.73,-0.14 -1.05,-0.45 -0.37,-0.38 -0.55,-0.77 -0.55,-1.19 0.01,-0.42 0.2,-0.83 0.58,-1.2 l -0.75,-0.76 c -0.55,0.55 -0.81,1.16 -0.8,1.85 0.01,0.69 0.32,1.33 0.91,1.92 0.55,0.55 1.13,0.84 1.74,0.87 0.61,0.03 1.15,-0.19 1.63,-0.67 0.58,-0.59 0.91,-1.65 0.97,-3.2 l 0.13,-3.31 2.98,2.97 0.61,-0.61 z"/>
      </g>
    </g>
    <g id="g206">
      <g clip-path="url(#clipPath210)" id="g208">
        <path id="path214" style="fill:#000000;fill-opacity:1;fill-rule:nonzero;stroke:none" d="m 166.33,266.12 -3.88,-3.88 -0.54,0.54 -0.23,4.33 c -0.04,0.65 -0.11,1.14 -0.21,1.47 -0.1,0.33 -0.27,0.61 -0.5,0.84 -0.31,0.31 -0.66,0.47 -1.04,0.48 -0.39,0.02 -0.74,-0.13 -1.05,-0.45 -0.37,-0.37 -0.56,-0.77 -0.55,-1.19 0,-0.42 0.2,-0.82 0.58,-1.2 l -0.76,-0.75 c -0.54,0.54 -0.81,1.16 -0.79,1.85 0.01,0.68 0.31,1.32 0.9,1.91 0.55,0.55 1.13,0.84 1.74,0.88 0.61,0.03 1.16,-0.2 1.64,-0.68 0.58,-0.58 0.9,-1.65 0.97,-3.2 l 0.13,-3.31 2.98,2.98 0.61,-0.62 z m 1.97,7.03 c 0.89,-0.88 1.39,-1.69 1.52,-2.42 0.13,-0.73 -0.13,-1.41 -0.77,-2.05 -0.63,-0.63 -1.31,-0.89 -2.03,-0.78 -0.73,0.12 -1.51,0.59 -2.36,1.41 l -1,1.01 c -0.87,0.87 -1.37,1.66 -1.49,2.39 -0.12,0.72 0.14,1.41 0.78,2.05 0.64,0.64 1.31,0.9 2.02,0.8 0.71,-0.11 1.5,-0.59 2.36,-1.43 l 0.97,-0.98 z m -1.78,0.28 c -0.64,0.64 -1.19,1.01 -1.66,1.13 -0.47,0.11 -0.9,-0.03 -1.29,-0.42 -0.39,-0.38 -0.52,-0.81 -0.41,-1.28 0.12,-0.46 0.47,-1 1.07,-1.61 l 1.2,-1.2 c 0.64,-0.64 1.21,-1.02 1.7,-1.14 0.49,-0.12 0.93,0.01 1.3,0.38 0.38,0.38 0.51,0.8 0.4,1.26 -0.11,0.47 -0.47,1.02 -1.08,1.65 l -1.23,1.23 z m 7.74,0.62 -0.76,-0.76 -5.02,5.02 -0.96,-2.07 -0.68,0.68 1.35,2.97 0.11,0.12 5.96,-5.96 z m -0.04,6.62 0.56,0.57 c 0.35,0.36 0.54,0.73 0.56,1.12 0.02,0.38 -0.12,0.73 -0.43,1.04 -0.7,0.69 -1.39,0.69 -2.08,0 -0.33,-0.32 -0.49,-0.68 -0.5,-1.06 -0.01,-0.38 0.14,-0.72 0.45,-1.03 l -0.76,-0.75 c -0.47,0.47 -0.68,1.03 -0.65,1.69 0.03,0.65 0.31,1.24 0.84,1.77 0.56,0.56 1.15,0.85 1.76,0.87 0.61,0.02 1.18,-0.23 1.71,-0.76 0.26,-0.25 0.42,-0.59 0.5,-1 0.07,-0.4 0.03,-0.81 -0.14,-1.22 0.43,0.22 0.85,0.3 1.27,0.24 0.41,-0.06 0.79,-0.26 1.14,-0.6 0.53,-0.54 0.78,-1.13 0.74,-1.79 -0.03,-0.66 -0.33,-1.27 -0.89,-1.83 -0.55,-0.55 -1.16,-0.85 -1.8,-0.9 -0.65,-0.05 -1.23,0.17 -1.72,0.67 l 0.76,0.76 c 0.31,-0.32 0.66,-0.46 1.05,-0.45 0.39,0.02 0.76,0.2 1.1,0.54 0.36,0.36 0.55,0.74 0.55,1.12 0,0.38 -0.17,0.75 -0.53,1.11 -0.34,0.34 -0.71,0.5 -1.11,0.47 -0.4,-0.02 -0.8,-0.24 -1.2,-0.63 l -0.57,-0.56 -0.61,0.61 z"/>
      </g>
    </g>
    <g id="g216">
      <g clip-path="url(#clipPath220)" id="g218">
        <path id="path224" style="fill:#000000;fill-opacity:1;fill-rule:nonzero;stroke:none" d="m 195.25,266.12 -3.88,-3.88 -0.54,0.54 -0.23,4.33 c -0.04,0.65 -0.11,1.14 -0.21,1.47 -0.1,0.33 -0.27,0.61 -0.5,0.84 -0.31,0.31 -0.66,0.47 -1.04,0.48 -0.39,0.02 -0.73,-0.13 -1.05,-0.45 -0.37,-0.37 -0.56,-0.77 -0.55,-1.19 0,-0.42 0.2,-0.82 0.58,-1.2 l -0.76,-0.75 c -0.54,0.54 -0.81,1.16 -0.79,1.85 0.01,0.68 0.32,1.32 0.9,1.91 0.56,0.55 1.14,0.84 1.74,0.88 0.61,0.03 1.16,-0.2 1.64,-0.68 0.58,-0.58 0.91,-1.65 0.97,-3.2 l 0.13,-3.31 2.98,2.98 0.61,-0.62 z m 1.98,7.03 c 0.88,-0.88 1.38,-1.69 1.51,-2.42 0.13,-0.73 -0.13,-1.41 -0.77,-2.05 -0.63,-0.63 -1.31,-0.89 -2.03,-0.78 -0.73,0.12 -1.51,0.59 -2.35,1.41 l -1.01,1.01 c -0.87,0.87 -1.37,1.66 -1.49,2.39 -0.12,0.72 0.14,1.41 0.78,2.05 0.64,0.64 1.31,0.9 2.02,0.8 0.71,-0.11 1.5,-0.59 2.36,-1.43 l 0.98,-0.98 z m -1.79,0.28 c -0.63,0.64 -1.19,1.01 -1.66,1.13 -0.47,0.11 -0.9,-0.03 -1.29,-0.42 -0.38,-0.38 -0.52,-0.81 -0.41,-1.28 0.12,-0.46 0.47,-1 1.07,-1.61 l 1.21,-1.2 c 0.64,-0.64 1.2,-1.02 1.69,-1.14 0.49,-0.12 0.93,0.01 1.31,0.38 0.37,0.38 0.5,0.8 0.39,1.26 -0.1,0.47 -0.46,1.02 -1.07,1.65 l -1.24,1.23 z m 7.74,0.62 -0.76,-0.76 -5.02,5.02 -0.96,-2.07 -0.68,0.68 1.35,2.97 0.12,0.12 5.95,-5.96 z m 3.38,7.37 0.83,0.82 0.61,-0.62 -0.82,-0.82 1.37,-1.38 -0.75,-0.75 -1.38,1.37 -2.7,-2.7 -0.44,0.45 -1.46,6.76 0.81,0.8 3.93,-3.93 z m -2.6,-2.61 1.85,1.85 -2.91,2.9 0.07,-0.25 0.99,-4.5 z"/>
      </g>
    </g>
    <g id="g226">
      <g clip-path="url(#clipPath230)" id="g228">
        <path id="path234" style="fill:#000000;fill-opacity:1;fill-rule:nonzero;stroke:none" d="m 224.17,266.12 -3.88,-3.88 -0.54,0.54 -0.23,4.33 c -0.04,0.65 -0.11,1.14 -0.21,1.47 -0.1,0.33 -0.27,0.61 -0.5,0.84 -0.31,0.31 -0.65,0.47 -1.04,0.48 -0.38,0.02 -0.73,-0.13 -1.04,-0.45 -0.38,-0.37 -0.56,-0.77 -0.56,-1.19 0.01,-0.42 0.2,-0.82 0.58,-1.2 L 216,266.31 c -0.55,0.54 -0.81,1.16 -0.8,1.85 0.02,0.68 0.32,1.32 0.91,1.91 0.55,0.55 1.13,0.84 1.74,0.88 0.61,0.03 1.15,-0.2 1.63,-0.68 0.58,-0.58 0.91,-1.65 0.97,-3.2 l 0.13,-3.31 2.98,2.98 0.61,-0.62 z m 1.98,7.03 c 0.88,-0.88 1.38,-1.69 1.51,-2.42 0.13,-0.73 -0.13,-1.41 -0.77,-2.05 -0.63,-0.63 -1.31,-0.89 -2.03,-0.78 -0.72,0.12 -1.51,0.59 -2.35,1.41 l -1.01,1.01 c -0.87,0.87 -1.36,1.66 -1.49,2.39 -0.12,0.72 0.14,1.41 0.79,2.05 0.63,0.64 1.31,0.9 2.02,0.8 0.71,-0.11 1.49,-0.59 2.35,-1.43 l 0.98,-0.98 z m -1.78,0.28 c -0.64,0.64 -1.2,1.01 -1.67,1.13 -0.47,0.11 -0.9,-0.03 -1.29,-0.42 -0.38,-0.38 -0.52,-0.81 -0.4,-1.28 0.11,-0.46 0.47,-1 1.06,-1.61 l 1.21,-1.2 c 0.64,-0.64 1.2,-1.02 1.7,-1.14 0.49,-0.12 0.92,0.01 1.3,0.38 0.37,0.38 0.5,0.8 0.4,1.26 -0.11,0.47 -0.47,1.02 -1.08,1.65 l -1.23,1.23 z m 7.73,0.62 -0.75,-0.76 -5.02,5.02 -0.96,-2.07 -0.69,0.68 1.35,2.97 0.12,0.12 5.95,-5.96 z m -0.43,5.51 -2.65,3.26 3.03,3.04 0.7,-0.7 -2.4,-2.4 1.44,-1.79 c 0.12,0.46 0.36,0.87 0.73,1.24 0.54,0.54 1.15,0.79 1.82,0.75 0.68,-0.04 1.32,-0.36 1.93,-0.97 0.61,-0.61 0.92,-1.25 0.95,-1.93 0.02,-0.69 -0.27,-1.32 -0.86,-1.91 -0.52,-0.53 -1.1,-0.81 -1.72,-0.85 -0.62,-0.04 -1.21,0.17 -1.77,0.64 l 0.71,0.71 c 0.39,-0.29 0.77,-0.43 1.13,-0.4 0.37,0.02 0.72,0.19 1.04,0.51 0.35,0.35 0.5,0.75 0.46,1.18 -0.04,0.44 -0.27,0.87 -0.69,1.29 -0.39,0.4 -0.82,0.61 -1.28,0.63 -0.45,0.03 -0.86,-0.14 -1.22,-0.5 -0.33,-0.33 -0.51,-0.66 -0.56,-0.99 l -0.03,-0.36 -0.76,-0.45 z"/>
      </g>
    </g>
    <g id="g236">
      <g clip-path="url(#clipPath240)" id="g238">
        <path id="path244" style="fill:#000000;fill-opacity:1;fill-rule:nonzero;stroke:none" d="m 253.1,266.12 -3.89,-3.88 -0.54,0.54 -0.23,4.33 c -0.04,0.65 -0.11,1.14 -0.21,1.47 -0.1,0.33 -0.26,0.61 -0.49,0.84 -0.31,0.31 -0.66,0.47 -1.05,0.48 -0.38,0.02 -0.73,-0.13 -1.04,-0.45 -0.38,-0.37 -0.56,-0.77 -0.56,-1.19 0.01,-0.42 0.2,-0.82 0.58,-1.2 l -0.75,-0.75 c -0.55,0.54 -0.81,1.16 -0.8,1.85 0.02,0.68 0.32,1.32 0.91,1.91 0.55,0.55 1.13,0.84 1.74,0.88 0.61,0.03 1.15,-0.2 1.63,-0.68 0.59,-0.58 0.91,-1.65 0.97,-3.2 l 0.14,-3.31 2.97,2.98 0.62,-0.62 z m 1.97,7.03 c 0.88,-0.88 1.39,-1.69 1.51,-2.42 0.13,-0.73 -0.12,-1.41 -0.76,-2.05 -0.64,-0.63 -1.32,-0.89 -2.04,-0.78 -0.72,0.12 -1.51,0.59 -2.35,1.41 l -1,1.01 c -0.88,0.87 -1.37,1.66 -1.49,2.39 -0.13,0.72 0.13,1.41 0.78,2.05 0.63,0.64 1.31,0.9 2.02,0.8 0.71,-0.11 1.49,-0.59 2.35,-1.43 l 0.98,-0.98 z m -1.78,0.28 c -0.64,0.64 -1.19,1.01 -1.67,1.13 -0.47,0.11 -0.9,-0.03 -1.28,-0.42 -0.39,-0.38 -0.53,-0.81 -0.41,-1.28 0.11,-0.46 0.47,-1 1.07,-1.61 l 1.2,-1.2 c 0.64,-0.64 1.21,-1.02 1.7,-1.14 0.49,-0.12 0.92,0.01 1.3,0.38 0.37,0.38 0.5,0.8 0.4,1.26 -0.11,0.47 -0.47,1.02 -1.08,1.65 l -1.23,1.23 z m 7.73,0.62 -0.75,-0.76 -5.02,5.02 -0.96,-2.07 -0.69,0.68 1.35,2.97 0.12,0.12 5.95,-5.96 z m -0.78,11.08 0.64,-0.64 -0.14,-0.14 c -0.57,-0.59 -0.86,-1.23 -0.88,-1.92 -0.01,-0.68 0.27,-1.36 0.82,-2.02 -0.04,0.67 0.2,1.28 0.74,1.82 0.52,0.51 1.11,0.74 1.78,0.69 0.68,-0.06 1.3,-0.38 1.87,-0.95 0.62,-0.61 0.94,-1.27 0.97,-1.97 0.04,-0.69 -0.23,-1.32 -0.79,-1.88 -0.56,-0.57 -1.24,-0.81 -2.03,-0.73 -0.79,0.08 -1.53,0.47 -2.21,1.16 l -0.29,0.28 c -1.09,1.1 -1.69,2.16 -1.8,3.2 -0.12,1.05 0.28,2.03 1.19,2.97 l 0.13,0.13 z m 1.68,-3.66 c -0.25,-0.26 -0.41,-0.57 -0.48,-0.94 -0.06,-0.37 -0.02,-0.72 0.13,-1.04 l 0.28,-0.27 c 0.49,-0.49 0.99,-0.78 1.51,-0.85 0.52,-0.08 0.94,0.04 1.27,0.37 0.34,0.34 0.48,0.73 0.43,1.18 -0.06,0.44 -0.29,0.86 -0.69,1.27 -0.41,0.4 -0.84,0.63 -1.29,0.69 -0.44,0.05 -0.83,-0.08 -1.16,-0.41 z"/>
      </g>
    </g>
    <g id="g246">
      <g clip-path="url(#clipPath250)" id="g248">
        <path id="path254" style="fill:#000000;fill-opacity:1;fill-rule:nonzero;stroke:none" d="m 282.02,266.12 -3.88,-3.88 -0.55,0.54 -0.22,4.33 c -0.05,0.65 -0.12,1.14 -0.22,1.47 -0.1,0.33 -0.26,0.61 -0.49,0.84 -0.31,0.31 -0.66,0.47 -1.04,0.48 -0.39,0.02 -0.74,-0.13 -1.05,-0.45 -0.38,-0.37 -0.56,-0.77 -0.55,-1.19 0,-0.42 0.19,-0.82 0.57,-1.2 l -0.75,-0.75 c -0.54,0.54 -0.81,1.16 -0.8,1.85 0.02,0.68 0.32,1.32 0.91,1.91 0.55,0.55 1.13,0.84 1.74,0.88 0.61,0.03 1.15,-0.2 1.63,-0.68 0.59,-0.58 0.91,-1.65 0.97,-3.2 l 0.14,-3.31 2.97,2.98 0.62,-0.62 z m 1.97,7.03 c 0.88,-0.88 1.39,-1.69 1.52,-2.42 0.12,-0.73 -0.13,-1.41 -0.77,-2.05 -0.64,-0.63 -1.31,-0.89 -2.04,-0.78 -0.72,0.12 -1.5,0.59 -2.35,1.41 l -1,1.01 c -0.87,0.87 -1.37,1.66 -1.49,2.39 -0.12,0.72 0.14,1.41 0.78,2.05 0.64,0.64 1.31,0.9 2.02,0.8 0.71,-0.11 1.49,-0.59 2.36,-1.43 l 0.97,-0.98 z m -1.78,0.28 c -0.64,0.64 -1.19,1.01 -1.66,1.13 -0.47,0.11 -0.9,-0.03 -1.29,-0.42 -0.39,-0.38 -0.52,-0.81 -0.41,-1.28 0.11,-0.46 0.47,-1 1.07,-1.61 l 1.2,-1.2 c 0.64,-0.64 1.21,-1.02 1.7,-1.14 0.49,-0.12 0.93,0.01 1.3,0.38 0.37,0.38 0.51,0.8 0.4,1.26 -0.11,0.47 -0.47,1.02 -1.08,1.65 l -1.23,1.23 z m 7.74,0.62 -0.76,-0.76 -5.02,5.02 -0.96,-2.07 -0.68,0.68 1.34,2.97 0.12,0.12 5.96,-5.96 z m 0.51,11.53 3.05,-7.96 -0.79,-0.79 -2.86,7.75 -3.21,-3.21 -0.62,0.62 4.01,4.01 0.42,-0.42 z"/>
      </g>
    </g>
    <g id="g256">
      <g clip-path="url(#clipPath260)" id="g258">
        <path id="path264" style="fill:#000000;fill-opacity:1;fill-rule:nonzero;stroke:none" d="m 310.94,266.12 -3.88,-3.88 -0.54,0.54 -0.23,4.33 c -0.04,0.65 -0.11,1.14 -0.21,1.47 -0.1,0.33 -0.27,0.61 -0.5,0.84 -0.31,0.31 -0.66,0.47 -1.04,0.48 -0.39,0.02 -0.74,-0.13 -1.05,-0.45 -0.37,-0.37 -0.56,-0.77 -0.55,-1.19 0,-0.42 0.2,-0.82 0.58,-1.2 l -0.76,-0.75 c -0.54,0.54 -0.81,1.16 -0.79,1.85 0.01,0.68 0.31,1.32 0.9,1.91 0.55,0.55 1.13,0.84 1.74,0.88 0.61,0.03 1.16,-0.2 1.64,-0.68 0.58,-0.58 0.9,-1.65 0.97,-3.2 l 0.13,-3.31 2.98,2.98 0.61,-0.62 z m 1.97,7.03 c 0.89,-0.88 1.39,-1.69 1.52,-2.42 0.13,-0.73 -0.13,-1.41 -0.77,-2.05 -0.63,-0.63 -1.31,-0.89 -2.03,-0.78 -0.73,0.12 -1.51,0.59 -2.35,1.41 l -1.01,1.01 c -0.87,0.87 -1.37,1.66 -1.49,2.39 -0.12,0.72 0.14,1.41 0.78,2.05 0.64,0.64 1.31,0.9 2.02,0.8 0.71,-0.11 1.5,-0.59 2.36,-1.43 l 0.97,-0.98 z m -1.78,0.28 c -0.64,0.64 -1.19,1.01 -1.66,1.13 -0.47,0.11 -0.9,-0.03 -1.29,-0.42 -0.39,-0.38 -0.52,-0.81 -0.41,-1.28 0.12,-0.46 0.47,-1 1.07,-1.61 l 1.2,-1.2 c 0.64,-0.64 1.21,-1.02 1.7,-1.14 0.49,-0.12 0.93,0.01 1.3,0.38 0.38,0.38 0.51,0.8 0.4,1.26 -0.11,0.47 -0.46,1.02 -1.08,1.65 l -1.23,1.23 z m 7.74,0.62 -0.76,-0.76 -5.02,5.02 -0.96,-2.07 -0.68,0.68 1.35,2.97 0.11,0.12 5.96,-5.96 z m 1.41,10.17 c 0.29,-0.3 0.48,-0.64 0.55,-1.02 0.08,-0.39 0.05,-0.78 -0.09,-1.18 0.44,0.18 0.88,0.23 1.32,0.15 0.43,-0.07 0.81,-0.27 1.14,-0.59 0.51,-0.51 0.74,-1.1 0.7,-1.75 -0.04,-0.65 -0.34,-1.25 -0.91,-1.82 -0.57,-0.57 -1.18,-0.87 -1.83,-0.91 -0.64,-0.04 -1.22,0.2 -1.73,0.71 -0.32,0.32 -0.53,0.7 -0.61,1.13 -0.08,0.43 -0.03,0.87 0.14,1.31 -0.39,-0.13 -0.78,-0.16 -1.16,-0.08 -0.38,0.08 -0.72,0.26 -1.02,0.56 -0.5,0.5 -0.73,1.05 -0.7,1.67 0.02,0.61 0.3,1.18 0.82,1.7 0.52,0.52 1.09,0.8 1.71,0.83 0.61,0.02 1.17,-0.21 1.67,-0.71 z m 2.15,-3.38 c -0.33,0.33 -0.71,0.5 -1.13,0.5 -0.42,-0.01 -0.8,-0.18 -1.14,-0.52 -0.34,-0.33 -0.51,-0.71 -0.5,-1.12 0,-0.41 0.17,-0.79 0.5,-1.12 0.34,-0.34 0.7,-0.5 1.1,-0.5 0.39,0.01 0.76,0.19 1.12,0.55 0.35,0.35 0.53,0.72 0.54,1.12 0,0.39 -0.16,0.76 -0.49,1.09 z m -4.91,2.64 c -0.29,-0.29 -0.44,-0.62 -0.44,-0.99 0,-0.37 0.15,-0.71 0.47,-1.02 0.3,-0.3 0.63,-0.46 1,-0.46 0.37,-0.01 0.7,0.14 1,0.44 0.3,0.3 0.45,0.64 0.45,1 -0.01,0.37 -0.16,0.7 -0.46,1 -0.31,0.31 -0.64,0.46 -1.02,0.46 -0.38,0 -0.71,-0.14 -1,-0.43 z"/>
      </g>
    </g>
    <g id="g266">
      <g clip-path="url(#clipPath270)" id="g268">
        <path id="path274" style="fill:#000000;fill-opacity:1;fill-rule:nonzero;stroke:none" d="m 339.86,266.12 -3.88,-3.88 -0.54,0.54 -0.23,4.33 c -0.04,0.65 -0.11,1.14 -0.21,1.47 -0.1,0.33 -0.27,0.61 -0.5,0.84 -0.31,0.31 -0.66,0.47 -1.04,0.48 -0.39,0.02 -0.73,-0.13 -1.05,-0.45 -0.37,-0.37 -0.56,-0.77 -0.55,-1.19 0.01,-0.42 0.2,-0.82 0.58,-1.2 l -0.76,-0.75 c -0.54,0.54 -0.81,1.16 -0.79,1.85 0.01,0.68 0.32,1.32 0.9,1.91 0.56,0.55 1.14,0.84 1.74,0.88 0.61,0.03 1.16,-0.2 1.64,-0.68 0.58,-0.58 0.91,-1.65 0.97,-3.2 l 0.13,-3.31 2.98,2.98 0.61,-0.62 z m 1.98,7.03 c 0.88,-0.88 1.38,-1.69 1.51,-2.42 0.13,-0.73 -0.13,-1.41 -0.77,-2.05 -0.63,-0.63 -1.31,-0.89 -2.03,-0.78 -0.73,0.12 -1.51,0.59 -2.35,1.41 l -1.01,1.01 c -0.87,0.87 -1.37,1.66 -1.49,2.39 -0.12,0.72 0.14,1.41 0.78,2.05 0.64,0.64 1.31,0.9 2.02,0.8 0.71,-0.11 1.5,-0.59 2.36,-1.43 l 0.98,-0.98 z m -1.79,0.28 c -0.63,0.64 -1.19,1.01 -1.66,1.13 -0.47,0.11 -0.9,-0.03 -1.29,-0.42 -0.38,-0.38 -0.52,-0.81 -0.4,-1.28 0.11,-0.46 0.46,-1 1.06,-1.61 l 1.21,-1.2 c 0.64,-0.64 1.2,-1.02 1.69,-1.14 0.5,-0.12 0.93,0.01 1.31,0.38 0.37,0.38 0.5,0.8 0.39,1.26 -0.1,0.47 -0.46,1.02 -1.07,1.65 l -1.24,1.23 z m 7.74,0.62 -0.76,-0.76 -5.02,5.02 -0.96,-2.07 -0.68,0.68 1.35,2.97 0.12,0.12 5.95,-5.96 z m 2.48,7.69 c 0.03,-0.35 -0.01,-0.69 -0.12,-1.02 -0.1,-0.33 -0.28,-0.63 -0.54,-0.89 -0.35,-0.34 -0.73,-0.55 -1.15,-0.64 -0.42,-0.08 -0.85,-0.04 -1.3,0.12 -0.44,0.17 -0.85,0.44 -1.22,0.81 -0.39,0.39 -0.68,0.82 -0.84,1.29 -0.17,0.47 -0.2,0.93 -0.09,1.37 0.11,0.45 0.35,0.85 0.72,1.22 0.58,0.59 1.26,0.83 2.04,0.73 0.78,-0.1 1.54,-0.53 2.3,-1.28 l 0.22,-0.22 c 1.15,-1.16 1.77,-2.23 1.84,-3.21 0.08,-0.99 -0.34,-1.95 -1.25,-2.88 l -0.14,-0.15 -0.64,0.64 0.16,0.16 c 0.61,0.63 0.92,1.27 0.94,1.92 0.03,0.64 -0.29,1.32 -0.93,2.03 z m -1.16,-1.16 c 0.25,0.25 0.4,0.56 0.46,0.93 0.06,0.36 0.02,0.71 -0.11,1.04 l -0.3,0.3 c -0.49,0.49 -1,0.79 -1.52,0.88 -0.53,0.1 -0.95,-0.02 -1.28,-0.35 -0.33,-0.33 -0.47,-0.72 -0.42,-1.18 0.05,-0.45 0.29,-0.89 0.7,-1.3 0.41,-0.41 0.84,-0.64 1.29,-0.71 0.46,-0.07 0.85,0.06 1.18,0.39 z"/>
      </g>
    </g>
    <g id="g276">
      <g clip-path="url(#clipPath280)" id="g278">
        <path id="path284" style="fill:#000000;fill-opacity:1;fill-rule:nonzero;stroke:none" d="m 368.78,266.12 -3.88,-3.88 -0.54,0.54 -0.23,4.33 c -0.04,0.65 -0.11,1.14 -0.21,1.47 -0.1,0.33 -0.27,0.61 -0.5,0.84 -0.31,0.31 -0.65,0.47 -1.04,0.48 -0.38,0.02 -0.73,-0.13 -1.04,-0.45 -0.38,-0.37 -0.56,-0.77 -0.56,-1.19 0.01,-0.42 0.2,-0.82 0.58,-1.2 l -0.75,-0.75 c -0.55,0.54 -0.81,1.16 -0.8,1.85 0.02,0.68 0.32,1.32 0.91,1.91 0.55,0.55 1.13,0.84 1.74,0.88 0.61,0.03 1.15,-0.2 1.63,-0.68 0.58,-0.58 0.91,-1.65 0.97,-3.2 l 0.13,-3.31 2.98,2.98 0.61,-0.62 z m 1.98,7.03 c 0.88,-0.88 1.38,-1.69 1.51,-2.42 0.13,-0.73 -0.13,-1.41 -0.77,-2.05 -0.63,-0.63 -1.31,-0.89 -2.03,-0.78 -0.72,0.12 -1.51,0.59 -2.35,1.41 l -1.01,1.01 c -0.87,0.87 -1.36,1.66 -1.49,2.39 -0.12,0.72 0.14,1.41 0.79,2.05 0.63,0.64 1.31,0.9 2.02,0.8 0.71,-0.11 1.49,-0.59 2.35,-1.43 l 0.98,-0.98 z m -1.78,0.28 c -0.64,0.64 -1.2,1.01 -1.67,1.13 -0.47,0.11 -0.9,-0.03 -1.29,-0.42 -0.38,-0.38 -0.52,-0.81 -0.4,-1.28 0.11,-0.46 0.47,-1 1.06,-1.61 l 1.21,-1.2 c 0.64,-0.64 1.2,-1.02 1.7,-1.14 0.49,-0.12 0.92,0.01 1.3,0.38 0.37,0.38 0.5,0.8 0.4,1.26 -0.11,0.47 -0.47,1.02 -1.08,1.65 l -1.23,1.23 z m 9.14,2.03 -3.88,-3.88 -0.54,0.54 -0.23,4.33 c -0.04,0.65 -0.11,1.14 -0.21,1.47 -0.1,0.33 -0.27,0.61 -0.5,0.84 -0.31,0.31 -0.66,0.47 -1.04,0.48 -0.39,0.01 -0.74,-0.14 -1.05,-0.45 -0.37,-0.37 -0.56,-0.77 -0.55,-1.19 0,-0.42 0.2,-0.82 0.58,-1.2 l -0.76,-0.76 c -0.54,0.55 -0.81,1.17 -0.79,1.85 0.01,0.69 0.31,1.33 0.9,1.92 0.55,0.55 1.13,0.84 1.74,0.87 0.61,0.03 1.16,-0.19 1.64,-0.67 0.58,-0.59 0.9,-1.65 0.97,-3.2 l 0.13,-3.31 2.98,2.97 0.61,-0.61 z m 1.98,7.03 c 0.88,-0.88 1.38,-1.69 1.51,-2.42 0.13,-0.73 -0.13,-1.41 -0.77,-2.05 -0.63,-0.64 -1.31,-0.89 -2.03,-0.78 -0.73,0.12 -1.51,0.58 -2.35,1.41 l -1.01,1 c -0.87,0.87 -1.37,1.67 -1.49,2.4 -0.12,0.72 0.14,1.4 0.78,2.05 0.64,0.64 1.31,0.9 2.02,0.79 0.71,-0.1 1.5,-0.58 2.36,-1.42 l 0.98,-0.98 z m -1.79,0.28 c -0.64,0.63 -1.19,1.01 -1.66,1.12 -0.47,0.11 -0.9,-0.02 -1.29,-0.41 -0.38,-0.39 -0.52,-0.81 -0.41,-1.28 0.12,-0.47 0.47,-1 1.07,-1.61 l 1.21,-1.21 c 0.64,-0.64 1.2,-1.02 1.69,-1.14 0.49,-0.12 0.93,0.01 1.31,0.39 0.37,0.37 0.5,0.79 0.39,1.26 -0.1,0.47 -0.46,1.02 -1.07,1.64 l -1.24,1.24 z"/>
      </g>
    </g>
    <g id="g286">
      <g clip-path="url(#clipPath290)" id="g288">
        <path id="path294" style="fill:#000000;fill-opacity:1;fill-rule:nonzero;stroke:none" d="m 397.71,266.12 -3.89,-3.88 -0.54,0.54 -0.23,4.33 c -0.04,0.65 -0.11,1.14 -0.21,1.47 -0.1,0.33 -0.26,0.61 -0.49,0.84 -0.31,0.31 -0.66,0.47 -1.05,0.48 -0.38,0.02 -0.73,-0.13 -1.04,-0.45 -0.38,-0.37 -0.56,-0.77 -0.56,-1.19 0.01,-0.42 0.2,-0.82 0.58,-1.2 l -0.75,-0.75 c -0.55,0.54 -0.81,1.16 -0.8,1.85 0.02,0.68 0.32,1.32 0.91,1.91 0.55,0.55 1.13,0.84 1.74,0.88 0.61,0.03 1.15,-0.2 1.63,-0.68 0.59,-0.58 0.91,-1.65 0.97,-3.2 l 0.14,-3.31 2.97,2.98 0.62,-0.62 z m 1.97,7.03 c 0.88,-0.88 1.39,-1.69 1.51,-2.42 0.13,-0.73 -0.12,-1.41 -0.76,-2.05 -0.64,-0.63 -1.31,-0.89 -2.04,-0.78 -0.72,0.12 -1.5,0.59 -2.35,1.41 l -1,1.01 c -0.88,0.87 -1.37,1.66 -1.49,2.39 -0.13,0.72 0.13,1.41 0.78,2.05 0.64,0.64 1.31,0.9 2.02,0.8 0.71,-0.11 1.49,-0.59 2.35,-1.43 l 0.98,-0.98 z m -1.78,0.28 c -0.64,0.64 -1.19,1.01 -1.67,1.13 -0.47,0.11 -0.9,-0.03 -1.28,-0.42 -0.39,-0.38 -0.52,-0.81 -0.41,-1.28 0.11,-0.46 0.47,-1 1.07,-1.61 l 1.2,-1.2 c 0.64,-0.64 1.21,-1.02 1.7,-1.14 0.49,-0.12 0.92,0.01 1.3,0.38 0.37,0.38 0.5,0.8 0.4,1.26 -0.11,0.47 -0.47,1.02 -1.08,1.65 l -1.23,1.23 z m 9.14,2.03 -3.88,-3.88 -0.54,0.54 -0.23,4.33 c -0.04,0.65 -0.11,1.14 -0.21,1.47 -0.1,0.33 -0.27,0.61 -0.5,0.84 -0.31,0.31 -0.65,0.47 -1.04,0.48 -0.38,0.01 -0.73,-0.14 -1.05,-0.45 -0.37,-0.37 -0.55,-0.77 -0.55,-1.19 0.01,-0.42 0.2,-0.82 0.58,-1.2 l -0.75,-0.76 c -0.55,0.55 -0.82,1.17 -0.8,1.85 0.01,0.69 0.32,1.33 0.91,1.92 0.55,0.55 1.13,0.84 1.74,0.87 0.61,0.03 1.15,-0.19 1.63,-0.67 0.58,-0.59 0.91,-1.65 0.97,-3.2 l 0.13,-3.31 2.98,2.97 0.61,-0.61 z m 3.26,3.26 -0.75,-0.76 -5.02,5.02 -0.96,-2.07 -0.69,0.68 1.35,2.97 0.12,0.12 5.95,-5.96 z"/>
      </g>
    </g>
    <g id="g296">
      <g clip-path="url(#clipPath300)" id="g298">
        <path id="path304" style="fill:#000000;fill-opacity:1;fill-rule:nonzero;stroke:none" d="m 426.63,266.12 -3.88,-3.88 -0.55,0.54 -0.22,4.33 c -0.04,0.65 -0.12,1.14 -0.22,1.47 -0.1,0.33 -0.26,0.61 -0.49,0.84 -0.31,0.31 -0.66,0.47 -1.04,0.48 -0.39,0.02 -0.74,-0.13 -1.05,-0.45 -0.38,-0.37 -0.56,-0.77 -0.55,-1.19 0,-0.42 0.19,-0.82 0.57,-1.2 l -0.75,-0.75 c -0.54,0.54 -0.81,1.16 -0.79,1.85 0.01,0.68 0.31,1.32 0.9,1.91 0.55,0.55 1.13,0.84 1.74,0.88 0.61,0.03 1.15,-0.2 1.64,-0.68 0.58,-0.58 0.9,-1.65 0.96,-3.2 l 0.14,-3.31 2.97,2.98 0.62,-0.62 z m 1.97,7.03 c 0.88,-0.88 1.39,-1.69 1.52,-2.42 0.12,-0.73 -0.13,-1.41 -0.77,-2.05 -0.64,-0.63 -1.31,-0.89 -2.04,-0.78 -0.72,0.12 -1.5,0.59 -2.35,1.41 l -1,1.01 c -0.87,0.87 -1.37,1.66 -1.49,2.39 -0.12,0.72 0.14,1.41 0.78,2.05 0.64,0.64 1.31,0.9 2.02,0.8 0.71,-0.11 1.5,-0.59 2.36,-1.43 l 0.97,-0.98 z m -1.78,0.28 c -0.64,0.64 -1.19,1.01 -1.66,1.13 -0.47,0.11 -0.9,-0.03 -1.29,-0.42 -0.39,-0.38 -0.52,-0.81 -0.41,-1.28 0.12,-0.46 0.47,-1 1.07,-1.61 l 1.2,-1.2 c 0.64,-0.64 1.21,-1.02 1.7,-1.14 0.49,-0.12 0.93,0.01 1.3,0.38 0.37,0.38 0.51,0.8 0.4,1.26 -0.11,0.47 -0.47,1.02 -1.08,1.65 l -1.23,1.23 z m 9.15,2.03 -3.89,-3.88 -0.54,0.54 -0.23,4.33 c -0.04,0.65 -0.11,1.14 -0.21,1.47 -0.1,0.33 -0.26,0.61 -0.5,0.84 -0.3,0.31 -0.65,0.47 -1.04,0.48 -0.38,0.01 -0.73,-0.14 -1.04,-0.45 -0.38,-0.37 -0.56,-0.77 -0.56,-1.19 0.01,-0.42 0.2,-0.82 0.58,-1.2 l -0.75,-0.76 c -0.55,0.55 -0.81,1.17 -0.8,1.85 0.02,0.69 0.32,1.33 0.91,1.92 0.55,0.55 1.13,0.84 1.74,0.87 0.61,0.03 1.15,-0.19 1.63,-0.67 0.59,-0.59 0.91,-1.65 0.97,-3.2 l 0.14,-3.31 2.97,2.97 0.62,-0.61 z m 4.66,4.67 -3.88,-3.88 -0.54,0.54 -0.23,4.33 c -0.04,0.65 -0.11,1.14 -0.21,1.47 -0.1,0.33 -0.27,0.61 -0.5,0.84 -0.31,0.31 -0.65,0.47 -1.04,0.48 -0.38,0.01 -0.73,-0.14 -1.05,-0.45 -0.37,-0.38 -0.55,-0.77 -0.55,-1.19 0.01,-0.42 0.2,-0.83 0.58,-1.2 l -0.75,-0.76 c -0.55,0.55 -0.81,1.16 -0.8,1.85 0.02,0.69 0.32,1.33 0.91,1.92 0.55,0.55 1.13,0.84 1.74,0.87 0.61,0.03 1.15,-0.19 1.63,-0.67 0.58,-0.59 0.91,-1.65 0.97,-3.2 l 0.13,-3.31 2.98,2.97 0.61,-0.61 z"/>
      </g>
    </g>
    <g id="g306">
      <g clip-path="url(#clipPath310)" id="g308">
        <path id="path314" style="fill:#000000;fill-opacity:1;fill-rule:nonzero;stroke:none" d="m 455.55,266.12 -3.88,-3.88 -0.54,0.54 -0.23,4.33 c -0.04,0.65 -0.11,1.14 -0.21,1.47 -0.1,0.33 -0.27,0.61 -0.5,0.84 -0.31,0.31 -0.66,0.47 -1.04,0.48 -0.39,0.02 -0.74,-0.13 -1.05,-0.45 -0.37,-0.37 -0.56,-0.77 -0.55,-1.19 0,-0.42 0.2,-0.82 0.58,-1.2 l -0.76,-0.75 c -0.54,0.54 -0.81,1.16 -0.79,1.85 0.01,0.68 0.31,1.32 0.9,1.91 0.55,0.55 1.13,0.84 1.74,0.88 0.61,0.03 1.16,-0.2 1.64,-0.68 0.58,-0.58 0.9,-1.65 0.97,-3.2 l 0.13,-3.31 2.98,2.98 0.61,-0.62 z m 1.97,7.03 c 0.89,-0.88 1.39,-1.69 1.52,-2.42 0.13,-0.73 -0.13,-1.41 -0.77,-2.05 -0.63,-0.63 -1.31,-0.89 -2.03,-0.78 -0.73,0.12 -1.51,0.59 -2.35,1.41 l -1.01,1.01 c -0.87,0.87 -1.37,1.66 -1.49,2.39 -0.12,0.72 0.14,1.41 0.78,2.05 0.64,0.64 1.31,0.9 2.02,0.8 0.71,-0.11 1.5,-0.59 2.36,-1.43 l 0.97,-0.98 z m -1.78,0.28 c -0.64,0.64 -1.19,1.01 -1.66,1.13 -0.47,0.11 -0.9,-0.03 -1.29,-0.42 -0.38,-0.38 -0.52,-0.81 -0.41,-1.28 0.12,-0.46 0.47,-1 1.07,-1.61 l 1.2,-1.2 c 0.65,-0.64 1.21,-1.02 1.7,-1.14 0.49,-0.12 0.93,0.01 1.3,0.38 0.38,0.38 0.51,0.8 0.4,1.26 -0.11,0.47 -0.46,1.02 -1.08,1.65 l -1.23,1.23 z m 9.15,2.03 -3.89,-3.88 -0.54,0.54 -0.23,4.33 c -0.04,0.65 -0.11,1.14 -0.21,1.47 -0.1,0.33 -0.26,0.61 -0.49,0.84 -0.31,0.31 -0.66,0.47 -1.05,0.48 -0.38,0.01 -0.73,-0.14 -1.04,-0.45 -0.38,-0.37 -0.56,-0.77 -0.56,-1.19 0.01,-0.42 0.2,-0.82 0.58,-1.2 l -0.75,-0.76 c -0.55,0.55 -0.81,1.17 -0.8,1.85 0.02,0.69 0.32,1.33 0.91,1.92 0.55,0.55 1.13,0.84 1.74,0.87 0.61,0.03 1.15,-0.19 1.63,-0.67 0.59,-0.59 0.91,-1.65 0.97,-3.2 l 0.14,-3.31 2.97,2.97 0.62,-0.61 z m -1.45,5.21 0.56,0.57 c 0.35,0.36 0.54,0.73 0.56,1.12 0.02,0.38 -0.12,0.73 -0.43,1.04 -0.69,0.69 -1.39,0.69 -2.08,0 -0.33,-0.32 -0.49,-0.68 -0.5,-1.06 -0.01,-0.38 0.14,-0.72 0.45,-1.03 l -0.76,-0.75 c -0.47,0.47 -0.68,1.03 -0.65,1.69 0.03,0.65 0.31,1.24 0.84,1.77 0.56,0.56 1.15,0.85 1.76,0.87 0.61,0.02 1.18,-0.23 1.71,-0.76 0.26,-0.25 0.42,-0.59 0.5,-1 0.07,-0.4 0.03,-0.81 -0.14,-1.22 0.43,0.22 0.85,0.3 1.27,0.24 0.41,-0.06 0.79,-0.26 1.14,-0.6 0.53,-0.54 0.78,-1.13 0.74,-1.79 -0.03,-0.66 -0.33,-1.27 -0.89,-1.83 -0.55,-0.55 -1.15,-0.85 -1.8,-0.9 -0.65,-0.05 -1.23,0.17 -1.72,0.67 l 0.76,0.76 c 0.31,-0.32 0.66,-0.46 1.05,-0.45 0.39,0.02 0.76,0.2 1.1,0.54 0.36,0.36 0.55,0.74 0.55,1.12 0,0.38 -0.17,0.75 -0.53,1.11 -0.34,0.34 -0.71,0.5 -1.11,0.47 -0.4,-0.02 -0.8,-0.24 -1.2,-0.63 l -0.57,-0.56 -0.61,0.61 z"/>
      </g>
    </g>
    <g id="g316">
      <g clip-path="url(#clipPath320)" id="g318">
        <path id="path324" style="fill:#000000;fill-opacity:1;fill-rule:nonzero;stroke:none" d="m 484.47,266.12 -3.88,-3.88 -0.54,0.54 -0.23,4.33 c -0.04,0.65 -0.11,1.14 -0.21,1.47 -0.1,0.33 -0.27,0.61 -0.5,0.84 -0.31,0.31 -0.65,0.47 -1.04,0.48 -0.39,0.02 -0.73,-0.13 -1.05,-0.45 -0.37,-0.37 -0.56,-0.77 -0.55,-1.19 0.01,-0.42 0.2,-0.82 0.58,-1.2 l -0.76,-0.75 c -0.54,0.54 -0.81,1.16 -0.79,1.85 0.01,0.68 0.32,1.32 0.9,1.91 0.56,0.55 1.14,0.84 1.75,0.88 0.6,0.03 1.15,-0.2 1.63,-0.68 0.58,-0.58 0.91,-1.65 0.97,-3.2 l 0.13,-3.31 2.98,2.98 0.61,-0.62 z m 1.98,7.03 c 0.88,-0.88 1.38,-1.69 1.51,-2.42 0.13,-0.73 -0.13,-1.41 -0.77,-2.05 -0.63,-0.63 -1.31,-0.89 -2.03,-0.78 -0.73,0.12 -1.51,0.59 -2.35,1.41 l -1.01,1.01 c -0.87,0.87 -1.37,1.66 -1.49,2.39 -0.12,0.72 0.14,1.41 0.78,2.05 0.64,0.64 1.32,0.9 2.02,0.8 0.71,-0.11 1.5,-0.59 2.36,-1.43 l 0.98,-0.98 z m -1.79,0.28 c -0.63,0.64 -1.19,1.01 -1.66,1.13 -0.47,0.11 -0.9,-0.03 -1.29,-0.42 -0.38,-0.38 -0.52,-0.81 -0.4,-1.28 0.11,-0.46 0.46,-1 1.06,-1.61 l 1.21,-1.2 c 0.64,-0.64 1.2,-1.02 1.69,-1.14 0.5,-0.12 0.93,0.01 1.31,0.38 0.37,0.38 0.5,0.8 0.39,1.26 -0.1,0.47 -0.46,1.02 -1.07,1.65 l -1.24,1.23 z m 9.15,2.03 -3.88,-3.88 -0.55,0.54 -0.22,4.33 c -0.04,0.65 -0.11,1.14 -0.21,1.47 -0.11,0.33 -0.27,0.61 -0.5,0.84 -0.31,0.31 -0.66,0.47 -1.04,0.48 -0.39,0.01 -0.74,-0.14 -1.05,-0.45 -0.37,-0.37 -0.56,-0.77 -0.55,-1.19 0,-0.42 0.2,-0.82 0.57,-1.2 l -0.75,-0.76 c -0.54,0.55 -0.81,1.17 -0.79,1.85 0.01,0.69 0.31,1.33 0.9,1.92 0.55,0.55 1.13,0.84 1.74,0.87 0.61,0.03 1.16,-0.19 1.64,-0.67 0.58,-0.59 0.9,-1.65 0.97,-3.2 l 0.13,-3.31 2.98,2.97 0.61,-0.61 z m 1.97,5.96 0.83,0.82 0.61,-0.62 -0.82,-0.82 1.37,-1.38 -0.75,-0.75 -1.38,1.37 -2.7,-2.7 -0.44,0.45 -1.45,6.76 0.8,0.8 3.93,-3.93 z m -2.6,-2.61 1.85,1.85 -2.91,2.9 0.07,-0.25 0.99,-4.5 z"/>
      </g>
    </g>
    <g id="g326">
      <g clip-path="url(#clipPath330)" id="g328">
        <path id="path334" style="fill:#000000;fill-opacity:1;fill-rule:nonzero;stroke:none" d="m 513.39,266.12 -3.88,-3.88 -0.54,0.54 -0.23,4.33 c -0.04,0.65 -0.11,1.14 -0.21,1.47 -0.1,0.33 -0.27,0.61 -0.5,0.84 -0.31,0.31 -0.65,0.47 -1.04,0.48 -0.38,0.02 -0.73,-0.13 -1.04,-0.45 -0.38,-0.37 -0.56,-0.77 -0.56,-1.19 0.01,-0.42 0.2,-0.82 0.58,-1.2 l -0.75,-0.75 c -0.55,0.54 -0.81,1.16 -0.8,1.85 0.02,0.68 0.32,1.32 0.91,1.91 0.55,0.55 1.13,0.84 1.74,0.88 0.61,0.03 1.15,-0.2 1.63,-0.68 0.58,-0.58 0.91,-1.65 0.97,-3.2 l 0.13,-3.31 2.98,2.98 0.61,-0.62 z m 1.98,7.03 c 0.88,-0.88 1.39,-1.69 1.51,-2.42 0.13,-0.73 -0.13,-1.41 -0.77,-2.05 -0.63,-0.63 -1.31,-0.89 -2.03,-0.78 -0.72,0.12 -1.51,0.59 -2.35,1.41 l -1.01,1.01 c -0.87,0.87 -1.36,1.66 -1.49,2.39 -0.12,0.72 0.14,1.41 0.79,2.05 0.63,0.64 1.31,0.9 2.02,0.8 0.71,-0.11 1.49,-0.59 2.35,-1.43 l 0.98,-0.98 z m -1.78,0.28 c -0.64,0.64 -1.2,1.01 -1.67,1.13 -0.47,0.11 -0.9,-0.03 -1.29,-0.42 -0.38,-0.38 -0.52,-0.81 -0.4,-1.28 0.11,-0.46 0.47,-1 1.06,-1.61 l 1.21,-1.2 c 0.64,-0.64 1.21,-1.02 1.7,-1.14 0.49,-0.12 0.92,0.01 1.3,0.38 0.37,0.38 0.5,0.8 0.4,1.26 -0.11,0.47 -0.47,1.02 -1.08,1.65 l -1.23,1.23 z m 9.14,2.03 -3.88,-3.88 -0.54,0.54 -0.23,4.33 c -0.04,0.65 -0.11,1.14 -0.21,1.47 -0.1,0.33 -0.27,0.61 -0.5,0.84 -0.31,0.31 -0.66,0.47 -1.04,0.48 -0.39,0.01 -0.74,-0.14 -1.05,-0.45 -0.37,-0.37 -0.56,-0.77 -0.55,-1.19 0,-0.42 0.2,-0.82 0.58,-1.2 l -0.76,-0.76 c -0.54,0.55 -0.81,1.17 -0.79,1.85 0.01,0.69 0.31,1.33 0.9,1.92 0.55,0.55 1.13,0.84 1.74,0.87 0.61,0.03 1.16,-0.19 1.64,-0.67 0.58,-0.59 0.9,-1.65 0.97,-3.2 l 0.13,-3.31 2.98,2.97 0.61,-0.61 z m -1.84,4.1 -2.65,3.26 3.03,3.04 0.7,-0.7 -2.4,-2.4 1.44,-1.79 c 0.12,0.46 0.36,0.87 0.73,1.24 0.54,0.54 1.15,0.79 1.82,0.75 0.68,-0.04 1.32,-0.36 1.93,-0.97 0.61,-0.61 0.92,-1.25 0.95,-1.93 0.02,-0.69 -0.27,-1.32 -0.86,-1.91 -0.52,-0.53 -1.1,-0.81 -1.72,-0.85 -0.62,-0.04 -1.21,0.17 -1.77,0.64 l 0.71,0.71 c 0.39,-0.29 0.77,-0.43 1.13,-0.4 0.37,0.02 0.72,0.19 1.04,0.51 0.35,0.35 0.5,0.75 0.46,1.18 -0.04,0.44 -0.27,0.87 -0.69,1.29 -0.39,0.4 -0.82,0.61 -1.28,0.63 -0.45,0.03 -0.86,-0.14 -1.22,-0.5 -0.33,-0.33 -0.51,-0.66 -0.55,-0.99 l -0.04,-0.36 -0.76,-0.45 z"/>
      </g>
    </g>
    <path id="path336" style="fill:none;stroke:#137cb1;stroke-width:2.94740009;stroke-linecap:round;stroke-linejoin:round;stroke-miterlimit:10;stroke-dasharray:none;stroke-opacity:1" d="m 180.83,530.97 25.16,0"/>
    <g id="g338">
      <g clip-path="url(#clipPath342)" id="g340"><text id="text346" style="font-variant:normal;font-weight:normal;font-size:11.7840004px;font-family:Roboto;-inkscape-font-specification:Roboto-Regular;writing-mode:lr-tb;fill:#000000;fill-opacity:1;fill-rule:nonzero;stroke:none" transform="matrix(1,0,0,-1,208.68,527.42)"><tspan id="tspan348" y="0" x="0 7.6831679 15.413472 22.80204 25.771608 34.102898 40.548744 44.472816 47.336327 54.053207 60.557976 66.968475 69.831985 72.777985 79.377022 89.735161 96.345985 99.162361 105.91459 111.57092 121.79942 128.08029 134.66756 138.43843 141.408 148.94975 155.53702 161.98286 168.44049 175.05132 181.29684 184.16035 190.78296 201.11752 204.0871 211.62886 217.42659 224.03741">ADP National Employment Change 3M Avg.</tspan></text>
</g>
    </g>
  </g>
</svg>
