<?xml version="1.0" encoding="UTF-8" standalone="no"?>
<svg xmlns:dc="http://purl.org/dc/elements/1.1/" xmlns:cc="http://creativecommons.org/ns#" xmlns:rdf="http://www.w3.org/1999/02/22-rdf-syntax-ns#" xmlns:svg="http://www.w3.org/2000/svg" xmlns="http://www.w3.org/2000/svg" viewBox="63.0775 394.6 618.0725 313.7" height="313.7" width="618.0725" xml:space="preserve" version="1.1" id="svg2">
  <metadata id="metadata8">
    <rdf:RDF>
      <cc:Work rdf:about="">
        <dc:format>image/svg+xml</dc:format>
        <dc:type rdf:resource="http://purl.org/dc/dcmitype/StillImage"/>
      </cc:Work>
    </rdf:RDF>
  </metadata>
  <defs id="defs6">
    <clipPath id="clipPath16" clipPathUnits="userSpaceOnUse">
      <path style="clip-rule:evenodd" id="path18" d="m 50.4,275.28 494.52,0 0,251.04 -494.52,0 0,-251.04 z"/>
    </clipPath>
    <clipPath id="clipPath38" clipPathUnits="userSpaceOnUse">
      <path style="clip-rule:evenodd" id="path40" d="m 50.52,275.28 494.4,0 0,250.92 -494.4,0 0,-250.92 z"/>
    </clipPath>
    <clipPath id="clipPath50" clipPathUnits="userSpaceOnUse">
      <path style="clip-rule:evenodd" id="path52" d="m 50.52,275.28 494.4,0 0,250.92 -494.4,0 0,-250.92 z"/>
    </clipPath>
    <clipPath id="clipPath62" clipPathUnits="userSpaceOnUse">
      <path style="clip-rule:evenodd" id="path64" d="m 50.52,275.28 494.4,0 0,250.92 -494.4,0 0,-250.92 z"/>
    </clipPath>
    <clipPath id="clipPath74" clipPathUnits="userSpaceOnUse">
      <path style="clip-rule:evenodd" id="path76" d="m 50.52,275.28 494.4,0 0,250.92 -494.4,0 0,-250.92 z"/>
    </clipPath>
    <clipPath id="clipPath86" clipPathUnits="userSpaceOnUse">
      <path style="clip-rule:evenodd" id="path88" d="m 50.52,275.28 494.4,0 0,250.92 -494.4,0 0,-250.92 z"/>
    </clipPath>
    <clipPath id="clipPath98" clipPathUnits="userSpaceOnUse">
      <path style="clip-rule:evenodd" id="path100" d="m 50.52,275.28 494.4,0 0,250.92 -494.4,0 0,-250.92 z"/>
    </clipPath>
    <clipPath id="clipPath110" clipPathUnits="userSpaceOnUse">
      <path style="clip-rule:evenodd" id="path112" d="m 50.52,275.28 494.4,0 0,250.92 -494.4,0 0,-250.92 z"/>
    </clipPath>
    <clipPath id="clipPath122" clipPathUnits="userSpaceOnUse">
      <path style="clip-rule:evenodd" id="path124" d="m 50.52,275.28 494.4,0 0,250.92 -494.4,0 0,-250.92 z"/>
    </clipPath>
    <clipPath id="clipPath134" clipPathUnits="userSpaceOnUse">
      <path style="clip-rule:evenodd" id="path136" d="m 50.52,275.28 494.4,0 0,250.92 -494.4,0 0,-250.92 z"/>
    </clipPath>
    <clipPath id="clipPath146" clipPathUnits="userSpaceOnUse">
      <path style="clip-rule:evenodd" id="path148" d="m 50.52,275.28 494.4,0 0,250.92 -494.4,0 0,-250.92 z"/>
    </clipPath>
    <clipPath id="clipPath158" clipPathUnits="userSpaceOnUse">
      <path style="clip-rule:evenodd" id="path160" d="m 50.52,275.28 494.4,0 0,250.92 -494.4,0 0,-250.92 z"/>
    </clipPath>
    <clipPath id="clipPath170" clipPathUnits="userSpaceOnUse">
      <path style="clip-rule:evenodd" id="path172" d="m 50.52,275.28 494.4,0 0,250.92 -494.4,0 0,-250.92 z"/>
    </clipPath>
    <clipPath id="clipPath182" clipPathUnits="userSpaceOnUse">
      <path style="clip-rule:evenodd" id="path184" d="m 50.52,275.28 494.4,0 0,250.92 -494.4,0 0,-250.92 z"/>
    </clipPath>
    <clipPath id="clipPath194" clipPathUnits="userSpaceOnUse">
      <path style="clip-rule:evenodd" id="path196" d="m 50.52,275.28 494.4,0 0,250.92 -494.4,0 0,-250.92 z"/>
    </clipPath>
    <clipPath id="clipPath206" clipPathUnits="userSpaceOnUse">
      <path style="clip-rule:evenodd" id="path208" d="m 50.52,275.28 494.4,0 0,250.92 -494.4,0 0,-250.92 z"/>
    </clipPath>
    <clipPath id="clipPath218" clipPathUnits="userSpaceOnUse">
      <path style="clip-rule:evenodd" id="path220" d="m 50.52,275.28 494.4,0 0,250.92 -494.4,0 0,-250.92 z"/>
    </clipPath>
    <clipPath id="clipPath230" clipPathUnits="userSpaceOnUse">
      <path style="clip-rule:evenodd" id="path232" d="m 50.52,275.28 494.4,0 0,250.92 -494.4,0 0,-250.92 z"/>
    </clipPath>
    <clipPath id="clipPath242" clipPathUnits="userSpaceOnUse">
      <path style="clip-rule:evenodd" id="path244" d="m 50.52,275.28 494.4,0 0,250.92 -494.4,0 0,-250.92 z"/>
    </clipPath>
    <clipPath id="clipPath254" clipPathUnits="userSpaceOnUse">
      <path style="clip-rule:evenodd" id="path256" d="m 50.52,275.28 494.4,0 0,250.92 -494.4,0 0,-250.92 z"/>
    </clipPath>
    <clipPath id="clipPath266" clipPathUnits="userSpaceOnUse">
      <path style="clip-rule:evenodd" id="path268" d="m 50.52,275.28 494.4,0 0,250.92 -494.4,0 0,-250.92 z"/>
    </clipPath>
    <clipPath id="clipPath278" clipPathUnits="userSpaceOnUse">
      <path style="clip-rule:evenodd" id="path280" d="m 50.52,275.28 494.4,0 0,250.92 -494.4,0 0,-250.92 z"/>
    </clipPath>
    <clipPath id="clipPath290" clipPathUnits="userSpaceOnUse">
      <path style="clip-rule:evenodd" id="path292" d="m 50.52,275.28 494.4,0 0,250.92 -494.4,0 0,-250.92 z"/>
    </clipPath>
    <clipPath id="clipPath302" clipPathUnits="userSpaceOnUse">
      <path style="clip-rule:evenodd" id="path304" d="m 50.52,275.28 494.4,0 0,250.92 -494.4,0 0,-250.92 z"/>
    </clipPath>
    <clipPath id="clipPath314" clipPathUnits="userSpaceOnUse">
      <path style="clip-rule:evenodd" id="path316" d="m 50.52,275.28 494.4,0 0,250.92 -494.4,0 0,-250.92 z"/>
    </clipPath>
    <clipPath id="clipPath326" clipPathUnits="userSpaceOnUse">
      <path style="clip-rule:evenodd" id="path328" d="m 50.52,275.28 494.4,0 0,250.92 -494.4,0 0,-250.92 z"/>
    </clipPath>
    <clipPath id="clipPath338" clipPathUnits="userSpaceOnUse">
      <path style="clip-rule:evenodd" id="path340" d="m 50.52,275.28 494.4,0 0,250.92 -494.4,0 0,-250.92 z"/>
    </clipPath>
    <clipPath id="clipPath350" clipPathUnits="userSpaceOnUse">
      <path style="clip-rule:evenodd" id="path352" d="m 50.52,275.28 494.4,0 0,250.92 -494.4,0 0,-250.92 z"/>
    </clipPath>
    <clipPath id="clipPath362" clipPathUnits="userSpaceOnUse">
      <path style="clip-rule:evenodd" id="path364" d="m 50.52,275.28 494.4,0 0,250.92 -494.4,0 0,-250.92 z"/>
    </clipPath>
    <clipPath id="clipPath374" clipPathUnits="userSpaceOnUse">
      <path style="clip-rule:evenodd" id="path376" d="m 50.52,275.28 494.4,0 0,250.92 -494.4,0 0,-250.92 z"/>
    </clipPath>
    <clipPath id="clipPath386" clipPathUnits="userSpaceOnUse">
      <path style="clip-rule:evenodd" id="path388" d="m 50.52,275.28 494.4,0 0,250.92 -494.4,0 0,-250.92 z"/>
    </clipPath>
    <clipPath id="clipPath398" clipPathUnits="userSpaceOnUse">
      <path style="clip-rule:evenodd" id="path400" d="m 50.52,275.28 494.4,0 0,250.92 -494.4,0 0,-250.92 z"/>
    </clipPath>
    <clipPath id="clipPath410" clipPathUnits="userSpaceOnUse">
      <path style="clip-rule:evenodd" id="path412" d="m 50.52,275.28 494.4,0 0,250.92 -494.4,0 0,-250.92 z"/>
    </clipPath>
    <clipPath id="clipPath422" clipPathUnits="userSpaceOnUse">
      <path style="clip-rule:evenodd" id="path424" d="m 50.52,275.28 494.4,0 0,250.92 -494.4,0 0,-250.92 z"/>
    </clipPath>
    <clipPath id="clipPath434" clipPathUnits="userSpaceOnUse">
      <path style="clip-rule:evenodd" id="path436" d="m 50.52,275.28 494.4,0 0,250.92 -494.4,0 0,-250.92 z"/>
    </clipPath>
    <clipPath id="clipPath446" clipPathUnits="userSpaceOnUse">
      <path style="clip-rule:evenodd" id="path448" d="m 50.52,275.28 494.4,0 0,250.92 -494.4,0 0,-250.92 z"/>
    </clipPath>
    <clipPath id="clipPath458" clipPathUnits="userSpaceOnUse">
      <path style="clip-rule:evenodd" id="path460" d="m 50.52,275.28 494.4,0 0,250.92 -494.4,0 0,-250.92 z"/>
    </clipPath>
    <clipPath id="clipPath470" clipPathUnits="userSpaceOnUse">
      <path style="clip-rule:evenodd" id="path472" d="m 50.52,275.28 494.4,0 0,250.92 -494.4,0 0,-250.92 z"/>
    </clipPath>
    <clipPath id="clipPath482" clipPathUnits="userSpaceOnUse">
      <path style="clip-rule:evenodd" id="path484" d="m 50.52,275.28 494.4,0 0,250.92 -494.4,0 0,-250.92 z"/>
    </clipPath>
    <clipPath id="clipPath494" clipPathUnits="userSpaceOnUse">
      <path style="clip-rule:evenodd" id="path496" d="m 50.52,275.28 494.4,0 0,250.92 -494.4,0 0,-250.92 z"/>
    </clipPath>
    <clipPath id="clipPath506" clipPathUnits="userSpaceOnUse">
      <path style="clip-rule:evenodd" id="path508" d="m 50.52,275.28 494.4,0 0,250.92 -494.4,0 0,-250.92 z"/>
    </clipPath>
    <clipPath id="clipPath518" clipPathUnits="userSpaceOnUse">
      <path style="clip-rule:evenodd" id="path520" d="m 50.52,275.28 494.4,0 0,250.92 -494.4,0 0,-250.92 z"/>
    </clipPath>
    <clipPath id="clipPath530" clipPathUnits="userSpaceOnUse">
      <path style="clip-rule:evenodd" id="path532" d="m 50.52,275.28 494.4,0 0,250.92 -494.4,0 0,-250.92 z"/>
    </clipPath>
    <clipPath id="clipPath542" clipPathUnits="userSpaceOnUse">
      <path style="clip-rule:evenodd" id="path544" d="m 50.52,275.28 494.4,0 0,250.92 -494.4,0 0,-250.92 z"/>
    </clipPath>
    <clipPath id="clipPath554" clipPathUnits="userSpaceOnUse">
      <path style="clip-rule:evenodd" id="path556" d="m 50.52,275.28 494.4,0 0,250.92 -494.4,0 0,-250.92 z"/>
    </clipPath>
    <clipPath id="clipPath566" clipPathUnits="userSpaceOnUse">
      <path style="clip-rule:evenodd" id="path568" d="m 50.52,275.28 494.4,0 0,250.92 -494.4,0 0,-250.92 z"/>
    </clipPath>
    <clipPath id="clipPath578" clipPathUnits="userSpaceOnUse">
      <path style="clip-rule:evenodd" id="path580" d="m 50.52,275.28 494.4,0 0,250.92 -494.4,0 0,-250.92 z"/>
    </clipPath>
    <clipPath id="clipPath590" clipPathUnits="userSpaceOnUse">
      <path style="clip-rule:evenodd" id="path592" d="m 50.52,275.28 494.4,0 0,250.92 -494.4,0 0,-250.92 z"/>
    </clipPath>
    <clipPath id="clipPath602" clipPathUnits="userSpaceOnUse">
      <path style="clip-rule:evenodd" id="path604" d="m 50.52,487.8 494.4,0 0,38.4 -494.4,0 0,-38.4 z"/>
    </clipPath>
  </defs>
  <g transform="matrix(1.25,0,0,-1.25,0,1052.4)" id="g10">
    <g id="g12">
      <g clip-path="url(#clipPath16)" id="g14">
        <path id="path20" style="fill:none;stroke:#000000;stroke-width:0.14;stroke-linecap:butt;stroke-linejoin:miter;stroke-miterlimit:10;stroke-dasharray:none;stroke-opacity:0" d="m 50.532,275.28 494.35,0 0,250.89 -494.35,0 0,-250.89 z"/>
      </g>
    </g>
    <path id="path22" style="fill:#ffffff;fill-opacity:1;fill-rule:evenodd;stroke:none" d="m 50.532,275.28 494.35,0 0,250.89 -494.35,0 0,-250.89 z"/>
    <path id="path24" style="fill:#137cb1;fill-opacity:1;fill-rule:nonzero;stroke:none" d="m 99.104,478.09 30.906,0 0,-145.47 -30.906,0 0,145.47 z m 49.366,-61 30.81,0 0,-84.47 -30.81,0 0,84.47 z m 49.37,-10.91 30.81,0 0,-73.56 -30.81,0 0,73.56 z m 49.27,-18.77 30.81,0 0,-54.79 -30.81,0 0,54.79 z m 49.37,-9.38 30.81,0 0,-45.41 -30.81,0 0,45.41 z m 49.27,-1.64 30.81,0 0,-43.77 -30.81,0 0,43.77 z m 49.37,-1.53 30.81,0 0,-42.24 -30.81,0 0,42.24 z m 49.27,-1.53 30.91,0 0,-40.71 -30.91,0 0,40.71 z m 49.37,-31.31 30.81,0 0,-9.4 -30.81,0 0,9.4 z"/>
    <path id="path26" style="fill:none;stroke:#808080;stroke-width:0.63753003;stroke-linecap:butt;stroke-linejoin:round;stroke-miterlimit:10;stroke-dasharray:none;stroke-opacity:1" d="m 89.898,332.62 0,161.94"/>
    <path id="path28" style="fill:none;stroke:#808080;stroke-width:0.63753003;stroke-linecap:butt;stroke-linejoin:round;stroke-miterlimit:10;stroke-dasharray:none;stroke-opacity:1" d="m 86.661,332.62 3.237,0 m -3.237,26.94 3.237,0 m -3.237,27.03 3.237,0 m -3.237,27.04 3.237,0 m -3.237,26.92 3.237,0 m -3.237,27.04 3.237,0 m -3.237,26.97 3.237,0"/>
    <path id="path30" style="fill:none;stroke:#808080;stroke-width:0.63753003;stroke-linecap:butt;stroke-linejoin:round;stroke-miterlimit:10;stroke-dasharray:none;stroke-opacity:1" d="m 89.898,332.62 443.932,0"/>
    <path id="path32" style="fill:none;stroke:#808080;stroke-width:0.63753003;stroke-linecap:butt;stroke-linejoin:round;stroke-miterlimit:10;stroke-dasharray:none;stroke-opacity:1" d="m 89.898,332.62 0,-2.43 m 49.292,2.43 0,-2.43 m 49.37,2.43 0,-2.43 m 49.27,2.43 0,-2.43 m 49.37,2.43 0,-2.43 m 49.37,2.43 0,-2.43 m 49.27,2.43 0,-2.43 m 49.37,2.43 0,-2.43 m 49.27,2.43 0,-2.43 m 49.35,2.43 0,-2.43"/>
    <g id="g34">
      <g clip-path="url(#clipPath38)" id="g36"><text id="text42" style="font-variant:normal;font-weight:bold;font-size:10.19999981px;font-family:Calibri;-inkscape-font-specification:Calibri-Bold;writing-mode:lr-tb;fill:#000000;fill-opacity:1;fill-rule:nonzero;stroke:none" transform="matrix(1,0,0,-1,105.65,484.68)"><tspan id="tspan44" y="0" x="0 5.2080002 10.416">27%</tspan></text>
</g>
    </g>
    <g id="g46">
      <g clip-path="url(#clipPath50)" id="g48"><text id="text54" style="font-variant:normal;font-weight:bold;font-size:10.19999981px;font-family:Calibri;-inkscape-font-specification:Calibri-Bold;writing-mode:lr-tb;fill:#000000;fill-opacity:1;fill-rule:nonzero;stroke:none" transform="matrix(1,0,0,-1,154.97,423.65)"><tspan id="tspan56" y="0" x="0 5.2080002 10.416">16%</tspan></text>
</g>
    </g>
    <g id="g58">
      <g clip-path="url(#clipPath62)" id="g60"><text id="text66" style="font-variant:normal;font-weight:bold;font-size:10.19999981px;font-family:Calibri;-inkscape-font-specification:Calibri-Bold;writing-mode:lr-tb;fill:#000000;fill-opacity:1;fill-rule:nonzero;stroke:none" transform="matrix(1,0,0,-1,204.31,412.68)"><tspan id="tspan68" y="0" x="0 5.2080002 10.416">14%</tspan></text>
</g>
    </g>
    <g id="g70">
      <g clip-path="url(#clipPath74)" id="g72"><text id="text78" style="font-variant:normal;font-weight:bold;font-size:10.19999981px;font-family:Calibri;-inkscape-font-specification:Calibri-Bold;writing-mode:lr-tb;fill:#000000;fill-opacity:1;fill-rule:nonzero;stroke:none" transform="matrix(1,0,0,-1,253.66,393.91)"><tspan id="tspan80" y="0" x="0 5.2080002 10.416">10%</tspan></text>
</g>
    </g>
    <g id="g82">
      <g clip-path="url(#clipPath86)" id="g84"><text id="text90" style="font-variant:normal;font-weight:bold;font-size:10.19999981px;font-family:Calibri;-inkscape-font-specification:Calibri-Bold;writing-mode:lr-tb;fill:#000000;fill-opacity:1;fill-rule:nonzero;stroke:none" transform="matrix(1,0,0,-1,305.54,384.53)"><tspan id="tspan92" y="0" x="0 5.184">8%</tspan></text>
</g>
    </g>
    <g id="g94">
      <g clip-path="url(#clipPath98)" id="g96"><text id="text102" style="font-variant:normal;font-weight:bold;font-size:10.22399998px;font-family:Calibri;-inkscape-font-specification:Calibri-Bold;writing-mode:lr-tb;fill:#000000;fill-opacity:1;fill-rule:nonzero;stroke:none" transform="matrix(1,0,0,-1,354.86,382.97)"><tspan id="tspan104" y="0" x="0 5.2079682">8%</tspan></text>
</g>
    </g>
    <g id="g106">
      <g clip-path="url(#clipPath110)" id="g108"><text id="text114" style="font-variant:normal;font-weight:bold;font-size:10.19999981px;font-family:Calibri;-inkscape-font-specification:Calibri-Bold;writing-mode:lr-tb;fill:#000000;fill-opacity:1;fill-rule:nonzero;stroke:none" transform="matrix(1,0,0,-1,404.21,381.38)"><tspan id="tspan116" y="0" x="0 5.2080002">8%</tspan></text>
</g>
    </g>
    <g id="g118">
      <g clip-path="url(#clipPath122)" id="g120"><text id="text126" style="font-variant:normal;font-weight:bold;font-size:10.19999981px;font-family:Calibri;-inkscape-font-specification:Calibri-Bold;writing-mode:lr-tb;fill:#000000;fill-opacity:1;fill-rule:nonzero;stroke:none" transform="matrix(1,0,0,-1,453.55,379.82)"><tspan id="tspan128" y="0" x="0 5.184">8%</tspan></text>
</g>
    </g>
    <g id="g130">
      <g clip-path="url(#clipPath134)" id="g132"><text id="text138" style="font-variant:normal;font-weight:bold;font-size:10.19999981px;font-family:Calibri;-inkscape-font-specification:Calibri-Bold;writing-mode:lr-tb;fill:#000000;fill-opacity:1;fill-rule:nonzero;stroke:none" transform="matrix(1,0,0,-1,502.87,348.53)"><tspan id="tspan140" y="0" x="0 5.2080002">2%</tspan></text>
</g>
    </g>
    <g id="g142">
      <g clip-path="url(#clipPath146)" id="g144"><text id="text150" style="font-variant:normal;font-weight:normal;font-size:10.19999981px;font-family:Calibri;-inkscape-font-specification:Calibri;writing-mode:lr-tb;fill:#000000;fill-opacity:1;fill-rule:nonzero;stroke:none" transform="matrix(1,0,0,-1,67.992,329.64)"><tspan id="tspan152" y="0" x="0 5.2080002">0%</tspan></text>
</g>
    </g>
    <g id="g154">
      <g clip-path="url(#clipPath158)" id="g156"><text id="text162" style="font-variant:normal;font-weight:normal;font-size:10.19999981px;font-family:Calibri;-inkscape-font-specification:Calibri;writing-mode:lr-tb;fill:#000000;fill-opacity:1;fill-rule:nonzero;stroke:none" transform="matrix(1,0,0,-1,67.992,356.64)"><tspan id="tspan164" y="0" x="0 5.2080002">5%</tspan></text>
</g>
    </g>
    <g id="g166">
      <g clip-path="url(#clipPath170)" id="g168"><text id="text174" style="font-variant:normal;font-weight:normal;font-size:10.19999981px;font-family:Calibri;-inkscape-font-specification:Calibri;writing-mode:lr-tb;fill:#000000;fill-opacity:1;fill-rule:nonzero;stroke:none" transform="matrix(1,0,0,-1,62.808,383.64)"><tspan id="tspan176" y="0" x="0 5.2020001 10.3122">10%</tspan></text>
</g>
    </g>
    <g id="g178">
      <g clip-path="url(#clipPath182)" id="g180"><text id="text186" style="font-variant:normal;font-weight:normal;font-size:10.19999981px;font-family:Calibri;-inkscape-font-specification:Calibri;writing-mode:lr-tb;fill:#000000;fill-opacity:1;fill-rule:nonzero;stroke:none" transform="matrix(1,0,0,-1,62.808,410.64)"><tspan id="tspan188" y="0" x="0 5.2020001 10.3122">15%</tspan></text>
</g>
    </g>
    <g id="g190">
      <g clip-path="url(#clipPath194)" id="g192"><text id="text198" style="font-variant:normal;font-weight:normal;font-size:10.19999981px;font-family:Calibri;-inkscape-font-specification:Calibri;writing-mode:lr-tb;fill:#000000;fill-opacity:1;fill-rule:nonzero;stroke:none" transform="matrix(1,0,0,-1,62.808,437.62)"><tspan id="tspan200" y="0" x="0 5.2020001 10.3122">20%</tspan></text>
</g>
    </g>
    <g id="g202">
      <g clip-path="url(#clipPath206)" id="g204"><text id="text210" style="font-variant:normal;font-weight:normal;font-size:10.19999981px;font-family:Calibri;-inkscape-font-specification:Calibri;writing-mode:lr-tb;fill:#000000;fill-opacity:1;fill-rule:nonzero;stroke:none" transform="matrix(1,0,0,-1,62.808,464.62)"><tspan id="tspan212" y="0" x="0 5.2020001 10.3122">25%</tspan></text>
</g>
    </g>
    <g id="g214">
      <g clip-path="url(#clipPath218)" id="g216"><text id="text222" style="font-variant:normal;font-weight:normal;font-size:10.19999981px;font-family:Calibri;-inkscape-font-specification:Calibri;writing-mode:lr-tb;fill:#000000;fill-opacity:1;fill-rule:nonzero;stroke:none" transform="matrix(1,0,0,-1,62.808,491.62)"><tspan id="tspan224" y="0" x="0 5.2020001 10.3122">30%</tspan></text>
</g>
    </g>
    <g id="g226">
      <g clip-path="url(#clipPath230)" id="g228"><text id="text234" style="font-variant:normal;font-weight:normal;font-size:7.65600014px;font-family:Calibri;-inkscape-font-specification:Calibri;writing-mode:lr-tb;fill:#000000;fill-opacity:1;fill-rule:nonzero;stroke:none" transform="matrix(1,0,0,-1,92.064,320.45)"><tspan id="tspan236" y="0" x="0 4.386888 7.9622402 9.7996798 13.7808 17.448025 20.012783 21.773664 25.846657 29.827776 31.879583 33.60984 38.410152 42.077377">Valuation: Has</tspan></text>
</g>
    </g>
    <g id="g238">
      <g clip-path="url(#clipPath242)" id="g240"><text id="text246" style="font-variant:normal;font-weight:normal;font-size:7.65600014px;font-family:Calibri;-inkscape-font-specification:Calibri;writing-mode:lr-tb;fill:#000000;fill-opacity:1;fill-rule:nonzero;stroke:none" transform="matrix(1,0,0,-1,97.776,311.11)"><tspan id="tspan248" y="0" x="0 3.6672239 5.4281039 8.1000481 11.966328 15.633552 19.622328 23.090496 24.843719 27.515663 31.297728">already re-</tspan></text>
</g>
    </g>
    <g id="g250">
      <g clip-path="url(#clipPath254)" id="g252"><text id="text258" style="font-variant:normal;font-weight:normal;font-size:7.65600014px;font-family:Calibri;-inkscape-font-specification:Calibri;writing-mode:lr-tb;fill:#000000;fill-opacity:1;fill-rule:nonzero;stroke:none" transform="matrix(1,0,0,-1,90.48,301.78)"><tspan id="tspan260" y="0" x="0 2.64132 6.3085442 8.8733044 12.716616 16.697737 18.427992 20.969784 25.042776 29.023895 30.754152 36.871296 40.852417 44.106216">rated too much</tspan></text>
</g>
    </g>
    <g id="g262">
      <g clip-path="url(#clipPath266)" id="g264"><text id="text270" style="font-variant:normal;font-weight:normal;font-size:7.65600014px;font-family:Calibri;-inkscape-font-specification:Calibri;writing-mode:lr-tb;fill:#000000;fill-opacity:1;fill-rule:nonzero;stroke:none" transform="matrix(1,0,0,-1,155.45,320.45)"><tspan id="tspan272" y="0" x="0 3.48348 5.32092 8.3144159 11.575872 15.266064">Fiscal</tspan></text>
</g>
    </g>
    <g id="g274">
      <g clip-path="url(#clipPath278)" id="g276"><text id="text282" style="font-variant:normal;font-weight:normal;font-size:7.65600014px;font-family:Calibri;-inkscape-font-specification:Calibri;writing-mode:lr-tb;fill:#000000;fill-opacity:1;fill-rule:nonzero;stroke:none" transform="matrix(1,0,0,-1,142.92,311.11)"><tspan id="tspan284" y="0" x="0 3.2537999 7.2119522 11.284944 14.24016 16.80492 19.423271 23.090496 24.820751 28.893744 31.458504 34.390751 36.12101 37.843609">constraints in</tspan></text>
</g>
    </g>
    <g id="g286">
      <g clip-path="url(#clipPath290)" id="g288"><text id="text294" style="font-variant:normal;font-weight:normal;font-size:7.65600014px;font-family:Calibri;-inkscape-font-specification:Calibri;writing-mode:lr-tb;fill:#000000;fill-opacity:1;fill-rule:nonzero;stroke:none" transform="matrix(1,0,0,-1,147.19,301.78)"><tspan id="tspan296" y="0" x="0 3.7590959 7.7402158 10.381536 14.454528 18.435648 22.294271 23.924999 26.244768 30.111048">Europe (ex</tspan></text>
</g>
    </g>
    <g id="g298">
      <g clip-path="url(#clipPath302)" id="g300"><text id="text306" style="font-variant:normal;font-weight:normal;font-size:7.65600014px;font-family:Calibri;-inkscape-font-specification:Calibri;writing-mode:lr-tb;fill:#000000;fill-opacity:1;fill-rule:nonzero;stroke:none" transform="matrix(1,0,0,-1,148.46,292.44)"><tspan id="tspan308" y="0" x="0 4.800312 8.6819038 11.353848 17.470991 21.138216 25.119335 28.587503">Germany)</tspan></text>
</g>
    </g>
    <g id="g310">
      <g clip-path="url(#clipPath314)" id="g312"><text id="text318" style="font-variant:normal;font-weight:normal;font-size:7.65600014px;font-family:Calibri;-inkscape-font-specification:Calibri;writing-mode:lr-tb;fill:#000000;fill-opacity:1;fill-rule:nonzero;stroke:none" transform="matrix(1,0,0,-1,189.67,320.45)"><tspan id="tspan320" y="0" x="0 4.7696881 8.4369116 11.897424 15.671832 17.402088 21.360241 25.433231 27.997992 29.70528 32.660496 36.733486 40.50024 44.458393">Have not spent</tspan></text>
</g>
    </g>
    <g id="g322">
      <g clip-path="url(#clipPath326)" id="g324"><text id="text330" style="font-variant:normal;font-weight:normal;font-size:7.65600014px;font-family:Calibri;-inkscape-font-specification:Calibri;writing-mode:lr-tb;fill:#000000;fill-opacity:1;fill-rule:nonzero;stroke:none" transform="matrix(1,0,0,-1,191.69,311.11)"><tspan id="tspan332" y="0" x="0 6.1171441 10.082952 13.336752 17.294905 19.02516 21.658825 23.38908 29.506224 33.280632 35.010887 39.083881">much time on</tspan></text>
</g>
    </g>
    <g id="g334">
      <g clip-path="url(#clipPath338)" id="g336"><text id="text342" style="font-variant:normal;font-weight:normal;font-size:7.65600014px;font-family:Calibri;-inkscape-font-specification:Calibri;writing-mode:lr-tb;fill:#000000;fill-opacity:1;fill-rule:nonzero;stroke:none" transform="matrix(1,0,0,-1,195.19,301.78)"><tspan id="tspan344" y="0" x="0 2.56476 6.6147838 10.427472 12.157728 15.089976 18.971567 22.141151 24.705912 28.755936 31.427879 33.158134">the sector /</tspan></text>
</g>
    </g>
    <g id="g346">
      <g clip-path="url(#clipPath350)" id="g348"><text id="text354" style="font-variant:normal;font-weight:normal;font-size:7.65600014px;font-family:Calibri;-inkscape-font-specification:Calibri;writing-mode:lr-tb;fill:#000000;fill-opacity:1;fill-rule:nonzero;stroke:none" transform="matrix(1,0,0,-1,196.37,292.44)"><tspan id="tspan356" y="0" x="0 3.9811201 7.8627119 11.629464 15.702456 17.333183 19.966848 23.947968 25.678225 29.751217">need to do</tspan></text>
</g>
    </g>
    <g id="g358">
      <g clip-path="url(#clipPath362)" id="g360"><text id="text366" style="font-variant:normal;font-weight:normal;font-size:7.65600014px;font-family:Calibri;-inkscape-font-specification:Calibri;writing-mode:lr-tb;fill:#000000;fill-opacity:1;fill-rule:nonzero;stroke:none" transform="matrix(1,0,0,-1,205.42,283.1)"><tspan id="tspan368" y="0" x="0 5.51232 9.4934397 12.165384">work</tspan></text>
</g>
    </g>
    <g id="g370">
      <g clip-path="url(#clipPath374)" id="g372"><text id="text378" style="font-variant:normal;font-weight:normal;font-size:7.65600014px;font-family:Calibri;-inkscape-font-specification:Calibri;writing-mode:lr-tb;fill:#000000;fill-opacity:1;fill-rule:nonzero;stroke:none" transform="matrix(1,0,0,-1,241.03,320.45)"><tspan id="tspan380" y="0" x="0 3.7590959 7.0205522 10.787304 14.041104 18.114096 20.678856 22.386145 26.367264 30.440256 32.170513 34.811832 36.542088 39.58152">Execution risk</tspan></text>
</g>
    </g>
    <g id="g382">
      <g clip-path="url(#clipPath386)" id="g384"><text id="text390" style="font-variant:normal;font-weight:normal;font-size:7.65600014px;font-family:Calibri;-inkscape-font-specification:Calibri;writing-mode:lr-tb;fill:#000000;fill-opacity:1;fill-rule:nonzero;stroke:none" transform="matrix(1,0,0,-1,244.9,311.11)"><tspan id="tspan392" y="0" x="0 4.0729918 8.0541124 9.7843676 13.038168 16.705393 20.694168 24.361391 27.622849 29.353104 31.917864">on capacity</tspan></text>
</g>
    </g>
    <g id="g394">
      <g clip-path="url(#clipPath398)" id="g396"><text id="text402" style="font-variant:normal;font-weight:normal;font-size:7.65600014px;font-family:Calibri;-inkscape-font-specification:Calibri;writing-mode:lr-tb;fill:#000000;fill-opacity:1;fill-rule:nonzero;stroke:none" transform="matrix(1,0,0,-1,246.77,301.78)"><tspan id="tspan404" y="0" x="0 3.766752 7.12008 11.1012 14.768424 18.849072 21.804289 23.534544 27.607536">expansion</tspan></text>
</g>
    </g>
    <g id="g406">
      <g clip-path="url(#clipPath410)" id="g408"><text id="text414" style="font-variant:normal;font-weight:normal;font-size:7.65600014px;font-family:Calibri;-inkscape-font-specification:Calibri;writing-mode:lr-tb;fill:#000000;fill-opacity:1;fill-rule:nonzero;stroke:none" transform="matrix(1,0,0,-1,292.49,320.45)"><tspan id="tspan416" y="0" x="0 3.9581521 7.9163041 10.481064 14.31672 18.274872 20.839632 22.638792 26.191175 28.005648 29.735905 31.9638 36.036793">Potential for</tspan></text>
</g>
    </g>
    <g id="g418">
      <g clip-path="url(#clipPath422)" id="g420"><text id="text426" style="font-variant:normal;font-weight:normal;font-size:7.65600014px;font-family:Calibri;-inkscape-font-specification:Calibri;writing-mode:lr-tb;fill:#000000;fill-opacity:1;fill-rule:nonzero;stroke:none" transform="matrix(1,0,0,-1,299.78,311.11)"><tspan id="tspan428" y="0" x="0 4.195488 8.1766081 11.170104 14.217192 15.978072 19.645296 21.375551">Russia /</tspan></text>
</g>
    </g>
    <g id="g430">
      <g clip-path="url(#clipPath434)" id="g432"><text id="text438" style="font-variant:normal;font-weight:normal;font-size:7.65600014px;font-family:Calibri;-inkscape-font-specification:Calibri;writing-mode:lr-tb;fill:#000000;fill-opacity:1;fill-rule:nonzero;stroke:none" transform="matrix(1,0,0,-1,299.76,301.78)"><tspan id="tspan440" y="0" x="0 4.9151521 8.398632 11.070576 14.7378 16.598207 20.579329">Ukraine</tspan></text>
</g>
    </g>
    <g id="g442">
      <g clip-path="url(#clipPath446)" id="g444"><text id="text450" style="font-variant:normal;font-weight:normal;font-size:7.65600014px;font-family:Calibri;-inkscape-font-specification:Calibri;writing-mode:lr-tb;fill:#000000;fill-opacity:1;fill-rule:nonzero;stroke:none" transform="matrix(1,0,0,-1,297.89,292.44)"><tspan id="tspan452" y="0" x="0 3.2537999 7.0205522 10.687776 13.642992 17.501616 19.836697 21.597576 24.223583">ceasefire</tspan></text>
</g>
    </g>
    <g id="g454">
      <g clip-path="url(#clipPath458)" id="g456"><text id="text462" style="font-variant:normal;font-weight:normal;font-size:7.65600014px;font-family:Calibri;-inkscape-font-specification:Calibri;writing-mode:lr-tb;fill:#000000;fill-opacity:1;fill-rule:nonzero;stroke:none" transform="matrix(1,0,0,-1,343.61,320.45)"><tspan id="tspan464" y="0" x="0 3.2537999 7.23492 11.307912 14.883264 17.226 21.222431 24.889656 27.454416 31.320696">Long-dated</tspan></text>
</g>
    </g>
    <g id="g466">
      <g clip-path="url(#clipPath470)" id="g468"><text id="text474" style="font-variant:normal;font-weight:normal;font-size:7.65600014px;font-family:Calibri;-inkscape-font-specification:Calibri;writing-mode:lr-tb;fill:#000000;fill-opacity:1;fill-rule:nonzero;stroke:none" transform="matrix(1,0,0,-1,348,311.11)"><tspan id="tspan476" y="0" x="0 3.766752 7.4339762 10.075296 14.148288 15.878544 19.836697 23.50392">earnings</tspan></text>
</g>
    </g>
    <g id="g478">
      <g clip-path="url(#clipPath482)" id="g480"><text id="text486" style="font-variant:normal;font-weight:normal;font-size:7.65600014px;font-family:Calibri;-inkscape-font-specification:Calibri;writing-mode:lr-tb;fill:#000000;fill-opacity:1;fill-rule:nonzero;stroke:none" transform="matrix(1,0,0,-1,339.19,301.78)"><tspan id="tspan488" y="0" x="0 3.9811201 8.0541124 11.629464 14.301408 17.968632 22.041624 25.854313 28.809528 30.539783 32.905487 36.718178 38.647488 42.307056">upgrades (e.g.</tspan></text>
</g>
    </g>
    <g id="g490">
      <g clip-path="url(#clipPath494)" id="g492"><text id="text498" style="font-variant:normal;font-weight:normal;font-size:7.65600014px;font-family:Calibri;-inkscape-font-specification:Calibri;writing-mode:lr-tb;fill:#000000;fill-opacity:1;fill-rule:nonzero;stroke:none" transform="matrix(1,0,0,-1,342.43,292.44)"><tspan id="tspan500" y="0" x="0 6.1171441 9.7843676 11.52228 15.5034 17.317871 20.786039 22.516296 24.759504 27.515663 31.496784">mainly from</tspan></text>
</g>
    </g>
    <g id="g502">
      <g clip-path="url(#clipPath506)" id="g504"><text id="text510" style="font-variant:normal;font-weight:normal;font-size:7.65600014px;font-family:Calibri;-inkscape-font-specification:Calibri;writing-mode:lr-tb;fill:#000000;fill-opacity:1;fill-rule:nonzero;stroke:none" transform="matrix(1,0,0,-1,352.34,283.1)"><tspan id="tspan512" y="0" x="0 3.8880019 7.7760038 11.664006 15.552008">2028)</tspan></text>
</g>
    </g>
    <g id="g514">
      <g clip-path="url(#clipPath518)" id="g516"><text id="text522" style="font-variant:normal;font-weight:normal;font-size:7.65600014px;font-family:Calibri;-inkscape-font-specification:Calibri;writing-mode:lr-tb;fill:#000000;fill-opacity:1;fill-rule:nonzero;stroke:none" transform="matrix(1,0,0,-1,386.16,320.45)"><tspan id="tspan524" y="0" x="0 3.7590959 7.2119522 12.012264 13.74252 16.491024 20.257776 23.212992 25.777752 28.510944 30.241199 33.410786 36.044449 37.774704 41.755825 45.828815">ESG restrictions</tspan></text>
</g>
    </g>
    <g id="g526">
      <g clip-path="url(#clipPath530)" id="g528"><text id="text534" style="font-variant:normal;font-weight:normal;font-size:7.65600014px;font-family:Calibri;-inkscape-font-specification:Calibri;writing-mode:lr-tb;fill:#000000;fill-opacity:1;fill-rule:nonzero;stroke:none" transform="matrix(1,0,0,-1,393.79,311.11)"><tspan id="tspan536" y="0" x="0 2.9552159 4.685472 8.4445677 11.797896 14.944512 16.758984 20.717136 23.672352 25.486824 29.444977">/ exclusion</tspan></text>
</g>
    </g>
    <g id="g538">
      <g clip-path="url(#clipPath542)" id="g540"><text id="text546" style="font-variant:normal;font-weight:normal;font-size:7.65600014px;font-family:Calibri;-inkscape-font-specification:Calibri;writing-mode:lr-tb;fill:#000000;fill-opacity:1;fill-rule:nonzero;stroke:none" transform="matrix(1,0,0,-1,399.53,301.78)"><tspan id="tspan548" y="0" x="0 3.2537999 5.9257441 7.648344 10.213104 14.071728 16.743671 18.466272">criteria</tspan></text>
</g>
    </g>
    <g id="g550">
      <g clip-path="url(#clipPath554)" id="g552"><text id="text558" style="font-variant:normal;font-weight:normal;font-size:7.65600014px;font-family:Calibri;-inkscape-font-specification:Calibri;writing-mode:lr-tb;fill:#000000;fill-opacity:1;fill-rule:nonzero;stroke:none" transform="matrix(1,0,0,-1,439.68,320.45)"><tspan id="tspan560" y="0" x="0 4.3945441 6.2319841 8.9039278 12.663024 16.330248 20.319023 23.787191 25.517448 29.598097 33.26532 36.741142">Already have</tspan></text>
</g>
    </g>
    <g id="g562">
      <g clip-path="url(#clipPath566)" id="g564"><text id="text570" style="font-variant:normal;font-weight:normal;font-size:7.65600014px;font-family:Calibri;-inkscape-font-specification:Calibri;writing-mode:lr-tb;fill:#000000;fill-opacity:1;fill-rule:nonzero;stroke:none" transform="matrix(1,0,0,-1,448.18,311.11)"><tspan id="tspan572" y="0" x="0 3.766752 7.8397441 11.820864 15.893856 19.469208">enough</tspan></text>
</g>
    </g>
    <g id="g574">
      <g clip-path="url(#clipPath578)" id="g576"><text id="text582" style="font-variant:normal;font-weight:normal;font-size:7.65600014px;font-family:Calibri;-inkscape-font-specification:Calibri;writing-mode:lr-tb;fill:#000000;fill-opacity:1;fill-rule:nonzero;stroke:none" transform="matrix(1,0,0,-1,445.58,301.78)"><tspan id="tspan584" y="0" x="0 3.8126881 7.1660161 11.147136 15.220128 18.213623 22.271303 24.943249">exposure</tspan></text>
</g>
    </g>
    <g id="g586">
      <g clip-path="url(#clipPath590)" id="g588"><text id="text594" style="font-variant:normal;font-weight:normal;font-size:7.65600014px;font-family:Calibri;-inkscape-font-specification:Calibri;writing-mode:lr-tb;fill:#000000;fill-opacity:1;fill-rule:nonzero;stroke:none" transform="matrix(1,0,0,-1,500.21,320.45)"><tspan id="tspan596" y="0" x="0 5.0682721 7.6330318 11.591184 15.449808">Other</tspan></text>
</g>
    </g>
    <g id="g598">
      <g clip-path="url(#clipPath602)" id="g600"><text id="text606" style="font-style:italic;font-variant:normal;font-weight:bold;font-size:11.01599979px;font-family:Calibri;-inkscape-font-specification:Calibri-BoldItalic;writing-mode:lr-tb;fill:#000000;fill-opacity:1;fill-rule:nonzero;stroke:none" transform="matrix(1,0,0,-1,56.664,512.57)"><tspan id="tspan608" y="0" x="0 7.4578319 13.042944 16.116407 18.650087 28.6416 34.447033 40.263481 44.041969 46.575649 49.329647 53.714016 56.159569 61.447247 66.856102 72.264961 78.081406 80.824394 86.629822 92.446274 94.968933 100.14645 105.97392 111.77935 114.31303 117.79409 121.67172 127.47715 136.35605 138.88972 144.70618 150.52263 156.33907 159.04901 164.85445 170.67088 173.22659 176.99408 182.7995 185.33319 190.70898 196.51442 200.41409 206.21951 212.03596 217.44482 223.26128 229.06671 231.57835 238.51843 243.92729 247.40834 252.8172 258.62262 263.09512 268.504 271.24698 276.65582 281.74521 287.56168 293.3671 297.74045 303.54587 307.42352 312.83237 315.36606 321.17148 326.9769 335.13977 340.24017">Q5: What is keeping you from adding to European Defence exposure now? </tspan></text>
</g>
    </g>
  </g>
</svg>
