<?xml version="1.0" encoding="UTF-8" standalone="no"?>
<svg xmlns:dc="http://purl.org/dc/elements/1.1/" xmlns:cc="http://creativecommons.org/ns#" xmlns:rdf="http://www.w3.org/1999/02/22-rdf-syntax-ns#" xmlns:svg="http://www.w3.org/2000/svg" xmlns="http://www.w3.org/2000/svg" viewBox="63.0525 332.725 639 324.575" height="324.575" width="639" xml:space="preserve" version="1.1" id="svg2">
  <metadata id="metadata8">
    <rdf:RDF>
      <cc:Work rdf:about="">
        <dc:format>image/svg+xml</dc:format>
        <dc:type rdf:resource="http://purl.org/dc/dcmitype/StillImage"/>
      </cc:Work>
    </rdf:RDF>
  </metadata>
  <defs id="defs6">
    <clipPath id="clipPath16" clipPathUnits="userSpaceOnUse">
      <path style="clip-rule:evenodd" id="path18" d="m 50.4,266.16 511.2,0 0,259.68 -511.2,0 0,-259.68 z"/>
    </clipPath>
    <clipPath id="clipPath26" clipPathUnits="userSpaceOnUse">
      <path style="clip-rule:evenodd" id="path28" d="m 50.4,266.16 511.2,0 0,259.68 -511.2,0 0,-259.68 z"/>
    </clipPath>
    <clipPath id="clipPath40" clipPathUnits="userSpaceOnUse">
      <path style="clip-rule:evenodd" id="path42" d="m 50.512,266.21 511.05,0 0,259.54 -511.05,0 0,-259.54 z"/>
    </clipPath>
    <clipPath id="clipPath50" clipPathUnits="userSpaceOnUse">
      <path style="clip-rule:evenodd" id="path52" d="m 50.52,266.16 511.08,0 0,259.56 -511.08,0 0,-259.56 z"/>
    </clipPath>
    <clipPath id="clipPath62" clipPathUnits="userSpaceOnUse">
      <path style="clip-rule:evenodd" id="path64" d="m 50.52,266.16 511.08,0 0,259.56 -511.08,0 0,-259.56 z"/>
    </clipPath>
    <clipPath id="clipPath74" clipPathUnits="userSpaceOnUse">
      <path style="clip-rule:evenodd" id="path76" d="m 50.52,266.16 511.08,0 0,259.56 -511.08,0 0,-259.56 z"/>
    </clipPath>
    <clipPath id="clipPath86" clipPathUnits="userSpaceOnUse">
      <path style="clip-rule:evenodd" id="path88" d="m 50.52,266.16 511.08,0 0,259.56 -511.08,0 0,-259.56 z"/>
    </clipPath>
    <clipPath id="clipPath98" clipPathUnits="userSpaceOnUse">
      <path style="clip-rule:evenodd" id="path100" d="m 50.52,266.16 511.08,0 0,259.56 -511.08,0 0,-259.56 z"/>
    </clipPath>
    <clipPath id="clipPath110" clipPathUnits="userSpaceOnUse">
      <path style="clip-rule:evenodd" id="path112" d="m 50.52,266.16 511.08,0 0,259.56 -511.08,0 0,-259.56 z"/>
    </clipPath>
    <clipPath id="clipPath122" clipPathUnits="userSpaceOnUse">
      <path style="clip-rule:evenodd" id="path124" d="m 50.52,266.16 511.08,0 0,259.56 -511.08,0 0,-259.56 z"/>
    </clipPath>
    <clipPath id="clipPath134" clipPathUnits="userSpaceOnUse">
      <path style="clip-rule:evenodd" id="path136" d="m 50.52,266.16 511.08,0 0,259.56 -511.08,0 0,-259.56 z"/>
    </clipPath>
    <clipPath id="clipPath146" clipPathUnits="userSpaceOnUse">
      <path style="clip-rule:evenodd" id="path148" d="m 50.52,266.16 511.08,0 0,259.56 -511.08,0 0,-259.56 z"/>
    </clipPath>
    <clipPath id="clipPath158" clipPathUnits="userSpaceOnUse">
      <path style="clip-rule:evenodd" id="path160" d="m 50.52,266.16 511.08,0 0,259.56 -511.08,0 0,-259.56 z"/>
    </clipPath>
    <clipPath id="clipPath174" clipPathUnits="userSpaceOnUse">
      <path style="clip-rule:evenodd" id="path176" d="m 50.52,266.16 511.08,0 0,259.56 -511.08,0 0,-259.56 z"/>
    </clipPath>
    <clipPath id="clipPath188" clipPathUnits="userSpaceOnUse">
      <path style="clip-rule:evenodd" id="path190" d="m 50.52,266.16 511.08,0 0,259.56 -511.08,0 0,-259.56 z"/>
    </clipPath>
  </defs>
  <g transform="matrix(1.25,0,0,-1.25,0,990)" id="g10">
    <g id="g12">
      <g clip-path="url(#clipPath16)" id="g14">
        <path id="path20" style="fill:none;stroke:#000000;stroke-width:0.14;stroke-linecap:butt;stroke-linejoin:miter;stroke-miterlimit:10;stroke-dasharray:none;stroke-opacity:0" d="m 50.512,266.17 511.11,0 0,259.58 -511.11,0 0,-259.58 z"/>
      </g>
    </g>
    <g id="g22">
      <g clip-path="url(#clipPath26)" id="g24">
        <path id="path30" style="fill:#ffffff;fill-opacity:1;fill-rule:evenodd;stroke:none" d="m 50.512,266.17 511.11,0 0,259.58 -511.11,0 0,-259.58 z"/>
      </g>
    </g>
    <path id="path32" style="fill:#005aa4;fill-opacity:1;fill-rule:nonzero;stroke:none" d="m 126.78,424.93 42,0 0,-109.45 -42,0 0,109.45 z m 155.48,25.16 41.99,0 0,-134.61 -41.99,0 0,134.61 z m 155.47,16.83 42,0 0,-151.44 -42,0 0,151.44 z"/>
    <path id="path34" style="fill:#d0b86a;fill-opacity:1;fill-rule:nonzero;stroke:none" d="m 177.27,427.24 42,0 0,-111.76 -42,0 0,111.76 z m 155.32,45.86 42.15,0 0,-157.62 -42.15,0 0,157.62 z m 155.48,6.02 41.99,0 0,-163.64 -41.99,0 0,163.64 z"/>
    <g id="g36">
      <g clip-path="url(#clipPath40)" id="g38">
        <path id="path44" style="fill:none;stroke:#808080;stroke-width:1.60829997;stroke-linecap:round;stroke-linejoin:round;stroke-miterlimit:10;stroke-dasharray:none;stroke-opacity:1" d="m 95.301,315.48 466.319,0"/>
      </g>
    </g>
    <g id="g46">
      <g clip-path="url(#clipPath50)" id="g48"><text id="text54" style="font-variant:normal;font-weight:normal;font-size:11.59200001px;font-family:'Roboto Condensed';-inkscape-font-specification:RobotoCondensed-Regular;writing-mode:lr-tb;fill:#000000;fill-opacity:1;fill-rule:nonzero;stroke:none" transform="matrix(1,0,0,-1,136.87,433.56)"><tspan id="tspan56" y="0" x="0 5.7264481 8.7751436 14.501592">7.5%</tspan></text>
</g>
    </g>
    <g id="g58">
      <g clip-path="url(#clipPath62)" id="g60"><text id="text66" style="font-variant:normal;font-weight:normal;font-size:11.59200001px;font-family:'Roboto Condensed';-inkscape-font-specification:RobotoCondensed-Regular;writing-mode:lr-tb;fill:#000000;fill-opacity:1;fill-rule:nonzero;stroke:none" transform="matrix(1,0,0,-1,292.34,458.78)"><tspan id="tspan68" y="0" x="0 5.7264481 8.7751436 14.501592">9.2%</tspan></text>
</g>
    </g>
    <g id="g70">
      <g clip-path="url(#clipPath74)" id="g72"><text id="text78" style="font-variant:normal;font-weight:normal;font-size:11.59200001px;font-family:'Roboto Condensed';-inkscape-font-specification:RobotoCondensed-Regular;writing-mode:lr-tb;fill:#000000;fill-opacity:1;fill-rule:nonzero;stroke:none" transform="matrix(1,0,0,-1,445.03,475.63)"><tspan id="tspan80" y="0" x="0 5.7264481 11.452896 14.501592 20.228041">10.3%</tspan></text>
</g>
    </g>
    <g id="g82">
      <g clip-path="url(#clipPath86)" id="g84"><text id="text90" style="font-variant:normal;font-weight:normal;font-size:11.59200001px;font-family:'Roboto Condensed';-inkscape-font-specification:RobotoCondensed-Regular;writing-mode:lr-tb;fill:#000000;fill-opacity:1;fill-rule:nonzero;stroke:none" transform="matrix(1,0,0,-1,187.3,435.94)"><tspan id="tspan92" y="0" x="0 5.7264481 8.7751436 14.501592">7.6%</tspan></text>
</g>
    </g>
    <g id="g94">
      <g clip-path="url(#clipPath98)" id="g96"><text id="text102" style="font-variant:normal;font-weight:normal;font-size:11.56799984px;font-family:'Roboto Condensed';-inkscape-font-specification:RobotoCondensed-Regular;writing-mode:lr-tb;fill:#000000;fill-opacity:1;fill-rule:nonzero;stroke:none" transform="matrix(1,0,0,-1,339.98,481.7)"><tspan id="tspan104" y="0" x="0 5.714592 11.429184 14.506272 20.220863">10.8%</tspan></text>
</g>
    </g>
    <g id="g106">
      <g clip-path="url(#clipPath110)" id="g108"><text id="text114" style="font-variant:normal;font-weight:normal;font-size:11.59200001px;font-family:'Roboto Condensed';-inkscape-font-specification:RobotoCondensed-Regular;writing-mode:lr-tb;fill:#000000;fill-opacity:1;fill-rule:nonzero;stroke:none" transform="matrix(1,0,0,-1,495.46,487.75)"><tspan id="tspan116" y="0" x="0 5.7264481 11.452896 14.501592 20.228041">11.2%</tspan></text>
</g>
    </g>
    <g id="g118">
      <g clip-path="url(#clipPath122)" id="g120"><text id="text126" style="font-variant:normal;font-weight:normal;font-size:11.59200001px;font-family:'Roboto Condensed';-inkscape-font-specification:RobotoCondensed-Regular;writing-mode:lr-tb;fill:#000000;fill-opacity:1;fill-rule:nonzero;stroke:none" transform="matrix(1,0,0,-1,158.64,297.12)"><tspan id="tspan128" y="0" x="0 5.5641599 11.592 17.318447 23.044895">FY25E</tspan></text>
</g>
    </g>
    <g id="g130">
      <g clip-path="url(#clipPath134)" id="g132"><text id="text138" style="font-variant:normal;font-weight:normal;font-size:11.59200001px;font-family:'Roboto Condensed';-inkscape-font-specification:RobotoCondensed-Regular;writing-mode:lr-tb;fill:#000000;fill-opacity:1;fill-rule:nonzero;stroke:none" transform="matrix(1,0,0,-1,314.11,297.12)"><tspan id="tspan140" y="0" x="0 5.5641599 11.568816 17.295263 23.021711">FY26E</tspan></text>
</g>
    </g>
    <g id="g142">
      <g clip-path="url(#clipPath146)" id="g144"><text id="text150" style="font-variant:normal;font-weight:normal;font-size:11.59200001px;font-family:'Roboto Condensed';-inkscape-font-specification:RobotoCondensed-Regular;writing-mode:lr-tb;fill:#000000;fill-opacity:1;fill-rule:nonzero;stroke:none" transform="matrix(1,0,0,-1,469.58,297.12)"><tspan id="tspan152" y="0" x="0 5.5641599 11.568816 17.295263 23.021711">FY27E</tspan></text>
</g>
    </g>
    <g id="g154">
      <g clip-path="url(#clipPath158)" id="g156"><text id="text162" style="font-variant:normal;font-weight:bold;font-size:13.89599991px;font-family:'Roboto Condensed';-inkscape-font-specification:RobotoCondensed-Bold;writing-mode:lr-tb;fill:#000000;fill-opacity:1;fill-rule:nonzero;stroke:none" transform="matrix(1,0,0,-1,248.18,502.78)"><tspan id="tspan164" y="0" x="0 7.8512402 14.507424 22.233601 25.332409 33.030792 39.686977 45.926281 52.582462 59.335918 66.131065 72.787247 76.177872 84.348717 88.962189 95.924088 104.72025 109.04191">DLR Revenue Growth</tspan></text>
</g>
    </g>
    <path id="path166" style="fill:#ffffff;fill-opacity:1;fill-rule:evenodd;stroke:none" d="m 244.83,269.18 164.92,0 0,21.476 -164.92,0 0,-21.476 z"/>
    <path id="path168" style="fill:#005aa4;fill-opacity:1;fill-rule:evenodd;stroke:none" d="m 272.03,276.79 6.253,0 0,6.253 -6.253,0 0,-6.253 z"/>
    <g id="g170">
      <g clip-path="url(#clipPath174)" id="g172"><text id="text178" style="font-variant:normal;font-weight:normal;font-size:11.59200001px;font-family:'Roboto Condensed';-inkscape-font-specification:RobotoCondensed-Regular;writing-mode:lr-tb;fill:#000000;fill-opacity:1;fill-rule:nonzero;stroke:none" transform="matrix(1,0,0,-1,280.97,276.41)"><tspan id="tspan180" y="0" x="0 8.7983284 14.802984">MSe</tspan></text>
</g>
    </g>
    <path id="path182" style="fill:#d0b86a;fill-opacity:1;fill-rule:evenodd;stroke:none" d="m 327.81,276.79 6.253,0 0,6.253 -6.253,0 0,-6.253 z"/>
    <g id="g184">
      <g clip-path="url(#clipPath188)" id="g186"><text id="text192" style="font-variant:normal;font-weight:normal;font-size:11.59200001px;font-family:'Roboto Condensed';-inkscape-font-specification:RobotoCondensed-Regular;writing-mode:lr-tb;fill:#000000;fill-opacity:1;fill-rule:nonzero;stroke:none" transform="matrix(1,0,0,-1,336.77,276.41)"><tspan id="tspan194" y="0" x="0 6.6306238 12.34548 17.909639 23.299919 28.724976 34.265953 39.551903 45.09288">Consensus</tspan></text>
</g>
    </g>
  </g>
</svg>
