<?xml version="1.0" encoding="UTF-8" standalone="no"?>
<svg xmlns:dc="http://purl.org/dc/elements/1.1/" xmlns:cc="http://creativecommons.org/ns#" xmlns:rdf="http://www.w3.org/1999/02/22-rdf-syntax-ns#" xmlns:svg="http://www.w3.org/2000/svg" xmlns="http://www.w3.org/2000/svg" viewBox="63 369.3 639 251.3875" height="251.3875" width="639" xml:space="preserve" version="1.1" id="svg2">
  <metadata id="metadata8">
    <rdf:RDF>
      <cc:Work rdf:about="">
        <dc:format>image/svg+xml</dc:format>
        <dc:type rdf:resource="http://purl.org/dc/dcmitype/StillImage"/>
      </cc:Work>
    </rdf:RDF>
  </metadata>
  <defs id="defs6">
    <clipPath id="clipPath16" clipPathUnits="userSpaceOnUse">
      <path style="clip-rule:evenodd" id="path18" d="m 50.4,295.44 511.2,0 0,201.12 -511.2,0 0,-201.12 z"/>
    </clipPath>
    <clipPath id="clipPath26" clipPathUnits="userSpaceOnUse">
      <path style="clip-rule:evenodd" id="path28" d="m 50.4,295.44 511.2,0 0,201.12 -511.2,0 0,-201.12 z"/>
    </clipPath>
    <clipPath id="clipPath44" clipPathUnits="userSpaceOnUse">
      <path style="clip-rule:evenodd" id="path46" d="m 50.432,295.53 511.07,0 0,201 -511.07,0 0,-201 z"/>
    </clipPath>
    <clipPath id="clipPath54" clipPathUnits="userSpaceOnUse">
      <path style="clip-rule:evenodd" id="path56" d="m 50.52,295.44 511.08,0 0,201 -511.08,0 0,-201 z"/>
    </clipPath>
    <clipPath id="clipPath66" clipPathUnits="userSpaceOnUse">
      <path style="clip-rule:evenodd" id="path68" d="m 50.52,295.44 511.08,0 0,201 -511.08,0 0,-201 z"/>
    </clipPath>
    <clipPath id="clipPath78" clipPathUnits="userSpaceOnUse">
      <path style="clip-rule:evenodd" id="path80" d="m 50.52,295.44 511.08,0 0,201 -511.08,0 0,-201 z"/>
    </clipPath>
    <clipPath id="clipPath90" clipPathUnits="userSpaceOnUse">
      <path style="clip-rule:evenodd" id="path92" d="m 50.52,295.44 511.08,0 0,201 -511.08,0 0,-201 z"/>
    </clipPath>
    <clipPath id="clipPath102" clipPathUnits="userSpaceOnUse">
      <path style="clip-rule:evenodd" id="path104" d="m 50.52,295.44 511.08,0 0,201 -511.08,0 0,-201 z"/>
    </clipPath>
    <clipPath id="clipPath114" clipPathUnits="userSpaceOnUse">
      <path style="clip-rule:evenodd" id="path116" d="m 50.52,295.44 511.08,0 0,201 -511.08,0 0,-201 z"/>
    </clipPath>
    <clipPath id="clipPath126" clipPathUnits="userSpaceOnUse">
      <path style="clip-rule:evenodd" id="path128" d="m 50.52,295.44 511.08,0 0,201 -511.08,0 0,-201 z"/>
    </clipPath>
    <clipPath id="clipPath138" clipPathUnits="userSpaceOnUse">
      <path style="clip-rule:evenodd" id="path140" d="m 50.52,295.44 511.08,0 0,201 -511.08,0 0,-201 z"/>
    </clipPath>
    <clipPath id="clipPath150" clipPathUnits="userSpaceOnUse">
      <path style="clip-rule:evenodd" id="path152" d="m 50.52,295.44 511.08,0 0,201 -511.08,0 0,-201 z"/>
    </clipPath>
    <clipPath id="clipPath162" clipPathUnits="userSpaceOnUse">
      <path style="clip-rule:evenodd" id="path164" d="m 50.52,295.44 511.08,0 0,201 -511.08,0 0,-201 z"/>
    </clipPath>
    <clipPath id="clipPath174" clipPathUnits="userSpaceOnUse">
      <path style="clip-rule:evenodd" id="path176" d="m 50.52,295.44 511.08,0 0,201 -511.08,0 0,-201 z"/>
    </clipPath>
    <clipPath id="clipPath186" clipPathUnits="userSpaceOnUse">
      <path style="clip-rule:evenodd" id="path188" d="m 50.52,295.44 511.08,0 0,201 -511.08,0 0,-201 z"/>
    </clipPath>
    <clipPath id="clipPath198" clipPathUnits="userSpaceOnUse">
      <path style="clip-rule:evenodd" id="path200" d="m 50.52,295.44 511.08,0 0,201 -511.08,0 0,-201 z"/>
    </clipPath>
    <clipPath id="clipPath210" clipPathUnits="userSpaceOnUse">
      <path style="clip-rule:evenodd" id="path212" d="m 50.52,295.44 511.08,0 0,201 -511.08,0 0,-201 z"/>
    </clipPath>
    <clipPath id="clipPath222" clipPathUnits="userSpaceOnUse">
      <path style="clip-rule:evenodd" id="path224" d="m 50.52,295.44 511.08,0 0,201 -511.08,0 0,-201 z"/>
    </clipPath>
    <clipPath id="clipPath234" clipPathUnits="userSpaceOnUse">
      <path style="clip-rule:evenodd" id="path236" d="m 50.52,295.44 511.08,0 0,201 -511.08,0 0,-201 z"/>
    </clipPath>
    <clipPath id="clipPath246" clipPathUnits="userSpaceOnUse">
      <path style="clip-rule:evenodd" id="path248" d="m 50.52,295.44 511.08,0 0,201 -511.08,0 0,-201 z"/>
    </clipPath>
    <clipPath id="clipPath258" clipPathUnits="userSpaceOnUse">
      <path style="clip-rule:evenodd" id="path260" d="m 50.52,295.44 511.08,0 0,201 -511.08,0 0,-201 z"/>
    </clipPath>
    <clipPath id="clipPath270" clipPathUnits="userSpaceOnUse">
      <path style="clip-rule:evenodd" id="path272" d="m 50.52,295.44 511.08,0 0,201 -511.08,0 0,-201 z"/>
    </clipPath>
    <clipPath id="clipPath282" clipPathUnits="userSpaceOnUse">
      <path style="clip-rule:evenodd" id="path284" d="m 50.52,295.44 511.08,0 0,201 -511.08,0 0,-201 z"/>
    </clipPath>
    <clipPath id="clipPath294" clipPathUnits="userSpaceOnUse">
      <path style="clip-rule:evenodd" id="path296" d="m 50.52,295.44 511.08,0 0,201 -511.08,0 0,-201 z"/>
    </clipPath>
    <clipPath id="clipPath306" clipPathUnits="userSpaceOnUse">
      <path style="clip-rule:evenodd" id="path308" d="m 50.52,295.44 511.08,0 0,201 -511.08,0 0,-201 z"/>
    </clipPath>
    <clipPath id="clipPath318" clipPathUnits="userSpaceOnUse">
      <path style="clip-rule:evenodd" id="path320" d="m 50.52,295.44 511.08,0 0,201 -511.08,0 0,-201 z"/>
    </clipPath>
    <clipPath id="clipPath330" clipPathUnits="userSpaceOnUse">
      <path style="clip-rule:evenodd" id="path332" d="m 50.52,295.44 511.08,0 0,201 -511.08,0 0,-201 z"/>
    </clipPath>
    <clipPath id="clipPath342" clipPathUnits="userSpaceOnUse">
      <path style="clip-rule:evenodd" id="path344" d="m 50.52,295.44 511.08,0 0,201 -511.08,0 0,-201 z"/>
    </clipPath>
    <clipPath id="clipPath354" clipPathUnits="userSpaceOnUse">
      <path style="clip-rule:evenodd" id="path356" d="m 50.52,295.44 511.08,0 0,201 -511.08,0 0,-201 z"/>
    </clipPath>
    <clipPath id="clipPath366" clipPathUnits="userSpaceOnUse">
      <path style="clip-rule:evenodd" id="path368" d="m 50.52,295.44 511.08,0 0,201 -511.08,0 0,-201 z"/>
    </clipPath>
    <clipPath id="clipPath378" clipPathUnits="userSpaceOnUse">
      <path style="clip-rule:evenodd" id="path380" d="m 50.52,295.44 511.08,0 0,201 -511.08,0 0,-201 z"/>
    </clipPath>
    <clipPath id="clipPath390" clipPathUnits="userSpaceOnUse">
      <path style="clip-rule:evenodd" id="path392" d="m 50.52,295.44 511.08,0 0,201 -511.08,0 0,-201 z"/>
    </clipPath>
    <clipPath id="clipPath402" clipPathUnits="userSpaceOnUse">
      <path style="clip-rule:evenodd" id="path404" d="m 50.52,295.44 511.08,0 0,201 -511.08,0 0,-201 z"/>
    </clipPath>
    <clipPath id="clipPath416" clipPathUnits="userSpaceOnUse">
      <path style="clip-rule:evenodd" id="path418" d="m 50.52,295.44 511.08,0 0,201 -511.08,0 0,-201 z"/>
    </clipPath>
  </defs>
  <g transform="matrix(1.25,0,0,-1.25,0,990)" id="g10">
    <g id="g12">
      <g clip-path="url(#clipPath16)" id="g14">
        <path id="path20" style="fill:none;stroke:#000000;stroke-width:0.14;stroke-linecap:butt;stroke-linejoin:miter;stroke-miterlimit:10;stroke-dasharray:none;stroke-opacity:0" d="m 50.432,295.52 511.18,0 0,201.01 -511.18,0 0,-201.01 z"/>
      </g>
    </g>
    <g id="g22">
      <g clip-path="url(#clipPath26)" id="g24">
        <path id="path30" style="fill:#ffffff;fill-opacity:1;fill-rule:evenodd;stroke:none" d="m 50.432,295.52 511.18,0 0,201.01 -511.18,0 0,-201.01 z"/>
      </g>
    </g>
    <path id="path32" style="fill:#ffc000;fill-opacity:1;fill-rule:evenodd;stroke:none" d="m 125.37,415.2 236.16,0 0,11.133 -236.16,0 0,-11.133 z"/>
    <path id="path34" style="fill:#005aa4;fill-opacity:1;fill-rule:evenodd;stroke:none" d="m 125.37,381.8 156.23,0 0,11.133 -156.23,0 0,-11.133 z"/>
    <path id="path36" style="fill:#ffc000;fill-opacity:1;fill-rule:evenodd;stroke:none" d="m 125.37,331.7 89.621,0 0,11.133 -89.621,0 0,-11.133 z"/>
    <path id="path38" style="fill:#005aa4;fill-opacity:1;fill-rule:nonzero;stroke:none" d="m 525.02,459.78 -399.65,0 0,-11.18 399.65,0 0,11.18 z M 482.68,443 l -357.31,0 0,-11.06 357.31,0 0,11.06 z m -190.19,-33.43 -167.12,0 0,-11.07 167.12,0 0,11.07 z m -10.93,-33.31 -156.19,0 0,-11.19 156.19,0 0,11.19 z m -28.99,-16.78 -127.2,0 0,-11.07 127.2,0 0,11.07 z m -46.02,-33.31 -81.18,0 0,-11.19 81.18,0 0,11.19 z m -36.36,-16.79 -44.82,0 0,-11.06 44.82,0 0,11.06 z"/>
    <g id="g40">
      <g clip-path="url(#clipPath44)" id="g42">
        <path id="path48" style="fill:none;stroke:#808080;stroke-width:1.32430005;stroke-linecap:round;stroke-linejoin:round;stroke-miterlimit:10;stroke-dasharray:none;stroke-opacity:1" d="m 125.37,462.51 0,-166.99"/>
      </g>
    </g>
    <g id="g50">
      <g clip-path="url(#clipPath54)" id="g52"><text id="text58" style="font-variant:normal;font-weight:normal;font-size:9.55200005px;font-family:'Roboto Condensed';-inkscape-font-specification:RobotoCondensed-Regular;writing-mode:lr-tb;fill:#000000;fill-opacity:1;fill-rule:nonzero;stroke:none" transform="matrix(1,0,0,-1,531.46,450.82)"><tspan id="tspan60" y="0" x="0 4.7039881 9.4079762">33%</tspan></text>
</g>
    </g>
    <g id="g62">
      <g clip-path="url(#clipPath66)" id="g64"><text id="text70" style="font-variant:normal;font-weight:normal;font-size:9.55200005px;font-family:'Roboto Condensed';-inkscape-font-specification:RobotoCondensed-Regular;writing-mode:lr-tb;fill:#000000;fill-opacity:1;fill-rule:nonzero;stroke:none" transform="matrix(1,0,0,-1,489.05,434.11)"><tspan id="tspan72" y="0" x="0 4.7039881 9.4079762">30%</tspan></text>
</g>
    </g>
    <g id="g74">
      <g clip-path="url(#clipPath78)" id="g76"><text id="text82" style="font-variant:normal;font-weight:normal;font-size:9.55200005px;font-family:'Roboto Condensed';-inkscape-font-specification:RobotoCondensed-Regular;writing-mode:lr-tb;fill:#000000;fill-opacity:1;fill-rule:nonzero;stroke:none" transform="matrix(1,0,0,-1,367.92,417.41)"><tspan id="tspan84" y="0" x="0 4.7039881 9.4079762">20%</tspan></text>
</g>
    </g>
    <g id="g86">
      <g clip-path="url(#clipPath90)" id="g88"><text id="text94" style="font-variant:normal;font-weight:normal;font-size:9.55200005px;font-family:'Roboto Condensed';-inkscape-font-specification:RobotoCondensed-Regular;writing-mode:lr-tb;fill:#000000;fill-opacity:1;fill-rule:nonzero;stroke:none" transform="matrix(1,0,0,-1,298.87,400.7)"><tspan id="tspan96" y="0" x="0 4.7039881 9.4079762">14%</tspan></text>
</g>
    </g>
    <g id="g98">
      <g clip-path="url(#clipPath102)" id="g100"><text id="text106" style="font-variant:normal;font-weight:normal;font-size:9.52799988px;font-family:'Roboto Condensed';-inkscape-font-specification:RobotoCondensed-Regular;writing-mode:lr-tb;fill:#000000;fill-opacity:1;fill-rule:nonzero;stroke:none" transform="matrix(1,0,0,-1,287.98,384)"><tspan id="tspan108" y="0" x="0 4.7040019 9.4080038">13%</tspan></text>
</g>
    </g>
    <g id="g110">
      <g clip-path="url(#clipPath114)" id="g112"><text id="text118" style="font-variant:normal;font-weight:normal;font-size:9.52799988px;font-family:'Roboto Condensed';-inkscape-font-specification:RobotoCondensed-Regular;writing-mode:lr-tb;fill:#000000;fill-opacity:1;fill-rule:nonzero;stroke:none" transform="matrix(1,0,0,-1,287.98,367.3)"><tspan id="tspan120" y="0" x="0 4.7040019 9.4080038">13%</tspan></text>
</g>
    </g>
    <g id="g122">
      <g clip-path="url(#clipPath126)" id="g124"><text id="text130" style="font-variant:normal;font-weight:normal;font-size:9.52799988px;font-family:'Roboto Condensed';-inkscape-font-specification:RobotoCondensed-Regular;writing-mode:lr-tb;fill:#000000;fill-opacity:1;fill-rule:nonzero;stroke:none" transform="matrix(1,0,0,-1,258.91,350.59)"><tspan id="tspan132" y="0" x="0 4.7040019 9.4080038">11%</tspan></text>
</g>
    </g>
    <g id="g134">
      <g clip-path="url(#clipPath138)" id="g136"><text id="text142" style="font-variant:normal;font-weight:normal;font-size:9.52799988px;font-family:'Roboto Condensed';-inkscape-font-specification:RobotoCondensed-Regular;writing-mode:lr-tb;fill:#000000;fill-opacity:1;fill-rule:nonzero;stroke:none" transform="matrix(1,0,0,-1,221.4,333.89)"><tspan id="tspan144" y="0" x="0 4.7280321">7%</tspan></text>
</g>
    </g>
    <g id="g146">
      <g clip-path="url(#clipPath150)" id="g148"><text id="text154" style="font-variant:normal;font-weight:normal;font-size:9.52799988px;font-family:'Roboto Condensed';-inkscape-font-specification:RobotoCondensed-Regular;writing-mode:lr-tb;fill:#000000;fill-opacity:1;fill-rule:nonzero;stroke:none" transform="matrix(1,0,0,-1,212.93,317.18)"><tspan id="tspan156" y="0" x="0 4.7040019">7%</tspan></text>
</g>
    </g>
    <g id="g158">
      <g clip-path="url(#clipPath162)" id="g160"><text id="text166" style="font-variant:normal;font-weight:normal;font-size:9.52799988px;font-family:'Roboto Condensed';-inkscape-font-specification:RobotoCondensed-Regular;writing-mode:lr-tb;fill:#000000;fill-opacity:1;fill-rule:nonzero;stroke:none" transform="matrix(1,0,0,-1,176.59,300.48)"><tspan id="tspan168" y="0" x="0 4.7040019">4%</tspan></text>
</g>
    </g>
    <g id="g170">
      <g clip-path="url(#clipPath174)" id="g172"><text id="text178" style="font-variant:normal;font-weight:normal;font-size:7.36800003px;font-family:'Roboto Condensed';-inkscape-font-specification:RobotoCondensed-Regular;writing-mode:lr-tb;fill:#000000;fill-opacity:1;fill-rule:nonzero;stroke:none" transform="matrix(1,0,0,-1,121.22,469.8)"><tspan id="tspan180" y="0" x="0 3.6719921">0%</tspan></text>
</g>
    </g>
    <g id="g182">
      <g clip-path="url(#clipPath186)" id="g184"><text id="text190" style="font-variant:normal;font-weight:normal;font-size:7.36800003px;font-family:'Roboto Condensed';-inkscape-font-specification:RobotoCondensed-Regular;writing-mode:lr-tb;fill:#000000;fill-opacity:1;fill-rule:nonzero;stroke:none" transform="matrix(1,0,0,-1,181.78,469.8)"><tspan id="tspan192" y="0" x="0 3.695992">5%</tspan></text>
</g>
    </g>
    <g id="g194">
      <g clip-path="url(#clipPath198)" id="g196"><text id="text202" style="font-variant:normal;font-weight:normal;font-size:7.36800003px;font-family:'Roboto Condensed';-inkscape-font-specification:RobotoCondensed-Regular;writing-mode:lr-tb;fill:#000000;fill-opacity:1;fill-rule:nonzero;stroke:none" transform="matrix(1,0,0,-1,240.53,469.8)"><tspan id="tspan204" y="0" x="0 3.6719921 7.3439841">10%</tspan></text>
</g>
    </g>
    <g id="g206">
      <g clip-path="url(#clipPath210)" id="g208"><text id="text214" style="font-variant:normal;font-weight:normal;font-size:7.36800003px;font-family:'Roboto Condensed';-inkscape-font-specification:RobotoCondensed-Regular;writing-mode:lr-tb;fill:#000000;fill-opacity:1;fill-rule:nonzero;stroke:none" transform="matrix(1,0,0,-1,301.08,469.8)"><tspan id="tspan216" y="0" x="0 3.695992 7.391984">15%</tspan></text>
</g>
    </g>
    <g id="g218">
      <g clip-path="url(#clipPath222)" id="g220"><text id="text226" style="font-variant:normal;font-weight:normal;font-size:7.36800003px;font-family:'Roboto Condensed';-inkscape-font-specification:RobotoCondensed-Regular;writing-mode:lr-tb;fill:#000000;fill-opacity:1;fill-rule:nonzero;stroke:none" transform="matrix(1,0,0,-1,361.66,469.8)"><tspan id="tspan228" y="0" x="0 3.6719921 7.3439841">20%</tspan></text>
</g>
    </g>
    <g id="g230">
      <g clip-path="url(#clipPath234)" id="g232"><text id="text238" style="font-variant:normal;font-weight:normal;font-size:7.36800003px;font-family:'Roboto Condensed';-inkscape-font-specification:RobotoCondensed-Regular;writing-mode:lr-tb;fill:#000000;fill-opacity:1;fill-rule:nonzero;stroke:none" transform="matrix(1,0,0,-1,422.21,469.8)"><tspan id="tspan240" y="0" x="0 3.695992 7.391984">25%</tspan></text>
</g>
    </g>
    <g id="g242">
      <g clip-path="url(#clipPath246)" id="g244"><text id="text250" style="font-variant:normal;font-weight:normal;font-size:7.36800003px;font-family:'Roboto Condensed';-inkscape-font-specification:RobotoCondensed-Regular;writing-mode:lr-tb;fill:#000000;fill-opacity:1;fill-rule:nonzero;stroke:none" transform="matrix(1,0,0,-1,482.78,469.8)"><tspan id="tspan252" y="0" x="0 3.695992 7.391984">30%</tspan></text>
</g>
    </g>
    <g id="g254">
      <g clip-path="url(#clipPath258)" id="g256"><text id="text262" style="font-variant:normal;font-weight:normal;font-size:7.36800003px;font-family:'Roboto Condensed';-inkscape-font-specification:RobotoCondensed-Regular;writing-mode:lr-tb;fill:#000000;fill-opacity:1;fill-rule:nonzero;stroke:none" transform="matrix(1,0,0,-1,543.34,469.8)"><tspan id="tspan264" y="0" x="0 3.695992 7.391984">35%</tspan></text>
</g>
    </g>
    <g id="g266">
      <g clip-path="url(#clipPath270)" id="g268"><text id="text274" style="font-variant:normal;font-weight:normal;font-size:8.52000046px;font-family:'Roboto Condensed';-inkscape-font-specification:RobotoCondensed-Regular;writing-mode:lr-tb;fill:#000000;fill-opacity:1;fill-rule:nonzero;stroke:none" transform="matrix(1,0,0,-1,95.376,451.61)"><tspan id="tspan276" y="0" x="0 4.8649201 6.7648802 10.71816 14.79924 18.76104">Disney</tspan></text>
</g>
    </g>
    <g id="g278">
      <g clip-path="url(#clipPath282)" id="g280"><text id="text286" style="font-variant:normal;font-weight:normal;font-size:8.52000046px;font-family:'Roboto Condensed';-inkscape-font-specification:RobotoCondensed-Regular;writing-mode:lr-tb;fill:#000000;fill-opacity:1;fill-rule:nonzero;stroke:none" transform="matrix(1,0,0,-1,96.288,434.9)"><tspan id="tspan288" y="0" x="0 4.4559598 8.4177599 12.6096 15.15708 17.07408">Sanrio</tspan></text>
</g>
    </g>
    <g id="g290">
      <g clip-path="url(#clipPath294)" id="g292"><text id="text298" style="font-variant:normal;font-weight:normal;font-size:8.52000046px;font-family:'Roboto Condensed';-inkscape-font-specification:RobotoCondensed-Regular;writing-mode:lr-tb;fill:#000000;fill-opacity:1;fill-rule:nonzero;stroke:none" transform="matrix(1,0,0,-1,93.432,418.2)"><tspan id="tspan300" y="0" x="0 5.2057199 9.2868004 13.21452 17.414881 19.96236">Hasbro</tspan></text>
</g>
    </g>
    <g id="g302">
      <g clip-path="url(#clipPath306)" id="g304"><text id="text310" style="font-variant:normal;font-weight:normal;font-size:8.52000046px;font-family:'Roboto Condensed';-inkscape-font-specification:RobotoCondensed-Regular;writing-mode:lr-tb;fill:#000000;fill-opacity:1;fill-rule:nonzero;stroke:none" transform="matrix(1,0,0,-1,76.608,401.5)"><tspan id="tspan312" y="0" x="0 6.49224 10.57332 13.12932 17.2104 21.172199 23.847481 25.764481 30.34824 33.023521 37.223881">Warner Bros</tspan></text>
</g>
    </g>
    <g id="g314">
      <g clip-path="url(#clipPath318)" id="g316"><text id="text322" style="font-variant:normal;font-weight:normal;font-size:8.49600029px;font-family:'Roboto Condensed';-inkscape-font-specification:RobotoCondensed-Regular;writing-mode:lr-tb;fill:#000000;fill-opacity:1;fill-rule:nonzero;stroke:none" transform="matrix(1,0,0,-1,87,384.79)"><tspan id="tspan324" y="0" x="0 4.7067838 8.9038076 13.092336 15.131376 21.494881 25.564465 28.121759">Pop Mart</tspan></text>
</g>
    </g>
    <g id="g326">
      <g clip-path="url(#clipPath330)" id="g328"><text id="text334" style="font-variant:normal;font-weight:normal;font-size:8.52000046px;font-family:'Roboto Condensed';-inkscape-font-specification:RobotoCondensed-Regular;writing-mode:lr-tb;fill:#000000;fill-opacity:1;fill-rule:nonzero;stroke:none" transform="matrix(1,0,0,-1,101.76,368.11)"><tspan id="tspan336" y="0" x="0 4.43892 9.1590004 13.87056">TPCi</tspan></text>
</g>
    </g>
    <g id="g338">
      <g clip-path="url(#clipPath342)" id="g340"><text id="text346" style="font-variant:normal;font-weight:normal;font-size:8.52000046px;font-family:'Roboto Condensed';-inkscape-font-specification:RobotoCondensed-Regular;writing-mode:lr-tb;fill:#000000;fill-opacity:1;fill-rule:nonzero;stroke:none" transform="matrix(1,0,0,-1,64.464,351.41)"><tspan id="tspan348" y="0" x="0 4.8308401 8.87784 10.7778 14.96964 18.90588 20.916599 24.85284 26.86356 29.266199 33.313202 35.86068 39.941761 42.31884 46.510681 49.058159">China Literature</tspan></text>
</g>
    </g>
    <g id="g350">
      <g clip-path="url(#clipPath354)" id="g352"><text id="text358" style="font-variant:normal;font-weight:normal;font-size:8.52000046px;font-family:'Roboto Condensed';-inkscape-font-specification:RobotoCondensed-Regular;writing-mode:lr-tb;fill:#000000;fill-opacity:1;fill-rule:nonzero;stroke:none" transform="matrix(1,0,0,-1,96.24,334.7)"><tspan id="tspan360" y="0" x="0 6.3559198 10.437 12.96744 15.5064 19.44264">Mattel</tspan></text>
</g>
    </g>
    <g id="g362">
      <g clip-path="url(#clipPath366)" id="g364"><text id="text370" style="font-variant:normal;font-weight:normal;font-size:8.52000046px;font-family:'Roboto Condensed';-inkscape-font-specification:RobotoCondensed-Regular;writing-mode:lr-tb;fill:#000000;fill-opacity:1;fill-rule:nonzero;stroke:none" transform="matrix(1,0,0,-1,87.288,318)"><tspan id="tspan372" y="0" x="0 5.2312799 7.2590399 11.34012 13.87908 17.840879 21.921961 26.12232">Nintendo</tspan></text>
</g>
    </g>
    <g id="g374">
      <g clip-path="url(#clipPath378)" id="g376"><text id="text382" style="font-variant:normal;font-weight:normal;font-size:8.52000046px;font-family:'Roboto Condensed';-inkscape-font-specification:RobotoCondensed-Regular;writing-mode:lr-tb;fill:#000000;fill-opacity:1;fill-rule:nonzero;stroke:none" transform="matrix(1,0,0,-1,52.464,301.3)"><tspan id="tspan384" y="0" x="0 6.3559198 11.43384 16.256161 18.15612 22.467239 26.52276 29.06172 32.997959 35.545441 38.0844 42.165482 44.039879 48.095402 54.451321 58.498322 62.553841">MGA Entertainment</tspan></text>
</g>
    </g>
    <g id="g386">
      <g clip-path="url(#clipPath390)" id="g388"><text id="text394" style="font-variant:normal;font-weight:bold;font-size:11.44799995px;font-family:'Roboto Condensed';-inkscape-font-specification:RobotoCondensed-Bold;writing-mode:lr-tb;fill:#000000;fill-opacity:1;fill-rule:nonzero;stroke:none" transform="matrix(1,0,0,-1,160.85,483.65)"><tspan id="tspan396" y="0" x="0 6.479568 12.066192 14.985432 20.572056 25.92972 29.066471 31.745304 38.224873 43.925976 46.856663 49.775906 55.259495 60.456886 63.99432 66.913559 72.614662 75.533905 81.017494 83.547501 88.99675 92.820381 98.178047 103.76467 108.97351 114.56013 117.47938 122.67677 128.16035 133.35776">China: Collectible Franchises </tspan></text>
</g>
    </g>
    <g id="g398">
      <g clip-path="url(#clipPath402)" id="g400"><text id="text406" style="font-variant:normal;font-weight:bold;font-size:11.44799995px;font-family:'Roboto Condensed';-inkscape-font-specification:RobotoCondensed-Bold;writing-mode:lr-tb;fill:#000000;fill-opacity:1;fill-rule:nonzero;stroke:none" transform="matrix(1,0,0,-1,297.02,483.65)"><tspan id="tspan408" y="0" x="0 5.6209679 10.70388 16.187471 19.988209 22.66704 29.180952 34.81337 38.614105 43.834393 49.466808 54.801575 60.021866 65.505455">Ever Purchased</tspan></text>
</g>
    </g>
    <path id="path410" style="fill:#000000;fill-opacity:1;fill-rule:evenodd;stroke:none" d="m 296.98,482.29 71.067,0 0,0.50851 -71.067,0 0,-0.50851 z"/>
    <g id="g412">
      <g clip-path="url(#clipPath416)" id="g414"><text id="text420" style="font-variant:normal;font-weight:bold;font-size:11.44799995px;font-family:'Roboto Condensed';-inkscape-font-specification:RobotoCondensed-Bold;writing-mode:lr-tb;fill:#000000;fill-opacity:1;fill-rule:nonzero;stroke:none" transform="matrix(1,0,0,-1,370.92,483.65)"><tspan id="tspan422" y="0" x="0 3.6977041 10.53216 19.026575 24.762024 30.348648 36.061199 38.694241 44.910503 50.64595 54.183384 59.506702 62.425945 64.9674 71.149323 76.541328 85.035744 90.736847 93.65609 99.105339">(Among Total Sample)</tspan></text>
</g>
    </g>
  </g>
</svg>
