<?xml version="1.0" encoding="UTF-8" standalone="no"?>
<svg xmlns:dc="http://purl.org/dc/elements/1.1/" xmlns:cc="http://creativecommons.org/ns#" xmlns:rdf="http://www.w3.org/1999/02/22-rdf-syntax-ns#" xmlns:svg="http://www.w3.org/2000/svg" xmlns="http://www.w3.org/2000/svg" viewBox="15.6 14.4 327.5125 186.86372" height="186.86372" width="327.5125" xml:space="preserve" version="1.1" id="svg2">
  <metadata id="metadata8">
    <rdf:RDF>
      <cc:Work rdf:about="">
        <dc:format>image/svg+xml</dc:format>
        <dc:type rdf:resource="http://purl.org/dc/dcmitype/StillImage"/>
      </cc:Work>
    </rdf:RDF>
  </metadata>
  <defs id="defs6">
    <clipPath id="clipPath16" clipPathUnits="userSpaceOnUse">
      <path style="clip-rule:evenodd" id="path18" d="m 13.44,567.48 261.98,0 0,32.04 -261.98,0 0,-32.04 z"/>
    </clipPath>
    <clipPath id="clipPath28" clipPathUnits="userSpaceOnUse">
      <path style="clip-rule:evenodd" id="path30" d="m 13.44,436.9 261.98,0 0,162.62 -261.98,0 0,-162.62 z"/>
    </clipPath>
    <clipPath id="clipPath40" clipPathUnits="userSpaceOnUse">
      <path style="clip-rule:evenodd" id="path42" d="m 13.44,529.06 261.98,0 0,9.24 -261.98,0 0,-9.24 z"/>
    </clipPath>
    <clipPath id="clipPath52" clipPathUnits="userSpaceOnUse">
      <path style="clip-rule:evenodd" id="path54" d="m 13.44,451.06 261.98,0 0,13.44 -261.98,0 0,-13.44 z"/>
    </clipPath>
    <clipPath id="clipPath64" clipPathUnits="userSpaceOnUse">
      <path style="clip-rule:evenodd" id="path66" d="m 12.48,436.92 262.92,0 0,163.56 -262.92,0 0,-163.56 z"/>
    </clipPath>
    <clipPath id="clipPath74" clipPathUnits="userSpaceOnUse">
      <path style="clip-rule:evenodd" id="path76" d="m 12.48,436.92 262.92,0 0,163.56 -262.92,0 0,-163.56 z"/>
    </clipPath>
    <clipPath id="clipPath88" clipPathUnits="userSpaceOnUse">
      <path style="clip-rule:evenodd" id="path90" d="m 18.84,477.12 249.84,0 0,102 -249.84,0 0,-102 z"/>
    </clipPath>
    <clipPath id="clipPath100" clipPathUnits="userSpaceOnUse">
      <path style="clip-rule:evenodd" id="path102" d="m 12.48,557.16 45.48,0 0,12.72 -45.48,0 0,-12.72 z"/>
    </clipPath>
    <clipPath id="clipPath112" clipPathUnits="userSpaceOnUse">
      <path style="clip-rule:evenodd" id="path114" d="m 25.2,557.16 55.32,0 0,12.72 -55.32,0 0,-12.72 z"/>
    </clipPath>
    <clipPath id="clipPath124" clipPathUnits="userSpaceOnUse">
      <path style="clip-rule:evenodd" id="path126" d="m 47.76,545.88 55.44,0 0,12.72 -55.44,0 0,-12.72 z"/>
    </clipPath>
    <clipPath id="clipPath136" clipPathUnits="userSpaceOnUse">
      <path style="clip-rule:evenodd" id="path138" d="m 70.44,557.16 55.44,0 0,12.72 -55.44,0 0,-12.72 z"/>
    </clipPath>
    <clipPath id="clipPath148" clipPathUnits="userSpaceOnUse">
      <path style="clip-rule:evenodd" id="path150" d="m 93.12,574.08 55.44,0 0,12.72 -55.44,0 0,-12.72 z"/>
    </clipPath>
    <clipPath id="clipPath160" clipPathUnits="userSpaceOnUse">
      <path style="clip-rule:evenodd" id="path162" d="m 115.8,545.88 55.32,0 0,12.72 -55.32,0 0,-12.72 z"/>
    </clipPath>
    <clipPath id="clipPath172" clipPathUnits="userSpaceOnUse">
      <path style="clip-rule:evenodd" id="path174" d="m 138.36,557.16 55.44,0 0,12.72 -55.44,0 0,-12.72 z"/>
    </clipPath>
    <clipPath id="clipPath184" clipPathUnits="userSpaceOnUse">
      <path style="clip-rule:evenodd" id="path186" d="m 161.04,551.52 55.44,0 0,12.72 -55.44,0 0,-12.72 z"/>
    </clipPath>
    <clipPath id="clipPath196" clipPathUnits="userSpaceOnUse">
      <path style="clip-rule:evenodd" id="path198" d="m 197.52,529.08 27.72,0 0,12.72 -27.72,0 0,-12.72 z"/>
    </clipPath>
    <clipPath id="clipPath208" clipPathUnits="userSpaceOnUse">
      <path style="clip-rule:evenodd" id="path210" d="m 206.28,579.6 55.44,0 0,12.72 -55.44,0 0,-12.72 z"/>
    </clipPath>
    <clipPath id="clipPath220" clipPathUnits="userSpaceOnUse">
      <path style="clip-rule:evenodd" id="path222" d="m 242.76,506.52 27.84,0 0,12.72 -27.84,0 0,-12.72 z"/>
    </clipPath>
    <clipPath id="clipPath232" clipPathUnits="userSpaceOnUse">
      <path style="clip-rule:evenodd" id="path234" d="m 12.48,436.92 262.92,0 0,163.56 -262.92,0 0,-163.56 z"/>
    </clipPath>
    <clipPath id="clipPath244" clipPathUnits="userSpaceOnUse">
      <path style="clip-rule:evenodd" id="path246" d="m 12.48,436.92 262.92,0 0,163.56 -262.92,0 0,-163.56 z"/>
    </clipPath>
    <clipPath id="clipPath256" clipPathUnits="userSpaceOnUse">
      <path style="clip-rule:evenodd" id="path258" d="m 12.48,436.92 262.92,0 0,163.56 -262.92,0 0,-163.56 z"/>
    </clipPath>
    <clipPath id="clipPath268" clipPathUnits="userSpaceOnUse">
      <path style="clip-rule:evenodd" id="path270" d="m 12.48,436.92 262.92,0 0,163.56 -262.92,0 0,-163.56 z"/>
    </clipPath>
    <clipPath id="clipPath280" clipPathUnits="userSpaceOnUse">
      <path style="clip-rule:evenodd" id="path282" d="m 12.48,436.92 262.92,0 0,163.56 -262.92,0 0,-163.56 z"/>
    </clipPath>
    <clipPath id="clipPath292" clipPathUnits="userSpaceOnUse">
      <path style="clip-rule:evenodd" id="path294" d="m 12.48,436.92 262.92,0 0,163.56 -262.92,0 0,-163.56 z"/>
    </clipPath>
    <clipPath id="clipPath304" clipPathUnits="userSpaceOnUse">
      <path style="clip-rule:evenodd" id="path306" d="m 12.48,436.92 262.92,0 0,163.56 -262.92,0 0,-163.56 z"/>
    </clipPath>
    <clipPath id="clipPath316" clipPathUnits="userSpaceOnUse">
      <path style="clip-rule:evenodd" id="path318" d="m 12.48,436.92 262.92,0 0,163.56 -262.92,0 0,-163.56 z"/>
    </clipPath>
    <clipPath id="clipPath328" clipPathUnits="userSpaceOnUse">
      <path style="clip-rule:evenodd" id="path330" d="m 12.48,436.92 262.92,0 0,163.56 -262.92,0 0,-163.56 z"/>
    </clipPath>
    <clipPath id="clipPath340" clipPathUnits="userSpaceOnUse">
      <path style="clip-rule:evenodd" id="path342" d="m 12.48,436.92 262.92,0 0,163.56 -262.92,0 0,-163.56 z"/>
    </clipPath>
    <clipPath id="clipPath352" clipPathUnits="userSpaceOnUse">
      <path style="clip-rule:evenodd" id="path354" d="m 12.48,436.92 262.92,0 0,163.56 -262.92,0 0,-163.56 z"/>
    </clipPath>
  </defs>
  <g transform="matrix(1.25,0,0,-1.25,0,765)" id="g10">
    <g id="g12">
      <g clip-path="url(#clipPath16)" id="g14"><text id="text20" style="font-variant:normal;font-weight:bold;font-size:26.04000092px;font-family:'Roboto Condensed';-inkscape-font-specification:RobotoCondensed-Bold;writing-mode:lr-tb;fill:#000000;fill-opacity:1;fill-rule:nonzero;stroke:none" transform="matrix(1,0,0,-1,321.29,575.04)"><tspan id="tspan22" y="0" x="0 12.39504 18.957121 32.055241 44.86692 53.512199 65.985359 71.974564 85.150803 98.327042 105.90468 111.89388 127.54392 134.106 140.66808 150.19872 158.19299 164.80716 184.12885 196.60201 202.5912 215.40288 222.01704 235.11516 247.92683 253.91605 266.72772 279.5394 298.86108 311.75089 324.22403 332.86932 338.85852 351.82645 360.36755 366.35675 374.35104 382.99631 395.26117 408.22906 414.79117 422.83752 429.3996 442.36752 455.1792 467.44403 474.00613 480.04739 492.31223 504.1344 516.00867 528.48181 536.47607 542.46527 561.78699 574.05182 586.86346 599.1283 612.22644 624.69958 633.34491 639.33411 658.65576 671.12891 679.77417 692.87231 705.34546 713.99078 725.81293 731.85419 738.41626 751.22797 757.21716 770.4715 783.64777 796.82397 810.00024">Figure 31. All-time high number of traditional asset manager mergers in 2024 </tspan></text>
</g>
    </g>
    <g id="g24">
      <g clip-path="url(#clipPath28)" id="g26"><text id="text32" style="font-variant:normal;font-weight:bold;font-size:14.03999996px;font-family:'Roboto Condensed';-inkscape-font-specification:RobotoCondensed-Bold;writing-mode:lr-tb;fill:#000000;fill-opacity:1;fill-rule:nonzero;stroke:none" transform="matrix(1,0,0,-1,319.73,553.06)"><tspan id="tspan34" y="0" x="0 8.6205597 15.57036 25.988041 32.93784 39.662998 44.35236 47.581558 54.573479 59.108398 62.337601 66.647881 71.309158 77.921997 84.899879 91.27404 97.886879 104.34528 108.65556 112.13748 119.1294 126.03708 132.41124 135.64044 139.17851 146.0862 152.44632 159.43823 162.89207 169.23816 172.72008 179.66988 186.73199 189.9612 194.27148 203.1588 210.15073 213.37991 217.6902 222.35149 228.96432 235.92816 239.46625 243.77652 247.23036 254.22227 261.12997 267.7428 271.22473 274.45392 281.06677 287.44092 293.81509 300.54025 304.85052 308.07971 318.49741 325.11023 332.04599 338.65884 345.72095 352.44611 362.8638 369.58896 376.5528 380.86307 384.09229 391.04208 398.01996 404.39413 407.862 414.8118 421.53696 427.91113 434.28528 441.01044 447.32843 450.55765 457.50745 463.76929 466.99847 473.26031 479.98547 486.59833 491.25961 494.4888 501.48071 506.00159 509.2308 515.68921 519.22729 526.16302 532.53717 536.00507 542.9549 550.01703">Number of transactions involving two traditional asset management businesses by year of closing </tspan></text>
</g>
    </g>
    <g id="g36">
      <g clip-path="url(#clipPath40)" id="g38"><text id="text44" style="font-variant:normal;font-weight:normal;font-size:8.03999996px;font-family:'Roboto Condensed';-inkscape-font-specification:RobotoCondensed-Regular;writing-mode:lr-tb;fill:#000000;fill-opacity:1;fill-rule:nonzero;stroke:none" transform="matrix(1,0,0,-1,319.01,530.86)"><tspan id="tspan46" y="0" x="0 4.1888399 8.2570801 12.1002 14.50416 18.218639 21.94116 25.65564 27.56916 29.370119 33.928799 37.651321 41.50248 43.287361 47.355598 51.319321 53.11224 56.826721 58.402561 60.19548 64.995361 66.796318 68.597282 72.070557 75.793083 78.197037 79.998001 86.124481 89.477158 95.474998 99.326157 103.1532 104.95416 108.80532 112.63236 116.48352 118.2684 121.62108 125.3436 127.14456 130.85904">Sources: Dealogic, Oliver Wyman analysis.</tspan></text>
</g>
    </g>
    <g id="g48">
      <g clip-path="url(#clipPath52)" id="g50"><text id="text56" style="font-variant:normal;font-weight:normal;font-size:11.03999996px;font-family:'Roboto Condensed';-inkscape-font-specification:RobotoCondensed-Regular;writing-mode:lr-tb;fill:#000000;fill-opacity:1;fill-rule:nonzero;stroke:none" transform="matrix(1,0,0,-1,319.37,454.54)"><tspan id="tspan58" y="0" x="0 5.7518401 10.91856 14.27472 16.802879 21.969601 27.003839 29.532">Series 1</tspan></text>
</g>
    </g>
    <g id="g60">
      <g clip-path="url(#clipPath64)" id="g62">
        <path id="path68" style="fill:none;stroke:#000000;stroke-width:0.14;stroke-linecap:butt;stroke-linejoin:miter;stroke-miterlimit:10;stroke-dasharray:none;stroke-opacity:0" d="m 12.48,463.23 261.94,0 0,137.25 -261.94,0 0,-137.25 z"/>
      </g>
    </g>
    <g id="g70">
      <g clip-path="url(#clipPath74)" id="g72">
        <path id="path78" style="fill:#ffffff;fill-opacity:1;fill-rule:evenodd;stroke:none" d="m 12.48,463.23 261.94,0 0,137.25 -261.94,0 0,-137.25 z"/>
      </g>
    </g>
    <path id="path80" style="fill:#ffffff;fill-opacity:1;fill-rule:evenodd;stroke:none" d="m 18.893,477.85 249.12,0 0,101.25 -249.12,0 0,-101.25 z"/>
    <path id="path82" style="fill:#005aa4;fill-opacity:1;fill-rule:nonzero;stroke:none" d="m 20.76,556.56 18.84,0 0,-78.71 -18.84,0 0,78.71 z m 22.68,0 18.84,0 0,-78.71 -18.84,0 0,78.71 z m 22.68,-11.16 18.84,0 0,-67.55 -18.84,0 0,67.55 z m 22.56,11.16 18.96,0 0,-78.71 -18.96,0 0,78.71 z m 22.68,16.92 18.84,0 0,-95.63 -18.84,0 0,95.63 z m 22.68,-28.08 18.84,0 0,-67.55 -18.84,0 0,67.55 z m 22.68,11.16 18.84,0 0,-78.71 -18.84,0 0,78.71 z m 22.56,-5.64 18.96,0 0,-73.07 -18.96,0 0,73.07 z m 22.68,-22.44 18.84,0 0,-50.63 -18.84,0 0,50.63 z m 22.68,50.62 18.84,0 0,-101.25 -18.84,0 0,101.25 z m 22.56,-73.18 18.96,0 0,-28.07 -18.96,0 0,28.07 z"/>
    <g id="g84">
      <g clip-path="url(#clipPath88)" id="g86">
        <path id="path92" style="fill:none;stroke:#ffffff;stroke-width:0.75;stroke-linecap:butt;stroke-linejoin:round;stroke-miterlimit:10;stroke-dasharray:none;stroke-opacity:1" d="m 20.76,556.56 18.84,0 0,-78.71 -18.84,0 0,78.71 z m 22.68,0 18.84,0 0,-78.71 -18.84,0 0,78.71 z m 22.68,-11.16 18.84,0 0,-67.55 -18.84,0 0,67.55 z m 22.56,11.16 18.96,0 0,-78.71 -18.96,0 0,78.71 z m 22.68,16.92 18.84,0 0,-95.63 -18.84,0 0,95.63 z m 22.68,-28.08 18.84,0 0,-67.55 -18.84,0 0,67.55 z m 22.68,11.16 18.84,0 0,-78.71 -18.84,0 0,78.71 z m 22.56,-5.64 18.96,0 0,-73.07 -18.96,0 0,73.07 z m 22.68,-22.44 18.84,0 0,-50.63 -18.84,0 0,50.63 z m 22.68,50.62 18.84,0 0,-101.25 -18.84,0 0,101.25 z m 22.56,-73.18 18.96,0 0,-28.07 -18.96,0 0,28.07 z"/>
      </g>
    </g>
    <path id="path94" style="fill:none;stroke:#000000;stroke-width:0.75;stroke-linecap:butt;stroke-linejoin:round;stroke-miterlimit:10;stroke-dasharray:none;stroke-opacity:1" d="m 18.893,477.85 249.117,0"/>
    <g id="g96">
      <g clip-path="url(#clipPath100)" id="g98"><text id="text104" style="font-variant:normal;font-weight:normal;font-size:8.03999996px;font-family:'Roboto Condensed';-inkscape-font-specification:RobotoCondensed-Regular;writing-mode:lr-tb;fill:#000000;fill-opacity:1;fill-rule:nonzero;stroke:none" transform="matrix(1,0,0,-1,26.28,560.71)"><tspan id="tspan106" y="0" x="0 3.95996">14</tspan></text>
</g>
    </g>
    <g id="g108">
      <g clip-path="url(#clipPath112)" id="g110"><text id="text116" style="font-variant:normal;font-weight:normal;font-size:8.03999996px;font-family:'Roboto Condensed';-inkscape-font-specification:RobotoCondensed-Regular;writing-mode:lr-tb;fill:#000000;fill-opacity:1;fill-rule:nonzero;stroke:none" transform="matrix(1,0,0,-1,48.912,560.71)"><tspan id="tspan118" y="0" x="0 3.95996">14</tspan></text>
</g>
    </g>
    <g id="g120">
      <g clip-path="url(#clipPath124)" id="g122"><text id="text128" style="font-variant:normal;font-weight:normal;font-size:8.03999996px;font-family:'Roboto Condensed';-inkscape-font-specification:RobotoCondensed-Regular;writing-mode:lr-tb;fill:#000000;fill-opacity:1;fill-rule:nonzero;stroke:none" transform="matrix(1,0,0,-1,71.568,549.46)"><tspan id="tspan130" y="0" x="0 3.95996">12</tspan></text>
</g>
    </g>
    <g id="g132">
      <g clip-path="url(#clipPath136)" id="g134"><text id="text140" style="font-variant:normal;font-weight:normal;font-size:8.03999996px;font-family:'Roboto Condensed';-inkscape-font-specification:RobotoCondensed-Regular;writing-mode:lr-tb;fill:#000000;fill-opacity:1;fill-rule:nonzero;stroke:none" transform="matrix(1,0,0,-1,94.224,560.71)"><tspan id="tspan142" y="0" x="0 3.95996">14</tspan></text>
</g>
    </g>
    <g id="g144">
      <g clip-path="url(#clipPath148)" id="g146"><text id="text152" style="font-variant:normal;font-weight:normal;font-size:8.03999996px;font-family:'Roboto Condensed';-inkscape-font-specification:RobotoCondensed-Regular;writing-mode:lr-tb;fill:#000000;fill-opacity:1;fill-rule:nonzero;stroke:none" transform="matrix(1,0,0,-1,116.88,577.66)"><tspan id="tspan154" y="0" x="0 3.95996">17</tspan></text>
</g>
    </g>
    <g id="g156">
      <g clip-path="url(#clipPath160)" id="g158"><text id="text164" style="font-variant:normal;font-weight:normal;font-size:8.03999996px;font-family:'Roboto Condensed';-inkscape-font-specification:RobotoCondensed-Regular;writing-mode:lr-tb;fill:#000000;fill-opacity:1;fill-rule:nonzero;stroke:none" transform="matrix(1,0,0,-1,139.51,549.46)"><tspan id="tspan166" y="0" x="0 3.95996">12</tspan></text>
</g>
    </g>
    <g id="g168">
      <g clip-path="url(#clipPath172)" id="g170"><text id="text176" style="font-variant:normal;font-weight:normal;font-size:8.03999996px;font-family:'Roboto Condensed';-inkscape-font-specification:RobotoCondensed-Regular;writing-mode:lr-tb;fill:#000000;fill-opacity:1;fill-rule:nonzero;stroke:none" transform="matrix(1,0,0,-1,162.17,560.71)"><tspan id="tspan178" y="0" x="0 3.95996">14</tspan></text>
</g>
    </g>
    <g id="g180">
      <g clip-path="url(#clipPath184)" id="g182"><text id="text188" style="font-variant:normal;font-weight:normal;font-size:8.03999996px;font-family:'Roboto Condensed';-inkscape-font-specification:RobotoCondensed-Regular;writing-mode:lr-tb;fill:#000000;fill-opacity:1;fill-rule:nonzero;stroke:none" transform="matrix(1,0,0,-1,184.82,555.14)"><tspan id="tspan190" y="0" x="0 3.95996">13</tspan></text>
</g>
    </g>
    <g id="g192">
      <g clip-path="url(#clipPath196)" id="g194"><text id="text200" style="font-variant:normal;font-weight:normal;font-size:8.03999996px;font-family:'Roboto Condensed';-inkscape-font-specification:RobotoCondensed-Regular;writing-mode:lr-tb;fill:#000000;fill-opacity:1;fill-rule:nonzero;stroke:none" transform="matrix(1,0,0,-1,209.45,532.63)"><tspan id="tspan202" y="0" x="0">9</tspan></text>
</g>
    </g>
    <g id="g204">
      <g clip-path="url(#clipPath208)" id="g206"><text id="text212" style="font-variant:normal;font-weight:normal;font-size:8.03999996px;font-family:'Roboto Condensed';-inkscape-font-specification:RobotoCondensed-Regular;writing-mode:lr-tb;fill:#000000;fill-opacity:1;fill-rule:nonzero;stroke:none" transform="matrix(1,0,0,-1,230.11,583.2)"><tspan id="tspan214" y="0" x="0 3.95996">18</tspan></text>
</g>
    </g>
    <g id="g216">
      <g clip-path="url(#clipPath220)" id="g218"><text id="text224" style="font-variant:normal;font-weight:normal;font-size:8.03999996px;font-family:'Roboto Condensed';-inkscape-font-specification:RobotoCondensed-Regular;writing-mode:lr-tb;fill:#000000;fill-opacity:1;fill-rule:nonzero;stroke:none" transform="matrix(1,0,0,-1,254.74,510.14)"><tspan id="tspan226" y="0" x="0">5</tspan></text>
</g>
    </g>
    <g id="g228">
      <g clip-path="url(#clipPath232)" id="g230"><text id="text236" style="font-variant:normal;font-weight:normal;font-size:8.03999996px;font-family:'Roboto Condensed';-inkscape-font-specification:RobotoCondensed-Regular;writing-mode:lr-tb;fill:#000000;fill-opacity:1;fill-rule:nonzero;stroke:none" transform="matrix(-4.4e-8,1,1,4.4e-8,32.4,459.67)"><tspan id="tspan238" y="0" x="0 3.95996 7.91992 11.87988">2015</tspan></text>
</g>
    </g>
    <g id="g240">
      <g clip-path="url(#clipPath244)" id="g242"><text id="text248" style="font-variant:normal;font-weight:normal;font-size:8.03999996px;font-family:'Roboto Condensed';-inkscape-font-specification:RobotoCondensed-Regular;writing-mode:lr-tb;fill:#000000;fill-opacity:1;fill-rule:nonzero;stroke:none" transform="matrix(-4.4e-8,1,1,4.4e-8,55.248,459.67)"><tspan id="tspan250" y="0" x="0 3.95996 7.91992 11.87988">2016</tspan></text>
</g>
    </g>
    <g id="g252">
      <g clip-path="url(#clipPath256)" id="g254"><text id="text260" style="font-variant:normal;font-weight:normal;font-size:8.03999996px;font-family:'Roboto Condensed';-inkscape-font-specification:RobotoCondensed-Regular;writing-mode:lr-tb;fill:#000000;fill-opacity:1;fill-rule:nonzero;stroke:none" transform="matrix(-4.4e-8,1,1,4.4e-8,78.072,459.67)"><tspan id="tspan262" y="0" x="0 3.95996 7.91992 11.87988">2017</tspan></text>
</g>
    </g>
    <g id="g264">
      <g clip-path="url(#clipPath268)" id="g266"><text id="text272" style="font-variant:normal;font-weight:normal;font-size:8.03999996px;font-family:'Roboto Condensed';-inkscape-font-specification:RobotoCondensed-Regular;writing-mode:lr-tb;fill:#000000;fill-opacity:1;fill-rule:nonzero;stroke:none" transform="matrix(-4.4e-8,1,1,4.4e-8,100.82,459.67)"><tspan id="tspan274" y="0" x="0 3.95996 7.91992 11.87988">2018</tspan></text>
</g>
    </g>
    <g id="g276">
      <g clip-path="url(#clipPath280)" id="g278"><text id="text284" style="font-variant:normal;font-weight:normal;font-size:8.03999996px;font-family:'Roboto Condensed';-inkscape-font-specification:RobotoCondensed-Regular;writing-mode:lr-tb;fill:#000000;fill-opacity:1;fill-rule:nonzero;stroke:none" transform="matrix(-4.4e-8,1,1,4.4e-8,123.67,459.67)"><tspan id="tspan286" y="0" x="0 3.95996 7.91992 11.87988">2019</tspan></text>
</g>
    </g>
    <g id="g288">
      <g clip-path="url(#clipPath292)" id="g290"><text id="text296" style="font-variant:normal;font-weight:normal;font-size:8.03999996px;font-family:'Roboto Condensed';-inkscape-font-specification:RobotoCondensed-Regular;writing-mode:lr-tb;fill:#000000;fill-opacity:1;fill-rule:nonzero;stroke:none" transform="matrix(-4.4e-8,1,1,4.4e-8,146.42,459.67)"><tspan id="tspan298" y="0" x="0 3.95996 7.91992 11.87988">2020</tspan></text>
</g>
    </g>
    <g id="g300">
      <g clip-path="url(#clipPath304)" id="g302"><text id="text308" style="font-variant:normal;font-weight:normal;font-size:8.03999996px;font-family:'Roboto Condensed';-inkscape-font-specification:RobotoCondensed-Regular;writing-mode:lr-tb;fill:#000000;fill-opacity:1;fill-rule:nonzero;stroke:none" transform="matrix(-4.4e-8,1,1,4.4e-8,169.25,459.67)"><tspan id="tspan310" y="0" x="0 3.95996 7.91992 11.87988">2021</tspan></text>
</g>
    </g>
    <g id="g312">
      <g clip-path="url(#clipPath316)" id="g314"><text id="text320" style="font-variant:normal;font-weight:normal;font-size:8.03999996px;font-family:'Roboto Condensed';-inkscape-font-specification:RobotoCondensed-Regular;writing-mode:lr-tb;fill:#000000;fill-opacity:1;fill-rule:nonzero;stroke:none" transform="matrix(-4.4e-8,1,1,4.4e-8,192.02,459.67)"><tspan id="tspan322" y="0" x="0 3.95996 7.91992 11.87988">2022</tspan></text>
</g>
    </g>
    <g id="g324">
      <g clip-path="url(#clipPath328)" id="g326"><text id="text332" style="font-variant:normal;font-weight:normal;font-size:8.03999996px;font-family:'Roboto Condensed';-inkscape-font-specification:RobotoCondensed-Regular;writing-mode:lr-tb;fill:#000000;fill-opacity:1;fill-rule:nonzero;stroke:none" transform="matrix(-4.4e-8,1,1,4.4e-8,214.85,459.67)"><tspan id="tspan334" y="0" x="0 3.95996 7.91992 11.87988">2023</tspan></text>
</g>
    </g>
    <g id="g336">
      <g clip-path="url(#clipPath340)" id="g338"><text id="text344" style="font-variant:normal;font-weight:normal;font-size:8.03999996px;font-family:'Roboto Condensed';-inkscape-font-specification:RobotoCondensed-Regular;writing-mode:lr-tb;fill:#000000;fill-opacity:1;fill-rule:nonzero;stroke:none" transform="matrix(-4.4e-8,1,1,4.4e-8,237.67,459.67)"><tspan id="tspan346" y="0" x="0 3.95996 7.91992 11.87988">2024</tspan></text>
</g>
    </g>
    <g id="g348">
      <g clip-path="url(#clipPath352)" id="g350"><text id="text356" style="font-variant:normal;font-weight:normal;font-size:8.03999996px;font-family:'Roboto Condensed';-inkscape-font-specification:RobotoCondensed-Regular;writing-mode:lr-tb;fill:#000000;fill-opacity:1;fill-rule:nonzero;stroke:none" transform="matrix(-4.4e-8,1,1,4.4e-8,259.8,450.62)"><tspan id="tspan358" y="0" x="0 3.97176 7.9435201 11.88312 15.85488 20.87184">2025H1</tspan></text>
</g>
    </g>
  </g>
</svg>
