<?xml version="1.0" encoding="UTF-8" standalone="no"?>
<svg xmlns:dc="http://purl.org/dc/elements/1.1/" xmlns:cc="http://creativecommons.org/ns#" xmlns:rdf="http://www.w3.org/1999/02/22-rdf-syntax-ns#" xmlns:svg="http://www.w3.org/2000/svg" xmlns="http://www.w3.org/2000/svg" viewBox="63.04875 295 639 400.15" height="400.15" width="639" xml:space="preserve" version="1.1" id="svg2">
  <metadata id="metadata8">
    <rdf:RDF>
      <cc:Work rdf:about="">
        <dc:format>image/svg+xml</dc:format>
        <dc:type rdf:resource="http://purl.org/dc/dcmitype/StillImage"/>
      </cc:Work>
    </rdf:RDF>
  </metadata>
  <defs id="defs6">
    <clipPath id="clipPath16" clipPathUnits="userSpaceOnUse">
      <path style="clip-rule:evenodd" id="path18" d="m 50.4,235.92 511.2,0 0,320.28 -511.2,0 0,-320.28 z"/>
    </clipPath>
    <clipPath id="clipPath26" clipPathUnits="userSpaceOnUse">
      <path style="clip-rule:evenodd" id="path28" d="m 50.4,235.92 511.2,0 0,320.28 -511.2,0 0,-320.28 z"/>
    </clipPath>
    <clipPath id="clipPath36" clipPathUnits="userSpaceOnUse">
      <path style="clip-rule:evenodd" id="path38" d="m 50.505,236.04 511.03,0 0,320.12 -511.03,0 0,-320.12 z"/>
    </clipPath>
    <clipPath id="clipPath66" clipPathUnits="userSpaceOnUse">
      <path style="clip-rule:evenodd" id="path68" d="m 50.505,236.04 511.03,0 0,320.12 -511.03,0 0,-320.12 z"/>
    </clipPath>
    <clipPath id="clipPath76" clipPathUnits="userSpaceOnUse">
      <path style="clip-rule:evenodd" id="path78" d="m 50.52,236.04 511.08,0 0,320.04 -511.08,0 0,-320.04 z"/>
    </clipPath>
    <clipPath id="clipPath88" clipPathUnits="userSpaceOnUse">
      <path style="clip-rule:evenodd" id="path90" d="m 50.52,236.04 511.08,0 0,320.04 -511.08,0 0,-320.04 z"/>
    </clipPath>
    <clipPath id="clipPath100" clipPathUnits="userSpaceOnUse">
      <path style="clip-rule:evenodd" id="path102" d="m 50.52,236.04 511.08,0 0,320.04 -511.08,0 0,-320.04 z"/>
    </clipPath>
    <clipPath id="clipPath112" clipPathUnits="userSpaceOnUse">
      <path style="clip-rule:evenodd" id="path114" d="m 50.52,236.04 511.08,0 0,320.04 -511.08,0 0,-320.04 z"/>
    </clipPath>
    <clipPath id="clipPath124" clipPathUnits="userSpaceOnUse">
      <path style="clip-rule:evenodd" id="path126" d="m 50.52,236.04 511.08,0 0,320.04 -511.08,0 0,-320.04 z"/>
    </clipPath>
    <clipPath id="clipPath136" clipPathUnits="userSpaceOnUse">
      <path style="clip-rule:evenodd" id="path138" d="m 50.52,236.04 511.08,0 0,320.04 -511.08,0 0,-320.04 z"/>
    </clipPath>
    <clipPath id="clipPath148" clipPathUnits="userSpaceOnUse">
      <path style="clip-rule:evenodd" id="path150" d="m 50.52,236.04 511.08,0 0,320.04 -511.08,0 0,-320.04 z"/>
    </clipPath>
    <clipPath id="clipPath160" clipPathUnits="userSpaceOnUse">
      <path style="clip-rule:evenodd" id="path162" d="m 50.52,236.04 511.08,0 0,320.04 -511.08,0 0,-320.04 z"/>
    </clipPath>
    <clipPath id="clipPath172" clipPathUnits="userSpaceOnUse">
      <path style="clip-rule:evenodd" id="path174" d="m 50.52,236.04 511.08,0 0,320.04 -511.08,0 0,-320.04 z"/>
    </clipPath>
    <clipPath id="clipPath184" clipPathUnits="userSpaceOnUse">
      <path style="clip-rule:evenodd" id="path186" d="m 50.52,236.04 511.08,0 0,320.04 -511.08,0 0,-320.04 z"/>
    </clipPath>
    <clipPath id="clipPath196" clipPathUnits="userSpaceOnUse">
      <path style="clip-rule:evenodd" id="path198" d="m 50.52,236.04 511.08,0 0,320.04 -511.08,0 0,-320.04 z"/>
    </clipPath>
    <clipPath id="clipPath208" clipPathUnits="userSpaceOnUse">
      <path style="clip-rule:evenodd" id="path210" d="m 50.52,236.04 511.08,0 0,320.04 -511.08,0 0,-320.04 z"/>
    </clipPath>
    <clipPath id="clipPath220" clipPathUnits="userSpaceOnUse">
      <path style="clip-rule:evenodd" id="path222" d="m 50.52,236.04 511.08,0 0,320.04 -511.08,0 0,-320.04 z"/>
    </clipPath>
    <clipPath id="clipPath232" clipPathUnits="userSpaceOnUse">
      <path style="clip-rule:evenodd" id="path234" d="m 50.52,236.04 511.08,0 0,320.04 -511.08,0 0,-320.04 z"/>
    </clipPath>
    <clipPath id="clipPath244" clipPathUnits="userSpaceOnUse">
      <path style="clip-rule:evenodd" id="path246" d="m 50.52,236.04 511.08,0 0,320.04 -511.08,0 0,-320.04 z"/>
    </clipPath>
    <clipPath id="clipPath256" clipPathUnits="userSpaceOnUse">
      <path style="clip-rule:evenodd" id="path258" d="m 50.52,236.04 511.08,0 0,320.04 -511.08,0 0,-320.04 z"/>
    </clipPath>
    <clipPath id="clipPath268" clipPathUnits="userSpaceOnUse">
      <path style="clip-rule:evenodd" id="path270" d="m 50.52,236.04 511.08,0 0,320.04 -511.08,0 0,-320.04 z"/>
    </clipPath>
    <clipPath id="clipPath280" clipPathUnits="userSpaceOnUse">
      <path style="clip-rule:evenodd" id="path282" d="m 50.52,236.04 511.08,0 0,320.04 -511.08,0 0,-320.04 z"/>
    </clipPath>
    <clipPath id="clipPath292" clipPathUnits="userSpaceOnUse">
      <path style="clip-rule:evenodd" id="path294" d="m 50.52,236.04 511.08,0 0,320.04 -511.08,0 0,-320.04 z"/>
    </clipPath>
    <clipPath id="clipPath304" clipPathUnits="userSpaceOnUse">
      <path style="clip-rule:evenodd" id="path306" d="m 50.52,236.04 511.08,0 0,320.04 -511.08,0 0,-320.04 z"/>
    </clipPath>
    <clipPath id="clipPath316" clipPathUnits="userSpaceOnUse">
      <path style="clip-rule:evenodd" id="path318" d="m 50.52,236.04 511.08,0 0,320.04 -511.08,0 0,-320.04 z"/>
    </clipPath>
    <clipPath id="clipPath328" clipPathUnits="userSpaceOnUse">
      <path style="clip-rule:evenodd" id="path330" d="m 50.52,236.04 511.08,0 0,320.04 -511.08,0 0,-320.04 z"/>
    </clipPath>
    <clipPath id="clipPath340" clipPathUnits="userSpaceOnUse">
      <path style="clip-rule:evenodd" id="path342" d="m 50.52,236.04 511.08,0 0,320.04 -511.08,0 0,-320.04 z"/>
    </clipPath>
    <clipPath id="clipPath352" clipPathUnits="userSpaceOnUse">
      <path style="clip-rule:evenodd" id="path354" d="m 50.52,236.04 511.08,0 0,320.04 -511.08,0 0,-320.04 z"/>
    </clipPath>
    <clipPath id="clipPath364" clipPathUnits="userSpaceOnUse">
      <path style="clip-rule:evenodd" id="path366" d="m 50.52,236.04 511.08,0 0,320.04 -511.08,0 0,-320.04 z"/>
    </clipPath>
    <clipPath id="clipPath376" clipPathUnits="userSpaceOnUse">
      <path style="clip-rule:evenodd" id="path378" d="m 50.52,236.04 511.08,0 0,320.04 -511.08,0 0,-320.04 z"/>
    </clipPath>
    <clipPath id="clipPath388" clipPathUnits="userSpaceOnUse">
      <path style="clip-rule:evenodd" id="path390" d="m 50.52,236.04 511.08,0 0,320.04 -511.08,0 0,-320.04 z"/>
    </clipPath>
    <clipPath id="clipPath400" clipPathUnits="userSpaceOnUse">
      <path style="clip-rule:evenodd" id="path402" d="m 50.52,236.04 511.08,0 0,320.04 -511.08,0 0,-320.04 z"/>
    </clipPath>
  </defs>
  <g transform="matrix(1.25,0,0,-1.25,0,990)" id="g10">
    <g id="g12">
      <g clip-path="url(#clipPath16)" id="g14">
        <path id="path20" style="fill:none;stroke:#000000;stroke-width:0.14;stroke-linecap:butt;stroke-linejoin:miter;stroke-miterlimit:10;stroke-dasharray:none;stroke-opacity:0" d="m 50.509,236.01 511.18,0 0,319.98 -511.18,0 0,-319.98 z"/>
      </g>
    </g>
    <g id="g22">
      <g clip-path="url(#clipPath26)" id="g24">
        <path id="path30" style="fill:#ffffff;fill-opacity:1;fill-rule:evenodd;stroke:none" d="m 50.51,236.01 511.18,0 0,319.98 -511.18,0 0,-319.98 z"/>
      </g>
    </g>
    <g id="g32">
      <g clip-path="url(#clipPath36)" id="g34">
        <path id="path40" style="fill:none;stroke:#d9d9d9;stroke-width:1.0711;stroke-linecap:butt;stroke-linejoin:round;stroke-miterlimit:10;stroke-dasharray:none;stroke-opacity:1" d="m 98.179,342.64 463.511,0 m -463.511,29.13 463.511,0 m -463.511,29.3 463.511,0 m -463.511,29.14 463.511,0 m -463.511,58.43 463.511,0 m -463.511,29.13 463.511,0"/>
      </g>
    </g>
    <path id="path42" style="fill:#226b5a;fill-opacity:1;fill-rule:evenodd;stroke:none" d="m 358.43,459.39 12.527,0 0,20.82 -12.527,0 0,-20.82 z"/>
    <path id="path44" style="fill:#226b5a;fill-opacity:1;fill-rule:evenodd;stroke:none" d="m 381.61,459.39 12.527,0 0,5.4998 -12.527,0 0,-5.4998 z"/>
    <path id="path46" style="fill:#226b5a;fill-opacity:1;fill-rule:evenodd;stroke:none" d="m 404.79,451.7 12.527,0 0,7.6939 -12.527,0 0,-7.6939 z"/>
    <path id="path48" style="fill:#226b5a;fill-opacity:1;fill-rule:evenodd;stroke:none" d="m 427.96,451.26 12.527,0 0,8.1327 -12.527,0 0,-8.1327 z"/>
    <path id="path50" style="fill:#226b5a;fill-opacity:1;fill-rule:evenodd;stroke:none" d="m 451.14,449.7 12.527,0 0,9.6962 -12.527,0 0,-9.6962 z"/>
    <path id="path52" style="fill:#226b5a;fill-opacity:1;fill-rule:evenodd;stroke:none" d="m 474.31,378.16 12.527,0 0,81.231 -12.527,0 0,-81.231 z"/>
    <path id="path54" style="fill:#873246;fill-opacity:1;fill-rule:evenodd;stroke:none" d="m 497.49,459.39 12.527,0 0,46.34 -12.527,0 0,-46.34 z"/>
    <path id="path56" style="fill:#873246;fill-opacity:1;fill-rule:evenodd;stroke:none" d="m 520.66,459.39 12.527,0 0,39.069 -12.527,0 0,-39.069 z"/>
    <path id="path58" style="fill:#873246;fill-opacity:1;fill-rule:evenodd;stroke:none" d="m 543.84,433.67 12.527,0 0,25.722 -12.527,0 0,-25.722 z"/>
    <path id="path60" style="fill:#005aa4;fill-opacity:1;fill-rule:nonzero;stroke:none" d="m 103.46,501.33 12.51,0 0,-41.99 -12.51,0 0,41.99 z m 23.13,-15.08 12.69,0 0,-26.91 -12.69,0 0,26.91 z m 23.31,-5.66 12.51,0 0,-21.25 -12.51,0 0,21.25 z m 23.14,-3.77 12.51,0 0,-17.48 -12.51,0 0,17.48 z m 23.13,-17.31 12.51,0 0,-0.17 -12.51,0 0,0.17 z m 23.14,-1.37 12.68,0 0,1.2 -12.68,0 0,-1.2 z m 23.3,-8.74 12.51,0 0,9.94 -12.51,0 0,-9.94 z m 23.14,-4.8 12.51,0 0,14.74 -12.51,0 0,-14.74 z m 23.13,-1.54 12.51,0 0,16.28 -12.51,0 0,-16.28 z m 23.14,-3.6 12.51,0 0,19.88 -12.51,0 0,-19.88 z m 23.3,-62.72 12.51,0 0,82.6 -12.51,0 0,-82.6 z"/>
    <g id="g62">
      <g clip-path="url(#clipPath66)" id="g64">
        <path id="path70" style="fill:none;stroke:#000000;stroke-width:1.0711;stroke-linecap:butt;stroke-linejoin:round;stroke-miterlimit:10;stroke-dasharray:none;stroke-opacity:1" d="m 98.179,459.39 463.511,0"/>
      </g>
    </g>
    <g id="g72">
      <g clip-path="url(#clipPath76)" id="g74"><text id="text80" style="font-variant:normal;font-weight:normal;font-size:12.86400032px;font-family:'Roboto Condensed';-inkscape-font-specification:RobotoCondensed-Regular;writing-mode:lr-tb;fill:#000000;fill-opacity:1;fill-rule:nonzero;stroke:none" transform="matrix(1,0,0,-1,52.656,338.76)"><tspan id="tspan82" y="0" x="0 3.2545919 9.6094084 12.876864 19.23168 25.586496">-0.20%</tspan></text>
</g>
    </g>
    <g id="g84">
      <g clip-path="url(#clipPath88)" id="g86"><text id="text92" style="font-variant:normal;font-weight:normal;font-size:12.84000015px;font-family:'Roboto Condensed';-inkscape-font-specification:RobotoCondensed-Regular;writing-mode:lr-tb;fill:#000000;fill-opacity:1;fill-rule:nonzero;stroke:none" transform="matrix(1,0,0,-1,52.656,367.94)"><tspan id="tspan94" y="0" x="0 3.2485199 9.5914803 12.87852 19.221479 25.56444">-0.15%</tspan></text>
</g>
    </g>
    <g id="g96">
      <g clip-path="url(#clipPath100)" id="g98"><text id="text104" style="font-variant:normal;font-weight:normal;font-size:12.86400032px;font-family:'Roboto Condensed';-inkscape-font-specification:RobotoCondensed-Regular;writing-mode:lr-tb;fill:#000000;fill-opacity:1;fill-rule:nonzero;stroke:none" transform="matrix(1,0,0,-1,52.656,397.15)"><tspan id="tspan106" y="0" x="0 3.2545919 9.6094084 12.876864 19.23168 25.586496">-0.10%</tspan></text>
</g>
    </g>
    <g id="g108">
      <g clip-path="url(#clipPath112)" id="g110"><text id="text116" style="font-variant:normal;font-weight:normal;font-size:12.86400032px;font-family:'Roboto Condensed';-inkscape-font-specification:RobotoCondensed-Regular;writing-mode:lr-tb;fill:#000000;fill-opacity:1;fill-rule:nonzero;stroke:none" transform="matrix(1,0,0,-1,52.656,426.34)"><tspan id="tspan118" y="0" x="0 3.2545919 9.6094084 12.876864 19.23168 25.586496">-0.05%</tspan></text>
</g>
    </g>
    <g id="g120">
      <g clip-path="url(#clipPath124)" id="g122"><text id="text128" style="font-variant:normal;font-weight:normal;font-size:12.84000015px;font-family:'Roboto Condensed';-inkscape-font-specification:RobotoCondensed-Regular;writing-mode:lr-tb;fill:#000000;fill-opacity:1;fill-rule:nonzero;stroke:none" transform="matrix(1,0,0,-1,55.848,455.52)"><tspan id="tspan130" y="0" x="0 6.3429599 9.7584 16.10136 22.444321">0.00%</tspan></text>
</g>
    </g>
    <g id="g132">
      <g clip-path="url(#clipPath136)" id="g134"><text id="text140" style="font-variant:normal;font-weight:normal;font-size:12.86400032px;font-family:'Roboto Condensed';-inkscape-font-specification:RobotoCondensed-Regular;writing-mode:lr-tb;fill:#000000;fill-opacity:1;fill-rule:nonzero;stroke:none" transform="matrix(1,0,0,-1,55.848,484.73)"><tspan id="tspan142" y="0" x="0 6.354816 9.7380476 16.092863 22.44768">0.05%</tspan></text>
</g>
    </g>
    <g id="g144">
      <g clip-path="url(#clipPath148)" id="g146"><text id="text152" style="font-variant:normal;font-weight:normal;font-size:12.84000015px;font-family:'Roboto Condensed';-inkscape-font-specification:RobotoCondensed-Regular;writing-mode:lr-tb;fill:#000000;fill-opacity:1;fill-rule:nonzero;stroke:none" transform="matrix(1,0,0,-1,55.848,513.91)"><tspan id="tspan154" y="0" x="0 6.3429599 9.7584 16.10136 22.444321">0.10%</tspan></text>
</g>
    </g>
    <g id="g156">
      <g clip-path="url(#clipPath160)" id="g158"><text id="text164" style="font-variant:normal;font-weight:normal;font-size:12.86400032px;font-family:'Roboto Condensed';-inkscape-font-specification:RobotoCondensed-Regular;writing-mode:lr-tb;fill:#000000;fill-opacity:1;fill-rule:nonzero;stroke:none" transform="matrix(-4.4e-8,1,1,4.4e-8,114.24,324.22)"><tspan id="tspan166" y="0" x="0">C</tspan></text>
</g>
    </g>
    <g id="g168">
      <g clip-path="url(#clipPath172)" id="g170"><text id="text176" style="font-variant:normal;font-weight:normal;font-size:12.86400032px;font-family:'Roboto Condensed';-inkscape-font-specification:RobotoCondensed-Regular;writing-mode:lr-tb;fill:#000000;fill-opacity:1;fill-rule:nonzero;stroke:none" transform="matrix(-4.4e-8,1,1,4.4e-8,137.42,307.68)"><tspan id="tspan178" y="0" x="0 6.1489921 13.1856 19.334593">LPLA</tspan></text>
</g>
    </g>
    <g id="g180">
      <g clip-path="url(#clipPath184)" id="g182"><text id="text188" style="font-variant:normal;font-weight:normal;font-size:12.86400032px;font-family:'Roboto Condensed';-inkscape-font-specification:RobotoCondensed-Regular;writing-mode:lr-tb;fill:#000000;fill-opacity:1;fill-rule:nonzero;stroke:none" transform="matrix(-4.4e-8,1,1,4.4e-8,160.61,320.42)"><tspan id="tspan190" y="0" x="0 7.0079999">BK</tspan></text>
</g>
    </g>
    <g id="g192">
      <g clip-path="url(#clipPath196)" id="g194"><text id="text200" style="font-variant:normal;font-weight:normal;font-size:12.84000015px;font-family:'Roboto Condensed';-inkscape-font-specification:RobotoCondensed-Regular;writing-mode:lr-tb;fill:#000000;fill-opacity:1;fill-rule:nonzero;stroke:none" transform="matrix(-4.4e-8,1,1,4.4e-8,183.79,302.71)"><tspan id="tspan202" y="0" x="0 6.6767998 13.88004 21.930719">SCHW</tspan></text>
</g>
    </g>
    <g id="g204">
      <g clip-path="url(#clipPath208)" id="g206"><text id="text212" style="font-variant:normal;font-weight:normal;font-size:12.84000015px;font-family:'Roboto Condensed';-inkscape-font-specification:RobotoCondensed-Regular;writing-mode:lr-tb;fill:#000000;fill-opacity:1;fill-rule:nonzero;stroke:none" transform="matrix(-4.4e-8,1,1,4.4e-8,206.98,312.72)"><tspan id="tspan214" y="0" x="0 6.9977999 14.39364">BAC</tspan></text>
</g>
    </g>
    <g id="g216">
      <g clip-path="url(#clipPath220)" id="g218"><text id="text224" style="font-variant:normal;font-weight:normal;font-size:12.86400032px;font-family:'Roboto Condensed';-inkscape-font-specification:RobotoCondensed-Regular;writing-mode:lr-tb;fill:#000000;fill-opacity:1;fill-rule:nonzero;stroke:none" transform="matrix(-4.4e-8,1,1,4.4e-8,230.14,306.31)"><tspan id="tspan226" y="0" x="0 7.8727679 14.574912 21.405697">NTRS</tspan></text>
</g>
    </g>
    <g id="g228">
      <g clip-path="url(#clipPath232)" id="g230"><text id="text236" style="font-variant:normal;font-weight:normal;font-size:12.86400032px;font-family:'Roboto Condensed';-inkscape-font-specification:RobotoCondensed-Regular;writing-mode:lr-tb;fill:#000000;fill-opacity:1;fill-rule:nonzero;stroke:none" transform="matrix(-4.4e-8,1,1,4.4e-8,253.32,241.92)"><tspan id="tspan238" y="0" x="0 6.1618562 13.352832 23.103745 26.011007 33.047615 36.958271 39.904129 45.358463 51.520321 55.315201 61.451328 64.358589 71.369469 77.531326 83.757507">JPM Private Bank</tspan></text>
</g>
    </g>
    <g id="g240">
      <g clip-path="url(#clipPath244)" id="g242"><text id="text248" style="font-variant:normal;font-weight:normal;font-size:12.86400032px;font-family:'Roboto Condensed';-inkscape-font-specification:RobotoCondensed-Regular;writing-mode:lr-tb;fill:#000000;fill-opacity:1;fill-rule:nonzero;stroke:none" transform="matrix(-4.4e-8,1,1,4.4e-8,276.5,311.18)"><tspan id="tspan250" y="0" x="0 9.8023682 15.938496">WFC</tspan></text>
</g>
    </g>
    <g id="g252">
      <g clip-path="url(#clipPath256)" id="g254"><text id="text260" style="font-variant:normal;font-weight:normal;font-size:12.84000015px;font-family:'Roboto Condensed';-inkscape-font-specification:RobotoCondensed-Regular;writing-mode:lr-tb;fill:#000000;fill-opacity:1;fill-rule:nonzero;stroke:none" transform="matrix(-4.4e-8,1,1,4.4e-8,299.69,315.22)"><tspan id="tspan262" y="0" x="0 6.8565602 13.05828">RJF</tspan></text>
</g>
    </g>
    <g id="g264">
      <g clip-path="url(#clipPath268)" id="g266"><text id="text272" style="font-variant:normal;font-weight:normal;font-size:12.84000015px;font-family:'Roboto Condensed';-inkscape-font-specification:RobotoCondensed-Regular;writing-mode:lr-tb;fill:#000000;fill-opacity:1;fill-rule:nonzero;stroke:none" transform="matrix(-4.4e-8,1,1,4.4e-8,322.87,310.18)"><tspan id="tspan274" y="0" x="0 7.3958402 17.128559">AMP</tspan></text>
</g>
    </g>
    <g id="g276">
      <g clip-path="url(#clipPath280)" id="g278"><text id="text284" style="font-variant:normal;font-weight:normal;font-size:12.86400032px;font-family:'Roboto Condensed';-inkscape-font-specification:RobotoCondensed-Regular;writing-mode:lr-tb;fill:#000000;fill-opacity:1;fill-rule:nonzero;stroke:none" transform="matrix(-4.4e-8,1,1,4.4e-8,346.03,303.7)"><tspan id="tspan286" y="0" x="0 8.0271358 15.7584 23.438208">HOOD</tspan></text>
</g>
    </g>
    <g id="g288">
      <g clip-path="url(#clipPath292)" id="g290"><text id="text296" style="font-variant:normal;font-weight:normal;font-size:12.86400032px;font-family:'Roboto Condensed';-inkscape-font-specification:RobotoCondensed-Regular;writing-mode:lr-tb;fill:#000000;fill-opacity:1;fill-rule:nonzero;stroke:none" transform="matrix(-4.4e-8,1,1,4.4e-8,369.22,313.54)"><tspan id="tspan298" y="0" x="0 7.229568 14.240448">UBS</tspan></text>
</g>
    </g>
    <g id="g300">
      <g clip-path="url(#clipPath304)" id="g302"><text id="text308" style="font-variant:normal;font-weight:normal;font-size:12.86400032px;font-family:'Roboto Condensed';-inkscape-font-specification:RobotoCondensed-Regular;writing-mode:lr-tb;fill:#000000;fill-opacity:1;fill-rule:nonzero;stroke:none" transform="matrix(-4.4e-8,1,1,4.4e-8,392.4,305.66)"><tspan id="tspan310" y="0" x="0 7.3582082 14.72928 21.392832">CASA</tspan></text>
</g>
    </g>
    <g id="g312">
      <g clip-path="url(#clipPath316)" id="g314"><text id="text320" style="font-variant:normal;font-weight:normal;font-size:12.84000015px;font-family:'Roboto Condensed';-inkscape-font-specification:RobotoCondensed-Regular;writing-mode:lr-tb;fill:#000000;fill-opacity:1;fill-rule:nonzero;stroke:none" transform="matrix(-4.4e-8,1,1,4.4e-8,415.58,306.82)"><tspan id="tspan322" y="0" x="0 6.9977999 14.39364 20.71092">BAER</tspan></text>
</g>
    </g>
    <g id="g324">
      <g clip-path="url(#clipPath328)" id="g326"><text id="text332" style="font-variant:normal;font-weight:normal;font-size:12.84000015px;font-family:'Roboto Condensed';-inkscape-font-specification:RobotoCondensed-Regular;writing-mode:lr-tb;fill:#000000;fill-opacity:1;fill-rule:nonzero;stroke:none" transform="matrix(-4.4e-8,1,1,4.4e-8,438.77,312.34)"><tspan id="tspan334" y="0" x="0 6.9977999 14.90724">BNP</tspan></text>
</g>
    </g>
    <g id="g336">
      <g clip-path="url(#clipPath340)" id="g338"><text id="text344" style="font-variant:normal;font-weight:normal;font-size:12.86400032px;font-family:'Roboto Condensed';-inkscape-font-specification:RobotoCondensed-Regular;writing-mode:lr-tb;fill:#000000;fill-opacity:1;fill-rule:nonzero;stroke:none" transform="matrix(-4.4e-8,1,1,4.4e-8,461.93,312.05)"><tspan id="tspan346" y="0" x="0 7.3710718 14.381952">ABN</tspan></text>
</g>
    </g>
    <g id="g348">
      <g clip-path="url(#clipPath352)" id="g350"><text id="text356" style="font-variant:normal;font-weight:normal;font-size:12.86400032px;font-family:'Roboto Condensed';-inkscape-font-specification:RobotoCondensed-Regular;writing-mode:lr-tb;fill:#000000;fill-opacity:1;fill-rule:nonzero;stroke:none" transform="matrix(-4.4e-8,1,1,4.4e-8,485.11,317.42)"><tspan id="tspan358" y="0" x="0 3.2545919 9.9181442">ISP</tspan></text>
</g>
    </g>
    <g id="g360">
      <g clip-path="url(#clipPath364)" id="g362"><text id="text368" style="font-variant:normal;font-weight:normal;font-size:12.86400032px;font-family:'Roboto Condensed';-inkscape-font-specification:RobotoCondensed-Regular;writing-mode:lr-tb;fill:#000000;fill-opacity:1;fill-rule:nonzero;stroke:none" transform="matrix(-4.4e-8,1,1,4.4e-8,508.3,304.3)"><tspan id="tspan370" y="0" x="0 6.6635518 16.427328 22.602049">SMFG</tspan></text>
</g>
    </g>
    <g id="g372">
      <g clip-path="url(#clipPath376)" id="g374"><text id="text380" style="font-variant:normal;font-weight:normal;font-size:12.86400032px;font-family:'Roboto Condensed';-inkscape-font-specification:RobotoCondensed-Regular;writing-mode:lr-tb;fill:#000000;fill-opacity:1;fill-rule:nonzero;stroke:none" transform="matrix(-4.4e-8,1,1,4.4e-8,531.48,280.56)"><tspan id="tspan382" y="0" x="0 9.7509117 12.658176 18.305471 24.467327 30.629185 37.125504 40.032768 46.207489">Mizuho FG</tspan></text>
</g>
    </g>
    <g id="g384">
      <g clip-path="url(#clipPath388)" id="g386"><text id="text392" style="font-variant:normal;font-weight:normal;font-size:12.84000015px;font-family:'Roboto Condensed';-inkscape-font-specification:RobotoCondensed-Regular;writing-mode:lr-tb;fill:#000000;fill-opacity:1;fill-rule:nonzero;stroke:none" transform="matrix(-4.4e-8,1,1,4.4e-8,554.66,303.38)"><tspan id="tspan394" y="0" x="0 7.8709202 15.58776 23.099159">NOAH</tspan></text>
</g>
    </g>
    <g id="g396">
      <g clip-path="url(#clipPath400)" id="g398"><text id="text404" style="font-variant:normal;font-weight:bold;font-size:20.04000092px;font-family:'Roboto Condensed';-inkscape-font-specification:RobotoCondensed-Bold;writing-mode:lr-tb;fill:#000000;fill-opacity:1;fill-rule:nonzero;stroke:none" transform="matrix(1,0,0,-1,118.27,526.22)"><tspan id="tspan406" y="0" x="0 3.22644 13.36668 23.50692 33.346561 37.955761 46.993801 56.091961 61.923599 66.392517 69.618958 79.759201 89.899437 94.508636 109.6188 124.86924 129.15781 141.48241 151.08156 157.23384 161.72279 176.97324 186.41208 193.06535 203.2056 208.17552 218.09532 222.56424 234.04716 243.96696 253.40581 263.30557 273.38568 282.98483 287.33353 292.30344 302.22324 306.69217 319.49771 324.16705 335.64996 345.62988 350.55972 360.47952 366.63181">'27E vs. '24 WM Net Margin Change in % Points</tspan></text>
</g>
    </g>
  </g>
</svg>
