<?xml version="1.0" encoding="UTF-8" standalone="no"?>
<svg xmlns:dc="http://purl.org/dc/elements/1.1/" xmlns:cc="http://creativecommons.org/ns#" xmlns:rdf="http://www.w3.org/1999/02/22-rdf-syntax-ns#" xmlns:svg="http://www.w3.org/2000/svg" xmlns="http://www.w3.org/2000/svg" viewBox="63.15625 382.1625 618 338.4375" height="338.4375" width="618" xml:space="preserve" version="1.1" id="svg2">
  <metadata id="metadata8">
    <rdf:RDF>
      <cc:Work rdf:about="">
        <dc:format>image/svg+xml</dc:format>
        <dc:type rdf:resource="http://purl.org/dc/dcmitype/StillImage"/>
      </cc:Work>
    </rdf:RDF>
  </metadata>
  <defs id="defs6">
    <clipPath id="clipPath16" clipPathUnits="userSpaceOnUse">
      <path style="clip-rule:evenodd" id="path18" d="m 50.4,265.44 494.52,0 0,270.84 -494.52,0 0,-270.84 z"/>
    </clipPath>
    <clipPath id="clipPath26" clipPathUnits="userSpaceOnUse">
      <path style="clip-rule:evenodd" id="path28" d="m 50.4,265.44 494.52,0 0,270.84 -494.52,0 0,-270.84 z"/>
    </clipPath>
    <clipPath id="clipPath36" clipPathUnits="userSpaceOnUse">
      <path style="clip-rule:evenodd" id="path38" d="m 77.215,290.42 467.63,0 0,221.44 -467.63,0 0,-221.44 z"/>
    </clipPath>
    <clipPath id="clipPath46" clipPathUnits="userSpaceOnUse">
      <path style="clip-rule:evenodd" id="path48" d="m 77.215,290.42 467.63,0 0,221.44 -467.63,0 0,-221.44 z"/>
    </clipPath>
    <clipPath id="clipPath56" clipPathUnits="userSpaceOnUse">
      <path style="clip-rule:evenodd" id="path58" d="m 50.464,265.53 494.38,0 0,270.65 -494.38,0 0,-270.65 z"/>
    </clipPath>
    <clipPath id="clipPath82" clipPathUnits="userSpaceOnUse">
      <path style="clip-rule:evenodd" id="path84" d="m 77.215,290.42 467.63,0 0,221.44 -467.63,0 0,-221.44 z"/>
    </clipPath>
    <clipPath id="clipPath112" clipPathUnits="userSpaceOnUse">
      <path style="clip-rule:evenodd" id="path114" d="m 50.464,265.53 494.38,0 0,270.65 -494.38,0 0,-270.65 z"/>
    </clipPath>
    <clipPath id="clipPath128" clipPathUnits="userSpaceOnUse">
      <path style="clip-rule:evenodd" id="path130" d="m 50.464,265.53 494.38,0 0,270.65 -494.38,0 0,-270.65 z"/>
    </clipPath>
    <clipPath id="clipPath144" clipPathUnits="userSpaceOnUse">
      <path style="clip-rule:evenodd" id="path146" d="m 50.464,265.53 494.38,0 0,270.65 -494.38,0 0,-270.65 z"/>
    </clipPath>
    <clipPath id="clipPath160" clipPathUnits="userSpaceOnUse">
      <path style="clip-rule:evenodd" id="path162" d="m 50.464,265.53 494.38,0 0,270.65 -494.38,0 0,-270.65 z"/>
    </clipPath>
    <clipPath id="clipPath172" clipPathUnits="userSpaceOnUse">
      <path style="clip-rule:evenodd" id="path174" d="m 50.52,265.44 494.4,0 0,270.72 -494.4,0 0,-270.72 z"/>
    </clipPath>
    <clipPath id="clipPath186" clipPathUnits="userSpaceOnUse">
      <path style="clip-rule:evenodd" id="path188" d="m 50.52,265.44 494.4,0 0,270.72 -494.4,0 0,-270.72 z"/>
    </clipPath>
    <clipPath id="clipPath200" clipPathUnits="userSpaceOnUse">
      <path style="clip-rule:evenodd" id="path202" d="m 50.52,265.44 494.4,0 0,270.72 -494.4,0 0,-270.72 z"/>
    </clipPath>
    <clipPath id="clipPath212" clipPathUnits="userSpaceOnUse">
      <path style="clip-rule:evenodd" id="path214" d="m 50.464,265.53 494.38,0 0,270.65 -494.38,0 0,-270.65 z"/>
    </clipPath>
    <clipPath id="clipPath222" clipPathUnits="userSpaceOnUse">
      <path style="clip-rule:evenodd" id="path224" d="m 50.52,265.44 494.4,0 0,270.72 -494.4,0 0,-270.72 z"/>
    </clipPath>
    <clipPath id="clipPath236" clipPathUnits="userSpaceOnUse">
      <path style="clip-rule:evenodd" id="path238" d="m 50.52,265.44 494.4,0 0,270.72 -494.4,0 0,-270.72 z"/>
    </clipPath>
    <clipPath id="clipPath250" clipPathUnits="userSpaceOnUse">
      <path style="clip-rule:evenodd" id="path252" d="m 50.52,265.44 494.4,0 0,270.72 -494.4,0 0,-270.72 z"/>
    </clipPath>
    <clipPath id="clipPath264" clipPathUnits="userSpaceOnUse">
      <path style="clip-rule:evenodd" id="path266" d="m 50.52,265.44 494.4,0 0,270.72 -494.4,0 0,-270.72 z"/>
    </clipPath>
    <clipPath id="clipPath276" clipPathUnits="userSpaceOnUse">
      <path style="clip-rule:evenodd" id="path278" d="m 50.464,265.53 494.38,0 0,270.65 -494.38,0 0,-270.65 z"/>
    </clipPath>
    <clipPath id="clipPath286" clipPathUnits="userSpaceOnUse">
      <path style="clip-rule:evenodd" id="path288" d="m 50.52,265.44 494.4,0 0,270.72 -494.4,0 0,-270.72 z"/>
    </clipPath>
    <clipPath id="clipPath300" clipPathUnits="userSpaceOnUse">
      <path style="clip-rule:evenodd" id="path302" d="m 50.52,265.44 494.4,0 0,270.72 -494.4,0 0,-270.72 z"/>
    </clipPath>
    <clipPath id="clipPath314" clipPathUnits="userSpaceOnUse">
      <path style="clip-rule:evenodd" id="path316" d="m 50.52,265.44 494.4,0 0,270.72 -494.4,0 0,-270.72 z"/>
    </clipPath>
    <clipPath id="clipPath328" clipPathUnits="userSpaceOnUse">
      <path style="clip-rule:evenodd" id="path330" d="m 50.52,265.44 494.4,0 0,270.72 -494.4,0 0,-270.72 z"/>
    </clipPath>
    <clipPath id="clipPath340" clipPathUnits="userSpaceOnUse">
      <path style="clip-rule:evenodd" id="path342" d="m 50.464,265.53 494.38,0 0,270.65 -494.38,0 0,-270.65 z"/>
    </clipPath>
    <clipPath id="clipPath350" clipPathUnits="userSpaceOnUse">
      <path style="clip-rule:evenodd" id="path352" d="m 50.52,265.44 494.4,0 0,270.72 -494.4,0 0,-270.72 z"/>
    </clipPath>
    <clipPath id="clipPath364" clipPathUnits="userSpaceOnUse">
      <path style="clip-rule:evenodd" id="path366" d="m 50.52,265.44 494.4,0 0,270.72 -494.4,0 0,-270.72 z"/>
    </clipPath>
    <clipPath id="clipPath378" clipPathUnits="userSpaceOnUse">
      <path style="clip-rule:evenodd" id="path380" d="m 50.52,265.44 494.4,0 0,270.72 -494.4,0 0,-270.72 z"/>
    </clipPath>
    <clipPath id="clipPath392" clipPathUnits="userSpaceOnUse">
      <path style="clip-rule:evenodd" id="path394" d="m 50.52,265.44 494.4,0 0,270.72 -494.4,0 0,-270.72 z"/>
    </clipPath>
    <clipPath id="clipPath404" clipPathUnits="userSpaceOnUse">
      <path style="clip-rule:evenodd" id="path406" d="m 50.464,265.53 494.38,0 0,270.65 -494.38,0 0,-270.65 z"/>
    </clipPath>
    <clipPath id="clipPath414" clipPathUnits="userSpaceOnUse">
      <path style="clip-rule:evenodd" id="path416" d="m 50.52,265.44 494.4,0 0,270.72 -494.4,0 0,-270.72 z"/>
    </clipPath>
    <clipPath id="clipPath426" clipPathUnits="userSpaceOnUse">
      <path style="clip-rule:evenodd" id="path428" d="m 50.52,265.44 494.4,0 0,270.72 -494.4,0 0,-270.72 z"/>
    </clipPath>
    <clipPath id="clipPath438" clipPathUnits="userSpaceOnUse">
      <path style="clip-rule:evenodd" id="path440" d="m 50.52,265.44 494.4,0 0,270.72 -494.4,0 0,-270.72 z"/>
    </clipPath>
    <clipPath id="clipPath450" clipPathUnits="userSpaceOnUse">
      <path style="clip-rule:evenodd" id="path452" d="m 50.52,265.44 494.4,0 0,270.72 -494.4,0 0,-270.72 z"/>
    </clipPath>
    <clipPath id="clipPath462" clipPathUnits="userSpaceOnUse">
      <path style="clip-rule:evenodd" id="path464" d="m 50.52,265.44 494.4,0 0,270.72 -494.4,0 0,-270.72 z"/>
    </clipPath>
    <clipPath id="clipPath474" clipPathUnits="userSpaceOnUse">
      <path style="clip-rule:evenodd" id="path476" d="m 50.52,265.44 494.4,0 0,270.72 -494.4,0 0,-270.72 z"/>
    </clipPath>
    <clipPath id="clipPath486" clipPathUnits="userSpaceOnUse">
      <path style="clip-rule:evenodd" id="path488" d="m 50.52,265.44 494.4,0 0,270.72 -494.4,0 0,-270.72 z"/>
    </clipPath>
    <clipPath id="clipPath498" clipPathUnits="userSpaceOnUse">
      <path style="clip-rule:evenodd" id="path500" d="m 50.52,265.44 494.4,0 0,270.72 -494.4,0 0,-270.72 z"/>
    </clipPath>
    <clipPath id="clipPath510" clipPathUnits="userSpaceOnUse">
      <path style="clip-rule:evenodd" id="path512" d="m 50.52,265.44 494.4,0 0,270.72 -494.4,0 0,-270.72 z"/>
    </clipPath>
    <clipPath id="clipPath522" clipPathUnits="userSpaceOnUse">
      <path style="clip-rule:evenodd" id="path524" d="m 50.52,265.44 494.4,0 0,270.72 -494.4,0 0,-270.72 z"/>
    </clipPath>
    <clipPath id="clipPath534" clipPathUnits="userSpaceOnUse">
      <path style="clip-rule:evenodd" id="path536" d="m 50.52,265.44 494.4,0 0,270.72 -494.4,0 0,-270.72 z"/>
    </clipPath>
    <clipPath id="clipPath546" clipPathUnits="userSpaceOnUse">
      <path style="clip-rule:evenodd" id="path548" d="m 50.52,265.44 494.4,0 0,270.72 -494.4,0 0,-270.72 z"/>
    </clipPath>
    <clipPath id="clipPath558" clipPathUnits="userSpaceOnUse">
      <path style="clip-rule:evenodd" id="path560" d="m 50.52,265.44 494.4,0 0,270.72 -494.4,0 0,-270.72 z"/>
    </clipPath>
    <clipPath id="clipPath570" clipPathUnits="userSpaceOnUse">
      <path style="clip-rule:evenodd" id="path572" d="m 50.52,265.44 494.4,0 0,270.72 -494.4,0 0,-270.72 z"/>
    </clipPath>
    <clipPath id="clipPath582" clipPathUnits="userSpaceOnUse">
      <path style="clip-rule:evenodd" id="path584" d="m 50.52,265.44 494.4,0 0,270.72 -494.4,0 0,-270.72 z"/>
    </clipPath>
    <clipPath id="clipPath594" clipPathUnits="userSpaceOnUse">
      <path style="clip-rule:evenodd" id="path596" d="m 50.52,265.44 494.4,0 0,270.72 -494.4,0 0,-270.72 z"/>
    </clipPath>
    <clipPath id="clipPath608" clipPathUnits="userSpaceOnUse">
      <path style="clip-rule:evenodd" id="path610" d="m 50.52,265.44 494.4,0 0,270.72 -494.4,0 0,-270.72 z"/>
    </clipPath>
    <clipPath id="clipPath622" clipPathUnits="userSpaceOnUse">
      <path style="clip-rule:evenodd" id="path624" d="m 50.52,265.44 494.4,0 0,270.72 -494.4,0 0,-270.72 z"/>
    </clipPath>
    <clipPath id="clipPath636" clipPathUnits="userSpaceOnUse">
      <path style="clip-rule:evenodd" id="path638" d="m 50.52,265.44 494.4,0 0,270.72 -494.4,0 0,-270.72 z"/>
    </clipPath>
    <clipPath id="clipPath650" clipPathUnits="userSpaceOnUse">
      <path style="clip-rule:evenodd" id="path652" d="m 50.52,265.44 494.4,0 0,270.72 -494.4,0 0,-270.72 z"/>
    </clipPath>
    <clipPath id="clipPath662" clipPathUnits="userSpaceOnUse">
      <path style="clip-rule:evenodd" id="path664" d="m 50.52,265.44 494.4,0 0,270.72 -494.4,0 0,-270.72 z"/>
    </clipPath>
  </defs>
  <g transform="matrix(1.25,0,0,-1.25,0,1052.4)" id="g10">
    <g id="g12">
      <g clip-path="url(#clipPath16)" id="g14">
        <path id="path20" style="fill:none;stroke:#000000;stroke-width:0.14;stroke-linecap:butt;stroke-linejoin:miter;stroke-miterlimit:10;stroke-dasharray:none;stroke-opacity:0" d="m 50.595,265.43 494.25,0 0,270.69 -494.25,0 0,-270.69 z"/>
      </g>
    </g>
    <g id="g22">
      <g clip-path="url(#clipPath26)" id="g24">
        <path id="path30" style="fill:#ffffff;fill-opacity:1;fill-rule:evenodd;stroke:none" d="m 50.595,265.43 494.25,0 0,270.69 -494.25,0 0,-270.69 z"/>
      </g>
    </g>
    <g id="g32">
      <g clip-path="url(#clipPath36)" id="g34">
        <path id="path40" style="fill:#dfdfe0;fill-opacity:0.50196001;fill-rule:nonzero;stroke:none" d="m 353.95,606.26 23.38,0 23.32,0 23.46,0 23.32,0 23.46,0 23.31,0 23.32,0 23.43,0 0,-315.01 -23.43,0 -23.32,0 -23.31,0 -23.46,0 -23.32,0 -23.46,0 -23.32,0 -23.38,0 0,315.01 z"/>
      </g>
    </g>
    <g id="g42">
      <g clip-path="url(#clipPath46)" id="g44">
        <path id="path50" style="fill:#606165;fill-opacity:1;fill-rule:nonzero;stroke:none" d="m 353.01,606.26 1.86,0 0,-315.01 -1.86,0 0,315.01 z m 93.41,0 2.01,0 0,-315.01 -2.01,0 0,315.01 z m 93.56,0 2,0 0,-315.01 -2,0 0,315.01 z"/>
      </g>
    </g>
    <g id="g52">
      <g clip-path="url(#clipPath56)" id="g54">
        <path id="path60" style="fill:none;stroke:#808080;stroke-width:1.49010003;stroke-linecap:round;stroke-linejoin:round;stroke-miterlimit:10;stroke-dasharray:none;stroke-opacity:1" d="m 77.35,291.25 467.5,0"/>
      </g>
    </g>
    <path id="path62" style="fill:none;stroke:#005aa4;stroke-width:1.7881;stroke-linecap:round;stroke-linejoin:round;stroke-miterlimit:10;stroke-dasharray:none;stroke-opacity:1" d="m 81.245,422.18 7.843,0 7.724,0 7.868,0 7.72,0 7.87,0 7.73,0 7.72,0 7.87,-20.61 7.72,-7.01 7.87,0 7.73,0 7.86,0 7.73,0 7.87,0 7.72,0 7.87,0 7.72,0 7.87,0 7.73,0 7.86,0 7.73,0 7.72,0 7.87,0 7.72,0 7.87,0 7.73,0 7.86,0 7.73,-13.74 7.87,0 7.72,-6.86 7.87,0 7.72,-6.87 7.82,-6.93"/>
    <path id="path64" style="fill:#005aa4;fill-opacity:1;fill-rule:nonzero;stroke:none" d="m 346.13,357.88 4.73,-4.73 -4.73,-4.72 -4.72,4.72 4.72,4.73 z"/>
    <g id="g66">
      <path id="path68" style="fill:none;stroke:#005aa4;stroke-width:1.7881;stroke-linecap:round;stroke-linejoin:round;stroke-miterlimit:10;stroke-dasharray:3.5762, 3.5762;stroke-dashoffset:0;stroke-opacity:1" d="m 338.37,360.16 7.78,-6.94 7.86,0 23.32,-6.87 23.32,-6.87 23.46,-13.77 23.32,0 23.46,0 23.31,0 23.32,0 23.43,0"/>
    </g>
    <path id="path70" style="fill:none;stroke:#d0b86a;stroke-width:1.7881;stroke-linecap:round;stroke-linejoin:round;stroke-miterlimit:10;stroke-dasharray:none;stroke-opacity:1" d="m 81.245,429.07 7.843,0 7.724,0 7.868,0 7.72,0 7.87,0 7.73,0 7.72,0 7.87,0 7.72,0 7.87,0 7.73,-6.9 7.86,0 7.73,-13.74 7.87,-13.87 7.72,0 7.87,-13.74 7.72,-13.73 7.87,0 7.73,-6.87 7.86,-7 7.73,0 7.72,-6.87 7.87,0 7.72,0 7.87,-6.87 7.73,0 7.86,0 7.73,-6.88 7.87,0 7.72,0 7.87,0 7.72,0 7.82,0"/>
    <path id="path72" style="fill:#d0b86a;fill-opacity:1;fill-rule:nonzero;stroke:none" d="m 346.13,337.28 4.73,-4.72 -4.73,-4.72 -4.72,4.72 4.72,4.72 z"/>
    <g id="g74">
      <path id="path76" style="fill:none;stroke:#d0b86a;stroke-width:1.7881;stroke-linecap:round;stroke-linejoin:round;stroke-miterlimit:10;stroke-dasharray:3.5762, 3.5762;stroke-dashoffset:0;stroke-opacity:1" d="m 338.37,332.6 7.78,0 7.86,0 23.32,0 23.32,0 23.46,-6.85 23.32,-6.93 23.46,0 23.31,0 23.32,0 23.43,0"/>
    </g>
    <g id="g78">
      <g clip-path="url(#clipPath82)" id="g80">
        <path id="path86" style="fill:none;stroke:#873246;stroke-width:1.7881;stroke-linecap:round;stroke-linejoin:round;stroke-miterlimit:10;stroke-dasharray:none;stroke-opacity:1" d="m 81.245,594.45 7.843,0 7.724,0 7.868,0 7.72,0 7.87,0 7.73,0 7.72,0 7.87,0 7.72,-20.65 7.87,-20.75 7.73,-20.59 7.86,-20.75 7.73,-27.46 7.87,-20.74 7.72,-13.74 7.87,-13.87 7.72,-6.87 7.87,-6.86 7.73,0 7.86,-6.88 7.73,0 7.72,0 7.87,0 7.72,0 7.87,0 7.73,0 7.86,0 7.73,0 7.87,0 7.72,0 7.87,0 7.72,0 7.82,0"/>
      </g>
    </g>
    <path id="path88" style="fill:#873246;fill-opacity:1;fill-rule:nonzero;stroke:none" d="m 346.13,419.96 4.73,-4.72 -4.73,-4.72 -4.72,4.72 4.72,4.72 z"/>
    <g id="g90">
      <path id="path92" style="fill:none;stroke:#873246;stroke-width:1.7881;stroke-linecap:round;stroke-linejoin:round;stroke-miterlimit:10;stroke-dasharray:3.5762, 3.5762;stroke-dashoffset:0;stroke-opacity:1" d="m 338.37,415.29 7.78,0 7.86,0 23.32,-13.72 23.32,-7.01 23.46,-6.87 23.32,-20.64 23.46,0 23.31,0 23.32,0 23.43,0"/>
    </g>
    <path id="path94" style="fill:none;stroke:#226b5a;stroke-width:1.7881;stroke-linecap:round;stroke-linejoin:round;stroke-miterlimit:10;stroke-dasharray:none;stroke-opacity:1" d="m 81.245,435.9 7.843,0 7.724,13.87 7.868,0 7.72,13.75 7.87,0 7.73,0 7.72,0 7.87,0 7.72,0 7.87,0 7.73,0 7.86,0 7.73,0 7.87,0 7.72,0 7.87,0 7.72,0 7.87,0 7.73,0 7.86,-6.88 7.73,0 7.72,-6.87 7.87,0 7.72,-6.86 7.87,0 7.73,0 7.86,0 7.73,-7.01 7.87,0 7.72,0 7.87,-6.83 7.72,0 7.82,0"/>
    <path id="path96" style="fill:#226b5a;fill-opacity:1;fill-rule:nonzero;stroke:none" d="m 346.13,433.69 4.73,-4.72 -4.73,-4.72 -4.72,4.72 4.72,4.72 z"/>
    <g id="g98">
      <path id="path100" style="fill:none;stroke:#226b5a;stroke-width:1.7881;stroke-linecap:round;stroke-linejoin:round;stroke-miterlimit:10;stroke-dasharray:3.5762, 3.5762;stroke-dashoffset:0;stroke-opacity:1" d="m 338.37,429.07 7.78,0 7.86,-6.9 23.32,-6.87 23.32,-6.87 23.46,0 23.32,0 23.46,0 23.31,-6.92 23.32,0 23.43,0"/>
    </g>
    <path id="path102" style="fill:#005aa4;fill-opacity:1;fill-rule:nonzero;stroke:none" d="m 346.13,357.88 4.73,-4.73 -4.73,-4.72 -4.72,4.72 4.72,4.73 z"/>
    <path id="path104" style="fill:#005aa4;fill-opacity:1;fill-rule:nonzero;stroke:none" d="m 354,357.88 4.72,-4.73 -4.72,-4.72 -4.72,4.72 4.72,4.73 z"/>
    <path id="path106" style="fill:#005aa4;fill-opacity:1;fill-rule:nonzero;stroke:none" d="m 447.41,330.41 4.72,-4.72 -4.72,-4.72 -4.72,4.72 4.72,4.72 z"/>
    <g id="g108">
      <g clip-path="url(#clipPath112)" id="g110">
        <path id="path116" style="fill:#005aa4;fill-opacity:1;fill-rule:nonzero;stroke:none" d="m 540.97,330.41 4.72,-4.72 -4.72,-4.72 -4.72,4.72 4.72,4.72 z"/>
      </g>
    </g>
    <path id="path118" style="fill:#d0b86a;fill-opacity:1;fill-rule:nonzero;stroke:none" d="m 346.13,337.28 4.73,-4.72 -4.73,-4.72 -4.72,4.72 4.72,4.72 z"/>
    <path id="path120" style="fill:#d0b86a;fill-opacity:1;fill-rule:nonzero;stroke:none" d="m 354,337.28 4.72,-4.72 -4.72,-4.72 -4.72,4.72 4.72,4.72 z"/>
    <path id="path122" style="fill:#d0b86a;fill-opacity:1;fill-rule:nonzero;stroke:none" d="m 447.41,323.54 4.72,-4.72 -4.72,-4.72 -4.72,4.72 4.72,4.72 z"/>
    <g id="g124">
      <g clip-path="url(#clipPath128)" id="g126">
        <path id="path132" style="fill:#d0b86a;fill-opacity:1;fill-rule:nonzero;stroke:none" d="m 540.97,323.54 4.72,-4.72 -4.72,-4.72 -4.72,4.72 4.72,4.72 z"/>
      </g>
    </g>
    <path id="path134" style="fill:#873246;fill-opacity:1;fill-rule:nonzero;stroke:none" d="m 346.13,419.96 4.73,-4.72 -4.73,-4.72 -4.72,4.72 4.72,4.72 z"/>
    <path id="path136" style="fill:#873246;fill-opacity:1;fill-rule:nonzero;stroke:none" d="m 354,419.96 4.72,-4.72 -4.72,-4.72 -4.72,4.72 4.72,4.72 z"/>
    <path id="path138" style="fill:#873246;fill-opacity:1;fill-rule:nonzero;stroke:none" d="m 447.41,371.75 4.72,-4.72 -4.72,-4.72 -4.72,4.72 4.72,4.72 z"/>
    <g id="g140">
      <g clip-path="url(#clipPath144)" id="g142">
        <path id="path148" style="fill:#873246;fill-opacity:1;fill-rule:nonzero;stroke:none" d="m 540.97,371.75 4.72,-4.72 -4.72,-4.72 -4.72,4.72 4.72,4.72 z"/>
      </g>
    </g>
    <path id="path150" style="fill:#226b5a;fill-opacity:1;fill-rule:nonzero;stroke:none" d="m 346.13,433.69 4.73,-4.72 -4.73,-4.72 -4.72,4.72 4.72,4.72 z"/>
    <path id="path152" style="fill:#226b5a;fill-opacity:1;fill-rule:nonzero;stroke:none" d="m 354,426.82 4.72,-4.72 -4.72,-4.72 -4.72,4.72 4.72,4.72 z"/>
    <path id="path154" style="fill:#226b5a;fill-opacity:1;fill-rule:nonzero;stroke:none" d="m 447.41,413.09 4.72,-4.72 -4.72,-4.72 -4.72,4.72 4.72,4.72 z"/>
    <g id="g156">
      <g clip-path="url(#clipPath160)" id="g158">
        <path id="path164" style="fill:#226b5a;fill-opacity:1;fill-rule:nonzero;stroke:none" d="m 540.97,406.23 4.72,-4.72 -4.72,-4.73 -4.72,4.73 4.72,4.72 z"/>
      </g>
    </g>
    <path id="path166" style="fill:#005aa4;fill-opacity:0.50196001;fill-rule:evenodd;stroke:none" d="m 300.09,328.5 30.022,0 0,19.312 -30.022,0 0,-19.312 z"/>
    <g id="g168">
      <g clip-path="url(#clipPath172)" id="g170"><text id="text176" style="font-variant:normal;font-weight:normal;font-size:13.15200043px;font-family:'Roboto Condensed';-inkscape-font-specification:RobotoCondensed-Regular;writing-mode:lr-tb;fill:#ffffff;fill-opacity:1;fill-rule:nonzero;stroke:none" transform="matrix(1,0,0,-1,303.79,333.5)"><tspan id="tspan178" y="0" x="0 6.4313278 9.8903036 16.295328">4.25</tspan></text>
</g>
    </g>
    <path id="path180" style="fill:#005aa4;fill-opacity:0.50196001;fill-rule:evenodd;stroke:none" d="m 358.55,355.17 30.022,0 0,19.312 -30.022,0 0,-19.312 z"/>
    <g id="g182">
      <g clip-path="url(#clipPath186)" id="g184"><text id="text190" style="font-variant:normal;font-weight:normal;font-size:13.17599964px;font-family:'Roboto Condensed';-inkscape-font-specification:RobotoCondensed-Regular;writing-mode:lr-tb;fill:#ffffff;fill-opacity:1;fill-rule:nonzero;stroke:none" transform="matrix(1,0,0,-1,362.26,360.19)"><tspan id="tspan192" y="0" x="0 6.4298878 9.8951759 16.298712">4.25</tspan></text>
</g>
    </g>
    <path id="path194" style="fill:#005aa4;fill-opacity:0.50196001;fill-rule:evenodd;stroke:none" d="m 432.44,334.05 30.022,0 0,19.312 -30.022,0 0,-19.312 z"/>
    <g id="g196">
      <g clip-path="url(#clipPath200)" id="g198"><text id="text204" style="font-variant:normal;font-weight:normal;font-size:13.17599964px;font-family:'Roboto Condensed';-inkscape-font-specification:RobotoCondensed-Regular;writing-mode:lr-tb;fill:#ffffff;fill-opacity:1;fill-rule:nonzero;stroke:none" transform="matrix(1,0,0,-1,436.15,339.07)"><tspan id="tspan206" y="0" x="0 6.4562402 9.9215279 16.33824">3.25</tspan></text>
</g>
    </g>
    <g id="g208">
      <g clip-path="url(#clipPath212)" id="g210">
        <path id="path216" style="fill:#005aa4;fill-opacity:0.50196001;fill-rule:evenodd;stroke:none" d="m 514.83,334.05 30.022,0 0,19.312 -30.022,0 0,-19.312 z"/>
      </g>
    </g>
    <g id="g218">
      <g clip-path="url(#clipPath222)" id="g220"><text id="text226" style="font-variant:normal;font-weight:normal;font-size:13.17599964px;font-family:'Roboto Condensed';-inkscape-font-specification:RobotoCondensed-Regular;writing-mode:lr-tb;fill:#ffffff;fill-opacity:1;fill-rule:nonzero;stroke:none" transform="matrix(1,0,0,-1,518.57,339.07)"><tspan id="tspan228" y="0" x="0 6.4298878 9.8951759 16.298712">3.25</tspan></text>
</g>
    </g>
    <path id="path230" style="fill:#b39638;fill-opacity:0.50196001;fill-rule:evenodd;stroke:none" d="m 308.78,305.04 30.022,0 0,19.312 -30.022,0 0,-19.312 z"/>
    <g id="g232">
      <g clip-path="url(#clipPath236)" id="g234"><text id="text240" style="font-variant:normal;font-weight:normal;font-size:13.15200043px;font-family:'Roboto Condensed';-inkscape-font-specification:RobotoCondensed-Regular;writing-mode:lr-tb;fill:#ffffff;fill-opacity:1;fill-rule:nonzero;stroke:none" transform="matrix(1,0,0,-1,312.48,310.03)"><tspan id="tspan242" y="0" x="0 6.4313278 9.8903036 16.295328">3.50</tspan></text>
</g>
    </g>
    <path id="path244" style="fill:#b39638;fill-opacity:0.50196001;fill-rule:evenodd;stroke:none" d="m 355.65,305.04 30.022,0 0,19.312 -30.022,0 0,-19.312 z"/>
    <g id="g246">
      <g clip-path="url(#clipPath250)" id="g248"><text id="text254" style="font-variant:normal;font-weight:normal;font-size:13.15200043px;font-family:'Roboto Condensed';-inkscape-font-specification:RobotoCondensed-Regular;writing-mode:lr-tb;fill:#ffffff;fill-opacity:1;fill-rule:nonzero;stroke:none" transform="matrix(1,0,0,-1,359.35,310.03)"><tspan id="tspan256" y="0" x="0 6.4313278 9.8903036 16.295328">3.50</tspan></text>
</g>
    </g>
    <path id="path258" style="fill:#b39638;fill-opacity:0.50196001;fill-rule:evenodd;stroke:none" d="m 432.44,291.16 30.022,0 0,19.312 -30.022,0 0,-19.312 z"/>
    <g id="g260">
      <g clip-path="url(#clipPath264)" id="g262"><text id="text268" style="font-variant:normal;font-weight:normal;font-size:13.15200043px;font-family:'Roboto Condensed';-inkscape-font-specification:RobotoCondensed-Regular;writing-mode:lr-tb;fill:#ffffff;fill-opacity:1;fill-rule:nonzero;stroke:none" transform="matrix(1,0,0,-1,436.15,296.16)"><tspan id="tspan270" y="0" x="0 6.4576321 9.9166079 16.347937">3.00</tspan></text>
</g>
    </g>
    <g id="g272">
      <g clip-path="url(#clipPath276)" id="g274">
        <path id="path280" style="fill:#b39638;fill-opacity:0.50196001;fill-rule:evenodd;stroke:none" d="m 514.83,291.16 30.022,0 0,19.312 -30.022,0 0,-19.312 z"/>
      </g>
    </g>
    <g id="g282">
      <g clip-path="url(#clipPath286)" id="g284"><text id="text290" style="font-variant:normal;font-weight:normal;font-size:13.15200043px;font-family:'Roboto Condensed';-inkscape-font-specification:RobotoCondensed-Regular;writing-mode:lr-tb;fill:#ffffff;fill-opacity:1;fill-rule:nonzero;stroke:none" transform="matrix(1,0,0,-1,518.57,296.16)"><tspan id="tspan292" y="0" x="0 6.4313278 9.8903036 16.295328">3.00</tspan></text>
</g>
    </g>
    <path id="path294" style="fill:#873246;fill-opacity:0.50196001;fill-rule:evenodd;stroke:none" d="m 291.41,390.27 30.022,0 0,19.312 -30.022,0 0,-19.312 z"/>
    <g id="g296">
      <g clip-path="url(#clipPath300)" id="g298"><text id="text304" style="font-variant:normal;font-weight:normal;font-size:13.15200043px;font-family:'Roboto Condensed';-inkscape-font-specification:RobotoCondensed-Regular;writing-mode:lr-tb;fill:#ffffff;fill-opacity:1;fill-rule:nonzero;stroke:none" transform="matrix(1,0,0,-1,295.1,395.28)"><tspan id="tspan306" y="0" x="0 6.4313278 9.8903036 16.295328">6.50</tspan></text>
</g>
    </g>
    <path id="path308" style="fill:#873246;fill-opacity:0.50196001;fill-rule:evenodd;stroke:none" d="m 359.99,387.73 30.022,0 0,19.312 -30.022,0 0,-19.312 z"/>
    <g id="g310">
      <g clip-path="url(#clipPath314)" id="g312"><text id="text318" style="font-variant:normal;font-weight:normal;font-size:13.15200043px;font-family:'Roboto Condensed';-inkscape-font-specification:RobotoCondensed-Regular;writing-mode:lr-tb;fill:#ffffff;fill-opacity:1;fill-rule:nonzero;stroke:none" transform="matrix(1,0,0,-1,363.7,392.74)"><tspan id="tspan320" y="0" x="0 6.4313278 9.8903036 16.295328">6.50</tspan></text>
</g>
    </g>
    <path id="path322" style="fill:#873246;fill-opacity:0.50196001;fill-rule:evenodd;stroke:none" d="m 432.44,375.4 30.022,0 0,19.312 -30.022,0 0,-19.312 z"/>
    <g id="g324">
      <g clip-path="url(#clipPath328)" id="g326"><text id="text332" style="font-variant:normal;font-weight:normal;font-size:13.17599964px;font-family:'Roboto Condensed';-inkscape-font-specification:RobotoCondensed-Regular;writing-mode:lr-tb;fill:#ffffff;fill-opacity:1;fill-rule:nonzero;stroke:none" transform="matrix(1,0,0,-1,436.15,380.42)"><tspan id="tspan334" y="0" x="0 6.4562402 9.9215279 16.33824">4.75</tspan></text>
</g>
    </g>
    <g id="g336">
      <g clip-path="url(#clipPath340)" id="g338">
        <path id="path344" style="fill:#873246;fill-opacity:0.50196001;fill-rule:evenodd;stroke:none" d="m 514.83,375.4 30.022,0 0,19.312 -30.022,0 0,-19.312 z"/>
      </g>
    </g>
    <g id="g346">
      <g clip-path="url(#clipPath350)" id="g348"><text id="text354" style="font-variant:normal;font-weight:normal;font-size:13.17599964px;font-family:'Roboto Condensed';-inkscape-font-specification:RobotoCondensed-Regular;writing-mode:lr-tb;fill:#ffffff;fill-opacity:1;fill-rule:nonzero;stroke:none" transform="matrix(1,0,0,-1,518.57,380.42)"><tspan id="tspan356" y="0" x="0 6.4298878 9.8951759 16.298712">4.75</tspan></text>
</g>
    </g>
    <path id="path358" style="fill:#226b5a;fill-opacity:0.50196001;fill-rule:evenodd;stroke:none" d="m 308.78,438.59 30.022,0 0,19.312 -30.022,0 0,-19.312 z"/>
    <g id="g360">
      <g clip-path="url(#clipPath364)" id="g362"><text id="text368" style="font-variant:normal;font-weight:normal;font-size:13.17599964px;font-family:'Roboto Condensed';-inkscape-font-specification:RobotoCondensed-Regular;writing-mode:lr-tb;fill:#ffffff;fill-opacity:1;fill-rule:nonzero;stroke:none" transform="matrix(1,0,0,-1,312.48,443.62)"><tspan id="tspan370" y="0" x="0 6.4298878 9.8951759 16.298712">7.00</tspan></text>
</g>
    </g>
    <path id="path372" style="fill:#226b5a;fill-opacity:0.50196001;fill-rule:evenodd;stroke:none" d="m 361.44,431.7 30.022,0 0,19.312 -30.022,0 0,-19.312 z"/>
    <g id="g374">
      <g clip-path="url(#clipPath378)" id="g376"><text id="text382" style="font-variant:normal;font-weight:normal;font-size:13.17599964px;font-family:'Roboto Condensed';-inkscape-font-specification:RobotoCondensed-Regular;writing-mode:lr-tb;fill:#ffffff;fill-opacity:1;fill-rule:nonzero;stroke:none" transform="matrix(1,0,0,-1,365.14,436.73)"><tspan id="tspan384" y="0" x="0 6.4562402 9.9215279 16.364592">6.75</tspan></text>
</g>
    </g>
    <path id="path386" style="fill:#226b5a;fill-opacity:0.50196001;fill-rule:evenodd;stroke:none" d="m 432.44,416.74 30.022,0 0,19.312 -30.022,0 0,-19.312 z"/>
    <g id="g388">
      <g clip-path="url(#clipPath392)" id="g390"><text id="text396" style="font-variant:normal;font-weight:normal;font-size:13.15200043px;font-family:'Roboto Condensed';-inkscape-font-specification:RobotoCondensed-Regular;writing-mode:lr-tb;fill:#ffffff;fill-opacity:1;fill-rule:nonzero;stroke:none" transform="matrix(1,0,0,-1,436.15,421.75)"><tspan id="tspan398" y="0" x="0 6.4576321 9.9166079 16.347937">6.25</tspan></text>
</g>
    </g>
    <g id="g400">
      <g clip-path="url(#clipPath404)" id="g402">
        <path id="path408" style="fill:#226b5a;fill-opacity:0.50196001;fill-rule:evenodd;stroke:none" d="m 514.83,409.85 30.022,0 0,19.312 -30.022,0 0,-19.312 z"/>
      </g>
    </g>
    <g id="g410">
      <g clip-path="url(#clipPath414)" id="g412"><text id="text418" style="font-variant:normal;font-weight:normal;font-size:13.15200043px;font-family:'Roboto Condensed';-inkscape-font-specification:RobotoCondensed-Regular;writing-mode:lr-tb;fill:#ffffff;fill-opacity:1;fill-rule:nonzero;stroke:none" transform="matrix(1,0,0,-1,518.57,414.86)"><tspan id="tspan420" y="0" x="0 6.4313278 9.8903036 16.295328">6.00</tspan></text>
</g>
    </g>
    <g id="g422">
      <g clip-path="url(#clipPath426)" id="g424"><text id="text430" style="font-variant:normal;font-weight:normal;font-size:13.15200043px;font-family:'Roboto Condensed';-inkscape-font-specification:RobotoCondensed-Regular;writing-mode:lr-tb;fill:#000000;fill-opacity:1;fill-rule:nonzero;stroke:none" transform="matrix(1,0,0,-1,58.872,287.26)"><tspan id="tspan432" y="0" x="0">2</tspan></text>
</g>
    </g>
    <g id="g434">
      <g clip-path="url(#clipPath438)" id="g436"><text id="text442" style="font-variant:normal;font-weight:normal;font-size:13.17599964px;font-family:'Roboto Condensed';-inkscape-font-specification:RobotoCondensed-Regular;writing-mode:lr-tb;fill:#000000;fill-opacity:1;fill-rule:nonzero;stroke:none" transform="matrix(1,0,0,-1,58.872,314.83)"><tspan id="tspan444" y="0" x="0">3</tspan></text>
</g>
    </g>
    <g id="g446">
      <g clip-path="url(#clipPath450)" id="g448"><text id="text454" style="font-variant:normal;font-weight:normal;font-size:13.15200043px;font-family:'Roboto Condensed';-inkscape-font-specification:RobotoCondensed-Regular;writing-mode:lr-tb;fill:#000000;fill-opacity:1;fill-rule:nonzero;stroke:none" transform="matrix(1,0,0,-1,58.872,342.38)"><tspan id="tspan456" y="0" x="0">4</tspan></text>
</g>
    </g>
    <g id="g458">
      <g clip-path="url(#clipPath462)" id="g460"><text id="text466" style="font-variant:normal;font-weight:normal;font-size:13.17599964px;font-family:'Roboto Condensed';-inkscape-font-specification:RobotoCondensed-Regular;writing-mode:lr-tb;fill:#000000;fill-opacity:1;fill-rule:nonzero;stroke:none" transform="matrix(1,0,0,-1,58.872,369.96)"><tspan id="tspan468" y="0" x="0">5</tspan></text>
</g>
    </g>
    <g id="g470">
      <g clip-path="url(#clipPath474)" id="g472"><text id="text478" style="font-variant:normal;font-weight:normal;font-size:13.17599964px;font-family:'Roboto Condensed';-inkscape-font-specification:RobotoCondensed-Regular;writing-mode:lr-tb;fill:#000000;fill-opacity:1;fill-rule:nonzero;stroke:none" transform="matrix(1,0,0,-1,58.872,397.54)"><tspan id="tspan480" y="0" x="0">6</tspan></text>
</g>
    </g>
    <g id="g482">
      <g clip-path="url(#clipPath486)" id="g484"><text id="text490" style="font-variant:normal;font-weight:normal;font-size:13.15200043px;font-family:'Roboto Condensed';-inkscape-font-specification:RobotoCondensed-Regular;writing-mode:lr-tb;fill:#000000;fill-opacity:1;fill-rule:nonzero;stroke:none" transform="matrix(1,0,0,-1,58.872,425.09)"><tspan id="tspan492" y="0" x="0">7</tspan></text>
</g>
    </g>
    <g id="g494">
      <g clip-path="url(#clipPath498)" id="g496"><text id="text502" style="font-variant:normal;font-weight:normal;font-size:13.17599964px;font-family:'Roboto Condensed';-inkscape-font-specification:RobotoCondensed-Regular;writing-mode:lr-tb;fill:#000000;fill-opacity:1;fill-rule:nonzero;stroke:none" transform="matrix(1,0,0,-1,58.872,452.66)"><tspan id="tspan504" y="0" x="0">8</tspan></text>
</g>
    </g>
    <g id="g506">
      <g clip-path="url(#clipPath510)" id="g508"><text id="text514" style="font-variant:normal;font-weight:normal;font-size:13.15200043px;font-family:'Roboto Condensed';-inkscape-font-specification:RobotoCondensed-Regular;writing-mode:lr-tb;fill:#000000;fill-opacity:1;fill-rule:nonzero;stroke:none" transform="matrix(1,0,0,-1,58.872,480.22)"><tspan id="tspan516" y="0" x="0">9</tspan></text>
</g>
    </g>
    <g id="g518">
      <g clip-path="url(#clipPath522)" id="g520"><text id="text526" style="font-variant:normal;font-weight:normal;font-size:13.15200043px;font-family:'Roboto Condensed';-inkscape-font-specification:RobotoCondensed-Regular;writing-mode:lr-tb;fill:#000000;fill-opacity:1;fill-rule:nonzero;stroke:none" transform="matrix(1,0,0,-1,52.392,507.79)"><tspan id="tspan528" y="0" x="0 6.4319878">10</tspan></text>
</g>
    </g>
    <g id="g530">
      <g clip-path="url(#clipPath534)" id="g532"><text id="text538" style="font-variant:normal;font-weight:normal;font-size:13.17599964px;font-family:'Roboto Condensed';-inkscape-font-specification:RobotoCondensed-Regular;writing-mode:lr-tb;fill:#000000;fill-opacity:1;fill-rule:nonzero;stroke:none" transform="matrix(1,0,0,-1,62.88,270.43)"><tspan id="tspan540" y="0" x="0 6.2849522 12.596256 18.97344 23.861736 30.278448">Jan/23</tspan></text>
</g>
    </g>
    <g id="g542">
      <g clip-path="url(#clipPath546)" id="g544"><text id="text550" style="font-variant:normal;font-weight:normal;font-size:13.17599964px;font-family:'Roboto Condensed';-inkscape-font-specification:RobotoCondensed-Regular;writing-mode:lr-tb;fill:#000000;fill-opacity:1;fill-rule:nonzero;stroke:none" transform="matrix(1,0,0,-1,156.38,270.43)"><tspan id="tspan552" y="0" x="0 6.3113041 12.622608 19.065672 23.953968 30.397032">Jan/24</tspan></text>
</g>
    </g>
    <g id="g554">
      <g clip-path="url(#clipPath558)" id="g556"><text id="text562" style="font-variant:normal;font-weight:normal;font-size:13.17599964px;font-family:'Roboto Condensed';-inkscape-font-specification:RobotoCondensed-Regular;writing-mode:lr-tb;fill:#000000;fill-opacity:1;fill-rule:nonzero;stroke:none" transform="matrix(1,0,0,-1,249.91,270.43)"><tspan id="tspan564" y="0" x="0 6.2849522 12.596256 18.97344 23.861736 30.3048">Jan/25</tspan></text>
</g>
    </g>
    <g id="g566">
      <g clip-path="url(#clipPath570)" id="g568"><text id="text574" style="font-variant:normal;font-weight:normal;font-size:13.17599964px;font-family:'Roboto Condensed';-inkscape-font-specification:RobotoCondensed-Regular;writing-mode:lr-tb;fill:#000000;fill-opacity:1;fill-rule:nonzero;stroke:none" transform="matrix(1,0,0,-1,343.42,270.43)"><tspan id="tspan576" y="0" x="0 6.3113041 12.622608 19.065672 23.953968 30.397032">Jan/26</tspan></text>
</g>
    </g>
    <g id="g578">
      <g clip-path="url(#clipPath582)" id="g580"><text id="text586" style="font-variant:normal;font-weight:normal;font-size:13.17599964px;font-family:'Roboto Condensed';-inkscape-font-specification:RobotoCondensed-Regular;writing-mode:lr-tb;fill:#000000;fill-opacity:1;fill-rule:nonzero;stroke:none" transform="matrix(1,0,0,-1,436.94,270.43)"><tspan id="tspan588" y="0" x="0 6.2849522 12.596256 18.97344 23.861736 30.3048">Jan/27</tspan></text>
</g>
    </g>
    <g id="g590">
      <g clip-path="url(#clipPath594)" id="g592"><text id="text598" style="font-variant:normal;font-weight:bold;font-size:15.74400043px;font-family:'Roboto Condensed';-inkscape-font-specification:RobotoCondensed-Bold;writing-mode:lr-tb;fill:#000000;fill-opacity:1;fill-rule:nonzero;stroke:none" transform="matrix(1,0,0,-1,206.95,519.26)"><tspan id="tspan600" y="0" x="0 8.9740801 16.704384 24.434689 36.368641 44.098946 53.498112 57.119232 66.077568 73.918083 77.9328 81.900291 89.221245 96.243073 99.659523 108.3817 115.79712 120.63053 128.23488 131.66707 140.62541 148.08806 152.92148">CEEMEA Policy Rate Path</tspan></text>
</g>
    </g>
    <path id="path602" style="fill:none;stroke:#005aa4;stroke-width:1.7881;stroke-linecap:round;stroke-linejoin:round;stroke-miterlimit:10;stroke-dasharray:none;stroke-opacity:1" d="m 106.66,374.88 22.89,0"/>
    <g id="g604">
      <g clip-path="url(#clipPath608)" id="g606"><text id="text612" style="font-variant:normal;font-weight:normal;font-size:13.17599964px;font-family:'Roboto Condensed';-inkscape-font-specification:RobotoCondensed-Regular;writing-mode:lr-tb;fill:#005aa4;fill-opacity:1;fill-rule:nonzero;stroke:none" transform="matrix(1,0,0,-1,132,370.9)"><tspan id="tspan614" y="0" x="0 7.2995038 13.874328 16.891632 23.163408 29.44836">Poland</tspan></text>
</g>
    </g>
    <path id="path616" style="fill:none;stroke:#d0b86a;stroke-width:1.7881;stroke-linecap:round;stroke-linejoin:round;stroke-miterlimit:10;stroke-dasharray:none;stroke-opacity:1" d="m 106.66,353.84 22.89,0"/>
    <g id="g618">
      <g clip-path="url(#clipPath622)" id="g620"><text id="text626" style="font-variant:normal;font-weight:normal;font-size:13.15200043px;font-family:'Roboto Condensed';-inkscape-font-specification:RobotoCondensed-Regular;writing-mode:lr-tb;fill:#b39638;fill-opacity:1;fill-rule:nonzero;stroke:none" transform="matrix(1,0,0,-1,132,349.85)"><tspan id="tspan628" y="0" x="0 7.4571838 13.152 19.307137 25.291296 31.709473 34.721279 41.573471 47.728607 54.278305 60.56496 66.996284 70.008095 73.019905">Czech Republic</tspan></text>
</g>
    </g>
    <path id="path630" style="fill:none;stroke:#873246;stroke-width:1.7881;stroke-linecap:round;stroke-linejoin:round;stroke-miterlimit:10;stroke-dasharray:none;stroke-opacity:1" d="m 106.66,332.81 22.89,0"/>
    <g id="g632">
      <g clip-path="url(#clipPath636)" id="g634"><text id="text640" style="font-variant:normal;font-weight:normal;font-size:13.17599964px;font-family:'Roboto Condensed';-inkscape-font-specification:RobotoCondensed-Regular;writing-mode:lr-tb;fill:#873246;fill-opacity:1;fill-rule:nonzero;stroke:none" transform="matrix(1,0,0,-1,132,328.82)"><tspan id="tspan642" y="0" x="0 8.1691198 14.454072 20.870785 27.300673 33.611977 37.446194">Hungary</tspan></text>
</g>
    </g>
    <path id="path644" style="fill:none;stroke:#226b5a;stroke-width:1.7881;stroke-linecap:round;stroke-linejoin:round;stroke-miterlimit:10;stroke-dasharray:none;stroke-opacity:1" d="m 106.66,311.77 22.89,0"/>
    <g id="g646">
      <g clip-path="url(#clipPath650)" id="g648"><text id="text654" style="font-variant:normal;font-weight:normal;font-size:13.15200043px;font-family:'Roboto Condensed';-inkscape-font-specification:RobotoCondensed-Regular;writing-mode:lr-tb;fill:#226b5a;fill-opacity:1;fill-rule:nonzero;stroke:none" transform="matrix(1,0,0,-1,132,307.78)"><tspan id="tspan656" y="0" x="0 6.8521919 13.454496 19.714848 23.594688 29.868193 32.880001 40.455551 44.611584 48.609791 51.621601 57.605759">South Africa</tspan></text>
</g>
    </g>
    <g id="g658">
      <g clip-path="url(#clipPath662)" id="g660"><text id="text666" style="font-variant:normal;font-weight:normal;font-size:13.15200043px;font-family:'Roboto Condensed';-inkscape-font-specification:RobotoCondensed-Regular;writing-mode:lr-tb;fill:#000000;fill-opacity:1;fill-rule:nonzero;stroke:none" transform="matrix(1,0,0,-1,460.01,490.78)"><tspan id="tspan668" y="0" x="0 9.9955196 16.847712 19.701696 26.014656 32.56435 36.562561 42.717697 48.846527 55.146336 61.143646 65.023491">MS Forecasts</tspan></text>
</g>
    </g>
  </g>
</svg>
