<?xml version="1.0" encoding="UTF-8" standalone="no"?>
<svg xmlns:dc="http://purl.org/dc/elements/1.1/" xmlns:cc="http://creativecommons.org/ns#" xmlns:rdf="http://www.w3.org/1999/02/22-rdf-syntax-ns#" xmlns:svg="http://www.w3.org/2000/svg" xmlns="http://www.w3.org/2000/svg" viewBox="16.8 15.6 1049.075 286.5625" height="286.5625" width="1049.075" xml:space="preserve" version="1.1" id="svg2">
  <metadata id="metadata8">
    <rdf:RDF>
      <cc:Work rdf:about="">
        <dc:format>image/svg+xml</dc:format>
        <dc:type rdf:resource="http://purl.org/dc/dcmitype/StillImage"/>
      </cc:Work>
    </rdf:RDF>
  </metadata>
  <defs id="defs6">
    <clipPath id="clipPath16" clipPathUnits="userSpaceOnUse">
      <path style="clip-rule:evenodd" id="path18" d="m 13.44,369.91 839.62,0 0,229.61 -839.62,0 0,-229.61 z"/>
    </clipPath>
    <clipPath id="clipPath26" clipPathUnits="userSpaceOnUse">
      <path style="clip-rule:evenodd" id="path28" d="m 13.44,369.91 839.62,0 0,229.61 -839.62,0 0,-229.61 z"/>
    </clipPath>
    <clipPath id="clipPath36" clipPathUnits="userSpaceOnUse">
      <path style="clip-rule:evenodd" id="path38" d="m 13.44,369.91 839.62,0 0,229.61 -839.62,0 0,-229.61 z"/>
    </clipPath>
    <clipPath id="clipPath46" clipPathUnits="userSpaceOnUse">
      <path style="clip-rule:evenodd" id="path48" d="m 13.44,369.91 839.62,0 0,229.61 -839.62,0 0,-229.61 z"/>
    </clipPath>
    <clipPath id="clipPath56" clipPathUnits="userSpaceOnUse">
      <path style="clip-rule:evenodd" id="path58" d="m 13.44,369.91 839.62,0 0,229.61 -839.62,0 0,-229.61 z"/>
    </clipPath>
    <clipPath id="clipPath66" clipPathUnits="userSpaceOnUse">
      <path style="clip-rule:evenodd" id="path68" d="m 13.44,369.91 839.62,0 0,229.61 -839.62,0 0,-229.61 z"/>
    </clipPath>
    <clipPath id="clipPath78" clipPathUnits="userSpaceOnUse">
      <path style="clip-rule:evenodd" id="path80" d="m 13.44,369.91 839.62,0 0,229.61 -839.62,0 0,-229.61 z"/>
    </clipPath>
    <clipPath id="clipPath90" clipPathUnits="userSpaceOnUse">
      <path style="clip-rule:evenodd" id="path92" d="m 13.44,369.91 839.62,0 0,229.61 -839.62,0 0,-229.61 z"/>
    </clipPath>
    <clipPath id="clipPath102" clipPathUnits="userSpaceOnUse">
      <path style="clip-rule:evenodd" id="path104" d="m 13.44,369.91 839.62,0 0,229.61 -839.62,0 0,-229.61 z"/>
    </clipPath>
    <clipPath id="clipPath114" clipPathUnits="userSpaceOnUse">
      <path style="clip-rule:evenodd" id="path116" d="m 13.44,369.91 839.62,0 0,229.61 -839.62,0 0,-229.61 z"/>
    </clipPath>
    <clipPath id="clipPath126" clipPathUnits="userSpaceOnUse">
      <path style="clip-rule:evenodd" id="path128" d="m 13.44,369.91 839.62,0 0,229.61 -839.62,0 0,-229.61 z"/>
    </clipPath>
    <clipPath id="clipPath138" clipPathUnits="userSpaceOnUse">
      <path style="clip-rule:evenodd" id="path140" d="m 13.44,369.91 839.62,0 0,229.61 -839.62,0 0,-229.61 z"/>
    </clipPath>
    <clipPath id="clipPath150" clipPathUnits="userSpaceOnUse">
      <path style="clip-rule:evenodd" id="path152" d="m 13.44,369.91 839.62,0 0,229.61 -839.62,0 0,-229.61 z"/>
    </clipPath>
    <clipPath id="clipPath162" clipPathUnits="userSpaceOnUse">
      <path style="clip-rule:evenodd" id="path164" d="m 13.44,369.91 839.62,0 0,229.61 -839.62,0 0,-229.61 z"/>
    </clipPath>
    <clipPath id="clipPath174" clipPathUnits="userSpaceOnUse">
      <path style="clip-rule:evenodd" id="path176" d="m 13.44,554.74 839.62,0 0,14.28 -839.62,0 0,-14.28 z"/>
    </clipPath>
    <clipPath id="clipPath186" clipPathUnits="userSpaceOnUse">
      <path style="clip-rule:evenodd" id="path188" d="m 13.44,539.5 839.62,0 0,14.28 -839.62,0 0,-14.28 z"/>
    </clipPath>
    <clipPath id="clipPath198" clipPathUnits="userSpaceOnUse">
      <path style="clip-rule:evenodd" id="path200" d="m 13.44,524.26 839.62,0 0,14.28 -839.62,0 0,-14.28 z"/>
    </clipPath>
    <clipPath id="clipPath210" clipPathUnits="userSpaceOnUse">
      <path style="clip-rule:evenodd" id="path212" d="m 13.44,524.26 839.62,0 0,14.28 -839.62,0 0,-14.28 z"/>
    </clipPath>
    <clipPath id="clipPath222" clipPathUnits="userSpaceOnUse">
      <path style="clip-rule:evenodd" id="path224" d="m 13.44,524.26 839.62,0 0,14.28 -839.62,0 0,-14.28 z"/>
    </clipPath>
    <clipPath id="clipPath234" clipPathUnits="userSpaceOnUse">
      <path style="clip-rule:evenodd" id="path236" d="m 13.44,524.26 839.62,0 0,14.28 -839.62,0 0,-14.28 z"/>
    </clipPath>
    <clipPath id="clipPath246" clipPathUnits="userSpaceOnUse">
      <path style="clip-rule:evenodd" id="path248" d="m 13.44,509.02 839.62,0 0,14.28 -839.62,0 0,-14.28 z"/>
    </clipPath>
    <clipPath id="clipPath258" clipPathUnits="userSpaceOnUse">
      <path style="clip-rule:evenodd" id="path260" d="m 13.44,509.02 839.62,0 0,14.28 -839.62,0 0,-14.28 z"/>
    </clipPath>
    <clipPath id="clipPath270" clipPathUnits="userSpaceOnUse">
      <path style="clip-rule:evenodd" id="path272" d="m 13.44,493.78 839.62,0 0,14.28 -839.62,0 0,-14.28 z"/>
    </clipPath>
    <clipPath id="clipPath282" clipPathUnits="userSpaceOnUse">
      <path style="clip-rule:evenodd" id="path284" d="m 13.44,493.78 839.62,0 0,14.28 -839.62,0 0,-14.28 z"/>
    </clipPath>
    <clipPath id="clipPath294" clipPathUnits="userSpaceOnUse">
      <path style="clip-rule:evenodd" id="path296" d="m 13.44,493.78 839.62,0 0,14.28 -839.62,0 0,-14.28 z"/>
    </clipPath>
    <clipPath id="clipPath306" clipPathUnits="userSpaceOnUse">
      <path style="clip-rule:evenodd" id="path308" d="m 13.44,478.54 839.62,0 0,14.28 -839.62,0 0,-14.28 z"/>
    </clipPath>
    <clipPath id="clipPath318" clipPathUnits="userSpaceOnUse">
      <path style="clip-rule:evenodd" id="path320" d="m 13.44,478.54 839.62,0 0,14.28 -839.62,0 0,-14.28 z"/>
    </clipPath>
    <clipPath id="clipPath330" clipPathUnits="userSpaceOnUse">
      <path style="clip-rule:evenodd" id="path332" d="m 13.44,478.54 839.62,0 0,14.28 -839.62,0 0,-14.28 z"/>
    </clipPath>
    <clipPath id="clipPath342" clipPathUnits="userSpaceOnUse">
      <path style="clip-rule:evenodd" id="path344" d="m 13.44,463.3 839.62,0 0,14.28 -839.62,0 0,-14.28 z"/>
    </clipPath>
    <clipPath id="clipPath354" clipPathUnits="userSpaceOnUse">
      <path style="clip-rule:evenodd" id="path356" d="m 13.44,463.3 839.62,0 0,14.28 -839.62,0 0,-14.28 z"/>
    </clipPath>
    <clipPath id="clipPath366" clipPathUnits="userSpaceOnUse">
      <path style="clip-rule:evenodd" id="path368" d="m 13.44,463.3 839.62,0 0,14.28 -839.62,0 0,-14.28 z"/>
    </clipPath>
    <clipPath id="clipPath378" clipPathUnits="userSpaceOnUse">
      <path style="clip-rule:evenodd" id="path380" d="m 13.44,463.3 839.62,0 0,14.28 -839.62,0 0,-14.28 z"/>
    </clipPath>
    <clipPath id="clipPath390" clipPathUnits="userSpaceOnUse">
      <path style="clip-rule:evenodd" id="path392" d="m 13.44,448.06 839.62,0 0,14.28 -839.62,0 0,-14.28 z"/>
    </clipPath>
    <clipPath id="clipPath402" clipPathUnits="userSpaceOnUse">
      <path style="clip-rule:evenodd" id="path404" d="m 13.44,448.06 839.62,0 0,14.28 -839.62,0 0,-14.28 z"/>
    </clipPath>
    <clipPath id="clipPath414" clipPathUnits="userSpaceOnUse">
      <path style="clip-rule:evenodd" id="path416" d="m 13.44,448.06 839.62,0 0,14.28 -839.62,0 0,-14.28 z"/>
    </clipPath>
    <clipPath id="clipPath426" clipPathUnits="userSpaceOnUse">
      <path style="clip-rule:evenodd" id="path428" d="m 13.44,432.82 839.62,0 0,14.28 -839.62,0 0,-14.28 z"/>
    </clipPath>
    <clipPath id="clipPath438" clipPathUnits="userSpaceOnUse">
      <path style="clip-rule:evenodd" id="path440" d="m 13.44,432.82 839.62,0 0,14.28 -839.62,0 0,-14.28 z"/>
    </clipPath>
    <clipPath id="clipPath450" clipPathUnits="userSpaceOnUse">
      <path style="clip-rule:evenodd" id="path452" d="m 13.44,417.55 839.62,0 0,14.304 -839.62,0 0,-14.304 z"/>
    </clipPath>
    <clipPath id="clipPath462" clipPathUnits="userSpaceOnUse">
      <path style="clip-rule:evenodd" id="path464" d="m 13.44,402.31 839.62,0 0,14.28 -839.62,0 0,-14.28 z"/>
    </clipPath>
    <clipPath id="clipPath474" clipPathUnits="userSpaceOnUse">
      <path style="clip-rule:evenodd" id="path476" d="m 13.44,386.59 839.62,0 0,14.76 -839.62,0 0,-14.76 z"/>
    </clipPath>
    <clipPath id="clipPath486" clipPathUnits="userSpaceOnUse">
      <path style="clip-rule:evenodd" id="path488" d="m 13.44,386.59 839.62,0 0,14.76 -839.62,0 0,-14.76 z"/>
    </clipPath>
    <clipPath id="clipPath498" clipPathUnits="userSpaceOnUse">
      <path style="clip-rule:evenodd" id="path500" d="m 13.44,386.59 839.62,0 0,14.76 -839.62,0 0,-14.76 z"/>
    </clipPath>
    <clipPath id="clipPath510" clipPathUnits="userSpaceOnUse">
      <path style="clip-rule:evenodd" id="path512" d="m 13.44,386.59 839.62,0 0,14.76 -839.62,0 0,-14.76 z"/>
    </clipPath>
    <clipPath id="clipPath522" clipPathUnits="userSpaceOnUse">
      <path style="clip-rule:evenodd" id="path524" d="m 13.44,386.59 839.62,0 0,14.76 -839.62,0 0,-14.76 z"/>
    </clipPath>
    <clipPath id="clipPath534" clipPathUnits="userSpaceOnUse">
      <path style="clip-rule:evenodd" id="path536" d="m 13.44,386.59 839.62,0 0,14.76 -839.62,0 0,-14.76 z"/>
    </clipPath>
    <clipPath id="clipPath546" clipPathUnits="userSpaceOnUse">
      <path style="clip-rule:evenodd" id="path548" d="m 13.44,386.59 839.62,0 0,14.76 -839.62,0 0,-14.76 z"/>
    </clipPath>
    <clipPath id="clipPath558" clipPathUnits="userSpaceOnUse">
      <path style="clip-rule:evenodd" id="path560" d="m 13.44,386.59 839.62,0 0,14.76 -839.62,0 0,-14.76 z"/>
    </clipPath>
    <clipPath id="clipPath570" clipPathUnits="userSpaceOnUse">
      <path style="clip-rule:evenodd" id="path572" d="m 13.44,369.91 839.62,0 0,229.61 -839.62,0 0,-229.61 z"/>
    </clipPath>
    <clipPath id="clipPath606" clipPathUnits="userSpaceOnUse">
      <path style="clip-rule:evenodd" id="path608" d="m 11.52,367.87 843.58,0 0,233.57 -843.58,0 0,-233.57 z"/>
    </clipPath>
  </defs>
  <g transform="matrix(1.25,0,0,-1.25,0,765)" id="g10">
    <g id="g12">
      <g clip-path="url(#clipPath16)" id="g14">
        <path id="path20" style="fill:#005aa4;fill-opacity:1;fill-rule:evenodd;stroke:none" d="m 12.96,584.64 839.74,0 0,15.36 -839.74,0 0,-15.36 z"/>
      </g>
    </g>
    <g id="g22">
      <g clip-path="url(#clipPath26)" id="g24">
        <path id="path30" style="fill:#44b3e1;fill-opacity:1;fill-rule:evenodd;stroke:none" d="m 12.96,569.38 839.74,0 0,15.384 -839.74,0 0,-15.384 z"/>
      </g>
    </g>
    <g id="g32">
      <g clip-path="url(#clipPath36)" id="g34">
        <path id="path40" style="fill:#ffffff;fill-opacity:1;fill-rule:evenodd;stroke:none" d="m 12.96,493.18 839.74,0 0,76.32 -839.74,0 0,-76.32 z"/>
      </g>
    </g>
    <g id="g42">
      <g clip-path="url(#clipPath46)" id="g44">
        <path id="path50" style="fill:#ffffff;fill-opacity:1;fill-rule:evenodd;stroke:none" d="m 12.96,477.94 751.06,0 0,15.36 -751.06,0 0,-15.36 z"/>
      </g>
    </g>
    <g id="g52">
      <g clip-path="url(#clipPath56)" id="g54">
        <path id="path60" style="fill:#ffffff;fill-opacity:1;fill-rule:evenodd;stroke:none" d="m 12.96,370.27 839.74,0 0,107.78 -839.74,0 0,-107.78 z"/>
      </g>
    </g>
    <g id="g62">
      <g clip-path="url(#clipPath66)" id="g64"><text id="text70" style="font-variant:normal;font-weight:bold;font-size:8.52000046px;font-family:Roboto;-inkscape-font-specification:Roboto-Bold;writing-mode:lr-tb;fill:#f2f2f2;fill-opacity:1;fill-rule:nonzero;stroke:none" transform="matrix(1,0,0,-1,14.76,589.44)"><tspan id="tspan72" y="0" x="0 5.27388 9.8320799 17.150761 19.40856">Semis</tspan></text>
</g>
    </g>
    <g id="g74">
      <g clip-path="url(#clipPath78)" id="g76"><text id="text82" style="font-variant:normal;font-weight:bold;font-size:8.52000046px;font-family:Roboto;-inkscape-font-specification:Roboto-Bold;writing-mode:lr-tb;fill:#f2f2f2;fill-opacity:1;fill-rule:nonzero;stroke:none" transform="matrix(1,0,0,-1,284.78,589.44)"><tspan id="tspan84" y="0" x="0 4.91998 9.8399601 14.75994">2021</tspan></text>
</g>
    </g>
    <g id="g86">
      <g clip-path="url(#clipPath90)" id="g88"><text id="text94" style="font-variant:normal;font-weight:bold;font-size:8.52000046px;font-family:Roboto;-inkscape-font-specification:Roboto-Bold;writing-mode:lr-tb;fill:#f2f2f2;fill-opacity:1;fill-rule:nonzero;stroke:none" transform="matrix(1,0,0,-1,368.33,589.44)"><tspan id="tspan96" y="0" x="0 4.91998 9.8399601 14.75994">2022</tspan></text>
</g>
    </g>
    <g id="g98">
      <g clip-path="url(#clipPath102)" id="g100"><text id="text106" style="font-variant:normal;font-weight:bold;font-size:8.52000046px;font-family:Roboto;-inkscape-font-specification:Roboto-Bold;writing-mode:lr-tb;fill:#f2f2f2;fill-opacity:1;fill-rule:nonzero;stroke:none" transform="matrix(1,0,0,-1,451.85,589.44)"><tspan id="tspan108" y="0" x="0 4.91998 9.8399601 14.75994">2023</tspan></text>
</g>
    </g>
    <g id="g110">
      <g clip-path="url(#clipPath114)" id="g112"><text id="text118" style="font-variant:normal;font-weight:bold;font-size:8.52000046px;font-family:Roboto;-inkscape-font-specification:Roboto-Bold;writing-mode:lr-tb;fill:#f2f2f2;fill-opacity:1;fill-rule:nonzero;stroke:none" transform="matrix(1,0,0,-1,535.39,589.44)"><tspan id="tspan120" y="0" x="0 4.91998 9.8399601 14.75994">2024</tspan></text>
</g>
    </g>
    <g id="g122">
      <g clip-path="url(#clipPath126)" id="g124"><text id="text130" style="font-variant:normal;font-weight:bold;font-size:8.52000046px;font-family:Roboto;-inkscape-font-specification:Roboto-Bold;writing-mode:lr-tb;fill:#f2f2f2;fill-opacity:1;fill-rule:nonzero;stroke:none" transform="matrix(1,0,0,-1,621.43,589.44)"><tspan id="tspan132" y="0" x="0 4.91998 9.8399601 14.75994">2025</tspan></text>
</g>
    </g>
    <g id="g134">
      <g clip-path="url(#clipPath138)" id="g136"><text id="text142" style="font-variant:normal;font-weight:bold;font-size:8.52000046px;font-family:Roboto;-inkscape-font-specification:Roboto-Bold;writing-mode:lr-tb;fill:#f2f2f2;fill-opacity:1;fill-rule:nonzero;stroke:none" transform="matrix(1,0,0,-1,710.11,589.44)"><tspan id="tspan144" y="0" x="0 4.91998 9.8399601 14.75994">2026</tspan></text>
</g>
    </g>
    <g id="g146">
      <g clip-path="url(#clipPath150)" id="g148"><text id="text154" style="font-variant:normal;font-weight:bold;font-size:8.52000046px;font-family:Roboto;-inkscape-font-specification:Roboto-Bold;writing-mode:lr-tb;fill:#f2f2f2;fill-opacity:1;fill-rule:nonzero;stroke:none" transform="matrix(1,0,0,-1,798.82,589.44)"><tspan id="tspan156" y="0" x="0 4.91998 9.8399601 14.75994">2027</tspan></text>
</g>
    </g>
    <g id="g158">
      <g clip-path="url(#clipPath162)" id="g160"><text id="text166" style="font-variant:normal;font-weight:bold;font-size:8.52000046px;font-family:Roboto;-inkscape-font-specification:Roboto-Bold;writing-mode:lr-tb;fill:#000000;fill-opacity:1;fill-rule:nonzero;stroke:none" transform="matrix(1,0,0,-1,34.56,574.2)"><tspan id="tspan168" y="0" x="0 5.6317201 10.41996 12.67776 15.55752 20.013479 22.169041 25.159559 30.569759">Units (K)</tspan></text>
</g>
    </g>
    <g id="g170">
      <g clip-path="url(#clipPath174)" id="g172"><text id="text178" style="font-variant:normal;font-weight:bold;font-size:11.03999996px;font-family:'Aptos Narrow';-inkscape-font-specification:'Aptos Narrow Bold';writing-mode:lr-tb;fill:#000000;fill-opacity:1;fill-rule:nonzero;stroke:none" transform="matrix(1,0,0,-1,14.88,558.22)"><tspan id="tspan180" y="0" x="0 6.1051202 12.11088 15.11376">ASIC</tspan></text>
</g>
    </g>
    <g id="g182">
      <g clip-path="url(#clipPath186)" id="g184"><text id="text190" style="font-variant:normal;font-weight:bold;font-size:11.03999996px;font-family:'Aptos Narrow';-inkscape-font-specification:'Aptos Narrow Bold';writing-mode:lr-tb;fill:#000000;fill-opacity:1;fill-rule:nonzero;stroke:none" transform="matrix(1,0,0,-1,90.744,542.98)"><tspan id="tspan192" y="0" x="0 7.0766401 12.82848 18.58032 23.625601 26.617439">Google</tspan></text>
</g>
    </g>
    <g id="g194">
      <g clip-path="url(#clipPath198)" id="g196"><text id="text202" style="font-variant:normal;font-weight:normal;font-size:11.03999996px;font-family:'Aptos Narrow';-inkscape-font-specification:'Aptos Narrow';writing-mode:lr-tb;fill:#000000;fill-opacity:1;fill-rule:nonzero;stroke:none" transform="matrix(1,0,0,-1,109.1,527.74)"><tspan id="tspan204" y="0" x="0 4.8134398 10.6536 17.509439 19.573919 25.204321 30.591841 33.70512 39.225121 42.58128 47.9688 50.033279 54.570721">TPU before v5</tspan></text>
</g>
    </g>
    <g id="g206">
      <g clip-path="url(#clipPath210)" id="g208"><text id="text214" style="font-variant:normal;font-weight:normal;font-size:11.03999996px;font-family:'Aptos Narrow';-inkscape-font-specification:'Aptos Narrow';writing-mode:lr-tb;fill:#000000;fill-opacity:1;fill-rule:nonzero;stroke:none" transform="matrix(1,0,0,-1,317.09,527.74)"><tspan id="tspan216" y="0" x="0 5.6399798 11.27996">527</tspan></text>
</g>
    </g>
    <g id="g218">
      <g clip-path="url(#clipPath222)" id="g220"><text id="text226" style="font-variant:normal;font-weight:normal;font-size:11.03999996px;font-family:'Aptos Narrow';-inkscape-font-specification:'Aptos Narrow';writing-mode:lr-tb;fill:#000000;fill-opacity:1;fill-rule:nonzero;stroke:none" transform="matrix(1,0,0,-1,400.61,527.74)"><tspan id="tspan228" y="0" x="0 5.6399798 11.27996">632</tspan></text>
</g>
    </g>
    <g id="g230">
      <g clip-path="url(#clipPath234)" id="g232"><text id="text238" style="font-variant:normal;font-weight:normal;font-size:11.03999996px;font-family:'Aptos Narrow';-inkscape-font-specification:'Aptos Narrow';writing-mode:lr-tb;fill:#000000;fill-opacity:1;fill-rule:nonzero;stroke:none" transform="matrix(1,0,0,-1,478.49,527.74)"><tspan id="tspan240" y="0" x="0 5.6399798 11.27996 16.919941">1093</tspan></text>
</g>
    </g>
    <g id="g242">
      <g clip-path="url(#clipPath246)" id="g244"><text id="text250" style="font-variant:normal;font-weight:normal;font-size:11.03999996px;font-family:'Aptos Narrow';-inkscape-font-specification:'Aptos Narrow';writing-mode:lr-tb;fill:#000000;fill-opacity:1;fill-rule:nonzero;stroke:none" transform="matrix(1,0,0,-1,109.1,512.5)"><tspan id="tspan252" y="0" x="0 4.8134398 10.6536 17.509439 19.573919 24.14448 29.74176">TPU v5p</tspan></text>
</g>
    </g>
    <g id="g254">
      <g clip-path="url(#clipPath258)" id="g256"><text id="text262" style="font-variant:normal;font-weight:normal;font-size:11.03999996px;font-family:'Aptos Narrow';-inkscape-font-specification:'Aptos Narrow';writing-mode:lr-tb;fill:#000000;fill-opacity:1;fill-rule:nonzero;stroke:none" transform="matrix(1,0,0,-1,523.27,512.5)"><tspan id="tspan264" y="0" x="0 5.6399798 11.27996">850</tspan></text>
</g>
    </g>
    <g id="g266">
      <g clip-path="url(#clipPath270)" id="g268"><text id="text274" style="font-variant:normal;font-weight:normal;font-size:11.03999996px;font-family:'Aptos Narrow';-inkscape-font-specification:'Aptos Narrow';writing-mode:lr-tb;fill:#000000;fill-opacity:1;fill-rule:nonzero;stroke:none" transform="matrix(1,0,0,-1,109.1,497.26)"><tspan id="tspan276" y="0" x="0 4.8134398 10.6536 17.509439 19.573919 24.14448 29.74176">TPU v5e</tspan></text>
</g>
    </g>
    <g id="g278">
      <g clip-path="url(#clipPath282)" id="g280"><text id="text286" style="font-variant:normal;font-weight:normal;font-size:11.03999996px;font-family:'Aptos Narrow';-inkscape-font-specification:'Aptos Narrow';writing-mode:lr-tb;fill:#000000;fill-opacity:1;fill-rule:nonzero;stroke:none" transform="matrix(1,0,0,-1,523.27,497.26)"><tspan id="tspan288" y="0" x="0 5.6399798 11.27996 16.919941">1530</tspan></text>
</g>
    </g>
    <g id="g290">
      <g clip-path="url(#clipPath294)" id="g292"><text id="text298" style="font-variant:normal;font-weight:normal;font-size:11.03999996px;font-family:'Aptos Narrow';-inkscape-font-specification:'Aptos Narrow';writing-mode:lr-tb;fill:#000000;fill-opacity:1;fill-rule:nonzero;stroke:none" transform="matrix(1,0,0,-1,606.79,497.26)"><tspan id="tspan300" y="0" x="0 5.6399798 11.27996">250</tspan></text>
</g>
    </g>
    <g id="g302">
      <g clip-path="url(#clipPath306)" id="g304"><text id="text310" style="font-variant:normal;font-weight:normal;font-size:11.03999996px;font-family:'Aptos Narrow';-inkscape-font-specification:'Aptos Narrow';writing-mode:lr-tb;fill:#000000;fill-opacity:1;fill-rule:nonzero;stroke:none" transform="matrix(1,0,0,-1,109.1,482.02)"><tspan id="tspan312" y="0" x="0 4.8134398 10.6536 17.509439 19.573919 24.14448">TPU v6</tspan></text>
</g>
    </g>
    <g id="g314">
      <g clip-path="url(#clipPath318)" id="g316"><text id="text322" style="font-variant:normal;font-weight:normal;font-size:11.03999996px;font-family:'Aptos Narrow';-inkscape-font-specification:'Aptos Narrow';writing-mode:lr-tb;fill:#000000;fill-opacity:1;fill-rule:nonzero;stroke:none" transform="matrix(1,0,0,-1,606.79,482.02)"><tspan id="tspan324" y="0" x="0 5.6399798 11.27996 16.919941">1000</tspan></text>
</g>
    </g>
    <g id="g326">
      <g clip-path="url(#clipPath330)" id="g328"><text id="text334" style="font-variant:normal;font-weight:normal;font-size:11.03999996px;font-family:'Aptos Narrow';-inkscape-font-specification:'Aptos Narrow';writing-mode:lr-tb;fill:#000000;fill-opacity:1;fill-rule:nonzero;stroke:none" transform="matrix(1,0,0,-1,695.47,482.02)"><tspan id="tspan336" y="0" x="0 5.6399798 11.27996">300</tspan></text>
</g>
    </g>
    <g id="g338">
      <g clip-path="url(#clipPath342)" id="g340"><text id="text346" style="font-variant:normal;font-weight:normal;font-size:11.03999996px;font-family:'Aptos Narrow';-inkscape-font-specification:'Aptos Narrow';writing-mode:lr-tb;fill:#000000;fill-opacity:1;fill-rule:nonzero;stroke:none" transform="matrix(1,0,0,-1,109.1,466.78)"><tspan id="tspan348" y="0" x="0 4.8134398 10.6536 17.509439 22.08">TPUv7</tspan></text>
</g>
    </g>
    <g id="g350">
      <g clip-path="url(#clipPath354)" id="g352"><text id="text358" style="font-variant:normal;font-weight:normal;font-size:11.03999996px;font-family:'Aptos Narrow';-inkscape-font-specification:'Aptos Narrow';writing-mode:lr-tb;fill:#000000;fill-opacity:1;fill-rule:nonzero;stroke:none" transform="matrix(1,0,0,-1,606.79,466.78)"><tspan id="tspan360" y="0" x="0 5.6399798 11.27996">500</tspan></text>
</g>
    </g>
    <g id="g362">
      <g clip-path="url(#clipPath366)" id="g364"><text id="text370" style="font-variant:normal;font-weight:normal;font-size:11.03999996px;font-family:'Aptos Narrow';-inkscape-font-specification:'Aptos Narrow';writing-mode:lr-tb;fill:#000000;fill-opacity:1;fill-rule:nonzero;stroke:none" transform="matrix(1,0,0,-1,695.47,466.78)"><tspan id="tspan372" y="0" x="0 5.6399798 11.27996 16.919941">2500</tspan></text>
</g>
    </g>
    <g id="g374">
      <g clip-path="url(#clipPath378)" id="g376"><text id="text382" style="font-variant:normal;font-weight:normal;font-size:11.03999996px;font-family:'Aptos Narrow';-inkscape-font-specification:'Aptos Narrow';writing-mode:lr-tb;fill:#000000;fill-opacity:1;fill-rule:nonzero;stroke:none" transform="matrix(1,0,0,-1,784.18,466.78)"><tspan id="tspan384" y="0" x="0 5.6399798 11.27996 16.919941">1200</tspan></text>
</g>
    </g>
    <g id="g386">
      <g clip-path="url(#clipPath390)" id="g388"><text id="text394" style="font-variant:normal;font-weight:normal;font-size:11.03999996px;font-family:'Aptos Narrow';-inkscape-font-specification:'Aptos Narrow';writing-mode:lr-tb;fill:#000000;fill-opacity:1;fill-rule:nonzero;stroke:none" transform="matrix(1,0,0,-1,109.1,451.54)"><tspan id="tspan396" y="0" x="0 4.8134398 10.6536 17.509439 19.573919 24.14448">TPU v8</tspan></text>
</g>
    </g>
    <g id="g398">
      <g clip-path="url(#clipPath402)" id="g400"><text id="text406" style="font-variant:normal;font-weight:normal;font-size:11.03999996px;font-family:'Aptos Narrow';-inkscape-font-specification:'Aptos Narrow';writing-mode:lr-tb;fill:#000000;fill-opacity:1;fill-rule:nonzero;stroke:none" transform="matrix(1,0,0,-1,695.47,451.54)"><tspan id="tspan408" y="0" x="0 5.6399798 11.27996">200</tspan></text>
</g>
    </g>
    <g id="g410">
      <g clip-path="url(#clipPath414)" id="g412"><text id="text418" style="font-variant:normal;font-weight:normal;font-size:11.03999996px;font-family:'Aptos Narrow';-inkscape-font-specification:'Aptos Narrow';writing-mode:lr-tb;fill:#000000;fill-opacity:1;fill-rule:nonzero;stroke:none" transform="matrix(1,0,0,-1,784.18,451.54)"><tspan id="tspan420" y="0" x="0 5.6399798 11.27996 16.919941">1000</tspan></text>
</g>
    </g>
    <g id="g422">
      <g clip-path="url(#clipPath426)" id="g424"><text id="text430" style="font-variant:normal;font-weight:normal;font-size:11.03999996px;font-family:'Aptos Narrow';-inkscape-font-specification:'Aptos Narrow';writing-mode:lr-tb;fill:#000000;fill-opacity:1;fill-rule:nonzero;stroke:none" transform="matrix(1,0,0,-1,109.1,436.3)"><tspan id="tspan432" y="0" x="0 4.8134398 10.6536 17.509439 19.573919 24.14448">TPU v9</tspan></text>
</g>
    </g>
    <g id="g434">
      <g clip-path="url(#clipPath438)" id="g436"><text id="text442" style="font-variant:normal;font-weight:normal;font-size:11.03999996px;font-family:'Aptos Narrow';-inkscape-font-specification:'Aptos Narrow';writing-mode:lr-tb;fill:#000000;fill-opacity:1;fill-rule:nonzero;stroke:none" transform="matrix(1,0,0,-1,784.18,436.3)"><tspan id="tspan444" y="0" x="0 5.6399798 11.27996">800</tspan></text>
</g>
    </g>
    <g id="g446">
      <g clip-path="url(#clipPath450)" id="g448"><text id="text454" style="font-variant:normal;font-weight:normal;font-size:11.03999996px;font-family:'Aptos Narrow';-inkscape-font-specification:'Aptos Narrow';writing-mode:lr-tb;fill:#000000;fill-opacity:1;fill-rule:nonzero;stroke:none" transform="matrix(1,0,0,-1,109.1,421.03)"><tspan id="tspan456" y="0" x="0 4.8134398 10.6536 17.509439 19.573919 24.14448 29.74176">TPU v10</tspan></text>
</g>
    </g>
    <g id="g458">
      <g clip-path="url(#clipPath462)" id="g460"><text id="text466" style="font-variant:normal;font-weight:normal;font-size:11.03999996px;font-family:'Aptos Narrow';-inkscape-font-specification:'Aptos Narrow';writing-mode:lr-tb;fill:#000000;fill-opacity:1;fill-rule:nonzero;stroke:none" transform="matrix(1,0,0,-1,109.1,405.79)"><tspan id="tspan468" y="0" x="0 4.8134398 10.6536 17.509439 19.573919 24.14448 29.74176">TPU v11</tspan></text>
</g>
    </g>
    <g id="g470">
      <g clip-path="url(#clipPath474)" id="g472"><text id="text478" style="font-variant:normal;font-weight:normal;font-size:11.03999996px;font-family:'Aptos Narrow';-inkscape-font-specification:'Aptos Narrow';writing-mode:lr-tb;fill:#000000;fill-opacity:1;fill-rule:nonzero;stroke:none" transform="matrix(1,0,0,-1,102.98,391.03)"><tspan id="tspan480" y="0" x="0 4.8134398 10.3224 13.59024 18.966721 21.60528 23.66976 28.450081 34.32336 41.179199">Total TPU </tspan></text>
</g>
    </g>
    <g id="g482">
      <g clip-path="url(#clipPath486)" id="g484"><text id="text490" style="font-variant:normal;font-weight:normal;font-size:11.03999996px;font-family:'Aptos Narrow';-inkscape-font-specification:'Aptos Narrow';writing-mode:lr-tb;fill:#000000;fill-opacity:1;fill-rule:nonzero;stroke:none" transform="matrix(1,0,0,-1,266.54,391.03)"><tspan id="tspan492" y="0" x="0 5.6399798 11.27996">527</tspan></text>
</g>
    </g>
    <g id="g494">
      <g clip-path="url(#clipPath498)" id="g496"><text id="text502" style="font-variant:normal;font-weight:normal;font-size:11.03999996px;font-family:'Aptos Narrow';-inkscape-font-specification:'Aptos Narrow';writing-mode:lr-tb;fill:#000000;fill-opacity:1;fill-rule:nonzero;stroke:none" transform="matrix(1,0,0,-1,350.09,391.03)"><tspan id="tspan504" y="0" x="0 5.6399798 11.27996">632</tspan></text>
</g>
    </g>
    <g id="g506">
      <g clip-path="url(#clipPath510)" id="g508"><text id="text514" style="font-variant:normal;font-weight:normal;font-size:11.03999996px;font-family:'Aptos Narrow';-inkscape-font-specification:'Aptos Narrow';writing-mode:lr-tb;fill:#000000;fill-opacity:1;fill-rule:nonzero;stroke:none" transform="matrix(1,0,0,-1,433.61,391.03)"><tspan id="tspan516" y="0" x="0 5.6399798 11.27996 16.919941">1093</tspan></text>
</g>
    </g>
    <g id="g518">
      <g clip-path="url(#clipPath522)" id="g520"><text id="text526" style="font-variant:normal;font-weight:normal;font-size:11.03999996px;font-family:'Aptos Narrow';-inkscape-font-specification:'Aptos Narrow';writing-mode:lr-tb;fill:#000000;fill-opacity:1;fill-rule:nonzero;stroke:none" transform="matrix(1,0,0,-1,517.13,391.03)"><tspan id="tspan528" y="0" x="0 5.6399798 11.27996 16.919941">2380</tspan></text>
</g>
    </g>
    <g id="g530">
      <g clip-path="url(#clipPath534)" id="g532"><text id="text538" style="font-variant:normal;font-weight:normal;font-size:11.03999996px;font-family:'Aptos Narrow';-inkscape-font-specification:'Aptos Narrow';writing-mode:lr-tb;fill:#000000;fill-opacity:1;fill-rule:nonzero;stroke:none" transform="matrix(1,0,0,-1,600.67,391.03)"><tspan id="tspan540" y="0" x="0 5.6399798 11.27996 16.919941">1750</tspan></text>
</g>
    </g>
    <g id="g542">
      <g clip-path="url(#clipPath546)" id="g544"><text id="text550" style="font-variant:normal;font-weight:normal;font-size:11.03999996px;font-family:'Aptos Narrow';-inkscape-font-specification:'Aptos Narrow';writing-mode:lr-tb;fill:#000000;fill-opacity:1;fill-rule:nonzero;stroke:none" transform="matrix(1,0,0,-1,689.35,391.03)"><tspan id="tspan552" y="0" x="0 5.6399798 11.27996 16.919941">3000</tspan></text>
</g>
    </g>
    <g id="g554">
      <g clip-path="url(#clipPath558)" id="g556"><text id="text562" style="font-variant:normal;font-weight:normal;font-size:11.03999996px;font-family:'Aptos Narrow';-inkscape-font-specification:'Aptos Narrow';writing-mode:lr-tb;fill:#000000;fill-opacity:1;fill-rule:nonzero;stroke:none" transform="matrix(1,0,0,-1,778.06,391.03)"><tspan id="tspan564" y="0" x="0 5.6399798 11.27996 16.919941">3100</tspan></text>
</g>
    </g>
    <g id="g566">
      <g clip-path="url(#clipPath570)" id="g568"><text id="text574" style="font-variant:normal;font-weight:normal;font-size:11.03999996px;font-family:'Aptos Narrow';-inkscape-font-specification:'Aptos Narrow';writing-mode:lr-tb;fill:#000000;fill-opacity:1;fill-rule:nonzero;stroke:none" transform="matrix(1,0,0,-1,109.1,374.35)"><tspan id="tspan576" y="0" x="0 5.39856 8.8540802 14.2968 16.31712 23.305441 28.902719 34.301281 39.931679 44.855518">Y/Y Change</tspan></text>
<text id="text578" style="font-variant:normal;font-weight:normal;font-size:11.03999996px;font-family:'Aptos Narrow';-inkscape-font-specification:'Aptos Narrow';writing-mode:lr-tb;fill:#000000;fill-opacity:1;fill-rule:nonzero;stroke:none" transform="matrix(1,0,0,-1,356.21,374.35)"><tspan id="tspan580" y="0" x="0 5.6399798 11.27996">20%</tspan></text>
<text id="text582" style="font-variant:normal;font-weight:normal;font-size:11.03999996px;font-family:'Aptos Narrow';-inkscape-font-specification:'Aptos Narrow';writing-mode:lr-tb;fill:#000000;fill-opacity:1;fill-rule:nonzero;stroke:none" transform="matrix(1,0,0,-1,439.73,374.35)"><tspan id="tspan584" y="0" x="0 5.6399798 11.27996">73%</tspan></text>
<text id="text586" style="font-variant:normal;font-weight:normal;font-size:11.03999996px;font-family:'Aptos Narrow';-inkscape-font-specification:'Aptos Narrow';writing-mode:lr-tb;fill:#000000;fill-opacity:1;fill-rule:nonzero;stroke:none" transform="matrix(1,0,0,-1,523.27,374.35)"><tspan id="tspan588" y="0" x="0 5.6399798 11.27996 16.919941">118%</tspan></text>
<text id="text590" style="font-variant:normal;font-weight:normal;font-size:11.03999996px;font-family:'Aptos Narrow';-inkscape-font-specification:'Aptos Narrow';writing-mode:lr-tb;fill:#000000;fill-opacity:1;fill-rule:nonzero;stroke:none" transform="matrix(1,0,0,-1,606.79,374.35)"><tspan id="tspan592" y="0" x="0 3.3782401 8.9755201 14.628">-26%</tspan></text>
<text id="text594" style="font-variant:normal;font-weight:normal;font-size:11.03999996px;font-family:'Aptos Narrow';-inkscape-font-specification:'Aptos Narrow';writing-mode:lr-tb;fill:#000000;fill-opacity:1;fill-rule:nonzero;stroke:none" transform="matrix(1,0,0,-1,695.47,374.35)"><tspan id="tspan596" y="0" x="0 5.6399798 11.27996">71%</tspan></text>
<text id="text598" style="font-variant:normal;font-weight:normal;font-size:11.03999996px;font-family:'Aptos Narrow';-inkscape-font-specification:'Aptos Narrow';writing-mode:lr-tb;fill:#000000;fill-opacity:1;fill-rule:nonzero;stroke:none" transform="matrix(1,0,0,-1,784.18,374.35)"><tspan id="tspan600" y="0" x="0 5.6399798">3%</tspan></text>
</g>
    </g>
    <g id="g602">
      <g clip-path="url(#clipPath606)" id="g604">
        <path id="path610" style="fill:#000000;fill-opacity:1;fill-rule:evenodd;stroke:none" d="m 88.824,386.59 763.87,0 0,0.96001 -763.87,0 0,-0.96001 z"/>
        <path id="path612" style="fill:#000000;fill-opacity:1;fill-rule:evenodd;stroke:none" d="m 88.824,384.67 763.87,0 0,0.96001 -763.87,0 0,-0.96001 z"/>
      </g>
    </g>
  </g>
</svg>
