<?xml version="1.0" encoding="UTF-8" standalone="no"?>
<svg xmlns:dc="http://purl.org/dc/elements/1.1/" xmlns:cc="http://creativecommons.org/ns#" xmlns:rdf="http://www.w3.org/1999/02/22-rdf-syntax-ns#" xmlns:svg="http://www.w3.org/2000/svg" xmlns="http://www.w3.org/2000/svg" viewBox="63.0875 382.1375 618.0625 338.6125" height="338.6125" width="618.0625" xml:space="preserve" version="1.1" id="svg2">
  <metadata id="metadata8">
    <rdf:RDF>
      <cc:Work rdf:about="">
        <dc:format>image/svg+xml</dc:format>
        <dc:type rdf:resource="http://purl.org/dc/dcmitype/StillImage"/>
      </cc:Work>
    </rdf:RDF>
  </metadata>
  <defs id="defs6">
    <clipPath id="clipPath16" clipPathUnits="userSpaceOnUse">
      <path style="clip-rule:evenodd" id="path18" d="m 50.4,265.32 494.52,0 0,270.96 -494.52,0 0,-270.96 z"/>
    </clipPath>
    <clipPath id="clipPath26" clipPathUnits="userSpaceOnUse">
      <path style="clip-rule:evenodd" id="path28" d="m 50.4,265.32 494.52,0 0,270.96 -494.52,0 0,-270.96 z"/>
    </clipPath>
    <clipPath id="clipPath102" clipPathUnits="userSpaceOnUse">
      <path style="clip-rule:evenodd" id="path104" d="m 50.52,265.32 494.4,0 0,270.84 -494.4,0 0,-270.84 z"/>
    </clipPath>
    <clipPath id="clipPath114" clipPathUnits="userSpaceOnUse">
      <path style="clip-rule:evenodd" id="path116" d="m 50.52,265.32 494.4,0 0,270.84 -494.4,0 0,-270.84 z"/>
    </clipPath>
    <clipPath id="clipPath126" clipPathUnits="userSpaceOnUse">
      <path style="clip-rule:evenodd" id="path128" d="m 50.52,265.32 494.4,0 0,270.84 -494.4,0 0,-270.84 z"/>
    </clipPath>
    <clipPath id="clipPath138" clipPathUnits="userSpaceOnUse">
      <path style="clip-rule:evenodd" id="path140" d="m 50.52,265.32 494.4,0 0,270.84 -494.4,0 0,-270.84 z"/>
    </clipPath>
    <clipPath id="clipPath150" clipPathUnits="userSpaceOnUse">
      <path style="clip-rule:evenodd" id="path152" d="m 50.52,265.32 494.4,0 0,270.84 -494.4,0 0,-270.84 z"/>
    </clipPath>
    <clipPath id="clipPath162" clipPathUnits="userSpaceOnUse">
      <path style="clip-rule:evenodd" id="path164" d="m 50.52,265.32 494.4,0 0,270.84 -494.4,0 0,-270.84 z"/>
    </clipPath>
    <clipPath id="clipPath174" clipPathUnits="userSpaceOnUse">
      <path style="clip-rule:evenodd" id="path176" d="m 50.52,265.32 494.4,0 0,270.84 -494.4,0 0,-270.84 z"/>
    </clipPath>
    <clipPath id="clipPath186" clipPathUnits="userSpaceOnUse">
      <path style="clip-rule:evenodd" id="path188" d="m 50.52,265.32 494.4,0 0,270.84 -494.4,0 0,-270.84 z"/>
    </clipPath>
    <clipPath id="clipPath198" clipPathUnits="userSpaceOnUse">
      <path style="clip-rule:evenodd" id="path200" d="m 50.52,265.32 494.4,0 0,270.84 -494.4,0 0,-270.84 z"/>
    </clipPath>
    <clipPath id="clipPath210" clipPathUnits="userSpaceOnUse">
      <path style="clip-rule:evenodd" id="path212" d="m 50.52,265.32 494.4,0 0,270.84 -494.4,0 0,-270.84 z"/>
    </clipPath>
    <clipPath id="clipPath222" clipPathUnits="userSpaceOnUse">
      <path style="clip-rule:evenodd" id="path224" d="m 50.52,265.32 494.4,0 0,270.84 -494.4,0 0,-270.84 z"/>
    </clipPath>
    <clipPath id="clipPath234" clipPathUnits="userSpaceOnUse">
      <path style="clip-rule:evenodd" id="path236" d="m 50.52,265.32 494.4,0 0,270.84 -494.4,0 0,-270.84 z"/>
    </clipPath>
    <clipPath id="clipPath246" clipPathUnits="userSpaceOnUse">
      <path style="clip-rule:evenodd" id="path248" d="m 50.52,265.32 494.4,0 0,270.84 -494.4,0 0,-270.84 z"/>
    </clipPath>
    <clipPath id="clipPath258" clipPathUnits="userSpaceOnUse">
      <path style="clip-rule:evenodd" id="path260" d="m 50.52,265.32 494.4,0 0,270.84 -494.4,0 0,-270.84 z"/>
    </clipPath>
    <clipPath id="clipPath270" clipPathUnits="userSpaceOnUse">
      <path style="clip-rule:evenodd" id="path272" d="m 50.52,265.32 494.4,0 0,270.84 -494.4,0 0,-270.84 z"/>
    </clipPath>
    <clipPath id="clipPath282" clipPathUnits="userSpaceOnUse">
      <path style="clip-rule:evenodd" id="path284" d="m 50.52,265.32 494.4,0 0,270.84 -494.4,0 0,-270.84 z"/>
    </clipPath>
    <clipPath id="clipPath294" clipPathUnits="userSpaceOnUse">
      <path style="clip-rule:evenodd" id="path296" d="m 50.52,265.32 494.4,0 0,270.84 -494.4,0 0,-270.84 z"/>
    </clipPath>
    <clipPath id="clipPath306" clipPathUnits="userSpaceOnUse">
      <path style="clip-rule:evenodd" id="path308" d="m 50.52,265.32 494.4,0 0,270.84 -494.4,0 0,-270.84 z"/>
    </clipPath>
    <clipPath id="clipPath318" clipPathUnits="userSpaceOnUse">
      <path style="clip-rule:evenodd" id="path320" d="m 50.52,265.32 494.4,0 0,270.84 -494.4,0 0,-270.84 z"/>
    </clipPath>
    <clipPath id="clipPath330" clipPathUnits="userSpaceOnUse">
      <path style="clip-rule:evenodd" id="path332" d="m 50.52,265.32 494.4,0 0,270.84 -494.4,0 0,-270.84 z"/>
    </clipPath>
    <clipPath id="clipPath342" clipPathUnits="userSpaceOnUse">
      <path style="clip-rule:evenodd" id="path344" d="m 50.52,265.32 494.4,0 0,270.84 -494.4,0 0,-270.84 z"/>
    </clipPath>
    <clipPath id="clipPath354" clipPathUnits="userSpaceOnUse">
      <path style="clip-rule:evenodd" id="path356" d="m 50.52,265.32 494.4,0 0,270.84 -494.4,0 0,-270.84 z"/>
    </clipPath>
    <clipPath id="clipPath366" clipPathUnits="userSpaceOnUse">
      <path style="clip-rule:evenodd" id="path368" d="m 50.52,265.32 494.4,0 0,270.84 -494.4,0 0,-270.84 z"/>
    </clipPath>
    <clipPath id="clipPath378" clipPathUnits="userSpaceOnUse">
      <path style="clip-rule:evenodd" id="path380" d="m 50.52,265.32 494.4,0 0,270.84 -494.4,0 0,-270.84 z"/>
    </clipPath>
    <clipPath id="clipPath390" clipPathUnits="userSpaceOnUse">
      <path style="clip-rule:evenodd" id="path392" d="m 50.52,265.32 494.4,0 0,270.84 -494.4,0 0,-270.84 z"/>
    </clipPath>
    <clipPath id="clipPath402" clipPathUnits="userSpaceOnUse">
      <path style="clip-rule:evenodd" id="path404" d="m 50.52,265.32 494.4,0 0,270.84 -494.4,0 0,-270.84 z"/>
    </clipPath>
    <clipPath id="clipPath414" clipPathUnits="userSpaceOnUse">
      <path style="clip-rule:evenodd" id="path416" d="m 50.52,265.32 494.4,0 0,270.84 -494.4,0 0,-270.84 z"/>
    </clipPath>
    <clipPath id="clipPath426" clipPathUnits="userSpaceOnUse">
      <path style="clip-rule:evenodd" id="path428" d="m 50.52,265.32 494.4,0 0,270.84 -494.4,0 0,-270.84 z"/>
    </clipPath>
    <clipPath id="clipPath438" clipPathUnits="userSpaceOnUse">
      <path style="clip-rule:evenodd" id="path440" d="m 50.52,265.32 494.4,0 0,270.84 -494.4,0 0,-270.84 z"/>
    </clipPath>
    <clipPath id="clipPath450" clipPathUnits="userSpaceOnUse">
      <path style="clip-rule:evenodd" id="path452" d="m 50.52,265.32 494.4,0 0,270.84 -494.4,0 0,-270.84 z"/>
    </clipPath>
    <clipPath id="clipPath462" clipPathUnits="userSpaceOnUse">
      <path style="clip-rule:evenodd" id="path464" d="m 50.52,265.32 494.4,0 0,270.84 -494.4,0 0,-270.84 z"/>
    </clipPath>
    <clipPath id="clipPath474" clipPathUnits="userSpaceOnUse">
      <path style="clip-rule:evenodd" id="path476" d="m 50.52,265.32 494.4,0 0,270.84 -494.4,0 0,-270.84 z"/>
    </clipPath>
    <clipPath id="clipPath486" clipPathUnits="userSpaceOnUse">
      <path style="clip-rule:evenodd" id="path488" d="m 50.52,265.32 494.4,0 0,270.84 -494.4,0 0,-270.84 z"/>
    </clipPath>
    <clipPath id="clipPath498" clipPathUnits="userSpaceOnUse">
      <path style="clip-rule:evenodd" id="path500" d="m 50.52,265.32 494.4,0 0,270.84 -494.4,0 0,-270.84 z"/>
    </clipPath>
    <clipPath id="clipPath510" clipPathUnits="userSpaceOnUse">
      <path style="clip-rule:evenodd" id="path512" d="m 50.52,265.32 494.4,0 0,270.84 -494.4,0 0,-270.84 z"/>
    </clipPath>
    <clipPath id="clipPath522" clipPathUnits="userSpaceOnUse">
      <path style="clip-rule:evenodd" id="path524" d="m 50.52,265.32 494.4,0 0,270.84 -494.4,0 0,-270.84 z"/>
    </clipPath>
    <clipPath id="clipPath534" clipPathUnits="userSpaceOnUse">
      <path style="clip-rule:evenodd" id="path536" d="m 50.52,265.32 494.4,0 0,270.84 -494.4,0 0,-270.84 z"/>
    </clipPath>
    <clipPath id="clipPath546" clipPathUnits="userSpaceOnUse">
      <path style="clip-rule:evenodd" id="path548" d="m 50.52,265.32 494.4,0 0,270.84 -494.4,0 0,-270.84 z"/>
    </clipPath>
    <clipPath id="clipPath558" clipPathUnits="userSpaceOnUse">
      <path style="clip-rule:evenodd" id="path560" d="m 50.52,265.32 494.4,0 0,270.84 -494.4,0 0,-270.84 z"/>
    </clipPath>
    <clipPath id="clipPath570" clipPathUnits="userSpaceOnUse">
      <path style="clip-rule:evenodd" id="path572" d="m 50.52,265.32 494.4,0 0,270.84 -494.4,0 0,-270.84 z"/>
    </clipPath>
    <clipPath id="clipPath582" clipPathUnits="userSpaceOnUse">
      <path style="clip-rule:evenodd" id="path584" d="m 50.52,265.32 494.4,0 0,270.84 -494.4,0 0,-270.84 z"/>
    </clipPath>
    <clipPath id="clipPath594" clipPathUnits="userSpaceOnUse">
      <path style="clip-rule:evenodd" id="path596" d="m 50.52,265.32 494.4,0 0,270.84 -494.4,0 0,-270.84 z"/>
    </clipPath>
    <clipPath id="clipPath606" clipPathUnits="userSpaceOnUse">
      <path style="clip-rule:evenodd" id="path608" d="m 50.52,265.32 494.4,0 0,270.84 -494.4,0 0,-270.84 z"/>
    </clipPath>
  </defs>
  <g transform="matrix(1.25,0,0,-1.25,0,1052.4)" id="g10">
    <g id="g12">
      <g clip-path="url(#clipPath16)" id="g14">
        <path id="path20" style="fill:none;stroke:#000000;stroke-width:0.14;stroke-linecap:butt;stroke-linejoin:miter;stroke-miterlimit:10;stroke-dasharray:none;stroke-opacity:0" d="m 50.54,265.24 494.36,0 0,270.9 -494.36,0 0,-270.9 z"/>
      </g>
    </g>
    <g id="g22">
      <g clip-path="url(#clipPath26)" id="g24">
        <path id="path30" style="fill:#ffffff;fill-opacity:1;fill-rule:evenodd;stroke:none" d="m 50.54,265.24 494.36,0 0,270.9 -494.36,0 0,-270.9 z"/>
      </g>
    </g>
    <path id="path32" style="fill:none;stroke:#868686;stroke-width:0.36181;stroke-linecap:round;stroke-linejoin:round;stroke-miterlimit:10;stroke-dasharray:none;stroke-opacity:1" d="m 527.75,295.97 0,230.24"/>
    <path id="path34" style="fill:none;stroke:#868686;stroke-width:0.36181;stroke-linecap:round;stroke-linejoin:round;stroke-miterlimit:10;stroke-dasharray:none;stroke-opacity:1" d="m 527.75,295.97 2.75,0 m -2.75,28.8 2.75,0 m -2.75,28.74 2.75,0 m -2.75,28.83 2.75,0 m -2.75,28.74 2.75,0 m -2.75,28.83 2.75,0 m -2.75,28.75 2.75,0 m -2.75,28.74 2.75,0 m -2.75,28.81 2.75,0"/>
    <path id="path36" style="fill:none;stroke:#787878;stroke-width:0.36181;stroke-linecap:round;stroke-linejoin:round;stroke-miterlimit:10;stroke-dasharray:none;stroke-opacity:1" d="m 83.365,295.97 0,230.24"/>
    <path id="path38" style="fill:none;stroke:#787878;stroke-width:0.36181;stroke-linecap:round;stroke-linejoin:round;stroke-miterlimit:10;stroke-dasharray:none;stroke-opacity:1" d="m 80.615,295.97 2.75,0 m -2.75,28.8 2.75,0 m -2.75,28.74 2.75,0 m -2.75,28.83 2.75,0 m -2.75,28.74 2.75,0 m -2.75,28.83 2.75,0 m -2.75,28.75 2.75,0 m -2.75,28.74 2.75,0 m -2.75,28.81 2.75,0"/>
    <path id="path40" style="fill:none;stroke:#787878;stroke-width:0.90451998;stroke-linecap:round;stroke-linejoin:round;stroke-miterlimit:10;stroke-dasharray:none;stroke-opacity:1" d="m 83.365,295.97 444.385,0"/>
    <path id="path42" style="fill:#005aa4;fill-opacity:1;fill-rule:nonzero;stroke:none" d="m 306.27,397.77 c 0,-1.8 -1.46,-3.26 -3.26,-3.26 -1.8,0 -3.26,1.46 -3.26,3.26 0,1.8 1.46,3.26 3.26,3.26 1.8,0 3.26,-1.46 3.26,-3.26 z"/>
    <path id="path44" style="fill:#005aa4;fill-opacity:1;fill-rule:nonzero;stroke:none" d="m 325.46,399.25 c 0,-1.8 -1.46,-3.26 -3.26,-3.26 -1.8,0 -3.26,1.46 -3.26,3.26 0,1.79 1.46,3.25 3.26,3.25 1.8,0 3.26,-1.46 3.26,-3.25 z"/>
    <path id="path46" style="fill:#005aa4;fill-opacity:1;fill-rule:nonzero;stroke:none" d="m 253.73,338.11 c 0,-1.79 -1.46,-3.25 -3.25,-3.25 -1.8,0 -3.26,1.46 -3.26,3.25 0,1.8 1.46,3.26 3.26,3.26 1.79,0 3.25,-1.46 3.25,-3.26 z"/>
    <path id="path48" style="fill:#005aa4;fill-opacity:1;fill-rule:nonzero;stroke:none" d="m 275.09,334.81 c 0,-1.79 -1.46,-3.25 -3.25,-3.25 -1.8,0 -3.26,1.46 -3.26,3.25 0,1.8 1.46,3.26 3.26,3.26 1.79,0 3.25,-1.46 3.25,-3.26 z"/>
    <path id="path50" style="fill:#005aa4;fill-opacity:1;fill-rule:nonzero;stroke:none" d="m 239.06,419.56 c 0,-1.79 -1.46,-3.25 -3.26,-3.25 -1.8,0 -3.26,1.46 -3.26,3.25 0,1.8 1.46,3.26 3.26,3.26 1.8,0 3.26,-1.46 3.26,-3.26 z"/>
    <path id="path52" style="fill:#005aa4;fill-opacity:1;fill-rule:nonzero;stroke:none" d="m 276.92,364.34 c 0,-1.8 -1.46,-3.26 -3.26,-3.26 -1.8,0 -3.26,1.46 -3.26,3.26 0,1.8 1.46,3.25 3.26,3.25 1.8,0 3.26,-1.45 3.26,-3.25 z"/>
    <path id="path54" style="fill:#005aa4;fill-opacity:1;fill-rule:nonzero;stroke:none" d="m 219.95,351.66 c 0,-1.8 -1.45,-3.26 -3.25,-3.26 -1.8,0 -3.26,1.46 -3.26,3.26 0,1.8 1.46,3.26 3.26,3.26 1.8,0 3.25,-1.46 3.25,-3.26 z"/>
    <path id="path56" style="fill:#005aa4;fill-opacity:1;fill-rule:nonzero;stroke:none" d="m 189.3,329.08 c 0,-1.79 -1.46,-3.25 -3.26,-3.25 -1.79,0 -3.25,1.46 -3.25,3.25 0,1.8 1.46,3.26 3.25,3.26 1.8,0 3.26,-1.46 3.26,-3.26 z"/>
    <path id="path58" style="fill:#005aa4;fill-opacity:1;fill-rule:nonzero;stroke:none" d="m 248.43,338.98 c 0,-1.8 -1.45,-3.25 -3.25,-3.25 -1.8,0 -3.26,1.45 -3.26,3.25 0,1.8 1.46,3.26 3.26,3.26 1.8,0 3.25,-1.46 3.25,-3.26 z"/>
    <path id="path60" style="fill:#005aa4;fill-opacity:1;fill-rule:nonzero;stroke:none" d="m 251.21,349.14 c 0,-1.8 -1.45,-3.25 -3.25,-3.25 -1.8,0 -3.26,1.45 -3.26,3.25 0,1.8 1.46,3.26 3.26,3.26 1.8,0 3.25,-1.46 3.25,-3.26 z"/>
    <path id="path62" style="fill:#005aa4;fill-opacity:1;fill-rule:nonzero;stroke:none" d="m 304.96,372.67 c 0,-1.79 -1.45,-3.25 -3.25,-3.25 -1.8,0 -3.26,1.46 -3.26,3.25 0,1.8 1.46,3.26 3.26,3.26 1.8,0 3.25,-1.46 3.25,-3.26 z"/>
    <path id="path64" style="fill:#005aa4;fill-opacity:1;fill-rule:nonzero;stroke:none" d="m 323.55,381.62 c 0,-1.8 -1.46,-3.26 -3.26,-3.26 -1.8,0 -3.26,1.46 -3.26,3.26 0,1.8 1.46,3.25 3.26,3.25 1.8,0 3.26,-1.45 3.26,-3.25 z"/>
    <path id="path66" style="fill:#005aa4;fill-opacity:1;fill-rule:nonzero;stroke:none" d="m 284.82,383.09 c 0,-1.79 -1.46,-3.25 -3.26,-3.25 -1.8,0 -3.25,1.46 -3.25,3.25 0,1.8 1.45,3.26 3.25,3.26 1.8,0 3.26,-1.46 3.26,-3.26 z"/>
    <path id="path68" style="fill:#005aa4;fill-opacity:1;fill-rule:nonzero;stroke:none" d="m 392.06,461.59 c 0,-1.8 -1.46,-3.25 -3.26,-3.25 -1.8,0 -3.25,1.45 -3.25,3.25 0,1.8 1.45,3.26 3.25,3.26 1.8,0 3.26,-1.46 3.26,-3.26 z"/>
    <path id="path70" style="fill:#005aa4;fill-opacity:1;fill-rule:nonzero;stroke:none" d="m 229.94,364.69 c 0,-1.8 -1.46,-3.26 -3.26,-3.26 -1.8,0 -3.25,1.46 -3.25,3.26 0,1.79 1.45,3.25 3.25,3.25 1.8,0 3.26,-1.46 3.26,-3.25 z"/>
    <path id="path72" style="fill:#0070c0;fill-opacity:1;fill-rule:nonzero;stroke:none" d="m 498.35,488.76 c 0,-1.8 -1.46,-3.26 -3.26,-3.26 -1.8,0 -3.25,1.46 -3.25,3.26 0,1.8 1.45,3.25 3.25,3.25 1.8,0 3.26,-1.45 3.26,-3.25 z"/>
    <path id="path74" style="fill:none;stroke:#000000;stroke-width:0.36181;stroke-linecap:round;stroke-linejoin:round;stroke-miterlimit:10;stroke-dasharray:none;stroke-opacity:1" d="m 303.03,397.75 38.86,17.13"/>
    <path id="path76" style="fill:none;stroke:#000000;stroke-width:0.36181;stroke-linecap:round;stroke-linejoin:round;stroke-miterlimit:10;stroke-dasharray:none;stroke-opacity:1" d="m 250.5,338.03 9.84,3.67 3.29,0"/>
    <path id="path78" style="fill:none;stroke:#000000;stroke-width:0.36181;stroke-linecap:round;stroke-linejoin:round;stroke-miterlimit:10;stroke-dasharray:none;stroke-opacity:1" d="m 271.92,334.76 0.23,-5.51 3.27,0"/>
    <path id="path80" style="fill:none;stroke:#000000;stroke-width:0.36181;stroke-linecap:round;stroke-linejoin:round;stroke-miterlimit:10;stroke-dasharray:none;stroke-opacity:1" d="m 273.67,364.3 9.59,-0.71 3.25,0"/>
    <path id="path82" style="fill:none;stroke:#000000;stroke-width:0.36181;stroke-linecap:round;stroke-linejoin:round;stroke-miterlimit:10;stroke-dasharray:none;stroke-opacity:1" d="m 216.76,351.61 -1.49,-2.68 -3.26,0"/>
    <path id="path84" style="fill:none;stroke:#000000;stroke-width:0.36181;stroke-linecap:round;stroke-linejoin:round;stroke-miterlimit:10;stroke-dasharray:none;stroke-opacity:1" d="m 245.2,338.95 -10.57,-7.19 -3.26,0"/>
    <path id="path86" style="fill:none;stroke:#000000;stroke-width:0.36181;stroke-linecap:round;stroke-linejoin:round;stroke-miterlimit:10;stroke-dasharray:none;stroke-opacity:1" d="m 247.98,349.12 4.19,3.1 3.26,0"/>
    <path id="path88" style="fill:none;stroke:#000000;stroke-width:0.36181;stroke-linecap:round;stroke-linejoin:round;stroke-miterlimit:10;stroke-dasharray:none;stroke-opacity:1" d="m 301.8,372.65 17.58,-0.14 3.25,0"/>
    <path id="path90" style="fill:none;stroke:#000000;stroke-width:0.36181;stroke-linecap:round;stroke-linejoin:round;stroke-miterlimit:10;stroke-dasharray:none;stroke-opacity:1" d="m 320.36,381.57 17.78,3.92 3.22,0"/>
    <path id="path92" style="fill:none;stroke:#000000;stroke-width:0.36181;stroke-linecap:round;stroke-linejoin:round;stroke-miterlimit:10;stroke-dasharray:none;stroke-opacity:1" d="m 495.18,488.66 -8.03,2.2 -3.25,0"/>
    <path id="path94" style="fill:none;stroke:#000000;stroke-width:0.36181;stroke-linecap:round;stroke-linejoin:round;stroke-miterlimit:10;stroke-dasharray:none;stroke-opacity:1" d="m 388.88,461.5 -8.71,0.84 -3.3,0"/>
    <path id="path96" style="fill:none;stroke:#000000;stroke-width:0.36181;stroke-linecap:round;stroke-linejoin:round;stroke-miterlimit:10;stroke-dasharray:none;stroke-opacity:1" d="m 226.75,364.61 -2.62,5.71 -3.25,0"/>
    <g id="g98">
      <g clip-path="url(#clipPath102)" id="g100"><text id="text106" style="font-variant:normal;font-weight:normal;font-size:8.68799973px;font-family:'Roboto Condensed';-inkscape-font-specification:RobotoCondensed-Regular;writing-mode:lr-tb;fill:#000000;fill-opacity:1;fill-rule:nonzero;stroke:none" transform="matrix(1,0,0,-1,299.45,418.08)"><tspan id="tspan108" y="0" x="0 4.9608479 9.3222237 15.8556 22.362911 26.559216 30.71208 32.719009 36.732864 40.894417 43.509502 45.516434 49.877808 54.03936 56.115791 60.642239 64.708221 67.349373 71.067841 73.09214 77.106003 81.171982">Communication Services</tspan></text>
</g>
    </g>
    <g id="g110">
      <g clip-path="url(#clipPath114)" id="g112"><text id="text118" style="font-variant:normal;font-weight:normal;font-size:8.68799973px;font-family:'Roboto Condensed';-inkscape-font-specification:RobotoCondensed-Regular;writing-mode:lr-tb;fill:#000000;fill-opacity:1;fill-rule:nonzero;stroke:none" transform="matrix(1,0,0,-1,329.88,396.07)"><tspan id="tspan120" y="0" x="0 4.9608479 9.3222237 13.483776 17.480255 19.739136 21.746063 26.246449 28.861536 33.023087 37.306271 39.313202 43.379185">Cons. Staples</tspan></text>
</g>
    </g>
    <g id="g122">
      <g clip-path="url(#clipPath126)" id="g124"><text id="text130" style="font-variant:normal;font-weight:normal;font-size:8.68799973px;font-family:'Roboto Condensed';-inkscape-font-specification:RobotoCondensed-Regular;writing-mode:lr-tb;fill:#000000;fill-opacity:1;fill-rule:nonzero;stroke:none" transform="matrix(1,0,0,-1,265.82,338.59)"><tspan id="tspan132" y="0" x="0 4.3179359 8.5229282 12.588912 15.230064 19.513248">Energy</tspan></text>
</g>
    </g>
    <g id="g134">
      <g clip-path="url(#clipPath138)" id="g136"><text id="text142" style="font-variant:normal;font-weight:normal;font-size:8.68799973px;font-family:'Roboto Condensed';-inkscape-font-specification:RobotoCondensed-Regular;writing-mode:lr-tb;fill:#000000;fill-opacity:1;fill-rule:nonzero;stroke:none" transform="matrix(1,0,0,-1,277.66,326.14)"><tspan id="tspan144" y="0" x="0 4.1702399 6.1858559 10.364784 14.526336 18.731327 22.745184 24.734735 28.896288 30.920591">Financials</tspan></text>
</g>
    </g>
    <g id="g146">
      <g clip-path="url(#clipPath150)" id="g148"><text id="text154" style="font-variant:normal;font-weight:normal;font-size:8.68799973px;font-family:'Roboto Condensed';-inkscape-font-specification:RobotoCondensed-Regular;writing-mode:lr-tb;fill:#000000;fill-opacity:1;fill-rule:nonzero;stroke:none" transform="matrix(1,0,0,-1,243.46,416.4)"><tspan id="tspan156" y="0" x="0 5.38656 9.4525442 13.614096 15.603648 18.166609 22.362911 24.239519 29.165615 33.327168 35.924881">Health Care</tspan></text>
</g>
    </g>
    <g id="g158">
      <g clip-path="url(#clipPath162)" id="g160"><text id="text166" style="font-variant:normal;font-weight:normal;font-size:8.68799973px;font-family:'Roboto Condensed';-inkscape-font-specification:RobotoCondensed-Regular;writing-mode:lr-tb;fill:#000000;fill-opacity:1;fill-rule:nonzero;stroke:none" transform="matrix(1,0,0,-1,288.72,360.48)"><tspan id="tspan168" y="0" x="0 2.1719999 6.3161759 10.651488 14.804352 18.766081 21.37248 23.961504 25.951056 30.112608 32.102161">Industrials</tspan></text>
</g>
    </g>
    <g id="g170">
      <g clip-path="url(#clipPath174)" id="g172"><text id="text178" style="font-variant:normal;font-weight:normal;font-size:8.66399956px;font-family:'Roboto Condensed';-inkscape-font-specification:RobotoCondensed-Regular;writing-mode:lr-tb;fill:#000000;fill-opacity:1;fill-rule:nonzero;stroke:none" transform="matrix(1,0,0,-1,177.74,345.82)"><tspan id="tspan180" y="0" x="0 6.5933042 10.74336 13.351224 17.405975 20.039831 22.023888 26.173944 28.158001">Materials</tspan></text>
</g>
    </g>
    <g id="g182">
      <g clip-path="url(#clipPath186)" id="g184"><text id="text190" style="font-variant:normal;font-weight:normal;font-size:8.68799973px;font-family:'Roboto Condensed';-inkscape-font-specification:RobotoCondensed-Regular;writing-mode:lr-tb;fill:#000000;fill-opacity:1;fill-rule:nonzero;stroke:none" transform="matrix(1,0,0,-1,142.78,328.1)"><tspan id="tspan192" y="0" x="0 4.613328 8.6793118 12.840864 14.830416 16.837343 21.155279 25.160448 27.740784 31.902336 34.50005">Real Estate</tspan></text>
</g>
    </g>
    <g id="g194">
      <g clip-path="url(#clipPath198)" id="g196"><text id="text202" style="font-variant:normal;font-weight:normal;font-size:8.68799973px;font-family:'Roboto Condensed';-inkscape-font-specification:RobotoCondensed-Regular;writing-mode:lr-tb;fill:#000000;fill-opacity:1;fill-rule:nonzero;stroke:none" transform="matrix(1,0,0,-1,203.18,328.66)"><tspan id="tspan204" y="0" x="0 4.8826561 7.4803681 9.4872961 11.494224 13.501152 16.107552 18.114479 22.180464">Utilities</tspan></text>
</g>
    </g>
    <g id="g206">
      <g clip-path="url(#clipPath210)" id="g208"><text id="text214" style="font-variant:normal;font-weight:normal;font-size:8.68799973px;font-family:'Roboto Condensed';-inkscape-font-specification:RobotoCondensed-Regular;writing-mode:lr-tb;fill:#000000;fill-opacity:1;fill-rule:nonzero;stroke:none" transform="matrix(1,0,0,-1,257.66,349.1)"><tspan id="tspan216" y="0" x="0 5.0303521 9.226656 11.81568 16.177055 20.15616 22.076208 26.793793 28.783344 33.709438 38.070816 44.604191">Autos &amp; Comp</tspan></text>
</g>
    </g>
    <g id="g218">
      <g clip-path="url(#clipPath222)" id="g220"><text id="text226" style="font-variant:normal;font-weight:normal;font-size:8.68799973px;font-family:'Roboto Condensed';-inkscape-font-specification:RobotoCondensed-Regular;writing-mode:lr-tb;fill:#000000;fill-opacity:1;fill-rule:nonzero;stroke:none" transform="matrix(1,0,0,-1,324.84,369.41)"><tspan id="tspan228" y="0" x="0 4.926096 9.2874718 13.414272 17.375999 19.660944 21.650496 26.611343 28.600897 32.562626 36.550415 38.809296 40.798847 45.759697 47.749249 51.710976 54.308689 56.56757 58.461552 63.144382 65.203438 69.790703 73.856689 76.454399 80.615952 82.605507">Cons. Disc. Dist. &amp; Retail</tspan></text>
</g>
    </g>
    <g id="g230">
      <g clip-path="url(#clipPath234)" id="g232"><text id="text238" style="font-variant:normal;font-weight:normal;font-size:8.68799973px;font-family:'Roboto Condensed';-inkscape-font-specification:RobotoCondensed-Regular;writing-mode:lr-tb;fill:#000000;fill-opacity:1;fill-rule:nonzero;stroke:none" transform="matrix(1,0,0,-1,343.61,382.39)"><tspan id="tspan240" y="0" x="0 4.926096 9.2874718 13.4664 17.428127 19.713072 21.702623 26.663471 30.816336 33.457489 35.690304 37.766735 42.44957 44.439121 49.469471 53.717903 57.966335 62.127888 64.769043 68.835022">Cons. Dur. &amp; Apparel</tspan></text>
</g>
    </g>
    <g id="g242">
      <g clip-path="url(#clipPath246)" id="g244"><text id="text250" style="font-variant:normal;font-weight:normal;font-size:8.68799973px;font-family:'Roboto Condensed';-inkscape-font-specification:RobotoCondensed-Regular;writing-mode:lr-tb;fill:#000000;fill-opacity:1;fill-rule:nonzero;stroke:none" transform="matrix(1,0,0,-1,239.86,384.36)"><tspan id="tspan252" y="0" x="0 4.926096 9.2874718 13.4664 17.462879 19.72176 21.711311 26.211697 30.295055 32.936207 36.654671">Cons. Serv.</tspan></text>
</g>
    </g>
    <g id="g254">
      <g clip-path="url(#clipPath258)" id="g256"><text id="text262" style="font-variant:normal;font-weight:normal;font-size:8.68799973px;font-family:'Roboto Condensed';-inkscape-font-specification:RobotoCondensed-Regular;writing-mode:lr-tb;fill:#000000;fill-opacity:1;fill-rule:nonzero;stroke:none" transform="matrix(1,0,0,-1,417.82,487.78)"><tspan id="tspan264" y="0" x="0 4.5003839 8.5663681 15.099744 17.089296 21.051023 22.971071 27.653904 29.643456 34.143841 38.2272 44.734512 46.724064 48.713615 53.057617 57.401615 61.650047">Semis &amp; Semi Eqp.</tspan></text>
</g>
    </g>
    <g id="g266">
      <g clip-path="url(#clipPath270)" id="g268"><text id="text274" style="font-variant:normal;font-weight:normal;font-size:8.68799973px;font-family:'Roboto Condensed';-inkscape-font-specification:RobotoCondensed-Regular;writing-mode:lr-tb;fill:#000000;fill-opacity:1;fill-rule:nonzero;stroke:none" transform="matrix(1,0,0,-1,318.22,459.24)"><tspan id="tspan276" y="0" x="0 4.5003839 8.8617601 11.633232 14.239632 19.886831 24.074448 26.715599 30.781584 32.692944 37.410526 39.400082 43.900463 47.992512 50.633663 54.352127">Software &amp; Serv.</tspan></text>
</g>
    </g>
    <g id="g278">
      <g clip-path="url(#clipPath282)" id="g280"><text id="text286" style="font-variant:normal;font-weight:normal;font-size:8.68799973px;font-family:'Roboto Condensed';-inkscape-font-specification:RobotoCondensed-Regular;writing-mode:lr-tb;fill:#000000;fill-opacity:1;fill-rule:nonzero;stroke:none" transform="matrix(1,0,0,-1,164.02,367.22)"><tspan id="tspan288" y="0" x="0 4.5264478 8.592432 12.580224 16.733088 18.722639 24.1092 30.703392 32.692944 37.375774 39.452209 43.770145 48.131519 52.379951">Tech HW &amp; Eqp.</tspan></text>
</g>
    </g>
    <g id="g290">
      <g clip-path="url(#clipPath294)" id="g292"><text id="text298" style="font-variant:normal;font-weight:normal;font-size:8.68799973px;font-family:'Roboto Condensed';-inkscape-font-specification:RobotoCondensed-Regular;writing-mode:lr-tb;fill:#000000;fill-opacity:1;fill-rule:nonzero;stroke:none" transform="matrix(1,0,0,-1,535.82,293.3)"><tspan id="tspan300" y="0" x="0 4.247972">0x</tspan></text>
</g>
    </g>
    <g id="g302">
      <g clip-path="url(#clipPath306)" id="g304"><text id="text310" style="font-variant:normal;font-weight:normal;font-size:8.68799973px;font-family:'Roboto Condensed';-inkscape-font-specification:RobotoCondensed-Regular;writing-mode:lr-tb;fill:#000000;fill-opacity:1;fill-rule:nonzero;stroke:none" transform="matrix(1,0,0,-1,535.82,322.08)"><tspan id="tspan312" y="0" x="0 4.247972">1x</tspan></text>
</g>
    </g>
    <g id="g314">
      <g clip-path="url(#clipPath318)" id="g316"><text id="text322" style="font-variant:normal;font-weight:normal;font-size:8.68799973px;font-family:'Roboto Condensed';-inkscape-font-specification:RobotoCondensed-Regular;writing-mode:lr-tb;fill:#000000;fill-opacity:1;fill-rule:nonzero;stroke:none" transform="matrix(1,0,0,-1,535.82,350.86)"><tspan id="tspan324" y="0" x="0 4.247972">2x</tspan></text>
</g>
    </g>
    <g id="g326">
      <g clip-path="url(#clipPath330)" id="g328"><text id="text334" style="font-variant:normal;font-weight:normal;font-size:8.68799973px;font-family:'Roboto Condensed';-inkscape-font-specification:RobotoCondensed-Regular;writing-mode:lr-tb;fill:#000000;fill-opacity:1;fill-rule:nonzero;stroke:none" transform="matrix(1,0,0,-1,535.82,379.66)"><tspan id="tspan336" y="0" x="0 4.247972">3x</tspan></text>
</g>
    </g>
    <g id="g338">
      <g clip-path="url(#clipPath342)" id="g340"><text id="text346" style="font-variant:normal;font-weight:normal;font-size:8.68799973px;font-family:'Roboto Condensed';-inkscape-font-specification:RobotoCondensed-Regular;writing-mode:lr-tb;fill:#000000;fill-opacity:1;fill-rule:nonzero;stroke:none" transform="matrix(1,0,0,-1,535.82,408.43)"><tspan id="tspan348" y="0" x="0 4.247972">4x</tspan></text>
</g>
    </g>
    <g id="g350">
      <g clip-path="url(#clipPath354)" id="g352"><text id="text358" style="font-variant:normal;font-weight:normal;font-size:8.68799973px;font-family:'Roboto Condensed';-inkscape-font-specification:RobotoCondensed-Regular;writing-mode:lr-tb;fill:#000000;fill-opacity:1;fill-rule:nonzero;stroke:none" transform="matrix(1,0,0,-1,535.82,437.21)"><tspan id="tspan360" y="0" x="0 4.247972">5x</tspan></text>
</g>
    </g>
    <g id="g362">
      <g clip-path="url(#clipPath366)" id="g364"><text id="text370" style="font-variant:normal;font-weight:normal;font-size:8.66399956px;font-family:'Roboto Condensed';-inkscape-font-specification:RobotoCondensed-Regular;writing-mode:lr-tb;fill:#000000;fill-opacity:1;fill-rule:nonzero;stroke:none" transform="matrix(1,0,0,-1,535.82,465.98)"><tspan id="tspan372" y="0" x="0 4.2480159">6x</tspan></text>
</g>
    </g>
    <g id="g374">
      <g clip-path="url(#clipPath378)" id="g376"><text id="text382" style="font-variant:normal;font-weight:normal;font-size:8.68799973px;font-family:'Roboto Condensed';-inkscape-font-specification:RobotoCondensed-Regular;writing-mode:lr-tb;fill:#000000;fill-opacity:1;fill-rule:nonzero;stroke:none" transform="matrix(1,0,0,-1,535.82,494.78)"><tspan id="tspan384" y="0" x="0 4.247972">7x</tspan></text>
</g>
    </g>
    <g id="g386">
      <g clip-path="url(#clipPath390)" id="g388"><text id="text394" style="font-variant:normal;font-weight:normal;font-size:8.68799973px;font-family:'Roboto Condensed';-inkscape-font-specification:RobotoCondensed-Regular;writing-mode:lr-tb;fill:#000000;fill-opacity:1;fill-rule:nonzero;stroke:none" transform="matrix(1,0,0,-1,535.82,523.56)"><tspan id="tspan396" y="0" x="0 4.247972">8x</tspan></text>
</g>
    </g>
    <g id="g398">
      <g clip-path="url(#clipPath402)" id="g400"><text id="text406" style="font-variant:normal;font-weight:normal;font-size:8.68799973px;font-family:'Roboto Condensed';-inkscape-font-specification:RobotoCondensed-Regular;writing-mode:lr-tb;fill:#000000;fill-opacity:1;fill-rule:nonzero;stroke:none" transform="matrix(1,0,0,-1,67.32,293.3)"><tspan id="tspan408" y="0" x="0 4.247972">0x</tspan></text>
</g>
    </g>
    <g id="g410">
      <g clip-path="url(#clipPath414)" id="g412"><text id="text418" style="font-variant:normal;font-weight:normal;font-size:8.68799973px;font-family:'Roboto Condensed';-inkscape-font-specification:RobotoCondensed-Regular;writing-mode:lr-tb;fill:#000000;fill-opacity:1;fill-rule:nonzero;stroke:none" transform="matrix(1,0,0,-1,67.32,322.08)"><tspan id="tspan420" y="0" x="0 4.247972">1x</tspan></text>
</g>
    </g>
    <g id="g422">
      <g clip-path="url(#clipPath426)" id="g424"><text id="text430" style="font-variant:normal;font-weight:normal;font-size:8.68799973px;font-family:'Roboto Condensed';-inkscape-font-specification:RobotoCondensed-Regular;writing-mode:lr-tb;fill:#000000;fill-opacity:1;fill-rule:nonzero;stroke:none" transform="matrix(1,0,0,-1,67.32,350.86)"><tspan id="tspan432" y="0" x="0 4.247972">2x</tspan></text>
</g>
    </g>
    <g id="g434">
      <g clip-path="url(#clipPath438)" id="g436"><text id="text442" style="font-variant:normal;font-weight:normal;font-size:8.68799973px;font-family:'Roboto Condensed';-inkscape-font-specification:RobotoCondensed-Regular;writing-mode:lr-tb;fill:#000000;fill-opacity:1;fill-rule:nonzero;stroke:none" transform="matrix(1,0,0,-1,67.32,379.66)"><tspan id="tspan444" y="0" x="0 4.247972">3x</tspan></text>
</g>
    </g>
    <g id="g446">
      <g clip-path="url(#clipPath450)" id="g448"><text id="text454" style="font-variant:normal;font-weight:normal;font-size:8.68799973px;font-family:'Roboto Condensed';-inkscape-font-specification:RobotoCondensed-Regular;writing-mode:lr-tb;fill:#000000;fill-opacity:1;fill-rule:nonzero;stroke:none" transform="matrix(1,0,0,-1,67.32,408.43)"><tspan id="tspan456" y="0" x="0 4.247972">4x</tspan></text>
</g>
    </g>
    <g id="g458">
      <g clip-path="url(#clipPath462)" id="g460"><text id="text466" style="font-variant:normal;font-weight:normal;font-size:8.68799973px;font-family:'Roboto Condensed';-inkscape-font-specification:RobotoCondensed-Regular;writing-mode:lr-tb;fill:#000000;fill-opacity:1;fill-rule:nonzero;stroke:none" transform="matrix(1,0,0,-1,67.32,437.21)"><tspan id="tspan468" y="0" x="0 4.247972">5x</tspan></text>
</g>
    </g>
    <g id="g470">
      <g clip-path="url(#clipPath474)" id="g472"><text id="text478" style="font-variant:normal;font-weight:normal;font-size:8.66399956px;font-family:'Roboto Condensed';-inkscape-font-specification:RobotoCondensed-Regular;writing-mode:lr-tb;fill:#000000;fill-opacity:1;fill-rule:nonzero;stroke:none" transform="matrix(1,0,0,-1,67.32,465.98)"><tspan id="tspan480" y="0" x="0 4.2480159">6x</tspan></text>
</g>
    </g>
    <g id="g482">
      <g clip-path="url(#clipPath486)" id="g484"><text id="text490" style="font-variant:normal;font-weight:normal;font-size:8.68799973px;font-family:'Roboto Condensed';-inkscape-font-specification:RobotoCondensed-Regular;writing-mode:lr-tb;fill:#000000;fill-opacity:1;fill-rule:nonzero;stroke:none" transform="matrix(1,0,0,-1,67.32,494.78)"><tspan id="tspan492" y="0" x="0 4.247972">7x</tspan></text>
</g>
    </g>
    <g id="g494">
      <g clip-path="url(#clipPath498)" id="g496"><text id="text502" style="font-variant:normal;font-weight:normal;font-size:8.68799973px;font-family:'Roboto Condensed';-inkscape-font-specification:RobotoCondensed-Regular;writing-mode:lr-tb;fill:#000000;fill-opacity:1;fill-rule:nonzero;stroke:none" transform="matrix(1,0,0,-1,67.32,523.56)"><tspan id="tspan504" y="0" x="0 4.247972">8x</tspan></text>
</g>
    </g>
    <g id="g506">
      <g clip-path="url(#clipPath510)" id="g508"><text id="text514" style="font-variant:normal;font-weight:normal;font-size:8.68799973px;font-family:'Roboto Condensed';-inkscape-font-specification:RobotoCondensed-Regular;writing-mode:lr-tb;fill:#000000;fill-opacity:1;fill-rule:nonzero;stroke:none" transform="matrix(1,0,0,-1,78.48,282.14)"><tspan id="tspan516" y="0" x="0 4.2719722">0%</tspan></text>
</g>
    </g>
    <g id="g518">
      <g clip-path="url(#clipPath522)" id="g520"><text id="text526" style="font-variant:normal;font-weight:normal;font-size:8.68799973px;font-family:'Roboto Condensed';-inkscape-font-specification:RobotoCondensed-Regular;writing-mode:lr-tb;fill:#000000;fill-opacity:1;fill-rule:nonzero;stroke:none" transform="matrix(1,0,0,-1,152.57,282.14)"><tspan id="tspan528" y="0" x="0 4.247972">5%</tspan></text>
</g>
    </g>
    <g id="g530">
      <g clip-path="url(#clipPath534)" id="g532"><text id="text538" style="font-variant:normal;font-weight:normal;font-size:8.68799973px;font-family:'Roboto Condensed';-inkscape-font-specification:RobotoCondensed-Regular;writing-mode:lr-tb;fill:#000000;fill-opacity:1;fill-rule:nonzero;stroke:none" transform="matrix(1,0,0,-1,224.5,282.14)"><tspan id="tspan540" y="0" x="0 4.291872 8.609808">10%</tspan></text>
</g>
    </g>
    <g id="g542">
      <g clip-path="url(#clipPath546)" id="g544"><text id="text550" style="font-variant:normal;font-weight:normal;font-size:8.68799973px;font-family:'Roboto Condensed';-inkscape-font-specification:RobotoCondensed-Regular;writing-mode:lr-tb;fill:#000000;fill-opacity:1;fill-rule:nonzero;stroke:none" transform="matrix(1,0,0,-1,298.58,282.14)"><tspan id="tspan552" y="0" x="0 4.2484322 8.583744">15%</tspan></text>
</g>
    </g>
    <g id="g554">
      <g clip-path="url(#clipPath558)" id="g556"><text id="text562" style="font-variant:normal;font-weight:normal;font-size:8.68799973px;font-family:'Roboto Condensed';-inkscape-font-specification:RobotoCondensed-Regular;writing-mode:lr-tb;fill:#000000;fill-opacity:1;fill-rule:nonzero;stroke:none" transform="matrix(1,0,0,-1,372.67,282.14)"><tspan id="tspan564" y="0" x="0 4.2484322 8.5576801">20%</tspan></text>
</g>
    </g>
    <g id="g566">
      <g clip-path="url(#clipPath570)" id="g568"><text id="text574" style="font-variant:normal;font-weight:normal;font-size:8.68799973px;font-family:'Roboto Condensed';-inkscape-font-specification:RobotoCondensed-Regular;writing-mode:lr-tb;fill:#000000;fill-opacity:1;fill-rule:nonzero;stroke:none" transform="matrix(1,0,0,-1,446.74,282.14)"><tspan id="tspan576" y="0" x="0 4.2484322 8.583744">25%</tspan></text>
</g>
    </g>
    <g id="g578">
      <g clip-path="url(#clipPath582)" id="g580"><text id="text586" style="font-variant:normal;font-weight:normal;font-size:8.68799973px;font-family:'Roboto Condensed';-inkscape-font-specification:RobotoCondensed-Regular;writing-mode:lr-tb;fill:#000000;fill-opacity:1;fill-rule:nonzero;stroke:none" transform="matrix(1,0,0,-1,520.82,282.14)"><tspan id="tspan588" y="0" x="0 4.2484322 8.583744">30%</tspan></text>
</g>
    </g>
    <g id="g590">
      <g clip-path="url(#clipPath594)" id="g592"><text id="text598" style="font-variant:normal;font-weight:bold;font-size:8.68799973px;font-family:'Roboto Condensed';-inkscape-font-specification:RobotoCondensed-Bold;writing-mode:lr-tb;fill:#000000;fill-opacity:1;fill-rule:nonzero;stroke:none" transform="matrix(-4.4e-8,1,1,4.4e-8,62.976,390.19)"><tspan id="tspan600" y="0" x="0 4.7175841 7.6020002 11.667984 13.85736 16.046736 18.236113 22.510609 26.837233 29.009232 33.952705 36.845806">Trailing P/B</tspan></text>
</g>
    </g>
    <g id="g602">
      <g clip-path="url(#clipPath606)" id="g604"><text id="text610" style="font-variant:normal;font-weight:bold;font-size:8.68799973px;font-family:'Roboto Condensed';-inkscape-font-specification:RobotoCondensed-Bold;writing-mode:lr-tb;fill:#000000;fill-opacity:1;fill-rule:nonzero;stroke:none" transform="matrix(1,0,0,-1,277.46,269.57)"><tspan id="tspan612" y="0" x="0 4.6828318 7.5411839 11.633232 13.779168 15.94248 18.105791 22.354223 26.698223 28.852848 33.631248 38.835361 43.10117 45.160225 47.96645 53.492016">Trailing ROE (%)</tspan></text>
</g>
    </g>
  </g>
</svg>
