<?xml version="1.0" encoding="UTF-8" standalone="no"?>
<svg xmlns:dc="http://purl.org/dc/elements/1.1/" xmlns:cc="http://creativecommons.org/ns#" xmlns:rdf="http://www.w3.org/1999/02/22-rdf-syntax-ns#" xmlns:svg="http://www.w3.org/2000/svg" xmlns="http://www.w3.org/2000/svg" viewBox="63.11625 356.4 638.88375 277.05" height="277.05" width="638.88375" xml:space="preserve" version="1.1" id="svg2">
  <metadata id="metadata8">
    <rdf:RDF>
      <cc:Work rdf:about="">
        <dc:format>image/svg+xml</dc:format>
        <dc:type rdf:resource="http://purl.org/dc/dcmitype/StillImage"/>
      </cc:Work>
    </rdf:RDF>
  </metadata>
  <defs id="defs6">
    <clipPath id="clipPath16" clipPathUnits="userSpaceOnUse">
      <path style="clip-rule:evenodd" id="path18" d="m 50.4,285.24 511.2,0 0,221.64 -511.2,0 0,-221.64 z"/>
    </clipPath>
    <clipPath id="clipPath26" clipPathUnits="userSpaceOnUse">
      <path style="clip-rule:evenodd" id="path28" d="m 50.4,285.24 511.2,0 0,221.64 -511.2,0 0,-221.64 z"/>
    </clipPath>
    <clipPath id="clipPath36" clipPathUnits="userSpaceOnUse">
      <path style="clip-rule:evenodd" id="path38" d="m 58.45,500.23 501.97,0 0,6.6496 -501.97,0 0,-6.6496 z"/>
    </clipPath>
    <clipPath id="clipPath46" clipPathUnits="userSpaceOnUse">
      <path style="clip-rule:evenodd" id="path48" d="m 58.45,500.23 501.97,0 0,6.6496 -501.97,0 0,-6.6496 z"/>
    </clipPath>
    <clipPath id="clipPath56" clipPathUnits="userSpaceOnUse">
      <path style="clip-rule:evenodd" id="path58" d="m 58.56,500.16 501.96,0 0,6.72 -501.96,0 0,-6.72 z"/>
    </clipPath>
    <clipPath id="clipPath68" clipPathUnits="userSpaceOnUse">
      <path style="clip-rule:evenodd" id="path70" d="m 58.56,500.16 501.96,0 0,6.72 -501.96,0 0,-6.72 z"/>
    </clipPath>
    <clipPath id="clipPath80" clipPathUnits="userSpaceOnUse">
      <path style="clip-rule:evenodd" id="path82" d="m 50.4,285.24 511.2,0 0,221.64 -511.2,0 0,-221.64 z"/>
    </clipPath>
    <clipPath id="clipPath90" clipPathUnits="userSpaceOnUse">
      <path style="clip-rule:evenodd" id="path92" d="m 50.4,285.24 511.2,0 0,221.64 -511.2,0 0,-221.64 z"/>
    </clipPath>
    <clipPath id="clipPath108" clipPathUnits="userSpaceOnUse">
      <path style="clip-rule:evenodd" id="path110" d="m 50.52,285.24 511.08,0 0,221.64 -511.08,0 0,-221.64 z"/>
    </clipPath>
    <clipPath id="clipPath120" clipPathUnits="userSpaceOnUse">
      <path style="clip-rule:evenodd" id="path122" d="m 50.52,285.24 511.08,0 0,221.64 -511.08,0 0,-221.64 z"/>
    </clipPath>
    <clipPath id="clipPath132" clipPathUnits="userSpaceOnUse">
      <path style="clip-rule:evenodd" id="path134" d="m 50.52,285.24 511.08,0 0,221.64 -511.08,0 0,-221.64 z"/>
    </clipPath>
    <clipPath id="clipPath144" clipPathUnits="userSpaceOnUse">
      <path style="clip-rule:evenodd" id="path146" d="m 50.52,285.24 511.08,0 0,221.64 -511.08,0 0,-221.64 z"/>
    </clipPath>
    <clipPath id="clipPath156" clipPathUnits="userSpaceOnUse">
      <path style="clip-rule:evenodd" id="path158" d="m 50.52,285.24 511.08,0 0,221.64 -511.08,0 0,-221.64 z"/>
    </clipPath>
    <clipPath id="clipPath168" clipPathUnits="userSpaceOnUse">
      <path style="clip-rule:evenodd" id="path170" d="m 50.52,285.24 511.08,0 0,221.64 -511.08,0 0,-221.64 z"/>
    </clipPath>
    <clipPath id="clipPath180" clipPathUnits="userSpaceOnUse">
      <path style="clip-rule:evenodd" id="path182" d="m 50.52,285.24 511.08,0 0,221.64 -511.08,0 0,-221.64 z"/>
    </clipPath>
    <clipPath id="clipPath192" clipPathUnits="userSpaceOnUse">
      <path style="clip-rule:evenodd" id="path194" d="m 50.52,285.24 511.08,0 0,221.64 -511.08,0 0,-221.64 z"/>
    </clipPath>
    <clipPath id="clipPath204" clipPathUnits="userSpaceOnUse">
      <path style="clip-rule:evenodd" id="path206" d="m 50.52,285.24 511.08,0 0,221.64 -511.08,0 0,-221.64 z"/>
    </clipPath>
    <clipPath id="clipPath216" clipPathUnits="userSpaceOnUse">
      <path style="clip-rule:evenodd" id="path218" d="m 50.52,285.24 511.08,0 0,221.64 -511.08,0 0,-221.64 z"/>
    </clipPath>
    <clipPath id="clipPath228" clipPathUnits="userSpaceOnUse">
      <path style="clip-rule:evenodd" id="path230" d="m 50.52,285.24 511.08,0 0,221.64 -511.08,0 0,-221.64 z"/>
    </clipPath>
    <clipPath id="clipPath240" clipPathUnits="userSpaceOnUse">
      <path style="clip-rule:evenodd" id="path242" d="m 50.52,285.24 511.08,0 0,221.64 -511.08,0 0,-221.64 z"/>
    </clipPath>
    <clipPath id="clipPath252" clipPathUnits="userSpaceOnUse">
      <path style="clip-rule:evenodd" id="path254" d="m 50.52,285.24 511.08,0 0,221.64 -511.08,0 0,-221.64 z"/>
    </clipPath>
    <clipPath id="clipPath264" clipPathUnits="userSpaceOnUse">
      <path style="clip-rule:evenodd" id="path266" d="m 50.52,285.24 511.08,0 0,221.64 -511.08,0 0,-221.64 z"/>
    </clipPath>
    <clipPath id="clipPath276" clipPathUnits="userSpaceOnUse">
      <path style="clip-rule:evenodd" id="path278" d="m 50.52,285.24 511.08,0 0,221.64 -511.08,0 0,-221.64 z"/>
    </clipPath>
    <clipPath id="clipPath288" clipPathUnits="userSpaceOnUse">
      <path style="clip-rule:evenodd" id="path290" d="m 50.52,285.24 511.08,0 0,221.64 -511.08,0 0,-221.64 z"/>
    </clipPath>
    <clipPath id="clipPath300" clipPathUnits="userSpaceOnUse">
      <path style="clip-rule:evenodd" id="path302" d="m 50.52,285.24 511.08,0 0,221.64 -511.08,0 0,-221.64 z"/>
    </clipPath>
    <clipPath id="clipPath312" clipPathUnits="userSpaceOnUse">
      <path style="clip-rule:evenodd" id="path314" d="m 50.52,285.24 511.08,0 0,221.64 -511.08,0 0,-221.64 z"/>
    </clipPath>
    <clipPath id="clipPath324" clipPathUnits="userSpaceOnUse">
      <path style="clip-rule:evenodd" id="path326" d="m 50.52,285.24 511.08,0 0,221.64 -511.08,0 0,-221.64 z"/>
    </clipPath>
    <clipPath id="clipPath336" clipPathUnits="userSpaceOnUse">
      <path style="clip-rule:evenodd" id="path338" d="m 50.52,285.24 511.08,0 0,221.64 -511.08,0 0,-221.64 z"/>
    </clipPath>
    <clipPath id="clipPath348" clipPathUnits="userSpaceOnUse">
      <path style="clip-rule:evenodd" id="path350" d="m 50.52,285.24 511.08,0 0,221.64 -511.08,0 0,-221.64 z"/>
    </clipPath>
    <clipPath id="clipPath360" clipPathUnits="userSpaceOnUse">
      <path style="clip-rule:evenodd" id="path362" d="m 50.52,285.24 511.08,0 0,221.64 -511.08,0 0,-221.64 z"/>
    </clipPath>
    <clipPath id="clipPath372" clipPathUnits="userSpaceOnUse">
      <path style="clip-rule:evenodd" id="path374" d="m 50.52,285.24 511.08,0 0,221.64 -511.08,0 0,-221.64 z"/>
    </clipPath>
    <clipPath id="clipPath384" clipPathUnits="userSpaceOnUse">
      <path style="clip-rule:evenodd" id="path386" d="m 50.52,285.24 511.08,0 0,221.64 -511.08,0 0,-221.64 z"/>
    </clipPath>
    <clipPath id="clipPath396" clipPathUnits="userSpaceOnUse">
      <path style="clip-rule:evenodd" id="path398" d="m 50.52,285.24 511.08,0 0,221.64 -511.08,0 0,-221.64 z"/>
    </clipPath>
    <clipPath id="clipPath408" clipPathUnits="userSpaceOnUse">
      <path style="clip-rule:evenodd" id="path410" d="m 50.52,285.24 511.08,0 0,221.64 -511.08,0 0,-221.64 z"/>
    </clipPath>
    <clipPath id="clipPath420" clipPathUnits="userSpaceOnUse">
      <path style="clip-rule:evenodd" id="path422" d="m 50.52,285.24 511.08,0 0,221.64 -511.08,0 0,-221.64 z"/>
    </clipPath>
    <clipPath id="clipPath432" clipPathUnits="userSpaceOnUse">
      <path style="clip-rule:evenodd" id="path434" d="m 50.52,285.24 511.08,0 0,221.64 -511.08,0 0,-221.64 z"/>
    </clipPath>
    <clipPath id="clipPath444" clipPathUnits="userSpaceOnUse">
      <path style="clip-rule:evenodd" id="path446" d="m 50.52,285.24 511.08,0 0,221.64 -511.08,0 0,-221.64 z"/>
    </clipPath>
    <clipPath id="clipPath456" clipPathUnits="userSpaceOnUse">
      <path style="clip-rule:evenodd" id="path458" d="m 50.52,285.24 511.08,0 0,221.64 -511.08,0 0,-221.64 z"/>
    </clipPath>
    <clipPath id="clipPath468" clipPathUnits="userSpaceOnUse">
      <path style="clip-rule:evenodd" id="path470" d="m 50.52,285.24 511.08,0 0,221.64 -511.08,0 0,-221.64 z"/>
    </clipPath>
  </defs>
  <g transform="matrix(1.25,0,0,-1.25,0,990)" id="g10">
    <g id="g12">
      <g clip-path="url(#clipPath16)" id="g14">
        <path id="path20" style="fill:none;stroke:#000000;stroke-width:0.14;stroke-linecap:butt;stroke-linejoin:miter;stroke-miterlimit:10;stroke-dasharray:none;stroke-opacity:0" d="m 58.527,1002.69 501.893,0 0,-502.53 -501.893,0 0,502.53 z"/>
      </g>
    </g>
    <g id="g22">
      <g clip-path="url(#clipPath26)" id="g24">
        <path id="path30" style="fill:#ffffff;fill-opacity:1;fill-rule:evenodd;stroke:none" d="m 58.527,500.15 501.9,0 0,502.53 -501.9,0 0,-502.53 z"/>
      </g>
    </g>
    <g id="g32">
      <g clip-path="url(#clipPath36)" id="g34">
        <path id="path40" style="fill:#ffffff;fill-opacity:1;fill-rule:evenodd;stroke:none" d="m 183.79,504.47 363.43,0 0,446.29 -363.43,0 0,-446.29 z"/>
      </g>
    </g>
    <g id="g42">
      <g clip-path="url(#clipPath46)" id="g44">
        <path id="path50" style="fill:none;stroke:#808080;stroke-width:1.41359997;stroke-linecap:round;stroke-linejoin:round;stroke-miterlimit:10;stroke-dasharray:none;stroke-opacity:1" d="m 183.79,950.76 0,-446.29"/>
      </g>
    </g>
    <g id="g52">
      <g clip-path="url(#clipPath56)" id="g54"><text id="text60" style="font-variant:normal;font-weight:normal;font-size:10.17599964px;font-family:'Roboto Condensed';-inkscape-font-specification:'Roboto Condensed';writing-mode:lr-tb;fill:#000000;fill-opacity:1;fill-rule:nonzero;stroke:none" transform="matrix(1,0,0,-1,389.78,510.6)"><tspan id="tspan62" y="0" x="0 5.0160441 10.032088">44%</tspan></text>
</g>
    </g>
    <g id="g64">
      <g clip-path="url(#clipPath68)" id="g66"><text id="text72" style="font-variant:normal;font-weight:normal;font-size:9.09599972px;font-family:'Roboto Condensed';-inkscape-font-specification:'Roboto Condensed';writing-mode:lr-tb;fill:#000000;fill-opacity:1;fill-rule:nonzero;stroke:none" transform="matrix(1,0,0,-1,140.38,511.46)"><tspan id="tspan74" y="0" x="0 6.7947121 11.41548 15.763368 20.384136 24.732023 29.352793 31.390297">Monopoly</tspan></text>
</g>
    </g>
    <g id="g76">
      <g clip-path="url(#clipPath80)" id="g78">
        <path id="path84" style="fill:none;stroke:#000000;stroke-width:0.14;stroke-linecap:butt;stroke-linejoin:miter;stroke-miterlimit:10;stroke-dasharray:none;stroke-opacity:0" d="m 50.563,285.21 511.01,0 0,221.65 -511.01,0 0,-221.65 z"/>
      </g>
    </g>
    <g id="g86">
      <g clip-path="url(#clipPath90)" id="g88">
        <path id="path94" style="fill:#ffffff;fill-opacity:1;fill-rule:evenodd;stroke:none" d="m 50.563,285.21 511.01,0 0,221.65 -511.01,0 0,-221.65 z"/>
      </g>
    </g>
    <path id="path96" style="fill:#ffffff;fill-opacity:1;fill-rule:evenodd;stroke:none" d="m 153.91,288.6 390.7,0 0,166.24 -390.7,0 0,-166.24 z"/>
    <path id="path98" style="fill:#137cb1;fill-opacity:1;fill-rule:evenodd;stroke:none" d="m 153.91,440.99 362.34,0 0,11.083 -362.34,0 0,-11.083 z"/>
    <path id="path100" style="fill:#137cb1;fill-opacity:1;fill-rule:nonzero;stroke:none" d="m 511.84,435.5 -357.93,0 0,-11.13 357.93,0 0,11.13 z m -12.62,-16.69 -345.31,0 0,-11.13 345.31,0 0,11.13 z m -5.56,-16.56 -339.75,0 0,-11.13 339.75,0 0,11.13 z m -3.13,-16.69 -336.62,0 0,-11.13 336.62,0 0,11.13 z m -6.37,-16.56 -330.25,0 0,-11.12 330.25,0 0,11.12 z m -1.09,-16.69 -329.16,0 0,-11.13 329.16,0 0,11.13 z m -3.53,-16.55 -325.63,0 0,-11.13 325.63,0 0,11.13 z m -33.25,-16.7 -292.38,0 0,-11.12 292.38,0 0,11.12 z m -21.03,-16.55 -271.35,0 0,-11.13 271.35,0 0,11.13 z"/>
    <path id="path102" style="fill:none;stroke:#808080;stroke-width:1.41359997;stroke-linecap:round;stroke-linejoin:round;stroke-miterlimit:10;stroke-dasharray:none;stroke-opacity:1" d="m 153.91,454.84 0,-166.24"/>
    <g id="g104">
      <g clip-path="url(#clipPath108)" id="g106"><text id="text112" style="font-variant:normal;font-weight:normal;font-size:10.17599964px;font-family:Arial;-inkscape-font-specification:Arial;writing-mode:lr-tb;fill:#000000;fill-opacity:1;fill-rule:nonzero;stroke:none" transform="matrix(1,0,0,-1,523.06,442.82)"><tspan id="tspan114" y="0" x="0 5.711956 11.423912">74%</tspan></text>
</g>
    </g>
    <g id="g116">
      <g clip-path="url(#clipPath120)" id="g118"><text id="text124" style="font-variant:normal;font-weight:normal;font-size:10.17599964px;font-family:Arial;-inkscape-font-specification:Arial;writing-mode:lr-tb;fill:#000000;fill-opacity:1;fill-rule:nonzero;stroke:none" transform="matrix(1,0,0,-1,518.71,426.19)"><tspan id="tspan126" y="0" x="0 5.6879559 11.375912">73%</tspan></text>
</g>
    </g>
    <g id="g128">
      <g clip-path="url(#clipPath132)" id="g130"><text id="text136" style="font-variant:normal;font-weight:normal;font-size:10.17599964px;font-family:Arial;-inkscape-font-specification:Arial;writing-mode:lr-tb;fill:#000000;fill-opacity:1;fill-rule:nonzero;stroke:none" transform="matrix(1,0,0,-1,506.09,409.58)"><tspan id="tspan138" y="0" x="0 5.711956 11.423912">71%</tspan></text>
</g>
    </g>
    <g id="g140">
      <g clip-path="url(#clipPath144)" id="g142"><text id="text148" style="font-variant:normal;font-weight:normal;font-size:10.17599964px;font-family:Arial;-inkscape-font-specification:Arial;writing-mode:lr-tb;fill:#000000;fill-opacity:1;fill-rule:nonzero;stroke:none" transform="matrix(1,0,0,-1,500.45,392.95)"><tspan id="tspan150" y="0" x="0 5.711956 11.423912">70%</tspan></text>
</g>
    </g>
    <g id="g152">
      <g clip-path="url(#clipPath156)" id="g154"><text id="text160" style="font-variant:normal;font-weight:normal;font-size:10.17599964px;font-family:Arial;-inkscape-font-specification:Arial;writing-mode:lr-tb;fill:#000000;fill-opacity:1;fill-rule:nonzero;stroke:none" transform="matrix(1,0,0,-1,497.38,376.32)"><tspan id="tspan162" y="0" x="0 5.6879559 11.375912">69%</tspan></text>
</g>
    </g>
    <g id="g164">
      <g clip-path="url(#clipPath168)" id="g166"><text id="text172" style="font-variant:normal;font-weight:normal;font-size:10.17599964px;font-family:Arial;-inkscape-font-specification:Arial;writing-mode:lr-tb;fill:#000000;fill-opacity:1;fill-rule:nonzero;stroke:none" transform="matrix(1,0,0,-1,490.92,359.69)"><tspan id="tspan174" y="0" x="0 5.6879559 11.375912">68%</tspan></text>
</g>
    </g>
    <g id="g176">
      <g clip-path="url(#clipPath180)" id="g178"><text id="text184" style="font-variant:normal;font-weight:normal;font-size:10.17599964px;font-family:Arial;-inkscape-font-specification:Arial;writing-mode:lr-tb;fill:#000000;fill-opacity:1;fill-rule:nonzero;stroke:none" transform="matrix(1,0,0,-1,489.84,343.08)"><tspan id="tspan186" y="0" x="0 5.6879559 11.375912">67%</tspan></text>
</g>
    </g>
    <g id="g188">
      <g clip-path="url(#clipPath192)" id="g190"><text id="text196" style="font-variant:normal;font-weight:normal;font-size:10.17599964px;font-family:Arial;-inkscape-font-specification:Arial;writing-mode:lr-tb;fill:#000000;fill-opacity:1;fill-rule:nonzero;stroke:none" transform="matrix(1,0,0,-1,486.29,326.45)"><tspan id="tspan198" y="0" x="0 5.711956 11.423912">67%</tspan></text>
</g>
    </g>
    <g id="g200">
      <g clip-path="url(#clipPath204)" id="g202"><text id="text208" style="font-variant:normal;font-weight:normal;font-size:10.17599964px;font-family:Arial;-inkscape-font-specification:Arial;writing-mode:lr-tb;fill:#000000;fill-opacity:1;fill-rule:nonzero;stroke:none" transform="matrix(1,0,0,-1,453.12,309.82)"><tspan id="tspan210" y="0" x="0 5.6879559 11.375912">60%</tspan></text>
</g>
    </g>
    <g id="g212">
      <g clip-path="url(#clipPath216)" id="g214"><text id="text220" style="font-variant:normal;font-weight:normal;font-size:10.17599964px;font-family:Arial;-inkscape-font-specification:Arial;writing-mode:lr-tb;fill:#000000;fill-opacity:1;fill-rule:nonzero;stroke:none" transform="matrix(1,0,0,-1,432.02,293.18)"><tspan id="tspan222" y="0" x="0 5.711956 11.423912">56%</tspan></text>
</g>
    </g>
    <g id="g224">
      <g clip-path="url(#clipPath228)" id="g226"><text id="text232" style="font-variant:normal;font-weight:normal;font-size:10.19999981px;font-family:Arial;-inkscape-font-specification:Arial;writing-mode:lr-tb;fill:#000000;fill-opacity:1;fill-rule:nonzero;stroke:none" transform="matrix(1,0,0,-1,146.59,463.68)"><tspan id="tspan234" y="0" x="0 5.6880002">0%</tspan></text>
</g>
    </g>
    <g id="g236">
      <g clip-path="url(#clipPath240)" id="g238"><text id="text244" style="font-variant:normal;font-weight:normal;font-size:10.19999981px;font-family:Arial;-inkscape-font-specification:Arial;writing-mode:lr-tb;fill:#000000;fill-opacity:1;fill-rule:nonzero;stroke:none" transform="matrix(1,0,0,-1,192.6,463.68)"><tspan id="tspan246" y="0" x="0 5.6711998 11.2608">10%</tspan></text>
</g>
    </g>
    <g id="g248">
      <g clip-path="url(#clipPath252)" id="g250"><text id="text256" style="font-variant:normal;font-weight:normal;font-size:10.19999981px;font-family:Arial;-inkscape-font-specification:Arial;writing-mode:lr-tb;fill:#000000;fill-opacity:1;fill-rule:nonzero;stroke:none" transform="matrix(1,0,0,-1,241.44,463.68)"><tspan id="tspan258" y="0" x="0 5.7017999 11.271">20%</tspan></text>
</g>
    </g>
    <g id="g260">
      <g clip-path="url(#clipPath264)" id="g262"><text id="text268" style="font-variant:normal;font-weight:normal;font-size:10.19999981px;font-family:Arial;-inkscape-font-specification:Arial;writing-mode:lr-tb;fill:#000000;fill-opacity:1;fill-rule:nonzero;stroke:none" transform="matrix(1,0,0,-1,290.28,463.68)"><tspan id="tspan270" y="0" x="0 5.7017999 11.271">30%</tspan></text>
</g>
    </g>
    <g id="g272">
      <g clip-path="url(#clipPath276)" id="g274"><text id="text280" style="font-variant:normal;font-weight:normal;font-size:10.19999981px;font-family:Arial;-inkscape-font-specification:Arial;writing-mode:lr-tb;fill:#000000;fill-opacity:1;fill-rule:nonzero;stroke:none" transform="matrix(1,0,0,-1,339.14,463.68)"><tspan id="tspan282" y="0" x="0 5.6711998 11.2608">40%</tspan></text>
</g>
    </g>
    <g id="g284">
      <g clip-path="url(#clipPath288)" id="g286"><text id="text292" style="font-variant:normal;font-weight:normal;font-size:10.19999981px;font-family:Arial;-inkscape-font-specification:Arial;writing-mode:lr-tb;fill:#000000;fill-opacity:1;fill-rule:nonzero;stroke:none" transform="matrix(1,0,0,-1,387.98,463.68)"><tspan id="tspan294" y="0" x="0 5.6711998 11.2608">50%</tspan></text>
</g>
    </g>
    <g id="g296">
      <g clip-path="url(#clipPath300)" id="g298"><text id="text304" style="font-variant:normal;font-weight:normal;font-size:10.19999981px;font-family:Arial;-inkscape-font-specification:Arial;writing-mode:lr-tb;fill:#000000;fill-opacity:1;fill-rule:nonzero;stroke:none" transform="matrix(1,0,0,-1,436.82,463.68)"><tspan id="tspan306" y="0" x="0 5.7017999 11.271">60%</tspan></text>
</g>
    </g>
    <g id="g308">
      <g clip-path="url(#clipPath312)" id="g310"><text id="text316" style="font-variant:normal;font-weight:normal;font-size:10.19999981px;font-family:Arial;-inkscape-font-specification:Arial;writing-mode:lr-tb;fill:#000000;fill-opacity:1;fill-rule:nonzero;stroke:none" transform="matrix(1,0,0,-1,485.69,463.68)"><tspan id="tspan318" y="0" x="0 5.6711998 11.2302">70%</tspan></text>
</g>
    </g>
    <g id="g320">
      <g clip-path="url(#clipPath324)" id="g322"><text id="text328" style="font-variant:normal;font-weight:normal;font-size:10.19999981px;font-family:Arial;-inkscape-font-specification:Arial;writing-mode:lr-tb;fill:#000000;fill-opacity:1;fill-rule:nonzero;stroke:none" transform="matrix(1,0,0,-1,534.53,463.68)"><tspan id="tspan330" y="0" x="0 5.6711998 11.2608">80%</tspan></text>
</g>
    </g>
    <g id="g332">
      <g clip-path="url(#clipPath336)" id="g334"><text id="text340" style="font-variant:normal;font-weight:normal;font-size:10.17599964px;font-family:Arial;-inkscape-font-specification:Arial;writing-mode:lr-tb;fill:#000000;fill-opacity:1;fill-rule:nonzero;stroke:none" transform="matrix(1,0,0,-1,103.9,443.23)"><tspan id="tspan342" y="0" x="0 6.7873921 12.445248 18.001345 20.830273 29.367935 34.913857 38.302464">Pop Mart</tspan></text>
</g>
    </g>
    <g id="g344">
      <g clip-path="url(#clipPath348)" id="g346"><text id="text352" style="font-variant:normal;font-weight:normal;font-size:10.17599964px;font-family:Arial;-inkscape-font-specification:Arial;writing-mode:lr-tb;fill:#000000;fill-opacity:1;fill-rule:nonzero;stroke:none" transform="matrix(1,0,0,-1,114.07,426.6)"><tspan id="tspan354" y="0" x="0 7.3470721 9.606144 14.643264 20.301121 26.009855">Disney</tspan></text>
</g>
    </g>
    <g id="g356">
      <g clip-path="url(#clipPath360)" id="g358"><text id="text364" style="font-variant:normal;font-weight:normal;font-size:10.17599964px;font-family:Arial;-inkscape-font-specification:Arial;writing-mode:lr-tb;fill:#000000;fill-opacity:1;fill-rule:nonzero;stroke:none" transform="matrix(1,0,0,-1,117.46,409.97)"><tspan id="tspan366" y="0" x="0 8.4257278 14.124288 16.953217 19.822847 25.521408">Mattel</tspan></text>
</g>
    </g>
    <g id="g368">
      <g clip-path="url(#clipPath372)" id="g370"><text id="text376" style="font-variant:normal;font-weight:normal;font-size:10.17599964px;font-family:Arial;-inkscape-font-specification:Arial;writing-mode:lr-tb;fill:#000000;fill-opacity:1;fill-rule:nonzero;stroke:none" transform="matrix(1,0,0,-1,111.24,393.36)"><tspan id="tspan378" y="0" x="0 5.149056 10.715328 13.004928 15.294528 20.311296 25.460352 31.026625">Jellycat</tspan></text>
</g>
    </g>
    <g id="g380">
      <g clip-path="url(#clipPath384)" id="g382"><text id="text388" style="font-variant:normal;font-weight:normal;font-size:10.17599964px;font-family:Arial;-inkscape-font-specification:Arial;writing-mode:lr-tb;fill:#000000;fill-opacity:1;fill-rule:nonzero;stroke:none" transform="matrix(1,0,0,-1,115.75,376.73)"><tspan id="tspan390" y="0" x="0 6.7873921 12.496128 18.062401 21.451008 23.76096">Sanrio</tspan></text>
</g>
    </g>
    <g id="g392">
      <g clip-path="url(#clipPath396)" id="g394"><text id="text400" style="font-variant:normal;font-weight:normal;font-size:10.17599964px;font-family:Arial;-inkscape-font-specification:Arial;writing-mode:lr-tb;fill:#000000;fill-opacity:1;fill-rule:nonzero;stroke:none" transform="matrix(1,0,0,-1,88.056,360.1)"><tspan id="tspan402" y="0" x="0 9.636672 15.294528 18.591553 24.249409 29.958143 33.346752 36.175678 42.963074 46.351681 51.938305">Warner Bros</tspan></text>
</g>
    </g>
    <g id="g404">
      <g clip-path="url(#clipPath408)" id="g406"><text id="text412" style="font-variant:normal;font-weight:normal;font-size:10.17599964px;font-family:Arial;-inkscape-font-specification:Arial;writing-mode:lr-tb;fill:#000000;fill-opacity:1;fill-rule:nonzero;stroke:none" transform="matrix(1,0,0,-1,112.37,343.46)"><tspan id="tspan414" y="0" x="0 7.3470721 13.004928 18.052223 23.750784 27.139393">Hasbro</tspan></text>
</g>
    </g>
    <g id="g416">
      <g clip-path="url(#clipPath420)" id="g418"><text id="text424" style="font-variant:normal;font-weight:normal;font-size:10.17599964px;font-family:Arial;-inkscape-font-specification:Arial;writing-mode:lr-tb;fill:#000000;fill-opacity:1;fill-rule:nonzero;stroke:none" transform="matrix(1,0,0,-1,122.54,326.86)"><tspan id="tspan426" y="0" x="0 6.2582402 13.045632 20.392704">TPCi</tspan></text>
</g>
    </g>
    <g id="g428">
      <g clip-path="url(#clipPath432)" id="g430"><text id="text436" style="font-variant:normal;font-weight:normal;font-size:10.17599964px;font-family:Arial;-inkscape-font-specification:Arial;writing-mode:lr-tb;fill:#000000;fill-opacity:1;fill-rule:nonzero;stroke:none" transform="matrix(1,0,0,-1,104.42,310.22)"><tspan id="tspan438" y="0" x="0 7.3470721 9.6570244 15.355584 18.092928 23.791489 29.490047 35.188606">Nintendo</tspan></text>
</g>
    </g>
    <g id="g440">
      <g clip-path="url(#clipPath444)" id="g442"><text id="text448" style="font-variant:normal;font-weight:normal;font-size:10.17599964px;font-family:Arial;-inkscape-font-specification:Arial;writing-mode:lr-tb;fill:#000000;fill-opacity:1;fill-rule:nonzero;stroke:none" transform="matrix(1,0,0,-1,55.8,293.59)"><tspan id="tspan450" y="0" x="0 8.4257278 16.43424 23.221632 26.070911 32.858303 38.434753 41.26368 46.972416 50.361023 53.189953 58.776577 61.066177 66.72403 75.200638 80.858498 86.546883">MGA Entertainment</tspan></text>
</g>
    </g>
    <g id="g452">
      <g clip-path="url(#clipPath456)" id="g454"><text id="text460" style="font-variant:normal;font-weight:bold;font-size:12.2159996px;font-family:Arial;-inkscape-font-specification:'Arial Bold';writing-mode:lr-tb;fill:#000000;fill-opacity:1;fill-rule:nonzero;stroke:none" transform="matrix(1,0,0,-1,231.98,492.96)"><tspan id="tspan462" y="0" x="0 8.819952 16.968023 21.035952 24.383137 31.847113 36.599136 43.391232 50.855209 57.598438 65.062416 68.458466 75.250557 81.981575 85.377625 94.197578 100.94081 108.40479 115.86876 120.62078 127.41288 134.87686 141.62009 148.41219 155.15541 158.55147 167.37141 174.11465 178.18257 184.97467">US: Franchise Repurchase Rate </tspan></text>
</g>
    </g>
    <g id="g464">
      <g clip-path="url(#clipPath468)" id="g466"><text id="text472" style="font-variant:normal;font-weight:bold;font-size:12.2159996px;font-family:Arial;-inkscape-font-specification:'Arial Bold';writing-mode:lr-tb;fill:#000000;fill-opacity:1;fill-rule:nonzero;stroke:none" transform="matrix(1,0,0,-1,146.47,478.85)"><tspan id="tspan474" y="0" x="0 4.0679278 12.216 19.679976 26.472073 31.224096 38.016193 41.412239 48.876217 52.895279 56.291328 64.4394 71.231499 78.02359 88.199516 91.595566 99.694778 107.15875 114.62273 122.0867 129.55067 136.34277 141.0948 147.8869 151.28294 160.10289 167.56688 175.03085 181.82294 185.21899 192.68297 199.47507 204.22708 207.57426 215.03825 222.50223 225.89827 234.04634 241.51031 246.26234 253.05444 260.5184 267.31052 274.1026 277.49866 284.96265 292.42661 295.7738 304.59375 311.38583 318.17795 322.24585 325.64191 333.59451 340.38663 347.17871 351.93076">(Share of P12M Shoppers Considering Purchasing Next Year)</tspan></text>
</g>
    </g>
  </g>
</svg>
