<?xml version="1.0" encoding="UTF-8" standalone="no"?>
<svg xmlns:dc="http://purl.org/dc/elements/1.1/" xmlns:cc="http://creativecommons.org/ns#" xmlns:rdf="http://www.w3.org/1999/02/22-rdf-syntax-ns#" xmlns:svg="http://www.w3.org/2000/svg" xmlns="http://www.w3.org/2000/svg" viewBox="63.04875 360.1875 639 269.5125" height="269.5125" width="639" xml:space="preserve" version="1.1" id="svg2">
  <metadata id="metadata8">
    <rdf:RDF>
      <cc:Work rdf:about="">
        <dc:format>image/svg+xml</dc:format>
        <dc:type rdf:resource="http://purl.org/dc/dcmitype/StillImage"/>
      </cc:Work>
    </rdf:RDF>
  </metadata>
  <defs id="defs6">
    <clipPath id="clipPath16" clipPathUnits="userSpaceOnUse">
      <path style="clip-rule:evenodd" id="path18" d="m 50.4,288.24 511.2,0 0,215.64 -511.2,0 0,-215.64 z"/>
    </clipPath>
    <clipPath id="clipPath26" clipPathUnits="userSpaceOnUse">
      <path style="clip-rule:evenodd" id="path28" d="m 50.4,288.24 511.2,0 0,215.64 -511.2,0 0,-215.64 z"/>
    </clipPath>
    <clipPath id="clipPath36" clipPathUnits="userSpaceOnUse">
      <path style="clip-rule:evenodd" id="path38" d="m 50.496,288.35 511.05,0 0,215.43 -511.05,0 0,-215.43 z"/>
    </clipPath>
    <clipPath id="clipPath46" clipPathUnits="userSpaceOnUse">
      <path style="clip-rule:evenodd" id="path48" d="m 50.496,288.35 511.05,0 0,215.43 -511.05,0 0,-215.43 z"/>
    </clipPath>
    <clipPath id="clipPath60" clipPathUnits="userSpaceOnUse">
      <path style="clip-rule:evenodd" id="path62" d="m 50.52,288.24 511.08,0 0,215.52 -511.08,0 0,-215.52 z"/>
    </clipPath>
    <clipPath id="clipPath72" clipPathUnits="userSpaceOnUse">
      <path style="clip-rule:evenodd" id="path74" d="m 50.52,288.24 511.08,0 0,215.52 -511.08,0 0,-215.52 z"/>
    </clipPath>
    <clipPath id="clipPath84" clipPathUnits="userSpaceOnUse">
      <path style="clip-rule:evenodd" id="path86" d="m 50.52,288.24 511.08,0 0,215.52 -511.08,0 0,-215.52 z"/>
    </clipPath>
    <clipPath id="clipPath96" clipPathUnits="userSpaceOnUse">
      <path style="clip-rule:evenodd" id="path98" d="m 50.52,288.24 511.08,0 0,215.52 -511.08,0 0,-215.52 z"/>
    </clipPath>
    <clipPath id="clipPath108" clipPathUnits="userSpaceOnUse">
      <path style="clip-rule:evenodd" id="path110" d="m 50.52,288.24 511.08,0 0,215.52 -511.08,0 0,-215.52 z"/>
    </clipPath>
    <clipPath id="clipPath120" clipPathUnits="userSpaceOnUse">
      <path style="clip-rule:evenodd" id="path122" d="m 50.52,288.24 511.08,0 0,215.52 -511.08,0 0,-215.52 z"/>
    </clipPath>
    <clipPath id="clipPath132" clipPathUnits="userSpaceOnUse">
      <path style="clip-rule:evenodd" id="path134" d="m 50.52,288.24 511.08,0 0,215.52 -511.08,0 0,-215.52 z"/>
    </clipPath>
    <clipPath id="clipPath144" clipPathUnits="userSpaceOnUse">
      <path style="clip-rule:evenodd" id="path146" d="m 50.52,288.24 511.08,0 0,215.52 -511.08,0 0,-215.52 z"/>
    </clipPath>
    <clipPath id="clipPath156" clipPathUnits="userSpaceOnUse">
      <path style="clip-rule:evenodd" id="path158" d="m 50.52,288.24 511.08,0 0,215.52 -511.08,0 0,-215.52 z"/>
    </clipPath>
    <clipPath id="clipPath168" clipPathUnits="userSpaceOnUse">
      <path style="clip-rule:evenodd" id="path170" d="m 50.52,288.24 511.08,0 0,215.52 -511.08,0 0,-215.52 z"/>
    </clipPath>
    <clipPath id="clipPath180" clipPathUnits="userSpaceOnUse">
      <path style="clip-rule:evenodd" id="path182" d="m 50.52,288.24 511.08,0 0,215.52 -511.08,0 0,-215.52 z"/>
    </clipPath>
    <clipPath id="clipPath192" clipPathUnits="userSpaceOnUse">
      <path style="clip-rule:evenodd" id="path194" d="m 50.52,288.24 511.08,0 0,215.52 -511.08,0 0,-215.52 z"/>
    </clipPath>
    <clipPath id="clipPath204" clipPathUnits="userSpaceOnUse">
      <path style="clip-rule:evenodd" id="path206" d="m 50.52,288.24 511.08,0 0,215.52 -511.08,0 0,-215.52 z"/>
    </clipPath>
    <clipPath id="clipPath216" clipPathUnits="userSpaceOnUse">
      <path style="clip-rule:evenodd" id="path218" d="m 50.52,288.24 511.08,0 0,215.52 -511.08,0 0,-215.52 z"/>
    </clipPath>
    <clipPath id="clipPath228" clipPathUnits="userSpaceOnUse">
      <path style="clip-rule:evenodd" id="path230" d="m 50.52,288.24 511.08,0 0,215.52 -511.08,0 0,-215.52 z"/>
    </clipPath>
    <clipPath id="clipPath240" clipPathUnits="userSpaceOnUse">
      <path style="clip-rule:evenodd" id="path242" d="m 50.52,288.24 511.08,0 0,215.52 -511.08,0 0,-215.52 z"/>
    </clipPath>
    <clipPath id="clipPath252" clipPathUnits="userSpaceOnUse">
      <path style="clip-rule:evenodd" id="path254" d="m 50.52,288.24 511.08,0 0,215.52 -511.08,0 0,-215.52 z"/>
    </clipPath>
    <clipPath id="clipPath264" clipPathUnits="userSpaceOnUse">
      <path style="clip-rule:evenodd" id="path266" d="m 50.52,288.24 511.08,0 0,215.52 -511.08,0 0,-215.52 z"/>
    </clipPath>
    <clipPath id="clipPath276" clipPathUnits="userSpaceOnUse">
      <path style="clip-rule:evenodd" id="path278" d="m 50.52,288.24 511.08,0 0,215.52 -511.08,0 0,-215.52 z"/>
    </clipPath>
    <clipPath id="clipPath288" clipPathUnits="userSpaceOnUse">
      <path style="clip-rule:evenodd" id="path290" d="m 50.52,288.24 511.08,0 0,215.52 -511.08,0 0,-215.52 z"/>
    </clipPath>
    <clipPath id="clipPath300" clipPathUnits="userSpaceOnUse">
      <path style="clip-rule:evenodd" id="path302" d="m 50.52,288.24 511.08,0 0,215.52 -511.08,0 0,-215.52 z"/>
    </clipPath>
    <clipPath id="clipPath312" clipPathUnits="userSpaceOnUse">
      <path style="clip-rule:evenodd" id="path314" d="m 50.52,288.24 511.08,0 0,215.52 -511.08,0 0,-215.52 z"/>
    </clipPath>
    <clipPath id="clipPath328" clipPathUnits="userSpaceOnUse">
      <path style="clip-rule:evenodd" id="path330" d="m 50.52,288.24 511.08,0 0,215.52 -511.08,0 0,-215.52 z"/>
    </clipPath>
    <clipPath id="clipPath342" clipPathUnits="userSpaceOnUse">
      <path style="clip-rule:evenodd" id="path344" d="m 50.52,288.24 511.08,0 0,215.52 -511.08,0 0,-215.52 z"/>
    </clipPath>
  </defs>
  <g transform="matrix(1.25,0,0,-1.25,0,990)" id="g10">
    <g id="g12">
      <g clip-path="url(#clipPath16)" id="g14">
        <path id="path20" style="fill:none;stroke:#000000;stroke-width:0.14;stroke-linecap:butt;stroke-linejoin:miter;stroke-miterlimit:10;stroke-dasharray:none;stroke-opacity:0" d="m 50.509,503.78 511.191,0 0,-215.57 -511.191,0 0,215.57 z"/>
      </g>
    </g>
    <g id="g22">
      <g clip-path="url(#clipPath26)" id="g24">
        <path id="path30" style="fill:#ffffff;fill-opacity:1;fill-rule:evenodd;stroke:none" d="m 50.509,288.21 511.19,0 0,215.57 -511.19,0 0,-215.57 z"/>
      </g>
    </g>
    <g id="g32">
      <g clip-path="url(#clipPath36)" id="g34">
        <path id="path40" style="fill:none;stroke:#c0c0c0;stroke-width:0.62684;stroke-linecap:round;stroke-linejoin:round;stroke-miterlimit:10;stroke-dasharray:none;stroke-opacity:1" d="m 98.299,342.05 463.401,0 m -463.401,17.3 463.401,0 m -463.401,17.15 463.401,0 m -463.401,17.15 463.401,0 m -463.401,17.3 463.401,0 m -463.401,17.16 463.401,0 m -463.401,17.15 463.401,0 m -463.401,17.3 463.401,0 m -463.401,17.13 463.401,0"/>
      </g>
    </g>
    <g id="g42">
      <g clip-path="url(#clipPath46)" id="g44">
        <path id="path50" style="fill:none;stroke:#808080;stroke-width:1.56710005;stroke-linecap:round;stroke-linejoin:round;stroke-miterlimit:10;stroke-dasharray:none;stroke-opacity:1" d="m 98.299,324.93 463.401,0"/>
      </g>
    </g>
    <path id="path52" style="fill:none;stroke:#005aa4;stroke-width:1.88049996;stroke-linecap:round;stroke-linejoin:round;stroke-miterlimit:10;stroke-dasharray:none;stroke-opacity:1" d="m 100.79,434.57 4.92,0.61 5.11,-0.61 4.97,-9.47 4.96,-1.36 4.97,-5.71 4.96,-0.46 4.97,0.15 4.96,8.13 4.97,-0.45 5.11,2.55 4.96,2.56 4.97,-0.6 4.96,3.31 4.97,-6.92 4.96,-6.77 4.97,0.6 4.96,-2.86 4.97,-4.96 5.11,4.06 4.97,3.16 4.96,-0.15 4.97,-1.81 4.96,3.77 4.96,4.06 4.97,6.62 4.96,-3.16 5.12,-5.57 4.96,-8.42 4.97,-5.87 4.96,-10.53 4.97,-6.17 4.96,0.45 4.97,1.51 4.96,5.71 5.12,3.01 4.96,3.31 4.97,-0.45 4.96,-2.86 4.96,-11.58 4.97,-3.31 4.96,-4.67 4.97,-3.7 5.11,1.45 4.97,3.31 4.96,7.07 4.97,1.8 4.96,6.77 4.97,1.96 4.96,9.78 4.96,0 4.97,0.45 5.11,2.56 4.97,1.2 4.96,1.35 4.97,9.48 4.96,8.13 4.97,10.23 4.96,-1.21 4.97,6.47 5.11,2.71 4.97,4.06 4.96,-1.95 4.97,-10.08 4.96,0.6 4.96,-0.6 4.97,-0.91 4.96,0.6 5.12,1.66 4.96,5.72 4.97,2.1 4.96,3.76 4.97,6.02 4.96,2.54 4.97,-8.56 4.96,-7.07 5.12,-2.55 4.96,-3.16 4.96,-3.61 4.97,3 4.96,1.36 4.97,0.3 4.96,-0.15 4.97,0.6 4.96,3.76 5.12,-2.41 4.96,-4.81 4.97,-8.42 4.96,5.71 4.97,-7.67 4.96,-1.96 4.96,-6.77 5.03,4.97"/>
    <path id="path54" style="fill:none;stroke:#d0b86a;stroke-width:1.88049996;stroke-linecap:round;stroke-linejoin:round;stroke-miterlimit:10;stroke-dasharray:none;stroke-opacity:1" d="m 260.24,325.04 4.94,0.31 4.96,5.57 5.12,7.67 4.96,-2.71 4.97,2.11 4.96,0.9 4.96,-5.71 4.97,1.95 4.96,-0.3 4.97,7.22 5.11,1.81 4.97,6.17 4.96,-0.3 4.97,10.98 4.96,10.53 4.97,-3.91 4.96,2.25 4.96,0.61 4.97,-9.48 5.11,4.81 4.97,0.3 4.96,-1.05 4.97,5.72 4.96,5.86 4.97,-3.91 4.96,2.26 4.97,5.41 5.11,2.26 4.97,-0.45 4.96,-15.19 4.97,-7.23 4.96,1.06 4.96,-0.76 4.97,4.07 4.96,4.81 5.12,3.91 4.96,1.36 4.97,-12.49 4.96,10.08 4.97,-4.51 4.96,4.06 4.97,3.16 4.96,-9.18 5.12,-0.15 4.96,-9.18 4.96,4.52 4.97,6.16 4.96,9.93 4.97,8.11 4.96,-7.66 4.97,3.16 4.96,-3.91 5.12,0.6 4.96,1.51 4.97,0 4.96,1.35 4.97,-9.48 4.96,-1.8 4.96,1.65 5.03,7.38"/>
    <g id="g56">
      <g clip-path="url(#clipPath60)" id="g58"><text id="text64" style="font-variant:normal;font-weight:normal;font-size:11.27999973px;font-family:'Roboto Condensed';-inkscape-font-specification:RobotoCondensed-Regular;writing-mode:lr-tb;fill:#000000;fill-opacity:1;fill-rule:nonzero;stroke:none" transform="matrix(1,0,0,-1,61.128,321.5)"><tspan id="tspan66" y="0" x="0 5.57232 8.5840797 14.1564 19.72872">0.00%</tspan></text>
</g>
    </g>
    <g id="g68">
      <g clip-path="url(#clipPath72)" id="g70"><text id="text76" style="font-variant:normal;font-weight:normal;font-size:11.27999973px;font-family:'Roboto Condensed';-inkscape-font-specification:RobotoCondensed-Regular;writing-mode:lr-tb;fill:#000000;fill-opacity:1;fill-rule:nonzero;stroke:none" transform="matrix(1,0,0,-1,61.128,338.71)"><tspan id="tspan78" y="0" x="0 5.57232 8.5840797 14.1564 19.72872">0.50%</tspan></text>
</g>
    </g>
    <g id="g80">
      <g clip-path="url(#clipPath84)" id="g82"><text id="text88" style="font-variant:normal;font-weight:normal;font-size:11.27999973px;font-family:'Roboto Condensed';-inkscape-font-specification:RobotoCondensed-Regular;writing-mode:lr-tb;fill:#000000;fill-opacity:1;fill-rule:nonzero;stroke:none" transform="matrix(1,0,0,-1,61.128,355.9)"><tspan id="tspan90" y="0" x="0 5.57232 8.5840797 14.1564 19.72872">1.00%</tspan></text>
</g>
    </g>
    <g id="g92">
      <g clip-path="url(#clipPath96)" id="g94"><text id="text100" style="font-variant:normal;font-weight:normal;font-size:11.27999973px;font-family:'Roboto Condensed';-inkscape-font-specification:RobotoCondensed-Regular;writing-mode:lr-tb;fill:#000000;fill-opacity:1;fill-rule:nonzero;stroke:none" transform="matrix(1,0,0,-1,61.128,373.1)"><tspan id="tspan102" y="0" x="0 5.57232 8.5840797 14.1564 19.72872">1.50%</tspan></text>
</g>
    </g>
    <g id="g104">
      <g clip-path="url(#clipPath108)" id="g106"><text id="text112" style="font-variant:normal;font-weight:normal;font-size:11.3039999px;font-family:'Roboto Condensed';-inkscape-font-specification:RobotoCondensed-Regular;writing-mode:lr-tb;fill:#000000;fill-opacity:1;fill-rule:nonzero;stroke:none" transform="matrix(1,0,0,-1,61.128,390.31)"><tspan id="tspan114" y="0" x="0 5.5841761 8.5797358 14.163912 19.748089">2.00%</tspan></text>
</g>
    </g>
    <g id="g116">
      <g clip-path="url(#clipPath120)" id="g118"><text id="text124" style="font-variant:normal;font-weight:normal;font-size:11.27999973px;font-family:'Roboto Condensed';-inkscape-font-specification:RobotoCondensed-Regular;writing-mode:lr-tb;fill:#000000;fill-opacity:1;fill-rule:nonzero;stroke:none" transform="matrix(1,0,0,-1,61.128,407.5)"><tspan id="tspan126" y="0" x="0 5.57232 8.5840797 14.1564 19.72872">2.50%</tspan></text>
</g>
    </g>
    <g id="g128">
      <g clip-path="url(#clipPath132)" id="g130"><text id="text136" style="font-variant:normal;font-weight:normal;font-size:11.27999973px;font-family:'Roboto Condensed';-inkscape-font-specification:RobotoCondensed-Regular;writing-mode:lr-tb;fill:#000000;fill-opacity:1;fill-rule:nonzero;stroke:none" transform="matrix(1,0,0,-1,61.128,424.7)"><tspan id="tspan138" y="0" x="0 5.57232 8.5840797 14.1564 19.72872">3.00%</tspan></text>
</g>
    </g>
    <g id="g140">
      <g clip-path="url(#clipPath144)" id="g142"><text id="text148" style="font-variant:normal;font-weight:normal;font-size:11.27999973px;font-family:'Roboto Condensed';-inkscape-font-specification:RobotoCondensed-Regular;writing-mode:lr-tb;fill:#000000;fill-opacity:1;fill-rule:nonzero;stroke:none" transform="matrix(1,0,0,-1,61.128,441.89)"><tspan id="tspan150" y="0" x="0 5.57232 8.5840797 14.1564 19.72872">3.50%</tspan></text>
</g>
    </g>
    <g id="g152">
      <g clip-path="url(#clipPath156)" id="g154"><text id="text160" style="font-variant:normal;font-weight:normal;font-size:11.27999973px;font-family:'Roboto Condensed';-inkscape-font-specification:RobotoCondensed-Regular;writing-mode:lr-tb;fill:#000000;fill-opacity:1;fill-rule:nonzero;stroke:none" transform="matrix(1,0,0,-1,61.128,459.1)"><tspan id="tspan162" y="0" x="0 5.57232 8.5840797 14.1564 19.72872">4.00%</tspan></text>
</g>
    </g>
    <g id="g164">
      <g clip-path="url(#clipPath168)" id="g166"><text id="text172" style="font-variant:normal;font-weight:normal;font-size:11.3039999px;font-family:'Roboto Condensed';-inkscape-font-specification:RobotoCondensed-Regular;writing-mode:lr-tb;fill:#000000;fill-opacity:1;fill-rule:nonzero;stroke:none" transform="matrix(1,0,0,-1,61.128,476.3)"><tspan id="tspan174" y="0" x="0 5.5841761 8.5797358 14.163912 19.748089">4.50%</tspan></text>
</g>
    </g>
    <g id="g176">
      <g clip-path="url(#clipPath180)" id="g178"><text id="text184" style="font-variant:normal;font-weight:normal;font-size:11.27999973px;font-family:'Roboto Condensed';-inkscape-font-specification:RobotoCondensed-Regular;writing-mode:lr-tb;fill:#000000;fill-opacity:1;fill-rule:nonzero;stroke:none" transform="matrix(1,0,0,-1,85.68,307.03)"><tspan id="tspan186" y="0" x="0 5.4482398 10.85136 16.27704 19.1196 24.691919">Jan-18</tspan></text>
</g>
    </g>
    <g id="g188">
      <g clip-path="url(#clipPath192)" id="g190"><text id="text196" style="font-variant:normal;font-weight:normal;font-size:11.27999973px;font-family:'Roboto Condensed';-inkscape-font-specification:RobotoCondensed-Regular;writing-mode:lr-tb;fill:#000000;fill-opacity:1;fill-rule:nonzero;stroke:none" transform="matrix(1,0,0,-1,131.04,307.03)"><tspan id="tspan198" y="0" x="0 6.7792802 11.99064 15.31824 18.02544 23.597759">Oct-18</tspan></text>
</g>
    </g>
    <g id="g200">
      <g clip-path="url(#clipPath204)" id="g202"><text id="text208" style="font-variant:normal;font-weight:normal;font-size:11.27999973px;font-family:'Roboto Condensed';-inkscape-font-specification:RobotoCondensed-Regular;writing-mode:lr-tb;fill:#000000;fill-opacity:1;fill-rule:nonzero;stroke:none" transform="matrix(1,0,0,-1,176.81,307.03)"><tspan id="tspan210" y="0" x="0 5.40312 10.96416 13.51344 16.19808 21.770399">Jul-19</tspan></text>
</g>
    </g>
    <g id="g212">
      <g clip-path="url(#clipPath216)" id="g214"><text id="text220" style="font-variant:normal;font-weight:normal;font-size:11.27999973px;font-family:'Roboto Condensed';-inkscape-font-specification:RobotoCondensed-Regular;writing-mode:lr-tb;fill:#000000;fill-opacity:1;fill-rule:nonzero;stroke:none" transform="matrix(1,0,0,-1,220.66,307.03)"><tspan id="tspan222" y="0" x="0 6.4521599 12.0132 15.46488 18.30744 23.879761">Apr-20</tspan></text>
</g>
    </g>
    <g id="g224">
      <g clip-path="url(#clipPath228)" id="g226"><text id="text232" style="font-variant:normal;font-weight:normal;font-size:11.27999973px;font-family:'Roboto Condensed';-inkscape-font-specification:RobotoCondensed-Regular;writing-mode:lr-tb;fill:#000000;fill-opacity:1;fill-rule:nonzero;stroke:none" transform="matrix(1,0,0,-1,265.08,307.03)"><tspan id="tspan234" y="0" x="0 5.4482398 10.85136 16.27704 19.14216 24.714479">Jan-21</tspan></text>
</g>
    </g>
    <g id="g236">
      <g clip-path="url(#clipPath240)" id="g238"><text id="text244" style="font-variant:normal;font-weight:normal;font-size:11.27999973px;font-family:'Roboto Condensed';-inkscape-font-specification:RobotoCondensed-Regular;writing-mode:lr-tb;fill:#000000;fill-opacity:1;fill-rule:nonzero;stroke:none" transform="matrix(1,0,0,-1,310.44,307.03)"><tspan id="tspan246" y="0" x="0 6.7792802 12.03576 15.36336 18.05928 23.631599">Oct-21</tspan></text>
</g>
    </g>
    <g id="g248">
      <g clip-path="url(#clipPath252)" id="g250"><text id="text256" style="font-variant:normal;font-weight:normal;font-size:11.27999973px;font-family:'Roboto Condensed';-inkscape-font-specification:RobotoCondensed-Regular;writing-mode:lr-tb;fill:#000000;fill-opacity:1;fill-rule:nonzero;stroke:none" transform="matrix(1,0,0,-1,356.21,307.03)"><tspan id="tspan258" y="0" x="0 5.4482398 10.97544 13.55856 16.25448 21.826799">Jul-22</tspan></text>
</g>
    </g>
    <g id="g260">
      <g clip-path="url(#clipPath264)" id="g262"><text id="text268" style="font-variant:normal;font-weight:normal;font-size:11.27999973px;font-family:'Roboto Condensed';-inkscape-font-specification:RobotoCondensed-Regular;writing-mode:lr-tb;fill:#000000;fill-opacity:1;fill-rule:nonzero;stroke:none" transform="matrix(1,0,0,-1,400.06,307.03)"><tspan id="tspan270" y="0" x="0 6.4972801 12.05832 15.48744 18.35256 23.924879">Apr-23</tspan></text>
</g>
    </g>
    <g id="g272">
      <g clip-path="url(#clipPath276)" id="g274"><text id="text280" style="font-variant:normal;font-weight:normal;font-size:11.27999973px;font-family:'Roboto Condensed';-inkscape-font-specification:RobotoCondensed-Regular;writing-mode:lr-tb;fill:#000000;fill-opacity:1;fill-rule:nonzero;stroke:none" transform="matrix(1,0,0,-1,444.5,307.03)"><tspan id="tspan282" y="0" x="0 5.4482398 10.85136 16.27704 19.1196 24.691919">Jan-24</tspan></text>
</g>
    </g>
    <g id="g284">
      <g clip-path="url(#clipPath288)" id="g286"><text id="text292" style="font-variant:normal;font-weight:normal;font-size:11.27999973px;font-family:'Roboto Condensed';-inkscape-font-specification:RobotoCondensed-Regular;writing-mode:lr-tb;fill:#000000;fill-opacity:1;fill-rule:nonzero;stroke:none" transform="matrix(1,0,0,-1,489.86,307.03)"><tspan id="tspan294" y="0" x="0 6.7792802 11.99064 15.31824 18.048 23.620319">Oct-24</tspan></text>
</g>
    </g>
    <g id="g296">
      <g clip-path="url(#clipPath300)" id="g298"><text id="text304" style="font-variant:normal;font-weight:normal;font-size:11.27999973px;font-family:'Roboto Condensed';-inkscape-font-specification:RobotoCondensed-Regular;writing-mode:lr-tb;fill:#000000;fill-opacity:1;fill-rule:nonzero;stroke:none" transform="matrix(1,0,0,-1,535.63,307.03)"><tspan id="tspan306" y="0" x="0 5.40312 10.96416 13.51344 16.22064 21.792959">Jul-25</tspan></text>
</g>
    </g>
    <g id="g308">
      <g clip-path="url(#clipPath312)" id="g310"><text id="text316" style="font-variant:normal;font-weight:bold;font-size:13.53600025px;font-family:'Roboto Condensed';-inkscape-font-specification:RobotoCondensed-Bold;writing-mode:lr-tb;fill:#000000;fill-opacity:1;fill-rule:nonzero;stroke:none" transform="matrix(1,0,0,-1,283.42,481.39)"><tspan id="tspan318" y="0" x="0 6.9033599 13.80672 20.276928 23.281919 30.92976 39.105503">60+ DQs</tspan></text>
</g>
    </g>
    <path id="path320" style="fill:#ffffff;fill-opacity:1;fill-rule:evenodd;stroke:none" d="m 221.45,458.37 187.37,0 0,21.26 -187.37,0 0,-21.26 z"/>
    <path id="path322" style="fill:none;stroke:#005aa4;stroke-width:1.88049996;stroke-linecap:round;stroke-linejoin:round;stroke-miterlimit:10;stroke-dasharray:none;stroke-opacity:1" d="m 239.44,469 24.07,0"/>
    <g id="g324">
      <g clip-path="url(#clipPath328)" id="g326"><text id="text332" style="font-variant:normal;font-weight:normal;font-size:11.27999973px;font-family:'Roboto Condensed';-inkscape-font-specification:RobotoCondensed-Regular;writing-mode:lr-tb;fill:#000000;fill-opacity:1;fill-rule:nonzero;stroke:none" transform="matrix(1,0,0,-1,266.11,465.6)"><tspan id="tspan334" y="0" x="0 8.5615196 14.73168 20.12352 22.6728 27.951839 32.903759 35.419201 41.566799 48.628078 54.798241">MPL ex BNPL</tspan></text>
</g>
    </g>
    <path id="path336" style="fill:none;stroke:#d0b86a;stroke-width:1.88049996;stroke-linecap:round;stroke-linejoin:round;stroke-miterlimit:10;stroke-dasharray:none;stroke-opacity:1" d="m 343.87,469 24.07,0"/>
    <g id="g338">
      <g clip-path="url(#clipPath342)" id="g340"><text id="text346" style="font-variant:normal;font-weight:normal;font-size:11.27999973px;font-family:'Roboto Condensed';-inkscape-font-specification:RobotoCondensed-Regular;writing-mode:lr-tb;fill:#000000;fill-opacity:1;fill-rule:nonzero;stroke:none" transform="matrix(1,0,0,-1,370.56,465.6)"><tspan id="tspan348" y="0" x="0 6.1476002 13.0848 19.39032">BNPL</tspan></text>
</g>
    </g>
  </g>
</svg>
