<?xml version="1.0" encoding="UTF-8" standalone="no"?>
<svg xmlns:dc="http://purl.org/dc/elements/1.1/" xmlns:cc="http://creativecommons.org/ns#" xmlns:rdf="http://www.w3.org/1999/02/22-rdf-syntax-ns#" xmlns:svg="http://www.w3.org/2000/svg" xmlns="http://www.w3.org/2000/svg" viewBox="63.1725 312 638.8275 366.2125" height="366.2125" width="638.8275" xml:space="preserve" version="1.1" id="svg2">
  <metadata id="metadata8">
    <rdf:RDF>
      <cc:Work rdf:about="">
        <dc:format>image/svg+xml</dc:format>
        <dc:type rdf:resource="http://purl.org/dc/dcmitype/StillImage"/>
      </cc:Work>
    </rdf:RDF>
  </metadata>
  <defs id="defs6">
    <clipPath id="clipPath16" clipPathUnits="userSpaceOnUse">
      <path style="clip-rule:evenodd" id="path18" d="m 50.399,249.48 511.2,0 0,293.04 -511.2,0 0,-293.04 z"/>
    </clipPath>
    <clipPath id="clipPath26" clipPathUnits="userSpaceOnUse">
      <path style="clip-rule:evenodd" id="path28" d="m 50.4,249.48 511.2,0 0,293.04 -511.2,0 0,-293.04 z"/>
    </clipPath>
    <clipPath id="clipPath36" clipPathUnits="userSpaceOnUse">
      <path style="clip-rule:evenodd" id="path38" d="m 50.519,249.48 511.08,0 0,293 -511.08,0 0,-293 z"/>
    </clipPath>
    <clipPath id="clipPath48" clipPathUnits="userSpaceOnUse">
      <path style="clip-rule:evenodd" id="path50" d="m 50.519,249.48 511.08,0 0,293 -511.08,0 0,-293 z"/>
    </clipPath>
    <clipPath id="clipPath58" clipPathUnits="userSpaceOnUse">
      <path style="clip-rule:evenodd" id="path60" d="m 50.52,249.48 511.08,0 0,292.92 -511.08,0 0,-292.92 z"/>
    </clipPath>
    <clipPath id="clipPath70" clipPathUnits="userSpaceOnUse">
      <path style="clip-rule:evenodd" id="path72" d="m 50.52,249.48 511.08,0 0,292.92 -511.08,0 0,-292.92 z"/>
    </clipPath>
    <clipPath id="clipPath82" clipPathUnits="userSpaceOnUse">
      <path style="clip-rule:evenodd" id="path84" d="m 50.52,249.48 511.08,0 0,292.92 -511.08,0 0,-292.92 z"/>
    </clipPath>
    <clipPath id="clipPath94" clipPathUnits="userSpaceOnUse">
      <path style="clip-rule:evenodd" id="path96" d="m 50.52,249.48 511.08,0 0,292.92 -511.08,0 0,-292.92 z"/>
    </clipPath>
    <clipPath id="clipPath106" clipPathUnits="userSpaceOnUse">
      <path style="clip-rule:evenodd" id="path108" d="m 50.52,249.48 511.08,0 0,292.92 -511.08,0 0,-292.92 z"/>
    </clipPath>
    <clipPath id="clipPath118" clipPathUnits="userSpaceOnUse">
      <path style="clip-rule:evenodd" id="path120" d="m 50.52,249.48 511.08,0 0,292.92 -511.08,0 0,-292.92 z"/>
    </clipPath>
    <clipPath id="clipPath130" clipPathUnits="userSpaceOnUse">
      <path style="clip-rule:evenodd" id="path132" d="m 50.52,249.48 511.08,0 0,292.92 -511.08,0 0,-292.92 z"/>
    </clipPath>
    <clipPath id="clipPath142" clipPathUnits="userSpaceOnUse">
      <path style="clip-rule:evenodd" id="path144" d="m 50.52,249.48 511.08,0 0,292.92 -511.08,0 0,-292.92 z"/>
    </clipPath>
    <clipPath id="clipPath154" clipPathUnits="userSpaceOnUse">
      <path style="clip-rule:evenodd" id="path156" d="m 50.52,249.48 511.08,0 0,292.92 -511.08,0 0,-292.92 z"/>
    </clipPath>
    <clipPath id="clipPath166" clipPathUnits="userSpaceOnUse">
      <path style="clip-rule:evenodd" id="path168" d="m 50.52,249.48 511.08,0 0,292.92 -511.08,0 0,-292.92 z"/>
    </clipPath>
    <clipPath id="clipPath178" clipPathUnits="userSpaceOnUse">
      <path style="clip-rule:evenodd" id="path180" d="m 50.52,249.48 511.08,0 0,292.92 -511.08,0 0,-292.92 z"/>
    </clipPath>
    <clipPath id="clipPath190" clipPathUnits="userSpaceOnUse">
      <path style="clip-rule:evenodd" id="path192" d="m 50.52,249.48 511.08,0 0,292.92 -511.08,0 0,-292.92 z"/>
    </clipPath>
    <clipPath id="clipPath202" clipPathUnits="userSpaceOnUse">
      <path style="clip-rule:evenodd" id="path204" d="m 50.52,249.48 511.08,0 0,292.92 -511.08,0 0,-292.92 z"/>
    </clipPath>
    <clipPath id="clipPath214" clipPathUnits="userSpaceOnUse">
      <path style="clip-rule:evenodd" id="path216" d="m 50.52,249.48 511.08,0 0,292.92 -511.08,0 0,-292.92 z"/>
    </clipPath>
    <clipPath id="clipPath226" clipPathUnits="userSpaceOnUse">
      <path style="clip-rule:evenodd" id="path228" d="m 50.52,249.48 511.08,0 0,292.92 -511.08,0 0,-292.92 z"/>
    </clipPath>
    <clipPath id="clipPath238" clipPathUnits="userSpaceOnUse">
      <path style="clip-rule:evenodd" id="path240" d="m 50.52,249.48 511.08,0 0,292.92 -511.08,0 0,-292.92 z"/>
    </clipPath>
    <clipPath id="clipPath250" clipPathUnits="userSpaceOnUse">
      <path style="clip-rule:evenodd" id="path252" d="m 50.52,249.48 511.08,0 0,292.92 -511.08,0 0,-292.92 z"/>
    </clipPath>
    <clipPath id="clipPath262" clipPathUnits="userSpaceOnUse">
      <path style="clip-rule:evenodd" id="path264" d="m 50.52,249.48 511.08,0 0,292.92 -511.08,0 0,-292.92 z"/>
    </clipPath>
    <clipPath id="clipPath274" clipPathUnits="userSpaceOnUse">
      <path style="clip-rule:evenodd" id="path276" d="m 50.52,249.48 511.08,0 0,292.92 -511.08,0 0,-292.92 z"/>
    </clipPath>
    <clipPath id="clipPath286" clipPathUnits="userSpaceOnUse">
      <path style="clip-rule:evenodd" id="path288" d="m 50.52,249.48 511.08,0 0,292.92 -511.08,0 0,-292.92 z"/>
    </clipPath>
    <clipPath id="clipPath298" clipPathUnits="userSpaceOnUse">
      <path style="clip-rule:evenodd" id="path300" d="m 50.52,249.48 511.08,0 0,292.92 -511.08,0 0,-292.92 z"/>
    </clipPath>
    <clipPath id="clipPath310" clipPathUnits="userSpaceOnUse">
      <path style="clip-rule:evenodd" id="path312" d="m 50.52,249.48 511.08,0 0,292.92 -511.08,0 0,-292.92 z"/>
    </clipPath>
    <clipPath id="clipPath322" clipPathUnits="userSpaceOnUse">
      <path style="clip-rule:evenodd" id="path324" d="m 50.52,249.48 511.08,0 0,292.92 -511.08,0 0,-292.92 z"/>
    </clipPath>
    <clipPath id="clipPath334" clipPathUnits="userSpaceOnUse">
      <path style="clip-rule:evenodd" id="path336" d="m 50.52,249.48 511.08,0 0,292.92 -511.08,0 0,-292.92 z"/>
    </clipPath>
    <clipPath id="clipPath346" clipPathUnits="userSpaceOnUse">
      <path style="clip-rule:evenodd" id="path348" d="m 50.52,249.48 511.08,0 0,292.92 -511.08,0 0,-292.92 z"/>
    </clipPath>
    <clipPath id="clipPath358" clipPathUnits="userSpaceOnUse">
      <path style="clip-rule:evenodd" id="path360" d="m 50.52,249.48 511.08,0 0,292.92 -511.08,0 0,-292.92 z"/>
    </clipPath>
    <clipPath id="clipPath370" clipPathUnits="userSpaceOnUse">
      <path style="clip-rule:evenodd" id="path372" d="m 50.399,249.48 511.2,0 0,293.04 -511.2,0 0,-293.04 z"/>
    </clipPath>
    <clipPath id="clipPath380" clipPathUnits="userSpaceOnUse">
      <path style="clip-rule:evenodd" id="path382" d="m 50.4,249.48 511.2,0 0,293.04 -511.2,0 0,-293.04 z"/>
    </clipPath>
  </defs>
  <g transform="matrix(1.25,0,0,-1.25,0,990)" id="g10">
    <g id="g12">
      <g clip-path="url(#clipPath16)" id="g14">
        <path id="path20" style="fill:none;stroke:#000000;stroke-width:0.14;stroke-linecap:butt;stroke-linejoin:miter;stroke-miterlimit:10;stroke-dasharray:none;stroke-opacity:0" d="m 50.608,249.46 511.06,0 0,292.92 -511.06,0 0,-292.92 z"/>
      </g>
    </g>
    <g id="g22">
      <g clip-path="url(#clipPath26)" id="g24">
        <path id="path30" style="fill:#ffffff;fill-opacity:1;fill-rule:evenodd;stroke:none" d="m 50.609,249.46 511.06,0 0,292.92 -511.06,0 0,-292.92 z"/>
      </g>
    </g>
    <g id="g32">
      <g clip-path="url(#clipPath36)" id="g34">
        <path id="path40" style="fill:none;stroke:#c0c0c0;stroke-width:0.44347;stroke-linecap:round;stroke-linejoin:round;stroke-miterlimit:10;stroke-dasharray:none;stroke-opacity:1" d="m 97.645,296.73 464.025,0 m -464.025,27.14 464.025,0 m -464.025,27.14 464.025,0 m -464.025,27.14 464.025,0 m -464.025,27.14 464.025,0 m -464.025,27.14 464.025,0 m -464.025,27.14 464.025,0 m -464.025,27.14 464.025,0 m -464.025,27.14 464.025,0"/>
      </g>
    </g>
    <path id="path42" style="fill:#005aa4;fill-opacity:1;fill-rule:nonzero;stroke:none" d="m 107.57,486.71 13.3,0 0,-81.42 -13.3,0 0,81.42 z m 33.21,0 13.19,0 0,-94.94 -13.19,0 0,94.94 z m 33.1,0 13.3,0 0,-94.94 -13.3,0 0,94.94 z m 33.1,-27.14 13.3,0 0,-103.13 -13.3,0 0,103.13 z m 33.2,-27.14 13.2,0 0,-81.42 -13.2,0 0,81.42 z m 33.1,0 13.31,0 0,-81.42 -13.31,0 0,81.42 z m 33.21,-13.52 13.2,0 0,-73.33 -13.2,0 0,73.33 z m 33.1,0 13.31,0 0,-73.33 -13.31,0 0,73.33 z m 33.1,0 13.31,0 0,-78.76 -13.31,0 0,78.76 z m 33.21,0 13.2,0 0,-78.76 -13.2,0 0,78.76 z m 33.1,0 13.31,0 0,-78.76 -13.31,0 0,78.76 z m 33.21,8.09 13.2,0 0,-81.42 -13.2,0 0,81.42 z m 33.1,16.29 13.3,0 0,-78.66 -13.3,0 0,78.66 z m 33.21,0 13.19,0 0,-78.66 -13.19,0 0,78.66 z"/>
    <g id="g44">
      <g clip-path="url(#clipPath48)" id="g46">
        <path id="path52" style="fill:none;stroke:#808080;stroke-width:1.10870004;stroke-linecap:round;stroke-linejoin:round;stroke-miterlimit:10;stroke-dasharray:none;stroke-opacity:1" d="m 97.645,269.62 464.025,0"/>
      </g>
    </g>
    <g id="g54">
      <g clip-path="url(#clipPath58)" id="g56"><text id="text62" style="font-variant:normal;font-weight:normal;font-size:9.79199982px;font-family:'Roboto Condensed';-inkscape-font-specification:RobotoCondensed-Regular;writing-mode:lr-tb;fill:#000000;fill-opacity:1;fill-rule:nonzero;stroke:none" transform="matrix(1,0,0,-1,79.08,266.62)"><tspan id="tspan64" y="0" x="0 4.8000479">$0</tspan></text>
</g>
    </g>
    <g id="g66">
      <g clip-path="url(#clipPath70)" id="g68"><text id="text74" style="font-variant:normal;font-weight:normal;font-size:9.79199982px;font-family:'Roboto Condensed';-inkscape-font-specification:RobotoCondensed-Regular;writing-mode:lr-tb;fill:#000000;fill-opacity:1;fill-rule:nonzero;stroke:none" transform="matrix(1,0,0,-1,74.28,293.76)"><tspan id="tspan76" y="0" x="0 4.7784958 9.6647043">$50</tspan></text>
</g>
    </g>
    <g id="g78">
      <g clip-path="url(#clipPath82)" id="g80"><text id="text86" style="font-variant:normal;font-weight:normal;font-size:9.79199982px;font-family:'Roboto Condensed';-inkscape-font-specification:RobotoCondensed-Regular;writing-mode:lr-tb;fill:#000000;fill-opacity:1;fill-rule:nonzero;stroke:none" transform="matrix(1,0,0,-1,69.456,320.9)"><tspan id="tspan88" y="0" x="0 4.7784958 9.6647043 14.4432">$100</tspan></text>
</g>
    </g>
    <g id="g90">
      <g clip-path="url(#clipPath94)" id="g92"><text id="text98" style="font-variant:normal;font-weight:normal;font-size:9.79199982px;font-family:'Roboto Condensed';-inkscape-font-specification:RobotoCondensed-Regular;writing-mode:lr-tb;fill:#000000;fill-opacity:1;fill-rule:nonzero;stroke:none" transform="matrix(1,0,0,-1,69.456,348.05)"><tspan id="tspan100" y="0" x="0 4.7784958 9.6647043 14.4432">$150</tspan></text>
</g>
    </g>
    <g id="g102">
      <g clip-path="url(#clipPath106)" id="g104"><text id="text110" style="font-variant:normal;font-weight:normal;font-size:9.79199982px;font-family:'Roboto Condensed';-inkscape-font-specification:RobotoCondensed-Regular;writing-mode:lr-tb;fill:#000000;fill-opacity:1;fill-rule:nonzero;stroke:none" transform="matrix(1,0,0,-1,69.456,375.19)"><tspan id="tspan112" y="0" x="0 4.7784958 9.6647043 14.4432">$200</tspan></text>
</g>
    </g>
    <g id="g114">
      <g clip-path="url(#clipPath118)" id="g116"><text id="text122" style="font-variant:normal;font-weight:normal;font-size:9.79199982px;font-family:'Roboto Condensed';-inkscape-font-specification:RobotoCondensed-Regular;writing-mode:lr-tb;fill:#000000;fill-opacity:1;fill-rule:nonzero;stroke:none" transform="matrix(1,0,0,-1,69.456,402.34)"><tspan id="tspan124" y="0" x="0 4.7784958 9.6647043 14.4432">$250</tspan></text>
</g>
    </g>
    <g id="g126">
      <g clip-path="url(#clipPath130)" id="g128"><text id="text134" style="font-variant:normal;font-weight:normal;font-size:9.79199982px;font-family:'Roboto Condensed';-inkscape-font-specification:RobotoCondensed-Regular;writing-mode:lr-tb;fill:#000000;fill-opacity:1;fill-rule:nonzero;stroke:none" transform="matrix(1,0,0,-1,69.456,429.48)"><tspan id="tspan136" y="0" x="0 4.7784958 9.6647043 14.4432">$300</tspan></text>
</g>
    </g>
    <g id="g138">
      <g clip-path="url(#clipPath142)" id="g140"><text id="text146" style="font-variant:normal;font-weight:normal;font-size:9.81599998px;font-family:'Roboto Condensed';-inkscape-font-specification:RobotoCondensed-Regular;writing-mode:lr-tb;fill:#000000;fill-opacity:1;fill-rule:nonzero;stroke:none" transform="matrix(1,0,0,-1,69.456,456.62)"><tspan id="tspan148" y="0" x="0 4.7803922 9.6687603 14.449152">$350</tspan></text>
</g>
    </g>
    <g id="g150">
      <g clip-path="url(#clipPath154)" id="g152"><text id="text158" style="font-variant:normal;font-weight:normal;font-size:9.79199982px;font-family:'Roboto Condensed';-inkscape-font-specification:RobotoCondensed-Regular;writing-mode:lr-tb;fill:#000000;fill-opacity:1;fill-rule:nonzero;stroke:none" transform="matrix(1,0,0,-1,69.456,483.74)"><tspan id="tspan160" y="0" x="0 4.7784958 9.6647043 14.4432">$400</tspan></text>
</g>
    </g>
    <g id="g162">
      <g clip-path="url(#clipPath166)" id="g164"><text id="text170" style="font-variant:normal;font-weight:normal;font-size:9.79199982px;font-family:'Roboto Condensed';-inkscape-font-specification:RobotoCondensed-Regular;writing-mode:lr-tb;fill:#000000;fill-opacity:1;fill-rule:nonzero;stroke:none" transform="matrix(1,0,0,-1,69.456,510.89)"><tspan id="tspan172" y="0" x="0 4.7784958 9.6647043 14.4432">$450</tspan></text>
</g>
    </g>
    <g id="g174">
      <g clip-path="url(#clipPath178)" id="g176"><text id="text182" style="font-variant:normal;font-weight:normal;font-size:9.81599998px;font-family:'Roboto Condensed';-inkscape-font-specification:RobotoCondensed-Regular;writing-mode:lr-tb;fill:#000000;fill-opacity:1;fill-rule:nonzero;stroke:none" transform="matrix(1,0,0,-1,104.62,254.11)"><tspan id="tspan184" y="0" x="0 4.7803922 9.6687603 14.449152">2012</tspan></text>
</g>
    </g>
    <g id="g186">
      <g clip-path="url(#clipPath190)" id="g188"><text id="text194" style="font-variant:normal;font-weight:normal;font-size:9.81599998px;font-family:'Roboto Condensed';-inkscape-font-specification:RobotoCondensed-Regular;writing-mode:lr-tb;fill:#000000;fill-opacity:1;fill-rule:nonzero;stroke:none" transform="matrix(1,0,0,-1,137.76,254.11)"><tspan id="tspan196" y="0" x="0 4.7803922 9.6687603 14.449152">2013</tspan></text>
</g>
    </g>
    <g id="g198">
      <g clip-path="url(#clipPath202)" id="g200"><text id="text206" style="font-variant:normal;font-weight:normal;font-size:9.81599998px;font-family:'Roboto Condensed';-inkscape-font-specification:RobotoCondensed-Regular;writing-mode:lr-tb;fill:#000000;fill-opacity:1;fill-rule:nonzero;stroke:none" transform="matrix(1,0,0,-1,170.9,254.11)"><tspan id="tspan208" y="0" x="0 4.800024 9.6883917 14.488416">2014</tspan></text>
</g>
    </g>
    <g id="g210">
      <g clip-path="url(#clipPath214)" id="g212"><text id="text218" style="font-variant:normal;font-weight:normal;font-size:9.81599998px;font-family:'Roboto Condensed';-inkscape-font-specification:RobotoCondensed-Regular;writing-mode:lr-tb;fill:#000000;fill-opacity:1;fill-rule:nonzero;stroke:none" transform="matrix(1,0,0,-1,204.05,254.11)"><tspan id="tspan220" y="0" x="0 4.800024 9.6883917 14.488416">2015</tspan></text>
</g>
    </g>
    <g id="g222">
      <g clip-path="url(#clipPath226)" id="g224"><text id="text230" style="font-variant:normal;font-weight:normal;font-size:9.81599998px;font-family:'Roboto Condensed';-inkscape-font-specification:RobotoCondensed-Regular;writing-mode:lr-tb;fill:#000000;fill-opacity:1;fill-rule:nonzero;stroke:none" transform="matrix(1,0,0,-1,237.22,254.11)"><tspan id="tspan232" y="0" x="0 4.7803922 9.6687603 14.449152">2016</tspan></text>
</g>
    </g>
    <g id="g234">
      <g clip-path="url(#clipPath238)" id="g236"><text id="text242" style="font-variant:normal;font-weight:normal;font-size:9.81599998px;font-family:'Roboto Condensed';-inkscape-font-specification:RobotoCondensed-Regular;writing-mode:lr-tb;fill:#000000;fill-opacity:1;fill-rule:nonzero;stroke:none" transform="matrix(1,0,0,-1,270.36,254.11)"><tspan id="tspan244" y="0" x="0 4.800024 9.6883917 14.488416">2017</tspan></text>
</g>
    </g>
    <g id="g246">
      <g clip-path="url(#clipPath250)" id="g248"><text id="text254" style="font-variant:normal;font-weight:normal;font-size:9.81599998px;font-family:'Roboto Condensed';-inkscape-font-specification:RobotoCondensed-Regular;writing-mode:lr-tb;fill:#000000;fill-opacity:1;fill-rule:nonzero;stroke:none" transform="matrix(1,0,0,-1,303.5,254.11)"><tspan id="tspan256" y="0" x="0 4.800024 9.6883917 14.488416">2018</tspan></text>
</g>
    </g>
    <g id="g258">
      <g clip-path="url(#clipPath262)" id="g260"><text id="text266" style="font-variant:normal;font-weight:normal;font-size:9.81599998px;font-family:'Roboto Condensed';-inkscape-font-specification:RobotoCondensed-Regular;writing-mode:lr-tb;fill:#000000;fill-opacity:1;fill-rule:nonzero;stroke:none" transform="matrix(1,0,0,-1,336.67,254.11)"><tspan id="tspan268" y="0" x="0 4.7803922 9.6687603 14.449152">2019</tspan></text>
</g>
    </g>
    <g id="g270">
      <g clip-path="url(#clipPath274)" id="g272"><text id="text278" style="font-variant:normal;font-weight:normal;font-size:9.81599998px;font-family:'Roboto Condensed';-inkscape-font-specification:RobotoCondensed-Regular;writing-mode:lr-tb;fill:#000000;fill-opacity:1;fill-rule:nonzero;stroke:none" transform="matrix(1,0,0,-1,369.82,254.11)"><tspan id="tspan280" y="0" x="0 4.7803922 9.6687603 14.449152">2020</tspan></text>
</g>
    </g>
    <g id="g282">
      <g clip-path="url(#clipPath286)" id="g284"><text id="text290" style="font-variant:normal;font-weight:normal;font-size:9.81599998px;font-family:'Roboto Condensed';-inkscape-font-specification:RobotoCondensed-Regular;writing-mode:lr-tb;fill:#000000;fill-opacity:1;fill-rule:nonzero;stroke:none" transform="matrix(1,0,0,-1,402.96,254.11)"><tspan id="tspan292" y="0" x="0 4.800024 9.6883917 14.488416">2021</tspan></text>
</g>
    </g>
    <g id="g294">
      <g clip-path="url(#clipPath298)" id="g296"><text id="text302" style="font-variant:normal;font-weight:normal;font-size:9.81599998px;font-family:'Roboto Condensed';-inkscape-font-specification:RobotoCondensed-Regular;writing-mode:lr-tb;fill:#000000;fill-opacity:1;fill-rule:nonzero;stroke:none" transform="matrix(1,0,0,-1,436.1,254.11)"><tspan id="tspan304" y="0" x="0 4.800024 9.6883917 14.488416">2022</tspan></text>
</g>
    </g>
    <g id="g306">
      <g clip-path="url(#clipPath310)" id="g308"><text id="text314" style="font-variant:normal;font-weight:normal;font-size:9.81599998px;font-family:'Roboto Condensed';-inkscape-font-specification:RobotoCondensed-Regular;writing-mode:lr-tb;fill:#000000;fill-opacity:1;fill-rule:nonzero;stroke:none" transform="matrix(1,0,0,-1,469.27,254.11)"><tspan id="tspan316" y="0" x="0 4.7803922 9.6687603 14.449152">2023</tspan></text>
</g>
    </g>
    <g id="g318">
      <g clip-path="url(#clipPath322)" id="g320"><text id="text326" style="font-variant:normal;font-weight:normal;font-size:9.81599998px;font-family:'Roboto Condensed';-inkscape-font-specification:RobotoCondensed-Regular;writing-mode:lr-tb;fill:#000000;fill-opacity:1;fill-rule:nonzero;stroke:none" transform="matrix(1,0,0,-1,502.42,254.11)"><tspan id="tspan328" y="0" x="0 4.800024 9.6883917 14.488416">2024</tspan></text>
</g>
    </g>
    <g id="g330">
      <g clip-path="url(#clipPath334)" id="g332"><text id="text338" style="font-variant:normal;font-weight:normal;font-size:9.81599998px;font-family:'Roboto Condensed';-inkscape-font-specification:RobotoCondensed-Regular;writing-mode:lr-tb;fill:#000000;fill-opacity:1;fill-rule:nonzero;stroke:none" transform="matrix(1,0,0,-1,535.56,254.11)"><tspan id="tspan340" y="0" x="0 4.800024 9.6883917 14.488416">2025</tspan></text>
</g>
    </g>
    <g id="g342">
      <g clip-path="url(#clipPath346)" id="g344"><text id="text350" style="font-style:italic;font-variant:normal;font-weight:normal;font-size:7.96799994px;font-family:'Roboto Condensed';-inkscape-font-specification:RobotoCondensed-Italic;writing-mode:lr-tb;fill:#000000;fill-opacity:1;fill-rule:nonzero;stroke:none" transform="matrix(-4.4e-8,1,1,4.4e-8,64.776,363.17)"><tspan id="tspan352" y="0" x="0 2.4700799 6.8046718 9.1313276 10.940064 14.549568 18.182976 20.095297 21.904032 25.728672 27.433825 31.290337 33.186722 37.035263 40.652737 42.979393 44.891712 48.413567 54.341759">(Price in $ per kW)</tspan></text>
</g>
    </g>
    <g id="g354">
      <g clip-path="url(#clipPath358)" id="g356"><text id="text362" style="font-variant:normal;font-weight:bold;font-size:10.63199997px;font-family:'Roboto Condensed';-inkscape-font-specification:RobotoCondensed-Bold;writing-mode:lr-tb;fill:#000000;fill-opacity:1;fill-rule:nonzero;stroke:none" transform="matrix(1,0,0,-1,246.29,525.58)"><tspan id="tspan364" y="0" x="0 6.4004641 9.707016 12.38628 17.393951 22.624895 25.920816 30.928488 33.373848 39.263977 44.356705 47.652622 52.660297 55.339561 58.018826 60.464184 66.513794 70.043617 72.722878 77.613602 80.292862 85.523811 90.871704 93.41275 99.270981 104.27866 109.5096 114.8575">Atlanta Retail Pricing Range</tspan></text>
</g>
    </g>
    <g id="g366">
      <g clip-path="url(#clipPath370)" id="g368">
        <path id="path374" style="fill:none;stroke:#000000;stroke-width:0.14;stroke-linecap:butt;stroke-linejoin:miter;stroke-miterlimit:10;stroke-dasharray:none;stroke-opacity:0" d="m 58.211,-41.574 511.09,0 0,293 -511.09,0 0,-293 z"/>
      </g>
    </g>
    <g id="g376">
      <g clip-path="url(#clipPath380)" id="g378">
        <path id="path384" style="fill:#ffffff;fill-opacity:1;fill-rule:evenodd;stroke:none" d="m 58.211,-41.574 511.09,0 0,293 -511.09,0 0,-293 z"/>
      </g>
    </g>
  </g>
</svg>
