<?xml version="1.0" encoding="UTF-8" standalone="no"?>
<svg xmlns:dc="http://purl.org/dc/elements/1.1/" xmlns:cc="http://creativecommons.org/ns#" xmlns:rdf="http://www.w3.org/1999/02/22-rdf-syntax-ns#" xmlns:svg="http://www.w3.org/2000/svg" xmlns="http://www.w3.org/2000/svg" viewBox="15.6 16.209448 315.31064 235.19512" height="235.19512" width="315.31064" xml:space="preserve" version="1.1" id="svg2">
  <metadata id="metadata8">
    <rdf:RDF>
      <cc:Work rdf:about="">
        <dc:format>image/svg+xml</dc:format>
        <dc:type rdf:resource="http://purl.org/dc/dcmitype/StillImage"/>
      </cc:Work>
    </rdf:RDF>
  </metadata>
  <defs id="defs6">
    <clipPath id="clipPath16" clipPathUnits="userSpaceOnUse">
      <path style="clip-rule:evenodd" id="path18" d="m 13.44,567.48 257.54,0 0,32.04 -257.54,0 0,-32.04 z"/>
    </clipPath>
    <clipPath id="clipPath28" clipPathUnits="userSpaceOnUse">
      <path style="clip-rule:evenodd" id="path30" d="m 13.44,529.06 257.54,0 0,9.24 -257.54,0 0,-9.24 z"/>
    </clipPath>
    <clipPath id="clipPath40" clipPathUnits="userSpaceOnUse">
      <path style="clip-rule:evenodd" id="path42" d="m 13.44,451.06 257.54,0 0,13.44 -257.54,0 0,-13.44 z"/>
    </clipPath>
    <clipPath id="clipPath52" clipPathUnits="userSpaceOnUse">
      <path style="clip-rule:evenodd" id="path54" d="m 12.48,406.92 258.48,0 0,193.56 -258.48,0 0,-193.56 z"/>
    </clipPath>
    <clipPath id="clipPath80" clipPathUnits="userSpaceOnUse">
      <path style="clip-rule:evenodd" id="path82" d="m 160.56,445.08 97.8,0 0,123.84 -97.8,0 0,-123.84 z"/>
    </clipPath>
    <clipPath id="clipPath96" clipPathUnits="userSpaceOnUse">
      <path style="clip-rule:evenodd" id="path98" d="m 12.48,406.92 258.48,0 0,193.56 -258.48,0 0,-193.56 z"/>
    </clipPath>
    <clipPath id="clipPath108" clipPathUnits="userSpaceOnUse">
      <path style="clip-rule:evenodd" id="path110" d="m 12.48,406.92 258.48,0 0,193.56 -258.48,0 0,-193.56 z"/>
    </clipPath>
    <clipPath id="clipPath120" clipPathUnits="userSpaceOnUse">
      <path style="clip-rule:evenodd" id="path122" d="m 12.48,406.92 258.48,0 0,193.56 -258.48,0 0,-193.56 z"/>
    </clipPath>
    <clipPath id="clipPath132" clipPathUnits="userSpaceOnUse">
      <path style="clip-rule:evenodd" id="path134" d="m 12.48,406.92 258.48,0 0,193.56 -258.48,0 0,-193.56 z"/>
    </clipPath>
    <clipPath id="clipPath144" clipPathUnits="userSpaceOnUse">
      <path style="clip-rule:evenodd" id="path146" d="m 12.48,406.92 258.48,0 0,193.56 -258.48,0 0,-193.56 z"/>
    </clipPath>
    <clipPath id="clipPath156" clipPathUnits="userSpaceOnUse">
      <path style="clip-rule:evenodd" id="path158" d="m 12.48,406.92 258.48,0 0,193.56 -258.48,0 0,-193.56 z"/>
    </clipPath>
    <clipPath id="clipPath168" clipPathUnits="userSpaceOnUse">
      <path style="clip-rule:evenodd" id="path170" d="m 12.48,406.92 258.48,0 0,193.56 -258.48,0 0,-193.56 z"/>
    </clipPath>
    <clipPath id="clipPath180" clipPathUnits="userSpaceOnUse">
      <path style="clip-rule:evenodd" id="path182" d="m 12.48,406.92 258.48,0 0,193.56 -258.48,0 0,-193.56 z"/>
    </clipPath>
    <clipPath id="clipPath192" clipPathUnits="userSpaceOnUse">
      <path style="clip-rule:evenodd" id="path194" d="m 12.48,406.92 258.48,0 0,193.56 -258.48,0 0,-193.56 z"/>
    </clipPath>
    <clipPath id="clipPath204" clipPathUnits="userSpaceOnUse">
      <path style="clip-rule:evenodd" id="path206" d="m 12.48,406.92 258.48,0 0,193.56 -258.48,0 0,-193.56 z"/>
    </clipPath>
    <clipPath id="clipPath216" clipPathUnits="userSpaceOnUse">
      <path style="clip-rule:evenodd" id="path218" d="m 12.48,406.92 258.48,0 0,193.56 -258.48,0 0,-193.56 z"/>
    </clipPath>
    <clipPath id="clipPath228" clipPathUnits="userSpaceOnUse">
      <path style="clip-rule:evenodd" id="path230" d="m 12.48,406.92 258.48,0 0,193.56 -258.48,0 0,-193.56 z"/>
    </clipPath>
    <clipPath id="clipPath240" clipPathUnits="userSpaceOnUse">
      <path style="clip-rule:evenodd" id="path242" d="m 12.48,406.92 258.48,0 0,193.56 -258.48,0 0,-193.56 z"/>
    </clipPath>
    <clipPath id="clipPath252" clipPathUnits="userSpaceOnUse">
      <path style="clip-rule:evenodd" id="path254" d="m 12.48,406.92 258.48,0 0,193.56 -258.48,0 0,-193.56 z"/>
    </clipPath>
    <clipPath id="clipPath264" clipPathUnits="userSpaceOnUse">
      <path style="clip-rule:evenodd" id="path266" d="m 12.48,406.92 258.48,0 0,193.56 -258.48,0 0,-193.56 z"/>
    </clipPath>
    <clipPath id="clipPath276" clipPathUnits="userSpaceOnUse">
      <path style="clip-rule:evenodd" id="path278" d="m 12.48,406.92 258.48,0 0,193.56 -258.48,0 0,-193.56 z"/>
    </clipPath>
    <clipPath id="clipPath288" clipPathUnits="userSpaceOnUse">
      <path style="clip-rule:evenodd" id="path290" d="m 12.48,406.92 258.48,0 0,193.56 -258.48,0 0,-193.56 z"/>
    </clipPath>
    <clipPath id="clipPath300" clipPathUnits="userSpaceOnUse">
      <path style="clip-rule:evenodd" id="path302" d="m 12.48,406.92 258.48,0 0,193.56 -258.48,0 0,-193.56 z"/>
    </clipPath>
    <clipPath id="clipPath312" clipPathUnits="userSpaceOnUse">
      <path style="clip-rule:evenodd" id="path314" d="m 12.48,406.92 258.48,0 0,193.56 -258.48,0 0,-193.56 z"/>
    </clipPath>
    <clipPath id="clipPath324" clipPathUnits="userSpaceOnUse">
      <path style="clip-rule:evenodd" id="path326" d="m 12.48,406.92 258.48,0 0,193.56 -258.48,0 0,-193.56 z"/>
    </clipPath>
    <clipPath id="clipPath336" clipPathUnits="userSpaceOnUse">
      <path style="clip-rule:evenodd" id="path338" d="m 12.48,406.92 258.48,0 0,193.56 -258.48,0 0,-193.56 z"/>
    </clipPath>
    <clipPath id="clipPath348" clipPathUnits="userSpaceOnUse">
      <path style="clip-rule:evenodd" id="path350" d="m 12.48,406.92 258.48,0 0,193.56 -258.48,0 0,-193.56 z"/>
    </clipPath>
    <clipPath id="clipPath360" clipPathUnits="userSpaceOnUse">
      <path style="clip-rule:evenodd" id="path362" d="m 12.48,406.92 258.48,0 0,193.56 -258.48,0 0,-193.56 z"/>
    </clipPath>
    <clipPath id="clipPath372" clipPathUnits="userSpaceOnUse">
      <path style="clip-rule:evenodd" id="path374" d="m 12.48,406.92 258.48,0 0,193.56 -258.48,0 0,-193.56 z"/>
    </clipPath>
    <clipPath id="clipPath384" clipPathUnits="userSpaceOnUse">
      <path style="clip-rule:evenodd" id="path386" d="m 12.48,406.92 258.48,0 0,193.56 -258.48,0 0,-193.56 z"/>
    </clipPath>
    <clipPath id="clipPath394" clipPathUnits="userSpaceOnUse">
      <path style="clip-rule:evenodd" id="path396" d="m 12.48,406.92 258.48,0 0,193.56 -258.48,0 0,-193.56 z"/>
    </clipPath>
    <clipPath id="clipPath420" clipPathUnits="userSpaceOnUse">
      <path style="clip-rule:evenodd" id="path422" d="m 19.32,488.76 125.16,0 0,71.88 -125.16,0 0,-71.88 z"/>
    </clipPath>
    <clipPath id="clipPath432" clipPathUnits="userSpaceOnUse">
      <path style="clip-rule:evenodd" id="path434" d="m 12.48,406.92 258.48,0 0,193.56 -258.48,0 0,-193.56 z"/>
    </clipPath>
    <clipPath id="clipPath444" clipPathUnits="userSpaceOnUse">
      <path style="clip-rule:evenodd" id="path446" d="m 12.48,406.92 258.48,0 0,193.56 -258.48,0 0,-193.56 z"/>
    </clipPath>
    <clipPath id="clipPath456" clipPathUnits="userSpaceOnUse">
      <path style="clip-rule:evenodd" id="path458" d="m 12.48,406.92 258.48,0 0,193.56 -258.48,0 0,-193.56 z"/>
    </clipPath>
    <clipPath id="clipPath468" clipPathUnits="userSpaceOnUse">
      <path style="clip-rule:evenodd" id="path470" d="m 12.48,406.92 258.48,0 0,193.56 -258.48,0 0,-193.56 z"/>
    </clipPath>
    <clipPath id="clipPath480" clipPathUnits="userSpaceOnUse">
      <path style="clip-rule:evenodd" id="path482" d="m 12.48,406.92 258.48,0 0,193.56 -258.48,0 0,-193.56 z"/>
    </clipPath>
    <clipPath id="clipPath492" clipPathUnits="userSpaceOnUse">
      <path style="clip-rule:evenodd" id="path494" d="m 12.48,406.92 258.48,0 0,193.56 -258.48,0 0,-193.56 z"/>
    </clipPath>
    <clipPath id="clipPath504" clipPathUnits="userSpaceOnUse">
      <path style="clip-rule:evenodd" id="path506" d="m 12.48,406.92 258.48,0 0,193.56 -258.48,0 0,-193.56 z"/>
    </clipPath>
    <clipPath id="clipPath516" clipPathUnits="userSpaceOnUse">
      <path style="clip-rule:evenodd" id="path518" d="m 12.48,406.92 258.48,0 0,193.56 -258.48,0 0,-193.56 z"/>
    </clipPath>
    <clipPath id="clipPath528" clipPathUnits="userSpaceOnUse">
      <path style="clip-rule:evenodd" id="path530" d="m 12.48,406.92 258.48,0 0,193.56 -258.48,0 0,-193.56 z"/>
    </clipPath>
    <clipPath id="clipPath540" clipPathUnits="userSpaceOnUse">
      <path style="clip-rule:evenodd" id="path542" d="m 12.48,406.92 258.48,0 0,193.56 -258.48,0 0,-193.56 z"/>
    </clipPath>
    <clipPath id="clipPath552" clipPathUnits="userSpaceOnUse">
      <path style="clip-rule:evenodd" id="path554" d="m 12.48,406.92 258.48,0 0,193.56 -258.48,0 0,-193.56 z"/>
    </clipPath>
    <clipPath id="clipPath564" clipPathUnits="userSpaceOnUse">
      <path style="clip-rule:evenodd" id="path566" d="m 12.48,406.92 258.48,0 0,193.56 -258.48,0 0,-193.56 z"/>
    </clipPath>
    <clipPath id="clipPath576" clipPathUnits="userSpaceOnUse">
      <path style="clip-rule:evenodd" id="path578" d="m 12.48,406.92 258.48,0 0,193.56 -258.48,0 0,-193.56 z"/>
    </clipPath>
    <clipPath id="clipPath588" clipPathUnits="userSpaceOnUse">
      <path style="clip-rule:evenodd" id="path590" d="m 12.48,406.92 258.48,0 0,193.56 -258.48,0 0,-193.56 z"/>
    </clipPath>
    <clipPath id="clipPath600" clipPathUnits="userSpaceOnUse">
      <path style="clip-rule:evenodd" id="path602" d="m 12.48,406.92 258.48,0 0,193.56 -258.48,0 0,-193.56 z"/>
    </clipPath>
    <clipPath id="clipPath612" clipPathUnits="userSpaceOnUse">
      <path style="clip-rule:evenodd" id="path614" d="m 12.48,406.92 258.48,0 0,193.56 -258.48,0 0,-193.56 z"/>
    </clipPath>
    <clipPath id="clipPath624" clipPathUnits="userSpaceOnUse">
      <path style="clip-rule:evenodd" id="path626" d="m 12.48,406.92 258.48,0 0,193.56 -258.48,0 0,-193.56 z"/>
    </clipPath>
    <clipPath id="clipPath636" clipPathUnits="userSpaceOnUse">
      <path style="clip-rule:evenodd" id="path638" d="m 12.48,406.92 258.48,0 0,193.56 -258.48,0 0,-193.56 z"/>
    </clipPath>
    <clipPath id="clipPath648" clipPathUnits="userSpaceOnUse">
      <path style="clip-rule:evenodd" id="path650" d="m 12.48,406.92 258.48,0 0,193.56 -258.48,0 0,-193.56 z"/>
    </clipPath>
    <clipPath id="clipPath660" clipPathUnits="userSpaceOnUse">
      <path style="clip-rule:evenodd" id="path662" d="m 12.48,406.92 258.48,0 0,193.56 -258.48,0 0,-193.56 z"/>
    </clipPath>
    <clipPath id="clipPath672" clipPathUnits="userSpaceOnUse">
      <path style="clip-rule:evenodd" id="path674" d="m 12.48,406.92 258.48,0 0,193.56 -258.48,0 0,-193.56 z"/>
    </clipPath>
    <clipPath id="clipPath684" clipPathUnits="userSpaceOnUse">
      <path style="clip-rule:evenodd" id="path686" d="m 12.48,406.92 258.48,0 0,193.56 -258.48,0 0,-193.56 z"/>
    </clipPath>
    <clipPath id="clipPath696" clipPathUnits="userSpaceOnUse">
      <path style="clip-rule:evenodd" id="path698" d="m 12.48,406.92 258.48,0 0,193.56 -258.48,0 0,-193.56 z"/>
    </clipPath>
    <clipPath id="clipPath708" clipPathUnits="userSpaceOnUse">
      <path style="clip-rule:evenodd" id="path710" d="m 12.48,406.92 258.48,0 0,193.56 -258.48,0 0,-193.56 z"/>
    </clipPath>
    <clipPath id="clipPath720" clipPathUnits="userSpaceOnUse">
      <path style="clip-rule:evenodd" id="path722" d="m 12.48,406.92 258.48,0 0,193.56 -258.48,0 0,-193.56 z"/>
    </clipPath>
    <clipPath id="clipPath734" clipPathUnits="userSpaceOnUse">
      <path style="clip-rule:evenodd" id="path736" d="m 12.48,406.92 258.48,0 0,193.56 -258.48,0 0,-193.56 z"/>
    </clipPath>
    <clipPath id="clipPath746" clipPathUnits="userSpaceOnUse">
      <path style="clip-rule:evenodd" id="path748" d="m 12.48,406.92 258.48,0 0,193.56 -258.48,0 0,-193.56 z"/>
    </clipPath>
    <clipPath id="clipPath758" clipPathUnits="userSpaceOnUse">
      <path style="clip-rule:evenodd" id="path760" d="m 12.48,406.92 258.48,0 0,193.56 -258.48,0 0,-193.56 z"/>
    </clipPath>
  </defs>
  <g transform="matrix(1.25,0,0,-1.25,0,765)" id="g10">
    <g id="g12">
      <g clip-path="url(#clipPath16)" id="g14"><text id="text20" style="font-variant:normal;font-weight:bold;font-size:26.04000092px;font-family:'Roboto Condensed';-inkscape-font-specification:RobotoCondensed-Bold;writing-mode:lr-tb;fill:#000000;fill-opacity:1;fill-rule:nonzero;stroke:none" transform="matrix(1,0,0,-1,316.85,575.04)"><tspan id="tspan22" y="0" x="0 12.39504 18.957121 32.055241 44.86692 53.512199 65.985359 71.974564 85.150803 98.327042 105.90468 111.89388 131.73636 144.20952 152.8548 165.95293 178.42609 187.07137 198.89352 204.88272 217.74648 230.01132 241.70328 254.17644 260.16565 272.97733 285.94525 293.93951 299.92871 312.81851 325.29169 337.76483 350.57651 356.56573 364.56 377.4498 389.92297 395.91217 408.80197 421.0668 433.87848 446.14331 458.12173 470.59488 482.85971 488.84891 497.39005 510.35797 519.00323 524.99243 532.98669 541.63202 553.89685 566.81268 573.37476 581.42114 587.98322 600.95111 613.76282 626.02765 632.58972 638.63098 650.89581 662.71802 674.59222 687.06543 695.05969 701.04889 720.37054 732.63538 745.44708 757.71191 770.81006 783.2832 791.92847 803.80273 809.66174 815.65094 827.62933 840.59723 852.4975 860.49182 872.39209 878.38129 891.34918 899.99451 905.9837 914.52478 921.08685 934.05481 950.53815 962.36029">Figure 33. Mergers have not been the panacea for traditional asset managers’ costs or flows </tspan></text>
</g>
    </g>
    <g id="g24">
      <g clip-path="url(#clipPath28)" id="g26"><text id="text32" style="font-variant:normal;font-weight:normal;font-size:8.03999996px;font-family:'Roboto Condensed';-inkscape-font-specification:RobotoCondensed-Regular;writing-mode:lr-tb;fill:#000000;fill-opacity:1;fill-rule:nonzero;stroke:none" transform="matrix(1,0,0,-1,314.57,530.86)"><tspan id="tspan34" y="0" x="0 4.1888399 8.2570801 12.1002 14.50416 18.218639 21.94116 25.65564 27.56916 29.370119 33.333839 37.168919 41.132641 42.92556 44.726521 48.441002 50.25 53.964481 58.04076 64.038597 68.002319 71.853477 75.680519 79.033203 80.842201 84.805923 86.60688 90.321358 94.035843 95.844841 99.913078 103.62756 107.47068 109.87464 113.59716 117.31164 118.88748 120.67236 125.1024 127.50636 131.5746 135.42577 139.3734 141.77736 143.57832 147.54204 151.50575 155.22025 156.79608 158.58096 163.38084 165.18179 166.98276 170.45604 174.17856 176.58252 178.38348 184.50996 187.86264 193.86047 197.71164 201.53868 203.33965 207.1908 211.01784 214.869 216.65388 220.00656 223.72908 225.53004 229.24452">Sources: public company disclosures, Broadridge, Oliver Wyman analysis.</tspan></text>
</g>
    </g>
    <g id="g36">
      <g clip-path="url(#clipPath40)" id="g38"><text id="text44" style="font-variant:normal;font-weight:normal;font-size:11.03999996px;font-family:'Roboto Condensed';-inkscape-font-specification:RobotoCondensed-Regular;writing-mode:lr-tb;fill:#000000;fill-opacity:1;fill-rule:nonzero;stroke:none" transform="matrix(1,0,0,-1,314.93,454.54)"><tspan id="tspan46" y="0" x="0 5.7518401 10.91856 14.27472 16.802879 21.969601 27.003839 29.532">Series 1</tspan></text>
</g>
    </g>
    <g id="g48">
      <g clip-path="url(#clipPath52)" id="g50">
        <path id="path56" style="fill:none;stroke:#000000;stroke-width:0.14;stroke-linecap:butt;stroke-linejoin:miter;stroke-miterlimit:10;stroke-dasharray:none;stroke-opacity:0" d="m 154.54,439.24 109.11,0 0,136.16 -109.11,0 0,-136.16 z"/>
      </g>
    </g>
    <path id="path58" style="fill:#ffffff;fill-opacity:1;fill-rule:evenodd;stroke:none" d="m 154.54,439.24 109.1,0 0,136.16 -109.1,0 0,-136.16 z"/>
    <path id="path60" style="fill:#ffffff;fill-opacity:1;fill-rule:evenodd;stroke:none" d="m 160.56,445.75 97.047,0 0,123.13 -97.047,0 0,-123.13 z"/>
    <path id="path62" style="fill:#80add2;fill-opacity:1;fill-rule:nonzero;stroke:none" d="m 210.1,507.42 10.109,0 0,16.067 -10.109,0 0,-16.067 z"/>
    <path id="path64" style="fill:none;stroke:#ffffff;stroke-width:0.75;stroke-linecap:butt;stroke-linejoin:round;stroke-miterlimit:10;stroke-dasharray:none;stroke-opacity:1" d="m 210.1,507.42 10.109,0 0,16.067 -10.109,0 0,-16.067 z"/>
    <path id="path66" style="fill:#80add2;fill-opacity:1;fill-rule:nonzero;stroke:none" d="m 222.23,507.42 10.109,0 0,29.906 -10.109,0 0,-29.906 z"/>
    <path id="path68" style="fill:none;stroke:#ffffff;stroke-width:0.75;stroke-linecap:butt;stroke-linejoin:round;stroke-miterlimit:10;stroke-dasharray:none;stroke-opacity:1" d="m 222.23,507.42 10.109,0 0,29.906 -10.109,0 0,-29.906 z"/>
    <path id="path70" style="fill:#226b5a;fill-opacity:1;fill-rule:nonzero;stroke:none" d="m 234.36,507.42 10.109,0 0,42.145 -10.109,0 0,-42.145 z"/>
    <path id="path72" style="fill:none;stroke:#ffffff;stroke-width:0.75;stroke-linecap:butt;stroke-linejoin:round;stroke-miterlimit:10;stroke-dasharray:none;stroke-opacity:1" d="m 234.36,507.42 10.109,0 0,42.145 -10.109,0 0,-42.145 z"/>
    <path id="path74" style="fill:#226b5a;fill-opacity:1;fill-rule:nonzero;stroke:none" d="m 246.49,507.42 10.109,0 0,61.465 -10.109,0 0,-61.465 z"/>
    <g id="g76">
      <g clip-path="url(#clipPath80)" id="g78">
        <path id="path84" style="fill:none;stroke:#ffffff;stroke-width:0.75;stroke-linecap:butt;stroke-linejoin:round;stroke-miterlimit:10;stroke-dasharray:none;stroke-opacity:1" d="m 246.49,507.42 10.109,0 0,61.465 -10.109,0 0,-61.465 z"/>
      </g>
    </g>
    <path id="path86" style="fill:#d0b86a;fill-opacity:1;fill-rule:nonzero;stroke:none" d="m 161.52,445.75 10.2,0 0,61.73 -10.2,0 0,-61.73 z m 12.24,7.13 10.08,0 0,54.6 -10.08,0 0,-54.6 z m 12.12,36.6 10.08,0 0,18 -10.08,0 0,-18 z m 12.12,6.84 10.08,0 0,11.16 -10.08,0 0,-11.16 z"/>
    <path id="path88" style="fill:none;stroke:#ffffff;stroke-width:0.75;stroke-linecap:butt;stroke-linejoin:round;stroke-miterlimit:10;stroke-dasharray:none;stroke-opacity:1" d="m 161.52,445.75 10.2,0 0,61.73 -10.2,0 0,-61.73 z m 12.24,7.13 10.08,0 0,54.6 -10.08,0 0,-54.6 z m 12.12,36.6 10.08,0 0,18 -10.08,0 0,-18 z m 12.12,6.84 10.08,0 0,11.16 -10.08,0 0,-11.16 z"/>
    <path id="path90" style="fill:none;stroke:#000000;stroke-width:0.75;stroke-linecap:butt;stroke-linejoin:round;stroke-miterlimit:10;stroke-dasharray:none;stroke-opacity:1" d="m 160.56,507.42 97.05,0"/>
    <g id="g92">
      <g clip-path="url(#clipPath96)" id="g94"><text id="text100" style="font-variant:normal;font-weight:normal;font-size:8.03999996px;font-family:'Roboto Condensed';-inkscape-font-specification:RobotoCondensed-Regular;writing-mode:lr-tb;fill:#000000;fill-opacity:1;fill-rule:nonzero;stroke:none" transform="matrix(-4.4e-8,1,1,4.4e-8,171.17,410.62)"><tspan id="tspan102" y="0" x="0 4.5586801 8.2812004 12.13236 13.91724 15.83076">Deal A</tspan></text>
</g>
    </g>
    <g id="g104">
      <g clip-path="url(#clipPath108)" id="g106"><text id="text112" style="font-variant:normal;font-weight:normal;font-size:8.03999996px;font-family:'Roboto Condensed';-inkscape-font-specification:RobotoCondensed-Regular;writing-mode:lr-tb;fill:#000000;fill-opacity:1;fill-rule:nonzero;stroke:none" transform="matrix(-4.4e-8,1,1,4.4e-8,184.87,410.88)"><tspan id="tspan114" y="0" x="0 4.5586801 8.2812004 12.13236 13.91724 15.83076">Deal B</tspan></text>
</g>
    </g>
    <g id="g116">
      <g clip-path="url(#clipPath120)" id="g118"><text id="text124" style="font-variant:normal;font-weight:normal;font-size:8.03999996px;font-family:'Roboto Condensed';-inkscape-font-specification:RobotoCondensed-Regular;writing-mode:lr-tb;fill:#000000;fill-opacity:1;fill-rule:nonzero;stroke:none" transform="matrix(-4.4e-8,1,1,4.4e-8,198.72,410.74)"><tspan id="tspan126" y="0" x="0 4.5586801 8.2812004 12.13236 13.91724 15.83076">Deal C</tspan></text>
</g>
    </g>
    <g id="g128">
      <g clip-path="url(#clipPath132)" id="g130"><text id="text136" style="font-variant:normal;font-weight:normal;font-size:8.03999996px;font-family:'Roboto Condensed';-inkscape-font-specification:RobotoCondensed-Regular;writing-mode:lr-tb;fill:#000000;fill-opacity:1;fill-rule:nonzero;stroke:none" transform="matrix(-4.4e-8,1,1,4.4e-8,212.64,410.74)"><tspan id="tspan138" y="0" x="0 4.5586801 8.2812004 12.13236 13.91724 15.83076">Deal D</tspan></text>
</g>
    </g>
    <g id="g140">
      <g clip-path="url(#clipPath144)" id="g142"><text id="text148" style="font-variant:normal;font-weight:normal;font-size:8.03999996px;font-family:'Roboto Condensed';-inkscape-font-specification:RobotoCondensed-Regular;writing-mode:lr-tb;fill:#000000;fill-opacity:1;fill-rule:nonzero;stroke:none" transform="matrix(-4.4e-8,1,1,4.4e-8,226.37,411.36)"><tspan id="tspan150" y="0" x="0 4.5586801 8.2812004 12.13236 13.91724 15.83076">Deal E</tspan></text>
</g>
    </g>
    <g id="g152">
      <g clip-path="url(#clipPath156)" id="g154"><text id="text160" style="font-variant:normal;font-weight:normal;font-size:8.03999996px;font-family:'Roboto Condensed';-inkscape-font-specification:RobotoCondensed-Regular;writing-mode:lr-tb;fill:#000000;fill-opacity:1;fill-rule:nonzero;stroke:none" transform="matrix(-4.4e-8,1,1,4.4e-8,240.26,411.5)"><tspan id="tspan162" y="0" x="0 4.5586801 8.2812004 12.13236 13.91724 15.83076">Deal F</tspan></text>
</g>
    </g>
    <g id="g164">
      <g clip-path="url(#clipPath168)" id="g166"><text id="text172" style="font-variant:normal;font-weight:normal;font-size:8.03999996px;font-family:'Roboto Condensed';-inkscape-font-specification:RobotoCondensed-Regular;writing-mode:lr-tb;fill:#000000;fill-opacity:1;fill-rule:nonzero;stroke:none" transform="matrix(-4.4e-8,1,1,4.4e-8,253.99,410.5)"><tspan id="tspan174" y="0" x="0 4.5586801 8.2812004 12.13236 13.91724 15.83076">Deal G</tspan></text>
</g>
    </g>
    <g id="g176">
      <g clip-path="url(#clipPath180)" id="g178"><text id="text184" style="font-variant:normal;font-weight:normal;font-size:8.03999996px;font-family:'Roboto Condensed';-inkscape-font-specification:RobotoCondensed-Regular;writing-mode:lr-tb;fill:#000000;fill-opacity:1;fill-rule:nonzero;stroke:none" transform="matrix(-4.4e-8,1,1,4.4e-8,264.65,410.26)"><tspan id="tspan186" y="0" x="0 4.5586801 8.2812004 12.13236 13.91724 15.83076">Deal H</tspan></text>
</g>
    </g>
    <g id="g188">
      <g clip-path="url(#clipPath192)" id="g190"><text id="text196" style="font-variant:normal;font-weight:normal;font-size:8.03999996px;font-family:'Roboto Condensed';-inkscape-font-specification:RobotoCondensed-Regular;writing-mode:lr-tb;fill:#000000;fill-opacity:1;fill-rule:nonzero;stroke:none" transform="matrix(1,0,0,-1,158.66,436.15)"><tspan id="tspan198" y="0" x="0">-</tspan></text>
</g>
    </g>
    <g id="g200">
      <g clip-path="url(#clipPath204)" id="g202"><text id="text208" style="font-variant:normal;font-weight:normal;font-size:8.03999996px;font-family:'Roboto Condensed';-inkscape-font-specification:RobotoCondensed-Regular;writing-mode:lr-tb;fill:#000000;fill-opacity:1;fill-rule:nonzero;stroke:none" transform="matrix(1,0,0,-1,160.7,436.15)"><tspan id="tspan210" y="0" x="0 3.95996 7.91992">103</tspan></text>
</g>
    </g>
    <g id="g212">
      <g clip-path="url(#clipPath216)" id="g214"><text id="text220" style="font-variant:normal;font-weight:normal;font-size:8.03999996px;font-family:'Roboto Condensed';-inkscape-font-specification:RobotoCondensed-Regular;writing-mode:lr-tb;fill:#000000;fill-opacity:1;fill-rule:nonzero;stroke:none" transform="matrix(1,0,0,-1,172.56,443.28)"><tspan id="tspan222" y="0" x="0">-</tspan></text>
</g>
    </g>
    <g id="g224">
      <g clip-path="url(#clipPath228)" id="g226"><text id="text232" style="font-variant:normal;font-weight:normal;font-size:8.03999996px;font-family:'Roboto Condensed';-inkscape-font-specification:RobotoCondensed-Regular;writing-mode:lr-tb;fill:#000000;fill-opacity:1;fill-rule:nonzero;stroke:none" transform="matrix(1,0,0,-1,174.6,443.28)"><tspan id="tspan234" y="0" x="0 3.95996">92</tspan></text>
</g>
    </g>
    <g id="g236">
      <g clip-path="url(#clipPath240)" id="g238"><text id="text244" style="font-variant:normal;font-weight:normal;font-size:8.03999996px;font-family:'Roboto Condensed';-inkscape-font-specification:RobotoCondensed-Regular;writing-mode:lr-tb;fill:#000000;fill-opacity:1;fill-rule:nonzero;stroke:none" transform="matrix(1,0,0,-1,185.81,480.62)"><tspan id="tspan246" y="0" x="0">-</tspan></text>
</g>
    </g>
    <g id="g248">
      <g clip-path="url(#clipPath252)" id="g250"><text id="text256" style="font-variant:normal;font-weight:normal;font-size:8.03999996px;font-family:'Roboto Condensed';-inkscape-font-specification:RobotoCondensed-Regular;writing-mode:lr-tb;fill:#000000;fill-opacity:1;fill-rule:nonzero;stroke:none" transform="matrix(1,0,0,-1,187.85,480.62)"><tspan id="tspan258" y="0" x="0 3.95996">30</tspan></text>
</g>
    </g>
    <g id="g260">
      <g clip-path="url(#clipPath264)" id="g262"><text id="text268" style="font-variant:normal;font-weight:normal;font-size:8.03999996px;font-family:'Roboto Condensed';-inkscape-font-specification:RobotoCondensed-Regular;writing-mode:lr-tb;fill:#000000;fill-opacity:1;fill-rule:nonzero;stroke:none" transform="matrix(1,0,0,-1,198.74,486.98)"><tspan id="tspan270" y="0" x="0">-</tspan></text>
</g>
    </g>
    <g id="g272">
      <g clip-path="url(#clipPath276)" id="g274"><text id="text280" style="font-variant:normal;font-weight:normal;font-size:8.03999996px;font-family:'Roboto Condensed';-inkscape-font-specification:RobotoCondensed-Regular;writing-mode:lr-tb;fill:#000000;fill-opacity:1;fill-rule:nonzero;stroke:none" transform="matrix(1,0,0,-1,200.78,486.98)"><tspan id="tspan282" y="0" x="0 3.95996">19</tspan></text>
</g>
    </g>
    <g id="g284">
      <g clip-path="url(#clipPath288)" id="g286"><text id="text292" style="font-variant:normal;font-weight:normal;font-size:8.03999996px;font-family:'Roboto Condensed';-inkscape-font-specification:RobotoCondensed-Regular;writing-mode:lr-tb;fill:#000000;fill-opacity:1;fill-rule:nonzero;stroke:none" transform="matrix(1,0,0,-1,209.06,526.85)"><tspan id="tspan294" y="0" x="0 3.9637201 7.9354801">+27</tspan></text>
</g>
    </g>
    <g id="g296">
      <g clip-path="url(#clipPath300)" id="g298"><text id="text304" style="font-variant:normal;font-weight:normal;font-size:8.03999996px;font-family:'Roboto Condensed';-inkscape-font-specification:RobotoCondensed-Regular;writing-mode:lr-tb;fill:#000000;fill-opacity:1;fill-rule:nonzero;stroke:none" transform="matrix(1,0,0,-1,219.98,541.1)"><tspan id="tspan306" y="0" x="0 3.9637201 7.9354801">+50</tspan></text>
</g>
    </g>
    <g id="g308">
      <g clip-path="url(#clipPath312)" id="g310"><text id="text316" style="font-variant:normal;font-weight:normal;font-size:8.03999996px;font-family:'Roboto Condensed';-inkscape-font-specification:RobotoCondensed-Regular;writing-mode:lr-tb;fill:#000000;fill-opacity:1;fill-rule:nonzero;stroke:none" transform="matrix(1,0,0,-1,232.8,553.32)"><tspan id="tspan318" y="0" x="0 3.9637201 7.9354801">+71</tspan></text>
</g>
    </g>
    <g id="g320">
      <g clip-path="url(#clipPath324)" id="g322"><text id="text328" style="font-variant:normal;font-weight:normal;font-size:8.03999996px;font-family:'Roboto Condensed';-inkscape-font-specification:RobotoCondensed-Regular;writing-mode:lr-tb;fill:#000000;fill-opacity:1;fill-rule:nonzero;stroke:none" transform="matrix(1,0,0,-1,242.78,572.93)"><tspan id="tspan330" y="0" x="0 3.9637201 7.9354801 11.90724">+103</tspan></text>
</g>
    </g>
    <g id="g332">
      <g clip-path="url(#clipPath336)" id="g334"><text id="text340" style="font-variant:normal;font-weight:bold;font-size:8.03999996px;font-family:'Roboto Condensed';-inkscape-font-specification:RobotoCondensed-Bold;writing-mode:lr-tb;fill:#000000;fill-opacity:1;fill-rule:nonzero;stroke:none" transform="matrix(1,0,0,-1,154.54,592.92)"><tspan id="tspan342" y="0" x="0 4.9204798 8.7716398 11.27208 13.07304 15.71016 17.73624 21.71604 26.75712 30.359039 32.16 34.186081 38.141762 40.674358 44.638081 46.439041 49.07616 53.031841 56.987518 60.975361 64.561203 66.36216 70.197243 74.152924 78.140762 79.917603 83.865242 88.198799 92.025841">Net flows into funds and ETFs</tspan></text>
</g>
    </g>
    <g id="g344">
      <g clip-path="url(#clipPath348)" id="g346"><text id="text352" style="font-variant:normal;font-weight:bold;font-size:8.03999996px;font-family:'Roboto Condensed';-inkscape-font-specification:RobotoCondensed-Bold;writing-mode:lr-tb;fill:#000000;fill-opacity:1;fill-rule:nonzero;stroke:none" transform="matrix(1,0,0,-1,154.54,583.32)"><tspan id="tspan354" y="0" x="0 3.9637201 7.5736799 11.42484 14.04588 15.84684 19.915079 24.24864 26.162161 30.14196 34.081558 37.683479">over 3Y post</tspan></text>
</g>
    </g>
    <g id="g356">
      <g clip-path="url(#clipPath360)" id="g358"><text id="text364" style="font-variant:normal;font-weight:bold;font-size:8.03999996px;font-family:'Roboto Condensed';-inkscape-font-specification:RobotoCondensed-Bold;writing-mode:lr-tb;fill:#000000;fill-opacity:1;fill-rule:nonzero;stroke:none" transform="matrix(1,0,0,-1,194.76,583.32)"><tspan id="tspan366" y="0" x="0">-</tspan></text>
</g>
    </g>
    <g id="g368">
      <g clip-path="url(#clipPath372)" id="g370"><text id="text376" style="font-variant:normal;font-weight:bold;font-size:8.03999996px;font-family:'Roboto Condensed';-inkscape-font-specification:RobotoCondensed-Bold;writing-mode:lr-tb;fill:#000000;fill-opacity:1;fill-rule:nonzero;stroke:none" transform="matrix(1,0,0,-1,197.64,583.32)"><tspan id="tspan378" y="0" x="0 5.9898 9.8409595 12.47004 16.53828 20.389441 23.01852 24.698879 26.72496 30.680639 32.497681 36.565922 41.132641">merger in $BN</tspan></text>
</g>
    </g>
    <g id="g380">
      <g clip-path="url(#clipPath384)" id="g382">
        <path id="path388" style="fill:none;stroke:#000000;stroke-width:0.14;stroke-linecap:butt;stroke-linejoin:miter;stroke-miterlimit:10;stroke-dasharray:none;stroke-opacity:0" d="m 12.48,482.96 138.19,0 0,84.082 -138.19,0 0,-84.082 z"/>
      </g>
    </g>
    <g id="g390">
      <g clip-path="url(#clipPath394)" id="g392">
        <path id="path398" style="fill:#ffffff;fill-opacity:1;fill-rule:evenodd;stroke:none" d="m 12.48,482.96 138.19,0 0,84.082 -138.19,0 0,-84.082 z"/>
      </g>
    </g>
    <path id="path400" style="fill:#ffffff;fill-opacity:1;fill-rule:evenodd;stroke:none" d="m 19.35,489.39 124.45,0 0,71.223 -124.45,0 0,-71.223 z"/>
    <path id="path402" style="fill:#226b5a;fill-opacity:1;fill-rule:nonzero;stroke:none" d="m 98.428,499.03 12.964,0 0,7.257 -12.964,0 0,-7.257 z"/>
    <path id="path404" style="fill:none;stroke:#ffffff;stroke-width:0.75;stroke-linecap:butt;stroke-linejoin:round;stroke-miterlimit:10;stroke-dasharray:none;stroke-opacity:1" d="m 98.428,499.03 12.964,0 0,7.257 -12.964,0 0,-7.257 z"/>
    <path id="path406" style="fill:#226b5a;fill-opacity:1;fill-rule:nonzero;stroke:none" d="m 113.98,496.55 12.964,0 0,9.7451 -12.964,0 0,-9.7451 z"/>
    <path id="path408" style="fill:none;stroke:#ffffff;stroke-width:0.75;stroke-linecap:butt;stroke-linejoin:round;stroke-miterlimit:10;stroke-dasharray:none;stroke-opacity:1" d="m 113.98,496.55 12.964,0 0,9.7451 -12.964,0 0,-9.7451 z"/>
    <path id="path410" style="fill:#226b5a;fill-opacity:1;fill-rule:nonzero;stroke:none" d="m 129.54,489.39 12.964,0 0,16.899 -12.964,0 0,-16.899 z"/>
    <path id="path412" style="fill:none;stroke:#ffffff;stroke-width:0.75;stroke-linecap:butt;stroke-linejoin:round;stroke-miterlimit:10;stroke-dasharray:none;stroke-opacity:1" d="m 129.54,489.39 12.964,0 0,16.899 -12.964,0 0,-16.899 z"/>
    <path id="path414" style="fill:#d0b86a;fill-opacity:1;fill-rule:nonzero;stroke:none" d="m 20.64,560.62 12.96,0 0,-54.34 -12.96,0 0,54.34 z m 15.6,-3.46 12.96,0 0,-50.88 -12.96,0 0,50.88 z m 15.48,-26.04 12.96,0 0,-24.84 -12.96,0 0,24.84 z m 15.6,-3 12.96,0 0,-21.84 -12.96,0 0,21.84 z m 15.6,-17.04 12.96,0 0,-4.8 -12.96,0 0,4.8 z"/>
    <g id="g416">
      <g clip-path="url(#clipPath420)" id="g418">
        <path id="path424" style="fill:none;stroke:#ffffff;stroke-width:0.75;stroke-linecap:butt;stroke-linejoin:round;stroke-miterlimit:10;stroke-dasharray:none;stroke-opacity:1" d="m 20.64,560.62 12.96,0 0,-54.34 -12.96,0 0,54.34 z m 15.6,-3.46 12.96,0 0,-50.88 -12.96,0 0,50.88 z m 15.48,-26.04 12.96,0 0,-24.84 -12.96,0 0,24.84 z m 15.6,-3 12.96,0 0,-21.84 -12.96,0 0,21.84 z m 15.6,-17.04 12.96,0 0,-4.8 -12.96,0 0,4.8 z"/>
      </g>
    </g>
    <path id="path426" style="fill:none;stroke:#000000;stroke-width:0.75;stroke-linecap:butt;stroke-linejoin:round;stroke-miterlimit:10;stroke-dasharray:none;stroke-opacity:1" d="m 19.35,506.29 124.45,0"/>
    <g id="g428">
      <g clip-path="url(#clipPath432)" id="g430"><text id="text436" style="font-variant:normal;font-weight:normal;font-size:8.03999996px;font-family:'Roboto Condensed';-inkscape-font-specification:RobotoCondensed-Regular;writing-mode:lr-tb;fill:#000000;fill-opacity:1;fill-rule:nonzero;stroke:none" transform="matrix(-4.4e-8,1,1,4.4e-8,29.832,455.09)"><tspan id="tspan438" y="0" x="0 4.5586801 8.2812004 12.13236 13.91724 15.83076">Deal 1</tspan></text>
</g>
    </g>
    <g id="g440">
      <g clip-path="url(#clipPath444)" id="g442"><text id="text448" style="font-variant:normal;font-weight:normal;font-size:8.03999996px;font-family:'Roboto Condensed';-inkscape-font-specification:RobotoCondensed-Regular;writing-mode:lr-tb;fill:#000000;fill-opacity:1;fill-rule:nonzero;stroke:none" transform="matrix(-4.4e-8,1,1,4.4e-8,45.432,455.09)"><tspan id="tspan450" y="0" x="0 4.5586801 8.2812004 12.13236 13.91724 15.83076">Deal 2</tspan></text>
</g>
    </g>
    <g id="g452">
      <g clip-path="url(#clipPath456)" id="g454"><text id="text460" style="font-variant:normal;font-weight:normal;font-size:8.03999996px;font-family:'Roboto Condensed';-inkscape-font-specification:RobotoCondensed-Regular;writing-mode:lr-tb;fill:#000000;fill-opacity:1;fill-rule:nonzero;stroke:none" transform="matrix(-4.4e-8,1,1,4.4e-8,61.032,455.09)"><tspan id="tspan462" y="0" x="0 4.5586801 8.2812004 12.13236 13.91724 15.83076">Deal 3</tspan></text>
</g>
    </g>
    <g id="g464">
      <g clip-path="url(#clipPath468)" id="g466"><text id="text472" style="font-variant:normal;font-weight:normal;font-size:8.03999996px;font-family:'Roboto Condensed';-inkscape-font-specification:RobotoCondensed-Regular;writing-mode:lr-tb;fill:#000000;fill-opacity:1;fill-rule:nonzero;stroke:none" transform="matrix(-4.4e-8,1,1,4.4e-8,76.488,455.09)"><tspan id="tspan474" y="0" x="0 4.5586801 8.2812004 12.13236 13.91724 15.83076">Deal 4</tspan></text>
</g>
    </g>
    <g id="g476">
      <g clip-path="url(#clipPath480)" id="g478"><text id="text484" style="font-variant:normal;font-weight:normal;font-size:8.03999996px;font-family:'Roboto Condensed';-inkscape-font-specification:RobotoCondensed-Regular;writing-mode:lr-tb;fill:#000000;fill-opacity:1;fill-rule:nonzero;stroke:none" transform="matrix(-4.4e-8,1,1,4.4e-8,92.088,455.09)"><tspan id="tspan486" y="0" x="0 4.5586801 8.2812004 12.13236 13.91724 15.83076">Deal 5</tspan></text>
</g>
    </g>
    <g id="g488">
      <g clip-path="url(#clipPath492)" id="g490"><text id="text496" style="font-variant:normal;font-weight:normal;font-size:8.03999996px;font-family:'Roboto Condensed';-inkscape-font-specification:RobotoCondensed-Regular;writing-mode:lr-tb;fill:#000000;fill-opacity:1;fill-rule:nonzero;stroke:none" transform="matrix(-4.4e-8,1,1,4.4e-8,107.66,455.09)"><tspan id="tspan498" y="0" x="0 4.5586801 8.2812004 12.13236 13.91724 15.83076">Deal 6</tspan></text>
</g>
    </g>
    <g id="g500">
      <g clip-path="url(#clipPath504)" id="g502"><text id="text508" style="font-variant:normal;font-weight:normal;font-size:8.03999996px;font-family:'Roboto Condensed';-inkscape-font-specification:RobotoCondensed-Regular;writing-mode:lr-tb;fill:#000000;fill-opacity:1;fill-rule:nonzero;stroke:none" transform="matrix(-4.4e-8,1,1,4.4e-8,123.26,455.09)"><tspan id="tspan510" y="0" x="0 4.5586801 8.2812004 12.13236 13.91724 15.83076">Deal 7</tspan></text>
</g>
    </g>
    <g id="g512">
      <g clip-path="url(#clipPath516)" id="g514"><text id="text520" style="font-variant:normal;font-weight:normal;font-size:8.03999996px;font-family:'Roboto Condensed';-inkscape-font-specification:RobotoCondensed-Regular;writing-mode:lr-tb;fill:#000000;fill-opacity:1;fill-rule:nonzero;stroke:none" transform="matrix(-4.4e-8,1,1,4.4e-8,138.74,455.09)"><tspan id="tspan522" y="0" x="0 4.5586801 8.2812004 12.13236 13.91724 15.83076">Deal 8</tspan></text>
</g>
    </g>
    <g id="g524">
      <g clip-path="url(#clipPath528)" id="g526"><text id="text532" style="font-variant:normal;font-weight:normal;font-size:8.03999996px;font-family:'Roboto Condensed';-inkscape-font-specification:RobotoCondensed-Regular;writing-mode:lr-tb;fill:#000000;fill-opacity:1;fill-rule:nonzero;stroke:none" transform="matrix(1,0,0,-1,20.088,564.58)"><tspan id="tspan534" y="0" x="0 3.97176 7.9435201 10.05804">10.5</tspan></text>
</g>
    </g>
    <g id="g536">
      <g clip-path="url(#clipPath540)" id="g538"><text id="text544" style="font-variant:normal;font-weight:normal;font-size:8.03999996px;font-family:'Roboto Condensed';-inkscape-font-specification:RobotoCondensed-Regular;writing-mode:lr-tb;fill:#000000;fill-opacity:1;fill-rule:nonzero;stroke:none" transform="matrix(1,0,0,-1,37.68,561.07)"><tspan id="tspan546" y="0" x="0 3.97176 6.1104002">9.8</tspan></text>
</g>
    </g>
    <g id="g548">
      <g clip-path="url(#clipPath552)" id="g550"><text id="text556" style="font-variant:normal;font-weight:normal;font-size:8.03999996px;font-family:'Roboto Condensed';-inkscape-font-specification:RobotoCondensed-Regular;writing-mode:lr-tb;fill:#000000;fill-opacity:1;fill-rule:nonzero;stroke:none" transform="matrix(1,0,0,-1,53.256,534.86)"><tspan id="tspan558" y="0" x="0 3.97176 6.1104002">4.8</tspan></text>
</g>
    </g>
    <g id="g560">
      <g clip-path="url(#clipPath564)" id="g562"><text id="text568" style="font-variant:normal;font-weight:normal;font-size:8.03999996px;font-family:'Roboto Condensed';-inkscape-font-specification:RobotoCondensed-Regular;writing-mode:lr-tb;fill:#000000;fill-opacity:1;fill-rule:nonzero;stroke:none" transform="matrix(1,0,0,-1,68.736,531.72)"><tspan id="tspan570" y="0" x="0 3.97176 6.1104002">4.2</tspan></text>
</g>
    </g>
    <g id="g572">
      <g clip-path="url(#clipPath576)" id="g574"><text id="text580" style="font-variant:normal;font-weight:normal;font-size:8.03999996px;font-family:'Roboto Condensed';-inkscape-font-specification:RobotoCondensed-Regular;writing-mode:lr-tb;fill:#000000;fill-opacity:1;fill-rule:nonzero;stroke:none" transform="matrix(1,0,0,-1,84.192,515.26)"><tspan id="tspan582" y="0" x="0 3.97176 6.1104002">0.9</tspan></text>
</g>
    </g>
    <g id="g584">
      <g clip-path="url(#clipPath588)" id="g586"><text id="text592" style="font-variant:normal;font-weight:normal;font-size:8.03999996px;font-family:'Roboto Condensed';-inkscape-font-specification:RobotoCondensed-Regular;writing-mode:lr-tb;fill:#000000;fill-opacity:1;fill-rule:nonzero;stroke:none" transform="matrix(1,0,0,-1,98.784,489.24)"><tspan id="tspan594" y="0" x="0">-</tspan></text>
</g>
    </g>
    <g id="g596">
      <g clip-path="url(#clipPath600)" id="g598"><text id="text604" style="font-variant:normal;font-weight:normal;font-size:8.03999996px;font-family:'Roboto Condensed';-inkscape-font-specification:RobotoCondensed-Regular;writing-mode:lr-tb;fill:#000000;fill-opacity:1;fill-rule:nonzero;stroke:none" transform="matrix(1,0,0,-1,100.82,489.24)"><tspan id="tspan606" y="0" x="0 3.97176 6.1104002">1.4</tspan></text>
</g>
    </g>
    <g id="g608">
      <g clip-path="url(#clipPath612)" id="g610"><text id="text616" style="font-variant:normal;font-weight:normal;font-size:8.03999996px;font-family:'Roboto Condensed';-inkscape-font-specification:RobotoCondensed-Regular;writing-mode:lr-tb;fill:#000000;fill-opacity:1;fill-rule:nonzero;stroke:none" transform="matrix(1,0,0,-1,114.38,486.74)"><tspan id="tspan618" y="0" x="0">-</tspan></text>
</g>
    </g>
    <g id="g620">
      <g clip-path="url(#clipPath624)" id="g622"><text id="text628" style="font-variant:normal;font-weight:normal;font-size:8.03999996px;font-family:'Roboto Condensed';-inkscape-font-specification:RobotoCondensed-Regular;writing-mode:lr-tb;fill:#000000;fill-opacity:1;fill-rule:nonzero;stroke:none" transform="matrix(1,0,0,-1,116.42,486.74)"><tspan id="tspan630" y="0" x="0 3.97176 6.1104002">1.9</tspan></text>
</g>
    </g>
    <g id="g632">
      <g clip-path="url(#clipPath636)" id="g634"><text id="text640" style="font-variant:normal;font-weight:normal;font-size:8.03999996px;font-family:'Roboto Condensed';-inkscape-font-specification:RobotoCondensed-Regular;writing-mode:lr-tb;fill:#000000;fill-opacity:1;fill-rule:nonzero;stroke:none" transform="matrix(1,0,0,-1,129.84,479.88)"><tspan id="tspan642" y="0" x="0">-</tspan></text>
</g>
    </g>
    <g id="g644">
      <g clip-path="url(#clipPath648)" id="g646"><text id="text652" style="font-variant:normal;font-weight:normal;font-size:8.03999996px;font-family:'Roboto Condensed';-inkscape-font-specification:RobotoCondensed-Regular;writing-mode:lr-tb;fill:#000000;fill-opacity:1;fill-rule:nonzero;stroke:none" transform="matrix(1,0,0,-1,131.88,479.88)"><tspan id="tspan654" y="0" x="0 3.97176 6.1104002">3.3</tspan></text>
</g>
    </g>
    <g id="g656">
      <g clip-path="url(#clipPath660)" id="g658"><text id="text664" style="font-variant:normal;font-weight:bold;font-size:8.03999996px;font-family:'Roboto Condensed';-inkscape-font-specification:RobotoCondensed-Bold;writing-mode:lr-tb;fill:#000000;fill-opacity:1;fill-rule:nonzero;stroke:none" transform="matrix(1,0,0,-1,18.912,592.92)"><tspan id="tspan666" y="0" x="0 4.5827999 8.5384798 12.34944 16.30512 20.381399 24.232559 25.904881 27.93096 31.886641 33.703678 37.402081 41.405998 44.983799">Change in cost</tspan></text>
</g>
    </g>
    <g id="g668">
      <g clip-path="url(#clipPath672)" id="g670"><text id="text676" style="font-variant:normal;font-weight:bold;font-size:8.03999996px;font-family:'Roboto Condensed';-inkscape-font-specification:RobotoCondensed-Bold;writing-mode:lr-tb;fill:#000000;fill-opacity:1;fill-rule:nonzero;stroke:none" transform="matrix(1,0,0,-1,66.456,592.92)"><tspan id="tspan678" y="0" x="0">-</tspan></text>
</g>
    </g>
    <g id="g680">
      <g clip-path="url(#clipPath684)" id="g682"><text id="text688" style="font-variant:normal;font-weight:bold;font-size:8.03999996px;font-family:'Roboto Condensed';-inkscape-font-specification:RobotoCondensed-Bold;writing-mode:lr-tb;fill:#000000;fill-opacity:1;fill-rule:nonzero;stroke:none" transform="matrix(1,0,0,-1,69.336,592.92)"><tspan id="tspan690" y="0" x="0 2.0260799 5.98176 9.7123203 13.67604 19.66584 23.517 25.18932 27.826441 31.66152 34.169998 36.196079 40.167839 41.848202 45.916439">income ratio 3Y</tspan></text>
</g>
    </g>
    <g id="g692">
      <g clip-path="url(#clipPath696)" id="g694"><text id="text700" style="font-variant:normal;font-weight:bold;font-size:8.03999996px;font-family:'Roboto Condensed';-inkscape-font-specification:RobotoCondensed-Bold;writing-mode:lr-tb;fill:#000000;fill-opacity:1;fill-rule:nonzero;stroke:none" transform="matrix(1,0,0,-1,18.912,583.32)"><tspan id="tspan702" y="0" x="0 3.9798 7.9194002 11.52132">post</tspan></text>
</g>
    </g>
    <g id="g704">
      <g clip-path="url(#clipPath708)" id="g706"><text id="text712" style="font-variant:normal;font-weight:bold;font-size:8.03999996px;font-family:'Roboto Condensed';-inkscape-font-specification:RobotoCondensed-Bold;writing-mode:lr-tb;fill:#000000;fill-opacity:1;fill-rule:nonzero;stroke:none" transform="matrix(1,0,0,-1,32.952,583.32)"><tspan id="tspan714" y="0" x="0">-</tspan></text>
</g>
    </g>
    <g id="g716">
      <g clip-path="url(#clipPath720)" id="g718"><text id="text724" style="font-variant:normal;font-weight:bold;font-size:8.03999996px;font-family:'Roboto Condensed';-inkscape-font-specification:RobotoCondensed-Bold;writing-mode:lr-tb;fill:#000000;fill-opacity:1;fill-rule:nonzero;stroke:none" transform="matrix(1,0,0,-1,35.832,583.32)"><tspan id="tspan726" y="0" x="0 5.9898 9.8409595 12.47004 16.53828 20.389441 23.01852 24.698879 26.72496 30.680639 32.497681 36.477482 40.296478 42.933601 46.632 50.483158 54.438839 56.963402 60.798481 64.866722 68.71788 70.390198 74.370003 78.309601 80.335678 84.291359 86.823959">merger in percentage points</tspan></text>
</g>
    </g>
    <path id="path728" style="fill:#80add2;fill-opacity:1;fill-rule:evenodd;stroke:none" d="m 138.88,562.17 37.91,0 0,0 16.24,0 10.83,0 0,-20.17 5.44,-10.59 -5.44,1.95 0,-5.77 -10.83,0 -16.24,0 0,0 -37.91,0 0,5.77 0,8.64 0,0 0,20.17 z"/>
    <g id="g730">
      <g clip-path="url(#clipPath734)" id="g732"><text id="text738" style="font-variant:normal;font-weight:normal;font-size:8.03999996px;font-family:'Roboto Condensed';-inkscape-font-specification:RobotoCondensed-Regular;writing-mode:lr-tb;fill:#000000;fill-opacity:1;fill-rule:nonzero;stroke:none" transform="matrix(1,0,0,-1,147.07,551.71)"><tspan id="tspan740" y="0" x="0 4.1888399 5.9898 10.05804 15.33228 19.0548 21.458759 23.13912 27.207359 29.61132 33.575039 37.426201 41.253239 43.054199 46.768681">Slower organic </tspan></text>
</g>
    </g>
    <g id="g742">
      <g clip-path="url(#clipPath746)" id="g744"><text id="text750" style="font-variant:normal;font-weight:normal;font-size:8.03999996px;font-family:'Roboto Condensed';-inkscape-font-specification:RobotoCondensed-Regular;writing-mode:lr-tb;fill:#000000;fill-opacity:1;fill-rule:nonzero;stroke:none" transform="matrix(1,0,0,-1,159.55,542.11)"><tspan id="tspan752" y="0" x="0 3.9637201 6.3596401 10.42788 15.70212 18.09804 21.94116">growth </tspan></text>
</g>
    </g>
    <g id="g754">
      <g clip-path="url(#clipPath758)" id="g756"><text id="text762" style="font-variant:normal;font-weight:normal;font-size:8.03999996px;font-family:'Roboto Condensed';-inkscape-font-specification:RobotoCondensed-Regular;writing-mode:lr-tb;fill:#000000;fill-opacity:1;fill-rule:nonzero;stroke:none" transform="matrix(1,0,0,-1,154.87,532.51)"><tspan id="tspan764" y="0" x="0 3.47328 7.1877599 9.3424797 11.02284 17.020679 20.87184 23.25972 26.861641 30.58416">vs. market</tspan></text>
</g>
    </g>
  </g>
</svg>
