<svg version="1.1" width="100%" height="100%" viewBox="0 0 500 301" xmlns="http://www.w3.org/2000/svg" xmlns:xlink="http://www.w3.org/1999/xlink"><style type="text/css" /><defs><clipPath id="clip001"><path d="M0,0 L3958.667,0 L3958.667,2512 L0,2512 Z" clip-rule="evenodd" /></clipPath><clipPath id="clip002"><path d="M0,0 L3958.667,0 L3958.667,2512 L0,2512 Z" clip-rule="evenodd" /></clipPath><clipPath id="clip003"><path d="M0,0 L3958.667,0 L3958.667,2512 L0,2512 Z" clip-rule="evenodd" /></clipPath><clipPath id="clip004"><path d="M0,0 L5200,0 L5200,2617.333 L0,2617.333 Z" clip-rule="evenodd" /></clipPath><clipPath id="clip005"><path d="M-800,0 L6000,0 L6000,2617.333 L-800,2617.333 Z" clip-rule="evenodd" /></clipPath><clipPath id="clip006"><path d="M0,0 L3960,0 L3960,2508 L0,2508 Z" clip-rule="evenodd" /></clipPath><clipPath id="clip007"><path d="M440,60 L3960,60 L3960,2084 L440,2084 Z" clip-rule="evenodd" /></clipPath><clipPath id="clip008"><path d="M0,0 L3960,0 L3960,2508 L0,2508 Z" clip-rule="evenodd" /></clipPath><clipPath id="clip009"><path d="M0,0 L3960,0 L3960,2508 L0,2508 Z" clip-rule="evenodd" /></clipPath><clipPath id="clip010"><path d="M0,0 L3960,0 L3960,2508 L0,2508 Z" clip-rule="evenodd" /></clipPath><clipPath id="clip011"><path d="M0,0 L3960,0 L3960,2508 L0,2508 Z" clip-rule="evenodd" /></clipPath><clipPath id="clip012"><path d="M0,0 L3960,0 L3960,2508 L0,2508 Z" clip-rule="evenodd" /></clipPath><clipPath id="clip013"><path d="M0,0 L3960,0 L3960,2508 L0,2508 Z" clip-rule="evenodd" /></clipPath><clipPath id="clip014"><path d="M0,0 L3960,0 L3960,2508 L0,2508 Z" clip-rule="evenodd" /></clipPath><clipPath id="clip015"><path d="M0,0 L3960,0 L3960,2508 L0,2508 Z" clip-rule="evenodd" /></clipPath><clipPath id="clip016"><path d="M0,0 L3960,0 L3960,2508 L0,2508 Z" clip-rule="evenodd" /></clipPath><clipPath id="clip017"><path d="M0,0 L3960,0 L3960,2508 L0,2508 Z" clip-rule="evenodd" /></clipPath><clipPath id="clip018"><path d="M0,0 L3960,0 L3960,2508 L0,2508 Z" clip-rule="evenodd" /></clipPath><clipPath id="clip019"><path d="M0,0 L3960,0 L3960,2508 L0,2508 Z" clip-rule="evenodd" /></clipPath><clipPath id="clip020"><path d="M0,0 L3960,0 L3960,2508 L0,2508 Z" clip-rule="evenodd" /></clipPath><clipPath id="clip021"><path d="M0,0 L3960,0 L3960,2508 L0,2508 Z" clip-rule="evenodd" /></clipPath><clipPath id="clip022"><path d="M0,0 L3960,0 L3960,2508 L0,2508 Z" clip-rule="evenodd" /></clipPath><clipPath id="clip023"><path d="M0,0 L3960,0 L3960,2508 L0,2508 Z" clip-rule="evenodd" /></clipPath><clipPath id="clip024"><path d="M0,0 L3960,0 L3960,2508 L0,2508 Z" clip-rule="evenodd" /></clipPath><clipPath id="clip025"><path d="M0,0 L3960,0 L3960,2508 L0,2508 Z" clip-rule="evenodd" /></clipPath><clipPath id="clip026"><path d="M0,0 L3960,0 L3960,2508 L0,2508 Z" clip-rule="evenodd" /></clipPath><clipPath id="clip027"><path d="M0,0 L3960,0 L3960,2508 L0,2508 Z" clip-rule="evenodd" /></clipPath><clipPath id="clip028"><path d="M0,0 L3960,0 L3960,2508 L0,2508 Z" clip-rule="evenodd" /></clipPath><clipPath id="clip029"><path d="M0,0 L3960,0 L3960,2508 L0,2508 Z" clip-rule="evenodd" /></clipPath><clipPath id="clip030"><path d="M0,0 L3960,0 L3960,2508 L0,2508 Z" clip-rule="evenodd" /></clipPath><clipPath id="clip031"><path d="M0,0 L3960,0 L3960,2508 L0,2508 Z" clip-rule="evenodd" /></clipPath></defs><clipPath id="page-clip-path-1"><rect x="0" y="0" width="500" height="301.33" /></clipPath><g clip-path="url(#page-clip-path-1)"><g transform="translate(1,1)"><g><g transform="matrix(0.1200404,0,0,0.1198248,0,0)" clip-path="url(#clip001)"><g><g clip-path="url(#clip002)"><g><g clip-path="url(#clip003)"><g transform="matrix(1.000207,0,0,1.000728,-0.00016276,-0.00008138)"><g><g><g clip-path="url(#clip004)"><g transform="translate(3966.667,2509.333)" /></g></g></g><g clip-path="url(#clip005)"><g transform="matrix(0.000656168,0,0,0.000656168,0,0)"><path d="M0,0 L6035040,0 L6035040,3822192 L0,3822192 Z" fill="#ffffff" fill-opacity="0" fill-rule="evenodd" /></g></g><g clip-path="url(#clip006)"><g transform="matrix(0.000656168,0,0,0.000656168,440,60)"><path d="M0,2794000 L5364480,2794000 M0,2515616 L5364480,2515616 M0,2235200 L5364480,2235200 M0,1956816 L5364480,1956816 M0,1676400 L5364480,1676400 M0,1398016 L5364480,1398016 M0,1117600 L5364480,1117600 M0,839216 L5364480,839216 M0,558800 L5364480,558800 M0,280416 L5364480,280416 M0,0 L5364480,0 " stroke-width="16933.33" stroke-linejoin="round" stroke-miterlimit="13.33333" stroke="#bababa" fill="none" fill-rule="nonzero" /></g></g><g clip-path="url(#clip007)"><g transform="matrix(0.000656168,0,0,0.000656168,440,60)"><path d="M81280,2460752 L406400,2460752 L406400,2460752 L406400,3072384 L406400,3072384 L81280,3072384 ZM568960,2249424 L894080,2249424 L894080,2249424 L894080,3072384 L894080,3072384 L568960,3072384 ZM1056640,2017776 L1381760,2017776 L1381760,2017776 L1381760,3072384 L1381760,3072384 L1056640,3072384 ZM1544320,1845056 L1869440,1845056 L1869440,1845056 L1869440,3072384 L1869440,3072384 L1544320,3072384 ZM2032000,1686560 L2357120,1686560 L2357120,1686560 L2357120,3072384 L2357120,3072384 L2032000,3072384 ZM2519680,1454912 L2844800,1454912 L2844800,1454912 L2844800,3072384 L2844800,3072384 L2519680,3072384 ZM3007360,1223264 L3332480,1223264 L3332480,1223264 L3332480,3072384 L3332480,3072384 L3007360,3072384 ZM3495040,983488 L3820160,983488 L3820160,983488 L3820160,3072384 L3820160,3072384 L3495040,3072384 ZM3982720,745744 L4307840,745744 L4307840,745744 L4307840,3072384 L4307840,3072384 L3982720,3072384 ZM4470400,528320 L4795520,528320 L4795520,528320 L4795520,3072384 L4795520,3072384 L4470400,3072384 ZM4958080,343408 L5283200,343408 L5283200,343408 L5283200,3072384 L5283200,3072384 L4958080,3072384 Z" fill="#012169" fill-rule="nonzero" /><path d="M81280,2460752 L406400,2460752 L406400,2460752 L406400,3072384 L406400,3072384 L81280,3072384 ZM568960,2249424 L894080,2249424 L894080,2249424 L894080,3072384 L894080,3072384 L568960,3072384 ZM1056640,2017776 L1381760,2017776 L1381760,2017776 L1381760,3072384 L1381760,3072384 L1056640,3072384 ZM1544320,1845056 L1869440,1845056 L1869440,1845056 L1869440,3072384 L1869440,3072384 L1544320,3072384 ZM2032000,1686560 L2357120,1686560 L2357120,1686560 L2357120,3072384 L2357120,3072384 L2032000,3072384 ZM2519680,1454912 L2844800,1454912 L2844800,1454912 L2844800,3072384 L2844800,3072384 L2519680,3072384 ZM3007360,1223264 L3332480,1223264 L3332480,1223264 L3332480,3072384 L3332480,3072384 L3007360,3072384 ZM3495040,983488 L3820160,983488 L3820160,983488 L3820160,3072384 L3820160,3072384 L3495040,3072384 ZM3982720,745744 L4307840,745744 L4307840,745744 L4307840,3072384 L4307840,3072384 L3982720,3072384 ZM4470400,528320 L4795520,528320 L4795520,528320 L4795520,3072384 L4795520,3072384 L4470400,3072384 ZM4958080,343408 L5283200,343408 L5283200,343408 L5283200,3072384 L5283200,3072384 L4958080,3072384 Z" stroke-width="8466.667" stroke-linejoin="round" stroke-miterlimit="13.33333" stroke="#ffffff" fill="none" fill-rule="nonzero" /></g></g><g clip-path="url(#clip008)"><g transform="matrix(0.000656168,0,0,0.000656168,440,2076)"><g><path d="M0.001683502,-6773.333 L5364480,-6772 " stroke-width="3386.667" stroke-linejoin="round" stroke-miterlimit="13.33333" stroke="#000000" fill="none" fill-rule="evenodd" /><path d="M-0.000841751,3386.667 L5364480,3388 " stroke-width="10160" stroke-linejoin="round" stroke-miterlimit="13.33333" stroke="#000000" fill="none" fill-rule="evenodd" /></g></g></g><g><g clip-path="url(#clip009)"><g><g transform="translate(168.6667,2106.304)"><text><tspan x="0" y="0" font-family="Connections Cond Light,Arial Narrow" font-weight="normal" font-style="normal" font-size="105.3333" fill="#000000">0mn</tspan></text></g></g></g></g><g><g clip-path="url(#clip010)"><g><g transform="translate(67.33334,1922.976)"><text><tspan x="0" y="0" font-family="Connections Cond Light,Arial Narrow" font-weight="normal" font-style="normal" font-size="105.3333" fill="#000000">100mn</tspan></text></g></g></g></g><g><g clip-path="url(#clip011)"><g><g transform="translate(67.33334,1739.648)"><text><tspan x="0" y="0" font-family="Connections Cond Light,Arial Narrow" font-weight="normal" font-style="normal" font-size="105.3333" fill="#000000">200mn</tspan></text></g></g></g></g><g><g clip-path="url(#clip012)"><g><g transform="translate(67.33334,1556.32)"><text><tspan x="0" y="0" font-family="Connections Cond Light,Arial Narrow" font-weight="normal" font-style="normal" font-size="105.3333" fill="#000000">300mn</tspan></text></g></g></g></g><g><g clip-path="url(#clip013)"><g><g transform="translate(67.33334,1372.992)"><text><tspan x="0" y="0" font-family="Connections Cond Light,Arial Narrow" font-weight="normal" font-style="normal" font-size="105.3333" fill="#000000">400mn</tspan></text></g></g></g></g><g><g clip-path="url(#clip014)"><g><g transform="translate(67.33334,1189.664)"><text><tspan x="0" y="0" font-family="Connections Cond Light,Arial Narrow" font-weight="normal" font-style="normal" font-size="105.3333" fill="#000000">500mn</tspan></text></g></g></g></g><g><g clip-path="url(#clip015)"><g><g transform="translate(67.33334,1006.335)"><text><tspan x="0" y="0" font-family="Connections Cond Light,Arial Narrow" font-weight="normal" font-style="normal" font-size="105.3333" fill="#000000">600mn</tspan></text></g></g></g></g><g><g clip-path="url(#clip016)"><g><g transform="translate(67.33334,823.007)"><text><tspan x="0" y="0" font-family="Connections Cond Light,Arial Narrow" font-weight="normal" font-style="normal" font-size="105.3333" fill="#000000">700mn</tspan></text></g></g></g></g><g><g clip-path="url(#clip017)"><g><g transform="translate(67.33334,639.6789)"><text><tspan x="0" y="0" font-family="Connections Cond Light,Arial Narrow" font-weight="normal" font-style="normal" font-size="105.3333" fill="#000000">800mn</tspan></text></g></g></g></g><g><g clip-path="url(#clip018)"><g><g transform="translate(67.33334,456.3508)"><text><tspan x="0" y="0" font-family="Connections Cond Light,Arial Narrow" font-weight="normal" font-style="normal" font-size="105.3333" fill="#000000">900mn</tspan></text></g></g></g></g><g><g clip-path="url(#clip019)"><g><g transform="translate(16.66667,273.0227)"><text><tspan x="0" y="0" font-family="Connections Cond Light,Arial Narrow" font-weight="normal" font-style="normal" font-size="105.3333" fill="#000000">1000mn</tspan></text></g></g></g></g><g><g clip-path="url(#clip020)"><g><g transform="translate(16.66667,89.69466)"><text><tspan x="0" y="0" font-family="Connections Cond Light,Arial Narrow" font-weight="normal" font-style="normal" font-size="105.3333" fill="#000000">1100mn</tspan></text></g></g></g></g><g><g clip-path="url(#clip021)"><g><g transform="matrix(0,-1,1,0,633.5438,2390.665)"><text><tspan x="0" y="0" font-family="Connections Cond Light,Arial Narrow" font-weight="normal" font-style="normal" font-size="105.3333" fill="#000000">C2020</tspan></text></g></g></g></g><g><g clip-path="url(#clip022)"><g><g transform="matrix(0,-1,1,0,953.5184,2390.665)"><text><tspan x="0" y="0" font-family="Connections Cond Light,Arial Narrow" font-weight="normal" font-style="normal" font-size="105.3333" fill="#000000">C2021</tspan></text></g></g></g></g><g><g clip-path="url(#clip023)"><g><g transform="matrix(0,-1,1,0,1273.493,2390.665)"><text><tspan x="0" y="0" font-family="Connections Cond Light,Arial Narrow" font-weight="normal" font-style="normal" font-size="105.3333" fill="#000000">C2022</tspan></text></g></g></g></g><g><g clip-path="url(#clip024)"><g><g transform="matrix(0,-1,1,0,1593.468,2390.665)"><text><tspan x="0" y="0" font-family="Connections Cond Light,Arial Narrow" font-weight="normal" font-style="normal" font-size="105.3333" fill="#000000">C2023</tspan></text></g></g></g></g><g><g clip-path="url(#clip025)"><g><g transform="matrix(0,-1,1,0,1913.442,2390.665)"><text><tspan x="0" y="0" font-family="Connections Cond Light,Arial Narrow" font-weight="normal" font-style="normal" font-size="105.3333" fill="#000000">C2024</tspan></text></g></g></g></g><g><g clip-path="url(#clip026)"><g><g transform="matrix(0,-1,1,0,2233.417,2438.999)"><text><tspan x="0" y="0" font-family="Connections Cond Light,Arial Narrow" font-weight="normal" font-style="normal" font-size="105.3333" fill="#000000">C2025E</tspan></text></g></g></g></g><g><g clip-path="url(#clip027)"><g><g transform="matrix(0,-1,1,0,2553.392,2438.999)"><text><tspan x="0" y="0" font-family="Connections Cond Light,Arial Narrow" font-weight="normal" font-style="normal" font-size="105.3333" fill="#000000">C2026E</tspan></text></g></g></g></g><g><g clip-path="url(#clip028)"><g><g transform="matrix(0,-1,1,0,2873.366,2438.999)"><text><tspan x="0" y="0" font-family="Connections Cond Light,Arial Narrow" font-weight="normal" font-style="normal" font-size="105.3333" fill="#000000">C2027E</tspan></text></g></g></g></g><g><g clip-path="url(#clip029)"><g><g transform="matrix(0,-1,1,0,3193.341,2438.999)"><text><tspan x="0" y="0" font-family="Connections Cond Light,Arial Narrow" font-weight="normal" font-style="normal" font-size="105.3333" fill="#000000">C2028E</tspan></text></g></g></g></g><g><g clip-path="url(#clip030)"><g><g transform="matrix(0,-1,1,0,3513.315,2438.999)"><text><tspan x="0" y="0" font-family="Connections Cond Light,Arial Narrow" font-weight="normal" font-style="normal" font-size="105.3333" fill="#000000">C2029E</tspan></text></g></g></g></g><g><g clip-path="url(#clip031)"><g><g transform="matrix(0,-1,1,0,3833.29,2438.999)"><text><tspan x="0" y="0" font-family="Connections Cond Light,Arial Narrow" font-weight="normal" font-style="normal" font-size="105.3333" fill="#000000">C2030E</tspan></text></g></g></g></g><g /></g></g></g></g></g></g></g></g></g></svg>