<?xml version="1.0" encoding="UTF-8" standalone="no"?>
<svg xmlns:dc="http://purl.org/dc/elements/1.1/" xmlns:cc="http://creativecommons.org/ns#" xmlns:rdf="http://www.w3.org/1999/02/22-rdf-syntax-ns#" xmlns:svg="http://www.w3.org/2000/svg" xmlns="http://www.w3.org/2000/svg" viewBox="63 180.3375 864.00125 404.3375" height="404.3375" width="864.00125" xml:space="preserve" version="1.1" id="svg2">
  <metadata id="metadata8">
    <rdf:RDF>
      <cc:Work rdf:about="">
        <dc:format>image/svg+xml</dc:format>
        <dc:type rdf:resource="http://purl.org/dc/dcmitype/StillImage"/>
      </cc:Work>
    </rdf:RDF>
  </metadata>
  <defs id="defs6">
    <clipPath id="clipPath16" clipPathUnits="userSpaceOnUse">
      <path style="clip-rule:evenodd" id="path18" d="m 50.399,144.24 691.2,0 0,323.52 -691.2,0 0,-323.52 z"/>
    </clipPath>
    <clipPath id="clipPath26" clipPathUnits="userSpaceOnUse">
      <path style="clip-rule:evenodd" id="path28" d="m 50.4,144.24 691.2,0 0,323.52 -691.2,0 0,-323.52 z"/>
    </clipPath>
    <clipPath id="clipPath44" clipPathUnits="userSpaceOnUse">
      <path style="clip-rule:evenodd" id="path46" d="m 50.4,144.24 691.2,0 0,323.4 -691.2,0 0,-323.4 z"/>
    </clipPath>
    <clipPath id="clipPath56" clipPathUnits="userSpaceOnUse">
      <path style="clip-rule:evenodd" id="path58" d="m 50.4,144.24 691.2,0 0,323.4 -691.2,0 0,-323.4 z"/>
    </clipPath>
    <clipPath id="clipPath68" clipPathUnits="userSpaceOnUse">
      <path style="clip-rule:evenodd" id="path70" d="m 50.4,144.24 691.2,0 0,323.4 -691.2,0 0,-323.4 z"/>
    </clipPath>
    <clipPath id="clipPath80" clipPathUnits="userSpaceOnUse">
      <path style="clip-rule:evenodd" id="path82" d="m 50.4,144.24 691.2,0 0,323.4 -691.2,0 0,-323.4 z"/>
    </clipPath>
    <clipPath id="clipPath92" clipPathUnits="userSpaceOnUse">
      <path style="clip-rule:evenodd" id="path94" d="m 50.4,144.24 691.2,0 0,323.4 -691.2,0 0,-323.4 z"/>
    </clipPath>
    <clipPath id="clipPath104" clipPathUnits="userSpaceOnUse">
      <path style="clip-rule:evenodd" id="path106" d="m 50.4,144.24 691.2,0 0,323.4 -691.2,0 0,-323.4 z"/>
    </clipPath>
    <clipPath id="clipPath116" clipPathUnits="userSpaceOnUse">
      <path style="clip-rule:evenodd" id="path118" d="m 50.4,144.24 691.2,0 0,323.4 -691.2,0 0,-323.4 z"/>
    </clipPath>
    <clipPath id="clipPath128" clipPathUnits="userSpaceOnUse">
      <path style="clip-rule:evenodd" id="path130" d="m 50.4,144.24 691.2,0 0,323.4 -691.2,0 0,-323.4 z"/>
    </clipPath>
    <clipPath id="clipPath140" clipPathUnits="userSpaceOnUse">
      <path style="clip-rule:evenodd" id="path142" d="m 50.4,144.24 691.2,0 0,323.4 -691.2,0 0,-323.4 z"/>
    </clipPath>
    <clipPath id="clipPath152" clipPathUnits="userSpaceOnUse">
      <path style="clip-rule:evenodd" id="path154" d="m 50.4,144.24 691.2,0 0,323.4 -691.2,0 0,-323.4 z"/>
    </clipPath>
    <clipPath id="clipPath164" clipPathUnits="userSpaceOnUse">
      <path style="clip-rule:evenodd" id="path166" d="m 50.4,144.24 691.2,0 0,323.4 -691.2,0 0,-323.4 z"/>
    </clipPath>
    <clipPath id="clipPath176" clipPathUnits="userSpaceOnUse">
      <path style="clip-rule:evenodd" id="path178" d="m 50.4,144.24 691.2,0 0,323.4 -691.2,0 0,-323.4 z"/>
    </clipPath>
    <clipPath id="clipPath188" clipPathUnits="userSpaceOnUse">
      <path style="clip-rule:evenodd" id="path190" d="m 50.4,144.24 691.2,0 0,323.4 -691.2,0 0,-323.4 z"/>
    </clipPath>
    <clipPath id="clipPath200" clipPathUnits="userSpaceOnUse">
      <path style="clip-rule:evenodd" id="path202" d="m 50.4,144.24 691.2,0 0,323.4 -691.2,0 0,-323.4 z"/>
    </clipPath>
    <clipPath id="clipPath212" clipPathUnits="userSpaceOnUse">
      <path style="clip-rule:evenodd" id="path214" d="m 50.4,144.24 691.2,0 0,323.4 -691.2,0 0,-323.4 z"/>
    </clipPath>
    <clipPath id="clipPath224" clipPathUnits="userSpaceOnUse">
      <path style="clip-rule:evenodd" id="path226" d="m 50.4,144.24 691.2,0 0,323.4 -691.2,0 0,-323.4 z"/>
    </clipPath>
    <clipPath id="clipPath236" clipPathUnits="userSpaceOnUse">
      <path style="clip-rule:evenodd" id="path238" d="m 50.4,144.24 691.2,0 0,323.4 -691.2,0 0,-323.4 z"/>
    </clipPath>
    <clipPath id="clipPath248" clipPathUnits="userSpaceOnUse">
      <path style="clip-rule:evenodd" id="path250" d="m 50.4,144.24 691.2,0 0,323.4 -691.2,0 0,-323.4 z"/>
    </clipPath>
    <clipPath id="clipPath260" clipPathUnits="userSpaceOnUse">
      <path style="clip-rule:evenodd" id="path262" d="m 50.4,144.24 691.2,0 0,323.4 -691.2,0 0,-323.4 z"/>
    </clipPath>
    <clipPath id="clipPath274" clipPathUnits="userSpaceOnUse">
      <path style="clip-rule:evenodd" id="path276" d="m 50.4,144.24 691.2,0 0,323.4 -691.2,0 0,-323.4 z"/>
    </clipPath>
    <clipPath id="clipPath288" clipPathUnits="userSpaceOnUse">
      <path style="clip-rule:evenodd" id="path290" d="m 50.4,144.24 691.2,0 0,323.4 -691.2,0 0,-323.4 z"/>
    </clipPath>
  </defs>
  <g transform="matrix(1.25,0,0,-1.25,0,765)" id="g10">
    <g id="g12">
      <g clip-path="url(#clipPath16)" id="g14">
        <path id="path20" style="fill:none;stroke:#000000;stroke-width:0.14;stroke-linecap:butt;stroke-linejoin:miter;stroke-miterlimit:10;stroke-dasharray:none;stroke-opacity:0" d="m 50.437,144.33 691.2,0 0,323.33 -691.2,0 0,-323.33 z"/>
      </g>
    </g>
    <g id="g22">
      <g clip-path="url(#clipPath26)" id="g24">
        <path id="path30" style="fill:#ffffff;fill-opacity:1;fill-rule:evenodd;stroke:none" d="m 50.437,144.33 691.2,0 0,323.33 -691.2,0 0,-323.33 z"/>
      </g>
    </g>
    <path id="path32" style="fill:none;stroke:#d9d9d9;stroke-width:1.1049;stroke-linecap:butt;stroke-linejoin:round;stroke-miterlimit:10;stroke-dasharray:none;stroke-opacity:1" d="m 271.23,427.98 0,-238.85 m 73.19,238.85 0,-238.85 m 73.01,238.85 0,-238.85 m 73.18,238.85 0,-238.85 m 73.19,238.85 0,-238.85 m 73.01,238.85 0,-238.85 m 73.15,238.85 0,-238.85"/>
    <path id="path34" style="fill:#137cb1;fill-opacity:1;fill-rule:nonzero;stroke:none" d="m 647.06,192.61 -448.94,0 0,8.48 448.94,0 0,-8.48 z m -103.77,23.86 -345.17,0 0,8.49 345.17,0 0,-8.49 z m -156.45,23.87 -188.72,0 0,8.48 188.72,0 0,-8.48 z m -39.59,23.86 -149.13,0 0,8.49 149.13,0 0,-8.49 z m -1.42,23.87 -147.71,0 0,8.48 147.71,0 0,-8.48 z m -8.84,24.04 -138.87,0 0,8.31 138.87,0 0,-8.31 z m -39.42,23.86 -99.45,0 0,8.49 99.45,0 0,-8.49 z m -33.59,23.87 -65.86,0 0,8.49 65.86,0 0,-8.49 z m -16.08,23.86 -49.78,0 0,8.49 49.78,0 0,-8.49 z m -26.34,23.87 -23.44,0 0,8.49 23.44,0 0,-8.49 z"/>
    <path id="path36" style="fill:#eacc80;fill-opacity:1;fill-rule:nonzero;stroke:none" d="m 673.4,201.09 -475.28,0 0,8.49 475.28,0 0,-8.49 z m -84.85,23.87 -390.43,0 0,8.48 390.43,0 0,-8.48 z m -173.95,23.86 -216.48,0 0,8.49 216.48,0 0,-8.49 z m -46.85,23.87 -169.63,0 0,8.48 169.63,0 0,-8.48 z m -5.83,23.86 -163.8,0 0,8.49 163.8,0 0,-8.49 z m 2.83,23.87 -166.63,0 0,8.48 166.63,0 0,-8.48 z m -43.84,24.04 -122.79,0 0,8.31 122.79,0 0,-8.31 z m -48.26,23.87 -74.53,0 0,8.48 74.53,0 0,-8.48 z m -11.67,23.86 -62.86,0 0,8.49 62.86,0 0,-8.49 z m -30.76,23.87 -32.1,0 0,8.48 32.1,0 0,-8.48 z"/>
    <path id="path38" style="fill:none;stroke:#d9d9d9;stroke-width:1.1049;stroke-linecap:butt;stroke-linejoin:round;stroke-miterlimit:10;stroke-dasharray:none;stroke-opacity:1" d="m 198.12,189.13 0,238.85"/>
    <g id="g40">
      <g clip-path="url(#clipPath44)" id="g42"><text id="text48" style="font-variant:normal;font-weight:normal;font-size:13.27200031px;font-family:Arial;-inkscape-font-specification:Arial;writing-mode:lr-tb;fill:#595959;fill-opacity:1;fill-rule:nonzero;stroke:none" transform="matrix(1,0,0,-1,188.57,169.03)"><tspan id="tspan50" y="0" x="0 7.440032">0%</tspan></text>
</g>
    </g>
    <g id="g52">
      <g clip-path="url(#clipPath56)" id="g54"><text id="text60" style="font-variant:normal;font-weight:normal;font-size:13.27200031px;font-family:Arial;-inkscape-font-specification:Arial;writing-mode:lr-tb;fill:#595959;fill-opacity:1;fill-rule:nonzero;stroke:none" transform="matrix(1,0,0,-1,261.7,169.03)"><tspan id="tspan62" y="0" x="0 7.440032">5%</tspan></text>
</g>
    </g>
    <g id="g64">
      <g clip-path="url(#clipPath68)" id="g66"><text id="text72" style="font-variant:normal;font-weight:normal;font-size:13.27200031px;font-family:Arial;-inkscape-font-specification:Arial;writing-mode:lr-tb;fill:#595959;fill-opacity:1;fill-rule:nonzero;stroke:none" transform="matrix(1,0,0,-1,331.15,169.03)"><tspan id="tspan74" y="0" x="0 7.3792319 14.66556">10%</tspan></text>
</g>
    </g>
    <g id="g76">
      <g clip-path="url(#clipPath80)" id="g78"><text id="text84" style="font-variant:normal;font-weight:normal;font-size:13.27200031px;font-family:Arial;-inkscape-font-specification:Arial;writing-mode:lr-tb;fill:#595959;fill-opacity:1;fill-rule:nonzero;stroke:none" transform="matrix(1,0,0,-1,404.28,169.03)"><tspan id="tspan86" y="0" x="0 7.3792319 14.66556">15%</tspan></text>
</g>
    </g>
    <g id="g88">
      <g clip-path="url(#clipPath92)" id="g90"><text id="text96" style="font-variant:normal;font-weight:normal;font-size:13.27200031px;font-family:Arial;-inkscape-font-specification:Arial;writing-mode:lr-tb;fill:#595959;fill-opacity:1;fill-rule:nonzero;stroke:none" transform="matrix(1,0,0,-1,477.41,169.03)"><tspan id="tspan98" y="0" x="0 7.3792319 14.66556">20%</tspan></text>
</g>
    </g>
    <g id="g100">
      <g clip-path="url(#clipPath104)" id="g102"><text id="text108" style="font-variant:normal;font-weight:normal;font-size:13.27200031px;font-family:Arial;-inkscape-font-specification:Arial;writing-mode:lr-tb;fill:#595959;fill-opacity:1;fill-rule:nonzero;stroke:none" transform="matrix(1,0,0,-1,550.54,169.03)"><tspan id="tspan110" y="0" x="0 7.3792319 14.66556">25%</tspan></text>
</g>
    </g>
    <g id="g112">
      <g clip-path="url(#clipPath116)" id="g114"><text id="text120" style="font-variant:normal;font-weight:normal;font-size:13.27200031px;font-family:Arial;-inkscape-font-specification:Arial;writing-mode:lr-tb;fill:#595959;fill-opacity:1;fill-rule:nonzero;stroke:none" transform="matrix(1,0,0,-1,623.66,169.03)"><tspan id="tspan122" y="0" x="0 7.3792319 14.66556">30%</tspan></text>
</g>
    </g>
    <g id="g124">
      <g clip-path="url(#clipPath128)" id="g126"><text id="text132" style="font-variant:normal;font-weight:normal;font-size:13.27200031px;font-family:Arial;-inkscape-font-specification:Arial;writing-mode:lr-tb;fill:#595959;fill-opacity:1;fill-rule:nonzero;stroke:none" transform="matrix(1,0,0,-1,696.79,169.03)"><tspan id="tspan134" y="0" x="0 7.3792319 14.66556">35%</tspan></text>
</g>
    </g>
    <g id="g136">
      <g clip-path="url(#clipPath140)" id="g138"><text id="text144" style="font-variant:normal;font-weight:normal;font-size:13.24800014px;font-family:Arial;-inkscape-font-specification:Arial;writing-mode:lr-tb;fill:#595959;fill-opacity:1;fill-rule:nonzero;stroke:none" transform="matrix(1,0,0,-1,146.21,196.75)"><tspan id="tspan146" y="0" x="0 9.5650558 12.559104 19.116863 26.548992 33.981121">Disney</tspan></text>
</g>
    </g>
    <g id="g148">
      <g clip-path="url(#clipPath152)" id="g150"><text id="text156" style="font-variant:normal;font-weight:normal;font-size:13.27200031px;font-family:Arial;-inkscape-font-specification:Arial;writing-mode:lr-tb;fill:#595959;fill-opacity:1;fill-rule:nonzero;stroke:none" transform="matrix(1,0,0,-1,148.42,220.66)"><tspan id="tspan158" y="0" x="0 8.8524237 16.231655 23.49144 27.911016 30.897217">Sanrio</tspan></text>
</g>
    </g>
    <g id="g160">
      <g clip-path="url(#clipPath164)" id="g162"><text id="text168" style="font-variant:normal;font-weight:normal;font-size:13.24800014px;font-family:Arial;-inkscape-font-specification:Arial;writing-mode:lr-tb;fill:#595959;fill-opacity:1;fill-rule:nonzero;stroke:none" transform="matrix(1,0,0,-1,144,244.54)"><tspan id="tspan170" y="0" x="0 9.5650558 16.983936 23.541697 30.973824 35.385406">Hasbro</tspan></text>
</g>
    </g>
    <g id="g172">
      <g clip-path="url(#clipPath176)" id="g174"><text id="text180" style="font-variant:normal;font-weight:normal;font-size:13.27200031px;font-family:Arial;-inkscape-font-specification:Arial;writing-mode:lr-tb;fill:#595959;fill-opacity:1;fill-rule:nonzero;stroke:none" transform="matrix(1,0,0,-1,157.27,268.44)"><tspan id="tspan182" y="0" x="0 8.1091919 16.961617 26.544001">TPCi</tspan></text>
</g>
    </g>
    <g id="g184">
      <g clip-path="url(#clipPath188)" id="g186"><text id="text192" style="font-variant:normal;font-weight:normal;font-size:13.24800014px;font-family:Arial;-inkscape-font-specification:Arial;writing-mode:lr-tb;fill:#595959;fill-opacity:1;fill-rule:nonzero;stroke:none" transform="matrix(1,0,0,-1,132.96,292.32)"><tspan id="tspan194" y="0" x="0 8.8364162 16.2288 23.475456 27.1584 38.313217 45.559872 49.971455">Pop Mart</tspan></text>
</g>
    </g>
    <g id="g196">
      <g clip-path="url(#clipPath200)" id="g198"><text id="text204" style="font-variant:normal;font-weight:normal;font-size:13.27200031px;font-family:Arial;-inkscape-font-specification:Arial;writing-mode:lr-tb;fill:#595959;fill-opacity:1;fill-rule:nonzero;stroke:none" transform="matrix(1,0,0,-1,112.34,316.22)"><tspan id="tspan206" y="0" x="0 12.528768 19.961088 24.181583 31.560816 39.006409 43.425983 47.115601 55.968025 60.3876 67.620842">Warner Bros</tspan></text>
</g>
    </g>
    <g id="g208">
      <g clip-path="url(#clipPath212)" id="g210"><text id="text216" style="font-variant:normal;font-weight:normal;font-size:13.27200031px;font-family:Arial;-inkscape-font-specification:Arial;writing-mode:lr-tb;fill:#595959;fill-opacity:1;fill-rule:nonzero;stroke:none" transform="matrix(1,0,0,-1,92.4,340.1)"><tspan id="tspan218" y="0" x="0 9.5823841 16.961617 20.000904 27.247416 34.679737 38.36935 45.828217 48.655151 52.344769 59.803631 64.223206 71.496262 75.185883 82.644745 87.064323">China Literature</tspan></text>
</g>
    </g>
    <g id="g220">
      <g clip-path="url(#clipPath224)" id="g222"><text id="text228" style="font-variant:normal;font-weight:normal;font-size:13.24800014px;font-family:Arial;-inkscape-font-specification:Arial;writing-mode:lr-tb;fill:#595959;fill-opacity:1;fill-rule:nonzero;stroke:none" transform="matrix(1,0,0,-1,150.65,363.98)"><tspan id="tspan230" y="0" x="0 10.969344 18.374975 22.05792 25.807104 33.212734">Mattel</tspan></text>
</g>
    </g>
    <g id="g232">
      <g clip-path="url(#clipPath236)" id="g234"><text id="text240" style="font-variant:normal;font-weight:normal;font-size:13.27200031px;font-family:Arial;-inkscape-font-specification:Arial;writing-mode:lr-tb;fill:#595959;fill-opacity:1;fill-rule:nonzero;stroke:none" transform="matrix(1,0,0,-1,133.68,387.89)"><tspan id="tspan242" y="0" x="0 9.5292959 12.515496 19.894728 23.464895 30.844128 38.289719 45.668953">Nintendo</tspan></text>
</g>
    </g>
    <g id="g244">
      <g clip-path="url(#clipPath248)" id="g246"><text id="text252" style="font-variant:normal;font-weight:normal;font-size:13.24800014px;font-family:Arial;-inkscape-font-specification:Arial;writing-mode:lr-tb;fill:#595959;fill-opacity:1;fill-rule:nonzero;stroke:none" transform="matrix(1,0,0,-1,70.32,411.77)"><tspan id="tspan254" y="0" x="0 10.969344 21.369024 30.205441 33.888386 42.7248 49.997952 53.680897 61.12627 65.537857 69.247299 76.49395 79.474754 86.880386 97.849731 105.25536 112.661">MGA Entertainment</tspan></text>
</g>
    </g>
    <g id="g256">
      <g clip-path="url(#clipPath260)" id="g258"><text id="text264" style="font-variant:normal;font-weight:bold;font-size:14.66399956px;font-family:Arial;-inkscape-font-specification:'Arial Bold';writing-mode:lr-tb;fill:#000000;fill-opacity:1;fill-rule:nonzero;stroke:none" transform="matrix(1,0,0,-1,143.3,447.12)"><tspan id="tspan266" y="0" x="0 10.587408 19.620432 23.697023 32.715385 40.868568 45.810337 49.886929 58.905289 67.058472 72.704109 81.707809 89.860992 98.014175 102.92661 107.32581 115.479 124.46803 132.62122 141.61024 150.61394 154.69054 163.70889 172.71259 176.78918 185.80754 194.12202 202.27522 207.92085 211.99745 221.01581 229.16899 237.32217 242.23462 246.47252 254.6257 262.77887 275.28726 279.17322 287.48773 295.6409 299.7175 309.42505 318.42877 324.13306 332.22757 341.23129 349.38446 357.53766 365.63217 370.03137 379.03506 387.34955 395.50275 401.14838 405.22498 414.24335 422.39651 430.54971 435.46216 439.70004 447.85321 456.00641">China: Largest spending over past 12M vs Purchase over past 12M</tspan></text>
</g>
    </g>
    <path id="path268" style="fill:#eacc80;fill-opacity:1;fill-rule:evenodd;stroke:none" d="m 371.9,404.6 6.6623,0 0,6.6623 -6.6623,0 0,-6.6623 z"/>
    <g id="g270">
      <g clip-path="url(#clipPath274)" id="g272"><text id="text278" style="font-variant:normal;font-weight:normal;font-size:13.24800014px;font-family:Arial;-inkscape-font-specification:Arial;writing-mode:lr-tb;fill:#595959;fill-opacity:1;fill-rule:nonzero;stroke:none" transform="matrix(1,0,0,-1,381.38,403.66)"><tspan id="tspan280" y="0" x="0 8.8364162 16.281792 20.693377 27.277632 34.709759 42.141888 48.69965 56.131775 63.563904 67.114365 74.546494 81.249985 88.523132 92.934723 96.670654 104.10278 111.53491 118.09267 121.77562 125.5248 132.79796 140.23009">Purchased over past 12M</tspan></text>
</g>
    </g>
    <path id="path282" style="fill:#137cb1;fill-opacity:1;fill-rule:evenodd;stroke:none" d="m 554.92,404.6 6.6624,0 0,6.6623 -6.6624,0 0,-6.6623 z"/>
    <g id="g284">
      <g clip-path="url(#clipPath288)" id="g286"><text id="text292" style="font-variant:normal;font-weight:normal;font-size:13.24800014px;font-family:Arial;-inkscape-font-specification:Arial;writing-mode:lr-tb;fill:#595959;fill-opacity:1;fill-rule:nonzero;stroke:none" transform="matrix(1,0,0,-1,564.43,403.66)"><tspan id="tspan294" y="0" x="0 7.432128 14.678784 19.090368 26.522495 33.954624 40.512383 44.195328 47.944511 54.502274 61.934399 69.366531 76.798653 84.045311 87.052605 94.484734">Largest spending</tspan></text>
</g>
    </g>
  </g>
</svg>
