<?xml version="1.0" encoding="UTF-8" standalone="no"?>
<svg xmlns:dc="http://purl.org/dc/elements/1.1/" xmlns:cc="http://creativecommons.org/ns#" xmlns:rdf="http://www.w3.org/1999/02/22-rdf-syntax-ns#" xmlns:svg="http://www.w3.org/2000/svg" xmlns="http://www.w3.org/2000/svg" viewBox="2.4 1.195 1247.1 113.88" height="113.88" width="1247.1" xml:space="preserve" version="1.1" id="svg2">
  <metadata id="metadata8">
    <rdf:RDF>
      <cc:Work rdf:about="">
        <dc:format>image/svg+xml</dc:format>
        <dc:type rdf:resource="http://purl.org/dc/dcmitype/StillImage"/>
      </cc:Work>
    </rdf:RDF>
  </metadata>
  <defs id="defs6">
    <clipPath id="clipPath16" clipPathUnits="userSpaceOnUse">
      <path style="clip-rule:evenodd" id="path18" d="m 1.92,519.58 998.04,0 0,91.464 -998.04,0 0,-91.464 z"/>
    </clipPath>
    <clipPath id="clipPath34" clipPathUnits="userSpaceOnUse">
      <path style="clip-rule:evenodd" id="path36" d="m 843.46,520.06 156.02,0 0,90.984 -156.02,0 0,-90.984 z"/>
    </clipPath>
    <clipPath id="clipPath58" clipPathUnits="userSpaceOnUse">
      <path style="clip-rule:evenodd" id="path60" d="m 422.45,520.06 156.02,0 0,90.984 -156.02,0 0,-90.984 z"/>
    </clipPath>
    <clipPath id="clipPath74" clipPathUnits="userSpaceOnUse">
      <path style="clip-rule:evenodd" id="path76" d="m 632.95,520.06 156.02,0 0,90.984 -156.02,0 0,-90.984 z"/>
    </clipPath>
    <clipPath id="clipPath98" clipPathUnits="userSpaceOnUse">
      <path style="clip-rule:evenodd" id="path100" d="m 211.94,520.06 156.02,0 0,90.984 -156.02,0 0,-90.984 z"/>
    </clipPath>
    <clipPath id="clipPath118" clipPathUnits="userSpaceOnUse">
      <path style="clip-rule:evenodd" id="path120" d="m 1.92,520.06 155.54,0 0,90.984 -155.54,0 0,-90.984 z"/>
    </clipPath>
  </defs>
  <g transform="matrix(1.25,0,0,-1.25,0,765)" id="g10">
    <g id="g12">
      <g clip-path="url(#clipPath16)" id="g14">
        <path id="path20" style="fill:#005aa4;fill-opacity:1;fill-rule:evenodd;stroke:none" d="m 1.44,519.94 156.14,0 0,91.584 -156.14,0 0,-91.584 z"/>
        <path id="path22" style="fill:#005aa4;fill-opacity:1;fill-rule:evenodd;stroke:none" d="m 211.94,519.94 156.14,0 0,91.584 -156.14,0 0,-91.584 z"/>
        <path id="path24" style="fill:#005aa4;fill-opacity:1;fill-rule:evenodd;stroke:none" d="m 422.45,519.94 156.14,0 0,91.584 -156.14,0 0,-91.584 z"/>
        <path id="path26" style="fill:#005aa4;fill-opacity:1;fill-rule:evenodd;stroke:none" d="m 632.95,519.94 156.14,0 0,91.584 -156.14,0 0,-91.584 z"/>
        <path id="path28" style="fill:#005aa4;fill-opacity:1;fill-rule:evenodd;stroke:none" d="m 843.46,519.94 156.14,0 0,91.584 -156.14,0 0,-91.584 z"/>
      </g>
    </g>
    <g id="g30">
      <g clip-path="url(#clipPath34)" id="g32"><text id="text38" style="font-variant:normal;font-weight:bold;font-size:12.60000038px;font-family:Roboto;-inkscape-font-specification:Roboto-Bold;writing-mode:lr-tb;fill:#ffffff;fill-opacity:1;fill-rule:nonzero;stroke:none" transform="matrix(1,0,0,-1,858.22,585.72)"><tspan id="tspan40" y="0" x="0 7.2323999 10.899 15.3468 18.4842 26.523001 33.3396 39.942001 47.023201 54.2178 61.2738 64.650597 71.013603 77.8302 80.967598 85.566597 92.383202 98.746201 105.5628 112.6188 119.7252 126.5418">5.) Recognize revenue </tspan></text>
<text id="text42" style="font-variant:normal;font-weight:bold;font-size:12.60000038px;font-family:Roboto;-inkscape-font-specification:Roboto-Bold;writing-mode:lr-tb;fill:#ffffff;fill-opacity:1;fill-rule:nonzero;stroke:none" transform="matrix(1,0,0,-1,858.22,569.76)"><tspan id="tspan44" y="0" x="0 9.2609997 16.316999 23.1336 30.2274 33.364799 37.787399 44.868599 49.429798 52.5672 59.270401 65.746803 70.194603 73.332001 77.515198 84.571198 91.425598 94.563004 101.3796 108.4356 112.6944 116.0334 120.2292 126.5544">when (or as) the entity </tspan></text>
<text id="text46" style="font-variant:normal;font-weight:bold;font-size:12.60000038px;font-family:Roboto;-inkscape-font-specification:Roboto-Bold;writing-mode:lr-tb;fill:#ffffff;fill-opacity:1;fill-rule:nonzero;stroke:none" transform="matrix(1,0,0,-1,854.38,553.8)"><tspan id="tspan48" y="0" x="0 6.4763999 13.23 17.4006 20.739599 27.216 31.789801 35.128799 41.9832 48.459599 51.597 58.300201 61.437599 68.531403 75.348 79.896599 84.445198 91.526398 96.087601 106.9992 113.7528 120.8088 127.3734 134.2404">satisfies a performance </tspan></text>
<text id="text50" style="font-variant:normal;font-weight:bold;font-size:12.60000038px;font-family:Roboto;-inkscape-font-specification:Roboto-Bold;writing-mode:lr-tb;fill:#ffffff;fill-opacity:1;fill-rule:nonzero;stroke:none" transform="matrix(1,0,0,-1,893.26,537.82)"><tspan id="tspan52" y="0" x="0 7.0812001 14.175 17.514 20.853001 28.0476 34.801201 38.997002 42.335999 49.455002">obligation</tspan></text>
</g>
    </g>
    <g id="g54">
      <g clip-path="url(#clipPath58)" id="g56"><text id="text62" style="font-variant:normal;font-weight:bold;font-size:12.60000038px;font-family:Roboto;-inkscape-font-specification:Roboto-Bold;writing-mode:lr-tb;fill:#ffffff;fill-opacity:1;fill-rule:nonzero;stroke:none" transform="matrix(1,0,0,-1,451.25,569.76)"><tspan id="tspan64" y="0" x="0 7.2323999 10.899 15.3468 18.4842 26.6742 33.490799 37.674 44.490601 49.0896 60.001202 63.340199 70.421402 77.237999 80.375397 84.583801 91.639801 98.494202">3.) Determine the </tspan></text>
<text id="text66" style="font-variant:normal;font-weight:bold;font-size:12.60000038px;font-family:Roboto;-inkscape-font-specification:Roboto-Bold;writing-mode:lr-tb;fill:#ffffff;fill-opacity:1;fill-rule:nonzero;stroke:none" transform="matrix(1,0,0,-1,452.69,553.8)"><tspan id="tspan68" y="0" x="0 4.1957998 8.757 15.5106 22.566601 29.042999 35.758801 42.323399 46.582199 49.9212 57.002399 64.058403 67.195801 74.289597 78.838203 82.1772 88.779602">transaction price</tspan></text>
</g>
    </g>
    <g id="g70">
      <g clip-path="url(#clipPath74)" id="g72"><text id="text78" style="font-variant:normal;font-weight:bold;font-size:12.60000038px;font-family:Roboto;-inkscape-font-specification:Roboto-Bold;writing-mode:lr-tb;fill:#ffffff;fill-opacity:1;fill-rule:nonzero;stroke:none" transform="matrix(1,0,0,-1,667.87,585.72)"><tspan id="tspan80" y="0" x="0 7.2323999 10.899 15.3468 18.4842 26.964001 30.353399 33.692402 40.811401 47.375999 54.129601 58.312801 65.129402 68.2668 72.475197 79.531197 86.385597">4.) Allocate the </tspan></text>
<text id="text82" style="font-variant:normal;font-weight:bold;font-size:12.60000038px;font-family:Roboto;-inkscape-font-specification:Roboto-Bold;writing-mode:lr-tb;fill:#ffffff;fill-opacity:1;fill-rule:nonzero;stroke:none" transform="matrix(1,0,0,-1,645.43,569.76)"><tspan id="tspan84" y="0" x="0 4.1957998 8.757 15.5106 22.566601 29.042999 35.758801 42.323399 46.582199 49.9212 57.002399 64.058403 67.195801 74.289597 78.838203 82.1772 88.779602 95.596199 98.733597 102.942 110.0232 113.1606 117.3438 124.3998 131.2542">transaction price to the </tspan></text>
<text id="text86" style="font-variant:normal;font-weight:bold;font-size:12.60000038px;font-family:Roboto;-inkscape-font-specification:Roboto-Bold;writing-mode:lr-tb;fill:#ffffff;fill-opacity:1;fill-rule:nonzero;stroke:none" transform="matrix(1,0,0,-1,641.59,553.8)"><tspan id="tspan88" y="0" x="0 7.0938001 13.9104 18.509399 23.020201 30.1392 34.675201 45.5868 52.340401 59.3964 65.960999 72.828003 75.965401 83.033997 90.1278 93.466797 96.805801 104.0004 110.754 114.9498 118.2888 125.4078 132.46381 138.9402">performance obligations </tspan></text>
<text id="text90" style="font-variant:normal;font-weight:bold;font-size:12.60000038px;font-family:Roboto;-inkscape-font-specification:Roboto-Bold;writing-mode:lr-tb;fill:#ffffff;fill-opacity:1;fill-rule:nonzero;stroke:none" transform="matrix(1,0,0,-1,670.15,537.82)"><tspan id="tspan92" y="0" x="0 3.339 10.4328 13.5702 17.753401 24.809401 31.663799 34.801201 41.365799 48.484798 55.540798 59.749199 64.310402 71.064003 77.628601">in the contract</tspan></text>
</g>
    </g>
    <g id="g94">
      <g clip-path="url(#clipPath98)" id="g96"><text id="text102" style="font-variant:normal;font-weight:bold;font-size:12.60000038px;font-family:Roboto;-inkscape-font-specification:Roboto-Bold;writing-mode:lr-tb;fill:#ffffff;fill-opacity:1;fill-rule:nonzero;stroke:none" transform="matrix(1,0,0,-1,214.94,577.8)"><tspan id="tspan104" y="0" x="0 7.2323999 10.899 15.3468 18.4842 22.163401 29.2572 36.111599 43.167599 47.426399 50.7654 55.276199 61.664398 64.801804 68.985001 76.041 82.895401 86.032799 92.509201 99.325798 106.4196 113.1354 117.6966 124.4502 128.6208 135.43739 138.5748 145.6938 150.21719">2.) Identify the separate or </tspan></text>
<text id="text106" style="font-variant:normal;font-weight:bold;font-size:12.60000038px;font-family:Roboto;-inkscape-font-specification:Roboto-Bold;writing-mode:lr-tb;fill:#ffffff;fill-opacity:1;fill-rule:nonzero;stroke:none" transform="matrix(1,0,0,-1,230.9,561.84)"><tspan id="tspan108" y="0" x="0 7.0938001 10.4328 16.909201 21.117599 24.4566 31.5504 38.115002 42.373798 45.4734 52.5672 59.383801 63.9828 68.493599 75.612602 80.148598 91.060204 97.813797 104.8698 111.4344 118.3014">distinct performance </tspan></text>
<text id="text110" style="font-variant:normal;font-weight:bold;font-size:12.60000038px;font-family:Roboto;-inkscape-font-specification:Roboto-Bold;writing-mode:lr-tb;fill:#ffffff;fill-opacity:1;fill-rule:nonzero;stroke:none" transform="matrix(1,0,0,-1,216.14,545.86)"><tspan id="tspan112" y="0" x="0 7.0812001 14.175 17.514 20.853001 28.0476 34.801201 38.997002 42.335999 49.455002 56.511002 62.9874 66.124802 69.463799 76.519798 79.657204 83.878197 90.934196 97.788597 100.926 107.4906 114.6096 121.6656 125.874 130.4352 137.1888 143.7534">obligations in the contract</tspan></text>
</g>
    </g>
    <g id="g114">
      <g clip-path="url(#clipPath118)" id="g116"><text id="text122" style="font-variant:normal;font-weight:bold;font-size:12.60000038px;font-family:Roboto;-inkscape-font-specification:Roboto-Bold;writing-mode:lr-tb;fill:#ffffff;fill-opacity:1;fill-rule:nonzero;stroke:none" transform="matrix(1,0,0,-1,15.96,569.76)"><tspan id="tspan124" y="0" x="0 7.2323999 10.899 15.3468 18.4842 22.163401 29.2572 36.111599 43.167599 47.426399 50.7654 55.276199 61.664398 64.801804 71.366402 78.485397 85.541397 89.749802 94.310997 101.0646 107.6292 111.825 116.2476 122.724 127.1718">1.) Identify contract(s) </tspan></text>
<text id="text126" style="font-variant:normal;font-weight:bold;font-size:12.60000038px;font-family:Roboto;-inkscape-font-specification:Roboto-Bold;writing-mode:lr-tb;fill:#ffffff;fill-opacity:1;fill-rule:nonzero;stroke:none" transform="matrix(1,0,0,-1,34.32,553.8)"><tspan id="tspan128" y="0" x="0 9.2609997 12.6 16.795799 23.851801 26.989201 33.742802 36.8298 43.394402 50.500801 56.9772 61.1856 68.2668 79.178398 85.995003">with a customer</tspan></text>
</g>
    </g>
    <path id="path130" style="fill:#afabab;fill-opacity:1;fill-rule:evenodd;stroke:none" d="m 156.46,575.76 35.7,0 0,10.16 20.32,-20.32 -20.32,-20.32 0,10.16 -35.7,0 0,20.32 z"/>
    <path id="path132" style="fill:#afabab;fill-opacity:1;fill-rule:evenodd;stroke:none" d="m 577.74,575.76 35.7,0 0,10.16 20.32,-20.32 -20.32,-20.32 0,10.16 -35.7,0 0,20.32 z"/>
    <path id="path134" style="fill:#afabab;fill-opacity:1;fill-rule:evenodd;stroke:none" d="m 367.1,575.76 35.7,0 0,10.16 20.32,-20.32 -20.32,-20.32 0,10.16 -35.7,0 0,20.32 z"/>
    <path id="path136" style="fill:#afabab;fill-opacity:1;fill-rule:evenodd;stroke:none" d="m 788.38,575.76 35.7,0 0,10.16 20.32,-20.32 -20.32,-20.32 0,10.16 -35.7,0 0,20.32 z"/>
  </g>
</svg>
