<?xml version="1.0" encoding="UTF-8" standalone="no"?>
<svg xmlns:dc="http://purl.org/dc/elements/1.1/" xmlns:cc="http://creativecommons.org/ns#" xmlns:rdf="http://www.w3.org/1999/02/22-rdf-syntax-ns#" xmlns:svg="http://www.w3.org/2000/svg" xmlns="http://www.w3.org/2000/svg" viewBox="63.2025 373.575 618 355.725" height="355.725" width="618" xml:space="preserve" version="1.1" id="svg2">
  <metadata id="metadata8">
    <rdf:RDF>
      <cc:Work rdf:about="">
        <dc:format>image/svg+xml</dc:format>
        <dc:type rdf:resource="http://purl.org/dc/dcmitype/StillImage"/>
      </cc:Work>
    </rdf:RDF>
  </metadata>
  <defs id="defs6">
    <clipPath id="clipPath16" clipPathUnits="userSpaceOnUse">
      <path style="clip-rule:evenodd" id="path18" d="m 50.4,258.48 494.52,0 0,284.64 -494.52,0 0,-284.64 z"/>
    </clipPath>
    <clipPath id="clipPath26" clipPathUnits="userSpaceOnUse">
      <path style="clip-rule:evenodd" id="path28" d="m 50.4,258.48 494.52,0 0,284.64 -494.52,0 0,-284.64 z"/>
    </clipPath>
    <clipPath id="clipPath46" clipPathUnits="userSpaceOnUse">
      <path style="clip-rule:evenodd" id="path48" d="m 50.52,258.48 494.4,0 0,284.52 -494.4,0 0,-284.52 z"/>
    </clipPath>
    <clipPath id="clipPath58" clipPathUnits="userSpaceOnUse">
      <path style="clip-rule:evenodd" id="path60" d="m 50.52,258.48 494.4,0 0,284.52 -494.4,0 0,-284.52 z"/>
    </clipPath>
    <clipPath id="clipPath70" clipPathUnits="userSpaceOnUse">
      <path style="clip-rule:evenodd" id="path72" d="m 50.52,258.48 494.4,0 0,284.52 -494.4,0 0,-284.52 z"/>
    </clipPath>
    <clipPath id="clipPath82" clipPathUnits="userSpaceOnUse">
      <path style="clip-rule:evenodd" id="path84" d="m 50.52,258.48 494.4,0 0,284.52 -494.4,0 0,-284.52 z"/>
    </clipPath>
    <clipPath id="clipPath94" clipPathUnits="userSpaceOnUse">
      <path style="clip-rule:evenodd" id="path96" d="m 50.52,258.48 494.4,0 0,284.52 -494.4,0 0,-284.52 z"/>
    </clipPath>
    <clipPath id="clipPath108" clipPathUnits="userSpaceOnUse">
      <path style="clip-rule:evenodd" id="path110" d="m 50.52,258.48 494.4,0 0,284.52 -494.4,0 0,-284.52 z"/>
    </clipPath>
    <clipPath id="clipPath122" clipPathUnits="userSpaceOnUse">
      <path style="clip-rule:evenodd" id="path124" d="m 50.52,258.48 494.4,0 0,284.52 -494.4,0 0,-284.52 z"/>
    </clipPath>
    <clipPath id="clipPath136" clipPathUnits="userSpaceOnUse">
      <path style="clip-rule:evenodd" id="path138" d="m 50.52,258.48 494.4,0 0,284.52 -494.4,0 0,-284.52 z"/>
    </clipPath>
    <clipPath id="clipPath148" clipPathUnits="userSpaceOnUse">
      <path style="clip-rule:evenodd" id="path150" d="m 50.52,258.48 494.4,0 0,284.52 -494.4,0 0,-284.52 z"/>
    </clipPath>
    <clipPath id="clipPath162" clipPathUnits="userSpaceOnUse">
      <path style="clip-rule:evenodd" id="path164" d="m 50.52,258.48 494.4,0 0,284.52 -494.4,0 0,-284.52 z"/>
    </clipPath>
    <clipPath id="clipPath174" clipPathUnits="userSpaceOnUse">
      <path style="clip-rule:evenodd" id="path176" d="m 50.52,258.48 494.4,0 0,284.52 -494.4,0 0,-284.52 z"/>
    </clipPath>
    <clipPath id="clipPath188" clipPathUnits="userSpaceOnUse">
      <path style="clip-rule:evenodd" id="path190" d="m 50.52,258.48 494.4,0 0,284.52 -494.4,0 0,-284.52 z"/>
    </clipPath>
  </defs>
  <g transform="matrix(1.25,0,0,-1.25,0,1052.4)" id="g10">
    <g id="g12">
      <g clip-path="url(#clipPath16)" id="g14">
        <path id="path20" style="fill:none;stroke:#000000;stroke-width:0.14;stroke-linecap:butt;stroke-linejoin:miter;stroke-miterlimit:10;stroke-dasharray:none;stroke-opacity:0" d="m 50.632,258.47 494.4,0 0,284.52 -494.4,0 0,-284.52 z"/>
      </g>
    </g>
    <g id="g22">
      <g clip-path="url(#clipPath26)" id="g24">
        <path id="path30" style="fill:#ffffff;fill-opacity:1;fill-rule:evenodd;stroke:none" d="m 50.632,258.47 494.4,0 0,284.52 -494.4,0 0,-284.52 z"/>
      </g>
    </g>
    <path id="path32" style="fill:#005aa4;fill-opacity:1;fill-rule:evenodd;stroke:none" d="m 213.27,510.84 c 47.7,0 89.98,-30.72 104.72,-76.09 l -104.72,-34.02 0,110.11 z"/>
    <path id="path34" style="fill:#eadfbc;fill-opacity:1;fill-rule:evenodd;stroke:none" d="m 317.99,434.75 c 14.74,-45.37 -1.41,-95.07 -40,-123.11 l -64.72,89.09 104.72,34.02 z"/>
    <path id="path36" style="fill:#226b5a;fill-opacity:1;fill-rule:evenodd;stroke:none" d="m 277.99,311.64 c -40.67,-29.54 -96.18,-27.8 -134.91,4.24 l 70.19,84.85 64.72,-89.09 z"/>
    <path id="path38" style="fill:#8cd5f2;fill-opacity:1;fill-rule:evenodd;stroke:none" d="m 143.08,315.88 c -36.76,30.41 -49.754,81.03 -32.19,125.38 l 102.38,-40.53 -70.19,-84.85 z"/>
    <path id="path40" style="fill:#d0b86a;fill-opacity:1;fill-rule:evenodd;stroke:none" d="m 110.89,441.26 c 16.62,42 57.21,69.58 102.38,69.58 l 0,-110.11 -102.38,40.53 z"/>
    <g id="g42">
      <g clip-path="url(#clipPath46)" id="g44"><text id="text50" style="font-variant:normal;font-weight:normal;font-size:11.76000023px;font-family:'Roboto Condensed';-inkscape-font-specification:RobotoCondensed-Regular;writing-mode:lr-tb;fill:#000000;fill-opacity:1;fill-rule:nonzero;stroke:none" transform="matrix(1,0,0,-1,258.34,472.08)"><tspan id="tspan52" y="0" x="0 5.8080001 11.616">20%</tspan></text>
</g>
    </g>
    <g id="g54">
      <g clip-path="url(#clipPath58)" id="g56"><text id="text62" style="font-variant:normal;font-weight:normal;font-size:11.76000023px;font-family:'Roboto Condensed';-inkscape-font-specification:RobotoCondensed-Regular;writing-mode:lr-tb;fill:#000000;fill-opacity:1;fill-rule:nonzero;stroke:none" transform="matrix(1,0,0,-1,292.63,369.24)"><tspan id="tspan64" y="0" x="0 5.78404 11.56808">20%</tspan></text>
</g>
    </g>
    <g id="g66">
      <g clip-path="url(#clipPath70)" id="g68"><text id="text74" style="font-variant:normal;font-weight:normal;font-size:11.76000023px;font-family:'Roboto Condensed';-inkscape-font-specification:RobotoCondensed-Regular;writing-mode:lr-tb;fill:#000000;fill-opacity:1;fill-rule:nonzero;stroke:none" transform="matrix(1,0,0,-1,200.54,300.67)"><tspan id="tspan76" y="0" x="0 5.8080001 11.616">21%</tspan></text>
</g>
    </g>
    <g id="g78">
      <g clip-path="url(#clipPath82)" id="g80"><text id="text86" style="font-variant:normal;font-weight:normal;font-size:11.76000023px;font-family:'Roboto Condensed';-inkscape-font-specification:RobotoCondensed-Regular;writing-mode:lr-tb;fill:#000000;fill-opacity:1;fill-rule:nonzero;stroke:none" transform="matrix(1,0,0,-1,112.39,374.14)"><tspan id="tspan88" y="0" x="0 5.8080001 11.616">20%</tspan></text>
</g>
    </g>
    <g id="g90">
      <g clip-path="url(#clipPath94)" id="g92"><text id="text98" style="font-variant:normal;font-weight:normal;font-size:11.73600006px;font-family:'Roboto Condensed';-inkscape-font-specification:RobotoCondensed-Regular;writing-mode:lr-tb;fill:#000000;fill-opacity:1;fill-rule:nonzero;stroke:none" transform="matrix(1,0,0,-1,150.6,474.02)"><tspan id="tspan100" y="0" x="0 5.8079839 11.615968">19%</tspan></text>
</g>
    </g>
    <path id="path102" style="fill:#005aa4;fill-opacity:1;fill-rule:evenodd;stroke:none" d="m 382.02,476.05 6.346,0 0,6.346 -6.346,0 0,-6.346 z"/>
    <g id="g104">
      <g clip-path="url(#clipPath108)" id="g106"><text id="text112" style="font-variant:normal;font-weight:normal;font-size:11.76000023px;font-family:'Roboto Condensed';-inkscape-font-specification:RobotoCondensed-Regular;writing-mode:lr-tb;fill:#000000;fill-opacity:1;fill-rule:nonzero;stroke:none" transform="matrix(1,0,0,-1,391.13,475.68)"><tspan id="tspan114" y="0" x="0 7.3617601 12.86544 18.49848 23.48472 28.32984 31.022881 33.65712 39.431278 45.217201 50.862 56.22456 59.623199 63.198238 65.891281 71.524323 74.217361 76.992722 85.753922 91.386963 96.855362 102.50016 105.1932 110.80272 116.3064 119.88144">Heavy industrial machinery</tspan></text>
</g>
    </g>
    <path id="path116" style="fill:#eadfbc;fill-opacity:1;fill-rule:evenodd;stroke:none" d="m 382.02,440.29 6.346,0 0,6.346 -6.346,0 0,-6.346 z"/>
    <g id="g118">
      <g clip-path="url(#clipPath122)" id="g120"><text id="text126" style="font-variant:normal;font-weight:normal;font-size:11.76000023px;font-family:'Roboto Condensed';-inkscape-font-specification:RobotoCondensed-Regular;writing-mode:lr-tb;fill:#000000;fill-opacity:1;fill-rule:nonzero;stroke:none" transform="matrix(1,0,0,-1,391.13,439.92)"><tspan id="tspan128" y="0" x="0 8.9611197 14.39424 20.027281 25.824961 31.76376 37.408562 42.771118 45.405361 51.791039 54.484081 60.117119 69.031197 77.792397 83.437202 89.211357 91.904404 95.30304 97.996078 103.8996">Weapons &amp; ammunition</tspan></text>
</g>
    </g>
    <path id="path130" style="fill:#226b5a;fill-opacity:1;fill-rule:evenodd;stroke:none" d="m 382.02,404.53 6.346,0 0,6.346 -6.346,0 0,-6.346 z"/>
    <g id="g132">
      <g clip-path="url(#clipPath136)" id="g134"><text id="text140" style="font-variant:normal;font-weight:normal;font-size:11.76000023px;font-family:'Roboto Condensed';-inkscape-font-specification:RobotoCondensed-Regular;writing-mode:lr-tb;fill:#000000;fill-opacity:1;fill-rule:nonzero;stroke:none" transform="matrix(1,0,0,-1,391.13,404.16)"><tspan id="tspan142" y="0" x="0 6.1269598 9.7019997 15.33504 20.979839 26.3424 32.09304 38.031841 41.60688 45.07608 50.709122 54.131279 56.824322 62.72784 68.419678 71.053917 74.781837 80.414879 83.107918 86.682961 92.010239 95.585281 101.21832 104.98152 108.41544 110.75568 113.44872 118.75248 124.39728 127.09032 132.84096 138.29761">Transportation (aircraft, ships,</tspan></text>
</g>
    </g>
    <g id="g144">
      <g clip-path="url(#clipPath148)" id="g146"><text id="text152" style="font-variant:normal;font-weight:normal;font-size:11.73600006px;font-family:'Roboto Condensed';-inkscape-font-specification:RobotoCondensed-Regular;writing-mode:lr-tb;fill:#000000;fill-opacity:1;fill-rule:nonzero;stroke:none" transform="matrix(1,0,0,-1,391.13,390.05)"><tspan id="tspan154" y="0" x="0 3.4621201 9.0836639 14.716944 20.00988 25.361496 28.166401 33.658848 37.074024 42.402168 44.737633 47.425175 50.065777 55.83989 61.168034 63.961201 69.629684 75.380325 78.067871 83.689415 89.475266 92.268433 98.054283 103.67583 107.12621 110.71742 116.06904">tanks etc, including parts)</tspan></text>
</g>
    </g>
    <path id="path156" style="fill:#8cd5f2;fill-opacity:1;fill-rule:evenodd;stroke:none" d="m 382.02,368.78 6.346,0 0,6.346 -6.346,0 0,-6.346 z"/>
    <g id="g158">
      <g clip-path="url(#clipPath162)" id="g160"><text id="text166" style="font-variant:normal;font-weight:normal;font-size:11.76000023px;font-family:'Roboto Condensed';-inkscape-font-specification:RobotoCondensed-Regular;writing-mode:lr-tb;fill:#000000;fill-opacity:1;fill-rule:nonzero;stroke:none" transform="matrix(1,0,0,-1,391.13,368.4)"><tspan id="tspan168" y="0" x="0 6.2445598 11.8776 19.41576 22.21464 30.97584 36.608879 40.078079 45.522961 49.098 51.791039 57.42408 60.117119 65.55024 68.243279 74.476082 77.274963 79.968002 85.577522 91.363441 97.137604 102.50016 105.8988 109.47384 112.16688 117.79992">Raw materials &amp; industrial</tspan></text>
</g>
    </g>
    <g id="g170">
      <g clip-path="url(#clipPath174)" id="g172"><text id="text178" style="font-variant:normal;font-weight:normal;font-size:11.73600006px;font-family:'Roboto Condensed';-inkscape-font-specification:RobotoCondensed-Regular;writing-mode:lr-tb;fill:#000000;fill-opacity:1;fill-rule:nonzero;stroke:none" transform="matrix(1,0,0,-1,391.13,354.29)"><tspan id="tspan180" y="0" x="0 5.4572401 11.125728 16.571232 25.326288 28.119455 33.447601 39.069145 41.756687">chemicals</tspan></text>
</g>
    </g>
    <path id="path182" style="fill:#d0b86a;fill-opacity:1;fill-rule:evenodd;stroke:none" d="m 382.02,333.02 6.346,0 0,6.346 -6.346,0 0,-6.346 z"/>
    <g id="g184">
      <g clip-path="url(#clipPath188)" id="g186"><text id="text192" style="font-variant:normal;font-weight:normal;font-size:11.76000023px;font-family:'Roboto Condensed';-inkscape-font-specification:RobotoCondensed-Regular;writing-mode:lr-tb;fill:#000000;fill-opacity:1;fill-rule:nonzero;stroke:none" transform="matrix(1,0,0,-1,391.13,332.64)"><tspan id="tspan194" y="0" x="0 5.7859201 8.47896 14.07672 19.403999 22.837919 26.41296 32.375278 38.020081 40.71312 46.14624">Electronics</tspan></text>
</g>
    </g>
  </g>
</svg>
