<?xml version="1.0" encoding="UTF-8" standalone="no"?>
<svg xmlns:dc="http://purl.org/dc/elements/1.1/" xmlns:cc="http://creativecommons.org/ns#" xmlns:rdf="http://www.w3.org/1999/02/22-rdf-syntax-ns#" xmlns:svg="http://www.w3.org/2000/svg" xmlns="http://www.w3.org/2000/svg" viewBox="63.02875 390.9 639 208.05" height="208.05" width="639" xml:space="preserve" version="1.1" id="svg2">
  <metadata id="metadata8">
    <rdf:RDF>
      <cc:Work rdf:about="">
        <dc:format>image/svg+xml</dc:format>
        <dc:type rdf:resource="http://purl.org/dc/dcmitype/StillImage"/>
      </cc:Work>
    </rdf:RDF>
  </metadata>
  <defs id="defs6">
    <clipPath id="clipPath16" clipPathUnits="userSpaceOnUse">
      <path style="clip-rule:evenodd" id="path18" d="m 50.4,312.84 511.2,0 0,166.44 -511.2,0 0,-166.44 z"/>
    </clipPath>
    <clipPath id="clipPath26" clipPathUnits="userSpaceOnUse">
      <path style="clip-rule:evenodd" id="path28" d="m 50.4,312.84 511.2,0 0,166.44 -511.2,0 0,-166.44 z"/>
    </clipPath>
    <clipPath id="clipPath54" clipPathUnits="userSpaceOnUse">
      <path style="clip-rule:evenodd" id="path56" d="m 50.52,312.84 511.08,0 0,166.32 -511.08,0 0,-166.32 z"/>
    </clipPath>
    <clipPath id="clipPath66" clipPathUnits="userSpaceOnUse">
      <path style="clip-rule:evenodd" id="path68" d="m 50.52,312.84 511.08,0 0,166.32 -511.08,0 0,-166.32 z"/>
    </clipPath>
    <clipPath id="clipPath78" clipPathUnits="userSpaceOnUse">
      <path style="clip-rule:evenodd" id="path80" d="m 50.52,312.84 511.08,0 0,166.32 -511.08,0 0,-166.32 z"/>
    </clipPath>
    <clipPath id="clipPath90" clipPathUnits="userSpaceOnUse">
      <path style="clip-rule:evenodd" id="path92" d="m 50.52,312.84 511.08,0 0,166.32 -511.08,0 0,-166.32 z"/>
    </clipPath>
    <clipPath id="clipPath102" clipPathUnits="userSpaceOnUse">
      <path style="clip-rule:evenodd" id="path104" d="m 50.52,312.84 511.08,0 0,166.32 -511.08,0 0,-166.32 z"/>
    </clipPath>
    <clipPath id="clipPath114" clipPathUnits="userSpaceOnUse">
      <path style="clip-rule:evenodd" id="path116" d="m 50.52,312.84 511.08,0 0,166.32 -511.08,0 0,-166.32 z"/>
    </clipPath>
    <clipPath id="clipPath126" clipPathUnits="userSpaceOnUse">
      <path style="clip-rule:evenodd" id="path128" d="m 50.52,312.84 511.08,0 0,166.32 -511.08,0 0,-166.32 z"/>
    </clipPath>
    <clipPath id="clipPath138" clipPathUnits="userSpaceOnUse">
      <path style="clip-rule:evenodd" id="path140" d="m 50.52,312.84 511.08,0 0,166.32 -511.08,0 0,-166.32 z"/>
    </clipPath>
    <clipPath id="clipPath150" clipPathUnits="userSpaceOnUse">
      <path style="clip-rule:evenodd" id="path152" d="m 50.52,312.84 511.08,0 0,166.32 -511.08,0 0,-166.32 z"/>
    </clipPath>
    <clipPath id="clipPath162" clipPathUnits="userSpaceOnUse">
      <path style="clip-rule:evenodd" id="path164" d="m 50.52,312.84 511.08,0 0,166.32 -511.08,0 0,-166.32 z"/>
    </clipPath>
    <clipPath id="clipPath174" clipPathUnits="userSpaceOnUse">
      <path style="clip-rule:evenodd" id="path176" d="m 50.52,312.84 511.08,0 0,166.32 -511.08,0 0,-166.32 z"/>
    </clipPath>
    <clipPath id="clipPath186" clipPathUnits="userSpaceOnUse">
      <path style="clip-rule:evenodd" id="path188" d="m 50.52,312.84 511.08,0 0,166.32 -511.08,0 0,-166.32 z"/>
    </clipPath>
    <clipPath id="clipPath198" clipPathUnits="userSpaceOnUse">
      <path style="clip-rule:evenodd" id="path200" d="m 50.52,312.84 511.08,0 0,166.32 -511.08,0 0,-166.32 z"/>
    </clipPath>
    <clipPath id="clipPath210" clipPathUnits="userSpaceOnUse">
      <path style="clip-rule:evenodd" id="path212" d="m 50.52,312.84 511.08,0 0,166.32 -511.08,0 0,-166.32 z"/>
    </clipPath>
    <clipPath id="clipPath222" clipPathUnits="userSpaceOnUse">
      <path style="clip-rule:evenodd" id="path224" d="m 50.52,312.84 511.08,0 0,166.32 -511.08,0 0,-166.32 z"/>
    </clipPath>
    <clipPath id="clipPath234" clipPathUnits="userSpaceOnUse">
      <path style="clip-rule:evenodd" id="path236" d="m 50.52,312.84 511.08,0 0,166.32 -511.08,0 0,-166.32 z"/>
    </clipPath>
    <clipPath id="clipPath246" clipPathUnits="userSpaceOnUse">
      <path style="clip-rule:evenodd" id="path248" d="m 50.52,312.84 511.08,0 0,166.32 -511.08,0 0,-166.32 z"/>
    </clipPath>
    <clipPath id="clipPath258" clipPathUnits="userSpaceOnUse">
      <path style="clip-rule:evenodd" id="path260" d="m 50.52,312.84 511.08,0 0,166.32 -511.08,0 0,-166.32 z"/>
    </clipPath>
    <clipPath id="clipPath270" clipPathUnits="userSpaceOnUse">
      <path style="clip-rule:evenodd" id="path272" d="m 50.52,312.84 511.08,0 0,166.32 -511.08,0 0,-166.32 z"/>
    </clipPath>
    <clipPath id="clipPath282" clipPathUnits="userSpaceOnUse">
      <path style="clip-rule:evenodd" id="path284" d="m 50.52,312.84 511.08,0 0,166.32 -511.08,0 0,-166.32 z"/>
    </clipPath>
    <clipPath id="clipPath294" clipPathUnits="userSpaceOnUse">
      <path style="clip-rule:evenodd" id="path296" d="m 50.52,312.84 511.08,0 0,166.32 -511.08,0 0,-166.32 z"/>
    </clipPath>
    <clipPath id="clipPath306" clipPathUnits="userSpaceOnUse">
      <path style="clip-rule:evenodd" id="path308" d="m 50.52,312.84 511.08,0 0,166.32 -511.08,0 0,-166.32 z"/>
    </clipPath>
    <clipPath id="clipPath318" clipPathUnits="userSpaceOnUse">
      <path style="clip-rule:evenodd" id="path320" d="m 50.52,312.84 511.08,0 0,166.32 -511.08,0 0,-166.32 z"/>
    </clipPath>
    <clipPath id="clipPath330" clipPathUnits="userSpaceOnUse">
      <path style="clip-rule:evenodd" id="path332" d="m 50.52,312.84 511.08,0 0,166.32 -511.08,0 0,-166.32 z"/>
    </clipPath>
    <clipPath id="clipPath342" clipPathUnits="userSpaceOnUse">
      <path style="clip-rule:evenodd" id="path344" d="m 50.52,312.84 511.08,0 0,166.32 -511.08,0 0,-166.32 z"/>
    </clipPath>
    <clipPath id="clipPath354" clipPathUnits="userSpaceOnUse">
      <path style="clip-rule:evenodd" id="path356" d="m 50.52,312.84 511.08,0 0,166.32 -511.08,0 0,-166.32 z"/>
    </clipPath>
    <clipPath id="clipPath366" clipPathUnits="userSpaceOnUse">
      <path style="clip-rule:evenodd" id="path368" d="m 50.52,312.84 511.08,0 0,166.32 -511.08,0 0,-166.32 z"/>
    </clipPath>
    <clipPath id="clipPath378" clipPathUnits="userSpaceOnUse">
      <path style="clip-rule:evenodd" id="path380" d="m 50.52,312.84 511.08,0 0,166.32 -511.08,0 0,-166.32 z"/>
    </clipPath>
    <clipPath id="clipPath390" clipPathUnits="userSpaceOnUse">
      <path style="clip-rule:evenodd" id="path392" d="m 50.52,312.84 511.08,0 0,166.32 -511.08,0 0,-166.32 z"/>
    </clipPath>
    <clipPath id="clipPath402" clipPathUnits="userSpaceOnUse">
      <path style="clip-rule:evenodd" id="path404" d="m 50.52,312.84 511.08,0 0,166.32 -511.08,0 0,-166.32 z"/>
    </clipPath>
    <clipPath id="clipPath414" clipPathUnits="userSpaceOnUse">
      <path style="clip-rule:evenodd" id="path416" d="m 50.52,312.84 511.08,0 0,166.32 -511.08,0 0,-166.32 z"/>
    </clipPath>
    <clipPath id="clipPath426" clipPathUnits="userSpaceOnUse">
      <path style="clip-rule:evenodd" id="path428" d="m 50.52,312.84 511.08,0 0,166.32 -511.08,0 0,-166.32 z"/>
    </clipPath>
    <clipPath id="clipPath438" clipPathUnits="userSpaceOnUse">
      <path style="clip-rule:evenodd" id="path440" d="m 50.52,312.84 511.08,0 0,166.32 -511.08,0 0,-166.32 z"/>
    </clipPath>
    <clipPath id="clipPath450" clipPathUnits="userSpaceOnUse">
      <path style="clip-rule:evenodd" id="path452" d="m 50.52,312.84 511.08,0 0,166.32 -511.08,0 0,-166.32 z"/>
    </clipPath>
    <clipPath id="clipPath462" clipPathUnits="userSpaceOnUse">
      <path style="clip-rule:evenodd" id="path464" d="m 50.52,312.84 511.08,0 0,166.32 -511.08,0 0,-166.32 z"/>
    </clipPath>
    <clipPath id="clipPath474" clipPathUnits="userSpaceOnUse">
      <path style="clip-rule:evenodd" id="path476" d="m 50.52,312.84 511.08,0 0,166.32 -511.08,0 0,-166.32 z"/>
    </clipPath>
    <clipPath id="clipPath486" clipPathUnits="userSpaceOnUse">
      <path style="clip-rule:evenodd" id="path488" d="m 50.484,312.94 511.09,0 0,166.29 -511.09,0 0,-166.29 z"/>
    </clipPath>
    <clipPath id="clipPath498" clipPathUnits="userSpaceOnUse">
      <path style="clip-rule:evenodd" id="path500" d="m 50.52,312.84 511.08,0 0,166.32 -511.08,0 0,-166.32 z"/>
    </clipPath>
    <clipPath id="clipPath512" clipPathUnits="userSpaceOnUse">
      <path style="clip-rule:evenodd" id="path514" d="m 50.52,312.84 511.08,0 0,166.32 -511.08,0 0,-166.32 z"/>
    </clipPath>
    <clipPath id="clipPath526" clipPathUnits="userSpaceOnUse">
      <path style="clip-rule:evenodd" id="path528" d="m 50.52,312.84 511.08,0 0,166.32 -511.08,0 0,-166.32 z"/>
    </clipPath>
    <clipPath id="clipPath540" clipPathUnits="userSpaceOnUse">
      <path style="clip-rule:evenodd" id="path542" d="m 50.52,312.84 511.08,0 0,166.32 -511.08,0 0,-166.32 z"/>
    </clipPath>
    <clipPath id="clipPath554" clipPathUnits="userSpaceOnUse">
      <path style="clip-rule:evenodd" id="path556" d="m 50.52,312.84 511.08,0 0,166.32 -511.08,0 0,-166.32 z"/>
    </clipPath>
    <clipPath id="clipPath568" clipPathUnits="userSpaceOnUse">
      <path style="clip-rule:evenodd" id="path570" d="m 50.52,312.84 511.08,0 0,166.32 -511.08,0 0,-166.32 z"/>
    </clipPath>
    <clipPath id="clipPath582" clipPathUnits="userSpaceOnUse">
      <path style="clip-rule:evenodd" id="path584" d="m 50.52,312.84 511.08,0 0,166.32 -511.08,0 0,-166.32 z"/>
    </clipPath>
  </defs>
  <g transform="matrix(1.25,0,0,-1.25,0,990)" id="g10">
    <g id="g12">
      <g clip-path="url(#clipPath16)" id="g14">
        <path id="path20" style="fill:none;stroke:#000000;stroke-width:0.14;stroke-linecap:butt;stroke-linejoin:miter;stroke-miterlimit:10;stroke-dasharray:none;stroke-opacity:0" d="m 50.493,312.87 511.15,0 0,166.36 -511.15,0 0,-166.36 z"/>
      </g>
    </g>
    <g id="g22">
      <g clip-path="url(#clipPath26)" id="g24">
        <path id="path30" style="fill:#ffffff;fill-opacity:1;fill-rule:evenodd;stroke:none" d="m 50.493,312.87 511.15,0 0,166.36 -511.15,0 0,-166.36 z"/>
      </g>
    </g>
    <path id="path32" style="fill:none;stroke:#c0c0c0;stroke-width:0.44329;stroke-linecap:round;stroke-linejoin:round;stroke-miterlimit:10;stroke-dasharray:none;stroke-opacity:1" d="m 83.598,365.07 473.672,0 m -473.672,16.39 473.672,0 m -473.672,16.38 473.672,0 m -473.672,16.38 473.672,0 m -473.672,16.39 473.672,0 m -473.672,16.38 473.672,0 m -473.672,16.36 473.672,0"/>
    <path id="path34" style="fill:#005aa4;fill-opacity:1;fill-rule:nonzero;stroke:none" d="m 91.976,417.1 11.174,0 0,-68.46 -11.174,0 0,68.46 z m 94.684,-28.83 11.17,0 0,-39.63 -11.17,0 0,39.63 z m 94.79,-22.24 11.07,0 0,-17.39 -11.07,0 0,17.39 z m 94.69,-2.66 11.17,0 0,-14.73 -11.17,0 0,14.73 z m 94.79,-12.13 11.07,0 0,-2.6 -11.07,0 0,2.6 z"/>
    <path id="path36" style="fill:#d0b86a;fill-opacity:1;fill-rule:nonzero;stroke:none" d="m 103.15,421.57 11.06,0 0,-72.93 -11.06,0 0,72.93 z m 94.68,-35.54 11.17,0 0,-37.39 -11.17,0 0,37.39 z m 94.69,-17.23 11.17,0 0,-20.16 -11.17,0 0,20.16 z m 94.79,-7.56 11.17,0 0,-12.6 -11.17,0 0,12.6 z m 94.69,-9.15 11.17,0 0,-3.45 -11.17,0 0,3.45 z"/>
    <path id="path38" style="fill:#226b5a;fill-opacity:1;fill-rule:nonzero;stroke:none" d="m 114.21,428.91 11.17,0 0,-80.27 -11.17,0 0,80.27 z m 94.79,-45.86 11.17,0 0,-34.41 -11.17,0 0,34.41 z m 94.69,-13.08 11.17,0 0,-21.33 -11.17,0 0,21.33 z m 94.79,-9.9 11.07,0 0,-11.43 -11.07,0 0,11.43 z m 94.69,-6.49 11.17,0 0,-4.94 -11.17,0 0,4.94 z"/>
    <path id="path40" style="fill:#00a1e2;fill-opacity:1;fill-rule:nonzero;stroke:none" d="m 125.38,428.91 11.17,0 0,-80.27 -11.17,0 0,80.27 z m 94.79,-47.45 11.07,0 0,-32.82 -11.07,0 0,32.82 z m 94.69,-13.2 11.17,0 0,-19.62 -11.17,0 0,19.62 z m 94.69,-4.89 11.17,0 0,-14.73 -11.17,0 0,14.73 z m 94.79,-6.49 11.17,0 0,-8.24 -11.17,0 0,8.24 z"/>
    <path id="path42" style="fill:#eadfbc;fill-opacity:1;fill-rule:nonzero;stroke:none" d="m 136.55,430.61 11.17,0 0,-81.97 -11.17,0 0,81.97 z m 94.69,-45.96 11.17,0 0,-36.01 -11.17,0 0,36.01 z m 94.79,-16.39 11.17,0 0,-19.62 -11.17,0 0,19.62 z m 94.69,-8.19 11.17,0 0,-11.43 -11.17,0 0,11.43 z m 94.79,-3.19 11.07,0 0,-8.24 -11.07,0 0,8.24 z"/>
    <path id="path44" style="fill:#606165;fill-opacity:1;fill-rule:nonzero;stroke:none" d="m 147.72,445.29 11.07,0 0,-96.65 -11.07,0 0,96.65 z m 94.69,-69.58 11.17,0 0,-27.07 -11.17,0 0,27.07 z m 94.79,-11.49 11.07,0 0,-15.58 -11.07,0 0,15.58 z m 94.69,-2.45 11.17,0 0,-13.13 -11.17,0 0,13.13 z m 94.69,-4.89 11.17,0 0,-8.24 -11.17,0 0,8.24 z"/>
    <path id="path46" style="fill:#8497be;fill-opacity:1;fill-rule:nonzero;stroke:none" d="m 158.79,455.18 11.17,0 0,-106.54 -11.17,0 0,106.54 z m 94.79,-85.21 11.17,0 0,-21.33 -11.17,0 0,21.33 z m 94.69,-9.9 11.17,0 0,-11.43 -11.17,0 0,11.43 z m 94.79,3.3 11.06,0 0,-14.73 -11.06,0 0,14.73 z m 94.69,-6.49 11.17,0 0,-8.24 -11.17,0 0,8.24 z"/>
    <path id="path48" style="fill:none;stroke:#808080;stroke-width:1.10819995;stroke-linecap:round;stroke-linejoin:round;stroke-miterlimit:10;stroke-dasharray:none;stroke-opacity:1" d="m 83.598,348.64 473.672,0"/>
    <g id="g50">
      <g clip-path="url(#clipPath54)" id="g52"><text id="text58" style="font-variant:normal;font-weight:normal;font-size:7.12799978px;font-family:'Roboto Condensed';-inkscape-font-specification:RobotoCondensed-Regular;writing-mode:lr-tb;fill:#000000;fill-opacity:1;fill-rule:nonzero;stroke:none" transform="matrix(1,0,0,-1,100.25,427.3)"><tspan id="tspan60" y="0" x="0 3.5212319 7.006824 8.8814878 12.40272 16.871977">44.5% </tspan></text>
</g>
    </g>
    <g id="g62">
      <g clip-path="url(#clipPath66)" id="g64"><text id="text70" style="font-variant:normal;font-weight:normal;font-size:7.12799978px;font-family:'Roboto Condensed';-inkscape-font-specification:RobotoCondensed-Regular;writing-mode:lr-tb;fill:#000000;fill-opacity:1;fill-rule:nonzero;stroke:none" transform="matrix(1,0,0,-1,195,391.75)"><tspan id="tspan72" y="0" x="0 3.5212319 7.006824 8.8814878 12.40272 16.871977">22.8% </tspan></text>
</g>
    </g>
    <g id="g74">
      <g clip-path="url(#clipPath78)" id="g76"><text id="text82" style="font-variant:normal;font-weight:normal;font-size:7.12799978px;font-family:'Roboto Condensed';-inkscape-font-specification:RobotoCondensed-Regular;writing-mode:lr-tb;fill:#000000;fill-opacity:1;fill-rule:nonzero;stroke:none" transform="matrix(1,0,0,-1,289.75,374.54)"><tspan id="tspan84" y="0" x="0 3.5212319 7.006824 8.8814878 12.40272 16.871977">12.3% </tspan></text>
</g>
    </g>
    <g id="g86">
      <g clip-path="url(#clipPath90)" id="g88"><text id="text94" style="font-variant:normal;font-weight:normal;font-size:7.15199995px;font-family:'Roboto Condensed';-inkscape-font-specification:RobotoCondensed-Regular;writing-mode:lr-tb;fill:#000000;fill-opacity:1;fill-rule:nonzero;stroke:none" transform="matrix(1,0,0,-1,386.21,367.01)"><tspan id="tspan96" y="0" x="0 3.5044799 5.3854561 8.9185438 13.367088">7.7% </tspan></text>
</g>
    </g>
    <g id="g98">
      <g clip-path="url(#clipPath102)" id="g100"><text id="text106" style="font-variant:normal;font-weight:normal;font-size:7.12799978px;font-family:'Roboto Condensed';-inkscape-font-specification:RobotoCondensed-Regular;writing-mode:lr-tb;fill:#000000;fill-opacity:1;fill-rule:nonzero;stroke:none" transform="matrix(1,0,0,-1,480.96,357.82)"><tspan id="tspan108" y="0" x="0 3.5212319 5.395896 8.9171276 13.365">2.1% </tspan></text>
</g>
    </g>
    <g id="g110">
      <g clip-path="url(#clipPath114)" id="g112"><text id="text118" style="font-variant:normal;font-weight:normal;font-size:7.12799978px;font-family:'Roboto Condensed';-inkscape-font-specification:RobotoCondensed-Regular;writing-mode:lr-tb;fill:#000000;fill-opacity:1;fill-rule:nonzero;stroke:none" transform="matrix(1,0,0,-1,122.54,434.69)"><tspan id="tspan120" y="0" x="0 3.5212319 7.006824 8.8814878 12.40272 16.871977">49.0% </tspan></text>
</g>
    </g>
    <g id="g122">
      <g clip-path="url(#clipPath126)" id="g124"><text id="text130" style="font-variant:normal;font-weight:normal;font-size:7.12799978px;font-family:'Roboto Condensed';-inkscape-font-specification:RobotoCondensed-Regular;writing-mode:lr-tb;fill:#000000;fill-opacity:1;fill-rule:nonzero;stroke:none" transform="matrix(1,0,0,-1,217.3,387.14)"><tspan id="tspan132" y="0" x="0 3.5212319 7.006824 8.8814878 12.40272 16.871977">20.0% </tspan></text>
</g>
    </g>
    <g id="g134">
      <g clip-path="url(#clipPath138)" id="g136"><text id="text142" style="font-variant:normal;font-weight:normal;font-size:7.12799978px;font-family:'Roboto Condensed';-inkscape-font-specification:RobotoCondensed-Regular;writing-mode:lr-tb;fill:#000000;fill-opacity:1;fill-rule:nonzero;stroke:none" transform="matrix(1,0,0,-1,312.05,374.04)"><tspan id="tspan144" y="0" x="0 3.5212319 7.006824 8.8814878 12.40272 16.871977">12.0% </tspan></text>
</g>
    </g>
    <g id="g146">
      <g clip-path="url(#clipPath150)" id="g148"><text id="text154" style="font-variant:normal;font-weight:normal;font-size:7.12799978px;font-family:'Roboto Condensed';-inkscape-font-specification:RobotoCondensed-Regular;writing-mode:lr-tb;fill:#000000;fill-opacity:1;fill-rule:nonzero;stroke:none" transform="matrix(1,0,0,-1,408.5,369.12)"><tspan id="tspan156" y="0" x="0 3.5212319 5.395896 8.9171276 13.365">9.0% </tspan></text>
</g>
    </g>
    <g id="g158">
      <g clip-path="url(#clipPath162)" id="g160"><text id="text166" style="font-variant:normal;font-weight:normal;font-size:7.12799978px;font-family:'Roboto Condensed';-inkscape-font-specification:RobotoCondensed-Regular;writing-mode:lr-tb;fill:#000000;fill-opacity:1;fill-rule:nonzero;stroke:none" transform="matrix(1,0,0,-1,503.26,362.57)"><tspan id="tspan168" y="0" x="0 3.5212319 5.395896 8.9171276 13.365">5.0% </tspan></text>
</g>
    </g>
    <g id="g170">
      <g clip-path="url(#clipPath174)" id="g172"><text id="text178" style="font-variant:normal;font-weight:normal;font-size:7.12799978px;font-family:'Roboto Condensed';-inkscape-font-specification:RobotoCondensed-Regular;writing-mode:lr-tb;fill:#000000;fill-opacity:1;fill-rule:nonzero;stroke:none" transform="matrix(1,0,0,-1,144.84,451.08)"><tspan id="tspan180" y="0" x="0 3.5212319 7.006824 8.8814878 12.40272 16.871977">59.0% </tspan></text>
</g>
    </g>
    <g id="g182">
      <g clip-path="url(#clipPath186)" id="g184"><text id="text190" style="font-variant:normal;font-weight:normal;font-size:7.12799978px;font-family:'Roboto Condensed';-inkscape-font-specification:RobotoCondensed-Regular;writing-mode:lr-tb;fill:#000000;fill-opacity:1;fill-rule:nonzero;stroke:none" transform="matrix(1,0,0,-1,239.59,381.41)"><tspan id="tspan192" y="0" x="0 3.5212319 7.006824 8.8814878 12.40272 16.871977">16.5% </tspan></text>
</g>
    </g>
    <g id="g194">
      <g clip-path="url(#clipPath198)" id="g196"><text id="text202" style="font-variant:normal;font-weight:normal;font-size:7.12799978px;font-family:'Roboto Condensed';-inkscape-font-specification:RobotoCondensed-Regular;writing-mode:lr-tb;fill:#000000;fill-opacity:1;fill-rule:nonzero;stroke:none" transform="matrix(1,0,0,-1,336.02,369.94)"><tspan id="tspan204" y="0" x="0 3.5212319 5.438664 8.9598961 13.47192">9.5% </tspan></text>
</g>
    </g>
    <g id="g206">
      <g clip-path="url(#clipPath210)" id="g208"><text id="text214" style="font-variant:normal;font-weight:normal;font-size:7.12799978px;font-family:'Roboto Condensed';-inkscape-font-specification:RobotoCondensed-Regular;writing-mode:lr-tb;fill:#000000;fill-opacity:1;fill-rule:nonzero;stroke:none" transform="matrix(1,0,0,-1,430.78,367.49)"><tspan id="tspan216" y="0" x="0 3.5212319 5.438664 8.9598961 13.47192">8.0% </tspan></text>
</g>
    </g>
    <g id="g218">
      <g clip-path="url(#clipPath222)" id="g220"><text id="text226" style="font-variant:normal;font-weight:normal;font-size:7.12799978px;font-family:'Roboto Condensed';-inkscape-font-specification:RobotoCondensed-Regular;writing-mode:lr-tb;fill:#000000;fill-opacity:1;fill-rule:nonzero;stroke:none" transform="matrix(1,0,0,-1,525.53,362.57)"><tspan id="tspan228" y="0" x="0 3.5212319 5.438664 8.9598961 13.47192">5.0% </tspan></text>
</g>
    </g>
    <g id="g230">
      <g clip-path="url(#clipPath234)" id="g232"><text id="text238" style="font-variant:normal;font-weight:normal;font-size:7.12799978px;font-family:'Roboto Condensed';-inkscape-font-specification:RobotoCondensed-Regular;writing-mode:lr-tb;fill:#000000;fill-opacity:1;fill-rule:nonzero;stroke:none" transform="matrix(1,0,0,-1,155.98,460.9)"><tspan id="tspan240" y="0" x="0 3.5212319 7.006824 8.9171276 12.43836 16.886232">65.0% </tspan></text>
</g>
    </g>
    <g id="g242">
      <g clip-path="url(#clipPath246)" id="g244"><text id="text250" style="font-variant:normal;font-weight:normal;font-size:7.12799978px;font-family:'Roboto Condensed';-inkscape-font-specification:RobotoCondensed-Regular;writing-mode:lr-tb;fill:#000000;fill-opacity:1;fill-rule:nonzero;stroke:none" transform="matrix(1,0,0,-1,250.73,375.67)"><tspan id="tspan252" y="0" x="0 3.5212319 7.006824 8.9171276 12.43836 16.886232">13.0% </tspan></text>
</g>
    </g>
    <g id="g254">
      <g clip-path="url(#clipPath258)" id="g256"><text id="text262" style="font-variant:normal;font-weight:normal;font-size:7.12799978px;font-family:'Roboto Condensed';-inkscape-font-specification:RobotoCondensed-Regular;writing-mode:lr-tb;fill:#000000;fill-opacity:1;fill-rule:nonzero;stroke:none" transform="matrix(1,0,0,-1,347.18,365.86)"><tspan id="tspan264" y="0" x="0 3.5212319 5.4172802 8.9385118 13.386384">7.0% </tspan></text>
</g>
    </g>
    <g id="g266">
      <g clip-path="url(#clipPath270)" id="g268"><text id="text274" style="font-variant:normal;font-weight:normal;font-size:7.12799978px;font-family:'Roboto Condensed';-inkscape-font-specification:RobotoCondensed-Regular;writing-mode:lr-tb;fill:#000000;fill-opacity:1;fill-rule:nonzero;stroke:none" transform="matrix(1,0,0,-1,441.94,369.12)"><tspan id="tspan276" y="0" x="0 3.5212319 5.4172802 8.9385118 13.386384">9.0% </tspan></text>
</g>
    </g>
    <g id="g278">
      <g clip-path="url(#clipPath282)" id="g280"><text id="text286" style="font-variant:normal;font-weight:normal;font-size:7.12799978px;font-family:'Roboto Condensed';-inkscape-font-specification:RobotoCondensed-Regular;writing-mode:lr-tb;fill:#000000;fill-opacity:1;fill-rule:nonzero;stroke:none" transform="matrix(1,0,0,-1,541.54,362.57)"><tspan id="tspan288" y="0" x="0 3.5212319 5.4172802 8.9385118 13.386384">5.0% </tspan></text>
</g>
    </g>
    <g id="g290">
      <g clip-path="url(#clipPath294)" id="g292"><text id="text298" style="font-variant:normal;font-weight:normal;font-size:7.12799978px;font-family:'Roboto Condensed';-inkscape-font-specification:RobotoCondensed-Regular;writing-mode:lr-tb;fill:#000000;fill-opacity:1;fill-rule:nonzero;stroke:none" transform="matrix(1,0,0,-1,62.136,346.49)"><tspan id="tspan300" y="0" x="0 3.5212319 5.3032322 8.8244638">0.0%</tspan></text>
</g>
    </g>
    <g id="g302">
      <g clip-path="url(#clipPath306)" id="g304"><text id="text310" style="font-variant:normal;font-weight:normal;font-size:7.12799978px;font-family:'Roboto Condensed';-inkscape-font-specification:RobotoCondensed-Regular;writing-mode:lr-tb;fill:#000000;fill-opacity:1;fill-rule:nonzero;stroke:none" transform="matrix(1,0,0,-1,58.632,362.88)"><tspan id="tspan312" y="0" x="0 3.5212319 7.006824 8.8102083 12.33144">10.0%</tspan></text>
</g>
    </g>
    <g id="g314">
      <g clip-path="url(#clipPath318)" id="g316"><text id="text322" style="font-variant:normal;font-weight:normal;font-size:7.12799978px;font-family:'Roboto Condensed';-inkscape-font-specification:RobotoCondensed-Regular;writing-mode:lr-tb;fill:#000000;fill-opacity:1;fill-rule:nonzero;stroke:none" transform="matrix(1,0,0,-1,58.632,379.27)"><tspan id="tspan324" y="0" x="0 3.5212319 7.006824 8.8102083 12.33144">20.0%</tspan></text>
</g>
    </g>
    <g id="g326">
      <g clip-path="url(#clipPath330)" id="g328"><text id="text334" style="font-variant:normal;font-weight:normal;font-size:7.15199995px;font-family:'Roboto Condensed';-inkscape-font-specification:RobotoCondensed-Regular;writing-mode:lr-tb;fill:#000000;fill-opacity:1;fill-rule:nonzero;stroke:none" transform="matrix(1,0,0,-1,58.632,395.66)"><tspan id="tspan336" y="0" x="0 3.5044799 7.0089598 8.811264 12.315744">30.0%</tspan></text>
</g>
    </g>
    <g id="g338">
      <g clip-path="url(#clipPath342)" id="g340"><text id="text346" style="font-variant:normal;font-weight:normal;font-size:7.12799978px;font-family:'Roboto Condensed';-inkscape-font-specification:RobotoCondensed-Regular;writing-mode:lr-tb;fill:#000000;fill-opacity:1;fill-rule:nonzero;stroke:none" transform="matrix(1,0,0,-1,58.632,412.03)"><tspan id="tspan348" y="0" x="0 3.5212319 7.006824 8.8102083 12.33144">40.0%</tspan></text>
</g>
    </g>
    <g id="g350">
      <g clip-path="url(#clipPath354)" id="g352"><text id="text358" style="font-variant:normal;font-weight:normal;font-size:7.12799978px;font-family:'Roboto Condensed';-inkscape-font-specification:RobotoCondensed-Regular;writing-mode:lr-tb;fill:#000000;fill-opacity:1;fill-rule:nonzero;stroke:none" transform="matrix(1,0,0,-1,58.632,428.42)"><tspan id="tspan360" y="0" x="0 3.5212319 7.006824 8.8102083 12.33144">50.0%</tspan></text>
</g>
    </g>
    <g id="g362">
      <g clip-path="url(#clipPath366)" id="g364"><text id="text370" style="font-variant:normal;font-weight:normal;font-size:7.12799978px;font-family:'Roboto Condensed';-inkscape-font-specification:RobotoCondensed-Regular;writing-mode:lr-tb;fill:#000000;fill-opacity:1;fill-rule:nonzero;stroke:none" transform="matrix(1,0,0,-1,58.632,444.82)"><tspan id="tspan372" y="0" x="0 3.5212319 7.006824 8.8102083 12.33144">60.0%</tspan></text>
</g>
    </g>
    <g id="g374">
      <g clip-path="url(#clipPath378)" id="g376"><text id="text382" style="font-variant:normal;font-weight:normal;font-size:7.12799978px;font-family:'Roboto Condensed';-inkscape-font-specification:RobotoCondensed-Regular;writing-mode:lr-tb;fill:#000000;fill-opacity:1;fill-rule:nonzero;stroke:none" transform="matrix(1,0,0,-1,58.632,461.21)"><tspan id="tspan384" y="0" x="0 3.5212319 7.006824 8.8102083 12.33144">70.0%</tspan></text>
</g>
    </g>
    <g id="g386">
      <g clip-path="url(#clipPath390)" id="g388"><text id="text394" style="font-variant:normal;font-weight:normal;font-size:7.12799978px;font-family:'Roboto Condensed';-inkscape-font-specification:RobotoCondensed-Regular;writing-mode:lr-tb;fill:#000000;fill-opacity:1;fill-rule:nonzero;stroke:none" transform="matrix(1,0,0,-1,112.49,337.39)"><tspan id="tspan396" y="0" x="0 4.0700879 5.66676 9.1808643 10.813176 12.930192 16.344503 17.948303 19.644768 24.969383 28.383696 29.987495 31.68396 34.998482">Digital Wallet</tspan></text>
</g>
    </g>
    <g id="g398">
      <g clip-path="url(#clipPath402)" id="g400"><text id="text406" style="font-variant:normal;font-weight:normal;font-size:7.12799978px;font-family:'Roboto Condensed';-inkscape-font-specification:RobotoCondensed-Regular;writing-mode:lr-tb;fill:#000000;fill-opacity:1;fill-rule:nonzero;stroke:none" transform="matrix(1,0,0,-1,210,337.39)"><tspan id="tspan408" y="0" x="0 4.0415759 6.208488 9.5016241 13.037112 14.726448 16.765057 18.461519 22.424688 25.839001 28.08432">Credit Card</tspan></text>
</g>
    </g>
    <g id="g410">
      <g clip-path="url(#clipPath414)" id="g412"><text id="text418" style="font-variant:normal;font-weight:normal;font-size:7.12799978px;font-family:'Roboto Condensed';-inkscape-font-specification:RobotoCondensed-Regular;writing-mode:lr-tb;fill:#000000;fill-opacity:1;fill-rule:nonzero;stroke:none" transform="matrix(1,0,0,-1,305.83,337.39)"><tspan id="tspan420" y="0" x="0 4.0700879 7.3703518 10.884456 12.516768 14.633784 16.244713 20.286287 23.7006 25.846128">Debit Card</tspan></text>
</g>
    </g>
    <g id="g422">
      <g clip-path="url(#clipPath426)" id="g424"><text id="text430" style="font-variant:normal;font-weight:normal;font-size:7.12799978px;font-family:'Roboto Condensed';-inkscape-font-specification:RobotoCondensed-Regular;writing-mode:lr-tb;fill:#000000;fill-opacity:1;fill-rule:nonzero;stroke:none" transform="matrix(1,0,0,-1,386.9,337.39)"><tspan id="tspan432" y="0" x="0 4.0344481 7.5556798 11.661408 13.250952 15.89544 17.477856 21.291336 24.677135 28.176985 31.370329 32.952744 36.666431 38.783447 42.169247 45.55505 48.74839 51.000839 54.358128">A2A / Bank Transfer</tspan></text>
</g>
    </g>
    <g id="g434">
      <g clip-path="url(#clipPath438)" id="g436"><text id="text442" style="font-variant:normal;font-weight:normal;font-size:7.12799978px;font-family:'Roboto Condensed';-inkscape-font-specification:RobotoCondensed-Regular;writing-mode:lr-tb;fill:#000000;fill-opacity:1;fill-rule:nonzero;stroke:none" transform="matrix(1,0,0,-1,483.84,337.39)"><tspan id="tspan444" y="0" x="0 3.8419919 7.3418398 10.221552 11.918016 16.287479 19.794456 24.470425 26.081352 30.030264 33.444576 36.41695 38.006496 41.321014 44.735329 46.85947 50.173992">Buy Now Pay Later</tspan></text>
</g>
    </g>
    <g id="g446">
      <g clip-path="url(#clipPath450)" id="g448"><text id="text454" style="font-variant:normal;font-weight:bold;font-size:8.52000046px;font-family:'Roboto Condensed';-inkscape-font-specification:RobotoCondensed-Bold;writing-mode:lr-tb;fill:#000000;fill-opacity:1;fill-rule:nonzero;stroke:none" transform="matrix(1,0,0,-1,53.256,469.78)"><tspan id="tspan456" y="0" x="0 5.0097599 7.1567998 11.39976 15.68532 19.732321 21.87936 23.78784">Global E</tspan></text>
</g>
    </g>
    <g id="g458">
      <g clip-path="url(#clipPath462)" id="g460"><text id="text466" style="font-variant:normal;font-weight:bold;font-size:8.52000046px;font-family:'Roboto Condensed';-inkscape-font-specification:RobotoCondensed-Bold;writing-mode:lr-tb;fill:#000000;fill-opacity:1;fill-rule:nonzero;stroke:none" transform="matrix(1,0,0,-1,81.144,469.78)"><tspan id="tspan468" y="0" x="0">-</tspan></text>
</g>
    </g>
    <g id="g470">
      <g clip-path="url(#clipPath474)" id="g472"><text id="text478" style="font-variant:normal;font-weight:bold;font-size:8.52000046px;font-family:'Roboto Condensed';-inkscape-font-specification:RobotoCondensed-Bold;writing-mode:lr-tb;fill:#000000;fill-opacity:1;fill-rule:nonzero;stroke:none" transform="matrix(1,0,0,-1,84.24,469.78)"><tspan id="tspan480" y="0" x="0 4.89048 9.13344 15.40416 21.666361 25.69632 28.542 32.461201 36.508202 38.408161 43.298641 47.311562 51.137039 57.399239 61.429199 65.578438 68.194077 70.111076 76.569237 80.624763 83.240402 87.432243 91.675201 95.901123">Commerce Payment Methods</tspan></text>
</g>
    </g>
    <g id="g482">
      <g clip-path="url(#clipPath486)" id="g484">
        <path id="path490" style="fill:#ffffff;fill-opacity:1;fill-rule:evenodd;stroke:none" d="m 217.99,312.87 182.01,0 0,13.745 -182.01,0 0,-13.745 z"/>
      </g>
    </g>
    <path id="path492" style="fill:#005aa4;fill-opacity:1;fill-rule:evenodd;stroke:none" d="m 224.36,317.82 3.83,0 0,3.83 -3.83,0 0,-3.83 z"/>
    <g id="g494">
      <g clip-path="url(#clipPath498)" id="g496"><text id="text502" style="font-variant:normal;font-weight:normal;font-size:7.12799978px;font-family:'Roboto Condensed';-inkscape-font-specification:RobotoCondensed-Regular;writing-mode:lr-tb;fill:#000000;fill-opacity:1;fill-rule:nonzero;stroke:none" transform="matrix(1,0,0,-1,229.82,317.57)"><tspan id="tspan504" y="0" x="0 3.5040319 7.0080638 10.512096">2019</tspan></text>
</g>
    </g>
    <path id="path506" style="fill:#d0b86a;fill-opacity:1;fill-rule:evenodd;stroke:none" d="m 249.82,317.82 3.83,0 0,3.83 -3.83,0 0,-3.83 z"/>
    <g id="g508">
      <g clip-path="url(#clipPath512)" id="g510"><text id="text516" style="font-variant:normal;font-weight:normal;font-size:7.12799978px;font-family:'Roboto Condensed';-inkscape-font-specification:RobotoCondensed-Regular;writing-mode:lr-tb;fill:#000000;fill-opacity:1;fill-rule:nonzero;stroke:none" transform="matrix(1,0,0,-1,255.29,317.57)"><tspan id="tspan518" y="0" x="0 3.5040319 7.0080638 10.512096">2020</tspan></text>
</g>
    </g>
    <path id="path520" style="fill:#226b5a;fill-opacity:1;fill-rule:evenodd;stroke:none" d="m 275.28,317.82 3.83,0 0,3.83 -3.83,0 0,-3.83 z"/>
    <g id="g522">
      <g clip-path="url(#clipPath526)" id="g524"><text id="text530" style="font-variant:normal;font-weight:normal;font-size:7.12799978px;font-family:'Roboto Condensed';-inkscape-font-specification:RobotoCondensed-Regular;writing-mode:lr-tb;fill:#000000;fill-opacity:1;fill-rule:nonzero;stroke:none" transform="matrix(1,0,0,-1,280.75,317.57)"><tspan id="tspan532" y="0" x="0 3.5040319 7.0080638 10.512096">2021</tspan></text>
</g>
    </g>
    <path id="path534" style="fill:#00a1e2;fill-opacity:1;fill-rule:evenodd;stroke:none" d="m 300.74,317.82 3.83,0 0,3.83 -3.83,0 0,-3.83 z"/>
    <g id="g536">
      <g clip-path="url(#clipPath540)" id="g538"><text id="text544" style="font-variant:normal;font-weight:normal;font-size:7.12799978px;font-family:'Roboto Condensed';-inkscape-font-specification:RobotoCondensed-Regular;writing-mode:lr-tb;fill:#000000;fill-opacity:1;fill-rule:nonzero;stroke:none" transform="matrix(1,0,0,-1,306.22,317.57)"><tspan id="tspan546" y="0" x="0 3.5040319 7.0080638 10.512096">2022</tspan></text>
</g>
    </g>
    <path id="path548" style="fill:#eadfbc;fill-opacity:1;fill-rule:evenodd;stroke:none" d="m 326.2,317.82 3.83,0 0,3.83 -3.83,0 0,-3.83 z"/>
    <g id="g550">
      <g clip-path="url(#clipPath554)" id="g552"><text id="text558" style="font-variant:normal;font-weight:normal;font-size:7.12799978px;font-family:'Roboto Condensed';-inkscape-font-specification:RobotoCondensed-Regular;writing-mode:lr-tb;fill:#000000;fill-opacity:1;fill-rule:nonzero;stroke:none" transform="matrix(1,0,0,-1,331.68,317.57)"><tspan id="tspan560" y="0" x="0 3.5040319 7.0080638 10.512096">2023</tspan></text>
</g>
    </g>
    <path id="path562" style="fill:#606165;fill-opacity:1;fill-rule:evenodd;stroke:none" d="m 351.66,317.82 3.83,0 0,3.83 -3.83,0 0,-3.83 z"/>
    <g id="g564">
      <g clip-path="url(#clipPath568)" id="g566"><text id="text572" style="font-variant:normal;font-weight:normal;font-size:7.12799978px;font-family:'Roboto Condensed';-inkscape-font-specification:RobotoCondensed-Regular;writing-mode:lr-tb;fill:#000000;fill-opacity:1;fill-rule:nonzero;stroke:none" transform="matrix(1,0,0,-1,357.14,317.57)"><tspan id="tspan574" y="0" x="0 3.5040319 7.0080638 10.512096">2027</tspan></text>
</g>
    </g>
    <path id="path576" style="fill:#8497be;fill-opacity:1;fill-rule:evenodd;stroke:none" d="m 377.12,317.82 3.83,0 0,3.83 -3.83,0 0,-3.83 z"/>
    <g id="g578">
      <g clip-path="url(#clipPath582)" id="g580"><text id="text586" style="font-variant:normal;font-weight:normal;font-size:7.12799978px;font-family:'Roboto Condensed';-inkscape-font-specification:RobotoCondensed-Regular;writing-mode:lr-tb;fill:#000000;fill-opacity:1;fill-rule:nonzero;stroke:none" transform="matrix(1,0,0,-1,382.61,317.57)"><tspan id="tspan588" y="0" x="0 3.5040319 7.0080638 10.512096">2030</tspan></text>
</g>
    </g>
    <path id="path590" style="fill:none;stroke:#ff0000;stroke-width:1.32990003;stroke-linecap:butt;stroke-linejoin:miter;stroke-miterlimit:8;stroke-dasharray:none;stroke-opacity:1" d="m 462.23,357.63 c 0,15.7 21.73,28.43 48.52,28.43 26.8,0 48.53,-12.73 48.53,-28.43 0,-15.69 -21.73,-28.42 -48.53,-28.42 -26.79,0 -48.52,12.73 -48.52,28.42 z"/>
  </g>
</svg>
