<?xml version="1.0" encoding="UTF-8" standalone="no"?>
<svg xmlns:dc="http://purl.org/dc/elements/1.1/" xmlns:cc="http://creativecommons.org/ns#" xmlns:rdf="http://www.w3.org/1999/02/22-rdf-syntax-ns#" xmlns:svg="http://www.w3.org/2000/svg" xmlns="http://www.w3.org/2000/svg" viewBox="63.00625 381 618.14375 341" height="341" width="618.14375" xml:space="preserve" version="1.1" id="svg2">
  <metadata id="metadata8">
    <rdf:RDF>
      <cc:Work rdf:about="">
        <dc:format>image/svg+xml</dc:format>
        <dc:type rdf:resource="http://purl.org/dc/dcmitype/StillImage"/>
      </cc:Work>
    </rdf:RDF>
  </metadata>
  <defs id="defs6">
    <clipPath id="clipPath16" clipPathUnits="userSpaceOnUse">
      <path style="clip-rule:evenodd" id="path18" d="m 50.4,264.36 494.52,0 0,272.88 -494.52,0 0,-272.88 z"/>
    </clipPath>
    <clipPath id="clipPath26" clipPathUnits="userSpaceOnUse">
      <path style="clip-rule:evenodd" id="path28" d="m 50.4,264.36 494.52,0 0,272.88 -494.52,0 0,-272.88 z"/>
    </clipPath>
    <clipPath id="clipPath36" clipPathUnits="userSpaceOnUse">
      <path style="clip-rule:evenodd" id="path38" d="m 88.963,294.16 448.73,0 0,213.06 -448.73,0 0,-213.06 z"/>
    </clipPath>
    <clipPath id="clipPath76" clipPathUnits="userSpaceOnUse">
      <path style="clip-rule:evenodd" id="path78" d="m 50.52,264.36 494.4,0 0,272.76 -494.4,0 0,-272.76 z"/>
    </clipPath>
    <clipPath id="clipPath88" clipPathUnits="userSpaceOnUse">
      <path style="clip-rule:evenodd" id="path90" d="m 50.52,264.36 494.4,0 0,272.76 -494.4,0 0,-272.76 z"/>
    </clipPath>
    <clipPath id="clipPath100" clipPathUnits="userSpaceOnUse">
      <path style="clip-rule:evenodd" id="path102" d="m 50.52,264.36 494.4,0 0,272.76 -494.4,0 0,-272.76 z"/>
    </clipPath>
    <clipPath id="clipPath112" clipPathUnits="userSpaceOnUse">
      <path style="clip-rule:evenodd" id="path114" d="m 50.52,264.36 494.4,0 0,272.76 -494.4,0 0,-272.76 z"/>
    </clipPath>
    <clipPath id="clipPath124" clipPathUnits="userSpaceOnUse">
      <path style="clip-rule:evenodd" id="path126" d="m 50.52,264.36 494.4,0 0,272.76 -494.4,0 0,-272.76 z"/>
    </clipPath>
    <clipPath id="clipPath136" clipPathUnits="userSpaceOnUse">
      <path style="clip-rule:evenodd" id="path138" d="m 50.52,264.36 494.4,0 0,272.76 -494.4,0 0,-272.76 z"/>
    </clipPath>
    <clipPath id="clipPath148" clipPathUnits="userSpaceOnUse">
      <path style="clip-rule:evenodd" id="path150" d="m 50.52,264.36 494.4,0 0,272.76 -494.4,0 0,-272.76 z"/>
    </clipPath>
    <clipPath id="clipPath160" clipPathUnits="userSpaceOnUse">
      <path style="clip-rule:evenodd" id="path162" d="m 50.52,264.36 494.4,0 0,272.76 -494.4,0 0,-272.76 z"/>
    </clipPath>
    <clipPath id="clipPath172" clipPathUnits="userSpaceOnUse">
      <path style="clip-rule:evenodd" id="path174" d="m 50.52,264.36 494.4,0 0,272.76 -494.4,0 0,-272.76 z"/>
    </clipPath>
    <clipPath id="clipPath184" clipPathUnits="userSpaceOnUse">
      <path style="clip-rule:evenodd" id="path186" d="m 50.52,264.36 494.4,0 0,272.76 -494.4,0 0,-272.76 z"/>
    </clipPath>
    <clipPath id="clipPath196" clipPathUnits="userSpaceOnUse">
      <path style="clip-rule:evenodd" id="path198" d="m 50.52,264.36 494.4,0 0,272.76 -494.4,0 0,-272.76 z"/>
    </clipPath>
    <clipPath id="clipPath208" clipPathUnits="userSpaceOnUse">
      <path style="clip-rule:evenodd" id="path210" d="m 50.52,264.36 494.4,0 0,272.76 -494.4,0 0,-272.76 z"/>
    </clipPath>
    <clipPath id="clipPath220" clipPathUnits="userSpaceOnUse">
      <path style="clip-rule:evenodd" id="path222" d="m 50.52,264.36 494.4,0 0,272.76 -494.4,0 0,-272.76 z"/>
    </clipPath>
    <clipPath id="clipPath232" clipPathUnits="userSpaceOnUse">
      <path style="clip-rule:evenodd" id="path234" d="m 50.52,264.36 494.4,0 0,272.76 -494.4,0 0,-272.76 z"/>
    </clipPath>
    <clipPath id="clipPath244" clipPathUnits="userSpaceOnUse">
      <path style="clip-rule:evenodd" id="path246" d="m 50.52,264.36 494.4,0 0,272.76 -494.4,0 0,-272.76 z"/>
    </clipPath>
    <clipPath id="clipPath256" clipPathUnits="userSpaceOnUse">
      <path style="clip-rule:evenodd" id="path258" d="m 50.52,264.36 494.4,0 0,272.76 -494.4,0 0,-272.76 z"/>
    </clipPath>
    <clipPath id="clipPath268" clipPathUnits="userSpaceOnUse">
      <path style="clip-rule:evenodd" id="path270" d="m 50.52,264.36 494.4,0 0,272.76 -494.4,0 0,-272.76 z"/>
    </clipPath>
    <clipPath id="clipPath282" clipPathUnits="userSpaceOnUse">
      <path style="clip-rule:evenodd" id="path284" d="m 50.52,264.36 494.4,0 0,272.76 -494.4,0 0,-272.76 z"/>
    </clipPath>
    <clipPath id="clipPath296" clipPathUnits="userSpaceOnUse">
      <path style="clip-rule:evenodd" id="path298" d="m 50.52,264.36 494.4,0 0,272.76 -494.4,0 0,-272.76 z"/>
    </clipPath>
    <clipPath id="clipPath310" clipPathUnits="userSpaceOnUse">
      <path style="clip-rule:evenodd" id="path312" d="m 50.52,264.36 494.4,0 0,272.76 -494.4,0 0,-272.76 z"/>
    </clipPath>
    <clipPath id="clipPath324" clipPathUnits="userSpaceOnUse">
      <path style="clip-rule:evenodd" id="path326" d="m 50.52,264.36 494.4,0 0,272.76 -494.4,0 0,-272.76 z"/>
    </clipPath>
    <clipPath id="clipPath336" clipPathUnits="userSpaceOnUse">
      <path style="clip-rule:evenodd" id="path338" d="m 50.52,264.36 494.4,0 0,272.76 -494.4,0 0,-272.76 z"/>
    </clipPath>
  </defs>
  <g transform="matrix(1.25,0,0,-1.25,0,1052.4)" id="g10">
    <g id="g12">
      <g clip-path="url(#clipPath16)" id="g14">
        <path id="path20" style="fill:none;stroke:#000000;stroke-width:0.14;stroke-linecap:butt;stroke-linejoin:miter;stroke-miterlimit:10;stroke-dasharray:none;stroke-opacity:0" d="m 50.475,264.25 494.4,0 0,272.82 -494.4,0 0,-272.82 z"/>
      </g>
    </g>
    <g id="g22">
      <g clip-path="url(#clipPath26)" id="g24">
        <path id="path30" style="fill:#ffffff;fill-opacity:1;fill-rule:evenodd;stroke:none" d="m 50.475,264.26 494.4,0 0,272.82 -494.4,0 0,-272.82 z"/>
      </g>
    </g>
    <g id="g32">
      <g clip-path="url(#clipPath36)" id="g34">
        <path id="path40" style="fill:#dfdfe0;fill-opacity:0.50196001;fill-rule:nonzero;stroke:none" d="m 270.96,537.53 27.92,0 28.04,0 28.05,0 27.9,0 28.05,0 27.9,0 28.04,0 28.05,0 27.92,0 0,-242.53 -27.92,0 -28.05,0 -28.04,0 -27.9,0 -28.05,0 -27.9,0 -28.05,0 -28.04,0 -27.92,0 0,242.53 z"/>
      </g>
    </g>
    <path id="path42" style="fill:none;stroke:#808080;stroke-width:1.49049997;stroke-linecap:round;stroke-linejoin:round;stroke-miterlimit:10;stroke-dasharray:none;stroke-opacity:1" d="m 89.055,295 447.775,0"/>
    <path id="path44" style="fill:none;stroke:#005aa4;stroke-width:1.78859997;stroke-linecap:round;stroke-linejoin:round;stroke-miterlimit:10;stroke-dasharray:none;stroke-opacity:1" d="m 103.05,428.39 27.98,0 28.05,-30.35 27.9,0 28.05,0 27.9,-12.09 28.03,24.25"/>
    <path id="path46" style="fill:none;stroke:#d0b86a;stroke-width:1.78859997;stroke-linecap:round;stroke-linejoin:round;stroke-miterlimit:10;stroke-dasharray:none;stroke-opacity:1" d="m 103.05,392.01 27.98,-6.13 28.05,-18.17 27.9,0 28.05,6.15 27.9,-18.23 28.03,6.07"/>
    <path id="path48" style="fill:none;stroke:#57caaf;stroke-width:1.78859997;stroke-linecap:round;stroke-linejoin:round;stroke-miterlimit:10;stroke-dasharray:none;stroke-opacity:1" d="m 103.05,385.95 27.98,12.09 28.05,6.15 27.9,6.01 28.05,54.57 27.9,-24.23 28.03,-30.34"/>
    <path id="path50" style="fill:none;stroke:#00a1e2;stroke-width:1.78859997;stroke-linecap:round;stroke-linejoin:round;stroke-miterlimit:10;stroke-dasharray:none;stroke-opacity:1" d="m 103.05,446.55 27.98,-84.85 28.05,-6.07 27.9,30.25 28.05,18.31 27.9,42.36 28.03,18.22"/>
    <g id="g52">
      <path id="path54" style="fill:none;stroke:#005aa4;stroke-width:1.78859997;stroke-linecap:round;stroke-linejoin:round;stroke-miterlimit:10;stroke-dasharray:3.5773, 3.5773;stroke-dashoffset:0;stroke-opacity:1" d="m 270.96,410.2 27.92,0 28.04,-6.01 28.05,18.14 27.9,-18.14 28.05,-12.16 27.9,-6.15 28.04,-5.99 28.05,0 27.92,5.99"/>
    </g>
    <g id="g56">
      <path id="path58" style="fill:none;stroke:#d0b86a;stroke-width:1.78859997;stroke-linecap:round;stroke-linejoin:round;stroke-miterlimit:10;stroke-dasharray:3.5773, 3.5773;stroke-dashoffset:0;stroke-opacity:1" d="m 270.96,361.7 27.92,-6.01 28.04,-30.37 28.05,18.2 27.9,-6.01 28.05,0 27.9,0 28.04,6.01 28.05,-6.01 27.92,0"/>
    </g>
    <g id="g60">
      <path id="path62" style="fill:none;stroke:#57caaf;stroke-width:1.78859997;stroke-linecap:round;stroke-linejoin:round;stroke-miterlimit:10;stroke-dasharray:3.5773, 3.5773;stroke-dashoffset:0;stroke-opacity:1" d="m 270.96,410.2 27.92,-18.17 28.04,-54.52 28.05,6.01 27.9,6.01 28.05,-18.15 27.9,12.14 28.04,12.17 28.05,0 27.92,6.01"/>
    </g>
    <g id="g64">
      <path id="path66" style="fill:none;stroke:#00a1e2;stroke-width:1.78859997;stroke-linecap:round;stroke-linejoin:round;stroke-miterlimit:10;stroke-dasharray:3.5773, 3.5773;stroke-dashoffset:0;stroke-opacity:1" d="m 270.96,464.77 27.92,-24.23 28.04,-42.5 28.05,-30.33 27.9,-12.02 28.05,-6.12 27.9,6.12 28.04,6.01 28.05,6.01 27.92,-6.01"/>
    </g>
    <g id="g68">
      <path id="path70" style="fill:none;stroke:#606165;stroke-width:1.78859997;stroke-linecap:round;stroke-linejoin:round;stroke-miterlimit:10;stroke-dasharray:3.5773, 3.5773;stroke-dashoffset:0;stroke-opacity:1" d="m 103.05,355.63 27.98,0 28.05,0 27.9,0 28.05,0 27.9,0 28.04,0 27.91,0 28.04,0 28.05,0 27.9,0 28.05,0 27.9,0 28.04,0 28.05,0 27.92,0"/>
    </g>
    <g id="g72">
      <g clip-path="url(#clipPath76)" id="g74"><text id="text80" style="font-variant:normal;font-weight:normal;font-size:13.17599964px;font-family:'Roboto Condensed';-inkscape-font-specification:RobotoCondensed-Regular;writing-mode:lr-tb;fill:#000000;fill-opacity:1;fill-rule:nonzero;stroke:none" transform="matrix(1,0,0,-1,60.648,291)"><tspan id="tspan82" y="0" x="0 6.4298878 9.8951759">1.0</tspan></text>
</g>
    </g>
    <g id="g84">
      <g clip-path="url(#clipPath88)" id="g86"><text id="text92" style="font-variant:normal;font-weight:normal;font-size:13.15200043px;font-family:'Roboto Condensed';-inkscape-font-specification:RobotoCondensed-Regular;writing-mode:lr-tb;fill:#000000;fill-opacity:1;fill-rule:nonzero;stroke:none" transform="matrix(1,0,0,-1,60.648,321.31)"><tspan id="tspan94" y="0" x="0 6.4313278 9.8903036">1.5</tspan></text>
</g>
    </g>
    <g id="g96">
      <g clip-path="url(#clipPath100)" id="g98"><text id="text104" style="font-variant:normal;font-weight:normal;font-size:13.17599964px;font-family:'Roboto Condensed';-inkscape-font-specification:RobotoCondensed-Regular;writing-mode:lr-tb;fill:#000000;fill-opacity:1;fill-rule:nonzero;stroke:none" transform="matrix(1,0,0,-1,60.648,351.65)"><tspan id="tspan106" y="0" x="0 6.4298878 9.8951759">2.0</tspan></text>
</g>
    </g>
    <g id="g108">
      <g clip-path="url(#clipPath112)" id="g110"><text id="text116" style="font-variant:normal;font-weight:normal;font-size:13.15200043px;font-family:'Roboto Condensed';-inkscape-font-specification:RobotoCondensed-Regular;writing-mode:lr-tb;fill:#000000;fill-opacity:1;fill-rule:nonzero;stroke:none" transform="matrix(1,0,0,-1,60.648,381.96)"><tspan id="tspan118" y="0" x="0 6.4313278 9.8903036">2.5</tspan></text>
</g>
    </g>
    <g id="g120">
      <g clip-path="url(#clipPath124)" id="g122"><text id="text128" style="font-variant:normal;font-weight:normal;font-size:13.15200043px;font-family:'Roboto Condensed';-inkscape-font-specification:RobotoCondensed-Regular;writing-mode:lr-tb;fill:#000000;fill-opacity:1;fill-rule:nonzero;stroke:none" transform="matrix(1,0,0,-1,60.648,412.27)"><tspan id="tspan130" y="0" x="0 6.4313278 9.8903036">3.0</tspan></text>
</g>
    </g>
    <g id="g132">
      <g clip-path="url(#clipPath136)" id="g134"><text id="text140" style="font-variant:normal;font-weight:normal;font-size:13.17599964px;font-family:'Roboto Condensed';-inkscape-font-specification:RobotoCondensed-Regular;writing-mode:lr-tb;fill:#000000;fill-opacity:1;fill-rule:nonzero;stroke:none" transform="matrix(1,0,0,-1,60.648,442.61)"><tspan id="tspan142" y="0" x="0 6.4298878 9.8951759">3.5</tspan></text>
</g>
    </g>
    <g id="g144">
      <g clip-path="url(#clipPath148)" id="g146"><text id="text152" style="font-variant:normal;font-weight:normal;font-size:13.15200043px;font-family:'Roboto Condensed';-inkscape-font-specification:RobotoCondensed-Regular;writing-mode:lr-tb;fill:#000000;fill-opacity:1;fill-rule:nonzero;stroke:none" transform="matrix(1,0,0,-1,60.648,472.92)"><tspan id="tspan154" y="0" x="0 6.4313278 9.8903036">4.0</tspan></text>
</g>
    </g>
    <g id="g156">
      <g clip-path="url(#clipPath160)" id="g158"><text id="text164" style="font-variant:normal;font-weight:normal;font-size:13.17599964px;font-family:'Roboto Condensed';-inkscape-font-specification:RobotoCondensed-Regular;writing-mode:lr-tb;fill:#000000;fill-opacity:1;fill-rule:nonzero;stroke:none" transform="matrix(1,0,0,-1,60.648,503.26)"><tspan id="tspan166" y="0" x="0 6.4298878 9.8951759">4.5</tspan></text>
</g>
    </g>
    <g id="g168">
      <g clip-path="url(#clipPath172)" id="g170"><text id="text176" style="font-variant:normal;font-weight:normal;font-size:13.17599964px;font-family:'Roboto Condensed';-inkscape-font-specification:RobotoCondensed-Regular;writing-mode:lr-tb;fill:#000000;fill-opacity:1;fill-rule:nonzero;stroke:none" transform="matrix(1,0,0,-1,86.976,274.18)"><tspan id="tspan178" y="0" x="0 7.8660722 14.322312 19.210608 25.785433">Q1/24</tspan></text>
</g>
    </g>
    <g id="g180">
      <g clip-path="url(#clipPath184)" id="g182"><text id="text188" style="font-variant:normal;font-weight:normal;font-size:13.17599964px;font-family:'Roboto Condensed';-inkscape-font-specification:RobotoCondensed-Regular;writing-mode:lr-tb;fill:#000000;fill-opacity:1;fill-rule:nonzero;stroke:none" transform="matrix(1,0,0,-1,142.97,274.18)"><tspan id="tspan190" y="0" x="0 7.8660722 14.29596 19.184256 25.732727">Q3/24</tspan></text>
</g>
    </g>
    <g id="g192">
      <g clip-path="url(#clipPath196)" id="g194"><text id="text200" style="font-variant:normal;font-weight:normal;font-size:13.17599964px;font-family:'Roboto Condensed';-inkscape-font-specification:RobotoCondensed-Regular;writing-mode:lr-tb;fill:#000000;fill-opacity:1;fill-rule:nonzero;stroke:none" transform="matrix(1,0,0,-1,198.96,274.18)"><tspan id="tspan202" y="0" x="0 7.8660722 14.29596 19.144728 25.706375">Q1/25</tspan></text>
</g>
    </g>
    <g id="g204">
      <g clip-path="url(#clipPath208)" id="g206"><text id="text212" style="font-variant:normal;font-weight:normal;font-size:13.17599964px;font-family:'Roboto Condensed';-inkscape-font-specification:RobotoCondensed-Regular;writing-mode:lr-tb;fill:#000000;fill-opacity:1;fill-rule:nonzero;stroke:none" transform="matrix(1,0,0,-1,254.93,274.18)"><tspan id="tspan214" y="0" x="0 7.8660722 14.322312 19.210608 25.759081">Q3/25</tspan></text>
</g>
    </g>
    <g id="g216">
      <g clip-path="url(#clipPath220)" id="g218"><text id="text224" style="font-variant:normal;font-weight:normal;font-size:13.17599964px;font-family:'Roboto Condensed';-inkscape-font-specification:RobotoCondensed-Regular;writing-mode:lr-tb;fill:#000000;fill-opacity:1;fill-rule:nonzero;stroke:none" transform="matrix(1,0,0,-1,310.92,274.18)"><tspan id="tspan226" y="0" x="0 7.8660722 14.29596 19.144728 25.706375">Q1/26</tspan></text>
</g>
    </g>
    <g id="g228">
      <g clip-path="url(#clipPath232)" id="g230"><text id="text236" style="font-variant:normal;font-weight:normal;font-size:13.17599964px;font-family:'Roboto Condensed';-inkscape-font-specification:RobotoCondensed-Regular;writing-mode:lr-tb;fill:#000000;fill-opacity:1;fill-rule:nonzero;stroke:none" transform="matrix(1,0,0,-1,366.89,274.18)"><tspan id="tspan238" y="0" x="0 7.8660722 14.322312 19.210608 25.785433">Q3/26</tspan></text>
</g>
    </g>
    <g id="g240">
      <g clip-path="url(#clipPath244)" id="g242"><text id="text248" style="font-variant:normal;font-weight:normal;font-size:13.17599964px;font-family:'Roboto Condensed';-inkscape-font-specification:RobotoCondensed-Regular;writing-mode:lr-tb;fill:#000000;fill-opacity:1;fill-rule:nonzero;stroke:none" transform="matrix(1,0,0,-1,422.88,274.18)"><tspan id="tspan250" y="0" x="0 7.8660722 14.29596 19.184256 25.732727">Q1/27</tspan></text>
</g>
    </g>
    <g id="g252">
      <g clip-path="url(#clipPath256)" id="g254"><text id="text260" style="font-variant:normal;font-weight:normal;font-size:13.17599964px;font-family:'Roboto Condensed';-inkscape-font-specification:RobotoCondensed-Regular;writing-mode:lr-tb;fill:#000000;fill-opacity:1;fill-rule:nonzero;stroke:none" transform="matrix(1,0,0,-1,478.85,274.18)"><tspan id="tspan262" y="0" x="0 7.8660722 14.322312 19.210608 25.785433">Q3/27</tspan></text>
</g>
    </g>
    <g id="g264">
      <g clip-path="url(#clipPath268)" id="g266"><text id="text272" style="font-variant:normal;font-weight:bold;font-size:15.74400043px;font-family:'Roboto Condensed';-inkscape-font-specification:RobotoCondensed-Bold;writing-mode:lr-tb;fill:#000000;fill-opacity:1;fill-rule:nonzero;stroke:none" transform="matrix(1,0,0,-1,186.34,516.6)"><tspan id="tspan274" y="0" x="0 9.1472635 17.113728 20.734848 30.401665 38.006016 45.42144 53.309185 57.276672 61.307137 69.053185 76.594559 79.900803 88.874878 97.880447 102.14707 105.76819 110.03481 117.73363 122.89767 126.86515 134.28058 139.14548 143.11296 151.01645 158.7625 162.17894 167.29575 177.30893 185.84218">G4 Headline CPI Inflation (%Y)</tspan></text>
</g>
    </g>
    <path id="path276" style="fill:none;stroke:#005aa4;stroke-width:1.78859997;stroke-linecap:round;stroke-linejoin:round;stroke-miterlimit:10;stroke-dasharray:none;stroke-opacity:1" d="M 86.006,496.64 108.9,496.63"/>
    <g id="g278">
      <g clip-path="url(#clipPath282)" id="g280"><text id="text286" style="font-variant:normal;font-weight:normal;font-size:13.17599964px;font-family:'Roboto Condensed';-inkscape-font-specification:RobotoCondensed-Regular;writing-mode:lr-tb;fill:#005aa4;fill-opacity:1;fill-rule:nonzero;stroke:none" transform="matrix(1,0,0,-1,111.34,492.67)"><tspan id="tspan288" y="0" x="0 7.2959118">US</tspan></text>
</g>
    </g>
    <path id="path290" style="fill:none;stroke:#d0b86a;stroke-width:1.78859997;stroke-linecap:round;stroke-linejoin:round;stroke-miterlimit:10;stroke-dasharray:none;stroke-opacity:1" d="m 181.74,496.64 22.9,-0.01"/>
    <g id="g292">
      <g clip-path="url(#clipPath296)" id="g294"><text id="text300" style="font-variant:normal;font-weight:normal;font-size:13.17599964px;font-family:'Roboto Condensed';-inkscape-font-specification:RobotoCondensed-Regular;writing-mode:lr-tb;fill:#b39638;fill-opacity:1;fill-rule:nonzero;stroke:none" transform="matrix(1,0,0,-1,207.1,492.67)"><tspan id="tspan302" y="0" x="0 6.5484719 12.859776 16.86528 23.479631 26.444233 34.033607 37.894176 44.060543">Euro Area</tspan></text>
</g>
    </g>
    <path id="path304" style="fill:none;stroke:#57caaf;stroke-width:1.78859997;stroke-linecap:round;stroke-linejoin:round;stroke-miterlimit:10;stroke-dasharray:none;stroke-opacity:1" d="m 86.006,477.95 22.894,0"/>
    <g id="g306">
      <g clip-path="url(#clipPath310)" id="g308"><text id="text314" style="font-variant:normal;font-weight:normal;font-size:13.17599964px;font-family:'Roboto Condensed';-inkscape-font-specification:RobotoCondensed-Regular;writing-mode:lr-tb;fill:#57caaf;fill-opacity:1;fill-rule:nonzero;stroke:none" transform="matrix(1,0,0,-1,111.34,473.98)"><tspan id="tspan316" y="0" x="0 6.2849522 12.596256 18.999792 25.311096">Japan</tspan></text>
</g>
    </g>
    <path id="path318" style="fill:none;stroke:#00a1e2;stroke-width:1.78859997;stroke-linecap:round;stroke-linejoin:round;stroke-miterlimit:10;stroke-dasharray:none;stroke-opacity:1" d="m 181.74,477.95 22.9,0"/>
    <g id="g320">
      <g clip-path="url(#clipPath324)" id="g322"><text id="text328" style="font-variant:normal;font-weight:normal;font-size:13.17599964px;font-family:'Roboto Condensed';-inkscape-font-specification:RobotoCondensed-Regular;writing-mode:lr-tb;fill:#00a1e2;fill-opacity:1;fill-rule:nonzero;stroke:none" transform="matrix(1,0,0,-1,207.1,473.98)"><tspan id="tspan330" y="0" x="0 7.2959118">UK</tspan></text>
</g>
    </g>
    <g id="g332">
      <g clip-path="url(#clipPath336)" id="g334"><text id="text340" style="font-variant:normal;font-weight:normal;font-size:13.17599964px;font-family:'Roboto Condensed';-inkscape-font-specification:RobotoCondensed-Regular;writing-mode:lr-tb;fill:#000000;fill-opacity:1;fill-rule:nonzero;stroke:none" transform="matrix(1,0,0,-1,369.31,468.55)"><tspan id="tspan342" y="0" x="0 10.01376 16.891632 19.777176 26.101656 32.716007 36.721512 42.887878 49.014721 55.326023 61.334278 65.221199">MS Forecasts</tspan></text>
</g>
    </g>
  </g>
</svg>
