<?xml version="1.0" encoding="UTF-8" standalone="no"?>
<svg xmlns:dc="http://purl.org/dc/elements/1.1/" xmlns:cc="http://creativecommons.org/ns#" xmlns:rdf="http://www.w3.org/1999/02/22-rdf-syntax-ns#" xmlns:svg="http://www.w3.org/2000/svg" xmlns="http://www.w3.org/2000/svg" viewBox="63 372.375 618.12875 358.125" height="358.125" width="618.12875" xml:space="preserve" version="1.1" id="svg2">
  <metadata id="metadata8">
    <rdf:RDF>
      <cc:Work rdf:about="">
        <dc:format>image/svg+xml</dc:format>
        <dc:type rdf:resource="http://purl.org/dc/dcmitype/StillImage"/>
      </cc:Work>
    </rdf:RDF>
  </metadata>
  <defs id="defs6">
    <clipPath id="clipPath16" clipPathUnits="userSpaceOnUse">
      <path style="clip-rule:evenodd" id="path18" d="m 50.4,257.52 494.52,0 0,286.56 -494.52,0 0,-286.56 z"/>
    </clipPath>
    <clipPath id="clipPath28" clipPathUnits="userSpaceOnUse">
      <path style="clip-rule:evenodd" id="path30" d="m 50.433,257.56 494.36,0 0,286.46 -494.36,0 0,-286.46 z"/>
    </clipPath>
    <clipPath id="clipPath40" clipPathUnits="userSpaceOnUse">
      <path style="clip-rule:evenodd" id="path42" d="m 50.433,257.56 494.36,0 0,286.46 -494.36,0 0,-286.46 z"/>
    </clipPath>
    <clipPath id="clipPath50" clipPathUnits="userSpaceOnUse">
      <path style="clip-rule:evenodd" id="path52" d="m 50.433,257.56 494.36,0 0,286.46 -494.36,0 0,-286.46 z"/>
    </clipPath>
    <clipPath id="clipPath60" clipPathUnits="userSpaceOnUse">
      <path style="clip-rule:evenodd" id="path62" d="m 50.433,257.56 494.36,0 0,286.46 -494.36,0 0,-286.46 z"/>
    </clipPath>
    <clipPath id="clipPath70" clipPathUnits="userSpaceOnUse">
      <path style="clip-rule:evenodd" id="path72" d="m 50.52,257.52 494.28,0 0,286.44 -494.28,0 0,-286.44 z"/>
    </clipPath>
    <clipPath id="clipPath82" clipPathUnits="userSpaceOnUse">
      <path style="clip-rule:evenodd" id="path84" d="m 50.52,257.52 494.28,0 0,286.44 -494.28,0 0,-286.44 z"/>
    </clipPath>
    <clipPath id="clipPath94" clipPathUnits="userSpaceOnUse">
      <path style="clip-rule:evenodd" id="path96" d="m 50.52,257.52 494.28,0 0,286.44 -494.28,0 0,-286.44 z"/>
    </clipPath>
    <clipPath id="clipPath106" clipPathUnits="userSpaceOnUse">
      <path style="clip-rule:evenodd" id="path108" d="m 50.52,257.52 494.28,0 0,286.44 -494.28,0 0,-286.44 z"/>
    </clipPath>
    <clipPath id="clipPath118" clipPathUnits="userSpaceOnUse">
      <path style="clip-rule:evenodd" id="path120" d="m 50.52,257.52 494.28,0 0,286.44 -494.28,0 0,-286.44 z"/>
    </clipPath>
    <clipPath id="clipPath130" clipPathUnits="userSpaceOnUse">
      <path style="clip-rule:evenodd" id="path132" d="m 50.52,257.52 494.28,0 0,286.44 -494.28,0 0,-286.44 z"/>
    </clipPath>
    <clipPath id="clipPath142" clipPathUnits="userSpaceOnUse">
      <path style="clip-rule:evenodd" id="path144" d="m 50.52,257.52 494.28,0 0,286.44 -494.28,0 0,-286.44 z"/>
    </clipPath>
    <clipPath id="clipPath154" clipPathUnits="userSpaceOnUse">
      <path style="clip-rule:evenodd" id="path156" d="m 50.52,257.52 494.28,0 0,286.44 -494.28,0 0,-286.44 z"/>
    </clipPath>
    <clipPath id="clipPath166" clipPathUnits="userSpaceOnUse">
      <path style="clip-rule:evenodd" id="path168" d="m 50.52,257.52 494.28,0 0,286.44 -494.28,0 0,-286.44 z"/>
    </clipPath>
    <clipPath id="clipPath178" clipPathUnits="userSpaceOnUse">
      <path style="clip-rule:evenodd" id="path180" d="m 50.52,257.52 494.28,0 0,286.44 -494.28,0 0,-286.44 z"/>
    </clipPath>
    <clipPath id="clipPath190" clipPathUnits="userSpaceOnUse">
      <path style="clip-rule:evenodd" id="path192" d="m 50.52,257.52 494.28,0 0,286.44 -494.28,0 0,-286.44 z"/>
    </clipPath>
    <clipPath id="clipPath202" clipPathUnits="userSpaceOnUse">
      <path style="clip-rule:evenodd" id="path204" d="m 50.52,257.52 494.28,0 0,286.44 -494.28,0 0,-286.44 z"/>
    </clipPath>
    <clipPath id="clipPath214" clipPathUnits="userSpaceOnUse">
      <path style="clip-rule:evenodd" id="path216" d="m 50.52,257.52 494.28,0 0,286.44 -494.28,0 0,-286.44 z"/>
    </clipPath>
    <clipPath id="clipPath226" clipPathUnits="userSpaceOnUse">
      <path style="clip-rule:evenodd" id="path228" d="m 50.52,257.52 494.28,0 0,286.44 -494.28,0 0,-286.44 z"/>
    </clipPath>
    <clipPath id="clipPath238" clipPathUnits="userSpaceOnUse">
      <path style="clip-rule:evenodd" id="path240" d="m 50.52,257.52 494.28,0 0,286.44 -494.28,0 0,-286.44 z"/>
    </clipPath>
    <clipPath id="clipPath250" clipPathUnits="userSpaceOnUse">
      <path style="clip-rule:evenodd" id="path252" d="m 50.52,257.52 494.28,0 0,286.44 -494.28,0 0,-286.44 z"/>
    </clipPath>
    <clipPath id="clipPath262" clipPathUnits="userSpaceOnUse">
      <path style="clip-rule:evenodd" id="path264" d="m 50.52,257.52 494.28,0 0,286.44 -494.28,0 0,-286.44 z"/>
    </clipPath>
    <clipPath id="clipPath274" clipPathUnits="userSpaceOnUse">
      <path style="clip-rule:evenodd" id="path276" d="m 50.52,257.52 494.28,0 0,286.44 -494.28,0 0,-286.44 z"/>
    </clipPath>
    <clipPath id="clipPath286" clipPathUnits="userSpaceOnUse">
      <path style="clip-rule:evenodd" id="path288" d="m 50.52,257.52 494.28,0 0,286.44 -494.28,0 0,-286.44 z"/>
    </clipPath>
    <clipPath id="clipPath298" clipPathUnits="userSpaceOnUse">
      <path style="clip-rule:evenodd" id="path300" d="m 50.52,257.52 494.28,0 0,286.44 -494.28,0 0,-286.44 z"/>
    </clipPath>
    <clipPath id="clipPath310" clipPathUnits="userSpaceOnUse">
      <path style="clip-rule:evenodd" id="path312" d="m 50.52,257.52 494.28,0 0,286.44 -494.28,0 0,-286.44 z"/>
    </clipPath>
  </defs>
  <g transform="matrix(1.25,0,0,-1.25,0,1052.4)" id="g10">
    <g id="g12">
      <g clip-path="url(#clipPath16)" id="g14">
        <path id="path20" style="fill:none;stroke:#000000;stroke-width:0.14;stroke-linecap:butt;stroke-linejoin:miter;stroke-miterlimit:10;stroke-dasharray:none;stroke-opacity:0" d="m 50.433,257.52 494.4,0 0,286.43 -494.4,0 0,-286.43 z"/>
      </g>
    </g>
    <path id="path22" style="fill:#ffffff;fill-opacity:1;fill-rule:evenodd;stroke:none" d="m 50.433,257.52 494.4,0 0,286.43 -494.4,0 0,-286.43 z"/>
    <g id="g24">
      <g clip-path="url(#clipPath28)" id="g26">
        <path id="path32" style="fill:none;stroke:#c0c0c0;stroke-width:0.65726;stroke-linecap:round;stroke-linejoin:round;stroke-miterlimit:10;stroke-dasharray:none;stroke-opacity:1" d="m 96.92,335.87 447.92,0 m -447.92,29.74 447.92,0 m -447.92,59.31 447.92,0 m -447.92,29.66 447.92,0 m -447.92,29.65 447.92,0 m -447.92,29.61 447.92,0"/>
      </g>
    </g>
    <path id="path34" style="fill:#005aa4;fill-opacity:1;fill-rule:nonzero;stroke:none" d="m 123.78,460.1 35.81,0 0,-64.83 -35.81,0 0,64.83 z m 89.6,-17.67 35.81,0 0,-47.16 -35.81,0 0,47.16 z m 89.6,62.78 35.8,0 0,-109.94 -35.8,0 0,109.94 z m 89.59,-0.63 35.81,0 0,-109.31 -35.81,0 0,109.31 z m 89.6,-157.58 35.81,0 0,48.27 -35.81,0 0,-48.27 z"/>
    <g id="g36">
      <g clip-path="url(#clipPath40)" id="g38">
        <path id="path44" style="fill:none;stroke:#808080;stroke-width:1.64310002;stroke-linecap:round;stroke-linejoin:round;stroke-miterlimit:10;stroke-dasharray:none;stroke-opacity:1" d="m 96.92,395.19 447.92,0"/>
      </g>
    </g>
    <g id="g46">
      <g clip-path="url(#clipPath50)" id="g48">
        <path id="path54" style="fill:none;stroke:#808080;stroke-width:1.64310002;stroke-linecap:round;stroke-linejoin:round;stroke-miterlimit:10;stroke-dasharray:none;stroke-opacity:1" d="m 96.92,335.87 0,-36.87 m 179.24,36.87 0,-36.87 m 268.68,36.87 0,-36.87"/>
      </g>
    </g>
    <g id="g56">
      <g clip-path="url(#clipPath60)" id="g58">
        <path id="path64" style="fill:none;stroke:#808080;stroke-width:1.64310002;stroke-linecap:round;stroke-linejoin:round;stroke-miterlimit:10;stroke-dasharray:none;stroke-opacity:1" d="m 96.92,299 0,-22.67 m 179.24,22.67 0,-22.67 m 268.68,22.67 0,-22.67"/>
      </g>
    </g>
    <g id="g66">
      <g clip-path="url(#clipPath70)" id="g68"><text id="text74" style="font-variant:normal;font-weight:normal;font-size:11.83199978px;font-family:'Roboto Condensed';-inkscape-font-specification:RobotoCondensed-Regular;writing-mode:lr-tb;fill:#000000;fill-opacity:1;fill-rule:nonzero;stroke:none" transform="matrix(1,0,0,-1,130.63,469.01)"><tspan id="tspan76" y="0" x="0 5.8450079 8.9923201 14.837328">4.4%</tspan></text>
</g>
    </g>
    <g id="g78">
      <g clip-path="url(#clipPath82)" id="g80"><text id="text86" style="font-variant:normal;font-weight:normal;font-size:11.83199978px;font-family:'Roboto Condensed';-inkscape-font-specification:RobotoCondensed-Regular;writing-mode:lr-tb;fill:#000000;fill-opacity:1;fill-rule:nonzero;stroke:none" transform="matrix(1,0,0,-1,220.22,451.22)"><tspan id="tspan88" y="0" x="0 5.8450079 9.0159836 14.860992">3.2%</tspan></text>
</g>
    </g>
    <g id="g90">
      <g clip-path="url(#clipPath94)" id="g92"><text id="text98" style="font-variant:normal;font-weight:normal;font-size:11.83199978px;font-family:'Roboto Condensed';-inkscape-font-specification:RobotoCondensed-Regular;writing-mode:lr-tb;fill:#000000;fill-opacity:1;fill-rule:nonzero;stroke:none" transform="matrix(1,0,0,-1,309.84,514.1)"><tspan id="tspan100" y="0" x="0 5.8450079 8.9568243 14.801832">7.4%</tspan></text>
</g>
    </g>
    <g id="g102">
      <g clip-path="url(#clipPath106)" id="g104"><text id="text110" style="font-variant:normal;font-weight:normal;font-size:11.83199978px;font-family:'Roboto Condensed';-inkscape-font-specification:RobotoCondensed-Regular;writing-mode:lr-tb;fill:#000000;fill-opacity:1;fill-rule:nonzero;stroke:none" transform="matrix(1,0,0,-1,399.43,513.5)"><tspan id="tspan112" y="0" x="0 5.8450079 8.9923201 14.837328">7.4%</tspan></text>
</g>
    </g>
    <g id="g114">
      <g clip-path="url(#clipPath118)" id="g116"><text id="text122" style="font-variant:normal;font-weight:normal;font-size:11.83199978px;font-family:'Roboto Condensed';-inkscape-font-specification:RobotoCondensed-Regular;writing-mode:lr-tb;fill:#000000;fill-opacity:1;fill-rule:nonzero;stroke:none" transform="matrix(1,0,0,-1,487.46,333.86)"><tspan id="tspan124" y="0" x="0">-</tspan></text>
</g>
    </g>
    <g id="g126">
      <g clip-path="url(#clipPath130)" id="g128"><text id="text134" style="font-variant:normal;font-weight:normal;font-size:11.83199978px;font-family:'Roboto Condensed';-inkscape-font-specification:RobotoCondensed-Regular;writing-mode:lr-tb;fill:#000000;fill-opacity:1;fill-rule:nonzero;stroke:none" transform="matrix(1,0,0,-1,490.46,333.86)"><tspan id="tspan136" y="0" x="0 5.8450079 8.9568243 14.801832">3.2%</tspan></text>
</g>
    </g>
    <g id="g138">
      <g clip-path="url(#clipPath142)" id="g140"><text id="text146" style="font-variant:normal;font-weight:normal;font-size:11.83199978px;font-family:'Roboto Condensed';-inkscape-font-specification:RobotoCondensed-Regular;writing-mode:lr-tb;fill:#000000;fill-opacity:1;fill-rule:nonzero;stroke:none" transform="matrix(1,0,0,-1,60.864,332.3)"><tspan id="tspan148" y="0" x="0 2.9934959 8.8385038 11.820168 17.665176">-4.0%</tspan></text>
</g>
    </g>
    <g id="g150">
      <g clip-path="url(#clipPath154)" id="g152"><text id="text158" style="font-variant:normal;font-weight:normal;font-size:11.83199978px;font-family:'Roboto Condensed';-inkscape-font-specification:RobotoCondensed-Regular;writing-mode:lr-tb;fill:#000000;fill-opacity:1;fill-rule:nonzero;stroke:none" transform="matrix(1,0,0,-1,60.864,361.97)"><tspan id="tspan160" y="0" x="0 2.9934959 8.8385038 11.820168 17.665176">-2.0%</tspan></text>
</g>
    </g>
    <g id="g162">
      <g clip-path="url(#clipPath166)" id="g164"><text id="text170" style="font-variant:normal;font-weight:normal;font-size:11.83199978px;font-family:'Roboto Condensed';-inkscape-font-specification:RobotoCondensed-Regular;writing-mode:lr-tb;fill:#000000;fill-opacity:1;fill-rule:nonzero;stroke:none" transform="matrix(1,0,0,-1,63.792,391.63)"><tspan id="tspan172" y="0" x="0 5.8450079 9.0159836 14.860992">0.0%</tspan></text>
</g>
    </g>
    <g id="g174">
      <g clip-path="url(#clipPath178)" id="g176"><text id="text182" style="font-variant:normal;font-weight:normal;font-size:11.83199978px;font-family:'Roboto Condensed';-inkscape-font-specification:RobotoCondensed-Regular;writing-mode:lr-tb;fill:#000000;fill-opacity:1;fill-rule:nonzero;stroke:none" transform="matrix(1,0,0,-1,63.792,421.3)"><tspan id="tspan184" y="0" x="0 5.8450079 9.0159836 14.860992">2.0%</tspan></text>
</g>
    </g>
    <g id="g186">
      <g clip-path="url(#clipPath190)" id="g188"><text id="text194" style="font-variant:normal;font-weight:normal;font-size:11.83199978px;font-family:'Roboto Condensed';-inkscape-font-specification:RobotoCondensed-Regular;writing-mode:lr-tb;fill:#000000;fill-opacity:1;fill-rule:nonzero;stroke:none" transform="matrix(1,0,0,-1,63.792,450.96)"><tspan id="tspan196" y="0" x="0 5.8450079 9.0159836 14.860992">4.0%</tspan></text>
</g>
    </g>
    <g id="g198">
      <g clip-path="url(#clipPath202)" id="g200"><text id="text206" style="font-variant:normal;font-weight:normal;font-size:11.83199978px;font-family:'Roboto Condensed';-inkscape-font-specification:RobotoCondensed-Regular;writing-mode:lr-tb;fill:#000000;fill-opacity:1;fill-rule:nonzero;stroke:none" transform="matrix(1,0,0,-1,63.792,480.62)"><tspan id="tspan208" y="0" x="0 5.8450079 9.0159836 14.860992">6.0%</tspan></text>
</g>
    </g>
    <g id="g210">
      <g clip-path="url(#clipPath214)" id="g212"><text id="text218" style="font-variant:normal;font-weight:normal;font-size:11.83199978px;font-family:'Roboto Condensed';-inkscape-font-specification:RobotoCondensed-Regular;writing-mode:lr-tb;fill:#000000;fill-opacity:1;fill-rule:nonzero;stroke:none" transform="matrix(1,0,0,-1,63.792,510.29)"><tspan id="tspan220" y="0" x="0 5.8450079 9.0159836 14.860992">8.0%</tspan></text>
</g>
    </g>
    <g id="g222">
      <g clip-path="url(#clipPath226)" id="g224"><text id="text230" style="font-variant:normal;font-weight:normal;font-size:11.83199978px;font-family:'Roboto Condensed';-inkscape-font-specification:RobotoCondensed-Regular;writing-mode:lr-tb;fill:#000000;fill-opacity:1;fill-rule:nonzero;stroke:none" transform="matrix(1,0,0,-1,130.61,317.11)"><tspan id="tspan232" y="0" x="0 9.0159836 15.464424">W&amp;A</tspan></text>
</g>
    </g>
    <g id="g234">
      <g clip-path="url(#clipPath238)" id="g236"><text id="text242" style="font-variant:normal;font-weight:normal;font-size:11.83199978px;font-family:'Roboto Condensed';-inkscape-font-specification:RobotoCondensed-Regular;writing-mode:lr-tb;fill:#000000;fill-opacity:1;fill-rule:nonzero;stroke:none" transform="matrix(1,0,0,-1,218.62,317.11)"><tspan id="tspan244" y="0" x="0 7.111032 10.554144 16.221672 21.877369">Other</tspan></text>
</g>
    </g>
    <g id="g246">
      <g clip-path="url(#clipPath250)" id="g248"><text id="text254" style="font-variant:normal;font-weight:normal;font-size:11.83199978px;font-family:'Roboto Condensed';-inkscape-font-specification:RobotoCondensed-Regular;writing-mode:lr-tb;fill:#000000;fill-opacity:1;fill-rule:nonzero;stroke:none" transform="matrix(1,0,0,-1,282.05,317.11)"><tspan id="tspan256" y="0" x="0 7.4068322 12.944208 18.611736 23.628504 28.503288 31.165487 34.158985 39.826511 45.659687 51.481033 56.829098 60.319534 63.916466 66.578667 72.246193">Heavy Industrial</tspan></text>
</g>
    </g>
    <g id="g258">
      <g clip-path="url(#clipPath262)" id="g260"><text id="text266" style="font-variant:normal;font-weight:normal;font-size:11.83199978px;font-family:'Roboto Condensed';-inkscape-font-specification:RobotoCondensed-Regular;writing-mode:lr-tb;fill:#000000;fill-opacity:1;fill-rule:nonzero;stroke:none" transform="matrix(1,0,0,-1,295.44,302.9)"><tspan id="tspan268" y="0" x="0 8.9923201 14.659848 20.031576 25.746431 28.538784 34.229977 39.767353 43.364281">Machinery</tspan></text>
</g>
    </g>
    <g id="g270">
      <g clip-path="url(#clipPath274)" id="g272"><text id="text278" style="font-variant:normal;font-weight:normal;font-size:11.83199978px;font-family:'Roboto Condensed';-inkscape-font-specification:RobotoCondensed-Regular;writing-mode:lr-tb;fill:#000000;fill-opacity:1;fill-rule:nonzero;stroke:none" transform="matrix(1,0,0,-1,384.58,317.11)"><tspan id="tspan280" y="0" x="0 5.8331761 8.5427036 14.1984 19.570127 23.060568 26.657495 32.668152 38.359344 41.068871 46.535255">Electronics</tspan></text>
</g>
    </g>
    <g id="g282">
      <g clip-path="url(#clipPath286)" id="g284"><text id="text290" style="font-variant:normal;font-weight:normal;font-size:11.83199978px;font-family:'Roboto Condensed';-inkscape-font-specification:RobotoCondensed-Regular;writing-mode:lr-tb;fill:#000000;fill-opacity:1;fill-rule:nonzero;stroke:none" transform="matrix(1,0,0,-1,487.42,317.11)"><tspan id="tspan292" y="0" x="0 7.111032 10.554144 16.221672 21.877369">Other</tspan></text>
</g>
    </g>
    <g id="g294">
      <g clip-path="url(#clipPath298)" id="g296"><text id="text302" style="font-variant:normal;font-weight:normal;font-size:11.83199978px;font-family:'Roboto Condensed';-inkscape-font-specification:RobotoCondensed-Regular;writing-mode:lr-tb;fill:#000000;fill-opacity:1;fill-rule:nonzero;stroke:none" transform="matrix(1,0,0,-1,129.14,280.22)"><tspan id="tspan304" y="0" x="0 6.756072 12.4236 16.020529 19.499136 25.154833 30.822359 34.312801 36.939503 42.003601 47.327999 50.144016 55.989025 61.83403 64.638214 73.606873 79.440048 85.261391 88.751831 94.383865 97.046066 102.71359 108.54677">Current vs 12-month ago</tspan></text>
</g>
    </g>
    <g id="g306">
      <g clip-path="url(#clipPath310)" id="g308"><text id="text314" style="font-variant:normal;font-weight:normal;font-size:11.83199978px;font-family:'Roboto Condensed';-inkscape-font-specification:RobotoCondensed-Regular;writing-mode:lr-tb;fill:#000000;fill-opacity:1;fill-rule:nonzero;stroke:none" transform="matrix(1,0,0,-1,348.31,280.22)"><tspan id="tspan316" y="0" x="0 6.779736 12.494592 16.09152 19.570127 25.249489 30.94068 34.431122 37.140648 42.204742 47.552807 50.368824 53.078354 58.74588 61.455406 67.300415 69.950783 76.245407 81.782784 87.45031 91.047241 96.442635 98.501404 101.21093 107.3754 110.08493 119.05358">Current vs in 2 Years' Time</tspan></text>
</g>
    </g>
  </g>
</svg>
