<?xml version="1.0" encoding="UTF-8" standalone="no"?>
<svg xmlns:dc="http://purl.org/dc/elements/1.1/" xmlns:cc="http://creativecommons.org/ns#" xmlns:rdf="http://www.w3.org/1999/02/22-rdf-syntax-ns#" xmlns:svg="http://www.w3.org/2000/svg" xmlns="http://www.w3.org/2000/svg" viewBox="63 345.9 639 298.2" height="298.2" width="639" xml:space="preserve" version="1.1" id="svg2">
  <metadata id="metadata8">
    <rdf:RDF>
      <cc:Work rdf:about="">
        <dc:format>image/svg+xml</dc:format>
        <dc:type rdf:resource="http://purl.org/dc/dcmitype/StillImage"/>
      </cc:Work>
    </rdf:RDF>
  </metadata>
  <defs id="defs6">
    <clipPath id="clipPath16" clipPathUnits="userSpaceOnUse">
      <path style="clip-rule:evenodd" id="path18" d="m 50.4,276.72 511.2,0 0,238.56 -511.2,0 0,-238.56 z"/>
    </clipPath>
    <clipPath id="clipPath26" clipPathUnits="userSpaceOnUse">
      <path style="clip-rule:evenodd" id="path28" d="m 50.4,276.72 511.2,0 0,238.56 -511.2,0 0,-238.56 z"/>
    </clipPath>
    <clipPath id="clipPath40" clipPathUnits="userSpaceOnUse">
      <path style="clip-rule:evenodd" id="path42" d="m 99.799,315.13 409.69,0 0,169.74 -409.69,0 0,-169.74 z"/>
    </clipPath>
    <clipPath id="clipPath50" clipPathUnits="userSpaceOnUse">
      <path style="clip-rule:evenodd" id="path52" d="m 50.52,276.72 511.08,0 0,238.56 -511.08,0 0,-238.56 z"/>
    </clipPath>
    <clipPath id="clipPath62" clipPathUnits="userSpaceOnUse">
      <path style="clip-rule:evenodd" id="path64" d="m 50.52,276.72 511.08,0 0,238.56 -511.08,0 0,-238.56 z"/>
    </clipPath>
    <clipPath id="clipPath74" clipPathUnits="userSpaceOnUse">
      <path style="clip-rule:evenodd" id="path76" d="m 50.52,276.72 511.08,0 0,238.56 -511.08,0 0,-238.56 z"/>
    </clipPath>
    <clipPath id="clipPath86" clipPathUnits="userSpaceOnUse">
      <path style="clip-rule:evenodd" id="path88" d="m 50.52,276.72 511.08,0 0,238.56 -511.08,0 0,-238.56 z"/>
    </clipPath>
    <clipPath id="clipPath98" clipPathUnits="userSpaceOnUse">
      <path style="clip-rule:evenodd" id="path100" d="m 50.52,276.72 511.08,0 0,238.56 -511.08,0 0,-238.56 z"/>
    </clipPath>
    <clipPath id="clipPath110" clipPathUnits="userSpaceOnUse">
      <path style="clip-rule:evenodd" id="path112" d="m 50.52,276.72 511.08,0 0,238.56 -511.08,0 0,-238.56 z"/>
    </clipPath>
    <clipPath id="clipPath122" clipPathUnits="userSpaceOnUse">
      <path style="clip-rule:evenodd" id="path124" d="m 50.52,276.72 511.08,0 0,238.56 -511.08,0 0,-238.56 z"/>
    </clipPath>
    <clipPath id="clipPath134" clipPathUnits="userSpaceOnUse">
      <path style="clip-rule:evenodd" id="path136" d="m 50.52,276.72 511.08,0 0,238.56 -511.08,0 0,-238.56 z"/>
    </clipPath>
    <clipPath id="clipPath146" clipPathUnits="userSpaceOnUse">
      <path style="clip-rule:evenodd" id="path148" d="m 50.52,276.72 511.08,0 0,238.56 -511.08,0 0,-238.56 z"/>
    </clipPath>
    <clipPath id="clipPath158" clipPathUnits="userSpaceOnUse">
      <path style="clip-rule:evenodd" id="path160" d="m 50.52,276.72 511.08,0 0,238.56 -511.08,0 0,-238.56 z"/>
    </clipPath>
    <clipPath id="clipPath170" clipPathUnits="userSpaceOnUse">
      <path style="clip-rule:evenodd" id="path172" d="m 50.52,276.72 511.08,0 0,238.56 -511.08,0 0,-238.56 z"/>
    </clipPath>
    <clipPath id="clipPath182" clipPathUnits="userSpaceOnUse">
      <path style="clip-rule:evenodd" id="path184" d="m 50.52,276.72 511.08,0 0,238.56 -511.08,0 0,-238.56 z"/>
    </clipPath>
    <clipPath id="clipPath194" clipPathUnits="userSpaceOnUse">
      <path style="clip-rule:evenodd" id="path196" d="m 50.52,276.72 511.08,0 0,238.56 -511.08,0 0,-238.56 z"/>
    </clipPath>
    <clipPath id="clipPath206" clipPathUnits="userSpaceOnUse">
      <path style="clip-rule:evenodd" id="path208" d="m 50.52,276.72 511.08,0 0,238.56 -511.08,0 0,-238.56 z"/>
    </clipPath>
    <clipPath id="clipPath218" clipPathUnits="userSpaceOnUse">
      <path style="clip-rule:evenodd" id="path220" d="m 50.52,276.72 511.08,0 0,238.56 -511.08,0 0,-238.56 z"/>
    </clipPath>
    <clipPath id="clipPath230" clipPathUnits="userSpaceOnUse">
      <path style="clip-rule:evenodd" id="path232" d="m 50.52,276.72 511.08,0 0,238.56 -511.08,0 0,-238.56 z"/>
    </clipPath>
    <clipPath id="clipPath242" clipPathUnits="userSpaceOnUse">
      <path style="clip-rule:evenodd" id="path244" d="m 50.52,276.72 511.08,0 0,238.56 -511.08,0 0,-238.56 z"/>
    </clipPath>
    <clipPath id="clipPath254" clipPathUnits="userSpaceOnUse">
      <path style="clip-rule:evenodd" id="path256" d="m 50.52,276.72 511.08,0 0,238.56 -511.08,0 0,-238.56 z"/>
    </clipPath>
    <clipPath id="clipPath266" clipPathUnits="userSpaceOnUse">
      <path style="clip-rule:evenodd" id="path268" d="m 50.52,276.72 511.08,0 0,238.56 -511.08,0 0,-238.56 z"/>
    </clipPath>
    <clipPath id="clipPath278" clipPathUnits="userSpaceOnUse">
      <path style="clip-rule:evenodd" id="path280" d="m 50.52,276.72 511.08,0 0,238.56 -511.08,0 0,-238.56 z"/>
    </clipPath>
    <clipPath id="clipPath290" clipPathUnits="userSpaceOnUse">
      <path style="clip-rule:evenodd" id="path292" d="m 50.52,276.72 511.08,0 0,238.56 -511.08,0 0,-238.56 z"/>
    </clipPath>
    <clipPath id="clipPath302" clipPathUnits="userSpaceOnUse">
      <path style="clip-rule:evenodd" id="path304" d="m 50.52,276.72 511.08,0 0,238.56 -511.08,0 0,-238.56 z"/>
    </clipPath>
    <clipPath id="clipPath314" clipPathUnits="userSpaceOnUse">
      <path style="clip-rule:evenodd" id="path316" d="m 50.52,276.72 511.08,0 0,238.56 -511.08,0 0,-238.56 z"/>
    </clipPath>
    <clipPath id="clipPath326" clipPathUnits="userSpaceOnUse">
      <path style="clip-rule:evenodd" id="path328" d="m 50.52,276.72 511.08,0 0,238.56 -511.08,0 0,-238.56 z"/>
    </clipPath>
    <clipPath id="clipPath338" clipPathUnits="userSpaceOnUse">
      <path style="clip-rule:evenodd" id="path340" d="m 50.52,276.72 511.08,0 0,238.56 -511.08,0 0,-238.56 z"/>
    </clipPath>
    <clipPath id="clipPath350" clipPathUnits="userSpaceOnUse">
      <path style="clip-rule:evenodd" id="path352" d="m 50.52,276.72 511.08,0 0,238.56 -511.08,0 0,-238.56 z"/>
    </clipPath>
    <clipPath id="clipPath362" clipPathUnits="userSpaceOnUse">
      <path style="clip-rule:evenodd" id="path364" d="m 50.52,276.72 511.08,0 0,238.56 -511.08,0 0,-238.56 z"/>
    </clipPath>
    <clipPath id="clipPath374" clipPathUnits="userSpaceOnUse">
      <path style="clip-rule:evenodd" id="path376" d="m 50.52,276.72 511.08,0 0,238.56 -511.08,0 0,-238.56 z"/>
    </clipPath>
    <clipPath id="clipPath386" clipPathUnits="userSpaceOnUse">
      <path style="clip-rule:evenodd" id="path388" d="m 50.52,276.72 511.08,0 0,238.56 -511.08,0 0,-238.56 z"/>
    </clipPath>
    <clipPath id="clipPath398" clipPathUnits="userSpaceOnUse">
      <path style="clip-rule:evenodd" id="path400" d="m 50.52,276.72 511.08,0 0,238.56 -511.08,0 0,-238.56 z"/>
    </clipPath>
    <clipPath id="clipPath410" clipPathUnits="userSpaceOnUse">
      <path style="clip-rule:evenodd" id="path412" d="m 50.52,276.72 511.08,0 0,238.56 -511.08,0 0,-238.56 z"/>
    </clipPath>
    <clipPath id="clipPath422" clipPathUnits="userSpaceOnUse">
      <path style="clip-rule:evenodd" id="path424" d="m 50.52,276.72 511.08,0 0,238.56 -511.08,0 0,-238.56 z"/>
    </clipPath>
    <clipPath id="clipPath434" clipPathUnits="userSpaceOnUse">
      <path style="clip-rule:evenodd" id="path436" d="m 50.52,276.72 511.08,0 0,238.56 -511.08,0 0,-238.56 z"/>
    </clipPath>
    <clipPath id="clipPath446" clipPathUnits="userSpaceOnUse">
      <path style="clip-rule:evenodd" id="path448" d="m 50.52,276.72 511.08,0 0,238.56 -511.08,0 0,-238.56 z"/>
    </clipPath>
    <clipPath id="clipPath458" clipPathUnits="userSpaceOnUse">
      <path style="clip-rule:evenodd" id="path460" d="m 50.52,276.72 511.08,0 0,238.56 -511.08,0 0,-238.56 z"/>
    </clipPath>
    <clipPath id="clipPath470" clipPathUnits="userSpaceOnUse">
      <path style="clip-rule:evenodd" id="path472" d="m 50.52,276.72 511.08,0 0,238.56 -511.08,0 0,-238.56 z"/>
    </clipPath>
    <clipPath id="clipPath482" clipPathUnits="userSpaceOnUse">
      <path style="clip-rule:evenodd" id="path484" d="m 50.52,276.72 511.08,0 0,238.56 -511.08,0 0,-238.56 z"/>
    </clipPath>
    <clipPath id="clipPath494" clipPathUnits="userSpaceOnUse">
      <path style="clip-rule:evenodd" id="path496" d="m 50.52,276.72 511.08,0 0,238.56 -511.08,0 0,-238.56 z"/>
    </clipPath>
    <clipPath id="clipPath506" clipPathUnits="userSpaceOnUse">
      <path style="clip-rule:evenodd" id="path508" d="m 50.52,276.72 511.08,0 0,238.56 -511.08,0 0,-238.56 z"/>
    </clipPath>
  </defs>
  <g transform="matrix(1.25,0,0,-1.25,0,990)" id="g10">
    <g id="g12">
      <g clip-path="url(#clipPath16)" id="g14">
        <path id="path20" style="fill:none;stroke:#000000;stroke-width:0.14;stroke-linecap:butt;stroke-linejoin:miter;stroke-miterlimit:10;stroke-dasharray:none;stroke-opacity:0" d="m 50.437,276.7 511.2,0 0,238.57 -511.2,0 0,-238.57 z"/>
      </g>
    </g>
    <g id="g22">
      <g clip-path="url(#clipPath26)" id="g24">
        <path id="path30" style="fill:#ffffff;fill-opacity:1;fill-rule:evenodd;stroke:none" d="m 50.437,276.7 511.2,0 0,238.57 -511.2,0 0,-238.57 z"/>
      </g>
    </g>
    <path id="path32" style="fill:#137cb1;fill-opacity:1;fill-rule:nonzero;stroke:none" d="m 217.29,315.79 15.1,0 0,-0.1 -15.1,0 0,0.1 z m 22.65,0.14 15.2,0 0,-0.24 -15.2,0 0,0.24 z m 22.74,0.1 15.2,0 0,-0.34 -15.2,0 0,0.34 z m 22.75,0.69 15.19,0 0,-1.03 -15.19,0 0,1.03 z m 22.74,0.7 15.2,0 0,-1.73 -15.2,0 0,1.73 z m 22.75,1.69 15.09,0 0,-3.42 -15.09,0 0,3.42 z m 22.74,3.57 15.1,0 0,-6.99 -15.1,0 0,6.99 z m 22.75,7.05 15.09,0 0,-14.04 -15.09,0 0,14.04 z m 22.64,12.22 15.2,0 0,-26.26 -15.2,0 0,26.26 z m 22.74,16.39 15.2,0 0,-42.65 -15.2,0 0,42.65 z m 22.75,24.23 15.19,0 0,-66.88 -15.19,0 0,66.88 z m 22.74,27.12 15.2,0 0,-94 -15.2,0 0,94 z m 22.75,32.97 15.09,0 0,-126.97 -15.09,0 0,126.97 z"/>
    <path id="path34" style="fill:none;stroke:#000000;stroke-width:0.62075001;stroke-linecap:butt;stroke-linejoin:round;stroke-miterlimit:10;stroke-dasharray:none;stroke-opacity:1" d="m 99.809,315.69 409.141,0"/>
    <g id="g36">
      <g clip-path="url(#clipPath40)" id="g38">
        <path id="path44" style="fill:none;stroke:#eacc80;stroke-width:2.48300004;stroke-linecap:round;stroke-linejoin:round;stroke-miterlimit:10;stroke-dasharray:none;stroke-opacity:1" d="m 111.17,315.69 22.7,0 22.74,0 22.74,0 22.75,0 22.74,0.14 22.75,0.2 22.74,0.1 22.65,0.79 22.74,0.79 22.75,1.99 22.74,4.27 22.74,8.05 22.75,14.1 22.74,18.67 22.65,27.61 22.74,30.49 22.76,36.95"/>
      </g>
    </g>
    <g id="g46">
      <g clip-path="url(#clipPath50)" id="g48"><text id="text54" style="font-variant:normal;font-weight:normal;font-size:9.93599987px;font-family:Arial;-inkscape-font-specification:Arial;writing-mode:lr-tb;fill:#000000;fill-opacity:1;fill-rule:nonzero;stroke:none" transform="matrix(1,0,0,-1,517.61,312.43)"><tspan id="tspan56" y="0" x="0 5.5440159">0%</tspan></text>
</g>
    </g>
    <g id="g58">
      <g clip-path="url(#clipPath62)" id="g60"><text id="text66" style="font-variant:normal;font-weight:normal;font-size:9.93599987px;font-family:Arial;-inkscape-font-specification:Arial;writing-mode:lr-tb;fill:#000000;fill-opacity:1;fill-rule:nonzero;stroke:none" transform="matrix(1,0,0,-1,517.61,340.61)"><tspan id="tspan68" y="0" x="0 5.5440159">2%</tspan></text>
</g>
    </g>
    <g id="g70">
      <g clip-path="url(#clipPath74)" id="g72"><text id="text78" style="font-variant:normal;font-weight:normal;font-size:9.93599987px;font-family:Arial;-inkscape-font-specification:Arial;writing-mode:lr-tb;fill:#000000;fill-opacity:1;fill-rule:nonzero;stroke:none" transform="matrix(1,0,0,-1,517.61,368.81)"><tspan id="tspan80" y="0" x="0 5.5440159">4%</tspan></text>
</g>
    </g>
    <g id="g82">
      <g clip-path="url(#clipPath86)" id="g84"><text id="text90" style="font-variant:normal;font-weight:normal;font-size:9.93599987px;font-family:Arial;-inkscape-font-specification:Arial;writing-mode:lr-tb;fill:#000000;fill-opacity:1;fill-rule:nonzero;stroke:none" transform="matrix(1,0,0,-1,517.61,396.98)"><tspan id="tspan92" y="0" x="0 5.5440159">6%</tspan></text>
</g>
    </g>
    <g id="g94">
      <g clip-path="url(#clipPath98)" id="g96"><text id="text102" style="font-variant:normal;font-weight:normal;font-size:9.93599987px;font-family:Arial;-inkscape-font-specification:Arial;writing-mode:lr-tb;fill:#000000;fill-opacity:1;fill-rule:nonzero;stroke:none" transform="matrix(1,0,0,-1,517.61,425.18)"><tspan id="tspan104" y="0" x="0 5.5440159">8%</tspan></text>
</g>
    </g>
    <g id="g106">
      <g clip-path="url(#clipPath110)" id="g108"><text id="text114" style="font-variant:normal;font-weight:normal;font-size:9.93599987px;font-family:Arial;-inkscape-font-specification:Arial;writing-mode:lr-tb;fill:#000000;fill-opacity:1;fill-rule:nonzero;stroke:none" transform="matrix(1,0,0,-1,517.61,453.36)"><tspan id="tspan116" y="0" x="0 5.524416 10.989216">10%</tspan></text>
</g>
    </g>
    <g id="g118">
      <g clip-path="url(#clipPath122)" id="g120"><text id="text126" style="font-variant:normal;font-weight:normal;font-size:9.93599987px;font-family:Arial;-inkscape-font-specification:Arial;writing-mode:lr-tb;fill:#000000;fill-opacity:1;fill-rule:nonzero;stroke:none" transform="matrix(1,0,0,-1,517.61,481.56)"><tspan id="tspan128" y="0" x="0 5.524416 10.989216">12%</tspan></text>
</g>
    </g>
    <g id="g130">
      <g clip-path="url(#clipPath134)" id="g132"><text id="text138" style="font-variant:normal;font-weight:normal;font-size:9.93599987px;font-family:Arial;-inkscape-font-specification:Arial;writing-mode:lr-tb;fill:#000000;fill-opacity:1;fill-rule:nonzero;stroke:none" transform="matrix(1,0,0,-1,85.224008,312.43)"><tspan id="tspan140" y="0" x="0">-</tspan></text>
</g>
    </g>
    <g id="g142">
      <g clip-path="url(#clipPath146)" id="g144"><text id="text150" style="font-variant:normal;font-weight:normal;font-size:9.9119997px;font-family:Arial;-inkscape-font-specification:Arial;writing-mode:lr-tb;fill:#000000;fill-opacity:1;fill-rule:nonzero;stroke:none" transform="matrix(1,0,0,-1,83.016036,329.33)"><tspan id="tspan152" y="0" x="0">2</tspan></text>
</g>
    </g>
    <g id="g154">
      <g clip-path="url(#clipPath158)" id="g156"><text id="text162" style="font-variant:normal;font-weight:normal;font-size:9.93599987px;font-family:Arial;-inkscape-font-specification:Arial;writing-mode:lr-tb;fill:#000000;fill-opacity:1;fill-rule:nonzero;stroke:none" transform="matrix(1,0,0,-1,83.016008,346.25)"><tspan id="tspan164" y="0" x="0">4</tspan></text>
</g>
    </g>
    <g id="g166">
      <g clip-path="url(#clipPath170)" id="g168"><text id="text174" style="font-variant:normal;font-weight:normal;font-size:9.93599987px;font-family:Arial;-inkscape-font-specification:Arial;writing-mode:lr-tb;fill:#000000;fill-opacity:1;fill-rule:nonzero;stroke:none" transform="matrix(1,0,0,-1,83.016008,363.17)"><tspan id="tspan176" y="0" x="0">6</tspan></text>
</g>
    </g>
    <g id="g178">
      <g clip-path="url(#clipPath182)" id="g180"><text id="text186" style="font-variant:normal;font-weight:normal;font-size:9.93599987px;font-family:Arial;-inkscape-font-specification:Arial;writing-mode:lr-tb;fill:#000000;fill-opacity:1;fill-rule:nonzero;stroke:none" transform="matrix(1,0,0,-1,83.016008,380.09)"><tspan id="tspan188" y="0" x="0">8</tspan></text>
</g>
    </g>
    <g id="g190">
      <g clip-path="url(#clipPath194)" id="g192"><text id="text198" style="font-variant:normal;font-weight:normal;font-size:9.93599987px;font-family:Arial;-inkscape-font-specification:Arial;writing-mode:lr-tb;fill:#000000;fill-opacity:1;fill-rule:nonzero;stroke:none" transform="matrix(1,0,0,-1,77.474208,396.98)"><tspan id="tspan200" y="0" x="0 5.4747362">10</tspan></text>
</g>
    </g>
    <g id="g202">
      <g clip-path="url(#clipPath206)" id="g204"><text id="text210" style="font-variant:normal;font-weight:normal;font-size:9.93599987px;font-family:Arial;-inkscape-font-specification:Arial;writing-mode:lr-tb;fill:#000000;fill-opacity:1;fill-rule:nonzero;stroke:none" transform="matrix(1,0,0,-1,77.474208,413.9)"><tspan id="tspan212" y="0" x="0 5.4747362">12</tspan></text>
</g>
    </g>
    <g id="g214">
      <g clip-path="url(#clipPath218)" id="g216"><text id="text222" style="font-variant:normal;font-weight:normal;font-size:9.93599987px;font-family:Arial;-inkscape-font-specification:Arial;writing-mode:lr-tb;fill:#000000;fill-opacity:1;fill-rule:nonzero;stroke:none" transform="matrix(1,0,0,-1,77.474208,430.82)"><tspan id="tspan224" y="0" x="0 5.4747362">14</tspan></text>
</g>
    </g>
    <g id="g226">
      <g clip-path="url(#clipPath230)" id="g228"><text id="text234" style="font-variant:normal;font-weight:normal;font-size:9.9119997px;font-family:Arial;-inkscape-font-specification:Arial;writing-mode:lr-tb;fill:#000000;fill-opacity:1;fill-rule:nonzero;stroke:none" transform="matrix(1,0,0,-1,77.467536,447.72)"><tspan id="tspan236" y="0" x="0 5.4813361">16</tspan></text>
</g>
    </g>
    <g id="g238">
      <g clip-path="url(#clipPath242)" id="g240"><text id="text246" style="font-variant:normal;font-weight:normal;font-size:9.93599987px;font-family:Arial;-inkscape-font-specification:Arial;writing-mode:lr-tb;fill:#000000;fill-opacity:1;fill-rule:nonzero;stroke:none" transform="matrix(1,0,0,-1,77.474208,464.64)"><tspan id="tspan248" y="0" x="0 5.4747362">18</tspan></text>
</g>
    </g>
    <g id="g250">
      <g clip-path="url(#clipPath254)" id="g252"><text id="text258" style="font-variant:normal;font-weight:normal;font-size:9.93599987px;font-family:Arial;-inkscape-font-specification:Arial;writing-mode:lr-tb;fill:#000000;fill-opacity:1;fill-rule:nonzero;stroke:none" transform="matrix(1,0,0,-1,77.474208,481.56)"><tspan id="tspan260" y="0" x="0 5.4747362">20</tspan></text>
</g>
    </g>
    <g id="g262">
      <g clip-path="url(#clipPath266)" id="g264"><text id="text270" style="font-variant:normal;font-weight:normal;font-size:9.9119997px;font-family:Arial;-inkscape-font-specification:Arial;writing-mode:lr-tb;fill:#000000;fill-opacity:1;fill-rule:nonzero;stroke:none" transform="matrix(-4.4e-8,1,1,4.4e-8,114.7,287.52)"><tspan id="tspan272" y="0" x="0 5.5606322 11.032056 16.592688">2023</tspan></text>
</g>
    </g>
    <g id="g274">
      <g clip-path="url(#clipPath278)" id="g276"><text id="text282" style="font-variant:normal;font-weight:normal;font-size:9.93599987px;font-family:Arial;-inkscape-font-specification:Arial;writing-mode:lr-tb;fill:#000000;fill-opacity:1;fill-rule:nonzero;stroke:none" transform="matrix(-4.4e-8,1,1,4.4e-8,137.42,287.52)"><tspan id="tspan284" y="0" x="0 5.554224 11.02896 16.583183">2024</tspan></text>
</g>
    </g>
    <g id="g286">
      <g clip-path="url(#clipPath290)" id="g288"><text id="text294" style="font-variant:normal;font-weight:normal;font-size:9.93599987px;font-family:Arial;-inkscape-font-specification:Arial;writing-mode:lr-tb;fill:#000000;fill-opacity:1;fill-rule:nonzero;stroke:none" transform="matrix(-4.4e-8,1,1,4.4e-8,160.15,282)"><tspan id="tspan296" y="0" x="0 5.554224 11.02896 16.583183 22.137407">2025e</tspan></text>
</g>
    </g>
    <g id="g298">
      <g clip-path="url(#clipPath302)" id="g300"><text id="text306" style="font-variant:normal;font-weight:normal;font-size:9.93599987px;font-family:Arial;-inkscape-font-specification:Arial;writing-mode:lr-tb;fill:#000000;fill-opacity:1;fill-rule:nonzero;stroke:none" transform="matrix(-4.4e-8,1,1,4.4e-8,182.88,282)"><tspan id="tspan308" y="0" x="0 5.554224 11.02896 16.583183 22.137407">2026e</tspan></text>
</g>
    </g>
    <g id="g310">
      <g clip-path="url(#clipPath314)" id="g312"><text id="text318" style="font-variant:normal;font-weight:normal;font-size:9.93599987px;font-family:Arial;-inkscape-font-specification:Arial;writing-mode:lr-tb;fill:#000000;fill-opacity:1;fill-rule:nonzero;stroke:none" transform="matrix(-4.4e-8,1,1,4.4e-8,205.63,282)"><tspan id="tspan320" y="0" x="0 5.554224 11.02896 16.583183 22.137407">2027e</tspan></text>
</g>
    </g>
    <g id="g322">
      <g clip-path="url(#clipPath326)" id="g324"><text id="text330" style="font-variant:normal;font-weight:normal;font-size:9.93599987px;font-family:Arial;-inkscape-font-specification:Arial;writing-mode:lr-tb;fill:#000000;fill-opacity:1;fill-rule:nonzero;stroke:none" transform="matrix(-4.4e-8,1,1,4.4e-8,228.36,282)"><tspan id="tspan332" y="0" x="0 5.554224 11.02896 16.583183 22.137407">2028e</tspan></text>
</g>
    </g>
    <g id="g334">
      <g clip-path="url(#clipPath338)" id="g336"><text id="text342" style="font-variant:normal;font-weight:normal;font-size:9.93599987px;font-family:Arial;-inkscape-font-specification:Arial;writing-mode:lr-tb;fill:#000000;fill-opacity:1;fill-rule:nonzero;stroke:none" transform="matrix(-4.4e-8,1,1,4.4e-8,251.09,282)"><tspan id="tspan344" y="0" x="0 5.554224 11.02896 16.583183 22.137407">2029e</tspan></text>
</g>
    </g>
    <g id="g346">
      <g clip-path="url(#clipPath350)" id="g348"><text id="text354" style="font-variant:normal;font-weight:normal;font-size:9.93599987px;font-family:Arial;-inkscape-font-specification:Arial;writing-mode:lr-tb;fill:#000000;fill-opacity:1;fill-rule:nonzero;stroke:none" transform="matrix(-4.4e-8,1,1,4.4e-8,273.82,282)"><tspan id="tspan356" y="0" x="0 5.554224 11.02896 16.583183 22.137407">2030e</tspan></text>
</g>
    </g>
    <g id="g358">
      <g clip-path="url(#clipPath362)" id="g360"><text id="text366" style="font-variant:normal;font-weight:normal;font-size:9.93599987px;font-family:Arial;-inkscape-font-specification:Arial;writing-mode:lr-tb;fill:#000000;fill-opacity:1;fill-rule:nonzero;stroke:none" transform="matrix(-4.4e-8,1,1,4.4e-8,296.57,282)"><tspan id="tspan368" y="0" x="0 5.554224 11.02896 16.583183 22.137407">2032e</tspan></text>
</g>
    </g>
    <g id="g370">
      <g clip-path="url(#clipPath374)" id="g372"><text id="text378" style="font-variant:normal;font-weight:normal;font-size:9.93599987px;font-family:Arial;-inkscape-font-specification:Arial;writing-mode:lr-tb;fill:#000000;fill-opacity:1;fill-rule:nonzero;stroke:none" transform="matrix(-4.4e-8,1,1,4.4e-8,319.3,282)"><tspan id="tspan380" y="0" x="0 5.554224 11.02896 16.583183 22.137407">2034e</tspan></text>
</g>
    </g>
    <g id="g382">
      <g clip-path="url(#clipPath386)" id="g384"><text id="text390" style="font-variant:normal;font-weight:normal;font-size:9.93599987px;font-family:Arial;-inkscape-font-specification:Arial;writing-mode:lr-tb;fill:#000000;fill-opacity:1;fill-rule:nonzero;stroke:none" transform="matrix(-4.4e-8,1,1,4.4e-8,342.02,282)"><tspan id="tspan392" y="0" x="0 5.554224 11.02896 16.583183 22.137407">2036e</tspan></text>
</g>
    </g>
    <g id="g394">
      <g clip-path="url(#clipPath398)" id="g396"><text id="text402" style="font-variant:normal;font-weight:normal;font-size:9.9119997px;font-family:Arial;-inkscape-font-specification:Arial;writing-mode:lr-tb;fill:#000000;fill-opacity:1;fill-rule:nonzero;stroke:none" transform="matrix(-4.4e-8,1,1,4.4e-8,364.78,282)"><tspan id="tspan404" y="0" x="0 5.5606322 11.032056 16.592688 22.15332">2038e</tspan></text>
</g>
    </g>
    <g id="g406">
      <g clip-path="url(#clipPath410)" id="g408"><text id="text414" style="font-variant:normal;font-weight:normal;font-size:9.93599987px;font-family:Arial;-inkscape-font-specification:Arial;writing-mode:lr-tb;fill:#000000;fill-opacity:1;fill-rule:nonzero;stroke:none" transform="matrix(-4.4e-8,1,1,4.4e-8,387.5,282)"><tspan id="tspan416" y="0" x="0 5.554224 11.02896 16.583183 22.137407">2040e</tspan></text>
</g>
    </g>
    <g id="g418">
      <g clip-path="url(#clipPath422)" id="g420"><text id="text426" style="font-variant:normal;font-weight:normal;font-size:9.93599987px;font-family:Arial;-inkscape-font-specification:Arial;writing-mode:lr-tb;fill:#000000;fill-opacity:1;fill-rule:nonzero;stroke:none" transform="matrix(-4.4e-8,1,1,4.4e-8,410.23,282)"><tspan id="tspan428" y="0" x="0 5.554224 11.02896 16.583183 22.137407">2042e</tspan></text>
</g>
    </g>
    <g id="g430">
      <g clip-path="url(#clipPath434)" id="g432"><text id="text438" style="font-variant:normal;font-weight:normal;font-size:9.93599987px;font-family:Arial;-inkscape-font-specification:Arial;writing-mode:lr-tb;fill:#000000;fill-opacity:1;fill-rule:nonzero;stroke:none" transform="matrix(-4.4e-8,1,1,4.4e-8,432.96,282)"><tspan id="tspan440" y="0" x="0 5.554224 11.02896 16.583183 22.137407">2044e</tspan></text>
</g>
    </g>
    <g id="g442">
      <g clip-path="url(#clipPath446)" id="g444"><text id="text450" style="font-variant:normal;font-weight:normal;font-size:9.93599987px;font-family:Arial;-inkscape-font-specification:Arial;writing-mode:lr-tb;fill:#000000;fill-opacity:1;fill-rule:nonzero;stroke:none" transform="matrix(-4.4e-8,1,1,4.4e-8,455.71,282)"><tspan id="tspan452" y="0" x="0 5.554224 11.02896 16.583183 22.137407">2046e</tspan></text>
</g>
    </g>
    <g id="g454">
      <g clip-path="url(#clipPath458)" id="g456"><text id="text462" style="font-variant:normal;font-weight:normal;font-size:9.93599987px;font-family:Arial;-inkscape-font-specification:Arial;writing-mode:lr-tb;fill:#000000;fill-opacity:1;fill-rule:nonzero;stroke:none" transform="matrix(-4.4e-8,1,1,4.4e-8,478.44,282)"><tspan id="tspan464" y="0" x="0 5.554224 11.02896 16.583183 22.137407">2048e</tspan></text>
</g>
    </g>
    <g id="g466">
      <g clip-path="url(#clipPath470)" id="g468"><text id="text474" style="font-variant:normal;font-weight:normal;font-size:9.93599987px;font-family:Arial;-inkscape-font-specification:Arial;writing-mode:lr-tb;fill:#000000;fill-opacity:1;fill-rule:nonzero;stroke:none" transform="matrix(-4.4e-8,1,1,4.4e-8,501.17,282)"><tspan id="tspan476" y="0" x="0 5.554224 11.02896 16.583183 22.137407">2050e</tspan></text>
</g>
    </g>
    <g id="g478">
      <g clip-path="url(#clipPath482)" id="g480"><text id="text486" style="font-variant:normal;font-weight:normal;font-size:9.93599987px;font-family:Arial;-inkscape-font-specification:Arial;writing-mode:lr-tb;fill:#000000;fill-opacity:1;fill-rule:nonzero;stroke:none" transform="matrix(-4.4e-8,1,1,4.4e-8,549.31,349.56)"><tspan id="tspan488" y="0" x="0 7.1737919 12.698208 18.222624 23.190624 28.744848 34.269264 39.823486 42.029282 47.553696 50.117184 56.744495 62.298721 67.823135 73.377357 76.139565 79.398575 84.922989 87.685204 89.890991 95.415405">Household Penetration</tspan></text>
</g>
    </g>
    <g id="g490">
      <g clip-path="url(#clipPath494)" id="g492"><text id="text498" style="font-variant:normal;font-weight:normal;font-size:9.93599987px;font-family:Arial;-inkscape-font-specification:Arial;writing-mode:lr-tb;fill:#000000;fill-opacity:1;fill-rule:nonzero;stroke:none" transform="matrix(-4.4e-8,1,1,4.4e-8,70.128,320.16)"><tspan id="tspan500" y="0" x="0 7.1737919 13.801104 16.563313 23.737104 29.26152 34.785934 39.753937 45.298225 50.822639 56.376865 58.582657 64.107071 66.670563 73.844353 79.368767 87.685204 93.209618 98.76384 104.28825 106.49405 112.01846 116.98647 119.4804 122.74934 130.98628 133.85779 141.03159 146.556 148.7618 151.524 156.492">US Household Humanoids (M Units)</tspan></text>
</g>
    </g>
    <g id="g502">
      <g clip-path="url(#clipPath506)" id="g504"><text id="text510" style="font-variant:normal;font-weight:bold;font-size:11.64000034px;font-family:Arial;-inkscape-font-specification:'Arial Bold';writing-mode:lr-tb;fill:#000000;fill-opacity:1;fill-rule:nonzero;stroke:none" transform="matrix(1,0,0,-1,56.232,500.76)"><tspan id="tspan512" y="0" x="0 8.3575201 16.121401 19.29912 27.656639 34.71048 41.76432 48.23616 54.708 61.785118 68.838959 72.109802 79.163643 82.539238 90.896759 97.9506 108.29856 114.7704 121.83588 128.88972 132.16055 139.2144 142.40376 150.16763 156.63948 163.69331 170.16516 174.04128 178.63908 185.11092 188.98705 192.28116 199.33501">US Household Humanoid Penetration</tspan></text>
</g>
    </g>
  </g>
</svg>
