<?xml version="1.0" encoding="UTF-8" standalone="no"?>
<svg xmlns:dc="http://purl.org/dc/elements/1.1/" xmlns:cc="http://creativecommons.org/ns#" xmlns:rdf="http://www.w3.org/1999/02/22-rdf-syntax-ns#" xmlns:svg="http://www.w3.org/2000/svg" xmlns="http://www.w3.org/2000/svg" viewBox="63 294.9 639 400.025" height="400.025" width="639" xml:space="preserve" version="1.1" id="svg2">
  <metadata id="metadata8">
    <rdf:RDF>
      <cc:Work rdf:about="">
        <dc:format>image/svg+xml</dc:format>
        <dc:type rdf:resource="http://purl.org/dc/dcmitype/StillImage"/>
      </cc:Work>
    </rdf:RDF>
  </metadata>
  <defs id="defs6">
    <clipPath id="clipPath16" clipPathUnits="userSpaceOnUse">
      <path style="clip-rule:evenodd" id="path18" d="m 50.4,236.04 511.2,0 0,320.04 -511.2,0 0,-320.04 z"/>
    </clipPath>
    <clipPath id="clipPath26" clipPathUnits="userSpaceOnUse">
      <path style="clip-rule:evenodd" id="path28" d="m 50.4,236.04 511.2,0 0,320.04 -511.2,0 0,-320.04 z"/>
    </clipPath>
    <clipPath id="clipPath60" clipPathUnits="userSpaceOnUse">
      <path style="clip-rule:evenodd" id="path62" d="m 50.52,236.16 510.96,0 0,319.8 -510.96,0 0,-319.8 z"/>
    </clipPath>
    <clipPath id="clipPath72" clipPathUnits="userSpaceOnUse">
      <path style="clip-rule:evenodd" id="path74" d="m 50.52,236.16 510.96,0 0,319.8 -510.96,0 0,-319.8 z"/>
    </clipPath>
    <clipPath id="clipPath84" clipPathUnits="userSpaceOnUse">
      <path style="clip-rule:evenodd" id="path86" d="m 50.52,236.16 510.96,0 0,319.8 -510.96,0 0,-319.8 z"/>
    </clipPath>
    <clipPath id="clipPath96" clipPathUnits="userSpaceOnUse">
      <path style="clip-rule:evenodd" id="path98" d="m 50.52,236.16 510.96,0 0,319.8 -510.96,0 0,-319.8 z"/>
    </clipPath>
    <clipPath id="clipPath108" clipPathUnits="userSpaceOnUse">
      <path style="clip-rule:evenodd" id="path110" d="m 50.52,236.16 510.96,0 0,319.8 -510.96,0 0,-319.8 z"/>
    </clipPath>
    <clipPath id="clipPath120" clipPathUnits="userSpaceOnUse">
      <path style="clip-rule:evenodd" id="path122" d="m 50.52,236.16 510.96,0 0,319.8 -510.96,0 0,-319.8 z"/>
    </clipPath>
    <clipPath id="clipPath132" clipPathUnits="userSpaceOnUse">
      <path style="clip-rule:evenodd" id="path134" d="m 50.52,236.16 510.96,0 0,319.8 -510.96,0 0,-319.8 z"/>
    </clipPath>
    <clipPath id="clipPath144" clipPathUnits="userSpaceOnUse">
      <path style="clip-rule:evenodd" id="path146" d="m 50.52,236.16 510.96,0 0,319.8 -510.96,0 0,-319.8 z"/>
    </clipPath>
    <clipPath id="clipPath156" clipPathUnits="userSpaceOnUse">
      <path style="clip-rule:evenodd" id="path158" d="m 50.52,236.16 510.96,0 0,319.8 -510.96,0 0,-319.8 z"/>
    </clipPath>
    <clipPath id="clipPath168" clipPathUnits="userSpaceOnUse">
      <path style="clip-rule:evenodd" id="path170" d="m 50.52,236.16 510.96,0 0,319.8 -510.96,0 0,-319.8 z"/>
    </clipPath>
    <clipPath id="clipPath180" clipPathUnits="userSpaceOnUse">
      <path style="clip-rule:evenodd" id="path182" d="m 50.52,236.16 510.96,0 0,319.8 -510.96,0 0,-319.8 z"/>
    </clipPath>
    <clipPath id="clipPath192" clipPathUnits="userSpaceOnUse">
      <path style="clip-rule:evenodd" id="path194" d="m 50.52,236.16 510.96,0 0,319.8 -510.96,0 0,-319.8 z"/>
    </clipPath>
    <clipPath id="clipPath204" clipPathUnits="userSpaceOnUse">
      <path style="clip-rule:evenodd" id="path206" d="m 50.52,236.16 510.96,0 0,319.8 -510.96,0 0,-319.8 z"/>
    </clipPath>
    <clipPath id="clipPath216" clipPathUnits="userSpaceOnUse">
      <path style="clip-rule:evenodd" id="path218" d="m 50.52,236.16 510.96,0 0,319.8 -510.96,0 0,-319.8 z"/>
    </clipPath>
    <clipPath id="clipPath228" clipPathUnits="userSpaceOnUse">
      <path style="clip-rule:evenodd" id="path230" d="m 50.52,236.16 510.96,0 0,319.8 -510.96,0 0,-319.8 z"/>
    </clipPath>
    <clipPath id="clipPath240" clipPathUnits="userSpaceOnUse">
      <path style="clip-rule:evenodd" id="path242" d="m 50.52,236.16 510.96,0 0,319.8 -510.96,0 0,-319.8 z"/>
    </clipPath>
    <clipPath id="clipPath252" clipPathUnits="userSpaceOnUse">
      <path style="clip-rule:evenodd" id="path254" d="m 50.52,236.16 510.96,0 0,319.8 -510.96,0 0,-319.8 z"/>
    </clipPath>
    <clipPath id="clipPath264" clipPathUnits="userSpaceOnUse">
      <path style="clip-rule:evenodd" id="path266" d="m 50.52,236.16 510.96,0 0,319.8 -510.96,0 0,-319.8 z"/>
    </clipPath>
    <clipPath id="clipPath276" clipPathUnits="userSpaceOnUse">
      <path style="clip-rule:evenodd" id="path278" d="m 50.52,236.16 510.96,0 0,319.8 -510.96,0 0,-319.8 z"/>
    </clipPath>
    <clipPath id="clipPath288" clipPathUnits="userSpaceOnUse">
      <path style="clip-rule:evenodd" id="path290" d="m 50.52,236.16 510.96,0 0,319.8 -510.96,0 0,-319.8 z"/>
    </clipPath>
    <clipPath id="clipPath300" clipPathUnits="userSpaceOnUse">
      <path style="clip-rule:evenodd" id="path302" d="m 50.52,236.16 510.96,0 0,319.8 -510.96,0 0,-319.8 z"/>
    </clipPath>
    <clipPath id="clipPath312" clipPathUnits="userSpaceOnUse">
      <path style="clip-rule:evenodd" id="path314" d="m 50.52,236.16 510.96,0 0,319.8 -510.96,0 0,-319.8 z"/>
    </clipPath>
    <clipPath id="clipPath324" clipPathUnits="userSpaceOnUse">
      <path style="clip-rule:evenodd" id="path326" d="m 50.52,236.16 510.96,0 0,319.8 -510.96,0 0,-319.8 z"/>
    </clipPath>
    <clipPath id="clipPath336" clipPathUnits="userSpaceOnUse">
      <path style="clip-rule:evenodd" id="path338" d="m 50.52,236.16 510.96,0 0,319.8 -510.96,0 0,-319.8 z"/>
    </clipPath>
    <clipPath id="clipPath348" clipPathUnits="userSpaceOnUse">
      <path style="clip-rule:evenodd" id="path350" d="m 50.52,236.16 510.96,0 0,319.8 -510.96,0 0,-319.8 z"/>
    </clipPath>
    <clipPath id="clipPath360" clipPathUnits="userSpaceOnUse">
      <path style="clip-rule:evenodd" id="path362" d="m 50.52,236.16 510.96,0 0,319.8 -510.96,0 0,-319.8 z"/>
    </clipPath>
    <clipPath id="clipPath372" clipPathUnits="userSpaceOnUse">
      <path style="clip-rule:evenodd" id="path374" d="m 50.52,236.16 510.96,0 0,319.8 -510.96,0 0,-319.8 z"/>
    </clipPath>
    <clipPath id="clipPath384" clipPathUnits="userSpaceOnUse">
      <path style="clip-rule:evenodd" id="path386" d="m 50.52,236.16 510.96,0 0,319.8 -510.96,0 0,-319.8 z"/>
    </clipPath>
    <clipPath id="clipPath396" clipPathUnits="userSpaceOnUse">
      <path style="clip-rule:evenodd" id="path398" d="m 50.52,236.16 510.96,0 0,319.8 -510.96,0 0,-319.8 z"/>
    </clipPath>
    <clipPath id="clipPath410" clipPathUnits="userSpaceOnUse">
      <path style="clip-rule:evenodd" id="path412" d="m 50.52,236.04 511.08,0 0,319.92 -511.08,0 0,-319.92 z"/>
    </clipPath>
    <clipPath id="clipPath426" clipPathUnits="userSpaceOnUse">
      <path style="clip-rule:evenodd" id="path428" d="m 50.52,236.04 511.08,0 0,319.92 -511.08,0 0,-319.92 z"/>
    </clipPath>
  </defs>
  <g transform="matrix(1.25,0,0,-1.25,0,990)" id="g10">
    <g id="g12">
      <g clip-path="url(#clipPath16)" id="g14">
        <path id="path20" style="fill:none;stroke:#000000;stroke-width:0.14;stroke-linecap:butt;stroke-linejoin:miter;stroke-miterlimit:10;stroke-dasharray:none;stroke-opacity:0" d="m 50.434,236.13 511.18,0 0,319.92 -511.18,0 0,-319.92 z"/>
      </g>
    </g>
    <g id="g22">
      <g clip-path="url(#clipPath26)" id="g24">
        <path id="path30" style="fill:#ffffff;fill-opacity:1;fill-rule:evenodd;stroke:none" d="m 50.434,236.13 511.18,0 0,319.92 -511.18,0 0,-319.92 z"/>
      </g>
    </g>
    <path id="path32" style="fill:none;stroke:#d9d9d9;stroke-width:1.07140005;stroke-linecap:butt;stroke-linejoin:round;stroke-miterlimit:10;stroke-dasharray:none;stroke-opacity:1" d="m 98.12,342.73 454.28,0 m -454.28,25.09 454.28,0 m -454.28,24.85 454.28,0 m -454.28,50.06 454.28,0 m -454.28,25.03 454.28,0 m -454.28,25.03 454.28,0 m -454.28,25.04 454.28,0"/>
    <path id="path34" style="fill:#226b5a;fill-opacity:1;fill-rule:evenodd;stroke:none" d="m 353.19,417.77 12.278,0 0,75.042 -12.278,0 0,-75.042 z"/>
    <path id="path36" style="fill:#226b5a;fill-opacity:1;fill-rule:evenodd;stroke:none" d="m 375.91,417.77 12.278,0 0,12.35 -12.278,0 0,-12.35 z"/>
    <path id="path38" style="fill:#226b5a;fill-opacity:1;fill-rule:evenodd;stroke:none" d="m 398.62,417.77 12.278,0 0,11.186 -12.278,0 0,-11.186 z"/>
    <path id="path40" style="fill:#226b5a;fill-opacity:1;fill-rule:evenodd;stroke:none" d="m 421.33,417.77 12.278,0 0,4.9444 -12.278,0 0,-4.9444 z"/>
    <path id="path42" style="fill:#226b5a;fill-opacity:1;fill-rule:evenodd;stroke:none" d="m 444.05,406.89 12.278,0 0,10.879 -12.278,0 0,-10.879 z"/>
    <path id="path44" style="fill:#226b5a;fill-opacity:1;fill-rule:evenodd;stroke:none" d="m 466.76,405.5 12.278,0 0,12.269 -12.278,0 0,-12.269 z"/>
    <path id="path46" style="fill:#873246;fill-opacity:1;fill-rule:evenodd;stroke:none" d="m 489.48,417.77 12.278,0 0,57.29 -12.278,0 0,-57.29 z"/>
    <path id="path48" style="fill:#873246;fill-opacity:1;fill-rule:evenodd;stroke:none" d="m 512.19,417.77 12.278,0 0,56.166 -12.278,0 0,-56.166 z"/>
    <path id="path50" style="fill:#873246;fill-opacity:1;fill-rule:evenodd;stroke:none" d="m 534.9,366.73 12.278,0 0,51.04 -12.278,0 0,-51.04 z"/>
    <path id="path52" style="fill:#005aa4;fill-opacity:1;fill-rule:nonzero;stroke:none" d="m 103.41,492.79 12.17,0 0,-75.09 -12.17,0 0,75.09 z m 22.62,-46.12 12.35,0 0,-28.97 -12.35,0 0,28.97 z m 22.8,-15.77 12.18,0 0,-13.2 -12.18,0 0,13.2 z m 22.63,-7.71 12.35,0 0,-5.49 -12.35,0 0,5.49 z m 22.8,-7.37 12.17,0 0,1.88 -12.17,0 0,-1.88 z m 22.63,-0.17 12.34,0 0,2.05 -12.34,0 0,-2.05 z m 22.8,-1.03 12.17,0 0,3.08 -12.17,0 0,-3.08 z m 22.63,-1.2 12.34,0 0,4.28 -12.34,0 0,-4.28 z m 22.8,-3.6 12.17,0 0,7.88 -12.17,0 0,-7.88 z m 22.63,-6.52 12.34,0 0,14.4 -12.34,0 0,-14.4 z m 22.8,-38.74 12.17,0 0,53.14 -12.17,0 0,-53.14 z"/>
    <path id="path54" style="fill:none;stroke:#000000;stroke-width:1.07140005;stroke-linecap:butt;stroke-linejoin:round;stroke-miterlimit:10;stroke-dasharray:none;stroke-opacity:1" d="m 98.12,417.77 454.28,0"/>
    <g id="g56">
      <g clip-path="url(#clipPath60)" id="g58"><text id="text64" style="font-variant:normal;font-weight:normal;font-size:12.86400032px;font-family:'Roboto Condensed';-inkscape-font-specification:RobotoCondensed-Regular;writing-mode:lr-tb;fill:#000000;fill-opacity:1;fill-rule:nonzero;stroke:none" transform="matrix(1,0,0,-1,52.584,338.86)"><tspan id="tspan66" y="0" x="0 3.2545919 9.6094084 12.876864 19.23168 25.586496">-0.30%</tspan></text>
</g>
    </g>
    <g id="g68">
      <g clip-path="url(#clipPath72)" id="g70"><text id="text76" style="font-variant:normal;font-weight:normal;font-size:12.86400032px;font-family:'Roboto Condensed';-inkscape-font-specification:RobotoCondensed-Regular;writing-mode:lr-tb;fill:#000000;fill-opacity:1;fill-rule:nonzero;stroke:none" transform="matrix(1,0,0,-1,52.584,363.86)"><tspan id="tspan78" y="0" x="0 3.2545919 9.6094084 12.876864 19.23168 25.586496">-0.20%</tspan></text>
</g>
    </g>
    <g id="g80">
      <g clip-path="url(#clipPath84)" id="g82"><text id="text88" style="font-variant:normal;font-weight:normal;font-size:12.84000015px;font-family:'Roboto Condensed';-inkscape-font-specification:RobotoCondensed-Regular;writing-mode:lr-tb;fill:#000000;fill-opacity:1;fill-rule:nonzero;stroke:none" transform="matrix(1,0,0,-1,52.584,388.87)"><tspan id="tspan90" y="0" x="0 3.2485199 9.5914803 12.87852 19.221479 25.56444">-0.10%</tspan></text>
</g>
    </g>
    <g id="g92">
      <g clip-path="url(#clipPath96)" id="g94"><text id="text100" style="font-variant:normal;font-weight:normal;font-size:12.86400032px;font-family:'Roboto Condensed';-inkscape-font-specification:RobotoCondensed-Regular;writing-mode:lr-tb;fill:#000000;fill-opacity:1;fill-rule:nonzero;stroke:none" transform="matrix(1,0,0,-1,55.776,413.9)"><tspan id="tspan102" y="0" x="0 6.354816 9.7380476 16.092863 22.44768">0.00%</tspan></text>
</g>
    </g>
    <g id="g104">
      <g clip-path="url(#clipPath108)" id="g106"><text id="text112" style="font-variant:normal;font-weight:normal;font-size:12.86400032px;font-family:'Roboto Condensed';-inkscape-font-specification:RobotoCondensed-Regular;writing-mode:lr-tb;fill:#000000;fill-opacity:1;fill-rule:nonzero;stroke:none" transform="matrix(1,0,0,-1,55.776,438.91)"><tspan id="tspan114" y="0" x="0 6.354816 9.7380476 16.092863 22.44768">0.10%</tspan></text>
</g>
    </g>
    <g id="g116">
      <g clip-path="url(#clipPath120)" id="g118"><text id="text124" style="font-variant:normal;font-weight:normal;font-size:12.86400032px;font-family:'Roboto Condensed';-inkscape-font-specification:RobotoCondensed-Regular;writing-mode:lr-tb;fill:#000000;fill-opacity:1;fill-rule:nonzero;stroke:none" transform="matrix(1,0,0,-1,55.776,463.94)"><tspan id="tspan126" y="0" x="0 6.354816 9.7380476 16.092863 22.44768">0.20%</tspan></text>
</g>
    </g>
    <g id="g128">
      <g clip-path="url(#clipPath132)" id="g130"><text id="text136" style="font-variant:normal;font-weight:normal;font-size:12.86400032px;font-family:'Roboto Condensed';-inkscape-font-specification:RobotoCondensed-Regular;writing-mode:lr-tb;fill:#000000;fill-opacity:1;fill-rule:nonzero;stroke:none" transform="matrix(1,0,0,-1,55.776,488.95)"><tspan id="tspan138" y="0" x="0 6.354816 9.7380476 16.092863 22.44768">0.30%</tspan></text>
</g>
    </g>
    <g id="g140">
      <g clip-path="url(#clipPath144)" id="g142"><text id="text148" style="font-variant:normal;font-weight:normal;font-size:12.84000015px;font-family:'Roboto Condensed';-inkscape-font-specification:RobotoCondensed-Regular;writing-mode:lr-tb;fill:#000000;fill-opacity:1;fill-rule:nonzero;stroke:none" transform="matrix(1,0,0,-1,55.776,513.96)"><tspan id="tspan150" y="0" x="0 6.3429599 9.7584 16.10136 22.444321">0.40%</tspan></text>
</g>
    </g>
    <g id="g152">
      <g clip-path="url(#clipPath156)" id="g154"><text id="text160" style="font-variant:normal;font-weight:normal;font-size:12.86400032px;font-family:'Roboto Condensed';-inkscape-font-specification:RobotoCondensed-Regular;writing-mode:lr-tb;fill:#000000;fill-opacity:1;fill-rule:nonzero;stroke:none" transform="matrix(-4.4e-8,1,1,4.4e-8,113.95,303.77)"><tspan id="tspan162" y="0" x="0 8.0528641 15.784128 23.463936">HOOD</tspan></text>
</g>
    </g>
    <g id="g164">
      <g clip-path="url(#clipPath168)" id="g166"><text id="text172" style="font-variant:normal;font-weight:normal;font-size:12.86400032px;font-family:'Roboto Condensed';-inkscape-font-specification:RobotoCondensed-Regular;writing-mode:lr-tb;fill:#000000;fill-opacity:1;fill-rule:nonzero;stroke:none" transform="matrix(-4.4e-8,1,1,4.4e-8,136.68,310.27)"><tspan id="tspan174" y="0" x="0 7.3710718 17.121984">AMP</tspan></text>
</g>
    </g>
    <g id="g176">
      <g clip-path="url(#clipPath180)" id="g178"><text id="text184" style="font-variant:normal;font-weight:normal;font-size:12.86400032px;font-family:'Roboto Condensed';-inkscape-font-specification:RobotoCondensed-Regular;writing-mode:lr-tb;fill:#000000;fill-opacity:1;fill-rule:nonzero;stroke:none" transform="matrix(-4.4e-8,1,1,4.4e-8,159.38,315.31)"><tspan id="tspan186" y="0" x="0 6.8307838 13.044096">RJF</tspan></text>
</g>
    </g>
    <g id="g188">
      <g clip-path="url(#clipPath192)" id="g190"><text id="text196" style="font-variant:normal;font-weight:normal;font-size:12.86400032px;font-family:'Roboto Condensed';-inkscape-font-specification:RobotoCondensed-Regular;writing-mode:lr-tb;fill:#000000;fill-opacity:1;fill-rule:nonzero;stroke:none" transform="matrix(-4.4e-8,1,1,4.4e-8,182.11,307.78)"><tspan id="tspan198" y="0" x="0 6.1489921 13.159872 19.308865">LPLA</tspan></text>
</g>
    </g>
    <g id="g200">
      <g clip-path="url(#clipPath204)" id="g202"><text id="text208" style="font-variant:normal;font-weight:normal;font-size:12.84000015px;font-family:'Roboto Condensed';-inkscape-font-specification:RobotoCondensed-Regular;writing-mode:lr-tb;fill:#000000;fill-opacity:1;fill-rule:nonzero;stroke:none" transform="matrix(-4.4e-8,1,1,4.4e-8,204.84,311.26)"><tspan id="tspan210" y="0" x="0 9.7840796 15.94728">WFC</tspan></text>
</g>
    </g>
    <g id="g212">
      <g clip-path="url(#clipPath216)" id="g214"><text id="text220" style="font-variant:normal;font-weight:normal;font-size:12.86400032px;font-family:'Roboto Condensed';-inkscape-font-specification:RobotoCondensed-Regular;writing-mode:lr-tb;fill:#000000;fill-opacity:1;fill-rule:nonzero;stroke:none" transform="matrix(-4.4e-8,1,1,4.4e-8,227.54,312.82)"><tspan id="tspan222" y="0" x="0 7.01088 14.420544">BAC</tspan></text>
</g>
    </g>
    <g id="g224">
      <g clip-path="url(#clipPath228)" id="g226"><text id="text232" style="font-variant:normal;font-weight:normal;font-size:12.86400032px;font-family:'Roboto Condensed';-inkscape-font-specification:RobotoCondensed-Regular;writing-mode:lr-tb;fill:#000000;fill-opacity:1;fill-rule:nonzero;stroke:none" transform="matrix(-4.4e-8,1,1,4.4e-8,250.27,306.38)"><tspan id="tspan234" y="0" x="0 7.8727679 14.574912 21.405697">NTRS</tspan></text>
</g>
    </g>
    <g id="g236">
      <g clip-path="url(#clipPath240)" id="g238"><text id="text244" style="font-variant:normal;font-weight:normal;font-size:12.86400032px;font-family:'Roboto Condensed';-inkscape-font-specification:RobotoCondensed-Regular;writing-mode:lr-tb;fill:#000000;fill-opacity:1;fill-rule:nonzero;stroke:none" transform="matrix(-4.4e-8,1,1,4.4e-8,272.98,241.97)"><tspan id="tspan246" y="0" x="0 6.1618562 13.352832 23.103745 26.049601 33.060478 36.971134 39.916992 45.422783 51.584641 55.37952 61.515648 64.461502 71.472382 77.634239 83.80896">JPM Private Bank</tspan></text>
</g>
    </g>
    <g id="g248">
      <g clip-path="url(#clipPath252)" id="g250"><text id="text256" style="font-variant:normal;font-weight:normal;font-size:12.86400032px;font-family:'Roboto Condensed';-inkscape-font-specification:RobotoCondensed-Regular;writing-mode:lr-tb;fill:#000000;fill-opacity:1;fill-rule:nonzero;stroke:none" transform="matrix(-4.4e-8,1,1,4.4e-8,295.7,302.81)"><tspan id="tspan258" y="0" x="0 6.6635518 13.867392 21.894527">SCHW</tspan></text>
</g>
    </g>
    <g id="g260">
      <g clip-path="url(#clipPath264)" id="g262"><text id="text268" style="font-variant:normal;font-weight:normal;font-size:12.84000015px;font-family:'Roboto Condensed';-inkscape-font-specification:RobotoCondensed-Regular;writing-mode:lr-tb;fill:#000000;fill-opacity:1;fill-rule:nonzero;stroke:none" transform="matrix(-4.4e-8,1,1,4.4e-8,318.43,320.5)"><tspan id="tspan270" y="0" x="0 7.0320001">BK</tspan></text>
</g>
    </g>
    <g id="g272">
      <g clip-path="url(#clipPath276)" id="g274"><text id="text280" style="font-variant:normal;font-weight:normal;font-size:12.86400032px;font-family:'Roboto Condensed';-inkscape-font-specification:RobotoCondensed-Regular;writing-mode:lr-tb;fill:#000000;fill-opacity:1;fill-rule:nonzero;stroke:none" transform="matrix(-4.4e-8,1,1,4.4e-8,341.14,324.29)"><tspan id="tspan282" y="0" x="0">C</tspan></text>
</g>
    </g>
    <g id="g284">
      <g clip-path="url(#clipPath288)" id="g286"><text id="text292" style="font-variant:normal;font-weight:normal;font-size:12.84000015px;font-family:'Roboto Condensed';-inkscape-font-specification:RobotoCondensed-Regular;writing-mode:lr-tb;fill:#000000;fill-opacity:1;fill-rule:nonzero;stroke:none" transform="matrix(-4.4e-8,1,1,4.4e-8,363.86,317.52)"><tspan id="tspan294" y="0" x="0 3.24 9.9211197">ISP</tspan></text>
</g>
    </g>
    <g id="g296">
      <g clip-path="url(#clipPath300)" id="g298"><text id="text304" style="font-variant:normal;font-weight:normal;font-size:12.86400032px;font-family:'Roboto Condensed';-inkscape-font-specification:RobotoCondensed-Regular;writing-mode:lr-tb;fill:#000000;fill-opacity:1;fill-rule:nonzero;stroke:none" transform="matrix(-4.4e-8,1,1,4.4e-8,386.57,312.14)"><tspan id="tspan306" y="0" x="0 7.3710718 14.381952">ABN</tspan></text>
</g>
    </g>
    <g id="g308">
      <g clip-path="url(#clipPath312)" id="g310"><text id="text316" style="font-variant:normal;font-weight:normal;font-size:12.86400032px;font-family:'Roboto Condensed';-inkscape-font-specification:RobotoCondensed-Regular;writing-mode:lr-tb;fill:#000000;fill-opacity:1;fill-rule:nonzero;stroke:none" transform="matrix(-4.4e-8,1,1,4.4e-8,409.3,305.76)"><tspan id="tspan318" y="0" x="0 7.3582082 14.72928 21.392832">CASA</tspan></text>
</g>
    </g>
    <g id="g320">
      <g clip-path="url(#clipPath324)" id="g322"><text id="text328" style="font-variant:normal;font-weight:normal;font-size:12.86400032px;font-family:'Roboto Condensed';-inkscape-font-specification:RobotoCondensed-Regular;writing-mode:lr-tb;fill:#000000;fill-opacity:1;fill-rule:nonzero;stroke:none" transform="matrix(-4.4e-8,1,1,4.4e-8,432,312.41)"><tspan id="tspan330" y="0" x="0 7.01088 14.92224">BNP</tspan></text>
</g>
    </g>
    <g id="g332">
      <g clip-path="url(#clipPath336)" id="g334"><text id="text340" style="font-variant:normal;font-weight:normal;font-size:12.86400032px;font-family:'Roboto Condensed';-inkscape-font-specification:RobotoCondensed-Regular;writing-mode:lr-tb;fill:#000000;fill-opacity:1;fill-rule:nonzero;stroke:none" transform="matrix(-4.4e-8,1,1,4.4e-8,454.73,306.89)"><tspan id="tspan342" y="0" x="0 7.01088 14.420544 20.736769">BAER</tspan></text>
</g>
    </g>
    <g id="g344">
      <g clip-path="url(#clipPath348)" id="g346"><text id="text352" style="font-variant:normal;font-weight:normal;font-size:12.84000015px;font-family:'Roboto Condensed';-inkscape-font-specification:RobotoCondensed-Regular;writing-mode:lr-tb;fill:#000000;fill-opacity:1;fill-rule:nonzero;stroke:none" transform="matrix(-4.4e-8,1,1,4.4e-8,477.46,313.61)"><tspan id="tspan354" y="0" x="0 7.2160802 14.21388">UBS</tspan></text>
</g>
    </g>
    <g id="g356">
      <g clip-path="url(#clipPath360)" id="g358"><text id="text364" style="font-variant:normal;font-weight:normal;font-size:12.86400032px;font-family:'Roboto Condensed';-inkscape-font-specification:RobotoCondensed-Regular;writing-mode:lr-tb;fill:#000000;fill-opacity:1;fill-rule:nonzero;stroke:none" transform="matrix(-4.4e-8,1,1,4.4e-8,500.16,280.61)"><tspan id="tspan366" y="0" x="0 9.7766399 12.722496 18.369793 24.583103 30.757824 37.26701 40.212864 46.387585">Mizuho FG</tspan></text>
</g>
    </g>
    <g id="g368">
      <g clip-path="url(#clipPath372)" id="g370"><text id="text376" style="font-variant:normal;font-weight:normal;font-size:12.86400032px;font-family:'Roboto Condensed';-inkscape-font-specification:RobotoCondensed-Regular;writing-mode:lr-tb;fill:#000000;fill-opacity:1;fill-rule:nonzero;stroke:none" transform="matrix(-4.4e-8,1,1,4.4e-8,522.89,304.37)"><tspan id="tspan378" y="0" x="0 6.6635518 16.453056 22.627775">SMFG</tspan></text>
</g>
    </g>
    <g id="g380">
      <g clip-path="url(#clipPath384)" id="g382"><text id="text388" style="font-variant:normal;font-weight:normal;font-size:12.86400032px;font-family:'Roboto Condensed';-inkscape-font-specification:RobotoCondensed-Regular;writing-mode:lr-tb;fill:#000000;fill-opacity:1;fill-rule:nonzero;stroke:none" transform="matrix(-4.4e-8,1,1,4.4e-8,545.59,303.46)"><tspan id="tspan390" y="0" x="0 7.8984962 15.62976 23.155199">NOAH</tspan></text>
</g>
    </g>
    <g id="g392">
      <g clip-path="url(#clipPath396)" id="g394"><text id="text400" style="font-variant:normal;font-weight:bold;font-size:20.06399918px;font-family:'Roboto Condensed';-inkscape-font-specification:RobotoCondensed-Bold;writing-mode:lr-tb;fill:#000000;fill-opacity:1;fill-rule:nonzero;stroke:none" transform="matrix(1,0,0,-1,123.19,526.27)"><tspan id="tspan402" y="0" x="0 3.230304 13.382688 23.454817 28.069536 37.078274 46.187328 52.025951 56.460094 59.690399 69.842781 79.914909 84.529633 99.557571 114.80621 119.07984 131.35901 140.96967 147.12932 151.62364 166.83215 176.2823 182.94356 193.03575 198.09187 207.96336 212.41757 223.85405 233.80579 243.25594 253.12743 263.2196 272.83026 276.98352 281.95938 291.871 296.48572 309.30661 313.76083 325.17725 335.16913 340.14499 350.05661 356.21625">'24 vs. '21 WM Net Margin Change in % Points</tspan></text>
</g>
    </g>
    <path id="path404" style="fill:#ffffff;fill-opacity:1;fill-rule:evenodd;stroke:none" d="m 329.47,484.59 68.969,0 0,27.334 -68.969,0 0,-27.334 z"/>
    <g id="g406">
      <g clip-path="url(#clipPath410)" id="g408"><text id="text414" style="font-variant:normal;font-weight:normal;font-size:15.79199982px;font-family:'Roboto Condensed';-inkscape-font-specification:RobotoCondensed-Regular;writing-mode:lr-tb;fill:#000000;fill-opacity:1;fill-rule:nonzero;stroke:none" transform="matrix(1,0,0,-1,339.82,491.83)"><tspan id="tspan416" y="0" x="0 7.8486242 15.649872 19.724209 27.446495 35.168785">+0.41%</tspan></text>
</g>
    </g>
    <path id="path418" style="fill:none;stroke:#000000;stroke-width:3.57139993;stroke-linecap:butt;stroke-linejoin:miter;stroke-miterlimit:8;stroke-dasharray:none;stroke-opacity:1" d="m 346.53,475.19 28.42,-16.15"/>
    <path id="path420" style="fill:#ffffff;fill-opacity:1;fill-rule:evenodd;stroke:none" d="m 89.814,493.29 68.963,0 0,27.334 -68.963,0 0,-27.334 z"/>
    <g id="g422">
      <g clip-path="url(#clipPath426)" id="g424"><text id="text430" style="font-variant:normal;font-weight:normal;font-size:15.76799965px;font-family:'Roboto Condensed';-inkscape-font-specification:RobotoCondensed-Regular;writing-mode:lr-tb;fill:#000000;fill-opacity:1;fill-rule:nonzero;stroke:none" transform="matrix(1,0,0,-1,100.13,500.52)"><tspan id="tspan432" y="0" x="0 7.8366961 15.578784 19.725767 27.389015 35.099567">+2.71%</tspan></text>
</g>
    </g>
    <path id="path434" style="fill:none;stroke:#000000;stroke-width:3.57139993;stroke-linecap:butt;stroke-linejoin:miter;stroke-miterlimit:8;stroke-dasharray:none;stroke-opacity:1" d="M 95.148,483.27 123.56,467.12"/>
  </g>
</svg>
