<?xml version="1.0" encoding="UTF-8" standalone="no"?>
<svg xmlns:dc="http://purl.org/dc/elements/1.1/" xmlns:cc="http://creativecommons.org/ns#" xmlns:rdf="http://www.w3.org/1999/02/22-rdf-syntax-ns#" xmlns:svg="http://www.w3.org/2000/svg" xmlns="http://www.w3.org/2000/svg" viewBox="63.04 133.05 864 498.9" height="498.9" width="864" xml:space="preserve" version="1.1" id="svg2">
  <metadata id="metadata8">
    <rdf:RDF>
      <cc:Work rdf:about="">
        <dc:format>image/svg+xml</dc:format>
        <dc:type rdf:resource="http://purl.org/dc/dcmitype/StillImage"/>
      </cc:Work>
    </rdf:RDF>
  </metadata>
  <defs id="defs6">
    <clipPath id="clipPath16" clipPathUnits="userSpaceOnUse">
      <path style="clip-rule:evenodd" id="path18" d="m 50.399,106.44 691.2,0 0,399.12 -691.2,0 0,-399.12 z"/>
    </clipPath>
    <clipPath id="clipPath26" clipPathUnits="userSpaceOnUse">
      <path style="clip-rule:evenodd" id="path28" d="m 50.4,106.44 691.2,0 0,399.12 -691.2,0 0,-399.12 z"/>
    </clipPath>
    <clipPath id="clipPath42" clipPathUnits="userSpaceOnUse">
      <path style="clip-rule:evenodd" id="path44" d="m 107.06,177.46 616.47,0 0,280.07 -616.47,0 0,-280.07 z"/>
    </clipPath>
    <clipPath id="clipPath52" clipPathUnits="userSpaceOnUse">
      <path style="clip-rule:evenodd" id="path54" d="m 50.52,106.44 690.96,0 0,399.12 -690.96,0 0,-399.12 z"/>
    </clipPath>
    <clipPath id="clipPath64" clipPathUnits="userSpaceOnUse">
      <path style="clip-rule:evenodd" id="path66" d="m 50.52,106.44 690.96,0 0,399.12 -690.96,0 0,-399.12 z"/>
    </clipPath>
    <clipPath id="clipPath76" clipPathUnits="userSpaceOnUse">
      <path style="clip-rule:evenodd" id="path78" d="m 50.52,106.44 690.96,0 0,399.12 -690.96,0 0,-399.12 z"/>
    </clipPath>
    <clipPath id="clipPath88" clipPathUnits="userSpaceOnUse">
      <path style="clip-rule:evenodd" id="path90" d="m 50.52,106.44 690.96,0 0,399.12 -690.96,0 0,-399.12 z"/>
    </clipPath>
    <clipPath id="clipPath100" clipPathUnits="userSpaceOnUse">
      <path style="clip-rule:evenodd" id="path102" d="m 50.52,106.44 690.96,0 0,399.12 -690.96,0 0,-399.12 z"/>
    </clipPath>
    <clipPath id="clipPath112" clipPathUnits="userSpaceOnUse">
      <path style="clip-rule:evenodd" id="path114" d="m 50.52,106.44 690.96,0 0,399.12 -690.96,0 0,-399.12 z"/>
    </clipPath>
    <clipPath id="clipPath124" clipPathUnits="userSpaceOnUse">
      <path style="clip-rule:evenodd" id="path126" d="m 50.52,106.44 690.96,0 0,399.12 -690.96,0 0,-399.12 z"/>
    </clipPath>
    <clipPath id="clipPath136" clipPathUnits="userSpaceOnUse">
      <path style="clip-rule:evenodd" id="path138" d="m 50.52,106.44 690.96,0 0,399.12 -690.96,0 0,-399.12 z"/>
    </clipPath>
    <clipPath id="clipPath148" clipPathUnits="userSpaceOnUse">
      <path style="clip-rule:evenodd" id="path150" d="m 50.52,106.44 690.96,0 0,399.12 -690.96,0 0,-399.12 z"/>
    </clipPath>
    <clipPath id="clipPath160" clipPathUnits="userSpaceOnUse">
      <path style="clip-rule:evenodd" id="path162" d="m 50.52,106.44 690.96,0 0,399.12 -690.96,0 0,-399.12 z"/>
    </clipPath>
    <clipPath id="clipPath172" clipPathUnits="userSpaceOnUse">
      <path style="clip-rule:evenodd" id="path174" d="m 50.52,106.44 690.96,0 0,399.12 -690.96,0 0,-399.12 z"/>
    </clipPath>
    <clipPath id="clipPath184" clipPathUnits="userSpaceOnUse">
      <path style="clip-rule:evenodd" id="path186" d="m 50.52,106.44 690.96,0 0,399.12 -690.96,0 0,-399.12 z"/>
    </clipPath>
    <clipPath id="clipPath196" clipPathUnits="userSpaceOnUse">
      <path style="clip-rule:evenodd" id="path198" d="m 50.52,106.44 690.96,0 0,399.12 -690.96,0 0,-399.12 z"/>
    </clipPath>
    <clipPath id="clipPath208" clipPathUnits="userSpaceOnUse">
      <path style="clip-rule:evenodd" id="path210" d="m 50.52,106.44 690.96,0 0,399.12 -690.96,0 0,-399.12 z"/>
    </clipPath>
    <clipPath id="clipPath220" clipPathUnits="userSpaceOnUse">
      <path style="clip-rule:evenodd" id="path222" d="m 50.52,106.44 690.96,0 0,399.12 -690.96,0 0,-399.12 z"/>
    </clipPath>
    <clipPath id="clipPath232" clipPathUnits="userSpaceOnUse">
      <path style="clip-rule:evenodd" id="path234" d="m 50.52,106.44 690.96,0 0,399.12 -690.96,0 0,-399.12 z"/>
    </clipPath>
    <clipPath id="clipPath244" clipPathUnits="userSpaceOnUse">
      <path style="clip-rule:evenodd" id="path246" d="m 50.52,106.44 690.96,0 0,399.12 -690.96,0 0,-399.12 z"/>
    </clipPath>
    <clipPath id="clipPath256" clipPathUnits="userSpaceOnUse">
      <path style="clip-rule:evenodd" id="path258" d="m 50.52,106.44 690.96,0 0,399.12 -690.96,0 0,-399.12 z"/>
    </clipPath>
    <clipPath id="clipPath268" clipPathUnits="userSpaceOnUse">
      <path style="clip-rule:evenodd" id="path270" d="m 50.52,106.44 690.96,0 0,399.12 -690.96,0 0,-399.12 z"/>
    </clipPath>
    <clipPath id="clipPath280" clipPathUnits="userSpaceOnUse">
      <path style="clip-rule:evenodd" id="path282" d="m 50.52,106.44 690.96,0 0,399.12 -690.96,0 0,-399.12 z"/>
    </clipPath>
    <clipPath id="clipPath292" clipPathUnits="userSpaceOnUse">
      <path style="clip-rule:evenodd" id="path294" d="m 50.52,106.44 690.96,0 0,399.12 -690.96,0 0,-399.12 z"/>
    </clipPath>
    <clipPath id="clipPath304" clipPathUnits="userSpaceOnUse">
      <path style="clip-rule:evenodd" id="path306" d="m 50.52,106.44 690.96,0 0,399.12 -690.96,0 0,-399.12 z"/>
    </clipPath>
    <clipPath id="clipPath316" clipPathUnits="userSpaceOnUse">
      <path style="clip-rule:evenodd" id="path318" d="m 50.52,106.44 690.96,0 0,399.12 -690.96,0 0,-399.12 z"/>
    </clipPath>
    <clipPath id="clipPath328" clipPathUnits="userSpaceOnUse">
      <path style="clip-rule:evenodd" id="path330" d="m 50.52,106.44 690.96,0 0,399.12 -690.96,0 0,-399.12 z"/>
    </clipPath>
    <clipPath id="clipPath340" clipPathUnits="userSpaceOnUse">
      <path style="clip-rule:evenodd" id="path342" d="m 50.52,106.44 690.96,0 0,399.12 -690.96,0 0,-399.12 z"/>
    </clipPath>
    <clipPath id="clipPath352" clipPathUnits="userSpaceOnUse">
      <path style="clip-rule:evenodd" id="path354" d="m 50.52,106.44 690.96,0 0,399.12 -690.96,0 0,-399.12 z"/>
    </clipPath>
    <clipPath id="clipPath364" clipPathUnits="userSpaceOnUse">
      <path style="clip-rule:evenodd" id="path366" d="m 50.52,106.44 690.96,0 0,399.12 -690.96,0 0,-399.12 z"/>
    </clipPath>
    <clipPath id="clipPath376" clipPathUnits="userSpaceOnUse">
      <path style="clip-rule:evenodd" id="path378" d="m 50.52,106.44 690.96,0 0,399.12 -690.96,0 0,-399.12 z"/>
    </clipPath>
    <clipPath id="clipPath388" clipPathUnits="userSpaceOnUse">
      <path style="clip-rule:evenodd" id="path390" d="m 50.52,106.44 690.96,0 0,399.12 -690.96,0 0,-399.12 z"/>
    </clipPath>
    <clipPath id="clipPath400" clipPathUnits="userSpaceOnUse">
      <path style="clip-rule:evenodd" id="path402" d="m 50.52,106.44 690.96,0 0,399.12 -690.96,0 0,-399.12 z"/>
    </clipPath>
    <clipPath id="clipPath412" clipPathUnits="userSpaceOnUse">
      <path style="clip-rule:evenodd" id="path414" d="m 50.52,106.44 691.08,0 0,399.12 -691.08,0 0,-399.12 z"/>
    </clipPath>
    <clipPath id="clipPath424" clipPathUnits="userSpaceOnUse">
      <path style="clip-rule:evenodd" id="path426" d="m 50.52,106.44 691.08,0 0,399.12 -691.08,0 0,-399.12 z"/>
    </clipPath>
    <clipPath id="clipPath436" clipPathUnits="userSpaceOnUse">
      <path style="clip-rule:evenodd" id="path438" d="m 50.399,106.44 691.2,0 0,399.12 -691.2,0 0,-399.12 z"/>
    </clipPath>
    <clipPath id="clipPath446" clipPathUnits="userSpaceOnUse">
      <path style="clip-rule:evenodd" id="path448" d="m 50.4,106.44 691.2,0 0,399.12 -691.2,0 0,-399.12 z"/>
    </clipPath>
    <clipPath id="clipPath456" clipPathUnits="userSpaceOnUse">
      <path style="clip-rule:evenodd" id="path458" d="m 50.52,106.44 690.96,0 0,6.12 -690.96,0 0,-6.12 z"/>
    </clipPath>
    <clipPath id="clipPath468" clipPathUnits="userSpaceOnUse">
      <path style="clip-rule:evenodd" id="path470" d="m 50.52,106.44 690.96,0 0,6.12 -690.96,0 0,-6.12 z"/>
    </clipPath>
  </defs>
  <g transform="matrix(1.25,0,0,-1.25,0,765)" id="g10">
    <g id="g12">
      <g clip-path="url(#clipPath16)" id="g14">
        <path id="path20" style="fill:none;stroke:#000000;stroke-width:0.14;stroke-linecap:butt;stroke-linejoin:miter;stroke-miterlimit:10;stroke-dasharray:none;stroke-opacity:0" d="m 50.502,106.34 690.99,0 0,399.22 -690.99,0 0,-399.22 z"/>
      </g>
    </g>
    <g id="g22">
      <g clip-path="url(#clipPath26)" id="g24">
        <path id="path30" style="fill:#ffffff;fill-opacity:1;fill-rule:evenodd;stroke:none" d="m 50.503,106.34 690.99,0 0,399.22 -690.99,0 0,-399.22 z"/>
      </g>
    </g>
    <path id="path32" style="fill:none;stroke:#d9d9d9;stroke-width:1.40260005;stroke-linecap:butt;stroke-linejoin:round;stroke-miterlimit:10;stroke-dasharray:none;stroke-opacity:1" d="m 107.18,225.26 615.12,0 m -615.12,46.46 615.12,0 m -615.12,46.45 615.12,0 m -615.12,46.46 615.12,0 m -615.12,46.45 615.12,0 m -615.12,46.43 615.12,0"/>
    <path id="path34" style="fill:none;stroke:#d9d9d9;stroke-width:1.40260005;stroke-linecap:butt;stroke-linejoin:round;stroke-miterlimit:10;stroke-dasharray:none;stroke-opacity:1" d="m 107.18,178.86 615.12,0"/>
    <path id="path36" style="fill:none;stroke:#d9d9d9;stroke-width:1.40260005;stroke-linecap:butt;stroke-linejoin:round;stroke-miterlimit:10;stroke-dasharray:none;stroke-opacity:1" d="m 107.18,178.86 0,-5.08 m 30.84,5.08 0,-5.08 m 31.42,5.08 0,-5.08 m 31.65,5.08 0,-5.08 m 31.19,5.08 0,-5.08 m 30.74,5.08 0,-5.08 m 31.65,5.08 0,-5.08 m 31.42,5.08 0,-5.08 m 31.19,5.08 0,-5.08 m 30.97,5.08 0,-5.08 m 31.42,5.08 0,-5.08 m 31.64,5.08 0,-5.08 m 31.19,5.08 0,-5.08 m 31.2,5.08 0,-5.08 m 31.41,5.08 0,-5.08 m 31.65,5.08 0,-5.08 m 31.19,5.08 0,-5.08 m 30.75,5.08 0,-5.08 m 31.41,5.08 0,-5.08 m 31.63,5.08 0,-5.08"/>
    <g id="g38">
      <g clip-path="url(#clipPath42)" id="g40">
        <path id="path46" style="fill:none;stroke:#a6a6a6;stroke-width:4.20779991;stroke-linecap:round;stroke-linejoin:round;stroke-miterlimit:10;stroke-dasharray:none;stroke-opacity:1" d="m 107.35,348.24 0.38,-3.81 0.22,-2.47 0.45,1.8 0.23,9.42 1.12,23.79 0.45,2.69 0.22,0.68 0.45,-8.08 1.35,-19.98 0.22,0.68 0.45,8.3 0.22,-1.35 1.35,-10.77 0.45,6.29 0.22,-2.47 0.45,-7.41 0.45,5.61 0.9,-10.32 0.45,1.79 0.22,3.37 0.45,7.41 0.23,-5.17 1.34,0 0.45,17.51 0.23,-3.82 0.44,-6.5 0.9,2.46 0.45,-1.12 0.45,-7.85 0.22,-9.88 0.45,2.02 0.9,5.39 0.45,6.73 0.22,-0.45 0.45,-2.47 0.23,2.25 1.12,-1.57 0.22,-2.92 0.45,17.5 0.23,15.94 0.45,0 1.34,-8.53 0.45,29.57 0.23,-14.08 0.44,2.24 0.9,-1.57 0.45,-10.32 0.23,-9.88 0.44,13.47 0.23,-13.92 1.12,15.04 0.23,-9.43 0.44,2.47 0.23,-22.66 0.45,-18.86 1.12,-10.99 0.22,-15.94 0.45,3.82 0.23,8.98 0.45,-4.94 0.89,0.67 0.45,6.51 0.23,4.26 0.45,-2.24 0.22,-3.37 1.12,-13.01 0.45,-16.38 0.23,-6.51 0.44,6.51 0.23,4.71 1.12,5.61 0.23,8.97 0.44,-2.91 0.23,11.44 1.35,0 0.44,0 0.23,-10.1 0.45,5.39 0.22,-8.08 1.12,-3.59 0.45,4.04 0.23,3.37 0.45,0.67 0.22,12.57 1.12,0.22 0.23,-2.24 0.45,-3.82 0.22,0.23 0.45,4.93 0.9,1.57 0.45,1.58 0.22,-6.51 0.45,-8.76 0.45,2.92 0.89,-0.45 0.45,0.23 0.23,-0.68 0.45,-2.91 0.22,-4.04 1.12,-4.71 0.23,-4.49 0.45,-0.23 0.22,-1.12 0.45,-3.37 0.9,5.39 0.45,4.94 0.45,0 0.22,3.81 0.45,4.49 0.9,-3.14 0.45,0.67 0.22,4.04 0.45,-0.9 0.22,-1.34 1.35,9.87 0.45,4.71 0.22,-0.44 0.45,2.69 1.12,-8.75 0.23,-2.47 0.45,-2.7 0.22,-6.5 0.45,3.36 0.9,0 0.45,-5.83 0.22,-5.84 0.45,3.59 0.22,5.84 1.13,-3.14 0.22,2.24 0.45,8.3 0.45,1.13 0.22,2.24 1.12,6.73 0.23,-4.93 0.45,5.83 0.22,0 0.45,-9.42 1.35,3.81 0.22,-1.79 0.45,-7.86 0.23,-0.45 1.12,0 0.45,-1.34 0.22,-2.25 0.45,1.12 0.22,3.14 1.13,-4.03 0.22,2.91 0.45,-4.04 0.22,-3.36 0.45,-0.68 0.9,-15.71 0.45,0.9 0.22,0.68 0.45,-0.68 0.23,-2.69 1.12,-3.14 0.45,-5.61 0.22,2.47 0.45,-3.59 0.23,5.83 1.12,4.26 0.22,-2.24 0.45,-2.02 0.22,-7.41 0.45,1.8 0.9,3.59 0.45,-5.83 0.22,2.91 0.45,0.45 0.45,-5.38 0.9,0.89 0.45,4.27 0.22,9.42 0.45,-4.93 0.23,-6.51 1.12,7.18 0.22,2.24 0.45,-2.02 0.23,3.37 0.45,-0.9 1.34,4.27 0.45,-0.9 0.22,-6.96 0.45,3.59 0.9,2.47 0.45,-4.71 0.22,0.22 0.45,-0.45 0.23,1.8 1.12,-2.92 0.22,-4.04 0.45,0 0.23,-2.24 0.45,0.9 1.12,-1.13 0.22,-1.57 0.45,-1.57 0.23,-0.22 0.44,0 0.9,0.89 0.45,-0.44 0.23,-1.58 0.44,4.04 0.23,-2.69 1.12,-0.45 0.23,0.23 0.44,0 0.45,0 0.23,0.67 1.12,-2.02 0.22,0.22 0.45,-1.57 0.23,-4.04 0.45,-0.44 0.89,-0.68 0.45,-0.45 0.23,-3.36 0.45,-1.8 0.22,-2.24 1.12,4.04 0.45,10.99 0.23,-2.69 0.44,1.57 0.23,2.69 1.12,1.35 0.23,2.47 0.44,0.22 0.23,-2.46 0.45,-2.25 0.9,6.06 0.44,-2.02 0.23,-2.92 0.45,-3.59 0.45,0.9 0.89,-2.24 0.45,1.34 0.23,-1.57 0.67,-6.73 1.12,5.61 0.23,-1.8 0.45,0.45 0.22,-5.83 0.45,-0.9 0.9,-2.02 0.45,-1.79 0.44,0.44 0.23,3.15 0.45,-2.02 0.9,-2.92 0.44,0 0.23,-0.23 0.45,1.8 0.22,-1.57 1.12,-2.02 0.23,1.79 0.45,-1.57 0.22,-0.22 1.57,0 0.23,-2.02 0.45,-4.04 0.22,2.47 0.45,2.02 0.9,3.36 0.45,-4.71 0.22,-2.47 0.45,0.23 0.22,1.12 1.12,2.24 0.23,1.8 0.45,4.94 0.22,-3.59 0.45,-0.68 1.35,3.59 0.45,-8.3 0.22,-1.35 0.45,2.7 0.9,-2.02 0.45,-0.9 0.22,1.35 0.45,-4.27 0.22,-3.81 1.13,0.89 0.45,0 0.22,0 0.45,0 0.22,1.58 1.12,0 0.23,-1.8 0.45,-0.22 0.22,-0.9 0.45,0.67 0.9,3.14 0.45,2.47 0.22,0.45 0.45,-0.9 0.23,-2.02 1.57,-2.69 0.22,0.45 0.45,-2.47 0.22,1.57 1.13,0.45 0.22,3.81 0.45,-2.69 0.22,1.57 0.45,0 0.9,-1.34 0.45,-3.59 0.22,-1.8 0.45,1.12 0.45,-0.22 0.9,-8.31 0.45,0.23 0.22,2.69 0.45,0.68 0.23,0 1.12,-1.35 0.22,2.24 0.45,3.37 0.23,-0.67 0.44,-3.37 0.9,3.14 0.45,4.49 0.45,5.16 0.22,-3.59 0.45,1.12 0.9,3.37 0.45,0 0.22,-0.23 0.45,-2.02 0.23,2.92 1.12,-7.85 0.22,4.49 0.45,-1.8 0.23,3.59 1.57,0 0.22,-4.26 0.45,0.67 0.22,-4.04 0.45,0.9 0.9,-1.8 0.45,3.82 0.22,0.45 0.45,1.79 0.23,3.82 1.12,0 0.22,0.22 0.45,-3.14 0.45,-0.45 0.23,-4.26 1.12,0 0.22,-3.59 0.45,1.57 0.23,-1.57 0.45,2.91 0.89,1.13 0.45,1.34 0.23,0.68 0.44,-2.02 0.23,0.22 1.12,-1.57 0.45,-1.57 0.22,-3.59 0.45,-0.9 0.23,0.9 1.34,1.79 0.45,5.61 0.23,-2.69 0.45,0 0.89,3.59 0.45,0.68 0.23,4.48 0.45,-3.36 0.22,1.34 1.12,-2.91 0.45,2.24 0.23,-0.67 0.44,-2.47 0.23,1.57 1.35,2.69 0.44,-3.36 0.23,1.57 0.45,2.24 0.9,3.59 0.44,0.45 0.45,-2.92 0.23,0.9 0.45,0 1.34,-1.79 0.23,-2.47 0.45,-1.8 0.22,-1.79 1.12,-0.68 0.23,-5.16 0.45,0.45 0.22,-2.92 0.45,2.92 1.12,-3.37 0.23,-0.22 0.44,0.45 0.23,0.67 0.45,0.23 0.9,-4.94 0.44,0.45 0.23,-2.47 0.45,-1.57 0.22,-2.69 1.12,-0.23 0.23,-0.9 0.45,0.23 0.22,1.12 0.45,2.47 1.12,-2.47 0.23,0.67 0.45,-1.57 0.22,1.12 0.45,2.02 0.9,1.8 0.45,-1.12 0.22,1.12 0.45,-2.02 0.22,0.67 1.13,2.02 0.22,-1.12 0.45,-1.57 0.45,3.81 0.22,0.9 1.12,0.23 0.23,-0.45 0.45,2.47 0.22,-0.68 0.45,-1.57 1.35,-2.02 0.22,-0.22 0.45,-1.35 0.22,1.35 1.13,0 0.45,0.45 0.22,-0.9 0.45,0.45 0.22,-0.45 1.12,-0.9 0.23,-0.22 0.45,-1.57 0.22,-1.8 0.45,0 0.9,1.12 0.45,2.7 0.22,-1.13 0.45,-3.14 0.45,-4.71 0.9,1.8 0.45,0 0.22,3.14 0.45,-1.8 0.22,-0.9 1.13,-3.81 0.22,-1.35 0.45,-0.67 0.22,-1.8 0.45,1.57 0.9,0 0.45,1.13 0.45,-2.25 0.22,0.45 0.45,0 0.9,-3.69 0.45,1.9 0.22,0.44 0.45,0.9 0.23,-1.79 1.12,0 0.22,2.69 0.45,1.57 0.23,0.23 0.44,2.24 1.13,3.14 0.22,-1.34 0.45,-1.13 0.22,-1.12 0.45,5.84 0.9,-0.45 0.45,5.61 0.22,-2.02 0.45,0.22 0.23,-1.79 1.12,-0.9 0.22,-2.25 0.45,0 0.68,-0.67 1.12,0.9 0.22,3.81 0.45,5.39 0.23,-0.67 0.44,0.45 0.9,8.3 0.45,-0.23 0.22,-0.67 0.45,12.79 0.23,0.68 1.12,-4.94 0.45,-2.02 0.22,-0.22 0.45,-1.8 0.23,-1.12 1.12,-0.23 0.22,-2.91 0.45,0.44 0.23,4.27 0.45,-1.12 1.34,0 0.23,0.67 0.44,-1.12 0.23,0.9 1.57,4.71 0.22,1.79 0.45,-1.34 0.23,3.59 1.12,4.04 0.22,0.89 0.45,-2.46 0.23,-1.8 0.45,1.35 1.34,0.9 0.23,2.91 0.45,0.68 0.45,0.89 0.89,0 0.45,0 0.23,0 0.44,1.8 0.23,-0.23 1.12,-6.73 0.23,1.12 0.44,-2.46 0.23,0.44 0.45,-4.04 1.12,-3.36 0.22,1.12 0.45,-3.59 0.23,2.47 0.45,-2.47 0.89,-1.35 0.45,0.45 0.23,-2.02 0.45,0.68 0.22,-0.9 1.35,-2.02 0.45,0.45 0.22,1.34 0.45,-1.12 1.12,0.67 0.23,1.35 0.44,4.49 0.23,-6.06 0.45,0.45 0.9,-0.67 0.44,-2.92 0.23,-1.57 0.45,-0.23 0.22,-2.24 1.12,1.35 0.23,-1.35 0.45,-0.67 0.45,0.44 0.22,-0.44 1.12,-3.15 0.23,2.47 0.45,1.12 0.22,1.13 0.45,-1.13 0.9,-1.34 0.45,3.14 0.22,0 0.45,5.61 0.22,-0.22 1.13,-3.37 0.44,-1.12 0.23,0 0.45,0.22 1.34,0 0.23,0.23 0.45,-1.13 0.22,0 0.45,0.45 0.9,0.45 0.45,-1.57 0.22,-1.57 0.45,1.8 0.45,-3.15 0.9,-1.57 0.45,-0.22 0.22,1.79 0.45,0.9 0.22,0.9 1.13,0 0.22,-1.12 0.45,-0.45 0.22,1.79 0.45,1.57 0.9,0 0.45,-0.67 0.45,-1.35 0.22,0.9 0.45,-1.12 0.9,1.57 0.45,-1.35 0.22,-2.69 0.45,0.45 0.22,0.45 1.13,0 0.22,-1.12 0.45,-0.9 0.22,-1.57 0.45,0 1.35,-0.23 0.45,1.8 0.22,0.9 0.45,1.34 0.9,-0.22 0.45,-2.92 0.22,1.8 0.45,-2.25 0.23,0.23 1.12,0.9 0.22,-0.45 0.45,1.12 0.23,0.67 0.44,2.47 1.35,-1.8 0.45,-1.57 0.22,0 0.45,-0.89 0.9,1.34 0.45,0.68 0.22,-0.23 0.45,-0.45 0.23,-0.22 1.12,1.79 0.67,0.68 0.45,-2.02 0.23,-0.45 1.12,-0.9 0.22,3.14 0.45,2.25 0.23,0 0.44,0 0.9,0 0.45,-0.68 0.22,-1.12 0.45,0.67 0.23,0.68 1.12,-1.35 0.45,0.9 0.22,-0.9 0.45,1.8 0.23,4.04 1.12,1.57 0.22,-0.23 0.45,-1.34 0.23,-0.45 0.45,1.57 0.89,-0.67 0.45,-1.13 0.23,1.35 0.45,0.45 0.44,-1.12 0.9,0 0.45,-0.68 0.22,-0.67 0.45,2.69 0.23,-1.34 1.12,0 0.22,1.79 0.45,1.57 0.23,2.47 0.45,0.45 0.89,-0.22 0.45,1.57 0.45,0.89 0.23,-0.89 0.45,0 1.34,-0.68 0.23,-0.22 0.44,-0.67 0.23,0 1.12,-1.35 0.23,-1.8 0.44,-0.45 0.23,-0.67 0.45,0.45 1.12,1.35 0.22,-0.45 0.45,-1.12 0.23,-0.68 0.45,2.02 0.89,-2.24 0.45,-0.45 0.23,-1.12 0.45,-0.68 0.22,1.13 1.12,0 0.23,0.22 0.45,-2.02 0.44,0.45 0.23,0.45 1.12,0.45 0.23,1.12 0.44,-0.45 0.23,3.14 0.45,-0.9 0.9,-0.89 0.44,0 0.23,-0.45 0.45,-2.02 0.22,-1.35 1.12,0 0.45,1.35 0.23,0.22 0.45,-0.89 0.22,-0.45 1.12,0 0.23,-2.92 0.45,-0.23 0.22,0.9 0.45,1.57 0.9,1.57 0.45,0 0.22,0 0.45,-0.67 0.22,-1.35 1.13,1.8 0.44,-1.12 0.23,0.67 0.45,-0.22 0.22,-1.57 1.12,0.89 0.23,0.68 0.45,0.45 0.67,-0.23 0.9,0.23 0.45,0.67 0.45,-2.47 0.22,0.67 0.45,-1.57 0.9,-1.79 0.45,-2.47 0.22,0.22 0.45,-0.89 0.22,-1.8 1.13,1.8 0.22,0.22 0.45,-0.67 0.22,-0.23 0.45,0.9 1.12,-0.9 0.23,-0.67 0.45,0 0.22,-0.23 0.45,-1.57 1.35,0 0.22,-0.22 0.45,1.79 0.22,0.23 1.35,-0.67 0.45,-0.45 0.22,-0.68 0.45,-1.34 1.13,-0.68 0.22,0.68 0.45,2.24 0.22,-0.22 0.45,0.45 1.35,-0.23 0.22,-1.57 0.45,-0.45 0.23,-0.9 1.12,-3.14 0.22,1.35 0.45,1.57 0.45,0.67 0.22,-1.12 1.13,0.67 0.22,-1.57 0.45,-1.12 0.22,0.67 0.45,-1.34 0.9,-0.45 0.45,2.24 0.22,-0.89 0.45,0.44 0.23,-0.89 1.12,0 0.45,0 0.22,0.67 0.45,0.45 0.23,1.79 1.34,-1.57 0.45,1.12 0.23,0.23 0.44,1.79 0.9,-1.12 0.45,0.68 0.23,-2.02 0.44,1.12 0.45,3.36 0.9,1.35 0.45,-2.24 0.22,1.79 0.45,-0.9 0.23,-0.67 1.12,2.25 0.22,2.69 0.45,0.22 0.23,0.45 0.45,-0.22 0.89,0 0.45,-0.9 0.45,0 0.23,7.63 0.44,-1.8 0.9,-0.89 0.45,1.34 0.22,0.23 0.45,0.67 1.35,0 0.22,2.02 0.45,-0.67 0.23,0 0.45,-0.45 1.12,0 0.22,-0.23 0.45,-1.34 0.23,2.91 0.45,2.02 0.89,-0.67 0.45,-1.35 0.23,0.45 0.45,2.25 0.22,-0.9 1.12,2.69 0.23,1.8 0.44,-1.57 0.45,0.45 0.23,-0.23 1.12,-0.22 0.22,0.22 0.45,0 0.23,1.35 0.45,0 0.89,0.9 0.45,2.46 0.23,-2.02 0.45,0 0.22,-1.34 1.12,2.02 0.45,0.9 0.23,0 0.44,0.89 0.23,-2.02 1.12,0.68 0.23,-2.25 0.44,-0.89 0.23,-1.13 0.45,-0.22 1.34,2.24 0.23,0 0.45,1.8 0.22,0 1.12,2.47 0.45,-0.45 0.23,-0.9 0.45,1.12 0.22,-1.12 1.12,0 0.23,-0.45 0.45,0.45 0.22,1.12 0.45,0.9 0.9,-1.35 0.45,0.9 0.67,0.23 0.45,-3.15 0.9,0 0.44,-2.02 0.23,0.23 0.45,-0.9 0.22,2.47 1.12,0 0.23,-3.59 0.45,-1.12 0.67,-1.13 0.9,0.45 0.45,1.13 0.45,0.67 0.22,0.9 0.45,2.91 0.9,-1.57 0.45,-0.89 0.22,-4.04 0.45,-2.25 0.22,3.82 1.13,-2.7 0.22,-0.22 0.45,-0.23 0.22,-4.48 0.45,1.57 1.12,0.67 0.23,-0.45 0.45,2.25 0.22,-2.02 0.45,-1.8 0.9,-3.59 0.45,0.9 0.22,2.69 0.45,0 0.22,-0.45 1.13,0.23 0.22,-0.23 0.45,-0.45 0.45,-1.57 0.22,1.12 1.13,2.7 0.22,-2.47 0.45,1.79 0.22,1.35 0.45,-0.22 0.9,-1.13 0.45,-0.89 0.22,0.22 0.45,-0.9 0.23,0.45 1.57,1.35 0.22,0 0.45,1.35 0.22,0 1.13,-0.68 0.22,-0.45 0.45,0 0.22,1.35 0.45,-0.45 0.9,0.23 0.45,0.22 0.22,0 0.45,-0.67 0.23,0.67 1.12,-1.12 0.45,-1.8 0.22,-0.45 0.45,4.94 0.23,0.22 1.12,1.35 0.22,0 0.45,3.59 0.23,-2.92 0.44,1.8 0.9,0 0.45,-0.22 0.45,1.12 0.22,2.24 0.45,0 0.9,0.67 0.45,0.23 0.22,-0.45 0.45,0.9 0.23,4.04 1.12,-2.02 0.22,-8.08 0.45,7.85 0.23,-0.67 0.45,-4.04 1.12,-1.35 0.22,3.15 0.45,-1.13 0.23,-1.12 0.44,0.9 0.9,0.67 0.45,-1.79 0.23,0 0.44,-0.68 0.23,2.7 1.12,1.79 0.22,-2.91 0.45,0.67 0.23,0 0.45,2.92 1.12,-0.45 0.22,1.34 0.45,0 0.23,2.7 0.45,1.79 0.89,3.59 0.45,-0.67 0.23,2.24 0.67,0.23 1.12,1.12 0.23,-0.45 0.44,-2.69 0.45,-0.68 0.23,2.92 1.12,-0.22 0.22,-1.35 0.45,-0.67 0.23,1.34 0.45,-0.44 0.89,1.57 0.45,-0.68 0.23,0.23 0.45,0.22 0.22,-1.34 1.12,-4.49 0.45,-1.57 0.68,0 0.22,-0.9 1.12,-0.23 0.23,2.7 0.67,1.12 0.45,2.02 0.9,-4.71 0.44,-0.45 0.23,-2.7 0.9,0.45 0.89,-1.57 0.45,-0.45 0.23,-1.57 0.45,2.47 0.22,1.8 1.35,3.14 0.45,0.9 0.22,-3.82 0.45,1.57 0.9,1.35 0.45,0.22 0.44,0 0.23,0 0.45,0 0.9,-2.69 0.44,7.63 0.23,-1.35 0.45,-1.34 0.22,0.89 1.12,-6.95 0.23,1.57 0.45,0 0.22,-0.67 0.45,4.26 1.35,1.12 0.45,-0.9 0.22,-4.48 0.45,1.79 0.9,0.67 0.45,-0.22 0.22,0.67 0.45,-1.34 0.22,-2.25 1.13,2.7 0.22,-0.9 0.45,4.49 0.45,-1.57 0.22,0 1.12,5.16 0.23,2.91 0.45,-1.79 0.22,0.9 0.45,2.24 0.9,5.16 0.45,1.57 0.22,0.68 0.45,-1.57 0.22,0.22 1.13,0.45 0.45,-5.16 0.22,-9.43 0.45,4.04 0.22,-0.9 1.13,0.9 0.22,4.04 0.45,-0.67 0.22,0 0.45,0 0.9,-17.51 0.45,3.14 0.22,2.47 0.45,2.7 0.23,2.69 1.12,4.26 0.45,2.92 0.22,-2.92 0.45,1.57 1.35,0 0.22,1.57 0.45,0 0.22,0.45 0.45,-4.48 0.9,9.2 0.45,1.57 0.22,-2.25 0.45,0 0.45,1.57 0.9,0 0.45,-2.02 0.22,-5.61 0.45,-2.46 0.23,5.16 1.12,-2.47 0.22,2.24 0.45,0 0.23,1.12 0.44,-0.44 1.13,4.71 0.22,0 0.45,3.14 0.22,2.92 0.45,-1.8 1.35,4.72 0.22,-7.19 0.45,3.37 0.23,-2.02 1.12,3.14 0.22,1.57 0.45,4.72 0.23,-1.35 0.45,0 1.12,2.02 0.22,1.79 0.45,3.6 0.23,-2.47 0.44,2.24 0.9,0.67 0.45,-6.95 0.23,0.89 0.67,-8.97 1.12,-0.23 0.22,1.13 0.45,-3.37 0.45,1.79 0.23,1.8 1.12,2.69 0.22,0 0.45,-3.14 0.23,-3.81 1.34,0.45 0.45,3.59 0.23,-1.13 0.45,-0.45 0.22,-3.81 1.12,-1.35 0.45,-7.4 0.23,-4.27 0.44,-1.79 0.23,-3.59 1.12,-0.45 0.22,1.35 0.45,-2.7 0.23,2.7 0.45,-2.02 0.89,0.44 0.45,3.6 0.23,-1.35 0.45,-4.94 0.45,-0.67 0.89,1.57 0.45,1.57 0.23,5.16 0.45,0.67 0.22,-0.22 1.12,-2.02 0.23,-1.35 0.44,0.23 0.23,1.35 0.45,-0.9 0.9,3.36 0.44,-0.89 0.45,-3.59 0.23,0.22 0.45,-2.02 0.89,-0.45 0.45,1.8 0.23,-2.92 0.45,0.22 0.22,-0.45 1.35,-3.14 0.45,1.12 0.22,-1.79 0.45,0.67 1.12,-4.71 0.23,0.22 0.44,-2.69 0.23,-0.45 0.45,0.68 0.9,-3.82 0.44,-0.9 0.23,-0.22 0.45,2.24 0.22,0.68 1.12,-0.9 0.23,-0.67 0.45,-1.13 0.22,0.68 0.45,0.67 1.12,-1.12 0.23,1.12 0.45,0 0.22,-2.69 0.45,0.22 0.9,0 0.45,0 0.22,-0.22 0.45,1.34 0.22,-0.45 1.13,0.23 0.44,0.22 0.23,2.02 0.45,2.92 0.22,-2.47 1.12,-1.12 0.23,-6.96 0.45,0.45 0.22,-4.26 0.45,-0.68 0.9,0.45 0.45,-0.89 0.22,0 0.45,0 0.22,-1.35 1.13,0.67 0.45,-1.57 0.22,0 0.45,0 0.22,-2.24 1.13,2.69 0.22,0 0.4,0"/>
      </g>
    </g>
    <g id="g48">
      <g clip-path="url(#clipPath52)" id="g50"><text id="text56" style="font-variant:normal;font-weight:normal;font-size:16.8239994px;font-family:Arial;-inkscape-font-specification:Arial;writing-mode:lr-tb;fill:#595959;fill-opacity:1;fill-rule:nonzero;stroke:none" transform="matrix(1,0,0,-1,83.352,173.4)"><tspan id="tspan58" y="0" x="0">0</tspan></text>
</g>
    </g>
    <g id="g60">
      <g clip-path="url(#clipPath64)" id="g62"><text id="text68" style="font-variant:normal;font-weight:normal;font-size:16.84799957px;font-family:Arial;-inkscape-font-specification:Arial;writing-mode:lr-tb;fill:#595959;fill-opacity:1;fill-rule:nonzero;stroke:none" transform="matrix(1,0,0,-1,73.992,219.86)"><tspan id="tspan70" y="0" x="0 9.4319878">20</tspan></text>
</g>
    </g>
    <g id="g72">
      <g clip-path="url(#clipPath76)" id="g74"><text id="text80" style="font-variant:normal;font-weight:normal;font-size:16.8239994px;font-family:Arial;-inkscape-font-specification:Arial;writing-mode:lr-tb;fill:#595959;fill-opacity:1;fill-rule:nonzero;stroke:none" transform="matrix(1,0,0,-1,73.992,266.3)"><tspan id="tspan82" y="0" x="0 9.432044">40</tspan></text>
</g>
    </g>
    <g id="g84">
      <g clip-path="url(#clipPath88)" id="g86"><text id="text92" style="font-variant:normal;font-weight:normal;font-size:16.8239994px;font-family:Arial;-inkscape-font-specification:Arial;writing-mode:lr-tb;fill:#595959;fill-opacity:1;fill-rule:nonzero;stroke:none" transform="matrix(1,0,0,-1,73.992,312.74)"><tspan id="tspan94" y="0" x="0 9.432044">60</tspan></text>
</g>
    </g>
    <g id="g96">
      <g clip-path="url(#clipPath100)" id="g98"><text id="text104" style="font-variant:normal;font-weight:normal;font-size:16.84799957px;font-family:Arial;-inkscape-font-specification:Arial;writing-mode:lr-tb;fill:#595959;fill-opacity:1;fill-rule:nonzero;stroke:none" transform="matrix(1,0,0,-1,73.992,359.21)"><tspan id="tspan106" y="0" x="0 9.4319878">80</tspan></text>
</g>
    </g>
    <g id="g108">
      <g clip-path="url(#clipPath112)" id="g110"><text id="text116" style="font-variant:normal;font-weight:normal;font-size:16.8239994px;font-family:Arial;-inkscape-font-specification:Arial;writing-mode:lr-tb;fill:#595959;fill-opacity:1;fill-rule:nonzero;stroke:none" transform="matrix(1,0,0,-1,64.632,405.65)"><tspan id="tspan118" y="0" x="0 9.4214401 18.640991">100</tspan></text>
</g>
    </g>
    <g id="g120">
      <g clip-path="url(#clipPath124)" id="g122"><text id="text128" style="font-variant:normal;font-weight:normal;font-size:16.84799957px;font-family:Arial;-inkscape-font-specification:Arial;writing-mode:lr-tb;fill:#595959;fill-opacity:1;fill-rule:nonzero;stroke:none" transform="matrix(1,0,0,-1,64.632,452.11)"><tspan id="tspan130" y="0" x="0 9.4180317 18.633888">120</tspan></text>
</g>
    </g>
    <g id="g132">
      <g clip-path="url(#clipPath136)" id="g134"><text id="text140" style="font-variant:normal;font-weight:normal;font-size:16.8239994px;font-family:Arial;-inkscape-font-specification:Arial;writing-mode:lr-tb;fill:#595959;fill-opacity:1;fill-rule:nonzero;stroke:none" transform="matrix(-4.4e-8,1,1,4.4e-8,113.23,114.36)"><tspan id="tspan142" y="0" x="0 12.146928 21.534719 29.845776 35.44817 44.86961">Dec-20</tspan></text>
</g>
    </g>
    <g id="g144">
      <g clip-path="url(#clipPath148)" id="g146"><text id="text152" style="font-variant:normal;font-weight:normal;font-size:16.84799957px;font-family:Arial;-inkscape-font-specification:Arial;writing-mode:lr-tb;fill:#595959;fill-opacity:1;fill-rule:nonzero;stroke:none" transform="matrix(-4.4e-8,1,1,4.4e-8,144.07,115.32)"><tspan id="tspan154" y="0" x="0 13.8996 23.267088 28.877472 34.487858 43.855343">Mar-21</tspan></text>
</g>
    </g>
    <g id="g156">
      <g clip-path="url(#clipPath160)" id="g158"><text id="text164" style="font-variant:normal;font-weight:normal;font-size:16.8239994px;font-family:Arial;-inkscape-font-specification:Arial;writing-mode:lr-tb;fill:#595959;fill-opacity:1;fill-rule:nonzero;stroke:none" transform="matrix(-4.4e-8,1,1,4.4e-8,175.61,117.14)"><tspan id="tspan166" y="0" x="0 8.529768 17.749319 27.170759 32.773151 42.194592">Jun-21</tspan></text>
</g>
    </g>
    <g id="g168">
      <g clip-path="url(#clipPath172)" id="g170"><text id="text176" style="font-variant:normal;font-weight:normal;font-size:16.8239994px;font-family:Arial;-inkscape-font-specification:Arial;writing-mode:lr-tb;fill:#595959;fill-opacity:1;fill-rule:nonzero;stroke:none" transform="matrix(-4.4e-8,1,1,4.4e-8,207.14,114.34)"><tspan id="tspan178" y="0" x="0 11.221608 20.643047 29.828953 35.431343 44.852783">Sep-21</tspan></text>
</g>
    </g>
    <g id="g180">
      <g clip-path="url(#clipPath184)" id="g182"><text id="text188" style="font-variant:normal;font-weight:normal;font-size:16.84799957px;font-family:Arial;-inkscape-font-specification:Arial;writing-mode:lr-tb;fill:#595959;fill-opacity:1;fill-rule:nonzero;stroke:none" transform="matrix(-4.4e-8,1,1,4.4e-8,238.32,114.36)"><tspan id="tspan190" y="0" x="0 12.164256 21.531744 29.854656 35.465038 44.883072">Dec-21</tspan></text>
</g>
    </g>
    <g id="g192">
      <g clip-path="url(#clipPath196)" id="g194"><text id="text200" style="font-variant:normal;font-weight:normal;font-size:16.8239994px;font-family:Arial;-inkscape-font-specification:Arial;writing-mode:lr-tb;fill:#595959;fill-opacity:1;fill-rule:nonzero;stroke:none" transform="matrix(-4.4e-8,1,1,4.4e-8,269.18,115.32)"><tspan id="tspan202" y="0" x="0 13.896624 23.284416 28.886808 34.489201 43.843346">Mar-22</tspan></text>
</g>
    </g>
    <g id="g204">
      <g clip-path="url(#clipPath208)" id="g206"><text id="text212" style="font-variant:normal;font-weight:normal;font-size:16.8239994px;font-family:Arial;-inkscape-font-specification:Arial;writing-mode:lr-tb;fill:#595959;fill-opacity:1;fill-rule:nonzero;stroke:none" transform="matrix(-4.4e-8,1,1,4.4e-8,300.72,117.14)"><tspan id="tspan214" y="0" x="0 8.529768 17.749319 27.170759 32.773151 42.194592">Jun-22</tspan></text>
</g>
    </g>
    <g id="g216">
      <g clip-path="url(#clipPath220)" id="g218"><text id="text224" style="font-variant:normal;font-weight:normal;font-size:16.84799957px;font-family:Arial;-inkscape-font-specification:Arial;writing-mode:lr-tb;fill:#595959;fill-opacity:1;fill-rule:nonzero;stroke:none" transform="matrix(-4.4e-8,1,1,4.4e-8,332.23,114.34)"><tspan id="tspan226" y="0" x="0 11.237616 20.6388 29.837809 35.448193 44.866222">Sep-22</tspan></text>
</g>
    </g>
    <g id="g228">
      <g clip-path="url(#clipPath232)" id="g230"><text id="text236" style="font-variant:normal;font-weight:normal;font-size:16.8239994px;font-family:Arial;-inkscape-font-specification:Arial;writing-mode:lr-tb;fill:#595959;fill-opacity:1;fill-rule:nonzero;stroke:none" transform="matrix(-4.4e-8,1,1,4.4e-8,363.43,114.36)"><tspan id="tspan238" y="0" x="0 12.146928 21.534719 29.845776 35.44817 44.86961">Dec-22</tspan></text>
</g>
    </g>
    <g id="g240">
      <g clip-path="url(#clipPath244)" id="g242"><text id="text248" style="font-variant:normal;font-weight:normal;font-size:16.84799957px;font-family:Arial;-inkscape-font-specification:Arial;writing-mode:lr-tb;fill:#595959;fill-opacity:1;fill-rule:nonzero;stroke:none" transform="matrix(-4.4e-8,1,1,4.4e-8,394.27,115.32)"><tspan id="tspan250" y="0" x="0 13.8996 23.267088 28.877472 34.487858 43.855343">Mar-23</tspan></text>
</g>
    </g>
    <g id="g252">
      <g clip-path="url(#clipPath256)" id="g254"><text id="text260" style="font-variant:normal;font-weight:normal;font-size:16.8239994px;font-family:Arial;-inkscape-font-specification:Arial;writing-mode:lr-tb;fill:#595959;fill-opacity:1;fill-rule:nonzero;stroke:none" transform="matrix(-4.4e-8,1,1,4.4e-8,425.81,117.14)"><tspan id="tspan262" y="0" x="0 8.529768 17.749319 27.170759 32.773151 42.194592">Jun-23</tspan></text>
</g>
    </g>
    <g id="g264">
      <g clip-path="url(#clipPath268)" id="g266"><text id="text272" style="font-variant:normal;font-weight:normal;font-size:16.8239994px;font-family:Arial;-inkscape-font-specification:Arial;writing-mode:lr-tb;fill:#595959;fill-opacity:1;fill-rule:nonzero;stroke:none" transform="matrix(-4.4e-8,1,1,4.4e-8,457.34,114.34)"><tspan id="tspan274" y="0" x="0 11.221608 20.643047 29.828953 35.431343 44.852783">Sep-23</tspan></text>
</g>
    </g>
    <g id="g276">
      <g clip-path="url(#clipPath280)" id="g278"><text id="text284" style="font-variant:normal;font-weight:normal;font-size:16.84799957px;font-family:Arial;-inkscape-font-specification:Arial;writing-mode:lr-tb;fill:#595959;fill-opacity:1;fill-rule:nonzero;stroke:none" transform="matrix(-4.4e-8,1,1,4.4e-8,488.52,114.36)"><tspan id="tspan286" y="0" x="0 12.164256 21.531744 29.854656 35.465038 44.883072">Dec-23</tspan></text>
</g>
    </g>
    <g id="g288">
      <g clip-path="url(#clipPath292)" id="g290"><text id="text296" style="font-variant:normal;font-weight:normal;font-size:16.8239994px;font-family:Arial;-inkscape-font-specification:Arial;writing-mode:lr-tb;fill:#595959;fill-opacity:1;fill-rule:nonzero;stroke:none" transform="matrix(-4.4e-8,1,1,4.4e-8,519.72,115.32)"><tspan id="tspan298" y="0" x="0 13.896624 23.284416 28.886808 34.489201 43.843346">Mar-24</tspan></text>
</g>
    </g>
    <g id="g300">
      <g clip-path="url(#clipPath304)" id="g302"><text id="text308" style="font-variant:normal;font-weight:normal;font-size:16.8239994px;font-family:Arial;-inkscape-font-specification:Arial;writing-mode:lr-tb;fill:#595959;fill-opacity:1;fill-rule:nonzero;stroke:none" transform="matrix(-4.4e-8,1,1,4.4e-8,551.26,117.14)"><tspan id="tspan310" y="0" x="0 8.529768 17.749319 27.170759 32.773151 42.194592">Jun-24</tspan></text>
</g>
    </g>
    <g id="g312">
      <g clip-path="url(#clipPath316)" id="g314"><text id="text320" style="font-variant:normal;font-weight:normal;font-size:16.84799957px;font-family:Arial;-inkscape-font-specification:Arial;writing-mode:lr-tb;fill:#595959;fill-opacity:1;fill-rule:nonzero;stroke:none" transform="matrix(-4.4e-8,1,1,4.4e-8,582.77,114.34)"><tspan id="tspan322" y="0" x="0 11.237616 20.6388 29.837809 35.448193 44.866222">Sep-24</tspan></text>
</g>
    </g>
    <g id="g324">
      <g clip-path="url(#clipPath328)" id="g326"><text id="text332" style="font-variant:normal;font-weight:normal;font-size:16.8239994px;font-family:Arial;-inkscape-font-specification:Arial;writing-mode:lr-tb;fill:#595959;fill-opacity:1;fill-rule:nonzero;stroke:none" transform="matrix(-4.4e-8,1,1,4.4e-8,613.97,114.36)"><tspan id="tspan334" y="0" x="0 12.146928 21.534719 29.845776 35.44817 44.86961">Dec-24</tspan></text>
</g>
    </g>
    <g id="g336">
      <g clip-path="url(#clipPath340)" id="g338"><text id="text344" style="font-variant:normal;font-weight:normal;font-size:16.84799957px;font-family:Arial;-inkscape-font-specification:Arial;writing-mode:lr-tb;fill:#595959;fill-opacity:1;fill-rule:nonzero;stroke:none" transform="matrix(-4.4e-8,1,1,4.4e-8,644.81,115.32)"><tspan id="tspan346" y="0" x="0 13.8996 23.267088 28.877472 34.487858 43.855343">Mar-25</tspan></text>
</g>
    </g>
    <g id="g348">
      <g clip-path="url(#clipPath352)" id="g350"><text id="text356" style="font-variant:normal;font-weight:normal;font-size:16.8239994px;font-family:Arial;-inkscape-font-specification:Arial;writing-mode:lr-tb;fill:#595959;fill-opacity:1;fill-rule:nonzero;stroke:none" transform="matrix(-4.4e-8,1,1,4.4e-8,676.34,117.14)"><tspan id="tspan358" y="0" x="0 8.529768 17.749319 27.170759 32.773151 42.194592">Jun-25</tspan></text>
</g>
    </g>
    <g id="g360">
      <g clip-path="url(#clipPath364)" id="g362"><text id="text368" style="font-variant:normal;font-weight:normal;font-size:16.8239994px;font-family:Arial;-inkscape-font-specification:Arial;writing-mode:lr-tb;fill:#595959;fill-opacity:1;fill-rule:nonzero;stroke:none" transform="matrix(-4.4e-8,1,1,4.4e-8,707.88,114.34)"><tspan id="tspan370" y="0" x="0 11.221608 20.643047 29.828953 35.431343 44.852783">Sep-25</tspan></text>
</g>
    </g>
    <g id="g372">
      <g clip-path="url(#clipPath376)" id="g374"><text id="text380" style="font-variant:normal;font-weight:bold;font-size:22.44000053px;font-family:Arial;-inkscape-font-specification:'Arial Bold';writing-mode:lr-tb;fill:#595959;fill-opacity:1;fill-rule:nonzero;stroke:none" transform="matrix(1,0,0,-1,56.328,481.63)"><tspan id="tspan382" y="0" x="0 15.0348 21.273121 36.352798 42.43404 49.906559 62.383202">P/E (x)</tspan></text>
</g>
    </g>
    <g id="g384">
      <g clip-path="url(#clipPath388)" id="g386"><text id="text392" style="font-variant:normal;font-weight:bold;font-size:22.44000053px;font-family:Arial;-inkscape-font-specification:'Arial Bold';writing-mode:lr-tb;fill:#595959;fill-opacity:1;fill-rule:nonzero;stroke:none" transform="matrix(1,0,0,-1,126.14,481.63)"><tspan id="tspan394" y="0" x="0">-</tspan></text>
</g>
    </g>
    <g id="g396">
      <g clip-path="url(#clipPath400)" id="g398"><text id="text404" style="font-variant:normal;font-weight:bold;font-size:22.44000053px;font-family:Arial;-inkscape-font-specification:'Arial Bold';writing-mode:lr-tb;fill:#595959;fill-opacity:1;fill-rule:nonzero;stroke:none" transform="matrix(1,0,0,-1,133.54,481.63)"><tspan id="tspan406" y="0" x="0 16.201679 29.912519">NTM</tspan></text>
</g>
    </g>
    <g id="g408">
      <g clip-path="url(#clipPath412)" id="g410"><text id="text416" style="font-variant:normal;font-weight:bold;font-size:20.66399956px;font-family:Arial;-inkscape-font-specification:'Arial Bold';writing-mode:lr-tb;fill:#a6a6a6;fill-opacity:1;fill-rule:nonzero;stroke:none" transform="matrix(1,0,0,-1,151.32,408.34)"><tspan id="tspan418" y="0" x="0 13.679568 26.305271">Pop</tspan></text>
</g>
    </g>
    <g id="g420">
      <g clip-path="url(#clipPath424)" id="g422"><text id="text428" style="font-variant:normal;font-weight:bold;font-size:20.66399956px;font-family:Arial;-inkscape-font-specification:'Arial Bold';writing-mode:lr-tb;fill:#a6a6a6;fill-opacity:1;fill-rule:nonzero;stroke:none" transform="matrix(1,0,0,-1,195.98,408.34)"><tspan id="tspan430" y="0" x="0 17.25444 28.743624 36.781921">Mart</tspan></text>
</g>
    </g>
    <g id="g432">
      <g clip-path="url(#clipPath436)" id="g434">
        <path id="path440" style="fill:none;stroke:#000000;stroke-width:0.14;stroke-linecap:butt;stroke-linejoin:miter;stroke-miterlimit:10;stroke-dasharray:none;stroke-opacity:0" d="m 50.502,-286.61 690.99,0 0,399.22 -690.99,0 0,-399.22 z"/>
      </g>
    </g>
    <g id="g442">
      <g clip-path="url(#clipPath446)" id="g444">
        <path id="path450" style="fill:#ffffff;fill-opacity:1;fill-rule:evenodd;stroke:none" d="m 50.503,-286.61 690.99,0 0,399.22 -690.99,0 0,-399.22 z"/>
      </g>
    </g>
    <g id="g452">
      <g clip-path="url(#clipPath456)" id="g454"><text id="text460" style="font-variant:normal;font-weight:bold;font-size:22.44000053px;font-family:Arial;-inkscape-font-specification:'Arial Bold';writing-mode:lr-tb;fill:#595959;fill-opacity:1;fill-rule:nonzero;stroke:none" transform="matrix(1,0,0,-1,56.352,88.608)"><tspan id="tspan462" y="0" x="0 15.0348 22.50732 36.218159 48.694801 61.283642 67.364883 82.399681 91.128838 97.434479 109.97844 122.5224 128.60364 136.07616 152.16563 168.36732">Stock Price (HK$</tspan></text>
</g>
    </g>
    <g id="g464">
      <g clip-path="url(#clipPath468)" id="g466"><text id="text472" style="font-variant:normal;font-weight:bold;font-size:22.44000053px;font-family:Arial;-inkscape-font-specification:'Arial Bold';writing-mode:lr-tb;fill:#595959;fill-opacity:1;fill-rule:nonzero;stroke:none" transform="matrix(1,0,0,-1,237.26,88.608)"><tspan id="tspan474" y="0" x="0">)</tspan></text>
</g>
    </g>
  </g>
</svg>
