<?xml version="1.0" encoding="UTF-8" standalone="no"?>
<svg xmlns:dc="http://purl.org/dc/elements/1.1/" xmlns:cc="http://creativecommons.org/ns#" xmlns:rdf="http://www.w3.org/1999/02/22-rdf-syntax-ns#" xmlns:svg="http://www.w3.org/2000/svg" xmlns="http://www.w3.org/2000/svg" viewBox="63 119.875 926.4 504.3725" height="504.3725" width="926.4" xml:space="preserve" version="1.1" id="svg2">
  <metadata id="metadata8">
    <rdf:RDF>
      <cc:Work rdf:about="">
        <dc:format>image/svg+xml</dc:format>
        <dc:type rdf:resource="http://purl.org/dc/dcmitype/StillImage"/>
      </cc:Work>
    </rdf:RDF>
  </metadata>
  <defs id="defs6">
    <clipPath id="clipPath16" clipPathUnits="userSpaceOnUse">
      <path style="clip-rule:evenodd" id="path18" d="m 50.4,95.88 741.12,0 0,403.68 -741.12,0 0,-403.68 z"/>
    </clipPath>
    <linearGradient id="linearGradient34" spreadMethod="pad" gradientUnits="userSpaceOnUse" y2="321.42001" x2="436.07999" y1="269.01001" x1="436.07999">
      <stop id="stop36" offset="0" style="stop-opacity:1;stop-color:#d0b86a"/>
      <stop id="stop38" offset="0.01" style="stop-opacity:1;stop-color:#d0b86a"/>
      <stop id="stop40" offset="0.45" style="stop-opacity:1;stop-color:#ffffff"/>
      <stop id="stop42" offset="0.5" style="stop-opacity:1;stop-color:#ffffff"/>
      <stop id="stop44" offset="0.55" style="stop-opacity:1;stop-color:#ffffff"/>
      <stop id="stop46" offset="0.99" style="stop-opacity:1;stop-color:#d0b86a"/>
      <stop id="stop48" offset="1" style="stop-opacity:1;stop-color:#d0b86a"/>
    </linearGradient>
    <linearGradient id="linearGradient54" spreadMethod="pad" gradientUnits="userSpaceOnUse" y2="478.63" x2="572.53003" y1="321.42001" x1="572.53003">
      <stop id="stop56" offset="0" style="stop-opacity:1;stop-color:#ffffff"/>
      <stop id="stop58" offset="0.05" style="stop-opacity:1;stop-color:#ffffff"/>
      <stop id="stop60" offset="0.49" style="stop-opacity:1;stop-color:#d0b86a"/>
      <stop id="stop62" offset="0.5" style="stop-opacity:1;stop-color:#d0b86a"/>
      <stop id="stop64" offset="0.51" style="stop-opacity:1;stop-color:#d0b86a"/>
      <stop id="stop66" offset="0.95" style="stop-opacity:1;stop-color:#ffffff"/>
      <stop id="stop68" offset="1" style="stop-opacity:1;stop-color:#ffffff"/>
    </linearGradient>
    <clipPath id="clipPath78" clipPathUnits="userSpaceOnUse">
      <path style="clip-rule:evenodd" id="path80" d="m 50.52,96 740.88,0 0,403.44 -740.88,0 0,-403.44 z"/>
    </clipPath>
    <clipPath id="clipPath90" clipPathUnits="userSpaceOnUse">
      <path style="clip-rule:evenodd" id="path92" d="m 50.52,96 740.88,0 0,403.44 -740.88,0 0,-403.44 z"/>
    </clipPath>
    <clipPath id="clipPath102" clipPathUnits="userSpaceOnUse">
      <path style="clip-rule:evenodd" id="path104" d="m 50.52,96 740.88,0 0,403.44 -740.88,0 0,-403.44 z"/>
    </clipPath>
    <clipPath id="clipPath114" clipPathUnits="userSpaceOnUse">
      <path style="clip-rule:evenodd" id="path116" d="m 50.52,96 740.88,0 0,403.44 -740.88,0 0,-403.44 z"/>
    </clipPath>
    <clipPath id="clipPath126" clipPathUnits="userSpaceOnUse">
      <path style="clip-rule:evenodd" id="path128" d="m 50.52,96 740.88,0 0,403.44 -740.88,0 0,-403.44 z"/>
    </clipPath>
    <clipPath id="clipPath138" clipPathUnits="userSpaceOnUse">
      <path style="clip-rule:evenodd" id="path140" d="m 50.52,96 740.88,0 0,403.44 -740.88,0 0,-403.44 z"/>
    </clipPath>
    <clipPath id="clipPath150" clipPathUnits="userSpaceOnUse">
      <path style="clip-rule:evenodd" id="path152" d="m 50.52,96 740.88,0 0,403.44 -740.88,0 0,-403.44 z"/>
    </clipPath>
    <clipPath id="clipPath162" clipPathUnits="userSpaceOnUse">
      <path style="clip-rule:evenodd" id="path164" d="m 50.52,96 740.88,0 0,403.44 -740.88,0 0,-403.44 z"/>
    </clipPath>
    <clipPath id="clipPath174" clipPathUnits="userSpaceOnUse">
      <path style="clip-rule:evenodd" id="path176" d="m 50.52,96 740.88,0 0,403.44 -740.88,0 0,-403.44 z"/>
    </clipPath>
    <clipPath id="clipPath186" clipPathUnits="userSpaceOnUse">
      <path style="clip-rule:evenodd" id="path188" d="m 50.52,96 740.88,0 0,403.44 -740.88,0 0,-403.44 z"/>
    </clipPath>
    <clipPath id="clipPath198" clipPathUnits="userSpaceOnUse">
      <path style="clip-rule:evenodd" id="path200" d="m 50.52,96 740.88,0 0,403.44 -740.88,0 0,-403.44 z"/>
    </clipPath>
    <clipPath id="clipPath210" clipPathUnits="userSpaceOnUse">
      <path style="clip-rule:evenodd" id="path212" d="m 50.52,96 740.88,0 0,403.44 -740.88,0 0,-403.44 z"/>
    </clipPath>
    <clipPath id="clipPath222" clipPathUnits="userSpaceOnUse">
      <path style="clip-rule:evenodd" id="path224" d="m 50.52,96 740.88,0 0,403.44 -740.88,0 0,-403.44 z"/>
    </clipPath>
    <clipPath id="clipPath234" clipPathUnits="userSpaceOnUse">
      <path style="clip-rule:evenodd" id="path236" d="m 50.52,96 740.88,0 0,403.44 -740.88,0 0,-403.44 z"/>
    </clipPath>
    <clipPath id="clipPath246" clipPathUnits="userSpaceOnUse">
      <path style="clip-rule:evenodd" id="path248" d="m 50.52,96 740.88,0 0,403.44 -740.88,0 0,-403.44 z"/>
    </clipPath>
  </defs>
  <g transform="matrix(1.25,0,0,-1.25,0,744.15)" id="g10">
    <g id="g12">
      <g clip-path="url(#clipPath16)" id="g14">
        <path id="path20" style="fill:none;stroke:#000000;stroke-width:0.14;stroke-linecap:butt;stroke-linejoin:miter;stroke-miterlimit:10;stroke-dasharray:none;stroke-opacity:0" d="m 50.453,499.35 741.027,0 0,-403.358 -741.027,0 0,403.358 z"/>
      </g>
    </g>
    <path id="path22" style="fill:#ffffff;fill-opacity:1;fill-rule:evenodd;stroke:none" d="m 50.453,95.992 741.03,0 0,403.36 -741.03,0 0,-403.36 z"/>
    <path id="path24" style="fill:none;stroke:#d9d9d9;stroke-width:0.97474998;stroke-linecap:butt;stroke-linejoin:round;stroke-miterlimit:10;stroke-dasharray:none;stroke-opacity:1" d="m 94.98,190.37 682.21,0 m -682.21,52.4 682.21,0 m -682.21,52.4 682.21,0 m -682.21,52.41 682.21,0 m -682.21,52.4 682.21,0 m -682.21,52.45 682.21,0"/>
    <path id="path26" style="fill:#005aa4;fill-opacity:1;fill-rule:nonzero;stroke:none" d="m 135.91,138 54.577,0 0,104.81 -54.577,0 0,-104.81 z"/>
    <path id="path28" style="fill:#606165;fill-opacity:1;fill-rule:nonzero;stroke:none" d="m 681.68,138 54.577,0 0,262.02 -54.577,0 0,-262.02 z"/>
    <path id="path30" style="fill:#d0b86a;fill-opacity:1;fill-rule:nonzero;stroke:none" d="m 272.35,242.81 54.577,0 0,52.404 -54.577,0 0,-52.404 z"/>
    <g id="g32">
      <path id="path50" style="fill:url(#linearGradient34);fill-opacity:1;fill-rule:nonzero;stroke:none" d="m 408.8,295.22 54.577,0 0,26.202 -54.577,0 0,-26.202 z"/>
    </g>
    <g id="g52">
      <path id="path70" style="fill:url(#linearGradient54);fill-opacity:1;fill-rule:evenodd;stroke:none" d="m 545.24,321.42 54.577,0 0,78.607 -54.577,0 0,-78.607 z"/>
    </g>
    <path id="path72" style="fill:none;stroke:#d9d9d9;stroke-width:0.97474998;stroke-linecap:butt;stroke-linejoin:round;stroke-miterlimit:10;stroke-dasharray:none;stroke-opacity:1" d="m 94.98,138 682.21,0"/>
    <g id="g74">
      <g clip-path="url(#clipPath78)" id="g76"><text id="text82" style="font-variant:normal;font-weight:normal;font-size:11.68799973px;font-family:Arial;-inkscape-font-specification:Arial;writing-mode:lr-tb;fill:#595959;fill-opacity:1;fill-rule:nonzero;stroke:none" transform="matrix(1,0,0,-1,78.432,134.18)"><tspan id="tspan84" y="0" x="0">0</tspan></text>
</g>
    </g>
    <g id="g86">
      <g clip-path="url(#clipPath90)" id="g88"><text id="text94" style="font-variant:normal;font-weight:normal;font-size:11.71199989px;font-family:Arial;-inkscape-font-specification:Arial;writing-mode:lr-tb;fill:#595959;fill-opacity:1;fill-rule:nonzero;stroke:none" transform="matrix(1,0,0,-1,65.424,186.6)"><tspan id="tspan96" y="0" x="0 6.535296 12.918336">200</tspan></text>
</g>
    </g>
    <g id="g98">
      <g clip-path="url(#clipPath102)" id="g100"><text id="text106" style="font-variant:normal;font-weight:normal;font-size:11.71199989px;font-family:Arial;-inkscape-font-specification:Arial;writing-mode:lr-tb;fill:#595959;fill-opacity:1;fill-rule:nonzero;stroke:none" transform="matrix(1,0,0,-1,65.424,239.02)"><tspan id="tspan108" y="0" x="0 6.535296 12.918336">400</tspan></text>
</g>
    </g>
    <g id="g110">
      <g clip-path="url(#clipPath114)" id="g112"><text id="text118" style="font-variant:normal;font-weight:normal;font-size:11.71199989px;font-family:Arial;-inkscape-font-specification:Arial;writing-mode:lr-tb;fill:#595959;fill-opacity:1;fill-rule:nonzero;stroke:none" transform="matrix(1,0,0,-1,65.424,291.43)"><tspan id="tspan120" y="0" x="0 6.535296 12.918336">600</tspan></text>
</g>
    </g>
    <g id="g122">
      <g clip-path="url(#clipPath126)" id="g124"><text id="text130" style="font-variant:normal;font-weight:normal;font-size:11.71199989px;font-family:Arial;-inkscape-font-specification:Arial;writing-mode:lr-tb;fill:#595959;fill-opacity:1;fill-rule:nonzero;stroke:none" transform="matrix(1,0,0,-1,65.424,343.85)"><tspan id="tspan132" y="0" x="0 6.535296 12.918336">800</tspan></text>
</g>
    </g>
    <g id="g134">
      <g clip-path="url(#clipPath138)" id="g136"><text id="text142" style="font-variant:normal;font-weight:normal;font-size:11.71199989px;font-family:Arial;-inkscape-font-specification:Arial;writing-mode:lr-tb;fill:#595959;fill-opacity:1;fill-rule:nonzero;stroke:none" transform="matrix(1,0,0,-1,58.92,396.26)"><tspan id="tspan144" y="0" x="0 6.535296 12.918336 19.453632">1000</tspan></text>
</g>
    </g>
    <g id="g146">
      <g clip-path="url(#clipPath150)" id="g148"><text id="text154" style="font-variant:normal;font-weight:normal;font-size:11.71199989px;font-family:Arial;-inkscape-font-specification:Arial;writing-mode:lr-tb;fill:#595959;fill-opacity:1;fill-rule:nonzero;stroke:none" transform="matrix(1,0,0,-1,58.92,448.68)"><tspan id="tspan156" y="0" x="0 6.535296 12.918336 19.453632">1200</tspan></text>
</g>
    </g>
    <g id="g158">
      <g clip-path="url(#clipPath162)" id="g160"><text id="text166" style="font-variant:normal;font-weight:normal;font-size:11.68799973px;font-family:Arial;-inkscape-font-specification:Arial;writing-mode:lr-tb;fill:#595959;fill-opacity:1;fill-rule:nonzero;stroke:none" transform="matrix(1,0,0,-1,111.22,120.24)"><tspan id="tspan168" y="0" x="0 8.438736 14.96064 18.852743 22.744848 29.27844 35.660088 38.909351 42.158615 49.954514 56.523167 62.904816 69.450096 75.995377 79.244637 83.136742 89.530083 99.955772">Current Spend (2%)</tspan></text>
</g>
    </g>
    <g id="g170">
      <g clip-path="url(#clipPath174)" id="g172"><text id="text178" style="font-variant:normal;font-weight:normal;font-size:11.68799973px;font-family:Arial;-inkscape-font-specification:Arial;writing-mode:lr-tb;fill:#595959;fill-opacity:1;fill-rule:nonzero;stroke:none" transform="matrix(1,0,0,-1,254.81,120.24)"><tspan id="tspan180" y="0" x="0 9.6776638 17.637192 24.042215 27.314856 35.753593 42.275497 46.167599 52.724567 55.845264 63.641159 70.18644 76.73172 83.277">MSe Core Spend</tspan></text>
</g>
    </g>
    <g id="g182">
      <g clip-path="url(#clipPath186)" id="g184"><text id="text190" style="font-variant:normal;font-weight:normal;font-size:11.68799973px;font-family:Arial;-inkscape-font-specification:Arial;writing-mode:lr-tb;fill:#595959;fill-opacity:1;fill-rule:nonzero;stroke:none" transform="matrix(1,0,0,-1,274.97,106.8)"><tspan id="tspan192" y="0" x="0 3.8921039 10.449072 16.234632 19.507273 26.052551 32.457577 39.002857 45.548138">(by 2030)</tspan></text>
</g>
    </g>
    <g id="g194">
      <g clip-path="url(#clipPath198)" id="g196"><text id="text202" style="font-variant:normal;font-weight:normal;font-size:11.68799973px;font-family:Arial;-inkscape-font-specification:Arial;writing-mode:lr-tb;fill:#595959;fill-opacity:1;fill-rule:nonzero;stroke:none" transform="matrix(1,0,0,-1,387.22,120.24)"><tspan id="tspan204" y="0" x="0 7.7958961 14.341176 20.746201 24.018841 26.35644 28.857672 32.130314 40.56905 47.090954 50.983055 57.540024 60.812664 68.608559 75.025269 81.570549 88.115829">Addt'l Core Spend</tspan></text>
</g>
    </g>
    <g id="g206">
      <g clip-path="url(#clipPath210)" id="g208"><text id="text214" style="font-variant:normal;font-weight:normal;font-size:11.68799973px;font-family:Arial;-inkscape-font-specification:Arial;writing-mode:lr-tb;fill:#595959;fill-opacity:1;fill-rule:nonzero;stroke:none" transform="matrix(1,0,0,-1,508.54,120.24)"><tspan id="tspan216" y="0" x="0 8.438736 14.96064 18.23328 24.638304 31.183584 37.097713 43.502735 47.39484 55.833576 62.378857 65.032028 71.577309 74.698006 81.243286 87.788567 91.061211 98.857101 105.27382 111.8191 118.36437">Defence-Related Spend</tspan></text>
</g>
    </g>
    <g id="g218">
      <g clip-path="url(#clipPath222)" id="g220"><text id="text226" style="font-variant:normal;font-weight:normal;font-size:11.68799973px;font-family:Arial;-inkscape-font-specification:Arial;writing-mode:lr-tb;fill:#595959;fill-opacity:1;fill-rule:nonzero;stroke:none" transform="matrix(1,0,0,-1,660.31,120.24)"><tspan id="tspan228" y="0" x="0 8.438736 16.234632 23.375999 32.469265 35.718529 42.859898 49.428551 53.320656 59.702305 66.247581 69.496849 72.746109 76.638214 83.043243 93.468933">NATO Target (5%)</tspan></text>
</g>
    </g>
    <g id="g230">
      <g clip-path="url(#clipPath234)" id="g232"><text id="text238" style="font-variant:normal;font-weight:normal;font-size:11.68799973px;font-family:Arial;-inkscape-font-specification:Arial;writing-mode:lr-tb;fill:#595959;fill-opacity:1;fill-rule:nonzero;stroke:none" transform="matrix(1,0,0,-1,684.36,106.8)"><tspan id="tspan240" y="0" x="0 3.8921039 10.425696 16.18788 19.437143 25.994112 32.375759 38.92104 45.46632">(by 2035)</tspan></text>
</g>
    </g>
    <g id="g242">
      <g clip-path="url(#clipPath246)" id="g244"><text id="text250" style="font-variant:normal;font-weight:bold;font-size:18.26399994px;font-family:Arial;-inkscape-font-specification:'Arial Bold';writing-mode:lr-tb;fill:#595959;fill-opacity:1;fill-rule:nonzero;stroke:none" transform="matrix(1,0,0,-1,183.84,472.58)"><tspan id="tspan252" y="0" x="0 5.1504478 16.236696 26.391479 33.550968 43.705753 59.942448 70.097229 81.165215 87.247131 97.401909 102.55236 107.22794 119.41003 130.47801 140.6328 151.71906 162.8053 167.95575 181.05103 191.20581 202.29207 213.37831 218.52876 225.68825 235.84303 246.92928 251.91536 257.99725 269.10178 274.25223 287.3475 297.50229 307.65707 317.81186 328.8981 333.88419 344.03897 359.49033 365.26175 378.35703 389.58939 400.36514 414.57452 420.16333 429.84323 439.99802 447.1575 458.24377 468.39853">Incremental Spend Required to Reach 5% NATO Target</tspan></text>
</g>
    </g>
  </g>
</svg>
