<?xml version="1.0" encoding="UTF-8" standalone="no"?>
<svg xmlns:dc="http://purl.org/dc/elements/1.1/" xmlns:cc="http://creativecommons.org/ns#" xmlns:rdf="http://www.w3.org/1999/02/22-rdf-syntax-ns#" xmlns:svg="http://www.w3.org/2000/svg" xmlns="http://www.w3.org/2000/svg" viewBox="50.25 19.352637 211.05699 225.07256" height="225.07256" width="211.05699" xml:space="preserve" version="1.1" id="svg2">
  <metadata id="metadata8">
    <rdf:RDF>
      <cc:Work rdf:about="">
        <dc:format>image/svg+xml</dc:format>
        <dc:type rdf:resource="http://purl.org/dc/dcmitype/StillImage"/>
      </cc:Work>
    </rdf:RDF>
  </metadata>
  <defs id="defs6">
    <clipPath id="clipPath86" clipPathUnits="userSpaceOnUse">
      <path style="clip-rule:evenodd" id="path88" d="m 102.84,580.08 88.92,0 0,20.28 -88.92,0 0,-20.28 z"/>
    </clipPath>
    <clipPath id="clipPath98" clipPathUnits="userSpaceOnUse">
      <path style="clip-rule:evenodd" id="path100" d="m 144.12,543.96 48.48,0 0,24.72 -48.48,0 0,-24.72 z"/>
    </clipPath>
    <clipPath id="clipPath110" clipPathUnits="userSpaceOnUse">
      <path style="clip-rule:evenodd" id="path112" d="m 167.16,458.28 50.76,0 0,24.72 -50.76,0 0,-24.72 z"/>
    </clipPath>
    <clipPath id="clipPath122" clipPathUnits="userSpaceOnUse">
      <path style="clip-rule:evenodd" id="path124" d="m 34.08,410.52 85.68,0 0,22.32 -85.68,0 0,-22.32 z"/>
    </clipPath>
  </defs>
  <g transform="matrix(1.25,0,0,-1.25,0,765)" id="g10">
    <path id="path12" style="fill:#c9c9c9;fill-opacity:1;fill-rule:evenodd;stroke:none" d="m 91.454,558.29 13.77,0 0,25.101 -13.77,0 0,-25.101 z"/>
    <path id="path14" style="fill:none;stroke:#787878;stroke-width:1;stroke-linecap:butt;stroke-linejoin:miter;stroke-miterlimit:10;stroke-dasharray:none;stroke-opacity:1" d="m 91.454,558.29 13.77,0 0,25.101 -13.77,0 0,-25.101 z"/>
    <path id="path16" style="fill:#ed7d31;fill-opacity:1;fill-rule:evenodd;stroke:none" d="m 142.71,547.14 c 0,1.26 1.03,2.29 2.29,2.29 l 9.18,0 c 1.27,0 2.3,-1.03 2.3,-2.29 l 0,-21.25 c 0,-1.27 -1.03,-2.3 -2.3,-2.3 l -9.18,0 c -1.26,0 -2.29,1.03 -2.29,2.3 l 0,21.25 z"/>
    <path id="path18" style="fill:#ed7d31;fill-opacity:1;fill-rule:evenodd;stroke:none" d="m 142.71,518.34 c 0,1.27 1.03,2.3 2.29,2.3 l 9.18,0 c 1.27,0 2.3,-1.03 2.3,-2.3 l 0,-21.24 c 0,-1.27 -1.03,-2.3 -2.3,-2.3 l -9.18,0 c -1.26,0 -2.29,1.03 -2.29,2.3 l 0,21.24 z"/>
    <path id="path20" style="fill:#ed7d31;fill-opacity:1;fill-rule:evenodd;stroke:none" d="m 142.71,489.55 c 0,1.27 1.03,2.3 2.29,2.3 l 9.18,0 c 1.27,0 2.3,-1.03 2.3,-2.3 l 0,-21.25 c 0,-1.26 -1.03,-2.29 -2.3,-2.29 l -9.18,0 c -1.26,0 -2.29,1.03 -2.29,2.29 l 0,21.25 z"/>
    <path id="path22" style="fill:#c9c9c9;fill-opacity:1;fill-rule:evenodd;stroke:none" d="m 127.41,443.12 26.009,0 0,13.288 -26.009,0 0,-13.288 z"/>
    <path id="path24" style="fill:none;stroke:#787878;stroke-width:1;stroke-linecap:butt;stroke-linejoin:miter;stroke-miterlimit:10;stroke-dasharray:none;stroke-opacity:1" d="m 127.41,443.12 26.009,0 0,13.288 -26.009,0 0,-13.288 z"/>
    <path id="path26" style="fill:#ed7d31;fill-opacity:1;fill-rule:evenodd;stroke:none" d="m 40.2,547.87 c 0,1.27 1.027,2.3 2.295,2.3 l 9.18,0 c 1.267,0 2.295,-1.03 2.295,-2.3 l 0,-21.24 c 0,-1.27 -1.028,-2.3 -2.295,-2.3 l -9.18,0 c -1.268,0 -2.295,1.03 -2.295,2.3 l 0,21.24 z"/>
    <path id="path28" style="fill:#ed7d31;fill-opacity:1;fill-rule:evenodd;stroke:none" d="m 40.2,519.08 c 0,1.27 1.027,2.3 2.295,2.3 l 9.18,0 c 1.267,0 2.295,-1.03 2.295,-2.3 l 0,-21.25 c 0,-1.26 -1.028,-2.29 -2.295,-2.29 l -9.18,0 c -1.268,0 -2.295,1.03 -2.295,2.29 l 0,21.25 z"/>
    <path id="path30" style="fill:#ed7d31;fill-opacity:1;fill-rule:evenodd;stroke:none" d="m 40.2,490.29 c 0,1.27 1.027,2.3 2.295,2.3 l 9.18,0 c 1.267,0 2.295,-1.03 2.295,-2.3 l 0,-21.25 c 0,-1.27 -1.028,-2.29 -2.295,-2.29 l -9.18,0 c -1.268,0 -2.295,1.02 -2.295,2.29 l 0,21.25 z"/>
    <path id="path32" style="fill:#c9c9c9;fill-opacity:1;fill-rule:evenodd;stroke:none" d="m 63.149,547.22 c 0,12.64 15.926,22.88 35.572,22.88 19.649,0 35.569,-10.24 35.569,-22.88 l 0,-91.55 c 0,-12.64 -15.92,-22.88 -35.569,-22.88 -19.646,0 -35.572,10.24 -35.572,22.88 l 0,91.55 z"/>
    <path id="path34" style="fill:none;stroke:#787878;stroke-width:1;stroke-linecap:butt;stroke-linejoin:miter;stroke-miterlimit:10;stroke-dasharray:none;stroke-opacity:1" d="m 134.29,547.22 c 0,-12.64 -15.92,-22.89 -35.569,-22.89 -19.646,0 -35.572,10.25 -35.572,22.89"/>
    <path id="path36" style="fill:none;stroke:#787878;stroke-width:1;stroke-linecap:butt;stroke-linejoin:miter;stroke-miterlimit:10;stroke-dasharray:none;stroke-opacity:1" d="m 63.149,547.22 c 0,12.64 15.926,22.88 35.572,22.88 19.649,0 35.569,-10.24 35.569,-22.88 l 0,-91.55 c 0,-12.64 -15.92,-22.88 -35.569,-22.88 -19.646,0 -35.572,10.24 -35.572,22.88 l 0,91.55 z"/>
    <path id="path38" style="fill:#5b9bd5;fill-opacity:1;fill-rule:evenodd;stroke:none" d="m 66.974,459.01 c 0,3.88 14.385,7.02 32.13,7.02 17.746,0 32.126,-3.14 32.126,-7.02 0,-3.88 -14.38,-7.03 -32.126,-7.03 -17.745,0 -32.13,3.15 -32.13,7.03 z"/>
    <path id="path40" style="fill:none;stroke:#41719c;stroke-width:1;stroke-linecap:butt;stroke-linejoin:miter;stroke-miterlimit:10;stroke-dasharray:none;stroke-opacity:1" d="m 66.974,459.01 c 0,3.88 14.385,7.02 32.13,7.02 17.746,0 32.126,-3.14 32.126,-7.02 0,-3.88 -14.38,-7.03 -32.126,-7.03 -17.745,0 -32.13,3.15 -32.13,7.03 z"/>
    <path id="path42" style="fill:#5b9bd5;fill-opacity:1;fill-rule:evenodd;stroke:none" d="m 66.974,464.99 c 0,3.88 14.385,7.03 32.13,7.03 17.746,0 32.126,-3.15 32.126,-7.03 0,-3.88 -14.38,-7.02 -32.126,-7.02 -17.745,0 -32.13,3.14 -32.13,7.02 z"/>
    <path id="path44" style="fill:none;stroke:#41719c;stroke-width:1;stroke-linecap:butt;stroke-linejoin:miter;stroke-miterlimit:10;stroke-dasharray:none;stroke-opacity:1" d="m 66.974,464.99 c 0,3.88 14.385,7.03 32.13,7.03 17.746,0 32.126,-3.15 32.126,-7.03 0,-3.88 -14.38,-7.02 -32.126,-7.02 -17.745,0 -32.13,3.14 -32.13,7.02 z"/>
    <path id="path46" style="fill:#5b9bd5;fill-opacity:1;fill-rule:evenodd;stroke:none" d="m 66.974,470.98 c 0,3.88 14.385,7.02 32.13,7.02 17.746,0 32.126,-3.14 32.126,-7.02 0,-3.88 -14.38,-7.03 -32.126,-7.03 -17.745,0 -32.13,3.15 -32.13,7.03 z"/>
    <path id="path48" style="fill:none;stroke:#41719c;stroke-width:1;stroke-linecap:butt;stroke-linejoin:miter;stroke-miterlimit:10;stroke-dasharray:none;stroke-opacity:1" d="m 66.974,470.98 c 0,3.88 14.385,7.02 32.13,7.02 17.746,0 32.126,-3.14 32.126,-7.02 0,-3.88 -14.38,-7.03 -32.126,-7.03 -17.745,0 -32.13,3.15 -32.13,7.03 z"/>
    <path id="path50" style="fill:#5b9bd5;fill-opacity:1;fill-rule:evenodd;stroke:none" d="m 66.974,476.96 c 0,3.88 14.385,7.03 32.13,7.03 17.746,0 32.126,-3.15 32.126,-7.03 0,-3.88 -14.38,-7.02 -32.126,-7.02 -17.745,0 -32.13,3.14 -32.13,7.02 z"/>
    <path id="path52" style="fill:none;stroke:#41719c;stroke-width:1;stroke-linecap:butt;stroke-linejoin:miter;stroke-miterlimit:10;stroke-dasharray:none;stroke-opacity:1" d="m 66.974,476.96 c 0,3.88 14.385,7.03 32.13,7.03 17.746,0 32.126,-3.15 32.126,-7.03 0,-3.88 -14.38,-7.02 -32.126,-7.02 -17.745,0 -32.13,3.14 -32.13,7.02 z"/>
    <path id="path54" style="fill:#5b9bd5;fill-opacity:1;fill-rule:evenodd;stroke:none" d="m 66.974,482.95 c 0,3.88 14.385,7.02 32.13,7.02 17.746,0 32.126,-3.14 32.126,-7.02 0,-3.88 -14.38,-7.03 -32.126,-7.03 -17.745,0 -32.13,3.15 -32.13,7.03 z"/>
    <path id="path56" style="fill:none;stroke:#41719c;stroke-width:1;stroke-linecap:butt;stroke-linejoin:miter;stroke-miterlimit:10;stroke-dasharray:none;stroke-opacity:1" d="m 66.974,482.95 c 0,3.88 14.385,7.02 32.13,7.02 17.746,0 32.126,-3.14 32.126,-7.02 0,-3.88 -14.38,-7.03 -32.126,-7.03 -17.745,0 -32.13,3.15 -32.13,7.03 z"/>
    <path id="path58" style="fill:#5b9bd5;fill-opacity:1;fill-rule:evenodd;stroke:none" d="m 66.974,488.93 c 0,3.88 14.385,7.03 32.13,7.03 17.746,0 32.126,-3.15 32.126,-7.03 0,-3.87 -14.38,-7.02 -32.126,-7.02 -17.745,0 -32.13,3.15 -32.13,7.02 z"/>
    <path id="path60" style="fill:none;stroke:#41719c;stroke-width:1;stroke-linecap:butt;stroke-linejoin:miter;stroke-miterlimit:10;stroke-dasharray:none;stroke-opacity:1" d="m 66.974,488.93 c 0,3.88 14.385,7.03 32.13,7.03 17.746,0 32.126,-3.15 32.126,-7.03 0,-3.87 -14.38,-7.02 -32.126,-7.02 -17.745,0 -32.13,3.15 -32.13,7.02 z"/>
    <path id="path62" style="fill:#5b9bd5;fill-opacity:1;fill-rule:evenodd;stroke:none" d="m 66.974,494.92 c 0,3.88 14.385,7.02 32.13,7.02 17.746,0 32.126,-3.14 32.126,-7.02 0,-3.88 -14.38,-7.02 -32.126,-7.02 -17.745,0 -32.13,3.14 -32.13,7.02 z"/>
    <path id="path64" style="fill:none;stroke:#41719c;stroke-width:1;stroke-linecap:butt;stroke-linejoin:miter;stroke-miterlimit:10;stroke-dasharray:none;stroke-opacity:1" d="m 66.974,494.92 c 0,3.88 14.385,7.02 32.13,7.02 17.746,0 32.126,-3.14 32.126,-7.02 0,-3.88 -14.38,-7.02 -32.126,-7.02 -17.745,0 -32.13,3.14 -32.13,7.02 z"/>
    <path id="path66" style="fill:#5b9bd5;fill-opacity:1;fill-rule:evenodd;stroke:none" d="m 66.974,500.91 c 0,3.88 14.385,7.02 32.13,7.02 17.746,0 32.126,-3.14 32.126,-7.02 0,-3.88 -14.38,-7.03 -32.126,-7.03 -17.745,0 -32.13,3.15 -32.13,7.03 z"/>
    <path id="path68" style="fill:none;stroke:#41719c;stroke-width:1;stroke-linecap:butt;stroke-linejoin:miter;stroke-miterlimit:10;stroke-dasharray:none;stroke-opacity:1" d="m 66.974,500.91 c 0,3.88 14.385,7.02 32.13,7.02 17.746,0 32.126,-3.14 32.126,-7.02 0,-3.88 -14.38,-7.03 -32.126,-7.03 -17.745,0 -32.13,3.15 -32.13,7.03 z"/>
    <path id="path70" style="fill:#5b9bd5;fill-opacity:1;fill-rule:evenodd;stroke:none" d="m 66.974,506.89 c 0,3.88 14.385,7.03 32.13,7.03 17.746,0 32.126,-3.15 32.126,-7.03 0,-3.88 -14.38,-7.02 -32.126,-7.02 -17.745,0 -32.13,3.14 -32.13,7.02 z"/>
    <path id="path72" style="fill:none;stroke:#41719c;stroke-width:1;stroke-linecap:butt;stroke-linejoin:miter;stroke-miterlimit:10;stroke-dasharray:none;stroke-opacity:1" d="m 66.974,506.89 c 0,3.88 14.385,7.03 32.13,7.03 17.746,0 32.126,-3.15 32.126,-7.03 0,-3.88 -14.38,-7.02 -32.126,-7.02 -17.745,0 -32.13,3.14 -32.13,7.02 z"/>
    <path id="path74" style="fill:#5b9bd5;fill-opacity:1;fill-rule:evenodd;stroke:none" d="m 66.974,512.88 c 0,3.88 14.385,7.02 32.13,7.02 17.746,0 32.126,-3.14 32.126,-7.02 0,-3.88 -14.38,-7.03 -32.126,-7.03 -17.745,0 -32.13,3.15 -32.13,7.03 z"/>
    <path id="path76" style="fill:none;stroke:#41719c;stroke-width:1;stroke-linecap:butt;stroke-linejoin:miter;stroke-miterlimit:10;stroke-dasharray:none;stroke-opacity:1" d="m 66.974,512.88 c 0,3.88 14.385,7.02 32.13,7.02 17.746,0 32.126,-3.14 32.126,-7.02 0,-3.88 -14.38,-7.03 -32.126,-7.03 -17.745,0 -32.13,3.15 -32.13,7.03 z"/>
    <path id="path78" style="fill:#ed7d31;fill-opacity:1;fill-rule:nonzero;stroke:none" d="m 99.464,591.51 0,-29.52 -2.25,0 0,29.52 2.25,0 z m 3.786,-23.33 -4.911,-8.42 -4.91,8.42 c -0.313,0.53 -0.131,1.22 0.405,1.54 0.537,0.31 1.226,0.13 1.539,-0.41 l 3.937,-6.75 -1.943,0 3.933,6.75 c 0.32,0.54 1.01,0.72 1.54,0.41 0.54,-0.32 0.72,-1.01 0.41,-1.54 z"/>
    <path id="path80" style="fill:#ed7d31;fill-opacity:1;fill-rule:nonzero;stroke:none" d="m 153.42,450.89 19.19,0 0,-2.25 -19.19,0 0,2.25 z m 13.01,3.79 8.41,-4.91 -8.41,-4.91 c -0.54,-0.31 -1.23,-0.13 -1.54,0.4 -0.32,0.54 -0.13,1.23 0.4,1.54 l 0,0 6.75,3.94 0,-1.94 -6.75,3.93 c -0.53,0.32 -0.72,1.01 -0.4,1.54 0.31,0.54 1,0.72 1.54,0.41 z"/>
    <g id="g82">
      <g clip-path="url(#clipPath86)" id="g84"><text id="text90" style="font-variant:normal;font-weight:normal;font-size:9px;font-family:Meiryo;-inkscape-font-specification:Meiryo;writing-mode:lr-tb;fill:#000000;fill-opacity:1;fill-rule:nonzero;stroke:none" transform="matrix(1,0,0,-1,110.14,589.68)"><tspan id="tspan92" y="0" x="0 6.5879998 11.862 16.299 19.296 21.582001 27.099001 30.455999 34.173 39.563999 45.071999 50.589001 55.152 58.508999 60.794998 66.177002">Gas introduction</tspan></text>
</g>
    </g>
    <g id="g94">
      <g clip-path="url(#clipPath98)" id="g96"><text id="text102" style="font-variant:normal;font-weight:normal;font-size:9px;font-family:Meiryo;-inkscape-font-specification:Meiryo;writing-mode:lr-tb;fill:#000000;fill-opacity:1;fill-rule:nonzero;stroke:none" transform="matrix(1,0,0,-1,154.46,553.49)"><tspan id="tspan104" y="0" x="0 6.7140002 11.871 17.145 20.502001 25.659">Heater</tspan></text>
</g>
    </g>
    <g id="g106">
      <g clip-path="url(#clipPath110)" id="g108"><text id="text114" style="font-variant:normal;font-weight:normal;font-size:9.02400017px;font-family:Meiryo;-inkscape-font-specification:Meiryo;writing-mode:lr-tb;fill:#000000;fill-opacity:1;fill-rule:nonzero;stroke:none" transform="matrix(1,0,0,-1,174.41,467.86)"><tspan id="tspan116" y="0" x="0 5.5226879 10.540032 16.080769 21.350784 26.873472 31.31328">Exhaust</tspan></text>
</g>
    </g>
    <g id="g118">
      <g clip-path="url(#clipPath122)" id="g120"><text id="text126" style="font-variant:normal;font-weight:normal;font-size:9px;font-family:Meiryo;-inkscape-font-specification:Meiryo;writing-mode:lr-tb;fill:#000000;fill-opacity:1;fill-rule:nonzero;stroke:none" transform="matrix(1,0,0,-1,41.28,417.62)"><tspan id="tspan128" y="0" x="0 6.8579998 12.357 17.631001 21.348 24.714001 29.268 32.382 35.396999 40.904999 44.622002 50.147999 55.422001 59.985001">Quartz furnace</tspan></text>
</g>
    </g>
    <path id="path130" style="fill:none;stroke:#000000;stroke-width:0.5;stroke-linecap:butt;stroke-linejoin:miter;stroke-miterlimit:10;stroke-dasharray:none;stroke-opacity:1" d="m 147.34,580.2 -42.12,-9.36"/>
    <path id="path132" style="fill:none;stroke:#000000;stroke-width:0.5;stroke-linecap:butt;stroke-linejoin:miter;stroke-miterlimit:10;stroke-dasharray:none;stroke-opacity:1" d="m 168.38,544.03 -11.9,-7.52"/>
    <path id="path134" style="fill:none;stroke:#000000;stroke-width:0.5;stroke-linecap:butt;stroke-linejoin:miter;stroke-miterlimit:10;stroke-dasharray:none;stroke-opacity:1" d="M 167.19,470.69 140.41,456.41"/>
    <path id="path136" style="fill:none;stroke:#000000;stroke-width:0.5;stroke-linecap:butt;stroke-linejoin:miter;stroke-miterlimit:10;stroke-dasharray:none;stroke-opacity:1" d="m 76.919,432.79 1.53,14.02"/>
  </g>
</svg>
