<?xml version="1.0" encoding="UTF-8" standalone="no"?>
<svg xmlns:dc="http://purl.org/dc/elements/1.1/" xmlns:cc="http://creativecommons.org/ns#" xmlns:rdf="http://www.w3.org/1999/02/22-rdf-syntax-ns#" xmlns:svg="http://www.w3.org/2000/svg" xmlns="http://www.w3.org/2000/svg" viewBox="63 383.825 618.15 335.225" height="335.225" width="618.15" xml:space="preserve" version="1.1" id="svg2">
  <metadata id="metadata8">
    <rdf:RDF>
      <cc:Work rdf:about="">
        <dc:format>image/svg+xml</dc:format>
        <dc:type rdf:resource="http://purl.org/dc/dcmitype/StillImage"/>
      </cc:Work>
    </rdf:RDF>
  </metadata>
  <defs id="defs6">
    <clipPath id="clipPath16" clipPathUnits="userSpaceOnUse">
      <path style="clip-rule:evenodd" id="path18" d="m 50.4,266.64 494.52,0 0,268.32 -494.52,0 0,-268.32 z"/>
    </clipPath>
    <clipPath id="clipPath36" clipPathUnits="userSpaceOnUse">
      <path style="clip-rule:evenodd" id="path38" d="m 50.431,266.77 494.38,0 0,268.15 -494.38,0 0,-268.15 z"/>
    </clipPath>
    <clipPath id="clipPath46" clipPathUnits="userSpaceOnUse">
      <path style="clip-rule:evenodd" id="path48" d="m 50.52,266.76 494.4,0 0,268.08 -494.4,0 0,-268.08 z"/>
    </clipPath>
    <clipPath id="clipPath58" clipPathUnits="userSpaceOnUse">
      <path style="clip-rule:evenodd" id="path60" d="m 50.52,266.76 494.4,0 0,268.08 -494.4,0 0,-268.08 z"/>
    </clipPath>
    <clipPath id="clipPath70" clipPathUnits="userSpaceOnUse">
      <path style="clip-rule:evenodd" id="path72" d="m 50.52,266.76 494.4,0 0,268.08 -494.4,0 0,-268.08 z"/>
    </clipPath>
    <clipPath id="clipPath82" clipPathUnits="userSpaceOnUse">
      <path style="clip-rule:evenodd" id="path84" d="m 50.52,266.76 494.4,0 0,268.08 -494.4,0 0,-268.08 z"/>
    </clipPath>
    <clipPath id="clipPath94" clipPathUnits="userSpaceOnUse">
      <path style="clip-rule:evenodd" id="path96" d="m 50.52,266.76 494.4,0 0,268.08 -494.4,0 0,-268.08 z"/>
    </clipPath>
    <clipPath id="clipPath106" clipPathUnits="userSpaceOnUse">
      <path style="clip-rule:evenodd" id="path108" d="m 50.52,266.76 494.4,0 0,268.08 -494.4,0 0,-268.08 z"/>
    </clipPath>
    <clipPath id="clipPath118" clipPathUnits="userSpaceOnUse">
      <path style="clip-rule:evenodd" id="path120" d="m 50.52,266.76 494.4,0 0,268.08 -494.4,0 0,-268.08 z"/>
    </clipPath>
    <clipPath id="clipPath130" clipPathUnits="userSpaceOnUse">
      <path style="clip-rule:evenodd" id="path132" d="m 50.52,266.76 494.4,0 0,268.08 -494.4,0 0,-268.08 z"/>
    </clipPath>
    <clipPath id="clipPath142" clipPathUnits="userSpaceOnUse">
      <path style="clip-rule:evenodd" id="path144" d="m 50.52,266.76 494.4,0 0,268.08 -494.4,0 0,-268.08 z"/>
    </clipPath>
    <clipPath id="clipPath154" clipPathUnits="userSpaceOnUse">
      <path style="clip-rule:evenodd" id="path156" d="m 50.52,266.76 494.4,0 0,268.08 -494.4,0 0,-268.08 z"/>
    </clipPath>
    <clipPath id="clipPath166" clipPathUnits="userSpaceOnUse">
      <path style="clip-rule:evenodd" id="path168" d="m 50.52,266.76 494.4,0 0,268.08 -494.4,0 0,-268.08 z"/>
    </clipPath>
    <clipPath id="clipPath178" clipPathUnits="userSpaceOnUse">
      <path style="clip-rule:evenodd" id="path180" d="m 50.52,266.76 494.4,0 0,268.08 -494.4,0 0,-268.08 z"/>
    </clipPath>
    <clipPath id="clipPath192" clipPathUnits="userSpaceOnUse">
      <path style="clip-rule:evenodd" id="path194" d="m 50.52,266.76 494.4,0 0,268.08 -494.4,0 0,-268.08 z"/>
    </clipPath>
    <clipPath id="clipPath206" clipPathUnits="userSpaceOnUse">
      <path style="clip-rule:evenodd" id="path208" d="m 50.52,266.76 494.4,0 0,268.08 -494.4,0 0,-268.08 z"/>
    </clipPath>
    <clipPath id="clipPath220" clipPathUnits="userSpaceOnUse">
      <path style="clip-rule:evenodd" id="path222" d="m 50.52,266.76 494.4,0 0,268.08 -494.4,0 0,-268.08 z"/>
    </clipPath>
    <clipPath id="clipPath234" clipPathUnits="userSpaceOnUse">
      <path style="clip-rule:evenodd" id="path236" d="m 50.52,266.76 494.4,0 0,268.08 -494.4,0 0,-268.08 z"/>
    </clipPath>
  </defs>
  <g transform="matrix(1.25,0,0,-1.25,0,1052.4)" id="g10">
    <g id="g12">
      <g clip-path="url(#clipPath16)" id="g14">
        <path id="path20" style="fill:none;stroke:#000000;stroke-width:0.14;stroke-linecap:butt;stroke-linejoin:miter;stroke-miterlimit:10;stroke-dasharray:none;stroke-opacity:0" d="m 50.464,266.75 494.41,0 0,268.04 -494.41,0 0,-268.04 z"/>
      </g>
    </g>
    <path id="path22" style="fill:#ffffff;fill-opacity:1;fill-rule:evenodd;stroke:none" d="m 50.464,266.75 494.41,0 0,268.04 -494.41,0 0,-268.04 z"/>
    <path id="path24" style="fill:#005aa4;fill-opacity:1;fill-rule:nonzero;stroke:none" d="m 104.66,363.79 20.75,0 0,-53.6 -20.75,0 0,53.6 z m 113.9,114.75 20.75,0 0,-168.35 -20.75,0 0,168.35 z m 114.05,-111.75 20.6,0 0,-56.6 -20.6,0 0,56.6 z m 113.9,23.18 20.74,0 0,-79.78 -20.74,0 0,79.78 z"/>
    <path id="path26" style="fill:#d0b86a;fill-opacity:1;fill-rule:nonzero;stroke:none" d="m 125.41,363.07 20.75,0 0,-52.88 -20.75,0 0,52.88 z m 113.9,117.19 20.75,0 0,-170.07 -20.75,0 0,170.07 z m 113.9,-71.54 20.75,0 0,-98.53 -20.75,0 0,98.53 z m 114.04,-43.07 20.61,0 0,-55.46 -20.61,0 0,55.46 z"/>
    <path id="path28" style="fill:#57caaf;fill-opacity:1;fill-rule:nonzero;stroke:none" d="m 146.16,353.05 20.6,0 0,-42.86 -20.6,0 0,42.86 z m 113.9,118.2 20.75,0 0,-161.06 -20.75,0 0,161.06 z m 113.9,-68.69 20.75,0 0,-92.37 -20.75,0 0,92.37 z m 113.9,-32.62 20.75,0 0,-59.75 -20.75,0 0,59.75 z"/>
    <path id="path30" style="fill:#00a1e2;fill-opacity:1;fill-rule:nonzero;stroke:none" d="m 166.76,363.21 20.75,0 0,-53.02 -20.75,0 0,53.02 z m 114.05,105.32 20.6,0 0,-158.34 -20.6,0 0,158.34 z m 113.9,-65.97 20.74,0 0,-92.37 -20.74,0 0,92.37 z m 113.9,-22.46 20.74,0 0,-69.91 -20.74,0 0,69.91 z"/>
    <g id="g32">
      <g clip-path="url(#clipPath36)" id="g34">
        <path id="path40" style="fill:none;stroke:#808080;stroke-width:1.49049997;stroke-linecap:round;stroke-linejoin:round;stroke-miterlimit:10;stroke-dasharray:none;stroke-opacity:1" d="m 89.13,310.18 455.75,0"/>
      </g>
    </g>
    <g id="g42">
      <g clip-path="url(#clipPath46)" id="g44"><text id="text50" style="font-variant:normal;font-weight:normal;font-size:13.17599964px;font-family:'Roboto Condensed';-inkscape-font-specification:RobotoCondensed-Regular;writing-mode:lr-tb;fill:#000000;fill-opacity:1;fill-rule:nonzero;stroke:none" transform="matrix(1,0,0,-1,60.72,306.19)"><tspan id="tspan52" y="0" x="0 6.4298878 9.8951759">0.0</tspan></text>
</g>
    </g>
    <g id="g54">
      <g clip-path="url(#clipPath58)" id="g56"><text id="text62" style="font-variant:normal;font-weight:normal;font-size:13.17599964px;font-family:'Roboto Condensed';-inkscape-font-specification:RobotoCondensed-Regular;writing-mode:lr-tb;fill:#000000;fill-opacity:1;fill-rule:nonzero;stroke:none" transform="matrix(1,0,0,-1,60.72,338.74)"><tspan id="tspan64" y="0" x="0 6.4298878 9.8951759">1.0</tspan></text>
</g>
    </g>
    <g id="g66">
      <g clip-path="url(#clipPath70)" id="g68"><text id="text74" style="font-variant:normal;font-weight:normal;font-size:13.15200043px;font-family:'Roboto Condensed';-inkscape-font-specification:RobotoCondensed-Regular;writing-mode:lr-tb;fill:#000000;fill-opacity:1;fill-rule:nonzero;stroke:none" transform="matrix(1,0,0,-1,60.72,371.26)"><tspan id="tspan76" y="0" x="0 6.4313278 9.8903036">2.0</tspan></text>
</g>
    </g>
    <g id="g78">
      <g clip-path="url(#clipPath82)" id="g80"><text id="text86" style="font-variant:normal;font-weight:normal;font-size:13.15200043px;font-family:'Roboto Condensed';-inkscape-font-specification:RobotoCondensed-Regular;writing-mode:lr-tb;fill:#000000;fill-opacity:1;fill-rule:nonzero;stroke:none" transform="matrix(1,0,0,-1,60.72,403.8)"><tspan id="tspan88" y="0" x="0 6.4313278 9.8903036">3.0</tspan></text>
</g>
    </g>
    <g id="g90">
      <g clip-path="url(#clipPath94)" id="g92"><text id="text98" style="font-variant:normal;font-weight:normal;font-size:13.17599964px;font-family:'Roboto Condensed';-inkscape-font-specification:RobotoCondensed-Regular;writing-mode:lr-tb;fill:#000000;fill-opacity:1;fill-rule:nonzero;stroke:none" transform="matrix(1,0,0,-1,60.72,436.34)"><tspan id="tspan100" y="0" x="0 6.4298878 9.8951759">4.0</tspan></text>
</g>
    </g>
    <g id="g102">
      <g clip-path="url(#clipPath106)" id="g104"><text id="text110" style="font-variant:normal;font-weight:normal;font-size:13.17599964px;font-family:'Roboto Condensed';-inkscape-font-specification:RobotoCondensed-Regular;writing-mode:lr-tb;fill:#000000;fill-opacity:1;fill-rule:nonzero;stroke:none" transform="matrix(1,0,0,-1,60.72,468.89)"><tspan id="tspan112" y="0" x="0 6.4298878 9.8951759">5.0</tspan></text>
</g>
    </g>
    <g id="g114">
      <g clip-path="url(#clipPath118)" id="g116"><text id="text122" style="font-variant:normal;font-weight:normal;font-size:13.15200043px;font-family:'Roboto Condensed';-inkscape-font-specification:RobotoCondensed-Regular;writing-mode:lr-tb;fill:#000000;fill-opacity:1;fill-rule:nonzero;stroke:none" transform="matrix(1,0,0,-1,60.72,501.41)"><tspan id="tspan124" y="0" x="0 6.4313278 9.8903036">6.0</tspan></text>
</g>
    </g>
    <g id="g126">
      <g clip-path="url(#clipPath130)" id="g128"><text id="text134" style="font-variant:normal;font-weight:normal;font-size:13.15200043px;font-family:'Roboto Condensed';-inkscape-font-specification:RobotoCondensed-Regular;writing-mode:lr-tb;fill:#000000;fill-opacity:1;fill-rule:nonzero;stroke:none" transform="matrix(1,0,0,-1,135.77,289.34)"><tspan id="tspan136" y="0" x="0 7.7280321 14.18032">G10</tspan></text>
</g>
    </g>
    <g id="g138">
      <g clip-path="url(#clipPath142)" id="g140"><text id="text146" style="font-variant:normal;font-weight:normal;font-size:13.15200043px;font-family:'Roboto Condensed';-inkscape-font-specification:RobotoCondensed-Regular;writing-mode:lr-tb;fill:#000000;fill-opacity:1;fill-rule:nonzero;stroke:none" transform="matrix(1,0,0,-1,250.25,289.34)"><tspan id="tspan148" y="0" x="0 7.575552 13.34928">AxJ</tspan></text>
</g>
    </g>
    <g id="g150">
      <g clip-path="url(#clipPath154)" id="g152"><text id="text158" style="font-variant:normal;font-weight:normal;font-size:13.15200043px;font-family:'Roboto Condensed';-inkscape-font-specification:RobotoCondensed-Regular;writing-mode:lr-tb;fill:#000000;fill-opacity:1;fill-rule:nonzero;stroke:none" transform="matrix(1,0,0,-1,351.82,289.34)"><tspan id="tspan160" y="0" x="0 7.4571838 13.901664 20.490816 30.381121 36.970272">CEEMEA</tspan></text>
</g>
    </g>
    <g id="g162">
      <g clip-path="url(#clipPath166)" id="g164"><text id="text170" style="font-variant:normal;font-weight:normal;font-size:13.15200043px;font-family:'Roboto Condensed';-inkscape-font-specification:RobotoCondensed-Regular;writing-mode:lr-tb;fill:#000000;fill-opacity:1;fill-rule:nonzero;stroke:none" transform="matrix(1,0,0,-1,471.1,289.34)"><tspan id="tspan172" y="0" x="0 6.2735038 12.415488 16.413696 23.857727">LatAm</tspan></text>
</g>
    </g>
    <g id="g174">
      <g clip-path="url(#clipPath178)" id="g176"><text id="text182" style="font-variant:normal;font-weight:bold;font-size:15.74400043px;font-family:'Roboto Condensed';-inkscape-font-specification:RobotoCondensed-Bold;writing-mode:lr-tb;fill:#000000;fill-opacity:1;fill-rule:nonzero;stroke:none" transform="matrix(1,0,0,-1,228.02,510.77)"><tspan id="tspan184" y="0" x="0 8.7221756 16.263552 23.726208 27.693695 31.17312 40.320385 49.215744 58.17408 61.87392 71.021187 76.153725 83.99424 94.02317 98.856575 106.60262 110.17651 115.29331 125.3065 133.88698">Real GDP Growth (%Y)</tspan></text>
</g>
    </g>
    <path id="path186" style="fill:#005aa4;fill-opacity:1;fill-rule:evenodd;stroke:none" d="m 200.66,491.8 7.083,0 0,7.083 -7.083,0 0,-7.083 z"/>
    <g id="g188">
      <g clip-path="url(#clipPath192)" id="g190"><text id="text196" style="font-variant:normal;font-weight:normal;font-size:13.17599964px;font-family:'Roboto Condensed';-inkscape-font-specification:RobotoCondensed-Regular;writing-mode:lr-tb;fill:#005aa4;fill-opacity:1;fill-rule:nonzero;stroke:none" transform="matrix(1,0,0,-1,210.89,491.38)"><tspan id="tspan198" y="0" x="0 6.4298878 12.991536 19.421425">2024</tspan></text>
</g>
    </g>
    <path id="path200" style="fill:#d0b86a;fill-opacity:1;fill-rule:evenodd;stroke:none" d="m 249.85,491.8 7.083,0 0,7.083 -7.083,0 0,-7.083 z"/>
    <g id="g202">
      <g clip-path="url(#clipPath206)" id="g204"><text id="text210" style="font-variant:normal;font-weight:normal;font-size:13.17599964px;font-family:'Roboto Condensed';-inkscape-font-specification:RobotoCondensed-Regular;writing-mode:lr-tb;fill:#b39638;fill-opacity:1;fill-rule:nonzero;stroke:none" transform="matrix(1,0,0,-1,260.09,491.38)"><tspan id="tspan212" y="0" x="0 6.4298878 12.991536 19.421425 25.851313">2025E</tspan></text>
</g>
    </g>
    <path id="path214" style="fill:#57caaf;fill-opacity:1;fill-rule:evenodd;stroke:none" d="m 305.55,491.8 7.083,0 0,7.083 -7.083,0 0,-7.083 z"/>
    <g id="g216">
      <g clip-path="url(#clipPath220)" id="g218"><text id="text224" style="font-variant:normal;font-weight:normal;font-size:13.17599964px;font-family:'Roboto Condensed';-inkscape-font-specification:RobotoCondensed-Regular;writing-mode:lr-tb;fill:#57caaf;fill-opacity:1;fill-rule:nonzero;stroke:none" transform="matrix(1,0,0,-1,315.79,491.38)"><tspan id="tspan226" y="0" x="0 6.4298878 12.991536 19.421425 25.851313">2026E</tspan></text>
</g>
    </g>
    <path id="path228" style="fill:#00a1e2;fill-opacity:1;fill-rule:evenodd;stroke:none" d="m 361.25,491.8 7.083,0 0,7.083 -7.083,0 0,-7.083 z"/>
    <g id="g230">
      <g clip-path="url(#clipPath234)" id="g232"><text id="text238" style="font-variant:normal;font-weight:normal;font-size:13.17599964px;font-family:'Roboto Condensed';-inkscape-font-specification:RobotoCondensed-Regular;writing-mode:lr-tb;fill:#00a1e2;fill-opacity:1;fill-rule:nonzero;stroke:none" transform="matrix(1,0,0,-1,371.5,491.38)"><tspan id="tspan240" y="0" x="0 6.4562402 13.04424 19.500481 25.95672">2027E</tspan></text>
</g>
    </g>
  </g>
</svg>
