<?xml version="1.0" encoding="UTF-8" standalone="no"?>
<svg xmlns:dc="http://purl.org/dc/elements/1.1/" xmlns:cc="http://creativecommons.org/ns#" xmlns:rdf="http://www.w3.org/1999/02/22-rdf-syntax-ns#" xmlns:svg="http://www.w3.org/2000/svg" xmlns="http://www.w3.org/2000/svg" viewBox="1.8 5.3736328 277.525 93.801367" height="93.801367" width="277.525" xml:space="preserve" version="1.1" id="svg2">
  <metadata id="metadata8">
    <rdf:RDF>
      <cc:Work rdf:about="">
        <dc:format>image/svg+xml</dc:format>
        <dc:type rdf:resource="http://purl.org/dc/dcmitype/StillImage"/>
      </cc:Work>
    </rdf:RDF>
  </metadata>
  <defs id="defs6">
    <clipPath id="clipPath30" clipPathUnits="userSpaceOnUse">
      <path style="clip-rule:evenodd" id="path32" d="m 1.92,596.88 220.58,0 0,14.16 -220.58,0 0,-14.16 z"/>
    </clipPath>
    <clipPath id="clipPath42" clipPathUnits="userSpaceOnUse">
      <path style="clip-rule:evenodd" id="path44" d="m 1.92,596.88 220.58,0 0,14.16 -220.58,0 0,-14.16 z"/>
    </clipPath>
    <clipPath id="clipPath54" clipPathUnits="userSpaceOnUse">
      <path style="clip-rule:evenodd" id="path56" d="m 1.92,579.48 220.58,0 0,14.16 -220.58,0 0,-14.16 z"/>
    </clipPath>
    <clipPath id="clipPath66" clipPathUnits="userSpaceOnUse">
      <path style="clip-rule:evenodd" id="path68" d="m 1.92,579.48 220.58,0 0,14.16 -220.58,0 0,-14.16 z"/>
    </clipPath>
    <clipPath id="clipPath78" clipPathUnits="userSpaceOnUse">
      <path style="clip-rule:evenodd" id="path80" d="m 1.92,579.48 220.58,0 0,14.16 -220.58,0 0,-14.16 z"/>
    </clipPath>
    <clipPath id="clipPath90" clipPathUnits="userSpaceOnUse">
      <path style="clip-rule:evenodd" id="path92" d="m 1.92,579.48 220.58,0 0,14.16 -220.58,0 0,-14.16 z"/>
    </clipPath>
    <clipPath id="clipPath102" clipPathUnits="userSpaceOnUse">
      <path style="clip-rule:evenodd" id="path104" d="m 1.92,579.48 220.58,0 0,14.16 -220.58,0 0,-14.16 z"/>
    </clipPath>
    <clipPath id="clipPath114" clipPathUnits="userSpaceOnUse">
      <path style="clip-rule:evenodd" id="path116" d="m 1.92,579.48 220.58,0 0,14.16 -220.58,0 0,-14.16 z"/>
    </clipPath>
    <clipPath id="clipPath126" clipPathUnits="userSpaceOnUse">
      <path style="clip-rule:evenodd" id="path128" d="m 1.92,564.36 220.58,0 0,14.16 -220.58,0 0,-14.16 z"/>
    </clipPath>
    <clipPath id="clipPath138" clipPathUnits="userSpaceOnUse">
      <path style="clip-rule:evenodd" id="path140" d="m 1.92,564.36 220.58,0 0,14.16 -220.58,0 0,-14.16 z"/>
    </clipPath>
    <clipPath id="clipPath150" clipPathUnits="userSpaceOnUse">
      <path style="clip-rule:evenodd" id="path152" d="m 1.92,564.36 220.58,0 0,14.16 -220.58,0 0,-14.16 z"/>
    </clipPath>
    <clipPath id="clipPath162" clipPathUnits="userSpaceOnUse">
      <path style="clip-rule:evenodd" id="path164" d="m 1.92,564.36 220.58,0 0,14.16 -220.58,0 0,-14.16 z"/>
    </clipPath>
    <clipPath id="clipPath174" clipPathUnits="userSpaceOnUse">
      <path style="clip-rule:evenodd" id="path176" d="m 1.92,564.36 220.58,0 0,14.16 -220.58,0 0,-14.16 z"/>
    </clipPath>
    <clipPath id="clipPath186" clipPathUnits="userSpaceOnUse">
      <path style="clip-rule:evenodd" id="path188" d="m 1.92,549.22 220.58,0 0,14.184 -220.58,0 0,-14.184 z"/>
    </clipPath>
    <clipPath id="clipPath198" clipPathUnits="userSpaceOnUse">
      <path style="clip-rule:evenodd" id="path200" d="m 1.92,549.22 220.58,0 0,14.184 -220.58,0 0,-14.184 z"/>
    </clipPath>
    <clipPath id="clipPath210" clipPathUnits="userSpaceOnUse">
      <path style="clip-rule:evenodd" id="path212" d="m 1.92,549.22 220.58,0 0,14.184 -220.58,0 0,-14.184 z"/>
    </clipPath>
    <clipPath id="clipPath222" clipPathUnits="userSpaceOnUse">
      <path style="clip-rule:evenodd" id="path224" d="m 1.92,549.22 220.58,0 0,14.184 -220.58,0 0,-14.184 z"/>
    </clipPath>
    <clipPath id="clipPath234" clipPathUnits="userSpaceOnUse">
      <path style="clip-rule:evenodd" id="path236" d="m 1.92,534.1 220.58,0 0,14.16 -220.58,0 0,-14.16 z"/>
    </clipPath>
    <clipPath id="clipPath246" clipPathUnits="userSpaceOnUse">
      <path style="clip-rule:evenodd" id="path248" d="m 1.92,534.1 220.58,0 0,14.16 -220.58,0 0,-14.16 z"/>
    </clipPath>
    <clipPath id="clipPath258" clipPathUnits="userSpaceOnUse">
      <path style="clip-rule:evenodd" id="path260" d="m 1.92,534.1 220.58,0 0,14.16 -220.58,0 0,-14.16 z"/>
    </clipPath>
    <clipPath id="clipPath270" clipPathUnits="userSpaceOnUse">
      <path style="clip-rule:evenodd" id="path272" d="m 0,531.1 224.54,0 0,81.864 -224.54,0 0,-81.864 z"/>
    </clipPath>
  </defs>
  <g transform="matrix(1.25,0,0,-1.25,0,765)" id="g10">
    <path id="path12" style="fill:#005aa4;fill-opacity:1;fill-rule:evenodd;stroke:none" d="m 137.42,578.88 84.72,0 0,15.24 -84.72,0 0,-15.24 z"/>
    <path id="path14" style="fill:#005aa4;fill-opacity:1;fill-rule:evenodd;stroke:none" d="m 137.42,563.76 67.8,0 0,15.24 -67.8,0 0,-15.24 z"/>
    <path id="path16" style="fill:#d9d9d9;fill-opacity:1;fill-rule:evenodd;stroke:none" d="m 205.1,563.76 17.04,0 0,15.24 -17.04,0 0,-15.24 z"/>
    <path id="path18" style="fill:#005aa4;fill-opacity:1;fill-rule:evenodd;stroke:none" d="m 137.42,548.62 50.88,0 0,15.264 -50.88,0 0,-15.264 z"/>
    <path id="path20" style="fill:#d9d9d9;fill-opacity:1;fill-rule:evenodd;stroke:none" d="m 188.18,548.62 33.96,0 0,15.264 -33.96,0 0,-15.264 z"/>
    <path id="path22" style="fill:#005aa4;fill-opacity:1;fill-rule:evenodd;stroke:none" d="m 137.42,533.5 33.96,0 0,15.24 -33.96,0 0,-15.24 z"/>
    <path id="path24" style="fill:#d9d9d9;fill-opacity:1;fill-rule:evenodd;stroke:none" d="m 171.26,533.5 50.88,0 0,15.24 -50.88,0 0,-15.24 z"/>
    <g id="g26">
      <g clip-path="url(#clipPath30)" id="g28"><text id="text34" style="font-variant:normal;font-weight:bold;font-size:11.03999996px;font-family:Roboto;-inkscape-font-specification:'Roboto Bold';writing-mode:lr-tb;fill:#005aa4;fill-opacity:1;fill-rule:nonzero;stroke:none" transform="matrix(1,0,0,-1,144.14,601.2)"><tspan id="tspan36" y="0" x="0">-</tspan></text>
</g>
    </g>
    <g id="g38">
      <g clip-path="url(#clipPath42)" id="g40"><text id="text46" style="font-variant:normal;font-weight:bold;font-size:11.03999996px;font-family:Roboto;-inkscape-font-specification:'Roboto Bold';writing-mode:lr-tb;fill:#005aa4;fill-opacity:1;fill-rule:nonzero;stroke:none" transform="matrix(1,0,0,-1,210.98,601.2)"><tspan id="tspan48" y="0" x="0">+</tspan></text>
</g>
    </g>
    <g id="g50">
      <g clip-path="url(#clipPath54)" id="g52"><text id="text58" style="font-variant:normal;font-weight:bold;font-size:11.03999996px;font-family:Roboto;-inkscape-font-specification:'Roboto Bold';writing-mode:lr-tb;fill:#005aa4;fill-opacity:1;fill-rule:nonzero;stroke:none" transform="matrix(1,0,0,-1,3.6,583.8)"><tspan id="tspan60" y="0" x="0 7.3199601">US</tspan></text>
</g>
    </g>
    <g id="g62">
      <g clip-path="url(#clipPath66)" id="g64"><text id="text70" style="font-variant:normal;font-weight:normal;font-size:11.03999996px;font-family:Roboto;-inkscape-font-specification:Roboto;writing-mode:lr-tb;fill:#005aa4;fill-opacity:1;fill-rule:nonzero;stroke:none" transform="matrix(1,0,0,-1,139.46,583.8)"><tspan id="tspan72" y="0" x="0">x</tspan></text>
</g>
    </g>
    <g id="g74">
      <g clip-path="url(#clipPath78)" id="g76"><text id="text82" style="font-variant:normal;font-weight:normal;font-size:11.03999996px;font-family:Roboto;-inkscape-font-specification:Roboto;writing-mode:lr-tb;fill:#005aa4;fill-opacity:1;fill-rule:nonzero;stroke:none" transform="matrix(1,0,0,-1,156.38,583.8)"><tspan id="tspan84" y="0" x="0">x</tspan></text>
</g>
    </g>
    <g id="g86">
      <g clip-path="url(#clipPath90)" id="g88"><text id="text94" style="font-variant:normal;font-weight:normal;font-size:11.03999996px;font-family:Roboto;-inkscape-font-specification:Roboto;writing-mode:lr-tb;fill:#005aa4;fill-opacity:1;fill-rule:nonzero;stroke:none" transform="matrix(1,0,0,-1,173.3,583.8)"><tspan id="tspan96" y="0" x="0">x</tspan></text>
</g>
    </g>
    <g id="g98">
      <g clip-path="url(#clipPath102)" id="g100"><text id="text106" style="font-variant:normal;font-weight:normal;font-size:11.03999996px;font-family:Roboto;-inkscape-font-specification:Roboto;writing-mode:lr-tb;fill:#005aa4;fill-opacity:1;fill-rule:nonzero;stroke:none" transform="matrix(1,0,0,-1,190.22,583.8)"><tspan id="tspan108" y="0" x="0">x</tspan></text>
</g>
    </g>
    <g id="g110">
      <g clip-path="url(#clipPath114)" id="g112"><text id="text118" style="font-variant:normal;font-weight:normal;font-size:11.03999996px;font-family:Roboto;-inkscape-font-specification:Roboto;writing-mode:lr-tb;fill:#005aa4;fill-opacity:1;fill-rule:nonzero;stroke:none" transform="matrix(1,0,0,-1,207.14,583.8)"><tspan id="tspan120" y="0" x="0">x</tspan></text>
</g>
    </g>
    <g id="g122">
      <g clip-path="url(#clipPath126)" id="g124"><text id="text130" style="font-variant:normal;font-weight:bold;font-size:11.03999996px;font-family:Roboto;-inkscape-font-specification:'Roboto Bold';writing-mode:lr-tb;fill:#005aa4;fill-opacity:1;fill-rule:nonzero;stroke:none" transform="matrix(1,0,0,-1,3.6,568.68)"><tspan id="tspan132" y="0" x="0 6.1161599 12.02256 18.238079 24.14448">Japan</tspan></text>
</g>
    </g>
    <g id="g134">
      <g clip-path="url(#clipPath138)" id="g136"><text id="text142" style="font-variant:normal;font-weight:normal;font-size:11.03999996px;font-family:Roboto;-inkscape-font-specification:Roboto;writing-mode:lr-tb;fill:#005aa4;fill-opacity:1;fill-rule:nonzero;stroke:none" transform="matrix(1,0,0,-1,139.46,568.68)"><tspan id="tspan144" y="0" x="0">x</tspan></text>
</g>
    </g>
    <g id="g146">
      <g clip-path="url(#clipPath150)" id="g148"><text id="text154" style="font-variant:normal;font-weight:normal;font-size:11.03999996px;font-family:Roboto;-inkscape-font-specification:Roboto;writing-mode:lr-tb;fill:#005aa4;fill-opacity:1;fill-rule:nonzero;stroke:none" transform="matrix(1,0,0,-1,156.38,568.68)"><tspan id="tspan156" y="0" x="0">x</tspan></text>
</g>
    </g>
    <g id="g158">
      <g clip-path="url(#clipPath162)" id="g160"><text id="text166" style="font-variant:normal;font-weight:normal;font-size:11.03999996px;font-family:Roboto;-inkscape-font-specification:Roboto;writing-mode:lr-tb;fill:#005aa4;fill-opacity:1;fill-rule:nonzero;stroke:none" transform="matrix(1,0,0,-1,173.3,568.68)"><tspan id="tspan168" y="0" x="0">x</tspan></text>
</g>
    </g>
    <g id="g170">
      <g clip-path="url(#clipPath174)" id="g172"><text id="text178" style="font-variant:normal;font-weight:normal;font-size:11.03999996px;font-family:Roboto;-inkscape-font-specification:Roboto;writing-mode:lr-tb;fill:#005aa4;fill-opacity:1;fill-rule:nonzero;stroke:none" transform="matrix(1,0,0,-1,190.22,568.68)"><tspan id="tspan180" y="0" x="0">x</tspan></text>
</g>
    </g>
    <g id="g182">
      <g clip-path="url(#clipPath186)" id="g184"><text id="text190" style="font-variant:normal;font-weight:bold;font-size:11.03999996px;font-family:Roboto;-inkscape-font-specification:'Roboto Bold';writing-mode:lr-tb;fill:#005aa4;fill-opacity:1;fill-rule:nonzero;stroke:none" transform="matrix(1,0,0,-1,3.6,553.56)"><tspan id="tspan192" y="0" x="0 6.2155199 12.46416 16.53792 22.764481 29.002081">Europe</tspan></text>
</g>
    </g>
    <g id="g194">
      <g clip-path="url(#clipPath198)" id="g196"><text id="text202" style="font-variant:normal;font-weight:normal;font-size:11.03999996px;font-family:Roboto;-inkscape-font-specification:Roboto;writing-mode:lr-tb;fill:#005aa4;fill-opacity:1;fill-rule:nonzero;stroke:none" transform="matrix(1,0,0,-1,139.46,553.56)"><tspan id="tspan204" y="0" x="0">x</tspan></text>
</g>
    </g>
    <g id="g206">
      <g clip-path="url(#clipPath210)" id="g208"><text id="text214" style="font-variant:normal;font-weight:normal;font-size:11.03999996px;font-family:Roboto;-inkscape-font-specification:Roboto;writing-mode:lr-tb;fill:#005aa4;fill-opacity:1;fill-rule:nonzero;stroke:none" transform="matrix(1,0,0,-1,156.38,553.56)"><tspan id="tspan216" y="0" x="0">x</tspan></text>
</g>
    </g>
    <g id="g218">
      <g clip-path="url(#clipPath222)" id="g220"><text id="text226" style="font-variant:normal;font-weight:normal;font-size:11.03999996px;font-family:Roboto;-inkscape-font-specification:Roboto;writing-mode:lr-tb;fill:#005aa4;fill-opacity:1;fill-rule:nonzero;stroke:none" transform="matrix(1,0,0,-1,173.3,553.56)"><tspan id="tspan228" y="0" x="0">x</tspan></text>
</g>
    </g>
    <g id="g230">
      <g clip-path="url(#clipPath234)" id="g232"><text id="text238" style="font-variant:normal;font-weight:bold;font-size:11.03999996px;font-family:Roboto;-inkscape-font-specification:'Roboto Bold';writing-mode:lr-tb;fill:#005aa4;fill-opacity:1;fill-rule:nonzero;stroke:none" transform="matrix(1,0,0,-1,3.6,538.42)"><tspan id="tspan240" y="0" x="0 6.2400198">EM</tspan></text>
</g>
    </g>
    <g id="g242">
      <g clip-path="url(#clipPath246)" id="g244"><text id="text250" style="font-variant:normal;font-weight:normal;font-size:11.03999996px;font-family:Roboto;-inkscape-font-specification:Roboto;writing-mode:lr-tb;fill:#005aa4;fill-opacity:1;fill-rule:nonzero;stroke:none" transform="matrix(1,0,0,-1,139.46,538.42)"><tspan id="tspan252" y="0" x="0">x</tspan></text>
</g>
    </g>
    <g id="g254">
      <g clip-path="url(#clipPath258)" id="g256"><text id="text262" style="font-variant:normal;font-weight:normal;font-size:11.03999996px;font-family:Roboto;-inkscape-font-specification:Roboto;writing-mode:lr-tb;fill:#005aa4;fill-opacity:1;fill-rule:nonzero;stroke:none" transform="matrix(1,0,0,-1,156.38,538.42)"><tspan id="tspan264" y="0" x="0">x</tspan></text>
</g>
    </g>
    <g id="g266">
      <g clip-path="url(#clipPath270)" id="g268">
        <path id="path274" style="fill:#ffffff;fill-opacity:1;fill-rule:evenodd;stroke:none" d="m 138.86,593.16 14.04,0 0,1.92 -14.04,0 0,-1.92 z"/>
        <path id="path276" style="fill:#ffffff;fill-opacity:1;fill-rule:evenodd;stroke:none" d="m 155.78,593.16 14.04,0 0,1.92 -14.04,0 0,-1.92 z"/>
        <path id="path278" style="fill:#ffffff;fill-opacity:1;fill-rule:evenodd;stroke:none" d="m 172.7,593.16 14.04,0 0,1.92 -14.04,0 0,-1.92 z"/>
        <path id="path280" style="fill:#ffffff;fill-opacity:1;fill-rule:evenodd;stroke:none" d="m 189.62,593.16 14.04,0 0,1.92 -14.04,0 0,-1.92 z"/>
        <path id="path282" style="fill:#ffffff;fill-opacity:1;fill-rule:evenodd;stroke:none" d="m 138.86,578.04 14.04,0 0,1.92 -14.04,0 0,-1.92 z"/>
        <path id="path284" style="fill:#ffffff;fill-opacity:1;fill-rule:evenodd;stroke:none" d="m 155.78,578.04 14.04,0 0,1.92 -14.04,0 0,-1.92 z"/>
        <path id="path286" style="fill:#ffffff;fill-opacity:1;fill-rule:evenodd;stroke:none" d="m 172.7,578.04 14.04,0 0,1.92 -14.04,0 0,-1.92 z"/>
        <path id="path288" style="fill:#ffffff;fill-opacity:1;fill-rule:evenodd;stroke:none" d="m 189.62,578.04 14.04,0 0,1.92 -14.04,0 0,-1.92 z"/>
        <path id="path290" style="fill:#ffffff;fill-opacity:1;fill-rule:evenodd;stroke:none" d="m 138.86,562.92 14.04,0 0,1.92 -14.04,0 0,-1.92 z"/>
        <path id="path292" style="fill:#ffffff;fill-opacity:1;fill-rule:evenodd;stroke:none" d="m 155.78,562.92 14.04,0 0,1.92 -14.04,0 0,-1.92 z"/>
        <path id="path294" style="fill:#ffffff;fill-opacity:1;fill-rule:evenodd;stroke:none" d="m 172.7,562.92 14.04,0 0,1.92 -14.04,0 0,-1.92 z"/>
        <path id="path296" style="fill:#ffffff;fill-opacity:1;fill-rule:evenodd;stroke:none" d="m 189.62,562.92 14.04,0 0,1.92 -14.04,0 0,-1.92 z"/>
        <path id="path298" style="fill:#ffffff;fill-opacity:1;fill-rule:evenodd;stroke:none" d="m 138.86,547.78 14.04,0 0,1.92 -14.04,0 0,-1.92 z"/>
        <path id="path300" style="fill:#ffffff;fill-opacity:1;fill-rule:evenodd;stroke:none" d="m 155.78,547.78 14.04,0 0,1.92 -14.04,0 0,-1.92 z"/>
        <path id="path302" style="fill:#ffffff;fill-opacity:1;fill-rule:evenodd;stroke:none" d="m 172.7,547.78 14.04,0 0,1.92 -14.04,0 0,-1.92 z"/>
        <path id="path304" style="fill:#ffffff;fill-opacity:1;fill-rule:evenodd;stroke:none" d="m 189.62,547.78 14.04,0 0,1.92 -14.04,0 0,-1.92 z"/>
        <path id="path306" style="fill:#ffffff;fill-opacity:1;fill-rule:evenodd;stroke:none" d="m 138.86,532.66 14.04,0 0,1.92 -14.04,0 0,-1.92 z"/>
        <path id="path308" style="fill:#ffffff;fill-opacity:1;fill-rule:evenodd;stroke:none" d="m 155.78,532.66 14.04,0 0,1.92 -14.04,0 0,-1.92 z"/>
        <path id="path310" style="fill:#ffffff;fill-opacity:1;fill-rule:evenodd;stroke:none" d="m 172.7,532.66 14.04,0 0,1.92 -14.04,0 0,-1.92 z"/>
        <path id="path312" style="fill:#ffffff;fill-opacity:1;fill-rule:evenodd;stroke:none" d="m 189.62,532.66 14.04,0 0,1.92 -14.04,0 0,-1.92 z"/>
        <path id="path314" style="fill:#ffffff;fill-opacity:1;fill-rule:evenodd;stroke:none" d="m 135.98,532.66 2.88,0 0,62.424 -2.88,0 0,-62.424 z"/>
        <path id="path316" style="fill:#ffffff;fill-opacity:1;fill-rule:evenodd;stroke:none" d="m 152.9,532.66 2.88,0 0,62.424 -2.88,0 0,-62.424 z"/>
        <path id="path318" style="fill:#ffffff;fill-opacity:1;fill-rule:evenodd;stroke:none" d="m 169.82,532.66 2.88,0 0,62.424 -2.88,0 0,-62.424 z"/>
        <path id="path320" style="fill:#ffffff;fill-opacity:1;fill-rule:evenodd;stroke:none" d="m 186.74,532.66 2.88,0 0,62.424 -2.88,0 0,-62.424 z"/>
        <path id="path322" style="fill:#ffffff;fill-opacity:1;fill-rule:evenodd;stroke:none" d="m 203.66,532.66 2.88,0 0,62.424 -2.88,0 0,-62.424 z"/>
        <path id="path324" style="fill:#ffffff;fill-opacity:1;fill-rule:evenodd;stroke:none" d="m 220.58,532.66 2.88,0 0,62.424 -2.88,0 0,-62.424 z"/>
        <path id="path326" style="fill:#005aa4;fill-opacity:1;fill-rule:evenodd;stroke:none" d="m 1.44,595.44 220.7,0 0,1.92 -220.7,0 0,-1.92 z"/>
        <path id="path328" style="fill:#ffffff;fill-opacity:1;fill-rule:evenodd;stroke:none" d="m 206.54,593.16 14.04,0 0,1.92 -14.04,0 0,-1.92 z"/>
        <path id="path330" style="fill:#ffffff;fill-opacity:1;fill-rule:evenodd;stroke:none" d="m 206.54,578.04 14.04,0 0,1.92 -14.04,0 0,-1.92 z"/>
        <path id="path332" style="fill:#ffffff;fill-opacity:1;fill-rule:evenodd;stroke:none" d="m 206.54,562.92 14.04,0 0,1.92 -14.04,0 0,-1.92 z"/>
        <path id="path334" style="fill:#ffffff;fill-opacity:1;fill-rule:evenodd;stroke:none" d="m 206.54,547.78 14.04,0 0,1.92 -14.04,0 0,-1.92 z"/>
        <path id="path336" style="fill:#ffffff;fill-opacity:1;fill-rule:evenodd;stroke:none" d="m 206.54,532.66 14.04,0 0,1.92 -14.04,0 0,-1.92 z"/>
      </g>
    </g>
  </g>
</svg>
