<?xml version="1.0" encoding="UTF-8" standalone="no"?>
<svg xmlns:dc="http://purl.org/dc/elements/1.1/" xmlns:cc="http://creativecommons.org/ns#" xmlns:rdf="http://www.w3.org/1999/02/22-rdf-syntax-ns#" xmlns:svg="http://www.w3.org/2000/svg" xmlns="http://www.w3.org/2000/svg" viewBox="2.4 5.3848388 501.3625 166" height="166" width="501.3625" xml:space="preserve" version="1.1" id="svg2">
  <metadata id="metadata8">
    <rdf:RDF>
      <cc:Work rdf:about="">
        <dc:format>image/svg+xml</dc:format>
        <dc:type rdf:resource="http://purl.org/dc/dcmitype/StillImage"/>
      </cc:Work>
    </rdf:RDF>
  </metadata>
  <defs id="defs6">
    <clipPath id="clipPath16" clipPathUnits="userSpaceOnUse">
      <path style="clip-rule:evenodd" id="path18" d="m 1.92,474.58 401.45,0 0,136.46 -401.45,0 0,-136.46 z"/>
    </clipPath>
    <clipPath id="clipPath88" clipPathUnits="userSpaceOnUse">
      <path style="clip-rule:evenodd" id="path90" d="m 1.92,551.76 71.16,0 0,44.04 -71.16,0 0,-44.04 z"/>
    </clipPath>
    <clipPath id="clipPath100" clipPathUnits="userSpaceOnUse">
      <path style="clip-rule:evenodd" id="path102" d="m 1.92,551.76 71.16,0 0,44.04 -71.16,0 0,-44.04 z"/>
    </clipPath>
    <clipPath id="clipPath112" clipPathUnits="userSpaceOnUse">
      <path style="clip-rule:evenodd" id="path114" d="m 1.92,551.76 71.16,0 0,44.04 -71.16,0 0,-44.04 z"/>
    </clipPath>
    <clipPath id="clipPath124" clipPathUnits="userSpaceOnUse">
      <path style="clip-rule:evenodd" id="path126" d="m 1.92,474.58 401.45,0 0,136.46 -401.45,0 0,-136.46 z"/>
    </clipPath>
    <clipPath id="clipPath320" clipPathUnits="userSpaceOnUse">
      <path style="clip-rule:evenodd" id="path322" d="m 1.92,596.28 400.97,0 0,14.76 -400.97,0 0,-14.76 z"/>
    </clipPath>
  </defs>
  <g transform="matrix(1.25,0,0,-1.25,0,765)" id="g10">
    <g id="g12">
      <g clip-path="url(#clipPath16)" id="g14">
        <path id="path20" style="fill:#005aa4;fill-opacity:1;fill-rule:evenodd;stroke:none" d="m 1.44,551.14 401.57,0 0,45.144 -401.57,0 0,-45.144 z"/>
      </g>
    </g>
    <path id="path22" style="fill:#fa9172;fill-opacity:1;fill-rule:evenodd;stroke:none" d="m 73.56,535.9 47.184,0 0,15.36 -47.184,0 0,-15.36 z"/>
    <path id="path24" style="fill:#f86b6b;fill-opacity:1;fill-rule:evenodd;stroke:none" d="m 120.62,535.9 47.16,0 0,15.36 -47.16,0 0,-15.36 z"/>
    <path id="path26" style="fill:#f8696b;fill-opacity:1;fill-rule:evenodd;stroke:none" d="m 167.66,535.9 47.16,0 0,15.36 -47.16,0 0,-15.36 z"/>
    <path id="path28" style="fill:#63be7b;fill-opacity:1;fill-rule:evenodd;stroke:none" d="m 214.7,535.9 47.16,0 0,15.36 -47.16,0 0,-15.36 z"/>
    <path id="path30" style="fill:#f8696b;fill-opacity:1;fill-rule:evenodd;stroke:none" d="m 261.74,535.9 47.16,0 0,15.36 -47.16,0 0,-15.36 z"/>
    <path id="path32" style="fill:#63be7b;fill-opacity:1;fill-rule:evenodd;stroke:none" d="m 308.78,535.9 47.184,0 0,15.36 -47.184,0 0,-15.36 z"/>
    <path id="path34" style="fill:#83c77d;fill-opacity:1;fill-rule:evenodd;stroke:none" d="m 355.85,535.9 47.16,0 0,15.36 -47.16,0 0,-15.36 z"/>
    <path id="path36" style="fill:#ffeb84;fill-opacity:1;fill-rule:evenodd;stroke:none" d="m 73.56,520.66 94.224,0 0,15.36 -94.224,0 0,-15.36 z"/>
    <path id="path38" style="fill:#fba476;fill-opacity:1;fill-rule:evenodd;stroke:none" d="m 167.66,520.66 47.16,0 0,15.36 -47.16,0 0,-15.36 z"/>
    <path id="path40" style="fill:#fbaa77;fill-opacity:1;fill-rule:evenodd;stroke:none" d="m 214.7,520.66 47.16,0 0,15.36 -47.16,0 0,-15.36 z"/>
    <path id="path42" style="fill:#63be7b;fill-opacity:1;fill-rule:evenodd;stroke:none" d="m 261.74,520.66 47.16,0 0,15.36 -47.16,0 0,-15.36 z"/>
    <path id="path44" style="fill:#f8696b;fill-opacity:1;fill-rule:evenodd;stroke:none" d="m 308.78,520.66 47.184,0 0,15.36 -47.184,0 0,-15.36 z"/>
    <path id="path46" style="fill:#63be7b;fill-opacity:1;fill-rule:evenodd;stroke:none" d="m 355.85,520.66 47.16,0 0,15.36 -47.16,0 0,-15.36 z"/>
    <path id="path48" style="fill:#63be7b;fill-opacity:1;fill-rule:evenodd;stroke:none" d="m 73.56,505.42 94.224,0 0,15.36 -94.224,0 0,-15.36 z"/>
    <path id="path50" style="fill:#ffeb84;fill-opacity:1;fill-rule:evenodd;stroke:none" d="m 167.66,505.42 47.16,0 0,15.36 -47.16,0 0,-15.36 z"/>
    <path id="path52" style="fill:#b1d580;fill-opacity:1;fill-rule:evenodd;stroke:none" d="m 214.7,505.42 47.16,0 0,15.36 -47.16,0 0,-15.36 z"/>
    <path id="path54" style="fill:#94cc7e;fill-opacity:1;fill-rule:evenodd;stroke:none" d="m 261.74,505.42 47.16,0 0,15.36 -47.16,0 0,-15.36 z"/>
    <path id="path56" style="fill:#f8696b;fill-opacity:1;fill-rule:evenodd;stroke:none" d="m 308.78,505.42 47.184,0 0,15.36 -47.184,0 0,-15.36 z"/>
    <path id="path58" style="fill:#ffeb84;fill-opacity:1;fill-rule:evenodd;stroke:none" d="m 355.85,505.42 47.16,0 0,15.36 -47.16,0 0,-15.36 z"/>
    <path id="path60" style="fill:#7ec67d;fill-opacity:1;fill-rule:evenodd;stroke:none" d="m 73.56,490.18 47.184,0 0,15.36 -47.184,0 0,-15.36 z"/>
    <path id="path62" style="fill:#82c77d;fill-opacity:1;fill-rule:evenodd;stroke:none" d="m 120.62,490.18 47.16,0 0,15.36 -47.16,0 0,-15.36 z"/>
    <path id="path64" style="fill:#75c47d;fill-opacity:1;fill-rule:evenodd;stroke:none" d="m 167.66,490.18 47.16,0 0,15.36 -47.16,0 0,-15.36 z"/>
    <path id="path66" style="fill:#ffeb84;fill-opacity:1;fill-rule:evenodd;stroke:none" d="m 214.7,490.18 94.2,0 0,15.36 -94.2,0 0,-15.36 z"/>
    <path id="path68" style="fill:#e8e583;fill-opacity:1;fill-rule:evenodd;stroke:none" d="m 308.78,490.18 47.184,0 0,15.36 -47.184,0 0,-15.36 z"/>
    <path id="path70" style="fill:#f8696b;fill-opacity:1;fill-rule:evenodd;stroke:none" d="m 355.85,490.18 47.16,0 0,15.36 -47.16,0 0,-15.36 z"/>
    <path id="path72" style="fill:#f8696b;fill-opacity:1;fill-rule:evenodd;stroke:none" d="m 73.56,474.94 94.224,0 0,15.36 -94.224,0 0,-15.36 z"/>
    <path id="path74" style="fill:#63be7b;fill-opacity:1;fill-rule:evenodd;stroke:none" d="m 167.66,474.94 47.16,0 0,15.36 -47.16,0 0,-15.36 z"/>
    <path id="path76" style="fill:#f8696b;fill-opacity:1;fill-rule:evenodd;stroke:none" d="m 214.7,474.94 47.16,0 0,15.36 -47.16,0 0,-15.36 z"/>
    <path id="path78" style="fill:#feea83;fill-opacity:1;fill-rule:evenodd;stroke:none" d="m 261.74,474.94 47.16,0 0,15.36 -47.16,0 0,-15.36 z"/>
    <path id="path80" style="fill:#ffeb84;fill-opacity:1;fill-rule:evenodd;stroke:none" d="m 308.78,474.94 47.184,0 0,15.36 -47.184,0 0,-15.36 z"/>
    <path id="path82" style="fill:#fa9773;fill-opacity:1;fill-rule:evenodd;stroke:none" d="m 355.85,474.94 47.16,0 0,15.36 -47.16,0 0,-15.36 z"/>
    <g id="g84">
      <g clip-path="url(#clipPath88)" id="g86"><text id="text92" style="font-variant:normal;font-weight:bold;font-size:9.96000004px;font-family:'Roboto Condensed';-inkscape-font-specification:RobotoCondensed-Bold;writing-mode:lr-tb;fill:#ffffff;fill-opacity:1;fill-rule:nonzero;stroke:none" transform="matrix(1,0,0,-1,3.24,581.88)"><tspan id="tspan94" y="0" x="0 5.6273999 8.1373196 11.4042 14.6412 19.412041 22.788481 27.55932 32.499481 37.081081 41.851921 46.433521 51.473282">Difference 2 </tspan></text>
</g>
    </g>
    <g id="g96">
      <g clip-path="url(#clipPath100)" id="g98"><text id="text104" style="font-variant:normal;font-weight:bold;font-size:9.96000004px;font-family:'Roboto Condensed';-inkscape-font-specification:RobotoCondensed-Bold;writing-mode:lr-tb;fill:#ffffff;fill-opacity:1;fill-rule:nonzero;stroke:none" transform="matrix(1,0,0,-1,3.24,568.92)"><tspan id="tspan106" y="0" x="0 5.3983202 10.18908 14.88024 18.216841 22.76856 24.332279 26.623079 32.031361 34.541279 41.961479 46.732319 49.023121 53.495159 58.016998 60.915359">Years' Time vs. </tspan></text>
</g>
    </g>
    <g id="g108">
      <g clip-path="url(#clipPath112)" id="g110"><text id="text116" style="font-variant:normal;font-weight:bold;font-size:9.96000004px;font-family:'Roboto Condensed';-inkscape-font-specification:RobotoCondensed-Bold;writing-mode:lr-tb;fill:#ffffff;fill-opacity:1;fill-rule:nonzero;stroke:none" transform="matrix(1,0,0,-1,3.24,555.96)"><tspan id="tspan118" y="0" x="0 5.6373601 10.53768 13.90416 17.250719 22.021561 26.96172">Current</tspan></text>
</g>
    </g>
    <g id="g120">
      <g clip-path="url(#clipPath124)" id="g122"><text id="text128" style="font-variant:normal;font-weight:bold;font-size:9.96000004px;font-family:'Roboto Condensed';-inkscape-font-specification:RobotoCondensed-Bold;writing-mode:lr-tb;fill:#ffffff;fill-opacity:1;fill-rule:nonzero;stroke:none" transform="matrix(1,0,0,-1,89.04,570.36)"><tspan id="tspan130" y="0" x="0 5.6373601 11.01576">USA</tspan></text>
<text id="text132" style="font-variant:normal;font-weight:bold;font-size:9.96000004px;font-family:'Roboto Condensed';-inkscape-font-specification:RobotoCondensed-Bold;writing-mode:lr-tb;fill:#ffffff;fill-opacity:1;fill-rule:nonzero;stroke:none" transform="matrix(1,0,0,-1,138.98,570.36)"><tspan id="tspan134" y="0" x="0 5.6399598">UK</tspan></text>
<text id="text136" style="font-variant:normal;font-weight:bold;font-size:9.96000004px;font-family:'Roboto Condensed';-inkscape-font-specification:RobotoCondensed-Bold;writing-mode:lr-tb;fill:#ffffff;fill-opacity:1;fill-rule:nonzero;stroke:none" transform="matrix(1,0,0,-1,178.1,570.36)"><tspan id="tspan138" y="0" x="0 4.6812 8.0277596 12.71892 17.61924 22.20084">France</tspan></text>
<text id="text140" style="font-variant:normal;font-weight:bold;font-size:9.96000004px;font-family:'Roboto Condensed';-inkscape-font-specification:RobotoCondensed-Bold;writing-mode:lr-tb;fill:#ffffff;fill-opacity:1;fill-rule:nonzero;stroke:none" transform="matrix(1,0,0,-1,220.94,570.36)"><tspan id="tspan142" y="0" x="0 5.8664398 10.63728 14.01372 21.44388 26.13504 31.03536">Germany</tspan></text>
<text id="text144" style="font-variant:normal;font-weight:bold;font-size:9.96000004px;font-family:'Roboto Condensed';-inkscape-font-specification:RobotoCondensed-Bold;writing-mode:lr-tb;fill:#ffffff;fill-opacity:1;fill-rule:nonzero;stroke:none" transform="matrix(1,0,0,-1,277.1,570.36)"><tspan id="tspan146" y="0" x="0 2.6394 5.6373601 10.32852 12.83844">Italy</tspan></text>
<text id="text148" style="font-variant:normal;font-weight:bold;font-size:9.96000004px;font-family:'Roboto Condensed';-inkscape-font-specification:RobotoCondensed-Bold;writing-mode:lr-tb;fill:#ffffff;fill-opacity:1;fill-rule:nonzero;stroke:none" transform="matrix(1,0,0,-1,317.21,570.36)"><tspan id="tspan150" y="0" x="0 5.3783998 11.7528 16.52364 21.4638 26.264521">Sweden</tspan></text>
<text id="text152" style="font-variant:normal;font-weight:bold;font-size:9.96000004px;font-family:'Roboto Condensed';-inkscape-font-specification:RobotoCondensed-Bold;writing-mode:lr-tb;fill:#ffffff;fill-opacity:1;fill-rule:nonzero;stroke:none" transform="matrix(1,0,0,-1,366.05,570.36)"><tspan id="tspan154" y="0" x="0 5.6672401 10.5576 13.06752 17.75868 22.659">Poland</tspan></text>
<text id="text156" style="font-variant:normal;font-weight:bold;font-size:9.96000004px;font-family:'Roboto Condensed';-inkscape-font-specification:RobotoCondensed-Bold;writing-mode:lr-tb;fill:#000000;fill-opacity:1;fill-rule:nonzero;stroke:none" transform="matrix(1,0,0,-1,3.24,539.86)"><tspan id="tspan158" y="0" x="0 4.7708402 9.4619999 14.3922 19.332359">Land </tspan></text>
<text id="text160" style="font-variant:normal;font-weight:normal;font-size:9.96000004px;font-family:'Roboto Condensed';-inkscape-font-specification:RobotoCondensed-Regular;writing-mode:lr-tb;fill:#000000;fill-opacity:1;fill-rule:nonzero;stroke:none" transform="matrix(1,0,0,-1,97.44,539.86)"><tspan id="tspan162" y="0" x="0 2.5099199 7.43016 10.04964 14.96988">-0.9%</tspan></text>
<text id="text164" style="font-variant:normal;font-weight:normal;font-size:9.96000004px;font-family:'Roboto Condensed';-inkscape-font-specification:RobotoCondensed-Regular;writing-mode:lr-tb;fill:#000000;fill-opacity:1;fill-rule:nonzero;stroke:none" transform="matrix(1,0,0,-1,144.5,539.86)"><tspan id="tspan166" y="0" x="0 2.5099199 7.43016 10.04964 14.96988">-0.3%</tspan></text>
<text id="text168" style="font-variant:normal;font-weight:normal;font-size:9.96000004px;font-family:'Roboto Condensed';-inkscape-font-specification:RobotoCondensed-Regular;writing-mode:lr-tb;fill:#000000;fill-opacity:1;fill-rule:nonzero;stroke:none" transform="matrix(1,0,0,-1,191.54,539.86)"><tspan id="tspan170" y="0" x="0 2.5099199 7.43016 10.04964 14.96988">-0.1%</tspan></text>
<text id="text172" style="font-variant:normal;font-weight:normal;font-size:9.96000004px;font-family:'Roboto Condensed';-inkscape-font-specification:RobotoCondensed-Regular;writing-mode:lr-tb;fill:#000000;fill-opacity:1;fill-rule:nonzero;stroke:none" transform="matrix(1,0,0,-1,241.1,539.86)"><tspan id="tspan174" y="0" x="0 4.9202399 7.5397201 12.45996">1.4%</tspan></text>
<text id="text176" style="font-variant:normal;font-weight:normal;font-size:9.96000004px;font-family:'Roboto Condensed';-inkscape-font-specification:RobotoCondensed-Regular;writing-mode:lr-tb;fill:#000000;fill-opacity:1;fill-rule:nonzero;stroke:none" transform="matrix(1,0,0,-1,285.62,539.86)"><tspan id="tspan178" y="0" x="0 2.5099199 7.43016 10.04964 14.96988">-4.6%</tspan></text>
<text id="text180" style="font-variant:normal;font-weight:normal;font-size:9.96000004px;font-family:'Roboto Condensed';-inkscape-font-specification:RobotoCondensed-Regular;writing-mode:lr-tb;fill:#000000;fill-opacity:1;fill-rule:nonzero;stroke:none" transform="matrix(1,0,0,-1,335.21,539.86)"><tspan id="tspan182" y="0" x="0 4.9202399 7.5397201 12.45996">3.0%</tspan></text>
<text id="text184" style="font-variant:normal;font-weight:normal;font-size:9.96000004px;font-family:'Roboto Condensed';-inkscape-font-specification:RobotoCondensed-Regular;writing-mode:lr-tb;fill:#000000;fill-opacity:1;fill-rule:nonzero;stroke:none" transform="matrix(1,0,0,-1,382.25,539.86)"><tspan id="tspan186" y="0" x="0 4.9202399 7.5397201 12.45996">2.7%</tspan></text>
<text id="text188" style="font-variant:normal;font-weight:bold;font-size:9.96000004px;font-family:'Roboto Condensed';-inkscape-font-specification:RobotoCondensed-Bold;writing-mode:lr-tb;fill:#000000;fill-opacity:1;fill-rule:nonzero;stroke:none" transform="matrix(1,0,0,-1,3.24,524.62)"><tspan id="tspan190" y="0" x="0 7.5496802 12.24084 15.5874 18.097321 21.10524 23.61516 31.055281">Maritime</tspan></text>
<text id="text192" style="font-variant:normal;font-weight:normal;font-size:9.96000004px;font-family:'Roboto Condensed';-inkscape-font-specification:RobotoCondensed-Regular;writing-mode:lr-tb;fill:#000000;fill-opacity:1;fill-rule:nonzero;stroke:none" transform="matrix(1,0,0,-1,99.96,524.62)"><tspan id="tspan194" y="0" x="0 4.9202399 7.5397201 12.45996">2.1%</tspan></text>
<text id="text196" style="font-variant:normal;font-weight:normal;font-size:9.96000004px;font-family:'Roboto Condensed';-inkscape-font-specification:RobotoCondensed-Regular;writing-mode:lr-tb;fill:#000000;fill-opacity:1;fill-rule:nonzero;stroke:none" transform="matrix(1,0,0,-1,147.02,524.62)"><tspan id="tspan198" y="0" x="0 4.9202399 7.5397201 12.45996">1.3%</tspan></text>
<text id="text200" style="font-variant:normal;font-weight:normal;font-size:9.96000004px;font-family:'Roboto Condensed';-inkscape-font-specification:RobotoCondensed-Regular;writing-mode:lr-tb;fill:#000000;fill-opacity:1;fill-rule:nonzero;stroke:none" transform="matrix(1,0,0,-1,194.06,524.62)"><tspan id="tspan202" y="0" x="0 4.9202399 7.5397201 12.45996">0.4%</tspan></text>
<text id="text204" style="font-variant:normal;font-weight:normal;font-size:9.96000004px;font-family:'Roboto Condensed';-inkscape-font-specification:RobotoCondensed-Regular;writing-mode:lr-tb;fill:#000000;fill-opacity:1;fill-rule:nonzero;stroke:none" transform="matrix(1,0,0,-1,241.1,524.62)"><tspan id="tspan206" y="0" x="0 4.9202399 7.5397201 12.45996">0.8%</tspan></text>
<text id="text208" style="font-variant:normal;font-weight:normal;font-size:9.96000004px;font-family:'Roboto Condensed';-inkscape-font-specification:RobotoCondensed-Regular;writing-mode:lr-tb;fill:#000000;fill-opacity:1;fill-rule:nonzero;stroke:none" transform="matrix(1,0,0,-1,288.14,524.62)"><tspan id="tspan210" y="0" x="0 4.9202399 7.5397201 12.45996">3.5%</tspan></text>
<text id="text212" style="font-variant:normal;font-weight:normal;font-size:9.96000004px;font-family:'Roboto Condensed';-inkscape-font-specification:RobotoCondensed-Regular;writing-mode:lr-tb;fill:#000000;fill-opacity:1;fill-rule:nonzero;stroke:none" transform="matrix(1,0,0,-1,335.21,524.62)"><tspan id="tspan214" y="0" x="0 4.9202399 7.5397201 12.45996">0.3%</tspan></text>
<text id="text216" style="font-variant:normal;font-weight:normal;font-size:9.96000004px;font-family:'Roboto Condensed';-inkscape-font-specification:RobotoCondensed-Regular;writing-mode:lr-tb;fill:#000000;fill-opacity:1;fill-rule:nonzero;stroke:none" transform="matrix(1,0,0,-1,382.25,524.62)"><tspan id="tspan218" y="0" x="0 4.9202399 7.5397201 12.45996">3.3%</tspan></text>
<text id="text220" style="font-variant:normal;font-weight:bold;font-size:9.96000004px;font-family:'Roboto Condensed';-inkscape-font-specification:RobotoCondensed-Bold;writing-mode:lr-tb;fill:#000000;fill-opacity:1;fill-rule:nonzero;stroke:none" transform="matrix(1,0,0,-1,3.24,509.38)"><tspan id="tspan222" y="0" x="0 5.98596 8.4958801">Air</tspan></text>
<text id="text224" style="font-variant:normal;font-weight:normal;font-size:9.96000004px;font-family:'Roboto Condensed';-inkscape-font-specification:RobotoCondensed-Regular;writing-mode:lr-tb;fill:#000000;fill-opacity:1;fill-rule:nonzero;stroke:none" transform="matrix(1,0,0,-1,99.96,509.38)"><tspan id="tspan226" y="0" x="0 4.9202399 7.5397201 12.45996">3.2%</tspan></text>
<text id="text228" style="font-variant:normal;font-weight:normal;font-size:9.96000004px;font-family:'Roboto Condensed';-inkscape-font-specification:RobotoCondensed-Regular;writing-mode:lr-tb;fill:#000000;fill-opacity:1;fill-rule:nonzero;stroke:none" transform="matrix(1,0,0,-1,147.02,509.38)"><tspan id="tspan230" y="0" x="0 4.9202399 7.5397201 12.45996">2.3%</tspan></text>
<text id="text232" style="font-variant:normal;font-weight:normal;font-size:9.96000004px;font-family:'Roboto Condensed';-inkscape-font-specification:RobotoCondensed-Regular;writing-mode:lr-tb;fill:#000000;fill-opacity:1;fill-rule:nonzero;stroke:none" transform="matrix(1,0,0,-1,194.06,509.38)"><tspan id="tspan234" y="0" x="0 4.9202399 7.5397201 12.45996">1.0%</tspan></text>
<text id="text236" style="font-variant:normal;font-weight:normal;font-size:9.96000004px;font-family:'Roboto Condensed';-inkscape-font-specification:RobotoCondensed-Regular;writing-mode:lr-tb;fill:#000000;fill-opacity:1;fill-rule:nonzero;stroke:none" transform="matrix(1,0,0,-1,241.1,509.38)"><tspan id="tspan238" y="0" x="0 4.9202399 7.5397201 12.45996">1.2%</tspan></text>
<text id="text240" style="font-variant:normal;font-weight:normal;font-size:9.96000004px;font-family:'Roboto Condensed';-inkscape-font-specification:RobotoCondensed-Regular;writing-mode:lr-tb;fill:#000000;fill-opacity:1;fill-rule:nonzero;stroke:none" transform="matrix(1,0,0,-1,288.14,509.38)"><tspan id="tspan242" y="0" x="0 4.9202399 7.5397201 12.45996">2.9%</tspan></text>
<text id="text244" style="font-variant:normal;font-weight:normal;font-size:9.96000004px;font-family:'Roboto Condensed';-inkscape-font-specification:RobotoCondensed-Regular;writing-mode:lr-tb;fill:#000000;fill-opacity:1;fill-rule:nonzero;stroke:none" transform="matrix(1,0,0,-1,335.21,509.38)"><tspan id="tspan246" y="0" x="0 4.9202399 7.5397201 12.45996">0.3%</tspan></text>
<text id="text248" style="font-variant:normal;font-weight:normal;font-size:9.96000004px;font-family:'Roboto Condensed';-inkscape-font-specification:RobotoCondensed-Regular;writing-mode:lr-tb;fill:#000000;fill-opacity:1;fill-rule:nonzero;stroke:none" transform="matrix(1,0,0,-1,382.25,509.38)"><tspan id="tspan250" y="0" x="0 4.9202399 7.5397201 12.45996">0.2%</tspan></text>
<text id="text252" style="font-variant:normal;font-weight:bold;font-size:9.96000004px;font-family:'Roboto Condensed';-inkscape-font-specification:RobotoCondensed-Bold;writing-mode:lr-tb;fill:#000000;fill-opacity:1;fill-rule:nonzero;stroke:none" transform="matrix(1,0,0,-1,3.24,494.14)"><tspan id="tspan254" y="0" x="0 5.6373601 10.07952 15.00972 19.78056">Cyber</tspan></text>
<text id="text256" style="font-variant:normal;font-weight:normal;font-size:9.96000004px;font-family:'Roboto Condensed';-inkscape-font-specification:RobotoCondensed-Regular;writing-mode:lr-tb;fill:#000000;fill-opacity:1;fill-rule:nonzero;stroke:none" transform="matrix(1,0,0,-1,99.96,494.14)"><tspan id="tspan258" y="0" x="0 4.9202399 7.5397201 12.45996">3.0%</tspan></text>
<text id="text260" style="font-variant:normal;font-weight:normal;font-size:9.96000004px;font-family:'Roboto Condensed';-inkscape-font-specification:RobotoCondensed-Regular;writing-mode:lr-tb;fill:#000000;fill-opacity:1;fill-rule:nonzero;stroke:none" transform="matrix(1,0,0,-1,147.02,494.14)"><tspan id="tspan262" y="0" x="0 4.9202399 7.5397201 12.45996">2.1%</tspan></text>
<text id="text264" style="font-variant:normal;font-weight:normal;font-size:9.96000004px;font-family:'Roboto Condensed';-inkscape-font-specification:RobotoCondensed-Regular;writing-mode:lr-tb;fill:#000000;fill-opacity:1;fill-rule:nonzero;stroke:none" transform="matrix(1,0,0,-1,194.06,494.14)"><tspan id="tspan266" y="0" x="0 4.9202399 7.5397201 12.45996">1.8%</tspan></text>
<text id="text268" style="font-variant:normal;font-weight:normal;font-size:9.96000004px;font-family:'Roboto Condensed';-inkscape-font-specification:RobotoCondensed-Regular;writing-mode:lr-tb;fill:#000000;fill-opacity:1;fill-rule:nonzero;stroke:none" transform="matrix(1,0,0,-1,241.1,494.14)"><tspan id="tspan270" y="0" x="0 4.9202399 7.5397201 12.45996">1.1%</tspan></text>
<text id="text272" style="font-variant:normal;font-weight:normal;font-size:9.96000004px;font-family:'Roboto Condensed';-inkscape-font-specification:RobotoCondensed-Regular;writing-mode:lr-tb;fill:#000000;fill-opacity:1;fill-rule:nonzero;stroke:none" transform="matrix(1,0,0,-1,288.14,494.14)"><tspan id="tspan274" y="0" x="0 4.9202399 7.5397201 12.45996">1.6%</tspan></text>
<text id="text276" style="font-variant:normal;font-weight:normal;font-size:9.96000004px;font-family:'Roboto Condensed';-inkscape-font-specification:RobotoCondensed-Regular;writing-mode:lr-tb;fill:#000000;fill-opacity:1;fill-rule:nonzero;stroke:none" transform="matrix(1,0,0,-1,335.21,494.14)"><tspan id="tspan278" y="0" x="0 4.9202399 7.5397201 12.45996">0.9%</tspan></text>
<text id="text280" style="font-variant:normal;font-weight:normal;font-size:9.96000004px;font-family:'Roboto Condensed';-inkscape-font-specification:RobotoCondensed-Regular;writing-mode:lr-tb;fill:#000000;fill-opacity:1;fill-rule:nonzero;stroke:none" transform="matrix(1,0,0,-1,379.73,494.14)"><tspan id="tspan282" y="0" x="0 2.5099199 7.43016 10.04964 14.96988">-0.8%</tspan></text>
<text id="text284" style="font-variant:normal;font-weight:bold;font-size:9.96000004px;font-family:'Roboto Condensed';-inkscape-font-specification:RobotoCondensed-Bold;writing-mode:lr-tb;fill:#000000;fill-opacity:1;fill-rule:nonzero;stroke:none" transform="matrix(1,0,0,-1,3.24,478.9)"><tspan id="tspan286" y="0" x="0 5.3783998 10.3086 14.99976 19.58136 24.3522">Space </tspan></text>
<text id="text288" style="font-variant:normal;font-weight:normal;font-size:9.96000004px;font-family:'Roboto Condensed';-inkscape-font-specification:RobotoCondensed-Regular;writing-mode:lr-tb;fill:#000000;fill-opacity:1;fill-rule:nonzero;stroke:none" transform="matrix(1,0,0,-1,97.44,478.9)"><tspan id="tspan290" y="0" x="0 2.5099199 7.43016 10.04964 14.96988">-2.3%</tspan></text>
<text id="text292" style="font-variant:normal;font-weight:normal;font-size:9.96000004px;font-family:'Roboto Condensed';-inkscape-font-specification:RobotoCondensed-Regular;writing-mode:lr-tb;fill:#000000;fill-opacity:1;fill-rule:nonzero;stroke:none" transform="matrix(1,0,0,-1,144.5,478.9)"><tspan id="tspan294" y="0" x="0 2.5099199 7.43016 10.04964 14.96988">-0.3%</tspan></text>
<text id="text296" style="font-variant:normal;font-weight:normal;font-size:9.96000004px;font-family:'Roboto Condensed';-inkscape-font-specification:RobotoCondensed-Regular;writing-mode:lr-tb;fill:#000000;fill-opacity:1;fill-rule:nonzero;stroke:none" transform="matrix(1,0,0,-1,194.06,478.9)"><tspan id="tspan298" y="0" x="0 4.9202399 7.5397201 12.45996">1.9%</tspan></text>
<text id="text300" style="font-variant:normal;font-weight:normal;font-size:9.96000004px;font-family:'Roboto Condensed';-inkscape-font-specification:RobotoCondensed-Regular;writing-mode:lr-tb;fill:#000000;fill-opacity:1;fill-rule:nonzero;stroke:none" transform="matrix(1,0,0,-1,241.1,478.9)"><tspan id="tspan302" y="0" x="0 4.9202399 7.5397201 12.45996">0.5%</tspan></text>
<text id="text304" style="font-variant:normal;font-weight:normal;font-size:9.96000004px;font-family:'Roboto Condensed';-inkscape-font-specification:RobotoCondensed-Regular;writing-mode:lr-tb;fill:#000000;fill-opacity:1;fill-rule:nonzero;stroke:none" transform="matrix(1,0,0,-1,288.14,478.9)"><tspan id="tspan306" y="0" x="0 4.9202399 7.5397201 12.45996">1.6%</tspan></text>
<text id="text308" style="font-variant:normal;font-weight:normal;font-size:9.96000004px;font-family:'Roboto Condensed';-inkscape-font-specification:RobotoCondensed-Regular;writing-mode:lr-tb;fill:#000000;fill-opacity:1;fill-rule:nonzero;stroke:none" transform="matrix(1,0,0,-1,335.21,478.9)"><tspan id="tspan310" y="0" x="0 4.9202399 7.5397201 12.45996">0.5%</tspan></text>
<text id="text312" style="font-variant:normal;font-weight:normal;font-size:9.96000004px;font-family:'Roboto Condensed';-inkscape-font-specification:RobotoCondensed-Regular;writing-mode:lr-tb;fill:#000000;fill-opacity:1;fill-rule:nonzero;stroke:none" transform="matrix(1,0,0,-1,379.73,478.9)"><tspan id="tspan314" y="0" x="0 2.5099199 7.43016 10.04964 14.96988">-0.4%</tspan></text>
</g>
    </g>
    <g id="g316">
      <g clip-path="url(#clipPath320)" id="g318"><text id="text324" style="font-variant:normal;font-weight:bold;font-size:9.96000004px;font-family:'Roboto Condensed';-inkscape-font-specification:RobotoCondensed-Bold;writing-mode:lr-tb;fill:#000000;fill-opacity:1;fill-rule:nonzero;stroke:none" transform="matrix(1,0,0,-1,73.44,600.12)"><tspan id="tspan326" y="0" x="0 4.8903599 9.4719601 14.40216 19.173 23.754601 26.75256 31.523399 36.463558 38.75436 41.264278 46.1646 50.746201 54.102718 58.873562 63.56472 68.13636 72.907204 75.197998 77.707916 82.648079 84.938881 92.359077 97.05024 101.95056 106.85088 110.11776 114.80892 119.36064 122.3586 127.25892 130.6254 133.13531 138.03564 143.09532 146.33232 150.88403 155.78436 160.71455 165.64476 168.15468 172.59685 174.88763 179.81784 184.25999 186.5508 194.10048 196.6104 199.12032 201.63023 204.64812 209.33928 212.67587 217.11804 219.40884 225.03624 227.54616 232.0182 234.52812 239.04996 241.58977 246.50999 251.41032 255.98196">Expected increase in manufacturing/supply by Military Divisions </tspan></text>
</g>
    </g>
  </g>
</svg>
