<svg version="1.1" width="100%" height="100%" viewBox="0 0 500 301" xmlns="http://www.w3.org/2000/svg" xmlns:xlink="http://www.w3.org/1999/xlink"><style type="text/css" /><defs><clipPath id="clip001"><path d="M0,0 L3958.667,0 L3958.667,2512 L0,2512 Z" clip-rule="evenodd" /></clipPath><clipPath id="clip002"><path d="M0,0 L3958.667,0 L3958.667,2512 L0,2512 Z" clip-rule="evenodd" /></clipPath><clipPath id="clip003"><path d="M0,0 L3958.667,0 L3958.667,2512 L0,2512 Z" clip-rule="evenodd" /></clipPath><clipPath id="clip004"><path d="M0,0 L5200,0 L5200,2617.333 L0,2617.333 Z" clip-rule="evenodd" /></clipPath><clipPath id="clip005"><path d="M-800,0 L6000,0 L6000,2617.333 L-800,2617.333 Z" clip-rule="evenodd" /></clipPath><clipPath id="clip006"><path d="M0,0 L3960,0 L3960,2508 L0,2508 Z" clip-rule="evenodd" /></clipPath><clipPath id="clip007"><path d="M0,0 L3960,0 L3960,2508 L0,2508 Z" clip-rule="evenodd" /></clipPath><clipPath id="clip008"><path d="M389.3333,104 L3960,104 L3960,1890.667 L389.3333,1890.667 Z" clip-rule="evenodd" /></clipPath><clipPath id="clip009"><path d="M389.3333,104 L3960,104 L3960,1890.667 L389.3333,1890.667 Z" clip-rule="evenodd" /></clipPath><clipPath id="clip010"><path d="M389.3333,104 L3960,104 L3960,1890.667 L389.3333,1890.667 Z" clip-rule="evenodd" /></clipPath><clipPath id="clip011"><path d="M389.3333,104 L3960,104 L3960,1890.667 L389.3333,1890.667 Z" clip-rule="evenodd" /></clipPath><clipPath id="clip012"><path d="M0,0 L3960,0 L3960,2508 L0,2508 Z" clip-rule="evenodd" /></clipPath><clipPath id="clip013"><path d="M0,0 L3960,0 L3960,2508 L0,2508 Z" clip-rule="evenodd" /></clipPath><clipPath id="clip014"><path d="M0,0 L3960,0 L3960,2508 L0,2508 Z" clip-rule="evenodd" /></clipPath><clipPath id="clip015"><path d="M0,0 L3960,0 L3960,2508 L0,2508 Z" clip-rule="evenodd" /></clipPath><clipPath id="clip016"><path d="M0,0 L3960,0 L3960,2508 L0,2508 Z" clip-rule="evenodd" /></clipPath><clipPath id="clip017"><path d="M0,0 L3960,0 L3960,2508 L0,2508 Z" clip-rule="evenodd" /></clipPath><clipPath id="clip018"><path d="M0,0 L3960,0 L3960,2508 L0,2508 Z" clip-rule="evenodd" /></clipPath><clipPath id="clip019"><path d="M0,0 L3960,0 L3960,2508 L0,2508 Z" clip-rule="evenodd" /></clipPath><clipPath id="clip020"><path d="M0,0 L3960,0 L3960,2508 L0,2508 Z" clip-rule="evenodd" /></clipPath><clipPath id="clip021"><path d="M0,0 L3960,0 L3960,2508 L0,2508 Z" clip-rule="evenodd" /></clipPath><clipPath id="clip022"><path d="M0,0 L3960,0 L3960,2508 L0,2508 Z" clip-rule="evenodd" /></clipPath><clipPath id="clip023"><path d="M0,0 L3960,0 L3960,2508 L0,2508 Z" clip-rule="evenodd" /></clipPath><clipPath id="clip024"><path d="M0,0 L3960,0 L3960,2508 L0,2508 Z" clip-rule="evenodd" /></clipPath><clipPath id="clip025"><path d="M0,0 L3960,0 L3960,2508 L0,2508 Z" clip-rule="evenodd" /></clipPath><clipPath id="clip026"><path d="M0,0 L3960,0 L3960,2508 L0,2508 Z" clip-rule="evenodd" /></clipPath><clipPath id="clip027"><path d="M0,0 L3960,0 L3960,2508 L0,2508 Z" clip-rule="evenodd" /></clipPath><clipPath id="clip028"><path d="M0,0 L3960,0 L3960,2508 L0,2508 Z" clip-rule="evenodd" /></clipPath><clipPath id="clip029"><path d="M0,0 L3960,0 L3960,2508 L0,2508 Z" clip-rule="evenodd" /></clipPath><clipPath id="clip030"><path d="M0,0 L3960,0 L3960,2508 L0,2508 Z" clip-rule="evenodd" /></clipPath><clipPath id="clip031"><path d="M0,0 L3960,0 L3960,2508 L0,2508 Z" clip-rule="evenodd" /></clipPath><clipPath id="clip032"><path d="M0,0 L3960,0 L3960,2508 L0,2508 Z" clip-rule="evenodd" /></clipPath><clipPath id="clip033"><path d="M0,0 L3960,0 L3960,2508 L0,2508 Z" clip-rule="evenodd" /></clipPath><clipPath id="clip034"><path d="M0,0 L3960,0 L3960,2508 L0,2508 Z" clip-rule="evenodd" /></clipPath><clipPath id="clip035"><path d="M0,0 L3960,0 L3960,2508 L0,2508 Z" clip-rule="evenodd" /></clipPath></defs><clipPath id="page-clip-path-1"><rect x="0" y="0" width="500" height="301.33" /></clipPath><g clip-path="url(#page-clip-path-1)"><g transform="translate(1,1)"><g><g transform="matrix(0.1200404,0,0,0.1198248,0,0)" clip-path="url(#clip001)"><g><g clip-path="url(#clip002)"><g><g clip-path="url(#clip003)"><g transform="matrix(1.000207,0,0,1.000728,-0.00016276,-0.00008138)"><g><g><g clip-path="url(#clip004)"><g transform="translate(3966.667,2509.333)" /></g></g></g><g clip-path="url(#clip005)"><g transform="matrix(0.000656168,0,0,0.000656168,0,0)"><path d="M0,0 L6035040,0 L6035040,3822192 L0,3822192 Z" fill="#ffffff" fill-opacity="0" fill-rule="evenodd" /></g></g><g clip-path="url(#clip006)"><g transform="matrix(0.000656168,0,0,0.000656168,389.3333,105.3333)"><path d="M0,1806448 L5441696,1806448 M0,902208 L5441696,902208 M0,0 L5441696,0 " stroke-width="16933.33" stroke-linejoin="round" stroke-miterlimit="13.33333" stroke="#bababa" fill="none" fill-rule="nonzero" /></g></g><g clip-path="url(#clip007)"><g transform="matrix(0.000656168,0,0,0.000656168,389.3333,1882.667)"><g><path d="M0.001659613,-6773.333 L5441696,-6772 " stroke-width="3386.667" stroke-linejoin="round" stroke-miterlimit="13.33333" stroke="#000000" fill="none" fill-rule="evenodd" /><path d="M-0.000829807,3386.667 L5441696,3388 " stroke-width="10160" stroke-linejoin="round" stroke-miterlimit="13.33333" stroke="#000000" fill="none" fill-rule="evenodd" /></g></g></g><g clip-path="url(#clip008)"><g transform="matrix(0.000656168,0,0,0.000656168,551.3333,1783.333)"><path d="M0,32512 L495808,22352 L495808,22352 L989584,12192 L989584,12192 L1485392,0 L1485392,0 L1979168,152400 L1979168,152400 L2474976,152400 L2474976,152400 L2968752,152400 L2968752,152400 L3462528,152400 L3462528,152400 L3958336,152400 L3958336,152400 L4452112,152400 L4452112,152400 L4947920,152400 " stroke-width="33866.67" stroke-linecap="round" stroke-linejoin="round" stroke-miterlimit="13.33333" stroke="#012169" fill="none" fill-rule="nonzero" /></g></g><g clip-path="url(#clip009)"><g transform="matrix(0.000656168,0,0,0.000656168,551.3333,1168.667)"><path d="M0,707136 L495808,672592 L495808,672592 L989584,638048 L989584,638048 L1485392,601472 L1485392,601472 L1979168,560832 L1979168,560832 L2474976,516128 L2474976,516128 L2968752,469392 L2968752,469392 L3462528,398272 L3462528,398272 L3958336,300736 L3958336,300736 L4452112,170688 L4452112,170688 L4947920,0 " stroke-width="33866.67" stroke-linecap="round" stroke-linejoin="round" stroke-miterlimit="13.33333" stroke="#009cde" fill="none" fill-rule="nonzero" /></g></g><g clip-path="url(#clip010)"><g transform="matrix(0.000656168,0,0,0.000656168,551.3333,1214)"><path d="M0,662432 L495808,629920 L495808,629920 L989584,597408 L989584,597408 L1485392,562864 L1485392,562864 L1979168,524256 L1979168,524256 L2474976,483616 L2474976,483616 L2968752,438912 L2968752,438912 L3462528,373888 L3462528,373888 L3958336,280416 L3958336,280416 L4452112,160528 L4452112,160528 L4947920,0 " stroke-width="33866.67" stroke-linecap="round" stroke-linejoin="round" stroke-miterlimit="13.33333" stroke="#e56200" fill="none" fill-rule="nonzero" /></g></g><g clip-path="url(#clip011)"><g transform="matrix(0.000656168,0,0,0.000656168,551.3333,291.3333)"><path d="M0,1694688 L495808,1627632 L495808,1627632 L989584,1562608 L989584,1562608 L1485392,1491488 L1485392,1491488 L1979168,1247648 L1979168,1247648 L2474976,1152144 L2474976,1152144 L2968752,1046480 L2968752,1046480 L3462528,887984 L3462528,887984 L3958336,670560 L3958336,670560 L4452112,382016 L4452112,382016 L4947920,0 " stroke-width="33866.67" stroke-linecap="round" stroke-linejoin="round" stroke-miterlimit="13.33333" stroke="#006980" fill="none" fill-rule="nonzero" /></g></g><g><g clip-path="url(#clip012)"><g><g transform="translate(118,1912.9)"><text><tspan x="0" y="0" font-family="Connections Cond Light,Arial Narrow" font-weight="normal" font-style="normal" font-size="105.3333" fill="#000000">0mn</tspan></text></g></g></g></g><g><g clip-path="url(#clip013)"><g><g transform="translate(67.33334,1320.247)"><text><tspan x="0" y="0" font-family="Connections Cond Light,Arial Narrow" font-weight="normal" font-style="normal" font-size="105.3333" fill="#000000">40mn</tspan></text></g></g></g></g><g><g clip-path="url(#clip014)"><g><g transform="translate(67.33334,727.5923)"><text><tspan x="0" y="0" font-family="Connections Cond Light,Arial Narrow" font-weight="normal" font-style="normal" font-size="105.3333" fill="#000000">80mn</tspan></text></g></g></g></g><g><g clip-path="url(#clip015)"><g><g transform="translate(16.66667,134.9388)"><text><tspan x="0" y="0" font-family="Connections Cond Light,Arial Narrow" font-weight="normal" font-style="normal" font-size="105.3333" fill="#000000">120mn</tspan></text></g></g></g></g><g><g clip-path="url(#clip016)"><g><g transform="matrix(0,-1,1,0,585.1793,2197.261)"><text><tspan x="0" y="0" font-family="Connections Cond Light,Arial Narrow" font-weight="normal" font-style="normal" font-size="105.3333" fill="#000000">C2020</tspan></text></g></g></g></g><g><g clip-path="url(#clip017)"><g><g transform="matrix(0,-1,1,0,909.7603,2197.261)"><text><tspan x="0" y="0" font-family="Connections Cond Light,Arial Narrow" font-weight="normal" font-style="normal" font-size="105.3333" fill="#000000">C2021</tspan></text></g></g></g></g><g><g clip-path="url(#clip018)"><g><g transform="matrix(0,-1,1,0,1234.341,2197.261)"><text><tspan x="0" y="0" font-family="Connections Cond Light,Arial Narrow" font-weight="normal" font-style="normal" font-size="105.3333" fill="#000000">C2022</tspan></text></g></g></g></g><g><g clip-path="url(#clip019)"><g><g transform="matrix(0,-1,1,0,1558.921,2197.261)"><text><tspan x="0" y="0" font-family="Connections Cond Light,Arial Narrow" font-weight="normal" font-style="normal" font-size="105.3333" fill="#000000">C2023</tspan></text></g></g></g></g><g><g clip-path="url(#clip020)"><g><g transform="matrix(0,-1,1,0,1883.502,2197.261)"><text><tspan x="0" y="0" font-family="Connections Cond Light,Arial Narrow" font-weight="normal" font-style="normal" font-size="105.3333" fill="#000000">C2024</tspan></text></g></g></g></g><g><g clip-path="url(#clip021)"><g><g transform="matrix(0,-1,1,0,2208.083,2245.594)"><text><tspan x="0" y="0" font-family="Connections Cond Light,Arial Narrow" font-weight="normal" font-style="normal" font-size="105.3333" fill="#000000">C2025E</tspan></text></g></g></g></g><g><g clip-path="url(#clip022)"><g><g transform="matrix(0,-1,1,0,2532.664,2245.594)"><text><tspan x="0" y="0" font-family="Connections Cond Light,Arial Narrow" font-weight="normal" font-style="normal" font-size="105.3333" fill="#000000">C2026E</tspan></text></g></g></g></g><g><g clip-path="url(#clip023)"><g><g transform="matrix(0,-1,1,0,2857.245,2245.594)"><text><tspan x="0" y="0" font-family="Connections Cond Light,Arial Narrow" font-weight="normal" font-style="normal" font-size="105.3333" fill="#000000">C2027E</tspan></text></g></g></g></g><g><g clip-path="url(#clip024)"><g><g transform="matrix(0,-1,1,0,3181.825,2245.594)"><text><tspan x="0" y="0" font-family="Connections Cond Light,Arial Narrow" font-weight="normal" font-style="normal" font-size="105.3333" fill="#000000">C2028E</tspan></text></g></g></g></g><g><g clip-path="url(#clip025)"><g><g transform="matrix(0,-1,1,0,3506.406,2245.594)"><text><tspan x="0" y="0" font-family="Connections Cond Light,Arial Narrow" font-weight="normal" font-style="normal" font-size="105.3333" fill="#000000">C2029E</tspan></text></g></g></g></g><g><g clip-path="url(#clip026)"><g><g transform="matrix(0,-1,1,0,3830.987,2245.594)"><text><tspan x="0" y="0" font-family="Connections Cond Light,Arial Narrow" font-weight="normal" font-style="normal" font-size="105.3333" fill="#000000">C2030E</tspan></text></g></g></g></g><g clip-path="url(#clip027)"><g transform="matrix(0.000656168,0,0,0.000656168,254.6667,2262.667)"><path d="M0,0 L5431536,0 L5431536,373888 L0,373888 Z" fill="#5b9bd5" fill-opacity="0" fill-rule="evenodd" /></g></g><g clip-path="url(#clip028)"><g transform="matrix(0.000656168,0,0,0.000656168,414,2384.667)"><path d="M0,0 L325120,1.333333 " stroke-width="33866.67" stroke-linecap="round" stroke-linejoin="round" stroke-miterlimit="13.33333" stroke="#012169" fill="none" fill-rule="evenodd" /></g></g><g><g clip-path="url(#clip029)"><g><g transform="translate(649.6728,2414.935)"><text><tspan x="0" y="0" font-family="Connections Cond Light,Arial Narrow" font-weight="normal" font-style="normal" font-size="105.3333" fill="#000000">Voice Plan</tspan></text></g></g></g></g><g clip-path="url(#clip030)"><g transform="matrix(0.000656168,0,0,0.000656168,1196.667,2384.667)"><path d="M0,0 L325120,1.333333 " stroke-width="33866.67" stroke-linecap="round" stroke-linejoin="round" stroke-miterlimit="13.33333" stroke="#009cde" fill="none" fill-rule="evenodd" /></g></g><g><g clip-path="url(#clip031)"><g><g transform="translate(1432.571,2414.935)"><text><tspan x="0" y="0" font-family="Connections Cond Light,Arial Narrow" font-weight="normal" font-style="normal" font-size="105.3333" fill="#000000">Student Plan</tspan></text></g></g></g></g><g clip-path="url(#clip032)"><g transform="matrix(0.000656168,0,0,0.000656168,2082,2384.667)"><path d="M0,0 L325120,1.333333 " stroke-width="33866.67" stroke-linecap="round" stroke-linejoin="round" stroke-miterlimit="13.33333" stroke="#e56200" fill="none" fill-rule="evenodd" /></g></g><g><g clip-path="url(#clip033)"><g><g transform="translate(2317.527,2414.935)"><text><tspan x="0" y="0" font-family="Connections Cond Light,Arial Narrow" font-weight="normal" font-style="normal" font-size="105.3333" fill="#000000">Individual Plan</tspan></text></g></g></g></g><g clip-path="url(#clip034)"><g transform="matrix(0.000656168,0,0,0.000656168,3026,2384.667)"><path d="M0,0 L325120,1.333333 " stroke-width="33866.67" stroke-linecap="round" stroke-linejoin="round" stroke-miterlimit="13.33333" stroke="#006980" fill="none" fill-rule="evenodd" /></g></g><g><g clip-path="url(#clip035)"><g><g transform="translate(3261.927,2414.935)"><text><tspan x="0" y="0" font-family="Connections Cond Light,Arial Narrow" font-weight="normal" font-style="normal" font-size="105.3333" fill="#000000">Family Plan</tspan></text></g></g></g></g><g /></g></g></g></g></g></g></g></g></g></svg>