<?xml version="1.0" encoding="UTF-8" standalone="no"?>
<svg xmlns:dc="http://purl.org/dc/elements/1.1/" xmlns:cc="http://creativecommons.org/ns#" xmlns:rdf="http://www.w3.org/1999/02/22-rdf-syntax-ns#" xmlns:svg="http://www.w3.org/2000/svg" xmlns="http://www.w3.org/2000/svg" viewBox="63.0425 126.5 864 512.05" height="512.05" width="864" xml:space="preserve" version="1.1" id="svg2">
  <metadata id="metadata8">
    <rdf:RDF>
      <cc:Work rdf:about="">
        <dc:format>image/svg+xml</dc:format>
        <dc:type rdf:resource="http://purl.org/dc/dcmitype/StillImage"/>
      </cc:Work>
    </rdf:RDF>
  </metadata>
  <defs id="defs6">
    <clipPath id="clipPath16" clipPathUnits="userSpaceOnUse">
      <path style="clip-rule:evenodd" id="path18" d="m 50.4,101.16 691.2,0 0,409.68 -691.2,0 0,-409.68 z"/>
    </clipPath>
    <clipPath id="clipPath42" clipPathUnits="userSpaceOnUse">
      <path style="clip-rule:evenodd" id="path44" d="m 50.52,101.28 690.96,0 0,409.44 -690.96,0 0,-409.44 z"/>
    </clipPath>
    <clipPath id="clipPath54" clipPathUnits="userSpaceOnUse">
      <path style="clip-rule:evenodd" id="path56" d="m 50.52,101.28 690.96,0 0,409.44 -690.96,0 0,-409.44 z"/>
    </clipPath>
    <clipPath id="clipPath66" clipPathUnits="userSpaceOnUse">
      <path style="clip-rule:evenodd" id="path68" d="m 50.52,101.28 690.96,0 0,409.44 -690.96,0 0,-409.44 z"/>
    </clipPath>
    <clipPath id="clipPath78" clipPathUnits="userSpaceOnUse">
      <path style="clip-rule:evenodd" id="path80" d="m 50.52,101.28 690.96,0 0,409.44 -690.96,0 0,-409.44 z"/>
    </clipPath>
    <clipPath id="clipPath90" clipPathUnits="userSpaceOnUse">
      <path style="clip-rule:evenodd" id="path92" d="m 50.52,101.28 690.96,0 0,409.44 -690.96,0 0,-409.44 z"/>
    </clipPath>
    <clipPath id="clipPath102" clipPathUnits="userSpaceOnUse">
      <path style="clip-rule:evenodd" id="path104" d="m 50.52,101.28 690.96,0 0,409.44 -690.96,0 0,-409.44 z"/>
    </clipPath>
    <clipPath id="clipPath114" clipPathUnits="userSpaceOnUse">
      <path style="clip-rule:evenodd" id="path116" d="m 50.52,101.28 690.96,0 0,409.44 -690.96,0 0,-409.44 z"/>
    </clipPath>
    <clipPath id="clipPath126" clipPathUnits="userSpaceOnUse">
      <path style="clip-rule:evenodd" id="path128" d="m 50.52,101.28 690.96,0 0,409.44 -690.96,0 0,-409.44 z"/>
    </clipPath>
    <clipPath id="clipPath138" clipPathUnits="userSpaceOnUse">
      <path style="clip-rule:evenodd" id="path140" d="m 50.52,101.28 690.96,0 0,409.44 -690.96,0 0,-409.44 z"/>
    </clipPath>
    <clipPath id="clipPath150" clipPathUnits="userSpaceOnUse">
      <path style="clip-rule:evenodd" id="path152" d="m 50.52,101.28 690.96,0 0,409.44 -690.96,0 0,-409.44 z"/>
    </clipPath>
    <clipPath id="clipPath162" clipPathUnits="userSpaceOnUse">
      <path style="clip-rule:evenodd" id="path164" d="m 50.52,101.28 690.96,0 0,409.44 -690.96,0 0,-409.44 z"/>
    </clipPath>
    <clipPath id="clipPath174" clipPathUnits="userSpaceOnUse">
      <path style="clip-rule:evenodd" id="path176" d="m 50.52,101.28 690.96,0 0,409.44 -690.96,0 0,-409.44 z"/>
    </clipPath>
    <clipPath id="clipPath186" clipPathUnits="userSpaceOnUse">
      <path style="clip-rule:evenodd" id="path188" d="m 50.52,101.28 690.96,0 0,409.44 -690.96,0 0,-409.44 z"/>
    </clipPath>
    <clipPath id="clipPath198" clipPathUnits="userSpaceOnUse">
      <path style="clip-rule:evenodd" id="path200" d="m 50.52,101.28 690.96,0 0,409.44 -690.96,0 0,-409.44 z"/>
    </clipPath>
    <clipPath id="clipPath210" clipPathUnits="userSpaceOnUse">
      <path style="clip-rule:evenodd" id="path212" d="m 50.52,101.28 690.96,0 0,409.44 -690.96,0 0,-409.44 z"/>
    </clipPath>
    <clipPath id="clipPath222" clipPathUnits="userSpaceOnUse">
      <path style="clip-rule:evenodd" id="path224" d="m 50.52,101.28 690.96,0 0,409.44 -690.96,0 0,-409.44 z"/>
    </clipPath>
    <clipPath id="clipPath234" clipPathUnits="userSpaceOnUse">
      <path style="clip-rule:evenodd" id="path236" d="m 50.52,101.28 690.96,0 0,409.44 -690.96,0 0,-409.44 z"/>
    </clipPath>
    <clipPath id="clipPath248" clipPathUnits="userSpaceOnUse">
      <path style="clip-rule:evenodd" id="path250" d="m 50.52,101.28 690.96,0 0,409.44 -690.96,0 0,-409.44 z"/>
    </clipPath>
    <clipPath id="clipPath262" clipPathUnits="userSpaceOnUse">
      <path style="clip-rule:evenodd" id="path264" d="m 50.52,101.28 690.96,0 0,409.44 -690.96,0 0,-409.44 z"/>
    </clipPath>
    <clipPath id="clipPath276" clipPathUnits="userSpaceOnUse">
      <path style="clip-rule:evenodd" id="path278" d="m 50.52,101.28 690.96,0 0,409.44 -690.96,0 0,-409.44 z"/>
    </clipPath>
    <clipPath id="clipPath290" clipPathUnits="userSpaceOnUse">
      <path style="clip-rule:evenodd" id="path292" d="m 50.52,101.28 690.96,0 0,409.44 -690.96,0 0,-409.44 z"/>
    </clipPath>
  </defs>
  <g transform="matrix(1.25,0,0,-1.25,0,765)" id="g10">
    <g id="g12">
      <g clip-path="url(#clipPath16)" id="g14">
        <path id="path20" style="fill:none;stroke:#000000;stroke-width:0.14;stroke-linecap:butt;stroke-linejoin:miter;stroke-miterlimit:10;stroke-dasharray:none;stroke-opacity:0" d="m 50.504,510.73 691.086,0 0,-409.51 -691.086,0 0,409.51 z"/>
      </g>
    </g>
    <path id="path22" style="fill:#ffffff;fill-opacity:1;fill-rule:evenodd;stroke:none" d="m 50.504,101.22 691.09,0 0,409.51 -691.09,0 0,-409.51 z"/>
    <g id="g24">
      <path id="path26" style="fill:none;stroke:#d9d9d9;stroke-width:0.92031997;stroke-linecap:butt;stroke-linejoin:round;stroke-miterlimit:10;stroke-dasharray:3.6813, 2.761;stroke-dashoffset:0;stroke-opacity:1" d="m 133.05,212.17 595.05,0 m -595.05,56.99 595.05,0 m -595.05,56.98 595.05,0 m -595.05,56.99 595.05,0 m -595.05,57.14 595.05,0 m -595.05,56.96 595.05,0"/>
    </g>
    <path id="path28" style="fill:#d0b86a;fill-opacity:1;fill-rule:nonzero;stroke:none" d="m 152.92,181.84 26.36,0 0,-26.72 -26.36,0 0,26.72 z m 66.11,6.33 26.36,0 0,-33.05 -26.36,0 0,33.05 z m 66.12,9.13 26.36,0 0,-42.18 -26.36,0 0,42.18 z m 66.12,12.52 26.35,0 0,-54.7 -26.35,0 0,54.7 z m 66.11,17.08 26.36,0 0,-71.78 -26.36,0 0,71.78 z m 66.12,20.61 26.36,0 0,-92.39 -26.36,0 0,92.39 z m 66.11,23.86 26.36,0 0,-116.25 -26.36,0 0,116.25 z m 66.12,26.36 26.36,0 0,-142.61 -26.36,0 0,142.61 z m 66.12,28.41 26.35,0 0,-171.02 -26.35,0 0,171.02 z"/>
    <path id="path30" style="fill:#0070c0;fill-opacity:1;fill-rule:nonzero;stroke:none" d="m 152.92,200.39 26.36,0 0,-18.55 -26.36,0 0,18.55 z m 66.11,10.9 26.36,0 0,-23.12 -26.36,0 0,23.12 z m 66.12,11.04 26.36,0 0,-25.03 -26.36,0 0,25.03 z m 66.12,18.41 26.35,0 0,-30.92 -26.35,0 0,30.92 z m 66.11,22.97 26.36,0 0,-36.81 -26.36,0 0,36.81 z m 66.12,26.51 26.36,0 0,-42.71 -26.36,0 0,42.71 z m 66.11,28.86 26.36,0 0,-47.71 -26.36,0 0,47.71 z m 66.12,32.98 26.36,0 0,-54.33 -26.36,0 0,54.33 z m 66.12,36.67 26.35,0 0,-62.59 -26.35,0 0,62.59 z"/>
    <path id="path32" style="fill:#a6caec;fill-opacity:1;fill-rule:nonzero;stroke:none" d="m 152.92,206.43 26.36,0 0,-6.04 -26.36,0 0,6.04 z m 66.11,12.07 26.36,0 0,-7.21 -26.36,0 0,7.21 z m 66.12,12.08 26.36,0 0,-8.25 -26.36,0 0,8.25 z m 66.12,19.58 26.35,0 0,-9.42 -26.35,0 0,9.42 z m 66.11,24.59 26.36,0 0,-11.04 -26.36,0 0,11.04 z m 66.12,28.57 26.36,0 0,-13.1 -26.36,0 0,13.1 z m 66.11,31.81 26.36,0 0,-16.05 -26.36,0 0,16.05 z m 66.12,36.07 26.36,0 0,-19.14 -26.36,0 0,19.14 z m 66.12,40.2 26.35,0 0,-22.67 -26.35,0 0,22.67 z"/>
    <path id="path34" style="fill:#c1e5f5;fill-opacity:1;fill-rule:nonzero;stroke:none" d="m 152.92,211.14 26.36,0 0,-4.71 -26.36,0 0,4.71 z m 66.11,12.66 26.36,0 0,-5.3 -26.36,0 0,5.3 z m 66.12,13.11 26.36,0 0,-6.33 -26.36,0 0,6.33 z m 66.12,21.94 26.35,0 0,-8.69 -26.35,0 0,8.69 z m 66.11,27.68 26.36,0 0,-11.78 -26.36,0 0,11.78 z m 66.12,32.4 26.36,0 0,-15.61 -26.36,0 0,15.61 z m 66.11,35.78 26.36,0 0,-19.58 -26.36,0 0,19.58 z m 66.12,40.2 26.36,0 0,-23.71 -26.36,0 0,23.71 z m 66.12,44.62 26.35,0 0,-28.13 -26.35,0 0,28.13 z"/>
    <path id="path36" style="fill:none;stroke:#d9d9d9;stroke-width:0.92031997;stroke-linecap:butt;stroke-linejoin:round;stroke-miterlimit:10;stroke-dasharray:none;stroke-opacity:1" d="m 133.05,155.12 595.05,0"/>
    <g id="g38">
      <g clip-path="url(#clipPath42)" id="g40"><text id="text46" style="font-variant:normal;font-weight:normal;font-size:11.03999996px;font-family:Arial;-inkscape-font-specification:Arial;writing-mode:lr-tb;fill:#595959;fill-opacity:1;fill-rule:nonzero;stroke:none" transform="matrix(1,0,0,-1,117.43,151.51)"><tspan id="tspan48" y="0" x="0">0</tspan></text>
</g>
    </g>
    <g id="g50">
      <g clip-path="url(#clipPath54)" id="g52"><text id="text58" style="font-variant:normal;font-weight:normal;font-size:11.03999996px;font-family:Arial;-inkscape-font-specification:Arial;writing-mode:lr-tb;fill:#595959;fill-opacity:1;fill-rule:nonzero;stroke:none" transform="matrix(1,0,0,-1,89.784,208.54)"><tspan id="tspan60" y="0" x="0 6.1824002 12.23232 15.30144 21.50592 27.68832">50,000</tspan></text>
</g>
    </g>
    <g id="g62">
      <g clip-path="url(#clipPath66)" id="g64"><text id="text70" style="font-variant:normal;font-weight:normal;font-size:11.03999996px;font-family:Arial;-inkscape-font-specification:Arial;writing-mode:lr-tb;fill:#595959;fill-opacity:1;fill-rule:nonzero;stroke:none" transform="matrix(1,0,0,-1,83.64,265.56)"><tspan id="tspan72" y="0" x="0 6.1824002 12.23232 18.414721 21.483841 27.68832 33.738239">100,000</tspan></text>
</g>
    </g>
    <g id="g74">
      <g clip-path="url(#clipPath78)" id="g76"><text id="text82" style="font-variant:normal;font-weight:normal;font-size:11.06400013px;font-family:Arial;-inkscape-font-specification:Arial;writing-mode:lr-tb;fill:#595959;fill-opacity:1;fill-rule:nonzero;stroke:none" transform="matrix(1,0,0,-1,83.64,322.61)"><tspan id="tspan84" y="0" x="0 6.1847758 12.236784 18.42156 21.497353 27.693192 33.745201">150,000</tspan></text>
</g>
    </g>
    <g id="g86">
      <g clip-path="url(#clipPath90)" id="g88"><text id="text94" style="font-variant:normal;font-weight:normal;font-size:11.06400013px;font-family:Arial;-inkscape-font-specification:Arial;writing-mode:lr-tb;fill:#595959;fill-opacity:1;fill-rule:nonzero;stroke:none" transform="matrix(1,0,0,-1,83.64,379.63)"><tspan id="tspan96" y="0" x="0 6.1847758 12.236784 18.42156 21.497353 27.693192 33.745201">200,000</tspan></text>
</g>
    </g>
    <g id="g98">
      <g clip-path="url(#clipPath102)" id="g100"><text id="text106" style="font-variant:normal;font-weight:normal;font-size:11.03999996px;font-family:Arial;-inkscape-font-specification:Arial;writing-mode:lr-tb;fill:#595959;fill-opacity:1;fill-rule:nonzero;stroke:none" transform="matrix(1,0,0,-1,83.64,436.66)"><tspan id="tspan108" y="0" x="0 6.1824002 12.23232 18.414721 21.483841 27.68832 33.738239">250,000</tspan></text>
</g>
    </g>
    <g id="g110">
      <g clip-path="url(#clipPath114)" id="g112"><text id="text118" style="font-variant:normal;font-weight:normal;font-size:11.03999996px;font-family:Arial;-inkscape-font-specification:Arial;writing-mode:lr-tb;fill:#595959;fill-opacity:1;fill-rule:nonzero;stroke:none" transform="matrix(1,0,0,-1,83.64,493.68)"><tspan id="tspan120" y="0" x="0 6.1824002 12.23232 18.414721 21.483841 27.68832 33.738239">300,000</tspan></text>
</g>
    </g>
    <g id="g122">
      <g clip-path="url(#clipPath126)" id="g124"><text id="text130" style="font-variant:normal;font-weight:normal;font-size:11.03999996px;font-family:Arial;-inkscape-font-specification:Arial;writing-mode:lr-tb;fill:#595959;fill-opacity:1;fill-rule:nonzero;stroke:none" transform="matrix(1,0,0,-1,150.77,138.36)"><tspan id="tspan132" y="0" x="0 6.1824002 12.23232 18.414721 24.59712">2022a</tspan></text>
</g>
    </g>
    <g id="g134">
      <g clip-path="url(#clipPath138)" id="g136"><text id="text142" style="font-variant:normal;font-weight:normal;font-size:11.03999996px;font-family:Arial;-inkscape-font-specification:Arial;writing-mode:lr-tb;fill:#595959;fill-opacity:1;fill-rule:nonzero;stroke:none" transform="matrix(1,0,0,-1,216.91,138.36)"><tspan id="tspan144" y="0" x="0 6.1382399 12.18816 18.326401 24.508801">2023a</tspan></text>
</g>
    </g>
    <g id="g146">
      <g clip-path="url(#clipPath150)" id="g148"><text id="text154" style="font-variant:normal;font-weight:normal;font-size:11.03999996px;font-family:Arial;-inkscape-font-specification:Arial;writing-mode:lr-tb;fill:#595959;fill-opacity:1;fill-rule:nonzero;stroke:none" transform="matrix(1,0,0,-1,283.03,138.36)"><tspan id="tspan156" y="0" x="0 6.1824002 12.21024 18.392639 24.575041">2024a</tspan></text>
</g>
    </g>
    <g id="g158">
      <g clip-path="url(#clipPath162)" id="g160"><text id="text166" style="font-variant:normal;font-weight:normal;font-size:11.03999996px;font-family:Arial;-inkscape-font-specification:Arial;writing-mode:lr-tb;fill:#595959;fill-opacity:1;fill-rule:nonzero;stroke:none" transform="matrix(1,0,0,-1,349.15,138.36)"><tspan id="tspan168" y="0" x="0 6.1824002 12.23232 18.414721 24.59712">2025e</tspan></text>
</g>
    </g>
    <g id="g170">
      <g clip-path="url(#clipPath174)" id="g172"><text id="text178" style="font-variant:normal;font-weight:normal;font-size:11.03999996px;font-family:Arial;-inkscape-font-specification:Arial;writing-mode:lr-tb;fill:#595959;fill-opacity:1;fill-rule:nonzero;stroke:none" transform="matrix(1,0,0,-1,415.27,138.36)"><tspan id="tspan180" y="0" x="0 6.1824002 12.23232 18.414721 24.59712">2026e</tspan></text>
</g>
    </g>
    <g id="g182">
      <g clip-path="url(#clipPath186)" id="g184"><text id="text190" style="font-variant:normal;font-weight:normal;font-size:11.03999996px;font-family:Arial;-inkscape-font-specification:Arial;writing-mode:lr-tb;fill:#595959;fill-opacity:1;fill-rule:nonzero;stroke:none" transform="matrix(1,0,0,-1,481.42,138.36)"><tspan id="tspan192" y="0" x="0 6.1382399 12.18816 18.326401 24.508801">2027e</tspan></text>
</g>
    </g>
    <g id="g194">
      <g clip-path="url(#clipPath198)" id="g196"><text id="text202" style="font-variant:normal;font-weight:normal;font-size:11.03999996px;font-family:Arial;-inkscape-font-specification:Arial;writing-mode:lr-tb;fill:#595959;fill-opacity:1;fill-rule:nonzero;stroke:none" transform="matrix(1,0,0,-1,547.54,138.36)"><tspan id="tspan204" y="0" x="0 6.1824002 12.21024 18.392639 24.575041">2028e</tspan></text>
</g>
    </g>
    <g id="g206">
      <g clip-path="url(#clipPath210)" id="g208"><text id="text214" style="font-variant:normal;font-weight:normal;font-size:11.03999996px;font-family:Arial;-inkscape-font-specification:Arial;writing-mode:lr-tb;fill:#595959;fill-opacity:1;fill-rule:nonzero;stroke:none" transform="matrix(1,0,0,-1,613.66,138.36)"><tspan id="tspan216" y="0" x="0 6.1824002 12.23232 18.414721 24.59712">2029e</tspan></text>
</g>
    </g>
    <g id="g218">
      <g clip-path="url(#clipPath222)" id="g220"><text id="text226" style="font-variant:normal;font-weight:normal;font-size:11.03999996px;font-family:Arial;-inkscape-font-specification:Arial;writing-mode:lr-tb;fill:#595959;fill-opacity:1;fill-rule:nonzero;stroke:none" transform="matrix(1,0,0,-1,679.78,138.36)"><tspan id="tspan228" y="0" x="0 6.1824002 12.23232 18.414721 24.59712">2030e</tspan></text>
</g>
    </g>
    <g id="g230">
      <g clip-path="url(#clipPath234)" id="g232"><text id="text238" style="font-variant:normal;font-weight:normal;font-size:12.23999977px;font-family:Arial;-inkscape-font-specification:Arial;writing-mode:lr-tb;fill:#595959;fill-opacity:1;fill-rule:nonzero;stroke:none" transform="matrix(-4.4e-8,1,1,4.4e-8,77.328,259.06)"><tspan id="tspan240" y="0" x="0 9.5594397 12.20328 18.972 25.740721 32.509441 35.153278 38.813042 47.650318 56.487598 59.89032 66.034798 72.80352 79.572243 86.340958 92.522163 95.166 98.568718 104.2848 107.68752 111.64104 121.788">Global DC capacity, MW</tspan></text>
</g>
    </g>
    <path id="path242" style="fill:#d0b86a;fill-opacity:1;fill-rule:evenodd;stroke:none" d="m 216.95,125.81 5.5496,0 0,5.5496 -5.5496,0 0,-5.5496 z"/>
    <g id="g244">
      <g clip-path="url(#clipPath248)" id="g246"><text id="text252" style="font-variant:normal;font-weight:normal;font-size:11.03999996px;font-family:Arial;-inkscape-font-specification:Arial;writing-mode:lr-tb;fill:#595959;fill-opacity:1;fill-rule:nonzero;stroke:none" transform="matrix(1,0,0,-1,224.86,124.97)"><tspan id="tspan254" y="0" x="0 7.9439802">US</tspan></text>
</g>
    </g>
    <path id="path256" style="fill:#0070c0;fill-opacity:1;fill-rule:evenodd;stroke:none" d="m 324.86,125.81 5.5496,0 0,5.5496 -5.5496,0 0,-5.5496 z"/>
    <g id="g258">
      <g clip-path="url(#clipPath262)" id="g260"><text id="text266" style="font-variant:normal;font-weight:normal;font-size:11.03999996px;font-family:Arial;-inkscape-font-specification:Arial;writing-mode:lr-tb;fill:#595959;fill-opacity:1;fill-rule:nonzero;stroke:none" transform="matrix(1,0,0,-1,332.78,124.97)"><tspan id="tspan268" y="0" x="0 7.97088 14.10912 16.593121 22.62096">China</tspan></text>
</g>
    </g>
    <path id="path270" style="fill:#a6caec;fill-opacity:1;fill-rule:evenodd;stroke:none" d="m 446.28,125.81 5.5496,0 0,5.5496 -5.5496,0 0,-5.5496 z"/>
    <g id="g272">
      <g clip-path="url(#clipPath276)" id="g274"><text id="text280" style="font-variant:normal;font-weight:normal;font-size:11.03999996px;font-family:Arial;-inkscape-font-specification:Arial;writing-mode:lr-tb;fill:#595959;fill-opacity:1;fill-rule:nonzero;stroke:none" transform="matrix(1,0,0,-1,454.2,124.97)"><tspan id="tspan282" y="0" x="0 7.3636799 13.54608 17.222401 23.294399 29.476801">Europe</tspan></text>
</g>
    </g>
    <path id="path284" style="fill:#c1e5f5;fill-opacity:1;fill-rule:evenodd;stroke:none" d="m 574.46,125.81 5.5496,0 0,5.5496 -5.5496,0 0,-5.5496 z"/>
    <g id="g286">
      <g clip-path="url(#clipPath290)" id="g288"><text id="text294" style="font-variant:normal;font-weight:normal;font-size:11.03999996px;font-family:Arial;-inkscape-font-specification:Arial;writing-mode:lr-tb;fill:#595959;fill-opacity:1;fill-rule:nonzero;stroke:none" transform="matrix(1,0,0,-1,582.41,124.97)"><tspan id="tspan296" y="0" x="0 8.54496 11.61408 17.81856 24.000959">Other</tspan></text>
</g>
    </g>
  </g>
</svg>
