<?xml version="1.0" encoding="UTF-8" standalone="no"?>
<svg xmlns:dc="http://purl.org/dc/elements/1.1/" xmlns:cc="http://creativecommons.org/ns#" xmlns:rdf="http://www.w3.org/1999/02/22-rdf-syntax-ns#" xmlns:svg="http://www.w3.org/2000/svg" xmlns="http://www.w3.org/2000/svg" viewBox="63.08875 344.85 618.06125 413" height="413" width="618.06125" xml:space="preserve" version="1.1" id="svg2">
  <metadata id="metadata8">
    <rdf:RDF>
      <cc:Work rdf:about="">
        <dc:format>image/svg+xml</dc:format>
        <dc:type rdf:resource="http://purl.org/dc/dcmitype/StillImage"/>
      </cc:Work>
    </rdf:RDF>
  </metadata>
  <defs id="defs6">
    <clipPath id="clipPath16" clipPathUnits="userSpaceOnUse">
      <path style="clip-rule:evenodd" id="path18" d="m 50.4,235.68 494.52,0 0,330.36 -494.52,0 0,-330.36 z"/>
    </clipPath>
    <clipPath id="clipPath26" clipPathUnits="userSpaceOnUse">
      <path style="clip-rule:evenodd" id="path28" d="m 50.4,235.68 494.52,0 0,330.36 -494.52,0 0,-330.36 z"/>
    </clipPath>
    <clipPath id="clipPath48" clipPathUnits="userSpaceOnUse">
      <path style="clip-rule:evenodd" id="path50" d="m 50.52,235.68 494.4,0 0,330.24 -494.4,0 0,-330.24 z"/>
    </clipPath>
    <clipPath id="clipPath60" clipPathUnits="userSpaceOnUse">
      <path style="clip-rule:evenodd" id="path62" d="m 50.52,235.68 494.4,0 0,330.24 -494.4,0 0,-330.24 z"/>
    </clipPath>
    <clipPath id="clipPath72" clipPathUnits="userSpaceOnUse">
      <path style="clip-rule:evenodd" id="path74" d="m 50.52,235.68 494.4,0 0,330.24 -494.4,0 0,-330.24 z"/>
    </clipPath>
    <clipPath id="clipPath84" clipPathUnits="userSpaceOnUse">
      <path style="clip-rule:evenodd" id="path86" d="m 50.52,235.68 494.4,0 0,330.24 -494.4,0 0,-330.24 z"/>
    </clipPath>
    <clipPath id="clipPath96" clipPathUnits="userSpaceOnUse">
      <path style="clip-rule:evenodd" id="path98" d="m 50.52,235.68 494.4,0 0,330.24 -494.4,0 0,-330.24 z"/>
    </clipPath>
    <clipPath id="clipPath108" clipPathUnits="userSpaceOnUse">
      <path style="clip-rule:evenodd" id="path110" d="m 50.52,235.68 494.4,0 0,330.24 -494.4,0 0,-330.24 z"/>
    </clipPath>
    <clipPath id="clipPath120" clipPathUnits="userSpaceOnUse">
      <path style="clip-rule:evenodd" id="path122" d="m 50.52,235.68 494.4,0 0,330.24 -494.4,0 0,-330.24 z"/>
    </clipPath>
    <clipPath id="clipPath132" clipPathUnits="userSpaceOnUse">
      <path style="clip-rule:evenodd" id="path134" d="m 50.52,235.68 494.4,0 0,330.24 -494.4,0 0,-330.24 z"/>
    </clipPath>
    <clipPath id="clipPath144" clipPathUnits="userSpaceOnUse">
      <path style="clip-rule:evenodd" id="path146" d="m 50.52,235.68 494.4,0 0,330.24 -494.4,0 0,-330.24 z"/>
    </clipPath>
    <clipPath id="clipPath156" clipPathUnits="userSpaceOnUse">
      <path style="clip-rule:evenodd" id="path158" d="m 50.52,235.68 494.4,0 0,330.24 -494.4,0 0,-330.24 z"/>
    </clipPath>
    <clipPath id="clipPath168" clipPathUnits="userSpaceOnUse">
      <path style="clip-rule:evenodd" id="path170" d="m 544.91,566.01 0,-330.22 -494.415,0 0,330.22 494.415,0 z"/>
    </clipPath>
    <clipPath id="clipPath178" clipPathUnits="userSpaceOnUse">
      <path style="clip-rule:evenodd" id="path180" d="m 544.91,566.01 0,-330.22 -494.415,0 0,330.22 494.415,0 z"/>
    </clipPath>
    <clipPath id="clipPath188" clipPathUnits="userSpaceOnUse">
      <path style="clip-rule:evenodd" id="path190" d="m 544.91,566.01 0,-330.22 -494.415,0 0,330.22 494.415,0 z"/>
    </clipPath>
    <clipPath id="clipPath198" clipPathUnits="userSpaceOnUse">
      <path style="clip-rule:evenodd" id="path200" d="m 544.91,566.01 0,-330.22 -494.415,0 0,330.22 494.415,0 z"/>
    </clipPath>
    <clipPath id="clipPath208" clipPathUnits="userSpaceOnUse">
      <path style="clip-rule:evenodd" id="path210" d="m 544.91,566.01 0,-330.22 -494.415,0 0,330.22 494.415,0 z"/>
    </clipPath>
    <clipPath id="clipPath218" clipPathUnits="userSpaceOnUse">
      <path style="clip-rule:evenodd" id="path220" d="m 544.91,566.01 0,-330.22 -494.415,0 0,330.22 494.415,0 z"/>
    </clipPath>
    <clipPath id="clipPath228" clipPathUnits="userSpaceOnUse">
      <path style="clip-rule:evenodd" id="path230" d="m 544.91,566.01 0,-330.22 -494.415,0 0,330.22 494.415,0 z"/>
    </clipPath>
    <clipPath id="clipPath238" clipPathUnits="userSpaceOnUse">
      <path style="clip-rule:evenodd" id="path240" d="m 544.91,566.01 0,-330.22 -494.415,0 0,330.22 494.415,0 z"/>
    </clipPath>
    <clipPath id="clipPath248" clipPathUnits="userSpaceOnUse">
      <path style="clip-rule:evenodd" id="path250" d="m 544.91,566.01 0,-330.22 -494.415,0 0,330.22 494.415,0 z"/>
    </clipPath>
    <clipPath id="clipPath258" clipPathUnits="userSpaceOnUse">
      <path style="clip-rule:evenodd" id="path260" d="m 50.495,566.01 494.415,0 0,-330.22 -494.415,0 0,330.22 z"/>
    </clipPath>
    <clipPath id="clipPath268" clipPathUnits="userSpaceOnUse">
      <path style="clip-rule:evenodd" id="path270" d="m 544.91,566.01 0,-330.22 -494.415,0 0,330.22 494.415,0 z"/>
    </clipPath>
    <clipPath id="clipPath278" clipPathUnits="userSpaceOnUse">
      <path style="clip-rule:evenodd" id="path280" d="m 544.91,566.01 0,-330.22 -494.415,0 0,330.22 494.415,0 z"/>
    </clipPath>
    <clipPath id="clipPath288" clipPathUnits="userSpaceOnUse">
      <path style="clip-rule:evenodd" id="path290" d="m 50.495,566.01 494.415,0 0,-330.22 -494.415,0 0,330.22 z"/>
    </clipPath>
    <clipPath id="clipPath298" clipPathUnits="userSpaceOnUse">
      <path style="clip-rule:evenodd" id="path300" d="m 544.91,566.01 0,-330.22 -494.415,0 0,330.22 494.415,0 z"/>
    </clipPath>
    <clipPath id="clipPath308" clipPathUnits="userSpaceOnUse">
      <path style="clip-rule:evenodd" id="path310" d="m 50.495,566.01 494.415,0 0,-330.22 -494.415,0 0,330.22 z"/>
    </clipPath>
    <clipPath id="clipPath318" clipPathUnits="userSpaceOnUse">
      <path style="clip-rule:evenodd" id="path320" d="m 544.91,566.01 0,-330.22 -494.415,0 0,330.22 494.415,0 z"/>
    </clipPath>
    <clipPath id="clipPath328" clipPathUnits="userSpaceOnUse">
      <path style="clip-rule:evenodd" id="path330" d="m 544.91,566.01 0,-330.22 -494.415,0 0,330.22 494.415,0 z"/>
    </clipPath>
    <clipPath id="clipPath338" clipPathUnits="userSpaceOnUse">
      <path style="clip-rule:evenodd" id="path340" d="m 544.91,566.01 0,-330.22 -494.415,0 0,330.22 494.415,0 z"/>
    </clipPath>
    <clipPath id="clipPath348" clipPathUnits="userSpaceOnUse">
      <path style="clip-rule:evenodd" id="path350" d="m 50.495,566.01 494.415,0 0,-330.22 -494.415,0 0,330.22 z"/>
    </clipPath>
    <clipPath id="clipPath358" clipPathUnits="userSpaceOnUse">
      <path style="clip-rule:evenodd" id="path360" d="m 50.495,566.01 494.415,0 0,-330.22 -494.415,0 0,330.22 z"/>
    </clipPath>
    <clipPath id="clipPath368" clipPathUnits="userSpaceOnUse">
      <path style="clip-rule:evenodd" id="path370" d="m 544.91,566.01 0,-330.22 -494.415,0 0,330.22 494.415,0 z"/>
    </clipPath>
    <clipPath id="clipPath382" clipPathUnits="userSpaceOnUse">
      <path style="clip-rule:evenodd" id="path384" d="m 50.52,235.68 494.4,0 0,330.24 -494.4,0 0,-330.24 z"/>
    </clipPath>
    <clipPath id="clipPath398" clipPathUnits="userSpaceOnUse">
      <path style="clip-rule:evenodd" id="path400" d="m 50.52,235.68 494.4,0 0,330.24 -494.4,0 0,-330.24 z"/>
    </clipPath>
    <clipPath id="clipPath412" clipPathUnits="userSpaceOnUse">
      <path style="clip-rule:evenodd" id="path414" d="m 50.52,235.68 494.4,0 0,330.24 -494.4,0 0,-330.24 z"/>
    </clipPath>
  </defs>
  <g transform="matrix(1.25,0,0,-1.25,0,1052.4)" id="g10">
    <g id="g12">
      <g clip-path="url(#clipPath16)" id="g14">
        <path id="path20" style="fill:none;stroke:#000000;stroke-width:0.14;stroke-linecap:butt;stroke-linejoin:miter;stroke-miterlimit:10;stroke-dasharray:none;stroke-opacity:0" d="m 50.541,235.73 494.38,0 0,330.26 -494.38,0 0,-330.26 z"/>
      </g>
    </g>
    <g id="g22">
      <g clip-path="url(#clipPath26)" id="g24">
        <path id="path30" style="fill:#ffffff;fill-opacity:1;fill-rule:evenodd;stroke:none" d="m 50.541,235.73 494.38,0 0,330.26 -494.38,0 0,-330.26 z"/>
      </g>
    </g>
    <path id="path32" style="fill:none;stroke:#c0c0c0;stroke-width:0.45186001;stroke-linecap:round;stroke-linejoin:round;stroke-miterlimit:10;stroke-dasharray:none;stroke-opacity:1" d="m 86.014,319.4 452.516,0 m -452.516,26.9 452.516,0 m -452.516,26.89 452.516,0 m -452.516,26.9 452.516,0 m -452.516,26.89 452.516,0 m -452.516,26.9 452.516,0 m -452.516,26.89 452.516,0 m -452.516,26.9 452.516,0 m -452.516,26.91 452.516,0"/>
    <path id="path34" style="fill:none;stroke:#808080;stroke-width:1.12969995;stroke-linecap:round;stroke-linejoin:round;stroke-miterlimit:10;stroke-dasharray:none;stroke-opacity:1" d="m 86.014,292.54 452.516,0"/>
    <path id="path36" style="fill:none;stroke:#005aa4;stroke-width:2.03340006;stroke-linecap:round;stroke-linejoin:round;stroke-miterlimit:10;stroke-dasharray:none;stroke-opacity:1" d="m 91.532,294.35 11.018,2.71 11.06,8.78 11.06,2.5 10.96,5.42 11.06,1.95 11.06,2.93 11.06,2.71 11.06,2.93 10.96,5.1 11.06,3.36 11.06,12.69 11.06,4.01 10.95,5.31 11.07,3.04 11.06,8.57 11.06,2.71 11.06,2.93 10.95,6.61 11.07,2.61 11.06,2.92 11.06,0.33 10.95,7.37 11.06,4.88 11.07,7.7 11.06,4.77 10.95,6.19 11.06,4.77 11.06,4.88 11.07,3.03 11.06,0.44 10.95,4.66 11.06,6.07 11.06,1.74 11.06,4.01 10.96,5.64 11.06,2.17 11.06,18.65 11.06,8.14 11.06,19.73 10.99,8.04"/>
    <g id="g38">
      <path id="path40" style="fill:none;stroke:#e0d19e;stroke-width:1.3556;stroke-linecap:round;stroke-linejoin:round;stroke-miterlimit:10;stroke-dasharray:2.7112, 2.7112;stroke-dashoffset:0;stroke-opacity:1" d="m 91.532,294.12 11.018,1.1 11.06,7.91 11.06,0.76 10.96,4.88 11.06,0.98 11.06,1.08 11.06,2.71 11.06,1.63 10.96,3.36 11.06,3.36 11.06,9.55 11.06,2.93 10.95,5.2 11.07,1.85 11.06,8.13 11.06,1.52 11.06,2.6 10.95,6.62 11.07,2.49 11.06,2.82 11.06,0.32 10.95,7.27 11.06,3.8 11.07,6.83 11.06,4.44 10.95,3.91 11.06,4.88 11.06,4.01 11.07,1.3 11.06,0.44 10.95,3.03 11.06,5.64 11.06,1.63 11.06,3.25 10.96,5.21 11.06,1.08 11.06,11.17 11.06,3.47 11.06,19.74 10.99,2.55"/>
    </g>
    <path id="path42" style="fill:none;stroke:#226b5a;stroke-width:1.3556;stroke-linecap:round;stroke-linejoin:round;stroke-miterlimit:10;stroke-dasharray:none;stroke-opacity:1" d="m 91.532,293.37 11.018,2.39 11.06,6.18 11.06,0.65 10.96,8.68 11.06,3.9 11.06,14.1 11.06,6.4 11.06,4.44 10.96,3.15 11.06,5.42 11.06,14.42 11.06,11.61 10.95,1.84 11.07,7.16 11.06,6.07 11.06,7.27 11.06,6.07 10.95,1.19 11.07,2.72 11.06,0.86 11.06,1.41 10.95,1.52 11.06,0 11.07,0 11.06,0.76 10.95,17.89 11.06,1.96 11.06,1.62 11.07,10.63 11.06,0.65 10.95,7.27 11.06,2.06 11.06,1.73 11.06,9.66 10.96,1.26 11.06,0 11.06,0 11.06,0 11.06,0 10.99,0"/>
    <g id="g44">
      <g clip-path="url(#clipPath48)" id="g46"><text id="text52" style="font-variant:normal;font-weight:normal;font-size:8.13599968px;font-family:'Roboto Condensed';-inkscape-font-specification:RobotoCondensed-Regular;writing-mode:lr-tb;fill:#000000;fill-opacity:1;fill-rule:nonzero;stroke:none" transform="matrix(1,0,0,-1,64.368,290.04)"><tspan id="tspan54" y="0" x="0 4.0191841 6.207768 10.226952">0.00</tspan></text>
</g>
    </g>
    <g id="g56">
      <g clip-path="url(#clipPath60)" id="g58"><text id="text64" style="font-variant:normal;font-weight:normal;font-size:8.13599968px;font-family:'Roboto Condensed';-inkscape-font-specification:RobotoCondensed-Regular;writing-mode:lr-tb;fill:#000000;fill-opacity:1;fill-rule:nonzero;stroke:none" transform="matrix(1,0,0,-1,60.36,316.94)"><tspan id="tspan66" y="0" x="0 4.0191841 8.0383682 10.178136 14.19732">10.00</tspan></text>
</g>
    </g>
    <g id="g68">
      <g clip-path="url(#clipPath72)" id="g70"><text id="text76" style="font-variant:normal;font-weight:normal;font-size:8.13599968px;font-family:'Roboto Condensed';-inkscape-font-specification:RobotoCondensed-Regular;writing-mode:lr-tb;fill:#000000;fill-opacity:1;fill-rule:nonzero;stroke:none" transform="matrix(1,0,0,-1,60.36,343.85)"><tspan id="tspan78" y="0" x="0 4.0191841 8.0383682 10.178136 14.19732">20.00</tspan></text>
</g>
    </g>
    <g id="g80">
      <g clip-path="url(#clipPath84)" id="g82"><text id="text88" style="font-variant:normal;font-weight:normal;font-size:8.11200047px;font-family:'Roboto Condensed';-inkscape-font-specification:RobotoCondensed-Regular;writing-mode:lr-tb;fill:#000000;fill-opacity:1;fill-rule:nonzero;stroke:none" transform="matrix(1,0,0,-1,60.36,370.73)"><tspan id="tspan90" y="0" x="0 4.007328 8.0146561 10.164336 14.171664">30.00</tspan></text>
</g>
    </g>
    <g id="g92">
      <g clip-path="url(#clipPath96)" id="g94"><text id="text100" style="font-variant:normal;font-weight:normal;font-size:8.13599968px;font-family:'Roboto Condensed';-inkscape-font-specification:RobotoCondensed-Regular;writing-mode:lr-tb;fill:#000000;fill-opacity:1;fill-rule:nonzero;stroke:none" transform="matrix(1,0,0,-1,60.36,397.63)"><tspan id="tspan102" y="0" x="0 4.0191841 8.0383682 10.178136 14.19732">40.00</tspan></text>
</g>
    </g>
    <g id="g104">
      <g clip-path="url(#clipPath108)" id="g106"><text id="text112" style="font-variant:normal;font-weight:normal;font-size:8.13599968px;font-family:'Roboto Condensed';-inkscape-font-specification:RobotoCondensed-Regular;writing-mode:lr-tb;fill:#000000;fill-opacity:1;fill-rule:nonzero;stroke:none" transform="matrix(1,0,0,-1,60.36,424.54)"><tspan id="tspan114" y="0" x="0 4.0191841 8.0383682 10.178136 14.19732">50.00</tspan></text>
</g>
    </g>
    <g id="g116">
      <g clip-path="url(#clipPath120)" id="g118"><text id="text124" style="font-variant:normal;font-weight:normal;font-size:8.13599968px;font-family:'Roboto Condensed';-inkscape-font-specification:RobotoCondensed-Regular;writing-mode:lr-tb;fill:#000000;fill-opacity:1;fill-rule:nonzero;stroke:none" transform="matrix(1,0,0,-1,60.36,451.44)"><tspan id="tspan126" y="0" x="0 4.0191841 8.0383682 10.178136 14.19732">60.00</tspan></text>
</g>
    </g>
    <g id="g128">
      <g clip-path="url(#clipPath132)" id="g130"><text id="text136" style="font-variant:normal;font-weight:normal;font-size:8.13599968px;font-family:'Roboto Condensed';-inkscape-font-specification:RobotoCondensed-Regular;writing-mode:lr-tb;fill:#000000;fill-opacity:1;fill-rule:nonzero;stroke:none" transform="matrix(1,0,0,-1,60.36,478.32)"><tspan id="tspan138" y="0" x="0 4.0191841 8.0383682 10.178136 14.19732">70.00</tspan></text>
</g>
    </g>
    <g id="g140">
      <g clip-path="url(#clipPath144)" id="g142"><text id="text148" style="font-variant:normal;font-weight:normal;font-size:8.13599968px;font-family:'Roboto Condensed';-inkscape-font-specification:RobotoCondensed-Regular;writing-mode:lr-tb;fill:#000000;fill-opacity:1;fill-rule:nonzero;stroke:none" transform="matrix(1,0,0,-1,60.36,505.22)"><tspan id="tspan150" y="0" x="0 4.0191841 8.0383682 10.178136 14.19732">80.00</tspan></text>
</g>
    </g>
    <g id="g152">
      <g clip-path="url(#clipPath156)" id="g154"><text id="text160" style="font-variant:normal;font-weight:normal;font-size:8.13599968px;font-family:'Roboto Condensed';-inkscape-font-specification:RobotoCondensed-Regular;writing-mode:lr-tb;fill:#000000;fill-opacity:1;fill-rule:nonzero;stroke:none" transform="matrix(1,0,0,-1,60.36,532.13)"><tspan id="tspan162" y="0" x="0 4.0191841 8.0383682 10.178136 14.19732">90.00</tspan></text>
</g>
    </g>
    <g id="g164">
      <g clip-path="url(#clipPath168)" id="g166">
        <path id="path172" style="fill:#000000;fill-opacity:1;fill-rule:nonzero;stroke:none" d="m 72.975,265 -1.382,-1.38 1.806,-1.81 -0.514,-0.51 -4.089,4.09 2.129,2.13 0.441,-0.44 -1.615,-1.62 1.401,-1.4 1.382,1.38 0.441,-0.44 z m 3.744,0.02 c -0.379,-0.38 -0.782,-0.55 -1.209,-0.53 -0.428,0.02 -0.862,0.25 -1.302,0.68 l -0.368,0.37 c -0.453,0.45 -0.709,0.91 -0.769,1.36 -0.06,0.46 0.087,0.86 0.441,1.22 0.355,0.35 0.734,0.5 1.137,0.45 0.402,-0.05 0.845,-0.31 1.328,-0.79 l 0.326,-0.32 -1.696,-1.7 0.07,-0.07 c 0.326,-0.32 0.624,-0.5 0.894,-0.52 0.271,-0.03 0.521,0.07 0.752,0.3 0.146,0.15 0.247,0.31 0.303,0.47 0.056,0.17 0.073,0.36 0.05,0.58 l 0.573,-0.06 c 0.088,-0.52 -0.089,-1 -0.53,-1.44 z m -2.781,2.67 c -0.206,-0.21 -0.287,-0.43 -0.245,-0.67 0.042,-0.24 0.205,-0.52 0.49,-0.83 l 1.196,1.2 -0.067,0.07 c -0.302,0.27 -0.56,0.43 -0.774,0.46 -0.214,0.03 -0.414,-0.05 -0.6,-0.23 z m 5.15,2.56 c 0.474,-0.47 0.745,-0.92 0.814,-1.33 0.07,-0.41 -0.058,-0.77 -0.382,-1.1 -0.322,-0.32 -0.702,-0.42 -1.14,-0.31 l 0.334,-0.38 -0.452,-0.45 -4.313,4.31 0.494,0.49 1.609,-1.6 c -0.097,0.42 0.007,0.78 0.312,1.09 0.333,0.33 0.701,0.46 1.104,0.39 0.402,-0.07 0.842,-0.34 1.319,-0.81 l 0.301,-0.3 z m -0.779,-0.21 c -0.359,0.36 -0.665,0.56 -0.918,0.62 -0.252,0.05 -0.491,-0.04 -0.715,-0.26 -0.257,-0.26 -0.309,-0.59 -0.158,-0.99 l 1.444,-1.44 c 0.397,-0.15 0.726,-0.1 0.988,0.16 0.225,0.23 0.307,0.47 0.248,0.72 -0.06,0.26 -0.254,0.55 -0.583,0.88 l -0.306,0.31 z m 2.184,1.92 -1.16,-1.16 -0.424,0.42 1.16,1.16 0.424,-0.42 z m 4.305,1.25 -2.286,-2.28 -0.374,0.37 -0.379,2.71 c -0.062,0.41 -0.135,0.73 -0.219,0.95 -0.084,0.22 -0.212,0.42 -0.382,0.59 -0.217,0.22 -0.444,0.34 -0.679,0.38 -0.236,0.03 -0.437,-0.04 -0.601,-0.2 -0.208,-0.21 -0.297,-0.44 -0.267,-0.7 0.03,-0.25 0.179,-0.52 0.449,-0.79 l -0.497,-0.49 c -0.376,0.37 -0.578,0.78 -0.604,1.22 -0.026,0.44 0.138,0.83 0.492,1.19 0.325,0.32 0.682,0.48 1.068,0.47 0.387,-0.02 0.746,-0.19 1.077,-0.52 0.405,-0.4 0.672,-1.09 0.803,-2.07 l 0.281,-2.1 1.694,1.7 0.424,-0.43 z m 0.992,4.48 c 0.603,-0.6 0.965,-1.14 1.088,-1.61 0.123,-0.48 -0.004,-0.9 -0.38,-1.28 -0.366,-0.36 -0.781,-0.49 -1.247,-0.39 -0.466,0.11 -0.991,0.45 -1.573,1.01 l -0.702,0.71 c -0.597,0.59 -0.954,1.13 -1.071,1.6 -0.117,0.47 0.011,0.89 0.386,1.27 0.369,0.36 0.781,0.5 1.237,0.4 0.456,-0.11 0.971,-0.44 1.546,-0.99 l 0.716,-0.72 z m -1.208,0.22 c -0.432,0.43 -0.799,0.7 -1.099,0.81 -0.301,0.11 -0.556,0.06 -0.765,-0.15 -0.204,-0.21 -0.254,-0.46 -0.148,-0.75 0.106,-0.3 0.36,-0.65 0.763,-1.06 l 0.842,-0.85 c 0.431,-0.43 0.804,-0.7 1.119,-0.82 0.316,-0.11 0.575,-0.07 0.78,0.13 0.202,0.21 0.248,0.46 0.14,0.76 -0.109,0.3 -0.371,0.66 -0.786,1.08 l -0.846,0.85 z m 5.89,0.98 -2.286,-2.29 -0.373,0.37 -0.379,2.71 c -0.062,0.42 -0.135,0.74 -0.219,0.96 -0.085,0.22 -0.212,0.41 -0.382,0.58 -0.217,0.22 -0.444,0.35 -0.68,0.38 -0.236,0.03 -0.436,-0.03 -0.601,-0.2 -0.208,-0.2 -0.297,-0.44 -0.267,-0.69 0.03,-0.26 0.18,-0.52 0.45,-0.79 l -0.497,-0.5 c -0.377,0.38 -0.578,0.78 -0.604,1.22 -0.026,0.44 0.137,0.84 0.491,1.19 0.326,0.33 0.682,0.48 1.069,0.47 0.386,-0.01 0.745,-0.18 1.077,-0.51 0.404,-0.41 0.672,-1.1 0.803,-2.07 l 0.281,-2.1 1.693,1.69 0.424,-0.42 z m 2.837,2.83 -2.285,-2.28 -0.374,0.37 -0.379,2.71 c -0.062,0.42 -0.135,0.73 -0.219,0.95 -0.084,0.22 -0.212,0.42 -0.382,0.59 -0.217,0.22 -0.444,0.34 -0.68,0.38 -0.235,0.03 -0.436,-0.03 -0.601,-0.2 -0.207,-0.21 -0.296,-0.44 -0.266,-0.7 0.03,-0.25 0.179,-0.52 0.449,-0.78 l -0.497,-0.5 c -0.376,0.37 -0.578,0.78 -0.604,1.22 -0.026,0.44 0.138,0.83 0.492,1.19 0.325,0.32 0.682,0.48 1.068,0.47 0.387,-0.01 0.746,-0.19 1.077,-0.52 0.404,-0.4 0.672,-1.09 0.803,-2.06 l 0.281,-2.1 1.693,1.69 0.424,-0.43 z"/>
      </g>
    </g>
    <g id="g174">
      <g clip-path="url(#clipPath178)" id="g176">
        <path id="path182" style="fill:#000000;fill-opacity:1;fill-rule:nonzero;stroke:none" d="m 96.189,264.67 -1.382,-1.38 0.753,-1.39 -0.528,-0.53 -2.772,5.41 0.441,0.44 5.409,-2.77 -0.528,-0.53 -1.393,0.75 z m -1.688,-0.81 1.115,1.12 -2.418,1.3 1.303,-2.42 z m 4.901,4.63 c 0.481,-0.48 0.748,-0.93 0.818,-1.34 0.06,-0.4 -0.07,-0.77 -0.383,-1.08 -0.305,-0.31 -0.655,-0.43 -1.05,-0.36 l 1.453,-1.46 -0.49,-0.5 -4.207,4.21 0.45,0.45 0.362,-0.31 c -0.096,0.43 0.012,0.8 0.323,1.11 0.333,0.33 0.698,0.46 1.095,0.4 0.397,-0.07 0.83,-0.33 1.298,-0.79 l 0.331,-0.33 z m -0.778,-0.21 c -0.341,0.34 -0.644,0.54 -0.911,0.6 -0.267,0.05 -0.516,-0.03 -0.749,-0.27 -0.237,-0.23 -0.299,-0.53 -0.185,-0.9 l 1.581,-1.58 c 0.354,-0.11 0.653,-0.04 0.896,0.2 0.225,0.23 0.309,0.47 0.253,0.74 -0.057,0.27 -0.25,0.57 -0.582,0.91 l -0.303,0.3 z m 1.476,3.31 c -0.08,-0.06 -0.164,-0.13 -0.245,-0.21 -0.255,-0.25 -0.293,-0.57 -0.115,-0.95 l 2.17,-2.18 -0.49,-0.49 -3.042,3.04 0.483,0.48 0.317,-0.3 c -0.11,0.37 -0.044,0.68 0.2,0.93 0.078,0.08 0.157,0.13 0.236,0.16 l 0.486,-0.48 z m 2.48,0.38 -1.16,-1.16 -0.43,0.42 1.16,1.16 0.43,-0.42 z m 4.3,1.25 -2.28,-2.28 -0.38,0.37 -0.38,2.71 c -0.06,0.41 -0.13,0.73 -0.22,0.95 -0.08,0.22 -0.21,0.42 -0.38,0.59 -0.22,0.22 -0.44,0.34 -0.68,0.37 -0.23,0.04 -0.43,-0.03 -0.6,-0.19 -0.21,-0.21 -0.3,-0.44 -0.27,-0.7 0.03,-0.25 0.18,-0.52 0.45,-0.79 l -0.49,-0.49 c -0.38,0.37 -0.58,0.78 -0.61,1.22 -0.02,0.44 0.14,0.83 0.49,1.19 0.33,0.32 0.69,0.48 1.07,0.47 0.39,-0.02 0.75,-0.19 1.08,-0.52 0.4,-0.4 0.67,-1.09 0.8,-2.07 l 0.28,-2.1 1.7,1.7 0.42,-0.43 z m 0.99,4.48 c 0.61,-0.6 0.97,-1.14 1.09,-1.61 0.12,-0.48 0,-0.9 -0.38,-1.28 -0.36,-0.37 -0.78,-0.49 -1.25,-0.39 -0.46,0.11 -0.99,0.45 -1.57,1.01 l -0.7,0.71 c -0.6,0.59 -0.95,1.13 -1.07,1.6 -0.12,0.47 0.01,0.89 0.38,1.27 0.37,0.36 0.79,0.5 1.24,0.4 0.46,-0.11 0.97,-0.44 1.55,-0.99 l 0.71,-0.72 z m -1.2,0.22 c -0.44,0.43 -0.8,0.7 -1.1,0.81 -0.3,0.11 -0.56,0.06 -0.77,-0.15 -0.2,-0.21 -0.25,-0.46 -0.15,-0.75 0.11,-0.3 0.36,-0.65 0.77,-1.06 l 0.84,-0.85 c 0.43,-0.43 0.8,-0.7 1.12,-0.82 0.31,-0.11 0.57,-0.07 0.78,0.13 0.2,0.21 0.25,0.46 0.14,0.76 -0.11,0.3 -0.37,0.66 -0.79,1.08 l -0.84,0.85 z m 5.89,0.98 -2.29,-2.29 -0.37,0.37 -0.38,2.71 c -0.06,0.42 -0.14,0.74 -0.22,0.96 -0.09,0.22 -0.21,0.41 -0.38,0.58 -0.22,0.22 -0.45,0.35 -0.68,0.38 -0.24,0.03 -0.44,-0.03 -0.6,-0.2 -0.21,-0.21 -0.3,-0.44 -0.27,-0.69 0.03,-0.26 0.18,-0.52 0.45,-0.79 l -0.5,-0.5 c -0.38,0.38 -0.58,0.78 -0.6,1.22 -0.03,0.44 0.13,0.84 0.49,1.19 0.32,0.33 0.68,0.48 1.07,0.47 0.38,-0.01 0.74,-0.18 1.07,-0.52 0.41,-0.4 0.68,-1.09 0.81,-2.06 l 0.28,-2.1 1.69,1.69 0.43,-0.42 z m 2.83,2.83 -2.28,-2.28 -0.38,0.37 -0.38,2.71 c -0.06,0.42 -0.13,0.73 -0.21,0.95 -0.09,0.22 -0.22,0.42 -0.39,0.59 -0.21,0.22 -0.44,0.34 -0.68,0.38 -0.23,0.03 -0.43,-0.04 -0.6,-0.2 -0.21,-0.21 -0.29,-0.44 -0.26,-0.7 0.03,-0.25 0.18,-0.52 0.45,-0.79 l -0.5,-0.49 c -0.38,0.37 -0.58,0.78 -0.61,1.22 -0.02,0.44 0.14,0.83 0.5,1.19 0.32,0.32 0.68,0.48 1.06,0.47 0.39,-0.01 0.75,-0.19 1.08,-0.52 0.41,-0.4 0.67,-1.09 0.8,-2.06 l 0.29,-2.11 1.69,1.7 0.42,-0.43 z"/>
      </g>
    </g>
    <g id="g184">
      <g clip-path="url(#clipPath188)" id="g186">
        <path id="path192" style="fill:#000000;fill-opacity:1;fill-rule:nonzero;stroke:none" d="m 114.31,266.75 0.51,0.52 2.9,-2.9 c 0.39,-0.39 0.6,-0.8 0.62,-1.22 0.02,-0.42 -0.14,-0.79 -0.48,-1.13 -0.34,-0.35 -0.72,-0.51 -1.12,-0.5 -0.4,0.02 -0.79,0.22 -1.16,0.59 l 0.51,0.51 c 0.24,-0.23 0.47,-0.37 0.71,-0.39 0.23,-0.03 0.44,0.05 0.62,0.23 0.18,0.18 0.25,0.39 0.22,0.64 -0.04,0.25 -0.19,0.5 -0.44,0.76 l -2.89,2.89 z m 6.65,-0.99 c 0.05,-0.38 -0.08,-0.73 -0.4,-1.05 -0.28,-0.27 -0.58,-0.38 -0.91,-0.33 -0.33,0.05 -0.68,0.25 -1.04,0.61 l -1.98,1.98 0.49,0.5 1.95,-1.95 c 0.47,-0.47 0.85,-0.56 1.13,-0.28 0.3,0.3 0.38,0.64 0.22,1.03 l -2.25,2.25 0.5,0.49 3.04,-3.03 -0.47,-0.48 -0.28,0.26 z m -1.02,4.53 0.35,-0.32 c -0.07,0.45 0.05,0.83 0.35,1.13 0.54,0.53 1.17,0.45 1.89,-0.26 l 2.02,-2.02 -0.49,-0.5 -2,2 c -0.24,0.24 -0.45,0.37 -0.63,0.39 -0.18,0.02 -0.35,-0.05 -0.5,-0.21 -0.13,-0.12 -0.2,-0.27 -0.21,-0.46 -0.02,-0.18 0.01,-0.36 0.08,-0.56 l 2.21,-2.2 -0.5,-0.5 -3.04,3.04 0.47,0.47 z m 4.73,1.7 -1.16,-1.16 -0.42,0.42 1.16,1.16 0.42,-0.42 z m 4.23,1.17 -2.29,-2.28 -0.37,0.37 -0.38,2.71 c -0.06,0.42 -0.14,0.73 -0.22,0.95 -0.08,0.22 -0.21,0.42 -0.38,0.59 -0.22,0.22 -0.45,0.34 -0.68,0.38 -0.24,0.03 -0.44,-0.03 -0.6,-0.2 -0.21,-0.21 -0.3,-0.44 -0.27,-0.7 0.03,-0.25 0.18,-0.52 0.45,-0.78 l -0.5,-0.5 c -0.37,0.37 -0.57,0.78 -0.6,1.22 -0.03,0.44 0.14,0.83 0.49,1.19 0.33,0.32 0.68,0.48 1.07,0.47 0.39,-0.01 0.74,-0.19 1.08,-0.52 0.4,-0.4 0.67,-1.09 0.8,-2.06 l 0.28,-2.1 1.69,1.69 0.43,-0.43 z m 0.99,4.48 c 0.6,-0.6 0.97,-1.14 1.09,-1.61 0.12,-0.48 -0.01,-0.9 -0.38,-1.28 -0.37,-0.36 -0.78,-0.49 -1.25,-0.39 -0.47,0.11 -0.99,0.45 -1.57,1.02 l -0.7,0.7 c -0.6,0.59 -0.96,1.13 -1.08,1.6 -0.11,0.47 0.02,0.89 0.39,1.27 0.37,0.37 0.78,0.5 1.24,0.4 0.45,-0.1 0.97,-0.43 1.54,-0.99 l 0.72,-0.72 z m -1.21,0.22 c -0.43,0.43 -0.8,0.7 -1.1,0.81 -0.3,0.11 -0.55,0.06 -0.76,-0.15 -0.21,-0.2 -0.26,-0.45 -0.15,-0.75 0.11,-0.3 0.36,-0.65 0.76,-1.06 l 0.84,-0.84 c 0.44,-0.43 0.81,-0.71 1.12,-0.82 0.32,-0.12 0.58,-0.08 0.78,0.13 0.21,0.2 0.25,0.45 0.14,0.75 -0.11,0.3 -0.37,0.66 -0.78,1.08 l -0.85,0.85 z m 5.89,0.98 -2.28,-2.29 -0.38,0.38 -0.38,2.71 c -0.06,0.41 -0.13,0.73 -0.22,0.95 -0.08,0.22 -0.21,0.42 -0.38,0.59 -0.21,0.21 -0.44,0.34 -0.68,0.37 -0.23,0.04 -0.43,-0.03 -0.6,-0.19 -0.21,-0.21 -0.3,-0.44 -0.27,-0.7 0.03,-0.26 0.18,-0.52 0.45,-0.79 l -0.49,-0.5 c -0.38,0.38 -0.58,0.79 -0.61,1.22 -0.02,0.44 0.14,0.84 0.49,1.19 0.33,0.33 0.69,0.48 1.07,0.47 0.39,-0.01 0.75,-0.18 1.08,-0.51 0.4,-0.41 0.67,-1.1 0.8,-2.07 l 0.28,-2.1 1.7,1.69 0.42,-0.42 z m 2.92,2.91 -2.29,-2.28 -0.37,0.37 -0.38,2.71 c -0.06,0.41 -0.14,0.73 -0.22,0.95 -0.09,0.22 -0.21,0.42 -0.38,0.59 -0.22,0.22 -0.45,0.34 -0.68,0.38 -0.24,0.03 -0.44,-0.04 -0.6,-0.2 -0.21,-0.21 -0.3,-0.44 -0.27,-0.7 0.03,-0.25 0.18,-0.52 0.45,-0.79 l -0.5,-0.49 c -0.38,0.37 -0.58,0.78 -0.6,1.22 -0.03,0.44 0.14,0.83 0.49,1.19 0.32,0.32 0.68,0.48 1.07,0.47 0.38,-0.02 0.74,-0.19 1.07,-0.52 0.41,-0.4 0.68,-1.09 0.81,-2.07 l 0.28,-2.1 1.69,1.7 0.43,-0.43 z"/>
      </g>
    </g>
    <g id="g194">
      <g clip-path="url(#clipPath198)" id="g196">
        <path id="path202" style="fill:#000000;fill-opacity:1;fill-rule:nonzero;stroke:none" d="m 139.31,263.64 -1.38,-1.38 0.75,-1.38 -0.53,-0.53 -2.77,5.4 0.44,0.44 5.41,-2.76 -0.53,-0.53 -1.39,0.74 z m -1.69,-0.8 1.12,1.11 -2.42,1.3 1.3,-2.41 z m 5.36,2.87 c 0.06,-0.38 -0.08,-0.73 -0.39,-1.04 -0.28,-0.28 -0.58,-0.39 -0.91,-0.34 -0.33,0.05 -0.68,0.25 -1.05,0.61 l -1.98,1.98 0.5,0.5 1.94,-1.94 c 0.48,-0.48 0.85,-0.57 1.14,-0.29 0.3,0.3 0.37,0.65 0.22,1.03 l -2.25,2.25 0.5,0.5 3.03,-3.04 -0.47,-0.47 -0.28,0.25 z m -0.27,2.5 c -0.48,0.48 -0.75,0.92 -0.82,1.34 -0.07,0.41 0.06,0.78 0.39,1.12 0.31,0.3 0.68,0.41 1.1,0.3 l -0.31,0.37 0.45,0.45 3.06,-3.07 c 0.38,-0.37 0.57,-0.76 0.58,-1.15 0.01,-0.4 -0.16,-0.77 -0.5,-1.11 -0.15,-0.15 -0.36,-0.28 -0.62,-0.39 -0.26,-0.12 -0.49,-0.17 -0.69,-0.15 l -0.14,0.54 c 0.41,0.01 0.74,0.13 0.98,0.38 0.42,0.42 0.41,0.86 -0.03,1.32 l -0.4,0.39 c 0.08,-0.4 -0.03,-0.74 -0.33,-1.04 -0.31,-0.31 -0.68,-0.44 -1.09,-0.38 -0.41,0.06 -0.85,0.31 -1.3,0.75 l -0.33,0.33 z m 0.78,0.22 c 0.34,-0.34 0.64,-0.54 0.9,-0.6 0.26,-0.06 0.5,0.02 0.73,0.25 0.25,0.25 0.31,0.56 0.18,0.94 l -1.52,1.51 c -0.38,0.12 -0.69,0.06 -0.92,-0.17 -0.23,-0.23 -0.32,-0.48 -0.26,-0.74 0.06,-0.26 0.25,-0.56 0.58,-0.89 l 0.31,-0.3 z m 3.21,3.51 -1.16,-1.16 -0.43,0.42 1.16,1.16 0.43,-0.42 z m 4.3,1.25 -2.29,-2.28 -0.37,0.37 -0.38,2.71 c -0.06,0.41 -0.13,0.73 -0.22,0.95 -0.08,0.22 -0.21,0.42 -0.38,0.59 -0.22,0.22 -0.44,0.34 -0.68,0.38 -0.24,0.03 -0.44,-0.04 -0.6,-0.2 -0.21,-0.21 -0.3,-0.44 -0.27,-0.7 0.03,-0.25 0.18,-0.52 0.45,-0.79 l -0.49,-0.49 c -0.38,0.37 -0.58,0.78 -0.61,1.22 -0.02,0.44 0.14,0.83 0.49,1.19 0.33,0.32 0.68,0.48 1.07,0.47 0.39,-0.02 0.75,-0.19 1.08,-0.52 0.4,-0.4 0.67,-1.09 0.8,-2.07 l 0.28,-2.1 1.7,1.7 0.42,-0.43 z m 0.99,4.48 c 0.6,-0.6 0.97,-1.14 1.09,-1.61 0.12,-0.48 0,-0.9 -0.38,-1.28 -0.37,-0.36 -0.78,-0.49 -1.25,-0.39 -0.46,0.11 -0.99,0.45 -1.57,1.01 l -0.7,0.71 c -0.6,0.59 -0.96,1.13 -1.07,1.6 -0.12,0.47 0.01,0.89 0.38,1.27 0.37,0.37 0.78,0.5 1.24,0.4 0.46,-0.11 0.97,-0.43 1.55,-0.99 l 0.71,-0.72 z m -1.21,0.22 c -0.43,0.43 -0.79,0.7 -1.09,0.81 -0.31,0.11 -0.56,0.06 -0.77,-0.15 -0.2,-0.2 -0.25,-0.45 -0.15,-0.75 0.11,-0.3 0.36,-0.65 0.76,-1.06 l 0.85,-0.84 c 0.43,-0.43 0.8,-0.71 1.12,-0.83 0.31,-0.11 0.57,-0.07 0.78,0.13 0.2,0.21 0.24,0.46 0.14,0.76 -0.11,0.3 -0.37,0.66 -0.79,1.08 l -0.85,0.85 z m 5.89,0.98 -2.28,-2.29 -0.38,0.38 -0.37,2.71 c -0.07,0.41 -0.14,0.73 -0.22,0.95 -0.09,0.22 -0.21,0.41 -0.39,0.58 -0.21,0.22 -0.44,0.35 -0.67,0.38 -0.24,0.03 -0.44,-0.03 -0.61,-0.2 -0.2,-0.2 -0.29,-0.44 -0.26,-0.69 0.03,-0.26 0.18,-0.52 0.45,-0.79 l -0.5,-0.5 c -0.38,0.38 -0.58,0.79 -0.6,1.22 -0.03,0.44 0.13,0.84 0.49,1.19 0.32,0.33 0.68,0.48 1.07,0.47 0.38,-0.01 0.74,-0.18 1.07,-0.51 0.41,-0.41 0.68,-1.1 0.81,-2.07 l 0.28,-2.1 1.69,1.69 0.42,-0.42 z m 2.84,2.84 -2.28,-2.29 -0.38,0.37 -0.38,2.71 c -0.06,0.42 -0.13,0.73 -0.22,0.95 -0.08,0.23 -0.21,0.42 -0.38,0.59 -0.21,0.22 -0.44,0.34 -0.68,0.38 -0.23,0.03 -0.43,-0.03 -0.6,-0.2 -0.21,-0.21 -0.3,-0.44 -0.27,-0.7 0.03,-0.25 0.18,-0.51 0.45,-0.78 l -0.49,-0.5 c -0.38,0.38 -0.58,0.78 -0.61,1.22 -0.02,0.44 0.14,0.83 0.49,1.19 0.33,0.32 0.69,0.48 1.07,0.47 0.39,-0.01 0.75,-0.19 1.08,-0.52 0.4,-0.4 0.67,-1.09 0.8,-2.06 l 0.28,-2.1 1.7,1.69 0.42,-0.42 z"/>
      </g>
    </g>
    <g id="g204">
      <g clip-path="url(#clipPath208)" id="g206">
        <path id="path212" style="fill:#000000;fill-opacity:1;fill-rule:nonzero;stroke:none" d="m 162.64,266.13 c 0.56,-0.56 0.87,-1.11 0.93,-1.65 0.07,-0.53 -0.12,-1.02 -0.56,-1.46 -0.42,-0.42 -0.9,-0.61 -1.44,-0.56 -0.53,0.05 -1.08,0.34 -1.62,0.86 l -0.77,0.77 c -0.55,0.55 -0.85,1.1 -0.92,1.65 -0.07,0.55 0.11,1.04 0.54,1.47 0.43,0.43 0.92,0.62 1.46,0.57 0.53,-0.06 1.08,-0.36 1.64,-0.91 l 0.74,-0.74 z m -1.23,0.2 c -0.43,0.43 -0.82,0.69 -1.18,0.75 -0.35,0.07 -0.67,-0.04 -0.96,-0.33 -0.29,-0.28 -0.39,-0.6 -0.32,-0.96 0.06,-0.36 0.31,-0.75 0.72,-1.17 l 0.73,-0.73 c 0.42,-0.42 0.81,-0.66 1.17,-0.74 0.37,-0.07 0.7,0.04 0.98,0.33 0.29,0.28 0.4,0.6 0.34,0.94 -0.06,0.34 -0.3,0.72 -0.71,1.15 l -0.77,0.76 z m 4.32,0.26 c 0.17,0.16 0.25,0.35 0.25,0.55 -0.01,0.2 -0.1,0.4 -0.28,0.6 l 0.47,0.47 c 0.28,-0.31 0.42,-0.65 0.42,-1.04 -0.01,-0.39 -0.15,-0.72 -0.43,-1 -0.38,-0.38 -0.78,-0.55 -1.22,-0.51 -0.43,0.04 -0.88,0.29 -1.35,0.76 l -0.34,0.34 c -0.45,0.45 -0.7,0.9 -0.75,1.34 -0.04,0.43 0.13,0.84 0.5,1.21 0.32,0.31 0.66,0.46 1.04,0.45 0.38,-0.01 0.74,-0.19 1.1,-0.52 l -0.47,-0.47 c -0.24,0.22 -0.46,0.33 -0.67,0.35 -0.21,0.01 -0.4,-0.06 -0.57,-0.23 -0.22,-0.22 -0.31,-0.46 -0.27,-0.71 0.04,-0.25 0.22,-0.55 0.55,-0.88 l 0.38,-0.39 c 0.36,-0.36 0.67,-0.56 0.92,-0.6 0.26,-0.04 0.5,0.05 0.72,0.28 z m -1.12,5.69 0.73,-0.74 0.46,0.46 0.4,-0.4 -0.46,-0.46 1.89,-1.89 c 0.12,-0.12 0.23,-0.19 0.33,-0.21 0.1,-0.02 0.2,0.01 0.3,0.11 0.06,0.06 0.12,0.14 0.16,0.23 l 0.42,-0.42 c -0.08,-0.15 -0.17,-0.29 -0.29,-0.41 -0.2,-0.19 -0.42,-0.27 -0.66,-0.23 -0.25,0.03 -0.5,0.18 -0.75,0.44 l -1.89,1.88 -0.46,-0.46 -0.4,0.4 0.46,0.47 -0.74,0.73 0.5,0.5 z m 4.2,-0.3 -1.16,-1.16 -0.42,0.43 1.16,1.16 0.42,-0.43 z m 4.23,1.18 -2.28,-2.28 -0.38,0.37 -0.38,2.71 c -0.06,0.41 -0.13,0.73 -0.22,0.95 -0.08,0.22 -0.21,0.42 -0.38,0.59 -0.22,0.21 -0.44,0.34 -0.68,0.37 -0.23,0.04 -0.43,-0.03 -0.6,-0.19 -0.21,-0.21 -0.3,-0.44 -0.27,-0.7 0.03,-0.26 0.18,-0.52 0.45,-0.79 l -0.49,-0.5 c -0.38,0.38 -0.58,0.79 -0.61,1.23 -0.02,0.43 0.14,0.83 0.49,1.18 0.33,0.33 0.69,0.49 1.07,0.47 0.39,-0.01 0.75,-0.18 1.08,-0.51 0.4,-0.41 0.67,-1.09 0.8,-2.07 l 0.28,-2.1 1.7,1.7 0.42,-0.43 z m 0.99,4.48 c 0.61,-0.6 0.97,-1.14 1.09,-1.61 0.12,-0.48 0,-0.9 -0.38,-1.28 -0.36,-0.37 -0.78,-0.5 -1.25,-0.39 -0.46,0.11 -0.99,0.45 -1.57,1.01 l -0.7,0.7 c -0.6,0.6 -0.95,1.14 -1.07,1.61 -0.12,0.47 0.01,0.89 0.38,1.26 0.37,0.37 0.79,0.51 1.24,0.4 0.46,-0.1 0.97,-0.43 1.55,-0.98 l 0.71,-0.72 z m -1.2,0.21 c -0.44,0.44 -0.8,0.71 -1.1,0.82 -0.3,0.11 -0.56,0.06 -0.77,-0.15 -0.2,-0.21 -0.25,-0.46 -0.15,-0.75 0.11,-0.3 0.36,-0.65 0.77,-1.06 l 0.84,-0.85 c 0.43,-0.43 0.8,-0.7 1.12,-0.82 0.31,-0.11 0.57,-0.07 0.78,0.13 0.2,0.21 0.25,0.46 0.14,0.76 -0.11,0.3 -0.37,0.66 -0.79,1.08 l -0.84,0.84 z m 5.96,1.06 -2.28,-2.28 -0.38,0.37 -0.38,2.71 c -0.06,0.41 -0.13,0.73 -0.21,0.95 -0.09,0.22 -0.22,0.42 -0.39,0.59 -0.21,0.22 -0.44,0.34 -0.68,0.38 -0.23,0.03 -0.43,-0.04 -0.6,-0.2 -0.21,-0.21 -0.29,-0.44 -0.26,-0.7 0.03,-0.25 0.18,-0.52 0.45,-0.79 l -0.5,-0.49 c -0.38,0.37 -0.58,0.78 -0.61,1.22 -0.02,0.44 0.14,0.83 0.5,1.19 0.32,0.32 0.68,0.48 1.06,0.47 0.39,-0.02 0.75,-0.19 1.08,-0.52 0.41,-0.4 0.67,-1.09 0.8,-2.07 l 0.29,-2.1 1.69,1.7 0.42,-0.43 z m 2.84,2.84 -2.29,-2.29 -0.37,0.38 -0.38,2.71 c -0.06,0.41 -0.13,0.73 -0.22,0.95 -0.08,0.22 -0.21,0.42 -0.38,0.59 -0.22,0.21 -0.44,0.34 -0.68,0.37 -0.23,0.04 -0.44,-0.03 -0.6,-0.19 -0.21,-0.21 -0.3,-0.44 -0.27,-0.7 0.03,-0.26 0.18,-0.52 0.45,-0.79 l -0.49,-0.5 c -0.38,0.38 -0.58,0.79 -0.61,1.23 -0.02,0.43 0.14,0.83 0.49,1.18 0.33,0.33 0.69,0.49 1.07,0.47 0.39,-0.01 0.75,-0.18 1.08,-0.51 0.4,-0.41 0.67,-1.1 0.8,-2.07 l 0.28,-2.1 1.7,1.69 0.42,-0.42 z"/>
      </g>
    </g>
    <g id="g214">
      <g clip-path="url(#clipPath218)" id="g216">
        <path id="path222" style="fill:#000000;fill-opacity:1;fill-rule:nonzero;stroke:none" d="m 182.92,260.96 -4.09,4.09 0.97,0.98 c 0.48,0.48 1,0.7 1.56,0.66 0.57,-0.03 1.12,-0.32 1.66,-0.86 l 0.68,-0.69 c 0.55,-0.54 0.83,-1.09 0.86,-1.65 0.02,-0.56 -0.22,-1.1 -0.73,-1.61 l -0.91,-0.92 z m -3.14,4.17 3.21,-3.21 0.41,0.41 c 0.37,0.36 0.53,0.73 0.49,1.1 -0.04,0.38 -0.27,0.77 -0.67,1.18 l -0.72,0.73 c -0.44,0.43 -0.83,0.66 -1.2,0.7 -0.37,0.03 -0.72,-0.12 -1.05,-0.45 l -0.47,-0.46 z m 7.51,0.09 c -0.38,-0.38 -0.78,-0.55 -1.21,-0.53 -0.43,0.02 -0.86,0.25 -1.3,0.68 l -0.37,0.37 c -0.45,0.45 -0.71,0.91 -0.77,1.36 -0.06,0.46 0.09,0.86 0.44,1.22 0.36,0.35 0.74,0.51 1.14,0.45 0.4,-0.05 0.84,-0.31 1.33,-0.78 l 0.32,-0.33 -1.69,-1.7 0.07,-0.07 c 0.32,-0.32 0.62,-0.5 0.89,-0.52 0.27,-0.03 0.52,0.07 0.75,0.3 0.15,0.15 0.25,0.31 0.31,0.47 0.05,0.17 0.07,0.36 0.05,0.58 l 0.57,-0.06 c 0.09,-0.52 -0.09,-1 -0.53,-1.44 z m -2.78,2.67 c -0.21,-0.21 -0.29,-0.43 -0.25,-0.67 0.04,-0.24 0.21,-0.52 0.49,-0.83 l 1.2,1.2 -0.07,0.07 c -0.3,0.27 -0.56,0.43 -0.77,0.46 -0.22,0.03 -0.42,-0.04 -0.6,-0.23 z m 5.01,0.41 c 0.16,0.16 0.24,0.35 0.24,0.55 0,0.2 -0.09,0.4 -0.27,0.6 l 0.47,0.47 c 0.28,-0.31 0.42,-0.65 0.41,-1.04 0,-0.39 -0.15,-0.72 -0.43,-1 -0.37,-0.38 -0.78,-0.55 -1.21,-0.51 -0.44,0.04 -0.89,0.29 -1.36,0.76 l -0.33,0.34 c -0.46,0.45 -0.71,0.9 -0.75,1.34 -0.05,0.43 0.12,0.84 0.5,1.21 0.31,0.31 0.65,0.46 1.03,0.45 0.38,-0.02 0.75,-0.19 1.1,-0.52 l -0.47,-0.47 c -0.24,0.22 -0.46,0.33 -0.67,0.35 -0.21,0.01 -0.39,-0.06 -0.57,-0.23 -0.22,-0.22 -0.31,-0.46 -0.27,-0.71 0.04,-0.25 0.22,-0.55 0.55,-0.88 l 0.39,-0.39 c 0.36,-0.36 0.66,-0.56 0.91,-0.6 0.26,-0.04 0.5,0.05 0.73,0.28 z m 1.39,3.71 -1.16,-1.16 -0.42,0.42 1.16,1.16 0.42,-0.42 z m 4.23,1.17 -2.29,-2.28 -0.37,0.37 -0.38,2.71 c -0.06,0.41 -0.14,0.73 -0.22,0.95 -0.08,0.22 -0.21,0.42 -0.38,0.59 -0.22,0.22 -0.45,0.34 -0.68,0.38 -0.24,0.03 -0.44,-0.04 -0.6,-0.2 -0.21,-0.21 -0.3,-0.44 -0.27,-0.7 0.03,-0.25 0.18,-0.52 0.45,-0.79 l -0.5,-0.49 c -0.37,0.37 -0.57,0.78 -0.6,1.22 -0.03,0.44 0.14,0.83 0.49,1.19 0.33,0.32 0.68,0.48 1.07,0.47 0.39,-0.02 0.74,-0.19 1.08,-0.52 0.4,-0.4 0.67,-1.09 0.8,-2.07 l 0.28,-2.1 1.69,1.7 0.43,-0.43 z m 0.99,4.48 c 0.6,-0.6 0.97,-1.14 1.09,-1.61 0.12,-0.48 -0.01,-0.9 -0.38,-1.28 -0.37,-0.36 -0.78,-0.49 -1.25,-0.39 -0.47,0.11 -0.99,0.45 -1.57,1.01 l -0.7,0.71 c -0.6,0.59 -0.96,1.13 -1.08,1.6 -0.11,0.47 0.02,0.89 0.39,1.27 0.37,0.37 0.78,0.5 1.24,0.4 0.45,-0.11 0.97,-0.43 1.54,-0.99 l 0.72,-0.72 z m -1.21,0.22 c -0.43,0.43 -0.8,0.7 -1.1,0.81 -0.3,0.11 -0.55,0.06 -0.76,-0.15 -0.21,-0.2 -0.26,-0.45 -0.15,-0.75 0.11,-0.3 0.36,-0.65 0.76,-1.06 l 0.85,-0.84 c 0.43,-0.43 0.8,-0.71 1.11,-0.83 0.32,-0.11 0.58,-0.07 0.78,0.14 0.21,0.2 0.25,0.45 0.14,0.75 -0.1,0.3 -0.37,0.66 -0.78,1.08 l -0.85,0.85 z m 5.89,0.98 -2.28,-2.29 -0.38,0.38 -0.38,2.71 c -0.06,0.41 -0.13,0.73 -0.22,0.95 -0.08,0.22 -0.21,0.41 -0.38,0.58 -0.21,0.22 -0.44,0.35 -0.68,0.38 -0.23,0.03 -0.43,-0.03 -0.6,-0.2 -0.21,-0.2 -0.29,-0.44 -0.26,-0.69 0.03,-0.26 0.18,-0.52 0.44,-0.79 l -0.49,-0.5 c -0.38,0.38 -0.58,0.79 -0.61,1.22 -0.02,0.44 0.14,0.84 0.5,1.19 0.32,0.33 0.68,0.48 1.06,0.47 0.39,-0.01 0.75,-0.18 1.08,-0.51 0.41,-0.41 0.67,-1.1 0.8,-2.07 l 0.28,-2.1 1.7,1.69 0.42,-0.42 z m 2.84,2.84 -2.29,-2.29 -0.37,0.37 -0.38,2.71 c -0.06,0.42 -0.13,0.73 -0.22,0.96 -0.08,0.22 -0.21,0.41 -0.38,0.58 -0.22,0.22 -0.44,0.34 -0.68,0.38 -0.24,0.03 -0.44,-0.03 -0.6,-0.2 -0.21,-0.21 -0.3,-0.44 -0.27,-0.69 0.03,-0.26 0.18,-0.52 0.45,-0.79 l -0.5,-0.5 c -0.37,0.38 -0.57,0.78 -0.6,1.22 -0.03,0.44 0.14,0.83 0.49,1.19 0.33,0.32 0.68,0.48 1.07,0.47 0.39,-0.01 0.75,-0.19 1.08,-0.52 0.4,-0.4 0.67,-1.09 0.8,-2.06 l 0.28,-2.1 1.7,1.69 0.42,-0.42 z"/>
      </g>
    </g>
    <g id="g224">
      <g clip-path="url(#clipPath228)" id="g226">
        <path id="path232" style="fill:#000000;fill-opacity:1;fill-rule:nonzero;stroke:none" d="m 205.42,265 -1.38,-1.38 1.8,-1.81 -0.51,-0.51 -4.09,4.09 2.13,2.13 0.44,-0.44 -1.62,-1.62 1.41,-1.4 1.38,1.38 0.44,-0.44 z m 3.74,0.02 c -0.38,-0.38 -0.78,-0.55 -1.21,-0.53 -0.43,0.02 -0.86,0.25 -1.3,0.68 l -0.37,0.37 c -0.45,0.45 -0.71,0.91 -0.77,1.36 -0.06,0.46 0.09,0.86 0.44,1.22 0.36,0.35 0.74,0.5 1.14,0.45 0.4,-0.05 0.85,-0.31 1.33,-0.79 l 0.33,-0.32 -1.7,-1.7 0.07,-0.07 c 0.33,-0.32 0.62,-0.5 0.89,-0.52 0.27,-0.03 0.52,0.07 0.76,0.3 0.14,0.15 0.24,0.31 0.3,0.47 0.05,0.17 0.07,0.36 0.05,0.58 l 0.57,-0.06 c 0.09,-0.52 -0.09,-1 -0.53,-1.44 z m -2.78,2.67 c -0.2,-0.21 -0.29,-0.43 -0.24,-0.67 0.04,-0.24 0.2,-0.52 0.49,-0.83 l 1.19,1.2 -0.07,0.07 c -0.3,0.27 -0.56,0.43 -0.77,0.46 -0.21,0.03 -0.41,-0.05 -0.6,-0.23 z m 5.15,2.56 c 0.47,-0.47 0.75,-0.92 0.82,-1.33 0.06,-0.41 -0.06,-0.77 -0.39,-1.1 -0.32,-0.32 -0.7,-0.42 -1.14,-0.31 l 0.34,-0.38 -0.45,-0.45 -4.32,4.31 0.5,0.49 1.6,-1.6 c -0.09,0.42 0.01,0.78 0.32,1.09 0.33,0.33 0.7,0.46 1.1,0.39 0.4,-0.07 0.84,-0.34 1.32,-0.81 l 0.3,-0.3 z m -0.78,-0.21 c -0.36,0.36 -0.66,0.56 -0.92,0.62 -0.25,0.05 -0.49,-0.04 -0.71,-0.26 -0.26,-0.26 -0.31,-0.59 -0.16,-0.99 l 1.45,-1.44 c 0.39,-0.15 0.72,-0.1 0.98,0.16 0.23,0.23 0.31,0.47 0.25,0.72 -0.06,0.26 -0.25,0.55 -0.58,0.88 l -0.31,0.31 z m 2.19,1.92 -1.16,-1.16 -0.43,0.42 1.16,1.16 0.43,-0.42 z m 4.3,1.25 -2.29,-2.28 -0.37,0.37 -0.38,2.71 c -0.06,0.41 -0.13,0.73 -0.22,0.95 -0.08,0.22 -0.21,0.42 -0.38,0.59 -0.22,0.22 -0.44,0.34 -0.68,0.38 -0.23,0.03 -0.44,-0.04 -0.6,-0.2 -0.21,-0.21 -0.3,-0.44 -0.27,-0.7 0.03,-0.25 0.18,-0.52 0.45,-0.79 l -0.49,-0.49 c -0.38,0.37 -0.58,0.78 -0.61,1.22 -0.02,0.44 0.14,0.83 0.49,1.19 0.33,0.32 0.69,0.48 1.07,0.47 0.39,-0.02 0.75,-0.19 1.08,-0.52 0.4,-0.4 0.67,-1.09 0.8,-2.07 l 0.28,-2.1 1.7,1.7 0.42,-0.43 z m 0.99,4.48 c 0.61,-0.6 0.97,-1.14 1.09,-1.61 0.12,-0.48 0,-0.9 -0.38,-1.28 -0.36,-0.36 -0.78,-0.49 -1.25,-0.39 -0.46,0.11 -0.99,0.45 -1.57,1.01 l -0.7,0.71 c -0.6,0.59 -0.96,1.13 -1.07,1.6 -0.12,0.47 0.01,0.89 0.38,1.27 0.37,0.36 0.78,0.5 1.24,0.4 0.46,-0.11 0.97,-0.44 1.55,-0.99 l 0.71,-0.72 z m -1.2,0.22 c -0.44,0.43 -0.8,0.7 -1.1,0.81 -0.3,0.11 -0.56,0.06 -0.77,-0.15 -0.2,-0.21 -0.25,-0.46 -0.15,-0.75 0.11,-0.3 0.36,-0.65 0.77,-1.06 l 0.84,-0.85 c 0.43,-0.43 0.8,-0.7 1.12,-0.82 0.31,-0.11 0.57,-0.07 0.78,0.13 0.2,0.21 0.25,0.46 0.14,0.76 -0.11,0.3 -0.37,0.66 -0.79,1.08 l -0.84,0.85 z m 5.88,0.98 -2.28,-2.29 -0.37,0.37 -0.38,2.71 c -0.07,0.42 -0.14,0.74 -0.22,0.96 -0.09,0.22 -0.21,0.41 -0.38,0.58 -0.22,0.22 -0.45,0.35 -0.68,0.38 -0.24,0.03 -0.44,-0.03 -0.61,-0.2 -0.2,-0.2 -0.29,-0.44 -0.26,-0.69 0.03,-0.26 0.18,-0.52 0.45,-0.79 l -0.5,-0.5 c -0.38,0.38 -0.58,0.78 -0.6,1.22 -0.03,0.44 0.13,0.84 0.49,1.19 0.32,0.33 0.68,0.48 1.07,0.47 0.38,-0.01 0.74,-0.18 1.07,-0.51 0.41,-0.41 0.68,-1.1 0.81,-2.07 l 0.28,-2.1 1.69,1.69 0.42,-0.42 z m -1.11,3.48 0.32,0.32 c 0.21,0.2 0.3,0.42 0.28,0.66 -0.01,0.23 -0.13,0.46 -0.34,0.68 -0.48,0.48 -0.91,0.53 -1.28,0.16 -0.18,-0.18 -0.25,-0.38 -0.22,-0.61 0.03,-0.23 0.14,-0.45 0.35,-0.66 l -0.49,-0.5 c -0.33,0.33 -0.5,0.7 -0.51,1.11 -0.01,0.41 0.13,0.78 0.44,1.09 0.33,0.32 0.68,0.47 1.07,0.46 0.39,-0.01 0.77,-0.2 1.14,-0.57 0.19,-0.19 0.32,-0.41 0.38,-0.68 0.07,-0.26 0.06,-0.51 -0.02,-0.74 0.53,0.24 1.04,0.12 1.54,-0.38 0.36,-0.37 0.55,-0.76 0.56,-1.18 0.02,-0.42 -0.14,-0.79 -0.47,-1.12 -0.32,-0.32 -0.68,-0.48 -1.09,-0.47 -0.4,0 -0.78,0.18 -1.13,0.52 l 0.5,0.5 c 0.22,-0.22 0.44,-0.34 0.68,-0.36 0.23,-0.02 0.44,0.06 0.62,0.24 0.18,0.18 0.27,0.39 0.25,0.63 -0.01,0.23 -0.15,0.48 -0.41,0.73 -0.49,0.5 -0.97,0.51 -1.44,0.04 l -0.3,-0.29 -0.43,0.42 z"/>
      </g>
    </g>
    <g id="g234">
      <g clip-path="url(#clipPath238)" id="g236">
        <path id="path242" style="fill:#000000;fill-opacity:1;fill-rule:nonzero;stroke:none" d="m 228.63,264.67 -1.38,-1.38 0.75,-1.39 -0.53,-0.53 -2.77,5.41 0.44,0.44 5.41,-2.77 -0.53,-0.53 -1.39,0.75 z m -1.69,-0.81 1.12,1.12 -2.42,1.3 1.3,-2.42 z m 4.9,4.63 c 0.49,-0.48 0.76,-0.93 0.82,-1.34 0.06,-0.4 -0.06,-0.77 -0.38,-1.08 -0.31,-0.31 -0.66,-0.43 -1.05,-0.36 l 1.46,-1.46 -0.5,-0.5 -4.2,4.21 0.45,0.45 0.36,-0.31 c -0.1,0.43 0.01,0.8 0.32,1.11 0.33,0.33 0.7,0.46 1.1,0.4 0.39,-0.07 0.83,-0.33 1.29,-0.79 l 0.33,-0.33 z m -0.77,-0.21 c -0.34,0.34 -0.65,0.54 -0.91,0.6 -0.27,0.05 -0.52,-0.03 -0.75,-0.27 -0.24,-0.23 -0.3,-0.53 -0.19,-0.9 l 1.58,-1.58 c 0.36,-0.11 0.66,-0.04 0.9,0.2 0.22,0.23 0.31,0.47 0.25,0.74 -0.05,0.27 -0.25,0.57 -0.58,0.91 l -0.3,0.3 z m 1.47,3.31 c -0.08,-0.06 -0.16,-0.13 -0.24,-0.21 -0.26,-0.25 -0.3,-0.57 -0.12,-0.95 l 2.18,-2.18 -0.5,-0.49 -3.04,3.04 0.48,0.48 0.32,-0.3 c -0.11,0.37 -0.04,0.68 0.2,0.93 0.08,0.08 0.16,0.13 0.24,0.16 l 0.48,-0.48 z m 2.48,0.38 -1.16,-1.16 -0.42,0.42 1.16,1.16 0.42,-0.42 z m 4.3,1.25 -2.28,-2.28 -0.38,0.37 -0.37,2.71 c -0.07,0.41 -0.14,0.73 -0.22,0.95 -0.09,0.22 -0.22,0.42 -0.39,0.59 -0.21,0.22 -0.44,0.34 -0.68,0.37 -0.23,0.04 -0.43,-0.03 -0.6,-0.19 -0.2,-0.21 -0.29,-0.44 -0.26,-0.7 0.03,-0.25 0.18,-0.52 0.45,-0.79 l -0.5,-0.49 c -0.38,0.37 -0.58,0.78 -0.6,1.22 -0.03,0.44 0.13,0.83 0.49,1.19 0.32,0.32 0.68,0.48 1.07,0.47 0.38,-0.02 0.74,-0.19 1.07,-0.52 0.41,-0.4 0.67,-1.09 0.81,-2.07 l 0.28,-2.1 1.69,1.7 0.42,-0.43 z m 1,4.48 c 0.6,-0.6 0.96,-1.14 1.08,-1.61 0.13,-0.48 0,-0.9 -0.38,-1.28 -0.36,-0.37 -0.78,-0.49 -1.24,-0.39 -0.47,0.11 -0.99,0.45 -1.58,1.01 l -0.7,0.71 c -0.6,0.59 -0.95,1.13 -1.07,1.6 -0.12,0.47 0.01,0.89 0.39,1.27 0.37,0.36 0.78,0.5 1.23,0.4 0.46,-0.11 0.98,-0.44 1.55,-0.99 l 0.72,-0.72 z m -1.21,0.22 c -0.43,0.43 -0.8,0.7 -1.1,0.81 -0.3,0.11 -0.56,0.06 -0.77,-0.15 -0.2,-0.21 -0.25,-0.46 -0.14,-0.75 0.1,-0.3 0.36,-0.65 0.76,-1.06 l 0.84,-0.85 c 0.43,-0.43 0.8,-0.7 1.12,-0.82 0.32,-0.11 0.58,-0.07 0.78,0.13 0.2,0.21 0.25,0.46 0.14,0.76 -0.11,0.3 -0.37,0.66 -0.79,1.08 l -0.84,0.85 z m 5.89,0.98 -2.29,-2.29 -0.37,0.37 -0.38,2.71 c -0.06,0.42 -0.14,0.74 -0.22,0.96 -0.08,0.22 -0.21,0.41 -0.38,0.58 -0.22,0.22 -0.44,0.35 -0.68,0.38 -0.24,0.03 -0.44,-0.03 -0.6,-0.2 -0.21,-0.21 -0.3,-0.44 -0.27,-0.69 0.03,-0.26 0.18,-0.52 0.45,-0.79 l -0.5,-0.5 c -0.37,0.38 -0.57,0.78 -0.6,1.22 -0.03,0.44 0.14,0.84 0.49,1.19 0.33,0.33 0.68,0.48 1.07,0.47 0.39,-0.01 0.75,-0.18 1.08,-0.52 0.4,-0.4 0.67,-1.09 0.8,-2.06 l 0.28,-2.1 1.69,1.69 0.43,-0.42 z m -1.11,3.48 0.31,0.32 c 0.21,0.2 0.3,0.42 0.29,0.66 -0.02,0.23 -0.13,0.46 -0.35,0.68 -0.48,0.48 -0.9,0.53 -1.28,0.16 -0.17,-0.18 -0.25,-0.38 -0.22,-0.61 0.03,-0.23 0.15,-0.45 0.36,-0.66 l -0.5,-0.5 c -0.32,0.33 -0.5,0.7 -0.51,1.11 -0.01,0.41 0.14,0.78 0.45,1.09 0.32,0.32 0.68,0.47 1.07,0.46 0.39,-0.01 0.77,-0.2 1.14,-0.57 0.18,-0.19 0.31,-0.42 0.38,-0.68 0.06,-0.26 0.06,-0.51 -0.03,-0.74 0.53,0.24 1.04,0.12 1.54,-0.38 0.37,-0.37 0.56,-0.76 0.57,-1.18 0.01,-0.42 -0.15,-0.79 -0.47,-1.12 -0.33,-0.32 -0.69,-0.48 -1.1,-0.47 -0.4,0 -0.78,0.18 -1.12,0.52 l 0.49,0.5 c 0.22,-0.22 0.45,-0.34 0.68,-0.36 0.23,-0.02 0.44,0.05 0.62,0.24 0.19,0.18 0.27,0.39 0.26,0.63 -0.02,0.23 -0.16,0.48 -0.41,0.73 -0.5,0.5 -0.98,0.51 -1.45,0.04 l -0.3,-0.29 -0.42,0.42 z"/>
      </g>
    </g>
    <g id="g244">
      <g clip-path="url(#clipPath248)" id="g246">
        <path id="path252" style="fill:#000000;fill-opacity:1;fill-rule:nonzero;stroke:none" d="m 246.75,266.75 0.52,0.52 2.89,-2.9 c 0.39,-0.39 0.6,-0.8 0.62,-1.22 0.02,-0.42 -0.14,-0.79 -0.47,-1.13 -0.35,-0.35 -0.72,-0.51 -1.13,-0.5 -0.4,0.02 -0.79,0.22 -1.16,0.59 l 0.52,0.51 c 0.23,-0.23 0.47,-0.37 0.7,-0.39 0.23,-0.03 0.44,0.05 0.63,0.23 0.17,0.18 0.24,0.39 0.21,0.64 -0.04,0.25 -0.18,0.5 -0.44,0.76 l -2.89,2.89 z m 6.65,-0.99 c 0.05,-0.38 -0.08,-0.73 -0.4,-1.05 -0.27,-0.27 -0.58,-0.38 -0.91,-0.33 -0.33,0.05 -0.67,0.25 -1.04,0.61 l -1.98,1.98 0.5,0.5 1.94,-1.95 c 0.47,-0.47 0.85,-0.56 1.14,-0.28 0.3,0.3 0.37,0.64 0.21,1.03 l -2.24,2.25 0.49,0.49 3.04,-3.03 -0.47,-0.48 -0.28,0.26 z m -1.01,4.53 0.34,-0.32 c -0.07,0.45 0.05,0.83 0.35,1.13 0.54,0.53 1.17,0.45 1.89,-0.26 l 2.02,-2.02 -0.49,-0.5 -2,2 c -0.23,0.24 -0.44,0.37 -0.62,0.39 -0.18,0.02 -0.35,-0.05 -0.51,-0.21 -0.13,-0.12 -0.19,-0.27 -0.21,-0.46 -0.02,-0.18 0.01,-0.36 0.08,-0.56 l 2.21,-2.2 -0.49,-0.5 -3.04,3.04 0.47,0.47 z m 4.72,1.7 -1.16,-1.16 -0.42,0.42 1.16,1.16 0.42,-0.42 z m 4.23,1.17 -2.29,-2.28 -0.37,0.37 -0.38,2.71 c -0.06,0.42 -0.13,0.73 -0.22,0.95 -0.08,0.22 -0.21,0.42 -0.38,0.59 -0.22,0.22 -0.44,0.34 -0.68,0.38 -0.24,0.03 -0.44,-0.03 -0.6,-0.2 -0.21,-0.21 -0.3,-0.44 -0.27,-0.7 0.03,-0.25 0.18,-0.52 0.45,-0.78 l -0.49,-0.5 c -0.38,0.37 -0.58,0.78 -0.61,1.22 -0.02,0.44 0.14,0.83 0.49,1.19 0.33,0.32 0.68,0.48 1.07,0.47 0.39,-0.01 0.75,-0.19 1.08,-0.52 0.4,-0.4 0.67,-1.09 0.8,-2.06 l 0.28,-2.1 1.7,1.69 0.42,-0.43 z m 0.99,4.48 c 0.61,-0.6 0.97,-1.14 1.09,-1.61 0.12,-0.48 0,-0.9 -0.38,-1.28 -0.37,-0.36 -0.78,-0.49 -1.25,-0.39 -0.46,0.11 -0.99,0.45 -1.57,1.02 l -0.7,0.7 c -0.6,0.59 -0.96,1.13 -1.07,1.6 -0.12,0.47 0.01,0.89 0.38,1.27 0.37,0.37 0.78,0.5 1.24,0.4 0.46,-0.1 0.97,-0.43 1.55,-0.99 l 0.71,-0.72 z m -1.21,0.22 c -0.43,0.43 -0.79,0.7 -1.09,0.81 -0.31,0.11 -0.56,0.06 -0.77,-0.15 -0.2,-0.2 -0.25,-0.45 -0.15,-0.75 0.11,-0.3 0.36,-0.65 0.76,-1.06 l 0.85,-0.84 c 0.43,-0.43 0.8,-0.71 1.12,-0.82 0.31,-0.12 0.57,-0.08 0.78,0.13 0.2,0.2 0.24,0.45 0.14,0.75 -0.11,0.3 -0.37,0.66 -0.79,1.08 l -0.85,0.85 z m 5.89,0.98 -2.28,-2.29 -0.37,0.38 -0.38,2.71 c -0.07,0.41 -0.14,0.73 -0.22,0.95 -0.09,0.22 -0.21,0.42 -0.38,0.59 -0.22,0.21 -0.45,0.34 -0.68,0.37 -0.24,0.04 -0.44,-0.03 -0.61,-0.19 -0.2,-0.21 -0.29,-0.44 -0.26,-0.7 0.03,-0.26 0.18,-0.52 0.45,-0.79 l -0.5,-0.5 c -0.38,0.38 -0.58,0.79 -0.6,1.22 -0.03,0.44 0.13,0.84 0.49,1.19 0.32,0.33 0.68,0.48 1.07,0.47 0.38,-0.01 0.74,-0.18 1.07,-0.51 0.41,-0.41 0.68,-1.1 0.81,-2.07 l 0.28,-2.1 1.69,1.69 0.42,-0.42 z m -1.03,3.56 0.32,0.32 c 0.2,0.2 0.3,0.42 0.28,0.66 -0.01,0.23 -0.13,0.46 -0.35,0.68 -0.48,0.48 -0.9,0.53 -1.27,0.16 -0.18,-0.18 -0.25,-0.38 -0.23,-0.61 0.03,-0.23 0.15,-0.45 0.36,-0.66 l -0.49,-0.5 c -0.33,0.33 -0.5,0.7 -0.52,1.11 -0.01,0.41 0.14,0.77 0.45,1.09 0.32,0.32 0.68,0.47 1.07,0.46 0.39,-0.01 0.77,-0.2 1.14,-0.57 0.19,-0.19 0.31,-0.42 0.38,-0.68 0.07,-0.26 0.06,-0.51 -0.02,-0.74 0.53,0.24 1.04,0.11 1.53,-0.38 0.37,-0.37 0.56,-0.76 0.57,-1.18 0.01,-0.42 -0.14,-0.79 -0.47,-1.12 -0.32,-0.32 -0.69,-0.48 -1.09,-0.48 -0.41,0.01 -0.78,0.19 -1.13,0.53 l 0.5,0.5 c 0.22,-0.22 0.44,-0.34 0.67,-0.36 0.24,-0.03 0.44,0.05 0.63,0.24 0.18,0.18 0.27,0.39 0.25,0.63 -0.02,0.23 -0.15,0.48 -0.41,0.73 -0.5,0.5 -0.98,0.51 -1.45,0.04 l -0.3,-0.3 -0.42,0.43 z"/>
      </g>
    </g>
    <g id="g254">
      <g clip-path="url(#clipPath258)" id="g256">
        <path id="path262" style="fill:#000000;fill-opacity:1;fill-rule:nonzero;stroke:none" d="m 271.75,263.64 -1.38,-1.38 0.75,-1.38 -0.52,-0.53 -2.78,5.4 0.45,0.44 5.4,-2.76 -0.52,-0.53 -1.4,0.74 z m -1.68,-0.8 1.11,1.11 -2.42,1.3 1.31,-2.41 z m 5.36,2.87 c 0.05,-0.38 -0.09,-0.73 -0.4,-1.04 -0.28,-0.28 -0.58,-0.39 -0.91,-0.34 -0.33,0.05 -0.68,0.25 -1.04,0.61 l -1.98,1.98 0.49,0.5 1.94,-1.94 c 0.48,-0.48 0.86,-0.57 1.14,-0.29 0.3,0.3 0.38,0.65 0.22,1.03 l -2.25,2.25 0.5,0.5 3.04,-3.04 -0.47,-0.47 -0.28,0.25 z m -0.28,2.5 c -0.47,0.48 -0.75,0.92 -0.82,1.34 -0.07,0.41 0.06,0.78 0.4,1.12 0.3,0.3 0.67,0.41 1.1,0.3 l -0.32,0.37 0.45,0.45 3.07,-3.07 c 0.37,-0.37 0.57,-0.76 0.57,-1.15 0.01,-0.4 -0.16,-0.77 -0.5,-1.11 -0.15,-0.15 -0.35,-0.28 -0.61,-0.39 -0.26,-0.12 -0.5,-0.17 -0.7,-0.15 l -0.14,0.54 c 0.41,0.01 0.74,0.13 0.99,0.38 0.41,0.42 0.4,0.86 -0.04,1.32 l -0.4,0.39 c 0.08,-0.4 -0.03,-0.74 -0.33,-1.04 -0.31,-0.31 -0.67,-0.44 -1.09,-0.38 -0.41,0.06 -0.84,0.31 -1.29,0.75 l -0.34,0.33 z m 0.78,0.22 c 0.34,-0.34 0.64,-0.54 0.9,-0.6 0.26,-0.06 0.5,0.02 0.73,0.25 0.25,0.25 0.31,0.56 0.18,0.94 l -1.52,1.51 c -0.38,0.12 -0.68,0.06 -0.92,-0.17 -0.23,-0.23 -0.32,-0.48 -0.26,-0.74 0.06,-0.26 0.26,-0.56 0.59,-0.89 l 0.3,-0.3 z m 3.21,3.51 -1.16,-1.16 -0.43,0.42 1.16,1.16 0.43,-0.42 z m 4.3,1.25 -2.28,-2.28 -0.38,0.37 -0.38,2.71 c -0.06,0.41 -0.13,0.73 -0.22,0.95 -0.08,0.22 -0.21,0.42 -0.38,0.59 -0.21,0.22 -0.44,0.34 -0.68,0.38 -0.23,0.03 -0.43,-0.04 -0.6,-0.2 -0.21,-0.21 -0.29,-0.44 -0.26,-0.7 0.03,-0.25 0.18,-0.52 0.44,-0.79 l -0.49,-0.49 c -0.38,0.37 -0.58,0.78 -0.61,1.22 -0.02,0.44 0.14,0.83 0.5,1.19 0.32,0.32 0.68,0.48 1.06,0.47 0.39,-0.02 0.75,-0.19 1.08,-0.52 0.41,-0.4 0.67,-1.09 0.8,-2.07 l 0.29,-2.1 1.69,1.7 0.42,-0.43 z m 0.99,4.48 c 0.61,-0.6 0.97,-1.14 1.09,-1.61 0.13,-0.48 0,-0.9 -0.38,-1.28 -0.36,-0.36 -0.78,-0.49 -1.24,-0.39 -0.47,0.11 -0.99,0.45 -1.58,1.01 l -0.7,0.71 c -0.6,0.59 -0.95,1.13 -1.07,1.6 -0.12,0.47 0.01,0.89 0.39,1.27 0.36,0.37 0.78,0.5 1.23,0.4 0.46,-0.11 0.97,-0.43 1.55,-0.99 l 0.71,-0.72 z m -1.2,0.22 c -0.44,0.43 -0.8,0.7 -1.1,0.81 -0.3,0.11 -0.56,0.06 -0.77,-0.15 -0.2,-0.2 -0.25,-0.45 -0.14,-0.75 0.1,-0.3 0.36,-0.65 0.76,-1.06 l 0.84,-0.84 c 0.43,-0.43 0.8,-0.71 1.12,-0.83 0.31,-0.11 0.57,-0.07 0.78,0.13 0.2,0.21 0.25,0.46 0.14,0.76 -0.11,0.3 -0.37,0.66 -0.79,1.08 l -0.84,0.85 z m 5.89,0.98 -2.29,-2.29 -0.37,0.38 -0.38,2.71 c -0.06,0.41 -0.14,0.73 -0.22,0.95 -0.08,0.22 -0.21,0.41 -0.38,0.58 -0.22,0.22 -0.45,0.35 -0.68,0.38 -0.24,0.03 -0.44,-0.03 -0.6,-0.2 -0.21,-0.2 -0.3,-0.44 -0.27,-0.69 0.03,-0.26 0.18,-0.52 0.45,-0.79 l -0.5,-0.5 c -0.37,0.38 -0.58,0.79 -0.6,1.22 -0.03,0.44 0.14,0.84 0.49,1.19 0.33,0.33 0.68,0.48 1.07,0.47 0.39,-0.01 0.74,-0.18 1.08,-0.51 0.4,-0.41 0.67,-1.1 0.8,-2.07 l 0.28,-2.1 1.69,1.69 0.43,-0.42 z m -1.11,3.48 0.31,0.32 c 0.21,0.2 0.3,0.42 0.29,0.66 -0.02,0.23 -0.13,0.46 -0.35,0.68 -0.48,0.48 -0.91,0.53 -1.28,0.16 -0.17,-0.18 -0.25,-0.38 -0.22,-0.61 0.03,-0.23 0.15,-0.45 0.36,-0.66 l -0.5,-0.5 c -0.33,0.33 -0.5,0.7 -0.51,1.11 -0.01,0.42 0.14,0.78 0.45,1.09 0.32,0.32 0.68,0.47 1.07,0.46 0.39,-0.01 0.77,-0.2 1.13,-0.57 0.19,-0.19 0.32,-0.41 0.39,-0.68 0.06,-0.26 0.05,-0.51 -0.03,-0.74 0.53,0.24 1.04,0.12 1.54,-0.38 0.36,-0.36 0.55,-0.76 0.57,-1.18 0.01,-0.42 -0.15,-0.79 -0.47,-1.12 -0.33,-0.32 -0.69,-0.48 -1.1,-0.47 -0.4,0 -0.78,0.18 -1.12,0.52 l 0.49,0.5 c 0.22,-0.22 0.45,-0.34 0.68,-0.36 0.23,-0.02 0.44,0.06 0.62,0.24 0.19,0.18 0.27,0.39 0.26,0.63 -0.02,0.23 -0.16,0.48 -0.41,0.74 -0.5,0.49 -0.98,0.5 -1.45,0.03 l -0.3,-0.29 -0.42,0.42 z"/>
      </g>
    </g>
    <g id="g264">
      <g clip-path="url(#clipPath268)" id="g266">
        <path id="path272" style="fill:#000000;fill-opacity:1;fill-rule:nonzero;stroke:none" d="m 295.08,266.13 c 0.56,-0.56 0.87,-1.11 0.94,-1.65 0.06,-0.53 -0.13,-1.02 -0.57,-1.46 -0.42,-0.42 -0.9,-0.61 -1.43,-0.56 -0.54,0.05 -1.08,0.34 -1.63,0.86 l -0.77,0.77 c -0.54,0.55 -0.85,1.1 -0.92,1.65 -0.07,0.55 0.11,1.04 0.55,1.47 0.43,0.43 0.91,0.62 1.45,0.57 0.54,-0.06 1.08,-0.36 1.64,-0.91 l 0.74,-0.74 z m -1.23,0.2 c -0.43,0.43 -0.82,0.69 -1.17,0.75 -0.36,0.07 -0.68,-0.04 -0.97,-0.33 -0.28,-0.28 -0.39,-0.6 -0.32,-0.96 0.07,-0.36 0.31,-0.75 0.72,-1.17 l 0.73,-0.73 c 0.42,-0.42 0.81,-0.66 1.18,-0.74 0.36,-0.07 0.69,0.04 0.98,0.33 0.28,0.28 0.4,0.6 0.33,0.94 -0.06,0.34 -0.3,0.72 -0.71,1.15 l -0.77,0.76 z m 4.33,0.26 c 0.16,0.16 0.24,0.35 0.24,0.55 0,0.2 -0.09,0.4 -0.27,0.6 l 0.47,0.47 c 0.28,-0.31 0.41,-0.65 0.41,-1.04 0,-0.39 -0.15,-0.72 -0.43,-1 -0.38,-0.38 -0.78,-0.55 -1.21,-0.51 -0.44,0.04 -0.89,0.29 -1.36,0.76 l -0.33,0.34 c -0.46,0.45 -0.71,0.9 -0.75,1.34 -0.05,0.43 0.12,0.84 0.5,1.21 0.31,0.31 0.65,0.46 1.03,0.45 0.38,-0.01 0.75,-0.19 1.1,-0.52 l -0.47,-0.47 c -0.24,0.22 -0.46,0.33 -0.67,0.35 -0.21,0.01 -0.4,-0.06 -0.57,-0.23 -0.22,-0.22 -0.31,-0.46 -0.27,-0.71 0.04,-0.25 0.22,-0.55 0.55,-0.88 l 0.39,-0.39 c 0.35,-0.36 0.66,-0.56 0.91,-0.6 0.26,-0.04 0.5,0.05 0.73,0.28 z m -1.13,5.69 0.74,-0.74 0.45,0.46 0.41,-0.4 -0.46,-0.46 1.88,-1.89 c 0.12,-0.12 0.23,-0.19 0.34,-0.21 0.1,-0.02 0.2,0.01 0.29,0.11 0.07,0.06 0.12,0.14 0.17,0.23 l 0.41,-0.42 c -0.08,-0.15 -0.17,-0.29 -0.29,-0.41 -0.2,-0.19 -0.42,-0.27 -0.66,-0.23 -0.24,0.03 -0.49,0.18 -0.75,0.44 l -1.89,1.88 -0.46,-0.46 -0.4,0.4 0.46,0.47 -0.73,0.73 0.49,0.5 z m 4.21,-0.3 -1.16,-1.16 -0.43,0.43 1.16,1.16 0.43,-0.43 z m 4.22,1.18 -2.28,-2.28 -0.38,0.37 -0.37,2.71 c -0.07,0.41 -0.14,0.73 -0.22,0.95 -0.09,0.22 -0.21,0.42 -0.39,0.59 -0.21,0.21 -0.44,0.34 -0.67,0.37 -0.24,0.04 -0.44,-0.03 -0.61,-0.19 -0.2,-0.21 -0.29,-0.44 -0.26,-0.7 0.03,-0.26 0.18,-0.52 0.45,-0.79 l -0.5,-0.5 c -0.38,0.38 -0.58,0.79 -0.6,1.23 -0.03,0.43 0.13,0.83 0.49,1.18 0.32,0.33 0.68,0.49 1.07,0.47 0.38,-0.01 0.74,-0.18 1.07,-0.51 0.41,-0.41 0.67,-1.09 0.81,-2.07 l 0.28,-2.1 1.69,1.7 0.42,-0.43 z m 1,4.48 c 0.6,-0.6 0.96,-1.14 1.08,-1.61 0.13,-0.48 0,-0.9 -0.38,-1.28 -0.36,-0.37 -0.78,-0.5 -1.24,-0.39 -0.47,0.11 -0.99,0.45 -1.58,1.01 l -0.7,0.7 c -0.59,0.6 -0.95,1.14 -1.07,1.61 -0.12,0.47 0.01,0.89 0.39,1.26 0.37,0.37 0.78,0.51 1.23,0.4 0.46,-0.1 0.98,-0.43 1.55,-0.98 l 0.72,-0.72 z m -1.21,0.21 c -0.43,0.44 -0.8,0.71 -1.1,0.82 -0.3,0.11 -0.56,0.06 -0.77,-0.15 -0.2,-0.21 -0.25,-0.46 -0.14,-0.75 0.1,-0.3 0.36,-0.65 0.76,-1.06 l 0.84,-0.85 c 0.43,-0.43 0.81,-0.7 1.12,-0.82 0.32,-0.11 0.58,-0.07 0.78,0.13 0.2,0.21 0.25,0.46 0.14,0.76 -0.11,0.3 -0.37,0.66 -0.79,1.08 l -0.84,0.84 z m 5.97,1.06 -2.29,-2.28 -0.37,0.37 -0.38,2.71 c -0.06,0.41 -0.14,0.73 -0.22,0.95 -0.09,0.22 -0.21,0.42 -0.38,0.59 -0.22,0.22 -0.45,0.34 -0.68,0.38 -0.24,0.03 -0.44,-0.04 -0.6,-0.2 -0.21,-0.21 -0.3,-0.44 -0.27,-0.7 0.03,-0.25 0.18,-0.52 0.45,-0.79 l -0.5,-0.49 c -0.38,0.37 -0.58,0.78 -0.6,1.22 -0.03,0.44 0.13,0.83 0.49,1.19 0.32,0.32 0.68,0.48 1.07,0.47 0.38,-0.02 0.74,-0.19 1.07,-0.52 0.41,-0.4 0.68,-1.09 0.81,-2.07 l 0.28,-2.1 1.69,1.7 0.43,-0.43 z m -1.12,3.49 0.32,0.31 c 0.21,0.21 0.3,0.43 0.29,0.66 -0.02,0.24 -0.14,0.47 -0.35,0.68 -0.48,0.48 -0.91,0.54 -1.28,0.17 -0.18,-0.18 -0.25,-0.39 -0.22,-0.62 0.03,-0.23 0.14,-0.45 0.35,-0.66 l -0.49,-0.49 c -0.33,0.33 -0.5,0.7 -0.51,1.11 -0.01,0.41 0.13,0.77 0.45,1.08 0.32,0.32 0.67,0.48 1.06,0.47 0.39,-0.02 0.77,-0.21 1.14,-0.57 0.19,-0.19 0.32,-0.42 0.38,-0.68 0.07,-0.26 0.06,-0.51 -0.02,-0.75 0.53,0.25 1.04,0.12 1.54,-0.37 0.36,-0.37 0.55,-0.76 0.57,-1.18 0.01,-0.42 -0.15,-0.79 -0.48,-1.12 -0.32,-0.33 -0.68,-0.48 -1.09,-0.48 -0.4,0.01 -0.78,0.18 -1.12,0.53 l 0.49,0.5 c 0.22,-0.22 0.44,-0.34 0.68,-0.36 0.23,-0.03 0.44,0.05 0.62,0.23 0.19,0.19 0.27,0.4 0.25,0.63 -0.01,0.24 -0.15,0.48 -0.4,0.74 -0.5,0.5 -0.98,0.51 -1.45,0.04 l -0.3,-0.3 -0.43,0.43 z"/>
      </g>
    </g>
    <g id="g274">
      <g clip-path="url(#clipPath278)" id="g276">
        <path id="path282" style="fill:#000000;fill-opacity:1;fill-rule:nonzero;stroke:none" d="m 315.36,260.96 -4.09,4.09 0.98,0.98 c 0.47,0.48 0.99,0.7 1.56,0.66 0.56,-0.03 1.11,-0.32 1.65,-0.86 l 0.69,-0.69 c 0.54,-0.54 0.82,-1.09 0.85,-1.65 0.03,-0.56 -0.21,-1.1 -0.72,-1.61 l -0.92,-0.92 z m -3.13,4.17 3.2,-3.21 0.42,0.41 c 0.36,0.36 0.52,0.73 0.48,1.1 -0.04,0.38 -0.26,0.77 -0.67,1.18 l -0.72,0.73 c -0.43,0.43 -0.83,0.66 -1.2,0.7 -0.37,0.03 -0.72,-0.12 -1.05,-0.45 l -0.46,-0.46 z m 7.5,0.09 c -0.38,-0.38 -0.78,-0.55 -1.21,-0.53 -0.43,0.02 -0.86,0.25 -1.3,0.68 l -0.37,0.37 c -0.45,0.45 -0.71,0.91 -0.77,1.36 -0.06,0.46 0.09,0.86 0.44,1.22 0.36,0.35 0.74,0.51 1.14,0.45 0.4,-0.05 0.85,-0.31 1.33,-0.78 l 0.33,-0.33 -1.7,-1.7 0.07,-0.07 c 0.33,-0.32 0.62,-0.5 0.89,-0.52 0.27,-0.03 0.53,0.07 0.76,0.3 0.14,0.15 0.24,0.31 0.3,0.47 0.05,0.17 0.07,0.36 0.05,0.58 l 0.57,-0.06 c 0.09,-0.52 -0.09,-1 -0.53,-1.44 z m -2.78,2.67 c -0.2,-0.21 -0.29,-0.43 -0.24,-0.67 0.04,-0.24 0.2,-0.52 0.49,-0.83 l 1.19,1.2 -0.07,0.07 c -0.3,0.27 -0.55,0.43 -0.77,0.46 -0.21,0.03 -0.41,-0.04 -0.6,-0.23 z m 5.01,0.41 c 0.17,0.16 0.25,0.35 0.24,0.55 0,0.2 -0.09,0.4 -0.27,0.6 l 0.47,0.47 c 0.28,-0.31 0.42,-0.65 0.41,-1.04 0,-0.39 -0.14,-0.72 -0.43,-1 -0.37,-0.38 -0.78,-0.55 -1.21,-0.51 -0.44,0.04 -0.89,0.29 -1.36,0.76 l -0.33,0.34 c -0.46,0.45 -0.71,0.9 -0.75,1.34 -0.04,0.43 0.12,0.84 0.5,1.21 0.31,0.31 0.66,0.46 1.04,0.45 0.37,-0.02 0.74,-0.19 1.09,-0.52 l -0.47,-0.47 c -0.23,0.22 -0.46,0.33 -0.66,0.35 -0.21,0.01 -0.4,-0.06 -0.57,-0.23 -0.22,-0.22 -0.31,-0.46 -0.28,-0.71 0.04,-0.25 0.23,-0.55 0.55,-0.88 l 0.39,-0.39 c 0.36,-0.36 0.66,-0.56 0.92,-0.6 0.25,-0.04 0.49,0.05 0.72,0.28 z m 1.39,3.71 -1.16,-1.16 -0.42,0.42 1.16,1.16 0.42,-0.42 z m 4.23,1.17 -2.29,-2.28 -0.37,0.37 -0.38,2.71 c -0.06,0.41 -0.13,0.73 -0.22,0.95 -0.08,0.22 -0.21,0.42 -0.38,0.59 -0.22,0.22 -0.44,0.34 -0.68,0.38 -0.23,0.03 -0.44,-0.04 -0.6,-0.2 -0.21,-0.21 -0.3,-0.44 -0.27,-0.7 0.03,-0.25 0.18,-0.52 0.45,-0.79 l -0.49,-0.49 c -0.38,0.37 -0.58,0.78 -0.61,1.22 -0.02,0.44 0.14,0.83 0.49,1.19 0.33,0.32 0.69,0.48 1.07,0.47 0.39,-0.02 0.75,-0.19 1.08,-0.52 0.4,-0.4 0.67,-1.09 0.8,-2.07 l 0.28,-2.1 1.7,1.7 0.42,-0.43 z m 0.99,4.48 c 0.61,-0.6 0.97,-1.14 1.09,-1.61 0.12,-0.48 0,-0.9 -0.38,-1.28 -0.36,-0.36 -0.78,-0.49 -1.25,-0.39 -0.46,0.11 -0.99,0.45 -1.57,1.01 l -0.7,0.71 c -0.6,0.59 -0.96,1.13 -1.07,1.6 -0.12,0.47 0.01,0.89 0.38,1.27 0.37,0.37 0.78,0.5 1.24,0.4 0.46,-0.11 0.97,-0.43 1.55,-0.99 l 0.71,-0.72 z m -1.2,0.22 c -0.44,0.43 -0.8,0.7 -1.1,0.81 -0.3,0.11 -0.56,0.06 -0.77,-0.15 -0.2,-0.2 -0.25,-0.45 -0.15,-0.75 0.11,-0.3 0.36,-0.65 0.77,-1.06 l 0.84,-0.84 c 0.43,-0.43 0.8,-0.71 1.12,-0.83 0.31,-0.11 0.57,-0.07 0.78,0.14 0.2,0.2 0.25,0.45 0.14,0.75 -0.11,0.3 -0.37,0.66 -0.79,1.08 l -0.84,0.85 z m 5.88,0.98 -2.28,-2.29 -0.37,0.38 -0.38,2.71 c -0.07,0.41 -0.14,0.73 -0.22,0.95 -0.09,0.22 -0.21,0.41 -0.38,0.58 -0.22,0.22 -0.45,0.35 -0.68,0.38 -0.24,0.03 -0.44,-0.03 -0.61,-0.2 -0.2,-0.2 -0.29,-0.44 -0.26,-0.69 0.03,-0.26 0.18,-0.52 0.45,-0.79 l -0.5,-0.5 c -0.38,0.38 -0.58,0.79 -0.6,1.22 -0.03,0.44 0.13,0.84 0.49,1.19 0.32,0.33 0.68,0.48 1.07,0.47 0.38,-0.01 0.74,-0.18 1.07,-0.51 0.41,-0.41 0.68,-1.1 0.81,-2.07 l 0.28,-2.1 1.69,1.69 0.42,-0.42 z m -1.11,3.48 0.32,0.32 c 0.21,0.2 0.3,0.42 0.28,0.66 -0.01,0.23 -0.13,0.46 -0.34,0.68 -0.48,0.48 -0.91,0.53 -1.28,0.16 -0.18,-0.18 -0.25,-0.38 -0.22,-0.61 0.03,-0.23 0.14,-0.45 0.35,-0.66 l -0.49,-0.5 c -0.33,0.33 -0.5,0.7 -0.51,1.11 -0.01,0.42 0.13,0.78 0.44,1.09 0.33,0.32 0.68,0.47 1.07,0.46 0.39,-0.01 0.77,-0.2 1.14,-0.57 0.19,-0.19 0.32,-0.41 0.38,-0.68 0.07,-0.26 0.06,-0.51 -0.02,-0.74 0.53,0.24 1.04,0.12 1.54,-0.38 0.36,-0.36 0.55,-0.76 0.56,-1.18 0.02,-0.41 -0.14,-0.79 -0.47,-1.12 -0.32,-0.32 -0.68,-0.48 -1.09,-0.47 -0.4,0 -0.78,0.18 -1.13,0.52 l 0.5,0.5 c 0.22,-0.22 0.44,-0.34 0.68,-0.36 0.23,-0.02 0.44,0.06 0.62,0.24 0.18,0.18 0.27,0.39 0.25,0.63 -0.01,0.23 -0.15,0.48 -0.41,0.74 -0.49,0.49 -0.97,0.51 -1.44,0.04 l -0.3,-0.3 -0.43,0.42 z"/>
      </g>
    </g>
    <g id="g284">
      <g clip-path="url(#clipPath288)" id="g286">
        <path id="path292" style="fill:#000000;fill-opacity:1;fill-rule:nonzero;stroke:none" d="m 337.86,265 -1.38,-1.38 1.8,-1.81 -0.51,-0.51 -4.09,4.09 2.13,2.13 0.44,-0.44 -1.61,-1.62 1.4,-1.4 1.38,1.38 0.44,-0.44 z m 3.74,0.02 c -0.37,-0.38 -0.78,-0.55 -1.21,-0.53 -0.42,0.02 -0.86,0.25 -1.3,0.68 l -0.36,0.37 c -0.46,0.45 -0.71,0.91 -0.77,1.36 -0.06,0.46 0.08,0.86 0.44,1.22 0.35,0.35 0.73,0.5 1.13,0.45 0.41,-0.05 0.85,-0.31 1.33,-0.79 l 0.33,-0.32 -1.7,-1.7 0.07,-0.07 c 0.33,-0.32 0.63,-0.5 0.9,-0.52 0.27,-0.03 0.52,0.07 0.75,0.3 0.14,0.15 0.25,0.31 0.3,0.47 0.06,0.17 0.07,0.36 0.05,0.58 l 0.57,-0.06 c 0.09,-0.52 -0.08,-1 -0.53,-1.44 z m -2.78,2.67 c -0.2,-0.21 -0.28,-0.43 -0.24,-0.67 0.04,-0.24 0.2,-0.52 0.49,-0.83 l 1.19,1.2 -0.06,0.07 c -0.3,0.27 -0.56,0.43 -0.78,0.46 -0.21,0.03 -0.41,-0.05 -0.6,-0.23 z m 5.15,2.56 c 0.48,-0.47 0.75,-0.92 0.82,-1.33 0.07,-0.41 -0.06,-0.77 -0.38,-1.1 -0.33,-0.32 -0.71,-0.42 -1.14,-0.31 l 0.33,-0.38 -0.45,-0.45 -4.32,4.31 0.5,0.49 1.61,-1.6 c -0.1,0.42 0,0.78 0.31,1.09 0.33,0.33 0.7,0.46 1.1,0.39 0.41,-0.07 0.85,-0.34 1.32,-0.81 l 0.3,-0.3 z m -0.78,-0.21 c -0.35,0.36 -0.66,0.56 -0.91,0.62 -0.26,0.05 -0.49,-0.04 -0.72,-0.26 -0.26,-0.26 -0.31,-0.59 -0.16,-0.99 l 1.45,-1.44 c 0.39,-0.15 0.72,-0.1 0.99,0.16 0.22,0.23 0.3,0.47 0.24,0.72 -0.06,0.26 -0.25,0.55 -0.58,0.88 l -0.31,0.31 z m 2.19,1.92 -1.16,-1.16 -0.43,0.42 1.16,1.16 0.43,-0.42 z m 4.3,1.25 -2.28,-2.28 -0.38,0.37 -0.38,2.71 c -0.06,0.41 -0.13,0.73 -0.21,0.95 -0.09,0.22 -0.22,0.42 -0.39,0.59 -0.21,0.22 -0.44,0.34 -0.68,0.38 -0.23,0.03 -0.43,-0.04 -0.6,-0.2 -0.2,-0.21 -0.29,-0.44 -0.26,-0.7 0.03,-0.25 0.18,-0.52 0.45,-0.79 l -0.5,-0.49 c -0.38,0.37 -0.58,0.78 -0.61,1.22 -0.02,0.44 0.14,0.83 0.5,1.19 0.32,0.32 0.68,0.48 1.06,0.47 0.39,-0.02 0.75,-0.19 1.08,-0.52 0.41,-0.4 0.67,-1.09 0.8,-2.07 l 0.29,-2.1 1.69,1.7 0.42,-0.43 z m 1,4.48 c 0.6,-0.6 0.96,-1.14 1.08,-1.61 0.13,-0.48 0,-0.9 -0.38,-1.28 -0.36,-0.36 -0.78,-0.49 -1.24,-0.39 -0.47,0.11 -0.99,0.45 -1.58,1.01 l -0.7,0.71 c -0.6,0.59 -0.95,1.13 -1.07,1.6 -0.12,0.47 0.01,0.89 0.39,1.27 0.37,0.36 0.78,0.5 1.23,0.4 0.46,-0.11 0.97,-0.44 1.55,-0.99 l 0.72,-0.72 z m -1.21,0.22 c -0.43,0.43 -0.8,0.7 -1.1,0.81 -0.3,0.11 -0.56,0.06 -0.77,-0.15 -0.2,-0.21 -0.25,-0.46 -0.14,-0.75 0.1,-0.3 0.36,-0.65 0.76,-1.06 l 0.84,-0.85 c 0.43,-0.43 0.8,-0.7 1.12,-0.82 0.32,-0.11 0.57,-0.07 0.78,0.13 0.2,0.21 0.25,0.46 0.14,0.76 -0.11,0.3 -0.37,0.66 -0.79,1.08 l -0.84,0.85 z m 5.89,0.98 -2.29,-2.29 -0.37,0.37 -0.38,2.71 c -0.06,0.42 -0.14,0.74 -0.22,0.96 -0.08,0.22 -0.21,0.41 -0.38,0.58 -0.22,0.22 -0.45,0.35 -0.68,0.38 -0.24,0.03 -0.44,-0.03 -0.6,-0.2 -0.21,-0.2 -0.3,-0.44 -0.27,-0.69 0.03,-0.26 0.18,-0.52 0.45,-0.79 l -0.5,-0.5 c -0.37,0.38 -0.57,0.78 -0.6,1.22 -0.03,0.44 0.14,0.84 0.49,1.19 0.33,0.33 0.68,0.48 1.07,0.47 0.39,-0.01 0.74,-0.18 1.08,-0.51 0.4,-0.41 0.67,-1.1 0.8,-2.07 l 0.28,-2.1 1.69,1.69 0.43,-0.42 z m 1.06,3.8 0.45,0.46 0.43,-0.43 -0.46,-0.45 0.95,-0.95 -0.5,-0.5 -0.95,0.95 -1.54,-1.54 -0.31,0.3 -1.31,4.36 0.52,0.52 2.72,-2.72 z m -1.49,-1.49 0.99,1 -1.94,1.94 0.95,-2.94 z"/>
      </g>
    </g>
    <g id="g294">
      <g clip-path="url(#clipPath298)" id="g296">
        <path id="path302" style="fill:#000000;fill-opacity:1;fill-rule:nonzero;stroke:none" d="m 361.07,264.67 -1.38,-1.38 0.76,-1.39 -0.53,-0.53 -2.77,5.41 0.44,0.44 5.4,-2.77 -0.52,-0.53 -1.4,0.75 z m -1.68,-0.81 1.11,1.12 -2.42,1.3 1.31,-2.42 z m 4.9,4.63 c 0.48,-0.48 0.75,-0.93 0.81,-1.34 0.07,-0.4 -0.06,-0.77 -0.38,-1.08 -0.3,-0.31 -0.65,-0.43 -1.05,-0.36 l 1.46,-1.46 -0.49,-0.5 -4.21,4.21 0.45,0.45 0.36,-0.31 c -0.1,0.43 0.01,0.8 0.32,1.11 0.34,0.33 0.7,0.46 1.1,0.4 0.4,-0.07 0.83,-0.33 1.3,-0.79 l 0.33,-0.33 z m -0.78,-0.21 c -0.34,0.34 -0.65,0.54 -0.91,0.6 -0.27,0.05 -0.52,-0.03 -0.75,-0.27 -0.24,-0.23 -0.3,-0.53 -0.19,-0.9 l 1.59,-1.58 c 0.35,-0.11 0.65,-0.04 0.89,0.2 0.23,0.23 0.31,0.47 0.25,0.74 -0.05,0.27 -0.25,0.57 -0.58,0.91 l -0.3,0.3 z m 1.47,3.31 c -0.08,-0.06 -0.16,-0.13 -0.24,-0.21 -0.25,-0.25 -0.29,-0.57 -0.11,-0.95 l 2.17,-2.18 -0.5,-0.49 -3.04,3.04 0.49,0.48 0.31,-0.3 c -0.11,0.37 -0.04,0.68 0.2,0.93 0.08,0.08 0.16,0.13 0.24,0.16 l 0.48,-0.48 z m 2.48,0.38 -1.16,-1.16 -0.42,0.42 1.16,1.16 0.42,-0.42 z m 4.31,1.25 -2.29,-2.28 -0.37,0.37 -0.38,2.71 c -0.06,0.41 -0.14,0.73 -0.22,0.95 -0.09,0.22 -0.21,0.42 -0.38,0.59 -0.22,0.22 -0.45,0.34 -0.68,0.37 -0.24,0.04 -0.44,-0.03 -0.6,-0.19 -0.21,-0.21 -0.3,-0.44 -0.27,-0.7 0.03,-0.25 0.18,-0.52 0.45,-0.79 l -0.5,-0.49 c -0.37,0.37 -0.58,0.78 -0.6,1.22 -0.03,0.44 0.14,0.83 0.49,1.19 0.33,0.32 0.68,0.48 1.07,0.47 0.38,-0.02 0.74,-0.19 1.07,-0.52 0.41,-0.4 0.68,-1.09 0.81,-2.07 l 0.28,-2.1 1.69,1.7 0.43,-0.43 z m 0.99,4.48 c 0.6,-0.6 0.96,-1.14 1.09,-1.61 0.12,-0.48 -0.01,-0.9 -0.38,-1.28 -0.37,-0.37 -0.78,-0.49 -1.25,-0.39 -0.47,0.11 -0.99,0.45 -1.57,1.01 l -0.71,0.71 c -0.59,0.59 -0.95,1.13 -1.07,1.6 -0.11,0.47 0.01,0.89 0.39,1.27 0.37,0.36 0.78,0.5 1.24,0.4 0.45,-0.11 0.97,-0.44 1.54,-0.99 l 0.72,-0.72 z m -1.21,0.22 c -0.43,0.43 -0.8,0.7 -1.1,0.81 -0.3,0.11 -0.55,0.06 -0.76,-0.15 -0.21,-0.21 -0.26,-0.46 -0.15,-0.75 0.1,-0.3 0.36,-0.65 0.76,-1.06 l 0.84,-0.85 c 0.43,-0.43 0.81,-0.7 1.12,-0.82 0.32,-0.11 0.58,-0.07 0.78,0.13 0.2,0.21 0.25,0.46 0.14,0.76 -0.11,0.3 -0.37,0.66 -0.78,1.08 l -0.85,0.85 z m 5.89,0.98 -2.29,-2.29 -0.37,0.37 -0.38,2.71 c -0.06,0.42 -0.13,0.74 -0.22,0.96 -0.08,0.22 -0.21,0.41 -0.38,0.58 -0.22,0.22 -0.44,0.35 -0.68,0.38 -0.23,0.03 -0.43,-0.03 -0.6,-0.2 -0.21,-0.21 -0.3,-0.44 -0.27,-0.69 0.03,-0.26 0.18,-0.52 0.45,-0.79 l -0.49,-0.5 c -0.38,0.38 -0.58,0.78 -0.61,1.22 -0.02,0.44 0.14,0.84 0.49,1.19 0.33,0.33 0.69,0.48 1.07,0.47 0.39,-0.01 0.75,-0.18 1.08,-0.52 0.4,-0.4 0.67,-1.09 0.8,-2.06 l 0.28,-2.1 1.7,1.69 0.42,-0.42 z m 1.06,3.8 0.46,0.46 0.42,-0.43 -0.46,-0.45 0.95,-0.95 -0.49,-0.5 -0.95,0.95 -1.55,-1.54 -0.3,0.3 -1.32,4.36 0.52,0.52 2.72,-2.72 z m -1.49,-1.49 0.99,1 -1.94,1.94 0.95,-2.94 z"/>
      </g>
    </g>
    <g id="g304">
      <g clip-path="url(#clipPath308)" id="g306">
        <path id="path312" style="fill:#000000;fill-opacity:1;fill-rule:nonzero;stroke:none" d="m 379.19,266.75 0.52,0.52 2.89,-2.9 c 0.39,-0.39 0.6,-0.8 0.62,-1.22 0.02,-0.42 -0.13,-0.79 -0.47,-1.13 -0.35,-0.35 -0.72,-0.51 -1.12,-0.5 -0.41,0.02 -0.79,0.22 -1.16,0.59 l 0.51,0.51 c 0.23,-0.23 0.47,-0.37 0.7,-0.39 0.24,-0.03 0.44,0.05 0.63,0.23 0.18,0.18 0.25,0.39 0.21,0.64 -0.03,0.25 -0.18,0.5 -0.44,0.76 l -2.89,2.89 z m 6.65,-0.99 c 0.05,-0.38 -0.08,-0.73 -0.39,-1.05 -0.28,-0.27 -0.58,-0.38 -0.91,-0.33 -0.33,0.05 -0.68,0.25 -1.05,0.61 l -1.98,1.98 0.5,0.5 1.94,-1.95 c 0.47,-0.47 0.85,-0.56 1.14,-0.28 0.3,0.3 0.37,0.64 0.22,1.03 l -2.25,2.25 0.5,0.49 3.03,-3.03 -0.47,-0.48 -0.28,0.26 z m -1.01,4.53 0.34,-0.32 c -0.06,0.45 0.06,0.83 0.35,1.13 0.54,0.53 1.17,0.45 1.9,-0.26 l 2.02,-2.02 -0.5,-0.5 -1.99,2 c -0.24,0.24 -0.45,0.37 -0.63,0.39 -0.18,0.02 -0.35,-0.05 -0.51,-0.21 -0.12,-0.12 -0.19,-0.27 -0.21,-0.46 -0.01,-0.18 0.01,-0.36 0.09,-0.56 l 2.2,-2.2 -0.49,-0.5 -3.04,3.04 0.47,0.47 z m 4.72,1.7 -1.16,-1.16 -0.42,0.42 1.16,1.16 0.42,-0.42 z m 4.23,1.17 -2.28,-2.28 -0.38,0.37 -0.38,2.71 c -0.06,0.42 -0.13,0.73 -0.22,0.95 -0.08,0.22 -0.21,0.42 -0.38,0.59 -0.21,0.22 -0.44,0.34 -0.68,0.38 -0.23,0.03 -0.43,-0.03 -0.6,-0.2 -0.21,-0.21 -0.29,-0.44 -0.26,-0.7 0.03,-0.25 0.18,-0.52 0.45,-0.78 l -0.5,-0.5 c -0.38,0.37 -0.58,0.78 -0.61,1.22 -0.02,0.44 0.14,0.83 0.5,1.19 0.32,0.32 0.68,0.48 1.06,0.47 0.39,-0.01 0.75,-0.19 1.08,-0.52 0.41,-0.4 0.67,-1.09 0.8,-2.06 l 0.29,-2.1 1.69,1.69 0.42,-0.43 z m 0.99,4.48 c 0.61,-0.6 0.97,-1.14 1.09,-1.61 0.13,-0.48 0,-0.9 -0.38,-1.28 -0.36,-0.36 -0.78,-0.49 -1.24,-0.39 -0.47,0.11 -0.99,0.45 -1.58,1.02 l -0.7,0.7 c -0.6,0.59 -0.95,1.13 -1.07,1.6 -0.12,0.47 0.01,0.89 0.39,1.27 0.36,0.37 0.78,0.5 1.23,0.4 0.46,-0.1 0.97,-0.43 1.55,-0.99 l 0.71,-0.72 z m -1.2,0.22 c -0.44,0.43 -0.8,0.7 -1.1,0.81 -0.3,0.11 -0.56,0.06 -0.77,-0.15 -0.2,-0.2 -0.25,-0.45 -0.14,-0.75 0.1,-0.3 0.36,-0.65 0.76,-1.06 l 0.84,-0.84 c 0.43,-0.43 0.8,-0.71 1.12,-0.82 0.31,-0.12 0.57,-0.08 0.78,0.13 0.2,0.2 0.25,0.45 0.14,0.75 -0.11,0.3 -0.37,0.66 -0.79,1.08 l -0.84,0.85 z m 5.89,0.98 -2.29,-2.29 -0.37,0.38 -0.38,2.71 c -0.06,0.41 -0.14,0.73 -0.22,0.95 -0.08,0.22 -0.21,0.42 -0.38,0.59 -0.22,0.21 -0.45,0.34 -0.68,0.37 -0.24,0.04 -0.44,-0.03 -0.6,-0.19 -0.21,-0.21 -0.3,-0.44 -0.27,-0.7 0.03,-0.26 0.18,-0.52 0.45,-0.79 l -0.5,-0.5 c -0.37,0.38 -0.58,0.79 -0.6,1.22 -0.03,0.44 0.14,0.84 0.49,1.19 0.33,0.33 0.68,0.48 1.07,0.47 0.39,-0.01 0.74,-0.18 1.08,-0.51 0.4,-0.41 0.67,-1.1 0.8,-2.07 l 0.28,-2.1 1.69,1.69 0.43,-0.42 z m 1.13,3.88 0.46,0.46 0.42,-0.43 -0.45,-0.45 0.95,-0.95 -0.5,-0.5 -0.95,0.95 -1.54,-1.54 -0.31,0.3 -1.31,4.36 0.52,0.52 2.71,-2.72 z m -1.49,-1.49 1,0.99 -1.95,1.95 0.95,-2.94 z"/>
      </g>
    </g>
    <g id="g314">
      <g clip-path="url(#clipPath318)" id="g316">
        <path id="path322" style="fill:#000000;fill-opacity:1;fill-rule:nonzero;stroke:none" d="m 404.2,263.64 -1.39,-1.38 0.76,-1.38 -0.53,-0.53 -2.77,5.4 0.44,0.44 5.41,-2.76 -0.53,-0.53 -1.39,0.74 z m -1.69,-0.8 1.11,1.11 -2.41,1.3 1.3,-2.41 z m 5.36,2.87 c 0.05,-0.38 -0.08,-0.73 -0.4,-1.04 -0.27,-0.28 -0.58,-0.39 -0.91,-0.34 -0.33,0.05 -0.68,0.25 -1.04,0.61 l -1.98,1.98 0.49,0.5 1.95,-1.94 c 0.47,-0.48 0.85,-0.57 1.13,-0.29 0.31,0.3 0.38,0.65 0.22,1.03 l -2.25,2.25 0.5,0.5 3.04,-3.04 -0.47,-0.47 -0.28,0.25 z m -0.28,2.5 c -0.47,0.48 -0.74,0.92 -0.81,1.34 -0.07,0.41 0.06,0.78 0.39,1.12 0.31,0.3 0.67,0.41 1.1,0.3 l -0.32,0.37 0.45,0.45 3.07,-3.07 c 0.38,-0.37 0.57,-0.76 0.58,-1.15 0.01,-0.4 -0.16,-0.77 -0.51,-1.11 -0.15,-0.15 -0.35,-0.28 -0.61,-0.39 -0.26,-0.12 -0.49,-0.17 -0.7,-0.15 l -0.14,0.54 c 0.41,0.01 0.74,0.13 0.99,0.38 0.41,0.42 0.4,0.86 -0.04,1.32 l -0.4,0.39 c 0.08,-0.4 -0.03,-0.74 -0.32,-1.04 -0.32,-0.31 -0.68,-0.44 -1.1,-0.38 -0.41,0.06 -0.84,0.31 -1.29,0.75 l -0.34,0.33 z m 0.78,0.22 c 0.34,-0.34 0.64,-0.54 0.9,-0.6 0.26,-0.06 0.51,0.02 0.73,0.25 0.25,0.25 0.31,0.56 0.18,0.94 l -1.52,1.51 c -0.37,0.12 -0.68,0.06 -0.92,-0.17 -0.23,-0.23 -0.31,-0.48 -0.25,-0.74 0.06,-0.26 0.25,-0.56 0.58,-0.89 l 0.3,-0.3 z m 3.21,3.51 -1.16,-1.16 -0.42,0.42 1.16,1.16 0.42,-0.42 z m 4.31,1.25 -2.29,-2.28 -0.37,0.37 -0.38,2.71 c -0.07,0.41 -0.14,0.73 -0.22,0.95 -0.09,0.22 -0.21,0.42 -0.38,0.59 -0.22,0.22 -0.45,0.34 -0.68,0.38 -0.24,0.03 -0.44,-0.04 -0.6,-0.2 -0.21,-0.21 -0.3,-0.44 -0.27,-0.7 0.03,-0.25 0.18,-0.52 0.45,-0.79 l -0.5,-0.49 c -0.38,0.37 -0.58,0.78 -0.6,1.22 -0.03,0.44 0.13,0.83 0.49,1.19 0.32,0.32 0.68,0.48 1.07,0.47 0.38,-0.02 0.74,-0.19 1.07,-0.52 0.41,-0.4 0.68,-1.09 0.81,-2.07 l 0.28,-2.1 1.69,1.7 0.43,-0.43 z m 0.99,4.48 c 0.6,-0.6 0.96,-1.14 1.09,-1.61 0.12,-0.48 -0.01,-0.9 -0.38,-1.28 -0.37,-0.36 -0.79,-0.49 -1.25,-0.39 -0.47,0.11 -0.99,0.45 -1.57,1.01 l -0.71,0.71 c -0.59,0.59 -0.95,1.13 -1.07,1.6 -0.11,0.47 0.01,0.89 0.39,1.27 0.37,0.37 0.78,0.5 1.24,0.4 0.45,-0.11 0.97,-0.43 1.54,-0.99 l 0.72,-0.72 z m -1.21,0.22 c -0.43,0.43 -0.8,0.7 -1.1,0.81 -0.3,0.11 -0.56,0.06 -0.76,-0.15 -0.21,-0.2 -0.26,-0.45 -0.15,-0.75 0.1,-0.3 0.36,-0.65 0.76,-1.06 l 0.84,-0.84 c 0.43,-0.43 0.81,-0.71 1.12,-0.83 0.32,-0.11 0.58,-0.07 0.78,0.13 0.2,0.21 0.25,0.46 0.14,0.76 -0.11,0.3 -0.37,0.66 -0.78,1.08 l -0.85,0.85 z m 5.89,0.98 -2.29,-2.29 -0.37,0.38 -0.38,2.71 c -0.06,0.41 -0.13,0.73 -0.22,0.95 -0.08,0.22 -0.21,0.41 -0.38,0.58 -0.22,0.22 -0.44,0.35 -0.68,0.38 -0.24,0.03 -0.44,-0.03 -0.6,-0.2 -0.21,-0.2 -0.3,-0.44 -0.27,-0.69 0.03,-0.26 0.18,-0.52 0.45,-0.79 l -0.49,-0.5 c -0.38,0.38 -0.58,0.79 -0.61,1.22 -0.02,0.44 0.14,0.84 0.49,1.19 0.33,0.33 0.68,0.48 1.07,0.47 0.39,-0.01 0.75,-0.18 1.08,-0.51 0.4,-0.41 0.67,-1.1 0.8,-2.07 l 0.28,-2.1 1.7,1.69 0.42,-0.42 z m 1.06,3.8 0.45,0.46 0.43,-0.43 -0.46,-0.45 0.95,-0.95 -0.49,-0.5 -0.95,0.95 -1.55,-1.54 -0.3,0.3 -1.32,4.36 0.52,0.52 2.72,-2.72 z m -1.49,-1.49 0.99,1 -1.94,1.94 0.95,-2.94 z"/>
      </g>
    </g>
    <g id="g324">
      <g clip-path="url(#clipPath328)" id="g326">
        <path id="path332" style="fill:#000000;fill-opacity:1;fill-rule:nonzero;stroke:none" d="m 427.53,266.13 c 0.55,-0.56 0.86,-1.11 0.93,-1.65 0.06,-0.53 -0.13,-1.02 -0.56,-1.46 -0.42,-0.42 -0.9,-0.61 -1.44,-0.56 -0.54,0.05 -1.08,0.34 -1.62,0.86 l -0.77,0.77 c -0.55,0.55 -0.86,1.1 -0.93,1.65 -0.06,0.55 0.12,1.04 0.55,1.47 0.43,0.43 0.91,0.62 1.45,0.57 0.54,-0.06 1.09,-0.36 1.64,-0.91 l 0.75,-0.74 z m -1.23,0.2 c -0.44,0.43 -0.83,0.69 -1.18,0.75 -0.35,0.07 -0.67,-0.04 -0.97,-0.33 -0.28,-0.28 -0.39,-0.6 -0.32,-0.96 0.07,-0.36 0.31,-0.75 0.72,-1.17 l 0.74,-0.73 c 0.41,-0.42 0.81,-0.66 1.17,-0.74 0.36,-0.07 0.69,0.04 0.98,0.33 0.29,0.28 0.4,0.6 0.34,0.94 -0.07,0.34 -0.31,0.72 -0.72,1.15 l -0.76,0.76 z m 4.32,0.26 c 0.16,0.16 0.25,0.35 0.24,0.55 0,0.2 -0.09,0.4 -0.27,0.6 l 0.47,0.47 c 0.28,-0.31 0.42,-0.65 0.41,-1.04 0,-0.39 -0.14,-0.72 -0.43,-1 -0.37,-0.38 -0.78,-0.55 -1.21,-0.51 -0.44,0.04 -0.89,0.29 -1.36,0.76 l -0.33,0.34 c -0.46,0.45 -0.71,0.9 -0.75,1.34 -0.04,0.43 0.12,0.84 0.5,1.21 0.31,0.31 0.66,0.46 1.04,0.45 0.37,-0.01 0.74,-0.19 1.09,-0.52 l -0.47,-0.47 c -0.23,0.22 -0.46,0.33 -0.66,0.35 -0.21,0.01 -0.4,-0.06 -0.57,-0.23 -0.22,-0.22 -0.32,-0.46 -0.28,-0.71 0.04,-0.25 0.22,-0.55 0.55,-0.88 l 0.39,-0.39 c 0.36,-0.36 0.66,-0.56 0.92,-0.6 0.25,-0.04 0.49,0.05 0.72,0.28 z m -1.13,5.69 0.74,-0.74 0.46,0.46 0.4,-0.4 -0.46,-0.46 1.89,-1.89 c 0.12,-0.12 0.23,-0.19 0.33,-0.21 0.1,-0.02 0.2,0.01 0.29,0.11 0.07,0.06 0.12,0.14 0.17,0.23 l 0.41,-0.42 c -0.07,-0.15 -0.17,-0.29 -0.29,-0.41 -0.19,-0.19 -0.41,-0.27 -0.66,-0.23 -0.24,0.03 -0.49,0.18 -0.75,0.44 l -1.88,1.88 -0.47,-0.46 -0.4,0.4 0.46,0.47 -0.73,0.73 0.49,0.5 z m 4.21,-0.3 -1.16,-1.16 -0.42,0.43 1.15,1.16 0.43,-0.43 z m 4.23,1.18 -2.29,-2.28 -0.37,0.37 -0.38,2.71 c -0.06,0.41 -0.14,0.73 -0.22,0.95 -0.08,0.22 -0.21,0.42 -0.38,0.59 -0.22,0.21 -0.45,0.34 -0.68,0.37 -0.24,0.04 -0.44,-0.03 -0.6,-0.19 -0.21,-0.21 -0.3,-0.44 -0.27,-0.7 0.03,-0.26 0.18,-0.52 0.45,-0.79 l -0.5,-0.5 c -0.37,0.38 -0.58,0.79 -0.6,1.23 -0.03,0.43 0.14,0.83 0.49,1.18 0.33,0.33 0.68,0.49 1.07,0.47 0.39,-0.01 0.74,-0.18 1.08,-0.51 0.4,-0.41 0.67,-1.09 0.8,-2.07 l 0.28,-2.1 1.69,1.7 0.43,-0.43 z m 0.99,4.48 c 0.6,-0.6 0.96,-1.14 1.09,-1.61 0.12,-0.48 -0.01,-0.9 -0.38,-1.28 -0.37,-0.37 -0.78,-0.5 -1.25,-0.39 -0.47,0.11 -0.99,0.45 -1.57,1.01 l -0.7,0.7 c -0.6,0.6 -0.96,1.14 -1.08,1.61 -0.11,0.47 0.02,0.89 0.39,1.26 0.37,0.37 0.78,0.51 1.24,0.4 0.45,-0.1 0.97,-0.43 1.54,-0.98 l 0.72,-0.72 z m -1.21,0.21 c -0.43,0.44 -0.8,0.71 -1.1,0.82 -0.3,0.11 -0.55,0.06 -0.76,-0.15 -0.21,-0.21 -0.26,-0.46 -0.15,-0.75 0.11,-0.3 0.36,-0.65 0.76,-1.06 l 0.84,-0.85 c 0.44,-0.43 0.81,-0.7 1.12,-0.82 0.32,-0.11 0.58,-0.07 0.78,0.13 0.2,0.21 0.25,0.46 0.14,0.76 -0.11,0.3 -0.37,0.66 -0.78,1.08 l -0.85,0.84 z m 5.97,1.06 -2.29,-2.28 -0.37,0.37 -0.38,2.71 c -0.06,0.41 -0.14,0.73 -0.22,0.95 -0.08,0.22 -0.21,0.42 -0.38,0.59 -0.22,0.22 -0.45,0.34 -0.68,0.38 -0.24,0.03 -0.44,-0.04 -0.6,-0.2 -0.21,-0.21 -0.3,-0.44 -0.27,-0.7 0.03,-0.25 0.18,-0.52 0.45,-0.79 l -0.5,-0.49 c -0.37,0.37 -0.57,0.78 -0.6,1.22 -0.03,0.44 0.14,0.83 0.49,1.19 0.33,0.32 0.68,0.48 1.07,0.47 0.39,-0.02 0.75,-0.19 1.08,-0.52 0.4,-0.4 0.67,-1.09 0.8,-2.07 l 0.28,-2.1 1.69,1.7 0.43,-0.43 z m 1.06,3.81 0.45,0.45 0.43,-0.42 -0.46,-0.46 0.95,-0.94 -0.5,-0.5 -0.95,0.95 -1.54,-1.55 -0.31,0.31 -1.31,4.35 0.52,0.52 2.72,-2.71 z m -1.49,-1.49 0.99,0.99 -1.94,1.94 0.95,-2.93 z"/>
      </g>
    </g>
    <g id="g334">
      <g clip-path="url(#clipPath338)" id="g336">
        <path id="path342" style="fill:#000000;fill-opacity:1;fill-rule:nonzero;stroke:none" d="m 447.8,260.96 -4.08,4.09 0.97,0.98 c 0.48,0.48 1,0.7 1.56,0.66 0.56,-0.03 1.11,-0.32 1.65,-0.86 l 0.69,-0.69 c 0.54,-0.54 0.83,-1.09 0.85,-1.65 0.03,-0.56 -0.21,-1.1 -0.72,-1.61 l -0.92,-0.92 z m -3.13,4.17 3.21,-3.21 0.41,0.41 c 0.36,0.36 0.52,0.73 0.48,1.1 -0.04,0.38 -0.26,0.77 -0.66,1.18 l -0.73,0.73 c -0.43,0.43 -0.83,0.66 -1.2,0.7 -0.36,0.03 -0.71,-0.12 -1.05,-0.45 l -0.46,-0.46 z m 7.5,0.09 c -0.37,-0.38 -0.78,-0.55 -1.2,-0.53 -0.43,0.02 -0.87,0.25 -1.31,0.68 l -0.36,0.37 c -0.46,0.45 -0.71,0.91 -0.77,1.36 -0.06,0.46 0.08,0.86 0.44,1.22 0.35,0.35 0.73,0.51 1.13,0.45 0.41,-0.05 0.85,-0.31 1.33,-0.78 l 0.33,-0.33 -1.7,-1.7 0.07,-0.07 c 0.33,-0.32 0.63,-0.5 0.9,-0.52 0.27,-0.03 0.52,0.07 0.75,0.3 0.14,0.15 0.25,0.31 0.3,0.47 0.06,0.17 0.07,0.36 0.05,0.58 l 0.57,-0.06 c 0.09,-0.52 -0.08,-1 -0.53,-1.44 z m -2.78,2.67 c -0.2,-0.21 -0.28,-0.43 -0.24,-0.67 0.04,-0.24 0.2,-0.52 0.49,-0.83 l 1.19,1.2 -0.06,0.07 c -0.3,0.27 -0.56,0.43 -0.78,0.46 -0.21,0.03 -0.41,-0.04 -0.6,-0.23 z m 5.01,0.41 c 0.17,0.16 0.25,0.35 0.25,0.55 -0.01,0.2 -0.1,0.4 -0.28,0.6 l 0.47,0.47 c 0.28,-0.31 0.42,-0.65 0.42,-1.04 -0.01,-0.39 -0.15,-0.72 -0.43,-1 -0.38,-0.38 -0.78,-0.55 -1.22,-0.51 -0.43,0.04 -0.88,0.29 -1.35,0.76 l -0.34,0.34 c -0.46,0.45 -0.71,0.9 -0.75,1.34 -0.04,0.43 0.13,0.84 0.5,1.21 0.31,0.31 0.66,0.46 1.04,0.45 0.38,-0.02 0.74,-0.19 1.09,-0.52 l -0.46,-0.47 c -0.24,0.22 -0.46,0.33 -0.67,0.35 -0.21,0.01 -0.4,-0.06 -0.57,-0.23 -0.22,-0.22 -0.31,-0.46 -0.27,-0.71 0.03,-0.25 0.22,-0.55 0.55,-0.88 l 0.38,-0.39 c 0.36,-0.36 0.67,-0.56 0.92,-0.6 0.25,-0.04 0.49,0.05 0.72,0.28 z m 1.4,3.71 -1.16,-1.16 -0.43,0.42 1.16,1.16 0.43,-0.42 z m 4.22,1.17 -2.28,-2.28 -0.38,0.37 -0.38,2.71 c -0.06,0.41 -0.13,0.73 -0.21,0.95 -0.09,0.22 -0.22,0.42 -0.39,0.59 -0.21,0.22 -0.44,0.34 -0.68,0.38 -0.23,0.03 -0.43,-0.04 -0.6,-0.2 -0.2,-0.21 -0.29,-0.44 -0.26,-0.7 0.03,-0.25 0.18,-0.52 0.45,-0.79 l -0.5,-0.49 c -0.38,0.37 -0.58,0.78 -0.61,1.22 -0.02,0.44 0.14,0.83 0.5,1.19 0.32,0.32 0.68,0.48 1.06,0.47 0.39,-0.02 0.75,-0.19 1.08,-0.52 0.41,-0.4 0.67,-1.09 0.8,-2.07 l 0.29,-2.1 1.69,1.7 0.42,-0.43 z m 1,4.48 c 0.6,-0.6 0.96,-1.14 1.08,-1.61 0.13,-0.48 0,-0.9 -0.38,-1.28 -0.36,-0.36 -0.78,-0.49 -1.24,-0.39 -0.47,0.11 -0.99,0.45 -1.58,1.01 l -0.7,0.71 c -0.6,0.59 -0.95,1.13 -1.07,1.6 -0.12,0.47 0.01,0.89 0.39,1.27 0.37,0.37 0.78,0.5 1.23,0.4 0.46,-0.11 0.97,-0.43 1.55,-0.99 l 0.72,-0.72 z m -1.21,0.22 c -0.43,0.43 -0.8,0.7 -1.1,0.81 -0.3,0.11 -0.56,0.06 -0.77,-0.15 -0.2,-0.2 -0.25,-0.45 -0.14,-0.75 0.1,-0.3 0.36,-0.65 0.76,-1.06 l 0.84,-0.84 c 0.43,-0.43 0.8,-0.71 1.12,-0.83 0.32,-0.11 0.57,-0.07 0.78,0.14 0.2,0.2 0.25,0.45 0.14,0.75 -0.11,0.3 -0.37,0.66 -0.79,1.08 l -0.84,0.85 z m 5.89,0.98 -2.29,-2.29 -0.37,0.38 -0.38,2.71 c -0.06,0.41 -0.14,0.73 -0.22,0.95 -0.08,0.22 -0.21,0.41 -0.38,0.58 -0.22,0.22 -0.45,0.35 -0.68,0.38 -0.24,0.03 -0.44,-0.03 -0.6,-0.2 -0.21,-0.2 -0.3,-0.44 -0.27,-0.69 0.03,-0.26 0.18,-0.52 0.45,-0.79 l -0.5,-0.5 c -0.37,0.38 -0.57,0.79 -0.6,1.22 -0.03,0.44 0.14,0.84 0.49,1.19 0.33,0.33 0.68,0.48 1.07,0.47 0.39,-0.01 0.74,-0.18 1.08,-0.51 0.4,-0.41 0.67,-1.1 0.8,-2.07 l 0.28,-2.1 1.69,1.69 0.43,-0.42 z m 1.06,3.8 0.45,0.46 0.43,-0.42 -0.46,-0.46 0.95,-0.95 -0.5,-0.5 -0.95,0.95 -1.54,-1.54 -0.31,0.3 -1.31,4.36 0.52,0.52 2.72,-2.72 z m -1.49,-1.49 0.99,1 -1.94,1.94 0.95,-2.94 z"/>
      </g>
    </g>
    <g id="g344">
      <g clip-path="url(#clipPath348)" id="g346">
        <path id="path352" style="fill:#000000;fill-opacity:1;fill-rule:nonzero;stroke:none" d="m 470.3,265 -1.38,-1.38 1.81,-1.81 -0.52,-0.51 -4.09,4.09 2.13,2.13 0.44,-0.44 -1.61,-1.62 1.4,-1.4 1.38,1.38 0.44,-0.44 z m 3.75,0.02 c -0.38,-0.38 -0.78,-0.55 -1.21,-0.53 -0.43,0.02 -0.86,0.25 -1.3,0.68 l -0.37,0.37 c -0.45,0.45 -0.71,0.91 -0.77,1.36 -0.06,0.46 0.09,0.86 0.44,1.22 0.36,0.35 0.73,0.5 1.14,0.45 0.4,-0.05 0.84,-0.31 1.33,-0.79 l 0.32,-0.32 -1.7,-1.7 0.08,-0.07 c 0.32,-0.32 0.62,-0.5 0.89,-0.52 0.27,-0.03 0.52,0.07 0.75,0.3 0.15,0.15 0.25,0.31 0.3,0.47 0.06,0.17 0.08,0.36 0.05,0.58 l 0.58,-0.06 c 0.09,-0.52 -0.09,-1 -0.53,-1.44 z m -2.78,2.67 c -0.21,-0.21 -0.29,-0.43 -0.25,-0.67 0.04,-0.24 0.21,-0.52 0.49,-0.83 l 1.2,1.2 -0.07,0.07 c -0.3,0.27 -0.56,0.43 -0.77,0.46 -0.22,0.03 -0.42,-0.05 -0.6,-0.23 z m 5.15,2.56 c 0.47,-0.47 0.74,-0.92 0.81,-1.33 0.07,-0.41 -0.06,-0.77 -0.38,-1.1 -0.32,-0.32 -0.7,-0.42 -1.14,-0.31 l 0.33,-0.38 -0.45,-0.45 -4.31,4.31 0.49,0.49 1.61,-1.6 c -0.1,0.42 0.01,0.78 0.31,1.09 0.34,0.33 0.7,0.46 1.11,0.39 0.4,-0.07 0.84,-0.34 1.32,-0.81 l 0.3,-0.3 z m -0.78,-0.21 c -0.36,0.36 -0.67,0.56 -0.92,0.62 -0.25,0.05 -0.49,-0.04 -0.72,-0.26 -0.25,-0.26 -0.31,-0.59 -0.15,-0.99 l 1.44,-1.44 c 0.4,-0.15 0.73,-0.1 0.99,0.16 0.22,0.23 0.31,0.47 0.25,0.72 -0.06,0.26 -0.26,0.55 -0.59,0.88 l -0.3,0.31 z m 2.18,1.92 -1.16,-1.16 -0.42,0.42 1.16,1.16 0.42,-0.42 z m 4.31,1.25 -2.29,-2.28 -0.37,0.37 -0.38,2.71 c -0.06,0.41 -0.14,0.73 -0.22,0.95 -0.09,0.22 -0.21,0.42 -0.38,0.59 -0.22,0.22 -0.45,0.34 -0.68,0.38 -0.24,0.03 -0.44,-0.04 -0.6,-0.2 -0.21,-0.21 -0.3,-0.44 -0.27,-0.7 0.03,-0.25 0.18,-0.52 0.45,-0.79 l -0.5,-0.49 c -0.38,0.37 -0.58,0.78 -0.6,1.22 -0.03,0.44 0.13,0.83 0.49,1.19 0.32,0.32 0.68,0.48 1.07,0.47 0.38,-0.02 0.74,-0.19 1.07,-0.52 0.41,-0.4 0.68,-1.09 0.81,-2.07 l 0.28,-2.1 1.69,1.7 0.43,-0.43 z m 0.99,4.48 c 0.6,-0.6 0.96,-1.14 1.09,-1.61 0.12,-0.48 -0.01,-0.9 -0.38,-1.28 -0.37,-0.36 -0.79,-0.49 -1.25,-0.39 -0.47,0.11 -0.99,0.45 -1.57,1.01 l -0.71,0.71 c -0.59,0.59 -0.95,1.13 -1.07,1.6 -0.11,0.47 0.01,0.89 0.39,1.27 0.37,0.36 0.78,0.5 1.24,0.4 0.45,-0.11 0.97,-0.44 1.54,-0.99 l 0.72,-0.72 z m -1.21,0.22 c -0.43,0.43 -0.8,0.7 -1.1,0.81 -0.3,0.11 -0.55,0.06 -0.76,-0.15 -0.21,-0.21 -0.26,-0.46 -0.15,-0.75 0.1,-0.3 0.36,-0.65 0.76,-1.06 l 0.84,-0.85 c 0.43,-0.43 0.81,-0.7 1.12,-0.82 0.32,-0.11 0.58,-0.07 0.78,0.13 0.2,0.21 0.25,0.46 0.14,0.76 -0.11,0.3 -0.37,0.66 -0.78,1.08 l -0.85,0.85 z m 5.89,0.98 -2.29,-2.29 -0.37,0.37 -0.38,2.71 c -0.06,0.42 -0.13,0.74 -0.22,0.96 -0.08,0.22 -0.21,0.41 -0.38,0.58 -0.22,0.22 -0.44,0.35 -0.68,0.38 -0.23,0.03 -0.44,-0.03 -0.6,-0.2 -0.21,-0.2 -0.3,-0.44 -0.27,-0.69 0.03,-0.26 0.18,-0.52 0.45,-0.79 l -0.49,-0.5 c -0.38,0.38 -0.58,0.78 -0.61,1.22 -0.02,0.44 0.14,0.84 0.49,1.19 0.33,0.33 0.69,0.48 1.07,0.47 0.39,-0.01 0.75,-0.18 1.08,-0.51 0.4,-0.41 0.67,-1.1 0.8,-2.07 l 0.28,-2.1 1.7,1.69 0.42,-0.42 z m -1.3,2.8 -1.86,2.22 1.78,1.77 0.48,-0.48 -1.36,-1.36 1.02,-1.21 c 0.05,0.29 0.17,0.53 0.37,0.73 0.32,0.31 0.69,0.44 1.12,0.38 0.43,-0.07 0.85,-0.31 1.27,-0.73 0.42,-0.42 0.65,-0.85 0.7,-1.29 0.04,-0.44 -0.11,-0.83 -0.45,-1.18 -0.31,-0.3 -0.66,-0.45 -1.05,-0.45 -0.4,0.01 -0.78,0.18 -1.17,0.5 l 0.47,0.47 c 0.26,-0.21 0.51,-0.32 0.73,-0.33 0.23,-0.01 0.42,0.07 0.59,0.24 0.2,0.19 0.26,0.42 0.2,0.7 -0.05,0.28 -0.23,0.56 -0.51,0.84 -0.27,0.27 -0.55,0.43 -0.83,0.48 -0.29,0.05 -0.53,-0.02 -0.73,-0.22 -0.16,-0.17 -0.25,-0.34 -0.26,-0.53 l 0,-0.26 -0.51,-0.29 z"/>
      </g>
    </g>
    <g id="g354">
      <g clip-path="url(#clipPath358)" id="g356">
        <path id="path362" style="fill:#000000;fill-opacity:1;fill-rule:nonzero;stroke:none" d="m 493.52,264.67 -1.38,-1.38 0.75,-1.39 -0.53,-0.53 -2.77,5.41 0.44,0.44 5.41,-2.77 -0.53,-0.53 -1.39,0.75 z m -1.69,-0.81 1.11,1.12 -2.41,1.3 1.3,-2.42 z m 4.9,4.63 c 0.48,-0.48 0.75,-0.93 0.82,-1.34 0.06,-0.4 -0.07,-0.77 -0.38,-1.08 -0.31,-0.31 -0.66,-0.43 -1.06,-0.36 l 1.46,-1.46 -0.49,-0.5 -4.21,4.21 0.45,0.45 0.36,-0.31 c -0.09,0.43 0.02,0.8 0.33,1.11 0.33,0.33 0.69,0.46 1.09,0.4 0.4,-0.07 0.83,-0.33 1.3,-0.79 l 0.33,-0.33 z m -0.78,-0.21 c -0.34,0.34 -0.64,0.54 -0.91,0.6 -0.27,0.05 -0.52,-0.03 -0.75,-0.27 -0.24,-0.23 -0.3,-0.53 -0.18,-0.9 l 1.58,-1.58 c 0.35,-0.11 0.65,-0.04 0.89,0.2 0.23,0.23 0.31,0.47 0.26,0.74 -0.06,0.27 -0.25,0.57 -0.58,0.91 l -0.31,0.3 z m 1.48,3.31 c -0.08,-0.06 -0.17,-0.13 -0.25,-0.21 -0.25,-0.25 -0.29,-0.57 -0.11,-0.95 l 2.17,-2.18 -0.5,-0.49 -3.03,3.04 0.48,0.48 0.32,-0.3 c -0.11,0.37 -0.05,0.68 0.2,0.93 0.07,0.08 0.15,0.13 0.23,0.16 l 0.49,-0.48 z m 2.47,0.38 -1.16,-1.16 -0.42,0.42 1.16,1.16 0.42,-0.42 z m 4.31,1.25 -2.29,-2.28 -0.37,0.37 -0.38,2.71 c -0.06,0.41 -0.13,0.73 -0.22,0.95 -0.08,0.22 -0.21,0.42 -0.38,0.59 -0.22,0.22 -0.44,0.34 -0.68,0.37 -0.24,0.04 -0.44,-0.03 -0.6,-0.19 -0.21,-0.21 -0.3,-0.44 -0.27,-0.7 0.03,-0.25 0.18,-0.52 0.45,-0.79 l -0.5,-0.49 c -0.37,0.37 -0.57,0.78 -0.6,1.22 -0.03,0.44 0.14,0.83 0.49,1.19 0.33,0.32 0.68,0.48 1.07,0.47 0.39,-0.02 0.75,-0.19 1.08,-0.52 0.4,-0.4 0.67,-1.09 0.8,-2.07 l 0.28,-2.1 1.69,1.7 0.43,-0.43 z m 0.99,4.48 c 0.6,-0.6 0.97,-1.14 1.09,-1.61 0.12,-0.48 0,-0.9 -0.38,-1.28 -0.37,-0.37 -0.78,-0.49 -1.25,-0.39 -0.46,0.11 -0.99,0.45 -1.57,1.01 l -0.7,0.71 c -0.6,0.59 -0.96,1.13 -1.07,1.6 -0.12,0.47 0.01,0.89 0.38,1.27 0.37,0.36 0.78,0.5 1.24,0.4 0.46,-0.11 0.97,-0.44 1.55,-0.99 l 0.71,-0.72 z m -1.21,0.22 c -0.43,0.43 -0.8,0.7 -1.1,0.81 -0.3,0.11 -0.55,0.06 -0.76,-0.15 -0.21,-0.21 -0.25,-0.46 -0.15,-0.75 0.11,-0.3 0.36,-0.65 0.76,-1.06 l 0.85,-0.85 c 0.43,-0.43 0.8,-0.7 1.12,-0.82 0.31,-0.11 0.57,-0.07 0.77,0.13 0.21,0.21 0.25,0.46 0.15,0.76 -0.11,0.3 -0.38,0.66 -0.79,1.08 l -0.85,0.85 z m 5.89,0.98 -2.28,-2.29 -0.38,0.37 -0.37,2.71 c -0.07,0.42 -0.14,0.74 -0.22,0.96 -0.09,0.22 -0.22,0.41 -0.39,0.58 -0.21,0.22 -0.44,0.35 -0.68,0.38 -0.23,0.03 -0.43,-0.03 -0.6,-0.2 -0.2,-0.21 -0.29,-0.44 -0.26,-0.69 0.03,-0.26 0.18,-0.52 0.45,-0.79 l -0.5,-0.5 c -0.38,0.38 -0.58,0.78 -0.6,1.22 -0.03,0.44 0.13,0.84 0.49,1.19 0.32,0.33 0.68,0.48 1.07,0.47 0.38,-0.01 0.74,-0.18 1.07,-0.52 0.41,-0.4 0.67,-1.09 0.81,-2.06 l 0.28,-2.1 1.69,1.69 0.42,-0.42 z m -1.29,2.8 -1.86,2.22 1.77,1.77 0.48,-0.48 -1.36,-1.36 1.02,-1.21 c 0.05,0.29 0.18,0.53 0.37,0.73 0.32,0.31 0.69,0.44 1.12,0.37 0.43,-0.06 0.85,-0.3 1.27,-0.72 0.42,-0.42 0.66,-0.85 0.7,-1.29 0.05,-0.44 -0.1,-0.83 -0.45,-1.18 -0.31,-0.31 -0.66,-0.46 -1.05,-0.45 -0.39,0.01 -0.78,0.18 -1.16,0.5 l 0.46,0.47 c 0.27,-0.21 0.51,-0.32 0.73,-0.33 0.23,-0.01 0.43,0.07 0.6,0.24 0.19,0.19 0.26,0.42 0.2,0.7 -0.06,0.28 -0.23,0.56 -0.52,0.84 -0.27,0.27 -0.54,0.43 -0.83,0.48 -0.28,0.05 -0.52,-0.02 -0.72,-0.22 -0.17,-0.17 -0.26,-0.34 -0.27,-0.53 l 0,-0.26 -0.5,-0.29 z"/>
      </g>
    </g>
    <g id="g364">
      <g clip-path="url(#clipPath368)" id="g366">
        <path id="path372" style="fill:#000000;fill-opacity:1;fill-rule:nonzero;stroke:none" d="m 511.63,266.75 0.52,0.52 2.9,-2.9 c 0.39,-0.39 0.59,-0.8 0.61,-1.22 0.03,-0.42 -0.13,-0.79 -0.47,-1.13 -0.34,-0.35 -0.72,-0.51 -1.12,-0.5 -0.4,0.02 -0.79,0.22 -1.16,0.59 l 0.51,0.51 c 0.24,-0.23 0.47,-0.37 0.7,-0.39 0.24,-0.03 0.45,0.05 0.63,0.23 0.18,0.18 0.25,0.39 0.21,0.64 -0.03,0.25 -0.18,0.5 -0.43,0.76 l -2.9,2.89 z m 6.66,-0.99 c 0.05,-0.38 -0.09,-0.73 -0.4,-1.05 -0.28,-0.27 -0.58,-0.38 -0.91,-0.33 -0.33,0.05 -0.68,0.25 -1.04,0.61 l -1.98,1.98 0.49,0.5 1.94,-1.95 c 0.48,-0.47 0.86,-0.56 1.14,-0.28 0.3,0.3 0.38,0.64 0.22,1.03 l -2.25,2.25 0.5,0.49 3.04,-3.03 -0.48,-0.48 -0.27,0.26 z m -1.02,4.53 0.34,-0.32 c -0.06,0.45 0.06,0.83 0.36,1.13 0.53,0.53 1.17,0.45 1.89,-0.26 l 2.02,-2.02 -0.49,-0.5 -2,2 c -0.24,0.24 -0.45,0.37 -0.63,0.39 -0.18,0.02 -0.35,-0.05 -0.51,-0.21 -0.12,-0.12 -0.19,-0.27 -0.21,-0.46 -0.01,-0.18 0.02,-0.36 0.09,-0.56 l 2.21,-2.2 -0.5,-0.5 -3.04,3.04 0.47,0.47 z m 4.73,1.7 -1.16,-1.16 -0.43,0.42 1.16,1.16 0.43,-0.42 z m 4.23,1.17 -2.29,-2.28 -0.37,0.37 -0.38,2.71 c -0.07,0.42 -0.14,0.73 -0.22,0.95 -0.09,0.22 -0.21,0.42 -0.38,0.59 -0.22,0.22 -0.45,0.34 -0.68,0.38 -0.24,0.03 -0.44,-0.03 -0.6,-0.2 -0.21,-0.21 -0.3,-0.44 -0.27,-0.7 0.03,-0.25 0.18,-0.52 0.45,-0.78 l -0.5,-0.5 c -0.38,0.37 -0.58,0.78 -0.6,1.22 -0.03,0.44 0.13,0.83 0.49,1.19 0.32,0.32 0.68,0.48 1.07,0.47 0.38,-0.01 0.74,-0.19 1.07,-0.52 0.41,-0.4 0.68,-1.09 0.81,-2.06 l 0.28,-2.1 1.69,1.69 0.43,-0.43 z m 0.99,4.48 c 0.6,-0.6 0.96,-1.14 1.09,-1.61 0.12,-0.48 -0.01,-0.9 -0.38,-1.28 -0.37,-0.36 -0.79,-0.49 -1.25,-0.39 -0.47,0.11 -0.99,0.45 -1.57,1.02 l -0.71,0.7 c -0.59,0.59 -0.95,1.13 -1.07,1.6 -0.11,0.47 0.01,0.89 0.39,1.27 0.37,0.37 0.78,0.5 1.24,0.4 0.45,-0.1 0.97,-0.43 1.54,-0.99 l 0.72,-0.72 z m -1.21,0.22 c -0.43,0.43 -0.8,0.7 -1.1,0.81 -0.3,0.11 -0.56,0.06 -0.76,-0.15 -0.21,-0.2 -0.26,-0.45 -0.15,-0.75 0.1,-0.3 0.36,-0.65 0.76,-1.06 l 0.84,-0.84 c 0.43,-0.43 0.81,-0.71 1.12,-0.82 0.32,-0.12 0.58,-0.08 0.78,0.13 0.2,0.2 0.25,0.45 0.14,0.75 -0.11,0.3 -0.37,0.66 -0.78,1.08 l -0.85,0.85 z m 5.89,0.98 -2.29,-2.29 -0.37,0.38 -0.38,2.71 c -0.06,0.41 -0.13,0.73 -0.22,0.95 -0.08,0.22 -0.21,0.42 -0.38,0.59 -0.22,0.21 -0.44,0.34 -0.68,0.37 -0.24,0.04 -0.44,-0.03 -0.6,-0.19 -0.21,-0.21 -0.3,-0.44 -0.27,-0.7 0.03,-0.26 0.18,-0.52 0.45,-0.79 l -0.49,-0.5 c -0.38,0.38 -0.58,0.79 -0.61,1.22 -0.02,0.44 0.14,0.84 0.49,1.19 0.33,0.33 0.68,0.48 1.07,0.47 0.39,-0.01 0.75,-0.18 1.08,-0.51 0.4,-0.41 0.67,-1.1 0.8,-2.07 l 0.28,-2.1 1.7,1.69 0.42,-0.42 z m -1.22,2.88 -1.86,2.22 1.78,1.77 0.48,-0.48 -1.36,-1.36 1.02,-1.21 c 0.05,0.29 0.17,0.53 0.36,0.72 0.32,0.32 0.7,0.45 1.12,0.38 0.43,-0.06 0.86,-0.3 1.27,-0.72 0.43,-0.42 0.66,-0.85 0.7,-1.29 0.05,-0.44 -0.1,-0.83 -0.45,-1.18 -0.3,-0.31 -0.65,-0.46 -1.05,-0.45 -0.39,0.01 -0.78,0.18 -1.16,0.5 l 0.47,0.47 c 0.26,-0.21 0.5,-0.32 0.73,-0.33 0.22,-0.01 0.42,0.06 0.59,0.23 0.19,0.2 0.26,0.43 0.2,0.71 -0.06,0.27 -0.23,0.55 -0.51,0.84 -0.27,0.27 -0.55,0.43 -0.83,0.48 -0.29,0.05 -0.53,-0.02 -0.73,-0.22 -0.17,-0.17 -0.25,-0.34 -0.27,-0.53 l 0,-0.26 -0.5,-0.29 z"/>
      </g>
    </g>
    <path id="path374" style="fill:#ffffff;fill-opacity:1;fill-rule:evenodd;stroke:none" d="m 75.26,545.48 444.94,0 0,15.085 -444.94,0 0,-15.085 z"/>
    <path id="path376" style="fill:none;stroke:#005aa4;stroke-width:2.03340006;stroke-linecap:round;stroke-linejoin:round;stroke-miterlimit:10;stroke-dasharray:none;stroke-opacity:1" d="m 89.487,553.03 22.773,0"/>
    <g id="g378">
      <g clip-path="url(#clipPath382)" id="g380"><text id="text386" style="font-variant:normal;font-weight:normal;font-size:8.13599968px;font-family:'Roboto Condensed';-inkscape-font-specification:RobotoCondensed-Regular;writing-mode:lr-tb;fill:#000000;fill-opacity:1;fill-rule:nonzero;stroke:none" transform="matrix(1,0,0,-1,114.79,550.58)"><tspan id="tspan388" y="0" x="0 4.2388558 8.3475361 10.747656 14.6448 16.483536 18.34668 24.513767 26.376911 28.207512 30.070656 32.430096 36.32724 38.83313 42.193295 44.056438 47.953583 49.816727 53.917271 55.780415 59.677559 61.540703 63.371304 67.488121 71.181862 75.07901 77.479126 81.376274 85.387321 87.250465 89.805168 93.848763 97.745903 100.21925 104.36047 108.37152 112.17917">Total military aid allocated (Europe)</tspan></text>
</g>
    </g>
    <g id="g390">
      <path id="path392" style="fill:none;stroke:#e0d19e;stroke-width:1.3556;stroke-linecap:round;stroke-linejoin:round;stroke-miterlimit:10;stroke-dasharray:2.7112, 2.7112;stroke-dashoffset:0;stroke-opacity:1" d="m 243.34,553.03 22.77,0"/>
    </g>
    <g id="g394">
      <g clip-path="url(#clipPath398)" id="g396"><text id="text402" style="font-variant:normal;font-weight:normal;font-size:8.13599968px;font-family:'Roboto Condensed';-inkscape-font-specification:RobotoCondensed-Regular;writing-mode:lr-tb;fill:#000000;fill-opacity:1;fill-rule:nonzero;stroke:none" transform="matrix(1,0,0,-1,268.68,550.58)"><tspan id="tspan404" y="0" x="0 4.2388558 8.3231277 10.723248 14.595984 16.459127 18.289728 24.448681 26.311825 28.142424 30.005568 32.365009 36.262154 38.735497 42.128208 43.958809 47.855953 49.719097 53.787094 55.650242 59.547382 61.369846 63.23299 67.317261 70.994736 74.891876 77.259453 81.140327 85.151375 87.014519 89.569221 93.612816 98.160843">Total military aid allocated (EU)</tspan></text>
</g>
    </g>
    <path id="path406" style="fill:none;stroke:#226b5a;stroke-width:1.3556;stroke-linecap:round;stroke-linejoin:round;stroke-miterlimit:10;stroke-dasharray:none;stroke-opacity:1" d="m 383.45,553.03 22.77,0"/>
    <g id="g408">
      <g clip-path="url(#clipPath412)" id="g410"><text id="text416" style="font-variant:normal;font-weight:normal;font-size:8.13599968px;font-family:'Roboto Condensed';-inkscape-font-specification:RobotoCondensed-Regular;writing-mode:lr-tb;fill:#000000;fill-opacity:1;fill-rule:nonzero;stroke:none" transform="matrix(1,0,0,-1,408.82,550.58)"><tspan id="tspan418" y="0" x="0 4.2388558 8.3231277 10.723248 14.595984 16.418447 18.240911 24.399864 26.222328 28.044792 29.867256 32.267376 36.131977 38.60532 41.998032 43.812359 47.709503 49.52383 53.616241 55.438705 59.33585 61.150177 62.972641 67.056915 70.750656 74.647797 77.015373 80.896248 84.907295 86.729759 89.317009 93.856895 98.071342">Total military aid allocated (US)</tspan></text>
</g>
    </g>
  </g>
</svg>
