<?xml version="1.0" encoding="UTF-8" standalone="no"?>
<svg xmlns:dc="http://purl.org/dc/elements/1.1/" xmlns:cc="http://creativecommons.org/ns#" xmlns:rdf="http://www.w3.org/1999/02/22-rdf-syntax-ns#" xmlns:svg="http://www.w3.org/2000/svg" xmlns="http://www.w3.org/2000/svg" viewBox="63.1225 392.85 618.0275 317.1" height="317.1" width="618.0275" xml:space="preserve" version="1.1" id="svg2">
  <metadata id="metadata8">
    <rdf:RDF>
      <cc:Work rdf:about="">
        <dc:format>image/svg+xml</dc:format>
        <dc:type rdf:resource="http://purl.org/dc/dcmitype/StillImage"/>
      </cc:Work>
    </rdf:RDF>
  </metadata>
  <defs id="defs6">
    <clipPath id="clipPath16" clipPathUnits="userSpaceOnUse">
      <path style="clip-rule:evenodd" id="path18" d="m 50.4,273.96 494.52,0 0,253.8 -494.52,0 0,-253.8 z"/>
    </clipPath>
    <clipPath id="clipPath26" clipPathUnits="userSpaceOnUse">
      <path style="clip-rule:evenodd" id="path28" d="m 50.4,273.96 494.52,0 0,253.8 -494.52,0 0,-253.8 z"/>
    </clipPath>
    <clipPath id="clipPath56" clipPathUnits="userSpaceOnUse">
      <path style="clip-rule:evenodd" id="path58" d="m 50.52,273.96 494.4,0 0,253.68 -494.4,0 0,-253.68 z"/>
    </clipPath>
    <clipPath id="clipPath68" clipPathUnits="userSpaceOnUse">
      <path style="clip-rule:evenodd" id="path70" d="m 50.52,273.96 494.4,0 0,253.68 -494.4,0 0,-253.68 z"/>
    </clipPath>
    <clipPath id="clipPath80" clipPathUnits="userSpaceOnUse">
      <path style="clip-rule:evenodd" id="path82" d="m 50.52,273.96 494.4,0 0,253.68 -494.4,0 0,-253.68 z"/>
    </clipPath>
    <clipPath id="clipPath92" clipPathUnits="userSpaceOnUse">
      <path style="clip-rule:evenodd" id="path94" d="m 50.52,273.96 494.4,0 0,253.68 -494.4,0 0,-253.68 z"/>
    </clipPath>
    <clipPath id="clipPath104" clipPathUnits="userSpaceOnUse">
      <path style="clip-rule:evenodd" id="path106" d="m 50.52,273.96 494.4,0 0,253.68 -494.4,0 0,-253.68 z"/>
    </clipPath>
    <clipPath id="clipPath116" clipPathUnits="userSpaceOnUse">
      <path style="clip-rule:evenodd" id="path118" d="m 50.52,273.96 494.4,0 0,253.68 -494.4,0 0,-253.68 z"/>
    </clipPath>
    <clipPath id="clipPath128" clipPathUnits="userSpaceOnUse">
      <path style="clip-rule:evenodd" id="path130" d="m 50.52,273.96 494.4,0 0,253.68 -494.4,0 0,-253.68 z"/>
    </clipPath>
    <clipPath id="clipPath140" clipPathUnits="userSpaceOnUse">
      <path style="clip-rule:evenodd" id="path142" d="m 50.52,273.96 494.4,0 0,253.68 -494.4,0 0,-253.68 z"/>
    </clipPath>
    <clipPath id="clipPath152" clipPathUnits="userSpaceOnUse">
      <path style="clip-rule:evenodd" id="path154" d="m 50.52,273.96 494.4,0 0,253.68 -494.4,0 0,-253.68 z"/>
    </clipPath>
    <clipPath id="clipPath164" clipPathUnits="userSpaceOnUse">
      <path style="clip-rule:evenodd" id="path166" d="m 50.52,273.96 494.4,0 0,253.68 -494.4,0 0,-253.68 z"/>
    </clipPath>
    <clipPath id="clipPath176" clipPathUnits="userSpaceOnUse">
      <path style="clip-rule:evenodd" id="path178" d="m 50.52,273.96 494.4,0 0,253.68 -494.4,0 0,-253.68 z"/>
    </clipPath>
    <clipPath id="clipPath188" clipPathUnits="userSpaceOnUse">
      <path style="clip-rule:evenodd" id="path190" d="m 50.52,273.96 494.4,0 0,253.68 -494.4,0 0,-253.68 z"/>
    </clipPath>
    <clipPath id="clipPath200" clipPathUnits="userSpaceOnUse">
      <path style="clip-rule:evenodd" id="path202" d="m 50.52,273.96 494.4,0 0,253.68 -494.4,0 0,-253.68 z"/>
    </clipPath>
    <clipPath id="clipPath212" clipPathUnits="userSpaceOnUse">
      <path style="clip-rule:evenodd" id="path214" d="m 50.52,273.96 494.4,0 0,253.68 -494.4,0 0,-253.68 z"/>
    </clipPath>
    <clipPath id="clipPath224" clipPathUnits="userSpaceOnUse">
      <path style="clip-rule:evenodd" id="path226" d="m 50.52,273.96 494.4,0 0,253.68 -494.4,0 0,-253.68 z"/>
    </clipPath>
    <clipPath id="clipPath236" clipPathUnits="userSpaceOnUse">
      <path style="clip-rule:evenodd" id="path238" d="m 50.52,273.96 494.4,0 0,253.68 -494.4,0 0,-253.68 z"/>
    </clipPath>
    <clipPath id="clipPath248" clipPathUnits="userSpaceOnUse">
      <path style="clip-rule:evenodd" id="path250" d="m 50.52,273.96 494.4,0 0,253.68 -494.4,0 0,-253.68 z"/>
    </clipPath>
    <clipPath id="clipPath260" clipPathUnits="userSpaceOnUse">
      <path style="clip-rule:evenodd" id="path262" d="m 50.52,273.96 494.4,0 0,253.68 -494.4,0 0,-253.68 z"/>
    </clipPath>
    <clipPath id="clipPath272" clipPathUnits="userSpaceOnUse">
      <path style="clip-rule:evenodd" id="path274" d="m 50.52,273.96 494.4,0 0,253.68 -494.4,0 0,-253.68 z"/>
    </clipPath>
    <clipPath id="clipPath284" clipPathUnits="userSpaceOnUse">
      <path style="clip-rule:evenodd" id="path286" d="m 50.52,273.96 494.4,0 0,253.68 -494.4,0 0,-253.68 z"/>
    </clipPath>
    <clipPath id="clipPath296" clipPathUnits="userSpaceOnUse">
      <path style="clip-rule:evenodd" id="path298" d="m 50.52,273.96 494.4,0 0,253.68 -494.4,0 0,-253.68 z"/>
    </clipPath>
    <clipPath id="clipPath310" clipPathUnits="userSpaceOnUse">
      <path style="clip-rule:evenodd" id="path312" d="m 50.52,273.96 494.4,0 0,253.68 -494.4,0 0,-253.68 z"/>
    </clipPath>
    <clipPath id="clipPath326" clipPathUnits="userSpaceOnUse">
      <path style="clip-rule:evenodd" id="path328" d="m 50.52,273.96 494.4,0 0,253.68 -494.4,0 0,-253.68 z"/>
    </clipPath>
    <clipPath id="clipPath340" clipPathUnits="userSpaceOnUse">
      <path style="clip-rule:evenodd" id="path342" d="m 50.52,273.96 494.4,0 0,253.68 -494.4,0 0,-253.68 z"/>
    </clipPath>
    <clipPath id="clipPath354" clipPathUnits="userSpaceOnUse">
      <path style="clip-rule:evenodd" id="path356" d="m 50.52,273.96 494.4,0 0,253.68 -494.4,0 0,-253.68 z"/>
    </clipPath>
    <clipPath id="clipPath368" clipPathUnits="userSpaceOnUse">
      <path style="clip-rule:evenodd" id="path370" d="m 50.52,273.96 494.4,0 0,253.68 -494.4,0 0,-253.68 z"/>
    </clipPath>
    <clipPath id="clipPath382" clipPathUnits="userSpaceOnUse">
      <path style="clip-rule:evenodd" id="path384" d="m 50.52,273.96 494.4,0 0,253.68 -494.4,0 0,-253.68 z"/>
    </clipPath>
  </defs>
  <g transform="matrix(1.25,0,0,-1.25,0,1052.4)" id="g10">
    <g id="g12">
      <g clip-path="url(#clipPath16)" id="g14">
        <path id="path20" style="fill:none;stroke:#000000;stroke-width:0.14;stroke-linecap:butt;stroke-linejoin:miter;stroke-miterlimit:10;stroke-dasharray:none;stroke-opacity:0" d="m 50.568,273.94 494.4,0 0,253.63 -494.4,0 0,-253.63 z"/>
      </g>
    </g>
    <g id="g22">
      <g clip-path="url(#clipPath26)" id="g24">
        <path id="path30" style="fill:#ffffff;fill-opacity:1;fill-rule:evenodd;stroke:none" d="m 50.568,273.94 494.4,0 0,253.63 -494.4,0 0,-253.63 z"/>
      </g>
    </g>
    <path id="path32" style="fill:#ffffff;fill-opacity:1;fill-rule:evenodd;stroke:none" d="m 88.148,322.94 449.76,0 0,178.62 -449.76,0 0,-178.62 z"/>
    <path id="path34" style="fill:none;stroke:#969696;stroke-width:1.00150001;stroke-linecap:butt;stroke-linejoin:round;stroke-miterlimit:10;stroke-dasharray:none;stroke-opacity:1" d="m 88.148,352.71 449.762,0"/>
    <path id="path36" style="fill:none;stroke:#969696;stroke-width:1.00150001;stroke-linecap:butt;stroke-linejoin:round;stroke-miterlimit:10;stroke-dasharray:none;stroke-opacity:1" d="m 88.148,352.71 0,-4.22 m 32.202,4.22 0,-4.22 m 32.04,4.22 0,-4.22 m 32.21,4.22 0,-4.22 m 32.05,4.22 0,-4.22 m 32.05,4.22 0,-4.22 m 32.21,4.22 0,-4.22 m 32.05,4.22 0,-4.22 m 32.21,4.22 0,-4.22 m 32.05,4.22 0,-4.22 m 32.21,4.22 0,-4.22 m 32.05,4.22 0,-4.22 m 32.21,4.22 0,-4.22 m 32.05,4.22 0,-4.22 m 32.17,4.22 0,-4.22"/>
    <path id="path38" style="fill:none;stroke:#d0b86a;stroke-width:2.67079997;stroke-linecap:round;stroke-linejoin:round;stroke-miterlimit:10;stroke-dasharray:none;stroke-opacity:1" d="m 104.21,352.71 32.16,24.38 96.31,42.14 96.47,27.24 96.3,7.54 96.39,17.52"/>
    <g id="g40">
      <path id="path42" style="fill:none;stroke:#005aa4;stroke-width:2.67079997;stroke-linecap:round;stroke-linejoin:round;stroke-miterlimit:10;stroke-dasharray:8.0123, 10.683;stroke-dashoffset:0;stroke-opacity:1" d="m 104.21,352.71 32.16,5.47 96.31,7.05 96.47,7.05 96.3,12.18 96.39,12.23"/>
    </g>
    <path id="path44" style="fill:none;stroke:#00a1e2;stroke-width:2.67079997;stroke-linecap:round;stroke-linejoin:round;stroke-miterlimit:10;stroke-dasharray:none;stroke-opacity:1" d="m 104.21,352.71 32.16,24.22 96.31,48.07 96.47,46.92 96.3,-19.68 96.39,8.34"/>
    <path id="path46" style="fill:none;stroke:#6769b5;stroke-width:2.67079997;stroke-linecap:round;stroke-linejoin:round;stroke-miterlimit:10;stroke-dasharray:none;stroke-opacity:1" d="m 104.21,352.71 32.16,20.37 96.31,31.09 96.47,39.58 96.3,6.89 96.39,16.08"/>
    <path id="path48" style="fill:none;stroke:#93959b;stroke-width:2.67079997;stroke-linecap:round;stroke-linejoin:round;stroke-miterlimit:10;stroke-dasharray:none;stroke-opacity:1" d="m 104.21,352.73 32.16,3.85 96.31,16.66 96.47,6.56 96.3,-25.15 96.39,-7.21"/>
    <path id="path50" style="fill:none;stroke:#97d0ff;stroke-width:2.67079997;stroke-linecap:round;stroke-linejoin:round;stroke-miterlimit:10;stroke-dasharray:none;stroke-opacity:1" d="m 104.21,352.71 32.16,8.03 96.31,24.04 96.47,14.17 96.3,-17.86 96.39,0.32"/>
    <g id="g52">
      <g clip-path="url(#clipPath56)" id="g54"><text id="text60" style="font-variant:normal;font-weight:normal;font-size:12px;font-family:'Roboto Condensed';-inkscape-font-specification:RobotoCondensed-Regular;writing-mode:lr-tb;fill:#000000;fill-opacity:1;fill-rule:nonzero;stroke:none" transform="matrix(1,0,0,-1,60.624,319.3)"><tspan id="tspan62" y="0" x="0 3.036 8.9639997">-2%</tspan></text>
</g>
    </g>
    <g id="g64">
      <g clip-path="url(#clipPath68)" id="g66"><text id="text72" style="font-variant:normal;font-weight:normal;font-size:12.02400017px;font-family:'Roboto Condensed';-inkscape-font-specification:RobotoCondensed-Regular;writing-mode:lr-tb;fill:#000000;fill-opacity:1;fill-rule:nonzero;stroke:none" transform="matrix(1,0,0,-1,63.6,349.08)"><tspan id="tspan74" y="0" x="0 5.9279561">0%</tspan></text>
</g>
    </g>
    <g id="g76">
      <g clip-path="url(#clipPath80)" id="g78"><text id="text84" style="font-variant:normal;font-weight:normal;font-size:12.02400017px;font-family:'Roboto Condensed';-inkscape-font-specification:RobotoCondensed-Regular;writing-mode:lr-tb;fill:#000000;fill-opacity:1;fill-rule:nonzero;stroke:none" transform="matrix(1,0,0,-1,63.6,378.86)"><tspan id="tspan86" y="0" x="0 5.9279561">2%</tspan></text>
</g>
    </g>
    <g id="g88">
      <g clip-path="url(#clipPath92)" id="g90"><text id="text96" style="font-variant:normal;font-weight:normal;font-size:12.02400017px;font-family:'Roboto Condensed';-inkscape-font-specification:RobotoCondensed-Regular;writing-mode:lr-tb;fill:#000000;fill-opacity:1;fill-rule:nonzero;stroke:none" transform="matrix(1,0,0,-1,63.6,408.62)"><tspan id="tspan98" y="0" x="0 5.9279561">4%</tspan></text>
</g>
    </g>
    <g id="g100">
      <g clip-path="url(#clipPath104)" id="g102"><text id="text108" style="font-variant:normal;font-weight:normal;font-size:12.02400017px;font-family:'Roboto Condensed';-inkscape-font-specification:RobotoCondensed-Regular;writing-mode:lr-tb;fill:#000000;fill-opacity:1;fill-rule:nonzero;stroke:none" transform="matrix(1,0,0,-1,63.6,438.41)"><tspan id="tspan110" y="0" x="0 5.9279561">6%</tspan></text>
</g>
    </g>
    <g id="g112">
      <g clip-path="url(#clipPath116)" id="g114"><text id="text120" style="font-variant:normal;font-weight:normal;font-size:12px;font-family:'Roboto Condensed';-inkscape-font-specification:RobotoCondensed-Regular;writing-mode:lr-tb;fill:#000000;fill-opacity:1;fill-rule:nonzero;stroke:none" transform="matrix(1,0,0,-1,63.6,468.17)"><tspan id="tspan122" y="0" x="0 5.928">8%</tspan></text>
</g>
    </g>
    <g id="g124">
      <g clip-path="url(#clipPath128)" id="g126"><text id="text132" style="font-variant:normal;font-weight:normal;font-size:12.02400017px;font-family:'Roboto Condensed';-inkscape-font-specification:RobotoCondensed-Regular;writing-mode:lr-tb;fill:#000000;fill-opacity:1;fill-rule:nonzero;stroke:none" transform="matrix(1,0,0,-1,57.672,497.95)"><tspan id="tspan134" y="0" x="0 5.9279561 11.855912">10%</tspan></text>
</g>
    </g>
    <g id="g136">
      <g clip-path="url(#clipPath140)" id="g138"><text id="text144" style="font-variant:normal;font-weight:normal;font-size:13.29599953px;font-family:'Roboto Condensed';-inkscape-font-specification:RobotoCondensed-Regular;writing-mode:lr-tb;fill:#000000;fill-opacity:1;fill-rule:nonzero;stroke:none" transform="matrix(-4.4e-8,1,1,4.4e-8,108.89,277.25)"><tspan id="tspan146" y="0" x="0 8.3100004 14.864928 20.608801 23.959393 30.527617">Nov-25</tspan></text>
</g>
    </g>
    <g id="g148">
      <g clip-path="url(#clipPath152)" id="g150"><text id="text156" style="font-variant:normal;font-weight:normal;font-size:13.31999969px;font-family:'Roboto Condensed';-inkscape-font-specification:RobotoCondensed-Regular;writing-mode:lr-tb;fill:#000000;fill-opacity:1;fill-rule:nonzero;stroke:none" transform="matrix(-4.4e-8,1,1,4.4e-8,141,277.87)"><tspan id="tspan158" y="0" x="0 7.6723199 13.90608 20.006639 23.34996 29.93004">Dec-25</tspan></text>
</g>
    </g>
    <g id="g160">
      <g clip-path="url(#clipPath164)" id="g162"><text id="text168" style="font-variant:normal;font-weight:normal;font-size:13.31999969px;font-family:'Roboto Condensed';-inkscape-font-specification:RobotoCondensed-Regular;writing-mode:lr-tb;fill:#000000;fill-opacity:1;fill-rule:nonzero;stroke:none" transform="matrix(-4.4e-8,1,1,4.4e-8,173.14,278.59)"><tspan id="tspan170" y="0" x="0 6.4335599 12.81384 19.3806 22.590719 29.170799">Jan-26</tspan></text>
</g>
    </g>
    <g id="g172">
      <g clip-path="url(#clipPath176)" id="g174"><text id="text180" style="font-variant:normal;font-weight:normal;font-size:13.29599953px;font-family:'Roboto Condensed';-inkscape-font-specification:RobotoCondensed-Regular;writing-mode:lr-tb;fill:#000000;fill-opacity:1;fill-rule:nonzero;stroke:none" transform="matrix(-4.4e-8,1,1,4.4e-8,205.27,278.66)"><tspan id="tspan182" y="0" x="0 6.3820801 12.6312 19.186129 22.550016 29.11824">Feb-26</tspan></text>
</g>
    </g>
    <g id="g184">
      <g clip-path="url(#clipPath188)" id="g186"><text id="text192" style="font-variant:normal;font-weight:normal;font-size:13.29599953px;font-family:'Roboto Condensed';-inkscape-font-specification:RobotoCondensed-Regular;writing-mode:lr-tb;fill:#000000;fill-opacity:1;fill-rule:nonzero;stroke:none" transform="matrix(-4.4e-8,1,1,4.4e-8,237.41,277.37)"><tspan id="tspan194" y="0" x="0 10.091664 16.460447 20.502432 23.853024 30.421247">Mar-26</tspan></text>
</g>
    </g>
    <g id="g196">
      <g clip-path="url(#clipPath200)" id="g198"><text id="text204" style="font-variant:normal;font-weight:normal;font-size:13.29599953px;font-family:'Roboto Condensed';-inkscape-font-specification:RobotoCondensed-Regular;writing-mode:lr-tb;fill:#000000;fill-opacity:1;fill-rule:nonzero;stroke:none" transform="matrix(-4.4e-8,1,1,4.4e-8,269.54,279.58)"><tspan id="tspan206" y="0" x="0 7.6850882 14.240016 18.282 21.645887 28.214111">Apr-26</tspan></text>
</g>
    </g>
    <g id="g208">
      <g clip-path="url(#clipPath212)" id="g210"><text id="text216" style="font-variant:normal;font-weight:normal;font-size:13.29599953px;font-family:'Roboto Condensed';-inkscape-font-specification:RobotoCondensed-Regular;writing-mode:lr-tb;fill:#000000;fill-opacity:1;fill-rule:nonzero;stroke:none" transform="matrix(-4.4e-8,1,1,4.4e-8,301.68,275.88)"><tspan id="tspan218" y="0" x="0 10.065072 16.433855 22.058064 25.249104 31.817327">May-26</tspan></text>
</g>
    </g>
    <g id="g220">
      <g clip-path="url(#clipPath224)" id="g222"><text id="text228" style="font-variant:normal;font-weight:normal;font-size:13.31999969px;font-family:'Roboto Condensed';-inkscape-font-specification:RobotoCondensed-Regular;writing-mode:lr-tb;fill:#000000;fill-opacity:1;fill-rule:nonzero;stroke:none" transform="matrix(-4.4e-8,1,1,4.4e-8,333.79,278.54)"><tspan id="tspan230" y="0" x="0 6.4335599 12.97368 19.420561 22.723921 29.304001">Jun-26</tspan></text>
</g>
    </g>
    <g id="g232">
      <g clip-path="url(#clipPath236)" id="g234"><text id="text240" style="font-variant:normal;font-weight:normal;font-size:13.31999969px;font-family:'Roboto Condensed';-inkscape-font-specification:RobotoCondensed-Regular;writing-mode:lr-tb;fill:#000000;fill-opacity:1;fill-rule:nonzero;stroke:none" transform="matrix(-4.4e-8,1,1,4.4e-8,365.93,281.95)"><tspan id="tspan242" y="0" x="0 6.4335599 12.97368 16.02396 19.207439 25.787519">Jul-26</tspan></text>
</g>
    </g>
    <g id="g244">
      <g clip-path="url(#clipPath248)" id="g246"><text id="text252" style="font-variant:normal;font-weight:normal;font-size:13.29599953px;font-family:'Roboto Condensed';-inkscape-font-specification:RobotoCondensed-Regular;writing-mode:lr-tb;fill:#000000;fill-opacity:1;fill-rule:nonzero;stroke:none" transform="matrix(-4.4e-8,1,1,4.4e-8,398.06,277.2)"><tspan id="tspan254" y="0" x="0 7.6584959 14.080464 20.635391 23.985985 30.554209">Aug-26</tspan></text>
</g>
    </g>
    <g id="g256">
      <g clip-path="url(#clipPath260)" id="g258"><text id="text264" style="font-variant:normal;font-weight:normal;font-size:13.29599953px;font-family:'Roboto Condensed';-inkscape-font-specification:RobotoCondensed-Regular;writing-mode:lr-tb;fill:#000000;fill-opacity:1;fill-rule:nonzero;stroke:none" transform="matrix(-4.4e-8,1,1,4.4e-8,430.2,278.16)"><tspan id="tspan266" y="0" x="0 6.8873281 13.109856 19.664783 23.055264 29.623487">Sep-26</tspan></text>
</g>
    </g>
    <g id="g268">
      <g clip-path="url(#clipPath272)" id="g270"><text id="text276" style="font-variant:normal;font-weight:normal;font-size:13.29599953px;font-family:'Roboto Condensed';-inkscape-font-specification:RobotoCondensed-Regular;writing-mode:lr-tb;fill:#000000;fill-opacity:1;fill-rule:nonzero;stroke:none" transform="matrix(-4.4e-8,1,1,4.4e-8,462.34,279.79)"><tspan id="tspan278" y="0" x="0 7.9908962 14.213424 18.055967 21.406561 27.974785">Oct-26</tspan></text>
</g>
    </g>
    <g id="g280">
      <g clip-path="url(#clipPath284)" id="g282"><text id="text288" style="font-variant:normal;font-weight:normal;font-size:13.29599953px;font-family:'Roboto Condensed';-inkscape-font-specification:RobotoCondensed-Regular;writing-mode:lr-tb;fill:#000000;fill-opacity:1;fill-rule:nonzero;stroke:none" transform="matrix(-4.4e-8,1,1,4.4e-8,494.47,277.25)"><tspan id="tspan290" y="0" x="0 8.3100004 14.864928 20.608801 23.959393 30.527617">Nov-26</tspan></text>
</g>
    </g>
    <g id="g292">
      <g clip-path="url(#clipPath296)" id="g294"><text id="text300" style="font-variant:normal;font-weight:normal;font-size:13.31999969px;font-family:'Roboto Condensed';-inkscape-font-specification:RobotoCondensed-Regular;writing-mode:lr-tb;fill:#000000;fill-opacity:1;fill-rule:nonzero;stroke:none" transform="matrix(-4.4e-8,1,1,4.4e-8,526.58,277.87)"><tspan id="tspan302" y="0" x="0 7.6723199 13.90608 20.006639 23.34996 29.93004">Dec-26</tspan></text>
</g>
    </g>
    <path id="path304" style="fill:none;stroke:#d0b86a;stroke-width:2.67079997;stroke-linecap:round;stroke-linejoin:round;stroke-miterlimit:10;stroke-dasharray:none;stroke-opacity:1" d="m 111.61,512.09 33.65,0"/>
    <g id="g306">
      <g clip-path="url(#clipPath310)" id="g308"><text id="text314" style="font-variant:normal;font-weight:normal;font-size:12.02400017px;font-family:'Roboto Condensed';-inkscape-font-specification:RobotoCondensed-Regular;writing-mode:lr-tb;fill:#000000;fill-opacity:1;fill-rule:nonzero;stroke:none" transform="matrix(1,0,0,-1,148.99,508.49)"><tspan id="tspan316" y="0" x="0 6.2284322 12.348648 17.494921 20.248417 26.969831 30.649176 36.276409 42.192215 45.065952 48.613033 51.330456 55.154087 61.418591 67.683098">Sov Credit (TR)</tspan></text>
</g>
    </g>
    <g id="g318">
      <path id="path320" style="fill:none;stroke:#005aa4;stroke-width:2.67079997;stroke-linecap:round;stroke-linejoin:round;stroke-miterlimit:10;stroke-dasharray:8.0123, 10.683;stroke-dashoffset:0;stroke-opacity:1" d="m 111.61,496.66 33.65,0"/>
    </g>
    <g id="g322">
      <g clip-path="url(#clipPath326)" id="g324"><text id="text330" style="font-variant:normal;font-weight:normal;font-size:12px;font-family:'Roboto Condensed';-inkscape-font-specification:RobotoCondensed-Regular;writing-mode:lr-tb;fill:#000000;fill-opacity:1;fill-rule:nonzero;stroke:none" transform="matrix(1,0,0,-1,148.99,493.03)"><tspan id="tspan332" y="0" x="0 6.2519999 12.336 17.472 20.219999 26.952 30.636 36.251999 42.203999 45.048 48.588001 51.335999 55.139999 61.068001 66.335999 71.795998 77.412003 83.015999 88.487999 91.199997 97.571999 103.188 106.728 112.524 116.22 122.028">Sov Credit (Excess Return)</tspan></text>
</g>
    </g>
    <path id="path334" style="fill:none;stroke:#00a1e2;stroke-width:2.67079997;stroke-linecap:round;stroke-linejoin:round;stroke-miterlimit:10;stroke-dasharray:none;stroke-opacity:1" d="m 111.61,481.22 33.65,0"/>
    <g id="g336">
      <g clip-path="url(#clipPath340)" id="g338"><text id="text344" style="font-variant:normal;font-weight:normal;font-size:12.02400017px;font-family:'Roboto Condensed';-inkscape-font-specification:RobotoCondensed-Regular;writing-mode:lr-tb;fill:#000000;fill-opacity:1;fill-rule:nonzero;stroke:none" transform="matrix(1,0,0,-1,148.99,477.6)"><tspan id="tspan346" y="0" x="0 5.7715201 11.699352 17.302536 23.062033 25.815529 28.569023 35.122105 41.218273 47.037888 52.929649 58.412594 61.250256 64.941628 71.206131 77.590874 80.344368 83.386436 86.139938 92.079788">Local Bonds (TR - $)</tspan></text>
</g>
    </g>
    <path id="path348" style="fill:none;stroke:#6769b5;stroke-width:2.67079997;stroke-linecap:round;stroke-linejoin:round;stroke-miterlimit:10;stroke-dasharray:none;stroke-opacity:1" d="m 111.61,465.78 33.65,0"/>
    <g id="g350">
      <g clip-path="url(#clipPath354)" id="g352"><text id="text358" style="font-variant:normal;font-weight:normal;font-size:12.02400017px;font-family:'Roboto Condensed';-inkscape-font-specification:RobotoCondensed-Regular;writing-mode:lr-tb;fill:#000000;fill-opacity:1;fill-rule:nonzero;stroke:none" transform="matrix(1,0,0,-1,148.99,462.17)"><tspan id="tspan360" y="0" x="0 5.7715201 11.699352 17.302536 23.062033 25.815529 28.569023 35.122105 41.218273 47.037888 52.929649 58.412594 61.250256 64.941628 70.905525 76.785263 80.308296 86.067795 89.771187 92.524681 98.440491 104.35629 107.10979 113.0256 115.7791 121.37025 127.12975 130.83315 134.35617 139.47839">Local Bonds (duration + carry)</tspan></text>
</g>
    </g>
    <path id="path362" style="fill:none;stroke:#93959b;stroke-width:2.67079997;stroke-linecap:round;stroke-linejoin:round;stroke-miterlimit:10;stroke-dasharray:none;stroke-opacity:1" d="m 111.61,450.35 33.65,0"/>
    <g id="g364">
      <g clip-path="url(#clipPath368)" id="g366"><text id="text372" style="font-variant:normal;font-weight:normal;font-size:12.02400017px;font-family:'Roboto Condensed';-inkscape-font-specification:RobotoCondensed-Regular;writing-mode:lr-tb;fill:#000000;fill-opacity:1;fill-rule:nonzero;stroke:none" transform="matrix(1,0,0,-1,148.99,446.74)"><tspan id="tspan374" y="0" x="0 5.7715201 12.360672 15.234408 21.330576 27.258408 33.342552">FX Spot</tspan></text>
</g>
    </g>
    <path id="path376" style="fill:none;stroke:#97d0ff;stroke-width:2.67079997;stroke-linecap:round;stroke-linejoin:round;stroke-miterlimit:10;stroke-dasharray:none;stroke-opacity:1" d="m 111.61,434.91 33.65,0"/>
    <g id="g378">
      <g clip-path="url(#clipPath382)" id="g380"><text id="text386" style="font-variant:normal;font-weight:normal;font-size:12.02400017px;font-family:'Roboto Condensed';-inkscape-font-specification:RobotoCondensed-Regular;writing-mode:lr-tb;fill:#000000;fill-opacity:1;fill-rule:nonzero;stroke:none" transform="matrix(1,0,0,-1,148.99,431.28)"><tspan id="tspan388" y="0" x="0 5.7715201 12.360672 15.234408 21.498913">FX TR</tspan></text>
</g>
    </g>
  </g>
</svg>
