<svg version="1.1" width="100%" height="100%" viewBox="0 0 355 228" xmlns="http://www.w3.org/2000/svg" xmlns:xlink="http://www.w3.org/1999/xlink"><style type="text/css" /><defs><clipPath id="clip001"><path d="M0,0 L2748,0 L2748,1893.333 L0,1893.333 Z" clip-rule="evenodd" /></clipPath><clipPath id="clip002"><path d="M0,0 L2748,0 L2748,1893.333 L0,1893.333 Z" clip-rule="evenodd" /></clipPath><clipPath id="clip003"><path d="M0,0 L2748,0 L2748,1893.333 L0,1893.333 Z" clip-rule="evenodd" /></clipPath><clipPath id="clip004"><path d="M0,0 L4909.333,0 L4909.333,2004 L0,2004 Z" clip-rule="evenodd" /></clipPath><clipPath id="clip005"><path d="M-945.3333,0 L5854.667,0 L5854.667,2004 L-945.3333,2004 Z" clip-rule="evenodd" /></clipPath><clipPath id="clip006"><path d="M-1.333333,0 L2753.333,0 L2753.333,1894.667 L-1.333333,1894.667 Z" clip-rule="evenodd" /></clipPath><clipPath id="clip007"><path d="M373.3333,60 L2753.333,60 L2753.333,1669.333 L373.3333,1669.333 Z" clip-rule="evenodd" /></clipPath><clipPath id="clip008"><path d="M373.3333,60 L2753.333,60 L2753.333,1669.333 L373.3333,1669.333 Z" clip-rule="evenodd" /></clipPath><clipPath id="clip009"><path d="M373.3333,60 L2753.333,60 L2753.333,1669.333 L373.3333,1669.333 Z" clip-rule="evenodd" /></clipPath><clipPath id="clip010"><path d="M373.3333,60 L2753.333,60 L2753.333,1669.333 L373.3333,1669.333 Z" clip-rule="evenodd" /></clipPath><clipPath id="clip011"><path d="M373.3333,60 L2753.333,60 L2753.333,1669.333 L373.3333,1669.333 Z" clip-rule="evenodd" /></clipPath><clipPath id="clip012"><path d="M-1.333333,0 L2753.333,0 L2753.333,1894.667 L-1.333333,1894.667 Z" clip-rule="evenodd" /></clipPath><clipPath id="clip013"><path d="M-1.333333,0 L2753.333,0 L2753.333,1894.667 L-1.333333,1894.667 Z" clip-rule="evenodd" /></clipPath><clipPath id="clip014"><path d="M-1.333333,0 L2753.333,0 L2753.333,1894.667 L-1.333333,1894.667 Z" clip-rule="evenodd" /></clipPath><clipPath id="clip015"><path d="M-1.333333,0 L2753.333,0 L2753.333,1894.667 L-1.333333,1894.667 Z" clip-rule="evenodd" /></clipPath><clipPath id="clip016"><path d="M-1.333333,0 L2753.333,0 L2753.333,1894.667 L-1.333333,1894.667 Z" clip-rule="evenodd" /></clipPath><clipPath id="clip017"><path d="M-1.333333,0 L2753.333,0 L2753.333,1894.667 L-1.333333,1894.667 Z" clip-rule="evenodd" /></clipPath><clipPath id="clip018"><path d="M-1.333333,0 L2753.333,0 L2753.333,1894.667 L-1.333333,1894.667 Z" clip-rule="evenodd" /></clipPath><clipPath id="clip019"><path d="M-1.333333,0 L2753.333,0 L2753.333,1894.667 L-1.333333,1894.667 Z" clip-rule="evenodd" /></clipPath><clipPath id="clip020"><path d="M-1.333333,0 L2753.333,0 L2753.333,1894.667 L-1.333333,1894.667 Z" clip-rule="evenodd" /></clipPath><clipPath id="clip021"><path d="M-1.333333,0 L2753.333,0 L2753.333,1894.667 L-1.333333,1894.667 Z" clip-rule="evenodd" /></clipPath><clipPath id="clip022"><path d="M-1.333333,0 L2753.333,0 L2753.333,1894.667 L-1.333333,1894.667 Z" clip-rule="evenodd" /></clipPath><clipPath id="clip023"><path d="M-1.333333,0 L2753.333,0 L2753.333,1894.667 L-1.333333,1894.667 Z" clip-rule="evenodd" /></clipPath><clipPath id="clip024"><path d="M-1.333333,0 L2753.333,0 L2753.333,1894.667 L-1.333333,1894.667 Z" clip-rule="evenodd" /></clipPath><clipPath id="clip025"><path d="M-1.333333,0 L2753.333,0 L2753.333,1894.667 L-1.333333,1894.667 Z" clip-rule="evenodd" /></clipPath><clipPath id="clip026"><path d="M-1.333333,0 L2753.333,0 L2753.333,1894.667 L-1.333333,1894.667 Z" clip-rule="evenodd" /></clipPath><clipPath id="clip027"><path d="M-1.333333,0 L2753.333,0 L2753.333,1894.667 L-1.333333,1894.667 Z" clip-rule="evenodd" /></clipPath><clipPath id="clip028"><path d="M-1.333333,0 L2753.333,0 L2753.333,1894.667 L-1.333333,1894.667 Z" clip-rule="evenodd" /></clipPath><clipPath id="clip029"><path d="M-1.333333,0 L2753.333,0 L2753.333,1894.667 L-1.333333,1894.667 Z" clip-rule="evenodd" /></clipPath><clipPath id="clip030"><path d="M-1.333333,0 L2753.333,0 L2753.333,1894.667 L-1.333333,1894.667 Z" clip-rule="evenodd" /></clipPath><clipPath id="clip031"><path d="M-1.333333,0 L2753.333,0 L2753.333,1894.667 L-1.333333,1894.667 Z" clip-rule="evenodd" /></clipPath><clipPath id="clip032"><path d="M-1.333333,0 L2753.333,0 L2753.333,1894.667 L-1.333333,1894.667 Z" clip-rule="evenodd" /></clipPath><clipPath id="clip033"><path d="M-1.333333,0 L2753.333,0 L2753.333,1894.667 L-1.333333,1894.667 Z" clip-rule="evenodd" /></clipPath><clipPath id="clip034"><path d="M-1.333333,0 L2753.333,0 L2753.333,1894.667 L-1.333333,1894.667 Z" clip-rule="evenodd" /></clipPath><clipPath id="clip035"><path d="M-1.333333,0 L2753.333,0 L2753.333,1894.667 L-1.333333,1894.667 Z" clip-rule="evenodd" /></clipPath></defs><clipPath id="page-clip-path-1"><rect x="0" y="0" width="354.67" height="228" /></clipPath><g clip-path="url(#page-clip-path-1)" transform="translate(0.17,0)"><g transform="translate(1,1)"><g><g transform="matrix(0.1202814,0,0,0.1201409,0,0)" clip-path="url(#clip001)"><g><g clip-path="url(#clip002)"><g><g clip-path="url(#clip003)"><g transform="matrix(1.00015,0,0,1.000347,-0.00016276,0)"><g><g><g clip-path="url(#clip004)"><g transform="translate(2753.333,1896)" /></g></g></g><g clip-path="url(#clip005)"><g transform="matrix(0.000656168,0,0,0.000656168,0,0)"><path d="M0,0 L4198112,0 L4198112,2889504 L0,2889504 Z" fill="#ffffff" fill-opacity="0" fill-rule="evenodd" /></g></g><g clip-path="url(#clip006)"><g transform="matrix(0.000656168,0,0,0.000656168,374.6667,60)"><path d="M0,2090928 L3627120,2090928 M0,1743456 L3627120,1743456 M0,1393952 L3627120,1393952 M0,1046480 L3627120,1046480 M0,696976 L3627120,696976 M0,349504 L3627120,349504 M0,0 L3627120,0 " stroke-width="16933.33" stroke-linejoin="round" stroke-miterlimit="13.33333" stroke="#bababa" fill="none" fill-rule="nonzero" /></g></g><g clip-path="url(#clip007)"><g transform="matrix(0.000656168,0,0,0.000656168,374.6667,60)"><path d="M302768,1946656 L1511808,1946656 L1511808,1946656 L1511808,2440432 L1511808,2440432 L302768,2440432 ZM2115312,1645920 L3324352,1645920 L3324352,1645920 L3324352,2440432 L3324352,2440432 L2115312,2440432 Z" fill="#012169" fill-rule="nonzero" /><path d="M302768,1946656 L1511808,1946656 L1511808,1946656 L1511808,2440432 L1511808,2440432 L302768,2440432 ZM2115312,1645920 L3324352,1645920 L3324352,1645920 L3324352,2440432 L3324352,2440432 L2115312,2440432 Z" stroke-width="8466.667" stroke-linejoin="round" stroke-miterlimit="13.33333" stroke="#ffffff" fill="none" fill-rule="nonzero" /></g></g><g clip-path="url(#clip008)"><g transform="matrix(0.000656168,0,0,0.000656168,374.6667,60)"><path d="M302768,1735328 L1511808,1735328 L1511808,1735328 L1511808,1946656 L1511808,1946656 L302768,1946656 ZM2115312,1245616 L3324352,1245616 L3324352,1245616 L3324352,1645920 L3324352,1645920 L2115312,1645920 Z" fill="#009cde" fill-rule="nonzero" /><path d="M302768,1735328 L1511808,1735328 L1511808,1735328 L1511808,1946656 L1511808,1946656 L302768,1946656 ZM2115312,1245616 L3324352,1245616 L3324352,1245616 L3324352,1645920 L3324352,1645920 L2115312,1645920 Z" stroke-width="8466.667" stroke-linejoin="round" stroke-miterlimit="13.33333" stroke="#ffffff" fill="none" fill-rule="nonzero" /></g></g><g clip-path="url(#clip009)"><g transform="matrix(0.000656168,0,0,0.000656168,374.6667,60)"><path d="M302768,1481328 L1511808,1481328 L1511808,1481328 L1511808,1735328 L1511808,1735328 L302768,1735328 ZM2115312,780288 L3324352,780288 L3324352,780288 L3324352,1245616 L3324352,1245616 L2115312,1245616 Z" fill="#e56200" fill-rule="nonzero" /><path d="M302768,1481328 L1511808,1481328 L1511808,1481328 L1511808,1735328 L1511808,1735328 L302768,1735328 ZM2115312,780288 L3324352,780288 L3324352,780288 L3324352,1245616 L3324352,1245616 L2115312,1245616 Z" stroke-width="8466.667" stroke-linejoin="round" stroke-miterlimit="13.33333" stroke="#ffffff" fill="none" fill-rule="nonzero" /></g></g><g clip-path="url(#clip010)"><g transform="matrix(0.000656168,0,0,0.000656168,374.6667,60)"><path d="M302768,1345184 L1511808,1345184 L1511808,1345184 L1511808,1481328 L1511808,1481328 L302768,1481328 ZM2115312,518160 L3324352,518160 L3324352,518160 L3324352,780288 L3324352,780288 L2115312,780288 Z" fill="#006980" fill-rule="nonzero" /><path d="M302768,1345184 L1511808,1345184 L1511808,1345184 L1511808,1481328 L1511808,1481328 L302768,1481328 ZM2115312,518160 L3324352,518160 L3324352,518160 L3324352,780288 L3324352,780288 L2115312,780288 Z" stroke-width="8466.667" stroke-linejoin="round" stroke-miterlimit="13.33333" stroke="#ffffff" fill="none" fill-rule="nonzero" /></g></g><g clip-path="url(#clip011)"><g transform="matrix(0.000656168,0,0,0.000656168,374.6667,60)"><path d="M302768,1302512 L1511808,1302512 L1511808,1302512 L1511808,1345184 L1511808,1345184 L302768,1345184 ZM2115312,369824 L3324352,369824 L3324352,369824 L3324352,518160 L3324352,518160 L2115312,518160 Z" fill="#279f00" fill-rule="nonzero" /><path d="M302768,1302512 L1511808,1302512 L1511808,1302512 L1511808,1345184 L1511808,1345184 L302768,1345184 ZM2115312,369824 L3324352,369824 L3324352,369824 L3324352,518160 L3324352,518160 L2115312,518160 Z" stroke-width="8466.667" stroke-linejoin="round" stroke-miterlimit="13.33333" stroke="#ffffff" fill="none" fill-rule="nonzero" /></g></g><g clip-path="url(#clip012)"><g transform="matrix(0.000656168,0,0,0.000656168,374.6667,1661.333)"><g><path d="M0.002489885,-6773.333 L3627120,-6772 " stroke-width="3386.667" stroke-linejoin="round" stroke-miterlimit="13.33333" stroke="#000000" fill="none" fill-rule="evenodd" /><path d="M-0.001244942,3386.667 L3627120,3388 " stroke-width="10160" stroke-linejoin="round" stroke-miterlimit="13.33333" stroke="#000000" fill="none" fill-rule="evenodd" /></g></g></g><g><g clip-path="url(#clip013)"><g><g transform="translate(835.4037,837.4422)"><text><tspan x="0" y="0" font-family="Connections Cond Light,Arial Narrow" font-weight="normal" font-style="normal" font-size="105.3333" fill="#000000">$1,633</tspan></text></g></g></g></g><g><g clip-path="url(#clip014)"><g><g transform="translate(2025.153,225.2419)"><text><tspan x="0" y="0" font-family="Connections Cond Light,Arial Narrow" font-weight="normal" font-style="normal" font-size="105.3333" fill="#000000">$2,971</tspan></text></g></g></g></g><g><g clip-path="url(#clip015)"><g><g transform="translate(185.3342,1690.869)"><text><tspan x="0" y="0" font-family="Connections Cond Light,Arial Narrow" font-weight="normal" font-style="normal" font-size="105.3333" fill="#000000">$0</tspan></text></g></g></g></g><g><g clip-path="url(#clip016)"><g><g transform="translate(84.00088,1462.145)"><text><tspan x="0" y="0" font-family="Connections Cond Light,Arial Narrow" font-weight="normal" font-style="normal" font-size="105.3333" fill="#000000">$500</tspan></text></g></g></g></g><g><g clip-path="url(#clip017)"><g><g transform="translate(16.33421,1233.423)"><text><tspan x="0" y="0" font-family="Connections Cond Light,Arial Narrow" font-weight="normal" font-style="normal" font-size="105.3333" fill="#000000">$1,000</tspan></text></g></g></g></g><g><g clip-path="url(#clip018)"><g><g transform="translate(16.33421,1004.699)"><text><tspan x="0" y="0" font-family="Connections Cond Light,Arial Narrow" font-weight="normal" font-style="normal" font-size="105.3333" fill="#000000">$1,500</tspan></text></g></g></g></g><g><g clip-path="url(#clip019)"><g><g transform="translate(16.33421,775.9755)"><text><tspan x="0" y="0" font-family="Connections Cond Light,Arial Narrow" font-weight="normal" font-style="normal" font-size="105.3333" fill="#000000">$2,000</tspan></text></g></g></g></g><g><g clip-path="url(#clip020)"><g><g transform="translate(16.33421,547.252)"><text><tspan x="0" y="0" font-family="Connections Cond Light,Arial Narrow" font-weight="normal" font-style="normal" font-size="105.3333" fill="#000000">$2,500</tspan></text></g></g></g></g><g><g clip-path="url(#clip021)"><g><g transform="translate(16.33421,318.5293)"><text><tspan x="0" y="0" font-family="Connections Cond Light,Arial Narrow" font-weight="normal" font-style="normal" font-size="105.3333" fill="#000000">$3,000</tspan></text></g></g></g></g><g><g clip-path="url(#clip022)"><g><g transform="translate(16.33421,89.80578)"><text><tspan x="0" y="0" font-family="Connections Cond Light,Arial Narrow" font-weight="normal" font-style="normal" font-size="105.3333" fill="#000000">$3,500</tspan></text></g></g></g></g><g><g clip-path="url(#clip023)"><g><g transform="translate(735.9037,1817.118)"><text><tspan x="0" y="0" font-family="Connections Cond Light,Arial Narrow" font-weight="normal" font-style="normal" font-size="105.3333" fill="#000000">CY25E ($bn)</tspan></text></g></g></g></g><g><g clip-path="url(#clip024)"><g><g transform="translate(1925.653,1817.118)"><text><tspan x="0" y="0" font-family="Connections Cond Light,Arial Narrow" font-weight="normal" font-style="normal" font-size="105.3333" fill="#000000">CY30E ($bn)</tspan></text></g></g></g></g><g clip-path="url(#clip025)"><g transform="matrix(0.000656168,0,0,0.000656168,285.3333,44)"><path d="M0,0 L3352800,0 L3352800,227584 L0,227584 Z" fill="#4472c4" fill-opacity="0" fill-rule="evenodd" /></g></g><g clip-path="url(#clip026)"><g transform="matrix(0.000656168,0,0,0.000656168,365.3333,92)"><path d="M0,0 L83312,0 L83312,81280.01 L0,81280.01 Z" fill="#012169" fill-rule="evenodd" /><path d="M0,0 L83312,0 L83312,0 L83312,81280.01 L83312,81280.01 L0,81280.01 Z" stroke-width="8466.667" stroke-linejoin="round" stroke-miterlimit="13.33333" stroke="#ffffff" fill="none" fill-rule="evenodd" /></g></g><g><g clip-path="url(#clip027)"><g><g transform="translate(442.7594,148.3841)"><text><tspan x="0" y="0" font-family="Connections Cond Light,Arial Narrow" font-weight="normal" font-style="normal" font-size="105.3333" fill="#000000">Amazon</tspan></text></g></g></g></g><g clip-path="url(#clip028)"><g transform="matrix(0.000656168,0,0,0.000656168,833.3333,92)"><path d="M0,0 L81280.01,0 L81280.01,81280.01 L0,81280.01 Z" fill="#009cde" fill-rule="evenodd" /><path d="M0,0 L81280.01,0 L81280.01,0 L81280.01,81280.01 L81280.01,81280.01 L0,81280.01 Z" stroke-width="8466.667" stroke-linejoin="round" stroke-miterlimit="13.33333" stroke="#ffffff" fill="none" fill-rule="evenodd" /></g></g><g><g clip-path="url(#clip029)"><g><g transform="translate(910.1636,148.3841)"><text><tspan x="0" y="0" font-family="Connections Cond Light,Arial Narrow" font-weight="normal" font-style="normal" font-size="105.3333" fill="#000000">Microsoft</tspan></text></g></g></g></g><g clip-path="url(#clip030)"><g transform="matrix(0.000656168,0,0,0.000656168,1356,92)"><path d="M0,0 L83312,0 L83312,81280.01 L0,81280.01 Z" fill="#e56200" fill-rule="evenodd" /><path d="M0,0 L83312,0 L83312,0 L83312,81280.01 L83312,81280.01 L0,81280.01 Z" stroke-width="8466.667" stroke-linejoin="round" stroke-miterlimit="13.33333" stroke="#ffffff" fill="none" fill-rule="evenodd" /></g></g><g><g clip-path="url(#clip031)"><g><g transform="translate(1433.347,148.3841)"><text><tspan x="0" y="0" font-family="Connections Cond Light,Arial Narrow" font-weight="normal" font-style="normal" font-size="105.3333" fill="#000000">Google</tspan></text></g></g></g></g><g clip-path="url(#clip032)"><g transform="matrix(0.000656168,0,0,0.000656168,1774.667,92)"><path d="M0,0 L83312,0 L83312,81280.01 L0,81280.01 Z" fill="#006980" fill-rule="evenodd" /><path d="M0,0 L83312,0 L83312,0 L83312,81280.01 L83312,81280.01 L0,81280.01 Z" stroke-width="8466.667" stroke-linejoin="round" stroke-miterlimit="13.33333" stroke="#ffffff" fill="none" fill-rule="evenodd" /></g></g><g><g clip-path="url(#clip033)"><g><g transform="translate(1851.919,148.3841)"><text><tspan x="0" y="0" font-family="Connections Cond Light,Arial Narrow" font-weight="normal" font-style="normal" font-size="105.3333" fill="#000000">Meta</tspan></text></g></g></g></g><g clip-path="url(#clip034)"><g transform="matrix(0.000656168,0,0,0.000656168,2126.667,92)"><path d="M0,0 L81280.01,0 L81280.01,81280.01 L0,81280.01 Z" fill="#279f00" fill-rule="evenodd" /><path d="M0,0 L81280.01,0 L81280.01,0 L81280.01,81280.01 L81280.01,81280.01 L0,81280.01 Z" stroke-width="8466.667" stroke-linejoin="round" stroke-miterlimit="13.33333" stroke="#ffffff" fill="none" fill-rule="evenodd" /></g></g><g><g clip-path="url(#clip035)"><g><g transform="translate(2203.379,148.3841)"><text><tspan x="0" y="0" font-family="Connections Cond Light,Arial Narrow" font-weight="normal" font-style="normal" font-size="105.3333" fill="#000000">Oracle</tspan></text></g></g></g></g><g /></g></g></g></g></g></g></g></g></g></svg>