<svg version="1.1" width="100%" height="100%" viewBox="0 0 500 292" xmlns="http://www.w3.org/2000/svg" xmlns:xlink="http://www.w3.org/1999/xlink"><style type="text/css" /><defs><clipPath id="clip001"><path d="M0,0 L3958.667,0 L3958.667,2429.333 L0,2429.333 Z" clip-rule="evenodd" /></clipPath><clipPath id="clip002"><path d="M0,0 L3958.667,0 L3958.667,2429.333 L0,2429.333 Z" clip-rule="evenodd" /></clipPath><clipPath id="clip003"><path d="M0,0 L3958.667,0 L3958.667,2429.333 L0,2429.333 Z" clip-rule="evenodd" /></clipPath><clipPath id="clip004"><path d="M0,0 L5200,0 L5200,2533.333 L0,2533.333 Z" clip-rule="evenodd" /></clipPath><clipPath id="clip005"><path d="M-800,0 L6000,0 L6000,2533.333 L-800,2533.333 Z" clip-rule="evenodd" /></clipPath><clipPath id="clip006"><path d="M0,0 L3960,0 L3960,2424 L0,2424 Z" clip-rule="evenodd" /></clipPath><clipPath id="clip007"><path d="M356,104 L3960,104 L3960,1866.667 L356,1866.667 Z" clip-rule="evenodd" /></clipPath><clipPath id="clip008"><path d="M356,104 L3960,104 L3960,1866.667 L356,1866.667 Z" clip-rule="evenodd" /></clipPath><clipPath id="clip009"><path d="M356,104 L3960,104 L3960,1866.667 L356,1866.667 Z" clip-rule="evenodd" /></clipPath><clipPath id="clip010"><path d="M0,0 L3960,0 L3960,2424 L0,2424 Z" clip-rule="evenodd" /></clipPath><clipPath id="clip011"><path d="M0,0 L3960,0 L3960,2424 L0,2424 Z" clip-rule="evenodd" /></clipPath><clipPath id="clip012"><path d="M0,0 L3960,0 L3960,2424 L0,2424 Z" clip-rule="evenodd" /></clipPath><clipPath id="clip013"><path d="M0,0 L3960,0 L3960,2424 L0,2424 Z" clip-rule="evenodd" /></clipPath><clipPath id="clip014"><path d="M0,0 L3960,0 L3960,2424 L0,2424 Z" clip-rule="evenodd" /></clipPath><clipPath id="clip015"><path d="M0,0 L3960,0 L3960,2424 L0,2424 Z" clip-rule="evenodd" /></clipPath><clipPath id="clip016"><path d="M0,0 L3960,0 L3960,2424 L0,2424 Z" clip-rule="evenodd" /></clipPath><clipPath id="clip017"><path d="M0,0 L3960,0 L3960,2424 L0,2424 Z" clip-rule="evenodd" /></clipPath><clipPath id="clip018"><path d="M0,0 L3960,0 L3960,2424 L0,2424 Z" clip-rule="evenodd" /></clipPath><clipPath id="clip019"><path d="M0,0 L3960,0 L3960,2424 L0,2424 Z" clip-rule="evenodd" /></clipPath><clipPath id="clip020"><path d="M0,0 L3960,0 L3960,2424 L0,2424 Z" clip-rule="evenodd" /></clipPath><clipPath id="clip021"><path d="M0,0 L3960,0 L3960,2424 L0,2424 Z" clip-rule="evenodd" /></clipPath><clipPath id="clip022"><path d="M0,0 L3960,0 L3960,2424 L0,2424 Z" clip-rule="evenodd" /></clipPath><clipPath id="clip023"><path d="M0,0 L3960,0 L3960,2424 L0,2424 Z" clip-rule="evenodd" /></clipPath><clipPath id="clip024"><path d="M0,0 L3960,0 L3960,2424 L0,2424 Z" clip-rule="evenodd" /></clipPath><clipPath id="clip025"><path d="M0,0 L3960,0 L3960,2424 L0,2424 Z" clip-rule="evenodd" /></clipPath><clipPath id="clip026"><path d="M0,0 L3960,0 L3960,2424 L0,2424 Z" clip-rule="evenodd" /></clipPath><clipPath id="clip027"><path d="M0,0 L3960,0 L3960,2424 L0,2424 Z" clip-rule="evenodd" /></clipPath><clipPath id="clip028"><path d="M0,0 L3960,0 L3960,2424 L0,2424 Z" clip-rule="evenodd" /></clipPath><clipPath id="clip029"><path d="M0,0 L3960,0 L3960,2424 L0,2424 Z" clip-rule="evenodd" /></clipPath><clipPath id="clip030"><path d="M0,0 L3960,0 L3960,2424 L0,2424 Z" clip-rule="evenodd" /></clipPath><clipPath id="clip031"><path d="M0,0 L3960,0 L3960,2424 L0,2424 Z" clip-rule="evenodd" /></clipPath><clipPath id="clip032"><path d="M0,0 L3960,0 L3960,2424 L0,2424 Z" clip-rule="evenodd" /></clipPath><clipPath id="clip033"><path d="M0,0 L3960,0 L3960,2424 L0,2424 Z" clip-rule="evenodd" /></clipPath><clipPath id="clip034"><path d="M0,0 L3960,0 L3960,2424 L0,2424 Z" clip-rule="evenodd" /></clipPath></defs><clipPath id="page-clip-path-1"><rect x="0" y="0" width="500" height="292" /></clipPath><g clip-path="url(#page-clip-path-1)"><g transform="translate(1,1)"><g><g transform="matrix(0.1200404,0,0,0.1197859,0,0)" clip-path="url(#clip001)"><g><g clip-path="url(#clip002)"><g><g clip-path="url(#clip003)"><g transform="matrix(1.000207,0,0,1.000588,-0.00016276,0)"><g><g><g clip-path="url(#clip004)"><g transform="translate(3966.667,2425.333)" /></g></g></g><g clip-path="url(#clip005)"><g transform="matrix(0.000656168,0,0,0.000656168,0,0)"><path d="M0,0 L6035040,0 L6035040,3696208 L0,3696208 Z" fill="#ffffff" fill-opacity="0" fill-rule="evenodd" /></g></g><g clip-path="url(#clip006)"><g transform="matrix(0.000656168,0,0,0.000656168,356,105.3333)"><path d="M0,2003552 L5492496,2003552 M0,1335024 L5492496,1335024 M0,668528 L5492496,668528 M0,0 L5492496,0 " stroke-width="16933.33" stroke-linejoin="round" stroke-miterlimit="13.33333" stroke="#bababa" fill="none" fill-rule="nonzero" /></g></g><g clip-path="url(#clip007)"><g transform="matrix(0.000656168,0,0,0.000656168,356,105.3333)"><path d="M83312,2275840 L416560,2275840 L416560,2275840 L416560,2672080 L416560,2672080 L83312,2672080 ZM583184,2060448 L916432,2060448 L916432,2060448 L916432,2672080 L916432,2672080 L583184,2672080 ZM1083056,1991360 L1414272,1991360 L1414272,1991360 L1414272,2672080 L1414272,2672080 L1083056,2672080 ZM1580896,1924304 L1914144,1924304 L1914144,1924304 L1914144,2672080 L1914144,2672080 L1580896,2672080 ZM2080768,1865376 L2414016,1865376 L2414016,1865376 L2414016,2672080 L2414016,2672080 L2080768,2672080 ZM2580640,1773936 L2913888,1773936 L2913888,1773936 L2913888,2672080 L2913888,2672080 L2580640,2672080 ZM3078480,1729232 L3411728,1729232 L3411728,1729232 L3411728,2672080 L3411728,2672080 L3078480,2672080 ZM3578352,1682496 L3911600,1682496 L3911600,1682496 L3911600,2672080 L3911600,2672080 L3578352,2672080 ZM4078224,1625600 L4411472,1625600 L4411472,1625600 L4411472,2672080 L4411472,2672080 L4078224,2672080 ZM4578096,1582928 L4909312,1582928 L4909312,1582928 L4909312,2672080 L4909312,2672080 L4578096,2672080 ZM5075936,1524000 L5409184,1524000 L5409184,1524000 L5409184,2672080 L5409184,2672080 L5075936,2672080 Z" fill="#012169" fill-rule="nonzero" /><path d="M83312,2275840 L416560,2275840 L416560,2275840 L416560,2672080 L416560,2672080 L83312,2672080 ZM583184,2060448 L916432,2060448 L916432,2060448 L916432,2672080 L916432,2672080 L583184,2672080 ZM1083056,1991360 L1414272,1991360 L1414272,1991360 L1414272,2672080 L1414272,2672080 L1083056,2672080 ZM1580896,1924304 L1914144,1924304 L1914144,1924304 L1914144,2672080 L1914144,2672080 L1580896,2672080 ZM2080768,1865376 L2414016,1865376 L2414016,1865376 L2414016,2672080 L2414016,2672080 L2080768,2672080 ZM2580640,1773936 L2913888,1773936 L2913888,1773936 L2913888,2672080 L2913888,2672080 L2580640,2672080 ZM3078480,1729232 L3411728,1729232 L3411728,1729232 L3411728,2672080 L3411728,2672080 L3078480,2672080 ZM3578352,1682496 L3911600,1682496 L3911600,1682496 L3911600,2672080 L3911600,2672080 L3578352,2672080 ZM4078224,1625600 L4411472,1625600 L4411472,1625600 L4411472,2672080 L4411472,2672080 L4078224,2672080 ZM4578096,1582928 L4909312,1582928 L4909312,1582928 L4909312,2672080 L4909312,2672080 L4578096,2672080 ZM5075936,1524000 L5409184,1524000 L5409184,1524000 L5409184,2672080 L5409184,2672080 L5075936,2672080 Z" stroke-width="8466.667" stroke-linejoin="round" stroke-miterlimit="13.33333" stroke="#ffffff" fill="none" fill-rule="nonzero" /></g></g><g clip-path="url(#clip008)"><g transform="matrix(0.000656168,0,0,0.000656168,356,105.3333)"><path d="M83312,2196592 L416560,2196592 L416560,2196592 L416560,2275840 L416560,2275840 L83312,2275840 ZM583184,1930400 L916432,1930400 L916432,1930400 L916432,2060448 L916432,2060448 L583184,2060448 ZM1083056,1810512 L1414272,1810512 L1414272,1810512 L1414272,1991360 L1414272,1991360 L1083056,1991360 ZM1580896,1686560 L1914144,1686560 L1914144,1686560 L1914144,1924304 L1914144,1924304 L1580896,1924304 ZM2080768,1625600 L2414016,1625600 L2414016,1625600 L2414016,1865376 L2414016,1865376 L2080768,1865376 ZM2580640,1432560 L2913888,1432560 L2913888,1432560 L2913888,1773936 L2913888,1773936 L2580640,1773936 ZM3078480,1272032 L3411728,1272032 L3411728,1272032 L3411728,1729232 L3411728,1729232 L3078480,1729232 ZM3578352,1146048 L3911600,1146048 L3911600,1146048 L3911600,1682496 L3911600,1682496 L3578352,1682496 ZM4078224,959104 L4411472,959104 L4411472,959104 L4411472,1625600 L4411472,1625600 L4078224,1625600 ZM4578096,790448 L4909312,790448 L4909312,790448 L4909312,1582928 L4909312,1582928 L4578096,1582928 ZM5075936,609600 L5409184,609600 L5409184,609600 L5409184,1524000 L5409184,1524000 L5075936,1524000 Z" fill="#009cde" fill-rule="nonzero" /><path d="M83312,2196592 L416560,2196592 L416560,2196592 L416560,2275840 L416560,2275840 L83312,2275840 ZM583184,1930400 L916432,1930400 L916432,1930400 L916432,2060448 L916432,2060448 L583184,2060448 ZM1083056,1810512 L1414272,1810512 L1414272,1810512 L1414272,1991360 L1414272,1991360 L1083056,1991360 ZM1580896,1686560 L1914144,1686560 L1914144,1686560 L1914144,1924304 L1914144,1924304 L1580896,1924304 ZM2080768,1625600 L2414016,1625600 L2414016,1625600 L2414016,1865376 L2414016,1865376 L2080768,1865376 ZM2580640,1432560 L2913888,1432560 L2913888,1432560 L2913888,1773936 L2913888,1773936 L2580640,1773936 ZM3078480,1272032 L3411728,1272032 L3411728,1272032 L3411728,1729232 L3411728,1729232 L3078480,1729232 ZM3578352,1146048 L3911600,1146048 L3911600,1146048 L3911600,1682496 L3911600,1682496 L3578352,1682496 ZM4078224,959104 L4411472,959104 L4411472,959104 L4411472,1625600 L4411472,1625600 L4078224,1625600 ZM4578096,790448 L4909312,790448 L4909312,790448 L4909312,1582928 L4909312,1582928 L4578096,1582928 ZM5075936,609600 L5409184,609600 L5409184,609600 L5409184,1524000 L5409184,1524000 L5075936,1524000 Z" stroke-width="8466.667" stroke-linejoin="round" stroke-miterlimit="13.33333" stroke="#ffffff" fill="none" fill-rule="nonzero" /></g></g><g clip-path="url(#clip009)"><g transform="matrix(0.000656168,0,0,0.000656168,356,105.3333)"><path d="M83312,2188464 L416560,2188464 L416560,2188464 L416560,2196592 L416560,2196592 L83312,2196592 ZM583184,1918208 L916432,1918208 L916432,1918208 L916432,1930400 L916432,1930400 L583184,1930400 ZM1083056,1794256 L1414272,1794256 L1414272,1794256 L1414272,1810512 L1414272,1810512 L1083056,1810512 ZM1580896,1668272 L1914144,1668272 L1914144,1668272 L1914144,1686560 L1914144,1686560 L1580896,1686560 ZM2080768,1601216 L2414016,1601216 L2414016,1601216 L2414016,1625600 L2414016,1625600 L2080768,1625600 ZM2580640,1400048 L2913888,1400048 L2913888,1400048 L2913888,1432560 L2913888,1432560 L2580640,1432560 ZM3078480,1233424 L3411728,1233424 L3411728,1233424 L3411728,1272032 L3411728,1272032 L3078480,1272032 ZM3578352,1093216 L3911600,1093216 L3911600,1093216 L3911600,1146048 L3911600,1146048 L3578352,1146048 ZM4078224,892048 L4411472,892048 L4411472,892048 L4411472,959104 L4411472,959104 L4078224,959104 ZM4578096,705104 L4909312,705104 L4909312,705104 L4909312,790448 L4909312,790448 L4578096,790448 ZM5075936,497840 L5409184,497840 L5409184,497840 L5409184,609600 L5409184,609600 L5075936,609600 Z" fill="#e56200" fill-rule="nonzero" /><path d="M83312,2188464 L416560,2188464 L416560,2188464 L416560,2196592 L416560,2196592 L83312,2196592 ZM583184,1918208 L916432,1918208 L916432,1918208 L916432,1930400 L916432,1930400 L583184,1930400 ZM1083056,1794256 L1414272,1794256 L1414272,1794256 L1414272,1810512 L1414272,1810512 L1083056,1810512 ZM1580896,1668272 L1914144,1668272 L1914144,1668272 L1914144,1686560 L1914144,1686560 L1580896,1686560 ZM2080768,1601216 L2414016,1601216 L2414016,1601216 L2414016,1625600 L2414016,1625600 L2080768,1625600 ZM2580640,1400048 L2913888,1400048 L2913888,1400048 L2913888,1432560 L2913888,1432560 L2580640,1432560 ZM3078480,1233424 L3411728,1233424 L3411728,1233424 L3411728,1272032 L3411728,1272032 L3078480,1272032 ZM3578352,1093216 L3911600,1093216 L3911600,1093216 L3911600,1146048 L3911600,1146048 L3578352,1146048 ZM4078224,892048 L4411472,892048 L4411472,892048 L4411472,959104 L4411472,959104 L4078224,959104 ZM4578096,705104 L4909312,705104 L4909312,705104 L4909312,790448 L4909312,790448 L4578096,790448 ZM5075936,497840 L5409184,497840 L5409184,497840 L5409184,609600 L5409184,609600 L5075936,609600 Z" stroke-width="8466.667" stroke-linejoin="round" stroke-miterlimit="13.33333" stroke="#ffffff" fill="none" fill-rule="nonzero" /></g></g><g clip-path="url(#clip010)"><g transform="matrix(0.000656168,0,0,0.000656168,356,1858.667)"><g><path d="M0.001644264,-6773.333 L5492496,-6772 " stroke-width="3386.667" stroke-linejoin="round" stroke-miterlimit="13.33333" stroke="#000000" fill="none" fill-rule="evenodd" /><path d="M-0.000822132,3386.667 L5492496,3388 " stroke-width="10160" stroke-linejoin="round" stroke-miterlimit="13.33333" stroke="#000000" fill="none" fill-rule="evenodd" /></g></g></g><g><g clip-path="url(#clip011)"><g><g transform="translate(67.33334,1888.13)"><text><tspan x="0" y="0" font-family="Connections Cond Light,Arial Narrow" font-weight="normal" font-style="normal" font-size="105.3333" fill="#000000">$0bn</tspan></text></g></g></g></g><g><g clip-path="url(#clip012)"><g><g transform="translate(16.66667,1449.747)"><text><tspan x="0" y="0" font-family="Connections Cond Light,Arial Narrow" font-weight="normal" font-style="normal" font-size="105.3333" fill="#000000">$20bn</tspan></text></g></g></g></g><g><g clip-path="url(#clip013)"><g><g transform="translate(16.66667,1011.366)"><text><tspan x="0" y="0" font-family="Connections Cond Light,Arial Narrow" font-weight="normal" font-style="normal" font-size="105.3333" fill="#000000">$40bn</tspan></text></g></g></g></g><g><g clip-path="url(#clip014)"><g><g transform="translate(16.66667,572.9833)"><text><tspan x="0" y="0" font-family="Connections Cond Light,Arial Narrow" font-weight="normal" font-style="normal" font-size="105.3333" fill="#000000">$60bn</tspan></text></g></g></g></g><g><g clip-path="url(#clip015)"><g><g transform="translate(16.66667,134.6019)"><text><tspan x="0" y="0" font-family="Connections Cond Light,Arial Narrow" font-weight="normal" font-style="normal" font-size="105.3333" fill="#000000">$80bn</tspan></text></g></g></g></g><g><g clip-path="url(#clip016)"><g><g transform="matrix(0,-1,1,0,553.521,2172.49)"><text><tspan x="0" y="0" font-family="Connections Cond Light,Arial Narrow" font-weight="normal" font-style="normal" font-size="105.3333" fill="#000000">C2020</tspan></text></g></g></g></g><g><g clip-path="url(#clip017)"><g><g transform="matrix(0,-1,1,0,881.1168,2172.49)"><text><tspan x="0" y="0" font-family="Connections Cond Light,Arial Narrow" font-weight="normal" font-style="normal" font-size="105.3333" fill="#000000">C2021</tspan></text></g></g></g></g><g><g clip-path="url(#clip018)"><g><g transform="matrix(0,-1,1,0,1208.713,2172.49)"><text><tspan x="0" y="0" font-family="Connections Cond Light,Arial Narrow" font-weight="normal" font-style="normal" font-size="105.3333" fill="#000000">C2022</tspan></text></g></g></g></g><g><g clip-path="url(#clip019)"><g><g transform="matrix(0,-1,1,0,1536.308,2172.49)"><text><tspan x="0" y="0" font-family="Connections Cond Light,Arial Narrow" font-weight="normal" font-style="normal" font-size="105.3333" fill="#000000">C2023</tspan></text></g></g></g></g><g><g clip-path="url(#clip020)"><g><g transform="matrix(0,-1,1,0,1863.904,2172.49)"><text><tspan x="0" y="0" font-family="Connections Cond Light,Arial Narrow" font-weight="normal" font-style="normal" font-size="105.3333" fill="#000000">C2024</tspan></text></g></g></g></g><g><g clip-path="url(#clip021)"><g><g transform="matrix(0,-1,1,0,2191.501,2220.824)"><text><tspan x="0" y="0" font-family="Connections Cond Light,Arial Narrow" font-weight="normal" font-style="normal" font-size="105.3333" fill="#000000">C2025E</tspan></text></g></g></g></g><g><g clip-path="url(#clip022)"><g><g transform="matrix(0,-1,1,0,2519.097,2220.824)"><text><tspan x="0" y="0" font-family="Connections Cond Light,Arial Narrow" font-weight="normal" font-style="normal" font-size="105.3333" fill="#000000">C2026E</tspan></text></g></g></g></g><g><g clip-path="url(#clip023)"><g><g transform="matrix(0,-1,1,0,2846.692,2220.824)"><text><tspan x="0" y="0" font-family="Connections Cond Light,Arial Narrow" font-weight="normal" font-style="normal" font-size="105.3333" fill="#000000">C2027E</tspan></text></g></g></g></g><g><g clip-path="url(#clip024)"><g><g transform="matrix(0,-1,1,0,3174.288,2220.824)"><text><tspan x="0" y="0" font-family="Connections Cond Light,Arial Narrow" font-weight="normal" font-style="normal" font-size="105.3333" fill="#000000">C2028E</tspan></text></g></g></g></g><g><g clip-path="url(#clip025)"><g><g transform="matrix(0,-1,1,0,3501.884,2220.824)"><text><tspan x="0" y="0" font-family="Connections Cond Light,Arial Narrow" font-weight="normal" font-style="normal" font-size="105.3333" fill="#000000">C2029E</tspan></text></g></g></g></g><g><g clip-path="url(#clip026)"><g><g transform="matrix(0,-1,1,0,3829.48,2220.824)"><text><tspan x="0" y="0" font-family="Connections Cond Light,Arial Narrow" font-weight="normal" font-style="normal" font-size="105.3333" fill="#000000">C2030E</tspan></text></g></g></g></g><g><g clip-path="url(#clip027)"><g><g transform="matrix(0,-1,1,0,-43.444,557.4081)"><text><tspan x="0" y="0" font-family="Connections Cond Light,Arial Narrow" font-weight="normal" font-style="normal" font-size="105.3333" fill="#000000">Thousands</tspan></text></g></g></g></g><g clip-path="url(#clip028)"><g transform="matrix(0.000656168,0,0,0.000656168,221.3333,2237.333)"><path d="M0,0 L5518912,0 L5518912,286512 L0,286512 Z" fill="#5b9bd5" fill-opacity="0" fill-rule="evenodd" /></g></g><g clip-path="url(#clip029)"><g transform="matrix(0.000656168,0,0,0.000656168,392,2304)"><path d="M0,0 L83312,0 L83312,83312 L0,83312 Z" fill="#012169" fill-rule="evenodd" /><path d="M0,0 L83312,0 L83312,0 L83312,83312 L83312,83312 L0,83312 Z" stroke-width="8466.667" stroke-linejoin="round" stroke-miterlimit="13.33333" stroke="#ffffff" fill="none" fill-rule="evenodd" /></g></g><g><g clip-path="url(#clip030)"><g><g transform="translate(469.1557,2360.884)"><text><tspan x="0" y="0" font-family="Connections Cond Light,Arial Narrow" font-weight="normal" font-style="normal" font-size="105.3333" fill="#000000">Revenue tied to Safari Payments</tspan></text></g></g></g></g><g clip-path="url(#clip031)"><g transform="matrix(0.000656168,0,0,0.000656168,1881.333,2304)"><path d="M0,0 L83312,0 L83312,83312 L0,83312 Z" fill="#009cde" fill-rule="evenodd" /><path d="M0,0 L83312,0 L83312,0 L83312,83312 L83312,83312 L0,83312 Z" stroke-width="8466.667" stroke-linejoin="round" stroke-miterlimit="13.33333" stroke="#ffffff" fill="none" fill-rule="evenodd" /></g></g><g><g clip-path="url(#clip032)"><g><g transform="translate(1958.381,2360.884)"><text><tspan x="0" y="0" font-family="Connections Cond Light,Arial Narrow" font-weight="normal" font-style="normal" font-size="105.3333" fill="#000000">Apple Search Ads Revenue</tspan></text></g></g></g></g><g clip-path="url(#clip033)"><g transform="matrix(0.000656168,0,0,0.000656168,3137.333,2304)"><path d="M0,0 L81280.01,0 L81280.01,83312 L0,83312 Z" fill="#e56200" fill-rule="evenodd" /><path d="M0,0 L81280.01,0 L81280.01,0 L81280.01,83312 L81280.01,83312 L0,83312 Z" stroke-width="8466.667" stroke-linejoin="round" stroke-miterlimit="13.33333" stroke="#ffffff" fill="none" fill-rule="evenodd" /></g></g><g><g clip-path="url(#clip034)"><g><g transform="translate(3213.993,2360.884)"><text><tspan x="0" y="0" font-family="Connections Cond Light,Arial Narrow" font-weight="normal" font-style="normal" font-size="105.3333" fill="#000000">MFI Revenue</tspan></text></g></g></g></g><g /></g></g></g></g></g></g></g></g></g></svg>