<?xml version="1.0" encoding="UTF-8" standalone="no"?>
<svg xmlns:dc="http://purl.org/dc/elements/1.1/" xmlns:cc="http://creativecommons.org/ns#" xmlns:rdf="http://www.w3.org/1999/02/22-rdf-syntax-ns#" xmlns:svg="http://www.w3.org/2000/svg" xmlns="http://www.w3.org/2000/svg" viewBox="66.31625 413 650.6875 335.3125" height="335.3125" width="650.6875" xml:space="preserve" version="1.1" id="svg2">
  <metadata id="metadata8">
    <rdf:RDF>
      <cc:Work rdf:about="">
        <dc:format>image/svg+xml</dc:format>
        <dc:type rdf:resource="http://purl.org/dc/dcmitype/StillImage"/>
      </cc:Work>
    </rdf:RDF>
  </metadata>
  <defs id="defs6">
    <clipPath id="clipPath16" clipPathUnits="userSpaceOnUse">
      <path style="clip-rule:evenodd" id="path18" d="m 53.053,287.62 520.55,0 0,268.29 -520.55,0 0,-268.29 z"/>
    </clipPath>
    <clipPath id="clipPath34" clipPathUnits="userSpaceOnUse">
      <path style="clip-rule:evenodd" id="path36" d="m 53.179,287.75 520.42,0 0,268.04 -520.42,0 0,-268.04 z"/>
    </clipPath>
    <clipPath id="clipPath46" clipPathUnits="userSpaceOnUse">
      <path style="clip-rule:evenodd" id="path48" d="m 53.179,287.75 520.42,0 0,268.04 -520.42,0 0,-268.04 z"/>
    </clipPath>
    <clipPath id="clipPath58" clipPathUnits="userSpaceOnUse">
      <path style="clip-rule:evenodd" id="path60" d="m 53.179,287.75 520.42,0 0,268.04 -520.42,0 0,-268.04 z"/>
    </clipPath>
    <clipPath id="clipPath70" clipPathUnits="userSpaceOnUse">
      <path style="clip-rule:evenodd" id="path72" d="m 53.179,287.75 520.42,0 0,268.04 -520.42,0 0,-268.04 z"/>
    </clipPath>
    <clipPath id="clipPath82" clipPathUnits="userSpaceOnUse">
      <path style="clip-rule:evenodd" id="path84" d="m 53.179,287.75 520.42,0 0,268.04 -520.42,0 0,-268.04 z"/>
    </clipPath>
    <clipPath id="clipPath94" clipPathUnits="userSpaceOnUse">
      <path style="clip-rule:evenodd" id="path96" d="m 53.179,287.75 520.42,0 0,268.04 -520.42,0 0,-268.04 z"/>
    </clipPath>
    <clipPath id="clipPath106" clipPathUnits="userSpaceOnUse">
      <path style="clip-rule:evenodd" id="path108" d="m 53.179,287.75 520.42,0 0,268.04 -520.42,0 0,-268.04 z"/>
    </clipPath>
    <clipPath id="clipPath118" clipPathUnits="userSpaceOnUse">
      <path style="clip-rule:evenodd" id="path120" d="m 53.179,287.75 520.42,0 0,268.04 -520.42,0 0,-268.04 z"/>
    </clipPath>
    <clipPath id="clipPath130" clipPathUnits="userSpaceOnUse">
      <path style="clip-rule:evenodd" id="path132" d="m 53.179,287.75 520.42,0 0,268.04 -520.42,0 0,-268.04 z"/>
    </clipPath>
    <clipPath id="clipPath142" clipPathUnits="userSpaceOnUse">
      <path style="clip-rule:evenodd" id="path144" d="m 53.179,287.75 520.42,0 0,268.04 -520.42,0 0,-268.04 z"/>
    </clipPath>
    <clipPath id="clipPath154" clipPathUnits="userSpaceOnUse">
      <path style="clip-rule:evenodd" id="path156" d="m 53.179,287.75 520.42,0 0,268.04 -520.42,0 0,-268.04 z"/>
    </clipPath>
    <clipPath id="clipPath166" clipPathUnits="userSpaceOnUse">
      <path style="clip-rule:evenodd" id="path168" d="m 53.179,287.75 520.42,0 0,268.04 -520.42,0 0,-268.04 z"/>
    </clipPath>
    <clipPath id="clipPath178" clipPathUnits="userSpaceOnUse">
      <path style="clip-rule:evenodd" id="path180" d="m 53.179,287.75 520.42,0 0,268.04 -520.42,0 0,-268.04 z"/>
    </clipPath>
    <clipPath id="clipPath190" clipPathUnits="userSpaceOnUse">
      <path style="clip-rule:evenodd" id="path192" d="m 53.179,287.75 520.42,0 0,268.04 -520.42,0 0,-268.04 z"/>
    </clipPath>
    <clipPath id="clipPath202" clipPathUnits="userSpaceOnUse">
      <path style="clip-rule:evenodd" id="path204" d="m 53.179,287.75 520.42,0 0,268.04 -520.42,0 0,-268.04 z"/>
    </clipPath>
    <clipPath id="clipPath214" clipPathUnits="userSpaceOnUse">
      <path style="clip-rule:evenodd" id="path216" d="m 53.179,287.75 520.42,0 0,268.04 -520.42,0 0,-268.04 z"/>
    </clipPath>
    <clipPath id="clipPath226" clipPathUnits="userSpaceOnUse">
      <path style="clip-rule:evenodd" id="path228" d="m 53.179,287.75 520.42,0 0,268.04 -520.42,0 0,-268.04 z"/>
    </clipPath>
    <clipPath id="clipPath238" clipPathUnits="userSpaceOnUse">
      <path style="clip-rule:evenodd" id="path240" d="m 53.179,287.75 520.42,0 0,268.04 -520.42,0 0,-268.04 z"/>
    </clipPath>
    <clipPath id="clipPath250" clipPathUnits="userSpaceOnUse">
      <path style="clip-rule:evenodd" id="path252" d="m 53.179,287.75 520.42,0 0,268.04 -520.42,0 0,-268.04 z"/>
    </clipPath>
    <clipPath id="clipPath262" clipPathUnits="userSpaceOnUse">
      <path style="clip-rule:evenodd" id="path264" d="m 53.179,287.75 520.42,0 0,268.04 -520.42,0 0,-268.04 z"/>
    </clipPath>
    <clipPath id="clipPath274" clipPathUnits="userSpaceOnUse">
      <path style="clip-rule:evenodd" id="path276" d="m 53.179,287.75 520.42,0 0,268.04 -520.42,0 0,-268.04 z"/>
    </clipPath>
    <clipPath id="clipPath286" clipPathUnits="userSpaceOnUse">
      <path style="clip-rule:evenodd" id="path288" d="m 53.179,287.75 520.42,0 0,268.04 -520.42,0 0,-268.04 z"/>
    </clipPath>
    <clipPath id="clipPath298" clipPathUnits="userSpaceOnUse">
      <path style="clip-rule:evenodd" id="path300" d="m 53.179,287.75 520.42,0 0,268.04 -520.42,0 0,-268.04 z"/>
    </clipPath>
    <clipPath id="clipPath310" clipPathUnits="userSpaceOnUse">
      <path style="clip-rule:evenodd" id="path312" d="m 53.179,287.75 520.42,0 0,268.04 -520.42,0 0,-268.04 z"/>
    </clipPath>
    <clipPath id="clipPath326" clipPathUnits="userSpaceOnUse">
      <path style="clip-rule:evenodd" id="path328" d="m 53.179,287.75 520.42,0 0,268.04 -520.42,0 0,-268.04 z"/>
    </clipPath>
    <clipPath id="clipPath340" clipPathUnits="userSpaceOnUse">
      <path style="clip-rule:evenodd" id="path342" d="m 53.179,287.75 520.42,0 0,268.04 -520.42,0 0,-268.04 z"/>
    </clipPath>
  </defs>
  <g transform="matrix(1.25,0,0,-1.25,0,1107.7875)" id="g10">
    <g id="g12">
      <g clip-path="url(#clipPath16)" id="g14">
        <path id="path20" style="fill:none;stroke:#000000;stroke-width:0.14;stroke-linecap:butt;stroke-linejoin:miter;stroke-miterlimit:10;stroke-dasharray:none;stroke-opacity:0" d="m 53.113,555.81 520.477,0 0,-268.11 -520.477,0 0,268.11 z"/>
      </g>
    </g>
    <path id="path22" style="fill:#ffffff;fill-opacity:1;fill-rule:evenodd;stroke:none" d="m 53.113,287.7 520.48,0 0,268.11 -520.48,0 0,-268.11 z"/>
    <path id="path24" style="fill:none;stroke:#808080;stroke-width:1.69280005;stroke-linecap:round;stroke-linejoin:round;stroke-miterlimit:10;stroke-dasharray:none;stroke-opacity:1" d="m 97.68,329.28 444.62,0"/>
    <path id="path26" style="fill:none;stroke:#005aa4;stroke-width:2.03139997;stroke-linecap:round;stroke-linejoin:round;stroke-miterlimit:10;stroke-dasharray:none;stroke-opacity:1" d="m 101.1,334.74 6.88,0.74 6.84,0.85 6.84,0.86 6.84,0.86 6.85,1.02 6.84,1.2 6.84,1.37 6.84,1.02 6.84,1.03 6.84,0.68 6.85,1.03 6.84,1.37 6.84,1.37 6.84,1.36 6.84,1.2 6.84,1.54 6.85,1.71 6.84,1.71 6.84,1.88 6.84,1.71 6.84,1.71 6.84,1.72 6.85,1.53 6.84,2.06 6.84,2.39 6.84,2.05 6.84,2.4 6.84,2.56 6.85,2.91 6.84,3.42 6.84,3.42 6.84,3.77 6.84,3.59 6.84,3.76 6.85,3.76 6.67,3.94 6.84,4.27 6.84,3.94 6.84,4.1 6.84,4.28 6.84,4.28 6.85,4.1 6.84,3.76 6.84,3.77 6.84,4.96 6.84,5.13 6.84,4.62 6.85,4.61 6.84,3.77 6.84,2.56 6.84,4.11 6.84,6.33 6.84,6.5 6.85,5.98 6.84,5.13 6.84,4.28 6.84,3.59 6.84,2.57 6.84,2.05 6.85,2.22 6.84,2.23 6.84,1.36 6.84,1.2 6.89,1.54"/>
    <path id="path28" style="fill:none;stroke:#eadfbc;stroke-width:2.03139997;stroke-linecap:round;stroke-linejoin:round;stroke-miterlimit:10;stroke-dasharray:none;stroke-opacity:1" d="m 101.1,357.45 6.88,0.78 6.84,0.51 6.84,0.51 6.84,0.52 6.85,0.85 6.84,0.86 6.84,0.51 6.84,0.69 6.84,0.51 6.84,0.85 6.85,0.69 6.84,0.51 6.84,0.86 6.84,0.85 6.84,1.03 6.84,1.19 6.85,1.2 6.84,1.2 6.84,1.2 6.84,1.19 6.84,1.03 6.84,0.86 6.85,0.85 6.84,1.03 6.84,1.02 6.84,0.86 6.84,1.02 6.84,0.86 6.85,0.85 6.84,0.69 6.84,0.34 6.84,0.17 6.84,0.17 6.84,0 6.85,0 6.67,-0.17 6.84,-0.17 6.84,-0.34 6.84,-0.51 6.84,-0.35 6.84,-0.34 6.85,-0.17 6.84,-0.17 6.84,0 6.84,0.17 6.84,0.51 6.84,0.86 6.85,1.37 6.84,1.37 6.84,1.19 6.84,1.71 6.84,2.23 6.84,2.39 6.85,2.23 6.84,2.22 6.84,2.22 6.84,2.4 6.84,2.56 6.84,2.91 6.85,2.91 6.84,2.91 6.84,3.25 6.84,3.76 6.89,3.68"/>
    <g id="g30">
      <g clip-path="url(#clipPath34)" id="g32"><text id="text38" style="font-variant:normal;font-weight:normal;font-size:12.14700031px;font-family:'Roboto Condensed';-inkscape-font-specification:RobotoCondensed-Regular;writing-mode:lr-tb;fill:#000000;fill-opacity:1;fill-rule:nonzero;stroke:none" transform="matrix(1,0,0,-1,72.779,325.49)"><tspan id="tspan40" y="0" x="0 5.9998178">5%</tspan></text>
</g>
    </g>
    <g id="g42">
      <g clip-path="url(#clipPath46)" id="g44"><text id="text50" style="font-variant:normal;font-weight:normal;font-size:12.14700031px;font-family:'Roboto Condensed';-inkscape-font-specification:RobotoCondensed-Regular;writing-mode:lr-tb;fill:#000000;fill-opacity:1;fill-rule:nonzero;stroke:none" transform="matrix(1,0,0,-1,66.758,362.27)"><tspan id="tspan52" y="0" x="0 5.9998178 11.999636">10%</tspan></text>
</g>
    </g>
    <g id="g54">
      <g clip-path="url(#clipPath58)" id="g56"><text id="text62" style="font-variant:normal;font-weight:normal;font-size:12.14700031px;font-family:'Roboto Condensed';-inkscape-font-specification:RobotoCondensed-Regular;writing-mode:lr-tb;fill:#000000;fill-opacity:1;fill-rule:nonzero;stroke:none" transform="matrix(1,0,0,-1,66.758,399.03)"><tspan id="tspan64" y="0" x="0 5.9998178 11.999636">15%</tspan></text>
</g>
    </g>
    <g id="g66">
      <g clip-path="url(#clipPath70)" id="g68"><text id="text74" style="font-variant:normal;font-weight:normal;font-size:12.14700031px;font-family:'Roboto Condensed';-inkscape-font-specification:RobotoCondensed-Regular;writing-mode:lr-tb;fill:#000000;fill-opacity:1;fill-rule:nonzero;stroke:none" transform="matrix(1,0,0,-1,66.758,435.81)"><tspan id="tspan76" y="0" x="0 5.9998178 11.999636">20%</tspan></text>
</g>
    </g>
    <g id="g78">
      <g clip-path="url(#clipPath82)" id="g80"><text id="text86" style="font-variant:normal;font-weight:normal;font-size:12.14700031px;font-family:'Roboto Condensed';-inkscape-font-specification:RobotoCondensed-Regular;writing-mode:lr-tb;fill:#000000;fill-opacity:1;fill-rule:nonzero;stroke:none" transform="matrix(1,0,0,-1,66.758,472.57)"><tspan id="tspan88" y="0" x="0 5.9998178 11.999636">25%</tspan></text>
</g>
    </g>
    <g id="g90">
      <g clip-path="url(#clipPath94)" id="g92"><text id="text98" style="font-variant:normal;font-weight:normal;font-size:12.14700031px;font-family:'Roboto Condensed';-inkscape-font-specification:RobotoCondensed-Regular;writing-mode:lr-tb;fill:#000000;fill-opacity:1;fill-rule:nonzero;stroke:none" transform="matrix(1,0,0,-1,66.758,509.35)"><tspan id="tspan100" y="0" x="0 5.9998178 11.999636">30%</tspan></text>
</g>
    </g>
    <g id="g102">
      <g clip-path="url(#clipPath106)" id="g104"><text id="text110" style="font-variant:normal;font-weight:normal;font-size:12.14700031px;font-family:'Roboto Condensed';-inkscape-font-specification:RobotoCondensed-Regular;writing-mode:lr-tb;fill:#000000;fill-opacity:1;fill-rule:nonzero;stroke:none" transform="matrix(-4.4e-8,1,1,4.4e-8,105.43,297.41)"><tspan id="tspan112" y="0" x="0 6.000618 11.952648 18.086884">1960</tspan></text>
</g>
    </g>
    <g id="g114">
      <g clip-path="url(#clipPath118)" id="g116"><text id="text122" style="font-variant:normal;font-weight:normal;font-size:12.14700031px;font-family:'Roboto Condensed';-inkscape-font-specification:RobotoCondensed-Regular;writing-mode:lr-tb;fill:#000000;fill-opacity:1;fill-rule:nonzero;stroke:none" transform="matrix(-4.4e-8,1,1,4.4e-8,132.8,297.41)"><tspan id="tspan124" y="0" x="0 6.000618 11.952648 18.086884">1964</tspan></text>
</g>
    </g>
    <g id="g126">
      <g clip-path="url(#clipPath130)" id="g128"><text id="text134" style="font-variant:normal;font-weight:normal;font-size:12.14700031px;font-family:'Roboto Condensed';-inkscape-font-specification:RobotoCondensed-Regular;writing-mode:lr-tb;fill:#000000;fill-opacity:1;fill-rule:nonzero;stroke:none" transform="matrix(-4.4e-8,1,1,4.4e-8,160.17,297.41)"><tspan id="tspan136" y="0" x="0 6.000618 11.952648 18.086884">1968</tspan></text>
</g>
    </g>
    <g id="g138">
      <g clip-path="url(#clipPath142)" id="g140"><text id="text146" style="font-variant:normal;font-weight:normal;font-size:12.14700031px;font-family:'Roboto Condensed';-inkscape-font-specification:RobotoCondensed-Regular;writing-mode:lr-tb;fill:#000000;fill-opacity:1;fill-rule:nonzero;stroke:none" transform="matrix(-4.4e-8,1,1,4.4e-8,187.54,297.41)"><tspan id="tspan148" y="0" x="0 6.000618 11.952648 18.086884">1972</tspan></text>
</g>
    </g>
    <g id="g150">
      <g clip-path="url(#clipPath154)" id="g152"><text id="text158" style="font-variant:normal;font-weight:normal;font-size:12.14700031px;font-family:'Roboto Condensed';-inkscape-font-specification:RobotoCondensed-Regular;writing-mode:lr-tb;fill:#000000;fill-opacity:1;fill-rule:nonzero;stroke:none" transform="matrix(-4.4e-8,1,1,4.4e-8,214.91,297.41)"><tspan id="tspan160" y="0" x="0 6.000618 11.952648 18.086884">1976</tspan></text>
</g>
    </g>
    <g id="g162">
      <g clip-path="url(#clipPath166)" id="g164"><text id="text170" style="font-variant:normal;font-weight:normal;font-size:12.14700031px;font-family:'Roboto Condensed';-inkscape-font-specification:RobotoCondensed-Regular;writing-mode:lr-tb;fill:#000000;fill-opacity:1;fill-rule:nonzero;stroke:none" transform="matrix(-4.4e-8,1,1,4.4e-8,242.27,297.41)"><tspan id="tspan172" y="0" x="0 6.000618 11.952648 18.086884">1980</tspan></text>
</g>
    </g>
    <g id="g174">
      <g clip-path="url(#clipPath178)" id="g176"><text id="text182" style="font-variant:normal;font-weight:normal;font-size:12.14700031px;font-family:'Roboto Condensed';-inkscape-font-specification:RobotoCondensed-Regular;writing-mode:lr-tb;fill:#000000;fill-opacity:1;fill-rule:nonzero;stroke:none" transform="matrix(-4.4e-8,1,1,4.4e-8,269.64,297.41)"><tspan id="tspan184" y="0" x="0 6.000618 11.952648 18.086884">1984</tspan></text>
</g>
    </g>
    <g id="g186">
      <g clip-path="url(#clipPath190)" id="g188"><text id="text194" style="font-variant:normal;font-weight:normal;font-size:12.14700031px;font-family:'Roboto Condensed';-inkscape-font-specification:RobotoCondensed-Regular;writing-mode:lr-tb;fill:#000000;fill-opacity:1;fill-rule:nonzero;stroke:none" transform="matrix(-4.4e-8,1,1,4.4e-8,297.01,297.41)"><tspan id="tspan196" y="0" x="0 6.000618 11.952648 18.086884">1988</tspan></text>
</g>
    </g>
    <g id="g198">
      <g clip-path="url(#clipPath202)" id="g200"><text id="text206" style="font-variant:normal;font-weight:normal;font-size:12.14700031px;font-family:'Roboto Condensed';-inkscape-font-specification:RobotoCondensed-Regular;writing-mode:lr-tb;fill:#000000;fill-opacity:1;fill-rule:nonzero;stroke:none" transform="matrix(-4.4e-8,1,1,4.4e-8,324.38,297.41)"><tspan id="tspan208" y="0" x="0 6.000618 11.952648 18.086884">1992</tspan></text>
</g>
    </g>
    <g id="g210">
      <g clip-path="url(#clipPath214)" id="g212"><text id="text218" style="font-variant:normal;font-weight:normal;font-size:12.14700031px;font-family:'Roboto Condensed';-inkscape-font-specification:RobotoCondensed-Regular;writing-mode:lr-tb;fill:#000000;fill-opacity:1;fill-rule:nonzero;stroke:none" transform="matrix(-4.4e-8,1,1,4.4e-8,351.75,297.41)"><tspan id="tspan220" y="0" x="0 6.000618 11.952648 18.086884">1996</tspan></text>
</g>
    </g>
    <g id="g222">
      <g clip-path="url(#clipPath226)" id="g224"><text id="text230" style="font-variant:normal;font-weight:normal;font-size:12.16800022px;font-family:'Roboto Condensed';-inkscape-font-specification:RobotoCondensed-Regular;writing-mode:lr-tb;fill:#000000;fill-opacity:1;fill-rule:nonzero;stroke:none" transform="matrix(-4.4e-8,1,1,4.4e-8,379.09,297.41)"><tspan id="tspan232" y="0" x="0 6.0109921 11.961144 18.093817">2000</tspan></text>
</g>
    </g>
    <g id="g234">
      <g clip-path="url(#clipPath238)" id="g236"><text id="text242" style="font-variant:normal;font-weight:normal;font-size:12.14700031px;font-family:'Roboto Condensed';-inkscape-font-specification:RobotoCondensed-Regular;writing-mode:lr-tb;fill:#000000;fill-opacity:1;fill-rule:nonzero;stroke:none" transform="matrix(-4.4e-8,1,1,4.4e-8,406.46,297.41)"><tspan id="tspan244" y="0" x="0 6.000618 11.952648 18.086884">2004</tspan></text>
</g>
    </g>
    <g id="g246">
      <g clip-path="url(#clipPath250)" id="g248"><text id="text254" style="font-variant:normal;font-weight:normal;font-size:12.14700031px;font-family:'Roboto Condensed';-inkscape-font-specification:RobotoCondensed-Regular;writing-mode:lr-tb;fill:#000000;fill-opacity:1;fill-rule:nonzero;stroke:none" transform="matrix(-4.4e-8,1,1,4.4e-8,433.83,297.41)"><tspan id="tspan256" y="0" x="0 6.000618 11.952648 18.086884">2008</tspan></text>
</g>
    </g>
    <g id="g258">
      <g clip-path="url(#clipPath262)" id="g260"><text id="text266" style="font-variant:normal;font-weight:normal;font-size:12.14700031px;font-family:'Roboto Condensed';-inkscape-font-specification:RobotoCondensed-Regular;writing-mode:lr-tb;fill:#000000;fill-opacity:1;fill-rule:nonzero;stroke:none" transform="matrix(-4.4e-8,1,1,4.4e-8,461.2,297.41)"><tspan id="tspan268" y="0" x="0 6.000618 11.952648 18.086884">2012</tspan></text>
</g>
    </g>
    <g id="g270">
      <g clip-path="url(#clipPath274)" id="g272"><text id="text278" style="font-variant:normal;font-weight:normal;font-size:12.14700031px;font-family:'Roboto Condensed';-inkscape-font-specification:RobotoCondensed-Regular;writing-mode:lr-tb;fill:#000000;fill-opacity:1;fill-rule:nonzero;stroke:none" transform="matrix(-4.4e-8,1,1,4.4e-8,488.57,297.41)"><tspan id="tspan280" y="0" x="0 6.000618 11.952648 18.086884">2016</tspan></text>
</g>
    </g>
    <g id="g282">
      <g clip-path="url(#clipPath286)" id="g284"><text id="text290" style="font-variant:normal;font-weight:normal;font-size:12.14700031px;font-family:'Roboto Condensed';-inkscape-font-specification:RobotoCondensed-Regular;writing-mode:lr-tb;fill:#000000;fill-opacity:1;fill-rule:nonzero;stroke:none" transform="matrix(-4.4e-8,1,1,4.4e-8,515.94,297.41)"><tspan id="tspan292" y="0" x="0 6.000618 11.952648 18.086884">2020</tspan></text>
</g>
    </g>
    <g id="g294">
      <g clip-path="url(#clipPath298)" id="g296"><text id="text302" style="font-variant:normal;font-weight:normal;font-size:12.14700031px;font-family:'Roboto Condensed';-inkscape-font-specification:RobotoCondensed-Regular;writing-mode:lr-tb;fill:#000000;fill-opacity:1;fill-rule:nonzero;stroke:none" transform="matrix(-4.4e-8,1,1,4.4e-8,543.31,297.41)"><tspan id="tspan304" y="0" x="0 6.000618 11.952648 18.086884">2024</tspan></text>
</g>
    </g>
    <g id="g306">
      <g clip-path="url(#clipPath310)" id="g308"><text id="text314" style="font-variant:normal;font-weight:bold;font-size:14.88399982px;font-family:'Roboto Condensed';-inkscape-font-specification:RobotoCondensed-Bold;writing-mode:lr-tb;fill:#000000;fill-opacity:1;fill-rule:nonzero;stroke:none" transform="matrix(1,0,0,-1,217.89,531.41)"><tspan id="tspan316" y="0" x="0 9.5704117 12.993732 21.031092 28.354019 35.364384 40.305874 47.509727 50.75444 58.107136 63.063507 66.486832 74.851639 82.20433 89.571915 96.894836 100.64561 107.65598 112.27001 116.02078 123.38836 130.71129 134.32809 143.21385 150.7005 157.88947 165.27194 168.6506 176.18192 183.71321">% Share of Population Aged 65+</tspan></text>
</g>
    </g>
    <path id="path318" style="fill:#ffffff;fill-opacity:1;fill-rule:evenodd;stroke:none" d="m 248.77,495.02 129.17,0 0,22.605 -129.17,0 0,-22.605 z"/>
    <path id="path320" style="fill:none;stroke:#005aa4;stroke-width:2.03139997;stroke-linecap:round;stroke-linejoin:round;stroke-miterlimit:10;stroke-dasharray:none;stroke-opacity:1" d="m 260.21,506.32 26,0"/>
    <g id="g322">
      <g clip-path="url(#clipPath326)" id="g324"><text id="text330" style="font-variant:normal;font-weight:normal;font-size:12.14700031px;font-family:'Roboto Condensed';-inkscape-font-specification:RobotoCondensed-Regular;writing-mode:lr-tb;fill:#000000;fill-opacity:1;fill-rule:nonzero;stroke:none" transform="matrix(1,0,0,-1,289.01,502.57)"><tspan id="tspan332" y="0" x="0 5.8062658 11.770443 17.758915 23.577328">Japan</tspan></text>
</g>
    </g>
    <path id="path334" style="fill:none;stroke:#eadfbc;stroke-width:2.03139997;stroke-linecap:round;stroke-linejoin:round;stroke-miterlimit:10;stroke-dasharray:none;stroke-opacity:1" d="m 329.36,506.32 26,0"/>
    <g id="g336">
      <g clip-path="url(#clipPath340)" id="g338"><text id="text344" style="font-variant:normal;font-weight:normal;font-size:12.14700031px;font-family:'Roboto Condensed';-inkscape-font-specification:RobotoCondensed-Regular;writing-mode:lr-tb;fill:#000000;fill-opacity:1;fill-rule:nonzero;stroke:none" transform="matrix(1,0,0,-1,358.17,502.57)"><tspan id="tspan346" y="0" x="0 6.8419142">US</tspan></text>
</g>
    </g>
  </g>
</svg>
