<?xml version="1.0" encoding="UTF-8" standalone="no"?>
<svg xmlns:dc="http://purl.org/dc/elements/1.1/" xmlns:cc="http://creativecommons.org/ns#" xmlns:rdf="http://www.w3.org/1999/02/22-rdf-syntax-ns#" xmlns:svg="http://www.w3.org/2000/svg" xmlns="http://www.w3.org/2000/svg" viewBox="63.21125 312 638.78875 365.85" height="365.85" width="638.78875" xml:space="preserve" version="1.1" id="svg2">
  <metadata id="metadata8">
    <rdf:RDF>
      <cc:Work rdf:about="">
        <dc:format>image/svg+xml</dc:format>
        <dc:type rdf:resource="http://purl.org/dc/dcmitype/StillImage"/>
      </cc:Work>
    </rdf:RDF>
  </metadata>
  <defs id="defs6">
    <clipPath id="clipPath16" clipPathUnits="userSpaceOnUse">
      <path style="clip-rule:evenodd" id="path18" d="m 50.4,249.72 511.2,0 0,292.68 -511.2,0 0,-292.68 z"/>
    </clipPath>
    <clipPath id="clipPath26" clipPathUnits="userSpaceOnUse">
      <path style="clip-rule:evenodd" id="path28" d="m 50.4,249.72 511.2,0 0,292.68 -511.2,0 0,-292.68 z"/>
    </clipPath>
    <clipPath id="clipPath38" clipPathUnits="userSpaceOnUse">
      <path style="clip-rule:evenodd" id="path40" d="m 85.92,294.95 451.39,0 0,222.08 -451.39,0 0,-222.08 z"/>
    </clipPath>
    <clipPath id="clipPath48" clipPathUnits="userSpaceOnUse">
      <path style="clip-rule:evenodd" id="path50" d="m 50.52,249.72 511.08,0 0,292.56 -511.08,0 0,-292.56 z"/>
    </clipPath>
    <clipPath id="clipPath60" clipPathUnits="userSpaceOnUse">
      <path style="clip-rule:evenodd" id="path62" d="m 50.52,249.72 511.08,0 0,292.56 -511.08,0 0,-292.56 z"/>
    </clipPath>
    <clipPath id="clipPath72" clipPathUnits="userSpaceOnUse">
      <path style="clip-rule:evenodd" id="path74" d="m 50.52,249.72 511.08,0 0,292.56 -511.08,0 0,-292.56 z"/>
    </clipPath>
    <clipPath id="clipPath84" clipPathUnits="userSpaceOnUse">
      <path style="clip-rule:evenodd" id="path86" d="m 50.52,249.72 511.08,0 0,292.56 -511.08,0 0,-292.56 z"/>
    </clipPath>
    <clipPath id="clipPath96" clipPathUnits="userSpaceOnUse">
      <path style="clip-rule:evenodd" id="path98" d="m 50.52,249.72 511.08,0 0,292.56 -511.08,0 0,-292.56 z"/>
    </clipPath>
    <clipPath id="clipPath108" clipPathUnits="userSpaceOnUse">
      <path style="clip-rule:evenodd" id="path110" d="m 50.52,249.72 511.08,0 0,292.56 -511.08,0 0,-292.56 z"/>
    </clipPath>
    <clipPath id="clipPath120" clipPathUnits="userSpaceOnUse">
      <path style="clip-rule:evenodd" id="path122" d="m 50.52,249.72 511.08,0 0,292.56 -511.08,0 0,-292.56 z"/>
    </clipPath>
    <clipPath id="clipPath132" clipPathUnits="userSpaceOnUse">
      <path style="clip-rule:evenodd" id="path134" d="m 50.52,249.72 511.08,0 0,292.56 -511.08,0 0,-292.56 z"/>
    </clipPath>
    <clipPath id="clipPath144" clipPathUnits="userSpaceOnUse">
      <path style="clip-rule:evenodd" id="path146" d="m 50.52,249.72 511.08,0 0,292.56 -511.08,0 0,-292.56 z"/>
    </clipPath>
    <clipPath id="clipPath156" clipPathUnits="userSpaceOnUse">
      <path style="clip-rule:evenodd" id="path158" d="m 561.55,542.37 0,-292.65 -511.043,0 0,292.65 511.043,0 z"/>
    </clipPath>
    <clipPath id="clipPath166" clipPathUnits="userSpaceOnUse">
      <path style="clip-rule:evenodd" id="path168" d="m 561.55,542.37 0,-292.65 -511.043,0 0,292.65 511.043,0 z"/>
    </clipPath>
    <clipPath id="clipPath176" clipPathUnits="userSpaceOnUse">
      <path style="clip-rule:evenodd" id="path178" d="m 561.55,542.37 0,-292.65 -511.043,0 0,292.65 511.043,0 z"/>
    </clipPath>
    <clipPath id="clipPath186" clipPathUnits="userSpaceOnUse">
      <path style="clip-rule:evenodd" id="path188" d="m 561.55,542.37 0,-292.65 -511.043,0 0,292.65 511.043,0 z"/>
    </clipPath>
    <clipPath id="clipPath196" clipPathUnits="userSpaceOnUse">
      <path style="clip-rule:evenodd" id="path198" d="m 561.55,542.37 0,-292.65 -511.043,0 0,292.65 511.043,0 z"/>
    </clipPath>
    <clipPath id="clipPath206" clipPathUnits="userSpaceOnUse">
      <path style="clip-rule:evenodd" id="path208" d="m 50.507,542.37 511.043,0 0,-292.65 -511.043,0 0,292.65 z"/>
    </clipPath>
    <clipPath id="clipPath216" clipPathUnits="userSpaceOnUse">
      <path style="clip-rule:evenodd" id="path218" d="m 561.55,542.37 0,-292.65 -511.043,0 0,292.65 511.043,0 z"/>
    </clipPath>
    <clipPath id="clipPath226" clipPathUnits="userSpaceOnUse">
      <path style="clip-rule:evenodd" id="path228" d="m 561.55,542.37 0,-292.65 -511.043,0 0,292.65 511.043,0 z"/>
    </clipPath>
    <clipPath id="clipPath236" clipPathUnits="userSpaceOnUse">
      <path style="clip-rule:evenodd" id="path238" d="m 50.507,542.37 511.043,0 0,-292.65 -511.043,0 0,292.65 z"/>
    </clipPath>
    <clipPath id="clipPath246" clipPathUnits="userSpaceOnUse">
      <path style="clip-rule:evenodd" id="path248" d="m 50.507,542.37 511.043,0 0,-292.65 -511.043,0 0,292.65 z"/>
    </clipPath>
    <clipPath id="clipPath256" clipPathUnits="userSpaceOnUse">
      <path style="clip-rule:evenodd" id="path258" d="m 50.507,542.37 511.043,0 0,-292.65 -511.043,0 0,292.65 z"/>
    </clipPath>
    <clipPath id="clipPath266" clipPathUnits="userSpaceOnUse">
      <path style="clip-rule:evenodd" id="path268" d="m 50.507,542.37 511.043,0 0,-292.65 -511.043,0 0,292.65 z"/>
    </clipPath>
    <clipPath id="clipPath276" clipPathUnits="userSpaceOnUse">
      <path style="clip-rule:evenodd" id="path278" d="m 50.507,542.37 511.043,0 0,-292.65 -511.043,0 0,292.65 z"/>
    </clipPath>
    <clipPath id="clipPath286" clipPathUnits="userSpaceOnUse">
      <path style="clip-rule:evenodd" id="path288" d="m 50.507,542.37 511.043,0 0,-292.65 -511.043,0 0,292.65 z"/>
    </clipPath>
    <clipPath id="clipPath296" clipPathUnits="userSpaceOnUse">
      <path style="clip-rule:evenodd" id="path298" d="m 50.507,542.37 511.043,0 0,-292.65 -511.043,0 0,292.65 z"/>
    </clipPath>
    <clipPath id="clipPath306" clipPathUnits="userSpaceOnUse">
      <path style="clip-rule:evenodd" id="path308" d="m 561.55,542.37 0,-292.65 -511.043,0 0,292.65 511.043,0 z"/>
    </clipPath>
    <clipPath id="clipPath318" clipPathUnits="userSpaceOnUse">
      <path style="clip-rule:evenodd" id="path320" d="m 50.52,249.72 511.08,0 0,292.56 -511.08,0 0,-292.56 z"/>
    </clipPath>
  </defs>
  <g transform="matrix(1.25,0,0,-1.25,0,990)" id="g10">
    <g id="g12">
      <g clip-path="url(#clipPath16)" id="g14">
        <path id="path20" style="fill:none;stroke:#000000;stroke-width:0.14;stroke-linecap:butt;stroke-linejoin:miter;stroke-miterlimit:10;stroke-dasharray:none;stroke-opacity:0" d="m 50.639,249.62 510.98,0 0,292.71 -510.98,0 0,-292.71 z"/>
      </g>
    </g>
    <g id="g22">
      <g clip-path="url(#clipPath26)" id="g24">
        <path id="path30" style="fill:#ffffff;fill-opacity:1;fill-rule:evenodd;stroke:none" d="m 50.639,249.62 510.98,0 0,292.71 -510.98,0 0,-292.71 z"/>
      </g>
    </g>
    <path id="path32" style="fill:none;stroke:#000000;stroke-width:0.98368001;stroke-linecap:butt;stroke-linejoin:round;stroke-miterlimit:10;stroke-dasharray:none;stroke-opacity:1" d="m 85.925,295.88 450.565,0"/>
    <g id="g34">
      <g clip-path="url(#clipPath38)" id="g36">
        <path id="path42" style="fill:none;stroke:#137cb1;stroke-width:2.95099998;stroke-linecap:round;stroke-linejoin:round;stroke-miterlimit:10;stroke-dasharray:none;stroke-opacity:1" d="m 87.124,376.01 2.416,-8.19 2.361,0 2.361,13.7 2.518,0 2.361,-2.68 2.359,0 2.36,-5.51 2.36,-8.34 2.52,-8.34 2.36,0 2.36,13.85 2.36,5.51 2.52,-19.36 2.36,11.17 2.36,13.7 2.36,33.2 2.52,-22.03 2.36,-2.83 2.36,-22.04 2.37,8.19 2.36,-11.02 2.51,0 2.37,-16.53 2.36,8.19 2.36,0 2.52,13.85 2.36,-2.68 2.36,-2.83 2.36,-13.85 2.36,-2.68 2.52,13.7 2.36,30.53 2.36,-11.17 2.36,-11.02 2.52,11.02 2.36,-5.51 2.36,-8.19 2.36,-8.34 2.52,0 2.36,13.85 2.36,11.02 2.36,-5.51 2.36,13.85 2.52,-24.87 2.36,8.19 2.36,13.85 2.36,-11.02 2.52,-11.02 2.36,-8.34 2.36,2.68 2.36,11.17 2.36,-5.51 2.52,8.19 2.36,-19.36 2.36,-8.19 2.36,5.51 2.52,-5.51 2.36,13.7 2.36,-8.19 2.37,-2.83 2.51,5.51 2.36,-5.51 2.37,13.85 2.36,0 2.36,5.51 2.52,0 2.36,-16.53 2.36,11.02 2.36,11.02 2.52,-8.19 2.36,0 2.36,13.7 2.36,-19.36 2.36,11.17 2.52,8.19 2.36,-11.02 2.36,-2.68 2.36,2.68 2.52,-2.68 2.36,-11.17 2.36,0 2.36,11.17 2.52,-2.83 2.36,-5.51 2.36,5.51 2.36,5.51 2.36,0 2.52,-5.51 2.36,0 2.36,-5.51 2.36,-2.83 2.52,8.34 2.36,2.83 2.36,-8.34 2.36,-2.83 2.36,8.34 2.52,-2.83 2.36,-5.51 2.36,11.17 2.37,-2.83 2.51,-13.85 2.36,8.34 2.37,-2.83 2.36,22.19 2.51,8.18 2.37,-5.5 2.36,-24.87 2.36,5.51 2.36,-5.51 2.52,13.85 2.36,-5.51 2.36,13.85 2.36,2.68 2.52,2.83 2.36,-24.87 2.36,22.04 2.36,-27.55 2.36,5.51 2.52,44.23 2.36,35.88 2.36,-46.9 2.36,-30.53 2.52,24.86 2.36,-2.67 2.36,-22.19 2.36,8.34 2.52,27.7 2.36,-11.18 2.36,-8.18 2.36,5.51 2.36,-16.53 2.52,-13.85 2.36,-11.17 2.36,-5.51 2.36,-2.71 2.52,27.58 2.36,-8.19 2.36,13.85 2.36,0 2.37,-11.17 2.51,11.17 2.36,-2.83 2.37,-2.83 2.36,-2.68 2.51,16.53 2.37,8.34 2.36,16.52 2.36,-11.01 2.52,2.83 2.36,11.02 2.36,5.51 2.36,11.01 2.36,-11.01 2.52,-2.84 2.36,-8.18 2.36,19.36 2.36,-5.51 2.52,-8.34 2.36,-11.02 2.36,-11.17 2.36,13.85 2.36,5.5 2.52,0 2.36,-16.52 2.36,-2.83 2.36,2.83 2.52,0 2.36,0 2.36,16.52 2.36,-16.52 2.52,8.34 2.36,5.51 2.36,-5.51 2.36,-8.34 2.36,0 2.52,22.03 2.36,22.19 2.36,8.35 2.36,41.39 2.52,-2.83 2.36,-2.68 2.36,-19.36 2.37,0 2.36,16.53 2.51,5.51 2.37,-2.68 2.38,13.8"/>
      </g>
    </g>
    <g id="g44">
      <g clip-path="url(#clipPath48)" id="g46"><text id="text52" style="font-variant:normal;font-weight:normal;font-size:11.80799961px;font-family:Roboto;-inkscape-font-specification:Roboto-Regular;writing-mode:lr-tb;fill:#000000;fill-opacity:1;fill-rule:nonzero;stroke:none" transform="matrix(1,0,0,-1,68.496,292.3)"><tspan id="tspan54" y="0" x="0">0</tspan></text>
</g>
    </g>
    <g id="g56">
      <g clip-path="url(#clipPath60)" id="g58"><text id="text64" style="font-variant:normal;font-weight:normal;font-size:11.80799961px;font-family:Roboto;-inkscape-font-specification:Roboto-Regular;writing-mode:lr-tb;fill:#000000;fill-opacity:1;fill-rule:nonzero;stroke:none" transform="matrix(1,0,0,-1,61.872,319.94)"><tspan id="tspan66" y="0" x="0 6.5999961">10</tspan></text>
</g>
    </g>
    <g id="g68">
      <g clip-path="url(#clipPath72)" id="g70"><text id="text76" style="font-variant:normal;font-weight:normal;font-size:11.80799961px;font-family:Roboto;-inkscape-font-specification:Roboto-Regular;writing-mode:lr-tb;fill:#000000;fill-opacity:1;fill-rule:nonzero;stroke:none" transform="matrix(1,0,0,-1,61.872,347.59)"><tspan id="tspan78" y="0" x="0 6.5999961">20</tspan></text>
</g>
    </g>
    <g id="g80">
      <g clip-path="url(#clipPath84)" id="g82"><text id="text88" style="font-variant:normal;font-weight:normal;font-size:11.80799961px;font-family:Roboto;-inkscape-font-specification:Roboto-Regular;writing-mode:lr-tb;fill:#000000;fill-opacity:1;fill-rule:nonzero;stroke:none" transform="matrix(1,0,0,-1,61.872,375.24)"><tspan id="tspan90" y="0" x="0 6.5999961">30</tspan></text>
</g>
    </g>
    <g id="g92">
      <g clip-path="url(#clipPath96)" id="g94"><text id="text100" style="font-variant:normal;font-weight:normal;font-size:11.80799961px;font-family:Roboto;-inkscape-font-specification:Roboto-Regular;writing-mode:lr-tb;fill:#000000;fill-opacity:1;fill-rule:nonzero;stroke:none" transform="matrix(1,0,0,-1,61.872,402.89)"><tspan id="tspan102" y="0" x="0 6.5999961">40</tspan></text>
</g>
    </g>
    <g id="g104">
      <g clip-path="url(#clipPath108)" id="g106"><text id="text112" style="font-variant:normal;font-weight:normal;font-size:11.80799961px;font-family:Roboto;-inkscape-font-specification:Roboto-Regular;writing-mode:lr-tb;fill:#000000;fill-opacity:1;fill-rule:nonzero;stroke:none" transform="matrix(1,0,0,-1,61.872,430.54)"><tspan id="tspan114" y="0" x="0 6.5999961">50</tspan></text>
</g>
    </g>
    <g id="g116">
      <g clip-path="url(#clipPath120)" id="g118"><text id="text124" style="font-variant:normal;font-weight:normal;font-size:11.80799961px;font-family:Roboto;-inkscape-font-specification:Roboto-Regular;writing-mode:lr-tb;fill:#000000;fill-opacity:1;fill-rule:nonzero;stroke:none" transform="matrix(1,0,0,-1,61.872,458.18)"><tspan id="tspan126" y="0" x="0 6.5999961">60</tspan></text>
</g>
    </g>
    <g id="g128">
      <g clip-path="url(#clipPath132)" id="g130"><text id="text136" style="font-variant:normal;font-weight:normal;font-size:11.80799961px;font-family:Roboto;-inkscape-font-specification:Roboto-Regular;writing-mode:lr-tb;fill:#000000;fill-opacity:1;fill-rule:nonzero;stroke:none" transform="matrix(1,0,0,-1,61.872,485.81)"><tspan id="tspan138" y="0" x="0 6.5999961">70</tspan></text>
</g>
    </g>
    <g id="g140">
      <g clip-path="url(#clipPath144)" id="g142"><text id="text148" style="font-variant:normal;font-weight:normal;font-size:11.80799961px;font-family:Roboto;-inkscape-font-specification:Roboto-Regular;writing-mode:lr-tb;fill:#000000;fill-opacity:1;fill-rule:nonzero;stroke:none" transform="matrix(1,0,0,-1,61.872,513.46)"><tspan id="tspan150" y="0" x="0 6.5999961">80</tspan></text>
</g>
    </g>
    <g id="g152">
      <g clip-path="url(#clipPath156)" id="g154">
        <path id="path160" style="fill:#000000;fill-opacity:1;fill-rule:nonzero;stroke:none" d="m 75.646,266.13 -3.888,-3.89 -0.542,0.55 -0.229,4.33 c -0.04,0.65 -0.111,1.14 -0.211,1.47 -0.101,0.33 -0.267,0.62 -0.498,0.85 -0.309,0.31 -0.657,0.47 -1.043,0.48 -0.386,0.01 -0.735,-0.14 -1.047,-0.45 -0.375,-0.38 -0.56,-0.78 -0.555,-1.2 0.006,-0.42 0.199,-0.82 0.579,-1.2 l -0.754,-0.76 c -0.546,0.55 -0.812,1.17 -0.797,1.86 0.015,0.69 0.317,1.32 0.907,1.91 0.552,0.56 1.132,0.85 1.742,0.88 0.61,0.03 1.156,-0.19 1.637,-0.68 0.584,-0.58 0.907,-1.65 0.97,-3.2 l 0.134,-3.31 2.979,2.98 0.616,-0.62 z m 1.976,7.04 c 0.883,-0.88 1.388,-1.69 1.516,-2.42 0.128,-0.73 -0.129,-1.42 -0.77,-2.06 -0.633,-0.63 -1.312,-0.89 -2.036,-0.78 -0.724,0.12 -1.509,0.59 -2.354,1.41 l -1.006,1.01 c -0.872,0.87 -1.37,1.67 -1.492,2.4 -0.122,0.72 0.139,1.41 0.783,2.05 0.638,0.64 1.313,0.9 2.023,0.8 0.711,-0.11 1.497,-0.59 2.358,-1.43 l 0.978,-0.98 z m -1.785,0.28 c -0.639,0.63 -1.194,1.01 -1.665,1.12 -0.471,0.12 -0.901,-0.02 -1.29,-0.41 -0.386,-0.39 -0.522,-0.81 -0.407,-1.28 0.114,-0.47 0.47,-1.01 1.067,-1.61 l 1.207,-1.21 c 0.641,-0.64 1.207,-1.02 1.699,-1.14 0.492,-0.12 0.927,0.01 1.304,0.39 0.373,0.37 0.505,0.79 0.398,1.26 -0.107,0.47 -0.467,1.01 -1.078,1.64 l -1.235,1.24 z m 7.747,0.62 -0.758,-0.76 -5.025,5.03 -0.962,-2.08 -0.685,0.68 1.349,2.97 0.119,0.12 5.962,-5.96 z m 3.386,8.45 c 0.884,-0.89 1.389,-1.69 1.517,-2.42 0.127,-0.73 -0.129,-1.42 -0.771,-2.06 -0.633,-0.63 -1.311,-0.89 -2.035,-0.78 -0.725,0.12 -1.509,0.59 -2.354,1.41 l -1.007,1.01 c -0.872,0.87 -1.369,1.67 -1.491,2.39 -0.123,0.73 0.138,1.41 0.782,2.06 0.639,0.64 1.313,0.9 2.024,0.79 0.71,-0.1 1.496,-0.58 2.357,-1.42 l 0.978,-0.98 z m -1.785,0.27 c -0.638,0.64 -1.193,1.02 -1.665,1.13 -0.471,0.11 -0.901,-0.02 -1.289,-0.41 -0.386,-0.39 -0.522,-0.81 -0.408,-1.28 0.114,-0.47 0.47,-1.01 1.068,-1.62 l 1.206,-1.2 c 0.641,-0.64 1.208,-1.02 1.7,-1.14 0.492,-0.12 0.926,0.01 1.304,0.38 0.372,0.38 0.505,0.8 0.397,1.27 -0.107,0.46 -0.466,1.01 -1.078,1.64 l -1.235,1.23 z"/>
      </g>
    </g>
    <g id="g162">
      <g clip-path="url(#clipPath166)" id="g164">
        <path id="path170" style="fill:#000000;fill-opacity:1;fill-rule:nonzero;stroke:none" d="m 104.41,266.13 -3.89,-3.89 -0.545,0.55 -0.228,4.33 c -0.041,0.65 -0.112,1.14 -0.212,1.47 -0.101,0.33 -0.267,0.62 -0.498,0.85 -0.309,0.31 -0.657,0.47 -1.043,0.48 -0.386,0.01 -0.735,-0.14 -1.047,-0.45 -0.375,-0.38 -0.56,-0.78 -0.555,-1.2 0.006,-0.42 0.199,-0.82 0.579,-1.2 l -0.754,-0.76 c -0.546,0.55 -0.812,1.17 -0.797,1.86 0.015,0.69 0.318,1.32 0.907,1.91 0.552,0.56 1.133,0.85 1.743,0.88 0.61,0.03 1.155,-0.19 1.636,-0.68 0.584,-0.58 0.904,-1.65 0.974,-3.2 l 0.13,-3.31 2.98,2.98 0.62,-0.62 z m 1.97,7.04 c 0.88,-0.88 1.39,-1.69 1.52,-2.42 0.13,-0.73 -0.13,-1.42 -0.77,-2.06 -0.64,-0.63 -1.31,-0.89 -2.04,-0.78 -0.72,0.12 -1.51,0.59 -2.35,1.41 l -1.01,1.01 c -0.87,0.87 -1.37,1.67 -1.49,2.4 -0.12,0.72 0.14,1.41 0.78,2.05 0.64,0.64 1.31,0.9 2.03,0.8 0.71,-0.11 1.49,-0.59 2.35,-1.43 l 0.98,-0.98 z m -1.78,0.28 c -0.64,0.63 -1.2,1.01 -1.67,1.12 -0.47,0.12 -0.9,-0.02 -1.29,-0.41 -0.38,-0.39 -0.52,-0.81 -0.41,-1.28 0.12,-0.47 0.47,-1.01 1.07,-1.61 l 1.21,-1.21 c 0.64,-0.64 1.21,-1.02 1.7,-1.14 0.49,-0.12 0.92,0.01 1.3,0.39 0.37,0.37 0.51,0.79 0.4,1.26 -0.11,0.47 -0.47,1.01 -1.08,1.64 l -1.23,1.24 z m 7.74,0.62 -0.75,-0.76 -5.03,5.03 -0.96,-2.08 -0.69,0.68 1.35,2.97 0.12,0.12 5.96,-5.96 z m 4.68,4.67 -0.76,-0.75 -5.03,5.02 -0.96,-2.08 -0.68,0.69 1.35,2.97 0.11,0.12 5.97,-5.97 z"/>
      </g>
    </g>
    <g id="g172">
      <g clip-path="url(#clipPath176)" id="g174">
        <path id="path180" style="fill:#000000;fill-opacity:1;fill-rule:nonzero;stroke:none" d="m 133.16,266.13 -3.88,-3.89 -0.55,0.55 -0.22,4.33 c -0.04,0.65 -0.12,1.14 -0.22,1.47 -0.1,0.33 -0.26,0.62 -0.49,0.85 -0.31,0.31 -0.66,0.47 -1.05,0.48 -0.38,0.01 -0.73,-0.14 -1.04,-0.45 -0.38,-0.38 -0.56,-0.78 -0.56,-1.2 0.01,-0.42 0.2,-0.82 0.58,-1.2 l -0.75,-0.76 c -0.55,0.55 -0.82,1.17 -0.8,1.86 0.01,0.69 0.32,1.32 0.91,1.91 0.55,0.56 1.13,0.85 1.74,0.88 0.61,0.03 1.15,-0.19 1.64,-0.68 0.58,-0.58 0.9,-1.65 0.97,-3.2 l 0.13,-3.31 2.98,2.98 0.61,-0.62 z m 1.98,7.04 c 0.88,-0.88 1.39,-1.69 1.52,-2.42 0.12,-0.73 -0.13,-1.42 -0.77,-2.06 -0.64,-0.63 -1.32,-0.89 -2.04,-0.78 -0.72,0.12 -1.51,0.59 -2.35,1.41 l -1.01,1.01 c -0.87,0.87 -1.37,1.67 -1.49,2.4 -0.12,0.72 0.14,1.41 0.78,2.05 0.64,0.64 1.31,0.9 2.02,0.8 0.72,-0.11 1.5,-0.59 2.36,-1.43 l 0.98,-0.98 z m -1.78,0.28 c -0.64,0.63 -1.2,1.01 -1.67,1.12 -0.47,0.12 -0.9,-0.02 -1.29,-0.41 -0.39,-0.39 -0.52,-0.81 -0.41,-1.28 0.12,-0.47 0.47,-1.01 1.07,-1.61 l 1.21,-1.21 c 0.64,-0.64 1.2,-1.02 1.7,-1.14 0.49,-0.12 0.92,0.01 1.3,0.39 0.37,0.37 0.51,0.79 0.4,1.26 -0.11,0.47 -0.47,1.01 -1.08,1.64 l -1.23,1.24 z m 7.74,0.62 -0.76,-0.76 -5.02,5.03 -0.96,-2.08 -0.69,0.68 1.35,2.97 0.12,0.12 5.96,-5.96 z m 6.09,6.08 -3.89,-3.88 -0.54,0.54 -0.23,4.33 c -0.04,0.65 -0.11,1.14 -0.21,1.48 -0.1,0.33 -0.27,0.61 -0.5,0.84 -0.31,0.31 -0.66,0.47 -1.04,0.48 -0.39,0.01 -0.74,-0.14 -1.05,-0.45 -0.38,-0.38 -0.56,-0.78 -0.56,-1.2 0.01,-0.42 0.2,-0.82 0.58,-1.2 L 139,280.34 c -0.55,0.54 -0.81,1.16 -0.8,1.85 0.02,0.69 0.32,1.33 0.91,1.92 0.55,0.55 1.13,0.84 1.74,0.87 0.61,0.03 1.16,-0.19 1.64,-0.67 0.58,-0.59 0.91,-1.66 0.97,-3.21 l 0.13,-3.31 2.98,2.98 0.62,-0.62 z"/>
      </g>
    </g>
    <g id="g182">
      <g clip-path="url(#clipPath186)" id="g184">
        <path id="path190" style="fill:#000000;fill-opacity:1;fill-rule:nonzero;stroke:none" d="m 161.92,266.13 -3.88,-3.89 -0.55,0.55 -0.22,4.33 c -0.05,0.65 -0.12,1.14 -0.22,1.47 -0.1,0.33 -0.26,0.62 -0.49,0.85 -0.31,0.31 -0.66,0.47 -1.05,0.48 -0.38,0.01 -0.73,-0.14 -1.04,-0.45 -0.38,-0.38 -0.56,-0.78 -0.56,-1.2 0.01,-0.42 0.2,-0.82 0.58,-1.2 l -0.75,-0.76 c -0.55,0.55 -0.82,1.17 -0.8,1.86 0.01,0.69 0.32,1.32 0.91,1.91 0.55,0.56 1.13,0.85 1.74,0.88 0.61,0.03 1.15,-0.19 1.63,-0.68 0.59,-0.58 0.91,-1.65 0.97,-3.2 l 0.14,-3.31 2.98,2.98 0.61,-0.62 z m 1.98,7.04 c 0.88,-0.88 1.39,-1.69 1.52,-2.42 0.12,-0.73 -0.13,-1.42 -0.77,-2.06 -0.64,-0.63 -1.32,-0.89 -2.04,-0.78 -0.72,0.12 -1.51,0.59 -2.35,1.41 l -1.01,1.01 c -0.87,0.87 -1.37,1.67 -1.49,2.4 -0.12,0.72 0.14,1.41 0.78,2.05 0.64,0.64 1.31,0.9 2.02,0.8 0.71,-0.11 1.5,-0.59 2.36,-1.43 l 0.98,-0.98 z m -1.79,0.28 c -0.63,0.63 -1.19,1.01 -1.66,1.12 -0.47,0.12 -0.9,-0.02 -1.29,-0.41 -0.39,-0.39 -0.52,-0.81 -0.41,-1.28 0.12,-0.47 0.47,-1.01 1.07,-1.61 l 1.21,-1.21 c 0.64,-0.64 1.2,-1.02 1.7,-1.14 0.49,-0.12 0.92,0.01 1.3,0.39 0.37,0.37 0.5,0.79 0.4,1.26 -0.11,0.47 -0.47,1.01 -1.08,1.64 l -1.24,1.24 z m 7.75,0.62 -0.76,-0.76 -5.02,5.03 -0.96,-2.08 -0.69,0.68 1.35,2.97 0.12,0.12 5.96,-5.96 z m -0.04,6.63 0.57,0.56 c 0.35,0.36 0.53,0.74 0.56,1.12 0.02,0.39 -0.13,0.74 -0.44,1.05 -0.69,0.69 -1.39,0.69 -2.08,0 -0.33,-0.33 -0.49,-0.68 -0.5,-1.06 -0.01,-0.38 0.14,-0.72 0.45,-1.03 l -0.76,-0.75 c -0.47,0.47 -0.69,1.03 -0.65,1.68 0.03,0.66 0.31,1.25 0.84,1.78 0.56,0.56 1.15,0.85 1.76,0.87 0.62,0.02 1.19,-0.23 1.71,-0.76 0.26,-0.25 0.43,-0.59 0.5,-1 0.08,-0.41 0.03,-0.81 -0.14,-1.22 0.43,0.22 0.85,0.3 1.27,0.24 0.42,-0.06 0.8,-0.26 1.15,-0.61 0.53,-0.53 0.78,-1.13 0.74,-1.79 -0.03,-0.66 -0.33,-1.27 -0.89,-1.82 -0.55,-0.56 -1.16,-0.86 -1.81,-0.91 -0.65,-0.05 -1.22,0.18 -1.72,0.67 l 0.76,0.76 c 0.31,-0.31 0.67,-0.46 1.06,-0.45 0.39,0.02 0.75,0.2 1.1,0.54 0.36,0.37 0.54,0.74 0.55,1.12 0,0.39 -0.18,0.76 -0.53,1.11 -0.35,0.35 -0.72,0.51 -1.12,0.48 -0.39,-0.03 -0.79,-0.24 -1.2,-0.63 l -0.56,-0.57 -0.62,0.62 z"/>
      </g>
    </g>
    <g id="g192">
      <g clip-path="url(#clipPath196)" id="g194">
        <path id="path200" style="fill:#000000;fill-opacity:1;fill-rule:nonzero;stroke:none" d="m 190.68,266.13 -3.89,-3.89 -0.54,0.55 -0.23,4.33 c -0.04,0.65 -0.11,1.14 -0.21,1.47 -0.1,0.33 -0.26,0.62 -0.49,0.85 -0.31,0.31 -0.66,0.47 -1.05,0.48 -0.38,0.01 -0.73,-0.14 -1.05,-0.45 -0.37,-0.38 -0.56,-0.78 -0.55,-1.2 0.01,-0.42 0.2,-0.82 0.58,-1.2 l -0.76,-0.76 c -0.54,0.55 -0.81,1.17 -0.79,1.86 0.01,0.69 0.32,1.32 0.9,1.91 0.56,0.56 1.14,0.85 1.75,0.88 0.61,0.03 1.15,-0.19 1.63,-0.68 0.59,-0.58 0.91,-1.65 0.97,-3.2 l 0.14,-3.31 2.98,2.98 0.61,-0.62 z m 1.98,7.04 c 0.88,-0.88 1.39,-1.69 1.51,-2.42 0.13,-0.73 -0.12,-1.42 -0.77,-2.06 -0.63,-0.63 -1.31,-0.89 -2.03,-0.78 -0.73,0.12 -1.51,0.59 -2.35,1.41 l -1.01,1.01 c -0.87,0.87 -1.37,1.67 -1.49,2.4 -0.13,0.72 0.14,1.41 0.78,2.05 0.64,0.64 1.31,0.9 2.02,0.8 0.71,-0.11 1.5,-0.59 2.36,-1.43 l 0.98,-0.98 z m -1.79,0.28 c -0.63,0.63 -1.19,1.01 -1.66,1.12 -0.47,0.12 -0.9,-0.02 -1.29,-0.41 -0.39,-0.39 -0.52,-0.81 -0.41,-1.28 0.12,-0.47 0.47,-1.01 1.07,-1.61 l 1.21,-1.21 c 0.64,-0.64 1.2,-1.02 1.69,-1.14 0.5,-0.12 0.93,0.01 1.31,0.39 0.37,0.37 0.5,0.79 0.4,1.26 -0.11,0.47 -0.47,1.01 -1.08,1.64 l -1.24,1.24 z m 7.75,0.62 -0.76,-0.76 -5.02,5.03 -0.96,-2.08 -0.69,0.68 1.35,2.97 0.12,0.12 5.96,-5.96 z m 3.39,7.37 0.82,0.83 0.62,-0.62 -0.83,-0.82 1.38,-1.38 -0.76,-0.76 -1.38,1.38 -2.7,-2.7 -0.44,0.44 -1.46,6.77 0.81,0.8 3.94,-3.94 z m -2.61,-2.6 1.85,1.84 -2.91,2.91 0.07,-0.25 0.99,-4.5 z"/>
      </g>
    </g>
    <g id="g202">
      <g clip-path="url(#clipPath206)" id="g204">
        <path id="path210" style="fill:#000000;fill-opacity:1;fill-rule:nonzero;stroke:none" d="m 219.44,266.13 -3.89,-3.89 -0.54,0.55 -0.23,4.33 c -0.04,0.65 -0.11,1.14 -0.21,1.47 -0.1,0.33 -0.26,0.62 -0.5,0.85 -0.31,0.31 -0.65,0.47 -1.04,0.48 -0.38,0.01 -0.73,-0.14 -1.05,-0.45 -0.37,-0.38 -0.56,-0.78 -0.55,-1.2 0,-0.42 0.2,-0.82 0.58,-1.2 l -0.76,-0.76 c -0.54,0.55 -0.81,1.17 -0.79,1.86 0.01,0.69 0.31,1.32 0.9,1.91 0.56,0.56 1.14,0.85 1.75,0.88 0.61,0.03 1.15,-0.19 1.63,-0.68 0.59,-0.58 0.91,-1.65 0.97,-3.2 l 0.14,-3.31 2.98,2.98 0.61,-0.62 z m 1.98,7.04 c 0.88,-0.88 1.39,-1.69 1.51,-2.42 0.13,-0.73 -0.13,-1.42 -0.77,-2.06 -0.63,-0.63 -1.31,-0.89 -2.03,-0.78 -0.73,0.12 -1.51,0.59 -2.36,1.41 l -1,1.01 c -0.87,0.87 -1.37,1.67 -1.49,2.4 -0.13,0.72 0.13,1.41 0.78,2.05 0.64,0.64 1.31,0.9 2.02,0.8 0.71,-0.11 1.5,-0.59 2.36,-1.43 l 0.98,-0.98 z m -1.79,0.28 c -0.64,0.63 -1.19,1.01 -1.66,1.12 -0.47,0.12 -0.9,-0.02 -1.29,-0.41 -0.39,-0.39 -0.52,-0.81 -0.41,-1.28 0.11,-0.47 0.47,-1.01 1.07,-1.61 l 1.2,-1.21 c 0.65,-0.64 1.21,-1.02 1.7,-1.14 0.5,-0.12 0.93,0.01 1.31,0.39 0.37,0.37 0.5,0.79 0.4,1.26 -0.11,0.47 -0.47,1.01 -1.08,1.64 l -1.24,1.24 z m 7.75,0.62 -0.76,-0.76 -5.02,5.03 -0.97,-2.08 -0.68,0.68 1.35,2.97 0.12,0.12 5.96,-5.96 z m -0.43,5.52 -2.66,3.26 3.04,3.04 0.7,-0.7 -2.4,-2.4 1.44,-1.8 c 0.12,0.47 0.36,0.88 0.73,1.25 0.54,0.54 1.15,0.79 1.82,0.75 0.68,-0.04 1.32,-0.36 1.93,-0.97 0.61,-0.61 0.93,-1.26 0.95,-1.94 0.02,-0.68 -0.27,-1.32 -0.86,-1.91 -0.52,-0.53 -1.1,-0.81 -1.72,-0.85 -0.62,-0.04 -1.21,0.17 -1.77,0.64 l 0.71,0.71 c 0.39,-0.29 0.77,-0.42 1.13,-0.4 0.37,0.02 0.72,0.19 1.04,0.51 0.35,0.35 0.5,0.75 0.46,1.19 -0.04,0.44 -0.27,0.87 -0.69,1.29 -0.39,0.4 -0.82,0.61 -1.28,0.63 -0.45,0.02 -0.86,-0.14 -1.22,-0.5 -0.33,-0.33 -0.51,-0.66 -0.56,-0.99 l -0.03,-0.36 -0.76,-0.45 z"/>
      </g>
    </g>
    <g id="g212">
      <g clip-path="url(#clipPath216)" id="g214">
        <path id="path220" style="fill:#000000;fill-opacity:1;fill-rule:nonzero;stroke:none" d="m 248.2,266.13 -3.89,-3.89 -0.54,0.55 -0.23,4.33 c -0.04,0.65 -0.11,1.14 -0.21,1.47 -0.1,0.33 -0.27,0.62 -0.5,0.85 -0.31,0.31 -0.65,0.47 -1.04,0.48 -0.39,0.01 -0.73,-0.14 -1.05,-0.45 -0.37,-0.38 -0.56,-0.78 -0.55,-1.2 0,-0.42 0.2,-0.82 0.58,-1.2 l -0.76,-0.76 c -0.54,0.55 -0.81,1.17 -0.79,1.86 0.01,0.69 0.31,1.32 0.9,1.91 0.55,0.56 1.14,0.85 1.75,0.88 0.61,0.03 1.15,-0.19 1.63,-0.68 0.59,-0.58 0.91,-1.65 0.97,-3.2 l 0.14,-3.31 2.98,2.98 0.61,-0.62 z m 1.98,7.04 c 0.88,-0.88 1.39,-1.69 1.51,-2.42 0.13,-0.73 -0.13,-1.42 -0.77,-2.06 -0.63,-0.63 -1.31,-0.89 -2.03,-0.78 -0.73,0.12 -1.51,0.59 -2.36,1.41 l -1,1.01 c -0.88,0.87 -1.37,1.67 -1.49,2.4 -0.13,0.72 0.13,1.41 0.78,2.05 0.64,0.64 1.31,0.9 2.02,0.8 0.71,-0.11 1.5,-0.59 2.36,-1.43 l 0.98,-0.98 z m -1.79,0.28 c -0.64,0.63 -1.19,1.01 -1.66,1.12 -0.47,0.12 -0.9,-0.02 -1.29,-0.41 -0.39,-0.39 -0.52,-0.81 -0.41,-1.28 0.11,-0.47 0.47,-1.01 1.07,-1.61 l 1.2,-1.21 c 0.64,-0.64 1.21,-1.02 1.7,-1.14 0.5,-0.12 0.93,0.01 1.31,0.39 0.37,0.37 0.5,0.79 0.39,1.26 -0.1,0.47 -0.46,1.01 -1.07,1.64 l -1.24,1.24 z m 7.75,0.62 -0.76,-0.76 -5.02,5.03 -0.97,-2.08 -0.68,0.68 1.35,2.97 0.12,0.12 5.96,-5.96 z m -0.78,11.09 0.64,-0.64 -0.14,-0.14 c -0.58,-0.59 -0.87,-1.23 -0.88,-1.92 -0.01,-0.68 0.26,-1.36 0.82,-2.02 -0.05,0.67 0.2,1.27 0.74,1.81 0.51,0.52 1.11,0.75 1.78,0.69 0.67,-0.05 1.3,-0.37 1.87,-0.94 0.62,-0.62 0.94,-1.27 0.97,-1.97 0.04,-0.7 -0.23,-1.33 -0.79,-1.89 -0.56,-0.57 -1.24,-0.81 -2.03,-0.73 -0.79,0.09 -1.53,0.47 -2.22,1.16 l -0.29,0.29 c -1.09,1.09 -1.69,2.16 -1.8,3.2 -0.11,1.04 0.28,2.03 1.19,2.97 l 0.14,0.13 z m 1.68,-3.66 c -0.26,-0.26 -0.42,-0.57 -0.48,-0.95 -0.06,-0.37 -0.02,-0.71 0.13,-1.03 l 0.28,-0.28 c 0.49,-0.49 0.99,-0.77 1.51,-0.85 0.52,-0.08 0.94,0.05 1.27,0.37 0.34,0.34 0.48,0.74 0.43,1.18 -0.06,0.44 -0.29,0.87 -0.7,1.27 -0.4,0.41 -0.83,0.64 -1.28,0.7 -0.45,0.05 -0.83,-0.09 -1.16,-0.41 z"/>
      </g>
    </g>
    <g id="g222">
      <g clip-path="url(#clipPath226)" id="g224">
        <path id="path230" style="fill:#000000;fill-opacity:1;fill-rule:nonzero;stroke:none" d="m 276.96,266.13 -3.89,-3.89 -0.54,0.55 -0.23,4.33 c -0.04,0.65 -0.11,1.14 -0.21,1.47 -0.1,0.33 -0.27,0.62 -0.5,0.85 -0.31,0.31 -0.66,0.47 -1.04,0.48 -0.39,0.01 -0.74,-0.14 -1.05,-0.45 -0.37,-0.38 -0.56,-0.78 -0.55,-1.2 0,-0.42 0.2,-0.82 0.58,-1.2 l -0.76,-0.76 c -0.54,0.55 -0.81,1.17 -0.79,1.86 0.01,0.69 0.31,1.32 0.9,1.91 0.55,0.56 1.13,0.85 1.74,0.88 0.61,0.03 1.16,-0.19 1.64,-0.68 0.59,-0.58 0.91,-1.65 0.97,-3.2 l 0.14,-3.31 2.97,2.98 0.62,-0.62 z m 1.98,7.04 c 0.88,-0.88 1.38,-1.69 1.51,-2.42 0.13,-0.73 -0.13,-1.42 -0.77,-2.06 -0.63,-0.63 -1.31,-0.89 -2.03,-0.78 -0.73,0.12 -1.51,0.59 -2.36,1.41 l -1,1.01 c -0.88,0.87 -1.37,1.67 -1.5,2.4 -0.12,0.72 0.14,1.41 0.79,2.05 0.64,0.64 1.31,0.9 2.02,0.8 0.71,-0.11 1.5,-0.59 2.36,-1.43 l 0.98,-0.98 z m -1.79,0.28 c -0.64,0.63 -1.19,1.01 -1.66,1.12 -0.48,0.12 -0.91,-0.02 -1.29,-0.41 -0.39,-0.39 -0.53,-0.81 -0.41,-1.28 0.11,-0.47 0.47,-1.01 1.07,-1.61 l 1.2,-1.21 c 0.64,-0.64 1.21,-1.02 1.7,-1.14 0.49,-0.12 0.93,0.01 1.31,0.39 0.37,0.37 0.5,0.79 0.39,1.26 -0.1,0.47 -0.46,1.01 -1.07,1.64 l -1.24,1.24 z m 7.75,0.62 -0.76,-0.76 -5.02,5.03 -0.97,-2.08 -0.68,0.68 1.35,2.97 0.12,0.12 5.96,-5.96 z m 0.52,11.54 3.05,-7.97 -0.79,-0.79 -2.87,7.76 -3.21,-3.21 -0.62,0.62 4.01,4.01 0.43,-0.42 z"/>
      </g>
    </g>
    <g id="g232">
      <g clip-path="url(#clipPath236)" id="g234">
        <path id="path240" style="fill:#000000;fill-opacity:1;fill-rule:nonzero;stroke:none" d="m 305.72,266.13 -3.89,-3.89 -0.54,0.55 -0.23,4.33 c -0.04,0.65 -0.11,1.14 -0.21,1.47 -0.1,0.33 -0.27,0.62 -0.5,0.85 -0.31,0.31 -0.66,0.47 -1.04,0.48 -0.39,0.01 -0.74,-0.14 -1.05,-0.45 -0.37,-0.38 -0.56,-0.78 -0.55,-1.2 0,-0.42 0.2,-0.82 0.58,-1.2 l -0.76,-0.76 c -0.54,0.55 -0.81,1.17 -0.8,1.86 0.02,0.69 0.32,1.32 0.91,1.91 0.55,0.56 1.13,0.85 1.74,0.88 0.61,0.03 1.16,-0.19 1.64,-0.68 0.58,-0.58 0.91,-1.65 0.97,-3.2 l 0.13,-3.31 2.98,2.98 0.62,-0.62 z m 1.98,7.04 c 0.88,-0.88 1.38,-1.69 1.51,-2.42 0.13,-0.73 -0.13,-1.42 -0.77,-2.06 -0.63,-0.63 -1.31,-0.89 -2.03,-0.78 -0.73,0.12 -1.51,0.59 -2.36,1.41 l -1,1.01 c -0.88,0.87 -1.37,1.67 -1.5,2.4 -0.12,0.72 0.14,1.41 0.79,2.05 0.63,0.64 1.31,0.9 2.02,0.8 0.71,-0.11 1.5,-0.59 2.36,-1.43 l 0.98,-0.98 z m -1.79,0.28 c -0.64,0.63 -1.19,1.01 -1.66,1.12 -0.48,0.12 -0.91,-0.02 -1.29,-0.41 -0.39,-0.39 -0.53,-0.81 -0.41,-1.28 0.11,-0.47 0.47,-1.01 1.07,-1.61 l 1.2,-1.21 c 0.64,-0.64 1.21,-1.02 1.7,-1.14 0.49,-0.12 0.93,0.01 1.31,0.39 0.37,0.37 0.5,0.79 0.39,1.26 -0.1,0.47 -0.46,1.01 -1.07,1.64 l -1.24,1.24 z m 7.75,0.62 -0.76,-0.76 -5.03,5.03 -0.96,-2.08 -0.68,0.68 1.35,2.97 0.11,0.12 5.97,-5.96 z m 1.41,10.18 c 0.29,-0.3 0.48,-0.64 0.55,-1.03 0.08,-0.38 0.05,-0.77 -0.09,-1.17 0.44,0.18 0.88,0.23 1.32,0.15 0.44,-0.07 0.82,-0.27 1.14,-0.6 0.51,-0.51 0.75,-1.09 0.71,-1.74 -0.05,-0.65 -0.35,-1.26 -0.91,-1.83 -0.57,-0.57 -1.18,-0.87 -1.83,-0.91 -0.65,-0.04 -1.23,0.2 -1.74,0.71 -0.33,0.32 -0.53,0.7 -0.61,1.13 -0.08,0.44 -0.04,0.87 0.14,1.32 -0.39,-0.14 -0.78,-0.16 -1.16,-0.09 -0.39,0.08 -0.73,0.27 -1.02,0.56 -0.5,0.5 -0.74,1.06 -0.71,1.67 0.03,0.62 0.3,1.19 0.83,1.71 0.52,0.52 1.09,0.8 1.7,0.83 0.62,0.03 1.18,-0.21 1.68,-0.71 z m 2.15,-3.38 c -0.33,0.33 -0.71,0.49 -1.13,0.49 -0.42,0 -0.8,-0.17 -1.14,-0.51 -0.34,-0.34 -0.51,-0.71 -0.5,-1.13 0,-0.41 0.17,-0.78 0.5,-1.12 0.34,-0.34 0.7,-0.5 1.1,-0.49 0.39,0 0.76,0.18 1.12,0.54 0.35,0.35 0.53,0.73 0.54,1.12 0.01,0.4 -0.16,0.76 -0.49,1.1 z m -4.91,2.64 c -0.3,-0.29 -0.45,-0.63 -0.45,-0.99 0,-0.37 0.16,-0.71 0.48,-1.03 0.3,-0.3 0.63,-0.45 1,-0.46 0.37,0 0.7,0.15 1,0.45 0.3,0.3 0.45,0.63 0.45,1 -0.01,0.37 -0.16,0.7 -0.46,1 -0.31,0.31 -0.65,0.46 -1.02,0.46 -0.38,0 -0.71,-0.14 -1,-0.43 z"/>
      </g>
    </g>
    <g id="g242">
      <g clip-path="url(#clipPath246)" id="g244">
        <path id="path250" style="fill:#000000;fill-opacity:1;fill-rule:nonzero;stroke:none" d="m 334.48,266.13 -3.89,-3.89 -0.54,0.55 -0.23,4.33 c -0.04,0.65 -0.11,1.14 -0.21,1.47 -0.1,0.33 -0.27,0.62 -0.5,0.85 -0.31,0.31 -0.66,0.47 -1.04,0.48 -0.39,0.01 -0.74,-0.14 -1.05,-0.45 -0.37,-0.38 -0.56,-0.78 -0.55,-1.2 0,-0.42 0.19,-0.82 0.57,-1.2 l -0.75,-0.76 c -0.55,0.55 -0.81,1.17 -0.8,1.86 0.02,0.69 0.32,1.32 0.91,1.91 0.55,0.56 1.13,0.85 1.74,0.88 0.61,0.03 1.16,-0.19 1.64,-0.68 0.58,-0.58 0.91,-1.65 0.97,-3.2 l 0.13,-3.31 2.98,2.98 0.62,-0.62 z m 1.97,7.04 c 0.89,-0.88 1.39,-1.69 1.52,-2.42 0.13,-0.73 -0.13,-1.42 -0.77,-2.06 -0.63,-0.63 -1.31,-0.89 -2.04,-0.78 -0.72,0.12 -1.5,0.59 -2.35,1.41 l -1.01,1.01 c -0.87,0.87 -1.37,1.67 -1.49,2.4 -0.12,0.72 0.14,1.41 0.79,2.05 0.63,0.64 1.31,0.9 2.02,0.8 0.71,-0.11 1.5,-0.59 2.36,-1.43 l 0.97,-0.98 z m -1.78,0.28 c -0.64,0.63 -1.19,1.01 -1.67,1.12 -0.47,0.12 -0.9,-0.02 -1.29,-0.41 -0.38,-0.39 -0.52,-0.81 -0.4,-1.28 0.11,-0.47 0.47,-1.01 1.06,-1.61 l 1.21,-1.21 c 0.64,-0.64 1.21,-1.02 1.7,-1.14 0.49,-0.12 0.93,0.01 1.31,0.39 0.37,0.37 0.5,0.79 0.39,1.26 -0.1,0.47 -0.46,1.01 -1.08,1.64 l -1.23,1.24 z m 7.75,0.62 -0.76,-0.76 -5.03,5.03 -0.96,-2.08 -0.68,0.68 1.35,2.97 0.11,0.12 5.97,-5.96 z m 2.47,7.69 c 0.03,-0.34 0,-0.68 -0.11,-1.01 -0.1,-0.34 -0.29,-0.63 -0.55,-0.89 -0.34,-0.35 -0.72,-0.56 -1.14,-0.65 -0.43,-0.08 -0.86,-0.04 -1.3,0.13 -0.45,0.16 -0.85,0.43 -1.22,0.8 -0.4,0.4 -0.68,0.83 -0.85,1.3 -0.17,0.47 -0.2,0.93 -0.09,1.37 0.11,0.45 0.35,0.85 0.72,1.22 0.59,0.59 1.27,0.83 2.05,0.73 0.77,-0.1 1.54,-0.53 2.3,-1.28 l 0.22,-0.22 c 1.15,-1.16 1.77,-2.23 1.84,-3.22 0.08,-0.99 -0.34,-1.95 -1.25,-2.88 l -0.14,-0.15 -0.64,0.64 0.16,0.16 c 0.61,0.63 0.92,1.27 0.94,1.92 0.03,0.65 -0.29,1.33 -0.94,2.03 z m -1.16,-1.16 c 0.26,0.25 0.41,0.57 0.47,0.93 0.06,0.37 0.02,0.72 -0.11,1.04 l -0.3,0.31 c -0.49,0.49 -1,0.79 -1.53,0.88 -0.52,0.1 -0.95,-0.02 -1.28,-0.35 -0.33,-0.33 -0.47,-0.72 -0.42,-1.18 0.06,-0.45 0.29,-0.89 0.71,-1.31 0.4,-0.4 0.83,-0.64 1.29,-0.7 0.46,-0.07 0.85,0.06 1.17,0.38 z"/>
      </g>
    </g>
    <g id="g252">
      <g clip-path="url(#clipPath256)" id="g254">
        <path id="path260" style="fill:#000000;fill-opacity:1;fill-rule:nonzero;stroke:none" d="m 363.24,266.13 -3.89,-3.89 -0.54,0.55 -0.23,4.33 c -0.04,0.65 -0.11,1.14 -0.21,1.47 -0.1,0.33 -0.27,0.62 -0.5,0.85 -0.31,0.31 -0.66,0.47 -1.04,0.48 -0.39,0.01 -0.74,-0.14 -1.05,-0.45 -0.38,-0.38 -0.56,-0.78 -0.56,-1.2 0.01,-0.42 0.2,-0.82 0.58,-1.2 l -0.75,-0.76 c -0.55,0.55 -0.81,1.17 -0.8,1.86 0.02,0.69 0.32,1.32 0.91,1.91 0.55,0.56 1.13,0.85 1.74,0.88 0.61,0.03 1.16,-0.19 1.64,-0.68 0.58,-0.58 0.91,-1.65 0.97,-3.2 l 0.13,-3.31 2.98,2.98 0.62,-0.62 z m 1.97,7.04 c 0.89,-0.88 1.39,-1.69 1.52,-2.42 0.13,-0.73 -0.13,-1.42 -0.77,-2.06 -0.63,-0.63 -1.31,-0.89 -2.04,-0.78 -0.72,0.12 -1.5,0.59 -2.35,1.41 l -1.01,1.01 c -0.87,0.87 -1.37,1.67 -1.49,2.4 -0.12,0.72 0.14,1.41 0.78,2.05 0.64,0.64 1.32,0.9 2.03,0.8 0.71,-0.11 1.49,-0.59 2.36,-1.43 l 0.97,-0.98 z m -1.78,0.28 c -0.64,0.63 -1.19,1.01 -1.67,1.12 -0.47,0.12 -0.9,-0.02 -1.29,-0.41 -0.38,-0.39 -0.52,-0.81 -0.4,-1.28 0.11,-0.47 0.47,-1.01 1.06,-1.61 l 1.21,-1.21 c 0.64,-0.64 1.21,-1.02 1.7,-1.14 0.49,-0.12 0.93,0.01 1.3,0.39 0.38,0.37 0.51,0.79 0.4,1.26 -0.11,0.47 -0.47,1.01 -1.08,1.64 l -1.23,1.24 z m 9.16,2.03 -3.89,-3.89 -0.54,0.54 -0.23,4.34 c -0.04,0.65 -0.11,1.14 -0.21,1.47 -0.1,0.33 -0.27,0.61 -0.5,0.84 -0.31,0.31 -0.66,0.48 -1.04,0.49 -0.39,0.01 -0.74,-0.14 -1.05,-0.46 -0.38,-0.37 -0.56,-0.77 -0.56,-1.19 0.01,-0.42 0.2,-0.82 0.58,-1.2 l -0.75,-0.76 c -0.55,0.55 -0.81,1.17 -0.8,1.86 0.02,0.68 0.32,1.32 0.91,1.91 0.55,0.55 1.13,0.85 1.74,0.88 0.61,0.03 1.16,-0.2 1.64,-0.68 0.58,-0.58 0.9,-1.65 0.97,-3.2 l 0.13,-3.31 2.98,2.98 0.62,-0.62 z m 1.97,7.04 c 0.89,-0.89 1.39,-1.69 1.52,-2.42 0.13,-0.73 -0.13,-1.42 -0.77,-2.06 -0.64,-0.63 -1.31,-0.89 -2.04,-0.78 -0.72,0.12 -1.51,0.59 -2.35,1.41 l -1.01,1.01 c -0.87,0.87 -1.37,1.67 -1.49,2.39 -0.12,0.73 0.14,1.41 0.78,2.06 0.64,0.64 1.32,0.9 2.03,0.79 0.71,-0.1 1.49,-0.58 2.35,-1.42 l 0.98,-0.98 z m -1.78,0.27 c -0.64,0.64 -1.2,1.02 -1.67,1.13 -0.47,0.11 -0.9,-0.02 -1.29,-0.41 -0.38,-0.39 -0.52,-0.81 -0.41,-1.28 0.12,-0.47 0.47,-1.01 1.07,-1.62 l 1.21,-1.2 c 0.64,-0.64 1.21,-1.02 1.7,-1.14 0.49,-0.12 0.92,0.01 1.3,0.38 0.37,0.38 0.51,0.8 0.4,1.27 -0.11,0.46 -0.47,1.01 -1.08,1.64 l -1.23,1.23 z"/>
      </g>
    </g>
    <g id="g262">
      <g clip-path="url(#clipPath266)" id="g264">
        <path id="path270" style="fill:#000000;fill-opacity:1;fill-rule:nonzero;stroke:none" d="m 392,266.13 -3.89,-3.89 -0.54,0.55 -0.23,4.33 c -0.04,0.65 -0.11,1.14 -0.21,1.47 -0.1,0.33 -0.27,0.62 -0.5,0.85 -0.31,0.31 -0.66,0.47 -1.04,0.48 -0.39,0.01 -0.74,-0.14 -1.05,-0.45 -0.38,-0.38 -0.56,-0.78 -0.56,-1.2 0.01,-0.42 0.2,-0.82 0.58,-1.2 l -0.75,-0.76 c -0.55,0.55 -0.81,1.17 -0.8,1.86 0.02,0.69 0.32,1.32 0.91,1.91 0.55,0.56 1.13,0.85 1.74,0.88 0.61,0.03 1.16,-0.19 1.64,-0.68 0.58,-0.58 0.91,-1.65 0.97,-3.2 l 0.13,-3.31 2.98,2.98 0.62,-0.62 z m 1.97,7.04 c 0.89,-0.88 1.39,-1.69 1.52,-2.42 0.13,-0.73 -0.13,-1.42 -0.77,-2.06 -0.63,-0.63 -1.31,-0.89 -2.04,-0.78 -0.72,0.12 -1.51,0.59 -2.35,1.41 l -1.01,1.01 c -0.87,0.87 -1.37,1.67 -1.49,2.4 -0.12,0.72 0.14,1.41 0.78,2.05 0.64,0.64 1.32,0.9 2.03,0.8 0.71,-0.11 1.49,-0.59 2.35,-1.43 l 0.98,-0.98 z m -1.78,0.28 c -0.64,0.63 -1.2,1.01 -1.67,1.12 -0.47,0.12 -0.9,-0.02 -1.29,-0.41 -0.38,-0.39 -0.52,-0.81 -0.4,-1.28 0.11,-0.47 0.47,-1.01 1.06,-1.61 l 1.21,-1.21 c 0.64,-0.64 1.21,-1.02 1.7,-1.14 0.49,-0.12 0.93,0.01 1.3,0.39 0.38,0.37 0.51,0.79 0.4,1.26 -0.11,0.47 -0.47,1.01 -1.08,1.64 l -1.23,1.24 z m 9.16,2.03 -3.89,-3.89 -0.54,0.54 -0.23,4.34 c -0.04,0.65 -0.11,1.14 -0.22,1.47 -0.1,0.33 -0.26,0.61 -0.49,0.84 -0.31,0.31 -0.66,0.48 -1.05,0.49 -0.38,0.01 -0.73,-0.14 -1.04,-0.46 -0.38,-0.37 -0.56,-0.77 -0.56,-1.19 0.01,-0.42 0.2,-0.82 0.58,-1.2 l -0.75,-0.76 c -0.55,0.55 -0.81,1.17 -0.8,1.86 0.02,0.68 0.32,1.32 0.91,1.91 0.55,0.55 1.13,0.85 1.74,0.88 0.61,0.03 1.16,-0.2 1.64,-0.68 0.58,-0.58 0.9,-1.65 0.97,-3.2 l 0.13,-3.31 2.98,2.98 0.62,-0.62 z m 3.26,3.26 -0.76,-0.75 -5.02,5.02 -0.97,-2.08 -0.68,0.69 1.35,2.97 0.12,0.12 5.96,-5.97 z"/>
      </g>
    </g>
    <g id="g272">
      <g clip-path="url(#clipPath276)" id="g274">
        <path id="path280" style="fill:#000000;fill-opacity:1;fill-rule:nonzero;stroke:none" d="m 420.76,266.13 -3.89,-3.89 -0.54,0.55 -0.23,4.33 c -0.04,0.65 -0.11,1.14 -0.21,1.47 -0.1,0.33 -0.27,0.62 -0.5,0.85 -0.31,0.31 -0.66,0.47 -1.04,0.48 -0.39,0.01 -0.74,-0.14 -1.05,-0.45 -0.38,-0.38 -0.56,-0.78 -0.56,-1.2 0.01,-0.42 0.2,-0.82 0.58,-1.2 l -0.75,-0.76 c -0.55,0.55 -0.81,1.17 -0.8,1.86 0.02,0.69 0.32,1.32 0.91,1.91 0.55,0.56 1.13,0.85 1.74,0.88 0.61,0.03 1.16,-0.19 1.64,-0.68 0.58,-0.58 0.9,-1.65 0.97,-3.2 l 0.13,-3.31 2.98,2.98 0.62,-0.62 z m 1.97,7.04 c 0.89,-0.88 1.39,-1.69 1.52,-2.42 0.13,-0.73 -0.13,-1.42 -0.77,-2.06 -0.64,-0.63 -1.31,-0.89 -2.04,-0.78 -0.72,0.12 -1.51,0.59 -2.35,1.41 l -1.01,1.01 c -0.87,0.87 -1.37,1.67 -1.49,2.4 -0.12,0.72 0.14,1.41 0.78,2.05 0.64,0.64 1.32,0.9 2.03,0.8 0.71,-0.11 1.49,-0.59 2.35,-1.43 l 0.98,-0.98 z m -1.78,0.28 c -0.64,0.63 -1.2,1.01 -1.67,1.12 -0.47,0.12 -0.9,-0.02 -1.29,-0.41 -0.38,-0.39 -0.52,-0.81 -0.41,-1.28 0.12,-0.47 0.47,-1.01 1.07,-1.61 l 1.21,-1.21 c 0.64,-0.64 1.21,-1.02 1.7,-1.14 0.49,-0.12 0.92,0.01 1.3,0.39 0.37,0.37 0.51,0.79 0.4,1.26 -0.11,0.47 -0.47,1.01 -1.08,1.64 l -1.23,1.24 z m 9.15,2.03 -3.88,-3.89 -0.55,0.54 -0.22,4.34 c -0.04,0.65 -0.12,1.14 -0.22,1.47 -0.1,0.33 -0.26,0.61 -0.49,0.84 -0.31,0.31 -0.66,0.48 -1.05,0.49 -0.38,0.01 -0.73,-0.14 -1.04,-0.46 -0.38,-0.37 -0.56,-0.77 -0.56,-1.19 0.01,-0.42 0.2,-0.82 0.58,-1.2 l -0.75,-0.76 c -0.55,0.55 -0.82,1.17 -0.8,1.86 0.01,0.68 0.32,1.32 0.91,1.91 0.55,0.55 1.13,0.85 1.74,0.88 0.61,0.03 1.15,-0.2 1.64,-0.68 0.58,-0.58 0.9,-1.65 0.97,-3.2 l 0.13,-3.31 2.98,2.98 0.61,-0.62 z m 4.68,4.67 -3.89,-3.88 -0.54,0.54 -0.23,4.33 c -0.04,0.65 -0.11,1.14 -0.21,1.48 -0.1,0.33 -0.27,0.61 -0.5,0.84 -0.31,0.31 -0.66,0.47 -1.04,0.48 -0.39,0.01 -0.74,-0.14 -1.05,-0.45 -0.37,-0.38 -0.56,-0.78 -0.55,-1.2 0,-0.42 0.19,-0.82 0.57,-1.2 l -0.75,-0.75 c -0.55,0.54 -0.81,1.16 -0.8,1.85 0.02,0.69 0.32,1.33 0.91,1.92 0.55,0.55 1.13,0.84 1.74,0.87 0.61,0.03 1.16,-0.19 1.64,-0.67 0.58,-0.59 0.91,-1.66 0.97,-3.21 l 0.13,-3.31 2.98,2.98 0.62,-0.62 z"/>
      </g>
    </g>
    <g id="g282">
      <g clip-path="url(#clipPath286)" id="g284">
        <path id="path290" style="fill:#000000;fill-opacity:1;fill-rule:nonzero;stroke:none" d="m 449.52,266.13 -3.89,-3.89 -0.55,0.55 -0.22,4.33 c -0.04,0.65 -0.11,1.14 -0.22,1.47 -0.1,0.33 -0.26,0.62 -0.49,0.85 -0.31,0.31 -0.66,0.47 -1.05,0.48 -0.38,0.01 -0.73,-0.14 -1.04,-0.45 -0.38,-0.38 -0.56,-0.78 -0.56,-1.2 0.01,-0.42 0.2,-0.82 0.58,-1.2 l -0.75,-0.76 c -0.55,0.55 -0.81,1.17 -0.8,1.86 0.02,0.69 0.32,1.32 0.91,1.91 0.55,0.56 1.13,0.85 1.74,0.88 0.61,0.03 1.16,-0.19 1.64,-0.68 0.58,-0.58 0.9,-1.65 0.97,-3.2 l 0.13,-3.31 2.98,2.98 0.62,-0.62 z m 1.97,7.04 c 0.88,-0.88 1.39,-1.69 1.52,-2.42 0.13,-0.73 -0.13,-1.42 -0.77,-2.06 -0.64,-0.63 -1.31,-0.89 -2.04,-0.78 -0.72,0.12 -1.51,0.59 -2.35,1.41 l -1.01,1.01 c -0.87,0.87 -1.37,1.67 -1.49,2.4 -0.12,0.72 0.14,1.41 0.78,2.05 0.64,0.64 1.31,0.9 2.03,0.8 0.71,-0.11 1.49,-0.59 2.35,-1.43 l 0.98,-0.98 z m -1.78,0.28 c -0.64,0.63 -1.2,1.01 -1.67,1.12 -0.47,0.12 -0.9,-0.02 -1.29,-0.41 -0.38,-0.39 -0.52,-0.81 -0.41,-1.28 0.12,-0.47 0.47,-1.01 1.07,-1.61 l 1.21,-1.21 c 0.64,-0.64 1.21,-1.02 1.7,-1.14 0.49,-0.12 0.92,0.01 1.3,0.39 0.37,0.37 0.51,0.79 0.4,1.26 -0.11,0.47 -0.47,1.01 -1.08,1.64 l -1.23,1.24 z m 9.15,2.03 -3.88,-3.89 -0.55,0.54 -0.22,4.34 c -0.05,0.65 -0.12,1.14 -0.22,1.47 -0.1,0.33 -0.26,0.61 -0.49,0.84 -0.31,0.31 -0.66,0.48 -1.05,0.49 -0.38,0.01 -0.73,-0.14 -1.04,-0.46 -0.38,-0.37 -0.56,-0.77 -0.56,-1.19 0.01,-0.42 0.2,-0.82 0.58,-1.2 l -0.75,-0.76 c -0.55,0.55 -0.82,1.17 -0.8,1.86 0.01,0.68 0.32,1.32 0.91,1.91 0.55,0.55 1.13,0.85 1.74,0.88 0.61,0.03 1.15,-0.2 1.63,-0.68 0.59,-0.58 0.91,-1.65 0.97,-3.2 l 0.14,-3.31 2.98,2.98 0.61,-0.62 z m -1.45,5.22 0.57,0.56 c 0.35,0.36 0.54,0.74 0.56,1.12 0.02,0.39 -0.13,0.74 -0.43,1.05 -0.7,0.69 -1.39,0.69 -2.09,0 -0.32,-0.33 -0.49,-0.68 -0.5,-1.06 -0.01,-0.38 0.14,-0.72 0.45,-1.03 l -0.75,-0.75 c -0.47,0.47 -0.69,1.03 -0.66,1.68 0.03,0.66 0.31,1.25 0.84,1.78 0.56,0.56 1.15,0.85 1.76,0.87 0.62,0.02 1.19,-0.23 1.72,-0.76 0.25,-0.25 0.42,-0.59 0.49,-1 0.08,-0.41 0.03,-0.81 -0.14,-1.22 0.43,0.22 0.86,0.3 1.27,0.24 0.42,-0.06 0.8,-0.26 1.15,-0.61 0.53,-0.53 0.78,-1.13 0.74,-1.79 -0.03,-0.66 -0.33,-1.27 -0.89,-1.82 -0.55,-0.56 -1.16,-0.86 -1.81,-0.91 -0.65,-0.05 -1.22,0.18 -1.72,0.67 l 0.76,0.76 c 0.32,-0.31 0.67,-0.46 1.06,-0.45 0.39,0.02 0.76,0.2 1.1,0.54 0.36,0.37 0.55,0.74 0.55,1.12 0,0.39 -0.18,0.76 -0.53,1.11 -0.35,0.35 -0.72,0.51 -1.11,0.48 -0.4,-0.03 -0.8,-0.24 -1.21,-0.63 l -0.56,-0.57 -0.62,0.62 z"/>
      </g>
    </g>
    <g id="g292">
      <g clip-path="url(#clipPath296)" id="g294">
        <path id="path300" style="fill:#000000;fill-opacity:1;fill-rule:nonzero;stroke:none" d="m 478.27,266.13 -3.88,-3.89 -0.55,0.55 -0.22,4.33 c -0.04,0.65 -0.12,1.14 -0.22,1.47 -0.1,0.33 -0.26,0.62 -0.49,0.85 -0.31,0.31 -0.66,0.47 -1.05,0.48 -0.38,0.01 -0.73,-0.14 -1.04,-0.45 -0.38,-0.38 -0.56,-0.78 -0.56,-1.2 0.01,-0.42 0.2,-0.82 0.58,-1.2 l -0.75,-0.76 c -0.55,0.55 -0.82,1.17 -0.8,1.86 0.01,0.69 0.32,1.32 0.91,1.91 0.55,0.56 1.13,0.85 1.74,0.88 0.61,0.03 1.15,-0.19 1.64,-0.68 0.58,-0.58 0.9,-1.65 0.97,-3.2 l 0.13,-3.31 2.98,2.98 0.61,-0.62 z m 1.98,7.04 c 0.88,-0.88 1.39,-1.69 1.52,-2.42 0.12,-0.73 -0.13,-1.42 -0.77,-2.06 -0.64,-0.63 -1.32,-0.89 -2.04,-0.78 -0.72,0.12 -1.51,0.59 -2.35,1.41 l -1.01,1.01 c -0.87,0.87 -1.37,1.67 -1.49,2.4 -0.12,0.72 0.14,1.41 0.78,2.05 0.64,0.64 1.31,0.9 2.02,0.8 0.72,-0.11 1.5,-0.59 2.36,-1.43 l 0.98,-0.98 z m -1.78,0.28 c -0.64,0.63 -1.2,1.01 -1.67,1.12 -0.47,0.12 -0.9,-0.02 -1.29,-0.41 -0.39,-0.39 -0.52,-0.81 -0.41,-1.28 0.12,-0.47 0.47,-1.01 1.07,-1.61 l 1.21,-1.21 c 0.64,-0.64 1.2,-1.02 1.7,-1.14 0.49,-0.12 0.92,0.01 1.3,0.39 0.37,0.37 0.51,0.79 0.4,1.26 -0.11,0.47 -0.47,1.01 -1.08,1.64 l -1.23,1.24 z m 9.15,2.03 -3.89,-3.89 -0.54,0.54 -0.23,4.34 c -0.04,0.65 -0.11,1.14 -0.21,1.47 -0.1,0.33 -0.26,0.61 -0.49,0.84 -0.31,0.31 -0.66,0.48 -1.05,0.49 -0.38,0.01 -0.73,-0.14 -1.05,-0.46 -0.37,-0.37 -0.56,-0.77 -0.55,-1.19 0.01,-0.42 0.2,-0.82 0.58,-1.2 l -0.76,-0.76 c -0.54,0.55 -0.81,1.17 -0.79,1.86 0.01,0.68 0.32,1.32 0.9,1.91 0.56,0.55 1.14,0.85 1.75,0.88 0.61,0.03 1.15,-0.2 1.63,-0.68 0.59,-0.58 0.91,-1.65 0.97,-3.2 l 0.14,-3.31 2.98,2.98 0.61,-0.62 z m 1.98,5.96 0.82,0.83 0.62,-0.62 -0.83,-0.82 1.38,-1.38 -0.76,-0.76 -1.37,1.38 -2.71,-2.7 -0.44,0.44 -1.46,6.77 0.81,0.8 3.94,-3.94 z m -2.61,-2.6 1.85,1.84 -2.91,2.91 0.07,-0.25 0.99,-4.5 z"/>
      </g>
    </g>
    <g id="g302">
      <g clip-path="url(#clipPath306)" id="g304">
        <path id="path310" style="fill:#000000;fill-opacity:1;fill-rule:nonzero;stroke:none" d="m 507.03,266.13 -3.88,-3.89 -0.55,0.55 -0.22,4.33 c -0.05,0.65 -0.12,1.14 -0.22,1.47 -0.1,0.33 -0.26,0.62 -0.49,0.85 -0.31,0.31 -0.66,0.47 -1.05,0.48 -0.38,0.01 -0.73,-0.14 -1.04,-0.45 -0.38,-0.38 -0.56,-0.78 -0.56,-1.2 0.01,-0.42 0.2,-0.82 0.58,-1.2 l -0.75,-0.76 c -0.55,0.55 -0.82,1.17 -0.8,1.86 0.01,0.69 0.32,1.32 0.91,1.91 0.55,0.56 1.13,0.85 1.74,0.88 0.61,0.03 1.15,-0.19 1.63,-0.68 0.59,-0.58 0.91,-1.65 0.97,-3.2 l 0.14,-3.31 2.98,2.98 0.61,-0.62 z m 1.98,7.04 c 0.88,-0.88 1.39,-1.69 1.52,-2.42 0.12,-0.73 -0.13,-1.42 -0.77,-2.06 -0.64,-0.63 -1.32,-0.89 -2.04,-0.78 -0.72,0.12 -1.51,0.59 -2.35,1.41 l -1.01,1.01 c -0.87,0.87 -1.37,1.67 -1.49,2.4 -0.12,0.72 0.14,1.41 0.78,2.05 0.64,0.64 1.31,0.9 2.02,0.8 0.71,-0.11 1.5,-0.59 2.36,-1.43 l 0.98,-0.98 z m -1.79,0.28 c -0.63,0.63 -1.19,1.01 -1.66,1.12 -0.47,0.12 -0.9,-0.02 -1.29,-0.41 -0.39,-0.39 -0.52,-0.81 -0.41,-1.28 0.12,-0.47 0.47,-1.01 1.07,-1.61 l 1.21,-1.21 c 0.64,-0.64 1.2,-1.02 1.7,-1.14 0.49,-0.12 0.92,0.01 1.3,0.39 0.37,0.37 0.5,0.79 0.4,1.26 -0.11,0.47 -0.47,1.01 -1.08,1.64 l -1.24,1.24 z m 9.16,2.03 -3.89,-3.89 -0.54,0.54 -0.23,4.34 c -0.04,0.65 -0.11,1.14 -0.21,1.47 -0.1,0.33 -0.26,0.61 -0.5,0.84 -0.31,0.31 -0.65,0.48 -1.04,0.49 -0.38,0.01 -0.73,-0.14 -1.05,-0.46 -0.37,-0.37 -0.56,-0.77 -0.55,-1.19 0,-0.42 0.2,-0.82 0.58,-1.2 l -0.76,-0.76 c -0.54,0.55 -0.81,1.17 -0.79,1.86 0.01,0.68 0.31,1.32 0.9,1.91 0.56,0.55 1.14,0.85 1.75,0.88 0.61,0.03 1.15,-0.2 1.63,-0.68 0.59,-0.58 0.91,-1.65 0.97,-3.2 l 0.14,-3.31 2.98,2.98 0.61,-0.62 z m -1.84,4.11 -2.66,3.26 3.04,3.04 0.7,-0.7 -2.4,-2.4 1.44,-1.8 c 0.12,0.47 0.36,0.88 0.73,1.25 0.54,0.54 1.15,0.79 1.82,0.75 0.68,-0.04 1.32,-0.36 1.93,-0.97 0.61,-0.61 0.93,-1.26 0.95,-1.94 0.02,-0.68 -0.26,-1.32 -0.86,-1.91 -0.52,-0.53 -1.09,-0.81 -1.72,-0.85 -0.62,-0.04 -1.21,0.17 -1.77,0.64 l 0.71,0.71 c 0.39,-0.29 0.77,-0.42 1.14,-0.4 0.36,0.02 0.71,0.19 1.03,0.51 0.35,0.35 0.5,0.75 0.47,1.19 -0.04,0.44 -0.27,0.87 -0.7,1.29 -0.39,0.4 -0.82,0.61 -1.28,0.63 -0.45,0.02 -0.86,-0.14 -1.22,-0.5 -0.33,-0.33 -0.51,-0.66 -0.56,-0.99 l -0.03,-0.36 -0.76,-0.45 z"/>
      </g>
    </g>
    <path id="path312" style="fill:none;stroke:#137cb1;stroke-width:2.95099998;stroke-linecap:round;stroke-linejoin:round;stroke-miterlimit:10;stroke-dasharray:none;stroke-opacity:1" d="m 172.48,531.02 25.18,0"/>
    <g id="g314">
      <g clip-path="url(#clipPath318)" id="g316"><text id="text322" style="font-variant:normal;font-weight:normal;font-size:11.7840004px;font-family:Roboto;-inkscape-font-specification:Roboto-Regular;writing-mode:lr-tb;fill:#000000;fill-opacity:1;fill-rule:nonzero;stroke:none" transform="matrix(1,0,0,-1,200.35,527.47)"><tspan id="tspan324" y="0" x="0 7.7185202 17.947033 20.810543 27.079632 33.537266 36.365425 44.083942 50.836178 57.293808 63.42149 69.87912 80.260826 86.565262 90.501122 93.494255 100.43504 107.04585 110.98171 116.64982 122.95425 128.61058 131.46231 134.27869 144.66039 151.41261 155.34846 161.65291 164.48108 172.19958 178.65723 184.96167 195.34337 201.95419 204.8177 211.53458 217.10841 227.46655 233.771 240.22862">UMich Consumer Survey: More Unemployment</tspan></text>
</g>
    </g>
  </g>
</svg>
