<?xml version="1.0" encoding="UTF-8" standalone="no"?>
<svg xmlns:dc="http://purl.org/dc/elements/1.1/" xmlns:cc="http://creativecommons.org/ns#" xmlns:rdf="http://www.w3.org/1999/02/22-rdf-syntax-ns#" xmlns:svg="http://www.w3.org/2000/svg" xmlns="http://www.w3.org/2000/svg" viewBox="15.7375 14.5375 479.6375 151.55" height="151.55" width="479.6375" xml:space="preserve" version="1.1" id="svg2">
  <metadata id="metadata8">
    <rdf:RDF>
      <cc:Work rdf:about="">
        <dc:format>image/svg+xml</dc:format>
        <dc:type rdf:resource="http://purl.org/dc/dcmitype/StillImage"/>
      </cc:Work>
    </rdf:RDF>
  </metadata>
  <defs id="defs6">
    <clipPath id="clipPath16" clipPathUnits="userSpaceOnUse">
      <path style="clip-rule:evenodd" id="path18" d="m 13.56,479.14 382.73,0 0,120.26 -382.73,0 0,-120.26 z"/>
    </clipPath>
    <clipPath id="clipPath26" clipPathUnits="userSpaceOnUse">
      <path style="clip-rule:evenodd" id="path28" d="m 13.56,479.14 382.73,0 0,120.26 -382.73,0 0,-120.26 z"/>
    </clipPath>
    <clipPath id="clipPath38" clipPathUnits="userSpaceOnUse">
      <path style="clip-rule:evenodd" id="path40" d="m 13.56,479.14 382.73,0 0,120.26 -382.73,0 0,-120.26 z"/>
    </clipPath>
    <clipPath id="clipPath50" clipPathUnits="userSpaceOnUse">
      <path style="clip-rule:evenodd" id="path52" d="m 13.56,479.14 382.73,0 0,120.26 -382.73,0 0,-120.26 z"/>
    </clipPath>
    <clipPath id="clipPath62" clipPathUnits="userSpaceOnUse">
      <path style="clip-rule:evenodd" id="path64" d="m 13.56,570.12 382.73,0 0,14.16 -382.73,0 0,-14.16 z"/>
    </clipPath>
    <clipPath id="clipPath74" clipPathUnits="userSpaceOnUse">
      <path style="clip-rule:evenodd" id="path76" d="m 13.56,570.12 382.73,0 0,14.16 -382.73,0 0,-14.16 z"/>
    </clipPath>
    <clipPath id="clipPath86" clipPathUnits="userSpaceOnUse">
      <path style="clip-rule:evenodd" id="path88" d="m 13.56,570.12 382.73,0 0,14.16 -382.73,0 0,-14.16 z"/>
    </clipPath>
    <clipPath id="clipPath98" clipPathUnits="userSpaceOnUse">
      <path style="clip-rule:evenodd" id="path100" d="m 13.56,570.12 382.73,0 0,14.16 -382.73,0 0,-14.16 z"/>
    </clipPath>
    <clipPath id="clipPath110" clipPathUnits="userSpaceOnUse">
      <path style="clip-rule:evenodd" id="path112" d="m 13.56,479.14 382.73,0 0,120.26 -382.73,0 0,-120.26 z"/>
    </clipPath>
    <clipPath id="clipPath122" clipPathUnits="userSpaceOnUse">
      <path style="clip-rule:evenodd" id="path124" d="m 13.56,479.14 382.73,0 0,120.26 -382.73,0 0,-120.26 z"/>
    </clipPath>
    <clipPath id="clipPath134" clipPathUnits="userSpaceOnUse">
      <path style="clip-rule:evenodd" id="path136" d="m 13.56,479.14 382.73,0 0,120.26 -382.73,0 0,-120.26 z"/>
    </clipPath>
    <clipPath id="clipPath146" clipPathUnits="userSpaceOnUse">
      <path style="clip-rule:evenodd" id="path148" d="m 13.56,479.14 382.73,0 0,120.26 -382.73,0 0,-120.26 z"/>
    </clipPath>
    <clipPath id="clipPath158" clipPathUnits="userSpaceOnUse">
      <path style="clip-rule:evenodd" id="path160" d="m 13.56,479.14 382.73,0 0,120.26 -382.73,0 0,-120.26 z"/>
    </clipPath>
    <clipPath id="clipPath170" clipPathUnits="userSpaceOnUse">
      <path style="clip-rule:evenodd" id="path172" d="m 13.56,479.14 382.73,0 0,120.26 -382.73,0 0,-120.26 z"/>
    </clipPath>
    <clipPath id="clipPath182" clipPathUnits="userSpaceOnUse">
      <path style="clip-rule:evenodd" id="path184" d="m 13.56,479.14 382.73,0 0,120.26 -382.73,0 0,-120.26 z"/>
    </clipPath>
    <clipPath id="clipPath194" clipPathUnits="userSpaceOnUse">
      <path style="clip-rule:evenodd" id="path196" d="m 13.56,479.14 382.73,0 0,120.26 -382.73,0 0,-120.26 z"/>
    </clipPath>
    <clipPath id="clipPath206" clipPathUnits="userSpaceOnUse">
      <path style="clip-rule:evenodd" id="path208" d="m 13.56,479.14 382.73,0 0,120.26 -382.73,0 0,-120.26 z"/>
    </clipPath>
    <clipPath id="clipPath218" clipPathUnits="userSpaceOnUse">
      <path style="clip-rule:evenodd" id="path220" d="m 13.56,510.34 382.73,0 0,13.464 -382.73,0 0,-13.464 z"/>
    </clipPath>
    <clipPath id="clipPath230" clipPathUnits="userSpaceOnUse">
      <path style="clip-rule:evenodd" id="path232" d="m 13.56,510.34 382.73,0 0,13.464 -382.73,0 0,-13.464 z"/>
    </clipPath>
    <clipPath id="clipPath242" clipPathUnits="userSpaceOnUse">
      <path style="clip-rule:evenodd" id="path244" d="m 13.56,510.34 382.73,0 0,13.464 -382.73,0 0,-13.464 z"/>
    </clipPath>
    <clipPath id="clipPath254" clipPathUnits="userSpaceOnUse">
      <path style="clip-rule:evenodd" id="path256" d="m 13.56,479.14 382.73,0 0,120.26 -382.73,0 0,-120.26 z"/>
    </clipPath>
    <clipPath id="clipPath286" clipPathUnits="userSpaceOnUse">
      <path style="clip-rule:evenodd" id="path288" d="m 11.64,477.1 386.69,0 0,124.22 -386.69,0 0,-124.22 z"/>
    </clipPath>
  </defs>
  <g transform="matrix(1.25,0,0,-1.25,0,765)" id="g10">
    <g id="g12">
      <g clip-path="url(#clipPath16)" id="g14">
        <path id="path20" style="fill:#005aa4;fill-opacity:1;fill-rule:evenodd;stroke:none" d="m 13.08,584.64 382.85,0 0,15.24 -382.85,0 0,-15.24 z"/>
      </g>
    </g>
    <g id="g22">
      <g clip-path="url(#clipPath26)" id="g24"><text id="text30" style="font-variant:normal;font-weight:bold;font-size:11.03999996px;font-family:Calibri;-inkscape-font-specification:Calibri-Bold;writing-mode:lr-tb;fill:#ffffff;fill-opacity:1;fill-rule:nonzero;stroke:none" transform="matrix(1,0,0,-1,104.64,588.6)"><tspan id="tspan32" y="0" x="0 5.0673599 10.56528 15.96384 19.79472 25.679041 29.631359">Feature</tspan></text>
</g>
    </g>
    <g id="g34">
      <g clip-path="url(#clipPath38)" id="g36"><text id="text42" style="font-variant:normal;font-weight:bold;font-size:11.03999996px;font-family:Calibri;-inkscape-font-specification:Calibri-Bold;writing-mode:lr-tb;fill:#ffffff;fill-opacity:1;fill-rule:nonzero;stroke:none" transform="matrix(1,0,0,-1,254.3,588.6)"><tspan id="tspan44" y="0" x="0 5.1556802 8.9865599 14.53968 20.390881 26.2752 31.7952">Stepper</tspan></text>
</g>
    </g>
    <g id="g46">
      <g clip-path="url(#clipPath50)" id="g48"><text id="text54" style="font-variant:normal;font-weight:bold;font-size:11.03999996px;font-family:Calibri;-inkscape-font-specification:Calibri-Bold;writing-mode:lr-tb;fill:#ffffff;fill-opacity:1;fill-rule:nonzero;stroke:none" transform="matrix(1,0,0,-1,321.5,588.6)"><tspan id="tspan56" y="0" x="0 6.9552002 9.7041597 13.65648 19.176479 23.846399 27.67728 30.194401 33.186241 42.161758 47.61552 52.84848 55.619518 61.503841">Direct Imaging</tspan></text>
</g>
    </g>
    <g id="g58">
      <g clip-path="url(#clipPath62)" id="g60"><text id="text66" style="font-variant:normal;font-weight:normal;font-size:11.03999996px;font-family:Calibri;-inkscape-font-specification:Calibri;writing-mode:lr-tb;fill:#000000;fill-opacity:1;fill-rule:nonzero;stroke:none" transform="matrix(1,0,0,-1,15,573.48)"><tspan id="tspan68" y="0" x="0 5.99472 11.49264 15.80928 21.704639 24.243839 29.98464 33.683041 36.22224 42.09552 47.858398 50.353439 53.731682 60.697922 64.55088 67.056961 72.819839">Resolution (Grid)</tspan></text>
</g>
    </g>
    <g id="g70">
      <g clip-path="url(#clipPath74)" id="g72"><text id="text78" style="font-variant:normal;font-weight:normal;font-size:11.03999996px;font-family:Calibri;-inkscape-font-specification:Calibri;writing-mode:lr-tb;fill:#000000;fill-opacity:1;fill-rule:nonzero;stroke:none" transform="matrix(1,0,0,-1,93.69504,573.48)"><tspan id="tspan80" y="0" x="0 3.3782401 10.34448 14.19744 16.70352 22.4664">(Grid)</tspan></text>
</g>
    </g>
    <g id="g82">
      <g clip-path="url(#clipPath86)" id="g84"><text id="text90" style="font-variant:normal;font-weight:normal;font-size:11.03999996px;font-family:Calibri;-inkscape-font-specification:Calibri;writing-mode:lr-tb;fill:#000000;fill-opacity:1;fill-rule:nonzero;stroke:none" transform="matrix(1,0,0,-1,262.1,573.48)"><tspan id="tspan92" y="0" x="0 6.8448 9.3839998 14.52864">High</tspan></text>
</g>
    </g>
    <g id="g94">
      <g clip-path="url(#clipPath98)" id="g96"><text id="text102" style="font-variant:normal;font-weight:normal;font-size:11.03999996px;font-family:Calibri;-inkscape-font-specification:Calibri;writing-mode:lr-tb;fill:#000000;fill-opacity:1;fill-rule:nonzero;stroke:none" transform="matrix(1,0,0,-1,333.17,573.48)"><tspan id="tspan104" y="0" x="0 0 9.4723196 14.97024 20.766239 23.27232 29.0352">Medium</tspan></text>
</g>
    </g>
    <g id="g106">
      <g clip-path="url(#clipPath110)" id="g108"><text id="text114" style="font-variant:normal;font-weight:normal;font-size:11.03999996px;font-family:Calibri;-inkscape-font-specification:Calibri;writing-mode:lr-tb;fill:#000000;fill-opacity:1;fill-rule:nonzero;stroke:none" transform="matrix(1,0,0,-1,15,558.36)"><tspan id="tspan116" y="0" x="0 5.7518401 9.4723196 15.3456 20.01552 25.513439 29.85216 34.1688 36.708 42.448799 47.604481 50.099522 55.983841 61.271999 67.068001 72.356163 78.085922 80.625122 83.131203 85.670403 89.368797 94.403038 96.898079 100.27632 107.11008 112.26576 115.8648 121.15296 123.648 129.53232 135.41664 140.93665 145.86047 151.3584 154.97952 159.29616 161.83536 167.68655 173.44943 176.79456">Processing Capability (Data Conversion)</tspan></text>
</g>
    </g>
    <g id="g118">
      <g clip-path="url(#clipPath122)" id="g120"><text id="text126" style="font-variant:normal;font-weight:normal;font-size:11.03999996px;font-family:Calibri;-inkscape-font-specification:Calibri;writing-mode:lr-tb;fill:#000000;fill-opacity:1;fill-rule:nonzero;stroke:none" transform="matrix(1,0,0,-1,262.1,558.36)"><tspan id="tspan128" y="0" x="0 6.8448 9.3839998 14.52864">High</tspan></text>
</g>
    </g>
    <g id="g130">
      <g clip-path="url(#clipPath134)" id="g132"><text id="text138" style="font-variant:normal;font-weight:normal;font-size:11.03999996px;font-family:Calibri;-inkscape-font-specification:Calibri;writing-mode:lr-tb;fill:#000000;fill-opacity:1;fill-rule:nonzero;stroke:none" transform="matrix(1,0,0,-1,345.65,558.36)"><tspan id="tspan140" y="0" x="0 4.66992 10.5432">Low</tspan></text>
</g>
    </g>
    <g id="g142">
      <g clip-path="url(#clipPath146)" id="g144"><text id="text150" style="font-variant:normal;font-weight:normal;font-size:11.03999996px;font-family:Calibri;-inkscape-font-specification:Calibri;writing-mode:lr-tb;fill:#000000;fill-opacity:1;fill-rule:nonzero;stroke:none" transform="matrix(1,0,0,-1,15,543.24)"><tspan id="tspan152" y="0" x="0 7.3084798 12.35376 17.851681 21.704639 24.243839 29.532 34.533119 37.061279 43.453442 48.12336 52.793282 58.54512 62.398079 67.686241 72.356163">Overlay Accuracy</tspan></text>
</g>
    </g>
    <g id="g154">
      <g clip-path="url(#clipPath158)" id="g156"><text id="text162" style="font-variant:normal;font-weight:normal;font-size:11.03999996px;font-family:Calibri;-inkscape-font-specification:Calibri;writing-mode:lr-tb;fill:#000000;fill-opacity:1;fill-rule:nonzero;stroke:none" transform="matrix(1,0,0,-1,262.1,543.24)"><tspan id="tspan164" y="0" x="0 6.8448 9.3839998 14.52864">High</tspan></text>
</g>
    </g>
    <g id="g166">
      <g clip-path="url(#clipPath170)" id="g168"><text id="text174" style="font-variant:normal;font-weight:normal;font-size:11.03999996px;font-family:Calibri;-inkscape-font-specification:Calibri;writing-mode:lr-tb;fill:#000000;fill-opacity:1;fill-rule:nonzero;stroke:none" transform="matrix(1,0,0,-1,345.65,543.24)"><tspan id="tspan176" y="0" x="0 4.66992 10.5432">Low</tspan></text>
</g>
    </g>
    <g id="g178">
      <g clip-path="url(#clipPath182)" id="g180"><text id="text186" style="font-variant:normal;font-weight:normal;font-size:11.03999996px;font-family:Calibri;-inkscape-font-specification:Calibri;writing-mode:lr-tb;fill:#000000;fill-opacity:1;fill-rule:nonzero;stroke:none" transform="matrix(1,0,0,-1,15,528.12)"><tspan id="tspan188" y="0" x="0 5.8843198 11.63616 14.17536 19.916161 22.45536 27.953279 31.65168 34.17984 39.2472 41.742241 46.05888 51.556801 54.084961 59.152321 63.822239 69.110397 71.605438 76.8936 82.645439 85.184639 87.69072 90.229919 93.928322">Chiplet Size Scalability</tspan></text>
</g>
    </g>
    <g id="g190">
      <g clip-path="url(#clipPath194)" id="g192"><text id="text198" style="font-variant:normal;font-weight:normal;font-size:11.03999996px;font-family:Calibri;-inkscape-font-specification:Calibri;writing-mode:lr-tb;fill:#000000;fill-opacity:1;fill-rule:nonzero;stroke:none" transform="matrix(1,0,0,-1,262.94,528.12)"><tspan id="tspan200" y="0" x="0 4.66992 10.5432">Low</tspan></text>
</g>
    </g>
    <g id="g202">
      <g clip-path="url(#clipPath206)" id="g204"><text id="text210" style="font-variant:normal;font-weight:normal;font-size:11.03999996px;font-family:Calibri;-inkscape-font-specification:Calibri;writing-mode:lr-tb;fill:#000000;fill-opacity:1;fill-rule:nonzero;stroke:none" transform="matrix(1,0,0,-1,344.81,528.12)"><tspan id="tspan212" y="0" x="0 6.8448 9.3839998 14.52864">High</tspan></text>
</g>
    </g>
    <g id="g214">
      <g clip-path="url(#clipPath218)" id="g216"><text id="text222" style="font-variant:normal;font-weight:normal;font-size:11.03999996px;font-family:Calibri;-inkscape-font-specification:Calibri;writing-mode:lr-tb;fill:#000000;fill-opacity:1;fill-rule:nonzero;stroke:none" transform="matrix(1,0,0,-1,15,513.7)"><tspan id="tspan224" y="0" x="0 5.3764801 11.17248 15.02544 20.755199 23.25024 29.642401 33.495361 37.315201 43.18848 48.951359 54.714241 60.477119 62.97216 68.38176 70.920959 79.77504">Turn Arround Time</tspan></text>
</g>
    </g>
    <g id="g226">
      <g clip-path="url(#clipPath230)" id="g228"><text id="text234" style="font-variant:normal;font-weight:normal;font-size:11.03999996px;font-family:Calibri;-inkscape-font-specification:Calibri;writing-mode:lr-tb;fill:#000000;fill-opacity:1;fill-rule:nonzero;stroke:none" transform="matrix(1,0,0,-1,262.94,513.7)"><tspan id="tspan236" y="0" x="0 4.66992 10.5432">Low</tspan></text>
</g>
    </g>
    <g id="g238">
      <g clip-path="url(#clipPath242)" id="g240"><text id="text246" style="font-variant:normal;font-weight:normal;font-size:11.03999996px;font-family:Calibri;-inkscape-font-specification:Calibri;writing-mode:lr-tb;fill:#000000;fill-opacity:1;fill-rule:nonzero;stroke:none" transform="matrix(1,0,0,-1,344.81,513.7)"><tspan id="tspan248" y="0" x="0 6.8448 9.3839998 14.52864">High</tspan></text>
</g>
    </g>
    <g id="g250">
      <g clip-path="url(#clipPath254)" id="g252"><text id="text258" style="font-variant:normal;font-weight:normal;font-size:11.03999996px;font-family:Calibri;-inkscape-font-specification:Calibri;writing-mode:lr-tb;fill:#000000;fill-opacity:1;fill-rule:nonzero;stroke:none" transform="matrix(1,0,0,-1,15,498.58)"><tspan id="tspan260" y="0" x="0 5.0673599 10.79712 16.559999 22.32288 28.196159 32.049122 35.74752 38.264641 41.63184 47.49408 51.347038 53.842079 58.909439 67.763519 73.051682 75.590881 78.085922 80.580963 85.272957 91.14624 94.844643 99.161278 101.70048 106.00608 108.50112 115.37904 117.91824 123.0408 128.80368 131.29872 140.79312 143.33232">Support for Small Lots / High Mix</tspan></text>
<text id="text262" style="font-variant:normal;font-weight:normal;font-size:11.03999996px;font-family:Calibri;-inkscape-font-specification:Calibri;writing-mode:lr-tb;fill:#000000;fill-opacity:1;fill-rule:nonzero;stroke:none" transform="matrix(1,0,0,-1,262.94,498.58)"><tspan id="tspan264" y="0" x="0 4.66992 10.5432">Low</tspan></text>
<text id="text266" style="font-variant:normal;font-weight:normal;font-size:11.03999996px;font-family:Calibri;-inkscape-font-specification:Calibri;writing-mode:lr-tb;fill:#000000;fill-opacity:1;fill-rule:nonzero;stroke:none" transform="matrix(1,0,0,-1,344.81,498.58)"><tspan id="tspan268" y="0" x="0 6.8448 9.3839998 14.52864">High</tspan></text>
<text id="text270" style="font-variant:normal;font-weight:normal;font-size:11.03999996px;font-family:Calibri;-inkscape-font-specification:Calibri;writing-mode:lr-tb;fill:#000000;fill-opacity:1;fill-rule:nonzero;stroke:none" transform="matrix(1,0,0,-1,15,483.46)"><tspan id="tspan272" y="0" x="0 6.8337598 9.3729601 14.87088 17.365919 22.433281 28.196159 30.735359 34.102558 37.800961 40.296001 43.6632 49.54752 55.299358 57.838558 63.579361 66.957603 70.324799 72.819839 76.672798 80.989441 84.687843">Die Shift (Chip-first)</tspan></text>
<text id="text274" style="font-variant:normal;font-weight:normal;font-size:11.03999996px;font-family:Calibri;-inkscape-font-specification:Calibri;writing-mode:lr-tb;fill:#000000;fill-opacity:1;fill-rule:nonzero;stroke:none" transform="matrix(1,0,0,-1,262.94,483.46)"><tspan id="tspan276" y="0" x="0 4.66992 10.5432">Low</tspan></text>
<text id="text278" style="font-variant:normal;font-weight:normal;font-size:11.03999996px;font-family:Calibri;-inkscape-font-specification:Calibri;writing-mode:lr-tb;fill:#000000;fill-opacity:1;fill-rule:nonzero;stroke:none" transform="matrix(1,0,0,-1,344.81,483.46)"><tspan id="tspan280" y="0" x="0 6.8448 9.3839998 14.52864">High</tspan></text>
</g>
    </g>
    <g id="g282">
      <g clip-path="url(#clipPath286)" id="g284">
        <path id="path290" style="fill:none;stroke:#000000;stroke-width:0.14;stroke-linecap:square;stroke-linejoin:round;stroke-miterlimit:10;stroke-dasharray:none;stroke-opacity:1" d="m 313.16,599.34 0,-14.04"/>
        <path id="path292" style="fill:#000000;fill-opacity:1;fill-rule:evenodd;stroke:none" d="m 313.1,585.24 0.12,0 0,14.16 -0.12,0 0,-14.16 z"/>
        <path id="path294" style="fill:none;stroke:#000000;stroke-width:0.14;stroke-linecap:square;stroke-linejoin:round;stroke-miterlimit:10;stroke-dasharray:none;stroke-opacity:1" d="m 13.62,569.58 216.26,0"/>
        <path id="path296" style="fill:#000000;fill-opacity:1;fill-rule:evenodd;stroke:none" d="m 13.56,569.52 216.38,0 0,0.12 -216.38,0 0,-0.12 z"/>
        <path id="path298" style="fill:none;stroke:#000000;stroke-width:0.14;stroke-linecap:square;stroke-linejoin:round;stroke-miterlimit:10;stroke-dasharray:none;stroke-opacity:1" d="m 13.62,554.46 216.26,0"/>
        <path id="path300" style="fill:#000000;fill-opacity:1;fill-rule:evenodd;stroke:none" d="m 13.56,554.4 216.38,0 0,0.12 -216.38,0 0,-0.12 z"/>
        <path id="path302" style="fill:none;stroke:#000000;stroke-width:0.14;stroke-linecap:square;stroke-linejoin:round;stroke-miterlimit:10;stroke-dasharray:none;stroke-opacity:1" d="m 13.62,539.34 216.26,0"/>
        <path id="path304" style="fill:#000000;fill-opacity:1;fill-rule:evenodd;stroke:none" d="m 13.56,539.28 216.38,0 0,0.12 -216.38,0 0,-0.12 z"/>
        <path id="path306" style="fill:none;stroke:#000000;stroke-width:0.14;stroke-linecap:square;stroke-linejoin:round;stroke-miterlimit:10;stroke-dasharray:none;stroke-opacity:1" d="m 13.62,524.22 216.26,0"/>
        <path id="path308" style="fill:#000000;fill-opacity:1;fill-rule:evenodd;stroke:none" d="m 13.56,524.16 216.38,0 0,0.12 -216.38,0 0,-0.12 z"/>
        <path id="path310" style="fill:none;stroke:#000000;stroke-width:0.14;stroke-linecap:square;stroke-linejoin:round;stroke-miterlimit:10;stroke-dasharray:none;stroke-opacity:1" d="m 13.62,509.8 216.26,0"/>
        <path id="path312" style="fill:#000000;fill-opacity:1;fill-rule:evenodd;stroke:none" d="m 13.56,509.74 216.38,0 0,0.12 -216.38,0 0,-0.12 z"/>
        <path id="path314" style="fill:none;stroke:#000000;stroke-width:0.14;stroke-linecap:square;stroke-linejoin:round;stroke-miterlimit:10;stroke-dasharray:none;stroke-opacity:1" d="m 13.62,494.68 216.26,0"/>
        <path id="path316" style="fill:#000000;fill-opacity:1;fill-rule:evenodd;stroke:none" d="m 13.56,494.62 216.38,0 0,0.12 -216.38,0 0,-0.12 z"/>
        <path id="path318" style="fill:none;stroke:#000000;stroke-width:0.14;stroke-linecap:square;stroke-linejoin:round;stroke-miterlimit:10;stroke-dasharray:none;stroke-opacity:1" d="m 12.66,600.3 0,-121.1"/>
        <path id="path320" style="fill:#000000;fill-opacity:1;fill-rule:evenodd;stroke:none" d="m 12.6,479.14 0.96,0 0,121.22 -0.96,0 0,-121.22 z"/>
        <path id="path322" style="fill:none;stroke:#000000;stroke-width:0.14;stroke-linecap:square;stroke-linejoin:round;stroke-miterlimit:10;stroke-dasharray:none;stroke-opacity:1" d="M 230,599.34 230,479.2"/>
        <path id="path324" style="fill:#000000;fill-opacity:1;fill-rule:evenodd;stroke:none" d="m 229.94,479.14 0.96001,0 0,120.26 -0.96001,0 0,-120.26 z"/>
        <path id="path326" style="fill:none;stroke:#000000;stroke-width:0.14;stroke-linecap:square;stroke-linejoin:round;stroke-miterlimit:10;stroke-dasharray:none;stroke-opacity:1" d="m 313.16,584.22 0,-104.06"/>
        <path id="path328" style="fill:#000000;fill-opacity:1;fill-rule:evenodd;stroke:none" d="m 313.1,480.1 0.12,0 0,104.18 -0.12,0 0,-104.18 z"/>
        <path id="path330" style="fill:none;stroke:#000000;stroke-width:0.14;stroke-linecap:square;stroke-linejoin:round;stroke-miterlimit:10;stroke-dasharray:none;stroke-opacity:1" d="m 395.39,599.34 0,-120.14"/>
        <path id="path332" style="fill:#000000;fill-opacity:1;fill-rule:evenodd;stroke:none" d="m 395.33,479.14 0.95999,0 0,120.26 -0.95999,0 0,-120.26 z"/>
        <path id="path334" style="fill:none;stroke:#000000;stroke-width:0.14;stroke-linecap:square;stroke-linejoin:round;stroke-miterlimit:10;stroke-dasharray:none;stroke-opacity:1" d="m 13.62,600.3 382.61,0"/>
        <path id="path336" style="fill:#000000;fill-opacity:1;fill-rule:evenodd;stroke:none" d="m 13.56,599.4 382.73,0 0,0.96 -382.73,0 0,-0.96 z"/>
        <path id="path338" style="fill:none;stroke:#000000;stroke-width:0.14;stroke-linecap:square;stroke-linejoin:round;stroke-miterlimit:10;stroke-dasharray:none;stroke-opacity:1" d="m 13.62,585.18 382.61,0"/>
        <path id="path340" style="fill:#000000;fill-opacity:1;fill-rule:evenodd;stroke:none" d="m 13.56,584.28 382.73,0 0,0.96 -382.73,0 0,-0.96 z"/>
        <path id="path342" style="fill:none;stroke:#000000;stroke-width:0.14;stroke-linecap:square;stroke-linejoin:round;stroke-miterlimit:10;stroke-dasharray:none;stroke-opacity:1" d="m 230.96,569.58 164.31,0"/>
        <path id="path344" style="fill:#000000;fill-opacity:1;fill-rule:evenodd;stroke:none" d="m 230.9,569.52 164.42,0 0,0.12 -164.42,0 0,-0.12 z"/>
        <path id="path346" style="fill:none;stroke:#000000;stroke-width:0.14;stroke-linecap:square;stroke-linejoin:round;stroke-miterlimit:10;stroke-dasharray:none;stroke-opacity:1" d="m 230.96,554.46 164.31,0"/>
        <path id="path348" style="fill:#000000;fill-opacity:1;fill-rule:evenodd;stroke:none" d="m 230.9,554.4 164.42,0 0,0.12 -164.42,0 0,-0.12 z"/>
        <path id="path350" style="fill:none;stroke:#000000;stroke-width:0.14;stroke-linecap:square;stroke-linejoin:round;stroke-miterlimit:10;stroke-dasharray:none;stroke-opacity:1" d="m 230.96,539.34 164.31,0"/>
        <path id="path352" style="fill:#000000;fill-opacity:1;fill-rule:evenodd;stroke:none" d="m 230.9,539.28 164.42,0 0,0.12 -164.42,0 0,-0.12 z"/>
        <path id="path354" style="fill:none;stroke:#000000;stroke-width:0.14;stroke-linecap:square;stroke-linejoin:round;stroke-miterlimit:10;stroke-dasharray:none;stroke-opacity:1" d="m 230.96,524.22 164.31,0"/>
        <path id="path356" style="fill:#000000;fill-opacity:1;fill-rule:evenodd;stroke:none" d="m 230.9,524.16 164.42,0 0,0.12 -164.42,0 0,-0.12 z"/>
        <path id="path358" style="fill:none;stroke:#000000;stroke-width:0.14;stroke-linecap:square;stroke-linejoin:round;stroke-miterlimit:10;stroke-dasharray:none;stroke-opacity:1" d="m 230.96,509.8 164.31,0"/>
        <path id="path360" style="fill:#000000;fill-opacity:1;fill-rule:evenodd;stroke:none" d="m 230.9,509.74 164.42,0 0,0.12 -164.42,0 0,-0.12 z"/>
        <path id="path362" style="fill:none;stroke:#000000;stroke-width:0.14;stroke-linecap:square;stroke-linejoin:round;stroke-miterlimit:10;stroke-dasharray:none;stroke-opacity:1" d="m 230.96,494.68 164.31,0"/>
        <path id="path364" style="fill:#000000;fill-opacity:1;fill-rule:evenodd;stroke:none" d="m 230.9,494.62 164.42,0 0,0.12 -164.42,0 0,-0.12 z"/>
        <path id="path366" style="fill:none;stroke:#000000;stroke-width:0.14;stroke-linecap:square;stroke-linejoin:round;stroke-miterlimit:10;stroke-dasharray:none;stroke-opacity:1" d="m 13.62,480.04 382.61,0"/>
        <path id="path368" style="fill:#000000;fill-opacity:1;fill-rule:evenodd;stroke:none" d="m 13.56,479.14 382.73,0 0,0.95999 -382.73,0 0,-0.95999 z"/>
      </g>
    </g>
  </g>
</svg>
