<?xml version="1.0" encoding="UTF-8" standalone="no"?>
<svg xmlns:dc="http://purl.org/dc/elements/1.1/" xmlns:cc="http://creativecommons.org/ns#" xmlns:rdf="http://www.w3.org/1999/02/22-rdf-syntax-ns#" xmlns:svg="http://www.w3.org/2000/svg" xmlns="http://www.w3.org/2000/svg" viewBox="15.6 16.627026 327.70848 166.70862" height="166.70862" width="327.70848" xml:space="preserve" version="1.1" id="svg2">
  <metadata id="metadata8">
    <rdf:RDF>
      <cc:Work rdf:about="">
        <dc:format>image/svg+xml</dc:format>
        <dc:type rdf:resource="http://purl.org/dc/dcmitype/StillImage"/>
      </cc:Work>
    </rdf:RDF>
  </metadata>
  <defs id="defs6">
    <clipPath id="clipPath16" clipPathUnits="userSpaceOnUse">
      <path style="clip-rule:evenodd" id="path18" d="m 13.44,567.48 266.42,0 0,32.04 -266.42,0 0,-32.04 z"/>
    </clipPath>
    <clipPath id="clipPath28" clipPathUnits="userSpaceOnUse">
      <path style="clip-rule:evenodd" id="path30" d="m 13.44,549.46 266.42,0 0,17.064 -266.42,0 0,-17.064 z"/>
    </clipPath>
    <clipPath id="clipPath40" clipPathUnits="userSpaceOnUse">
      <path style="clip-rule:evenodd" id="path42" d="m 13.44,549.46 266.42,0 0,17.064 -266.42,0 0,-17.064 z"/>
    </clipPath>
    <clipPath id="clipPath52" clipPathUnits="userSpaceOnUse">
      <path style="clip-rule:evenodd" id="path54" d="m 13.44,529.06 266.42,0 0,9.24 -266.42,0 0,-9.24 z"/>
    </clipPath>
    <clipPath id="clipPath64" clipPathUnits="userSpaceOnUse">
      <path style="clip-rule:evenodd" id="path66" d="m 13.44,461.26 266.42,0 0,13.44 -266.42,0 0,-13.44 z"/>
    </clipPath>
    <clipPath id="clipPath76" clipPathUnits="userSpaceOnUse">
      <path style="clip-rule:evenodd" id="path78" d="m 12.48,460.32 267.36,0 0,140.16 -267.36,0 0,-140.16 z"/>
    </clipPath>
    <clipPath id="clipPath86" clipPathUnits="userSpaceOnUse">
      <path style="clip-rule:evenodd" id="path88" d="m 12.48,460.32 267.36,0 0,140.16 -267.36,0 0,-140.16 z"/>
    </clipPath>
    <clipPath id="clipPath100" clipPathUnits="userSpaceOnUse">
      <path style="clip-rule:evenodd" id="path102" d="m 18.84,526.68 249,0 0,62.28 -249,0 0,-62.28 z"/>
    </clipPath>
    <clipPath id="clipPath140" clipPathUnits="userSpaceOnUse">
      <path style="clip-rule:evenodd" id="path142" d="m 12.48,460.32 267.36,0 0,140.16 -267.36,0 0,-140.16 z"/>
    </clipPath>
    <clipPath id="clipPath152" clipPathUnits="userSpaceOnUse">
      <path style="clip-rule:evenodd" id="path154" d="m 12.48,460.32 267.36,0 0,140.16 -267.36,0 0,-140.16 z"/>
    </clipPath>
    <clipPath id="clipPath164" clipPathUnits="userSpaceOnUse">
      <path style="clip-rule:evenodd" id="path166" d="m 12.48,460.32 267.36,0 0,140.16 -267.36,0 0,-140.16 z"/>
    </clipPath>
    <clipPath id="clipPath176" clipPathUnits="userSpaceOnUse">
      <path style="clip-rule:evenodd" id="path178" d="m 12.48,460.32 267.36,0 0,140.16 -267.36,0 0,-140.16 z"/>
    </clipPath>
    <clipPath id="clipPath188" clipPathUnits="userSpaceOnUse">
      <path style="clip-rule:evenodd" id="path190" d="m 12.48,460.32 267.36,0 0,140.16 -267.36,0 0,-140.16 z"/>
    </clipPath>
    <clipPath id="clipPath200" clipPathUnits="userSpaceOnUse">
      <path style="clip-rule:evenodd" id="path202" d="m 12.48,460.32 267.36,0 0,140.16 -267.36,0 0,-140.16 z"/>
    </clipPath>
    <clipPath id="clipPath212" clipPathUnits="userSpaceOnUse">
      <path style="clip-rule:evenodd" id="path214" d="m 12.48,460.32 267.36,0 0,140.16 -267.36,0 0,-140.16 z"/>
    </clipPath>
    <clipPath id="clipPath224" clipPathUnits="userSpaceOnUse">
      <path style="clip-rule:evenodd" id="path226" d="m 12.48,460.32 267.36,0 0,140.16 -267.36,0 0,-140.16 z"/>
    </clipPath>
    <clipPath id="clipPath236" clipPathUnits="userSpaceOnUse">
      <path style="clip-rule:evenodd" id="path238" d="m 12.48,460.32 267.36,0 0,140.16 -267.36,0 0,-140.16 z"/>
    </clipPath>
    <clipPath id="clipPath248" clipPathUnits="userSpaceOnUse">
      <path style="clip-rule:evenodd" id="path250" d="m 12.48,460.32 267.36,0 0,140.16 -267.36,0 0,-140.16 z"/>
    </clipPath>
    <clipPath id="clipPath260" clipPathUnits="userSpaceOnUse">
      <path style="clip-rule:evenodd" id="path262" d="m 12.48,460.32 267.36,0 0,140.16 -267.36,0 0,-140.16 z"/>
    </clipPath>
    <clipPath id="clipPath272" clipPathUnits="userSpaceOnUse">
      <path style="clip-rule:evenodd" id="path274" d="m 12.48,460.32 267.36,0 0,140.16 -267.36,0 0,-140.16 z"/>
    </clipPath>
    <clipPath id="clipPath284" clipPathUnits="userSpaceOnUse">
      <path style="clip-rule:evenodd" id="path286" d="m 12.48,460.32 267.36,0 0,140.16 -267.36,0 0,-140.16 z"/>
    </clipPath>
    <clipPath id="clipPath296" clipPathUnits="userSpaceOnUse">
      <path style="clip-rule:evenodd" id="path298" d="m 12.48,460.32 267.36,0 0,140.16 -267.36,0 0,-140.16 z"/>
    </clipPath>
    <clipPath id="clipPath308" clipPathUnits="userSpaceOnUse">
      <path style="clip-rule:evenodd" id="path310" d="m 12.48,460.32 267.36,0 0,140.16 -267.36,0 0,-140.16 z"/>
    </clipPath>
    <clipPath id="clipPath336" clipPathUnits="userSpaceOnUse">
      <path style="clip-rule:evenodd" id="path338" d="m 12.48,460.32 267.36,0 0,140.16 -267.36,0 0,-140.16 z"/>
    </clipPath>
    <clipPath id="clipPath348" clipPathUnits="userSpaceOnUse">
      <path style="clip-rule:evenodd" id="path350" d="m 12.48,460.32 267.36,0 0,140.16 -267.36,0 0,-140.16 z"/>
    </clipPath>
    <clipPath id="clipPath360" clipPathUnits="userSpaceOnUse">
      <path style="clip-rule:evenodd" id="path362" d="m 12.48,460.32 267.36,0 0,140.16 -267.36,0 0,-140.16 z"/>
    </clipPath>
    <clipPath id="clipPath372" clipPathUnits="userSpaceOnUse">
      <path style="clip-rule:evenodd" id="path374" d="m 12.48,460.32 267.36,0 0,140.16 -267.36,0 0,-140.16 z"/>
    </clipPath>
    <clipPath id="clipPath384" clipPathUnits="userSpaceOnUse">
      <path style="clip-rule:evenodd" id="path386" d="m 12.48,460.32 267.36,0 0,140.16 -267.36,0 0,-140.16 z"/>
    </clipPath>
    <clipPath id="clipPath396" clipPathUnits="userSpaceOnUse">
      <path style="clip-rule:evenodd" id="path398" d="m 12.48,460.32 267.36,0 0,140.16 -267.36,0 0,-140.16 z"/>
    </clipPath>
    <clipPath id="clipPath408" clipPathUnits="userSpaceOnUse">
      <path style="clip-rule:evenodd" id="path410" d="m 12.48,460.32 267.36,0 0,140.16 -267.36,0 0,-140.16 z"/>
    </clipPath>
    <clipPath id="clipPath422" clipPathUnits="userSpaceOnUse">
      <path style="clip-rule:evenodd" id="path424" d="m 12.48,460.32 267.36,0 0,140.16 -267.36,0 0,-140.16 z"/>
    </clipPath>
    <clipPath id="clipPath434" clipPathUnits="userSpaceOnUse">
      <path style="clip-rule:evenodd" id="path436" d="m 12.48,460.32 267.36,0 0,140.16 -267.36,0 0,-140.16 z"/>
    </clipPath>
  </defs>
  <g transform="matrix(1.25,0,0,-1.25,0,765)" id="g10">
    <g id="g12">
      <g clip-path="url(#clipPath16)" id="g14"><text id="text20" style="font-variant:normal;font-weight:bold;font-size:26.04000092px;font-family:'Roboto Condensed';-inkscape-font-specification:RobotoCondensed-Bold;writing-mode:lr-tb;fill:#000000;fill-opacity:1;fill-rule:nonzero;stroke:none" transform="matrix(1,0,0,-1,325.73,575.04)"><tspan id="tspan22" y="0" x="0 12.39504 18.957121 32.055241 44.86692 53.512199 65.985359 71.974564 85.150803 98.327042 105.90468 111.89388 125.1222 138.29845 154.938 160.9272 173.89513 182.43623 188.42545 200.69028 207.25237 215.32475 227.14693 233.13612 252.45779 264.72263 277.53433 289.79916 302.89728 315.37045 324.01572 335.88995 341.87915 354.14401 366.12241 379.06427 391.87595 398.51617 407.16144 419.63461 432.55045 438.53964 451.42944 463.04327 469.03247 477.07883 485.72412 497.98895 510.90479 517.46686 525.53931 532.10138 545.06927 557.88098 570.14581 576.70789 582.74915 602.07086 614.33569 627.14734 639.41217 652.51031 664.98346 673.62878 685.45093 691.44012 703.31433 709.87646 722.68811 734.71863 747.19177 753.18097 766.35718 779.53345 792.76178 805.93799 811.92719 824.73889 837.00372 848.69568 861.16882 867.15802 873.72009 885.98499 899.08307 912.18121 924.65436 937.57019 943.55939 962.8811 975.14594 983.7912 996.26434 1008.7375 1016.7318 1022.7731 1035.8712 1044.5165 1057.4844 1073.9678 1081.962 1094.7737">Figure 42. 50% of alts managers acquired by traditional managers since 2020 have lagged market growth </tspan></text>
</g>
    </g>
    <g id="g24">
      <g clip-path="url(#clipPath28)" id="g26"><text id="text32" style="font-variant:normal;font-weight:bold;font-size:14.03999996px;font-family:'Roboto Condensed';-inkscape-font-specification:RobotoCondensed-Bold;writing-mode:lr-tb;fill:#000000;fill-opacity:1;fill-rule:nonzero;stroke:none" transform="matrix(1,0,0,-1,324.17,553.06)"><tspan id="tspan34" y="0" x="0 8.2835999 16.30044 26.98488 30.214081 37.276199 41.740921 48.732841 57.620159 61.930439 68.83812 72.067322 78.441483 81.979561 88.887238 95.345642 102.0708 105.3 111.91284 118.41336 125.39124 132.29892 135.83701 142.21117 145.65096 149.96124 153.4572 160.44913 167.3568 170.586 177.57793 182.14091 185.37012 192.31992 196.9812 200.51929 206.739 213.35184 217.66212 224.38728 227.61649 234.22932 240.60349 246.97765 253.66068 257.97095 261.20016 267.57431 274.52411 281.24927 287.70767 291.24576 297.85861 301.2984 304.78033 311.15448 315.46475 321.83893 325.06812 331.68097 338.13937 345.11725 352.02493 355.56299 360.09793 366.82309 373.78693 377.01611 383.85361 390.11545 393.34464 397.65491 402.09155 408.70441 415.66824 419.13611 423.44641 426.94235 433.93427 440.84195 447.4548 450.93671 454.16592 464.58359 471.19644 478.16028 484.77313 491.83524 498.56039 503.22168 509.59583">AUM growth since acquisition of private asset specialists acquired by traditional managers </tspan></text>
</g>
    </g>
    <g id="g36">
      <g clip-path="url(#clipPath40)" id="g38"><text id="text44" style="font-variant:normal;font-weight:normal;font-size:14.03999996px;font-family:'Roboto Condensed';-inkscape-font-specification:RobotoCondensed-Regular;writing-mode:lr-tb;fill:#000000;fill-opacity:1;fill-rule:nonzero;stroke:none" transform="matrix(1,0,0,-1,840.34,553.06)"><tspan id="tspan46" y="0" x="0 7.96068 15.96348 24.26112 31.71636 34.931519 39.11544 46.163521 49.420799 56.35656 63.3204 70.256157 77.220001 79.97184 83.186996 90.150841 96.76368 103.48884 106.704 113.10624 116.3214 122.80788 126.02304 133.11324 139.47336 146.04408 153.00792 156.2652 163.18692 169.8138 173.99773 183.12372 189.69444 196.30728 203.13072 206.34589 213.30972 220.24548 227.20932 234.14508 237.38832 244.11348 250.90884 257.87268 261.12997 268.06573 275.02957 281.96533 288.92917 291.681 294.89615 301.509 307.63043 314.11691 317.33209 324.16956 331.13339 337.70413 344.10635 347.32153 354.3696 361.23517 367.80588 371.06317 378.02701 384.59772 391.32288 394.56613 397.78128 406.90729 410.15051 414.33444 421.15787 424.37305 431.22455 438.27264 441.52991 448.25507 454.26419 460.98935 464.20453 467.41968 474.14484 481.12271 484.33789 490.95071 494.16589 501.12973 507.85489 512.05286">CAGR to 2024, deals closed between 2020 and 2023, excludes one deal with no available data</tspan></text>
</g>
    </g>
    <g id="g48">
      <g clip-path="url(#clipPath52)" id="g50"><text id="text56" style="font-variant:normal;font-weight:normal;font-size:8.03999996px;font-family:'Roboto Condensed';-inkscape-font-specification:RobotoCondensed-Regular;writing-mode:lr-tb;fill:#000000;fill-opacity:1;fill-rule:nonzero;stroke:none" transform="matrix(1,0,0,-1,323.45,530.86)"><tspan id="tspan58" y="0" x="0 4.9204798 8.9887199 11.38464 15.10716 17.020679 18.82164 23.49288 27.207359 30.921841 34.64436 37.040279 38.84124 42.555721 44.364719 48.215881 51.91428 55.628761 57.429722 61.39344 65.115959 68.959084 73.027321 75.423241 79.14576 82.860237 84.661201 87.057121 90.900238 94.622757 96.423721 102.42156 106.27272 108.07368 112.13388 114.53784 116.3388 118.73472 122.0874 123.8964 127.74756 131.44595 135.16045 138.88297 141.27888 143.07983 146.79433 148.60332 152.45448 156.15288 159.86736 161.66832 165.73656 168.27721 170.05405 172.44997 176.29308 180.01559 181.81656 185.66772 189.3822 193.45044 197.29356 199.09451 201.49847 205.22099 209.18472 210.98569 213.52632 215.30316 217.70712 223.70496 225.85968 227.66064 232.11481 234.50269 236.30363 239.77692 243.62808 245.99988 249.73848 251.53944 255.26196 259.3302 263.17331 264.97427 267.37021 270.72287 272.53189 274.33286 278.17596 281.89044 283.69943 287.54257 291.50629 295.22879 298.94327 300.74423 304.70795 307.10388 308.90485 312.37811 316.22928 318.60107 322.33969 324.14062 327.86316 331.9314 335.77451 337.57547 339.97141 343.32407 345.13309 348.84756 352.57007 356.28455 360.36084 364.20395 368.16769 372.01883 374.40671 376.20767 379.93021 383.64468 385.79941 387.60037 392.39221 394.79617 398.86441 404.13864 406.53455 410.37769 412.17865 413.97961 417.69409 419.49503 423.20953 427.2858 433.28363 437.24734 441.09851 443.48639 447.20892 451.17264 452.9736 457.04184 460.88495 462.68591 466.53708 470.36411 472.16507 476.01624 479.71463 483.42911 487.15164 489.54755 491.34851 495.06299 496.87201 500.72318 504.42157 508.13605 509.93701 513.9007 517.75189 521.45026 523.25122 526.9657 528.76666 532.61786 536.44489 540.40863 542.20953 547.48383 549.28479 551.68066 555.5238 557.32477 561.16791 562.96881 566.82001 568.60486 572.31934 576.39563 582.39349 586.35718 590.20837 592.59625 596.44739 600.41113 602.19598 605.91852 607.71948 610.11542 611.91638 617.91418 621.63672 625.3512 629.06567 632.91687 634.70978 638.43225 640.58698 642.38794 646.57678 650.64502 654.48816 656.89209 660.60663 664.3291 668.04358 669.95709 671.75806 675.7218 678.11774 681.84021 685.55475 689.26923 691.07019 693.47412 697.19666 698.99762 702.72009 706.57129 710.26965 713.99219 717.70667 719.28253 721.06738 725.03113 728.86621 732.8299 734.62286 736.42383 740.13831 741.94727 745.66174 749.73804 755.7359 759.69958 763.55078 767.37781 770.73047 772.53949 776.50317 778.30414 782.01862 785.73309 787.54211 791.61035 795.32483 799.16797 801.5719 805.29443 809.00891 810.58478 812.36963 817.16949 818.97046 820.77142 824.24469 827.96722 830.37122 832.17218 838.29865 841.65131 847.64917 851.50031 855.32733 857.1283 860.97949 864.80652 868.65765 870.44257 873.79523 877.51776 879.31873 883.0332">Note: Asset class denotes the majority asset class of the acquired firm. Private equity includes private equity secondaries. Growth is compared on an asset class basis and within a comparable timescale. Sources: press releases, public company disclosures, Oliver Wyman analysis.</tspan></text>
</g>
    </g>
    <g id="g60">
      <g clip-path="url(#clipPath64)" id="g62"><text id="text68" style="font-variant:normal;font-weight:normal;font-size:11.03999996px;font-family:'Roboto Condensed';-inkscape-font-specification:RobotoCondensed-Regular;writing-mode:lr-tb;fill:#000000;fill-opacity:1;fill-rule:nonzero;stroke:none" transform="matrix(1,0,0,-1,323.81,464.74)"><tspan id="tspan70" y="0" x="0 6.1161599 9.4723196 12.00048 16.68144 21.969601 25.2264 30.39312 32.877121 38.386082 43.552799 48.951359">Private debt</tspan></text>
</g>
    </g>
    <g id="g72">
      <g clip-path="url(#clipPath76)" id="g74">
        <path id="path80" style="fill:none;stroke:#000000;stroke-width:0.14;stroke-linecap:butt;stroke-linejoin:miter;stroke-miterlimit:10;stroke-dasharray:none;stroke-opacity:0" d="m 12.48,520.95 261.13,0 0,74.4 -261.13,0 0,-74.4 z"/>
      </g>
    </g>
    <g id="g82">
      <g clip-path="url(#clipPath86)" id="g84">
        <path id="path90" style="fill:#ffffff;fill-opacity:1;fill-rule:evenodd;stroke:none" d="m 12.48,520.96 261.13,0 0,74.4 -261.13,0 0,-74.4 z"/>
      </g>
    </g>
    <path id="path92" style="fill:#ffffff;fill-opacity:1;fill-rule:evenodd;stroke:none" d="m 18.919,527.4 248.26,0 0,61.504 -248.26,0 0,-61.504 z"/>
    <path id="path94" style="fill:#d0b86a;fill-opacity:1;fill-rule:nonzero;stroke:none" d="m 22.859,530.64 9.8515,0 0,58.265 -9.8515,0 0,-58.265 z"/>
    <g id="g96">
      <g clip-path="url(#clipPath100)" id="g98">
        <path id="path104" style="fill:none;stroke:#ffffff;stroke-width:0.75;stroke-linecap:butt;stroke-linejoin:round;stroke-miterlimit:10;stroke-dasharray:none;stroke-opacity:1" d="m 22.859,530.64 9.8515,0 0,58.265 -9.8515,0 0,-58.265 z"/>
      </g>
    </g>
    <path id="path106" style="fill:#226b5a;fill-opacity:1;fill-rule:nonzero;stroke:none" d="m 58.325,530.64 9.8515,0 0,49.248 -9.8515,0 0,-49.248 z"/>
    <path id="path108" style="fill:none;stroke:#ffffff;stroke-width:0.75;stroke-linecap:butt;stroke-linejoin:round;stroke-miterlimit:10;stroke-dasharray:none;stroke-opacity:1" d="m 58.325,530.64 9.8515,0 0,49.248 -9.8515,0 0,-49.248 z"/>
    <path id="path110" style="fill:#00a1e2;fill-opacity:1;fill-rule:nonzero;stroke:none" d="m 76.057,530.64 9.8515,0 0,45.434 -9.8515,0 0,-45.434 z"/>
    <path id="path112" style="fill:none;stroke:#ffffff;stroke-width:0.75;stroke-linecap:butt;stroke-linejoin:round;stroke-miterlimit:10;stroke-dasharray:none;stroke-opacity:1" d="m 76.057,530.64 9.8515,0 0,45.434 -9.8515,0 0,-45.434 z"/>
    <path id="path114" style="fill:#d0b86a;fill-opacity:1;fill-rule:nonzero;stroke:none" d="m 111.52,530.64 9.8515,0 0,22.803 -9.8515,0 0,-22.803 z"/>
    <path id="path116" style="fill:none;stroke:#ffffff;stroke-width:0.75;stroke-linecap:butt;stroke-linejoin:round;stroke-miterlimit:10;stroke-dasharray:none;stroke-opacity:1" d="m 111.52,530.64 9.8515,0 0,22.803 -9.8515,0 0,-22.803 z"/>
    <path id="path118" style="fill:#226b5a;fill-opacity:1;fill-rule:nonzero;stroke:none" d="m 164.72,530.64 9.8515,0 0,10.249 -9.8515,0 0,-10.249 z"/>
    <path id="path120" style="fill:none;stroke:#ffffff;stroke-width:0.75;stroke-linecap:butt;stroke-linejoin:round;stroke-miterlimit:10;stroke-dasharray:none;stroke-opacity:1" d="m 164.72,530.64 9.8515,0 0,10.249 -9.8515,0 0,-10.249 z"/>
    <path id="path122" style="fill:#00a1e2;fill-opacity:1;fill-rule:nonzero;stroke:none" d="m 235.65,530.64 9.8515,0 0,1.2933 -9.8515,0 0,-1.2933 z"/>
    <path id="path124" style="fill:none;stroke:#ffffff;stroke-width:0.75;stroke-linecap:butt;stroke-linejoin:round;stroke-miterlimit:10;stroke-dasharray:none;stroke-opacity:1" d="m 235.65,530.64 9.8515,0 0,1.2933 -9.8515,0 0,-1.2933 z"/>
    <path id="path126" style="fill:#00a1e2;fill-opacity:1;fill-rule:nonzero;stroke:none" d="m 253.38,527.4 9.8515,0 0,3.2391 -9.8515,0 0,-3.2391 z"/>
    <path id="path128" style="fill:none;stroke:#ffffff;stroke-width:0.75;stroke-linecap:butt;stroke-linejoin:round;stroke-miterlimit:10;stroke-dasharray:none;stroke-opacity:1" d="m 253.38,527.4 9.8515,0 0,3.2391 -9.8515,0 0,-3.2391 z"/>
    <path id="path130" style="fill:#005aa4;fill-opacity:1;fill-rule:nonzero;stroke:none" d="m 40.56,581.64 9.84,0 0,-51 -9.84,0 0,51 z m 53.28,-6.24 9.84,0 0,-44.76 -9.84,0 0,44.76 z m 35.4,-22.44 9.84,0 0,-22.32 -9.84,0 0,22.32 z m 17.76,-12.12 9.84,0 0,-10.2 -9.84,0 0,10.2 z m 35.4,0 9.96,0 0,-10.2 -9.96,0 0,10.2 z m 17.76,-1.68 9.84,0 0,-8.52 -9.84,0 0,8.52 z m 17.76,-4.8 9.84,0 0,-3.72 -9.84,0 0,3.72 z"/>
    <path id="path132" style="fill:none;stroke:#ffffff;stroke-width:0.75;stroke-linecap:butt;stroke-linejoin:round;stroke-miterlimit:10;stroke-dasharray:none;stroke-opacity:1" d="m 40.56,581.64 9.84,0 0,-51 -9.84,0 0,51 z m 53.28,-6.24 9.84,0 0,-44.76 -9.84,0 0,44.76 z m 35.4,-22.44 9.84,0 0,-22.32 -9.84,0 0,22.32 z m 17.76,-12.12 9.84,0 0,-10.2 -9.84,0 0,10.2 z m 35.4,0 9.96,0 0,-10.2 -9.96,0 0,10.2 z m 17.76,-1.68 9.84,0 0,-8.52 -9.84,0 0,8.52 z m 17.76,-4.8 9.84,0 0,-3.72 -9.84,0 0,3.72 z"/>
    <path id="path134" style="fill:none;stroke:#000000;stroke-width:0.75;stroke-linecap:butt;stroke-linejoin:round;stroke-miterlimit:10;stroke-dasharray:none;stroke-opacity:1" d="m 18.919,530.64 248.261,0"/>
    <g id="g136">
      <g clip-path="url(#clipPath140)" id="g138"><text id="text144" style="font-variant:normal;font-weight:normal;font-size:8.03999996px;font-family:'Roboto Condensed';-inkscape-font-specification:RobotoCondensed-Regular;writing-mode:lr-tb;fill:#000000;fill-opacity:1;fill-rule:nonzero;stroke:none" transform="matrix(1,0,0,-1,21,592.9)"><tspan id="tspan146" y="0" x="0 3.95996 7.91992">31%</tspan></text>
</g>
    </g>
    <g id="g148">
      <g clip-path="url(#clipPath152)" id="g150"><text id="text156" style="font-variant:normal;font-weight:normal;font-size:8.03999996px;font-family:'Roboto Condensed';-inkscape-font-specification:RobotoCondensed-Regular;writing-mode:lr-tb;fill:#000000;fill-opacity:1;fill-rule:nonzero;stroke:none" transform="matrix(1,0,0,-1,38.328,585.62)"><tspan id="tspan158" y="0" x="0 3.95996 7.91992">27%</tspan></text>
</g>
    </g>
    <g id="g160">
      <g clip-path="url(#clipPath164)" id="g162"><text id="text168" style="font-variant:normal;font-weight:normal;font-size:8.03999996px;font-family:'Roboto Condensed';-inkscape-font-specification:RobotoCondensed-Regular;writing-mode:lr-tb;fill:#000000;fill-opacity:1;fill-rule:nonzero;stroke:none" transform="matrix(1,0,0,-1,56.112,583.75)"><tspan id="tspan170" y="0" x="0 3.95996 7.91992">26%</tspan></text>
</g>
    </g>
    <g id="g172">
      <g clip-path="url(#clipPath176)" id="g174"><text id="text180" style="font-variant:normal;font-weight:normal;font-size:8.03999996px;font-family:'Roboto Condensed';-inkscape-font-specification:RobotoCondensed-Regular;writing-mode:lr-tb;fill:#000000;fill-opacity:1;fill-rule:nonzero;stroke:none" transform="matrix(1,0,0,-1,74.04,580.01)"><tspan id="tspan182" y="0" x="0 3.95996 7.91992">24%</tspan></text>
</g>
    </g>
    <g id="g184">
      <g clip-path="url(#clipPath188)" id="g186"><text id="text192" style="font-variant:normal;font-weight:normal;font-size:8.03999996px;font-family:'Roboto Condensed';-inkscape-font-specification:RobotoCondensed-Regular;writing-mode:lr-tb;fill:#000000;fill-opacity:1;fill-rule:nonzero;stroke:none" transform="matrix(1,0,0,-1,92.88,579.26)"><tspan id="tspan194" y="0" x="0 3.95996 7.91992">24%</tspan></text>
</g>
    </g>
    <g id="g196">
      <g clip-path="url(#clipPath200)" id="g198"><text id="text204" style="font-variant:normal;font-weight:normal;font-size:8.03999996px;font-family:'Roboto Condensed';-inkscape-font-specification:RobotoCondensed-Regular;writing-mode:lr-tb;fill:#000000;fill-opacity:1;fill-rule:nonzero;stroke:none" transform="matrix(1,0,0,-1,109.92,557.14)"><tspan id="tspan206" y="0" x="0 3.95996 7.91992">12%</tspan></text>
</g>
    </g>
    <g id="g208">
      <g clip-path="url(#clipPath212)" id="g210"><text id="text216" style="font-variant:normal;font-weight:normal;font-size:8.03999996px;font-family:'Roboto Condensed';-inkscape-font-specification:RobotoCondensed-Regular;writing-mode:lr-tb;fill:#000000;fill-opacity:1;fill-rule:nonzero;stroke:none" transform="matrix(1,0,0,-1,127.37,556.63)"><tspan id="tspan218" y="0" x="0 3.95996 7.91992">12%</tspan></text>
</g>
    </g>
    <g id="g220">
      <g clip-path="url(#clipPath224)" id="g222"><text id="text228" style="font-variant:normal;font-weight:normal;font-size:8.03999996px;font-family:'Roboto Condensed';-inkscape-font-specification:RobotoCondensed-Regular;writing-mode:lr-tb;fill:#000000;fill-opacity:1;fill-rule:nonzero;stroke:none" transform="matrix(1,0,0,-1,147,544.51)"><tspan id="tspan230" y="0" x="0 3.95996">5%</tspan></text>
</g>
    </g>
    <g id="g232">
      <g clip-path="url(#clipPath236)" id="g234"><text id="text240" style="font-variant:normal;font-weight:normal;font-size:8.03999996px;font-family:'Roboto Condensed';-inkscape-font-specification:RobotoCondensed-Regular;writing-mode:lr-tb;fill:#000000;fill-opacity:1;fill-rule:nonzero;stroke:none" transform="matrix(1,0,0,-1,164.95,544.51)"><tspan id="tspan242" y="0" x="0 3.95996">5%</tspan></text>
</g>
    </g>
    <g id="g244">
      <g clip-path="url(#clipPath248)" id="g246"><text id="text252" style="font-variant:normal;font-weight:normal;font-size:8.03999996px;font-family:'Roboto Condensed';-inkscape-font-specification:RobotoCondensed-Regular;writing-mode:lr-tb;fill:#000000;fill-opacity:1;fill-rule:nonzero;stroke:none" transform="matrix(1,0,0,-1,182.59,544.37)"><tspan id="tspan254" y="0" x="0 3.95996">5%</tspan></text>
</g>
    </g>
    <g id="g256">
      <g clip-path="url(#clipPath260)" id="g258"><text id="text264" style="font-variant:normal;font-weight:normal;font-size:8.03999996px;font-family:'Roboto Condensed';-inkscape-font-specification:RobotoCondensed-Regular;writing-mode:lr-tb;fill:#000000;fill-opacity:1;fill-rule:nonzero;stroke:none" transform="matrix(1,0,0,-1,199.92,542.76)"><tspan id="tspan266" y="0" x="0 3.95996">4%</tspan></text>
</g>
    </g>
    <g id="g268">
      <g clip-path="url(#clipPath272)" id="g270"><text id="text276" style="font-variant:normal;font-weight:normal;font-size:8.03999996px;font-family:'Roboto Condensed';-inkscape-font-specification:RobotoCondensed-Regular;writing-mode:lr-tb;fill:#000000;fill-opacity:1;fill-rule:nonzero;stroke:none" transform="matrix(1,0,0,-1,217.99,538.18)"><tspan id="tspan278" y="0" x="0 3.95996">2%</tspan></text>
</g>
    </g>
    <g id="g280">
      <g clip-path="url(#clipPath284)" id="g282"><text id="text288" style="font-variant:normal;font-weight:normal;font-size:8.03999996px;font-family:'Roboto Condensed';-inkscape-font-specification:RobotoCondensed-Regular;writing-mode:lr-tb;fill:#000000;fill-opacity:1;fill-rule:nonzero;stroke:none" transform="matrix(1,0,0,-1,235.92,535.8)"><tspan id="tspan290" y="0" x="0 3.95996">1%</tspan></text>
</g>
    </g>
    <g id="g292">
      <g clip-path="url(#clipPath296)" id="g294"><text id="text300" style="font-variant:normal;font-weight:normal;font-size:8.03999996px;font-family:'Roboto Condensed';-inkscape-font-specification:RobotoCondensed-Regular;writing-mode:lr-tb;fill:#000000;fill-opacity:1;fill-rule:nonzero;stroke:none" transform="matrix(1,0,0,-1,252.67,518.47)"><tspan id="tspan302" y="0" x="0">-</tspan></text>
</g>
    </g>
    <g id="g304">
      <g clip-path="url(#clipPath308)" id="g306"><text id="text312" style="font-variant:normal;font-weight:normal;font-size:8.03999996px;font-family:'Roboto Condensed';-inkscape-font-specification:RobotoCondensed-Regular;writing-mode:lr-tb;fill:#000000;fill-opacity:1;fill-rule:nonzero;stroke:none" transform="matrix(1,0,0,-1,254.71,518.47)"><tspan id="tspan314" y="0" x="0 3.95996">2%</tspan></text>
</g>
    </g>
    <path id="path316" style="fill:#005aa4;fill-opacity:1;fill-rule:evenodd;stroke:none" d="m 20.835,473.8 11.85,0 0,8.525 -11.85,0 0,-8.525 z"/>
    <path id="path318" style="fill:none;stroke:#ffffff;stroke-width:0.75;stroke-linecap:butt;stroke-linejoin:miter;stroke-miterlimit:8;stroke-dasharray:none;stroke-opacity:1" d="m 20.835,473.8 11.85,0 0,8.525 -11.85,0 0,-8.525 z"/>
    <path id="path320" style="fill:#d0b86a;fill-opacity:1;fill-rule:evenodd;stroke:none" d="m 85.565,473.8 11.85,0 0,8.525 -11.85,0 0,-8.525 z"/>
    <path id="path322" style="fill:none;stroke:#ffffff;stroke-width:0.75;stroke-linecap:butt;stroke-linejoin:miter;stroke-miterlimit:8;stroke-dasharray:none;stroke-opacity:1" d="m 85.565,473.8 11.85,0 0,8.525 -11.85,0 0,-8.525 z"/>
    <path id="path324" style="fill:#226b5a;fill-opacity:1;fill-rule:evenodd;stroke:none" d="m 155.78,473.8 11.85,0 0,8.525 -11.85,0 0,-8.525 z"/>
    <path id="path326" style="fill:none;stroke:#ffffff;stroke-width:0.75;stroke-linecap:butt;stroke-linejoin:miter;stroke-miterlimit:8;stroke-dasharray:none;stroke-opacity:1" d="m 155.78,473.8 11.85,0 0,8.525 -11.85,0 0,-8.525 z"/>
    <path id="path328" style="fill:#00a1e2;fill-opacity:1;fill-rule:evenodd;stroke:none" d="m 225.75,473.8 11.85,0 0,8.525 -11.85,0 0,-8.525 z"/>
    <path id="path330" style="fill:none;stroke:#ffffff;stroke-width:0.75;stroke-linecap:butt;stroke-linejoin:miter;stroke-miterlimit:8;stroke-dasharray:none;stroke-opacity:1" d="m 225.75,473.8 11.85,0 0,8.525 -11.85,0 0,-8.525 z"/>
    <g id="g332">
      <g clip-path="url(#clipPath336)" id="g334"><text id="text340" style="font-variant:normal;font-weight:normal;font-size:8.03999996px;font-family:'Roboto Condensed';-inkscape-font-specification:RobotoCondensed-Regular;writing-mode:lr-tb;fill:#000000;fill-opacity:1;fill-rule:nonzero;stroke:none" transform="matrix(1,0,0,-1,36.936,475.03)"><tspan id="tspan342" y="0" x="0 4.4541602 6.8420401 8.6429996 12.11628 15.96744 18.339239 22.077841 23.878799 27.84252 31.565041 35.528759">Private debt</tspan></text>
</g>
    </g>
    <g id="g344">
      <g clip-path="url(#clipPath348)" id="g346"><text id="text352" style="font-variant:normal;font-weight:normal;font-size:8.03999996px;font-family:'Roboto Condensed';-inkscape-font-specification:RobotoCondensed-Regular;writing-mode:lr-tb;fill:#000000;fill-opacity:1;fill-rule:nonzero;stroke:none" transform="matrix(1,0,0,-1,101.66,475.03)"><tspan id="tspan354" y="0" x="0 4.4541602 6.8420401 8.6429996 12.11628 15.96744 18.339239 22.077841 23.878799 27.60132 31.669559 35.51268 37.313641 39.70956">Private equity</tspan></text>
</g>
    </g>
    <g id="g356">
      <g clip-path="url(#clipPath360)" id="g358"><text id="text364" style="font-variant:normal;font-weight:normal;font-size:8.03999996px;font-family:'Roboto Condensed';-inkscape-font-specification:RobotoCondensed-Regular;writing-mode:lr-tb;fill:#000000;fill-opacity:1;fill-rule:nonzero;stroke:none" transform="matrix(1,0,0,-1,171.89,475.03)"><tspan id="tspan366" y="0" x="0 2.0341201 5.8772402 8.4178801 10.79772 14.64888 18.347281 20.7432 23.14716 26.99028 30.70476 33.100681 36.943802 39.347759">Infrastructure</tspan></text>
</g>
    </g>
    <g id="g368">
      <g clip-path="url(#clipPath372)" id="g370"><text id="text376" style="font-variant:normal;font-weight:normal;font-size:8.03999996px;font-family:'Roboto Condensed';-inkscape-font-specification:RobotoCondensed-Regular;writing-mode:lr-tb;fill:#000000;fill-opacity:1;fill-rule:nonzero;stroke:none" transform="matrix(1,0,0,-1,241.87,475.01)"><tspan id="tspan378" y="0" x="0 4.9204798 8.7716398 11.14344 15.00264 17.406601 21.257759">Natural</tspan></text>
</g>
    </g>
    <g id="g380">
      <g clip-path="url(#clipPath384)" id="g382"><text id="text388" style="font-variant:normal;font-weight:normal;font-size:8.03999996px;font-family:'Roboto Condensed';-inkscape-font-specification:RobotoCondensed-Regular;writing-mode:lr-tb;fill:#000000;fill-opacity:1;fill-rule:nonzero;stroke:none" transform="matrix(1,0,0,-1,241.87,465.41)"><tspan id="tspan390" y="0" x="0 4.3094401 8.0319595 11.74644 15.81468 19.657801 22.06176 25.776239 29.49876">Resources</tspan></text>
</g>
    </g>
    <g id="g392">
      <g clip-path="url(#clipPath396)" id="g394"><text id="text400" style="font-variant:normal;font-weight:bold;font-size:8.03999996px;font-family:'Roboto Condensed';-inkscape-font-specification:RobotoCondensed-Bold;writing-mode:lr-tb;fill:#226b5a;fill-opacity:1;fill-rule:nonzero;stroke:none" transform="matrix(1,0,0,-1,40.584,497.78)"><tspan id="tspan402" y="0" x="0 4.9365602 6.9626398 11.03088 14.98656 18.837721 21.47484 23.155199 25.663679 29.61936 33.454441 37.410118 39.090481 45.08028 48.915359 51.552479 55.403641 59.254799 61.7472 63.427559 67.495796 70.132919 74.096642 79.137718 81.646202">Higher than market growth</tspan></text>
</g>
    </g>
    <g id="g404">
      <g clip-path="url(#clipPath408)" id="g406"><text id="text412" style="font-variant:normal;font-weight:bold;font-size:8.03999996px;font-family:'Roboto Condensed';-inkscape-font-specification:RobotoCondensed-Bold;writing-mode:lr-tb;fill:#226b5a;fill-opacity:1;fill-rule:nonzero;stroke:none" transform="matrix(1,0,0,-1,76.728,488.18)"><tspan id="tspan414" y="0" x="0 4.08004 8.16008">50%</tspan></text>
</g>
    </g>
    <path id="path416" style="fill:#226b5a;fill-opacity:1;fill-rule:nonzero;stroke:none" d="m 20.535,512.02 125.795,0 0,-1.25 -125.795,0 0,1.25 z m 0,-3.63 c -1.657,0 -3,1.35 -3,3 0,1.66 1.343,3 3,3 1.657,0 3,-1.34 3,-3 0,-1.65 -1.343,-3 -3,-3 z m 125.795,6 c 1.66,0 3,-1.34 3,-3 0,-1.65 -1.34,-3 -3,-3 -1.66,0 -3,1.35 -3,3 0,1.66 1.34,3 3,3 z"/>
    <g id="g418">
      <g clip-path="url(#clipPath422)" id="g420"><text id="text426" style="font-variant:normal;font-weight:normal;font-size:8.03999996px;font-family:'Roboto Condensed';-inkscape-font-specification:RobotoCondensed-Regular;writing-mode:lr-tb;fill:#000000;fill-opacity:1;fill-rule:nonzero;stroke:none" transform="matrix(1,0,0,-1,175.7,497.78)"><tspan id="tspan428" y="0" x="0 3.819 7.9113598 13.1856 16.908119 19.31208 20.992439 23.388359 27.23148 31.08264 34.909679 36.8232 42.821041 46.672199 49.060081 52.661999 56.384521 58.780441 60.581402 64.54512 66.94104 71.009277 76.283524 78.679443">Lower than market growth</tspan></text>
</g>
    </g>
    <g id="g430">
      <g clip-path="url(#clipPath434)" id="g432"><text id="text438" style="font-variant:normal;font-weight:normal;font-size:8.03999996px;font-family:'Roboto Condensed';-inkscape-font-specification:RobotoCondensed-Regular;writing-mode:lr-tb;fill:#000000;fill-opacity:1;fill-rule:nonzero;stroke:none" transform="matrix(1,0,0,-1,210.5,488.18)"><tspan id="tspan440" y="0" x="0 3.95996 7.91992">50%</tspan></text>
</g>
    </g>
    <path id="path442" style="fill:#808080;fill-opacity:1;fill-rule:nonzero;stroke:none" d="m 154.26,512.02 109.51,0 0,-1.25 -109.51,0 0,1.25 z m 0,-3.63 c -1.66,0 -3,1.35 -3,3 0,1.66 1.34,3 3,3 1.66,0 3,-1.34 3,-3 0,-1.65 -1.34,-3 -3,-3 z m 109.51,6 c 1.65,0 3,-1.34 3,-3 0,-1.65 -1.35,-3 -3,-3 -1.66,0 -3,1.35 -3,3 0,1.66 1.34,3 3,3 z"/>
  </g>
</svg>
