<?xml version="1.0" encoding="UTF-8" standalone="no"?>
<svg xmlns:dc="http://purl.org/dc/elements/1.1/" xmlns:cc="http://creativecommons.org/ns#" xmlns:rdf="http://www.w3.org/1999/02/22-rdf-syntax-ns#" xmlns:svg="http://www.w3.org/2000/svg" xmlns="http://www.w3.org/2000/svg" viewBox="63 388.125 618.15 326.625" height="326.625" width="618.15" xml:space="preserve" version="1.1" id="svg2">
  <metadata id="metadata8">
    <rdf:RDF>
      <cc:Work rdf:about="">
        <dc:format>image/svg+xml</dc:format>
        <dc:type rdf:resource="http://purl.org/dc/dcmitype/StillImage"/>
      </cc:Work>
    </rdf:RDF>
  </metadata>
  <defs id="defs6">
    <clipPath id="clipPath16" clipPathUnits="userSpaceOnUse">
      <path style="clip-rule:evenodd" id="path18" d="m 50.4,270.12 494.52,0 0,261.36 -494.52,0 0,-261.36 z"/>
    </clipPath>
    <clipPath id="clipPath26" clipPathUnits="userSpaceOnUse">
      <path style="clip-rule:evenodd" id="path28" d="m 50.4,270.12 494.52,0 0,261.36 -494.52,0 0,-261.36 z"/>
    </clipPath>
    <clipPath id="clipPath44" clipPathUnits="userSpaceOnUse">
      <path style="clip-rule:evenodd" id="path46" d="m 50.52,270.12 494.4,0 0,261.24 -494.4,0 0,-261.24 z"/>
    </clipPath>
    <clipPath id="clipPath56" clipPathUnits="userSpaceOnUse">
      <path style="clip-rule:evenodd" id="path58" d="m 50.52,270.12 494.4,0 0,261.24 -494.4,0 0,-261.24 z"/>
    </clipPath>
    <clipPath id="clipPath68" clipPathUnits="userSpaceOnUse">
      <path style="clip-rule:evenodd" id="path70" d="m 50.52,270.12 494.4,0 0,261.24 -494.4,0 0,-261.24 z"/>
    </clipPath>
    <clipPath id="clipPath80" clipPathUnits="userSpaceOnUse">
      <path style="clip-rule:evenodd" id="path82" d="m 50.52,270.12 494.4,0 0,261.24 -494.4,0 0,-261.24 z"/>
    </clipPath>
    <clipPath id="clipPath92" clipPathUnits="userSpaceOnUse">
      <path style="clip-rule:evenodd" id="path94" d="m 50.52,270.12 494.4,0 0,261.24 -494.4,0 0,-261.24 z"/>
    </clipPath>
    <clipPath id="clipPath104" clipPathUnits="userSpaceOnUse">
      <path style="clip-rule:evenodd" id="path106" d="m 50.52,270.12 494.4,0 0,261.24 -494.4,0 0,-261.24 z"/>
    </clipPath>
    <clipPath id="clipPath116" clipPathUnits="userSpaceOnUse">
      <path style="clip-rule:evenodd" id="path118" d="m 50.52,270.12 494.4,0 0,261.24 -494.4,0 0,-261.24 z"/>
    </clipPath>
    <clipPath id="clipPath128" clipPathUnits="userSpaceOnUse">
      <path style="clip-rule:evenodd" id="path130" d="m 50.52,270.12 494.4,0 0,261.24 -494.4,0 0,-261.24 z"/>
    </clipPath>
    <clipPath id="clipPath140" clipPathUnits="userSpaceOnUse">
      <path style="clip-rule:evenodd" id="path142" d="m 50.52,270.12 494.4,0 0,261.24 -494.4,0 0,-261.24 z"/>
    </clipPath>
    <clipPath id="clipPath152" clipPathUnits="userSpaceOnUse">
      <path style="clip-rule:evenodd" id="path154" d="m 50.52,270.12 494.4,0 0,261.24 -494.4,0 0,-261.24 z"/>
    </clipPath>
    <clipPath id="clipPath164" clipPathUnits="userSpaceOnUse">
      <path style="clip-rule:evenodd" id="path166" d="m 50.52,270.12 494.4,0 0,261.24 -494.4,0 0,-261.24 z"/>
    </clipPath>
    <clipPath id="clipPath176" clipPathUnits="userSpaceOnUse">
      <path style="clip-rule:evenodd" id="path178" d="m 50.52,270.12 494.4,0 0,261.24 -494.4,0 0,-261.24 z"/>
    </clipPath>
    <clipPath id="clipPath188" clipPathUnits="userSpaceOnUse">
      <path style="clip-rule:evenodd" id="path190" d="m 50.52,270.12 494.4,0 0,261.24 -494.4,0 0,-261.24 z"/>
    </clipPath>
    <clipPath id="clipPath200" clipPathUnits="userSpaceOnUse">
      <path style="clip-rule:evenodd" id="path202" d="m 50.52,270.12 494.4,0 0,261.24 -494.4,0 0,-261.24 z"/>
    </clipPath>
    <clipPath id="clipPath212" clipPathUnits="userSpaceOnUse">
      <path style="clip-rule:evenodd" id="path214" d="m 50.52,270.12 494.4,0 0,261.24 -494.4,0 0,-261.24 z"/>
    </clipPath>
    <clipPath id="clipPath224" clipPathUnits="userSpaceOnUse">
      <path style="clip-rule:evenodd" id="path226" d="m 50.52,270.12 494.4,0 0,261.24 -494.4,0 0,-261.24 z"/>
    </clipPath>
    <clipPath id="clipPath236" clipPathUnits="userSpaceOnUse">
      <path style="clip-rule:evenodd" id="path238" d="m 50.52,270.12 494.4,0 0,261.24 -494.4,0 0,-261.24 z"/>
    </clipPath>
    <clipPath id="clipPath248" clipPathUnits="userSpaceOnUse">
      <path style="clip-rule:evenodd" id="path250" d="m 50.52,270.12 494.4,0 0,261.24 -494.4,0 0,-261.24 z"/>
    </clipPath>
    <clipPath id="clipPath260" clipPathUnits="userSpaceOnUse">
      <path style="clip-rule:evenodd" id="path262" d="m 50.52,270.12 494.4,0 0,261.24 -494.4,0 0,-261.24 z"/>
    </clipPath>
    <clipPath id="clipPath272" clipPathUnits="userSpaceOnUse">
      <path style="clip-rule:evenodd" id="path274" d="m 50.52,270.12 494.4,0 0,261.24 -494.4,0 0,-261.24 z"/>
    </clipPath>
    <clipPath id="clipPath284" clipPathUnits="userSpaceOnUse">
      <path style="clip-rule:evenodd" id="path286" d="m 50.52,270.12 494.4,0 0,261.24 -494.4,0 0,-261.24 z"/>
    </clipPath>
    <clipPath id="clipPath296" clipPathUnits="userSpaceOnUse">
      <path style="clip-rule:evenodd" id="path298" d="m 50.52,270.12 494.4,0 0,261.24 -494.4,0 0,-261.24 z"/>
    </clipPath>
    <clipPath id="clipPath308" clipPathUnits="userSpaceOnUse">
      <path style="clip-rule:evenodd" id="path310" d="m 50.52,270.12 494.4,0 0,261.24 -494.4,0 0,-261.24 z"/>
    </clipPath>
    <clipPath id="clipPath320" clipPathUnits="userSpaceOnUse">
      <path style="clip-rule:evenodd" id="path322" d="m 50.52,270.12 494.4,0 0,261.24 -494.4,0 0,-261.24 z"/>
    </clipPath>
    <clipPath id="clipPath332" clipPathUnits="userSpaceOnUse">
      <path style="clip-rule:evenodd" id="path334" d="m 50.52,270.12 494.4,0 0,261.24 -494.4,0 0,-261.24 z"/>
    </clipPath>
    <clipPath id="clipPath344" clipPathUnits="userSpaceOnUse">
      <path style="clip-rule:evenodd" id="path346" d="m 50.52,270.12 494.4,0 0,261.24 -494.4,0 0,-261.24 z"/>
    </clipPath>
    <clipPath id="clipPath356" clipPathUnits="userSpaceOnUse">
      <path style="clip-rule:evenodd" id="path358" d="m 50.52,270.12 494.4,0 0,261.24 -494.4,0 0,-261.24 z"/>
    </clipPath>
    <clipPath id="clipPath368" clipPathUnits="userSpaceOnUse">
      <path style="clip-rule:evenodd" id="path370" d="m 50.52,270.12 494.4,0 0,261.24 -494.4,0 0,-261.24 z"/>
    </clipPath>
    <clipPath id="clipPath380" clipPathUnits="userSpaceOnUse">
      <path style="clip-rule:evenodd" id="path382" d="m 50.52,270.12 494.4,0 0,261.24 -494.4,0 0,-261.24 z"/>
    </clipPath>
    <clipPath id="clipPath392" clipPathUnits="userSpaceOnUse">
      <path style="clip-rule:evenodd" id="path394" d="m 50.52,270.12 494.4,0 0,261.24 -494.4,0 0,-261.24 z"/>
    </clipPath>
    <clipPath id="clipPath404" clipPathUnits="userSpaceOnUse">
      <path style="clip-rule:evenodd" id="path406" d="m 50.52,270.12 494.4,0 0,261.24 -494.4,0 0,-261.24 z"/>
    </clipPath>
    <clipPath id="clipPath416" clipPathUnits="userSpaceOnUse">
      <path style="clip-rule:evenodd" id="path418" d="m 50.52,270.12 494.4,0 0,261.24 -494.4,0 0,-261.24 z"/>
    </clipPath>
    <clipPath id="clipPath428" clipPathUnits="userSpaceOnUse">
      <path style="clip-rule:evenodd" id="path430" d="m 50.52,270.12 494.4,0 0,261.24 -494.4,0 0,-261.24 z"/>
    </clipPath>
    <clipPath id="clipPath440" clipPathUnits="userSpaceOnUse">
      <path style="clip-rule:evenodd" id="path442" d="m 50.52,270.12 494.4,0 0,261.24 -494.4,0 0,-261.24 z"/>
    </clipPath>
    <clipPath id="clipPath452" clipPathUnits="userSpaceOnUse">
      <path style="clip-rule:evenodd" id="path454" d="m 50.52,270.12 494.4,0 0,261.24 -494.4,0 0,-261.24 z"/>
    </clipPath>
    <clipPath id="clipPath464" clipPathUnits="userSpaceOnUse">
      <path style="clip-rule:evenodd" id="path466" d="m 50.52,270.12 494.4,0 0,261.24 -494.4,0 0,-261.24 z"/>
    </clipPath>
    <clipPath id="clipPath476" clipPathUnits="userSpaceOnUse">
      <path style="clip-rule:evenodd" id="path478" d="m 50.52,270.12 494.4,0 0,261.24 -494.4,0 0,-261.24 z"/>
    </clipPath>
    <clipPath id="clipPath492" clipPathUnits="userSpaceOnUse">
      <path style="clip-rule:evenodd" id="path494" d="m 50.52,270.12 494.4,0 0,261.24 -494.4,0 0,-261.24 z"/>
    </clipPath>
    <clipPath id="clipPath506" clipPathUnits="userSpaceOnUse">
      <path style="clip-rule:evenodd" id="path508" d="m 50.52,270.12 494.4,0 0,261.24 -494.4,0 0,-261.24 z"/>
    </clipPath>
  </defs>
  <g transform="matrix(1.25,0,0,-1.25,0,1052.4)" id="g10">
    <g id="g12">
      <g clip-path="url(#clipPath16)" id="g14">
        <path id="path20" style="fill:none;stroke:#000000;stroke-width:0.14;stroke-linecap:butt;stroke-linejoin:miter;stroke-miterlimit:10;stroke-dasharray:none;stroke-opacity:0" d="m 50.44,270.08 494.45,0 0,261.27 -494.45,0 0,-261.27 z"/>
      </g>
    </g>
    <g id="g22">
      <g clip-path="url(#clipPath26)" id="g24">
        <path id="path30" style="fill:#ffffff;fill-opacity:1;fill-rule:evenodd;stroke:none" d="m 50.44,270.08 494.45,0 0,261.27 -494.45,0 0,-261.27 z"/>
      </g>
    </g>
    <path id="path32" style="fill:none;stroke:#c0c0c0;stroke-width:0.39763001;stroke-linecap:round;stroke-linejoin:round;stroke-miterlimit:10;stroke-dasharray:none;stroke-opacity:1" d="m 252.37,515.18 0,-230.35 m 56.3,230.35 0,-230.35 m 56.31,230.35 0,-230.35 m 56.3,230.35 0,-230.35 m 56.31,230.35 0,-230.35 m 56.25,230.35 0,-230.35"/>
    <path id="path34" style="fill:#005aa4;fill-opacity:1;fill-rule:nonzero;stroke:none" d="m 319.93,289.81 -123.81,0 0,6.59 123.81,0 0,-6.59 z m 22.53,23 -146.34,0 0,6.58 146.34,0 0,-6.58 z m 0,23 -146.34,0 0,6.58 146.34,0 0,-6.58 z m 11.26,23.09 -157.6,0 0,6.59 157.6,0 0,-6.59 z m 11.26,23 -168.86,0 0,6.59 168.86,0 0,-6.59 z m 11.26,23 -180.12,0 0,6.58 180.12,0 0,-6.58 z m 11.26,23.09 -191.38,0 0,6.59 191.38,0 0,-6.59 z m 11.26,23 -202.64,0 0,6.59 202.64,0 0,-6.59 z m 22.52,23.1 -225.16,0 0,6.58 225.16,0 0,-6.58 z m 11.26,23 -236.42,0 0,6.58 236.42,0 0,-6.58 z"/>
    <path id="path36" style="fill:#eadfbc;fill-opacity:1;fill-rule:nonzero;stroke:none" d="m 364.98,296.4 -168.86,0 0,6.48 168.86,0 0,-6.48 z m 0,22.99 -168.86,0 0,6.59 168.86,0 0,-6.59 z m 0,23 -168.86,0 0,6.59 168.86,0 0,-6.59 z m -11.26,23.1 -157.6,0 0,6.58 157.6,0 0,-6.58 z m 56.3,23 -213.9,0 0,6.58 213.9,0 0,-6.58 z m -78.82,22.99 -135.08,0 0,6.59 135.08,0 0,-6.59 z m 45.04,23.1 -180.12,0 0,6.58 180.12,0 0,-6.58 z m 56.3,23 -236.42,0 0,6.58 236.42,0 0,-6.58 z m 0,23.09 -236.42,0 0,6.49 236.42,0 0,-6.49 z m 33.78,23 -270.2,0 0,6.58 270.2,0 0,-6.58 z"/>
    <path id="path38" style="fill:none;stroke:#808080;stroke-width:0.99406999;stroke-linecap:round;stroke-linejoin:round;stroke-miterlimit:10;stroke-dasharray:none;stroke-opacity:1" d="m 196.12,284.83 0,230.35"/>
    <g id="g40">
      <g clip-path="url(#clipPath44)" id="g42"><text id="text48" style="font-variant:normal;font-weight:normal;font-size:7.15199995px;font-family:'Roboto Condensed';-inkscape-font-specification:RobotoCondensed-Regular;writing-mode:lr-tb;fill:#000000;fill-opacity:1;fill-rule:nonzero;stroke:none" transform="matrix(1,0,0,-1,324.74,290.5)"><tspan id="tspan50" y="0" x="0 3.527998 7.0559959">11%</tspan></text>
</g>
    </g>
    <g id="g52">
      <g clip-path="url(#clipPath56)" id="g54"><text id="text60" style="font-variant:normal;font-weight:normal;font-size:7.15199995px;font-family:'Roboto Condensed';-inkscape-font-specification:RobotoCondensed-Regular;writing-mode:lr-tb;fill:#000000;fill-opacity:1;fill-rule:nonzero;stroke:none" transform="matrix(1,0,0,-1,347.28,313.54)"><tspan id="tspan62" y="0" x="0 3.527998 7.0559959">13%</tspan></text>
</g>
    </g>
    <g id="g64">
      <g clip-path="url(#clipPath68)" id="g66"><text id="text72" style="font-variant:normal;font-weight:normal;font-size:7.15199995px;font-family:'Roboto Condensed';-inkscape-font-specification:RobotoCondensed-Regular;writing-mode:lr-tb;fill:#000000;fill-opacity:1;fill-rule:nonzero;stroke:none" transform="matrix(1,0,0,-1,347.28,336.58)"><tspan id="tspan74" y="0" x="0 3.527998 7.0559959">13%</tspan></text>
</g>
    </g>
    <g id="g76">
      <g clip-path="url(#clipPath80)" id="g78"><text id="text84" style="font-variant:normal;font-weight:normal;font-size:7.15199995px;font-family:'Roboto Condensed';-inkscape-font-specification:RobotoCondensed-Regular;writing-mode:lr-tb;fill:#000000;fill-opacity:1;fill-rule:nonzero;stroke:none" transform="matrix(1,0,0,-1,358.54,359.62)"><tspan id="tspan86" y="0" x="0 3.527998 7.0559959">14%</tspan></text>
</g>
    </g>
    <g id="g88">
      <g clip-path="url(#clipPath92)" id="g90"><text id="text96" style="font-variant:normal;font-weight:normal;font-size:7.15199995px;font-family:'Roboto Condensed';-inkscape-font-specification:RobotoCondensed-Regular;writing-mode:lr-tb;fill:#000000;fill-opacity:1;fill-rule:nonzero;stroke:none" transform="matrix(1,0,0,-1,369.79,382.66)"><tspan id="tspan98" y="0" x="0 3.527998 7.0559959">15%</tspan></text>
</g>
    </g>
    <g id="g100">
      <g clip-path="url(#clipPath104)" id="g102"><text id="text108" style="font-variant:normal;font-weight:normal;font-size:7.15199995px;font-family:'Roboto Condensed';-inkscape-font-specification:RobotoCondensed-Regular;writing-mode:lr-tb;fill:#000000;fill-opacity:1;fill-rule:nonzero;stroke:none" transform="matrix(1,0,0,-1,381.05,405.7)"><tspan id="tspan110" y="0" x="0 3.527998 7.0559959">16%</tspan></text>
</g>
    </g>
    <g id="g112">
      <g clip-path="url(#clipPath116)" id="g114"><text id="text120" style="font-variant:normal;font-weight:normal;font-size:7.17600012px;font-family:'Roboto Condensed';-inkscape-font-specification:RobotoCondensed-Regular;writing-mode:lr-tb;fill:#000000;fill-opacity:1;fill-rule:nonzero;stroke:none" transform="matrix(1,0,0,-1,392.3,428.74)"><tspan id="tspan122" y="0" x="0 3.528044 7.056088">17%</tspan></text>
</g>
    </g>
    <g id="g124">
      <g clip-path="url(#clipPath128)" id="g126"><text id="text132" style="font-variant:normal;font-weight:normal;font-size:7.17600012px;font-family:'Roboto Condensed';-inkscape-font-specification:RobotoCondensed-Regular;writing-mode:lr-tb;fill:#000000;fill-opacity:1;fill-rule:nonzero;stroke:none" transform="matrix(1,0,0,-1,403.56,451.78)"><tspan id="tspan134" y="0" x="0 3.528044 7.056088">18%</tspan></text>
</g>
    </g>
    <g id="g136">
      <g clip-path="url(#clipPath140)" id="g138"><text id="text144" style="font-variant:normal;font-weight:normal;font-size:7.17600012px;font-family:'Roboto Condensed';-inkscape-font-specification:RobotoCondensed-Regular;writing-mode:lr-tb;fill:#000000;fill-opacity:1;fill-rule:nonzero;stroke:none" transform="matrix(1,0,0,-1,426.1,474.82)"><tspan id="tspan146" y="0" x="0 3.528044 7.056088">20%</tspan></text>
</g>
    </g>
    <g id="g148">
      <g clip-path="url(#clipPath152)" id="g150"><text id="text156" style="font-variant:normal;font-weight:bold;font-size:7.15199995px;font-family:'Roboto Condensed';-inkscape-font-specification:RobotoCondensed-Bold;writing-mode:lr-tb;fill:#000000;fill-opacity:1;fill-rule:nonzero;stroke:none" transform="matrix(1,0,0,-1,437.35,497.83)"><tspan id="tspan158" y="0" x="0 3.624002 7.248004">21%</tspan></text>
</g>
    </g>
    <g id="g160">
      <g clip-path="url(#clipPath164)" id="g162"><text id="text168" style="font-variant:normal;font-weight:normal;font-size:7.17600012px;font-family:'Roboto Condensed';-inkscape-font-specification:RobotoCondensed-Regular;writing-mode:lr-tb;fill:#000000;fill-opacity:1;fill-rule:nonzero;stroke:none" transform="matrix(1,0,0,-1,369.79,297.1)"><tspan id="tspan170" y="0" x="0 3.528044 7.056088">15%</tspan></text>
</g>
    </g>
    <g id="g172">
      <g clip-path="url(#clipPath176)" id="g174"><text id="text180" style="font-variant:normal;font-weight:normal;font-size:7.15199995px;font-family:'Roboto Condensed';-inkscape-font-specification:RobotoCondensed-Regular;writing-mode:lr-tb;fill:#000000;fill-opacity:1;fill-rule:nonzero;stroke:none" transform="matrix(1,0,0,-1,369.79,320.11)"><tspan id="tspan182" y="0" x="0 3.527998 7.0559959">15%</tspan></text>
</g>
    </g>
    <g id="g184">
      <g clip-path="url(#clipPath188)" id="g186"><text id="text192" style="font-variant:normal;font-weight:normal;font-size:7.15199995px;font-family:'Roboto Condensed';-inkscape-font-specification:RobotoCondensed-Regular;writing-mode:lr-tb;fill:#000000;fill-opacity:1;fill-rule:nonzero;stroke:none" transform="matrix(1,0,0,-1,369.79,343.15)"><tspan id="tspan194" y="0" x="0 3.527998 7.0559959">15%</tspan></text>
</g>
    </g>
    <g id="g196">
      <g clip-path="url(#clipPath200)" id="g198"><text id="text204" style="font-variant:normal;font-weight:normal;font-size:7.15199995px;font-family:'Roboto Condensed';-inkscape-font-specification:RobotoCondensed-Regular;writing-mode:lr-tb;fill:#000000;fill-opacity:1;fill-rule:nonzero;stroke:none" transform="matrix(1,0,0,-1,358.54,366.19)"><tspan id="tspan206" y="0" x="0 3.527998 7.0559959">14%</tspan></text>
</g>
    </g>
    <g id="g208">
      <g clip-path="url(#clipPath212)" id="g210"><text id="text216" style="font-variant:normal;font-weight:normal;font-size:7.15199995px;font-family:'Roboto Condensed';-inkscape-font-specification:RobotoCondensed-Regular;writing-mode:lr-tb;fill:#000000;fill-opacity:1;fill-rule:nonzero;stroke:none" transform="matrix(1,0,0,-1,414.84,389.23)"><tspan id="tspan218" y="0" x="0 3.527998 7.0559959">19%</tspan></text>
</g>
    </g>
    <g id="g220">
      <g clip-path="url(#clipPath224)" id="g222"><text id="text228" style="font-variant:normal;font-weight:normal;font-size:7.15199995px;font-family:'Roboto Condensed';-inkscape-font-specification:RobotoCondensed-Regular;writing-mode:lr-tb;fill:#000000;fill-opacity:1;fill-rule:nonzero;stroke:none" transform="matrix(1,0,0,-1,336,412.27)"><tspan id="tspan230" y="0" x="0 3.5519879 7.1039758">12%</tspan></text>
</g>
    </g>
    <g id="g232">
      <g clip-path="url(#clipPath236)" id="g234"><text id="text240" style="font-variant:normal;font-weight:normal;font-size:7.15199995px;font-family:'Roboto Condensed';-inkscape-font-specification:RobotoCondensed-Regular;writing-mode:lr-tb;fill:#000000;fill-opacity:1;fill-rule:nonzero;stroke:none" transform="matrix(1,0,0,-1,381.05,435.31)"><tspan id="tspan242" y="0" x="0 3.527998 7.0559959">16%</tspan></text>
</g>
    </g>
    <g id="g244">
      <g clip-path="url(#clipPath248)" id="g246"><text id="text252" style="font-variant:normal;font-weight:normal;font-size:7.15199995px;font-family:'Roboto Condensed';-inkscape-font-specification:RobotoCondensed-Regular;writing-mode:lr-tb;fill:#000000;fill-opacity:1;fill-rule:nonzero;stroke:none" transform="matrix(1,0,0,-1,437.35,458.35)"><tspan id="tspan254" y="0" x="0 3.527998 7.0559959">21%</tspan></text>
</g>
    </g>
    <g id="g256">
      <g clip-path="url(#clipPath260)" id="g258"><text id="text264" style="font-variant:normal;font-weight:normal;font-size:7.15199995px;font-family:'Roboto Condensed';-inkscape-font-specification:RobotoCondensed-Regular;writing-mode:lr-tb;fill:#000000;fill-opacity:1;fill-rule:nonzero;stroke:none" transform="matrix(1,0,0,-1,437.35,481.39)"><tspan id="tspan266" y="0" x="0 3.527998 7.0559959">21%</tspan></text>
</g>
    </g>
    <g id="g268">
      <g clip-path="url(#clipPath272)" id="g270"><text id="text276" style="font-variant:normal;font-weight:bold;font-size:7.17600012px;font-family:'Roboto Condensed';-inkscape-font-specification:RobotoCondensed-Bold;writing-mode:lr-tb;fill:#000000;fill-opacity:1;fill-rule:nonzero;stroke:none" transform="matrix(1,0,0,-1,471.14,504.43)"><tspan id="tspan278" y="0" x="0 3.623996 7.247992">24%</tspan></text>
</g>
    </g>
    <g id="g280">
      <g clip-path="url(#clipPath284)" id="g282"><text id="text288" style="font-variant:normal;font-weight:normal;font-size:7.17600012px;font-family:'Roboto Condensed';-inkscape-font-specification:RobotoCondensed-Regular;writing-mode:lr-tb;fill:#000000;fill-opacity:1;fill-rule:nonzero;stroke:none" transform="matrix(1,0,0,-1,192.12,273.46)"><tspan id="tspan290" y="0" x="0 3.528044">0%</tspan></text>
</g>
    </g>
    <g id="g292">
      <g clip-path="url(#clipPath296)" id="g294"><text id="text300" style="font-variant:normal;font-weight:normal;font-size:7.17600012px;font-family:'Roboto Condensed';-inkscape-font-specification:RobotoCondensed-Regular;writing-mode:lr-tb;fill:#000000;fill-opacity:1;fill-rule:nonzero;stroke:none" transform="matrix(1,0,0,-1,248.42,273.46)"><tspan id="tspan302" y="0" x="0 3.528044">5%</tspan></text>
</g>
    </g>
    <g id="g304">
      <g clip-path="url(#clipPath308)" id="g306"><text id="text312" style="font-variant:normal;font-weight:normal;font-size:7.17600012px;font-family:'Roboto Condensed';-inkscape-font-specification:RobotoCondensed-Regular;writing-mode:lr-tb;fill:#000000;fill-opacity:1;fill-rule:nonzero;stroke:none" transform="matrix(1,0,0,-1,302.95,273.46)"><tspan id="tspan314" y="0" x="0 3.528044 7.056088">10%</tspan></text>
</g>
    </g>
    <g id="g316">
      <g clip-path="url(#clipPath320)" id="g318"><text id="text324" style="font-variant:normal;font-weight:normal;font-size:7.17600012px;font-family:'Roboto Condensed';-inkscape-font-specification:RobotoCondensed-Regular;writing-mode:lr-tb;fill:#000000;fill-opacity:1;fill-rule:nonzero;stroke:none" transform="matrix(1,0,0,-1,359.26,273.46)"><tspan id="tspan326" y="0" x="0 3.528044 7.056088">15%</tspan></text>
</g>
    </g>
    <g id="g328">
      <g clip-path="url(#clipPath332)" id="g330"><text id="text336" style="font-variant:normal;font-weight:normal;font-size:7.17600012px;font-family:'Roboto Condensed';-inkscape-font-specification:RobotoCondensed-Regular;writing-mode:lr-tb;fill:#000000;fill-opacity:1;fill-rule:nonzero;stroke:none" transform="matrix(1,0,0,-1,415.54,273.46)"><tspan id="tspan338" y="0" x="0 3.5520041 7.1040082">20%</tspan></text>
</g>
    </g>
    <g id="g340">
      <g clip-path="url(#clipPath344)" id="g342"><text id="text348" style="font-variant:normal;font-weight:normal;font-size:7.17600012px;font-family:'Roboto Condensed';-inkscape-font-specification:RobotoCondensed-Regular;writing-mode:lr-tb;fill:#000000;fill-opacity:1;fill-rule:nonzero;stroke:none" transform="matrix(1,0,0,-1,471.84,273.46)"><tspan id="tspan350" y="0" x="0 3.528044 7.056088">25%</tspan></text>
</g>
    </g>
    <g id="g352">
      <g clip-path="url(#clipPath356)" id="g354"><text id="text360" style="font-variant:normal;font-weight:normal;font-size:7.17600012px;font-family:'Roboto Condensed';-inkscape-font-specification:RobotoCondensed-Regular;writing-mode:lr-tb;fill:#000000;fill-opacity:1;fill-rule:nonzero;stroke:none" transform="matrix(1,0,0,-1,528.14,273.46)"><tspan id="tspan362" y="0" x="0 3.528044 7.056088">30%</tspan></text>
</g>
    </g>
    <g id="g364">
      <g clip-path="url(#clipPath368)" id="g366"><text id="text372" style="font-variant:normal;font-weight:normal;font-size:7.15199995px;font-family:'Roboto Condensed';-inkscape-font-specification:RobotoCondensed-Regular;writing-mode:lr-tb;fill:#000000;fill-opacity:1;fill-rule:nonzero;stroke:none" transform="matrix(1,0,0,-1,97.224,294.14)"><tspan id="tspan374" y="0" x="0 3.425808 6.8516159 10.098624 13.324176 14.961984 18.552288 20.840927 22.450129 25.797264 29.215919 32.834831 36.267792 39.793728 43.248142 44.835888 48.161568 50.24995 53.775887 55.950096 59.375904 62.90184 66.248978 67.865326 70.125359 73.572624 76.898308 78.507507 80.116707 81.725906 83.814285 85.509315 88.856445">Lack of enough storage facilities</tspan></text>
</g>
    </g>
    <g id="g376">
      <g clip-path="url(#clipPath380)" id="g378"><text id="text384" style="font-variant:normal;font-weight:normal;font-size:7.15199995px;font-family:'Roboto Condensed';-inkscape-font-specification:RobotoCondensed-Regular;writing-mode:lr-tb;fill:#000000;fill-opacity:1;fill-rule:nonzero;stroke:none" transform="matrix(1,0,0,-1,133.97,317.18)"><tspan id="tspan386" y="0" x="0 3.43296 5.04216 8.5609436 11.893776 15.41256 18.652416 20.347441 23.780399 27.306335 29.959728 33.213886 36.639694 39.901009 43.319664 45.579697 47.217503 50.822113">Financing/cashflow</tspan></text>
</g>
    </g>
    <g id="g388">
      <g clip-path="url(#clipPath392)" id="g390"><text id="text396" style="font-variant:normal;font-weight:normal;font-size:7.15199995px;font-family:'Roboto Condensed';-inkscape-font-specification:RobotoCondensed-Regular;writing-mode:lr-tb;fill:#000000;fill-opacity:1;fill-rule:nonzero;stroke:none" transform="matrix(1,0,0,-1,92.472,340.22)"><tspan id="tspan398" y="0" x="0 3.7977121 7.1448479 8.7612 10.3704 13.796208 17.23632 20.562 23.909136 25.504032 29.122944 32.555904 34.250927 38.256046 41.689007 43.298206 46.816994 50.164127 53.389679 56.736816 58.331711 61.593025 65.090355 68.616287 72.142227 73.751427 76.7052 78.3144 81.640083 85.073036 88.498848 90.115196 93.548157">Reliance on Chinese supply chains</tspan></text>
</g>
    </g>
    <g id="g400">
      <g clip-path="url(#clipPath404)" id="g402"><text id="text408" style="font-variant:normal;font-weight:normal;font-size:7.15199995px;font-family:'Roboto Condensed';-inkscape-font-specification:RobotoCondensed-Regular;writing-mode:lr-tb;fill:#000000;fill-opacity:1;fill-rule:nonzero;stroke:none" transform="matrix(1,0,0,-1,75.912,363.26)"><tspan id="tspan410" y="0" x="0 3.425808 6.8516159 10.377552 13.91064 17.343599 19.517809 21.155617 24.753073 26.362272 29.623585 31.797792 35.21645 38.742386 40.852222 42.439968 46.05888 49.49184 51.186863 53.368225 56.715359 58.596336 62.122272 64.00325 65.641052 67.243103 70.676064 74.294975 77.727936 80.98925 83.056175 85.230385 86.868195 90.293999 91.888893 93.498093 96.923904 100.25674 102.34512 103.95432 107.57323 111.0062">Labour disruption (e.g. industrial action)</tspan></text>
</g>
    </g>
    <g id="g412">
      <g clip-path="url(#clipPath416)" id="g414"><text id="text420" style="font-variant:normal;font-weight:normal;font-size:7.15199995px;font-family:'Roboto Condensed';-inkscape-font-specification:RobotoCondensed-Regular;writing-mode:lr-tb;fill:#000000;fill-opacity:1;fill-rule:nonzero;stroke:none" transform="matrix(1,0,0,-1,77.472,386.3)"><tspan id="tspan422" y="0" x="0 3.425808 6.772944 10.29888 13.724688 15.362496 17.000303 20.883841 22.521648 24.731615 28.078753 31.604689 35.030495 36.668304 40.094112 42.203953 45.822865 48.025681 50.979458 52.617264 55.942944 59.375904 62.801712 64.439522 66.077332 69.424461 72.928947 76.45488 79.802017 83.034721 84.672531 87.32592 88.96373 91.166542 94.51368 98.032463 99.670273 101.86594 105.29174 108.81768">Legal &amp; regulatory challenges / red tape</tspan></text>
</g>
    </g>
    <g id="g424">
      <g clip-path="url(#clipPath428)" id="g426"><text id="text432" style="font-variant:normal;font-weight:normal;font-size:7.15199995px;font-family:'Roboto Condensed';-inkscape-font-specification:RobotoCondensed-Regular;writing-mode:lr-tb;fill:#000000;fill-opacity:1;fill-rule:nonzero;stroke:none" transform="matrix(1,0,0,-1,126.65,409.34)"><tspan id="tspan434" y="0" x="0 1.816608 5.2781758 7.3880162 10.735152 12.94512 15.147936 18.602352 22.149744 24.259584 25.983215 29.53776 33.085152 36.346462 37.984272 39.622082 43.083649 44.792976 48.054287 51.508705 55.056095 58.603489 60.241295">Interruptions in supply</tspan></text>
</g>
    </g>
    <g id="g436">
      <g clip-path="url(#clipPath440)" id="g438"><text id="text444" style="font-variant:normal;font-weight:normal;font-size:7.15199995px;font-family:'Roboto Condensed';-inkscape-font-specification:RobotoCondensed-Regular;writing-mode:lr-tb;fill:#000000;fill-opacity:1;fill-rule:nonzero;stroke:none" transform="matrix(1,0,0,-1,96.096,432.38)"><tspan id="tspan446" y="0" x="0 4.1195521 6.1936321 8.3678398 11.700672 15.026352 18.251904 21.513216 23.115265 26.734177 30.167135 31.776337 35.102016 38.534977 40.144176 43.670113 47.196049 48.805248 52.238209 55.764145 57.373344 59.068367 62.501328 64.110527 67.336082 70.683212 73.636993 75.246193 77.420403 81.046463 84.479424 86.56781 89.914948">Attacks on shipping in key routes</tspan></text>
</g>
    </g>
    <g id="g448">
      <g clip-path="url(#clipPath452)" id="g450"><text id="text456" style="font-variant:normal;font-weight:normal;font-size:7.17600012px;font-family:'Roboto Condensed';-inkscape-font-specification:RobotoCondensed-Regular;writing-mode:lr-tb;fill:#000000;fill-opacity:1;fill-rule:nonzero;stroke:none" transform="matrix(1,0,0,-1,66.024,455.42)"><tspan id="tspan458" y="0" x="0 4.097496 7.628088 13.045968 16.583736 18.183985 21.520824 24.671087 26.271336 30.167904 31.811209 33.99271 37.308025 40.551575 42.639793 44.821297 46.428719 49.744034 51.86095 53.461201 56.511002 59.847839 61.541374 64.87822 68.193527 71.831757 75.261887 76.869308 80.112862 81.720291 83.894615 85.502037 89.032631 92.556046 94.163475 97.701241 99.882744 103.40616 106.72147 110.07984 113.31622 116.55977 119.98272">Complex &amp; restrictive acquisition processes</tspan></text>
</g>
    </g>
    <g id="g460">
      <g clip-path="url(#clipPath464)" id="g462"><text id="text468" style="font-variant:normal;font-weight:normal;font-size:7.17600012px;font-family:'Roboto Condensed';-inkscape-font-specification:RobotoCondensed-Regular;writing-mode:lr-tb;fill:#000000;fill-opacity:1;fill-rule:nonzero;stroke:none" transform="matrix(1,0,0,-1,98.184,478.46)"><tspan id="tspan470" y="0" x="0 3.530592 5.1380162 8.5609684 11.80452 13.892736 16.07424 19.690945 23.121073 24.728497 28.043808 29.687113 33.002422 36.533016 41.950897 45.488663 49.004906 52.52832 55.865162 59.295288 61.383503 63.077042 66.320595 69.750717 73.367424 75.455643 77.629967 80.966805 84.504578 87.920349">Electronic component shortages</tspan></text>
</g>
    </g>
    <g id="g472">
      <g clip-path="url(#clipPath476)" id="g474"><text id="text480" style="font-variant:normal;font-weight:normal;font-size:7.15199995px;font-family:'Roboto Condensed';-inkscape-font-specification:RobotoCondensed-Regular;writing-mode:lr-tb;fill:#000000;fill-opacity:1;fill-rule:nonzero;stroke:none" transform="matrix(1,0,0,-1,117.31,501.48)"><tspan id="tspan482" y="0" x="0 3.704736 7.159152 10.770912 12.94512 15.05496 18.480768 22.006704 25.35384 26.948736 30.567648 32.749008 34.444031 37.705345 40.830769 42.525791 44.134991 45.74419 49.091328 52.610111 54.219311 55.914337 59.340145 62.866081 66.39917 69.83213">Shortage of skilled labour</tspan></text>
</g>
    </g>
    <path id="path484" style="fill:#ffffff;fill-opacity:1;fill-rule:evenodd;stroke:none" d="m 249.39,517.77 97.921,0 0,13.083 -97.921,0 0,-13.083 z"/>
    <path id="path486" style="fill:#eadfbc;fill-opacity:1;fill-rule:evenodd;stroke:none" d="m 259.21,522.38 3.8649,0 0,3.8649 -3.8649,0 0,-3.8649 z"/>
    <g id="g488">
      <g clip-path="url(#clipPath492)" id="g490"><text id="text496" style="font-variant:normal;font-weight:normal;font-size:7.15199995px;font-family:'Roboto Condensed';-inkscape-font-specification:RobotoCondensed-Regular;writing-mode:lr-tb;fill:#000000;fill-opacity:1;fill-rule:nonzero;stroke:none" transform="matrix(1,0,0,-1,264.77,522.14)"><tspan id="tspan498" y="0" x="0 3.533088 5.1351361 8.9471521 12.294288 15.720096 17.801329 21.127008 22.371456 23.980656 27.706848 29.308895 34.658592">2 Years' Time</tspan></text>
</g>
    </g>
    <path id="path500" style="fill:#005aa4;fill-opacity:1;fill-rule:evenodd;stroke:none" d="m 314.01,522.38 3.8649,0 0,3.8649 -3.8649,0 0,-3.8649 z"/>
    <g id="g502">
      <g clip-path="url(#clipPath506)" id="g504"><text id="text510" style="font-variant:normal;font-weight:normal;font-size:7.15199995px;font-family:'Roboto Condensed';-inkscape-font-specification:RobotoCondensed-Regular;writing-mode:lr-tb;fill:#000000;fill-opacity:1;fill-rule:nonzero;stroke:none" transform="matrix(1,0,0,-1,319.56,522.14)"><tspan id="tspan512" y="0" x="0 4.0980959 7.5525122 9.7553282 11.865168 15.312432 18.774">Current</tspan></text>
</g>
    </g>
    <path id="path514" style="fill:#000000;fill-opacity:1;fill-rule:nonzero;stroke:none" d="m 59.295,516.01 c 0,0.22 0.178,0.4 0.398,0.4 l 473.727,0 c 0.22,0 0.4,-0.18 0.4,-0.4 l 0,-24.54 c 0,-0.22 -0.18,-0.39 -0.4,-0.39 l -473.727,0 c -0.22,0 -0.398,0.17 -0.398,0.39 l 0,24.54 z m 0.478,-24.46 473.567,0 0,24.38 -473.567,0 0,-24.38 z m 0.159,24.22 473.248,0 0,-24.06 -473.248,0 0,24.06 z m 0.159,-23.9 472.929,0 0,23.75 -472.929,0 0,-23.75 z"/>
  </g>
</svg>
