<?xml version="1.0" encoding="UTF-8" standalone="no"?>
<svg xmlns:dc="http://purl.org/dc/elements/1.1/" xmlns:cc="http://creativecommons.org/ns#" xmlns:rdf="http://www.w3.org/1999/02/22-rdf-syntax-ns#" xmlns:svg="http://www.w3.org/2000/svg" xmlns="http://www.w3.org/2000/svg" viewBox="66.31625 395.3 650.6875 370.775" height="370.775" width="650.6875" xml:space="preserve" version="1.1" id="svg2">
  <metadata id="metadata8">
    <rdf:RDF>
      <cc:Work rdf:about="">
        <dc:format>image/svg+xml</dc:format>
        <dc:type rdf:resource="http://purl.org/dc/dcmitype/StillImage"/>
      </cc:Work>
    </rdf:RDF>
  </metadata>
  <defs id="defs6">
    <clipPath id="clipPath16" clipPathUnits="userSpaceOnUse">
      <path style="clip-rule:evenodd" id="path18" d="m 53.053,273.35 520.55,0 0,296.72 -520.55,0 0,-296.72 z"/>
    </clipPath>
    <clipPath id="clipPath26" clipPathUnits="userSpaceOnUse">
      <path style="clip-rule:evenodd" id="path28" d="m 53.053,273.35 520.55,0 0,296.72 -520.55,0 0,-296.72 z"/>
    </clipPath>
    <clipPath id="clipPath46" clipPathUnits="userSpaceOnUse">
      <path style="clip-rule:evenodd" id="path48" d="m 53.179,273.47 520.42,0 0,296.46 -520.42,0 0,-296.46 z"/>
    </clipPath>
    <clipPath id="clipPath58" clipPathUnits="userSpaceOnUse">
      <path style="clip-rule:evenodd" id="path60" d="m 53.179,273.47 520.42,0 0,296.46 -520.42,0 0,-296.46 z"/>
    </clipPath>
    <clipPath id="clipPath70" clipPathUnits="userSpaceOnUse">
      <path style="clip-rule:evenodd" id="path72" d="m 53.179,273.47 520.42,0 0,296.46 -520.42,0 0,-296.46 z"/>
    </clipPath>
    <clipPath id="clipPath82" clipPathUnits="userSpaceOnUse">
      <path style="clip-rule:evenodd" id="path84" d="m 53.179,273.47 520.42,0 0,296.46 -520.42,0 0,-296.46 z"/>
    </clipPath>
    <clipPath id="clipPath94" clipPathUnits="userSpaceOnUse">
      <path style="clip-rule:evenodd" id="path96" d="m 53.179,273.47 520.42,0 0,296.46 -520.42,0 0,-296.46 z"/>
    </clipPath>
    <clipPath id="clipPath106" clipPathUnits="userSpaceOnUse">
      <path style="clip-rule:evenodd" id="path108" d="m 53.179,273.47 520.42,0 0,296.46 -520.42,0 0,-296.46 z"/>
    </clipPath>
    <clipPath id="clipPath118" clipPathUnits="userSpaceOnUse">
      <path style="clip-rule:evenodd" id="path120" d="m 53.179,273.47 520.42,0 0,296.46 -520.42,0 0,-296.46 z"/>
    </clipPath>
    <clipPath id="clipPath130" clipPathUnits="userSpaceOnUse">
      <path style="clip-rule:evenodd" id="path132" d="m 53.179,273.47 520.42,0 0,296.46 -520.42,0 0,-296.46 z"/>
    </clipPath>
    <clipPath id="clipPath142" clipPathUnits="userSpaceOnUse">
      <path style="clip-rule:evenodd" id="path144" d="m 53.179,273.47 520.42,0 0,296.46 -520.42,0 0,-296.46 z"/>
    </clipPath>
    <clipPath id="clipPath154" clipPathUnits="userSpaceOnUse">
      <path style="clip-rule:evenodd" id="path156" d="m 53.179,273.47 520.42,0 0,296.46 -520.42,0 0,-296.46 z"/>
    </clipPath>
    <clipPath id="clipPath166" clipPathUnits="userSpaceOnUse">
      <path style="clip-rule:evenodd" id="path168" d="m 53.179,273.47 520.42,0 0,296.46 -520.42,0 0,-296.46 z"/>
    </clipPath>
    <clipPath id="clipPath178" clipPathUnits="userSpaceOnUse">
      <path style="clip-rule:evenodd" id="path180" d="m 53.179,273.47 520.42,0 0,296.46 -520.42,0 0,-296.46 z"/>
    </clipPath>
    <clipPath id="clipPath190" clipPathUnits="userSpaceOnUse">
      <path style="clip-rule:evenodd" id="path192" d="m 53.179,273.47 520.42,0 0,296.46 -520.42,0 0,-296.46 z"/>
    </clipPath>
    <clipPath id="clipPath202" clipPathUnits="userSpaceOnUse">
      <path style="clip-rule:evenodd" id="path204" d="m 53.179,273.47 520.42,0 0,296.46 -520.42,0 0,-296.46 z"/>
    </clipPath>
    <clipPath id="clipPath214" clipPathUnits="userSpaceOnUse">
      <path style="clip-rule:evenodd" id="path216" d="m 53.179,273.47 520.42,0 0,296.46 -520.42,0 0,-296.46 z"/>
    </clipPath>
    <clipPath id="clipPath226" clipPathUnits="userSpaceOnUse">
      <path style="clip-rule:evenodd" id="path228" d="m 53.179,273.47 520.42,0 0,296.46 -520.42,0 0,-296.46 z"/>
    </clipPath>
    <clipPath id="clipPath238" clipPathUnits="userSpaceOnUse">
      <path style="clip-rule:evenodd" id="path240" d="m 53.179,273.47 520.42,0 0,296.46 -520.42,0 0,-296.46 z"/>
    </clipPath>
    <clipPath id="clipPath250" clipPathUnits="userSpaceOnUse">
      <path style="clip-rule:evenodd" id="path252" d="m 53.179,273.47 520.42,0 0,296.46 -520.42,0 0,-296.46 z"/>
    </clipPath>
    <clipPath id="clipPath262" clipPathUnits="userSpaceOnUse">
      <path style="clip-rule:evenodd" id="path264" d="m 53.179,273.47 520.42,0 0,296.46 -520.42,0 0,-296.46 z"/>
    </clipPath>
    <clipPath id="clipPath274" clipPathUnits="userSpaceOnUse">
      <path style="clip-rule:evenodd" id="path276" d="m 53.179,273.47 520.42,0 0,296.46 -520.42,0 0,-296.46 z"/>
    </clipPath>
    <clipPath id="clipPath286" clipPathUnits="userSpaceOnUse">
      <path style="clip-rule:evenodd" id="path288" d="m 53.179,273.47 520.42,0 0,296.46 -520.42,0 0,-296.46 z"/>
    </clipPath>
    <clipPath id="clipPath298" clipPathUnits="userSpaceOnUse">
      <path style="clip-rule:evenodd" id="path300" d="m 53.179,273.47 520.42,0 0,296.46 -520.42,0 0,-296.46 z"/>
    </clipPath>
    <clipPath id="clipPath310" clipPathUnits="userSpaceOnUse">
      <path style="clip-rule:evenodd" id="path312" d="m 53.179,273.47 520.42,0 0,296.46 -520.42,0 0,-296.46 z"/>
    </clipPath>
    <clipPath id="clipPath322" clipPathUnits="userSpaceOnUse">
      <path style="clip-rule:evenodd" id="path324" d="m 53.179,273.47 520.42,0 0,296.46 -520.42,0 0,-296.46 z"/>
    </clipPath>
    <clipPath id="clipPath334" clipPathUnits="userSpaceOnUse">
      <path style="clip-rule:evenodd" id="path336" d="m 53.179,273.47 520.42,0 0,296.46 -520.42,0 0,-296.46 z"/>
    </clipPath>
    <clipPath id="clipPath346" clipPathUnits="userSpaceOnUse">
      <path style="clip-rule:evenodd" id="path348" d="m 53.179,273.47 520.42,0 0,296.46 -520.42,0 0,-296.46 z"/>
    </clipPath>
    <clipPath id="clipPath358" clipPathUnits="userSpaceOnUse">
      <path style="clip-rule:evenodd" id="path360" d="m 53.179,273.47 520.42,0 0,296.46 -520.42,0 0,-296.46 z"/>
    </clipPath>
    <clipPath id="clipPath370" clipPathUnits="userSpaceOnUse">
      <path style="clip-rule:evenodd" id="path372" d="m 53.179,273.47 520.42,0 0,296.46 -520.42,0 0,-296.46 z"/>
    </clipPath>
    <clipPath id="clipPath382" clipPathUnits="userSpaceOnUse">
      <path style="clip-rule:evenodd" id="path384" d="m 53.179,273.47 520.42,0 0,296.46 -520.42,0 0,-296.46 z"/>
    </clipPath>
    <clipPath id="clipPath394" clipPathUnits="userSpaceOnUse">
      <path style="clip-rule:evenodd" id="path396" d="m 53.179,273.47 520.42,0 0,296.46 -520.42,0 0,-296.46 z"/>
    </clipPath>
    <clipPath id="clipPath406" clipPathUnits="userSpaceOnUse">
      <path style="clip-rule:evenodd" id="path408" d="m 53.179,273.47 520.42,0 0,296.46 -520.42,0 0,-296.46 z"/>
    </clipPath>
    <clipPath id="clipPath418" clipPathUnits="userSpaceOnUse">
      <path style="clip-rule:evenodd" id="path420" d="m 53.179,273.47 520.42,0 0,296.46 -520.42,0 0,-296.46 z"/>
    </clipPath>
    <clipPath id="clipPath434" clipPathUnits="userSpaceOnUse">
      <path style="clip-rule:evenodd" id="path436" d="m 53.179,273.47 520.42,0 0,296.46 -520.42,0 0,-296.46 z"/>
    </clipPath>
    <clipPath id="clipPath448" clipPathUnits="userSpaceOnUse">
      <path style="clip-rule:evenodd" id="path450" d="m 53.179,273.47 520.42,0 0,296.46 -520.42,0 0,-296.46 z"/>
    </clipPath>
    <clipPath id="clipPath462" clipPathUnits="userSpaceOnUse">
      <path style="clip-rule:evenodd" id="path464" d="m 53.179,273.47 520.42,0 0,296.46 -520.42,0 0,-296.46 z"/>
    </clipPath>
    <clipPath id="clipPath476" clipPathUnits="userSpaceOnUse">
      <path style="clip-rule:evenodd" id="path478" d="m 53.179,273.47 520.42,0 0,296.46 -520.42,0 0,-296.46 z"/>
    </clipPath>
    <clipPath id="clipPath490" clipPathUnits="userSpaceOnUse">
      <path style="clip-rule:evenodd" id="path492" d="m 53.179,273.35 520.42,0 0,296.59 -520.42,0 0,-296.59 z"/>
    </clipPath>
    <clipPath id="clipPath502" clipPathUnits="userSpaceOnUse">
      <path style="clip-rule:evenodd" id="path504" d="m 53.179,273.35 520.42,0 0,296.59 -520.42,0 0,-296.59 z"/>
    </clipPath>
  </defs>
  <g transform="matrix(1.25,0,0,-1.25,0,1107.7875)" id="g10">
    <g id="g12">
      <g clip-path="url(#clipPath16)" id="g14">
        <path id="path20" style="fill:none;stroke:#000000;stroke-width:0.14;stroke-linecap:butt;stroke-linejoin:miter;stroke-miterlimit:10;stroke-dasharray:none;stroke-opacity:0" d="m 53.082,273.44 520.53,0 0,296.48 -520.53,0 0,-296.48 z"/>
      </g>
    </g>
    <g id="g22">
      <g clip-path="url(#clipPath26)" id="g24">
        <path id="path30" style="fill:#ffffff;fill-opacity:1;fill-rule:evenodd;stroke:none" d="m 53.082,273.44 520.53,0 0,296.48 -520.53,0 0,-296.48 z"/>
      </g>
    </g>
    <path id="path32" style="fill:none;stroke:#808080;stroke-width:1.73090005;stroke-linecap:round;stroke-linejoin:round;stroke-miterlimit:10;stroke-dasharray:none;stroke-opacity:1" d="m 108.47,325.82 452.06,0"/>
    <path id="path34" style="fill:none;stroke:#005aa4;stroke-width:2.07710004;stroke-linecap:round;stroke-linejoin:round;stroke-miterlimit:10;stroke-dasharray:none;stroke-opacity:1" d="m 112.17,326.02 7.44,0.11 7.35,0 7.52,0 7.35,-0.18 7.34,0.18 7.52,0 7.35,0 7.34,0 7.52,0 7.35,0 7.52,0.17 7.34,-0.17 7.35,0.17 7.52,0 7.34,0.18 7.35,0 7.52,0 7.35,0 7.52,0 7.34,0 7.35,0 7.52,0 7.34,0 7.35,0.17 7.52,0.18 7.34,-0.18 7.52,0 7.35,0.18 7.35,0.17 7.52,0 7.34,0.18 7.35,0.35 7.52,0.17 7.34,0 7.52,0.18 7.35,0.17 7.34,0.18 7.52,0.35 7.35,0.35 7.35,0.52 7.52,0.53 7.34,0.87 7.52,1.4 7.35,1.75 7.34,0.87 7.52,1.58 7.35,2.45 7.34,1.75 7.52,1.74 7.35,1.4 7.52,0.7 7.35,0.35 7.34,1.75 7.52,2.63 7.35,0.52 7.34,0.52 7.52,5.25 7.35,0.18 7.34,0.87 7.5,0.79"/>
    <path id="path36" style="fill:none;stroke:#eadfbc;stroke-width:2.07710004;stroke-linecap:round;stroke-linejoin:round;stroke-miterlimit:10;stroke-dasharray:none;stroke-opacity:1" d="m 112.17,327.85 7.44,0.2 7.35,0.35 7.52,0.53 7.35,0.52 7.34,0.53 7.52,0.35 7.35,0.7 7.34,1.4 7.52,2.09 7.35,1.93 7.52,1.75 7.34,0.52 7.35,1.4 7.52,3.5 7.34,4.9 7.35,3.32 7.52,0.7 7.35,-1.4 7.52,-0.7 7.34,0.52 7.35,2.63 7.52,5.59 7.34,10.15 7.35,16.09 7.52,5.42 7.34,2.27 7.52,1.58 7.35,4.54 7.35,7.35 7.52,8.39 7.34,12.25 7.35,2.62 7.52,-7.52 7.34,-13.64 7.52,-1.58 7.35,5.95 7.34,1.23 7.52,-4.73 7.35,0.7 7.35,7.87 7.52,5.42 7.34,-1.57 7.52,-2.97 7.35,0.17 7.34,-0.52 7.52,11.19 7.35,8.4 7.34,6.14 7.52,-2.82 7.35,-10.5 7.52,-11.89 7.35,-2.27 7.34,1.05 7.52,6.82 7.35,0.52 7.34,-2.45 7.52,6.48 7.35,-2.45 7.34,-7.87 7.5,-7.87"/>
    <path id="path38" style="fill:none;stroke:#226b5a;stroke-width:2.07710004;stroke-linecap:round;stroke-linejoin:round;stroke-miterlimit:10;stroke-dasharray:none;stroke-opacity:1" d="m 112.17,334.34 7.44,0.71 7.35,0.7 7.52,0.35 7.35,0.87 7.34,0.88 7.52,0.52 7.35,0.88 7.34,1.57 7.52,2.27 7.35,1.75 7.52,1.23 7.34,1.22 7.35,1.4 7.52,2.8 7.34,3.67 7.35,2.8 7.52,2.27 7.35,-0.7 7.52,1.4 7.34,3.68 7.35,3.14 7.52,4.2 7.34,5.07 7.35,4.55 7.52,1.22 7.34,0.88 7.52,0.52 7.35,3.5 7.35,2.1 7.52,2.8 7.34,2.8 7.35,2.62 7.52,1.92 7.34,1.23 7.52,4.2 7.35,4.89 7.34,1.58 7.52,1.75 7.35,6.29 7.35,8.75 7.52,6.12 7.34,2.8 7.52,3.32 7.35,2.8 7.34,-2.8 7.52,1.92 7.35,2.8 7.34,3.67 7.52,3.68 7.35,3.32 7.52,2.27 7.35,2.28 7.34,4.89 7.52,9.97 7.35,6.47 7.34,-2.45 7.52,15.4 7.35,13.29 7.34,8.57 7.5,7.03"/>
    <path id="path40" style="fill:none;stroke:#8cd5f2;stroke-width:2.07710004;stroke-linecap:round;stroke-linejoin:round;stroke-miterlimit:10;stroke-dasharray:none;stroke-opacity:1" d="m 112.17,329.46 7.44,0.34 7.35,0.35 7.52,0.18 7.35,0.35 7.34,0.52 7.52,0.35 7.35,0.53 7.34,0.87 7.52,1.57 7.35,1.58 7.52,1.22 7.34,0.88 7.35,0.87 7.52,1.75 7.34,3.15 7.35,2.8 7.52,0.87 7.35,-1.22 7.52,-0.7 7.34,0.7 7.35,0.87 7.52,2.8 7.34,4.72 7.35,6.12 7.52,2.1 7.34,1.75 7.52,1.4 7.35,3.32 7.35,1.23 7.52,2.1 7.34,2.97 7.35,2.27 7.52,0.35 7.34,-2.1 7.52,0.53 7.35,2.1 7.34,0 7.52,-0.18 7.35,4.37 7.35,8.4 7.52,6.82 7.34,3.67 7.52,4.03 7.35,4.37 7.34,-1.4 7.52,2.45 7.35,2.97 7.34,2.97 7.52,2.45 7.35,0.18 7.52,-3.33 7.35,-2.09 7.34,0.52 7.52,6.47 7.35,3.85 7.34,-3.5 7.52,9.97 7.35,6.82 7.34,2.45 7.5,1.38"/>
    <g id="g42">
      <g clip-path="url(#clipPath46)" id="g44"><text id="text50" style="font-variant:normal;font-weight:normal;font-size:12.42099953px;font-family:'Roboto Condensed';-inkscape-font-specification:RobotoCondensed-Regular;writing-mode:lr-tb;fill:#000000;fill-opacity:1;fill-rule:nonzero;stroke:none" transform="matrix(1,0,0,-1,90.905,321.96)"><tspan id="tspan52" y="0" x="0">0</tspan></text>
</g>
    </g>
    <g id="g54">
      <g clip-path="url(#clipPath58)" id="g56"><text id="text62" style="font-variant:normal;font-weight:normal;font-size:12.42099953px;font-family:'Roboto Condensed';-inkscape-font-specification:RobotoCondensed-Regular;writing-mode:lr-tb;fill:#000000;fill-opacity:1;fill-rule:nonzero;stroke:none" transform="matrix(1,0,0,-1,66.274,345.64)"><tspan id="tspan64" y="0" x="0 6.1359739 12.271948 18.532131 24.668106">10000</tspan></text>
</g>
    </g>
    <g id="g66">
      <g clip-path="url(#clipPath70)" id="g68"><text id="text74" style="font-variant:normal;font-weight:normal;font-size:12.42099953px;font-family:'Roboto Condensed';-inkscape-font-specification:RobotoCondensed-Regular;writing-mode:lr-tb;fill:#000000;fill-opacity:1;fill-rule:nonzero;stroke:none" transform="matrix(1,0,0,-1,66.274,369.33)"><tspan id="tspan76" y="0" x="0 6.1359739 12.271948 18.532131 24.668106">20000</tspan></text>
</g>
    </g>
    <g id="g78">
      <g clip-path="url(#clipPath82)" id="g80"><text id="text86" style="font-variant:normal;font-weight:normal;font-size:12.42099953px;font-family:'Roboto Condensed';-inkscape-font-specification:RobotoCondensed-Regular;writing-mode:lr-tb;fill:#000000;fill-opacity:1;fill-rule:nonzero;stroke:none" transform="matrix(1,0,0,-1,66.274,393.01)"><tspan id="tspan88" y="0" x="0 6.1359739 12.271948 18.532131 24.668106">30000</tspan></text>
</g>
    </g>
    <g id="g90">
      <g clip-path="url(#clipPath94)" id="g92"><text id="text98" style="font-variant:normal;font-weight:normal;font-size:12.42099953px;font-family:'Roboto Condensed';-inkscape-font-specification:RobotoCondensed-Regular;writing-mode:lr-tb;fill:#000000;fill-opacity:1;fill-rule:nonzero;stroke:none" transform="matrix(1,0,0,-1,66.274,416.69)"><tspan id="tspan100" y="0" x="0 6.1359739 12.271948 18.532131 24.668106">40000</tspan></text>
</g>
    </g>
    <g id="g102">
      <g clip-path="url(#clipPath106)" id="g104"><text id="text110" style="font-variant:normal;font-weight:normal;font-size:12.42099953px;font-family:'Roboto Condensed';-inkscape-font-specification:RobotoCondensed-Regular;writing-mode:lr-tb;fill:#000000;fill-opacity:1;fill-rule:nonzero;stroke:none" transform="matrix(1,0,0,-1,66.274,440.4)"><tspan id="tspan112" y="0" x="0 6.1359739 12.271948 18.532131 24.668106">50000</tspan></text>
</g>
    </g>
    <g id="g114">
      <g clip-path="url(#clipPath118)" id="g116"><text id="text122" style="font-variant:normal;font-weight:normal;font-size:12.42099953px;font-family:'Roboto Condensed';-inkscape-font-specification:RobotoCondensed-Regular;writing-mode:lr-tb;fill:#000000;fill-opacity:1;fill-rule:nonzero;stroke:none" transform="matrix(1,0,0,-1,66.274,464.08)"><tspan id="tspan124" y="0" x="0 6.1359739 12.271948 18.532131 24.668106">60000</tspan></text>
</g>
    </g>
    <g id="g126">
      <g clip-path="url(#clipPath130)" id="g128"><text id="text134" style="font-variant:normal;font-weight:normal;font-size:12.42099953px;font-family:'Roboto Condensed';-inkscape-font-specification:RobotoCondensed-Regular;writing-mode:lr-tb;fill:#000000;fill-opacity:1;fill-rule:nonzero;stroke:none" transform="matrix(1,0,0,-1,66.274,487.77)"><tspan id="tspan136" y="0" x="0 6.1359739 12.271948 18.532131 24.668106">70000</tspan></text>
</g>
    </g>
    <g id="g138">
      <g clip-path="url(#clipPath142)" id="g140"><text id="text146" style="font-variant:normal;font-weight:normal;font-size:12.42099953px;font-family:'Roboto Condensed';-inkscape-font-specification:RobotoCondensed-Regular;writing-mode:lr-tb;fill:#000000;fill-opacity:1;fill-rule:nonzero;stroke:none" transform="matrix(1,0,0,-1,66.274,511.45)"><tspan id="tspan148" y="0" x="0 6.1359739 12.271948 18.532131 24.668106">80000</tspan></text>
</g>
    </g>
    <g id="g150">
      <g clip-path="url(#clipPath154)" id="g152"><text id="text158" style="font-variant:normal;font-weight:normal;font-size:12.42099953px;font-family:'Roboto Condensed';-inkscape-font-specification:RobotoCondensed-Regular;writing-mode:lr-tb;fill:#000000;fill-opacity:1;fill-rule:nonzero;stroke:none" transform="matrix(1,0,0,-1,66.274,535.14)"><tspan id="tspan160" y="0" x="0 6.1359739 12.271948 18.532131 24.668106">90000</tspan></text>
</g>
    </g>
    <g id="g162">
      <g clip-path="url(#clipPath166)" id="g164"><text id="text170" style="font-variant:normal;font-weight:normal;font-size:12.42099953px;font-family:'Roboto Condensed';-inkscape-font-specification:RobotoCondensed-Regular;writing-mode:lr-tb;fill:#000000;fill-opacity:1;fill-rule:nonzero;stroke:none" transform="matrix(-4.4e-8,1,1,4.4e-8,116.61,293.22)"><tspan id="tspan172" y="0" x="0 6.1359739 12.271948 18.532131">1964</tspan></text>
</g>
    </g>
    <g id="g174">
      <g clip-path="url(#clipPath178)" id="g176"><text id="text182" style="font-variant:normal;font-weight:normal;font-size:12.42099953px;font-family:'Roboto Condensed';-inkscape-font-specification:RobotoCondensed-Regular;writing-mode:lr-tb;fill:#000000;fill-opacity:1;fill-rule:nonzero;stroke:none" transform="matrix(-4.4e-8,1,1,4.4e-8,138.84,293.22)"><tspan id="tspan184" y="0" x="0 6.1359739 12.271948 18.532131">1967</tspan></text>
</g>
    </g>
    <g id="g186">
      <g clip-path="url(#clipPath190)" id="g188"><text id="text194" style="font-variant:normal;font-weight:normal;font-size:12.42099953px;font-family:'Roboto Condensed';-inkscape-font-specification:RobotoCondensed-Regular;writing-mode:lr-tb;fill:#000000;fill-opacity:1;fill-rule:nonzero;stroke:none" transform="matrix(-4.4e-8,1,1,4.4e-8,161.07,293.22)"><tspan id="tspan196" y="0" x="0 6.1359739 12.271948 18.532131">1970</tspan></text>
</g>
    </g>
    <g id="g198">
      <g clip-path="url(#clipPath202)" id="g200"><text id="text206" style="font-variant:normal;font-weight:normal;font-size:12.42099953px;font-family:'Roboto Condensed';-inkscape-font-specification:RobotoCondensed-Regular;writing-mode:lr-tb;fill:#000000;fill-opacity:1;fill-rule:nonzero;stroke:none" transform="matrix(-4.4e-8,1,1,4.4e-8,183.33,293.22)"><tspan id="tspan208" y="0" x="0 6.1359739 12.271948 18.532131">1973</tspan></text>
</g>
    </g>
    <g id="g210">
      <g clip-path="url(#clipPath214)" id="g212"><text id="text218" style="font-variant:normal;font-weight:normal;font-size:12.42099953px;font-family:'Roboto Condensed';-inkscape-font-specification:RobotoCondensed-Regular;writing-mode:lr-tb;fill:#000000;fill-opacity:1;fill-rule:nonzero;stroke:none" transform="matrix(-4.4e-8,1,1,4.4e-8,205.56,293.22)"><tspan id="tspan220" y="0" x="0 6.1359739 12.271948 18.532131">1976</tspan></text>
</g>
    </g>
    <g id="g222">
      <g clip-path="url(#clipPath226)" id="g224"><text id="text230" style="font-variant:normal;font-weight:normal;font-size:12.42099953px;font-family:'Roboto Condensed';-inkscape-font-specification:RobotoCondensed-Regular;writing-mode:lr-tb;fill:#000000;fill-opacity:1;fill-rule:nonzero;stroke:none" transform="matrix(-4.4e-8,1,1,4.4e-8,227.79,293.22)"><tspan id="tspan232" y="0" x="0 6.1359739 12.271948 18.532131">1979</tspan></text>
</g>
    </g>
    <g id="g234">
      <g clip-path="url(#clipPath238)" id="g236"><text id="text242" style="font-variant:normal;font-weight:normal;font-size:12.42099953px;font-family:'Roboto Condensed';-inkscape-font-specification:RobotoCondensed-Regular;writing-mode:lr-tb;fill:#000000;fill-opacity:1;fill-rule:nonzero;stroke:none" transform="matrix(-4.4e-8,1,1,4.4e-8,250.02,293.22)"><tspan id="tspan244" y="0" x="0 6.1359739 12.271948 18.532131">1982</tspan></text>
</g>
    </g>
    <g id="g246">
      <g clip-path="url(#clipPath250)" id="g248"><text id="text254" style="font-variant:normal;font-weight:normal;font-size:12.42099953px;font-family:'Roboto Condensed';-inkscape-font-specification:RobotoCondensed-Regular;writing-mode:lr-tb;fill:#000000;fill-opacity:1;fill-rule:nonzero;stroke:none" transform="matrix(-4.4e-8,1,1,4.4e-8,272.27,293.22)"><tspan id="tspan256" y="0" x="0 6.1359739 12.271948 18.532131">1985</tspan></text>
</g>
    </g>
    <g id="g258">
      <g clip-path="url(#clipPath262)" id="g260"><text id="text266" style="font-variant:normal;font-weight:normal;font-size:12.42099953px;font-family:'Roboto Condensed';-inkscape-font-specification:RobotoCondensed-Regular;writing-mode:lr-tb;fill:#000000;fill-opacity:1;fill-rule:nonzero;stroke:none" transform="matrix(-4.4e-8,1,1,4.4e-8,294.51,293.22)"><tspan id="tspan268" y="0" x="0 6.1359739 12.271948 18.532131">1988</tspan></text>
</g>
    </g>
    <g id="g270">
      <g clip-path="url(#clipPath274)" id="g272"><text id="text278" style="font-variant:normal;font-weight:normal;font-size:12.42099953px;font-family:'Roboto Condensed';-inkscape-font-specification:RobotoCondensed-Regular;writing-mode:lr-tb;fill:#000000;fill-opacity:1;fill-rule:nonzero;stroke:none" transform="matrix(-4.4e-8,1,1,4.4e-8,316.74,293.22)"><tspan id="tspan280" y="0" x="0 6.1359739 12.271948 18.532131">1991</tspan></text>
</g>
    </g>
    <g id="g282">
      <g clip-path="url(#clipPath286)" id="g284"><text id="text290" style="font-variant:normal;font-weight:normal;font-size:12.42099953px;font-family:'Roboto Condensed';-inkscape-font-specification:RobotoCondensed-Regular;writing-mode:lr-tb;fill:#000000;fill-opacity:1;fill-rule:nonzero;stroke:none" transform="matrix(-4.4e-8,1,1,4.4e-8,338.97,293.22)"><tspan id="tspan292" y="0" x="0 6.1359739 12.271948 18.532131">1994</tspan></text>
</g>
    </g>
    <g id="g294">
      <g clip-path="url(#clipPath298)" id="g296"><text id="text302" style="font-variant:normal;font-weight:normal;font-size:12.42099953px;font-family:'Roboto Condensed';-inkscape-font-specification:RobotoCondensed-Regular;writing-mode:lr-tb;fill:#000000;fill-opacity:1;fill-rule:nonzero;stroke:none" transform="matrix(-4.4e-8,1,1,4.4e-8,361.22,293.22)"><tspan id="tspan304" y="0" x="0 6.1359739 12.271948 18.532131">1997</tspan></text>
</g>
    </g>
    <g id="g306">
      <g clip-path="url(#clipPath310)" id="g308"><text id="text314" style="font-variant:normal;font-weight:normal;font-size:12.42099953px;font-family:'Roboto Condensed';-inkscape-font-specification:RobotoCondensed-Regular;writing-mode:lr-tb;fill:#000000;fill-opacity:1;fill-rule:nonzero;stroke:none" transform="matrix(-4.4e-8,1,1,4.4e-8,383.45,293.22)"><tspan id="tspan316" y="0" x="0 6.1359739 12.271948 18.532131">2000</tspan></text>
</g>
    </g>
    <g id="g318">
      <g clip-path="url(#clipPath322)" id="g320"><text id="text326" style="font-variant:normal;font-weight:normal;font-size:12.42099953px;font-family:'Roboto Condensed';-inkscape-font-specification:RobotoCondensed-Regular;writing-mode:lr-tb;fill:#000000;fill-opacity:1;fill-rule:nonzero;stroke:none" transform="matrix(-4.4e-8,1,1,4.4e-8,405.68,293.22)"><tspan id="tspan328" y="0" x="0 6.1359739 12.271948 18.532131">2003</tspan></text>
</g>
    </g>
    <g id="g330">
      <g clip-path="url(#clipPath334)" id="g332"><text id="text338" style="font-variant:normal;font-weight:normal;font-size:12.42099953px;font-family:'Roboto Condensed';-inkscape-font-specification:RobotoCondensed-Regular;writing-mode:lr-tb;fill:#000000;fill-opacity:1;fill-rule:nonzero;stroke:none" transform="matrix(-4.4e-8,1,1,4.4e-8,427.92,293.22)"><tspan id="tspan340" y="0" x="0 6.1359739 12.271948 18.532131">2006</tspan></text>
</g>
    </g>
    <g id="g342">
      <g clip-path="url(#clipPath346)" id="g344"><text id="text350" style="font-variant:normal;font-weight:normal;font-size:12.42099953px;font-family:'Roboto Condensed';-inkscape-font-specification:RobotoCondensed-Regular;writing-mode:lr-tb;fill:#000000;fill-opacity:1;fill-rule:nonzero;stroke:none" transform="matrix(-4.4e-8,1,1,4.4e-8,450.17,293.22)"><tspan id="tspan352" y="0" x="0 6.1359739 12.271948 18.532131">2009</tspan></text>
</g>
    </g>
    <g id="g354">
      <g clip-path="url(#clipPath358)" id="g356"><text id="text362" style="font-variant:normal;font-weight:normal;font-size:12.42099953px;font-family:'Roboto Condensed';-inkscape-font-specification:RobotoCondensed-Regular;writing-mode:lr-tb;fill:#000000;fill-opacity:1;fill-rule:nonzero;stroke:none" transform="matrix(-4.4e-8,1,1,4.4e-8,472.4,293.22)"><tspan id="tspan364" y="0" x="0 6.1359739 12.271948 18.532131">2012</tspan></text>
</g>
    </g>
    <g id="g366">
      <g clip-path="url(#clipPath370)" id="g368"><text id="text374" style="font-variant:normal;font-weight:normal;font-size:12.42099953px;font-family:'Roboto Condensed';-inkscape-font-specification:RobotoCondensed-Regular;writing-mode:lr-tb;fill:#000000;fill-opacity:1;fill-rule:nonzero;stroke:none" transform="matrix(-4.4e-8,1,1,4.4e-8,494.63,293.22)"><tspan id="tspan376" y="0" x="0 6.1359739 12.271948 18.532131">2015</tspan></text>
</g>
    </g>
    <g id="g378">
      <g clip-path="url(#clipPath382)" id="g380"><text id="text386" style="font-variant:normal;font-weight:normal;font-size:12.42099953px;font-family:'Roboto Condensed';-inkscape-font-specification:RobotoCondensed-Regular;writing-mode:lr-tb;fill:#000000;fill-opacity:1;fill-rule:nonzero;stroke:none" transform="matrix(-4.4e-8,1,1,4.4e-8,516.88,293.22)"><tspan id="tspan388" y="0" x="0 6.1359739 12.271948 18.532131">2018</tspan></text>
</g>
    </g>
    <g id="g390">
      <g clip-path="url(#clipPath394)" id="g392"><text id="text398" style="font-variant:normal;font-weight:normal;font-size:12.42099953px;font-family:'Roboto Condensed';-inkscape-font-specification:RobotoCondensed-Regular;writing-mode:lr-tb;fill:#000000;fill-opacity:1;fill-rule:nonzero;stroke:none" transform="matrix(-4.4e-8,1,1,4.4e-8,539.12,293.22)"><tspan id="tspan400" y="0" x="0 6.1359739 12.271948 18.532131">2021</tspan></text>
</g>
    </g>
    <g id="g402">
      <g clip-path="url(#clipPath406)" id="g404"><text id="text410" style="font-variant:normal;font-weight:normal;font-size:12.42099953px;font-family:'Roboto Condensed';-inkscape-font-specification:RobotoCondensed-Regular;writing-mode:lr-tb;fill:#000000;fill-opacity:1;fill-rule:nonzero;stroke:none" transform="matrix(-4.4e-8,1,1,4.4e-8,561.35,293.22)"><tspan id="tspan412" y="0" x="0 6.1359739 12.271948 18.532131">2024</tspan></text>
</g>
    </g>
    <g id="g414">
      <g clip-path="url(#clipPath418)" id="g416"><text id="text422" style="font-variant:normal;font-weight:bold;font-size:15.22099972px;font-family:'Roboto Condensed';-inkscape-font-specification:RobotoCondensed-Bold;writing-mode:lr-tb;fill:#000000;fill-opacity:1;fill-rule:nonzero;stroke:none" transform="matrix(1,0,0,-1,251.01,544.97)"><tspan id="tspan424" y="0" x="0 8.9042854 18.219538 22.405312 25.906141 33.440536 40.761837 45.815208 49.31604 56.317699 63.48679 71.021187 74.887321 79.605827 86.774918 90.275749 95.192131 103.92899 112.14833 119.85015">GNI per capita (US$)</tspan></text>
</g>
    </g>
    <path id="path426" style="fill:#ffffff;fill-opacity:1;fill-rule:evenodd;stroke:none" d="m 153.65,507.75 319.39,0 0,23.114 -319.39,0 0,-23.114 z"/>
    <path id="path428" style="fill:none;stroke:#005aa4;stroke-width:2.07710004;stroke-linecap:round;stroke-linejoin:round;stroke-miterlimit:10;stroke-dasharray:none;stroke-opacity:1" d="m 168.66,519.31 26.58,0"/>
    <g id="g430">
      <g clip-path="url(#clipPath434)" id="g432"><text id="text438" style="font-variant:normal;font-weight:normal;font-size:12.42099953px;font-family:'Roboto Condensed';-inkscape-font-specification:RobotoCondensed-Regular;writing-mode:lr-tb;fill:#000000;fill-opacity:1;fill-rule:nonzero;stroke:none" transform="matrix(1,0,0,-1,198.08,515.47)"><tspan id="tspan440" y="0" x="0 6.9930229 13.104155 15.89888 22.010012">China</tspan></text>
</g>
    </g>
    <path id="path442" style="fill:none;stroke:#eadfbc;stroke-width:2.07710004;stroke-linecap:round;stroke-linejoin:round;stroke-miterlimit:10;stroke-dasharray:none;stroke-opacity:1" d="m 240.47,519.31 26.58,0"/>
    <g id="g444">
      <g clip-path="url(#clipPath448)" id="g446"><text id="text452" style="font-variant:normal;font-weight:normal;font-size:12.42099953px;font-family:'Roboto Condensed';-inkscape-font-specification:RobotoCondensed-Regular;writing-mode:lr-tb;fill:#000000;fill-opacity:1;fill-rule:nonzero;stroke:none" transform="matrix(1,0,0,-1,269.92,515.47)"><tspan id="tspan454" y="0" x="0 5.9372382 12.035949 18.159502 24.109161">Japan</tspan></text>
</g>
    </g>
    <path id="path456" style="fill:none;stroke:#226b5a;stroke-width:2.07710004;stroke-linecap:round;stroke-linejoin:round;stroke-miterlimit:10;stroke-dasharray:none;stroke-opacity:1" d="m 314.49,519.31 26.58,0"/>
    <g id="g458">
      <g clip-path="url(#clipPath462)" id="g460"><text id="text466" style="font-variant:normal;font-weight:normal;font-size:12.42099953px;font-family:'Roboto Condensed';-inkscape-font-specification:RobotoCondensed-Regular;writing-mode:lr-tb;fill:#000000;fill-opacity:1;fill-rule:nonzero;stroke:none" transform="matrix(1,0,0,-1,343.94,515.47)"><tspan id="tspan468" y="0" x="0 7.0105019">US</tspan></text>
</g>
    </g>
    <path id="path470" style="fill:none;stroke:#8cd5f2;stroke-width:2.07710004;stroke-linecap:round;stroke-linejoin:round;stroke-miterlimit:10;stroke-dasharray:none;stroke-opacity:1" d="m 371.83,519.31 26.58,0"/>
    <g id="g472">
      <g clip-path="url(#clipPath476)" id="g474"><text id="text480" style="font-variant:normal;font-weight:normal;font-size:12.42099953px;font-family:'Roboto Condensed';-inkscape-font-specification:RobotoCondensed-Regular;writing-mode:lr-tb;fill:#000000;fill-opacity:1;fill-rule:nonzero;stroke:none" transform="matrix(1,0,0,-1,401.31,515.47)"><tspan id="tspan482" y="0" x="0 7.7010198 10.458482 16.743507 22.680746 25.463051 28.419249 34.356487 40.09499 46.404858 55.670921">High income</tspan></text>
</g>
    </g>
    <path id="path484" style="fill:none;stroke:#595959;stroke-width:0.69237;stroke-linecap:round;stroke-linejoin:round;stroke-miterlimit:10;stroke-dasharray:none;stroke-opacity:1" d="m 299.65,440.98 2.39,-118.59"/>
    <g id="g486">
      <g clip-path="url(#clipPath490)" id="g488"><text id="text494" style="font-variant:normal;font-weight:normal;font-size:12.42099953px;font-family:'Roboto Condensed';-inkscape-font-specification:RobotoCondensed-Regular;writing-mode:lr-tb;fill:#595959;fill-opacity:1;fill-rule:nonzero;stroke:none" transform="matrix(1,0,0,-1,276.99,449.68)"><tspan id="tspan496" y="0" x="0 6.1262941 12.252588 18.378881">1990</tspan></text>
</g>
    </g>
    <g id="g498">
      <g clip-path="url(#clipPath502)" id="g500"><text id="text506" style="font-variant:normal;font-weight:normal;font-size:12.42099953px;font-family:'Roboto Condensed';-inkscape-font-specification:RobotoCondensed-Regular;writing-mode:lr-tb;fill:#595959;fill-opacity:1;fill-rule:nonzero;stroke:none" transform="matrix(1,0,0,-1,304.46,449.68)"><tspan id="tspan508" y="0" x="0 5.96208 11.911739 18.035292 23.984951 29.996716">Japan </tspan></text>
</g>
    </g>
  </g>
</svg>
