<?xml version="1.0" encoding="UTF-8" standalone="no"?>
<svg xmlns:dc="http://purl.org/dc/elements/1.1/" xmlns:cc="http://creativecommons.org/ns#" xmlns:rdf="http://www.w3.org/1999/02/22-rdf-syntax-ns#" xmlns:svg="http://www.w3.org/2000/svg" xmlns="http://www.w3.org/2000/svg" viewBox="63.20125 369.3375 638.79875 251.1875" height="251.1875" width="638.79875" xml:space="preserve" version="1.1" id="svg2">
  <metadata id="metadata8">
    <rdf:RDF>
      <cc:Work rdf:about="">
        <dc:format>image/svg+xml</dc:format>
        <dc:type rdf:resource="http://purl.org/dc/dcmitype/StillImage"/>
      </cc:Work>
    </rdf:RDF>
  </metadata>
  <defs id="defs6">
    <clipPath id="clipPath16" clipPathUnits="userSpaceOnUse">
      <path style="clip-rule:evenodd" id="path18" d="m 50.4,295.56 511.2,0 0,201 -511.2,0 0,-201 z"/>
    </clipPath>
    <clipPath id="clipPath26" clipPathUnits="userSpaceOnUse">
      <path style="clip-rule:evenodd" id="path28" d="m 50.4,295.56 511.2,0 0,201 -511.2,0 0,-201 z"/>
    </clipPath>
    <clipPath id="clipPath44" clipPathUnits="userSpaceOnUse">
      <path style="clip-rule:evenodd" id="path46" d="m 50.632,295.66 510.95,0 0,200.8 -510.95,0 0,-200.8 z"/>
    </clipPath>
    <clipPath id="clipPath54" clipPathUnits="userSpaceOnUse">
      <path style="clip-rule:evenodd" id="path56" d="m 50.64,295.56 510.96,0 0,200.88 -510.96,0 0,-200.88 z"/>
    </clipPath>
    <clipPath id="clipPath66" clipPathUnits="userSpaceOnUse">
      <path style="clip-rule:evenodd" id="path68" d="m 50.64,295.56 510.96,0 0,200.88 -510.96,0 0,-200.88 z"/>
    </clipPath>
    <clipPath id="clipPath78" clipPathUnits="userSpaceOnUse">
      <path style="clip-rule:evenodd" id="path80" d="m 50.64,295.56 510.96,0 0,200.88 -510.96,0 0,-200.88 z"/>
    </clipPath>
    <clipPath id="clipPath90" clipPathUnits="userSpaceOnUse">
      <path style="clip-rule:evenodd" id="path92" d="m 50.64,295.56 510.96,0 0,200.88 -510.96,0 0,-200.88 z"/>
    </clipPath>
    <clipPath id="clipPath102" clipPathUnits="userSpaceOnUse">
      <path style="clip-rule:evenodd" id="path104" d="m 50.64,295.56 510.96,0 0,200.88 -510.96,0 0,-200.88 z"/>
    </clipPath>
    <clipPath id="clipPath114" clipPathUnits="userSpaceOnUse">
      <path style="clip-rule:evenodd" id="path116" d="m 50.64,295.56 510.96,0 0,200.88 -510.96,0 0,-200.88 z"/>
    </clipPath>
    <clipPath id="clipPath126" clipPathUnits="userSpaceOnUse">
      <path style="clip-rule:evenodd" id="path128" d="m 50.64,295.56 510.96,0 0,200.88 -510.96,0 0,-200.88 z"/>
    </clipPath>
    <clipPath id="clipPath138" clipPathUnits="userSpaceOnUse">
      <path style="clip-rule:evenodd" id="path140" d="m 50.64,295.56 510.96,0 0,200.88 -510.96,0 0,-200.88 z"/>
    </clipPath>
    <clipPath id="clipPath150" clipPathUnits="userSpaceOnUse">
      <path style="clip-rule:evenodd" id="path152" d="m 50.64,295.56 510.96,0 0,200.88 -510.96,0 0,-200.88 z"/>
    </clipPath>
    <clipPath id="clipPath162" clipPathUnits="userSpaceOnUse">
      <path style="clip-rule:evenodd" id="path164" d="m 50.64,295.56 510.96,0 0,200.88 -510.96,0 0,-200.88 z"/>
    </clipPath>
    <clipPath id="clipPath174" clipPathUnits="userSpaceOnUse">
      <path style="clip-rule:evenodd" id="path176" d="m 50.64,295.56 510.96,0 0,200.88 -510.96,0 0,-200.88 z"/>
    </clipPath>
    <clipPath id="clipPath186" clipPathUnits="userSpaceOnUse">
      <path style="clip-rule:evenodd" id="path188" d="m 50.64,295.56 510.96,0 0,200.88 -510.96,0 0,-200.88 z"/>
    </clipPath>
    <clipPath id="clipPath198" clipPathUnits="userSpaceOnUse">
      <path style="clip-rule:evenodd" id="path200" d="m 50.64,295.56 510.96,0 0,200.88 -510.96,0 0,-200.88 z"/>
    </clipPath>
    <clipPath id="clipPath210" clipPathUnits="userSpaceOnUse">
      <path style="clip-rule:evenodd" id="path212" d="m 50.64,295.56 510.96,0 0,200.88 -510.96,0 0,-200.88 z"/>
    </clipPath>
    <clipPath id="clipPath222" clipPathUnits="userSpaceOnUse">
      <path style="clip-rule:evenodd" id="path224" d="m 50.64,295.56 510.96,0 0,200.88 -510.96,0 0,-200.88 z"/>
    </clipPath>
    <clipPath id="clipPath234" clipPathUnits="userSpaceOnUse">
      <path style="clip-rule:evenodd" id="path236" d="m 50.64,295.56 510.96,0 0,200.88 -510.96,0 0,-200.88 z"/>
    </clipPath>
    <clipPath id="clipPath246" clipPathUnits="userSpaceOnUse">
      <path style="clip-rule:evenodd" id="path248" d="m 50.64,295.56 510.96,0 0,200.88 -510.96,0 0,-200.88 z"/>
    </clipPath>
    <clipPath id="clipPath258" clipPathUnits="userSpaceOnUse">
      <path style="clip-rule:evenodd" id="path260" d="m 50.64,295.56 510.96,0 0,200.88 -510.96,0 0,-200.88 z"/>
    </clipPath>
    <clipPath id="clipPath270" clipPathUnits="userSpaceOnUse">
      <path style="clip-rule:evenodd" id="path272" d="m 50.64,295.56 510.96,0 0,200.88 -510.96,0 0,-200.88 z"/>
    </clipPath>
    <clipPath id="clipPath282" clipPathUnits="userSpaceOnUse">
      <path style="clip-rule:evenodd" id="path284" d="m 50.64,295.56 510.96,0 0,200.88 -510.96,0 0,-200.88 z"/>
    </clipPath>
    <clipPath id="clipPath294" clipPathUnits="userSpaceOnUse">
      <path style="clip-rule:evenodd" id="path296" d="m 50.64,295.56 510.96,0 0,200.88 -510.96,0 0,-200.88 z"/>
    </clipPath>
    <clipPath id="clipPath306" clipPathUnits="userSpaceOnUse">
      <path style="clip-rule:evenodd" id="path308" d="m 50.64,295.56 510.96,0 0,200.88 -510.96,0 0,-200.88 z"/>
    </clipPath>
    <clipPath id="clipPath318" clipPathUnits="userSpaceOnUse">
      <path style="clip-rule:evenodd" id="path320" d="m 50.64,295.56 510.96,0 0,200.88 -510.96,0 0,-200.88 z"/>
    </clipPath>
    <clipPath id="clipPath330" clipPathUnits="userSpaceOnUse">
      <path style="clip-rule:evenodd" id="path332" d="m 50.64,295.56 510.96,0 0,200.88 -510.96,0 0,-200.88 z"/>
    </clipPath>
    <clipPath id="clipPath342" clipPathUnits="userSpaceOnUse">
      <path style="clip-rule:evenodd" id="path344" d="m 50.64,295.56 510.96,0 0,200.88 -510.96,0 0,-200.88 z"/>
    </clipPath>
    <clipPath id="clipPath354" clipPathUnits="userSpaceOnUse">
      <path style="clip-rule:evenodd" id="path356" d="m 50.64,295.56 510.96,0 0,200.88 -510.96,0 0,-200.88 z"/>
    </clipPath>
    <clipPath id="clipPath366" clipPathUnits="userSpaceOnUse">
      <path style="clip-rule:evenodd" id="path368" d="m 50.64,295.56 510.96,0 0,200.88 -510.96,0 0,-200.88 z"/>
    </clipPath>
    <clipPath id="clipPath378" clipPathUnits="userSpaceOnUse">
      <path style="clip-rule:evenodd" id="path380" d="m 50.64,295.56 510.96,0 0,200.88 -510.96,0 0,-200.88 z"/>
    </clipPath>
    <clipPath id="clipPath390" clipPathUnits="userSpaceOnUse">
      <path style="clip-rule:evenodd" id="path392" d="m 50.64,295.56 510.96,0 0,200.88 -510.96,0 0,-200.88 z"/>
    </clipPath>
    <clipPath id="clipPath402" clipPathUnits="userSpaceOnUse">
      <path style="clip-rule:evenodd" id="path404" d="m 50.64,295.56 510.96,0 0,200.88 -510.96,0 0,-200.88 z"/>
    </clipPath>
    <clipPath id="clipPath414" clipPathUnits="userSpaceOnUse">
      <path style="clip-rule:evenodd" id="path416" d="m 50.64,295.56 510.96,0 0,200.88 -510.96,0 0,-200.88 z"/>
    </clipPath>
    <clipPath id="clipPath426" clipPathUnits="userSpaceOnUse">
      <path style="clip-rule:evenodd" id="path428" d="m 50.64,295.56 510.96,0 0,200.88 -510.96,0 0,-200.88 z"/>
    </clipPath>
    <clipPath id="clipPath440" clipPathUnits="userSpaceOnUse">
      <path style="clip-rule:evenodd" id="path442" d="m 50.64,295.56 510.96,0 0,200.88 -510.96,0 0,-200.88 z"/>
    </clipPath>
  </defs>
  <g transform="matrix(1.25,0,0,-1.25,0,990)" id="g10">
    <g id="g12">
      <g clip-path="url(#clipPath16)" id="g14">
        <path id="path20" style="fill:none;stroke:#000000;stroke-width:0.14;stroke-linecap:butt;stroke-linejoin:miter;stroke-miterlimit:10;stroke-dasharray:none;stroke-opacity:0" d="m 50.631,496.46 510.979,0 0,-200.81 -510.979,0 0,200.81 z"/>
      </g>
    </g>
    <g id="g22">
      <g clip-path="url(#clipPath26)" id="g24">
        <path id="path30" style="fill:#ffffff;fill-opacity:1;fill-rule:evenodd;stroke:none" d="m 50.632,295.65 510.98,0 0,200.81 -510.98,0 0,-200.81 z"/>
      </g>
    </g>
    <path id="path32" style="fill:#ffc000;fill-opacity:1;fill-rule:evenodd;stroke:none" d="m 125.55,431.89 381.75,0 0,11.122 -381.75,0 0,-11.122 z"/>
    <path id="path34" style="fill:#ffc000;fill-opacity:1;fill-rule:evenodd;stroke:none" d="m 125.55,415.21 326.81,0 0,11.122 -326.81,0 0,-11.122 z"/>
    <path id="path36" style="fill:#005aa4;fill-opacity:1;fill-rule:evenodd;stroke:none" d="m 125.55,331.8 71.519,0 0,11.122 -71.519,0 0,-11.122 z"/>
    <path id="path38" style="fill:#005aa4;fill-opacity:1;fill-rule:nonzero;stroke:none" d="m 523.86,459.76 -398.31,0 0,-11.18 398.31,0 0,11.18 z m -154.44,-50.17 -243.87,0 0,-11.05 243.87,0 0,11.05 z m -46.36,-16.64 -197.51,0 0,-11.05 197.51,0 0,11.05 z m -5.72,-16.64 -191.79,0 0,-11.17 191.79,0 0,11.17 z m -21.33,-16.76 -170.46,0 0,-11.05 170.46,0 0,11.05 z m -108.85,-33.28 -61.61,0 0,-11.17 61.61,0 0,11.17 z m -25.65,-16.76 -35.96,0 0,-11.05 35.96,0 0,11.05 z"/>
    <g id="g40">
      <g clip-path="url(#clipPath44)" id="g42">
        <path id="path48" style="fill:none;stroke:#808080;stroke-width:1.32299995;stroke-linecap:round;stroke-linejoin:round;stroke-miterlimit:10;stroke-dasharray:none;stroke-opacity:1" d="m 125.55,462.48 0,-166.83"/>
      </g>
    </g>
    <g id="g50">
      <g clip-path="url(#clipPath54)" id="g52"><text id="text58" style="font-variant:normal;font-weight:normal;font-size:9.52799988px;font-family:'Roboto Condensed';-inkscape-font-specification:RobotoCondensed-Regular;writing-mode:lr-tb;fill:#000000;fill-opacity:1;fill-rule:nonzero;stroke:none" transform="matrix(1,0,0,-1,530.38,450.79)"><tspan id="tspan60" y="0" x="0 4.7040019 9.4080038">42%</tspan></text>
</g>
    </g>
    <g id="g62">
      <g clip-path="url(#clipPath66)" id="g64"><text id="text70" style="font-variant:normal;font-weight:normal;font-size:9.52799988px;font-family:'Roboto Condensed';-inkscape-font-specification:RobotoCondensed-Regular;writing-mode:lr-tb;fill:#000000;fill-opacity:1;fill-rule:nonzero;stroke:none" transform="matrix(1,0,0,-1,513.79,434.11)"><tspan id="tspan72" y="0" x="0 4.7040019 9.4080038">41%</tspan></text>
</g>
    </g>
    <g id="g74">
      <g clip-path="url(#clipPath78)" id="g76"><text id="text82" style="font-variant:normal;font-weight:normal;font-size:9.52799988px;font-family:'Roboto Condensed';-inkscape-font-specification:RobotoCondensed-Regular;writing-mode:lr-tb;fill:#000000;fill-opacity:1;fill-rule:nonzero;stroke:none" transform="matrix(1,0,0,-1,458.86,417.41)"><tspan id="tspan84" y="0" x="0 4.7040019 9.4080038">35%</tspan></text>
</g>
    </g>
    <g id="g86">
      <g clip-path="url(#clipPath90)" id="g88"><text id="text94" style="font-variant:normal;font-weight:normal;font-size:9.52799988px;font-family:'Roboto Condensed';-inkscape-font-specification:RobotoCondensed-Regular;writing-mode:lr-tb;fill:#000000;fill-opacity:1;fill-rule:nonzero;stroke:none" transform="matrix(1,0,0,-1,375.94,400.73)"><tspan id="tspan96" y="0" x="0 4.7040019 9.4080038">26%</tspan></text>
</g>
    </g>
    <g id="g98">
      <g clip-path="url(#clipPath102)" id="g100"><text id="text106" style="font-variant:normal;font-weight:normal;font-size:9.52799988px;font-family:'Roboto Condensed';-inkscape-font-specification:RobotoCondensed-Regular;writing-mode:lr-tb;fill:#000000;fill-opacity:1;fill-rule:nonzero;stroke:none" transform="matrix(1,0,0,-1,329.52,384.05)"><tspan id="tspan108" y="0" x="0 4.7040019 9.4080038">21%</tspan></text>
</g>
    </g>
    <g id="g110">
      <g clip-path="url(#clipPath114)" id="g112"><text id="text118" style="font-variant:normal;font-weight:normal;font-size:9.52799988px;font-family:'Roboto Condensed';-inkscape-font-specification:RobotoCondensed-Regular;writing-mode:lr-tb;fill:#000000;fill-opacity:1;fill-rule:nonzero;stroke:none" transform="matrix(1,0,0,-1,323.83,367.37)"><tspan id="tspan120" y="0" x="0 4.7040019 9.4080038">20%</tspan></text>
</g>
    </g>
    <g id="g122">
      <g clip-path="url(#clipPath126)" id="g124"><text id="text130" style="font-variant:normal;font-weight:normal;font-size:9.50399971px;font-family:'Roboto Condensed';-inkscape-font-specification:RobotoCondensed-Regular;writing-mode:lr-tb;fill:#000000;fill-opacity:1;fill-rule:nonzero;stroke:none" transform="matrix(1,0,0,-1,302.52,350.66)"><tspan id="tspan132" y="0" x="0 4.7039962 9.4079924">18%</tspan></text>
</g>
    </g>
    <g id="g134">
      <g clip-path="url(#clipPath138)" id="g136"><text id="text142" style="font-variant:normal;font-weight:normal;font-size:9.52799988px;font-family:'Roboto Condensed';-inkscape-font-specification:RobotoCondensed-Regular;writing-mode:lr-tb;fill:#000000;fill-opacity:1;fill-rule:nonzero;stroke:none" transform="matrix(1,0,0,-1,203.45,333.98)"><tspan id="tspan144" y="0" x="0 4.7040019">8%</tspan></text>
</g>
    </g>
    <g id="g146">
      <g clip-path="url(#clipPath150)" id="g148"><text id="text154" style="font-variant:normal;font-weight:normal;font-size:9.52799988px;font-family:'Roboto Condensed';-inkscape-font-specification:RobotoCondensed-Regular;writing-mode:lr-tb;fill:#000000;fill-opacity:1;fill-rule:nonzero;stroke:none" transform="matrix(1,0,0,-1,193.49,317.3)"><tspan id="tspan156" y="0" x="0 4.7040019">7%</tspan></text>
</g>
    </g>
    <g id="g158">
      <g clip-path="url(#clipPath162)" id="g160"><text id="text166" style="font-variant:normal;font-weight:normal;font-size:9.52799988px;font-family:'Roboto Condensed';-inkscape-font-specification:RobotoCondensed-Regular;writing-mode:lr-tb;fill:#000000;fill-opacity:1;fill-rule:nonzero;stroke:none" transform="matrix(1,0,0,-1,167.9,300.62)"><tspan id="tspan168" y="0" x="0 4.7040019">4%</tspan></text>
</g>
    </g>
    <g id="g170">
      <g clip-path="url(#clipPath174)" id="g172"><text id="text178" style="font-variant:normal;font-weight:normal;font-size:7.36800003px;font-family:'Roboto Condensed';-inkscape-font-specification:RobotoCondensed-Regular;writing-mode:lr-tb;fill:#000000;fill-opacity:1;fill-rule:nonzero;stroke:none" transform="matrix(1,0,0,-1,121.39,469.78)"><tspan id="tspan180" y="0" x="0 3.695992">0%</tspan></text>
</g>
    </g>
    <g id="g182">
      <g clip-path="url(#clipPath186)" id="g184"><text id="text190" style="font-variant:normal;font-weight:normal;font-size:7.36800003px;font-family:'Roboto Condensed';-inkscape-font-specification:RobotoCondensed-Regular;writing-mode:lr-tb;fill:#000000;fill-opacity:1;fill-rule:nonzero;stroke:none" transform="matrix(1,0,0,-1,168.48,469.78)"><tspan id="tspan192" y="0" x="0 3.695992">5%</tspan></text>
</g>
    </g>
    <g id="g194">
      <g clip-path="url(#clipPath198)" id="g196"><text id="text202" style="font-variant:normal;font-weight:normal;font-size:7.36800003px;font-family:'Roboto Condensed';-inkscape-font-specification:RobotoCondensed-Regular;writing-mode:lr-tb;fill:#000000;fill-opacity:1;fill-rule:nonzero;stroke:none" transform="matrix(1,0,0,-1,213.74,469.78)"><tspan id="tspan204" y="0" x="0 3.695992 7.391984">10%</tspan></text>
</g>
    </g>
    <g id="g206">
      <g clip-path="url(#clipPath210)" id="g208"><text id="text214" style="font-variant:normal;font-weight:normal;font-size:7.36800003px;font-family:'Roboto Condensed';-inkscape-font-specification:RobotoCondensed-Regular;writing-mode:lr-tb;fill:#000000;fill-opacity:1;fill-rule:nonzero;stroke:none" transform="matrix(1,0,0,-1,260.83,469.78)"><tspan id="tspan216" y="0" x="0 3.695992 7.391984">15%</tspan></text>
</g>
    </g>
    <g id="g218">
      <g clip-path="url(#clipPath222)" id="g220"><text id="text226" style="font-variant:normal;font-weight:normal;font-size:7.36800003px;font-family:'Roboto Condensed';-inkscape-font-specification:RobotoCondensed-Regular;writing-mode:lr-tb;fill:#000000;fill-opacity:1;fill-rule:nonzero;stroke:none" transform="matrix(1,0,0,-1,307.92,469.78)"><tspan id="tspan228" y="0" x="0 3.695992 7.391984">20%</tspan></text>
</g>
    </g>
    <g id="g230">
      <g clip-path="url(#clipPath234)" id="g232"><text id="text238" style="font-variant:normal;font-weight:normal;font-size:7.36800003px;font-family:'Roboto Condensed';-inkscape-font-specification:RobotoCondensed-Regular;writing-mode:lr-tb;fill:#000000;fill-opacity:1;fill-rule:nonzero;stroke:none" transform="matrix(1,0,0,-1,355.01,469.78)"><tspan id="tspan240" y="0" x="0 3.695992 7.391984">25%</tspan></text>
</g>
    </g>
    <g id="g242">
      <g clip-path="url(#clipPath246)" id="g244"><text id="text250" style="font-variant:normal;font-weight:normal;font-size:7.36800003px;font-family:'Roboto Condensed';-inkscape-font-specification:RobotoCondensed-Regular;writing-mode:lr-tb;fill:#000000;fill-opacity:1;fill-rule:nonzero;stroke:none" transform="matrix(1,0,0,-1,402.1,469.78)"><tspan id="tspan252" y="0" x="0 3.695992 7.391984">30%</tspan></text>
</g>
    </g>
    <g id="g254">
      <g clip-path="url(#clipPath258)" id="g256"><text id="text262" style="font-variant:normal;font-weight:normal;font-size:7.36800003px;font-family:'Roboto Condensed';-inkscape-font-specification:RobotoCondensed-Regular;writing-mode:lr-tb;fill:#000000;fill-opacity:1;fill-rule:nonzero;stroke:none" transform="matrix(1,0,0,-1,449.18,469.78)"><tspan id="tspan264" y="0" x="0 3.695992 7.391984">35%</tspan></text>
</g>
    </g>
    <g id="g266">
      <g clip-path="url(#clipPath270)" id="g268"><text id="text274" style="font-variant:normal;font-weight:normal;font-size:7.36800003px;font-family:'Roboto Condensed';-inkscape-font-specification:RobotoCondensed-Regular;writing-mode:lr-tb;fill:#000000;fill-opacity:1;fill-rule:nonzero;stroke:none" transform="matrix(1,0,0,-1,496.27,469.78)"><tspan id="tspan276" y="0" x="0 3.695992 7.391984">40%</tspan></text>
</g>
    </g>
    <g id="g278">
      <g clip-path="url(#clipPath282)" id="g280"><text id="text286" style="font-variant:normal;font-weight:normal;font-size:7.36800003px;font-family:'Roboto Condensed';-inkscape-font-specification:RobotoCondensed-Regular;writing-mode:lr-tb;fill:#000000;fill-opacity:1;fill-rule:nonzero;stroke:none" transform="matrix(1,0,0,-1,543.36,469.78)"><tspan id="tspan288" y="0" x="0 3.695992 7.391984">45%</tspan></text>
</g>
    </g>
    <g id="g290">
      <g clip-path="url(#clipPath294)" id="g292"><text id="text298" style="font-variant:normal;font-weight:normal;font-size:8.49600029px;font-family:'Roboto Condensed';-inkscape-font-specification:RobotoCondensed-Regular;writing-mode:lr-tb;fill:#000000;fill-opacity:1;fill-rule:nonzero;stroke:none" transform="matrix(1,0,0,-1,95.592,451.58)"><tspan id="tspan300" y="0" x="0 4.8257279 6.720336 10.645488 14.69808 18.631727">Disney</tspan></text>
</g>
    </g>
    <g id="g302">
      <g clip-path="url(#clipPath306)" id="g304"><text id="text310" style="font-variant:normal;font-weight:normal;font-size:8.52000046px;font-family:'Roboto Condensed';-inkscape-font-specification:RobotoCondensed-Regular;writing-mode:lr-tb;fill:#000000;fill-opacity:1;fill-rule:nonzero;stroke:none" transform="matrix(1,0,0,-1,96.456,434.9)"><tspan id="tspan312" y="0" x="0 6.3388801 10.41996 12.93336 15.44676 19.374479">Mattel</tspan></text>
</g>
    </g>
    <g id="g314">
      <g clip-path="url(#clipPath318)" id="g316"><text id="text322" style="font-variant:normal;font-weight:normal;font-size:8.52000046px;font-family:'Roboto Condensed';-inkscape-font-specification:RobotoCondensed-Regular;writing-mode:lr-tb;fill:#000000;fill-opacity:1;fill-rule:nonzero;stroke:none" transform="matrix(1,0,0,-1,93.648,418.22)"><tspan id="tspan324" y="0" x="0 5.2057199 9.2868004 13.18896 17.38932 19.91124">Hasbro</tspan></text>
</g>
    </g>
    <g id="g326">
      <g clip-path="url(#clipPath330)" id="g328"><text id="text334" style="font-variant:normal;font-weight:normal;font-size:8.52000046px;font-family:'Roboto Condensed';-inkscape-font-specification:RobotoCondensed-Regular;writing-mode:lr-tb;fill:#000000;fill-opacity:1;fill-rule:nonzero;stroke:none" transform="matrix(1,0,0,-1,76.848,401.54)"><tspan id="tspan336" y="0" x="0 6.49224 10.53924 13.08672 17.142241 21.07848 23.736719 25.636681 30.19488 32.853119 37.02792">Warner Bros</tspan></text>
</g>
    </g>
    <g id="g338">
      <g clip-path="url(#clipPath342)" id="g340"><text id="text346" style="font-variant:normal;font-weight:normal;font-size:8.49600029px;font-family:'Roboto Condensed';-inkscape-font-specification:RobotoCondensed-Regular;writing-mode:lr-tb;fill:#000000;fill-opacity:1;fill-rule:nonzero;stroke:none" transform="matrix(1,0,0,-1,96.504,384.84)"><tspan id="tspan348" y="0" x="0 4.4349122 8.3685598 12.557088 15.097392 16.992001">Sanrio</tspan></text>
</g>
    </g>
    <g id="g350">
      <g clip-path="url(#clipPath354)" id="g352"><text id="text358" style="font-variant:normal;font-weight:normal;font-size:8.49600029px;font-family:'Roboto Condensed';-inkscape-font-specification:RobotoCondensed-Regular;writing-mode:lr-tb;fill:#000000;fill-opacity:1;fill-rule:nonzero;stroke:none" transform="matrix(1,0,0,-1,101.98,368.16)"><tspan id="tspan360" y="0" x="0 4.4264159 9.1331997 13.797504">TPCi</tspan></text>
</g>
    </g>
    <g id="g362">
      <g clip-path="url(#clipPath366)" id="g364"><text id="text370" style="font-variant:normal;font-weight:normal;font-size:8.52000046px;font-family:'Roboto Condensed';-inkscape-font-specification:RobotoCondensed-Regular;writing-mode:lr-tb;fill:#000000;fill-opacity:1;fill-rule:nonzero;stroke:none" transform="matrix(1,0,0,-1,87.504,351.48)"><tspan id="tspan372" y="0" x="0 5.2057199 7.23348 11.31456 13.85352 17.789761 21.87084 26.071199">Nintendo</tspan></text>
</g>
    </g>
    <g id="g374">
      <g clip-path="url(#clipPath378)" id="g376"><text id="text382" style="font-variant:normal;font-weight:normal;font-size:8.52000046px;font-family:'Roboto Condensed';-inkscape-font-specification:RobotoCondensed-Regular;writing-mode:lr-tb;fill:#000000;fill-opacity:1;fill-rule:nonzero;stroke:none" transform="matrix(1,0,0,-1,87.216,334.8)"><tspan id="tspan384" y="0" x="0 4.7200799 8.9034004 13.10376 15.13152 21.48744 25.56852 28.090441">Pop Mart</tspan></text>
</g>
    </g>
    <g id="g386">
      <g clip-path="url(#clipPath390)" id="g388"><text id="text394" style="font-variant:normal;font-weight:normal;font-size:8.52000046px;font-family:'Roboto Condensed';-inkscape-font-specification:RobotoCondensed-Regular;writing-mode:lr-tb;fill:#000000;fill-opacity:1;fill-rule:nonzero;stroke:none" transform="matrix(1,0,0,-1,52.704,318.12)"><tspan id="tspan396" y="0" x="0 6.3559198 11.43384 16.256161 18.173161 22.48428 26.565359 29.104321 33.040562 35.588039 38.126999 42.20808 44.12508 48.206161 54.56208 58.63464 62.715721">MGA Entertainment</tspan></text>
</g>
    </g>
    <g id="g398">
      <g clip-path="url(#clipPath402)" id="g400"><text id="text406" style="font-variant:normal;font-weight:normal;font-size:8.49600029px;font-family:'Roboto Condensed';-inkscape-font-specification:RobotoCondensed-Regular;writing-mode:lr-tb;fill:#000000;fill-opacity:1;fill-rule:nonzero;stroke:none" transform="matrix(1,0,0,-1,91.872,301.42)"><tspan id="tspan408" y="0" x="0 4.1035681 8.0372162 10.06776 11.987856 15.556176 19.37088 23.440464">Jellycat</tspan></text>
</g>
    </g>
    <g id="g410">
      <g clip-path="url(#clipPath414)" id="g412"><text id="text418" style="font-variant:normal;font-weight:bold;font-size:11.44799995px;font-family:'Roboto Condensed';-inkscape-font-specification:RobotoCondensed-Bold;writing-mode:lr-tb;fill:#000000;fill-opacity:1;fill-rule:nonzero;stroke:none" transform="matrix(1,0,0,-1,198.91,483.6)"><tspan id="tspan420" y="0" x="0 6.479568 12.70728 15.889824 18.43128 24.910849 30.611952 33.542641 36.46188 41.945473 47.142864 50.680298 53.599537 59.30064 62.219879 67.703468 70.233482 75.682732 79.506363 84.864021 90.450645 95.659485 101.24611 104.16535 109.36275 114.84634 120.04373">US: Collectible Franchises </tspan></text>
</g>
    </g>
    <g id="g422">
      <g clip-path="url(#clipPath426)" id="g424"><text id="text430" style="font-variant:normal;font-weight:bold;font-size:11.44799995px;font-family:'Roboto Condensed';-inkscape-font-specification:RobotoCondensed-Bold;writing-mode:lr-tb;fill:#000000;fill-opacity:1;fill-rule:nonzero;stroke:none" transform="matrix(1,0,0,-1,321.62,483.6)"><tspan id="tspan432" y="0" x="0 5.6209679 10.680984 16.164576 19.965311 22.621248 29.13516 34.698887 38.499622 43.719913 49.306538 54.629856 59.827248 65.310837">Ever Purchased</tspan></text>
</g>
    </g>
    <path id="path434" style="fill:#000000;fill-opacity:1;fill-rule:evenodd;stroke:none" d="m 321.57,482.24 70.996,0 0,0.50803 -70.996,0 0,-0.50803 z"/>
    <g id="g436">
      <g clip-path="url(#clipPath440)" id="g438"><text id="text444" style="font-variant:normal;font-weight:bold;font-size:11.44799995px;font-family:'Roboto Condensed';-inkscape-font-specification:RobotoCondensed-Bold;writing-mode:lr-tb;fill:#000000;fill-opacity:1;fill-rule:nonzero;stroke:none" transform="matrix(1,0,0,-1,395.42,483.6)"><tspan id="tspan446" y="0" x="0 3.6977041 10.53216 19.072369 24.796368 30.382992 36.141335 38.774376 44.990639 50.748985 54.309311 59.666977 62.586216 65.12767 71.355385 76.713051 85.207466 90.954361 93.873596 99.357193">(Among Total Sample)</tspan></text>
</g>
    </g>
  </g>
</svg>
