<?xml version="1.0" encoding="UTF-8" standalone="no"?>
<svg xmlns:dc="http://purl.org/dc/elements/1.1/" xmlns:cc="http://creativecommons.org/ns#" xmlns:rdf="http://www.w3.org/1999/02/22-rdf-syntax-ns#" xmlns:svg="http://www.w3.org/2000/svg" xmlns="http://www.w3.org/2000/svg" viewBox="63 395.7875 618.08 311.2875" height="311.2875" width="618.08" xml:space="preserve" version="1.1" id="svg2">
  <metadata id="metadata8">
    <rdf:RDF>
      <cc:Work rdf:about="">
        <dc:format>image/svg+xml</dc:format>
        <dc:type rdf:resource="http://purl.org/dc/dcmitype/StillImage"/>
      </cc:Work>
    </rdf:RDF>
  </metadata>
  <defs id="defs6">
    <clipPath id="clipPath16" clipPathUnits="userSpaceOnUse">
      <path style="clip-rule:evenodd" id="path18" d="m 50.399,276.24 494.52,0 0,249.24 -494.52,0 0,-249.24 z"/>
    </clipPath>
    <clipPath id="clipPath122" clipPathUnits="userSpaceOnUse">
      <path style="clip-rule:evenodd" id="path124" d="m 50.4,276.24 494.4,0 0,249.12 -494.4,0 0,-249.12 z"/>
    </clipPath>
    <clipPath id="clipPath134" clipPathUnits="userSpaceOnUse">
      <path style="clip-rule:evenodd" id="path136" d="m 50.4,276.24 494.4,0 0,249.12 -494.4,0 0,-249.12 z"/>
    </clipPath>
    <clipPath id="clipPath146" clipPathUnits="userSpaceOnUse">
      <path style="clip-rule:evenodd" id="path148" d="m 50.4,276.24 494.4,0 0,249.12 -494.4,0 0,-249.12 z"/>
    </clipPath>
    <clipPath id="clipPath158" clipPathUnits="userSpaceOnUse">
      <path style="clip-rule:evenodd" id="path160" d="m 50.4,276.24 494.4,0 0,249.12 -494.4,0 0,-249.12 z"/>
    </clipPath>
    <clipPath id="clipPath170" clipPathUnits="userSpaceOnUse">
      <path style="clip-rule:evenodd" id="path172" d="m 50.4,276.24 494.4,0 0,249.12 -494.4,0 0,-249.12 z"/>
    </clipPath>
    <clipPath id="clipPath182" clipPathUnits="userSpaceOnUse">
      <path style="clip-rule:evenodd" id="path184" d="m 50.4,276.24 494.4,0 0,249.12 -494.4,0 0,-249.12 z"/>
    </clipPath>
    <clipPath id="clipPath194" clipPathUnits="userSpaceOnUse">
      <path style="clip-rule:evenodd" id="path196" d="m 50.4,276.24 494.4,0 0,249.12 -494.4,0 0,-249.12 z"/>
    </clipPath>
    <clipPath id="clipPath206" clipPathUnits="userSpaceOnUse">
      <path style="clip-rule:evenodd" id="path208" d="m 50.4,276.24 494.4,0 0,249.12 -494.4,0 0,-249.12 z"/>
    </clipPath>
    <clipPath id="clipPath218" clipPathUnits="userSpaceOnUse">
      <path style="clip-rule:evenodd" id="path220" d="m 50.4,276.24 494.4,0 0,249.12 -494.4,0 0,-249.12 z"/>
    </clipPath>
    <clipPath id="clipPath230" clipPathUnits="userSpaceOnUse">
      <path style="clip-rule:evenodd" id="path232" d="m 50.4,276.24 494.4,0 0,249.12 -494.4,0 0,-249.12 z"/>
    </clipPath>
    <clipPath id="clipPath242" clipPathUnits="userSpaceOnUse">
      <path style="clip-rule:evenodd" id="path244" d="m 50.4,276.24 494.4,0 0,249.12 -494.4,0 0,-249.12 z"/>
    </clipPath>
    <clipPath id="clipPath254" clipPathUnits="userSpaceOnUse">
      <path style="clip-rule:evenodd" id="path256" d="m 50.4,276.24 494.4,0 0,249.12 -494.4,0 0,-249.12 z"/>
    </clipPath>
    <clipPath id="clipPath266" clipPathUnits="userSpaceOnUse">
      <path style="clip-rule:evenodd" id="path268" d="m 50.4,276.24 494.4,0 0,249.12 -494.4,0 0,-249.12 z"/>
    </clipPath>
    <clipPath id="clipPath278" clipPathUnits="userSpaceOnUse">
      <path style="clip-rule:evenodd" id="path280" d="m 50.4,276.24 494.4,0 0,249.12 -494.4,0 0,-249.12 z"/>
    </clipPath>
    <clipPath id="clipPath290" clipPathUnits="userSpaceOnUse">
      <path style="clip-rule:evenodd" id="path292" d="m 50.4,276.24 494.4,0 0,249.12 -494.4,0 0,-249.12 z"/>
    </clipPath>
    <clipPath id="clipPath302" clipPathUnits="userSpaceOnUse">
      <path style="clip-rule:evenodd" id="path304" d="m 50.4,276.24 494.4,0 0,249.12 -494.4,0 0,-249.12 z"/>
    </clipPath>
    <clipPath id="clipPath314" clipPathUnits="userSpaceOnUse">
      <path style="clip-rule:evenodd" id="path316" d="m 50.4,276.24 494.4,0 0,249.12 -494.4,0 0,-249.12 z"/>
    </clipPath>
    <clipPath id="clipPath326" clipPathUnits="userSpaceOnUse">
      <path style="clip-rule:evenodd" id="path328" d="m 50.4,276.24 494.4,0 0,249.12 -494.4,0 0,-249.12 z"/>
    </clipPath>
    <clipPath id="clipPath338" clipPathUnits="userSpaceOnUse">
      <path style="clip-rule:evenodd" id="path340" d="m 50.4,276.24 494.4,0 0,249.12 -494.4,0 0,-249.12 z"/>
    </clipPath>
    <clipPath id="clipPath350" clipPathUnits="userSpaceOnUse">
      <path style="clip-rule:evenodd" id="path352" d="m 50.4,276.24 494.4,0 0,249.12 -494.4,0 0,-249.12 z"/>
    </clipPath>
    <clipPath id="clipPath362" clipPathUnits="userSpaceOnUse">
      <path style="clip-rule:evenodd" id="path364" d="m 50.4,276.24 494.4,0 0,249.12 -494.4,0 0,-249.12 z"/>
    </clipPath>
    <clipPath id="clipPath374" clipPathUnits="userSpaceOnUse">
      <path style="clip-rule:evenodd" id="path376" d="m 50.4,276.24 494.4,0 0,249.12 -494.4,0 0,-249.12 z"/>
    </clipPath>
    <clipPath id="clipPath386" clipPathUnits="userSpaceOnUse">
      <path style="clip-rule:evenodd" id="path388" d="m 50.4,276.24 494.4,0 0,249.12 -494.4,0 0,-249.12 z"/>
    </clipPath>
    <clipPath id="clipPath398" clipPathUnits="userSpaceOnUse">
      <path style="clip-rule:evenodd" id="path400" d="m 50.4,276.24 494.4,0 0,249.12 -494.4,0 0,-249.12 z"/>
    </clipPath>
    <clipPath id="clipPath410" clipPathUnits="userSpaceOnUse">
      <path style="clip-rule:evenodd" id="path412" d="m 50.4,276.24 494.4,0 0,249.12 -494.4,0 0,-249.12 z"/>
    </clipPath>
    <clipPath id="clipPath422" clipPathUnits="userSpaceOnUse">
      <path style="clip-rule:evenodd" id="path424" d="m 50.4,276.24 494.4,0 0,249.12 -494.4,0 0,-249.12 z"/>
    </clipPath>
    <clipPath id="clipPath434" clipPathUnits="userSpaceOnUse">
      <path style="clip-rule:evenodd" id="path436" d="m 50.4,276.24 494.4,0 0,249.12 -494.4,0 0,-249.12 z"/>
    </clipPath>
    <clipPath id="clipPath446" clipPathUnits="userSpaceOnUse">
      <path style="clip-rule:evenodd" id="path448" d="m 50.4,276.24 494.4,0 0,249.12 -494.4,0 0,-249.12 z"/>
    </clipPath>
    <clipPath id="clipPath460" clipPathUnits="userSpaceOnUse">
      <path style="clip-rule:evenodd" id="path462" d="m 50.4,276.24 494.4,0 0,249.12 -494.4,0 0,-249.12 z"/>
    </clipPath>
    <clipPath id="clipPath474" clipPathUnits="userSpaceOnUse">
      <path style="clip-rule:evenodd" id="path476" d="m 50.4,276.24 494.4,0 0,249.12 -494.4,0 0,-249.12 z"/>
    </clipPath>
    <clipPath id="clipPath488" clipPathUnits="userSpaceOnUse">
      <path style="clip-rule:evenodd" id="path490" d="m 50.4,276.24 494.4,0 0,249.12 -494.4,0 0,-249.12 z"/>
    </clipPath>
    <clipPath id="clipPath502" clipPathUnits="userSpaceOnUse">
      <path style="clip-rule:evenodd" id="path504" d="m 50.4,276.24 494.4,0 0,249.12 -494.4,0 0,-249.12 z"/>
    </clipPath>
    <clipPath id="clipPath516" clipPathUnits="userSpaceOnUse">
      <path style="clip-rule:evenodd" id="path518" d="m 50.4,276.24 494.4,0 0,249.12 -494.4,0 0,-249.12 z"/>
    </clipPath>
    <clipPath id="clipPath530" clipPathUnits="userSpaceOnUse">
      <path style="clip-rule:evenodd" id="path532" d="m 50.4,276.24 494.4,0 0,249.12 -494.4,0 0,-249.12 z"/>
    </clipPath>
    <clipPath id="clipPath544" clipPathUnits="userSpaceOnUse">
      <path style="clip-rule:evenodd" id="path546" d="m 50.4,276.24 494.4,0 0,249.12 -494.4,0 0,-249.12 z"/>
    </clipPath>
    <clipPath id="clipPath562" clipPathUnits="userSpaceOnUse">
      <path style="clip-rule:evenodd" id="path564" d="m 50.4,276.24 494.4,0 0,249.12 -494.4,0 0,-249.12 z"/>
    </clipPath>
    <clipPath id="clipPath574" clipPathUnits="userSpaceOnUse">
      <path style="clip-rule:evenodd" id="path576" d="m 50.4,485.76 145.68,0 0,18.96 -145.68,0 0,-18.96 z"/>
    </clipPath>
  </defs>
  <g transform="matrix(1.25,0,0,-1.25,0,1052.4)" id="g10">
    <g id="g12">
      <g clip-path="url(#clipPath16)" id="g14">
        <path id="path20" style="fill:none;stroke:#000000;stroke-width:0.14;stroke-linecap:butt;stroke-linejoin:miter;stroke-miterlimit:10;stroke-dasharray:none;stroke-opacity:0" d="m 50.443,276.33 494.35,0 0,248.89 -494.35,0 0,-248.89 z"/>
      </g>
    </g>
    <path id="path22" style="fill:#ffffff;fill-opacity:1;fill-rule:evenodd;stroke:none" d="m 50.444,276.33 494.35,0 0,248.89 -494.35,0 0,-248.89 z"/>
    <path id="path24" style="fill:#d0b86a;fill-opacity:1;fill-rule:nonzero;stroke:none" d="m 105.67,364.7 9.32,0 0,-17.19 -9.32,0 0,17.19 z m 22.97,37.92 9.32,0 0,-55.11 -9.32,0 0,55.11 z m 23.14,3.86 9.16,0 0,-58.97 -9.16,0 0,58.97 z m 22.97,-28.6 9.16,0 0,-30.37 -9.16,0 0,30.37 z m 22.98,9 9.16,0 0,-39.37 -9.16,0 0,39.37 z m 22.97,-27 9.16,0 0,-12.37 -9.16,0 0,12.37 z m 22.98,2.41 9.16,0 0,-14.78 -9.16,0 0,14.78 z m 22.97,5.14 9.16,0 0,-19.92 -9.16,0 0,19.92 z m 22.98,-2.57 9.32,0 0,-17.35 -9.32,0 0,17.35 z m 22.97,1.29 9.32,0 0,-18.64 -9.32,0 0,18.64 z m 23.14,21.21 9.16,0 0,-39.85 -9.16,0 0,39.85 z m 22.97,2.73 9.16,0 0,-42.58 -9.16,0 0,42.58 z m 22.98,-61.7 9.16,0 0,19.12 -9.16,0 0,-19.12 z m 22.97,92.87 9.16,0 0,-73.75 -9.16,0 0,73.75 z m 22.98,-9.96 9.16,0 0,-63.79 -9.16,0 0,63.79 z m 22.97,-14.46 9.32,0 0,-49.33 -9.32,0 0,49.33 z m 22.98,30.2 9.32,0 0,-79.53 -9.32,0 0,79.53 z m 23.13,-0.64 9.16,0 0,-78.89 -9.16,0 0,78.89 z m 22.98,-16.55 9.15,0 0,-62.34 -9.15,0 0,62.34 z"/>
    <path id="path26" style="fill:#93959b;fill-opacity:1;fill-rule:nonzero;stroke:none" d="m 105.67,364.86 9.32,0 0,-0.16 -9.32,0 0,0.16 z m 22.97,39.69 9.32,0 0,-1.93 -9.32,0 0,1.93 z m 23.14,4.01 9.16,0 0,-2.08 -9.16,0 0,2.08 z m 22.97,-28.27 9.16,0 0,-2.41 -9.16,0 0,2.41 z m 22.98,8.03 9.16,0 0,-1.44 -9.16,0 0,1.44 z m 22.97,-26.67 9.16,0 0,-1.77 -9.16,0 0,1.77 z m 22.98,2.57 9.16,0 0,-1.93 -9.16,0 0,1.93 z m 22.97,5.14 9.16,0 0,-1.93 -9.16,0 0,1.93 z m 22.98,-1.76 9.32,0 0,-2.74 -9.32,0 0,2.74 z m 22.97,1.12 9.32,0 0,-2.57 -9.32,0 0,2.57 z m 23.14,20.08 9.16,0 0,-1.44 -9.16,0 0,1.44 z m 22.97,2.09 9.16,0 0,-0.8 -9.16,0 0,0.8 z m 22.98,-37.11 9.16,0 0,-6.27 -9.16,0 0,6.27 z m 22.97,-9.96 9.16,0 0,3.69 -9.16,0 0,-3.69 z m 22.98,68.28 9.16,0 0,-0.8 -9.16,0 0,0.8 z m 22.97,-14.46 9.32,0 0,-0.8 -9.32,0 0,0.8 z m 22.98,29.56 9.32,0 0,-0.16 -9.32,0 0,0.16 z m 23.13,-0.64 9.16,0 0,-0.16 -9.16,0 0,0.16 z m 22.98,-14.78 9.15,0 0,-1.93 -9.15,0 0,1.93 z"/>
    <path id="path28" style="fill:#c6efff;fill-opacity:1;fill-rule:nonzero;stroke:none" d="m 105.67,365.02 9.32,0 0,-0.16 -9.32,0 0,0.16 z m 22.97,39.85 9.32,0 0,-0.32 -9.32,0 0,0.32 z m 23.14,4.18 9.16,0 0,-0.49 -9.16,0 0,0.49 z m 22.97,-28.28 9.16,0 0,-0.48 -9.16,0 0,0.48 z m 22.98,8.03 9.16,0 0,-0.48 -9.16,0 0,0.48 z m 22.97,-26.99 9.16,0 0,-0.16 -9.16,0 0,0.16 z m 22.98,2.73 9.16,0 0,-0.32 -9.16,0 0,0.32 z m 22.97,-17.03 9.16,0 0,-0.16 -9.16,0 0,0.16 z m 22.98,20.25 9.32,0 0,-0.16 -9.32,0 0,0.16 z m 22.97,1.12 9.32,0 0,-0.16 -9.32,0 0,0.16 z m 23.14,20.24 9.16,0 0,-0.32 -9.16,0 0,0.32 z m 22.97,1.93 9.16,0 0,-0.16 -9.16,0 0,0.16 z m 22.98,-37.11 9.16,0 0,-0.16 -9.16,0 0,0.16 z m 22.97,67.48 9.16,0 0,-0.16 -9.16,0 0,0.16 z m 22.98,-8.84 9.16,0 0,-0.48 -9.16,0 0,0.48 z m 22.97,-14.46 9.32,0 0,-0.48 -9.32,0 0,0.48 z m 22.98,29.72 9.32,0 0,-0.8 -9.32,0 0,0.8 z m 23.13,-0.8 9.16,0 0,-0.48 -9.16,0 0,0.48 z m 22.98,-14.94 9.15,0 0,-0.32 -9.15,0 0,0.32 z"/>
    <path id="path30" style="fill:#00a1e2;fill-opacity:1;fill-rule:nonzero;stroke:none" d="m 105.67,366.15 9.32,0 0,-1.29 -9.32,0 0,1.29 z m 22.97,42.41 9.32,0 0,-3.69 -9.32,0 0,3.69 z m 23.14,3.54 9.16,0 0,-3.05 -9.16,0 0,3.05 z m 22.97,-28.44 9.16,0 0,-2.89 -9.16,0 0,2.89 z m 22.98,7.55 9.16,0 0,-2.41 -9.16,0 0,2.41 z m 22.97,-27.63 9.16,0 0,-1.93 -9.16,0 0,1.93 z m 22.98,2.25 9.16,0 0,-1.29 -9.16,0 0,1.29 z m 22.97,4.82 9.16,0 0,-1.29 -9.16,0 0,1.29 z m 22.98,-0.81 9.32,0 0,-2.08 -9.32,0 0,2.08 z m 22.97,1.77 9.32,0 0,-2.89 -9.32,0 0,2.89 z m 23.14,18.96 9.16,0 0,-1.45 -9.16,0 0,1.45 z m 22.97,2.09 9.16,0 0,-1.77 -9.16,0 0,1.77 z m 22.98,-38.24 9.16,0 0,-0.48 -9.16,0 0,0.48 z m 22.97,68.6 9.16,0 0,-1.6 -9.16,0 0,1.6 z m 22.98,-9.15 9.16,0 0,-1.29 -9.16,0 0,1.29 z m 22.97,-66.52 9.32,0 0,0.16 -9.32,0 0,-0.16 z m 22.98,82.74 9.32,0 0,-2.25 -9.32,0 0,2.25 z m 23.13,0.65 9.16,0 0,-3.7 -9.16,0 0,3.7 z m 22.98,-15.43 9.15,0 0,-3.21 -9.15,0 0,3.21 z"/>
    <path id="path32" style="fill:#6769b5;fill-opacity:1;fill-rule:nonzero;stroke:none" d="m 105.67,384.63 9.32,0 0,-18.48 -9.32,0 0,18.48 z m 22.97,39.36 9.32,0 0,-15.43 -9.32,0 0,15.43 z m 23.14,12.37 9.16,0 0,-24.26 -9.16,0 0,24.26 z m 22.97,-32.78 9.16,0 0,-19.92 -9.16,0 0,19.92 z m 22.98,-1.28 9.16,0 0,-11.09 -9.16,0 0,11.09 z m 22.97,-54.79 9.16,0 0,-0.16 -9.16,0 0,0.16 z m 22.98,-4.66 9.16,0 0,4.66 -9.16,0 0,-4.66 z m 22.97,-8.67 9.16,0 0,13.33 -9.16,0 0,-13.33 z m 22.98,-3.22 9.32,0 0,16.55 -9.32,0 0,-16.55 z m 22.97,5.79 9.32,0 0,10.76 -9.32,0 0,-10.76 z m 23.14,5.14 9.16,0 0,5.62 -9.16,0 0,-5.62 z m 22.97,4.98 9.16,0 0,0.64 -9.16,0 0,-0.64 z m 22.98,9.32 9.16,0 0,-1.77 -9.16,0 0,1.77 z m 22.97,78.56 9.16,0 0,-11.73 -9.16,0 0,11.73 z m 22.98,-88.84 9.16,0 0,1.6 -9.16,0 0,-1.6 z m 22.97,-3.7 9.32,0 0,5.14 -9.32,0 0,-5.14 z m 22.98,94.79 9.32,0 0,-6.91 -9.32,0 0,6.91 z m 23.13,-0.64 9.16,0 0,-5.62 -9.16,0 0,5.62 z m 22.98,-15.91 9.15,0 0,-5.14 -9.15,0 0,5.14 z"/>
    <path id="path34" style="fill:#005aa4;fill-opacity:1;fill-rule:nonzero;stroke:none" d="m 105.67,390.57 9.32,0 0,-5.94 -9.32,0 0,5.94 z m 22.97,34.22 9.32,0 0,-0.8 -9.32,0 0,0.8 z m 23.14,22.01 9.16,0 0,-10.44 -9.16,0 0,10.44 z m 22.97,-38.72 9.16,0 0,-4.5 -9.16,0 0,4.5 z m 22.98,-5.14 9.16,0 0,-0.64 -9.16,0 0,0.64 z m 22.97,-31.65 9.16,0 0,-7.71 -9.16,0 0,7.71 z m 22.98,-1.28 9.16,0 0,-4.18 -9.16,0 0,4.18 z m 22.97,4.33 9.16,0 0,-3.69 -9.16,0 0,3.69 z m 22.98,-3.37 9.32,0 0,-1.13 -9.32,0 0,1.13 z m 22.97,3.05 9.32,0 0,-2.41 -9.32,0 0,2.41 z m 23.14,18.64 9.16,0 0,-2.09 -9.16,0 0,2.09 z m 22.97,1.28 9.16,0 0,-1.28 -9.16,0 0,1.28 z m 22.98,-33.41 9.16,0 0,-4.34 -9.16,0 0,4.34 z m 22.97,75.35 9.16,0 0,-1.13 -9.16,0 0,1.13 z m 22.98,-20.25 9.16,0 0,-1.76 -9.16,0 0,1.76 z m 22.97,-8.99 9.32,0 0,-8.52 -9.32,0 0,8.52 z m 22.98,40.32 9.32,0 0,-9.96 -9.32,0 0,9.96 z m 23.13,-2.57 9.16,0 0,-8.03 -9.16,0 0,8.03 z m 22.98,-15.74 9.15,0 0,-8.2 -9.15,0 0,8.2 z"/>
    <path id="path36" style="fill:#3bc3a3;fill-opacity:1;fill-rule:nonzero;stroke:none" d="m 105.67,399.09 9.32,0 0,-8.52 -9.32,0 0,8.52 z m 22.97,48.68 9.32,0 0,-22.98 -9.32,0 0,22.98 z m 23.14,24.42 9.16,0 0,-25.39 -9.16,0 0,25.39 z m 22.97,-47.24 9.16,0 0,-16.87 -9.16,0 0,16.87 z m 22.98,-5.94 9.16,0 0,-16.07 -9.16,0 0,16.07 z m 22.97,-27.96 9.16,0 0,-19.76 -9.16,0 0,19.76 z m 22.98,-4.01 9.16,0 0,-17.03 -9.16,0 0,17.03 z m 22.97,-60.57 9.16,0 0,7.71 -9.16,0 0,-7.71 z m 22.98,-16.23 9.32,0 0,20.72 -9.32,0 0,-20.72 z m 22.97,9.96 9.32,0 0,16.55 -9.32,0 0,-16.55 z m 23.14,72.94 9.16,0 0,-0.48 -9.16,0 0,0.48 z m 22.97,10.44 9.16,0 0,-9.64 -9.16,0 0,9.64 z m 22.98,-88.04 9.16,0 0,12.85 -9.16,0 0,-12.85 z m 22.97,18.32 9.16,0 0,9.96 -9.16,0 0,-9.96 z m 22.98,91.73 9.16,0 0,-9.96 -9.16,0 0,9.96 z m 22.97,3.54 9.32,0 0,-22.49 -9.32,0 0,22.49 z m 22.98,39.68 9.32,0 0,-21.85 -9.32,0 0,21.85 z m 23.13,3.06 9.16,0 0,-27.48 -9.16,0 0,27.48 z m 22.98,-17.36 9.15,0 0,-25.86 -9.15,0 0,25.86 z"/>
    <path id="path38" style="fill:none;stroke:#808080;stroke-width:1.67359996;stroke-linecap:round;stroke-linejoin:round;stroke-miterlimit:10;stroke-dasharray:none;stroke-opacity:1" d="m 98.816,347.59 436.934,0"/>
    <path id="path40" style="fill:none;stroke:#005aa4;stroke-width:2.00830007;stroke-linecap:round;stroke-linejoin:round;stroke-miterlimit:10;stroke-dasharray:none;stroke-opacity:1" d="m 110.31,399.09 22.99,48.68 22.98,24.42 22.97,-47.24 22.98,-5.94 23.13,-27.96 22.98,-8.67 22.97,-29.24 22.98,-19.44 22.97,12.85 22.98,40.81 22.97,15.42 23.14,-74.26 22.97,93.7 22.98,1.77 22.97,-0.32 22.98,45.14 22.97,3.06 23.03,-17.36"/>
    <path id="path42" style="fill:#00a1e2;fill-opacity:1;fill-rule:nonzero;stroke:none" d="m 114.39,399.1 c 0,-2.22 -1.8,-4.02 -4.02,-4.02 -2.22,0 -4.02,1.8 -4.02,4.02 0,2.22 1.8,4.02 4.02,4.02 2.22,0 4.02,-1.8 4.02,-4.02 z"/>
    <path id="path44" style="fill:none;stroke:#005aa4;stroke-width:0.66943002;stroke-linecap:round;stroke-linejoin:round;stroke-miterlimit:10;stroke-dasharray:none;stroke-opacity:1" d="m 114.39,399.1 c 0,-2.22 -1.8,-4.02 -4.02,-4.02 -2.22,0 -4.02,1.8 -4.02,4.02 0,2.22 1.8,4.02 4.02,4.02 2.22,0 4.02,-1.8 4.02,-4.02 z"/>
    <path id="path46" style="fill:#00a1e2;fill-opacity:1;fill-rule:nonzero;stroke:none" d="m 137.36,447.78 c 0,-2.22 -1.8,-4.02 -4.01,-4.02 -2.22,0 -4.02,1.8 -4.02,4.02 0,2.22 1.8,4.02 4.02,4.02 2.21,0 4.01,-1.8 4.01,-4.02 z"/>
    <path id="path48" style="fill:none;stroke:#005aa4;stroke-width:0.66943002;stroke-linecap:round;stroke-linejoin:round;stroke-miterlimit:10;stroke-dasharray:none;stroke-opacity:1" d="m 137.36,447.78 c 0,-2.22 -1.8,-4.02 -4.01,-4.02 -2.22,0 -4.02,1.8 -4.02,4.02 0,2.22 1.8,4.02 4.02,4.02 2.21,0 4.01,-1.8 4.01,-4.02 z"/>
    <path id="path50" style="fill:#00a1e2;fill-opacity:1;fill-rule:nonzero;stroke:none" d="m 160.34,472.2 c 0,-2.22 -1.8,-4.01 -4.02,-4.01 -2.22,0 -4.02,1.79 -4.02,4.01 0,2.22 1.8,4.02 4.02,4.02 2.22,0 4.02,-1.8 4.02,-4.02 z"/>
    <path id="path52" style="fill:none;stroke:#005aa4;stroke-width:0.66943002;stroke-linecap:round;stroke-linejoin:round;stroke-miterlimit:10;stroke-dasharray:none;stroke-opacity:1" d="m 160.34,472.2 c 0,-2.22 -1.8,-4.01 -4.02,-4.01 -2.22,0 -4.02,1.79 -4.02,4.01 0,2.22 1.8,4.02 4.02,4.02 2.22,0 4.02,-1.8 4.02,-4.02 z"/>
    <path id="path54" style="fill:#00a1e2;fill-opacity:1;fill-rule:nonzero;stroke:none" d="m 183.31,424.97 c 0,-2.22 -1.8,-4.02 -4.01,-4.02 -2.22,0 -4.02,1.8 -4.02,4.02 0,2.22 1.8,4.01 4.02,4.01 2.21,0 4.01,-1.79 4.01,-4.01 z"/>
    <path id="path56" style="fill:none;stroke:#005aa4;stroke-width:0.66943002;stroke-linecap:round;stroke-linejoin:round;stroke-miterlimit:10;stroke-dasharray:none;stroke-opacity:1" d="m 183.31,424.97 c 0,-2.22 -1.8,-4.02 -4.01,-4.02 -2.22,0 -4.02,1.8 -4.02,4.02 0,2.22 1.8,4.01 4.02,4.01 2.21,0 4.01,-1.79 4.01,-4.01 z"/>
    <path id="path58" style="fill:#00a1e2;fill-opacity:1;fill-rule:nonzero;stroke:none" d="m 206.29,419.02 c 0,-2.22 -1.8,-4.01 -4.02,-4.01 -2.22,0 -4.02,1.79 -4.02,4.01 0,2.22 1.8,4.02 4.02,4.02 2.22,0 4.02,-1.8 4.02,-4.02 z"/>
    <path id="path60" style="fill:none;stroke:#005aa4;stroke-width:0.66943002;stroke-linecap:round;stroke-linejoin:round;stroke-miterlimit:10;stroke-dasharray:none;stroke-opacity:1" d="m 206.29,419.02 c 0,-2.22 -1.8,-4.01 -4.02,-4.01 -2.22,0 -4.02,1.79 -4.02,4.01 0,2.22 1.8,4.02 4.02,4.02 2.22,0 4.02,-1.8 4.02,-4.02 z"/>
    <path id="path62" style="fill:#00a1e2;fill-opacity:1;fill-rule:nonzero;stroke:none" d="m 229.42,391.07 c 0,-2.22 -1.8,-4.02 -4.01,-4.02 -2.22,0 -4.02,1.8 -4.02,4.02 0,2.22 1.8,4.01 4.02,4.01 2.21,0 4.01,-1.79 4.01,-4.01 z"/>
    <path id="path64" style="fill:none;stroke:#005aa4;stroke-width:0.66943002;stroke-linecap:round;stroke-linejoin:round;stroke-miterlimit:10;stroke-dasharray:none;stroke-opacity:1" d="m 229.42,391.07 c 0,-2.22 -1.8,-4.02 -4.01,-4.02 -2.22,0 -4.02,1.8 -4.02,4.02 0,2.22 1.8,4.01 4.02,4.01 2.21,0 4.01,-1.79 4.01,-4.01 z"/>
    <path id="path66" style="fill:#00a1e2;fill-opacity:1;fill-rule:nonzero;stroke:none" d="m 252.4,382.39 c 0,-2.22 -1.8,-4.02 -4.02,-4.02 -2.22,0 -4.02,1.8 -4.02,4.02 0,2.22 1.8,4.02 4.02,4.02 2.22,0 4.02,-1.8 4.02,-4.02 z"/>
    <path id="path68" style="fill:none;stroke:#005aa4;stroke-width:0.66943002;stroke-linecap:round;stroke-linejoin:round;stroke-miterlimit:10;stroke-dasharray:none;stroke-opacity:1" d="m 252.4,382.39 c 0,-2.22 -1.8,-4.02 -4.02,-4.02 -2.22,0 -4.02,1.8 -4.02,4.02 0,2.22 1.8,4.02 4.02,4.02 2.22,0 4.02,-1.8 4.02,-4.02 z"/>
    <path id="path70" style="fill:#00a1e2;fill-opacity:1;fill-rule:nonzero;stroke:none" d="m 275.37,353.15 c 0,-2.22 -1.8,-4.02 -4.02,-4.02 -2.21,0 -4.01,1.8 -4.01,4.02 0,2.22 1.8,4.02 4.01,4.02 2.22,0 4.02,-1.8 4.02,-4.02 z"/>
    <path id="path72" style="fill:none;stroke:#005aa4;stroke-width:0.66943002;stroke-linecap:round;stroke-linejoin:round;stroke-miterlimit:10;stroke-dasharray:none;stroke-opacity:1" d="m 275.37,353.15 c 0,-2.22 -1.8,-4.02 -4.02,-4.02 -2.21,0 -4.01,1.8 -4.01,4.02 0,2.22 1.8,4.02 4.01,4.02 2.22,0 4.02,-1.8 4.02,-4.02 z"/>
    <path id="path74" style="fill:#00a1e2;fill-opacity:1;fill-rule:nonzero;stroke:none" d="m 298.35,333.71 c 0,-2.22 -1.8,-4.02 -4.02,-4.02 -2.22,0 -4.02,1.8 -4.02,4.02 0,2.22 1.8,4.02 4.02,4.02 2.22,0 4.02,-1.8 4.02,-4.02 z"/>
    <path id="path76" style="fill:none;stroke:#005aa4;stroke-width:0.66943002;stroke-linecap:round;stroke-linejoin:round;stroke-miterlimit:10;stroke-dasharray:none;stroke-opacity:1" d="m 298.35,333.71 c 0,-2.22 -1.8,-4.02 -4.02,-4.02 -2.22,0 -4.02,1.8 -4.02,4.02 0,2.22 1.8,4.02 4.02,4.02 2.22,0 4.02,-1.8 4.02,-4.02 z"/>
    <path id="path78" style="fill:#00a1e2;fill-opacity:1;fill-rule:nonzero;stroke:none" d="m 321.32,346.56 c 0,-2.21 -1.8,-4.01 -4.02,-4.01 -2.21,0 -4.01,1.8 -4.01,4.01 0,2.22 1.8,4.02 4.01,4.02 2.22,0 4.02,-1.8 4.02,-4.02 z"/>
    <path id="path80" style="fill:none;stroke:#005aa4;stroke-width:0.66943002;stroke-linecap:round;stroke-linejoin:round;stroke-miterlimit:10;stroke-dasharray:none;stroke-opacity:1" d="m 321.32,346.56 c 0,-2.21 -1.8,-4.01 -4.02,-4.01 -2.21,0 -4.01,1.8 -4.01,4.01 0,2.22 1.8,4.02 4.01,4.02 2.22,0 4.02,-1.8 4.02,-4.02 z"/>
    <path id="path82" style="fill:#00a1e2;fill-opacity:1;fill-rule:nonzero;stroke:none" d="m 344.3,387.37 c 0,-2.22 -1.8,-4.01 -4.02,-4.01 -2.22,0 -4.02,1.79 -4.02,4.01 0,2.22 1.8,4.02 4.02,4.02 2.22,0 4.02,-1.8 4.02,-4.02 z"/>
    <path id="path84" style="fill:none;stroke:#005aa4;stroke-width:0.66943002;stroke-linecap:round;stroke-linejoin:round;stroke-miterlimit:10;stroke-dasharray:none;stroke-opacity:1" d="m 344.3,387.37 c 0,-2.22 -1.8,-4.01 -4.02,-4.01 -2.22,0 -4.02,1.79 -4.02,4.01 0,2.22 1.8,4.02 4.02,4.02 2.22,0 4.02,-1.8 4.02,-4.02 z"/>
    <path id="path86" style="fill:#00a1e2;fill-opacity:1;fill-rule:nonzero;stroke:none" d="m 367.27,402.8 c 0,-2.22 -1.8,-4.02 -4.02,-4.02 -2.21,0 -4.01,1.8 -4.01,4.02 0,2.21 1.8,4.01 4.01,4.01 2.22,0 4.02,-1.8 4.02,-4.01 z"/>
    <path id="path88" style="fill:none;stroke:#005aa4;stroke-width:0.66943002;stroke-linecap:round;stroke-linejoin:round;stroke-miterlimit:10;stroke-dasharray:none;stroke-opacity:1" d="m 367.27,402.8 c 0,-2.22 -1.8,-4.02 -4.02,-4.02 -2.21,0 -4.01,1.8 -4.01,4.02 0,2.21 1.8,4.01 4.01,4.01 2.22,0 4.02,-1.8 4.02,-4.01 z"/>
    <path id="path90" style="fill:#00a1e2;fill-opacity:1;fill-rule:nonzero;stroke:none" d="m 390.41,328.57 c 0,-2.22 -1.8,-4.02 -4.02,-4.02 -2.22,0 -4.02,1.8 -4.02,4.02 0,2.22 1.8,4.02 4.02,4.02 2.22,0 4.02,-1.8 4.02,-4.02 z"/>
    <path id="path92" style="fill:none;stroke:#005aa4;stroke-width:0.66943002;stroke-linecap:round;stroke-linejoin:round;stroke-miterlimit:10;stroke-dasharray:none;stroke-opacity:1" d="m 390.41,328.57 c 0,-2.22 -1.8,-4.02 -4.02,-4.02 -2.22,0 -4.02,1.8 -4.02,4.02 0,2.22 1.8,4.02 4.02,4.02 2.22,0 4.02,-1.8 4.02,-4.02 z"/>
    <path id="path94" style="fill:#00a1e2;fill-opacity:1;fill-rule:nonzero;stroke:none" d="m 413.38,422.24 c 0,-2.22 -1.8,-4.02 -4.02,-4.02 -2.21,0 -4.01,1.8 -4.01,4.02 0,2.21 1.8,4.01 4.01,4.01 2.22,0 4.02,-1.8 4.02,-4.01 z"/>
    <path id="path96" style="fill:none;stroke:#005aa4;stroke-width:0.66943002;stroke-linecap:round;stroke-linejoin:round;stroke-miterlimit:10;stroke-dasharray:none;stroke-opacity:1" d="m 413.38,422.24 c 0,-2.22 -1.8,-4.02 -4.02,-4.02 -2.21,0 -4.01,1.8 -4.01,4.02 0,2.21 1.8,4.01 4.01,4.01 2.22,0 4.02,-1.8 4.02,-4.01 z"/>
    <path id="path98" style="fill:#00a1e2;fill-opacity:1;fill-rule:nonzero;stroke:none" d="m 436.36,424 c 0,-2.22 -1.8,-4.01 -4.02,-4.01 -2.22,0 -4.02,1.79 -4.02,4.01 0,2.22 1.8,4.02 4.02,4.02 2.22,0 4.02,-1.8 4.02,-4.02 z"/>
    <path id="path100" style="fill:none;stroke:#005aa4;stroke-width:0.66943002;stroke-linecap:round;stroke-linejoin:round;stroke-miterlimit:10;stroke-dasharray:none;stroke-opacity:1" d="m 436.36,424 c 0,-2.22 -1.8,-4.01 -4.02,-4.01 -2.22,0 -4.02,1.79 -4.02,4.01 0,2.22 1.8,4.02 4.02,4.02 2.22,0 4.02,-1.8 4.02,-4.02 z"/>
    <path id="path102" style="fill:#00a1e2;fill-opacity:1;fill-rule:nonzero;stroke:none" d="m 459.33,423.68 c 0,-2.22 -1.8,-4.01 -4.02,-4.01 -2.21,0 -4.01,1.79 -4.01,4.01 0,2.22 1.8,4.02 4.01,4.02 2.22,0 4.02,-1.8 4.02,-4.02 z"/>
    <path id="path104" style="fill:none;stroke:#005aa4;stroke-width:0.66943002;stroke-linecap:round;stroke-linejoin:round;stroke-miterlimit:10;stroke-dasharray:none;stroke-opacity:1" d="m 459.33,423.68 c 0,-2.22 -1.8,-4.01 -4.02,-4.01 -2.21,0 -4.01,1.79 -4.01,4.01 0,2.22 1.8,4.02 4.01,4.02 2.22,0 4.02,-1.8 4.02,-4.02 z"/>
    <path id="path106" style="fill:#00a1e2;fill-opacity:1;fill-rule:nonzero;stroke:none" d="m 482.31,468.83 c 0,-2.22 -1.8,-4.02 -4.02,-4.02 -2.22,0 -4.02,1.8 -4.02,4.02 0,2.22 1.8,4.01 4.02,4.01 2.22,0 4.02,-1.79 4.02,-4.01 z"/>
    <path id="path108" style="fill:none;stroke:#005aa4;stroke-width:0.66943002;stroke-linecap:round;stroke-linejoin:round;stroke-miterlimit:10;stroke-dasharray:none;stroke-opacity:1" d="m 482.31,468.83 c 0,-2.22 -1.8,-4.02 -4.02,-4.02 -2.22,0 -4.02,1.8 -4.02,4.02 0,2.22 1.8,4.01 4.02,4.01 2.22,0 4.02,-1.79 4.02,-4.01 z"/>
    <path id="path110" style="fill:#00a1e2;fill-opacity:1;fill-rule:nonzero;stroke:none" d="m 505.28,471.88 c 0,-2.22 -1.8,-4.02 -4.02,-4.02 -2.22,0 -4.01,1.8 -4.01,4.02 0,2.22 1.79,4.02 4.01,4.02 2.22,0 4.02,-1.8 4.02,-4.02 z"/>
    <path id="path112" style="fill:none;stroke:#005aa4;stroke-width:0.66943002;stroke-linecap:round;stroke-linejoin:round;stroke-miterlimit:10;stroke-dasharray:none;stroke-opacity:1" d="m 505.28,471.88 c 0,-2.22 -1.8,-4.02 -4.02,-4.02 -2.22,0 -4.01,1.8 -4.01,4.02 0,2.22 1.79,4.02 4.01,4.02 2.22,0 4.02,-1.8 4.02,-4.02 z"/>
    <path id="path114" style="fill:#00a1e2;fill-opacity:1;fill-rule:nonzero;stroke:none" d="m 528.25,454.53 c 0,-2.22 -1.79,-4.02 -4.01,-4.02 -2.22,0 -4.02,1.8 -4.02,4.02 0,2.22 1.8,4.02 4.02,4.02 2.22,0 4.01,-1.8 4.01,-4.02 z"/>
    <path id="path116" style="fill:none;stroke:#005aa4;stroke-width:0.66943002;stroke-linecap:round;stroke-linejoin:round;stroke-miterlimit:10;stroke-dasharray:none;stroke-opacity:1" d="m 528.25,454.53 c 0,-2.22 -1.79,-4.02 -4.01,-4.02 -2.22,0 -4.02,1.8 -4.02,4.02 0,2.22 1.8,4.02 4.02,4.02 2.22,0 4.01,-1.8 4.01,-4.02 z"/>
    <g id="g118">
      <g clip-path="url(#clipPath122)" id="g120"><text id="text126" style="font-variant:normal;font-weight:normal;font-size:12.04800034px;font-family:'Roboto Condensed';-inkscape-font-specification:RobotoCondensed-Regular;writing-mode:lr-tb;fill:#000000;fill-opacity:1;fill-rule:nonzero;stroke:none" transform="matrix(1,0,0,-1,60.984,300.46)"><tspan id="tspan128" y="0" x="0 3.0601921 9.0119038 14.963616 20.915327">-1000</tspan></text>
</g>
    </g>
    <g id="g130">
      <g clip-path="url(#clipPath134)" id="g132"><text id="text138" style="font-variant:normal;font-weight:normal;font-size:12.04800034px;font-family:'Roboto Condensed';-inkscape-font-specification:RobotoCondensed-Regular;writing-mode:lr-tb;fill:#000000;fill-opacity:1;fill-rule:nonzero;stroke:none" transform="matrix(1,0,0,-1,66.936,322.2)"><tspan id="tspan140" y="0" x="0 3.0601921 9.0119038 14.963616">-500</tspan></text>
</g>
    </g>
    <g id="g142">
      <g clip-path="url(#clipPath146)" id="g144"><text id="text150" style="font-variant:normal;font-weight:normal;font-size:12.04800034px;font-family:'Roboto Condensed';-inkscape-font-specification:RobotoCondensed-Regular;writing-mode:lr-tb;fill:#000000;fill-opacity:1;fill-rule:nonzero;stroke:none" transform="matrix(1,0,0,-1,81.84,343.94)"><tspan id="tspan152" y="0" x="0">0</tspan></text>
</g>
    </g>
    <g id="g154">
      <g clip-path="url(#clipPath158)" id="g156"><text id="text162" style="font-variant:normal;font-weight:normal;font-size:12.04800034px;font-family:'Roboto Condensed';-inkscape-font-specification:RobotoCondensed-Regular;writing-mode:lr-tb;fill:#000000;fill-opacity:1;fill-rule:nonzero;stroke:none" transform="matrix(1,0,0,-1,69.936,365.69)"><tspan id="tspan164" y="0" x="0 5.9519992 11.903998">500</tspan></text>
</g>
    </g>
    <g id="g166">
      <g clip-path="url(#clipPath170)" id="g168"><text id="text174" style="font-variant:normal;font-weight:normal;font-size:12.04800034px;font-family:'Roboto Condensed';-inkscape-font-specification:RobotoCondensed-Regular;writing-mode:lr-tb;fill:#000000;fill-opacity:1;fill-rule:nonzero;stroke:none" transform="matrix(1,0,0,-1,63.984,387.43)"><tspan id="tspan176" y="0" x="0 5.9519992 11.903998 17.855997">1000</tspan></text>
</g>
    </g>
    <g id="g178">
      <g clip-path="url(#clipPath182)" id="g180"><text id="text186" style="font-variant:normal;font-weight:normal;font-size:12.04800034px;font-family:'Roboto Condensed';-inkscape-font-specification:RobotoCondensed-Regular;writing-mode:lr-tb;fill:#000000;fill-opacity:1;fill-rule:nonzero;stroke:none" transform="matrix(1,0,0,-1,63.984,409.18)"><tspan id="tspan188" y="0" x="0 5.9519992 11.903998 17.855997">1500</tspan></text>
</g>
    </g>
    <g id="g190">
      <g clip-path="url(#clipPath194)" id="g192"><text id="text198" style="font-variant:normal;font-weight:normal;font-size:12.07199955px;font-family:'Roboto Condensed';-inkscape-font-specification:RobotoCondensed-Regular;writing-mode:lr-tb;fill:#000000;fill-opacity:1;fill-rule:nonzero;stroke:none" transform="matrix(1,0,0,-1,63.984,430.94)"><tspan id="tspan200" y="0" x="0 5.9519682 11.903936 17.855904">2000</tspan></text>
</g>
    </g>
    <g id="g202">
      <g clip-path="url(#clipPath206)" id="g204"><text id="text210" style="font-variant:normal;font-weight:normal;font-size:12.04800034px;font-family:'Roboto Condensed';-inkscape-font-specification:RobotoCondensed-Regular;writing-mode:lr-tb;fill:#000000;fill-opacity:1;fill-rule:nonzero;stroke:none" transform="matrix(1,0,0,-1,63.984,452.69)"><tspan id="tspan212" y="0" x="0 5.9519992 11.903998 17.855997">2500</tspan></text>
</g>
    </g>
    <g id="g214">
      <g clip-path="url(#clipPath218)" id="g216"><text id="text222" style="font-variant:normal;font-weight:normal;font-size:12.04800034px;font-family:'Roboto Condensed';-inkscape-font-specification:RobotoCondensed-Regular;writing-mode:lr-tb;fill:#000000;fill-opacity:1;fill-rule:nonzero;stroke:none" transform="matrix(1,0,0,-1,63.984,474.43)"><tspan id="tspan224" y="0" x="0 5.9519992 11.903998 17.855997">3000</tspan></text>
</g>
    </g>
    <g id="g226">
      <g clip-path="url(#clipPath230)" id="g228"><text id="text234" style="font-variant:normal;font-weight:normal;font-size:12.07199955px;font-family:'Roboto Condensed';-inkscape-font-specification:RobotoCondensed-Regular;writing-mode:lr-tb;fill:#000000;fill-opacity:1;fill-rule:nonzero;stroke:none" transform="matrix(1,0,0,-1,103.34,285)"><tspan id="tspan236" y="0" x="0 2.100528 8.0158081">'08</tspan></text>
</g>
    </g>
    <g id="g238">
      <g clip-path="url(#clipPath242)" id="g240"><text id="text246" style="font-variant:normal;font-weight:normal;font-size:12.07199955px;font-family:'Roboto Condensed';-inkscape-font-specification:RobotoCondensed-Regular;writing-mode:lr-tb;fill:#000000;fill-opacity:1;fill-rule:nonzero;stroke:none" transform="matrix(1,0,0,-1,127.39,285)"><tspan id="tspan248" y="0" x="0 5.927968">09</tspan></text>
</g>
    </g>
    <g id="g250">
      <g clip-path="url(#clipPath254)" id="g252"><text id="text258" style="font-variant:normal;font-weight:normal;font-size:12.07199955px;font-family:'Roboto Condensed';-inkscape-font-specification:RobotoCondensed-Regular;writing-mode:lr-tb;fill:#000000;fill-opacity:1;fill-rule:nonzero;stroke:none" transform="matrix(1,0,0,-1,149.33,285)"><tspan id="tspan260" y="0" x="0 2.088028 8.0390959">'10</tspan></text>
</g>
    </g>
    <g id="g262">
      <g clip-path="url(#clipPath266)" id="g264"><text id="text270" style="font-variant:normal;font-weight:normal;font-size:12.07199955px;font-family:'Roboto Condensed';-inkscape-font-specification:RobotoCondensed-Regular;writing-mode:lr-tb;fill:#000000;fill-opacity:1;fill-rule:nonzero;stroke:none" transform="matrix(1,0,0,-1,172.34,285)"><tspan id="tspan272" y="0" x="0 2.100528 8.0158081">'11</tspan></text>
</g>
    </g>
    <g id="g274">
      <g clip-path="url(#clipPath278)" id="g276"><text id="text282" style="font-variant:normal;font-weight:normal;font-size:12.07199955px;font-family:'Roboto Condensed';-inkscape-font-specification:RobotoCondensed-Regular;writing-mode:lr-tb;fill:#000000;fill-opacity:1;fill-rule:nonzero;stroke:none" transform="matrix(1,0,0,-1,195.34,285)"><tspan id="tspan284" y="0" x="0 2.088028 8.0390959">'12</tspan></text>
</g>
    </g>
    <g id="g286">
      <g clip-path="url(#clipPath290)" id="g288"><text id="text294" style="font-variant:normal;font-weight:normal;font-size:12.07199955px;font-family:'Roboto Condensed';-inkscape-font-specification:RobotoCondensed-Regular;writing-mode:lr-tb;fill:#000000;fill-opacity:1;fill-rule:nonzero;stroke:none" transform="matrix(1,0,0,-1,218.33,285)"><tspan id="tspan296" y="0" x="0 2.088028 8.0390959">'13</tspan></text>
</g>
    </g>
    <g id="g298">
      <g clip-path="url(#clipPath302)" id="g300"><text id="text306" style="font-variant:normal;font-weight:normal;font-size:12.07199955px;font-family:'Roboto Condensed';-inkscape-font-specification:RobotoCondensed-Regular;writing-mode:lr-tb;fill:#000000;fill-opacity:1;fill-rule:nonzero;stroke:none" transform="matrix(1,0,0,-1,241.34,285)"><tspan id="tspan308" y="0" x="0 2.100528 8.0158081">'14</tspan></text>
</g>
    </g>
    <g id="g310">
      <g clip-path="url(#clipPath314)" id="g312"><text id="text318" style="font-variant:normal;font-weight:normal;font-size:12.07199955px;font-family:'Roboto Condensed';-inkscape-font-specification:RobotoCondensed-Regular;writing-mode:lr-tb;fill:#000000;fill-opacity:1;fill-rule:nonzero;stroke:none" transform="matrix(1,0,0,-1,264.34,285)"><tspan id="tspan320" y="0" x="0 2.088028 8.0390959">'15</tspan></text>
</g>
    </g>
    <g id="g322">
      <g clip-path="url(#clipPath326)" id="g324"><text id="text330" style="font-variant:normal;font-weight:normal;font-size:12.07199955px;font-family:'Roboto Condensed';-inkscape-font-specification:RobotoCondensed-Regular;writing-mode:lr-tb;fill:#000000;fill-opacity:1;fill-rule:nonzero;stroke:none" transform="matrix(1,0,0,-1,287.33,285)"><tspan id="tspan332" y="0" x="0 2.100528 8.0640965">'16</tspan></text>
</g>
    </g>
    <g id="g334">
      <g clip-path="url(#clipPath338)" id="g336"><text id="text342" style="font-variant:normal;font-weight:normal;font-size:12.07199955px;font-family:'Roboto Condensed';-inkscape-font-specification:RobotoCondensed-Regular;writing-mode:lr-tb;fill:#000000;fill-opacity:1;fill-rule:nonzero;stroke:none" transform="matrix(1,0,0,-1,310.34,285)"><tspan id="tspan344" y="0" x="0 2.088028 8.0390959">'17</tspan></text>
</g>
    </g>
    <g id="g346">
      <g clip-path="url(#clipPath350)" id="g348"><text id="text354" style="font-variant:normal;font-weight:normal;font-size:12.07199955px;font-family:'Roboto Condensed';-inkscape-font-specification:RobotoCondensed-Regular;writing-mode:lr-tb;fill:#000000;fill-opacity:1;fill-rule:nonzero;stroke:none" transform="matrix(1,0,0,-1,333.34,285)"><tspan id="tspan356" y="0" x="0 2.088028 8.0390959">'18</tspan></text>
</g>
    </g>
    <g id="g358">
      <g clip-path="url(#clipPath362)" id="g360"><text id="text366" style="font-variant:normal;font-weight:normal;font-size:12.07199955px;font-family:'Roboto Condensed';-inkscape-font-specification:RobotoCondensed-Regular;writing-mode:lr-tb;fill:#000000;fill-opacity:1;fill-rule:nonzero;stroke:none" transform="matrix(1,0,0,-1,356.35,285)"><tspan id="tspan368" y="0" x="0 2.100528 8.0158081">'19</tspan></text>
</g>
    </g>
    <g id="g370">
      <g clip-path="url(#clipPath374)" id="g372"><text id="text378" style="font-variant:normal;font-weight:normal;font-size:12.07199955px;font-family:'Roboto Condensed';-inkscape-font-specification:RobotoCondensed-Regular;writing-mode:lr-tb;fill:#000000;fill-opacity:1;fill-rule:nonzero;stroke:none" transform="matrix(1,0,0,-1,379.34,285)"><tspan id="tspan380" y="0" x="0 2.088028 8.0390959">'20</tspan></text>
</g>
    </g>
    <g id="g382">
      <g clip-path="url(#clipPath386)" id="g384"><text id="text390" style="font-variant:normal;font-weight:normal;font-size:12.07199955px;font-family:'Roboto Condensed';-inkscape-font-specification:RobotoCondensed-Regular;writing-mode:lr-tb;fill:#000000;fill-opacity:1;fill-rule:nonzero;stroke:none" transform="matrix(1,0,0,-1,402.34,285)"><tspan id="tspan392" y="0" x="0 2.088028 8.0390959">'21</tspan></text>
</g>
    </g>
    <g id="g394">
      <g clip-path="url(#clipPath398)" id="g396"><text id="text402" style="font-variant:normal;font-weight:normal;font-size:12.07199955px;font-family:'Roboto Condensed';-inkscape-font-specification:RobotoCondensed-Regular;writing-mode:lr-tb;fill:#000000;fill-opacity:1;fill-rule:nonzero;stroke:none" transform="matrix(1,0,0,-1,425.35,285)"><tspan id="tspan404" y="0" x="0 2.100528 8.0158081">'22</tspan></text>
</g>
    </g>
    <g id="g406">
      <g clip-path="url(#clipPath410)" id="g408"><text id="text414" style="font-variant:normal;font-weight:normal;font-size:12.07199955px;font-family:'Roboto Condensed';-inkscape-font-specification:RobotoCondensed-Regular;writing-mode:lr-tb;fill:#000000;fill-opacity:1;fill-rule:nonzero;stroke:none" transform="matrix(1,0,0,-1,448.34,285)"><tspan id="tspan416" y="0" x="0 2.088028 8.0390959">'23</tspan></text>
</g>
    </g>
    <g id="g418">
      <g clip-path="url(#clipPath422)" id="g420"><text id="text426" style="font-variant:normal;font-weight:normal;font-size:12.07199955px;font-family:'Roboto Condensed';-inkscape-font-specification:RobotoCondensed-Regular;writing-mode:lr-tb;fill:#000000;fill-opacity:1;fill-rule:nonzero;stroke:none" transform="matrix(1,0,0,-1,471.34,285)"><tspan id="tspan428" y="0" x="0 2.088028 8.0390959">'24</tspan></text>
</g>
    </g>
    <g id="g430">
      <g clip-path="url(#clipPath434)" id="g432"><text id="text438" style="font-variant:normal;font-weight:normal;font-size:12.07199955px;font-family:'Roboto Condensed';-inkscape-font-specification:RobotoCondensed-Regular;writing-mode:lr-tb;fill:#000000;fill-opacity:1;fill-rule:nonzero;stroke:none" transform="matrix(1,0,0,-1,491.52,285)"><tspan id="tspan440" y="0" x="0 2.088028 8.0390959 13.990164">'25e</tspan></text>
</g>
    </g>
    <g id="g442">
      <g clip-path="url(#clipPath446)" id="g444"><text id="text450" style="font-variant:normal;font-weight:normal;font-size:12.07199955px;font-family:'Roboto Condensed';-inkscape-font-specification:RobotoCondensed-Regular;writing-mode:lr-tb;fill:#000000;fill-opacity:1;fill-rule:nonzero;stroke:none" transform="matrix(1,0,0,-1,514.54,285)"><tspan id="tspan452" y="0" x="0 2.100528 8.0158081 13.979376">'26e</tspan></text>
</g>
    </g>
    <path id="path454" style="fill:#d0b86a;fill-opacity:1;fill-rule:evenodd;stroke:none" d="m 114.12,503.91 25.706,0 0,6.5068 -25.706,0 0,-6.5068 z"/>
    <g id="g456">
      <g clip-path="url(#clipPath460)" id="g458"><text id="text464" style="font-variant:normal;font-weight:normal;font-size:12.04800034px;font-family:'Roboto Condensed';-inkscape-font-specification:RobotoCondensed-Regular;writing-mode:lr-tb;fill:#000000;fill-opacity:1;fill-rule:nonzero;stroke:none" transform="matrix(1,0,0,-1,142.56,503.54)"><tspan id="tspan466" y="0" x="0 6.7709761 13.047984 15.806976 19.638241 25.589952 28.348944 34.288609 40.059601">US ($ bn)</tspan></text>
</g>
    </g>
    <path id="path468" style="fill:#93959b;fill-opacity:1;fill-rule:evenodd;stroke:none" d="m 221.64,503.91 25.706,0 0,6.5068 -25.706,0 0,-6.5068 z"/>
    <g id="g470">
      <g clip-path="url(#clipPath474)" id="g472"><text id="text478" style="font-variant:normal;font-weight:normal;font-size:12.04800034px;font-family:'Roboto Condensed';-inkscape-font-specification:RobotoCondensed-Regular;writing-mode:lr-tb;fill:#000000;fill-opacity:1;fill-rule:nonzero;stroke:none" transform="matrix(1,0,0,-1,250.1,503.54)"><tspan id="tspan480" y="0" x="0 6.9396482 13.650384 20.529793 23.288784 27.156193 33.107903 35.866898 41.806561 47.577553">AUD ($ bn)</tspan></text>
</g>
    </g>
    <path id="path482" style="fill:#c6efff;fill-opacity:1;fill-rule:evenodd;stroke:none" d="m 329.16,503.91 25.706,0 0,6.5068 -25.706,0 0,-6.5068 z"/>
    <g id="g484">
      <g clip-path="url(#clipPath488)" id="g486"><text id="text492" style="font-variant:normal;font-weight:normal;font-size:12.04800034px;font-family:'Roboto Condensed';-inkscape-font-specification:RobotoCondensed-Regular;writing-mode:lr-tb;fill:#000000;fill-opacity:1;fill-rule:nonzero;stroke:none" transform="matrix(1,0,0,-1,357.65,503.54)"><tspan id="tspan494" y="0" x="0 7.3974719 13.819056 16.578049 20.252687 26.204399 29.071823 35.01149 40.84272">NZ ($ bn)</tspan></text>
</g>
    </g>
    <path id="path496" style="fill:#00a1e2;fill-opacity:1;fill-rule:evenodd;stroke:none" d="m 436.68,503.91 25.706,0 0,6.5068 -25.706,0 0,-6.5068 z"/>
    <g id="g498">
      <g clip-path="url(#clipPath502)" id="g500"><text id="text506" style="font-variant:normal;font-weight:normal;font-size:12.04800034px;font-family:'Roboto Condensed';-inkscape-font-specification:RobotoCondensed-Regular;writing-mode:lr-tb;fill:#000000;fill-opacity:1;fill-rule:nonzero;stroke:none" transform="matrix(1,0,0,-1,465.19,503.54)"><tspan id="tspan508" y="0" x="0 6.9035039 13.843152 21.204479 23.915279 27.746544 33.698257 36.38496 42.324623 48.095615">CAN ($ bn)</tspan></text>
</g>
    </g>
    <path id="path510" style="fill:#6769b5;fill-opacity:1;fill-rule:evenodd;stroke:none" d="m 114.12,483.03 25.706,0 0,6.5068 -25.706,0 0,-6.5068 z"/>
    <g id="g512">
      <g clip-path="url(#clipPath516)" id="g514"><text id="text520" style="font-variant:normal;font-weight:normal;font-size:12.04800034px;font-family:'Roboto Condensed';-inkscape-font-specification:RobotoCondensed-Regular;writing-mode:lr-tb;fill:#000000;fill-opacity:1;fill-rule:nonzero;stroke:none" transform="matrix(1,0,0,-1,142.56,482.66)"><tspan id="tspan522" y="0" x="0 5.8191838 11.590176 17.52984 23.300833 29.083872 31.975391 35.674129 41.625839 44.38483 50.324497 56.252113">Japan ($ bn)</tspan></text>
</g>
    </g>
    <path id="path524" style="fill:#005aa4;fill-opacity:1;fill-rule:evenodd;stroke:none" d="m 221.64,483.03 25.706,0 0,6.5068 -25.706,0 0,-6.5068 z"/>
    <g id="g526">
      <g clip-path="url(#clipPath530)" id="g528"><text id="text534" style="font-variant:normal;font-weight:normal;font-size:12.04800034px;font-family:'Roboto Condensed';-inkscape-font-specification:RobotoCondensed-Regular;writing-mode:lr-tb;fill:#000000;fill-opacity:1;fill-rule:nonzero;stroke:none" transform="matrix(1,0,0,-1,250.1,482.66)"><tspan id="tspan536" y="0" x="0 6.7709761 13.337136 16.096128 19.927391 25.879105 28.638096 34.577759 40.348751">UK ($ bn)</tspan></text>
</g>
    </g>
    <path id="path538" style="fill:#3bc3a3;fill-opacity:1;fill-rule:evenodd;stroke:none" d="m 329.16,483.03 25.706,0 0,6.5068 -25.706,0 0,-6.5068 z"/>
    <g id="g540">
      <g clip-path="url(#clipPath544)" id="g542"><text id="text548" style="font-variant:normal;font-weight:normal;font-size:12.04800034px;font-family:'Roboto Condensed';-inkscape-font-specification:RobotoCondensed-Regular;writing-mode:lr-tb;fill:#000000;fill-opacity:1;fill-rule:nonzero;stroke:none" transform="matrix(1,0,0,-1,357.65,482.66)"><tspan id="tspan550" y="0" x="0 5.9878559 11.891376 15.42144 21.50568 24.264671 28.095936 34.047649 36.806641 42.746304 48.517296">Euro ($ bn)</tspan></text>
</g>
    </g>
    <path id="path552" style="fill:none;stroke:#005aa4;stroke-width:2.00830007;stroke-linecap:round;stroke-linejoin:round;stroke-miterlimit:10;stroke-dasharray:none;stroke-opacity:1" d="m 436.68,486.28 25.7,0"/>
    <path id="path554" style="fill:#00a1e2;fill-opacity:1;fill-rule:nonzero;stroke:none" d="m 452.86,486.33 c 0,-1.87 -1.51,-3.38 -3.37,-3.38 -1.87,0 -3.38,1.51 -3.38,3.38 0,1.86 1.51,3.37 3.38,3.37 1.86,0 3.37,-1.51 3.37,-3.37 z"/>
    <path id="path556" style="fill:none;stroke:#005aa4;stroke-width:0.66943002;stroke-linecap:round;stroke-linejoin:round;stroke-miterlimit:10;stroke-dasharray:none;stroke-opacity:1" d="m 452.86,486.33 c 0,-1.87 -1.51,-3.38 -3.37,-3.38 -1.87,0 -3.38,1.51 -3.38,3.38 0,1.86 1.51,3.37 3.38,3.37 1.86,0 3.37,-1.51 3.37,-3.37 z"/>
    <g id="g558">
      <g clip-path="url(#clipPath562)" id="g560"><text id="text566" style="font-variant:normal;font-weight:normal;font-size:12.04800034px;font-family:'Roboto Condensed';-inkscape-font-specification:RobotoCondensed-Regular;writing-mode:lr-tb;fill:#000000;fill-opacity:1;fill-rule:nonzero;stroke:none" transform="matrix(1,0,0,-1,465.19,482.66)"><tspan id="tspan568" y="0" x="0 7.0601282 13.01184 15.855168 22.132175 28.047745 31.601904 37.372894">G7 Total</tspan></text>
</g>
    </g>
    <g id="g570">
      <g clip-path="url(#clipPath574)" id="g572"><text id="text578" style="font-variant:normal;font-weight:normal;font-size:12.04800034px;font-family:'Roboto Condensed';-inkscape-font-specification:RobotoCondensed-Regular;writing-mode:lr-tb;fill:#000000;fill-opacity:1;fill-rule:nonzero;stroke:none" transform="matrix(1,0,0,-1,58.296,493.15)"><tspan id="tspan580" y="0" x="0 6.7709761 13.01184 19.891249 22.65024 28.589905">USD bn</tspan></text>
</g>
    </g>
  </g>
</svg>
