<svg version="1.1" width="100%" height="100%" viewBox="0 0 355 180" xmlns="http://www.w3.org/2000/svg" xmlns:xlink="http://www.w3.org/1999/xlink"><style type="text/css" /><defs><clipPath id="clip001"><path d="M0,0 L413.3333,0 L413.3333,225.3333 L0,225.3333 Z" clip-rule="evenodd" /></clipPath><clipPath id="clip002"><path d="M0,0 L413.3333,0 L413.3333,225.3333 L0,225.3333 Z" clip-rule="evenodd" /></clipPath><clipPath id="clip003"><path d="M0,0 L413.3333,0 L413.3333,225.3333 L0,225.3333 Z" clip-rule="evenodd" /></clipPath><clipPath id="clip004"><path d="M0,0 L780,0 L780,241.3333 L0,241.3333 Z" clip-rule="evenodd" /></clipPath><clipPath id="clip005"><path d="M-120,0 L900,0 L900,241.3333 L-120,241.3333 Z" clip-rule="evenodd" /></clipPath><clipPath id="clip006"><path d="M0,0 L412,0 L412,224 L0,224 Z" clip-rule="evenodd" /></clipPath><clipPath id="clip007"><path d="M40,9.333333 L402.6667,9.333333 L402.6667,164 L40,164 Z" clip-rule="evenodd" /></clipPath><clipPath id="clip008"><path d="M0,0 L412,0 L412,224 L0,224 Z" clip-rule="evenodd" /></clipPath><clipPath id="clip009"><path d="M0,0 L412,0 L412,224 L0,224 Z" clip-rule="evenodd" /></clipPath><clipPath id="clip010"><path d="M0,0 L412,0 L412,224 L0,224 Z" clip-rule="evenodd" /></clipPath><clipPath id="clip011"><path d="M0,0 L412,0 L412,224 L0,224 Z" clip-rule="evenodd" /></clipPath><clipPath id="clip012"><path d="M0,0 L412,0 L412,224 L0,224 Z" clip-rule="evenodd" /></clipPath><clipPath id="clip013"><path d="M0,0 L412,0 L412,224 L0,224 Z" clip-rule="evenodd" /></clipPath><clipPath id="clip014"><path d="M0,0 L412,0 L412,224 L0,224 Z" clip-rule="evenodd" /></clipPath><clipPath id="clip015"><path d="M0,0 L412,0 L412,224 L0,224 Z" clip-rule="evenodd" /></clipPath><clipPath id="clip016"><path d="M0,0 L412,0 L412,224 L0,224 Z" clip-rule="evenodd" /></clipPath><clipPath id="clip017"><path d="M0,0 L412,0 L412,224 L0,224 Z" clip-rule="evenodd" /></clipPath><clipPath id="clip018"><path d="M0,0 L412,0 L412,224 L0,224 Z" clip-rule="evenodd" /></clipPath><clipPath id="clip019"><path d="M0,0 L412,0 L412,224 L0,224 Z" clip-rule="evenodd" /></clipPath><clipPath id="clip020"><path d="M0,0 L412,0 L412,224 L0,224 Z" clip-rule="evenodd" /></clipPath><clipPath id="clip021"><path d="M0,0 L412,0 L412,224 L0,224 Z" clip-rule="evenodd" /></clipPath><clipPath id="clip022"><path d="M0,0 L412,0 L412,224 L0,224 Z" clip-rule="evenodd" /></clipPath><clipPath id="clip023"><path d="M0,0 L412,0 L412,224 L0,224 Z" clip-rule="evenodd" /></clipPath><clipPath id="clip024"><path d="M0,0 L412,0 L412,224 L0,224 Z" clip-rule="evenodd" /></clipPath><clipPath id="clip025"><path d="M0,0 L412,0 L412,224 L0,224 Z" clip-rule="evenodd" /></clipPath><clipPath id="clip026"><path d="M0,0 L412,0 L412,224 L0,224 Z" clip-rule="evenodd" /></clipPath><clipPath id="clip027"><path d="M0,0 L412,0 L412,224 L0,224 Z" clip-rule="evenodd" /></clipPath><clipPath id="clip028"><path d="M0,0 L412,0 L412,224 L0,224 Z" clip-rule="evenodd" /></clipPath><clipPath id="clip029"><path d="M0,0 L412,0 L412,224 L0,224 Z" clip-rule="evenodd" /></clipPath><clipPath id="clip030"><path d="M0,0 L412,0 L412,224 L0,224 Z" clip-rule="evenodd" /></clipPath><clipPath id="clip031"><path d="M0,0 L412,0 L412,224 L0,224 Z" clip-rule="evenodd" /></clipPath><clipPath id="clip032"><path d="M0,0 L412,0 L412,224 L0,224 Z" clip-rule="evenodd" /></clipPath><clipPath id="clip033"><path d="M0,0 L412,0 L412,224 L0,224 Z" clip-rule="evenodd" /></clipPath><clipPath id="clip034"><path d="M0,0 L412,0 L412,224 L0,224 Z" clip-rule="evenodd" /></clipPath><clipPath id="clip035"><path d="M0,0 L412,0 L412,224 L0,224 Z" clip-rule="evenodd" /></clipPath><clipPath id="clip036"><path d="M0,0 L412,0 L412,224 L0,224 Z" clip-rule="evenodd" /></clipPath><clipPath id="clip037"><path d="M0,0 L412,0 L412,224 L0,224 Z" clip-rule="evenodd" /></clipPath><clipPath id="clip038"><path d="M0,0 L413.3333,0 L413.3333,225.3333 L0,225.3333 Z" clip-rule="evenodd" /></clipPath><clipPath id="clip039"><path d="M0,0 L413.3333,0 L413.3333,225.3333 L0,225.3333 Z" clip-rule="evenodd" /></clipPath><clipPath id="clip040"><path d="M0,0 L413.3333,0 L413.3333,225.3333 L0,225.3333 Z" clip-rule="evenodd" /></clipPath><clipPath id="clip041"><path d="M0,0 L413.3333,0 L413.3333,225.3333 L0,225.3333 Z" clip-rule="evenodd" /></clipPath><clipPath id="clip042"><path d="M0,0 L413.3333,0 L413.3333,225.3333 L0,225.3333 Z" clip-rule="evenodd" /></clipPath><clipPath id="clip043"><path d="M0,0 L413.3333,0 L413.3333,225.3333 L0,225.3333 Z" clip-rule="evenodd" /></clipPath><clipPath id="clip044"><path d="M0,0 L413.3333,0 L413.3333,225.3333 L0,225.3333 Z" clip-rule="evenodd" /></clipPath><clipPath id="clip045"><path d="M0,0 L413.3333,0 L413.3333,225.3333 L0,225.3333 Z" clip-rule="evenodd" /></clipPath><clipPath id="clip046"><path d="M0,0 L413.3333,0 L413.3333,225.3333 L0,225.3333 Z" clip-rule="evenodd" /></clipPath><clipPath id="clip047"><path d="M0,0 L413.3333,0 L413.3333,225.3333 L0,225.3333 Z" clip-rule="evenodd" /></clipPath></defs><clipPath id="page-clip-path-1"><rect x="0" y="0" width="354.67" height="180" /></clipPath><g clip-path="url(#page-clip-path-1)" transform="translate(0.17,0)"><g transform="translate(1,1)"><g><g transform="matrix(0.7996774,0,0,0.7973373,0,0)" clip-path="url(#clip001)"><g><g clip-path="url(#clip002)"><g><g clip-path="url(#clip003)"><g transform="matrix(1.002173,0,0,1.005901,0,0)"><g><g><g clip-path="url(#clip004)"><g transform="translate(412,225.3333)" /></g></g></g><g clip-path="url(#clip005)"><g transform="matrix(0.000098425,0,0,0.000098425,0,0)"><path d="M0,0 L4199467,0 L4199467,2275840 L0,2275840 Z" fill="#ffffff" fill-opacity="0" fill-rule="evenodd" /></g></g><g clip-path="url(#clip006)"><g transform="matrix(0.000098425,0,0,0.000098425,40.66667,163.3333)"><g><path d="M0.002460024,-6773.333 L3671147,-6772 " stroke-width="3386.667" stroke-linejoin="round" stroke-miterlimit="13.33333" stroke="#000000" fill="none" fill-rule="evenodd" /><path d="M-0.001230012,3386.667 L3671147,3388 " stroke-width="10160" stroke-linejoin="round" stroke-miterlimit="13.33333" stroke="#000000" fill="none" fill-rule="evenodd" /></g></g></g><g clip-path="url(#clip007)"><g transform="matrix(0.000098425,0,0,0.000098425,7.333333,34)"><path d="M0,1137920 L0,1137920 L0,1137920 L13546.67,1137920 L13546.67,1137920 L13546.67,1137920 L13546.67,1137920 L27093.33,1137920 L27093.33,1137920 L27093.33,1137920 L27093.33,1137920 L27093.33,1137920 L27093.33,1137920 L40640,1137920 L40640,1137920 L40640,1151467 L40640,1151467 L54186.67,1151467 L54186.67,1151467 L54186.67,1151467 L54186.67,1151467 L54186.67,1151467 L54186.67,1151467 L67733.34,1151467 L67733.34,1151467 L67733.34,1151467 L67733.34,1151467 L108373.3,1151467 L108373.3,1151467 L108373.3,1151467 L108373.3,1151467 L108373.3,1151467 L108373.3,1151467 L108373.3,1151467 L108373.3,1151467 L121920,1151467 L121920,1151467 L135466.7,1151467 L135466.7,1151467 L135466.7,1165013 L135466.7,1165013 L135466.7,1165013 L135466.7,1165013 L135466.7,1165013 L135466.7,1165013 L149013.3,1165013 L149013.3,1165013 L149013.3,1178560 L149013.3,1178560 L162560,1178560 L162560,1178560 L162560,1178560 L162560,1178560 L162560,1178560 L162560,1178560 L176106.7,1178560 L176106.7,1178560 L176106.7,1178560 L176106.7,1178560 L189653.3,1178560 L189653.3,1178560 L189653.3,1178560 L189653.3,1178560 L189653.3,1178560 L189653.3,1178560 L189653.3,1178560 L189653.3,1178560 L203200,1192107 L203200,1192107 L216746.7,1192107 L216746.7,1192107 L216746.7,1192107 L216746.7,1192107 L216746.7,1192107 L216746.7,1192107 L216746.7,1192107 L216746.7,1192107 L230293.3,1192107 L230293.3,1192107 L243840,1192107 L243840,1192107 L243840,1192107 L243840,1192107 L243840,1192107 L243840,1192107 L243840,1192107 L243840,1192107 L257386.7,1205653 L257386.7,1205653 L257386.7,1205653 L257386.7,1205653 L270933.3,1205653 L270933.3,1205653 L270933.3,1205653 L270933.3,1205653 L270933.3,1205653 L270933.3,1205653 L284480,1205653 L284480,1205653 L284480,1205653 L284480,1205653 L298026.7,1205653 L298026.7,1205653 L298026.7,1205653 L298026.7,1205653 L298026.7,1205653 L298026.7,1205653 L311573.3,1205653 L311573.3,1205653 L311573.3,1205653 L311573.3,1205653 L325120,1205653 L325120,1205653 L325120,1205653 L325120,1205653 L325120,1205653 L325120,1205653 L338666.7,1205653 L338666.7,1205653 L338666.7,1205653 L338666.7,1205653 L352213.3,1219200 L352213.3,1219200 L352213.3,1219200 L352213.3,1219200 L365760,1219200 L365760,1219200 L365760,1219200 L365760,1219200 L365760,1219200 L365760,1219200 L379306.7,1219200 L379306.7,1219200 L379306.7,1219200 L379306.7,1219200 L392853.3,1219200 L392853.3,1219200 L392853.3,1219200 L392853.3,1219200 L392853.3,1219200 L392853.3,1219200 L406400,1219200 L406400,1219200 L406400,1219200 L406400,1219200 L419946.7,1219200 L419946.7,1219200 L419946.7,1219200 L419946.7,1219200 L419946.7,1219200 L419946.7,1219200 L433493.3,1205653 L433493.3,1205653 L433493.3,1205653 L433493.3,1205653 L447040,1205653 L447040,1205653 L447040,1205653 L447040,1205653 L460586.7,1205653 L460586.7,1205653 L460586.7,1205653 L460586.7,1205653 L474133.3,1205653 L474133.3,1205653 L474133.3,1205653 L474133.3,1205653 L474133.3,1205653 L474133.3,1205653 L474133.3,1205653 L474133.3,1205653 L487680,1205653 L487680,1205653 L501226.7,1192107 L501226.7,1192107 L501226.7,1192107 L501226.7,1192107 L501226.7,1192107 L501226.7,1192107 L501226.7,1192107 L501226.7,1192107 L514773.3,1192107 L514773.3,1192107 L514773.3,1192107 L514773.3,1192107 L528320,1192107 L528320,1192107 L528320,1192107 L528320,1192107 L528320,1192107 L528320,1192107 L541866.7,1192107 L541866.7,1192107 L541866.7,1205653 L541866.7,1205653 L555413.3,1205653 L555413.3,1205653 L555413.3,1205653 L555413.3,1205653 L555413.3,1205653 L555413.3,1205653 L568960,1205653 L568960,1205653 L568960,1205653 L568960,1205653 L582506.7,1205653 L582506.7,1205653 L582506.7,1205653 L582506.7,1205653 L582506.7,1205653 L582506.7,1205653 L582506.7,1205653 L582506.7,1205653 L596053.3,1205653 L596053.3,1205653 L609600,1205653 L609600,1205653 L609600,1205653 L609600,1205653 L609600,1205653 L609600,1205653 L609600,1205653 L609600,1205653 L623146.7,1205653 L623146.7,1205653 L623146.7,1205653 L623146.7,1205653 L636693.3,1205653 L636693.3,1205653 L650240,1205653 L650240,1205653 L650240,1205653 L650240,1205653 L663786.7,1205653 L663786.7,1205653 L663786.7,1205653 L663786.7,1205653 L663786.7,1205653 L663786.7,1205653 L677333.3,1205653 L677333.3,1205653 L677333.3,1205653 L677333.3,1205653 L690880,1205653 L690880,1205653 L690880,1205653 L690880,1205653 L690880,1205653 L690880,1205653 L704426.7,1205653 L704426.7,1205653 L704426.7,1205653 L704426.7,1205653 L717973.3,1205653 L717973.3,1205653 L717973.3,1205653 L717973.3,1205653 L717973.3,1205653 L717973.3,1205653 L731520,1205653 L731520,1205653 L731520,1205653 L731520,1205653 L731520,1205653 L731520,1205653 L745066.7,1205653 L745066.7,1205653 L745066.7,1205653 L745066.7,1205653 L758613.3,1205653 L758613.3,1205653 L758613.3,1205653 L758613.3,1205653 L758613.3,1205653 L758613.3,1205653 L772160,1205653 L772160,1205653 L772160,1205653 L772160,1205653 L785706.7,1205653 L785706.7,1205653 L785706.7,1205653 L785706.7,1205653 L785706.7,1205653 L785706.7,1205653 L799253.3,1205653 L799253.3,1205653 L799253.3,1205653 L799253.3,1205653 L812800,1205653 L812800,1205653 L812800,1205653 L812800,1205653 L812800,1205653 L812800,1205653 L826346.7,1205653 L826346.7,1205653 L826346.7,1205653 L826346.7,1205653 L839893.3,1205653 L839893.3,1205653 L839893.3,1219200 L839893.3,1219200 L839893.3,1219200 L839893.3,1219200 L839893.3,1219200 L839893.3,1219200 L853440,1219200 L853440,1219200 L866986.7,1219200 L866986.7,1219200 L866986.7,1219200 L866986.7,1219200 L866986.7,1219200 L866986.7,1219200 L866986.7,1219200 L866986.7,1219200 L880533.3,1219200 L880533.3,1219200 L894080,1205653 L894080,1205653 L894080,1205653 L894080,1205653 L894080,1205653 L894080,1205653 L894080,1205653 L894080,1205653 L907626.7,1205653 L907626.7,1205653 L907626.7,1205653 L907626.7,1205653 L921173.3,1205653 L921173.3,1205653 L921173.3,1205653 L921173.3,1205653 L921173.3,1205653 L921173.3,1205653 L934720,1205653 L934720,1205653 L934720,1205653 L934720,1205653 L948266.7,1205653 L948266.7,1205653 L948266.7,1205653 L948266.7,1205653 L948266.7,1205653 L948266.7,1205653 L948266.7,1205653 L948266.7,1205653 L961813.3,1205653 L961813.3,1205653 L975360,1205653 L975360,1205653 L975360,1205653 L975360,1205653 L975360,1205653 L975360,1205653 L975360,1205653 L975360,1205653 L988906.7,1205653 L988906.7,1205653 L988906.7,1205653 L988906.7,1205653 L1002453,1205653 L1002453,1205653 L1002453,1205653 L1002453,1205653 L1016000,1205653 L1016000,1205653 L1016000,1205653 L1016000,1205653 L1029547,1205653 L1029547,1205653 L1029547,1205653 L1029547,1205653 L1029547,1205653 L1029547,1205653 L1043093,1205653 L1043093,1205653 L1043093,1205653 L1043093,1205653 L1056640,1205653 L1056640,1205653 L1056640,1205653 L1056640,1205653 L1056640,1205653 L1056640,1205653 L1070187,1205653 L1070187,1205653 L1070187,1205653 L1070187,1205653 L1083733,1205653 L1083733,1205653 L1083733,1205653 L1083733,1205653 L1083733,1205653 L1083733,1205653 L1097280,1205653 L1097280,1205653 L1097280,1205653 L1097280,1205653 L1097280,1205653 L1097280,1205653 L1110827,1205653 L1110827,1205653 L1110827,1205653 L1110827,1205653 L1124373,1205653 L1124373,1205653 L1124373,1205653 L1124373,1205653 L1124373,1205653 L1124373,1205653 L1137920,1205653 L1137920,1205653 L1137920,1205653 L1137920,1205653 L1151467,1205653 L1151467,1205653 L1151467,1205653 L1151467,1205653 L1151467,1205653 L1151467,1205653 L1165013,1205653 L1165013,1205653 L1165013,1205653 L1165013,1205653 L1178560,1205653 L1178560,1205653 L1178560,1205653 L1178560,1205653 L1178560,1205653 L1178560,1205653 L1192107,1205653 L1192107,1205653 L1192107,1205653 L1192107,1205653 L1205653,1205653 L1205653,1205653 L1205653,1205653 L1205653,1205653 L1205653,1205653 L1205653,1205653 L1205653,1205653 L1205653,1205653 L1219200,1205653 L1219200,1205653 L1232747,1205653 L1232747,1205653 L1232747,1205653 L1232747,1205653 L1232747,1192107 L1232747,1192107 L1232747,1192107 L1232747,1192107 L1246293,1192107 L1246293,1192107 L1259840,1192107 L1259840,1192107 L1259840,1192107 L1259840,1192107 L1259840,1192107 L1259840,1192107 L1259840,1192107 L1259840,1192107 L1273387,1192107 L1273387,1192107 L1273387,1192107 L1273387,1192107 L1286933,1192107 L1286933,1192107 L1286933,1192107 L1286933,1192107 L1286933,1192107 L1286933,1192107 L1300480,1192107 L1300480,1192107 L1300480,1192107 L1300480,1192107 L1314027,1192107 L1314027,1192107 L1314027,1192107 L1314027,1192107 L1314027,1192107 L1314027,1192107 L1314027,1192107 L1314027,1192107 L1327573,1192107 L1327573,1192107 L1341120,1192107 L1341120,1192107 L1341120,1192107 L1341120,1192107 L1341120,1192107 L1341120,1192107 L1341120,1192107 L1341120,1192107 L1368213,1192107 L1368213,1192107 L1368213,1192107 L1368213,1192107 L1368213,1192107 L1368213,1192107 L1368213,1192107 L1368213,1192107 L1381760,1192107 L1381760,1192107 L1381760,1192107 L1381760,1192107 L1395307,1192107 L1395307,1192107 L1395307,1192107 L1395307,1192107 L1395307,1192107 L1395307,1192107 L1408853,1192107 L1408853,1192107 L1408853,1192107 L1408853,1192107 L1422400,1192107 L1422400,1192107 L1422400,1192107 L1422400,1192107 L1422400,1192107 L1422400,1192107 L1435947,1192107 L1435947,1192107 L1435947,1192107 L1435947,1192107 L1449493,1178560 L1449493,1178560 L1449493,1178560 L1449493,1178560 L1449493,1178560 L1449493,1178560 L1463040,1178560 L1463040,1178560 L1463040,1178560 L1463040,1178560 L1476587,1178560 L1476587,1178560 L1476587,1178560 L1476587,1178560 L1476587,1178560 L1476587,1178560 L1490133,1178560 L1490133,1178560 L1490133,1178560 L1490133,1178560 L1490133,1178560 L1490133,1178560 L1503680,1178560 L1503680,1178560 L1530773,1178560 L1530773,1178560 L1530773,1178560 L1530773,1178560 L1544320,1178560 L1544320,1178560 L1544320,1178560 L1544320,1178560 L1544320,1178560 L1544320,1178560 L1557867,1178560 L1557867,1178560 L1557867,1178560 L1557867,1178560 L1571413,1178560 L1571413,1178560 L1571413,1178560 L1571413,1178560 L1571413,1178560 L1571413,1178560 L1584960,1178560 L1584960,1178560 L1584960,1178560 L1584960,1178560 L1598507,1178560 L1598507,1178560 L1598507,1178560 L1598507,1178560 L1598507,1178560 L1598507,1178560 L1598507,1178560 L1598507,1178560 L1612053,1178560 L1612053,1178560 L1625600,1178560 L1625600,1178560 L1625600,1178560 L1625600,1178560 L1625600,1178560 L1625600,1178560 L1625600,1178560 L1625600,1178560 L1639147,1178560 L1639147,1178560 L1639147,1178560 L1639147,1178560 L1652693,1178560 L1652693,1178560 L1652693,1178560 L1652693,1178560 L1652693,1178560 L1652693,1178560 L1666240,1178560 L1666240,1178560 L1666240,1178560 L1666240,1178560 L1679787,1178560 L1679787,1178560 L1679787,1178560 L1679787,1178560 L1679787,1178560 L1679787,1178560 L1693333,1178560 L1693333,1178560 L1693333,1178560 L1693333,1178560 L1706880,1178560 L1706880,1178560 L1706880,1178560 L1706880,1178560 L1720427,1178560 L1720427,1178560 L1733973,1178560 L1733973,1178560 L1733973,1165013 L1733973,1165013 L1733973,1165013 L1733973,1165013 L1733973,1165013 L1733973,1165013 L1747520,1165013 L1747520,1165013 L1747520,1165013 L1747520,1165013 L1761067,1165013 L1761067,1165013 L1761067,1165013 L1761067,1165013 L1761067,1165013 L1761067,1165013 L1774613,1165013 L1774613,1165013 L1774613,1165013 L1774613,1165013 L1788160,1165013 L1788160,1165013 L1788160,1165013 L1788160,1165013 L1788160,1165013 L1788160,1165013 L1801707,1165013 L1801707,1165013 L1801707,1165013 L1801707,1165013 L1815253,1165013 L1815253,1165013 L1815253,1165013 L1815253,1165013 L1828800,1165013 L1828800,1165013 L1828800,1165013 L1828800,1165013 L1842347,1165013 L1842347,1165013 L1842347,1165013 L1842347,1165013 L1842347,1165013 L1842347,1165013 L1855893,1165013 L1855893,1165013 L1855893,1165013 L1855893,1165013 L1855893,1165013 L1855893,1165013 L1869440,1165013 L1869440,1165013 L1869440,1165013 L1869440,1165013 L1882987,1165013 L1882987,1165013 L1882987,1165013 L1882987,1165013 L1882987,1165013 L1882987,1165013 L1896533,1165013 L1896533,1165013 L1896533,1165013 L1896533,1165013 L1910080,1165013 L1910080,1165013 L1910080,1165013 L1910080,1165013 L1910080,1165013 L1910080,1165013 L1923627,1165013 L1923627,1165013 L1923627,1165013 L1923627,1165013 L1937173,1165013 L1937173,1165013 L1937173,1165013 L1937173,1165013 L1937173,1165013 L1937173,1165013 L1950720,1165013 L1950720,1165013 L1950720,1165013 L1950720,1165013 L1964267,1165013 L1964267,1165013 L1964267,1165013 L1964267,1165013 L1964267,1165013 L1964267,1165013 L1977813,1165013 L1977813,1165013 L1991360,1165013 L1991360,1165013 L1991360,1165013 L1991360,1165013 L1991360,1165013 L1991360,1165013 L1991360,1165013 L1991360,1165013 L2004907,1165013 L2004907,1165013 L2018453,1165013 L2018453,1165013 L2018453,1165013 L2018453,1165013 L2018453,1165013 L2018453,1165013 L2018453,1165013 L2018453,1165013 L2032000,1165013 L2032000,1165013 L2032000,1165013 L2032000,1165013 L2045547,1165013 L2045547,1165013 L2045547,1165013 L2045547,1165013 L2045547,1165013 L2045547,1165013 L2059093,1165013 L2059093,1165013 L2059093,1165013 L2059093,1165013 L2072640,1165013 L2072640,1165013 L2072640,1165013 L2072640,1165013 L2072640,1165013 L2072640,1165013 L2072640,1165013 L2072640,1165013 L2086187,1165013 L2086187,1165013 L2099733,1165013 L2099733,1165013 L2099733,1165013 L2099733,1165013 L2099733,1151467 L2099733,1151467 L2099733,1151467 L2099733,1151467 L2113280,1151467 L2113280,1151467 L2126827,1151467 L2126827,1151467 L2126827,1151467 L2126827,1151467 L2126827,1151467 L2126827,1151467 L2126827,1151467 L2126827,1151467 L2140373,1151467 L2140373,1151467 L2140373,1151467 L2140373,1151467 L2153920,1151467 L2153920,1151467 L2153920,1151467 L2153920,1151467 L2153920,1151467 L2153920,1151467 L2167467,1151467 L2167467,1151467 L2167467,1151467 L2167467,1151467 L2181013,1151467 L2181013,1151467 L2181013,1151467 L2181013,1151467 L2181013,1151467 L2181013,1151467 L2194560,1151467 L2194560,1151467 L2194560,1151467 L2194560,1151467 L2208107,1151467 L2208107,1151467 L2208107,1151467 L2208107,1151467 L2208107,1151467 L2208107,1151467 L2221653,1151467 L2221653,1151467 L2221653,1151467 L2221653,1151467 L2235200,1151467 L2235200,1151467 L2235200,1151467 L2235200,1151467 L2235200,1151467 L2235200,1151467 L2248747,1151467 L2248747,1151467 L2248747,1151467 L2248747,1151467 L2248747,1151467 L2248747,1151467 L2262293,1151467 L2262293,1151467 L2262293,1151467 L2262293,1151467 L2275840,1151467 L2275840,1151467 L2275840,1151467 L2275840,1151467 L2275840,1151467 L2275840,1151467 L2289387,1151467 L2289387,1151467 L2289387,1151467 L2289387,1151467 L2302933,1151467 L2302933,1151467 L2302933,1151467 L2302933,1151467 L2302933,1165013 L2302933,1165013 L2316480,1165013 L2316480,1165013 L2316480,1165013 L2316480,1165013 L2330027,1165013 L2330027,1165013 L2330027,1165013 L2330027,1165013 L2343573,1165013 L2343573,1165013 L2343573,1165013 L2343573,1165013 L2357120,1165013 L2357120,1165013 L2357120,1165013 L2357120,1165013 L2357120,1165013 L2357120,1165013 L2357120,1165013 L2357120,1165013 L2370667,1165013 L2370667,1165013 L2384213,1165013 L2384213,1165013 L2384213,1165013 L2384213,1165013 L2384213,1165013 L2384213,1165013 L2384213,1165013 L2384213,1165013 L2397760,1165013 L2397760,1165013 L2397760,1165013 L2397760,1165013 L2411307,1165013 L2411307,1165013 L2411307,1165013 L2411307,1165013 L2411307,1165013 L2411307,1165013 L2424853,1165013 L2424853,1165013 L2424853,1165013 L2424853,1165013 L2438400,1165013 L2438400,1165013 L2438400,1165013 L2438400,1165013 L2438400,1165013 L2438400,1165013 L2451947,1165013 L2451947,1165013 L2451947,1165013 L2451947,1165013 L2465493,1165013 L2465493,1165013 L2465493,1165013 L2465493,1165013 L2465493,1165013 L2465493,1165013 L2465493,1165013 L2465493,1165013 L2479040,1165013 L2479040,1165013 L2492587,1165013 L2492587,1165013 L2492587,1165013 L2492587,1165013 L2492587,1165013 L2492587,1165013 L2492587,1165013 L2492587,1165013 L2506133,1165013 L2506133,1165013 L2506133,1165013 L2506133,1165013 L2519680,1165013 L2519680,1165013 L2519680,1165013 L2519680,1165013 L2519680,1165013 L2519680,1165013 L2533227,1165013 L2533227,1165013 L2533227,1165013 L2533227,1165013 L2546773,1165013 L2546773,1165013 L2546773,1165013 L2546773,1165013 L2546773,1165013 L2546773,1165013 L2560320,1165013 L2560320,1165013 L2560320,1165013 L2560320,1165013 L2573867,1165013 L2573867,1165013 L2573867,1165013 L2573867,1165013 L2573867,1165013 L2573867,1165013 L2587413,1165013 L2587413,1165013 L2587413,1165013 L2587413,1165013 L2600960,1165013 L2600960,1165013 L2600960,1165013 L2600960,1165013 L2600960,1165013 L2600960,1165013 L2614507,1165013 L2614507,1165013 L2614507,1165013 L2614507,1165013 L2614507,1165013 L2614507,1165013 L2628053,1165013 L2628053,1165013 L2628053,1165013 L2628053,1165013 L2641600,1165013 L2641600,1165013 L2641600,1165013 L2641600,1165013 L2641600,1165013 L2641600,1165013 L2655147,1165013 L2655147,1165013 L2655147,1165013 L2655147,1165013 L2668693,1178560 L2668693,1178560 L2668693,1178560 L2668693,1178560 L2668693,1178560 L2668693,1178560 L2682240,1178560 L2682240,1178560 L2682240,1178560 L2682240,1178560 L2695787,1178560 L2695787,1178560 L2695787,1178560 L2695787,1178560 L2695787,1178560 L2695787,1178560 L2709333,1178560 L2709333,1178560 L2709333,1178560 L2709333,1178560 L2722880,1178560 L2722880,1178560 L2722880,1178560 L2722880,1178560 L2722880,1178560 L2722880,1178560 L2736427,1178560 L2736427,1178560 L2749973,1178560 L2749973,1178560 L2749973,1178560 L2749973,1178560 L2749973,1178560 L2749973,1178560 L2749973,1178560 L2749973,1178560 L2763520,1178560 L2763520,1178560 L2763520,1178560 L2763520,1178560 L2777067,1178560 L2777067,1178560 L2777067,1178560 L2777067,1178560 L2777067,1178560 L2777067,1178560 L2790613,1178560 L2790613,1178560 L2790613,1178560 L2790613,1178560 L2804160,1178560 L2804160,1178560 L2804160,1178560 L2804160,1178560 L2804160,1178560 L2804160,1178560 L2817707,1178560 L2817707,1178560 L2817707,1178560 L2817707,1178560 L2844800,1178560 L2844800,1178560 L2858347,1178560 L2858347,1178560 L2858347,1178560 L2858347,1178560 L2858347,1178560 L2858347,1178560 L2858347,1178560 L2858347,1178560 L2871893,1178560 L2871893,1178560 L2871893,1178560 L2871893,1178560 L2885440,1165013 L2885440,1165013 L2885440,1165013 L2885440,1165013 L2885440,1165013 L2885440,1165013 L2898987,1165013 L2898987,1165013 L2898987,1165013 L2898987,1165013 L2912533,1165013 L2912533,1165013 L2912533,1165013 L2912533,1165013 L2912533,1165013 L2912533,1165013 L2926080,1165013 L2926080,1165013 L2926080,1165013 L2926080,1165013 L2939627,1165013 L2939627,1165013 L2939627,1165013 L2939627,1165013 L2939627,1165013 L2939627,1165013 L2953173,1165013 L2953173,1165013 L2953173,1165013 L2953173,1165013 L2966720,1165013 L2966720,1165013 L2966720,1165013 L2966720,1165013 L2966720,1151467 L2966720,1151467 L2980267,1151467 L2980267,1151467 L2980267,1151467 L2980267,1151467 L2980267,1151467 L2980267,1151467 L2993813,1151467 L2993813,1151467 L2993813,1151467 L2993813,1151467 L3007360,1151467 L3007360,1151467 L3007360,1151467 L3007360,1151467 L3007360,1151467 L3007360,1151467 L3020907,1151467 L3020907,1151467 L3020907,1151467 L3020907,1151467 L3034453,1151467 L3034453,1151467 L3034453,1151467 L3034453,1151467 L3034453,1151467 L3034453,1151467 L3048000,1137920 L3048000,1137920 L3048000,1137920 L3048000,1137920 L3061547,1137920 L3061547,1137920 L3061547,1137920 L3061547,1137920 L3061547,1137920 L3061547,1137920 L3075093,1137920 L3075093,1137920 L3088640,1137920 L3088640,1137920 L3088640,1137920 L3088640,1137920 L3088640,1137920 L3088640,1137920 L3088640,1137920 L3088640,1137920 L3102187,1137920 L3102187,1137920 L3115733,1137920 L3115733,1137920 L3115733,1137920 L3115733,1137920 L3115733,1137920 L3115733,1137920 L3115733,1137920 L3115733,1137920 L3129280,1137920 L3129280,1137920 L3142827,1137920 L3142827,1137920 L3142827,1137920 L3142827,1137920 L3142827,1124373 L3142827,1124373 L3142827,1124373 L3142827,1124373 L3156373,1124373 L3156373,1124373 L3156373,1124373 L3156373,1124373 L3169920,1124373 L3169920,1124373 L3169920,1124373 L3169920,1124373 L3183467,1124373 L3183467,1124373 L3183467,1124373 L3183467,1124373 L3197013,1124373 L3197013,1124373 L3197013,1124373 L3197013,1124373 L3197013,1124373 L3197013,1124373 L3197013,1124373 L3197013,1124373 L3210560,1124373 L3210560,1124373 L3224107,1124373 L3224107,1124373 L3224107,1137920 L3224107,1137920 L3224107,1137920 L3224107,1137920 L3224107,1137920 L3224107,1137920 L3237653,1137920 L3237653,1137920 L3251200,1137920 L3251200,1137920 L3251200,1137920 L3251200,1137920 L3251200,1137920 L3251200,1137920 L3251200,1137920 L3251200,1137920 L3264747,1137920 L3264747,1137920 L3264747,1137920 L3264747,1137920 L3278293,1124373 L3278293,1124373 L3278293,1124373 L3278293,1124373 L3278293,1124373 L3278293,1124373 L3291840,1124373 L3291840,1124373 L3291840,1124373 L3291840,1124373 L3305387,1124373 L3305387,1124373 L3305387,1124373 L3305387,1124373 L3305387,1124373 L3305387,1124373 L3318933,1124373 L3318933,1124373 L3318933,1110827 L3318933,1110827 L3332480,1110827 L3332480,1110827 L3332480,1110827 L3332480,1110827 L3332480,1110827 L3332480,1110827 L3346027,1110827 L3346027,1110827 L3346027,1110827 L3346027,1110827 L3359573,1110827 L3359573,1110827 L3359573,1110827 L3359573,1110827 L3359573,1110827 L3359573,1110827 L3373120,1110827 L3373120,1110827 L3373120,1097280 L3373120,1097280 L3373120,1097280 L3373120,1097280 L3386667,1097280 L3386667,1097280 L3386667,1097280 L3386667,1097280 L3400213,1097280 L3400213,1097280 L3400213,1097280 L3400213,1097280 L3400213,1097280 L3400213,1097280 L3413760,1097280 L3413760,1097280 L3413760,1097280 L3413760,1097280 L3427307,1097280 L3427307,1097280 L3427307,1097280 L3427307,1097280 L3427307,1097280 L3427307,1097280 L3440853,1097280 L3440853,1097280 L3440853,1097280 L3440853,1097280 L3454400,1097280 L3454400,1097280 L3454400,1097280 L3454400,1097280 L3454400,1097280 L3454400,1097280 L3467947,1097280 L3467947,1097280 L3467947,1097280 L3467947,1097280 L3481493,1097280 L3481493,1097280 L3481493,1097280 L3481493,1097280 L3481493,1097280 L3481493,1097280 L3481493,1097280 L3481493,1097280 L3495040,1097280 L3495040,1097280 L3508587,1097280 L3508587,1097280 L3508587,1097280 L3508587,1097280 L3508587,1097280 L3508587,1097280 L3508587,1097280 L3508587,1097280 L3522133,1097280 L3522133,1097280 L3522133,1097280 L3522133,1097280 L3535680,1097280 L3535680,1097280 L3535680,1097280 L3535680,1097280 L3535680,1097280 L3535680,1097280 L3549227,1097280 L3549227,1097280 L3549227,1097280 L3549227,1097280 L3562773,1097280 L3562773,1097280 L3562773,1097280 L3562773,1097280 L3562773,1097280 L3562773,1097280 L3576320,1097280 L3576320,1097280 L3576320,1097280 L3576320,1097280 L3589867,1097280 L3589867,1097280 L3589867,1097280 L3589867,1097280 L3589867,1097280 L3589867,1097280 L3589867,1097280 L3589867,1097280 L3603413,1110827 L3603413,1110827 L3616960,1110827 L3616960,1110827 L3616960,1110827 L3616960,1110827 L3616960,1110827 L3616960,1110827 L3616960,1110827 L3616960,1110827 L3630507,1110827 L3630507,1110827 L3630507,1097280 L3630507,1097280 L3644053,1097280 L3644053,1097280 L3644053,1097280 L3644053,1097280 L3644053,1097280 L3644053,1097280 L3657600,1097280 L3657600,1097280 L3657600,1097280 L3657600,1097280 L3671147,1097280 L3671147,1097280 L3671147,1097280 L3671147,1097280 L3671147,1097280 L3671147,1097280 L3684693,1097280 L3684693,1097280 L3684693,1097280 L3684693,1097280 L3698240,1083733 L3698240,1083733 L3698240,1070187 L3698240,1070187 L3698240,1056640 L3698240,1056640 L3711787,1056640 L3711787,1056640 L3711787,1056640 L3711787,1056640 L3725333,1043093 L3725333,1043093 L3725333,1029547 L3725333,1029547 L3725333,1029547 L3725333,1029547 L3738880,1029547 L3738880,1029547 L3738880,1016000 L3738880,1016000 L3738880,1002453 L3738880,1002453 L3752427,1002453 L3752427,1002453 L3752427,988906.7 L3752427,988906.7 L3765973,988906.7 L3765973,988906.7 L3765973,988906.7 L3765973,988906.7 L3779520,975360 L3779520,975360 L3779520,975360 L3779520,975360 L3793067,961813.3 L3793067,961813.3 L3793067,948266.7 L3793067,948266.7 L3793067,934720 L3793067,934720 L3806613,907626.7 L3806613,907626.7 L3806613,880533.3 L3806613,880533.3 L3820160,880533.3 L3820160,880533.3 L3820160,853440 L3820160,853440 L3820160,826346.7 L3820160,826346.7 L3833707,799253.3 L3833707,799253.3 L3833707,758613.3 L3833707,758613.3 L3847253,731520 L3847253,731520 L3847253,690880 L3847253,690880 L3847253,650240 L3847253,650240 L3847253,623146.7 L3847253,623146.7 L3860800,609600 L3860800,609600 L3874347,609600 L3874347,609600 L3874347,582506.7 L3874347,582506.7 L3874347,514773.3 L3874347,514773.3 L3874347,419946.7 L3874347,419946.7 L3887893,325120 L3887893,325120 L3901440,270933.3 L3901440,270933.3 L3901440,216746.7 L3901440,216746.7 L3901440,176106.7 L3901440,176106.7 L3901440,162560 L3901440,162560 L3914987,149013.3 L3914987,149013.3 L3914987,135466.7 L3914987,135466.7 L3928533,121920 L3928533,121920 L3928533,121920 L3928533,121920 L3928533,121920 L3928533,121920 L3942080,108373.3 L3942080,108373.3 L3942080,81280 L3942080,81280 L3955627,54186.67 L3955627,54186.67 L3955627,27093.33 L3955627,27093.33 L3955627,13546.67 L3955627,13546.67 L3955627,13546.67 L3955627,13546.67 L3969173,0 L3969173,0 L3982720,0 L3982720,0 L3982720,0 L3982720,0 L3982720,13546.67 L3982720,13546.67 L3982720,54186.67 L3982720,54186.67 L3996267,54186.67 L3996267,54186.67 L3996267,54186.67 L3996267,54186.67 L4009813,54186.67 L4009813,54186.67 L4009813,67733.34 " stroke-width="33866.67" stroke-linecap="round" stroke-linejoin="round" stroke-miterlimit="13.33333" stroke="#012169" fill="none" fill-rule="nonzero" /></g></g><g clip-path="url(#clip008)"><g transform="matrix(0.000098425,0,0,0.000098425,92.66666,154)"><path d="M0,0 L40640,40640 L40640,40640 L121920,40640 " stroke-width="12700" stroke-linejoin="round" stroke-miterlimit="13.33333" stroke="#a6a6a6" fill="none" fill-rule="nonzero" /></g></g><g clip-path="url(#clip009)"><g transform="matrix(0.000098425,0,0,0.000098425,283.3333,150)"><path d="M0,0 L13546.67,40640 L13546.67,40640 L94826.66,40640 " stroke-width="12700" stroke-linejoin="round" stroke-miterlimit="13.33333" stroke="#a6a6a6" fill="none" fill-rule="nonzero" /></g></g><g><g clip-path="url(#clip010)"><g><g transform="translate(108.9043,162.0097)"><text><tspan x="0" y="0" font-family="Connections Cond Light,Arial Narrow" font-weight="normal" font-style="normal" font-size="13.33333" fill="#000000">3.9</tspan></text></g></g></g></g><g><g clip-path="url(#clip011)"><g><g transform="translate(217.596,134.3272)"><text><tspan x="0" y="0" font-family="Connections Cond Light,Arial Narrow" font-weight="normal" font-style="normal" font-size="13.33333" fill="#000000">5.2</tspan></text></g></g></g></g><g><g clip-path="url(#clip012)"><g><g transform="translate(296.3072,158.0092)"><text><tspan x="0" y="0" font-family="Connections Cond Light,Arial Narrow" font-weight="normal" font-style="normal" font-size="13.33333" fill="#000000">4.7</tspan></text></g></g></g></g><g><g clip-path="url(#clip013)"><g><g transform="translate(393.0653,29.08963)"><text><tspan x="0" y="0" font-family="Connections Cond Light,Arial Narrow" font-weight="normal" font-style="normal" font-size="13.33333" fill="#000000">27</tspan></text></g></g></g></g><g><g clip-path="url(#clip014)"><g><g transform="translate(19.13097,168.3982)"><text><tspan x="0" y="0" font-family="Connections Cond Light,Arial Narrow" font-weight="normal" font-style="normal" font-size="16" fill="#000000">2</tspan></text></g></g></g></g><g><g clip-path="url(#clip015)"><g><g transform="translate(19.13097,142.8525)"><text><tspan x="0" y="0" font-family="Connections Cond Light,Arial Narrow" font-weight="normal" font-style="normal" font-size="16" fill="#000000">7</tspan></text></g></g></g></g><g><g clip-path="url(#clip016)"><g><g transform="translate(11.53097,117.3068)"><text><tspan x="0" y="0" font-family="Connections Cond Light,Arial Narrow" font-weight="normal" font-style="normal" font-size="16" fill="#000000">12</tspan></text></g></g></g></g><g><g clip-path="url(#clip017)"><g><g transform="translate(11.53097,91.76102)"><text><tspan x="0" y="0" font-family="Connections Cond Light,Arial Narrow" font-weight="normal" font-style="normal" font-size="16" fill="#000000">17</tspan></text></g></g></g></g><g><g clip-path="url(#clip018)"><g><g transform="translate(11.53097,66.21535)"><text><tspan x="0" y="0" font-family="Connections Cond Light,Arial Narrow" font-weight="normal" font-style="normal" font-size="16" fill="#000000">22</tspan></text></g></g></g></g><g><g clip-path="url(#clip019)"><g><g transform="translate(11.53097,40.66969)"><text><tspan x="0" y="0" font-family="Connections Cond Light,Arial Narrow" font-weight="normal" font-style="normal" font-size="16" fill="#000000">27</tspan></text></g></g></g></g><g><g clip-path="url(#clip020)"><g><g transform="translate(11.53097,15.12402)"><text><tspan x="0" y="0" font-family="Connections Cond Light,Arial Narrow" font-weight="normal" font-style="normal" font-size="16" fill="#000000">32</tspan></text></g></g></g></g><g><g clip-path="url(#clip021)"><g><g transform="matrix(0,-1,1,0,45.41496,209.6579)"><text><tspan x="0" y="0" font-family="Connections Cond Light,Arial Narrow" font-weight="normal" font-style="normal" font-size="14.66667" fill="#000000">Apr-23</tspan></text></g></g></g></g><g><g clip-path="url(#clip022)"><g><g transform="matrix(0,-1,1,0,67.84489,208.2495)"><text><tspan x="0" y="0" font-family="Connections Cond Light,Arial Narrow" font-weight="normal" font-style="normal" font-size="14.66667" fill="#000000">Jun-23</tspan></text></g></g></g></g><g><g clip-path="url(#clip023)"><g><g transform="matrix(0,-1,1,0,90.27493,212.1412)"><text><tspan x="0" y="0" font-family="Connections Cond Light,Arial Narrow" font-weight="normal" font-style="normal" font-size="14.66667" fill="#000000">Aug-23</tspan></text></g></g></g></g><g><g clip-path="url(#clip024)"><g><g transform="matrix(0,-1,1,0,112.7049,209.9412)"><text><tspan x="0" y="0" font-family="Connections Cond Light,Arial Narrow" font-weight="normal" font-style="normal" font-size="14.66667" fill="#000000">Oct-23</tspan></text></g></g></g></g><g><g clip-path="url(#clip025)"><g><g transform="matrix(0,-1,1,0,135.1349,211.2829)"><text><tspan x="0" y="0" font-family="Connections Cond Light,Arial Narrow" font-weight="normal" font-style="normal" font-size="14.66667" fill="#000000">Dec-23</tspan></text></g></g></g></g><g><g clip-path="url(#clip026)"><g><g transform="matrix(0,-1,1,0,157.9325,210.8663)"><text><tspan x="0" y="0" font-family="Connections Cond Light,Arial Narrow" font-weight="normal" font-style="normal" font-size="14.66667" fill="#000000">Feb-24</tspan></text></g></g></g></g><g><g clip-path="url(#clip027)"><g><g transform="matrix(0,-1,1,0,179.9948,209.6579)"><text><tspan x="0" y="0" font-family="Connections Cond Light,Arial Narrow" font-weight="normal" font-style="normal" font-size="14.66667" fill="#000000">Apr-24</tspan></text></g></g></g></g><g><g clip-path="url(#clip028)"><g><g transform="matrix(0,-1,1,0,202.4248,208.2495)"><text><tspan x="0" y="0" font-family="Connections Cond Light,Arial Narrow" font-weight="normal" font-style="normal" font-size="14.66667" fill="#000000">Jun-24</tspan></text></g></g></g></g><g><g clip-path="url(#clip029)"><g><g transform="matrix(0,-1,1,0,224.8547,212.1412)"><text><tspan x="0" y="0" font-family="Connections Cond Light,Arial Narrow" font-weight="normal" font-style="normal" font-size="14.66667" fill="#000000">Aug-24</tspan></text></g></g></g></g><g><g clip-path="url(#clip030)"><g><g transform="matrix(0,-1,1,0,247.2848,209.9412)"><text><tspan x="0" y="0" font-family="Connections Cond Light,Arial Narrow" font-weight="normal" font-style="normal" font-size="14.66667" fill="#000000">Oct-24</tspan></text></g></g></g></g><g><g clip-path="url(#clip031)"><g><g transform="matrix(0,-1,1,0,269.7147,211.2829)"><text><tspan x="0" y="0" font-family="Connections Cond Light,Arial Narrow" font-weight="normal" font-style="normal" font-size="14.66667" fill="#000000">Dec-24</tspan></text></g></g></g></g><g><g clip-path="url(#clip032)"><g><g transform="matrix(0,-1,1,0,292.5123,210.8663)"><text><tspan x="0" y="0" font-family="Connections Cond Light,Arial Narrow" font-weight="normal" font-style="normal" font-size="14.66667" fill="#000000">Feb-25</tspan></text></g></g></g></g><g><g clip-path="url(#clip033)"><g><g transform="matrix(0,-1,1,0,314.2069,209.6579)"><text><tspan x="0" y="0" font-family="Connections Cond Light,Arial Narrow" font-weight="normal" font-style="normal" font-size="14.66667" fill="#000000">Apr-25</tspan></text></g></g></g></g><g><g clip-path="url(#clip034)"><g><g transform="matrix(0,-1,1,0,336.637,208.2495)"><text><tspan x="0" y="0" font-family="Connections Cond Light,Arial Narrow" font-weight="normal" font-style="normal" font-size="14.66667" fill="#000000">Jun-25</tspan></text></g></g></g></g><g><g clip-path="url(#clip035)"><g><g transform="matrix(0,-1,1,0,359.0669,212.1412)"><text><tspan x="0" y="0" font-family="Connections Cond Light,Arial Narrow" font-weight="normal" font-style="normal" font-size="14.66667" fill="#000000">Aug-25</tspan></text></g></g></g></g><g><g clip-path="url(#clip036)"><g><g transform="matrix(0,-1,1,0,381.4969,209.9412)"><text><tspan x="0" y="0" font-family="Connections Cond Light,Arial Narrow" font-weight="normal" font-style="normal" font-size="14.66667" fill="#000000">Oct-25</tspan></text></g></g></g></g><g><g clip-path="url(#clip037)"><g><g transform="matrix(0,-1,1,0,403.9269,211.2829)"><text><tspan x="0" y="0" font-family="Connections Cond Light,Arial Narrow" font-weight="normal" font-style="normal" font-size="14.66667" fill="#000000">Dec-25</tspan></text></g></g></g></g><g clip-path="url(#clip038)"><g transform="matrix(0.000098425,0,0,0.000098425,55.33333,148.6667)"><g><path d="M0,0 L302167.2,97915.12 " stroke-width="16933.33" stroke-linejoin="round" stroke-miterlimit="13.33333" stroke="#ff0000" fill="none" fill-rule="evenodd" /><path d="M301718.2,44369.12 L382710.7,124014.7 L270398.7,141021.4 Z" fill="#ff0000" fill-rule="nonzero" /></g></g></g><g clip-path="url(#clip039)"><g transform="matrix(0.000098425,0,0,0.000098425,239.3333,139.3333)"><g><path d="M0,0 L608248.9,110943.6 " stroke-width="16933.33" stroke-linejoin="round" stroke-miterlimit="13.33333" stroke="#ff0000" fill="none" fill-rule="evenodd" /><path d="M600705.9,57929.61 L691541.4,126136 L582474.9,157880.6 Z" fill="#ff0000" fill-rule="nonzero" /></g></g></g><g clip-path="url(#clip040)"><g transform="matrix(0.000098425,0,0,-0.000098425,307.3333,145.484)"><g><path d="M0,0 L718433.9,1036009 " stroke-width="16933.33" stroke-linejoin="round" stroke-miterlimit="13.33333" stroke="#00b050" fill="none" fill-rule="evenodd" /><path d="M750529.3,993146 L766681.3,1105584 L667039.7,1051043 Z" fill="#00b050" fill-rule="nonzero" /></g></g></g><g clip-path="url(#clip041)"><g transform="matrix(0.000098425,0,0,-0.000098425,107.3333,157.5474)"><g><path d="M0,0 L1053583,259623.8 " stroke-width="16933.33" stroke-linejoin="round" stroke-miterlimit="13.33333" stroke="#00b050" fill="none" fill-rule="evenodd" /><path d="M1049296,206247.8 L1135791,279881.3 L1024987,304896.8 Z" fill="#00b050" fill-rule="nonzero" /></g></g></g><g><g clip-path="url(#clip042)"><g><g transform="translate(319.3505,62.57913)"><text><tspan x="0" y="0" font-family="Calibri" font-weight="normal" font-style="normal" font-size="13.33333" fill="#000000">+500%</tspan></text></g></g></g></g><g><g clip-path="url(#clip043)"><g><g transform="translate(147.1509,117.3639)"><text><tspan x="0" y="0" font-family="Calibri" font-weight="normal" font-style="normal" font-size="13.33333" fill="#000000">+33%</tspan></text></g></g></g></g><g><g clip-path="url(#clip044)"><g><g transform="translate(270.9068,116.9597)"><text><tspan x="0" y="0" font-family="Calibri" font-weight="normal" font-style="normal" font-size="13.33333" fill="#000000">-</tspan></text></g></g></g></g><g><g clip-path="url(#clip045)"><g><g transform="translate(274.9068,116.9597)"><text><tspan x="0" y="0" font-family="Calibri" font-weight="normal" font-style="normal" font-size="13.33333" fill="#000000">10%</tspan></text></g></g></g></g><g><g clip-path="url(#clip046)"><g><g transform="translate(61.06772,148.4171)"><text><tspan x="0" y="0" font-family="Calibri" font-weight="normal" font-style="normal" font-size="13.33333" fill="#000000">-</tspan></text></g></g></g></g><g><g clip-path="url(#clip047)"><g><g transform="translate(65.06772,148.4171)"><text><tspan x="0" y="0" font-family="Calibri" font-weight="normal" font-style="normal" font-size="13.33333" fill="#000000">27%</tspan></text></g></g></g></g><g /></g></g></g></g></g></g></g></g></g></svg>