<?xml version="1.0" encoding="UTF-8" standalone="no"?>
<svg xmlns:dc="http://purl.org/dc/elements/1.1/" xmlns:cc="http://creativecommons.org/ns#" xmlns:rdf="http://www.w3.org/1999/02/22-rdf-syntax-ns#" xmlns:svg="http://www.w3.org/2000/svg" xmlns="http://www.w3.org/2000/svg" viewBox="63 312.3 639 365.25" height="365.25" width="639" xml:space="preserve" version="1.1" id="svg2">
  <metadata id="metadata8">
    <rdf:RDF>
      <cc:Work rdf:about="">
        <dc:format>image/svg+xml</dc:format>
        <dc:type rdf:resource="http://purl.org/dc/dcmitype/StillImage"/>
      </cc:Work>
    </rdf:RDF>
  </metadata>
  <defs id="defs6">
    <clipPath id="clipPath16" clipPathUnits="userSpaceOnUse">
      <path style="clip-rule:evenodd" id="path18" d="m 50.4,249.96 511.2,0 0,292.2 -511.2,0 0,-292.2 z"/>
    </clipPath>
    <clipPath id="clipPath26" clipPathUnits="userSpaceOnUse">
      <path style="clip-rule:evenodd" id="path28" d="m 50.4,249.96 511.2,0 0,292.2 -511.2,0 0,-292.2 z"/>
    </clipPath>
    <clipPath id="clipPath42" clipPathUnits="userSpaceOnUse">
      <path style="clip-rule:evenodd" id="path44" d="m 50.4,249.96 511.08,0 0,292.08 -511.08,0 0,-292.08 z"/>
    </clipPath>
    <clipPath id="clipPath54" clipPathUnits="userSpaceOnUse">
      <path style="clip-rule:evenodd" id="path56" d="m 50.4,249.96 511.08,0 0,292.08 -511.08,0 0,-292.08 z"/>
    </clipPath>
    <clipPath id="clipPath66" clipPathUnits="userSpaceOnUse">
      <path style="clip-rule:evenodd" id="path68" d="m 50.4,249.96 511.08,0 0,292.08 -511.08,0 0,-292.08 z"/>
    </clipPath>
    <clipPath id="clipPath78" clipPathUnits="userSpaceOnUse">
      <path style="clip-rule:evenodd" id="path80" d="m 50.4,249.96 511.08,0 0,292.08 -511.08,0 0,-292.08 z"/>
    </clipPath>
    <clipPath id="clipPath90" clipPathUnits="userSpaceOnUse">
      <path style="clip-rule:evenodd" id="path92" d="m 50.4,249.96 511.08,0 0,292.08 -511.08,0 0,-292.08 z"/>
    </clipPath>
    <clipPath id="clipPath102" clipPathUnits="userSpaceOnUse">
      <path style="clip-rule:evenodd" id="path104" d="m 50.4,249.96 511.08,0 0,292.08 -511.08,0 0,-292.08 z"/>
    </clipPath>
    <clipPath id="clipPath114" clipPathUnits="userSpaceOnUse">
      <path style="clip-rule:evenodd" id="path116" d="m 50.4,249.96 511.08,0 0,292.08 -511.08,0 0,-292.08 z"/>
    </clipPath>
    <clipPath id="clipPath126" clipPathUnits="userSpaceOnUse">
      <path style="clip-rule:evenodd" id="path128" d="m 50.4,249.96 511.08,0 0,292.08 -511.08,0 0,-292.08 z"/>
    </clipPath>
    <clipPath id="clipPath138" clipPathUnits="userSpaceOnUse">
      <path style="clip-rule:evenodd" id="path140" d="m 50.4,249.96 511.08,0 0,292.08 -511.08,0 0,-292.08 z"/>
    </clipPath>
    <clipPath id="clipPath150" clipPathUnits="userSpaceOnUse">
      <path style="clip-rule:evenodd" id="path152" d="m 50.4,249.96 511.08,0 0,292.08 -511.08,0 0,-292.08 z"/>
    </clipPath>
    <clipPath id="clipPath162" clipPathUnits="userSpaceOnUse">
      <path style="clip-rule:evenodd" id="path164" d="m 50.4,249.96 511.08,0 0,292.08 -511.08,0 0,-292.08 z"/>
    </clipPath>
    <clipPath id="clipPath174" clipPathUnits="userSpaceOnUse">
      <path style="clip-rule:evenodd" id="path176" d="m 50.4,249.96 511.08,0 0,292.08 -511.08,0 0,-292.08 z"/>
    </clipPath>
    <clipPath id="clipPath186" clipPathUnits="userSpaceOnUse">
      <path style="clip-rule:evenodd" id="path188" d="m 50.4,249.96 511.08,0 0,292.08 -511.08,0 0,-292.08 z"/>
    </clipPath>
    <clipPath id="clipPath198" clipPathUnits="userSpaceOnUse">
      <path style="clip-rule:evenodd" id="path200" d="m 50.4,249.96 511.08,0 0,292.08 -511.08,0 0,-292.08 z"/>
    </clipPath>
    <clipPath id="clipPath210" clipPathUnits="userSpaceOnUse">
      <path style="clip-rule:evenodd" id="path212" d="m 50.4,249.96 511.08,0 0,292.08 -511.08,0 0,-292.08 z"/>
    </clipPath>
    <clipPath id="clipPath222" clipPathUnits="userSpaceOnUse">
      <path style="clip-rule:evenodd" id="path224" d="m 50.4,249.96 511.08,0 0,292.08 -511.08,0 0,-292.08 z"/>
    </clipPath>
    <clipPath id="clipPath234" clipPathUnits="userSpaceOnUse">
      <path style="clip-rule:evenodd" id="path236" d="m 50.4,249.96 511.08,0 0,292.08 -511.08,0 0,-292.08 z"/>
    </clipPath>
    <clipPath id="clipPath246" clipPathUnits="userSpaceOnUse">
      <path style="clip-rule:evenodd" id="path248" d="m 50.4,249.96 511.08,0 0,292.08 -511.08,0 0,-292.08 z"/>
    </clipPath>
    <clipPath id="clipPath258" clipPathUnits="userSpaceOnUse">
      <path style="clip-rule:evenodd" id="path260" d="m 50.4,249.96 511.08,0 0,292.08 -511.08,0 0,-292.08 z"/>
    </clipPath>
    <clipPath id="clipPath270" clipPathUnits="userSpaceOnUse">
      <path style="clip-rule:evenodd" id="path272" d="m 50.4,249.96 511.08,0 0,292.08 -511.08,0 0,-292.08 z"/>
    </clipPath>
    <clipPath id="clipPath282" clipPathUnits="userSpaceOnUse">
      <path style="clip-rule:evenodd" id="path284" d="m 50.4,249.96 511.08,0 0,292.08 -511.08,0 0,-292.08 z"/>
    </clipPath>
    <clipPath id="clipPath294" clipPathUnits="userSpaceOnUse">
      <path style="clip-rule:evenodd" id="path296" d="m 50.4,249.96 511.08,0 0,292.08 -511.08,0 0,-292.08 z"/>
    </clipPath>
    <clipPath id="clipPath306" clipPathUnits="userSpaceOnUse">
      <path style="clip-rule:evenodd" id="path308" d="m 50.4,249.96 511.08,0 0,292.08 -511.08,0 0,-292.08 z"/>
    </clipPath>
    <clipPath id="clipPath318" clipPathUnits="userSpaceOnUse">
      <path style="clip-rule:evenodd" id="path320" d="m 50.4,249.96 511.08,0 0,292.08 -511.08,0 0,-292.08 z"/>
    </clipPath>
    <clipPath id="clipPath330" clipPathUnits="userSpaceOnUse">
      <path style="clip-rule:evenodd" id="path332" d="m 50.4,249.96 511.08,0 0,292.08 -511.08,0 0,-292.08 z"/>
    </clipPath>
    <clipPath id="clipPath342" clipPathUnits="userSpaceOnUse">
      <path style="clip-rule:evenodd" id="path344" d="m 50.4,249.96 511.08,0 0,292.08 -511.08,0 0,-292.08 z"/>
    </clipPath>
    <clipPath id="clipPath356" clipPathUnits="userSpaceOnUse">
      <path style="clip-rule:evenodd" id="path358" d="m 50.4,249.96 511.08,0 0,292.08 -511.08,0 0,-292.08 z"/>
    </clipPath>
    <clipPath id="clipPath370" clipPathUnits="userSpaceOnUse">
      <path style="clip-rule:evenodd" id="path372" d="m 50.4,249.96 511.08,0 0,292.08 -511.08,0 0,-292.08 z"/>
    </clipPath>
  </defs>
  <g transform="matrix(1.25,0,0,-1.25,0,990)" id="g10">
    <g id="g12">
      <g clip-path="url(#clipPath16)" id="g14">
        <path id="path20" style="fill:none;stroke:#000000;stroke-width:0.14;stroke-linecap:butt;stroke-linejoin:miter;stroke-miterlimit:10;stroke-dasharray:none;stroke-opacity:0" d="m 50.415,249.89 511.19,0 0,292.22 -511.19,0 0,-292.22 z"/>
      </g>
    </g>
    <g id="g22">
      <g clip-path="url(#clipPath26)" id="g24">
        <path id="path30" style="fill:#ffffff;fill-opacity:1;fill-rule:evenodd;stroke:none" d="m 50.415,249.89 511.19,0 0,292.22 -511.19,0 0,-292.22 z"/>
      </g>
    </g>
    <path id="path32" style="fill:#2673b2;fill-opacity:1;fill-rule:nonzero;stroke:none" d="m 97.195,418.56 36.845,0 0,-109.51 -36.845,0 0,109.51 z m 92.185,-31.24 36.84,0 0,-78.27 -36.84,0 0,78.27 z m 92.18,-35.03 36.84,0 0,-43.24 -36.84,0 0,43.24 z m 92.18,73.55 36.84,0 0,-116.79 -36.84,0 0,116.79 z m 92.04,-31.8 36.84,0 0,-84.99 -36.84,0 0,84.99 z"/>
    <path id="path34" style="fill:#d0b86a;fill-opacity:1;fill-rule:nonzero;stroke:none" d="m 134.04,466.19 36.84,0 0,-157.14 -36.84,0 0,157.14 z m 92.18,-13.59 36.85,0 0,-143.55 -36.85,0 0,143.55 z m 92.18,-27.46 36.85,0 0,-116.09 -36.85,0 0,116.09 z m 92.18,77.89 36.85,0 0,-193.98 -36.85,0 0,193.98 z m 92.04,-42.86 36.99,0 0,-151.12 -36.99,0 0,151.12 z"/>
    <path id="path36" style="fill:none;stroke:#d9d9d9;stroke-width:0.87558001;stroke-linecap:butt;stroke-linejoin:round;stroke-miterlimit:10;stroke-dasharray:none;stroke-opacity:1" d="m 88.011,309.05 460.749,0"/>
    <g id="g38">
      <g clip-path="url(#clipPath42)" id="g40"><text id="text46" style="font-variant:normal;font-weight:bold;font-size:12.33600044px;font-family:Calibri;-inkscape-font-specification:Calibri-Bold;writing-mode:lr-tb;fill:#404040;fill-opacity:1;fill-rule:nonzero;stroke:none" transform="matrix(1,0,0,-1,109.39,427.06)"><tspan id="tspan48" y="0" x="0 6.3119521">50</tspan></text>
</g>
    </g>
    <g id="g50">
      <g clip-path="url(#clipPath54)" id="g52"><text id="text58" style="font-variant:normal;font-weight:bold;font-size:12.33600044px;font-family:Calibri;-inkscape-font-specification:Calibri-Bold;writing-mode:lr-tb;fill:#404040;fill-opacity:1;fill-rule:nonzero;stroke:none" transform="matrix(1,0,0,-1,201.55,395.93)"><tspan id="tspan60" y="0" x="0 6.3119521">36</tspan></text>
</g>
    </g>
    <g id="g62">
      <g clip-path="url(#clipPath66)" id="g64"><text id="text70" style="font-variant:normal;font-weight:bold;font-size:12.33600044px;font-family:Calibri;-inkscape-font-specification:Calibri-Bold;writing-mode:lr-tb;fill:#404040;fill-opacity:1;fill-rule:nonzero;stroke:none" transform="matrix(1,0,0,-1,293.74,360.82)"><tspan id="tspan72" y="0" x="0 6.2879519">20</tspan></text>
</g>
    </g>
    <g id="g74">
      <g clip-path="url(#clipPath78)" id="g76"><text id="text82" style="font-variant:normal;font-weight:bold;font-size:12.33600044px;font-family:Calibri;-inkscape-font-specification:Calibri-Bold;writing-mode:lr-tb;fill:#404040;fill-opacity:1;fill-rule:nonzero;stroke:none" transform="matrix(1,0,0,-1,385.9,434.38)"><tspan id="tspan84" y="0" x="0 6.3119521">53</tspan></text>
</g>
    </g>
    <g id="g86">
      <g clip-path="url(#clipPath90)" id="g88"><text id="text94" style="font-variant:normal;font-weight:bold;font-size:12.33600044px;font-family:Calibri;-inkscape-font-specification:Calibri-Bold;writing-mode:lr-tb;fill:#404040;fill-opacity:1;fill-rule:nonzero;stroke:none" transform="matrix(1,0,0,-1,478.06,402.65)"><tspan id="tspan96" y="0" x="0 6.3119521">39</tspan></text>
</g>
    </g>
    <g id="g98">
      <g clip-path="url(#clipPath102)" id="g100"><text id="text106" style="font-variant:normal;font-weight:bold;font-size:12.33600044px;font-family:Calibri;-inkscape-font-specification:Calibri-Bold;writing-mode:lr-tb;fill:#404040;fill-opacity:1;fill-rule:nonzero;stroke:none" transform="matrix(1,0,0,-1,146.26,474.67)"><tspan id="tspan108" y="0" x="0 6.3119521">71</tspan></text>
</g>
    </g>
    <g id="g110">
      <g clip-path="url(#clipPath114)" id="g112"><text id="text118" style="font-variant:normal;font-weight:bold;font-size:12.31200027px;font-family:Calibri;-inkscape-font-specification:Calibri-Bold;writing-mode:lr-tb;fill:#404040;fill-opacity:1;fill-rule:nonzero;stroke:none" transform="matrix(1,0,0,-1,238.42,461.09)"><tspan id="tspan120" y="0" x="0 6.3119841">65</tspan></text>
</g>
    </g>
    <g id="g122">
      <g clip-path="url(#clipPath126)" id="g124"><text id="text130" style="font-variant:normal;font-weight:bold;font-size:12.33600044px;font-family:Calibri;-inkscape-font-specification:Calibri-Bold;writing-mode:lr-tb;fill:#404040;fill-opacity:1;fill-rule:nonzero;stroke:none" transform="matrix(1,0,0,-1,330.6,433.66)"><tspan id="tspan132" y="0" x="0 6.2879519">53</tspan></text>
</g>
    </g>
    <g id="g134">
      <g clip-path="url(#clipPath138)" id="g136"><text id="text142" style="font-variant:normal;font-weight:bold;font-size:12.33600044px;font-family:Calibri;-inkscape-font-specification:Calibri-Bold;writing-mode:lr-tb;fill:#404040;fill-opacity:1;fill-rule:nonzero;stroke:none" transform="matrix(1,0,0,-1,422.76,511.54)"><tspan id="tspan144" y="0" x="0 6.3119521">88</tspan></text>
</g>
    </g>
    <g id="g146">
      <g clip-path="url(#clipPath150)" id="g148"><text id="text154" style="font-variant:normal;font-weight:bold;font-size:12.33600044px;font-family:Calibri;-inkscape-font-specification:Calibri-Bold;writing-mode:lr-tb;fill:#404040;fill-opacity:1;fill-rule:nonzero;stroke:none" transform="matrix(1,0,0,-1,514.92,468.7)"><tspan id="tspan156" y="0" x="0 6.3119521">69</tspan></text>
</g>
    </g>
    <g id="g158">
      <g clip-path="url(#clipPath162)" id="g160"><text id="text166" style="font-variant:normal;font-weight:bold;font-size:12.33600044px;font-family:Calibri;-inkscape-font-specification:Calibri-Bold;writing-mode:lr-tb;fill:#595959;fill-opacity:1;fill-rule:nonzero;stroke:none" transform="matrix(1,0,0,-1,70.44,305.52)"><tspan id="tspan168" y="0" x="0">0</tspan></text>
</g>
    </g>
    <g id="g170">
      <g clip-path="url(#clipPath174)" id="g172"><text id="text178" style="font-variant:normal;font-weight:bold;font-size:12.31200027px;font-family:Calibri;-inkscape-font-specification:Calibri-Bold;writing-mode:lr-tb;fill:#595959;fill-opacity:1;fill-rule:nonzero;stroke:none" transform="matrix(1,0,0,-1,64.224,327.48)"><tspan id="tspan180" y="0" x="0 6.167984">10</tspan></text>
</g>
    </g>
    <g id="g182">
      <g clip-path="url(#clipPath186)" id="g184"><text id="text190" style="font-variant:normal;font-weight:bold;font-size:12.33600044px;font-family:Calibri;-inkscape-font-specification:Calibri-Bold;writing-mode:lr-tb;fill:#595959;fill-opacity:1;fill-rule:nonzero;stroke:none" transform="matrix(1,0,0,-1,64.224,349.46)"><tspan id="tspan192" y="0" x="0 6.1679521">20</tspan></text>
</g>
    </g>
    <g id="g194">
      <g clip-path="url(#clipPath198)" id="g196"><text id="text202" style="font-variant:normal;font-weight:bold;font-size:12.33600044px;font-family:Calibri;-inkscape-font-specification:Calibri-Bold;writing-mode:lr-tb;fill:#595959;fill-opacity:1;fill-rule:nonzero;stroke:none" transform="matrix(1,0,0,-1,64.224,371.45)"><tspan id="tspan204" y="0" x="0 6.1679521">30</tspan></text>
</g>
    </g>
    <g id="g206">
      <g clip-path="url(#clipPath210)" id="g208"><text id="text214" style="font-variant:normal;font-weight:bold;font-size:12.31200027px;font-family:Calibri;-inkscape-font-specification:Calibri-Bold;writing-mode:lr-tb;fill:#595959;fill-opacity:1;fill-rule:nonzero;stroke:none" transform="matrix(1,0,0,-1,64.224,393.41)"><tspan id="tspan216" y="0" x="0 6.167984">40</tspan></text>
</g>
    </g>
    <g id="g218">
      <g clip-path="url(#clipPath222)" id="g220"><text id="text226" style="font-variant:normal;font-weight:bold;font-size:12.33600044px;font-family:Calibri;-inkscape-font-specification:Calibri-Bold;writing-mode:lr-tb;fill:#595959;fill-opacity:1;fill-rule:nonzero;stroke:none" transform="matrix(1,0,0,-1,64.224,415.39)"><tspan id="tspan228" y="0" x="0 6.1679521">50</tspan></text>
</g>
    </g>
    <g id="g230">
      <g clip-path="url(#clipPath234)" id="g232"><text id="text238" style="font-variant:normal;font-weight:bold;font-size:12.33600044px;font-family:Calibri;-inkscape-font-specification:Calibri-Bold;writing-mode:lr-tb;fill:#595959;fill-opacity:1;fill-rule:nonzero;stroke:none" transform="matrix(1,0,0,-1,64.224,437.38)"><tspan id="tspan240" y="0" x="0 6.1679521">60</tspan></text>
</g>
    </g>
    <g id="g242">
      <g clip-path="url(#clipPath246)" id="g244"><text id="text250" style="font-variant:normal;font-weight:bold;font-size:12.33600044px;font-family:Calibri;-inkscape-font-specification:Calibri-Bold;writing-mode:lr-tb;fill:#595959;fill-opacity:1;fill-rule:nonzero;stroke:none" transform="matrix(1,0,0,-1,64.224,459.36)"><tspan id="tspan252" y="0" x="0 6.1679521">70</tspan></text>
</g>
    </g>
    <g id="g254">
      <g clip-path="url(#clipPath258)" id="g256"><text id="text262" style="font-variant:normal;font-weight:bold;font-size:12.31200027px;font-family:Calibri;-inkscape-font-specification:Calibri-Bold;writing-mode:lr-tb;fill:#595959;fill-opacity:1;fill-rule:nonzero;stroke:none" transform="matrix(1,0,0,-1,64.224,481.32)"><tspan id="tspan264" y="0" x="0 6.167984">80</tspan></text>
</g>
    </g>
    <g id="g266">
      <g clip-path="url(#clipPath270)" id="g268"><text id="text274" style="font-variant:normal;font-weight:bold;font-size:12.33600044px;font-family:Calibri;-inkscape-font-specification:Calibri-Bold;writing-mode:lr-tb;fill:#595959;fill-opacity:1;fill-rule:nonzero;stroke:none" transform="matrix(1,0,0,-1,64.224,503.3)"><tspan id="tspan276" y="0" x="0 6.1679521">90</tspan></text>
</g>
    </g>
    <g id="g278">
      <g clip-path="url(#clipPath282)" id="g280"><text id="text286" style="font-variant:normal;font-weight:bold;font-size:12.33600044px;font-family:Calibri;-inkscape-font-specification:Calibri-Bold;writing-mode:lr-tb;fill:#595959;fill-opacity:1;fill-rule:nonzero;stroke:none" transform="matrix(1,0,0,-1,58.008,525.29)"><tspan id="tspan288" y="0" x="0 6.1680002 12.471696">100</tspan></text>
</g>
    </g>
    <g id="g290">
      <g clip-path="url(#clipPath294)" id="g292"><text id="text298" style="font-variant:normal;font-weight:bold;font-size:12.31200027px;font-family:Calibri;-inkscape-font-specification:Calibri-Bold;writing-mode:lr-tb;fill:#595959;fill-opacity:1;fill-rule:nonzero;stroke:none" transform="matrix(1,0,0,-1,110.59,289.56)"><tspan id="tspan300" y="0" x="0 7.461072 17.396856 23.589792 27.911304 30.989304 36.049538 42.205536">Americas</tspan></text>
</g>
    </g>
    <g id="g302">
      <g clip-path="url(#clipPath306)" id="g304"><text id="text310" style="font-variant:normal;font-weight:bold;font-size:12.31200027px;font-family:Calibri;-inkscape-font-specification:Calibri-Bold;writing-mode:lr-tb;fill:#595959;fill-opacity:1;fill-rule:nonzero;stroke:none" transform="matrix(1,0,0,-1,211.22,289.56)"><tspan id="tspan312" y="0" x="0 6.008256 16.68276 22.691015">EMEA</tspan></text>
</g>
    </g>
    <g id="g314">
      <g clip-path="url(#clipPath318)" id="g316"><text id="text322" style="font-variant:normal;font-weight:bold;font-size:12.31200027px;font-family:Calibri;-inkscape-font-specification:Calibri-Bold;writing-mode:lr-tb;fill:#595959;fill-opacity:1;fill-rule:nonzero;stroke:none" transform="matrix(1,0,0,-1,281.74,289.56)"><tspan id="tspan324" y="0" x="0 7.8427439 12.213504 18.357191 24.37776 28.576153 34.769089 39.213718 41.873112 48.43541 55.046951 57.940273 64.551819">Greater China</tspan></text>
</g>
    </g>
    <g id="g326">
      <g clip-path="url(#clipPath330)" id="g328"><text id="text334" style="font-variant:normal;font-weight:bold;font-size:12.31200027px;font-family:Calibri;-inkscape-font-specification:Calibri-Bold;writing-mode:lr-tb;fill:#595959;fill-opacity:1;fill-rule:nonzero;stroke:none" transform="matrix(1,0,0,-1,377.54,289.56)"><tspan id="tspan336" y="0" x="0 6.8824081 13.075344 17.987831 22.297031 24.956425 31.58028 35.470871 38.290321 45.751392 52.190567 59.762447">Rest of APAC</tspan></text>
</g>
    </g>
    <g id="g338">
      <g clip-path="url(#clipPath342)" id="g340"><text id="text346" style="font-variant:normal;font-weight:bold;font-size:12.31200027px;font-family:Calibri;-inkscape-font-specification:Calibri-Bold;writing-mode:lr-tb;fill:#595959;fill-opacity:1;fill-rule:nonzero;stroke:none" transform="matrix(1,0,0,-1,489.79,289.56)"><tspan id="tspan348" y="0" x="0 6.0205679 12.595176 16.929001 22.949568">Total</tspan></text>
</g>
    </g>
    <path id="path350" style="fill:#2673b2;fill-opacity:1;fill-rule:evenodd;stroke:none" d="m 253.06,264.23 6.735,0 0,6.7349 -6.735,0 0,-6.7349 z"/>
    <g id="g352">
      <g clip-path="url(#clipPath356)" id="g354"><text id="text360" style="font-variant:normal;font-weight:normal;font-size:12.33600044px;font-family:Calibri;-inkscape-font-specification:Calibri;writing-mode:lr-tb;fill:#595959;fill-opacity:1;fill-rule:nonzero;stroke:none" transform="matrix(1,0,0,-1,262.78,264.05)"><tspan id="tspan362" y="0" x="0 6.1680002 12.422352 18.627359">2015</tspan></text>
</g>
    </g>
    <path id="path364" style="fill:#d0b86a;fill-opacity:1;fill-rule:evenodd;stroke:none" d="m 328.55,264.23 6.735,0 0,6.7349 -6.735,0 0,-6.7349 z"/>
    <g id="g366">
      <g clip-path="url(#clipPath370)" id="g368"><text id="text374" style="font-variant:normal;font-weight:normal;font-size:12.33600044px;font-family:Calibri;-inkscape-font-specification:Calibri;writing-mode:lr-tb;fill:#595959;fill-opacity:1;fill-rule:nonzero;stroke:none" transform="matrix(1,0,0,-1,338.28,264.05)"><tspan id="tspan376" y="0" x="0 6.1680002 12.471696 18.639696">2024</tspan></text>
</g>
    </g>
  </g>
</svg>
