<?xml version="1.0" encoding="UTF-8" standalone="no"?>
<svg xmlns:dc="http://purl.org/dc/elements/1.1/" xmlns:cc="http://creativecommons.org/ns#" xmlns:rdf="http://www.w3.org/1999/02/22-rdf-syntax-ns#" xmlns:svg="http://www.w3.org/2000/svg" xmlns="http://www.w3.org/2000/svg" viewBox="63.20625 316.75 638.79375 356.45" height="356.45" width="638.79375" xml:space="preserve" version="1.1" id="svg2">
  <metadata id="metadata8">
    <rdf:RDF>
      <cc:Work rdf:about="">
        <dc:format>image/svg+xml</dc:format>
        <dc:type rdf:resource="http://purl.org/dc/dcmitype/StillImage"/>
      </cc:Work>
    </rdf:RDF>
  </metadata>
  <defs id="defs6">
    <clipPath id="clipPath16" clipPathUnits="userSpaceOnUse">
      <path style="clip-rule:evenodd" id="path18" d="m 50.4,253.44 511.2,0 0,285.24 -511.2,0 0,-285.24 z"/>
    </clipPath>
    <clipPath id="clipPath26" clipPathUnits="userSpaceOnUse">
      <path style="clip-rule:evenodd" id="path28" d="m 50.4,253.44 511.2,0 0,285.24 -511.2,0 0,-285.24 z"/>
    </clipPath>
    <clipPath id="clipPath36" clipPathUnits="userSpaceOnUse">
      <path style="clip-rule:evenodd" id="path38" d="m 50.509,253.52 511.06,0 0,285.06 -511.06,0 0,-285.06 z"/>
    </clipPath>
    <clipPath id="clipPath60" clipPathUnits="userSpaceOnUse">
      <path style="clip-rule:evenodd" id="path62" d="m 50.509,253.52 511.06,0 0,285.06 -511.06,0 0,-285.06 z"/>
    </clipPath>
    <clipPath id="clipPath70" clipPathUnits="userSpaceOnUse">
      <path style="clip-rule:evenodd" id="path72" d="m 50.52,253.44 511.08,0 0,285.12 -511.08,0 0,-285.12 z"/>
    </clipPath>
    <clipPath id="clipPath82" clipPathUnits="userSpaceOnUse">
      <path style="clip-rule:evenodd" id="path84" d="m 50.52,253.44 511.08,0 0,285.12 -511.08,0 0,-285.12 z"/>
    </clipPath>
    <clipPath id="clipPath94" clipPathUnits="userSpaceOnUse">
      <path style="clip-rule:evenodd" id="path96" d="m 50.52,253.44 511.08,0 0,285.12 -511.08,0 0,-285.12 z"/>
    </clipPath>
    <clipPath id="clipPath106" clipPathUnits="userSpaceOnUse">
      <path style="clip-rule:evenodd" id="path108" d="m 50.52,253.44 511.08,0 0,285.12 -511.08,0 0,-285.12 z"/>
    </clipPath>
    <clipPath id="clipPath118" clipPathUnits="userSpaceOnUse">
      <path style="clip-rule:evenodd" id="path120" d="m 50.52,253.44 511.08,0 0,285.12 -511.08,0 0,-285.12 z"/>
    </clipPath>
    <clipPath id="clipPath130" clipPathUnits="userSpaceOnUse">
      <path style="clip-rule:evenodd" id="path132" d="m 50.52,253.44 511.08,0 0,285.12 -511.08,0 0,-285.12 z"/>
    </clipPath>
    <clipPath id="clipPath142" clipPathUnits="userSpaceOnUse">
      <path style="clip-rule:evenodd" id="path144" d="m 50.52,253.44 511.08,0 0,285.12 -511.08,0 0,-285.12 z"/>
    </clipPath>
    <clipPath id="clipPath154" clipPathUnits="userSpaceOnUse">
      <path style="clip-rule:evenodd" id="path156" d="m 50.52,253.44 511.08,0 0,285.12 -511.08,0 0,-285.12 z"/>
    </clipPath>
    <clipPath id="clipPath166" clipPathUnits="userSpaceOnUse">
      <path style="clip-rule:evenodd" id="path168" d="m 50.52,253.44 511.08,0 0,285.12 -511.08,0 0,-285.12 z"/>
    </clipPath>
    <clipPath id="clipPath178" clipPathUnits="userSpaceOnUse">
      <path style="clip-rule:evenodd" id="path180" d="m 50.52,253.44 511.08,0 0,285.12 -511.08,0 0,-285.12 z"/>
    </clipPath>
    <clipPath id="clipPath190" clipPathUnits="userSpaceOnUse">
      <path style="clip-rule:evenodd" id="path192" d="m 50.52,253.44 511.08,0 0,285.12 -511.08,0 0,-285.12 z"/>
    </clipPath>
    <clipPath id="clipPath202" clipPathUnits="userSpaceOnUse">
      <path style="clip-rule:evenodd" id="path204" d="m 50.52,253.44 511.08,0 0,285.12 -511.08,0 0,-285.12 z"/>
    </clipPath>
    <clipPath id="clipPath214" clipPathUnits="userSpaceOnUse">
      <path style="clip-rule:evenodd" id="path216" d="m 50.52,253.44 511.08,0 0,285.12 -511.08,0 0,-285.12 z"/>
    </clipPath>
    <clipPath id="clipPath226" clipPathUnits="userSpaceOnUse">
      <path style="clip-rule:evenodd" id="path228" d="m 50.52,253.44 511.08,0 0,285.12 -511.08,0 0,-285.12 z"/>
    </clipPath>
    <clipPath id="clipPath238" clipPathUnits="userSpaceOnUse">
      <path style="clip-rule:evenodd" id="path240" d="m 50.52,253.44 511.08,0 0,285.12 -511.08,0 0,-285.12 z"/>
    </clipPath>
    <clipPath id="clipPath250" clipPathUnits="userSpaceOnUse">
      <path style="clip-rule:evenodd" id="path252" d="m 50.52,253.44 511.08,0 0,285.12 -511.08,0 0,-285.12 z"/>
    </clipPath>
    <clipPath id="clipPath262" clipPathUnits="userSpaceOnUse">
      <path style="clip-rule:evenodd" id="path264" d="m 50.52,253.44 511.08,0 0,285.12 -511.08,0 0,-285.12 z"/>
    </clipPath>
    <clipPath id="clipPath274" clipPathUnits="userSpaceOnUse">
      <path style="clip-rule:evenodd" id="path276" d="m 50.52,253.44 511.08,0 0,285.12 -511.08,0 0,-285.12 z"/>
    </clipPath>
    <clipPath id="clipPath286" clipPathUnits="userSpaceOnUse">
      <path style="clip-rule:evenodd" id="path288" d="m 50.52,253.44 511.08,0 0,285.12 -511.08,0 0,-285.12 z"/>
    </clipPath>
  </defs>
  <g transform="matrix(1.25,0,0,-1.25,0,990)" id="g10">
    <g id="g12">
      <g clip-path="url(#clipPath16)" id="g14">
        <path id="path20" style="fill:none;stroke:#000000;stroke-width:0.14;stroke-linecap:butt;stroke-linejoin:miter;stroke-miterlimit:10;stroke-dasharray:none;stroke-opacity:0" d="m 50.635,253.49 511.06,0 0,285.04 -511.06,0 0,-285.04 z"/>
      </g>
    </g>
    <g id="g22">
      <g clip-path="url(#clipPath26)" id="g24">
        <path id="path30" style="fill:#ffffff;fill-opacity:1;fill-rule:evenodd;stroke:none" d="m 50.635,253.49 511.06,0 0,285.04 -511.06,0 0,-285.04 z"/>
      </g>
    </g>
    <g id="g32">
      <g clip-path="url(#clipPath36)" id="g34">
        <path id="path40" style="fill:none;stroke:#c0c0c0;stroke-width:0.59298003;stroke-linecap:round;stroke-linejoin:round;stroke-miterlimit:10;stroke-dasharray:none;stroke-opacity:1" d="m 84.294,317.57 477.396,0 m -477.396,23.9 477.396,0 m -477.396,23.91 477.396,0 m -477.396,24.06 477.396,0 m -477.396,23.9 477.396,0 m -477.396,24.06 477.396,0 m -477.396,23.9 477.396,0 m -477.396,23.91 477.396,0 m -477.396,24.02 477.396,0"/>
      </g>
    </g>
    <path id="path42" style="fill:#b4c7e7;fill-opacity:1;fill-rule:evenodd;stroke:none" d="m 102.2,293.55 23.87,0 0,71.893 -23.87,0 0,-71.893 z"/>
    <path id="path44" style="fill:#b4c7e7;fill-opacity:1;fill-rule:evenodd;stroke:none" d="m 161.87,293.55 23.87,0 0,71.893 -23.87,0 0,-71.893 z"/>
    <path id="path46" style="fill:#b4c7e7;fill-opacity:1;fill-rule:evenodd;stroke:none" d="m 221.55,293.55 23.87,0 0,143.79 -23.87,0 0,-143.79 z"/>
    <path id="path48" style="fill:#005aa4;fill-opacity:1;fill-rule:evenodd;stroke:none" d="m 281.22,293.55 23.87,0 0,176.14 -23.87,0 0,-176.14 z"/>
    <path id="path50" style="fill:#005aa4;fill-opacity:1;fill-rule:evenodd;stroke:none" d="m 460.25,293.55 23.87,0 0,166.03 -23.87,0 0,-166.03 z"/>
    <path id="path52" style="fill:#005aa4;fill-opacity:1;fill-rule:evenodd;stroke:none" d="m 519.92,293.55 23.87,0 0,189.89 -23.87,0 0,-189.89 z"/>
    <path id="path54" style="fill:#005aa4;fill-opacity:1;fill-rule:nonzero;stroke:none" d="m 340.83,444.23 23.91,0 0,-150.68 -23.91,0 0,150.68 z m 59.78,-9.82 23.76,0 0,-140.86 -23.76,0 0,140.86 z"/>
    <g id="g56">
      <g clip-path="url(#clipPath60)" id="g58">
        <path id="path64" style="fill:none;stroke:#808080;stroke-width:1.48249996;stroke-linecap:round;stroke-linejoin:round;stroke-miterlimit:10;stroke-dasharray:none;stroke-opacity:1" d="m 84.294,293.55 477.396,0"/>
      </g>
    </g>
    <g id="g66">
      <g clip-path="url(#clipPath70)" id="g68"><text id="text74" style="font-variant:normal;font-weight:normal;font-size:10.65600014px;font-family:'Roboto Condensed';-inkscape-font-specification:'Roboto Condensed';writing-mode:lr-tb;fill:#000000;fill-opacity:1;fill-rule:nonzero;stroke:none" transform="matrix(1,0,0,-1,61.176,290.3)"><tspan id="tspan76" y="0" x="0 5.2640638 8.0772476">5.8</tspan></text>
</g>
    </g>
    <g id="g78">
      <g clip-path="url(#clipPath82)" id="g80"><text id="text86" style="font-variant:normal;font-weight:normal;font-size:10.68000031px;font-family:'Roboto Condensed';-inkscape-font-specification:'Roboto Condensed';writing-mode:lr-tb;fill:#000000;fill-opacity:1;fill-rule:nonzero;stroke:none" transform="matrix(1,0,0,-1,61.176,314.28)"><tspan id="tspan88" y="0" x="0 5.2759199 8.0954399">6.0</tspan></text>
</g>
    </g>
    <g id="g90">
      <g clip-path="url(#clipPath94)" id="g92"><text id="text98" style="font-variant:normal;font-weight:normal;font-size:10.68000031px;font-family:'Roboto Condensed';-inkscape-font-specification:'Roboto Condensed';writing-mode:lr-tb;fill:#000000;fill-opacity:1;fill-rule:nonzero;stroke:none" transform="matrix(1,0,0,-1,61.176,338.26)"><tspan id="tspan100" y="0" x="0 5.2759199 8.0954399">6.2</tspan></text>
</g>
    </g>
    <g id="g102">
      <g clip-path="url(#clipPath106)" id="g104"><text id="text110" style="font-variant:normal;font-weight:normal;font-size:10.65600014px;font-family:'Roboto Condensed';-inkscape-font-specification:'Roboto Condensed';writing-mode:lr-tb;fill:#000000;fill-opacity:1;fill-rule:nonzero;stroke:none" transform="matrix(1,0,0,-1,61.176,362.21)"><tspan id="tspan112" y="0" x="0 5.2640638 8.0772476">6.4</tspan></text>
</g>
    </g>
    <g id="g114">
      <g clip-path="url(#clipPath118)" id="g116"><text id="text122" style="font-variant:normal;font-weight:normal;font-size:10.68000031px;font-family:'Roboto Condensed';-inkscape-font-specification:'Roboto Condensed';writing-mode:lr-tb;fill:#000000;fill-opacity:1;fill-rule:nonzero;stroke:none" transform="matrix(1,0,0,-1,61.176,386.18)"><tspan id="tspan124" y="0" x="0 5.2759199 8.0954399">6.6</tspan></text>
</g>
    </g>
    <g id="g126">
      <g clip-path="url(#clipPath130)" id="g128"><text id="text134" style="font-variant:normal;font-weight:normal;font-size:10.68000031px;font-family:'Roboto Condensed';-inkscape-font-specification:'Roboto Condensed';writing-mode:lr-tb;fill:#000000;fill-opacity:1;fill-rule:nonzero;stroke:none" transform="matrix(1,0,0,-1,61.176,410.16)"><tspan id="tspan136" y="0" x="0 5.2759199 8.0954399">6.8</tspan></text>
</g>
    </g>
    <g id="g138">
      <g clip-path="url(#clipPath142)" id="g140"><text id="text146" style="font-variant:normal;font-weight:normal;font-size:10.65600014px;font-family:'Roboto Condensed';-inkscape-font-specification:'Roboto Condensed';writing-mode:lr-tb;fill:#000000;fill-opacity:1;fill-rule:nonzero;stroke:none" transform="matrix(1,0,0,-1,61.176,434.11)"><tspan id="tspan148" y="0" x="0 5.2640638 8.0772476">7.0</tspan></text>
</g>
    </g>
    <g id="g150">
      <g clip-path="url(#clipPath154)" id="g152"><text id="text158" style="font-variant:normal;font-weight:normal;font-size:10.68000031px;font-family:'Roboto Condensed';-inkscape-font-specification:'Roboto Condensed';writing-mode:lr-tb;fill:#000000;fill-opacity:1;fill-rule:nonzero;stroke:none" transform="matrix(1,0,0,-1,61.176,458.09)"><tspan id="tspan160" y="0" x="0 5.2759199 8.0954399">7.2</tspan></text>
</g>
    </g>
    <g id="g162">
      <g clip-path="url(#clipPath166)" id="g164"><text id="text170" style="font-variant:normal;font-weight:normal;font-size:10.68000031px;font-family:'Roboto Condensed';-inkscape-font-specification:'Roboto Condensed';writing-mode:lr-tb;fill:#000000;fill-opacity:1;fill-rule:nonzero;stroke:none" transform="matrix(1,0,0,-1,61.176,482.06)"><tspan id="tspan172" y="0" x="0 5.2759199 8.0954399">7.4</tspan></text>
</g>
    </g>
    <g id="g174">
      <g clip-path="url(#clipPath178)" id="g176"><text id="text182" style="font-variant:normal;font-weight:normal;font-size:10.68000031px;font-family:'Roboto Condensed';-inkscape-font-specification:'Roboto Condensed';writing-mode:lr-tb;fill:#000000;fill-opacity:1;fill-rule:nonzero;stroke:none" transform="matrix(1,0,0,-1,61.176,506.02)"><tspan id="tspan184" y="0" x="0 5.2759199 8.0954399">7.6</tspan></text>
</g>
    </g>
    <g id="g186">
      <g clip-path="url(#clipPath190)" id="g188"><text id="text194" style="font-variant:normal;font-weight:normal;font-size:10.68000031px;font-family:'Roboto Condensed';-inkscape-font-specification:'Roboto Condensed';writing-mode:lr-tb;fill:#000000;fill-opacity:1;fill-rule:nonzero;stroke:none" transform="matrix(1,0,0,-1,103.03,276.62)"><tspan id="tspan196" y="0" x="0 5.2759199 11.6946 16.97052">1Q25</tspan></text>
</g>
    </g>
    <g id="g198">
      <g clip-path="url(#clipPath202)" id="g200"><text id="text206" style="font-variant:normal;font-weight:normal;font-size:10.68000031px;font-family:'Roboto Condensed';-inkscape-font-specification:'Roboto Condensed';writing-mode:lr-tb;fill:#000000;fill-opacity:1;fill-rule:nonzero;stroke:none" transform="matrix(1,0,0,-1,162.72,276.62)"><tspan id="tspan208" y="0" x="0 5.2759199 11.6946 16.97052">2Q25</tspan></text>
</g>
    </g>
    <g id="g210">
      <g clip-path="url(#clipPath214)" id="g212"><text id="text218" style="font-variant:normal;font-weight:normal;font-size:10.68000031px;font-family:'Roboto Condensed';-inkscape-font-specification:'Roboto Condensed';writing-mode:lr-tb;fill:#000000;fill-opacity:1;fill-rule:nonzero;stroke:none" transform="matrix(1,0,0,-1,222.41,276.62)"><tspan id="tspan220" y="0" x="0 5.2560201 11.6548 16.91082">3Q25</tspan></text>
</g>
    </g>
    <g id="g222">
      <g clip-path="url(#clipPath226)" id="g224"><text id="text230" style="font-variant:normal;font-weight:normal;font-size:10.68000031px;font-family:'Roboto Condensed';-inkscape-font-specification:'Roboto Condensed';writing-mode:lr-tb;fill:#000000;fill-opacity:1;fill-rule:nonzero;stroke:none" transform="matrix(1,0,0,-1,279.6,276.62)"><tspan id="tspan232" y="0" x="0 5.2560201 11.6548 16.91082 22.16684">4Q25e</tspan></text>
</g>
    </g>
    <g id="g234">
      <g clip-path="url(#clipPath238)" id="g236"><text id="text242" style="font-variant:normal;font-weight:normal;font-size:10.68000031px;font-family:'Roboto Condensed';-inkscape-font-specification:'Roboto Condensed';writing-mode:lr-tb;fill:#000000;fill-opacity:1;fill-rule:nonzero;stroke:none" transform="matrix(1,0,0,-1,339.29,276.62)"><tspan id="tspan244" y="0" x="0 5.2759199 11.6412 16.91712 22.15032">1Q26e</tspan></text>
</g>
    </g>
    <g id="g246">
      <g clip-path="url(#clipPath250)" id="g248"><text id="text254" style="font-variant:normal;font-weight:normal;font-size:10.68000031px;font-family:'Roboto Condensed';-inkscape-font-specification:'Roboto Condensed';writing-mode:lr-tb;fill:#000000;fill-opacity:1;fill-rule:nonzero;stroke:none" transform="matrix(1,0,0,-1,398.95,276.62)"><tspan id="tspan256" y="0" x="0 5.2759199 11.6946 16.97052 22.246441">2Q26e</tspan></text>
</g>
    </g>
    <g id="g258">
      <g clip-path="url(#clipPath262)" id="g260"><text id="text266" style="font-variant:normal;font-weight:normal;font-size:10.68000031px;font-family:'Roboto Condensed';-inkscape-font-specification:'Roboto Condensed';writing-mode:lr-tb;fill:#000000;fill-opacity:1;fill-rule:nonzero;stroke:none" transform="matrix(1,0,0,-1,458.64,276.62)"><tspan id="tspan268" y="0" x="0 5.2759199 11.6946 16.97052 22.246441">3Q26e</tspan></text>
</g>
    </g>
    <g id="g270">
      <g clip-path="url(#clipPath274)" id="g272"><text id="text278" style="font-variant:normal;font-weight:normal;font-size:10.68000031px;font-family:'Roboto Condensed';-inkscape-font-specification:'Roboto Condensed';writing-mode:lr-tb;fill:#000000;fill-opacity:1;fill-rule:nonzero;stroke:none" transform="matrix(1,0,0,-1,518.33,276.62)"><tspan id="tspan280" y="0" x="0 5.2759199 11.6946 16.97052 22.246441">4Q26e</tspan></text>
</g>
    </g>
    <g id="g282">
      <g clip-path="url(#clipPath286)" id="g284"><text id="text290" style="font-variant:normal;font-weight:normal;font-size:13.10400009px;font-family:'Roboto Condensed';-inkscape-font-specification:'Roboto Condensed';writing-mode:lr-tb;fill:#000000;fill-opacity:1;fill-rule:nonzero;stroke:none" transform="matrix(1,0,0,-1,253.92,517.22)"><tspan id="tspan292" y="0" x="0 7.4299679 14.964768 23.089249 29.890224 32.773106 39.927887 46.165394 52.271854 58.103134 61.117058 67.655952 74.063805 77.077728 81.192383 87.600243 94.008095 100.40285">CDNS Backlog ($bn)</tspan></text>
</g>
    </g>
  </g>
</svg>
