<?xml version="1.0" encoding="UTF-8" standalone="no"?>
<svg xmlns:dc="http://purl.org/dc/elements/1.1/" xmlns:cc="http://creativecommons.org/ns#" xmlns:rdf="http://www.w3.org/1999/02/22-rdf-syntax-ns#" xmlns:svg="http://www.w3.org/2000/svg" xmlns="http://www.w3.org/2000/svg" viewBox="66.49625 377 650.5075 407.5875" height="407.5875" width="650.5075" xml:space="preserve" version="1.1" id="svg2">
  <metadata id="metadata8">
    <rdf:RDF>
      <cc:Work rdf:about="">
        <dc:format>image/svg+xml</dc:format>
        <dc:type rdf:resource="http://purl.org/dc/dcmitype/StillImage"/>
      </cc:Work>
    </rdf:RDF>
  </metadata>
  <defs id="defs6">
    <clipPath id="clipPath16" clipPathUnits="userSpaceOnUse">
      <path style="clip-rule:evenodd" id="path18" d="m 53.052,258.57 520.55,0 0,326.27 -520.55,0 0,-326.27 z"/>
    </clipPath>
    <clipPath id="clipPath38" clipPathUnits="userSpaceOnUse">
      <path style="clip-rule:evenodd" id="path40" d="m 53.089,258.74 520.36,0 0,326.01 -520.36,0 0,-326.01 z"/>
    </clipPath>
    <clipPath id="clipPath48" clipPathUnits="userSpaceOnUse">
      <path style="clip-rule:evenodd" id="path50" d="m 53.179,258.69 520.29,0 0,326.02 -520.29,0 0,-326.02 z"/>
    </clipPath>
    <clipPath id="clipPath60" clipPathUnits="userSpaceOnUse">
      <path style="clip-rule:evenodd" id="path62" d="m 53.179,258.69 520.29,0 0,326.02 -520.29,0 0,-326.02 z"/>
    </clipPath>
    <clipPath id="clipPath72" clipPathUnits="userSpaceOnUse">
      <path style="clip-rule:evenodd" id="path74" d="m 53.179,258.69 520.29,0 0,326.02 -520.29,0 0,-326.02 z"/>
    </clipPath>
    <clipPath id="clipPath84" clipPathUnits="userSpaceOnUse">
      <path style="clip-rule:evenodd" id="path86" d="m 53.179,258.69 520.29,0 0,326.02 -520.29,0 0,-326.02 z"/>
    </clipPath>
    <clipPath id="clipPath96" clipPathUnits="userSpaceOnUse">
      <path style="clip-rule:evenodd" id="path98" d="m 53.179,258.69 520.29,0 0,326.02 -520.29,0 0,-326.02 z"/>
    </clipPath>
    <clipPath id="clipPath108" clipPathUnits="userSpaceOnUse">
      <path style="clip-rule:evenodd" id="path110" d="m 53.179,258.69 520.29,0 0,326.02 -520.29,0 0,-326.02 z"/>
    </clipPath>
    <clipPath id="clipPath120" clipPathUnits="userSpaceOnUse">
      <path style="clip-rule:evenodd" id="path122" d="m 53.179,258.69 520.29,0 0,326.02 -520.29,0 0,-326.02 z"/>
    </clipPath>
    <clipPath id="clipPath132" clipPathUnits="userSpaceOnUse">
      <path style="clip-rule:evenodd" id="path134" d="m 53.179,258.69 520.29,0 0,326.02 -520.29,0 0,-326.02 z"/>
    </clipPath>
    <clipPath id="clipPath144" clipPathUnits="userSpaceOnUse">
      <path style="clip-rule:evenodd" id="path146" d="m 53.179,258.69 520.29,0 0,326.02 -520.29,0 0,-326.02 z"/>
    </clipPath>
    <clipPath id="clipPath160" clipPathUnits="userSpaceOnUse">
      <path style="clip-rule:evenodd" id="path162" d="m 53.179,258.69 520.29,0 0,326.02 -520.29,0 0,-326.02 z"/>
    </clipPath>
    <clipPath id="clipPath174" clipPathUnits="userSpaceOnUse">
      <path style="clip-rule:evenodd" id="path176" d="m 53.179,258.69 520.29,0 0,326.02 -520.29,0 0,-326.02 z"/>
    </clipPath>
    <clipPath id="clipPath188" clipPathUnits="userSpaceOnUse">
      <path style="clip-rule:evenodd" id="path190" d="m 53.179,258.69 520.29,0 0,326.02 -520.29,0 0,-326.02 z"/>
    </clipPath>
    <clipPath id="clipPath202" clipPathUnits="userSpaceOnUse">
      <path style="clip-rule:evenodd" id="path204" d="m 53.179,258.69 520.29,0 0,326.02 -520.29,0 0,-326.02 z"/>
    </clipPath>
    <clipPath id="clipPath216" clipPathUnits="userSpaceOnUse">
      <path style="clip-rule:evenodd" id="path218" d="m 53.179,258.69 520.29,0 0,326.02 -520.29,0 0,-326.02 z"/>
    </clipPath>
    <clipPath id="clipPath228" clipPathUnits="userSpaceOnUse">
      <path style="clip-rule:evenodd" id="path230" d="m 53.052,258.57 520.55,0 0,326.27 -520.55,0 0,-326.27 z"/>
    </clipPath>
    <clipPath id="clipPath238" clipPathUnits="userSpaceOnUse">
      <path style="clip-rule:evenodd" id="path240" d="m 53.053,258.57 520.55,0 0,326.27 -520.55,0 0,-326.27 z"/>
    </clipPath>
    <clipPath id="clipPath248" clipPathUnits="userSpaceOnUse">
      <path style="clip-rule:evenodd" id="path250" d="m 63.284,258.57 510.32,0 0,22.737 -510.32,0 0,-22.737 z"/>
    </clipPath>
  </defs>
  <g transform="matrix(1.25,0,0,-1.25,0,1107.7875)" id="g10">
    <g id="g12">
      <g clip-path="url(#clipPath16)" id="g14">
        <path id="path20" style="fill:none;stroke:#000000;stroke-width:0.14;stroke-linecap:butt;stroke-linejoin:miter;stroke-miterlimit:10;stroke-dasharray:none;stroke-opacity:0" d="m 53.267,584.57 520.283,0 0,-325.95 -520.283,0 0,325.95 z"/>
      </g>
    </g>
    <path id="path22" style="fill:#ffffff;fill-opacity:1;fill-rule:evenodd;stroke:none" d="m 53.267,258.62 520.28,0 0,325.95 -520.28,0 0,-325.95 z"/>
    <path id="path24" style="fill:#005aa4;fill-opacity:1;fill-rule:nonzero;stroke:none" d="m 100.51,312.61 51.11,0 0,-6.38 -51.11,0 0,6.38 z m 127.78,13.78 51.29,0 0,-20.16 -51.29,0 0,20.16 z m 127.96,40.27 51.11,0 0,-60.43 -51.11,0 0,60.43 z m 127.77,30.33 51.11,0 0,-90.76 -51.11,0 0,90.76 z"/>
    <path id="path26" style="fill:#eadfbc;fill-opacity:1;fill-rule:nonzero;stroke:none" d="m 100.51,315 51.11,0 0,-2.39 -51.11,0 0,2.39 z m 127.78,21.51 51.29,0 0,-10.12 -51.29,0 0,10.12 z m 127.96,49.82 51.11,0 0,-19.67 -51.11,0 0,19.67 z m 127.77,43.02 51.11,0 0,-32.36 -51.11,0 0,32.36 z"/>
    <path id="path28" style="fill:#226b5a;fill-opacity:1;fill-rule:nonzero;stroke:none" d="m 100.51,317.57 51.11,0 0,-2.57 -51.11,0 0,2.57 z m 127.78,42.29 51.29,0 0,-23.35 -51.29,0 0,23.35 z m 127.96,42.1 51.11,0 0,-15.63 -51.11,0 0,15.63 z m 127.77,57.36 51.11,0 0,-29.97 -51.11,0 0,29.97 z"/>
    <path id="path30" style="fill:#8cd5f2;fill-opacity:1;fill-rule:nonzero;stroke:none" d="m 100.51,317.75 51.11,0 0,-0.18 -51.11,0 0,0.18 z m 127.78,42.47 51.29,0 0,-0.36 -51.29,0 0,0.36 z m 127.96,43.21 51.11,0 0,-1.47 -51.11,0 0,1.47 z m 127.77,61.59 51.11,0 0,-5.7 -51.11,0 0,5.7 z"/>
    <path id="path32" style="fill:#d0b86a;fill-opacity:1;fill-rule:nonzero;stroke:none" d="m 100.51,317.75 51.11,0 0,-0.18 -51.11,0 0,0.18 z m 127.78,42.66 51.29,0 0,-0.19 -51.29,0 0,0.19 z m 127.96,50 51.11,0 0,-6.98 -51.11,0 0,6.98 z m 127.77,70.05 51.11,0 0,-15.44 -51.11,0 0,15.44 z"/>
    <g id="g34">
      <g clip-path="url(#clipPath38)" id="g36">
        <path id="path42" style="fill:none;stroke:#808080;stroke-width:1.81959999;stroke-linecap:round;stroke-linejoin:round;stroke-miterlimit:10;stroke-dasharray:none;stroke-opacity:1" d="m 62.161,306.23 511.389,0"/>
      </g>
    </g>
    <g id="g44">
      <g clip-path="url(#clipPath48)" id="g46"><text id="text52" style="font-variant:normal;font-weight:normal;font-size:13.05300045px;font-family:'Roboto Condensed';-inkscape-font-specification:'Roboto Condensed';writing-mode:lr-tb;fill:#000000;fill-opacity:1;fill-rule:nonzero;stroke:none" transform="matrix(1,0,0,-1,117.79,327.33)"><tspan id="tspan54" y="0" x="0 6.4481821 9.9202805">0.9</tspan></text>
</g>
    </g>
    <g id="g56">
      <g clip-path="url(#clipPath60)" id="g58"><text id="text64" style="font-variant:normal;font-weight:normal;font-size:13.05300045px;font-family:'Roboto Condensed';-inkscape-font-specification:'Roboto Condensed';writing-mode:lr-tb;fill:#000000;fill-opacity:1;fill-rule:nonzero;stroke:none" transform="matrix(1,0,0,-1,245.66,369.89)"><tspan id="tspan66" y="0" x="0 6.4481821 9.9202805">4.3</tspan></text>
</g>
    </g>
    <g id="g68">
      <g clip-path="url(#clipPath72)" id="g70"><text id="text76" style="font-variant:normal;font-weight:normal;font-size:13.07400036px;font-family:'Roboto Condensed';-inkscape-font-specification:'Roboto Condensed';writing-mode:lr-tb;fill:#000000;fill-opacity:1;fill-rule:nonzero;stroke:none" transform="matrix(1,0,0,-1,373.54,413.2)"><tspan id="tspan78" y="0" x="0 6.4585562 9.9100924">8.3</tspan></text>
</g>
    </g>
    <g id="g80">
      <g clip-path="url(#clipPath84)" id="g82"><text id="text88" style="font-variant:normal;font-weight:normal;font-size:13.05300045px;font-family:'Roboto Condensed';-inkscape-font-specification:'Roboto Condensed';writing-mode:lr-tb;fill:#000000;fill-opacity:1;fill-rule:nonzero;stroke:none" transform="matrix(1,0,0,-1,498.29,474.8)"><tspan id="tspan90" y="0" x="0 6.4481821 12.844152 16.329304">13.8</tspan></text>
</g>
    </g>
    <g id="g92">
      <g clip-path="url(#clipPath96)" id="g94"><text id="text100" style="font-variant:normal;font-weight:normal;font-size:13.05300045px;font-family:'Roboto Condensed';-inkscape-font-specification:'Roboto Condensed';writing-mode:lr-tb;fill:#000000;fill-opacity:1;fill-rule:nonzero;stroke:none" transform="matrix(1,0,0,-1,118.93,285.35)"><tspan id="tspan102" y="0" x="0 6.4422922">1Q</tspan></text>
</g>
    </g>
    <g id="g104">
      <g clip-path="url(#clipPath108)" id="g106"><text id="text112" style="font-variant:normal;font-weight:normal;font-size:13.05300045px;font-family:'Roboto Condensed';-inkscape-font-specification:'Roboto Condensed';writing-mode:lr-tb;fill:#000000;fill-opacity:1;fill-rule:nonzero;stroke:none" transform="matrix(1,0,0,-1,246.8,285.35)"><tspan id="tspan114" y="0" x="0 6.4422922">2Q</tspan></text>
</g>
    </g>
    <g id="g116">
      <g clip-path="url(#clipPath120)" id="g118"><text id="text124" style="font-variant:normal;font-weight:normal;font-size:13.05300045px;font-family:'Roboto Condensed';-inkscape-font-specification:'Roboto Condensed';writing-mode:lr-tb;fill:#000000;fill-opacity:1;fill-rule:nonzero;stroke:none" transform="matrix(1,0,0,-1,374.67,285.35)"><tspan id="tspan126" y="0" x="0 6.4422922">3Q</tspan></text>
</g>
    </g>
    <g id="g128">
      <g clip-path="url(#clipPath132)" id="g130"><text id="text136" style="font-variant:normal;font-weight:normal;font-size:13.05300045px;font-family:'Roboto Condensed';-inkscape-font-specification:'Roboto Condensed';writing-mode:lr-tb;fill:#000000;fill-opacity:1;fill-rule:nonzero;stroke:none" transform="matrix(1,0,0,-1,502.55,285.35)"><tspan id="tspan138" y="0" x="0 6.4422922">4Q</tspan></text>
</g>
    </g>
    <g id="g140">
      <g clip-path="url(#clipPath144)" id="g142"><text id="text148" style="font-variant:normal;font-weight:bold;font-size:16px;font-family:'Roboto Condensed';-inkscape-font-specification:'Roboto Condensed, Bold';writing-mode:lr-tb;fill:#000000;fill-opacity:1;fill-rule:nonzero;stroke:none" transform="matrix(1,0,0,-1,57.621,567.09)"><tspan id="tspan150" y="0" x="0 9.3599997 18.384001 26.464001 34.543999 42.624001 47.936001 56.015999 64.096001 72.176003 75.856003 85.648003 94.848 102.56 110.64 118.72 122.4 127.696 135.23199 142.592 150.336 157.664 161.15199 169.07201 176.224 179.90401 191.856 199.392 203.248 211.168 216.464 220.336 230.064 239.104 251.23199 258.56 262.048 267.216 275.29599 283.37601 291.45599 298.784">GB200/300 NVL72 racks by major ODMs (000s)</tspan></text>
</g>
    </g>
    <path id="path152" style="fill:#ffffff;fill-opacity:1;fill-rule:evenodd;stroke:none" d="m 158.04,258.79 312.92,0 0,25.188 -312.92,0 0,-25.188 z"/>
    <path id="path154" style="fill:#005aa4;fill-opacity:1;fill-rule:evenodd;stroke:none" d="m 171.02,267.84 7.0746,0 0,7.0745 -7.0746,0 0,-7.0745 z"/>
    <g id="g156">
      <g clip-path="url(#clipPath160)" id="g158"><text id="text164" style="font-variant:normal;font-weight:normal;font-size:13.05300045px;font-family:'Roboto Condensed';-inkscape-font-specification:'Roboto Condensed';writing-mode:lr-tb;fill:#000000;fill-opacity:1;fill-rule:nonzero;stroke:none" transform="matrix(1,0,0,-1,181.12,267.31)"><tspan id="tspan166" y="0" x="0 8.0928602 14.723784 20.976171 24.095839 32.188698 38.441086">Hon Hai</tspan></text>
</g>
    </g>
    <path id="path168" style="fill:#eadfbc;fill-opacity:1;fill-rule:evenodd;stroke:none" d="m 234.99,267.84 7.0746,0 0,7.0745 -7.0746,0 0,-7.0745 z"/>
    <g id="g170">
      <g clip-path="url(#clipPath174)" id="g172"><text id="text178" style="font-variant:normal;font-weight:normal;font-size:13.05300045px;font-family:'Roboto Condensed';-inkscape-font-specification:'Roboto Condensed';writing-mode:lr-tb;fill:#000000;fill-opacity:1;fill-rule:nonzero;stroke:none" transform="matrix(1,0,0,-1,245.09,267.31)"><tspan id="tspan180" y="0" x="0 7.8970652 14.149452 20.401838 26.836967 30.700657">Quanta</tspan></text>
</g>
    </g>
    <path id="path182" style="fill:#226b5a;fill-opacity:1;fill-rule:evenodd;stroke:none" d="m 294.48,267.84 7.0746,0 0,7.0745 -7.0746,0 0,-7.0745 z"/>
    <g id="g184">
      <g clip-path="url(#clipPath188)" id="g186"><text id="text192" style="font-variant:normal;font-weight:normal;font-size:13.05300045px;font-family:'Roboto Condensed';-inkscape-font-specification:'Roboto Condensed';writing-mode:lr-tb;fill:#000000;fill-opacity:1;fill-rule:nonzero;stroke:none" transform="matrix(1,0,0,-1,304.59,267.31)"><tspan id="tspan194" y="0" x="0 9.9463863 13.066053 18.966009 22.829697 26.889179 33.50705">Wistron</tspan></text>
</g>
    </g>
    <path id="path196" style="fill:#8cd5f2;fill-opacity:1;fill-rule:evenodd;stroke:none" d="m 356.74,267.84 7.0746,0 0,7.0745 -7.0746,0 0,-7.0745 z"/>
    <g id="g198">
      <g clip-path="url(#clipPath202)" id="g200"><text id="text206" style="font-variant:normal;font-weight:normal;font-size:13.05300045px;font-family:'Roboto Condensed';-inkscape-font-specification:'Roboto Condensed';writing-mode:lr-tb;fill:#000000;fill-opacity:1;fill-rule:nonzero;stroke:none" transform="matrix(1,0,0,-1,366.86,267.31)"><tspan id="tspan208" y="0" x="0 9.9463863 13.066053 21.550503 27.032763 33.285149">Wiwynn</tspan></text>
</g>
    </g>
    <path id="path210" style="fill:#d0b86a;fill-opacity:1;fill-rule:evenodd;stroke:none" d="m 418.9,267.84 7.0746,0 0,7.0745 -7.0746,0 0,-7.0745 z"/>
    <g id="g212">
      <g clip-path="url(#clipPath216)" id="g214"><text id="text220" style="font-variant:normal;font-weight:normal;font-size:13.05300045px;font-family:'Roboto Condensed';-inkscape-font-specification:'Roboto Condensed';writing-mode:lr-tb;fill:#000000;fill-opacity:1;fill-rule:nonzero;stroke:none" transform="matrix(1,0,0,-1,429.05,267.31)"><tspan id="tspan222" y="0" x="0 7.8840122 11.7477 17.987034 24.226368 28.077003">Others</tspan></text>
</g>
    </g>
    <g id="g224">
      <g clip-path="url(#clipPath228)" id="g226">
        <path id="path232" style="fill:none;stroke:#000000;stroke-width:0.14;stroke-linecap:butt;stroke-linejoin:miter;stroke-miterlimit:10;stroke-dasharray:none;stroke-opacity:0" d="m 63.386,-44.773 520.28,0 0,325.95 -520.28,0 0,-325.95 z"/>
      </g>
    </g>
    <g id="g234">
      <g clip-path="url(#clipPath238)" id="g236">
        <path id="path242" style="fill:#ffffff;fill-opacity:1;fill-rule:evenodd;stroke:none" d="m 63.386,-44.773 520.28,0 0,325.95 -520.28,0 0,-325.95 z"/>
      </g>
    </g>
    <g id="g244">
      <g clip-path="url(#clipPath248)" id="g246"><text id="text252" style="font-variant:normal;font-weight:bold;font-size:16px;font-family:'Roboto Condensed';-inkscape-font-specification:'Roboto Condensed, Bold';writing-mode:lr-tb;fill:#000000;fill-opacity:1;fill-rule:nonzero;stroke:none" transform="matrix(1,0,0,-1,67.684,263.64)"><tspan id="tspan254" y="0" x="0 9.3894997 18.395 26.504499 34.613998 42.723499 48.064999 56.1745 64.283997 72.393501 76.102997 85.8125 95.010002 102.7035 110.813 118.9225 122.632 127.9575 135.52299 142.91251 150.59 157.97951 161.481 166.6785 174.78799 182.8495 190.959 198.30051">GB200/300 NVL72 racks (000s)</tspan></text>
</g>
    </g>
  </g>
</svg>
