<?xml version="1.0" encoding="UTF-8" standalone="no"?>
<svg xmlns:dc="http://purl.org/dc/elements/1.1/" xmlns:cc="http://creativecommons.org/ns#" xmlns:rdf="http://www.w3.org/1999/02/22-rdf-syntax-ns#" xmlns:svg="http://www.w3.org/2000/svg" xmlns="http://www.w3.org/2000/svg" viewBox="63.05875 380.85 618.09125 341.55" height="341.55" width="618.09125" xml:space="preserve" version="1.1" id="svg2">
  <metadata id="metadata8">
    <rdf:RDF>
      <cc:Work rdf:about="">
        <dc:format>image/svg+xml</dc:format>
        <dc:type rdf:resource="http://purl.org/dc/dcmitype/StillImage"/>
      </cc:Work>
    </rdf:RDF>
  </metadata>
  <defs id="defs6">
    <clipPath id="clipPath16" clipPathUnits="userSpaceOnUse">
      <path style="clip-rule:evenodd" id="path18" d="m 50.4,264 494.52,0 0,273.24 -494.52,0 0,-273.24 z"/>
    </clipPath>
    <clipPath id="clipPath26" clipPathUnits="userSpaceOnUse">
      <path style="clip-rule:evenodd" id="path28" d="m 50.4,264 494.52,0 0,273.24 -494.52,0 0,-273.24 z"/>
    </clipPath>
    <clipPath id="clipPath42" clipPathUnits="userSpaceOnUse">
      <path style="clip-rule:evenodd" id="path44" d="m 50.52,264 494.28,0 0,273.12 -494.28,0 0,-273.12 z"/>
    </clipPath>
    <clipPath id="clipPath54" clipPathUnits="userSpaceOnUse">
      <path style="clip-rule:evenodd" id="path56" d="m 50.52,264 494.28,0 0,273.12 -494.28,0 0,-273.12 z"/>
    </clipPath>
    <clipPath id="clipPath66" clipPathUnits="userSpaceOnUse">
      <path style="clip-rule:evenodd" id="path68" d="m 50.52,264 494.28,0 0,273.12 -494.28,0 0,-273.12 z"/>
    </clipPath>
    <clipPath id="clipPath78" clipPathUnits="userSpaceOnUse">
      <path style="clip-rule:evenodd" id="path80" d="m 50.52,264 494.28,0 0,273.12 -494.28,0 0,-273.12 z"/>
    </clipPath>
    <clipPath id="clipPath90" clipPathUnits="userSpaceOnUse">
      <path style="clip-rule:evenodd" id="path92" d="m 50.52,264 494.28,0 0,273.12 -494.28,0 0,-273.12 z"/>
    </clipPath>
    <clipPath id="clipPath102" clipPathUnits="userSpaceOnUse">
      <path style="clip-rule:evenodd" id="path104" d="m 50.52,264 494.28,0 0,273.12 -494.28,0 0,-273.12 z"/>
    </clipPath>
    <clipPath id="clipPath114" clipPathUnits="userSpaceOnUse">
      <path style="clip-rule:evenodd" id="path116" d="m 50.52,264 494.28,0 0,273.12 -494.28,0 0,-273.12 z"/>
    </clipPath>
    <clipPath id="clipPath126" clipPathUnits="userSpaceOnUse">
      <path style="clip-rule:evenodd" id="path128" d="m 50.52,264 494.28,0 0,273.12 -494.28,0 0,-273.12 z"/>
    </clipPath>
    <clipPath id="clipPath138" clipPathUnits="userSpaceOnUse">
      <path style="clip-rule:evenodd" id="path140" d="m 50.52,264 494.28,0 0,273.12 -494.28,0 0,-273.12 z"/>
    </clipPath>
    <clipPath id="clipPath150" clipPathUnits="userSpaceOnUse">
      <path style="clip-rule:evenodd" id="path152" d="m 50.52,264 494.28,0 0,273.12 -494.28,0 0,-273.12 z"/>
    </clipPath>
    <clipPath id="clipPath162" clipPathUnits="userSpaceOnUse">
      <path style="clip-rule:evenodd" id="path164" d="m 50.52,264 494.28,0 0,273.12 -494.28,0 0,-273.12 z"/>
    </clipPath>
    <clipPath id="clipPath174" clipPathUnits="userSpaceOnUse">
      <path style="clip-rule:evenodd" id="path176" d="m 50.52,264 494.28,0 0,273.12 -494.28,0 0,-273.12 z"/>
    </clipPath>
    <clipPath id="clipPath186" clipPathUnits="userSpaceOnUse">
      <path style="clip-rule:evenodd" id="path188" d="m 50.52,264 494.28,0 0,273.12 -494.28,0 0,-273.12 z"/>
    </clipPath>
    <clipPath id="clipPath198" clipPathUnits="userSpaceOnUse">
      <path style="clip-rule:evenodd" id="path200" d="m 50.52,264 494.28,0 0,273.12 -494.28,0 0,-273.12 z"/>
    </clipPath>
    <clipPath id="clipPath210" clipPathUnits="userSpaceOnUse">
      <path style="clip-rule:evenodd" id="path212" d="m 50.52,264 494.28,0 0,273.12 -494.28,0 0,-273.12 z"/>
    </clipPath>
    <clipPath id="clipPath222" clipPathUnits="userSpaceOnUse">
      <path style="clip-rule:evenodd" id="path224" d="m 50.52,264 494.28,0 0,273.12 -494.28,0 0,-273.12 z"/>
    </clipPath>
    <clipPath id="clipPath234" clipPathUnits="userSpaceOnUse">
      <path style="clip-rule:evenodd" id="path236" d="m 50.52,264 494.28,0 0,273.12 -494.28,0 0,-273.12 z"/>
    </clipPath>
    <clipPath id="clipPath246" clipPathUnits="userSpaceOnUse">
      <path style="clip-rule:evenodd" id="path248" d="m 50.52,264 494.28,0 0,273.12 -494.28,0 0,-273.12 z"/>
    </clipPath>
    <clipPath id="clipPath260" clipPathUnits="userSpaceOnUse">
      <path style="clip-rule:evenodd" id="path262" d="m 50.435,537.21 494.485,0 0,-273.21 -494.485,0 0,273.21 z"/>
    </clipPath>
  </defs>
  <g transform="matrix(1.25,0,0,-1.25,0,1052.4)" id="g10">
    <g id="g12">
      <g clip-path="url(#clipPath16)" id="g14">
        <path id="path20" style="fill:none;stroke:#000000;stroke-width:0.14;stroke-linecap:butt;stroke-linejoin:miter;stroke-miterlimit:10;stroke-dasharray:none;stroke-opacity:0" d="m 50.517,264.04 494.42,0 0,273.17 -494.42,0 0,-273.17 z"/>
      </g>
    </g>
    <g id="g22">
      <g clip-path="url(#clipPath26)" id="g24">
        <path id="path30" style="fill:#ffffff;fill-opacity:1;fill-rule:evenodd;stroke:none" d="m 50.517,264.04 494.42,0 0,273.17 -494.42,0 0,-273.17 z"/>
      </g>
    </g>
    <path id="path32" style="fill:#2673b2;fill-opacity:1;fill-rule:nonzero;stroke:none" d="m 73.454,390.17 34.606,0 0,-93.44 -34.606,0 0,93.44 z m 51.836,10.96 34.45,0 0,-104.4 -34.45,0 0,104.4 z m 51.67,-2.66 34.45,0 0,-101.74 -34.45,0 0,101.74 z m 51.83,12.06 34.45,0 0,-113.8 -34.45,0 0,113.8 z m 51.68,-9.71 34.45,0 0,-104.09 -34.45,0 0,104.09 z m 51.83,22.39 34.45,0 0,-126.48 -34.45,0 0,126.48 z m 51.68,20.52 34.45,0 0,-147 -34.45,0 0,147 z m 51.67,25.21 34.61,0 0,-172.21 -34.61,0 0,172.21 z m 51.84,16.6 34.45,0 0,-188.81 -34.45,0 0,188.81 z"/>
    <path id="path34" style="fill:none;stroke:#2673b2;stroke-width:0.97869998;stroke-linecap:butt;stroke-linejoin:round;stroke-miterlimit:10;stroke-dasharray:none;stroke-opacity:1" d="m 73.454,390.17 34.606,0 0,-93.44 -34.606,0 0,93.44 z m 51.836,10.96 34.45,0 0,-104.4 -34.45,0 0,104.4 z m 51.67,-2.66 34.45,0 0,-101.74 -34.45,0 0,101.74 z m 51.83,12.06 34.45,0 0,-113.8 -34.45,0 0,113.8 z m 51.68,-9.71 34.45,0 0,-104.09 -34.45,0 0,104.09 z m 51.83,22.39 34.45,0 0,-126.48 -34.45,0 0,126.48 z m 51.68,20.52 34.45,0 0,-147 -34.45,0 0,147 z m 51.67,25.21 34.61,0 0,-172.21 -34.61,0 0,172.21 z m 51.84,16.6 34.45,0 0,-188.81 -34.45,0 0,188.81 z"/>
    <path id="path36" style="fill:none;stroke:#d9d9d9;stroke-width:0.97869998;stroke-linecap:butt;stroke-linejoin:round;stroke-miterlimit:10;stroke-dasharray:none;stroke-opacity:1" d="m 64.872,296.73 465.708,0"/>
    <g id="g38">
      <g clip-path="url(#clipPath42)" id="g40"><text id="text46" style="font-variant:normal;font-weight:bold;font-size:13.00800037px;font-family:Calibri;-inkscape-font-specification:Calibri-Bold;writing-mode:lr-tb;fill:#404040;fill-opacity:1;fill-rule:nonzero;stroke:none" transform="matrix(1,0,0,-1,79.056,399.48)"><tspan id="tspan48" y="0" x="0 6.5759559 13.151912 16.605947">16.5</tspan></text>
</g>
    </g>
    <g id="g50">
      <g clip-path="url(#clipPath54)" id="g52"><text id="text58" style="font-variant:normal;font-weight:bold;font-size:13.00800037px;font-family:Calibri;-inkscape-font-specification:Calibri-Bold;writing-mode:lr-tb;fill:#404040;fill-opacity:1;fill-rule:nonzero;stroke:none" transform="matrix(1,0,0,-1,130.82,410.52)"><tspan id="tspan60" y="0" x="0 6.5950561 13.190112 16.585199">18.5</tspan></text>
</g>
    </g>
    <g id="g62">
      <g clip-path="url(#clipPath66)" id="g64"><text id="text70" style="font-variant:normal;font-weight:bold;font-size:12.98400021px;font-family:Calibri;-inkscape-font-specification:Calibri-Bold;writing-mode:lr-tb;fill:#404040;fill-opacity:1;fill-rule:nonzero;stroke:none" transform="matrix(1,0,0,-1,182.57,407.86)"><tspan id="tspan72" y="0" x="0 6.5759978 13.151996 16.611834">18.0</tspan></text>
</g>
    </g>
    <g id="g74">
      <g clip-path="url(#clipPath78)" id="g76"><text id="text82" style="font-variant:normal;font-weight:bold;font-size:13.00800037px;font-family:Calibri;-inkscape-font-specification:Calibri-Bold;writing-mode:lr-tb;fill:#404040;fill-opacity:1;fill-rule:nonzero;stroke:none" transform="matrix(1,0,0,-1,234.34,419.98)"><tspan id="tspan84" y="0" x="0 6.5950561 13.190112 16.585199">20.1</tspan></text>
</g>
    </g>
    <g id="g86">
      <g clip-path="url(#clipPath90)" id="g88"><text id="text94" style="font-variant:normal;font-weight:bold;font-size:13.00800037px;font-family:Calibri;-inkscape-font-specification:Calibri-Bold;writing-mode:lr-tb;fill:#404040;fill-opacity:1;fill-rule:nonzero;stroke:none" transform="matrix(1,0,0,-1,286.08,410.14)"><tspan id="tspan96" y="0" x="0 6.5759559 13.151912 16.605947">18.4</tspan></text>
</g>
    </g>
    <g id="g98">
      <g clip-path="url(#clipPath102)" id="g100"><text id="text106" style="font-variant:normal;font-weight:bold;font-size:12.98400021px;font-family:Calibri;-inkscape-font-specification:Calibri-Bold;writing-mode:lr-tb;fill:#404040;fill-opacity:1;fill-rule:nonzero;stroke:none" transform="matrix(1,0,0,-1,337.85,432.5)"><tspan id="tspan108" y="0" x="0 6.5828881 13.165776 16.580568">22.4</tspan></text>
</g>
    </g>
    <g id="g110">
      <g clip-path="url(#clipPath114)" id="g112"><text id="text118" style="font-variant:normal;font-weight:bold;font-size:13.00800037px;font-family:Calibri;-inkscape-font-specification:Calibri-Bold;writing-mode:lr-tb;fill:#404040;fill-opacity:1;fill-rule:nonzero;stroke:none" transform="matrix(1,0,0,-1,389.59,453.07)"><tspan id="tspan120" y="0" x="0 6.5759559 13.151912 16.605947">26.0</tspan></text>
</g>
    </g>
    <g id="g122">
      <g clip-path="url(#clipPath126)" id="g124"><text id="text130" style="font-variant:normal;font-weight:bold;font-size:12.98400021px;font-family:Calibri;-inkscape-font-specification:Calibri-Bold;writing-mode:lr-tb;fill:#404040;fill-opacity:1;fill-rule:nonzero;stroke:none" transform="matrix(1,0,0,-1,441.36,478.3)"><tspan id="tspan132" y="0" x="0 6.5828881 13.165776 16.580568">30.5</tspan></text>
</g>
    </g>
    <g id="g134">
      <g clip-path="url(#clipPath138)" id="g136"><text id="text142" style="font-variant:normal;font-weight:bold;font-size:12.98400021px;font-family:Calibri;-inkscape-font-specification:Calibri-Bold;writing-mode:lr-tb;fill:#404040;fill-opacity:1;fill-rule:nonzero;stroke:none" transform="matrix(1,0,0,-1,493.1,494.83)"><tspan id="tspan144" y="0" x="0 6.5759978 13.151996 16.611834">33.4</tspan></text>
</g>
    </g>
    <g id="g146">
      <g clip-path="url(#clipPath150)" id="g148"><text id="text154" style="font-variant:normal;font-weight:bold;font-size:13.00800037px;font-family:Calibri;-inkscape-font-specification:Calibri-Bold;writing-mode:lr-tb;fill:#595959;fill-opacity:1;fill-rule:nonzero;stroke:none" transform="matrix(1,0,0,-1,77.52,276)"><tspan id="tspan156" y="0" x="0 6.5950561 13.307184 19.902241">2016</tspan></text>
</g>
    </g>
    <g id="g158">
      <g clip-path="url(#clipPath162)" id="g160"><text id="text166" style="font-variant:normal;font-weight:bold;font-size:13.00800037px;font-family:Calibri;-inkscape-font-specification:Calibri-Bold;writing-mode:lr-tb;fill:#595959;fill-opacity:1;fill-rule:nonzero;stroke:none" transform="matrix(1,0,0,-1,129.29,276)"><tspan id="tspan168" y="0" x="0 6.5950561 13.281168 19.876225">2017</tspan></text>
</g>
    </g>
    <g id="g170">
      <g clip-path="url(#clipPath174)" id="g172"><text id="text178" style="font-variant:normal;font-weight:bold;font-size:13.00800037px;font-family:Calibri;-inkscape-font-specification:Calibri-Bold;writing-mode:lr-tb;fill:#595959;fill-opacity:1;fill-rule:nonzero;stroke:none" transform="matrix(1,0,0,-1,181.03,276)"><tspan id="tspan180" y="0" x="0 6.5950561 13.307184 19.902241">2018</tspan></text>
</g>
    </g>
    <g id="g182">
      <g clip-path="url(#clipPath186)" id="g184"><text id="text190" style="font-variant:normal;font-weight:bold;font-size:13.00800037px;font-family:Calibri;-inkscape-font-specification:Calibri-Bold;writing-mode:lr-tb;fill:#595959;fill-opacity:1;fill-rule:nonzero;stroke:none" transform="matrix(1,0,0,-1,232.8,276)"><tspan id="tspan192" y="0" x="0 6.5950561 13.281168 19.876225">2019</tspan></text>
</g>
    </g>
    <g id="g194">
      <g clip-path="url(#clipPath198)" id="g196"><text id="text202" style="font-variant:normal;font-weight:bold;font-size:13.00800037px;font-family:Calibri;-inkscape-font-specification:Calibri-Bold;writing-mode:lr-tb;fill:#595959;fill-opacity:1;fill-rule:nonzero;stroke:none" transform="matrix(1,0,0,-1,284.54,276)"><tspan id="tspan204" y="0" x="0 6.5950561 13.307184 19.902241">2020</tspan></text>
</g>
    </g>
    <g id="g206">
      <g clip-path="url(#clipPath210)" id="g208"><text id="text214" style="font-variant:normal;font-weight:bold;font-size:13.00800037px;font-family:Calibri;-inkscape-font-specification:Calibri-Bold;writing-mode:lr-tb;fill:#595959;fill-opacity:1;fill-rule:nonzero;stroke:none" transform="matrix(1,0,0,-1,336.31,276)"><tspan id="tspan216" y="0" x="0 6.5950561 13.281168 19.876225">2021</tspan></text>
</g>
    </g>
    <g id="g218">
      <g clip-path="url(#clipPath222)" id="g220"><text id="text226" style="font-variant:normal;font-weight:bold;font-size:13.00800037px;font-family:Calibri;-inkscape-font-specification:Calibri-Bold;writing-mode:lr-tb;fill:#595959;fill-opacity:1;fill-rule:nonzero;stroke:none" transform="matrix(1,0,0,-1,388.06,276)"><tspan id="tspan228" y="0" x="0 6.5950561 13.307184 19.902241">2022</tspan></text>
</g>
    </g>
    <g id="g230">
      <g clip-path="url(#clipPath234)" id="g232"><text id="text238" style="font-variant:normal;font-weight:bold;font-size:13.00800037px;font-family:Calibri;-inkscape-font-specification:Calibri-Bold;writing-mode:lr-tb;fill:#595959;fill-opacity:1;fill-rule:nonzero;stroke:none" transform="matrix(1,0,0,-1,439.82,276)"><tspan id="tspan240" y="0" x="0 6.5950561 13.281168 19.876225">2023</tspan></text>
</g>
    </g>
    <g id="g242">
      <g clip-path="url(#clipPath246)" id="g244"><text id="text250" style="font-variant:normal;font-weight:bold;font-size:13.00800037px;font-family:Calibri;-inkscape-font-specification:Calibri-Bold;writing-mode:lr-tb;fill:#595959;fill-opacity:1;fill-rule:nonzero;stroke:none" transform="matrix(1,0,0,-1,491.57,276)"><tspan id="tspan252" y="0" x="0 6.5950561 13.307184 19.902241">2024</tspan></text>
</g>
    </g>
    <path id="path254" style="fill:#000000;fill-opacity:1;fill-rule:nonzero;stroke:none" d="m 70.516,442.6 438.924,76.54 -0.17,0.96 -438.923,-76.54 0.169,-0.96 z m 438.224,72.94 7.04,5.2 -8.38,2.51 1.34,-7.71 z"/>
    <g id="g256">
      <g clip-path="url(#clipPath260)" id="g258">
        <path id="path264" style="fill:#000000;fill-opacity:1;fill-rule:nonzero;stroke:none" d="m 214.29,474.36 c 0.01,-0.07 0.02,-0.14 0.03,-0.19 0,-0.06 0,-0.11 0,-0.15 0,-0.04 -0.01,-0.08 -0.02,-0.12 -0.02,-0.04 -0.04,-0.08 -0.08,-0.14 -0.04,-0.05 -0.12,-0.14 -0.25,-0.26 -0.13,-0.12 -0.29,-0.25 -0.5,-0.38 -0.2,-0.13 -0.43,-0.26 -0.71,-0.37 -0.27,-0.12 -0.57,-0.21 -0.91,-0.27 -0.58,-0.11 -1.12,-0.11 -1.63,-0.01 -0.5,0.11 -0.95,0.32 -1.35,0.63 -0.4,0.32 -0.75,0.74 -1.03,1.26 -0.28,0.52 -0.49,1.14 -0.63,1.87 -0.14,0.74 -0.17,1.42 -0.08,2.04 0.08,0.61 0.25,1.16 0.52,1.62 0.27,0.47 0.63,0.86 1.07,1.16 0.44,0.3 0.95,0.51 1.54,0.62 0.26,0.05 0.51,0.07 0.77,0.07 0.25,0 0.49,-0.02 0.71,-0.05 0.22,-0.04 0.42,-0.09 0.6,-0.16 0.18,-0.06 0.31,-0.12 0.38,-0.17 0.07,-0.05 0.12,-0.09 0.15,-0.12 0.02,-0.03 0.04,-0.06 0.06,-0.11 0.02,-0.04 0.04,-0.09 0.06,-0.15 0.02,-0.05 0.04,-0.13 0.05,-0.21 0.02,-0.09 0.03,-0.17 0.03,-0.24 0.01,-0.06 0,-0.12 -0.01,-0.17 -0.01,-0.04 -0.02,-0.08 -0.05,-0.11 -0.02,-0.02 -0.05,-0.04 -0.08,-0.04 -0.07,-0.02 -0.17,0.01 -0.3,0.08 -0.13,0.07 -0.3,0.14 -0.51,0.21 -0.2,0.08 -0.44,0.13 -0.72,0.17 -0.28,0.04 -0.6,0.03 -0.97,-0.04 -0.39,-0.08 -0.74,-0.22 -1.04,-0.44 -0.29,-0.22 -0.53,-0.51 -0.7,-0.86 -0.18,-0.36 -0.28,-0.77 -0.33,-1.24 -0.04,-0.46 -0.01,-0.98 0.1,-1.56 0.11,-0.56 0.26,-1.05 0.47,-1.46 0.2,-0.42 0.45,-0.75 0.73,-1 0.29,-0.25 0.61,-0.41 0.97,-0.5 0.36,-0.09 0.75,-0.09 1.18,-0.01 0.35,0.07 0.66,0.17 0.91,0.31 0.25,0.13 0.45,0.27 0.62,0.42 0.17,0.14 0.3,0.27 0.41,0.38 0.1,0.11 0.19,0.17 0.26,0.18 0.03,0.01 0.06,0.01 0.08,0 0.03,-0.01 0.05,-0.03 0.08,-0.07 0.02,-0.04 0.04,-0.09 0.06,-0.16 0.02,-0.06 0.04,-0.15 0.06,-0.26 z m 8.42,0.72 c 0.06,-0.09 0.09,-0.17 0.11,-0.23 0.01,-0.07 0,-0.12 -0.03,-0.16 -0.03,-0.03 -0.09,-0.07 -0.17,-0.09 -0.08,-0.03 -0.2,-0.05 -0.34,-0.08 -0.14,-0.03 -0.26,-0.05 -0.34,-0.05 -0.09,-0.01 -0.16,-0.01 -0.2,-0.01 -0.05,0.01 -0.09,0.03 -0.11,0.05 -0.03,0.02 -0.05,0.06 -0.08,0.09 l -1.18,2.04 -3.72,-0.71 -0.32,-2.28 c -0.01,-0.05 -0.02,-0.09 -0.04,-0.12 -0.02,-0.04 -0.05,-0.07 -0.09,-0.1 -0.04,-0.03 -0.09,-0.05 -0.17,-0.08 -0.08,-0.02 -0.19,-0.05 -0.32,-0.07 -0.13,-0.03 -0.24,-0.04 -0.33,-0.04 -0.08,-0.01 -0.15,0 -0.19,0.03 -0.04,0.02 -0.06,0.07 -0.07,0.13 -0.01,0.06 -0.01,0.15 0.01,0.26 l 1.43,8.87 c 0.01,0.05 0.02,0.1 0.05,0.14 0.02,0.04 0.06,0.07 0.12,0.1 0.05,0.03 0.12,0.06 0.21,0.08 0.09,0.02 0.2,0.05 0.34,0.07 0.15,0.03 0.27,0.05 0.37,0.06 0.1,0.01 0.18,0.02 0.24,0.01 0.06,-0.01 0.11,-0.03 0.15,-0.05 0.04,-0.03 0.08,-0.07 0.1,-0.12 l 4.57,-7.74 z m -5.23,6.61 -0.01,0 -0.7,-4.75 3.11,0.58 -2.4,4.17 z m 12.03,2.24 c 0.02,-0.09 0.03,-0.17 0.03,-0.23 0,-0.07 0,-0.13 -0.01,-0.18 -0.01,-0.04 -0.03,-0.08 -0.05,-0.1 -0.03,-0.03 -0.06,-0.04 -0.09,-0.05 -0.05,-0.01 -0.15,0.02 -0.3,0.08 -0.14,0.06 -0.34,0.13 -0.57,0.19 -0.24,0.07 -0.52,0.12 -0.83,0.15 -0.32,0.03 -0.69,0 -1.1,-0.08 -0.5,-0.09 -0.92,-0.26 -1.28,-0.52 -0.36,-0.25 -0.64,-0.56 -0.85,-0.93 -0.22,-0.37 -0.35,-0.79 -0.42,-1.25 -0.06,-0.47 -0.04,-0.95 0.05,-1.47 0.11,-0.57 0.29,-1.06 0.53,-1.47 0.24,-0.41 0.53,-0.75 0.87,-1 0.34,-0.25 0.72,-0.42 1.14,-0.5 0.42,-0.08 0.86,-0.08 1.32,0.01 0.28,0.05 0.55,0.14 0.83,0.26 0.27,0.12 0.51,0.27 0.73,0.45 l -0.49,2.6 -2.08,-0.39 c -0.07,-0.01 -0.14,0.02 -0.19,0.09 -0.06,0.07 -0.1,0.19 -0.13,0.35 -0.02,0.09 -0.03,0.16 -0.03,0.23 0,0.06 0,0.12 0.02,0.16 0.01,0.04 0.03,0.08 0.05,0.1 0.03,0.02 0.06,0.04 0.1,0.05 l 2.84,0.53 c 0.05,0.01 0.1,0.01 0.16,0 0.05,-0.01 0.1,-0.02 0.15,-0.05 0.05,-0.03 0.09,-0.08 0.13,-0.14 0.03,-0.06 0.06,-0.13 0.07,-0.21 l 0.65,-3.41 c 0.02,-0.12 0.02,-0.23 -0.01,-0.32 -0.02,-0.1 -0.09,-0.19 -0.21,-0.28 -0.13,-0.1 -0.28,-0.2 -0.48,-0.32 -0.2,-0.12 -0.41,-0.23 -0.62,-0.32 -0.22,-0.1 -0.44,-0.19 -0.66,-0.26 -0.23,-0.07 -0.45,-0.12 -0.68,-0.17 -0.69,-0.13 -1.33,-0.14 -1.91,-0.03 -0.59,0.12 -1.1,0.33 -1.55,0.66 -0.45,0.33 -0.83,0.75 -1.13,1.26 -0.3,0.52 -0.52,1.12 -0.65,1.8 -0.13,0.71 -0.15,1.37 -0.04,1.99 0.1,0.61 0.31,1.16 0.63,1.64 0.31,0.48 0.72,0.88 1.22,1.21 0.5,0.33 1.09,0.55 1.75,0.68 0.34,0.06 0.67,0.09 0.98,0.09 0.31,-0.01 0.59,-0.03 0.84,-0.06 0.25,-0.04 0.46,-0.09 0.63,-0.15 0.18,-0.07 0.31,-0.13 0.38,-0.17 0.07,-0.05 0.12,-0.11 0.16,-0.19 0.04,-0.07 0.07,-0.18 0.1,-0.33 z m 9.6,-6.01 c 0,-0.03 0,-0.07 -0.01,-0.1 -0.01,-0.03 -0.03,-0.05 -0.07,-0.08 -0.05,-0.03 -0.11,-0.06 -0.19,-0.08 -0.08,-0.02 -0.19,-0.05 -0.33,-0.08 -0.12,-0.02 -0.22,-0.03 -0.3,-0.04 -0.07,0 -0.14,0 -0.19,0.01 -0.05,0.01 -0.09,0.04 -0.12,0.07 -0.03,0.03 -0.06,0.07 -0.09,0.12 l -1.22,1.96 c -0.14,0.22 -0.29,0.42 -0.43,0.6 -0.14,0.18 -0.3,0.33 -0.47,0.45 -0.17,0.12 -0.36,0.2 -0.56,0.24 -0.21,0.05 -0.45,0.04 -0.73,-0.01 l -0.79,-0.15 0.72,-3.81 c 0.01,-0.03 0,-0.07 -0.01,-0.1 -0.02,-0.03 -0.05,-0.06 -0.09,-0.08 -0.04,-0.03 -0.1,-0.05 -0.17,-0.08 -0.07,-0.02 -0.17,-0.05 -0.28,-0.07 -0.12,-0.02 -0.22,-0.03 -0.29,-0.04 -0.08,0 -0.15,0 -0.19,0.01 -0.05,0.01 -0.09,0.02 -0.11,0.05 -0.03,0.02 -0.04,0.05 -0.05,0.09 l -1.56,8.28 c -0.04,0.18 -0.01,0.31 0.07,0.4 0.08,0.09 0.17,0.15 0.28,0.17 l 1.9,0.36 c 0.22,0.04 0.41,0.07 0.57,0.08 0.15,0.02 0.28,0.03 0.41,0.04 0.35,0.01 0.68,-0.03 0.97,-0.11 0.29,-0.08 0.54,-0.2 0.76,-0.36 0.21,-0.17 0.39,-0.37 0.53,-0.61 0.14,-0.24 0.24,-0.51 0.29,-0.82 0.06,-0.3 0.07,-0.57 0.03,-0.83 -0.03,-0.25 -0.11,-0.48 -0.23,-0.69 -0.11,-0.21 -0.27,-0.4 -0.45,-0.58 -0.19,-0.17 -0.41,-0.33 -0.65,-0.47 0.16,-0.04 0.31,-0.09 0.45,-0.17 0.14,-0.08 0.27,-0.17 0.4,-0.29 0.13,-0.12 0.26,-0.26 0.38,-0.42 0.13,-0.17 0.26,-0.35 0.39,-0.56 l 1.18,-1.82 c 0.09,-0.15 0.16,-0.26 0.19,-0.33 0.03,-0.06 0.05,-0.11 0.06,-0.15 z m -2.98,5.95 c -0.07,0.35 -0.2,0.63 -0.4,0.84 -0.21,0.22 -0.5,0.34 -0.89,0.38 -0.12,0.01 -0.26,0.01 -0.4,-0.01 -0.15,-0.01 -0.34,-0.04 -0.58,-0.08 l -1,-0.19 0.57,-3.02 1.16,0.22 c 0.31,0.06 0.58,0.15 0.79,0.27 0.21,0.12 0.38,0.26 0.51,0.42 0.13,0.17 0.21,0.35 0.25,0.55 0.03,0.2 0.03,0.4 -0.01,0.62 z m 5.25,0.02 c 0.03,-0.14 0.04,-0.27 0.04,-0.37 0,-0.11 -0.03,-0.2 -0.07,-0.27 -0.05,-0.08 -0.12,-0.13 -0.2,-0.18 -0.09,-0.04 -0.21,-0.07 -0.35,-0.1 -0.15,-0.03 -0.27,-0.04 -0.36,-0.03 -0.1,0.01 -0.18,0.04 -0.25,0.09 -0.07,0.05 -0.12,0.13 -0.16,0.22 -0.04,0.1 -0.07,0.22 -0.1,0.37 -0.03,0.16 -0.05,0.29 -0.05,0.4 0.01,0.1 0.03,0.19 0.07,0.27 0.05,0.07 0.11,0.13 0.2,0.17 0.09,0.04 0.2,0.08 0.35,0.11 0.14,0.02 0.26,0.03 0.36,0.03 0.1,-0.01 0.18,-0.04 0.25,-0.09 0.07,-0.06 0.12,-0.13 0.16,-0.23 0.04,-0.1 0.08,-0.23 0.11,-0.39 z m 0.9,-4.79 c 0.03,-0.15 0.05,-0.28 0.05,-0.39 -0.01,-0.1 -0.03,-0.19 -0.08,-0.27 -0.04,-0.07 -0.11,-0.13 -0.2,-0.17 -0.08,-0.04 -0.2,-0.08 -0.34,-0.1 -0.15,-0.03 -0.27,-0.04 -0.37,-0.03 -0.09,0 -0.18,0.03 -0.24,0.09 -0.07,0.05 -0.12,0.12 -0.16,0.22 -0.04,0.1 -0.08,0.22 -0.11,0.37 -0.03,0.16 -0.04,0.29 -0.04,0.39 0,0.11 0.03,0.2 0.07,0.27 0.04,0.07 0.11,0.13 0.2,0.17 0.08,0.05 0.2,0.08 0.35,0.11 0.14,0.03 0.26,0.04 0.36,0.03 0.1,-0.01 0.18,-0.04 0.25,-0.09 0.07,-0.05 0.12,-0.12 0.16,-0.22 0.04,-0.1 0.08,-0.23 0.1,-0.38 z m 10.14,5.28 c 0.01,-0.09 0.02,-0.17 0.02,-0.23 0,-0.07 -0.01,-0.12 -0.03,-0.17 -0.01,-0.05 -0.03,-0.08 -0.06,-0.1 -0.03,-0.03 -0.06,-0.05 -0.1,-0.05 l -2.27,-0.43 0.48,-2.52 c 0,-0.03 0,-0.07 -0.01,-0.09 -0.02,-0.03 -0.04,-0.06 -0.08,-0.09 -0.03,-0.02 -0.08,-0.05 -0.14,-0.07 -0.07,-0.02 -0.15,-0.05 -0.24,-0.06 -0.09,-0.02 -0.18,-0.03 -0.24,-0.03 -0.07,0 -0.13,0 -0.17,0.01 -0.04,0.01 -0.08,0.03 -0.1,0.05 -0.02,0.02 -0.04,0.05 -0.05,0.09 l -0.47,2.52 -2.27,-0.43 c -0.04,-0.01 -0.08,-0.01 -0.11,0.01 -0.03,0.01 -0.07,0.03 -0.1,0.07 -0.03,0.04 -0.06,0.09 -0.08,0.15 -0.03,0.06 -0.05,0.13 -0.06,0.22 -0.02,0.08 -0.03,0.15 -0.03,0.22 0.01,0.06 0.02,0.12 0.03,0.16 0.02,0.05 0.04,0.09 0.06,0.11 0.03,0.02 0.06,0.04 0.1,0.05 l 2.27,0.43 -0.47,2.51 c -0.01,0.04 -0.01,0.07 0.01,0.11 0.01,0.03 0.03,0.06 0.07,0.09 0.03,0.03 0.08,0.05 0.15,0.08 0.06,0.02 0.14,0.04 0.23,0.06 0.1,0.02 0.18,0.03 0.25,0.03 0.07,0 0.12,-0.01 0.16,-0.02 0.05,-0.01 0.08,-0.03 0.1,-0.06 0.03,-0.03 0.04,-0.06 0.05,-0.1 l 0.48,-2.51 2.27,0.43 c 0.04,0 0.07,0 0.11,-0.01 0.03,-0.01 0.06,-0.04 0.1,-0.08 0.03,-0.03 0.06,-0.08 0.08,-0.14 0.02,-0.06 0.04,-0.13 0.06,-0.21 z m 6.81,2.15 c 0.07,-0.38 0.12,-0.78 0.15,-1.18 0.03,-0.41 0.02,-0.81 -0.02,-1.19 -0.04,-0.39 -0.12,-0.76 -0.25,-1.12 -0.13,-0.35 -0.31,-0.68 -0.55,-0.97 -0.24,-0.29 -0.54,-0.54 -0.9,-0.75 -0.36,-0.21 -0.8,-0.37 -1.32,-0.46 -0.2,-0.04 -0.39,-0.06 -0.58,-0.07 -0.2,-0.01 -0.37,-0.02 -0.53,-0.01 -0.15,0.01 -0.29,0.03 -0.4,0.05 -0.1,0.02 -0.19,0.05 -0.24,0.08 -0.05,0.04 -0.1,0.09 -0.13,0.15 -0.04,0.07 -0.07,0.16 -0.09,0.28 -0.02,0.11 -0.03,0.19 -0.03,0.25 -0.01,0.06 -0.01,0.11 0,0.14 0.01,0.04 0.03,0.06 0.05,0.08 0.02,0.01 0.05,0.03 0.09,0.03 0.05,0.01 0.12,0.01 0.22,-0.01 0.1,-0.02 0.22,-0.03 0.37,-0.05 0.15,-0.01 0.32,-0.02 0.52,-0.02 0.19,0 0.41,0.03 0.64,0.07 0.45,0.09 0.82,0.24 1.11,0.48 0.28,0.23 0.5,0.51 0.65,0.84 0.15,0.33 0.24,0.69 0.27,1.1 0.02,0.4 0,0.81 -0.07,1.24 -0.21,-0.19 -0.48,-0.37 -0.8,-0.55 -0.32,-0.17 -0.7,-0.3 -1.15,-0.39 -0.49,-0.09 -0.93,-0.1 -1.29,-0.03 -0.36,0.07 -0.67,0.21 -0.92,0.4 -0.25,0.2 -0.45,0.45 -0.6,0.76 -0.15,0.3 -0.26,0.65 -0.34,1.03 -0.07,0.39 -0.08,0.78 -0.04,1.16 0.05,0.38 0.17,0.73 0.37,1.05 0.19,0.31 0.46,0.59 0.81,0.82 0.34,0.23 0.78,0.4 1.3,0.5 0.38,0.07 0.72,0.09 1.02,0.05 0.31,-0.04 0.58,-0.13 0.83,-0.27 0.25,-0.14 0.47,-0.32 0.66,-0.54 0.2,-0.23 0.37,-0.49 0.52,-0.79 0.15,-0.3 0.28,-0.63 0.39,-1 0.11,-0.36 0.2,-0.75 0.28,-1.16 z m -1.24,-0.09 c -0.11,0.59 -0.24,1.08 -0.4,1.46 -0.15,0.39 -0.33,0.7 -0.53,0.92 -0.2,0.22 -0.42,0.36 -0.66,0.43 -0.24,0.07 -0.51,0.08 -0.8,0.02 -0.3,-0.05 -0.54,-0.16 -0.73,-0.31 -0.2,-0.14 -0.34,-0.32 -0.44,-0.53 -0.1,-0.21 -0.17,-0.43 -0.19,-0.68 -0.02,-0.24 -0.01,-0.48 0.04,-0.73 0.05,-0.27 0.13,-0.51 0.23,-0.73 0.1,-0.21 0.23,-0.38 0.39,-0.52 0.15,-0.13 0.35,-0.22 0.57,-0.26 0.22,-0.05 0.49,-0.04 0.79,0.01 0.35,0.07 0.67,0.18 0.97,0.35 0.31,0.16 0.56,0.35 0.76,0.57 z m 5.31,-3.35 c 0.06,-0.33 0.05,-0.56 -0.04,-0.69 -0.09,-0.13 -0.27,-0.22 -0.56,-0.27 -0.27,-0.05 -0.48,-0.04 -0.6,0.05 -0.13,0.09 -0.22,0.29 -0.28,0.61 -0.06,0.32 -0.05,0.55 0.04,0.68 0.09,0.13 0.27,0.22 0.56,0.27 0.27,0.06 0.48,0.04 0.6,-0.05 0.13,-0.08 0.22,-0.29 0.28,-0.6 z m 7.31,2.97 c 0.08,-0.38 0.07,-0.74 -0.01,-1.07 -0.08,-0.33 -0.23,-0.62 -0.45,-0.88 -0.22,-0.25 -0.52,-0.47 -0.88,-0.65 -0.36,-0.18 -0.79,-0.31 -1.28,-0.4 -0.46,-0.09 -0.88,-0.12 -1.27,-0.09 -0.38,0.02 -0.71,0.11 -1,0.25 -0.29,0.14 -0.53,0.34 -0.72,0.59 -0.18,0.25 -0.31,0.55 -0.37,0.91 -0.06,0.28 -0.06,0.55 -0.01,0.8 0.05,0.25 0.14,0.49 0.27,0.72 0.14,0.23 0.32,0.46 0.54,0.68 0.22,0.22 0.47,0.44 0.76,0.66 -0.3,0.09 -0.58,0.19 -0.82,0.31 -0.24,0.12 -0.45,0.26 -0.63,0.42 -0.19,0.16 -0.34,0.33 -0.45,0.53 -0.12,0.2 -0.2,0.42 -0.25,0.67 -0.06,0.32 -0.06,0.62 0.01,0.92 0.06,0.29 0.18,0.56 0.37,0.81 0.19,0.24 0.45,0.46 0.78,0.64 0.33,0.19 0.73,0.32 1.2,0.41 0.45,0.09 0.86,0.11 1.21,0.06 0.34,-0.05 0.64,-0.14 0.89,-0.29 0.25,-0.14 0.45,-0.33 0.6,-0.57 0.15,-0.23 0.25,-0.5 0.31,-0.79 0.04,-0.23 0.05,-0.46 0.01,-0.69 -0.03,-0.24 -0.11,-0.46 -0.22,-0.68 -0.11,-0.22 -0.25,-0.44 -0.44,-0.65 -0.18,-0.21 -0.4,-0.41 -0.64,-0.61 0.35,-0.1 0.68,-0.21 0.96,-0.33 0.29,-0.13 0.54,-0.27 0.75,-0.43 0.21,-0.17 0.38,-0.35 0.51,-0.55 0.13,-0.2 0.22,-0.43 0.27,-0.7 z m -2.36,4.31 c -0.03,0.2 -0.1,0.36 -0.2,0.51 -0.09,0.14 -0.21,0.26 -0.36,0.34 -0.15,0.09 -0.33,0.14 -0.53,0.17 -0.2,0.02 -0.43,0 -0.67,-0.04 -0.5,-0.1 -0.86,-0.28 -1.07,-0.55 -0.21,-0.28 -0.28,-0.61 -0.21,-1 0.04,-0.18 0.1,-0.34 0.19,-0.49 0.09,-0.14 0.22,-0.27 0.37,-0.38 0.16,-0.11 0.35,-0.22 0.58,-0.31 0.22,-0.09 0.49,-0.19 0.79,-0.28 0.42,0.33 0.73,0.66 0.92,1 0.2,0.34 0.26,0.68 0.19,1.03 z m 1.18,-4.66 c -0.04,0.21 -0.11,0.4 -0.22,0.56 -0.11,0.16 -0.26,0.29 -0.45,0.41 -0.19,0.12 -0.41,0.23 -0.68,0.33 -0.26,0.09 -0.56,0.19 -0.9,0.28 -0.27,-0.2 -0.5,-0.39 -0.69,-0.57 -0.19,-0.19 -0.34,-0.37 -0.45,-0.55 -0.12,-0.18 -0.19,-0.36 -0.23,-0.54 -0.04,-0.18 -0.04,-0.37 0,-0.57 0.08,-0.45 0.3,-0.77 0.65,-0.95 0.36,-0.19 0.84,-0.23 1.44,-0.11 0.59,0.11 1.02,0.32 1.27,0.62 0.26,0.3 0.34,0.67 0.26,1.09 z m 5.33,5.73 c 0.07,-0.35 0.09,-0.68 0.07,-0.99 -0.03,-0.3 -0.1,-0.57 -0.22,-0.81 -0.13,-0.23 -0.3,-0.43 -0.52,-0.59 -0.23,-0.17 -0.51,-0.28 -0.84,-0.34 -0.33,-0.06 -0.63,-0.07 -0.89,0 -0.26,0.06 -0.49,0.17 -0.68,0.34 -0.19,0.18 -0.34,0.4 -0.47,0.67 -0.13,0.28 -0.22,0.6 -0.29,0.97 -0.07,0.33 -0.09,0.65 -0.07,0.95 0.03,0.3 0.1,0.57 0.21,0.81 0.12,0.24 0.29,0.44 0.52,0.6 0.22,0.17 0.5,0.28 0.84,0.35 0.36,0.07 0.68,0.06 0.95,-0.02 0.27,-0.07 0.5,-0.2 0.68,-0.39 0.19,-0.18 0.34,-0.4 0.45,-0.67 0.12,-0.27 0.2,-0.56 0.26,-0.88 z m -0.96,-0.21 c -0.05,0.25 -0.11,0.48 -0.18,0.67 -0.08,0.2 -0.17,0.35 -0.27,0.47 -0.1,0.12 -0.22,0.2 -0.36,0.25 -0.13,0.04 -0.29,0.04 -0.46,0.01 -0.16,-0.03 -0.29,-0.09 -0.4,-0.17 -0.11,-0.09 -0.19,-0.21 -0.24,-0.35 -0.05,-0.14 -0.08,-0.31 -0.08,-0.51 0,-0.2 0.02,-0.43 0.07,-0.69 0.06,-0.31 0.13,-0.57 0.22,-0.77 0.08,-0.2 0.17,-0.35 0.28,-0.46 0.1,-0.11 0.22,-0.17 0.35,-0.2 0.13,-0.02 0.28,-0.02 0.43,0.01 0.19,0.03 0.33,0.09 0.44,0.19 0.1,0.09 0.17,0.21 0.22,0.36 0.05,0.15 0.07,0.32 0.06,0.52 -0.01,0.19 -0.03,0.42 -0.08,0.67 z m 7.08,-3.26 c 0.07,-0.36 0.09,-0.69 0.07,-0.99 -0.03,-0.31 -0.1,-0.58 -0.22,-0.81 -0.13,-0.24 -0.3,-0.44 -0.53,-0.6 -0.22,-0.16 -0.5,-0.27 -0.83,-0.34 -0.34,-0.06 -0.63,-0.06 -0.89,0 -0.26,0.06 -0.49,0.18 -0.68,0.35 -0.19,0.17 -0.35,0.39 -0.47,0.67 -0.13,0.27 -0.23,0.59 -0.29,0.96 -0.07,0.34 -0.09,0.66 -0.07,0.96 0.02,0.3 0.09,0.56 0.21,0.8 0.12,0.24 0.29,0.44 0.51,0.61 0.23,0.16 0.51,0.28 0.84,0.34 0.37,0.07 0.69,0.07 0.96,-0.01 0.27,-0.08 0.49,-0.21 0.68,-0.39 0.19,-0.18 0.34,-0.41 0.45,-0.68 0.11,-0.27 0.2,-0.56 0.26,-0.87 z m -0.96,-0.22 c -0.05,0.26 -0.11,0.48 -0.19,0.68 -0.07,0.19 -0.16,0.35 -0.26,0.47 -0.1,0.11 -0.22,0.2 -0.36,0.24 -0.13,0.04 -0.29,0.05 -0.46,0.02 -0.16,-0.03 -0.29,-0.09 -0.4,-0.18 -0.11,-0.09 -0.19,-0.2 -0.24,-0.35 -0.05,-0.14 -0.08,-0.31 -0.08,-0.51 0,-0.2 0.02,-0.43 0.07,-0.68 0.06,-0.32 0.13,-0.57 0.22,-0.78 0.08,-0.2 0.17,-0.35 0.28,-0.46 0.1,-0.1 0.22,-0.17 0.35,-0.2 0.13,-0.02 0.27,-0.02 0.43,0.01 0.18,0.04 0.33,0.1 0.43,0.19 0.11,0.09 0.18,0.21 0.23,0.36 0.04,0.15 0.06,0.32 0.06,0.52 -0.01,0.2 -0.03,0.42 -0.08,0.67 z m -5.83,-3.46 c -0.02,-0.05 -0.04,-0.09 -0.07,-0.11 -0.03,-0.03 -0.06,-0.06 -0.11,-0.08 -0.04,-0.03 -0.09,-0.05 -0.15,-0.07 -0.07,-0.02 -0.15,-0.03 -0.24,-0.05 -0.1,-0.02 -0.18,-0.03 -0.25,-0.02 -0.06,0.01 -0.11,0.02 -0.14,0.05 -0.03,0.02 -0.05,0.06 -0.05,0.1 0,0.05 0.01,0.1 0.04,0.16 l 4.53,10.09 c 0.02,0.04 0.04,0.08 0.07,0.11 0.03,0.03 0.06,0.06 0.11,0.08 0.05,0.02 0.1,0.04 0.16,0.06 0.06,0.02 0.14,0.04 0.24,0.06 0.09,0.01 0.17,0.02 0.24,0.02 0.06,-0.01 0.11,-0.02 0.15,-0.05 0.03,-0.03 0.05,-0.06 0.05,-0.11 0,-0.05 -0.01,-0.1 -0.04,-0.16 l -4.54,-10.08 z"/>
      </g>
    </g>
  </g>
</svg>
