<svg version="1.1" width="100%" height="100%" viewBox="0 0 355 176" xmlns="http://www.w3.org/2000/svg" xmlns:xlink="http://www.w3.org/1999/xlink"><style type="text/css" /><defs><clipPath id="clip001"><path d="M0,0 L413.3333,0 L413.3333,221.3333 L0,221.3333 Z" clip-rule="evenodd" /></clipPath><clipPath id="clip002"><path d="M0,0 L413.3333,0 L413.3333,221.3333 L0,221.3333 Z" clip-rule="evenodd" /></clipPath><clipPath id="clip003"><path d="M0,0 L413.3333,0 L413.3333,221.3333 L0,221.3333 Z" clip-rule="evenodd" /></clipPath><clipPath id="clip004"><path d="M0,0 L780,0 L780,236 L0,236 Z" clip-rule="evenodd" /></clipPath><clipPath id="clip005"><path d="M-120,0 L900,0 L900,236 L-120,236 Z" clip-rule="evenodd" /></clipPath><clipPath id="clip006"><path d="M0,0 L412,0 L412,218.6667 L0,218.6667 Z" clip-rule="evenodd" /></clipPath><clipPath id="clip007"><path d="M41.33333,8 L409.3333,8 L409.3333,173.3333 L41.33333,173.3333 Z" clip-rule="evenodd" /></clipPath><clipPath id="clip008"><path d="M0,0 L412,0 L412,218.6667 L0,218.6667 Z" clip-rule="evenodd" /></clipPath><clipPath id="clip009"><path d="M0,0 L412,0 L412,218.6667 L0,218.6667 Z" clip-rule="evenodd" /></clipPath><clipPath id="clip010"><path d="M0,0 L412,0 L412,218.6667 L0,218.6667 Z" clip-rule="evenodd" /></clipPath><clipPath id="clip011"><path d="M0,0 L412,0 L412,218.6667 L0,218.6667 Z" clip-rule="evenodd" /></clipPath><clipPath id="clip012"><path d="M0,0 L412,0 L412,218.6667 L0,218.6667 Z" clip-rule="evenodd" /></clipPath><clipPath id="clip013"><path d="M0,0 L412,0 L412,218.6667 L0,218.6667 Z" clip-rule="evenodd" /></clipPath><clipPath id="clip014"><path d="M0,0 L412,0 L412,218.6667 L0,218.6667 Z" clip-rule="evenodd" /></clipPath><clipPath id="clip015"><path d="M0,0 L412,0 L412,218.6667 L0,218.6667 Z" clip-rule="evenodd" /></clipPath><clipPath id="clip016"><path d="M0,0 L412,0 L412,218.6667 L0,218.6667 Z" clip-rule="evenodd" /></clipPath><clipPath id="clip017"><path d="M0,0 L412,0 L412,218.6667 L0,218.6667 Z" clip-rule="evenodd" /></clipPath><clipPath id="clip018"><path d="M0,0 L412,0 L412,218.6667 L0,218.6667 Z" clip-rule="evenodd" /></clipPath><clipPath id="clip019"><path d="M0,0 L412,0 L412,218.6667 L0,218.6667 Z" clip-rule="evenodd" /></clipPath><clipPath id="clip020"><path d="M0,0 L412,0 L412,218.6667 L0,218.6667 Z" clip-rule="evenodd" /></clipPath><clipPath id="clip021"><path d="M0,0 L412,0 L412,218.6667 L0,218.6667 Z" clip-rule="evenodd" /></clipPath><clipPath id="clip022"><path d="M0,0 L412,0 L412,218.6667 L0,218.6667 Z" clip-rule="evenodd" /></clipPath><clipPath id="clip023"><path d="M0,0 L412,0 L412,218.6667 L0,218.6667 Z" clip-rule="evenodd" /></clipPath><clipPath id="clip024"><path d="M0,0 L412,0 L412,218.6667 L0,218.6667 Z" clip-rule="evenodd" /></clipPath><clipPath id="clip025"><path d="M0,0 L412,0 L412,218.6667 L0,218.6667 Z" clip-rule="evenodd" /></clipPath><clipPath id="clip026"><path d="M0,0 L412,0 L412,218.6667 L0,218.6667 Z" clip-rule="evenodd" /></clipPath><clipPath id="clip027"><path d="M0,0 L412,0 L412,218.6667 L0,218.6667 Z" clip-rule="evenodd" /></clipPath><clipPath id="clip028"><path d="M0,0 L412,0 L412,218.6667 L0,218.6667 Z" clip-rule="evenodd" /></clipPath><clipPath id="clip029"><path d="M0,0 L412,0 L412,218.6667 L0,218.6667 Z" clip-rule="evenodd" /></clipPath><clipPath id="clip030"><path d="M0,0 L412,0 L412,218.6667 L0,218.6667 Z" clip-rule="evenodd" /></clipPath><clipPath id="clip031"><path d="M0,0 L412,0 L412,218.6667 L0,218.6667 Z" clip-rule="evenodd" /></clipPath><clipPath id="clip032"><path d="M0,0 L412,0 L412,218.6667 L0,218.6667 Z" clip-rule="evenodd" /></clipPath><clipPath id="clip033"><path d="M0,0 L412,0 L412,218.6667 L0,218.6667 Z" clip-rule="evenodd" /></clipPath><clipPath id="clip034"><path d="M0,0 L412,0 L412,218.6667 L0,218.6667 Z" clip-rule="evenodd" /></clipPath><clipPath id="clip035"><path d="M0,0 L412,0 L412,218.6667 L0,218.6667 Z" clip-rule="evenodd" /></clipPath><clipPath id="clip036"><path d="M0,0 L412,0 L412,218.6667 L0,218.6667 Z" clip-rule="evenodd" /></clipPath><clipPath id="clip037"><path d="M0,0 L412,0 L412,218.6667 L0,218.6667 Z" clip-rule="evenodd" /></clipPath><clipPath id="clip038"><path d="M0,0 L412,0 L412,218.6667 L0,218.6667 Z" clip-rule="evenodd" /></clipPath><clipPath id="clip039"><path d="M0,0 L412,0 L412,218.6667 L0,218.6667 Z" clip-rule="evenodd" /></clipPath><clipPath id="clip040"><path d="M0,0 L412,0 L412,218.6667 L0,218.6667 Z" clip-rule="evenodd" /></clipPath><clipPath id="clip041"><path d="M0,0 L412,0 L412,218.6667 L0,218.6667 Z" clip-rule="evenodd" /></clipPath><clipPath id="clip042"><path d="M0,0 L412,0 L412,218.6667 L0,218.6667 Z" clip-rule="evenodd" /></clipPath><clipPath id="clip043"><path d="M0,0 L412,0 L412,218.6667 L0,218.6667 Z" clip-rule="evenodd" /></clipPath><clipPath id="clip044"><path d="M0,0 L412,0 L412,218.6667 L0,218.6667 Z" clip-rule="evenodd" /></clipPath><clipPath id="clip045"><path d="M0,0 L412,0 L412,218.6667 L0,218.6667 Z" clip-rule="evenodd" /></clipPath><clipPath id="clip046"><path d="M0,0 L412,0 L412,218.6667 L0,218.6667 Z" clip-rule="evenodd" /></clipPath><clipPath id="clip047"><path d="M0,0 L412,0 L412,218.6667 L0,218.6667 Z" clip-rule="evenodd" /></clipPath><clipPath id="clip048"><path d="M0,0 L412,0 L412,218.6667 L0,218.6667 Z" clip-rule="evenodd" /></clipPath><clipPath id="clip049"><path d="M0,0 L412,0 L412,218.6667 L0,218.6667 Z" clip-rule="evenodd" /></clipPath><clipPath id="clip050"><path d="M0,0 L412,0 L412,218.6667 L0,218.6667 Z" clip-rule="evenodd" /></clipPath><clipPath id="clip051"><path d="M0,0 L412,0 L412,218.6667 L0,218.6667 Z" clip-rule="evenodd" /></clipPath><clipPath id="clip052"><path d="M0,0 L412,0 L412,218.6667 L0,218.6667 Z" clip-rule="evenodd" /></clipPath><clipPath id="clip053"><path d="M0,0 L412,0 L412,218.6667 L0,218.6667 Z" clip-rule="evenodd" /></clipPath></defs><clipPath id="page-clip-path-1"><rect x="0" y="0" width="354.67" height="176" /></clipPath><g clip-path="url(#page-clip-path-1)" transform="translate(0.17,0)"><g transform="translate(1,1)"><g><g transform="matrix(0.7996774,0,0,0.7945783,0,0)" clip-path="url(#clip001)"><g><g clip-path="url(#clip002)"><g><g clip-path="url(#clip003)"><g transform="matrix(1.002173,0,0,1.003674,0,0)"><g><g><g clip-path="url(#clip004)"><g transform="translate(412,220)" /></g></g></g><g clip-path="url(#clip005)"><g transform="matrix(0.000098425,0,0,0.000098425,0,0)"><path d="M0,0 L4199467,0 L4199467,2235200 L0,2235200 Z" fill="#ffffff" fill-opacity="0" fill-rule="evenodd" /></g></g><g clip-path="url(#clip006)"><g transform="matrix(0.000098425,0,0,0.000098425,42,174)"><g><path d="M0.002424242,-6773.333 L3725333,-6772 " stroke-width="3386.667" stroke-linejoin="round" stroke-miterlimit="13.33333" stroke="#000000" fill="none" fill-rule="evenodd" /><path d="M-0.001212121,3386.667 L3725333,3388 " stroke-width="10160" stroke-linejoin="round" stroke-miterlimit="13.33333" stroke="#000000" fill="none" fill-rule="evenodd" /></g></g></g><g clip-path="url(#clip007)"><g transform="matrix(0.000098425,0,0,0.000098425,42,19.33333)"><path d="M0,1490133 L0,1490133 L0,1490133 L13546.67,1490133 L13546.67,1490133 L13546.67,1503680 L13546.67,1503680 L27093.33,1503680 L27093.33,1503680 L27093.33,1503680 L27093.33,1503680 L27093.33,1503680 L27093.33,1503680 L27093.33,1503680 L27093.33,1503680 L40640,1503680 L40640,1503680 L40640,1503680 L40640,1503680 L54186.67,1503680 L54186.67,1503680 L54186.67,1503680 L54186.67,1503680 L54186.67,1503680 L54186.67,1503680 L54186.67,1503680 L54186.67,1503680 L94826.66,1503680 L94826.66,1503680 L94826.66,1503680 L94826.66,1503680 L108373.3,1503680 L108373.3,1503680 L108373.3,1503680 L108373.3,1503680 L108373.3,1503680 L108373.3,1503680 L121920,1503680 L121920,1503680 L121920,1503680 L121920,1503680 L121920,1503680 L121920,1503680 L135466.7,1503680 L135466.7,1503680 L135466.7,1503680 L135466.7,1503680 L149013.3,1503680 L149013.3,1503680 L149013.3,1503680 L149013.3,1503680 L149013.3,1503680 L149013.3,1503680 L149013.3,1517227 L149013.3,1517227 L162560,1517227 L162560,1517227 L162560,1517227 L162560,1517227 L176106.7,1517227 L176106.7,1517227 L176106.7,1517227 L176106.7,1517227 L176106.7,1517227 L176106.7,1517227 L176106.7,1517227 L176106.7,1517227 L189653.3,1517227 L189653.3,1517227 L189653.3,1517227 L189653.3,1517227 L203200,1517227 L203200,1517227 L203200,1517227 L203200,1517227 L203200,1517227 L203200,1517227 L216746.7,1517227 L216746.7,1517227 L216746.7,1517227 L216746.7,1517227 L230293.3,1517227 L230293.3,1517227 L230293.3,1517227 L230293.3,1517227 L230293.3,1517227 L230293.3,1517227 L243840,1517227 L243840,1517227 L243840,1517227 L243840,1517227 L243840,1517227 L243840,1517227 L257386.7,1517227 L257386.7,1517227 L257386.7,1517227 L257386.7,1517227 L270933.3,1517227 L270933.3,1517227 L270933.3,1517227 L270933.3,1517227 L270933.3,1517227 L270933.3,1517227 L270933.3,1517227 L270933.3,1517227 L284480,1517227 L284480,1517227 L284480,1517227 L284480,1517227 L298026.7,1517227 L298026.7,1517227 L298026.7,1517227 L298026.7,1517227 L298026.7,1517227 L298026.7,1517227 L298026.7,1517227 L298026.7,1517227 L311573.3,1517227 L311573.3,1517227 L311573.3,1530773 L311573.3,1530773 L325120,1530773 L325120,1530773 L325120,1530773 L325120,1530773 L338666.7,1530773 L338666.7,1530773 L338666.7,1517227 L338666.7,1517227 L338666.7,1517227 L338666.7,1517227 L352213.3,1517227 L352213.3,1517227 L352213.3,1517227 L352213.3,1517227 L365760,1517227 L365760,1517227 L365760,1517227 L365760,1517227 L365760,1517227 L365760,1517227 L379306.7,1517227 L379306.7,1517227 L379306.7,1517227 L379306.7,1517227 L392853.3,1517227 L392853.3,1517227 L392853.3,1530773 L392853.3,1530773 L392853.3,1530773 L392853.3,1530773 L392853.3,1530773 L392853.3,1530773 L406400,1530773 L406400,1530773 L419946.7,1530773 L419946.7,1530773 L419946.7,1530773 L419946.7,1530773 L419946.7,1530773 L419946.7,1530773 L419946.7,1530773 L419946.7,1530773 L433493.3,1530773 L433493.3,1530773 L433493.3,1530773 L433493.3,1530773 L447040,1530773 L447040,1530773 L447040,1530773 L447040,1530773 L447040,1530773 L447040,1530773 L460586.7,1530773 L460586.7,1530773 L460586.7,1530773 L460586.7,1530773 L460586.7,1530773 L460586.7,1530773 L474133.3,1530773 L474133.3,1530773 L474133.3,1530773 L474133.3,1530773 L487680,1530773 L487680,1530773 L487680,1530773 L487680,1530773 L487680,1530773 L487680,1530773 L501226.7,1530773 L501226.7,1530773 L501226.7,1530773 L501226.7,1530773 L514773.3,1530773 L514773.3,1530773 L514773.3,1530773 L514773.3,1530773 L514773.3,1530773 L514773.3,1530773 L514773.3,1530773 L514773.3,1530773 L528320,1530773 L528320,1530773 L528320,1530773 L528320,1530773 L541866.7,1530773 L541866.7,1530773 L541866.7,1530773 L541866.7,1530773 L541866.7,1530773 L541866.7,1530773 L541866.7,1530773 L541866.7,1530773 L555413.3,1530773 L555413.3,1530773 L555413.3,1530773 L555413.3,1530773 L568960,1530773 L568960,1530773 L568960,1530773 L568960,1530773 L568960,1530773 L568960,1530773 L582506.7,1530773 L582506.7,1530773 L582506.7,1530773 L582506.7,1530773 L582506.7,1530773 L582506.7,1530773 L609600,1530773 L609600,1530773 L609600,1530773 L609600,1530773 L609600,1530773 L609600,1530773 L609600,1530773 L609600,1530773 L623146.7,1530773 L623146.7,1530773 L636693.3,1530773 L636693.3,1530773 L636693.3,1530773 L636693.3,1530773 L636693.3,1530773 L636693.3,1530773 L636693.3,1530773 L636693.3,1530773 L650240,1530773 L650240,1530773 L650240,1530773 L650240,1530773 L663786.7,1530773 L663786.7,1530773 L663786.7,1530773 L663786.7,1530773 L663786.7,1530773 L663786.7,1530773 L663786.7,1530773 L663786.7,1530773 L677333.3,1530773 L677333.3,1530773 L677333.3,1530773 L677333.3,1530773 L690880,1530773 L690880,1530773 L690880,1530773 L690880,1530773 L690880,1530773 L690880,1530773 L704426.7,1530773 L704426.7,1530773 L704426.7,1530773 L704426.7,1530773 L704426.7,1530773 L704426.7,1530773 L717973.3,1530773 L717973.3,1530773 L717973.3,1530773 L717973.3,1530773 L731520,1530773 L731520,1530773 L731520,1530773 L731520,1530773 L731520,1530773 L731520,1530773 L731520,1530773 L731520,1530773 L745066.7,1530773 L745066.7,1530773 L745066.7,1530773 L745066.7,1530773 L758613.3,1530773 L758613.3,1530773 L758613.3,1530773 L758613.3,1530773 L758613.3,1530773 L758613.3,1530773 L758613.3,1530773 L758613.3,1530773 L772160,1530773 L772160,1530773 L785706.7,1530773 L785706.7,1530773 L785706.7,1530773 L785706.7,1530773 L785706.7,1530773 L785706.7,1530773 L785706.7,1530773 L785706.7,1530773 L799253.3,1530773 L799253.3,1530773 L799253.3,1530773 L799253.3,1530773 L812800,1530773 L812800,1530773 L812800,1530773 L812800,1530773 L812800,1530773 L812800,1530773 L826346.7,1530773 L826346.7,1530773 L826346.7,1530773 L826346.7,1530773 L826346.7,1530773 L826346.7,1530773 L839893.3,1530773 L839893.3,1530773 L839893.3,1530773 L839893.3,1530773 L853440,1530773 L853440,1530773 L853440,1530773 L853440,1530773 L853440,1530773 L853440,1530773 L853440,1530773 L853440,1530773 L866986.7,1530773 L866986.7,1530773 L866986.7,1530773 L866986.7,1530773 L880533.3,1530773 L880533.3,1530773 L880533.3,1530773 L880533.3,1530773 L880533.3,1530773 L880533.3,1530773 L880533.3,1530773 L880533.3,1530773 L894080,1530773 L894080,1530773 L894080,1530773 L894080,1530773 L907626.7,1530773 L907626.7,1530773 L907626.7,1530773 L907626.7,1530773 L907626.7,1530773 L907626.7,1530773 L921173.3,1530773 L921173.3,1530773 L921173.3,1530773 L921173.3,1530773 L934720,1530773 L934720,1530773 L934720,1530773 L934720,1530773 L948266.7,1530773 L948266.7,1530773 L948266.7,1530773 L948266.7,1530773 L948266.7,1530773 L948266.7,1530773 L961813.3,1530773 L961813.3,1530773 L961813.3,1530773 L961813.3,1530773 L975360,1530773 L975360,1530773 L975360,1530773 L975360,1530773 L975360,1530773 L975360,1530773 L975360,1530773 L975360,1530773 L988906.7,1530773 L988906.7,1530773 L988906.7,1530773 L988906.7,1530773 L1002453,1530773 L1002453,1530773 L1002453,1530773 L1002453,1530773 L1002453,1530773 L1002453,1530773 L1002453,1530773 L1002453,1530773 L1016000,1530773 L1016000,1530773 L1016000,1530773 L1016000,1530773 L1029547,1530773 L1029547,1530773 L1029547,1530773 L1029547,1530773 L1029547,1530773 L1029547,1530773 L1043093,1530773 L1043093,1530773 L1043093,1530773 L1043093,1530773 L1056640,1530773 L1056640,1530773 L1056640,1530773 L1056640,1530773 L1056640,1530773 L1056640,1530773 L1070187,1530773 L1070187,1530773 L1070187,1530773 L1070187,1530773 L1070187,1530773 L1070187,1530773 L1083733,1530773 L1083733,1530773 L1083733,1530773 L1083733,1530773 L1097280,1530773 L1097280,1530773 L1097280,1530773 L1097280,1530773 L1097280,1530773 L1097280,1530773 L1097280,1530773 L1097280,1530773 L1110827,1530773 L1110827,1530773 L1110827,1530773 L1110827,1530773 L1124373,1530773 L1124373,1530773 L1124373,1530773 L1124373,1530773 L1124373,1530773 L1124373,1530773 L1124373,1530773 L1124373,1530773 L1137920,1530773 L1137920,1530773 L1137920,1530773 L1137920,1530773 L1151467,1530773 L1151467,1530773 L1151467,1517227 L1151467,1517227 L1151467,1517227 L1151467,1517227 L1165013,1517227 L1165013,1517227 L1165013,1517227 L1165013,1517227 L1165013,1517227 L1165013,1517227 L1178560,1517227 L1178560,1517227 L1178560,1517227 L1178560,1517227 L1192107,1517227 L1192107,1517227 L1192107,1517227 L1192107,1517227 L1192107,1517227 L1192107,1517227 L1205653,1517227 L1205653,1517227 L1205653,1517227 L1205653,1517227 L1219200,1517227 L1219200,1517227 L1219200,1517227 L1219200,1517227 L1219200,1517227 L1219200,1517227 L1219200,1517227 L1219200,1517227 L1232747,1517227 L1232747,1517227 L1232747,1517227 L1232747,1517227 L1246293,1517227 L1246293,1517227 L1246293,1517227 L1246293,1517227 L1246293,1517227 L1246293,1517227 L1246293,1517227 L1246293,1517227 L1259840,1517227 L1259840,1517227 L1273387,1517227 L1273387,1517227 L1273387,1517227 L1273387,1517227 L1273387,1517227 L1273387,1517227 L1286933,1517227 L1286933,1517227 L1286933,1517227 L1286933,1517227 L1286933,1517227 L1286933,1517227 L1300480,1517227 L1300480,1517227 L1300480,1517227 L1300480,1517227 L1314027,1517227 L1314027,1517227 L1314027,1517227 L1314027,1517227 L1314027,1517227 L1314027,1517227 L1314027,1517227 L1314027,1517227 L1327573,1517227 L1327573,1517227 L1341120,1517227 L1341120,1517227 L1341120,1517227 L1341120,1517227 L1341120,1517227 L1341120,1517227 L1341120,1517227 L1341120,1517227 L1354667,1517227 L1354667,1517227 L1354667,1517227 L1354667,1517227 L1368213,1517227 L1368213,1517227 L1368213,1517227 L1368213,1517227 L1368213,1517227 L1368213,1517227 L1368213,1517227 L1368213,1517227 L1381760,1517227 L1381760,1517227 L1381760,1517227 L1381760,1517227 L1395307,1517227 L1395307,1517227 L1395307,1517227 L1395307,1517227 L1422400,1517227 L1422400,1517227 L1422400,1517227 L1422400,1517227 L1435947,1517227 L1435947,1517227 L1435947,1517227 L1435947,1517227 L1435947,1517227 L1435947,1517227 L1435947,1517227 L1435947,1517227 L1449493,1517227 L1449493,1517227 L1449493,1517227 L1449493,1517227 L1463040,1517227 L1463040,1517227 L1463040,1517227 L1463040,1517227 L1463040,1517227 L1463040,1517227 L1476587,1517227 L1476587,1517227 L1476587,1517227 L1476587,1517227 L1490133,1517227 L1490133,1517227 L1490133,1517227 L1490133,1517227 L1490133,1517227 L1490133,1517227 L1490133,1517227 L1490133,1517227 L1503680,1517227 L1503680,1517227 L1503680,1517227 L1503680,1517227 L1517227,1517227 L1517227,1517227 L1517227,1517227 L1517227,1517227 L1517227,1517227 L1517227,1517227 L1530773,1517227 L1530773,1517227 L1530773,1517227 L1530773,1517227 L1530773,1517227 L1530773,1517227 L1544320,1517227 L1544320,1517227 L1544320,1517227 L1544320,1517227 L1557867,1517227 L1557867,1517227 L1557867,1517227 L1557867,1517227 L1557867,1517227 L1557867,1517227 L1557867,1517227 L1557867,1517227 L1571413,1517227 L1571413,1517227 L1571413,1517227 L1571413,1517227 L1584960,1517227 L1584960,1517227 L1584960,1517227 L1584960,1517227 L1598507,1517227 L1598507,1517227 L1612053,1517227 L1612053,1517227 L1612053,1517227 L1612053,1517227 L1612053,1517227 L1612053,1517227 L1612053,1517227 L1612053,1517227 L1625600,1517227 L1625600,1517227 L1625600,1517227 L1625600,1517227 L1639147,1517227 L1639147,1517227 L1639147,1517227 L1639147,1517227 L1639147,1517227 L1639147,1517227 L1652693,1517227 L1652693,1517227 L1652693,1517227 L1652693,1517227 L1652693,1517227 L1652693,1517227 L1666240,1517227 L1666240,1517227 L1666240,1517227 L1666240,1517227 L1679787,1517227 L1679787,1517227 L1679787,1517227 L1679787,1517227 L1679787,1517227 L1679787,1517227 L1693333,1517227 L1693333,1517227 L1693333,1517227 L1693333,1517227 L1706880,1517227 L1706880,1517227 L1706880,1517227 L1706880,1517227 L1706880,1517227 L1706880,1517227 L1706880,1517227 L1706880,1517227 L1720427,1517227 L1720427,1517227 L1720427,1517227 L1720427,1517227 L1733973,1517227 L1733973,1517227 L1733973,1517227 L1733973,1517227 L1733973,1517227 L1733973,1517227 L1747520,1517227 L1747520,1517227 L1747520,1517227 L1747520,1517227 L1761067,1517227 L1761067,1517227 L1761067,1517227 L1761067,1517227 L1761067,1517227 L1761067,1517227 L1774613,1517227 L1774613,1517227 L1774613,1517227 L1774613,1517227 L1774613,1517227 L1774613,1517227 L1788160,1517227 L1788160,1517227 L1788160,1517227 L1788160,1517227 L1801707,1517227 L1801707,1517227 L1801707,1517227 L1801707,1517227 L1801707,1517227 L1801707,1517227 L1801707,1517227 L1801707,1517227 L1815253,1517227 L1815253,1517227 L1828800,1517227 L1828800,1517227 L1828800,1517227 L1828800,1517227 L1828800,1517227 L1828800,1517227 L1828800,1517227 L1828800,1517227 L1842347,1517227 L1842347,1517227 L1842347,1517227 L1842347,1517227 L1855893,1517227 L1855893,1517227 L1855893,1517227 L1855893,1517227 L1855893,1517227 L1855893,1517227 L1869440,1517227 L1869440,1517227 L1869440,1517227 L1869440,1517227 L1869440,1517227 L1869440,1517227 L1882987,1517227 L1882987,1517227 L1882987,1517227 L1882987,1517227 L1896533,1517227 L1896533,1517227 L1896533,1517227 L1896533,1517227 L1896533,1517227 L1896533,1517227 L1910080,1517227 L1910080,1517227 L1910080,1517227 L1910080,1517227 L1923627,1517227 L1923627,1517227 L1923627,1517227 L1923627,1517227 L1923627,1517227 L1923627,1517227 L1923627,1517227 L1923627,1517227 L1937173,1517227 L1937173,1517227 L1937173,1517227 L1937173,1517227 L1950720,1517227 L1950720,1517227 L1950720,1517227 L1950720,1517227 L1950720,1517227 L1950720,1517227 L1950720,1517227 L1950720,1517227 L1964267,1517227 L1964267,1517227 L1964267,1517227 L1964267,1517227 L1977813,1517227 L1977813,1517227 L1977813,1517227 L1977813,1517227 L1977813,1517227 L1977813,1517227 L1991360,1517227 L1991360,1517227 L1991360,1517227 L1991360,1517227 L1991360,1517227 L1991360,1517227 L2004907,1517227 L2004907,1517227 L2004907,1517227 L2004907,1517227 L2018453,1517227 L2018453,1517227 L2018453,1517227 L2018453,1517227 L2018453,1517227 L2018453,1517227 L2032000,1517227 L2032000,1517227 L2032000,1517227 L2032000,1517227 L2045547,1517227 L2045547,1517227 L2045547,1517227 L2045547,1517227 L2045547,1517227 L2045547,1517227 L2045547,1517227 L2045547,1517227 L2059093,1517227 L2059093,1517227 L2059093,1517227 L2059093,1517227 L2072640,1517227 L2072640,1517227 L2072640,1517227 L2072640,1517227 L2072640,1517227 L2072640,1517227 L2072640,1517227 L2072640,1517227 L2086187,1517227 L2086187,1517227 L2086187,1517227 L2086187,1517227 L2099733,1517227 L2099733,1517227 L2099733,1517227 L2099733,1517227 L2099733,1517227 L2099733,1517227 L2113280,1517227 L2113280,1517227 L2113280,1517227 L2113280,1517227 L2113280,1517227 L2113280,1517227 L2126827,1517227 L2126827,1517227 L2126827,1517227 L2126827,1517227 L2140373,1517227 L2140373,1517227 L2140373,1517227 L2140373,1517227 L2140373,1517227 L2140373,1517227 L2140373,1517227 L2140373,1517227 L2153920,1517227 L2153920,1517227 L2153920,1517227 L2153920,1517227 L2167467,1517227 L2167467,1517227 L2167467,1517227 L2167467,1517227 L2181013,1517227 L2181013,1517227 L2181013,1517227 L2181013,1517227 L2194560,1517227 L2194560,1517227 L2194560,1517227 L2194560,1517227 L2194560,1517227 L2194560,1517227 L2194560,1517227 L2194560,1517227 L2208107,1517227 L2208107,1517227 L2208107,1517227 L2208107,1517227 L2221653,1517227 L2221653,1517227 L2221653,1517227 L2221653,1517227 L2221653,1517227 L2221653,1517227 L2235200,1517227 L2235200,1517227 L2235200,1517227 L2235200,1517227 L2235200,1517227 L2235200,1517227 L2248747,1517227 L2248747,1517227 L2248747,1517227 L2248747,1517227 L2262293,1517227 L2262293,1517227 L2262293,1517227 L2262293,1517227 L2262293,1517227 L2262293,1517227 L2262293,1517227 L2262293,1517227 L2275840,1517227 L2275840,1517227 L2275840,1517227 L2275840,1517227 L2289387,1517227 L2289387,1517227 L2289387,1517227 L2289387,1517227 L2289387,1517227 L2289387,1517227 L2289387,1517227 L2289387,1517227 L2302933,1517227 L2302933,1517227 L2316480,1517227 L2316480,1517227 L2316480,1517227 L2316480,1517227 L2316480,1517227 L2316480,1517227 L2316480,1517227 L2316480,1517227 L2330027,1517227 L2330027,1517227 L2330027,1517227 L2330027,1517227 L2343573,1517227 L2343573,1517227 L2343573,1517227 L2343573,1517227 L2343573,1517227 L2343573,1517227 L2357120,1517227 L2357120,1517227 L2357120,1530773 L2357120,1530773 L2357120,1530773 L2357120,1530773 L2370667,1530773 L2370667,1530773 L2370667,1530773 L2370667,1530773 L2384213,1530773 L2384213,1530773 L2384213,1530773 L2384213,1530773 L2384213,1530773 L2384213,1530773 L2384213,1530773 L2384213,1530773 L2397760,1530773 L2397760,1530773 L2397760,1530773 L2397760,1530773 L2411307,1530773 L2411307,1530773 L2411307,1530773 L2411307,1530773 L2411307,1530773 L2411307,1530773 L2411307,1530773 L2411307,1530773 L2424853,1530773 L2424853,1530773 L2424853,1530773 L2424853,1530773 L2438400,1530773 L2438400,1530773 L2438400,1530773 L2438400,1530773 L2438400,1530773 L2438400,1530773 L2451947,1530773 L2451947,1530773 L2451947,1530773 L2451947,1530773 L2465493,1530773 L2465493,1530773 L2465493,1530773 L2465493,1530773 L2465493,1530773 L2465493,1530773 L2479040,1530773 L2479040,1530773 L2479040,1530773 L2479040,1530773 L2479040,1530773 L2479040,1530773 L2492587,1530773 L2492587,1530773 L2492587,1530773 L2492587,1530773 L2506133,1530773 L2506133,1530773 L2506133,1530773 L2506133,1530773 L2506133,1530773 L2506133,1530773 L2506133,1530773 L2506133,1530773 L2519680,1530773 L2519680,1530773 L2519680,1530773 L2519680,1530773 L2533227,1530773 L2533227,1530773 L2533227,1530773 L2533227,1530773 L2533227,1530773 L2533227,1530773 L2546773,1530773 L2546773,1530773 L2546773,1530773 L2546773,1530773 L2560320,1530773 L2560320,1530773 L2560320,1530773 L2560320,1530773 L2560320,1530773 L2560320,1530773 L2573867,1530773 L2573867,1530773 L2573867,1530773 L2573867,1530773 L2573867,1530773 L2573867,1530773 L2587413,1530773 L2587413,1530773 L2587413,1530773 L2587413,1530773 L2600960,1530773 L2600960,1530773 L2600960,1530773 L2600960,1530773 L2600960,1530773 L2600960,1530773 L2614507,1530773 L2614507,1530773 L2614507,1530773 L2614507,1530773 L2628053,1530773 L2628053,1530773 L2641600,1530773 L2641600,1530773 L2655147,1530773 L2655147,1530773 L2655147,1530773 L2655147,1530773 L2655147,1530773 L2655147,1530773 L2655147,1530773 L2655147,1530773 L2668693,1530773 L2668693,1530773 L2668693,1530773 L2668693,1530773 L2682240,1530773 L2682240,1530773 L2682240,1530773 L2682240,1530773 L2682240,1530773 L2682240,1530773 L2695787,1530773 L2695787,1530773 L2695787,1530773 L2695787,1530773 L2695787,1530773 L2695787,1530773 L2709333,1530773 L2709333,1530773 L2709333,1530773 L2709333,1530773 L2722880,1530773 L2722880,1530773 L2722880,1530773 L2722880,1530773 L2722880,1530773 L2722880,1530773 L2736427,1530773 L2736427,1530773 L2736427,1530773 L2736427,1530773 L2749973,1530773 L2749973,1530773 L2749973,1530773 L2749973,1530773 L2749973,1530773 L2749973,1530773 L2749973,1530773 L2749973,1530773 L2763520,1530773 L2763520,1530773 L2763520,1530773 L2763520,1530773 L2777067,1530773 L2777067,1530773 L2777067,1530773 L2777067,1530773 L2777067,1530773 L2777067,1530773 L2777067,1530773 L2777067,1530773 L2790613,1530773 L2790613,1530773 L2790613,1530773 L2790613,1530773 L2804160,1530773 L2804160,1530773 L2804160,1530773 L2804160,1530773 L2804160,1530773 L2804160,1530773 L2817707,1530773 L2817707,1530773 L2817707,1530773 L2817707,1530773 L2817707,1530773 L2817707,1530773 L2831253,1530773 L2831253,1530773 L2831253,1517227 L2831253,1517227 L2844800,1517227 L2844800,1517227 L2844800,1517227 L2844800,1517227 L2844800,1517227 L2844800,1517227 L2844800,1517227 L2844800,1517227 L2871893,1517227 L2871893,1517227 L2871893,1517227 L2871893,1517227 L2871893,1517227 L2871893,1517227 L2871893,1517227 L2871893,1517227 L2885440,1517227 L2885440,1517227 L2885440,1517227 L2885440,1517227 L2898987,1517227 L2898987,1517227 L2898987,1517227 L2898987,1517227 L2898987,1517227 L2898987,1517227 L2898987,1517227 L2898987,1517227 L2912533,1517227 L2912533,1517227 L2912533,1517227 L2912533,1517227 L2926080,1517227 L2926080,1517227 L2926080,1517227 L2926080,1517227 L2926080,1517227 L2926080,1517227 L2939627,1517227 L2939627,1517227 L2939627,1503680 L2939627,1503680 L2939627,1503680 L2939627,1503680 L2953173,1503680 L2953173,1503680 L2966720,1503680 L2966720,1503680 L2966720,1503680 L2966720,1503680 L2966720,1503680 L2966720,1503680 L2966720,1490133 L2966720,1490133 L2980267,1490133 L2980267,1490133 L2980267,1490133 L2980267,1490133 L2993813,1490133 L2993813,1490133 L2993813,1490133 L2993813,1490133 L2993813,1490133 L2993813,1490133 L3007360,1490133 L3007360,1490133 L3007360,1490133 L3007360,1490133 L3020907,1490133 L3020907,1490133 L3020907,1490133 L3020907,1490133 L3020907,1490133 L3020907,1490133 L3020907,1476587 L3020907,1476587 L3034453,1476587 L3034453,1476587 L3034453,1476587 L3034453,1476587 L3048000,1463040 L3048000,1463040 L3048000,1463040 L3048000,1463040 L3048000,1463040 L3048000,1463040 L3061547,1463040 L3061547,1463040 L3061547,1463040 L3061547,1463040 L3061547,1449493 L3061547,1449493 L3075093,1449493 L3075093,1449493 L3075093,1449493 L3075093,1449493 L3088640,1435947 L3088640,1435947 L3088640,1435947 L3088640,1435947 L3088640,1422400 L3088640,1422400 L3088640,1422400 L3088640,1422400 L3102187,1422400 L3102187,1422400 L3102187,1408853 L3102187,1408853 L3115733,1395307 L3115733,1395307 L3115733,1381760 L3115733,1381760 L3115733,1368213 L3115733,1368213 L3115733,1341120 L3115733,1341120 L3129280,1341120 L3129280,1341120 L3129280,1341120 L3129280,1341120 L3142827,1341120 L3142827,1341120 L3142827,1341120 L3142827,1341120 L3142827,1341120 L3142827,1341120 L3156373,1341120 L3156373,1341120 L3156373,1341120 L3156373,1341120 L3169920,1341120 L3169920,1341120 L3169920,1354667 L3169920,1354667 L3169920,1354667 L3169920,1354667 L3183467,1354667 L3183467,1354667 L3183467,1354667 L3183467,1354667 L3183467,1354667 L3183467,1354667 L3197013,1354667 L3197013,1354667 L3197013,1341120 L3197013,1341120 L3210560,1341120 L3210560,1341120 L3210560,1341120 L3210560,1341120 L3210560,1341120 L3210560,1341120 L3210560,1341120 L3210560,1341120 L3224107,1341120 L3224107,1341120 L3224107,1341120 L3224107,1341120 L3237653,1341120 L3237653,1341120 L3237653,1341120 L3237653,1341120 L3237653,1341120 L3237653,1341120 L3237653,1341120 L3237653,1341120 L3251200,1341120 L3251200,1341120 L3251200,1341120 L3251200,1341120 L3264747,1341120 L3264747,1341120 L3264747,1341120 L3264747,1341120 L3264747,1341120 L3264747,1341120 L3278293,1341120 L3278293,1341120 L3278293,1341120 L3278293,1341120 L3291840,1341120 L3291840,1341120 L3291840,1341120 L3291840,1341120 L3291840,1341120 L3291840,1341120 L3305387,1341120 L3305387,1341120 L3305387,1341120 L3305387,1341120 L3305387,1341120 L3305387,1341120 L3318933,1341120 L3318933,1341120 L3318933,1327573 L3318933,1327573 L3332480,1327573 L3332480,1327573 L3332480,1327573 L3332480,1327573 L3332480,1327573 L3332480,1327573 L3332480,1327573 L3332480,1327573 L3346027,1327573 L3346027,1327573 L3346027,1327573 L3346027,1327573 L3359573,1327573 L3359573,1327573 L3359573,1327573 L3359573,1327573 L3359573,1327573 L3359573,1327573 L3359573,1314027 L3359573,1314027 L3373120,1314027 L3373120,1314027 L3373120,1314027 L3373120,1314027 L3386667,1314027 L3386667,1314027 L3386667,1314027 L3386667,1314027 L3386667,1314027 L3386667,1314027 L3400213,1300480 L3400213,1300480 L3400213,1300480 L3400213,1300480 L3400213,1300480 L3400213,1300480 L3413760,1286933 L3413760,1286933 L3413760,1286933 L3413760,1286933 L3427307,1286933 L3427307,1286933 L3427307,1286933 L3427307,1286933 L3427307,1273387 L3427307,1273387 L3440853,1273387 L3440853,1273387 L3440853,1259840 L3440853,1259840 L3454400,1259840 L3454400,1259840 L3454400,1246293 L3454400,1246293 L3454400,1246293 L3454400,1246293 L3454400,1219200 L3454400,1219200 L3467947,1219200 L3467947,1219200 L3467947,1205653 L3467947,1205653 L3481493,1192107 L3481493,1192107 L3481493,1192107 L3481493,1192107 L3481493,1178560 L3481493,1178560 L3481493,1165013 L3481493,1165013 L3495040,1151467 L3495040,1151467 L3508587,1151467 L3508587,1151467 L3508587,1137920 L3508587,1137920 L3508587,1124373 L3508587,1124373 L3522133,1110827 L3522133,1110827 L3522133,1097280 L3522133,1097280 L3522133,1083733 L3522133,1083733 L3535680,1056640 L3535680,1056640 L3535680,1029547 L3535680,1029547 L3549227,1016000 L3549227,1016000 L3549227,1016000 L3549227,1016000 L3549227,988906.7 L3549227,988906.7 L3549227,975360 L3549227,975360 L3562773,948266.7 L3562773,948266.7 L3576320,921173.3 L3576320,921173.3 L3576320,880533.3 L3576320,880533.3 L3576320,839893.3 L3576320,839893.3 L3576320,812800 L3576320,812800 L3589867,785706.7 L3589867,785706.7 L3589867,758613.3 L3589867,758613.3 L3603413,731520 L3603413,731520 L3603413,650240 L3603413,650240 L3603413,623146.7 L3603413,623146.7 L3603413,582506.7 L3603413,582506.7 L3616960,541866.7 L3616960,541866.7 L3616960,487680 L3616960,487680 L3630507,501226.7 L3630507,501226.7 L3630507,501226.7 L3630507,501226.7 L3630507,487680 L3630507,487680 L3644053,474133.3 L3644053,474133.3 L3644053,460586.7 L3644053,460586.7 L3644053,460586.7 L3644053,460586.7 L3657600,406400 L3657600,406400 L3657600,379306.7 L3657600,379306.7 L3671147,338666.7 L3671147,338666.7 L3671147,311573.3 L3671147,311573.3 L3671147,270933.3 L3671147,270933.3 L3671147,230293.3 L3671147,230293.3 L3684693,216746.7 L3684693,216746.7 L3684693,176106.7 L3684693,176106.7 L3698240,149013.3 L3698240,149013.3 L3698240,108373.3 L3698240,108373.3 L3698240,108373.3 L3698240,108373.3 L3711787,81280 L3711787,81280 L3711787,67733.34 L3711787,67733.34 L3725333,54186.67 L3725333,54186.67 L3725333,27093.33 L3725333,27093.33 L3725333,0 " stroke-width="33866.67" stroke-linecap="round" stroke-linejoin="round" stroke-miterlimit="13.33333" stroke="#012169" fill="none" fill-rule="nonzero" /></g></g><g><g clip-path="url(#clip008)"><g><g transform="translate(10.1,178.4461)"><text><tspan x="0" y="0" font-family="Connections Cond Light,Arial Narrow" font-weight="normal" font-style="normal" font-size="16" fill="#000000">2.0</tspan></text></g></g></g></g><g><g clip-path="url(#clip009)"><g><g transform="translate(2.5,145.581)"><text><tspan x="0" y="0" font-family="Connections Cond Light,Arial Narrow" font-weight="normal" font-style="normal" font-size="16" fill="#000000">12.0</tspan></text></g></g></g></g><g><g clip-path="url(#clip010)"><g><g transform="translate(2.5,112.716)"><text><tspan x="0" y="0" font-family="Connections Cond Light,Arial Narrow" font-weight="normal" font-style="normal" font-size="16" fill="#000000">22.0</tspan></text></g></g></g></g><g><g clip-path="url(#clip011)"><g><g transform="translate(2.5,79.85091)"><text><tspan x="0" y="0" font-family="Connections Cond Light,Arial Narrow" font-weight="normal" font-style="normal" font-size="16" fill="#000000">32.0</tspan></text></g></g></g></g><g><g clip-path="url(#clip012)"><g><g transform="translate(2.5,46.98596)"><text><tspan x="0" y="0" font-family="Connections Cond Light,Arial Narrow" font-weight="normal" font-style="normal" font-size="16" fill="#000000">42.0</tspan></text></g></g></g></g><g><g clip-path="url(#clip013)"><g><g transform="translate(2.5,14.12087)"><text><tspan x="0" y="0" font-family="Connections Cond Light,Arial Narrow" font-weight="normal" font-style="normal" font-size="16" fill="#000000">52.0</tspan></text></g></g></g></g><g><g clip-path="url(#clip014)"><g><g transform="matrix(0,-1,1,0,45.8542,207.4919)"><text><tspan x="0" y="0" font-family="Connections Cond Light,Arial Narrow" font-weight="normal" font-style="normal" font-size="12" fill="#000000">Jan-23</tspan></text></g></g></g></g><g><g clip-path="url(#clip015)"><g><g transform="matrix(0,-1,1,0,56.44449,210.3335)"><text><tspan x="0" y="0" font-family="Connections Cond Light,Arial Narrow" font-weight="normal" font-style="normal" font-size="12" fill="#000000">Feb-23</tspan></text></g></g></g></g><g><g clip-path="url(#clip016)"><g><g transform="matrix(0,-1,1,0,66.00997,211.3087)"><text><tspan x="0" y="0" font-family="Connections Cond Light,Arial Narrow" font-weight="normal" font-style="normal" font-size="12" fill="#000000">Mar-23</tspan></text></g></g></g></g><g><g clip-path="url(#clip017)"><g><g transform="matrix(0,-1,1,0,76.6004,209.4086)"><text><tspan x="0" y="0" font-family="Connections Cond Light,Arial Narrow" font-weight="normal" font-style="normal" font-size="12" fill="#000000">Apr-23</tspan></text></g></g></g></g><g><g clip-path="url(#clip018)"><g><g transform="matrix(0,-1,1,0,86.84908,212.6003)"><text><tspan x="0" y="0" font-family="Connections Cond Light,Arial Narrow" font-weight="normal" font-style="normal" font-size="12" fill="#000000">May-23</tspan></text></g></g></g></g><g><g clip-path="url(#clip019)"><g><g transform="matrix(0,-1,1,0,97.43951,208.3085)"><text><tspan x="0" y="0" font-family="Connections Cond Light,Arial Narrow" font-weight="normal" font-style="normal" font-size="12" fill="#000000">Jun-23</tspan></text></g></g></g></g><g><g clip-path="url(#clip020)"><g><g transform="matrix(0,-1,1,0,107.6882,204.9252)"><text><tspan x="0" y="0" font-family="Connections Cond Light,Arial Narrow" font-weight="normal" font-style="normal" font-size="12" fill="#000000">Jul-23</tspan></text></g></g></g></g><g><g clip-path="url(#clip021)"><g><g transform="matrix(0,-1,1,0,118.2786,211.3336)"><text><tspan x="0" y="0" font-family="Connections Cond Light,Arial Narrow" font-weight="normal" font-style="normal" font-size="12" fill="#000000">Aug-23</tspan></text></g></g></g></g><g><g clip-path="url(#clip022)"><g><g transform="matrix(0,-1,1,0,128.8689,210.6585)"><text><tspan x="0" y="0" font-family="Connections Cond Light,Arial Narrow" font-weight="normal" font-style="normal" font-size="12" fill="#000000">Sep-23</tspan></text></g></g></g></g><g><g clip-path="url(#clip023)"><g><g transform="matrix(0,-1,1,0,139.1177,209.6252)"><text><tspan x="0" y="0" font-family="Connections Cond Light,Arial Narrow" font-weight="normal" font-style="normal" font-size="12" fill="#000000">Oct-23</tspan></text></g></g></g></g><g><g clip-path="url(#clip024)"><g><g transform="matrix(0,-1,1,0,149.708,211.4336)"><text><tspan x="0" y="0" font-family="Connections Cond Light,Arial Narrow" font-weight="normal" font-style="normal" font-size="12" fill="#000000">Nov-23</tspan></text></g></g></g></g><g><g clip-path="url(#clip025)"><g><g transform="matrix(0,-1,1,0,159.9568,210.6585)"><text><tspan x="0" y="0" font-family="Connections Cond Light,Arial Narrow" font-weight="normal" font-style="normal" font-size="12" fill="#000000">Dec-23</tspan></text></g></g></g></g><g><g clip-path="url(#clip026)"><g><g transform="matrix(0,-1,1,0,170.5471,207.4919)"><text><tspan x="0" y="0" font-family="Connections Cond Light,Arial Narrow" font-weight="normal" font-style="normal" font-size="12" fill="#000000">Jan-24</tspan></text></g></g></g></g><g><g clip-path="url(#clip027)"><g><g transform="matrix(0,-1,1,0,181.1375,210.3335)"><text><tspan x="0" y="0" font-family="Connections Cond Light,Arial Narrow" font-weight="normal" font-style="normal" font-size="12" fill="#000000">Feb-24</tspan></text></g></g></g></g><g><g clip-path="url(#clip028)"><g><g transform="matrix(0,-1,1,0,191.0446,211.3087)"><text><tspan x="0" y="0" font-family="Connections Cond Light,Arial Narrow" font-weight="normal" font-style="normal" font-size="12" fill="#000000">Mar-24</tspan></text></g></g></g></g><g><g clip-path="url(#clip029)"><g><g transform="matrix(0,-1,1,0,201.635,209.4086)"><text><tspan x="0" y="0" font-family="Connections Cond Light,Arial Narrow" font-weight="normal" font-style="normal" font-size="12" fill="#000000">Apr-24</tspan></text></g></g></g></g><g><g clip-path="url(#clip030)"><g><g transform="matrix(0,-1,1,0,211.8837,212.6003)"><text><tspan x="0" y="0" font-family="Connections Cond Light,Arial Narrow" font-weight="normal" font-style="normal" font-size="12" fill="#000000">May-24</tspan></text></g></g></g></g><g><g clip-path="url(#clip031)"><g><g transform="matrix(0,-1,1,0,222.4741,208.3085)"><text><tspan x="0" y="0" font-family="Connections Cond Light,Arial Narrow" font-weight="normal" font-style="normal" font-size="12" fill="#000000">Jun-24</tspan></text></g></g></g></g><g><g clip-path="url(#clip032)"><g><g transform="matrix(0,-1,1,0,232.7228,204.9252)"><text><tspan x="0" y="0" font-family="Connections Cond Light,Arial Narrow" font-weight="normal" font-style="normal" font-size="12" fill="#000000">Jul-24</tspan></text></g></g></g></g><g><g clip-path="url(#clip033)"><g><g transform="matrix(0,-1,1,0,243.3132,211.3336)"><text><tspan x="0" y="0" font-family="Connections Cond Light,Arial Narrow" font-weight="normal" font-style="normal" font-size="12" fill="#000000">Aug-24</tspan></text></g></g></g></g><g><g clip-path="url(#clip034)"><g><g transform="matrix(0,-1,1,0,253.9035,210.6585)"><text><tspan x="0" y="0" font-family="Connections Cond Light,Arial Narrow" font-weight="normal" font-style="normal" font-size="12" fill="#000000">Sep-24</tspan></text></g></g></g></g><g><g clip-path="url(#clip035)"><g><g transform="matrix(0,-1,1,0,264.1524,209.6252)"><text><tspan x="0" y="0" font-family="Connections Cond Light,Arial Narrow" font-weight="normal" font-style="normal" font-size="12" fill="#000000">Oct-24</tspan></text></g></g></g></g><g><g clip-path="url(#clip036)"><g><g transform="matrix(0,-1,1,0,274.7428,211.4336)"><text><tspan x="0" y="0" font-family="Connections Cond Light,Arial Narrow" font-weight="normal" font-style="normal" font-size="12" fill="#000000">Nov-24</tspan></text></g></g></g></g><g><g clip-path="url(#clip037)"><g><g transform="matrix(0,-1,1,0,284.9915,210.6585)"><text><tspan x="0" y="0" font-family="Connections Cond Light,Arial Narrow" font-weight="normal" font-style="normal" font-size="12" fill="#000000">Dec-24</tspan></text></g></g></g></g><g><g clip-path="url(#clip038)"><g><g transform="matrix(0,-1,1,0,295.5819,207.4919)"><text><tspan x="0" y="0" font-family="Connections Cond Light,Arial Narrow" font-weight="normal" font-style="normal" font-size="12" fill="#000000">Jan-25</tspan></text></g></g></g></g><g><g clip-path="url(#clip039)"><g><g transform="matrix(0,-1,1,0,306.1722,210.3335)"><text><tspan x="0" y="0" font-family="Connections Cond Light,Arial Narrow" font-weight="normal" font-style="normal" font-size="12" fill="#000000">Feb-25</tspan></text></g></g></g></g><g><g clip-path="url(#clip040)"><g><g transform="matrix(0,-1,1,0,315.7377,211.3087)"><text><tspan x="0" y="0" font-family="Connections Cond Light,Arial Narrow" font-weight="normal" font-style="normal" font-size="12" fill="#000000">Mar-25</tspan></text></g></g></g></g><g><g clip-path="url(#clip041)"><g><g transform="matrix(0,-1,1,0,326.3281,209.4086)"><text><tspan x="0" y="0" font-family="Connections Cond Light,Arial Narrow" font-weight="normal" font-style="normal" font-size="12" fill="#000000">Apr-25</tspan></text></g></g></g></g><g><g clip-path="url(#clip042)"><g><g transform="matrix(0,-1,1,0,336.5768,212.6003)"><text><tspan x="0" y="0" font-family="Connections Cond Light,Arial Narrow" font-weight="normal" font-style="normal" font-size="12" fill="#000000">May-25</tspan></text></g></g></g></g><g><g clip-path="url(#clip043)"><g><g transform="matrix(0,-1,1,0,347.1672,208.3085)"><text><tspan x="0" y="0" font-family="Connections Cond Light,Arial Narrow" font-weight="normal" font-style="normal" font-size="12" fill="#000000">Jun-25</tspan></text></g></g></g></g><g><g clip-path="url(#clip044)"><g><g transform="matrix(0,-1,1,0,357.4159,204.9252)"><text><tspan x="0" y="0" font-family="Connections Cond Light,Arial Narrow" font-weight="normal" font-style="normal" font-size="12" fill="#000000">Jul-25</tspan></text></g></g></g></g><g><g clip-path="url(#clip045)"><g><g transform="matrix(0,-1,1,0,368.0063,211.3336)"><text><tspan x="0" y="0" font-family="Connections Cond Light,Arial Narrow" font-weight="normal" font-style="normal" font-size="12" fill="#000000">Aug-25</tspan></text></g></g></g></g><g><g clip-path="url(#clip046)"><g><g transform="matrix(0,-1,1,0,378.5966,210.6585)"><text><tspan x="0" y="0" font-family="Connections Cond Light,Arial Narrow" font-weight="normal" font-style="normal" font-size="12" fill="#000000">Sep-25</tspan></text></g></g></g></g><g><g clip-path="url(#clip047)"><g><g transform="matrix(0,-1,1,0,388.8454,209.6252)"><text><tspan x="0" y="0" font-family="Connections Cond Light,Arial Narrow" font-weight="normal" font-style="normal" font-size="12" fill="#000000">Oct-25</tspan></text></g></g></g></g><g><g clip-path="url(#clip048)"><g><g transform="matrix(0,-1,1,0,399.4357,211.4336)"><text><tspan x="0" y="0" font-family="Connections Cond Light,Arial Narrow" font-weight="normal" font-style="normal" font-size="12" fill="#000000">Nov-25</tspan></text></g></g></g></g><g><g clip-path="url(#clip049)"><g><g transform="matrix(0,-1,1,0,409.6845,210.6585)"><text><tspan x="0" y="0" font-family="Connections Cond Light,Arial Narrow" font-weight="normal" font-style="normal" font-size="12" fill="#000000">Dec-25</tspan></text></g></g></g></g><g><g clip-path="url(#clip050)"><g><g transform="translate(30.8271,17.86765)"><text><tspan x="0" y="0" font-family="Connections Cond Light,Arial Narrow" font-weight="normal" font-style="normal" font-size="16" fill="#000000">US$</tspan></text></g></g></g></g><g clip-path="url(#clip051)"><g transform="matrix(0.000098425,0,0,0.000098425,86.66666,6.666667)"><path d="M0,0 L2587413,0 L2587413,216746.7 L0,216746.7 Z" fill="#4f81bd" fill-opacity="0" fill-rule="evenodd" /></g></g><g clip-path="url(#clip052)"><g transform="matrix(0.000098425,0,0,0.000098425,146,16.66667)"><path d="M0,0 L325120,1.333333 " stroke-width="33866.67" stroke-linecap="round" stroke-linejoin="round" stroke-miterlimit="13.33333" stroke="#012169" fill="none" fill-rule="evenodd" /></g></g><g><g clip-path="url(#clip053)"><g><g transform="translate(181.7579,22.39514)"><text><tspan x="0" y="0" font-family="Connections Cond Light,Arial Narrow" font-weight="normal" font-style="normal" font-size="16" fill="#000000">16Gb DDR4 DRAM</tspan></text></g></g></g></g><g /></g></g></g></g></g></g></g></g></g></svg>