<svg version="1.1" width="100%" height="100%" viewBox="0 0 355 217" xmlns="http://www.w3.org/2000/svg" xmlns:xlink="http://www.w3.org/1999/xlink"><style type="text/css" /><defs><clipPath id="clip001"><path d="M0,0 L2761.333,0 L2761.333,1806.667 L0,1806.667 Z" clip-rule="evenodd" /></clipPath><clipPath id="clip002"><path d="M0,0 L2761.333,0 L2761.333,1806.667 L0,1806.667 Z" clip-rule="evenodd" /></clipPath><clipPath id="clip003"><path d="M0,0 L2761.333,0 L2761.333,1806.667 L0,1806.667 Z" clip-rule="evenodd" /></clipPath><clipPath id="clip004"><path d="M0,0 L5200,0 L5200,1914.667 L0,1914.667 Z" clip-rule="evenodd" /></clipPath><clipPath id="clip005"><path d="M-800,0 L6000,0 L6000,1914.667 L-800,1914.667 Z" clip-rule="evenodd" /></clipPath><clipPath id="clip006"><path d="M158.6667,60 L2753.333,60 L2753.333,1461.333 L158.6667,1461.333 Z" clip-rule="evenodd" /></clipPath><clipPath id="clip007"><path d="M0,0 L2753.333,0 L2753.333,1805.333 L0,1805.333 Z" clip-rule="evenodd" /></clipPath><clipPath id="clip008"><path d="M0,0 L2753.333,0 L2753.333,1805.333 L0,1805.333 Z" clip-rule="evenodd" /></clipPath><clipPath id="clip009"><path d="M0,0 L2753.333,0 L2753.333,1805.333 L0,1805.333 Z" clip-rule="evenodd" /></clipPath><clipPath id="clip010"><path d="M0,0 L2753.333,0 L2753.333,1805.333 L0,1805.333 Z" clip-rule="evenodd" /></clipPath><clipPath id="clip011"><path d="M0,0 L2753.333,0 L2753.333,1805.333 L0,1805.333 Z" clip-rule="evenodd" /></clipPath><clipPath id="clip012"><path d="M0,0 L2753.333,0 L2753.333,1805.333 L0,1805.333 Z" clip-rule="evenodd" /></clipPath><clipPath id="clip013"><path d="M0,0 L2753.333,0 L2753.333,1805.333 L0,1805.333 Z" clip-rule="evenodd" /></clipPath><clipPath id="clip014"><path d="M0,0 L2753.333,0 L2753.333,1805.333 L0,1805.333 Z" clip-rule="evenodd" /></clipPath><clipPath id="clip015"><path d="M0,0 L2753.333,0 L2753.333,1805.333 L0,1805.333 Z" clip-rule="evenodd" /></clipPath><clipPath id="clip016"><path d="M0,0 L2753.333,0 L2753.333,1805.333 L0,1805.333 Z" clip-rule="evenodd" /></clipPath><clipPath id="clip017"><path d="M0,0 L2753.333,0 L2753.333,1805.333 L0,1805.333 Z" clip-rule="evenodd" /></clipPath><clipPath id="clip018"><path d="M0,0 L2753.333,0 L2753.333,1805.333 L0,1805.333 Z" clip-rule="evenodd" /></clipPath><clipPath id="clip019"><path d="M0,0 L2753.333,0 L2753.333,1805.333 L0,1805.333 Z" clip-rule="evenodd" /></clipPath><clipPath id="clip020"><path d="M0,0 L2753.333,0 L2753.333,1805.333 L0,1805.333 Z" clip-rule="evenodd" /></clipPath><clipPath id="clip021"><path d="M0,0 L2753.333,0 L2753.333,1805.333 L0,1805.333 Z" clip-rule="evenodd" /></clipPath><clipPath id="clip022"><path d="M0,0 L2753.333,0 L2753.333,1805.333 L0,1805.333 Z" clip-rule="evenodd" /></clipPath></defs><clipPath id="page-clip-path-1"><rect x="0" y="0" width="354.67" height="217.33" /></clipPath><g clip-path="url(#page-clip-path-1)" transform="translate(0.17,0)"><g transform="translate(1,1)"><g><g transform="matrix(0.1197006,0,0,0.1199631,0,0)" clip-path="url(#clip001)"><g><g clip-path="url(#clip002)"><g><g clip-path="url(#clip003)"><g transform="matrix(1.000214,0,0,1.000954,0.00016276,0.00008138)"><g><g><g clip-path="url(#clip004)"><g transform="translate(2753.333,1806.667)" /></g></g></g><g clip-path="url(#clip005)"><g transform="matrix(0.000656168,0,0,0.000656168,0,0)"><path d="M0,0 L4198112,0 L4198112,2753360 L0,2753360 Z" fill="#ffffff" fill-opacity="0" fill-rule="evenodd" /></g></g><g clip-path="url(#clip006)"><g transform="matrix(0.000656168,0,0,0.000656168,158.6667,60)"><path d="M93472,353568 L471424,353568 L471424,353568 L471424,2123440 L471424,2123440 L93472,2123440 ZM658368,707136 L1036320,707136 L1036320,707136 L1036320,2123440 L1036320,2123440 L658368,2123440 ZM1225296,707136 L1601216,707136 L1601216,707136 L1601216,2123440 L1601216,2123440 L1225296,2123440 ZM1790192,1060704 L2166112,1060704 L2166112,1060704 L2166112,2123440 L2166112,2123440 L1790192,2123440 ZM2355088,1416304 L2731008,1416304 L2731008,1416304 L2731008,2123440 L2731008,2123440 L2355088,2123440 Z" fill="#012169" fill-rule="nonzero" /><path d="M93472,353568 L471424,353568 L471424,353568 L471424,2123440 L471424,2123440 L93472,2123440 ZM658368,707136 L1036320,707136 L1036320,707136 L1036320,2123440 L1036320,2123440 L658368,2123440 ZM1225296,707136 L1601216,707136 L1601216,707136 L1601216,2123440 L1601216,2123440 L1225296,2123440 ZM1790192,1060704 L2166112,1060704 L2166112,1060704 L2166112,2123440 L2166112,2123440 L1790192,2123440 ZM2355088,1416304 L2731008,1416304 L2731008,1416304 L2731008,2123440 L2731008,2123440 L2355088,2123440 Z" stroke-width="8466.667" stroke-linejoin="round" stroke-miterlimit="13.33333" stroke="#ffffff" fill="none" fill-rule="nonzero" /></g></g><g clip-path="url(#clip007)"><g transform="matrix(0.000656168,0,0,0.000656168,158.6667,1453.333)"><g><path d="M0.002282714,-6773.333 L3956304,-6772 " stroke-width="3386.667" stroke-linejoin="round" stroke-miterlimit="13.33333" stroke="#000000" fill="none" fill-rule="evenodd" /><path d="M-0.001141357,3386.667 L3956304,3388 " stroke-width="10160" stroke-linejoin="round" stroke-miterlimit="13.33333" stroke="#000000" fill="none" fill-rule="evenodd" /></g></g></g><g><g clip-path="url(#clip008)"><g><g transform="translate(16.66667,1482.858)"><text><tspan x="0" y="0" font-family="Connections Cond Light,Arial Narrow" font-weight="normal" font-style="normal" font-size="105.3333" fill="#000000">0</tspan></text></g></g></g></g><g><g clip-path="url(#clip009)"><g><g transform="translate(16.66667,1250.664)"><text><tspan x="0" y="0" font-family="Connections Cond Light,Arial Narrow" font-weight="normal" font-style="normal" font-size="105.3333" fill="#000000">1</tspan></text></g></g></g></g><g><g clip-path="url(#clip010)"><g><g transform="translate(16.66667,1018.471)"><text><tspan x="0" y="0" font-family="Connections Cond Light,Arial Narrow" font-weight="normal" font-style="normal" font-size="105.3333" fill="#000000">2</tspan></text></g></g></g></g><g><g clip-path="url(#clip011)"><g><g transform="translate(16.66667,786.2764)"><text><tspan x="0" y="0" font-family="Connections Cond Light,Arial Narrow" font-weight="normal" font-style="normal" font-size="105.3333" fill="#000000">3</tspan></text></g></g></g></g><g><g clip-path="url(#clip012)"><g><g transform="translate(16.66667,554.0822)"><text><tspan x="0" y="0" font-family="Connections Cond Light,Arial Narrow" font-weight="normal" font-style="normal" font-size="105.3333" fill="#000000">4</tspan></text></g></g></g></g><g><g clip-path="url(#clip013)"><g><g transform="translate(16.66667,321.8889)"><text><tspan x="0" y="0" font-family="Connections Cond Light,Arial Narrow" font-weight="normal" font-style="normal" font-size="105.3333" fill="#000000">5</tspan></text></g></g></g></g><g><g clip-path="url(#clip014)"><g><g transform="translate(16.66667,89.69466)"><text><tspan x="0" y="0" font-family="Connections Cond Light,Arial Narrow" font-weight="normal" font-style="normal" font-size="105.3333" fill="#000000">6</tspan></text></g></g></g></g><g><g clip-path="url(#clip015)"><g><g transform="translate(288.468,1609.108)"><text><tspan x="0" y="0" font-family="Connections Cond Light,Arial Narrow" font-weight="normal" font-style="normal" font-size="105.3333" fill="#000000">US</tspan></text></g></g></g></g><g><g clip-path="url(#clip016)"><g><g transform="translate(577.2651,1609.108)"><text><tspan x="0" y="0" font-family="Connections Cond Light,Arial Narrow" font-weight="normal" font-style="normal" font-size="105.3333" fill="#000000">Mexico</tspan></text></g></g></g></g><g><g clip-path="url(#clip017)"><g><g transform="translate(992.3972,1609.108)"><text><tspan x="0" y="0" font-family="Connections Cond Light,Arial Narrow" font-weight="normal" font-style="normal" font-size="105.3333" fill="#000000">India</tspan></text></g></g></g></g><g><g clip-path="url(#clip018)"><g><g transform="translate(1294.583,1609.108)"><text><tspan x="0" y="0" font-family="Connections Cond Light,Arial Narrow" font-weight="normal" font-style="normal" font-size="105.3333" fill="#000000">Vietnam</tspan></text></g></g></g></g><g><g clip-path="url(#clip019)"><g><g transform="translate(1691.158,1609.108)"><text><tspan x="0" y="0" font-family="Connections Cond Light,Arial Narrow" font-weight="normal" font-style="normal" font-size="105.3333" fill="#000000">Europe</tspan></text></g></g></g></g><g><g clip-path="url(#clip020)"><g><g transform="translate(2060.262,1609.108)"><text><tspan x="0" y="0" font-family="Connections Cond Light,Arial Narrow" font-weight="normal" font-style="normal" font-size="105.3333" fill="#000000">Canada</tspan></text></g></g></g></g><g><g clip-path="url(#clip021)"><g><g transform="translate(2453.559,1609.108)"><text><tspan x="0" y="0" font-family="Connections Cond Light,Arial Narrow" font-weight="normal" font-style="normal" font-size="105.3333" fill="#000000">South</tspan></text></g></g></g></g><g><g clip-path="url(#clip022)"><g><g transform="translate(2459.67,1729.22)"><text><tspan x="0" y="0" font-family="Connections Cond Light,Arial Narrow" font-weight="normal" font-style="normal" font-size="105.3333" fill="#000000">Korea</tspan></text></g></g></g></g><g /></g></g></g></g></g></g></g></g></g></svg>