<svg version="1.1" width="100%" height="100%" viewBox="0 0 500 287" xmlns="http://www.w3.org/2000/svg" xmlns:xlink="http://www.w3.org/1999/xlink"><style type="text/css" /><defs><clipPath id="clip001"><path d="M0,0 L3969.333,0 L3969.333,2381.333 L0,2381.333 Z" clip-rule="evenodd" /></clipPath><clipPath id="clip002"><path d="M0,0 L3969.333,0 L3969.333,2381.333 L0,2381.333 Z" clip-rule="evenodd" /></clipPath><clipPath id="clip003"><path d="M0,0 L3969.333,0 L3969.333,2381.333 L0,2381.333 Z" clip-rule="evenodd" /></clipPath><clipPath id="clip004"><path d="M0,0 L5200,0 L5200,2489.333 L0,2489.333 Z" clip-rule="evenodd" /></clipPath><clipPath id="clip005"><path d="M-800,0 L6000,0 L6000,2489.333 L-800,2489.333 Z" clip-rule="evenodd" /></clipPath><clipPath id="clip006"><path d="M0,0 L3960,0 L3960,2380 L0,2380 Z" clip-rule="evenodd" /></clipPath><clipPath id="clip007"><path d="M338.6667,60 L3960,60 L3960,2145.333 L338.6667,2145.333 Z" clip-rule="evenodd" /></clipPath><clipPath id="clip008"><path d="M0,0 L3960,0 L3960,2380 L0,2380 Z" clip-rule="evenodd" /></clipPath><clipPath id="clip009"><path d="M0,0 L3960,0 L3960,2380 L0,2380 Z" clip-rule="evenodd" /></clipPath><clipPath id="clip010"><path d="M0,0 L3960,0 L3960,2380 L0,2380 Z" clip-rule="evenodd" /></clipPath><clipPath id="clip011"><path d="M0,0 L3960,0 L3960,2380 L0,2380 Z" clip-rule="evenodd" /></clipPath><clipPath id="clip012"><path d="M0,0 L3960,0 L3960,2380 L0,2380 Z" clip-rule="evenodd" /></clipPath><clipPath id="clip013"><path d="M0,0 L3960,0 L3960,2380 L0,2380 Z" clip-rule="evenodd" /></clipPath><clipPath id="clip014"><path d="M0,0 L3960,0 L3960,2380 L0,2380 Z" clip-rule="evenodd" /></clipPath><clipPath id="clip015"><path d="M0,0 L3960,0 L3960,2380 L0,2380 Z" clip-rule="evenodd" /></clipPath><clipPath id="clip016"><path d="M0,0 L3960,0 L3960,2380 L0,2380 Z" clip-rule="evenodd" /></clipPath><clipPath id="clip017"><path d="M0,0 L3960,0 L3960,2380 L0,2380 Z" clip-rule="evenodd" /></clipPath><clipPath id="clip018"><path d="M0,0 L3960,0 L3960,2380 L0,2380 Z" clip-rule="evenodd" /></clipPath><clipPath id="clip019"><path d="M0,0 L3960,0 L3960,2380 L0,2380 Z" clip-rule="evenodd" /></clipPath><clipPath id="clip020"><path d="M0,0 L3960,0 L3960,2380 L0,2380 Z" clip-rule="evenodd" /></clipPath><clipPath id="clip021"><path d="M0,0 L3960,0 L3960,2380 L0,2380 Z" clip-rule="evenodd" /></clipPath><clipPath id="clip022"><path d="M0,0 L3960,0 L3960,2380 L0,2380 Z" clip-rule="evenodd" /></clipPath><clipPath id="clip023"><path d="M0,0 L3960,0 L3960,2380 L0,2380 Z" clip-rule="evenodd" /></clipPath><clipPath id="clip024"><path d="M0,0 L3960,0 L3960,2380 L0,2380 Z" clip-rule="evenodd" /></clipPath><clipPath id="clip025"><path d="M0,0 L3960,0 L3960,2380 L0,2380 Z" clip-rule="evenodd" /></clipPath><clipPath id="clip026"><path d="M0,0 L3960,0 L3960,2380 L0,2380 Z" clip-rule="evenodd" /></clipPath><clipPath id="clip027"><path d="M0,0 L3960,0 L3960,2380 L0,2380 Z" clip-rule="evenodd" /></clipPath><clipPath id="clip028"><path d="M0,0 L3960,0 L3960,2380 L0,2380 Z" clip-rule="evenodd" /></clipPath><clipPath id="clip029"><path d="M0,0 L3960,0 L3960,2380 L0,2380 Z" clip-rule="evenodd" /></clipPath><clipPath id="clip030"><path d="M0,0 L3960,0 L3960,2380 L0,2380 Z" clip-rule="evenodd" /></clipPath><clipPath id="clip031"><path d="M0,0 L3960,0 L3960,2380 L0,2380 Z" clip-rule="evenodd" /></clipPath><clipPath id="clip032"><path d="M0,0 L3960,0 L3960,2380 L0,2380 Z" clip-rule="evenodd" /></clipPath><clipPath id="clip033"><path d="M0,0 L3960,0 L3960,2380 L0,2380 Z" clip-rule="evenodd" /></clipPath></defs><clipPath id="page-clip-path-1"><rect x="0" y="0" width="500" height="286.67" /></clipPath><g clip-path="url(#page-clip-path-1)"><g transform="translate(1,1)"><g><g transform="matrix(0.1197178,0,0,0.1199888,0,0)" clip-path="url(#clip001)"><g><g clip-path="url(#clip002)"><g><g clip-path="url(#clip003)"><g transform="matrix(1.000214,0,0,1.000609,0.00016276,0)"><g><g><g clip-path="url(#clip004)"><g transform="translate(3966.667,2381.333)" /></g></g></g><g clip-path="url(#clip005)"><g transform="matrix(0.000656168,0,0,0.000656168,0,0)"><path d="M0,0 L6035040,0 L6035040,3629152 L0,3629152 Z" fill="#ffffff" fill-opacity="0" fill-rule="evenodd" /></g></g><g clip-path="url(#clip006)"><g transform="matrix(0.000656168,0,0,0.000656168,340,60)"><path d="M0,2111248 L5516880,2111248 M0,1054608 L5516880,1054608 M0,0 L5516880,0 " stroke-width="16933.33" stroke-linejoin="round" stroke-miterlimit="13.33333" stroke="#bababa" fill="none" fill-rule="nonzero" /></g></g><g clip-path="url(#clip007)"><g transform="matrix(0.000656168,0,0,0.000656168,340,60)"><path d="M101600,1113536 L510032,1113536 L510032,1113536 L510032,3165856 L510032,3165856 L101600,3165856 ZM715264,877824 L1123696,877824 L1123696,877824 L1123696,3165856 L1123696,3165856 L715264,3165856 ZM1326896,788416 L1735328,788416 L1735328,788416 L1735328,3165856 L1735328,3165856 L1326896,3165856 ZM1940560,1414272 L2348992,1414272 L2348992,1414272 L2348992,3165856 L2348992,3165856 L1940560,3165856 ZM2554224,1737360 L2962656,1737360 L2962656,1737360 L2962656,3165856 L2962656,3165856 L2554224,3165856 ZM3165856,1916176 L3576320,1916176 L3576320,1916176 L3576320,3165856 L3576320,3165856 L3165856,3165856 ZM3779520,2251456 L4187952,2251456 L4187952,2251456 L4187952,3165856 L4187952,3165856 L3779520,3165856 ZM4393184,2032000 L4801616,2032000 L4801616,2032000 L4801616,3165856 L4801616,3165856 L4393184,3165856 ZM5006848,2609088 L5415280,2609088 L5415280,2609088 L5415280,3165856 L5415280,3165856 L5006848,3165856 Z" fill="#012169" fill-rule="nonzero" /><path d="M101600,1113536 L510032,1113536 L510032,1113536 L510032,3165856 L510032,3165856 L101600,3165856 ZM715264,877824 L1123696,877824 L1123696,877824 L1123696,3165856 L1123696,3165856 L715264,3165856 ZM1326896,788416 L1735328,788416 L1735328,788416 L1735328,3165856 L1735328,3165856 L1326896,3165856 ZM1940560,1414272 L2348992,1414272 L2348992,1414272 L2348992,3165856 L2348992,3165856 L1940560,3165856 ZM2554224,1737360 L2962656,1737360 L2962656,1737360 L2962656,3165856 L2962656,3165856 L2554224,3165856 ZM3165856,1916176 L3576320,1916176 L3576320,1916176 L3576320,3165856 L3576320,3165856 L3165856,3165856 ZM3779520,2251456 L4187952,2251456 L4187952,2251456 L4187952,3165856 L4187952,3165856 L3779520,3165856 ZM4393184,2032000 L4801616,2032000 L4801616,2032000 L4801616,3165856 L4801616,3165856 L4393184,3165856 ZM5006848,2609088 L5415280,2609088 L5415280,2609088 L5415280,3165856 L5415280,3165856 L5006848,3165856 Z" stroke-width="8466.667" stroke-linejoin="round" stroke-miterlimit="13.33333" stroke="#ffffff" fill="none" fill-rule="nonzero" /></g></g><g clip-path="url(#clip008)"><g transform="matrix(0.000656168,0,0,0.000656168,340,2137.333)"><g><path d="M0.001636996,-6773.333 L5516880,-6772 " stroke-width="3386.667" stroke-linejoin="round" stroke-miterlimit="13.33333" stroke="#000000" fill="none" fill-rule="evenodd" /><path d="M-0.000818498,3386.667 L5516880,3388 " stroke-width="10160" stroke-linejoin="round" stroke-miterlimit="13.33333" stroke="#000000" fill="none" fill-rule="evenodd" /></g></g></g><g><g clip-path="url(#clip009)"><g><g transform="translate(416.5337,1498.534)"><text><tspan x="0" y="0" font-family="Connections Cond Bld,Arial Narrow" font-weight="normal" font-style="normal" font-size="105.3333" fill="#ffffff">149%</tspan></text></g></g></g></g><g><g clip-path="url(#clip010)"><g><g transform="translate(818.8242,1421.119)"><text><tspan x="0" y="0" font-family="Connections Cond Bld,Arial Narrow" font-weight="normal" font-style="normal" font-size="105.3333" fill="#ffffff">154%</tspan></text></g></g></g></g><g><g clip-path="url(#clip011)"><g><g transform="translate(1221.114,1391.341)"><text><tspan x="0" y="0" font-family="Connections Cond Bld,Arial Narrow" font-weight="normal" font-style="normal" font-size="105.3333" fill="#ffffff">156%</tspan></text></g></g></g></g><g><g clip-path="url(#clip012)"><g><g transform="translate(1623.404,1597.206)"><text><tspan x="0" y="0" font-family="Connections Cond Bld,Arial Narrow" font-weight="normal" font-style="normal" font-size="105.3333" fill="#ffffff">141%</tspan></text></g></g></g></g><g><g clip-path="url(#clip013)"><g><g transform="translate(2025.695,1702.805)"><text><tspan x="0" y="0" font-family="Connections Cond Bld,Arial Narrow" font-weight="normal" font-style="normal" font-size="105.3333" fill="#ffffff">134%</tspan></text></g></g></g></g><g><g clip-path="url(#clip014)"><g><g transform="translate(2427.984,1761.564)"><text><tspan x="0" y="0" font-family="Connections Cond Bld,Arial Narrow" font-weight="normal" font-style="normal" font-size="105.3333" fill="#ffffff">130%</tspan></text></g></g></g></g><g><g clip-path="url(#clip015)"><g><g transform="translate(2830.275,1871.846)"><text><tspan x="0" y="0" font-family="Connections Cond Bld,Arial Narrow" font-weight="normal" font-style="normal" font-size="105.3333" fill="#ffffff">122%</tspan></text></g></g></g></g><g><g clip-path="url(#clip016)"><g><g transform="translate(3232.564,1799.828)"><text><tspan x="0" y="0" font-family="Connections Cond Bld,Arial Narrow" font-weight="normal" font-style="normal" font-size="105.3333" fill="#ffffff">127%</tspan></text></g></g></g></g><g><g clip-path="url(#clip017)"><g><g transform="translate(3634.855,1989.29)"><text><tspan x="0" y="0" font-family="Connections Cond Bld,Arial Narrow" font-weight="normal" font-style="normal" font-size="105.3333" fill="#ffffff">113%</tspan></text></g></g></g></g><g><g clip-path="url(#clip018)"><g><g transform="translate(16.66667,2167.322)"><text><tspan x="0" y="0" font-family="Connections Cond Light,Arial Narrow" font-weight="normal" font-style="normal" font-size="105.3333" fill="#000000">100%</tspan></text></g></g></g></g><g><g clip-path="url(#clip019)"><g><g transform="translate(16.66667,1474.779)"><text><tspan x="0" y="0" font-family="Connections Cond Light,Arial Narrow" font-weight="normal" font-style="normal" font-size="105.3333" fill="#000000">125%</tspan></text></g></g></g></g><g><g clip-path="url(#clip020)"><g><g transform="translate(16.66667,782.2371)"><text><tspan x="0" y="0" font-family="Connections Cond Light,Arial Narrow" font-weight="normal" font-style="normal" font-size="105.3333" fill="#000000">150%</tspan></text></g></g></g></g><g><g clip-path="url(#clip021)"><g><g transform="translate(16.66667,89.69466)"><text><tspan x="0" y="0" font-family="Connections Cond Light,Arial Narrow" font-weight="normal" font-style="normal" font-size="105.3333" fill="#000000">175%</tspan></text></g></g></g></g><g><g clip-path="url(#clip022)"><g><g transform="translate(439.2012,2293.571)"><text><tspan x="0" y="0" font-family="Connections Cond Light,Arial Narrow" font-weight="normal" font-style="normal" font-size="105.3333" fill="#000000">2018</tspan></text></g></g></g></g><g><g clip-path="url(#clip023)"><g><g transform="translate(841.4908,2293.571)"><text><tspan x="0" y="0" font-family="Connections Cond Light,Arial Narrow" font-weight="normal" font-style="normal" font-size="105.3333" fill="#000000">2019</tspan></text></g></g></g></g><g><g clip-path="url(#clip024)"><g><g transform="translate(1243.781,2293.571)"><text><tspan x="0" y="0" font-family="Connections Cond Light,Arial Narrow" font-weight="normal" font-style="normal" font-size="105.3333" fill="#000000">2020</tspan></text></g></g></g></g><g><g clip-path="url(#clip025)"><g><g transform="translate(1646.071,2293.571)"><text><tspan x="0" y="0" font-family="Connections Cond Light,Arial Narrow" font-weight="normal" font-style="normal" font-size="105.3333" fill="#000000">2021</tspan></text></g></g></g></g><g><g clip-path="url(#clip026)"><g><g transform="translate(2048.361,2293.571)"><text><tspan x="0" y="0" font-family="Connections Cond Light,Arial Narrow" font-weight="normal" font-style="normal" font-size="105.3333" fill="#000000">2022</tspan></text></g></g></g></g><g><g clip-path="url(#clip027)"><g><g transform="translate(2450.652,2293.571)"><text><tspan x="0" y="0" font-family="Connections Cond Light,Arial Narrow" font-weight="normal" font-style="normal" font-size="105.3333" fill="#000000">2023</tspan></text></g></g></g></g><g><g clip-path="url(#clip028)"><g><g transform="translate(2852.941,2293.571)"><text><tspan x="0" y="0" font-family="Connections Cond Light,Arial Narrow" font-weight="normal" font-style="normal" font-size="105.3333" fill="#000000">2024</tspan></text></g></g></g></g><g><g clip-path="url(#clip029)"><g><g transform="translate(3168.426,2293.571)"><text><tspan x="0" y="0" font-family="Connections Cond Light,Arial Narrow" font-weight="normal" font-style="normal" font-size="105.3333" fill="#000000">YTD 2025</tspan></text></g></g></g></g><g><g clip-path="url(#clip030)"><g><g transform="translate(3614.466,2293.571)"><text><tspan x="0" y="0" font-family="Connections Cond Light,Arial Narrow" font-weight="normal" font-style="normal" font-size="105.3333" fill="#000000">Current</tspan></text></g></g></g></g><g clip-path="url(#clip031)"><g transform="matrix(0.000656168,0,0,0.000656168,456,54.66667)"><path d="M0,0 L1534160,0 L1534160,280416 L0,280416 Z" fill="#4f81bd" fill-opacity="0" fill-rule="evenodd" /></g></g><g clip-path="url(#clip032)"><g transform="matrix(0.000656168,0,0,0.000656168,732,120)"><path d="M0,0 L81280.01,0 L81280.01,83312 L0,83312 Z" fill="#012169" fill-rule="evenodd" /><path d="M0,0 L81280.01,0 L81280.01,0 L81280.01,83312 L81280.01,83312 L0,83312 Z" stroke-width="8466.667" stroke-linejoin="round" stroke-miterlimit="13.33333" stroke="#ffffff" fill="none" fill-rule="evenodd" /></g></g><g><g clip-path="url(#clip033)"><g><g transform="translate(808.364,176.8145)"><text><tspan x="0" y="0" font-family="Connections Cond Light,Arial Narrow" font-weight="normal" font-style="normal" font-size="105.3333" fill="#000000">V/S&amp;P 500</tspan></text></g></g></g></g><g /></g></g></g></g></g></g></g></g></g></svg>