<svg version="1.1" width="100%" height="100%" viewBox="0 0 355 220" xmlns="http://www.w3.org/2000/svg" xmlns:xlink="http://www.w3.org/1999/xlink"><style type="text/css" /><defs><clipPath id="clip001"><path d="M0,0 L2761.333,0 L2761.333,1832 L0,1832 Z" clip-rule="evenodd" /></clipPath><clipPath id="clip002"><path d="M0,0 L2761.333,0 L2761.333,1832 L0,1832 Z" clip-rule="evenodd" /></clipPath><clipPath id="clip003"><path d="M0,0 L2761.333,0 L2761.333,1832 L0,1832 Z" clip-rule="evenodd" /></clipPath><clipPath id="clip004"><path d="M0,0 L5200,0 L5200,1940 L0,1940 Z" clip-rule="evenodd" /></clipPath><clipPath id="clip005"><path d="M-800,0 L6000,0 L6000,1940 L-800,1940 Z" clip-rule="evenodd" /></clipPath><clipPath id="clip006"><path d="M288,78.66666 L2729.333,78.66666 L2729.333,1264 L288,1264 Z" clip-rule="evenodd" /></clipPath><clipPath id="clip007"><path d="M0,0 L2753.333,0 L2753.333,1830.667 L0,1830.667 Z" clip-rule="evenodd" /></clipPath><clipPath id="clip008"><path d="M0,0 L2753.333,0 L2753.333,1830.667 L0,1830.667 Z" clip-rule="evenodd" /></clipPath><clipPath id="clip009"><path d="M0,0 L2753.333,0 L2753.333,1830.667 L0,1830.667 Z" clip-rule="evenodd" /></clipPath><clipPath id="clip010"><path d="M0,0 L2753.333,0 L2753.333,1830.667 L0,1830.667 Z" clip-rule="evenodd" /></clipPath><clipPath id="clip011"><path d="M0,0 L2753.333,0 L2753.333,1830.667 L0,1830.667 Z" clip-rule="evenodd" /></clipPath><clipPath id="clip012"><path d="M0,0 L2753.333,0 L2753.333,1830.667 L0,1830.667 Z" clip-rule="evenodd" /></clipPath><clipPath id="clip013"><path d="M0,0 L2753.333,0 L2753.333,1830.667 L0,1830.667 Z" clip-rule="evenodd" /></clipPath><clipPath id="clip014"><path d="M0,0 L2753.333,0 L2753.333,1830.667 L0,1830.667 Z" clip-rule="evenodd" /></clipPath><clipPath id="clip015"><path d="M0,0 L2753.333,0 L2753.333,1830.667 L0,1830.667 Z" clip-rule="evenodd" /></clipPath><clipPath id="clip016"><path d="M0,0 L2753.333,0 L2753.333,1830.667 L0,1830.667 Z" clip-rule="evenodd" /></clipPath><clipPath id="clip017"><path d="M0,0 L2753.333,0 L2753.333,1830.667 L0,1830.667 Z" clip-rule="evenodd" /></clipPath><clipPath id="clip018"><path d="M0,0 L2753.333,0 L2753.333,1830.667 L0,1830.667 Z" clip-rule="evenodd" /></clipPath><clipPath id="clip019"><path d="M0,0 L2753.333,0 L2753.333,1830.667 L0,1830.667 Z" clip-rule="evenodd" /></clipPath><clipPath id="clip020"><path d="M0,0 L2753.333,0 L2753.333,1830.667 L0,1830.667 Z" clip-rule="evenodd" /></clipPath><clipPath id="clip021"><path d="M0,0 L2753.333,0 L2753.333,1830.667 L0,1830.667 Z" clip-rule="evenodd" /></clipPath><clipPath id="clip022"><path d="M0,0 L2753.333,0 L2753.333,1830.667 L0,1830.667 Z" clip-rule="evenodd" /></clipPath><clipPath id="clip023"><path d="M0,0 L2753.333,0 L2753.333,1830.667 L0,1830.667 Z" clip-rule="evenodd" /></clipPath><clipPath id="clip024"><path d="M0,0 L2753.333,0 L2753.333,1830.667 L0,1830.667 Z" clip-rule="evenodd" /></clipPath><clipPath id="clip025"><path d="M0,0 L2753.333,0 L2753.333,1830.667 L0,1830.667 Z" clip-rule="evenodd" /></clipPath><clipPath id="clip026"><path d="M0,0 L2753.333,0 L2753.333,1830.667 L0,1830.667 Z" clip-rule="evenodd" /></clipPath><clipPath id="clip027"><path d="M0,0 L2753.333,0 L2753.333,1830.667 L0,1830.667 Z" clip-rule="evenodd" /></clipPath></defs><clipPath id="page-clip-path-1"><rect x="0" y="0" width="354.67" height="220" /></clipPath><g clip-path="url(#page-clip-path-1)" transform="translate(0.17,0)"><g transform="translate(1,1)"><g><g transform="matrix(0.1197006,0,0,0.1199782,0,0)" clip-path="url(#clip001)"><g><g clip-path="url(#clip002)"><g><g clip-path="url(#clip003)"><g transform="matrix(1.000214,0,0,1.000852,0.00016276,0.00008138)"><g><g><g clip-path="url(#clip004)"><g transform="translate(2753.333,1832)" /></g></g></g><g clip-path="url(#clip005)"><g transform="matrix(0.000656168,0,0,0.000656168,0,0)"><path d="M0,0 L4198112,0 L4198112,2791968 L0,2791968 Z" fill="#ffffff" fill-opacity="0" fill-rule="evenodd" /></g></g><g clip-path="url(#clip006)"><g transform="matrix(0.000656168,0,0,0.000656168,289.3333,80)"><path d="M87376,331216 L440944,331216 L440944,331216 L440944,1792224 L440944,1792224 L87376,1792224 ZM617728,1499616 L969264,1499616 L969264,1499616 L969264,1792224 L969264,1792224 L617728,1792224 ZM1676400,1694688 L2029968,1694688 L2029968,1694688 L2029968,1792224 L2029968,1792224 L1676400,1792224 ZM2735072,1402080 L3088640,1402080 L3088640,1402080 L3088640,1792224 L3088640,1792224 L2735072,1792224 ZM3265424,1597152 L3618992,1597152 L3618992,1597152 L3618992,1792224 L3618992,1792224 L3265424,1792224 Z" fill="#012169" fill-rule="nonzero" /><path d="M87376,331216 L440944,331216 L440944,331216 L440944,1792224 L440944,1792224 L87376,1792224 ZM617728,1499616 L969264,1499616 L969264,1499616 L969264,1792224 L969264,1792224 L617728,1792224 ZM1676400,1694688 L2029968,1694688 L2029968,1694688 L2029968,1792224 L2029968,1792224 L1676400,1792224 ZM2735072,1402080 L3088640,1402080 L3088640,1402080 L3088640,1792224 L3088640,1792224 L2735072,1792224 ZM3265424,1597152 L3618992,1597152 L3618992,1597152 L3618992,1792224 L3618992,1792224 L3265424,1792224 Z" stroke-width="8466.667" stroke-linejoin="round" stroke-miterlimit="13.33333" stroke="#ffffff" fill="none" fill-rule="nonzero" /></g></g><g clip-path="url(#clip007)"><g transform="matrix(0.000656168,0,0,0.000656168,289.3333,1256)"><g><path d="M0.002436647,-6773.333 L3706368,-6772 " stroke-width="3386.667" stroke-linejoin="round" stroke-miterlimit="13.33333" stroke="#000000" fill="none" fill-rule="evenodd" /><path d="M-0.001218323,3386.667 L3706368,3388 " stroke-width="10160" stroke-linejoin="round" stroke-miterlimit="13.33333" stroke="#000000" fill="none" fill-rule="evenodd" /></g></g></g><g><g clip-path="url(#clip008)"><g><g transform="translate(67.33334,1285.613)"><text><tspan x="0" y="0" font-family="Connections Cond Light,Arial Narrow" font-weight="normal" font-style="normal" font-size="105.3333" fill="#000000">0%</tspan></text></g></g></g></g><g><g clip-path="url(#clip009)"><g><g transform="translate(16.66667,991.5582)"><text><tspan x="0" y="0" font-family="Connections Cond Light,Arial Narrow" font-weight="normal" font-style="normal" font-size="105.3333" fill="#000000">10%</tspan></text></g></g></g></g><g><g clip-path="url(#clip010)"><g><g transform="translate(16.66667,697.5031)"><text><tspan x="0" y="0" font-family="Connections Cond Light,Arial Narrow" font-weight="normal" font-style="normal" font-size="105.3333" fill="#000000">20%</tspan></text></g></g></g></g><g><g clip-path="url(#clip011)"><g><g transform="translate(16.66667,403.448)"><text><tspan x="0" y="0" font-family="Connections Cond Light,Arial Narrow" font-weight="normal" font-style="normal" font-size="105.3333" fill="#000000">30%</tspan></text></g></g></g></g><g><g clip-path="url(#clip012)"><g><g transform="translate(16.66667,109.3928)"><text><tspan x="0" y="0" font-family="Connections Cond Light,Arial Narrow" font-weight="normal" font-style="normal" font-size="105.3333" fill="#000000">40%</tspan></text></g></g></g></g><g><g clip-path="url(#clip013)"><g><g transform="translate(299.6133,1411.863)"><text><tspan x="0" y="0" font-family="Connections Cond Light,Arial Narrow" font-weight="normal" font-style="normal" font-size="105.3333" fill="#000000">Towards</tspan></text></g></g></g></g><g><g clip-path="url(#clip014)"><g><g transform="translate(406.8906,1531.975)"><text><tspan x="0" y="0" font-family="Connections Cond Light,Arial Narrow" font-weight="normal" font-style="normal" font-size="105.3333" fill="#000000">US</tspan></text></g></g></g></g><g><g clip-path="url(#clip015)"><g><g transform="translate(647.1724,1411.863)"><text><tspan x="0" y="0" font-family="Connections Cond Light,Arial Narrow" font-weight="normal" font-style="normal" font-size="105.3333" fill="#000000">Towards</tspan></text></g></g></g></g><g><g clip-path="url(#clip016)"><g><g transform="translate(672.4217,1531.975)"><text><tspan x="0" y="0" font-family="Connections Cond Light,Arial Narrow" font-weight="normal" font-style="normal" font-size="105.3333" fill="#000000">Mexico</tspan></text></g></g></g></g><g><g clip-path="url(#clip017)"><g><g transform="translate(994.7305,1411.863)"><text><tspan x="0" y="0" font-family="Connections Cond Light,Arial Narrow" font-weight="normal" font-style="normal" font-size="105.3333" fill="#000000">Towards</tspan></text></g></g></g></g><g><g clip-path="url(#clip018)"><g><g transform="translate(1019.675,1531.975)"><text><tspan x="0" y="0" font-family="Connections Cond Light,Arial Narrow" font-weight="normal" font-style="normal" font-size="105.3333" fill="#000000">Canada</tspan></text></g></g></g></g><g><g clip-path="url(#clip019)"><g><g transform="translate(1342.29,1411.863)"><text><tspan x="0" y="0" font-family="Connections Cond Light,Arial Narrow" font-weight="normal" font-style="normal" font-size="105.3333" fill="#000000">Towards</tspan></text></g></g></g></g><g><g clip-path="url(#clip020)"><g><g transform="translate(1368.956,1531.975)"><text><tspan x="0" y="0" font-family="Connections Cond Light,Arial Narrow" font-weight="normal" font-style="normal" font-size="105.3333" fill="#000000">Europe</tspan></text></g></g></g></g><g><g clip-path="url(#clip021)"><g><g transform="translate(1709.793,1411.863)"><text><tspan x="0" y="0" font-family="Connections Cond Light,Arial Narrow" font-weight="normal" font-style="normal" font-size="105.3333" fill="#000000">Toward</tspan></text></g></g></g></g><g><g clip-path="url(#clip022)"><g><g transform="translate(1737.264,1531.975)"><text><tspan x="0" y="0" font-family="Connections Cond Light,Arial Narrow" font-weight="normal" font-style="normal" font-size="105.3333" fill="#000000">South</tspan></text></g></g></g></g><g><g clip-path="url(#clip023)"><g><g transform="translate(1743.376,1652.087)"><text><tspan x="0" y="0" font-family="Connections Cond Light,Arial Narrow" font-weight="normal" font-style="normal" font-size="105.3333" fill="#000000">Korea</tspan></text></g></g></g></g><g><g clip-path="url(#clip024)"><g><g transform="translate(2037.407,1411.863)"><text><tspan x="0" y="0" font-family="Connections Cond Light,Arial Narrow" font-weight="normal" font-style="normal" font-size="105.3333" fill="#000000">Towards</tspan></text></g></g></g></g><g><g clip-path="url(#clip025)"><g><g transform="translate(2038.323,1531.975)"><text><tspan x="0" y="0" font-family="Connections Cond Light,Arial Narrow" font-weight="normal" font-style="normal" font-size="105.3333" fill="#000000">Vietnam</tspan></text></g></g></g></g><g><g clip-path="url(#clip026)"><g><g transform="translate(2384.966,1411.863)"><text><tspan x="0" y="0" font-family="Connections Cond Light,Arial Narrow" font-weight="normal" font-style="normal" font-size="105.3333" fill="#000000">Towards</tspan></text></g></g></g></g><g><g clip-path="url(#clip027)"><g><g transform="translate(2454.521,1531.975)"><text><tspan x="0" y="0" font-family="Connections Cond Light,Arial Narrow" font-weight="normal" font-style="normal" font-size="105.3333" fill="#000000">India</tspan></text></g></g></g></g><g /></g></g></g></g></g></g></g></g></g></svg>