<?xml version="1.0" encoding="UTF-8" standalone="no"?>
<svg xmlns:dc="http://purl.org/dc/elements/1.1/" xmlns:cc="http://creativecommons.org/ns#" xmlns:rdf="http://www.w3.org/1999/02/22-rdf-syntax-ns#" xmlns:svg="http://www.w3.org/2000/svg" xmlns="http://www.w3.org/2000/svg" viewBox="63 309.3 639 371.25" height="371.25" width="639" xml:space="preserve" version="1.1" id="svg2">
  <metadata id="metadata8">
    <rdf:RDF>
      <cc:Work rdf:about="">
        <dc:format>image/svg+xml</dc:format>
        <dc:type rdf:resource="http://purl.org/dc/dcmitype/StillImage"/>
      </cc:Work>
    </rdf:RDF>
  </metadata>
  <defs id="defs6">
    <clipPath id="clipPath16" clipPathUnits="userSpaceOnUse">
      <path style="clip-rule:evenodd" id="path18" d="m 50.4,247.56 511.2,0 0,297 -511.2,0 0,-297 z"/>
    </clipPath>
    <clipPath id="clipPath82" clipPathUnits="userSpaceOnUse">
      <path style="clip-rule:evenodd" id="path84" d="m 50.52,247.56 511.08,0 0,296.88 -511.08,0 0,-296.88 z"/>
    </clipPath>
    <clipPath id="clipPath94" clipPathUnits="userSpaceOnUse">
      <path style="clip-rule:evenodd" id="path96" d="m 50.52,247.56 511.08,0 0,296.88 -511.08,0 0,-296.88 z"/>
    </clipPath>
    <clipPath id="clipPath106" clipPathUnits="userSpaceOnUse">
      <path style="clip-rule:evenodd" id="path108" d="m 50.52,247.56 511.08,0 0,296.88 -511.08,0 0,-296.88 z"/>
    </clipPath>
    <clipPath id="clipPath118" clipPathUnits="userSpaceOnUse">
      <path style="clip-rule:evenodd" id="path120" d="m 50.52,247.56 511.08,0 0,296.88 -511.08,0 0,-296.88 z"/>
    </clipPath>
    <clipPath id="clipPath130" clipPathUnits="userSpaceOnUse">
      <path style="clip-rule:evenodd" id="path132" d="m 50.52,247.56 511.08,0 0,296.88 -511.08,0 0,-296.88 z"/>
    </clipPath>
    <clipPath id="clipPath142" clipPathUnits="userSpaceOnUse">
      <path style="clip-rule:evenodd" id="path144" d="m 50.52,247.56 511.08,0 0,296.88 -511.08,0 0,-296.88 z"/>
    </clipPath>
    <clipPath id="clipPath154" clipPathUnits="userSpaceOnUse">
      <path style="clip-rule:evenodd" id="path156" d="m 50.52,247.56 511.08,0 0,296.88 -511.08,0 0,-296.88 z"/>
    </clipPath>
    <clipPath id="clipPath166" clipPathUnits="userSpaceOnUse">
      <path style="clip-rule:evenodd" id="path168" d="m 50.52,247.56 511.08,0 0,296.88 -511.08,0 0,-296.88 z"/>
    </clipPath>
    <clipPath id="clipPath178" clipPathUnits="userSpaceOnUse">
      <path style="clip-rule:evenodd" id="path180" d="m 50.52,247.56 511.08,0 0,296.88 -511.08,0 0,-296.88 z"/>
    </clipPath>
    <clipPath id="clipPath190" clipPathUnits="userSpaceOnUse">
      <path style="clip-rule:evenodd" id="path192" d="m 50.52,247.56 511.08,0 0,296.88 -511.08,0 0,-296.88 z"/>
    </clipPath>
    <clipPath id="clipPath202" clipPathUnits="userSpaceOnUse">
      <path style="clip-rule:evenodd" id="path204" d="m 50.52,247.56 511.08,0 0,296.88 -511.08,0 0,-296.88 z"/>
    </clipPath>
    <clipPath id="clipPath214" clipPathUnits="userSpaceOnUse">
      <path style="clip-rule:evenodd" id="path216" d="m 50.52,247.56 511.08,0 0,296.88 -511.08,0 0,-296.88 z"/>
    </clipPath>
    <clipPath id="clipPath226" clipPathUnits="userSpaceOnUse">
      <path style="clip-rule:evenodd" id="path228" d="m 50.52,247.56 511.08,0 0,296.88 -511.08,0 0,-296.88 z"/>
    </clipPath>
    <clipPath id="clipPath238" clipPathUnits="userSpaceOnUse">
      <path style="clip-rule:evenodd" id="path240" d="m 50.52,247.56 511.08,0 0,296.88 -511.08,0 0,-296.88 z"/>
    </clipPath>
    <clipPath id="clipPath250" clipPathUnits="userSpaceOnUse">
      <path style="clip-rule:evenodd" id="path252" d="m 50.52,247.56 511.08,0 0,296.88 -511.08,0 0,-296.88 z"/>
    </clipPath>
    <clipPath id="clipPath262" clipPathUnits="userSpaceOnUse">
      <path style="clip-rule:evenodd" id="path264" d="m 50.52,247.56 511.08,0 0,296.88 -511.08,0 0,-296.88 z"/>
    </clipPath>
    <clipPath id="clipPath274" clipPathUnits="userSpaceOnUse">
      <path style="clip-rule:evenodd" id="path276" d="m 50.52,247.56 511.08,0 0,296.88 -511.08,0 0,-296.88 z"/>
    </clipPath>
    <clipPath id="clipPath286" clipPathUnits="userSpaceOnUse">
      <path style="clip-rule:evenodd" id="path288" d="m 50.52,247.56 511.08,0 0,296.88 -511.08,0 0,-296.88 z"/>
    </clipPath>
    <clipPath id="clipPath298" clipPathUnits="userSpaceOnUse">
      <path style="clip-rule:evenodd" id="path300" d="m 50.52,247.56 511.08,0 0,296.88 -511.08,0 0,-296.88 z"/>
    </clipPath>
    <clipPath id="clipPath310" clipPathUnits="userSpaceOnUse">
      <path style="clip-rule:evenodd" id="path312" d="m 50.52,247.56 511.08,0 0,296.88 -511.08,0 0,-296.88 z"/>
    </clipPath>
    <clipPath id="clipPath322" clipPathUnits="userSpaceOnUse">
      <path style="clip-rule:evenodd" id="path324" d="m 50.52,247.56 511.08,0 0,296.88 -511.08,0 0,-296.88 z"/>
    </clipPath>
    <clipPath id="clipPath334" clipPathUnits="userSpaceOnUse">
      <path style="clip-rule:evenodd" id="path336" d="m 50.52,247.56 511.08,0 0,296.88 -511.08,0 0,-296.88 z"/>
    </clipPath>
    <clipPath id="clipPath346" clipPathUnits="userSpaceOnUse">
      <path style="clip-rule:evenodd" id="path348" d="m 50.52,247.56 511.08,0 0,296.88 -511.08,0 0,-296.88 z"/>
    </clipPath>
    <clipPath id="clipPath358" clipPathUnits="userSpaceOnUse">
      <path style="clip-rule:evenodd" id="path360" d="m 50.52,247.56 511.08,0 0,296.88 -511.08,0 0,-296.88 z"/>
    </clipPath>
    <clipPath id="clipPath370" clipPathUnits="userSpaceOnUse">
      <path style="clip-rule:evenodd" id="path372" d="m 50.52,247.56 511.08,0 0,296.88 -511.08,0 0,-296.88 z"/>
    </clipPath>
    <clipPath id="clipPath382" clipPathUnits="userSpaceOnUse">
      <path style="clip-rule:evenodd" id="path384" d="m 50.52,247.56 511.08,0 0,296.88 -511.08,0 0,-296.88 z"/>
    </clipPath>
    <clipPath id="clipPath394" clipPathUnits="userSpaceOnUse">
      <path style="clip-rule:evenodd" id="path396" d="m 50.52,247.56 511.08,0 0,296.88 -511.08,0 0,-296.88 z"/>
    </clipPath>
    <clipPath id="clipPath406" clipPathUnits="userSpaceOnUse">
      <path style="clip-rule:evenodd" id="path408" d="m 50.52,247.56 511.08,0 0,296.88 -511.08,0 0,-296.88 z"/>
    </clipPath>
    <clipPath id="clipPath418" clipPathUnits="userSpaceOnUse">
      <path style="clip-rule:evenodd" id="path420" d="m 50.52,247.56 511.08,0 0,296.88 -511.08,0 0,-296.88 z"/>
    </clipPath>
    <clipPath id="clipPath430" clipPathUnits="userSpaceOnUse">
      <path style="clip-rule:evenodd" id="path432" d="m 50.52,247.56 511.08,0 0,296.88 -511.08,0 0,-296.88 z"/>
    </clipPath>
    <clipPath id="clipPath442" clipPathUnits="userSpaceOnUse">
      <path style="clip-rule:evenodd" id="path444" d="m 50.52,247.56 511.08,0 0,296.88 -511.08,0 0,-296.88 z"/>
    </clipPath>
    <clipPath id="clipPath454" clipPathUnits="userSpaceOnUse">
      <path style="clip-rule:evenodd" id="path456" d="m 50.52,247.56 511.08,0 0,296.88 -511.08,0 0,-296.88 z"/>
    </clipPath>
    <clipPath id="clipPath466" clipPathUnits="userSpaceOnUse">
      <path style="clip-rule:evenodd" id="path468" d="m 50.52,247.56 511.08,0 0,296.88 -511.08,0 0,-296.88 z"/>
    </clipPath>
    <clipPath id="clipPath478" clipPathUnits="userSpaceOnUse">
      <path style="clip-rule:evenodd" id="path480" d="m 50.52,247.56 511.08,0 0,296.88 -511.08,0 0,-296.88 z"/>
    </clipPath>
    <clipPath id="clipPath490" clipPathUnits="userSpaceOnUse">
      <path style="clip-rule:evenodd" id="path492" d="m 50.52,247.56 511.08,0 0,296.88 -511.08,0 0,-296.88 z"/>
    </clipPath>
    <clipPath id="clipPath502" clipPathUnits="userSpaceOnUse">
      <path style="clip-rule:evenodd" id="path504" d="m 50.52,247.56 511.08,0 0,296.88 -511.08,0 0,-296.88 z"/>
    </clipPath>
    <clipPath id="clipPath514" clipPathUnits="userSpaceOnUse">
      <path style="clip-rule:evenodd" id="path516" d="m 50.52,247.56 511.08,0 0,296.88 -511.08,0 0,-296.88 z"/>
    </clipPath>
    <clipPath id="clipPath526" clipPathUnits="userSpaceOnUse">
      <path style="clip-rule:evenodd" id="path528" d="m 50.52,247.56 511.08,0 0,296.88 -511.08,0 0,-296.88 z"/>
    </clipPath>
    <clipPath id="clipPath538" clipPathUnits="userSpaceOnUse">
      <path style="clip-rule:evenodd" id="path540" d="m 50.52,247.56 511.08,0 0,296.88 -511.08,0 0,-296.88 z"/>
    </clipPath>
    <clipPath id="clipPath550" clipPathUnits="userSpaceOnUse">
      <path style="clip-rule:evenodd" id="path552" d="m 50.52,247.56 511.08,0 0,296.88 -511.08,0 0,-296.88 z"/>
    </clipPath>
    <clipPath id="clipPath562" clipPathUnits="userSpaceOnUse">
      <path style="clip-rule:evenodd" id="path564" d="m 50.52,247.56 511.08,0 0,296.88 -511.08,0 0,-296.88 z"/>
    </clipPath>
    <clipPath id="clipPath574" clipPathUnits="userSpaceOnUse">
      <path style="clip-rule:evenodd" id="path576" d="m 50.52,247.56 511.08,0 0,296.88 -511.08,0 0,-296.88 z"/>
    </clipPath>
    <clipPath id="clipPath586" clipPathUnits="userSpaceOnUse">
      <path style="clip-rule:evenodd" id="path588" d="m 50.52,247.56 511.08,0 0,296.88 -511.08,0 0,-296.88 z"/>
    </clipPath>
    <clipPath id="clipPath598" clipPathUnits="userSpaceOnUse">
      <path style="clip-rule:evenodd" id="path600" d="m 50.52,247.56 511.08,0 0,296.88 -511.08,0 0,-296.88 z"/>
    </clipPath>
    <clipPath id="clipPath610" clipPathUnits="userSpaceOnUse">
      <path style="clip-rule:evenodd" id="path612" d="m 50.52,247.56 511.08,0 0,296.88 -511.08,0 0,-296.88 z"/>
    </clipPath>
  </defs>
  <g transform="matrix(1.25,0,0,-1.25,0,990)" id="g10">
    <g id="g12">
      <g clip-path="url(#clipPath16)" id="g14">
        <path id="path20" style="fill:none;stroke:#000000;stroke-width:0.14;stroke-linecap:butt;stroke-linejoin:miter;stroke-miterlimit:10;stroke-dasharray:none;stroke-opacity:0" d="m 50.468,247.62 511.13,0 0,296.93 -511.13,0 0,-296.93 z"/>
      </g>
    </g>
    <path id="path22" style="fill:#ffffff;fill-opacity:1;fill-rule:evenodd;stroke:none" d="m 50.468,247.62 511.13,0 0,296.92 -511.13,0 0,-296.92 z"/>
    <path id="path24" style="fill:#005aa4;fill-opacity:1;fill-rule:evenodd;stroke:none" d="m 306.03,515.97 c 58.97,0 109.19,-42.89 118.41,-101.14 l -118.41,-18.75 0,119.89 z"/>
    <path id="path26" style="fill:none;stroke:#ffffff;stroke-width:1.36600006;stroke-linecap:butt;stroke-linejoin:round;stroke-miterlimit:10;stroke-dasharray:none;stroke-opacity:1" d="m 306.03,515.97 c 58.97,0 109.19,-42.89 118.41,-101.14 l -118.41,-18.75 0,119.89 z"/>
    <path id="path28" style="fill:#2673b2;fill-opacity:1;fill-rule:evenodd;stroke:none" d="m 424.44,414.83 c 0.99,-6.2 1.48,-12.47 1.48,-18.75 l -119.89,0 118.41,18.75 z"/>
    <path id="path30" style="fill:none;stroke:#ffffff;stroke-width:1.36600006;stroke-linecap:butt;stroke-linejoin:round;stroke-miterlimit:10;stroke-dasharray:none;stroke-opacity:1" d="m 424.44,414.83 c 0.99,-6.2 1.48,-12.47 1.48,-18.75 l -119.89,0 118.41,18.75 z"/>
    <path id="path32" style="fill:#80add2;fill-opacity:1;fill-rule:evenodd;stroke:none" d="m 425.92,396.08 c 0,-7.54 -0.71,-15.06 -2.12,-22.46 l -117.77,22.46 119.89,0 z"/>
    <path id="path34" style="fill:none;stroke:#ffffff;stroke-width:1.36600006;stroke-linecap:butt;stroke-linejoin:round;stroke-miterlimit:10;stroke-dasharray:none;stroke-opacity:1" d="m 425.92,396.08 c 0,-7.54 -0.71,-15.06 -2.12,-22.46 l -117.77,22.46 119.89,0 z"/>
    <path id="path36" style="fill:#977f31;fill-opacity:1;fill-rule:evenodd;stroke:none" d="M 423.8,373.62 C 420.25,355.03 412.36,337.55 400.76,322.6 L 306.03,396.08 423.8,373.62 Z"/>
    <path id="path38" style="fill:none;stroke:#ffffff;stroke-width:1.36600006;stroke-linecap:butt;stroke-linejoin:round;stroke-miterlimit:10;stroke-dasharray:none;stroke-opacity:1" d="M 423.8,373.62 C 420.25,355.03 412.36,337.55 400.76,322.6 L 306.03,396.08 423.8,373.62 Z"/>
    <path id="path40" style="fill:#c0a13e;fill-opacity:1;fill-rule:evenodd;stroke:none" d="m 400.76,322.6 c -11.59,-14.95 -26.56,-26.94 -43.68,-35 l -51.05,108.48 94.73,-73.48 z"/>
    <path id="path42" style="fill:none;stroke:#ffffff;stroke-width:1.36600006;stroke-linecap:butt;stroke-linejoin:round;stroke-miterlimit:10;stroke-dasharray:none;stroke-opacity:1" d="m 400.76,322.6 c -11.59,-14.95 -26.56,-26.94 -43.68,-35 l -51.05,108.48 94.73,-73.48 z"/>
    <path id="path44" style="fill:#d0b766;fill-opacity:1;fill-rule:evenodd;stroke:none" d="m 357.08,287.6 c -26.42,-12.43 -56.46,-14.79 -84.5,-6.65 l 33.45,115.13 51.05,-108.48 z"/>
    <path id="path46" style="fill:none;stroke:#ffffff;stroke-width:1.36600006;stroke-linecap:butt;stroke-linejoin:round;stroke-miterlimit:10;stroke-dasharray:none;stroke-opacity:1" d="m 357.08,287.6 c -26.42,-12.43 -56.46,-14.79 -84.5,-6.65 l 33.45,115.13 51.05,-108.48 z"/>
    <path id="path48" style="fill:#e0d19e;fill-opacity:1;fill-rule:evenodd;stroke:none" d="m 272.58,280.95 c -20.61,5.99 -39.25,17.41 -53.94,33.06 l 87.39,82.07 -33.45,-115.13 z"/>
    <path id="path50" style="fill:none;stroke:#ffffff;stroke-width:1.36600006;stroke-linecap:butt;stroke-linejoin:round;stroke-miterlimit:10;stroke-dasharray:none;stroke-opacity:1" d="m 272.58,280.95 c -20.61,5.99 -39.25,17.41 -53.94,33.06 l 87.39,82.07 -33.45,-115.13 z"/>
    <path id="path52" style="fill:#eadfbc;fill-opacity:1;fill-rule:evenodd;stroke:none" d="m 218.64,314.01 c -12.08,12.87 -21.17,28.24 -26.63,45.02 l 114.02,37.05 -87.39,-82.07 z"/>
    <path id="path54" style="fill:none;stroke:#ffffff;stroke-width:1.36600006;stroke-linecap:butt;stroke-linejoin:round;stroke-miterlimit:10;stroke-dasharray:none;stroke-opacity:1" d="m 218.64,314.01 c -12.08,12.87 -21.17,28.24 -26.63,45.02 l 114.02,37.05 -87.39,-82.07 z"/>
    <path id="path56" style="fill:#f6f1e1;fill-opacity:1;fill-rule:evenodd;stroke:none" d="m 192.01,359.03 c -4.28,13.17 -6.24,26.98 -5.81,40.82 l 119.83,-3.77 -114.02,-37.05 z"/>
    <path id="path58" style="fill:none;stroke:#ffffff;stroke-width:1.36600006;stroke-linecap:butt;stroke-linejoin:round;stroke-miterlimit:10;stroke-dasharray:none;stroke-opacity:1" d="m 192.01,359.03 c -4.28,13.17 -6.24,26.98 -5.81,40.82 l 119.83,-3.77 -114.02,-37.05 z"/>
    <path id="path60" style="fill:#226b5a;fill-opacity:1;fill-rule:evenodd;stroke:none" d="m 186.2,399.85 c 0.72,22.73 7.89,44.8 20.68,63.62 l 99.15,-67.39 -119.83,3.77 z"/>
    <path id="path62" style="fill:none;stroke:#ffffff;stroke-width:1.36600006;stroke-linecap:butt;stroke-linejoin:round;stroke-miterlimit:10;stroke-dasharray:none;stroke-opacity:1" d="m 186.2,399.85 c 0.72,22.73 7.89,44.8 20.68,63.62 l 99.15,-67.39 -119.83,3.77 z"/>
    <path id="path64" style="fill:#38957f;fill-opacity:1;fill-rule:evenodd;stroke:none" d="m 206.87,463.47 c 2.12,3.11 4.39,6.13 6.79,9.03 l 92.37,-76.42 -99.16,67.39 z"/>
    <path id="path66" style="fill:none;stroke:#ffffff;stroke-width:1.36600006;stroke-linecap:butt;stroke-linejoin:round;stroke-miterlimit:10;stroke-dasharray:none;stroke-opacity:1" d="m 206.87,463.47 c 2.12,3.11 4.39,6.13 6.79,9.03 l 92.37,-76.42 -99.16,67.39 z"/>
    <path id="path68" style="fill:#96c7bc;fill-opacity:1;fill-rule:evenodd;stroke:none" d="m 213.66,472.5 c 0.8,0.97 1.61,1.92 2.44,2.86 l 89.93,-79.28 -92.37,76.42 z"/>
    <path id="path70" style="fill:none;stroke:#ffffff;stroke-width:1.36600006;stroke-linecap:butt;stroke-linejoin:round;stroke-miterlimit:10;stroke-dasharray:none;stroke-opacity:1" d="m 213.66,472.5 c 0.8,0.97 1.61,1.92 2.44,2.86 l 89.93,-79.28 -92.37,76.42 z"/>
    <path id="path72" style="fill:#873246;fill-opacity:1;fill-rule:evenodd;stroke:none" d="m 216.1,475.36 c 10,11.34 22.04,20.68 35.5,27.54 l 54.43,-106.82 -89.93,79.28 z"/>
    <path id="path74" style="fill:#9f5a6a;fill-opacity:1;fill-rule:evenodd;stroke:none" d="m 251.6,502.9 c 7.84,3.99 16.1,7.11 24.62,9.3 L 306.03,396.08 251.6,502.9 Z"/>
    <path id="path76" style="fill:#ddaab6;fill-opacity:1;fill-rule:evenodd;stroke:none" d="m 276.22,512.2 c 9.74,2.5 19.75,3.77 29.81,3.77 l 0,-119.89 -29.81,116.12 z"/>
    <g id="g78">
      <g clip-path="url(#clipPath82)" id="g80"><text id="text86" style="font-variant:normal;font-weight:normal;font-size:8.18400002px;font-family:Calibri;-inkscape-font-specification:Calibri;writing-mode:lr-tb;fill:#404040;fill-opacity:1;fill-rule:nonzero;stroke:none" transform="matrix(1,0,0,-1,391.13,514.46)"><tspan id="tspan88" y="0" x="0 5.254128 9.4770718 11.326656 14.068296 18.094824 22.342319 24.396503 28.120224 30.861864 34.782001 37.52364 41.558353">United States</tspan></text>
</g>
    </g>
    <g id="g90">
      <g clip-path="url(#clipPath94)" id="g92"><text id="text98" style="font-variant:normal;font-weight:normal;font-size:8.18400002px;font-family:Calibri;-inkscape-font-specification:Calibri;writing-mode:lr-tb;fill:#404040;fill-opacity:1;fill-rule:nonzero;stroke:none" transform="matrix(1,0,0,-1,409.37,504.41)"><tspan id="tspan100" y="0" x="0 4.151998">45</tspan></text>
</g>
    </g>
    <g id="g102">
      <g clip-path="url(#clipPath106)" id="g104"><text id="text110" style="font-variant:normal;font-weight:normal;font-size:8.18400002px;font-family:Calibri;-inkscape-font-specification:Calibri;writing-mode:lr-tb;fill:#404040;fill-opacity:1;fill-rule:nonzero;stroke:none" transform="matrix(1,0,0,-1,406.42,494.35)"><tspan id="tspan112" y="0" x="0 4.151998 8.3039961">22%</tspan></text>
</g>
    </g>
    <g id="g114">
      <g clip-path="url(#clipPath118)" id="g116"><text id="text122" style="font-variant:normal;font-weight:normal;font-size:8.18400002px;font-family:Calibri;-inkscape-font-specification:Calibri;writing-mode:lr-tb;fill:#404040;fill-opacity:1;fill-rule:nonzero;stroke:none" transform="matrix(1,0,0,-1,435.6,421.42)"><tspan id="tspan124" y="0" x="0 4.362072 8.2822084 12.578808 16.498943 20.795544">Canada</tspan></text>
</g>
    </g>
    <g id="g126">
      <g clip-path="url(#clipPath130)" id="g128"><text id="text134" style="font-variant:normal;font-weight:normal;font-size:8.18400002px;font-family:Calibri;-inkscape-font-specification:Calibri;writing-mode:lr-tb;fill:#404040;fill-opacity:1;fill-rule:nonzero;stroke:none" transform="matrix(1,0,0,-1,445.87,411.36)"><tspan id="tspan136" y="0" x="0">5</tspan></text>
</g>
    </g>
    <g id="g138">
      <g clip-path="url(#clipPath142)" id="g140"><text id="text146" style="font-variant:normal;font-weight:normal;font-size:8.18400002px;font-family:Calibri;-inkscape-font-specification:Calibri;writing-mode:lr-tb;fill:#404040;fill-opacity:1;fill-rule:nonzero;stroke:none" transform="matrix(1,0,0,-1,442.92,401.3)"><tspan id="tspan148" y="0" x="0 4.151998">2%</tspan></text>
</g>
    </g>
    <g id="g150">
      <g clip-path="url(#clipPath154)" id="g152"><text id="text158" style="font-variant:normal;font-weight:normal;font-size:8.18400002px;font-family:Calibri;-inkscape-font-specification:Calibri;writing-mode:lr-tb;fill:#404040;fill-opacity:1;fill-rule:nonzero;stroke:none" transform="matrix(1,0,0,-1,434.81,389.98)"><tspan id="tspan160" y="0" x="0 3.470016 7.390152 10.090872 11.940456 16.187952 18.037537 22.718784 29.257799 33.300697 36.156914 37.981945 41.443775">Latin America</tspan></text>
</g>
    </g>
    <g id="g162">
      <g clip-path="url(#clipPath166)" id="g164"><text id="text170" style="font-variant:normal;font-weight:normal;font-size:8.20800018px;font-family:Calibri;-inkscape-font-specification:Calibri;writing-mode:lr-tb;fill:#404040;fill-opacity:1;fill-rule:nonzero;stroke:none" transform="matrix(1,0,0,-1,455.45,379.94)"><tspan id="tspan172" y="0" x="0">6</tspan></text>
</g>
    </g>
    <g id="g174">
      <g clip-path="url(#clipPath178)" id="g176"><text id="text182" style="font-variant:normal;font-weight:normal;font-size:8.20800018px;font-family:Calibri;-inkscape-font-specification:Calibri;writing-mode:lr-tb;fill:#404040;fill-opacity:1;fill-rule:nonzero;stroke:none" transform="matrix(1,0,0,-1,452.5,369.89)"><tspan id="tspan184" y="0" x="0 4.1519961">3%</tspan></text>
</g>
    </g>
    <g id="g186">
      <g clip-path="url(#clipPath190)" id="g188"><text id="text194" style="font-variant:normal;font-weight:normal;font-size:8.20800018px;font-family:Calibri;-inkscape-font-specification:Calibri;writing-mode:lr-tb;fill:#404040;fill-opacity:1;fill-rule:nonzero;stroke:none" transform="matrix(1,0,0,-1,424.1,344.57)"><tspan id="tspan196" y="0" x="0 5.2284961 9.5869436 12.418704 15.127344 19.379087 21.340799 25.36272 29.614464 32.446224 36.804672 41.056416 45.086544">North Europe </tspan></text>
</g>
    </g>
    <g id="g198">
      <g clip-path="url(#clipPath202)" id="g200"><text id="text206" style="font-variant:normal;font-weight:normal;font-size:8.20800018px;font-family:Calibri;-inkscape-font-specification:Calibri;writing-mode:lr-tb;fill:#404040;fill-opacity:1;fill-rule:nonzero;stroke:none" transform="matrix(1,0,0,-1,442.56,334.51)"><tspan id="tspan208" y="0" x="0 4.1519961">15</tspan></text>
</g>
    </g>
    <g id="g210">
      <g clip-path="url(#clipPath214)" id="g212"><text id="text218" style="font-variant:normal;font-weight:normal;font-size:8.20800018px;font-family:Calibri;-inkscape-font-specification:Calibri;writing-mode:lr-tb;fill:#404040;fill-opacity:1;fill-rule:nonzero;stroke:none" transform="matrix(1,0,0,-1,441.7,324.46)"><tspan id="tspan220" y="0" x="0 4.1519961">7%</tspan></text>
</g>
    </g>
    <g id="g222">
      <g clip-path="url(#clipPath226)" id="g224"><text id="text230" style="font-variant:normal;font-weight:normal;font-size:8.20800018px;font-family:Calibri;-inkscape-font-specification:Calibri;writing-mode:lr-tb;fill:#404040;fill-opacity:1;fill-rule:nonzero;stroke:none" transform="matrix(1,0,0,-1,388.1,289.58)"><tspan id="tspan232" y="0" x="0 4.3748641 8.4214077 12.689568 15.439248 18.303841 22.235472 24.090481 26.052193 30.098736 34.366898 37.231487 41.58173 45.849888">Central Europe</tspan></text>
</g>
    </g>
    <g id="g234">
      <g clip-path="url(#clipPath238)" id="g236"><text id="text242" style="font-variant:normal;font-weight:normal;font-size:8.20800018px;font-family:Calibri;-inkscape-font-specification:Calibri;writing-mode:lr-tb;fill:#404040;fill-opacity:1;fill-rule:nonzero;stroke:none" transform="matrix(1,0,0,-1,408.89,279.53)"><tspan id="tspan244" y="0" x="0 4.1519961">15</tspan></text>
</g>
    </g>
    <g id="g246">
      <g clip-path="url(#clipPath250)" id="g248"><text id="text254" style="font-variant:normal;font-weight:normal;font-size:8.20800018px;font-family:Calibri;-inkscape-font-specification:Calibri;writing-mode:lr-tb;fill:#404040;fill-opacity:1;fill-rule:nonzero;stroke:none" transform="matrix(1,0,0,-1,408,269.47)"><tspan id="tspan256" y="0" x="0 4.1519961">7%</tspan></text>
</g>
    </g>
    <g id="g258">
      <g clip-path="url(#clipPath262)" id="g260"><text id="text266" style="font-variant:normal;font-weight:normal;font-size:8.18400002px;font-family:Calibri;-inkscape-font-specification:Calibri;writing-mode:lr-tb;fill:#404040;fill-opacity:1;fill-rule:nonzero;stroke:none" transform="matrix(1,0,0,-1,300.31,271.15)"><tspan id="tspan268" y="0" x="0 7.3083119 11.383944 14.534784 17.276424 19.126007 23.193457 27.465504 30.32172 34.683792 38.955841">West Europe</tspan></text>
</g>
    </g>
    <g id="g270">
      <g clip-path="url(#clipPath274)" id="g272"><text id="text278" style="font-variant:normal;font-weight:normal;font-size:8.18400002px;font-family:Calibri;-inkscape-font-specification:Calibri;writing-mode:lr-tb;fill:#404040;fill-opacity:1;fill-rule:nonzero;stroke:none" transform="matrix(1,0,0,-1,317.59,261.1)"><tspan id="tspan280" y="0" x="0 4.151998">23</tspan></text>
</g>
    </g>
    <g id="g282">
      <g clip-path="url(#clipPath286)" id="g284"><text id="text290" style="font-variant:normal;font-weight:normal;font-size:8.18400002px;font-family:Calibri;-inkscape-font-specification:Calibri;writing-mode:lr-tb;fill:#404040;fill-opacity:1;fill-rule:nonzero;stroke:none" transform="matrix(1,0,0,-1,314.64,251.04)"><tspan id="tspan292" y="0" x="0 4.151998 8.3039961">11%</tspan></text>
</g>
    </g>
    <g id="g294">
      <g clip-path="url(#clipPath298)" id="g296"><text id="text302" style="font-variant:normal;font-weight:normal;font-size:8.18400002px;font-family:Calibri;-inkscape-font-specification:Calibri;writing-mode:lr-tb;fill:#404040;fill-opacity:1;fill-rule:nonzero;stroke:none" transform="matrix(1,0,0,-1,191.83,280.56)"><tspan id="tspan304" y="0" x="0 3.7237201 8.0857916 12.35784 15.09948 19.363344 21.319321 25.345848 29.617895 32.474113 36.81163 41.083679 45.118393">South Europe </tspan></text>
</g>
    </g>
    <g id="g306">
      <g clip-path="url(#clipPath310)" id="g308"><text id="text314" style="font-variant:normal;font-weight:normal;font-size:8.20800018px;font-family:Calibri;-inkscape-font-specification:Calibri;writing-mode:lr-tb;fill:#404040;fill-opacity:1;fill-rule:nonzero;stroke:none" transform="matrix(1,0,0,-1,210.19,270.53)"><tspan id="tspan316" y="0" x="0 4.1519961">17</tspan></text>
</g>
    </g>
    <g id="g318">
      <g clip-path="url(#clipPath322)" id="g320"><text id="text326" style="font-variant:normal;font-weight:normal;font-size:8.20800018px;font-family:Calibri;-inkscape-font-specification:Calibri;writing-mode:lr-tb;fill:#404040;fill-opacity:1;fill-rule:nonzero;stroke:none" transform="matrix(1,0,0,-1,209.33,260.47)"><tspan id="tspan328" y="0" x="0 4.1519961">9%</tspan></text>
</g>
    </g>
    <g id="g330">
      <g clip-path="url(#clipPath334)" id="g332"><text id="text338" style="font-variant:normal;font-weight:normal;font-size:8.20800018px;font-family:Calibri;-inkscape-font-specification:Calibri;writing-mode:lr-tb;fill:#404040;fill-opacity:1;fill-rule:nonzero;stroke:none" transform="matrix(1,0,0,-1,154.78,330.12)"><tspan id="tspan340" y="0" x="0 4.0465441 7.9781761 11.146464 13.896144 15.751152 19.805904 24.074064 26.938656 31.288897 35.557056">East Europe</tspan></text>
</g>
    </g>
    <g id="g342">
      <g clip-path="url(#clipPath346)" id="g344"><text id="text350" style="font-variant:normal;font-weight:normal;font-size:8.20800018px;font-family:Calibri;-inkscape-font-specification:Calibri;writing-mode:lr-tb;fill:#404040;fill-opacity:1;fill-rule:nonzero;stroke:none" transform="matrix(1,0,0,-1,170.42,320.06)"><tspan id="tspan352" y="0" x="0 4.1519961">14</tspan></text>
</g>
    </g>
    <g id="g354">
      <g clip-path="url(#clipPath358)" id="g356"><text id="text362" style="font-variant:normal;font-weight:normal;font-size:8.20800018px;font-family:Calibri;-inkscape-font-specification:Calibri;writing-mode:lr-tb;fill:#404040;fill-opacity:1;fill-rule:nonzero;stroke:none" transform="matrix(1,0,0,-1,169.54,310.01)"><tspan id="tspan364" y="0" x="0 4.1519961">7%</tspan></text>
</g>
    </g>
    <g id="g366">
      <g clip-path="url(#clipPath370)" id="g368"><text id="text374" style="font-variant:normal;font-weight:normal;font-size:8.20800018px;font-family:Calibri;-inkscape-font-specification:Calibri;writing-mode:lr-tb;fill:#404040;fill-opacity:1;fill-rule:nonzero;stroke:none" transform="matrix(1,0,0,-1,138.94,383.38)"><tspan id="tspan376" y="0" x="0 6.9850078 8.8318081 13.083552 17.335297 19.182096 23.212223 25.264223 29.286144 33.217777 36.386063">Middle East</tspan></text>
</g>
    </g>
    <g id="g378">
      <g clip-path="url(#clipPath382)" id="g380"><text id="text386" style="font-variant:normal;font-weight:normal;font-size:8.20800018px;font-family:Calibri;-inkscape-font-specification:Calibri;writing-mode:lr-tb;fill:#404040;fill-opacity:1;fill-rule:nonzero;stroke:none" transform="matrix(1,0,0,-1,154.34,373.32)"><tspan id="tspan388" y="0" x="0 4.1519961">11</tspan></text>
</g>
    </g>
    <g id="g390">
      <g clip-path="url(#clipPath394)" id="g392"><text id="text398" style="font-variant:normal;font-weight:normal;font-size:8.20800018px;font-family:Calibri;-inkscape-font-specification:Calibri;writing-mode:lr-tb;fill:#404040;fill-opacity:1;fill-rule:nonzero;stroke:none" transform="matrix(1,0,0,-1,153.46,363.26)"><tspan id="tspan400" y="0" x="0 4.1519961">6%</tspan></text>
</g>
    </g>
    <g id="g402">
      <g clip-path="url(#clipPath406)" id="g404"><text id="text410" style="font-variant:normal;font-weight:normal;font-size:8.20800018px;font-family:Calibri;-inkscape-font-specification:Calibri;writing-mode:lr-tb;fill:#404040;fill-opacity:1;fill-rule:nonzero;stroke:none" transform="matrix(1,0,0,-1,131.66,430.32)"><tspan id="tspan412" y="0" x="0 7.0178399 10.949472 12.837312 17.089056 18.976896 22.908527 27.16848 31.43664 33.513264 37.888126 42.197327 44.052338 48.320496 52.252129">Mainland China </tspan></text>
</g>
    </g>
    <g id="g414">
      <g clip-path="url(#clipPath418)" id="g416"><text id="text422" style="font-variant:normal;font-weight:normal;font-size:8.20800018px;font-family:Calibri;-inkscape-font-specification:Calibri;writing-mode:lr-tb;fill:#404040;fill-opacity:1;fill-rule:nonzero;stroke:none" transform="matrix(1,0,0,-1,153.53,420.26)"><tspan id="tspan424" y="0" x="0 4.1519961">18</tspan></text>
</g>
    </g>
    <g id="g426">
      <g clip-path="url(#clipPath430)" id="g428"><text id="text434" style="font-variant:normal;font-weight:normal;font-size:8.20800018px;font-family:Calibri;-inkscape-font-specification:Calibri;writing-mode:lr-tb;fill:#404040;fill-opacity:1;fill-rule:nonzero;stroke:none" transform="matrix(1,0,0,-1,152.66,410.21)"><tspan id="tspan436" y="0" x="0 4.1519961">9%</tspan></text>
</g>
    </g>
    <g id="g438">
      <g clip-path="url(#clipPath442)" id="g440"><text id="text446" style="font-variant:normal;font-weight:normal;font-size:8.18400002px;font-family:Calibri;-inkscape-font-specification:Calibri;writing-mode:lr-tb;fill:#404040;fill-opacity:1;fill-rule:nonzero;stroke:none" transform="matrix(1,0,0,-1,165.58,470.09)"><tspan id="tspan448" y="0" x="0 4.0510802 7.9712162 9.8535357 15.7542 19.674335 23.970936">Taiwan </tspan></text>
</g>
    </g>
    <g id="g450">
      <g clip-path="url(#clipPath454)" id="g452"><text id="text458" style="font-variant:normal;font-weight:normal;font-size:8.18400002px;font-family:Calibri;-inkscape-font-specification:Calibri;writing-mode:lr-tb;fill:#404040;fill-opacity:1;fill-rule:nonzero;stroke:none" transform="matrix(1,0,0,-1,175.42,460.03)"><tspan id="tspan460" y="0" x="0">3</tspan></text>
</g>
    </g>
    <g id="g462">
      <g clip-path="url(#clipPath466)" id="g464"><text id="text470" style="font-variant:normal;font-weight:normal;font-size:8.18400002px;font-family:Calibri;-inkscape-font-specification:Calibri;writing-mode:lr-tb;fill:#404040;fill-opacity:1;fill-rule:nonzero;stroke:none" transform="matrix(1,0,0,-1,172.46,449.98)"><tspan id="tspan472" y="0" x="0 4.151998">2%</tspan></text>
</g>
    </g>
    <g id="g474">
      <g clip-path="url(#clipPath478)" id="g476"><text id="text482" style="font-variant:normal;font-weight:normal;font-size:8.20800018px;font-family:Calibri;-inkscape-font-specification:Calibri;writing-mode:lr-tb;fill:#404040;fill-opacity:1;fill-rule:nonzero;stroke:none" transform="matrix(1,0,0,-1,182.78,488.52)"><tspan id="tspan484" y="0" x="0 5.113584 9.5212803 13.78944 17.630783 19.485792 23.753952 28.161648 32.42981 36.271152">Hong Kong </tspan></text>
</g>
    </g>
    <g id="g486">
      <g clip-path="url(#clipPath490)" id="g488"><text id="text494" style="font-variant:normal;font-weight:normal;font-size:8.20800018px;font-family:Calibri;-inkscape-font-specification:Calibri;writing-mode:lr-tb;fill:#404040;fill-opacity:1;fill-rule:nonzero;stroke:none" transform="matrix(1,0,0,-1,198.74,478.46)"><tspan id="tspan496" y="0" x="0">1</tspan></text>
</g>
    </g>
    <g id="g498">
      <g clip-path="url(#clipPath502)" id="g500"><text id="text506" style="font-variant:normal;font-weight:normal;font-size:8.20800018px;font-family:Calibri;-inkscape-font-specification:Calibri;writing-mode:lr-tb;fill:#404040;fill-opacity:1;fill-rule:nonzero;stroke:none" transform="matrix(1,0,0,-1,195.79,468.41)"><tspan id="tspan508" y="0" x="0 4.1519961">1%</tspan></text>
</g>
    </g>
    <g id="g510">
      <g clip-path="url(#clipPath514)" id="g512"><text id="text518" style="font-variant:normal;font-weight:normal;font-size:8.20800018px;font-family:Calibri;-inkscape-font-specification:Calibri;writing-mode:lr-tb;fill:#404040;fill-opacity:1;fill-rule:nonzero;stroke:none" transform="matrix(1,0,0,-1,174.7,518.18)"><tspan id="tspan520" y="0" x="0 5.2531199 9.6115685 12.443328 15.193008 19.452959 21.414673 25.436592 29.368223 32.53651 35.286194 37.141201 41.827969 44.996258 46.843056">North East Asia</tspan></text>
</g>
    </g>
    <g id="g522">
      <g clip-path="url(#clipPath526)" id="g524"><text id="text530" style="font-variant:normal;font-weight:normal;font-size:8.20800018px;font-family:Calibri;-inkscape-font-specification:Calibri;writing-mode:lr-tb;fill:#404040;fill-opacity:1;fill-rule:nonzero;stroke:none" transform="matrix(1,0,0,-1,195.89,508.13)"><tspan id="tspan532" y="0" x="0 4.1519961">12</tspan></text>
</g>
    </g>
    <g id="g534">
      <g clip-path="url(#clipPath538)" id="g536"><text id="text542" style="font-variant:normal;font-weight:normal;font-size:8.20800018px;font-family:Calibri;-inkscape-font-specification:Calibri;writing-mode:lr-tb;fill:#404040;fill-opacity:1;fill-rule:nonzero;stroke:none" transform="matrix(1,0,0,-1,195.02,498.07)"><tspan id="tspan544" y="0" x="0 4.1519961">6%</tspan></text>
</g>
    </g>
    <g id="g546">
      <g clip-path="url(#clipPath550)" id="g548"><text id="text554" style="font-variant:normal;font-weight:normal;font-size:8.20800018px;font-family:Calibri;-inkscape-font-specification:Calibri;writing-mode:lr-tb;fill:#404040;fill-opacity:1;fill-rule:nonzero;stroke:none" transform="matrix(1,0,0,-1,207.43,535.39)"><tspan id="tspan556" y="0" x="0 3.718224 8.0766716 12.328416 15.078096 19.313423 21.275137 25.297056 29.228687 32.396976 35.146656 37.001663 41.688431 44.85672 46.703522">South East Asia</tspan></text>
</g>
    </g>
    <g id="g558">
      <g clip-path="url(#clipPath562)" id="g560"><text id="text566" style="font-variant:normal;font-weight:normal;font-size:8.20800018px;font-family:Calibri;-inkscape-font-specification:Calibri;writing-mode:lr-tb;fill:#404040;fill-opacity:1;fill-rule:nonzero;stroke:none" transform="matrix(1,0,0,-1,230.71,525.34)"><tspan id="tspan568" y="0" x="0">7</tspan></text>
</g>
    </g>
    <g id="g570">
      <g clip-path="url(#clipPath574)" id="g572"><text id="text578" style="font-variant:normal;font-weight:normal;font-size:8.20800018px;font-family:Calibri;-inkscape-font-specification:Calibri;writing-mode:lr-tb;fill:#404040;fill-opacity:1;fill-rule:nonzero;stroke:none" transform="matrix(1,0,0,-1,227.76,515.28)"><tspan id="tspan580" y="0" x="0 4.1519961">4%</tspan></text>
</g>
    </g>
    <g id="g582">
      <g clip-path="url(#clipPath586)" id="g584"><text id="text590" style="font-variant:normal;font-weight:normal;font-size:8.20800018px;font-family:Calibri;-inkscape-font-specification:Calibri;writing-mode:lr-tb;fill:#404040;fill-opacity:1;fill-rule:nonzero;stroke:none" transform="matrix(1,0,0,-1,263.95,535.39)"><tspan id="tspan592" y="0" x="0 4.6785598 8.9303036 12.098592 14.807232 17.638992 21.570623 23.425632 27.357264 30.525553 32.372353">Australasia</tspan></text>
</g>
    </g>
    <g id="g594">
      <g clip-path="url(#clipPath598)" id="g596"><text id="text602" style="font-variant:normal;font-weight:normal;font-size:8.20800018px;font-family:Calibri;-inkscape-font-specification:Calibri;writing-mode:lr-tb;fill:#404040;fill-opacity:1;fill-rule:nonzero;stroke:none" transform="matrix(1,0,0,-1,280.01,525.34)"><tspan id="tspan604" y="0" x="0">8</tspan></text>
</g>
    </g>
    <g id="g606">
      <g clip-path="url(#clipPath610)" id="g608"><text id="text614" style="font-variant:normal;font-weight:normal;font-size:8.20800018px;font-family:Calibri;-inkscape-font-specification:Calibri;writing-mode:lr-tb;fill:#404040;fill-opacity:1;fill-rule:nonzero;stroke:none" transform="matrix(1,0,0,-1,277.06,515.28)"><tspan id="tspan616" y="0" x="0 4.1519961">4%</tspan></text>
</g>
    </g>
  </g>
</svg>
