<?xml version="1.0" encoding="UTF-8" standalone="no"?>
<svg xmlns:dc="http://purl.org/dc/elements/1.1/" xmlns:cc="http://creativecommons.org/ns#" xmlns:rdf="http://www.w3.org/1999/02/22-rdf-syntax-ns#" xmlns:svg="http://www.w3.org/2000/svg" xmlns="http://www.w3.org/2000/svg" viewBox="63.0675 447.75 618.0825 207.75" height="207.75" width="618.0825" xml:space="preserve" version="1.1" id="svg2">
  <metadata id="metadata8">
    <rdf:RDF>
      <cc:Work rdf:about="">
        <dc:format>image/svg+xml</dc:format>
        <dc:type rdf:resource="http://purl.org/dc/dcmitype/StillImage"/>
      </cc:Work>
    </rdf:RDF>
  </metadata>
  <defs id="defs6">
    <clipPath id="clipPath16" clipPathUnits="userSpaceOnUse">
      <path style="clip-rule:evenodd" id="path18" d="m 50.4,317.52 494.52,0 0,166.2 -494.52,0 0,-166.2 z"/>
    </clipPath>
    <clipPath id="clipPath26" clipPathUnits="userSpaceOnUse">
      <path style="clip-rule:evenodd" id="path28" d="m 50.4,317.52 494.52,0 0,166.2 -494.52,0 0,-166.2 z"/>
    </clipPath>
    <clipPath id="clipPath40" clipPathUnits="userSpaceOnUse">
      <path style="clip-rule:evenodd" id="path42" d="m 50.52,317.52 494.4,0 0,166.08 -494.4,0 0,-166.08 z"/>
    </clipPath>
    <clipPath id="clipPath52" clipPathUnits="userSpaceOnUse">
      <path style="clip-rule:evenodd" id="path54" d="m 50.52,317.52 494.4,0 0,166.08 -494.4,0 0,-166.08 z"/>
    </clipPath>
    <clipPath id="clipPath64" clipPathUnits="userSpaceOnUse">
      <path style="clip-rule:evenodd" id="path66" d="m 50.52,317.52 494.4,0 0,166.08 -494.4,0 0,-166.08 z"/>
    </clipPath>
    <clipPath id="clipPath76" clipPathUnits="userSpaceOnUse">
      <path style="clip-rule:evenodd" id="path78" d="m 50.52,317.52 494.4,0 0,166.08 -494.4,0 0,-166.08 z"/>
    </clipPath>
    <clipPath id="clipPath88" clipPathUnits="userSpaceOnUse">
      <path style="clip-rule:evenodd" id="path90" d="m 50.52,317.52 494.4,0 0,166.08 -494.4,0 0,-166.08 z"/>
    </clipPath>
    <clipPath id="clipPath100" clipPathUnits="userSpaceOnUse">
      <path style="clip-rule:evenodd" id="path102" d="m 50.52,317.52 494.4,0 0,166.08 -494.4,0 0,-166.08 z"/>
    </clipPath>
    <clipPath id="clipPath112" clipPathUnits="userSpaceOnUse">
      <path style="clip-rule:evenodd" id="path114" d="m 50.52,317.52 494.4,0 0,166.08 -494.4,0 0,-166.08 z"/>
    </clipPath>
    <clipPath id="clipPath124" clipPathUnits="userSpaceOnUse">
      <path style="clip-rule:evenodd" id="path126" d="m 50.52,317.52 494.4,0 0,166.08 -494.4,0 0,-166.08 z"/>
    </clipPath>
    <clipPath id="clipPath136" clipPathUnits="userSpaceOnUse">
      <path style="clip-rule:evenodd" id="path138" d="m 50.52,317.52 494.4,0 0,166.08 -494.4,0 0,-166.08 z"/>
    </clipPath>
    <clipPath id="clipPath148" clipPathUnits="userSpaceOnUse">
      <path style="clip-rule:evenodd" id="path150" d="m 50.52,317.52 494.4,0 0,166.08 -494.4,0 0,-166.08 z"/>
    </clipPath>
    <clipPath id="clipPath160" clipPathUnits="userSpaceOnUse">
      <path style="clip-rule:evenodd" id="path162" d="m 50.52,317.52 494.4,0 0,166.08 -494.4,0 0,-166.08 z"/>
    </clipPath>
    <clipPath id="clipPath172" clipPathUnits="userSpaceOnUse">
      <path style="clip-rule:evenodd" id="path174" d="m 50.52,317.52 494.4,0 0,166.08 -494.4,0 0,-166.08 z"/>
    </clipPath>
    <clipPath id="clipPath184" clipPathUnits="userSpaceOnUse">
      <path style="clip-rule:evenodd" id="path186" d="m 50.52,317.52 494.4,0 0,166.08 -494.4,0 0,-166.08 z"/>
    </clipPath>
    <clipPath id="clipPath196" clipPathUnits="userSpaceOnUse">
      <path style="clip-rule:evenodd" id="path198" d="m 50.52,317.52 494.4,0 0,166.08 -494.4,0 0,-166.08 z"/>
    </clipPath>
    <clipPath id="clipPath208" clipPathUnits="userSpaceOnUse">
      <path style="clip-rule:evenodd" id="path210" d="m 50.52,317.52 494.4,0 0,166.08 -494.4,0 0,-166.08 z"/>
    </clipPath>
    <clipPath id="clipPath220" clipPathUnits="userSpaceOnUse">
      <path style="clip-rule:evenodd" id="path222" d="m 50.52,317.52 494.4,0 0,166.08 -494.4,0 0,-166.08 z"/>
    </clipPath>
    <clipPath id="clipPath232" clipPathUnits="userSpaceOnUse">
      <path style="clip-rule:evenodd" id="path234" d="m 50.52,317.52 494.4,0 0,166.08 -494.4,0 0,-166.08 z"/>
    </clipPath>
    <clipPath id="clipPath244" clipPathUnits="userSpaceOnUse">
      <path style="clip-rule:evenodd" id="path246" d="m 50.52,317.52 494.4,0 0,166.08 -494.4,0 0,-166.08 z"/>
    </clipPath>
    <clipPath id="clipPath256" clipPathUnits="userSpaceOnUse">
      <path style="clip-rule:evenodd" id="path258" d="m 50.52,317.52 494.4,0 0,166.08 -494.4,0 0,-166.08 z"/>
    </clipPath>
    <clipPath id="clipPath268" clipPathUnits="userSpaceOnUse">
      <path style="clip-rule:evenodd" id="path270" d="m 50.52,317.52 494.4,0 0,166.08 -494.4,0 0,-166.08 z"/>
    </clipPath>
    <clipPath id="clipPath280" clipPathUnits="userSpaceOnUse">
      <path style="clip-rule:evenodd" id="path282" d="m 50.52,317.52 494.4,0 0,166.08 -494.4,0 0,-166.08 z"/>
    </clipPath>
    <clipPath id="clipPath292" clipPathUnits="userSpaceOnUse">
      <path style="clip-rule:evenodd" id="path294" d="m 50.52,317.52 494.4,0 0,166.08 -494.4,0 0,-166.08 z"/>
    </clipPath>
    <clipPath id="clipPath304" clipPathUnits="userSpaceOnUse">
      <path style="clip-rule:evenodd" id="path306" d="m 50.52,317.52 494.4,0 0,166.08 -494.4,0 0,-166.08 z"/>
    </clipPath>
    <clipPath id="clipPath316" clipPathUnits="userSpaceOnUse">
      <path style="clip-rule:evenodd" id="path318" d="m 50.52,317.52 494.4,0 0,166.08 -494.4,0 0,-166.08 z"/>
    </clipPath>
    <clipPath id="clipPath328" clipPathUnits="userSpaceOnUse">
      <path style="clip-rule:evenodd" id="path330" d="m 50.52,317.52 494.4,0 0,166.08 -494.4,0 0,-166.08 z"/>
    </clipPath>
    <clipPath id="clipPath340" clipPathUnits="userSpaceOnUse">
      <path style="clip-rule:evenodd" id="path342" d="m 50.52,317.52 494.4,0 0,166.08 -494.4,0 0,-166.08 z"/>
    </clipPath>
    <clipPath id="clipPath352" clipPathUnits="userSpaceOnUse">
      <path style="clip-rule:evenodd" id="path354" d="m 50.52,317.52 494.4,0 0,166.08 -494.4,0 0,-166.08 z"/>
    </clipPath>
    <clipPath id="clipPath364" clipPathUnits="userSpaceOnUse">
      <path style="clip-rule:evenodd" id="path366" d="m 50.52,317.52 494.4,0 0,166.08 -494.4,0 0,-166.08 z"/>
    </clipPath>
    <clipPath id="clipPath376" clipPathUnits="userSpaceOnUse">
      <path style="clip-rule:evenodd" id="path378" d="m 50.52,317.52 494.4,0 0,166.08 -494.4,0 0,-166.08 z"/>
    </clipPath>
    <clipPath id="clipPath388" clipPathUnits="userSpaceOnUse">
      <path style="clip-rule:evenodd" id="path390" d="m 50.52,317.52 494.4,0 0,166.08 -494.4,0 0,-166.08 z"/>
    </clipPath>
    <clipPath id="clipPath400" clipPathUnits="userSpaceOnUse">
      <path style="clip-rule:evenodd" id="path402" d="m 50.52,317.52 494.4,0 0,166.08 -494.4,0 0,-166.08 z"/>
    </clipPath>
    <clipPath id="clipPath412" clipPathUnits="userSpaceOnUse">
      <path style="clip-rule:evenodd" id="path414" d="m 50.52,317.52 494.4,0 0,166.08 -494.4,0 0,-166.08 z"/>
    </clipPath>
    <clipPath id="clipPath424" clipPathUnits="userSpaceOnUse">
      <path style="clip-rule:evenodd" id="path426" d="m 50.52,317.52 494.4,0 0,166.08 -494.4,0 0,-166.08 z"/>
    </clipPath>
    <clipPath id="clipPath436" clipPathUnits="userSpaceOnUse">
      <path style="clip-rule:evenodd" id="path438" d="m 50.52,317.52 494.4,0 0,166.08 -494.4,0 0,-166.08 z"/>
    </clipPath>
    <clipPath id="clipPath448" clipPathUnits="userSpaceOnUse">
      <path style="clip-rule:evenodd" id="path450" d="m 50.52,317.52 494.4,0 0,166.08 -494.4,0 0,-166.08 z"/>
    </clipPath>
    <clipPath id="clipPath460" clipPathUnits="userSpaceOnUse">
      <path style="clip-rule:evenodd" id="path462" d="m 50.52,317.52 494.4,0 0,166.08 -494.4,0 0,-166.08 z"/>
    </clipPath>
    <clipPath id="clipPath472" clipPathUnits="userSpaceOnUse">
      <path style="clip-rule:evenodd" id="path474" d="m 50.52,317.52 494.4,0 0,166.08 -494.4,0 0,-166.08 z"/>
    </clipPath>
    <clipPath id="clipPath484" clipPathUnits="userSpaceOnUse">
      <path style="clip-rule:evenodd" id="path486" d="m 50.52,317.52 494.4,0 0,166.08 -494.4,0 0,-166.08 z"/>
    </clipPath>
    <clipPath id="clipPath496" clipPathUnits="userSpaceOnUse">
      <path style="clip-rule:evenodd" id="path498" d="m 50.52,317.52 494.4,0 0,166.08 -494.4,0 0,-166.08 z"/>
    </clipPath>
    <clipPath id="clipPath508" clipPathUnits="userSpaceOnUse">
      <path style="clip-rule:evenodd" id="path510" d="m 50.52,317.52 494.4,0 0,166.08 -494.4,0 0,-166.08 z"/>
    </clipPath>
    <clipPath id="clipPath520" clipPathUnits="userSpaceOnUse">
      <path style="clip-rule:evenodd" id="path522" d="m 50.52,317.52 494.4,0 0,166.08 -494.4,0 0,-166.08 z"/>
    </clipPath>
    <clipPath id="clipPath532" clipPathUnits="userSpaceOnUse">
      <path style="clip-rule:evenodd" id="path534" d="m 50.52,317.52 494.4,0 0,166.08 -494.4,0 0,-166.08 z"/>
    </clipPath>
    <clipPath id="clipPath544" clipPathUnits="userSpaceOnUse">
      <path style="clip-rule:evenodd" id="path546" d="m 50.52,317.52 494.4,0 0,166.08 -494.4,0 0,-166.08 z"/>
    </clipPath>
    <clipPath id="clipPath556" clipPathUnits="userSpaceOnUse">
      <path style="clip-rule:evenodd" id="path558" d="m 50.52,317.52 494.4,0 0,166.08 -494.4,0 0,-166.08 z"/>
    </clipPath>
    <clipPath id="clipPath568" clipPathUnits="userSpaceOnUse">
      <path style="clip-rule:evenodd" id="path570" d="m 50.52,317.52 494.4,0 0,166.08 -494.4,0 0,-166.08 z"/>
    </clipPath>
    <clipPath id="clipPath580" clipPathUnits="userSpaceOnUse">
      <path style="clip-rule:evenodd" id="path582" d="m 50.52,317.52 494.4,0 0,166.08 -494.4,0 0,-166.08 z"/>
    </clipPath>
    <clipPath id="clipPath592" clipPathUnits="userSpaceOnUse">
      <path style="clip-rule:evenodd" id="path594" d="m 50.52,317.52 494.4,0 0,166.08 -494.4,0 0,-166.08 z"/>
    </clipPath>
    <clipPath id="clipPath604" clipPathUnits="userSpaceOnUse">
      <path style="clip-rule:evenodd" id="path606" d="m 50.52,317.52 494.4,0 0,166.08 -494.4,0 0,-166.08 z"/>
    </clipPath>
    <clipPath id="clipPath616" clipPathUnits="userSpaceOnUse">
      <path style="clip-rule:evenodd" id="path618" d="m 50.52,317.52 494.4,0 0,166.08 -494.4,0 0,-166.08 z"/>
    </clipPath>
    <clipPath id="clipPath628" clipPathUnits="userSpaceOnUse">
      <path style="clip-rule:evenodd" id="path630" d="m 50.52,317.52 494.4,0 0,166.08 -494.4,0 0,-166.08 z"/>
    </clipPath>
    <clipPath id="clipPath640" clipPathUnits="userSpaceOnUse">
      <path style="clip-rule:evenodd" id="path642" d="m 50.52,317.52 494.4,0 0,166.08 -494.4,0 0,-166.08 z"/>
    </clipPath>
    <clipPath id="clipPath652" clipPathUnits="userSpaceOnUse">
      <path style="clip-rule:evenodd" id="path654" d="m 50.52,317.52 494.4,0 0,166.08 -494.4,0 0,-166.08 z"/>
    </clipPath>
    <clipPath id="clipPath666" clipPathUnits="userSpaceOnUse">
      <path style="clip-rule:evenodd" id="path668" d="m 336.55,459.34 2.53,-13.13 -233.67,-45 -2.53,13.14 233.67,44.99 z"/>
    </clipPath>
  </defs>
  <g transform="matrix(1.25,0,0,-1.25,0,1052.4)" id="g10">
    <g id="g12">
      <g clip-path="url(#clipPath16)" id="g14">
        <path id="path20" style="fill:none;stroke:#000000;stroke-width:0.14;stroke-linecap:butt;stroke-linejoin:miter;stroke-miterlimit:10;stroke-dasharray:none;stroke-opacity:0" d="m 50.524,317.48 494.46,0 0,166.2 -494.46,0 0,-166.2 z"/>
      </g>
    </g>
    <g id="g22">
      <g clip-path="url(#clipPath26)" id="g24">
        <path id="path30" style="fill:#ffffff;fill-opacity:1;fill-rule:evenodd;stroke:none" d="m 50.524,317.48 494.46,0 0,166.2 -494.46,0 0,-166.2 z"/>
      </g>
    </g>
    <path id="path32" style="fill:#137cb1;fill-opacity:1;fill-rule:nonzero;stroke:none" d="m 63.597,373.91 12.377,0 0,-32.89 -12.377,0 0,32.89 z m 18.566,1.78 12.377,0 0,-34.67 -12.377,0 0,34.67 z m 18.567,-0.47 12.38,0 0,-34.2 -12.38,0 0,34.2 z m 18.56,0.09 12.38,0 0,-34.29 -12.38,0 0,34.29 z m 18.57,5.91 12.38,0 0,-40.2 -12.38,0 0,40.2 z m 18.57,3.47 12.47,0 0,-43.67 -12.47,0 0,43.67 z m 18.65,2.16 12.38,0 0,-45.83 -12.38,0 0,45.83 z m 18.57,6.47 12.38,0 0,-52.3 -12.38,0 0,52.3 z m 18.57,0.94 12.37,0 0,-53.24 -12.37,0 0,53.24 z m 18.56,-2.72 12.38,0 0,-50.52 -12.38,0 0,50.52 z m 18.57,1.68 12.37,0 0,-52.2 -12.37,0 0,52.2 z m 18.56,4.41 12.38,0 0,-56.61 -12.38,0 0,56.61 z m 18.57,2.53 12.38,0 0,-59.14 -12.38,0 0,59.14 z m 18.56,-3.19 12.38,0 0,-55.95 -12.38,0 0,55.95 z m 18.57,2.72 12.47,0 0,-58.67 -12.47,0 0,58.67 z m 18.66,3.29 12.38,0 0,-61.96 -12.38,0 0,61.96 z m 18.56,2.81 12.38,0 0,-64.77 -12.38,0 0,64.77 z m 18.57,3.09 12.38,0 0,-67.86 -12.38,0 0,67.86 z m 18.57,6.94 12.37,0 0,-74.8 -12.37,0 0,74.8 z m 18.56,7.03 12.38,0 0,-81.83 -12.38,0 0,81.83 z m 18.57,-8.15 12.37,0 0,-73.68 -12.37,0 0,73.68 z m 18.56,16.5 12.38,0 0,-90.18 -12.38,0 0,90.18 z m 18.57,16.69 12.37,0 0,-106.87 -12.37,0 0,106.87 z m 18.56,3.56 12.38,0 0,-110.43 -12.38,0 0,110.43 z m 18.66,0.75 12.38,0 0,-111.18 -12.38,0 0,111.18 z m 18.57,0.47 12.38,0 0,-111.65 -12.38,0 0,111.65 z"/>
    <path id="path34" style="fill:none;stroke:#808080;stroke-width:0.97672999;stroke-linecap:round;stroke-linejoin:round;stroke-miterlimit:10;stroke-dasharray:none;stroke-opacity:1" d="m 60.491,341.02 482.969,0"/>
    <g id="g36">
      <g clip-path="url(#clipPath40)" id="g38"><text id="text44" style="font-variant:normal;font-weight:normal;font-size:6.28800011px;font-family:'Roboto Condensed';-inkscape-font-specification:RobotoCondensed-Regular;writing-mode:lr-tb;fill:#000000;fill-opacity:1;fill-rule:nonzero;stroke:none" transform="matrix(1,0,0,-1,63,378.96)"><tspan id="tspan46" y="0" x="0 3.0959721 4.31812 7.4140921 10.510064 13.606036">4,070 </tspan></text>
</g>
    </g>
    <g id="g48">
      <g clip-path="url(#clipPath52)" id="g50"><text id="text56" style="font-variant:normal;font-weight:normal;font-size:6.28800011px;font-family:'Roboto Condensed';-inkscape-font-specification:RobotoCondensed-Regular;writing-mode:lr-tb;fill:#000000;fill-opacity:1;fill-rule:nonzero;stroke:none" transform="matrix(1,0,0,-1,81.6,380.74)"><tspan id="tspan58" y="0" x="0 3.0719719 4.2701201 7.342092 10.414064 13.486036">4,289 </tspan></text>
</g>
    </g>
    <g id="g60">
      <g clip-path="url(#clipPath64)" id="g62"><text id="text68" style="font-variant:normal;font-weight:normal;font-size:6.28800011px;font-family:'Roboto Condensed';-inkscape-font-specification:RobotoCondensed-Regular;writing-mode:lr-tb;fill:#000000;fill-opacity:1;fill-rule:nonzero;stroke:none" transform="matrix(1,0,0,-1,100.18,380.3)"><tspan id="tspan70" y="0" x="0 3.106272 4.294704 7.4009762 10.488384 13.594656">4,236 </tspan></text>
</g>
    </g>
    <g id="g72">
      <g clip-path="url(#clipPath76)" id="g74"><text id="text80" style="font-variant:normal;font-weight:normal;font-size:6.28800011px;font-family:'Roboto Condensed';-inkscape-font-specification:RobotoCondensed-Regular;writing-mode:lr-tb;fill:#000000;fill-opacity:1;fill-rule:nonzero;stroke:none" transform="matrix(1,0,0,-1,118.75,380.33)"><tspan id="tspan82" y="0" x="0 3.0959721 4.31812 7.4140921 10.510064 13.606036">4,238 </tspan></text>
</g>
    </g>
    <g id="g84">
      <g clip-path="url(#clipPath88)" id="g86"><text id="text92" style="font-variant:normal;font-weight:normal;font-size:6.28800011px;font-family:'Roboto Condensed';-inkscape-font-specification:RobotoCondensed-Regular;writing-mode:lr-tb;fill:#000000;fill-opacity:1;fill-rule:nonzero;stroke:none" transform="matrix(1,0,0,-1,137.33,386.28)"><tspan id="tspan94" y="0" x="0 3.0959721 4.31812 7.4140921 10.510064 13.606036">4,975 </tspan></text>
</g>
    </g>
    <g id="g96">
      <g clip-path="url(#clipPath100)" id="g98"><text id="text104" style="font-variant:normal;font-weight:normal;font-size:6.28800011px;font-family:'Roboto Condensed';-inkscape-font-specification:RobotoCondensed-Regular;writing-mode:lr-tb;fill:#000000;fill-opacity:1;fill-rule:nonzero;stroke:none" transform="matrix(1,0,0,-1,155.9,389.78)"><tspan id="tspan106" y="0" x="0 3.0959721 4.31812 7.4140921 10.510064 13.606036">5,409 </tspan></text>
</g>
    </g>
    <g id="g108">
      <g clip-path="url(#clipPath112)" id="g110"><text id="text116" style="font-variant:normal;font-weight:normal;font-size:6.26399994px;font-family:'Roboto Condensed';-inkscape-font-specification:RobotoCondensed-Regular;writing-mode:lr-tb;fill:#000000;fill-opacity:1;fill-rule:nonzero;stroke:none" transform="matrix(1,0,0,-1,174.48,391.9)"><tspan id="tspan118" y="0" x="0 3.0959959 4.3253198 7.4213161 10.517312 13.613308">5,671 </tspan></text>
</g>
    </g>
    <g id="g120">
      <g clip-path="url(#clipPath124)" id="g122"><text id="text128" style="font-variant:normal;font-weight:normal;font-size:6.28800011px;font-family:'Roboto Condensed';-inkscape-font-specification:RobotoCondensed-Regular;writing-mode:lr-tb;fill:#000000;fill-opacity:1;fill-rule:nonzero;stroke:none" transform="matrix(1,0,0,-1,193.06,398.33)"><tspan id="tspan130" y="0" x="0 3.0959721 4.31812 7.4140921 10.510064 13.606036">6,465 </tspan></text>
</g>
    </g>
    <g id="g132">
      <g clip-path="url(#clipPath136)" id="g134"><text id="text140" style="font-variant:normal;font-weight:normal;font-size:6.28800011px;font-family:'Roboto Condensed';-inkscape-font-specification:RobotoCondensed-Regular;writing-mode:lr-tb;fill:#000000;fill-opacity:1;fill-rule:nonzero;stroke:none" transform="matrix(1,0,0,-1,211.66,399.31)"><tspan id="tspan142" y="0" x="0 3.0719719 4.2701201 7.342092 10.414064 13.486036">6,587 </tspan></text>
</g>
    </g>
    <g id="g144">
      <g clip-path="url(#clipPath148)" id="g146"><text id="text152" style="font-variant:normal;font-weight:normal;font-size:6.26399994px;font-family:'Roboto Condensed';-inkscape-font-specification:RobotoCondensed-Regular;writing-mode:lr-tb;fill:#000000;fill-opacity:1;fill-rule:nonzero;stroke:none" transform="matrix(1,0,0,-1,230.23,396.58)"><tspan id="tspan154" y="0" x="0 3.0944159 4.2971039 7.39152 10.485936 13.580352">6,250 </tspan></text>
</g>
    </g>
    <g id="g156">
      <g clip-path="url(#clipPath160)" id="g158"><text id="text164" style="font-variant:normal;font-weight:normal;font-size:6.26399994px;font-family:'Roboto Condensed';-inkscape-font-specification:RobotoCondensed-Regular;writing-mode:lr-tb;fill:#000000;fill-opacity:1;fill-rule:nonzero;stroke:none" transform="matrix(1,0,0,-1,248.81,398.28)"><tspan id="tspan166" y="0" x="0 3.0959959 4.3253198 7.4213161 10.517312 13.613308">6,461 </tspan></text>
</g>
    </g>
    <g id="g168">
      <g clip-path="url(#clipPath172)" id="g170"><text id="text176" style="font-variant:normal;font-weight:normal;font-size:6.28800011px;font-family:'Roboto Condensed';-inkscape-font-specification:RobotoCondensed-Regular;writing-mode:lr-tb;fill:#000000;fill-opacity:1;fill-rule:nonzero;stroke:none" transform="matrix(1,0,0,-1,267.38,402.65)"><tspan id="tspan178" y="0" x="0 3.0959721 4.31812 7.4140921 10.510064 13.606036">7,001 </tspan></text>
</g>
    </g>
    <g id="g180">
      <g clip-path="url(#clipPath184)" id="g182"><text id="text188" style="font-variant:normal;font-weight:normal;font-size:6.28800011px;font-family:'Roboto Condensed';-inkscape-font-specification:RobotoCondensed-Regular;writing-mode:lr-tb;fill:#000000;fill-opacity:1;fill-rule:nonzero;stroke:none" transform="matrix(1,0,0,-1,285.96,405.22)"><tspan id="tspan190" y="0" x="0 3.0959721 4.31812 7.4140921 10.510064 13.606036">7,318 </tspan></text>
</g>
    </g>
    <g id="g192">
      <g clip-path="url(#clipPath196)" id="g194"><text id="text200" style="font-variant:normal;font-weight:normal;font-size:6.28800011px;font-family:'Roboto Condensed';-inkscape-font-specification:RobotoCondensed-Regular;writing-mode:lr-tb;fill:#000000;fill-opacity:1;fill-rule:nonzero;stroke:none" transform="matrix(1,0,0,-1,304.54,402.02)"><tspan id="tspan202" y="0" x="0 3.0959721 4.31812 7.4140921 10.510064 13.606036">6,922 </tspan></text>
</g>
    </g>
    <g id="g204">
      <g clip-path="url(#clipPath208)" id="g206"><text id="text212" style="font-variant:normal;font-weight:normal;font-size:6.28800011px;font-family:'Roboto Condensed';-inkscape-font-specification:RobotoCondensed-Regular;writing-mode:lr-tb;fill:#000000;fill-opacity:1;fill-rule:nonzero;stroke:none" transform="matrix(1,0,0,-1,323.11,404.71)"><tspan id="tspan214" y="0" x="0 3.0959721 4.31812 7.4140921 10.510064 13.606036">7,255 </tspan></text>
</g>
    </g>
    <g id="g216">
      <g clip-path="url(#clipPath220)" id="g218"><text id="text224" style="font-variant:normal;font-weight:normal;font-size:6.28800011px;font-family:'Roboto Condensed';-inkscape-font-specification:RobotoCondensed-Regular;writing-mode:lr-tb;fill:#000000;fill-opacity:1;fill-rule:nonzero;stroke:none" transform="matrix(1,0,0,-1,341.71,408.02)"><tspan id="tspan226" y="0" x="0 3.0719719 4.2701201 7.342092 10.414064 13.486036">7,664 </tspan></text>
</g>
    </g>
    <g id="g228">
      <g clip-path="url(#clipPath232)" id="g230"><text id="text236" style="font-variant:normal;font-weight:normal;font-size:6.26399994px;font-family:'Roboto Condensed';-inkscape-font-specification:RobotoCondensed-Regular;writing-mode:lr-tb;fill:#000000;fill-opacity:1;fill-rule:nonzero;stroke:none" transform="matrix(1,0,0,-1,360.29,410.83)"><tspan id="tspan238" y="0" x="0 3.0944159 4.2971039 7.39152 10.485936 13.580352">8,014 </tspan></text>
</g>
    </g>
    <g id="g240">
      <g clip-path="url(#clipPath244)" id="g242"><text id="text248" style="font-variant:normal;font-weight:normal;font-size:6.28800011px;font-family:'Roboto Condensed';-inkscape-font-specification:RobotoCondensed-Regular;writing-mode:lr-tb;fill:#000000;fill-opacity:1;fill-rule:nonzero;stroke:none" transform="matrix(1,0,0,-1,378.86,413.95)"><tspan id="tspan250" y="0" x="0 3.0959721 4.31812 7.4140921 10.510064 13.606036">8,398 </tspan></text>
</g>
    </g>
    <g id="g252">
      <g clip-path="url(#clipPath256)" id="g254"><text id="text260" style="font-variant:normal;font-weight:normal;font-size:6.28800011px;font-family:'Roboto Condensed';-inkscape-font-specification:RobotoCondensed-Regular;writing-mode:lr-tb;fill:#000000;fill-opacity:1;fill-rule:nonzero;stroke:none" transform="matrix(1,0,0,-1,397.44,420.84)"><tspan id="tspan262" y="0" x="0 3.0959721 4.31812 7.4140921 10.510064 13.606036">9,251 </tspan></text>
</g>
    </g>
    <g id="g264">
      <g clip-path="url(#clipPath268)" id="g266"><text id="text272" style="font-variant:normal;font-weight:normal;font-size:6.26399994px;font-family:'Roboto Condensed';-inkscape-font-specification:RobotoCondensed-Regular;writing-mode:lr-tb;fill:#000000;fill-opacity:1;fill-rule:nonzero;stroke:none" transform="matrix(1,0,0,-1,414.43,427.94)"><tspan id="tspan274" y="0" x="0 3.0944159 6.1888318 7.39152 10.485936 13.580352 16.674768">10,131 </tspan></text>
</g>
    </g>
    <g id="g276">
      <g clip-path="url(#clipPath280)" id="g278"><text id="text284" style="font-variant:normal;font-weight:normal;font-size:6.28800011px;font-family:'Roboto Condensed';-inkscape-font-specification:RobotoCondensed-Regular;writing-mode:lr-tb;fill:#000000;fill-opacity:1;fill-rule:nonzero;stroke:none" transform="matrix(1,0,0,-1,434.59,419.78)"><tspan id="tspan286" y="0" x="0 3.0959721 4.31812 7.4140921 10.510064 13.606036">9,119 </tspan></text>
</g>
    </g>
    <g id="g288">
      <g clip-path="url(#clipPath292)" id="g290"><text id="text296" style="font-variant:normal;font-weight:normal;font-size:6.28800011px;font-family:'Roboto Condensed';-inkscape-font-specification:RobotoCondensed-Regular;writing-mode:lr-tb;fill:#000000;fill-opacity:1;fill-rule:nonzero;stroke:none" transform="matrix(1,0,0,-1,451.58,436.22)"><tspan id="tspan298" y="0" x="0 3.0959721 6.1919441 7.4140921 10.510064 13.606036 16.702007">11,155 </tspan></text>
</g>
    </g>
    <g id="g300">
      <g clip-path="url(#clipPath304)" id="g302"><text id="text308" style="font-variant:normal;font-weight:normal;font-size:6.28800011px;font-family:'Roboto Condensed';-inkscape-font-specification:RobotoCondensed-Regular;writing-mode:lr-tb;fill:#000000;fill-opacity:1;fill-rule:nonzero;stroke:none" transform="matrix(1,0,0,-1,470.16,452.93)"><tspan id="tspan310" y="0" x="0 3.0959721 6.1919441 7.4140921 10.510064 13.606036 16.702007">13,221 </tspan></text>
</g>
    </g>
    <g id="g312">
      <g clip-path="url(#clipPath316)" id="g314"><text id="text320" style="font-variant:normal;font-weight:normal;font-size:6.28800011px;font-family:'Roboto Condensed';-inkscape-font-specification:RobotoCondensed-Regular;writing-mode:lr-tb;fill:#000000;fill-opacity:1;fill-rule:nonzero;stroke:none" transform="matrix(1,0,0,-1,488.74,456.5)"><tspan id="tspan322" y="0" x="0 3.0959721 6.1919441 7.4140921 10.510064 13.606036 16.702007">13,663 </tspan></text>
</g>
    </g>
    <g id="g324">
      <g clip-path="url(#clipPath328)" id="g326"><text id="text332" style="font-variant:normal;font-weight:normal;font-size:6.28800011px;font-family:'Roboto Condensed';-inkscape-font-specification:RobotoCondensed-Regular;writing-mode:lr-tb;fill:#000000;fill-opacity:1;fill-rule:nonzero;stroke:none" transform="matrix(1,0,0,-1,507.31,457.22)"><tspan id="tspan334" y="0" x="0 3.0959721 6.1919441 7.4140921 10.510064 13.606036 16.702007">13,752 </tspan></text>
</g>
    </g>
    <g id="g336">
      <g clip-path="url(#clipPath340)" id="g338"><text id="text344" style="font-variant:normal;font-weight:normal;font-size:6.26399994px;font-family:'Roboto Condensed';-inkscape-font-specification:RobotoCondensed-Regular;writing-mode:lr-tb;fill:#000000;fill-opacity:1;fill-rule:nonzero;stroke:none" transform="matrix(1,0,0,-1,525.91,457.7)"><tspan id="tspan346" y="0" x="0 3.072016 6.144032 7.3493762 10.421392 13.493408 16.565424">13,813 </tspan></text>
</g>
    </g>
    <g id="g348">
      <g clip-path="url(#clipPath352)" id="g350"><text id="text356" style="font-variant:normal;font-weight:normal;font-size:6.26399994px;font-family:'Roboto Condensed';-inkscape-font-specification:RobotoCondensed-Regular;writing-mode:lr-tb;fill:#000000;fill-opacity:1;fill-rule:nonzero;stroke:none" transform="matrix(1,0,0,-1,63.624,331.08)"><tspan id="tspan358" y="0" x="0 3.0959959 6.1919918 9.2879877">2000</tspan></text>
</g>
    </g>
    <g id="g360">
      <g clip-path="url(#clipPath364)" id="g362"><text id="text368" style="font-variant:normal;font-weight:normal;font-size:6.26399994px;font-family:'Roboto Condensed';-inkscape-font-specification:RobotoCondensed-Regular;writing-mode:lr-tb;fill:#000000;fill-opacity:1;fill-rule:nonzero;stroke:none" transform="matrix(1,0,0,-1,82.2,331.08)"><tspan id="tspan370" y="0" x="0 3.0959959 6.1919918 9.2879877">2001</tspan></text>
</g>
    </g>
    <g id="g372">
      <g clip-path="url(#clipPath376)" id="g374"><text id="text380" style="font-variant:normal;font-weight:normal;font-size:6.26399994px;font-family:'Roboto Condensed';-inkscape-font-specification:RobotoCondensed-Regular;writing-mode:lr-tb;fill:#000000;fill-opacity:1;fill-rule:nonzero;stroke:none" transform="matrix(1,0,0,-1,100.78,331.08)"><tspan id="tspan382" y="0" x="0 3.0959959 6.1919918 9.2879877">2002</tspan></text>
</g>
    </g>
    <g id="g384">
      <g clip-path="url(#clipPath388)" id="g386"><text id="text392" style="font-variant:normal;font-weight:normal;font-size:6.26399994px;font-family:'Roboto Condensed';-inkscape-font-specification:RobotoCondensed-Regular;writing-mode:lr-tb;fill:#000000;fill-opacity:1;fill-rule:nonzero;stroke:none" transform="matrix(1,0,0,-1,119.35,331.08)"><tspan id="tspan394" y="0" x="0 3.0959959 6.1919918 9.2879877">2003</tspan></text>
</g>
    </g>
    <g id="g396">
      <g clip-path="url(#clipPath400)" id="g398"><text id="text404" style="font-variant:normal;font-weight:normal;font-size:6.26399994px;font-family:'Roboto Condensed';-inkscape-font-specification:RobotoCondensed-Regular;writing-mode:lr-tb;fill:#000000;fill-opacity:1;fill-rule:nonzero;stroke:none" transform="matrix(1,0,0,-1,137.93,331.08)"><tspan id="tspan406" y="0" x="0 3.0959959 6.1919918 9.2879877">2004</tspan></text>
</g>
    </g>
    <g id="g408">
      <g clip-path="url(#clipPath412)" id="g410"><text id="text416" style="font-variant:normal;font-weight:normal;font-size:6.26399994px;font-family:'Roboto Condensed';-inkscape-font-specification:RobotoCondensed-Regular;writing-mode:lr-tb;fill:#000000;fill-opacity:1;fill-rule:nonzero;stroke:none" transform="matrix(1,0,0,-1,156.53,331.08)"><tspan id="tspan418" y="0" x="0 3.072016 6.144032 9.2160482">2005</tspan></text>
</g>
    </g>
    <g id="g420">
      <g clip-path="url(#clipPath424)" id="g422"><text id="text428" style="font-variant:normal;font-weight:normal;font-size:6.26399994px;font-family:'Roboto Condensed';-inkscape-font-specification:RobotoCondensed-Regular;writing-mode:lr-tb;fill:#000000;fill-opacity:1;fill-rule:nonzero;stroke:none" transform="matrix(1,0,0,-1,175.1,331.08)"><tspan id="tspan430" y="0" x="0 3.0959959 6.1919918 9.2879877">2006</tspan></text>
</g>
    </g>
    <g id="g432">
      <g clip-path="url(#clipPath436)" id="g434"><text id="text440" style="font-variant:normal;font-weight:normal;font-size:6.26399994px;font-family:'Roboto Condensed';-inkscape-font-specification:RobotoCondensed-Regular;writing-mode:lr-tb;fill:#000000;fill-opacity:1;fill-rule:nonzero;stroke:none" transform="matrix(1,0,0,-1,193.68,331.08)"><tspan id="tspan442" y="0" x="0 3.0959959 6.1919918 9.2879877">2007</tspan></text>
</g>
    </g>
    <g id="g444">
      <g clip-path="url(#clipPath448)" id="g446"><text id="text452" style="font-variant:normal;font-weight:normal;font-size:6.26399994px;font-family:'Roboto Condensed';-inkscape-font-specification:RobotoCondensed-Regular;writing-mode:lr-tb;fill:#000000;fill-opacity:1;fill-rule:nonzero;stroke:none" transform="matrix(1,0,0,-1,212.26,331.08)"><tspan id="tspan454" y="0" x="0 3.0959959 6.1919918 9.2879877">2008</tspan></text>
</g>
    </g>
    <g id="g456">
      <g clip-path="url(#clipPath460)" id="g458"><text id="text464" style="font-variant:normal;font-weight:normal;font-size:6.26399994px;font-family:'Roboto Condensed';-inkscape-font-specification:RobotoCondensed-Regular;writing-mode:lr-tb;fill:#000000;fill-opacity:1;fill-rule:nonzero;stroke:none" transform="matrix(1,0,0,-1,230.83,331.08)"><tspan id="tspan466" y="0" x="0 3.0959959 6.1919918 9.2879877">2009</tspan></text>
</g>
    </g>
    <g id="g468">
      <g clip-path="url(#clipPath472)" id="g470"><text id="text476" style="font-variant:normal;font-weight:normal;font-size:6.26399994px;font-family:'Roboto Condensed';-inkscape-font-specification:RobotoCondensed-Regular;writing-mode:lr-tb;fill:#000000;fill-opacity:1;fill-rule:nonzero;stroke:none" transform="matrix(1,0,0,-1,249.41,331.08)"><tspan id="tspan478" y="0" x="0 3.0959959 6.1919918 9.2879877">2010</tspan></text>
</g>
    </g>
    <g id="g480">
      <g clip-path="url(#clipPath484)" id="g482"><text id="text488" style="font-variant:normal;font-weight:normal;font-size:6.26399994px;font-family:'Roboto Condensed';-inkscape-font-specification:RobotoCondensed-Regular;writing-mode:lr-tb;fill:#000000;fill-opacity:1;fill-rule:nonzero;stroke:none" transform="matrix(1,0,0,-1,267.98,331.08)"><tspan id="tspan490" y="0" x="0 3.0959959 6.1919918 9.2879877">2011</tspan></text>
</g>
    </g>
    <g id="g492">
      <g clip-path="url(#clipPath496)" id="g494"><text id="text500" style="font-variant:normal;font-weight:normal;font-size:6.26399994px;font-family:'Roboto Condensed';-inkscape-font-specification:RobotoCondensed-Regular;writing-mode:lr-tb;fill:#000000;fill-opacity:1;fill-rule:nonzero;stroke:none" transform="matrix(1,0,0,-1,286.58,331.08)"><tspan id="tspan502" y="0" x="0 3.072016 6.144032 9.2160482">2012</tspan></text>
</g>
    </g>
    <g id="g504">
      <g clip-path="url(#clipPath508)" id="g506"><text id="text512" style="font-variant:normal;font-weight:normal;font-size:6.26399994px;font-family:'Roboto Condensed';-inkscape-font-specification:RobotoCondensed-Regular;writing-mode:lr-tb;fill:#000000;fill-opacity:1;fill-rule:nonzero;stroke:none" transform="matrix(1,0,0,-1,305.16,331.08)"><tspan id="tspan514" y="0" x="0 3.0959959 6.1919918 9.2879877">2013</tspan></text>
</g>
    </g>
    <g id="g516">
      <g clip-path="url(#clipPath520)" id="g518"><text id="text524" style="font-variant:normal;font-weight:normal;font-size:6.26399994px;font-family:'Roboto Condensed';-inkscape-font-specification:RobotoCondensed-Regular;writing-mode:lr-tb;fill:#000000;fill-opacity:1;fill-rule:nonzero;stroke:none" transform="matrix(1,0,0,-1,323.74,331.08)"><tspan id="tspan526" y="0" x="0 3.0959959 6.1919918 9.2879877">2014</tspan></text>
</g>
    </g>
    <g id="g528">
      <g clip-path="url(#clipPath532)" id="g530"><text id="text536" style="font-variant:normal;font-weight:normal;font-size:6.26399994px;font-family:'Roboto Condensed';-inkscape-font-specification:RobotoCondensed-Regular;writing-mode:lr-tb;fill:#000000;fill-opacity:1;fill-rule:nonzero;stroke:none" transform="matrix(1,0,0,-1,342.31,331.08)"><tspan id="tspan538" y="0" x="0 3.0959959 6.1919918 9.2879877">2015</tspan></text>
</g>
    </g>
    <g id="g540">
      <g clip-path="url(#clipPath544)" id="g542"><text id="text548" style="font-variant:normal;font-weight:normal;font-size:6.26399994px;font-family:'Roboto Condensed';-inkscape-font-specification:RobotoCondensed-Regular;writing-mode:lr-tb;fill:#000000;fill-opacity:1;fill-rule:nonzero;stroke:none" transform="matrix(1,0,0,-1,360.89,331.08)"><tspan id="tspan550" y="0" x="0 3.0959959 6.1919918 9.2879877">2016</tspan></text>
</g>
    </g>
    <g id="g552">
      <g clip-path="url(#clipPath556)" id="g554"><text id="text560" style="font-variant:normal;font-weight:normal;font-size:6.26399994px;font-family:'Roboto Condensed';-inkscape-font-specification:RobotoCondensed-Regular;writing-mode:lr-tb;fill:#000000;fill-opacity:1;fill-rule:nonzero;stroke:none" transform="matrix(1,0,0,-1,379.46,331.08)"><tspan id="tspan562" y="0" x="0 3.0959959 6.1919918 9.2879877">2017</tspan></text>
</g>
    </g>
    <g id="g564">
      <g clip-path="url(#clipPath568)" id="g566"><text id="text572" style="font-variant:normal;font-weight:normal;font-size:6.26399994px;font-family:'Roboto Condensed';-inkscape-font-specification:RobotoCondensed-Regular;writing-mode:lr-tb;fill:#000000;fill-opacity:1;fill-rule:nonzero;stroke:none" transform="matrix(1,0,0,-1,398.04,331.08)"><tspan id="tspan574" y="0" x="0 3.0959959 6.1919918 9.2879877">2018</tspan></text>
</g>
    </g>
    <g id="g576">
      <g clip-path="url(#clipPath580)" id="g578"><text id="text584" style="font-variant:normal;font-weight:normal;font-size:6.26399994px;font-family:'Roboto Condensed';-inkscape-font-specification:RobotoCondensed-Regular;writing-mode:lr-tb;fill:#000000;fill-opacity:1;fill-rule:nonzero;stroke:none" transform="matrix(1,0,0,-1,416.62,331.08)"><tspan id="tspan586" y="0" x="0 3.0959959 6.1919918 9.2879877">2019</tspan></text>
</g>
    </g>
    <g id="g588">
      <g clip-path="url(#clipPath592)" id="g590"><text id="text596" style="font-variant:normal;font-weight:normal;font-size:6.26399994px;font-family:'Roboto Condensed';-inkscape-font-specification:RobotoCondensed-Regular;writing-mode:lr-tb;fill:#000000;fill-opacity:1;fill-rule:nonzero;stroke:none" transform="matrix(1,0,0,-1,435.22,331.08)"><tspan id="tspan598" y="0" x="0 3.0959959 6.1919918 9.2879877">2020</tspan></text>
</g>
    </g>
    <g id="g600">
      <g clip-path="url(#clipPath604)" id="g602"><text id="text608" style="font-variant:normal;font-weight:normal;font-size:6.26399994px;font-family:'Roboto Condensed';-inkscape-font-specification:RobotoCondensed-Regular;writing-mode:lr-tb;fill:#000000;fill-opacity:1;fill-rule:nonzero;stroke:none" transform="matrix(1,0,0,-1,453.79,331.08)"><tspan id="tspan610" y="0" x="0 3.0959959 6.1919918 9.2879877">2021</tspan></text>
</g>
    </g>
    <g id="g612">
      <g clip-path="url(#clipPath616)" id="g614"><text id="text620" style="font-variant:normal;font-weight:normal;font-size:6.26399994px;font-family:'Roboto Condensed';-inkscape-font-specification:RobotoCondensed-Regular;writing-mode:lr-tb;fill:#000000;fill-opacity:1;fill-rule:nonzero;stroke:none" transform="matrix(1,0,0,-1,472.37,331.08)"><tspan id="tspan622" y="0" x="0 3.0959959 6.1919918 9.2879877">2022</tspan></text>
</g>
    </g>
    <g id="g624">
      <g clip-path="url(#clipPath628)" id="g626"><text id="text632" style="font-variant:normal;font-weight:normal;font-size:6.26399994px;font-family:'Roboto Condensed';-inkscape-font-specification:RobotoCondensed-Regular;writing-mode:lr-tb;fill:#000000;fill-opacity:1;fill-rule:nonzero;stroke:none" transform="matrix(1,0,0,-1,490.94,331.08)"><tspan id="tspan634" y="0" x="0 3.0959959 6.1919918 9.2879877">2023</tspan></text>
</g>
    </g>
    <g id="g636">
      <g clip-path="url(#clipPath640)" id="g638"><text id="text644" style="font-variant:normal;font-weight:normal;font-size:6.26399994px;font-family:'Roboto Condensed';-inkscape-font-specification:RobotoCondensed-Regular;writing-mode:lr-tb;fill:#000000;fill-opacity:1;fill-rule:nonzero;stroke:none" transform="matrix(1,0,0,-1,509.52,331.08)"><tspan id="tspan646" y="0" x="0 3.0959959 6.1919918 9.2879877">2024</tspan></text>
</g>
    </g>
    <g id="g648">
      <g clip-path="url(#clipPath652)" id="g650"><text id="text656" style="font-variant:normal;font-weight:normal;font-size:6.26399994px;font-family:'Roboto Condensed';-inkscape-font-specification:RobotoCondensed-Regular;writing-mode:lr-tb;fill:#000000;fill-opacity:1;fill-rule:nonzero;stroke:none" transform="matrix(1,0,0,-1,528.1,331.08)"><tspan id="tspan658" y="0" x="0 3.0959959 6.1919918 9.2879877">2025</tspan></text>
</g>
    </g>
    <path id="path660" style="fill:#000000;fill-opacity:1;fill-rule:nonzero;stroke:none" d="M 70.859,395.79 527.54,473.3 c 0.11,0.02 0.18,0.12 0.16,0.23 -0.02,0.1 -0.12,0.17 -0.22,0.16 L 70.793,396.18 c -0.106,-0.02 -0.178,-0.12 -0.159,-0.23 0.018,-0.1 0.118,-0.17 0.225,-0.16 z m 456.271,75.26 4.23,3.1 -5.01,1.52 0.78,-4.62 z"/>
    <g id="g662">
      <g clip-path="url(#clipPath666)" id="g664">
        <path id="path670" style="fill:#000000;fill-opacity:1;fill-rule:nonzero;stroke:none" d="m 208.62,426.09 c 0.08,-0.59 0,-1.06 -0.23,-1.43 -0.24,-0.37 -0.63,-0.6 -1.17,-0.71 -0.55,-0.1 -1.02,0.02 -1.42,0.37 -0.4,0.36 -0.67,0.89 -0.81,1.6 l -0.19,0.98 c -0.13,0.71 -0.08,1.3 0.17,1.77 0.25,0.48 0.66,0.77 1.23,0.88 0.53,0.1 0.97,0.02 1.31,-0.24 0.35,-0.26 0.59,-0.68 0.73,-1.26 l -0.69,-0.13 c -0.11,0.44 -0.27,0.74 -0.46,0.9 -0.19,0.15 -0.45,0.2 -0.77,0.14 -0.37,-0.07 -0.63,-0.27 -0.77,-0.6 -0.15,-0.33 -0.16,-0.77 -0.06,-1.33 l 0.2,-1 c 0.1,-0.55 0.27,-0.95 0.52,-1.21 0.24,-0.26 0.54,-0.35 0.89,-0.28 0.36,0.07 0.6,0.2 0.72,0.41 0.12,0.21 0.16,0.54 0.11,1.01 l 0.69,0.13 z m 3.51,0.36 -1.83,-0.35 -0.15,-1.51 -0.7,-0.13 0.7,5.77 0.59,0.11 2.8,-5.09 -0.7,-0.14 -0.71,1.34 z m -1.77,0.27 1.48,0.28 -1.21,2.33 -0.27,-2.61 z m 7.2,0 -0.09,-0.17 c -0.27,-0.47 -0.73,-0.76 -1.39,-0.89 -0.59,-0.11 -1.09,-0.01 -1.5,0.32 -0.41,0.32 -0.68,0.84 -0.83,1.55 l -0.2,1.07 c -0.15,0.76 -0.11,1.36 0.12,1.79 0.24,0.44 0.66,0.72 1.26,0.84 0.52,0.1 0.95,0.03 1.3,-0.2 0.35,-0.23 0.59,-0.61 0.72,-1.14 l -0.68,-0.13 c -0.09,0.33 -0.24,0.58 -0.44,0.74 -0.19,0.16 -0.45,0.21 -0.78,0.14 -0.39,-0.07 -0.65,-0.26 -0.79,-0.55 -0.13,-0.29 -0.14,-0.71 -0.04,-1.27 l 0.21,-1.11 c 0.11,-0.55 0.29,-0.95 0.56,-1.2 0.26,-0.25 0.59,-0.34 0.98,-0.26 0.37,0.07 0.63,0.21 0.79,0.42 l 0.08,0.12 -0.24,1.24 -0.99,-0.19 -0.12,0.59 1.68,0.32 0.39,-2.03 z m 2.46,2.05 -0.95,-0.18 0.42,-2.2 -0.69,-0.13 -1.04,5.43 1.52,0.3 c 0.53,0.1 0.96,0.04 1.29,-0.19 0.33,-0.22 0.54,-0.6 0.64,-1.14 0.07,-0.33 0.05,-0.64 -0.05,-0.92 -0.1,-0.28 -0.27,-0.5 -0.52,-0.68 l 1.5,-2.11 0.01,-0.05 -0.74,-0.14 -1.39,2.01 z m -1.07,0.41 0.83,0.16 c 0.29,0.05 0.5,0.19 0.63,0.4 0.14,0.22 0.18,0.49 0.12,0.79 -0.14,0.7 -0.52,0.99 -1.15,0.87 l -0.82,-0.16 0.39,-2.06 z m 3.76,-1.79 c -0.02,0.12 0,0.22 0.05,0.32 0.06,0.09 0.16,0.15 0.3,0.18 0.14,0.03 0.26,0.01 0.34,-0.06 0.09,-0.06 0.15,-0.16 0.17,-0.28 0.02,-0.11 0.01,-0.21 -0.05,-0.3 -0.06,-0.1 -0.16,-0.15 -0.3,-0.18 -0.14,-0.03 -0.26,-0.01 -0.34,0.05 -0.09,0.07 -0.14,0.15 -0.17,0.27 z m -0.63,3.29 c -0.02,0.12 0,0.23 0.05,0.32 0.06,0.1 0.16,0.16 0.3,0.18 0.14,0.03 0.26,0.01 0.34,-0.05 0.09,-0.07 0.15,-0.16 0.17,-0.28 0.02,-0.11 0.01,-0.22 -0.05,-0.31 -0.06,-0.09 -0.16,-0.15 -0.3,-0.18 -0.15,-0.02 -0.26,-0.01 -0.35,0.06 -0.08,0.06 -0.13,0.15 -0.16,0.26 z m 5.44,0.28 1.23,0.24 0.13,-0.65 -1.23,-0.24 0.33,-1.72 -0.67,-0.13 -0.33,1.72 -1.23,-0.24 -0.13,0.66 1.24,0.23 -0.31,1.59 0.67,0.13 0.3,-1.59 z m 2.3,0.25 -0.29,2.75 2.36,0.46 0.12,-0.64 -1.8,-0.35 0.16,-1.51 c 0.19,0.2 0.42,0.33 0.67,0.38 0.43,0.08 0.79,-0.02 1.1,-0.3 0.3,-0.28 0.51,-0.7 0.61,-1.26 0.11,-0.56 0.07,-1.03 -0.14,-1.4 -0.2,-0.37 -0.53,-0.6 -0.98,-0.69 -0.41,-0.08 -0.77,-0.01 -1.08,0.21 -0.3,0.22 -0.52,0.56 -0.65,1.02 l 0.62,0.12 c 0.1,-0.3 0.23,-0.52 0.4,-0.65 0.17,-0.13 0.37,-0.18 0.6,-0.13 0.25,0.05 0.43,0.2 0.53,0.45 0.11,0.25 0.12,0.56 0.05,0.94 -0.07,0.35 -0.2,0.63 -0.4,0.82 -0.2,0.2 -0.43,0.27 -0.7,0.22 -0.22,-0.04 -0.38,-0.14 -0.49,-0.27 l -0.14,-0.21 -0.55,0.04 z m 3.14,2.33 c -0.06,0.32 -0.02,0.61 0.11,0.85 0.14,0.25 0.34,0.4 0.63,0.45 0.27,0.06 0.52,0 0.74,-0.18 0.22,-0.17 0.36,-0.43 0.43,-0.77 l 0.05,-0.27 c 0.06,-0.33 0.03,-0.61 -0.11,-0.86 -0.14,-0.24 -0.34,-0.39 -0.62,-0.44 -0.28,-0.05 -0.53,0.01 -0.75,0.18 -0.22,0.18 -0.36,0.43 -0.42,0.77 l -0.06,0.27 z m 0.54,-0.19 c 0.04,-0.2 0.11,-0.36 0.22,-0.46 0.12,-0.11 0.24,-0.15 0.38,-0.12 0.14,0.02 0.24,0.11 0.3,0.24 0.06,0.14 0.08,0.32 0.03,0.53 l -0.05,0.27 c -0.04,0.21 -0.11,0.36 -0.22,0.47 -0.11,0.1 -0.24,0.14 -0.38,0.12 -0.14,-0.03 -0.24,-0.11 -0.3,-0.26 -0.06,-0.14 -0.07,-0.31 -0.03,-0.52 l 0.05,-0.27 z m 2.25,-2.44 c -0.07,0.32 -0.03,0.61 0.11,0.85 0.13,0.24 0.34,0.39 0.62,0.45 0.28,0.05 0.53,-0.01 0.75,-0.18 0.22,-0.18 0.36,-0.44 0.42,-0.78 l 0.06,-0.27 c 0.06,-0.33 0.02,-0.61 -0.12,-0.86 -0.14,-0.24 -0.34,-0.39 -0.62,-0.44 -0.28,-0.06 -0.52,0.01 -0.74,0.18 -0.22,0.17 -0.37,0.43 -0.43,0.77 l -0.05,0.28 z m 0.53,-0.2 c 0.04,-0.2 0.12,-0.36 0.23,-0.46 0.11,-0.11 0.24,-0.15 0.38,-0.12 0.14,0.02 0.24,0.11 0.3,0.25 0.06,0.14 0.07,0.31 0.03,0.52 l -0.06,0.28 c -0.03,0.2 -0.11,0.36 -0.22,0.46 -0.11,0.11 -0.24,0.15 -0.37,0.12 -0.14,-0.03 -0.24,-0.11 -0.31,-0.25 -0.06,-0.13 -0.07,-0.31 -0.03,-0.52 l 0.05,-0.28 z m -1.46,-0.94 -0.41,0.18 1.41,4.67 0.41,-0.17 -1.41,-4.68 z"/>
      </g>
    </g>
  </g>
</svg>
