<?xml version="1.0" encoding="UTF-8" standalone="no"?>
<svg xmlns:dc="http://purl.org/dc/elements/1.1/" xmlns:cc="http://creativecommons.org/ns#" xmlns:rdf="http://www.w3.org/1999/02/22-rdf-syntax-ns#" xmlns:svg="http://www.w3.org/2000/svg" xmlns="http://www.w3.org/2000/svg" viewBox="63.0925 322.8 639 344.4" height="344.4" width="639" xml:space="preserve" version="1.1" id="svg2">
  <metadata id="metadata8">
    <rdf:RDF>
      <cc:Work rdf:about="">
        <dc:format>image/svg+xml</dc:format>
        <dc:type rdf:resource="http://purl.org/dc/dcmitype/StillImage"/>
      </cc:Work>
    </rdf:RDF>
  </metadata>
  <defs id="defs6">
    <clipPath id="clipPath16" clipPathUnits="userSpaceOnUse">
      <path style="clip-rule:evenodd" id="path18" d="m 50.4,258.24 511.2,0 0,275.52 -511.2,0 0,-275.52 z"/>
    </clipPath>
    <clipPath id="clipPath32" clipPathUnits="userSpaceOnUse">
      <path style="clip-rule:evenodd" id="path34" d="m 50.475,258.3 511.04,0 0,275.44 -511.04,0 0,-275.44 z"/>
    </clipPath>
    <clipPath id="clipPath42" clipPathUnits="userSpaceOnUse">
      <path style="clip-rule:evenodd" id="path44" d="m 50.52,258.24 511.08,0 0,275.4 -511.08,0 0,-275.4 z"/>
    </clipPath>
    <clipPath id="clipPath54" clipPathUnits="userSpaceOnUse">
      <path style="clip-rule:evenodd" id="path56" d="m 50.52,258.24 511.08,0 0,275.4 -511.08,0 0,-275.4 z"/>
    </clipPath>
    <clipPath id="clipPath66" clipPathUnits="userSpaceOnUse">
      <path style="clip-rule:evenodd" id="path68" d="m 50.52,258.24 511.08,0 0,275.4 -511.08,0 0,-275.4 z"/>
    </clipPath>
    <clipPath id="clipPath78" clipPathUnits="userSpaceOnUse">
      <path style="clip-rule:evenodd" id="path80" d="m 50.52,258.24 511.08,0 0,275.4 -511.08,0 0,-275.4 z"/>
    </clipPath>
    <clipPath id="clipPath90" clipPathUnits="userSpaceOnUse">
      <path style="clip-rule:evenodd" id="path92" d="m 50.52,258.24 511.08,0 0,275.4 -511.08,0 0,-275.4 z"/>
    </clipPath>
    <clipPath id="clipPath102" clipPathUnits="userSpaceOnUse">
      <path style="clip-rule:evenodd" id="path104" d="m 50.52,258.24 511.08,0 0,275.4 -511.08,0 0,-275.4 z"/>
    </clipPath>
    <clipPath id="clipPath114" clipPathUnits="userSpaceOnUse">
      <path style="clip-rule:evenodd" id="path116" d="m 50.52,258.24 511.08,0 0,275.4 -511.08,0 0,-275.4 z"/>
    </clipPath>
    <clipPath id="clipPath126" clipPathUnits="userSpaceOnUse">
      <path style="clip-rule:evenodd" id="path128" d="m 50.52,258.24 511.08,0 0,275.4 -511.08,0 0,-275.4 z"/>
    </clipPath>
    <clipPath id="clipPath138" clipPathUnits="userSpaceOnUse">
      <path style="clip-rule:evenodd" id="path140" d="m 50.52,258.24 511.08,0 0,275.4 -511.08,0 0,-275.4 z"/>
    </clipPath>
    <clipPath id="clipPath150" clipPathUnits="userSpaceOnUse">
      <path style="clip-rule:evenodd" id="path152" d="m 50.52,258.24 511.08,0 0,275.4 -511.08,0 0,-275.4 z"/>
    </clipPath>
    <clipPath id="clipPath162" clipPathUnits="userSpaceOnUse">
      <path style="clip-rule:evenodd" id="path164" d="m 50.52,258.24 511.08,0 0,275.4 -511.08,0 0,-275.4 z"/>
    </clipPath>
    <clipPath id="clipPath174" clipPathUnits="userSpaceOnUse">
      <path style="clip-rule:evenodd" id="path176" d="m 50.52,258.24 511.08,0 0,275.4 -511.08,0 0,-275.4 z"/>
    </clipPath>
    <clipPath id="clipPath186" clipPathUnits="userSpaceOnUse">
      <path style="clip-rule:evenodd" id="path188" d="m 50.52,258.24 511.08,0 0,275.4 -511.08,0 0,-275.4 z"/>
    </clipPath>
    <clipPath id="clipPath198" clipPathUnits="userSpaceOnUse">
      <path style="clip-rule:evenodd" id="path200" d="m 50.52,258.24 511.08,0 0,275.4 -511.08,0 0,-275.4 z"/>
    </clipPath>
    <clipPath id="clipPath214" clipPathUnits="userSpaceOnUse">
      <path style="clip-rule:evenodd" id="path216" d="m 50.52,258.24 511.08,0 0,275.4 -511.08,0 0,-275.4 z"/>
    </clipPath>
    <clipPath id="clipPath228" clipPathUnits="userSpaceOnUse">
      <path style="clip-rule:evenodd" id="path230" d="m 50.52,258.24 511.08,0 0,275.4 -511.08,0 0,-275.4 z"/>
    </clipPath>
  </defs>
  <g transform="matrix(1.25,0,0,-1.25,0,990)" id="g10">
    <g id="g12">
      <g clip-path="url(#clipPath16)" id="g14">
        <path id="path20" style="fill:none;stroke:#000000;stroke-width:0.14;stroke-linecap:butt;stroke-linejoin:miter;stroke-miterlimit:10;stroke-dasharray:none;stroke-opacity:0" d="m 50.544,258.25 511.04,0 0,275.44 -511.04,0 0,-275.44 z"/>
      </g>
    </g>
    <path id="path22" style="fill:#ffffff;fill-opacity:1;fill-rule:evenodd;stroke:none" d="m 50.544,258.25 511.04,0 0,275.44 -511.04,0 0,-275.44 z"/>
    <path id="path24" style="fill:#005aa4;fill-opacity:1;fill-rule:nonzero;stroke:none" d="m 111.51,334.83 26.88,0 0,-34.78 -26.88,0 0,34.78 z m 94.08,66.88 26.88,0 0,-101.66 -26.88,0 0,101.66 z m 94.08,30.84 26.72,0 0,-132.5 -26.72,0 0,132.5 z m 93.92,12.65 26.88,0 0,-145.15 -26.88,0 0,145.15 z m 94.09,26.88 26.88,0 0,-172.03 -26.88,0 0,172.03 z"/>
    <path id="path26" style="fill:#eadfbc;fill-opacity:1;fill-rule:nonzero;stroke:none" d="m 138.39,311.43 26.88,0 0,-11.38 -26.88,0 0,11.38 z m 94.08,27.67 26.88,0 0,-39.05 -26.88,0 0,39.05 z m 93.92,16.28 26.88,0 0,-55.33 -26.88,0 0,55.33 z m 94.08,0.16 26.88,0 0,-55.49 -26.88,0 0,55.49 z m 94.09,8.7 26.88,0 0,-64.19 -26.88,0 0,64.19 z"/>
    <g id="g28">
      <g clip-path="url(#clipPath32)" id="g30">
        <path id="path36" style="fill:none;stroke:#808080;stroke-width:1.64709997;stroke-linecap:round;stroke-linejoin:round;stroke-miterlimit:10;stroke-dasharray:none;stroke-opacity:1" d="m 91.345,300.05 470.245,0"/>
      </g>
    </g>
    <g id="g38">
      <g clip-path="url(#clipPath42)" id="g40"><text id="text46" style="font-variant:normal;font-weight:normal;font-size:11.88000011px;font-family:'Roboto Condensed';-inkscape-font-specification:RobotoCondensed-Regular;writing-mode:lr-tb;fill:#000000;fill-opacity:1;fill-rule:nonzero;stroke:none" transform="matrix(1,0,0,-1,67.128,296.47)"><tspan id="tspan48" y="0" x="0 5.85602">0%</tspan></text>
</g>
    </g>
    <g id="g50">
      <g clip-path="url(#clipPath54)" id="g52"><text id="text58" style="font-variant:normal;font-weight:normal;font-size:11.88000011px;font-family:'Roboto Condensed';-inkscape-font-specification:RobotoCondensed-Regular;writing-mode:lr-tb;fill:#000000;fill-opacity:1;fill-rule:nonzero;stroke:none" transform="matrix(1,0,0,-1,67.128,325.68)"><tspan id="tspan60" y="0" x="0 5.85602">5%</tspan></text>
</g>
    </g>
    <g id="g62">
      <g clip-path="url(#clipPath66)" id="g64"><text id="text70" style="font-variant:normal;font-weight:normal;font-size:11.85599995px;font-family:'Roboto Condensed';-inkscape-font-specification:RobotoCondensed-Regular;writing-mode:lr-tb;fill:#000000;fill-opacity:1;fill-rule:nonzero;stroke:none" transform="matrix(1,0,0,-1,61.272,354.86)"><tspan id="tspan72" y="0" x="0 5.8559999 11.712">10%</tspan></text>
</g>
    </g>
    <g id="g74">
      <g clip-path="url(#clipPath78)" id="g76"><text id="text82" style="font-variant:normal;font-weight:normal;font-size:11.85599995px;font-family:'Roboto Condensed';-inkscape-font-specification:RobotoCondensed-Regular;writing-mode:lr-tb;fill:#000000;fill-opacity:1;fill-rule:nonzero;stroke:none" transform="matrix(1,0,0,-1,61.272,384.07)"><tspan id="tspan84" y="0" x="0 5.8559999 11.712">15%</tspan></text>
</g>
    </g>
    <g id="g86">
      <g clip-path="url(#clipPath90)" id="g88"><text id="text94" style="font-variant:normal;font-weight:normal;font-size:11.85599995px;font-family:'Roboto Condensed';-inkscape-font-specification:RobotoCondensed-Regular;writing-mode:lr-tb;fill:#000000;fill-opacity:1;fill-rule:nonzero;stroke:none" transform="matrix(1,0,0,-1,61.272,413.28)"><tspan id="tspan96" y="0" x="0 5.8559999 11.712">20%</tspan></text>
</g>
    </g>
    <g id="g98">
      <g clip-path="url(#clipPath102)" id="g100"><text id="text106" style="font-variant:normal;font-weight:normal;font-size:11.85599995px;font-family:'Roboto Condensed';-inkscape-font-specification:RobotoCondensed-Regular;writing-mode:lr-tb;fill:#000000;fill-opacity:1;fill-rule:nonzero;stroke:none" transform="matrix(1,0,0,-1,61.272,442.49)"><tspan id="tspan108" y="0" x="0 5.8559999 11.712">25%</tspan></text>
</g>
    </g>
    <g id="g110">
      <g clip-path="url(#clipPath114)" id="g112"><text id="text118" style="font-variant:normal;font-weight:normal;font-size:11.88000011px;font-family:'Roboto Condensed';-inkscape-font-specification:RobotoCondensed-Regular;writing-mode:lr-tb;fill:#000000;fill-opacity:1;fill-rule:nonzero;stroke:none" transform="matrix(1,0,0,-1,61.272,471.7)"><tspan id="tspan120" y="0" x="0 5.85602 11.71204">30%</tspan></text>
</g>
    </g>
    <g id="g122">
      <g clip-path="url(#clipPath126)" id="g124"><text id="text130" style="font-variant:normal;font-weight:normal;font-size:11.85599995px;font-family:'Roboto Condensed';-inkscape-font-specification:RobotoCondensed-Regular;writing-mode:lr-tb;fill:#000000;fill-opacity:1;fill-rule:nonzero;stroke:none" transform="matrix(1,0,0,-1,61.272,500.88)"><tspan id="tspan132" y="0" x="0 5.8559999 11.712">35%</tspan></text>
</g>
    </g>
    <g id="g134">
      <g clip-path="url(#clipPath138)" id="g136"><text id="text142" style="font-variant:normal;font-weight:normal;font-size:11.85599995px;font-family:'Roboto Condensed';-inkscape-font-specification:RobotoCondensed-Regular;writing-mode:lr-tb;fill:#000000;fill-opacity:1;fill-rule:nonzero;stroke:none" transform="matrix(1,0,0,-1,126.67,281.23)"><tspan id="tspan144" y="0" x="0 5.8559999 11.712 17.568001">2023</tspan></text>
</g>
    </g>
    <g id="g146">
      <g clip-path="url(#clipPath150)" id="g148"><text id="text154" style="font-variant:normal;font-weight:normal;font-size:11.85599995px;font-family:'Roboto Condensed';-inkscape-font-specification:RobotoCondensed-Regular;writing-mode:lr-tb;fill:#000000;fill-opacity:1;fill-rule:nonzero;stroke:none" transform="matrix(1,0,0,-1,220.75,281.23)"><tspan id="tspan156" y="0" x="0 5.8559999 11.712 17.568001">2024</tspan></text>
</g>
    </g>
    <g id="g158">
      <g clip-path="url(#clipPath162)" id="g160"><text id="text166" style="font-variant:normal;font-weight:normal;font-size:11.85599995px;font-family:'Roboto Condensed';-inkscape-font-specification:RobotoCondensed-Regular;writing-mode:lr-tb;fill:#000000;fill-opacity:1;fill-rule:nonzero;stroke:none" transform="matrix(1,0,0,-1,314.81,281.23)"><tspan id="tspan168" y="0" x="0 5.8559999 11.712 17.568001">2025</tspan></text>
</g>
    </g>
    <g id="g170">
      <g clip-path="url(#clipPath174)" id="g172"><text id="text178" style="font-variant:normal;font-weight:normal;font-size:11.85599995px;font-family:'Roboto Condensed';-inkscape-font-specification:RobotoCondensed-Regular;writing-mode:lr-tb;fill:#000000;fill-opacity:1;fill-rule:nonzero;stroke:none" transform="matrix(1,0,0,-1,406.1,281.23)"><tspan id="tspan180" y="0" x="0 5.8559999 11.712 17.568001 23.424">2026e</tspan></text>
</g>
    </g>
    <g id="g182">
      <g clip-path="url(#clipPath186)" id="g184"><text id="text190" style="font-variant:normal;font-weight:normal;font-size:11.85599995px;font-family:'Roboto Condensed';-inkscape-font-specification:RobotoCondensed-Regular;writing-mode:lr-tb;fill:#000000;fill-opacity:1;fill-rule:nonzero;stroke:none" transform="matrix(1,0,0,-1,500.16,281.23)"><tspan id="tspan192" y="0" x="0 5.8559999 11.712 17.568001 23.424">2027e</tspan></text>
</g>
    </g>
    <g id="g194">
      <g clip-path="url(#clipPath198)" id="g196"><text id="text202" style="font-variant:normal;font-weight:bold;font-size:14.56799984px;font-family:'Roboto Condensed';-inkscape-font-specification:RobotoCondensed-Bold;writing-mode:lr-tb;fill:#000000;fill-opacity:1;fill-rule:nonzero;stroke:none" transform="matrix(1,0,0,-1,237.19,510.02)"><tspan id="tspan204" y="0" x="0 8.8573437 17.073696 28.145376 31.306631 40.528175 47.316864 52.095169 59.029537 63.938953 68.688118 75.972122 79.643257 84.057358 87.407997 91.07914 98.173752 102.64613 109.5805 116.74796 123.36182 127.03296 131.44707">HBM wafer/bit intensity</tspan></text>
</g>
    </g>
    <path id="path206" style="fill:#ffffff;fill-opacity:1;fill-rule:evenodd;stroke:none" d="m 159.14,474.54 293.84,0 0,21.994 -293.84,0 0,-21.994 z"/>
    <path id="path208" style="fill:#005aa4;fill-opacity:1;fill-rule:evenodd;stroke:none" d="m 179.66,482.34 6.4038,0 0,6.4038 -6.4038,0 0,-6.4038 z"/>
    <g id="g210">
      <g clip-path="url(#clipPath214)" id="g212"><text id="text218" style="font-variant:normal;font-weight:normal;font-size:11.85599995px;font-family:'Roboto Condensed';-inkscape-font-specification:RobotoCondensed-Regular;writing-mode:lr-tb;fill:#000000;fill-opacity:1;fill-rule:nonzero;stroke:none" transform="matrix(1,0,0,-1,188.81,481.97)"><tspan id="tspan220" y="0" x="0 7.4455681 10.291008 16.147873 19.929935 22.64496 25.300703 30.979729 36.528336 42.515617 45.23064 50.885952 56.730961 59.445984 64.994591 70.95816 76.803169 82.351776 85.066803 92.773201 98.34552 102.12759 107.67619 111.30413">% of leading edge wafers</tspan></text>
</g>
    </g>
    <path id="path222" style="fill:#eadfbc;fill-opacity:1;fill-rule:evenodd;stroke:none" d="m 325.54,482.34 6.4038,0 0,6.4038 -6.4038,0 0,-6.4038 z"/>
    <g id="g224">
      <g clip-path="url(#clipPath228)" id="g226"><text id="text232" style="font-variant:normal;font-weight:normal;font-size:11.85599995px;font-family:'Roboto Condensed';-inkscape-font-specification:RobotoCondensed-Regular;writing-mode:lr-tb;fill:#000000;fill-opacity:1;fill-rule:nonzero;stroke:none" transform="matrix(1,0,0,-1,334.7,481.97)"><tspan id="tspan234" y="0" x="0 7.4455681 10.291008 16.147873 19.929935 22.64496 25.300703 30.979729 36.528336 42.53933 45.254353 50.909664 56.754673 59.469696 65.018303 71.005585 76.850594 82.3992 85.114227 90.959229 93.638687 97.136208">% of leading edge bits</tspan></text>
</g>
    </g>
  </g>
</svg>
