<?xml version="1.0" encoding="UTF-8" standalone="no"?>
<svg xmlns:dc="http://purl.org/dc/elements/1.1/" xmlns:cc="http://creativecommons.org/ns#" xmlns:rdf="http://www.w3.org/1999/02/22-rdf-syntax-ns#" xmlns:svg="http://www.w3.org/2000/svg" xmlns="http://www.w3.org/2000/svg" viewBox="113.7 105.725 875.7 532.825" height="532.825" width="875.7" xml:space="preserve" version="1.1" id="svg2">
  <metadata id="metadata8">
    <rdf:RDF>
      <cc:Work rdf:about="">
        <dc:format>image/svg+xml</dc:format>
        <dc:type rdf:resource="http://purl.org/dc/dcmitype/StillImage"/>
      </cc:Work>
    </rdf:RDF>
  </metadata>
  <defs id="defs6">
    <clipPath id="clipPath16" clipPathUnits="userSpaceOnUse">
      <path style="clip-rule:evenodd" id="path18" d="m 90.96,84.48 700.56,0 0,426.36 -700.56,0 0,-426.36 z"/>
    </clipPath>
    <clipPath id="clipPath26" clipPathUnits="userSpaceOnUse">
      <path style="clip-rule:evenodd" id="path28" d="m 90.96,84.48 700.56,0 0,426.36 -700.56,0 0,-426.36 z"/>
    </clipPath>
    <clipPath id="clipPath42" clipPathUnits="userSpaceOnUse">
      <path style="clip-rule:evenodd" id="path44" d="m 91.08,84.6 700.32,0 0,426.12 -700.32,0 0,-426.12 z"/>
    </clipPath>
    <clipPath id="clipPath54" clipPathUnits="userSpaceOnUse">
      <path style="clip-rule:evenodd" id="path56" d="m 91.08,84.6 700.32,0 0,426.12 -700.32,0 0,-426.12 z"/>
    </clipPath>
    <clipPath id="clipPath66" clipPathUnits="userSpaceOnUse">
      <path style="clip-rule:evenodd" id="path68" d="m 91.08,84.6 700.32,0 0,426.12 -700.32,0 0,-426.12 z"/>
    </clipPath>
    <clipPath id="clipPath78" clipPathUnits="userSpaceOnUse">
      <path style="clip-rule:evenodd" id="path80" d="m 91.08,84.6 700.32,0 0,426.12 -700.32,0 0,-426.12 z"/>
    </clipPath>
    <clipPath id="clipPath90" clipPathUnits="userSpaceOnUse">
      <path style="clip-rule:evenodd" id="path92" d="m 91.08,84.6 700.32,0 0,426.12 -700.32,0 0,-426.12 z"/>
    </clipPath>
    <clipPath id="clipPath102" clipPathUnits="userSpaceOnUse">
      <path style="clip-rule:evenodd" id="path104" d="m 91.08,84.6 700.32,0 0,426.12 -700.32,0 0,-426.12 z"/>
    </clipPath>
    <clipPath id="clipPath114" clipPathUnits="userSpaceOnUse">
      <path style="clip-rule:evenodd" id="path116" d="m 91.08,84.6 700.32,0 0,426.12 -700.32,0 0,-426.12 z"/>
    </clipPath>
    <clipPath id="clipPath126" clipPathUnits="userSpaceOnUse">
      <path style="clip-rule:evenodd" id="path128" d="m 91.08,84.6 700.32,0 0,426.12 -700.32,0 0,-426.12 z"/>
    </clipPath>
    <clipPath id="clipPath138" clipPathUnits="userSpaceOnUse">
      <path style="clip-rule:evenodd" id="path140" d="m 91.08,84.6 700.32,0 0,426.12 -700.32,0 0,-426.12 z"/>
    </clipPath>
    <clipPath id="clipPath150" clipPathUnits="userSpaceOnUse">
      <path style="clip-rule:evenodd" id="path152" d="m 91.08,84.6 700.32,0 0,426.12 -700.32,0 0,-426.12 z"/>
    </clipPath>
    <clipPath id="clipPath162" clipPathUnits="userSpaceOnUse">
      <path style="clip-rule:evenodd" id="path164" d="m 91.08,84.6 700.32,0 0,426.12 -700.32,0 0,-426.12 z"/>
    </clipPath>
    <clipPath id="clipPath174" clipPathUnits="userSpaceOnUse">
      <path style="clip-rule:evenodd" id="path176" d="m 91.08,84.6 700.32,0 0,426.12 -700.32,0 0,-426.12 z"/>
    </clipPath>
    <clipPath id="clipPath186" clipPathUnits="userSpaceOnUse">
      <path style="clip-rule:evenodd" id="path188" d="m 91.08,84.6 700.32,0 0,426.12 -700.32,0 0,-426.12 z"/>
    </clipPath>
    <clipPath id="clipPath198" clipPathUnits="userSpaceOnUse">
      <path style="clip-rule:evenodd" id="path200" d="m 91.08,84.6 700.32,0 0,426.12 -700.32,0 0,-426.12 z"/>
    </clipPath>
    <clipPath id="clipPath210" clipPathUnits="userSpaceOnUse">
      <path style="clip-rule:evenodd" id="path212" d="m 91.08,84.6 700.32,0 0,426.12 -700.32,0 0,-426.12 z"/>
    </clipPath>
    <clipPath id="clipPath222" clipPathUnits="userSpaceOnUse">
      <path style="clip-rule:evenodd" id="path224" d="m 91.08,84.6 700.32,0 0,426.12 -700.32,0 0,-426.12 z"/>
    </clipPath>
    <clipPath id="clipPath234" clipPathUnits="userSpaceOnUse">
      <path style="clip-rule:evenodd" id="path236" d="m 91.08,84.6 700.32,0 0,426.12 -700.32,0 0,-426.12 z"/>
    </clipPath>
    <clipPath id="clipPath246" clipPathUnits="userSpaceOnUse">
      <path style="clip-rule:evenodd" id="path248" d="m 91.08,84.6 700.32,0 0,426.12 -700.32,0 0,-426.12 z"/>
    </clipPath>
    <clipPath id="clipPath258" clipPathUnits="userSpaceOnUse">
      <path style="clip-rule:evenodd" id="path260" d="m 91.08,84.6 700.32,0 0,426.12 -700.32,0 0,-426.12 z"/>
    </clipPath>
    <clipPath id="clipPath270" clipPathUnits="userSpaceOnUse">
      <path style="clip-rule:evenodd" id="path272" d="m 91.08,84.6 700.32,0 0,426.12 -700.32,0 0,-426.12 z"/>
    </clipPath>
    <clipPath id="clipPath282" clipPathUnits="userSpaceOnUse">
      <path style="clip-rule:evenodd" id="path284" d="m 91.08,84.6 700.32,0 0,426.12 -700.32,0 0,-426.12 z"/>
    </clipPath>
    <clipPath id="clipPath294" clipPathUnits="userSpaceOnUse">
      <path style="clip-rule:evenodd" id="path296" d="m 91.08,84.6 700.32,0 0,426.12 -700.32,0 0,-426.12 z"/>
    </clipPath>
    <clipPath id="clipPath306" clipPathUnits="userSpaceOnUse">
      <path style="clip-rule:evenodd" id="path308" d="m 91.08,84.6 700.32,0 0,426.12 -700.32,0 0,-426.12 z"/>
    </clipPath>
    <clipPath id="clipPath318" clipPathUnits="userSpaceOnUse">
      <path style="clip-rule:evenodd" id="path320" d="m 91.08,84.6 700.32,0 0,426.12 -700.32,0 0,-426.12 z"/>
    </clipPath>
    <clipPath id="clipPath330" clipPathUnits="userSpaceOnUse">
      <path style="clip-rule:evenodd" id="path332" d="m 91.08,84.6 700.32,0 0,426.12 -700.32,0 0,-426.12 z"/>
    </clipPath>
    <clipPath id="clipPath342" clipPathUnits="userSpaceOnUse">
      <path style="clip-rule:evenodd" id="path344" d="m 91.08,84.6 700.32,0 0,426.12 -700.32,0 0,-426.12 z"/>
    </clipPath>
    <clipPath id="clipPath354" clipPathUnits="userSpaceOnUse">
      <path style="clip-rule:evenodd" id="path356" d="m 91.08,84.6 700.32,0 0,426.12 -700.32,0 0,-426.12 z"/>
    </clipPath>
    <clipPath id="clipPath366" clipPathUnits="userSpaceOnUse">
      <path style="clip-rule:evenodd" id="path368" d="m 91.08,84.6 700.32,0 0,426.12 -700.32,0 0,-426.12 z"/>
    </clipPath>
    <clipPath id="clipPath378" clipPathUnits="userSpaceOnUse">
      <path style="clip-rule:evenodd" id="path380" d="m 91.08,84.6 700.32,0 0,426.12 -700.32,0 0,-426.12 z"/>
    </clipPath>
    <clipPath id="clipPath390" clipPathUnits="userSpaceOnUse">
      <path style="clip-rule:evenodd" id="path392" d="m 91.08,84.6 700.32,0 0,426.12 -700.32,0 0,-426.12 z"/>
    </clipPath>
    <clipPath id="clipPath402" clipPathUnits="userSpaceOnUse">
      <path style="clip-rule:evenodd" id="path404" d="m 91.08,84.6 700.32,0 0,426.12 -700.32,0 0,-426.12 z"/>
    </clipPath>
    <clipPath id="clipPath414" clipPathUnits="userSpaceOnUse">
      <path style="clip-rule:evenodd" id="path416" d="m 91.08,84.6 700.32,0 0,426.12 -700.32,0 0,-426.12 z"/>
    </clipPath>
    <clipPath id="clipPath426" clipPathUnits="userSpaceOnUse">
      <path style="clip-rule:evenodd" id="path428" d="m 91.08,84.6 700.32,0 0,426.12 -700.32,0 0,-426.12 z"/>
    </clipPath>
    <clipPath id="clipPath438" clipPathUnits="userSpaceOnUse">
      <path style="clip-rule:evenodd" id="path440" d="m 91.08,84.6 700.32,0 0,426.12 -700.32,0 0,-426.12 z"/>
    </clipPath>
    <clipPath id="clipPath450" clipPathUnits="userSpaceOnUse">
      <path style="clip-rule:evenodd" id="path452" d="m 91.08,84.6 700.32,0 0,426.12 -700.32,0 0,-426.12 z"/>
    </clipPath>
    <clipPath id="clipPath462" clipPathUnits="userSpaceOnUse">
      <path style="clip-rule:evenodd" id="path464" d="m 91.08,84.6 700.32,0 0,426.12 -700.32,0 0,-426.12 z"/>
    </clipPath>
    <clipPath id="clipPath474" clipPathUnits="userSpaceOnUse">
      <path style="clip-rule:evenodd" id="path476" d="m 91.08,84.6 700.32,0 0,426.12 -700.32,0 0,-426.12 z"/>
    </clipPath>
    <clipPath id="clipPath486" clipPathUnits="userSpaceOnUse">
      <path style="clip-rule:evenodd" id="path488" d="m 91.08,84.6 700.32,0 0,426.12 -700.32,0 0,-426.12 z"/>
    </clipPath>
    <clipPath id="clipPath498" clipPathUnits="userSpaceOnUse">
      <path style="clip-rule:evenodd" id="path500" d="m 91.08,84.6 700.32,0 0,426.12 -700.32,0 0,-426.12 z"/>
    </clipPath>
    <clipPath id="clipPath510" clipPathUnits="userSpaceOnUse">
      <path style="clip-rule:evenodd" id="path512" d="m 91.08,84.6 700.32,0 0,426.12 -700.32,0 0,-426.12 z"/>
    </clipPath>
    <clipPath id="clipPath522" clipPathUnits="userSpaceOnUse">
      <path style="clip-rule:evenodd" id="path524" d="m 91.08,84.6 700.32,0 0,426.12 -700.32,0 0,-426.12 z"/>
    </clipPath>
    <clipPath id="clipPath534" clipPathUnits="userSpaceOnUse">
      <path style="clip-rule:evenodd" id="path536" d="m 91.08,84.6 700.32,0 0,426.12 -700.32,0 0,-426.12 z"/>
    </clipPath>
    <clipPath id="clipPath546" clipPathUnits="userSpaceOnUse">
      <path style="clip-rule:evenodd" id="path548" d="m 91.08,84.6 700.32,0 0,426.12 -700.32,0 0,-426.12 z"/>
    </clipPath>
    <clipPath id="clipPath558" clipPathUnits="userSpaceOnUse">
      <path style="clip-rule:evenodd" id="path560" d="m 91.08,84.6 700.32,0 0,426.12 -700.32,0 0,-426.12 z"/>
    </clipPath>
    <clipPath id="clipPath570" clipPathUnits="userSpaceOnUse">
      <path style="clip-rule:evenodd" id="path572" d="m 91.08,84.6 700.32,0 0,426.12 -700.32,0 0,-426.12 z"/>
    </clipPath>
    <clipPath id="clipPath582" clipPathUnits="userSpaceOnUse">
      <path style="clip-rule:evenodd" id="path584" d="m 91.08,84.6 700.32,0 0,426.12 -700.32,0 0,-426.12 z"/>
    </clipPath>
    <clipPath id="clipPath594" clipPathUnits="userSpaceOnUse">
      <path style="clip-rule:evenodd" id="path596" d="m 91.08,84.6 700.32,0 0,426.12 -700.32,0 0,-426.12 z"/>
    </clipPath>
    <clipPath id="clipPath608" clipPathUnits="userSpaceOnUse">
      <path style="clip-rule:evenodd" id="path610" d="m 91.08,84.6 700.32,0 0,426.12 -700.32,0 0,-426.12 z"/>
    </clipPath>
    <clipPath id="clipPath622" clipPathUnits="userSpaceOnUse">
      <path style="clip-rule:evenodd" id="path624" d="m 91.08,84.6 700.32,0 0,426.12 -700.32,0 0,-426.12 z"/>
    </clipPath>
  </defs>
  <g transform="matrix(1.25,0,0,-1.25,0,744.15)" id="g10">
    <g id="g12">
      <g clip-path="url(#clipPath16)" id="g14">
        <path id="path20" style="fill:none;stroke:#000000;stroke-width:0.14;stroke-linecap:butt;stroke-linejoin:miter;stroke-miterlimit:10;stroke-dasharray:none;stroke-opacity:0" d="m 91.003,84.44 700.49,0 0,426.23 -700.49,0 0,-426.23 z"/>
      </g>
    </g>
    <g id="g22">
      <g clip-path="url(#clipPath26)" id="g24">
        <path id="path30" style="fill:#ffffff;fill-opacity:1;fill-rule:evenodd;stroke:none" d="m 91.003,84.44 700.49,0 0,426.23 -700.49,0 0,-426.23 z"/>
      </g>
    </g>
    <path id="path32" style="fill:#137cb1;fill-opacity:1;fill-rule:nonzero;stroke:none" d="m 169.74,364.05 48.25,0 0,-65.42 -48.25,0 0,65.42 z m 77.12,-4.04 48.25,0 0,-61.38 -48.25,0 0,61.38 z m 77.32,-125.78 48.26,0 0,64.4 -48.26,0 0,-64.4 z m 77.13,208.35 48.25,0 0,-143.95 -48.25,0 0,143.95 z m 77.32,-24.63 48.25,0 0,-119.32 -48.25,0 0,119.32 z m 77.12,-97.71 48.25,0 0,-21.61 -48.25,0 0,21.61 z m 77.33,-17.37 48.25,0 0,-4.24 -48.25,0 0,4.24 z m 77.12,-0.4 48.25,0 0,-3.84 -48.25,0 0,3.84 z"/>
    <path id="path34" style="fill:#eacc80;fill-opacity:1;fill-rule:nonzero;stroke:none" d="m 169.74,271.18 48.25,0 0,27.45 -48.25,0 0,-27.45 z m 77.12,114.06 48.25,0 0,-25.23 -48.25,0 0,25.23 z m 77.32,-43.81 48.26,0 0,-42.8 -48.26,0 0,42.8 z m 77.13,133.86 48.25,0 0,-32.71 -48.25,0 0,32.71 z m 77.32,-182.51 48.25,0 0,5.85 -48.25,0 0,-5.85 z m 77.12,135.47 48.25,0 0,-108.01 -48.25,0 0,108.01 z m 77.33,-50.27 48.25,0 0,-75.11 -48.25,0 0,75.11 z m 77.12,-36.34 48.25,0 0,-39.17 -48.25,0 0,39.17 z"/>
    <path id="path36" style="fill:none;stroke:#d9d9d9;stroke-width:1.26180005;stroke-linecap:butt;stroke-linejoin:round;stroke-miterlimit:10;stroke-dasharray:none;stroke-opacity:1" d="m 155.25,298.62 617.73,0"/>
    <g id="g38">
      <g clip-path="url(#clipPath42)" id="g40"><text id="text46" style="font-variant:normal;font-weight:normal;font-size:15.14400005px;font-family:Calibri;-inkscape-font-specification:Calibri;writing-mode:lr-tb;fill:#ffffff;fill-opacity:1;fill-rule:nonzero;stroke:none" transform="matrix(1,0,0,-1,171.29,326.21)"><tspan id="tspan48" y="0" x="0 7.465992 15.144 22.822008 26.638296 34.316303">+10.2%</tspan></text>
</g>
    </g>
    <g id="g50">
      <g clip-path="url(#clipPath54)" id="g52"><text id="text58" style="font-variant:normal;font-weight:normal;font-size:15.14400005px;font-family:Calibri;-inkscape-font-specification:Calibri;writing-mode:lr-tb;fill:#ffffff;fill-opacity:1;fill-rule:nonzero;stroke:none" transform="matrix(1,0,0,-1,252.34,324.12)"><tspan id="tspan60" y="0" x="0 7.4811358 15.159144 18.975431 26.65344">+9.5%</tspan></text>
</g>
    </g>
    <g id="g62">
      <g clip-path="url(#clipPath66)" id="g64"><text id="text70" style="font-variant:normal;font-weight:normal;font-size:15.14400005px;font-family:Calibri;-inkscape-font-specification:Calibri;writing-mode:lr-tb;fill:#ffffff;fill-opacity:1;fill-rule:nonzero;stroke:none" transform="matrix(1,0,0,-1,327.14,261.26)"><tspan id="tspan72" y="0" x="0">-</tspan></text>
</g>
    </g>
    <g id="g74">
      <g clip-path="url(#clipPath78)" id="g76"><text id="text82" style="font-variant:normal;font-weight:normal;font-size:15.14400005px;font-family:Calibri;-inkscape-font-specification:Calibri;writing-mode:lr-tb;fill:#ffffff;fill-opacity:1;fill-rule:nonzero;stroke:none" transform="matrix(1,0,0,-1,331.8,261.26)"><tspan id="tspan84" y="0" x="0 7.6780081 15.356016 19.172304 26.789736">10.0%</tspan></text>
</g>
    </g>
    <g id="g86">
      <g clip-path="url(#clipPath90)" id="g88"><text id="text94" style="font-variant:normal;font-weight:normal;font-size:15.14400005px;font-family:Calibri;-inkscape-font-specification:Calibri;writing-mode:lr-tb;fill:#ffffff;fill-opacity:1;fill-rule:nonzero;stroke:none" transform="matrix(1,0,0,-1,402.96,365.45)"><tspan id="tspan96" y="0" x="0 7.465992 15.144 22.822008 26.638296 34.316303">+22.3%</tspan></text>
</g>
    </g>
    <g id="g98">
      <g clip-path="url(#clipPath102)" id="g100"><text id="text106" style="font-variant:normal;font-weight:normal;font-size:15.14400005px;font-family:Calibri;-inkscape-font-specification:Calibri;writing-mode:lr-tb;fill:#ffffff;fill-opacity:1;fill-rule:nonzero;stroke:none" transform="matrix(1,0,0,-1,480.19,353.16)"><tspan id="tspan108" y="0" x="0 7.465992 15.144 22.822008 26.638296 34.316303">+18.5%</tspan></text>
</g>
    </g>
    <g id="g110">
      <g clip-path="url(#clipPath114)" id="g112"><text id="text118" style="font-variant:normal;font-weight:normal;font-size:15.14400005px;font-family:Calibri;-inkscape-font-specification:Calibri;writing-mode:lr-tb;fill:#ffffff;fill-opacity:1;fill-rule:nonzero;stroke:none" transform="matrix(1,0,0,-1,561.26,304.25)"><tspan id="tspan120" y="0" x="0 7.465992 15.144 18.960287 26.638296">+3.3%</tspan></text>
</g>
    </g>
    <g id="g122">
      <g clip-path="url(#clipPath126)" id="g124"><text id="text130" style="font-variant:normal;font-weight:normal;font-size:15.14400005px;font-family:Calibri;-inkscape-font-specification:Calibri;writing-mode:lr-tb;fill:#ffffff;fill-opacity:1;fill-rule:nonzero;stroke:none" transform="matrix(1,0,0,-1,638.47,295.56)"><tspan id="tspan132" y="0" x="0 7.4811358 15.159144 18.975431 26.65344">+0.7%</tspan></text>
</g>
    </g>
    <g id="g134">
      <g clip-path="url(#clipPath138)" id="g136"><text id="text142" style="font-variant:normal;font-weight:normal;font-size:15.14400005px;font-family:Calibri;-inkscape-font-specification:Calibri;writing-mode:lr-tb;fill:#ffffff;fill-opacity:1;fill-rule:nonzero;stroke:none" transform="matrix(1,0,0,-1,715.7,295.34)"><tspan id="tspan144" y="0" x="0 7.4811358 15.159144 18.975431 26.65344">+0.6%</tspan></text>
</g>
    </g>
    <g id="g146">
      <g clip-path="url(#clipPath150)" id="g148"><text id="text154" style="font-variant:normal;font-weight:normal;font-size:15.14400005px;font-family:Calibri;-inkscape-font-specification:Calibri;writing-mode:lr-tb;fill:#404040;fill-opacity:1;fill-rule:nonzero;stroke:none" transform="matrix(1,0,0,-1,176.52,279.77)"><tspan id="tspan156" y="0" x="0">-</tspan></text>
</g>
    </g>
    <g id="g158">
      <g clip-path="url(#clipPath162)" id="g160"><text id="text166" style="font-variant:normal;font-weight:normal;font-size:15.14400005px;font-family:Calibri;-inkscape-font-specification:Calibri;writing-mode:lr-tb;fill:#404040;fill-opacity:1;fill-rule:nonzero;stroke:none" transform="matrix(1,0,0,-1,181.18,279.77)"><tspan id="tspan168" y="0" x="0 7.6780081 11.494296 19.172304">4.3%</tspan></text>
</g>
    </g>
    <g id="g170">
      <g clip-path="url(#clipPath174)" id="g172"><text id="text178" style="font-variant:normal;font-weight:normal;font-size:15.14400005px;font-family:Calibri;-inkscape-font-specification:Calibri;writing-mode:lr-tb;fill:#404040;fill-opacity:1;fill-rule:nonzero;stroke:none" transform="matrix(1,0,0,-1,252.34,367.46)"><tspan id="tspan180" y="0" x="0 7.4811358 15.159144 18.975431 26.65344">+3.9%</tspan></text>
</g>
    </g>
    <g id="g182">
      <g clip-path="url(#clipPath186)" id="g184"><text id="text190" style="font-variant:normal;font-weight:normal;font-size:15.14400005px;font-family:Calibri;-inkscape-font-specification:Calibri;writing-mode:lr-tb;fill:#404040;fill-opacity:1;fill-rule:nonzero;stroke:none" transform="matrix(1,0,0,-1,329.57,314.9)"><tspan id="tspan192" y="0" x="0 7.465992 15.144 18.960287 26.638296">+6.6%</tspan></text>
</g>
    </g>
    <g id="g194">
      <g clip-path="url(#clipPath198)" id="g196"><text id="text202" style="font-variant:normal;font-weight:normal;font-size:15.14400005px;font-family:Calibri;-inkscape-font-specification:Calibri;writing-mode:lr-tb;fill:#404040;fill-opacity:1;fill-rule:nonzero;stroke:none" transform="matrix(1,0,0,-1,406.8,453.77)"><tspan id="tspan204" y="0" x="0 7.465992 15.144 18.960287 26.638296">+5.1%</tspan></text>
</g>
    </g>
    <g id="g206">
      <g clip-path="url(#clipPath210)" id="g208"><text id="text214" style="font-variant:normal;font-weight:normal;font-size:15.14400005px;font-family:Calibri;-inkscape-font-specification:Calibri;writing-mode:lr-tb;fill:#404040;fill-opacity:1;fill-rule:nonzero;stroke:none" transform="matrix(1,0,0,-1,485.45,290.5)"><tspan id="tspan216" y="0" x="0">-</tspan></text>
</g>
    </g>
    <g id="g218">
      <g clip-path="url(#clipPath222)" id="g220"><text id="text226" style="font-variant:normal;font-weight:normal;font-size:15.14400005px;font-family:Calibri;-inkscape-font-specification:Calibri;writing-mode:lr-tb;fill:#404040;fill-opacity:1;fill-rule:nonzero;stroke:none" transform="matrix(1,0,0,-1,490.08,290.5)"><tspan id="tspan228" y="0" x="0 7.6780081 11.494296 19.172304">0.9%</tspan></text>
</g>
    </g>
    <g id="g230">
      <g clip-path="url(#clipPath234)" id="g232"><text id="text238" style="font-variant:normal;font-weight:normal;font-size:15.14400005px;font-family:Calibri;-inkscape-font-specification:Calibri;writing-mode:lr-tb;fill:#404040;fill-opacity:1;fill-rule:nonzero;stroke:none" transform="matrix(1,0,0,-1,557.42,369.05)"><tspan id="tspan240" y="0" x="0 7.465992 15.144 22.822008 26.638296 34.316303">+16.8%</tspan></text>
</g>
    </g>
    <g id="g242">
      <g clip-path="url(#clipPath246)" id="g244"><text id="text250" style="font-variant:normal;font-weight:normal;font-size:15.14400005px;font-family:Calibri;-inkscape-font-specification:Calibri;writing-mode:lr-tb;fill:#404040;fill-opacity:1;fill-rule:nonzero;stroke:none" transform="matrix(1,0,0,-1,634.66,335.23)"><tspan id="tspan252" y="0" x="0 7.465992 15.144 22.822008 26.638296 34.25573">+11.7%</tspan></text>
</g>
    </g>
    <g id="g254">
      <g clip-path="url(#clipPath258)" id="g256"><text id="text262" style="font-variant:normal;font-weight:normal;font-size:15.14400005px;font-family:Calibri;-inkscape-font-specification:Calibri;writing-mode:lr-tb;fill:#404040;fill-opacity:1;fill-rule:nonzero;stroke:none" transform="matrix(1,0,0,-1,715.7,316.9)"><tspan id="tspan264" y="0" x="0 7.4811358 15.159144 18.975431 26.65344">+6.1%</tspan></text>
</g>
    </g>
    <g id="g266">
      <g clip-path="url(#clipPath270)" id="g268"><text id="text274" style="font-variant:normal;font-weight:bold;font-size:17.7840004px;font-family:Calibri;-inkscape-font-specification:Calibri-Bold;writing-mode:lr-tb;fill:#404040;fill-opacity:1;fill-rule:nonzero;stroke:none" transform="matrix(1,0,0,-1,171.48,376.44)"><tspan id="tspan276" y="0" x="0 8.856432 17.96184 22.799088 31.868929">+5.9%</tspan></text>
</g>
    </g>
    <g id="g278">
      <g clip-path="url(#clipPath282)" id="g280"><text id="text286" style="font-variant:normal;font-weight:bold;font-size:17.7840004px;font-family:Calibri;-inkscape-font-specification:Calibri-Bold;writing-mode:lr-tb;fill:#404040;fill-opacity:1;fill-rule:nonzero;stroke:none" transform="matrix(1,0,0,-1,244.06,397.61)"><tspan id="tspan288" y="0" x="0 8.856432 17.96184 27.031679 31.868929 40.938766">+13.4%</tspan></text>
</g>
    </g>
    <g id="g290">
      <g clip-path="url(#clipPath294)" id="g292"><text id="text298" style="font-variant:normal;font-weight:bold;font-size:17.7840004px;font-family:Calibri;-inkscape-font-specification:Calibri-Bold;writing-mode:lr-tb;fill:#404040;fill-opacity:1;fill-rule:nonzero;stroke:none" transform="matrix(1,0,0,-1,327.55,209.83)"><tspan id="tspan300" y="0" x="0">-</tspan></text>
</g>
    </g>
    <g id="g302">
      <g clip-path="url(#clipPath306)" id="g304"><text id="text310" style="font-variant:normal;font-weight:bold;font-size:17.7840004px;font-family:Calibri;-inkscape-font-specification:Calibri-Bold;writing-mode:lr-tb;fill:#404040;fill-opacity:1;fill-rule:nonzero;stroke:none" transform="matrix(1,0,0,-1,333,209.83)"><tspan id="tspan312" y="0" x="0 9.0698404 13.907088 22.976929">3.3%</tspan></text>
</g>
    </g>
    <g id="g314">
      <g clip-path="url(#clipPath318)" id="g316"><text id="text322" style="font-variant:normal;font-weight:bold;font-size:17.76000023px;font-family:Calibri;-inkscape-font-specification:Calibri-Bold;writing-mode:lr-tb;fill:#404040;fill-opacity:1;fill-rule:nonzero;stroke:none" transform="matrix(1,0,0,-1,398.52,487.58)"><tspan id="tspan324" y="0" x="0 8.8444796 17.937599 26.995199 31.82592 40.883518">+27.4%</tspan></text>
</g>
    </g>
    <g id="g326">
      <g clip-path="url(#clipPath330)" id="g328"><text id="text334" style="font-variant:normal;font-weight:bold;font-size:17.76000023px;font-family:Calibri;-inkscape-font-specification:Calibri-Bold;writing-mode:lr-tb;fill:#404040;fill-opacity:1;fill-rule:nonzero;stroke:none" transform="matrix(1,0,0,-1,475.75,430.34)"><tspan id="tspan336" y="0" x="0 8.8444796 17.937599 26.995199 31.82592 40.883518">+17.6%</tspan></text>
</g>
    </g>
    <g id="g338">
      <g clip-path="url(#clipPath342)" id="g340"><text id="text346" style="font-variant:normal;font-weight:bold;font-size:17.76000023px;font-family:Calibri;-inkscape-font-specification:Calibri-Bold;writing-mode:lr-tb;fill:#404040;fill-opacity:1;fill-rule:nonzero;stroke:none" transform="matrix(1,0,0,-1,552.96,440.57)"><tspan id="tspan348" y="0" x="0 8.8800001 17.95536 27.03072 31.861441 40.936798">+20.1%</tspan></text>
</g>
    </g>
    <g id="g350">
      <g clip-path="url(#clipPath354)" id="g352"><text id="text358" style="font-variant:normal;font-weight:bold;font-size:17.76000023px;font-family:Calibri;-inkscape-font-specification:Calibri-Bold;writing-mode:lr-tb;fill:#404040;fill-opacity:1;fill-rule:nonzero;stroke:none" transform="matrix(1,0,0,-1,630.19,390.26)"><tspan id="tspan360" y="0" x="0 8.8444796 17.95536 27.03072 31.861441 40.936798">+12.3%</tspan></text>
</g>
    </g>
    <g id="g362">
      <g clip-path="url(#clipPath366)" id="g364"><text id="text370" style="font-variant:normal;font-weight:bold;font-size:17.76000023px;font-family:Calibri;-inkscape-font-specification:Calibri-Bold;writing-mode:lr-tb;fill:#404040;fill-opacity:1;fill-rule:nonzero;stroke:none" transform="matrix(1,0,0,-1,712.08,354.02)"><tspan id="tspan372" y="0" x="0 8.8444796 17.937599 22.76832 31.82592">+6.7%</tspan></text>
</g>
    </g>
    <g id="g374">
      <g clip-path="url(#clipPath378)" id="g376"><text id="text382" style="font-variant:normal;font-weight:bold;font-size:16.75200081px;font-family:Calibri;-inkscape-font-specification:Calibri-Bold;writing-mode:lr-tb;fill:#595959;fill-opacity:1;fill-rule:nonzero;stroke:none" transform="matrix(1,0,0,-1,105.19,164.86)"><tspan id="tspan384" y="0" x="0 5.2098718 13.703136 22.1964">-20%</tspan></text>
</g>
    </g>
    <g id="g386">
      <g clip-path="url(#clipPath390)" id="g388"><text id="text394" style="font-variant:normal;font-weight:bold;font-size:16.75200081px;font-family:Calibri;-inkscape-font-specification:Calibri-Bold;writing-mode:lr-tb;fill:#595959;fill-opacity:1;fill-rule:nonzero;stroke:none" transform="matrix(1,0,0,-1,105.19,197.09)"><tspan id="tspan396" y="0" x="0 5.2098718 13.703136 22.1964">-15%</tspan></text>
</g>
    </g>
    <g id="g398">
      <g clip-path="url(#clipPath402)" id="g400"><text id="text406" style="font-variant:normal;font-weight:bold;font-size:16.77599907px;font-family:Calibri;-inkscape-font-specification:Calibri-Bold;writing-mode:lr-tb;fill:#595959;fill-opacity:1;fill-rule:nonzero;stroke:none" transform="matrix(1,0,0,-1,105.19,229.34)"><tspan id="tspan408" y="0" x="0 5.2173362 13.722768 22.161097">-10%</tspan></text>
</g>
    </g>
    <g id="g410">
      <g clip-path="url(#clipPath414)" id="g412"><text id="text418" style="font-variant:normal;font-weight:bold;font-size:16.77599907px;font-family:Calibri;-inkscape-font-specification:Calibri-Bold;writing-mode:lr-tb;fill:#595959;fill-opacity:1;fill-rule:nonzero;stroke:none" transform="matrix(1,0,0,-1,113.71,261.58)"><tspan id="tspan420" y="0" x="0 5.2341118 13.739544">-5%</tspan></text>
</g>
    </g>
    <g id="g422">
      <g clip-path="url(#clipPath426)" id="g424"><text id="text430" style="font-variant:normal;font-weight:bold;font-size:16.75200081px;font-family:Calibri;-inkscape-font-specification:Calibri-Bold;writing-mode:lr-tb;fill:#595959;fill-opacity:1;fill-rule:nonzero;stroke:none" transform="matrix(1,0,0,-1,110.47,293.81)"><tspan id="tspan432" y="0" x="0 8.476512 16.969776">+0%</tspan></text>
</g>
    </g>
    <g id="g434">
      <g clip-path="url(#clipPath438)" id="g436"><text id="text442" style="font-variant:normal;font-weight:bold;font-size:16.75200081px;font-family:Calibri;-inkscape-font-specification:Calibri-Bold;writing-mode:lr-tb;fill:#595959;fill-opacity:1;fill-rule:nonzero;stroke:none" transform="matrix(1,0,0,-1,110.47,326.04)"><tspan id="tspan444" y="0" x="0 8.476512 16.969776">+5%</tspan></text>
</g>
    </g>
    <g id="g446">
      <g clip-path="url(#clipPath450)" id="g448"><text id="text454" style="font-variant:normal;font-weight:bold;font-size:16.75200081px;font-family:Calibri;-inkscape-font-specification:Calibri-Bold;writing-mode:lr-tb;fill:#595959;fill-opacity:1;fill-rule:nonzero;stroke:none" transform="matrix(1,0,0,-1,101.95,358.27)"><tspan id="tspan456" y="0" x="0 8.4597597 16.953024 25.446287">+10%</tspan></text>
</g>
    </g>
    <g id="g458">
      <g clip-path="url(#clipPath462)" id="g460"><text id="text466" style="font-variant:normal;font-weight:bold;font-size:16.75200081px;font-family:Calibri;-inkscape-font-specification:Calibri-Bold;writing-mode:lr-tb;fill:#595959;fill-opacity:1;fill-rule:nonzero;stroke:none" transform="matrix(1,0,0,-1,101.95,390.5)"><tspan id="tspan468" y="0" x="0 8.4597597 16.953024 25.446287">+15%</tspan></text>
</g>
    </g>
    <g id="g470">
      <g clip-path="url(#clipPath474)" id="g472"><text id="text478" style="font-variant:normal;font-weight:bold;font-size:16.75200081px;font-family:Calibri;-inkscape-font-specification:Calibri-Bold;writing-mode:lr-tb;fill:#595959;fill-opacity:1;fill-rule:nonzero;stroke:none" transform="matrix(1,0,0,-1,101.95,422.74)"><tspan id="tspan480" y="0" x="0 8.4597597 16.953024 25.446287">+20%</tspan></text>
</g>
    </g>
    <g id="g482">
      <g clip-path="url(#clipPath486)" id="g484"><text id="text490" style="font-variant:normal;font-weight:bold;font-size:16.75200081px;font-family:Calibri;-inkscape-font-specification:Calibri-Bold;writing-mode:lr-tb;fill:#595959;fill-opacity:1;fill-rule:nonzero;stroke:none" transform="matrix(1,0,0,-1,101.95,454.97)"><tspan id="tspan492" y="0" x="0 8.4597597 16.953024 25.446287">+25%</tspan></text>
</g>
    </g>
    <g id="g494">
      <g clip-path="url(#clipPath498)" id="g496"><text id="text502" style="font-variant:normal;font-weight:bold;font-size:16.77599907px;font-family:Calibri;-inkscape-font-specification:Calibri-Bold;writing-mode:lr-tb;fill:#595959;fill-opacity:1;fill-rule:nonzero;stroke:none" transform="matrix(1,0,0,-1,101.95,487.22)"><tspan id="tspan504" y="0" x="0 8.4551039 16.960535 25.398865">+30%</tspan></text>
</g>
    </g>
    <g id="g506">
      <g clip-path="url(#clipPath510)" id="g508"><text id="text514" style="font-variant:normal;font-weight:bold;font-size:17.7840004px;font-family:Calibri;-inkscape-font-specification:Calibri-Bold;writing-mode:lr-tb;fill:#595959;fill-opacity:1;fill-rule:nonzero;stroke:none" transform="matrix(1,0,0,-1,175.97,141.65)"><tspan id="tspan516" y="0" x="0 8.9097843 17.979624 26.889408">2018</tspan></text>
</g>
    </g>
    <g id="g518">
      <g clip-path="url(#clipPath522)" id="g520"><text id="text526" style="font-variant:normal;font-weight:bold;font-size:17.7840004px;font-family:Calibri;-inkscape-font-specification:Calibri-Bold;writing-mode:lr-tb;fill:#595959;fill-opacity:1;fill-rule:nonzero;stroke:none" transform="matrix(1,0,0,-1,253.2,141.65)"><tspan id="tspan528" y="0" x="0 8.8742161 17.944056 26.818272">2019</tspan></text>
</g>
    </g>
    <g id="g530">
      <g clip-path="url(#clipPath534)" id="g532"><text id="text538" style="font-variant:normal;font-weight:bold;font-size:17.7840004px;font-family:Calibri;-inkscape-font-specification:Calibri-Bold;writing-mode:lr-tb;fill:#595959;fill-opacity:1;fill-rule:nonzero;stroke:none" transform="matrix(1,0,0,-1,330.43,141.65)"><tspan id="tspan540" y="0" x="0 8.8742161 17.944056 26.818272">2020</tspan></text>
</g>
    </g>
    <g id="g542">
      <g clip-path="url(#clipPath546)" id="g544"><text id="text550" style="font-variant:normal;font-weight:bold;font-size:17.7840004px;font-family:Calibri;-inkscape-font-specification:Calibri-Bold;writing-mode:lr-tb;fill:#595959;fill-opacity:1;fill-rule:nonzero;stroke:none" transform="matrix(1,0,0,-1,407.66,141.65)"><tspan id="tspan552" y="0" x="0 8.8742161 17.944056 26.818272">2021</tspan></text>
</g>
    </g>
    <g id="g554">
      <g clip-path="url(#clipPath558)" id="g556"><text id="text562" style="font-variant:normal;font-weight:bold;font-size:17.7840004px;font-family:Calibri;-inkscape-font-specification:Calibri-Bold;writing-mode:lr-tb;fill:#595959;fill-opacity:1;fill-rule:nonzero;stroke:none" transform="matrix(1,0,0,-1,484.9,141.65)"><tspan id="tspan564" y="0" x="0 8.8742161 17.926271 26.800488">2022</tspan></text>
</g>
    </g>
    <g id="g566">
      <g clip-path="url(#clipPath570)" id="g568"><text id="text574" style="font-variant:normal;font-weight:bold;font-size:17.7840004px;font-family:Calibri;-inkscape-font-specification:Calibri-Bold;writing-mode:lr-tb;fill:#595959;fill-opacity:1;fill-rule:nonzero;stroke:none" transform="matrix(1,0,0,-1,562.13,141.65)"><tspan id="tspan576" y="0" x="0 8.8742161 17.926271 26.800488">2023</tspan></text>
</g>
    </g>
    <g id="g578">
      <g clip-path="url(#clipPath582)" id="g580"><text id="text586" style="font-variant:normal;font-weight:bold;font-size:17.7840004px;font-family:Calibri;-inkscape-font-specification:Calibri-Bold;writing-mode:lr-tb;fill:#595959;fill-opacity:1;fill-rule:nonzero;stroke:none" transform="matrix(1,0,0,-1,639.34,141.65)"><tspan id="tspan588" y="0" x="0 8.9097843 17.979624 26.889408">2024</tspan></text>
</g>
    </g>
    <g id="g590">
      <g clip-path="url(#clipPath594)" id="g592"><text id="text598" style="font-variant:normal;font-weight:bold;font-size:17.7840004px;font-family:Calibri;-inkscape-font-specification:Calibri-Bold;writing-mode:lr-tb;fill:#595959;fill-opacity:1;fill-rule:nonzero;stroke:none" transform="matrix(1,0,0,-1,702.38,141.65)"><tspan id="tspan600" y="0" x="0 8.8742161 24.417433 28.436617 37.346401 46.220615 55.272671">9M 2025</tspan></text>
</g>
    </g>
    <path id="path602" style="fill:#137cb1;fill-opacity:1;fill-rule:evenodd;stroke:none" d="m 324.6,108.08 9.7058,0 0,9.7058 -9.7058,0 0,-9.7058 z"/>
    <g id="g604">
      <g clip-path="url(#clipPath608)" id="g606"><text id="text612" style="font-variant:normal;font-weight:normal;font-size:17.76000023px;font-family:Calibri;-inkscape-font-specification:Calibri;writing-mode:lr-tb;fill:#595959;fill-opacity:1;fill-rule:nonzero;stroke:none" transform="matrix(1,0,0,-1,338.57,107.83)"><tspan id="tspan614" y="0" x="0 10.06992 19.42944 23.443199 32.7672 46.868641">Volume</tspan></text>
</g>
    </g>
    <path id="path616" style="fill:#eacc80;fill-opacity:1;fill-rule:evenodd;stroke:none" d="m 487.58,108.08 9.7058,0 0,9.7058 -9.7058,0 0,-9.7058 z"/>
    <g id="g618">
      <g clip-path="url(#clipPath622)" id="g620"><text id="text626" style="font-variant:normal;font-weight:normal;font-size:17.76000023px;font-family:Calibri;-inkscape-font-specification:Calibri;writing-mode:lr-tb;fill:#595959;fill-opacity:1;fill-rule:nonzero;stroke:none" transform="matrix(1,0,0,-1,501.58,107.83)"><tspan id="tspan628" y="0" x="0 9.0931196 15.34464 19.42944 26.83536 35.52 39.53376 46.389118 50.402882 65.587677 69.672478">Price / Mix</tspan></text>
</g>
    </g>
  </g>
</svg>
