<?xml version="1.0" encoding="UTF-8" standalone="no"?>
<svg xmlns:dc="http://purl.org/dc/elements/1.1/" xmlns:cc="http://creativecommons.org/ns#" xmlns:rdf="http://www.w3.org/1999/02/22-rdf-syntax-ns#" xmlns:svg="http://www.w3.org/2000/svg" xmlns="http://www.w3.org/2000/svg" viewBox="63.165 335.4875 618 432.3625" height="432.3625" width="618" xml:space="preserve" version="1.1" id="svg2">
  <metadata id="metadata8">
    <rdf:RDF>
      <cc:Work rdf:about="">
        <dc:format>image/svg+xml</dc:format>
        <dc:type rdf:resource="http://purl.org/dc/dcmitype/StillImage"/>
      </cc:Work>
    </rdf:RDF>
  </metadata>
  <defs id="defs6">
    <clipPath id="clipPath16" clipPathUnits="userSpaceOnUse">
      <path style="clip-rule:evenodd" id="path18" d="m 50.4,227.64 494.52,0 0,345.96 -494.52,0 0,-345.96 z"/>
    </clipPath>
    <clipPath id="clipPath26" clipPathUnits="userSpaceOnUse">
      <path style="clip-rule:evenodd" id="path28" d="m 50.4,227.64 494.52,0 0,345.96 -494.52,0 0,-345.96 z"/>
    </clipPath>
    <clipPath id="clipPath42" clipPathUnits="userSpaceOnUse">
      <path style="clip-rule:evenodd" id="path44" d="m 50.52,227.76 494.4,0 0,345.72 -494.4,0 0,-345.72 z"/>
    </clipPath>
    <clipPath id="clipPath54" clipPathUnits="userSpaceOnUse">
      <path style="clip-rule:evenodd" id="path56" d="m 50.52,227.76 494.4,0 0,345.72 -494.4,0 0,-345.72 z"/>
    </clipPath>
    <clipPath id="clipPath66" clipPathUnits="userSpaceOnUse">
      <path style="clip-rule:evenodd" id="path68" d="m 50.52,227.76 494.4,0 0,345.72 -494.4,0 0,-345.72 z"/>
    </clipPath>
    <clipPath id="clipPath78" clipPathUnits="userSpaceOnUse">
      <path style="clip-rule:evenodd" id="path80" d="m 50.52,227.76 494.4,0 0,345.72 -494.4,0 0,-345.72 z"/>
    </clipPath>
    <clipPath id="clipPath90" clipPathUnits="userSpaceOnUse">
      <path style="clip-rule:evenodd" id="path92" d="m 50.52,227.76 494.4,0 0,345.72 -494.4,0 0,-345.72 z"/>
    </clipPath>
    <clipPath id="clipPath102" clipPathUnits="userSpaceOnUse">
      <path style="clip-rule:evenodd" id="path104" d="m 50.52,227.76 494.4,0 0,345.72 -494.4,0 0,-345.72 z"/>
    </clipPath>
    <clipPath id="clipPath114" clipPathUnits="userSpaceOnUse">
      <path style="clip-rule:evenodd" id="path116" d="m 50.52,227.76 494.4,0 0,345.72 -494.4,0 0,-345.72 z"/>
    </clipPath>
    <clipPath id="clipPath126" clipPathUnits="userSpaceOnUse">
      <path style="clip-rule:evenodd" id="path128" d="m 50.52,227.76 494.4,0 0,345.72 -494.4,0 0,-345.72 z"/>
    </clipPath>
    <clipPath id="clipPath138" clipPathUnits="userSpaceOnUse">
      <path style="clip-rule:evenodd" id="path140" d="m 50.52,227.76 494.4,0 0,345.72 -494.4,0 0,-345.72 z"/>
    </clipPath>
    <clipPath id="clipPath150" clipPathUnits="userSpaceOnUse">
      <path style="clip-rule:evenodd" id="path152" d="m 50.52,227.76 494.4,0 0,345.72 -494.4,0 0,-345.72 z"/>
    </clipPath>
    <clipPath id="clipPath162" clipPathUnits="userSpaceOnUse">
      <path style="clip-rule:evenodd" id="path164" d="m 50.52,227.76 494.4,0 0,345.72 -494.4,0 0,-345.72 z"/>
    </clipPath>
    <clipPath id="clipPath174" clipPathUnits="userSpaceOnUse">
      <path style="clip-rule:evenodd" id="path176" d="m 50.52,227.76 494.4,0 0,345.72 -494.4,0 0,-345.72 z"/>
    </clipPath>
    <clipPath id="clipPath186" clipPathUnits="userSpaceOnUse">
      <path style="clip-rule:evenodd" id="path188" d="m 50.52,227.76 494.4,0 0,345.72 -494.4,0 0,-345.72 z"/>
    </clipPath>
    <clipPath id="clipPath198" clipPathUnits="userSpaceOnUse">
      <path style="clip-rule:evenodd" id="path200" d="m 50.52,227.76 494.4,0 0,345.72 -494.4,0 0,-345.72 z"/>
    </clipPath>
    <clipPath id="clipPath210" clipPathUnits="userSpaceOnUse">
      <path style="clip-rule:evenodd" id="path212" d="m 50.52,227.76 494.4,0 0,345.72 -494.4,0 0,-345.72 z"/>
    </clipPath>
    <clipPath id="clipPath222" clipPathUnits="userSpaceOnUse">
      <path style="clip-rule:evenodd" id="path224" d="m 50.52,227.76 494.4,0 0,345.72 -494.4,0 0,-345.72 z"/>
    </clipPath>
    <clipPath id="clipPath234" clipPathUnits="userSpaceOnUse">
      <path style="clip-rule:evenodd" id="path236" d="m 50.52,227.76 494.4,0 0,345.72 -494.4,0 0,-345.72 z"/>
    </clipPath>
    <clipPath id="clipPath246" clipPathUnits="userSpaceOnUse">
      <path style="clip-rule:evenodd" id="path248" d="m 50.52,227.76 494.4,0 0,345.72 -494.4,0 0,-345.72 z"/>
    </clipPath>
    <clipPath id="clipPath258" clipPathUnits="userSpaceOnUse">
      <path style="clip-rule:evenodd" id="path260" d="m 50.52,227.76 494.4,0 0,345.72 -494.4,0 0,-345.72 z"/>
    </clipPath>
    <clipPath id="clipPath270" clipPathUnits="userSpaceOnUse">
      <path style="clip-rule:evenodd" id="path272" d="m 50.52,227.76 494.4,0 0,345.72 -494.4,0 0,-345.72 z"/>
    </clipPath>
    <clipPath id="clipPath282" clipPathUnits="userSpaceOnUse">
      <path style="clip-rule:evenodd" id="path284" d="m 50.52,227.76 494.4,0 0,345.72 -494.4,0 0,-345.72 z"/>
    </clipPath>
    <clipPath id="clipPath294" clipPathUnits="userSpaceOnUse">
      <path style="clip-rule:evenodd" id="path296" d="m 50.52,227.76 494.4,0 0,345.72 -494.4,0 0,-345.72 z"/>
    </clipPath>
    <clipPath id="clipPath306" clipPathUnits="userSpaceOnUse">
      <path style="clip-rule:evenodd" id="path308" d="m 50.52,227.76 494.4,0 0,345.72 -494.4,0 0,-345.72 z"/>
    </clipPath>
    <clipPath id="clipPath318" clipPathUnits="userSpaceOnUse">
      <path style="clip-rule:evenodd" id="path320" d="m 50.52,227.76 494.4,0 0,345.72 -494.4,0 0,-345.72 z"/>
    </clipPath>
    <clipPath id="clipPath330" clipPathUnits="userSpaceOnUse">
      <path style="clip-rule:evenodd" id="path332" d="m 50.52,227.76 494.4,0 0,345.72 -494.4,0 0,-345.72 z"/>
    </clipPath>
    <clipPath id="clipPath342" clipPathUnits="userSpaceOnUse">
      <path style="clip-rule:evenodd" id="path344" d="m 50.52,227.76 494.4,0 0,345.72 -494.4,0 0,-345.72 z"/>
    </clipPath>
    <clipPath id="clipPath354" clipPathUnits="userSpaceOnUse">
      <path style="clip-rule:evenodd" id="path356" d="m 50.52,227.76 494.4,0 0,345.72 -494.4,0 0,-345.72 z"/>
    </clipPath>
    <clipPath id="clipPath366" clipPathUnits="userSpaceOnUse">
      <path style="clip-rule:evenodd" id="path368" d="m 50.52,227.76 494.4,0 0,345.72 -494.4,0 0,-345.72 z"/>
    </clipPath>
    <clipPath id="clipPath378" clipPathUnits="userSpaceOnUse">
      <path style="clip-rule:evenodd" id="path380" d="m 50.52,227.76 494.4,0 0,345.72 -494.4,0 0,-345.72 z"/>
    </clipPath>
    <clipPath id="clipPath390" clipPathUnits="userSpaceOnUse">
      <path style="clip-rule:evenodd" id="path392" d="m 50.52,227.76 494.4,0 0,345.72 -494.4,0 0,-345.72 z"/>
    </clipPath>
    <clipPath id="clipPath402" clipPathUnits="userSpaceOnUse">
      <path style="clip-rule:evenodd" id="path404" d="m 50.52,227.76 494.4,0 0,345.72 -494.4,0 0,-345.72 z"/>
    </clipPath>
    <clipPath id="clipPath414" clipPathUnits="userSpaceOnUse">
      <path style="clip-rule:evenodd" id="path416" d="m 50.52,227.76 494.4,0 0,345.72 -494.4,0 0,-345.72 z"/>
    </clipPath>
    <clipPath id="clipPath426" clipPathUnits="userSpaceOnUse">
      <path style="clip-rule:evenodd" id="path428" d="m 50.52,227.76 494.4,0 0,345.72 -494.4,0 0,-345.72 z"/>
    </clipPath>
    <clipPath id="clipPath438" clipPathUnits="userSpaceOnUse">
      <path style="clip-rule:evenodd" id="path440" d="m 50.52,227.76 494.4,0 0,345.72 -494.4,0 0,-345.72 z"/>
    </clipPath>
    <clipPath id="clipPath450" clipPathUnits="userSpaceOnUse">
      <path style="clip-rule:evenodd" id="path452" d="m 50.52,227.76 494.4,0 0,345.72 -494.4,0 0,-345.72 z"/>
    </clipPath>
    <clipPath id="clipPath462" clipPathUnits="userSpaceOnUse">
      <path style="clip-rule:evenodd" id="path464" d="m 50.52,227.76 494.4,0 0,345.72 -494.4,0 0,-345.72 z"/>
    </clipPath>
    <clipPath id="clipPath474" clipPathUnits="userSpaceOnUse">
      <path style="clip-rule:evenodd" id="path476" d="m 50.52,227.76 494.4,0 0,345.72 -494.4,0 0,-345.72 z"/>
    </clipPath>
    <clipPath id="clipPath486" clipPathUnits="userSpaceOnUse">
      <path style="clip-rule:evenodd" id="path488" d="m 50.52,227.76 494.4,0 0,345.72 -494.4,0 0,-345.72 z"/>
    </clipPath>
    <clipPath id="clipPath498" clipPathUnits="userSpaceOnUse">
      <path style="clip-rule:evenodd" id="path500" d="m 50.52,227.76 494.4,0 0,345.72 -494.4,0 0,-345.72 z"/>
    </clipPath>
    <clipPath id="clipPath510" clipPathUnits="userSpaceOnUse">
      <path style="clip-rule:evenodd" id="path512" d="m 50.52,227.76 494.4,0 0,345.72 -494.4,0 0,-345.72 z"/>
    </clipPath>
    <clipPath id="clipPath522" clipPathUnits="userSpaceOnUse">
      <path style="clip-rule:evenodd" id="path524" d="m 50.52,227.76 494.4,0 0,345.72 -494.4,0 0,-345.72 z"/>
    </clipPath>
    <clipPath id="clipPath534" clipPathUnits="userSpaceOnUse">
      <path style="clip-rule:evenodd" id="path536" d="m 50.52,227.76 494.4,0 0,345.72 -494.4,0 0,-345.72 z"/>
    </clipPath>
    <clipPath id="clipPath546" clipPathUnits="userSpaceOnUse">
      <path style="clip-rule:evenodd" id="path548" d="m 50.52,227.76 494.4,0 0,345.72 -494.4,0 0,-345.72 z"/>
    </clipPath>
    <clipPath id="clipPath562" clipPathUnits="userSpaceOnUse">
      <path style="clip-rule:evenodd" id="path564" d="m 50.52,227.76 494.4,0 0,345.72 -494.4,0 0,-345.72 z"/>
    </clipPath>
    <clipPath id="clipPath576" clipPathUnits="userSpaceOnUse">
      <path style="clip-rule:evenodd" id="path578" d="m 50.52,227.76 494.4,0 0,345.72 -494.4,0 0,-345.72 z"/>
    </clipPath>
  </defs>
  <g transform="matrix(1.25,0,0,-1.25,0,1052.4)" id="g10">
    <g id="g12">
      <g clip-path="url(#clipPath16)" id="g14">
        <path id="path20" style="fill:none;stroke:#000000;stroke-width:0.14;stroke-linecap:butt;stroke-linejoin:miter;stroke-miterlimit:10;stroke-dasharray:none;stroke-opacity:0" d="m 50.602,227.63 494.4,0 0,345.83 -494.4,0 0,-345.83 z"/>
      </g>
    </g>
    <g id="g22">
      <g clip-path="url(#clipPath26)" id="g24">
        <path id="path30" style="fill:#ffffff;fill-opacity:1;fill-rule:evenodd;stroke:none" d="m 50.602,227.63 494.4,0 0,345.83 -494.4,0 0,-345.83 z"/>
      </g>
    </g>
    <path id="path32" style="fill:#d0b86a;fill-opacity:1;fill-rule:nonzero;stroke:none" d="m 138.09,463.67 27.47,0 0,-154.93 -27.47,0 0,154.93 z m 41.08,20.73 27.47,0 0,-175.66 -27.47,0 0,175.66 z m 41.21,0.14 27.47,0 0,-175.8 -27.47,0 0,175.8 z m 41.08,1.98 27.47,0 0,-177.78 -27.47,0 0,177.78 z m 41.21,1.58 27.47,0 0,-179.36 -27.47,0 0,179.36 z m 41.21,10.17 27.34,0 0,-189.53 -27.34,0 0,189.53 z m 41.07,7.13 27.48,0 0,-196.66 -27.48,0 0,196.66 z m 41.21,14.4 27.34,0 0,-211.06 -27.34,0 0,211.06 z m 41.08,1.59 27.47,0 0,-212.65 -27.47,0 0,212.65 z m 41.21,7 27.34,0 0,-219.65 -27.34,0 0,219.65 z"/>
    <path id="path34" style="fill:#005aa4;fill-opacity:1;fill-rule:nonzero;stroke:none" d="m 96.88,539.91 27.47,0 0,-231.17 -27.47,0 0,231.17 z m 41.21,0 27.47,0 0,-76.24 -27.47,0 0,76.24 z m 41.08,0 27.47,0 0,-55.51 -27.47,0 0,55.51 z m 41.21,0 27.47,0 0,-55.37 -27.47,0 0,55.37 z m 41.08,0 27.47,0 0,-53.39 -27.47,0 0,53.39 z m 41.21,0 27.47,0 0,-51.81 -27.47,0 0,51.81 z m 41.21,0 27.34,0 0,-41.64 -27.34,0 0,41.64 z m 41.07,0 27.48,0 0,-34.51 -27.48,0 0,34.51 z m 41.21,0 27.34,0 0,-20.11 -27.34,0 0,20.11 z m 41.08,0 27.47,0 0,-18.52 -27.47,0 0,18.52 z m 41.21,0 27.34,0 0,-11.52 -27.34,0 0,11.52 z"/>
    <path id="path36" style="fill:none;stroke:#808080;stroke-width:1.37590003;stroke-linecap:round;stroke-linejoin:round;stroke-miterlimit:10;stroke-dasharray:none;stroke-opacity:1" d="m 90.081,308.74 452.599,0"/>
    <g id="g38">
      <g clip-path="url(#clipPath42)" id="g40"><text id="text46" style="font-variant:normal;font-weight:normal;font-size:9.9119997px;font-family:'Roboto Condensed';-inkscape-font-specification:RobotoCondensed-Regular;writing-mode:lr-tb;fill:#000000;fill-opacity:1;fill-rule:nonzero;stroke:none" transform="matrix(1,0,0,-1,143.86,382.68)"><tspan id="tspan48" y="0" x="0 4.8959999 9.7919998">67%</tspan></text>
</g>
    </g>
    <g id="g50">
      <g clip-path="url(#clipPath54)" id="g52"><text id="text58" style="font-variant:normal;font-weight:normal;font-size:9.9119997px;font-family:'Roboto Condensed';-inkscape-font-specification:RobotoCondensed-Regular;writing-mode:lr-tb;fill:#000000;fill-opacity:1;fill-rule:nonzero;stroke:none" transform="matrix(1,0,0,-1,185.02,393.1)"><tspan id="tspan60" y="0" x="0 4.8959999 9.7919998">76%</tspan></text>
</g>
    </g>
    <g id="g62">
      <g clip-path="url(#clipPath66)" id="g64"><text id="text70" style="font-variant:normal;font-weight:normal;font-size:9.9119997px;font-family:'Roboto Condensed';-inkscape-font-specification:RobotoCondensed-Regular;writing-mode:lr-tb;fill:#000000;fill-opacity:1;fill-rule:nonzero;stroke:none" transform="matrix(1,0,0,-1,226.18,393.12)"><tspan id="tspan72" y="0" x="0 4.8720279 9.7440557">76%</tspan></text>
</g>
    </g>
    <g id="g74">
      <g clip-path="url(#clipPath78)" id="g76"><text id="text82" style="font-variant:normal;font-weight:normal;font-size:9.9119997px;font-family:'Roboto Condensed';-inkscape-font-specification:RobotoCondensed-Regular;writing-mode:lr-tb;fill:#000000;fill-opacity:1;fill-rule:nonzero;stroke:none" transform="matrix(1,0,0,-1,267.31,394.18)"><tspan id="tspan84" y="0" x="0 4.8959999 9.7919998">75%</tspan></text>
</g>
    </g>
    <g id="g86">
      <g clip-path="url(#clipPath90)" id="g88"><text id="text94" style="font-variant:normal;font-weight:normal;font-size:9.9119997px;font-family:'Roboto Condensed';-inkscape-font-specification:RobotoCondensed-Regular;writing-mode:lr-tb;fill:#000000;fill-opacity:1;fill-rule:nonzero;stroke:none" transform="matrix(1,0,0,-1,308.47,394.92)"><tspan id="tspan96" y="0" x="0 4.8959999 9.7919998">71%</tspan></text>
</g>
    </g>
    <g id="g98">
      <g clip-path="url(#clipPath102)" id="g100"><text id="text106" style="font-variant:normal;font-weight:normal;font-size:9.9119997px;font-family:'Roboto Condensed';-inkscape-font-specification:RobotoCondensed-Regular;writing-mode:lr-tb;fill:#000000;fill-opacity:1;fill-rule:nonzero;stroke:none" transform="matrix(1,0,0,-1,349.63,400.03)"><tspan id="tspan108" y="0" x="0 4.8720279 9.7440557">82%</tspan></text>
</g>
    </g>
    <g id="g110">
      <g clip-path="url(#clipPath114)" id="g112"><text id="text118" style="font-variant:normal;font-weight:normal;font-size:9.88799953px;font-family:'Roboto Condensed';-inkscape-font-specification:RobotoCondensed-Regular;writing-mode:lr-tb;fill:#000000;fill-opacity:1;fill-rule:nonzero;stroke:none" transform="matrix(1,0,0,-1,390.79,403.58)"><tspan id="tspan120" y="0" x="0 4.8719721 9.7439442">83%</tspan></text>
</g>
    </g>
    <g id="g122">
      <g clip-path="url(#clipPath126)" id="g124"><text id="text130" style="font-variant:normal;font-weight:normal;font-size:9.9119997px;font-family:'Roboto Condensed';-inkscape-font-specification:RobotoCondensed-Regular;writing-mode:lr-tb;fill:#000000;fill-opacity:1;fill-rule:nonzero;stroke:none" transform="matrix(1,0,0,-1,431.93,410.78)"><tspan id="tspan132" y="0" x="0 4.8959999 9.7919998">89%</tspan></text>
</g>
    </g>
    <g id="g134">
      <g clip-path="url(#clipPath138)" id="g136"><text id="text142" style="font-variant:normal;font-weight:normal;font-size:9.88799953px;font-family:'Roboto Condensed';-inkscape-font-specification:RobotoCondensed-Regular;writing-mode:lr-tb;fill:#000000;fill-opacity:1;fill-rule:nonzero;stroke:none" transform="matrix(1,0,0,-1,473.09,411.58)"><tspan id="tspan144" y="0" x="0 4.8959718 9.7919436">92%</tspan></text>
</g>
    </g>
    <g id="g146">
      <g clip-path="url(#clipPath150)" id="g148"><text id="text154" style="font-variant:normal;font-weight:normal;font-size:9.9119997px;font-family:'Roboto Condensed';-inkscape-font-specification:RobotoCondensed-Regular;writing-mode:lr-tb;fill:#000000;fill-opacity:1;fill-rule:nonzero;stroke:none" transform="matrix(1,0,0,-1,514.25,415.06)"><tspan id="tspan156" y="0" x="0 4.8720279 9.7440557">95%</tspan></text>
</g>
    </g>
    <g id="g158">
      <g clip-path="url(#clipPath162)" id="g160"><text id="text166" style="font-variant:normal;font-weight:normal;font-size:9.9119997px;font-family:'Roboto Condensed';-inkscape-font-specification:RobotoCondensed-Regular;writing-mode:lr-tb;fill:#ffffff;fill-opacity:1;fill-rule:nonzero;stroke:none" transform="matrix(1,0,0,-1,100.2,420.84)"><tspan id="tspan168" y="0" x="0 4.8959999 9.7919998 14.688">100%</tspan></text>
</g>
    </g>
    <g id="g170">
      <g clip-path="url(#clipPath174)" id="g172"><text id="text178" style="font-variant:normal;font-weight:normal;font-size:9.9119997px;font-family:'Roboto Condensed';-inkscape-font-specification:RobotoCondensed-Regular;writing-mode:lr-tb;fill:#ffffff;fill-opacity:1;fill-rule:nonzero;stroke:none" transform="matrix(1,0,0,-1,143.86,498.29)"><tspan id="tspan180" y="0" x="0 4.8959999 9.7919998">33%</tspan></text>
</g>
    </g>
    <g id="g182">
      <g clip-path="url(#clipPath186)" id="g184"><text id="text190" style="font-variant:normal;font-weight:normal;font-size:9.88799953px;font-family:'Roboto Condensed';-inkscape-font-specification:RobotoCondensed-Regular;writing-mode:lr-tb;fill:#ffffff;fill-opacity:1;fill-rule:nonzero;stroke:none" transform="matrix(1,0,0,-1,185.02,508.68)"><tspan id="tspan192" y="0" x="0 4.8959718 9.7919436">24%</tspan></text>
</g>
    </g>
    <g id="g194">
      <g clip-path="url(#clipPath198)" id="g196"><text id="text202" style="font-variant:normal;font-weight:normal;font-size:9.9119997px;font-family:'Roboto Condensed';-inkscape-font-specification:RobotoCondensed-Regular;writing-mode:lr-tb;fill:#ffffff;fill-opacity:1;fill-rule:nonzero;stroke:none" transform="matrix(1,0,0,-1,226.18,508.73)"><tspan id="tspan204" y="0" x="0 4.8720279 9.7440557">24%</tspan></text>
</g>
    </g>
    <g id="g206">
      <g clip-path="url(#clipPath210)" id="g208"><text id="text214" style="font-variant:normal;font-weight:normal;font-size:9.9119997px;font-family:'Roboto Condensed';-inkscape-font-specification:RobotoCondensed-Regular;writing-mode:lr-tb;fill:#ffffff;fill-opacity:1;fill-rule:nonzero;stroke:none" transform="matrix(1,0,0,-1,267.31,509.76)"><tspan id="tspan216" y="0" x="0 4.8959999 9.7919998">23%</tspan></text>
</g>
    </g>
    <g id="g218">
      <g clip-path="url(#clipPath222)" id="g220"><text id="text226" style="font-variant:normal;font-weight:normal;font-size:9.88799953px;font-family:'Roboto Condensed';-inkscape-font-specification:RobotoCondensed-Regular;writing-mode:lr-tb;fill:#ffffff;fill-opacity:1;fill-rule:nonzero;stroke:none" transform="matrix(1,0,0,-1,308.47,510.5)"><tspan id="tspan228" y="0" x="0 4.8959718 9.7919436">21%</tspan></text>
</g>
    </g>
    <g id="g230">
      <g clip-path="url(#clipPath234)" id="g232"><text id="text238" style="font-variant:normal;font-weight:normal;font-size:9.88799953px;font-family:'Roboto Condensed';-inkscape-font-specification:RobotoCondensed-Regular;writing-mode:lr-tb;fill:#ffffff;fill-opacity:1;fill-rule:nonzero;stroke:none" transform="matrix(1,0,0,-1,349.63,515.62)"><tspan id="tspan240" y="0" x="0 4.8719721 9.7439442">18%</tspan></text>
</g>
    </g>
    <g id="g242">
      <g clip-path="url(#clipPath246)" id="g244"><text id="text250" style="font-variant:normal;font-weight:normal;font-size:9.9119997px;font-family:'Roboto Condensed';-inkscape-font-specification:RobotoCondensed-Regular;writing-mode:lr-tb;fill:#ffffff;fill-opacity:1;fill-rule:nonzero;stroke:none" transform="matrix(1,0,0,-1,390.79,519.19)"><tspan id="tspan252" y="0" x="0 4.8720279 9.7440557">15%</tspan></text>
</g>
    </g>
    <g id="g254">
      <g clip-path="url(#clipPath258)" id="g256"><text id="text262" style="font-variant:normal;font-weight:normal;font-size:9.9119997px;font-family:'Roboto Condensed';-inkscape-font-specification:RobotoCondensed-Regular;writing-mode:lr-tb;fill:#ffffff;fill-opacity:1;fill-rule:nonzero;stroke:none" transform="matrix(1,0,0,-1,434.33,526.39)"><tspan id="tspan264" y="0" x="0 4.8720279">9%</tspan></text>
</g>
    </g>
    <g id="g266">
      <g clip-path="url(#clipPath270)" id="g268"><text id="text274" style="font-variant:normal;font-weight:normal;font-size:9.9119997px;font-family:'Roboto Condensed';-inkscape-font-specification:RobotoCondensed-Regular;writing-mode:lr-tb;fill:#ffffff;fill-opacity:1;fill-rule:nonzero;stroke:none" transform="matrix(1,0,0,-1,475.46,527.18)"><tspan id="tspan276" y="0" x="0 4.8959999">8%</tspan></text>
</g>
    </g>
    <g id="g278">
      <g clip-path="url(#clipPath282)" id="g280"><text id="text286" style="font-variant:normal;font-weight:normal;font-size:9.9119997px;font-family:'Roboto Condensed';-inkscape-font-specification:RobotoCondensed-Regular;writing-mode:lr-tb;fill:#ffffff;fill-opacity:1;fill-rule:nonzero;stroke:none" transform="matrix(1,0,0,-1,516.62,530.66)"><tspan id="tspan288" y="0" x="0 4.8959999">5%</tspan></text>
</g>
    </g>
    <g id="g290">
      <g clip-path="url(#clipPath294)" id="g292"><text id="text298" style="font-variant:normal;font-weight:normal;font-size:9.9119997px;font-family:'Roboto Condensed';-inkscape-font-specification:RobotoCondensed-Regular;writing-mode:lr-tb;fill:#000000;fill-opacity:1;fill-rule:nonzero;stroke:none" transform="matrix(1,0,0,-1,69.864,305.74)"><tspan id="tspan300" y="0" x="0 4.8720279">0%</tspan></text>
</g>
    </g>
    <g id="g302">
      <g clip-path="url(#clipPath306)" id="g304"><text id="text310" style="font-variant:normal;font-weight:normal;font-size:9.9119997px;font-family:'Roboto Condensed';-inkscape-font-specification:RobotoCondensed-Regular;writing-mode:lr-tb;fill:#000000;fill-opacity:1;fill-rule:nonzero;stroke:none" transform="matrix(1,0,0,-1,64.968,328.85)"><tspan id="tspan312" y="0" x="0 4.8720279 9.7440557">10%</tspan></text>
</g>
    </g>
    <g id="g314">
      <g clip-path="url(#clipPath318)" id="g316"><text id="text322" style="font-variant:normal;font-weight:normal;font-size:9.88799953px;font-family:'Roboto Condensed';-inkscape-font-specification:RobotoCondensed-Regular;writing-mode:lr-tb;fill:#000000;fill-opacity:1;fill-rule:nonzero;stroke:none" transform="matrix(1,0,0,-1,64.968,351.96)"><tspan id="tspan324" y="0" x="0 4.8719721 9.7439442">20%</tspan></text>
</g>
    </g>
    <g id="g326">
      <g clip-path="url(#clipPath330)" id="g328"><text id="text334" style="font-variant:normal;font-weight:normal;font-size:9.9119997px;font-family:'Roboto Condensed';-inkscape-font-specification:RobotoCondensed-Regular;writing-mode:lr-tb;fill:#000000;fill-opacity:1;fill-rule:nonzero;stroke:none" transform="matrix(1,0,0,-1,64.968,375.1)"><tspan id="tspan336" y="0" x="0 4.8720279 9.7440557">30%</tspan></text>
</g>
    </g>
    <g id="g338">
      <g clip-path="url(#clipPath342)" id="g340"><text id="text346" style="font-variant:normal;font-weight:normal;font-size:9.9119997px;font-family:'Roboto Condensed';-inkscape-font-specification:RobotoCondensed-Regular;writing-mode:lr-tb;fill:#000000;fill-opacity:1;fill-rule:nonzero;stroke:none" transform="matrix(1,0,0,-1,64.968,398.21)"><tspan id="tspan348" y="0" x="0 4.8720279 9.7440557">40%</tspan></text>
</g>
    </g>
    <g id="g350">
      <g clip-path="url(#clipPath354)" id="g352"><text id="text358" style="font-variant:normal;font-weight:normal;font-size:9.88799953px;font-family:'Roboto Condensed';-inkscape-font-specification:RobotoCondensed-Regular;writing-mode:lr-tb;fill:#000000;fill-opacity:1;fill-rule:nonzero;stroke:none" transform="matrix(1,0,0,-1,64.968,421.32)"><tspan id="tspan360" y="0" x="0 4.8719721 9.7439442">50%</tspan></text>
</g>
    </g>
    <g id="g362">
      <g clip-path="url(#clipPath366)" id="g364"><text id="text370" style="font-variant:normal;font-weight:normal;font-size:9.9119997px;font-family:'Roboto Condensed';-inkscape-font-specification:RobotoCondensed-Regular;writing-mode:lr-tb;fill:#000000;fill-opacity:1;fill-rule:nonzero;stroke:none" transform="matrix(1,0,0,-1,64.968,444.46)"><tspan id="tspan372" y="0" x="0 4.8720279 9.7440557">60%</tspan></text>
</g>
    </g>
    <g id="g374">
      <g clip-path="url(#clipPath378)" id="g376"><text id="text382" style="font-variant:normal;font-weight:normal;font-size:9.9119997px;font-family:'Roboto Condensed';-inkscape-font-specification:RobotoCondensed-Regular;writing-mode:lr-tb;fill:#000000;fill-opacity:1;fill-rule:nonzero;stroke:none" transform="matrix(1,0,0,-1,64.968,467.57)"><tspan id="tspan384" y="0" x="0 4.8720279 9.7440557">70%</tspan></text>
</g>
    </g>
    <g id="g386">
      <g clip-path="url(#clipPath390)" id="g388"><text id="text394" style="font-variant:normal;font-weight:normal;font-size:9.88799953px;font-family:'Roboto Condensed';-inkscape-font-specification:RobotoCondensed-Regular;writing-mode:lr-tb;fill:#000000;fill-opacity:1;fill-rule:nonzero;stroke:none" transform="matrix(1,0,0,-1,64.968,490.68)"><tspan id="tspan396" y="0" x="0 4.8719721 9.7439442">80%</tspan></text>
</g>
    </g>
    <g id="g398">
      <g clip-path="url(#clipPath402)" id="g400"><text id="text406" style="font-variant:normal;font-weight:normal;font-size:9.9119997px;font-family:'Roboto Condensed';-inkscape-font-specification:RobotoCondensed-Regular;writing-mode:lr-tb;fill:#000000;fill-opacity:1;fill-rule:nonzero;stroke:none" transform="matrix(1,0,0,-1,64.968,513.82)"><tspan id="tspan408" y="0" x="0 4.8720279 9.7440557">90%</tspan></text>
</g>
    </g>
    <g id="g410">
      <g clip-path="url(#clipPath414)" id="g412"><text id="text418" style="font-variant:normal;font-weight:normal;font-size:9.9119997px;font-family:'Roboto Condensed';-inkscape-font-specification:RobotoCondensed-Regular;writing-mode:lr-tb;fill:#000000;fill-opacity:1;fill-rule:nonzero;stroke:none" transform="matrix(1,0,0,-1,60.072,536.93)"><tspan id="tspan420" y="0" x="0 4.8720279 9.7440557 14.616084">100%</tspan></text>
</g>
    </g>
    <g id="g422">
      <g clip-path="url(#clipPath426)" id="g424"><text id="text430" style="font-variant:normal;font-weight:normal;font-size:9.88799953px;font-family:'Roboto Condensed';-inkscape-font-specification:RobotoCondensed-Regular;writing-mode:lr-tb;fill:#000000;fill-opacity:1;fill-rule:nonzero;stroke:none" transform="matrix(-4.4e-8,1,1,4.4e-8,114.12,276.94)"><tspan id="tspan432" y="0" x="0 4.7462401 9.3738241 12.379776 15.385728 20.151745 23.157696">Ferrari</tspan></text>
</g>
    </g>
    <g id="g434">
      <g clip-path="url(#clipPath438)" id="g436"><text id="text442" style="font-variant:normal;font-weight:normal;font-size:9.9119997px;font-family:'Roboto Condensed';-inkscape-font-specification:RobotoCondensed-Regular;writing-mode:lr-tb;fill:#000000;fill-opacity:1;fill-rule:nonzero;stroke:none" transform="matrix(-4.4e-8,1,1,4.4e-8,155.26,234.48)"><tspan id="tspan444" y="0" x="0 5.40204 8.4648476 13.212696 17.960545 22.59936 24.958416 27.228264 32.11488 34.483849 40.024654 44.772503 49.391495 51.661343 56.399281 61.137215 63.407063 65.67691">Brunello Cucinelli</tspan></text>
</g>
    </g>
    <g id="g446">
      <g clip-path="url(#clipPath450)" id="g448"><text id="text454" style="font-variant:normal;font-weight:normal;font-size:9.9119997px;font-family:'Roboto Condensed';-inkscape-font-specification:RobotoCondensed-Regular;writing-mode:lr-tb;fill:#000000;fill-opacity:1;fill-rule:nonzero;stroke:none" transform="matrix(-4.4e-8,1,1,4.4e-8,196.42,277.39)"><tspan id="tspan456" y="0" x="0 5.40204 10.040856 13.093752 15.3636 20.101536">Kering</tspan></text>
</g>
    </g>
    <g id="g458">
      <g clip-path="url(#clipPath462)" id="g460"><text id="text466" style="font-variant:normal;font-weight:normal;font-size:9.9119997px;font-family:'Roboto Condensed';-inkscape-font-specification:RobotoCondensed-Regular;writing-mode:lr-tb;fill:#000000;fill-opacity:1;fill-rule:nonzero;stroke:none" transform="matrix(-4.4e-8,1,1,4.4e-8,237.58,260.71)"><tspan id="tspan468" y="0" x="0 5.2632718 7.5331202 12.162024 16.909872 21.548689 28.952951 33.958511 38.70636">Richemont</tspan></text>
</g>
    </g>
    <g id="g470">
      <g clip-path="url(#clipPath474)" id="g472"><text id="text478" style="font-variant:normal;font-weight:normal;font-size:9.88799953px;font-family:'Roboto Condensed';-inkscape-font-specification:RobotoCondensed-Regular;writing-mode:lr-tb;fill:#000000;fill-opacity:1;fill-rule:nonzero;stroke:none" transform="matrix(-4.4e-8,1,1,4.4e-8,278.74,250.15)"><tspan id="tspan480" y="0" x="0 5.121984 7.7620802 9.996768 14.743008 19.370592 22.376545 25.382496 30.148512 35.023296 39.631104 47.136097">S. Ferragamo</tspan></text>
</g>
    </g>
    <g id="g482">
      <g clip-path="url(#clipPath486)" id="g484"><text id="text490" style="font-variant:normal;font-weight:normal;font-size:9.9119997px;font-family:'Roboto Condensed';-inkscape-font-specification:RobotoCondensed-Regular;writing-mode:lr-tb;fill:#000000;fill-opacity:1;fill-rule:nonzero;stroke:none" transform="matrix(-4.4e-8,1,1,4.4e-8,319.87,278.16)"><tspan id="tspan492" y="0" x="0 5.1740642 9.8128796 14.699496 19.5762">Zegna</tspan></text>
</g>
    </g>
    <g id="g494">
      <g clip-path="url(#clipPath498)" id="g496"><text id="text502" style="font-variant:normal;font-weight:normal;font-size:9.9119997px;font-family:'Roboto Condensed';-inkscape-font-specification:RobotoCondensed-Regular;writing-mode:lr-tb;fill:#000000;fill-opacity:1;fill-rule:nonzero;stroke:none" transform="matrix(-4.4e-8,1,1,4.4e-8,361.03,270.65)"><tspan id="tspan504" y="0" x="0 7.4835601 12.380088 17.24688 21.737017 23.967216 28.705153">Moncler</tspan></text>
</g>
    </g>
    <g id="g506">
      <g clip-path="url(#clipPath510)" id="g508"><text id="text514" style="font-variant:normal;font-weight:normal;font-size:9.9119997px;font-family:'Roboto Condensed';-inkscape-font-specification:RobotoCondensed-Regular;writing-mode:lr-tb;fill:#000000;fill-opacity:1;fill-rule:nonzero;stroke:none" transform="matrix(-4.4e-8,1,1,4.4e-8,402.19,269.5)"><tspan id="tspan516" y="0" x="0 5.40204 10.189536 13.202784 18.089399 22.728216 25.741465 28.754711">Burberry</tspan></text>
</g>
    </g>
    <g id="g518">
      <g clip-path="url(#clipPath522)" id="g520"><text id="text526" style="font-variant:normal;font-weight:normal;font-size:9.9119997px;font-family:'Roboto Condensed';-inkscape-font-specification:RobotoCondensed-Regular;writing-mode:lr-tb;fill:#000000;fill-opacity:1;fill-rule:nonzero;stroke:none" transform="matrix(-4.4e-8,1,1,4.4e-8,443.33,277.2)"><tspan id="tspan528" y="0" x="0 5.5606322 8.4648476 13.212696 18.267817">Prada</tspan></text>
</g>
    </g>
    <g id="g530">
      <g clip-path="url(#clipPath534)" id="g532"><text id="text538" style="font-variant:normal;font-weight:normal;font-size:9.9119997px;font-family:'Roboto Condensed';-inkscape-font-specification:RobotoCondensed-Regular;writing-mode:lr-tb;fill:#000000;fill-opacity:1;fill-rule:nonzero;stroke:none" transform="matrix(-4.4e-8,1,1,4.4e-8,484.49,271.99)"><tspan id="tspan540" y="0" x="0 6.1850882 10.794168 13.698384 21.201769 25.810848">Hermes</tspan></text>
</g>
    </g>
    <g id="g542">
      <g clip-path="url(#clipPath546)" id="g544"><text id="text550" style="font-variant:normal;font-weight:normal;font-size:9.9119997px;font-family:'Roboto Condensed';-inkscape-font-specification:RobotoCondensed-Regular;writing-mode:lr-tb;fill:#000000;fill-opacity:1;fill-rule:nonzero;stroke:none" transform="matrix(-4.4e-8,1,1,4.4e-8,525.65,260.93)"><tspan id="tspan552" y="0" x="0 4.737936 10.288656 17.673096 23.858185 26.088385 30.846144 35.58408">LVMH FLG</tspan></text>
</g>
    </g>
    <path id="path554" style="fill:#ffffff;fill-opacity:1;fill-rule:evenodd;stroke:none" d="m 202.39,232.23 192.56,0 0,18.557 -192.56,0 0,-18.557 z"/>
    <path id="path556" style="fill:#d0b86a;fill-opacity:1;fill-rule:evenodd;stroke:none" d="m 244.01,238.84 5.3494,0 0,5.3494 -5.3494,0 0,-5.3494 z"/>
    <g id="g558">
      <g clip-path="url(#clipPath562)" id="g560"><text id="text566" style="font-variant:normal;font-weight:normal;font-size:9.9119997px;font-family:'Roboto Condensed';-inkscape-font-specification:RobotoCondensed-Regular;writing-mode:lr-tb;fill:#000000;fill-opacity:1;fill-rule:nonzero;stroke:none" transform="matrix(1,0,0,-1,251.66,238.49)"><tspan id="tspan568" y="0" x="0 5.6597519 10.823904">DTC</tspan></text>
</g>
    </g>
    <path id="path570" style="fill:#005aa4;fill-opacity:1;fill-rule:evenodd;stroke:none" d="m 309.25,238.84 5.3494,0 0,5.3494 -5.3494,0 0,-5.3494 z"/>
    <g id="g572">
      <g clip-path="url(#clipPath576)" id="g574"><text id="text580" style="font-variant:normal;font-weight:normal;font-size:9.9119997px;font-family:'Roboto Condensed';-inkscape-font-specification:RobotoCondensed-Regular;writing-mode:lr-tb;fill:#000000;fill-opacity:1;fill-rule:nonzero;stroke:none" transform="matrix(1,0,0,-1,316.92,238.49)"><tspan id="tspan582" y="0" x="0 7.5529442 12.29088 17.29644 19.566288 24.205105 28.675417 33.423264 35.792233">Wholesale</tspan></text>
</g>
    </g>
    <path id="path584" style="fill:#c00000;fill-opacity:1;fill-rule:nonzero;stroke:none" d="m 83.457,268.8 0,7.43 1.486,0 0,-7.43 -1.486,0 z m 1.981,0 0,7.43 0.496,0 0,-7.43 -0.496,0 z m -1.981,9.9 0,7.43 1.486,0 0,-7.43 -1.486,0 z m 1.981,0 0,7.43 0.496,0 0,-7.43 -0.496,0 z m -1.981,9.91 0,7.43 1.486,0 0,-7.43 -1.486,0 z m 1.981,0 0,7.43 0.496,0 0,-7.43 -0.496,0 z m -1.981,9.91 0,7.43 1.486,0 0,-7.43 -1.486,0 z m 1.981,0 0,7.43 0.496,0 0,-7.43 -0.496,0 z m -1.981,9.9 0,7.43 1.486,0 0,-7.43 -1.486,0 z m 1.981,0 0,7.43 0.496,0 0,-7.43 -0.496,0 z m -1.981,9.91 0,7.43 1.486,0 0,-7.43 -1.486,0 z m 1.981,0 0,7.43 0.496,0 0,-7.43 -0.496,0 z m -1.981,9.9 0,7.43 1.486,0 0,-7.43 -1.486,0 z m 1.981,0 0,7.43 0.496,0 0,-7.43 -0.496,0 z m -1.981,9.91 0,7.43 1.486,0 0,-7.43 -1.486,0 z m 1.981,0 0,7.43 0.496,0 0,-7.43 -0.496,0 z m -1.981,9.91 0,7.43 1.486,0 0,-7.43 -1.486,0 z m 1.981,0 0,7.43 0.496,0 0,-7.43 -0.496,0 z m -1.981,9.9 0,7.43 1.486,0 0,-7.43 -1.486,0 z m 1.981,0 0,7.43 0.496,0 0,-7.43 -0.496,0 z m -1.981,9.91 0,7.43 1.486,0 0,-7.43 -1.486,0 z m 1.981,0 0,7.43 0.496,0 0,-7.43 -0.496,0 z m -1.981,9.91 0,7.43 1.486,0 0,-7.43 -1.486,0 z m 1.981,0 0,7.43 0.496,0 0,-7.43 -0.496,0 z m -1.981,9.9 0,7.43 1.486,0 0,-7.43 -1.486,0 z m 1.981,0 0,7.43 0.496,0 0,-7.43 -0.496,0 z m -1.981,9.91 0,7.43 1.486,0 0,-7.43 -1.486,0 z m 1.981,0 0,7.43 0.496,0 0,-7.43 -0.496,0 z m -1.981,9.9 0,7.43 1.486,0 0,-7.43 -1.486,0 z m 1.981,0 0,7.43 0.496,0 0,-7.43 -0.496,0 z m -1.981,9.91 0,7.43 1.486,0 0,-7.43 -1.486,0 z m 1.981,0 0,7.43 0.496,0 0,-7.43 -0.496,0 z m -1.981,9.91 0,7.43 1.486,0 0,-7.43 -1.486,0 z m 1.981,0 0,7.43 0.496,0 0,-7.43 -0.496,0 z m -1.981,9.9 0,7.43 1.486,0 0,-7.43 -1.486,0 z m 1.981,0 0,7.43 0.496,0 0,-7.43 -0.496,0 z m -1.981,9.91 0,7.43 1.486,0 0,-7.43 -1.486,0 z m 1.981,0 0,7.43 0.496,0 0,-7.43 -0.496,0 z m -1.981,9.91 0,7.43 1.486,0 0,-7.43 -1.486,0 z m 1.981,0 0,7.43 0.496,0 0,-7.43 -0.496,0 z m -1.981,9.9 0,7.43 1.486,0 0,-7.43 -1.486,0 z m 1.981,0 0,7.43 0.496,0 0,-7.43 -0.496,0 z m -1.981,9.91 0,7.43 1.486,0 0,-7.43 -1.486,0 z m 1.981,0 0,7.43 0.496,0 0,-7.43 -0.496,0 z m -1.981,9.9 0,7.43 1.486,0 0,-7.43 -1.486,0 z m 1.981,0 0,7.43 0.496,0 0,-7.43 -0.496,0 z m -1.981,9.91 0,7.43 1.486,0 0,-7.43 -1.486,0 z m 1.981,0 0,7.43 0.496,0 0,-7.43 -0.496,0 z m -1.981,9.91 0,7.43 1.486,0 0,-7.43 -1.486,0 z m 1.981,0 0,7.43 0.496,0 0,-7.43 -0.496,0 z m -1.981,9.9 0,7.43 1.486,0 0,-7.43 -1.486,0 z m 1.981,0 0,7.43 0.496,0 0,-7.43 -0.496,0 z m -1.981,9.91 0,7.43 1.486,0 0,-7.43 -1.486,0 z m 1.981,0 0,7.43 0.496,0 0,-7.43 -0.496,0 z m -1.981,9.91 0,7.43 1.486,0 0,-7.43 -1.486,0 z m 1.981,0 0,7.43 0.496,0 0,-7.43 -0.496,0 z m -1.981,9.9 0,7.43 1.486,0 0,-7.43 -1.486,0 z m 1.981,0 0,7.43 0.496,0 0,-7.43 -0.496,0 z m 0.949,9.45 7.43,0 0,-1.48 -7.43,0 0,1.48 z m 0,-1.98 7.43,0 0,-0.49 -7.43,0 0,0.49 z m 9.906,1.98 7.427,0 0,-1.48 -7.427,0 0,1.48 z m 0,-1.98 7.427,0 0,-0.49 -7.427,0 0,0.49 z m 9.907,1.98 7.43,0 0,-1.48 -7.43,0 0,1.48 z m 0,-1.98 7.43,0 0,-0.49 -7.43,0 0,0.49 z m 9.91,1.98 7.43,0 0,-1.48 -7.43,0 0,1.48 z m 0,-1.98 7.43,0 0,-0.49 -7.43,0 0,0.49 z m 9.9,1.98 7.13,0 c 0.69,0 1.24,-0.55 1.24,-1.23 l 0,-0.3 -1.48,0 0,0.05 -6.89,0 0,1.48 z m 0,-1.98 6.39,0 0,0 -0.49,-0.49 0,0 -5.9,0 0,0.49 z m 8.37,-2.03 0,-7.43 -1.48,0 0,7.43 1.48,0 z m -1.98,0 0,-7.43 -0.49,0 0,7.43 0.49,0 z m 1.98,-9.9 0,-7.43 -1.48,0 0,7.43 1.48,0 z m -1.98,0 0,-7.43 -0.49,0 0,7.43 0.49,0 z m 1.98,-9.91 0,-7.43 -1.48,0 0,7.43 1.48,0 z m -1.98,0 0,-7.43 -0.49,0 0,7.43 0.49,0 z m 1.98,-9.91 0,-7.43 -1.48,0 0,7.43 1.48,0 z m -1.98,0 0,-7.43 -0.49,0 0,7.43 0.49,0 z m 1.98,-9.9 0,-7.43 -1.48,0 0,7.43 1.48,0 z m -1.98,0 0,-7.43 -0.49,0 0,7.43 0.49,0 z m 1.98,-9.91 0,-7.43 -1.48,0 0,7.43 1.48,0 z m -1.98,0 0,-7.43 -0.49,0 0,7.43 0.49,0 z m 1.98,-9.91 0,-7.43 -1.48,0 0,7.43 1.48,0 z m -1.98,0 0,-7.43 -0.49,0 0,7.43 0.49,0 z m 1.98,-9.9 0,-7.43 -1.48,0 0,7.43 1.48,0 z m -1.98,0 0,-7.43 -0.49,0 0,7.43 0.49,0 z m 1.98,-9.91 0,-7.43 -1.48,0 0,7.43 1.48,0 z m -1.98,0 0,-7.43 -0.49,0 0,7.43 0.49,0 z m 1.98,-9.9 0,-7.43 -1.48,0 0,7.43 1.48,0 z m -1.98,0 0,-7.43 -0.49,0 0,7.43 0.49,0 z m 1.98,-9.91 0,-7.43 -1.48,0 0,7.43 1.48,0 z m -1.98,0 0,-7.43 -0.49,0 0,7.43 0.49,0 z m 1.98,-9.91 0,-7.43 -1.48,0 0,7.43 1.48,0 z m -1.98,0 0,-7.43 -0.49,0 0,7.43 0.49,0 z m 1.98,-9.9 0,-7.43 -1.48,0 0,7.43 1.48,0 z m -1.98,0 0,-7.43 -0.49,0 0,7.43 0.49,0 z m 1.98,-9.91 0,-7.43 -1.48,0 0,7.43 1.48,0 z m -1.98,0 0,-7.43 -0.49,0 0,7.43 0.49,0 z m 1.98,-9.91 0,-7.43 -1.48,0 0,7.43 1.48,0 z m -1.98,0 0,-7.43 -0.49,0 0,7.43 0.49,0 z m 1.98,-9.9 0,-7.43 -1.48,0 0,7.43 1.48,0 z m -1.98,0 0,-7.43 -0.49,0 0,7.43 0.49,0 z m 1.98,-9.91 0,-7.43 -1.48,0 0,7.43 1.48,0 z m -1.98,0 0,-7.43 -0.49,0 0,7.43 0.49,0 z m 1.98,-9.9 0,-7.43 -1.48,0 0,7.43 1.48,0 z m -1.98,0 0,-7.43 -0.49,0 0,7.43 0.49,0 z m 1.98,-9.91 0,-7.43 -1.48,0 0,7.43 1.48,0 z m -1.98,0 0,-7.43 -0.49,0 0,7.43 0.49,0 z m 1.98,-9.91 0,-7.43 -1.48,0 0,7.43 1.48,0 z m -1.98,0 0,-7.43 -0.49,0 0,7.43 0.49,0 z m 1.98,-9.9 0,-7.43 -1.48,0 0,7.43 1.48,0 z m -1.98,0 0,-7.43 -0.49,0 0,7.43 0.49,0 z m 1.98,-9.91 0,-7.43 -1.48,0 0,7.43 1.48,0 z m -1.98,0 0,-7.43 -0.49,0 0,7.43 0.49,0 z m 1.98,-9.91 0,-7.43 -1.48,0 0,7.43 1.48,0 z m -1.98,0 0,-7.43 -0.49,0 0,7.43 0.49,0 z m 1.98,-9.9 0,-7.43 -1.48,0 0,7.43 1.48,0 z m -1.98,0 0,-7.43 -0.49,0 0,7.43 0.49,0 z m 1.98,-9.91 0,-7.43 -1.48,0 0,7.43 1.48,0 z m -1.98,0 0,-7.43 -0.49,0 0,7.43 0.49,0 z m 1.98,-9.9 0,-7.43 -1.48,0 0,7.43 1.48,0 z m -1.98,0 0,-7.43 -0.49,0 0,7.43 0.49,0 z m 1.98,-9.91 0,-7.43 -1.48,0 0,7.43 1.48,0 z m -1.98,0 0,-7.43 -0.49,0 0,7.43 0.49,0 z m 1.98,-9.91 0,-7.43 -1.48,0 0,7.43 1.48,0 z m -1.98,0 0,-7.43 -0.49,0 0,7.43 0.49,0 z m 1.98,-9.9 0,-5.44 c 0,-0.69 -0.55,-1.24 -1.24,-1.24 l -1.99,0 0,1.48 1.75,0 0,5.2 1.48,0 z m -1.98,0 0,-4.7 -1.25,0 0,0.5 0.76,0 0,4.2 0.49,0 z m -3.72,-6.68 -7.43,0 0,1.48 7.43,0 0,-1.48 z m 0,1.98 -7.43,0 0,0.5 7.43,0 0,-0.5 z m -9.91,-1.98 -7.43,0 0,1.48 7.43,0 0,-1.48 z m 0,1.98 -7.43,0 0,0.5 7.43,0 0,-0.5 z m -9.9,-1.98 -7.43,0 0,1.48 7.43,0 0,-1.48 z m 0,1.98 -7.43,0 0,0.5 7.43,0 0,-0.5 z m -9.911,-1.98 -7.43,0 0,1.48 7.43,0 0,-1.48 z m 0,1.98 -7.43,0 0,0.5 7.43,0 0,-0.5 z m -9.906,-1.98 -4.358,0 0,1.48 4.358,0 0,-1.48 z m 0,1.98 -4.358,0 0,0.5 4.358,0 0,-0.5 z"/>
  </g>
</svg>
