<?xml version="1.0" encoding="UTF-8" standalone="no"?>
<svg xmlns:dc="http://purl.org/dc/elements/1.1/" xmlns:cc="http://creativecommons.org/ns#" xmlns:rdf="http://www.w3.org/1999/02/22-rdf-syntax-ns#" xmlns:svg="http://www.w3.org/2000/svg" xmlns="http://www.w3.org/2000/svg" viewBox="63.05375 365.25 639 259.475" height="259.475" width="639" xml:space="preserve" version="1.1" id="svg2">
  <metadata id="metadata8">
    <rdf:RDF>
      <cc:Work rdf:about="">
        <dc:format>image/svg+xml</dc:format>
        <dc:type rdf:resource="http://purl.org/dc/dcmitype/StillImage"/>
      </cc:Work>
    </rdf:RDF>
  </metadata>
  <defs id="defs6">
    <clipPath id="clipPath16" clipPathUnits="userSpaceOnUse">
      <path style="clip-rule:evenodd" id="path18" d="m 50.4,292.2 511.2,0 0,207.6 -511.2,0 0,-207.6 z"/>
    </clipPath>
    <clipPath id="clipPath36" clipPathUnits="userSpaceOnUse">
      <path style="clip-rule:evenodd" id="path38" d="m 50.52,292.2 511.08,0 0,207.48 -511.08,0 0,-207.48 z"/>
    </clipPath>
    <clipPath id="clipPath48" clipPathUnits="userSpaceOnUse">
      <path style="clip-rule:evenodd" id="path50" d="m 50.52,292.2 511.08,0 0,207.48 -511.08,0 0,-207.48 z"/>
    </clipPath>
    <clipPath id="clipPath60" clipPathUnits="userSpaceOnUse">
      <path style="clip-rule:evenodd" id="path62" d="m 50.52,292.2 511.08,0 0,207.48 -511.08,0 0,-207.48 z"/>
    </clipPath>
    <clipPath id="clipPath72" clipPathUnits="userSpaceOnUse">
      <path style="clip-rule:evenodd" id="path74" d="m 50.52,292.2 511.08,0 0,207.48 -511.08,0 0,-207.48 z"/>
    </clipPath>
    <clipPath id="clipPath84" clipPathUnits="userSpaceOnUse">
      <path style="clip-rule:evenodd" id="path86" d="m 50.52,292.2 511.08,0 0,207.48 -511.08,0 0,-207.48 z"/>
    </clipPath>
    <clipPath id="clipPath96" clipPathUnits="userSpaceOnUse">
      <path style="clip-rule:evenodd" id="path98" d="m 50.52,292.2 511.08,0 0,207.48 -511.08,0 0,-207.48 z"/>
    </clipPath>
    <clipPath id="clipPath108" clipPathUnits="userSpaceOnUse">
      <path style="clip-rule:evenodd" id="path110" d="m 50.52,292.2 511.08,0 0,207.48 -511.08,0 0,-207.48 z"/>
    </clipPath>
    <clipPath id="clipPath120" clipPathUnits="userSpaceOnUse">
      <path style="clip-rule:evenodd" id="path122" d="m 50.52,292.2 511.08,0 0,207.48 -511.08,0 0,-207.48 z"/>
    </clipPath>
    <clipPath id="clipPath132" clipPathUnits="userSpaceOnUse">
      <path style="clip-rule:evenodd" id="path134" d="m 50.52,292.2 511.08,0 0,207.48 -511.08,0 0,-207.48 z"/>
    </clipPath>
    <clipPath id="clipPath144" clipPathUnits="userSpaceOnUse">
      <path style="clip-rule:evenodd" id="path146" d="m 50.52,292.2 511.08,0 0,207.48 -511.08,0 0,-207.48 z"/>
    </clipPath>
    <clipPath id="clipPath156" clipPathUnits="userSpaceOnUse">
      <path style="clip-rule:evenodd" id="path158" d="m 50.52,292.2 511.08,0 0,207.48 -511.08,0 0,-207.48 z"/>
    </clipPath>
    <clipPath id="clipPath168" clipPathUnits="userSpaceOnUse">
      <path style="clip-rule:evenodd" id="path170" d="m 50.52,292.2 511.08,0 0,207.48 -511.08,0 0,-207.48 z"/>
    </clipPath>
    <clipPath id="clipPath180" clipPathUnits="userSpaceOnUse">
      <path style="clip-rule:evenodd" id="path182" d="m 50.52,292.2 511.08,0 0,207.48 -511.08,0 0,-207.48 z"/>
    </clipPath>
    <clipPath id="clipPath192" clipPathUnits="userSpaceOnUse">
      <path style="clip-rule:evenodd" id="path194" d="m 50.52,292.2 511.08,0 0,207.48 -511.08,0 0,-207.48 z"/>
    </clipPath>
    <clipPath id="clipPath204" clipPathUnits="userSpaceOnUse">
      <path style="clip-rule:evenodd" id="path206" d="m 50.52,292.2 511.08,0 0,207.48 -511.08,0 0,-207.48 z"/>
    </clipPath>
    <clipPath id="clipPath216" clipPathUnits="userSpaceOnUse">
      <path style="clip-rule:evenodd" id="path218" d="m 50.52,292.2 511.08,0 0,207.48 -511.08,0 0,-207.48 z"/>
    </clipPath>
    <clipPath id="clipPath228" clipPathUnits="userSpaceOnUse">
      <path style="clip-rule:evenodd" id="path230" d="m 50.52,292.2 511.08,0 0,207.48 -511.08,0 0,-207.48 z"/>
    </clipPath>
    <clipPath id="clipPath240" clipPathUnits="userSpaceOnUse">
      <path style="clip-rule:evenodd" id="path242" d="m 50.52,292.2 511.08,0 0,207.48 -511.08,0 0,-207.48 z"/>
    </clipPath>
    <clipPath id="clipPath252" clipPathUnits="userSpaceOnUse">
      <path style="clip-rule:evenodd" id="path254" d="m 50.52,292.2 511.08,0 0,207.48 -511.08,0 0,-207.48 z"/>
    </clipPath>
    <clipPath id="clipPath264" clipPathUnits="userSpaceOnUse">
      <path style="clip-rule:evenodd" id="path266" d="m 50.52,292.2 511.08,0 0,207.48 -511.08,0 0,-207.48 z"/>
    </clipPath>
    <clipPath id="clipPath276" clipPathUnits="userSpaceOnUse">
      <path style="clip-rule:evenodd" id="path278" d="m 50.52,292.2 511.08,0 0,207.48 -511.08,0 0,-207.48 z"/>
    </clipPath>
    <clipPath id="clipPath288" clipPathUnits="userSpaceOnUse">
      <path style="clip-rule:evenodd" id="path290" d="m 50.52,292.2 511.08,0 0,207.48 -511.08,0 0,-207.48 z"/>
    </clipPath>
    <clipPath id="clipPath300" clipPathUnits="userSpaceOnUse">
      <path style="clip-rule:evenodd" id="path302" d="m 50.52,292.2 511.08,0 0,207.48 -511.08,0 0,-207.48 z"/>
    </clipPath>
    <clipPath id="clipPath312" clipPathUnits="userSpaceOnUse">
      <path style="clip-rule:evenodd" id="path314" d="m 50.52,292.2 511.08,0 0,207.48 -511.08,0 0,-207.48 z"/>
    </clipPath>
    <clipPath id="clipPath326" clipPathUnits="userSpaceOnUse">
      <path style="clip-rule:evenodd" id="path328" d="m 50.52,292.2 511.08,0 0,207.48 -511.08,0 0,-207.48 z"/>
    </clipPath>
    <clipPath id="clipPath344" clipPathUnits="userSpaceOnUse">
      <path style="clip-rule:evenodd" id="path346" d="m 50.52,292.2 511.08,0 0,207.48 -511.08,0 0,-207.48 z"/>
    </clipPath>
  </defs>
  <g transform="matrix(1.25,0,0,-1.25,0,990)" id="g10">
    <g id="g12">
      <g clip-path="url(#clipPath16)" id="g14">
        <path id="path20" style="fill:none;stroke:#000000;stroke-width:0.14;stroke-linecap:butt;stroke-linejoin:miter;stroke-miterlimit:10;stroke-dasharray:none;stroke-opacity:0" d="m 50.513,292.29 511.2,0 0,207.5 -511.2,0 0,-207.5 z"/>
      </g>
    </g>
    <path id="path22" style="fill:#137cb1;fill-opacity:1;fill-rule:nonzero;stroke:none" d="m 86.805,447.32 25.405,0 0,-99.19 -25.405,0 0,99.19 z m 43.135,-16.8 25.41,0 0,-82.39 -25.41,0 0,82.39 z m 43.14,-12.44 25.3,0 0,-69.95 -25.3,0 0,69.95 z m 43.13,-5.6 25.3,0 0,-64.35 -25.3,0 0,64.35 z m 43.03,-11.82 25.41,0 0,-52.53 -25.41,0 0,52.53 z m 43.14,-2.38 25.4,0 0,-50.15 -25.4,0 0,50.15 z m 43.14,-15.87 25.4,0 0,-34.28 -25.4,0 0,34.28 z m 43.13,-17.31 25.3,0 0,-16.97 -25.3,0 0,16.97 z m 43.14,-14 25.3,0 0,-2.97 -25.3,0 0,2.97 z m 43.03,-0.73 25.4,0 0,-2.24 -25.4,0 0,2.24 z m 43.14,-0.21 25.4,0 0,-2.03 -25.4,0 0,2.03 z"/>
    <path id="path24" style="fill:#deebf7;fill-opacity:1;fill-rule:nonzero;stroke:none" d="m 86.805,454.89 25.405,0 0,-7.57 -25.405,0 0,7.57 z m 43.135,-15.55 25.41,0 0,-8.82 -25.41,0 0,8.82 z m 43.14,-15.56 25.3,0 0,-5.7 -25.3,0 0,5.7 z m 43.13,-4.35 25.3,0 0,-6.95 -25.3,0 0,6.95 z m 43.03,-13.79 25.41,0 0,-4.98 -25.41,0 0,4.98 z m 43.14,-2.08 25.4,0 0,-5.28 -25.4,0 0,5.28 z m 43.14,-19.8 25.4,0 0,-1.35 -25.4,0 0,1.35 z m 43.13,-16.69 25.3,0 0,-1.97 -25.3,0 0,1.97 z m 43.14,-15.66 25.3,0 0,-0.31 -25.3,0 0,0.31 z m 43.03,-0.52 25.4,0 0,-0.52 -25.4,0 0,0.52 z m 43.14,-0.52 25.4,0 0,-0.21 -25.4,0 0,0.21 z"/>
    <g id="g26">
      <path id="path28" style="fill:none;stroke:#000000;stroke-width:0.64806998;stroke-linecap:butt;stroke-linejoin:round;stroke-miterlimit:10;stroke-dasharray:2.5923, 1.9442;stroke-dashoffset:0;stroke-opacity:1" d="m 86.805,454.89 25.405,0 0,-7.57 -25.405,0 0,7.57 z m 43.135,-15.55 25.41,0 0,-8.82 -25.41,0 0,8.82 z m 43.14,-15.56 25.3,0 0,-5.7 -25.3,0 0,5.7 z m 43.13,-4.35 25.3,0 0,-6.95 -25.3,0 0,6.95 z m 43.03,-13.79 25.41,0 0,-4.98 -25.41,0 0,4.98 z m 43.14,-2.08 25.4,0 0,-5.28 -25.4,0 0,5.28 z m 43.14,-19.8 25.4,0 0,-1.35 -25.4,0 0,1.35 z m 43.13,-16.69 25.3,0 0,-1.97 -25.3,0 0,1.97 z m 43.14,-15.66 25.3,0 0,-0.31 -25.3,0 0,0.31 z m 43.03,-0.52 25.4,0 0,-0.52 -25.4,0 0,0.52 z m 43.14,-0.52 25.4,0 0,-0.21 -25.4,0 0,0.21 z"/>
    </g>
    <path id="path30" style="fill:none;stroke:#d9d9d9;stroke-width:0.64806998;stroke-linecap:butt;stroke-linejoin:round;stroke-miterlimit:10;stroke-dasharray:none;stroke-opacity:1" d="m 77.952,348.13 474.258,0"/>
    <g id="g32">
      <g clip-path="url(#clipPath36)" id="g34"><text id="text40" style="font-variant:normal;font-weight:normal;font-size:7.77600002px;font-family:Arial;-inkscape-font-specification:Arial;writing-mode:lr-tb;fill:#000000;fill-opacity:1;fill-rule:nonzero;stroke:none" transform="matrix(1,0,0,-1,60.48,345.58)"><tspan id="tspan42" y="0" x="0 4.343956">$0</tspan></text>
</g>
    </g>
    <g id="g44">
      <g clip-path="url(#clipPath48)" id="g46"><text id="text52" style="font-variant:normal;font-weight:normal;font-size:7.77600002px;font-family:Arial;-inkscape-font-specification:Arial;writing-mode:lr-tb;fill:#000000;fill-opacity:1;fill-rule:nonzero;stroke:none" transform="matrix(1,0,0,-1,60.48,363.22)"><tspan id="tspan54" y="0" x="0 4.343956">$5</tspan></text>
</g>
    </g>
    <g id="g56">
      <g clip-path="url(#clipPath60)" id="g58"><text id="text64" style="font-variant:normal;font-weight:normal;font-size:7.77600002px;font-family:Arial;-inkscape-font-specification:Arial;writing-mode:lr-tb;fill:#000000;fill-opacity:1;fill-rule:nonzero;stroke:none" transform="matrix(1,0,0,-1,56.136,380.86)"><tspan id="tspan66" y="0" x="0 4.3623362 8.6080322">$10</tspan></text>
</g>
    </g>
    <g id="g68">
      <g clip-path="url(#clipPath72)" id="g70"><text id="text76" style="font-variant:normal;font-weight:normal;font-size:7.77600002px;font-family:Arial;-inkscape-font-specification:Arial;writing-mode:lr-tb;fill:#000000;fill-opacity:1;fill-rule:nonzero;stroke:none" transform="matrix(1,0,0,-1,56.136,398.5)"><tspan id="tspan78" y="0" x="0 4.3623362 8.6080322">$15</tspan></text>
</g>
    </g>
    <g id="g80">
      <g clip-path="url(#clipPath84)" id="g82"><text id="text88" style="font-variant:normal;font-weight:normal;font-size:7.77600002px;font-family:Arial;-inkscape-font-specification:Arial;writing-mode:lr-tb;fill:#000000;fill-opacity:1;fill-rule:nonzero;stroke:none" transform="matrix(1,0,0,-1,56.136,416.14)"><tspan id="tspan90" y="0" x="0 4.3623362 8.6080322">$20</tspan></text>
</g>
    </g>
    <g id="g92">
      <g clip-path="url(#clipPath96)" id="g94"><text id="text100" style="font-variant:normal;font-weight:normal;font-size:7.77600002px;font-family:Arial;-inkscape-font-specification:Arial;writing-mode:lr-tb;fill:#000000;fill-opacity:1;fill-rule:nonzero;stroke:none" transform="matrix(1,0,0,-1,56.136,433.78)"><tspan id="tspan102" y="0" x="0 4.3623362 8.6080322">$25</tspan></text>
</g>
    </g>
    <g id="g104">
      <g clip-path="url(#clipPath108)" id="g106"><text id="text112" style="font-variant:normal;font-weight:normal;font-size:7.77600002px;font-family:Arial;-inkscape-font-specification:Arial;writing-mode:lr-tb;fill:#000000;fill-opacity:1;fill-rule:nonzero;stroke:none" transform="matrix(1,0,0,-1,56.136,451.42)"><tspan id="tspan114" y="0" x="0 4.3623362 8.6080322">$30</tspan></text>
</g>
    </g>
    <g id="g116">
      <g clip-path="url(#clipPath120)" id="g118"><text id="text124" style="font-variant:normal;font-weight:normal;font-size:7.77600002px;font-family:Arial;-inkscape-font-specification:Arial;writing-mode:lr-tb;fill:#000000;fill-opacity:1;fill-rule:nonzero;stroke:none" transform="matrix(1,0,0,-1,56.136,469.06)"><tspan id="tspan126" y="0" x="0 4.3623362 8.6080322">$35</tspan></text>
</g>
    </g>
    <g id="g128">
      <g clip-path="url(#clipPath132)" id="g130"><text id="text136" style="font-variant:normal;font-weight:normal;font-size:7.77600002px;font-family:Arial;-inkscape-font-specification:Arial;writing-mode:lr-tb;fill:#000000;fill-opacity:1;fill-rule:nonzero;stroke:none" transform="matrix(1,0,0,-1,87.648,336.31)"><tspan id="tspan138" y="0" x="0 5.6142721 7.3405442 11.181888 15.505344 19.859903">Disney</tspan></text>
</g>
    </g>
    <g id="g140">
      <g clip-path="url(#clipPath144)" id="g142"><text id="text148" style="font-variant:normal;font-weight:normal;font-size:7.77600002px;font-family:Arial;-inkscape-font-specification:Arial;writing-mode:lr-tb;fill:#000000;fill-opacity:1;fill-rule:nonzero;stroke:none" transform="matrix(1,0,0,-1,128.38,336.31)"><tspan id="tspan150" y="0" x="0 5.1865921 11.726208 15.995232 19.94544 24.214464">Amazon</tspan></text>
</g>
    </g>
    <g id="g152">
      <g clip-path="url(#clipPath156)" id="g154"><text id="text160" style="font-variant:normal;font-weight:normal;font-size:7.77600002px;font-family:Arial;-inkscape-font-specification:Arial;writing-mode:lr-tb;fill:#000000;fill-opacity:1;fill-rule:nonzero;stroke:none" transform="matrix(1,0,0,-1,170.42,336.31)"><tspan id="tspan162" y="0" x="0 5.6142721 9.9766083 16.40736 20.357569 24.719904 28.561249">Comcast</tspan></text>
</g>
    </g>
    <g id="g164">
      <g clip-path="url(#clipPath168)" id="g166"><text id="text172" style="font-variant:normal;font-weight:normal;font-size:7.77600002px;font-family:Arial;-inkscape-font-specification:Arial;writing-mode:lr-tb;fill:#000000;fill-opacity:1;fill-rule:nonzero;stroke:none" transform="matrix(1,0,0,-1,218.09,336.31)"><tspan id="tspan174" y="0" x="0 5.6142721 9.9377279 12.138336 14.300064 15.97968 17.744831">Netflix</tspan></text>
</g>
    </g>
    <g id="g176">
      <g clip-path="url(#clipPath180)" id="g178"><text id="text184" style="font-variant:normal;font-weight:normal;font-size:7.77600002px;font-family:Arial;-inkscape-font-specification:Arial;writing-mode:lr-tb;fill:#000000;fill-opacity:1;fill-rule:nonzero;stroke:none" transform="matrix(1,0,0,-1,252.98,336.31)"><tspan id="tspan186" y="0" x="0 5.1865921 9.541152 12.13056 16.40736 22.954752 27.317087 31.586111 35.948448">Paramount</tspan></text>
</g>
    </g>
    <g id="g188">
      <g clip-path="url(#clipPath192)" id="g190"><text id="text196" style="font-variant:normal;font-weight:normal;font-size:7.77600002px;font-family:Arial;-inkscape-font-specification:Arial;writing-mode:lr-tb;fill:#000000;fill-opacity:1;fill-rule:nonzero;stroke:none" transform="matrix(1,0,0,-1,302.4,336.31)"><tspan id="tspan198" y="0" x="0 7.3405442 11.679552 14.15232 18.475777 22.830336">Warner</tspan></text>
</g>
    </g>
    <g id="g200">
      <g clip-path="url(#clipPath204)" id="g202"><text id="text208" style="font-variant:normal;font-weight:normal;font-size:7.77600002px;font-family:Arial;-inkscape-font-specification:Arial;writing-mode:lr-tb;fill:#000000;fill-opacity:1;fill-rule:nonzero;stroke:none" transform="matrix(1,0,0,-1,306.07,327.38)"><tspan id="tspan210" y="0" x="0 5.1865921 7.776 12.099456 15.933024">Bros.</tspan></text>
</g>
    </g>
    <g id="g212">
      <g clip-path="url(#clipPath216)" id="g214"><text id="text220" style="font-variant:normal;font-weight:normal;font-size:7.77600002px;font-family:Arial;-inkscape-font-specification:Arial;writing-mode:lr-tb;fill:#000000;fill-opacity:1;fill-rule:nonzero;stroke:none" transform="matrix(1,0,0,-1,298.08,318.43)"><tspan id="tspan222" y="0" x="0 5.6142721 7.3405442 11.15856 15.08544 19.408895 23.242464 27.56592 30.155329">Discovery</tspan></text>
</g>
    </g>
    <g id="g224">
      <g clip-path="url(#clipPath228)" id="g226"><text id="text232" style="font-variant:normal;font-weight:normal;font-size:7.77600002px;font-family:Arial;-inkscape-font-specification:Arial;writing-mode:lr-tb;fill:#000000;fill-opacity:1;fill-rule:nonzero;stroke:none" transform="matrix(1,0,0,-1,351.77,336.31)"><tspan id="tspan234" y="0" x="0 4.7666879 9.1290236">Fox</tspan></text>
</g>
    </g>
    <g id="g236">
      <g clip-path="url(#clipPath240)" id="g238"><text id="text244" style="font-variant:normal;font-weight:normal;font-size:7.77600002px;font-family:Arial;-inkscape-font-specification:Arial;writing-mode:lr-tb;fill:#000000;fill-opacity:1;fill-rule:nonzero;stroke:none" transform="matrix(1,0,0,-1,391.44,336.31)"><tspan id="tspan246" y="0" x="0 5.1865921 9.5100479 13.779072 15.520896">Apple</tspan></text>
</g>
    </g>
    <g id="g248">
      <g clip-path="url(#clipPath252)" id="g250"><text id="text256" style="font-variant:normal;font-weight:normal;font-size:7.77600002px;font-family:Arial;-inkscape-font-specification:Arial;writing-mode:lr-tb;fill:#000000;fill-opacity:1;fill-rule:nonzero;stroke:none" transform="matrix(1,0,0,-1,435.86,336.31)"><tspan id="tspan258" y="0" x="0 5.1865921 11.70288">AMC</tspan></text>
</g>
    </g>
    <g id="g260">
      <g clip-path="url(#clipPath264)" id="g262"><text id="text268" style="font-variant:normal;font-weight:normal;font-size:7.77600002px;font-family:Arial;-inkscape-font-specification:Arial;writing-mode:lr-tb;fill:#000000;fill-opacity:1;fill-rule:nonzero;stroke:none" transform="matrix(1,0,0,-1,428.3,327.38)"><tspan id="tspan270" y="0" x="0 5.6142721 9.9377279 12.099456 17.690399 22.013857 24.603264 28.467936">Networks</tspan></text>
</g>
    </g>
    <g id="g272">
      <g clip-path="url(#clipPath276)" id="g274"><text id="text280" style="font-variant:normal;font-weight:normal;font-size:7.77600002px;font-family:Arial;-inkscape-font-specification:Arial;writing-mode:lr-tb;fill:#000000;fill-opacity:1;fill-rule:nonzero;stroke:none" transform="matrix(1,0,0,-1,470.76,336.31)"><tspan id="tspan282" y="0" x="0 4.3234558 6.0030718 10.326528 14.681088 18.522432 22.845888 27.200447 29.362177">Lionsgate</tspan></text>
</g>
    </g>
    <g id="g284">
      <g clip-path="url(#clipPath288)" id="g286"><text id="text292" style="font-variant:normal;font-weight:normal;font-size:7.77600002px;font-family:Arial;-inkscape-font-specification:Arial;writing-mode:lr-tb;fill:#000000;fill-opacity:1;fill-rule:nonzero;stroke:none" transform="matrix(1,0,0,-1,474.65,327.38)"><tspan id="tspan294" y="0" x="0 5.1865921 7.34832 11.726208 15.971904 17.737057 22.099392">Studios</tspan></text>
</g>
    </g>
    <g id="g296">
      <g clip-path="url(#clipPath300)" id="g298"><text id="text304" style="font-variant:normal;font-weight:normal;font-size:7.77600002px;font-family:Arial;-inkscape-font-specification:Arial;writing-mode:lr-tb;fill:#000000;fill-opacity:1;fill-rule:nonzero;stroke:none" transform="matrix(1,0,0,-1,521.66,336.31)"><tspan id="tspan306" y="0" x="0 5.1865921 7.34832 11.726208 14.315616">Starz</tspan></text>
</g>
    </g>
    <g id="g308">
      <g clip-path="url(#clipPath312)" id="g310"><text id="text316" style="font-variant:normal;font-weight:normal;font-size:9.52799988px;font-family:Arial;-inkscape-font-specification:Arial;writing-mode:lr-tb;fill:#000000;fill-opacity:1;fill-rule:nonzero;stroke:none" transform="matrix(1,0,0,-1,200.38,484.34)"><tspan id="tspan318" y="0" x="0 5.9168882 11.214456 13.920408 19.217976 21.333193 23.810472 29.10804 34.405609 39.703175 45.000744 51.355919 54.061871 60.417049 63.58987 68.906494 74.299347 77.510277 82.807846 90.792313 98.776779 100.89199 106.18956 111.48713 114.17403 121.05324 126.35081 131.64838 134.23999 139.53757 144.83513 147.55061 149.85638 156.21156 160.87076 166.16832 171.46588 176.76346 181.54651 186.84409 189.64531 192.85625 198.15381 203.45139 208.74895">Total 2025E Programming/Content Expense ($bn)</tspan></text>
</g>
    </g>
    <path id="path320" style="fill:#137cb1;fill-opacity:1;fill-rule:evenodd;stroke:none" d="m 113.4,302.41 3.9079,0 0,3.9079 -3.9079,0 0,-3.9079 z"/>
    <g id="g322">
      <g clip-path="url(#clipPath326)" id="g324"><text id="text330" style="font-variant:normal;font-weight:normal;font-size:7.77600002px;font-family:Arial;-inkscape-font-specification:Arial;writing-mode:lr-tb;fill:#000000;fill-opacity:1;fill-rule:nonzero;stroke:none" transform="matrix(1,0,0,-1,118.97,301.82)"><tspan id="tspan332" y="0" x="0 5.6142721 9.9377279 14.261184 16.345152 20.668608 25.023169 27.184896 29.385504 34.572098 38.405663 42.729118 46.998142 51.321602 55.271809 59.517506 61.679234 63.879841 68.203293 72.472321 76.3992 78.560928 81.165886 86.352478 88.514206 90.598175 94.525055 98.848511 102.70541 104.44724 108.77069 113.03971">Content Expense, post-AI savings</tspan></text>
</g>
    </g>
    <path id="path334" style="fill:#deebf7;fill-opacity:1;fill-rule:evenodd;stroke:none" d="m 262.78,302.41 3.9079,0 0,3.9079 -3.9079,0 0,-3.9079 z"/>
    <g id="g336">
      <path id="path338" style="fill:none;stroke:#000000;stroke-width:0.64806998;stroke-linecap:butt;stroke-linejoin:round;stroke-miterlimit:10;stroke-dasharray:2.5923, 1.9442;stroke-dashoffset:0;stroke-opacity:1" d="m 262.78,302.41 3.9079,0 0,3.9079 -3.9079,0 0,-3.9079 z"/>
    </g>
    <g id="g340">
      <g clip-path="url(#clipPath344)" id="g342"><text id="text348" style="font-variant:normal;font-weight:normal;font-size:7.77600002px;font-family:Arial;-inkscape-font-specification:Arial;writing-mode:lr-tb;fill:#000000;fill-opacity:1;fill-rule:nonzero;stroke:none" transform="matrix(1,0,0,-1,268.37,301.82)"><tspan id="tspan350" y="0" x="0 5.6142721 9.5178242 13.76352 18.086975 20.287584 24.61104 28.880064 31.041792 32.806946 36.648289 40.971745 42.736897 44.898624 50.085217 52.674625 56.943649 61.267105 63.467712 69.081985 73.405441 77.24678 79.408508 81.609123 86.795715 91.119171 94.976067 96.717888 100.96358 105.28704 109.23725 111.39898 115.668 119.99146 122.19206 127.37865 131.70212 133.37395 135.53568 138.14064 143.32722 145.91664 150.2401 154.50912 158.83258 162.78279 167.02847 171.35193 173.55255 179.16681 183.49026 187.73596 189.89769 194.26003 198.58348 200.7841 202.84474 208.03133 211.95821 216.28166 220.55069 224.87415 228.82436">Hypothetical Prog Cost Savings on Self-Produced Content Expense</tspan></text>
</g>
    </g>
  </g>
</svg>
