<?xml version="1.0" encoding="UTF-8" standalone="no"?>
<svg xmlns:dc="http://purl.org/dc/elements/1.1/" xmlns:cc="http://creativecommons.org/ns#" xmlns:rdf="http://www.w3.org/1999/02/22-rdf-syntax-ns#" xmlns:svg="http://www.w3.org/2000/svg" xmlns="http://www.w3.org/2000/svg" viewBox="66.31625 401.2375 650.6875 358.7125" height="358.7125" width="650.6875" xml:space="preserve" version="1.1" id="svg2">
  <metadata id="metadata8">
    <rdf:RDF>
      <cc:Work rdf:about="">
        <dc:format>image/svg+xml</dc:format>
        <dc:type rdf:resource="http://purl.org/dc/dcmitype/StillImage"/>
      </cc:Work>
    </rdf:RDF>
  </metadata>
  <defs id="defs6">
    <clipPath id="clipPath16" clipPathUnits="userSpaceOnUse">
      <path style="clip-rule:evenodd" id="path18" d="m 53.053,278.27 520.55,0 0,286.99 -520.55,0 0,-286.99 z"/>
    </clipPath>
    <clipPath id="clipPath26" clipPathUnits="userSpaceOnUse">
      <path style="clip-rule:evenodd" id="path28" d="m 53.053,278.27 520.55,0 0,286.99 -520.55,0 0,-286.99 z"/>
    </clipPath>
    <clipPath id="clipPath42" clipPathUnits="userSpaceOnUse">
      <path style="clip-rule:evenodd" id="path44" d="m 83.064,319.32 455.04,0 0,213.96 -455.04,0 0,-213.96 z"/>
    </clipPath>
    <clipPath id="clipPath52" clipPathUnits="userSpaceOnUse">
      <path style="clip-rule:evenodd" id="path54" d="m 53.179,278.27 520.42,0 0,286.86 -520.42,0 0,-286.86 z"/>
    </clipPath>
    <clipPath id="clipPath64" clipPathUnits="userSpaceOnUse">
      <path style="clip-rule:evenodd" id="path66" d="m 53.179,278.27 520.42,0 0,286.86 -520.42,0 0,-286.86 z"/>
    </clipPath>
    <clipPath id="clipPath76" clipPathUnits="userSpaceOnUse">
      <path style="clip-rule:evenodd" id="path78" d="m 53.179,278.27 520.42,0 0,286.86 -520.42,0 0,-286.86 z"/>
    </clipPath>
    <clipPath id="clipPath88" clipPathUnits="userSpaceOnUse">
      <path style="clip-rule:evenodd" id="path90" d="m 53.179,278.27 520.42,0 0,286.86 -520.42,0 0,-286.86 z"/>
    </clipPath>
    <clipPath id="clipPath100" clipPathUnits="userSpaceOnUse">
      <path style="clip-rule:evenodd" id="path102" d="m 53.179,278.27 520.42,0 0,286.86 -520.42,0 0,-286.86 z"/>
    </clipPath>
    <clipPath id="clipPath112" clipPathUnits="userSpaceOnUse">
      <path style="clip-rule:evenodd" id="path114" d="m 53.179,278.27 520.42,0 0,286.86 -520.42,0 0,-286.86 z"/>
    </clipPath>
    <clipPath id="clipPath124" clipPathUnits="userSpaceOnUse">
      <path style="clip-rule:evenodd" id="path126" d="m 53.179,278.27 520.42,0 0,286.86 -520.42,0 0,-286.86 z"/>
    </clipPath>
    <clipPath id="clipPath136" clipPathUnits="userSpaceOnUse">
      <path style="clip-rule:evenodd" id="path138" d="m 53.179,278.27 520.42,0 0,286.86 -520.42,0 0,-286.86 z"/>
    </clipPath>
    <clipPath id="clipPath148" clipPathUnits="userSpaceOnUse">
      <path style="clip-rule:evenodd" id="path150" d="m 53.179,278.27 520.42,0 0,286.86 -520.42,0 0,-286.86 z"/>
    </clipPath>
    <clipPath id="clipPath160" clipPathUnits="userSpaceOnUse">
      <path style="clip-rule:evenodd" id="path162" d="m 53.179,278.27 520.42,0 0,286.86 -520.42,0 0,-286.86 z"/>
    </clipPath>
    <clipPath id="clipPath172" clipPathUnits="userSpaceOnUse">
      <path style="clip-rule:evenodd" id="path174" d="m 53.179,278.27 520.42,0 0,286.86 -520.42,0 0,-286.86 z"/>
    </clipPath>
    <clipPath id="clipPath184" clipPathUnits="userSpaceOnUse">
      <path style="clip-rule:evenodd" id="path186" d="m 53.179,278.27 520.42,0 0,286.86 -520.42,0 0,-286.86 z"/>
    </clipPath>
    <clipPath id="clipPath196" clipPathUnits="userSpaceOnUse">
      <path style="clip-rule:evenodd" id="path198" d="m 53.179,278.27 520.42,0 0,286.86 -520.42,0 0,-286.86 z"/>
    </clipPath>
    <clipPath id="clipPath208" clipPathUnits="userSpaceOnUse">
      <path style="clip-rule:evenodd" id="path210" d="m 53.179,278.27 520.42,0 0,286.86 -520.42,0 0,-286.86 z"/>
    </clipPath>
    <clipPath id="clipPath220" clipPathUnits="userSpaceOnUse">
      <path style="clip-rule:evenodd" id="path222" d="m 53.179,278.27 520.42,0 0,286.86 -520.42,0 0,-286.86 z"/>
    </clipPath>
    <clipPath id="clipPath232" clipPathUnits="userSpaceOnUse">
      <path style="clip-rule:evenodd" id="path234" d="m 53.179,278.27 520.42,0 0,286.86 -520.42,0 0,-286.86 z"/>
    </clipPath>
    <clipPath id="clipPath244" clipPathUnits="userSpaceOnUse">
      <path style="clip-rule:evenodd" id="path246" d="m 53.179,278.27 520.42,0 0,286.86 -520.42,0 0,-286.86 z"/>
    </clipPath>
    <clipPath id="clipPath256" clipPathUnits="userSpaceOnUse">
      <path style="clip-rule:evenodd" id="path258" d="m 53.179,278.27 520.42,0 0,286.86 -520.42,0 0,-286.86 z"/>
    </clipPath>
    <clipPath id="clipPath268" clipPathUnits="userSpaceOnUse">
      <path style="clip-rule:evenodd" id="path270" d="m 53.179,278.27 520.42,0 0,286.86 -520.42,0 0,-286.86 z"/>
    </clipPath>
    <clipPath id="clipPath280" clipPathUnits="userSpaceOnUse">
      <path style="clip-rule:evenodd" id="path282" d="m 53.179,278.27 520.42,0 0,286.86 -520.42,0 0,-286.86 z"/>
    </clipPath>
    <clipPath id="clipPath292" clipPathUnits="userSpaceOnUse">
      <path style="clip-rule:evenodd" id="path294" d="m 53.179,278.27 520.42,0 0,286.86 -520.42,0 0,-286.86 z"/>
    </clipPath>
    <clipPath id="clipPath304" clipPathUnits="userSpaceOnUse">
      <path style="clip-rule:evenodd" id="path306" d="m 53.179,278.27 520.42,0 0,286.86 -520.42,0 0,-286.86 z"/>
    </clipPath>
    <clipPath id="clipPath316" clipPathUnits="userSpaceOnUse">
      <path style="clip-rule:evenodd" id="path318" d="m 53.179,278.27 520.42,0 0,286.86 -520.42,0 0,-286.86 z"/>
    </clipPath>
    <clipPath id="clipPath328" clipPathUnits="userSpaceOnUse">
      <path style="clip-rule:evenodd" id="path330" d="m 53.179,278.27 520.42,0 0,286.86 -520.42,0 0,-286.86 z"/>
    </clipPath>
    <clipPath id="clipPath340" clipPathUnits="userSpaceOnUse">
      <path style="clip-rule:evenodd" id="path342" d="m 53.179,278.27 520.42,0 0,286.86 -520.42,0 0,-286.86 z"/>
    </clipPath>
    <clipPath id="clipPath352" clipPathUnits="userSpaceOnUse">
      <path style="clip-rule:evenodd" id="path354" d="m 53.179,278.27 520.42,0 0,286.86 -520.42,0 0,-286.86 z"/>
    </clipPath>
    <clipPath id="clipPath364" clipPathUnits="userSpaceOnUse">
      <path style="clip-rule:evenodd" id="path366" d="m 53.179,278.27 520.42,0 0,286.86 -520.42,0 0,-286.86 z"/>
    </clipPath>
    <clipPath id="clipPath376" clipPathUnits="userSpaceOnUse">
      <path style="clip-rule:evenodd" id="path378" d="m 53.179,278.27 520.42,0 0,286.86 -520.42,0 0,-286.86 z"/>
    </clipPath>
    <clipPath id="clipPath390" clipPathUnits="userSpaceOnUse">
      <path style="clip-rule:evenodd" id="path392" d="m 53.179,278.27 520.42,0 0,286.86 -520.42,0 0,-286.86 z"/>
    </clipPath>
    <clipPath id="clipPath404" clipPathUnits="userSpaceOnUse">
      <path style="clip-rule:evenodd" id="path406" d="m 53.179,278.27 520.42,0 0,286.86 -520.42,0 0,-286.86 z"/>
    </clipPath>
  </defs>
  <g transform="matrix(1.25,0,0,-1.25,0,1107.7875)" id="g10">
    <g id="g12">
      <g clip-path="url(#clipPath16)" id="g14">
        <path id="path20" style="fill:none;stroke:#000000;stroke-width:0.14;stroke-linecap:butt;stroke-linejoin:miter;stroke-miterlimit:10;stroke-dasharray:none;stroke-opacity:0" d="m 53.103,278.19 520.55,0 0,286.98 -520.55,0 0,-286.98 z"/>
      </g>
    </g>
    <g id="g22">
      <g clip-path="url(#clipPath26)" id="g24">
        <path id="path30" style="fill:#ffffff;fill-opacity:1;fill-rule:evenodd;stroke:none" d="m 53.103,278.19 520.54,0 0,286.98 -520.54,0 0,-286.98 z"/>
      </g>
    </g>
    <path id="path32" style="fill:#137cb1;fill-opacity:1;fill-rule:nonzero;stroke:none" d="m 84.183,327.7 4.215,0 0,-7.73 -4.215,0 0,7.73 z m 6.38,-5.24 4.328,0 0,-2.49 -4.328,0 0,2.49 z m 6.379,-1.71 4.328,0 0,-0.78 -4.328,0 0,0.78 z m 6.498,9.68 4.21,0 0,-10.46 -4.21,0 0,10.46 z m 6.37,1.26 4.22,0 0,-11.72 -4.22,0 0,11.72 z m 6.38,-8.43 4.22,0 0,-3.29 -4.22,0 0,3.29 z m 6.38,15.37 4.22,0 0,-18.66 -4.22,0 0,18.66 z m 6.38,-0.68 4.33,0 0,-17.98 -4.33,0 0,17.98 z m 6.38,-4.67 4.33,0 0,-13.31 -4.33,0 0,13.31 z m 6.49,-3.53 4.22,0 0,-9.78 -4.22,0 0,9.78 z m 6.38,8.77 4.22,0 0,-18.55 -4.22,0 0,18.55 z m 6.38,-8.54 4.22,0 0,-10.01 -4.22,0 0,10.01 z m 6.38,30.87 4.33,0 0,-40.88 -4.33,0 0,40.88 z m 6.38,-8.77 4.33,0 0,-32.11 -4.33,0 0,32.11 z m 6.38,-16.63 4.33,0 0,-15.48 -4.33,0 0,15.48 z m 6.49,11.05 4.22,0 0,-26.53 -4.22,0 0,26.53 z m 6.38,-7.3 4.22,0 0,-19.23 -4.22,0 0,19.23 z m 6.38,11.62 4.22,0 0,-30.85 -4.22,0 0,30.85 z m 6.38,-13.44 4.33,0 0,-17.41 -4.33,0 0,17.41 z m 6.38,7.18 4.33,0 0,-24.59 -4.33,0 0,24.59 z m 6.38,-9 4.33,0 0,-15.59 -4.33,0 0,15.59 z m 6.49,0.11 4.22,0 0,-15.7 -4.22,0 0,15.7 z m 6.38,17.55 4.22,0 0,-33.25 -4.22,0 0,33.25 z m 6.38,19.48 4.22,0 0,-52.73 -4.22,0 0,52.73 z m 6.38,-46.82 4.33,0 0,-5.91 -4.33,0 0,5.91 z m 6.38,26.77 4.33,0 0,-32.68 -4.33,0 0,32.68 z m 6.38,-9.8 4.33,0 0,-22.88 -4.33,0 0,22.88 z m 6.49,6.61 4.22,0 0,-29.49 -4.22,0 0,29.49 z m 6.38,-12.65 4.22,0 0,-16.84 -4.22,0 0,16.84 z m 6.38,-9.68 4.22,0 0,-7.16 -4.22,0 0,7.16 z m 6.38,-5.24 4.33,0 0,-1.92 -4.33,0 0,1.92 z m 6.38,19.36 4.33,0 0,-21.28 -4.33,0 0,21.28 z m 6.38,-12.41 4.33,0 0,-8.87 -4.33,0 0,8.87 z m 6.49,26.2 4.22,0 0,-35.07 -4.22,0 0,35.07 z m 6.38,-26.2 4.22,0 0,-8.87 -4.22,0 0,8.87 z m 6.38,5.24 4.22,0 0,-14.11 -4.22,0 0,14.11 z m 6.38,-1.37 4.33,0 0,-12.74 -4.33,0 0,12.74 z m 6.38,1.03 4.33,0 0,-13.77 -4.33,0 0,13.77 z m 6.49,16.63 4.22,0 0,-30.4 -4.22,0 0,30.4 z m 6.38,-24.84 4.22,0 0,-5.56 -4.22,0 0,5.56 z m 6.38,32.36 4.22,0 0,-37.92 -4.22,0 0,37.92 z m 6.38,21.98 4.22,0 0,-59.9 -4.22,0 0,59.9 z m 6.38,-25.4 4.33,0 0,-34.5 -4.33,0 0,34.5 z m 6.38,59.8 4.33,0 0,-94.3 -4.33,0 0,94.3 z m 6.49,79.29 4.22,0 0,-173.59 -4.22,0 0,173.59 z m 6.38,-83.96 4.22,0 0,-89.63 -4.22,0 0,89.63 z m 6.38,12.08 4.22,0 0,-101.71 -4.22,0 0,101.71 z m 6.38,46.25 4.33,0 0,-147.96 -4.33,0 0,147.96 z m 6.38,-60.03 4.33,0 0,-87.93 -4.33,0 0,87.93 z m 6.38,-36.8 4.33,0 0,-51.13 -4.33,0 0,51.13 z m 6.49,96.03 4.22,0 0,-147.16 -4.22,0 0,147.16 z m 6.38,-84.75 4.22,0 0,-62.41 -4.22,0 0,62.41 z m 6.38,28.82 4.21,0 0,-91.23 -4.21,0 0,91.23 z m 6.38,-17.66 4.33,0 0,-73.57 -4.33,0 0,73.57 z m 6.38,77.69 4.33,0 0,-151.26 -4.33,0 0,151.26 z m 6.38,-96.83 4.33,0 0,-54.43 -4.33,0 0,54.43 z m 6.49,144.11 4.22,0 0,-198.54 -4.22,0 0,198.54 z m 6.38,-144.56 4.22,0 0,-53.98 -4.22,0 0,53.98 z m 6.38,37.7 4.21,0 0,-91.68 -4.21,0 0,91.68 z m 6.38,82.37 4.33,0 0,-174.05 -4.33,0 0,174.05 z m 6.38,-65.39 4.33,0 0,-108.66 -4.33,0 0,108.66 z m 6.38,-63.45 4.33,0 0,-45.21 -4.33,0 0,45.21 z m 6.49,68.8 4.22,0 0,-114.01 -4.22,0 0,114.01 z m 6.38,-79.4 4.21,0 0,-34.61 -4.21,0 0,34.61 z m 6.38,-1.25 4.21,0 0,-33.36 -4.21,0 0,33.36 z m 6.38,64.13 4.33,0 0,-97.49 -4.33,0 0,97.49 z m 6.38,1.83 4.33,0 0,-99.32 -4.33,0 0,99.32 z m 6.38,-13.1 4.33,0 0,-86.22 -4.33,0 0,86.22 z m 6.49,83.95 4.21,0 0,-170.17 -4.21,0 0,170.17 z m 6.38,-40.55 4.21,0 0,-129.62 -4.21,0 0,129.62 z m 6.38,-47.28 4.21,0 0,-82.34 -4.21,0 0,82.34 z"/>
    <path id="path34" style="fill:none;stroke:#d9d9d9;stroke-width:0.67646003;stroke-linecap:butt;stroke-linejoin:round;stroke-miterlimit:10;stroke-dasharray:none;stroke-opacity:1" d="m 83.119,319.97 454.311,0"/>
    <path id="path36" style="fill:none;stroke:#d9d9d9;stroke-width:0.67646003;stroke-linecap:butt;stroke-linejoin:round;stroke-miterlimit:10;stroke-dasharray:none;stroke-opacity:1" d="m 83.119,319.97 0,-2.58 m 38.431,2.58 0,-2.58 m 38.39,2.58 0,-2.58 m 38.39,2.58 0,-2.58 m 38.39,2.58 0,-2.58 m 38.39,2.58 0,-2.58 m 38.38,2.58 0,-2.58 m 38.39,2.58 0,-2.58 m 38.39,2.58 0,-2.58 m 38.39,2.58 0,-2.58 m 38.39,2.58 0,-2.58 m 38.39,2.58 0,-2.58"/>
    <g id="g38">
      <g clip-path="url(#clipPath42)" id="g40">
        <path id="path46" style="fill:none;stroke:#eacc80;stroke-width:2.02940011;stroke-linecap:round;stroke-linejoin:round;stroke-miterlimit:10;stroke-dasharray:none;stroke-opacity:1" d="m 99.116,372.7 6.374,71.31 6.37,358.83 6.5,-300.85 6.38,-77.12 6.38,-5.58 6.38,43.74 6.37,-60.26 6.38,-1.25 6.5,-34.18 6.38,72.79 6.38,49.44 6.38,403.26 6.37,-187.62 6.38,-195.13 6.5,24.03 6.38,-71.31 6.38,-12.98 6.37,-47.96 6.38,14.58 6.5,13.55 6.38,78.61 6.38,-94.55 6.37,-15.84 6.38,-28.82 6.38,32.13 6.5,-1.37 6.38,-30.64 6.38,-22.27 6.37,2.33 6.38,10.03 6.38,43.51 6.5,-24.83 6.38,-17.77 6.37,-12.99 6.38,4.1 6.38,34.06 6.38,-24.15 6.5,34.29 6.37,61.63 6.38,224.87 6.38,79.74 6.38,227.26 6.38,-279.78 6.49,101.62 6.38,-75.19 6.38,256.46 6.38,-170.45 6.38,-144.67 6.38,15.6 6.49,-83.38 6.38,-133.29 6.38,13.56 6.38,-64.59 6.38,-10.25 6.38,-33.95 6.49,6.04 6.38,-0.12 6.38,11.85 6.38,2.39 6.38,-14.69 6.49,-13.67 6.38,-9.8 6.38,8.66 6.38,0.11 6.38,20.28 6.38,-9.57 6.49,26.89 6.35,-10.48"/>
      </g>
    </g>
    <g id="g48">
      <g clip-path="url(#clipPath52)" id="g50"><text id="text56" style="font-variant:normal;font-weight:normal;font-size:8.10529995px;font-family:Calibri;-inkscape-font-specification:Calibri;writing-mode:lr-tb;fill:#595959;fill-opacity:1;fill-rule:nonzero;stroke:none" transform="matrix(1,0,0,-1,545.07,317.56)"><tspan id="tspan58" y="0" x="0 2.4964323 6.6058197 10.715206 14.824594">-100%</tspan></text>
</g>
    </g>
    <g id="g60">
      <g clip-path="url(#clipPath64)" id="g62"><text id="text68" style="font-variant:normal;font-weight:normal;font-size:8.08419991px;font-family:Calibri;-inkscape-font-specification:Calibri;writing-mode:lr-tb;fill:#595959;fill-opacity:1;fill-rule:nonzero;stroke:none" transform="matrix(1,0,0,-1,545.07,353.09)"><tspan id="tspan70" y="0" x="0 2.4980178 6.5967073 10.695396">-50%</tspan></text>
</g>
    </g>
    <g id="g72">
      <g clip-path="url(#clipPath76)" id="g74"><text id="text80" style="font-variant:normal;font-weight:normal;font-size:8.10529995px;font-family:Calibri;-inkscape-font-specification:Calibri;writing-mode:lr-tb;fill:#595959;fill-opacity:1;fill-rule:nonzero;stroke:none" transform="matrix(1,0,0,-1,545.07,388.65)"><tspan id="tspan82" y="0" x="0 4.1052771">0%</tspan></text>
</g>
    </g>
    <g id="g84">
      <g clip-path="url(#clipPath88)" id="g86"><text id="text92" style="font-variant:normal;font-weight:normal;font-size:8.08419991px;font-family:Calibri;-inkscape-font-specification:Calibri;writing-mode:lr-tb;fill:#595959;fill-opacity:1;fill-rule:nonzero;stroke:none" transform="matrix(1,0,0,-1,545.07,424.19)"><tspan id="tspan94" y="0" x="0 4.1052594 8.2105188">50%</tspan></text>
</g>
    </g>
    <g id="g96">
      <g clip-path="url(#clipPath100)" id="g98"><text id="text104" style="font-variant:normal;font-weight:normal;font-size:8.10529995px;font-family:Calibri;-inkscape-font-specification:Calibri;writing-mode:lr-tb;fill:#595959;fill-opacity:1;fill-rule:nonzero;stroke:none" transform="matrix(1,0,0,-1,545.07,459.75)"><tspan id="tspan106" y="0" x="0 4.1052771 8.2105541 12.315831">100%</tspan></text>
</g>
    </g>
    <g id="g108">
      <g clip-path="url(#clipPath112)" id="g110"><text id="text116" style="font-variant:normal;font-weight:normal;font-size:8.08419991px;font-family:Calibri;-inkscape-font-specification:Calibri;writing-mode:lr-tb;fill:#595959;fill-opacity:1;fill-rule:nonzero;stroke:none" transform="matrix(1,0,0,-1,545.07,495.28)"><tspan id="tspan118" y="0" x="0 4.1052594 8.2105188 12.315778">150%</tspan></text>
</g>
    </g>
    <g id="g120">
      <g clip-path="url(#clipPath124)" id="g122"><text id="text128" style="font-variant:normal;font-weight:normal;font-size:8.08419991px;font-family:Calibri;-inkscape-font-specification:Calibri;writing-mode:lr-tb;fill:#595959;fill-opacity:1;fill-rule:nonzero;stroke:none" transform="matrix(1,0,0,-1,545.07,530.84)"><tspan id="tspan130" y="0" x="0 4.1052594 8.2105188 12.315778">200%</tspan></text>
</g>
    </g>
    <g id="g132">
      <g clip-path="url(#clipPath136)" id="g134"><text id="text140" style="font-variant:normal;font-weight:normal;font-size:8.10529995px;font-family:Calibri;-inkscape-font-specification:Calibri;writing-mode:lr-tb;fill:#595959;fill-opacity:1;fill-rule:nonzero;stroke:none" transform="matrix(1,0,0,-1,71.474,317.56)"><tspan id="tspan142" y="0" x="0">0</tspan></text>
</g>
    </g>
    <g id="g144">
      <g clip-path="url(#clipPath148)" id="g146"><text id="text152" style="font-variant:normal;font-weight:normal;font-size:8.08419991px;font-family:Calibri;-inkscape-font-specification:Calibri;writing-mode:lr-tb;fill:#595959;fill-opacity:1;fill-rule:nonzero;stroke:none" transform="matrix(1,0,0,-1,63.263,344.21)"><tspan id="tspan154" y="0" x="0 4.0841894 8.1683788">200</tspan></text>
</g>
    </g>
    <g id="g156">
      <g clip-path="url(#clipPath160)" id="g158"><text id="text164" style="font-variant:normal;font-weight:normal;font-size:8.08419991px;font-family:Calibri;-inkscape-font-specification:Calibri;writing-mode:lr-tb;fill:#595959;fill-opacity:1;fill-rule:nonzero;stroke:none" transform="matrix(1,0,0,-1,63.263,370.86)"><tspan id="tspan166" y="0" x="0 4.0841894 8.1683788">400</tspan></text>
</g>
    </g>
    <g id="g168">
      <g clip-path="url(#clipPath172)" id="g170"><text id="text176" style="font-variant:normal;font-weight:normal;font-size:8.10529995px;font-family:Calibri;-inkscape-font-specification:Calibri;writing-mode:lr-tb;fill:#595959;fill-opacity:1;fill-rule:nonzero;stroke:none" transform="matrix(1,0,0,-1,63.263,397.54)"><tspan id="tspan178" y="0" x="0 4.084187 8.1683741">600</tspan></text>
</g>
    </g>
    <g id="g180">
      <g clip-path="url(#clipPath184)" id="g182"><text id="text188" style="font-variant:normal;font-weight:normal;font-size:8.08419991px;font-family:Calibri;-inkscape-font-specification:Calibri;writing-mode:lr-tb;fill:#595959;fill-opacity:1;fill-rule:nonzero;stroke:none" transform="matrix(1,0,0,-1,63.263,424.19)"><tspan id="tspan190" y="0" x="0 4.0841894 8.1683788">800</tspan></text>
</g>
    </g>
    <g id="g192">
      <g clip-path="url(#clipPath196)" id="g194"><text id="text200" style="font-variant:normal;font-weight:normal;font-size:8.10529995px;font-family:Calibri;-inkscape-font-specification:Calibri;writing-mode:lr-tb;fill:#595959;fill-opacity:1;fill-rule:nonzero;stroke:none" transform="matrix(1,0,0,-1,59.137,450.86)"><tspan id="tspan202" y="0" x="0 4.1052771 8.2105541 12.315831">1000</tspan></text>
</g>
    </g>
    <g id="g204">
      <g clip-path="url(#clipPath208)" id="g206"><text id="text212" style="font-variant:normal;font-weight:normal;font-size:8.08419991px;font-family:Calibri;-inkscape-font-specification:Calibri;writing-mode:lr-tb;fill:#595959;fill-opacity:1;fill-rule:nonzero;stroke:none" transform="matrix(1,0,0,-1,59.137,477.52)"><tspan id="tspan214" y="0" x="0 4.1052594 8.2105188 12.315778">1200</tspan></text>
</g>
    </g>
    <g id="g216">
      <g clip-path="url(#clipPath220)" id="g218"><text id="text224" style="font-variant:normal;font-weight:normal;font-size:8.08419991px;font-family:Calibri;-inkscape-font-specification:Calibri;writing-mode:lr-tb;fill:#595959;fill-opacity:1;fill-rule:nonzero;stroke:none" transform="matrix(1,0,0,-1,59.137,504.17)"><tspan id="tspan226" y="0" x="0 4.1052594 8.2105188 12.315778">1400</tspan></text>
</g>
    </g>
    <g id="g228">
      <g clip-path="url(#clipPath232)" id="g230"><text id="text236" style="font-variant:normal;font-weight:normal;font-size:8.08419991px;font-family:Calibri;-inkscape-font-specification:Calibri;writing-mode:lr-tb;fill:#595959;fill-opacity:1;fill-rule:nonzero;stroke:none" transform="matrix(1,0,0,-1,59.137,530.84)"><tspan id="tspan238" y="0" x="0 4.1052594 8.2105188 12.315778">1600</tspan></text>
</g>
    </g>
    <g id="g240">
      <g clip-path="url(#clipPath244)" id="g242"><text id="text248" style="font-variant:normal;font-weight:normal;font-size:8.08419991px;font-family:Calibri;-inkscape-font-specification:Calibri;writing-mode:lr-tb;fill:#595959;fill-opacity:1;fill-rule:nonzero;stroke:none" transform="matrix(1,0,0,-1,74.484,306.99)"><tspan id="tspan250" y="0" x="0 4.0986896 7.2515273 11.350217 15.41657 19.515259">1/2020</tspan></text>
</g>
    </g>
    <g id="g252">
      <g clip-path="url(#clipPath256)" id="g254"><text id="text260" style="font-variant:normal;font-weight:normal;font-size:8.08419991px;font-family:Calibri;-inkscape-font-specification:Calibri;writing-mode:lr-tb;fill:#595959;fill-opacity:1;fill-rule:nonzero;stroke:none" transform="matrix(1,0,0,-1,112.88,306.99)"><tspan id="tspan262" y="0" x="0 4.0986896 7.2515273 11.350217 15.41657 19.515259">7/2020</tspan></text>
</g>
    </g>
    <g id="g264">
      <g clip-path="url(#clipPath268)" id="g266"><text id="text272" style="font-variant:normal;font-weight:normal;font-size:8.08419991px;font-family:Calibri;-inkscape-font-specification:Calibri;writing-mode:lr-tb;fill:#595959;fill-opacity:1;fill-rule:nonzero;stroke:none" transform="matrix(1,0,0,-1,151.28,306.99)"><tspan id="tspan274" y="0" x="0 4.0986896 7.2757802 11.37447 15.473159 19.571848">1/2021</tspan></text>
</g>
    </g>
    <g id="g276">
      <g clip-path="url(#clipPath280)" id="g278"><text id="text284" style="font-variant:normal;font-weight:normal;font-size:8.08419991px;font-family:Calibri;-inkscape-font-specification:Calibri;writing-mode:lr-tb;fill:#595959;fill-opacity:1;fill-rule:nonzero;stroke:none" transform="matrix(1,0,0,-1,189.68,306.99)"><tspan id="tspan286" y="0" x="0 4.0986896 7.2757802 11.37447 15.473159 19.571848">7/2021</tspan></text>
</g>
    </g>
    <g id="g288">
      <g clip-path="url(#clipPath292)" id="g290"><text id="text296" style="font-variant:normal;font-weight:normal;font-size:8.08419991px;font-family:Calibri;-inkscape-font-specification:Calibri;writing-mode:lr-tb;fill:#595959;fill-opacity:1;fill-rule:nonzero;stroke:none" transform="matrix(1,0,0,-1,228.08,306.99)"><tspan id="tspan298" y="0" x="0 4.0986896 7.2757802 11.37447 15.473159 19.571848">1/2022</tspan></text>
</g>
    </g>
    <g id="g300">
      <g clip-path="url(#clipPath304)" id="g302"><text id="text308" style="font-variant:normal;font-weight:normal;font-size:8.08419991px;font-family:Calibri;-inkscape-font-specification:Calibri;writing-mode:lr-tb;fill:#595959;fill-opacity:1;fill-rule:nonzero;stroke:none" transform="matrix(1,0,0,-1,266.48,306.99)"><tspan id="tspan310" y="0" x="0 4.0986896 7.2757802 11.37447 15.473159 19.571848">7/2022</tspan></text>
</g>
    </g>
    <g id="g312">
      <g clip-path="url(#clipPath316)" id="g314"><text id="text320" style="font-variant:normal;font-weight:normal;font-size:8.08419991px;font-family:Calibri;-inkscape-font-specification:Calibri;writing-mode:lr-tb;fill:#595959;fill-opacity:1;fill-rule:nonzero;stroke:none" transform="matrix(1,0,0,-1,304.88,306.99)"><tspan id="tspan322" y="0" x="0 4.0986896 7.2757802 11.37447 15.473159 19.571848">1/2023</tspan></text>
</g>
    </g>
    <g id="g324">
      <g clip-path="url(#clipPath328)" id="g326"><text id="text332" style="font-variant:normal;font-weight:normal;font-size:8.08419991px;font-family:Calibri;-inkscape-font-specification:Calibri;writing-mode:lr-tb;fill:#595959;fill-opacity:1;fill-rule:nonzero;stroke:none" transform="matrix(1,0,0,-1,343.28,306.99)"><tspan id="tspan334" y="0" x="0 4.0986896 7.2757802 11.37447 15.473159 19.571848">7/2023</tspan></text>
</g>
    </g>
    <g id="g336">
      <g clip-path="url(#clipPath340)" id="g338"><text id="text344" style="font-variant:normal;font-weight:normal;font-size:8.08419991px;font-family:Calibri;-inkscape-font-specification:Calibri;writing-mode:lr-tb;fill:#595959;fill-opacity:1;fill-rule:nonzero;stroke:none" transform="matrix(1,0,0,-1,381.68,306.99)"><tspan id="tspan346" y="0" x="0 4.0986896 7.2757802 11.37447 15.473159 19.571848">1/2024</tspan></text>
</g>
    </g>
    <g id="g348">
      <g clip-path="url(#clipPath352)" id="g350"><text id="text356" style="font-variant:normal;font-weight:normal;font-size:8.08419991px;font-family:Calibri;-inkscape-font-specification:Calibri;writing-mode:lr-tb;fill:#595959;fill-opacity:1;fill-rule:nonzero;stroke:none" transform="matrix(1,0,0,-1,420.08,306.99)"><tspan id="tspan358" y="0" x="0 4.0986896 7.2757802 11.37447 15.473159 19.571848">7/2024</tspan></text>
</g>
    </g>
    <g id="g360">
      <g clip-path="url(#clipPath364)" id="g362"><text id="text368" style="font-variant:normal;font-weight:normal;font-size:8.08419991px;font-family:Calibri;-inkscape-font-specification:Calibri;writing-mode:lr-tb;fill:#595959;fill-opacity:1;fill-rule:nonzero;stroke:none" transform="matrix(1,0,0,-1,458.48,306.99)"><tspan id="tspan370" y="0" x="0 4.0986896 7.2757802 11.37447 15.473159 19.571848">1/2025</tspan></text>
</g>
    </g>
    <g id="g372">
      <g clip-path="url(#clipPath376)" id="g374"><text id="text380" style="font-variant:normal;font-weight:normal;font-size:8.08419991px;font-family:Calibri;-inkscape-font-specification:Calibri;writing-mode:lr-tb;fill:#595959;fill-opacity:1;fill-rule:nonzero;stroke:none" transform="matrix(1,0,0,-1,496.88,306.99)"><tspan id="tspan382" y="0" x="0 4.0986896 7.3000326 11.398722 15.497412 19.5961">7/2025</tspan></text>
</g>
    </g>
    <path id="path384" style="fill:#137cb1;fill-opacity:1;fill-rule:evenodd;stroke:none" d="m 202.6,288.99 17.317,0 0,4.4586 -17.317,0 0,-4.4586 z"/>
    <g id="g386">
      <g clip-path="url(#clipPath390)" id="g388"><text id="text394" style="font-variant:normal;font-weight:normal;font-size:8.10529995px;font-family:Calibri;-inkscape-font-specification:Calibri;writing-mode:lr-tb;fill:#595959;fill-opacity:1;fill-rule:nonzero;stroke:none" transform="matrix(1,0,0,-1,221.77,288.8)"><tspan id="tspan396" y="0" x="0 2.0425355 8.5591965 12.814479 17.118393 19.971458 22.686735 24.518532 26.942017 29.795082 34.123314 40.623764 42.455563 47.691586 51.695602 54.410877 58.763424 62.767445 65.620506 67.452309 71.334747 75.679184 79.934471 81.839211 84.23838 89.474403 93.235268 97.34465 99.176453 105.66879 109.92408">Import from Netherland (US$ mn)</tspan></text>
</g>
    </g>
    <path id="path398" style="fill:none;stroke:#eacc80;stroke-width:2.02940011;stroke-linecap:round;stroke-linejoin:round;stroke-miterlimit:10;stroke-dasharray:none;stroke-opacity:1" d="m 350.64,291.22 17.32,0"/>
    <g id="g400">
      <g clip-path="url(#clipPath404)" id="g402"><text id="text408" style="font-variant:normal;font-weight:normal;font-size:8.10529995px;font-family:Calibri;-inkscape-font-specification:Calibri;writing-mode:lr-tb;fill:#595959;fill-opacity:1;fill-rule:nonzero;stroke:none" transform="matrix(1,0,0,-1,369.85,288.8)"><tspan id="tspan410" y="0" x="0 3.971597 7.0435057 11.015102 12.846901 15.343333 19.452721 26.382751 33.337097 38.030067 40.056393 41.888191 46.224525 51.355183 55.116039">Y/Y (3MMA, RHS)</tspan></text>
</g>
    </g>
  </g>
</svg>
