<?xml version="1.0" encoding="UTF-8" standalone="no"?>
<svg xmlns:dc="http://purl.org/dc/elements/1.1/" xmlns:cc="http://creativecommons.org/ns#" xmlns:rdf="http://www.w3.org/1999/02/22-rdf-syntax-ns#" xmlns:svg="http://www.w3.org/2000/svg" xmlns="http://www.w3.org/2000/svg" viewBox="63 135.775 864 493.475" height="493.475" width="864" xml:space="preserve" version="1.1" id="svg2">
  <metadata id="metadata8">
    <rdf:RDF>
      <cc:Work rdf:about="">
        <dc:format>image/svg+xml</dc:format>
        <dc:type rdf:resource="http://purl.org/dc/dcmitype/StillImage"/>
      </cc:Work>
    </rdf:RDF>
  </metadata>
  <defs id="defs6">
    <clipPath id="clipPath16" clipPathUnits="userSpaceOnUse">
      <path style="clip-rule:evenodd" id="path18" d="m 50.4,108.6 691.2,0 0,394.8 -691.2,0 0,-394.8 z"/>
    </clipPath>
    <clipPath id="clipPath26" clipPathUnits="userSpaceOnUse">
      <path style="clip-rule:evenodd" id="path28" d="m 50.4,108.6 691.2,0 0,394.8 -691.2,0 0,-394.8 z"/>
    </clipPath>
    <clipPath id="clipPath44" clipPathUnits="userSpaceOnUse">
      <path style="clip-rule:evenodd" id="path46" d="m 50.52,108.72 690.96,0 0,394.68 -690.96,0 0,-394.68 z"/>
    </clipPath>
    <clipPath id="clipPath56" clipPathUnits="userSpaceOnUse">
      <path style="clip-rule:evenodd" id="path58" d="m 50.52,108.72 690.96,0 0,394.68 -690.96,0 0,-394.68 z"/>
    </clipPath>
    <clipPath id="clipPath68" clipPathUnits="userSpaceOnUse">
      <path style="clip-rule:evenodd" id="path70" d="m 50.52,108.72 690.96,0 0,394.68 -690.96,0 0,-394.68 z"/>
    </clipPath>
    <clipPath id="clipPath80" clipPathUnits="userSpaceOnUse">
      <path style="clip-rule:evenodd" id="path82" d="m 50.52,108.72 690.96,0 0,394.68 -690.96,0 0,-394.68 z"/>
    </clipPath>
    <clipPath id="clipPath92" clipPathUnits="userSpaceOnUse">
      <path style="clip-rule:evenodd" id="path94" d="m 50.52,108.72 690.96,0 0,394.68 -690.96,0 0,-394.68 z"/>
    </clipPath>
    <clipPath id="clipPath104" clipPathUnits="userSpaceOnUse">
      <path style="clip-rule:evenodd" id="path106" d="m 50.52,108.72 690.96,0 0,394.68 -690.96,0 0,-394.68 z"/>
    </clipPath>
    <clipPath id="clipPath116" clipPathUnits="userSpaceOnUse">
      <path style="clip-rule:evenodd" id="path118" d="m 50.52,108.72 690.96,0 0,394.68 -690.96,0 0,-394.68 z"/>
    </clipPath>
    <clipPath id="clipPath128" clipPathUnits="userSpaceOnUse">
      <path style="clip-rule:evenodd" id="path130" d="m 50.52,108.72 690.96,0 0,394.68 -690.96,0 0,-394.68 z"/>
    </clipPath>
    <clipPath id="clipPath140" clipPathUnits="userSpaceOnUse">
      <path style="clip-rule:evenodd" id="path142" d="m 50.52,108.72 690.96,0 0,394.68 -690.96,0 0,-394.68 z"/>
    </clipPath>
    <clipPath id="clipPath152" clipPathUnits="userSpaceOnUse">
      <path style="clip-rule:evenodd" id="path154" d="m 50.52,108.72 690.96,0 0,394.68 -690.96,0 0,-394.68 z"/>
    </clipPath>
    <clipPath id="clipPath164" clipPathUnits="userSpaceOnUse">
      <path style="clip-rule:evenodd" id="path166" d="m 50.52,108.72 690.96,0 0,394.68 -690.96,0 0,-394.68 z"/>
    </clipPath>
    <clipPath id="clipPath176" clipPathUnits="userSpaceOnUse">
      <path style="clip-rule:evenodd" id="path178" d="m 50.52,108.72 690.96,0 0,394.68 -690.96,0 0,-394.68 z"/>
    </clipPath>
    <clipPath id="clipPath188" clipPathUnits="userSpaceOnUse">
      <path style="clip-rule:evenodd" id="path190" d="m 50.52,108.72 690.96,0 0,394.68 -690.96,0 0,-394.68 z"/>
    </clipPath>
    <clipPath id="clipPath200" clipPathUnits="userSpaceOnUse">
      <path style="clip-rule:evenodd" id="path202" d="m 50.52,108.72 690.96,0 0,394.68 -690.96,0 0,-394.68 z"/>
    </clipPath>
    <clipPath id="clipPath212" clipPathUnits="userSpaceOnUse">
      <path style="clip-rule:evenodd" id="path214" d="m 50.52,108.72 690.96,0 0,394.68 -690.96,0 0,-394.68 z"/>
    </clipPath>
    <clipPath id="clipPath224" clipPathUnits="userSpaceOnUse">
      <path style="clip-rule:evenodd" id="path226" d="m 50.408,503.4 690.992,0 0,-394.63 -690.992,0 0,394.63 z"/>
    </clipPath>
    <clipPath id="clipPath234" clipPathUnits="userSpaceOnUse">
      <path style="clip-rule:evenodd" id="path236" d="m 741.4,503.4 0,-394.63 -690.992,0 0,394.63 690.992,0 z"/>
    </clipPath>
    <clipPath id="clipPath244" clipPathUnits="userSpaceOnUse">
      <path style="clip-rule:evenodd" id="path246" d="m 50.408,503.4 690.992,0 0,-394.63 -690.992,0 0,394.63 z"/>
    </clipPath>
    <clipPath id="clipPath254" clipPathUnits="userSpaceOnUse">
      <path style="clip-rule:evenodd" id="path256" d="m 741.4,503.4 0,-394.63 -690.992,0 0,394.63 690.992,0 z"/>
    </clipPath>
    <clipPath id="clipPath264" clipPathUnits="userSpaceOnUse">
      <path style="clip-rule:evenodd" id="path266" d="m 741.4,503.4 0,-394.63 -690.992,0 0,394.63 690.992,0 z"/>
    </clipPath>
    <clipPath id="clipPath274" clipPathUnits="userSpaceOnUse">
      <path style="clip-rule:evenodd" id="path276" d="m 50.408,503.4 690.992,0 0,-394.63 -690.992,0 0,394.63 z"/>
    </clipPath>
    <clipPath id="clipPath284" clipPathUnits="userSpaceOnUse">
      <path style="clip-rule:evenodd" id="path286" d="m 50.408,503.4 690.992,0 0,-394.63 -690.992,0 0,394.63 z"/>
    </clipPath>
    <clipPath id="clipPath294" clipPathUnits="userSpaceOnUse">
      <path style="clip-rule:evenodd" id="path296" d="m 50.408,503.4 690.992,0 0,-394.63 -690.992,0 0,394.63 z"/>
    </clipPath>
    <clipPath id="clipPath304" clipPathUnits="userSpaceOnUse">
      <path style="clip-rule:evenodd" id="path306" d="m 50.408,503.4 690.992,0 0,-394.63 -690.992,0 0,394.63 z"/>
    </clipPath>
    <clipPath id="clipPath314" clipPathUnits="userSpaceOnUse">
      <path style="clip-rule:evenodd" id="path316" d="m 50.408,503.4 690.992,0 0,-394.63 -690.992,0 0,394.63 z"/>
    </clipPath>
    <clipPath id="clipPath324" clipPathUnits="userSpaceOnUse">
      <path style="clip-rule:evenodd" id="path326" d="m 50.408,503.4 690.992,0 0,-394.63 -690.992,0 0,394.63 z"/>
    </clipPath>
    <clipPath id="clipPath334" clipPathUnits="userSpaceOnUse">
      <path style="clip-rule:evenodd" id="path336" d="m 741.4,503.4 0,-394.63 -690.992,0 0,394.63 690.992,0 z"/>
    </clipPath>
    <clipPath id="clipPath344" clipPathUnits="userSpaceOnUse">
      <path style="clip-rule:evenodd" id="path346" d="m 50.408,503.4 690.992,0 0,-394.63 -690.992,0 0,394.63 z"/>
    </clipPath>
    <clipPath id="clipPath354" clipPathUnits="userSpaceOnUse">
      <path style="clip-rule:evenodd" id="path356" d="m 50.408,503.4 690.992,0 0,-394.63 -690.992,0 0,394.63 z"/>
    </clipPath>
    <clipPath id="clipPath364" clipPathUnits="userSpaceOnUse">
      <path style="clip-rule:evenodd" id="path366" d="m 741.4,503.4 0,-394.63 -690.992,0 0,394.63 690.992,0 z"/>
    </clipPath>
    <clipPath id="clipPath374" clipPathUnits="userSpaceOnUse">
      <path style="clip-rule:evenodd" id="path376" d="m 741.4,503.4 0,-394.63 -690.992,0 0,394.63 690.992,0 z"/>
    </clipPath>
    <clipPath id="clipPath384" clipPathUnits="userSpaceOnUse">
      <path style="clip-rule:evenodd" id="path386" d="m 741.4,503.4 0,-394.63 -690.992,0 0,394.63 690.992,0 z"/>
    </clipPath>
    <clipPath id="clipPath394" clipPathUnits="userSpaceOnUse">
      <path style="clip-rule:evenodd" id="path396" d="m 50.408,503.4 690.992,0 0,-394.63 -690.992,0 0,394.63 z"/>
    </clipPath>
    <clipPath id="clipPath404" clipPathUnits="userSpaceOnUse">
      <path style="clip-rule:evenodd" id="path406" d="m 50.408,503.4 690.992,0 0,-394.63 -690.992,0 0,394.63 z"/>
    </clipPath>
    <clipPath id="clipPath414" clipPathUnits="userSpaceOnUse">
      <path style="clip-rule:evenodd" id="path416" d="m 50.408,503.4 690.992,0 0,-394.63 -690.992,0 0,394.63 z"/>
    </clipPath>
    <clipPath id="clipPath424" clipPathUnits="userSpaceOnUse">
      <path style="clip-rule:evenodd" id="path426" d="m 50.52,108.72 690.96,0 0,394.68 -690.96,0 0,-394.68 z"/>
    </clipPath>
    <clipPath id="clipPath436" clipPathUnits="userSpaceOnUse">
      <path style="clip-rule:evenodd" id="path438" d="m 50.52,108.72 690.96,0 0,394.68 -690.96,0 0,-394.68 z"/>
    </clipPath>
    <clipPath id="clipPath448" clipPathUnits="userSpaceOnUse">
      <path style="clip-rule:evenodd" id="path450" d="m 50.52,108.72 690.96,0 0,394.68 -690.96,0 0,-394.68 z"/>
    </clipPath>
    <clipPath id="clipPath460" clipPathUnits="userSpaceOnUse">
      <path style="clip-rule:evenodd" id="path462" d="m 50.52,108.72 690.96,0 0,394.68 -690.96,0 0,-394.68 z"/>
    </clipPath>
    <clipPath id="clipPath472" clipPathUnits="userSpaceOnUse">
      <path style="clip-rule:evenodd" id="path474" d="m 50.52,108.72 690.96,0 0,394.68 -690.96,0 0,-394.68 z"/>
    </clipPath>
    <clipPath id="clipPath486" clipPathUnits="userSpaceOnUse">
      <path style="clip-rule:evenodd" id="path488" d="m 50.52,108.72 690.96,0 0,394.68 -690.96,0 0,-394.68 z"/>
    </clipPath>
    <clipPath id="clipPath500" clipPathUnits="userSpaceOnUse">
      <path style="clip-rule:evenodd" id="path502" d="m 50.52,108.72 690.96,0 0,394.68 -690.96,0 0,-394.68 z"/>
    </clipPath>
  </defs>
  <g transform="matrix(1.25,0,0,-1.25,0,765)" id="g10">
    <g id="g12">
      <g clip-path="url(#clipPath16)" id="g14">
        <path id="path20" style="fill:none;stroke:#000000;stroke-width:0.14;stroke-linecap:butt;stroke-linejoin:miter;stroke-miterlimit:10;stroke-dasharray:none;stroke-opacity:0" d="m 50.434,108.57 691.17,0 0,394.74 -691.17,0 0,-394.74 z"/>
      </g>
    </g>
    <g id="g22">
      <g clip-path="url(#clipPath26)" id="g24">
        <path id="path30" style="fill:#ffffff;fill-opacity:1;fill-rule:evenodd;stroke:none" d="m 50.434,108.57 691.17,0 0,394.74 -691.17,0 0,-394.74 z"/>
      </g>
    </g>
    <path id="path32" style="fill:none;stroke:#d9d9d9;stroke-width:1.27429998;stroke-linecap:butt;stroke-linejoin:round;stroke-miterlimit:10;stroke-dasharray:none;stroke-opacity:1" d="m 112.21,238.04 579.55,0 m -579.55,34.87 579.55,0 m -579.55,34.86 579.55,0 m -579.55,34.67 579.55,0 m -579.55,34.86 579.55,0 m -579.55,34.87 579.55,0 m -579.55,34.73 579.55,0"/>
    <path id="path34" style="fill:#005aa4;fill-opacity:1;fill-rule:nonzero;stroke:none" d="m 122.18,348.35 8.97,0 0,-145 -8.97,0 0,145 z m 28.95,9.99 9.18,0 0,-154.99 -9.18,0 0,154.99 z m 28.95,0 9.18,0 0,-154.99 -9.18,0 0,154.99 z m 28.96,3.06 9.17,0 0,-158.05 -9.17,0 0,158.05 z m 28.95,-4.08 9.18,0 0,-153.97 -9.18,0 0,153.97 z m 28.95,9.79 9.18,0 0,-163.76 -9.18,0 0,163.76 z m 29.16,0 8.97,0 0,-163.76 -8.97,0 0,163.76 z m 28.95,6.73 8.97,0 0,-170.49 -8.97,0 0,170.49 z m 28.96,-6.73 8.97,0 0,-163.76 -8.97,0 0,163.76 z m 28.95,11.01 9.17,0 0,-174.77 -9.17,0 0,174.77 z m 28.95,1.02 9.18,0 0,-175.79 -9.18,0 0,175.79 z m 28.96,5.5 9.17,0 0,-181.29 -9.17,0 0,181.29 z m 28.95,-7.54 9.17,0 0,-173.75 -9.17,0 0,173.75 z m 28.95,11.01 9.18,0 0,-184.76 -9.18,0 0,184.76 z m 29.16,1.42 8.97,0 0,-186.18 -8.97,0 0,186.18 z m 28.95,6.53 8.97,0 0,-192.71 -8.97,0 0,192.71 z m 28.95,-7.54 8.97,0 0,-185.17 -8.97,0 0,185.17 z m 28.96,11.82 9.17,0 0,-196.99 -9.17,0 0,196.99 z m 28.95,1.43 9.17,0 0,-198.42 -9.17,0 0,198.42 z m 28.95,6.73 9.18,0 0,-205.15 -9.18,0 0,205.15 z"/>
    <path id="path36" style="fill:none;stroke:#808080;stroke-width:1.27429998;stroke-linecap:butt;stroke-linejoin:round;stroke-miterlimit:10;stroke-dasharray:none;stroke-opacity:1" d="m 112.21,203.35 579.55,0"/>
    <path id="path38" style="fill:none;stroke:#d0b86a;stroke-width:3.82299995;stroke-linecap:round;stroke-linejoin:round;stroke-miterlimit:10;stroke-dasharray:none;stroke-opacity:1" d="m 126.69,401.17 28.93,-84.22 28.95,7.13 29.16,-16.48 28.95,23.42 28.95,-13.66 28.96,1.83 28.95,42.21 28.95,-31.61 28.95,11.63 28.96,12.03 28.95,-21.41 29.16,-3.27 28.95,-9.78 28.95,4.48 28.96,7.75 28.95,5.3 28.95,0.21 28.96,-1.23 29.05,-0.2"/>
    <g id="g40">
      <g clip-path="url(#clipPath44)" id="g42"><text id="text48" style="font-variant:normal;font-weight:normal;font-size:15.31200027px;font-family:'Roboto Condensed';-inkscape-font-specification:RobotoCondensed-Regular;writing-mode:lr-tb;fill:#000000;fill-opacity:1;fill-rule:nonzero;stroke:none" transform="matrix(1,0,0,-1,705.89,198.74)"><tspan id="tspan50" y="0" x="0 7.5360279">0%</tspan></text>
</g>
    </g>
    <g id="g52">
      <g clip-path="url(#clipPath56)" id="g54"><text id="text60" style="font-variant:normal;font-weight:normal;font-size:15.28800011px;font-family:'Roboto Condensed';-inkscape-font-specification:RobotoCondensed-Regular;writing-mode:lr-tb;fill:#000000;fill-opacity:1;fill-rule:nonzero;stroke:none" transform="matrix(1,0,0,-1,705.89,239.33)"><tspan id="tspan62" y="0" x="0 7.5359721">2%</tspan></text>
</g>
    </g>
    <g id="g64">
      <g clip-path="url(#clipPath68)" id="g66"><text id="text72" style="font-variant:normal;font-weight:normal;font-size:15.28800011px;font-family:'Roboto Condensed';-inkscape-font-specification:RobotoCondensed-Regular;writing-mode:lr-tb;fill:#000000;fill-opacity:1;fill-rule:nonzero;stroke:none" transform="matrix(1,0,0,-1,705.89,279.94)"><tspan id="tspan74" y="0" x="0 7.5359721">4%</tspan></text>
</g>
    </g>
    <g id="g76">
      <g clip-path="url(#clipPath80)" id="g78"><text id="text84" style="font-variant:normal;font-weight:normal;font-size:15.28800011px;font-family:'Roboto Condensed';-inkscape-font-specification:RobotoCondensed-Regular;writing-mode:lr-tb;fill:#000000;fill-opacity:1;fill-rule:nonzero;stroke:none" transform="matrix(1,0,0,-1,705.89,320.52)"><tspan id="tspan86" y="0" x="0 7.5359721">6%</tspan></text>
</g>
    </g>
    <g id="g88">
      <g clip-path="url(#clipPath92)" id="g90"><text id="text96" style="font-variant:normal;font-weight:normal;font-size:15.28800011px;font-family:'Roboto Condensed';-inkscape-font-specification:RobotoCondensed-Regular;writing-mode:lr-tb;fill:#000000;fill-opacity:1;fill-rule:nonzero;stroke:none" transform="matrix(1,0,0,-1,705.89,361.13)"><tspan id="tspan98" y="0" x="0 7.5359721">8%</tspan></text>
</g>
    </g>
    <g id="g100">
      <g clip-path="url(#clipPath104)" id="g102"><text id="text108" style="font-variant:normal;font-weight:normal;font-size:15.31200027px;font-family:'Roboto Condensed';-inkscape-font-specification:RobotoCondensed-Regular;writing-mode:lr-tb;fill:#000000;fill-opacity:1;fill-rule:nonzero;stroke:none" transform="matrix(1,0,0,-1,705.89,401.74)"><tspan id="tspan110" y="0" x="0 7.5360279 15.072056">10%</tspan></text>
</g>
    </g>
    <g id="g112">
      <g clip-path="url(#clipPath116)" id="g114"><text id="text120" style="font-variant:normal;font-weight:normal;font-size:15.28800011px;font-family:'Roboto Condensed';-inkscape-font-specification:RobotoCondensed-Regular;writing-mode:lr-tb;fill:#000000;fill-opacity:1;fill-rule:nonzero;stroke:none" transform="matrix(1,0,0,-1,705.89,442.32)"><tspan id="tspan122" y="0" x="0 7.5359721 15.071944">12%</tspan></text>
</g>
    </g>
    <g id="g124">
      <g clip-path="url(#clipPath128)" id="g126"><text id="text132" style="font-variant:normal;font-weight:normal;font-size:15.31200027px;font-family:'Roboto Condensed';-inkscape-font-specification:RobotoCondensed-Regular;writing-mode:lr-tb;fill:#000000;fill-opacity:1;fill-rule:nonzero;stroke:none" transform="matrix(1,0,0,-1,87.144,198.74)"><tspan id="tspan134" y="0" x="0">0</tspan></text>
</g>
    </g>
    <g id="g136">
      <g clip-path="url(#clipPath140)" id="g138"><text id="text144" style="font-variant:normal;font-weight:normal;font-size:15.31200027px;font-family:'Roboto Condensed';-inkscape-font-specification:RobotoCondensed-Regular;writing-mode:lr-tb;fill:#000000;fill-opacity:1;fill-rule:nonzero;stroke:none" transform="matrix(1,0,0,-1,72.048,233.54)"><tspan id="tspan146" y="0" x="0 7.5360279 15.072056">500</tspan></text>
</g>
    </g>
    <g id="g148">
      <g clip-path="url(#clipPath152)" id="g150"><text id="text156" style="font-variant:normal;font-weight:normal;font-size:15.28800011px;font-family:'Roboto Condensed';-inkscape-font-specification:RobotoCondensed-Regular;writing-mode:lr-tb;fill:#000000;fill-opacity:1;fill-rule:nonzero;stroke:none" transform="matrix(1,0,0,-1,61.488,268.32)"><tspan id="tspan158" y="0" x="0 7.5522718 10.54872 18.100992 25.653263">1,000</tspan></text>
</g>
    </g>
    <g id="g160">
      <g clip-path="url(#clipPath164)" id="g162"><text id="text168" style="font-variant:normal;font-weight:normal;font-size:15.28800011px;font-family:'Roboto Condensed';-inkscape-font-specification:RobotoCondensed-Regular;writing-mode:lr-tb;fill:#000000;fill-opacity:1;fill-rule:nonzero;stroke:none" transform="matrix(1,0,0,-1,61.488,303.12)"><tspan id="tspan170" y="0" x="0 7.5522718 10.54872 18.100992 25.653263">1,500</tspan></text>
</g>
    </g>
    <g id="g172">
      <g clip-path="url(#clipPath176)" id="g174"><text id="text180" style="font-variant:normal;font-weight:normal;font-size:15.28800011px;font-family:'Roboto Condensed';-inkscape-font-specification:RobotoCondensed-Regular;writing-mode:lr-tb;fill:#000000;fill-opacity:1;fill-rule:nonzero;stroke:none" transform="matrix(1,0,0,-1,61.488,337.92)"><tspan id="tspan182" y="0" x="0 7.5522718 10.54872 18.100992 25.653263">2,000</tspan></text>
</g>
    </g>
    <g id="g184">
      <g clip-path="url(#clipPath188)" id="g186"><text id="text192" style="font-variant:normal;font-weight:normal;font-size:15.28800011px;font-family:'Roboto Condensed';-inkscape-font-specification:RobotoCondensed-Regular;writing-mode:lr-tb;fill:#000000;fill-opacity:1;fill-rule:nonzero;stroke:none" transform="matrix(1,0,0,-1,61.488,372.72)"><tspan id="tspan194" y="0" x="0 7.5522718 10.54872 18.100992 25.653263">2,500</tspan></text>
</g>
    </g>
    <g id="g196">
      <g clip-path="url(#clipPath200)" id="g198"><text id="text204" style="font-variant:normal;font-weight:normal;font-size:15.28800011px;font-family:'Roboto Condensed';-inkscape-font-specification:RobotoCondensed-Regular;writing-mode:lr-tb;fill:#000000;fill-opacity:1;fill-rule:nonzero;stroke:none" transform="matrix(1,0,0,-1,61.488,407.52)"><tspan id="tspan206" y="0" x="0 7.5522718 10.54872 18.100992 25.653263">3,000</tspan></text>
</g>
    </g>
    <g id="g208">
      <g clip-path="url(#clipPath212)" id="g210"><text id="text216" style="font-variant:normal;font-weight:normal;font-size:15.28800011px;font-family:'Roboto Condensed';-inkscape-font-specification:RobotoCondensed-Regular;writing-mode:lr-tb;fill:#000000;fill-opacity:1;fill-rule:nonzero;stroke:none" transform="matrix(1,0,0,-1,61.488,442.32)"><tspan id="tspan218" y="0" x="0 7.5522718 10.54872 18.100992 25.653263">3,500</tspan></text>
</g>
    </g>
    <g id="g220">
      <g clip-path="url(#clipPath224)" id="g222">
        <path id="path228" style="fill:#000000;fill-opacity:1;fill-rule:nonzero;stroke:none" d="m 111.33,164.31 -0.94,-0.94 -6.51,6.51 -0.89,-2.34 -0.89,0.89 1.36,3.46 0.14,0.14 7.73,-7.72 z m 4.55,10.89 c 0.67,-0.67 1.15,-1.33 1.44,-1.98 0.28,-0.65 0.39,-1.27 0.31,-1.87 l 2.18,0.12 -0.02,-1.29 -2.64,-0.12 c -0.18,-0.27 -0.37,-0.51 -0.58,-0.72 -0.8,-0.8 -1.71,-1.14 -2.73,-1.04 -1.02,0.1 -2.04,0.65 -3.07,1.66 l -1.4,1.4 c -1.03,1.03 -1.61,2.07 -1.74,3.1 -0.12,1.03 0.22,1.96 1.03,2.77 0.82,0.82 1.74,1.17 2.76,1.06 1.01,-0.11 2.04,-0.69 3.08,-1.71 l 1.38,-1.38 z m -2.31,0.38 c -0.81,0.81 -1.55,1.28 -2.21,1.41 -0.67,0.13 -1.27,-0.08 -1.83,-0.63 -0.52,-0.53 -0.72,-1.13 -0.59,-1.8 0.12,-0.68 0.58,-1.41 1.35,-2.19 l 1.38,-1.37 c 0.79,-0.79 1.52,-1.26 2.21,-1.4 0.68,-0.13 1.29,0.06 1.83,0.6 0.54,0.54 0.75,1.12 0.64,1.76 -0.11,0.64 -0.54,1.35 -1.31,2.15 l -1.47,1.47 z m 11.1,2.07 -4.3,-4.3 -0.7,0.7 -0.72,5.1 c -0.11,0.77 -0.25,1.37 -0.41,1.79 -0.16,0.41 -0.4,0.78 -0.72,1.1 -0.41,0.41 -0.83,0.64 -1.28,0.71 -0.44,0.06 -0.82,-0.06 -1.12,-0.37 -0.4,-0.39 -0.56,-0.83 -0.51,-1.31 0.06,-0.48 0.34,-0.98 0.85,-1.49 l -0.94,-0.93 c -0.7,0.71 -1.08,1.47 -1.13,2.3 -0.05,0.82 0.26,1.56 0.92,2.23 0.62,0.61 1.28,0.91 2.01,0.88 0.73,-0.02 1.4,-0.34 2.03,-0.96 0.76,-0.76 1.26,-2.06 1.51,-3.89 l 0.52,-3.95 3.19,3.18 0.8,-0.79 z m -2.09,6.55 0.59,0.59 c 0.39,0.39 0.56,0.8 0.54,1.24 -0.03,0.45 -0.25,0.87 -0.66,1.28 -0.9,0.9 -1.7,1 -2.4,0.31 -0.33,-0.34 -0.47,-0.72 -0.42,-1.15 0.05,-0.44 0.28,-0.85 0.67,-1.24 l -0.93,-0.93 c -0.61,0.61 -0.93,1.31 -0.96,2.08 -0.02,0.78 0.26,1.46 0.84,2.04 0.61,0.61 1.28,0.9 2.01,0.87 0.73,-0.02 1.45,-0.38 2.14,-1.07 0.36,-0.36 0.6,-0.78 0.72,-1.27 0.12,-0.5 0.11,-0.96 -0.04,-1.4 0.99,0.45 1.95,0.22 2.89,-0.72 0.68,-0.68 1.04,-1.42 1.06,-2.21 0.03,-0.79 -0.27,-1.49 -0.88,-2.1 -0.61,-0.61 -1.3,-0.91 -2.06,-0.9 -0.76,0.01 -1.46,0.34 -2.12,0.99 l 0.94,0.94 c 0.41,-0.41 0.83,-0.64 1.27,-0.68 0.44,-0.05 0.83,0.1 1.17,0.44 0.35,0.35 0.51,0.75 0.48,1.19 -0.03,0.44 -0.29,0.9 -0.77,1.38 -0.94,0.94 -1.84,0.96 -2.73,0.08 l -0.56,-0.56 -0.79,0.8 z"/>
      </g>
    </g>
    <g id="g230">
      <g clip-path="url(#clipPath234)" id="g232">
        <path id="path238" style="fill:#000000;fill-opacity:1;fill-rule:nonzero;stroke:none" d="m 141.82,165.82 -4.3,-4.29 -0.7,0.7 -0.71,5.09 c -0.12,0.78 -0.26,1.38 -0.41,1.79 -0.16,0.42 -0.4,0.79 -0.72,1.11 -0.41,0.41 -0.84,0.64 -1.28,0.7 -0.44,0.07 -0.82,-0.05 -1.13,-0.36 -0.39,-0.4 -0.56,-0.83 -0.5,-1.31 0.06,-0.49 0.34,-0.98 0.84,-1.49 l -0.93,-0.93 c -0.71,0.71 -1.09,1.47 -1.14,2.29 -0.05,0.83 0.26,1.57 0.93,2.24 0.61,0.61 1.28,0.91 2.01,0.88 0.72,-0.02 1.4,-0.34 2.02,-0.97 0.76,-0.76 1.27,-2.05 1.51,-3.88 l 0.53,-3.95 3.18,3.18 0.8,-0.8 z m 3.03,9.38 c 0.68,-0.67 1.16,-1.33 1.44,-1.98 0.29,-0.65 0.4,-1.27 0.32,-1.87 l 2.18,0.12 -0.02,-1.29 -2.64,-0.12 c -0.18,-0.27 -0.37,-0.51 -0.58,-0.72 -0.8,-0.8 -1.71,-1.14 -2.73,-1.04 -1.02,0.1 -2.04,0.65 -3.07,1.66 l -1.4,1.4 c -1.04,1.03 -1.62,2.07 -1.74,3.1 -0.13,1.03 0.22,1.96 1.03,2.77 0.82,0.82 1.74,1.17 2.75,1.06 1.02,-0.11 2.05,-0.69 3.09,-1.71 l 1.37,-1.38 z m -2.3,0.38 c -0.82,0.81 -1.55,1.28 -2.22,1.41 -0.66,0.13 -1.27,-0.08 -1.82,-0.63 -0.53,-0.53 -0.73,-1.13 -0.6,-1.8 0.13,-0.68 0.58,-1.41 1.36,-2.19 l 1.38,-1.37 c 0.78,-0.79 1.52,-1.26 2.21,-1.4 0.68,-0.13 1.29,0.06 1.83,0.6 0.53,0.54 0.75,1.12 0.64,1.76 -0.11,0.64 -0.55,1.35 -1.31,2.15 l -1.47,1.47 z m 11.09,2.07 -4.29,-4.3 -0.71,0.7 -0.71,5.1 c -0.12,0.77 -0.25,1.37 -0.41,1.79 -0.16,0.41 -0.4,0.78 -0.72,1.1 -0.41,0.41 -0.83,0.64 -1.28,0.71 -0.44,0.06 -0.82,-0.06 -1.13,-0.37 -0.39,-0.39 -0.55,-0.83 -0.5,-1.31 0.06,-0.48 0.34,-0.98 0.85,-1.49 l -0.94,-0.93 c -0.71,0.71 -1.08,1.47 -1.13,2.3 -0.05,0.82 0.26,1.56 0.92,2.23 0.61,0.61 1.28,0.91 2.01,0.88 0.73,-0.02 1.4,-0.34 2.02,-0.96 0.76,-0.76 1.27,-2.06 1.51,-3.89 l 0.53,-3.95 3.19,3.18 0.79,-0.79 z m -2.09,6.55 0.6,0.59 c 0.38,0.39 0.56,0.8 0.53,1.24 -0.02,0.45 -0.24,0.87 -0.65,1.28 -0.9,0.9 -1.7,1 -2.4,0.31 -0.33,-0.34 -0.47,-0.72 -0.42,-1.15 0.05,-0.44 0.28,-0.85 0.67,-1.24 l -0.93,-0.93 c -0.61,0.61 -0.93,1.31 -0.96,2.08 -0.02,0.78 0.26,1.46 0.84,2.04 0.61,0.61 1.28,0.9 2.01,0.87 0.73,-0.02 1.45,-0.38 2.14,-1.07 0.36,-0.36 0.59,-0.78 0.72,-1.27 0.12,-0.5 0.11,-0.96 -0.04,-1.4 0.99,0.45 1.95,0.22 2.88,-0.72 0.69,-0.68 1.05,-1.42 1.07,-2.21 0.02,-0.79 -0.27,-1.49 -0.89,-2.1 -0.61,-0.61 -1.29,-0.91 -2.05,-0.9 -0.76,0.01 -1.47,0.34 -2.12,0.99 l 0.94,0.94 c 0.41,-0.41 0.83,-0.64 1.27,-0.68 0.43,-0.05 0.82,0.1 1.17,0.44 0.34,0.35 0.5,0.75 0.47,1.19 -0.03,0.44 -0.28,0.9 -0.76,1.38 -0.94,0.94 -1.85,0.96 -2.73,0.08 l -0.56,-0.56 -0.8,0.8 z"/>
      </g>
    </g>
    <g id="g240">
      <g clip-path="url(#clipPath244)" id="g242">
        <path id="path248" style="fill:#000000;fill-opacity:1;fill-rule:nonzero;stroke:none" d="m 163.38,167.04 0.59,0.6 c 0.39,0.38 0.56,0.79 0.54,1.24 -0.03,0.44 -0.25,0.87 -0.66,1.27 -0.9,0.91 -1.7,1.01 -2.4,0.31 -0.33,-0.33 -0.47,-0.72 -0.42,-1.15 0.05,-0.43 0.28,-0.85 0.67,-1.24 l -0.93,-0.93 c -0.61,0.62 -0.93,1.31 -0.96,2.08 -0.02,0.78 0.26,1.46 0.84,2.04 0.61,0.61 1.28,0.9 2.01,0.88 0.73,-0.03 1.45,-0.38 2.14,-1.08 0.36,-0.35 0.6,-0.78 0.72,-1.27 0.12,-0.49 0.11,-0.96 -0.04,-1.4 0.99,0.46 1.95,0.22 2.88,-0.71 0.69,-0.69 1.05,-1.43 1.07,-2.21 0.03,-0.79 -0.27,-1.5 -0.89,-2.11 -0.6,-0.61 -1.29,-0.91 -2.05,-0.9 -0.76,0.01 -1.47,0.34 -2.12,0.99 l 0.94,0.94 c 0.41,-0.41 0.83,-0.64 1.27,-0.68 0.44,-0.04 0.83,0.1 1.17,0.45 0.35,0.34 0.5,0.74 0.48,1.18 -0.03,0.44 -0.29,0.91 -0.77,1.39 -0.94,0.93 -1.84,0.95 -2.73,0.07 l -0.56,-0.56 -0.79,0.8 z m 10.45,8.16 c 0.68,-0.67 1.16,-1.33 1.44,-1.98 0.29,-0.65 0.39,-1.27 0.32,-1.87 l 2.17,0.12 -0.01,-1.29 -2.65,-0.12 c -0.17,-0.27 -0.36,-0.51 -0.57,-0.72 -0.8,-0.8 -1.71,-1.14 -2.73,-1.04 -1.02,0.1 -2.05,0.65 -3.07,1.66 l -1.4,1.4 c -1.04,1.03 -1.62,2.07 -1.74,3.1 -0.13,1.03 0.22,1.96 1.03,2.77 0.82,0.82 1.74,1.17 2.75,1.06 1.02,-0.11 2.05,-0.69 3.09,-1.71 l 1.37,-1.38 z m -2.31,0.38 c -0.81,0.81 -1.55,1.28 -2.21,1.41 -0.66,0.13 -1.27,-0.08 -1.82,-0.63 -0.53,-0.53 -0.73,-1.13 -0.6,-1.8 0.13,-0.68 0.58,-1.41 1.36,-2.19 l 1.37,-1.37 c 0.79,-0.79 1.53,-1.26 2.21,-1.4 0.69,-0.13 1.3,0.06 1.84,0.6 0.53,0.54 0.75,1.12 0.64,1.76 -0.11,0.64 -0.55,1.35 -1.31,2.15 l -1.48,1.47 z m 11.1,2.07 -4.3,-4.3 -0.7,0.7 -0.71,5.1 c -0.12,0.77 -0.25,1.37 -0.41,1.79 -0.16,0.41 -0.4,0.78 -0.72,1.1 -0.41,0.41 -0.84,0.64 -1.28,0.71 -0.44,0.06 -0.82,-0.06 -1.13,-0.37 -0.39,-0.39 -0.56,-0.83 -0.5,-1.31 0.06,-0.48 0.34,-0.98 0.84,-1.49 l -0.93,-0.93 c -0.71,0.71 -1.09,1.47 -1.14,2.3 -0.04,0.82 0.26,1.56 0.93,2.23 0.61,0.61 1.28,0.91 2.01,0.88 0.72,-0.02 1.4,-0.34 2.02,-0.96 0.76,-0.76 1.27,-2.06 1.51,-3.89 l 0.53,-3.95 3.18,3.18 0.8,-0.79 z m -2.09,6.55 0.6,0.59 c 0.38,0.39 0.56,0.8 0.53,1.24 -0.03,0.45 -0.24,0.87 -0.65,1.28 -0.9,0.9 -1.7,1 -2.4,0.31 -0.33,-0.34 -0.47,-0.72 -0.42,-1.15 0.05,-0.44 0.27,-0.85 0.67,-1.24 l -0.93,-0.93 c -0.62,0.61 -0.94,1.31 -0.96,2.08 -0.03,0.78 0.25,1.46 0.84,2.04 0.6,0.61 1.27,0.9 2.01,0.87 0.73,-0.02 1.44,-0.38 2.14,-1.07 0.35,-0.36 0.59,-0.78 0.72,-1.27 0.12,-0.5 0.1,-0.96 -0.05,-1.4 1,0.45 1.96,0.22 2.89,-0.72 0.69,-0.68 1.04,-1.42 1.07,-2.21 0.02,-0.79 -0.27,-1.49 -0.89,-2.1 -0.61,-0.61 -1.29,-0.91 -2.05,-0.9 -0.76,0.01 -1.47,0.34 -2.12,0.99 l 0.93,0.94 c 0.41,-0.41 0.84,-0.64 1.27,-0.68 0.44,-0.05 0.83,0.1 1.17,0.44 0.35,0.35 0.51,0.75 0.48,1.19 -0.03,0.44 -0.28,0.9 -0.77,1.38 -0.93,0.94 -1.84,0.96 -2.72,0.08 l -0.56,-0.56 -0.8,0.8 z"/>
      </g>
    </g>
    <g id="g250">
      <g clip-path="url(#clipPath254)" id="g252">
        <path id="path258" style="fill:#000000;fill-opacity:1;fill-rule:nonzero;stroke:none" d="m 196.43,167.65 0.86,0.85 0.8,-0.8 -0.86,-0.85 1.79,-1.79 -0.94,-0.93 -1.78,1.78 -2.91,-2.9 -0.57,0.58 -2.47,8.18 0.98,0.98 5.1,-5.1 z m -2.8,-2.81 1.87,1.87 -3.65,3.66 1.78,-5.53 z m 9.18,10.36 c 0.68,-0.67 1.16,-1.33 1.44,-1.98 0.29,-0.65 0.39,-1.27 0.32,-1.87 l 2.17,0.12 -0.01,-1.29 -2.65,-0.12 c -0.17,-0.27 -0.37,-0.51 -0.57,-0.72 -0.8,-0.8 -1.71,-1.14 -2.73,-1.04 -1.02,0.1 -2.05,0.65 -3.08,1.66 l -1.4,1.4 c -1.03,1.03 -1.61,2.07 -1.74,3.1 -0.12,1.03 0.22,1.96 1.04,2.77 0.82,0.82 1.74,1.17 2.75,1.06 1.02,-0.11 2.04,-0.69 3.09,-1.71 l 1.37,-1.38 z m -2.31,0.38 c -0.81,0.81 -1.55,1.28 -2.21,1.41 -0.66,0.13 -1.27,-0.08 -1.82,-0.63 -0.53,-0.53 -0.73,-1.13 -0.6,-1.8 0.13,-0.68 0.58,-1.41 1.36,-2.19 L 198.6,171 c 0.79,-0.79 1.53,-1.26 2.21,-1.4 0.69,-0.13 1.3,0.06 1.84,0.6 0.53,0.54 0.74,1.12 0.63,1.76 -0.1,0.64 -0.54,1.35 -1.3,2.15 l -1.48,1.47 z m 11.1,2.07 -4.3,-4.3 -0.7,0.7 -0.71,5.1 c -0.12,0.77 -0.26,1.37 -0.42,1.79 -0.15,0.41 -0.39,0.78 -0.71,1.1 -0.41,0.41 -0.84,0.64 -1.28,0.71 -0.44,0.06 -0.82,-0.06 -1.13,-0.37 -0.39,-0.39 -0.56,-0.83 -0.5,-1.31 0.05,-0.48 0.34,-0.98 0.84,-1.49 l -0.93,-0.93 c -0.71,0.71 -1.09,1.47 -1.14,2.3 -0.05,0.82 0.26,1.56 0.93,2.23 0.61,0.61 1.28,0.91 2.01,0.88 0.72,-0.02 1.4,-0.34 2.02,-0.96 0.76,-0.76 1.26,-2.06 1.51,-3.89 l 0.53,-3.95 3.18,3.18 0.8,-0.79 z m -2.09,6.55 0.6,0.59 c 0.38,0.39 0.56,0.8 0.53,1.24 -0.03,0.45 -0.25,0.87 -0.65,1.28 -0.91,0.9 -1.7,1 -2.4,0.31 -0.34,-0.34 -0.48,-0.72 -0.42,-1.15 0.05,-0.44 0.27,-0.85 0.67,-1.24 l -0.93,-0.93 c -0.62,0.61 -0.94,1.31 -0.96,2.08 -0.03,0.78 0.25,1.46 0.84,2.04 0.6,0.61 1.27,0.9 2,0.87 0.74,-0.02 1.45,-0.38 2.15,-1.07 0.35,-0.36 0.59,-0.78 0.71,-1.27 0.13,-0.5 0.11,-0.96 -0.04,-1.4 0.99,0.45 1.96,0.22 2.89,-0.72 0.69,-0.68 1.04,-1.42 1.07,-2.21 0.02,-0.79 -0.27,-1.49 -0.89,-2.1 -0.61,-0.61 -1.29,-0.91 -2.05,-0.9 -0.76,0.01 -1.47,0.34 -2.12,0.99 l 0.93,0.94 c 0.41,-0.41 0.83,-0.64 1.27,-0.68 0.44,-0.05 0.83,0.1 1.17,0.44 0.35,0.35 0.51,0.75 0.48,1.19 -0.03,0.44 -0.29,0.9 -0.77,1.38 -0.93,0.94 -1.84,0.96 -2.72,0.08 l -0.56,-0.56 -0.8,0.8 z"/>
      </g>
    </g>
    <g id="g260">
      <g clip-path="url(#clipPath264)" id="g262">
        <path id="path268" style="fill:#000000;fill-opacity:1;fill-rule:nonzero;stroke:none" d="m 227.24,164.31 -0.94,-0.94 -6.51,6.51 -0.89,-2.34 -0.89,0.89 1.36,3.46 0.15,0.14 7.72,-7.72 z m 4.55,10.89 c 0.67,-0.67 1.15,-1.33 1.44,-1.98 0.28,-0.65 0.39,-1.27 0.32,-1.87 l 2.17,0.12 -0.02,-1.29 -2.64,-0.12 c -0.18,-0.27 -0.37,-0.51 -0.58,-0.72 -0.79,-0.8 -1.7,-1.14 -2.73,-1.04 -1.02,0.1 -2.04,0.65 -3.07,1.66 l -1.4,1.4 c -1.03,1.03 -1.61,2.07 -1.74,3.1 -0.12,1.03 0.22,1.96 1.04,2.77 0.82,0.82 1.73,1.17 2.75,1.06 1.01,-0.11 2.04,-0.69 3.08,-1.71 l 1.38,-1.38 z m -2.31,0.38 c -0.81,0.81 -1.55,1.28 -2.21,1.41 -0.66,0.13 -1.27,-0.08 -1.82,-0.63 -0.53,-0.53 -0.73,-1.13 -0.6,-1.8 0.13,-0.68 0.58,-1.41 1.36,-2.19 l 1.37,-1.37 c 0.79,-0.79 1.52,-1.26 2.21,-1.4 0.68,-0.13 1.3,0.06 1.83,0.6 0.54,0.54 0.75,1.12 0.64,1.76 -0.11,0.64 -0.54,1.35 -1.31,2.15 l -1.47,1.47 z m 11.1,2.07 -4.3,-4.3 -0.7,0.7 -0.72,5.1 c -0.11,0.77 -0.25,1.37 -0.41,1.79 -0.16,0.41 -0.4,0.78 -0.72,1.1 -0.4,0.41 -0.83,0.64 -1.27,0.71 -0.45,0.06 -0.82,-0.06 -1.13,-0.37 -0.39,-0.39 -0.56,-0.83 -0.5,-1.31 0.05,-0.48 0.33,-0.98 0.84,-1.49 l -0.93,-0.93 c -0.71,0.71 -1.09,1.47 -1.14,2.3 -0.05,0.82 0.26,1.56 0.92,2.23 0.62,0.61 1.29,0.91 2.01,0.88 0.73,-0.02 1.41,-0.34 2.03,-0.96 0.76,-0.76 1.26,-2.06 1.51,-3.89 l 0.53,-3.95 3.18,3.18 0.8,-0.79 z m 1.99,7.15 0.85,0.86 0.8,-0.8 -0.85,-0.85 1.78,-1.79 -0.93,-0.93 -1.79,1.78 -2.9,-2.9 -0.58,0.57 -2.47,8.19 0.98,0.98 5.11,-5.11 z m -2.8,-2.8 1.86,1.87 -3.65,3.65 1.79,-5.52 z"/>
      </g>
    </g>
    <g id="g270">
      <g clip-path="url(#clipPath274)" id="g272">
        <path id="path278" style="fill:#000000;fill-opacity:1;fill-rule:nonzero;stroke:none" d="m 257.73,165.82 -4.3,-4.29 -0.7,0.7 -0.71,5.09 c -0.12,0.78 -0.25,1.38 -0.41,1.79 -0.16,0.42 -0.4,0.79 -0.72,1.11 -0.41,0.41 -0.83,0.64 -1.28,0.7 -0.44,0.07 -0.82,-0.05 -1.13,-0.36 -0.39,-0.4 -0.56,-0.83 -0.5,-1.31 0.06,-0.49 0.34,-0.98 0.85,-1.49 l -0.94,-0.93 c -0.71,0.71 -1.08,1.47 -1.13,2.29 -0.05,0.83 0.25,1.57 0.92,2.24 0.61,0.61 1.28,0.91 2.01,0.88 0.73,-0.02 1.4,-0.34 2.02,-0.97 0.76,-0.76 1.27,-2.05 1.51,-3.88 l 0.53,-3.95 3.19,3.18 0.79,-0.8 z m 3.04,9.38 c 0.67,-0.67 1.15,-1.33 1.44,-1.98 0.28,-0.65 0.39,-1.27 0.31,-1.87 l 2.18,0.12 -0.02,-1.29 -2.64,-0.12 c -0.18,-0.27 -0.37,-0.51 -0.58,-0.72 -0.8,-0.8 -1.71,-1.14 -2.73,-1.04 -1.02,0.1 -2.04,0.65 -3.07,1.66 l -1.4,1.4 c -1.03,1.03 -1.61,2.07 -1.74,3.1 -0.12,1.03 0.22,1.96 1.03,2.77 0.82,0.82 1.74,1.17 2.76,1.06 1.01,-0.11 2.04,-0.69 3.08,-1.71 l 1.38,-1.38 z m -2.31,0.38 c -0.82,0.81 -1.55,1.28 -2.21,1.41 -0.67,0.13 -1.27,-0.08 -1.83,-0.63 -0.52,-0.53 -0.72,-1.13 -0.6,-1.8 0.13,-0.68 0.59,-1.41 1.36,-2.19 l 1.38,-1.37 c 0.79,-0.79 1.52,-1.26 2.21,-1.4 0.68,-0.13 1.29,0.06 1.83,0.6 0.54,0.54 0.75,1.12 0.64,1.76 -0.11,0.64 -0.55,1.35 -1.31,2.15 l -1.47,1.47 z m 11.1,2.07 -4.3,-4.3 -0.7,0.7 -0.72,5.1 c -0.11,0.77 -0.25,1.37 -0.41,1.79 -0.16,0.41 -0.4,0.78 -0.72,1.1 -0.41,0.41 -0.83,0.64 -1.28,0.71 -0.44,0.06 -0.82,-0.06 -1.13,-0.37 -0.39,-0.39 -0.55,-0.83 -0.5,-1.31 0.06,-0.48 0.34,-0.98 0.85,-1.49 l -0.94,-0.93 c -0.7,0.71 -1.08,1.47 -1.13,2.3 -0.05,0.82 0.26,1.56 0.92,2.23 0.61,0.61 1.28,0.91 2.01,0.88 0.73,-0.02 1.4,-0.34 2.03,-0.96 0.76,-0.76 1.26,-2.06 1.51,-3.89 l 0.52,-3.95 3.19,3.18 0.8,-0.79 z m 1.99,7.15 0.85,0.86 0.8,-0.8 -0.86,-0.85 1.79,-1.79 -0.94,-0.93 -1.78,1.78 -2.9,-2.9 -0.58,0.57 -2.47,8.19 0.98,0.98 5.11,-5.11 z m -2.81,-2.8 1.87,1.87 -3.65,3.65 1.78,-5.52 z"/>
      </g>
    </g>
    <g id="g280">
      <g clip-path="url(#clipPath284)" id="g282">
        <path id="path288" style="fill:#000000;fill-opacity:1;fill-rule:nonzero;stroke:none" d="m 279.29,167.04 0.59,0.6 c 0.39,0.38 0.57,0.79 0.54,1.24 -0.03,0.44 -0.25,0.87 -0.66,1.27 -0.9,0.91 -1.7,1.01 -2.39,0.31 -0.34,-0.33 -0.48,-0.72 -0.43,-1.15 0.06,-0.43 0.28,-0.85 0.67,-1.24 l -0.93,-0.93 c -0.61,0.62 -0.93,1.31 -0.96,2.08 -0.02,0.78 0.26,1.46 0.84,2.04 0.61,0.61 1.28,0.9 2.01,0.88 0.74,-0.03 1.45,-0.38 2.14,-1.08 0.36,-0.35 0.6,-0.78 0.72,-1.27 0.12,-0.49 0.11,-0.96 -0.04,-1.4 0.99,0.46 1.95,0.22 2.89,-0.71 0.68,-0.69 1.04,-1.43 1.06,-2.21 0.03,-0.79 -0.27,-1.5 -0.88,-2.11 -0.61,-0.61 -1.3,-0.91 -2.06,-0.9 -0.76,0.01 -1.46,0.34 -2.11,0.99 l 0.93,0.94 c 0.41,-0.41 0.83,-0.64 1.27,-0.68 0.44,-0.04 0.83,0.1 1.17,0.45 0.35,0.34 0.51,0.74 0.48,1.18 -0.03,0.44 -0.29,0.91 -0.77,1.39 -0.93,0.93 -1.84,0.95 -2.73,0.07 l -0.56,-0.56 -0.79,0.8 z m 10.45,8.16 c 0.68,-0.67 1.16,-1.33 1.44,-1.98 0.29,-0.65 0.4,-1.27 0.32,-1.87 l 2.18,0.12 -0.02,-1.29 -2.64,-0.12 c -0.18,-0.27 -0.37,-0.51 -0.58,-0.72 -0.8,-0.8 -1.71,-1.14 -2.73,-1.04 -1.02,0.1 -2.04,0.65 -3.07,1.66 l -1.4,1.4 c -1.04,1.03 -1.62,2.07 -1.74,3.1 -0.13,1.03 0.22,1.96 1.03,2.77 0.82,0.82 1.74,1.17 2.75,1.06 1.02,-0.11 2.05,-0.69 3.09,-1.71 l 1.37,-1.38 z m -2.3,0.38 c -0.82,0.81 -1.55,1.28 -2.22,1.41 -0.66,0.13 -1.27,-0.08 -1.82,-0.63 -0.53,-0.53 -0.73,-1.13 -0.6,-1.8 0.13,-0.68 0.58,-1.41 1.36,-2.19 l 1.38,-1.37 c 0.78,-0.79 1.52,-1.26 2.2,-1.4 0.69,-0.13 1.3,0.06 1.84,0.6 0.53,0.54 0.75,1.12 0.64,1.76 -0.11,0.64 -0.55,1.35 -1.31,2.15 l -1.47,1.47 z m 11.09,2.07 -4.29,-4.3 -0.71,0.7 -0.71,5.1 c -0.12,0.77 -0.25,1.37 -0.41,1.79 -0.16,0.41 -0.4,0.78 -0.72,1.1 -0.41,0.41 -0.83,0.64 -1.28,0.71 -0.44,0.06 -0.82,-0.06 -1.13,-0.37 -0.39,-0.39 -0.56,-0.83 -0.5,-1.31 0.06,-0.48 0.34,-0.98 0.85,-1.49 l -0.94,-0.93 c -0.71,0.71 -1.08,1.47 -1.13,2.3 -0.05,0.82 0.25,1.56 0.92,2.23 0.61,0.61 1.28,0.91 2.01,0.88 0.73,-0.02 1.4,-0.34 2.02,-0.96 0.76,-0.76 1.27,-2.06 1.51,-3.89 l 0.53,-3.95 3.19,3.18 0.79,-0.79 z m 2,7.15 0.85,0.86 0.8,-0.8 -0.86,-0.85 1.79,-1.79 -0.94,-0.93 -1.78,1.78 -2.91,-2.9 -0.57,0.57 -2.47,8.19 0.98,0.98 5.11,-5.11 z m -2.81,-2.8 1.87,1.87 -3.65,3.65 1.78,-5.52 z"/>
      </g>
    </g>
    <g id="g290">
      <g clip-path="url(#clipPath294)" id="g292">
        <path id="path298" style="fill:#000000;fill-opacity:1;fill-rule:nonzero;stroke:none" d="m 312.35,167.65 0.85,0.85 0.8,-0.8 -0.86,-0.85 1.79,-1.79 -0.94,-0.93 -1.78,1.78 -2.9,-2.9 -0.58,0.58 -2.47,8.18 0.98,0.98 5.11,-5.1 z m -2.81,-2.81 1.87,1.87 -3.65,3.66 1.78,-5.53 z m 9.18,10.36 c 0.68,-0.67 1.16,-1.33 1.44,-1.98 0.29,-0.65 0.39,-1.27 0.32,-1.87 l 2.17,0.12 -0.01,-1.29 -2.65,-0.12 c -0.17,-0.27 -0.36,-0.51 -0.57,-0.72 -0.8,-0.8 -1.71,-1.14 -2.73,-1.04 -1.02,0.1 -2.05,0.65 -3.07,1.66 l -1.4,1.4 c -1.04,1.03 -1.62,2.07 -1.74,3.1 -0.13,1.03 0.22,1.96 1.03,2.77 0.82,0.82 1.74,1.17 2.75,1.06 1.02,-0.11 2.05,-0.69 3.09,-1.71 l 1.37,-1.38 z m -2.31,0.38 c -0.81,0.81 -1.55,1.28 -2.21,1.41 -0.66,0.13 -1.27,-0.08 -1.82,-0.63 -0.53,-0.53 -0.73,-1.13 -0.6,-1.8 0.13,-0.68 0.58,-1.41 1.36,-2.19 l 1.37,-1.37 c 0.79,-0.79 1.53,-1.26 2.21,-1.4 0.69,-0.13 1.3,0.06 1.84,0.6 0.53,0.54 0.75,1.12 0.64,1.76 -0.11,0.64 -0.55,1.35 -1.31,2.15 l -1.48,1.47 z m 11.1,2.07 -4.3,-4.3 -0.7,0.7 -0.71,5.1 c -0.12,0.77 -0.26,1.37 -0.41,1.79 -0.16,0.41 -0.4,0.78 -0.72,1.1 -0.41,0.41 -0.84,0.64 -1.28,0.71 -0.44,0.06 -0.82,-0.06 -1.13,-0.37 -0.39,-0.39 -0.56,-0.83 -0.5,-1.31 0.06,-0.48 0.34,-0.98 0.84,-1.49 l -0.93,-0.93 c -0.71,0.71 -1.09,1.47 -1.14,2.3 -0.05,0.82 0.26,1.56 0.93,2.23 0.61,0.61 1.28,0.91 2.01,0.88 0.72,-0.02 1.4,-0.34 2.02,-0.96 0.76,-0.76 1.27,-2.06 1.51,-3.89 l 0.53,-3.95 3.18,3.18 0.8,-0.79 z m 1.99,7.15 0.86,0.86 0.8,-0.8 -0.86,-0.85 1.79,-1.79 -0.94,-0.93 -1.78,1.78 -2.91,-2.9 -0.57,0.57 -2.47,8.19 0.98,0.98 5.1,-5.11 z m -2.8,-2.8 1.87,1.87 -3.65,3.65 1.78,-5.52 z"/>
      </g>
    </g>
    <g id="g300">
      <g clip-path="url(#clipPath304)" id="g302">
        <path id="path308" style="fill:#000000;fill-opacity:1;fill-rule:nonzero;stroke:none" d="m 343.15,164.31 -0.94,-0.94 -6.51,6.51 -0.89,-2.34 -0.89,0.89 1.36,3.46 0.15,0.14 7.72,-7.72 z m 4.55,10.89 c 0.67,-0.67 1.16,-1.33 1.44,-1.98 0.29,-0.65 0.39,-1.27 0.32,-1.87 l 2.17,0.12 -0.01,-1.29 -2.65,-0.12 c -0.17,-0.27 -0.37,-0.51 -0.57,-0.72 -0.8,-0.8 -1.71,-1.14 -2.73,-1.04 -1.02,0.1 -2.05,0.65 -3.08,1.66 l -1.4,1.4 c -1.03,1.03 -1.61,2.07 -1.74,3.1 -0.12,1.03 0.22,1.96 1.04,2.77 0.82,0.82 1.73,1.17 2.75,1.06 1.02,-0.11 2.04,-0.69 3.09,-1.71 l 1.37,-1.38 z m -2.31,0.38 c -0.81,0.81 -1.55,1.28 -2.21,1.41 -0.66,0.13 -1.27,-0.08 -1.82,-0.63 -0.53,-0.53 -0.73,-1.13 -0.6,-1.8 0.13,-0.68 0.58,-1.41 1.36,-2.19 l 1.37,-1.37 c 0.79,-0.79 1.53,-1.26 2.21,-1.4 0.69,-0.13 1.3,0.06 1.84,0.6 0.53,0.54 0.74,1.12 0.63,1.76 -0.1,0.64 -0.54,1.35 -1.31,2.15 l -1.47,1.47 z m 11.1,2.07 -4.3,-4.3 -0.7,0.7 -0.71,5.1 c -0.12,0.77 -0.26,1.37 -0.42,1.79 -0.15,0.41 -0.39,0.78 -0.71,1.1 -0.41,0.41 -0.84,0.64 -1.28,0.71 -0.44,0.06 -0.82,-0.06 -1.13,-0.37 -0.39,-0.39 -0.56,-0.83 -0.5,-1.31 0.05,-0.48 0.34,-0.98 0.84,-1.49 l -0.93,-0.93 c -0.71,0.71 -1.09,1.47 -1.14,2.3 -0.05,0.82 0.26,1.56 0.93,2.23 0.61,0.61 1.28,0.91 2.01,0.88 0.72,-0.02 1.4,-0.34 2.02,-0.96 0.76,-0.76 1.26,-2.06 1.51,-3.89 l 0.53,-3.95 3.18,3.18 0.8,-0.79 z m -2.44,5.27 -3.5,4.16 3.34,3.35 0.91,-0.91 -2.56,-2.55 1.92,-2.28 c 0.09,0.54 0.32,0.99 0.69,1.36 0.6,0.6 1.3,0.83 2.11,0.71 0.8,-0.12 1.6,-0.58 2.38,-1.36 0.8,-0.8 1.24,-1.61 1.32,-2.43 0.08,-0.83 -0.2,-1.56 -0.85,-2.21 -0.58,-0.58 -1.23,-0.86 -1.97,-0.85 -0.74,0.02 -1.47,0.33 -2.19,0.94 l 0.88,0.88 c 0.49,-0.39 0.95,-0.59 1.37,-0.62 0.42,-0.02 0.79,0.13 1.11,0.45 0.37,0.36 0.49,0.8 0.38,1.32 -0.11,0.52 -0.43,1.04 -0.97,1.58 -0.5,0.5 -1.02,0.8 -1.56,0.9 -0.53,0.1 -0.99,-0.04 -1.36,-0.41 -0.31,-0.31 -0.48,-0.64 -0.5,-0.99 l 0,-0.5 -0.95,-0.54 z"/>
      </g>
    </g>
    <g id="g310">
      <g clip-path="url(#clipPath314)" id="g312">
        <path id="path318" style="fill:#000000;fill-opacity:1;fill-rule:nonzero;stroke:none" d="m 373.64,165.82 -4.29,-4.29 -0.71,0.7 -0.71,5.09 c -0.11,0.78 -0.25,1.38 -0.41,1.79 -0.16,0.42 -0.4,0.79 -0.72,1.11 -0.41,0.41 -0.83,0.64 -1.28,0.7 -0.44,0.07 -0.82,-0.05 -1.13,-0.36 -0.39,-0.4 -0.55,-0.83 -0.5,-1.31 0.06,-0.49 0.34,-0.98 0.85,-1.49 l -0.94,-0.93 c -0.7,0.71 -1.08,1.47 -1.13,2.29 -0.05,0.83 0.26,1.57 0.92,2.24 0.61,0.61 1.28,0.91 2.01,0.88 0.73,-0.02 1.4,-0.34 2.03,-0.97 0.76,-0.76 1.26,-2.05 1.51,-3.88 l 0.52,-3.95 3.19,3.18 0.79,-0.8 z m 3.04,9.38 c 0.67,-0.67 1.15,-1.33 1.44,-1.98 0.28,-0.65 0.39,-1.27 0.32,-1.87 l 2.17,0.12 -0.02,-1.29 -2.64,-0.12 c -0.18,-0.27 -0.37,-0.51 -0.58,-0.72 -0.79,-0.8 -1.7,-1.14 -2.73,-1.04 -1.02,0.1 -2.04,0.65 -3.07,1.66 l -1.4,1.4 c -1.03,1.03 -1.61,2.07 -1.74,3.1 -0.12,1.03 0.22,1.96 1.03,2.77 0.82,0.82 1.74,1.17 2.76,1.06 1.01,-0.11 2.04,-0.69 3.08,-1.71 l 1.38,-1.38 z m -2.31,0.38 c -0.81,0.81 -1.55,1.28 -2.21,1.41 -0.66,0.13 -1.27,-0.08 -1.82,-0.63 -0.53,-0.53 -0.73,-1.13 -0.6,-1.8 0.13,-0.68 0.58,-1.41 1.36,-2.19 l 1.37,-1.37 c 0.79,-0.79 1.52,-1.26 2.21,-1.4 0.68,-0.13 1.29,0.06 1.83,0.6 0.54,0.54 0.75,1.12 0.64,1.76 -0.11,0.64 -0.54,1.35 -1.31,2.15 l -1.47,1.47 z m 11.1,2.07 -4.3,-4.3 -0.7,0.7 -0.72,5.1 c -0.11,0.77 -0.25,1.37 -0.41,1.79 -0.16,0.41 -0.4,0.78 -0.72,1.1 -0.4,0.41 -0.83,0.64 -1.27,0.71 -0.45,0.06 -0.82,-0.06 -1.13,-0.37 -0.39,-0.39 -0.56,-0.83 -0.5,-1.31 0.05,-0.48 0.33,-0.98 0.84,-1.49 l -0.93,-0.93 c -0.71,0.71 -1.09,1.47 -1.14,2.3 -0.05,0.82 0.26,1.56 0.92,2.23 0.62,0.61 1.29,0.91 2.01,0.88 0.73,-0.02 1.4,-0.34 2.03,-0.96 0.76,-0.76 1.26,-2.06 1.51,-3.89 l 0.53,-3.95 3.18,3.18 0.8,-0.79 z m -2.44,5.27 -3.5,4.16 3.34,3.35 0.9,-0.91 -2.55,-2.55 1.92,-2.28 c 0.09,0.54 0.32,0.99 0.69,1.36 0.6,0.6 1.3,0.83 2.1,0.71 0.81,-0.12 1.6,-0.58 2.39,-1.36 0.8,-0.8 1.23,-1.61 1.32,-2.43 0.08,-0.83 -0.2,-1.56 -0.85,-2.21 -0.58,-0.58 -1.24,-0.86 -1.97,-0.85 -0.74,0.02 -1.47,0.33 -2.19,0.94 l 0.88,0.88 c 0.49,-0.39 0.95,-0.59 1.37,-0.62 0.42,-0.02 0.79,0.13 1.11,0.45 0.37,0.36 0.49,0.8 0.38,1.32 -0.11,0.52 -0.43,1.04 -0.97,1.58 -0.5,0.5 -1.02,0.8 -1.56,0.9 -0.54,0.1 -0.99,-0.04 -1.36,-0.41 -0.31,-0.31 -0.48,-0.64 -0.51,-0.99 l 0,-0.5 -0.94,-0.54 z"/>
      </g>
    </g>
    <g id="g320">
      <g clip-path="url(#clipPath324)" id="g322">
        <path id="path328" style="fill:#000000;fill-opacity:1;fill-rule:nonzero;stroke:none" d="m 395.2,167.04 0.6,0.6 c 0.38,0.38 0.56,0.79 0.53,1.24 -0.03,0.44 -0.25,0.87 -0.66,1.27 -0.9,0.91 -1.7,1.01 -2.39,0.31 -0.34,-0.33 -0.48,-0.72 -0.43,-1.15 0.06,-0.43 0.28,-0.85 0.68,-1.24 l -0.93,-0.93 c -0.62,0.62 -0.94,1.31 -0.96,2.08 -0.03,0.78 0.25,1.46 0.83,2.04 0.61,0.61 1.28,0.9 2.01,0.88 0.74,-0.03 1.45,-0.38 2.14,-1.08 0.36,-0.35 0.6,-0.78 0.72,-1.27 0.13,-0.49 0.11,-0.96 -0.04,-1.4 0.99,0.46 1.96,0.22 2.89,-0.71 0.68,-0.69 1.04,-1.43 1.07,-2.21 0.02,-0.79 -0.28,-1.5 -0.89,-2.11 -0.61,-0.61 -1.3,-0.91 -2.06,-0.9 -0.76,0.01 -1.46,0.34 -2.11,0.99 l 0.93,0.94 c 0.41,-0.41 0.83,-0.64 1.27,-0.68 0.44,-0.04 0.83,0.1 1.17,0.45 0.35,0.34 0.51,0.74 0.48,1.18 -0.03,0.44 -0.29,0.91 -0.77,1.39 -0.93,0.93 -1.84,0.95 -2.72,0.07 l -0.56,-0.56 -0.8,0.8 z m 10.46,8.16 c 0.67,-0.67 1.15,-1.33 1.44,-1.98 0.28,-0.65 0.39,-1.27 0.31,-1.87 l 2.18,0.12 -0.02,-1.29 -2.64,-0.12 c -0.18,-0.27 -0.37,-0.51 -0.58,-0.72 -0.8,-0.8 -1.71,-1.14 -2.73,-1.04 -1.02,0.1 -2.04,0.65 -3.07,1.66 l -1.4,1.4 c -1.03,1.03 -1.61,2.07 -1.74,3.1 -0.12,1.03 0.22,1.96 1.03,2.77 0.82,0.82 1.74,1.17 2.76,1.06 1.01,-0.11 2.04,-0.69 3.08,-1.71 l 1.38,-1.38 z m -2.31,0.38 c -0.82,0.81 -1.55,1.28 -2.21,1.41 -0.67,0.13 -1.27,-0.08 -1.83,-0.63 -0.52,-0.53 -0.72,-1.13 -0.6,-1.8 0.13,-0.68 0.59,-1.41 1.36,-2.19 l 1.38,-1.37 c 0.79,-0.79 1.52,-1.26 2.21,-1.4 0.68,-0.13 1.29,0.06 1.83,0.6 0.54,0.54 0.75,1.12 0.64,1.76 -0.11,0.64 -0.55,1.35 -1.31,2.15 l -1.47,1.47 z m 11.09,2.07 -4.29,-4.3 -0.71,0.7 -0.71,5.1 c -0.11,0.77 -0.25,1.37 -0.41,1.79 -0.16,0.41 -0.4,0.78 -0.72,1.1 -0.41,0.41 -0.83,0.64 -1.28,0.71 -0.44,0.06 -0.82,-0.06 -1.13,-0.37 -0.39,-0.39 -0.55,-0.83 -0.5,-1.31 0.06,-0.48 0.34,-0.98 0.85,-1.49 l -0.94,-0.93 c -0.7,0.71 -1.08,1.47 -1.13,2.3 -0.05,0.82 0.26,1.56 0.92,2.23 0.61,0.61 1.28,0.91 2.01,0.88 0.73,-0.02 1.4,-0.34 2.03,-0.96 0.76,-0.76 1.26,-2.06 1.51,-3.89 l 0.52,-3.95 3.19,3.18 0.79,-0.79 z m -2.43,5.27 -3.5,4.16 3.34,3.35 0.9,-0.91 -2.55,-2.55 1.91,-2.28 c 0.1,0.54 0.33,0.99 0.69,1.36 0.6,0.6 1.31,0.83 2.11,0.71 0.81,-0.12 1.6,-0.58 2.39,-1.36 0.79,-0.8 1.23,-1.61 1.32,-2.43 0.08,-0.83 -0.2,-1.56 -0.85,-2.21 -0.58,-0.58 -1.24,-0.86 -1.98,-0.85 -0.74,0.02 -1.46,0.33 -2.18,0.94 l 0.87,0.88 c 0.5,-0.39 0.95,-0.59 1.38,-0.62 0.42,-0.02 0.79,0.13 1.11,0.45 0.36,0.36 0.49,0.8 0.38,1.32 -0.11,0.52 -0.44,1.04 -0.97,1.58 -0.5,0.5 -1.02,0.8 -1.56,0.9 -0.54,0.1 -0.99,-0.04 -1.37,-0.41 -0.31,-0.31 -0.47,-0.64 -0.5,-0.99 l 0,-0.5 -0.94,-0.54 z"/>
      </g>
    </g>
    <g id="g330">
      <g clip-path="url(#clipPath334)" id="g332">
        <path id="path338" style="fill:#000000;fill-opacity:1;fill-rule:nonzero;stroke:none" d="m 428.26,167.65 0.85,0.85 0.8,-0.8 -0.85,-0.85 1.78,-1.79 -0.93,-0.93 -1.79,1.78 -2.9,-2.9 -0.58,0.58 -2.47,8.18 0.98,0.98 5.11,-5.1 z m -2.81,-2.81 1.87,1.87 -3.65,3.66 1.78,-5.53 z m 9.18,10.36 c 0.68,-0.67 1.16,-1.33 1.44,-1.98 0.29,-0.65 0.4,-1.27 0.32,-1.87 l 2.18,0.12 -0.02,-1.29 -2.64,-0.12 c -0.18,-0.27 -0.37,-0.51 -0.58,-0.72 -0.8,-0.8 -1.71,-1.14 -2.73,-1.04 -1.02,0.1 -2.04,0.65 -3.07,1.66 l -1.4,1.4 c -1.04,1.03 -1.62,2.07 -1.74,3.1 -0.13,1.03 0.22,1.96 1.03,2.77 0.82,0.82 1.74,1.17 2.75,1.06 1.02,-0.11 2.05,-0.69 3.09,-1.71 l 1.37,-1.38 z m -2.3,0.38 c -0.82,0.81 -1.55,1.28 -2.22,1.41 -0.66,0.13 -1.27,-0.08 -1.82,-0.63 -0.53,-0.53 -0.73,-1.13 -0.6,-1.8 0.13,-0.68 0.58,-1.41 1.36,-2.19 l 1.37,-1.37 c 0.79,-0.79 1.53,-1.26 2.21,-1.4 0.69,-0.13 1.3,0.06 1.84,0.6 0.53,0.54 0.75,1.12 0.64,1.76 -0.11,0.64 -0.55,1.35 -1.31,2.15 l -1.47,1.47 z m 11.09,2.07 -4.29,-4.3 -0.71,0.7 -0.71,5.1 c -0.12,0.77 -0.25,1.37 -0.41,1.79 -0.16,0.41 -0.4,0.78 -0.72,1.1 -0.41,0.41 -0.83,0.64 -1.28,0.71 -0.44,0.06 -0.82,-0.06 -1.13,-0.37 -0.39,-0.39 -0.56,-0.83 -0.5,-1.31 0.06,-0.48 0.34,-0.98 0.85,-1.49 l -0.94,-0.93 c -0.71,0.71 -1.08,1.47 -1.13,2.3 -0.05,0.82 0.25,1.56 0.92,2.23 0.61,0.61 1.28,0.91 2.01,0.88 0.73,-0.02 1.4,-0.34 2.02,-0.96 0.76,-0.76 1.27,-2.06 1.51,-3.89 l 0.53,-3.95 3.19,3.18 0.79,-0.79 z m -2.43,5.27 -3.51,4.16 3.35,3.35 0.9,-0.91 -2.56,-2.55 1.92,-2.28 c 0.1,0.54 0.33,0.99 0.69,1.36 0.6,0.6 1.3,0.83 2.11,0.71 0.81,-0.12 1.6,-0.58 2.39,-1.36 0.79,-0.8 1.23,-1.61 1.31,-2.43 0.09,-0.83 -0.2,-1.56 -0.84,-2.21 -0.58,-0.58 -1.24,-0.86 -1.98,-0.85 -0.74,0.02 -1.47,0.33 -2.18,0.94 l 0.87,0.88 c 0.49,-0.39 0.95,-0.59 1.37,-0.62 0.43,-0.02 0.8,0.13 1.12,0.45 0.36,0.36 0.49,0.8 0.38,1.32 -0.11,0.52 -0.44,1.04 -0.97,1.58 -0.51,0.5 -1.03,0.8 -1.56,0.9 -0.54,0.1 -0.99,-0.04 -1.37,-0.41 -0.31,-0.31 -0.47,-0.64 -0.5,-0.99 l 0,-0.5 -0.94,-0.54 z"/>
      </g>
    </g>
    <g id="g340">
      <g clip-path="url(#clipPath344)" id="g342">
        <path id="path348" style="fill:#000000;fill-opacity:1;fill-rule:nonzero;stroke:none" d="m 459.06,164.31 -0.94,-0.94 -6.51,6.51 -0.89,-2.34 -0.89,0.89 1.36,3.46 0.15,0.14 7.72,-7.72 z m 4.55,10.89 c 0.68,-0.67 1.16,-1.33 1.44,-1.98 0.29,-0.65 0.39,-1.27 0.32,-1.87 l 2.17,0.12 -0.01,-1.29 -2.65,-0.12 c -0.17,-0.27 -0.36,-0.51 -0.57,-0.72 -0.8,-0.8 -1.71,-1.14 -2.73,-1.04 -1.02,0.1 -2.05,0.65 -3.07,1.66 l -1.4,1.4 c -1.04,1.03 -1.62,2.07 -1.74,3.1 -0.13,1.03 0.22,1.96 1.03,2.77 0.82,0.82 1.74,1.17 2.75,1.06 1.02,-0.11 2.05,-0.69 3.09,-1.71 l 1.37,-1.38 z m -2.31,0.38 c -0.81,0.81 -1.55,1.28 -2.21,1.41 -0.66,0.13 -1.27,-0.08 -1.82,-0.63 -0.53,-0.53 -0.73,-1.13 -0.6,-1.8 0.13,-0.68 0.58,-1.41 1.36,-2.19 L 459.4,171 c 0.79,-0.79 1.53,-1.26 2.21,-1.4 0.69,-0.13 1.3,0.06 1.84,0.6 0.53,0.54 0.75,1.12 0.64,1.76 -0.11,0.64 -0.55,1.35 -1.31,2.15 l -1.48,1.47 z m 11.1,2.07 -4.3,-4.3 -0.7,0.7 -0.71,5.1 c -0.12,0.77 -0.26,1.37 -0.41,1.79 -0.16,0.41 -0.4,0.78 -0.72,1.1 -0.41,0.41 -0.84,0.64 -1.28,0.71 -0.44,0.06 -0.82,-0.06 -1.13,-0.37 -0.39,-0.39 -0.56,-0.83 -0.5,-1.31 0.06,-0.48 0.34,-0.98 0.84,-1.49 l -0.93,-0.93 c -0.71,0.71 -1.09,1.47 -1.14,2.3 -0.05,0.82 0.26,1.56 0.93,2.23 0.61,0.61 1.28,0.91 2.01,0.88 0.72,-0.02 1.4,-0.34 2.02,-0.96 0.76,-0.76 1.27,-2.06 1.51,-3.89 l 0.53,-3.95 3.18,3.18 0.8,-0.79 z m -3.4,11.98 0.83,-0.83 -0.16,-0.15 c -0.61,-0.64 -0.88,-1.34 -0.83,-2.1 0.06,-0.76 0.47,-1.57 1.23,-2.44 -0.09,0.77 0.13,1.42 0.66,1.95 0.57,0.57 1.25,0.79 2.05,0.65 0.8,-0.13 1.58,-0.57 2.34,-1.33 0.8,-0.81 1.26,-1.63 1.36,-2.46 0.1,-0.84 -0.16,-1.57 -0.78,-2.19 -0.63,-0.62 -1.4,-0.85 -2.34,-0.67 -0.93,0.17 -1.85,0.71 -2.77,1.63 l -0.37,0.37 c -1.06,1.06 -1.79,2.01 -2.18,2.87 -0.4,0.85 -0.53,1.66 -0.39,2.41 0.14,0.75 0.54,1.46 1.19,2.13 l 0.16,0.16 z m 2.39,-4.54 c -0.25,-0.25 -0.39,-0.58 -0.41,-0.99 -0.02,-0.41 0.07,-0.81 0.27,-1.2 l 0.39,-0.39 c 0.62,-0.62 1.24,-1.02 1.85,-1.19 0.61,-0.17 1.08,-0.1 1.4,0.22 0.35,0.35 0.46,0.78 0.33,1.3 -0.12,0.52 -0.45,1.04 -0.97,1.57 -0.53,0.52 -1.05,0.85 -1.58,0.98 -0.52,0.13 -0.95,0.03 -1.28,-0.3 z"/>
      </g>
    </g>
    <g id="g350">
      <g clip-path="url(#clipPath354)" id="g352">
        <path id="path358" style="fill:#000000;fill-opacity:1;fill-rule:nonzero;stroke:none" d="m 489.56,165.82 -4.3,-4.29 -0.7,0.7 -0.72,5.09 c -0.11,0.78 -0.25,1.38 -0.41,1.79 -0.16,0.42 -0.4,0.79 -0.72,1.11 -0.4,0.41 -0.83,0.64 -1.27,0.7 -0.45,0.07 -0.82,-0.05 -1.13,-0.36 -0.39,-0.4 -0.56,-0.83 -0.51,-1.31 0.06,-0.49 0.34,-0.98 0.85,-1.49 l -0.94,-0.93 c -0.7,0.71 -1.08,1.47 -1.13,2.29 -0.05,0.83 0.26,1.57 0.92,2.24 0.62,0.61 1.29,0.91 2.01,0.88 0.73,-0.02 1.4,-0.34 2.03,-0.97 0.76,-0.76 1.26,-2.05 1.51,-3.88 l 0.53,-3.95 3.18,3.18 0.8,-0.8 z m 3.03,9.38 c 0.67,-0.67 1.16,-1.33 1.44,-1.98 0.29,-0.65 0.39,-1.27 0.32,-1.87 l 2.17,0.12 -0.01,-1.29 -2.65,-0.12 c -0.17,-0.27 -0.37,-0.51 -0.57,-0.72 -0.8,-0.8 -1.71,-1.14 -2.73,-1.04 -1.02,0.1 -2.05,0.65 -3.08,1.66 l -1.4,1.4 c -1.03,1.03 -1.61,2.07 -1.74,3.1 -0.12,1.03 0.22,1.96 1.04,2.77 0.82,0.82 1.73,1.17 2.75,1.06 1.02,-0.11 2.04,-0.69 3.09,-1.71 l 1.37,-1.38 z m -2.31,0.38 c -0.81,0.81 -1.55,1.28 -2.21,1.41 -0.66,0.13 -1.27,-0.08 -1.82,-0.63 -0.53,-0.53 -0.73,-1.13 -0.6,-1.8 0.13,-0.68 0.58,-1.41 1.36,-2.19 l 1.37,-1.37 c 0.79,-0.79 1.53,-1.26 2.21,-1.4 0.69,-0.13 1.3,0.06 1.84,0.6 0.53,0.54 0.74,1.12 0.63,1.76 -0.1,0.64 -0.54,1.35 -1.31,2.15 l -1.47,1.47 z m 11.1,2.07 -4.3,-4.3 -0.7,0.7 -0.71,5.1 c -0.12,0.77 -0.26,1.37 -0.42,1.79 -0.15,0.41 -0.39,0.78 -0.71,1.1 -0.41,0.41 -0.84,0.64 -1.28,0.71 -0.45,0.06 -0.82,-0.06 -1.13,-0.37 -0.39,-0.39 -0.56,-0.83 -0.5,-1.31 0.05,-0.48 0.33,-0.98 0.84,-1.49 l -0.93,-0.93 c -0.71,0.71 -1.09,1.47 -1.14,2.3 -0.05,0.82 0.26,1.56 0.93,2.23 0.61,0.61 1.28,0.91 2.01,0.88 0.72,-0.02 1.4,-0.34 2.02,-0.96 0.76,-0.76 1.26,-2.06 1.51,-3.89 l 0.53,-3.95 3.18,3.18 0.8,-0.79 z m -3.4,11.98 0.82,-0.83 -0.15,-0.15 c -0.61,-0.64 -0.89,-1.34 -0.83,-2.1 0.05,-0.76 0.46,-1.57 1.23,-2.44 -0.09,0.77 0.13,1.42 0.66,1.95 0.57,0.57 1.25,0.79 2.05,0.65 0.8,-0.13 1.58,-0.57 2.33,-1.33 0.81,-0.81 1.26,-1.63 1.36,-2.46 0.1,-0.84 -0.16,-1.57 -0.77,-2.19 -0.63,-0.62 -1.41,-0.85 -2.34,-0.67 -0.93,0.17 -1.86,0.71 -2.77,1.63 l -0.38,0.37 c -1.05,1.06 -1.78,2.01 -2.18,2.87 -0.39,0.85 -0.52,1.66 -0.38,2.41 0.14,0.75 0.54,1.46 1.19,2.13 l 0.16,0.16 z m 2.39,-4.54 c -0.26,-0.25 -0.39,-0.58 -0.41,-0.99 -0.03,-0.41 0.07,-0.81 0.27,-1.2 l 0.39,-0.39 c 0.62,-0.62 1.24,-1.02 1.85,-1.19 0.61,-0.17 1.08,-0.1 1.4,0.22 0.35,0.35 0.46,0.78 0.33,1.3 -0.12,0.52 -0.45,1.04 -0.98,1.57 -0.52,0.52 -1.04,0.85 -1.57,0.98 -0.52,0.13 -0.95,0.03 -1.28,-0.3 z"/>
      </g>
    </g>
    <g id="g360">
      <g clip-path="url(#clipPath364)" id="g362">
        <path id="path368" style="fill:#000000;fill-opacity:1;fill-rule:nonzero;stroke:none" d="m 511.11,167.04 0.6,0.6 c 0.38,0.38 0.56,0.79 0.53,1.24 -0.03,0.44 -0.25,0.87 -0.65,1.27 -0.9,0.91 -1.7,1.01 -2.4,0.31 -0.34,-0.33 -0.48,-0.72 -0.42,-1.15 0.05,-0.43 0.27,-0.85 0.67,-1.24 l -0.93,-0.93 c -0.62,0.62 -0.94,1.31 -0.96,2.08 -0.03,0.78 0.25,1.46 0.84,2.04 0.6,0.61 1.27,0.9 2.01,0.88 0.73,-0.03 1.44,-0.38 2.14,-1.08 0.35,-0.35 0.59,-0.78 0.71,-1.27 0.13,-0.49 0.11,-0.96 -0.04,-1.4 0.99,0.46 1.96,0.22 2.89,-0.71 0.69,-0.69 1.04,-1.43 1.07,-2.21 0.02,-0.79 -0.27,-1.5 -0.89,-2.11 -0.61,-0.61 -1.29,-0.91 -2.05,-0.9 -0.76,0.01 -1.47,0.34 -2.12,0.99 l 0.93,0.94 c 0.41,-0.41 0.83,-0.64 1.27,-0.68 0.44,-0.04 0.83,0.1 1.17,0.45 0.35,0.34 0.51,0.74 0.48,1.18 -0.03,0.44 -0.29,0.91 -0.77,1.39 -0.93,0.93 -1.84,0.95 -2.72,0.07 l -0.56,-0.56 -0.8,0.8 z m 10.46,8.16 c 0.67,-0.67 1.15,-1.33 1.44,-1.98 0.28,-0.65 0.39,-1.27 0.32,-1.87 l 2.17,0.12 -0.02,-1.29 -2.64,-0.12 c -0.18,-0.27 -0.37,-0.51 -0.58,-0.72 -0.8,-0.8 -1.71,-1.14 -2.73,-1.04 -1.02,0.1 -2.04,0.65 -3.07,1.66 l -1.4,1.4 c -1.03,1.03 -1.61,2.07 -1.74,3.1 -0.12,1.03 0.22,1.96 1.03,2.77 0.82,0.82 1.74,1.17 2.76,1.06 1.01,-0.11 2.04,-0.69 3.08,-1.71 l 1.38,-1.38 z m -2.31,0.38 c -0.81,0.81 -1.55,1.28 -2.21,1.41 -0.66,0.13 -1.27,-0.08 -1.82,-0.63 -0.53,-0.53 -0.73,-1.13 -0.6,-1.8 0.13,-0.68 0.58,-1.41 1.36,-2.19 l 1.37,-1.37 c 0.79,-0.79 1.52,-1.26 2.21,-1.4 0.68,-0.13 1.29,0.06 1.83,0.6 0.54,0.54 0.75,1.12 0.64,1.76 -0.11,0.64 -0.54,1.35 -1.31,2.15 l -1.47,1.47 z m 11.1,2.07 -4.3,-4.3 -0.7,0.7 -0.72,5.1 c -0.11,0.77 -0.25,1.37 -0.41,1.79 -0.16,0.41 -0.4,0.78 -0.72,1.1 -0.4,0.41 -0.83,0.64 -1.27,0.71 -0.45,0.06 -0.82,-0.06 -1.13,-0.37 -0.39,-0.39 -0.56,-0.83 -0.51,-1.31 0.06,-0.48 0.34,-0.98 0.85,-1.49 l -0.93,-0.93 c -0.71,0.71 -1.09,1.47 -1.14,2.3 -0.05,0.82 0.26,1.56 0.92,2.23 0.62,0.61 1.29,0.91 2.01,0.88 0.73,-0.02 1.4,-0.34 2.03,-0.96 0.76,-0.76 1.26,-2.06 1.51,-3.89 l 0.53,-3.95 3.18,3.18 0.8,-0.79 z m -3.41,11.98 0.83,-0.83 -0.15,-0.15 c -0.61,-0.64 -0.89,-1.34 -0.83,-2.1 0.05,-0.76 0.46,-1.57 1.22,-2.44 -0.08,0.77 0.14,1.42 0.67,1.95 0.57,0.57 1.25,0.79 2.05,0.65 0.8,-0.13 1.58,-0.57 2.33,-1.33 0.81,-0.81 1.26,-1.63 1.36,-2.46 0.1,-0.84 -0.16,-1.57 -0.78,-2.19 -0.62,-0.62 -1.4,-0.85 -2.33,-0.67 -0.93,0.17 -1.86,0.71 -2.77,1.63 l -0.38,0.37 c -1.05,1.06 -1.78,2.01 -2.18,2.87 -0.4,0.85 -0.52,1.66 -0.38,2.41 0.14,0.75 0.53,1.46 1.18,2.13 l 0.16,0.16 z m 2.39,-4.54 c -0.25,-0.25 -0.39,-0.58 -0.41,-0.99 -0.02,-0.41 0.07,-0.81 0.28,-1.2 l 0.38,-0.39 c 0.63,-0.62 1.24,-1.02 1.86,-1.19 0.61,-0.17 1.08,-0.1 1.4,0.22 0.34,0.35 0.46,0.78 0.33,1.3 -0.12,0.52 -0.45,1.04 -0.98,1.57 -0.52,0.52 -1.04,0.85 -1.57,0.98 -0.53,0.13 -0.95,0.03 -1.29,-0.3 z"/>
      </g>
    </g>
    <g id="g370">
      <g clip-path="url(#clipPath374)" id="g372">
        <path id="path378" style="fill:#000000;fill-opacity:1;fill-rule:nonzero;stroke:none" d="m 544.17,167.65 0.86,0.85 0.79,-0.8 -0.85,-0.85 1.78,-1.79 -0.93,-0.93 -1.79,1.78 -2.9,-2.9 -0.58,0.58 -2.47,8.18 0.98,0.98 5.11,-5.1 z m -2.8,-2.81 1.87,1.87 -3.66,3.66 1.79,-5.53 z m 9.17,10.36 c 0.68,-0.67 1.16,-1.33 1.45,-1.98 0.28,-0.65 0.39,-1.27 0.31,-1.87 l 2.18,0.12 -0.02,-1.29 -2.64,-0.12 c -0.18,-0.27 -0.37,-0.51 -0.58,-0.72 -0.8,-0.8 -1.71,-1.14 -2.73,-1.04 -1.02,0.1 -2.04,0.65 -3.07,1.66 l -1.4,1.4 c -1.03,1.03 -1.61,2.07 -1.74,3.1 -0.12,1.03 0.22,1.96 1.03,2.77 0.82,0.82 1.74,1.17 2.76,1.06 1.01,-0.11 2.04,-0.69 3.08,-1.71 l 1.37,-1.38 z m -2.3,0.38 c -0.82,0.81 -1.55,1.28 -2.21,1.41 -0.67,0.13 -1.27,-0.08 -1.83,-0.63 -0.52,-0.53 -0.72,-1.13 -0.6,-1.8 0.13,-0.68 0.59,-1.41 1.36,-2.19 l 1.38,-1.37 c 0.79,-0.79 1.52,-1.26 2.21,-1.4 0.68,-0.13 1.29,0.06 1.83,0.6 0.54,0.54 0.75,1.12 0.64,1.76 -0.11,0.64 -0.55,1.35 -1.31,2.15 l -1.47,1.47 z m 11.09,2.07 -4.29,-4.3 -0.71,0.7 -0.71,5.1 c -0.11,0.77 -0.25,1.37 -0.41,1.79 -0.16,0.41 -0.4,0.78 -0.72,1.1 -0.41,0.41 -0.83,0.64 -1.28,0.71 -0.44,0.06 -0.82,-0.06 -1.13,-0.37 -0.39,-0.39 -0.55,-0.83 -0.5,-1.31 0.06,-0.48 0.34,-0.98 0.85,-1.49 l -0.94,-0.93 c -0.7,0.71 -1.08,1.47 -1.13,2.3 -0.05,0.82 0.26,1.56 0.92,2.23 0.61,0.61 1.28,0.91 2.01,0.88 0.73,-0.02 1.4,-0.34 2.03,-0.96 0.76,-0.76 1.26,-2.06 1.51,-3.89 l 0.52,-3.95 3.19,3.18 0.79,-0.79 z m -3.4,11.98 0.83,-0.83 -0.15,-0.15 c -0.61,-0.64 -0.89,-1.34 -0.83,-2.1 0.05,-0.76 0.46,-1.57 1.22,-2.44 -0.09,0.77 0.14,1.42 0.67,1.95 0.56,0.57 1.25,0.79 2.05,0.65 0.8,-0.13 1.57,-0.57 2.33,-1.33 0.81,-0.81 1.26,-1.63 1.36,-2.46 0.1,-0.84 -0.16,-1.57 -0.78,-2.19 -0.62,-0.62 -1.4,-0.85 -2.33,-0.67 -0.94,0.17 -1.86,0.71 -2.77,1.63 l -0.38,0.37 c -1.06,1.06 -1.78,2.01 -2.18,2.87 -0.4,0.85 -0.53,1.66 -0.39,2.41 0.15,0.75 0.54,1.46 1.19,2.13 l 0.16,0.16 z m 2.39,-4.54 c -0.25,-0.25 -0.39,-0.58 -0.41,-0.99 -0.02,-0.41 0.07,-0.81 0.28,-1.2 l 0.38,-0.39 c 0.62,-0.62 1.24,-1.02 1.85,-1.19 0.62,-0.17 1.08,-0.1 1.4,0.22 0.35,0.35 0.46,0.78 0.34,1.3 -0.13,0.52 -0.45,1.04 -0.98,1.57 -0.52,0.52 -1.05,0.85 -1.57,0.98 -0.53,0.13 -0.96,0.03 -1.29,-0.3 z"/>
      </g>
    </g>
    <g id="g380">
      <g clip-path="url(#clipPath384)" id="g382">
        <path id="path388" style="fill:#000000;fill-opacity:1;fill-rule:nonzero;stroke:none" d="m 574.97,164.31 -0.93,-0.94 -6.51,6.51 -0.9,-2.34 -0.88,0.89 1.35,3.46 0.15,0.14 7.72,-7.72 z m 4.55,10.89 c 0.68,-0.67 1.16,-1.33 1.44,-1.98 0.29,-0.65 0.39,-1.27 0.32,-1.87 l 2.18,0.12 -0.02,-1.29 -2.64,-0.12 c -0.18,-0.27 -0.37,-0.51 -0.58,-0.72 -0.8,-0.8 -1.71,-1.14 -2.73,-1.04 -1.02,0.1 -2.05,0.65 -3.07,1.66 l -1.4,1.4 c -1.04,1.03 -1.62,2.07 -1.74,3.1 -0.13,1.03 0.22,1.96 1.03,2.77 0.82,0.82 1.74,1.17 2.75,1.06 1.02,-0.11 2.05,-0.69 3.09,-1.71 l 1.37,-1.38 z m -2.3,0.38 c -0.82,0.81 -1.56,1.28 -2.22,1.41 -0.66,0.13 -1.27,-0.08 -1.82,-0.63 -0.53,-0.53 -0.73,-1.13 -0.6,-1.8 0.13,-0.68 0.58,-1.41 1.36,-2.19 l 1.37,-1.37 c 0.79,-0.79 1.53,-1.26 2.21,-1.4 0.69,-0.13 1.3,0.06 1.84,0.6 0.53,0.54 0.75,1.12 0.64,1.76 -0.11,0.64 -0.55,1.35 -1.31,2.15 l -1.47,1.47 z m 11.09,2.07 -4.3,-4.3 -0.7,0.7 -0.71,5.1 c -0.12,0.77 -0.25,1.37 -0.41,1.79 -0.16,0.41 -0.4,0.78 -0.72,1.1 -0.41,0.41 -0.83,0.64 -1.28,0.71 -0.44,0.06 -0.82,-0.06 -1.13,-0.37 -0.39,-0.39 -0.56,-0.83 -0.5,-1.31 0.06,-0.48 0.34,-0.98 0.85,-1.49 l -0.94,-0.93 c -0.71,0.71 -1.08,1.47 -1.13,2.3 -0.05,0.82 0.25,1.56 0.92,2.23 0.61,0.61 1.28,0.91 2.01,0.88 0.73,-0.02 1.4,-0.34 2.02,-0.96 0.76,-0.76 1.27,-2.06 1.51,-3.89 l 0.53,-3.95 3.19,3.18 0.79,-0.79 z m -1.86,12.41 4.49,-9.78 -0.97,-0.98 -4.25,9.53 -3.42,-3.43 -0.81,0.8 4.41,4.41 0.55,-0.55 z"/>
      </g>
    </g>
    <g id="g390">
      <g clip-path="url(#clipPath394)" id="g392">
        <path id="path398" style="fill:#000000;fill-opacity:1;fill-rule:nonzero;stroke:none" d="m 605.47,165.82 -4.3,-4.29 -0.7,0.7 -0.71,5.09 c -0.12,0.78 -0.26,1.38 -0.42,1.79 -0.15,0.42 -0.39,0.79 -0.71,1.11 -0.41,0.41 -0.84,0.64 -1.28,0.7 -0.45,0.07 -0.82,-0.05 -1.13,-0.36 -0.39,-0.4 -0.56,-0.83 -0.5,-1.31 0.05,-0.49 0.33,-0.98 0.84,-1.49 l -0.93,-0.93 c -0.71,0.71 -1.09,1.47 -1.14,2.29 -0.05,0.83 0.26,1.57 0.93,2.24 0.61,0.61 1.28,0.91 2,0.88 0.73,-0.02 1.41,-0.34 2.03,-0.97 0.76,-0.76 1.26,-2.05 1.51,-3.88 l 0.53,-3.95 3.18,3.18 0.8,-0.8 z m 3.03,9.38 c 0.68,-0.67 1.16,-1.33 1.44,-1.98 0.29,-0.65 0.39,-1.27 0.32,-1.87 l 2.17,0.12 -0.01,-1.29 -2.65,-0.12 c -0.17,-0.27 -0.36,-0.51 -0.57,-0.72 -0.8,-0.8 -1.71,-1.14 -2.73,-1.04 -1.02,0.1 -2.05,0.65 -3.07,1.66 l -1.4,1.4 c -1.04,1.03 -1.62,2.07 -1.74,3.1 -0.13,1.03 0.22,1.96 1.03,2.77 0.82,0.82 1.74,1.17 2.75,1.06 1.02,-0.11 2.05,-0.69 3.09,-1.71 l 1.37,-1.38 z m -2.31,0.38 c -0.81,0.81 -1.55,1.28 -2.21,1.41 -0.66,0.13 -1.27,-0.08 -1.82,-0.63 -0.53,-0.53 -0.73,-1.13 -0.6,-1.8 0.13,-0.68 0.58,-1.41 1.36,-2.19 l 1.37,-1.37 c 0.79,-0.79 1.53,-1.26 2.21,-1.4 0.69,-0.13 1.3,0.06 1.84,0.6 0.53,0.54 0.75,1.12 0.64,1.76 -0.11,0.64 -0.55,1.35 -1.31,2.15 l -1.48,1.47 z m 11.1,2.07 -4.3,-4.3 -0.7,0.7 -0.71,5.1 c -0.12,0.77 -0.26,1.37 -0.41,1.79 -0.16,0.41 -0.4,0.78 -0.72,1.1 -0.41,0.41 -0.84,0.64 -1.28,0.71 -0.44,0.06 -0.82,-0.06 -1.13,-0.37 -0.39,-0.39 -0.56,-0.83 -0.5,-1.31 0.06,-0.48 0.34,-0.98 0.84,-1.49 l -0.93,-0.93 c -0.71,0.71 -1.09,1.47 -1.14,2.3 -0.05,0.82 0.26,1.56 0.93,2.23 0.61,0.61 1.28,0.91 2.01,0.88 0.72,-0.02 1.4,-0.34 2.02,-0.96 0.76,-0.76 1.27,-2.06 1.51,-3.89 l 0.53,-3.95 3.18,3.18 0.8,-0.79 z m -1.86,12.41 4.49,-9.78 -0.97,-0.98 -4.25,9.53 -3.43,-3.43 -0.8,0.8 4.41,4.41 0.55,-0.55 z"/>
      </g>
    </g>
    <g id="g400">
      <g clip-path="url(#clipPath404)" id="g402">
        <path id="path408" style="fill:#000000;fill-opacity:1;fill-rule:nonzero;stroke:none" d="m 627.02,167.04 0.6,0.6 c 0.38,0.38 0.56,0.79 0.53,1.24 -0.03,0.44 -0.24,0.87 -0.65,1.27 -0.9,0.91 -1.7,1.01 -2.4,0.31 -0.33,-0.33 -0.47,-0.72 -0.42,-1.15 0.05,-0.43 0.27,-0.85 0.67,-1.24 l -0.93,-0.93 c -0.62,0.62 -0.94,1.31 -0.96,2.08 -0.03,0.78 0.25,1.46 0.84,2.04 0.6,0.61 1.27,0.9 2.01,0.88 0.73,-0.03 1.44,-0.38 2.14,-1.08 0.35,-0.35 0.59,-0.78 0.72,-1.27 0.12,-0.49 0.11,-0.96 -0.05,-1.4 1,0.46 1.96,0.22 2.89,-0.71 0.69,-0.69 1.04,-1.43 1.07,-2.21 0.02,-0.79 -0.27,-1.5 -0.89,-2.11 -0.61,-0.61 -1.29,-0.91 -2.05,-0.9 -0.76,0.01 -1.47,0.34 -2.12,0.99 l 0.94,0.94 c 0.4,-0.41 0.83,-0.64 1.26,-0.68 0.44,-0.04 0.83,0.1 1.17,0.45 0.35,0.34 0.51,0.74 0.48,1.18 -0.03,0.44 -0.28,0.91 -0.77,1.39 -0.93,0.93 -1.84,0.95 -2.72,0.07 l -0.56,-0.56 -0.8,0.8 z m 10.46,8.16 c 0.67,-0.67 1.15,-1.33 1.44,-1.98 0.29,-0.65 0.39,-1.27 0.32,-1.87 l 2.17,0.12 -0.01,-1.29 -2.65,-0.12 c -0.17,-0.27 -0.37,-0.51 -0.57,-0.72 -0.8,-0.8 -1.71,-1.14 -2.73,-1.04 -1.02,0.1 -2.05,0.65 -3.08,1.66 l -1.4,1.4 c -1.03,1.03 -1.61,2.07 -1.74,3.1 -0.12,1.03 0.22,1.96 1.04,2.77 0.82,0.82 1.73,1.17 2.75,1.06 1.02,-0.11 2.04,-0.69 3.09,-1.71 l 1.37,-1.38 z m -2.31,0.38 c -0.81,0.81 -1.55,1.28 -2.21,1.41 -0.66,0.13 -1.27,-0.08 -1.82,-0.63 -0.53,-0.53 -0.73,-1.13 -0.6,-1.8 0.13,-0.68 0.58,-1.41 1.36,-2.19 l 1.37,-1.37 c 0.79,-0.79 1.53,-1.26 2.21,-1.4 0.68,-0.13 1.3,0.06 1.84,0.6 0.53,0.54 0.74,1.12 0.63,1.76 -0.11,0.64 -0.54,1.35 -1.31,2.15 l -1.47,1.47 z m 11.1,2.07 -4.3,-4.3 -0.7,0.7 -0.71,5.1 c -0.12,0.77 -0.26,1.37 -0.42,1.79 -0.15,0.41 -0.39,0.78 -0.71,1.1 -0.41,0.41 -0.84,0.64 -1.28,0.71 -0.45,0.06 -0.82,-0.06 -1.13,-0.37 -0.39,-0.39 -0.56,-0.83 -0.5,-1.31 0.05,-0.48 0.33,-0.98 0.84,-1.49 l -0.93,-0.93 c -0.71,0.71 -1.09,1.47 -1.14,2.3 -0.05,0.82 0.26,1.56 0.93,2.23 0.61,0.61 1.28,0.91 2,0.88 0.73,-0.02 1.41,-0.34 2.03,-0.96 0.76,-0.76 1.26,-2.06 1.51,-3.89 l 0.53,-3.95 3.18,3.18 0.8,-0.79 z m -1.86,12.41 4.49,-9.78 -0.98,-0.98 -4.24,9.53 -3.43,-3.43 -0.8,0.8 4.41,4.41 0.55,-0.55 z"/>
      </g>
    </g>
    <g id="g410">
      <g clip-path="url(#clipPath414)" id="g412">
        <path id="path418" style="fill:#000000;fill-opacity:1;fill-rule:nonzero;stroke:none" d="m 660.08,167.65 0.86,0.85 0.79,-0.8 -0.85,-0.85 1.78,-1.79 -0.93,-0.93 -1.79,1.78 -2.9,-2.9 -0.57,0.58 -2.48,8.18 0.99,0.98 5.1,-5.1 z m -2.8,-2.81 1.87,1.87 -3.66,3.66 1.79,-5.53 z m 9.18,10.36 c 0.67,-0.67 1.15,-1.33 1.44,-1.98 0.28,-0.65 0.39,-1.27 0.31,-1.87 l 2.18,0.12 -0.02,-1.29 -2.64,-0.12 c -0.18,-0.27 -0.37,-0.51 -0.58,-0.72 -0.8,-0.8 -1.71,-1.14 -2.73,-1.04 -1.02,0.1 -2.04,0.65 -3.07,1.66 l -1.4,1.4 c -1.03,1.03 -1.61,2.07 -1.74,3.1 -0.12,1.03 0.22,1.96 1.03,2.77 0.82,0.82 1.74,1.17 2.76,1.06 1.01,-0.11 2.04,-0.69 3.08,-1.71 l 1.38,-1.38 z m -2.31,0.38 c -0.81,0.81 -1.55,1.28 -2.21,1.41 -0.66,0.13 -1.27,-0.08 -1.82,-0.63 -0.53,-0.53 -0.73,-1.13 -0.6,-1.8 0.12,-0.68 0.58,-1.41 1.36,-2.19 l 1.37,-1.37 c 0.79,-0.79 1.52,-1.26 2.21,-1.4 0.68,-0.13 1.29,0.06 1.83,0.6 0.54,0.54 0.75,1.12 0.64,1.76 -0.11,0.64 -0.54,1.35 -1.31,2.15 l -1.47,1.47 z m 11.1,2.07 -4.3,-4.3 -0.7,0.7 -0.72,5.1 c -0.11,0.77 -0.25,1.37 -0.41,1.79 -0.16,0.41 -0.4,0.78 -0.72,1.1 -0.4,0.41 -0.83,0.64 -1.27,0.71 -0.45,0.06 -0.82,-0.06 -1.13,-0.37 -0.39,-0.39 -0.56,-0.83 -0.51,-1.31 0.06,-0.48 0.34,-0.98 0.85,-1.49 l -0.94,-0.93 c -0.7,0.71 -1.08,1.47 -1.13,2.3 -0.05,0.82 0.26,1.56 0.92,2.23 0.62,0.61 1.29,0.91 2.01,0.88 0.73,-0.02 1.4,-0.34 2.03,-0.96 0.76,-0.76 1.26,-2.06 1.51,-3.89 l 0.53,-3.95 3.18,3.18 0.8,-0.79 z m -1.87,12.41 4.5,-9.78 -0.98,-0.98 -4.24,9.53 -3.43,-3.43 -0.8,0.8 4.41,4.41 0.54,-0.55 z"/>
      </g>
    </g>
    <g id="g420">
      <g clip-path="url(#clipPath424)" id="g422"><text id="text428" style="font-variant:normal;font-weight:bold;font-size:18.76799965px;font-family:'Roboto Condensed';-inkscape-font-specification:RobotoCondensed-Bold;writing-mode:lr-tb;fill:#000000;fill-opacity:1;fill-rule:nonzero;stroke:none" transform="matrix(1,0,0,-1,172.99,472.8)"><tspan id="tspan430" y="0" x="0 10.847904 15.164544 25.937376 30.254017 44.48016 55.722191 60.038834 70.830429 81.002686 85.07534 95.923248 105.26971 109.99924 119.2331 133.04636 142.03622 146.35286 155.90578 159.97844 168.81816 177.95818 187.32341 191.64005 202.61932 208.94414 218.2906 230.17075 235.87622 245.11008 249.1452 255.2448">V &amp; MA US Volume $ and Growth (R</tspan></text>
</g>
    </g>
    <g id="g432">
      <g clip-path="url(#clipPath436)" id="g434"><text id="text440" style="font-variant:normal;font-weight:bold;font-size:18.76799965px;font-family:'Roboto Condensed';-inkscape-font-specification:RobotoCondensed-Bold;writing-mode:lr-tb;fill:#000000;fill-opacity:1;fill-rule:nonzero;stroke:none" transform="matrix(1,0,0,-1,438.5,472.8)"><tspan id="tspan442" y="0" x="0">-</tspan></text>
</g>
    </g>
    <g id="g444">
      <g clip-path="url(#clipPath448)" id="g446"><text id="text452" style="font-variant:normal;font-weight:bold;font-size:18.76799965px;font-family:'Roboto Condensed';-inkscape-font-specification:RobotoCondensed-Bold;writing-mode:lr-tb;fill:#000000;fill-opacity:1;fill-rule:nonzero;stroke:none" transform="matrix(1,0,0,-1,445.25,472.8)"><tspan id="tspan454" y="0" x="0 8.7646561 17.26656 21.996096 30.516768 35.208767 39.262657 49.847809 59.400719 70.774132 80.327042 89.879951">axis; C1Q23A</tspan></text>
</g>
    </g>
    <g id="g456">
      <g clip-path="url(#clipPath460)" id="g458"><text id="text464" style="font-variant:normal;font-weight:bold;font-size:18.76799965px;font-family:'Roboto Condensed';-inkscape-font-specification:RobotoCondensed-Bold;writing-mode:lr-tb;fill:#000000;fill-opacity:1;fill-rule:nonzero;stroke:none" transform="matrix(1,0,0,-1,546.58,472.8)"><tspan id="tspan466" y="0" x="0">-</tspan></text>
</g>
    </g>
    <g id="g468">
      <g clip-path="url(#clipPath472)" id="g470"><text id="text476" style="font-variant:normal;font-weight:bold;font-size:18.76799965px;font-family:'Roboto Condensed';-inkscape-font-specification:RobotoCondensed-Bold;writing-mode:lr-tb;fill:#000000;fill-opacity:1;fill-rule:nonzero;stroke:none" transform="matrix(1,0,0,-1,553.32,472.8)"><tspan id="tspan478" y="0" x="0 10.60392 20.156832 31.567776 41.120689 50.504688 59.719776 65.781837">C4Q27E) </tspan></text>
</g>
    </g>
    <path id="path480" style="fill:#005aa4;fill-opacity:1;fill-rule:evenodd;stroke:none" d="m 225.74,128.82 32.623,0 0,8.2577 -32.623,0 0,-8.2577 z"/>
    <g id="g482">
      <g clip-path="url(#clipPath486)" id="g484"><text id="text490" style="font-variant:normal;font-weight:normal;font-size:15.31200027px;font-family:'Roboto Condensed';-inkscape-font-specification:RobotoCondensed-Regular;writing-mode:lr-tb;fill:#000000;fill-opacity:1;fill-rule:nonzero;stroke:none" transform="matrix(1,0,0,-1,261.84,128.33)"><tspan id="tspan492" y="0" x="0 8.5747204 12.01992 20.334335 23.840784 35.401344 44.221058 47.666256 56.271599 64.203217 67.633102 76.207825 83.940384 87.400894 94.750656 106.35715">V &amp; MA US Volume</tspan></text>
</g>
    </g>
    <path id="path494" style="fill:none;stroke:#d0b86a;stroke-width:3.82299995;stroke-linecap:round;stroke-linejoin:round;stroke-miterlimit:10;stroke-dasharray:none;stroke-opacity:1" d="m 402.02,132.94 32.63,0"/>
    <g id="g496">
      <g clip-path="url(#clipPath500)" id="g498"><text id="text504" style="font-variant:normal;font-weight:normal;font-size:15.31200027px;font-family:'Roboto Condensed';-inkscape-font-specification:RobotoCondensed-Regular;writing-mode:lr-tb;fill:#000000;fill-opacity:1;fill-rule:nonzero;stroke:none" transform="matrix(1,0,0,-1,438.14,128.33)"><tspan id="tspan506" y="0" x="0 8.5747204 12.081168 20.395584 23.902033 35.523842 44.343552 47.788754 56.394096 64.325714 67.832161 76.406883 84.093506 87.599953 91.1064 100.26298 104.74939 112.48195 122.48069 126.99773">V &amp; MA US Vol Growth</tspan></text>
</g>
    </g>
  </g>
</svg>
