<?xml version="1.0" encoding="UTF-8" standalone="no"?>
<svg xmlns:dc="http://purl.org/dc/elements/1.1/" xmlns:cc="http://creativecommons.org/ns#" xmlns:rdf="http://www.w3.org/1999/02/22-rdf-syntax-ns#" xmlns:svg="http://www.w3.org/2000/svg" xmlns="http://www.w3.org/2000/svg" viewBox="63 337.2 639 315.45" height="315.45" width="639" xml:space="preserve" version="1.1" id="svg2">
  <metadata id="metadata8">
    <rdf:RDF>
      <cc:Work rdf:about="">
        <dc:format>image/svg+xml</dc:format>
        <dc:type rdf:resource="http://purl.org/dc/dcmitype/StillImage"/>
      </cc:Work>
    </rdf:RDF>
  </metadata>
  <defs id="defs6">
    <clipPath id="clipPath16" clipPathUnits="userSpaceOnUse">
      <path style="clip-rule:evenodd" id="path18" d="m 50.4,269.88 511.2,0 0,252.36 -511.2,0 0,-252.36 z"/>
    </clipPath>
    <clipPath id="clipPath26" clipPathUnits="userSpaceOnUse">
      <path style="clip-rule:evenodd" id="path28" d="m 50.4,269.88 511.2,0 0,252.36 -511.2,0 0,-252.36 z"/>
    </clipPath>
    <clipPath id="clipPath48" clipPathUnits="userSpaceOnUse">
      <path style="clip-rule:evenodd" id="path50" d="m 50.52,269.88 511.08,0 0,252.24 -511.08,0 0,-252.24 z"/>
    </clipPath>
    <clipPath id="clipPath60" clipPathUnits="userSpaceOnUse">
      <path style="clip-rule:evenodd" id="path62" d="m 50.52,269.88 511.08,0 0,252.24 -511.08,0 0,-252.24 z"/>
    </clipPath>
    <clipPath id="clipPath72" clipPathUnits="userSpaceOnUse">
      <path style="clip-rule:evenodd" id="path74" d="m 50.52,269.88 511.08,0 0,252.24 -511.08,0 0,-252.24 z"/>
    </clipPath>
    <clipPath id="clipPath84" clipPathUnits="userSpaceOnUse">
      <path style="clip-rule:evenodd" id="path86" d="m 50.52,269.88 511.08,0 0,252.24 -511.08,0 0,-252.24 z"/>
    </clipPath>
    <clipPath id="clipPath96" clipPathUnits="userSpaceOnUse">
      <path style="clip-rule:evenodd" id="path98" d="m 50.52,269.88 511.08,0 0,252.24 -511.08,0 0,-252.24 z"/>
    </clipPath>
    <clipPath id="clipPath108" clipPathUnits="userSpaceOnUse">
      <path style="clip-rule:evenodd" id="path110" d="m 50.52,269.88 511.08,0 0,252.24 -511.08,0 0,-252.24 z"/>
    </clipPath>
    <clipPath id="clipPath120" clipPathUnits="userSpaceOnUse">
      <path style="clip-rule:evenodd" id="path122" d="m 50.52,269.88 511.08,0 0,252.24 -511.08,0 0,-252.24 z"/>
    </clipPath>
    <clipPath id="clipPath132" clipPathUnits="userSpaceOnUse">
      <path style="clip-rule:evenodd" id="path134" d="m 50.52,269.88 511.08,0 0,252.24 -511.08,0 0,-252.24 z"/>
    </clipPath>
    <clipPath id="clipPath144" clipPathUnits="userSpaceOnUse">
      <path style="clip-rule:evenodd" id="path146" d="m 50.52,269.88 511.08,0 0,252.24 -511.08,0 0,-252.24 z"/>
    </clipPath>
    <clipPath id="clipPath156" clipPathUnits="userSpaceOnUse">
      <path style="clip-rule:evenodd" id="path158" d="m 50.52,269.88 511.08,0 0,252.24 -511.08,0 0,-252.24 z"/>
    </clipPath>
    <clipPath id="clipPath168" clipPathUnits="userSpaceOnUse">
      <path style="clip-rule:evenodd" id="path170" d="m 50.52,269.88 511.08,0 0,252.24 -511.08,0 0,-252.24 z"/>
    </clipPath>
    <clipPath id="clipPath180" clipPathUnits="userSpaceOnUse">
      <path style="clip-rule:evenodd" id="path182" d="m 50.52,269.88 511.08,0 0,252.24 -511.08,0 0,-252.24 z"/>
    </clipPath>
    <clipPath id="clipPath192" clipPathUnits="userSpaceOnUse">
      <path style="clip-rule:evenodd" id="path194" d="m 50.52,269.88 511.08,0 0,252.24 -511.08,0 0,-252.24 z"/>
    </clipPath>
    <clipPath id="clipPath204" clipPathUnits="userSpaceOnUse">
      <path style="clip-rule:evenodd" id="path206" d="m 50.52,269.88 511.08,0 0,252.24 -511.08,0 0,-252.24 z"/>
    </clipPath>
    <clipPath id="clipPath216" clipPathUnits="userSpaceOnUse">
      <path style="clip-rule:evenodd" id="path218" d="m 50.52,269.88 511.08,0 0,252.24 -511.08,0 0,-252.24 z"/>
    </clipPath>
    <clipPath id="clipPath228" clipPathUnits="userSpaceOnUse">
      <path style="clip-rule:evenodd" id="path230" d="m 50.52,269.88 511.08,0 0,252.24 -511.08,0 0,-252.24 z"/>
    </clipPath>
    <clipPath id="clipPath240" clipPathUnits="userSpaceOnUse">
      <path style="clip-rule:evenodd" id="path242" d="m 50.52,269.88 511.08,0 0,252.24 -511.08,0 0,-252.24 z"/>
    </clipPath>
    <clipPath id="clipPath252" clipPathUnits="userSpaceOnUse">
      <path style="clip-rule:evenodd" id="path254" d="m 50.52,269.88 511.08,0 0,252.24 -511.08,0 0,-252.24 z"/>
    </clipPath>
    <clipPath id="clipPath264" clipPathUnits="userSpaceOnUse">
      <path style="clip-rule:evenodd" id="path266" d="m 50.52,269.88 511.08,0 0,252.24 -511.08,0 0,-252.24 z"/>
    </clipPath>
    <clipPath id="clipPath276" clipPathUnits="userSpaceOnUse">
      <path style="clip-rule:evenodd" id="path278" d="m 50.52,269.88 511.08,0 0,252.24 -511.08,0 0,-252.24 z"/>
    </clipPath>
    <clipPath id="clipPath288" clipPathUnits="userSpaceOnUse">
      <path style="clip-rule:evenodd" id="path290" d="m 50.52,269.88 511.08,0 0,252.24 -511.08,0 0,-252.24 z"/>
    </clipPath>
    <clipPath id="clipPath300" clipPathUnits="userSpaceOnUse">
      <path style="clip-rule:evenodd" id="path302" d="m 50.52,269.88 511.08,0 0,252.24 -511.08,0 0,-252.24 z"/>
    </clipPath>
    <clipPath id="clipPath312" clipPathUnits="userSpaceOnUse">
      <path style="clip-rule:evenodd" id="path314" d="m 50.52,269.88 511.08,0 0,252.24 -511.08,0 0,-252.24 z"/>
    </clipPath>
    <clipPath id="clipPath324" clipPathUnits="userSpaceOnUse">
      <path style="clip-rule:evenodd" id="path326" d="m 50.52,269.88 511.08,0 0,252.24 -511.08,0 0,-252.24 z"/>
    </clipPath>
    <clipPath id="clipPath336" clipPathUnits="userSpaceOnUse">
      <path style="clip-rule:evenodd" id="path338" d="m 50.52,269.88 511.08,0 0,252.24 -511.08,0 0,-252.24 z"/>
    </clipPath>
    <clipPath id="clipPath348" clipPathUnits="userSpaceOnUse">
      <path style="clip-rule:evenodd" id="path350" d="m 50.52,269.88 511.08,0 0,252.24 -511.08,0 0,-252.24 z"/>
    </clipPath>
    <clipPath id="clipPath364" clipPathUnits="userSpaceOnUse">
      <path style="clip-rule:evenodd" id="path366" d="m 50.52,269.88 511.08,0 0,252.24 -511.08,0 0,-252.24 z"/>
    </clipPath>
    <clipPath id="clipPath378" clipPathUnits="userSpaceOnUse">
      <path style="clip-rule:evenodd" id="path380" d="m 50.52,269.88 511.08,0 0,252.24 -511.08,0 0,-252.24 z"/>
    </clipPath>
    <clipPath id="clipPath392" clipPathUnits="userSpaceOnUse">
      <path style="clip-rule:evenodd" id="path394" d="m 50.52,269.88 511.08,0 0,252.24 -511.08,0 0,-252.24 z"/>
    </clipPath>
    <clipPath id="clipPath406" clipPathUnits="userSpaceOnUse">
      <path style="clip-rule:evenodd" id="path408" d="m 50.52,269.88 511.08,0 0,252.24 -511.08,0 0,-252.24 z"/>
    </clipPath>
  </defs>
  <g transform="matrix(1.25,0,0,-1.25,0,990)" id="g10">
    <g id="g12">
      <g clip-path="url(#clipPath16)" id="g14">
        <path id="path20" style="fill:none;stroke:#000000;stroke-width:0.14;stroke-linecap:butt;stroke-linejoin:miter;stroke-miterlimit:10;stroke-dasharray:none;stroke-opacity:0" d="m 50.422,269.88 511.2,0 0,252.34 -511.2,0 0,-252.34 z"/>
      </g>
    </g>
    <g id="g22">
      <g clip-path="url(#clipPath26)" id="g24">
        <path id="path30" style="fill:#ffffff;fill-opacity:1;fill-rule:evenodd;stroke:none" d="m 50.422,269.88 511.2,0 0,252.34 -511.2,0 0,-252.34 z"/>
      </g>
    </g>
    <path id="path32" style="fill:none;stroke:#c0c0c0;stroke-width:0.40595001;stroke-linecap:round;stroke-linejoin:round;stroke-miterlimit:10;stroke-dasharray:none;stroke-opacity:1" d="m 90.47,290.69 448.46,0 m -448.46,17.38 448.46,0 m -448.46,17.44 448.46,0 m -448.46,34.78 448.46,0 m -448.46,17.34 448.46,0 m -448.46,17.44 448.46,0 m -448.46,17.35 448.46,0 m -448.46,17.44 448.46,0 m -448.46,17.34 448.46,0 m -448.46,17.34 448.46,0 m -448.46,17.44 448.46,0"/>
    <path id="path34" style="fill:#f6f1e1;fill-opacity:1;fill-rule:nonzero;stroke:none" d="m 95.141,394.29 6.329,0 0,-51.44 -6.329,0 0,51.44 z m 34.489,-31.66 6.33,0 0,-19.78 -6.33,0 0,19.78 z m 34.59,-21.04 6.23,0 0,1.26 -6.23,0 0,-1.26 z m 34.49,17.83 6.23,0 0,-16.57 -6.23,0 0,16.57 z m 34.48,17.24 6.24,0 0,-33.81 -6.24,0 0,33.81 z m 34.49,-44.62 6.24,0 0,10.81 -6.24,0 0,-10.81 z m 34.49,61.09 6.24,0 0,-50.28 -6.24,0 0,50.28 z m 34.49,-22.02 6.24,0 0,-28.26 -6.24,0 0,28.26 z m 34.49,18.51 6.24,0 0,-46.77 -6.24,0 0,46.77 z m 34.49,-80.57 6.24,0 0,33.8 -6.24,0 0,-33.8 z m 34.49,75.99 6.33,0 0,-42.19 -6.33,0 0,42.19 z m 34.49,-0.39 6.33,0 0,-41.8 -6.33,0 0,41.8 z m 34.49,-10.82 6.33,0 0,-30.98 -6.33,0 0,30.98 z"/>
    <path id="path36" style="fill:#005aa4;fill-opacity:1;fill-rule:nonzero;stroke:none" d="m 101.47,464.73 6.24,0 0,-121.88 -6.24,0 0,121.88 z m 34.49,-116.42 6.24,0 0,-5.46 -6.24,0 0,5.46 z m 34.49,17.15 6.24,0 0,-22.61 -6.24,0 0,22.61 z m 34.49,-12.09 6.24,0 0,-10.52 -6.24,0 0,10.52 z m 34.49,70.54 6.24,0 0,-81.06 -6.24,0 0,81.06 z m 34.49,-38.19 6.23,0 0,-42.87 -6.23,0 0,42.87 z m 34.49,58.46 6.33,0 0,-101.33 -6.33,0 0,101.33 z m 34.49,-67.33 6.33,0 0,-34 -6.33,0 0,34 z m 34.49,-32.83 6.33,0 0,-1.17 -6.33,0 0,1.17 z m 34.49,-6.72 6.33,0 0,5.55 -6.33,0 0,-5.55 z m 34.58,44.91 6.24,0 0,-39.36 -6.24,0 0,39.36 z m 34.49,3.8 6.24,0 0,-43.16 -6.24,0 0,43.16 z m 34.49,-26.79 6.24,0 0,-16.37 -6.24,0 0,16.37 z"/>
    <path id="path38" style="fill:#00a1e2;fill-opacity:1;fill-rule:nonzero;stroke:none" d="m 107.71,424.4 6.23,0 0,-81.55 -6.23,0 0,81.55 z m 34.49,-50.66 6.33,0 0,-30.89 -6.33,0 0,30.89 z m 34.49,0.97 6.33,0 0,-31.86 -6.33,0 0,31.86 z m 34.49,-30.79 6.33,0 0,-1.07 -6.33,0 0,1.07 z m 34.49,79.21 6.33,0 0,-80.28 -6.33,0 0,80.28 z m 34.48,-52.9 6.34,0 0,-27.38 -6.34,0 0,27.38 z m 34.59,46.38 6.24,0 0,-73.76 -6.24,0 0,73.76 z m 34.49,-45.21 6.24,0 0,-28.55 -6.24,0 0,28.55 z m 34.49,-30.11 6.24,0 0,1.56 -6.24,0 0,-1.56 z m 34.49,-5.65 6.23,0 0,7.21 -6.23,0 0,-7.21 z m 34.49,51.25 6.23,0 0,-44.04 -6.23,0 0,44.04 z m 34.49,-5.65 6.23,0 0,-38.39 -6.23,0 0,38.39 z m 34.49,-17.05 6.23,0 0,-21.34 -6.23,0 0,21.34 z"/>
    <path id="path40" style="fill:#226b5a;fill-opacity:1;fill-rule:nonzero;stroke:none" d="m 113.94,401.11 6.34,0 0,-58.26 -6.34,0 0,58.26 z m 34.59,-41.01 6.24,0 0,-17.25 -6.24,0 0,17.25 z m 34.49,-18.22 6.24,0 0,0.97 -6.24,0 0,-0.97 z m 34.49,39.85 6.23,0 0,-38.88 -6.23,0 0,38.88 z m 34.49,-8.19 6.23,0 0,-30.69 -6.23,0 0,30.69 z m 34.49,-62.74 6.23,0 0,32.05 -6.23,0 0,-32.05 z m 34.49,92.56 6.23,0 0,-60.51 -6.23,0 0,60.51 z m 34.49,-89.25 6.23,0 0,28.74 -6.23,0 0,-28.74 z m 34.49,86.32 6.23,0 0,-57.58 -6.23,0 0,57.58 z m 34.48,-93.43 6.34,0 0,35.85 -6.34,0 0,-35.85 z m 34.49,47.35 6.34,0 0,-11.5 -6.34,0 0,11.5 z m 34.49,43.06 6.34,0 0,-54.56 -6.34,0 0,54.56 z m 34.49,-3.02 6.33,0 0,-51.54 -6.33,0 0,51.54 z"/>
    <path id="path42" style="fill:none;stroke:#808080;stroke-width:1.01489997;stroke-linecap:round;stroke-linejoin:round;stroke-miterlimit:10;stroke-dasharray:none;stroke-opacity:1" d="m 90.47,342.86 448.46,0"/>
    <g id="g44">
      <g clip-path="url(#clipPath48)" id="g46"><text id="text52" style="font-variant:normal;font-weight:normal;font-size:7.32000017px;font-family:'Roboto Condensed';-inkscape-font-specification:RobotoCondensed-Regular;writing-mode:lr-tb;fill:#000000;fill-opacity:1;fill-rule:nonzero;stroke:none" transform="matrix(1,0,0,-1,61.8,288.46)"><tspan id="tspan54" y="0" x="0 2.3204401 5.9365201 9.5233202 11.36796 14.98404 19.639561">(30.0%)</tspan></text>
</g>
    </g>
    <g id="g56">
      <g clip-path="url(#clipPath60)" id="g58"><text id="text64" style="font-variant:normal;font-weight:normal;font-size:7.296px;font-family:'Roboto Condensed';-inkscape-font-specification:RobotoCondensed-Regular;writing-mode:lr-tb;fill:#000000;fill-opacity:1;fill-rule:nonzero;stroke:none" transform="matrix(1,0,0,-1,61.8,305.83)"><tspan id="tspan66" y="0" x="0 2.320128 5.9243522 9.5285759 11.367168 14.971392 19.640833">(20.0%)</tspan></text>
</g>
    </g>
    <g id="g68">
      <g clip-path="url(#clipPath72)" id="g70"><text id="text76" style="font-variant:normal;font-weight:normal;font-size:7.296px;font-family:'Roboto Condensed';-inkscape-font-specification:RobotoCondensed-Regular;writing-mode:lr-tb;fill:#000000;fill-opacity:1;fill-rule:nonzero;stroke:none" transform="matrix(1,0,0,-1,61.8,323.23)"><tspan id="tspan78" y="0" x="0 2.320128 5.9243522 9.5285759 11.367168 14.971392 19.640833">(10.0%)</tspan></text>
</g>
    </g>
    <g id="g80">
      <g clip-path="url(#clipPath84)" id="g82"><text id="text88" style="font-variant:normal;font-weight:normal;font-size:7.32000017px;font-family:'Roboto Condensed';-inkscape-font-specification:RobotoCondensed-Regular;writing-mode:lr-tb;fill:#000000;fill-opacity:1;fill-rule:nonzero;stroke:none" transform="matrix(1,0,0,-1,68.352,340.63)"><tspan id="tspan90" y="0" x="0 3.61608 5.5412402 9.15732">0.0%</tspan></text>
</g>
    </g>
    <g id="g92">
      <g clip-path="url(#clipPath96)" id="g94"><text id="text100" style="font-variant:normal;font-weight:normal;font-size:7.296px;font-family:'Roboto Condensed';-inkscape-font-specification:RobotoCondensed-Regular;writing-mode:lr-tb;fill:#000000;fill-opacity:1;fill-rule:nonzero;stroke:none" transform="matrix(1,0,0,-1,64.752,358.01)"><tspan id="tspan102" y="0" x="0 3.604224 7.2084479 9.1272964 12.73152">10.0%</tspan></text>
</g>
    </g>
    <g id="g104">
      <g clip-path="url(#clipPath108)" id="g106"><text id="text112" style="font-variant:normal;font-weight:normal;font-size:7.296px;font-family:'Roboto Condensed';-inkscape-font-specification:RobotoCondensed-Regular;writing-mode:lr-tb;fill:#000000;fill-opacity:1;fill-rule:nonzero;stroke:none" transform="matrix(1,0,0,-1,64.752,375.41)"><tspan id="tspan114" y="0" x="0 3.604224 7.2084479 9.1272964 12.73152">20.0%</tspan></text>
</g>
    </g>
    <g id="g116">
      <g clip-path="url(#clipPath120)" id="g118"><text id="text124" style="font-variant:normal;font-weight:normal;font-size:7.32000017px;font-family:'Roboto Condensed';-inkscape-font-specification:RobotoCondensed-Regular;writing-mode:lr-tb;fill:#000000;fill-opacity:1;fill-rule:nonzero;stroke:none" transform="matrix(1,0,0,-1,64.752,392.81)"><tspan id="tspan126" y="0" x="0 3.61608 7.2028799 9.1280403 12.74412">30.0%</tspan></text>
</g>
    </g>
    <g id="g128">
      <g clip-path="url(#clipPath132)" id="g130"><text id="text136" style="font-variant:normal;font-weight:normal;font-size:7.296px;font-family:'Roboto Condensed';-inkscape-font-specification:RobotoCondensed-Regular;writing-mode:lr-tb;fill:#000000;fill-opacity:1;fill-rule:nonzero;stroke:none" transform="matrix(1,0,0,-1,64.752,410.18)"><tspan id="tspan138" y="0" x="0 3.604224 7.2084479 9.1272964 12.73152">40.0%</tspan></text>
</g>
    </g>
    <g id="g140">
      <g clip-path="url(#clipPath144)" id="g142"><text id="text148" style="font-variant:normal;font-weight:normal;font-size:7.296px;font-family:'Roboto Condensed';-inkscape-font-specification:RobotoCondensed-Regular;writing-mode:lr-tb;fill:#000000;fill-opacity:1;fill-rule:nonzero;stroke:none" transform="matrix(1,0,0,-1,64.752,427.58)"><tspan id="tspan150" y="0" x="0 3.604224 7.2084479 9.1272964 12.73152">50.0%</tspan></text>
</g>
    </g>
    <g id="g152">
      <g clip-path="url(#clipPath156)" id="g154"><text id="text160" style="font-variant:normal;font-weight:normal;font-size:7.32000017px;font-family:'Roboto Condensed';-inkscape-font-specification:RobotoCondensed-Regular;writing-mode:lr-tb;fill:#000000;fill-opacity:1;fill-rule:nonzero;stroke:none" transform="matrix(1,0,0,-1,64.752,444.98)"><tspan id="tspan162" y="0" x="0 3.61608 7.2028799 9.1280403 12.74412">60.0%</tspan></text>
</g>
    </g>
    <g id="g164">
      <g clip-path="url(#clipPath168)" id="g166"><text id="text172" style="font-variant:normal;font-weight:normal;font-size:7.296px;font-family:'Roboto Condensed';-inkscape-font-specification:RobotoCondensed-Regular;writing-mode:lr-tb;fill:#000000;fill-opacity:1;fill-rule:nonzero;stroke:none" transform="matrix(1,0,0,-1,64.752,462.36)"><tspan id="tspan174" y="0" x="0 3.604224 7.2084479 9.1272964 12.73152">70.0%</tspan></text>
</g>
    </g>
    <g id="g176">
      <g clip-path="url(#clipPath180)" id="g178"><text id="text184" style="font-variant:normal;font-weight:normal;font-size:7.296px;font-family:'Roboto Condensed';-inkscape-font-specification:RobotoCondensed-Regular;writing-mode:lr-tb;fill:#000000;fill-opacity:1;fill-rule:nonzero;stroke:none" transform="matrix(1,0,0,-1,64.752,479.76)"><tspan id="tspan186" y="0" x="0 3.604224 7.2084479 9.1272964 12.73152">80.0%</tspan></text>
</g>
    </g>
    <g id="g188">
      <g clip-path="url(#clipPath192)" id="g190"><text id="text196" style="font-variant:normal;font-weight:normal;font-size:7.296px;font-family:'Roboto Condensed';-inkscape-font-specification:RobotoCondensed-Regular;writing-mode:lr-tb;fill:#000000;fill-opacity:1;fill-rule:nonzero;stroke:none" transform="matrix(1,0,0,-1,100.51,279.07)"><tspan id="tspan198" y="0" x="0 3.6240239 7.2480478 10.872072">2013</tspan></text>
</g>
    </g>
    <g id="g200">
      <g clip-path="url(#clipPath204)" id="g202"><text id="text208" style="font-variant:normal;font-weight:normal;font-size:7.296px;font-family:'Roboto Condensed';-inkscape-font-specification:RobotoCondensed-Regular;writing-mode:lr-tb;fill:#000000;fill-opacity:1;fill-rule:nonzero;stroke:none" transform="matrix(1,0,0,-1,135.02,279.07)"><tspan id="tspan210" y="0" x="0 3.600004 7.2000079 10.800012">2014</tspan></text>
</g>
    </g>
    <g id="g212">
      <g clip-path="url(#clipPath216)" id="g214"><text id="text220" style="font-variant:normal;font-weight:normal;font-size:7.296px;font-family:'Roboto Condensed';-inkscape-font-specification:RobotoCondensed-Regular;writing-mode:lr-tb;fill:#000000;fill-opacity:1;fill-rule:nonzero;stroke:none" transform="matrix(1,0,0,-1,169.54,279.07)"><tspan id="tspan222" y="0" x="0 3.600004 7.2000079 10.800012">2015</tspan></text>
</g>
    </g>
    <g id="g224">
      <g clip-path="url(#clipPath228)" id="g226"><text id="text232" style="font-variant:normal;font-weight:normal;font-size:7.296px;font-family:'Roboto Condensed';-inkscape-font-specification:RobotoCondensed-Regular;writing-mode:lr-tb;fill:#000000;fill-opacity:1;fill-rule:nonzero;stroke:none" transform="matrix(1,0,0,-1,204.02,279.07)"><tspan id="tspan234" y="0" x="0 3.6240239 7.2480478 10.872072">2016</tspan></text>
</g>
    </g>
    <g id="g236">
      <g clip-path="url(#clipPath240)" id="g238"><text id="text244" style="font-variant:normal;font-weight:normal;font-size:7.296px;font-family:'Roboto Condensed';-inkscape-font-specification:RobotoCondensed-Regular;writing-mode:lr-tb;fill:#000000;fill-opacity:1;fill-rule:nonzero;stroke:none" transform="matrix(1,0,0,-1,238.54,279.07)"><tspan id="tspan246" y="0" x="0 3.600004 7.2000079 10.800012">2017</tspan></text>
</g>
    </g>
    <g id="g248">
      <g clip-path="url(#clipPath252)" id="g250"><text id="text256" style="font-variant:normal;font-weight:normal;font-size:7.296px;font-family:'Roboto Condensed';-inkscape-font-specification:RobotoCondensed-Regular;writing-mode:lr-tb;fill:#000000;fill-opacity:1;fill-rule:nonzero;stroke:none" transform="matrix(1,0,0,-1,273.05,279.07)"><tspan id="tspan258" y="0" x="0 3.600004 7.2000079 10.800012">2018</tspan></text>
</g>
    </g>
    <g id="g260">
      <g clip-path="url(#clipPath264)" id="g262"><text id="text268" style="font-variant:normal;font-weight:normal;font-size:7.296px;font-family:'Roboto Condensed';-inkscape-font-specification:RobotoCondensed-Regular;writing-mode:lr-tb;fill:#000000;fill-opacity:1;fill-rule:nonzero;stroke:none" transform="matrix(1,0,0,-1,307.54,279.07)"><tspan id="tspan270" y="0" x="0 3.600004 7.2000079 10.800012">2019</tspan></text>
</g>
    </g>
    <g id="g272">
      <g clip-path="url(#clipPath276)" id="g274"><text id="text280" style="font-variant:normal;font-weight:normal;font-size:7.296px;font-family:'Roboto Condensed';-inkscape-font-specification:RobotoCondensed-Regular;writing-mode:lr-tb;fill:#000000;fill-opacity:1;fill-rule:nonzero;stroke:none" transform="matrix(1,0,0,-1,342.05,279.07)"><tspan id="tspan282" y="0" x="0 3.600004 7.2000079 10.800012">2020</tspan></text>
</g>
    </g>
    <g id="g284">
      <g clip-path="url(#clipPath288)" id="g286"><text id="text292" style="font-variant:normal;font-weight:normal;font-size:7.296px;font-family:'Roboto Condensed';-inkscape-font-specification:RobotoCondensed-Regular;writing-mode:lr-tb;fill:#000000;fill-opacity:1;fill-rule:nonzero;stroke:none" transform="matrix(1,0,0,-1,376.54,279.07)"><tspan id="tspan294" y="0" x="0 3.6240239 7.2480478 10.872072">2021</tspan></text>
</g>
    </g>
    <g id="g296">
      <g clip-path="url(#clipPath300)" id="g298"><text id="text304" style="font-variant:normal;font-weight:normal;font-size:7.296px;font-family:'Roboto Condensed';-inkscape-font-specification:RobotoCondensed-Regular;writing-mode:lr-tb;fill:#000000;fill-opacity:1;fill-rule:nonzero;stroke:none" transform="matrix(1,0,0,-1,411.05,279.07)"><tspan id="tspan306" y="0" x="0 3.600004 7.2000079 10.800012">2022</tspan></text>
</g>
    </g>
    <g id="g308">
      <g clip-path="url(#clipPath312)" id="g310"><text id="text316" style="font-variant:normal;font-weight:normal;font-size:7.296px;font-family:'Roboto Condensed';-inkscape-font-specification:RobotoCondensed-Regular;writing-mode:lr-tb;fill:#000000;fill-opacity:1;fill-rule:nonzero;stroke:none" transform="matrix(1,0,0,-1,445.56,279.07)"><tspan id="tspan318" y="0" x="0 3.600004 7.2000079 10.800012">2023</tspan></text>
</g>
    </g>
    <g id="g320">
      <g clip-path="url(#clipPath324)" id="g322"><text id="text328" style="font-variant:normal;font-weight:normal;font-size:7.296px;font-family:'Roboto Condensed';-inkscape-font-specification:RobotoCondensed-Regular;writing-mode:lr-tb;fill:#000000;fill-opacity:1;fill-rule:nonzero;stroke:none" transform="matrix(1,0,0,-1,480.05,279.07)"><tspan id="tspan330" y="0" x="0 3.6240239 7.2480478 10.872072">2024</tspan></text>
</g>
    </g>
    <g id="g332">
      <g clip-path="url(#clipPath336)" id="g334"><text id="text340" style="font-variant:normal;font-weight:normal;font-size:7.296px;font-family:'Roboto Condensed';-inkscape-font-specification:RobotoCondensed-Regular;writing-mode:lr-tb;fill:#000000;fill-opacity:1;fill-rule:nonzero;stroke:none" transform="matrix(1,0,0,-1,514.56,279.07)"><tspan id="tspan342" y="0" x="0 3.600004 7.2000079 10.800012">2025</tspan></text>
</g>
    </g>
    <g id="g344">
      <g clip-path="url(#clipPath348)" id="g346"><text id="text352" style="font-variant:normal;font-weight:bold;font-size:8.95199966px;font-family:'Roboto Condensed';-inkscape-font-specification:RobotoCondensed-Bold;writing-mode:lr-tb;fill:#000000;fill-opacity:1;fill-rule:nonzero;stroke:none" transform="matrix(1,0,0,-1,205.34,507.6)"><tspan id="tspan354" y="0" x="0 5.3443441 9.7487278 14.153112 18.53064 22.702272 24.958176 26.972376 32.039207 35.05603 37.311935 41.367191 45.655201 47.714161 52.763088 57.051098 60.076874 63.013126 67.471222 70.505951 77.148338 81.302063 85.706451 89.770653 94.058662 96.010201 100.4862 103.42245 105.45456 110.62881 113.53822 120.34174 125.68608 128.62233 133.48328 138.66647 143.70645 145.76541 150.32199 154.89645 159.47093 162.39824 167.54564 170.17752 175.03845 177.56293 179.3175 184.3754 188.54703 192.9514 197.23941">Annual Price Performance of V/MA/S&amp;P 500/U.S. Banks</tspan></text>
</g>
    </g>
    <path id="path356" style="fill:#ffffff;fill-opacity:1;fill-rule:evenodd;stroke:none" d="m 214.14,485.77 183.76,0 0,13.552 -183.76,0 0,-13.552 z"/>
    <path id="path358" style="fill:#f6f1e1;fill-opacity:1;fill-rule:evenodd;stroke:none" d="m 222.85,490.57 3.9458,0 0,3.9458 -3.9458,0 0,-3.9458 z"/>
    <g id="g360">
      <g clip-path="url(#clipPath364)" id="g362"><text id="text368" style="font-variant:normal;font-weight:normal;font-size:7.32000017px;font-family:'Roboto Condensed';-inkscape-font-specification:RobotoCondensed-Regular;writing-mode:lr-tb;fill:#000000;fill-opacity:1;fill-rule:nonzero;stroke:none" transform="matrix(1,0,0,-1,228.5,490.34)"><tspan id="tspan370" y="0" x="0 3.79176 7.7958002 11.80716 13.48344 17.06292 20.679001">S&amp;P 500</tspan></text>
</g>
    </g>
    <path id="path372" style="fill:#005aa4;fill-opacity:1;fill-rule:evenodd;stroke:none" d="m 261.17,490.57 3.9458,0 0,3.9458 -3.9458,0 0,-3.9458 z"/>
    <g id="g374">
      <g clip-path="url(#clipPath378)" id="g376"><text id="text382" style="font-variant:normal;font-weight:normal;font-size:7.32000017px;font-family:'Roboto Condensed';-inkscape-font-specification:RobotoCondensed-Regular;writing-mode:lr-tb;fill:#000000;fill-opacity:1;fill-rule:nonzero;stroke:none" transform="matrix(1,0,0,-1,266.83,490.34)"><tspan id="tspan384" y="0" x="0 5.5679998">MA</tspan></text>
</g>
    </g>
    <path id="path386" style="fill:#00a1e2;fill-opacity:1;fill-rule:evenodd;stroke:none" d="m 284.92,490.57 3.9458,0 0,3.9458 -3.9458,0 0,-3.9458 z"/>
    <g id="g388">
      <g clip-path="url(#clipPath392)" id="g390"><text id="text396" style="font-variant:normal;font-weight:normal;font-size:7.32000017px;font-family:'Roboto Condensed';-inkscape-font-specification:RobotoCondensed-Regular;writing-mode:lr-tb;fill:#000000;fill-opacity:1;fill-rule:nonzero;stroke:none" transform="matrix(1,0,0,-1,290.59,490.34)"><tspan id="tspan398" y="0" x="0">V</tspan></text>
</g>
    </g>
    <path id="path400" style="fill:#226b5a;fill-opacity:1;fill-rule:evenodd;stroke:none" d="m 303.03,490.57 3.9458,0 0,3.9458 -3.9458,0 0,-3.9458 z"/>
    <g id="g402">
      <g clip-path="url(#clipPath406)" id="g404"><text id="text410" style="font-variant:normal;font-weight:normal;font-size:7.32000017px;font-family:'Roboto Condensed';-inkscape-font-specification:RobotoCondensed-Regular;writing-mode:lr-tb;fill:#000000;fill-opacity:1;fill-rule:nonzero;stroke:none" transform="matrix(1,0,0,-1,308.71,490.34)"><tspan id="tspan412" y="0" x="0 4.1797199 7.77384 12.53184 14.17884 17.772961 21.374399 24.968519 28.394279 31.68828 33.364559 37.427158 39.352322 43.144081 45.098518 46.774799 50.734921 54.241199 57.740162 61.041481 64.379402 66.019081 67.849083 71.39196 74.971443 78.397202">Dow Jones U.S. Banks Index</tspan></text>
</g>
    </g>
    <g id="g414">
      <path id="path416" style="fill:none;stroke:#ff0000;stroke-width:1.01489997;stroke-linecap:butt;stroke-linejoin:miter;stroke-miterlimit:8;stroke-dasharray:4.0595, 3.0446;stroke-dashoffset:0;stroke-opacity:1" d="m 191.79,327.65 37.997,0 0,116.72 -37.997,0 0,-116.72 z"/>
    </g>
    <g id="g418">
      <path id="path420" style="fill:none;stroke:#ff0000;stroke-width:1.01489997;stroke-linecap:butt;stroke-linejoin:miter;stroke-miterlimit:8;stroke-dasharray:4.0595, 3.0446;stroke-dashoffset:0;stroke-opacity:1" d="m 364.62,327.65 37.996,0 0,116.72 -37.996,0 0,-116.72 z"/>
    </g>
    <g id="g422">
      <path id="path424" style="fill:none;stroke:#ff0000;stroke-width:1.01489997;stroke-linecap:butt;stroke-linejoin:miter;stroke-miterlimit:8;stroke-dasharray:4.0595, 3.0446;stroke-dashoffset:0;stroke-opacity:1" d="m 502.78,327.65 37.996,0 0,116.72 -37.996,0 0,-116.72 z"/>
    </g>
  </g>
</svg>
