<?xml version="1.0" encoding="UTF-8" standalone="no"?>
<svg xmlns:dc="http://purl.org/dc/elements/1.1/" xmlns:cc="http://creativecommons.org/ns#" xmlns:rdf="http://www.w3.org/1999/02/22-rdf-syntax-ns#" xmlns:svg="http://www.w3.org/2000/svg" xmlns="http://www.w3.org/2000/svg" viewBox="16.3375 15.75 732.2625 180.625" height="180.625" width="732.2625" xml:space="preserve" version="1.1" id="svg2">
  <metadata id="metadata8">
    <rdf:RDF>
      <cc:Work rdf:about="">
        <dc:format>image/svg+xml</dc:format>
        <dc:type rdf:resource="http://purl.org/dc/dcmitype/StillImage"/>
      </cc:Work>
    </rdf:RDF>
  </metadata>
  <defs id="defs6">
    <clipPath id="clipPath16" clipPathUnits="userSpaceOnUse">
      <path style="clip-rule:evenodd" id="path18" d="m 13.56,454.9 585.67,0 0,144.5 -585.67,0 0,-144.5 z"/>
    </clipPath>
    <clipPath id="clipPath228" clipPathUnits="userSpaceOnUse">
      <path style="clip-rule:evenodd" id="path230" d="m 11.64,452.86 589.63,0 0,148.46 -589.63,0 0,-148.46 z"/>
    </clipPath>
  </defs>
  <g transform="matrix(1.25,0,0,-1.25,0,765)" id="g10">
    <g id="g12">
      <g clip-path="url(#clipPath16)" id="g14"><path id="path20" style="fill:#005aa0;fill-opacity:1;fill-rule:evenodd;stroke:none" d="m 13.08,579.12 585.79,0 0,20.76 -585.79,0 0,-20.76 z"/><path id="path22" style="fill:#ddaab6;fill-opacity:1;fill-rule:evenodd;stroke:none" d="m 44.28,558.48 184.94,0 0,20.76 -184.94,0 0,-20.76 z"/><path id="path24" style="fill:#ddaab6;fill-opacity:1;fill-rule:evenodd;stroke:none" d="m 229.1,537.84 92.52,0 0,20.76 -92.52,0 0,-20.76 z"/><path id="path26" style="fill:#ddaab6;fill-opacity:1;fill-rule:evenodd;stroke:none" d="m 321.5,517.18 92.544,0 0,20.784 -92.544,0 0,-20.784 z"/><path id="path28" style="fill:#ddaab6;fill-opacity:1;fill-rule:evenodd;stroke:none" d="m 506.33,475.9 92.544,0 0,20.76 -92.544,0 0,-20.76 z"/><path id="path30" style="fill:#ddaab6;fill-opacity:1;fill-rule:evenodd;stroke:none" d="m 413.93,455.26 92.52,0 0,20.76 -92.52,0 0,-20.76 z"/><text id="text32" style="font-variant:normal;font-weight:bold;font-size:11.03999996px;font-family:'Roboto Condensed';-inkscape-font-specification:'Roboto Condensed, Bold';writing-mode:lr-tb;fill:#ffffff;fill-opacity:1;fill-rule:nonzero;stroke:none" transform="matrix(1,0,0,-1,79.68,585.72)"><tspan id="tspan34" y="0" x="0 5.6399999 11.28 16.92">2020</tspan></text>
<text id="text36" style="font-variant:normal;font-weight:bold;font-size:11.03999996px;font-family:'Roboto Condensed';-inkscape-font-specification:'Roboto Condensed, Bold';writing-mode:lr-tb;fill:#ffffff;fill-opacity:1;fill-rule:nonzero;stroke:none" transform="matrix(1,0,0,-1,172.1,585.72)"><tspan id="tspan38" y="0" x="0 5.6399999 11.28 16.92">2021</tspan></text>
<text id="text40" style="font-variant:normal;font-weight:bold;font-size:11.03999996px;font-family:'Roboto Condensed';-inkscape-font-specification:'Roboto Condensed, Bold';writing-mode:lr-tb;fill:#ffffff;fill-opacity:1;fill-rule:nonzero;stroke:none" transform="matrix(1,0,0,-1,264.5,585.72)"><tspan id="tspan42" y="0" x="0 5.6399999 11.28 16.92">2022</tspan></text>
<text id="text44" style="font-variant:normal;font-weight:bold;font-size:11.03999996px;font-family:'Roboto Condensed';-inkscape-font-specification:'Roboto Condensed, Bold';writing-mode:lr-tb;fill:#ffffff;fill-opacity:1;fill-rule:nonzero;stroke:none" transform="matrix(1,0,0,-1,356.93,585.72)"><tspan id="tspan46" y="0" x="0 5.6399999 11.28 16.92">2023</tspan></text>
<text id="text48" style="font-variant:normal;font-weight:bold;font-size:11.03999996px;font-family:'Roboto Condensed';-inkscape-font-specification:'Roboto Condensed, Bold';writing-mode:lr-tb;fill:#ffffff;fill-opacity:1;fill-rule:nonzero;stroke:none" transform="matrix(1,0,0,-1,449.33,585.72)"><tspan id="tspan50" y="0" x="0 5.6399999 11.28 16.92">2024</tspan></text>
<text id="text52" style="font-variant:normal;font-weight:bold;font-size:11.03999996px;font-family:'Roboto Condensed';-inkscape-font-specification:'Roboto Condensed, Bold';writing-mode:lr-tb;fill:#ffffff;fill-opacity:1;fill-rule:nonzero;stroke:none" transform="matrix(1,0,0,-1,541.75,585.72)"><tspan id="tspan54" y="0" x="0 5.6399999 11.28 16.92">2025</tspan></text>
<text id="text56" style="font-variant:normal;font-weight:normal;font-size:11.03999996px;font-family:'Roboto Condensed';-inkscape-font-specification:'Roboto Condensed';writing-mode:lr-tb;fill:#000000;fill-opacity:1;fill-rule:nonzero;stroke:none" transform="matrix(1,0,0,-1,26.4,565.08)"><tspan id="tspan58" y="0" x="0">1</tspan></text>
<text id="text60" style="font-variant:normal;font-weight:bold;font-size:11.03999996px;font-family:'Roboto Condensed';-inkscape-font-specification:'Roboto Condensed, Bold';writing-mode:lr-tb;fill:#000000;fill-opacity:1;fill-rule:nonzero;stroke:none" transform="matrix(1,0,0,-1,78.48,565.08)"><tspan id="tspan62" y="0" x="0 6.2375998 11.66928 14.39616 19.827841">China</tspan></text>
<text id="text64" style="font-variant:normal;font-weight:bold;font-size:11.03999996px;font-family:'Roboto Condensed';-inkscape-font-specification:'Roboto Condensed, Bold';writing-mode:lr-tb;fill:#000000;fill-opacity:1;fill-rule:nonzero;stroke:none" transform="matrix(1,0,0,-1,170.9,565.08)"><tspan id="tspan66" y="0" x="0 6.2375998 11.66928 14.39616 19.827841">China</tspan></text>
<text id="text68" style="font-variant:normal;font-weight:normal;font-size:11.03999996px;font-family:'Roboto Condensed';-inkscape-font-specification:'Roboto Condensed';writing-mode:lr-tb;fill:#000000;fill-opacity:1;fill-rule:nonzero;stroke:none" transform="matrix(1,0,0,-1,264.98,565.08)"><tspan id="tspan70" y="0" x="0 2.76 8.1475201 13.65648 16.195681">India</tspan></text>
<text id="text72" style="font-variant:normal;font-weight:normal;font-size:11.03999996px;font-family:'Roboto Condensed';-inkscape-font-specification:'Roboto Condensed';writing-mode:lr-tb;fill:#000000;fill-opacity:1;fill-rule:nonzero;stroke:none" transform="matrix(1,0,0,-1,357.41,565.08)"><tspan id="tspan74" y="0" x="0 2.76 8.1475201 13.65648 16.195681">India</tspan></text>
<text id="text76" style="font-variant:normal;font-weight:normal;font-size:11.03999996px;font-family:'Roboto Condensed';-inkscape-font-specification:'Roboto Condensed';writing-mode:lr-tb;fill:#000000;fill-opacity:1;fill-rule:nonzero;stroke:none" transform="matrix(1,0,0,-1,449.81,565.08)"><tspan id="tspan78" y="0" x="0 2.76 8.1475201 13.65648 16.195681">India</tspan></text>
<text id="text80" style="font-variant:normal;font-weight:normal;font-size:11.03999996px;font-family:'Roboto Condensed';-inkscape-font-specification:'Roboto Condensed';writing-mode:lr-tb;fill:#000000;fill-opacity:1;fill-rule:nonzero;stroke:none" transform="matrix(1,0,0,-1,542.23,565.08)"><tspan id="tspan82" y="0" x="0 2.76 8.1475201 13.65648 16.195681">India</tspan></text>
<text id="text84" style="font-variant:normal;font-weight:normal;font-size:11.03999996px;font-family:'Roboto Condensed';-inkscape-font-specification:'Roboto Condensed';writing-mode:lr-tb;fill:#000000;fill-opacity:1;fill-rule:nonzero;stroke:none" transform="matrix(1,0,0,-1,26.4,544.44)"><tspan id="tspan86" y="0" x="0">2</tspan></text>
<text id="text88" style="font-variant:normal;font-weight:normal;font-size:11.03999996px;font-family:'Roboto Condensed';-inkscape-font-specification:'Roboto Condensed';writing-mode:lr-tb;fill:#000000;fill-opacity:1;fill-rule:nonzero;stroke:none" transform="matrix(1,0,0,-1,80.16,544.44)"><tspan id="tspan90" y="0" x="0 2.76 8.1475201 13.65648 16.195681">India</tspan></text>
<text id="text92" style="font-variant:normal;font-weight:normal;font-size:11.03999996px;font-family:'Roboto Condensed';-inkscape-font-specification:'Roboto Condensed';writing-mode:lr-tb;fill:#000000;fill-opacity:1;fill-rule:nonzero;stroke:none" transform="matrix(1,0,0,-1,172.58,544.44)"><tspan id="tspan94" y="0" x="0 2.76 8.1475201 13.65648 16.195681">India</tspan></text>
<text id="text96" style="font-variant:normal;font-weight:bold;font-size:11.03999996px;font-family:'Roboto Condensed';-inkscape-font-specification:'Roboto Condensed, Bold';writing-mode:lr-tb;fill:#000000;fill-opacity:1;fill-rule:nonzero;stroke:none" transform="matrix(1,0,0,-1,263.3,544.44)"><tspan id="tspan98" y="0" x="0 6.2375998 11.66928 14.39616 19.827841">China</tspan></text>
<text id="text100" style="font-variant:normal;font-weight:normal;font-size:11.03999996px;font-family:'Roboto Condensed';-inkscape-font-specification:'Roboto Condensed';writing-mode:lr-tb;fill:#000000;fill-opacity:1;fill-rule:nonzero;stroke:none" transform="matrix(1,0,0,-1,350.09,544.44)"><tspan id="tspan102" y="0" x="0 6.2265601 8.7657604 13.9104 17.17824 22.521601 27.809759">Vietnam</tspan></text>
<text id="text104" style="font-variant:normal;font-weight:normal;font-size:11.03999996px;font-family:'Roboto Condensed';-inkscape-font-specification:'Roboto Condensed';writing-mode:lr-tb;fill:#000000;fill-opacity:1;fill-rule:nonzero;stroke:none" transform="matrix(1,0,0,-1,442.49,544.44)"><tspan id="tspan106" y="0" x="0 6.2265601 8.7657604 13.9104 17.17824 22.521601 27.809759">Vietnam</tspan></text>
<text id="text108" style="font-variant:normal;font-weight:normal;font-size:11.03999996px;font-family:'Roboto Condensed';-inkscape-font-specification:'Roboto Condensed';writing-mode:lr-tb;fill:#000000;fill-opacity:1;fill-rule:nonzero;stroke:none" transform="matrix(1,0,0,-1,547.03,544.44)"><tspan id="tspan110" y="0" x="0 6.2399802">US</tspan></text>
<text id="text112" style="font-variant:normal;font-weight:normal;font-size:11.03999996px;font-family:'Roboto Condensed';-inkscape-font-specification:'Roboto Condensed';writing-mode:lr-tb;fill:#000000;fill-opacity:1;fill-rule:nonzero;stroke:none" transform="matrix(1,0,0,-1,26.4,523.78)"><tspan id="tspan114" y="0" x="0">3</tspan></text>
<text id="text116" style="font-variant:normal;font-weight:normal;font-size:11.03999996px;font-family:'Roboto Condensed';-inkscape-font-specification:'Roboto Condensed';writing-mode:lr-tb;fill:#000000;fill-opacity:1;fill-rule:nonzero;stroke:none" transform="matrix(1,0,0,-1,72.84,523.78)"><tspan id="tspan118" y="0" x="0 6.2265601 8.7657604 13.9104 17.17824 22.521601 27.809759">Vietnam</tspan></text>
<text id="text120" style="font-variant:normal;font-weight:normal;font-size:11.03999996px;font-family:'Roboto Condensed';-inkscape-font-specification:'Roboto Condensed';writing-mode:lr-tb;fill:#000000;fill-opacity:1;fill-rule:nonzero;stroke:none" transform="matrix(1,0,0,-1,177.38,523.78)"><tspan id="tspan122" y="0" x="0 6.2399802">US</tspan></text>
<text id="text124" style="font-variant:normal;font-weight:normal;font-size:11.03999996px;font-family:'Roboto Condensed';-inkscape-font-specification:'Roboto Condensed';writing-mode:lr-tb;fill:#000000;fill-opacity:1;fill-rule:nonzero;stroke:none" transform="matrix(1,0,0,-1,269.78,523.78)"><tspan id="tspan126" y="0" x="0 6.2399802">US</tspan></text>
<text id="text128" style="font-variant:normal;font-weight:bold;font-size:11.03999996px;font-family:'Roboto Condensed';-inkscape-font-specification:'Roboto Condensed, Bold';writing-mode:lr-tb;fill:#000000;fill-opacity:1;fill-rule:nonzero;stroke:none" transform="matrix(1,0,0,-1,355.73,523.78)"><tspan id="tspan130" y="0" x="0 6.2375998 11.66928 14.39616 19.827841">China</tspan></text>
<text id="text132" style="font-variant:normal;font-weight:normal;font-size:11.03999996px;font-family:'Roboto Condensed';-inkscape-font-specification:'Roboto Condensed';writing-mode:lr-tb;fill:#000000;fill-opacity:1;fill-rule:nonzero;stroke:none" transform="matrix(1,0,0,-1,454.61,523.78)"><tspan id="tspan134" y="0" x="0 6.2399802">US</tspan></text>
<text id="text136" style="font-variant:normal;font-weight:normal;font-size:11.03999996px;font-family:'Roboto Condensed';-inkscape-font-specification:'Roboto Condensed';writing-mode:lr-tb;fill:#000000;fill-opacity:1;fill-rule:nonzero;stroke:none" transform="matrix(1,0,0,-1,534.91,523.78)"><tspan id="tspan138" y="0" x="0 6.2265601 8.7657604 13.9104 17.17824 22.521601 27.809759">Vietnam</tspan></text>
<text id="text140" style="font-variant:normal;font-weight:normal;font-size:11.03999996px;font-family:'Roboto Condensed';-inkscape-font-specification:'Roboto Condensed';writing-mode:lr-tb;fill:#000000;fill-opacity:1;fill-rule:nonzero;stroke:none" transform="matrix(1,0,0,-1,26.4,503.14)"><tspan id="tspan142" y="0" x="0">4</tspan></text>
<text id="text144" style="font-variant:normal;font-weight:normal;font-size:11.03999996px;font-family:'Roboto Condensed';-inkscape-font-specification:'Roboto Condensed';writing-mode:lr-tb;fill:#000000;fill-opacity:1;fill-rule:nonzero;stroke:none" transform="matrix(1,0,0,-1,72.12,503.14)"><tspan id="tspan146" y="0" x="0 5.7518401 11.04 16.328159 18.867359 21.3624 26.65056 32.027039">Thailand</tspan></text>
<text id="text148" style="font-variant:normal;font-weight:normal;font-size:11.03999996px;font-family:'Roboto Condensed';-inkscape-font-specification:'Roboto Condensed';writing-mode:lr-tb;fill:#000000;fill-opacity:1;fill-rule:nonzero;stroke:none" transform="matrix(1,0,0,-1,165.26,503.14)"><tspan id="tspan150" y="0" x="0 6.2265601 8.7657604 13.9104 17.17824 22.521601 27.809759">Vietnam</tspan></text>
<text id="text152" style="font-variant:normal;font-weight:normal;font-size:11.03999996px;font-family:'Roboto Condensed';-inkscape-font-specification:'Roboto Condensed';writing-mode:lr-tb;fill:#000000;fill-opacity:1;fill-rule:nonzero;stroke:none" transform="matrix(1,0,0,-1,257.66,503.14)"><tspan id="tspan154" y="0" x="0 6.2265601 8.7657604 13.9104 17.17824 22.521601 27.809759">Vietnam</tspan></text>
<text id="text156" style="font-variant:normal;font-weight:normal;font-size:11.03999996px;font-family:'Roboto Condensed';-inkscape-font-specification:'Roboto Condensed';writing-mode:lr-tb;fill:#000000;fill-opacity:1;fill-rule:nonzero;stroke:none" transform="matrix(1,0,0,-1,362.21,503.14)"><tspan id="tspan158" y="0" x="0 6.2399802">US</tspan></text>
<text id="text160" style="font-variant:normal;font-weight:normal;font-size:11.03999996px;font-family:'Roboto Condensed';-inkscape-font-specification:'Roboto Condensed';writing-mode:lr-tb;fill:#000000;fill-opacity:1;fill-rule:nonzero;stroke:none" transform="matrix(1,0,0,-1,439.25,503.14)"><tspan id="tspan162" y="0" x="0 2.76 8.1475201 13.65648 19.198561 24.563999 29.74176 34.776001 37.315201">Indonesia</tspan></text>
<text id="text164" style="font-variant:normal;font-weight:normal;font-size:11.03999996px;font-family:'Roboto Condensed';-inkscape-font-specification:'Roboto Condensed';writing-mode:lr-tb;fill:#000000;fill-opacity:1;fill-rule:nonzero;stroke:none" transform="matrix(1,0,0,-1,531.67,503.14)"><tspan id="tspan166" y="0" x="0 2.76 8.1475201 13.65648 19.198561 24.563999 29.74176 34.776001 37.315201">Indonesia</tspan></text>
<text id="text168" style="font-variant:normal;font-weight:normal;font-size:11.03999996px;font-family:'Roboto Condensed';-inkscape-font-specification:'Roboto Condensed';writing-mode:lr-tb;fill:#000000;fill-opacity:1;fill-rule:nonzero;stroke:none" transform="matrix(1,0,0,-1,26.4,482.5)"><tspan id="tspan170" y="0" x="0">5</tspan></text>
<text id="text172" style="font-variant:normal;font-weight:normal;font-size:11.03999996px;font-family:'Roboto Condensed';-inkscape-font-specification:'Roboto Condensed';writing-mode:lr-tb;fill:#000000;fill-opacity:1;fill-rule:nonzero;stroke:none" transform="matrix(1,0,0,-1,84.96,482.5)"><tspan id="tspan174" y="0" x="0 6.2399802">US</tspan></text>
<text id="text176" style="font-variant:normal;font-weight:normal;font-size:11.03999996px;font-family:'Roboto Condensed';-inkscape-font-specification:'Roboto Condensed';writing-mode:lr-tb;fill:#000000;fill-opacity:1;fill-rule:nonzero;stroke:none" transform="matrix(1,0,0,-1,164.54,482.5)"><tspan id="tspan178" y="0" x="0 5.7518401 11.04 16.328159 18.867359 21.3624 26.65056 32.027039">Thailand</tspan></text>
<text id="text180" style="font-variant:normal;font-weight:normal;font-size:11.03999996px;font-family:'Roboto Condensed';-inkscape-font-specification:'Roboto Condensed';writing-mode:lr-tb;fill:#000000;fill-opacity:1;fill-rule:nonzero;stroke:none" transform="matrix(1,0,0,-1,256.94,482.5)"><tspan id="tspan182" y="0" x="0 5.7518401 11.04 16.328159 18.867359 21.3624 26.65056 32.027039">Thailand</tspan></text>
<text id="text184" style="font-variant:normal;font-weight:normal;font-size:11.03999996px;font-family:'Roboto Condensed';-inkscape-font-specification:'Roboto Condensed';writing-mode:lr-tb;fill:#000000;fill-opacity:1;fill-rule:nonzero;stroke:none" transform="matrix(1,0,0,-1,346.85,482.5)"><tspan id="tspan186" y="0" x="0 2.76 8.1475201 13.65648 19.198561 24.563999 29.74176 34.776001 37.315201">Indonesia</tspan></text>
<text id="text188" style="font-variant:normal;font-weight:normal;font-size:11.03999996px;font-family:'Roboto Condensed';-inkscape-font-specification:'Roboto Condensed';writing-mode:lr-tb;fill:#000000;fill-opacity:1;fill-rule:nonzero;stroke:none" transform="matrix(1,0,0,-1,441.77,482.5)"><tspan id="tspan190" y="0" x="0 5.7518401 11.04 16.328159 18.867359 21.3624 26.65056 32.027039">Thailand</tspan></text>
<text id="text192" style="font-variant:normal;font-weight:bold;font-size:11.03999996px;font-family:'Roboto Condensed';-inkscape-font-specification:'Roboto Condensed, Bold';writing-mode:lr-tb;fill:#000000;fill-opacity:1;fill-rule:nonzero;stroke:none" transform="matrix(1,0,0,-1,540.55,482.5)"><tspan id="tspan194" y="0" x="0 6.2375998 11.66928 14.39616 19.827841">China</tspan></text>
<text id="text196" style="font-variant:normal;font-weight:normal;font-size:11.03999996px;font-family:'Roboto Condensed';-inkscape-font-specification:'Roboto Condensed';writing-mode:lr-tb;fill:#000000;fill-opacity:1;fill-rule:nonzero;stroke:none" transform="matrix(1,0,0,-1,26.4,461.86)"><tspan id="tspan198" y="0" x="0">6</tspan></text>
<text id="text200" style="font-variant:normal;font-weight:normal;font-size:11.03999996px;font-family:'Roboto Condensed';-inkscape-font-specification:'Roboto Condensed';writing-mode:lr-tb;fill:#000000;fill-opacity:1;fill-rule:nonzero;stroke:none" transform="matrix(1,0,0,-1,69.6,461.86)"><tspan id="tspan202" y="0" x="0 2.76 8.1475201 13.65648 19.198561 24.563999 29.74176 34.776001 37.315201">Indonesia</tspan></text>
<text id="text204" style="font-variant:normal;font-weight:normal;font-size:11.03999996px;font-family:'Roboto Condensed';-inkscape-font-specification:'Roboto Condensed';writing-mode:lr-tb;fill:#000000;fill-opacity:1;fill-rule:nonzero;stroke:none" transform="matrix(1,0,0,-1,162.02,461.86)"><tspan id="tspan206" y="0" x="0 2.76 8.1475201 13.65648 19.198561 24.563999 29.74176 34.776001 37.315201">Indonesia</tspan></text>
<text id="text208" style="font-variant:normal;font-weight:normal;font-size:11.03999996px;font-family:'Roboto Condensed';-inkscape-font-specification:'Roboto Condensed';writing-mode:lr-tb;fill:#000000;fill-opacity:1;fill-rule:nonzero;stroke:none" transform="matrix(1,0,0,-1,254.42,461.86)"><tspan id="tspan210" y="0" x="0 2.76 8.1475201 13.65648 19.198561 24.563999 29.74176 34.776001 37.315201">Indonesia</tspan></text>
<text id="text212" style="font-variant:normal;font-weight:normal;font-size:11.03999996px;font-family:'Roboto Condensed';-inkscape-font-specification:'Roboto Condensed';writing-mode:lr-tb;fill:#000000;fill-opacity:1;fill-rule:nonzero;stroke:none" transform="matrix(1,0,0,-1,349.37,461.86)"><tspan id="tspan214" y="0" x="0 5.7518401 11.04 16.328159 18.867359 21.3624 26.65056 32.027039">Thailand</tspan></text>
<text id="text216" style="font-variant:normal;font-weight:bold;font-size:11.03999996px;font-family:'Roboto Condensed';-inkscape-font-specification:'Roboto Condensed, Bold';writing-mode:lr-tb;fill:#000000;fill-opacity:1;fill-rule:nonzero;stroke:none" transform="matrix(1,0,0,-1,448.13,461.86)"><tspan id="tspan218" y="0" x="0 6.2375998 11.66928 14.39616 19.827841">China</tspan></text>
<text id="text220" style="font-variant:normal;font-weight:normal;font-size:11.03999996px;font-family:'Roboto Condensed';-inkscape-font-specification:'Roboto Condensed';writing-mode:lr-tb;fill:#000000;fill-opacity:1;fill-rule:nonzero;stroke:none" transform="matrix(1,0,0,-1,534.19,461.86)"><tspan id="tspan222" y="0" x="0 5.7518401 11.04 16.328159 18.867359 21.3624 26.65056 32.027039">Thailand</tspan></text>
</g>
    </g>
    <g id="g224">
      <g clip-path="url(#clipPath228)" id="g226">
        <path id="path232" style="fill:none;stroke:#000000;stroke-width:0.14;stroke-linecap:square;stroke-linejoin:round;stroke-miterlimit:10;stroke-dasharray:none;stroke-opacity:1" d="m 13.14,455.8 585.67,0"/>
        <path id="path234" style="fill:#000000;fill-opacity:1;fill-rule:evenodd;stroke:none" d="m 13.08,454.9 585.79,0 0,0.96001 -585.79,0 0,-0.96001 z"/>
      </g>
    </g>
  </g>
</svg>
