<?xml version="1.0" encoding="UTF-8" standalone="no"?>
<svg xmlns:dc="http://purl.org/dc/elements/1.1/" xmlns:cc="http://creativecommons.org/ns#" xmlns:rdf="http://www.w3.org/1999/02/22-rdf-syntax-ns#" xmlns:svg="http://www.w3.org/2000/svg" xmlns="http://www.w3.org/2000/svg" viewBox="66.41875 383.0875 650.5375 395.0125" height="395.0125" width="650.5375" xml:space="preserve" version="1.1" id="svg2">
  <metadata id="metadata8">
    <rdf:RDF>
      <cc:Work rdf:about="">
        <dc:format>image/svg+xml</dc:format>
        <dc:type rdf:resource="http://purl.org/dc/dcmitype/StillImage"/>
      </cc:Work>
    </rdf:RDF>
  </metadata>
  <defs id="defs6">
    <clipPath id="clipPath16" clipPathUnits="userSpaceOnUse">
      <path style="clip-rule:evenodd" id="path18" d="m 53.053,263.75 520.55,0 0,316.04 -520.55,0 0,-316.04 z"/>
    </clipPath>
    <clipPath id="clipPath26" clipPathUnits="userSpaceOnUse">
      <path style="clip-rule:evenodd" id="path28" d="m 53.053,263.75 520.55,0 0,316.04 -520.55,0 0,-316.04 z"/>
    </clipPath>
    <clipPath id="clipPath44" clipPathUnits="userSpaceOnUse">
      <path style="clip-rule:evenodd" id="path46" d="m 53.179,263.87 520.29,0 0,315.79 -520.29,0 0,-315.79 z"/>
    </clipPath>
    <clipPath id="clipPath56" clipPathUnits="userSpaceOnUse">
      <path style="clip-rule:evenodd" id="path58" d="m 53.179,263.87 520.29,0 0,315.79 -520.29,0 0,-315.79 z"/>
    </clipPath>
    <clipPath id="clipPath68" clipPathUnits="userSpaceOnUse">
      <path style="clip-rule:evenodd" id="path70" d="m 53.179,263.87 520.29,0 0,315.79 -520.29,0 0,-315.79 z"/>
    </clipPath>
    <clipPath id="clipPath80" clipPathUnits="userSpaceOnUse">
      <path style="clip-rule:evenodd" id="path82" d="m 53.179,263.87 520.29,0 0,315.79 -520.29,0 0,-315.79 z"/>
    </clipPath>
    <clipPath id="clipPath92" clipPathUnits="userSpaceOnUse">
      <path style="clip-rule:evenodd" id="path94" d="m 53.179,263.87 520.29,0 0,315.79 -520.29,0 0,-315.79 z"/>
    </clipPath>
    <clipPath id="clipPath104" clipPathUnits="userSpaceOnUse">
      <path style="clip-rule:evenodd" id="path106" d="m 53.179,263.87 520.29,0 0,315.79 -520.29,0 0,-315.79 z"/>
    </clipPath>
    <clipPath id="clipPath116" clipPathUnits="userSpaceOnUse">
      <path style="clip-rule:evenodd" id="path118" d="m 53.179,263.87 520.29,0 0,315.79 -520.29,0 0,-315.79 z"/>
    </clipPath>
    <clipPath id="clipPath128" clipPathUnits="userSpaceOnUse">
      <path style="clip-rule:evenodd" id="path130" d="m 53.179,263.87 520.29,0 0,315.79 -520.29,0 0,-315.79 z"/>
    </clipPath>
    <clipPath id="clipPath140" clipPathUnits="userSpaceOnUse">
      <path style="clip-rule:evenodd" id="path142" d="m 53.179,263.87 520.29,0 0,315.79 -520.29,0 0,-315.79 z"/>
    </clipPath>
    <clipPath id="clipPath152" clipPathUnits="userSpaceOnUse">
      <path style="clip-rule:evenodd" id="path154" d="m 53.179,263.87 520.29,0 0,315.79 -520.29,0 0,-315.79 z"/>
    </clipPath>
    <clipPath id="clipPath164" clipPathUnits="userSpaceOnUse">
      <path style="clip-rule:evenodd" id="path166" d="m 53.179,263.87 520.29,0 0,315.79 -520.29,0 0,-315.79 z"/>
    </clipPath>
    <clipPath id="clipPath176" clipPathUnits="userSpaceOnUse">
      <path style="clip-rule:evenodd" id="path178" d="m 53.179,263.87 520.29,0 0,315.79 -520.29,0 0,-315.79 z"/>
    </clipPath>
    <clipPath id="clipPath188" clipPathUnits="userSpaceOnUse">
      <path style="clip-rule:evenodd" id="path190" d="m 53.179,263.87 520.29,0 0,315.79 -520.29,0 0,-315.79 z"/>
    </clipPath>
    <clipPath id="clipPath200" clipPathUnits="userSpaceOnUse">
      <path style="clip-rule:evenodd" id="path202" d="m 53.179,263.87 520.29,0 0,315.79 -520.29,0 0,-315.79 z"/>
    </clipPath>
    <clipPath id="clipPath212" clipPathUnits="userSpaceOnUse">
      <path style="clip-rule:evenodd" id="path214" d="m 53.179,263.87 520.29,0 0,315.79 -520.29,0 0,-315.79 z"/>
    </clipPath>
    <clipPath id="clipPath224" clipPathUnits="userSpaceOnUse">
      <path style="clip-rule:evenodd" id="path226" d="m 53.179,263.87 520.29,0 0,315.79 -520.29,0 0,-315.79 z"/>
    </clipPath>
    <clipPath id="clipPath236" clipPathUnits="userSpaceOnUse">
      <path style="clip-rule:evenodd" id="path238" d="m 53.179,263.87 520.29,0 0,315.79 -520.29,0 0,-315.79 z"/>
    </clipPath>
    <clipPath id="clipPath248" clipPathUnits="userSpaceOnUse">
      <path style="clip-rule:evenodd" id="path250" d="m 53.179,263.87 520.29,0 0,315.79 -520.29,0 0,-315.79 z"/>
    </clipPath>
    <clipPath id="clipPath260" clipPathUnits="userSpaceOnUse">
      <path style="clip-rule:evenodd" id="path262" d="m 53.179,263.87 520.29,0 0,315.79 -520.29,0 0,-315.79 z"/>
    </clipPath>
    <clipPath id="clipPath272" clipPathUnits="userSpaceOnUse">
      <path style="clip-rule:evenodd" id="path274" d="m 53.179,263.87 520.29,0 0,315.79 -520.29,0 0,-315.79 z"/>
    </clipPath>
    <clipPath id="clipPath284" clipPathUnits="userSpaceOnUse">
      <path style="clip-rule:evenodd" id="path286" d="m 53.179,263.87 520.29,0 0,315.79 -520.29,0 0,-315.79 z"/>
    </clipPath>
    <clipPath id="clipPath296" clipPathUnits="userSpaceOnUse">
      <path style="clip-rule:evenodd" id="path298" d="m 53.179,263.87 520.29,0 0,315.79 -520.29,0 0,-315.79 z"/>
    </clipPath>
    <clipPath id="clipPath310" clipPathUnits="userSpaceOnUse">
      <path style="clip-rule:evenodd" id="path312" d="m 53.179,263.87 520.29,0 0,315.79 -520.29,0 0,-315.79 z"/>
    </clipPath>
    <clipPath id="clipPath324" clipPathUnits="userSpaceOnUse">
      <path style="clip-rule:evenodd" id="path326" d="m 53.179,263.87 520.29,0 0,315.79 -520.29,0 0,-315.79 z"/>
    </clipPath>
  </defs>
  <g transform="matrix(1.25,0,0,-1.25,0,1107.7875)" id="g10">
    <g id="g12">
      <g clip-path="url(#clipPath16)" id="g14">
        <path id="path20" style="fill:none;stroke:#000000;stroke-width:0.14;stroke-linecap:butt;stroke-linejoin:miter;stroke-miterlimit:10;stroke-dasharray:none;stroke-opacity:0" d="m 53.205,263.72 520.29,0 0,315.97 -520.29,0 0,-315.97 z"/>
      </g>
    </g>
    <g id="g22">
      <g clip-path="url(#clipPath26)" id="g24">
        <path id="path30" style="fill:#ffffff;fill-opacity:1;fill-rule:evenodd;stroke:none" d="m 53.205,263.72 520.29,0 0,315.97 -520.29,0 0,-315.97 z"/>
      </g>
    </g>
    <path id="path32" style="fill:none;stroke:#d9d9d9;stroke-width:1.02209997;stroke-linecap:butt;stroke-linejoin:round;stroke-miterlimit:10;stroke-dasharray:none;stroke-opacity:1" d="m 129.33,383.59 429.18,0 m -429.18,48.54 429.18,0 m -429.18,48.71 429.18,0 m -429.18,48.65 429.18,0"/>
    <path id="path34" style="fill:#eacc80;fill-opacity:1;fill-rule:nonzero;stroke:none" d="m 155.04,336.77 34.42,0 0,-1.91 -34.42,0 0,1.91 z m 85.89,2.93 34.25,0 0,-4.84 -34.25,0 0,4.84 z m 85.88,1.03 34.25,0 0,-5.87 -34.25,0 0,5.87 z m 85.72,16.53 34.42,0 0,-22.4 -34.42,0 0,22.4 z m 85.88,26.33 34.43,0 0,-48.73 -34.43,0 0,48.73 z"/>
    <path id="path36" style="fill:#137cb1;fill-opacity:1;fill-rule:nonzero;stroke:none" d="m 155.04,346.59 34.42,0 0,-9.82 -34.42,0 0,9.82 z m 85.89,5.85 34.25,0 0,-12.74 -34.25,0 0,12.74 z m 85.88,19.45 34.25,0 0,-31.16 -34.25,0 0,31.16 z m 85.72,53.52 34.42,0 0,-68.15 -34.42,0 0,68.15 z m 85.88,79.69 34.43,0 0,-121.51 -34.43,0 0,121.51 z"/>
    <path id="path38" style="fill:none;stroke:#d9d9d9;stroke-width:1.02209997;stroke-linecap:butt;stroke-linejoin:round;stroke-miterlimit:10;stroke-dasharray:none;stroke-opacity:1" d="m 129.33,334.86 429.18,0"/>
    <g id="g40">
      <g clip-path="url(#clipPath44)" id="g42"><text id="text48" style="font-variant:normal;font-weight:normal;font-size:14.98900032px;font-family:Calibri;-inkscape-font-specification:Calibri;writing-mode:lr-tb;fill:#000000;fill-opacity:1;fill-rule:nonzero;stroke:none" transform="matrix(1,0,0,-1,168.4,330.63)"><tspan id="tspan50" y="0" x="0">2</tspan></text>
</g>
    </g>
    <g id="g52">
      <g clip-path="url(#clipPath56)" id="g54"><text id="text60" style="font-variant:normal;font-weight:normal;font-size:14.96800041px;font-family:Calibri;-inkscape-font-specification:Calibri;writing-mode:lr-tb;fill:#000000;fill-opacity:1;fill-rule:nonzero;stroke:none" transform="matrix(1,0,0,-1,254.25,332.08)"><tspan id="tspan62" y="0" x="0">5</tspan></text>
</g>
    </g>
    <g id="g64">
      <g clip-path="url(#clipPath68)" id="g66"><text id="text72" style="font-variant:normal;font-weight:normal;font-size:14.96800041px;font-family:Calibri;-inkscape-font-specification:Calibri;writing-mode:lr-tb;fill:#000000;fill-opacity:1;fill-rule:nonzero;stroke:none" transform="matrix(1,0,0,-1,340.11,332.57)"><tspan id="tspan74" y="0" x="0">6</tspan></text>
</g>
    </g>
    <g id="g76">
      <g clip-path="url(#clipPath80)" id="g78"><text id="text84" style="font-variant:normal;font-weight:normal;font-size:14.96800041px;font-family:Calibri;-inkscape-font-specification:Calibri;writing-mode:lr-tb;fill:#000000;fill-opacity:1;fill-rule:nonzero;stroke:none" transform="matrix(1,0,0,-1,422.17,340.84)"><tspan id="tspan86" y="0" x="0 7.5787759">23</tspan></text>
</g>
    </g>
    <g id="g88">
      <g clip-path="url(#clipPath92)" id="g90"><text id="text96" style="font-variant:normal;font-weight:normal;font-size:14.96800041px;font-family:Calibri;-inkscape-font-specification:Calibri;writing-mode:lr-tb;fill:#000000;fill-opacity:1;fill-rule:nonzero;stroke:none" transform="matrix(1,0,0,-1,508.02,353.98)"><tspan id="tspan98" y="0" x="0 7.5787759">50</tspan></text>
</g>
    </g>
    <g id="g100">
      <g clip-path="url(#clipPath104)" id="g102"><text id="text108" style="font-variant:normal;font-weight:normal;font-size:14.96800041px;font-family:Calibri;-inkscape-font-specification:Calibri;writing-mode:lr-tb;fill:#ffffff;fill-opacity:1;fill-rule:nonzero;stroke:none" transform="matrix(1,0,0,-1,164.61,336.46)"><tspan id="tspan110" y="0" x="0 7.5787759">10</tspan></text>
</g>
    </g>
    <g id="g112">
      <g clip-path="url(#clipPath116)" id="g114"><text id="text120" style="font-variant:normal;font-weight:normal;font-size:14.96800041px;font-family:Calibri;-inkscape-font-specification:Calibri;writing-mode:lr-tb;fill:#ffffff;fill-opacity:1;fill-rule:nonzero;stroke:none" transform="matrix(1,0,0,-1,250.46,340.84)"><tspan id="tspan122" y="0" x="0 7.5787759">13</tspan></text>
</g>
    </g>
    <g id="g124">
      <g clip-path="url(#clipPath128)" id="g126"><text id="text132" style="font-variant:normal;font-weight:normal;font-size:14.98900032px;font-family:Calibri;-inkscape-font-specification:Calibri;writing-mode:lr-tb;fill:#ffffff;fill-opacity:1;fill-rule:nonzero;stroke:none" transform="matrix(1,0,0,-1,336.32,351.07)"><tspan id="tspan134" y="0" x="0 7.578723">32</tspan></text>
</g>
    </g>
    <g id="g136">
      <g clip-path="url(#clipPath140)" id="g138"><text id="text144" style="font-variant:normal;font-weight:normal;font-size:14.98900032px;font-family:Calibri;-inkscape-font-specification:Calibri;writing-mode:lr-tb;fill:#ffffff;fill-opacity:1;fill-rule:nonzero;stroke:none" transform="matrix(1,0,0,-1,422.17,386.11)"><tspan id="tspan146" y="0" x="0 7.578723">70</tspan></text>
</g>
    </g>
    <g id="g148">
      <g clip-path="url(#clipPath152)" id="g150"><text id="text156" style="font-variant:normal;font-weight:normal;font-size:14.98900032px;font-family:Calibri;-inkscape-font-specification:Calibri;writing-mode:lr-tb;fill:#ffffff;fill-opacity:1;fill-rule:nonzero;stroke:none" transform="matrix(1,0,0,-1,504.25,439.16)"><tspan id="tspan158" y="0" x="0 7.5576229 15.115246">125</tspan></text>
</g>
    </g>
    <g id="g160">
      <g clip-path="url(#clipPath164)" id="g162"><text id="text168" style="font-variant:normal;font-weight:normal;font-size:14.98900032px;font-family:Calibri;-inkscape-font-specification:Calibri;writing-mode:lr-tb;fill:#000000;fill-opacity:1;fill-rule:nonzero;stroke:none" transform="matrix(1,0,0,-1,107.83,330.48)"><tspan id="tspan170" y="0" x="0">0</tspan></text>
</g>
    </g>
    <g id="g172">
      <g clip-path="url(#clipPath176)" id="g174"><text id="text180" style="font-variant:normal;font-weight:normal;font-size:14.96800041px;font-family:Calibri;-inkscape-font-specification:Calibri;writing-mode:lr-tb;fill:#000000;fill-opacity:1;fill-rule:nonzero;stroke:none" transform="matrix(1,0,0,-1,100.23,379.14)"><tspan id="tspan182" y="0" x="0 7.5787759">50</tspan></text>
</g>
    </g>
    <g id="g184">
      <g clip-path="url(#clipPath188)" id="g186"><text id="text192" style="font-variant:normal;font-weight:normal;font-size:14.96800041px;font-family:Calibri;-inkscape-font-specification:Calibri;writing-mode:lr-tb;fill:#000000;fill-opacity:1;fill-rule:nonzero;stroke:none" transform="matrix(1,0,0,-1,92.632,427.81)"><tspan id="tspan194" y="0" x="0 7.5787759 15.157552">100</tspan></text>
</g>
    </g>
    <g id="g196">
      <g clip-path="url(#clipPath200)" id="g198"><text id="text204" style="font-variant:normal;font-weight:normal;font-size:14.98900032px;font-family:Calibri;-inkscape-font-specification:Calibri;writing-mode:lr-tb;fill:#000000;fill-opacity:1;fill-rule:nonzero;stroke:none" transform="matrix(1,0,0,-1,92.632,476.48)"><tspan id="tspan206" y="0" x="0 7.578723 15.157446">150</tspan></text>
</g>
    </g>
    <g id="g208">
      <g clip-path="url(#clipPath212)" id="g210"><text id="text216" style="font-variant:normal;font-weight:normal;font-size:14.96800041px;font-family:Calibri;-inkscape-font-specification:Calibri;writing-mode:lr-tb;fill:#000000;fill-opacity:1;fill-rule:nonzero;stroke:none" transform="matrix(1,0,0,-1,92.632,525.14)"><tspan id="tspan218" y="0" x="0 7.5787759 15.157552">200</tspan></text>
</g>
    </g>
    <g id="g220">
      <g clip-path="url(#clipPath224)" id="g222"><text id="text228" style="font-variant:normal;font-weight:normal;font-size:14.98900032px;font-family:Calibri;-inkscape-font-specification:Calibri;writing-mode:lr-tb;fill:#000000;fill-opacity:1;fill-rule:nonzero;stroke:none" transform="matrix(1,0,0,-1,157.07,310.99)"><tspan id="tspan230" y="0" x="0 7.578723 15.157446 22.73617">2022</tspan></text>
</g>
    </g>
    <g id="g232">
      <g clip-path="url(#clipPath236)" id="g234"><text id="text240" style="font-variant:normal;font-weight:normal;font-size:14.98900032px;font-family:Calibri;-inkscape-font-specification:Calibri;writing-mode:lr-tb;fill:#000000;fill-opacity:1;fill-rule:nonzero;stroke:none" transform="matrix(1,0,0,-1,242.93,310.99)"><tspan id="tspan242" y="0" x="0 7.578723 15.157446 22.73617">2023</tspan></text>
</g>
    </g>
    <g id="g244">
      <g clip-path="url(#clipPath248)" id="g246"><text id="text252" style="font-variant:normal;font-weight:normal;font-size:14.98900032px;font-family:Calibri;-inkscape-font-specification:Calibri;writing-mode:lr-tb;fill:#000000;fill-opacity:1;fill-rule:nonzero;stroke:none" transform="matrix(1,0,0,-1,328.78,310.99)"><tspan id="tspan254" y="0" x="0 7.578723 15.157446 22.73617">2024</tspan></text>
</g>
    </g>
    <g id="g256">
      <g clip-path="url(#clipPath260)" id="g258"><text id="text264" style="font-variant:normal;font-weight:normal;font-size:14.98900032px;font-family:Calibri;-inkscape-font-specification:Calibri;writing-mode:lr-tb;fill:#000000;fill-opacity:1;fill-rule:nonzero;stroke:none" transform="matrix(1,0,0,-1,414.63,310.99)"><tspan id="tspan266" y="0" x="0 7.578723 15.157446 22.73617">2025</tspan></text>
</g>
    </g>
    <g id="g268">
      <g clip-path="url(#clipPath272)" id="g270"><text id="text276" style="font-variant:normal;font-weight:normal;font-size:14.98900032px;font-family:Calibri;-inkscape-font-specification:Calibri;writing-mode:lr-tb;fill:#000000;fill-opacity:1;fill-rule:nonzero;stroke:none" transform="matrix(1,0,0,-1,496.76,310.99)"><tspan id="tspan278" y="0" x="0 7.5994229 15.198846 22.738314 30.472637">2026e</tspan></text>
</g>
    </g>
    <g id="g280">
      <g clip-path="url(#clipPath284)" id="g282"><text id="text288" style="font-variant:normal;font-weight:normal;font-size:14.98900032px;font-family:Calibri;-inkscape-font-specification:Calibri;writing-mode:lr-tb;fill:#000000;fill-opacity:1;fill-rule:nonzero;stroke:none" transform="matrix(-4.4e-8,1,1,4.4e-8,84.526,408.8)"><tspan id="tspan290" y="0" x="0 4.4817109 11.346673 22.063808 29.933033 41.9692">(kwpm)</tspan></text>
</g>
    </g>
    <g id="g292">
      <g clip-path="url(#clipPath296)" id="g294"><text id="text300" style="font-variant:normal;font-weight:normal;font-size:18.08399963px;font-family:Calibri;-inkscape-font-specification:Calibri;writing-mode:lr-tb;fill:#000000;fill-opacity:1;fill-rule:nonzero;stroke:none" transform="matrix(1,0,0,-1,134.65,552.21)"><tspan id="tspan302" y="0" x="0 9.638772 19.096704 34.395767 43.853699 52.154255 56.060398 64.360954 73.764633 83.258736 92.662415 96.821739 105.01379 108.99227 118.63104 127.29327 136.69696 145.35919 152.86406 157.02338 163.00917 171.2374 175.19778 185.03549 191.20213 200.15372 208.81595 216.51973 226.01382 235.41751 248.34756 257.76935 261.36804 266.8475 276.50436 284.73257 288.69296 296.25208 305.20367 313.86591 320.17722 323.95679 332.78177 342.18546 351.67953">CoWoS Supply Capacity Breakdown (By Year End)</tspan></text>
</g>
    </g>
    <path id="path304" style="fill:#eacc80;fill-opacity:1;fill-rule:evenodd;stroke:none" d="m 182.84,280.92 8.2358,0 0,8.2358 -8.2358,0 0,-8.2358 z"/>
    <g id="g306">
      <g clip-path="url(#clipPath310)" id="g308"><text id="text314" style="font-variant:normal;font-weight:normal;font-size:14.98900032px;font-family:Calibri;-inkscape-font-specification:Calibri;writing-mode:lr-tb;fill:#000000;fill-opacity:1;fill-rule:nonzero;stroke:none" transform="matrix(1,0,0,-1,194.72,280.65)"><tspan id="tspan316" y="0" x="0 9.6828938 17.582096 25.451323 30.112902 37.337601 44.217548 56.958199 65.022285 68.409798 72.951462 81.555145 93.576324 100.44129 108.19061 113.49671 119.17754 128.80048 141.70601 149.62019 155.45091 164.05461 170.93456 178.33913">Non-TSMC (Amkor/UMC/ASE)</tspan></text>
</g>
    </g>
    <path id="path318" style="fill:#137cb1;fill-opacity:1;fill-rule:evenodd;stroke:none" d="m 402.67,280.92 8.2358,0 0,8.2358 -8.2358,0 0,-8.2358 z"/>
    <g id="g320">
      <g clip-path="url(#clipPath324)" id="g322"><text id="text328" style="font-variant:normal;font-weight:normal;font-size:14.98900032px;font-family:Calibri;-inkscape-font-specification:Calibri;writing-mode:lr-tb;fill:#000000;fill-opacity:1;fill-rule:nonzero;stroke:none" transform="matrix(1,0,0,-1,414.59,280.65)"><tspan id="tspan330" y="0" x="0 7.239687 14.119638 27.010178">TSMC</tspan></text>
</g>
    </g>
  </g>
</svg>
