<svg version="1.1" width="100%" height="100%" viewBox="0 0 355 267" xmlns="http://www.w3.org/2000/svg" xmlns:xlink="http://www.w3.org/1999/xlink"><style type="text/css" /><defs><clipPath id="clip001"><path d="M0,0 L2761.333,0 L2761.333,2221.333 L0,2221.333 Z" clip-rule="evenodd" /></clipPath><clipPath id="clip002"><path d="M0,0 L2761.333,0 L2761.333,2221.333 L0,2221.333 Z" clip-rule="evenodd" /></clipPath><clipPath id="clip003"><path d="M0,0 L2761.333,0 L2761.333,2221.333 L0,2221.333 Z" clip-rule="evenodd" /></clipPath><clipPath id="clip004"><path d="M0,0 L5200,0 L5200,2329.333 L0,2329.333 Z" clip-rule="evenodd" /></clipPath><clipPath id="clip005"><path d="M-800,0 L6000,0 L6000,2329.333 L-800,2329.333 Z" clip-rule="evenodd" /></clipPath><clipPath id="clip006"><path d="M0,0 L2753.333,0 L2753.333,2220 L0,2220 Z" clip-rule="evenodd" /></clipPath><clipPath id="clip007"><path d="M348,60 L2405.333,60 L2405.333,1845.333 L348,1845.333 Z" clip-rule="evenodd" /></clipPath><clipPath id="clip008"><path d="M0,0 L2753.333,0 L2753.333,2220 L0,2220 Z" clip-rule="evenodd" /></clipPath><clipPath id="clip009"><path d="M348,60 L2405.333,60 L2405.333,1845.333 L348,1845.333 Z" clip-rule="evenodd" /></clipPath><clipPath id="clip010"><path d="M0,0 L2753.333,0 L2753.333,2220 L0,2220 Z" clip-rule="evenodd" /></clipPath><clipPath id="clip011"><path d="M0,0 L2753.333,0 L2753.333,2220 L0,2220 Z" clip-rule="evenodd" /></clipPath><clipPath id="clip012"><path d="M0,0 L2753.333,0 L2753.333,2220 L0,2220 Z" clip-rule="evenodd" /></clipPath><clipPath id="clip013"><path d="M0,0 L2753.333,0 L2753.333,2220 L0,2220 Z" clip-rule="evenodd" /></clipPath><clipPath id="clip014"><path d="M0,0 L2753.333,0 L2753.333,2220 L0,2220 Z" clip-rule="evenodd" /></clipPath><clipPath id="clip015"><path d="M0,0 L2753.333,0 L2753.333,2220 L0,2220 Z" clip-rule="evenodd" /></clipPath><clipPath id="clip016"><path d="M0,0 L2753.333,0 L2753.333,2220 L0,2220 Z" clip-rule="evenodd" /></clipPath><clipPath id="clip017"><path d="M0,0 L2753.333,0 L2753.333,2220 L0,2220 Z" clip-rule="evenodd" /></clipPath><clipPath id="clip018"><path d="M0,0 L2753.333,0 L2753.333,2220 L0,2220 Z" clip-rule="evenodd" /></clipPath><clipPath id="clip019"><path d="M0,0 L2753.333,0 L2753.333,2220 L0,2220 Z" clip-rule="evenodd" /></clipPath><clipPath id="clip020"><path d="M0,0 L2753.333,0 L2753.333,2220 L0,2220 Z" clip-rule="evenodd" /></clipPath><clipPath id="clip021"><path d="M0,0 L2753.333,0 L2753.333,2220 L0,2220 Z" clip-rule="evenodd" /></clipPath><clipPath id="clip022"><path d="M0,0 L2753.333,0 L2753.333,2220 L0,2220 Z" clip-rule="evenodd" /></clipPath><clipPath id="clip023"><path d="M0,0 L2753.333,0 L2753.333,2220 L0,2220 Z" clip-rule="evenodd" /></clipPath><clipPath id="clip024"><path d="M0,0 L2753.333,0 L2753.333,2220 L0,2220 Z" clip-rule="evenodd" /></clipPath><clipPath id="clip025"><path d="M0,0 L2753.333,0 L2753.333,2220 L0,2220 Z" clip-rule="evenodd" /></clipPath><clipPath id="clip026"><path d="M0,0 L2753.333,0 L2753.333,2220 L0,2220 Z" clip-rule="evenodd" /></clipPath><clipPath id="clip027"><path d="M0,0 L2753.333,0 L2753.333,2220 L0,2220 Z" clip-rule="evenodd" /></clipPath><clipPath id="clip028"><path d="M0,0 L2753.333,0 L2753.333,2220 L0,2220 Z" clip-rule="evenodd" /></clipPath><clipPath id="clip029"><path d="M0,0 L2753.333,0 L2753.333,2220 L0,2220 Z" clip-rule="evenodd" /></clipPath><clipPath id="clip030"><path d="M0,0 L2753.333,0 L2753.333,2220 L0,2220 Z" clip-rule="evenodd" /></clipPath><clipPath id="clip031"><path d="M0,0 L2753.333,0 L2753.333,2220 L0,2220 Z" clip-rule="evenodd" /></clipPath><clipPath id="clip032"><path d="M0,0 L2753.333,0 L2753.333,2220 L0,2220 Z" clip-rule="evenodd" /></clipPath><clipPath id="clip033"><path d="M0,0 L2753.333,0 L2753.333,2220 L0,2220 Z" clip-rule="evenodd" /></clipPath><clipPath id="clip034"><path d="M0,0 L2753.333,0 L2753.333,2220 L0,2220 Z" clip-rule="evenodd" /></clipPath><clipPath id="clip035"><path d="M0,0 L2753.333,0 L2753.333,2220 L0,2220 Z" clip-rule="evenodd" /></clipPath><clipPath id="clip036"><path d="M0,0 L2753.333,0 L2753.333,2220 L0,2220 Z" clip-rule="evenodd" /></clipPath><clipPath id="clip037"><path d="M0,0 L2753.333,0 L2753.333,2220 L0,2220 Z" clip-rule="evenodd" /></clipPath><clipPath id="clip038"><path d="M0,0 L2753.333,0 L2753.333,2220 L0,2220 Z" clip-rule="evenodd" /></clipPath><clipPath id="clip039"><path d="M0,0 L2753.333,0 L2753.333,2220 L0,2220 Z" clip-rule="evenodd" /></clipPath><clipPath id="clip040"><path d="M0,0 L2753.333,0 L2753.333,2220 L0,2220 Z" clip-rule="evenodd" /></clipPath><clipPath id="clip041"><path d="M0,0 L2753.333,0 L2753.333,2220 L0,2220 Z" clip-rule="evenodd" /></clipPath><clipPath id="clip042"><path d="M0,0 L2753.333,0 L2753.333,2220 L0,2220 Z" clip-rule="evenodd" /></clipPath><clipPath id="clip043"><path d="M0,0 L2753.333,0 L2753.333,2220 L0,2220 Z" clip-rule="evenodd" /></clipPath><clipPath id="clip044"><path d="M0,0 L2753.333,0 L2753.333,2220 L0,2220 Z" clip-rule="evenodd" /></clipPath><clipPath id="clip045"><path d="M0,0 L2753.333,0 L2753.333,2220 L0,2220 Z" clip-rule="evenodd" /></clipPath><clipPath id="clip046"><path d="M0,0 L2753.333,0 L2753.333,2220 L0,2220 Z" clip-rule="evenodd" /></clipPath></defs><clipPath id="page-clip-path-1"><rect x="0" y="0" width="354.67" height="266.67" /></clipPath><g clip-path="url(#page-clip-path-1)" transform="translate(0.17,0)"><g transform="translate(1,1)"><g><g transform="matrix(0.1197006,0,0,0.119958,0,0)" clip-path="url(#clip001)"><g><g clip-path="url(#clip002)"><g><g clip-path="url(#clip003)"><g transform="matrix(1.000214,0,0,1.000332,0.00016276,0)"><g><g><g clip-path="url(#clip004)"><g transform="translate(2753.333,2221.333)" /></g></g></g><g clip-path="url(#clip005)"><g transform="matrix(0.000656168,0,0,0.000656168,0,0)"><path d="M0,0 L4198112,0 L4198112,3383280 L0,3383280 Z" fill="#ffffff" fill-opacity="0" fill-rule="evenodd" /></g></g><g clip-path="url(#clip006)"><g transform="matrix(0.000656168,0,0,0.000656168,348,60)"><path d="M0,1806448 L3123184,1806448 M0,902208 L3123184,902208 M0,0 L3123184,0 " stroke-width="16933.33" stroke-linejoin="round" stroke-miterlimit="13.33333" stroke="#bababa" fill="none" fill-rule="nonzero" /></g></g><g clip-path="url(#clip007)"><g transform="matrix(0.000656168,0,0,0.000656168,348,60)"><path d="M28448,2243328 L138176,2243328 L138176,2243328 L138176,2708656 L138176,2708656 L28448,2708656 ZM193040,2141728 L302768,2141728 L302768,2141728 L302768,2708656 L302768,2708656 L193040,2708656 ZM357632,2245360 L467360,2245360 L467360,2245360 L467360,2708656 L467360,2708656 L357632,2708656 ZM520192,2308352 L629920,2308352 L629920,2308352 L629920,2708656 L629920,2708656 L520192,2708656 ZM684784,2241296 L794512,2241296 L794512,2241296 L794512,2708656 L794512,2708656 L684784,2708656 ZM849376,2247392 L959104,2247392 L959104,2247392 L959104,2708656 L959104,2708656 L849376,2708656 ZM1013968,2190496 L1123696,2190496 L1123696,2190496 L1123696,2708656 L1123696,2708656 L1013968,2708656 ZM1178560,1991360 L1288288,1991360 L1288288,1991360 L1288288,2708656 L1288288,2708656 L1178560,2708656 ZM1343152,1877568 L1452880,1877568 L1452880,1877568 L1452880,2708656 L1452880,2708656 L1343152,2708656 ZM1507744,1924304 L1617472,1924304 L1617472,1924304 L1617472,2708656 L1617472,2708656 L1507744,2708656 ZM1672336,1788160 L1782064,1788160 L1782064,1788160 L1782064,2708656 L1782064,2708656 L1672336,2708656 ZM1834896,1387856 L1944624,1387856 L1944624,1387856 L1944624,2708656 L1944624,2708656 L1834896,2708656 ZM1999488,1270000 L2109216,1270000 L2109216,1270000 L2109216,2708656 L2109216,2708656 L1999488,2708656 ZM2164080,1235456 L2273808,1235456 L2273808,1235456 L2273808,2708656 L2273808,2708656 L2164080,2708656 ZM2328672,1123696 L2438400,1123696 L2438400,1123696 L2438400,2708656 L2438400,2708656 L2328672,2708656 ZM2493264,906272 L2602992,906272 L2602992,906272 L2602992,2708656 L2602992,2708656 L2493264,2708656 ZM2657856,733552 L2767584,733552 L2767584,733552 L2767584,2708656 L2767584,2708656 L2657856,2708656 ZM2822448,451104 L2932176,451104 L2932176,451104 L2932176,2708656 L2932176,2708656 L2822448,2708656 ZM2987040,373888 L3096768,373888 L3096768,373888 L3096768,2708656 L3096768,2708656 L2987040,2708656 Z" fill="#012169" fill-rule="nonzero" /><path d="M28448,2243328 L138176,2243328 L138176,2243328 L138176,2708656 L138176,2708656 L28448,2708656 ZM193040,2141728 L302768,2141728 L302768,2141728 L302768,2708656 L302768,2708656 L193040,2708656 ZM357632,2245360 L467360,2245360 L467360,2245360 L467360,2708656 L467360,2708656 L357632,2708656 ZM520192,2308352 L629920,2308352 L629920,2308352 L629920,2708656 L629920,2708656 L520192,2708656 ZM684784,2241296 L794512,2241296 L794512,2241296 L794512,2708656 L794512,2708656 L684784,2708656 ZM849376,2247392 L959104,2247392 L959104,2247392 L959104,2708656 L959104,2708656 L849376,2708656 ZM1013968,2190496 L1123696,2190496 L1123696,2190496 L1123696,2708656 L1123696,2708656 L1013968,2708656 ZM1178560,1991360 L1288288,1991360 L1288288,1991360 L1288288,2708656 L1288288,2708656 L1178560,2708656 ZM1343152,1877568 L1452880,1877568 L1452880,1877568 L1452880,2708656 L1452880,2708656 L1343152,2708656 ZM1507744,1924304 L1617472,1924304 L1617472,1924304 L1617472,2708656 L1617472,2708656 L1507744,2708656 ZM1672336,1788160 L1782064,1788160 L1782064,1788160 L1782064,2708656 L1782064,2708656 L1672336,2708656 ZM1834896,1387856 L1944624,1387856 L1944624,1387856 L1944624,2708656 L1944624,2708656 L1834896,2708656 ZM1999488,1270000 L2109216,1270000 L2109216,1270000 L2109216,2708656 L2109216,2708656 L1999488,2708656 ZM2164080,1235456 L2273808,1235456 L2273808,1235456 L2273808,2708656 L2273808,2708656 L2164080,2708656 ZM2328672,1123696 L2438400,1123696 L2438400,1123696 L2438400,2708656 L2438400,2708656 L2328672,2708656 ZM2493264,906272 L2602992,906272 L2602992,906272 L2602992,2708656 L2602992,2708656 L2493264,2708656 ZM2657856,733552 L2767584,733552 L2767584,733552 L2767584,2708656 L2767584,2708656 L2657856,2708656 ZM2822448,451104 L2932176,451104 L2932176,451104 L2932176,2708656 L2932176,2708656 L2822448,2708656 ZM2987040,373888 L3096768,373888 L3096768,373888 L3096768,2708656 L3096768,2708656 L2987040,2708656 Z" stroke-width="8466.667" stroke-linejoin="round" stroke-miterlimit="13.33333" stroke="#ffffff" fill="none" fill-rule="nonzero" /></g></g><g clip-path="url(#clip008)"><g transform="matrix(0.000656168,0,0,0.000656168,348,1837.333)"><g><path d="M0.002891636,-6773.333 L3123184,-6772 " stroke-width="3386.667" stroke-linejoin="round" stroke-miterlimit="13.33333" stroke="#000000" fill="none" fill-rule="evenodd" /><path d="M-0.001445818,3386.667 L3123184,3388 " stroke-width="10160" stroke-linejoin="round" stroke-miterlimit="13.33333" stroke="#000000" fill="none" fill-rule="evenodd" /></g></g></g><g clip-path="url(#clip009)"><g transform="matrix(0.000656168,0,0,0.000656168,402,735.3333)"><path d="M0,741897.6 C54788.14,676533.9 109576.3,548767 164365.8,545809.3 L164365.8,545809.3 C219153.9,542850.2 273942.1,666091.8 328731.6,724149.8 L328731.6,724149.8 C383519.7,782206.5 438309.2,873908.3 493098.7,894154.8 L493098.7,894154.8 C547886.8,914400 602674.9,852050.1 657464.4,845622.3 L657464.4,845622.3 C712252.6,839193.3 767042.1,869597.8 821831.6,855586.8 L821831.6,855586.8 C876619.7,841576 931407.8,798157.2 986197.3,761557.1 L986197.3,761557.1 C1040986,724956.9 1095774,660053.6 1150563,635986.1 L1150563,635986.1 C1205351,611917.4 1260141,630892.5 1314930,617149.8 L1314930,617149.8 C1369718,603405.7 1424507,580461.6 1479296,553524.4 L1479296,553524.4 C1534084,526586 1588872,498684.3 1643662,455524.3 L1643662,455524.3 C1698450,412363 1753239,332873.8 1808029,294560.7 L1808029,294560.7 C1862817,256247.5 1917605,273410.9 1972395,225645.6 L1972395,225645.6 C2027183,177878.9 2081971,15922.67 2136761,7962 L2136761,7962 C2191549,0 2246338,129254.4 2301128,177878.9 L2301128,177878.9 C2355916,226502.1 2410704,244858.2 2465493,299702.3 L2465493,299702.3 C2520282,354545.2 2575071,472370.2 2629861,506939.8 L2629861,506939.8 C2684649,541508.1 2739437,497224.8 2794226,507113.3 L2794226,507113.3 C2849014,517001.7 2903803,546551.1 2958592,566270.6 " stroke-width="33866.67" stroke-linecap="round" stroke-linejoin="round" stroke-miterlimit="13.33333" stroke="#009cde" fill="none" fill-rule="nonzero" /></g></g><g><g clip-path="url(#clip010)"><g><g transform="translate(358.9729,1458.969)"><text><tspan x="0" y="0" font-family="Connections Cond Light,Arial Narrow" font-weight="normal" font-style="normal" font-size="89.33334" fill="#000000">31</tspan></text></g></g></g></g><g><g clip-path="url(#clip011)"><g><g transform="translate(466.8066,1393.537)"><text><tspan x="0" y="0" font-family="Connections Cond Light,Arial Narrow" font-weight="normal" font-style="normal" font-size="89.33334" fill="#000000">38</tspan></text></g></g></g></g><g><g clip-path="url(#clip012)"><g><g transform="translate(574.6395,1460.249)"><text><tspan x="0" y="0" font-family="Connections Cond Light,Arial Narrow" font-weight="normal" font-style="normal" font-size="89.33334" fill="#000000">31</tspan></text></g></g></g></g><g><g clip-path="url(#clip013)"><g><g transform="translate(682.4725,1502.356)"><text><tspan x="0" y="0" font-family="Connections Cond Light,Arial Narrow" font-weight="normal" font-style="normal" font-size="89.33334" fill="#000000">27</tspan></text></g></g></g></g><g><g clip-path="url(#clip014)"><g><g transform="translate(790.3062,1458.5)"><text><tspan x="0" y="0" font-family="Connections Cond Light,Arial Narrow" font-weight="normal" font-style="normal" font-size="89.33334" fill="#000000">31</tspan></text></g></g></g></g><g><g clip-path="url(#clip015)"><g><g transform="translate(898.1391,1462.766)"><text><tspan x="0" y="0" font-family="Connections Cond Light,Arial Narrow" font-weight="normal" font-style="normal" font-size="89.33334" fill="#000000">31</tspan></text></g></g></g></g><g><g clip-path="url(#clip016)"><g><g transform="translate(1005.972,1424.537)"><text><tspan x="0" y="0" font-family="Connections Cond Light,Arial Narrow" font-weight="normal" font-style="normal" font-size="89.33334" fill="#000000">35</tspan></text></g></g></g></g><g><g clip-path="url(#clip017)"><g><g transform="translate(1113.806,1294.264)"><text><tspan x="0" y="0" font-family="Connections Cond Light,Arial Narrow" font-weight="normal" font-style="normal" font-size="89.33334" fill="#000000">48</tspan></text></g></g></g></g><g><g clip-path="url(#clip018)"><g><g transform="translate(1221.639,1219.979)"><text><tspan x="0" y="0" font-family="Connections Cond Light,Arial Narrow" font-weight="normal" font-style="normal" font-size="89.33334" fill="#000000">55</tspan></text></g></g></g></g><g><g clip-path="url(#clip019)"><g><g transform="translate(1329.472,1249.591)"><text><tspan x="0" y="0" font-family="Connections Cond Light,Arial Narrow" font-weight="normal" font-style="normal" font-size="89.33334" fill="#000000">52</tspan></text></g></g></g></g><g><g clip-path="url(#clip020)"><g><g transform="translate(1437.305,1161.539)"><text><tspan x="0" y="0" font-family="Connections Cond Light,Arial Narrow" font-weight="normal" font-style="normal" font-size="89.33334" fill="#000000">61</tspan></text></g></g></g></g><g><g clip-path="url(#clip021)"><g><g transform="translate(1545.138,898.0547)"><text><tspan x="0" y="0" font-family="Connections Cond Light,Arial Narrow" font-weight="normal" font-style="normal" font-size="89.33334" fill="#000000">88</tspan></text></g></g></g></g><g><g clip-path="url(#clip022)"><g><g transform="translate(1652.972,820.325)"><text><tspan x="0" y="0" font-family="Connections Cond Light,Arial Narrow" font-weight="normal" font-style="normal" font-size="89.33334" fill="#000000">96</tspan></text></g></g></g></g><g><g clip-path="url(#clip023)"><g><g transform="translate(1760.805,798.6382)"><text><tspan x="0" y="0" font-family="Connections Cond Light,Arial Narrow" font-weight="normal" font-style="normal" font-size="89.33334" fill="#000000">98</tspan></text></g></g></g></g><g><g clip-path="url(#clip024)"><g><g transform="translate(1847.305,725.2805)"><text><tspan x="0" y="0" font-family="Connections Cond Light,Arial Narrow" font-weight="normal" font-style="normal" font-size="89.33334" fill="#000000">105</tspan></text></g></g></g></g><g><g clip-path="url(#clip025)"><g><g transform="translate(1955.138,582.8018)"><text><tspan x="0" y="0" font-family="Connections Cond Light,Arial Narrow" font-weight="normal" font-style="normal" font-size="89.33334" fill="#000000">120</tspan></text></g></g></g></g><g><g clip-path="url(#clip026)"><g><g transform="translate(2062.971,468.5481)"><text><tspan x="0" y="0" font-family="Connections Cond Light,Arial Narrow" font-weight="normal" font-style="normal" font-size="89.33334" fill="#000000">131</tspan></text></g></g></g></g><g><g clip-path="url(#clip027)"><g><g transform="translate(2170.804,283.4816)"><text><tspan x="0" y="0" font-family="Connections Cond Light,Arial Narrow" font-weight="normal" font-style="normal" font-size="89.33334" fill="#000000">150</tspan></text></g></g></g></g><g><g clip-path="url(#clip028)"><g><g transform="translate(2278.638,232.9103)"><text><tspan x="0" y="0" font-family="Connections Cond Light,Arial Narrow" font-weight="normal" font-style="normal" font-size="89.33334" fill="#000000">155</tspan></text></g></g></g></g><g><g clip-path="url(#clip029)"><g><g transform="translate(2488.666,1867.436)"><text><tspan x="0" y="0" font-family="Connections Cond Light,Arial Narrow" font-weight="normal" font-style="normal" font-size="105.3333" fill="#000000">0.0%</tspan></text></g></g></g></g><g><g clip-path="url(#clip030)"><g><g transform="translate(2488.666,1274.856)"><text><tspan x="0" y="0" font-family="Connections Cond Light,Arial Narrow" font-weight="normal" font-style="normal" font-size="105.3333" fill="#000000">10.0%</tspan></text></g></g></g></g><g><g clip-path="url(#clip031)"><g><g transform="translate(2488.666,682.2747)"><text><tspan x="0" y="0" font-family="Connections Cond Light,Arial Narrow" font-weight="normal" font-style="normal" font-size="105.3333" fill="#000000">20.0%</tspan></text></g></g></g></g><g><g clip-path="url(#clip032)"><g><g transform="translate(2488.666,89.69466)"><text><tspan x="0" y="0" font-family="Connections Cond Light,Arial Narrow" font-weight="normal" font-style="normal" font-size="105.3333" fill="#000000">30.0%</tspan></text></g></g></g></g><g><g clip-path="url(#clip033)"><g><g transform="translate(118,1867.436)"><text><tspan x="0" y="0" font-family="Connections Cond Light,Arial Narrow" font-weight="normal" font-style="normal" font-size="105.3333" fill="#000000" style="white-space: pre"> $0</tspan></text></g></g></g></g><g><g clip-path="url(#clip034)"><g><g transform="translate(67.33334,1274.856)"><text><tspan x="0" y="0" font-family="Connections Cond Light,Arial Narrow" font-weight="normal" font-style="normal" font-size="105.3333" fill="#000000" style="white-space: pre"> $60</tspan></text></g></g></g></g><g><g clip-path="url(#clip035)"><g><g transform="translate(16.66667,682.2747)"><text><tspan x="0" y="0" font-family="Connections Cond Light,Arial Narrow" font-weight="normal" font-style="normal" font-size="105.3333" fill="#000000" style="white-space: pre"> $120</tspan></text></g></g></g></g><g><g clip-path="url(#clip036)"><g><g transform="translate(16.66667,89.69466)"><text><tspan x="0" y="0" font-family="Connections Cond Light,Arial Narrow" font-weight="normal" font-style="normal" font-size="105.3333" fill="#000000" style="white-space: pre"> $180</tspan></text></g></g></g></g><g clip-path="url(#clip037)"><g transform="translate(282.6425,2109.656) rotate(-45)"><path d="M44.44408,-0.006583333 L44.44408,-5.049439 L44.44408,-5.049439 C39.01475,-5.045049 33.53687,-5.02749 28.01044,-4.996762 L28.01044,-4.996762 C22.484,-4.966034 16.9765,-4.948474 11.48792,-4.944083 L11.48792,-4.944083 C11.50547,-5.049439 11.47036,-5.154795 11.38258,-5.260151 L11.38258,-5.260151 C13.86361,-7.418025 16.80732,-10.33891 20.21371,-14.02279 L20.21371,-14.02279 C23.62011,-17.70668 26.98104,-21.84903 30.2965,-26.44984 L30.2965,-26.44984 C33.61197,-31.05065 36.37381,-35.80539 38.58204,-40.71404 L38.58204,-40.71404 C40.79026,-45.62268 41.93673,-50.38071 42.02142,-54.9881 L42.02142,-54.9881 C41.9298,-61.32421 40.22033,-65.95305 36.893,-68.87461 L36.893,-68.87461 C33.56567,-71.79618 29.1702,-73.238 23.70658,-73.20008 L23.70658,-73.20008 C20.91525,-73.2418 17.80792,-72.73819 14.38458,-71.68928 L14.38458,-71.68928 C10.96125,-70.64035 7.537917,-68.79588 4.114583,-66.15583 L4.114583,-66.15583 C4.974806,-64.89156 5.782361,-63.62729 6.53725,-62.36302 L6.53725,-62.36302 C9.670917,-64.54913 12.62025,-66.10307 15.38525,-67.02482 L15.38525,-67.02482 C18.15025,-67.94657 20.57292,-68.39428 22.65325,-68.36791 L22.65325,-68.36791 C26.84683,-68.39866 30.099,-67.36272 32.40975,-65.26011 L32.40975,-65.26011 C34.7205,-63.15749 35.89233,-59.80373 35.92525,-55.19882 L35.92525,-55.19882 C35.75628,-47.46831 32.74989,-39.2506 26.90608,-30.54567 L26.90608,-30.54567 C21.06228,-21.84074 13.39489,-13.20183 3.903917,-4.628945 L3.903917,-4.628945 L3.903917,-0.006583333 ZM97.74408,-35.70768 C97.78606,-39.32258 97.59042,-43.26607 97.15717,-47.53814 L97.15717,-47.53814 C96.72392,-51.81021 95.80116,-55.89769 94.38889,-59.8006 L94.38889,-59.8006 C92.97662,-63.7035 90.82296,-66.90865 87.92789,-69.41604 L87.92789,-69.41604 C85.03284,-71.92343 81.1445,-73.21989 76.26288,-73.30541 L76.26288,-73.30541 C71.50425,-73.22977 67.65114,-71.98598 64.70353,-69.57407 L64.70353,-69.57407 C61.75593,-67.16216 59.50955,-64.03603 57.96439,-60.19568 L57.96439,-60.19568 C56.41924,-56.35533 55.37102,-52.25467 54.81975,-47.89371 L54.81975,-47.89371 C54.26848,-43.53274 54.00987,-39.36538 54.04391,-35.39162 L54.04391,-35.39162 C53.95738,-29.2741 54.42244,-23.48344 55.43909,-18.01964 L55.43909,-18.01964 C56.45575,-12.55585 58.54324,-8.092916 61.70156,-4.63085 L61.70156,-4.63085 C64.85989,-1.168785 69.60828,0.6184154 75.94674,0.73075 L75.94674,0.73075 C81.91985,0.5872003 86.48782,-1.33657 89.65063,-5.04056 L89.65063,-5.04056 C92.81344,-8.74455 94.96966,-13.36746 96.11929,-18.9093 L96.11929,-18.9093 C97.26891,-24.45114 97.81052,-30.0506 97.74408,-35.70768 ZM91.64792,-35.39162 C91.6941,-30.3951 91.30903,-25.52149 90.49271,-20.7708 L90.49271,-20.7708 C89.67638,-16.0201 88.15168,-12.08298 85.9186,-8.959417 L85.9186,-8.959417 C83.68552,-5.83586 80.46695,-4.216527 76.26288,-4.101417 L76.26288,-4.101417 C71.62103,-4.190512 68.15395,-5.697989 65.86165,-8.623844 L65.86165,-8.623844 C63.56934,-11.5497 62.06152,-15.35936 61.33818,-20.05283 L61.33818,-20.05283 C60.61485,-24.74629 60.2857,-29.78899 60.35075,-35.18092 L60.35075,-35.18092 C60.31672,-38.2126 60.44405,-41.61139 60.73275,-45.37729 L60.73275,-45.37729 C61.02144,-49.14319 61.67566,-52.78563 62.69542,-56.30463 L62.69542,-56.30463 C63.71517,-59.82362 65.30463,-62.72859 67.46379,-65.01952 L67.46379,-65.01952 C69.62295,-67.31047 72.55598,-68.49682 76.26288,-68.57858 L76.26288,-68.57858 C80.01807,-68.48722 82.95329,-67.24764 85.06853,-64.85985 L85.06853,-64.85985 C87.18375,-62.47205 88.70953,-59.48424 89.64584,-55.89638 L89.64584,-55.89638 C90.58213,-52.30852 91.15949,-48.66882 91.37791,-44.97728 L91.37791,-44.97728 C91.59634,-41.28572 91.68633,-38.0905 91.64792,-35.39162 ZM126.0932,-0.006581726 L131.8734,-0.006581726 L131.8734,-0.006581726 L131.8734,-72.04142 L131.8734,-72.04142 L126.1983,-72.04142 L126.1983,-72.04142 L111.8732,-68.3554 L111.8732,-68.3554 L111.8732,-64.24815 L111.8732,-64.24815 L126.0932,-65.82786 ZM199.0774,-35.70768 C199.1194,-39.32258 198.9238,-43.26607 198.4905,-47.53814 L198.4905,-47.53814 C198.0573,-51.81021 197.1345,-55.89769 195.7222,-59.8006 L195.7222,-59.8006 C194.31,-63.7035 192.1563,-66.90865 189.2612,-69.41604 L189.2612,-69.41604 C186.3662,-71.92343 182.4778,-73.21989 177.5962,-73.30541 L177.5962,-73.30541 C172.8376,-73.22977 168.9845,-71.98598 166.0369,-69.57407 L166.0369,-69.57407 C163.0893,-67.16216 160.8429,-64.03603 159.2977,-60.19568 L159.2977,-60.19568 C157.7526,-56.35533 156.7044,-52.25467 156.1531,-47.89371 L156.1531,-47.89371 C155.6018,-43.53274 155.3432,-39.36538 155.3772,-35.39162 L155.3772,-35.39162 C155.2907,-29.2741 155.7558,-23.48344 156.7724,-18.01964 L156.7724,-18.01964 C157.7891,-12.55585 159.8766,-8.092916 163.0349,-4.63085 L163.0349,-4.63085 C166.1932,-1.168785 170.9416,0.6184154 177.2801,0.73075 L177.2801,0.73075 C183.2532,0.5872003 187.8212,-1.33657 190.984,-5.04056 L190.984,-5.04056 C194.1468,-8.74455 196.303,-13.36746 197.4526,-18.9093 L197.4526,-18.9093 C198.6022,-24.45114 199.1438,-30.0506 199.0774,-35.70768 ZM192.9812,-35.39162 C193.0274,-30.3951 192.6424,-25.52149 191.826,-20.7708 L191.826,-20.7708 C191.0097,-16.0201 189.485,-12.08298 187.2519,-8.959417 L187.2519,-8.959417 C185.0189,-5.83586 181.8003,-4.216527 177.5962,-4.101417 L177.5962,-4.101417 C172.9544,-4.190512 169.4873,-5.697989 167.195,-8.623844 L167.195,-8.623844 C164.9027,-11.5497 163.3949,-15.35936 162.6715,-20.05283 L162.6715,-20.05283 C161.9482,-24.74629 161.619,-29.78899 161.6841,-35.18092 L161.6841,-35.18092 C161.6501,-38.2126 161.7774,-41.61139 162.0661,-45.37729 L162.0661,-45.37729 C162.3548,-49.14319 163.009,-52.78563 164.0287,-56.30463 L164.0287,-56.30463 C165.0485,-59.82362 166.638,-62.72859 168.7971,-65.01952 L168.7971,-65.01952 C170.9563,-67.31047 173.8893,-68.49682 177.5962,-68.57858 L177.5962,-68.57858 C181.3514,-68.48722 184.2866,-67.24764 186.4019,-64.85985 L186.4019,-64.85985 C188.5171,-62.47205 190.0429,-59.48424 190.9792,-55.89638 L190.9792,-55.89638 C191.9155,-52.30852 192.4928,-48.66882 192.7112,-44.97728 L192.7112,-44.97728 C192.9297,-41.28572 193.0197,-38.0905 192.9812,-35.39162 Z" fill="#000000" fill-rule="nonzero" /></g></g><g clip-path="url(#clip038)"><g transform="translate(498.3083,2109.656) rotate(-45)"><path d="M44.44408,-0.006583333 L44.44408,-5.049439 L44.44408,-5.049439 C39.01475,-5.045049 33.53687,-5.02749 28.01044,-4.996762 L28.01044,-4.996762 C22.484,-4.966034 16.9765,-4.948474 11.48792,-4.944083 L11.48792,-4.944083 C11.50547,-5.049439 11.47036,-5.154795 11.38258,-5.260151 L11.38258,-5.260151 C13.86361,-7.418025 16.80732,-10.33891 20.21371,-14.02279 L20.21371,-14.02279 C23.62011,-17.70668 26.98104,-21.84903 30.2965,-26.44984 L30.2965,-26.44984 C33.61197,-31.05065 36.37381,-35.80539 38.58204,-40.71404 L38.58204,-40.71404 C40.79026,-45.62268 41.93673,-50.38071 42.02142,-54.9881 L42.02142,-54.9881 C41.9298,-61.32421 40.22033,-65.95305 36.893,-68.87461 L36.893,-68.87461 C33.56567,-71.79618 29.1702,-73.238 23.70658,-73.20008 L23.70658,-73.20008 C20.91525,-73.2418 17.80792,-72.73819 14.38458,-71.68928 L14.38458,-71.68928 C10.96125,-70.64035 7.537917,-68.79588 4.114583,-66.15583 L4.114583,-66.15583 C4.974806,-64.89156 5.782361,-63.62729 6.53725,-62.36302 L6.53725,-62.36302 C9.670917,-64.54913 12.62025,-66.10307 15.38525,-67.02482 L15.38525,-67.02482 C18.15025,-67.94657 20.57292,-68.39428 22.65325,-68.36791 L22.65325,-68.36791 C26.84683,-68.39866 30.099,-67.36272 32.40975,-65.26011 L32.40975,-65.26011 C34.7205,-63.15749 35.89233,-59.80373 35.92525,-55.19882 L35.92525,-55.19882 C35.75628,-47.46831 32.74989,-39.2506 26.90608,-30.54567 L26.90608,-30.54567 C21.06228,-21.84074 13.39489,-13.20183 3.903917,-4.628945 L3.903917,-4.628945 L3.903917,-0.006583333 ZM97.74408,-35.70768 C97.78606,-39.32258 97.59042,-43.26607 97.15717,-47.53814 L97.15717,-47.53814 C96.72392,-51.81021 95.80116,-55.89769 94.38889,-59.8006 L94.38889,-59.8006 C92.97662,-63.7035 90.82296,-66.90865 87.92789,-69.41604 L87.92789,-69.41604 C85.03284,-71.92343 81.1445,-73.21989 76.26288,-73.30541 L76.26288,-73.30541 C71.50425,-73.22977 67.65114,-71.98598 64.70353,-69.57407 L64.70353,-69.57407 C61.75593,-67.16216 59.50955,-64.03603 57.96439,-60.19568 L57.96439,-60.19568 C56.41924,-56.35533 55.37102,-52.25467 54.81975,-47.89371 L54.81975,-47.89371 C54.26848,-43.53274 54.00987,-39.36538 54.04391,-35.39162 L54.04391,-35.39162 C53.95738,-29.2741 54.42244,-23.48344 55.43909,-18.01964 L55.43909,-18.01964 C56.45575,-12.55585 58.54324,-8.092916 61.70156,-4.63085 L61.70156,-4.63085 C64.85989,-1.168785 69.60828,0.6184154 75.94674,0.73075 L75.94674,0.73075 C81.91985,0.5872003 86.48782,-1.33657 89.65063,-5.04056 L89.65063,-5.04056 C92.81344,-8.74455 94.96966,-13.36746 96.11929,-18.9093 L96.11929,-18.9093 C97.26891,-24.45114 97.81052,-30.0506 97.74408,-35.70768 ZM91.64792,-35.39162 C91.6941,-30.3951 91.30903,-25.52149 90.49271,-20.7708 L90.49271,-20.7708 C89.67638,-16.0201 88.15168,-12.08298 85.9186,-8.959417 L85.9186,-8.959417 C83.68552,-5.83586 80.46695,-4.216527 76.26288,-4.101417 L76.26288,-4.101417 C71.62103,-4.190512 68.15395,-5.697989 65.86165,-8.623844 L65.86165,-8.623844 C63.56934,-11.5497 62.06152,-15.35936 61.33818,-20.05283 L61.33818,-20.05283 C60.61485,-24.74629 60.2857,-29.78899 60.35075,-35.18092 L60.35075,-35.18092 C60.31672,-38.2126 60.44405,-41.61139 60.73275,-45.37729 L60.73275,-45.37729 C61.02144,-49.14319 61.67566,-52.78563 62.69542,-56.30463 L62.69542,-56.30463 C63.71517,-59.82362 65.30463,-62.72859 67.46379,-65.01952 L67.46379,-65.01952 C69.62295,-67.31047 72.55598,-68.49682 76.26288,-68.57858 L76.26288,-68.57858 C80.01807,-68.48722 82.95329,-67.24764 85.06853,-64.85985 L85.06853,-64.85985 C87.18375,-62.47205 88.70953,-59.48424 89.64584,-55.89638 L89.64584,-55.89638 C90.58213,-52.30852 91.15949,-48.66882 91.37791,-44.97728 L91.37791,-44.97728 C91.59634,-41.28572 91.68633,-38.0905 91.64792,-35.39162 ZM126.0932,-0.006581726 L131.8734,-0.006581726 L131.8734,-0.006581726 L131.8734,-72.04142 L131.8734,-72.04142 L126.1983,-72.04142 L126.1983,-72.04142 L111.8732,-68.3554 L111.8732,-68.3554 L111.8732,-64.24815 L111.8732,-64.24815 L126.0932,-65.82786 ZM196.4441,-0.006583333 L196.4441,-5.049439 L196.4441,-5.049439 C191.0148,-5.045049 185.5369,-5.02749 180.0104,-4.996762 L180.0104,-4.996762 C174.484,-4.966034 168.9765,-4.948474 163.4879,-4.944083 L163.4879,-4.944083 C163.5055,-5.049439 163.4704,-5.154795 163.3826,-5.260151 L163.3826,-5.260151 C165.8636,-7.418025 168.8073,-10.33891 172.2137,-14.02279 L172.2137,-14.02279 C175.6201,-17.70668 178.981,-21.84903 182.2965,-26.44984 L182.2965,-26.44984 C185.612,-31.05065 188.3738,-35.80539 190.582,-40.71404 L190.582,-40.71404 C192.7903,-45.62268 193.9367,-50.38071 194.0214,-54.9881 L194.0214,-54.9881 C193.9298,-61.32421 192.2203,-65.95305 188.893,-68.87461 L188.893,-68.87461 C185.5657,-71.79618 181.1702,-73.238 175.7066,-73.20008 L175.7066,-73.20008 C172.9152,-73.2418 169.8079,-72.73819 166.3846,-71.68928 L166.3846,-71.68928 C162.9613,-70.64035 159.5379,-68.79588 156.1146,-66.15583 L156.1146,-66.15583 C156.9748,-64.89156 157.7824,-63.62729 158.5372,-62.36302 L158.5372,-62.36302 C161.6709,-64.54913 164.6203,-66.10307 167.3853,-67.02482 L167.3853,-67.02482 C170.1503,-67.94657 172.5729,-68.39428 174.6532,-68.36791 L174.6532,-68.36791 C178.8468,-68.39866 182.099,-67.36272 184.4097,-65.26011 L184.4097,-65.26011 C186.7205,-63.15749 187.8923,-59.80373 187.9252,-55.19882 L187.9252,-55.19882 C187.7563,-47.46831 184.7499,-39.2506 178.9061,-30.54567 L178.9061,-30.54567 C173.0623,-21.84074 165.3949,-13.20183 155.9039,-4.628945 L155.9039,-4.628945 L155.9039,-0.006583333 Z" fill="#000000" fill-rule="nonzero" /></g></g><g clip-path="url(#clip039)"><g transform="translate(713.975,2109.656) rotate(-45)"><path d="M44.44408,-0.006583333 L44.44408,-5.049439 L44.44408,-5.049439 C39.01475,-5.045049 33.53687,-5.02749 28.01044,-4.996762 L28.01044,-4.996762 C22.484,-4.966034 16.9765,-4.948474 11.48792,-4.944083 L11.48792,-4.944083 C11.50547,-5.049439 11.47036,-5.154795 11.38258,-5.260151 L11.38258,-5.260151 C13.86361,-7.418025 16.80732,-10.33891 20.21371,-14.02279 L20.21371,-14.02279 C23.62011,-17.70668 26.98104,-21.84903 30.2965,-26.44984 L30.2965,-26.44984 C33.61197,-31.05065 36.37381,-35.80539 38.58204,-40.71404 L38.58204,-40.71404 C40.79026,-45.62268 41.93673,-50.38071 42.02142,-54.9881 L42.02142,-54.9881 C41.9298,-61.32421 40.22033,-65.95305 36.893,-68.87461 L36.893,-68.87461 C33.56567,-71.79618 29.1702,-73.238 23.70658,-73.20008 L23.70658,-73.20008 C20.91525,-73.2418 17.80792,-72.73819 14.38458,-71.68928 L14.38458,-71.68928 C10.96125,-70.64035 7.537917,-68.79588 4.114583,-66.15583 L4.114583,-66.15583 C4.974806,-64.89156 5.782361,-63.62729 6.53725,-62.36302 L6.53725,-62.36302 C9.670917,-64.54913 12.62025,-66.10307 15.38525,-67.02482 L15.38525,-67.02482 C18.15025,-67.94657 20.57292,-68.39428 22.65325,-68.36791 L22.65325,-68.36791 C26.84683,-68.39866 30.099,-67.36272 32.40975,-65.26011 L32.40975,-65.26011 C34.7205,-63.15749 35.89233,-59.80373 35.92525,-55.19882 L35.92525,-55.19882 C35.75628,-47.46831 32.74989,-39.2506 26.90608,-30.54567 L26.90608,-30.54567 C21.06228,-21.84074 13.39489,-13.20183 3.903917,-4.628945 L3.903917,-4.628945 L3.903917,-0.006583333 ZM97.74408,-35.70768 C97.78606,-39.32258 97.59042,-43.26607 97.15717,-47.53814 L97.15717,-47.53814 C96.72392,-51.81021 95.80116,-55.89769 94.38889,-59.8006 L94.38889,-59.8006 C92.97662,-63.7035 90.82296,-66.90865 87.92789,-69.41604 L87.92789,-69.41604 C85.03284,-71.92343 81.1445,-73.21989 76.26288,-73.30541 L76.26288,-73.30541 C71.50425,-73.22977 67.65114,-71.98598 64.70353,-69.57407 L64.70353,-69.57407 C61.75593,-67.16216 59.50955,-64.03603 57.96439,-60.19568 L57.96439,-60.19568 C56.41924,-56.35533 55.37102,-52.25467 54.81975,-47.89371 L54.81975,-47.89371 C54.26848,-43.53274 54.00987,-39.36538 54.04391,-35.39162 L54.04391,-35.39162 C53.95738,-29.2741 54.42244,-23.48344 55.43909,-18.01964 L55.43909,-18.01964 C56.45575,-12.55585 58.54324,-8.092916 61.70156,-4.63085 L61.70156,-4.63085 C64.85989,-1.168785 69.60828,0.6184154 75.94674,0.73075 L75.94674,0.73075 C81.91985,0.5872003 86.48782,-1.33657 89.65063,-5.04056 L89.65063,-5.04056 C92.81344,-8.74455 94.96966,-13.36746 96.11929,-18.9093 L96.11929,-18.9093 C97.26891,-24.45114 97.81052,-30.0506 97.74408,-35.70768 ZM91.64792,-35.39162 C91.6941,-30.3951 91.30903,-25.52149 90.49271,-20.7708 L90.49271,-20.7708 C89.67638,-16.0201 88.15168,-12.08298 85.9186,-8.959417 L85.9186,-8.959417 C83.68552,-5.83586 80.46695,-4.216527 76.26288,-4.101417 L76.26288,-4.101417 C71.62103,-4.190512 68.15395,-5.697989 65.86165,-8.623844 L65.86165,-8.623844 C63.56934,-11.5497 62.06152,-15.35936 61.33818,-20.05283 L61.33818,-20.05283 C60.61485,-24.74629 60.2857,-29.78899 60.35075,-35.18092 L60.35075,-35.18092 C60.31672,-38.2126 60.44405,-41.61139 60.73275,-45.37729 L60.73275,-45.37729 C61.02144,-49.14319 61.67566,-52.78563 62.69542,-56.30463 L62.69542,-56.30463 C63.71517,-59.82362 65.30463,-62.72859 67.46379,-65.01952 L67.46379,-65.01952 C69.62295,-67.31047 72.55598,-68.49682 76.26288,-68.57858 L76.26288,-68.57858 C80.01807,-68.48722 82.95329,-67.24764 85.06853,-64.85985 L85.06853,-64.85985 C87.18375,-62.47205 88.70953,-59.48424 89.64584,-55.89638 L89.64584,-55.89638 C90.58213,-52.30852 91.15949,-48.66882 91.37791,-44.97728 L91.37791,-44.97728 C91.59634,-41.28572 91.68633,-38.0905 91.64792,-35.39162 ZM126.0932,-0.006581726 L131.8734,-0.006581726 L131.8734,-0.006581726 L131.8734,-72.04142 L131.8734,-72.04142 L126.1983,-72.04142 L126.1983,-72.04142 L111.8732,-68.3554 L111.8732,-68.3554 L111.8732,-64.24815 L111.8732,-64.24815 L126.0932,-65.82786 ZM185.1863,-72.04142 L155.0612,-24.53609 L155.0612,-24.53609 L155.0612,-19.80925 L155.0612,-19.80925 L184.9759,-19.80925 L184.9759,-19.80925 L184.9759,-0.006581726 L184.9759,-0.006581726 L190.5454,-0.006581726 L190.5454,-0.006581726 C190.541,-3.27411 190.5235,-6.561388 190.4928,-9.868416 L190.4928,-9.868416 C190.462,-13.17544 190.4445,-16.48906 190.4401,-19.80925 L190.4401,-19.80925 L199.4988,-19.80925 L199.4988,-19.80925 L199.4988,-24.43075 L199.4988,-24.43075 L190.4401,-24.43075 L190.4401,-24.43075 L190.4401,-72.04142 ZM185.0813,-62.35075 L185.0813,-24.43075 L185.0813,-24.43075 L160.5386,-24.43075 L160.5386,-24.43075 L184.6599,-62.35075 Z" fill="#000000" fill-rule="nonzero" /></g></g><g clip-path="url(#clip040)"><g transform="translate(929.6417,2109.656) rotate(-45)"><path d="M44.44408,-0.006583333 L44.44408,-5.049439 L44.44408,-5.049439 C39.01475,-5.045049 33.53687,-5.02749 28.01044,-4.996762 L28.01044,-4.996762 C22.484,-4.966034 16.9765,-4.948474 11.48792,-4.944083 L11.48792,-4.944083 C11.50547,-5.049439 11.47036,-5.154795 11.38258,-5.260151 L11.38258,-5.260151 C13.86361,-7.418025 16.80732,-10.33891 20.21371,-14.02279 L20.21371,-14.02279 C23.62011,-17.70668 26.98104,-21.84903 30.2965,-26.44984 L30.2965,-26.44984 C33.61197,-31.05065 36.37381,-35.80539 38.58204,-40.71404 L38.58204,-40.71404 C40.79026,-45.62268 41.93673,-50.38071 42.02142,-54.9881 L42.02142,-54.9881 C41.9298,-61.32421 40.22033,-65.95305 36.893,-68.87461 L36.893,-68.87461 C33.56567,-71.79618 29.1702,-73.238 23.70658,-73.20008 L23.70658,-73.20008 C20.91525,-73.2418 17.80792,-72.73819 14.38458,-71.68928 L14.38458,-71.68928 C10.96125,-70.64035 7.537917,-68.79588 4.114583,-66.15583 L4.114583,-66.15583 C4.974806,-64.89156 5.782361,-63.62729 6.53725,-62.36302 L6.53725,-62.36302 C9.670917,-64.54913 12.62025,-66.10307 15.38525,-67.02482 L15.38525,-67.02482 C18.15025,-67.94657 20.57292,-68.39428 22.65325,-68.36791 L22.65325,-68.36791 C26.84683,-68.39866 30.099,-67.36272 32.40975,-65.26011 L32.40975,-65.26011 C34.7205,-63.15749 35.89233,-59.80373 35.92525,-55.19882 L35.92525,-55.19882 C35.75628,-47.46831 32.74989,-39.2506 26.90608,-30.54567 L26.90608,-30.54567 C21.06228,-21.84074 13.39489,-13.20183 3.903917,-4.628945 L3.903917,-4.628945 L3.903917,-0.006583333 ZM97.74408,-35.70768 C97.78606,-39.32258 97.59042,-43.26607 97.15717,-47.53814 L97.15717,-47.53814 C96.72392,-51.81021 95.80116,-55.89769 94.38889,-59.8006 L94.38889,-59.8006 C92.97662,-63.7035 90.82296,-66.90865 87.92789,-69.41604 L87.92789,-69.41604 C85.03284,-71.92343 81.1445,-73.21989 76.26288,-73.30541 L76.26288,-73.30541 C71.50425,-73.22977 67.65114,-71.98598 64.70353,-69.57407 L64.70353,-69.57407 C61.75593,-67.16216 59.50955,-64.03603 57.96439,-60.19568 L57.96439,-60.19568 C56.41924,-56.35533 55.37102,-52.25467 54.81975,-47.89371 L54.81975,-47.89371 C54.26848,-43.53274 54.00987,-39.36538 54.04391,-35.39162 L54.04391,-35.39162 C53.95738,-29.2741 54.42244,-23.48344 55.43909,-18.01964 L55.43909,-18.01964 C56.45575,-12.55585 58.54324,-8.092916 61.70156,-4.63085 L61.70156,-4.63085 C64.85989,-1.168785 69.60828,0.6184154 75.94674,0.73075 L75.94674,0.73075 C81.91985,0.5872003 86.48782,-1.33657 89.65063,-5.04056 L89.65063,-5.04056 C92.81344,-8.74455 94.96966,-13.36746 96.11929,-18.9093 L96.11929,-18.9093 C97.26891,-24.45114 97.81052,-30.0506 97.74408,-35.70768 ZM91.64792,-35.39162 C91.6941,-30.3951 91.30903,-25.52149 90.49271,-20.7708 L90.49271,-20.7708 C89.67638,-16.0201 88.15168,-12.08298 85.9186,-8.959417 L85.9186,-8.959417 C83.68552,-5.83586 80.46695,-4.216527 76.26288,-4.101417 L76.26288,-4.101417 C71.62103,-4.190512 68.15395,-5.697989 65.86165,-8.623844 L65.86165,-8.623844 C63.56934,-11.5497 62.06152,-15.35936 61.33818,-20.05283 L61.33818,-20.05283 C60.61485,-24.74629 60.2857,-29.78899 60.35075,-35.18092 L60.35075,-35.18092 C60.31672,-38.2126 60.44405,-41.61139 60.73275,-45.37729 L60.73275,-45.37729 C61.02144,-49.14319 61.67566,-52.78563 62.69542,-56.30463 L62.69542,-56.30463 C63.71517,-59.82362 65.30463,-62.72859 67.46379,-65.01952 L67.46379,-65.01952 C69.62295,-67.31047 72.55598,-68.49682 76.26288,-68.57858 L76.26288,-68.57858 C80.01807,-68.48722 82.95329,-67.24764 85.06853,-64.85985 L85.06853,-64.85985 C87.18375,-62.47205 88.70953,-59.48424 89.64584,-55.89638 L89.64584,-55.89638 C90.58213,-52.30852 91.15949,-48.66882 91.37791,-44.97728 L91.37791,-44.97728 C91.59634,-41.28572 91.68633,-38.0905 91.64792,-35.39162 ZM126.0932,-0.006581726 L131.8734,-0.006581726 L131.8734,-0.006581726 L131.8734,-72.04142 L131.8734,-72.04142 L126.1983,-72.04142 L126.1983,-72.04142 L111.8732,-68.3554 L111.8732,-68.3554 L111.8732,-64.24815 L111.8732,-64.24815 L126.0932,-65.82786 ZM180.5467,-73.20008 C175.1374,-73.14032 170.6309,-71.4114 167.0271,-68.01331 L167.0271,-68.01331 C163.4233,-64.61523 160.7211,-59.90655 158.9205,-53.88728 L158.9205,-53.88728 C157.1199,-47.86801 156.2197,-40.89672 156.2199,-32.9734 L156.2199,-32.9734 C156.1541,-27.01747 156.6828,-21.49778 157.8058,-16.41435 L157.8058,-16.41435 C158.9288,-11.33091 161.0409,-7.225096 164.142,-4.096895 L164.142,-4.096895 C167.243,-0.9686932 171.7277,0.6405217 177.5961,0.73075 L177.5961,0.73075 C184.2234,0.6325828 189.3273,-1.48555 192.9078,-5.623648 L192.9078,-5.623648 C196.4883,-9.761746 198.299,-15.33081 198.3401,-22.33083 L198.3401,-22.33083 C198.1717,-30.25945 196.2468,-35.94706 192.5653,-39.39366 L192.5653,-39.39366 C188.8838,-42.84026 184.4561,-44.52373 179.2822,-44.44408 L179.2822,-44.44408 C175.8397,-44.40256 172.7925,-43.85536 170.1405,-42.80249 L170.1405,-42.80249 C167.4884,-41.74961 165.0207,-40.44019 162.7375,-38.87423 L162.7375,-38.87423 L162.4216,-39.19034 L162.4216,-39.19034 C162.4948,-41.50805 162.7763,-44.28525 163.2662,-47.52193 L163.2662,-47.52193 C163.756,-50.75861 164.6467,-53.96214 165.9385,-57.13254 L165.9385,-57.13254 C167.2302,-60.30294 169.1155,-62.94757 171.5944,-65.06645 L171.5944,-65.06645 C174.0733,-67.18533 177.3384,-68.28581 181.3898,-68.36791 L181.3898,-68.36791 C183.3196,-68.35255 185.2822,-68.1198 187.2777,-67.66969 L187.2777,-67.66969 C189.2732,-67.21957 191.1038,-66.64429 192.7695,-65.94389 L192.7695,-65.94389 L194.4512,-70.25877 L194.4512,-70.25877 C193.0774,-70.97878 191.2217,-71.6397 188.8842,-72.24153 L188.8842,-72.24153 C186.5467,-72.84336 183.7675,-73.16288 180.5467,-73.20008 ZM192.2439,-21.90935 C192.3273,-16.87125 191.3174,-12.6432 189.2142,-9.225204 L189.2142,-9.225204 C187.111,-5.807203 183.4139,-4.029051 178.123,-3.89075 L178.123,-3.89075 C173.5513,-4.010432 170.1427,-5.480435 167.8972,-8.30076 L167.8972,-8.30076 C165.6517,-11.12109 164.179,-14.57364 163.4791,-18.65843 L163.4791,-18.65843 C162.7791,-22.74322 162.4617,-26.74214 162.5267,-30.65521 L162.5267,-30.65521 L162.5267,-33.39489 L162.5267,-33.39489 C162.5983,-33.57245 163.2397,-34.16566 164.4509,-35.17451 L164.4509,-35.17451 C165.6621,-36.18336 167.4354,-37.17464 169.7706,-38.14837 L169.7706,-38.14837 C172.1059,-39.12209 174.9954,-39.64505 178.4391,-39.71725 L178.4391,-39.71725 C183.763,-39.58773 187.4206,-37.84469 189.4118,-34.48814 L189.4118,-34.48814 C191.4031,-31.1316 192.3471,-26.93866 192.2439,-21.90935 Z" fill="#000000" fill-rule="nonzero" /></g></g><g clip-path="url(#clip041)"><g transform="translate(1145.308,2109.656) rotate(-45)"><path d="M44.44408,-0.006583333 L44.44408,-5.049439 L44.44408,-5.049439 C39.01475,-5.045049 33.53687,-5.02749 28.01044,-4.996762 L28.01044,-4.996762 C22.484,-4.966034 16.9765,-4.948474 11.48792,-4.944083 L11.48792,-4.944083 C11.50547,-5.049439 11.47036,-5.154795 11.38258,-5.260151 L11.38258,-5.260151 C13.86361,-7.418025 16.80732,-10.33891 20.21371,-14.02279 L20.21371,-14.02279 C23.62011,-17.70668 26.98104,-21.84903 30.2965,-26.44984 L30.2965,-26.44984 C33.61197,-31.05065 36.37381,-35.80539 38.58204,-40.71404 L38.58204,-40.71404 C40.79026,-45.62268 41.93673,-50.38071 42.02142,-54.9881 L42.02142,-54.9881 C41.9298,-61.32421 40.22033,-65.95305 36.893,-68.87461 L36.893,-68.87461 C33.56567,-71.79618 29.1702,-73.238 23.70658,-73.20008 L23.70658,-73.20008 C20.91525,-73.2418 17.80792,-72.73819 14.38458,-71.68928 L14.38458,-71.68928 C10.96125,-70.64035 7.537917,-68.79588 4.114583,-66.15583 L4.114583,-66.15583 C4.974806,-64.89156 5.782361,-63.62729 6.53725,-62.36302 L6.53725,-62.36302 C9.670917,-64.54913 12.62025,-66.10307 15.38525,-67.02482 L15.38525,-67.02482 C18.15025,-67.94657 20.57292,-68.39428 22.65325,-68.36791 L22.65325,-68.36791 C26.84683,-68.39866 30.099,-67.36272 32.40975,-65.26011 L32.40975,-65.26011 C34.7205,-63.15749 35.89233,-59.80373 35.92525,-55.19882 L35.92525,-55.19882 C35.75628,-47.46831 32.74989,-39.2506 26.90608,-30.54567 L26.90608,-30.54567 C21.06228,-21.84074 13.39489,-13.20183 3.903917,-4.628945 L3.903917,-4.628945 L3.903917,-0.006583333 ZM97.74408,-35.70768 C97.78606,-39.32258 97.59042,-43.26607 97.15717,-47.53814 L97.15717,-47.53814 C96.72392,-51.81021 95.80116,-55.89769 94.38889,-59.8006 L94.38889,-59.8006 C92.97662,-63.7035 90.82296,-66.90865 87.92789,-69.41604 L87.92789,-69.41604 C85.03284,-71.92343 81.1445,-73.21989 76.26288,-73.30541 L76.26288,-73.30541 C71.50425,-73.22977 67.65114,-71.98598 64.70353,-69.57407 L64.70353,-69.57407 C61.75593,-67.16216 59.50955,-64.03603 57.96439,-60.19568 L57.96439,-60.19568 C56.41924,-56.35533 55.37102,-52.25467 54.81975,-47.89371 L54.81975,-47.89371 C54.26848,-43.53274 54.00987,-39.36538 54.04391,-35.39162 L54.04391,-35.39162 C53.95738,-29.2741 54.42244,-23.48344 55.43909,-18.01964 L55.43909,-18.01964 C56.45575,-12.55585 58.54324,-8.092916 61.70156,-4.63085 L61.70156,-4.63085 C64.85989,-1.168785 69.60828,0.6184154 75.94674,0.73075 L75.94674,0.73075 C81.91985,0.5872003 86.48782,-1.33657 89.65063,-5.04056 L89.65063,-5.04056 C92.81344,-8.74455 94.96966,-13.36746 96.11929,-18.9093 L96.11929,-18.9093 C97.26891,-24.45114 97.81052,-30.0506 97.74408,-35.70768 ZM91.64792,-35.39162 C91.6941,-30.3951 91.30903,-25.52149 90.49271,-20.7708 L90.49271,-20.7708 C89.67638,-16.0201 88.15168,-12.08298 85.9186,-8.959417 L85.9186,-8.959417 C83.68552,-5.83586 80.46695,-4.216527 76.26288,-4.101417 L76.26288,-4.101417 C71.62103,-4.190512 68.15395,-5.697989 65.86165,-8.623844 L65.86165,-8.623844 C63.56934,-11.5497 62.06152,-15.35936 61.33818,-20.05283 L61.33818,-20.05283 C60.61485,-24.74629 60.2857,-29.78899 60.35075,-35.18092 L60.35075,-35.18092 C60.31672,-38.2126 60.44405,-41.61139 60.73275,-45.37729 L60.73275,-45.37729 C61.02144,-49.14319 61.67566,-52.78563 62.69542,-56.30463 L62.69542,-56.30463 C63.71517,-59.82362 65.30463,-62.72859 67.46379,-65.01952 L67.46379,-65.01952 C69.62295,-67.31047 72.55598,-68.49682 76.26288,-68.57858 L76.26288,-68.57858 C80.01807,-68.48722 82.95329,-67.24764 85.06853,-64.85985 L85.06853,-64.85985 C87.18375,-62.47205 88.70953,-59.48424 89.64584,-55.89638 L89.64584,-55.89638 C90.58213,-52.30852 91.15949,-48.66882 91.37791,-44.97728 L91.37791,-44.97728 C91.59634,-41.28572 91.68633,-38.0905 91.64792,-35.39162 ZM126.0932,-0.006581726 L131.8734,-0.006581726 L131.8734,-0.006581726 L131.8734,-72.04142 L131.8734,-72.04142 L126.1983,-72.04142 L126.1983,-72.04142 L111.8732,-68.3554 L111.8732,-68.3554 L111.8732,-64.24815 L111.8732,-64.24815 L126.0932,-65.82786 ZM165.1601,-55.72503 C165.1224,-57.24226 165.4437,-58.9839 166.1242,-60.94992 L166.1242,-60.94992 C166.8046,-62.91594 168.0705,-64.64198 169.9219,-66.12805 L169.9219,-66.12805 C171.7733,-67.61413 174.4365,-68.39586 177.9116,-68.47325 L177.9116,-68.47325 C181.2631,-68.41537 183.9277,-67.69997 185.9053,-66.32705 L185.9053,-66.32705 C187.8829,-64.95414 189.2984,-63.27102 190.1519,-61.27768 L190.1519,-61.27768 C191.0054,-59.28435 191.4217,-57.32811 191.4009,-55.40897 L191.4009,-55.40897 C191.4733,-53.09118 190.8279,-50.64169 189.4645,-48.06051 L189.4645,-48.06051 C188.101,-45.47933 185.585,-42.76646 181.9163,-39.92189 L181.9163,-39.92189 C177.5296,-41.66024 173.6831,-43.68831 170.3766,-46.0061 L170.3766,-46.0061 C167.0702,-48.3239 165.3313,-51.56354 165.1601,-55.72503 ZM177.3847,-3.89075 C173.616,-3.946678 170.6278,-4.701066 168.4201,-6.153915 L168.4201,-6.153915 C166.2124,-7.606762 164.637,-9.422498 163.6938,-11.60112 L163.6938,-11.60112 C162.7506,-13.77974 162.2914,-15.98568 162.3161,-18.21893 L162.3161,-18.21893 C162.2041,-21.63855 162.8496,-25.09768 164.2524,-28.59632 L164.2524,-28.59632 C165.6553,-32.09496 168.4874,-35.34338 172.7487,-38.34158 L172.7487,-38.34158 C176.7063,-36.71054 180.1487,-35.09121 183.0759,-33.48358 L183.0759,-33.48358 C186.0031,-31.87595 188.2746,-29.95226 189.8904,-27.71251 L189.8904,-27.71251 C191.5062,-25.47276 192.3258,-22.58917 192.3492,-19.06176 L192.3492,-19.06176 C192.3844,-15.11098 191.2077,-11.63429 188.8191,-8.631691 L188.8191,-8.631691 C186.4305,-5.629096 182.6193,-4.048782 177.3854,-3.89075 ZM196.9707,-56.35715 C196.8981,-60.41119 195.9094,-63.66818 194.0046,-66.12814 L194.0046,-66.12814 C192.0998,-68.58811 189.715,-70.36912 186.85,-71.47118 L186.85,-71.47118 C183.9851,-72.57323 181.0761,-73.11443 178.1231,-73.09475 L178.1231,-73.09475 C172.1275,-72.97021 167.4974,-71.27367 164.2329,-68.0051 L164.2329,-68.0051 C160.9684,-64.73654 159.3156,-60.64318 159.2746,-55.72503 L159.2746,-55.72503 C159.27,-52.38662 160.0411,-49.50254 161.5879,-47.07281 L161.5879,-47.07281 C163.1348,-44.64308 165.4847,-42.47015 168.6378,-40.55402 L168.6378,-40.55402 C163.9247,-37.65459 160.64,-34.15595 158.7836,-30.05811 L158.7836,-30.05811 C156.9273,-25.96027 156.0376,-21.90852 156.1146,-17.90286 L156.1146,-17.90286 C156.0936,-14.81915 156.7896,-11.85744 158.2026,-9.017746 L158.2026,-9.017746 C159.6156,-6.178047 161.8717,-3.841707 164.9707,-2.008727 L164.9707,-2.008727 C168.0697,-0.1757463 172.1377,0.7725237 177.1747,0.8360834 L177.1747,0.8360834 C181.7155,0.7751265 185.5586,-0.2017579 188.7038,-2.09457 L188.7038,-2.09457 C191.849,-3.987381 194.2389,-6.430376 195.8736,-9.423554 L195.8736,-9.423554 C197.5084,-12.41673 198.3305,-15.59435 198.3401,-18.9564 L198.3401,-18.9564 C198.2856,-23.36811 197.2121,-27.10819 195.1195,-30.17663 L195.1195,-30.17663 C193.0269,-33.24507 190.2418,-35.7209 186.7642,-37.6041 L186.7642,-37.6041 C190.598,-40.79546 193.2729,-43.99998 194.789,-47.21768 L194.789,-47.21768 C196.3052,-50.43537 197.0324,-53.48186 196.9707,-56.35715 Z" fill="#000000" fill-rule="nonzero" /></g></g><g clip-path="url(#clip042)"><g transform="translate(1360.974,2109.656) rotate(-45)"><path d="M44.44408,-0.006583333 L44.44408,-5.049439 L44.44408,-5.049439 C39.01475,-5.045049 33.53687,-5.02749 28.01044,-4.996762 L28.01044,-4.996762 C22.484,-4.966034 16.9765,-4.948474 11.48792,-4.944083 L11.48792,-4.944083 C11.50547,-5.049439 11.47036,-5.154795 11.38258,-5.260151 L11.38258,-5.260151 C13.86361,-7.418025 16.80732,-10.33891 20.21371,-14.02279 L20.21371,-14.02279 C23.62011,-17.70668 26.98104,-21.84903 30.2965,-26.44984 L30.2965,-26.44984 C33.61197,-31.05065 36.37381,-35.80539 38.58204,-40.71404 L38.58204,-40.71404 C40.79026,-45.62268 41.93673,-50.38071 42.02142,-54.9881 L42.02142,-54.9881 C41.9298,-61.32421 40.22033,-65.95305 36.893,-68.87461 L36.893,-68.87461 C33.56567,-71.79618 29.1702,-73.238 23.70658,-73.20008 L23.70658,-73.20008 C20.91525,-73.2418 17.80792,-72.73819 14.38458,-71.68928 L14.38458,-71.68928 C10.96125,-70.64035 7.537917,-68.79588 4.114583,-66.15583 L4.114583,-66.15583 C4.974806,-64.89156 5.782361,-63.62729 6.53725,-62.36302 L6.53725,-62.36302 C9.670917,-64.54913 12.62025,-66.10307 15.38525,-67.02482 L15.38525,-67.02482 C18.15025,-67.94657 20.57292,-68.39428 22.65325,-68.36791 L22.65325,-68.36791 C26.84683,-68.39866 30.099,-67.36272 32.40975,-65.26011 L32.40975,-65.26011 C34.7205,-63.15749 35.89233,-59.80373 35.92525,-55.19882 L35.92525,-55.19882 C35.75628,-47.46831 32.74989,-39.2506 26.90608,-30.54567 L26.90608,-30.54567 C21.06228,-21.84074 13.39489,-13.20183 3.903917,-4.628945 L3.903917,-4.628945 L3.903917,-0.006583333 ZM97.74408,-35.70768 C97.78606,-39.32258 97.59042,-43.26607 97.15717,-47.53814 L97.15717,-47.53814 C96.72392,-51.81021 95.80116,-55.89769 94.38889,-59.8006 L94.38889,-59.8006 C92.97662,-63.7035 90.82296,-66.90865 87.92789,-69.41604 L87.92789,-69.41604 C85.03284,-71.92343 81.1445,-73.21989 76.26288,-73.30541 L76.26288,-73.30541 C71.50425,-73.22977 67.65114,-71.98598 64.70353,-69.57407 L64.70353,-69.57407 C61.75593,-67.16216 59.50955,-64.03603 57.96439,-60.19568 L57.96439,-60.19568 C56.41924,-56.35533 55.37102,-52.25467 54.81975,-47.89371 L54.81975,-47.89371 C54.26848,-43.53274 54.00987,-39.36538 54.04391,-35.39162 L54.04391,-35.39162 C53.95738,-29.2741 54.42244,-23.48344 55.43909,-18.01964 L55.43909,-18.01964 C56.45575,-12.55585 58.54324,-8.092916 61.70156,-4.63085 L61.70156,-4.63085 C64.85989,-1.168785 69.60828,0.6184154 75.94674,0.73075 L75.94674,0.73075 C81.91985,0.5872003 86.48782,-1.33657 89.65063,-5.04056 L89.65063,-5.04056 C92.81344,-8.74455 94.96966,-13.36746 96.11929,-18.9093 L96.11929,-18.9093 C97.26891,-24.45114 97.81052,-30.0506 97.74408,-35.70768 ZM91.64792,-35.39162 C91.6941,-30.3951 91.30903,-25.52149 90.49271,-20.7708 L90.49271,-20.7708 C89.67638,-16.0201 88.15168,-12.08298 85.9186,-8.959417 L85.9186,-8.959417 C83.68552,-5.83586 80.46695,-4.216527 76.26288,-4.101417 L76.26288,-4.101417 C71.62103,-4.190512 68.15395,-5.697989 65.86165,-8.623844 L65.86165,-8.623844 C63.56934,-11.5497 62.06152,-15.35936 61.33818,-20.05283 L61.33818,-20.05283 C60.61485,-24.74629 60.2857,-29.78899 60.35075,-35.18092 L60.35075,-35.18092 C60.31672,-38.2126 60.44405,-41.61139 60.73275,-45.37729 L60.73275,-45.37729 C61.02144,-49.14319 61.67566,-52.78563 62.69542,-56.30463 L62.69542,-56.30463 C63.71517,-59.82362 65.30463,-62.72859 67.46379,-65.01952 L67.46379,-65.01952 C69.62295,-67.31047 72.55598,-68.49682 76.26288,-68.57858 L76.26288,-68.57858 C80.01807,-68.48722 82.95329,-67.24764 85.06853,-64.85985 L85.06853,-64.85985 C87.18375,-62.47205 88.70953,-59.48424 89.64584,-55.89638 L89.64584,-55.89638 C90.58213,-52.30852 91.15949,-48.66882 91.37791,-44.97728 L91.37791,-44.97728 C91.59634,-41.28572 91.68633,-38.0905 91.64792,-35.39162 ZM145.7774,-0.006583333 L145.7774,-5.049439 L145.7774,-5.049439 C140.3481,-5.045049 134.8702,-5.02749 129.3438,-4.996762 L129.3438,-4.996762 C123.8173,-4.966034 118.3098,-4.948474 112.8213,-4.944083 L112.8213,-4.944083 C112.8388,-5.049439 112.8037,-5.154795 112.7159,-5.260151 L112.7159,-5.260151 C115.1969,-7.418025 118.1407,-10.33891 121.547,-14.02279 L121.547,-14.02279 C124.9534,-17.70668 128.3144,-21.84903 131.6298,-26.44984 L131.6298,-26.44984 C134.9453,-31.05065 137.7071,-35.80539 139.9154,-40.71404 L139.9154,-40.71404 C142.1236,-45.62268 143.2701,-50.38071 143.3548,-54.9881 L143.3548,-54.9881 C143.2631,-61.32421 141.5537,-65.95305 138.2263,-68.87461 L138.2263,-68.87461 C134.899,-71.79618 130.5035,-73.238 125.0399,-73.20008 L125.0399,-73.20008 C122.2486,-73.2418 119.1412,-72.73819 115.7179,-71.68928 L115.7179,-71.68928 C112.2946,-70.64035 108.8712,-68.79588 105.4479,-66.15583 L105.4479,-66.15583 C106.3081,-64.89156 107.1157,-63.62729 107.8706,-62.36302 L107.8706,-62.36302 C111.0042,-64.54913 113.9536,-66.10307 116.7186,-67.02482 L116.7186,-67.02482 C119.4836,-67.94657 121.9063,-68.39428 123.9866,-68.36791 L123.9866,-68.36791 C128.1802,-68.39866 131.4323,-67.36272 133.7431,-65.26011 L133.7431,-65.26011 C136.0538,-63.15749 137.2257,-59.80373 137.2586,-55.19882 L137.2586,-55.19882 C137.0896,-47.46831 134.0832,-39.2506 128.2394,-30.54567 L128.2394,-30.54567 C122.3956,-21.84074 114.7282,-13.20183 105.2373,-4.628945 L105.2373,-4.628945 L105.2373,-0.006583333 ZM199.0774,-35.70768 C199.1194,-39.32258 198.9238,-43.26607 198.4905,-47.53814 L198.4905,-47.53814 C198.0573,-51.81021 197.1345,-55.89769 195.7222,-59.8006 L195.7222,-59.8006 C194.31,-63.7035 192.1563,-66.90865 189.2612,-69.41604 L189.2612,-69.41604 C186.3662,-71.92343 182.4778,-73.21989 177.5962,-73.30541 L177.5962,-73.30541 C172.8376,-73.22977 168.9845,-71.98598 166.0369,-69.57407 L166.0369,-69.57407 C163.0893,-67.16216 160.8429,-64.03603 159.2977,-60.19568 L159.2977,-60.19568 C157.7526,-56.35533 156.7044,-52.25467 156.1531,-47.89371 L156.1531,-47.89371 C155.6018,-43.53274 155.3432,-39.36538 155.3772,-35.39162 L155.3772,-35.39162 C155.2907,-29.2741 155.7558,-23.48344 156.7724,-18.01964 L156.7724,-18.01964 C157.7891,-12.55585 159.8766,-8.092916 163.0349,-4.63085 L163.0349,-4.63085 C166.1932,-1.168785 170.9416,0.6184154 177.2801,0.73075 L177.2801,0.73075 C183.2532,0.5872003 187.8212,-1.33657 190.984,-5.04056 L190.984,-5.04056 C194.1468,-8.74455 196.303,-13.36746 197.4526,-18.9093 L197.4526,-18.9093 C198.6022,-24.45114 199.1438,-30.0506 199.0774,-35.70768 ZM192.9812,-35.39162 C193.0274,-30.3951 192.6424,-25.52149 191.826,-20.7708 L191.826,-20.7708 C191.0097,-16.0201 189.485,-12.08298 187.2519,-8.959417 L187.2519,-8.959417 C185.0189,-5.83586 181.8003,-4.216527 177.5962,-4.101417 L177.5962,-4.101417 C172.9544,-4.190512 169.4873,-5.697989 167.195,-8.623844 L167.195,-8.623844 C164.9027,-11.5497 163.3949,-15.35936 162.6715,-20.05283 L162.6715,-20.05283 C161.9482,-24.74629 161.619,-29.78899 161.6841,-35.18092 L161.6841,-35.18092 C161.6501,-38.2126 161.7774,-41.61139 162.0661,-45.37729 L162.0661,-45.37729 C162.3548,-49.14319 163.009,-52.78563 164.0287,-56.30463 L164.0287,-56.30463 C165.0485,-59.82362 166.638,-62.72859 168.7971,-65.01952 L168.7971,-65.01952 C170.9563,-67.31047 173.8893,-68.49682 177.5962,-68.57858 L177.5962,-68.57858 C181.3514,-68.48722 184.2866,-67.24764 186.4019,-64.85985 L186.4019,-64.85985 C188.5171,-62.47205 190.0429,-59.48424 190.9792,-55.89638 L190.9792,-55.89638 C191.9155,-52.30852 192.4928,-48.66882 192.7112,-44.97728 L192.7112,-44.97728 C192.9297,-41.28572 193.0197,-38.0905 192.9812,-35.39162 Z" fill="#000000" fill-rule="nonzero" /></g></g><g clip-path="url(#clip043)"><g transform="translate(1576.641,2109.656) rotate(-45)"><path d="M44.44408,-0.006583333 L44.44408,-5.049439 L44.44408,-5.049439 C39.01475,-5.045049 33.53687,-5.02749 28.01044,-4.996762 L28.01044,-4.996762 C22.484,-4.966034 16.9765,-4.948474 11.48792,-4.944083 L11.48792,-4.944083 C11.50547,-5.049439 11.47036,-5.154795 11.38258,-5.260151 L11.38258,-5.260151 C13.86361,-7.418025 16.80732,-10.33891 20.21371,-14.02279 L20.21371,-14.02279 C23.62011,-17.70668 26.98104,-21.84903 30.2965,-26.44984 L30.2965,-26.44984 C33.61197,-31.05065 36.37381,-35.80539 38.58204,-40.71404 L38.58204,-40.71404 C40.79026,-45.62268 41.93673,-50.38071 42.02142,-54.9881 L42.02142,-54.9881 C41.9298,-61.32421 40.22033,-65.95305 36.893,-68.87461 L36.893,-68.87461 C33.56567,-71.79618 29.1702,-73.238 23.70658,-73.20008 L23.70658,-73.20008 C20.91525,-73.2418 17.80792,-72.73819 14.38458,-71.68928 L14.38458,-71.68928 C10.96125,-70.64035 7.537917,-68.79588 4.114583,-66.15583 L4.114583,-66.15583 C4.974806,-64.89156 5.782361,-63.62729 6.53725,-62.36302 L6.53725,-62.36302 C9.670917,-64.54913 12.62025,-66.10307 15.38525,-67.02482 L15.38525,-67.02482 C18.15025,-67.94657 20.57292,-68.39428 22.65325,-68.36791 L22.65325,-68.36791 C26.84683,-68.39866 30.099,-67.36272 32.40975,-65.26011 L32.40975,-65.26011 C34.7205,-63.15749 35.89233,-59.80373 35.92525,-55.19882 L35.92525,-55.19882 C35.75628,-47.46831 32.74989,-39.2506 26.90608,-30.54567 L26.90608,-30.54567 C21.06228,-21.84074 13.39489,-13.20183 3.903917,-4.628945 L3.903917,-4.628945 L3.903917,-0.006583333 ZM97.74408,-35.70768 C97.78606,-39.32258 97.59042,-43.26607 97.15717,-47.53814 L97.15717,-47.53814 C96.72392,-51.81021 95.80116,-55.89769 94.38889,-59.8006 L94.38889,-59.8006 C92.97662,-63.7035 90.82296,-66.90865 87.92789,-69.41604 L87.92789,-69.41604 C85.03284,-71.92343 81.1445,-73.21989 76.26288,-73.30541 L76.26288,-73.30541 C71.50425,-73.22977 67.65114,-71.98598 64.70353,-69.57407 L64.70353,-69.57407 C61.75593,-67.16216 59.50955,-64.03603 57.96439,-60.19568 L57.96439,-60.19568 C56.41924,-56.35533 55.37102,-52.25467 54.81975,-47.89371 L54.81975,-47.89371 C54.26848,-43.53274 54.00987,-39.36538 54.04391,-35.39162 L54.04391,-35.39162 C53.95738,-29.2741 54.42244,-23.48344 55.43909,-18.01964 L55.43909,-18.01964 C56.45575,-12.55585 58.54324,-8.092916 61.70156,-4.63085 L61.70156,-4.63085 C64.85989,-1.168785 69.60828,0.6184154 75.94674,0.73075 L75.94674,0.73075 C81.91985,0.5872003 86.48782,-1.33657 89.65063,-5.04056 L89.65063,-5.04056 C92.81344,-8.74455 94.96966,-13.36746 96.11929,-18.9093 L96.11929,-18.9093 C97.26891,-24.45114 97.81052,-30.0506 97.74408,-35.70768 ZM91.64792,-35.39162 C91.6941,-30.3951 91.30903,-25.52149 90.49271,-20.7708 L90.49271,-20.7708 C89.67638,-16.0201 88.15168,-12.08298 85.9186,-8.959417 L85.9186,-8.959417 C83.68552,-5.83586 80.46695,-4.216527 76.26288,-4.101417 L76.26288,-4.101417 C71.62103,-4.190512 68.15395,-5.697989 65.86165,-8.623844 L65.86165,-8.623844 C63.56934,-11.5497 62.06152,-15.35936 61.33818,-20.05283 L61.33818,-20.05283 C60.61485,-24.74629 60.2857,-29.78899 60.35075,-35.18092 L60.35075,-35.18092 C60.31672,-38.2126 60.44405,-41.61139 60.73275,-45.37729 L60.73275,-45.37729 C61.02144,-49.14319 61.67566,-52.78563 62.69542,-56.30463 L62.69542,-56.30463 C63.71517,-59.82362 65.30463,-62.72859 67.46379,-65.01952 L67.46379,-65.01952 C69.62295,-67.31047 72.55598,-68.49682 76.26288,-68.57858 L76.26288,-68.57858 C80.01807,-68.48722 82.95329,-67.24764 85.06853,-64.85985 L85.06853,-64.85985 C87.18375,-62.47205 88.70953,-59.48424 89.64584,-55.89638 L89.64584,-55.89638 C90.58213,-52.30852 91.15949,-48.66882 91.37791,-44.97728 L91.37791,-44.97728 C91.59634,-41.28572 91.68633,-38.0905 91.64792,-35.39162 ZM145.7774,-0.006583333 L145.7774,-5.049439 L145.7774,-5.049439 C140.3481,-5.045049 134.8702,-5.02749 129.3438,-4.996762 L129.3438,-4.996762 C123.8173,-4.966034 118.3098,-4.948474 112.8213,-4.944083 L112.8213,-4.944083 C112.8388,-5.049439 112.8037,-5.154795 112.7159,-5.260151 L112.7159,-5.260151 C115.1969,-7.418025 118.1407,-10.33891 121.547,-14.02279 L121.547,-14.02279 C124.9534,-17.70668 128.3144,-21.84903 131.6298,-26.44984 L131.6298,-26.44984 C134.9453,-31.05065 137.7071,-35.80539 139.9154,-40.71404 L139.9154,-40.71404 C142.1236,-45.62268 143.2701,-50.38071 143.3548,-54.9881 L143.3548,-54.9881 C143.2631,-61.32421 141.5537,-65.95305 138.2263,-68.87461 L138.2263,-68.87461 C134.899,-71.79618 130.5035,-73.238 125.0399,-73.20008 L125.0399,-73.20008 C122.2486,-73.2418 119.1412,-72.73819 115.7179,-71.68928 L115.7179,-71.68928 C112.2946,-70.64035 108.8712,-68.79588 105.4479,-66.15583 L105.4479,-66.15583 C106.3081,-64.89156 107.1157,-63.62729 107.8706,-62.36302 L107.8706,-62.36302 C111.0042,-64.54913 113.9536,-66.10307 116.7186,-67.02482 L116.7186,-67.02482 C119.4836,-67.94657 121.9063,-68.39428 123.9866,-68.36791 L123.9866,-68.36791 C128.1802,-68.39866 131.4323,-67.36272 133.7431,-65.26011 L133.7431,-65.26011 C136.0538,-63.15749 137.2257,-59.80373 137.2586,-55.19882 L137.2586,-55.19882 C137.0896,-47.46831 134.0832,-39.2506 128.2394,-30.54567 L128.2394,-30.54567 C122.3956,-21.84074 114.7282,-13.20183 105.2373,-4.628945 L105.2373,-4.628945 L105.2373,-0.006583333 ZM196.4441,-0.006583333 L196.4441,-5.049439 L196.4441,-5.049439 C191.0148,-5.045049 185.5369,-5.02749 180.0104,-4.996762 L180.0104,-4.996762 C174.484,-4.966034 168.9765,-4.948474 163.4879,-4.944083 L163.4879,-4.944083 C163.5055,-5.049439 163.4704,-5.154795 163.3826,-5.260151 L163.3826,-5.260151 C165.8636,-7.418025 168.8073,-10.33891 172.2137,-14.02279 L172.2137,-14.02279 C175.6201,-17.70668 178.981,-21.84903 182.2965,-26.44984 L182.2965,-26.44984 C185.612,-31.05065 188.3738,-35.80539 190.582,-40.71404 L190.582,-40.71404 C192.7903,-45.62268 193.9367,-50.38071 194.0214,-54.9881 L194.0214,-54.9881 C193.9298,-61.32421 192.2203,-65.95305 188.893,-68.87461 L188.893,-68.87461 C185.5657,-71.79618 181.1702,-73.238 175.7066,-73.20008 L175.7066,-73.20008 C172.9152,-73.2418 169.8079,-72.73819 166.3846,-71.68928 L166.3846,-71.68928 C162.9613,-70.64035 159.5379,-68.79588 156.1146,-66.15583 L156.1146,-66.15583 C156.9748,-64.89156 157.7824,-63.62729 158.5372,-62.36302 L158.5372,-62.36302 C161.6709,-64.54913 164.6203,-66.10307 167.3853,-67.02482 L167.3853,-67.02482 C170.1503,-67.94657 172.5729,-68.39428 174.6532,-68.36791 L174.6532,-68.36791 C178.8468,-68.39866 182.099,-67.36272 184.4097,-65.26011 L184.4097,-65.26011 C186.7205,-63.15749 187.8923,-59.80373 187.9252,-55.19882 L187.9252,-55.19882 C187.7563,-47.46831 184.7499,-39.2506 178.9061,-30.54567 L178.9061,-30.54567 C173.0623,-21.84074 165.3949,-13.20183 155.9039,-4.628945 L155.9039,-4.628945 L155.9039,-0.006583333 Z" fill="#000000" fill-rule="nonzero" /></g></g><g clip-path="url(#clip044)"><g transform="translate(1792.307,2109.656) rotate(-45)"><path d="M44.44408,-0.006583333 L44.44408,-5.049439 L44.44408,-5.049439 C39.01475,-5.045049 33.53687,-5.02749 28.01044,-4.996762 L28.01044,-4.996762 C22.484,-4.966034 16.9765,-4.948474 11.48792,-4.944083 L11.48792,-4.944083 C11.50547,-5.049439 11.47036,-5.154795 11.38258,-5.260151 L11.38258,-5.260151 C13.86361,-7.418025 16.80732,-10.33891 20.21371,-14.02279 L20.21371,-14.02279 C23.62011,-17.70668 26.98104,-21.84903 30.2965,-26.44984 L30.2965,-26.44984 C33.61197,-31.05065 36.37381,-35.80539 38.58204,-40.71404 L38.58204,-40.71404 C40.79026,-45.62268 41.93673,-50.38071 42.02142,-54.9881 L42.02142,-54.9881 C41.9298,-61.32421 40.22033,-65.95305 36.893,-68.87461 L36.893,-68.87461 C33.56567,-71.79618 29.1702,-73.238 23.70658,-73.20008 L23.70658,-73.20008 C20.91525,-73.2418 17.80792,-72.73819 14.38458,-71.68928 L14.38458,-71.68928 C10.96125,-70.64035 7.537917,-68.79588 4.114583,-66.15583 L4.114583,-66.15583 C4.974806,-64.89156 5.782361,-63.62729 6.53725,-62.36302 L6.53725,-62.36302 C9.670917,-64.54913 12.62025,-66.10307 15.38525,-67.02482 L15.38525,-67.02482 C18.15025,-67.94657 20.57292,-68.39428 22.65325,-68.36791 L22.65325,-68.36791 C26.84683,-68.39866 30.099,-67.36272 32.40975,-65.26011 L32.40975,-65.26011 C34.7205,-63.15749 35.89233,-59.80373 35.92525,-55.19882 L35.92525,-55.19882 C35.75628,-47.46831 32.74989,-39.2506 26.90608,-30.54567 L26.90608,-30.54567 C21.06228,-21.84074 13.39489,-13.20183 3.903917,-4.628945 L3.903917,-4.628945 L3.903917,-0.006583333 ZM97.74408,-35.70768 C97.78606,-39.32258 97.59042,-43.26607 97.15717,-47.53814 L97.15717,-47.53814 C96.72392,-51.81021 95.80116,-55.89769 94.38889,-59.8006 L94.38889,-59.8006 C92.97662,-63.7035 90.82296,-66.90865 87.92789,-69.41604 L87.92789,-69.41604 C85.03284,-71.92343 81.1445,-73.21989 76.26288,-73.30541 L76.26288,-73.30541 C71.50425,-73.22977 67.65114,-71.98598 64.70353,-69.57407 L64.70353,-69.57407 C61.75593,-67.16216 59.50955,-64.03603 57.96439,-60.19568 L57.96439,-60.19568 C56.41924,-56.35533 55.37102,-52.25467 54.81975,-47.89371 L54.81975,-47.89371 C54.26848,-43.53274 54.00987,-39.36538 54.04391,-35.39162 L54.04391,-35.39162 C53.95738,-29.2741 54.42244,-23.48344 55.43909,-18.01964 L55.43909,-18.01964 C56.45575,-12.55585 58.54324,-8.092916 61.70156,-4.63085 L61.70156,-4.63085 C64.85989,-1.168785 69.60828,0.6184154 75.94674,0.73075 L75.94674,0.73075 C81.91985,0.5872003 86.48782,-1.33657 89.65063,-5.04056 L89.65063,-5.04056 C92.81344,-8.74455 94.96966,-13.36746 96.11929,-18.9093 L96.11929,-18.9093 C97.26891,-24.45114 97.81052,-30.0506 97.74408,-35.70768 ZM91.64792,-35.39162 C91.6941,-30.3951 91.30903,-25.52149 90.49271,-20.7708 L90.49271,-20.7708 C89.67638,-16.0201 88.15168,-12.08298 85.9186,-8.959417 L85.9186,-8.959417 C83.68552,-5.83586 80.46695,-4.216527 76.26288,-4.101417 L76.26288,-4.101417 C71.62103,-4.190512 68.15395,-5.697989 65.86165,-8.623844 L65.86165,-8.623844 C63.56934,-11.5497 62.06152,-15.35936 61.33818,-20.05283 L61.33818,-20.05283 C60.61485,-24.74629 60.2857,-29.78899 60.35075,-35.18092 L60.35075,-35.18092 C60.31672,-38.2126 60.44405,-41.61139 60.73275,-45.37729 L60.73275,-45.37729 C61.02144,-49.14319 61.67566,-52.78563 62.69542,-56.30463 L62.69542,-56.30463 C63.71517,-59.82362 65.30463,-62.72859 67.46379,-65.01952 L67.46379,-65.01952 C69.62295,-67.31047 72.55598,-68.49682 76.26288,-68.57858 L76.26288,-68.57858 C80.01807,-68.48722 82.95329,-67.24764 85.06853,-64.85985 L85.06853,-64.85985 C87.18375,-62.47205 88.70953,-59.48424 89.64584,-55.89638 L89.64584,-55.89638 C90.58213,-52.30852 91.15949,-48.66882 91.37791,-44.97728 L91.37791,-44.97728 C91.59634,-41.28572 91.68633,-38.0905 91.64792,-35.39162 ZM145.7774,-0.006583333 L145.7774,-5.049439 L145.7774,-5.049439 C140.3481,-5.045049 134.8702,-5.02749 129.3438,-4.996762 L129.3438,-4.996762 C123.8173,-4.966034 118.3098,-4.948474 112.8213,-4.944083 L112.8213,-4.944083 C112.8388,-5.049439 112.8037,-5.154795 112.7159,-5.260151 L112.7159,-5.260151 C115.1969,-7.418025 118.1407,-10.33891 121.547,-14.02279 L121.547,-14.02279 C124.9534,-17.70668 128.3144,-21.84903 131.6298,-26.44984 L131.6298,-26.44984 C134.9453,-31.05065 137.7071,-35.80539 139.9154,-40.71404 L139.9154,-40.71404 C142.1236,-45.62268 143.2701,-50.38071 143.3548,-54.9881 L143.3548,-54.9881 C143.2631,-61.32421 141.5537,-65.95305 138.2263,-68.87461 L138.2263,-68.87461 C134.899,-71.79618 130.5035,-73.238 125.0399,-73.20008 L125.0399,-73.20008 C122.2486,-73.2418 119.1412,-72.73819 115.7179,-71.68928 L115.7179,-71.68928 C112.2946,-70.64035 108.8712,-68.79588 105.4479,-66.15583 L105.4479,-66.15583 C106.3081,-64.89156 107.1157,-63.62729 107.8706,-62.36302 L107.8706,-62.36302 C111.0042,-64.54913 113.9536,-66.10307 116.7186,-67.02482 L116.7186,-67.02482 C119.4836,-67.94657 121.9063,-68.39428 123.9866,-68.36791 L123.9866,-68.36791 C128.1802,-68.39866 131.4323,-67.36272 133.7431,-65.26011 L133.7431,-65.26011 C136.0538,-63.15749 137.2257,-59.80373 137.2586,-55.19882 L137.2586,-55.19882 C137.0896,-47.46831 134.0832,-39.2506 128.2394,-30.54567 L128.2394,-30.54567 C122.3956,-21.84074 114.7282,-13.20183 105.2373,-4.628945 L105.2373,-4.628945 L105.2373,-0.006583333 ZM185.1863,-72.04142 L155.0612,-24.53609 L155.0612,-24.53609 L155.0612,-19.80925 L155.0612,-19.80925 L184.9759,-19.80925 L184.9759,-19.80925 L184.9759,-0.006581726 L184.9759,-0.006581726 L190.5454,-0.006581726 L190.5454,-0.006581726 C190.541,-3.27411 190.5235,-6.561388 190.4928,-9.868416 L190.4928,-9.868416 C190.462,-13.17544 190.4445,-16.48906 190.4401,-19.80925 L190.4401,-19.80925 L199.4988,-19.80925 L199.4988,-19.80925 L199.4988,-24.43075 L199.4988,-24.43075 L190.4401,-24.43075 L190.4401,-24.43075 L190.4401,-72.04142 ZM185.0813,-62.35075 L185.0813,-24.43075 L185.0813,-24.43075 L160.5386,-24.43075 L160.5386,-24.43075 L184.6599,-62.35075 Z" fill="#000000" fill-rule="nonzero" /></g></g><g clip-path="url(#clip045)"><g transform="translate(1973.797,2143.833) rotate(-45)"><path d="M44.44408,-0.006583333 L44.44408,-5.049439 L44.44408,-5.049439 C39.01475,-5.045049 33.53687,-5.02749 28.01044,-4.996762 L28.01044,-4.996762 C22.484,-4.966034 16.9765,-4.948474 11.48792,-4.944083 L11.48792,-4.944083 C11.50547,-5.049439 11.47036,-5.154795 11.38258,-5.260151 L11.38258,-5.260151 C13.86361,-7.418025 16.80732,-10.33891 20.21371,-14.02279 L20.21371,-14.02279 C23.62011,-17.70668 26.98104,-21.84903 30.2965,-26.44984 L30.2965,-26.44984 C33.61197,-31.05065 36.37381,-35.80539 38.58204,-40.71404 L38.58204,-40.71404 C40.79026,-45.62268 41.93673,-50.38071 42.02142,-54.9881 L42.02142,-54.9881 C41.9298,-61.32421 40.22033,-65.95305 36.893,-68.87461 L36.893,-68.87461 C33.56567,-71.79618 29.1702,-73.238 23.70658,-73.20008 L23.70658,-73.20008 C20.91525,-73.2418 17.80792,-72.73819 14.38458,-71.68928 L14.38458,-71.68928 C10.96125,-70.64035 7.537917,-68.79588 4.114583,-66.15583 L4.114583,-66.15583 C4.974806,-64.89156 5.782361,-63.62729 6.53725,-62.36302 L6.53725,-62.36302 C9.670917,-64.54913 12.62025,-66.10307 15.38525,-67.02482 L15.38525,-67.02482 C18.15025,-67.94657 20.57292,-68.39428 22.65325,-68.36791 L22.65325,-68.36791 C26.84683,-68.39866 30.099,-67.36272 32.40975,-65.26011 L32.40975,-65.26011 C34.7205,-63.15749 35.89233,-59.80373 35.92525,-55.19882 L35.92525,-55.19882 C35.75628,-47.46831 32.74989,-39.2506 26.90608,-30.54567 L26.90608,-30.54567 C21.06228,-21.84074 13.39489,-13.20183 3.903917,-4.628945 L3.903917,-4.628945 L3.903917,-0.006583333 ZM97.74408,-35.70768 C97.78606,-39.32258 97.59042,-43.26607 97.15717,-47.53814 L97.15717,-47.53814 C96.72392,-51.81021 95.80116,-55.89769 94.38889,-59.8006 L94.38889,-59.8006 C92.97662,-63.7035 90.82296,-66.90865 87.92789,-69.41604 L87.92789,-69.41604 C85.03284,-71.92343 81.1445,-73.21989 76.26288,-73.30541 L76.26288,-73.30541 C71.50425,-73.22977 67.65114,-71.98598 64.70353,-69.57407 L64.70353,-69.57407 C61.75593,-67.16216 59.50955,-64.03603 57.96439,-60.19568 L57.96439,-60.19568 C56.41924,-56.35533 55.37102,-52.25467 54.81975,-47.89371 L54.81975,-47.89371 C54.26848,-43.53274 54.00987,-39.36538 54.04391,-35.39162 L54.04391,-35.39162 C53.95738,-29.2741 54.42244,-23.48344 55.43909,-18.01964 L55.43909,-18.01964 C56.45575,-12.55585 58.54324,-8.092916 61.70156,-4.63085 L61.70156,-4.63085 C64.85989,-1.168785 69.60828,0.6184154 75.94674,0.73075 L75.94674,0.73075 C81.91985,0.5872003 86.48782,-1.33657 89.65063,-5.04056 L89.65063,-5.04056 C92.81344,-8.74455 94.96966,-13.36746 96.11929,-18.9093 L96.11929,-18.9093 C97.26891,-24.45114 97.81052,-30.0506 97.74408,-35.70768 ZM91.64792,-35.39162 C91.6941,-30.3951 91.30903,-25.52149 90.49271,-20.7708 L90.49271,-20.7708 C89.67638,-16.0201 88.15168,-12.08298 85.9186,-8.959417 L85.9186,-8.959417 C83.68552,-5.83586 80.46695,-4.216527 76.26288,-4.101417 L76.26288,-4.101417 C71.62103,-4.190512 68.15395,-5.697989 65.86165,-8.623844 L65.86165,-8.623844 C63.56934,-11.5497 62.06152,-15.35936 61.33818,-20.05283 L61.33818,-20.05283 C60.61485,-24.74629 60.2857,-29.78899 60.35075,-35.18092 L60.35075,-35.18092 C60.31672,-38.2126 60.44405,-41.61139 60.73275,-45.37729 L60.73275,-45.37729 C61.02144,-49.14319 61.67566,-52.78563 62.69542,-56.30463 L62.69542,-56.30463 C63.71517,-59.82362 65.30463,-62.72859 67.46379,-65.01952 L67.46379,-65.01952 C69.62295,-67.31047 72.55598,-68.49682 76.26288,-68.57858 L76.26288,-68.57858 C80.01807,-68.48722 82.95329,-67.24764 85.06853,-64.85985 L85.06853,-64.85985 C87.18375,-62.47205 88.70953,-59.48424 89.64584,-55.89638 L89.64584,-55.89638 C90.58213,-52.30852 91.15949,-48.66882 91.37791,-44.97728 L91.37791,-44.97728 C91.59634,-41.28572 91.68633,-38.0905 91.64792,-35.39162 ZM145.7774,-0.006583333 L145.7774,-5.049439 L145.7774,-5.049439 C140.3481,-5.045049 134.8702,-5.02749 129.3438,-4.996762 L129.3438,-4.996762 C123.8173,-4.966034 118.3098,-4.948474 112.8213,-4.944083 L112.8213,-4.944083 C112.8388,-5.049439 112.8037,-5.154795 112.7159,-5.260151 L112.7159,-5.260151 C115.1969,-7.418025 118.1407,-10.33891 121.547,-14.02279 L121.547,-14.02279 C124.9534,-17.70668 128.3144,-21.84903 131.6298,-26.44984 L131.6298,-26.44984 C134.9453,-31.05065 137.7071,-35.80539 139.9154,-40.71404 L139.9154,-40.71404 C142.1236,-45.62268 143.2701,-50.38071 143.3548,-54.9881 L143.3548,-54.9881 C143.2631,-61.32421 141.5537,-65.95305 138.2263,-68.87461 L138.2263,-68.87461 C134.899,-71.79618 130.5035,-73.238 125.0399,-73.20008 L125.0399,-73.20008 C122.2486,-73.2418 119.1412,-72.73819 115.7179,-71.68928 L115.7179,-71.68928 C112.2946,-70.64035 108.8712,-68.79588 105.4479,-66.15583 L105.4479,-66.15583 C106.3081,-64.89156 107.1157,-63.62729 107.8706,-62.36302 L107.8706,-62.36302 C111.0042,-64.54913 113.9536,-66.10307 116.7186,-67.02482 L116.7186,-67.02482 C119.4836,-67.94657 121.9063,-68.39428 123.9866,-68.36791 L123.9866,-68.36791 C128.1802,-68.39866 131.4323,-67.36272 133.7431,-65.26011 L133.7431,-65.26011 C136.0538,-63.15749 137.2257,-59.80373 137.2586,-55.19882 L137.2586,-55.19882 C137.0896,-47.46831 134.0832,-39.2506 128.2394,-30.54567 L128.2394,-30.54567 C122.3956,-21.84074 114.7282,-13.20183 105.2373,-4.628945 L105.2373,-4.628945 L105.2373,-0.006583333 ZM180.5467,-73.20008 C175.1374,-73.14032 170.6309,-71.4114 167.0271,-68.01331 L167.0271,-68.01331 C163.4233,-64.61523 160.7211,-59.90655 158.9205,-53.88728 L158.9205,-53.88728 C157.1199,-47.86801 156.2197,-40.89672 156.2199,-32.9734 L156.2199,-32.9734 C156.1541,-27.01747 156.6828,-21.49778 157.8058,-16.41435 L157.8058,-16.41435 C158.9288,-11.33091 161.0409,-7.225096 164.142,-4.096895 L164.142,-4.096895 C167.243,-0.9686932 171.7277,0.6405217 177.5961,0.73075 L177.5961,0.73075 C184.2234,0.6325828 189.3273,-1.48555 192.9078,-5.623648 L192.9078,-5.623648 C196.4883,-9.761746 198.299,-15.33081 198.3401,-22.33083 L198.3401,-22.33083 C198.1717,-30.25945 196.2468,-35.94706 192.5653,-39.39366 L192.5653,-39.39366 C188.8838,-42.84026 184.4561,-44.52373 179.2822,-44.44408 L179.2822,-44.44408 C175.8397,-44.40256 172.7925,-43.85536 170.1405,-42.80249 L170.1405,-42.80249 C167.4884,-41.74961 165.0207,-40.44019 162.7375,-38.87423 L162.7375,-38.87423 L162.4216,-39.19034 L162.4216,-39.19034 C162.4948,-41.50805 162.7763,-44.28525 163.2662,-47.52193 L163.2662,-47.52193 C163.756,-50.75861 164.6467,-53.96214 165.9385,-57.13254 L165.9385,-57.13254 C167.2302,-60.30294 169.1155,-62.94757 171.5944,-65.06645 L171.5944,-65.06645 C174.0733,-67.18533 177.3384,-68.28581 181.3898,-68.36791 L181.3898,-68.36791 C183.3196,-68.35255 185.2822,-68.1198 187.2777,-67.66969 L187.2777,-67.66969 C189.2732,-67.21957 191.1038,-66.64429 192.7695,-65.94389 L192.7695,-65.94389 L194.4512,-70.25877 L194.4512,-70.25877 C193.0774,-70.97878 191.2217,-71.6397 188.8842,-72.24153 L188.8842,-72.24153 C186.5467,-72.84336 183.7675,-73.16288 180.5467,-73.20008 ZM192.2439,-21.90935 C192.3273,-16.87125 191.3174,-12.6432 189.2142,-9.225204 L189.2142,-9.225204 C187.111,-5.807203 183.4139,-4.029051 178.123,-3.89075 L178.123,-3.89075 C173.5513,-4.010432 170.1427,-5.480435 167.8972,-8.30076 L167.8972,-8.30076 C165.6517,-11.12109 164.179,-14.57364 163.4791,-18.65843 L163.4791,-18.65843 C162.7791,-22.74322 162.4617,-26.74214 162.5267,-30.65521 L162.5267,-30.65521 L162.5267,-33.39489 L162.5267,-33.39489 C162.5983,-33.57245 163.2397,-34.16566 164.4509,-35.17451 L164.4509,-35.17451 C165.6621,-36.18336 167.4354,-37.17464 169.7706,-38.14837 L169.7706,-38.14837 C172.1059,-39.12209 174.9954,-39.64505 178.4391,-39.71725 L178.4391,-39.71725 C183.763,-39.58773 187.4206,-37.84469 189.4118,-34.48814 L189.4118,-34.48814 C191.4031,-31.1316 192.3471,-26.93866 192.2439,-21.90935 ZM248.2694,-0.006583333 L248.2694,-4.944083 L248.2694,-4.944083 L216.2481,-4.944083 L216.2481,-4.944083 L216.2481,-35.71458 L216.2481,-35.71458 L243.0027,-35.71458 L243.0027,-35.71458 L243.0027,-40.54675 L243.0027,-40.54675 L216.2481,-40.54675 L216.2481,-40.54675 L216.2481,-67.20925 L216.2481,-67.20925 L246.7947,-67.20925 L246.7947,-67.20925 L246.7947,-72.04142 L246.7947,-72.04142 L210.0466,-72.04142 L210.0466,-72.04142 L210.0466,-0.006583333 Z" fill="#000000" fill-rule="nonzero" /></g></g><g clip-path="url(#clip046)"><g transform="translate(2189.463,2143.833) rotate(-45)"><path d="M44.44408,-0.006583333 L44.44408,-5.049439 L44.44408,-5.049439 C39.01475,-5.045049 33.53687,-5.02749 28.01044,-4.996762 L28.01044,-4.996762 C22.484,-4.966034 16.9765,-4.948474 11.48792,-4.944083 L11.48792,-4.944083 C11.50547,-5.049439 11.47036,-5.154795 11.38258,-5.260151 L11.38258,-5.260151 C13.86361,-7.418025 16.80732,-10.33891 20.21371,-14.02279 L20.21371,-14.02279 C23.62011,-17.70668 26.98104,-21.84903 30.2965,-26.44984 L30.2965,-26.44984 C33.61197,-31.05065 36.37381,-35.80539 38.58204,-40.71404 L38.58204,-40.71404 C40.79026,-45.62268 41.93673,-50.38071 42.02142,-54.9881 L42.02142,-54.9881 C41.9298,-61.32421 40.22033,-65.95305 36.893,-68.87461 L36.893,-68.87461 C33.56567,-71.79618 29.1702,-73.238 23.70658,-73.20008 L23.70658,-73.20008 C20.91525,-73.2418 17.80792,-72.73819 14.38458,-71.68928 L14.38458,-71.68928 C10.96125,-70.64035 7.537917,-68.79588 4.114583,-66.15583 L4.114583,-66.15583 C4.974806,-64.89156 5.782361,-63.62729 6.53725,-62.36302 L6.53725,-62.36302 C9.670917,-64.54913 12.62025,-66.10307 15.38525,-67.02482 L15.38525,-67.02482 C18.15025,-67.94657 20.57292,-68.39428 22.65325,-68.36791 L22.65325,-68.36791 C26.84683,-68.39866 30.099,-67.36272 32.40975,-65.26011 L32.40975,-65.26011 C34.7205,-63.15749 35.89233,-59.80373 35.92525,-55.19882 L35.92525,-55.19882 C35.75628,-47.46831 32.74989,-39.2506 26.90608,-30.54567 L26.90608,-30.54567 C21.06228,-21.84074 13.39489,-13.20183 3.903917,-4.628945 L3.903917,-4.628945 L3.903917,-0.006583333 ZM97.74408,-35.70768 C97.78606,-39.32258 97.59042,-43.26607 97.15717,-47.53814 L97.15717,-47.53814 C96.72392,-51.81021 95.80116,-55.89769 94.38889,-59.8006 L94.38889,-59.8006 C92.97662,-63.7035 90.82296,-66.90865 87.92789,-69.41604 L87.92789,-69.41604 C85.03284,-71.92343 81.1445,-73.21989 76.26288,-73.30541 L76.26288,-73.30541 C71.50425,-73.22977 67.65114,-71.98598 64.70353,-69.57407 L64.70353,-69.57407 C61.75593,-67.16216 59.50955,-64.03603 57.96439,-60.19568 L57.96439,-60.19568 C56.41924,-56.35533 55.37102,-52.25467 54.81975,-47.89371 L54.81975,-47.89371 C54.26848,-43.53274 54.00987,-39.36538 54.04391,-35.39162 L54.04391,-35.39162 C53.95738,-29.2741 54.42244,-23.48344 55.43909,-18.01964 L55.43909,-18.01964 C56.45575,-12.55585 58.54324,-8.092916 61.70156,-4.63085 L61.70156,-4.63085 C64.85989,-1.168785 69.60828,0.6184154 75.94674,0.73075 L75.94674,0.73075 C81.91985,0.5872003 86.48782,-1.33657 89.65063,-5.04056 L89.65063,-5.04056 C92.81344,-8.74455 94.96966,-13.36746 96.11929,-18.9093 L96.11929,-18.9093 C97.26891,-24.45114 97.81052,-30.0506 97.74408,-35.70768 ZM91.64792,-35.39162 C91.6941,-30.3951 91.30903,-25.52149 90.49271,-20.7708 L90.49271,-20.7708 C89.67638,-16.0201 88.15168,-12.08298 85.9186,-8.959417 L85.9186,-8.959417 C83.68552,-5.83586 80.46695,-4.216527 76.26288,-4.101417 L76.26288,-4.101417 C71.62103,-4.190512 68.15395,-5.697989 65.86165,-8.623844 L65.86165,-8.623844 C63.56934,-11.5497 62.06152,-15.35936 61.33818,-20.05283 L61.33818,-20.05283 C60.61485,-24.74629 60.2857,-29.78899 60.35075,-35.18092 L60.35075,-35.18092 C60.31672,-38.2126 60.44405,-41.61139 60.73275,-45.37729 L60.73275,-45.37729 C61.02144,-49.14319 61.67566,-52.78563 62.69542,-56.30463 L62.69542,-56.30463 C63.71517,-59.82362 65.30463,-62.72859 67.46379,-65.01952 L67.46379,-65.01952 C69.62295,-67.31047 72.55598,-68.49682 76.26288,-68.57858 L76.26288,-68.57858 C80.01807,-68.48722 82.95329,-67.24764 85.06853,-64.85985 L85.06853,-64.85985 C87.18375,-62.47205 88.70953,-59.48424 89.64584,-55.89638 L89.64584,-55.89638 C90.58213,-52.30852 91.15949,-48.66882 91.37791,-44.97728 L91.37791,-44.97728 C91.59634,-41.28572 91.68633,-38.0905 91.64792,-35.39162 ZM145.7774,-0.006583333 L145.7774,-5.049439 L145.7774,-5.049439 C140.3481,-5.045049 134.8702,-5.02749 129.3438,-4.996762 L129.3438,-4.996762 C123.8173,-4.966034 118.3098,-4.948474 112.8213,-4.944083 L112.8213,-4.944083 C112.8388,-5.049439 112.8037,-5.154795 112.7159,-5.260151 L112.7159,-5.260151 C115.1969,-7.418025 118.1407,-10.33891 121.547,-14.02279 L121.547,-14.02279 C124.9534,-17.70668 128.3144,-21.84903 131.6298,-26.44984 L131.6298,-26.44984 C134.9453,-31.05065 137.7071,-35.80539 139.9154,-40.71404 L139.9154,-40.71404 C142.1236,-45.62268 143.2701,-50.38071 143.3548,-54.9881 L143.3548,-54.9881 C143.2631,-61.32421 141.5537,-65.95305 138.2263,-68.87461 L138.2263,-68.87461 C134.899,-71.79618 130.5035,-73.238 125.0399,-73.20008 L125.0399,-73.20008 C122.2486,-73.2418 119.1412,-72.73819 115.7179,-71.68928 L115.7179,-71.68928 C112.2946,-70.64035 108.8712,-68.79588 105.4479,-66.15583 L105.4479,-66.15583 C106.3081,-64.89156 107.1157,-63.62729 107.8706,-62.36302 L107.8706,-62.36302 C111.0042,-64.54913 113.9536,-66.10307 116.7186,-67.02482 L116.7186,-67.02482 C119.4836,-67.94657 121.9063,-68.39428 123.9866,-68.36791 L123.9866,-68.36791 C128.1802,-68.39866 131.4323,-67.36272 133.7431,-65.26011 L133.7431,-65.26011 C136.0538,-63.15749 137.2257,-59.80373 137.2586,-55.19882 L137.2586,-55.19882 C137.0896,-47.46831 134.0832,-39.2506 128.2394,-30.54567 L128.2394,-30.54567 C122.3956,-21.84074 114.7282,-13.20183 105.2373,-4.628945 L105.2373,-4.628945 L105.2373,-0.006583333 ZM165.1601,-55.72503 C165.1224,-57.24226 165.4437,-58.9839 166.1242,-60.94992 L166.1242,-60.94992 C166.8046,-62.91594 168.0705,-64.64198 169.9219,-66.12805 L169.9219,-66.12805 C171.7733,-67.61413 174.4365,-68.39586 177.9116,-68.47325 L177.9116,-68.47325 C181.2631,-68.41537 183.9277,-67.69997 185.9053,-66.32705 L185.9053,-66.32705 C187.8829,-64.95414 189.2984,-63.27102 190.1519,-61.27768 L190.1519,-61.27768 C191.0054,-59.28435 191.4217,-57.32811 191.4009,-55.40897 L191.4009,-55.40897 C191.4733,-53.09118 190.8279,-50.64169 189.4645,-48.06051 L189.4645,-48.06051 C188.101,-45.47933 185.585,-42.76646 181.9163,-39.92189 L181.9163,-39.92189 C177.5296,-41.66024 173.6831,-43.68831 170.3766,-46.0061 L170.3766,-46.0061 C167.0702,-48.3239 165.3313,-51.56354 165.1601,-55.72503 ZM177.3847,-3.89075 C173.616,-3.946678 170.6278,-4.701066 168.4201,-6.153915 L168.4201,-6.153915 C166.2124,-7.606762 164.637,-9.422498 163.6938,-11.60112 L163.6938,-11.60112 C162.7506,-13.77974 162.2914,-15.98568 162.3161,-18.21893 L162.3161,-18.21893 C162.2041,-21.63855 162.8496,-25.09768 164.2524,-28.59632 L164.2524,-28.59632 C165.6553,-32.09496 168.4874,-35.34338 172.7487,-38.34158 L172.7487,-38.34158 C176.7063,-36.71054 180.1487,-35.09121 183.0759,-33.48358 L183.0759,-33.48358 C186.0031,-31.87595 188.2746,-29.95226 189.8904,-27.71251 L189.8904,-27.71251 C191.5062,-25.47276 192.3258,-22.58917 192.3492,-19.06176 L192.3492,-19.06176 C192.3844,-15.11098 191.2077,-11.63429 188.8191,-8.631691 L188.8191,-8.631691 C186.4305,-5.629096 182.6193,-4.048782 177.3854,-3.89075 ZM196.9707,-56.35715 C196.8981,-60.41119 195.9094,-63.66818 194.0046,-66.12814 L194.0046,-66.12814 C192.0998,-68.58811 189.715,-70.36912 186.85,-71.47118 L186.85,-71.47118 C183.9851,-72.57323 181.0761,-73.11443 178.1231,-73.09475 L178.1231,-73.09475 C172.1275,-72.97021 167.4974,-71.27367 164.2329,-68.0051 L164.2329,-68.0051 C160.9684,-64.73654 159.3156,-60.64318 159.2746,-55.72503 L159.2746,-55.72503 C159.27,-52.38662 160.0411,-49.50254 161.5879,-47.07281 L161.5879,-47.07281 C163.1348,-44.64308 165.4847,-42.47015 168.6378,-40.55402 L168.6378,-40.55402 C163.9247,-37.65459 160.64,-34.15595 158.7836,-30.05811 L158.7836,-30.05811 C156.9273,-25.96027 156.0376,-21.90852 156.1146,-17.90286 L156.1146,-17.90286 C156.0936,-14.81915 156.7896,-11.85744 158.2026,-9.017746 L158.2026,-9.017746 C159.6156,-6.178047 161.8717,-3.841707 164.9707,-2.008727 L164.9707,-2.008727 C168.0697,-0.1757463 172.1377,0.7725237 177.1747,0.8360834 L177.1747,0.8360834 C181.7155,0.7751265 185.5586,-0.2017579 188.7038,-2.09457 L188.7038,-2.09457 C191.849,-3.987381 194.2389,-6.430376 195.8736,-9.423554 L195.8736,-9.423554 C197.5084,-12.41673 198.3305,-15.59435 198.3401,-18.9564 L198.3401,-18.9564 C198.2856,-23.36811 197.2121,-27.10819 195.1195,-30.17663 L195.1195,-30.17663 C193.0269,-33.24507 190.2418,-35.7209 186.7642,-37.6041 L186.7642,-37.6041 C190.598,-40.79546 193.2729,-43.99998 194.789,-47.21768 L194.789,-47.21768 C196.3052,-50.43537 197.0324,-53.48186 196.9707,-56.35715 ZM248.2694,-0.006583333 L248.2694,-4.944083 L248.2694,-4.944083 L216.2481,-4.944083 L216.2481,-4.944083 L216.2481,-35.71458 L216.2481,-35.71458 L243.0027,-35.71458 L243.0027,-35.71458 L243.0027,-40.54675 L243.0027,-40.54675 L216.2481,-40.54675 L216.2481,-40.54675 L216.2481,-67.20925 L216.2481,-67.20925 L246.7947,-67.20925 L246.7947,-67.20925 L246.7947,-72.04142 L246.7947,-72.04142 L210.0466,-72.04142 L210.0466,-72.04142 L210.0466,-0.006583333 Z" fill="#000000" fill-rule="nonzero" /></g></g><g /></g></g></g></g></g></g></g></g></g></svg>