<?xml version="1.0" encoding="UTF-8" standalone="no"?>
<svg xmlns:dc="http://purl.org/dc/elements/1.1/" xmlns:cc="http://creativecommons.org/ns#" xmlns:rdf="http://www.w3.org/1999/02/22-rdf-syntax-ns#" xmlns:svg="http://www.w3.org/2000/svg" xmlns="http://www.w3.org/2000/svg" viewBox="7.1625 1.5625 622.23745 360.475" height="360.475" width="622.23745" xml:space="preserve" version="1.1" id="svg2">
  <metadata id="metadata8">
    <rdf:RDF>
      <cc:Work rdf:about="">
        <dc:format>image/svg+xml</dc:format>
        <dc:type rdf:resource="http://purl.org/dc/dcmitype/StillImage"/>
      </cc:Work>
    </rdf:RDF>
  </metadata>
  <defs id="defs6">
    <clipPath id="clipPath16" clipPathUnits="userSpaceOnUse">
      <path style="clip-rule:evenodd" id="path18" d="m 0.9599,321.48 502.56,0 0,290.52 -502.56,0 0,-290.52 z"/>
    </clipPath>
    <clipPath id="clipPath34" clipPathUnits="userSpaceOnUse">
      <path style="clip-rule:evenodd" id="path36" d="m 49.92,371.52 441.24,0 0,213.48 -441.24,0 0,-213.48 z"/>
    </clipPath>
    <clipPath id="clipPath44" clipPathUnits="userSpaceOnUse">
      <path style="clip-rule:evenodd" id="path46" d="m 5.76,322.44 496.2,0 0,288.24 -496.2,0 0,-288.24 z"/>
    </clipPath>
    <clipPath id="clipPath56" clipPathUnits="userSpaceOnUse">
      <path style="clip-rule:evenodd" id="path58" d="m 5.76,322.44 496.2,0 0,288.24 -496.2,0 0,-288.24 z"/>
    </clipPath>
    <clipPath id="clipPath68" clipPathUnits="userSpaceOnUse">
      <path style="clip-rule:evenodd" id="path70" d="m 5.76,322.44 496.2,0 0,288.24 -496.2,0 0,-288.24 z"/>
    </clipPath>
    <clipPath id="clipPath80" clipPathUnits="userSpaceOnUse">
      <path style="clip-rule:evenodd" id="path82" d="m 5.76,322.44 496.2,0 0,288.24 -496.2,0 0,-288.24 z"/>
    </clipPath>
    <clipPath id="clipPath92" clipPathUnits="userSpaceOnUse">
      <path style="clip-rule:evenodd" id="path94" d="m 5.76,322.44 496.2,0 0,288.24 -496.2,0 0,-288.24 z"/>
    </clipPath>
    <clipPath id="clipPath104" clipPathUnits="userSpaceOnUse">
      <path style="clip-rule:evenodd" id="path106" d="m 5.76,322.44 496.2,0 0,288.24 -496.2,0 0,-288.24 z"/>
    </clipPath>
    <clipPath id="clipPath116" clipPathUnits="userSpaceOnUse">
      <path style="clip-rule:evenodd" id="path118" d="m 5.76,322.44 496.2,0 0,288.24 -496.2,0 0,-288.24 z"/>
    </clipPath>
    <clipPath id="clipPath128" clipPathUnits="userSpaceOnUse">
      <path style="clip-rule:evenodd" id="path130" d="m 5.76,322.44 496.2,0 0,288.24 -496.2,0 0,-288.24 z"/>
    </clipPath>
    <clipPath id="clipPath140" clipPathUnits="userSpaceOnUse">
      <path style="clip-rule:evenodd" id="path142" d="m 5.76,322.44 496.2,0 0,288.24 -496.2,0 0,-288.24 z"/>
    </clipPath>
    <clipPath id="clipPath152" clipPathUnits="userSpaceOnUse">
      <path style="clip-rule:evenodd" id="path154" d="m 5.76,322.44 496.2,0 0,288.24 -496.2,0 0,-288.24 z"/>
    </clipPath>
    <clipPath id="clipPath164" clipPathUnits="userSpaceOnUse">
      <path style="clip-rule:evenodd" id="path166" d="m 5.76,322.44 496.2,0 0,288.24 -496.2,0 0,-288.24 z"/>
    </clipPath>
    <clipPath id="clipPath176" clipPathUnits="userSpaceOnUse">
      <path style="clip-rule:evenodd" id="path178" d="m 5.76,322.44 496.2,0 0,288.24 -496.2,0 0,-288.24 z"/>
    </clipPath>
    <clipPath id="clipPath188" clipPathUnits="userSpaceOnUse">
      <path style="clip-rule:evenodd" id="path190" d="m 5.76,322.44 496.2,0 0,288.24 -496.2,0 0,-288.24 z"/>
    </clipPath>
    <clipPath id="clipPath200" clipPathUnits="userSpaceOnUse">
      <path style="clip-rule:evenodd" id="path202" d="m 5.76,322.44 496.2,0 0,288.24 -496.2,0 0,-288.24 z"/>
    </clipPath>
    <clipPath id="clipPath212" clipPathUnits="userSpaceOnUse">
      <path style="clip-rule:evenodd" id="path214" d="m 5.76,322.44 496.2,0 0,288.24 -496.2,0 0,-288.24 z"/>
    </clipPath>
    <clipPath id="clipPath224" clipPathUnits="userSpaceOnUse">
      <path style="clip-rule:evenodd" id="path226" d="m 5.76,322.44 496.2,0 0,288.24 -496.2,0 0,-288.24 z"/>
    </clipPath>
    <clipPath id="clipPath236" clipPathUnits="userSpaceOnUse">
      <path style="clip-rule:evenodd" id="path238" d="m 5.76,322.44 496.2,0 0,288.24 -496.2,0 0,-288.24 z"/>
    </clipPath>
    <clipPath id="clipPath248" clipPathUnits="userSpaceOnUse">
      <path style="clip-rule:evenodd" id="path250" d="m 5.76,322.44 496.2,0 0,288.24 -496.2,0 0,-288.24 z"/>
    </clipPath>
    <clipPath id="clipPath260" clipPathUnits="userSpaceOnUse">
      <path style="clip-rule:evenodd" id="path262" d="m 5.76,322.44 496.2,0 0,288.24 -496.2,0 0,-288.24 z"/>
    </clipPath>
    <clipPath id="clipPath272" clipPathUnits="userSpaceOnUse">
      <path style="clip-rule:evenodd" id="path274" d="m 5.76,322.44 496.2,0 0,288.24 -496.2,0 0,-288.24 z"/>
    </clipPath>
    <clipPath id="clipPath284" clipPathUnits="userSpaceOnUse">
      <path style="clip-rule:evenodd" id="path286" d="m 5.76,322.44 496.2,0 0,288.24 -496.2,0 0,-288.24 z"/>
    </clipPath>
    <clipPath id="clipPath296" clipPathUnits="userSpaceOnUse">
      <path style="clip-rule:evenodd" id="path298" d="m 5.76,322.44 496.2,0 0,288.24 -496.2,0 0,-288.24 z"/>
    </clipPath>
    <clipPath id="clipPath308" clipPathUnits="userSpaceOnUse">
      <path style="clip-rule:evenodd" id="path310" d="m 5.76,322.44 496.2,0 0,288.24 -496.2,0 0,-288.24 z"/>
    </clipPath>
    <clipPath id="clipPath320" clipPathUnits="userSpaceOnUse">
      <path style="clip-rule:evenodd" id="path322" d="m 5.76,322.44 496.2,0 0,288.24 -496.2,0 0,-288.24 z"/>
    </clipPath>
    <clipPath id="clipPath332" clipPathUnits="userSpaceOnUse">
      <path style="clip-rule:evenodd" id="path334" d="m 5.76,322.44 496.2,0 0,288.24 -496.2,0 0,-288.24 z"/>
    </clipPath>
    <clipPath id="clipPath344" clipPathUnits="userSpaceOnUse">
      <path style="clip-rule:evenodd" id="path346" d="m 5.76,322.44 496.2,0 0,288.24 -496.2,0 0,-288.24 z"/>
    </clipPath>
    <clipPath id="clipPath356" clipPathUnits="userSpaceOnUse">
      <path style="clip-rule:evenodd" id="path358" d="m 5.76,322.44 496.2,0 0,288.24 -496.2,0 0,-288.24 z"/>
    </clipPath>
    <clipPath id="clipPath368" clipPathUnits="userSpaceOnUse">
      <path style="clip-rule:evenodd" id="path370" d="m 5.76,322.44 496.2,0 0,288.24 -496.2,0 0,-288.24 z"/>
    </clipPath>
    <clipPath id="clipPath380" clipPathUnits="userSpaceOnUse">
      <path style="clip-rule:evenodd" id="path382" d="m 5.76,322.44 496.2,0 0,288.24 -496.2,0 0,-288.24 z"/>
    </clipPath>
    <clipPath id="clipPath392" clipPathUnits="userSpaceOnUse">
      <path style="clip-rule:evenodd" id="path394" d="m 5.76,322.44 496.2,0 0,288.24 -496.2,0 0,-288.24 z"/>
    </clipPath>
    <clipPath id="clipPath404" clipPathUnits="userSpaceOnUse">
      <path style="clip-rule:evenodd" id="path406" d="m 5.76,322.44 496.2,0 0,288.24 -496.2,0 0,-288.24 z"/>
    </clipPath>
    <clipPath id="clipPath416" clipPathUnits="userSpaceOnUse">
      <path style="clip-rule:evenodd" id="path418" d="m 5.76,322.44 496.2,0 0,288.24 -496.2,0 0,-288.24 z"/>
    </clipPath>
    <clipPath id="clipPath428" clipPathUnits="userSpaceOnUse">
      <path style="clip-rule:evenodd" id="path430" d="m 5.76,322.44 496.2,0 0,288.24 -496.2,0 0,-288.24 z"/>
    </clipPath>
    <clipPath id="clipPath440" clipPathUnits="userSpaceOnUse">
      <path style="clip-rule:evenodd" id="path442" d="m 5.76,322.44 496.2,0 0,288.24 -496.2,0 0,-288.24 z"/>
    </clipPath>
    <clipPath id="clipPath452" clipPathUnits="userSpaceOnUse">
      <path style="clip-rule:evenodd" id="path454" d="m 5.76,322.44 496.2,0 0,288.24 -496.2,0 0,-288.24 z"/>
    </clipPath>
    <clipPath id="clipPath464" clipPathUnits="userSpaceOnUse">
      <path style="clip-rule:evenodd" id="path466" d="m 5.76,322.44 496.2,0 0,288.24 -496.2,0 0,-288.24 z"/>
    </clipPath>
    <clipPath id="clipPath476" clipPathUnits="userSpaceOnUse">
      <path style="clip-rule:evenodd" id="path478" d="m 5.76,322.44 496.2,0 0,288.24 -496.2,0 0,-288.24 z"/>
    </clipPath>
    <clipPath id="clipPath488" clipPathUnits="userSpaceOnUse">
      <path style="clip-rule:evenodd" id="path490" d="m 5.76,322.44 496.2,0 0,288.24 -496.2,0 0,-288.24 z"/>
    </clipPath>
    <clipPath id="clipPath500" clipPathUnits="userSpaceOnUse">
      <path style="clip-rule:evenodd" id="path502" d="m 5.76,322.44 496.2,0 0,288.24 -496.2,0 0,-288.24 z"/>
    </clipPath>
    <clipPath id="clipPath512" clipPathUnits="userSpaceOnUse">
      <path style="clip-rule:evenodd" id="path514" d="m 5.76,322.44 496.2,0 0,288.24 -496.2,0 0,-288.24 z"/>
    </clipPath>
    <clipPath id="clipPath524" clipPathUnits="userSpaceOnUse">
      <path style="clip-rule:evenodd" id="path526" d="m 5.76,322.44 496.2,0 0,288.24 -496.2,0 0,-288.24 z"/>
    </clipPath>
    <clipPath id="clipPath540" clipPathUnits="userSpaceOnUse">
      <path style="clip-rule:evenodd" id="path542" d="m 5.76,322.44 496.2,0 0,288.24 -496.2,0 0,-288.24 z"/>
    </clipPath>
    <clipPath id="clipPath554" clipPathUnits="userSpaceOnUse">
      <path style="clip-rule:evenodd" id="path556" d="m 5.76,322.44 496.2,0 0,288.24 -496.2,0 0,-288.24 z"/>
    </clipPath>
    <clipPath id="clipPath570" clipPathUnits="userSpaceOnUse">
      <path style="clip-rule:evenodd" id="path572" d="m 0.95996,321.48 502.56,0 0,290.52 -502.56,0 0,-290.52 z"/>
    </clipPath>
    <clipPath id="clipPath580" clipPathUnits="userSpaceOnUse">
      <path style="clip-rule:evenodd" id="path582" d="m 0.95996,321.48 502.56,0 0,290.52 -502.56,0 0,-290.52 z"/>
    </clipPath>
    <clipPath id="clipPath590" clipPathUnits="userSpaceOnUse">
      <path style="clip-rule:evenodd" id="path592" d="m 0.96001,321.48 502.56,0 0,290.52 -502.56,0 0,-290.52 z"/>
    </clipPath>
    <clipPath id="clipPath602" clipPathUnits="userSpaceOnUse">
      <path style="clip-rule:evenodd" id="path604" d="m 0.96001,321.48 502.56,0 0,290.52 -502.56,0 0,-290.52 z"/>
    </clipPath>
    <clipPath id="clipPath624" clipPathUnits="userSpaceOnUse">
      <path style="clip-rule:evenodd" id="path626" d="m 361.44,375.72 66,0 0,21 -66,0 0,-21 z"/>
    </clipPath>
    <clipPath id="clipPath636" clipPathUnits="userSpaceOnUse">
      <path style="clip-rule:evenodd" id="path638" d="m 361.44,375.72 66,0 0,21 -66,0 0,-21 z"/>
    </clipPath>
    <clipPath id="clipPath648" clipPathUnits="userSpaceOnUse">
      <path style="clip-rule:evenodd" id="path650" d="m 361.44,375.72 66,0 0,21 -66,0 0,-21 z"/>
    </clipPath>
    <clipPath id="clipPath670" clipPathUnits="userSpaceOnUse">
      <path style="clip-rule:evenodd" id="path672" d="m 0.96001,321.48 502.56,0 0,290.52 -502.56,0 0,-290.52 z"/>
    </clipPath>
    <clipPath id="clipPath682" clipPathUnits="userSpaceOnUse">
      <path style="clip-rule:evenodd" id="path684" d="m 201.6,375.6 89.64,0 0,37.68 -89.64,0 0,-37.68 z"/>
    </clipPath>
    <clipPath id="clipPath704" clipPathUnits="userSpaceOnUse">
      <path style="clip-rule:evenodd" id="path706" d="m 153.36,479.28 38.28,0 0,22.92 -38.28,0 0,-22.92 z"/>
    </clipPath>
  </defs>
  <g transform="matrix(1.25,0,0,-1.25,0,765)" id="g10">
    <g id="g12">
      <g clip-path="url(#clipPath16)" id="g14">
        <path id="path20" style="fill:none;stroke:#000000;stroke-width:0.14;stroke-linecap:butt;stroke-linejoin:miter;stroke-miterlimit:10;stroke-dasharray:none;stroke-opacity:0" d="m 5.8,322.44 496.16,0 0,288.24 -496.16,0 0,-288.24 z"/>
      </g>
    </g>
    <path id="path22" style="fill:#ffffff;fill-opacity:1;fill-rule:evenodd;stroke:none" d="m 5.8,322.44 496.16,0 0,288.24 -496.16,0 0,-288.24 z"/>
    <path id="path24" style="fill:none;stroke:#c0c0c0;stroke-width:0.5;stroke-linecap:round;stroke-linejoin:round;stroke-miterlimit:10;stroke-dasharray:none;stroke-opacity:1" d="m 50.025,372.24 440.445,0 m -440.445,30.36 440.445,0 m -440.445,30.48 440.445,0 m -440.445,60.72 440.445,0 m -440.445,30.36 440.445,0 m -440.445,30.48 440.445,0 m -440.445,30.34 440.445,0"/>
    <path id="path26" style="fill:none;stroke:#808080;stroke-width:1.25;stroke-linecap:round;stroke-linejoin:round;stroke-miterlimit:10;stroke-dasharray:none;stroke-opacity:1" d="m 50.025,463.42 440.445,0"/>
    <path id="path28" style="fill:none;stroke:#005aa4;stroke-width:1.5;stroke-linecap:round;stroke-linejoin:round;stroke-miterlimit:10;stroke-dasharray:none;stroke-opacity:1" d="m 50.906,469.2 1.774,6.24 1.8,19.44 1.68,-0.36 1.8,4.08 1.8,2.4 1.68,3 1.8,12 1.8,-11.52 1.68,-1.56 1.8,-14.52 1.8,-6.72 1.68,7.44 1.8,-8.64 1.8,-8.16 1.68,5.64 1.8,-17.28 1.8,-10.92 1.68,-18.6 1.8,4.32 1.8,20.52 1.8,-2.28 1.68,14.52 1.8,9 1.8,-5.76 1.68,2.76 1.8,-0.72 1.8,0.72 1.68,3.72 1.8,17.76 1.8,-5.76 1.68,3 1.8,-2.4 1.8,5.4 1.68,6.48 1.8,-4.8 1.8,3.24 1.68,-4.44 1.8,5.88 1.8,-19.2 1.68,16.2 1.8,1.2 1.8,0 1.8,7.8 1.68,-6.96 1.8,-1.08 1.8,15 1.68,2.4 1.8,15.96 1.8,-0.84 1.68,-0.36 1.8,4.68 1.8,-15.12 1.68,-10.08 1.8,-7.44 1.8,-13.56 1.68,-8.52 1.8,-0.6 1.8,-20.04 1.68,-14.28 1.8,-8.16 1.8,-6.72 1.68,-28.56 1.8,-3.36 1.8,-5.34 1.8,2.1 1.68,7.68 1.8,6.84 1.8,10.92 1.68,0.72 1.8,-0.96 1.8,6.6 1.68,-10.08 1.8,-9.84 1.8,13.32 1.68,17.16 1.8,1.68 1.8,14.28 1.68,11.4 1.8,-4.56 1.8,1.8 1.68,15.48 1.8,-7.92 1.8,4.56 1.68,5.28 1.8,10.2 1.8,-3.36 1.68,-2.16 1.8,3.84 1.8,-4.68 1.8,-7.8 1.68,3.36 1.8,13.68 1.8,-13.32 1.68,10.68 1.8,5.4 1.8,-6.48 1.68,4.2 1.8,3.6 1.8,-12.6 1.68,-5.4 1.8,1.56 1.8,-9.84 1.68,-0.72 1.8,-12.72 1.8,-11.76 1.68,3.36 1.8,-2.28 1.8,-16.08 1.68,0.48 1.8,0.24 1.8,8.64 1.8,15.36 1.68,-4.92 1.8,-0.6 1.8,16.56 1.68,-1.68 1.8,6.48 1.8,-1.68 1.68,-3.72 1.8,-1.08 1.8,-3 1.68,0.72 1.8,2.52 1.8,7.32 1.68,-4.56 1.8,0.48 1.8,-6.6 1.68,5.76 1.8,6.96 1.8,-12 1.68,4.92 1.8,7.08 1.8,2.16 1.8,-4.92 1.68,3.6 1.8,-10.32 1.8,-0.84 1.68,9.12 1.8,-14.64 1.8,-1.92 1.68,-1.08 1.8,-3.6 1.8,-0.12 1.68,1.2 1.8,-6.84 1.8,-0.12 1.68,3.96 1.8,-6.24 1.8,8.16 1.68,3.36 1.8,0.12 1.8,12.36 1.68,-15 1.8,9.96 1.8,9.6 1.8,-16.68 1.68,6.12 1.8,2.76 1.8,-0.12 1.68,1.56 1.8,-0.72 1.8,-6.12 1.68,11.64 1.8,-3.72 1.8,4.68 1.68,-2.28 1.8,3.84 1.8,-8.04 1.68,5.28 1.8,5.76 1.8,-8.52 1.68,2.04 1.8,12.6 1.8,-9.72 1.68,3.6 1.8,-6.24 1.8,0.96 1.68,6.96 1.8,-9.96 1.8,6.12 1.8,3.84 1.68,-8.16 1.8,9.48 1.8,20.28 1.68,-13.56 1.8,-8.76 1.8,-5.28 1.68,0.36 1.8,3.48 1.8,-8.04 1.68,5.88 1.8,-1.8 1.8,0 1.68,-4.8 1.8,-33.48 1.8,9.48 1.68,-7.32 1.8,14.76 1.8,-1.32 1.68,-2.16 1.8,-5.76 1.8,12.84 1.8,-14.04 1.68,12.6 1.8,-11.04 1.8,-4.2 1.68,11.52 1.8,-12.36 1.8,15.36 1.68,10.44 1.8,-0.96 1.8,6.24 1.68,16.08 1.8,-9.96 1.8,-3.72 1.68,-2.88 1.8,3.36 1.8,9.96 1.68,2.64 1.8,-4.08 1.8,-9.72 1.68,-1.2 1.8,1.08 1.8,-5.88 1.8,-10.68 1.68,17.88 1.8,4.32 1.8,-17.76 1.68,-2.64 1.8,0.72 1.8,-13.2 1.68,6.12 1.8,7.2 1.8,-10.44 1.68,5.88 1.8,8.4 1.8,3.24 1.68,-9.72 1.8,1.68 1.8,0.24 1.68,-6.36 1.8,5.16 1.8,-9.48 1.68,2.4 1.8,2.4 1.8,2.52 1.8,-7.08 1.7,-2.04"/>
    <g id="g30">
      <g clip-path="url(#clipPath34)" id="g32">
        <path id="path38" style="fill:none;stroke:#d0b86a;stroke-width:1.5;stroke-linecap:round;stroke-linejoin:round;stroke-miterlimit:10;stroke-dasharray:none;stroke-opacity:1" d="m 93.188,452.64 1.732,-12.84 1.8,4.68 1.8,2.16 1.68,5.76 1.8,-2.64 1.8,12.72 1.68,12.96 1.8,-3.72 1.8,2.64 1.68,-3.84 1.8,20.16 1.8,-12.12 1.68,2.64 1.8,-5.28 1.8,3.12 1.68,-0.12 1.8,1.92 1.8,-15.12 1.8,6.96 1.68,-2.52 1.8,12.36 1.8,16.8 1.68,-18.12 1.8,9.12 1.8,4.08 1.68,6.96 1.8,-2.64 1.8,4.2 1.68,0.84 1.8,3.84 1.8,-26.28 1.68,5.52 1.8,-7.8 1.8,-21.36 1.68,1.2 1.8,-2.88 1.8,-3 1.68,-10.92 1.8,-16.08 1.8,-3.48 1.8,-2.16 1.68,-0.48 1.8,13.92 1.8,-2.64 1.68,-2.04 1.8,4.2 1.8,6.6 1.68,-19.68 1.8,3.72 1.8,-8.16 1.68,18.84 1.8,-11.88 1.8,-0.12 1.68,9.96 1.8,15.36 1.8,-7.68 1.68,2.04 1.8,5.04 1.8,1.8 1.68,6 1.8,2.16 1.8,4.8 1.68,-2.76 1.8,8.4 1.8,8.04 1.8,-5.52 1.68,-3.6 1.8,6.24 1.8,0.48 1.68,-1.68 1.8,-1.08 1.8,3.36 1.68,-1.68 1.8,2.88 1.8,-8.76 1.68,0.24 1.8,-3.72 1.8,-3.96 1.68,8.16 1.8,-10.68 1.8,0.36 1.68,4.68 1.8,0.96 1.8,-0.84 1.68,-5.28 1.8,3.24 1.8,16.56 1.8,-2.04 1.68,-15.24 1.8,8.28 1.8,-1.08 1.68,10.68 1.8,0.48 1.8,-1.32 1.68,-12.84 1.8,12.96 1.8,6.6 1.68,-0.96 1.8,-8.52 1.8,5.4 1.68,9.6 1.8,4.2 1.8,-9 1.68,-0.96 1.8,1.08 1.8,6.96 1.68,10.08 1.8,-10.32 1.8,2.64 1.8,-1.32 1.68,7.2 1.8,-5.16 1.8,12.84 1.68,-6 1.8,-6.6 1.8,6.84 1.68,-0.96 1.8,-14.76 1.8,7.92 1.68,8.16 1.8,-1.56 1.8,2.88 1.68,-3.24 1.8,-5.4 1.8,-0.96 1.68,-11.52 1.8,14.04 1.8,-2.52 1.68,-5.52 1.8,9 1.8,-2.88 1.8,-3 1.68,-1.92 1.8,-2.16 1.8,-2.76 1.68,16.68 1.8,-13.92 1.8,12.48 1.68,5.16 1.8,-1.56 1.8,3.12 1.68,2.76 1.8,-4.56 1.8,0.36 1.68,-4.08 1.8,2.4 1.8,-0.12 1.68,-3.12 1.8,6.6 1.8,-0.72 1.68,5.16 1.8,-6.36 1.8,-1.44 1.68,0.12 1.8,3.12 1.8,0.96 1.8,0.12 1.68,20.52 1.8,43.79 1.8,-25.31 1.68,-20.88 1.8,-19.56 1.8,-32.28 1.68,4.8 1.8,-2.64 1.8,-11.76 1.68,3.96 1.8,-7.2 1.8,6.12 1.68,-46.08 1.8,-294.44 1.8,174.2 1.68,112.32 1.8,26.88 1.8,40.8 1.68,-7.92 1.8,0.24 1.8,8.64 1.8,-7.32 1.68,-9.84 1.8,-2.76 1.8,12.84 1.68,10.44 1.8,-9.24 1.8,-17.28 1.68,10.68 1.8,-6.96 1.8,-3.6 1.68,-1.32 1.8,-6 1.8,-1.92 1.68,8.88 1.8,-2.04 1.8,-11.64 1.68,-2.88 1.8,2.52 1.8,-1.68 1.68,3.6 1.8,2.76 1.8,6.24 1.8,3 1.68,7.2 1.8,-1.2 1.8,12.12 1.68,-5.76 1.8,5.28 1.8,-2.04 1.68,10.56 1.8,0.96 1.8,-2.64 1.68,-2.88 1.8,-4.32 1.8,-1.56 1.68,-3.72 1.8,2.28 1.8,-5.28 1.68,1.56 1.8,-0.24 1.8,-4.32 1.68,-8.64 1.8,-2.88 1.78,-6.12"/>
      </g>
    </g>
    <g id="g40">
      <g clip-path="url(#clipPath44)" id="g42"><text id="text48" style="font-variant:normal;font-weight:normal;font-size:9px;font-family:'Roboto Condensed';-inkscape-font-specification:RobotoCondensed-Regular;writing-mode:lr-tb;fill:#000000;fill-opacity:1;fill-rule:nonzero;stroke:none" transform="matrix(1,0,0,-1,21.768,369.53)"><tspan id="tspan50" y="0" x="0 2.2679999 6.7140002 11.16 15.606">-3000</tspan></text>
</g>
    </g>
    <g id="g52">
      <g clip-path="url(#clipPath56)" id="g54"><text id="text60" style="font-variant:normal;font-weight:normal;font-size:9px;font-family:'Roboto Condensed';-inkscape-font-specification:RobotoCondensed-Regular;writing-mode:lr-tb;fill:#000000;fill-opacity:1;fill-rule:nonzero;stroke:none" transform="matrix(1,0,0,-1,21.768,399.91)"><tspan id="tspan62" y="0" x="0 2.2679999 6.7140002 11.16 15.606">-2000</tspan></text>
</g>
    </g>
    <g id="g64">
      <g clip-path="url(#clipPath68)" id="g66"><text id="text72" style="font-variant:normal;font-weight:normal;font-size:9px;font-family:'Roboto Condensed';-inkscape-font-specification:RobotoCondensed-Regular;writing-mode:lr-tb;fill:#000000;fill-opacity:1;fill-rule:nonzero;stroke:none" transform="matrix(1,0,0,-1,21.768,430.32)"><tspan id="tspan74" y="0" x="0 2.2679999 6.7140002 11.16 15.606">-1000</tspan></text>
</g>
    </g>
    <g id="g76">
      <g clip-path="url(#clipPath80)" id="g78"><text id="text84" style="font-variant:normal;font-weight:normal;font-size:9px;font-family:'Roboto Condensed';-inkscape-font-specification:RobotoCondensed-Regular;writing-mode:lr-tb;fill:#000000;fill-opacity:1;fill-rule:nonzero;stroke:none" transform="matrix(1,0,0,-1,37.344,460.73)"><tspan id="tspan86" y="0" x="0">0</tspan></text>
</g>
    </g>
    <g id="g88">
      <g clip-path="url(#clipPath92)" id="g90"><text id="text96" style="font-variant:normal;font-weight:normal;font-size:9px;font-family:'Roboto Condensed';-inkscape-font-specification:RobotoCondensed-Regular;writing-mode:lr-tb;fill:#000000;fill-opacity:1;fill-rule:nonzero;stroke:none" transform="matrix(1,0,0,-1,24,491.11)"><tspan id="tspan98" y="0" x="0 4.4400001 8.8800001 13.32">1000</tspan></text>
</g>
    </g>
    <g id="g100">
      <g clip-path="url(#clipPath104)" id="g102"><text id="text108" style="font-variant:normal;font-weight:normal;font-size:9px;font-family:'Roboto Condensed';-inkscape-font-specification:RobotoCondensed-Regular;writing-mode:lr-tb;fill:#000000;fill-opacity:1;fill-rule:nonzero;stroke:none" transform="matrix(1,0,0,-1,24,521.52)"><tspan id="tspan110" y="0" x="0 4.4400001 8.8800001 13.32">2000</tspan></text>
</g>
    </g>
    <g id="g112">
      <g clip-path="url(#clipPath116)" id="g114"><text id="text120" style="font-variant:normal;font-weight:normal;font-size:9px;font-family:'Roboto Condensed';-inkscape-font-specification:RobotoCondensed-Regular;writing-mode:lr-tb;fill:#000000;fill-opacity:1;fill-rule:nonzero;stroke:none" transform="matrix(1,0,0,-1,24,551.9)"><tspan id="tspan122" y="0" x="0 4.4400001 8.8800001 13.32">3000</tspan></text>
</g>
    </g>
    <g id="g124">
      <g clip-path="url(#clipPath128)" id="g126"><text id="text132" style="font-variant:normal;font-weight:normal;font-size:9px;font-family:'Roboto Condensed';-inkscape-font-specification:RobotoCondensed-Regular;writing-mode:lr-tb;fill:#000000;fill-opacity:1;fill-rule:nonzero;stroke:none" transform="matrix(1,0,0,-1,24,582.31)"><tspan id="tspan134" y="0" x="0 4.4400001 8.8800001 13.32">4000</tspan></text>
</g>
    </g>
    <g id="g136">
      <g clip-path="url(#clipPath140)" id="g138"><text id="text144" style="font-variant:normal;font-weight:normal;font-size:9px;font-family:'Roboto Condensed';-inkscape-font-specification:RobotoCondensed-Regular;writing-mode:lr-tb;fill:#000000;fill-opacity:1;fill-rule:nonzero;stroke:none" transform="matrix(-4.4e-8,1,1,4.4e-8,54.024,342.36)"><tspan id="tspan146" y="0" x="0 4.3200002 8.6309996 12.96 15.228 19.674">Jan-05</tspan></text>
</g>
    </g>
    <g id="g148">
      <g clip-path="url(#clipPath152)" id="g150"><text id="text156" style="font-variant:normal;font-weight:normal;font-size:9px;font-family:'Roboto Condensed';-inkscape-font-specification:RobotoCondensed-Regular;writing-mode:lr-tb;fill:#000000;fill-opacity:1;fill-rule:nonzero;stroke:none" transform="matrix(-4.4e-8,1,1,4.4e-8,68.136,342.05)"><tspan id="tspan158" y="0" x="0 4.6620002 8.8739996 13.311 15.588 20.034">Sep-05</tspan></text>
</g>
    </g>
    <g id="g160">
      <g clip-path="url(#clipPath164)" id="g162"><text id="text168" style="font-variant:normal;font-weight:normal;font-size:9px;font-family:'Roboto Condensed';-inkscape-font-specification:RobotoCondensed-Regular;writing-mode:lr-tb;fill:#000000;fill-opacity:1;fill-rule:nonzero;stroke:none" transform="matrix(-4.4e-8,1,1,4.4e-8,82.224,340.51)"><tspan id="tspan170" y="0" x="0 6.8309999 11.142 14.895 17.028 21.474001">May-06</tspan></text>
</g>
    </g>
    <g id="g172">
      <g clip-path="url(#clipPath176)" id="g174"><text id="text180" style="font-variant:normal;font-weight:normal;font-size:9px;font-family:'Roboto Condensed';-inkscape-font-specification:RobotoCondensed-Regular;writing-mode:lr-tb;fill:#000000;fill-opacity:1;fill-rule:nonzero;stroke:none" transform="matrix(-4.4e-8,1,1,4.4e-8,96.312,342.36)"><tspan id="tspan182" y="0" x="0 4.3200002 8.6309996 12.96 15.228 19.674">Jan-07</tspan></text>
</g>
    </g>
    <g id="g184">
      <g clip-path="url(#clipPath188)" id="g186"><text id="text192" style="font-variant:normal;font-weight:normal;font-size:9px;font-family:'Roboto Condensed';-inkscape-font-specification:RobotoCondensed-Regular;writing-mode:lr-tb;fill:#000000;fill-opacity:1;fill-rule:nonzero;stroke:none" transform="matrix(-4.4e-8,1,1,4.4e-8,110.42,342.05)"><tspan id="tspan194" y="0" x="0 4.6620002 8.8739996 13.311 15.588 20.034">Sep-07</tspan></text>
</g>
    </g>
    <g id="g196">
      <g clip-path="url(#clipPath200)" id="g198"><text id="text204" style="font-variant:normal;font-weight:normal;font-size:9px;font-family:'Roboto Condensed';-inkscape-font-specification:RobotoCondensed-Regular;writing-mode:lr-tb;fill:#000000;fill-opacity:1;fill-rule:nonzero;stroke:none" transform="matrix(-4.4e-8,1,1,4.4e-8,124.51,340.51)"><tspan id="tspan206" y="0" x="0 6.8309999 11.142 14.895 17.028 21.474001">May-08</tspan></text>
</g>
    </g>
    <g id="g208">
      <g clip-path="url(#clipPath212)" id="g210"><text id="text216" style="font-variant:normal;font-weight:normal;font-size:9px;font-family:'Roboto Condensed';-inkscape-font-specification:RobotoCondensed-Regular;writing-mode:lr-tb;fill:#000000;fill-opacity:1;fill-rule:nonzero;stroke:none" transform="matrix(-4.4e-8,1,1,4.4e-8,138.6,342.36)"><tspan id="tspan218" y="0" x="0 4.3200002 8.6309996 12.96 15.228 19.674">Jan-09</tspan></text>
</g>
    </g>
    <g id="g220">
      <g clip-path="url(#clipPath224)" id="g222"><text id="text228" style="font-variant:normal;font-weight:normal;font-size:9px;font-family:'Roboto Condensed';-inkscape-font-specification:RobotoCondensed-Regular;writing-mode:lr-tb;fill:#000000;fill-opacity:1;fill-rule:nonzero;stroke:none" transform="matrix(-4.4e-8,1,1,4.4e-8,152.71,342.05)"><tspan id="tspan230" y="0" x="0 4.6620002 8.8739996 13.311 15.588 20.034">Sep-09</tspan></text>
</g>
    </g>
    <g id="g232">
      <g clip-path="url(#clipPath236)" id="g234"><text id="text240" style="font-variant:normal;font-weight:normal;font-size:9px;font-family:'Roboto Condensed';-inkscape-font-specification:RobotoCondensed-Regular;writing-mode:lr-tb;fill:#000000;fill-opacity:1;fill-rule:nonzero;stroke:none" transform="matrix(-4.4e-8,1,1,4.4e-8,166.8,340.51)"><tspan id="tspan242" y="0" x="0 6.8309999 11.142 14.895 17.028 21.474001">May-10</tspan></text>
</g>
    </g>
    <g id="g244">
      <g clip-path="url(#clipPath248)" id="g246"><text id="text252" style="font-variant:normal;font-weight:normal;font-size:9px;font-family:'Roboto Condensed';-inkscape-font-specification:RobotoCondensed-Regular;writing-mode:lr-tb;fill:#000000;fill-opacity:1;fill-rule:nonzero;stroke:none" transform="matrix(-4.4e-8,1,1,4.4e-8,180.89,342.36)"><tspan id="tspan254" y="0" x="0 4.3200002 8.6309996 12.96 15.228 19.674">Jan-11</tspan></text>
</g>
    </g>
    <g id="g256">
      <g clip-path="url(#clipPath260)" id="g258"><text id="text264" style="font-variant:normal;font-weight:normal;font-size:9px;font-family:'Roboto Condensed';-inkscape-font-specification:RobotoCondensed-Regular;writing-mode:lr-tb;fill:#000000;fill-opacity:1;fill-rule:nonzero;stroke:none" transform="matrix(-4.4e-8,1,1,4.4e-8,195,342.05)"><tspan id="tspan266" y="0" x="0 4.6620002 8.8739996 13.311 15.588 20.034">Sep-11</tspan></text>
</g>
    </g>
    <g id="g268">
      <g clip-path="url(#clipPath272)" id="g270"><text id="text276" style="font-variant:normal;font-weight:normal;font-size:9px;font-family:'Roboto Condensed';-inkscape-font-specification:RobotoCondensed-Regular;writing-mode:lr-tb;fill:#000000;fill-opacity:1;fill-rule:nonzero;stroke:none" transform="matrix(-4.4e-8,1,1,4.4e-8,209.09,340.51)"><tspan id="tspan278" y="0" x="0 6.8309999 11.142 14.895 17.028 21.474001">May-12</tspan></text>
</g>
    </g>
    <g id="g280">
      <g clip-path="url(#clipPath284)" id="g282"><text id="text288" style="font-variant:normal;font-weight:normal;font-size:9px;font-family:'Roboto Condensed';-inkscape-font-specification:RobotoCondensed-Regular;writing-mode:lr-tb;fill:#000000;fill-opacity:1;fill-rule:nonzero;stroke:none" transform="matrix(-4.4e-8,1,1,4.4e-8,223.18,342.36)"><tspan id="tspan290" y="0" x="0 4.3200002 8.6309996 12.96 15.228 19.674">Jan-13</tspan></text>
</g>
    </g>
    <g id="g292">
      <g clip-path="url(#clipPath296)" id="g294"><text id="text300" style="font-variant:normal;font-weight:normal;font-size:9px;font-family:'Roboto Condensed';-inkscape-font-specification:RobotoCondensed-Regular;writing-mode:lr-tb;fill:#000000;fill-opacity:1;fill-rule:nonzero;stroke:none" transform="matrix(-4.4e-8,1,1,4.4e-8,237.29,342.05)"><tspan id="tspan302" y="0" x="0 4.6620002 8.8739996 13.311 15.588 20.034">Sep-13</tspan></text>
</g>
    </g>
    <g id="g304">
      <g clip-path="url(#clipPath308)" id="g306"><text id="text312" style="font-variant:normal;font-weight:normal;font-size:9px;font-family:'Roboto Condensed';-inkscape-font-specification:RobotoCondensed-Regular;writing-mode:lr-tb;fill:#000000;fill-opacity:1;fill-rule:nonzero;stroke:none" transform="matrix(-4.4e-8,1,1,4.4e-8,251.38,340.51)"><tspan id="tspan314" y="0" x="0 6.8309999 11.142 14.895 17.028 21.474001">May-14</tspan></text>
</g>
    </g>
    <g id="g316">
      <g clip-path="url(#clipPath320)" id="g318"><text id="text324" style="font-variant:normal;font-weight:normal;font-size:9px;font-family:'Roboto Condensed';-inkscape-font-specification:RobotoCondensed-Regular;writing-mode:lr-tb;fill:#000000;fill-opacity:1;fill-rule:nonzero;stroke:none" transform="matrix(-4.4e-8,1,1,4.4e-8,265.46,342.36)"><tspan id="tspan326" y="0" x="0 4.3200002 8.6309996 12.96 15.228 19.674">Jan-15</tspan></text>
</g>
    </g>
    <g id="g328">
      <g clip-path="url(#clipPath332)" id="g330"><text id="text336" style="font-variant:normal;font-weight:normal;font-size:9.02400017px;font-family:'Roboto Condensed';-inkscape-font-specification:RobotoCondensed-Regular;writing-mode:lr-tb;fill:#000000;fill-opacity:1;fill-rule:nonzero;stroke:none" transform="matrix(-4.4e-8,1,1,4.4e-8,279.55,342.05)"><tspan id="tspan338" y="0" x="0 4.6744318 8.8976641 13.346496 15.584448 20.042303">Sep-15</tspan></text>
</g>
    </g>
    <g id="g340">
      <g clip-path="url(#clipPath344)" id="g342"><text id="text348" style="font-variant:normal;font-weight:normal;font-size:9px;font-family:'Roboto Condensed';-inkscape-font-specification:RobotoCondensed-Regular;writing-mode:lr-tb;fill:#000000;fill-opacity:1;fill-rule:nonzero;stroke:none" transform="matrix(-4.4e-8,1,1,4.4e-8,293.66,340.51)"><tspan id="tspan350" y="0" x="0 6.8309999 11.142 14.895 17.028 21.474001">May-16</tspan></text>
</g>
    </g>
    <g id="g352">
      <g clip-path="url(#clipPath356)" id="g354"><text id="text360" style="font-variant:normal;font-weight:normal;font-size:9px;font-family:'Roboto Condensed';-inkscape-font-specification:RobotoCondensed-Regular;writing-mode:lr-tb;fill:#000000;fill-opacity:1;fill-rule:nonzero;stroke:none" transform="matrix(-4.4e-8,1,1,4.4e-8,307.75,342.36)"><tspan id="tspan362" y="0" x="0 4.3200002 8.6309996 12.96 15.228 19.674">Jan-17</tspan></text>
</g>
    </g>
    <g id="g364">
      <g clip-path="url(#clipPath368)" id="g366"><text id="text372" style="font-variant:normal;font-weight:normal;font-size:9.02400017px;font-family:'Roboto Condensed';-inkscape-font-specification:RobotoCondensed-Regular;writing-mode:lr-tb;fill:#000000;fill-opacity:1;fill-rule:nonzero;stroke:none" transform="matrix(-4.4e-8,1,1,4.4e-8,321.84,342.05)"><tspan id="tspan374" y="0" x="0 4.6744318 8.8976641 13.346496 15.584448 20.042303">Sep-17</tspan></text>
</g>
    </g>
    <g id="g376">
      <g clip-path="url(#clipPath380)" id="g378"><text id="text384" style="font-variant:normal;font-weight:normal;font-size:9px;font-family:'Roboto Condensed';-inkscape-font-specification:RobotoCondensed-Regular;writing-mode:lr-tb;fill:#000000;fill-opacity:1;fill-rule:nonzero;stroke:none" transform="matrix(-4.4e-8,1,1,4.4e-8,335.95,340.51)"><tspan id="tspan386" y="0" x="0 6.8309999 11.142 14.895 17.028 21.474001">May-18</tspan></text>
</g>
    </g>
    <g id="g388">
      <g clip-path="url(#clipPath392)" id="g390"><text id="text396" style="font-variant:normal;font-weight:normal;font-size:9px;font-family:'Roboto Condensed';-inkscape-font-specification:RobotoCondensed-Regular;writing-mode:lr-tb;fill:#000000;fill-opacity:1;fill-rule:nonzero;stroke:none" transform="matrix(-4.4e-8,1,1,4.4e-8,350.04,342.36)"><tspan id="tspan398" y="0" x="0 4.3200002 8.6309996 12.96 15.228 19.674">Jan-19</tspan></text>
</g>
    </g>
    <g id="g400">
      <g clip-path="url(#clipPath404)" id="g402"><text id="text408" style="font-variant:normal;font-weight:normal;font-size:9px;font-family:'Roboto Condensed';-inkscape-font-specification:RobotoCondensed-Regular;writing-mode:lr-tb;fill:#000000;fill-opacity:1;fill-rule:nonzero;stroke:none" transform="matrix(-4.4e-8,1,1,4.4e-8,364.13,342.05)"><tspan id="tspan410" y="0" x="0 4.6620002 8.8739996 13.311 15.588 20.034">Sep-19</tspan></text>
</g>
    </g>
    <g id="g412">
      <g clip-path="url(#clipPath416)" id="g414"><text id="text420" style="font-variant:normal;font-weight:normal;font-size:9px;font-family:'Roboto Condensed';-inkscape-font-specification:RobotoCondensed-Regular;writing-mode:lr-tb;fill:#000000;fill-opacity:1;fill-rule:nonzero;stroke:none" transform="matrix(-4.4e-8,1,1,4.4e-8,378.24,340.51)"><tspan id="tspan422" y="0" x="0 6.8309999 11.142 14.895 17.028 21.474001">May-20</tspan></text>
</g>
    </g>
    <g id="g424">
      <g clip-path="url(#clipPath428)" id="g426"><text id="text432" style="font-variant:normal;font-weight:normal;font-size:9px;font-family:'Roboto Condensed';-inkscape-font-specification:RobotoCondensed-Regular;writing-mode:lr-tb;fill:#000000;fill-opacity:1;fill-rule:nonzero;stroke:none" transform="matrix(-4.4e-8,1,1,4.4e-8,392.33,342.36)"><tspan id="tspan434" y="0" x="0 4.3200002 8.6309996 12.96 15.228 19.674">Jan-21</tspan></text>
</g>
    </g>
    <g id="g436">
      <g clip-path="url(#clipPath440)" id="g438"><text id="text444" style="font-variant:normal;font-weight:normal;font-size:9px;font-family:'Roboto Condensed';-inkscape-font-specification:RobotoCondensed-Regular;writing-mode:lr-tb;fill:#000000;fill-opacity:1;fill-rule:nonzero;stroke:none" transform="matrix(-4.4e-8,1,1,4.4e-8,406.42,342.05)"><tspan id="tspan446" y="0" x="0 4.6620002 8.8739996 13.311 15.588 20.034">Sep-21</tspan></text>
</g>
    </g>
    <g id="g448">
      <g clip-path="url(#clipPath452)" id="g450"><text id="text456" style="font-variant:normal;font-weight:normal;font-size:9px;font-family:'Roboto Condensed';-inkscape-font-specification:RobotoCondensed-Regular;writing-mode:lr-tb;fill:#000000;fill-opacity:1;fill-rule:nonzero;stroke:none" transform="matrix(-4.4e-8,1,1,4.4e-8,420.53,340.51)"><tspan id="tspan458" y="0" x="0 6.8309999 11.142 14.895 17.028 21.474001">May-22</tspan></text>
</g>
    </g>
    <g id="g460">
      <g clip-path="url(#clipPath464)" id="g462"><text id="text468" style="font-variant:normal;font-weight:normal;font-size:9px;font-family:'Roboto Condensed';-inkscape-font-specification:RobotoCondensed-Regular;writing-mode:lr-tb;fill:#000000;fill-opacity:1;fill-rule:nonzero;stroke:none" transform="matrix(-4.4e-8,1,1,4.4e-8,434.62,342.36)"><tspan id="tspan470" y="0" x="0 4.3200002 8.6309996 12.96 15.228 19.674">Jan-23</tspan></text>
</g>
    </g>
    <g id="g472">
      <g clip-path="url(#clipPath476)" id="g474"><text id="text480" style="font-variant:normal;font-weight:normal;font-size:9px;font-family:'Roboto Condensed';-inkscape-font-specification:RobotoCondensed-Regular;writing-mode:lr-tb;fill:#000000;fill-opacity:1;fill-rule:nonzero;stroke:none" transform="matrix(-4.4e-8,1,1,4.4e-8,448.7,342.05)"><tspan id="tspan482" y="0" x="0 4.6620002 8.8739996 13.311 15.588 20.034">Sep-23</tspan></text>
</g>
    </g>
    <g id="g484">
      <g clip-path="url(#clipPath488)" id="g486"><text id="text492" style="font-variant:normal;font-weight:normal;font-size:9px;font-family:'Roboto Condensed';-inkscape-font-specification:RobotoCondensed-Regular;writing-mode:lr-tb;fill:#000000;fill-opacity:1;fill-rule:nonzero;stroke:none" transform="matrix(-4.4e-8,1,1,4.4e-8,462.82,340.51)"><tspan id="tspan494" y="0" x="0 6.8309999 11.142 14.895 17.028 21.474001">May-24</tspan></text>
</g>
    </g>
    <g id="g496">
      <g clip-path="url(#clipPath500)" id="g498"><text id="text504" style="font-variant:normal;font-weight:normal;font-size:9px;font-family:'Roboto Condensed';-inkscape-font-specification:RobotoCondensed-Regular;writing-mode:lr-tb;fill:#000000;fill-opacity:1;fill-rule:nonzero;stroke:none" transform="matrix(-4.4e-8,1,1,4.4e-8,476.9,342.36)"><tspan id="tspan506" y="0" x="0 4.3200002 8.6309996 12.96 15.228 19.674">Jan-25</tspan></text>
</g>
    </g>
    <g id="g508">
      <g clip-path="url(#clipPath512)" id="g510"><text id="text516" style="font-variant:normal;font-weight:normal;font-size:9px;font-family:'Roboto Condensed';-inkscape-font-specification:RobotoCondensed-Regular;writing-mode:lr-tb;fill:#000000;fill-opacity:1;fill-rule:nonzero;stroke:none" transform="matrix(-4.4e-8,1,1,4.4e-8,490.99,342.05)"><tspan id="tspan518" y="0" x="0 4.6620002 8.8739996 13.311 15.588 20.034">Sep-25</tspan></text>
</g>
    </g>
    <g id="g520">
      <g clip-path="url(#clipPath524)" id="g522"><text id="text528" style="font-variant:normal;font-weight:bold;font-size:10.80000019px;font-family:'Roboto Condensed';-inkscape-font-specification:RobotoCondensed-Bold;writing-mode:lr-tb;fill:#000000;fill-opacity:1;fill-rule:nonzero;stroke:none" transform="matrix(1,0,0,-1,20.832,595.68)"><tspan id="tspan530" y="0" x="0 8.0352001 13.3164 16.0704 19.4184 24.5916 27.0756 32.043598 37.422001 40.165199 42.919201 47.962799 51.548401 53.967602 57.315601 62.4888 70.502403 75.902397 78.300003 83.116798 88.495201 93.311996 95.795998 101.2284 104.814 110.1924 117.0288 120.4092 125.6904 128.088 131.6736 136.8468 139.6008 144.64439 147.9924 150.7464 155.5416 160.7148 163.19881 166.56841 171.94679 174.366 179.7552 182.5092 187.79041 192.96359 195.3504 200.27521 205.65359 208.4292 211.1832 216.22681">White collar temp yoy growth relative to blue collar</tspan></text>
</g>
    </g>
    <path id="path532" style="fill:#ffffff;fill-opacity:1;fill-rule:evenodd;stroke:none" d="m 367.22,587.64 121.08,0 0,16.692 -121.08,0 0,-16.692 z"/>
    <path id="path534" style="fill:none;stroke:#005aa4;stroke-width:1.5;stroke-linecap:round;stroke-linejoin:round;stroke-miterlimit:10;stroke-dasharray:none;stroke-opacity:1" d="m 377.1,595.99 19.2,0"/>
    <g id="g536">
      <g clip-path="url(#clipPath540)" id="g538"><text id="text544" style="font-variant:normal;font-weight:normal;font-size:9px;font-family:'Roboto Condensed';-inkscape-font-specification:RobotoCondensed-Regular;writing-mode:lr-tb;fill:#000000;fill-opacity:1;fill-rule:nonzero;stroke:none" transform="matrix(1,0,0,-1,398.38,593.3)"><tspan id="tspan546" y="0" x="0 4.9050002 9.1169996 11.178 15.615 17.639999 22.068001">Belgium</tspan></text>
</g>
    </g>
    <path id="path548" style="fill:none;stroke:#d0b86a;stroke-width:1.5;stroke-linecap:round;stroke-linejoin:round;stroke-miterlimit:10;stroke-dasharray:none;stroke-opacity:1" d="m 436.62,595.99 19.2,0"/>
    <g id="g550">
      <g clip-path="url(#clipPath554)" id="g552"><text id="text558" style="font-variant:normal;font-weight:normal;font-size:9px;font-family:'Roboto Condensed';-inkscape-font-specification:RobotoCondensed-Regular;writing-mode:lr-tb;fill:#000000;fill-opacity:1;fill-rule:nonzero;stroke:none" transform="matrix(1,0,0,-1,457.9,593.3)"><tspan id="tspan560" y="0" x="0 4.3200002 7.0560002 11.394 15.714 19.908001">France</tspan></text>
</g>
    </g>
    <g id="g562">
      <path id="path564" style="fill:none;stroke:#ff0000;stroke-width:1.5;stroke-linecap:butt;stroke-linejoin:miter;stroke-miterlimit:8;stroke-dasharray:4.5, 1.5;stroke-dashoffset:0;stroke-opacity:1" d="m 453.6,451.38 c 0,22.43 10.1,40.62 22.56,40.62 12.46,0 22.56,-18.19 22.56,-40.62 0,-22.43 -10.1,-40.62 -22.56,-40.62 -12.46,0 -22.56,18.19 -22.56,40.62 z"/>
    </g>
    <g id="g566">
      <g clip-path="url(#clipPath570)" id="g568">
        <path id="path574" style="fill:#ffffff;fill-opacity:1;fill-rule:evenodd;stroke:none" d="m 444.24,495.12 59.52,0 0,41.28 -59.52,0 0,-41.28 z"/>
      </g>
    </g>
    <g id="g576">
      <g clip-path="url(#clipPath580)" id="g578">
        <path id="path584" style="fill:none;stroke:#000000;stroke-width:0.75;stroke-linecap:butt;stroke-linejoin:round;stroke-miterlimit:10;stroke-dasharray:3, 2.25;stroke-dashoffset:0;stroke-opacity:1" d="m 444.24,495.12 59.52,0 0,41.28 -59.52,0 0,-41.28 z"/>
      </g>
    </g>
    <g id="g586">
      <g clip-path="url(#clipPath590)" id="g588"><text id="text594" style="font-variant:normal;font-weight:normal;font-size:11.03999996px;font-family:'Aptos Narrow';-inkscape-font-specification:'Aptos Narrow';writing-mode:lr-tb;fill:#000000;fill-opacity:1;fill-rule:nonzero;stroke:none" transform="matrix(1,0,0,-1,469.73,518.86)"><tspan id="tspan596" y="0" x="0 5.8799601">AI</tspan></text>
</g>
    </g>
    <g id="g598">
      <g clip-path="url(#clipPath602)" id="g600"><text id="text606" style="font-variant:normal;font-weight:normal;font-size:11.03999996px;font-family:'Aptos Narrow';-inkscape-font-specification:'Aptos Narrow';writing-mode:lr-tb;fill:#000000;fill-opacity:1;fill-rule:nonzero;stroke:none" transform="matrix(1,0,0,-1,456.17,505.42)"><tspan id="tspan608" y="0" x="0 2.5060799 11.16144 16.7808 22.15728 27.45648 30.724319">impact?</tspan></text>
</g>
    </g>
    <g id="g610">
      <path id="path612" style="fill:none;stroke:#ff0000;stroke-width:1.5;stroke-linecap:butt;stroke-linejoin:miter;stroke-miterlimit:8;stroke-dasharray:4.5, 1.5;stroke-dashoffset:0;stroke-opacity:1" d="m 367.8,441.18 c 0,21.37 13.19,38.7 29.46,38.7 16.27,0 29.46,-17.33 29.46,-38.7 0,-21.37 -13.19,-38.7 -29.46,-38.7 -16.27,0 -29.46,17.33 -29.46,38.7 z"/>
    </g>
    <path id="path614" style="fill:#ffffff;fill-opacity:1;fill-rule:evenodd;stroke:none" d="m 361.44,375.72 65.88,0 0,21 -65.88,0 0,-21 z"/>
    <g id="g616">
      <path id="path618" style="fill:none;stroke:#000000;stroke-width:0.75;stroke-linecap:butt;stroke-linejoin:round;stroke-miterlimit:10;stroke-dasharray:3, 2.25;stroke-dashoffset:0;stroke-opacity:1" d="m 361.44,375.72 65.88,0 0,21 -65.88,0 0,-21 z"/>
    </g>
    <g id="g620">
      <g clip-path="url(#clipPath624)" id="g622"><text id="text628" style="font-variant:normal;font-weight:normal;font-size:11.03999996px;font-family:'Aptos Narrow';-inkscape-font-specification:'Aptos Narrow';writing-mode:lr-tb;fill:#000000;fill-opacity:1;fill-rule:nonzero;stroke:none" transform="matrix(1,0,0,-1,372.17,382.75)"><tspan id="tspan630" y="0" x="0 6.9883199 14.27472 20.136959 22.819679">COVID</tspan></text>
</g>
    </g>
    <g id="g632">
      <g clip-path="url(#clipPath636)" id="g634"><text id="text640" style="font-variant:normal;font-weight:normal;font-size:11.03999996px;font-family:'Aptos Narrow';-inkscape-font-specification:'Aptos Narrow';writing-mode:lr-tb;fill:#000000;fill-opacity:1;fill-rule:nonzero;stroke:none" transform="matrix(1,0,0,-1,401.93,382.75)"><tspan id="tspan642" y="0" x="0">-</tspan></text>
</g>
    </g>
    <g id="g644">
      <g clip-path="url(#clipPath648)" id="g646"><text id="text652" style="font-variant:normal;font-weight:normal;font-size:11.03999996px;font-family:'Aptos Narrow';-inkscape-font-specification:'Aptos Narrow';writing-mode:lr-tb;fill:#000000;fill-opacity:1;fill-rule:nonzero;stroke:none" transform="matrix(1,0,0,-1,405.29,382.75)"><tspan id="tspan654" y="0" x="0 5.6399798">19</tspan></text>
</g>
    </g>
    <g id="g656">
      <path id="path658" style="fill:none;stroke:#ff0000;stroke-width:1.5;stroke-linecap:butt;stroke-linejoin:miter;stroke-miterlimit:8;stroke-dasharray:4.5, 1.5;stroke-dashoffset:0;stroke-opacity:1" d="m 215.4,451.02 c 0,18.39 13.19,33.3 29.46,33.3 16.27,0 29.46,-14.91 29.46,-33.3 0,-18.39 -13.19,-33.3 -29.46,-33.3 -16.27,0 -29.46,14.91 -29.46,33.3 z"/>
    </g>
    <path id="path660" style="fill:#ffffff;fill-opacity:1;fill-rule:evenodd;stroke:none" d="m 201.6,375.72 89.64,0 0,37.56 -89.64,0 0,-37.56 z"/>
    <g id="g662">
      <path id="path664" style="fill:none;stroke:#000000;stroke-width:0.75;stroke-linecap:butt;stroke-linejoin:round;stroke-miterlimit:10;stroke-dasharray:3, 2.25;stroke-dashoffset:0;stroke-opacity:1" d="m 201.6,375.72 89.64,0 0,37.56 -89.64,0 0,-37.56 z"/>
    </g>
    <g id="g666">
      <g clip-path="url(#clipPath670)" id="g668"><text id="text674" style="font-variant:normal;font-weight:normal;font-size:11.03999996px;font-family:'Aptos Narrow';-inkscape-font-specification:'Aptos Narrow';writing-mode:lr-tb;fill:#000000;fill-opacity:1;fill-rule:nonzero;stroke:none" transform="matrix(1,0,0,-1,214.94,397.56)"><tspan id="tspan676" y="0" x="0 5.61936 11.24976 14.66112 20.15904 24.586081 30.106079 35.736481 41.124001 43.04496 48.686401 54.073921 59.715359 62.9832">Eurozone debt </tspan></text>
</g>
    </g>
    <g id="g678">
      <g clip-path="url(#clipPath682)" id="g680"><text id="text686" style="font-variant:normal;font-weight:normal;font-size:11.03999996px;font-family:'Aptos Narrow';-inkscape-font-specification:'Aptos Narrow';writing-mode:lr-tb;fill:#000000;fill-opacity:1;fill-rule:nonzero;stroke:none" transform="matrix(1,0,0,-1,234.62,384.12)"><tspan id="tspan688" y="0" x="0 5.2992001 8.6443195 11.1504 16.041121 18.58032">crisis</tspan></text>
</g>
    </g>
    <g id="g690">
      <path id="path692" style="fill:none;stroke:#ff0000;stroke-width:1.5;stroke-linecap:butt;stroke-linejoin:miter;stroke-miterlimit:8;stroke-dasharray:4.5, 1.5;stroke-dashoffset:0;stroke-opacity:1" d="m 143.28,428.82 c 0,25.08 12.36,45.42 27.6,45.42 15.24,0 27.6,-20.34 27.6,-45.42 0,-25.08 -12.36,-45.42 -27.6,-45.42 -15.24,0 -27.6,20.34 -27.6,45.42 z"/>
    </g>
    <path id="path694" style="fill:#ffffff;fill-opacity:1;fill-rule:evenodd;stroke:none" d="m 153.36,479.28 38.16,0 0,22.92 -38.16,0 0,-22.92 z"/>
    <g id="g696">
      <path id="path698" style="fill:none;stroke:#000000;stroke-width:0.75;stroke-linecap:butt;stroke-linejoin:round;stroke-miterlimit:10;stroke-dasharray:3, 2.25;stroke-dashoffset:0;stroke-opacity:1" d="m 153.36,479.28 38.16,0 0,22.92 -38.16,0 0,-22.92 z"/>
    </g>
    <g id="g700">
      <g clip-path="url(#clipPath704)" id="g702"><text id="text708" style="font-variant:normal;font-weight:normal;font-size:11.03999996px;font-family:'Aptos Narrow';-inkscape-font-specification:'Aptos Narrow';writing-mode:lr-tb;fill:#000000;fill-opacity:1;fill-rule:nonzero;stroke:none" transform="matrix(1,0,0,-1,162.74,487.1)"><tspan id="tspan710" y="0" x="0 7.0766401 12.37584">GFC</tspan></text>
</g>
    </g>
  </g>
</svg>
