<?xml version="1.0" encoding="UTF-8" standalone="no"?>
<svg xmlns:dc="http://purl.org/dc/elements/1.1/" xmlns:cc="http://creativecommons.org/ns#" xmlns:rdf="http://www.w3.org/1999/02/22-rdf-syntax-ns#" xmlns:svg="http://www.w3.org/2000/svg" xmlns="http://www.w3.org/2000/svg" viewBox="63 303.6 639.00375 382.65" height="382.65" width="639.00375" xml:space="preserve" version="1.1" id="svg2">
  <metadata id="metadata8">
    <rdf:RDF>
      <cc:Work rdf:about="">
        <dc:format>image/svg+xml</dc:format>
        <dc:type rdf:resource="http://purl.org/dc/dcmitype/StillImage"/>
      </cc:Work>
    </rdf:RDF>
  </metadata>
  <defs id="defs6">
    <clipPath id="clipPath16" clipPathUnits="userSpaceOnUse">
      <path style="clip-rule:evenodd" id="path18" d="m 50.4,243 511.2,0 0,306.12 -511.2,0 0,-306.12 z"/>
    </clipPath>
    <clipPath id="clipPath26" clipPathUnits="userSpaceOnUse">
      <path style="clip-rule:evenodd" id="path28" d="m 50.4,243 511.2,0 0,306.12 -511.2,0 0,-306.12 z"/>
    </clipPath>
    <clipPath id="clipPath42" clipPathUnits="userSpaceOnUse">
      <path style="clip-rule:evenodd" id="path44" d="m 50.403,243 511.2,0 0,306.12 -511.2,0 0,-306.12 z"/>
    </clipPath>
    <clipPath id="clipPath74" clipPathUnits="userSpaceOnUse">
      <path style="clip-rule:evenodd" id="path76" d="m 50.4,243 511.2,0 0,306.12 -511.2,0 0,-306.12 z"/>
    </clipPath>
    <clipPath id="clipPath86" clipPathUnits="userSpaceOnUse">
      <path style="clip-rule:evenodd" id="path88" d="m 50.4,243 511.2,0 0,306.12 -511.2,0 0,-306.12 z"/>
    </clipPath>
    <clipPath id="clipPath98" clipPathUnits="userSpaceOnUse">
      <path style="clip-rule:evenodd" id="path100" d="m 50.4,243 511.2,0 0,306.12 -511.2,0 0,-306.12 z"/>
    </clipPath>
    <clipPath id="clipPath110" clipPathUnits="userSpaceOnUse">
      <path style="clip-rule:evenodd" id="path112" d="m 50.4,243 511.2,0 0,306.12 -511.2,0 0,-306.12 z"/>
    </clipPath>
    <clipPath id="clipPath122" clipPathUnits="userSpaceOnUse">
      <path style="clip-rule:evenodd" id="path124" d="m 50.4,243 511.2,0 0,306.12 -511.2,0 0,-306.12 z"/>
    </clipPath>
    <clipPath id="clipPath134" clipPathUnits="userSpaceOnUse">
      <path style="clip-rule:evenodd" id="path136" d="m 50.4,243 511.2,0 0,306.12 -511.2,0 0,-306.12 z"/>
    </clipPath>
    <clipPath id="clipPath146" clipPathUnits="userSpaceOnUse">
      <path style="clip-rule:evenodd" id="path148" d="m 50.4,243 511.2,0 0,306.12 -511.2,0 0,-306.12 z"/>
    </clipPath>
    <clipPath id="clipPath158" clipPathUnits="userSpaceOnUse">
      <path style="clip-rule:evenodd" id="path160" d="m 50.4,243 511.2,0 0,306.12 -511.2,0 0,-306.12 z"/>
    </clipPath>
    <clipPath id="clipPath170" clipPathUnits="userSpaceOnUse">
      <path style="clip-rule:evenodd" id="path172" d="m 50.4,243 511.2,0 0,306.12 -511.2,0 0,-306.12 z"/>
    </clipPath>
    <clipPath id="clipPath182" clipPathUnits="userSpaceOnUse">
      <path style="clip-rule:evenodd" id="path184" d="m 50.4,243 511.2,0 0,306.12 -511.2,0 0,-306.12 z"/>
    </clipPath>
    <clipPath id="clipPath194" clipPathUnits="userSpaceOnUse">
      <path style="clip-rule:evenodd" id="path196" d="m 50.4,243 511.2,0 0,306.12 -511.2,0 0,-306.12 z"/>
    </clipPath>
    <clipPath id="clipPath206" clipPathUnits="userSpaceOnUse">
      <path style="clip-rule:evenodd" id="path208" d="m 50.4,243 511.2,0 0,306.12 -511.2,0 0,-306.12 z"/>
    </clipPath>
    <clipPath id="clipPath218" clipPathUnits="userSpaceOnUse">
      <path style="clip-rule:evenodd" id="path220" d="m 50.4,243 511.2,0 0,306.12 -511.2,0 0,-306.12 z"/>
    </clipPath>
    <clipPath id="clipPath230" clipPathUnits="userSpaceOnUse">
      <path style="clip-rule:evenodd" id="path232" d="m 50.4,243 511.2,0 0,306.12 -511.2,0 0,-306.12 z"/>
    </clipPath>
    <clipPath id="clipPath242" clipPathUnits="userSpaceOnUse">
      <path style="clip-rule:evenodd" id="path244" d="m 50.4,243 511.2,0 0,306.12 -511.2,0 0,-306.12 z"/>
    </clipPath>
    <clipPath id="clipPath254" clipPathUnits="userSpaceOnUse">
      <path style="clip-rule:evenodd" id="path256" d="m 50.4,243 511.2,0 0,306.12 -511.2,0 0,-306.12 z"/>
    </clipPath>
    <clipPath id="clipPath266" clipPathUnits="userSpaceOnUse">
      <path style="clip-rule:evenodd" id="path268" d="m 50.4,243 511.2,0 0,306.12 -511.2,0 0,-306.12 z"/>
    </clipPath>
    <clipPath id="clipPath278" clipPathUnits="userSpaceOnUse">
      <path style="clip-rule:evenodd" id="path280" d="m 50.4,243 511.2,0 0,306.12 -511.2,0 0,-306.12 z"/>
    </clipPath>
    <clipPath id="clipPath290" clipPathUnits="userSpaceOnUse">
      <path style="clip-rule:evenodd" id="path292" d="m 50.4,243 511.2,0 0,306.12 -511.2,0 0,-306.12 z"/>
    </clipPath>
    <clipPath id="clipPath302" clipPathUnits="userSpaceOnUse">
      <path style="clip-rule:evenodd" id="path304" d="m 50.4,243 511.2,0 0,306.12 -511.2,0 0,-306.12 z"/>
    </clipPath>
    <clipPath id="clipPath318" clipPathUnits="userSpaceOnUse">
      <path style="clip-rule:evenodd" id="path320" d="m 50.4,243 511.2,0 0,306.12 -511.2,0 0,-306.12 z"/>
    </clipPath>
    <clipPath id="clipPath334" clipPathUnits="userSpaceOnUse">
      <path style="clip-rule:evenodd" id="path336" d="m 50.4,243 511.2,0 0,306.12 -511.2,0 0,-306.12 z"/>
    </clipPath>
    <clipPath id="clipPath350" clipPathUnits="userSpaceOnUse">
      <path style="clip-rule:evenodd" id="path352" d="m 50.4,243 511.2,0 0,306.12 -511.2,0 0,-306.12 z"/>
    </clipPath>
    <clipPath id="clipPath366" clipPathUnits="userSpaceOnUse">
      <path style="clip-rule:evenodd" id="path368" d="m 50.4,243 511.2,0 0,306.12 -511.2,0 0,-306.12 z"/>
    </clipPath>
    <clipPath id="clipPath382" clipPathUnits="userSpaceOnUse">
      <path style="clip-rule:evenodd" id="path384" d="m 50.4,243 511.2,0 0,306.12 -511.2,0 0,-306.12 z"/>
    </clipPath>
    <clipPath id="clipPath394" clipPathUnits="userSpaceOnUse">
      <path style="clip-rule:evenodd" id="path396" d="m 50.4,243 511.2,0 0,306.12 -511.2,0 0,-306.12 z"/>
    </clipPath>
    <clipPath id="clipPath406" clipPathUnits="userSpaceOnUse">
      <path style="clip-rule:evenodd" id="path408" d="m 50.4,243 511.2,0 0,306.12 -511.2,0 0,-306.12 z"/>
    </clipPath>
    <clipPath id="clipPath418" clipPathUnits="userSpaceOnUse">
      <path style="clip-rule:evenodd" id="path420" d="m 50.4,243 511.2,0 0,306.12 -511.2,0 0,-306.12 z"/>
    </clipPath>
    <clipPath id="clipPath430" clipPathUnits="userSpaceOnUse">
      <path style="clip-rule:evenodd" id="path432" d="m 50.4,243 511.2,0 0,306.12 -511.2,0 0,-306.12 z"/>
    </clipPath>
    <clipPath id="clipPath442" clipPathUnits="userSpaceOnUse">
      <path style="clip-rule:evenodd" id="path444" d="m 50.4,243 511.2,0 0,306.12 -511.2,0 0,-306.12 z"/>
    </clipPath>
    <clipPath id="clipPath454" clipPathUnits="userSpaceOnUse">
      <path style="clip-rule:evenodd" id="path456" d="m 50.4,243 511.2,0 0,306.12 -511.2,0 0,-306.12 z"/>
    </clipPath>
    <clipPath id="clipPath466" clipPathUnits="userSpaceOnUse">
      <path style="clip-rule:evenodd" id="path468" d="m 50.4,243 511.2,0 0,306.12 -511.2,0 0,-306.12 z"/>
    </clipPath>
    <clipPath id="clipPath478" clipPathUnits="userSpaceOnUse">
      <path style="clip-rule:evenodd" id="path480" d="m 50.4,243 511.2,0 0,306.12 -511.2,0 0,-306.12 z"/>
    </clipPath>
    <clipPath id="clipPath490" clipPathUnits="userSpaceOnUse">
      <path style="clip-rule:evenodd" id="path492" d="m 50.4,243 511.2,0 0,306.12 -511.2,0 0,-306.12 z"/>
    </clipPath>
    <clipPath id="clipPath502" clipPathUnits="userSpaceOnUse">
      <path style="clip-rule:evenodd" id="path504" d="m 50.4,243 511.2,0 0,306.12 -511.2,0 0,-306.12 z"/>
    </clipPath>
    <clipPath id="clipPath514" clipPathUnits="userSpaceOnUse">
      <path style="clip-rule:evenodd" id="path516" d="m 50.4,243 511.2,0 0,306.12 -511.2,0 0,-306.12 z"/>
    </clipPath>
    <clipPath id="clipPath526" clipPathUnits="userSpaceOnUse">
      <path style="clip-rule:evenodd" id="path528" d="m 50.4,243 511.2,0 0,306.12 -511.2,0 0,-306.12 z"/>
    </clipPath>
    <clipPath id="clipPath538" clipPathUnits="userSpaceOnUse">
      <path style="clip-rule:evenodd" id="path540" d="m 50.4,243 511.2,0 0,306.12 -511.2,0 0,-306.12 z"/>
    </clipPath>
    <clipPath id="clipPath550" clipPathUnits="userSpaceOnUse">
      <path style="clip-rule:evenodd" id="path552" d="m 50.4,243 511.2,0 0,306.12 -511.2,0 0,-306.12 z"/>
    </clipPath>
    <clipPath id="clipPath562" clipPathUnits="userSpaceOnUse">
      <path style="clip-rule:evenodd" id="path564" d="m 50.4,243 511.2,0 0,306.12 -511.2,0 0,-306.12 z"/>
    </clipPath>
    <clipPath id="clipPath574" clipPathUnits="userSpaceOnUse">
      <path style="clip-rule:evenodd" id="path576" d="m 50.4,243 511.2,0 0,306.12 -511.2,0 0,-306.12 z"/>
    </clipPath>
    <clipPath id="clipPath586" clipPathUnits="userSpaceOnUse">
      <path style="clip-rule:evenodd" id="path588" d="m 50.4,243 511.2,0 0,306.12 -511.2,0 0,-306.12 z"/>
    </clipPath>
    <clipPath id="clipPath598" clipPathUnits="userSpaceOnUse">
      <path style="clip-rule:evenodd" id="path600" d="m 50.403,243 511.2,0 0,306.12 -511.2,0 0,-306.12 z"/>
    </clipPath>
    <clipPath id="clipPath610" clipPathUnits="userSpaceOnUse">
      <path style="clip-rule:evenodd" id="path612" d="m 50.4,243 511.2,0 0,306.12 -511.2,0 0,-306.12 z"/>
    </clipPath>
    <clipPath id="clipPath624" clipPathUnits="userSpaceOnUse">
      <path style="clip-rule:evenodd" id="path626" d="m 50.4,243 511.2,0 0,306.12 -511.2,0 0,-306.12 z"/>
    </clipPath>
    <clipPath id="clipPath638" clipPathUnits="userSpaceOnUse">
      <path style="clip-rule:evenodd" id="path640" d="m 50.4,243 511.2,0 0,306.12 -511.2,0 0,-306.12 z"/>
    </clipPath>
    <clipPath id="clipPath656" clipPathUnits="userSpaceOnUse">
      <path style="clip-rule:evenodd" id="path658" d="m 50.4,243 511.2,0 0,306.12 -511.2,0 0,-306.12 z"/>
    </clipPath>
  </defs>
  <g transform="matrix(1.25,0,0,-1.25,0,990)" id="g10">
    <g id="g12">
      <g clip-path="url(#clipPath16)" id="g14">
        <path id="path20" style="fill:none;stroke:#000000;stroke-width:0.14;stroke-linecap:butt;stroke-linejoin:miter;stroke-miterlimit:10;stroke-dasharray:none;stroke-opacity:0" d="m 50.403,242.88 511.2,0 0,306.19 -511.2,0 0,-306.19 z"/>
      </g>
    </g>
    <g id="g22">
      <g clip-path="url(#clipPath26)" id="g24">
        <path id="path30" style="fill:#ffffff;fill-opacity:1;fill-rule:evenodd;stroke:none" d="m 50.403,242.88 511.2,0 0,306.19 -511.2,0 0,-306.19 z"/>
      </g>
    </g>
    <path id="path32" style="fill:#005aa4;fill-opacity:1;fill-rule:nonzero;stroke:none" d="m 114.61,340.06 20.58,0 0,36.15 -20.58,0 0,-36.15 z m 92.47,-33.07 20.58,0 0,69.22 -20.58,0 0,-69.22 z m 92.47,41.16 20.58,0 0,28.06 -20.58,0 0,-28.06 z m 92.47,-19.56 20.59,0 0,47.62 -20.59,0 0,-47.62 z m 92.47,0 20.59,0 0,47.62 -20.59,0 0,-47.62 z"/>
    <path id="path34" style="fill:#eadfbc;fill-opacity:1;fill-rule:nonzero;stroke:none" d="m 135.19,492.13 20.59,0 0,-115.92 -20.59,0 0,115.92 z m 92.47,3.18 20.59,0 0,-119.1 -20.59,0 0,119.1 z m 92.47,-62.06 20.59,0 0,-57.04 -20.59,0 0,57.04 z m 92.48,28.88 20.58,0 0,-85.92 -20.58,0 0,85.92 z m 92.47,5.53 20.58,0 0,-91.45 -20.58,0 0,91.45 z"/>
    <path id="path36" style="fill:#226b5a;fill-opacity:1;fill-rule:nonzero;stroke:none" d="m 155.78,445.13 20.48,0 0,-68.92 -20.48,0 0,68.92 z m 92.47,5.84 20.48,0 0,-74.76 -20.48,0 0,74.76 z m 92.47,-28.37 20.48,0 0,-46.39 -20.48,0 0,46.39 z m 92.47,0.92 20.48,0 0,-47.31 -20.48,0 0,47.31 z m 92.47,-1.12 20.48,0 0,-46.19 -20.48,0 0,46.19 z"/>
    <g id="g38">
      <g clip-path="url(#clipPath42)" id="g40">
        <path id="path46" style="fill:none;stroke:#808080;stroke-width:1.06669998;stroke-linecap:round;stroke-linejoin:round;stroke-miterlimit:10;stroke-dasharray:none;stroke-opacity:1" d="m 99.231,376.19 462.369,0"/>
      </g>
    </g>
    <path id="path48" style="fill:none;stroke:#00a0e2;stroke-width:1.27999997;stroke-linecap:round;stroke-linejoin:round;stroke-miterlimit:10;stroke-dasharray:none;stroke-opacity:1" d="m 145.47,401.92 92.43,-3.35 92.48,1.09 92.47,2.26 92.52,5.27"/>
    <path id="path50" style="fill:#00a1e2;fill-opacity:1;fill-rule:nonzero;stroke:none" d="m 147.58,399.76 -4.3,4.31 m 0,-4.31 4.3,4.31"/>
    <path id="path52" style="fill:none;stroke:#00a0e2;stroke-width:0.42668;stroke-linecap:round;stroke-linejoin:round;stroke-miterlimit:10;stroke-dasharray:none;stroke-opacity:1" d="m 147.58,399.76 -4.3,4.31 m 0,-4.31 4.3,4.31"/>
    <path id="path54" style="fill:#00a1e2;fill-opacity:1;fill-rule:nonzero;stroke:none" d="m 240.06,396.39 -4.31,4.3 m 0,-4.3 4.31,4.3"/>
    <path id="path56" style="fill:none;stroke:#00a0e2;stroke-width:0.42668;stroke-linecap:round;stroke-linejoin:round;stroke-miterlimit:10;stroke-dasharray:none;stroke-opacity:1" d="m 240.06,396.39 -4.31,4.3 m 0,-4.3 4.31,4.3"/>
    <path id="path58" style="fill:#00a1e2;fill-opacity:1;fill-rule:nonzero;stroke:none" d="m 332.53,397.51 -4.31,4.3 m 0,-4.3 4.31,4.3"/>
    <path id="path60" style="fill:none;stroke:#00a0e2;stroke-width:0.42668;stroke-linecap:round;stroke-linejoin:round;stroke-miterlimit:10;stroke-dasharray:none;stroke-opacity:1" d="m 332.53,397.51 -4.31,4.3 m 0,-4.3 4.31,4.3"/>
    <path id="path62" style="fill:#00a1e2;fill-opacity:1;fill-rule:nonzero;stroke:none" d="m 425,399.76 -4.3,4.31 m 0,-4.31 4.3,4.31"/>
    <path id="path64" style="fill:none;stroke:#00a0e2;stroke-width:0.42668;stroke-linecap:round;stroke-linejoin:round;stroke-miterlimit:10;stroke-dasharray:none;stroke-opacity:1" d="m 425,399.76 -4.3,4.31 m 0,-4.31 4.3,4.31"/>
    <path id="path66" style="fill:#00a1e2;fill-opacity:1;fill-rule:nonzero;stroke:none" d="m 517.47,404.99 -4.3,4.3 m 0,-4.3 4.3,4.3"/>
    <path id="path68" style="fill:none;stroke:#00a0e2;stroke-width:0.42668;stroke-linecap:round;stroke-linejoin:round;stroke-miterlimit:10;stroke-dasharray:none;stroke-opacity:1" d="m 517.47,404.99 -4.3,4.3 m 0,-4.3 4.3,4.3"/>
    <g id="g70">
      <g clip-path="url(#clipPath74)" id="g72"><text id="text78" style="font-variant:normal;font-weight:normal;font-size:9px;font-family:'Roboto Condensed';-inkscape-font-specification:RobotoCondensed-Regular;writing-mode:lr-tb;fill:#000000;fill-opacity:1;fill-rule:nonzero;stroke:none" transform="matrix(1,0,0,-1,118.68,327.6)"><tspan id="tspan80" y="0" x="0">-</tspan></text>
</g>
    </g>
    <g id="g82">
      <g clip-path="url(#clipPath86)" id="g84"><text id="text90" style="font-variant:normal;font-weight:normal;font-size:9px;font-family:'Roboto Condensed';-inkscape-font-specification:RobotoCondensed-Regular;writing-mode:lr-tb;fill:#000000;fill-opacity:1;fill-rule:nonzero;stroke:none" transform="matrix(1,0,0,-1,120.94,327.6)"><tspan id="tspan92" y="0" x="0 4.3920002">8%</tspan></text>
</g>
    </g>
    <g id="g94">
      <g clip-path="url(#clipPath98)" id="g96"><text id="text102" style="font-variant:normal;font-weight:normal;font-size:9.02400017px;font-family:'Roboto Condensed';-inkscape-font-specification:RobotoCondensed-Regular;writing-mode:lr-tb;fill:#000000;fill-opacity:1;fill-rule:nonzero;stroke:none" transform="matrix(1,0,0,-1,209.02,294.55)"><tspan id="tspan104" y="0" x="0">-</tspan></text>
</g>
    </g>
    <g id="g106">
      <g clip-path="url(#clipPath110)" id="g108"><text id="text114" style="font-variant:normal;font-weight:normal;font-size:9.02400017px;font-family:'Roboto Condensed';-inkscape-font-specification:RobotoCondensed-Regular;writing-mode:lr-tb;fill:#000000;fill-opacity:1;fill-rule:nonzero;stroke:none" transform="matrix(1,0,0,-1,211.27,294.55)"><tspan id="tspan116" y="0" x="0 4.3919559 8.7839117">15%</tspan></text>
</g>
    </g>
    <g id="g118">
      <g clip-path="url(#clipPath122)" id="g120"><text id="text126" style="font-variant:normal;font-weight:normal;font-size:9px;font-family:'Roboto Condensed';-inkscape-font-specification:RobotoCondensed-Regular;writing-mode:lr-tb;fill:#000000;fill-opacity:1;fill-rule:nonzero;stroke:none" transform="matrix(1,0,0,-1,303.65,335.76)"><tspan id="tspan128" y="0" x="0">-</tspan></text>
</g>
    </g>
    <g id="g130">
      <g clip-path="url(#clipPath134)" id="g132"><text id="text138" style="font-variant:normal;font-weight:normal;font-size:9px;font-family:'Roboto Condensed';-inkscape-font-specification:RobotoCondensed-Regular;writing-mode:lr-tb;fill:#000000;fill-opacity:1;fill-rule:nonzero;stroke:none" transform="matrix(1,0,0,-1,305.9,335.76)"><tspan id="tspan140" y="0" x="0 4.4159999">6%</tspan></text>
</g>
    </g>
    <g id="g142">
      <g clip-path="url(#clipPath146)" id="g144"><text id="text150" style="font-variant:normal;font-weight:normal;font-size:9.02400017px;font-family:'Roboto Condensed';-inkscape-font-specification:RobotoCondensed-Regular;writing-mode:lr-tb;fill:#000000;fill-opacity:1;fill-rule:nonzero;stroke:none" transform="matrix(1,0,0,-1,393.98,316.18)"><tspan id="tspan152" y="0" x="0">-</tspan></text>
</g>
    </g>
    <g id="g154">
      <g clip-path="url(#clipPath158)" id="g156"><text id="text162" style="font-variant:normal;font-weight:normal;font-size:9.02400017px;font-family:'Roboto Condensed';-inkscape-font-specification:RobotoCondensed-Regular;writing-mode:lr-tb;fill:#000000;fill-opacity:1;fill-rule:nonzero;stroke:none" transform="matrix(1,0,0,-1,396.24,316.18)"><tspan id="tspan164" y="0" x="0 4.415956 8.831912">10%</tspan></text>
</g>
    </g>
    <g id="g166">
      <g clip-path="url(#clipPath170)" id="g168"><text id="text174" style="font-variant:normal;font-weight:normal;font-size:9.02400017px;font-family:'Roboto Condensed';-inkscape-font-specification:RobotoCondensed-Regular;writing-mode:lr-tb;fill:#000000;fill-opacity:1;fill-rule:nonzero;stroke:none" transform="matrix(1,0,0,-1,486.48,316.18)"><tspan id="tspan176" y="0" x="0">-</tspan></text>
</g>
    </g>
    <g id="g178">
      <g clip-path="url(#clipPath182)" id="g180"><text id="text186" style="font-variant:normal;font-weight:normal;font-size:9.02400017px;font-family:'Roboto Condensed';-inkscape-font-specification:RobotoCondensed-Regular;writing-mode:lr-tb;fill:#000000;fill-opacity:1;fill-rule:nonzero;stroke:none" transform="matrix(1,0,0,-1,488.74,316.18)"><tspan id="tspan188" y="0" x="0 4.415956 8.831912">10%</tspan></text>
</g>
    </g>
    <g id="g190">
      <g clip-path="url(#clipPath194)" id="g192"><text id="text198" style="font-variant:normal;font-weight:normal;font-size:9px;font-family:'Roboto Condensed';-inkscape-font-specification:RobotoCondensed-Regular;writing-mode:lr-tb;fill:#000000;fill-opacity:1;fill-rule:nonzero;stroke:none" transform="matrix(1,0,0,-1,138.22,498.19)"><tspan id="tspan200" y="0" x="0 4.3920002 8.7840004">24%</tspan></text>
</g>
    </g>
    <g id="g202">
      <g clip-path="url(#clipPath206)" id="g204"><text id="text210" style="font-variant:normal;font-weight:normal;font-size:9.02400017px;font-family:'Roboto Condensed';-inkscape-font-specification:RobotoCondensed-Regular;writing-mode:lr-tb;fill:#000000;fill-opacity:1;fill-rule:nonzero;stroke:none" transform="matrix(1,0,0,-1,230.69,501.36)"><tspan id="tspan212" y="0" x="0 4.415956 8.831912">25%</tspan></text>
</g>
    </g>
    <g id="g214">
      <g clip-path="url(#clipPath218)" id="g216"><text id="text222" style="font-variant:normal;font-weight:normal;font-size:9px;font-family:'Roboto Condensed';-inkscape-font-specification:RobotoCondensed-Regular;writing-mode:lr-tb;fill:#000000;fill-opacity:1;fill-rule:nonzero;stroke:none" transform="matrix(1,0,0,-1,323.18,439.25)"><tspan id="tspan224" y="0" x="0 4.4159999 8.8319998">12%</tspan></text>
</g>
    </g>
    <g id="g226">
      <g clip-path="url(#clipPath230)" id="g228"><text id="text234" style="font-variant:normal;font-weight:normal;font-size:9.02400017px;font-family:'Roboto Condensed';-inkscape-font-specification:RobotoCondensed-Regular;writing-mode:lr-tb;fill:#000000;fill-opacity:1;fill-rule:nonzero;stroke:none" transform="matrix(1,0,0,-1,415.68,468.14)"><tspan id="tspan236" y="0" x="0 4.3919559 8.7839117">18%</tspan></text>
</g>
    </g>
    <g id="g238">
      <g clip-path="url(#clipPath242)" id="g240"><text id="text246" style="font-variant:normal;font-weight:normal;font-size:9.02400017px;font-family:'Roboto Condensed';-inkscape-font-specification:RobotoCondensed-Regular;writing-mode:lr-tb;fill:#000000;fill-opacity:1;fill-rule:nonzero;stroke:none" transform="matrix(1,0,0,-1,508.18,473.66)"><tspan id="tspan248" y="0" x="0 4.3919559 8.7839117">19%</tspan></text>
</g>
    </g>
    <g id="g250">
      <g clip-path="url(#clipPath254)" id="g252"><text id="text258" style="font-variant:normal;font-weight:normal;font-size:9.02400017px;font-family:'Roboto Condensed';-inkscape-font-specification:RobotoCondensed-Regular;writing-mode:lr-tb;fill:#000000;fill-opacity:1;fill-rule:nonzero;stroke:none" transform="matrix(1,0,0,-1,158.76,451.18)"><tspan id="tspan260" y="0" x="0 4.415956 8.831912">14%</tspan></text>
</g>
    </g>
    <g id="g262">
      <g clip-path="url(#clipPath266)" id="g264"><text id="text270" style="font-variant:normal;font-weight:normal;font-size:9px;font-family:'Roboto Condensed';-inkscape-font-specification:RobotoCondensed-Regular;writing-mode:lr-tb;fill:#000000;fill-opacity:1;fill-rule:nonzero;stroke:none" transform="matrix(1,0,0,-1,251.26,457.03)"><tspan id="tspan272" y="0" x="0 4.3920002 8.7840004">16%</tspan></text>
</g>
    </g>
    <g id="g274">
      <g clip-path="url(#clipPath278)" id="g276"><text id="text282" style="font-variant:normal;font-weight:normal;font-size:9.02400017px;font-family:'Roboto Condensed';-inkscape-font-specification:RobotoCondensed-Regular;writing-mode:lr-tb;fill:#000000;fill-opacity:1;fill-rule:nonzero;stroke:none" transform="matrix(1,0,0,-1,343.75,428.64)"><tspan id="tspan284" y="0" x="0 4.3919559 8.7839117">10%</tspan></text>
</g>
    </g>
    <g id="g286">
      <g clip-path="url(#clipPath290)" id="g288"><text id="text294" style="font-variant:normal;font-weight:normal;font-size:9.02400017px;font-family:'Roboto Condensed';-inkscape-font-specification:RobotoCondensed-Regular;writing-mode:lr-tb;fill:#000000;fill-opacity:1;fill-rule:nonzero;stroke:none" transform="matrix(1,0,0,-1,436.22,429.58)"><tspan id="tspan296" y="0" x="0 4.415956 8.831912">10%</tspan></text>
</g>
    </g>
    <g id="g298">
      <g clip-path="url(#clipPath302)" id="g300"><text id="text306" style="font-variant:normal;font-weight:normal;font-size:9px;font-family:'Roboto Condensed';-inkscape-font-specification:RobotoCondensed-Regular;writing-mode:lr-tb;fill:#000000;fill-opacity:1;fill-rule:nonzero;stroke:none" transform="matrix(1,0,0,-1,528.72,428.4)"><tspan id="tspan308" y="0" x="0 4.4159999 8.8319998">10%</tspan></text>
</g>
    </g>
    <path id="path310" style="fill:#ffffff;fill-opacity:1;fill-rule:evenodd;stroke:none" d="m 137.86,383.88 15.215,0 0,13.312 -15.215,0 0,-13.312 z"/>
    <path id="path312" style="fill:none;stroke:#595959;stroke-width:0.64002001;stroke-linecap:butt;stroke-linejoin:round;stroke-miterlimit:10;stroke-dasharray:none;stroke-opacity:1" d="m 137.86,383.88 15.215,0 0,13.312 -15.215,0 0,-13.312 z"/>
    <g id="g314">
      <g clip-path="url(#clipPath318)" id="g316"><text id="text322" style="font-variant:normal;font-weight:normal;font-size:9.02400017px;font-family:'Roboto Condensed';-inkscape-font-specification:RobotoCondensed-Regular;writing-mode:lr-tb;fill:#000000;fill-opacity:1;fill-rule:nonzero;stroke:none" transform="matrix(1,0,0,-1,140.35,387.36)"><tspan id="tspan324" y="0" x="0 4.415956">5%</tspan></text>
</g>
    </g>
    <path id="path326" style="fill:#ffffff;fill-opacity:1;fill-rule:evenodd;stroke:none" d="m 230.33,380.57 15.215,0 0,13.312 -15.215,0 0,-13.312 z"/>
    <path id="path328" style="fill:none;stroke:#595959;stroke-width:0.64002001;stroke-linecap:butt;stroke-linejoin:round;stroke-miterlimit:10;stroke-dasharray:none;stroke-opacity:1" d="m 230.33,380.57 15.215,0 0,13.312 -15.215,0 0,-13.312 z"/>
    <g id="g330">
      <g clip-path="url(#clipPath334)" id="g332"><text id="text338" style="font-variant:normal;font-weight:normal;font-size:9.02400017px;font-family:'Roboto Condensed';-inkscape-font-specification:RobotoCondensed-Regular;writing-mode:lr-tb;fill:#000000;fill-opacity:1;fill-rule:nonzero;stroke:none" transform="matrix(1,0,0,-1,232.85,384.05)"><tspan id="tspan340" y="0" x="0 4.3919559">5%</tspan></text>
</g>
    </g>
    <path id="path342" style="fill:#ffffff;fill-opacity:1;fill-rule:evenodd;stroke:none" d="m 322.81,381.69 15.216,0 0,13.312 -15.216,0 0,-13.312 z"/>
    <path id="path344" style="fill:none;stroke:#595959;stroke-width:0.64002001;stroke-linecap:butt;stroke-linejoin:round;stroke-miterlimit:10;stroke-dasharray:none;stroke-opacity:1" d="m 322.81,381.69 15.216,0 0,13.312 -15.216,0 0,-13.312 z"/>
    <g id="g346">
      <g clip-path="url(#clipPath350)" id="g348"><text id="text354" style="font-variant:normal;font-weight:normal;font-size:9px;font-family:'Roboto Condensed';-inkscape-font-specification:RobotoCondensed-Regular;writing-mode:lr-tb;fill:#000000;fill-opacity:1;fill-rule:nonzero;stroke:none" transform="matrix(1,0,0,-1,325.34,385.15)"><tspan id="tspan356" y="0" x="0 4.3920002">5%</tspan></text>
</g>
    </g>
    <path id="path358" style="fill:#ffffff;fill-opacity:1;fill-rule:evenodd;stroke:none" d="m 415.28,383.9 15.216,0 0,13.312 -15.216,0 0,-13.312 z"/>
    <path id="path360" style="fill:none;stroke:#595959;stroke-width:0.64002001;stroke-linecap:butt;stroke-linejoin:round;stroke-miterlimit:10;stroke-dasharray:none;stroke-opacity:1" d="m 415.28,383.9 15.216,0 0,13.312 -15.216,0 0,-13.312 z"/>
    <g id="g362">
      <g clip-path="url(#clipPath366)" id="g364"><text id="text370" style="font-variant:normal;font-weight:normal;font-size:9px;font-family:'Roboto Condensed';-inkscape-font-specification:RobotoCondensed-Regular;writing-mode:lr-tb;fill:#000000;fill-opacity:1;fill-rule:nonzero;stroke:none" transform="matrix(1,0,0,-1,417.82,387.36)"><tspan id="tspan372" y="0" x="0 4.4159999">5%</tspan></text>
</g>
    </g>
    <path id="path374" style="fill:#ffffff;fill-opacity:1;fill-rule:evenodd;stroke:none" d="m 507.76,389.18 15.216,0 0,13.312 -15.216,0 0,-13.312 z"/>
    <path id="path376" style="fill:none;stroke:#595959;stroke-width:0.64002001;stroke-linecap:butt;stroke-linejoin:round;stroke-miterlimit:10;stroke-dasharray:none;stroke-opacity:1" d="m 507.76,389.18 15.216,0 0,13.312 -15.216,0 0,-13.312 z"/>
    <g id="g378">
      <g clip-path="url(#clipPath382)" id="g380"><text id="text386" style="font-variant:normal;font-weight:normal;font-size:9.02400017px;font-family:'Roboto Condensed';-inkscape-font-specification:RobotoCondensed-Regular;writing-mode:lr-tb;fill:#000000;fill-opacity:1;fill-rule:nonzero;stroke:none" transform="matrix(1,0,0,-1,510.31,392.66)"><tspan id="tspan388" y="0" x="0 4.415956">7%</tspan></text>
</g>
    </g>
    <g id="g390">
      <g clip-path="url(#clipPath394)" id="g392"><text id="text398" style="font-variant:normal;font-weight:normal;font-size:9.02400017px;font-family:'Roboto Condensed';-inkscape-font-specification:RobotoCondensed-Regular;writing-mode:lr-tb;fill:#000000;fill-opacity:1;fill-rule:nonzero;stroke:none" transform="matrix(1,0,0,-1,74.28,278.23)"><tspan id="tspan400" y="0" x="0 2.237952 6.6958079 11.090496">-20%</tspan></text>
</g>
    </g>
    <g id="g402">
      <g clip-path="url(#clipPath406)" id="g404"><text id="text410" style="font-variant:normal;font-weight:normal;font-size:9px;font-family:'Roboto Condensed';-inkscape-font-specification:RobotoCondensed-Regular;writing-mode:lr-tb;fill:#000000;fill-opacity:1;fill-rule:nonzero;stroke:none" transform="matrix(1,0,0,-1,74.28,302.02)"><tspan id="tspan412" y="0" x="0 2.2320001 6.678 11.088">-15%</tspan></text>
</g>
    </g>
    <g id="g414">
      <g clip-path="url(#clipPath418)" id="g416"><text id="text422" style="font-variant:normal;font-weight:normal;font-size:9px;font-family:'Roboto Condensed';-inkscape-font-specification:RobotoCondensed-Regular;writing-mode:lr-tb;fill:#000000;fill-opacity:1;fill-rule:nonzero;stroke:none" transform="matrix(1,0,0,-1,74.28,325.82)"><tspan id="tspan424" y="0" x="0 2.2320001 6.678 11.088">-10%</tspan></text>
</g>
    </g>
    <g id="g426">
      <g clip-path="url(#clipPath430)" id="g428"><text id="text434" style="font-variant:normal;font-weight:normal;font-size:9px;font-family:'Roboto Condensed';-inkscape-font-specification:RobotoCondensed-Regular;writing-mode:lr-tb;fill:#000000;fill-opacity:1;fill-rule:nonzero;stroke:none" transform="matrix(1,0,0,-1,78.72,349.63)"><tspan id="tspan436" y="0" x="0 2.2320001 6.651">-5%</tspan></text>
</g>
    </g>
    <g id="g438">
      <g clip-path="url(#clipPath442)" id="g440"><text id="text446" style="font-variant:normal;font-weight:normal;font-size:9px;font-family:'Roboto Condensed';-inkscape-font-specification:RobotoCondensed-Regular;writing-mode:lr-tb;fill:#000000;fill-opacity:1;fill-rule:nonzero;stroke:none" transform="matrix(1,0,0,-1,80.952,373.44)"><tspan id="tspan448" y="0" x="0 4.3920002">0%</tspan></text>
</g>
    </g>
    <g id="g450">
      <g clip-path="url(#clipPath454)" id="g452"><text id="text458" style="font-variant:normal;font-weight:normal;font-size:9px;font-family:'Roboto Condensed';-inkscape-font-specification:RobotoCondensed-Regular;writing-mode:lr-tb;fill:#000000;fill-opacity:1;fill-rule:nonzero;stroke:none" transform="matrix(1,0,0,-1,80.952,397.25)"><tspan id="tspan460" y="0" x="0 4.3920002">5%</tspan></text>
</g>
    </g>
    <g id="g462">
      <g clip-path="url(#clipPath466)" id="g464"><text id="text470" style="font-variant:normal;font-weight:normal;font-size:9px;font-family:'Roboto Condensed';-inkscape-font-specification:RobotoCondensed-Regular;writing-mode:lr-tb;fill:#000000;fill-opacity:1;fill-rule:nonzero;stroke:none" transform="matrix(1,0,0,-1,76.512,421.06)"><tspan id="tspan472" y="0" x="0 4.4159999 8.8319998">10%</tspan></text>
</g>
    </g>
    <g id="g474">
      <g clip-path="url(#clipPath478)" id="g476"><text id="text482" style="font-variant:normal;font-weight:normal;font-size:9px;font-family:'Roboto Condensed';-inkscape-font-specification:RobotoCondensed-Regular;writing-mode:lr-tb;fill:#000000;fill-opacity:1;fill-rule:nonzero;stroke:none" transform="matrix(1,0,0,-1,76.512,444.86)"><tspan id="tspan484" y="0" x="0 4.4159999 8.8319998">15%</tspan></text>
</g>
    </g>
    <g id="g486">
      <g clip-path="url(#clipPath490)" id="g488"><text id="text494" style="font-variant:normal;font-weight:normal;font-size:9px;font-family:'Roboto Condensed';-inkscape-font-specification:RobotoCondensed-Regular;writing-mode:lr-tb;fill:#000000;fill-opacity:1;fill-rule:nonzero;stroke:none" transform="matrix(1,0,0,-1,76.512,468.67)"><tspan id="tspan496" y="0" x="0 4.4159999 8.8319998">20%</tspan></text>
</g>
    </g>
    <g id="g498">
      <g clip-path="url(#clipPath502)" id="g500"><text id="text506" style="font-variant:normal;font-weight:normal;font-size:9px;font-family:'Roboto Condensed';-inkscape-font-specification:RobotoCondensed-Regular;writing-mode:lr-tb;fill:#000000;fill-opacity:1;fill-rule:nonzero;stroke:none" transform="matrix(1,0,0,-1,76.512,492.48)"><tspan id="tspan508" y="0" x="0 4.4159999 8.8319998">25%</tspan></text>
</g>
    </g>
    <g id="g510">
      <g clip-path="url(#clipPath514)" id="g512"><text id="text518" style="font-variant:normal;font-weight:normal;font-size:9px;font-family:'Roboto Condensed';-inkscape-font-specification:RobotoCondensed-Regular;writing-mode:lr-tb;fill:#000000;fill-opacity:1;fill-rule:nonzero;stroke:none" transform="matrix(1,0,0,-1,76.512,516.29)"><tspan id="tspan520" y="0" x="0 4.4159999 8.8319998">30%</tspan></text>
</g>
    </g>
    <g id="g522">
      <g clip-path="url(#clipPath526)" id="g524"><text id="text530" style="font-variant:normal;font-weight:normal;font-size:9px;font-family:'Roboto Condensed';-inkscape-font-specification:RobotoCondensed-Regular;writing-mode:lr-tb;fill:#000000;fill-opacity:1;fill-rule:nonzero;stroke:none" transform="matrix(1,0,0,-1,136.66,266.71)"><tspan id="tspan532" y="0" x="0 4.3920002 8.7840004 13.266">2023</tspan></text>
</g>
    </g>
    <g id="g534">
      <g clip-path="url(#clipPath538)" id="g536"><text id="text542" style="font-variant:normal;font-weight:normal;font-size:9px;font-family:'Roboto Condensed';-inkscape-font-specification:RobotoCondensed-Regular;writing-mode:lr-tb;fill:#000000;fill-opacity:1;fill-rule:nonzero;stroke:none" transform="matrix(1,0,0,-1,229.13,266.71)"><tspan id="tspan544" y="0" x="0 4.4190001 8.8380003 13.338">2024</tspan></text>
</g>
    </g>
    <g id="g546">
      <g clip-path="url(#clipPath550)" id="g548"><text id="text554" style="font-variant:normal;font-weight:normal;font-size:9px;font-family:'Roboto Condensed';-inkscape-font-specification:RobotoCondensed-Regular;writing-mode:lr-tb;fill:#000000;fill-opacity:1;fill-rule:nonzero;stroke:none" transform="matrix(1,0,0,-1,319.54,266.71)"><tspan id="tspan556" y="0" x="0 4.3920002 8.7840004 13.284 17.676001">2025e</tspan></text>
</g>
    </g>
    <g id="g558">
      <g clip-path="url(#clipPath562)" id="g560"><text id="text566" style="font-variant:normal;font-weight:normal;font-size:9px;font-family:'Roboto Condensed';-inkscape-font-specification:RobotoCondensed-Regular;writing-mode:lr-tb;fill:#000000;fill-opacity:1;fill-rule:nonzero;stroke:none" transform="matrix(1,0,0,-1,412.03,266.71)"><tspan id="tspan568" y="0" x="0 4.3920002 8.7840004 13.266 17.658001">2026e</tspan></text>
</g>
    </g>
    <g id="g570">
      <g clip-path="url(#clipPath574)" id="g572"><text id="text578" style="font-variant:normal;font-weight:normal;font-size:9px;font-family:'Roboto Condensed';-inkscape-font-specification:RobotoCondensed-Regular;writing-mode:lr-tb;fill:#000000;fill-opacity:1;fill-rule:nonzero;stroke:none" transform="matrix(1,0,0,-1,504.5,266.71)"><tspan id="tspan580" y="0" x="0 4.4190001 8.8380003 13.338 17.757">2027e</tspan></text>
</g>
    </g>
    <g id="g582">
      <g clip-path="url(#clipPath586)" id="g584"><text id="text590" style="font-variant:normal;font-weight:bold;font-size:9px;font-family:'Roboto Condensed';-inkscape-font-specification:RobotoCondensed-Bold;writing-mode:lr-tb;fill:#000000;fill-opacity:1;fill-rule:nonzero;stroke:none" transform="matrix(-4.4e-8,1,1,4.4e-8,69.48,375.14)"><tspan id="tspan592" y="0" x="0 4.914 9.4139996 14.328 16.271999 21.500999 24.489 28.971001 34.713001 37.476002 41.903999 43.856998">YoY Growth %</tspan></text>
</g>
    </g>
    <g id="g594">
      <g clip-path="url(#clipPath598)" id="g596">
        <path id="path602" style="fill:#ffffff;fill-opacity:1;fill-rule:evenodd;stroke:none" d="m 122.11,242.88 412.91,0 0,14.952 -412.91,0 0,-14.952 z"/>
      </g>
    </g>
    <path id="path604" style="fill:#005aa4;fill-opacity:1;fill-rule:evenodd;stroke:none" d="m 143.4,247.94 16.385,0 0,4.8386 -16.385,0 0,-4.8386 z"/>
    <g id="g606">
      <g clip-path="url(#clipPath610)" id="g608"><text id="text614" style="font-variant:normal;font-weight:normal;font-size:9.02400017px;font-family:'Roboto Condensed';-inkscape-font-specification:RobotoCondensed-Regular;writing-mode:lr-tb;fill:#000000;fill-opacity:1;fill-rule:nonzero;stroke:none" transform="matrix(1,0,0,-1,161.54,247.61)"><tspan id="tspan616" y="0" x="0 5.107584 9.3308163 11.343168 13.409664 17.172672 21.395905 24.1392 27.830015 29.977728 34.588993 38.812225 43.206913 49.992962 54.17107 58.466496">Delivery Segment</tspan></text>
</g>
    </g>
    <path id="path618" style="fill:#eadfbc;fill-opacity:1;fill-rule:evenodd;stroke:none" d="m 243.61,247.94 16.385,0 0,4.8386 -16.385,0 0,-4.8386 z"/>
    <g id="g620">
      <g clip-path="url(#clipPath624)" id="g622"><text id="text628" style="font-variant:normal;font-weight:normal;font-size:9.02400017px;font-family:'Roboto Condensed';-inkscape-font-specification:RobotoCondensed-Regular;writing-mode:lr-tb;fill:#000000;fill-opacity:1;fill-rule:nonzero;stroke:none" transform="matrix(1,0,0,-1,261.77,247.61)"><tspan id="tspan630" y="0" x="0 5.1166081 9.646656 16.270271 20.773249 25.068672 27.730753 31.953983 33.975361 38.586624 42.809856 47.204544 53.990593 58.168705 62.464127">Compute Segment</tspan></text>
</g>
    </g>
    <path id="path632" style="fill:#226b5a;fill-opacity:1;fill-rule:evenodd;stroke:none" d="m 347.82,247.94 16.385,0 0,4.8386 -16.385,0 0,-4.8386 z"/>
    <g id="g634">
      <g clip-path="url(#clipPath638)" id="g636"><text id="text642" style="font-variant:normal;font-weight:normal;font-size:9.02400017px;font-family:'Roboto Condensed';-inkscape-font-specification:RobotoCondensed-Regular;writing-mode:lr-tb;fill:#000000;fill-opacity:1;fill-rule:nonzero;stroke:none" transform="matrix(1,0,0,-1,366,247.61)"><tspan id="tspan644" y="0" x="0 4.6112642 8.8344955 13.003584 17.308031 20.051329 22.117825 24.779903 28.47072 30.537216 35.121407 39.344639 43.712257 50.498302 54.676414 59.044033">Security Segment</tspan></text>
</g>
    </g>
    <path id="path646" style="fill:none;stroke:#00a0e2;stroke-width:1.27999997;stroke-linecap:round;stroke-linejoin:round;stroke-miterlimit:10;stroke-dasharray:none;stroke-opacity:1" d="m 448.59,250.36 16.38,0"/>
    <path id="path648" style="fill:#00a1e2;fill-opacity:1;fill-rule:nonzero;stroke:none" d="m 458.89,248.31 -4.3,4.3 m 0,-4.3 4.3,4.3"/>
    <path id="path650" style="fill:none;stroke:#00a0e2;stroke-width:0.42668;stroke-linecap:round;stroke-linejoin:round;stroke-miterlimit:10;stroke-dasharray:none;stroke-opacity:1" d="m 458.89,248.31 -4.3,4.3 m 0,-4.3 4.3,4.3"/>
    <g id="g652">
      <g clip-path="url(#clipPath656)" id="g654"><text id="text660" style="font-variant:normal;font-weight:normal;font-size:9.02400017px;font-family:'Roboto Condensed';-inkscape-font-specification:RobotoCondensed-Regular;writing-mode:lr-tb;fill:#000000;fill-opacity:1;fill-rule:nonzero;stroke:none" transform="matrix(1,0,0,-1,466.78,247.61)"><tspan id="tspan662" y="0" x="0 4.7015042 9.1413116 11.803392 16.125889 18.192385 20.258881 25.050625 29.273855 33.07296 37.296192 41.591618 45.995327">Total Revenue</tspan></text>
</g>
    </g>
  </g>
</svg>
