<?xml version="1.0" encoding="UTF-8" standalone="no"?>
<svg xmlns:dc="http://purl.org/dc/elements/1.1/" xmlns:cc="http://creativecommons.org/ns#" xmlns:rdf="http://www.w3.org/1999/02/22-rdf-syntax-ns#" xmlns:svg="http://www.w3.org/2000/svg" xmlns="http://www.w3.org/2000/svg" viewBox="66.31625 416.375 650.6875 328.575" height="328.575" width="650.6875" xml:space="preserve" version="1.1" id="svg2">
  <metadata id="metadata8">
    <rdf:RDF>
      <cc:Work rdf:about="">
        <dc:format>image/svg+xml</dc:format>
        <dc:type rdf:resource="http://purl.org/dc/dcmitype/StillImage"/>
      </cc:Work>
    </rdf:RDF>
  </metadata>
  <defs id="defs6">
    <clipPath id="clipPath16" clipPathUnits="userSpaceOnUse">
      <path style="clip-rule:evenodd" id="path18" d="m 53.053,290.27 520.55,0 0,262.86 -520.55,0 0,-262.86 z"/>
    </clipPath>
    <clipPath id="clipPath26" clipPathUnits="userSpaceOnUse">
      <path style="clip-rule:evenodd" id="path28" d="m 53.053,290.27 520.55,0 0,262.86 -520.55,0 0,-262.86 z"/>
    </clipPath>
    <clipPath id="clipPath38" clipPathUnits="userSpaceOnUse">
      <path style="clip-rule:evenodd" id="path40" d="m 110.95,340.32 434.36,0 0,192.8 -434.36,0 0,-192.8 z"/>
    </clipPath>
    <clipPath id="clipPath48" clipPathUnits="userSpaceOnUse">
      <path style="clip-rule:evenodd" id="path50" d="m 53.179,290.27 520.42,0 0,262.74 -520.42,0 0,-262.74 z"/>
    </clipPath>
    <clipPath id="clipPath60" clipPathUnits="userSpaceOnUse">
      <path style="clip-rule:evenodd" id="path62" d="m 373.89,426.57 199.71,0 0,30.316 -199.71,0 0,-30.316 z"/>
    </clipPath>
    <clipPath id="clipPath72" clipPathUnits="userSpaceOnUse">
      <path style="clip-rule:evenodd" id="path74" d="m 53.179,290.27 520.42,0 0,262.74 -520.42,0 0,-262.74 z"/>
    </clipPath>
    <clipPath id="clipPath84" clipPathUnits="userSpaceOnUse">
      <path style="clip-rule:evenodd" id="path86" d="m 53.179,290.27 520.42,0 0,262.74 -520.42,0 0,-262.74 z"/>
    </clipPath>
    <clipPath id="clipPath96" clipPathUnits="userSpaceOnUse">
      <path style="clip-rule:evenodd" id="path98" d="m 53.179,290.27 520.42,0 0,262.74 -520.42,0 0,-262.74 z"/>
    </clipPath>
    <clipPath id="clipPath108" clipPathUnits="userSpaceOnUse">
      <path style="clip-rule:evenodd" id="path110" d="m 53.179,290.27 520.42,0 0,262.74 -520.42,0 0,-262.74 z"/>
    </clipPath>
    <clipPath id="clipPath120" clipPathUnits="userSpaceOnUse">
      <path style="clip-rule:evenodd" id="path122" d="m 53.179,290.27 520.42,0 0,262.74 -520.42,0 0,-262.74 z"/>
    </clipPath>
    <clipPath id="clipPath132" clipPathUnits="userSpaceOnUse">
      <path style="clip-rule:evenodd" id="path134" d="m 53.179,290.27 520.42,0 0,262.74 -520.42,0 0,-262.74 z"/>
    </clipPath>
    <clipPath id="clipPath144" clipPathUnits="userSpaceOnUse">
      <path style="clip-rule:evenodd" id="path146" d="m 53.179,290.27 520.42,0 0,262.74 -520.42,0 0,-262.74 z"/>
    </clipPath>
    <clipPath id="clipPath156" clipPathUnits="userSpaceOnUse">
      <path style="clip-rule:evenodd" id="path158" d="m 53.179,290.27 520.42,0 0,262.74 -520.42,0 0,-262.74 z"/>
    </clipPath>
    <clipPath id="clipPath168" clipPathUnits="userSpaceOnUse">
      <path style="clip-rule:evenodd" id="path170" d="m 53.179,290.27 520.42,0 0,262.74 -520.42,0 0,-262.74 z"/>
    </clipPath>
    <clipPath id="clipPath180" clipPathUnits="userSpaceOnUse">
      <path style="clip-rule:evenodd" id="path182" d="m 53.179,290.27 520.42,0 0,262.74 -520.42,0 0,-262.74 z"/>
    </clipPath>
    <clipPath id="clipPath192" clipPathUnits="userSpaceOnUse">
      <path style="clip-rule:evenodd" id="path194" d="m 53.179,290.27 520.42,0 0,262.74 -520.42,0 0,-262.74 z"/>
    </clipPath>
    <clipPath id="clipPath204" clipPathUnits="userSpaceOnUse">
      <path style="clip-rule:evenodd" id="path206" d="m 53.179,290.27 520.42,0 0,262.74 -520.42,0 0,-262.74 z"/>
    </clipPath>
    <clipPath id="clipPath216" clipPathUnits="userSpaceOnUse">
      <path style="clip-rule:evenodd" id="path218" d="m 53.179,290.27 520.42,0 0,262.74 -520.42,0 0,-262.74 z"/>
    </clipPath>
    <clipPath id="clipPath228" clipPathUnits="userSpaceOnUse">
      <path style="clip-rule:evenodd" id="path230" d="m 53.179,290.27 520.42,0 0,262.74 -520.42,0 0,-262.74 z"/>
    </clipPath>
    <clipPath id="clipPath240" clipPathUnits="userSpaceOnUse">
      <path style="clip-rule:evenodd" id="path242" d="m 53.179,290.27 520.42,0 0,262.74 -520.42,0 0,-262.74 z"/>
    </clipPath>
    <clipPath id="clipPath252" clipPathUnits="userSpaceOnUse">
      <path style="clip-rule:evenodd" id="path254" d="m 53.179,290.27 520.42,0 0,262.74 -520.42,0 0,-262.74 z"/>
    </clipPath>
    <clipPath id="clipPath264" clipPathUnits="userSpaceOnUse">
      <path style="clip-rule:evenodd" id="path266" d="m 53.179,290.27 520.42,0 0,262.74 -520.42,0 0,-262.74 z"/>
    </clipPath>
    <clipPath id="clipPath276" clipPathUnits="userSpaceOnUse">
      <path style="clip-rule:evenodd" id="path278" d="m 53.179,290.27 520.42,0 0,262.74 -520.42,0 0,-262.74 z"/>
    </clipPath>
    <clipPath id="clipPath288" clipPathUnits="userSpaceOnUse">
      <path style="clip-rule:evenodd" id="path290" d="m 53.179,290.27 520.42,0 0,262.74 -520.42,0 0,-262.74 z"/>
    </clipPath>
    <clipPath id="clipPath300" clipPathUnits="userSpaceOnUse">
      <path style="clip-rule:evenodd" id="path302" d="m 53.179,290.27 520.42,0 0,262.74 -520.42,0 0,-262.74 z"/>
    </clipPath>
    <clipPath id="clipPath312" clipPathUnits="userSpaceOnUse">
      <path style="clip-rule:evenodd" id="path314" d="m 53.179,290.27 520.42,0 0,262.74 -520.42,0 0,-262.74 z"/>
    </clipPath>
    <clipPath id="clipPath324" clipPathUnits="userSpaceOnUse">
      <path style="clip-rule:evenodd" id="path326" d="m 53.179,290.27 520.42,0 0,262.74 -520.42,0 0,-262.74 z"/>
    </clipPath>
    <clipPath id="clipPath336" clipPathUnits="userSpaceOnUse">
      <path style="clip-rule:evenodd" id="path338" d="m 53.179,290.27 520.42,0 0,262.74 -520.42,0 0,-262.74 z"/>
    </clipPath>
    <clipPath id="clipPath348" clipPathUnits="userSpaceOnUse">
      <path style="clip-rule:evenodd" id="path350" d="m 53.179,290.27 520.42,0 0,262.74 -520.42,0 0,-262.74 z"/>
    </clipPath>
    <clipPath id="clipPath360" clipPathUnits="userSpaceOnUse">
      <path style="clip-rule:evenodd" id="path362" d="m 53.179,290.27 520.42,0 0,262.74 -520.42,0 0,-262.74 z"/>
    </clipPath>
    <clipPath id="clipPath372" clipPathUnits="userSpaceOnUse">
      <path style="clip-rule:evenodd" id="path374" d="m 53.179,290.27 520.42,0 0,262.74 -520.42,0 0,-262.74 z"/>
    </clipPath>
  </defs>
  <g transform="matrix(1.25,0,0,-1.25,0,1107.7875)" id="g10">
    <g id="g12">
      <g clip-path="url(#clipPath16)" id="g14">
        <path id="path20" style="fill:none;stroke:#000000;stroke-width:0.14;stroke-linecap:butt;stroke-linejoin:miter;stroke-miterlimit:10;stroke-dasharray:none;stroke-opacity:0" d="m 53.107,290.25 520.55,0 0,262.86 -520.55,0 0,-262.86 z"/>
      </g>
    </g>
    <g id="g22">
      <g clip-path="url(#clipPath26)" id="g24">
        <path id="path30" style="fill:#ffffff;fill-opacity:1;fill-rule:evenodd;stroke:none" d="m 53.108,290.25 520.55,0 0,262.86 -520.55,0 0,-262.86 z"/>
      </g>
    </g>
    <path id="path32" style="fill:none;stroke:#808080;stroke-width:0.85426998;stroke-linecap:butt;stroke-linejoin:round;stroke-miterlimit:10;stroke-dasharray:none;stroke-opacity:1" d="m 111,409.64 433.47,0"/>
    <g id="g34">
      <g clip-path="url(#clipPath38)" id="g36">
        <path id="path42" style="fill:none;stroke:#137cb1;stroke-width:3.41709995;stroke-linecap:round;stroke-linejoin:round;stroke-miterlimit:10;stroke-dasharray:none;stroke-opacity:1" d="m 79.827,509.55 c 2.347,2.15 4.693,6.52 7.04,6.46 2.347,-0.05 4.693,-5.77 7.04,-6.79 2.347,-1.03 4.693,0.77 7.043,0.64 2.34,-0.14 4.69,0.21 7.04,-1.45 2.34,-1.66 4.69,-8.41 7.04,-8.52 2.34,-0.11 4.69,8.01 7.04,7.88 2.34,-0.14 4.69,-6.2 7.04,-8.68 2.34,-2.47 4.69,-4.83 7.04,-6.18 2.34,-1.35 4.69,-0.98 7.04,-1.9 2.34,-0.92 4.69,-3.83 7.04,-3.62 2.34,0.21 4.69,3.4 7.04,4.88 2.34,1.47 4.69,4.72 7.04,3.97 2.34,-0.76 4.69,-7.82 7.04,-8.5 2.34,-0.67 4.69,2.23 7.04,4.47 2.34,2.23 4.69,7.05 7.04,8.94 2.35,1.9 4.69,2.98 7.04,2.42 2.35,-0.56 4.69,-3.88 7.04,-5.75 2.35,-1.88 4.69,-3.51 7.04,-5.49 2.35,-1.98 4.69,-5.18 7.04,-6.38 2.35,-1.21 4.69,0.86 7.04,-0.82 2.35,-1.69 4.69,-6.95 7.04,-9.3 2.35,-2.36 4.69,-4.86 7.04,-4.82 2.35,0.03 4.69,3.45 7.04,5.03 2.35,1.59 4.69,4.03 7.04,4.48 2.35,0.45 4.69,-1.32 7.04,-1.78 2.35,-0.46 4.69,-0.63 7.04,-0.98 2.35,-0.35 4.69,-1.21 7.04,-1.12 2.35,0.08 4.69,1.8 7.04,1.64 2.35,-0.16 4.69,-3.12 7.04,-2.6 2.35,0.53 4.69,6.97 7.04,5.75 2.35,-1.22 4.69,-10.07 7.04,-13.06 2.35,-2.98 4.69,-4.5 7.04,-4.85 2.35,-0.36 4.69,1.81 7.04,2.72 2.35,0.91 4.69,3.78 7.04,2.74 2.35,-1.05 4.69,-7.15 7.04,-8.99 2.35,-1.84 4.69,-2.1 7.04,-2.06 2.35,0.04 4.69,1.88 7.04,2.29 2.35,0.42 4.69,-0.86 7.04,0.18 2.35,1.05 4.69,5.76 7.04,6.09 2.35,0.33 4.69,-3.25 7.04,-4.12 2.35,-0.87 4.69,-0.52 7.04,-1.1 2.35,-0.58 4.69,-1.07 7.04,-2.38 2.35,-1.32 4.69,-4.05 7.04,-5.51 2.35,-1.46 4.69,-2.65 7.04,-3.25 2.35,-0.61 4.69,0.55 7.04,-0.37 2.35,-0.92 4.69,-3.56 7.04,-5.15 2.35,-1.59 4.69,-1.81 7.04,-4.38 2.35,-2.57 4.69,-8.67 7.04,-11.03 2.35,-2.36 4.7,-2.43 7.04,-3.11 2.35,-0.67 4.7,-1.32 7.04,-0.94 2.35,0.37 4.7,2.59 7.04,3.2 2.35,0.6 4.7,0.1 7.04,0.43 2.35,0.32 4.7,2.38 7.04,1.54 2.35,-0.85 4.7,-5.06 7.04,-6.62 2.35,-1.56 4.7,-1.89 7.04,-2.74 2.35,-0.85 4.7,-2.41 7.04,-2.34 2.35,0.08 4.7,2.42 7.04,2.82 2.35,0.39 4.7,-0.91 7.04,-0.43 2.35,0.49 4.7,3.7 7.04,3.35 1.97,-0.3 5.07,-1.47 7.04,-5.47 2.35,-4.77 4.7,-17.56 7.04,-23.13 2.35,-5.57 4.7,-6.17 7.04,-10.29 2.35,-4.13 4.7,-9.73 7.04,-14.46 2.35,-4.74 4.7,-12.06 7.04,-13.94 2.35,-1.89 4.7,2.74 7.04,2.65 2.35,-0.09 4.7,-2.13 7.04,-3.19"/>
      </g>
    </g>
    <g id="g44">
      <g clip-path="url(#clipPath48)" id="g46"><text id="text52" style="font-variant:normal;font-weight:normal;font-size:10.21100044px;font-family:Arial;-inkscape-font-specification:Arial;writing-mode:lr-tb;fill:#404040;fill-opacity:1;fill-rule:nonzero;stroke:none" transform="matrix(1,0,0,-1,480.11,443.81)"><tspan id="tspan54" y="0" x="0 7.3723421 12.947548 17.981571 20.983604 26.579233 32.174862 35.044151">Nov 18: </tspan></text>
</g>
    </g>
    <g id="g56">
      <g clip-path="url(#clipPath60)" id="g58"><text id="text64" style="font-variant:normal;font-weight:normal;font-size:10.21100044px;font-family:Arial;-inkscape-font-specification:Arial;writing-mode:lr-tb;fill:#404040;fill-opacity:1;fill-rule:nonzero;stroke:none" transform="matrix(1,0,0,-1,487.45,432.02)"><tspan id="tspan66" y="0" x="0 5.6002159 11.200432">11%</tspan></text>
</g>
    </g>
    <g id="g68">
      <g clip-path="url(#clipPath72)" id="g70"><text id="text76" style="font-variant:normal;font-weight:normal;font-size:10.23200035px;font-family:Arial;-inkscape-font-specification:Arial;writing-mode:lr-tb;fill:#404040;fill-opacity:1;fill-rule:nonzero;stroke:none" transform="matrix(1,0,0,-1,546.44,352.72)"><tspan id="tspan78" y="0" x="0">-</tspan></text>
</g>
    </g>
    <g id="g80">
      <g clip-path="url(#clipPath84)" id="g82"><text id="text88" style="font-variant:normal;font-weight:normal;font-size:10.23200035px;font-family:Arial;-inkscape-font-specification:Arial;writing-mode:lr-tb;fill:#404040;fill-opacity:1;fill-rule:nonzero;stroke:none" transform="matrix(1,0,0,-1,549.89,352.72)"><tspan id="tspan90" y="0" x="0 5.6001921 11.200384">39%</tspan></text>
</g>
    </g>
    <g id="g92">
      <g clip-path="url(#clipPath96)" id="g94"><text id="text100" style="font-variant:normal;font-weight:normal;font-size:10.23200035px;font-family:Arial;-inkscape-font-specification:Arial;writing-mode:lr-tb;fill:#595959;fill-opacity:1;fill-rule:nonzero;stroke:none" transform="matrix(1,0,0,-1,78.274,337.79)"><tspan id="tspan102" y="0" x="0 3.437952 9.0348558 14.775008">-50%</tspan></text>
</g>
    </g>
    <g id="g104">
      <g clip-path="url(#clipPath108)" id="g106"><text id="text112" style="font-variant:normal;font-weight:normal;font-size:10.21100044px;font-family:Arial;-inkscape-font-specification:Arial;writing-mode:lr-tb;fill:#595959;fill-opacity:1;fill-rule:nonzero;stroke:none" transform="matrix(1,0,0,-1,78.274,365.22)"><tspan id="tspan114" y="0" x="0 3.441107 9.0367346 14.775317">-30%</tspan></text>
</g>
    </g>
    <g id="g116">
      <g clip-path="url(#clipPath120)" id="g118"><text id="text124" style="font-variant:normal;font-weight:normal;font-size:10.21100044px;font-family:Arial;-inkscape-font-specification:Arial;writing-mode:lr-tb;fill:#595959;fill-opacity:1;fill-rule:nonzero;stroke:none" transform="matrix(1,0,0,-1,78.274,392.67)"><tspan id="tspan126" y="0" x="0 3.441107 9.0367346 14.775317">-10%</tspan></text>
</g>
    </g>
    <g id="g128">
      <g clip-path="url(#clipPath132)" id="g130"><text id="text136" style="font-variant:normal;font-weight:normal;font-size:10.21100044px;font-family:Arial;-inkscape-font-specification:Arial;writing-mode:lr-tb;fill:#595959;fill-opacity:1;fill-rule:nonzero;stroke:none" transform="matrix(1,0,0,-1,81.684,420.11)"><tspan id="tspan138" y="0" x="0 5.7385821 11.33421">10%</tspan></text>
</g>
    </g>
    <g id="g140">
      <g clip-path="url(#clipPath144)" id="g142"><text id="text148" style="font-variant:normal;font-weight:normal;font-size:10.21100044px;font-family:Arial;-inkscape-font-specification:Arial;writing-mode:lr-tb;fill:#595959;fill-opacity:1;fill-rule:nonzero;stroke:none" transform="matrix(1,0,0,-1,81.684,447.56)"><tspan id="tspan150" y="0" x="0 5.7385821 11.33421">30%</tspan></text>
</g>
    </g>
    <g id="g152">
      <g clip-path="url(#clipPath156)" id="g154"><text id="text160" style="font-variant:normal;font-weight:normal;font-size:10.21100044px;font-family:Arial;-inkscape-font-specification:Arial;writing-mode:lr-tb;fill:#595959;fill-opacity:1;fill-rule:nonzero;stroke:none" transform="matrix(1,0,0,-1,81.684,474.99)"><tspan id="tspan162" y="0" x="0 5.7385821 11.33421">50%</tspan></text>
</g>
    </g>
    <g id="g164">
      <g clip-path="url(#clipPath168)" id="g166"><text id="text172" style="font-variant:normal;font-weight:normal;font-size:10.21100044px;font-family:Arial;-inkscape-font-specification:Arial;writing-mode:lr-tb;fill:#595959;fill-opacity:1;fill-rule:nonzero;stroke:none" transform="matrix(1,0,0,-1,81.684,502.44)"><tspan id="tspan174" y="0" x="0 5.7385821 11.33421">70%</tspan></text>
</g>
    </g>
    <g id="g176">
      <g clip-path="url(#clipPath180)" id="g178"><text id="text184" style="font-variant:normal;font-weight:normal;font-size:10.21100044px;font-family:Arial;-inkscape-font-specification:Arial;writing-mode:lr-tb;fill:#595959;fill-opacity:1;fill-rule:nonzero;stroke:none" transform="matrix(1,0,0,-1,81.684,529.87)"><tspan id="tspan186" y="0" x="0 5.7385821 11.33421">90%</tspan></text>
</g>
    </g>
    <g id="g188">
      <g clip-path="url(#clipPath192)" id="g190"><text id="text196" style="font-variant:normal;font-weight:normal;font-size:10.21100044px;font-family:Arial;-inkscape-font-specification:Arial;writing-mode:lr-tb;fill:#595959;fill-opacity:1;fill-rule:nonzero;stroke:none" transform="matrix(-4.4e-8,1,1,4.4e-8,114.51,301.73)"><tspan id="tspan198" y="0" x="0 7.3723421 13.110924 18.277691 21.606476 27.36548">Nov-24</tspan></text>
</g>
    </g>
    <g id="g200">
      <g clip-path="url(#clipPath204)" id="g202"><text id="text208" style="font-variant:normal;font-weight:normal;font-size:10.23200035px;font-family:Arial;-inkscape-font-specification:Arial;writing-mode:lr-tb;fill:#595959;fill-opacity:1;fill-rule:nonzero;stroke:none" transform="matrix(-4.4e-8,1,1,4.4e-8,144.67,301.73)"><tspan id="tspan210" y="0" x="0 7.3465762 13.107192 18.274351 21.599752 27.360369">Dec-24</tspan></text>
</g>
    </g>
    <g id="g212">
      <g clip-path="url(#clipPath216)" id="g214"><text id="text220" style="font-variant:normal;font-weight:normal;font-size:10.21100044px;font-family:Arial;-inkscape-font-specification:Arial;writing-mode:lr-tb;fill:#595959;fill-opacity:1;fill-rule:nonzero;stroke:none" transform="matrix(-4.4e-8,1,1,4.4e-8,175.87,303.43)"><tspan id="tspan222" y="0" x="0 5.1667662 10.793027 16.552031 19.993137 25.619398">Jan-25</tspan></text>
</g>
    </g>
    <g id="g224">
      <g clip-path="url(#clipPath228)" id="g226"><text id="text232" style="font-variant:normal;font-weight:normal;font-size:10.21100044px;font-family:Arial;-inkscape-font-specification:Arial;writing-mode:lr-tb;fill:#595959;fill-opacity:1;fill-rule:nonzero;stroke:none" transform="matrix(-4.4e-8,1,1,4.4e-8,207.05,302.29)"><tspan id="tspan234" y="0" x="0 6.3308201 11.957081 17.716085 21.024448 26.783453">Feb-25</tspan></text>
</g>
    </g>
    <g id="g236">
      <g clip-path="url(#clipPath240)" id="g238"><text id="text244" style="font-variant:normal;font-weight:normal;font-size:10.21100044px;font-family:Arial;-inkscape-font-specification:Arial;writing-mode:lr-tb;fill:#595959;fill-opacity:1;fill-rule:nonzero;stroke:none" transform="matrix(-4.4e-8,1,1,4.4e-8,235.22,302.32)"><tspan id="tspan246" y="0" x="0 8.5057631 14.223923 17.66503 20.973394 26.711975">Mar-25</tspan></text>
</g>
    </g>
    <g id="g248">
      <g clip-path="url(#clipPath252)" id="g250"><text id="text256" style="font-variant:normal;font-weight:normal;font-size:10.21100044px;font-family:Arial;-inkscape-font-specification:Arial;writing-mode:lr-tb;fill:#595959;fill-opacity:1;fill-rule:nonzero;stroke:none" transform="matrix(-4.4e-8,1,1,4.4e-8,266.4,304.02)"><tspan id="tspan258" y="0" x="0 6.8924251 12.488053 15.92916 19.370268 24.965895">Apr-25</tspan></text>
</g>
    </g>
    <g id="g260">
      <g clip-path="url(#clipPath264)" id="g262"><text id="text268" style="font-variant:normal;font-weight:normal;font-size:10.21100044px;font-family:Arial;-inkscape-font-specification:Arial;writing-mode:lr-tb;fill:#595959;fill-opacity:1;fill-rule:nonzero;stroke:none" transform="matrix(-4.4e-8,1,1,4.4e-8,296.59,300.61)"><tspan id="tspan270" y="0" x="0 8.5057631 14.223923 19.39069 22.699053 28.437635">May-25</tspan></text>
</g>
    </g>
    <g id="g272">
      <g clip-path="url(#clipPath276)" id="g274"><text id="text280" style="font-variant:normal;font-weight:normal;font-size:10.21100044px;font-family:Arial;-inkscape-font-specification:Arial;writing-mode:lr-tb;fill:#595959;fill-opacity:1;fill-rule:nonzero;stroke:none" transform="matrix(-4.4e-8,1,1,4.4e-8,327.77,303.43)"><tspan id="tspan282" y="0" x="0 5.1667662 10.793027 16.552031 19.993137 25.619398">Jun-25</tspan></text>
</g>
    </g>
    <g id="g284">
      <g clip-path="url(#clipPath288)" id="g286"><text id="text292" style="font-variant:normal;font-weight:normal;font-size:10.23200035px;font-family:Arial;-inkscape-font-specification:Arial;writing-mode:lr-tb;fill:#595959;fill-opacity:1;fill-rule:nonzero;stroke:none" transform="matrix(-4.4e-8,1,1,4.4e-8,357.94,306.86)"><tspan id="tspan294" y="0" x="0 5.16716 10.784528 13.056032 16.524679 22.142048">Jul-25</tspan></text>
</g>
    </g>
    <g id="g296">
      <g clip-path="url(#clipPath300)" id="g298"><text id="text304" style="font-variant:normal;font-weight:normal;font-size:10.21100044px;font-family:Arial;-inkscape-font-specification:Arial;writing-mode:lr-tb;fill:#595959;fill-opacity:1;fill-rule:nonzero;stroke:none" transform="matrix(-4.4e-8,1,1,4.4e-8,389.14,301.73)"><tspan id="tspan306" y="0" x="0 6.8924251 12.488053 18.226635 21.535 27.273581">Aug-25</tspan></text>
</g>
    </g>
    <g id="g308">
      <g clip-path="url(#clipPath312)" id="g310"><text id="text316" style="font-variant:normal;font-weight:normal;font-size:10.21100044px;font-family:Arial;-inkscape-font-specification:Arial;writing-mode:lr-tb;fill:#595959;fill-opacity:1;fill-rule:nonzero;stroke:none" transform="matrix(-4.4e-8,1,1,4.4e-8,420.32,301.73)"><tspan id="tspan318" y="0" x="0 6.8924251 12.488053 18.226635 21.535 27.273581">Sep-25</tspan></text>
</g>
    </g>
    <g id="g320">
      <g clip-path="url(#clipPath324)" id="g322"><text id="text328" style="font-variant:normal;font-weight:normal;font-size:10.23200035px;font-family:Arial;-inkscape-font-specification:Arial;writing-mode:lr-tb;fill:#595959;fill-opacity:1;fill-rule:nonzero;stroke:none" transform="matrix(-4.4e-8,1,1,4.4e-8,450.48,304.02)"><tspan id="tspan330" y="0" x="0 7.9195681 13.086728 15.96192 19.399872 24.996777">Oct-25</tspan></text>
</g>
    </g>
    <g id="g332">
      <g clip-path="url(#clipPath336)" id="g334"><text id="text340" style="font-variant:normal;font-weight:normal;font-size:10.21100044px;font-family:Arial;-inkscape-font-specification:Arial;writing-mode:lr-tb;fill:#595959;fill-opacity:1;fill-rule:nonzero;stroke:none" transform="matrix(-4.4e-8,1,1,4.4e-8,481.68,301.73)"><tspan id="tspan342" y="0" x="0 7.3723421 13.110924 18.277691 21.606476 27.36548">Nov-25</tspan></text>
</g>
    </g>
    <g id="g344">
      <g clip-path="url(#clipPath348)" id="g346"><text id="text352" style="font-variant:normal;font-weight:normal;font-size:10.21100044px;font-family:Arial;-inkscape-font-specification:Arial;writing-mode:lr-tb;fill:#595959;fill-opacity:1;fill-rule:nonzero;stroke:none" transform="matrix(-4.4e-8,1,1,4.4e-8,511.85,301.73)"><tspan id="tspan354" y="0" x="0 7.3723421 13.110924 18.277691 21.606476 27.36548">Dec-25</tspan></text>
</g>
    </g>
    <g id="g356">
      <g clip-path="url(#clipPath360)" id="g358"><text id="text364" style="font-variant:normal;font-weight:normal;font-size:10.23200035px;font-family:Arial;-inkscape-font-specification:Arial;writing-mode:lr-tb;fill:#595959;fill-opacity:1;fill-rule:nonzero;stroke:none" transform="matrix(-4.4e-8,1,1,4.4e-8,543.03,303.43)"><tspan id="tspan366" y="0" x="0 5.16716 10.784528 16.545143 19.983095 25.600464">Jan-26</tspan></text>
</g>
    </g>
    <g id="g368">
      <g clip-path="url(#clipPath372)" id="g370"><text id="text376" style="font-variant:normal;font-weight:bold;font-size:11.93700027px;font-family:Arial;-inkscape-font-specification:'Arial Bold';writing-mode:lr-tb;fill:#595959;fill-opacity:1;fill-rule:nonzero;stroke:none" transform="matrix(1,0,0,-1,170.46,533.31)"><tspan id="tspan378" y="0" x="0 8.6185141 15.983643 19.30213 26.643385 33.280357 36.598843 40.633549 43.952034 47.270519 54.623711 61.964966 65.999672 69.174911 75.81189 82.44886 89.778175 96.415146 103.05212 106.37061 110.39338 116.87517 120.4682 127.80946 135.15071 138.46919 143.11269 150.4062 157.77133 161.80603 168.44301 175.07999 178.39847 182.42123 189.76248 192.93773 199.57471 206.21167 213.541 220.17796 227.50728 230.94514 234.97984 243.1925 251.10674 259.72525 263.78381 267.52011 278.02466">China flight capacity on routes to Japan (ASK) %Y</tspan></text>
</g>
    </g>
  </g>
</svg>
