<?xml version="1.0" encoding="UTF-8" standalone="no"?>
<svg xmlns:dc="http://purl.org/dc/elements/1.1/" xmlns:cc="http://creativecommons.org/ns#" xmlns:rdf="http://www.w3.org/1999/02/22-rdf-syntax-ns#" xmlns:svg="http://www.w3.org/2000/svg" xmlns="http://www.w3.org/2000/svg" viewBox="63 319.275 639 351.525" height="351.525" width="639" xml:space="preserve" version="1.1" id="svg2">
  <metadata id="metadata8">
    <rdf:RDF>
      <cc:Work rdf:about="">
        <dc:format>image/svg+xml</dc:format>
        <dc:type rdf:resource="http://purl.org/dc/dcmitype/StillImage"/>
      </cc:Work>
    </rdf:RDF>
  </metadata>
  <defs id="defs6">
    <clipPath id="clipPath16" clipPathUnits="userSpaceOnUse">
      <path style="clip-rule:evenodd" id="path18" d="m 50.4,255.36 511.2,0 0,281.28 -511.2,0 0,-281.28 z"/>
    </clipPath>
    <clipPath id="clipPath26" clipPathUnits="userSpaceOnUse">
      <path style="clip-rule:evenodd" id="path28" d="m 50.4,255.36 511.2,0 0,281.28 -511.2,0 0,-281.28 z"/>
    </clipPath>
    <clipPath id="clipPath42" clipPathUnits="userSpaceOnUse">
      <path style="clip-rule:evenodd" id="path44" d="m 50.52,255.36 510.96,0 0,281.28 -510.96,0 0,-281.28 z"/>
    </clipPath>
    <clipPath id="clipPath54" clipPathUnits="userSpaceOnUse">
      <path style="clip-rule:evenodd" id="path56" d="m 50.52,255.36 510.96,0 0,281.28 -510.96,0 0,-281.28 z"/>
    </clipPath>
    <clipPath id="clipPath66" clipPathUnits="userSpaceOnUse">
      <path style="clip-rule:evenodd" id="path68" d="m 50.52,255.36 510.96,0 0,281.28 -510.96,0 0,-281.28 z"/>
    </clipPath>
    <clipPath id="clipPath78" clipPathUnits="userSpaceOnUse">
      <path style="clip-rule:evenodd" id="path80" d="m 50.52,255.36 510.96,0 0,281.28 -510.96,0 0,-281.28 z"/>
    </clipPath>
    <clipPath id="clipPath90" clipPathUnits="userSpaceOnUse">
      <path style="clip-rule:evenodd" id="path92" d="m 50.52,255.36 510.96,0 0,281.28 -510.96,0 0,-281.28 z"/>
    </clipPath>
    <clipPath id="clipPath102" clipPathUnits="userSpaceOnUse">
      <path style="clip-rule:evenodd" id="path104" d="m 50.52,255.36 510.96,0 0,281.28 -510.96,0 0,-281.28 z"/>
    </clipPath>
    <clipPath id="clipPath114" clipPathUnits="userSpaceOnUse">
      <path style="clip-rule:evenodd" id="path116" d="m 50.52,255.36 510.96,0 0,281.28 -510.96,0 0,-281.28 z"/>
    </clipPath>
    <clipPath id="clipPath126" clipPathUnits="userSpaceOnUse">
      <path style="clip-rule:evenodd" id="path128" d="m 50.52,255.36 510.96,0 0,281.28 -510.96,0 0,-281.28 z"/>
    </clipPath>
    <clipPath id="clipPath138" clipPathUnits="userSpaceOnUse">
      <path style="clip-rule:evenodd" id="path140" d="m 50.52,255.36 510.96,0 0,281.28 -510.96,0 0,-281.28 z"/>
    </clipPath>
    <clipPath id="clipPath150" clipPathUnits="userSpaceOnUse">
      <path style="clip-rule:evenodd" id="path152" d="m 50.52,255.36 510.96,0 0,281.28 -510.96,0 0,-281.28 z"/>
    </clipPath>
    <clipPath id="clipPath162" clipPathUnits="userSpaceOnUse">
      <path style="clip-rule:evenodd" id="path164" d="m 50.52,255.36 510.96,0 0,281.28 -510.96,0 0,-281.28 z"/>
    </clipPath>
    <clipPath id="clipPath174" clipPathUnits="userSpaceOnUse">
      <path style="clip-rule:evenodd" id="path176" d="m 50.52,255.36 510.96,0 0,281.28 -510.96,0 0,-281.28 z"/>
    </clipPath>
    <clipPath id="clipPath186" clipPathUnits="userSpaceOnUse">
      <path style="clip-rule:evenodd" id="path188" d="m 50.52,255.36 510.96,0 0,281.28 -510.96,0 0,-281.28 z"/>
    </clipPath>
    <clipPath id="clipPath198" clipPathUnits="userSpaceOnUse">
      <path style="clip-rule:evenodd" id="path200" d="m 50.52,255.36 510.96,0 0,281.28 -510.96,0 0,-281.28 z"/>
    </clipPath>
    <clipPath id="clipPath210" clipPathUnits="userSpaceOnUse">
      <path style="clip-rule:evenodd" id="path212" d="m 50.52,255.36 510.96,0 0,281.28 -510.96,0 0,-281.28 z"/>
    </clipPath>
    <clipPath id="clipPath222" clipPathUnits="userSpaceOnUse">
      <path style="clip-rule:evenodd" id="path224" d="m 50.52,255.36 510.96,0 0,281.28 -510.96,0 0,-281.28 z"/>
    </clipPath>
    <clipPath id="clipPath234" clipPathUnits="userSpaceOnUse">
      <path style="clip-rule:evenodd" id="path236" d="m 50.52,255.36 510.96,0 0,281.28 -510.96,0 0,-281.28 z"/>
    </clipPath>
    <clipPath id="clipPath246" clipPathUnits="userSpaceOnUse">
      <path style="clip-rule:evenodd" id="path248" d="m 50.52,255.36 510.96,0 0,281.28 -510.96,0 0,-281.28 z"/>
    </clipPath>
    <clipPath id="clipPath258" clipPathUnits="userSpaceOnUse">
      <path style="clip-rule:evenodd" id="path260" d="m 50.52,255.36 510.96,0 0,281.28 -510.96,0 0,-281.28 z"/>
    </clipPath>
    <clipPath id="clipPath270" clipPathUnits="userSpaceOnUse">
      <path style="clip-rule:evenodd" id="path272" d="m 50.52,255.36 510.96,0 0,281.28 -510.96,0 0,-281.28 z"/>
    </clipPath>
    <clipPath id="clipPath282" clipPathUnits="userSpaceOnUse">
      <path style="clip-rule:evenodd" id="path284" d="m 50.52,255.36 510.96,0 0,281.28 -510.96,0 0,-281.28 z"/>
    </clipPath>
    <clipPath id="clipPath294" clipPathUnits="userSpaceOnUse">
      <path style="clip-rule:evenodd" id="path296" d="m 50.52,255.36 510.96,0 0,281.28 -510.96,0 0,-281.28 z"/>
    </clipPath>
    <clipPath id="clipPath306" clipPathUnits="userSpaceOnUse">
      <path style="clip-rule:evenodd" id="path308" d="m 50.52,255.36 510.96,0 0,281.28 -510.96,0 0,-281.28 z"/>
    </clipPath>
    <clipPath id="clipPath318" clipPathUnits="userSpaceOnUse">
      <path style="clip-rule:evenodd" id="path320" d="m 50.52,255.36 510.96,0 0,281.28 -510.96,0 0,-281.28 z"/>
    </clipPath>
    <clipPath id="clipPath330" clipPathUnits="userSpaceOnUse">
      <path style="clip-rule:evenodd" id="path332" d="m 50.52,255.36 510.96,0 0,281.28 -510.96,0 0,-281.28 z"/>
    </clipPath>
    <clipPath id="clipPath342" clipPathUnits="userSpaceOnUse">
      <path style="clip-rule:evenodd" id="path344" d="m 50.52,255.36 510.96,0 0,281.28 -510.96,0 0,-281.28 z"/>
    </clipPath>
    <clipPath id="clipPath354" clipPathUnits="userSpaceOnUse">
      <path style="clip-rule:evenodd" id="path356" d="m 50.52,255.36 510.96,0 0,281.28 -510.96,0 0,-281.28 z"/>
    </clipPath>
    <clipPath id="clipPath366" clipPathUnits="userSpaceOnUse">
      <path style="clip-rule:evenodd" id="path368" d="m 50.52,255.36 510.96,0 0,281.28 -510.96,0 0,-281.28 z"/>
    </clipPath>
    <clipPath id="clipPath378" clipPathUnits="userSpaceOnUse">
      <path style="clip-rule:evenodd" id="path380" d="m 50.52,255.36 510.96,0 0,281.28 -510.96,0 0,-281.28 z"/>
    </clipPath>
    <clipPath id="clipPath390" clipPathUnits="userSpaceOnUse">
      <path style="clip-rule:evenodd" id="path392" d="m 50.52,255.36 510.96,0 0,281.28 -510.96,0 0,-281.28 z"/>
    </clipPath>
    <clipPath id="clipPath402" clipPathUnits="userSpaceOnUse">
      <path style="clip-rule:evenodd" id="path404" d="m 50.52,255.36 510.96,0 0,281.28 -510.96,0 0,-281.28 z"/>
    </clipPath>
    <clipPath id="clipPath414" clipPathUnits="userSpaceOnUse">
      <path style="clip-rule:evenodd" id="path416" d="m 50.52,255.36 510.96,0 0,281.28 -510.96,0 0,-281.28 z"/>
    </clipPath>
    <clipPath id="clipPath426" clipPathUnits="userSpaceOnUse">
      <path style="clip-rule:evenodd" id="path428" d="m 50.52,255.36 510.96,0 0,281.28 -510.96,0 0,-281.28 z"/>
    </clipPath>
    <clipPath id="clipPath438" clipPathUnits="userSpaceOnUse">
      <path style="clip-rule:evenodd" id="path440" d="m 50.52,255.36 510.96,0 0,281.28 -510.96,0 0,-281.28 z"/>
    </clipPath>
    <clipPath id="clipPath450" clipPathUnits="userSpaceOnUse">
      <path style="clip-rule:evenodd" id="path452" d="m 50.52,255.36 510.96,0 0,281.28 -510.96,0 0,-281.28 z"/>
    </clipPath>
    <clipPath id="clipPath462" clipPathUnits="userSpaceOnUse">
      <path style="clip-rule:evenodd" id="path464" d="m 50.52,255.36 510.96,0 0,281.28 -510.96,0 0,-281.28 z"/>
    </clipPath>
    <clipPath id="clipPath474" clipPathUnits="userSpaceOnUse">
      <path style="clip-rule:evenodd" id="path476" d="m 50.52,255.36 510.96,0 0,281.28 -510.96,0 0,-281.28 z"/>
    </clipPath>
    <clipPath id="clipPath486" clipPathUnits="userSpaceOnUse">
      <path style="clip-rule:evenodd" id="path488" d="m 50.52,255.36 510.96,0 0,281.28 -510.96,0 0,-281.28 z"/>
    </clipPath>
    <clipPath id="clipPath498" clipPathUnits="userSpaceOnUse">
      <path style="clip-rule:evenodd" id="path500" d="m 50.52,255.36 510.96,0 0,281.28 -510.96,0 0,-281.28 z"/>
    </clipPath>
    <clipPath id="clipPath510" clipPathUnits="userSpaceOnUse">
      <path style="clip-rule:evenodd" id="path512" d="m 50.52,255.36 510.96,0 0,281.28 -510.96,0 0,-281.28 z"/>
    </clipPath>
    <clipPath id="clipPath522" clipPathUnits="userSpaceOnUse">
      <path style="clip-rule:evenodd" id="path524" d="m 50.52,255.36 510.96,0 0,281.28 -510.96,0 0,-281.28 z"/>
    </clipPath>
    <clipPath id="clipPath534" clipPathUnits="userSpaceOnUse">
      <path style="clip-rule:evenodd" id="path536" d="m 50.52,255.36 510.96,0 0,281.28 -510.96,0 0,-281.28 z"/>
    </clipPath>
  </defs>
  <g transform="matrix(1.25,0,0,-1.25,0,990)" id="g10">
    <g id="g12">
      <g clip-path="url(#clipPath16)" id="g14">
        <path id="path20" style="fill:none;stroke:#000000;stroke-width:0.14;stroke-linecap:butt;stroke-linejoin:miter;stroke-miterlimit:10;stroke-dasharray:none;stroke-opacity:0" d="m 50.429,255.33 511.08,0 0,281.18 -511.08,0 0,-281.18 z"/>
      </g>
    </g>
    <g id="g22">
      <g clip-path="url(#clipPath26)" id="g24">
        <path id="path30" style="fill:#ffffff;fill-opacity:1;fill-rule:evenodd;stroke:none" d="m 50.429,255.33 511.08,0 0,281.18 -511.08,0 0,-281.18 z"/>
      </g>
    </g>
    <path id="path32" style="fill:none;stroke:#c0c0c0;stroke-width:0.66417003;stroke-linecap:round;stroke-linejoin:round;stroke-miterlimit:10;stroke-dasharray:none;stroke-opacity:1" d="m 268.33,504.07 0,-214.65 M 356,504.07 356,289.42 m 87.67,214.65 0,-214.65 m 87.72,214.65 0,-214.65"/>
    <path id="path34" style="fill:#005aa4;fill-opacity:1;fill-rule:nonzero;stroke:none" d="m 180.62,293.07 0.16,0 0,4.62 -0.16,0 0,-4.62 z m 1.16,11.8 -1.16,0 0,4.78 1.16,0 0,-4.78 z m 0.47,11.95 -1.63,0 0,4.78 1.63,0 0,-4.78 z m 0.8,11.96 -2.43,0 0,4.78 2.43,0 0,-4.78 z m 0.32,11.95 -2.75,0 0,4.78 2.75,0 0,-4.78 z m 0.32,11.96 -3.07,0 0,4.62 3.07,0 0,-4.62 z m 0.32,11.79 -3.39,0 0,4.79 3.39,0 0,-4.79 z m 0.16,11.96 -3.55,0 0,4.78 3.55,0 0,-4.78 z m 2.71,11.95 -6.26,0 0,4.79 6.26,0 0,-4.79 z m 2.07,11.96 -8.33,0 0,4.78 8.33,0 0,-4.78 z m 1.43,11.95 -9.76,0 0,4.79 9.76,0 0,-4.79 z m 0.16,11.8 -9.92,0 0,4.78 9.92,0 0,-4.78 z m 2.87,11.95 -12.79,0 0,4.79 12.79,0 0,-4.79 z m 2.55,11.96 -15.34,0 0,4.78 15.34,0 0,-4.78 z m 0.96,11.95 -16.3,0 0,4.79 16.3,0 0,-4.79 z m 14.19,11.96 -30.49,0 0,4.78 30.49,0 0,-4.78 z m 7.49,11.95 -37.98,0 0,4.63 37.98,0 0,-4.63 z m 256.79,11.8 -294.77,0 0,4.78 294.77,0 0,-4.78 z"/>
    <path id="path36" style="fill:none;stroke:#808080;stroke-width:1.66040003;stroke-linecap:round;stroke-linejoin:round;stroke-miterlimit:10;stroke-dasharray:none;stroke-opacity:1" d="m 180.62,289.42 0.01,214.65"/>
    <g id="g38">
      <g clip-path="url(#clipPath42)" id="g40"><text id="text46" style="font-variant:normal;font-weight:normal;font-size:11.95199966px;font-family:'Roboto Condensed';-inkscape-font-specification:RobotoCondensed-Regular;writing-mode:lr-tb;fill:#000000;fill-opacity:1;fill-rule:nonzero;stroke:none" transform="matrix(1,0,0,-1,188.57,291.17)"><tspan id="tspan48" y="0" x="0 5.9039998">46</tspan></text>
</g>
    </g>
    <g id="g50">
      <g clip-path="url(#clipPath54)" id="g52"><text id="text58" style="font-variant:normal;font-weight:normal;font-size:11.97599983px;font-family:'Roboto Condensed';-inkscape-font-specification:RobotoCondensed-Regular;writing-mode:lr-tb;fill:#000000;fill-opacity:1;fill-rule:nonzero;stroke:none" transform="matrix(1,0,0,-1,189.74,303.1)"><tspan id="tspan60" y="0" x="0 5.9161439 8.2873917 14.203536 20.11968">1,306</tspan></text>
</g>
    </g>
    <g id="g62">
      <g clip-path="url(#clipPath66)" id="g64"><text id="text70" style="font-variant:normal;font-weight:normal;font-size:11.97599983px;font-family:'Roboto Condensed';-inkscape-font-specification:RobotoCondensed-Regular;writing-mode:lr-tb;fill:#000000;fill-opacity:1;fill-rule:nonzero;stroke:none" transform="matrix(1,0,0,-1,190.18,315.02)"><tspan id="tspan72" y="0" x="0 5.8802161 8.2275124 14.143656 20.011896">1,778</tspan></text>
</g>
    </g>
    <g id="g74">
      <g clip-path="url(#clipPath78)" id="g76"><text id="text82" style="font-variant:normal;font-weight:normal;font-size:11.97599983px;font-family:'Roboto Condensed';-inkscape-font-specification:RobotoCondensed-Regular;writing-mode:lr-tb;fill:#000000;fill-opacity:1;fill-rule:nonzero;stroke:none" transform="matrix(1,0,0,-1,190.99,326.95)"><tspan id="tspan84" y="0" x="0 5.8802161 8.2275124 14.143656 20.011896">2,711</tspan></text>
</g>
    </g>
    <g id="g86">
      <g clip-path="url(#clipPath90)" id="g88"><text id="text94" style="font-variant:normal;font-weight:normal;font-size:11.97599983px;font-family:'Roboto Condensed';-inkscape-font-specification:RobotoCondensed-Regular;writing-mode:lr-tb;fill:#000000;fill-opacity:1;fill-rule:nonzero;stroke:none" transform="matrix(1,0,0,-1,191.42,338.88)"><tspan id="tspan96" y="0" x="0 5.9161439 8.2634401 14.179584 20.095728">3,208</tspan></text>
</g>
    </g>
    <g id="g98">
      <g clip-path="url(#clipPath102)" id="g100"><text id="text106" style="font-variant:normal;font-weight:normal;font-size:11.97599983px;font-family:'Roboto Condensed';-inkscape-font-specification:RobotoCondensed-Regular;writing-mode:lr-tb;fill:#000000;fill-opacity:1;fill-rule:nonzero;stroke:none" transform="matrix(1,0,0,-1,191.66,350.81)"><tspan id="tspan108" y="0" x="0 5.9161439 8.2634401 14.179584 20.095728">3,480</tspan></text>
</g>
    </g>
    <g id="g110">
      <g clip-path="url(#clipPath114)" id="g112"><text id="text118" style="font-variant:normal;font-weight:normal;font-size:11.95199966px;font-family:'Roboto Condensed';-inkscape-font-specification:RobotoCondensed-Regular;writing-mode:lr-tb;fill:#000000;fill-opacity:1;fill-rule:nonzero;stroke:none" transform="matrix(1,0,0,-1,191.98,362.71)"><tspan id="tspan120" y="0" x="0 5.9042878 8.2468796 14.151168 20.0196">3,832</tspan></text>
</g>
    </g>
    <g id="g122">
      <g clip-path="url(#clipPath126)" id="g124"><text id="text130" style="font-variant:normal;font-weight:normal;font-size:11.95199966px;font-family:'Roboto Condensed';-inkscape-font-specification:RobotoCondensed-Regular;writing-mode:lr-tb;fill:#000000;fill-opacity:1;fill-rule:nonzero;stroke:none" transform="matrix(1,0,0,-1,192.19,374.64)"><tspan id="tspan132" y="0" x="0 5.9042878 8.2946882 14.198976 20.103264">4,093</tspan></text>
</g>
    </g>
    <g id="g134">
      <g clip-path="url(#clipPath138)" id="g136"><text id="text142" style="font-variant:normal;font-weight:normal;font-size:11.95199966px;font-family:'Roboto Condensed';-inkscape-font-specification:RobotoCondensed-Regular;writing-mode:lr-tb;fill:#000000;fill-opacity:1;fill-rule:nonzero;stroke:none" transform="matrix(1,0,0,-1,194.83,386.57)"><tspan id="tspan144" y="0" x="0 5.9042878 8.2946882 14.198976 20.103264">7,103</tspan></text>
</g>
    </g>
    <g id="g146">
      <g clip-path="url(#clipPath150)" id="g148"><text id="text154" style="font-variant:normal;font-weight:normal;font-size:11.95199966px;font-family:'Roboto Condensed';-inkscape-font-specification:RobotoCondensed-Regular;writing-mode:lr-tb;fill:#000000;fill-opacity:1;fill-rule:nonzero;stroke:none" transform="matrix(1,0,0,-1,196.87,398.5)"><tspan id="tspan156" y="0" x="0 5.9042878 8.2946882 14.198976 20.103264">9,422</tspan></text>
</g>
    </g>
    <g id="g158">
      <g clip-path="url(#clipPath162)" id="g160"><text id="text166" style="font-variant:normal;font-weight:normal;font-size:11.95199966px;font-family:'Roboto Condensed';-inkscape-font-specification:RobotoCondensed-Regular;writing-mode:lr-tb;fill:#000000;fill-opacity:1;fill-rule:nonzero;stroke:none" transform="matrix(1,0,0,-1,198.24,410.42)"><tspan id="tspan168" y="0" x="0 5.9042878 11.808576 14.151168 20.055456 25.959743">11,069</tspan></text>
</g>
    </g>
    <g id="g170">
      <g clip-path="url(#clipPath174)" id="g172"><text id="text178" style="font-variant:normal;font-weight:normal;font-size:11.95199966px;font-family:'Roboto Condensed';-inkscape-font-specification:RobotoCondensed-Regular;writing-mode:lr-tb;fill:#000000;fill-opacity:1;fill-rule:nonzero;stroke:none" transform="matrix(1,0,0,-1,198.38,422.35)"><tspan id="tspan180" y="0" x="0 5.9042878 11.808576 14.198976 20.103264 26.007551">11,247</tspan></text>
</g>
    </g>
    <g id="g182">
      <g clip-path="url(#clipPath186)" id="g184"><text id="text190" style="font-variant:normal;font-weight:normal;font-size:11.95199966px;font-family:'Roboto Condensed';-inkscape-font-specification:RobotoCondensed-Regular;writing-mode:lr-tb;fill:#000000;fill-opacity:1;fill-rule:nonzero;stroke:none" transform="matrix(1,0,0,-1,201.36,434.28)"><tspan id="tspan192" y="0" x="0 5.9042878 11.808576 14.198976 20.103264 26.007551">14,646</tspan></text>
</g>
    </g>
    <g id="g194">
      <g clip-path="url(#clipPath198)" id="g196"><text id="text202" style="font-variant:normal;font-weight:normal;font-size:11.95199966px;font-family:'Roboto Condensed';-inkscape-font-specification:RobotoCondensed-Regular;writing-mode:lr-tb;fill:#000000;fill-opacity:1;fill-rule:nonzero;stroke:none" transform="matrix(1,0,0,-1,203.9,446.21)"><tspan id="tspan204" y="0" x="0 5.9042878 11.808576 14.198976 20.103264 26.007551">17,542</tspan></text>
</g>
    </g>
    <g id="g206">
      <g clip-path="url(#clipPath210)" id="g208"><text id="text214" style="font-variant:normal;font-weight:normal;font-size:11.95199966px;font-family:'Roboto Condensed';-inkscape-font-specification:RobotoCondensed-Regular;writing-mode:lr-tb;fill:#000000;fill-opacity:1;fill-rule:nonzero;stroke:none" transform="matrix(1,0,0,-1,204.77,458.14)"><tspan id="tspan216" y="0" x="0 5.9042878 11.808576 14.151168 20.055456 25.959743">18,515</tspan></text>
</g>
    </g>
    <g id="g218">
      <g clip-path="url(#clipPath222)" id="g220"><text id="text226" style="font-variant:normal;font-weight:normal;font-size:11.95199966px;font-family:'Roboto Condensed';-inkscape-font-specification:RobotoCondensed-Regular;writing-mode:lr-tb;fill:#000000;fill-opacity:1;fill-rule:nonzero;stroke:none" transform="matrix(1,0,0,-1,218.98,470.06)"><tspan id="tspan228" y="0" x="0 5.9042878 11.808576 14.198976 20.103264 26.007551">34,726</tspan></text>
</g>
    </g>
    <g id="g230">
      <g clip-path="url(#clipPath234)" id="g232"><text id="text238" style="font-variant:normal;font-weight:normal;font-size:11.95199966px;font-family:'Roboto Condensed';-inkscape-font-specification:RobotoCondensed-Regular;writing-mode:lr-tb;fill:#000000;fill-opacity:1;fill-rule:nonzero;stroke:none" transform="matrix(1,0,0,-1,226.46,481.99)"><tspan id="tspan240" y="0" x="0 5.9042878 11.808576 14.151168 20.055456 25.959743">43,248</tspan></text>
</g>
    </g>
    <g id="g242">
      <g clip-path="url(#clipPath246)" id="g244"><text id="text250" style="font-variant:normal;font-weight:normal;font-size:11.95199966px;font-family:'Roboto Condensed';-inkscape-font-specification:RobotoCondensed-Regular;writing-mode:lr-tb;fill:#000000;fill-opacity:1;fill-rule:nonzero;stroke:none" transform="matrix(1,0,0,-1,483.36,493.92)"><tspan id="tspan252" y="0" x="0 5.9042878 11.808576 17.712864 20.103264 26.007551 31.91184">336,076</tspan></text>
</g>
    </g>
    <g id="g254">
      <g clip-path="url(#clipPath258)" id="g256"><text id="text262" style="font-variant:normal;font-weight:normal;font-size:11.95199966px;font-family:'Roboto Condensed';-inkscape-font-specification:RobotoCondensed-Regular;writing-mode:lr-tb;fill:#000000;fill-opacity:1;fill-rule:nonzero;stroke:none" transform="matrix(1,0,0,-1,177.72,270.46)"><tspan id="tspan264" y="0" x="0">0</tspan></text>
</g>
    </g>
    <g id="g266">
      <g clip-path="url(#clipPath270)" id="g268"><text id="text274" style="font-variant:normal;font-weight:normal;font-size:11.95199966px;font-family:'Roboto Condensed';-inkscape-font-specification:RobotoCondensed-Regular;writing-mode:lr-tb;fill:#000000;fill-opacity:1;fill-rule:nonzero;stroke:none" transform="matrix(1,0,0,-1,249.48,270.46)"><tspan id="tspan276" y="0" x="0 5.9042878 11.808576 17.712864 20.103264 26.007551 31.91184">100,000</tspan></text>
</g>
    </g>
    <g id="g278">
      <g clip-path="url(#clipPath282)" id="g280"><text id="text286" style="font-variant:normal;font-weight:normal;font-size:11.95199966px;font-family:'Roboto Condensed';-inkscape-font-specification:RobotoCondensed-Regular;writing-mode:lr-tb;fill:#000000;fill-opacity:1;fill-rule:nonzero;stroke:none" transform="matrix(1,0,0,-1,337.18,270.46)"><tspan id="tspan288" y="0" x="0 5.9042878 11.808576 17.712864 20.103264 26.007551 31.91184">200,000</tspan></text>
</g>
    </g>
    <g id="g290">
      <g clip-path="url(#clipPath294)" id="g292"><text id="text298" style="font-variant:normal;font-weight:normal;font-size:11.95199966px;font-family:'Roboto Condensed';-inkscape-font-specification:RobotoCondensed-Regular;writing-mode:lr-tb;fill:#000000;fill-opacity:1;fill-rule:nonzero;stroke:none" transform="matrix(1,0,0,-1,424.9,270.46)"><tspan id="tspan300" y="0" x="0 5.9042878 11.760768 17.665056 20.007648 25.911936 31.780369">300,000</tspan></text>
</g>
    </g>
    <g id="g302">
      <g clip-path="url(#clipPath306)" id="g304"><text id="text310" style="font-variant:normal;font-weight:normal;font-size:11.95199966px;font-family:'Roboto Condensed';-inkscape-font-specification:RobotoCondensed-Regular;writing-mode:lr-tb;fill:#000000;fill-opacity:1;fill-rule:nonzero;stroke:none" transform="matrix(1,0,0,-1,512.59,270.46)"><tspan id="tspan312" y="0" x="0 5.9042878 11.808576 17.712864 20.103264 26.007551 31.91184">400,000</tspan></text>
</g>
    </g>
    <g id="g314">
      <g clip-path="url(#clipPath318)" id="g316"><text id="text322" style="font-variant:normal;font-weight:normal;font-size:11.97599983px;font-family:'Roboto Condensed';-inkscape-font-specification:RobotoCondensed-Regular;writing-mode:lr-tb;fill:#000000;fill-opacity:1;fill-rule:nonzero;stroke:none" transform="matrix(1,0,0,-1,133.51,291.77)"><tspan id="tspan324" y="0" x="0 7.00596 12.742464 21.79632 24.538824 30.239401">Gaming</tspan></text>
</g>
    </g>
    <g id="g326">
      <g clip-path="url(#clipPath330)" id="g328"><text id="text334" style="font-variant:normal;font-weight:normal;font-size:11.97599983px;font-family:'Roboto Condensed';-inkscape-font-specification:RobotoCondensed-Regular;writing-mode:lr-tb;fill:#000000;fill-opacity:1;fill-rule:nonzero;stroke:none" transform="matrix(1,0,0,-1,123.6,303.7)"><tspan id="tspan336" y="0" x="0 6.2394962 9.8802004 12.5748 18.478968 21.161592 26.730433 29.568745 36.886082 42.454922">Triple Net</tspan></text>
</g>
    </g>
    <g id="g338">
      <g clip-path="url(#clipPath342)" id="g340"><text id="text346" style="font-variant:normal;font-weight:normal;font-size:11.97599983px;font-family:'Roboto Condensed';-inkscape-font-specification:RobotoCondensed-Regular;writing-mode:lr-tb;fill:#000000;fill-opacity:1;fill-rule:nonzero;stroke:none" transform="matrix(1,0,0,-1,119.54,315.62)"><tspan id="tspan348" y="0" x="0 6.8382959 9.5808001 14.706528 20.311296 23.952 29.377129 32.119633 35.904049 38.646553 44.25132">Diversified</tspan></text>
</g>
    </g>
    <g id="g350">
      <g clip-path="url(#clipPath354)" id="g352"><text id="text358" style="font-variant:normal;font-weight:normal;font-size:11.97599983px;font-family:'Roboto Condensed';-inkscape-font-specification:RobotoCondensed-Regular;writing-mode:lr-tb;fill:#000000;fill-opacity:1;fill-rule:nonzero;stroke:none" transform="matrix(1,0,0,-1,91.32,327.55)"><tspan id="tspan360" y="0" x="0 5.7245278 11.628696 17.688553 23.425056 26.287319 32.023823 37.927994 42.371086 48.610584 54.335114 59.760239 65.664406 69.305115 72.838036">Lodging/Resorts</tspan></text>
</g>
    </g>
    <g id="g362">
      <g clip-path="url(#clipPath366)" id="g364"><text id="text370" style="font-variant:normal;font-weight:normal;font-size:11.95199966px;font-family:'Roboto Condensed';-inkscape-font-specification:RobotoCondensed-Regular;writing-mode:lr-tb;fill:#000000;fill-opacity:1;fill-rule:nonzero;stroke:none" transform="matrix(1,0,0,-1,118.44,339.46)"><tspan id="tspan372" y="0" x="0 7.4819522 13.075488 18.800495 21.501648 25.027489 30.740543 36.298225 42.023232 45.537121">Healthcare</tspan></text>
</g>
    </g>
    <g id="g374">
      <g clip-path="url(#clipPath378)" id="g376"><text id="text382" style="font-variant:normal;font-weight:normal;font-size:11.95199966px;font-family:'Roboto Condensed';-inkscape-font-specification:RobotoCondensed-Regular;writing-mode:lr-tb;fill:#000000;fill-opacity:1;fill-rule:nonzero;stroke:none" transform="matrix(1,0,0,-1,151.42,351.38)"><tspan id="tspan384" y="0" x="0 6.1911359 11.928096">SFR</tspan></text>
</g>
    </g>
    <g id="g386">
      <g clip-path="url(#clipPath390)" id="g388"><text id="text394" style="font-variant:normal;font-weight:normal;font-size:11.95199966px;font-family:'Roboto Condensed';-inkscape-font-specification:RobotoCondensed-Regular;writing-mode:lr-tb;fill:#000000;fill-opacity:1;fill-rule:nonzero;stroke:none" transform="matrix(1,0,0,-1,142.25,363.31)"><tspan id="tspan396" y="0" x="0 6.1911359 9.7169762 13.374288 16.111296 22.003632">Strips</tspan></text>
</g>
    </g>
    <g id="g398">
      <g clip-path="url(#clipPath402)" id="g400"><text id="text406" style="font-variant:normal;font-weight:normal;font-size:11.95199966px;font-family:'Roboto Condensed';-inkscape-font-specification:RobotoCondensed-Regular;writing-mode:lr-tb;fill:#000000;fill-opacity:1;fill-rule:nonzero;stroke:none" transform="matrix(1,0,0,-1,144.02,375.24)"><tspan id="tspan408" y="0" x="0 9.0596161 14.784624 17.521631 20.222784">Malls</tspan></text>
</g>
    </g>
    <g id="g410">
      <g clip-path="url(#clipPath414)" id="g412"><text id="text418" style="font-variant:normal;font-weight:normal;font-size:11.95199966px;font-family:'Roboto Condensed';-inkscape-font-specification:RobotoCondensed-Regular;writing-mode:lr-tb;fill:#000000;fill-opacity:1;fill-rule:nonzero;stroke:none" transform="matrix(1,0,0,-1,67.656,387.17)"><tspan id="tspan420" y="0" x="0 9.0835199 14.808528 20.55744 26.294399 30.11904 35.844048 41.282207 44.939522 50.676479 54.333794 59.927326 65.855522 68.544724 76.026672 81.930962 91.014481 96.608017">Manufactured Homes</tspan></text>
</g>
    </g>
    <g id="g422">
      <g clip-path="url(#clipPath426)" id="g424"><text id="text430" style="font-variant:normal;font-weight:normal;font-size:11.95199966px;font-family:'Roboto Condensed';-inkscape-font-specification:RobotoCondensed-Regular;writing-mode:lr-tb;fill:#000000;fill-opacity:1;fill-rule:nonzero;stroke:none" transform="matrix(1,0,0,-1,141.1,399.1)"><tspan id="tspan432" y="0" x="0 7.1831522 10.959984 14.796576 17.533585 22.935888">Office</tspan></text>
</g>
    </g>
    <g id="g434">
      <g clip-path="url(#clipPath438)" id="g436"><text id="text442" style="font-variant:normal;font-weight:normal;font-size:11.95199966px;font-family:'Roboto Condensed';-inkscape-font-specification:RobotoCondensed-Regular;writing-mode:lr-tb;fill:#000000;fill-opacity:1;fill-rule:nonzero;stroke:none" transform="matrix(1,0,0,-1,135,411.02)"><tspan id="tspan444" y="0" x="0 6.2269921 12.298608 19.959841 25.708752 29.234592">Towers</tspan></text>
</g>
    </g>
    <g id="g446">
      <g clip-path="url(#clipPath450)" id="g448"><text id="text454" style="font-variant:normal;font-weight:normal;font-size:11.95199966px;font-family:'Roboto Condensed';-inkscape-font-specification:RobotoCondensed-Regular;writing-mode:lr-tb;fill:#000000;fill-opacity:1;fill-rule:nonzero;stroke:none" transform="matrix(1,0,0,-1,136.61,422.95)"><tspan id="tspan456" y="0" x="0 6.2269921 8.9281445 18.011663 23.903999 29.497536">Timber</tspan></text>
</g>
    </g>
    <g id="g458">
      <g clip-path="url(#clipPath462)" id="g460"><text id="text466" style="font-variant:normal;font-weight:normal;font-size:11.95199966px;font-family:'Roboto Condensed';-inkscape-font-specification:RobotoCondensed-Regular;writing-mode:lr-tb;fill:#000000;fill-opacity:1;fill-rule:nonzero;stroke:none" transform="matrix(1,0,0,-1,114.65,434.88)"><tspan id="tspan468" y="0" x="0 6.8843522 12.776688 18.501696 22.159008 25.684849 34.744465 40.338001 46.074959 49.6008">Apartments</tspan></text>
</g>
    </g>
    <g id="g470">
      <g clip-path="url(#clipPath474)" id="g472"><text id="text478" style="font-variant:normal;font-weight:normal;font-size:11.95199966px;font-family:'Roboto Condensed';-inkscape-font-specification:RobotoCondensed-Regular;writing-mode:lr-tb;fill:#000000;fill-opacity:1;fill-rule:nonzero;stroke:none" transform="matrix(1,0,0,-1,108.77,446.81)"><tspan id="tspan480" y="0" x="0 6.848496 12.573504 16.099344 21.824352 24.561359 31.230576 36.955585 42.692543 46.218384 51.81192 55.445328">Data Centers</tspan></text>
</g>
    </g>
    <g id="g482">
      <g clip-path="url(#clipPath486)" id="g484"><text id="text490" style="font-variant:normal;font-weight:normal;font-size:11.95199966px;font-family:'Roboto Condensed';-inkscape-font-specification:RobotoCondensed-Regular;writing-mode:lr-tb;fill:#000000;fill-opacity:1;fill-rule:nonzero;stroke:none" transform="matrix(1,0,0,-1,133.1,458.74)"><tspan id="tspan492" y="0" x="0 6.1911359 9.7169762 15.752736 19.410048 25.003584 30.89592">Storage</tspan></text>
</g>
    </g>
    <g id="g494">
      <g clip-path="url(#clipPath498)" id="g496"><text id="text502" style="font-variant:normal;font-weight:normal;font-size:11.95199966px;font-family:'Roboto Condensed';-inkscape-font-specification:RobotoCondensed-Regular;writing-mode:lr-tb;fill:#000000;fill-opacity:1;fill-rule:nonzero;stroke:none" transform="matrix(1,0,0,-1,126.77,470.66)"><tspan id="tspan504" y="0" x="0 6.1911359 12.107376 17.700912 23.222736 25.959743 31.684752 34.421761 37.911743">Specialty</tspan></text>
</g>
    </g>
    <g id="g506">
      <g clip-path="url(#clipPath510)" id="g508"><text id="text514" style="font-variant:normal;font-weight:normal;font-size:11.95199966px;font-family:'Roboto Condensed';-inkscape-font-specification:RobotoCondensed-Regular;writing-mode:lr-tb;fill:#000000;fill-opacity:1;fill-rule:nonzero;stroke:none" transform="matrix(1,0,0,-1,125.4,482.59)"><tspan id="tspan516" y="0" x="0 3.011904 8.7488642 14.629248 20.497681 25.947792 29.425823 33.059231 35.796242 41.521248">Industrial</tspan></text>
</g>
    </g>
    <g id="g518">
      <g clip-path="url(#clipPath522)" id="g520"><text id="text526" style="font-variant:normal;font-weight:normal;font-size:11.95199966px;font-family:'Roboto Condensed';-inkscape-font-specification:RobotoCondensed-Regular;writing-mode:lr-tb;fill:#000000;fill-opacity:1;fill-rule:nonzero;stroke:none" transform="matrix(1,0,0,-1,81.624,494.52)"><tspan id="tspan528" y="0" x="0 6.537744 10.195056 16.099344 21.489697 27.083233 30.7764 36.226513 39.071087 45.453457 48.190464 54.381599 59.975136 63.632446 68.747902 71.616386 77.042595 82.636131">Brokers &amp; Services</tspan></text>
</g>
    </g>
    <g id="g530">
      <g clip-path="url(#clipPath534)" id="g532"><text id="text538" style="font-variant:normal;font-weight:bold;font-size:14.35200024px;font-family:'Roboto Condensed';-inkscape-font-specification:RobotoCondensed-Bold;writing-mode:lr-tb;fill:#000000;fill-opacity:1;fill-rule:nonzero;stroke:none" transform="matrix(1,0,0,-1,191.33,512.81)"><tspan id="tspan540" y="0" x="0 7.7931361 14.940432 19.432608 26.134993 29.794752 32.980896 40.027729 50.67691 57.824207 61.483967 68.631264 75.032257 81.863808 88.738419 95.254227 98.426018 106.37702 113.25163 120.39893 127.54623 132.31108 136.80327 143.67787 150.79646 153.83908 161.00073 167.40173 170.70268 178.48148 185.48524 192.6469 199.1627 206.03731 212.53877 216.98788 224.13518">Total Employees Reported by Subsector</tspan></text>
</g>
    </g>
  </g>
</svg>
