<?xml version="1.0" encoding="UTF-8" standalone="no"?>
<svg xmlns:dc="http://purl.org/dc/elements/1.1/" xmlns:cc="http://creativecommons.org/ns#" xmlns:rdf="http://www.w3.org/1999/02/22-rdf-syntax-ns#" xmlns:svg="http://www.w3.org/2000/svg" xmlns="http://www.w3.org/2000/svg" viewBox="63.105 306.625 638.895 376.775" height="376.775" width="638.895" xml:space="preserve" version="1.1" id="svg2">
  <metadata id="metadata8">
    <rdf:RDF>
      <cc:Work rdf:about="">
        <dc:format>image/svg+xml</dc:format>
        <dc:type rdf:resource="http://purl.org/dc/dcmitype/StillImage"/>
      </cc:Work>
    </rdf:RDF>
  </metadata>
  <defs id="defs6">
    <clipPath id="clipPath16" clipPathUnits="userSpaceOnUse">
      <path style="clip-rule:evenodd" id="path18" d="m 50.4,245.28 511.2,0 0,301.44 -511.2,0 0,-301.44 z"/>
    </clipPath>
    <clipPath id="clipPath26" clipPathUnits="userSpaceOnUse">
      <path style="clip-rule:evenodd" id="path28" d="m 50.4,245.28 511.2,0 0,301.44 -511.2,0 0,-301.44 z"/>
    </clipPath>
    <clipPath id="clipPath44" clipPathUnits="userSpaceOnUse">
      <path style="clip-rule:evenodd" id="path46" d="m 50.52,245.28 511.08,0 0,301.32 -511.08,0 0,-301.32 z"/>
    </clipPath>
    <clipPath id="clipPath56" clipPathUnits="userSpaceOnUse">
      <path style="clip-rule:evenodd" id="path58" d="m 50.52,245.28 511.08,0 0,301.32 -511.08,0 0,-301.32 z"/>
    </clipPath>
    <clipPath id="clipPath68" clipPathUnits="userSpaceOnUse">
      <path style="clip-rule:evenodd" id="path70" d="m 50.52,245.28 511.08,0 0,301.32 -511.08,0 0,-301.32 z"/>
    </clipPath>
    <clipPath id="clipPath80" clipPathUnits="userSpaceOnUse">
      <path style="clip-rule:evenodd" id="path82" d="m 50.52,245.28 511.08,0 0,301.32 -511.08,0 0,-301.32 z"/>
    </clipPath>
    <clipPath id="clipPath92" clipPathUnits="userSpaceOnUse">
      <path style="clip-rule:evenodd" id="path94" d="m 50.52,245.28 511.08,0 0,301.32 -511.08,0 0,-301.32 z"/>
    </clipPath>
    <clipPath id="clipPath104" clipPathUnits="userSpaceOnUse">
      <path style="clip-rule:evenodd" id="path106" d="m 50.52,245.28 511.08,0 0,301.32 -511.08,0 0,-301.32 z"/>
    </clipPath>
    <clipPath id="clipPath116" clipPathUnits="userSpaceOnUse">
      <path style="clip-rule:evenodd" id="path118" d="m 50.52,245.28 511.08,0 0,301.32 -511.08,0 0,-301.32 z"/>
    </clipPath>
    <clipPath id="clipPath128" clipPathUnits="userSpaceOnUse">
      <path style="clip-rule:evenodd" id="path130" d="m 50.52,245.28 511.08,0 0,301.32 -511.08,0 0,-301.32 z"/>
    </clipPath>
    <clipPath id="clipPath140" clipPathUnits="userSpaceOnUse">
      <path style="clip-rule:evenodd" id="path142" d="m 50.52,245.28 511.08,0 0,301.32 -511.08,0 0,-301.32 z"/>
    </clipPath>
    <clipPath id="clipPath152" clipPathUnits="userSpaceOnUse">
      <path style="clip-rule:evenodd" id="path154" d="m 50.52,245.28 511.08,0 0,301.32 -511.08,0 0,-301.32 z"/>
    </clipPath>
    <clipPath id="clipPath164" clipPathUnits="userSpaceOnUse">
      <path style="clip-rule:evenodd" id="path166" d="m 50.52,245.28 511.08,0 0,301.32 -511.08,0 0,-301.32 z"/>
    </clipPath>
    <clipPath id="clipPath176" clipPathUnits="userSpaceOnUse">
      <path style="clip-rule:evenodd" id="path178" d="m 50.52,245.28 511.08,0 0,301.32 -511.08,0 0,-301.32 z"/>
    </clipPath>
    <clipPath id="clipPath188" clipPathUnits="userSpaceOnUse">
      <path style="clip-rule:evenodd" id="path190" d="m 50.52,245.28 511.08,0 0,301.32 -511.08,0 0,-301.32 z"/>
    </clipPath>
    <clipPath id="clipPath200" clipPathUnits="userSpaceOnUse">
      <path style="clip-rule:evenodd" id="path202" d="m 50.52,245.28 511.08,0 0,301.32 -511.08,0 0,-301.32 z"/>
    </clipPath>
    <clipPath id="clipPath212" clipPathUnits="userSpaceOnUse">
      <path style="clip-rule:evenodd" id="path214" d="m 50.52,245.28 511.08,0 0,301.32 -511.08,0 0,-301.32 z"/>
    </clipPath>
    <clipPath id="clipPath224" clipPathUnits="userSpaceOnUse">
      <path style="clip-rule:evenodd" id="path226" d="m 50.52,245.28 511.08,0 0,301.32 -511.08,0 0,-301.32 z"/>
    </clipPath>
    <clipPath id="clipPath236" clipPathUnits="userSpaceOnUse">
      <path style="clip-rule:evenodd" id="path238" d="m 50.52,245.28 511.08,0 0,301.32 -511.08,0 0,-301.32 z"/>
    </clipPath>
    <clipPath id="clipPath252" clipPathUnits="userSpaceOnUse">
      <path style="clip-rule:evenodd" id="path254" d="m 50.52,245.28 511.08,0 0,301.32 -511.08,0 0,-301.32 z"/>
    </clipPath>
    <clipPath id="clipPath266" clipPathUnits="userSpaceOnUse">
      <path style="clip-rule:evenodd" id="path268" d="m 50.52,245.28 511.08,0 0,301.32 -511.08,0 0,-301.32 z"/>
    </clipPath>
  </defs>
  <g transform="matrix(1.25,0,0,-1.25,0,990)" id="g10">
    <g id="g12">
      <g clip-path="url(#clipPath16)" id="g14">
        <path id="path20" style="fill:none;stroke:#000000;stroke-width:0.14;stroke-linecap:butt;stroke-linejoin:miter;stroke-miterlimit:10;stroke-dasharray:none;stroke-opacity:0" d="m 50.554,245.26 511.03,0 0,301.37 -511.03,0 0,-301.37 z"/>
      </g>
    </g>
    <g id="g22">
      <g clip-path="url(#clipPath26)" id="g24">
        <path id="path30" style="fill:#ffffff;fill-opacity:1;fill-rule:evenodd;stroke:none" d="m 50.554,245.26 511.03,0 0,301.37 -511.03,0 0,-301.37 z"/>
      </g>
    </g>
    <path id="path32" style="fill:none;stroke:#c0c0c0;stroke-width:0.69608003;stroke-linecap:round;stroke-linejoin:round;stroke-miterlimit:10;stroke-dasharray:none;stroke-opacity:1" d="m 328.46,486.15 0,-208.55 m 52.45,208.55 0,-208.55 m 52.63,208.55 0,-208.55 m 52.62,208.55 0,-208.55 m 52.61,208.55 0,-208.55"/>
    <path id="path34" style="fill:#005aa4;fill-opacity:1;fill-rule:nonzero;stroke:none" d="m 303.06,283.85 -27.25,0 0,8.35 27.25,0 0,-8.35 z m -26.06,41.77 -1.19,0 0,8.35 1.19,0 0,-8.35 z m 15.71,41.59 -16.9,0 0,8.36 16.9,0 0,-8.36 z m -4.85,20.89 -12.05,0 0,8.35 12.05,0 0,-8.35 z m 20.88,20.88 -32.93,0 0,8.35 32.93,0 0,-8.35 z m -7.51,20.88 -25.42,0 0,8.35 25.42,0 0,-8.35 z m -13.03,20.88 -12.39,0 0,8.36 12.39,0 0,-8.36 z m 106.08,20.89 -118.47,0 0,8.18 118.47,0 0,-8.18 z"/>
    <path id="path36" style="fill:#eadfbc;fill-opacity:1;fill-rule:nonzero;stroke:none" d="m 380.41,283.85 -77.35,0 0,8.35 77.35,0 0,-8.35 z m -95.22,20.88 -9.38,0 0,8.36 9.38,0 0,-8.36 z m 13.03,20.89 -21.22,0 0,8.35 21.22,0 0,-8.35 z m 0.33,20.88 -22.74,0 0,8.18 22.74,0 0,-8.18 z m 29.07,20.71 -34.91,0 0,8.36 34.91,0 0,-8.36 z m 36.92,20.89 -76.68,0 0,8.35 76.68,0 0,-8.35 z m 36.75,20.88 -92.55,0 0,8.35 92.55,0 0,-8.35 z m 2.01,20.88 -102.07,0 0,8.35 102.07,0 0,-8.35 z m 80.86,20.88 -195.96,0 0,8.36 195.96,0 0,-8.36 z m 19.88,20.89 -109.76,0 0,8.18 109.76,0 0,-8.18 z"/>
    <path id="path38" style="fill:none;stroke:#808080;stroke-width:1.74020004;stroke-linecap:round;stroke-linejoin:round;stroke-miterlimit:10;stroke-dasharray:none;stroke-opacity:1" d="m 275.81,277.6 0,208.55"/>
    <g id="g40">
      <g clip-path="url(#clipPath44)" id="g42"><text id="text48" style="font-variant:normal;font-weight:normal;font-size:12.52799988px;font-family:'Roboto Condensed';-inkscape-font-specification:RobotoCondensed-Regular;writing-mode:lr-tb;fill:#000000;fill-opacity:1;fill-rule:nonzero;stroke:none" transform="matrix(1,0,0,-1,268.01,257.74)"><tspan id="tspan50" y="0" x="0 6.1888318 9.5338078">0.0</tspan></text>
</g>
    </g>
    <g id="g52">
      <g clip-path="url(#clipPath56)" id="g54"><text id="text60" style="font-variant:normal;font-weight:normal;font-size:12.52799988px;font-family:'Roboto Condensed';-inkscape-font-specification:RobotoCondensed-Regular;writing-mode:lr-tb;fill:#000000;fill-opacity:1;fill-rule:nonzero;stroke:none" transform="matrix(1,0,0,-1,317.52,257.74)"><tspan id="tspan62" y="0" x="0 6.1888318 12.377664 15.710112">20.0</tspan></text>
</g>
    </g>
    <g id="g64">
      <g clip-path="url(#clipPath68)" id="g66"><text id="text72" style="font-variant:normal;font-weight:normal;font-size:12.52799988px;font-family:'Roboto Condensed';-inkscape-font-specification:RobotoCondensed-Regular;writing-mode:lr-tb;fill:#000000;fill-opacity:1;fill-rule:nonzero;stroke:none" transform="matrix(1,0,0,-1,370.13,257.74)"><tspan id="tspan74" y="0" x="0 6.1888318 12.377664 15.710112">40.0</tspan></text>
</g>
    </g>
    <g id="g76">
      <g clip-path="url(#clipPath80)" id="g78"><text id="text84" style="font-variant:normal;font-weight:normal;font-size:12.52799988px;font-family:'Roboto Condensed';-inkscape-font-specification:RobotoCondensed-Regular;writing-mode:lr-tb;fill:#000000;fill-opacity:1;fill-rule:nonzero;stroke:none" transform="matrix(1,0,0,-1,422.74,257.74)"><tspan id="tspan86" y="0" x="0 6.1888318 12.34008 15.66">60.0</tspan></text>
</g>
    </g>
    <g id="g88">
      <g clip-path="url(#clipPath92)" id="g90"><text id="text96" style="font-variant:normal;font-weight:normal;font-size:12.52799988px;font-family:'Roboto Condensed';-inkscape-font-specification:RobotoCondensed-Regular;writing-mode:lr-tb;fill:#000000;fill-opacity:1;fill-rule:nonzero;stroke:none" transform="matrix(1,0,0,-1,475.32,257.74)"><tspan id="tspan98" y="0" x="0 6.1888318 12.377664 15.735168">80.0</tspan></text>
</g>
    </g>
    <g id="g100">
      <g clip-path="url(#clipPath104)" id="g102"><text id="text108" style="font-variant:normal;font-weight:normal;font-size:12.52799988px;font-family:'Roboto Condensed';-inkscape-font-specification:RobotoCondensed-Regular;writing-mode:lr-tb;fill:#000000;fill-opacity:1;fill-rule:nonzero;stroke:none" transform="matrix(1,0,0,-1,524.83,257.74)"><tspan id="tspan110" y="0" x="0 6.1888318 12.377664 18.566496 21.898945">100.0</tspan></text>
</g>
    </g>
    <g id="g112">
      <g clip-path="url(#clipPath116)" id="g114"><text id="text120" style="font-variant:normal;font-weight:normal;font-size:12.52799988px;font-family:'Roboto Condensed';-inkscape-font-specification:RobotoCondensed-Regular;writing-mode:lr-tb;fill:#000000;fill-opacity:1;fill-rule:nonzero;stroke:none" transform="matrix(1,0,0,-1,208.54,284.23)"><tspan id="tspan122" y="0" x="0 7.0407362 13.868496 16.737408 22.763376 28.12536 33.988464 37.796974 43.79789 50.011776">UK average</tspan></text>
</g>
    </g>
    <g id="g124">
      <g clip-path="url(#clipPath128)" id="g126"><text id="text132" style="font-variant:normal;font-weight:normal;font-size:12.52799988px;font-family:'Roboto Condensed';-inkscape-font-specification:RobotoCondensed-Regular;writing-mode:lr-tb;fill:#000000;fill-opacity:1;fill-rule:nonzero;stroke:none" transform="matrix(1,0,0,-1,209.3,305.09)"><tspan id="tspan134" y="0" x="0 6.2264161 9.0452156 15.058656 24.417072 30.280176 36.293617 40.127186 45.97776 49.78627">Elementary</tspan></text>
</g>
    </g>
    <g id="g136">
      <g clip-path="url(#clipPath140)" id="g138"><text id="text144" style="font-variant:normal;font-weight:normal;font-size:12.52799988px;font-family:'Roboto Condensed';-inkscape-font-specification:RobotoCondensed-Regular;writing-mode:lr-tb;fill:#000000;fill-opacity:1;fill-rule:nonzero;stroke:none" transform="matrix(1,0,0,-1,197.35,325.94)"><tspan id="tspan146" y="0" x="0 6.5145602 12.189744 15.058656 17.8524 20.721312 26.534304 32.886002 35.754913 39.388031 43.196545 49.235039 55.448929 61.312031">Skilled trades</tspan></text>
</g>
    </g>
    <g id="g148">
      <g clip-path="url(#clipPath152)" id="g150"><text id="text156" style="font-variant:normal;font-weight:normal;font-size:12.55200005px;font-family:'Roboto Condensed';-inkscape-font-specification:RobotoCondensed-Regular;writing-mode:lr-tb;fill:#000000;fill-opacity:1;fill-rule:nonzero;stroke:none" transform="matrix(1,0,0,-1,125.54,346.82)"><tspan id="tspan158" y="0" x="0 7.0165682 10.706856 17.058168 22.9074 28.781736 34.455238 40.178951 42.639145 45.513554 51.701687 54.576096 60.588505 66.613464 70.466927 72.814156 75.68856 81.700966 87.876549 94.102341 96.926544 106.29034 112.30274 118.15198 124.17693 127.05135 133.21437">Process, plant, and machine</tspan></text>
</g>
    </g>
    <g id="g160">
      <g clip-path="url(#clipPath164)" id="g162"><text id="text168" style="font-variant:normal;font-weight:normal;font-size:12.55200005px;font-family:'Roboto Condensed';-inkscape-font-specification:RobotoCondensed-Regular;writing-mode:lr-tb;fill:#000000;fill-opacity:1;fill-rule:nonzero;stroke:none" transform="matrix(1,0,0,-1,103.61,367.68)"><tspan id="tspan170" y="0" x="0 7.167192 13.028976 16.844784 19.719193 25.882223 32.070358 34.430138 37.417511 40.254265 46.128601 48.940247 54.66396 60.651264 64.467072 70.341408 72.851807 75.68856 81.700966 87.73848 94.08979 96.926544 103.27785 106.9807 112.968 118.84234 122.65814 125.53255 131.18095 137.05528 140.87109 146.24335 149.05499 154.90424">Caring, leisure, and other service</tspan></text>
</g>
    </g>
    <g id="g172">
      <g clip-path="url(#clipPath176)" id="g174"><text id="text180" style="font-variant:normal;font-weight:normal;font-size:12.52799988px;font-family:'Roboto Condensed';-inkscape-font-specification:RobotoCondensed-Regular;writing-mode:lr-tb;fill:#000000;fill-opacity:1;fill-rule:nonzero;stroke:none" transform="matrix(1,0,0,-1,65.568,388.54)"><tspan id="tspan182" y="0" x="0 9.5212803 15.522192 21.585745 27.586657 33.762959 39.626064 43.47216 49.184929 51.66547 54.534386 60.685631 63.554543 67.363052 73.226158 79.051682 82.747437 89.074081 92.744781 98.582832 100.9381 103.80701 109.80792 115.97169 122.18559 124.99186 130.70462 136.56773 142.71898 145.58789 151.73914 155.54765 158.41656 164.75572 168.75217 172.7486 175.61751 181.26764 184.2493 190.09987 193.08154">Managers, directors, and senior officials</tspan></text>
</g>
    </g>
    <g id="g184">
      <g clip-path="url(#clipPath188)" id="g186"><text id="text192" style="font-variant:normal;font-weight:normal;font-size:12.52799988px;font-family:'Roboto Condensed';-inkscape-font-specification:RobotoCondensed-Regular;writing-mode:lr-tb;fill:#000000;fill-opacity:1;fill-rule:nonzero;stroke:none" transform="matrix(1,0,0,-1,201.96,409.39)"><tspan id="tspan194" y="0" x="0 6.990624 10.661328 17.013023 21.009457 26.872561 32.585327 38.235455 41.104366 47.393425 53.456978 59.45789">Professional</tspan></text>
</g>
    </g>
    <g id="g196">
      <g clip-path="url(#clipPath200)" id="g198"><text id="text204" style="font-variant:normal;font-weight:normal;font-size:12.52799988px;font-family:'Roboto Condensed';-inkscape-font-specification:RobotoCondensed-Regular;writing-mode:lr-tb;fill:#000000;fill-opacity:1;fill-rule:nonzero;stroke:none" transform="matrix(1,0,0,-1,81.696,430.25)"><tspan id="tspan206" y="0" x="0 7.178544 12.8412 18.666719 24.830496 30.656015 33.524929 39.488255 43.184017 48.997009 51.865921 57.992111 61.800625 68.152321 72.14875 78.011856 83.649452 89.312111 92.181023 98.470078 104.48352 110.48443 113.31576 116.18467 122.148 128.29926 134.46303 137.33194 140.96506 146.82816 152.61609 158.62953 164.63045 167.61211 173.27477 179.27568">Associate professional and technical</tspan></text>
</g>
    </g>
    <g id="g208">
      <g clip-path="url(#clipPath212)" id="g210"><text id="text216" style="font-variant:normal;font-weight:normal;font-size:12.52799988px;font-family:'Roboto Condensed';-inkscape-font-specification:RobotoCondensed-Regular;writing-mode:lr-tb;fill:#000000;fill-opacity:1;fill-rule:nonzero;stroke:none" transform="matrix(1,0,0,-1,128.62,451.1)"><tspan id="tspan218" y="0" x="0 6.4895039 12.490416 15.359328 21.172319 26.834976 29.703888 35.667217 41.818462 47.982239 50.851151 56.639088 62.639999 68.302658 71.998413 78.287476 87.645889 93.508995 97.317505 100.18642 105.97435 111.83746 115.64597 121.00795 123.8017 129.46436">Sales and customer service</tspan></text>
</g>
    </g>
    <g id="g220">
      <g clip-path="url(#clipPath224)" id="g222"><text id="text228" style="font-variant:normal;font-weight:normal;font-size:12.52799988px;font-family:'Roboto Condensed';-inkscape-font-specification:RobotoCondensed-Regular;writing-mode:lr-tb;fill:#000000;fill-opacity:1;fill-rule:nonzero;stroke:none" transform="matrix(1,0,0,-1,116.35,471.96)"><tspan id="tspan230" y="0" x="0 7.178544 13.392432 22.888657 25.757568 31.745953 34.614864 40.415329 44.111088 47.919601 53.920513 57.616272 60.485184 65.809586 71.672691 74.491486 80.492401 86.555954 92.882591 95.751503 101.40163 107.26473 113.10278 116.91129 122.7744 126.47016 132.47107 136.31717 139.18608 145.187">Administrative and secretarial</tspan></text>
</g>
    </g>
    <g id="g232">
      <g clip-path="url(#clipPath236)" id="g234"><text id="text240" style="font-variant:normal;font-weight:bold;font-size:15.35999966px;font-family:'Roboto Condensed';-inkscape-font-specification:RobotoCondensed-Bold;writing-mode:lr-tb;fill:#000000;fill-opacity:1;fill-rule:nonzero;stroke:none" transform="matrix(1,0,0,-1,215.3,521.62)"><tspan id="tspan242" y="0" x="0 9.16992 13.33248 16.86528 24.40704 31.36512 39.060478 46.709759 53.729279 61.2864 66.385918 73.743362 76.769279 84.433922 91.284477 94.817284 104.09472 111.16032 118.14912 125.70624 133.30943 140.54401 145.19807 149.0688 156.71808 164.27521 168.05376 171.40224 181.248">AI Exposure by Occupation, % </tspan></text>
</g>
    </g>
    <path id="path244" style="fill:#ffffff;fill-opacity:1;fill-rule:evenodd;stroke:none" d="m 210.97,484.14 190.2,0 0,23.238 -190.2,0 0,-23.238 z"/>
    <path id="path246" style="fill:#005aa4;fill-opacity:1;fill-rule:evenodd;stroke:none" d="m 225.97,492.37 6.7659,0 0,6.7659 -6.7659,0 0,-6.7659 z"/>
    <g id="g248">
      <g clip-path="url(#clipPath252)" id="g250"><text id="text256" style="font-variant:normal;font-weight:normal;font-size:12.52799988px;font-family:'Roboto Condensed';-inkscape-font-specification:RobotoCondensed-Regular;writing-mode:lr-tb;fill:#000000;fill-opacity:1;fill-rule:nonzero;stroke:none" transform="matrix(1,0,0,-1,235.63,492)"><tspan id="tspan258" y="0" x="0 6.5145602 12.565584 18.741888 24.454657 28.087776 31.094496 34.790257 40.791168 44.486927 50.350033">Substituted</tspan></text>
</g>
    </g>
    <path id="path260" style="fill:#eadfbc;fill-opacity:1;fill-rule:evenodd;stroke:none" d="m 306.62,492.37 6.7659,0 0,6.7659 -6.7659,0 0,-6.7659 z"/>
    <g id="g262">
      <g clip-path="url(#clipPath266)" id="g264"><text id="text270" style="font-variant:normal;font-weight:normal;font-size:12.52799988px;font-family:'Roboto Condensed';-inkscape-font-specification:RobotoCondensed-Regular;writing-mode:lr-tb;fill:#000000;fill-opacity:1;fill-rule:nonzero;stroke:none" transform="matrix(1,0,0,-1,316.3,492)"><tspan id="tspan272" y="0" x="0 7.191072 13.379904 22.901184 29.077488 31.9464 37.809505 47.167919 53.031025 59.207329 62.903088 68.76619">Complemented</tspan></text>
</g>
    </g>
  </g>
</svg>
