<?xml version="1.0" encoding="UTF-8" standalone="no"?>
<svg xmlns:dc="http://purl.org/dc/elements/1.1/" xmlns:cc="http://creativecommons.org/ns#" xmlns:rdf="http://www.w3.org/1999/02/22-rdf-syntax-ns#" xmlns:svg="http://www.w3.org/2000/svg" xmlns="http://www.w3.org/2000/svg" viewBox="63 344.725 639 300.425" height="300.425" width="639" xml:space="preserve" version="1.1" id="svg2">
  <metadata id="metadata8">
    <rdf:RDF>
      <cc:Work rdf:about="">
        <dc:format>image/svg+xml</dc:format>
        <dc:type rdf:resource="http://purl.org/dc/dcmitype/StillImage"/>
      </cc:Work>
    </rdf:RDF>
  </metadata>
  <defs id="defs6">
    <clipPath id="clipPath16" clipPathUnits="userSpaceOnUse">
      <path style="clip-rule:evenodd" id="path18" d="m 50.4,275.88 511.2,0 0,240.36 -511.2,0 0,-240.36 z"/>
    </clipPath>
    <clipPath id="clipPath34" clipPathUnits="userSpaceOnUse">
      <path style="clip-rule:evenodd" id="path36" d="m 50.52,275.88 511.08,0 0,240.24 -511.08,0 0,-240.24 z"/>
    </clipPath>
    <clipPath id="clipPath46" clipPathUnits="userSpaceOnUse">
      <path style="clip-rule:evenodd" id="path48" d="m 50.52,275.88 511.08,0 0,240.24 -511.08,0 0,-240.24 z"/>
    </clipPath>
    <clipPath id="clipPath58" clipPathUnits="userSpaceOnUse">
      <path style="clip-rule:evenodd" id="path60" d="m 50.52,275.88 511.08,0 0,240.24 -511.08,0 0,-240.24 z"/>
    </clipPath>
    <clipPath id="clipPath70" clipPathUnits="userSpaceOnUse">
      <path style="clip-rule:evenodd" id="path72" d="m 50.52,275.88 511.08,0 0,240.24 -511.08,0 0,-240.24 z"/>
    </clipPath>
    <clipPath id="clipPath82" clipPathUnits="userSpaceOnUse">
      <path style="clip-rule:evenodd" id="path84" d="m 50.52,275.88 511.08,0 0,240.24 -511.08,0 0,-240.24 z"/>
    </clipPath>
    <clipPath id="clipPath94" clipPathUnits="userSpaceOnUse">
      <path style="clip-rule:evenodd" id="path96" d="m 50.52,275.88 511.08,0 0,240.24 -511.08,0 0,-240.24 z"/>
    </clipPath>
    <clipPath id="clipPath106" clipPathUnits="userSpaceOnUse">
      <path style="clip-rule:evenodd" id="path108" d="m 50.52,275.88 511.08,0 0,240.24 -511.08,0 0,-240.24 z"/>
    </clipPath>
    <clipPath id="clipPath118" clipPathUnits="userSpaceOnUse">
      <path style="clip-rule:evenodd" id="path120" d="m 50.52,275.88 511.08,0 0,240.24 -511.08,0 0,-240.24 z"/>
    </clipPath>
    <clipPath id="clipPath130" clipPathUnits="userSpaceOnUse">
      <path style="clip-rule:evenodd" id="path132" d="m 50.52,275.88 511.08,0 0,240.24 -511.08,0 0,-240.24 z"/>
    </clipPath>
    <clipPath id="clipPath142" clipPathUnits="userSpaceOnUse">
      <path style="clip-rule:evenodd" id="path144" d="m 50.52,275.88 511.08,0 0,240.24 -511.08,0 0,-240.24 z"/>
    </clipPath>
    <clipPath id="clipPath154" clipPathUnits="userSpaceOnUse">
      <path style="clip-rule:evenodd" id="path156" d="m 50.52,275.88 511.08,0 0,240.24 -511.08,0 0,-240.24 z"/>
    </clipPath>
    <clipPath id="clipPath166" clipPathUnits="userSpaceOnUse">
      <path style="clip-rule:evenodd" id="path168" d="m 50.52,275.88 511.08,0 0,240.24 -511.08,0 0,-240.24 z"/>
    </clipPath>
    <clipPath id="clipPath178" clipPathUnits="userSpaceOnUse">
      <path style="clip-rule:evenodd" id="path180" d="m 50.52,275.88 511.08,0 0,240.24 -511.08,0 0,-240.24 z"/>
    </clipPath>
    <clipPath id="clipPath190" clipPathUnits="userSpaceOnUse">
      <path style="clip-rule:evenodd" id="path192" d="m 50.52,275.88 511.08,0 0,240.24 -511.08,0 0,-240.24 z"/>
    </clipPath>
    <clipPath id="clipPath202" clipPathUnits="userSpaceOnUse">
      <path style="clip-rule:evenodd" id="path204" d="m 50.52,275.88 511.08,0 0,240.24 -511.08,0 0,-240.24 z"/>
    </clipPath>
    <clipPath id="clipPath214" clipPathUnits="userSpaceOnUse">
      <path style="clip-rule:evenodd" id="path216" d="m 50.52,275.88 511.08,0 0,240.24 -511.08,0 0,-240.24 z"/>
    </clipPath>
    <clipPath id="clipPath226" clipPathUnits="userSpaceOnUse">
      <path style="clip-rule:evenodd" id="path228" d="m 50.52,275.88 511.08,0 0,240.24 -511.08,0 0,-240.24 z"/>
    </clipPath>
    <clipPath id="clipPath238" clipPathUnits="userSpaceOnUse">
      <path style="clip-rule:evenodd" id="path240" d="m 50.52,275.88 511.08,0 0,240.24 -511.08,0 0,-240.24 z"/>
    </clipPath>
    <clipPath id="clipPath250" clipPathUnits="userSpaceOnUse">
      <path style="clip-rule:evenodd" id="path252" d="m 50.52,275.88 511.08,0 0,240.24 -511.08,0 0,-240.24 z"/>
    </clipPath>
    <clipPath id="clipPath262" clipPathUnits="userSpaceOnUse">
      <path style="clip-rule:evenodd" id="path264" d="m 50.52,275.88 511.08,0 0,240.24 -511.08,0 0,-240.24 z"/>
    </clipPath>
    <clipPath id="clipPath274" clipPathUnits="userSpaceOnUse">
      <path style="clip-rule:evenodd" id="path276" d="m 50.52,275.88 511.08,0 0,240.24 -511.08,0 0,-240.24 z"/>
    </clipPath>
    <clipPath id="clipPath286" clipPathUnits="userSpaceOnUse">
      <path style="clip-rule:evenodd" id="path288" d="m 50.52,275.88 511.08,0 0,240.24 -511.08,0 0,-240.24 z"/>
    </clipPath>
    <clipPath id="clipPath298" clipPathUnits="userSpaceOnUse">
      <path style="clip-rule:evenodd" id="path300" d="m 50.52,275.88 511.08,0 0,240.24 -511.08,0 0,-240.24 z"/>
    </clipPath>
    <clipPath id="clipPath310" clipPathUnits="userSpaceOnUse">
      <path style="clip-rule:evenodd" id="path312" d="m 50.52,275.88 511.08,0 0,240.24 -511.08,0 0,-240.24 z"/>
    </clipPath>
    <clipPath id="clipPath322" clipPathUnits="userSpaceOnUse">
      <path style="clip-rule:evenodd" id="path324" d="m 50.52,275.88 511.08,0 0,240.24 -511.08,0 0,-240.24 z"/>
    </clipPath>
    <clipPath id="clipPath334" clipPathUnits="userSpaceOnUse">
      <path style="clip-rule:evenodd" id="path336" d="m 50.52,275.88 511.08,0 0,240.24 -511.08,0 0,-240.24 z"/>
    </clipPath>
    <clipPath id="clipPath346" clipPathUnits="userSpaceOnUse">
      <path style="clip-rule:evenodd" id="path348" d="m 50.52,275.88 511.08,0 0,240.24 -511.08,0 0,-240.24 z"/>
    </clipPath>
    <clipPath id="clipPath358" clipPathUnits="userSpaceOnUse">
      <path style="clip-rule:evenodd" id="path360" d="m 50.52,275.88 511.08,0 0,240.24 -511.08,0 0,-240.24 z"/>
    </clipPath>
    <clipPath id="clipPath370" clipPathUnits="userSpaceOnUse">
      <path style="clip-rule:evenodd" id="path372" d="m 50.52,275.88 511.08,0 0,240.24 -511.08,0 0,-240.24 z"/>
    </clipPath>
    <clipPath id="clipPath382" clipPathUnits="userSpaceOnUse">
      <path style="clip-rule:evenodd" id="path384" d="m 50.52,275.88 511.08,0 0,240.24 -511.08,0 0,-240.24 z"/>
    </clipPath>
    <clipPath id="clipPath394" clipPathUnits="userSpaceOnUse">
      <path style="clip-rule:evenodd" id="path396" d="m 50.52,275.88 511.08,0 0,240.24 -511.08,0 0,-240.24 z"/>
    </clipPath>
    <clipPath id="clipPath406" clipPathUnits="userSpaceOnUse">
      <path style="clip-rule:evenodd" id="path408" d="m 50.52,275.88 511.08,0 0,240.24 -511.08,0 0,-240.24 z"/>
    </clipPath>
    <clipPath id="clipPath418" clipPathUnits="userSpaceOnUse">
      <path style="clip-rule:evenodd" id="path420" d="m 50.52,275.88 511.08,0 0,240.24 -511.08,0 0,-240.24 z"/>
    </clipPath>
    <clipPath id="clipPath430" clipPathUnits="userSpaceOnUse">
      <path style="clip-rule:evenodd" id="path432" d="m 50.52,275.88 511.08,0 0,240.24 -511.08,0 0,-240.24 z"/>
    </clipPath>
    <clipPath id="clipPath442" clipPathUnits="userSpaceOnUse">
      <path style="clip-rule:evenodd" id="path444" d="m 50.52,275.88 511.08,0 0,240.24 -511.08,0 0,-240.24 z"/>
    </clipPath>
    <clipPath id="clipPath454" clipPathUnits="userSpaceOnUse">
      <path style="clip-rule:evenodd" id="path456" d="m 50.52,275.88 511.08,0 0,240.24 -511.08,0 0,-240.24 z"/>
    </clipPath>
    <clipPath id="clipPath466" clipPathUnits="userSpaceOnUse">
      <path style="clip-rule:evenodd" id="path468" d="m 50.52,275.88 511.08,0 0,240.24 -511.08,0 0,-240.24 z"/>
    </clipPath>
    <clipPath id="clipPath478" clipPathUnits="userSpaceOnUse">
      <path style="clip-rule:evenodd" id="path480" d="m 50.52,275.88 511.08,0 0,240.24 -511.08,0 0,-240.24 z"/>
    </clipPath>
    <clipPath id="clipPath490" clipPathUnits="userSpaceOnUse">
      <path style="clip-rule:evenodd" id="path492" d="m 50.52,275.88 511.08,0 0,240.24 -511.08,0 0,-240.24 z"/>
    </clipPath>
    <clipPath id="clipPath502" clipPathUnits="userSpaceOnUse">
      <path style="clip-rule:evenodd" id="path504" d="m 50.52,275.88 511.08,0 0,240.24 -511.08,0 0,-240.24 z"/>
    </clipPath>
    <clipPath id="clipPath514" clipPathUnits="userSpaceOnUse">
      <path style="clip-rule:evenodd" id="path516" d="m 50.52,275.88 511.08,0 0,240.24 -511.08,0 0,-240.24 z"/>
    </clipPath>
  </defs>
  <g transform="matrix(1.25,0,0,-1.25,0,990)" id="g10">
    <g id="g12">
      <g clip-path="url(#clipPath16)" id="g14">
        <path id="path20" style="fill:none;stroke:#000000;stroke-width:0.14;stroke-linecap:butt;stroke-linejoin:miter;stroke-miterlimit:10;stroke-dasharray:none;stroke-opacity:0" d="m 50.465,275.88 511.1,0 0,240.27 -511.1,0 0,-240.27 z"/>
      </g>
    </g>
    <path id="path22" style="fill:#ffffff;fill-opacity:1;fill-rule:evenodd;stroke:none" d="m 50.465,275.88 511.1,0 0,240.27 -511.1,0 0,-240.27 z"/>
    <path id="path24" style="fill:none;stroke:#d9d9d9;stroke-width:0.60408002;stroke-linecap:butt;stroke-linejoin:round;stroke-miterlimit:10;stroke-dasharray:none;stroke-opacity:1" d="m 74.093,337.15 478.617,0 m -478.617,25.42 478.617,0 m -478.617,25.32 478.617,0 m -478.617,25.42 478.617,0 m -478.617,25.32 478.617,0 m -478.617,25.42 478.617,0 m -478.617,25.36 478.617,0"/>
    <path id="path26" style="fill:#005aa4;fill-opacity:1;fill-rule:nonzero;stroke:none" d="m 90.479,469.08 15.081,0 0,-157.28 -15.081,0 0,157.28 z m 47.941,0 14.98,0 0,-157.28 -14.98,0 0,157.28 z m 47.84,-7.54 14.98,0 0,-149.74 -14.98,0 0,149.74 z m 47.85,-12.76 14.98,0 0,-136.98 -14.98,0 0,136.98 z m 47.84,-12.66 14.98,0 0,-124.32 -14.98,0 0,124.32 z m 47.84,-12.66 15.08,0 0,-111.66 -15.08,0 0,111.66 z m 47.94,0 14.98,0 0,-111.66 -14.98,0 0,111.66 z m 47.85,-7.64 14.98,0 0,-104.02 -14.98,0 0,104.02 z m 47.84,-7.63 14.98,0 0,-96.39 -14.98,0 0,96.39 z m 47.84,0 14.99,0 0,-96.39 -14.99,0 0,96.39 z"/>
    <path id="path28" style="fill:none;stroke:#d9d9d9;stroke-width:0.60408002;stroke-linecap:butt;stroke-linejoin:round;stroke-miterlimit:10;stroke-dasharray:none;stroke-opacity:1" d="m 74.093,311.8 478.617,0"/>
    <g id="g30">
      <g clip-path="url(#clipPath34)" id="g32"><text id="text38" style="font-variant:normal;font-weight:normal;font-size:7.24800014px;font-family:'Roboto Condensed';-inkscape-font-specification:RobotoCondensed-Regular;writing-mode:lr-tb;fill:#000000;fill-opacity:1;fill-rule:nonzero;stroke:none" transform="matrix(1,0,0,-1,92.16,474.53)"><tspan id="tspan40" y="0" x="0 3.6000121 7.2000241">62%</tspan></text>
</g>
    </g>
    <g id="g42">
      <g clip-path="url(#clipPath46)" id="g44"><text id="text50" style="font-variant:normal;font-weight:normal;font-size:7.24800014px;font-family:'Roboto Condensed';-inkscape-font-specification:RobotoCondensed-Regular;writing-mode:lr-tb;fill:#000000;fill-opacity:1;fill-rule:nonzero;stroke:none" transform="matrix(1,0,0,-1,140.04,474.53)"><tspan id="tspan52" y="0" x="0 3.5760019 7.1520038">62%</tspan></text>
</g>
    </g>
    <g id="g54">
      <g clip-path="url(#clipPath58)" id="g56"><text id="text62" style="font-variant:normal;font-weight:normal;font-size:7.24800014px;font-family:'Roboto Condensed';-inkscape-font-specification:RobotoCondensed-Regular;writing-mode:lr-tb;fill:#000000;fill-opacity:1;fill-rule:nonzero;stroke:none" transform="matrix(1,0,0,-1,187.92,466.92)"><tspan id="tspan64" y="0" x="0 3.5760019 7.1520038">59%</tspan></text>
</g>
    </g>
    <g id="g66">
      <g clip-path="url(#clipPath70)" id="g68"><text id="text74" style="font-variant:normal;font-weight:normal;font-size:7.24800014px;font-family:'Roboto Condensed';-inkscape-font-specification:RobotoCondensed-Regular;writing-mode:lr-tb;fill:#000000;fill-opacity:1;fill-rule:nonzero;stroke:none" transform="matrix(1,0,0,-1,235.78,454.22)"><tspan id="tspan76" y="0" x="0 3.5760019 7.1520038">54%</tspan></text>
</g>
    </g>
    <g id="g78">
      <g clip-path="url(#clipPath82)" id="g80"><text id="text86" style="font-variant:normal;font-weight:normal;font-size:7.24800014px;font-family:'Roboto Condensed';-inkscape-font-specification:RobotoCondensed-Regular;writing-mode:lr-tb;fill:#000000;fill-opacity:1;fill-rule:nonzero;stroke:none" transform="matrix(1,0,0,-1,283.66,441.53)"><tspan id="tspan88" y="0" x="0 3.5760019 7.1520038">49%</tspan></text>
</g>
    </g>
    <g id="g90">
      <g clip-path="url(#clipPath94)" id="g92"><text id="text98" style="font-variant:normal;font-weight:normal;font-size:7.24800014px;font-family:'Roboto Condensed';-inkscape-font-specification:RobotoCondensed-Regular;writing-mode:lr-tb;fill:#000000;fill-opacity:1;fill-rule:nonzero;stroke:none" transform="matrix(1,0,0,-1,331.51,428.86)"><tspan id="tspan100" y="0" x="0 3.5760019 7.1520038">44%</tspan></text>
</g>
    </g>
    <g id="g102">
      <g clip-path="url(#clipPath106)" id="g104"><text id="text110" style="font-variant:normal;font-weight:normal;font-size:7.24800014px;font-family:'Roboto Condensed';-inkscape-font-specification:RobotoCondensed-Regular;writing-mode:lr-tb;fill:#000000;fill-opacity:1;fill-rule:nonzero;stroke:none" transform="matrix(1,0,0,-1,379.39,428.86)"><tspan id="tspan112" y="0" x="0 3.5760019 7.1520038">44%</tspan></text>
</g>
    </g>
    <g id="g114">
      <g clip-path="url(#clipPath118)" id="g116"><text id="text122" style="font-variant:normal;font-weight:normal;font-size:7.27199984px;font-family:'Roboto Condensed';-inkscape-font-specification:RobotoCondensed-Regular;writing-mode:lr-tb;fill:#000000;fill-opacity:1;fill-rule:nonzero;stroke:none" transform="matrix(1,0,0,-1,427.25,421.25)"><tspan id="tspan124" y="0" x="0 3.599998 7.199996">41%</tspan></text>
</g>
    </g>
    <g id="g126">
      <g clip-path="url(#clipPath130)" id="g128"><text id="text134" style="font-variant:normal;font-weight:normal;font-size:7.24800014px;font-family:'Roboto Condensed';-inkscape-font-specification:RobotoCondensed-Regular;writing-mode:lr-tb;fill:#000000;fill-opacity:1;fill-rule:nonzero;stroke:none" transform="matrix(1,0,0,-1,475.13,413.62)"><tspan id="tspan136" y="0" x="0 3.5760019 7.1520038">38%</tspan></text>
</g>
    </g>
    <g id="g138">
      <g clip-path="url(#clipPath142)" id="g140"><text id="text146" style="font-variant:normal;font-weight:normal;font-size:7.24800014px;font-family:'Roboto Condensed';-inkscape-font-specification:RobotoCondensed-Regular;writing-mode:lr-tb;fill:#000000;fill-opacity:1;fill-rule:nonzero;stroke:none" transform="matrix(1,0,0,-1,523.01,413.62)"><tspan id="tspan148" y="0" x="0 3.5760019 7.1520038">38%</tspan></text>
</g>
    </g>
    <g id="g150">
      <g clip-path="url(#clipPath154)" id="g152"><text id="text158" style="font-variant:normal;font-weight:normal;font-size:7.24800014px;font-family:'Roboto Condensed';-inkscape-font-specification:RobotoCondensed-Regular;writing-mode:lr-tb;fill:#000000;fill-opacity:1;fill-rule:nonzero;stroke:none" transform="matrix(1,0,0,-1,59.304,309.58)"><tspan id="tspan160" y="0" x="0 3.5760019">0%</tspan></text>
</g>
    </g>
    <g id="g162">
      <g clip-path="url(#clipPath166)" id="g164"><text id="text170" style="font-variant:normal;font-weight:normal;font-size:7.24800014px;font-family:'Roboto Condensed';-inkscape-font-specification:RobotoCondensed-Regular;writing-mode:lr-tb;fill:#000000;fill-opacity:1;fill-rule:nonzero;stroke:none" transform="matrix(1,0,0,-1,55.704,334.97)"><tspan id="tspan172" y="0" x="0 3.6000121 7.2000241">10%</tspan></text>
</g>
    </g>
    <g id="g174">
      <g clip-path="url(#clipPath178)" id="g176"><text id="text182" style="font-variant:normal;font-weight:normal;font-size:7.24800014px;font-family:'Roboto Condensed';-inkscape-font-specification:RobotoCondensed-Regular;writing-mode:lr-tb;fill:#000000;fill-opacity:1;fill-rule:nonzero;stroke:none" transform="matrix(1,0,0,-1,55.704,360.34)"><tspan id="tspan184" y="0" x="0 3.6000121 7.2000241">20%</tspan></text>
</g>
    </g>
    <g id="g186">
      <g clip-path="url(#clipPath190)" id="g188"><text id="text194" style="font-variant:normal;font-weight:normal;font-size:7.24800014px;font-family:'Roboto Condensed';-inkscape-font-specification:RobotoCondensed-Regular;writing-mode:lr-tb;fill:#000000;fill-opacity:1;fill-rule:nonzero;stroke:none" transform="matrix(1,0,0,-1,55.704,385.7)"><tspan id="tspan196" y="0" x="0 3.6000121 7.2000241">30%</tspan></text>
</g>
    </g>
    <g id="g198">
      <g clip-path="url(#clipPath202)" id="g200"><text id="text206" style="font-variant:normal;font-weight:normal;font-size:7.24800014px;font-family:'Roboto Condensed';-inkscape-font-specification:RobotoCondensed-Regular;writing-mode:lr-tb;fill:#000000;fill-opacity:1;fill-rule:nonzero;stroke:none" transform="matrix(1,0,0,-1,55.704,411.1)"><tspan id="tspan208" y="0" x="0 3.6000121 7.2000241">40%</tspan></text>
</g>
    </g>
    <g id="g210">
      <g clip-path="url(#clipPath214)" id="g212"><text id="text218" style="font-variant:normal;font-weight:normal;font-size:7.24800014px;font-family:'Roboto Condensed';-inkscape-font-specification:RobotoCondensed-Regular;writing-mode:lr-tb;fill:#000000;fill-opacity:1;fill-rule:nonzero;stroke:none" transform="matrix(1,0,0,-1,55.704,436.46)"><tspan id="tspan220" y="0" x="0 3.6000121 7.2000241">50%</tspan></text>
</g>
    </g>
    <g id="g222">
      <g clip-path="url(#clipPath226)" id="g224"><text id="text230" style="font-variant:normal;font-weight:normal;font-size:7.24800014px;font-family:'Roboto Condensed';-inkscape-font-specification:RobotoCondensed-Regular;writing-mode:lr-tb;fill:#000000;fill-opacity:1;fill-rule:nonzero;stroke:none" transform="matrix(1,0,0,-1,55.704,461.83)"><tspan id="tspan232" y="0" x="0 3.6000121 7.2000241">60%</tspan></text>
</g>
    </g>
    <g id="g234">
      <g clip-path="url(#clipPath238)" id="g236"><text id="text242" style="font-variant:normal;font-weight:normal;font-size:7.24800014px;font-family:'Roboto Condensed';-inkscape-font-specification:RobotoCondensed-Regular;writing-mode:lr-tb;fill:#000000;fill-opacity:1;fill-rule:nonzero;stroke:none" transform="matrix(1,0,0,-1,55.704,487.22)"><tspan id="tspan244" y="0" x="0 3.6000121 7.2000241">70%</tspan></text>
</g>
    </g>
    <g id="g246">
      <g clip-path="url(#clipPath250)" id="g248"><text id="text254" style="font-variant:normal;font-weight:normal;font-size:7.24800014px;font-family:'Roboto Condensed';-inkscape-font-specification:RobotoCondensed-Regular;writing-mode:lr-tb;fill:#000000;fill-opacity:1;fill-rule:nonzero;stroke:none" transform="matrix(1,0,0,-1,83.304,300.29)"><tspan id="tspan256" y="0" x="0 3.7544639 7.1465278 10.61832 12.857952 16.148544 19.71456 21.34536 23.664721 27.237984">Search for</tspan></text>
</g>
    </g>
    <g id="g258">
      <g clip-path="url(#clipPath262)" id="g260"><text id="text266" style="font-variant:normal;font-weight:normal;font-size:7.24800014px;font-family:'Roboto Condensed';-inkscape-font-specification:RobotoCondensed-Regular;writing-mode:lr-tb;fill:#000000;fill-opacity:1;fill-rule:nonzero;stroke:none" transform="matrix(1,0,0,-1,81.456,291.58)"><tspan id="tspan268" y="0" x="0 1.6308 5.1098399 7.400208 11.082192 13.285584 18.692593 22.164385 24.302544 25.918848 29.586336">information</tspan></text>
</g>
    </g>
    <g id="g270">
      <g clip-path="url(#clipPath274)" id="g272"><text id="text278" style="font-variant:normal;font-weight:normal;font-size:7.24800014px;font-family:'Roboto Condensed';-inkscape-font-specification:RobotoCondensed-Regular;writing-mode:lr-tb;fill:#000000;fill-opacity:1;fill-rule:nonzero;stroke:none" transform="matrix(1,0,0,-1,130.15,300.29)"><tspan id="tspan280" y="0" x="0 4.1531038 7.6538882 9.8572798 13.430544 18.946272 22.418064 24.556225 27.948288">Automated</tspan></text>
</g>
    </g>
    <g id="g282">
      <g clip-path="url(#clipPath286)" id="g284"><text id="text290" style="font-variant:normal;font-weight:normal;font-size:7.24800014px;font-family:'Roboto Condensed';-inkscape-font-specification:RobotoCondensed-Regular;writing-mode:lr-tb;fill:#000000;fill-opacity:1;fill-rule:nonzero;stroke:none" transform="matrix(1,0,0,-1,134.69,291.58)"><tspan id="tspan292" y="0" x="0 4.1458559 7.71912 11.19816 13.423296 16.815359 20.287151">Content</tspan></text>
</g>
    </g>
    <g id="g294">
      <g clip-path="url(#clipPath298)" id="g296"><text id="text302" style="font-variant:normal;font-weight:normal;font-size:7.24800014px;font-family:'Roboto Condensed';-inkscape-font-specification:RobotoCondensed-Regular;writing-mode:lr-tb;fill:#000000;fill-opacity:1;fill-rule:nonzero;stroke:none" transform="matrix(1,0,0,-1,130.32,282.89)"><tspan id="tspan304" y="0" x="0 4.2473278 7.6393919 11.19816 14.590224 16.793615 20.265408 22.403568 24.012625 27.680113">Generation</tspan></text>
</g>
    </g>
    <g id="g306">
      <g clip-path="url(#clipPath310)" id="g308"><text id="text314" style="font-variant:normal;font-weight:normal;font-size:7.24800014px;font-family:'Roboto Condensed';-inkscape-font-specification:RobotoCondensed-Regular;writing-mode:lr-tb;fill:#000000;fill-opacity:1;fill-rule:nonzero;stroke:none" transform="matrix(1,0,0,-1,172.22,300.29)"><tspan id="tspan316" y="0" x="0 4.1531038 5.9651041 7.7916002 11.364864 14.843904 18.344688 21.816481 25.375248 28.636848 32.028912 35.594929 37.312702 41.262863">AI-Enhanced BI</tspan></text>
</g>
    </g>
    <g id="g318">
      <g clip-path="url(#clipPath322)" id="g320"><text id="text326" style="font-variant:normal;font-weight:normal;font-size:7.24800014px;font-family:'Roboto Condensed';-inkscape-font-specification:RobotoCondensed-Regular;writing-mode:lr-tb;fill:#000000;fill-opacity:1;fill-rule:nonzero;stroke:none" transform="matrix(1,0,0,-1,176.69,291.58)"><tspan id="tspan328" y="0" x="0 4.138608 7.6104002 10.915488 14.416272 17.989536 21.628033 25.121569 27.324961 30.919968">Dashboards</tspan></text>
</g>
    </g>
    <g id="g330">
      <g clip-path="url(#clipPath334)" id="g332"><text id="text338" style="font-variant:normal;font-weight:normal;font-size:7.24800014px;font-family:'Roboto Condensed';-inkscape-font-specification:RobotoCondensed-Regular;writing-mode:lr-tb;fill:#000000;fill-opacity:1;fill-rule:nonzero;stroke:none" transform="matrix(1,0,0,-1,225.29,300.29)"><tspan id="tspan340" y="0" x="0 4.1531038 5.9651041 7.7916002 11.749008 15.416496 20.127695 23.51976 25.723152 29.115215">AI-Powered</tspan></text>
</g>
    </g>
    <g id="g342">
      <g clip-path="url(#clipPath346)" id="g344"><text id="text350" style="font-variant:normal;font-weight:normal;font-size:7.24800014px;font-family:'Roboto Condensed';-inkscape-font-specification:RobotoCondensed-Regular;writing-mode:lr-tb;fill:#000000;fill-opacity:1;fill-rule:nonzero;stroke:none" transform="matrix(1,0,0,-1,221.42,291.58)"><tspan id="tspan352" y="0" x="0 4.0588799 5.6896801 7.9148159 10.052976 13.532016 17.003807 18.73608 20.36688 24.519983 28.093248 31.485312 34.957104 37.095264">Virtual Agents</tspan></text>
</g>
    </g>
    <g id="g354">
      <g clip-path="url(#clipPath358)" id="g356"><text id="text362" style="font-variant:normal;font-weight:normal;font-size:7.24800014px;font-family:'Roboto Condensed';-inkscape-font-specification:RobotoCondensed-Regular;writing-mode:lr-tb;fill:#000000;fill-opacity:1;fill-rule:nonzero;stroke:none" transform="matrix(1,0,0,-1,274.25,300.29)"><tspan id="tspan364" y="0" x="0 4.2473278 7.6393919 11.19816 14.590224 16.793615 20.265408 22.403568 24.012625 27.114767">Generative</tspan></text>
</g>
    </g>
    <g id="g366">
      <g clip-path="url(#clipPath370)" id="g368"><text id="text374" style="font-variant:normal;font-weight:normal;font-size:7.24800014px;font-family:'Roboto Condensed';-inkscape-font-specification:RobotoCondensed-Regular;writing-mode:lr-tb;fill:#000000;fill-opacity:1;fill-rule:nonzero;stroke:none" transform="matrix(1,0,0,-1,279.74,291.58)"><tspan id="tspan376" y="0" x="0 4.138608 7.5306721 10.83576 12.459312 16.032576">Design</tspan></text>
</g>
    </g>
    <g id="g378">
      <g clip-path="url(#clipPath382)" id="g380"><text id="text386" style="font-variant:normal;font-weight:normal;font-size:7.24800014px;font-family:'Roboto Condensed';-inkscape-font-specification:RobotoCondensed-Regular;writing-mode:lr-tb;fill:#000000;fill-opacity:1;fill-rule:nonzero;stroke:none" transform="matrix(1,0,0,-1,320.57,300.29)"><tspan id="tspan388" y="0" x="0 4.1458559 7.71912 11.19816 13.423296 16.815359 20.287151 22.425312 24.056112 28.201967 31.869455">Content Co-</tspan></text>
</g>
    </g>
    <g id="g390">
      <g clip-path="url(#clipPath394)" id="g392"><text id="text398" style="font-variant:normal;font-weight:normal;font-size:7.24800014px;font-family:'Roboto Condensed';-inkscape-font-specification:RobotoCondensed-Regular;writing-mode:lr-tb;fill:#000000;fill-opacity:1;fill-rule:nonzero;stroke:none" transform="matrix(1,0,0,-1,325.32,291.58)"><tspan id="tspan400" y="0" x="0 4.1458559 6.2840161 9.6760798 13.147872 15.373008 17.032801 20.606064">Creation</tspan></text>
</g>
    </g>
    <g id="g402">
      <g clip-path="url(#clipPath406)" id="g404"><text id="text410" style="font-variant:normal;font-weight:normal;font-size:7.24800014px;font-family:'Roboto Condensed';-inkscape-font-specification:RobotoCondensed-Regular;writing-mode:lr-tb;fill:#000000;fill-opacity:1;fill-rule:nonzero;stroke:none" transform="matrix(1,0,0,-1,361.44,300.29)"><tspan id="tspan412" y="0" x="0 4.4430242 7.9148159 10.023984 14.655456 18.322945 20.526337 23.809681 25.440479 29.39064 31.021441 33.224831 36.805344 40.371361 42.48053">Network &amp; route</tspan></text>
</g>
    </g>
    <g id="g414">
      <g clip-path="url(#clipPath418)" id="g416"><text id="text422" style="font-variant:normal;font-weight:normal;font-size:7.24800014px;font-family:'Roboto Condensed';-inkscape-font-specification:RobotoCondensed-Regular;writing-mode:lr-tb;fill:#000000;fill-opacity:1;fill-rule:nonzero;stroke:none" transform="matrix(1,0,0,-1,366.5,291.58)"><tspan id="tspan424" y="0" x="0 3.6674881 7.2407522 9.378912 11.009712 16.431215 18.148993 21.454081 24.925873 27.064032 28.687584 32.355072">optimisation</tspan></text>
</g>
    </g>
    <g id="g426">
      <g clip-path="url(#clipPath430)" id="g428"><text id="text434" style="font-variant:normal;font-weight:normal;font-size:7.24800014px;font-family:'Roboto Condensed';-inkscape-font-specification:RobotoCondensed-Regular;writing-mode:lr-tb;fill:#000000;fill-opacity:1;fill-rule:nonzero;stroke:none" transform="matrix(1,0,0,-1,420.24,300.29)"><tspan id="tspan436" y="0" x="0 4.1531038 5.9651041 7.7916002 11.85048 14.053872 15.69192 18.794064 22.258608">AI-Driven</tspan></text>
</g>
    </g>
    <g id="g438">
      <g clip-path="url(#clipPath442)" id="g440"><text id="text446" style="font-variant:normal;font-weight:normal;font-size:7.24800014px;font-family:'Roboto Condensed';-inkscape-font-specification:RobotoCondensed-Regular;writing-mode:lr-tb;fill:#000000;fill-opacity:1;fill-rule:nonzero;stroke:none" transform="matrix(1,0,0,-1,416.59,291.58)"><tspan id="tspan448" y="0" x="0 4.3560481 7.8205919 11.393856 15.061344 18.533136 20.736528 24.331535 25.955088 29.434128">Onboarding</tspan></text>
</g>
    </g>
    <g id="g450">
      <g clip-path="url(#clipPath454)" id="g452"><text id="text458" style="font-variant:normal;font-weight:normal;font-size:7.24800014px;font-family:'Roboto Condensed';-inkscape-font-specification:RobotoCondensed-Regular;writing-mode:lr-tb;fill:#000000;fill-opacity:1;fill-rule:nonzero;stroke:none" transform="matrix(1,0,0,-1,465.24,300.29)"><tspan id="tspan460" y="0" x="0 4.1531038 7.6538882 9.8572798 13.430544 18.946272 22.418064 24.556225 27.948288">Automated</tspan></text>
</g>
    </g>
    <g id="g462">
      <g clip-path="url(#clipPath466)" id="g464"><text id="text470" style="font-variant:normal;font-weight:normal;font-size:7.24800014px;font-family:'Roboto Condensed';-inkscape-font-specification:RobotoCondensed-Regular;writing-mode:lr-tb;fill:#000000;fill-opacity:1;fill-rule:nonzero;stroke:none" transform="matrix(1,0,0,-1,459.46,291.58)"><tspan id="tspan472" y="0" x="0 3.7544639 7.2552481 12.734736 18.134497 21.606289 23.809681 25.469473 28.651344 32.123135 34.239552 35.870354 39.537842">Summarization</tspan></text>
</g>
    </g>
    <g id="g474">
      <g clip-path="url(#clipPath478)" id="g476"><text id="text482" style="font-variant:normal;font-weight:normal;font-size:7.24800014px;font-family:'Roboto Condensed';-inkscape-font-specification:RobotoCondensed-Regular;writing-mode:lr-tb;fill:#000000;fill-opacity:1;fill-rule:nonzero;stroke:none" transform="matrix(1,0,0,-1,513.12,300.29)"><tspan id="tspan484" y="0" x="0 4.1531038 7.6538882 9.835536 13.4088 18.895536 22.367329 24.505487 27.868561">Automated</tspan></text>
</g>
    </g>
    <g id="g486">
      <g clip-path="url(#clipPath490)" id="g488"><text id="text494" style="font-variant:normal;font-weight:normal;font-size:7.24800014px;font-family:'Roboto Condensed';-inkscape-font-specification:RobotoCondensed-Regular;writing-mode:lr-tb;fill:#000000;fill-opacity:1;fill-rule:nonzero;stroke:none" transform="matrix(1,0,0,-1,514.32,291.58)"><tspan id="tspan496" y="0" x="0 4.138608 7.726368 11.103936 14.60472 20.069712 23.461777 26.933567">Document</tspan></text>
</g>
    </g>
    <g id="g498">
      <g clip-path="url(#clipPath502)" id="g500"><text id="text506" style="font-variant:normal;font-weight:normal;font-size:7.24800014px;font-family:'Roboto Condensed';-inkscape-font-specification:RobotoCondensed-Regular;writing-mode:lr-tb;fill:#000000;fill-opacity:1;fill-rule:nonzero;stroke:none" transform="matrix(1,0,0,-1,517.37,282.89)"><tspan id="tspan508" y="0" x="0 4.138608 6.3782401 9.8500319 12.089664 14.227824 15.967344 19.446384">Drafting</tspan></text>
</g>
    </g>
    <g id="g510">
      <g clip-path="url(#clipPath514)" id="g512"><text id="text518" style="font-variant:normal;font-weight:bold;font-size:8.88000011px;font-family:'Roboto Condensed';-inkscape-font-specification:RobotoCondensed-Bold;writing-mode:lr-tb;fill:#000000;fill-opacity:1;fill-rule:nonzero;stroke:none" transform="matrix(1,0,0,-1,251.35,501.65)"><tspan id="tspan520" y="0" x="0 5.1059999 9.9189596 12.31656 14.23464 16.641121 23.18568 27.6168 29.827921 34.08144 40.625999 44.87952 49.22184 51.912479 56.166 60.588242 62.506321 67.807678 70.214157 72.229919 77.335922 81.367439 85.620956 87.556801 92.573997 96.729843 100.76136 105.01488">US: Implemented AI Use Cases</tspan></text>
</g>
    </g>
  </g>
</svg>
