<?xml version="1.0" encoding="UTF-8" standalone="no"?>
<svg xmlns:dc="http://purl.org/dc/elements/1.1/" xmlns:cc="http://creativecommons.org/ns#" xmlns:rdf="http://www.w3.org/1999/02/22-rdf-syntax-ns#" xmlns:svg="http://www.w3.org/2000/svg" xmlns="http://www.w3.org/2000/svg" viewBox="369 1815.8625 3762.2125 2189.2625" height="2189.2625" width="3762.2125" xml:space="preserve" version="1.1" id="svg2">
  <metadata id="metadata8">
    <rdf:RDF>
      <cc:Work rdf:about="">
        <dc:format>image/svg+xml</dc:format>
        <dc:type rdf:resource="http://purl.org/dc/dcmitype/StillImage"/>
      </cc:Work>
    </rdf:RDF>
  </metadata>
  <defs id="defs6">
    <clipPath id="clipPath16" clipPathUnits="userSpaceOnUse">
      <path style="clip-rule:evenodd" id="path18" d="m 295.06,1453.42 3009.88,0 0,1752.71 -3009.88,0 0,-1752.71 z"/>
    </clipPath>
    <clipPath id="clipPath26" clipPathUnits="userSpaceOnUse">
      <path style="clip-rule:evenodd" id="path28" d="m 295.06,1453.41 3009.88,0 0,1752.71 -3009.88,0 0,-1752.71 z"/>
    </clipPath>
    <clipPath id="clipPath44" clipPathUnits="userSpaceOnUse">
      <path style="clip-rule:evenodd" id="path46" d="m 295.06,1456.94 3009.88,0 0,1749.18 -3009.88,0 0,-1749.18 z"/>
    </clipPath>
    <clipPath id="clipPath56" clipPathUnits="userSpaceOnUse">
      <path style="clip-rule:evenodd" id="path58" d="m 295.06,1456.94 3009.88,0 0,1749.18 -3009.88,0 0,-1749.18 z"/>
    </clipPath>
    <clipPath id="clipPath68" clipPathUnits="userSpaceOnUse">
      <path style="clip-rule:evenodd" id="path70" d="m 295.06,1456.94 3009.88,0 0,1749.18 -3009.88,0 0,-1749.18 z"/>
    </clipPath>
    <clipPath id="clipPath80" clipPathUnits="userSpaceOnUse">
      <path style="clip-rule:evenodd" id="path82" d="m 295.06,1456.94 3009.88,0 0,1749.18 -3009.88,0 0,-1749.18 z"/>
    </clipPath>
    <clipPath id="clipPath92" clipPathUnits="userSpaceOnUse">
      <path style="clip-rule:evenodd" id="path94" d="m 295.06,1456.94 3009.88,0 0,1749.18 -3009.88,0 0,-1749.18 z"/>
    </clipPath>
    <clipPath id="clipPath104" clipPathUnits="userSpaceOnUse">
      <path style="clip-rule:evenodd" id="path106" d="m 295.06,1456.94 3009.88,0 0,1749.18 -3009.88,0 0,-1749.18 z"/>
    </clipPath>
    <clipPath id="clipPath116" clipPathUnits="userSpaceOnUse">
      <path style="clip-rule:evenodd" id="path118" d="m 295.06,1456.94 3009.88,0 0,1749.18 -3009.88,0 0,-1749.18 z"/>
    </clipPath>
    <clipPath id="clipPath128" clipPathUnits="userSpaceOnUse">
      <path style="clip-rule:evenodd" id="path130" d="m 295.06,1456.94 3009.88,0 0,1749.18 -3009.88,0 0,-1749.18 z"/>
    </clipPath>
    <clipPath id="clipPath140" clipPathUnits="userSpaceOnUse">
      <path style="clip-rule:evenodd" id="path142" d="m 295.06,1456.94 3009.88,0 0,1749.18 -3009.88,0 0,-1749.18 z"/>
    </clipPath>
    <clipPath id="clipPath152" clipPathUnits="userSpaceOnUse">
      <path style="clip-rule:evenodd" id="path154" d="m 295.06,1456.94 3009.88,0 0,1749.18 -3009.88,0 0,-1749.18 z"/>
    </clipPath>
    <clipPath id="clipPath164" clipPathUnits="userSpaceOnUse">
      <path style="clip-rule:evenodd" id="path166" d="m 295.06,1456.94 3009.88,0 0,1749.18 -3009.88,0 0,-1749.18 z"/>
    </clipPath>
    <clipPath id="clipPath176" clipPathUnits="userSpaceOnUse">
      <path style="clip-rule:evenodd" id="path178" d="m 3304.94,3206.12 0,-1748.73 -3009.88,0 0,1748.73 3009.88,0 z"/>
    </clipPath>
    <clipPath id="clipPath186" clipPathUnits="userSpaceOnUse">
      <path style="clip-rule:evenodd" id="path188" d="m 3304.94,3206.12 0,-1748.73 -3009.88,0 0,1748.73 3009.88,0 z"/>
    </clipPath>
    <clipPath id="clipPath196" clipPathUnits="userSpaceOnUse">
      <path style="clip-rule:evenodd" id="path198" d="m 3304.94,3206.12 0,-1748.73 -3009.88,0 0,1748.73 3009.88,0 z"/>
    </clipPath>
    <clipPath id="clipPath206" clipPathUnits="userSpaceOnUse">
      <path style="clip-rule:evenodd" id="path208" d="m 295.06,3206.12 3009.88,0 0,-1748.73 -3009.88,0 0,1748.73 z"/>
    </clipPath>
    <clipPath id="clipPath216" clipPathUnits="userSpaceOnUse">
      <path style="clip-rule:evenodd" id="path218" d="m 3304.94,3206.12 0,-1748.73 -3009.88,0 0,1748.73 3009.88,0 z"/>
    </clipPath>
    <clipPath id="clipPath226" clipPathUnits="userSpaceOnUse">
      <path style="clip-rule:evenodd" id="path228" d="m 3304.94,3206.12 0,-1748.73 -3009.88,0 0,1748.73 3009.88,0 z"/>
    </clipPath>
    <clipPath id="clipPath236" clipPathUnits="userSpaceOnUse">
      <path style="clip-rule:evenodd" id="path238" d="m 295.06,3206.12 3009.88,0 0,-1748.73 -3009.88,0 0,1748.73 z"/>
    </clipPath>
    <clipPath id="clipPath246" clipPathUnits="userSpaceOnUse">
      <path style="clip-rule:evenodd" id="path248" d="m 295.06,3206.12 3009.88,0 0,-1748.73 -3009.88,0 0,1748.73 z"/>
    </clipPath>
    <clipPath id="clipPath256" clipPathUnits="userSpaceOnUse">
      <path style="clip-rule:evenodd" id="path258" d="m 3304.94,3206.12 0,-1748.73 -3009.88,0 0,1748.73 3009.88,0 z"/>
    </clipPath>
    <clipPath id="clipPath266" clipPathUnits="userSpaceOnUse">
      <path style="clip-rule:evenodd" id="path268" d="m 295.06,3206.12 3009.88,0 0,-1748.73 -3009.88,0 0,1748.73 z"/>
    </clipPath>
    <clipPath id="clipPath276" clipPathUnits="userSpaceOnUse">
      <path style="clip-rule:evenodd" id="path278" d="m 295.06,3206.12 3009.88,0 0,-1748.73 -3009.88,0 0,1748.73 z"/>
    </clipPath>
    <clipPath id="clipPath286" clipPathUnits="userSpaceOnUse">
      <path style="clip-rule:evenodd" id="path288" d="m 295.06,3206.12 3009.88,0 0,-1748.73 -3009.88,0 0,1748.73 z"/>
    </clipPath>
    <clipPath id="clipPath296" clipPathUnits="userSpaceOnUse">
      <path style="clip-rule:evenodd" id="path298" d="m 3304.94,3206.12 0,-1748.73 -3009.88,0 0,1748.73 3009.88,0 z"/>
    </clipPath>
    <clipPath id="clipPath306" clipPathUnits="userSpaceOnUse">
      <path style="clip-rule:evenodd" id="path308" d="m 295.06,3206.12 3009.88,0 0,-1748.73 -3009.88,0 0,1748.73 z"/>
    </clipPath>
    <clipPath id="clipPath316" clipPathUnits="userSpaceOnUse">
      <path style="clip-rule:evenodd" id="path318" d="m 3304.94,3206.12 0,-1748.73 -3009.88,0 0,1748.73 3009.88,0 z"/>
    </clipPath>
    <clipPath id="clipPath326" clipPathUnits="userSpaceOnUse">
      <path style="clip-rule:evenodd" id="path328" d="m 3304.94,3206.12 0,-1748.73 -3009.88,0 0,1748.73 3009.88,0 z"/>
    </clipPath>
    <clipPath id="clipPath336" clipPathUnits="userSpaceOnUse">
      <path style="clip-rule:evenodd" id="path338" d="m 3304.94,3206.12 0,-1748.73 -3009.88,0 0,1748.73 3009.88,0 z"/>
    </clipPath>
    <clipPath id="clipPath346" clipPathUnits="userSpaceOnUse">
      <path style="clip-rule:evenodd" id="path348" d="m 3304.94,3206.12 0,-1748.73 -3009.88,0 0,1748.73 3009.88,0 z"/>
    </clipPath>
    <clipPath id="clipPath356" clipPathUnits="userSpaceOnUse">
      <path style="clip-rule:evenodd" id="path358" d="m 3304.94,3206.12 0,-1748.73 -3009.88,0 0,1748.73 3009.88,0 z"/>
    </clipPath>
    <clipPath id="clipPath366" clipPathUnits="userSpaceOnUse">
      <path style="clip-rule:evenodd" id="path368" d="m 295.06,3206.12 3009.88,0 0,-1748.73 -3009.88,0 0,1748.73 z"/>
    </clipPath>
    <clipPath id="clipPath376" clipPathUnits="userSpaceOnUse">
      <path style="clip-rule:evenodd" id="path378" d="m 3304.94,3206.12 0,-1748.73 -3009.88,0 0,1748.73 3009.88,0 z"/>
    </clipPath>
    <clipPath id="clipPath386" clipPathUnits="userSpaceOnUse">
      <path style="clip-rule:evenodd" id="path388" d="m 3304.94,3206.12 0,-1748.73 -3009.88,0 0,1748.73 3009.88,0 z"/>
    </clipPath>
    <clipPath id="clipPath396" clipPathUnits="userSpaceOnUse">
      <path style="clip-rule:evenodd" id="path398" d="m 295.06,3206.12 3009.88,0 0,-1748.73 -3009.88,0 0,1748.73 z"/>
    </clipPath>
    <clipPath id="clipPath406" clipPathUnits="userSpaceOnUse">
      <path style="clip-rule:evenodd" id="path408" d="m 295.06,3206.12 3009.88,0 0,-1748.73 -3009.88,0 0,1748.73 z"/>
    </clipPath>
    <clipPath id="clipPath416" clipPathUnits="userSpaceOnUse">
      <path style="clip-rule:evenodd" id="path418" d="m 295.06,1456.94 3009.88,0 0,1749.18 -3009.88,0 0,-1749.18 z"/>
    </clipPath>
    <clipPath id="clipPath432" clipPathUnits="userSpaceOnUse">
      <path style="clip-rule:evenodd" id="path434" d="m 295.06,1456.94 3009.88,0 0,1749.18 -3009.88,0 0,-1749.18 z"/>
    </clipPath>
    <clipPath id="clipPath446" clipPathUnits="userSpaceOnUse">
      <path style="clip-rule:evenodd" id="path448" d="m 295.06,1456.94 3009.88,0 0,1749.18 -3009.88,0 0,-1749.18 z"/>
    </clipPath>
    <clipPath id="clipPath460" clipPathUnits="userSpaceOnUse">
      <path style="clip-rule:evenodd" id="path462" d="m 295.06,1456.94 3009.88,0 0,1749.18 -3009.88,0 0,-1749.18 z"/>
    </clipPath>
  </defs>
  <g transform="matrix(1.25,0,0,-1.25,0,5823.525)" id="g10">
    <g id="g12">
      <g clip-path="url(#clipPath16)" id="g14">
        <path id="path20" style="fill:none;stroke:#000000;stroke-width:0.14;stroke-linecap:butt;stroke-linejoin:miter;stroke-miterlimit:10;stroke-dasharray:none;stroke-opacity:0" d="m 295.24,1454.79 3009.88,0 0,1751.32 -3009.88,0 0,-1751.32 z"/>
      </g>
    </g>
    <g id="g22">
      <g clip-path="url(#clipPath26)" id="g24">
        <path id="path30" style="fill:#ffffff;fill-opacity:1;fill-rule:evenodd;stroke:none" d="m 295.24,1454.79 3009.88,0 0,1751.32 -3009.88,0 0,-1751.32 z"/>
      </g>
    </g>
    <path id="path32" style="fill:none;stroke:#808080;stroke-width:7.13520002;stroke-linecap:round;stroke-linejoin:round;stroke-miterlimit:10;stroke-dasharray:none;stroke-opacity:1" d="m 614.06,1835.13 2571,0"/>
    <path id="path34" style="fill:none;stroke:#005aa4;stroke-width:8.56219959;stroke-linecap:round;stroke-linejoin:round;stroke-miterlimit:10;stroke-dasharray:none;stroke-opacity:1" d="m 667.62,2033.16 107.21,-44.32 108.8,4.03 104.76,-4.03 108.8,0 104.76,16.12 108.8,40.29 104.76,-28.21 108.8,-8.05 108.79,16.11 104.77,-32.23 108.79,-8.95 104.77,61.33 108.79,-48.35 108.8,-4.03 104.76,-4.03 108.8,16.12 104.76,20.14 108.8,34.23 108.79,-14.08 104.76,0 108.8,0 104.76,-16.12 108.25,0"/>
    <path id="path36" style="fill:none;stroke:#d0b86a;stroke-width:8.56219959;stroke-linecap:round;stroke-linejoin:round;stroke-miterlimit:10;stroke-dasharray:none;stroke-opacity:1" d="m 1417.5,1957 106.81,64.07 108.79,44.33 104.77,48.35 108.79,48.35 104.77,132.97 108.79,40.3 108.8,52.38 104.76,8.06 108.8,24.18 104.76,116.85 108.8,337.77 108.79,-233 104.76,4.02 108.8,132.98 104.76,-209.53 108.25,-112.83"/>
    <path id="path38" style="fill:none;stroke:#32a69f;stroke-width:8.56219959;stroke-linecap:round;stroke-linejoin:round;stroke-miterlimit:10;stroke-dasharray:none;stroke-opacity:1" d="m 667.62,2000.93 107.21,-28.21 108.8,0 104.76,0 108.8,16.12 104.76,24.17 108.8,12.72 104.76,-4.66 108.8,-28.2 108.79,-8.06 104.77,-32.24 108.79,-8.06 104.77,56.42 108.79,-36.27 108.8,-12.09 104.76,0 108.8,28.21 104.76,16.12 108.8,8.06 108.79,-12.09 104.76,-12.09 108.8,-12.09 104.76,-32.23 108.25,-16.43"/>
    <g id="g40">
      <g clip-path="url(#clipPath44)" id="g42"><text id="text48" style="font-variant:normal;font-weight:normal;font-size:52.38100052px;font-family:'Roboto Condensed';-inkscape-font-specification:RobotoCondensed-Regular;writing-mode:lr-tb;fill:#000000;fill-opacity:1;fill-rule:nonzero;stroke:none" transform="matrix(1,0,0,-1,541.7,1819.74)"><tspan id="tspan50" y="0" x="0">0</tspan></text>
</g>
    </g>
    <g id="g52">
      <g clip-path="url(#clipPath56)" id="g54"><text id="text60" style="font-variant:normal;font-weight:normal;font-size:52.38100052px;font-family:'Roboto Condensed';-inkscape-font-specification:RobotoCondensed-Regular;writing-mode:lr-tb;fill:#000000;fill-opacity:1;fill-rule:nonzero;stroke:none" transform="matrix(1,0,0,-1,430.1,1939.33)"><tspan id="tspan62" y="0" x="0 24.200022 52.381001 60.447674 84.647697 112.82867">10,000</tspan></text>
</g>
    </g>
    <g id="g64">
      <g clip-path="url(#clipPath68)" id="g66"><text id="text72" style="font-variant:normal;font-weight:normal;font-size:52.40599823px;font-family:'Roboto Condensed';-inkscape-font-specification:RobotoCondensed-Regular;writing-mode:lr-tb;fill:#000000;fill-opacity:1;fill-rule:nonzero;stroke:none" transform="matrix(1,0,0,-1,430.1,2058.94)"><tspan id="tspan74" y="0" x="0 24.211573 52.353596 60.424118 84.635689 112.77771">20,000</tspan></text>
</g>
    </g>
    <g id="g76">
      <g clip-path="url(#clipPath80)" id="g78"><text id="text84" style="font-variant:normal;font-weight:normal;font-size:52.38100052px;font-family:'Roboto Condensed';-inkscape-font-specification:RobotoCondensed-Regular;writing-mode:lr-tb;fill:#000000;fill-opacity:1;fill-rule:nonzero;stroke:none" transform="matrix(1,0,0,-1,430.1,2178.52)"><tspan id="tspan86" y="0" x="0 24.200022 52.381001 60.447674 84.647697 112.82867">30,000</tspan></text>
</g>
    </g>
    <g id="g88">
      <g clip-path="url(#clipPath92)" id="g90"><text id="text96" style="font-variant:normal;font-weight:normal;font-size:52.40599823px;font-family:'Roboto Condensed';-inkscape-font-specification:RobotoCondensed-Regular;writing-mode:lr-tb;fill:#000000;fill-opacity:1;fill-rule:nonzero;stroke:none" transform="matrix(1,0,0,-1,430.1,2298.13)"><tspan id="tspan98" y="0" x="0 24.211573 52.353596 60.424118 84.635689 112.77771">40,000</tspan></text>
</g>
    </g>
    <g id="g100">
      <g clip-path="url(#clipPath104)" id="g102"><text id="text108" style="font-variant:normal;font-weight:normal;font-size:52.38100052px;font-family:'Roboto Condensed';-inkscape-font-specification:RobotoCondensed-Regular;writing-mode:lr-tb;fill:#000000;fill-opacity:1;fill-rule:nonzero;stroke:none" transform="matrix(1,0,0,-1,430.1,2417.72)"><tspan id="tspan110" y="0" x="0 24.200022 52.381001 60.447674 84.647697 112.82867">50,000</tspan></text>
</g>
    </g>
    <g id="g112">
      <g clip-path="url(#clipPath116)" id="g114"><text id="text120" style="font-variant:normal;font-weight:normal;font-size:52.40599823px;font-family:'Roboto Condensed';-inkscape-font-specification:RobotoCondensed-Regular;writing-mode:lr-tb;fill:#000000;fill-opacity:1;fill-rule:nonzero;stroke:none" transform="matrix(1,0,0,-1,430.1,2537.33)"><tspan id="tspan122" y="0" x="0 24.211573 52.353596 60.424118 84.635689 112.77771">60,000</tspan></text>
</g>
    </g>
    <g id="g124">
      <g clip-path="url(#clipPath128)" id="g126"><text id="text132" style="font-variant:normal;font-weight:normal;font-size:52.38100052px;font-family:'Roboto Condensed';-inkscape-font-specification:RobotoCondensed-Regular;writing-mode:lr-tb;fill:#000000;fill-opacity:1;fill-rule:nonzero;stroke:none" transform="matrix(1,0,0,-1,430.1,2656.92)"><tspan id="tspan134" y="0" x="0 24.200022 52.381001 60.447674 84.647697 112.82867">70,000</tspan></text>
</g>
    </g>
    <g id="g136">
      <g clip-path="url(#clipPath140)" id="g138"><text id="text144" style="font-variant:normal;font-weight:normal;font-size:52.40599823px;font-family:'Roboto Condensed';-inkscape-font-specification:RobotoCondensed-Regular;writing-mode:lr-tb;fill:#000000;fill-opacity:1;fill-rule:nonzero;stroke:none" transform="matrix(1,0,0,-1,430.1,2776.53)"><tspan id="tspan146" y="0" x="0 24.211573 52.353596 60.424118 84.635689 112.77771">80,000</tspan></text>
</g>
    </g>
    <g id="g148">
      <g clip-path="url(#clipPath152)" id="g150"><text id="text156" style="font-variant:normal;font-weight:normal;font-size:52.38100052px;font-family:'Roboto Condensed';-inkscape-font-specification:RobotoCondensed-Regular;writing-mode:lr-tb;fill:#000000;fill-opacity:1;fill-rule:nonzero;stroke:none" transform="matrix(1,0,0,-1,430.1,2896.11)"><tspan id="tspan158" y="0" x="0 24.200022 52.381001 60.447674 84.647697 112.82867">90,000</tspan></text>
</g>
    </g>
    <g id="g160">
      <g clip-path="url(#clipPath164)" id="g162"><text id="text168" style="font-variant:normal;font-weight:normal;font-size:52.38100052px;font-family:'Roboto Condensed';-inkscape-font-specification:RobotoCondensed-Regular;writing-mode:lr-tb;fill:#000000;fill-opacity:1;fill-rule:nonzero;stroke:none" transform="matrix(1,0,0,-1,404.74,3015.7)"><tspan id="tspan170" y="0" x="0 24.14764 52.328617 76.476257 84.542931 112.72392 136.87155">100,000</tspan></text>
</g>
    </g>
    <g id="g172">
      <g clip-path="url(#clipPath176)" id="g174">
        <path id="path180" style="fill:#000000;fill-opacity:1;fill-rule:nonzero;stroke:none" d="m 557.09,1645.48 -3.22,-3.22 -22.29,22.3 -3.06,-8.01 -3.04,3.04 4.65,11.84 0.5,0.51 26.46,-26.46 z m 10.99,6.46 -2.72,-2.71 -19.35,37.83 2.7,2.7 19.37,-37.82 z m 20.35,24.88 -3.22,-3.22 -22.29,22.3 -3.06,-8.01 -3.04,3.04 4.65,11.84 0.51,0.51 26.45,-26.46 z m 10.99,6.46 -2.72,-2.71 -19.35,37.83 2.7,2.7 19.37,-37.82 z m 25.55,30.07 -14.73,-14.72 -2.4,2.4 -2.44,17.46 c -0.4,2.66 -0.87,4.7 -1.41,6.13 -0.55,1.42 -1.37,2.68 -2.46,3.78 -1.4,1.4 -2.86,2.2 -4.38,2.42 -1.52,0.22 -2.81,-0.2 -3.87,-1.27 -1.34,-1.33 -1.91,-2.83 -1.72,-4.48 0.19,-1.65 1.16,-3.35 2.9,-5.08 l -3.21,-3.2 c -2.42,2.42 -3.72,5.04 -3.88,7.86 -0.17,2.83 0.88,5.38 3.16,7.65 2.1,2.1 4.39,3.11 6.88,3.03 2.49,-0.08 4.8,-1.18 6.94,-3.32 2.6,-2.6 4.33,-7.04 5.17,-13.31 l 1.81,-13.52 10.9,10.9 2.74,-2.73 z m 5.21,27.68 c 3.88,-3.89 6.22,-7.36 7.01,-10.41 0.79,-3.06 -0.03,-5.8 -2.45,-8.22 -2.36,-2.35 -5.03,-3.19 -8.03,-2.5 -3.01,0.69 -6.38,2.86 -10.13,6.51 l -4.52,4.52 c -3.85,3.85 -6.15,7.29 -6.9,10.32 -0.76,3.03 0.07,5.76 2.48,8.17 2.38,2.37 5.03,3.23 7.97,2.57 2.94,-0.65 6.25,-2.77 9.96,-6.35 l 4.61,-4.61 z m -7.78,1.37 c -2.78,2.78 -5.14,4.53 -7.08,5.24 -1.93,0.7 -3.58,0.38 -4.93,-0.97 -1.31,-1.32 -1.63,-2.93 -0.95,-4.84 0.68,-1.91 2.32,-4.19 4.91,-6.83 l 5.43,-5.42 c 2.77,-2.78 5.17,-4.54 7.21,-5.29 2.03,-0.76 3.7,-0.48 5.01,0.84 1.31,1.3 1.61,2.92 0.91,4.85 -0.7,1.92 -2.39,4.25 -5.07,6.98 l -5.44,5.44 z m 39.6,7.99 -14.72,-14.72 -2.4,2.4 -2.44,17.46 c -0.4,2.66 -0.87,4.7 -1.41,6.13 -0.55,1.42 -1.37,2.68 -2.46,3.78 -1.4,1.39 -2.86,2.2 -4.38,2.42 -1.52,0.22 -2.81,-0.21 -3.87,-1.27 -1.34,-1.33 -1.91,-2.83 -1.72,-4.48 0.19,-1.65 1.16,-3.35 2.89,-5.08 l -3.2,-3.2 c -2.42,2.42 -3.72,5.04 -3.89,7.86 -0.16,2.82 0.89,5.37 3.17,7.65 2.1,2.1 4.39,3.11 6.88,3.03 2.49,-0.08 4.8,-1.18 6.94,-3.32 2.6,-2.6 4.33,-7.04 5.17,-13.31 l 1.81,-13.53 10.9,10.91 2.73,-2.73 z m 5.65,23.33 2.93,2.93 2.73,-2.73 -2.93,-2.93 6.11,-6.11 -3.2,-3.2 -6.11,6.11 -9.95,-9.95 -1.97,1.98 -8.46,28.03 3.36,3.36 17.49,-17.49 z m -9.6,-9.6 6.4,6.4 -12.52,12.52 6.12,-18.92 z"/>
      </g>
    </g>
    <g id="g182">
      <g clip-path="url(#clipPath186)" id="g184">
        <path id="path190" style="fill:#000000;fill-opacity:1;fill-rule:nonzero;stroke:none" d="m 669.41,1650.67 -14.72,-14.72 -2.41,2.4 -2.44,17.46 c -0.4,2.66 -0.87,4.7 -1.41,6.13 -0.54,1.42 -1.36,2.68 -2.46,3.78 -1.4,1.39 -2.86,2.2 -4.38,2.42 -1.52,0.22 -2.81,-0.21 -3.87,-1.27 -1.33,-1.33 -1.91,-2.83 -1.71,-4.48 0.19,-1.65 1.15,-3.35 2.89,-5.08 l -3.2,-3.2 c -2.43,2.42 -3.72,5.04 -3.89,7.86 -0.17,2.82 0.89,5.37 3.16,7.65 2.1,2.1 4.4,3.11 6.89,3.03 2.49,-0.08 4.8,-1.18 6.93,-3.32 2.61,-2.6 4.33,-7.04 5.17,-13.31 l 1.81,-13.53 10.91,10.91 2.73,-2.73 z m 5.79,1.27 -2.71,-2.71 -19.35,37.83 2.69,2.7 19.37,-37.82 z m 20.36,24.88 -3.22,-3.22 -22.3,22.3 -3.06,-8.01 -3.03,3.04 4.64,11.84 0.51,0.51 26.46,-26.46 z m 10.98,6.46 -2.71,-2.71 -19.35,37.83 2.69,2.7 19.37,-37.82 z m 25.55,30.07 -14.72,-14.72 -2.41,2.4 -2.44,17.46 c -0.4,2.66 -0.87,4.7 -1.41,6.13 -0.54,1.42 -1.36,2.68 -2.46,3.78 -1.4,1.4 -2.86,2.2 -4.37,2.42 -1.52,0.22 -2.81,-0.2 -3.88,-1.27 -1.33,-1.33 -1.91,-2.83 -1.71,-4.48 0.19,-1.65 1.15,-3.35 2.89,-5.08 l -3.2,-3.2 c -2.42,2.42 -3.72,5.04 -3.89,7.86 -0.17,2.83 0.89,5.38 3.17,7.65 2.09,2.1 4.39,3.11 6.88,3.03 2.49,-0.08 4.8,-1.18 6.93,-3.32 2.61,-2.6 4.33,-7.04 5.18,-13.31 l 1.8,-13.52 10.91,10.9 2.73,-2.73 z m 5.21,27.68 c 3.89,-3.89 6.22,-7.36 7.01,-10.41 0.79,-3.06 -0.03,-5.8 -2.45,-8.22 -2.35,-2.35 -5.03,-3.19 -8.03,-2.5 -3,0.69 -6.38,2.86 -10.13,6.51 l -4.52,4.52 c -3.84,3.85 -6.14,7.29 -6.9,10.32 -0.75,3.03 0.08,5.76 2.49,8.17 2.37,2.37 5.03,3.23 7.97,2.57 2.93,-0.65 6.25,-2.77 9.95,-6.35 l 4.61,-4.61 z m -7.77,1.37 c -2.79,2.78 -5.15,4.53 -7.08,5.24 -1.94,0.7 -3.58,0.38 -4.93,-0.97 -1.32,-1.32 -1.63,-2.93 -0.95,-4.84 0.68,-1.91 2.32,-4.19 4.91,-6.83 l 5.42,-5.42 c 2.78,-2.78 5.18,-4.54 7.21,-5.29 2.03,-0.76 3.71,-0.48 5.02,0.84 1.3,1.3 1.6,2.92 0.9,4.85 -0.7,1.92 -2.38,4.25 -5.06,6.98 l -5.44,5.44 z m 39.6,7.99 -14.72,-14.72 -2.41,2.4 -2.44,17.46 c -0.4,2.66 -0.87,4.7 -1.41,6.13 -0.54,1.42 -1.36,2.68 -2.46,3.78 -1.4,1.39 -2.86,2.2 -4.38,2.42 -1.52,0.22 -2.81,-0.21 -3.87,-1.27 -1.33,-1.33 -1.91,-2.83 -1.71,-4.48 0.19,-1.65 1.15,-3.35 2.89,-5.08 l -3.2,-3.2 c -2.43,2.42 -3.72,5.04 -3.89,7.86 -0.17,2.82 0.89,5.37 3.16,7.65 2.1,2.1 4.4,3.11 6.89,3.03 2.49,-0.08 4.8,-1.18 6.93,-3.32 2.61,-2.6 4.33,-7.04 5.17,-13.31 l 1.81,-13.53 10.91,10.91 2.73,-2.73 z m 5.65,23.33 2.93,2.93 2.73,-2.73 -2.93,-2.93 6.11,-6.11 -3.2,-3.2 -6.11,6.11 -9.95,-9.95 -1.97,1.98 -8.47,28.03 3.37,3.36 17.49,-17.49 z m -9.61,-9.6 6.4,6.4 -12.51,12.52 6.11,-18.92 z"/>
      </g>
    </g>
    <g id="g192">
      <g clip-path="url(#clipPath196)" id="g194">
        <path id="path200" style="fill:#000000;fill-opacity:1;fill-rule:nonzero;stroke:none" d="m 751.11,1654.83 2.04,2.04 c 1.31,1.32 1.92,2.73 1.83,4.25 -0.1,1.52 -0.85,2.98 -2.25,4.38 -3.08,3.09 -5.82,3.44 -8.21,1.05 -1.14,-1.15 -1.62,-2.46 -1.44,-3.94 0.18,-1.49 0.94,-2.9 2.29,-4.25 l -3.18,-3.19 c -2.11,2.11 -3.21,4.49 -3.29,7.15 -0.09,2.65 0.87,4.98 2.87,6.98 2.08,2.07 4.37,3.07 6.89,2.99 2.51,-0.08 4.95,-1.3 7.33,-3.68 1.22,-1.22 2.04,-2.67 2.46,-4.36 0.42,-1.69 0.37,-3.28 -0.15,-4.79 3.4,1.57 6.7,0.75 9.9,-2.44 2.35,-2.35 3.57,-4.88 3.65,-7.58 0.08,-2.7 -0.93,-5.11 -3.04,-7.22 -2.08,-2.08 -4.43,-3.11 -7.03,-3.07 -2.61,0.04 -5.03,1.17 -7.26,3.4 l 3.21,3.2 c 1.39,-1.4 2.84,-2.17 4.34,-2.32 1.51,-0.15 2.84,0.35 4.01,1.52 1.19,1.2 1.74,2.55 1.64,4.06 -0.11,1.52 -0.98,3.1 -2.63,4.75 -3.2,3.2 -6.31,3.28 -9.34,0.26 l -1.91,-1.92 -2.73,2.73 z m 31.22,-2.89 -2.72,-2.71 -19.35,37.83 2.7,2.7 19.37,-37.82 z m 20.35,24.88 -3.22,-3.22 -22.29,22.3 -3.06,-8.01 -3.04,3.04 4.65,11.84 0.51,0.51 26.45,-26.46 z m 10.99,6.46 -2.72,-2.71 -19.35,37.83 2.7,2.7 19.37,-37.82 z m 25.55,30.07 -14.73,-14.72 -2.4,2.4 -2.44,17.46 c -0.4,2.66 -0.87,4.7 -1.41,6.13 -0.55,1.42 -1.37,2.68 -2.46,3.78 -1.4,1.4 -2.86,2.2 -4.38,2.42 -1.52,0.22 -2.81,-0.2 -3.87,-1.27 -1.34,-1.33 -1.91,-2.83 -1.72,-4.48 0.19,-1.65 1.16,-3.35 2.9,-5.08 l -3.21,-3.2 c -2.42,2.42 -3.72,5.04 -3.88,7.86 -0.17,2.83 0.88,5.38 3.16,7.65 2.1,2.1 4.39,3.11 6.88,3.03 2.49,-0.08 4.8,-1.18 6.94,-3.32 2.6,-2.6 4.33,-7.04 5.17,-13.31 l 1.81,-13.52 10.9,10.9 2.74,-2.73 z m 5.21,27.68 c 3.88,-3.89 6.22,-7.36 7.01,-10.41 0.79,-3.06 -0.03,-5.8 -2.45,-8.22 -2.36,-2.35 -5.03,-3.19 -8.03,-2.5 -3.01,0.69 -6.38,2.86 -10.13,6.51 l -4.52,4.52 c -3.85,3.85 -6.15,7.29 -6.9,10.32 -0.76,3.03 0.07,5.76 2.48,8.17 2.38,2.37 5.03,3.23 7.97,2.57 2.94,-0.65 6.25,-2.77 9.96,-6.35 l 4.61,-4.61 z m -7.78,1.37 c -2.78,2.78 -5.14,4.53 -7.08,5.24 -1.93,0.7 -3.58,0.38 -4.93,-0.97 -1.31,-1.32 -1.63,-2.93 -0.95,-4.84 0.68,-1.91 2.32,-4.19 4.91,-6.83 l 5.43,-5.42 c 2.77,-2.78 5.17,-4.54 7.21,-5.29 2.03,-0.76 3.7,-0.48 5.01,0.84 1.31,1.3 1.61,2.92 0.91,4.85 -0.7,1.92 -2.39,4.25 -5.07,6.98 l -5.44,5.44 z m 39.6,7.99 -14.72,-14.72 -2.4,2.4 -2.44,17.46 c -0.4,2.66 -0.87,4.7 -1.42,6.13 -0.54,1.42 -1.36,2.68 -2.45,3.78 -1.4,1.39 -2.86,2.2 -4.38,2.42 -1.52,0.22 -2.81,-0.21 -3.87,-1.27 -1.34,-1.33 -1.91,-2.83 -1.72,-4.48 0.19,-1.65 1.16,-3.35 2.89,-5.08 l -3.2,-3.2 c -2.42,2.42 -3.72,5.04 -3.89,7.86 -0.16,2.82 0.89,5.37 3.17,7.65 2.1,2.1 4.39,3.11 6.88,3.03 2.49,-0.08 4.8,-1.18 6.94,-3.32 2.6,-2.6 4.33,-7.04 5.17,-13.31 l 1.81,-13.53 10.9,10.91 2.73,-2.73 z m 5.65,23.33 2.93,2.93 2.73,-2.73 -2.93,-2.93 6.11,-6.11 -3.2,-3.2 -6.11,6.11 -9.95,-9.95 -1.97,1.98 -8.46,28.03 3.36,3.36 17.49,-17.49 z m -9.6,-9.6 6.4,6.4 -12.52,12.52 6.12,-18.92 z"/>
      </g>
    </g>
    <g id="g202">
      <g clip-path="url(#clipPath206)" id="g204">
        <path id="path210" style="fill:#000000;fill-opacity:1;fill-rule:nonzero;stroke:none" d="m 872.21,1656.91 2.93,2.93 2.73,-2.73 -2.93,-2.93 6.11,-6.12 -3.2,-3.2 -6.11,6.12 -9.95,-9.95 -1.97,1.97 -8.46,28.03 3.36,3.37 17.49,-17.49 z m -9.6,-9.6 6.4,6.4 -12.52,12.51 6.12,-18.91 z m 26.84,4.63 -2.71,-2.71 -19.35,37.83 2.69,2.7 19.37,-37.82 z m 20.36,24.88 -3.22,-3.22 -22.3,22.3 -3.06,-8.01 -3.03,3.04 4.64,11.84 0.51,0.51 26.46,-26.46 z m 10.98,6.46 -2.71,-2.71 -19.35,37.83 2.69,2.7 19.37,-37.82 z m 25.55,30.07 -14.72,-14.72 -2.41,2.4 -2.44,17.46 c -0.4,2.66 -0.87,4.7 -1.41,6.13 -0.54,1.42 -1.36,2.68 -2.46,3.78 -1.4,1.4 -2.86,2.2 -4.38,2.42 -1.51,0.22 -2.8,-0.2 -3.87,-1.27 -1.33,-1.33 -1.91,-2.83 -1.71,-4.48 0.19,-1.65 1.15,-3.35 2.89,-5.08 l -3.2,-3.2 c -2.42,2.42 -3.72,5.04 -3.89,7.86 -0.17,2.83 0.89,5.38 3.17,7.65 2.09,2.1 4.39,3.11 6.88,3.03 2.49,-0.08 4.8,-1.18 6.93,-3.32 2.61,-2.6 4.33,-7.04 5.18,-13.31 l 1.8,-13.52 10.91,10.9 2.73,-2.73 z m 5.21,27.68 c 3.89,-3.89 6.22,-7.36 7.01,-10.41 0.79,-3.06 -0.03,-5.8 -2.45,-8.22 -2.35,-2.35 -5.03,-3.19 -8.03,-2.5 -3,0.69 -6.38,2.86 -10.13,6.51 l -4.52,4.52 c -3.84,3.85 -6.14,7.29 -6.9,10.32 -0.75,3.03 0.08,5.76 2.49,8.17 2.37,2.37 5.03,3.23 7.96,2.57 2.94,-0.65 6.26,-2.77 9.96,-6.35 l 4.61,-4.61 z m -7.77,1.37 c -2.79,2.78 -5.15,4.53 -7.08,5.24 -1.94,0.7 -3.58,0.38 -4.93,-0.97 -1.32,-1.32 -1.63,-2.93 -0.95,-4.84 0.68,-1.91 2.32,-4.19 4.91,-6.83 l 5.42,-5.42 c 2.78,-2.78 5.18,-4.54 7.21,-5.29 2.03,-0.76 3.71,-0.48 5.02,0.84 1.3,1.3 1.6,2.92 0.9,4.85 -0.7,1.92 -2.38,4.25 -5.06,6.98 l -5.44,5.44 z m 39.6,7.99 -14.72,-14.72 -2.41,2.4 -2.44,17.46 c -0.4,2.66 -0.87,4.7 -1.41,6.13 -0.54,1.42 -1.36,2.68 -2.46,3.78 -1.4,1.39 -2.86,2.2 -4.38,2.42 -1.52,0.22 -2.81,-0.21 -3.87,-1.27 -1.34,-1.33 -1.91,-2.83 -1.71,-4.48 0.19,-1.65 1.15,-3.35 2.89,-5.08 l -3.2,-3.2 c -2.43,2.42 -3.72,5.04 -3.89,7.86 -0.17,2.82 0.89,5.37 3.16,7.65 2.1,2.1 4.4,3.11 6.89,3.03 2.49,-0.08 4.8,-1.18 6.93,-3.32 2.61,-2.6 4.33,-7.04 5.17,-13.31 l 1.81,-13.53 10.91,10.91 2.73,-2.73 z m 5.65,23.33 2.93,2.93 2.73,-2.73 -2.93,-2.93 6.11,-6.11 -3.2,-3.2 -6.11,6.11 -9.95,-9.95 -1.97,1.98 -8.47,28.03 3.37,3.36 17.49,-17.49 z m -9.61,-9.6 6.4,6.4 -12.51,12.52 6.11,-18.92 z"/>
      </g>
    </g>
    <g id="g212">
      <g clip-path="url(#clipPath216)" id="g214">
        <path id="path220" style="fill:#000000;fill-opacity:1;fill-rule:nonzero;stroke:none" d="m 964.16,1650.45 -11.99,14.27 11.45,11.45 3.09,-3.09 -8.75,-8.76 6.56,-7.79 c 0.33,1.84 1.12,3.39 2.37,4.65 2.05,2.05 4.46,2.86 7.22,2.44 2.76,-0.42 5.49,-1.98 8.17,-4.67 2.73,-2.72 4.23,-5.5 4.52,-8.33 0.28,-2.82 -0.69,-5.35 -2.91,-7.56 -1.97,-1.98 -4.23,-2.95 -6.76,-2.9 -2.53,0.05 -5.03,1.12 -7.49,3.22 l 3,3 c 1.69,-1.32 3.26,-2.03 4.71,-2.11 1.44,-0.09 2.72,0.42 3.81,1.52 1.24,1.24 1.68,2.75 1.3,4.53 -0.38,1.77 -1.49,3.58 -3.32,5.41 -1.73,1.73 -3.51,2.76 -5.35,3.09 -1.84,0.33 -3.39,-0.14 -4.67,-1.42 -1.06,-1.06 -1.64,-2.19 -1.72,-3.38 l 0,-1.71 -3.24,-1.86 z m 32.42,1.49 -2.72,-2.71 -19.35,37.83 2.7,2.7 19.37,-37.82 z m 20.35,24.88 -3.22,-3.22 -22.29,22.3 -3.06,-8.01 -3.04,3.04 4.65,11.84 0.51,0.51 26.45,-26.46 z m 10.99,6.46 -2.72,-2.71 -19.35,37.83 2.7,2.7 19.37,-37.82 z m 25.55,30.07 -14.73,-14.72 -2.4,2.4 -2.44,17.46 c -0.4,2.66 -0.87,4.7 -1.41,6.13 -0.55,1.42 -1.37,2.68 -2.46,3.78 -1.4,1.4 -2.86,2.2 -4.38,2.42 -1.52,0.22 -2.81,-0.2 -3.87,-1.27 -1.34,-1.33 -1.91,-2.83 -1.72,-4.48 0.19,-1.65 1.16,-3.35 2.9,-5.08 l -3.21,-3.2 c -2.42,2.42 -3.72,5.04 -3.88,7.86 -0.17,2.83 0.88,5.38 3.16,7.65 2.1,2.1 4.39,3.11 6.88,3.03 2.49,-0.08 4.8,-1.18 6.94,-3.32 2.6,-2.6 4.33,-7.04 5.17,-13.31 l 1.81,-13.52 10.9,10.9 2.74,-2.73 z m 5.21,27.68 c 3.88,-3.89 6.22,-7.36 7.01,-10.41 0.79,-3.06 -0.03,-5.8 -2.45,-8.22 -2.36,-2.35 -5.03,-3.19 -8.03,-2.5 -3.01,0.69 -6.38,2.86 -10.13,6.51 l -4.52,4.52 c -3.85,3.85 -6.15,7.29 -6.9,10.32 -0.76,3.03 0.07,5.76 2.48,8.17 2.38,2.37 5.03,3.23 7.97,2.57 2.94,-0.65 6.25,-2.77 9.96,-6.35 l 4.61,-4.61 z m -7.78,1.37 c -2.78,2.78 -5.14,4.53 -7.08,5.24 -1.93,0.7 -3.58,0.38 -4.93,-0.97 -1.31,-1.32 -1.63,-2.93 -0.95,-4.84 0.68,-1.91 2.32,-4.19 4.91,-6.83 l 5.43,-5.42 c 2.77,-2.78 5.17,-4.54 7.21,-5.29 2.03,-0.76 3.7,-0.48 5.01,0.84 1.31,1.3 1.61,2.92 0.91,4.85 -0.7,1.92 -2.39,4.25 -5.07,6.98 l -5.44,5.44 z m 39.6,7.99 -14.72,-14.72 -2.4,2.4 -2.44,17.46 c -0.4,2.66 -0.87,4.7 -1.41,6.13 -0.55,1.42 -1.37,2.68 -2.46,3.78 -1.4,1.39 -2.86,2.2 -4.38,2.42 -1.52,0.22 -2.81,-0.21 -3.87,-1.27 -1.34,-1.33 -1.91,-2.83 -1.72,-4.48 0.19,-1.65 1.16,-3.35 2.89,-5.08 l -3.2,-3.2 c -2.42,2.42 -3.72,5.04 -3.89,7.86 -0.16,2.82 0.89,5.37 3.17,7.65 2.1,2.1 4.39,3.11 6.88,3.03 2.49,-0.08 4.8,-1.18 6.94,-3.32 2.6,-2.6 4.33,-7.04 5.17,-13.31 l 1.81,-13.53 10.9,10.91 2.73,-2.73 z m 5.65,23.33 2.93,2.93 2.73,-2.73 -2.93,-2.93 6.11,-6.11 -3.2,-3.2 -6.11,6.11 -9.95,-9.95 -1.97,1.98 -8.46,28.03 3.36,3.36 17.49,-17.49 z m -9.6,-9.6 6.4,6.4 -12.52,12.52 6.12,-18.92 z"/>
      </g>
    </g>
    <g id="g222">
      <g clip-path="url(#clipPath226)" id="g224">
        <path id="path230" style="fill:#000000;fill-opacity:1;fill-rule:nonzero;stroke:none" d="m 1067.98,1673.44 2.84,-2.84 -0.53,-0.53 c -2.08,-2.18 -3.03,-4.57 -2.85,-7.17 0.19,-2.59 1.59,-5.38 4.21,-8.36 -0.3,2.64 0.46,4.87 2.28,6.69 1.94,1.94 4.28,2.68 7.01,2.23 2.74,-0.46 5.41,-1.99 8,-4.58 2.76,-2.76 4.31,-5.57 4.66,-8.44 0.34,-2.86 -0.55,-5.35 -2.67,-7.48 -2.14,-2.13 -4.8,-2.9 -8,-2.31 -3.19,0.59 -6.36,2.45 -9.49,5.59 l -1.28,1.28 c -3.62,3.62 -6.11,6.89 -7.47,9.82 -1.37,2.93 -1.81,5.68 -1.32,8.25 0.48,2.57 1.83,5 4.06,7.31 l 0.55,0.54 z m 8.19,-15.54 c -0.87,-0.86 -1.34,-2 -1.41,-3.4 -0.07,-1.4 0.24,-2.77 0.94,-4.12 l 1.32,-1.32 c 2.13,-2.13 4.25,-3.5 6.35,-4.09 2.1,-0.59 3.69,-0.34 4.79,0.76 1.19,1.2 1.58,2.68 1.15,4.46 -0.43,1.78 -1.55,3.57 -3.36,5.38 -1.78,1.78 -3.57,2.9 -5.38,3.36 -1.8,0.45 -3.27,0.11 -4.4,-1.03 z m 27.53,-5.96 -2.71,-2.71 -19.35,37.83 2.69,2.7 19.37,-37.82 z m 20.36,24.88 -3.22,-3.22 -22.3,22.3 -3.06,-8.01 -3.03,3.04 4.64,11.84 0.51,0.51 26.46,-26.46 z m 10.98,6.46 -2.71,-2.71 -19.35,37.83 2.69,2.7 19.37,-37.82 z m 25.55,30.07 -14.72,-14.72 -2.41,2.4 -2.44,17.46 c -0.4,2.66 -0.87,4.7 -1.41,6.13 -0.54,1.42 -1.36,2.68 -2.46,3.78 -1.4,1.4 -2.86,2.2 -4.38,2.42 -1.51,0.22 -2.8,-0.2 -3.87,-1.27 -1.33,-1.33 -1.91,-2.83 -1.71,-4.48 0.19,-1.65 1.15,-3.35 2.89,-5.08 l -3.2,-3.2 c -2.42,2.42 -3.72,5.04 -3.89,7.86 -0.17,2.83 0.89,5.38 3.17,7.65 2.09,2.1 4.39,3.11 6.88,3.03 2.49,-0.08 4.8,-1.18 6.93,-3.32 2.61,-2.6 4.33,-7.04 5.18,-13.31 l 1.8,-13.52 10.91,10.9 2.73,-2.73 z m 5.21,27.68 c 3.88,-3.89 6.22,-7.36 7.01,-10.41 0.79,-3.06 -0.03,-5.8 -2.45,-8.22 -2.35,-2.35 -5.03,-3.19 -8.03,-2.5 -3,0.69 -6.38,2.86 -10.13,6.51 l -4.52,4.52 c -3.85,3.85 -6.14,7.29 -6.9,10.32 -0.75,3.03 0.08,5.76 2.49,8.17 2.37,2.37 5.03,3.23 7.96,2.57 2.94,-0.65 6.26,-2.77 9.96,-6.35 l 4.61,-4.61 z m -7.77,1.37 c -2.79,2.78 -5.15,4.53 -7.08,5.24 -1.94,0.7 -3.58,0.38 -4.93,-0.97 -1.32,-1.32 -1.63,-2.93 -0.95,-4.84 0.68,-1.91 2.32,-4.19 4.91,-6.83 l 5.42,-5.42 c 2.78,-2.78 5.18,-4.54 7.21,-5.29 2.03,-0.76 3.71,-0.48 5.02,0.84 1.3,1.3 1.6,2.92 0.9,4.85 -0.7,1.92 -2.38,4.25 -5.06,6.98 l -5.44,5.44 z m 39.6,7.99 -14.72,-14.72 -2.41,2.4 -2.44,17.46 c -0.4,2.66 -0.87,4.7 -1.41,6.13 -0.54,1.42 -1.36,2.68 -2.46,3.78 -1.4,1.39 -2.86,2.2 -4.38,2.42 -1.52,0.22 -2.81,-0.21 -3.87,-1.27 -1.34,-1.33 -1.91,-2.83 -1.72,-4.48 0.2,-1.65 1.16,-3.35 2.9,-5.08 l -3.2,-3.2 c -2.43,2.42 -3.72,5.04 -3.89,7.86 -0.17,2.82 0.89,5.37 3.16,7.65 2.1,2.1 4.4,3.11 6.89,3.03 2.49,-0.08 4.8,-1.18 6.93,-3.32 2.61,-2.6 4.33,-7.04 5.17,-13.31 l 1.81,-13.53 10.91,10.91 2.73,-2.73 z m 5.65,23.33 2.93,2.93 2.73,-2.73 -2.93,-2.93 6.11,-6.11 -3.2,-3.2 -6.11,6.11 -9.95,-9.95 -1.97,1.98 -8.47,28.03 3.37,3.36 17.49,-17.49 z m -9.61,-9.6 6.4,6.4 -12.51,12.52 6.11,-18.92 z"/>
      </g>
    </g>
    <g id="g232">
      <g clip-path="url(#clipPath236)" id="g234">
        <path id="path240" style="fill:#000000;fill-opacity:1;fill-rule:nonzero;stroke:none" d="m 1180.38,1674.92 15.39,-33.51 -3.34,-3.35 -14.54,32.63 -11.74,-11.74 -2.75,2.75 15.1,15.1 1.88,-1.88 z m 30.45,-22.98 -2.72,-2.71 -19.35,37.83 2.7,2.7 19.37,-37.82 z m 20.35,24.88 -3.22,-3.22 -22.29,22.3 -3.06,-8.01 -3.04,3.04 4.65,11.84 0.51,0.51 26.45,-26.46 z m 10.99,6.46 -2.72,-2.71 -19.35,37.83 2.7,2.7 19.37,-37.82 z m 25.55,30.07 -14.73,-14.72 -2.4,2.4 -2.44,17.46 c -0.4,2.66 -0.87,4.7 -1.41,6.13 -0.55,1.42 -1.37,2.68 -2.46,3.78 -1.4,1.4 -2.86,2.2 -4.38,2.42 -1.52,0.22 -2.81,-0.2 -3.87,-1.27 -1.34,-1.33 -1.91,-2.83 -1.72,-4.48 0.19,-1.65 1.16,-3.35 2.9,-5.08 l -3.21,-3.2 c -2.42,2.42 -3.72,5.04 -3.88,7.86 -0.17,2.83 0.88,5.38 3.16,7.65 2.1,2.1 4.39,3.11 6.88,3.03 2.49,-0.08 4.8,-1.18 6.94,-3.32 2.6,-2.6 4.33,-7.04 5.17,-13.31 l 1.81,-13.52 10.9,10.9 2.74,-2.73 z m 5.21,27.68 c 3.88,-3.89 6.22,-7.36 7.01,-10.41 0.79,-3.06 -0.03,-5.8 -2.45,-8.22 -2.36,-2.35 -5.03,-3.19 -8.03,-2.5 -3.01,0.69 -6.38,2.86 -10.13,6.51 l -4.52,4.52 c -3.85,3.85 -6.15,7.29 -6.9,10.32 -0.76,3.03 0.07,5.76 2.48,8.17 2.38,2.37 5.03,3.23 7.97,2.57 2.94,-0.65 6.25,-2.77 9.96,-6.35 l 4.61,-4.61 z m -7.78,1.37 c -2.78,2.78 -5.14,4.53 -7.08,5.24 -1.93,0.7 -3.58,0.38 -4.93,-0.97 -1.31,-1.32 -1.63,-2.93 -0.95,-4.84 0.68,-1.91 2.32,-4.19 4.91,-6.83 l 5.43,-5.42 c 2.77,-2.78 5.17,-4.54 7.21,-5.29 2.03,-0.76 3.7,-0.48 5.01,0.84 1.31,1.3 1.61,2.92 0.91,4.85 -0.7,1.92 -2.39,4.25 -5.07,6.98 l -5.44,5.44 z m 39.6,7.99 -14.72,-14.72 -2.4,2.4 -2.44,17.46 c -0.4,2.66 -0.87,4.7 -1.42,6.13 -0.54,1.42 -1.36,2.68 -2.45,3.78 -1.4,1.39 -2.86,2.2 -4.38,2.42 -1.52,0.22 -2.81,-0.21 -3.87,-1.27 -1.34,-1.33 -1.91,-2.83 -1.72,-4.48 0.19,-1.65 1.16,-3.35 2.89,-5.08 l -3.2,-3.2 c -2.42,2.42 -3.72,5.04 -3.89,7.86 -0.16,2.82 0.89,5.37 3.17,7.65 2.1,2.1 4.39,3.11 6.88,3.03 2.49,-0.08 4.8,-1.18 6.94,-3.32 2.6,-2.6 4.33,-7.04 5.17,-13.31 l 1.81,-13.53 10.9,10.91 2.73,-2.73 z m 5.65,23.33 2.93,2.93 2.73,-2.73 -2.93,-2.93 6.11,-6.11 -3.2,-3.2 -6.11,6.11 -9.95,-9.95 -1.97,1.98 -8.46,28.03 3.36,3.36 17.49,-17.49 z m -9.6,-9.6 6.4,6.4 -12.52,12.52 6.12,-18.92 z"/>
      </g>
    </g>
    <g id="g242">
      <g clip-path="url(#clipPath246)" id="g244">
        <path id="path250" style="fill:#000000;fill-opacity:1;fill-rule:nonzero;stroke:none" d="m 1291.52,1668.95 c 1.32,-1.31 2.19,-2.77 2.63,-4.38 0.44,-1.61 0.46,-3.2 0.05,-4.77 1.77,0.57 3.55,0.62 5.34,0.16 1.79,-0.47 3.41,-1.42 4.84,-2.85 2.27,-2.27 3.44,-4.72 3.51,-7.36 0.07,-2.64 -0.95,-5.02 -3.07,-7.15 -2.13,-2.12 -4.51,-3.14 -7.15,-3.07 -2.64,0.07 -5.09,1.24 -7.36,3.51 -1.45,1.44 -2.41,3.07 -2.89,4.86 -0.48,1.8 -0.45,3.55 0.11,5.27 -1.57,-0.41 -3.15,-0.39 -4.73,0.06 -1.59,0.45 -3.04,1.33 -4.35,2.65 -2.22,2.22 -3.38,4.58 -3.48,7.08 -0.11,2.5 0.83,4.73 2.79,6.7 1.95,1.95 4.18,2.88 6.66,2.79 2.49,-0.09 4.86,-1.25 7.1,-3.5 z m 9.59,-14.97 c -1.51,1.51 -3.07,2.36 -4.69,2.56 -1.63,0.2 -3.02,-0.28 -4.17,-1.44 -1.18,-1.18 -1.66,-2.57 -1.42,-4.17 0.23,-1.6 1.1,-3.14 2.59,-4.64 1.52,-1.52 3.04,-2.36 4.55,-2.54 1.51,-0.17 2.89,0.35 4.12,1.58 1.23,1.23 1.75,2.6 1.57,4.11 -0.18,1.51 -1.03,3.02 -2.55,4.54 z m -12.72,11.74 c -1.33,1.33 -2.74,2.11 -4.21,2.33 -1.47,0.22 -2.69,-0.16 -3.67,-1.14 -1.03,-1.02 -1.42,-2.25 -1.19,-3.69 0.22,-1.43 1.02,-2.83 2.38,-4.2 1.38,-1.37 2.78,-2.15 4.2,-2.35 1.42,-0.19 2.63,0.21 3.63,1.22 1.03,1.02 1.43,2.24 1.22,3.67 -0.22,1.42 -1,2.81 -2.36,4.16 z m 29.56,-13.78 -2.71,-2.71 -19.35,37.83 2.69,2.7 19.37,-37.82 z m 20.36,24.88 -3.22,-3.22 -22.3,22.3 -3.06,-8.01 -3.03,3.04 4.64,11.84 0.51,0.51 26.46,-26.46 z m 10.98,6.46 -2.71,-2.71 -19.35,37.83 2.69,2.7 19.37,-37.82 z m 25.55,30.07 -14.72,-14.72 -2.41,2.4 -2.44,17.46 c -0.4,2.66 -0.87,4.7 -1.41,6.13 -0.54,1.42 -1.36,2.68 -2.46,3.78 -1.4,1.4 -2.86,2.2 -4.38,2.42 -1.51,0.22 -2.8,-0.2 -3.87,-1.27 -1.33,-1.33 -1.91,-2.83 -1.71,-4.48 0.19,-1.65 1.15,-3.35 2.89,-5.08 l -3.2,-3.2 c -2.42,2.42 -3.72,5.04 -3.89,7.86 -0.17,2.83 0.89,5.38 3.17,7.65 2.09,2.1 4.39,3.11 6.88,3.03 2.49,-0.08 4.8,-1.18 6.93,-3.32 2.61,-2.6 4.33,-7.04 5.18,-13.31 l 1.8,-13.52 10.91,10.9 2.73,-2.73 z m 5.21,27.68 c 3.88,-3.89 6.22,-7.36 7.01,-10.41 0.79,-3.06 -0.03,-5.8 -2.45,-8.22 -2.35,-2.35 -5.03,-3.19 -8.03,-2.5 -3,0.69 -6.38,2.86 -10.13,6.51 l -4.52,4.52 c -3.85,3.85 -6.14,7.29 -6.9,10.32 -0.75,3.03 0.08,5.76 2.49,8.17 2.37,2.37 5.03,3.23 7.96,2.57 2.94,-0.65 6.26,-2.77 9.96,-6.35 l 4.61,-4.61 z m -7.77,1.37 c -2.79,2.78 -5.15,4.53 -7.08,5.24 -1.94,0.7 -3.58,0.38 -4.93,-0.97 -1.32,-1.32 -1.63,-2.93 -0.95,-4.84 0.68,-1.91 2.32,-4.19 4.91,-6.83 l 5.42,-5.42 c 2.78,-2.78 5.18,-4.54 7.21,-5.29 2.03,-0.76 3.71,-0.48 5.02,0.84 1.3,1.3 1.6,2.92 0.9,4.85 -0.7,1.92 -2.38,4.25 -5.06,6.98 l -5.44,5.44 z m 39.6,7.99 -14.72,-14.72 -2.41,2.4 -2.44,17.46 c -0.4,2.66 -0.87,4.7 -1.41,6.13 -0.54,1.42 -1.36,2.68 -2.46,3.78 -1.4,1.39 -2.86,2.2 -4.38,2.42 -1.52,0.22 -2.81,-0.21 -3.87,-1.27 -1.34,-1.33 -1.91,-2.83 -1.72,-4.48 0.2,-1.65 1.16,-3.35 2.9,-5.08 l -3.2,-3.2 c -2.43,2.42 -3.72,5.04 -3.89,7.86 -0.17,2.82 0.89,5.37 3.16,7.65 2.1,2.1 4.4,3.11 6.89,3.03 2.49,-0.08 4.8,-1.18 6.93,-3.32 2.61,-2.6 4.33,-7.04 5.17,-13.31 l 1.81,-13.53 10.91,10.91 2.73,-2.73 z m 5.65,23.33 2.93,2.93 2.73,-2.73 -2.93,-2.93 6.11,-6.11 -3.2,-3.2 -6.11,6.11 -9.95,-9.95 -1.97,1.98 -8.47,28.03 3.37,3.36 17.49,-17.49 z m -9.61,-9.6 6.4,6.4 -12.51,12.52 6.11,-18.92 z"/>
      </g>
    </g>
    <g id="g252">
      <g clip-path="url(#clipPath256)" id="g254">
        <path id="path260" style="fill:#000000;fill-opacity:1;fill-rule:nonzero;stroke:none" d="m 1403.84,1657.72 c 0.35,-2.9 -0.33,-5.21 -2.04,-6.92 -1.92,-1.92 -4.25,-2.64 -7,-2.16 -2.75,0.49 -5.44,2.04 -8.05,4.65 -2.75,2.75 -4.34,5.57 -4.77,8.47 -0.43,2.9 0.43,5.42 2.56,7.56 2.22,2.21 4.92,2.99 8.09,2.31 3.17,-0.67 6.45,-2.71 9.85,-6.11 l 1,-1 c 2.92,-2.92 5.06,-5.5 6.43,-7.75 1.37,-2.25 2.18,-4.35 2.43,-6.32 0.25,-1.96 0,-3.9 -0.75,-5.79 -0.76,-1.9 -2.13,-3.85 -4.12,-5.84 l -2.84,2.84 0.57,0.56 c 2.21,2.32 3.25,4.73 3.09,7.23 -0.15,2.51 -1.64,5.26 -4.45,8.27 z m -4.27,-3.61 c 0.77,0.77 1.2,1.84 1.29,3.22 0.09,1.38 -0.18,2.8 -0.82,4.26 l -1.41,1.41 c -2.18,2.19 -4.34,3.59 -6.48,4.21 -2.14,0.62 -3.75,0.39 -4.82,-0.68 -1.16,-1.16 -1.51,-2.65 -1.05,-4.47 0.46,-1.82 1.6,-3.64 3.42,-5.46 1.82,-1.82 3.63,-2.97 5.45,-3.46 1.81,-0.49 3.29,-0.17 4.42,0.97 z m 25.51,-2.17 -2.72,-2.71 -19.35,37.83 2.7,2.7 19.37,-37.82 z m 20.35,24.88 -3.22,-3.22 -22.29,22.3 -3.06,-8.01 -3.04,3.04 4.65,11.84 0.51,0.51 26.45,-26.46 z m 10.99,6.46 -2.72,-2.71 -19.35,37.83 2.7,2.7 19.37,-37.82 z m 25.54,30.07 -14.72,-14.72 -2.4,2.4 -2.44,17.46 c -0.4,2.66 -0.87,4.7 -1.41,6.13 -0.55,1.42 -1.37,2.68 -2.46,3.78 -1.4,1.4 -2.86,2.2 -4.38,2.42 -1.52,0.22 -2.81,-0.2 -3.87,-1.27 -1.34,-1.33 -1.91,-2.83 -1.72,-4.48 0.19,-1.65 1.16,-3.35 2.89,-5.08 l -3.2,-3.2 c -2.42,2.42 -3.72,5.04 -3.88,7.86 -0.17,2.83 0.88,5.38 3.16,7.65 2.1,2.1 4.39,3.11 6.88,3.03 2.49,-0.08 4.8,-1.18 6.94,-3.32 2.6,-2.6 4.33,-7.04 5.17,-13.31 l 1.81,-13.52 10.9,10.9 2.73,-2.73 z m 5.22,27.68 c 3.88,-3.89 6.22,-7.36 7.01,-10.41 0.79,-3.06 -0.03,-5.8 -2.45,-8.22 -2.36,-2.35 -5.03,-3.19 -8.03,-2.5 -3.01,0.69 -6.38,2.86 -10.13,6.51 l -4.52,4.52 c -3.85,3.85 -6.15,7.29 -6.9,10.32 -0.76,3.03 0.07,5.76 2.48,8.17 2.38,2.37 5.03,3.23 7.97,2.57 2.94,-0.65 6.25,-2.77 9.96,-6.35 l 4.61,-4.61 z m -7.78,1.37 c -2.78,2.78 -5.14,4.53 -7.08,5.24 -1.93,0.7 -3.58,0.38 -4.93,-0.97 -1.31,-1.32 -1.63,-2.93 -0.95,-4.84 0.68,-1.91 2.32,-4.19 4.91,-6.83 l 5.43,-5.42 c 2.77,-2.78 5.17,-4.54 7.21,-5.29 2.03,-0.76 3.7,-0.48 5.01,0.84 1.31,1.3 1.61,2.92 0.91,4.85 -0.7,1.92 -2.39,4.25 -5.07,6.98 l -5.44,5.44 z m 39.6,7.99 -14.72,-14.72 -2.4,2.4 -2.44,17.46 c -0.4,2.66 -0.87,4.7 -1.42,6.13 -0.54,1.42 -1.36,2.68 -2.45,3.78 -1.4,1.39 -2.86,2.2 -4.38,2.42 -1.52,0.22 -2.81,-0.21 -3.87,-1.27 -1.34,-1.33 -1.91,-2.83 -1.72,-4.48 0.19,-1.65 1.16,-3.35 2.89,-5.08 l -3.2,-3.2 c -2.42,2.42 -3.72,5.04 -3.89,7.86 -0.16,2.82 0.89,5.37 3.17,7.65 2.1,2.1 4.39,3.11 6.88,3.03 2.49,-0.08 4.8,-1.18 6.94,-3.32 2.6,-2.6 4.32,-7.04 5.17,-13.31 l 1.81,-13.53 10.9,10.91 2.73,-2.73 z m 5.65,23.33 2.93,2.93 2.73,-2.73 -2.93,-2.93 6.11,-6.11 -3.2,-3.2 -6.11,6.11 -9.95,-9.95 -1.97,1.98 -8.46,28.03 3.36,3.36 17.49,-17.49 z m -9.6,-9.6 6.4,6.4 -12.52,12.52 6.12,-18.92 z"/>
      </g>
    </g>
    <g id="g262">
      <g clip-path="url(#clipPath266)" id="g264">
        <path id="path270" style="fill:#000000;fill-opacity:1;fill-rule:nonzero;stroke:none" d="m 1503.28,1627.54 -3.22,-3.22 -22.3,22.3 -3.06,-8.01 -3.04,3.03 4.65,11.85 0.51,0.51 26.46,-26.46 z m 10.4,32.86 c 3.88,-3.88 6.22,-7.35 7.01,-10.41 0.79,-3.05 -0.03,-5.79 -2.45,-8.22 -2.35,-2.35 -5.03,-3.18 -8.03,-2.49 -3,0.69 -6.38,2.86 -10.13,6.51 l -4.52,4.52 c -3.85,3.85 -6.15,7.29 -6.9,10.32 -0.75,3.03 0.07,5.75 2.49,8.16 2.37,2.38 5.03,3.24 7.96,2.58 2.94,-0.66 6.26,-2.77 9.96,-6.36 l 4.61,-4.61 z m -7.78,1.38 c -2.78,2.78 -5.14,4.53 -7.08,5.23 -1.93,0.71 -3.58,0.39 -4.93,-0.96 -1.31,-1.32 -1.63,-2.93 -0.95,-4.84 0.69,-1.91 2.32,-4.19 4.92,-6.83 l 5.42,-5.43 c 2.77,-2.77 5.18,-4.53 7.21,-5.29 2.03,-0.75 3.7,-0.47 5.02,0.85 1.3,1.3 1.6,2.91 0.9,4.84 -0.7,1.93 -2.39,4.26 -5.06,6.98 l -5.45,5.45 z m 28.3,-7.84 -2.71,-2.71 -19.35,37.83 2.69,2.7 19.37,-37.82 z m 17.51,22.03 -3.22,-3.22 -22.3,22.3 -3.05,-8.01 -3.04,3.04 4.65,11.85 0.5,0.5 26.46,-26.46 z m 13.83,9.31 -2.71,-2.71 -19.35,37.83 2.69,2.7 19.37,-37.82 z m 22.7,27.22 -14.72,-14.72 -2.4,2.41 -2.45,17.45 c -0.39,2.66 -0.86,4.71 -1.41,6.13 -0.54,1.42 -1.36,2.68 -2.46,3.78 -1.39,1.4 -2.85,2.21 -4.37,2.42 -1.52,0.22 -2.81,-0.2 -3.87,-1.26 -1.34,-1.34 -1.91,-2.83 -1.72,-4.49 0.19,-1.65 1.16,-3.34 2.89,-5.08 l -3.2,-3.2 c -2.42,2.42 -3.72,5.05 -3.89,7.87 -0.17,2.82 0.89,5.37 3.17,7.65 2.1,2.1 4.39,3.1 6.88,3.03 2.49,-0.08 4.8,-1.19 6.94,-3.32 2.6,-2.61 4.32,-7.04 5.17,-13.31 l 1.81,-13.53 10.9,10.9 2.73,-2.73 z m 8.06,30.53 c 3.89,-3.88 6.22,-7.35 7.01,-10.41 0.79,-3.06 -0.02,-5.8 -2.45,-8.22 -2.35,-2.35 -5.03,-3.18 -8.03,-2.5 -3,0.69 -6.38,2.86 -10.13,6.51 l -4.52,4.53 c -3.84,3.84 -6.14,7.28 -6.9,10.31 -0.75,3.04 0.08,5.76 2.49,8.17 2.38,2.37 5.03,3.23 7.97,2.58 2.93,-0.66 6.25,-2.78 9.95,-6.36 l 4.61,-4.61 z m -7.77,1.37 c -2.79,2.79 -5.15,4.53 -7.08,5.24 -1.94,0.7 -3.58,0.38 -4.93,-0.97 -1.31,-1.31 -1.63,-2.93 -0.95,-4.84 0.68,-1.91 2.32,-4.18 4.91,-6.82 l 5.43,-5.43 c 2.77,-2.77 5.17,-4.54 7.2,-5.29 2.03,-0.75 3.71,-0.47 5.02,0.84 1.3,1.3 1.6,2.92 0.91,4.85 -0.7,1.93 -2.39,4.25 -5.07,6.98 l -5.44,5.44 z m 36.75,5.14 -14.72,-14.72 -2.41,2.41 -2.44,17.45 c -0.39,2.66 -0.86,4.71 -1.41,6.13 -0.54,1.42 -1.36,2.68 -2.46,3.78 -1.4,1.4 -2.85,2.21 -4.37,2.42 -1.52,0.22 -2.81,-0.2 -3.87,-1.26 -1.34,-1.34 -1.91,-2.84 -1.72,-4.49 0.19,-1.65 1.16,-3.34 2.89,-5.08 l -3.2,-3.2 c -2.42,2.42 -3.72,5.04 -3.89,7.87 -0.17,2.82 0.89,5.37 3.17,7.65 2.1,2.09 4.39,3.1 6.88,3.03 2.49,-0.08 4.8,-1.19 6.93,-3.32 2.61,-2.61 4.33,-7.04 5.18,-13.31 l 1.81,-13.53 10.9,10.9 2.73,-2.73 z m 5.65,23.34 2.93,2.93 2.73,-2.73 -2.93,-2.93 6.11,-6.12 -3.2,-3.2 -6.11,6.11 -9.95,-9.94 -1.97,1.97 -8.46,28.03 3.36,3.37 17.49,-17.49 z m -9.6,-9.61 6.4,6.41 -12.52,12.51 6.12,-18.92 z"/>
      </g>
    </g>
    <g id="g272">
      <g clip-path="url(#clipPath276)" id="g274">
        <path id="path280" style="fill:#000000;fill-opacity:1;fill-rule:nonzero;stroke:none" d="m 1610.4,1627.54 -3.22,-3.22 -22.3,22.3 -3.05,-8.01 -3.04,3.03 4.65,11.85 0.5,0.51 26.46,-26.46 z m 17.1,17.09 -3.22,-3.22 -22.3,22.3 -3.06,-8.01 -3.04,3.04 4.65,11.84 0.51,0.51 26.46,-26.46 z m 13.83,9.31 -2.72,-2.71 -19.35,37.83 2.7,2.7 19.37,-37.82 z m 17.51,22.03 -3.22,-3.22 -22.3,22.3 -3.06,-8.01 -3.04,3.04 4.65,11.85 0.51,0.5 26.46,-26.46 z m 13.83,9.31 -2.71,-2.71 -19.36,37.83 2.7,2.7 19.37,-37.82 z m 22.7,27.22 -14.72,-14.72 -2.41,2.41 -2.44,17.45 c -0.4,2.66 -0.87,4.71 -1.41,6.13 -0.54,1.42 -1.36,2.68 -2.46,3.78 -1.4,1.4 -2.86,2.21 -4.38,2.42 -1.52,0.22 -2.81,-0.2 -3.87,-1.26 -1.34,-1.34 -1.91,-2.83 -1.72,-4.49 0.2,-1.65 1.16,-3.34 2.9,-5.08 l -3.2,-3.2 c -2.43,2.42 -3.72,5.05 -3.89,7.87 -0.17,2.82 0.88,5.37 3.16,7.65 2.1,2.1 4.39,3.1 6.88,3.03 2.49,-0.08 4.81,-1.19 6.94,-3.32 2.6,-2.61 4.33,-7.04 5.17,-13.31 l 1.81,-13.53 10.91,10.9 2.73,-2.73 z m 8.06,30.53 c 3.88,-3.88 6.22,-7.35 7.01,-10.41 0.79,-3.06 -0.03,-5.8 -2.45,-8.22 -2.35,-2.35 -5.03,-3.18 -8.03,-2.5 -3,0.69 -6.38,2.86 -10.13,6.51 l -4.52,4.53 c -3.85,3.84 -6.15,7.28 -6.9,10.31 -0.75,3.04 0.07,5.76 2.49,8.17 2.37,2.37 5.03,3.23 7.96,2.58 2.94,-0.66 6.26,-2.78 9.96,-6.36 l 4.61,-4.61 z m -7.78,1.37 c -2.78,2.79 -5.14,4.53 -7.08,5.24 -1.93,0.7 -3.58,0.38 -4.93,-0.97 -1.31,-1.31 -1.63,-2.93 -0.95,-4.84 0.69,-1.91 2.32,-4.18 4.91,-6.82 l 5.43,-5.43 c 2.77,-2.77 5.18,-4.54 7.21,-5.29 2.03,-0.75 3.7,-0.47 5.02,0.84 1.3,1.3 1.6,2.92 0.9,4.85 -0.7,1.93 -2.39,4.25 -5.06,6.98 l -5.45,5.44 z m 36.76,5.14 -14.72,-14.72 -2.41,2.41 -2.44,17.45 c -0.4,2.66 -0.87,4.71 -1.41,6.13 -0.54,1.42 -1.36,2.68 -2.46,3.78 -1.4,1.4 -2.86,2.21 -4.38,2.42 -1.52,0.22 -2.81,-0.2 -3.87,-1.26 -1.34,-1.34 -1.91,-2.84 -1.72,-4.49 0.2,-1.65 1.16,-3.34 2.9,-5.08 l -3.2,-3.2 c -2.43,2.42 -3.72,5.04 -3.89,7.87 -0.17,2.82 0.88,5.37 3.16,7.65 2.1,2.09 4.39,3.1 6.88,3.03 2.49,-0.08 4.81,-1.19 6.94,-3.32 2.6,-2.61 4.33,-7.04 5.17,-13.31 l 1.81,-13.53 10.91,10.9 2.73,-2.73 z m 5.64,23.34 2.93,2.93 2.73,-2.73 -2.93,-2.93 6.12,-6.12 -3.2,-3.2 -6.12,6.11 -9.94,-9.94 -1.97,1.97 -8.47,28.03 3.36,3.37 17.49,-17.49 z m -9.6,-9.61 6.4,6.41 -12.51,12.51 6.11,-18.92 z"/>
      </g>
    </g>
    <g id="g282">
      <g clip-path="url(#clipPath286)" id="g284">
        <path id="path290" style="fill:#000000;fill-opacity:1;fill-rule:nonzero;stroke:none" d="m 1717.53,1627.54 -3.22,-3.22 -22.3,22.3 -3.06,-8.01 -3.04,3.03 4.65,11.85 0.51,0.51 26.46,-26.46 z m 22.28,22.28 -14.72,-14.72 -2.41,2.41 -2.44,17.45 c -0.39,2.66 -0.86,4.71 -1.41,6.13 -0.54,1.42 -1.36,2.68 -2.46,3.78 -1.4,1.4 -2.85,2.21 -4.37,2.42 -1.52,0.22 -2.81,-0.2 -3.87,-1.26 -1.34,-1.34 -1.91,-2.84 -1.72,-4.49 0.19,-1.65 1.16,-3.34 2.89,-5.08 l -3.2,-3.2 c -2.42,2.42 -3.72,5.04 -3.89,7.87 -0.17,2.82 0.89,5.37 3.17,7.65 2.1,2.09 4.39,3.1 6.88,3.03 2.49,-0.08 4.8,-1.19 6.93,-3.32 2.61,-2.61 4.33,-7.04 5.18,-13.31 l 1.81,-13.53 10.9,10.9 2.73,-2.73 z m 8.64,4.12 -2.71,-2.71 -19.35,37.83 2.69,2.7 19.37,-37.82 z m 17.51,22.03 -3.22,-3.22 -22.3,22.3 -3.05,-8.01 -3.04,3.04 4.65,11.85 0.5,0.5 26.46,-26.46 z m 13.83,9.31 -2.71,-2.71 -19.35,37.83 2.69,2.7 19.37,-37.82 z m 22.7,27.22 -14.72,-14.72 -2.4,2.41 -2.45,17.45 c -0.39,2.66 -0.86,4.71 -1.41,6.13 -0.54,1.42 -1.36,2.68 -2.46,3.78 -1.39,1.4 -2.85,2.21 -4.37,2.42 -1.52,0.22 -2.81,-0.2 -3.87,-1.26 -1.34,-1.34 -1.91,-2.83 -1.72,-4.49 0.19,-1.65 1.16,-3.34 2.89,-5.08 l -3.2,-3.2 c -2.42,2.42 -3.72,5.05 -3.89,7.87 -0.17,2.82 0.89,5.37 3.17,7.65 2.1,2.1 4.39,3.1 6.88,3.03 2.49,-0.08 4.8,-1.19 6.94,-3.32 2.6,-2.61 4.32,-7.04 5.17,-13.31 l 1.81,-13.53 10.9,10.9 2.73,-2.73 z m 8.06,30.53 c 3.89,-3.88 6.22,-7.35 7.01,-10.41 0.79,-3.06 -0.02,-5.8 -2.45,-8.22 -2.35,-2.35 -5.03,-3.18 -8.03,-2.5 -3,0.69 -6.38,2.86 -10.13,6.51 l -4.52,4.53 c -3.84,3.84 -6.14,7.28 -6.9,10.31 -0.75,3.04 0.08,5.76 2.49,8.17 2.38,2.37 5.03,3.23 7.97,2.58 2.93,-0.66 6.25,-2.78 9.95,-6.36 l 4.61,-4.61 z m -7.77,1.37 c -2.79,2.79 -5.15,4.53 -7.08,5.24 -1.94,0.7 -3.58,0.38 -4.93,-0.97 -1.31,-1.31 -1.63,-2.93 -0.95,-4.84 0.68,-1.91 2.32,-4.18 4.91,-6.82 l 5.43,-5.43 c 2.77,-2.77 5.17,-4.54 7.2,-5.29 2.03,-0.75 3.71,-0.47 5.02,0.84 1.3,1.3 1.6,2.92 0.91,4.85 -0.7,1.93 -2.39,4.25 -5.07,6.98 l -5.44,5.44 z m 36.75,5.14 -14.72,-14.72 -2.41,2.41 -2.44,17.45 c -0.39,2.66 -0.86,4.71 -1.41,6.13 -0.54,1.42 -1.36,2.68 -2.46,3.78 -1.4,1.4 -2.85,2.21 -4.37,2.42 -1.52,0.22 -2.81,-0.2 -3.87,-1.26 -1.34,-1.34 -1.91,-2.84 -1.72,-4.49 0.19,-1.65 1.16,-3.34 2.89,-5.08 l -3.2,-3.2 c -2.42,2.42 -3.72,5.04 -3.89,7.87 -0.17,2.82 0.89,5.37 3.17,7.65 2.1,2.09 4.39,3.1 6.88,3.03 2.49,-0.08 4.8,-1.19 6.93,-3.32 2.61,-2.61 4.33,-7.04 5.18,-13.31 l 1.81,-13.53 10.9,10.9 2.73,-2.73 z m 5.65,23.34 2.93,2.93 2.73,-2.73 -2.93,-2.93 6.11,-6.12 -3.2,-3.2 -6.11,6.11 -9.95,-9.94 -1.97,1.97 -8.46,28.03 3.36,3.37 17.49,-17.49 z m -9.6,-9.61 6.4,6.41 -12.52,12.51 6.12,-18.92 z"/>
      </g>
    </g>
    <g id="g292">
      <g clip-path="url(#clipPath296)" id="g294">
        <path id="path300" style="fill:#000000;fill-opacity:1;fill-rule:nonzero;stroke:none" d="m 1842.59,1645.48 -3.22,-3.22 -22.3,22.3 -3.05,-8.01 -3.04,3.04 4.65,11.84 0.5,0.51 26.46,-26.46 z m 10.98,6.46 -2.71,-2.71 -19.35,37.83 2.7,2.7 19.36,-37.82 z m 20.36,24.88 -3.22,-3.22 -22.29,22.3 -3.06,-8.01 -3.04,3.04 4.65,11.84 0.5,0.51 26.46,-26.46 z m 10.99,6.46 -2.72,-2.71 -19.35,37.83 2.7,2.7 19.37,-37.82 z m 25.54,30.07 -14.72,-14.72 -2.4,2.4 -2.44,17.46 c -0.4,2.66 -0.87,4.7 -1.41,6.13 -0.55,1.42 -1.37,2.68 -2.46,3.78 -1.4,1.4 -2.86,2.2 -4.38,2.42 -1.52,0.22 -2.81,-0.2 -3.87,-1.27 -1.34,-1.33 -1.91,-2.83 -1.72,-4.48 0.19,-1.65 1.16,-3.35 2.89,-5.08 l -3.2,-3.2 c -2.42,2.42 -3.72,5.04 -3.89,7.86 -0.16,2.83 0.89,5.38 3.17,7.65 2.1,2.1 4.39,3.11 6.88,3.03 2.49,-0.08 4.8,-1.18 6.94,-3.32 2.6,-2.6 4.33,-7.04 5.17,-13.31 l 1.81,-13.52 10.9,10.9 2.73,-2.73 z m 5.22,27.68 c 3.88,-3.89 6.22,-7.36 7.01,-10.41 0.79,-3.06 -0.03,-5.8 -2.46,-8.22 -2.35,-2.35 -5.02,-3.19 -8.03,-2.5 -3,0.69 -6.37,2.86 -10.12,6.51 l -4.52,4.52 c -3.85,3.85 -6.15,7.29 -6.9,10.32 -0.76,3.03 0.07,5.76 2.48,8.17 2.38,2.37 5.03,3.23 7.97,2.57 2.94,-0.65 6.25,-2.77 9.96,-6.35 l 4.61,-4.61 z m -7.78,1.37 c -2.78,2.78 -5.14,4.53 -7.08,5.24 -1.93,0.7 -3.58,0.38 -4.93,-0.97 -1.31,-1.32 -1.63,-2.93 -0.95,-4.84 0.68,-1.91 2.32,-4.19 4.91,-6.83 l 5.43,-5.42 c 2.77,-2.78 5.17,-4.54 7.21,-5.29 2.03,-0.76 3.7,-0.48 5.01,0.84 1.31,1.3 1.61,2.92 0.91,4.85 -0.7,1.92 -2.39,4.25 -5.07,6.98 l -5.44,5.44 z m 39.6,7.99 -14.72,-14.72 -2.4,2.4 -2.45,17.46 c -0.39,2.66 -0.86,4.7 -1.41,6.13 -0.54,1.42 -1.36,2.68 -2.46,3.78 -1.39,1.39 -2.85,2.2 -4.37,2.42 -1.52,0.22 -2.81,-0.21 -3.87,-1.27 -1.34,-1.33 -1.91,-2.83 -1.72,-4.48 0.19,-1.65 1.16,-3.35 2.89,-5.08 l -3.2,-3.2 c -2.42,2.42 -3.72,5.04 -3.89,7.86 -0.16,2.82 0.89,5.37 3.17,7.65 2.1,2.1 4.39,3.11 6.88,3.03 2.49,-0.08 4.8,-1.18 6.94,-3.32 2.6,-2.6 4.32,-7.04 5.17,-13.31 l 1.81,-13.53 10.9,10.91 2.73,-2.73 z m -9.52,16.88 -11.99,14.27 11.44,11.44 3.1,-3.09 -8.76,-8.75 6.57,-7.8 c 0.32,1.85 1.11,3.4 2.37,4.65 2.05,2.05 4.45,2.87 7.21,2.44 2.76,-0.42 5.49,-1.97 8.18,-4.66 2.72,-2.73 4.23,-5.5 4.51,-8.33 0.28,-2.83 -0.68,-5.35 -2.9,-7.57 -1.98,-1.98 -4.23,-2.94 -6.77,-2.89 -2.53,0.04 -5.02,1.12 -7.48,3.22 l 3,3 c 1.69,-1.33 3.25,-2.03 4.7,-2.12 1.45,-0.08 2.72,0.42 3.82,1.52 1.24,1.24 1.67,2.75 1.29,4.53 -0.38,1.78 -1.49,3.59 -3.32,5.42 -1.72,1.72 -3.5,2.75 -5.34,3.08 -1.84,0.33 -3.4,-0.14 -4.68,-1.42 -1.06,-1.06 -1.63,-2.19 -1.72,-3.38 l 0,-1.7 -3.23,-1.86 z"/>
      </g>
    </g>
    <g id="g302">
      <g clip-path="url(#clipPath306)" id="g304">
        <path id="path310" style="fill:#000000;fill-opacity:1;fill-rule:nonzero;stroke:none" d="m 1954.91,1650.67 -14.72,-14.72 -2.41,2.4 -2.44,17.46 c -0.4,2.66 -0.87,4.7 -1.41,6.13 -0.54,1.42 -1.36,2.68 -2.46,3.78 -1.4,1.39 -2.86,2.2 -4.38,2.42 -1.52,0.22 -2.81,-0.21 -3.87,-1.27 -1.34,-1.33 -1.91,-2.83 -1.71,-4.48 0.19,-1.65 1.15,-3.35 2.89,-5.08 l -3.2,-3.2 c -2.43,2.42 -3.72,5.04 -3.89,7.86 -0.17,2.82 0.89,5.37 3.16,7.65 2.1,2.1 4.4,3.11 6.89,3.03 2.49,-0.08 4.8,-1.18 6.93,-3.32 2.61,-2.6 4.33,-7.04 5.17,-13.31 l 1.81,-13.53 10.91,10.91 2.73,-2.73 z m 5.79,1.27 -2.71,-2.71 -19.35,37.83 2.69,2.7 19.37,-37.82 z m 20.36,24.88 -3.22,-3.22 -22.3,22.3 -3.06,-8.01 -3.03,3.04 4.64,11.84 0.51,0.51 26.46,-26.46 z m 10.98,6.46 -2.71,-2.71 -19.35,37.83 2.69,2.7 19.37,-37.82 z m 25.55,30.07 -14.72,-14.72 -2.41,2.4 -2.44,17.46 c -0.4,2.66 -0.87,4.7 -1.41,6.13 -0.54,1.42 -1.36,2.68 -2.46,3.78 -1.4,1.4 -2.86,2.2 -4.38,2.42 -1.51,0.22 -2.8,-0.2 -3.87,-1.27 -1.33,-1.33 -1.91,-2.83 -1.71,-4.48 0.19,-1.65 1.15,-3.35 2.89,-5.08 l -3.2,-3.2 c -2.42,2.42 -3.72,5.04 -3.89,7.86 -0.17,2.83 0.89,5.38 3.17,7.65 2.09,2.1 4.39,3.11 6.88,3.03 2.49,-0.08 4.8,-1.18 6.93,-3.32 2.61,-2.6 4.33,-7.04 5.17,-13.31 l 1.81,-13.52 10.91,10.9 2.73,-2.73 z m 5.21,27.68 c 3.88,-3.89 6.22,-7.36 7.01,-10.41 0.79,-3.06 -0.03,-5.8 -2.45,-8.22 -2.35,-2.35 -5.03,-3.19 -8.03,-2.5 -3,0.69 -6.38,2.86 -10.13,6.51 l -4.52,4.52 c -3.85,3.85 -6.15,7.29 -6.9,10.32 -0.75,3.03 0.08,5.76 2.49,8.17 2.37,2.37 5.03,3.23 7.96,2.57 2.94,-0.65 6.26,-2.77 9.96,-6.35 l 4.61,-4.61 z m -7.77,1.37 c -2.79,2.78 -5.15,4.53 -7.08,5.24 -1.94,0.7 -3.58,0.38 -4.93,-0.97 -1.32,-1.32 -1.63,-2.93 -0.95,-4.84 0.68,-1.91 2.32,-4.19 4.91,-6.83 l 5.42,-5.42 c 2.78,-2.78 5.18,-4.54 7.21,-5.29 2.03,-0.76 3.7,-0.48 5.02,0.84 1.3,1.3 1.6,2.92 0.9,4.85 -0.7,1.92 -2.38,4.25 -5.06,6.98 l -5.44,5.44 z m 39.6,7.99 -14.72,-14.72 -2.41,2.4 -2.44,17.46 c -0.4,2.66 -0.87,4.7 -1.41,6.13 -0.54,1.42 -1.36,2.68 -2.46,3.78 -1.4,1.39 -2.86,2.2 -4.38,2.42 -1.52,0.22 -2.81,-0.21 -3.87,-1.27 -1.34,-1.33 -1.91,-2.83 -1.72,-4.48 0.2,-1.65 1.16,-3.35 2.9,-5.08 l -3.2,-3.2 c -2.43,2.42 -3.72,5.04 -3.89,7.86 -0.17,2.82 0.89,5.37 3.16,7.65 2.1,2.1 4.4,3.11 6.89,3.03 2.49,-0.08 4.8,-1.18 6.93,-3.32 2.61,-2.6 4.33,-7.04 5.17,-13.31 l 1.81,-13.53 10.91,10.91 2.73,-2.73 z m -9.53,16.88 -11.99,14.27 11.45,11.44 3.09,-3.09 -8.75,-8.75 6.56,-7.8 c 0.33,1.85 1.12,3.4 2.37,4.65 2.05,2.05 4.46,2.87 7.22,2.44 2.76,-0.42 5.48,-1.97 8.17,-4.66 2.73,-2.73 4.23,-5.5 4.52,-8.33 0.28,-2.83 -0.69,-5.35 -2.91,-7.57 -1.97,-1.98 -4.23,-2.94 -6.76,-2.89 -2.53,0.04 -5.03,1.12 -7.49,3.22 l 3,3 c 1.69,-1.33 3.26,-2.03 4.71,-2.12 1.44,-0.08 2.71,0.42 3.81,1.52 1.24,1.24 1.67,2.75 1.29,4.53 -0.37,1.78 -1.48,3.59 -3.31,5.42 -1.73,1.72 -3.51,2.75 -5.35,3.08 -1.84,0.33 -3.39,-0.14 -4.67,-1.42 -1.06,-1.06 -1.64,-2.19 -1.72,-3.38 l 0,-1.7 -3.24,-1.86 z"/>
      </g>
    </g>
    <g id="g312">
      <g clip-path="url(#clipPath316)" id="g314">
        <path id="path320" style="fill:#000000;fill-opacity:1;fill-rule:nonzero;stroke:none" d="m 2036.61,1654.83 2.04,2.04 c 1.31,1.32 1.92,2.73 1.83,4.25 -0.1,1.52 -0.85,2.98 -2.25,4.38 -3.08,3.09 -5.82,3.44 -8.21,1.05 -1.14,-1.15 -1.63,-2.46 -1.44,-3.94 0.18,-1.49 0.94,-2.9 2.29,-4.25 l -3.18,-3.19 c -2.11,2.11 -3.21,4.49 -3.29,7.15 -0.09,2.65 0.87,4.98 2.87,6.98 2.08,2.07 4.37,3.07 6.88,2.99 2.52,-0.08 4.96,-1.3 7.34,-3.68 1.22,-1.22 2.04,-2.67 2.46,-4.36 0.42,-1.69 0.37,-3.28 -0.15,-4.79 3.4,1.57 6.7,0.75 9.9,-2.44 2.35,-2.35 3.56,-4.88 3.65,-7.58 0.08,-2.7 -0.93,-5.11 -3.04,-7.22 -2.09,-2.08 -4.43,-3.11 -7.03,-3.07 -2.61,0.04 -5.03,1.17 -7.26,3.4 l 3.2,3.2 c 1.4,-1.4 2.85,-2.17 4.35,-2.32 1.51,-0.15 2.84,0.35 4.01,1.52 1.19,1.2 1.74,2.55 1.64,4.06 -0.11,1.52 -0.98,3.1 -2.63,4.75 -3.2,3.2 -6.31,3.28 -9.34,0.26 l -1.91,-1.92 -2.73,2.73 z m 31.21,-2.89 -2.71,-2.71 -19.35,37.83 2.7,2.7 19.36,-37.82 z m 20.36,24.88 -3.22,-3.22 -22.3,22.3 -3.05,-8.01 -3.04,3.04 4.65,11.84 0.5,0.51 26.46,-26.46 z m 10.99,6.46 -2.72,-2.71 -19.35,37.83 2.7,2.7 19.37,-37.82 z m 25.54,30.07 -14.72,-14.72 -2.4,2.4 -2.44,17.46 c -0.4,2.66 -0.87,4.7 -1.41,6.13 -0.55,1.42 -1.37,2.68 -2.46,3.78 -1.4,1.4 -2.86,2.2 -4.38,2.42 -1.52,0.22 -2.81,-0.2 -3.87,-1.27 -1.34,-1.33 -1.91,-2.83 -1.72,-4.48 0.19,-1.65 1.16,-3.35 2.89,-5.08 l -3.2,-3.2 c -2.42,2.42 -3.72,5.04 -3.89,7.86 -0.16,2.83 0.89,5.38 3.17,7.65 2.1,2.1 4.39,3.11 6.88,3.03 2.49,-0.08 4.8,-1.18 6.94,-3.32 2.6,-2.6 4.33,-7.04 5.17,-13.31 l 1.81,-13.52 10.9,10.9 2.73,-2.73 z m 5.22,27.68 c 3.88,-3.89 6.22,-7.36 7.01,-10.41 0.78,-3.06 -0.03,-5.8 -2.46,-8.22 -2.35,-2.35 -5.02,-3.19 -8.03,-2.5 -3,0.69 -6.37,2.86 -10.12,6.51 l -4.52,4.52 c -3.85,3.85 -6.15,7.29 -6.9,10.32 -0.76,3.03 0.07,5.76 2.48,8.17 2.38,2.37 5.03,3.23 7.97,2.57 2.94,-0.65 6.25,-2.77 9.96,-6.35 l 4.61,-4.61 z m -7.78,1.37 c -2.78,2.78 -5.14,4.53 -7.08,5.24 -1.94,0.7 -3.58,0.38 -4.93,-0.97 -1.31,-1.32 -1.63,-2.93 -0.95,-4.84 0.68,-1.91 2.32,-4.19 4.91,-6.83 l 5.43,-5.42 c 2.77,-2.78 5.17,-4.54 7.2,-5.29 2.04,-0.76 3.71,-0.48 5.02,0.84 1.31,1.3 1.61,2.92 0.91,4.85 -0.7,1.92 -2.39,4.25 -5.07,6.98 l -5.44,5.44 z m 39.6,7.99 -14.72,-14.72 -2.4,2.4 -2.45,17.46 c -0.39,2.66 -0.86,4.7 -1.41,6.13 -0.54,1.42 -1.36,2.68 -2.46,3.78 -1.39,1.39 -2.85,2.2 -4.37,2.42 -1.52,0.22 -2.81,-0.21 -3.87,-1.27 -1.34,-1.33 -1.91,-2.83 -1.72,-4.48 0.19,-1.65 1.16,-3.35 2.89,-5.08 l -3.2,-3.2 c -2.42,2.42 -3.72,5.04 -3.89,7.86 -0.17,2.82 0.89,5.37 3.17,7.65 2.1,2.1 4.39,3.11 6.88,3.03 2.49,-0.08 4.8,-1.18 6.94,-3.32 2.6,-2.6 4.32,-7.04 5.17,-13.31 l 1.81,-13.53 10.9,10.91 2.73,-2.73 z m -9.52,16.88 -11.99,14.27 11.44,11.44 3.1,-3.09 -8.76,-8.75 6.57,-7.8 c 0.32,1.85 1.11,3.4 2.37,4.65 2.05,2.05 4.45,2.87 7.21,2.44 2.76,-0.42 5.49,-1.97 8.18,-4.66 2.72,-2.73 4.23,-5.5 4.51,-8.33 0.28,-2.83 -0.68,-5.35 -2.9,-7.57 -1.98,-1.98 -4.23,-2.94 -6.77,-2.89 -2.53,0.04 -5.02,1.12 -7.48,3.22 l 3,3 c 1.69,-1.33 3.25,-2.03 4.7,-2.12 1.45,-0.08 2.72,0.42 3.82,1.52 1.24,1.24 1.67,2.75 1.29,4.53 -0.38,1.78 -1.49,3.59 -3.32,5.42 -1.72,1.72 -3.5,2.75 -5.34,3.08 -1.84,0.33 -3.4,-0.14 -4.68,-1.42 -1.06,-1.06 -1.63,-2.19 -1.72,-3.38 l 0,-1.7 -3.23,-1.86 z"/>
      </g>
    </g>
    <g id="g322">
      <g clip-path="url(#clipPath326)" id="g324">
        <path id="path330" style="fill:#000000;fill-opacity:1;fill-rule:nonzero;stroke:none" d="m 2157.71,1656.91 2.93,2.93 2.73,-2.73 -2.93,-2.93 6.11,-6.12 -3.2,-3.2 -6.11,6.12 -9.95,-9.95 -1.97,1.97 -8.46,28.03 3.36,3.37 17.49,-17.49 z m -9.6,-9.6 6.4,6.4 -12.52,12.51 6.12,-18.91 z m 26.84,4.63 -2.71,-2.71 -19.35,37.83 2.69,2.7 19.37,-37.82 z m 20.36,24.88 -3.22,-3.22 -22.3,22.3 -3.06,-8.01 -3.04,3.04 4.65,11.84 0.51,0.51 26.46,-26.46 z m 10.98,6.46 -2.71,-2.71 -19.35,37.83 2.69,2.7 19.37,-37.82 z m 25.55,30.07 -14.72,-14.72 -2.41,2.4 -2.44,17.46 c -0.4,2.66 -0.87,4.7 -1.41,6.13 -0.54,1.42 -1.36,2.68 -2.46,3.78 -1.4,1.4 -2.86,2.2 -4.38,2.42 -1.52,0.22 -2.81,-0.2 -3.87,-1.27 -1.33,-1.33 -1.91,-2.83 -1.71,-4.48 0.19,-1.65 1.15,-3.35 2.89,-5.08 l -3.2,-3.2 c -2.43,2.42 -3.72,5.04 -3.89,7.86 -0.17,2.83 0.89,5.38 3.16,7.65 2.1,2.1 4.4,3.11 6.89,3.03 2.49,-0.08 4.8,-1.18 6.93,-3.32 2.61,-2.6 4.33,-7.04 5.17,-13.31 l 1.81,-13.52 10.91,10.9 2.73,-2.73 z m 5.21,27.68 c 3.88,-3.89 6.22,-7.36 7.01,-10.41 0.79,-3.06 -0.03,-5.8 -2.45,-8.22 -2.35,-2.35 -5.03,-3.19 -8.03,-2.5 -3,0.69 -6.38,2.86 -10.13,6.51 l -4.52,4.52 c -3.85,3.85 -6.15,7.29 -6.9,10.32 -0.75,3.03 0.08,5.76 2.49,8.17 2.37,2.37 5.03,3.23 7.96,2.57 2.94,-0.65 6.26,-2.77 9.96,-6.35 l 4.61,-4.61 z m -7.77,1.37 c -2.79,2.78 -5.15,4.53 -7.09,5.24 -1.93,0.7 -3.57,0.38 -4.92,-0.97 -1.32,-1.32 -1.63,-2.93 -0.95,-4.84 0.68,-1.91 2.31,-4.19 4.91,-6.83 l 5.42,-5.42 c 2.78,-2.78 5.18,-4.54 7.21,-5.29 2.03,-0.76 3.7,-0.48 5.02,0.84 1.3,1.3 1.6,2.92 0.9,4.85 -0.7,1.92 -2.38,4.25 -5.06,6.98 l -5.44,5.44 z m 39.6,7.99 -14.72,-14.72 -2.41,2.4 -2.44,17.46 c -0.4,2.66 -0.87,4.7 -1.41,6.13 -0.54,1.42 -1.36,2.68 -2.46,3.78 -1.4,1.39 -2.86,2.2 -4.38,2.42 -1.52,0.22 -2.81,-0.21 -3.87,-1.27 -1.34,-1.33 -1.91,-2.83 -1.72,-4.48 0.2,-1.65 1.16,-3.35 2.9,-5.08 l -3.2,-3.2 c -2.43,2.42 -3.72,5.04 -3.89,7.86 -0.17,2.82 0.88,5.37 3.16,7.65 2.1,2.1 4.4,3.11 6.88,3.03 2.49,-0.08 4.81,-1.18 6.94,-3.32 2.6,-2.6 4.33,-7.04 5.17,-13.31 l 1.81,-13.53 10.91,10.91 2.73,-2.73 z m -9.53,16.88 -11.99,14.27 11.45,11.44 3.09,-3.09 -8.75,-8.75 6.56,-7.8 c 0.33,1.85 1.12,3.4 2.37,4.65 2.05,2.05 4.46,2.87 7.22,2.44 2.76,-0.42 5.48,-1.97 8.17,-4.66 2.73,-2.73 4.23,-5.5 4.51,-8.33 0.29,-2.83 -0.68,-5.35 -2.9,-7.57 -1.98,-1.98 -4.23,-2.94 -6.76,-2.89 -2.53,0.04 -5.03,1.12 -7.49,3.22 l 3,3 c 1.69,-1.33 3.26,-2.03 4.71,-2.12 1.44,-0.08 2.71,0.42 3.81,1.52 1.24,1.24 1.67,2.75 1.29,4.53 -0.38,1.78 -1.48,3.59 -3.31,5.42 -1.73,1.72 -3.51,2.75 -5.35,3.08 -1.84,0.33 -3.4,-0.14 -4.67,-1.42 -1.06,-1.06 -1.64,-2.19 -1.72,-3.38 l 0,-1.7 -3.24,-1.86 z"/>
      </g>
    </g>
    <g id="g332">
      <g clip-path="url(#clipPath336)" id="g334">
        <path id="path340" style="fill:#000000;fill-opacity:1;fill-rule:nonzero;stroke:none" d="m 2249.66,1650.45 -11.99,14.27 11.45,11.45 3.09,-3.09 -8.75,-8.76 6.56,-7.79 c 0.33,1.84 1.12,3.39 2.37,4.65 2.05,2.05 4.46,2.86 7.22,2.44 2.76,-0.42 5.48,-1.98 8.17,-4.67 2.73,-2.72 4.23,-5.5 4.52,-8.33 0.28,-2.82 -0.69,-5.35 -2.91,-7.56 -1.97,-1.98 -4.23,-2.95 -6.76,-2.9 -2.53,0.05 -5.03,1.12 -7.49,3.22 l 3,3 c 1.69,-1.32 3.26,-2.03 4.71,-2.11 1.44,-0.09 2.71,0.42 3.81,1.52 1.24,1.24 1.67,2.75 1.29,4.53 -0.37,1.77 -1.48,3.58 -3.31,5.41 -1.73,1.73 -3.51,2.76 -5.35,3.09 -1.84,0.33 -3.4,-0.14 -4.67,-1.42 -1.06,-1.06 -1.64,-2.19 -1.72,-3.38 l 0,-1.71 -3.24,-1.86 z m 32.41,1.49 -2.71,-2.71 -19.35,37.83 2.7,2.7 19.36,-37.82 z m 20.36,24.88 -3.22,-3.22 -22.3,22.3 -3.05,-8.01 -3.04,3.04 4.65,11.84 0.5,0.51 26.46,-26.46 z m 10.99,6.46 -2.72,-2.71 -19.35,37.83 2.7,2.7 19.37,-37.82 z m 25.54,30.07 -14.72,-14.72 -2.4,2.4 -2.44,17.46 c -0.4,2.66 -0.87,4.7 -1.41,6.13 -0.55,1.42 -1.37,2.68 -2.46,3.78 -1.4,1.4 -2.86,2.2 -4.38,2.42 -1.52,0.22 -2.81,-0.2 -3.87,-1.27 -1.34,-1.33 -1.91,-2.83 -1.72,-4.48 0.19,-1.65 1.16,-3.35 2.89,-5.08 l -3.2,-3.2 c -2.42,2.42 -3.72,5.04 -3.89,7.86 -0.16,2.83 0.89,5.38 3.17,7.65 2.1,2.1 4.39,3.11 6.88,3.03 2.49,-0.08 4.8,-1.18 6.94,-3.32 2.6,-2.6 4.33,-7.04 5.17,-13.31 l 1.81,-13.52 10.9,10.9 2.73,-2.73 z m 5.22,27.68 c 3.88,-3.89 6.22,-7.36 7.01,-10.41 0.78,-3.06 -0.03,-5.8 -2.46,-8.22 -2.35,-2.35 -5.02,-3.19 -8.03,-2.5 -3,0.69 -6.37,2.86 -10.12,6.51 l -4.52,4.52 c -3.85,3.85 -6.15,7.29 -6.9,10.32 -0.76,3.03 0.07,5.76 2.48,8.17 2.38,2.37 5.03,3.23 7.97,2.57 2.94,-0.65 6.25,-2.77 9.96,-6.35 l 4.61,-4.61 z m -7.78,1.37 c -2.78,2.78 -5.14,4.53 -7.08,5.24 -1.94,0.7 -3.58,0.38 -4.93,-0.97 -1.31,-1.32 -1.63,-2.93 -0.95,-4.84 0.68,-1.91 2.32,-4.19 4.91,-6.83 l 5.43,-5.42 c 2.77,-2.78 5.17,-4.54 7.2,-5.29 2.04,-0.76 3.71,-0.48 5.02,0.84 1.31,1.3 1.61,2.92 0.91,4.85 -0.7,1.92 -2.39,4.25 -5.07,6.98 l -5.44,5.44 z m 39.6,7.99 -14.72,-14.72 -2.4,2.4 -2.45,17.46 c -0.39,2.66 -0.86,4.7 -1.41,6.13 -0.54,1.42 -1.36,2.68 -2.46,3.78 -1.39,1.39 -2.85,2.2 -4.37,2.42 -1.52,0.22 -2.81,-0.21 -3.87,-1.27 -1.34,-1.33 -1.91,-2.83 -1.72,-4.48 0.19,-1.65 1.16,-3.35 2.89,-5.08 l -3.2,-3.2 c -2.42,2.42 -3.72,5.04 -3.89,7.86 -0.17,2.82 0.89,5.37 3.17,7.65 2.1,2.1 4.39,3.11 6.88,3.03 2.49,-0.08 4.8,-1.18 6.94,-3.32 2.6,-2.6 4.32,-7.04 5.17,-13.31 l 1.81,-13.53 10.9,10.91 2.73,-2.73 z m -9.52,16.88 -11.99,14.27 11.44,11.44 3.1,-3.09 -8.76,-8.75 6.57,-7.8 c 0.32,1.85 1.11,3.4 2.37,4.65 2.05,2.05 4.45,2.87 7.21,2.44 2.76,-0.42 5.49,-1.97 8.18,-4.66 2.72,-2.73 4.23,-5.5 4.51,-8.33 0.28,-2.83 -0.68,-5.35 -2.9,-7.57 -1.98,-1.98 -4.23,-2.94 -6.77,-2.89 -2.53,0.04 -5.02,1.12 -7.48,3.22 l 3,3 c 1.69,-1.33 3.25,-2.03 4.7,-2.12 1.45,-0.08 2.72,0.42 3.82,1.52 1.24,1.24 1.67,2.75 1.29,4.53 -0.38,1.78 -1.49,3.59 -3.32,5.42 -1.72,1.72 -3.5,2.75 -5.34,3.08 -1.84,0.33 -3.4,-0.14 -4.68,-1.42 -1.06,-1.06 -1.63,-2.19 -1.72,-3.38 l 0,-1.7 -3.23,-1.86 z"/>
      </g>
    </g>
    <g id="g342">
      <g clip-path="url(#clipPath346)" id="g344">
        <path id="path350" style="fill:#000000;fill-opacity:1;fill-rule:nonzero;stroke:none" d="m 2353.48,1673.44 2.84,-2.84 -0.53,-0.53 c -2.08,-2.18 -3.03,-4.57 -2.85,-7.17 0.19,-2.59 1.59,-5.38 4.21,-8.36 -0.3,2.64 0.46,4.87 2.28,6.69 1.94,1.94 4.28,2.68 7.01,2.23 2.74,-0.46 5.41,-1.99 8,-4.58 2.76,-2.76 4.31,-5.57 4.65,-8.44 0.35,-2.86 -0.54,-5.35 -2.66,-7.48 -2.14,-2.13 -4.8,-2.9 -8,-2.31 -3.19,0.59 -6.36,2.45 -9.49,5.59 l -1.29,1.28 c -3.61,3.62 -6.1,6.89 -7.46,9.82 -1.37,2.93 -1.81,5.68 -1.33,8.25 0.49,2.57 1.84,5 4.07,7.31 l 0.55,0.54 z m 8.19,-15.54 c -0.87,-0.86 -1.34,-2 -1.41,-3.4 -0.07,-1.4 0.24,-2.77 0.94,-4.12 l 1.32,-1.32 c 2.13,-2.13 4.25,-3.5 6.35,-4.09 2.1,-0.59 3.69,-0.34 4.79,0.76 1.19,1.2 1.58,2.68 1.15,4.46 -0.43,1.78 -1.55,3.57 -3.36,5.38 -1.78,1.78 -3.57,2.9 -5.38,3.36 -1.8,0.45 -3.27,0.11 -4.4,-1.03 z m 27.53,-5.96 -2.71,-2.71 -19.35,37.83 2.69,2.7 19.37,-37.82 z m 20.36,24.88 -3.22,-3.22 -22.3,22.3 -3.06,-8.01 -3.04,3.04 4.65,11.84 0.51,0.51 26.46,-26.46 z m 10.98,6.46 -2.71,-2.71 -19.35,37.83 2.69,2.7 19.37,-37.82 z m 25.55,30.07 -14.72,-14.72 -2.41,2.4 -2.44,17.46 c -0.4,2.66 -0.87,4.7 -1.41,6.13 -0.54,1.42 -1.36,2.68 -2.46,3.78 -1.4,1.4 -2.86,2.2 -4.38,2.42 -1.52,0.22 -2.81,-0.2 -3.87,-1.27 -1.33,-1.33 -1.91,-2.83 -1.71,-4.48 0.19,-1.65 1.15,-3.35 2.89,-5.08 l -3.2,-3.2 c -2.43,2.42 -3.72,5.04 -3.89,7.86 -0.17,2.83 0.89,5.38 3.16,7.65 2.1,2.1 4.4,3.11 6.89,3.03 2.49,-0.08 4.8,-1.18 6.93,-3.32 2.61,-2.6 4.33,-7.04 5.17,-13.31 l 1.81,-13.52 10.91,10.9 2.73,-2.73 z m 5.21,27.68 c 3.88,-3.89 6.22,-7.36 7.01,-10.41 0.79,-3.06 -0.03,-5.8 -2.45,-8.22 -2.35,-2.35 -5.03,-3.19 -8.03,-2.5 -3,0.69 -6.38,2.86 -10.13,6.51 l -4.52,4.52 c -3.85,3.85 -6.15,7.29 -6.9,10.32 -0.75,3.03 0.08,5.76 2.49,8.17 2.37,2.37 5.03,3.23 7.96,2.57 2.94,-0.65 6.26,-2.77 9.96,-6.35 l 4.61,-4.61 z m -7.77,1.37 c -2.79,2.78 -5.15,4.53 -7.09,5.24 -1.93,0.7 -3.57,0.38 -4.92,-0.97 -1.32,-1.32 -1.63,-2.93 -0.95,-4.84 0.68,-1.91 2.31,-4.19 4.91,-6.83 l 5.42,-5.42 c 2.78,-2.78 5.18,-4.54 7.21,-5.29 2.03,-0.76 3.7,-0.48 5.02,0.84 1.3,1.3 1.6,2.92 0.9,4.85 -0.7,1.92 -2.38,4.25 -5.06,6.98 l -5.44,5.44 z m 39.6,7.99 -14.72,-14.72 -2.41,2.4 -2.44,17.46 c -0.4,2.66 -0.87,4.7 -1.41,6.13 -0.54,1.42 -1.36,2.68 -2.46,3.78 -1.4,1.39 -2.86,2.2 -4.38,2.42 -1.52,0.22 -2.81,-0.21 -3.87,-1.27 -1.34,-1.33 -1.91,-2.83 -1.72,-4.48 0.2,-1.65 1.16,-3.35 2.9,-5.08 l -3.2,-3.2 c -2.43,2.42 -3.72,5.04 -3.89,7.86 -0.17,2.82 0.88,5.37 3.16,7.65 2.1,2.1 4.4,3.11 6.88,3.03 2.49,-0.08 4.81,-1.18 6.94,-3.32 2.6,-2.6 4.33,-7.04 5.17,-13.31 l 1.81,-13.53 10.91,10.91 2.73,-2.73 z m -9.53,16.88 -11.99,14.27 11.45,11.44 3.09,-3.09 -8.75,-8.75 6.56,-7.8 c 0.33,1.85 1.12,3.4 2.37,4.65 2.05,2.05 4.46,2.87 7.22,2.44 2.76,-0.42 5.48,-1.97 8.17,-4.66 2.73,-2.73 4.23,-5.5 4.51,-8.33 0.29,-2.83 -0.68,-5.35 -2.9,-7.57 -1.98,-1.98 -4.23,-2.94 -6.76,-2.89 -2.53,0.04 -5.03,1.12 -7.49,3.22 l 3,3 c 1.69,-1.33 3.26,-2.03 4.71,-2.12 1.44,-0.08 2.71,0.42 3.81,1.52 1.24,1.24 1.67,2.75 1.29,4.53 -0.38,1.78 -1.48,3.59 -3.31,5.42 -1.73,1.72 -3.51,2.75 -5.35,3.08 -1.84,0.33 -3.4,-0.14 -4.67,-1.42 -1.06,-1.06 -1.64,-2.19 -1.72,-3.38 l 0,-1.7 -3.24,-1.86 z"/>
      </g>
    </g>
    <g id="g352">
      <g clip-path="url(#clipPath356)" id="g354">
        <path id="path360" style="fill:#000000;fill-opacity:1;fill-rule:nonzero;stroke:none" d="m 2465.88,1674.92 15.39,-33.51 -3.34,-3.35 -14.54,32.63 -11.74,-11.74 -2.75,2.75 15.1,15.1 1.88,-1.88 z m 30.44,-22.98 -2.71,-2.71 -19.35,37.83 2.7,2.7 19.36,-37.82 z m 20.36,24.88 -3.22,-3.22 -22.3,22.3 -3.05,-8.01 -3.04,3.04 4.65,11.84 0.5,0.51 26.46,-26.46 z m 10.99,6.46 -2.72,-2.71 -19.35,37.83 2.7,2.7 19.37,-37.82 z m 25.54,30.07 -14.72,-14.72 -2.4,2.4 -2.44,17.46 c -0.4,2.66 -0.87,4.7 -1.41,6.13 -0.55,1.42 -1.37,2.68 -2.46,3.78 -1.4,1.4 -2.86,2.2 -4.38,2.42 -1.52,0.22 -2.81,-0.2 -3.87,-1.27 -1.34,-1.33 -1.91,-2.83 -1.72,-4.48 0.19,-1.65 1.16,-3.35 2.89,-5.08 l -3.2,-3.2 c -2.42,2.42 -3.72,5.04 -3.89,7.86 -0.16,2.83 0.89,5.38 3.17,7.65 2.1,2.1 4.39,3.11 6.88,3.03 2.49,-0.08 4.8,-1.18 6.94,-3.32 2.6,-2.6 4.33,-7.04 5.17,-13.31 l 1.81,-13.52 10.9,10.9 2.73,-2.73 z m 5.22,27.68 c 3.88,-3.89 6.22,-7.36 7.01,-10.41 0.78,-3.06 -0.03,-5.8 -2.46,-8.22 -2.35,-2.35 -5.02,-3.19 -8.03,-2.5 -3,0.69 -6.37,2.86 -10.12,6.51 l -4.52,4.52 c -3.85,3.85 -6.15,7.29 -6.9,10.32 -0.76,3.03 0.07,5.76 2.48,8.17 2.38,2.37 5.03,3.23 7.97,2.57 2.94,-0.65 6.25,-2.77 9.96,-6.35 l 4.61,-4.61 z m -7.78,1.37 c -2.78,2.78 -5.14,4.53 -7.08,5.24 -1.94,0.7 -3.58,0.38 -4.93,-0.97 -1.31,-1.32 -1.63,-2.93 -0.95,-4.84 0.68,-1.91 2.32,-4.19 4.91,-6.83 l 5.43,-5.42 c 2.77,-2.78 5.17,-4.54 7.2,-5.29 2.04,-0.76 3.71,-0.48 5.02,0.84 1.31,1.3 1.61,2.92 0.91,4.85 -0.7,1.92 -2.39,4.25 -5.07,6.98 l -5.44,5.44 z m 39.6,7.99 -14.72,-14.72 -2.4,2.4 -2.45,17.46 c -0.39,2.66 -0.86,4.7 -1.41,6.13 -0.54,1.42 -1.36,2.68 -2.46,3.78 -1.39,1.39 -2.85,2.2 -4.37,2.42 -1.52,0.22 -2.81,-0.21 -3.87,-1.27 -1.34,-1.33 -1.91,-2.83 -1.72,-4.48 0.19,-1.65 1.16,-3.35 2.89,-5.08 l -3.2,-3.2 c -2.42,2.42 -3.72,5.04 -3.89,7.86 -0.17,2.82 0.89,5.37 3.17,7.65 2.1,2.1 4.39,3.11 6.88,3.03 2.49,-0.08 4.8,-1.18 6.94,-3.32 2.6,-2.6 4.32,-7.04 5.17,-13.31 l 1.81,-13.53 10.9,10.91 2.73,-2.73 z m -9.52,16.88 -11.99,14.27 11.44,11.44 3.1,-3.09 -8.76,-8.75 6.57,-7.8 c 0.32,1.85 1.11,3.4 2.37,4.65 2.05,2.05 4.45,2.87 7.21,2.44 2.76,-0.42 5.49,-1.97 8.18,-4.66 2.72,-2.73 4.23,-5.5 4.51,-8.33 0.28,-2.83 -0.68,-5.35 -2.9,-7.57 -1.98,-1.98 -4.23,-2.94 -6.77,-2.89 -2.53,0.04 -5.02,1.12 -7.48,3.22 l 3,3 c 1.69,-1.33 3.25,-2.03 4.7,-2.12 1.45,-0.08 2.72,0.42 3.82,1.52 1.24,1.24 1.67,2.75 1.29,4.53 -0.38,1.78 -1.49,3.59 -3.32,5.42 -1.72,1.72 -3.5,2.75 -5.34,3.08 -1.84,0.33 -3.4,-0.14 -4.68,-1.42 -1.06,-1.06 -1.63,-2.19 -1.72,-3.38 l 0,-1.7 -3.23,-1.86 z"/>
      </g>
    </g>
    <g id="g362">
      <g clip-path="url(#clipPath366)" id="g364">
        <path id="path370" style="fill:#000000;fill-opacity:1;fill-rule:nonzero;stroke:none" d="m 2577.02,1668.95 c 1.32,-1.31 2.19,-2.77 2.63,-4.38 0.44,-1.61 0.46,-3.2 0.05,-4.77 1.77,0.57 3.55,0.62 5.34,0.16 1.79,-0.47 3.41,-1.42 4.84,-2.85 2.27,-2.27 3.44,-4.72 3.51,-7.36 0.07,-2.64 -0.95,-5.02 -3.07,-7.15 -2.13,-2.12 -4.51,-3.14 -7.15,-3.07 -2.64,0.07 -5.09,1.24 -7.36,3.51 -1.45,1.44 -2.41,3.07 -2.89,4.86 -0.49,1.8 -0.45,3.55 0.11,5.27 -1.57,-0.41 -3.15,-0.39 -4.73,0.06 -1.59,0.45 -3.04,1.33 -4.35,2.65 -2.22,2.22 -3.38,4.58 -3.48,7.08 -0.11,2.5 0.82,4.73 2.79,6.7 1.95,1.95 4.17,2.88 6.66,2.79 2.49,-0.09 4.86,-1.25 7.1,-3.5 z m 9.59,-14.97 c -1.51,1.51 -3.07,2.36 -4.7,2.56 -1.62,0.2 -3.01,-0.28 -4.16,-1.44 -1.19,-1.18 -1.66,-2.57 -1.42,-4.17 0.23,-1.6 1.1,-3.14 2.59,-4.64 1.52,-1.52 3.04,-2.36 4.55,-2.54 1.51,-0.17 2.88,0.35 4.11,1.58 1.23,1.23 1.76,2.6 1.58,4.11 -0.18,1.51 -1.03,3.02 -2.55,4.54 z m -12.72,11.74 c -1.33,1.33 -2.74,2.11 -4.21,2.33 -1.47,0.22 -2.7,-0.16 -3.67,-1.14 -1.03,-1.02 -1.42,-2.25 -1.2,-3.69 0.23,-1.43 1.03,-2.83 2.39,-4.2 1.38,-1.37 2.77,-2.15 4.2,-2.35 1.42,-0.19 2.63,0.21 3.63,1.22 1.03,1.02 1.43,2.24 1.21,3.67 -0.21,1.42 -1,2.81 -2.35,4.16 z m 29.56,-13.78 -2.71,-2.71 -19.35,37.83 2.69,2.7 19.37,-37.82 z m 20.36,24.88 -3.22,-3.22 -22.3,22.3 -3.06,-8.01 -3.04,3.04 4.65,11.84 0.51,0.51 26.46,-26.46 z m 10.98,6.46 -2.71,-2.71 -19.35,37.83 2.69,2.7 19.37,-37.82 z m 25.55,30.07 -14.72,-14.72 -2.41,2.4 -2.44,17.46 c -0.4,2.66 -0.87,4.7 -1.41,6.13 -0.54,1.42 -1.36,2.68 -2.46,3.78 -1.4,1.4 -2.86,2.2 -4.38,2.42 -1.52,0.22 -2.81,-0.2 -3.87,-1.27 -1.34,-1.33 -1.91,-2.83 -1.71,-4.48 0.19,-1.65 1.15,-3.35 2.89,-5.08 l -3.2,-3.2 c -2.43,2.42 -3.72,5.04 -3.89,7.86 -0.17,2.83 0.89,5.38 3.16,7.65 2.1,2.1 4.4,3.11 6.89,3.03 2.49,-0.08 4.8,-1.18 6.93,-3.32 2.61,-2.6 4.33,-7.04 5.17,-13.31 l 1.81,-13.52 10.91,10.9 2.73,-2.73 z m 5.21,27.68 c 3.88,-3.89 6.22,-7.36 7.01,-10.41 0.79,-3.06 -0.03,-5.8 -2.45,-8.22 -2.35,-2.35 -5.03,-3.19 -8.03,-2.5 -3,0.69 -6.38,2.86 -10.13,6.51 l -4.52,4.52 c -3.85,3.85 -6.15,7.29 -6.9,10.32 -0.75,3.03 0.08,5.76 2.49,8.17 2.37,2.37 5.03,3.23 7.96,2.57 2.94,-0.65 6.26,-2.77 9.96,-6.35 l 4.61,-4.61 z m -7.78,1.37 c -2.78,2.78 -5.14,4.53 -7.08,5.24 -1.93,0.7 -3.57,0.38 -4.92,-0.97 -1.32,-1.32 -1.63,-2.93 -0.95,-4.84 0.68,-1.91 2.31,-4.19 4.91,-6.83 l 5.42,-5.42 c 2.78,-2.78 5.18,-4.54 7.21,-5.29 2.03,-0.76 3.7,-0.48 5.02,0.84 1.3,1.3 1.6,2.92 0.9,4.85 -0.7,1.92 -2.38,4.25 -5.06,6.98 l -5.45,5.44 z m 39.61,7.99 -14.72,-14.72 -2.41,2.4 -2.44,17.46 c -0.4,2.66 -0.87,4.7 -1.41,6.13 -0.54,1.42 -1.36,2.68 -2.46,3.78 -1.4,1.39 -2.86,2.2 -4.38,2.42 -1.52,0.22 -2.81,-0.21 -3.87,-1.27 -1.34,-1.33 -1.91,-2.83 -1.72,-4.48 0.2,-1.65 1.16,-3.35 2.9,-5.08 l -3.2,-3.2 c -2.43,2.42 -3.72,5.04 -3.89,7.86 -0.17,2.82 0.88,5.37 3.16,7.65 2.1,2.1 4.39,3.11 6.88,3.03 2.49,-0.08 4.81,-1.18 6.94,-3.32 2.6,-2.6 4.33,-7.04 5.17,-13.31 l 1.81,-13.53 10.91,10.91 2.73,-2.73 z m -9.53,16.88 -11.99,14.27 11.45,11.44 3.09,-3.09 -8.75,-8.75 6.56,-7.8 c 0.33,1.85 1.12,3.4 2.37,4.65 2.05,2.05 4.46,2.87 7.22,2.44 2.76,-0.42 5.48,-1.97 8.17,-4.66 2.73,-2.73 4.23,-5.5 4.51,-8.33 0.29,-2.83 -0.68,-5.35 -2.9,-7.57 -1.98,-1.98 -4.23,-2.94 -6.76,-2.89 -2.53,0.04 -5.03,1.12 -7.49,3.22 l 3,3 c 1.69,-1.33 3.26,-2.03 4.71,-2.12 1.44,-0.08 2.71,0.42 3.81,1.52 1.24,1.24 1.67,2.75 1.29,4.53 -0.38,1.78 -1.48,3.59 -3.31,5.42 -1.73,1.72 -3.51,2.75 -5.35,3.08 -1.84,0.33 -3.4,-0.14 -4.67,-1.42 -1.06,-1.06 -1.64,-2.19 -1.72,-3.38 l 0,-1.7 -3.24,-1.86 z"/>
      </g>
    </g>
    <g id="g372">
      <g clip-path="url(#clipPath376)" id="g374">
        <path id="path380" style="fill:#000000;fill-opacity:1;fill-rule:nonzero;stroke:none" d="m 2689.34,1657.72 c 0.35,-2.9 -0.33,-5.21 -2.05,-6.92 -1.91,-1.92 -4.25,-2.64 -6.99,-2.16 -2.75,0.49 -5.44,2.04 -8.05,4.65 -2.75,2.75 -4.34,5.57 -4.77,8.47 -0.43,2.9 0.43,5.42 2.56,7.56 2.22,2.21 4.91,2.99 8.09,2.31 3.17,-0.67 6.45,-2.71 9.85,-6.11 l 1,-1 c 2.91,-2.92 5.06,-5.5 6.43,-7.75 1.36,-2.25 2.17,-4.35 2.43,-6.32 0.25,-1.96 0,-3.9 -0.75,-5.79 -0.76,-1.9 -2.13,-3.85 -4.12,-5.84 l -2.84,2.84 0.56,0.56 c 2.22,2.32 3.26,4.73 3.1,7.23 -0.15,2.51 -1.64,5.26 -4.45,8.27 z m -4.27,-3.61 c 0.77,0.77 1.2,1.84 1.29,3.22 0.09,1.38 -0.18,2.8 -0.82,4.26 l -1.41,1.41 c -2.18,2.19 -4.34,3.59 -6.48,4.21 -2.14,0.62 -3.75,0.39 -4.82,-0.68 -1.16,-1.16 -1.51,-2.65 -1.05,-4.47 0.46,-1.82 1.59,-3.64 3.42,-5.46 1.82,-1.82 3.63,-2.97 5.45,-3.46 1.81,-0.49 3.29,-0.17 4.42,0.97 z m 25.5,-2.17 -2.71,-2.71 -19.35,37.83 2.69,2.7 19.37,-37.82 z m 20.36,24.88 -3.22,-3.22 -22.3,22.3 -3.05,-8.01 -3.04,3.04 4.65,11.84 0.5,0.51 26.46,-26.46 z m 10.98,6.46 -2.71,-2.71 -19.35,37.83 2.7,2.7 19.36,-37.82 z m 25.55,30.07 -14.72,-14.72 -2.4,2.4 -2.44,17.46 c -0.4,2.66 -0.87,4.7 -1.42,6.13 -0.54,1.42 -1.36,2.68 -2.45,3.78 -1.4,1.4 -2.86,2.2 -4.38,2.42 -1.52,0.22 -2.81,-0.2 -3.87,-1.27 -1.34,-1.33 -1.91,-2.83 -1.72,-4.48 0.19,-1.65 1.16,-3.35 2.89,-5.08 l -3.2,-3.2 c -2.42,2.42 -3.72,5.04 -3.89,7.86 -0.16,2.83 0.89,5.38 3.17,7.65 2.1,2.1 4.39,3.11 6.88,3.03 2.49,-0.08 4.8,-1.18 6.94,-3.32 2.6,-2.6 4.33,-7.04 5.17,-13.31 l 1.81,-13.52 10.9,10.9 2.73,-2.73 z m 5.22,27.68 c 3.88,-3.89 6.22,-7.36 7,-10.41 0.79,-3.06 -0.02,-5.8 -2.45,-8.22 -2.35,-2.35 -5.02,-3.19 -8.03,-2.5 -3,0.69 -6.37,2.86 -10.12,6.51 l -4.52,4.52 c -3.85,3.85 -6.15,7.29 -6.9,10.32 -0.76,3.03 0.07,5.76 2.48,8.17 2.38,2.37 5.03,3.23 7.97,2.57 2.93,-0.65 6.25,-2.77 9.96,-6.35 l 4.61,-4.61 z m -7.78,1.37 c -2.79,2.78 -5.15,4.53 -7.08,5.24 -1.94,0.7 -3.58,0.38 -4.93,-0.97 -1.31,-1.32 -1.63,-2.93 -0.95,-4.84 0.68,-1.91 2.32,-4.19 4.91,-6.83 l 5.43,-5.42 c 2.77,-2.78 5.17,-4.54 7.2,-5.29 2.04,-0.76 3.71,-0.48 5.02,0.84 1.31,1.3 1.61,2.92 0.91,4.85 -0.7,1.92 -2.39,4.25 -5.07,6.98 l -5.44,5.44 z m 39.6,7.99 -14.72,-14.72 -2.4,2.4 -2.45,17.46 c -0.39,2.66 -0.86,4.7 -1.41,6.13 -0.54,1.42 -1.36,2.68 -2.46,3.78 -1.39,1.39 -2.85,2.2 -4.37,2.42 -1.52,0.22 -2.81,-0.21 -3.87,-1.27 -1.34,-1.33 -1.91,-2.83 -1.72,-4.48 0.19,-1.65 1.16,-3.35 2.89,-5.08 l -3.2,-3.2 c -2.42,2.42 -3.72,5.04 -3.89,7.86 -0.17,2.82 0.89,5.37 3.17,7.65 2.1,2.1 4.39,3.11 6.88,3.03 2.49,-0.08 4.8,-1.18 6.94,-3.32 2.6,-2.6 4.32,-7.04 5.17,-13.31 l 1.81,-13.53 10.9,10.91 2.73,-2.73 z m -9.52,16.88 -11.99,14.27 11.44,11.44 3.1,-3.09 -8.76,-8.75 6.57,-7.8 c 0.32,1.85 1.11,3.4 2.37,4.65 2.05,2.05 4.45,2.87 7.21,2.44 2.76,-0.42 5.49,-1.97 8.18,-4.66 2.72,-2.73 4.23,-5.5 4.51,-8.33 0.28,-2.83 -0.68,-5.35 -2.9,-7.57 -1.98,-1.98 -4.23,-2.94 -6.77,-2.89 -2.53,0.04 -5.02,1.12 -7.48,3.22 l 3,3 c 1.69,-1.33 3.25,-2.03 4.7,-2.12 1.45,-0.08 2.72,0.42 3.82,1.52 1.24,1.24 1.67,2.75 1.29,4.53 -0.38,1.78 -1.49,3.59 -3.32,5.42 -1.72,1.72 -3.5,2.75 -5.34,3.08 -1.84,0.33 -3.4,-0.14 -4.68,-1.42 -1.06,-1.06 -1.63,-2.19 -1.72,-3.38 l 0,-1.7 -3.23,-1.86 z"/>
      </g>
    </g>
    <g id="g382">
      <g clip-path="url(#clipPath386)" id="g384">
        <path id="path390" style="fill:#000000;fill-opacity:1;fill-rule:nonzero;stroke:none" d="m 2788.78,1627.54 -3.22,-3.22 -22.3,22.3 -3.06,-8.01 -3.04,3.03 4.65,11.85 0.51,0.51 26.46,-26.46 z m 10.4,32.86 c 3.88,-3.88 6.22,-7.35 7.01,-10.41 0.79,-3.05 -0.03,-5.79 -2.45,-8.22 -2.35,-2.35 -5.03,-3.18 -8.03,-2.49 -3.01,0.69 -6.38,2.86 -10.13,6.51 l -4.52,4.52 c -3.85,3.85 -6.15,7.29 -6.9,10.32 -0.76,3.03 0.07,5.75 2.48,8.16 2.38,2.38 5.04,3.24 7.97,2.58 2.94,-0.66 6.26,-2.77 9.96,-6.36 l 4.61,-4.61 z m -7.78,1.38 c -2.78,2.78 -5.14,4.53 -7.08,5.23 -1.93,0.71 -3.58,0.39 -4.93,-0.96 -1.31,-1.32 -1.63,-2.93 -0.95,-4.84 0.69,-1.91 2.32,-4.19 4.91,-6.83 l 5.43,-5.43 c 2.77,-2.77 5.18,-4.53 7.21,-5.29 2.03,-0.75 3.7,-0.47 5.02,0.85 1.3,1.3 1.6,2.91 0.9,4.84 -0.7,1.93 -2.39,4.26 -5.06,6.98 l -5.45,5.45 z m 28.3,-7.84 -2.71,-2.71 -19.35,37.83 2.69,2.7 19.37,-37.82 z m 17.51,22.03 -3.22,-3.22 -22.3,22.3 -3.05,-8.01 -3.04,3.04 4.65,11.85 0.5,0.5 26.46,-26.46 z m 13.83,9.31 -2.71,-2.71 -19.35,37.83 2.69,2.7 19.37,-37.82 z m 22.7,27.22 -14.72,-14.72 -2.4,2.41 -2.45,17.45 c -0.39,2.66 -0.86,4.71 -1.41,6.13 -0.54,1.42 -1.36,2.68 -2.46,3.78 -1.4,1.4 -2.85,2.21 -4.37,2.42 -1.52,0.22 -2.81,-0.2 -3.87,-1.26 -1.34,-1.34 -1.91,-2.83 -1.72,-4.49 0.19,-1.65 1.16,-3.34 2.89,-5.08 l -3.2,-3.2 c -2.42,2.42 -3.72,5.05 -3.89,7.87 -0.17,2.82 0.89,5.37 3.17,7.65 2.1,2.1 4.39,3.1 6.88,3.03 2.49,-0.08 4.8,-1.19 6.93,-3.32 2.61,-2.61 4.33,-7.04 5.18,-13.31 l 1.81,-13.53 10.9,10.9 2.73,-2.73 z m 8.06,30.53 c 3.89,-3.88 6.22,-7.35 7.01,-10.41 0.79,-3.06 -0.02,-5.8 -2.45,-8.22 -2.35,-2.35 -5.03,-3.18 -8.03,-2.5 -3,0.69 -6.38,2.86 -10.13,6.51 l -4.52,4.53 c -3.84,3.84 -6.14,7.28 -6.9,10.31 -0.75,3.04 0.08,5.76 2.49,8.17 2.37,2.37 5.03,3.23 7.97,2.58 2.93,-0.66 6.25,-2.78 9.95,-6.36 l 4.61,-4.61 z m -7.77,1.37 c -2.79,2.79 -5.15,4.53 -7.08,5.24 -1.94,0.7 -3.58,0.38 -4.93,-0.97 -1.32,-1.31 -1.63,-2.93 -0.95,-4.84 0.68,-1.91 2.32,-4.18 4.91,-6.82 l 5.42,-5.43 c 2.78,-2.77 5.18,-4.54 7.21,-5.29 2.03,-0.75 3.71,-0.47 5.02,0.84 1.3,1.3 1.6,2.92 0.91,4.85 -0.7,1.93 -2.39,4.25 -5.07,6.98 l -5.44,5.44 z m 36.75,5.14 -14.72,-14.72 -2.41,2.41 -2.44,17.45 c -0.4,2.66 -0.87,4.71 -1.41,6.13 -0.54,1.42 -1.36,2.68 -2.46,3.78 -1.4,1.4 -2.86,2.21 -4.37,2.42 -1.52,0.22 -2.81,-0.2 -3.87,-1.26 -1.34,-1.34 -1.92,-2.84 -1.72,-4.49 0.19,-1.65 1.15,-3.34 2.89,-5.08 l -3.2,-3.2 c -2.42,2.42 -3.72,5.04 -3.89,7.87 -0.17,2.82 0.89,5.37 3.17,7.65 2.09,2.09 4.39,3.1 6.88,3.03 2.49,-0.08 4.8,-1.19 6.93,-3.32 2.61,-2.61 4.33,-7.04 5.18,-13.31 l 1.8,-13.53 10.91,10.9 2.73,-2.73 z m -9.53,16.88 -11.99,14.27 11.45,11.45 3.09,-3.09 -8.75,-8.76 6.57,-7.79 c 0.32,1.84 1.11,3.39 2.37,4.65 2.04,2.04 4.45,2.86 7.21,2.44 2.76,-0.43 5.49,-1.98 8.18,-4.67 2.72,-2.72 4.22,-5.5 4.51,-8.33 0.28,-2.83 -0.69,-5.35 -2.9,-7.57 -1.98,-1.97 -4.24,-2.94 -6.77,-2.89 -2.53,0.05 -5.03,1.12 -7.49,3.22 l 3.01,3 c 1.68,-1.33 3.25,-2.03 4.7,-2.11 1.45,-0.09 2.72,0.42 3.81,1.51 1.25,1.25 1.68,2.76 1.3,4.53 -0.38,1.78 -1.49,3.59 -3.32,5.42 -1.73,1.73 -3.51,2.75 -5.35,3.08 -1.83,0.34 -3.39,-0.14 -4.67,-1.41 -1.06,-1.07 -1.63,-2.19 -1.72,-3.39 l 0,-1.7 -3.24,-1.86 z"/>
      </g>
    </g>
    <g id="g392">
      <g clip-path="url(#clipPath396)" id="g394">
        <path id="path400" style="fill:#000000;fill-opacity:1;fill-rule:nonzero;stroke:none" d="m 2895.9,1627.54 -3.22,-3.22 -22.3,22.3 -3.05,-8.01 -3.04,3.03 4.64,11.85 0.51,0.51 26.46,-26.46 z m 17.1,17.09 -3.22,-3.22 -22.3,22.3 -3.06,-8.01 -3.04,3.04 4.65,11.84 0.51,0.51 26.46,-26.46 z m 13.83,9.31 -2.72,-2.71 -19.35,37.83 2.7,2.7 19.37,-37.82 z m 17.51,22.03 -3.22,-3.22 -22.3,22.3 -3.06,-8.01 -3.04,3.04 4.65,11.85 0.51,0.5 26.46,-26.46 z m 13.83,9.31 -2.72,-2.71 -19.35,37.83 2.7,2.7 19.37,-37.82 z m 22.7,27.22 -14.72,-14.72 -2.41,2.41 -2.44,17.45 c -0.4,2.66 -0.87,4.71 -1.41,6.13 -0.54,1.42 -1.36,2.68 -2.46,3.78 -1.4,1.4 -2.86,2.21 -4.38,2.42 -1.52,0.22 -2.81,-0.2 -3.87,-1.26 -1.34,-1.34 -1.91,-2.83 -1.72,-4.49 0.2,-1.65 1.16,-3.34 2.9,-5.08 l -3.2,-3.2 c -2.43,2.42 -3.72,5.05 -3.89,7.87 -0.17,2.82 0.88,5.37 3.16,7.65 2.1,2.1 4.39,3.1 6.88,3.03 2.49,-0.08 4.81,-1.19 6.94,-3.32 2.6,-2.61 4.33,-7.04 5.17,-13.31 l 1.81,-13.53 10.91,10.9 2.73,-2.73 z m 8.06,30.53 c 3.88,-3.88 6.22,-7.35 7.01,-10.41 0.79,-3.06 -0.03,-5.8 -2.45,-8.22 -2.35,-2.35 -5.03,-3.18 -8.03,-2.5 -3.01,0.69 -6.38,2.86 -10.13,6.51 l -4.52,4.53 c -3.85,3.84 -6.15,7.28 -6.9,10.31 -0.76,3.04 0.07,5.76 2.48,8.17 2.38,2.37 5.03,3.23 7.97,2.58 2.94,-0.66 6.26,-2.78 9.96,-6.36 l 4.61,-4.61 z m -7.78,1.37 c -2.78,2.79 -5.14,4.53 -7.08,5.24 -1.93,0.7 -3.58,0.38 -4.93,-0.97 -1.31,-1.31 -1.63,-2.93 -0.95,-4.84 0.68,-1.91 2.32,-4.18 4.91,-6.82 l 5.43,-5.43 c 2.77,-2.77 5.17,-4.54 7.21,-5.29 2.03,-0.75 3.7,-0.47 5.02,0.84 1.3,1.3 1.6,2.92 0.9,4.85 -0.7,1.93 -2.39,4.25 -5.06,6.98 l -5.45,5.44 z m 36.76,5.14 -14.73,-14.72 -2.4,2.41 -2.44,17.45 c -0.4,2.66 -0.87,4.71 -1.41,6.13 -0.55,1.42 -1.37,2.68 -2.46,3.78 -1.4,1.4 -2.86,2.21 -4.38,2.42 -1.52,0.22 -2.81,-0.2 -3.87,-1.26 -1.34,-1.34 -1.91,-2.84 -1.72,-4.49 0.19,-1.65 1.16,-3.34 2.9,-5.08 l -3.21,-3.2 c -2.42,2.42 -3.72,5.04 -3.88,7.87 -0.17,2.82 0.88,5.37 3.16,7.65 2.1,2.09 4.39,3.1 6.88,3.03 2.49,-0.08 4.8,-1.19 6.94,-3.32 2.6,-2.61 4.33,-7.04 5.17,-13.31 l 1.81,-13.53 10.9,10.9 2.74,-2.73 z m -9.53,16.88 -11.99,14.27 11.45,11.45 3.09,-3.09 -8.75,-8.76 6.56,-7.79 c 0.33,1.84 1.12,3.39 2.37,4.65 2.05,2.04 4.45,2.86 7.22,2.44 2.76,-0.43 5.48,-1.98 8.17,-4.67 2.73,-2.72 4.23,-5.5 4.51,-8.33 0.29,-2.83 -0.68,-5.35 -2.9,-7.57 -1.98,-1.97 -4.23,-2.94 -6.76,-2.89 -2.54,0.05 -5.03,1.12 -7.49,3.22 l 3,3 c 1.69,-1.33 3.26,-2.03 4.7,-2.11 1.45,-0.09 2.72,0.42 3.82,1.51 1.24,1.25 1.67,2.76 1.29,4.53 -0.38,1.78 -1.48,3.59 -3.32,5.42 -1.72,1.73 -3.5,2.75 -5.34,3.08 -1.84,0.34 -3.4,-0.14 -4.68,-1.41 -1.06,-1.07 -1.63,-2.19 -1.71,-3.39 l 0,-1.7 -3.24,-1.86 z"/>
      </g>
    </g>
    <g id="g402">
      <g clip-path="url(#clipPath406)" id="g404">
        <path id="path410" style="fill:#000000;fill-opacity:1;fill-rule:nonzero;stroke:none" d="m 3003.03,1627.54 -3.22,-3.22 -22.3,22.3 -3.06,-8.01 -3.04,3.03 4.65,11.85 0.51,0.51 26.46,-26.46 z m 22.28,22.28 -14.72,-14.72 -2.41,2.41 -2.44,17.45 c -0.4,2.66 -0.87,4.71 -1.41,6.13 -0.54,1.42 -1.36,2.68 -2.46,3.78 -1.4,1.4 -2.86,2.21 -4.37,2.42 -1.52,0.22 -2.81,-0.2 -3.87,-1.26 -1.34,-1.34 -1.92,-2.84 -1.72,-4.49 0.19,-1.65 1.15,-3.34 2.89,-5.08 l -3.2,-3.2 c -2.42,2.42 -3.72,5.04 -3.89,7.87 -0.17,2.82 0.89,5.37 3.17,7.65 2.09,2.09 4.39,3.1 6.88,3.03 2.49,-0.08 4.8,-1.19 6.93,-3.32 2.61,-2.61 4.33,-7.04 5.18,-13.31 l 1.8,-13.53 10.91,10.9 2.73,-2.73 z m 8.64,4.12 -2.71,-2.71 -19.35,37.83 2.69,2.7 19.37,-37.82 z m 17.51,22.03 -3.22,-3.22 -22.3,22.3 -3.05,-8.01 -3.04,3.04 4.65,11.85 0.5,0.5 26.46,-26.46 z m 13.83,9.31 -2.71,-2.71 -19.35,37.83 2.69,2.7 19.37,-37.82 z m 22.7,27.22 -14.72,-14.72 -2.4,2.41 -2.45,17.45 c -0.39,2.66 -0.86,4.71 -1.41,6.13 -0.54,1.42 -1.36,2.68 -2.46,3.78 -1.4,1.4 -2.85,2.21 -4.37,2.42 -1.52,0.22 -2.81,-0.2 -3.87,-1.26 -1.34,-1.34 -1.91,-2.83 -1.72,-4.49 0.19,-1.65 1.16,-3.34 2.89,-5.08 l -3.2,-3.2 c -2.42,2.42 -3.72,5.05 -3.89,7.87 -0.17,2.82 0.89,5.37 3.17,7.65 2.1,2.1 4.39,3.1 6.88,3.03 2.49,-0.08 4.8,-1.19 6.93,-3.32 2.61,-2.61 4.33,-7.04 5.18,-13.31 l 1.81,-13.53 10.9,10.9 2.73,-2.73 z m 8.06,30.53 c 3.89,-3.88 6.22,-7.35 7.01,-10.41 0.79,-3.06 -0.03,-5.8 -2.45,-8.22 -2.35,-2.35 -5.03,-3.18 -8.03,-2.5 -3,0.69 -6.38,2.86 -10.13,6.51 l -4.52,4.53 c -3.84,3.84 -6.14,7.28 -6.9,10.31 -0.75,3.04 0.08,5.76 2.49,8.17 2.37,2.37 5.03,3.23 7.97,2.58 2.93,-0.66 6.25,-2.78 9.95,-6.36 l 4.61,-4.61 z m -7.77,1.37 c -2.79,2.79 -5.15,4.53 -7.08,5.24 -1.94,0.7 -3.58,0.38 -4.93,-0.97 -1.32,-1.31 -1.63,-2.93 -0.95,-4.84 0.68,-1.91 2.32,-4.18 4.91,-6.82 l 5.42,-5.43 c 2.78,-2.77 5.18,-4.54 7.21,-5.29 2.03,-0.75 3.71,-0.47 5.02,0.84 1.3,1.3 1.6,2.92 0.9,4.85 -0.69,1.93 -2.38,4.25 -5.06,6.98 l -5.44,5.44 z m 36.75,5.14 -14.72,-14.72 -2.41,2.41 -2.44,17.45 c -0.4,2.66 -0.87,4.71 -1.41,6.13 -0.54,1.42 -1.36,2.68 -2.46,3.78 -1.4,1.4 -2.86,2.21 -4.37,2.42 -1.52,0.22 -2.81,-0.2 -3.87,-1.26 -1.34,-1.34 -1.92,-2.84 -1.72,-4.49 0.19,-1.65 1.15,-3.34 2.89,-5.08 l -3.2,-3.2 c -2.42,2.42 -3.72,5.04 -3.89,7.87 -0.17,2.82 0.89,5.37 3.17,7.65 2.09,2.09 4.39,3.1 6.88,3.03 2.49,-0.08 4.8,-1.19 6.93,-3.32 2.61,-2.61 4.33,-7.04 5.18,-13.31 l 1.8,-13.53 10.91,10.9 2.73,-2.73 z m -9.53,16.88 -11.99,14.27 11.45,11.45 3.09,-3.09 -8.75,-8.76 6.57,-7.79 c 0.32,1.84 1.11,3.39 2.36,4.65 2.05,2.04 4.46,2.86 7.22,2.44 2.76,-0.43 5.49,-1.98 8.18,-4.67 2.72,-2.72 4.22,-5.5 4.51,-8.33 0.28,-2.83 -0.69,-5.35 -2.9,-7.57 -1.98,-1.97 -4.24,-2.94 -6.77,-2.89 -2.53,0.05 -5.03,1.12 -7.49,3.22 l 3.01,3 c 1.68,-1.33 3.25,-2.03 4.7,-2.11 1.45,-0.09 2.72,0.42 3.81,1.51 1.25,1.25 1.68,2.76 1.3,4.53 -0.38,1.78 -1.49,3.59 -3.32,5.42 -1.73,1.73 -3.51,2.75 -5.35,3.08 -1.83,0.34 -3.39,-0.14 -4.67,-1.41 -1.06,-1.07 -1.63,-2.19 -1.72,-3.39 l 0,-1.7 -3.24,-1.86 z"/>
      </g>
    </g>
    <g id="g412">
      <g clip-path="url(#clipPath416)" id="g414"><text id="text420" style="font-variant:normal;font-weight:bold;font-size:60.4620018px;font-family:'Roboto Condensed';-inkscape-font-specification:RobotoCondensed-Bold;writing-mode:lr-tb;fill:#000000;fill-opacity:1;fill-rule:nonzero;stroke:none" transform="matrix(1,0,0,-1,1612.94,3102.62)"><tspan id="tspan422" y="0" x="0 36.095814 64.452492 92.688248 112.76163 144.98787 173.22363 213.49132 241.72708 257.80997 286.04572 314.28146 342.51724">App Downloads</tspan></text>
</g>
    </g>
    <path id="path424" style="fill:#ffffff;fill-opacity:1;fill-rule:evenodd;stroke:none" d="m 1155.87,2951.22 1288.62,0 0,95.28 -1288.62,0 0,-95.28 z"/>
    <path id="path426" style="fill:none;stroke:#005aa4;stroke-width:8.56219959;stroke-linecap:round;stroke-linejoin:round;stroke-miterlimit:10;stroke-dasharray:none;stroke-opacity:1" d="m 1227.55,2998.86 109.59,0"/>
    <g id="g428">
      <g clip-path="url(#clipPath432)" id="g430"><text id="text436" style="font-variant:normal;font-weight:normal;font-size:52.38100052px;font-family:'Roboto Condensed';-inkscape-font-specification:RobotoCondensed-Regular;writing-mode:lr-tb;fill:#000000;fill-opacity:1;fill-rule:nonzero;stroke:none" transform="matrix(1,0,0,-1,1348.97,2983.64)"><tspan id="tspan438" y="0" x="0 28.233358 56.414337 76.581024 88.576271 128.90964 140.90489 153.10966">Doximity</tspan></text>
</g>
    </g>
    <path id="path440" style="fill:none;stroke:#d0b86a;stroke-width:8.56219959;stroke-linecap:round;stroke-linejoin:round;stroke-miterlimit:10;stroke-dasharray:none;stroke-opacity:1" d="m 1594.64,2998.86 109.6,0"/>
    <g id="g442">
      <g clip-path="url(#clipPath446)" id="g444"><text id="text450" style="font-variant:normal;font-weight:normal;font-size:52.38100052px;font-family:'Roboto Condensed';-inkscape-font-specification:RobotoCondensed-Regular;writing-mode:lr-tb;fill:#000000;fill-opacity:1;fill-rule:nonzero;stroke:none" transform="matrix(1,0,0,-1,1716.15,2983.64)"><tspan id="tspan452" y="0" x="0 32.161934 56.309574 80.457214 104.60486 128.7525 152.84776 164.843 189.09541 213.24306 237.39069 261.59073">OpenEvidence</tspan></text>
</g>
    </g>
    <path id="path454" style="fill:none;stroke:#32a69f;stroke-width:8.56219959;stroke-linecap:round;stroke-linejoin:round;stroke-miterlimit:10;stroke-dasharray:none;stroke-opacity:1" d="m 2071.88,2998.86 109.6,0"/>
    <g id="g456">
      <g clip-path="url(#clipPath460)" id="g458"><text id="text464" style="font-variant:normal;font-weight:normal;font-size:52.38100052px;font-family:'Roboto Condensed';-inkscape-font-specification:RobotoCondensed-Regular;writing-mode:lr-tb;fill:#000000;fill-opacity:1;fill-rule:nonzero;stroke:none" transform="matrix(1,0,0,-1,2193.47,2983.64)"><tspan id="tspan466" y="0" x="0 28.233358 52.43338 80.614357 104.81438 137.0287 161.22871 177.30969">UpToDate</tspan></text>
</g>
    </g>
  </g>
</svg>
