<?xml version="1.0" encoding="UTF-8" standalone="no"?>
<svg xmlns:dc="http://purl.org/dc/elements/1.1/" xmlns:cc="http://creativecommons.org/ns#" xmlns:rdf="http://www.w3.org/1999/02/22-rdf-syntax-ns#" xmlns:svg="http://www.w3.org/2000/svg" xmlns="http://www.w3.org/2000/svg" viewBox="63.03875 149.0375 864 467" height="467" width="864" xml:space="preserve" version="1.1" id="svg2">
  <metadata id="metadata8">
    <rdf:RDF>
      <cc:Work rdf:about="">
        <dc:format>image/svg+xml</dc:format>
        <dc:type rdf:resource="http://purl.org/dc/dcmitype/StillImage"/>
      </cc:Work>
    </rdf:RDF>
  </metadata>
  <defs id="defs6">
    <clipPath id="clipPath16" clipPathUnits="userSpaceOnUse">
      <path style="clip-rule:evenodd" id="path18" d="m 50.4,119.16 691.2,0 0,373.68 -691.2,0 0,-373.68 z"/>
    </clipPath>
    <clipPath id="clipPath36" clipPathUnits="userSpaceOnUse">
      <path style="clip-rule:evenodd" id="path38" d="m 50.52,119.28 690.96,0 0,373.44 -690.96,0 0,-373.44 z"/>
    </clipPath>
    <clipPath id="clipPath48" clipPathUnits="userSpaceOnUse">
      <path style="clip-rule:evenodd" id="path50" d="m 50.52,119.28 690.96,0 0,373.44 -690.96,0 0,-373.44 z"/>
    </clipPath>
    <clipPath id="clipPath60" clipPathUnits="userSpaceOnUse">
      <path style="clip-rule:evenodd" id="path62" d="m 50.52,119.28 690.96,0 0,373.44 -690.96,0 0,-373.44 z"/>
    </clipPath>
    <clipPath id="clipPath72" clipPathUnits="userSpaceOnUse">
      <path style="clip-rule:evenodd" id="path74" d="m 50.52,119.28 690.96,0 0,373.44 -690.96,0 0,-373.44 z"/>
    </clipPath>
    <clipPath id="clipPath84" clipPathUnits="userSpaceOnUse">
      <path style="clip-rule:evenodd" id="path86" d="m 50.52,119.28 690.96,0 0,373.44 -690.96,0 0,-373.44 z"/>
    </clipPath>
    <clipPath id="clipPath96" clipPathUnits="userSpaceOnUse">
      <path style="clip-rule:evenodd" id="path98" d="m 50.52,119.28 690.96,0 0,373.44 -690.96,0 0,-373.44 z"/>
    </clipPath>
    <clipPath id="clipPath108" clipPathUnits="userSpaceOnUse">
      <path style="clip-rule:evenodd" id="path110" d="m 50.52,119.28 690.96,0 0,373.44 -690.96,0 0,-373.44 z"/>
    </clipPath>
    <clipPath id="clipPath120" clipPathUnits="userSpaceOnUse">
      <path style="clip-rule:evenodd" id="path122" d="m 50.52,119.28 690.96,0 0,373.44 -690.96,0 0,-373.44 z"/>
    </clipPath>
    <clipPath id="clipPath132" clipPathUnits="userSpaceOnUse">
      <path style="clip-rule:evenodd" id="path134" d="m 50.52,119.28 690.96,0 0,373.44 -690.96,0 0,-373.44 z"/>
    </clipPath>
    <clipPath id="clipPath144" clipPathUnits="userSpaceOnUse">
      <path style="clip-rule:evenodd" id="path146" d="m 50.52,119.28 690.96,0 0,373.44 -690.96,0 0,-373.44 z"/>
    </clipPath>
    <clipPath id="clipPath156" clipPathUnits="userSpaceOnUse">
      <path style="clip-rule:evenodd" id="path158" d="m 50.52,119.28 690.96,0 0,373.44 -690.96,0 0,-373.44 z"/>
    </clipPath>
    <clipPath id="clipPath168" clipPathUnits="userSpaceOnUse">
      <path style="clip-rule:evenodd" id="path170" d="m 50.52,119.28 690.96,0 0,373.44 -690.96,0 0,-373.44 z"/>
    </clipPath>
    <clipPath id="clipPath180" clipPathUnits="userSpaceOnUse">
      <path style="clip-rule:evenodd" id="path182" d="m 50.52,119.28 690.96,0 0,373.44 -690.96,0 0,-373.44 z"/>
    </clipPath>
    <clipPath id="clipPath192" clipPathUnits="userSpaceOnUse">
      <path style="clip-rule:evenodd" id="path194" d="m 50.52,119.28 690.96,0 0,373.44 -690.96,0 0,-373.44 z"/>
    </clipPath>
    <clipPath id="clipPath204" clipPathUnits="userSpaceOnUse">
      <path style="clip-rule:evenodd" id="path206" d="m 50.52,119.28 690.96,0 0,373.44 -690.96,0 0,-373.44 z"/>
    </clipPath>
    <clipPath id="clipPath216" clipPathUnits="userSpaceOnUse">
      <path style="clip-rule:evenodd" id="path218" d="m 50.52,119.28 690.96,0 0,373.44 -690.96,0 0,-373.44 z"/>
    </clipPath>
    <clipPath id="clipPath228" clipPathUnits="userSpaceOnUse">
      <path style="clip-rule:evenodd" id="path230" d="m 50.52,119.28 690.96,0 0,373.44 -690.96,0 0,-373.44 z"/>
    </clipPath>
    <clipPath id="clipPath240" clipPathUnits="userSpaceOnUse">
      <path style="clip-rule:evenodd" id="path242" d="m 50.52,119.28 690.96,0 0,373.44 -690.96,0 0,-373.44 z"/>
    </clipPath>
    <clipPath id="clipPath252" clipPathUnits="userSpaceOnUse">
      <path style="clip-rule:evenodd" id="path254" d="m 50.52,119.28 690.96,0 0,373.44 -690.96,0 0,-373.44 z"/>
    </clipPath>
    <clipPath id="clipPath264" clipPathUnits="userSpaceOnUse">
      <path style="clip-rule:evenodd" id="path266" d="m 50.52,119.28 690.96,0 0,373.44 -690.96,0 0,-373.44 z"/>
    </clipPath>
    <clipPath id="clipPath276" clipPathUnits="userSpaceOnUse">
      <path style="clip-rule:evenodd" id="path278" d="m 50.52,119.28 690.96,0 0,373.44 -690.96,0 0,-373.44 z"/>
    </clipPath>
    <clipPath id="clipPath288" clipPathUnits="userSpaceOnUse">
      <path style="clip-rule:evenodd" id="path290" d="m 50.52,119.28 690.96,0 0,373.44 -690.96,0 0,-373.44 z"/>
    </clipPath>
    <clipPath id="clipPath300" clipPathUnits="userSpaceOnUse">
      <path style="clip-rule:evenodd" id="path302" d="m 50.52,119.28 690.96,0 0,373.44 -690.96,0 0,-373.44 z"/>
    </clipPath>
    <clipPath id="clipPath312" clipPathUnits="userSpaceOnUse">
      <path style="clip-rule:evenodd" id="path314" d="m 50.52,119.28 690.96,0 0,373.44 -690.96,0 0,-373.44 z"/>
    </clipPath>
    <clipPath id="clipPath324" clipPathUnits="userSpaceOnUse">
      <path style="clip-rule:evenodd" id="path326" d="m 50.52,119.28 690.96,0 0,373.44 -690.96,0 0,-373.44 z"/>
    </clipPath>
    <clipPath id="clipPath336" clipPathUnits="userSpaceOnUse">
      <path style="clip-rule:evenodd" id="path338" d="m 50.52,119.28 690.96,0 0,373.44 -690.96,0 0,-373.44 z"/>
    </clipPath>
    <clipPath id="clipPath348" clipPathUnits="userSpaceOnUse">
      <path style="clip-rule:evenodd" id="path350" d="m 50.52,119.28 690.96,0 0,373.44 -690.96,0 0,-373.44 z"/>
    </clipPath>
    <clipPath id="clipPath362" clipPathUnits="userSpaceOnUse">
      <path style="clip-rule:evenodd" id="path364" d="m 50.52,119.28 690.96,0 0,373.44 -690.96,0 0,-373.44 z"/>
    </clipPath>
    <clipPath id="clipPath376" clipPathUnits="userSpaceOnUse">
      <path style="clip-rule:evenodd" id="path378" d="m 50.52,119.28 690.96,0 0,373.44 -690.96,0 0,-373.44 z"/>
    </clipPath>
  </defs>
  <g transform="matrix(1.25,0,0,-1.25,0,765)" id="g10">
    <g id="g12">
      <g clip-path="url(#clipPath16)" id="g14">
        <path id="path20" style="fill:none;stroke:#000000;stroke-width:0.14;stroke-linecap:butt;stroke-linejoin:miter;stroke-miterlimit:10;stroke-dasharray:none;stroke-opacity:0" d="m 50.501,119.25 690.99,0 0,373.45 -690.99,0 0,-373.45 z"/>
      </g>
    </g>
    <path id="path22" style="fill:#ffffff;fill-opacity:1;fill-rule:evenodd;stroke:none" d="m 50.501,119.25 690.99,0 0,373.45 -690.99,0 0,-373.45 z"/>
    <path id="path24" style="fill:none;stroke:#d9d9d9;stroke-width:1.3391;stroke-linecap:butt;stroke-linejoin:round;stroke-miterlimit:10;stroke-dasharray:none;stroke-opacity:1" d="m 116.98,187.84 561.42,0 m -561.42,27.21 561.42,0 m -561.42,27 561.42,0 m -561.42,27.21 561.42,0 m -561.42,27.21 561.42,0 m -561.42,27.21 561.42,0 m -561.42,27 561.42,0 m -561.42,27.21 561.42,0 m -561.42,27.21 561.42,0 m -561.42,27.12 561.42,0"/>
    <path id="path26" style="fill:#a8d7e2;fill-opacity:1;fill-rule:nonzero;stroke:none" d="m 138.11,213.12 28.06,0 0,-52.45 -28.06,0 0,52.45 z m 70.06,25.93 28.07,0 0,-78.38 -28.07,0 0,78.38 z m 70.28,36.64 28.06,0 0,-115.02 -28.06,0 0,115.02 z m 70.06,22.07 28.07,0 0,-137.09 -28.07,0 0,137.09 z m 70.28,-18.65 28.06,0 0,-118.44 -28.06,0 0,118.44 z m 70.06,51.86 28.07,0 0,-170.3 -28.07,0 0,170.3 z m 70.28,38.13 28.06,0 0,-208.43 -28.06,0 0,208.43 z m 70.06,45 28.07,0 0,-253.43 -28.07,0 0,253.43 z"/>
    <path id="path28" style="fill:none;stroke:#d9d9d9;stroke-width:1.3391;stroke-linecap:butt;stroke-linejoin:round;stroke-miterlimit:10;stroke-dasharray:none;stroke-opacity:1" d="m 116.98,160.67 561.42,0"/>
    <path id="path30" style="fill:none;stroke:#eacc80;stroke-width:4.01739979;stroke-linecap:round;stroke-linejoin:round;stroke-miterlimit:10;stroke-dasharray:none;stroke-opacity:1" d="m 152.07,296.47 70.24,-2.94 70.06,87.57 70.28,24.63 70.06,-103.69 70.28,53.57 70.06,8.14 70.26,17.99"/>
    <g id="g32">
      <g clip-path="url(#clipPath36)" id="g34"><text id="text40" style="font-variant:normal;font-weight:normal;font-size:16.07999992px;font-family:Calibri;-inkscape-font-specification:Calibri;writing-mode:lr-tb;fill:#595959;fill-opacity:1;fill-rule:nonzero;stroke:none" transform="matrix(1,0,0,-1,693.41,156.07)"><tspan id="tspan42" y="0" x="0">0</tspan></text>
</g>
    </g>
    <g id="g44">
      <g clip-path="url(#clipPath48)" id="g46"><text id="text52" style="font-variant:normal;font-weight:normal;font-size:16.05599976px;font-family:Calibri;-inkscape-font-specification:Calibri;writing-mode:lr-tb;fill:#595959;fill-opacity:1;fill-rule:nonzero;stroke:none" transform="matrix(1,0,0,-1,693.41,194.86)"><tspan id="tspan54" y="0" x="0 8.1360016 16.272003">500</tspan></text>
</g>
    </g>
    <g id="g56">
      <g clip-path="url(#clipPath60)" id="g58"><text id="text64" style="font-variant:normal;font-weight:normal;font-size:16.07999992px;font-family:Calibri;-inkscape-font-specification:Calibri;writing-mode:lr-tb;fill:#595959;fill-opacity:1;fill-rule:nonzero;stroke:none" transform="matrix(1,0,0,-1,693.41,233.66)"><tspan id="tspan66" y="0" x="0 8.1525602 12.17256 20.325121 28.47768">1,000</tspan></text>
</g>
    </g>
    <g id="g68">
      <g clip-path="url(#clipPath72)" id="g70"><text id="text76" style="font-variant:normal;font-weight:normal;font-size:16.07999992px;font-family:Calibri;-inkscape-font-specification:Calibri;writing-mode:lr-tb;fill:#595959;fill-opacity:1;fill-rule:nonzero;stroke:none" transform="matrix(1,0,0,-1,693.41,272.47)"><tspan id="tspan78" y="0" x="0 8.1525602 12.17256 20.325121 28.47768">1,500</tspan></text>
</g>
    </g>
    <g id="g80">
      <g clip-path="url(#clipPath84)" id="g82"><text id="text88" style="font-variant:normal;font-weight:normal;font-size:16.05599976px;font-family:Calibri;-inkscape-font-specification:Calibri;writing-mode:lr-tb;fill:#595959;fill-opacity:1;fill-rule:nonzero;stroke:none" transform="matrix(1,0,0,-1,693.41,311.26)"><tspan id="tspan90" y="0" x="0 8.1403923 12.20256 20.342953 28.483343">2,000</tspan></text>
</g>
    </g>
    <g id="g92">
      <g clip-path="url(#clipPath96)" id="g94"><text id="text100" style="font-variant:normal;font-weight:normal;font-size:16.07999992px;font-family:Calibri;-inkscape-font-specification:Calibri;writing-mode:lr-tb;fill:#595959;fill-opacity:1;fill-rule:nonzero;stroke:none" transform="matrix(1,0,0,-1,693.41,350.06)"><tspan id="tspan102" y="0" x="0 8.1525602 12.17256 20.325121 28.47768">2,500</tspan></text>
</g>
    </g>
    <g id="g104">
      <g clip-path="url(#clipPath108)" id="g106"><text id="text112" style="font-variant:normal;font-weight:normal;font-size:16.07999992px;font-family:Calibri;-inkscape-font-specification:Calibri;writing-mode:lr-tb;fill:#595959;fill-opacity:1;fill-rule:nonzero;stroke:none" transform="matrix(1,0,0,-1,693.41,388.87)"><tspan id="tspan114" y="0" x="0 8.1525602 12.17256 20.325121 28.47768">3,000</tspan></text>
</g>
    </g>
    <g id="g116">
      <g clip-path="url(#clipPath120)" id="g118"><text id="text124" style="font-variant:normal;font-weight:normal;font-size:16.05599976px;font-family:Calibri;-inkscape-font-specification:Calibri;writing-mode:lr-tb;fill:#595959;fill-opacity:1;fill-rule:nonzero;stroke:none" transform="matrix(1,0,0,-1,693.41,427.66)"><tspan id="tspan126" y="0" x="0 8.1403923 12.20256 20.342953 28.483343">3,500</tspan></text>
</g>
    </g>
    <g id="g128">
      <g clip-path="url(#clipPath132)" id="g130"><text id="text136" style="font-variant:normal;font-weight:normal;font-size:16.07999992px;font-family:Calibri;-inkscape-font-specification:Calibri;writing-mode:lr-tb;fill:#595959;fill-opacity:1;fill-rule:nonzero;stroke:none" transform="matrix(1,0,0,-1,70.248,156.07)"><tspan id="tspan138" y="0" x="0 8.1525602 12.20472 20.357281">0.0%</tspan></text>
</g>
    </g>
    <g id="g140">
      <g clip-path="url(#clipPath144)" id="g142"><text id="text148" style="font-variant:normal;font-weight:normal;font-size:16.05599976px;font-family:Calibri;-inkscape-font-specification:Calibri;writing-mode:lr-tb;fill:#595959;fill-opacity:1;fill-rule:nonzero;stroke:none" transform="matrix(1,0,0,-1,70.248,183.22)"><tspan id="tspan150" y="0" x="0 8.1403923 12.218616 20.359009">1.0%</tspan></text>
</g>
    </g>
    <g id="g152">
      <g clip-path="url(#clipPath156)" id="g154"><text id="text160" style="font-variant:normal;font-weight:normal;font-size:16.07999992px;font-family:Calibri;-inkscape-font-specification:Calibri;writing-mode:lr-tb;fill:#595959;fill-opacity:1;fill-rule:nonzero;stroke:none" transform="matrix(1,0,0,-1,70.248,210.38)"><tspan id="tspan162" y="0" x="0 8.1525602 12.20472 20.357281">2.0%</tspan></text>
</g>
    </g>
    <g id="g164">
      <g clip-path="url(#clipPath168)" id="g166"><text id="text172" style="font-variant:normal;font-weight:normal;font-size:16.07999992px;font-family:Calibri;-inkscape-font-specification:Calibri;writing-mode:lr-tb;fill:#595959;fill-opacity:1;fill-rule:nonzero;stroke:none" transform="matrix(1,0,0,-1,70.248,237.55)"><tspan id="tspan174" y="0" x="0 8.1525602 12.20472 20.357281">3.0%</tspan></text>
</g>
    </g>
    <g id="g176">
      <g clip-path="url(#clipPath180)" id="g178"><text id="text184" style="font-variant:normal;font-weight:normal;font-size:16.05599976px;font-family:Calibri;-inkscape-font-specification:Calibri;writing-mode:lr-tb;fill:#595959;fill-opacity:1;fill-rule:nonzero;stroke:none" transform="matrix(1,0,0,-1,70.248,264.7)"><tspan id="tspan186" y="0" x="0 8.1403923 12.218616 20.359009">4.0%</tspan></text>
</g>
    </g>
    <g id="g188">
      <g clip-path="url(#clipPath192)" id="g190"><text id="text196" style="font-variant:normal;font-weight:normal;font-size:16.07999992px;font-family:Calibri;-inkscape-font-specification:Calibri;writing-mode:lr-tb;fill:#595959;fill-opacity:1;fill-rule:nonzero;stroke:none" transform="matrix(1,0,0,-1,70.248,291.86)"><tspan id="tspan198" y="0" x="0 8.1525602 12.20472 20.357281">5.0%</tspan></text>
</g>
    </g>
    <g id="g200">
      <g clip-path="url(#clipPath204)" id="g202"><text id="text208" style="font-variant:normal;font-weight:normal;font-size:16.07999992px;font-family:Calibri;-inkscape-font-specification:Calibri;writing-mode:lr-tb;fill:#595959;fill-opacity:1;fill-rule:nonzero;stroke:none" transform="matrix(1,0,0,-1,70.248,319.03)"><tspan id="tspan210" y="0" x="0 8.1525602 12.20472 20.357281">6.0%</tspan></text>
</g>
    </g>
    <g id="g212">
      <g clip-path="url(#clipPath216)" id="g214"><text id="text220" style="font-variant:normal;font-weight:normal;font-size:16.05599976px;font-family:Calibri;-inkscape-font-specification:Calibri;writing-mode:lr-tb;fill:#595959;fill-opacity:1;fill-rule:nonzero;stroke:none" transform="matrix(1,0,0,-1,70.248,346.18)"><tspan id="tspan222" y="0" x="0 8.1403923 12.218616 20.359009">7.0%</tspan></text>
</g>
    </g>
    <g id="g224">
      <g clip-path="url(#clipPath228)" id="g226"><text id="text232" style="font-variant:normal;font-weight:normal;font-size:16.07999992px;font-family:Calibri;-inkscape-font-specification:Calibri;writing-mode:lr-tb;fill:#595959;fill-opacity:1;fill-rule:nonzero;stroke:none" transform="matrix(1,0,0,-1,70.248,373.34)"><tspan id="tspan234" y="0" x="0 8.1525602 12.20472 20.357281">8.0%</tspan></text>
</g>
    </g>
    <g id="g236">
      <g clip-path="url(#clipPath240)" id="g238"><text id="text244" style="font-variant:normal;font-weight:normal;font-size:16.07999992px;font-family:Calibri;-inkscape-font-specification:Calibri;writing-mode:lr-tb;fill:#595959;fill-opacity:1;fill-rule:nonzero;stroke:none" transform="matrix(1,0,0,-1,70.248,400.51)"><tspan id="tspan246" y="0" x="0 8.1525602 12.20472 20.357281">9.0%</tspan></text>
</g>
    </g>
    <g id="g248">
      <g clip-path="url(#clipPath252)" id="g250"><text id="text256" style="font-variant:normal;font-weight:normal;font-size:16.05599976px;font-family:Calibri;-inkscape-font-specification:Calibri;writing-mode:lr-tb;fill:#595959;fill-opacity:1;fill-rule:nonzero;stroke:none" transform="matrix(1,0,0,-1,62.112,427.66)"><tspan id="tspan258" y="0" x="0 8.1403923 16.280785 20.391121 28.531511">10.0%</tspan></text>
</g>
    </g>
    <g id="g260">
      <g clip-path="url(#clipPath264)" id="g262"><text id="text268" style="font-variant:normal;font-weight:normal;font-size:16.07999992px;font-family:Calibri;-inkscape-font-specification:Calibri;writing-mode:lr-tb;fill:#595959;fill-opacity:1;fill-rule:nonzero;stroke:none" transform="matrix(1,0,0,-1,135.82,135.17)"><tspan id="tspan270" y="0" x="0 8.1359596 16.271919 24.407881">2020</tspan></text>
</g>
    </g>
    <g id="g272">
      <g clip-path="url(#clipPath276)" id="g274"><text id="text280" style="font-variant:normal;font-weight:normal;font-size:16.07999992px;font-family:Calibri;-inkscape-font-specification:Calibri;writing-mode:lr-tb;fill:#595959;fill-opacity:1;fill-rule:nonzero;stroke:none" transform="matrix(1,0,0,-1,205.99,135.17)"><tspan id="tspan282" y="0" x="0 8.1359596 16.271919 24.407881">2021</tspan></text>
</g>
    </g>
    <g id="g284">
      <g clip-path="url(#clipPath288)" id="g286"><text id="text292" style="font-variant:normal;font-weight:normal;font-size:16.07999992px;font-family:Calibri;-inkscape-font-specification:Calibri;writing-mode:lr-tb;fill:#595959;fill-opacity:1;fill-rule:nonzero;stroke:none" transform="matrix(1,0,0,-1,276.19,135.17)"><tspan id="tspan294" y="0" x="0 8.1359596 16.271919 24.407881">2022</tspan></text>
</g>
    </g>
    <g id="g296">
      <g clip-path="url(#clipPath300)" id="g298"><text id="text304" style="font-variant:normal;font-weight:normal;font-size:16.07999992px;font-family:Calibri;-inkscape-font-specification:Calibri;writing-mode:lr-tb;fill:#595959;fill-opacity:1;fill-rule:nonzero;stroke:none" transform="matrix(1,0,0,-1,346.37,135.17)"><tspan id="tspan306" y="0" x="0 8.1359596 16.271919 24.407881">2023</tspan></text>
</g>
    </g>
    <g id="g308">
      <g clip-path="url(#clipPath312)" id="g310"><text id="text316" style="font-variant:normal;font-weight:normal;font-size:16.07999992px;font-family:Calibri;-inkscape-font-specification:Calibri;writing-mode:lr-tb;fill:#595959;fill-opacity:1;fill-rule:nonzero;stroke:none" transform="matrix(1,0,0,-1,416.54,135.17)"><tspan id="tspan318" y="0" x="0 8.1599998 16.32 24.48">2024</tspan></text>
</g>
    </g>
    <g id="g320">
      <g clip-path="url(#clipPath324)" id="g322"><text id="text328" style="font-variant:normal;font-weight:normal;font-size:16.07999992px;font-family:Calibri;-inkscape-font-specification:Calibri;writing-mode:lr-tb;fill:#595959;fill-opacity:1;fill-rule:nonzero;stroke:none" transform="matrix(1,0,0,-1,482.74,135.17)"><tspan id="tspan330" y="0" x="0 8.1599998 16.32 24.48 32.639999">2025e</tspan></text>
</g>
    </g>
    <g id="g332">
      <g clip-path="url(#clipPath336)" id="g334"><text id="text340" style="font-variant:normal;font-weight:normal;font-size:16.07999992px;font-family:Calibri;-inkscape-font-specification:Calibri;writing-mode:lr-tb;fill:#595959;fill-opacity:1;fill-rule:nonzero;stroke:none" transform="matrix(1,0,0,-1,552.94,135.17)"><tspan id="tspan342" y="0" x="0 8.1359596 16.271919 24.407881 32.543839">2026e</tspan></text>
</g>
    </g>
    <g id="g344">
      <g clip-path="url(#clipPath348)" id="g346"><text id="text352" style="font-variant:normal;font-weight:normal;font-size:16.07999992px;font-family:Calibri;-inkscape-font-specification:Calibri;writing-mode:lr-tb;fill:#595959;fill-opacity:1;fill-rule:nonzero;stroke:none" transform="matrix(1,0,0,-1,623.11,135.17)"><tspan id="tspan354" y="0" x="0 8.1359596 16.271919 24.407881 32.543839">2027e</tspan></text>
</g>
    </g>
    <path id="path356" style="fill:#a8d7e2;fill-opacity:1;fill-rule:evenodd;stroke:none" d="m 179.64,462.51 34.281,0 0,8.8262 -34.281,0 0,-8.8262 z"/>
    <g id="g358">
      <g clip-path="url(#clipPath362)" id="g360"><text id="text366" style="font-variant:normal;font-weight:normal;font-size:16.07999992px;font-family:Calibri;-inkscape-font-specification:Calibri;writing-mode:lr-tb;fill:#595959;fill-opacity:1;fill-rule:nonzero;stroke:none" transform="matrix(1,0,0,-1,217.56,462.38)"><tspan id="tspan368" y="0" x="0 8.3615999 15.22776 24.441601 33.012241 36.64632 46.535519 55.315201 64.529037 78.277443 81.911522 86.832001 94.984558 107.83248 116.27448 120.29448 123.92856 132.72432 142.58136 150.07465">KLAC DRAM ($mn, RHS)</tspan></text>
</g>
    </g>
    <path id="path370" style="fill:none;stroke:#eacc80;stroke-width:4.01739979;stroke-linecap:round;stroke-linejoin:round;stroke-miterlimit:10;stroke-dasharray:none;stroke-opacity:1" d="m 405.06,466.93 34.28,0"/>
    <g id="g372">
      <g clip-path="url(#clipPath376)" id="g374"><text id="text380" style="font-variant:normal;font-weight:normal;font-size:16.07999992px;font-family:Calibri;-inkscape-font-specification:Calibri;writing-mode:lr-tb;fill:#595959;fill-opacity:1;fill-rule:nonzero;stroke:none" transform="matrix(1,0,0,-1,443.02,462.38)"><tspan id="tspan382" y="0" x="0 8.3615999 15.1956 24.409439 32.98008 36.614159 46.503361 55.234798 64.49688 78.245277 81.879356 89.372643 97.718163 105.42048 111.0324 119.1528 122.57784 127.49832 139.04376 143.112 146.74608 153.4032 163.46928 170.76961">KLAC DRAM Share (%, LHS)</tspan></text>
</g>
    </g>
  </g>
</svg>
