<?xml version="1.0" encoding="UTF-8" standalone="no"?>
<svg xmlns:dc="http://purl.org/dc/elements/1.1/" xmlns:cc="http://creativecommons.org/ns#" xmlns:rdf="http://www.w3.org/1999/02/22-rdf-syntax-ns#" xmlns:svg="http://www.w3.org/2000/svg" xmlns="http://www.w3.org/2000/svg" viewBox="63 149.4375 864 466.1625" height="466.1625" width="864" xml:space="preserve" version="1.1" id="svg2">
  <metadata id="metadata8">
    <rdf:RDF>
      <cc:Work rdf:about="">
        <dc:format>image/svg+xml</dc:format>
        <dc:type rdf:resource="http://purl.org/dc/dcmitype/StillImage"/>
      </cc:Work>
    </rdf:RDF>
  </metadata>
  <defs id="defs6">
    <clipPath id="clipPath16" clipPathUnits="userSpaceOnUse">
      <path style="clip-rule:evenodd" id="path18" d="m 50.4,119.52 691.2,0 0,372.96 -691.2,0 0,-372.96 z"/>
    </clipPath>
    <clipPath id="clipPath26" clipPathUnits="userSpaceOnUse">
      <path style="clip-rule:evenodd" id="path28" d="m 50.4,119.52 691.2,0 0,372.96 -691.2,0 0,-372.96 z"/>
    </clipPath>
    <clipPath id="clipPath48" clipPathUnits="userSpaceOnUse">
      <path style="clip-rule:evenodd" id="path50" d="m 50.52,119.52 691.08,0 0,372.84 -691.08,0 0,-372.84 z"/>
    </clipPath>
    <clipPath id="clipPath60" clipPathUnits="userSpaceOnUse">
      <path style="clip-rule:evenodd" id="path62" d="m 50.52,119.52 691.08,0 0,372.84 -691.08,0 0,-372.84 z"/>
    </clipPath>
    <clipPath id="clipPath72" clipPathUnits="userSpaceOnUse">
      <path style="clip-rule:evenodd" id="path74" d="m 50.52,119.52 691.08,0 0,372.84 -691.08,0 0,-372.84 z"/>
    </clipPath>
    <clipPath id="clipPath84" clipPathUnits="userSpaceOnUse">
      <path style="clip-rule:evenodd" id="path86" d="m 50.52,119.52 691.08,0 0,372.84 -691.08,0 0,-372.84 z"/>
    </clipPath>
    <clipPath id="clipPath96" clipPathUnits="userSpaceOnUse">
      <path style="clip-rule:evenodd" id="path98" d="m 50.52,119.52 691.08,0 0,372.84 -691.08,0 0,-372.84 z"/>
    </clipPath>
    <clipPath id="clipPath108" clipPathUnits="userSpaceOnUse">
      <path style="clip-rule:evenodd" id="path110" d="m 50.52,119.52 691.08,0 0,372.84 -691.08,0 0,-372.84 z"/>
    </clipPath>
    <clipPath id="clipPath120" clipPathUnits="userSpaceOnUse">
      <path style="clip-rule:evenodd" id="path122" d="m 50.52,119.52 691.08,0 0,372.84 -691.08,0 0,-372.84 z"/>
    </clipPath>
    <clipPath id="clipPath132" clipPathUnits="userSpaceOnUse">
      <path style="clip-rule:evenodd" id="path134" d="m 50.52,119.52 691.08,0 0,372.84 -691.08,0 0,-372.84 z"/>
    </clipPath>
    <clipPath id="clipPath144" clipPathUnits="userSpaceOnUse">
      <path style="clip-rule:evenodd" id="path146" d="m 50.52,119.52 691.08,0 0,372.84 -691.08,0 0,-372.84 z"/>
    </clipPath>
    <clipPath id="clipPath156" clipPathUnits="userSpaceOnUse">
      <path style="clip-rule:evenodd" id="path158" d="m 50.52,119.52 691.08,0 0,372.84 -691.08,0 0,-372.84 z"/>
    </clipPath>
    <clipPath id="clipPath168" clipPathUnits="userSpaceOnUse">
      <path style="clip-rule:evenodd" id="path170" d="m 50.52,119.52 691.08,0 0,372.84 -691.08,0 0,-372.84 z"/>
    </clipPath>
    <clipPath id="clipPath180" clipPathUnits="userSpaceOnUse">
      <path style="clip-rule:evenodd" id="path182" d="m 50.52,119.52 691.08,0 0,372.84 -691.08,0 0,-372.84 z"/>
    </clipPath>
    <clipPath id="clipPath192" clipPathUnits="userSpaceOnUse">
      <path style="clip-rule:evenodd" id="path194" d="m 50.52,119.52 691.08,0 0,372.84 -691.08,0 0,-372.84 z"/>
    </clipPath>
    <clipPath id="clipPath204" clipPathUnits="userSpaceOnUse">
      <path style="clip-rule:evenodd" id="path206" d="m 50.52,119.52 691.08,0 0,372.84 -691.08,0 0,-372.84 z"/>
    </clipPath>
    <clipPath id="clipPath216" clipPathUnits="userSpaceOnUse">
      <path style="clip-rule:evenodd" id="path218" d="m 50.52,119.52 691.08,0 0,372.84 -691.08,0 0,-372.84 z"/>
    </clipPath>
    <clipPath id="clipPath228" clipPathUnits="userSpaceOnUse">
      <path style="clip-rule:evenodd" id="path230" d="m 50.52,119.52 691.08,0 0,372.84 -691.08,0 0,-372.84 z"/>
    </clipPath>
    <clipPath id="clipPath240" clipPathUnits="userSpaceOnUse">
      <path style="clip-rule:evenodd" id="path242" d="m 50.52,119.52 691.08,0 0,372.84 -691.08,0 0,-372.84 z"/>
    </clipPath>
    <clipPath id="clipPath252" clipPathUnits="userSpaceOnUse">
      <path style="clip-rule:evenodd" id="path254" d="m 50.52,119.52 691.08,0 0,372.84 -691.08,0 0,-372.84 z"/>
    </clipPath>
    <clipPath id="clipPath264" clipPathUnits="userSpaceOnUse">
      <path style="clip-rule:evenodd" id="path266" d="m 50.52,119.52 691.08,0 0,372.84 -691.08,0 0,-372.84 z"/>
    </clipPath>
    <clipPath id="clipPath276" clipPathUnits="userSpaceOnUse">
      <path style="clip-rule:evenodd" id="path278" d="m 50.52,119.52 691.08,0 0,372.84 -691.08,0 0,-372.84 z"/>
    </clipPath>
    <clipPath id="clipPath288" clipPathUnits="userSpaceOnUse">
      <path style="clip-rule:evenodd" id="path290" d="m 50.52,119.52 691.08,0 0,372.84 -691.08,0 0,-372.84 z"/>
    </clipPath>
    <clipPath id="clipPath300" clipPathUnits="userSpaceOnUse">
      <path style="clip-rule:evenodd" id="path302" d="m 50.52,119.52 691.08,0 0,372.84 -691.08,0 0,-372.84 z"/>
    </clipPath>
    <clipPath id="clipPath312" clipPathUnits="userSpaceOnUse">
      <path style="clip-rule:evenodd" id="path314" d="m 50.52,119.52 691.08,0 0,372.84 -691.08,0 0,-372.84 z"/>
    </clipPath>
    <clipPath id="clipPath324" clipPathUnits="userSpaceOnUse">
      <path style="clip-rule:evenodd" id="path326" d="m 50.52,119.52 691.08,0 0,372.84 -691.08,0 0,-372.84 z"/>
    </clipPath>
    <clipPath id="clipPath336" clipPathUnits="userSpaceOnUse">
      <path style="clip-rule:evenodd" id="path338" d="m 50.52,119.52 691.08,0 0,372.84 -691.08,0 0,-372.84 z"/>
    </clipPath>
    <clipPath id="clipPath348" clipPathUnits="userSpaceOnUse">
      <path style="clip-rule:evenodd" id="path350" d="m 50.52,119.52 691.08,0 0,372.84 -691.08,0 0,-372.84 z"/>
    </clipPath>
    <clipPath id="clipPath360" clipPathUnits="userSpaceOnUse">
      <path style="clip-rule:evenodd" id="path362" d="m 50.52,119.52 691.08,0 0,372.84 -691.08,0 0,-372.84 z"/>
    </clipPath>
    <clipPath id="clipPath372" clipPathUnits="userSpaceOnUse">
      <path style="clip-rule:evenodd" id="path374" d="m 50.52,119.52 691.08,0 0,372.84 -691.08,0 0,-372.84 z"/>
    </clipPath>
    <clipPath id="clipPath384" clipPathUnits="userSpaceOnUse">
      <path style="clip-rule:evenodd" id="path386" d="m 50.52,119.52 691.08,0 0,372.84 -691.08,0 0,-372.84 z"/>
    </clipPath>
    <clipPath id="clipPath396" clipPathUnits="userSpaceOnUse">
      <path style="clip-rule:evenodd" id="path398" d="m 50.52,119.52 691.08,0 0,372.84 -691.08,0 0,-372.84 z"/>
    </clipPath>
    <clipPath id="clipPath408" clipPathUnits="userSpaceOnUse">
      <path style="clip-rule:evenodd" id="path410" d="m 50.52,119.52 691.08,0 0,372.84 -691.08,0 0,-372.84 z"/>
    </clipPath>
    <clipPath id="clipPath420" clipPathUnits="userSpaceOnUse">
      <path style="clip-rule:evenodd" id="path422" d="m 50.52,119.52 691.08,0 0,372.84 -691.08,0 0,-372.84 z"/>
    </clipPath>
    <clipPath id="clipPath432" clipPathUnits="userSpaceOnUse">
      <path style="clip-rule:evenodd" id="path434" d="m 50.52,119.52 691.08,0 0,372.84 -691.08,0 0,-372.84 z"/>
    </clipPath>
    <clipPath id="clipPath444" clipPathUnits="userSpaceOnUse">
      <path style="clip-rule:evenodd" id="path446" d="m 50.52,119.52 691.08,0 0,372.84 -691.08,0 0,-372.84 z"/>
    </clipPath>
    <clipPath id="clipPath456" clipPathUnits="userSpaceOnUse">
      <path style="clip-rule:evenodd" id="path458" d="m 50.52,119.52 691.08,0 0,372.84 -691.08,0 0,-372.84 z"/>
    </clipPath>
    <clipPath id="clipPath468" clipPathUnits="userSpaceOnUse">
      <path style="clip-rule:evenodd" id="path470" d="m 50.52,119.52 691.08,0 0,372.84 -691.08,0 0,-372.84 z"/>
    </clipPath>
    <clipPath id="clipPath480" clipPathUnits="userSpaceOnUse">
      <path style="clip-rule:evenodd" id="path482" d="m 50.52,119.52 691.08,0 0,372.84 -691.08,0 0,-372.84 z"/>
    </clipPath>
    <clipPath id="clipPath492" clipPathUnits="userSpaceOnUse">
      <path style="clip-rule:evenodd" id="path494" d="m 50.52,119.52 691.08,0 0,372.84 -691.08,0 0,-372.84 z"/>
    </clipPath>
    <clipPath id="clipPath504" clipPathUnits="userSpaceOnUse">
      <path style="clip-rule:evenodd" id="path506" d="m 50.52,119.52 691.08,0 0,372.84 -691.08,0 0,-372.84 z"/>
    </clipPath>
    <clipPath id="clipPath516" clipPathUnits="userSpaceOnUse">
      <path style="clip-rule:evenodd" id="path518" d="m 50.52,119.52 691.08,0 0,372.84 -691.08,0 0,-372.84 z"/>
    </clipPath>
    <clipPath id="clipPath530" clipPathUnits="userSpaceOnUse">
      <path style="clip-rule:evenodd" id="path532" d="m 50.52,119.52 691.08,0 0,372.84 -691.08,0 0,-372.84 z"/>
    </clipPath>
    <clipPath id="clipPath544" clipPathUnits="userSpaceOnUse">
      <path style="clip-rule:evenodd" id="path546" d="m 50.52,119.52 691.08,0 0,372.84 -691.08,0 0,-372.84 z"/>
    </clipPath>
    <clipPath id="clipPath558" clipPathUnits="userSpaceOnUse">
      <path style="clip-rule:evenodd" id="path560" d="m 50.52,119.52 691.08,0 0,372.84 -691.08,0 0,-372.84 z"/>
    </clipPath>
    <clipPath id="clipPath572" clipPathUnits="userSpaceOnUse">
      <path style="clip-rule:evenodd" id="path574" d="m 50.52,119.52 691.08,0 0,372.84 -691.08,0 0,-372.84 z"/>
    </clipPath>
    <clipPath id="clipPath584" clipPathUnits="userSpaceOnUse">
      <path style="clip-rule:evenodd" id="path586" d="m 50.52,454.92 691.08,0 0,34.92 -691.08,0 0,-34.92 z"/>
    </clipPath>
  </defs>
  <g transform="matrix(1.25,0,0,-1.25,0,765)" id="g10">
    <g id="g12">
      <g clip-path="url(#clipPath16)" id="g14">
        <path id="path20" style="fill:none;stroke:#000000;stroke-width:0.14;stroke-linecap:butt;stroke-linejoin:miter;stroke-miterlimit:10;stroke-dasharray:none;stroke-opacity:0" d="m 50.463,119.52 691.16,0 0,372.86 -691.16,0 0,-372.86 z"/>
      </g>
    </g>
    <g id="g22">
      <g clip-path="url(#clipPath26)" id="g24">
        <path id="path30" style="fill:#ffffff;fill-opacity:1;fill-rule:evenodd;stroke:none" d="m 50.463,119.52 691.16,0 0,372.86 -691.16,0 0,-372.86 z"/>
      </g>
    </g>
    <path id="path32" style="fill:none;stroke:#d9d9d9;stroke-width:0.93607998;stroke-linecap:butt;stroke-linejoin:round;stroke-miterlimit:10;stroke-dasharray:none;stroke-opacity:1" d="m 106.35,259.63 619.5,0 m -619.5,21.87 619.5,0 m -619.5,21.86 619.5,0 m -619.5,21.87 619.5,0 m -619.5,22.02 619.5,0 m -619.5,21.86 619.5,0 m -619.5,21.87 619.5,0 m -619.5,21.87 619.5,0 m -619.5,21.86 619.5,0 m -619.5,21.88 619.5,0"/>
    <path id="path34" style="fill:#137cb1;fill-opacity:1;fill-rule:nonzero;stroke:none" d="m 110.37,310.7 13.33,0 0,-72.94 -13.33,0 0,72.94 z m 21.42,-31.3 13.33,0 0,-41.64 -13.33,0 0,41.64 z m 21.27,-14.23 13.33,0 0,-27.41 -13.33,0 0,27.41 z m 21.41,3.89 13.33,0 0,-31.3 -13.33,0 0,31.3 z m 21.27,-7.03 13.48,0 0,-24.27 -13.48,0 0,24.27 z m 21.42,0 13.33,0 0,-24.27 -13.33,0 0,24.27 z m 21.42,-17.68 13.33,0 0,-6.59 -13.33,0 0,6.59 z m 21.26,10.94 13.33,0 0,-17.53 -13.33,0 0,17.53 z m 64.11,-3.9 13.33,0 0,-13.63 -13.33,0 0,13.63 z m 42.68,-3.14 13.48,0 0,-10.49 -13.48,0 0,10.49 z"/>
    <path id="path36" style="fill:#a8d7e2;fill-opacity:1;fill-rule:nonzero;stroke:none" d="m 110.37,359.38 13.33,0 0,-48.68 -13.33,0 0,48.68 z m 21.42,55.56 13.33,0 0,-135.54 -13.33,0 0,135.54 z m 21.27,-13.03 13.33,0 0,-136.74 -13.33,0 0,136.74 z m 21.41,-70.39 13.33,0 0,-62.46 -13.33,0 0,62.46 z m 21.27,-8.69 13.48,0 0,-60.8 -13.48,0 0,60.8 z m 21.42,-12.13 13.33,0 0,-48.67 -13.33,0 0,48.67 z m 21.42,132.7 13.33,0 0,-199.05 -13.33,0 0,199.05 z m 21.26,-135.54 13.33,0 0,-52.57 -13.33,0 0,52.57 z m 21.42,148.73 13.33,0 0,-218.83 -13.33,0 0,218.83 z m 21.42,0 13.33,0 0,-218.83 -13.33,0 0,218.83 z m 21.27,-136.75 13.33,0 0,-68.45 -13.33,0 0,68.45 z m 21.42,63.8 13.32,0 0,-145.88 -13.32,0 0,145.88 z m 42.68,-61.11 13.33,0 0,-84.77 -13.33,0 0,84.77 z m 21.42,-33.7 13.33,0 0,-51.07 -13.33,0 0,51.07 z m 21.27,-6.29 13.33,0 0,-44.78 -13.33,0 0,44.78 z m 21.41,-8.23 13.33,0 0,-36.55 -13.33,0 0,36.55 z m 21.42,0 13.33,0 0,-36.55 -13.33,0 0,36.55 z m 21.27,-6.74 13.33,0 0,-29.81 -13.33,0 0,29.81 z m 21.42,-15.28 13.33,0 0,-14.53 -13.33,0 0,14.53 z m 21.26,-2.4 13.48,0 0,-12.13 -13.48,0 0,12.13 z m 21.42,-1.19 13.33,0 0,-10.94 -13.33,0 0,10.94 z m 21.42,-1.8 13.33,0 0,-9.14 -13.33,0 0,9.14 z"/>
    <path id="path38" style="fill:#eacc80;fill-opacity:1;fill-rule:nonzero;stroke:none" d="m 110.37,456.59 13.33,0 0,-97.21 -13.33,0 0,97.21 z m 21.42,-10.49 13.33,0 0,-31.16 -13.33,0 0,31.16 z m 21.27,10.49 13.33,0 0,-54.68 -13.33,0 0,54.68 z m 21.41,0 13.33,0 0,-125.07 -13.33,0 0,125.07 z m 21.27,0 13.48,0 0,-133.76 -13.48,0 0,133.76 z m 21.42,-24.27 13.33,0 0,-121.62 -13.33,0 0,121.62 z m 21.42,24.27 13.33,0 0,-13.19 -13.33,0 0,13.19 z m 21.26,0 13.33,0 0,-148.73 -13.33,0 0,148.73 z m 64.11,0 13.33,0 0,-136.75 -13.33,0 0,136.75 z m 21.42,0 13.32,0 0,-72.95 -13.32,0 0,72.95 z m 21.26,-10.49 13.48,0 0,-197.85 -13.48,0 0,197.85 z m 21.42,10.49 13.33,0 0,-134.06 -13.33,0 0,134.06 z m 21.42,0 13.33,0 0,-167.76 -13.33,0 0,167.76 z m 21.27,-84.48 13.33,0 0,-89.57 -13.33,0 0,89.57 z m 21.41,84.48 13.33,0 0,-182.28 -13.33,0 0,182.28 z m 21.42,-72.95 13.33,0 0,-109.33 -13.33,0 0,109.33 z m 21.27,53.02 13.33,0 0,-169.09 -13.33,0 0,169.09 z m 21.42,19.93 13.33,0 0,-204.3 -13.33,0 0,204.3 z m 21.26,0 13.48,0 0,-206.7 -13.48,0 0,206.7 z m 21.42,0 13.33,0 0,-207.89 -13.33,0 0,207.89 z m 21.42,-200.56 13.33,0 0,-9.13 -13.33,0 0,9.13 z m 21.27,200.56 13.48,0 0,-218.83 -13.48,0 0,218.83 z m 21.41,0 13.33,0 0,-218.83 -13.33,0 0,218.83 z m 21.42,0 13.33,0 0,-218.83 -13.33,0 0,218.83 z m 21.27,0 13.33,0 0,-218.83 -13.33,0 0,218.83 z m 21.42,0 13.33,0 0,-218.83 -13.33,0 0,218.83 z"/>
    <path id="path40" style="fill:#bfbfbf;fill-opacity:1;fill-rule:nonzero;stroke:none" d="m 131.79,456.59 13.33,0 0,-10.49 -13.33,0 0,10.49 z m 85.37,0 13.33,0 0,-24.27 -13.33,0 0,24.27 z m 149.47,0 13.48,0 0,-10.49 -13.48,0 0,10.49 z m 64.11,0 13.33,0 0,-84.48 -13.33,0 0,84.48 z m 42.83,0 13.33,0 0,-72.95 -13.33,0 0,72.95 z m 21.27,0 13.33,0 0,-19.93 -13.33,0 0,19.93 z m 85.52,0 13.33,0 0,-200.56 -13.33,0 0,200.56 z m 128.2,0 13.33,0 0,-218.83 -13.33,0 0,218.83 z"/>
    <path id="path42" style="fill:none;stroke:#d9d9d9;stroke-width:0.93607998;stroke-linecap:butt;stroke-linejoin:round;stroke-miterlimit:10;stroke-dasharray:none;stroke-opacity:1" d="m 106.35,237.76 619.5,0"/>
    <g id="g44">
      <g clip-path="url(#clipPath48)" id="g46"><text id="text52" style="font-variant:normal;font-weight:normal;font-size:13.17599964px;font-family:Calibri;-inkscape-font-specification:Calibri;writing-mode:lr-tb;fill:#595959;fill-opacity:1;fill-rule:nonzero;stroke:none" transform="matrix(1,0,0,-1,78.192,233.98)"><tspan id="tspan54" y="0" x="0 6.6000319">0%</tspan></text>
</g>
    </g>
    <g id="g56">
      <g clip-path="url(#clipPath60)" id="g58"><text id="text64" style="font-variant:normal;font-weight:normal;font-size:13.17599964px;font-family:Calibri;-inkscape-font-specification:Calibri;writing-mode:lr-tb;fill:#595959;fill-opacity:1;fill-rule:nonzero;stroke:none" transform="matrix(1,0,0,-1,71.544,255.86)"><tspan id="tspan66" y="0" x="0 6.6011758 13.334112">10%</tspan></text>
</g>
    </g>
    <g id="g68">
      <g clip-path="url(#clipPath72)" id="g70"><text id="text76" style="font-variant:normal;font-weight:normal;font-size:13.17599964px;font-family:Calibri;-inkscape-font-specification:Calibri;writing-mode:lr-tb;fill:#595959;fill-opacity:1;fill-rule:nonzero;stroke:none" transform="matrix(1,0,0,-1,71.544,277.75)"><tspan id="tspan78" y="0" x="0 6.6011758 13.334112">20%</tspan></text>
</g>
    </g>
    <g id="g80">
      <g clip-path="url(#clipPath84)" id="g82"><text id="text88" style="font-variant:normal;font-weight:normal;font-size:13.17599964px;font-family:Calibri;-inkscape-font-specification:Calibri;writing-mode:lr-tb;fill:#595959;fill-opacity:1;fill-rule:nonzero;stroke:none" transform="matrix(1,0,0,-1,71.544,299.64)"><tspan id="tspan90" y="0" x="0 6.6011758 13.334112">30%</tspan></text>
</g>
    </g>
    <g id="g92">
      <g clip-path="url(#clipPath96)" id="g94"><text id="text100" style="font-variant:normal;font-weight:normal;font-size:13.17599964px;font-family:Calibri;-inkscape-font-specification:Calibri;writing-mode:lr-tb;fill:#595959;fill-opacity:1;fill-rule:nonzero;stroke:none" transform="matrix(1,0,0,-1,71.544,321.53)"><tspan id="tspan102" y="0" x="0 6.6011758 13.334112">40%</tspan></text>
</g>
    </g>
    <g id="g104">
      <g clip-path="url(#clipPath108)" id="g106"><text id="text112" style="font-variant:normal;font-weight:normal;font-size:13.17599964px;font-family:Calibri;-inkscape-font-specification:Calibri;writing-mode:lr-tb;fill:#595959;fill-opacity:1;fill-rule:nonzero;stroke:none" transform="matrix(1,0,0,-1,71.544,343.42)"><tspan id="tspan114" y="0" x="0 6.6011758 13.334112">50%</tspan></text>
</g>
    </g>
    <g id="g116">
      <g clip-path="url(#clipPath120)" id="g118"><text id="text124" style="font-variant:normal;font-weight:normal;font-size:13.17599964px;font-family:Calibri;-inkscape-font-specification:Calibri;writing-mode:lr-tb;fill:#595959;fill-opacity:1;fill-rule:nonzero;stroke:none" transform="matrix(1,0,0,-1,71.544,365.3)"><tspan id="tspan126" y="0" x="0 6.6011758 13.334112">60%</tspan></text>
</g>
    </g>
    <g id="g128">
      <g clip-path="url(#clipPath132)" id="g130"><text id="text136" style="font-variant:normal;font-weight:normal;font-size:13.17599964px;font-family:Calibri;-inkscape-font-specification:Calibri;writing-mode:lr-tb;fill:#595959;fill-opacity:1;fill-rule:nonzero;stroke:none" transform="matrix(1,0,0,-1,71.544,387.19)"><tspan id="tspan138" y="0" x="0 6.6011758 13.334112">70%</tspan></text>
</g>
    </g>
    <g id="g140">
      <g clip-path="url(#clipPath144)" id="g142"><text id="text148" style="font-variant:normal;font-weight:normal;font-size:13.17599964px;font-family:Calibri;-inkscape-font-specification:Calibri;writing-mode:lr-tb;fill:#595959;fill-opacity:1;fill-rule:nonzero;stroke:none" transform="matrix(1,0,0,-1,71.544,409.08)"><tspan id="tspan150" y="0" x="0 6.6011758 13.334112">80%</tspan></text>
</g>
    </g>
    <g id="g152">
      <g clip-path="url(#clipPath156)" id="g154"><text id="text160" style="font-variant:normal;font-weight:normal;font-size:13.17599964px;font-family:Calibri;-inkscape-font-specification:Calibri;writing-mode:lr-tb;fill:#595959;fill-opacity:1;fill-rule:nonzero;stroke:none" transform="matrix(1,0,0,-1,71.544,430.97)"><tspan id="tspan162" y="0" x="0 6.6011758 13.334112">90%</tspan></text>
</g>
    </g>
    <g id="g164">
      <g clip-path="url(#clipPath168)" id="g166"><text id="text172" style="font-variant:normal;font-weight:normal;font-size:13.19999981px;font-family:Calibri;-inkscape-font-specification:Calibri;writing-mode:lr-tb;fill:#595959;fill-opacity:1;fill-rule:nonzero;stroke:none" transform="matrix(1,0,0,-1,64.92,452.86)"><tspan id="tspan174" y="0" x="0 6.5735998 13.3056 19.8792">100%</tspan></text>
</g>
    </g>
    <g id="g176">
      <g clip-path="url(#clipPath180)" id="g178"><text id="text184" style="font-variant:normal;font-weight:normal;font-size:13.17599964px;font-family:Calibri;-inkscape-font-specification:Calibri;writing-mode:lr-tb;fill:#595959;fill-opacity:1;fill-rule:nonzero;stroke:none" transform="matrix(-4.4e-8,1,1,4.4e-8,121.49,149.9)"><tspan id="tspan186" y="0" x="0 6.4167118 10.962432 17.273735 24.138432 29.250719 36.168121 43.032818 47.670769 52.018848 58.330151 62.651878 65.682358 72.691994">Transportation</tspan></text>
</g>
    </g>
    <g id="g188">
      <g clip-path="url(#clipPath192)" id="g190"><text id="text196" style="font-variant:normal;font-weight:normal;font-size:13.17599964px;font-family:Calibri;-inkscape-font-specification:Calibri;writing-mode:lr-tb;fill:#595959;fill-opacity:1;fill-rule:nonzero;stroke:none" transform="matrix(-4.4e-8,1,1,4.4e-8,142.85,195.48)"><tspan id="tspan198" y="0" x="0 11.26548 17.669016 24.586416 27.551016">Media</tspan></text>
</g>
    </g>
    <g id="g200">
      <g clip-path="url(#clipPath204)" id="g202"><text id="text208" style="font-variant:normal;font-weight:normal;font-size:13.17599964px;font-family:Calibri;-inkscape-font-specification:Calibri;writing-mode:lr-tb;fill:#595959;fill-opacity:1;fill-rule:nonzero;stroke:none" transform="matrix(-4.4e-8,1,1,4.4e-8,164.21,171.05)"><tspan id="tspan210" y="0" x="0 8.10324 11.06784 16.153776 21.727224 24.981695 27.959473 35.11404 41.570278 45.918362 52.229664 55.181087">Disc. Retail</tspan></text>
</g>
    </g>
    <g id="g212">
      <g clip-path="url(#clipPath216)" id="g214"><text id="text220" style="font-variant:normal;font-weight:normal;font-size:13.17599964px;font-family:Calibri;-inkscape-font-specification:Calibri;writing-mode:lr-tb;fill:#595959;fill-opacity:1;fill-rule:nonzero;stroke:none" transform="matrix(-4.4e-8,1,1,4.4e-8,185.57,181.42)"><tspan id="tspan222" y="0" x="0 11.26548 17.708544 24.625944 29.118959 35.575199 41.148647">Medtech</tspan></text>
</g>
    </g>
    <g id="g224">
      <g clip-path="url(#clipPath228)" id="g226"><text id="text232" style="font-variant:normal;font-weight:normal;font-size:13.19999981px;font-family:Calibri;-inkscape-font-specification:Calibri;writing-mode:lr-tb;fill:#595959;fill-opacity:1;fill-rule:nonzero;stroke:none" transform="matrix(-4.4e-8,1,1,4.4e-8,206.93,177.62)"><tspan id="tspan234" y="0" x="0 7.1808 14.1108 19.1796 22.506001 25.489201 31.4688 37.897202 42.543598 48.377998">Bus. Serv.</tspan></text>
</g>
    </g>
    <g id="g236">
      <g clip-path="url(#clipPath240)" id="g238"><text id="text244" style="font-variant:normal;font-weight:normal;font-size:13.17599964px;font-family:Calibri;-inkscape-font-specification:Calibri;writing-mode:lr-tb;fill:#595959;fill-opacity:1;fill-rule:nonzero;stroke:none" transform="matrix(-4.4e-8,1,1,4.4e-8,228.31,198.22)"><tspan id="tspan246" y="0" x="0 5.99508 12.556728 23.084352 26.114832">Semis</tspan></text>
</g>
    </g>
    <g id="g248">
      <g clip-path="url(#clipPath252)" id="g250"><text id="text256" style="font-variant:normal;font-weight:normal;font-size:13.17599964px;font-family:Calibri;-inkscape-font-specification:Calibri;writing-mode:lr-tb;fill:#595959;fill-opacity:1;fill-rule:nonzero;stroke:none" transform="matrix(-4.4e-8,1,1,4.4e-8,249.67,198)"><tspan id="tspan258" y="0" x="0 7.1677442 13.479048 20.238337 26.233416">Banks</tspan></text>
</g>
    </g>
    <g id="g260">
      <g clip-path="url(#clipPath264)" id="g262"><text id="text268" style="font-variant:normal;font-weight:normal;font-size:13.17599964px;font-family:Calibri;-inkscape-font-specification:Calibri;writing-mode:lr-tb;fill:#595959;fill-opacity:1;fill-rule:nonzero;stroke:none" transform="matrix(-4.4e-8,1,1,4.4e-8,271.03,186.89)"><tspan id="tspan270" y="0" x="0 8.10324 11.094192 16.93116 20.370096 23.229288 29.356129 32.386608 39.238129">Div. Fin.</tspan></text>
</g>
    </g>
    <g id="g272">
      <g clip-path="url(#clipPath276)" id="g274"><text id="text280" style="font-variant:normal;font-weight:normal;font-size:13.19999981px;font-family:Calibri;-inkscape-font-specification:Calibri;writing-mode:lr-tb;fill:#595959;fill-opacity:1;fill-rule:nonzero;stroke:none" transform="matrix(-4.4e-8,1,1,4.4e-8,292.39,204.79)"><tspan id="tspan282" y="0" x="0 7.6427999 16.4604">A&amp;D</tspan></text>
</g>
    </g>
    <g id="g284">
      <g clip-path="url(#clipPath288)" id="g286"><text id="text292" style="font-variant:normal;font-weight:normal;font-size:13.17599964px;font-family:Calibri;-inkscape-font-specification:Calibri;writing-mode:lr-tb;fill:#595959;fill-opacity:1;fill-rule:nonzero;stroke:none" transform="matrix(-4.4e-8,1,1,4.4e-8,313.78,169.37)"><tspan id="tspan294" y="0" x="0 5.981904 12.872952 19.764 26.6814 29.659176 36.813744 43.230457 47.710297 53.850311 56.986198">Food Retail</tspan></text>
</g>
    </g>
    <g id="g296">
      <g clip-path="url(#clipPath300)" id="g298"><text id="text304" style="font-variant:normal;font-weight:normal;font-size:13.17599964px;font-family:Calibri;-inkscape-font-specification:Calibri;writing-mode:lr-tb;fill:#595959;fill-opacity:1;fill-rule:nonzero;stroke:none" transform="matrix(-4.4e-8,1,1,4.4e-8,335.14,181.32)"><tspan id="tspan306" y="0" x="0 5.981904 12.872952 16.891632 21.252888 30.673729 36.985031 41.46487">Software</tspan></text>
</g>
    </g>
    <g id="g308">
      <g clip-path="url(#clipPath312)" id="g310"><text id="text316" style="font-variant:normal;font-weight:normal;font-size:13.17599964px;font-family:Calibri;-inkscape-font-specification:Calibri;writing-mode:lr-tb;fill:#595959;fill-opacity:1;fill-rule:nonzero;stroke:none" transform="matrix(-4.4e-8,1,1,4.4e-8,356.5,141.5)"><tspan id="tspan318" y="0" x="0 5.5339198 12.45132 18.156528 25.008047 29.51424 35.482967 40.568905 48.540382 55.457783 60.05621 66.367516 73.284912 76.262688 82.718925">Luxury/Durables</tspan></text>
</g>
    </g>
    <g id="g320">
      <g clip-path="url(#clipPath324)" id="g322"><text id="text328" style="font-variant:normal;font-weight:normal;font-size:13.17599964px;font-family:Calibri;-inkscape-font-specification:Calibri;writing-mode:lr-tb;fill:#595959;fill-opacity:1;fill-rule:nonzero;stroke:none" transform="matrix(-4.4e-8,1,1,4.4e-8,377.86,163.06)"><tspan id="tspan330" y="0" x="0 7.0228081 13.913856 20.831257 25.890841 30.23892 34.876873 38.197224 41.174999 52.256016 58.567322 63.020809">Constr. Mat.</tspan></text>
</g>
    </g>
    <g id="g332">
      <g clip-path="url(#clipPath336)" id="g334"><text id="text340" style="font-variant:normal;font-weight:normal;font-size:13.19999981px;font-family:Calibri;-inkscape-font-specification:Calibri;writing-mode:lr-tb;fill:#595959;fill-opacity:1;fill-rule:nonzero;stroke:none" transform="matrix(-4.4e-8,1,1,4.4e-8,399.22,143.69)"><tspan id="tspan342" y="0" x="0 6.4284 10.9164 17.239201 23.205601 29.607599 32.6436 35.626801 44.5896 47.427601 52.9716 59.5452 62.5812 67.636803 74.527199 79.134003">Travel &amp; Leisure</tspan></text>
</g>
    </g>
    <g id="g344">
      <g clip-path="url(#clipPath348)" id="g346"><text id="text352" style="font-variant:normal;font-weight:normal;font-size:13.17599964px;font-family:Calibri;-inkscape-font-specification:Calibri;writing-mode:lr-tb;fill:#595959;fill-opacity:1;fill-rule:nonzero;stroke:none" transform="matrix(-4.4e-8,1,1,4.4e-8,420.6,182.88)"><tspan id="tspan354" y="0" x="0 7.1809201 10.501272 13.347288 19.777176 24.928991 29.395657 35.706959 40.028687">R. Estate</tspan></text>
</g>
    </g>
    <g id="g356">
      <g clip-path="url(#clipPath360)" id="g358"><text id="text364" style="font-variant:normal;font-weight:normal;font-size:13.17599964px;font-family:Calibri;-inkscape-font-specification:Calibri;writing-mode:lr-tb;fill:#595959;fill-opacity:1;fill-rule:nonzero;stroke:none" transform="matrix(-4.4e-8,1,1,4.4e-8,441.96,172.15)"><tspan id="tspan366" y="0" x="0 7.0228081 13.334112 20.251513 23.084352 31.477465 38.368511 45.25956 52.17696">Cap Goods</tspan></text>
</g>
    </g>
    <g id="g368">
      <g clip-path="url(#clipPath372)" id="g370"><text id="text376" style="font-variant:normal;font-weight:normal;font-size:13.17599964px;font-family:Calibri;-inkscape-font-specification:Calibri;writing-mode:lr-tb;fill:#595959;fill-opacity:1;fill-rule:nonzero;stroke:none" transform="matrix(-4.4e-8,1,1,4.4e-8,463.32,162.19)"><tspan id="tspan378" y="0" x="0 5.5339198 8.5643997 12.58308 19.052496 22.030272 28.078056 33.598801 36.62928 43.190929 50.10833 55.62907 62.085312">Life Sciences</tspan></text>
</g>
    </g>
    <g id="g380">
      <g clip-path="url(#clipPath384)" id="g382"><text id="text388" style="font-variant:normal;font-weight:normal;font-size:13.17599964px;font-family:Calibri;-inkscape-font-specification:Calibri;writing-mode:lr-tb;fill:#595959;fill-opacity:1;fill-rule:nonzero;stroke:none" transform="matrix(-4.4e-8,1,1,4.4e-8,484.68,148.44)"><tspan id="tspan390" y="0" x="0 6.4167118 12.859776 18.433224 25.29792 28.275696 36.392113 42.703415 47.301842 54.219238 63.481968 69.793274 74.391693">Tech Hardware</tspan></text>
</g>
    </g>
    <g id="g392">
      <g clip-path="url(#clipPath396)" id="g394"><text id="text400" style="font-variant:normal;font-weight:normal;font-size:13.19999981px;font-family:Calibri;-inkscape-font-specification:Calibri;writing-mode:lr-tb;fill:#595959;fill-opacity:1;fill-rule:nonzero;stroke:none" transform="matrix(-4.4e-8,1,1,4.4e-8,506.04,209.83)"><tspan id="tspan402" y="0" x="0 6.006 13.1868">FBT</tspan></text>
</g>
    </g>
    <g id="g404">
      <g clip-path="url(#clipPath408)" id="g406"><text id="text412" style="font-variant:normal;font-weight:normal;font-size:13.17599964px;font-family:Calibri;-inkscape-font-specification:Calibri;writing-mode:lr-tb;fill:#595959;fill-opacity:1;fill-rule:nonzero;stroke:none" transform="matrix(-4.4e-8,1,1,4.4e-8,527.42,198.48)"><tspan id="tspan414" y="0" x="0 7.6289039 14.546304 18.868032 25.759081">Autos</tspan></text>
</g>
    </g>
    <g id="g416">
      <g clip-path="url(#clipPath420)" id="g418"><text id="text424" style="font-variant:normal;font-weight:normal;font-size:13.17599964px;font-family:Calibri;-inkscape-font-specification:Calibri;writing-mode:lr-tb;fill:#595959;fill-opacity:1;fill-rule:nonzero;stroke:none" transform="matrix(-4.4e-8,1,1,4.4e-8,548.78,184.01)"><tspan id="tspan426" y="0" x="0 6.4167118 12.859776 15.890256 22.451904 28.025352 34.890049">Telecom</tspan></text>
</g>
    </g>
    <g id="g428">
      <g clip-path="url(#clipPath432)" id="g430"><text id="text436" style="font-variant:normal;font-weight:normal;font-size:13.17599964px;font-family:Calibri;-inkscape-font-specification:Calibri;writing-mode:lr-tb;fill:#595959;fill-opacity:1;fill-rule:nonzero;stroke:none" transform="matrix(-4.4e-8,1,1,4.4e-8,570.14,177.38)"><tspan id="tspan438" y="0" x="0 3.3203521 10.171872 15.257808 22.175207 26.773632 33.084934 39.949631 45.523079">Insurance</tspan></text>
</g>
    </g>
    <g id="g440">
      <g clip-path="url(#clipPath444)" id="g442"><text id="text448" style="font-variant:normal;font-weight:normal;font-size:13.19999981px;font-family:Calibri;-inkscape-font-specification:Calibri;writing-mode:lr-tb;fill:#595959;fill-opacity:1;fill-rule:nonzero;stroke:none" transform="matrix(-4.4e-8,1,1,4.4e-8,591.5,175.54)"><tspan id="tspan450" y="0" x="0 7.0356002 13.9656 20.393999 30.888 33.924 39.428398 45.751202 48.721199">Chemicals</tspan></text>
</g>
    </g>
    <g id="g452">
      <g clip-path="url(#clipPath456)" id="g454"><text id="text460" style="font-variant:normal;font-weight:normal;font-size:13.17599964px;font-family:Calibri;-inkscape-font-specification:Calibri;writing-mode:lr-tb;fill:#595959;fill-opacity:1;fill-rule:nonzero;stroke:none" transform="matrix(-4.4e-8,1,1,4.4e-8,612.89,188.52)"><tspan id="tspan462" y="0" x="0 8.3799362 12.728016 15.863904 18.841681 21.819456 26.167536 29.145311 35.706959">Utilities</tspan></text>
</g>
    </g>
    <g id="g464">
      <g clip-path="url(#clipPath468)" id="g466"><text id="text472" style="font-variant:normal;font-weight:normal;font-size:13.17599964px;font-family:Calibri;-inkscape-font-specification:Calibri;writing-mode:lr-tb;fill:#595959;fill-opacity:1;fill-rule:nonzero;stroke:none" transform="matrix(-4.4e-8,1,1,4.4e-8,634.25,207.46)"><tspan id="tspan474" y="0" x="0 8.2086477 14.95476">HPC</tspan></text>
</g>
    </g>
    <g id="g476">
      <g clip-path="url(#clipPath480)" id="g478"><text id="text484" style="font-variant:normal;font-weight:normal;font-size:13.17599964px;font-family:Calibri;-inkscape-font-specification:Calibri;writing-mode:lr-tb;fill:#595959;fill-opacity:1;fill-rule:nonzero;stroke:none" transform="matrix(-4.4e-8,1,1,4.4e-8,655.61,198.02)"><tspan id="tspan486" y="0" x="0 11.26548 20.067047">M&amp;M</tspan></text>
</g>
    </g>
    <g id="g488">
      <g clip-path="url(#clipPath492)" id="g490"><text id="text496" style="font-variant:normal;font-weight:normal;font-size:13.17599964px;font-family:Calibri;-inkscape-font-specification:Calibri;writing-mode:lr-tb;fill:#595959;fill-opacity:1;fill-rule:nonzero;stroke:none" transform="matrix(-4.4e-8,1,1,4.4e-8,676.97,206.88)"><tspan id="tspan498" y="0" x="0 6.7461119 15.732144">P&amp;P</tspan></text>
</g>
    </g>
    <g id="g500">
      <g clip-path="url(#clipPath504)" id="g502"><text id="text508" style="font-variant:normal;font-weight:normal;font-size:13.19999981px;font-family:Calibri;-inkscape-font-specification:Calibri;writing-mode:lr-tb;fill:#595959;fill-opacity:1;fill-rule:nonzero;stroke:none" transform="matrix(-4.4e-8,1,1,4.4e-8,698.33,188.11)"><tspan id="tspan510" y="0" x="0 6.7452002 13.6356 19.958401 24.565201 35.072399">Pharma</tspan></text>
</g>
    </g>
    <g id="g512">
      <g clip-path="url(#clipPath516)" id="g514"><text id="text520" style="font-variant:normal;font-weight:normal;font-size:13.17599964px;font-family:Calibri;-inkscape-font-specification:Calibri;writing-mode:lr-tb;fill:#595959;fill-opacity:1;fill-rule:nonzero;stroke:none" transform="matrix(-4.4e-8,1,1,4.4e-8,719.71,192.89)"><tspan id="tspan522" y="0" x="0 6.4298878 13.347288 19.82988 24.467833 30.607847">Energy</tspan></text>
</g>
    </g>
    <path id="path524" style="fill:#137cb1;fill-opacity:1;fill-rule:evenodd;stroke:none" d="m 127.62,126.02 8.2281,0 0,8.2281 -8.2281,0 0,-8.2281 z"/>
    <g id="g526">
      <g clip-path="url(#clipPath530)" id="g528"><text id="text534" style="font-variant:normal;font-weight:normal;font-size:14.97599983px;font-family:Calibri;-inkscape-font-specification:Calibri;writing-mode:lr-tb;fill:#595959;fill-opacity:1;fill-rule:nonzero;stroke:none" transform="matrix(1,0,0,-1,139.51,125.78)"><tspan id="tspan536" y="0" x="0 6.8739839 10.318464 17.37216 25.309441 28.75392 33.246719 36.6912 43.026047 50.199551 58.121857">Significant</tspan></text>
</g>
    </g>
    <path id="path538" style="fill:#a8d7e2;fill-opacity:1;fill-rule:evenodd;stroke:none" d="m 278.33,126.02 8.2281,0 0,8.2281 -8.2281,0 0,-8.2281 z"/>
    <g id="g540">
      <g clip-path="url(#clipPath544)" id="g542"><text id="text548" style="font-variant:normal;font-weight:normal;font-size:14.97599983px;font-family:Calibri;-inkscape-font-specification:Calibri;writing-mode:lr-tb;fill:#595959;fill-opacity:1;fill-rule:nonzero;stroke:none" transform="matrix(1,0,0,-1,290.26,125.78)"><tspan id="tspan550" y="0" x="0 12.849408 20.621952 28.52928 35.987328 41.109119 48.282623 53.359489">Moderate</tspan></text>
</g>
    </g>
    <path id="path552" style="fill:#eacc80;fill-opacity:1;fill-rule:evenodd;stroke:none" d="m 426.85,126.02 8.2281,0 0,8.2281 -8.2281,0 0,-8.2281 z"/>
    <g id="g554">
      <g clip-path="url(#clipPath558)" id="g556"><text id="text562" style="font-variant:normal;font-weight:normal;font-size:14.97599983px;font-family:Calibri;-inkscape-font-specification:Calibri;writing-mode:lr-tb;fill:#595959;fill-opacity:1;fill-rule:nonzero;stroke:none" transform="matrix(1,0,0,-1,438.79,125.78)"><tspan id="tspan564" y="0" x="0 3.773952 11.666304 17.521919 20.9664 27.960192 35.732735 39.177216 43.774849 47.21933 53.49427 60.667774 68.605057">Insignificant</tspan></text>
</g>
    </g>
    <path id="path566" style="fill:#bfbfbf;fill-opacity:1;fill-rule:evenodd;stroke:none" d="m 588.18,126.02 8.2281,0 0,8.2281 -8.2281,0 0,-8.2281 z"/>
    <g id="g568">
      <g clip-path="url(#clipPath572)" id="g570"><text id="text576" style="font-variant:normal;font-weight:normal;font-size:14.97599983px;font-family:Calibri;-inkscape-font-specification:Calibri;writing-mode:lr-tb;fill:#595959;fill-opacity:1;fill-rule:nonzero;stroke:none" transform="matrix(1,0,0,-1,600.14,125.78)"><tspan id="tspan578" y="0" x="0 9.2701445 17.072639 24.994944 28.30464 33.231743 36.676224 43.550209 51.352703 59.275009">Don't know</tspan></text>
</g>
    </g>
    <g id="g580">
      <g clip-path="url(#clipPath584)" id="g582"><text id="text588" style="font-style:italic;font-variant:normal;font-weight:normal;font-size:17.52000046px;font-family:Calibri;-inkscape-font-specification:Calibri-Italic;writing-mode:lr-tb;fill:#000000;fill-opacity:1;fill-rule:nonzero;stroke:none" transform="matrix(1,0,0,-1,59.448,468.58)"><tspan id="tspan590" y="0" x="0 9.0052795 15.01464 24.002399 33.007679 39.01704 43.046638 51.4212 57.290401 66.295677 72.305038 80.136482 84.025917 93.01368 99.023041 102.98256 111.98784 116.01744 121.88664 130.2612 136.27055 145.27583 154.28111 160.15031 164.17992 171.99384 180.36839 184.27536 193.28064 202.28592 208.15512 217.1604 221.17249 225.20209 239.14799 248.15327 257.15857 264.44687 270.31607 274.11792 280.12729 288.50183 296.31577 304.69031 313.69559 322.70087 331.07544 334.87729 343.86505 349.87439 353.83392 367.69223 376.69751 382.70688 391.71216 395.74176 404.74704 408.70657 417.71185 423.72119 432.70895 445.28833 451.15753 460.16281 464.05225 476.63159 485.63687 494.01144 503.01672 506.80103 510.83063 519.2052 527.0191 535.44623 541.45563 550.46088 559.46619 567.8407 576.84601 580.61279 589.6181 597.44952 601.44409 611.62323">Proprietary or alternative data impact revenue or margin growth when leveraged by AI</tspan></text>
</g>
    </g>
  </g>
</svg>
