<?xml version="1.0" encoding="UTF-8" standalone="no"?>
<svg xmlns:dc="http://purl.org/dc/elements/1.1/" xmlns:cc="http://creativecommons.org/ns#" xmlns:rdf="http://www.w3.org/1999/02/22-rdf-syntax-ns#" xmlns:svg="http://www.w3.org/2000/svg" xmlns="http://www.w3.org/2000/svg" viewBox="66.405 432.475 650.59875 296.2125" height="296.2125" width="650.59875" xml:space="preserve" version="1.1" id="svg2">
  <metadata id="metadata8">
    <rdf:RDF>
      <cc:Work rdf:about="">
        <dc:format>image/svg+xml</dc:format>
        <dc:type rdf:resource="http://purl.org/dc/dcmitype/StillImage"/>
      </cc:Work>
    </rdf:RDF>
  </metadata>
  <defs id="defs6">
    <clipPath id="clipPath16" clipPathUnits="userSpaceOnUse">
      <path style="clip-rule:evenodd" id="path18" d="m 53.053,303.28 520.55,0 0,236.97 -520.55,0 0,-236.97 z"/>
    </clipPath>
    <clipPath id="clipPath26" clipPathUnits="userSpaceOnUse">
      <path style="clip-rule:evenodd" id="path28" d="m 53.053,303.28 520.55,0 0,236.97 -520.55,0 0,-236.97 z"/>
    </clipPath>
    <clipPath id="clipPath38" clipPathUnits="userSpaceOnUse">
      <path style="clip-rule:evenodd" id="path40" d="m 98.949,328 460.97,0 0,181.36 -460.97,0 0,-181.36 z"/>
    </clipPath>
    <clipPath id="clipPath62" clipPathUnits="userSpaceOnUse">
      <path style="clip-rule:evenodd" id="path64" d="m 53.179,303.28 520.42,0 0,236.97 -520.42,0 0,-236.97 z"/>
    </clipPath>
    <clipPath id="clipPath74" clipPathUnits="userSpaceOnUse">
      <path style="clip-rule:evenodd" id="path76" d="m 53.179,303.28 520.42,0 0,236.97 -520.42,0 0,-236.97 z"/>
    </clipPath>
    <clipPath id="clipPath86" clipPathUnits="userSpaceOnUse">
      <path style="clip-rule:evenodd" id="path88" d="m 53.179,303.28 520.42,0 0,236.97 -520.42,0 0,-236.97 z"/>
    </clipPath>
    <clipPath id="clipPath98" clipPathUnits="userSpaceOnUse">
      <path style="clip-rule:evenodd" id="path100" d="m 53.179,303.28 520.42,0 0,236.97 -520.42,0 0,-236.97 z"/>
    </clipPath>
    <clipPath id="clipPath110" clipPathUnits="userSpaceOnUse">
      <path style="clip-rule:evenodd" id="path112" d="m 53.179,303.28 520.42,0 0,236.97 -520.42,0 0,-236.97 z"/>
    </clipPath>
    <clipPath id="clipPath122" clipPathUnits="userSpaceOnUse">
      <path style="clip-rule:evenodd" id="path124" d="m 53.179,303.28 520.42,0 0,236.97 -520.42,0 0,-236.97 z"/>
    </clipPath>
    <clipPath id="clipPath134" clipPathUnits="userSpaceOnUse">
      <path style="clip-rule:evenodd" id="path136" d="m 53.179,303.28 520.42,0 0,236.97 -520.42,0 0,-236.97 z"/>
    </clipPath>
    <clipPath id="clipPath146" clipPathUnits="userSpaceOnUse">
      <path style="clip-rule:evenodd" id="path148" d="m 53.179,303.28 520.42,0 0,236.97 -520.42,0 0,-236.97 z"/>
    </clipPath>
    <clipPath id="clipPath158" clipPathUnits="userSpaceOnUse">
      <path style="clip-rule:evenodd" id="path160" d="m 53.179,303.28 520.42,0 0,236.97 -520.42,0 0,-236.97 z"/>
    </clipPath>
    <clipPath id="clipPath170" clipPathUnits="userSpaceOnUse">
      <path style="clip-rule:evenodd" id="path172" d="m 53.179,303.28 520.42,0 0,236.97 -520.42,0 0,-236.97 z"/>
    </clipPath>
    <clipPath id="clipPath182" clipPathUnits="userSpaceOnUse">
      <path style="clip-rule:evenodd" id="path184" d="m 53.179,303.28 520.42,0 0,236.97 -520.42,0 0,-236.97 z"/>
    </clipPath>
    <clipPath id="clipPath194" clipPathUnits="userSpaceOnUse">
      <path style="clip-rule:evenodd" id="path196" d="m 53.179,303.28 520.42,0 0,236.97 -520.42,0 0,-236.97 z"/>
    </clipPath>
    <clipPath id="clipPath206" clipPathUnits="userSpaceOnUse">
      <path style="clip-rule:evenodd" id="path208" d="m 53.179,303.28 520.42,0 0,236.97 -520.42,0 0,-236.97 z"/>
    </clipPath>
    <clipPath id="clipPath218" clipPathUnits="userSpaceOnUse">
      <path style="clip-rule:evenodd" id="path220" d="m 53.179,303.28 520.42,0 0,236.97 -520.42,0 0,-236.97 z"/>
    </clipPath>
    <clipPath id="clipPath230" clipPathUnits="userSpaceOnUse">
      <path style="clip-rule:evenodd" id="path232" d="m 53.179,303.28 520.42,0 0,236.97 -520.42,0 0,-236.97 z"/>
    </clipPath>
    <clipPath id="clipPath242" clipPathUnits="userSpaceOnUse">
      <path style="clip-rule:evenodd" id="path244" d="m 53.179,303.28 520.42,0 0,236.97 -520.42,0 0,-236.97 z"/>
    </clipPath>
    <clipPath id="clipPath254" clipPathUnits="userSpaceOnUse">
      <path style="clip-rule:evenodd" id="path256" d="m 53.179,303.28 520.42,0 0,236.97 -520.42,0 0,-236.97 z"/>
    </clipPath>
    <clipPath id="clipPath266" clipPathUnits="userSpaceOnUse">
      <path style="clip-rule:evenodd" id="path268" d="m 53.179,303.28 520.42,0 0,236.97 -520.42,0 0,-236.97 z"/>
    </clipPath>
    <clipPath id="clipPath278" clipPathUnits="userSpaceOnUse">
      <path style="clip-rule:evenodd" id="path280" d="m 53.179,303.28 520.42,0 0,236.97 -520.42,0 0,-236.97 z"/>
    </clipPath>
    <clipPath id="clipPath290" clipPathUnits="userSpaceOnUse">
      <path style="clip-rule:evenodd" id="path292" d="m 53.179,303.28 520.42,0 0,236.97 -520.42,0 0,-236.97 z"/>
    </clipPath>
    <clipPath id="clipPath302" clipPathUnits="userSpaceOnUse">
      <path style="clip-rule:evenodd" id="path304" d="m 53.179,303.28 520.42,0 0,236.97 -520.42,0 0,-236.97 z"/>
    </clipPath>
    <clipPath id="clipPath314" clipPathUnits="userSpaceOnUse">
      <path style="clip-rule:evenodd" id="path316" d="m 53.179,303.28 520.42,0 0,236.97 -520.42,0 0,-236.97 z"/>
    </clipPath>
    <clipPath id="clipPath326" clipPathUnits="userSpaceOnUse">
      <path style="clip-rule:evenodd" id="path328" d="m 53.179,303.28 520.42,0 0,236.97 -520.42,0 0,-236.97 z"/>
    </clipPath>
    <clipPath id="clipPath338" clipPathUnits="userSpaceOnUse">
      <path style="clip-rule:evenodd" id="path340" d="m 53.179,303.28 520.42,0 0,236.97 -520.42,0 0,-236.97 z"/>
    </clipPath>
    <clipPath id="clipPath350" clipPathUnits="userSpaceOnUse">
      <path style="clip-rule:evenodd" id="path352" d="m 53.179,303.28 520.42,0 0,236.97 -520.42,0 0,-236.97 z"/>
    </clipPath>
    <clipPath id="clipPath362" clipPathUnits="userSpaceOnUse">
      <path style="clip-rule:evenodd" id="path364" d="m 53.179,303.28 520.42,0 0,236.97 -520.42,0 0,-236.97 z"/>
    </clipPath>
    <clipPath id="clipPath374" clipPathUnits="userSpaceOnUse">
      <path style="clip-rule:evenodd" id="path376" d="m 53.179,303.28 520.42,0 0,236.97 -520.42,0 0,-236.97 z"/>
    </clipPath>
    <clipPath id="clipPath386" clipPathUnits="userSpaceOnUse">
      <path style="clip-rule:evenodd" id="path388" d="m 53.179,303.28 520.42,0 0,236.97 -520.42,0 0,-236.97 z"/>
    </clipPath>
    <clipPath id="clipPath398" clipPathUnits="userSpaceOnUse">
      <path style="clip-rule:evenodd" id="path400" d="m 53.179,303.28 520.42,0 0,236.97 -520.42,0 0,-236.97 z"/>
    </clipPath>
    <clipPath id="clipPath410" clipPathUnits="userSpaceOnUse">
      <path style="clip-rule:evenodd" id="path412" d="m 53.179,303.28 520.42,0 0,236.97 -520.42,0 0,-236.97 z"/>
    </clipPath>
    <clipPath id="clipPath422" clipPathUnits="userSpaceOnUse">
      <path style="clip-rule:evenodd" id="path424" d="m 53.179,303.28 520.42,0 0,236.97 -520.42,0 0,-236.97 z"/>
    </clipPath>
    <clipPath id="clipPath434" clipPathUnits="userSpaceOnUse">
      <path style="clip-rule:evenodd" id="path436" d="m 53.179,303.28 520.42,0 0,236.97 -520.42,0 0,-236.97 z"/>
    </clipPath>
    <clipPath id="clipPath446" clipPathUnits="userSpaceOnUse">
      <path style="clip-rule:evenodd" id="path448" d="m 53.179,303.28 520.42,0 0,236.97 -520.42,0 0,-236.97 z"/>
    </clipPath>
    <clipPath id="clipPath458" clipPathUnits="userSpaceOnUse">
      <path style="clip-rule:evenodd" id="path460" d="m 53.179,303.28 520.42,0 0,236.97 -520.42,0 0,-236.97 z"/>
    </clipPath>
    <clipPath id="clipPath470" clipPathUnits="userSpaceOnUse">
      <path style="clip-rule:evenodd" id="path472" d="m 53.179,303.28 520.42,0 0,236.97 -520.42,0 0,-236.97 z"/>
    </clipPath>
    <clipPath id="clipPath482" clipPathUnits="userSpaceOnUse">
      <path style="clip-rule:evenodd" id="path484" d="m 53.179,303.28 520.42,0 0,236.97 -520.42,0 0,-236.97 z"/>
    </clipPath>
    <clipPath id="clipPath494" clipPathUnits="userSpaceOnUse">
      <path style="clip-rule:evenodd" id="path496" d="m 53.179,303.28 520.42,0 0,236.97 -520.42,0 0,-236.97 z"/>
    </clipPath>
    <clipPath id="clipPath506" clipPathUnits="userSpaceOnUse">
      <path style="clip-rule:evenodd" id="path508" d="m 53.179,303.28 520.42,0 0,236.97 -520.42,0 0,-236.97 z"/>
    </clipPath>
    <clipPath id="clipPath518" clipPathUnits="userSpaceOnUse">
      <path style="clip-rule:evenodd" id="path520" d="m 53.179,303.28 520.42,0 0,236.97 -520.42,0 0,-236.97 z"/>
    </clipPath>
    <clipPath id="clipPath530" clipPathUnits="userSpaceOnUse">
      <path style="clip-rule:evenodd" id="path532" d="m 53.179,303.28 520.42,0 0,236.97 -520.42,0 0,-236.97 z"/>
    </clipPath>
    <clipPath id="clipPath542" clipPathUnits="userSpaceOnUse">
      <path style="clip-rule:evenodd" id="path544" d="m 53.179,303.28 520.42,0 0,236.97 -520.42,0 0,-236.97 z"/>
    </clipPath>
    <clipPath id="clipPath554" clipPathUnits="userSpaceOnUse">
      <path style="clip-rule:evenodd" id="path556" d="m 53.179,303.28 520.42,0 0,236.97 -520.42,0 0,-236.97 z"/>
    </clipPath>
    <clipPath id="clipPath566" clipPathUnits="userSpaceOnUse">
      <path style="clip-rule:evenodd" id="path568" d="m 53.179,303.28 520.42,0 0,236.97 -520.42,0 0,-236.97 z"/>
    </clipPath>
    <clipPath id="clipPath578" clipPathUnits="userSpaceOnUse">
      <path style="clip-rule:evenodd" id="path580" d="m 53.179,303.28 520.42,0 0,236.97 -520.42,0 0,-236.97 z"/>
    </clipPath>
    <clipPath id="clipPath590" clipPathUnits="userSpaceOnUse">
      <path style="clip-rule:evenodd" id="path592" d="m 53.179,303.28 520.42,0 0,236.97 -520.42,0 0,-236.97 z"/>
    </clipPath>
    <clipPath id="clipPath602" clipPathUnits="userSpaceOnUse">
      <path style="clip-rule:evenodd" id="path604" d="m 53.179,303.28 520.42,0 0,236.97 -520.42,0 0,-236.97 z"/>
    </clipPath>
    <clipPath id="clipPath614" clipPathUnits="userSpaceOnUse">
      <path style="clip-rule:evenodd" id="path616" d="m 53.179,303.28 520.42,0 0,236.97 -520.42,0 0,-236.97 z"/>
    </clipPath>
    <clipPath id="clipPath626" clipPathUnits="userSpaceOnUse">
      <path style="clip-rule:evenodd" id="path628" d="m 53.179,303.28 520.42,0 0,236.97 -520.42,0 0,-236.97 z"/>
    </clipPath>
    <clipPath id="clipPath642" clipPathUnits="userSpaceOnUse">
      <path style="clip-rule:evenodd" id="path644" d="m 53.179,303.28 520.42,0 0,236.97 -520.42,0 0,-236.97 z"/>
    </clipPath>
    <clipPath id="clipPath658" clipPathUnits="userSpaceOnUse">
      <path style="clip-rule:evenodd" id="path660" d="m 53.179,303.28 520.42,0 0,236.97 -520.42,0 0,-236.97 z"/>
    </clipPath>
    <clipPath id="clipPath674" clipPathUnits="userSpaceOnUse">
      <path style="clip-rule:evenodd" id="path676" d="m 53.179,303.28 520.42,0 0,236.97 -520.42,0 0,-236.97 z"/>
    </clipPath>
    <clipPath id="clipPath690" clipPathUnits="userSpaceOnUse">
      <path style="clip-rule:evenodd" id="path692" d="m 53.179,303.28 520.42,0 0,236.97 -520.42,0 0,-236.97 z"/>
    </clipPath>
    <clipPath id="clipPath702" clipPathUnits="userSpaceOnUse">
      <path style="clip-rule:evenodd" id="path704" d="m 53.179,504.51 112.04,0 0,32.716 -112.04,0 0,-32.716 z"/>
    </clipPath>
  </defs>
  <g transform="matrix(1.25,0,0,-1.25,0,1107.7875)" id="g10">
    <g id="g12">
      <g clip-path="url(#clipPath16)" id="g14">
        <path id="path20" style="fill:none;stroke:#000000;stroke-width:0.14;stroke-linecap:butt;stroke-linejoin:miter;stroke-miterlimit:10;stroke-dasharray:none;stroke-opacity:0" d="m 53.194,303.23 520.41,0 0,236.95 -520.41,0 0,-236.95 z"/>
      </g>
    </g>
    <g id="g22">
      <g clip-path="url(#clipPath26)" id="g24">
        <path id="path30" style="fill:#ffffff;fill-opacity:1;fill-rule:evenodd;stroke:none" d="m 53.194,303.23 520.41,0 0,236.95 -520.41,0 0,-236.95 z"/>
      </g>
    </g>
    <path id="path32" style="fill:#f4e3e7;fill-opacity:1;fill-rule:nonzero;stroke:none" d="m 108.69,374.81 46.36,0 0,-46.13 -46.36,0 0,46.13 z m 65.76,-1.1 46.23,0 0,-45.03 -46.23,0 0,45.03 z m 65.77,1.1 46.22,0 0,-46.13 -46.22,0 0,46.13 z m 65.76,1.78 46.23,0 0,-47.91 -46.23,0 0,47.91 z m 65.77,2.34 46.22,0 0,-50.25 -46.22,0 0,50.25 z m 65.76,1.52 46.23,0 0,-51.77 -46.23,0 0,51.77 z m 65.63,1.51 46.36,0 0,-53.28 -46.36,0 0,53.28 z"/>
    <g id="g34">
      <g clip-path="url(#clipPath38)" id="g36">
        <path id="path42" style="fill:none;stroke:#000000;stroke-width:1.36170006;stroke-linecap:butt;stroke-linejoin:round;stroke-miterlimit:10;stroke-dasharray:none;stroke-opacity:1" d="m 108.69,374.81 46.36,0 0,-46.13 -46.36,0 0,46.13 z m 65.76,-1.1 46.23,0 0,-45.03 -46.23,0 0,45.03 z m 65.77,1.1 46.22,0 0,-46.13 -46.22,0 0,46.13 z m 65.76,1.78 46.23,0 0,-47.91 -46.23,0 0,47.91 z m 65.77,2.34 46.22,0 0,-50.25 -46.22,0 0,50.25 z m 65.76,1.52 46.23,0 0,-51.77 -46.23,0 0,51.77 z m 65.63,1.51 46.36,0 0,-53.28 -46.36,0 0,53.28 z"/>
      </g>
    </g>
    <path id="path44" style="fill:#eadfbc;fill-opacity:1;fill-rule:nonzero;stroke:none" d="m 108.69,422.82 46.36,0 0,-48.01 -46.36,0 0,48.01 z m 65.76,0.28 46.23,0 0,-49.39 -46.23,0 0,49.39 z m 65.77,3.3 46.22,0 0,-51.59 -46.22,0 0,51.59 z m 65.76,4.13 46.23,0 0,-53.94 -46.23,0 0,53.94 z m 65.77,4.54 46.22,0 0,-56.14 -46.22,0 0,56.14 z m 65.76,3.71 46.23,0 0,-58.33 -46.23,0 0,58.33 z m 65.63,3.85 46.36,0 0,-60.67 -46.36,0 0,60.67 z"/>
    <path id="path46" style="fill:none;stroke:#000000;stroke-width:1.36170006;stroke-linecap:butt;stroke-linejoin:round;stroke-miterlimit:10;stroke-dasharray:none;stroke-opacity:1" d="m 108.69,422.82 46.36,0 0,-48.01 -46.36,0 0,48.01 z m 65.76,0.28 46.23,0 0,-49.39 -46.23,0 0,49.39 z m 65.77,3.3 46.22,0 0,-51.59 -46.22,0 0,51.59 z m 65.76,4.13 46.23,0 0,-53.94 -46.23,0 0,53.94 z m 65.77,4.54 46.22,0 0,-56.14 -46.22,0 0,56.14 z m 65.76,3.71 46.23,0 0,-58.33 -46.23,0 0,58.33 z m 65.63,3.85 46.36,0 0,-60.67 -46.36,0 0,60.67 z"/>
    <path id="path48" style="fill:#93decc;fill-opacity:1;fill-rule:nonzero;stroke:none" d="m 108.69,441.12 46.36,0 0,-18.3 -46.36,0 0,18.3 z m 65.76,-0.27 46.23,0 0,-17.75 -46.23,0 0,17.75 z m 65.77,6.05 46.22,0 0,-20.5 -46.22,0 0,20.5 z m 65.76,7.15 46.23,0 0,-23.52 -46.23,0 0,23.52 z m 65.77,8.67 46.22,0 0,-27.65 -46.22,0 0,27.65 z m 65.76,8.94 46.23,0 0,-32.88 -46.23,0 0,32.88 z m 65.63,9.36 46.36,0 0,-38.39 -46.36,0 0,38.39 z"/>
    <path id="path50" style="fill:none;stroke:#000000;stroke-width:1.36170006;stroke-linecap:butt;stroke-linejoin:round;stroke-miterlimit:10;stroke-dasharray:none;stroke-opacity:1" d="m 108.69,441.12 46.36,0 0,-18.3 -46.36,0 0,18.3 z m 65.76,-0.27 46.23,0 0,-17.75 -46.23,0 0,17.75 z m 65.77,6.05 46.22,0 0,-20.5 -46.22,0 0,20.5 z m 65.76,7.15 46.23,0 0,-23.52 -46.23,0 0,23.52 z m 65.77,8.67 46.22,0 0,-27.65 -46.22,0 0,27.65 z m 65.76,8.94 46.23,0 0,-32.88 -46.23,0 0,32.88 z m 65.63,9.36 46.36,0 0,-38.39 -46.36,0 0,38.39 z"/>
    <path id="path52" style="fill:#873246;fill-opacity:1;fill-rule:nonzero;stroke:none" d="m 108.69,454.47 46.36,0 0,-13.35 -46.36,0 0,13.35 z m 65.76,0.55 46.23,0 0,-14.17 -46.23,0 0,14.17 z m 65.77,7.01 46.22,0 0,-15.13 -46.22,0 0,15.13 z m 65.76,8.12 46.23,0 0,-16.1 -46.23,0 0,16.1 z m 65.77,9.77 46.22,0 0,-17.2 -46.22,0 0,17.2 z m 65.76,9.91 46.23,0 0,-18.17 -46.23,0 0,18.17 z m 65.63,10.31 46.36,0 0,-19.12 -46.36,0 0,19.12 z"/>
    <path id="path54" style="fill:none;stroke:#000000;stroke-width:1.36170006;stroke-linecap:butt;stroke-linejoin:round;stroke-miterlimit:10;stroke-dasharray:none;stroke-opacity:1" d="m 108.69,454.47 46.36,0 0,-13.35 -46.36,0 0,13.35 z m 65.76,0.55 46.23,0 0,-14.17 -46.23,0 0,14.17 z m 65.77,7.01 46.22,0 0,-15.13 -46.22,0 0,15.13 z m 65.76,8.12 46.23,0 0,-16.1 -46.23,0 0,16.1 z m 65.77,9.77 46.22,0 0,-17.2 -46.22,0 0,17.2 z m 65.76,9.91 46.23,0 0,-18.17 -46.23,0 0,18.17 z m 65.63,10.31 46.36,0 0,-19.12 -46.36,0 0,19.12 z"/>
    <path id="path56" style="fill:none;stroke:#d9d9d9;stroke-width:0.81700999;stroke-linecap:butt;stroke-linejoin:round;stroke-miterlimit:10;stroke-dasharray:none;stroke-opacity:1" d="m 98.961,328.68 460.259,0"/>
    <g id="g58">
      <g clip-path="url(#clipPath62)" id="g60"><text id="text66" style="font-variant:normal;font-weight:bold;font-size:9.76840019px;font-family:Calibri;-inkscape-font-specification:Calibri-Bold;writing-mode:lr-tb;fill:#000000;fill-opacity:1;fill-rule:nonzero;stroke:none" transform="matrix(1,0,0,-1,125.45,348.32)"><tspan id="tspan68" y="0" x="0 4.968379 9.936758 14.905136">230 </tspan></text>
</g>
    </g>
    <g id="g70">
      <g clip-path="url(#clipPath74)" id="g72"><text id="text78" style="font-variant:normal;font-weight:bold;font-size:9.78950024px;font-family:Calibri;-inkscape-font-specification:Calibri-Bold;writing-mode:lr-tb;fill:#000000;fill-opacity:1;fill-rule:nonzero;stroke:none" transform="matrix(1,0,0,-1,191.22,347.79)"><tspan id="tspan80" y="0" x="0 4.9684367 9.9368734 14.90531">225 </tspan></text>
</g>
    </g>
    <g id="g82">
      <g clip-path="url(#clipPath86)" id="g84"><text id="text90" style="font-variant:normal;font-weight:bold;font-size:9.78950024px;font-family:Calibri;-inkscape-font-specification:Calibri-Bold;writing-mode:lr-tb;fill:#000000;fill-opacity:1;fill-rule:nonzero;stroke:none" transform="matrix(1,0,0,-1,256.99,348.34)"><tspan id="tspan92" y="0" x="0 4.9684367 9.9368734 14.90531">230 </tspan></text>
</g>
    </g>
    <g id="g94">
      <g clip-path="url(#clipPath98)" id="g96"><text id="text102" style="font-variant:normal;font-weight:bold;font-size:9.76840019px;font-family:Calibri;-inkscape-font-specification:Calibri-Bold;writing-mode:lr-tb;fill:#000000;fill-opacity:1;fill-rule:nonzero;stroke:none" transform="matrix(1,0,0,-1,322.76,349.2)"><tspan id="tspan104" y="0" x="0 4.9473586 9.8947172 14.842076">239 </tspan></text>
</g>
    </g>
    <g id="g106">
      <g clip-path="url(#clipPath110)" id="g108"><text id="text114" style="font-variant:normal;font-weight:bold;font-size:9.76840019px;font-family:Calibri;-inkscape-font-specification:Calibri-Bold;writing-mode:lr-tb;fill:#000000;fill-opacity:1;fill-rule:nonzero;stroke:none" transform="matrix(1,0,0,-1,388.53,350.36)"><tspan id="tspan116" y="0" x="0 4.9473586 9.8947172 14.842076">250 </tspan></text>
</g>
    </g>
    <g id="g118">
      <g clip-path="url(#clipPath122)" id="g120"><text id="text126" style="font-variant:normal;font-weight:bold;font-size:9.78950024px;font-family:Calibri;-inkscape-font-specification:Calibri-Bold;writing-mode:lr-tb;fill:#000000;fill-opacity:1;fill-rule:nonzero;stroke:none" transform="matrix(1,0,0,-1,454.29,351.14)"><tspan id="tspan128" y="0" x="0 4.9473767 9.8947535 14.84213">258 </tspan></text>
</g>
    </g>
    <g id="g130">
      <g clip-path="url(#clipPath134)" id="g132"><text id="text138" style="font-variant:normal;font-weight:bold;font-size:9.76840019px;font-family:Calibri;-inkscape-font-specification:Calibri-Bold;writing-mode:lr-tb;fill:#000000;fill-opacity:1;fill-rule:nonzero;stroke:none" transform="matrix(1,0,0,-1,520.06,351.87)"><tspan id="tspan140" y="0" x="0 4.9473586 9.8947172 14.842076">265 </tspan></text>
</g>
    </g>
    <g id="g142">
      <g clip-path="url(#clipPath146)" id="g144"><text id="text150" style="font-variant:normal;font-weight:bold;font-size:9.76840019px;font-family:Calibri;-inkscape-font-specification:Calibri-Bold;writing-mode:lr-tb;fill:#000000;fill-opacity:1;fill-rule:nonzero;stroke:none" transform="matrix(1,0,0,-1,125.45,395.41)"><tspan id="tspan152" y="0" x="0 4.968379 9.936758 14.905136">239 </tspan></text>
</g>
    </g>
    <g id="g154">
      <g clip-path="url(#clipPath158)" id="g156"><text id="text162" style="font-variant:normal;font-weight:bold;font-size:9.76840019px;font-family:Calibri;-inkscape-font-specification:Calibri-Bold;writing-mode:lr-tb;fill:#000000;fill-opacity:1;fill-rule:nonzero;stroke:none" transform="matrix(1,0,0,-1,191.22,394.97)"><tspan id="tspan164" y="0" x="0 4.968379 9.936758 14.905136">246 </tspan></text>
</g>
    </g>
    <g id="g166">
      <g clip-path="url(#clipPath170)" id="g168"><text id="text174" style="font-variant:normal;font-weight:bold;font-size:9.76840019px;font-family:Calibri;-inkscape-font-specification:Calibri-Bold;writing-mode:lr-tb;fill:#000000;fill-opacity:1;fill-rule:nonzero;stroke:none" transform="matrix(1,0,0,-1,256.99,397.18)"><tspan id="tspan176" y="0" x="0 4.968379 9.936758 14.905136">257 </tspan></text>
</g>
    </g>
    <g id="g178">
      <g clip-path="url(#clipPath182)" id="g180"><text id="text186" style="font-variant:normal;font-weight:bold;font-size:9.76840019px;font-family:Calibri;-inkscape-font-specification:Calibri-Bold;writing-mode:lr-tb;fill:#000000;fill-opacity:1;fill-rule:nonzero;stroke:none" transform="matrix(1,0,0,-1,322.76,400.13)"><tspan id="tspan188" y="0" x="0 4.9473586 9.8947172 14.842076">269 </tspan></text>
</g>
    </g>
    <g id="g190">
      <g clip-path="url(#clipPath194)" id="g192"><text id="text198" style="font-variant:normal;font-weight:bold;font-size:9.76840019px;font-family:Calibri;-inkscape-font-specification:Calibri-Bold;writing-mode:lr-tb;fill:#000000;fill-opacity:1;fill-rule:nonzero;stroke:none" transform="matrix(1,0,0,-1,388.53,403.54)"><tspan id="tspan200" y="0" x="0 4.9473586 9.8947172 14.842076">280 </tspan></text>
</g>
    </g>
    <g id="g202">
      <g clip-path="url(#clipPath206)" id="g204"><text id="text210" style="font-variant:normal;font-weight:bold;font-size:9.76840019px;font-family:Calibri;-inkscape-font-specification:Calibri-Bold;writing-mode:lr-tb;fill:#000000;fill-opacity:1;fill-rule:nonzero;stroke:none" transform="matrix(1,0,0,-1,454.29,406.21)"><tspan id="tspan212" y="0" x="0 4.9473586 9.8947172 14.842076">291 </tspan></text>
</g>
    </g>
    <g id="g214">
      <g clip-path="url(#clipPath218)" id="g216"><text id="text222" style="font-variant:normal;font-weight:bold;font-size:9.76840019px;font-family:Calibri;-inkscape-font-specification:Calibri-Bold;writing-mode:lr-tb;fill:#000000;fill-opacity:1;fill-rule:nonzero;stroke:none" transform="matrix(1,0,0,-1,520.06,408.88)"><tspan id="tspan224" y="0" x="0 4.9473586 9.8947172 14.842076">303 </tspan></text>
</g>
    </g>
    <g id="g226">
      <g clip-path="url(#clipPath230)" id="g228"><text id="text234" style="font-variant:normal;font-weight:bold;font-size:9.76840019px;font-family:Calibri;-inkscape-font-specification:Calibri-Bold;writing-mode:lr-tb;fill:#000000;fill-opacity:1;fill-rule:nonzero;stroke:none" transform="matrix(1,0,0,-1,127.94,428.53)"><tspan id="tspan236" y="0" x="0 4.968379 9.936758">91 </tspan></text>
</g>
    </g>
    <g id="g238">
      <g clip-path="url(#clipPath242)" id="g240"><text id="text246" style="font-variant:normal;font-weight:bold;font-size:9.76840019px;font-family:Calibri;-inkscape-font-specification:Calibri-Bold;writing-mode:lr-tb;fill:#000000;fill-opacity:1;fill-rule:nonzero;stroke:none" transform="matrix(1,0,0,-1,193.71,428.51)"><tspan id="tspan248" y="0" x="0 4.9473586 9.8947172">88 </tspan></text>
</g>
    </g>
    <g id="g250">
      <g clip-path="url(#clipPath254)" id="g252"><text id="text258" style="font-variant:normal;font-weight:bold;font-size:9.76840019px;font-family:Calibri;-inkscape-font-specification:Calibri-Bold;writing-mode:lr-tb;fill:#000000;fill-opacity:1;fill-rule:nonzero;stroke:none" transform="matrix(1,0,0,-1,256.99,433.2)"><tspan id="tspan260" y="0" x="0 4.968379 9.936758 14.905136">102 </tspan></text>
</g>
    </g>
    <g id="g262">
      <g clip-path="url(#clipPath266)" id="g264"><text id="text270" style="font-variant:normal;font-weight:bold;font-size:9.76840019px;font-family:Calibri;-inkscape-font-specification:Calibri-Bold;writing-mode:lr-tb;fill:#000000;fill-opacity:1;fill-rule:nonzero;stroke:none" transform="matrix(1,0,0,-1,322.76,438.84)"><tspan id="tspan272" y="0" x="0 4.9473586 9.8947172 14.842076">117 </tspan></text>
</g>
    </g>
    <g id="g274">
      <g clip-path="url(#clipPath278)" id="g276"><text id="text282" style="font-variant:normal;font-weight:bold;font-size:9.76840019px;font-family:Calibri;-inkscape-font-specification:Calibri-Bold;writing-mode:lr-tb;fill:#000000;fill-opacity:1;fill-rule:nonzero;stroke:none" transform="matrix(1,0,0,-1,388.53,445.47)"><tspan id="tspan284" y="0" x="0 4.9473586 9.8947172 14.842076">138 </tspan></text>
</g>
    </g>
    <g id="g286">
      <g clip-path="url(#clipPath290)" id="g288"><text id="text294" style="font-variant:normal;font-weight:bold;font-size:9.78950024px;font-family:Calibri;-inkscape-font-specification:Calibri-Bold;writing-mode:lr-tb;fill:#000000;fill-opacity:1;fill-rule:nonzero;stroke:none" transform="matrix(1,0,0,-1,454.29,451.81)"><tspan id="tspan296" y="0" x="0 4.9473767 9.8947535 14.84213">163 </tspan></text>
</g>
    </g>
    <g id="g298">
      <g clip-path="url(#clipPath302)" id="g300"><text id="text306" style="font-variant:normal;font-weight:bold;font-size:9.76840019px;font-family:Calibri;-inkscape-font-specification:Calibri-Bold;writing-mode:lr-tb;fill:#000000;fill-opacity:1;fill-rule:nonzero;stroke:none" transform="matrix(1,0,0,-1,520.06,458.44)"><tspan id="tspan308" y="0" x="0 4.9473586 9.8947172 14.842076">191 </tspan></text>
</g>
    </g>
    <g id="g310">
      <g clip-path="url(#clipPath314)" id="g312"><text id="text318" style="font-variant:normal;font-weight:bold;font-size:9.76840019px;font-family:Calibri;-inkscape-font-specification:Calibri-Bold;writing-mode:lr-tb;fill:#ffffff;fill-opacity:1;fill-rule:nonzero;stroke:none" transform="matrix(1,0,0,-1,127.94,444.32)"><tspan id="tspan320" y="0" x="0 4.968379 9.936758">66 </tspan></text>
</g>
    </g>
    <g id="g322">
      <g clip-path="url(#clipPath326)" id="g324"><text id="text330" style="font-variant:normal;font-weight:bold;font-size:9.76840019px;font-family:Calibri;-inkscape-font-specification:Calibri-Bold;writing-mode:lr-tb;fill:#ffffff;fill-opacity:1;fill-rule:nonzero;stroke:none" transform="matrix(1,0,0,-1,193.71,444.46)"><tspan id="tspan332" y="0" x="0 4.9473586 9.8947172">71 </tspan></text>
</g>
    </g>
    <g id="g334">
      <g clip-path="url(#clipPath338)" id="g336"><text id="text342" style="font-variant:normal;font-weight:bold;font-size:9.78950024px;font-family:Calibri;-inkscape-font-specification:Calibri-Bold;writing-mode:lr-tb;fill:#ffffff;fill-opacity:1;fill-rule:nonzero;stroke:none" transform="matrix(1,0,0,-1,259.47,451.05)"><tspan id="tspan344" y="0" x="0 4.9473767 9.8947535">76 </tspan></text>
</g>
    </g>
    <g id="g346">
      <g clip-path="url(#clipPath350)" id="g348"><text id="text354" style="font-variant:normal;font-weight:bold;font-size:9.76840019px;font-family:Calibri;-inkscape-font-specification:Calibri-Bold;writing-mode:lr-tb;fill:#ffffff;fill-opacity:1;fill-rule:nonzero;stroke:none" transform="matrix(1,0,0,-1,325.24,458.65)"><tspan id="tspan356" y="0" x="0 4.9473586 9.8947172">80 </tspan></text>
</g>
    </g>
    <g id="g358">
      <g clip-path="url(#clipPath362)" id="g360"><text id="text366" style="font-variant:normal;font-weight:bold;font-size:9.76840019px;font-family:Calibri;-inkscape-font-specification:Calibri-Bold;writing-mode:lr-tb;fill:#ffffff;fill-opacity:1;fill-rule:nonzero;stroke:none" transform="matrix(1,0,0,-1,391.01,467.87)"><tspan id="tspan368" y="0" x="0 4.9473586 9.8947172">85 </tspan></text>
</g>
    </g>
    <g id="g370">
      <g clip-path="url(#clipPath374)" id="g372"><text id="text378" style="font-variant:normal;font-weight:bold;font-size:9.76840019px;font-family:Calibri;-inkscape-font-specification:Calibri-Bold;writing-mode:lr-tb;fill:#ffffff;fill-opacity:1;fill-rule:nonzero;stroke:none" transform="matrix(1,0,0,-1,456.76,477.28)"><tspan id="tspan380" y="0" x="0 4.968379 9.936758">91 </tspan></text>
</g>
    </g>
    <g id="g382">
      <g clip-path="url(#clipPath386)" id="g384"><text id="text390" style="font-variant:normal;font-weight:bold;font-size:9.76840019px;font-family:Calibri;-inkscape-font-specification:Calibri-Bold;writing-mode:lr-tb;fill:#ffffff;fill-opacity:1;fill-rule:nonzero;stroke:none" transform="matrix(1,0,0,-1,522.53,487.16)"><tspan id="tspan392" y="0" x="0 4.968379 9.936758">95 </tspan></text>
</g>
    </g>
    <g id="g394">
      <g clip-path="url(#clipPath398)" id="g396"><text id="text402" style="font-variant:normal;font-weight:bold;font-size:9.76840019px;font-family:Calibri;-inkscape-font-specification:Calibri-Bold;writing-mode:lr-tb;fill:#404040;fill-opacity:1;fill-rule:nonzero;stroke:none" transform="matrix(1,0,0,-1,125.45,461.87)"><tspan id="tspan404" y="0" x="0 4.968379 9.936758 14.905136">626 </tspan></text>
</g>
    </g>
    <g id="g406">
      <g clip-path="url(#clipPath410)" id="g408"><text id="text414" style="font-variant:normal;font-weight:bold;font-size:9.76840019px;font-family:Calibri;-inkscape-font-specification:Calibri-Bold;writing-mode:lr-tb;fill:#404040;fill-opacity:1;fill-rule:nonzero;stroke:none" transform="matrix(1,0,0,-1,191.22,462.44)"><tspan id="tspan416" y="0" x="0 4.968379 9.936758 14.905136">629 </tspan></text>
</g>
    </g>
    <g id="g418">
      <g clip-path="url(#clipPath422)" id="g420"><text id="text426" style="font-variant:normal;font-weight:bold;font-size:9.76840019px;font-family:Calibri;-inkscape-font-specification:Calibri-Bold;writing-mode:lr-tb;fill:#404040;fill-opacity:1;fill-rule:nonzero;stroke:none" transform="matrix(1,0,0,-1,256.99,469.52)"><tspan id="tspan428" y="0" x="0 4.968379 9.936758 14.905136">664 </tspan></text>
</g>
    </g>
    <g id="g430">
      <g clip-path="url(#clipPath434)" id="g432"><text id="text438" style="font-variant:normal;font-weight:bold;font-size:9.76840019px;font-family:Calibri;-inkscape-font-specification:Calibri-Bold;writing-mode:lr-tb;fill:#404040;fill-opacity:1;fill-rule:nonzero;stroke:none" transform="matrix(1,0,0,-1,322.76,477.6)"><tspan id="tspan440" y="0" x="0 4.9473586 9.8947172 14.842076">705 </tspan></text>
</g>
    </g>
    <g id="g442">
      <g clip-path="url(#clipPath446)" id="g444"><text id="text450" style="font-variant:normal;font-weight:bold;font-size:9.76840019px;font-family:Calibri;-inkscape-font-specification:Calibri-Bold;writing-mode:lr-tb;fill:#404040;fill-opacity:1;fill-rule:nonzero;stroke:none" transform="matrix(1,0,0,-1,388.53,487.31)"><tspan id="tspan452" y="0" x="0 4.9473586 9.8947172 14.842076">753 </tspan></text>
</g>
    </g>
    <g id="g454">
      <g clip-path="url(#clipPath458)" id="g456"><text id="text462" style="font-variant:normal;font-weight:bold;font-size:9.76840019px;font-family:Calibri;-inkscape-font-specification:Calibri-Bold;writing-mode:lr-tb;fill:#404040;fill-opacity:1;fill-rule:nonzero;stroke:none" transform="matrix(1,0,0,-1,454.29,497.26)"><tspan id="tspan464" y="0" x="0 4.9473586 9.8947172 14.842076">803 </tspan></text>
</g>
    </g>
    <g id="g466">
      <g clip-path="url(#clipPath470)" id="g468"><text id="text474" style="font-variant:normal;font-weight:bold;font-size:9.76840019px;font-family:Calibri;-inkscape-font-specification:Calibri-Bold;writing-mode:lr-tb;fill:#404040;fill-opacity:1;fill-rule:nonzero;stroke:none" transform="matrix(1,0,0,-1,520.06,507.56)"><tspan id="tspan476" y="0" x="0 4.9473586 9.8947172 14.842076">854 </tspan></text>
</g>
    </g>
    <g id="g478">
      <g clip-path="url(#clipPath482)" id="g480"><text id="text486" style="font-variant:normal;font-weight:normal;font-size:9.76840019px;font-family:Calibri;-inkscape-font-specification:Calibri;writing-mode:lr-tb;fill:#595959;fill-opacity:1;fill-rule:nonzero;stroke:none" transform="matrix(1,0,0,-1,84.905,325.77)"><tspan id="tspan488" y="0" x="0">0</tspan></text>
</g>
    </g>
    <g id="g490">
      <g clip-path="url(#clipPath494)" id="g492"><text id="text498" style="font-variant:normal;font-weight:normal;font-size:9.76840019px;font-family:Calibri;-inkscape-font-specification:Calibri;writing-mode:lr-tb;fill:#595959;fill-opacity:1;fill-rule:nonzero;stroke:none" transform="matrix(1,0,0,-1,74.968,361.92)"><tspan id="tspan500" y="0" x="0 4.9473586 9.8947172">180</tspan></text>
</g>
    </g>
    <g id="g502">
      <g clip-path="url(#clipPath506)" id="g504"><text id="text510" style="font-variant:normal;font-weight:normal;font-size:9.76840019px;font-family:Calibri;-inkscape-font-specification:Calibri;writing-mode:lr-tb;fill:#595959;fill-opacity:1;fill-rule:nonzero;stroke:none" transform="matrix(1,0,0,-1,74.968,398.04)"><tspan id="tspan512" y="0" x="0 4.9473586 9.8947172">360</tspan></text>
</g>
    </g>
    <g id="g514">
      <g clip-path="url(#clipPath518)" id="g516"><text id="text522" style="font-variant:normal;font-weight:normal;font-size:9.76840019px;font-family:Calibri;-inkscape-font-specification:Calibri;writing-mode:lr-tb;fill:#595959;fill-opacity:1;fill-rule:nonzero;stroke:none" transform="matrix(1,0,0,-1,74.968,434.19)"><tspan id="tspan524" y="0" x="0 4.9473586 9.8947172">540</tspan></text>
</g>
    </g>
    <g id="g526">
      <g clip-path="url(#clipPath530)" id="g528"><text id="text534" style="font-variant:normal;font-weight:normal;font-size:9.76840019px;font-family:Calibri;-inkscape-font-specification:Calibri;writing-mode:lr-tb;fill:#595959;fill-opacity:1;fill-rule:nonzero;stroke:none" transform="matrix(1,0,0,-1,74.968,470.34)"><tspan id="tspan536" y="0" x="0 4.9473586 9.8947172">720</tspan></text>
</g>
    </g>
    <g id="g538">
      <g clip-path="url(#clipPath542)" id="g540"><text id="text546" style="font-variant:normal;font-weight:normal;font-size:9.76840019px;font-family:Calibri;-inkscape-font-specification:Calibri;writing-mode:lr-tb;fill:#595959;fill-opacity:1;fill-rule:nonzero;stroke:none" transform="matrix(1,0,0,-1,74.968,506.46)"><tspan id="tspan548" y="0" x="0 4.9473586 9.8947172">900</tspan></text>
</g>
    </g>
    <g id="g550">
      <g clip-path="url(#clipPath554)" id="g552"><text id="text558" style="font-variant:normal;font-weight:normal;font-size:9.78950024px;font-family:Calibri;-inkscape-font-specification:Calibri;writing-mode:lr-tb;fill:#595959;fill-opacity:1;fill-rule:nonzero;stroke:none" transform="matrix(1,0,0,-1,121.92,313.03)"><tspan id="tspan560" y="0" x="0 4.9473767 9.8947535 14.84213">2024</tspan></text>
</g>
    </g>
    <g id="g562">
      <g clip-path="url(#clipPath566)" id="g564"><text id="text570" style="font-variant:normal;font-weight:normal;font-size:9.78950024px;font-family:Calibri;-inkscape-font-specification:Calibri;writing-mode:lr-tb;fill:#595959;fill-opacity:1;fill-rule:nonzero;stroke:none" transform="matrix(1,0,0,-1,185.24,313.03)"><tspan id="tspan572" y="0" x="0 4.9473767 9.8947535 14.84213 19.789507">2025e</tspan></text>
</g>
    </g>
    <g id="g574">
      <g clip-path="url(#clipPath578)" id="g576"><text id="text582" style="font-variant:normal;font-weight:normal;font-size:9.78950024px;font-family:Calibri;-inkscape-font-specification:Calibri;writing-mode:lr-tb;fill:#595959;fill-opacity:1;fill-rule:nonzero;stroke:none" transform="matrix(1,0,0,-1,251.01,313.03)"><tspan id="tspan584" y="0" x="0 4.9473767 9.8947535 14.84213 19.789507">2026e</tspan></text>
</g>
    </g>
    <g id="g586">
      <g clip-path="url(#clipPath590)" id="g588"><text id="text594" style="font-variant:normal;font-weight:normal;font-size:9.78950024px;font-family:Calibri;-inkscape-font-specification:Calibri;writing-mode:lr-tb;fill:#595959;fill-opacity:1;fill-rule:nonzero;stroke:none" transform="matrix(1,0,0,-1,316.78,313.03)"><tspan id="tspan596" y="0" x="0 4.9473767 9.8947535 14.84213 19.789507">2027e</tspan></text>
</g>
    </g>
    <g id="g598">
      <g clip-path="url(#clipPath602)" id="g600"><text id="text606" style="font-variant:normal;font-weight:normal;font-size:9.78950024px;font-family:Calibri;-inkscape-font-specification:Calibri;writing-mode:lr-tb;fill:#595959;fill-opacity:1;fill-rule:nonzero;stroke:none" transform="matrix(1,0,0,-1,382.55,313.03)"><tspan id="tspan608" y="0" x="0 4.9473767 9.8947535 14.84213 19.789507">2028e</tspan></text>
</g>
    </g>
    <g id="g610">
      <g clip-path="url(#clipPath614)" id="g612"><text id="text618" style="font-variant:normal;font-weight:normal;font-size:9.78950024px;font-family:Calibri;-inkscape-font-specification:Calibri;writing-mode:lr-tb;fill:#595959;fill-opacity:1;fill-rule:nonzero;stroke:none" transform="matrix(1,0,0,-1,448.32,313.03)"><tspan id="tspan620" y="0" x="0 4.9473767 9.8947535 14.84213 19.789507">2029e</tspan></text>
</g>
    </g>
    <g id="g622">
      <g clip-path="url(#clipPath626)" id="g624"><text id="text630" style="font-variant:normal;font-weight:normal;font-size:9.78950024px;font-family:Calibri;-inkscape-font-specification:Calibri;writing-mode:lr-tb;fill:#595959;fill-opacity:1;fill-rule:nonzero;stroke:none" transform="matrix(1,0,0,-1,514.06,313.03)"><tspan id="tspan632" y="0" x="0 4.9684367 9.9368734 14.90531 19.873747">2030e</tspan></text>
</g>
    </g>
    <path id="path634" style="fill:#f4e3e7;fill-opacity:1;fill-rule:evenodd;stroke:none" d="m 172.77,520.8 5.983,0 0,5.983 -5.983,0 0,-5.983 z"/>
    <path id="path636" style="fill:none;stroke:#000000;stroke-width:1.36170006;stroke-linecap:butt;stroke-linejoin:round;stroke-miterlimit:10;stroke-dasharray:none;stroke-opacity:1" d="m 172.77,520.8 5.983,0 0,5.983 -5.983,0 0,-5.983 z"/>
    <g id="g638">
      <g clip-path="url(#clipPath642)" id="g640"><text id="text646" style="font-variant:normal;font-weight:bold;font-size:10.86299992px;font-family:Calibri;-inkscape-font-specification:Calibri-Bold;writing-mode:lr-tb;fill:#595959;fill-opacity:1;fill-rule:nonzero;stroke:none" transform="matrix(1,0,0,-1,181.37,520.67)"><tspan id="tspan648" y="0" x="0 2.9004209 8.788167 14.55642 20.465893 24.73505 28.580553 32.436916 35.044037 40.410358">Industrial</tspan></text>
</g>
    </g>
    <path id="path650" style="fill:#eadfbc;fill-opacity:1;fill-rule:evenodd;stroke:none" d="m 238.21,520.8 5.983,0 0,5.983 -5.983,0 0,-5.983 z"/>
    <path id="path652" style="fill:none;stroke:#000000;stroke-width:1.36170006;stroke-linecap:butt;stroke-linejoin:round;stroke-miterlimit:10;stroke-dasharray:none;stroke-opacity:1" d="m 238.21,520.8 5.983,0 0,5.983 -5.983,0 0,-5.983 z"/>
    <g id="g654">
      <g clip-path="url(#clipPath658)" id="g656"><text id="text662" style="font-variant:normal;font-weight:bold;font-size:10.86299992px;font-family:Calibri;-inkscape-font-specification:Calibri-Bold;writing-mode:lr-tb;fill:#595959;fill-opacity:1;fill-rule:nonzero;stroke:none" transform="matrix(1,0,0,-1,246.82,520.67)"><tspan id="tspan664" y="0" x="0 5.7791162 11.677725 19.77066 25.267338">Power</tspan></text>
</g>
    </g>
    <path id="path666" style="fill:#93decc;fill-opacity:1;fill-rule:evenodd;stroke:none" d="m 289.61,520.8 5.983,0 0,5.983 -5.983,0 0,-5.983 z"/>
    <path id="path668" style="fill:none;stroke:#000000;stroke-width:1.36170006;stroke-linecap:butt;stroke-linejoin:round;stroke-miterlimit:10;stroke-dasharray:none;stroke-opacity:1" d="m 289.61,520.8 5.983,0 0,5.983 -5.983,0 0,-5.983 z"/>
    <g id="g670">
      <g clip-path="url(#clipPath674)" id="g672"><text id="text678" style="font-variant:normal;font-weight:bold;font-size:10.86299992px;font-family:Calibri;-inkscape-font-specification:Calibri-Bold;writing-mode:lr-tb;fill:#595959;fill-opacity:1;fill-rule:nonzero;stroke:none" transform="matrix(1,0,0,-1,298.23,520.67)"><tspan id="tspan680" y="0" x="0 7.4194288 11.145438 16.935417 22.442959 26.299322">Others</tspan></text>
</g>
    </g>
    <path id="path682" style="fill:#873246;fill-opacity:1;fill-rule:evenodd;stroke:none" d="m 342.59,520.8 5.983,0 0,5.983 -5.983,0 0,-5.983 z"/>
    <path id="path684" style="fill:none;stroke:#000000;stroke-width:1.36170006;stroke-linecap:butt;stroke-linejoin:round;stroke-miterlimit:10;stroke-dasharray:none;stroke-opacity:1" d="m 342.59,520.8 5.983,0 0,5.983 -5.983,0 0,-5.983 z"/>
    <g id="g686">
      <g clip-path="url(#clipPath690)" id="g688"><text id="text694" style="font-variant:normal;font-weight:bold;font-size:10.86299992px;font-family:Calibri;-inkscape-font-specification:Calibri-Bold;writing-mode:lr-tb;fill:#595959;fill-opacity:1;fill-rule:nonzero;stroke:none" transform="matrix(1,0,0,-1,351.22,520.67)"><tspan id="tspan696" y="0" x="0 6.181047 11.547369 15.936021 18.54314 24.452614 29.960154 35.750134 39.595634 42.202755 47.569077 50.317417 52.772453 60.376553 62.831593 68.208778 72.217224 77.583549 83.373528 87.762177 93.552155 99.461632 103.31799">Residential &amp; Transport</tspan></text>
</g>
    </g>
    <g id="g698">
      <g clip-path="url(#clipPath702)" id="g700"><text id="text706" style="font-variant:normal;font-weight:normal;font-size:10.86299992px;font-family:Calibri;-inkscape-font-specification:Calibri;writing-mode:lr-tb;fill:#404040;fill-opacity:1;fill-rule:nonzero;stroke:none" transform="matrix(1,0,0,-1,58.947,526.84)"><tspan id="tspan708" y="0" x="0 9.3313169 14.686776 20.302946">MTPA</tspan></text>
</g>
    </g>
  </g>
</svg>
