<?xml version="1.0" encoding="UTF-8" standalone="no"?>
<svg xmlns:dc="http://purl.org/dc/elements/1.1/" xmlns:cc="http://creativecommons.org/ns#" xmlns:rdf="http://www.w3.org/1999/02/22-rdf-syntax-ns#" xmlns:svg="http://www.w3.org/2000/svg" xmlns="http://www.w3.org/2000/svg" viewBox="16.8 15.6 688.9 359.7625" height="359.7625" width="688.9" xml:space="preserve" version="1.1" id="svg2">
  <metadata id="metadata8">
    <rdf:RDF>
      <cc:Work rdf:about="">
        <dc:format>image/svg+xml</dc:format>
        <dc:type rdf:resource="http://purl.org/dc/dcmitype/StillImage"/>
      </cc:Work>
    </rdf:RDF>
  </metadata>
  <defs id="defs6">
    <clipPath id="clipPath16" clipPathUnits="userSpaceOnUse">
      <path style="clip-rule:evenodd" id="path18" d="m 13.44,311.35 551.47,0 0,288.17 -551.47,0 0,-288.17 z"/>
    </clipPath>
    <clipPath id="clipPath26" clipPathUnits="userSpaceOnUse">
      <path style="clip-rule:evenodd" id="path28" d="m 13.44,311.35 551.47,0 0,288.17 -551.47,0 0,-288.17 z"/>
    </clipPath>
    <clipPath id="clipPath36" clipPathUnits="userSpaceOnUse">
      <path style="clip-rule:evenodd" id="path38" d="m 13.44,586.8 551.47,0 0,12.72 -551.47,0 0,-12.72 z"/>
    </clipPath>
    <clipPath id="clipPath48" clipPathUnits="userSpaceOnUse">
      <path style="clip-rule:evenodd" id="path50" d="m 13.44,586.8 551.47,0 0,12.72 -551.47,0 0,-12.72 z"/>
    </clipPath>
    <clipPath id="clipPath60" clipPathUnits="userSpaceOnUse">
      <path style="clip-rule:evenodd" id="path62" d="m 13.44,586.8 551.47,0 0,12.72 -551.47,0 0,-12.72 z"/>
    </clipPath>
    <clipPath id="clipPath68" clipPathUnits="userSpaceOnUse">
      <path style="clip-rule:evenodd" id="path70" d="m 13.44,586.8 551.47,0 0,12.72 -551.47,0 0,-12.72 z"/>
    </clipPath>
    <clipPath id="clipPath76" clipPathUnits="userSpaceOnUse">
      <path style="clip-rule:evenodd" id="path78" d="m 13.44,311.35 551.47,0 0,288.17 -551.47,0 0,-288.17 z"/>
    </clipPath>
    <clipPath id="clipPath88" clipPathUnits="userSpaceOnUse">
      <path style="clip-rule:evenodd" id="path90" d="m 13.44,311.35 551.47,0 0,288.17 -551.47,0 0,-288.17 z"/>
    </clipPath>
    <clipPath id="clipPath100" clipPathUnits="userSpaceOnUse">
      <path style="clip-rule:evenodd" id="path102" d="m 13.44,311.35 551.47,0 0,288.17 -551.47,0 0,-288.17 z"/>
    </clipPath>
    <clipPath id="clipPath108" clipPathUnits="userSpaceOnUse">
      <path style="clip-rule:evenodd" id="path110" d="m 13.44,311.35 551.47,0 0,288.17 -551.47,0 0,-288.17 z"/>
    </clipPath>
    <clipPath id="clipPath116" clipPathUnits="userSpaceOnUse">
      <path style="clip-rule:evenodd" id="path118" d="m 13.44,556.54 551.47,0 0,15.624 -551.47,0 0,-15.624 z"/>
    </clipPath>
    <clipPath id="clipPath128" clipPathUnits="userSpaceOnUse">
      <path style="clip-rule:evenodd" id="path130" d="m 13.44,556.54 551.47,0 0,15.624 -551.47,0 0,-15.624 z"/>
    </clipPath>
    <clipPath id="clipPath140" clipPathUnits="userSpaceOnUse">
      <path style="clip-rule:evenodd" id="path142" d="m 13.44,556.54 551.47,0 0,15.624 -551.47,0 0,-15.624 z"/>
    </clipPath>
    <clipPath id="clipPath150" clipPathUnits="userSpaceOnUse">
      <path style="clip-rule:evenodd" id="path152" d="m 13.44,556.54 551.47,0 0,15.624 -551.47,0 0,-15.624 z"/>
    </clipPath>
    <clipPath id="clipPath158" clipPathUnits="userSpaceOnUse">
      <path style="clip-rule:evenodd" id="path160" d="m 13.44,542.86 551.47,0 0,12.72 -551.47,0 0,-12.72 z"/>
    </clipPath>
    <clipPath id="clipPath170" clipPathUnits="userSpaceOnUse">
      <path style="clip-rule:evenodd" id="path172" d="m 13.44,542.86 551.47,0 0,12.72 -551.47,0 0,-12.72 z"/>
    </clipPath>
    <clipPath id="clipPath182" clipPathUnits="userSpaceOnUse">
      <path style="clip-rule:evenodd" id="path184" d="m 13.44,542.86 551.47,0 0,12.72 -551.47,0 0,-12.72 z"/>
    </clipPath>
    <clipPath id="clipPath190" clipPathUnits="userSpaceOnUse">
      <path style="clip-rule:evenodd" id="path192" d="m 13.44,542.86 551.47,0 0,12.72 -551.47,0 0,-12.72 z"/>
    </clipPath>
    <clipPath id="clipPath198" clipPathUnits="userSpaceOnUse">
      <path style="clip-rule:evenodd" id="path200" d="m 13.44,311.35 551.47,0 0,288.17 -551.47,0 0,-288.17 z"/>
    </clipPath>
    <clipPath id="clipPath210" clipPathUnits="userSpaceOnUse">
      <path style="clip-rule:evenodd" id="path212" d="m 13.44,311.35 551.47,0 0,288.17 -551.47,0 0,-288.17 z"/>
    </clipPath>
    <clipPath id="clipPath222" clipPathUnits="userSpaceOnUse">
      <path style="clip-rule:evenodd" id="path224" d="m 13.44,311.35 551.47,0 0,288.17 -551.47,0 0,-288.17 z"/>
    </clipPath>
    <clipPath id="clipPath234" clipPathUnits="userSpaceOnUse">
      <path style="clip-rule:evenodd" id="path236" d="m 493.97,487.18 69.984,0 0,26.88 -69.984,0 0,-26.88 z"/>
    </clipPath>
    <clipPath id="clipPath246" clipPathUnits="userSpaceOnUse">
      <path style="clip-rule:evenodd" id="path248" d="m 493.97,487.18 69.984,0 0,26.88 -69.984,0 0,-26.88 z"/>
    </clipPath>
    <clipPath id="clipPath258" clipPathUnits="userSpaceOnUse">
      <path style="clip-rule:evenodd" id="path260" d="m 13.44,311.35 551.47,0 0,288.17 -551.47,0 0,-288.17 z"/>
    </clipPath>
    <clipPath id="clipPath270" clipPathUnits="userSpaceOnUse">
      <path style="clip-rule:evenodd" id="path272" d="m 13.44,311.35 551.47,0 0,288.17 -551.47,0 0,-288.17 z"/>
    </clipPath>
    <clipPath id="clipPath282" clipPathUnits="userSpaceOnUse">
      <path style="clip-rule:evenodd" id="path284" d="m 13.44,311.35 551.47,0 0,288.17 -551.47,0 0,-288.17 z"/>
    </clipPath>
    <clipPath id="clipPath290" clipPathUnits="userSpaceOnUse">
      <path style="clip-rule:evenodd" id="path292" d="m 13.44,311.35 551.47,0 0,288.17 -551.47,0 0,-288.17 z"/>
    </clipPath>
    <clipPath id="clipPath298" clipPathUnits="userSpaceOnUse">
      <path style="clip-rule:evenodd" id="path300" d="m 13.44,311.35 551.47,0 0,288.17 -551.47,0 0,-288.17 z"/>
    </clipPath>
    <clipPath id="clipPath310" clipPathUnits="userSpaceOnUse">
      <path style="clip-rule:evenodd" id="path312" d="m 13.44,311.35 551.47,0 0,288.17 -551.47,0 0,-288.17 z"/>
    </clipPath>
    <clipPath id="clipPath318" clipPathUnits="userSpaceOnUse">
      <path style="clip-rule:evenodd" id="path320" d="m 13.44,311.35 551.47,0 0,288.17 -551.47,0 0,-288.17 z"/>
    </clipPath>
    <clipPath id="clipPath326" clipPathUnits="userSpaceOnUse">
      <path style="clip-rule:evenodd" id="path328" d="m 13.44,311.35 551.47,0 0,288.17 -551.47,0 0,-288.17 z"/>
    </clipPath>
    <clipPath id="clipPath338" clipPathUnits="userSpaceOnUse">
      <path style="clip-rule:evenodd" id="path340" d="m 13.44,311.35 551.47,0 0,288.17 -551.47,0 0,-288.17 z"/>
    </clipPath>
    <clipPath id="clipPath350" clipPathUnits="userSpaceOnUse">
      <path style="clip-rule:evenodd" id="path352" d="m 13.44,311.35 551.47,0 0,288.17 -551.47,0 0,-288.17 z"/>
    </clipPath>
    <clipPath id="clipPath362" clipPathUnits="userSpaceOnUse">
      <path style="clip-rule:evenodd" id="path364" d="m 13.44,311.35 551.47,0 0,288.17 -551.47,0 0,-288.17 z"/>
    </clipPath>
    <clipPath id="clipPath374" clipPathUnits="userSpaceOnUse">
      <path style="clip-rule:evenodd" id="path376" d="m 13.44,311.35 551.47,0 0,288.17 -551.47,0 0,-288.17 z"/>
    </clipPath>
    <clipPath id="clipPath382" clipPathUnits="userSpaceOnUse">
      <path style="clip-rule:evenodd" id="path384" d="m 13.44,311.35 551.47,0 0,288.17 -551.47,0 0,-288.17 z"/>
    </clipPath>
    <clipPath id="clipPath390" clipPathUnits="userSpaceOnUse">
      <path style="clip-rule:evenodd" id="path392" d="m 13.44,311.35 551.47,0 0,288.17 -551.47,0 0,-288.17 z"/>
    </clipPath>
    <clipPath id="clipPath402" clipPathUnits="userSpaceOnUse">
      <path style="clip-rule:evenodd" id="path404" d="m 13.44,311.35 551.47,0 0,288.17 -551.47,0 0,-288.17 z"/>
    </clipPath>
    <clipPath id="clipPath410" clipPathUnits="userSpaceOnUse">
      <path style="clip-rule:evenodd" id="path412" d="m 13.44,311.35 551.47,0 0,288.17 -551.47,0 0,-288.17 z"/>
    </clipPath>
    <clipPath id="clipPath418" clipPathUnits="userSpaceOnUse">
      <path style="clip-rule:evenodd" id="path420" d="m 13.44,311.35 551.47,0 0,288.17 -551.47,0 0,-288.17 z"/>
    </clipPath>
    <clipPath id="clipPath430" clipPathUnits="userSpaceOnUse">
      <path style="clip-rule:evenodd" id="path432" d="m 13.44,311.35 551.47,0 0,288.17 -551.47,0 0,-288.17 z"/>
    </clipPath>
    <clipPath id="clipPath442" clipPathUnits="userSpaceOnUse">
      <path style="clip-rule:evenodd" id="path444" d="m 13.44,311.35 551.47,0 0,288.17 -551.47,0 0,-288.17 z"/>
    </clipPath>
    <clipPath id="clipPath454" clipPathUnits="userSpaceOnUse">
      <path style="clip-rule:evenodd" id="path456" d="m 13.44,311.35 551.47,0 0,288.17 -551.47,0 0,-288.17 z"/>
    </clipPath>
    <clipPath id="clipPath466" clipPathUnits="userSpaceOnUse">
      <path style="clip-rule:evenodd" id="path468" d="m 13.44,311.35 551.47,0 0,288.17 -551.47,0 0,-288.17 z"/>
    </clipPath>
    <clipPath id="clipPath474" clipPathUnits="userSpaceOnUse">
      <path style="clip-rule:evenodd" id="path476" d="m 13.44,311.35 551.47,0 0,288.17 -551.47,0 0,-288.17 z"/>
    </clipPath>
    <clipPath id="clipPath482" clipPathUnits="userSpaceOnUse">
      <path style="clip-rule:evenodd" id="path484" d="m 13.44,311.35 551.47,0 0,288.17 -551.47,0 0,-288.17 z"/>
    </clipPath>
    <clipPath id="clipPath494" clipPathUnits="userSpaceOnUse">
      <path style="clip-rule:evenodd" id="path496" d="m 13.44,311.35 551.47,0 0,288.17 -551.47,0 0,-288.17 z"/>
    </clipPath>
    <clipPath id="clipPath502" clipPathUnits="userSpaceOnUse">
      <path style="clip-rule:evenodd" id="path504" d="m 13.44,311.35 551.47,0 0,288.17 -551.47,0 0,-288.17 z"/>
    </clipPath>
    <clipPath id="clipPath510" clipPathUnits="userSpaceOnUse">
      <path style="clip-rule:evenodd" id="path512" d="m 13.44,311.35 551.47,0 0,288.17 -551.47,0 0,-288.17 z"/>
    </clipPath>
    <clipPath id="clipPath522" clipPathUnits="userSpaceOnUse">
      <path style="clip-rule:evenodd" id="path524" d="m 13.44,311.35 551.47,0 0,288.17 -551.47,0 0,-288.17 z"/>
    </clipPath>
    <clipPath id="clipPath534" clipPathUnits="userSpaceOnUse">
      <path style="clip-rule:evenodd" id="path536" d="m 13.44,311.35 551.47,0 0,288.17 -551.47,0 0,-288.17 z"/>
    </clipPath>
    <clipPath id="clipPath546" clipPathUnits="userSpaceOnUse">
      <path style="clip-rule:evenodd" id="path548" d="m 13.44,311.35 551.47,0 0,288.17 -551.47,0 0,-288.17 z"/>
    </clipPath>
    <clipPath id="clipPath558" clipPathUnits="userSpaceOnUse">
      <path style="clip-rule:evenodd" id="path560" d="m 13.44,311.35 551.47,0 0,288.17 -551.47,0 0,-288.17 z"/>
    </clipPath>
    <clipPath id="clipPath566" clipPathUnits="userSpaceOnUse">
      <path style="clip-rule:evenodd" id="path568" d="m 13.44,311.35 551.47,0 0,288.17 -551.47,0 0,-288.17 z"/>
    </clipPath>
    <clipPath id="clipPath574" clipPathUnits="userSpaceOnUse">
      <path style="clip-rule:evenodd" id="path576" d="m 13.44,311.35 551.47,0 0,288.17 -551.47,0 0,-288.17 z"/>
    </clipPath>
    <clipPath id="clipPath586" clipPathUnits="userSpaceOnUse">
      <path style="clip-rule:evenodd" id="path588" d="m 13.44,311.35 551.47,0 0,288.17 -551.47,0 0,-288.17 z"/>
    </clipPath>
    <clipPath id="clipPath594" clipPathUnits="userSpaceOnUse">
      <path style="clip-rule:evenodd" id="path596" d="m 13.44,311.35 551.47,0 0,288.17 -551.47,0 0,-288.17 z"/>
    </clipPath>
    <clipPath id="clipPath602" clipPathUnits="userSpaceOnUse">
      <path style="clip-rule:evenodd" id="path604" d="m 13.44,311.35 551.47,0 0,288.17 -551.47,0 0,-288.17 z"/>
    </clipPath>
    <clipPath id="clipPath614" clipPathUnits="userSpaceOnUse">
      <path style="clip-rule:evenodd" id="path616" d="m 13.44,311.35 551.47,0 0,288.17 -551.47,0 0,-288.17 z"/>
    </clipPath>
    <clipPath id="clipPath626" clipPathUnits="userSpaceOnUse">
      <path style="clip-rule:evenodd" id="path628" d="m 13.44,311.35 551.47,0 0,288.17 -551.47,0 0,-288.17 z"/>
    </clipPath>
    <clipPath id="clipPath638" clipPathUnits="userSpaceOnUse">
      <path style="clip-rule:evenodd" id="path640" d="m 13.44,311.35 551.47,0 0,288.17 -551.47,0 0,-288.17 z"/>
    </clipPath>
    <clipPath id="clipPath650" clipPathUnits="userSpaceOnUse">
      <path style="clip-rule:evenodd" id="path652" d="m 13.44,311.35 551.47,0 0,288.17 -551.47,0 0,-288.17 z"/>
    </clipPath>
    <clipPath id="clipPath658" clipPathUnits="userSpaceOnUse">
      <path style="clip-rule:evenodd" id="path660" d="m 13.44,311.35 551.47,0 0,288.17 -551.47,0 0,-288.17 z"/>
    </clipPath>
    <clipPath id="clipPath666" clipPathUnits="userSpaceOnUse">
      <path style="clip-rule:evenodd" id="path668" d="m 13.44,311.35 551.47,0 0,288.17 -551.47,0 0,-288.17 z"/>
    </clipPath>
    <clipPath id="clipPath678" clipPathUnits="userSpaceOnUse">
      <path style="clip-rule:evenodd" id="path680" d="m 13.44,311.35 551.47,0 0,288.17 -551.47,0 0,-288.17 z"/>
    </clipPath>
    <clipPath id="clipPath686" clipPathUnits="userSpaceOnUse">
      <path style="clip-rule:evenodd" id="path688" d="m 13.44,311.35 551.47,0 0,288.17 -551.47,0 0,-288.17 z"/>
    </clipPath>
    <clipPath id="clipPath694" clipPathUnits="userSpaceOnUse">
      <path style="clip-rule:evenodd" id="path696" d="m 13.44,311.35 551.47,0 0,288.17 -551.47,0 0,-288.17 z"/>
    </clipPath>
    <clipPath id="clipPath706" clipPathUnits="userSpaceOnUse">
      <path style="clip-rule:evenodd" id="path708" d="m 13.44,311.35 551.47,0 0,288.17 -551.47,0 0,-288.17 z"/>
    </clipPath>
    <clipPath id="clipPath714" clipPathUnits="userSpaceOnUse">
      <path style="clip-rule:evenodd" id="path716" d="m 13.44,311.35 551.47,0 0,288.17 -551.47,0 0,-288.17 z"/>
    </clipPath>
    <clipPath id="clipPath722" clipPathUnits="userSpaceOnUse">
      <path style="clip-rule:evenodd" id="path724" d="m 13.44,390.91 551.47,0 0,13.2 -551.47,0 0,-13.2 z"/>
    </clipPath>
    <clipPath id="clipPath734" clipPathUnits="userSpaceOnUse">
      <path style="clip-rule:evenodd" id="path736" d="m 13.44,390.91 551.47,0 0,13.2 -551.47,0 0,-13.2 z"/>
    </clipPath>
    <clipPath id="clipPath746" clipPathUnits="userSpaceOnUse">
      <path style="clip-rule:evenodd" id="path748" d="m 13.44,390.91 551.47,0 0,13.2 -551.47,0 0,-13.2 z"/>
    </clipPath>
    <clipPath id="clipPath754" clipPathUnits="userSpaceOnUse">
      <path style="clip-rule:evenodd" id="path756" d="m 13.44,390.91 551.47,0 0,13.2 -551.47,0 0,-13.2 z"/>
    </clipPath>
    <clipPath id="clipPath762" clipPathUnits="userSpaceOnUse">
      <path style="clip-rule:evenodd" id="path764" d="m 13.44,390.91 551.47,0 0,13.2 -551.47,0 0,-13.2 z"/>
    </clipPath>
    <clipPath id="clipPath774" clipPathUnits="userSpaceOnUse">
      <path style="clip-rule:evenodd" id="path776" d="m 13.44,390.91 551.47,0 0,13.2 -551.47,0 0,-13.2 z"/>
    </clipPath>
    <clipPath id="clipPath782" clipPathUnits="userSpaceOnUse">
      <path style="clip-rule:evenodd" id="path784" d="m 13.44,390.91 551.47,0 0,13.2 -551.47,0 0,-13.2 z"/>
    </clipPath>
    <clipPath id="clipPath790" clipPathUnits="userSpaceOnUse">
      <path style="clip-rule:evenodd" id="path792" d="m 13.44,390.91 551.47,0 0,13.2 -551.47,0 0,-13.2 z"/>
    </clipPath>
    <clipPath id="clipPath802" clipPathUnits="userSpaceOnUse">
      <path style="clip-rule:evenodd" id="path804" d="m 13.44,311.35 551.47,0 0,288.17 -551.47,0 0,-288.17 z"/>
    </clipPath>
    <clipPath id="clipPath822" clipPathUnits="userSpaceOnUse">
      <path style="clip-rule:evenodd" id="path824" d="m 309.89,311.83 183.6,0 0,13.68 -183.6,0 0,-13.68 z"/>
    </clipPath>
    <clipPath id="clipPath834" clipPathUnits="userSpaceOnUse">
      <path style="clip-rule:evenodd" id="path836" d="m 11.52,309.31 555.43,0 0,292.13 -555.43,0 0,-292.13 z"/>
    </clipPath>
    <clipPath id="clipPath858" clipPathUnits="userSpaceOnUse">
      <path style="clip-rule:evenodd" id="path860" d="m 564.84,600.48 0,-289.08 -552.36,0 0,289.08 552.36,0 z"/>
    </clipPath>
  </defs>
  <g transform="matrix(1.25,0,0,-1.25,0,765)" id="g10">
    <g id="g12">
      <g clip-path="url(#clipPath16)" id="g14">
        <path id="path20" style="fill:#ffffff;fill-opacity:1;fill-rule:evenodd;stroke:none" d="m 12.96,528.58 551.59,0 0,71.424 -551.59,0 0,-71.424 z"/>
      </g>
    </g>
    <g id="g22">
      <g clip-path="url(#clipPath26)" id="g24">
        <path id="path30" style="fill:#ffffff;fill-opacity:1;fill-rule:evenodd;stroke:none" d="m 12.96,311.71 551.59,0 0,202.82 -551.59,0 0,-202.82 z"/>
      </g>
    </g>
    <g id="g32">
      <g clip-path="url(#clipPath36)" id="g34"><text id="text40" style="font-variant:normal;font-weight:bold;font-size:11.03999996px;font-family:Arial;-inkscape-font-specification:'Arial Bold';writing-mode:lr-tb;fill:#000000;fill-opacity:1;fill-rule:nonzero;stroke:none" transform="matrix(1,0,0,-1,15,589.56)"><tspan id="tspan42" y="0" x="0 6.6019201 13.34736 17.02368 23.161921 26.2752 29.388479 37.304161 44.62368 47.736961 55.652641 61.790878 65.467201 71.605438 74.718719 82.634399 88.772636 95.473923 99.183357 105.3216 109.61616 112.72944 120.04896 126.7944 135.63744 141.77568 146.07024 149.18352 157.0992 163.23744 173.052 179.19025 185.90256 192.64799 195.71712 199.44864 208.08192 218.50368 222.2352 225.34848 228.46176 234.60001 240.70512 246.84335 252.94849 256.65793 262.79617">Total US Data Center Power Demand (GW), 2025-28</tspan></text>
</g>
    </g>
    <g id="g44">
      <g clip-path="url(#clipPath48)" id="g46"><text id="text52" style="font-variant:normal;font-weight:bold;font-size:11.03999996px;font-family:Arial;-inkscape-font-specification:'Arial Bold';writing-mode:lr-tb;fill:#000000;fill-opacity:1;fill-rule:nonzero;stroke:none" transform="matrix(1,0,0,-1,353.09,589.56)"><tspan id="tspan54" y="0" x="0 6.1200399">74</tspan></text>
</g>
    </g>
    <g id="g56">
      <g clip-path="url(#clipPath60)" id="g58"/>
    </g>
    <g id="g64">
      <g clip-path="url(#clipPath68)" id="g66"/>
    </g>
    <g id="g72">
      <g clip-path="url(#clipPath76)" id="g74"><text id="text80" style="font-variant:normal;font-weight:normal;font-size:11.03999996px;font-family:Arial;-inkscape-font-specification:Arial;writing-mode:lr-tb;fill:#000000;fill-opacity:1;fill-rule:nonzero;stroke:none" transform="matrix(1,0,0,-1,21.22656,575.88)"><tspan id="tspan82" y="0" x="0 6.1382399 12.24336 17.763359 23.28336 26.396641 34.312321 40.450562 43.51968 49.657921 52.782242 60.697922 66.836159 72.941277 76.054558 82.192802 85.869118 91.389122 94.524483 102.44016 108.5784 114.68352 120.82176 124.49808 127.63344 135.54912 141.68736 147.79248 153.31248 156.42577 160.13519 166.27344 171.79344 174.86256 177.31345 183.41856">Less Data Centers Under Construction</tspan></text>
</g>
    </g>
    <g id="g84">
      <g clip-path="url(#clipPath88)" id="g86"><text id="text92" style="font-variant:normal;font-weight:normal;font-size:11.03999996px;font-family:Arial;-inkscape-font-specification:Arial;writing-mode:lr-tb;fill:#000000;fill-opacity:1;fill-rule:nonzero;stroke:none" transform="matrix(1,0,0,-1,349.37,575.88)"><tspan id="tspan94" y="0" x="0 3.70944 9.8476801 15.9528">(10)</tspan></text>
</g>
    </g>
    <g id="g96">
      <g clip-path="url(#clipPath100)" id="g98"/>
    </g>
    <g id="g104">
      <g clip-path="url(#clipPath108)" id="g106"/>
    </g>
    <g id="g112">
      <g clip-path="url(#clipPath116)" id="g114"><text id="text120" style="font-variant:normal;font-weight:normal;font-size:11.03999996px;font-family:Arial;-inkscape-font-specification:Arial;writing-mode:lr-tb;fill:#000000;fill-opacity:1;fill-rule:nonzero;stroke:none" transform="matrix(1,0,0,-1,21.22656,562.66)"><tspan id="tspan122" y="0" x="0 6.1382399 12.24336 17.763359 23.28336 26.396641 34.312321 37.425598 39.821281 42.216961 44.61264 47.725922 53.124481 56.237759 64.87104 68.580482 70.976158 77.114403 80.183517 87.547203 93.0672 98.587196 104.72544 110.24544">Less Utility Grid Access</tspan></text>
</g>
    </g>
    <g id="g124">
      <g clip-path="url(#clipPath128)" id="g126"><text id="text132" style="font-variant:normal;font-weight:normal;font-size:11.03999996px;font-family:Arial;-inkscape-font-specification:Arial;writing-mode:lr-tb;fill:#000000;fill-opacity:1;fill-rule:nonzero;stroke:none" transform="matrix(1,0,0,-1,349.37,562.66)"><tspan id="tspan134" y="0" x="0 3.70944 9.8476801 15.9528">(15)</tspan></text>
</g>
    </g>
    <g id="g136">
      <g clip-path="url(#clipPath140)" id="g138"/>
    </g>
    <path id="path144" style="fill:#000000;fill-opacity:1;fill-rule:evenodd;stroke:none" d="m 315.65,559.42 50.52,0 0,0.84 -50.52,0 0,-0.84 z"/>
    <g id="g146">
      <g clip-path="url(#clipPath150)" id="g148"/>
    </g>
    <g id="g154">
      <g clip-path="url(#clipPath158)" id="g156"><text id="text162" style="font-variant:normal;font-weight:bold;font-size:11.03999996px;font-family:Arial;-inkscape-font-specification:'Arial Bold';writing-mode:lr-tb;fill:#000000;fill-opacity:1;fill-rule:nonzero;stroke:none" transform="matrix(1,0,0,-1,15,545.62)"><tspan id="tspan164" y="0" x="0 7.31952 14.06496 22.908001 29.04624 33.340801 36.454079 43.773602 50.519039 57.209278 61.503841 65.235359 68.944801 75.083038 78.152161 81.298561 84.411842 92.327522 98.465759 102.14208 108.88752 113.18208 119.32032 122.4336 130.34927 136.48752 145.3416 148.45488 153.72096 160.32288 163.43616 173.25072 179.38896 182.50224 186.21169 192.95712 196.02625 203.38992 210.0912 218.95631 225.09456 229.38911 234.66624 237.77953 245.09904 251.84448 254.9136 261.65903 265.36847 268.48175 275.2272 281.91745">Power Shortfall Before New "Time to Power" Solutions</tspan></text>
</g>
    </g>
    <g id="g166">
      <g clip-path="url(#clipPath170)" id="g168"><text id="text174" style="font-variant:normal;font-weight:bold;font-size:11.03999996px;font-family:Arial;-inkscape-font-specification:'Arial Bold';writing-mode:lr-tb;fill:#000000;fill-opacity:1;fill-rule:nonzero;stroke:none" transform="matrix(1,0,0,-1,353.09,545.62)"><tspan id="tspan176" y="0" x="0 6.1200399">49</tspan></text>
</g>
    </g>
    <g id="g178">
      <g clip-path="url(#clipPath182)" id="g180"/>
    </g>
    <g id="g186">
      <g clip-path="url(#clipPath190)" id="g188"/>
    </g>
    <g id="g194">
      <g clip-path="url(#clipPath198)" id="g196"><text id="text202" style="font-variant:normal;font-weight:bold;font-size:11.03999996px;font-family:Arial;-inkscape-font-specification:'Arial Bold';writing-mode:lr-tb;fill:#000000;fill-opacity:1;fill-rule:nonzero;stroke:none" transform="matrix(1,0,0,-1,315.65,489.94)"><tspan id="tspan204" y="0" x="0 6.74544 13.43568 22.3008 25.41408 32.733601 39.479038">Low End</tspan></text>
</g>
    </g>
    <g id="g206">
      <g clip-path="url(#clipPath210)" id="g208"><text id="text214" style="font-variant:normal;font-weight:bold;font-size:11.03999996px;font-family:Arial;-inkscape-font-specification:'Arial Bold';writing-mode:lr-tb;fill:#000000;fill-opacity:1;fill-rule:nonzero;stroke:none" transform="matrix(1,0,0,-1,376.85,489.94)"><tspan id="tspan216" y="0" x="0 9.2294397 12.34272 19.08816 25.7784 32.523842 35.59296 42.338402">Midpoint</tspan></text>
</g>
    </g>
    <g id="g218">
      <g clip-path="url(#clipPath222)" id="g220"><text id="text226" style="font-variant:normal;font-weight:bold;font-size:11.03999996px;font-family:Arial;-inkscape-font-specification:'Arial Bold';writing-mode:lr-tb;fill:#000000;fill-opacity:1;fill-rule:nonzero;stroke:none" transform="matrix(1,0,0,-1,434.33,489.94)"><tspan id="tspan228" y="0" x="0 7.9156799 11.02896 17.774401 24.46464 27.577921 34.897442 41.642879">High End</tspan></text>
</g>
    </g>
    <g id="g230">
      <g clip-path="url(#clipPath234)" id="g232"><text id="text238" style="font-variant:normal;font-weight:bold;font-size:11.03999996px;font-family:Arial;-inkscape-font-specification:'Arial Bold';writing-mode:lr-tb;fill:#000000;fill-opacity:1;fill-rule:nonzero;stroke:none" transform="matrix(1,0,0,-1,505.97,504.34)"><tspan id="tspan240" y="0" x="0 7.31952 11.61408 18.35952 25.104959 31.199039 37.944481 41.013599 44.14896 47.262241 50.97168 56.855999">Probability </tspan></text>
</g>
    </g>
    <g id="g242">
      <g clip-path="url(#clipPath246)" id="g244"><text id="text250" style="font-variant:normal;font-weight:bold;font-size:11.03999996px;font-family:Arial;-inkscape-font-specification:'Arial Bold';writing-mode:lr-tb;fill:#000000;fill-opacity:1;fill-rule:nonzero;stroke:none" transform="matrix(1,0,0,-1,504.65,490.18)"><tspan id="tspan252" y="0" x="0 6.74544 10.42176 13.54608 20.865601 27.61104 33.70512 39.843361 45.948479 52.08672">of Success</tspan></text>
</g>
    </g>
    <g id="g254">
      <g clip-path="url(#clipPath258)" id="g256"><text id="text262" style="font-variant:normal;font-weight:normal;font-size:11.03999996px;font-family:Arial;-inkscape-font-specification:Arial;writing-mode:lr-tb;fill:#000000;fill-opacity:1;fill-rule:nonzero;stroke:none" transform="matrix(1,0,0,-1,15,476.26)"><tspan id="tspan264" y="0" x="0 7.31952 13.45776 15.8424 21.98064 25.049761 27.500641 33.605759 39.743999 42.813122 48.951359 55.0896 58.191841 61.305119 69.220802 75.359039 78.428162 81.574562 90.20784 96.346077 101.86608 104.9352 111.80208 117.94032 121.61664 127.75488 130.16161 136.29984 142.40495">Solution #1: Nat Gas Turbines</tspan></text>
</g>
    </g>
    <g id="g266">
      <g clip-path="url(#clipPath270)" id="g268"><text id="text274" style="font-variant:normal;font-weight:normal;font-size:11.03999996px;font-family:Arial;-inkscape-font-specification:Arial;writing-mode:lr-tb;fill:#000000;fill-opacity:1;fill-rule:nonzero;stroke:none" transform="matrix(1,0,0,-1,353.09,476.26)"><tspan id="tspan276" y="0" x="0 6.1200399">15</tspan></text>
</g>
    </g>
    <g id="g278">
      <g clip-path="url(#clipPath282)" id="g280"/>
    </g>
    <g id="g286">
      <g clip-path="url(#clipPath290)" id="g288"/>
    </g>
    <g id="g294">
      <g clip-path="url(#clipPath298)" id="g296"><text id="text302" style="font-variant:normal;font-weight:normal;font-size:11.03999996px;font-family:Arial;-inkscape-font-specification:Arial;writing-mode:lr-tb;fill:#000000;fill-opacity:1;fill-rule:nonzero;stroke:none" transform="matrix(1,0,0,-1,414.29,476.26)"><tspan id="tspan304" y="0" x="0 6.1200399">18</tspan></text>
</g>
    </g>
    <g id="g306">
      <g clip-path="url(#clipPath310)" id="g308"/>
    </g>
    <g id="g314">
      <g clip-path="url(#clipPath318)" id="g316"/>
    </g>
    <g id="g322">
      <g clip-path="url(#clipPath326)" id="g324"><text id="text330" style="font-variant:normal;font-weight:normal;font-size:11.03999996px;font-family:Arial;-inkscape-font-specification:Arial;writing-mode:lr-tb;fill:#000000;fill-opacity:1;fill-rule:nonzero;stroke:none" transform="matrix(1,0,0,-1,479.21,476.26)"><tspan id="tspan332" y="0" x="0 6.1200399">20</tspan></text>
</g>
    </g>
    <g id="g334">
      <g clip-path="url(#clipPath338)" id="g336"><text id="text342" style="font-variant:normal;font-weight:normal;font-size:11.03999996px;font-family:Arial;-inkscape-font-specification:Arial;writing-mode:lr-tb;fill:#000000;fill-opacity:1;fill-rule:nonzero;stroke:none" transform="matrix(1,0,0,-1,540.31,476.26)"><tspan id="tspan344" y="0" x="0 6.1200399 12.24008">90%</tspan></text>
</g>
    </g>
    <g id="g346">
      <g clip-path="url(#clipPath350)" id="g348"><text id="text354" style="font-variant:normal;font-weight:normal;font-size:11.03999996px;font-family:Arial;-inkscape-font-specification:Arial;writing-mode:lr-tb;fill:#000000;fill-opacity:1;fill-rule:nonzero;stroke:none" transform="matrix(1,0,0,-1,15,462.58)"><tspan id="tspan356" y="0" x="0 7.31952 13.45776 15.8424 21.98064 25.049761 27.500641 33.605759 39.743999 42.813122 48.951359 55.0896 58.191841 61.305119 68.624641 71.020317 77.158562 83.26368 92.493118 95.6064 102.92592 109.06416 115.16928 118.87872 125.10528 130.50385 133.61713 140.36256 146.45663 152.59488 154.97952 158.0928 166.00848 172.14671 174.53136 176.92703">Solution #2: Bloom Energy Fuel Cells</tspan></text>
</g>
    </g>
    <g id="g358">
      <g clip-path="url(#clipPath362)" id="g360"><text id="text366" style="font-variant:normal;font-weight:normal;font-size:11.03999996px;font-family:Arial;-inkscape-font-specification:Arial;writing-mode:lr-tb;fill:#000000;fill-opacity:1;fill-rule:nonzero;stroke:none" transform="matrix(1,0,0,-1,359.21,462.58)"><tspan id="tspan368" y="0" x="0">5</tspan></text>
</g>
    </g>
    <g id="g370">
      <g clip-path="url(#clipPath374)" id="g372"/>
    </g>
    <g id="g378">
      <g clip-path="url(#clipPath382)" id="g380"/>
    </g>
    <g id="g386">
      <g clip-path="url(#clipPath390)" id="g388"><text id="text394" style="font-variant:normal;font-weight:normal;font-size:11.03999996px;font-family:Arial;-inkscape-font-specification:Arial;writing-mode:lr-tb;fill:#000000;fill-opacity:1;fill-rule:nonzero;stroke:none" transform="matrix(1,0,0,-1,420.41,462.58)"><tspan id="tspan396" y="0" x="0">7</tspan></text>
</g>
    </g>
    <g id="g398">
      <g clip-path="url(#clipPath402)" id="g400"/>
    </g>
    <g id="g406">
      <g clip-path="url(#clipPath410)" id="g408"/>
    </g>
    <g id="g414">
      <g clip-path="url(#clipPath418)" id="g416"><text id="text422" style="font-variant:normal;font-weight:normal;font-size:11.03999996px;font-family:Arial;-inkscape-font-specification:Arial;writing-mode:lr-tb;fill:#000000;fill-opacity:1;fill-rule:nonzero;stroke:none" transform="matrix(1,0,0,-1,485.33,462.58)"><tspan id="tspan424" y="0" x="0">8</tspan></text>
</g>
    </g>
    <g id="g426">
      <g clip-path="url(#clipPath430)" id="g428"><text id="text434" style="font-variant:normal;font-weight:normal;font-size:11.03999996px;font-family:Arial;-inkscape-font-specification:Arial;writing-mode:lr-tb;fill:#000000;fill-opacity:1;fill-rule:nonzero;stroke:none" transform="matrix(1,0,0,-1,540.31,462.58)"><tspan id="tspan436" y="0" x="0 6.1200399 12.24008">90%</tspan></text>
</g>
    </g>
    <g id="g438">
      <g clip-path="url(#clipPath442)" id="g440"><text id="text446" style="font-variant:normal;font-weight:normal;font-size:11.03999996px;font-family:Arial;-inkscape-font-specification:Arial;writing-mode:lr-tb;fill:#000000;fill-opacity:1;fill-rule:nonzero;stroke:none" transform="matrix(1,0,0,-1,15,448.9)"><tspan id="tspan448" y="0" x="0 7.31952 13.45776 15.8424 21.98064 25.049761 27.500641 33.605759 39.743999 42.813122 48.951359 55.0896 58.191841 61.305119 68.624641 71.020317 74.133598 80.271843 83.340958 91.311836 99.216476 102.32976 108.468 111.53712 114.68352 123.3168 129.45505 131.58575 133.98145 137.09473 145.01041 151.14864 156.66864 159.05328 165.19151 171.29665 175.00607 178.11935 185.43887 187.83456 193.97279 200.07793">Solution #3: Site DC at Op'l Nuclear Plant</tspan></text>
</g>
    </g>
    <g id="g450">
      <g clip-path="url(#clipPath454)" id="g452"><text id="text458" style="font-variant:normal;font-weight:normal;font-size:11.03999996px;font-family:Arial;-inkscape-font-specification:Arial;writing-mode:lr-tb;fill:#000000;fill-opacity:1;fill-rule:nonzero;stroke:none" transform="matrix(1,0,0,-1,359.21,448.9)"><tspan id="tspan460" y="0" x="0">5</tspan></text>
</g>
    </g>
    <g id="g462">
      <g clip-path="url(#clipPath466)" id="g464"/>
    </g>
    <g id="g470">
      <g clip-path="url(#clipPath474)" id="g472"/>
    </g>
    <g id="g478">
      <g clip-path="url(#clipPath482)" id="g480"><text id="text486" style="font-variant:normal;font-weight:normal;font-size:11.03999996px;font-family:Arial;-inkscape-font-specification:Arial;writing-mode:lr-tb;fill:#000000;fill-opacity:1;fill-rule:nonzero;stroke:none" transform="matrix(1,0,0,-1,414.29,448.9)"><tspan id="tspan488" y="0" x="0 6.1200399">10</tspan></text>
</g>
    </g>
    <g id="g490">
      <g clip-path="url(#clipPath494)" id="g492"/>
    </g>
    <g id="g498">
      <g clip-path="url(#clipPath502)" id="g500"/>
    </g>
    <g id="g506">
      <g clip-path="url(#clipPath510)" id="g508"><text id="text514" style="font-variant:normal;font-weight:normal;font-size:11.03999996px;font-family:Arial;-inkscape-font-specification:Arial;writing-mode:lr-tb;fill:#000000;fill-opacity:1;fill-rule:nonzero;stroke:none" transform="matrix(1,0,0,-1,479.21,448.9)"><tspan id="tspan516" y="0" x="0 6.1200399">15</tspan></text>
</g>
    </g>
    <g id="g518">
      <g clip-path="url(#clipPath522)" id="g520"><text id="text526" style="font-variant:normal;font-weight:normal;font-size:11.03999996px;font-family:Arial;-inkscape-font-specification:Arial;writing-mode:lr-tb;fill:#000000;fill-opacity:1;fill-rule:nonzero;stroke:none" transform="matrix(1,0,0,-1,540.31,448.9)"><tspan id="tspan528" y="0" x="0 6.1200399 12.24008">75%</tspan></text>
</g>
    </g>
    <g id="g530">
      <g clip-path="url(#clipPath534)" id="g532"><text id="text538" style="font-variant:normal;font-weight:normal;font-size:11.03999996px;font-family:Arial;-inkscape-font-specification:Arial;writing-mode:lr-tb;fill:#000000;fill-opacity:1;fill-rule:nonzero;stroke:none" transform="matrix(1,0,0,-1,15,435.22)"><tspan id="tspan540" y="0" x="0 7.31952 13.45776 15.8424 21.98064 25.049761 27.500641 33.605759 39.743999 42.813122 48.951359 55.0896 58.191841 61.305119 69.220802 75.359039 81.464157 86.862717 93.000961 96.677277 99.812637 102.92592 110.24544 112.64112 115.7544 121.2744 127.41264 129.79729 135.93552 139.00464 146.36832 148.75296 151.86624 158.00449">Solution #4: Convert Bitcoin Sites</tspan></text>
</g>
    </g>
    <g id="g542">
      <g clip-path="url(#clipPath546)" id="g544"><text id="text550" style="font-variant:normal;font-weight:normal;font-size:11.03999996px;font-family:Arial;-inkscape-font-specification:Arial;writing-mode:lr-tb;fill:#000000;fill-opacity:1;fill-rule:nonzero;stroke:none" transform="matrix(1,0,0,-1,353.09,435.22)"><tspan id="tspan552" y="0" x="0 6.1200399">10</tspan></text>
</g>
    </g>
    <g id="g554">
      <g clip-path="url(#clipPath558)" id="g556"/>
    </g>
    <g id="g562">
      <g clip-path="url(#clipPath566)" id="g564"/>
    </g>
    <g id="g570">
      <g clip-path="url(#clipPath574)" id="g572"><text id="text578" style="font-variant:normal;font-weight:normal;font-size:11.03999996px;font-family:Arial;-inkscape-font-specification:Arial;writing-mode:lr-tb;fill:#000000;fill-opacity:1;fill-rule:nonzero;stroke:none" transform="matrix(1,0,0,-1,414.29,435.22)"><tspan id="tspan580" y="0" x="0 6.1200399">13</tspan></text>
</g>
    </g>
    <g id="g582">
      <g clip-path="url(#clipPath586)" id="g584"/>
    </g>
    <g id="g590">
      <g clip-path="url(#clipPath594)" id="g592"/>
    </g>
    <g id="g598">
      <g clip-path="url(#clipPath602)" id="g600"><text id="text606" style="font-variant:normal;font-weight:normal;font-size:11.03999996px;font-family:Arial;-inkscape-font-specification:Arial;writing-mode:lr-tb;fill:#000000;fill-opacity:1;fill-rule:nonzero;stroke:none" transform="matrix(1,0,0,-1,479.21,435.22)"><tspan id="tspan608" y="0" x="0 6.1200399">15</tspan></text>
</g>
    </g>
    <g id="g610">
      <g clip-path="url(#clipPath614)" id="g612"><text id="text618" style="font-variant:normal;font-weight:normal;font-size:11.03999996px;font-family:Arial;-inkscape-font-specification:Arial;writing-mode:lr-tb;fill:#000000;fill-opacity:1;fill-rule:nonzero;stroke:none" transform="matrix(1,0,0,-1,540.31,435.22)"><tspan id="tspan620" y="0" x="0 6.1200399 12.24008">90%</tspan></text>
</g>
    </g>
    <g id="g622">
      <g clip-path="url(#clipPath626)" id="g624"><text id="text630" style="font-variant:normal;font-weight:normal;font-size:11.03999996px;font-family:Arial;-inkscape-font-specification:Arial;writing-mode:lr-tb;fill:#000000;fill-opacity:1;fill-rule:nonzero;stroke:none" transform="matrix(1,0,0,-1,15,407.83)"><tspan id="tspan632" y="0" x="0 7.31952 11.02896 17.1672 23.27232 29.410561 35.515678 37.911362 40.307041 42.702721 45.816002 51.214561 54.924 65.83152 71.969757 74.354401 80.580963 86.7192 89.788322 95.926559 102.0648 105.16704 109.11936 115.95312 118.3488 127.57824 133.71648 136.7856 139.93201 146.07024 149.13936 156.50304 162.64128 170.41344 176.55168 180.228 184.20239 187.31567 194.63519 200.77344 203.15808 209.29633 212.36543 214.81631 220.92143 227.05968 232.57968 235.6488 238.7952 244.93344 248.60976 254.748 257.86127 263.99951 270.10464 276.24289">Probability-Weighted "Time to Power" Solutions thru 2028</tspan></text>
</g>
    </g>
    <g id="g634">
      <g clip-path="url(#clipPath638)" id="g636"><text id="text642" style="font-variant:normal;font-weight:normal;font-size:11.03999996px;font-family:Arial;-inkscape-font-specification:Arial;writing-mode:lr-tb;fill:#000000;fill-opacity:1;fill-rule:nonzero;stroke:none" transform="matrix(1,0,0,-1,353.09,407.83)"><tspan id="tspan644" y="0" x="0 6.1200399">31</tspan></text>
</g>
    </g>
    <g id="g646">
      <g clip-path="url(#clipPath650)" id="g648"/>
    </g>
    <g id="g654">
      <g clip-path="url(#clipPath658)" id="g656"/>
    </g>
    <g id="g662">
      <g clip-path="url(#clipPath666)" id="g664"><text id="text670" style="font-variant:normal;font-weight:normal;font-size:11.03999996px;font-family:Arial;-inkscape-font-specification:Arial;writing-mode:lr-tb;fill:#000000;fill-opacity:1;fill-rule:nonzero;stroke:none" transform="matrix(1,0,0,-1,414.29,407.83)"><tspan id="tspan672" y="0" x="0 6.1200399">40</tspan></text>
</g>
    </g>
    <g id="g674">
      <g clip-path="url(#clipPath678)" id="g676"/>
    </g>
    <g id="g682">
      <g clip-path="url(#clipPath686)" id="g684"/>
    </g>
    <g id="g690">
      <g clip-path="url(#clipPath694)" id="g692"><text id="text698" style="font-variant:normal;font-weight:normal;font-size:11.03999996px;font-family:Arial;-inkscape-font-specification:Arial;writing-mode:lr-tb;fill:#000000;fill-opacity:1;fill-rule:nonzero;stroke:none" transform="matrix(1,0,0,-1,475.49,407.83)"><tspan id="tspan700" y="0" x="0 6.1200399">50</tspan></text>
</g>
    </g>
    <g id="g702">
      <g clip-path="url(#clipPath706)" id="g704"/>
    </g>
    <g id="g710">
      <g clip-path="url(#clipPath714)" id="g712"/>
    </g>
    <g id="g718">
      <g clip-path="url(#clipPath722)" id="g720"><text id="text726" style="font-variant:normal;font-weight:bold;font-size:11.03999996px;font-family:Arial;-inkscape-font-specification:'Arial Bold';writing-mode:lr-tb;fill:#000000;fill-opacity:1;fill-rule:nonzero;stroke:none" transform="matrix(1,0,0,-1,15,394.63)"><tspan id="tspan728" y="0" x="0 7.9156799 14.05392 17.73024 20.865601 28.18512 34.930561 41.6208 45.915359 49.646881 53.356319 59.49456 62.563679 65.710083 68.823357 75.425278 82.170723 86.465279 93.210716 99.900963 106.6464 113.33664 116.44992 122.58816 128.69328 134.83151">Net Shortfall Through 2028</tspan></text>
</g>
    </g>
    <g id="g730">
      <g clip-path="url(#clipPath734)" id="g732"><text id="text738" style="font-variant:normal;font-weight:bold;font-size:11.03999996px;font-family:Arial;-inkscape-font-specification:'Arial Bold';writing-mode:lr-tb;fill:#000000;fill-opacity:1;fill-rule:nonzero;stroke:none" transform="matrix(1,0,0,-1,349.37,394.63)"><tspan id="tspan740" y="0" x="0 3.70944 9.8476801 15.9528">(18)</tspan></text>
</g>
    </g>
    <g id="g742">
      <g clip-path="url(#clipPath746)" id="g744"/>
    </g>
    <g id="g750">
      <g clip-path="url(#clipPath754)" id="g752"/>
    </g>
    <g id="g758">
      <g clip-path="url(#clipPath762)" id="g760"><text id="text766" style="font-variant:normal;font-weight:bold;font-size:11.03999996px;font-family:Arial;-inkscape-font-specification:'Arial Bold';writing-mode:lr-tb;fill:#000000;fill-opacity:1;fill-rule:nonzero;stroke:none" transform="matrix(1,0,0,-1,416.69,394.63)"><tspan id="tspan768" y="0" x="0 3.70944 9.8476801">(9)</tspan></text>
</g>
    </g>
    <g id="g770">
      <g clip-path="url(#clipPath774)" id="g772"/>
    </g>
    <g id="g778">
      <g clip-path="url(#clipPath782)" id="g780"/>
    </g>
    <g id="g786">
      <g clip-path="url(#clipPath790)" id="g788"><text id="text794" style="font-variant:normal;font-weight:bold;font-size:11.03999996px;font-family:Arial;-inkscape-font-specification:'Arial Bold';writing-mode:lr-tb;fill:#000000;fill-opacity:1;fill-rule:nonzero;stroke:none" transform="matrix(1,0,0,-1,463.97,394.63)"><tspan id="tspan796" y="0" x="0 7.9156799 14.66112 21.35136">None</tspan></text>
</g>
    </g>
    <g id="g798">
      <g clip-path="url(#clipPath802)" id="g800"><text id="text806" style="font-style:italic;font-variant:normal;font-weight:normal;font-size:11.03999996px;font-family:Arial;-inkscape-font-specification:'Arial Italic';writing-mode:lr-tb;fill:#000000;fill-opacity:1;fill-rule:nonzero;stroke:none" transform="matrix(1,0,0,-1,15,379.63)"><tspan id="tspan808" y="0" x="0 7.31952 13.45776 19.56288 23.27232 26.385599 29.49888 35.637119 38.021759 40.417439 43.53072 49.668961 55.188961 58.25808 64.396317 67.520638 77.335197 80.470558 86.608803 89.677917 92.824318 98.962563 105.06768 111.20592 117.31104 121.02048 127.15872 133.26384 136.37712 144.2928 151.61232 154.7256 162.64128 170.55696 173.67024 181.58592 187.72417 193.82928 196.22496 202.3632 207.88319 217.07951 223.21776 229.356 232.45824">Shortfall as a % of 2025-28 US DC Deployments</tspan></text>
<text id="text810" style="font-style:italic;font-variant:normal;font-weight:normal;font-size:11.03999996px;font-family:Arial;-inkscape-font-specification:'Arial Italic';writing-mode:lr-tb;fill:#000000;fill-opacity:1;fill-rule:nonzero;stroke:none" transform="matrix(1,0,0,-1,345.05,379.63)"><tspan id="tspan812" y="0" x="0 6.1200399 12.24008">25%</tspan></text>
<text id="text814" style="font-style:italic;font-variant:normal;font-weight:normal;font-size:11.03999996px;font-family:Arial;-inkscape-font-specification:'Arial Italic';writing-mode:lr-tb;fill:#000000;fill-opacity:1;fill-rule:nonzero;stroke:none" transform="matrix(1,0,0,-1,406.25,379.63)"><tspan id="tspan816" y="0" x="0 6.1200399 12.24008">12%</tspan></text>
</g>
    </g>
    <g id="g818">
      <g clip-path="url(#clipPath822)" id="g820"><text id="text826" style="font-variant:normal;font-weight:normal;font-size:11.03999996px;font-family:Arial;-inkscape-font-specification:Arial;writing-mode:lr-tb;fill:#000000;fill-opacity:1;fill-rule:nonzero;stroke:none" transform="matrix(1,0,0,-1,311.93,315.07)"><tspan id="tspan828" y="0" x="0 10.90752 17.045759 20.11488 26.25312 32.391361 34.787041 37.18272 43.320961 48.697441 54.835678 57.9048 61.051201 67.189438 73.294563 76.407837 85.637283 91.77552 97.295517 100.36464 103.51104 105.90672 108.3024 113.9328 120.07104 122.45568 127.85424 130.96751 137.10576 143.21088 146.32416 151.84416 157.98241 167.17873 173.31696">We believe the most likely outcome </tspan></text>
</g>
    </g>
    <g id="g830">
      <g clip-path="url(#clipPath834)" id="g832">
        <path id="path838" style="fill:none;stroke:#000000;stroke-width:0.14;stroke-linecap:square;stroke-linejoin:round;stroke-miterlimit:10;stroke-dasharray:none;stroke-opacity:1" d="m 311.39,487.12 119.4,0"/>
        <path id="path840" style="fill:#000000;fill-opacity:1;fill-rule:evenodd;stroke:none" d="m 311.33,486.22 119.52,0 0,0.96001 -119.52,0 0,-0.96001 z"/>
        <path id="path842" style="fill:#ff0000;fill-opacity:1;fill-rule:evenodd;stroke:none" d="m 308.45,388.99 2.88,0 0,126.98 -2.88,0 0,-126.98 z"/>
        <path id="path844" style="fill:#ff0000;fill-opacity:1;fill-rule:evenodd;stroke:none" d="m 430.85,388.99 2.88,0 0,124.1 -2.88,0 0,-124.1 z"/>
        <path id="path846" style="fill:#ff0000;fill-opacity:1;fill-rule:evenodd;stroke:none" d="m 311.33,513.1 122.4,0 0,2.88 -122.4,0 0,-2.88 z"/>
        <path id="path848" style="fill:none;stroke:#000000;stroke-width:0.14;stroke-linecap:square;stroke-linejoin:round;stroke-miterlimit:10;stroke-dasharray:none;stroke-opacity:1" d="m 433.79,487.12 130.7,0"/>
        <path id="path850" style="fill:#000000;fill-opacity:1;fill-rule:evenodd;stroke:none" d="m 433.73,486.22 130.82,0 0,0.96001 -130.82,0 0,-0.96001 z"/>
        <path id="path852" style="fill:#ff0000;fill-opacity:1;fill-rule:evenodd;stroke:none" d="m 311.33,388.99 122.4,0 0,2.88 -122.4,0 0,-2.88 z"/>
      </g>
    </g>
    <g id="g854">
      <g clip-path="url(#clipPath858)" id="g856">
        <path id="path862" style="fill:none;stroke:#ff0000;stroke-width:1.75;stroke-linecap:butt;stroke-linejoin:miter;stroke-miterlimit:10;stroke-dasharray:none;stroke-opacity:1" d="m 434.03,372.48 c 0,-12.29 -1.66,-22.26 -3.71,-22.26 l -56.16,0 c -2.05,0 -3.71,-9.97 -3.71,-22.26 0,12.29 -1.66,22.26 -3.71,22.26 l -53.07,0 c -2.05,0 -3.71,9.97 -3.71,22.26"/>
      </g>
    </g>
  </g>
</svg>
