<?xml version="1.0" encoding="UTF-8" standalone="no"?>
<svg xmlns:dc="http://purl.org/dc/elements/1.1/" xmlns:cc="http://creativecommons.org/ns#" xmlns:rdf="http://www.w3.org/1999/02/22-rdf-syntax-ns#" xmlns:svg="http://www.w3.org/2000/svg" xmlns="http://www.w3.org/2000/svg" viewBox="68.4775 170.7 939 527.45" height="527.45" width="939" xml:space="preserve" version="1.1" id="svg2">
  <metadata id="metadata8">
    <rdf:RDF>
      <cc:Work rdf:about="">
        <dc:format>image/svg+xml</dc:format>
        <dc:type rdf:resource="http://purl.org/dc/dcmitype/StillImage"/>
      </cc:Work>
    </rdf:RDF>
  </metadata>
  <defs id="defs6">
    <clipPath id="clipPath16" clipPathUnits="userSpaceOnUse">
      <path style="clip-rule:evenodd" id="path18" d="m 54.782,106.7 751.3,0 0,421.96 -751.3,0 0,-421.96 z"/>
    </clipPath>
    <clipPath id="clipPath26" clipPathUnits="userSpaceOnUse">
      <path style="clip-rule:evenodd" id="path28" d="m 54.783,106.7 751.3,0 0,421.96 -751.3,0 0,-421.96 z"/>
    </clipPath>
    <clipPath id="clipPath42" clipPathUnits="userSpaceOnUse">
      <path style="clip-rule:evenodd" id="path44" d="m 54.913,106.7 751.04,0 0,421.96 -751.04,0 0,-421.96 z"/>
    </clipPath>
    <clipPath id="clipPath54" clipPathUnits="userSpaceOnUse">
      <path style="clip-rule:evenodd" id="path56" d="m 54.913,106.7 751.04,0 0,421.96 -751.04,0 0,-421.96 z"/>
    </clipPath>
    <clipPath id="clipPath66" clipPathUnits="userSpaceOnUse">
      <path style="clip-rule:evenodd" id="path68" d="m 54.913,106.7 751.04,0 0,421.96 -751.04,0 0,-421.96 z"/>
    </clipPath>
    <clipPath id="clipPath78" clipPathUnits="userSpaceOnUse">
      <path style="clip-rule:evenodd" id="path80" d="m 54.913,106.7 751.04,0 0,421.96 -751.04,0 0,-421.96 z"/>
    </clipPath>
    <clipPath id="clipPath90" clipPathUnits="userSpaceOnUse">
      <path style="clip-rule:evenodd" id="path92" d="m 54.913,106.7 751.04,0 0,421.96 -751.04,0 0,-421.96 z"/>
    </clipPath>
    <clipPath id="clipPath102" clipPathUnits="userSpaceOnUse">
      <path style="clip-rule:evenodd" id="path104" d="m 54.913,106.7 751.04,0 0,421.96 -751.04,0 0,-421.96 z"/>
    </clipPath>
    <clipPath id="clipPath114" clipPathUnits="userSpaceOnUse">
      <path style="clip-rule:evenodd" id="path116" d="m 54.913,106.7 751.04,0 0,421.96 -751.04,0 0,-421.96 z"/>
    </clipPath>
    <clipPath id="clipPath126" clipPathUnits="userSpaceOnUse">
      <path style="clip-rule:evenodd" id="path128" d="m 54.913,106.7 751.04,0 0,421.96 -751.04,0 0,-421.96 z"/>
    </clipPath>
    <clipPath id="clipPath138" clipPathUnits="userSpaceOnUse">
      <path style="clip-rule:evenodd" id="path140" d="m 54.913,106.7 751.04,0 0,421.96 -751.04,0 0,-421.96 z"/>
    </clipPath>
    <clipPath id="clipPath150" clipPathUnits="userSpaceOnUse">
      <path style="clip-rule:evenodd" id="path152" d="m 54.913,106.7 751.04,0 0,421.96 -751.04,0 0,-421.96 z"/>
    </clipPath>
    <clipPath id="clipPath162" clipPathUnits="userSpaceOnUse">
      <path style="clip-rule:evenodd" id="path164" d="m 54.913,106.7 751.04,0 0,421.96 -751.04,0 0,-421.96 z"/>
    </clipPath>
    <clipPath id="clipPath174" clipPathUnits="userSpaceOnUse">
      <path style="clip-rule:evenodd" id="path176" d="m 54.913,106.7 751.04,0 0,421.96 -751.04,0 0,-421.96 z"/>
    </clipPath>
    <clipPath id="clipPath186" clipPathUnits="userSpaceOnUse">
      <path style="clip-rule:evenodd" id="path188" d="m 54.913,106.7 751.04,0 0,421.96 -751.04,0 0,-421.96 z"/>
    </clipPath>
    <clipPath id="clipPath198" clipPathUnits="userSpaceOnUse">
      <path style="clip-rule:evenodd" id="path200" d="m 54.913,106.7 751.04,0 0,421.96 -751.04,0 0,-421.96 z"/>
    </clipPath>
    <clipPath id="clipPath210" clipPathUnits="userSpaceOnUse">
      <path style="clip-rule:evenodd" id="path212" d="m 54.913,106.7 751.04,0 0,421.96 -751.04,0 0,-421.96 z"/>
    </clipPath>
    <clipPath id="clipPath222" clipPathUnits="userSpaceOnUse">
      <path style="clip-rule:evenodd" id="path224" d="m 54.913,106.7 751.04,0 0,421.96 -751.04,0 0,-421.96 z"/>
    </clipPath>
    <clipPath id="clipPath234" clipPathUnits="userSpaceOnUse">
      <path style="clip-rule:evenodd" id="path236" d="m 54.913,106.7 751.04,0 0,421.96 -751.04,0 0,-421.96 z"/>
    </clipPath>
    <clipPath id="clipPath246" clipPathUnits="userSpaceOnUse">
      <path style="clip-rule:evenodd" id="path248" d="m 54.913,106.7 751.04,0 0,421.96 -751.04,0 0,-421.96 z"/>
    </clipPath>
  </defs>
  <g transform="matrix(1.25,0,0,-1.25,0,831.525)" id="g10">
    <g id="g12">
      <g clip-path="url(#clipPath16)" id="g14">
        <path id="path20" style="fill:none;stroke:#000000;stroke-width:0.14;stroke-linecap:butt;stroke-linejoin:miter;stroke-miterlimit:10;stroke-dasharray:none;stroke-opacity:0" d="m 54.809,106.57 751.09,0 0,422.08 -751.09,0 0,-422.08 z"/>
      </g>
    </g>
    <g id="g22">
      <g clip-path="url(#clipPath26)" id="g24">
        <path id="path30" style="fill:#ffffff;fill-opacity:1;fill-rule:evenodd;stroke:none" d="m 54.809,106.57 751.09,0 0,422.08 -751.09,0 0,-422.08 z"/>
      </g>
    </g>
    <path id="path32" style="fill:#2673b2;fill-opacity:1;fill-rule:nonzero;stroke:none" d="m 162.13,428 52.96,0 0,-276.1 -52.96,0 0,276.1 z m 132.54,-53.48 52.97,0 0,-222.62 -52.97,0 0,222.62 z m 132.55,2.3 52.97,0 0,-224.92 -52.97,0 0,224.92 z m 132.54,-89.56 52.97,0 0,-135.36 -52.97,0 0,135.36 z m 132.55,6.66 52.97,0 0,-142.02 -52.97,0 0,142.02 z"/>
    <path id="path34" style="fill:none;stroke:#000000;stroke-width:1.47090006;stroke-linecap:butt;stroke-linejoin:round;stroke-miterlimit:10;stroke-dasharray:none;stroke-opacity:1" d="m 162.13,428 52.96,0 0,-276.1 -52.96,0 0,276.1 z m 132.54,-53.48 52.97,0 0,-222.62 -52.97,0 0,222.62 z m 132.55,2.3 52.97,0 0,-224.92 -52.97,0 0,224.92 z m 132.54,-89.56 52.97,0 0,-135.36 -52.97,0 0,135.36 z m 132.55,6.66 52.97,0 0,-142.02 -52.97,0 0,142.02 z"/>
    <path id="path36" style="fill:none;stroke:#d9d9d9;stroke-width:1.47090006;stroke-linecap:butt;stroke-linejoin:round;stroke-miterlimit:10;stroke-dasharray:none;stroke-opacity:1" d="m 122.32,151.9 662.71,0"/>
    <g id="g38">
      <g clip-path="url(#clipPath42)" id="g40"><text id="text46" style="font-variant:normal;font-weight:bold;font-size:20.71699905px;font-family:Calibri;-inkscape-font-specification:Calibri-Bold;writing-mode:lr-tb;fill:#ffffff;fill-opacity:1;fill-rule:nonzero;stroke:none" transform="matrix(1,0,0,-1,170.04,399.46)"><tspan id="tspan48" y="0" x="0 10.503519 21.007038 26.600628">14.3</tspan></text>
</g>
    </g>
    <g id="g50">
      <g clip-path="url(#clipPath54)" id="g52"><text id="text58" style="font-variant:normal;font-weight:bold;font-size:20.71699905px;font-family:Calibri;-inkscape-font-specification:Calibri-Bold;writing-mode:lr-tb;fill:#ffffff;fill-opacity:1;fill-rule:nonzero;stroke:none" transform="matrix(1,0,0,-1,302.61,346.02)"><tspan id="tspan60" y="0" x="0 10.503519 21.007038 26.600628">13.4</tspan></text>
</g>
    </g>
    <g id="g62">
      <g clip-path="url(#clipPath66)" id="g64"><text id="text70" style="font-variant:normal;font-weight:bold;font-size:20.71699905px;font-family:Calibri;-inkscape-font-specification:Calibri-Bold;writing-mode:lr-tb;fill:#ffffff;fill-opacity:1;fill-rule:nonzero;stroke:none" transform="matrix(1,0,0,-1,435.17,348.26)"><tspan id="tspan72" y="0" x="0 10.503519 21.007038 26.600628">13.5</tspan></text>
</g>
    </g>
    <g id="g74">
      <g clip-path="url(#clipPath78)" id="g76"><text id="text82" style="font-variant:normal;font-weight:bold;font-size:20.73900032px;font-family:Calibri;-inkscape-font-specification:Calibri-Bold;writing-mode:lr-tb;fill:#ffffff;fill-opacity:1;fill-rule:nonzero;stroke:none" transform="matrix(1,0,0,-1,567.74,258.74)"><tspan id="tspan84" y="0" x="0 10.514673 20.94639 26.545919">12.1</tspan></text>
</g>
    </g>
    <g id="g86">
      <g clip-path="url(#clipPath90)" id="g88"><text id="text94" style="font-variant:normal;font-weight:bold;font-size:20.73900032px;font-family:Calibri;-inkscape-font-specification:Calibri-Bold;writing-mode:lr-tb;fill:#ffffff;fill-opacity:1;fill-rule:nonzero;stroke:none" transform="matrix(1,0,0,-1,700.3,265.26)"><tspan id="tspan96" y="0" x="0 10.514673 20.94639 26.545919">12.2</tspan></text>
</g>
    </g>
    <g id="g98">
      <g clip-path="url(#clipPath102)" id="g100"><text id="text106" style="font-variant:normal;font-weight:normal;font-size:20.73900032px;font-family:Calibri;-inkscape-font-specification:Calibri;writing-mode:lr-tb;fill:#000000;fill-opacity:1;fill-rule:nonzero;stroke:none" transform="matrix(1,0,0,-1,77.647058,145.8)"><tspan id="tspan108" y="0" x="0 10.514673">10</tspan></text>
</g>
    </g>
    <g id="g110">
      <g clip-path="url(#clipPath114)" id="g112"><text id="text118" style="font-variant:normal;font-weight:normal;font-size:20.71699905px;font-family:Calibri;-inkscape-font-specification:Calibri;writing-mode:lr-tb;fill:#000000;fill-opacity:1;fill-rule:nonzero;stroke:none" transform="matrix(1,0,0,-1,77.642174,210.57)"><tspan id="tspan120" y="0" x="0 10.503519">11</tspan></text>
</g>
    </g>
    <g id="g122">
      <g clip-path="url(#clipPath126)" id="g124"><text id="text130" style="font-variant:normal;font-weight:normal;font-size:20.71699905px;font-family:Calibri;-inkscape-font-specification:Calibri;writing-mode:lr-tb;fill:#000000;fill-opacity:1;fill-rule:nonzero;stroke:none" transform="matrix(1,0,0,-1,77.642174,275.35)"><tspan id="tspan132" y="0" x="0 10.503519">12</tspan></text>
</g>
    </g>
    <g id="g134">
      <g clip-path="url(#clipPath138)" id="g136"><text id="text142" style="font-variant:normal;font-weight:normal;font-size:20.73900032px;font-family:Calibri;-inkscape-font-specification:Calibri;writing-mode:lr-tb;fill:#000000;fill-opacity:1;fill-rule:nonzero;stroke:none" transform="matrix(1,0,0,-1,77.647058,340.13)"><tspan id="tspan144" y="0" x="0 10.514673">13</tspan></text>
</g>
    </g>
    <g id="g146">
      <g clip-path="url(#clipPath150)" id="g148"><text id="text154" style="font-variant:normal;font-weight:normal;font-size:20.71699905px;font-family:Calibri;-inkscape-font-specification:Calibri;writing-mode:lr-tb;fill:#000000;fill-opacity:1;fill-rule:nonzero;stroke:none" transform="matrix(1,0,0,-1,77.642174,404.89)"><tspan id="tspan156" y="0" x="0 10.503519">14</tspan></text>
</g>
    </g>
    <g id="g158">
      <g clip-path="url(#clipPath162)" id="g160"><text id="text166" style="font-variant:normal;font-weight:normal;font-size:20.71699905px;font-family:Calibri;-inkscape-font-specification:Calibri;writing-mode:lr-tb;fill:#000000;fill-opacity:1;fill-rule:nonzero;stroke:none" transform="matrix(1,0,0,-1,77.642174,469.67)"><tspan id="tspan168" y="0" x="0 10.503519">15</tspan></text>
</g>
    </g>
    <g id="g170">
      <g clip-path="url(#clipPath174)" id="g172"><text id="text178" style="font-variant:normal;font-weight:normal;font-size:20.71699905px;font-family:Calibri;-inkscape-font-specification:Calibri;writing-mode:lr-tb;fill:#000000;fill-opacity:1;fill-rule:nonzero;stroke:none" transform="matrix(1,0,0,-1,163.35,119)"><tspan id="tspan180" y="0" x="0 10.710689 21.027756 27.885082 35.115314 45.805286">Petrol</tspan></text>
</g>
    </g>
    <g id="g182">
      <g clip-path="url(#clipPath186)" id="g184"><text id="text190" style="font-variant:normal;font-weight:normal;font-size:20.71699905px;font-family:Calibri;-inkscape-font-specification:Calibri;writing-mode:lr-tb;fill:#000000;fill-opacity:1;fill-rule:nonzero;stroke:none" transform="matrix(1,0,0,-1,295.85,119)"><tspan id="tspan192" y="0" x="0 12.782389 17.381563 27.615761 35.798977 46.033173">Diesel</tspan></text>
</g>
    </g>
    <g id="g194">
      <g clip-path="url(#clipPath198)" id="g196"><text id="text202" style="font-variant:normal;font-weight:normal;font-size:20.71699905px;font-family:Calibri;-inkscape-font-specification:Calibri;writing-mode:lr-tb;fill:#000000;fill-opacity:1;fill-rule:nonzero;stroke:none" transform="matrix(1,0,0,-1,420.78,119)"><tspan id="tspan204" y="0" x="0 12.782389 22.208624 32.940029 40.087395 44.665852 55.645863">Hybrid*</tspan></text>
</g>
    </g>
    <g id="g206">
      <g clip-path="url(#clipPath210)" id="g208"><text id="text214" style="font-variant:normal;font-weight:normal;font-size:20.71699905px;font-family:Calibri;-inkscape-font-specification:Calibri;writing-mode:lr-tb;fill:#000000;fill-opacity:1;fill-rule:nonzero;stroke:none" transform="matrix(1,0,0,-1,567.67,119)"><tspan id="tspan216" y="0" x="0 11.042161 24.301041">CNG</tspan></text>
</g>
    </g>
    <g id="g218">
      <g clip-path="url(#clipPath222)" id="g220"><text id="text226" style="font-variant:normal;font-weight:normal;font-size:20.71699905px;font-family:Calibri;-inkscape-font-specification:Calibri;writing-mode:lr-tb;fill:#000000;fill-opacity:1;fill-rule:nonzero;stroke:none" transform="matrix(1,0,0,-1,708,119)"><tspan id="tspan228" y="0" x="0 9.9778957">EV</tspan></text>
</g>
    </g>
    <g id="g230">
      <g clip-path="url(#clipPath234)" id="g232"><text id="text238" style="font-variant:normal;font-weight:normal;font-size:20.73900032px;font-family:Calibri;-inkscape-font-specification:Calibri;writing-mode:lr-tb;fill:#000000;fill-opacity:1;fill-rule:nonzero;stroke:none" transform="matrix(1,0,0,-1,77.022,500.59)"><tspan id="tspan240" y="0" x="0 6.3876119 17.64889 25.820055 30.942589 38.885624 48.321869 64.975288">(Rs./km)</tspan></text>
</g>
    </g>
    <g id="g242">
      <g clip-path="url(#clipPath246)" id="g244"><text id="text250" style="font-variant:normal;font-weight:bold;font-size:23.54299927px;font-family:Calibri;-inkscape-font-specification:Calibri-Bold;writing-mode:lr-tb;fill:#000000;fill-opacity:1;fill-rule:nonzero;stroke:none" transform="matrix(1,0,0,-1,249.17,491.39)"><tspan id="tspan252" y="0" x="0 9.723259 22.271679 30.205669 41.718197 47.580402 52.901119 65.473083 78.0215 87.250359 95.419777 100.55215 113.10057 120.54016 126.11985 142.03491 159.57445 172.21704 183.94145 192.13443 201.52808 214.17067 219.96225 232.60484 237.92555 245.08263 257.63104 266.03589 271.14474 282.13931 301.27979 312.91 318.7016 324.61087 329.93161 342.50357 354.01608">Total Cost of Ownership for Small Car</tspan></text>
</g>
    </g>
  </g>
</svg>
