<?xml version="1.0" encoding="UTF-8" standalone="no"?>
<svg xmlns:dc="http://purl.org/dc/elements/1.1/" xmlns:cc="http://creativecommons.org/ns#" xmlns:rdf="http://www.w3.org/1999/02/22-rdf-syntax-ns#" xmlns:svg="http://www.w3.org/2000/svg" xmlns="http://www.w3.org/2000/svg" viewBox="66.39375 453.475 650.61 254.525" height="254.525" width="650.61" xml:space="preserve" version="1.1" id="svg2">
  <metadata id="metadata8">
    <rdf:RDF>
      <cc:Work rdf:about="">
        <dc:format>image/svg+xml</dc:format>
        <dc:type rdf:resource="http://purl.org/dc/dcmitype/StillImage"/>
      </cc:Work>
    </rdf:RDF>
  </metadata>
  <defs id="defs6">
    <clipPath id="clipPath16" clipPathUnits="userSpaceOnUse">
      <path style="clip-rule:evenodd" id="path18" d="m 53.053,319.83 520.55,0 0,203.75 -520.55,0 0,-203.75 z"/>
    </clipPath>
    <clipPath id="clipPath26" clipPathUnits="userSpaceOnUse">
      <path style="clip-rule:evenodd" id="path28" d="m 53.053,319.83 520.55,0 0,203.75 -520.55,0 0,-203.75 z"/>
    </clipPath>
    <clipPath id="clipPath40" clipPathUnits="userSpaceOnUse">
      <path style="clip-rule:evenodd" id="path42" d="m 53.11,319.84 520.44,0 0,203.65 -520.44,0 0,-203.65 z"/>
    </clipPath>
    <clipPath id="clipPath50" clipPathUnits="userSpaceOnUse">
      <path style="clip-rule:evenodd" id="path52" d="m 53.179,319.83 520.42,0 0,203.62 -520.42,0 0,-203.62 z"/>
    </clipPath>
    <clipPath id="clipPath62" clipPathUnits="userSpaceOnUse">
      <path style="clip-rule:evenodd" id="path64" d="m 53.179,319.83 520.42,0 0,203.62 -520.42,0 0,-203.62 z"/>
    </clipPath>
    <clipPath id="clipPath74" clipPathUnits="userSpaceOnUse">
      <path style="clip-rule:evenodd" id="path76" d="m 53.179,319.83 520.42,0 0,203.62 -520.42,0 0,-203.62 z"/>
    </clipPath>
    <clipPath id="clipPath86" clipPathUnits="userSpaceOnUse">
      <path style="clip-rule:evenodd" id="path88" d="m 53.179,319.83 520.42,0 0,203.62 -520.42,0 0,-203.62 z"/>
    </clipPath>
    <clipPath id="clipPath98" clipPathUnits="userSpaceOnUse">
      <path style="clip-rule:evenodd" id="path100" d="m 53.179,319.83 520.42,0 0,203.62 -520.42,0 0,-203.62 z"/>
    </clipPath>
    <clipPath id="clipPath110" clipPathUnits="userSpaceOnUse">
      <path style="clip-rule:evenodd" id="path112" d="m 53.179,319.83 520.42,0 0,203.62 -520.42,0 0,-203.62 z"/>
    </clipPath>
    <clipPath id="clipPath122" clipPathUnits="userSpaceOnUse">
      <path style="clip-rule:evenodd" id="path124" d="m 53.179,319.83 520.42,0 0,203.62 -520.42,0 0,-203.62 z"/>
    </clipPath>
    <clipPath id="clipPath134" clipPathUnits="userSpaceOnUse">
      <path style="clip-rule:evenodd" id="path136" d="m 53.179,319.83 520.42,0 0,203.62 -520.42,0 0,-203.62 z"/>
    </clipPath>
    <clipPath id="clipPath146" clipPathUnits="userSpaceOnUse">
      <path style="clip-rule:evenodd" id="path148" d="m 53.179,319.83 520.42,0 0,203.62 -520.42,0 0,-203.62 z"/>
    </clipPath>
    <clipPath id="clipPath158" clipPathUnits="userSpaceOnUse">
      <path style="clip-rule:evenodd" id="path160" d="m 53.179,319.83 520.42,0 0,203.62 -520.42,0 0,-203.62 z"/>
    </clipPath>
    <clipPath id="clipPath170" clipPathUnits="userSpaceOnUse">
      <path style="clip-rule:evenodd" id="path172" d="m 53.179,319.83 520.42,0 0,203.62 -520.42,0 0,-203.62 z"/>
    </clipPath>
    <clipPath id="clipPath182" clipPathUnits="userSpaceOnUse">
      <path style="clip-rule:evenodd" id="path184" d="m 53.179,319.83 520.42,0 0,203.62 -520.42,0 0,-203.62 z"/>
    </clipPath>
    <clipPath id="clipPath194" clipPathUnits="userSpaceOnUse">
      <path style="clip-rule:evenodd" id="path196" d="m 53.179,319.83 520.42,0 0,203.62 -520.42,0 0,-203.62 z"/>
    </clipPath>
    <clipPath id="clipPath206" clipPathUnits="userSpaceOnUse">
      <path style="clip-rule:evenodd" id="path208" d="m 53.179,319.83 520.42,0 0,203.62 -520.42,0 0,-203.62 z"/>
    </clipPath>
    <clipPath id="clipPath218" clipPathUnits="userSpaceOnUse">
      <path style="clip-rule:evenodd" id="path220" d="m 53.179,319.83 520.42,0 0,203.62 -520.42,0 0,-203.62 z"/>
    </clipPath>
    <clipPath id="clipPath230" clipPathUnits="userSpaceOnUse">
      <path style="clip-rule:evenodd" id="path232" d="m 53.179,319.83 520.42,0 0,203.62 -520.42,0 0,-203.62 z"/>
    </clipPath>
    <clipPath id="clipPath242" clipPathUnits="userSpaceOnUse">
      <path style="clip-rule:evenodd" id="path244" d="m 53.179,319.83 520.42,0 0,203.62 -520.42,0 0,-203.62 z"/>
    </clipPath>
    <clipPath id="clipPath254" clipPathUnits="userSpaceOnUse">
      <path style="clip-rule:evenodd" id="path256" d="m 53.179,319.83 520.42,0 0,203.62 -520.42,0 0,-203.62 z"/>
    </clipPath>
    <clipPath id="clipPath266" clipPathUnits="userSpaceOnUse">
      <path style="clip-rule:evenodd" id="path268" d="m 53.179,319.83 520.42,0 0,203.62 -520.42,0 0,-203.62 z"/>
    </clipPath>
    <clipPath id="clipPath278" clipPathUnits="userSpaceOnUse">
      <path style="clip-rule:evenodd" id="path280" d="m 53.179,319.83 520.42,0 0,203.62 -520.42,0 0,-203.62 z"/>
    </clipPath>
    <clipPath id="clipPath290" clipPathUnits="userSpaceOnUse">
      <path style="clip-rule:evenodd" id="path292" d="m 53.179,319.83 520.42,0 0,203.62 -520.42,0 0,-203.62 z"/>
    </clipPath>
    <clipPath id="clipPath302" clipPathUnits="userSpaceOnUse">
      <path style="clip-rule:evenodd" id="path304" d="m 53.179,319.83 520.42,0 0,203.62 -520.42,0 0,-203.62 z"/>
    </clipPath>
    <clipPath id="clipPath314" clipPathUnits="userSpaceOnUse">
      <path style="clip-rule:evenodd" id="path316" d="m 53.179,319.83 520.42,0 0,203.62 -520.42,0 0,-203.62 z"/>
    </clipPath>
    <clipPath id="clipPath326" clipPathUnits="userSpaceOnUse">
      <path style="clip-rule:evenodd" id="path328" d="m 53.179,319.83 520.42,0 0,203.62 -520.42,0 0,-203.62 z"/>
    </clipPath>
    <clipPath id="clipPath338" clipPathUnits="userSpaceOnUse">
      <path style="clip-rule:evenodd" id="path340" d="m 53.179,319.83 520.42,0 0,203.62 -520.42,0 0,-203.62 z"/>
    </clipPath>
    <clipPath id="clipPath350" clipPathUnits="userSpaceOnUse">
      <path style="clip-rule:evenodd" id="path352" d="m 53.179,319.83 520.42,0 0,203.62 -520.42,0 0,-203.62 z"/>
    </clipPath>
    <clipPath id="clipPath362" clipPathUnits="userSpaceOnUse">
      <path style="clip-rule:evenodd" id="path364" d="m 53.179,319.83 520.42,0 0,203.62 -520.42,0 0,-203.62 z"/>
    </clipPath>
    <clipPath id="clipPath374" clipPathUnits="userSpaceOnUse">
      <path style="clip-rule:evenodd" id="path376" d="m 53.179,319.83 520.42,0 0,203.62 -520.42,0 0,-203.62 z"/>
    </clipPath>
    <clipPath id="clipPath386" clipPathUnits="userSpaceOnUse">
      <path style="clip-rule:evenodd" id="path388" d="m 53.179,319.83 520.42,0 0,203.62 -520.42,0 0,-203.62 z"/>
    </clipPath>
    <clipPath id="clipPath398" clipPathUnits="userSpaceOnUse">
      <path style="clip-rule:evenodd" id="path400" d="m 53.179,319.83 520.42,0 0,203.62 -520.42,0 0,-203.62 z"/>
    </clipPath>
    <clipPath id="clipPath410" clipPathUnits="userSpaceOnUse">
      <path style="clip-rule:evenodd" id="path412" d="m 53.179,319.83 520.42,0 0,203.62 -520.42,0 0,-203.62 z"/>
    </clipPath>
    <clipPath id="clipPath422" clipPathUnits="userSpaceOnUse">
      <path style="clip-rule:evenodd" id="path424" d="m 53.179,319.83 520.42,0 0,203.62 -520.42,0 0,-203.62 z"/>
    </clipPath>
    <clipPath id="clipPath434" clipPathUnits="userSpaceOnUse">
      <path style="clip-rule:evenodd" id="path436" d="m 53.179,319.83 520.42,0 0,203.62 -520.42,0 0,-203.62 z"/>
    </clipPath>
    <clipPath id="clipPath446" clipPathUnits="userSpaceOnUse">
      <path style="clip-rule:evenodd" id="path448" d="m 53.179,319.83 520.42,0 0,203.62 -520.42,0 0,-203.62 z"/>
    </clipPath>
    <clipPath id="clipPath458" clipPathUnits="userSpaceOnUse">
      <path style="clip-rule:evenodd" id="path460" d="m 53.179,319.83 520.42,0 0,203.62 -520.42,0 0,-203.62 z"/>
    </clipPath>
    <clipPath id="clipPath474" clipPathUnits="userSpaceOnUse">
      <path style="clip-rule:evenodd" id="path476" d="m 53.179,319.83 520.42,0 0,203.62 -520.42,0 0,-203.62 z"/>
    </clipPath>
    <clipPath id="clipPath488" clipPathUnits="userSpaceOnUse">
      <path style="clip-rule:evenodd" id="path490" d="m 53.179,319.83 520.42,0 0,203.62 -520.42,0 0,-203.62 z"/>
    </clipPath>
  </defs>
  <g transform="matrix(1.25,0,0,-1.25,0,1107.7875)" id="g10">
    <g id="g12">
      <g clip-path="url(#clipPath16)" id="g14">
        <path id="path20" style="fill:none;stroke:#000000;stroke-width:0.14;stroke-linecap:butt;stroke-linejoin:miter;stroke-miterlimit:10;stroke-dasharray:none;stroke-opacity:0" d="m 53.185,319.77 520.44,0 0,203.61 -520.44,0 0,-203.61 z"/>
      </g>
    </g>
    <g id="g22">
      <g clip-path="url(#clipPath26)" id="g24">
        <path id="path30" style="fill:#ffffff;fill-opacity:1;fill-rule:evenodd;stroke:none" d="m 53.185,319.77 520.44,0 0,203.61 -520.44,0 0,-203.61 z"/>
      </g>
    </g>
    <path id="path32" style="fill:#005aa4;fill-opacity:1;fill-rule:nonzero;stroke:none" d="m 95.747,446.99 15.533,0 0,-98.32 -15.533,0 0,98.32 z m 54.353,-40.66 15.53,0 0,-57.66 -15.53,0 0,57.66 z m 54.36,50.69 15.64,0 0,-108.35 -15.64,0 0,108.35 z m 54.46,15.75 15.53,0 0,-124.1 -15.53,0 0,124.1 z m 54.36,-60.5 15.53,0 0,-63.6 -15.53,0 0,63.6 z m 54.46,-29.12 15.53,0 0,-34.48 -15.53,0 0,34.48 z m 54.36,66.43 15.53,0 0,-100.91 -15.53,0 0,100.91 z m 54.35,-1.51 15.53,0 0,-99.4 -15.53,0 0,99.4 z m 54.47,15.21 15.53,0 0,-114.61 -15.53,0 0,114.61 z"/>
    <path id="path34" style="fill:#eadfbc;fill-opacity:1;fill-rule:nonzero;stroke:none" d="m 111.28,453.57 15.53,0 0,-104.9 -15.53,0 0,104.9 z m 54.35,-57.59 15.53,0 0,-47.31 -15.53,0 0,47.31 z m 54.47,60.61 15.53,0 0,-107.92 -15.53,0 0,107.92 z m 54.35,16.07 15.53,0 0,-123.99 -15.53,0 0,123.99 z m 54.36,-26.1 15.53,0 0,-97.89 -15.53,0 0,97.89 z m 54.46,-55.65 15.53,0 0,-42.24 -15.53,0 0,42.24 z m 54.36,71.18 15.53,0 0,-113.42 -15.53,0 0,113.42 z m 54.35,22.33 15.64,0 0,-135.75 -15.64,0 0,135.75 z m 54.47,-0.97 15.53,0 0,-134.78 -15.53,0 0,134.78 z"/>
    <g id="g36">
      <g clip-path="url(#clipPath40)" id="g38">
        <path id="path44" style="fill:none;stroke:#808080;stroke-width:1.06739998;stroke-linecap:round;stroke-linejoin:round;stroke-miterlimit:10;stroke-dasharray:none;stroke-opacity:1" d="m 84.051,348.67 489.579,0"/>
      </g>
    </g>
    <g id="g46">
      <g clip-path="url(#clipPath50)" id="g48"><text id="text54" style="font-variant:normal;font-weight:normal;font-size:7.6631999px;font-family:'Roboto Condensed';-inkscape-font-specification:RobotoCondensed-Regular;writing-mode:lr-tb;fill:#000000;fill-opacity:1;fill-rule:nonzero;stroke:none" transform="matrix(1,0,0,-1,97.263,452.69)"><tspan id="tspan56" y="0" x="0 3.7684207 7.5368414">40%</tspan></text>
</g>
    </g>
    <g id="g58">
      <g clip-path="url(#clipPath62)" id="g60"><text id="text66" style="font-variant:normal;font-weight:normal;font-size:7.6631999px;font-family:'Roboto Condensed';-inkscape-font-specification:RobotoCondensed-Regular;writing-mode:lr-tb;fill:#000000;fill-opacity:1;fill-rule:nonzero;stroke:none" transform="matrix(1,0,0,-1,151.66,412.02)"><tspan id="tspan68" y="0" x="0 3.7894907 7.5789814">24%</tspan></text>
</g>
    </g>
    <g id="g70">
      <g clip-path="url(#clipPath74)" id="g72"><text id="text78" style="font-variant:normal;font-weight:normal;font-size:7.6631999px;font-family:'Roboto Condensed';-inkscape-font-specification:RobotoCondensed-Regular;writing-mode:lr-tb;fill:#000000;fill-opacity:1;fill-rule:nonzero;stroke:none" transform="matrix(1,0,0,-1,206.08,462.74)"><tspan id="tspan80" y="0" x="0 3.7684207 7.5368414">44%</tspan></text>
</g>
    </g>
    <g id="g82">
      <g clip-path="url(#clipPath86)" id="g84"><text id="text90" style="font-variant:normal;font-weight:normal;font-size:7.6631999px;font-family:'Roboto Condensed';-inkscape-font-specification:RobotoCondensed-Regular;writing-mode:lr-tb;fill:#000000;fill-opacity:1;fill-rule:nonzero;stroke:none" transform="matrix(1,0,0,-1,260.48,478.4)"><tspan id="tspan92" y="0" x="0 3.7894907 7.5789814">51%</tspan></text>
</g>
    </g>
    <g id="g94">
      <g clip-path="url(#clipPath98)" id="g96"><text id="text102" style="font-variant:normal;font-weight:normal;font-size:7.6631999px;font-family:'Roboto Condensed';-inkscape-font-specification:RobotoCondensed-Regular;writing-mode:lr-tb;fill:#000000;fill-opacity:1;fill-rule:nonzero;stroke:none" transform="matrix(1,0,0,-1,314.91,417.96)"><tspan id="tspan104" y="0" x="0 3.7684207 7.5368414">26%</tspan></text>
</g>
    </g>
    <g id="g106">
      <g clip-path="url(#clipPath110)" id="g108"><text id="text114" style="font-variant:normal;font-weight:normal;font-size:7.6631999px;font-family:'Roboto Condensed';-inkscape-font-specification:RobotoCondensed-Regular;writing-mode:lr-tb;fill:#000000;fill-opacity:1;fill-rule:nonzero;stroke:none" transform="matrix(1,0,0,-1,369.31,388.76)"><tspan id="tspan116" y="0" x="0 3.7684207 7.5368414">14%</tspan></text>
</g>
    </g>
    <g id="g118">
      <g clip-path="url(#clipPath122)" id="g120"><text id="text126" style="font-variant:normal;font-weight:normal;font-size:7.6631999px;font-family:'Roboto Condensed';-inkscape-font-specification:RobotoCondensed-Regular;writing-mode:lr-tb;fill:#000000;fill-opacity:1;fill-rule:nonzero;stroke:none" transform="matrix(1,0,0,-1,423.73,455.24)"><tspan id="tspan128" y="0" x="0 3.7684207 7.5368414">41%</tspan></text>
</g>
    </g>
    <g id="g130">
      <g clip-path="url(#clipPath134)" id="g132"><text id="text138" style="font-variant:normal;font-weight:normal;font-size:7.6631999px;font-family:'Roboto Condensed';-inkscape-font-specification:RobotoCondensed-Regular;writing-mode:lr-tb;fill:#000000;fill-opacity:1;fill-rule:nonzero;stroke:none" transform="matrix(1,0,0,-1,478.13,453.77)"><tspan id="tspan140" y="0" x="0 3.7684207 7.5368414">41%</tspan></text>
</g>
    </g>
    <g id="g142">
      <g clip-path="url(#clipPath146)" id="g144"><text id="text150" style="font-variant:normal;font-weight:normal;font-size:7.6631999px;font-family:'Roboto Condensed';-inkscape-font-specification:RobotoCondensed-Regular;writing-mode:lr-tb;fill:#000000;fill-opacity:1;fill-rule:nonzero;stroke:none" transform="matrix(1,0,0,-1,532.53,468.95)"><tspan id="tspan152" y="0" x="0 3.7894907 7.5789814">47%</tspan></text>
</g>
    </g>
    <g id="g154">
      <g clip-path="url(#clipPath158)" id="g156"><text id="text162" style="font-variant:normal;font-weight:normal;font-size:7.6631999px;font-family:'Roboto Condensed';-inkscape-font-specification:RobotoCondensed-Regular;writing-mode:lr-tb;fill:#000000;fill-opacity:1;fill-rule:nonzero;stroke:none" transform="matrix(1,0,0,-1,112.8,459.22)"><tspan id="tspan164" y="0" x="0 3.7894907 7.5789814">43%</tspan></text>
</g>
    </g>
    <g id="g166">
      <g clip-path="url(#clipPath170)" id="g168"><text id="text174" style="font-variant:normal;font-weight:normal;font-size:7.6631999px;font-family:'Roboto Condensed';-inkscape-font-specification:RobotoCondensed-Regular;writing-mode:lr-tb;fill:#000000;fill-opacity:1;fill-rule:nonzero;stroke:none" transform="matrix(1,0,0,-1,167.22,401.62)"><tspan id="tspan176" y="0" x="0 3.7684207 7.5368414">19%</tspan></text>
</g>
    </g>
    <g id="g178">
      <g clip-path="url(#clipPath182)" id="g180"><text id="text186" style="font-variant:normal;font-weight:normal;font-size:7.6631999px;font-family:'Roboto Condensed';-inkscape-font-specification:RobotoCondensed-Regular;writing-mode:lr-tb;fill:#000000;fill-opacity:1;fill-rule:nonzero;stroke:none" transform="matrix(1,0,0,-1,221.62,462.21)"><tspan id="tspan188" y="0" x="0 3.7894907 7.5789814">44%</tspan></text>
</g>
    </g>
    <g id="g190">
      <g clip-path="url(#clipPath194)" id="g192"><text id="text198" style="font-variant:normal;font-weight:normal;font-size:7.6631999px;font-family:'Roboto Condensed';-inkscape-font-specification:RobotoCondensed-Regular;writing-mode:lr-tb;fill:#000000;fill-opacity:1;fill-rule:nonzero;stroke:none" transform="matrix(1,0,0,-1,276.04,478.34)"><tspan id="tspan200" y="0" x="0 3.7684207 7.5368414">51%</tspan></text>
</g>
    </g>
    <g id="g202">
      <g clip-path="url(#clipPath206)" id="g204"><text id="text210" style="font-variant:normal;font-weight:normal;font-size:7.6631999px;font-family:'Roboto Condensed';-inkscape-font-specification:RobotoCondensed-Regular;writing-mode:lr-tb;fill:#000000;fill-opacity:1;fill-rule:nonzero;stroke:none" transform="matrix(1,0,0,-1,330.44,452.21)"><tspan id="tspan212" y="0" x="0 3.7684207 7.5368414">40%</tspan></text>
</g>
    </g>
    <g id="g214">
      <g clip-path="url(#clipPath218)" id="g216"><text id="text222" style="font-variant:normal;font-weight:normal;font-size:7.64209986px;font-family:'Roboto Condensed';-inkscape-font-specification:RobotoCondensed-Regular;writing-mode:lr-tb;fill:#000000;fill-opacity:1;fill-rule:nonzero;stroke:none" transform="matrix(1,0,0,-1,384.86,396.61)"><tspan id="tspan224" y="0" x="0 3.7684174 7.5368347">17%</tspan></text>
</g>
    </g>
    <g id="g226">
      <g clip-path="url(#clipPath230)" id="g228"><text id="text234" style="font-variant:normal;font-weight:normal;font-size:7.6631999px;font-family:'Roboto Condensed';-inkscape-font-specification:RobotoCondensed-Regular;writing-mode:lr-tb;fill:#000000;fill-opacity:1;fill-rule:nonzero;stroke:none" transform="matrix(1,0,0,-1,439.26,467.81)"><tspan id="tspan236" y="0" x="0 3.7684207 7.5368414">46%</tspan></text>
</g>
    </g>
    <g id="g238">
      <g clip-path="url(#clipPath242)" id="g240"><text id="text246" style="font-variant:normal;font-weight:normal;font-size:7.6631999px;font-family:'Roboto Condensed';-inkscape-font-specification:RobotoCondensed-Regular;writing-mode:lr-tb;fill:#000000;fill-opacity:1;fill-rule:nonzero;stroke:none" transform="matrix(1,0,0,-1,493.66,490.08)"><tspan id="tspan248" y="0" x="0 3.7894907 7.5789814">55%</tspan></text>
</g>
    </g>
    <g id="g250">
      <g clip-path="url(#clipPath254)" id="g252"><text id="text258" style="font-variant:normal;font-weight:normal;font-size:7.6631999px;font-family:'Roboto Condensed';-inkscape-font-specification:RobotoCondensed-Regular;writing-mode:lr-tb;fill:#000000;fill-opacity:1;fill-rule:nonzero;stroke:none" transform="matrix(1,0,0,-1,548.08,489.12)"><tspan id="tspan260" y="0" x="0 3.7684207 7.5368414">55%</tspan></text>
</g>
    </g>
    <g id="g262">
      <g clip-path="url(#clipPath266)" id="g264"><text id="text270" style="font-variant:normal;font-weight:normal;font-size:7.64209986px;font-family:'Roboto Condensed';-inkscape-font-specification:RobotoCondensed-Regular;writing-mode:lr-tb;fill:#000000;fill-opacity:1;fill-rule:nonzero;stroke:none" transform="matrix(1,0,0,-1,68.358,346.25)"><tspan id="tspan272" y="0" x="0 3.7684174">0%</tspan></text>
</g>
    </g>
    <g id="g274">
      <g clip-path="url(#clipPath278)" id="g276"><text id="text282" style="font-variant:normal;font-weight:normal;font-size:7.6631999px;font-family:'Roboto Condensed';-inkscape-font-specification:RobotoCondensed-Regular;writing-mode:lr-tb;fill:#000000;fill-opacity:1;fill-rule:nonzero;stroke:none" transform="matrix(1,0,0,-1,64.547,370.74)"><tspan id="tspan284" y="0" x="0 3.7894907 7.5789814">10%</tspan></text>
</g>
    </g>
    <g id="g286">
      <g clip-path="url(#clipPath290)" id="g288"><text id="text294" style="font-variant:normal;font-weight:normal;font-size:7.6631999px;font-family:'Roboto Condensed';-inkscape-font-specification:RobotoCondensed-Regular;writing-mode:lr-tb;fill:#000000;fill-opacity:1;fill-rule:nonzero;stroke:none" transform="matrix(1,0,0,-1,64.547,395.2)"><tspan id="tspan296" y="0" x="0 3.7894907 7.5789814">20%</tspan></text>
</g>
    </g>
    <g id="g298">
      <g clip-path="url(#clipPath302)" id="g300"><text id="text306" style="font-variant:normal;font-weight:normal;font-size:7.6631999px;font-family:'Roboto Condensed';-inkscape-font-specification:RobotoCondensed-Regular;writing-mode:lr-tb;fill:#000000;fill-opacity:1;fill-rule:nonzero;stroke:none" transform="matrix(1,0,0,-1,64.547,419.66)"><tspan id="tspan308" y="0" x="0 3.7894907 7.5789814">30%</tspan></text>
</g>
    </g>
    <g id="g310">
      <g clip-path="url(#clipPath314)" id="g312"><text id="text318" style="font-variant:normal;font-weight:normal;font-size:7.6631999px;font-family:'Roboto Condensed';-inkscape-font-specification:RobotoCondensed-Regular;writing-mode:lr-tb;fill:#000000;fill-opacity:1;fill-rule:nonzero;stroke:none" transform="matrix(1,0,0,-1,64.547,444.15)"><tspan id="tspan320" y="0" x="0 3.7894907 7.5789814">40%</tspan></text>
</g>
    </g>
    <g id="g322">
      <g clip-path="url(#clipPath326)" id="g324"><text id="text330" style="font-variant:normal;font-weight:normal;font-size:7.6631999px;font-family:'Roboto Condensed';-inkscape-font-specification:RobotoCondensed-Regular;writing-mode:lr-tb;fill:#000000;fill-opacity:1;fill-rule:nonzero;stroke:none" transform="matrix(1,0,0,-1,64.547,468.61)"><tspan id="tspan332" y="0" x="0 3.7894907 7.5789814">50%</tspan></text>
</g>
    </g>
    <g id="g334">
      <g clip-path="url(#clipPath338)" id="g336"><text id="text342" style="font-variant:normal;font-weight:normal;font-size:7.6631999px;font-family:'Roboto Condensed';-inkscape-font-specification:RobotoCondensed-Regular;writing-mode:lr-tb;fill:#000000;fill-opacity:1;fill-rule:nonzero;stroke:none" transform="matrix(1,0,0,-1,64.547,493.07)"><tspan id="tspan344" y="0" x="0 3.7894907 7.5789814">60%</tspan></text>
</g>
    </g>
    <g id="g346">
      <g clip-path="url(#clipPath350)" id="g348"><text id="text354" style="font-variant:normal;font-weight:normal;font-size:7.6631999px;font-family:'Roboto Condensed';-inkscape-font-specification:RobotoCondensed-Regular;writing-mode:lr-tb;fill:#000000;fill-opacity:1;fill-rule:nonzero;stroke:none" transform="matrix(1,0,0,-1,107.12,336.4)"><tspan id="tspan356" y="0" x="0 4.3158083">US</tspan></text>
</g>
    </g>
    <g id="g358">
      <g clip-path="url(#clipPath362)" id="g360"><text id="text366" style="font-variant:normal;font-weight:normal;font-size:7.6631999px;font-family:'Roboto Condensed';-inkscape-font-specification:RobotoCondensed-Regular;writing-mode:lr-tb;fill:#000000;fill-opacity:1;fill-rule:nonzero;stroke:none" transform="matrix(1,0,0,-1,155.12,336.4)"><tspan id="tspan368" y="0" x="0 3.7702944 7.5329256 9.8855276 13.655823 17.433781">Europe</tspan></text>
</g>
    </g>
    <g id="g370">
      <g clip-path="url(#clipPath374)" id="g372"><text id="text378" style="font-variant:normal;font-weight:normal;font-size:7.6631999px;font-family:'Roboto Condensed';-inkscape-font-specification:RobotoCondensed-Regular;writing-mode:lr-tb;fill:#000000;fill-opacity:1;fill-rule:nonzero;stroke:none" transform="matrix(1,0,0,-1,208.93,336.4)"><tspan id="tspan380" y="0" x="0 3.6553464 8.0693493 12.061877 16.47588">LATAM</tspan></text>
</g>
    </g>
    <g id="g382">
      <g clip-path="url(#clipPath386)" id="g384"><text id="text390" style="font-variant:normal;font-weight:normal;font-size:7.6631999px;font-family:'Roboto Condensed';-inkscape-font-specification:RobotoCondensed-Regular;writing-mode:lr-tb;fill:#000000;fill-opacity:1;fill-rule:nonzero;stroke:none" transform="matrix(1,0,0,-1,256.69,336.4)"><tspan id="tspan392" y="0" x="0 5.8240318 7.5482521 11.349199 15.226778 16.950998 20.606344 22.330564 26.139175 29.786858 33.334919">Middle East</tspan></text>
</g>
    </g>
    <g id="g394">
      <g clip-path="url(#clipPath398)" id="g396"><text id="text402" style="font-variant:normal;font-weight:normal;font-size:7.6631999px;font-family:'Roboto Condensed';-inkscape-font-specification:RobotoCondensed-Regular;writing-mode:lr-tb;fill:#000000;fill-opacity:1;fill-rule:nonzero;stroke:none" transform="matrix(1,0,0,-1,320.29,336.4)"><tspan id="tspan404" y="0" x="0 4.3143816 8.077013 9.8012323 13.563864">China</tspan></text>
</g>
    </g>
    <g id="g406">
      <g clip-path="url(#clipPath410)" id="g408"><text id="text414" style="font-variant:normal;font-weight:normal;font-size:7.6631999px;font-family:'Roboto Condensed';-inkscape-font-specification:RobotoCondensed-Regular;writing-mode:lr-tb;fill:#000000;fill-opacity:1;fill-rule:nonzero;stroke:none" transform="matrix(1,0,0,-1,375.85,336.4)"><tspan id="tspan416" y="0" x="0 1.9464529 5.632452 9.5176945 11.241915">India</tspan></text>
</g>
    </g>
    <g id="g418">
      <g clip-path="url(#clipPath422)" id="g420"><text id="text426" style="font-variant:normal;font-weight:normal;font-size:7.6631999px;font-family:'Roboto Condensed';-inkscape-font-specification:RobotoCondensed-Regular;writing-mode:lr-tb;fill:#000000;fill-opacity:1;fill-rule:nonzero;stroke:none" transform="matrix(1,0,0,-1,428.42,336.4)"><tspan id="tspan428" y="0" x="0 3.6630096 7.4486303 11.226588 14.897261">Japan</tspan></text>
</g>
    </g>
    <g id="g430">
      <g clip-path="url(#clipPath434)" id="g432"><text id="text438" style="font-variant:normal;font-weight:normal;font-size:7.6631999px;font-family:'Roboto Condensed';-inkscape-font-specification:RobotoCondensed-Regular;writing-mode:lr-tb;fill:#000000;fill-opacity:1;fill-rule:nonzero;stroke:none" transform="matrix(1,0,0,-1,478.57,336.4)"><tspan id="tspan440" y="0" x="0 4.4140034 8.0846758 11.632737 13.893382 16.222994 19.893667 21.64854 23.357433">Australia</tspan></text>
</g>
    </g>
    <g id="g442">
      <g clip-path="url(#clipPath446)" id="g444"><text id="text450" style="font-variant:normal;font-weight:normal;font-size:7.6631999px;font-family:'Roboto Condensed';-inkscape-font-specification:RobotoCondensed-Regular;writing-mode:lr-tb;fill:#000000;fill-opacity:1;fill-rule:nonzero;stroke:none" transform="matrix(1,0,0,-1,535.83,336.4)"><tspan id="tspan452" y="0" x="0 4.4140034 8.4141932 12.184488 16.598492">ASEAN</tspan></text>
</g>
    </g>
    <g id="g454">
      <g clip-path="url(#clipPath458)" id="g456"><text id="text462" style="font-variant:normal;font-weight:bold;font-size:9.26319981px;font-family:'Roboto Condensed';-inkscape-font-specification:RobotoCondensed-Bold;writing-mode:lr-tb;fill:#000000;fill-opacity:1;fill-rule:nonzero;stroke:none" transform="matrix(1,0,0,-1,207.18,508.19)"><tspan id="tspan464" y="0" x="0 5.3911824 9.7078333 13.913326 16.043863 20.666199 25.279272 31.105825 35.5429 38.618282 40.582081 45.204414 47.538742 51.901711 56.403625 59.201111 61.239014 63.573341 68.223465 72.540123 77.162453 79.098465 82.136795 86.425659 90.733047 93.530533 98.1436 101.2653 105.47079 107.49944 111.81609 114.91926 119.35633 121.38497 125.82204 130.01828 134.60356 139.04063 143.35728 146.15477 150.59184 155.18639 157.03903 159.83652 164.44958 166.60791 169.71109 172.04541 176.2509 180.68797 182.61473 187.24632 189.58066 194.23077 198.85312 203.16977 205.50409 207.87547">Gas power plant load factors are expected to rise globally</tspan></text>
</g>
    </g>
    <path id="path466" style="fill:#ffffff;fill-opacity:1;fill-rule:evenodd;stroke:none" d="m 281.5,490.03 68.715,0 0,14.404 -68.715,0 0,-14.404 z"/>
    <path id="path468" style="fill:#005aa4;fill-opacity:1;fill-rule:evenodd;stroke:none" d="m 289.06,495.16 4.15,0 0,4.15 -4.15,0 0,-4.15 z"/>
    <g id="g470">
      <g clip-path="url(#clipPath474)" id="g472"><text id="text478" style="font-variant:normal;font-weight:normal;font-size:7.6631999px;font-family:'Roboto Condensed';-inkscape-font-specification:RobotoCondensed-Regular;writing-mode:lr-tb;fill:#000000;fill-opacity:1;fill-rule:nonzero;stroke:none" transform="matrix(1,0,0,-1,295.01,494.84)"><tspan id="tspan480" y="0" x="0 3.7856207 7.5712414 11.464148 15.249768">2025e</tspan></text>
</g>
    </g>
    <path id="path482" style="fill:#eadfbc;fill-opacity:1;fill-rule:evenodd;stroke:none" d="m 320.99,495.16 4.15,0 0,4.15 -4.15,0 0,-4.15 z"/>
    <g id="g484">
      <g clip-path="url(#clipPath488)" id="g486"><text id="text492" style="font-variant:normal;font-weight:normal;font-size:7.6631999px;font-family:'Roboto Condensed';-inkscape-font-specification:RobotoCondensed-Regular;writing-mode:lr-tb;fill:#000000;fill-opacity:1;fill-rule:nonzero;stroke:none" transform="matrix(1,0,0,-1,326.97,494.84)"><tspan id="tspan494" y="0" x="0 3.7856207 7.5405889 11.402842 15.188462">2030e</tspan></text>
</g>
    </g>
  </g>
</svg>
