<?xml version="1.0" encoding="UTF-8" standalone="no"?>
<svg xmlns:dc="http://purl.org/dc/elements/1.1/" xmlns:cc="http://creativecommons.org/ns#" xmlns:rdf="http://www.w3.org/1999/02/22-rdf-syntax-ns#" xmlns:svg="http://www.w3.org/2000/svg" xmlns="http://www.w3.org/2000/svg" viewBox="63.19625 341.65 638.80375 306.8" height="306.8" width="638.80375" xml:space="preserve" version="1.1" id="svg2">
  <metadata id="metadata8">
    <rdf:RDF>
      <cc:Work rdf:about="">
        <dc:format>image/svg+xml</dc:format>
        <dc:type rdf:resource="http://purl.org/dc/dcmitype/StillImage"/>
      </cc:Work>
    </rdf:RDF>
  </metadata>
  <defs id="defs6">
    <clipPath id="clipPath16" clipPathUnits="userSpaceOnUse">
      <path style="clip-rule:evenodd" id="path18" d="m 50.4,273.24 511.2,0 0,245.52 -511.2,0 0,-245.52 z"/>
    </clipPath>
    <clipPath id="clipPath26" clipPathUnits="userSpaceOnUse">
      <path style="clip-rule:evenodd" id="path28" d="m 50.4,273.24 511.2,0 0,245.52 -511.2,0 0,-245.52 z"/>
    </clipPath>
    <clipPath id="clipPath38" clipPathUnits="userSpaceOnUse">
      <path style="clip-rule:evenodd" id="path40" d="m 96.293,295.01 454.65,0 0,193.46 -454.65,0 0,-193.46 z"/>
    </clipPath>
    <clipPath id="clipPath50" clipPathUnits="userSpaceOnUse">
      <path style="clip-rule:evenodd" id="path52" d="m 96.293,295.01 454.65,0 0,193.46 -454.65,0 0,-193.46 z"/>
    </clipPath>
    <clipPath id="clipPath62" clipPathUnits="userSpaceOnUse">
      <path style="clip-rule:evenodd" id="path64" d="m 50.52,273.24 511.08,0 0,245.4 -511.08,0 0,-245.4 z"/>
    </clipPath>
    <clipPath id="clipPath74" clipPathUnits="userSpaceOnUse">
      <path style="clip-rule:evenodd" id="path76" d="m 50.52,273.24 511.08,0 0,245.4 -511.08,0 0,-245.4 z"/>
    </clipPath>
    <clipPath id="clipPath86" clipPathUnits="userSpaceOnUse">
      <path style="clip-rule:evenodd" id="path88" d="m 50.52,273.24 511.08,0 0,245.4 -511.08,0 0,-245.4 z"/>
    </clipPath>
    <clipPath id="clipPath98" clipPathUnits="userSpaceOnUse">
      <path style="clip-rule:evenodd" id="path100" d="m 50.52,273.24 511.08,0 0,245.4 -511.08,0 0,-245.4 z"/>
    </clipPath>
    <clipPath id="clipPath110" clipPathUnits="userSpaceOnUse">
      <path style="clip-rule:evenodd" id="path112" d="m 50.52,273.24 511.08,0 0,245.4 -511.08,0 0,-245.4 z"/>
    </clipPath>
    <clipPath id="clipPath122" clipPathUnits="userSpaceOnUse">
      <path style="clip-rule:evenodd" id="path124" d="m 50.52,273.24 511.08,0 0,245.4 -511.08,0 0,-245.4 z"/>
    </clipPath>
    <clipPath id="clipPath134" clipPathUnits="userSpaceOnUse">
      <path style="clip-rule:evenodd" id="path136" d="m 50.52,273.24 511.08,0 0,245.4 -511.08,0 0,-245.4 z"/>
    </clipPath>
    <clipPath id="clipPath146" clipPathUnits="userSpaceOnUse">
      <path style="clip-rule:evenodd" id="path148" d="m 50.52,273.24 511.08,0 0,245.4 -511.08,0 0,-245.4 z"/>
    </clipPath>
    <clipPath id="clipPath158" clipPathUnits="userSpaceOnUse">
      <path style="clip-rule:evenodd" id="path160" d="m 50.52,273.24 511.08,0 0,245.4 -511.08,0 0,-245.4 z"/>
    </clipPath>
    <clipPath id="clipPath170" clipPathUnits="userSpaceOnUse">
      <path style="clip-rule:evenodd" id="path172" d="m 50.52,273.24 511.08,0 0,245.4 -511.08,0 0,-245.4 z"/>
    </clipPath>
    <clipPath id="clipPath182" clipPathUnits="userSpaceOnUse">
      <path style="clip-rule:evenodd" id="path184" d="m 50.52,273.24 511.08,0 0,245.4 -511.08,0 0,-245.4 z"/>
    </clipPath>
    <clipPath id="clipPath194" clipPathUnits="userSpaceOnUse">
      <path style="clip-rule:evenodd" id="path196" d="m 50.52,273.24 511.08,0 0,245.4 -511.08,0 0,-245.4 z"/>
    </clipPath>
    <clipPath id="clipPath206" clipPathUnits="userSpaceOnUse">
      <path style="clip-rule:evenodd" id="path208" d="m 50.52,273.24 511.08,0 0,245.4 -511.08,0 0,-245.4 z"/>
    </clipPath>
    <clipPath id="clipPath218" clipPathUnits="userSpaceOnUse">
      <path style="clip-rule:evenodd" id="path220" d="m 50.52,273.24 511.08,0 0,245.4 -511.08,0 0,-245.4 z"/>
    </clipPath>
    <clipPath id="clipPath230" clipPathUnits="userSpaceOnUse">
      <path style="clip-rule:evenodd" id="path232" d="m 50.52,273.24 511.08,0 0,245.4 -511.08,0 0,-245.4 z"/>
    </clipPath>
    <clipPath id="clipPath242" clipPathUnits="userSpaceOnUse">
      <path style="clip-rule:evenodd" id="path244" d="m 50.52,273.24 511.08,0 0,245.4 -511.08,0 0,-245.4 z"/>
    </clipPath>
    <clipPath id="clipPath254" clipPathUnits="userSpaceOnUse">
      <path style="clip-rule:evenodd" id="path256" d="m 50.52,273.24 511.08,0 0,245.4 -511.08,0 0,-245.4 z"/>
    </clipPath>
    <clipPath id="clipPath266" clipPathUnits="userSpaceOnUse">
      <path style="clip-rule:evenodd" id="path268" d="m 50.52,273.24 511.08,0 0,245.4 -511.08,0 0,-245.4 z"/>
    </clipPath>
    <clipPath id="clipPath278" clipPathUnits="userSpaceOnUse">
      <path style="clip-rule:evenodd" id="path280" d="m 50.52,273.24 511.08,0 0,245.4 -511.08,0 0,-245.4 z"/>
    </clipPath>
    <clipPath id="clipPath290" clipPathUnits="userSpaceOnUse">
      <path style="clip-rule:evenodd" id="path292" d="m 50.52,273.24 511.08,0 0,245.4 -511.08,0 0,-245.4 z"/>
    </clipPath>
    <clipPath id="clipPath302" clipPathUnits="userSpaceOnUse">
      <path style="clip-rule:evenodd" id="path304" d="m 50.52,273.24 511.08,0 0,245.4 -511.08,0 0,-245.4 z"/>
    </clipPath>
    <clipPath id="clipPath314" clipPathUnits="userSpaceOnUse">
      <path style="clip-rule:evenodd" id="path316" d="m 50.52,273.24 511.08,0 0,245.4 -511.08,0 0,-245.4 z"/>
    </clipPath>
    <clipPath id="clipPath326" clipPathUnits="userSpaceOnUse">
      <path style="clip-rule:evenodd" id="path328" d="m 50.52,273.24 511.08,0 0,245.4 -511.08,0 0,-245.4 z"/>
    </clipPath>
    <clipPath id="clipPath338" clipPathUnits="userSpaceOnUse">
      <path style="clip-rule:evenodd" id="path340" d="m 50.52,273.24 511.08,0 0,245.4 -511.08,0 0,-245.4 z"/>
    </clipPath>
    <clipPath id="clipPath350" clipPathUnits="userSpaceOnUse">
      <path style="clip-rule:evenodd" id="path352" d="m 50.52,273.24 511.08,0 0,245.4 -511.08,0 0,-245.4 z"/>
    </clipPath>
    <clipPath id="clipPath362" clipPathUnits="userSpaceOnUse">
      <path style="clip-rule:evenodd" id="path364" d="m 50.52,273.24 511.08,0 0,245.4 -511.08,0 0,-245.4 z"/>
    </clipPath>
    <clipPath id="clipPath374" clipPathUnits="userSpaceOnUse">
      <path style="clip-rule:evenodd" id="path376" d="m 50.52,273.24 511.08,0 0,245.4 -511.08,0 0,-245.4 z"/>
    </clipPath>
    <clipPath id="clipPath390" clipPathUnits="userSpaceOnUse">
      <path style="clip-rule:evenodd" id="path392" d="m 50.52,273.24 511.08,0 0,245.4 -511.08,0 0,-245.4 z"/>
    </clipPath>
    <clipPath id="clipPath406" clipPathUnits="userSpaceOnUse">
      <path style="clip-rule:evenodd" id="path408" d="m 50.52,273.24 511.08,0 0,245.4 -511.08,0 0,-245.4 z"/>
    </clipPath>
    <clipPath id="clipPath418" clipPathUnits="userSpaceOnUse">
      <path style="clip-rule:evenodd" id="path420" d="m 50.52,495.12 140.04,0 0,18.36 -140.04,0 0,-18.36 z"/>
    </clipPath>
  </defs>
  <g transform="matrix(1.25,0,0,-1.25,0,990)" id="g10">
    <g id="g12">
      <g clip-path="url(#clipPath16)" id="g14">
        <path id="path20" style="fill:none;stroke:#000000;stroke-width:0.14;stroke-linecap:butt;stroke-linejoin:miter;stroke-miterlimit:10;stroke-dasharray:none;stroke-opacity:0" d="m 50.627,273.2 511.06,0 0,245.41 -511.06,0 0,-245.41 z"/>
      </g>
    </g>
    <g id="g22">
      <g clip-path="url(#clipPath26)" id="g24">
        <path id="path30" style="fill:#ffffff;fill-opacity:1;fill-rule:evenodd;stroke:none" d="m 50.627,273.2 511.06,0 0,245.41 -511.06,0 0,-245.41 z"/>
      </g>
    </g>
    <path id="path32" style="fill:#005aa4;fill-opacity:1;fill-rule:nonzero;stroke:none" d="m 102.61,395.9 31.57,0 0,-100.11 -31.57,0 0,100.11 z m 75.63,-64.87 31.57,0 0,-35.24 -31.57,0 0,35.24 z m 75.63,-13.35 31.58,0 0,-21.89 -31.58,0 0,21.89 z m 75.63,-5.45 31.58,0 0,-16.44 -31.58,0 0,16.44 z m 75.64,-10.76 31.43,0 0,-5.68 -31.43,0 0,5.68 z m 75.63,1.43 31.43,0 0,-7.11 -31.43,0 0,7.11 z"/>
    <g id="g34">
      <g clip-path="url(#clipPath38)" id="g36">
        <path id="path42" style="fill:none;stroke:#000000;stroke-width:1.79390001;stroke-linecap:butt;stroke-linejoin:round;stroke-miterlimit:10;stroke-dasharray:none;stroke-opacity:1" d="m 102.61,395.9 31.57,0 0,-100.11 -31.57,0 0,100.11 z m 75.63,-64.87 31.57,0 0,-35.24 -31.57,0 0,35.24 z m 75.63,-13.35 31.58,0 0,-21.89 -31.58,0 0,21.89 z m 75.63,-5.45 31.58,0 0,-16.44 -31.58,0 0,16.44 z m 75.64,-10.76 31.43,0 0,-5.68 -31.43,0 0,5.68 z m 75.63,1.43 31.43,0 0,-7.11 -31.43,0 0,7.11 z"/>
      </g>
    </g>
    <path id="path44" style="fill:#e0d19e;fill-opacity:1;fill-rule:nonzero;stroke:none" d="m 134.18,445.56 31.43,0 0,-149.77 -31.43,0 0,149.77 z m 75.63,-105.2 31.43,0 0,-44.57 -31.43,0 0,44.57 z m 75.64,-21.1 31.43,0 0,-23.47 -31.43,0 0,23.47 z m 75.63,1.15 31.43,0 0,-24.62 -31.43,0 0,24.62 z m 75.49,-19.09 31.57,0 0,-5.53 -31.57,0 0,5.53 z m 75.63,3.16 31.57,0 0,-8.69 -31.57,0 0,8.69 z"/>
    <g id="g46">
      <g clip-path="url(#clipPath50)" id="g48">
        <path id="path54" style="fill:none;stroke:#000000;stroke-width:1.79390001;stroke-linecap:butt;stroke-linejoin:round;stroke-miterlimit:10;stroke-dasharray:none;stroke-opacity:1" d="m 134.18,445.56 31.43,0 0,-149.77 -31.43,0 0,149.77 z m 75.63,-105.2 31.43,0 0,-44.57 -31.43,0 0,44.57 z m 75.64,-21.1 31.43,0 0,-23.47 -31.43,0 0,23.47 z m 75.63,1.15 31.43,0 0,-24.62 -31.43,0 0,24.62 z m 75.49,-19.09 31.57,0 0,-5.53 -31.57,0 0,5.53 z m 75.63,3.16 31.57,0 0,-8.69 -31.57,0 0,8.69 z"/>
      </g>
    </g>
    <path id="path56" style="fill:none;stroke:#d9d9d9;stroke-width:0.89696997;stroke-linecap:butt;stroke-linejoin:round;stroke-miterlimit:10;stroke-dasharray:none;stroke-opacity:1" d="m 96.337,295.79 453.733,0"/>
    <g id="g58">
      <g clip-path="url(#clipPath62)" id="g60"><text id="text66" style="font-variant:normal;font-weight:bold;font-size:14.35200024px;font-family:Calibri;-inkscape-font-specification:Calibri-Bold;writing-mode:lr-tb;fill:#ffffff;fill-opacity:1;fill-rule:nonzero;stroke:none" transform="matrix(1,0,0,-1,109.08,340.9)"><tspan id="tspan68" y="0" x="0 7.3199639 14.639928 21.959892">312 </tspan></text>
</g>
    </g>
    <g id="g70">
      <g clip-path="url(#clipPath74)" id="g72"><text id="text78" style="font-variant:normal;font-weight:bold;font-size:14.3760004px;font-family:Calibri;-inkscape-font-specification:Calibri-Bold;writing-mode:lr-tb;fill:#ffffff;fill-opacity:1;fill-rule:nonzero;stroke:none" transform="matrix(1,0,0,-1,184.7,308.47)"><tspan id="tspan80" y="0" x="0 7.3200321 14.640064 21.960096">110 </tspan></text>
</g>
    </g>
    <g id="g82">
      <g clip-path="url(#clipPath86)" id="g84"><text id="text90" style="font-variant:normal;font-weight:bold;font-size:14.35200024px;font-family:Calibri;-inkscape-font-specification:Calibri-Bold;writing-mode:lr-tb;fill:#ffffff;fill-opacity:1;fill-rule:nonzero;stroke:none" transform="matrix(1,0,0,-1,263.93,304.99)"><tspan id="tspan92" y="0" x="0 7.3199639 14.639928">68 </tspan></text>
</g>
    </g>
    <g id="g94">
      <g clip-path="url(#clipPath98)" id="g96"><text id="text102" style="font-variant:normal;font-weight:bold;font-size:14.35200024px;font-family:Calibri;-inkscape-font-specification:Calibri-Bold;writing-mode:lr-tb;fill:#ffffff;fill-opacity:1;fill-rule:nonzero;stroke:none" transform="matrix(1,0,0,-1,339.58,304.99)"><tspan id="tspan104" y="0" x="0 7.3199639 14.639928">51 </tspan></text>
</g>
    </g>
    <g id="g106">
      <g clip-path="url(#clipPath110)" id="g108"><text id="text114" style="font-variant:normal;font-weight:bold;font-size:14.35200024px;font-family:Calibri;-inkscape-font-specification:Calibri-Bold;writing-mode:lr-tb;fill:#000000;fill-opacity:1;fill-rule:nonzero;stroke:none" transform="matrix(1,0,0,-1,411.41,309.6)"><tspan id="tspan116" y="0" x="0 7.3199639 14.639928">18 </tspan></text>
</g>
    </g>
    <g id="g118">
      <g clip-path="url(#clipPath122)" id="g120"><text id="text126" style="font-variant:normal;font-weight:bold;font-size:14.35200024px;font-family:Calibri;-inkscape-font-specification:Calibri-Bold;writing-mode:lr-tb;fill:#000000;fill-opacity:1;fill-rule:nonzero;stroke:none" transform="matrix(1,0,0,-1,490.85,312.24)"><tspan id="tspan128" y="0" x="0 7.3199639 14.639928">22 </tspan></text>
</g>
    </g>
    <g id="g130">
      <g clip-path="url(#clipPath134)" id="g132"><text id="text138" style="font-variant:normal;font-weight:bold;font-size:14.35200024px;font-family:Calibri;-inkscape-font-specification:Calibri-Bold;writing-mode:lr-tb;fill:#000000;fill-opacity:1;fill-rule:nonzero;stroke:none" transform="matrix(1,0,0,-1,140.59,365.76)"><tspan id="tspan140" y="0" x="0 7.3199639 14.639928 21.959892">467 </tspan></text>
</g>
    </g>
    <g id="g142">
      <g clip-path="url(#clipPath146)" id="g144"><text id="text150" style="font-variant:normal;font-weight:bold;font-size:14.35200024px;font-family:Calibri;-inkscape-font-specification:Calibri-Bold;writing-mode:lr-tb;fill:#000000;fill-opacity:1;fill-rule:nonzero;stroke:none" transform="matrix(1,0,0,-1,216.22,313.13)"><tspan id="tspan152" y="0" x="0 7.3199639 14.639928 21.959892">139 </tspan></text>
</g>
    </g>
    <g id="g154">
      <g clip-path="url(#clipPath158)" id="g156"><text id="text162" style="font-variant:normal;font-weight:bold;font-size:14.35200024px;font-family:Calibri;-inkscape-font-specification:Calibri-Bold;writing-mode:lr-tb;fill:#000000;fill-opacity:1;fill-rule:nonzero;stroke:none" transform="matrix(1,0,0,-1,295.44,304.99)"><tspan id="tspan164" y="0" x="0 7.3199639 14.639928">73 </tspan></text>
</g>
    </g>
    <g id="g166">
      <g clip-path="url(#clipPath170)" id="g168"><text id="text174" style="font-variant:normal;font-weight:bold;font-size:14.35200024px;font-family:Calibri;-inkscape-font-specification:Calibri-Bold;writing-mode:lr-tb;fill:#000000;fill-opacity:1;fill-rule:nonzero;stroke:none" transform="matrix(1,0,0,-1,371.09,304.99)"><tspan id="tspan176" y="0" x="0 7.3199639 14.639928">77 </tspan></text>
</g>
    </g>
    <g id="g178">
      <g clip-path="url(#clipPath182)" id="g180"><text id="text186" style="font-variant:normal;font-weight:bold;font-size:14.35200024px;font-family:Calibri;-inkscape-font-specification:Calibri-Bold;writing-mode:lr-tb;fill:#000000;fill-opacity:1;fill-rule:nonzero;stroke:none" transform="matrix(1,0,0,-1,446.71,305.62)"><tspan id="tspan188" y="0" x="0 7.3199639 14.639928">17 </tspan></text>
</g>
    </g>
    <g id="g190">
      <g clip-path="url(#clipPath194)" id="g192"><text id="text198" style="font-variant:normal;font-weight:bold;font-size:14.35200024px;font-family:Calibri;-inkscape-font-specification:Calibri-Bold;writing-mode:lr-tb;fill:#000000;fill-opacity:1;fill-rule:nonzero;stroke:none" transform="matrix(1,0,0,-1,523.61,312.24)"><tspan id="tspan200" y="0" x="0 7.3199639 14.639928">27 </tspan></text>
</g>
    </g>
    <g id="g202">
      <g clip-path="url(#clipPath206)" id="g204"><text id="text210" style="font-variant:normal;font-weight:normal;font-size:10.75199986px;font-family:Calibri;-inkscape-font-specification:Calibri;writing-mode:lr-tb;fill:#595959;fill-opacity:1;fill-rule:nonzero;stroke:none" transform="matrix(1,0,0,-1,80.928,292.68)"><tspan id="tspan212" y="0" x="0">0</tspan></text>
</g>
    </g>
    <g id="g214">
      <g clip-path="url(#clipPath218)" id="g216"><text id="text222" style="font-variant:normal;font-weight:normal;font-size:10.75199986px;font-family:Calibri;-inkscape-font-specification:Calibri;writing-mode:lr-tb;fill:#595959;fill-opacity:1;fill-rule:nonzero;stroke:none" transform="matrix(1,0,0,-1,70.008,331.22)"><tspan id="tspan224" y="0" x="0 5.4480038 10.896008">120</tspan></text>
</g>
    </g>
    <g id="g226">
      <g clip-path="url(#clipPath230)" id="g228"><text id="text234" style="font-variant:normal;font-weight:normal;font-size:10.77600002px;font-family:Calibri;-inkscape-font-specification:Calibri;writing-mode:lr-tb;fill:#595959;fill-opacity:1;fill-rule:nonzero;stroke:none" transform="matrix(1,0,0,-1,70.008,369.77)"><tspan id="tspan236" y="0" x="0 5.4480319 10.896064">240</tspan></text>
</g>
    </g>
    <g id="g238">
      <g clip-path="url(#clipPath242)" id="g240"><text id="text246" style="font-variant:normal;font-weight:normal;font-size:10.77600002px;font-family:Calibri;-inkscape-font-specification:Calibri;writing-mode:lr-tb;fill:#595959;fill-opacity:1;fill-rule:nonzero;stroke:none" transform="matrix(1,0,0,-1,70.008,408.31)"><tspan id="tspan248" y="0" x="0 5.4480319 10.896064">360</tspan></text>
</g>
    </g>
    <g id="g250">
      <g clip-path="url(#clipPath254)" id="g252"><text id="text258" style="font-variant:normal;font-weight:normal;font-size:10.75199986px;font-family:Calibri;-inkscape-font-specification:Calibri;writing-mode:lr-tb;fill:#595959;fill-opacity:1;fill-rule:nonzero;stroke:none" transform="matrix(1,0,0,-1,70.008,446.83)"><tspan id="tspan260" y="0" x="0 5.4480038 10.896008">480</tspan></text>
</g>
    </g>
    <g id="g262">
      <g clip-path="url(#clipPath266)" id="g264"><text id="text270" style="font-variant:normal;font-weight:normal;font-size:10.75199986px;font-family:Calibri;-inkscape-font-specification:Calibri;writing-mode:lr-tb;fill:#595959;fill-opacity:1;fill-rule:nonzero;stroke:none" transform="matrix(1,0,0,-1,70.008,485.38)"><tspan id="tspan272" y="0" x="0 5.4480038 10.896008">600</tspan></text>
</g>
    </g>
    <g id="g274">
      <g clip-path="url(#clipPath278)" id="g276"><text id="text282" style="font-variant:normal;font-weight:normal;font-size:10.75199986px;font-family:Calibri;-inkscape-font-specification:Calibri;writing-mode:lr-tb;fill:#595959;fill-opacity:1;fill-rule:nonzero;stroke:none" transform="matrix(1,0,0,-1,121.82,278.69)"><tspan id="tspan284" y="0" x="0 5.7308159 11.375616 13.956096 19.600897">China</tspan></text>
</g>
    </g>
    <g id="g286">
      <g clip-path="url(#clipPath290)" id="g288"><text id="text294" style="font-variant:normal;font-weight:normal;font-size:10.75199986px;font-family:Calibri;-inkscape-font-specification:Calibri;writing-mode:lr-tb;fill:#595959;fill-opacity:1;fill-rule:nonzero;stroke:none" transform="matrix(1,0,0,-1,195,278.69)"><tspan id="tspan296" y="0" x="0 6.171648 11.18208 16.472063 22.643711">ASEAN</tspan></text>
</g>
    </g>
    <g id="g298">
      <g clip-path="url(#clipPath302)" id="g300"><text id="text306" style="font-variant:normal;font-weight:normal;font-size:10.75199986px;font-family:Calibri;-inkscape-font-specification:Calibri;writing-mode:lr-tb;fill:#595959;fill-opacity:1;fill-rule:nonzero;stroke:none" transform="matrix(1,0,0,-1,272.9,278.69)"><tspan id="tspan308" y="0" x="0 3.429888 8.6338558 14.278656 19.428864">Japan</tspan></text>
</g>
    </g>
    <g id="g310">
      <g clip-path="url(#clipPath314)" id="g312"><text id="text318" style="font-variant:normal;font-weight:normal;font-size:10.75199986px;font-family:Calibri;-inkscape-font-specification:Calibri;writing-mode:lr-tb;fill:#595959;fill-opacity:1;fill-rule:nonzero;stroke:none" transform="matrix(1,0,0,-1,350.26,278.69)"><tspan id="tspan320" y="0" x="0 2.7095039 8.3005438 14.020608 16.493568">India</tspan></text>
</g>
    </g>
    <g id="g322">
      <g clip-path="url(#clipPath326)" id="g324"><text id="text330" style="font-variant:normal;font-weight:normal;font-size:10.75199986px;font-family:Calibri;-inkscape-font-specification:Calibri;writing-mode:lr-tb;fill:#595959;fill-opacity:1;fill-rule:nonzero;stroke:none" transform="matrix(1,0,0,-1,417.36,278.69)"><tspan id="tspan332" y="0" x="0 6.171648 11.891712 16.041985 19.643904 23.342592 28.4928 31.084032 33.556992">Australia</tspan></text>
</g>
    </g>
    <g id="g334">
      <g clip-path="url(#clipPath338)" id="g336"><text id="text342" style="font-variant:normal;font-weight:normal;font-size:10.75199986px;font-family:Calibri;-inkscape-font-specification:Calibri;writing-mode:lr-tb;fill:#595959;fill-opacity:1;fill-rule:nonzero;stroke:none" transform="matrix(1,0,0,-1,496.66,278.69)"><tspan id="tspan344" y="0" x="0 5.2899842 10.311168 12.891648 20.504065 25.654272">Taiwan</tspan></text>
</g>
    </g>
    <g id="g346">
      <g clip-path="url(#clipPath350)" id="g348"><text id="text354" style="font-variant:normal;font-weight:normal;font-size:16.77599907px;font-family:Calibri;-inkscape-font-specification:Calibri;writing-mode:lr-tb;fill:#595959;fill-opacity:1;fill-rule:nonzero;stroke:none" transform="matrix(1,0,0,-1,163.49,493.66)"><tspan id="tspan356" y="0" x="0 9.7133036 16.323048 20.181528 28.217232 31.773745 42.644592 50.512535 56.132496 64.839241 70.425652 78.461349 82.319832 85.876343 96.461998 104.4977 111.05712 114.68073 123.42104 131.72516 145.06207 153.09778 161.82129 170.56158">Asia Natural Gas demand </tspan></text>
</g>
    </g>
    <g id="g358">
      <g clip-path="url(#clipPath362)" id="g360"><text id="text366" style="font-variant:normal;font-weight:normal;font-size:16.77599907px;font-family:Calibri;-inkscape-font-specification:Calibri;writing-mode:lr-tb;fill:#595959;fill-opacity:1;fill-rule:nonzero;stroke:none" transform="matrix(1,0,0,-1,342.19,493.66)"><tspan id="tspan368" y="0" x="0">-</tspan></text>
</g>
    </g>
    <g id="g370">
      <g clip-path="url(#clipPath374)" id="g372"><text id="text378" style="font-variant:normal;font-weight:normal;font-size:16.77599907px;font-family:Calibri;-inkscape-font-specification:Calibri;writing-mode:lr-tb;fill:#595959;fill-opacity:1;fill-rule:nonzero;stroke:none" transform="matrix(1,0,0,-1,351.07,493.66)"><tspan id="tspan380" y="0" x="0 8.5054321 16.94376 25.449192 33.88752 37.762775 45.345528 51.97205 55.578888 64.08432 72.522652 81.028084 89.466408">2025 vs 2030e</tspan></text>
</g>
    </g>
    <path id="path382" style="fill:#005aa4;fill-opacity:1;fill-rule:evenodd;stroke:none" d="m 255.44,464.03 7.8844,0 0,7.8844 -7.8844,0 0,-7.8844 z"/>
    <path id="path384" style="fill:none;stroke:#000000;stroke-width:1.79390001;stroke-linecap:butt;stroke-linejoin:round;stroke-miterlimit:10;stroke-dasharray:none;stroke-opacity:1" d="m 255.44,464.03 7.8844,0 0,7.8844 -7.8844,0 0,-7.8844 z"/>
    <g id="g386">
      <g clip-path="url(#clipPath390)" id="g388"><text id="text394" style="font-variant:normal;font-weight:bold;font-size:14.35200024px;font-family:Calibri;-inkscape-font-specification:Calibri-Bold;writing-mode:lr-tb;fill:#595959;fill-opacity:1;fill-rule:nonzero;stroke:none" transform="matrix(1,0,0,-1,266.88,463.85)"><tspan id="tspan396" y="0" x="0 7.3051682 14.481168 21.786337 29.091503">2025e</tspan></text>
</g>
    </g>
    <path id="path398" style="fill:#e0d19e;fill-opacity:1;fill-rule:evenodd;stroke:none" d="m 314.47,464.03 7.8844,0 0,7.8844 -7.8844,0 0,-7.8844 z"/>
    <path id="path400" style="fill:none;stroke:#000000;stroke-width:1.79390001;stroke-linecap:butt;stroke-linejoin:round;stroke-miterlimit:10;stroke-dasharray:none;stroke-opacity:1" d="m 314.47,464.03 7.8844,0 0,7.8844 -7.8844,0 0,-7.8844 z"/>
    <g id="g402">
      <g clip-path="url(#clipPath406)" id="g404"><text id="text410" style="font-variant:normal;font-weight:bold;font-size:14.35200024px;font-family:Calibri;-inkscape-font-specification:Calibri-Bold;writing-mode:lr-tb;fill:#595959;fill-opacity:1;fill-rule:nonzero;stroke:none" transform="matrix(1,0,0,-1,325.9,463.85)"><tspan id="tspan412" y="0" x="0 7.3051682 14.481168 21.786337 29.091503">2030e</tspan></text>
</g>
    </g>
    <g id="g414">
      <g clip-path="url(#clipPath418)" id="g416"><text id="text422" style="font-variant:normal;font-weight:normal;font-size:13.19999981px;font-family:Calibri;-inkscape-font-specification:Calibri;writing-mode:lr-tb;fill:#767171;fill-opacity:1;fill-rule:nonzero;stroke:none" transform="matrix(1,0,0,-1,62.28,496.56)"><tspan id="tspan424" y="0" x="0 11.3124 17.740801 24.6444">MTPA</tspan></text>
</g>
    </g>
  </g>
</svg>
