<svg version="1.1" width="100%" height="100%" viewBox="0 0 355 287" xmlns="http://www.w3.org/2000/svg" xmlns:xlink="http://www.w3.org/1999/xlink"><style type="text/css" /><defs><clipPath id="clip001"><path d="M0,0 L2761.333,0 L2761.333,2382.667 L0,2382.667 Z" clip-rule="evenodd" /></clipPath><clipPath id="clip002"><path d="M0,0 L2761.333,0 L2761.333,2382.667 L0,2382.667 Z" clip-rule="evenodd" /></clipPath><clipPath id="clip003"><path d="M0,0 L2761.333,0 L2761.333,2382.667 L0,2382.667 Z" clip-rule="evenodd" /></clipPath><clipPath id="clip004"><path d="M0,0 L5200,0 L5200,2490.667 L0,2490.667 Z" clip-rule="evenodd" /></clipPath><clipPath id="clip005"><path d="M-800,0 L6000,0 L6000,2490.667 L-800,2490.667 Z" clip-rule="evenodd" /></clipPath><clipPath id="clip006"><path d="M0,0 L2753.333,0 L2753.333,2381.333 L0,2381.333 Z" clip-rule="evenodd" /></clipPath><clipPath id="clip007"><path d="M326.6667,60 L2753.333,60 L2753.333,2137.333 L326.6667,2137.333 Z" clip-rule="evenodd" /></clipPath><clipPath id="clip008"><path d="M326.6667,60 L2753.333,60 L2753.333,2137.333 L326.6667,2137.333 Z" clip-rule="evenodd" /></clipPath><clipPath id="clip009"><path d="M0,0 L2753.333,0 L2753.333,2381.333 L0,2381.333 Z" clip-rule="evenodd" /></clipPath><clipPath id="clip010"><path d="M0,0 L2753.333,0 L2753.333,2381.333 L0,2381.333 Z" clip-rule="evenodd" /></clipPath><clipPath id="clip011"><path d="M0,0 L2753.333,0 L2753.333,2381.333 L0,2381.333 Z" clip-rule="evenodd" /></clipPath><clipPath id="clip012"><path d="M0,0 L2753.333,0 L2753.333,2381.333 L0,2381.333 Z" clip-rule="evenodd" /></clipPath><clipPath id="clip013"><path d="M0,0 L2753.333,0 L2753.333,2381.333 L0,2381.333 Z" clip-rule="evenodd" /></clipPath><clipPath id="clip014"><path d="M0,0 L2753.333,0 L2753.333,2381.333 L0,2381.333 Z" clip-rule="evenodd" /></clipPath><clipPath id="clip015"><path d="M0,0 L2753.333,0 L2753.333,2381.333 L0,2381.333 Z" clip-rule="evenodd" /></clipPath><clipPath id="clip016"><path d="M0,0 L2753.333,0 L2753.333,2381.333 L0,2381.333 Z" clip-rule="evenodd" /></clipPath><clipPath id="clip017"><path d="M0,0 L2753.333,0 L2753.333,2381.333 L0,2381.333 Z" clip-rule="evenodd" /></clipPath><clipPath id="clip018"><path d="M0,0 L2753.333,0 L2753.333,2381.333 L0,2381.333 Z" clip-rule="evenodd" /></clipPath><clipPath id="clip019"><path d="M0,0 L2753.333,0 L2753.333,2381.333 L0,2381.333 Z" clip-rule="evenodd" /></clipPath><clipPath id="clip020"><path d="M0,0 L2753.333,0 L2753.333,2381.333 L0,2381.333 Z" clip-rule="evenodd" /></clipPath><clipPath id="clip021"><path d="M0,0 L2753.333,0 L2753.333,2381.333 L0,2381.333 Z" clip-rule="evenodd" /></clipPath><clipPath id="clip022"><path d="M0,0 L2753.333,0 L2753.333,2381.333 L0,2381.333 Z" clip-rule="evenodd" /></clipPath><clipPath id="clip023"><path d="M0,0 L2753.333,0 L2753.333,2381.333 L0,2381.333 Z" clip-rule="evenodd" /></clipPath><clipPath id="clip024"><path d="M0,0 L2753.333,0 L2753.333,2381.333 L0,2381.333 Z" clip-rule="evenodd" /></clipPath><clipPath id="clip025"><path d="M0,0 L2753.333,0 L2753.333,2381.333 L0,2381.333 Z" clip-rule="evenodd" /></clipPath><clipPath id="clip026"><path d="M0,0 L2753.333,0 L2753.333,2381.333 L0,2381.333 Z" clip-rule="evenodd" /></clipPath><clipPath id="clip027"><path d="M0,0 L2753.333,0 L2753.333,2381.333 L0,2381.333 Z" clip-rule="evenodd" /></clipPath><clipPath id="clip028"><path d="M0,0 L2753.333,0 L2753.333,2381.333 L0,2381.333 Z" clip-rule="evenodd" /></clipPath><clipPath id="clip029"><path d="M0,0 L2753.333,0 L2753.333,2381.333 L0,2381.333 Z" clip-rule="evenodd" /></clipPath><clipPath id="clip030"><path d="M0,0 L2753.333,0 L2753.333,2381.333 L0,2381.333 Z" clip-rule="evenodd" /></clipPath><clipPath id="clip031"><path d="M0,0 L2753.333,0 L2753.333,2381.333 L0,2381.333 Z" clip-rule="evenodd" /></clipPath><clipPath id="clip032"><path d="M0,0 L2753.333,0 L2753.333,2381.333 L0,2381.333 Z" clip-rule="evenodd" /></clipPath><clipPath id="clip033"><path d="M0,0 L2753.333,0 L2753.333,2381.333 L0,2381.333 Z" clip-rule="evenodd" /></clipPath><clipPath id="clip034"><path d="M0,0 L2753.333,0 L2753.333,2381.333 L0,2381.333 Z" clip-rule="evenodd" /></clipPath><clipPath id="clip035"><path d="M0,0 L2753.333,0 L2753.333,2381.333 L0,2381.333 Z" clip-rule="evenodd" /></clipPath><clipPath id="clip036"><path d="M0,0 L2753.333,0 L2753.333,2381.333 L0,2381.333 Z" clip-rule="evenodd" /></clipPath><clipPath id="clip037"><path d="M0,0 L2753.333,0 L2753.333,2381.333 L0,2381.333 Z" clip-rule="evenodd" /></clipPath><clipPath id="clip038"><path d="M0,0 L2753.333,0 L2753.333,2381.333 L0,2381.333 Z" clip-rule="evenodd" /></clipPath><clipPath id="clip039"><path d="M0,0 L2753.333,0 L2753.333,2381.333 L0,2381.333 Z" clip-rule="evenodd" /></clipPath><clipPath id="clip040"><path d="M0,0 L2753.333,0 L2753.333,2381.333 L0,2381.333 Z" clip-rule="evenodd" /></clipPath><clipPath id="clip041"><path d="M0,0 L2753.333,0 L2753.333,2381.333 L0,2381.333 Z" clip-rule="evenodd" /></clipPath><clipPath id="clip042"><path d="M0,0 L2753.333,0 L2753.333,2381.333 L0,2381.333 Z" clip-rule="evenodd" /></clipPath><clipPath id="clip043"><path d="M0,0 L2753.333,0 L2753.333,2381.333 L0,2381.333 Z" clip-rule="evenodd" /></clipPath><clipPath id="clip044"><path d="M0,0 L2753.333,0 L2753.333,2381.333 L0,2381.333 Z" clip-rule="evenodd" /></clipPath><clipPath id="clip045"><path d="M0,0 L2753.333,0 L2753.333,2381.333 L0,2381.333 Z" clip-rule="evenodd" /></clipPath><clipPath id="clip046"><path d="M0,0 L2753.333,0 L2753.333,2381.333 L0,2381.333 Z" clip-rule="evenodd" /></clipPath></defs><clipPath id="page-clip-path-1"><rect x="0" y="0" width="354.67" height="286.67" /></clipPath><g clip-path="url(#page-clip-path-1)" transform="translate(0.17,0)"><g transform="translate(1,1)"><g><g transform="matrix(0.1197006,0,0,0.1199776,0,0)" clip-path="url(#clip001)"><g><g clip-path="url(#clip002)"><g><g clip-path="url(#clip003)"><g transform="matrix(1.000214,0,0,1.000765,0.00016276,-0.00008138)"><g><g><g clip-path="url(#clip004)"><g transform="translate(2753.333,2382.667)" /></g></g></g><g clip-path="url(#clip005)"><g transform="matrix(0.000656168,0,0,0.000656168,0,0)"><path d="M0,0 L4198112,0 L4198112,3631184 L0,3631184 Z" fill="#ffffff" fill-opacity="0" fill-rule="evenodd" /></g></g><g clip-path="url(#clip006)"><g transform="matrix(0.000656168,0,0,0.000656168,328,60)"><path d="M0,2838704 L3698240,2838704 M0,2523744 L3698240,2523744 M0,2208784 L3698240,2208784 M0,1891792 L3698240,1891792 M0,1576832 L3698240,1576832 M0,1261872 L3698240,1261872 M0,946912 L3698240,946912 M0,629920 L3698240,629920 M0,314960 L3698240,314960 M0,0 L3698240,0 " stroke-width="16933.33" stroke-linejoin="round" stroke-miterlimit="13.33333" stroke="#bababa" fill="none" fill-rule="nonzero" /></g></g><g clip-path="url(#clip007)"><g transform="matrix(0.000656168,0,0,0.000656168,328,60)"><path d="M52832,2798064 L264160,2798064 L264160,2798064 L264160,3153664 L264160,3153664 L52832,3153664 ZM581152,2763520 L792480,2763520 L792480,2763520 L792480,3153664 L792480,3153664 L581152,3153664 ZM1109472,2741168 L1320800,2741168 L1320800,2741168 L1320800,3153664 L1320800,3153664 L1109472,3153664 ZM1637792,2777744 L1849120,2777744 L1849120,2777744 L1849120,3153664 L1849120,3153664 L1637792,3153664 ZM2166112,2846832 L2377440,2846832 L2377440,2846832 L2377440,3153664 L2377440,3153664 L2166112,3153664 ZM2694432,2810256 L2905760,2810256 L2905760,2810256 L2905760,3153664 L2905760,3153664 L2694432,3153664 ZM3222752,2737104 L3434080,2737104 L3434080,2737104 L3434080,3153664 L3434080,3153664 L3222752,3153664 Z" fill="#012169" fill-rule="nonzero" /><path d="M52832,2798064 L264160,2798064 L264160,2798064 L264160,3153664 L264160,3153664 L52832,3153664 ZM581152,2763520 L792480,2763520 L792480,2763520 L792480,3153664 L792480,3153664 L581152,3153664 ZM1109472,2741168 L1320800,2741168 L1320800,2741168 L1320800,3153664 L1320800,3153664 L1109472,3153664 ZM1637792,2777744 L1849120,2777744 L1849120,2777744 L1849120,3153664 L1849120,3153664 L1637792,3153664 ZM2166112,2846832 L2377440,2846832 L2377440,2846832 L2377440,3153664 L2377440,3153664 L2166112,3153664 ZM2694432,2810256 L2905760,2810256 L2905760,2810256 L2905760,3153664 L2905760,3153664 L2694432,3153664 ZM3222752,2737104 L3434080,2737104 L3434080,2737104 L3434080,3153664 L3434080,3153664 L3222752,3153664 Z" stroke-width="8466.667" stroke-linejoin="round" stroke-miterlimit="13.33333" stroke="#ffffff" fill="none" fill-rule="nonzero" /></g></g><g clip-path="url(#clip008)"><g transform="matrix(0.000656168,0,0,0.000656168,328,60)"><path d="M264160,3098800 L475488,3098800 L475488,3098800 L475488,3153664 L475488,3153664 L264160,3153664 ZM792480,3060192 L1003808,3060192 L1003808,3060192 L1003808,3153664 L1003808,3153664 L792480,3153664 ZM1320800,3009392 L1532128,3009392 L1532128,3009392 L1532128,3153664 L1532128,3153664 L1320800,3153664 ZM1849120,2928112 L2060448,2928112 L2060448,2928112 L2060448,3153664 L2060448,3153664 L1849120,3153664 ZM2377440,2444496 L2588768,2444496 L2588768,2444496 L2588768,3153664 L2588768,3153664 L2377440,3153664 ZM2905760,1257808 L3117088,1257808 L3117088,1257808 L3117088,3153664 L3117088,3153664 L2905760,3153664 ZM3434080,186944 L3645408,186944 L3645408,186944 L3645408,3153664 L3645408,3153664 L3434080,3153664 Z" fill="#009cde" fill-rule="nonzero" /><path d="M264160,3098800 L475488,3098800 L475488,3098800 L475488,3153664 L475488,3153664 L264160,3153664 ZM792480,3060192 L1003808,3060192 L1003808,3060192 L1003808,3153664 L1003808,3153664 L792480,3153664 ZM1320800,3009392 L1532128,3009392 L1532128,3009392 L1532128,3153664 L1532128,3153664 L1320800,3153664 ZM1849120,2928112 L2060448,2928112 L2060448,2928112 L2060448,3153664 L2060448,3153664 L1849120,3153664 ZM2377440,2444496 L2588768,2444496 L2588768,2444496 L2588768,3153664 L2588768,3153664 L2377440,3153664 ZM2905760,1257808 L3117088,1257808 L3117088,1257808 L3117088,3153664 L3117088,3153664 L2905760,3153664 ZM3434080,186944 L3645408,186944 L3645408,186944 L3645408,3153664 L3645408,3153664 L3434080,3153664 Z" stroke-width="8466.667" stroke-linejoin="round" stroke-miterlimit="13.33333" stroke="#ffffff" fill="none" fill-rule="nonzero" /></g></g><g clip-path="url(#clip009)"><g transform="matrix(0.000656168,0,0,0.000656168,328,2129.333)"><g><path d="M0.002442002,-6773.333 L3698240,-6772 " stroke-width="3386.667" stroke-linejoin="round" stroke-miterlimit="13.33333" stroke="#000000" fill="none" fill-rule="evenodd" /><path d="M-0.001221001,3386.667 L3698240,3388 " stroke-width="10160" stroke-linejoin="round" stroke-miterlimit="13.33333" stroke="#000000" fill="none" fill-rule="evenodd" /></g></g></g><g><g clip-path="url(#clip010)"><g><g transform="translate(323.1072,1819.414)"><text><tspan x="0" y="0" font-family="Connections Cond Light,Arial Narrow" font-weight="normal" font-style="normal" font-size="105.3333" fill="#000000">$22.6 </tspan></text></g></g></g></g><g><g clip-path="url(#clip011)"><g><g transform="translate(669.7581,1797.014)"><text><tspan x="0" y="0" font-family="Connections Cond Light,Arial Narrow" font-weight="normal" font-style="normal" font-size="105.3333" fill="#000000">$24.7 </tspan></text></g></g></g></g><g><g clip-path="url(#clip012)"><g><g transform="translate(1016.408,1782.009)"><text><tspan x="0" y="0" font-family="Connections Cond Light,Arial Narrow" font-weight="normal" font-style="normal" font-size="105.3333" fill="#000000">$26.2 </tspan></text></g></g></g></g><g><g clip-path="url(#clip013)"><g><g transform="translate(1363.059,1805.965)"><text><tspan x="0" y="0" font-family="Connections Cond Light,Arial Narrow" font-weight="normal" font-style="normal" font-size="105.3333" fill="#000000">$23.9 </tspan></text></g></g></g></g><g><g clip-path="url(#clip014)"><g><g transform="translate(1709.71,1851.819)"><text><tspan x="0" y="0" font-family="Connections Cond Light,Arial Narrow" font-weight="normal" font-style="normal" font-size="105.3333" fill="#000000">$19.4 </tspan></text></g></g></g></g><g><g clip-path="url(#clip015)"><g><g transform="translate(2056.36,1827.063)"><text><tspan x="0" y="0" font-family="Connections Cond Light,Arial Narrow" font-weight="normal" font-style="normal" font-size="105.3333" fill="#000000">$21.8 </tspan></text></g></g></g></g><g><g clip-path="url(#clip016)"><g><g transform="translate(2403.011,1779.232)"><text><tspan x="0" y="0" font-family="Connections Cond Light,Arial Narrow" font-weight="normal" font-style="normal" font-size="105.3333" fill="#000000">$26.4 </tspan></text></g></g></g></g><g><g clip-path="url(#clip017)"><g><g transform="translate(487.101,2016.574)"><text><tspan x="0" y="0" font-family="Connections Cond Light,Arial Narrow" font-weight="normal" font-style="normal" font-size="105.3333" fill="#000000">$3.5 </tspan></text></g></g></g></g><g><g clip-path="url(#clip018)"><g><g transform="translate(833.751,1991.226)"><text><tspan x="0" y="0" font-family="Connections Cond Light,Arial Narrow" font-weight="normal" font-style="normal" font-size="105.3333" fill="#000000">$6.0 </tspan></text></g></g></g></g><g><g clip-path="url(#clip019)"><g><g transform="translate(1180.402,1958.014)"><text><tspan x="0" y="0" font-family="Connections Cond Light,Arial Narrow" font-weight="normal" font-style="normal" font-size="105.3333" fill="#000000">$9.2 </tspan></text></g></g></g></g><g><g clip-path="url(#clip020)"><g><g transform="translate(1501.72,1904.559)"><text><tspan x="0" y="0" font-family="Connections Cond Light,Arial Narrow" font-weight="normal" font-style="normal" font-size="105.3333" fill="#000000">$14.3 </tspan></text></g></g></g></g><g><g clip-path="url(#clip021)"><g><g transform="translate(1848.37,1586.928)"><text><tspan x="0" y="0" font-family="Connections Cond Light,Arial Narrow" font-weight="normal" font-style="normal" font-size="105.3333" fill="#000000">$45.0 </tspan></text></g></g></g></g><g><g clip-path="url(#clip022)"><g><g transform="translate(2169.687,808.7371)"><text><tspan x="0" y="0" font-family="Connections Cond Light,Arial Narrow" font-weight="normal" font-style="normal" font-size="105.3333" fill="#000000">$120.2 </tspan></text></g></g></g></g><g><g clip-path="url(#clip023)"><g><g transform="translate(2453.167,110.0004)"><text><tspan x="0" y="0" font-family="Connections Cond Light,Arial Narrow" font-weight="normal" font-style="normal" font-size="105.3333" fill="#000000">$188.1 </tspan></text></g></g></g></g><g><g clip-path="url(#clip024)"><g><g transform="translate(118,2159.305)"><text><tspan x="0" y="0" font-family="Connections Cond Light,Arial Narrow" font-weight="normal" font-style="normal" font-size="105.3333" fill="#000000">$0</tspan></text></g></g></g></g><g><g clip-path="url(#clip025)"><g><g transform="translate(67.33334,1952.344)"><text><tspan x="0" y="0" font-family="Connections Cond Light,Arial Narrow" font-weight="normal" font-style="normal" font-size="105.3333" fill="#000000">$20</tspan></text></g></g></g></g><g><g clip-path="url(#clip026)"><g><g transform="translate(67.33334,1745.383)"><text><tspan x="0" y="0" font-family="Connections Cond Light,Arial Narrow" font-weight="normal" font-style="normal" font-size="105.3333" fill="#000000">$40</tspan></text></g></g></g></g><g><g clip-path="url(#clip027)"><g><g transform="translate(67.33334,1538.422)"><text><tspan x="0" y="0" font-family="Connections Cond Light,Arial Narrow" font-weight="normal" font-style="normal" font-size="105.3333" fill="#000000">$60</tspan></text></g></g></g></g><g><g clip-path="url(#clip028)"><g><g transform="translate(67.33334,1331.461)"><text><tspan x="0" y="0" font-family="Connections Cond Light,Arial Narrow" font-weight="normal" font-style="normal" font-size="105.3333" fill="#000000">$80</tspan></text></g></g></g></g><g><g clip-path="url(#clip029)"><g><g transform="translate(16.66667,1124.5)"><text><tspan x="0" y="0" font-family="Connections Cond Light,Arial Narrow" font-weight="normal" font-style="normal" font-size="105.3333" fill="#000000">$100</tspan></text></g></g></g></g><g><g clip-path="url(#clip030)"><g><g transform="translate(16.66667,917.5389)"><text><tspan x="0" y="0" font-family="Connections Cond Light,Arial Narrow" font-weight="normal" font-style="normal" font-size="105.3333" fill="#000000">$120</tspan></text></g></g></g></g><g><g clip-path="url(#clip031)"><g><g transform="translate(16.66667,710.5774)"><text><tspan x="0" y="0" font-family="Connections Cond Light,Arial Narrow" font-weight="normal" font-style="normal" font-size="105.3333" fill="#000000">$140</tspan></text></g></g></g></g><g><g clip-path="url(#clip032)"><g><g transform="translate(16.66667,503.6168)"><text><tspan x="0" y="0" font-family="Connections Cond Light,Arial Narrow" font-weight="normal" font-style="normal" font-size="105.3333" fill="#000000">$160</tspan></text></g></g></g></g><g><g clip-path="url(#clip033)"><g><g transform="translate(16.66667,296.6553)"><text><tspan x="0" y="0" font-family="Connections Cond Light,Arial Narrow" font-weight="normal" font-style="normal" font-size="105.3333" fill="#000000">$180</tspan></text></g></g></g></g><g><g clip-path="url(#clip034)"><g><g transform="translate(16.66667,89.69466)"><text><tspan x="0" y="0" font-family="Connections Cond Light,Arial Narrow" font-weight="normal" font-style="normal" font-size="105.3333" fill="#000000">$200</tspan></text></g></g></g></g><g><g clip-path="url(#clip035)"><g><g transform="translate(399.8819,2285.555)"><text><tspan x="0" y="0" font-family="Connections Cond Light,Arial Narrow" font-weight="normal" font-style="normal" font-size="105.3333" fill="#000000">2019</tspan></text></g></g></g></g><g><g clip-path="url(#clip036)"><g><g transform="translate(746.5328,2285.555)"><text><tspan x="0" y="0" font-family="Connections Cond Light,Arial Narrow" font-weight="normal" font-style="normal" font-size="105.3333" fill="#000000">2020</tspan></text></g></g></g></g><g><g clip-path="url(#clip037)"><g><g transform="translate(1093.183,2285.555)"><text><tspan x="0" y="0" font-family="Connections Cond Light,Arial Narrow" font-weight="normal" font-style="normal" font-size="105.3333" fill="#000000">2021</tspan></text></g></g></g></g><g><g clip-path="url(#clip038)"><g><g transform="translate(1439.834,2285.555)"><text><tspan x="0" y="0" font-family="Connections Cond Light,Arial Narrow" font-weight="normal" font-style="normal" font-size="105.3333" fill="#000000">2022</tspan></text></g></g></g></g><g><g clip-path="url(#clip039)"><g><g transform="translate(1786.485,2285.555)"><text><tspan x="0" y="0" font-family="Connections Cond Light,Arial Narrow" font-weight="normal" font-style="normal" font-size="105.3333" fill="#000000">2023</tspan></text></g></g></g></g><g><g clip-path="url(#clip040)"><g><g transform="translate(2133.135,2285.555)"><text><tspan x="0" y="0" font-family="Connections Cond Light,Arial Narrow" font-weight="normal" font-style="normal" font-size="105.3333" fill="#000000">2024</tspan></text></g></g></g></g><g><g clip-path="url(#clip041)"><g><g transform="translate(2479.786,2285.555)"><text><tspan x="0" y="0" font-family="Connections Cond Light,Arial Narrow" font-weight="normal" font-style="normal" font-size="105.3333" fill="#000000">2025</tspan></text></g></g></g></g><g clip-path="url(#clip042)"><g transform="matrix(0.000656168,0,0,0.000656168,358.6667,54.66667)"><path d="M0,0 L3167888,0 L3167888,282448 L0,282448 Z" fill="#5b9bd5" fill-opacity="0" fill-rule="evenodd" /></g></g><g clip-path="url(#clip043)"><g transform="matrix(0.000656168,0,0,0.000656168,610.6667,120)"><path d="M0,0 L83312,0 L83312,83312 L0,83312 Z" fill="#012169" fill-rule="evenodd" /><path d="M0,0 L83312,0 L83312,0 L83312,83312 L83312,83312 L0,83312 Z" stroke-width="8466.667" stroke-linejoin="round" stroke-miterlimit="13.33333" stroke="#ffffff" fill="none" fill-rule="evenodd" /></g></g><g><g clip-path="url(#clip044)"><g><g transform="translate(688.1138,176.8837)"><text><tspan x="0" y="0" font-family="Connections Cond Light,Arial Narrow" font-weight="normal" font-style="normal" font-size="105.3333" fill="#000000">CPUs ($bn)</tspan></text></g></g></g></g><g clip-path="url(#clip045)"><g transform="matrix(0.000656168,0,0,0.000656168,1360,120)"><path d="M0,0 L83312,0 L83312,83312 L0,83312 Z" fill="#009cde" fill-rule="evenodd" /><path d="M0,0 L83312,0 L83312,0 L83312,83312 L83312,83312 L0,83312 Z" stroke-width="8466.667" stroke-linejoin="round" stroke-miterlimit="13.33333" stroke="#ffffff" fill="none" fill-rule="evenodd" /></g></g><g><g clip-path="url(#clip046)"><g><g transform="translate(1436.879,176.8837)"><text><tspan x="0" y="0" font-family="Connections Cond Light,Arial Narrow" font-weight="normal" font-style="normal" font-size="105.3333" fill="#000000">AI Accelerators ($bn)</tspan></text></g></g></g></g><g /></g></g></g></g></g></g></g></g></g></svg>