<?xml version="1.0" encoding="UTF-8" standalone="no"?>
<svg xmlns:dc="http://purl.org/dc/elements/1.1/" xmlns:cc="http://creativecommons.org/ns#" xmlns:rdf="http://www.w3.org/1999/02/22-rdf-syntax-ns#" xmlns:svg="http://www.w3.org/2000/svg" xmlns="http://www.w3.org/2000/svg" viewBox="63.04875 352.6875 639 284.6625" height="284.6625" width="639" xml:space="preserve" version="1.1" id="svg2">
  <metadata id="metadata8">
    <rdf:RDF>
      <cc:Work rdf:about="">
        <dc:format>image/svg+xml</dc:format>
        <dc:type rdf:resource="http://purl.org/dc/dcmitype/StillImage"/>
      </cc:Work>
    </rdf:RDF>
  </metadata>
  <defs id="defs6">
    <clipPath id="clipPath16" clipPathUnits="userSpaceOnUse">
      <path style="clip-rule:evenodd" id="path18" d="m 50.4,282.12 511.2,0 0,227.76 -511.2,0 0,-227.76 z"/>
    </clipPath>
    <clipPath id="clipPath26" clipPathUnits="userSpaceOnUse">
      <path style="clip-rule:evenodd" id="path28" d="m 50.4,282.12 511.2,0 0,227.76 -511.2,0 0,-227.76 z"/>
    </clipPath>
    <clipPath id="clipPath36" clipPathUnits="userSpaceOnUse">
      <path style="clip-rule:evenodd" id="path38" d="m 50.5,282.12 511.1,0 0,227.66 -511.1,0 0,-227.66 z"/>
    </clipPath>
    <clipPath id="clipPath50" clipPathUnits="userSpaceOnUse">
      <path style="clip-rule:evenodd" id="path52" d="m 50.5,282.12 511.1,0 0,227.66 -511.1,0 0,-227.66 z"/>
    </clipPath>
    <clipPath id="clipPath60" clipPathUnits="userSpaceOnUse">
      <path style="clip-rule:evenodd" id="path62" d="m 50.52,282.12 511.08,0 0,227.64 -511.08,0 0,-227.64 z"/>
    </clipPath>
    <clipPath id="clipPath72" clipPathUnits="userSpaceOnUse">
      <path style="clip-rule:evenodd" id="path74" d="m 50.52,282.12 511.08,0 0,227.64 -511.08,0 0,-227.64 z"/>
    </clipPath>
    <clipPath id="clipPath84" clipPathUnits="userSpaceOnUse">
      <path style="clip-rule:evenodd" id="path86" d="m 50.52,282.12 511.08,0 0,227.64 -511.08,0 0,-227.64 z"/>
    </clipPath>
    <clipPath id="clipPath96" clipPathUnits="userSpaceOnUse">
      <path style="clip-rule:evenodd" id="path98" d="m 50.52,282.12 511.08,0 0,227.64 -511.08,0 0,-227.64 z"/>
    </clipPath>
    <clipPath id="clipPath108" clipPathUnits="userSpaceOnUse">
      <path style="clip-rule:evenodd" id="path110" d="m 50.52,282.12 511.08,0 0,227.64 -511.08,0 0,-227.64 z"/>
    </clipPath>
    <clipPath id="clipPath120" clipPathUnits="userSpaceOnUse">
      <path style="clip-rule:evenodd" id="path122" d="m 50.52,282.12 511.08,0 0,227.64 -511.08,0 0,-227.64 z"/>
    </clipPath>
    <clipPath id="clipPath132" clipPathUnits="userSpaceOnUse">
      <path style="clip-rule:evenodd" id="path134" d="m 50.52,282.12 511.08,0 0,227.64 -511.08,0 0,-227.64 z"/>
    </clipPath>
    <clipPath id="clipPath144" clipPathUnits="userSpaceOnUse">
      <path style="clip-rule:evenodd" id="path146" d="m 50.52,282.12 511.08,0 0,227.64 -511.08,0 0,-227.64 z"/>
    </clipPath>
    <clipPath id="clipPath156" clipPathUnits="userSpaceOnUse">
      <path style="clip-rule:evenodd" id="path158" d="m 50.52,282.12 511.08,0 0,227.64 -511.08,0 0,-227.64 z"/>
    </clipPath>
    <clipPath id="clipPath168" clipPathUnits="userSpaceOnUse">
      <path style="clip-rule:evenodd" id="path170" d="m 50.52,282.12 511.08,0 0,227.64 -511.08,0 0,-227.64 z"/>
    </clipPath>
    <clipPath id="clipPath180" clipPathUnits="userSpaceOnUse">
      <path style="clip-rule:evenodd" id="path182" d="m 50.52,282.12 511.08,0 0,227.64 -511.08,0 0,-227.64 z"/>
    </clipPath>
    <clipPath id="clipPath192" clipPathUnits="userSpaceOnUse">
      <path style="clip-rule:evenodd" id="path194" d="m 50.52,282.12 511.08,0 0,227.64 -511.08,0 0,-227.64 z"/>
    </clipPath>
    <clipPath id="clipPath204" clipPathUnits="userSpaceOnUse">
      <path style="clip-rule:evenodd" id="path206" d="m 50.52,282.12 511.08,0 0,227.64 -511.08,0 0,-227.64 z"/>
    </clipPath>
    <clipPath id="clipPath216" clipPathUnits="userSpaceOnUse">
      <path style="clip-rule:evenodd" id="path218" d="m 50.52,282.12 511.08,0 0,227.64 -511.08,0 0,-227.64 z"/>
    </clipPath>
    <clipPath id="clipPath228" clipPathUnits="userSpaceOnUse">
      <path style="clip-rule:evenodd" id="path230" d="m 50.52,282.12 511.08,0 0,227.64 -511.08,0 0,-227.64 z"/>
    </clipPath>
    <clipPath id="clipPath240" clipPathUnits="userSpaceOnUse">
      <path style="clip-rule:evenodd" id="path242" d="m 50.52,282.12 511.08,0 0,227.64 -511.08,0 0,-227.64 z"/>
    </clipPath>
    <clipPath id="clipPath252" clipPathUnits="userSpaceOnUse">
      <path style="clip-rule:evenodd" id="path254" d="m 50.52,282.12 511.08,0 0,227.64 -511.08,0 0,-227.64 z"/>
    </clipPath>
    <clipPath id="clipPath264" clipPathUnits="userSpaceOnUse">
      <path style="clip-rule:evenodd" id="path266" d="m 50.52,282.12 511.08,0 0,227.64 -511.08,0 0,-227.64 z"/>
    </clipPath>
    <clipPath id="clipPath276" clipPathUnits="userSpaceOnUse">
      <path style="clip-rule:evenodd" id="path278" d="m 50.52,282.12 511.08,0 0,227.64 -511.08,0 0,-227.64 z"/>
    </clipPath>
    <clipPath id="clipPath292" clipPathUnits="userSpaceOnUse">
      <path style="clip-rule:evenodd" id="path294" d="m 50.52,282.12 511.08,0 0,227.64 -511.08,0 0,-227.64 z"/>
    </clipPath>
    <clipPath id="clipPath306" clipPathUnits="userSpaceOnUse">
      <path style="clip-rule:evenodd" id="path308" d="m 50.52,282.12 511.08,0 0,227.64 -511.08,0 0,-227.64 z"/>
    </clipPath>
  </defs>
  <g transform="matrix(1.25,0,0,-1.25,0,990)" id="g10">
    <g id="g12">
      <g clip-path="url(#clipPath16)" id="g14">
        <path id="path20" style="fill:none;stroke:#000000;stroke-width:0.14;stroke-linecap:butt;stroke-linejoin:miter;stroke-miterlimit:10;stroke-dasharray:none;stroke-opacity:0" d="m 50.509,282.01 511.19,0 0,227.77 -511.19,0 0,-227.77 z"/>
      </g>
    </g>
    <g id="g22">
      <g clip-path="url(#clipPath26)" id="g24">
        <path id="path30" style="fill:#ffffff;fill-opacity:1;fill-rule:evenodd;stroke:none" d="m 50.509,282.01 511.19,0 0,227.77 -511.19,0 0,-227.77 z"/>
      </g>
    </g>
    <g id="g32">
      <g clip-path="url(#clipPath36)" id="g34">
        <path id="path40" style="fill:none;stroke:#c0c0c0;stroke-width:0.46294001;stroke-linecap:round;stroke-linejoin:round;stroke-miterlimit:10;stroke-dasharray:none;stroke-opacity:1" d="m 81.779,342.45 479.921,0 m -479.921,28.78 479.921,0 M 81.779,400 561.7,400 m -479.921,28.89 479.921,0 m -479.921,28.78 479.921,0 m -479.921,28.81 479.921,0"/>
      </g>
    </g>
    <path id="path42" style="fill:#005aa4;fill-opacity:1;fill-rule:nonzero;stroke:none" d="m 91.165,334.78 12.445,0 0,-21.15 -12.445,0 0,21.15 z m 43.555,9 12.55,0 0,-30.15 -12.55,0 0,30.15 z m 43.66,18.78 12.45,0 0,-48.93 -12.45,0 0,48.93 z m 43.67,-16.33 12.44,0 0,-32.6 -12.44,0 0,32.6 z m 43.55,12.66 12.56,0 0,-45.26 -12.56,0 0,45.26 z m 43.67,15.78 12.44,0 0,-61.04 -12.44,0 0,61.04 z m 43.66,4.89 12.45,0 0,-65.93 -12.45,0 0,65.93 z m 43.56,-8.78 12.55,0 0,-57.15 -12.55,0 0,57.15 z m 43.66,16.22 12.44,0 0,-73.37 -12.44,0 0,73.37 z m 43.66,9.78 12.45,0 0,-83.15 -12.45,0 0,83.15 z m 43.56,4.56 12.55,0 0,-87.71 -12.55,0 0,87.71 z"/>
    <path id="path44" style="fill:#eadfbc;fill-opacity:1;fill-rule:nonzero;stroke:none" d="m 103.61,348.67 12.44,0 0,-35.04 -12.44,0 0,35.04 z m 43.66,20.67 12.45,0 0,-55.71 -12.45,0 0,55.71 z m 43.56,19.77 12.44,0 0,-75.48 -12.44,0 0,75.48 z m 43.66,-15.33 12.45,0 0,-60.15 -12.45,0 0,60.15 z m 43.67,25.33 12.44,0 0,-85.48 -12.44,0 0,85.48 z m 43.55,-0.55 12.44,0 0,-84.93 -12.44,0 0,84.93 z m 43.67,-0.67 12.44,0 0,-84.26 -12.44,0 0,84.26 z m 43.66,7.22 12.44,0 0,-91.48 -12.44,0 0,91.48 z m 43.55,34.45 12.45,0 0,-125.93 -12.45,0 0,125.93 z m 43.67,-2.34 12.44,0 0,-123.59 -12.44,0 0,123.59 z m 43.66,14.56 12.45,0 0,-138.15 -12.45,0 0,138.15 z"/>
    <g id="g46">
      <g clip-path="url(#clipPath50)" id="g48">
        <path id="path54" style="fill:none;stroke:#808080;stroke-width:1.15740001;stroke-linecap:round;stroke-linejoin:round;stroke-miterlimit:10;stroke-dasharray:none;stroke-opacity:1" d="m 81.779,313.63 479.921,0"/>
      </g>
    </g>
    <g id="g56">
      <g clip-path="url(#clipPath60)" id="g58"><text id="text64" style="font-variant:normal;font-weight:normal;font-size:8.32800007px;font-family:'Roboto Condensed';-inkscape-font-specification:RobotoCondensed-Regular;writing-mode:lr-tb;fill:#000000;fill-opacity:1;fill-rule:nonzero;stroke:none" transform="matrix(1,0,0,-1,64.776,311.09)"><tspan id="tspan66" y="0" x="0 4.104032">0%</tspan></text>
</g>
    </g>
    <g id="g68">
      <g clip-path="url(#clipPath72)" id="g70"><text id="text76" style="font-variant:normal;font-weight:normal;font-size:8.32800007px;font-family:'Roboto Condensed';-inkscape-font-specification:RobotoCondensed-Regular;writing-mode:lr-tb;fill:#000000;fill-opacity:1;fill-rule:nonzero;stroke:none" transform="matrix(1,0,0,-1,64.776,339.89)"><tspan id="tspan78" y="0" x="0 4.104032">5%</tspan></text>
</g>
    </g>
    <g id="g80">
      <g clip-path="url(#clipPath84)" id="g82"><text id="text88" style="font-variant:normal;font-weight:normal;font-size:8.32800007px;font-family:'Roboto Condensed';-inkscape-font-specification:RobotoCondensed-Regular;writing-mode:lr-tb;fill:#000000;fill-opacity:1;fill-rule:nonzero;stroke:none" transform="matrix(1,0,0,-1,60.648,368.71)"><tspan id="tspan90" y="0" x="0 4.104032 8.2080641">10%</tspan></text>
</g>
    </g>
    <g id="g92">
      <g clip-path="url(#clipPath96)" id="g94"><text id="text100" style="font-variant:normal;font-weight:normal;font-size:8.32800007px;font-family:'Roboto Condensed';-inkscape-font-specification:RobotoCondensed-Regular;writing-mode:lr-tb;fill:#000000;fill-opacity:1;fill-rule:nonzero;stroke:none" transform="matrix(1,0,0,-1,60.648,397.51)"><tspan id="tspan102" y="0" x="0 4.104032 8.2080641">15%</tspan></text>
</g>
    </g>
    <g id="g104">
      <g clip-path="url(#clipPath108)" id="g106"><text id="text112" style="font-variant:normal;font-weight:normal;font-size:8.32800007px;font-family:'Roboto Condensed';-inkscape-font-specification:RobotoCondensed-Regular;writing-mode:lr-tb;fill:#000000;fill-opacity:1;fill-rule:nonzero;stroke:none" transform="matrix(1,0,0,-1,60.648,426.34)"><tspan id="tspan114" y="0" x="0 4.104032 8.2080641">20%</tspan></text>
</g>
    </g>
    <g id="g116">
      <g clip-path="url(#clipPath120)" id="g118"><text id="text124" style="font-variant:normal;font-weight:normal;font-size:8.35200024px;font-family:'Roboto Condensed';-inkscape-font-specification:RobotoCondensed-Regular;writing-mode:lr-tb;fill:#000000;fill-opacity:1;fill-rule:nonzero;stroke:none" transform="matrix(1,0,0,-1,60.648,455.16)"><tspan id="tspan126" y="0" x="0 4.1039882 8.2079763">25%</tspan></text>
</g>
    </g>
    <g id="g128">
      <g clip-path="url(#clipPath132)" id="g130"><text id="text136" style="font-variant:normal;font-weight:normal;font-size:8.32800007px;font-family:'Roboto Condensed';-inkscape-font-specification:RobotoCondensed-Regular;writing-mode:lr-tb;fill:#000000;fill-opacity:1;fill-rule:nonzero;stroke:none" transform="matrix(1,0,0,-1,60.648,483.96)"><tspan id="tspan138" y="0" x="0 4.104032 8.2080641">30%</tspan></text>
</g>
    </g>
    <g id="g140">
      <g clip-path="url(#clipPath144)" id="g142"><text id="text148" style="font-variant:normal;font-weight:normal;font-size:8.32800007px;font-family:'Roboto Condensed';-inkscape-font-specification:RobotoCondensed-Regular;writing-mode:lr-tb;fill:#000000;fill-opacity:1;fill-rule:nonzero;stroke:none" transform="matrix(1,0,0,-1,90.816,300.38)"><tspan id="tspan150" y="0" x="0 4.1280322 8.2560644 12.384096 16.512129 21.531256">2023Q1</tspan></text>
</g>
    </g>
    <g id="g152">
      <g clip-path="url(#clipPath156)" id="g154"><text id="text160" style="font-variant:normal;font-weight:normal;font-size:8.32800007px;font-family:'Roboto Condensed';-inkscape-font-specification:RobotoCondensed-Regular;writing-mode:lr-tb;fill:#000000;fill-opacity:1;fill-rule:nonzero;stroke:none" transform="matrix(1,0,0,-1,134.45,300.38)"><tspan id="tspan162" y="0" x="0 4.1280322 8.2560644 12.384096 16.512129 21.531256">2023Q2</tspan></text>
</g>
    </g>
    <g id="g164">
      <g clip-path="url(#clipPath168)" id="g166"><text id="text172" style="font-variant:normal;font-weight:normal;font-size:8.32800007px;font-family:'Roboto Condensed';-inkscape-font-specification:RobotoCondensed-Regular;writing-mode:lr-tb;fill:#000000;fill-opacity:1;fill-rule:nonzero;stroke:none" transform="matrix(1,0,0,-1,178.1,300.38)"><tspan id="tspan174" y="0" x="0 4.104032 8.2080641 12.312096 16.416128 21.411257">2023Q3</tspan></text>
</g>
    </g>
    <g id="g176">
      <g clip-path="url(#clipPath180)" id="g178"><text id="text184" style="font-variant:normal;font-weight:normal;font-size:8.32800007px;font-family:'Roboto Condensed';-inkscape-font-specification:RobotoCondensed-Regular;writing-mode:lr-tb;fill:#000000;fill-opacity:1;fill-rule:nonzero;stroke:none" transform="matrix(1,0,0,-1,221.74,300.38)"><tspan id="tspan186" y="0" x="0 4.104032 8.2080641 12.312096 16.416128 21.411257">2023Q4</tspan></text>
</g>
    </g>
    <g id="g188">
      <g clip-path="url(#clipPath192)" id="g190"><text id="text196" style="font-variant:normal;font-weight:normal;font-size:8.32800007px;font-family:'Roboto Condensed';-inkscape-font-specification:RobotoCondensed-Regular;writing-mode:lr-tb;fill:#000000;fill-opacity:1;fill-rule:nonzero;stroke:none" transform="matrix(1,0,0,-1,265.37,300.38)"><tspan id="tspan198" y="0" x="0 4.104032 8.2080641 12.312096 16.416128 21.411257">2024Q1</tspan></text>
</g>
    </g>
    <g id="g200">
      <g clip-path="url(#clipPath204)" id="g202"><text id="text208" style="font-variant:normal;font-weight:normal;font-size:8.32800007px;font-family:'Roboto Condensed';-inkscape-font-specification:RobotoCondensed-Regular;writing-mode:lr-tb;fill:#000000;fill-opacity:1;fill-rule:nonzero;stroke:none" transform="matrix(1,0,0,-1,309,300.38)"><tspan id="tspan210" y="0" x="0 4.1280322 8.2560644 12.384096 16.512129 21.531256">2024Q2</tspan></text>
</g>
    </g>
    <g id="g212">
      <g clip-path="url(#clipPath216)" id="g214"><text id="text220" style="font-variant:normal;font-weight:normal;font-size:8.32800007px;font-family:'Roboto Condensed';-inkscape-font-specification:RobotoCondensed-Regular;writing-mode:lr-tb;fill:#000000;fill-opacity:1;fill-rule:nonzero;stroke:none" transform="matrix(1,0,0,-1,352.63,300.38)"><tspan id="tspan222" y="0" x="0 4.1280322 8.2560644 12.384096 16.512129 21.531256">2024Q3</tspan></text>
</g>
    </g>
    <g id="g224">
      <g clip-path="url(#clipPath228)" id="g226"><text id="text232" style="font-variant:normal;font-weight:normal;font-size:8.32800007px;font-family:'Roboto Condensed';-inkscape-font-specification:RobotoCondensed-Regular;writing-mode:lr-tb;fill:#000000;fill-opacity:1;fill-rule:nonzero;stroke:none" transform="matrix(1,0,0,-1,396.29,300.38)"><tspan id="tspan234" y="0" x="0 4.104032 8.2080641 12.312096 16.416128 21.411257">2024Q4</tspan></text>
</g>
    </g>
    <g id="g236">
      <g clip-path="url(#clipPath240)" id="g238"><text id="text244" style="font-variant:normal;font-weight:normal;font-size:8.32800007px;font-family:'Roboto Condensed';-inkscape-font-specification:RobotoCondensed-Regular;writing-mode:lr-tb;fill:#000000;fill-opacity:1;fill-rule:nonzero;stroke:none" transform="matrix(1,0,0,-1,439.92,300.38)"><tspan id="tspan246" y="0" x="0 4.104032 8.2080641 12.312096 16.416128 21.411257">2025Q1</tspan></text>
</g>
    </g>
    <g id="g248">
      <g clip-path="url(#clipPath252)" id="g250"><text id="text256" style="font-variant:normal;font-weight:normal;font-size:8.32800007px;font-family:'Roboto Condensed';-inkscape-font-specification:RobotoCondensed-Regular;writing-mode:lr-tb;fill:#000000;fill-opacity:1;fill-rule:nonzero;stroke:none" transform="matrix(1,0,0,-1,483.55,300.38)"><tspan id="tspan258" y="0" x="0 4.104032 8.2080641 12.312096 16.416128 21.411257">2025Q2</tspan></text>
</g>
    </g>
    <g id="g260">
      <g clip-path="url(#clipPath264)" id="g262"><text id="text268" style="font-variant:normal;font-weight:normal;font-size:8.32800007px;font-family:'Roboto Condensed';-inkscape-font-specification:RobotoCondensed-Regular;writing-mode:lr-tb;fill:#000000;fill-opacity:1;fill-rule:nonzero;stroke:none" transform="matrix(1,0,0,-1,527.18,300.38)"><tspan id="tspan270" y="0" x="0 4.1280322 8.2560644 12.384096 16.512129 21.531256">2025Q3</tspan></text>
</g>
    </g>
    <g id="g272">
      <g clip-path="url(#clipPath276)" id="g274"><text id="text280" style="font-variant:normal;font-weight:bold;font-size:9.98400021px;font-family:'Roboto Condensed';-inkscape-font-specification:RobotoCondensed-Bold;writing-mode:lr-tb;fill:#000000;fill-opacity:1;fill-rule:nonzero;stroke:none" transform="matrix(1,0,0,-1,208.22,493.22)"><tspan id="tspan282" y="0" x="0 6.3398399 8.6561279 13.62816 16.862976 19.179264 24.870144 29.842176 37.250305 42.262272 46.914818 51.826942 54.342911 59.125248 63.677952 65.99424 70.976257 74.290947 79.292931 83.735809 86.251778 91.263741 93.779709 98.691841 103.71379 105.93024 111.93063 116.84275 121.48531 126.39744 129.49248 132.00845 135.25325 137.76921 142.47168 147.43373 149.94969 154.73203 157.06828 163.05869 165.72441 168.04071 170.70644 178.13452 183.11655 187.76909 192.33177 195.4368">% of Companies providing Quantifiable AI Impact </tspan></text>
</g>
    </g>
    <path id="path284" style="fill:#ffffff;fill-opacity:1;fill-rule:evenodd;stroke:none" d="m 243.97,468.43 124.27,0 0,15.455 -124.27,0 0,-15.455 z"/>
    <path id="path286" style="fill:#005aa4;fill-opacity:1;fill-rule:evenodd;stroke:none" d="m 253.82,473.91 4.4998,0 0,4.4998 -4.4998,0 0,-4.4998 z"/>
    <g id="g288">
      <g clip-path="url(#clipPath292)" id="g290"><text id="text296" style="font-variant:normal;font-weight:normal;font-size:8.32800007px;font-family:'Roboto Condensed';-inkscape-font-specification:RobotoCondensed-Regular;writing-mode:lr-tb;fill:#000000;fill-opacity:1;fill-rule:nonzero;stroke:none" transform="matrix(1,0,0,-1,260.28,473.64)"><tspan id="tspan298" y="0" x="0 4.3139038 8.852664 13.041648 17.15568">SP500</tspan></text>
</g>
    </g>
    <path id="path300" style="fill:#eadfbc;fill-opacity:1;fill-rule:evenodd;stroke:none" d="m 291.01,473.91 4.4998,0 0,4.4998 -4.4998,0 0,-4.4998 z"/>
    <g id="g302">
      <g clip-path="url(#clipPath306)" id="g304"><text id="text310" style="font-variant:normal;font-weight:normal;font-size:8.32800007px;font-family:'Roboto Condensed';-inkscape-font-specification:RobotoCondensed-Regular;writing-mode:lr-tb;fill:#000000;fill-opacity:1;fill-rule:nonzero;stroke:none" transform="matrix(1,0,0,-1,297.46,473.64)"><tspan id="tspan312" y="0" x="0 6.3292799 10.668168 14.890464 19.012823 21.569521 25.133904 29.031408 32.504185 34.386311 39.183239 43.405537 47.536224 51.64193 54.098686 58.112785 60.561214">MSSurvey Adopters</tspan></text>
</g>
    </g>
  </g>
</svg>
