<?xml version="1.0" encoding="UTF-8" standalone="no"?>
<svg xmlns:dc="http://purl.org/dc/elements/1.1/" xmlns:cc="http://creativecommons.org/ns#" xmlns:rdf="http://www.w3.org/1999/02/22-rdf-syntax-ns#" xmlns:svg="http://www.w3.org/2000/svg" xmlns="http://www.w3.org/2000/svg" viewBox="40.4875 32.55 367.0625 148.8125" height="148.8125" width="367.0625" xml:space="preserve" version="1.1" id="svg2">
  <metadata id="metadata8">
    <rdf:RDF>
      <cc:Work rdf:about="">
        <dc:format>image/svg+xml</dc:format>
        <dc:type rdf:resource="http://purl.org/dc/dcmitype/StillImage"/>
      </cc:Work>
    </rdf:RDF>
  </metadata>
  <defs id="defs6">
    <clipPath id="clipPath18" clipPathUnits="userSpaceOnUse">
      <path style="clip-rule:evenodd" id="path20" d="m 36.24,531.6 287.04,0 0,51.6 -287.04,0 0,-51.6 z"/>
    </clipPath>
    <clipPath id="clipPath30" clipPathUnits="userSpaceOnUse">
      <path style="clip-rule:evenodd" id="path32" d="m 36.24,531.6 287.04,0 0,51.6 -287.04,0 0,-51.6 z"/>
    </clipPath>
    <clipPath id="clipPath42" clipPathUnits="userSpaceOnUse">
      <path style="clip-rule:evenodd" id="path44" d="m 36.24,531.6 287.04,0 0,51.6 -287.04,0 0,-51.6 z"/>
    </clipPath>
    <clipPath id="clipPath58" clipPathUnits="userSpaceOnUse">
      <path style="clip-rule:evenodd" id="path60" d="m 33.84,499.56 288.6,0 0,23.52 -288.6,0 0,-23.52 z"/>
    </clipPath>
    <clipPath id="clipPath74" clipPathUnits="userSpaceOnUse">
      <path style="clip-rule:evenodd" id="path76" d="m 34.68,468.36 288.6,0 0,23.52 -288.6,0 0,-23.52 z"/>
    </clipPath>
  </defs>
  <g transform="matrix(1.25,0,0,-1.25,0,765)" id="g10">
    <path id="path12" style="fill:#003576;fill-opacity:1;fill-rule:evenodd;stroke:none" d="m 33.48,576.44 c 0,5.26 4.262,9.52 9.52,9.52 l 273.52,0 c 5.26,0 9.52,-4.26 9.52,-9.52 l 0,-38.08 c 0,-5.26 -4.26,-9.52 -9.52,-9.52 l -273.52,0 c -5.258,0 -9.52,4.26 -9.52,9.52 l 0,38.08 z"/>
    <g id="g14">
      <g clip-path="url(#clipPath18)" id="g16"><text id="text22" style="font-variant:normal;font-weight:bold;font-size:12px;font-family:Calibri;-inkscape-font-specification:Calibri-Bold;writing-mode:lr-tb;fill:#ffffff;fill-opacity:1;fill-rule:nonzero;stroke:none" transform="matrix(1,0,0,-1,43.488,568.15)"><tspan id="tspan24" y="0" x="0 8.1479998 13.824 19.788 24.096001 26.736 30.9 37.403999 43.403999 46.152 52.619999 58.619999 64.127998 68.328003 70.968002 77.052002 83.195999 85.835999 90 96.503998 99.143997 105.228 111.372 114.012 123.732 130.188 136.67999 140.84399 147.34801 152.136 155.256 157.776 164.244 170.7 173.364 179.004 185.46001 191.952 194.7 200.7 206.20799 212.688 218.688 223.70399 227.916 230.556 237.864 241.092 243.73199 247.896 254.39999">Over the next 12 to 24 months, do you expect AI to </tspan></text>
</g>
    </g>
    <g id="g26">
      <g clip-path="url(#clipPath30)" id="g28"><text id="text34" style="font-variant:normal;font-weight:bold;font-size:12px;font-family:Calibri;-inkscape-font-specification:Calibri-Bold;writing-mode:lr-tb;fill:#ffffff;fill-opacity:1;fill-rule:nonzero;stroke:none" transform="matrix(1,0,0,-1,43.488,553.51)"><tspan id="tspan36" y="0" x="0 6.4679999 12.468 15.456 18.444 24.120001 30.084 34.391998 37.032001 42.672001 46.98 52.98 58.860001 63.023998 69.059998 73.367996 76.115997 82.584 88.584 95.052002 101.052 104.88 107.868 112.032 116.856 119.376 123.54 130.04401 134.35201 140.808 147.3 152.94 159.408 161.92799 166.23599 172.23599 177.912 183.87601 190.34399 196.812 202.812 205.56 211.2 215.508 221.964 230.976 235.14 241.644 244.164 250.62 254.952">deliver greater benefits through revenue growth or </tspan></text>
</g>
    </g>
    <g id="g38">
      <g clip-path="url(#clipPath42)" id="g40"><text id="text46" style="font-variant:normal;font-weight:bold;font-size:12px;font-family:Calibri;-inkscape-font-specification:Calibri-Bold;writing-mode:lr-tb;fill:#ffffff;fill-opacity:1;fill-rule:nonzero;stroke:none" transform="matrix(1,0,0,-1,43.488,538.87)"><tspan id="tspan48" y="0" x="0 5.0159998 11.508 16.296 20.496 23.136 29.136 32.964001 36.792 39.779999 44.796001 47.807999 53.807999 60.276001 65.292 70.980003">cost efficiency?</tspan></text>
</g>
    </g>
    <path id="path50" style="fill:#c0daf2;fill-opacity:1;fill-rule:evenodd;stroke:none" d="m 32.64,519.96 c 0,2.39 1.934,4.32 4.32,4.32 l 282.36,0 c 2.39,0 4.32,-1.93 4.32,-4.32 l 0,-17.28 c 0,-2.39 -1.93,-4.32 -4.32,-4.32 l -282.36,0 c -2.386,0 -4.32,1.93 -4.32,4.32 l 0,17.28 z"/>
    <path id="path52" style="fill:none;stroke:#0070c0;stroke-width:0.5;stroke-linecap:butt;stroke-linejoin:miter;stroke-miterlimit:10;stroke-dasharray:none;stroke-opacity:1" d="m 32.64,519.96 c 0,2.39 1.934,4.32 4.32,4.32 l 282.36,0 c 2.39,0 4.32,-1.93 4.32,-4.32 l 0,-17.28 c 0,-2.39 -1.93,-4.32 -4.32,-4.32 l -282.36,0 c -2.386,0 -4.32,1.93 -4.32,4.32 l 0,17.28 z"/>
    <g id="g54">
      <g clip-path="url(#clipPath58)" id="g56"><text id="text62" style="font-variant:normal;font-weight:bold;font-size:12px;font-family:Calibri;-inkscape-font-specification:Calibri-Bold;writing-mode:lr-tb;fill:#000000;fill-opacity:1;fill-rule:nonzero;stroke:none" transform="matrix(1,0,0,-1,41.112,507.98)"><tspan id="tspan64" y="0" x="0 7.3080001 11.052 13.668 20.388 26.388 32.063999 38.028 44.495998 50.964001 56.964001 59.832001 65.472 69.779999 76.236 85.248001 89.412003">A) Revenue growth</tspan></text>
</g>
    </g>
    <path id="path66" style="fill:#fbf4e1;fill-opacity:1;fill-rule:evenodd;stroke:none" d="m 33.48,488.76 c 0,2.39 1.934,4.32 4.32,4.32 l 282.36,0 c 2.39,0 4.32,-1.93 4.32,-4.32 l 0,-17.28 c 0,-2.39 -1.93,-4.32 -4.32,-4.32 l -282.36,0 c -2.386,0 -4.32,1.93 -4.32,4.32 l 0,17.28 z"/>
    <path id="path68" style="fill:none;stroke:#d0b86a;stroke-width:0.5;stroke-linecap:butt;stroke-linejoin:miter;stroke-miterlimit:10;stroke-dasharray:none;stroke-opacity:1" d="m 33.48,488.76 c 0,2.39 1.934,4.32 4.32,4.32 l 282.36,0 c 2.39,0 4.32,-1.93 4.32,-4.32 l 0,-17.28 c 0,-2.39 -1.93,-4.32 -4.32,-4.32 l -282.36,0 c -2.386,0 -4.32,1.93 -4.32,4.32 l 0,17.28 z"/>
    <g id="g70">
      <g clip-path="url(#clipPath74)" id="g72"><text id="text78" style="font-variant:normal;font-weight:bold;font-size:12px;font-family:Calibri;-inkscape-font-specification:Calibri-Bold;writing-mode:lr-tb;fill:#000000;fill-opacity:1;fill-rule:nonzero;stroke:none" transform="matrix(1,0,0,-1,41.952,476.78)"><tspan id="tspan80" y="0" x="0 6.7319999 10.44 13.188 19.535999 26.016001 30.804001 35.004002 37.644001 43.644001 47.472 51.299999 54.287998 59.304001 62.316002 68.316002 74.783997 79.800003">B) Cost efficiency</tspan></text>
</g>
    </g>
  </g>
</svg>
