<svg version="1.1" width="100%" height="100%" viewBox="0 0 479 211" xmlns="http://www.w3.org/2000/svg" xmlns:xlink="http://www.w3.org/1999/xlink"><style type="text/css" /><defs><clipPath id="clip001"><path d="M0,0 L478,0 L478,210.3333 L0,210.3333 Z" clip-rule="evenodd" /></clipPath><clipPath id="clip002"><path d="M-1.333333,-1.333333 L3996,-1.333333 L3996,1765.333 L-1.333333,1765.333 Z" clip-rule="evenodd" /></clipPath><clipPath id="clip003"><path d="M0,0 L3996,0 L3996,1765.333 L0,1765.333 Z" clip-rule="evenodd" /></clipPath><clipPath id="clip004"><path d="M0,0 L3996,0 L3996,1765.333 L0,1765.333 Z" clip-rule="evenodd" /></clipPath><clipPath id="clip005"><path d="M0,0 L3996,0 L3996,1765.333 L0,1765.333 Z" clip-rule="evenodd" /></clipPath><clipPath id="clip006"><path d="M238.6667,60 L3993.333,60 L3993.333,1522.667 L238.6667,1522.667 Z" clip-rule="evenodd" /></clipPath><clipPath id="clip007"><path d="M0,0 L3996,0 L3996,1765.333 L0,1765.333 Z" clip-rule="evenodd" /></clipPath><clipPath id="clip008"><path d="M0,0 L3996,0 L3996,1765.333 L0,1765.333 Z" clip-rule="evenodd" /></clipPath><clipPath id="clip009"><path d="M0,0 L3996,0 L3996,1765.333 L0,1765.333 Z" clip-rule="evenodd" /></clipPath><clipPath id="clip010"><path d="M0,0 L3996,0 L3996,1765.333 L0,1765.333 Z" clip-rule="evenodd" /></clipPath><clipPath id="clip011"><path d="M0,0 L3996,0 L3996,1765.333 L0,1765.333 Z" clip-rule="evenodd" /></clipPath><clipPath id="clip012"><path d="M0,0 L3996,0 L3996,1765.333 L0,1765.333 Z" clip-rule="evenodd" /></clipPath><clipPath id="clip013"><path d="M0,0 L3996,0 L3996,1765.333 L0,1765.333 Z" clip-rule="evenodd" /></clipPath><clipPath id="clip014"><path d="M0,0 L3996,0 L3996,1765.333 L0,1765.333 Z" clip-rule="evenodd" /></clipPath><clipPath id="clip015"><path d="M0,0 L3996,0 L3996,1765.333 L0,1765.333 Z" clip-rule="evenodd" /></clipPath><clipPath id="clip016"><path d="M0,0 L3996,0 L3996,1765.333 L0,1765.333 Z" clip-rule="evenodd" /></clipPath><clipPath id="clip017"><path d="M0,0 L3996,0 L3996,1765.333 L0,1765.333 Z" clip-rule="evenodd" /></clipPath><clipPath id="clip018"><path d="M0,0 L3996,0 L3996,1765.333 L0,1765.333 Z" clip-rule="evenodd" /></clipPath><clipPath id="clip019"><path d="M0,0 L3996,0 L3996,1765.333 L0,1765.333 Z" clip-rule="evenodd" /></clipPath><clipPath id="clip020"><path d="M0,0 L3996,0 L3996,1765.333 L0,1765.333 Z" clip-rule="evenodd" /></clipPath><clipPath id="clip021"><path d="M0,0 L3996,0 L3996,1765.333 L0,1765.333 Z" clip-rule="evenodd" /></clipPath><clipPath id="clip022"><path d="M0,0 L3996,0 L3996,1765.333 L0,1765.333 Z" clip-rule="evenodd" /></clipPath><clipPath id="clip023"><path d="M0,0 L3996,0 L3996,1765.333 L0,1765.333 Z" clip-rule="evenodd" /></clipPath><clipPath id="clip024"><path d="M0,0 L3996,0 L3996,1765.333 L0,1765.333 Z" clip-rule="evenodd" /></clipPath><clipPath id="clip025"><path d="M0,0 L3996,0 L3996,1765.333 L0,1765.333 Z" clip-rule="evenodd" /></clipPath><clipPath id="clip026"><path d="M0,0 L3996,0 L3996,1765.333 L0,1765.333 Z" clip-rule="evenodd" /></clipPath><clipPath id="clip027"><path d="M0,0 L3996,0 L3996,1765.333 L0,1765.333 Z" clip-rule="evenodd" /></clipPath><clipPath id="clip028"><path d="M0,0 L3996,0 L3996,1765.333 L0,1765.333 Z" clip-rule="evenodd" /></clipPath><clipPath id="clip029"><path d="M0,0 L3996,0 L3996,1765.333 L0,1765.333 Z" clip-rule="evenodd" /></clipPath><clipPath id="clip030"><path d="M0,0 L3996,0 L3996,1765.333 L0,1765.333 Z" clip-rule="evenodd" /></clipPath><clipPath id="clip031"><path d="M0,0 L3996,0 L3996,1765.333 L0,1765.333 Z" clip-rule="evenodd" /></clipPath><clipPath id="clip032"><path d="M0,0 L3996,0 L3996,1765.333 L0,1765.333 Z" clip-rule="evenodd" /></clipPath><clipPath id="clip033"><path d="M0,0 L3996,0 L3996,1765.333 L0,1765.333 Z" clip-rule="evenodd" /></clipPath></defs><clipPath id="page-clip-path-1"><rect x="0" y="0" width="478.67" height="210.67" /></clipPath><g clip-path="url(#page-clip-path-1)" transform="translate(0.17,0)"><g><g clip-path="url(#clip001)"><g><g transform="matrix(0.1195797,0,0,0.1190566,0.1594396,0.1587421)" clip-path="url(#clip002)"><g><g clip-path="url(#clip003)"><g transform="matrix(0.000656168,0,0,0.000656168,0,0)"><path d="M0,0 L6089904,0 L6089904,2690368 L0,2690368 Z" fill="#ffffff" fill-rule="evenodd" /></g></g><g clip-path="url(#clip004)"><g transform="matrix(0.000656168,0,0,0.000656168,238.6667,60)"><path d="M0,0 L5709920,0 L5709920,2218944 L0,2218944 Z" fill="#ffffff" fill-rule="evenodd" /></g></g><g clip-path="url(#clip005)"><g transform="matrix(0.000656168,0,0,0.000656168,238.6667,497.3333)"><g><path d="M0.001581653,-6773.333 L5709920,-6772 " stroke-width="3386.667" stroke-linejoin="round" stroke-miterlimit="13.33333" stroke="#000000" fill="none" fill-rule="evenodd" /><path d="M-0.000790827,3386.667 L5709920,3388 " stroke-width="10160" stroke-linejoin="round" stroke-miterlimit="13.33333" stroke="#000000" fill="none" fill-rule="evenodd" /></g></g></g><g clip-path="url(#clip006)"><g transform="matrix(0.000656168,0,0,0.000656168,138,126)"><path d="M0,938784 L20320,985520 L20320,985520 L38608,928624 L38608,928624 L58928,1052576 L58928,1052576 L77216,1016000 L77216,1016000 L97536,1292352 L97536,1292352 L115824,1070864 L115824,1070864 L134112,749808 L134112,749808 L154432,501904 L154432,501904 L172720,658368 L172720,658368 L191008,382016 L191008,382016 L211328,638048 L211328,638048 L229616,784352 L229616,784352 L247904,912368 L247904,912368 L268224,1001776 L268224,1001776 L286512,1013968 L286512,1013968 L306832,1146048 L306832,1146048 L325120,1229360 L325120,1229360 L343408,1133856 L343408,1133856 L363728,1030224 L363728,1030224 L382016,1121664 L382016,1121664 L402336,1320800 L402336,1320800 L418592,1400048 L418592,1400048 L438912,1150112 L438912,1150112 L457200,1038352 L457200,1038352 L477520,721360 L477520,721360 L495808,688848 L495808,688848 L514096,784352 L514096,784352 L534416,388112 L534416,388112 L552704,640080 L552704,640080 L573024,575056 L573024,575056 L591312,585216 L591312,585216 L609600,312928 L609600,312928 L629920,447040 L629920,447040 L648208,481584 L648208,481584 L668528,524256 L668528,524256 L686816,924560 L686816,924560 L705104,948944 L705104,948944 L723392,971296 L723392,971296 L743712,1095248 L743712,1095248 L764032,977392 L764032,977392 L782320,926592 L782320,926592 L800608,743712 L800608,743712 L820928,725424 L820928,725424 L839216,790448 L839216,790448 L859536,638048 L859536,638048 L875792,723392 L875792,723392 L896112,1040384 L896112,1040384 L914400,1083056 L914400,1083056 L934720,904240 L934720,904240 L953008,920496 L953008,920496 L971296,577088 L971296,577088 L991616,869696 L991616,869696 L1009904,1003808 L1009904,1003808 L1030224,682752 L1030224,682752 L1048512,656336 L1048512,656336 L1066800,505968 L1066800,505968 L1087120,658368 L1087120,658368 L1105408,703072 L1105408,703072 L1123696,638048 L1123696,638048 L1141984,798576 L1141984,798576 L1162304,1068832 L1162304,1068832 L1180592,1170432 L1180592,1170432 L1200912,1278128 L1200912,1278128 L1219200,1144016 L1219200,1144016 L1237488,1070864 L1237488,1070864 L1257808,881888 L1257808,881888 L1276096,914400 L1276096,914400 L1296416,863600 L1296416,863600 L1314704,845312 L1314704,845312 L1332992,955040 L1332992,955040 L1351280,814832 L1351280,814832 L1371600,930656 L1371600,930656 L1389888,963168 L1389888,963168 L1408176,827024 L1408176,827024 L1428496,1249680 L1428496,1249680 L1446784,1414272 L1446784,1414272 L1467104,1095248 L1467104,1095248 L1485392,1034288 L1485392,1034288 L1503680,1314704 L1503680,1314704 L1524000,1373632 L1524000,1373632 L1544320,1440688 L1544320,1440688 L1560576,1473200 L1560576,1473200 L1580896,1387856 L1580896,1387856 L1599184,1330960 L1599184,1330960 L1619504,1511808 L1619504,1511808 L1637792,1481328 L1637792,1481328 L1658112,1519936 L1658112,1519936 L1676400,1578864 L1676400,1578864 L1694688,1802384 L1694688,1802384 L1715008,1625600 L1715008,1625600 L1733296,1731264 L1733296,1731264 L1753616,1528064 L1753616,1528064 L1771904,1497584 L1771904,1497584 L1790192,1627632 L1790192,1627632 L1808480,1217168 L1808480,1217168 L1828800,1028192 L1828800,1028192 L1847088,946912 L1847088,946912 L1865376,1186688 L1865376,1186688 L1885696,835152 L1885696,835152 L1903984,916432 L1903984,916432 L1924304,652272 L1924304,652272 L1942592,587248 L1942592,587248 L1960880,721360 L1960880,721360 L1981200,524256 L1981200,524256 L1999488,865632 L1999488,865632 L2017776,757936 L2017776,757936 L2038096,542544 L2038096,542544 L2056384,963168 L2056384,963168 L2074672,1089152 L2074672,1089152 L2094992,1422400 L2094992,1422400 L2113280,1158240 L2113280,1158240 L2133600,1286256 L2133600,1286256 L2151888,883920 L2151888,883920 L2170176,605536 L2170176,605536 L2190496,607568 L2190496,607568 L2208784,676656 L2208784,676656 L2229104,540512 L2229104,540512 L2245360,739648 L2245360,739648 L2265680,564896 L2265680,564896 L2283968,892048 L2283968,892048 L2304288,1133856 L2304288,1133856 L2322576,1040384 L2322576,1040384 L2342896,1170432 L2342896,1170432 L2361184,1558544 L2361184,1558544 L2379472,1389888 L2379472,1389888 L2399792,1507744 L2399792,1507744 L2418080,1487424 L2418080,1487424 L2438400,1292352 L2438400,1292352 L2456688,894080 L2456688,894080 L2474976,816864 L2474976,816864 L2495296,1030224 L2495296,1030224 L2513584,1347216 L2513584,1347216 L2531872,1509776 L2531872,1509776 L2552192,1521968 L2552192,1521968 L2570480,1270000 L2570480,1270000 L2590800,1054608 L2590800,1054608 L2609088,1064768 L2609088,1064768 L2627376,814832 L2627376,814832 L2647696,690880 L2647696,690880 L2665984,343408 L2665984,343408 L2686304,428752 L2686304,428752 L2702560,475488 L2702560,475488 L2722880,654304 L2722880,654304 L2741168,552704 L2741168,552704 L2761488,786384 L2761488,786384 L2779776,926592 L2779776,926592 L2798064,701040 L2798064,701040 L2826512,757936 L2826512,757936 L2846832,867664 L2846832,867664 L2865120,654304 L2865120,654304 L2883408,564896 L2883408,564896 L2903728,469392 L2903728,469392 L2922016,603504 L2922016,603504 L2940304,877824 L2940304,877824 L2960624,800608 L2960624,800608 L2978912,1048512 L2978912,1048512 L2997200,699008 L2997200,699008 L3017520,577088 L3017520,577088 L3035808,778256 L3035808,778256 L3056128,733552 L3056128,733552 L3074416,918464 L3074416,918464 L3092704,526288 L3092704,526288 L3113024,593344 L3113024,593344 L3131312,666496 L3131312,666496 L3151632,522224 L3151632,522224 L3167888,473456 L3167888,473456 L3188208,564896 L3188208,564896 L3206496,735584 L3206496,735584 L3216656,883920 L3216656,883920 L3236976,908304 L3236976,908304 L3255264,948944 L3255264,948944 L3275584,1213104 L3275584,1213104 L3293872,985520 L3293872,985520 L3312160,674624 L3312160,674624 L3332480,995680 L3332480,995680 L3350768,1231392 L3350768,1231392 L3371088,1318768 L3371088,1318768 L3389376,1156208 L3389376,1156208 L3407664,1026160 L3407664,1026160 L3425952,1278128 L3425952,1278128 L3446272,1367536 L3446272,1367536 L3464560,1383792 L3464560,1383792 L3484880,1129792 L3484880,1129792 L3503168,1245616 L3503168,1245616 L3521456,1162304 L3521456,1162304 L3541776,1172464 L3541776,1172464 L3560064,847344 L3560064,847344 L3580384,829056 L3580384,829056 L3598672,780288 L3598672,780288 L3616960,619760 L3616960,619760 L3635248,668528 L3635248,668528 L3655568,552704 L3655568,552704 L3673856,837184 L3673856,837184 L3692144,727456 L3692144,727456 L3712464,794512 L3712464,794512 L3732784,798576 L3732784,798576 L3751072,528320 L3751072,528320 L3769360,203200 L3769360,203200 L3789680,321056 L3789680,321056 L3807968,298704 L3807968,298704 L3828288,524256 L3828288,524256 L3844544,514096 L3844544,514096 L3864864,729488 L3864864,729488 L3883152,764032 L3883152,764032 L3903472,950976 L3903472,950976 L3921760,950976 L3921760,950976 L3940048,1044448 L3940048,1044448 L3960368,1042416 L3960368,1042416 L3978656,1125728 L3978656,1125728 L3998976,910336 L3998976,910336 L4017264,1101344 L4017264,1101344 L4035552,1042416 L4035552,1042416 L4055872,1013968 L4055872,1013968 L4074160,1066800 L4074160,1066800 L4092448,991616 L4092448,991616 L4110736,1099312 L4110736,1099312 L4131056,1395984 L4131056,1395984 L4149344,1085088 L4149344,1085088 L4169664,1357376 L4169664,1357376 L4187952,1150112 L4187952,1150112 L4206240,1148080 L4206240,1148080 L4226560,877824 L4226560,877824 L4244848,621792 L4244848,621792 L4265168,522224 L4265168,522224 L4283456,611632 L4283456,611632 L4301744,1304544 L4301744,1304544 L4322064,1546352 L4322064,1546352 L4340352,1308608 L4340352,1308608 L4358640,926592 L4358640,926592 L4378960,967232 L4378960,967232 L4397248,883920 L4397248,883920 L4417568,755904 L4417568,755904 L4435856,822960 L4435856,822960 L4456176,424688 L4456176,424688 L4474464,284480 L4474464,284480 L4492752,142240 L4492752,142240 L4513072,0 L4513072,0 L4529328,115824 L4529328,115824 L4549648,56896 L4549648,56896 L4567936,245872 L4567936,245872 L4588256,168656 L4588256,168656 L4606544,286512 L4606544,286512 L4626864,489712 L4626864,489712 L4645152,355600 L4645152,355600 L4663440,676656 L4663440,676656 L4683760,455168 L4683760,455168 L4702048,794512 L4702048,794512 L4722368,739648 L4722368,739648 L4740656,967232 L4740656,967232 L4758944,1471168 L4758944,1471168 L4777232,1339088 L4777232,1339088 L4797552,1658112 L4797552,1658112 L4815840,1623568 L4815840,1623568 L4834128,1859280 L4834128,1859280 L4854448,1611376 L4854448,1611376 L4872736,1893824 L4872736,1893824 L4893056,1810512 L4893056,1810512 L4911344,1804416 L4911344,1804416 L4929632,1456944 L4929632,1456944 L4949952,1406144 L4949952,1406144 L4970272,1284224 L4970272,1284224 L4986528,1475232 L4986528,1475232 L5006848,1446784 L5006848,1446784 L5025136,1643888 L5025136,1643888 L5043424,1391920 L5043424,1391920 L5063744,1424432 L5063744,1424432 L5082032,1280160 L5082032,1280160 L5102352,1225296 L5102352,1225296 L5120640,1318768 L5120640,1318768 L5140960,1038352 L5140960,1038352 L5159248,849376 L5159248,849376 L5177536,1026160 L5177536,1026160 L5197856,745744 L5197856,745744 L5216144,621792 L5216144,621792 L5234432,684784 L5234432,684784 L5254752,660400 L5254752,660400 L5273040,554736 L5273040,554736 L5291328,597408 L5291328,597408 L5311648,975360 L5311648,975360 L5329936,1070864 L5329936,1070864 L5350256,668528 L5350256,668528 L5368544,887984 L5368544,887984 L5386832,487680 L5386832,487680 L5407152,674624 L5407152,674624 L5425440,512064 L5425440,512064 L5443728,967232 L5443728,967232 L5464048,1578864 L5464048,1578864 L5482336,1393952 L5482336,1393952 L5500624,1184656 L5500624,1184656 L5520944,768096 L5520944,768096 L5539232,985520 L5539232,985520 L5559552,887984 L5559552,887984 L5577840,564896 L5577840,564896 L5596128,642112 L5596128,642112 L5616448,467360 L5616448,467360 L5634736,203200 " stroke-width="33866.67" stroke-linecap="round" stroke-linejoin="round" stroke-miterlimit="13.33333" stroke="#012169" fill="none" fill-rule="nonzero" /></g></g><g><g clip-path="url(#clip007)"><g><g transform="translate(16.66667,1545.214)"><text><tspan x="0" y="0" font-family="Connections Cond Light,Arial Narrow" font-weight="normal" font-style="normal" font-size="105.3333" fill="#000000">-70</tspan></text></g></g></g></g><g><g clip-path="url(#clip008)"><g><g transform="translate(16.66667,1399.709)"><text><tspan x="0" y="0" font-family="Connections Cond Light,Arial Narrow" font-weight="normal" font-style="normal" font-size="105.3333" fill="#000000">-60</tspan></text></g></g></g></g><g><g clip-path="url(#clip009)"><g><g transform="translate(16.66667,1254.205)"><text><tspan x="0" y="0" font-family="Connections Cond Light,Arial Narrow" font-weight="normal" font-style="normal" font-size="105.3333" fill="#000000">-50</tspan></text></g></g></g></g><g><g clip-path="url(#clip010)"><g><g transform="translate(16.66667,1108.7)"><text><tspan x="0" y="0" font-family="Connections Cond Light,Arial Narrow" font-weight="normal" font-style="normal" font-size="105.3333" fill="#000000">-40</tspan></text></g></g></g></g><g><g clip-path="url(#clip011)"><g><g transform="translate(16.66667,963.1951)"><text><tspan x="0" y="0" font-family="Connections Cond Light,Arial Narrow" font-weight="normal" font-style="normal" font-size="105.3333" fill="#000000">-30</tspan></text></g></g></g></g><g><g clip-path="url(#clip012)"><g><g transform="translate(16.66667,817.6895)"><text><tspan x="0" y="0" font-family="Connections Cond Light,Arial Narrow" font-weight="normal" font-style="normal" font-size="105.3333" fill="#000000">-20</tspan></text></g></g></g></g><g><g clip-path="url(#clip013)"><g><g transform="translate(16.66667,672.1846)"><text><tspan x="0" y="0" font-family="Connections Cond Light,Arial Narrow" font-weight="normal" font-style="normal" font-size="105.3333" fill="#000000">-10</tspan></text></g></g></g></g><g><g clip-path="url(#clip014)"><g><g transform="translate(96.88889,526.6798)"><text><tspan x="0" y="0" font-family="Connections Cond Light,Arial Narrow" font-weight="normal" font-style="normal" font-size="105.3333" fill="#000000">0</tspan></text></g></g></g></g><g><g clip-path="url(#clip015)"><g><g transform="translate(46.22223,381.175)"><text><tspan x="0" y="0" font-family="Connections Cond Light,Arial Narrow" font-weight="normal" font-style="normal" font-size="105.3333" fill="#000000">10</tspan></text></g></g></g></g><g><g clip-path="url(#clip016)"><g><g transform="translate(46.22223,235.6702)"><text><tspan x="0" y="0" font-family="Connections Cond Light,Arial Narrow" font-weight="normal" font-style="normal" font-size="105.3333" fill="#000000">20</tspan></text></g></g></g></g><g><g clip-path="url(#clip017)"><g><g transform="translate(46.22223,90.16535)"><text><tspan x="0" y="0" font-family="Connections Cond Light,Arial Narrow" font-weight="normal" font-style="normal" font-size="105.3333" fill="#000000">30</tspan></text></g></g></g></g><g><g clip-path="url(#clip018)"><g><g transform="translate(180.0936,1671.464)"><text><tspan x="0" y="0" font-family="Connections Cond Light,Arial Narrow" font-weight="normal" font-style="normal" font-size="105.3333" fill="#000000">'02</tspan></text></g></g></g></g><g><g clip-path="url(#clip019)"><g><g transform="translate(479.6002,1671.464)"><text><tspan x="0" y="0" font-family="Connections Cond Light,Arial Narrow" font-weight="normal" font-style="normal" font-size="105.3333" fill="#000000">'04</tspan></text></g></g></g></g><g><g clip-path="url(#clip020)"><g><g transform="translate(779.5162,1671.464)"><text><tspan x="0" y="0" font-family="Connections Cond Light,Arial Narrow" font-weight="normal" font-style="normal" font-size="105.3333" fill="#000000">'06</tspan></text></g></g></g></g><g><g clip-path="url(#clip021)"><g><g transform="translate(1079.022,1671.464)"><text><tspan x="0" y="0" font-family="Connections Cond Light,Arial Narrow" font-weight="normal" font-style="normal" font-size="105.3333" fill="#000000">'08</tspan></text></g></g></g></g><g><g clip-path="url(#clip022)"><g><g transform="translate(1378.938,1671.464)"><text><tspan x="0" y="0" font-family="Connections Cond Light,Arial Narrow" font-weight="normal" font-style="normal" font-size="105.3333" fill="#000000">'10</tspan></text></g></g></g></g><g><g clip-path="url(#clip023)"><g><g transform="translate(1678.444,1671.464)"><text><tspan x="0" y="0" font-family="Connections Cond Light,Arial Narrow" font-weight="normal" font-style="normal" font-size="105.3333" fill="#000000">'12</tspan></text></g></g></g></g><g><g clip-path="url(#clip024)"><g><g transform="translate(1978.36,1671.464)"><text><tspan x="0" y="0" font-family="Connections Cond Light,Arial Narrow" font-weight="normal" font-style="normal" font-size="105.3333" fill="#000000">'14</tspan></text></g></g></g></g><g><g clip-path="url(#clip025)"><g><g transform="translate(2277.866,1671.464)"><text><tspan x="0" y="0" font-family="Connections Cond Light,Arial Narrow" font-weight="normal" font-style="normal" font-size="105.3333" fill="#000000">'16</tspan></text></g></g></g></g><g><g clip-path="url(#clip026)"><g><g transform="translate(2577.782,1671.464)"><text><tspan x="0" y="0" font-family="Connections Cond Light,Arial Narrow" font-weight="normal" font-style="normal" font-size="105.3333" fill="#000000">'18</tspan></text></g></g></g></g><g><g clip-path="url(#clip027)"><g><g transform="translate(2877.288,1671.464)"><text><tspan x="0" y="0" font-family="Connections Cond Light,Arial Narrow" font-weight="normal" font-style="normal" font-size="105.3333" fill="#000000">'20</tspan></text></g></g></g></g><g><g clip-path="url(#clip028)"><g><g transform="translate(3177.205,1671.464)"><text><tspan x="0" y="0" font-family="Connections Cond Light,Arial Narrow" font-weight="normal" font-style="normal" font-size="105.3333" fill="#000000">'22</tspan></text></g></g></g></g><g><g clip-path="url(#clip029)"><g><g transform="translate(3476.71,1671.464)"><text><tspan x="0" y="0" font-family="Connections Cond Light,Arial Narrow" font-weight="normal" font-style="normal" font-size="105.3333" fill="#000000">'24</tspan></text></g></g></g></g><g><g clip-path="url(#clip030)"><g><g transform="translate(3776.626,1671.464)"><text><tspan x="0" y="0" font-family="Connections Cond Light,Arial Narrow" font-weight="normal" font-style="normal" font-size="105.3333" fill="#000000">'26</tspan></text></g></g></g></g><g clip-path="url(#clip031)"><g transform="matrix(0.000656168,0,0,0.000656168,0,41.33333)"><path d="M0,0 L6089904,0 L6089904,254000 L0,254000 Z" fill="#4f81bd" fill-opacity="0" fill-rule="evenodd" /></g></g><g clip-path="url(#clip032)"><g transform="matrix(0.000656168,0,0,0.000656168,1036.667,124.6667)"><path d="M0,0 L325120,1.333333 " stroke-width="33866.67" stroke-linecap="round" stroke-linejoin="round" stroke-miterlimit="13.33333" stroke="#012169" fill="none" fill-rule="evenodd" /></g></g><g><g clip-path="url(#clip033)"><g><g transform="translate(1271.911,154.056)"><text><tspan x="0" y="0" font-family="Connections Cond Light,Arial Narrow" font-weight="normal" font-style="normal" font-size="105.3333" fill="#000000">Net % Taking Higher than Normal Risk Levels</tspan></text></g></g></g></g></g></g></g></g></g></g></svg>