<?xml version="1.0" encoding="UTF-8" standalone="no"?>
<svg xmlns:dc="http://purl.org/dc/elements/1.1/" xmlns:cc="http://creativecommons.org/ns#" xmlns:rdf="http://www.w3.org/1999/02/22-rdf-syntax-ns#" xmlns:svg="http://www.w3.org/2000/svg" xmlns="http://www.w3.org/2000/svg" viewBox="63.1025 314.0125 638.8975 361.8875" height="361.8875" width="638.8975" xml:space="preserve" version="1.1" id="svg2">
  <metadata id="metadata8">
    <rdf:RDF>
      <cc:Work rdf:about="">
        <dc:format>image/svg+xml</dc:format>
        <dc:type rdf:resource="http://purl.org/dc/dcmitype/StillImage"/>
      </cc:Work>
    </rdf:RDF>
  </metadata>
  <defs id="defs6">
    <clipPath id="clipPath16" clipPathUnits="userSpaceOnUse">
      <path style="clip-rule:evenodd" id="path18" d="m 50.4,251.28 511.2,0 0,289.56 -511.2,0 0,-289.56 z"/>
    </clipPath>
    <clipPath id="clipPath26" clipPathUnits="userSpaceOnUse">
      <path style="clip-rule:evenodd" id="path28" d="m 50.4,251.28 511.2,0 0,289.56 -511.2,0 0,-289.56 z"/>
    </clipPath>
    <clipPath id="clipPath50" clipPathUnits="userSpaceOnUse">
      <path style="clip-rule:evenodd" id="path52" d="m 50.439,251.37 511.16,0 0,289.35 -511.16,0 0,-289.35 z"/>
    </clipPath>
    <clipPath id="clipPath60" clipPathUnits="userSpaceOnUse">
      <path style="clip-rule:evenodd" id="path62" d="m 50.52,251.28 511.08,0 0,289.44 -511.08,0 0,-289.44 z"/>
    </clipPath>
    <clipPath id="clipPath72" clipPathUnits="userSpaceOnUse">
      <path style="clip-rule:evenodd" id="path74" d="m 50.52,251.28 511.08,0 0,289.44 -511.08,0 0,-289.44 z"/>
    </clipPath>
    <clipPath id="clipPath84" clipPathUnits="userSpaceOnUse">
      <path style="clip-rule:evenodd" id="path86" d="m 50.52,251.28 511.08,0 0,289.44 -511.08,0 0,-289.44 z"/>
    </clipPath>
    <clipPath id="clipPath96" clipPathUnits="userSpaceOnUse">
      <path style="clip-rule:evenodd" id="path98" d="m 50.52,251.28 511.08,0 0,289.44 -511.08,0 0,-289.44 z"/>
    </clipPath>
    <clipPath id="clipPath108" clipPathUnits="userSpaceOnUse">
      <path style="clip-rule:evenodd" id="path110" d="m 50.52,251.28 511.08,0 0,289.44 -511.08,0 0,-289.44 z"/>
    </clipPath>
    <clipPath id="clipPath120" clipPathUnits="userSpaceOnUse">
      <path style="clip-rule:evenodd" id="path122" d="m 50.52,251.28 511.08,0 0,289.44 -511.08,0 0,-289.44 z"/>
    </clipPath>
    <clipPath id="clipPath132" clipPathUnits="userSpaceOnUse">
      <path style="clip-rule:evenodd" id="path134" d="m 50.52,251.28 511.08,0 0,289.44 -511.08,0 0,-289.44 z"/>
    </clipPath>
    <clipPath id="clipPath144" clipPathUnits="userSpaceOnUse">
      <path style="clip-rule:evenodd" id="path146" d="m 50.52,251.28 511.08,0 0,289.44 -511.08,0 0,-289.44 z"/>
    </clipPath>
    <clipPath id="clipPath156" clipPathUnits="userSpaceOnUse">
      <path style="clip-rule:evenodd" id="path158" d="m 50.52,251.28 511.08,0 0,289.44 -511.08,0 0,-289.44 z"/>
    </clipPath>
    <clipPath id="clipPath168" clipPathUnits="userSpaceOnUse">
      <path style="clip-rule:evenodd" id="path170" d="m 50.52,251.28 511.08,0 0,289.44 -511.08,0 0,-289.44 z"/>
    </clipPath>
    <clipPath id="clipPath180" clipPathUnits="userSpaceOnUse">
      <path style="clip-rule:evenodd" id="path182" d="m 50.52,251.28 511.08,0 0,289.44 -511.08,0 0,-289.44 z"/>
    </clipPath>
    <clipPath id="clipPath192" clipPathUnits="userSpaceOnUse">
      <path style="clip-rule:evenodd" id="path194" d="m 50.52,251.28 511.08,0 0,289.44 -511.08,0 0,-289.44 z"/>
    </clipPath>
    <clipPath id="clipPath204" clipPathUnits="userSpaceOnUse">
      <path style="clip-rule:evenodd" id="path206" d="m 50.52,251.28 511.08,0 0,289.44 -511.08,0 0,-289.44 z"/>
    </clipPath>
    <clipPath id="clipPath216" clipPathUnits="userSpaceOnUse">
      <path style="clip-rule:evenodd" id="path218" d="m 50.52,251.28 511.08,0 0,289.44 -511.08,0 0,-289.44 z"/>
    </clipPath>
    <clipPath id="clipPath228" clipPathUnits="userSpaceOnUse">
      <path style="clip-rule:evenodd" id="path230" d="m 50.52,251.28 511.08,0 0,289.44 -511.08,0 0,-289.44 z"/>
    </clipPath>
    <clipPath id="clipPath240" clipPathUnits="userSpaceOnUse">
      <path style="clip-rule:evenodd" id="path242" d="m 50.52,251.28 511.08,0 0,289.44 -511.08,0 0,-289.44 z"/>
    </clipPath>
    <clipPath id="clipPath252" clipPathUnits="userSpaceOnUse">
      <path style="clip-rule:evenodd" id="path254" d="m 50.52,251.28 511.08,0 0,289.44 -511.08,0 0,-289.44 z"/>
    </clipPath>
    <clipPath id="clipPath264" clipPathUnits="userSpaceOnUse">
      <path style="clip-rule:evenodd" id="path266" d="m 50.52,251.28 511.08,0 0,289.44 -511.08,0 0,-289.44 z"/>
    </clipPath>
    <clipPath id="clipPath276" clipPathUnits="userSpaceOnUse">
      <path style="clip-rule:evenodd" id="path278" d="m 50.52,251.28 511.08,0 0,289.44 -511.08,0 0,-289.44 z"/>
    </clipPath>
    <clipPath id="clipPath288" clipPathUnits="userSpaceOnUse">
      <path style="clip-rule:evenodd" id="path290" d="m 50.52,251.28 511.08,0 0,289.44 -511.08,0 0,-289.44 z"/>
    </clipPath>
    <clipPath id="clipPath300" clipPathUnits="userSpaceOnUse">
      <path style="clip-rule:evenodd" id="path302" d="m 50.52,251.28 511.08,0 0,289.44 -511.08,0 0,-289.44 z"/>
    </clipPath>
    <clipPath id="clipPath312" clipPathUnits="userSpaceOnUse">
      <path style="clip-rule:evenodd" id="path314" d="m 50.52,251.28 511.08,0 0,289.44 -511.08,0 0,-289.44 z"/>
    </clipPath>
    <clipPath id="clipPath324" clipPathUnits="userSpaceOnUse">
      <path style="clip-rule:evenodd" id="path326" d="m 50.52,251.28 511.08,0 0,289.44 -511.08,0 0,-289.44 z"/>
    </clipPath>
    <clipPath id="clipPath336" clipPathUnits="userSpaceOnUse">
      <path style="clip-rule:evenodd" id="path338" d="m 50.52,251.28 511.08,0 0,289.44 -511.08,0 0,-289.44 z"/>
    </clipPath>
    <clipPath id="clipPath348" clipPathUnits="userSpaceOnUse">
      <path style="clip-rule:evenodd" id="path350" d="m 50.52,251.28 511.08,0 0,289.44 -511.08,0 0,-289.44 z"/>
    </clipPath>
    <clipPath id="clipPath360" clipPathUnits="userSpaceOnUse">
      <path style="clip-rule:evenodd" id="path362" d="m 50.52,251.28 511.08,0 0,289.44 -511.08,0 0,-289.44 z"/>
    </clipPath>
    <clipPath id="clipPath372" clipPathUnits="userSpaceOnUse">
      <path style="clip-rule:evenodd" id="path374" d="m 50.52,251.28 511.08,0 0,289.44 -511.08,0 0,-289.44 z"/>
    </clipPath>
    <clipPath id="clipPath384" clipPathUnits="userSpaceOnUse">
      <path style="clip-rule:evenodd" id="path386" d="m 50.52,251.28 511.08,0 0,289.44 -511.08,0 0,-289.44 z"/>
    </clipPath>
    <clipPath id="clipPath396" clipPathUnits="userSpaceOnUse">
      <path style="clip-rule:evenodd" id="path398" d="m 50.52,251.28 511.08,0 0,289.44 -511.08,0 0,-289.44 z"/>
    </clipPath>
    <clipPath id="clipPath408" clipPathUnits="userSpaceOnUse">
      <path style="clip-rule:evenodd" id="path410" d="m 50.52,251.28 511.08,0 0,289.44 -511.08,0 0,-289.44 z"/>
    </clipPath>
    <clipPath id="clipPath420" clipPathUnits="userSpaceOnUse">
      <path style="clip-rule:evenodd" id="path422" d="m 50.52,251.28 511.08,0 0,289.44 -511.08,0 0,-289.44 z"/>
    </clipPath>
    <clipPath id="clipPath432" clipPathUnits="userSpaceOnUse">
      <path style="clip-rule:evenodd" id="path434" d="m 50.52,251.28 511.08,0 0,289.44 -511.08,0 0,-289.44 z"/>
    </clipPath>
    <clipPath id="clipPath444" clipPathUnits="userSpaceOnUse">
      <path style="clip-rule:evenodd" id="path446" d="m 50.52,251.28 511.08,0 0,289.44 -511.08,0 0,-289.44 z"/>
    </clipPath>
    <clipPath id="clipPath456" clipPathUnits="userSpaceOnUse">
      <path style="clip-rule:evenodd" id="path458" d="m 50.52,251.28 511.08,0 0,289.44 -511.08,0 0,-289.44 z"/>
    </clipPath>
    <clipPath id="clipPath468" clipPathUnits="userSpaceOnUse">
      <path style="clip-rule:evenodd" id="path470" d="m 50.52,251.28 511.08,0 0,289.44 -511.08,0 0,-289.44 z"/>
    </clipPath>
    <clipPath id="clipPath480" clipPathUnits="userSpaceOnUse">
      <path style="clip-rule:evenodd" id="path482" d="m 50.52,251.28 511.08,0 0,289.44 -511.08,0 0,-289.44 z"/>
    </clipPath>
    <clipPath id="clipPath492" clipPathUnits="userSpaceOnUse">
      <path style="clip-rule:evenodd" id="path494" d="m 50.52,251.28 511.08,0 0,289.44 -511.08,0 0,-289.44 z"/>
    </clipPath>
    <clipPath id="clipPath504" clipPathUnits="userSpaceOnUse">
      <path style="clip-rule:evenodd" id="path506" d="m 50.52,251.28 511.08,0 0,289.44 -511.08,0 0,-289.44 z"/>
    </clipPath>
    <clipPath id="clipPath516" clipPathUnits="userSpaceOnUse">
      <path style="clip-rule:evenodd" id="path518" d="m 50.52,251.28 511.08,0 0,289.44 -511.08,0 0,-289.44 z"/>
    </clipPath>
    <clipPath id="clipPath528" clipPathUnits="userSpaceOnUse">
      <path style="clip-rule:evenodd" id="path530" d="m 50.52,251.28 511.08,0 0,289.44 -511.08,0 0,-289.44 z"/>
    </clipPath>
    <clipPath id="clipPath540" clipPathUnits="userSpaceOnUse">
      <path style="clip-rule:evenodd" id="path542" d="m 50.52,251.28 511.08,0 0,289.44 -511.08,0 0,-289.44 z"/>
    </clipPath>
    <clipPath id="clipPath552" clipPathUnits="userSpaceOnUse">
      <path style="clip-rule:evenodd" id="path554" d="m 50.52,251.28 511.08,0 0,289.44 -511.08,0 0,-289.44 z"/>
    </clipPath>
    <clipPath id="clipPath564" clipPathUnits="userSpaceOnUse">
      <path style="clip-rule:evenodd" id="path566" d="m 50.52,251.28 511.08,0 0,289.44 -511.08,0 0,-289.44 z"/>
    </clipPath>
    <clipPath id="clipPath576" clipPathUnits="userSpaceOnUse">
      <path style="clip-rule:evenodd" id="path578" d="m 50.52,251.28 511.08,0 0,289.44 -511.08,0 0,-289.44 z"/>
    </clipPath>
    <clipPath id="clipPath588" clipPathUnits="userSpaceOnUse">
      <path style="clip-rule:evenodd" id="path590" d="m 50.52,251.28 511.08,0 0,289.44 -511.08,0 0,-289.44 z"/>
    </clipPath>
    <clipPath id="clipPath600" clipPathUnits="userSpaceOnUse">
      <path style="clip-rule:evenodd" id="path602" d="m 50.52,251.28 511.08,0 0,289.44 -511.08,0 0,-289.44 z"/>
    </clipPath>
    <clipPath id="clipPath612" clipPathUnits="userSpaceOnUse">
      <path style="clip-rule:evenodd" id="path614" d="m 50.52,251.28 511.08,0 0,289.44 -511.08,0 0,-289.44 z"/>
    </clipPath>
    <clipPath id="clipPath624" clipPathUnits="userSpaceOnUse">
      <path style="clip-rule:evenodd" id="path626" d="m 50.52,251.28 511.08,0 0,289.44 -511.08,0 0,-289.44 z"/>
    </clipPath>
    <clipPath id="clipPath636" clipPathUnits="userSpaceOnUse">
      <path style="clip-rule:evenodd" id="path638" d="m 50.52,251.28 511.08,0 0,289.44 -511.08,0 0,-289.44 z"/>
    </clipPath>
    <clipPath id="clipPath648" clipPathUnits="userSpaceOnUse">
      <path style="clip-rule:evenodd" id="path650" d="m 50.52,251.28 511.08,0 0,289.44 -511.08,0 0,-289.44 z"/>
    </clipPath>
    <clipPath id="clipPath660" clipPathUnits="userSpaceOnUse">
      <path style="clip-rule:evenodd" id="path662" d="m 50.52,251.28 511.08,0 0,289.44 -511.08,0 0,-289.44 z"/>
    </clipPath>
    <clipPath id="clipPath672" clipPathUnits="userSpaceOnUse">
      <path style="clip-rule:evenodd" id="path674" d="m 50.52,251.28 511.08,0 0,289.44 -511.08,0 0,-289.44 z"/>
    </clipPath>
    <clipPath id="clipPath688" clipPathUnits="userSpaceOnUse">
      <path style="clip-rule:evenodd" id="path690" d="m 50.52,251.28 511.08,0 0,289.44 -511.08,0 0,-289.44 z"/>
    </clipPath>
    <clipPath id="clipPath702" clipPathUnits="userSpaceOnUse">
      <path style="clip-rule:evenodd" id="path704" d="m 50.52,251.28 511.08,0 0,289.44 -511.08,0 0,-289.44 z"/>
    </clipPath>
    <clipPath id="clipPath716" clipPathUnits="userSpaceOnUse">
      <path style="clip-rule:evenodd" id="path718" d="m 50.52,251.28 511.08,0 0,289.44 -511.08,0 0,-289.44 z"/>
    </clipPath>
    <clipPath id="clipPath730" clipPathUnits="userSpaceOnUse">
      <path style="clip-rule:evenodd" id="path732" d="m 50.52,251.28 511.08,0 0,289.44 -511.08,0 0,-289.44 z"/>
    </clipPath>
    <clipPath id="clipPath744" clipPathUnits="userSpaceOnUse">
      <path style="clip-rule:evenodd" id="path746" d="m 50.52,251.28 511.08,0 0,289.44 -511.08,0 0,-289.44 z"/>
    </clipPath>
    <clipPath id="clipPath758" clipPathUnits="userSpaceOnUse">
      <path style="clip-rule:evenodd" id="path760" d="m 50.52,251.28 511.08,0 0,289.44 -511.08,0 0,-289.44 z"/>
    </clipPath>
    <clipPath id="clipPath772" clipPathUnits="userSpaceOnUse">
      <path style="clip-rule:evenodd" id="path774" d="m 50.52,251.28 511.08,0 0,289.44 -511.08,0 0,-289.44 z"/>
    </clipPath>
  </defs>
  <g transform="matrix(1.25,0,0,-1.25,0,990)" id="g10">
    <g id="g12">
      <g clip-path="url(#clipPath16)" id="g14">
        <path id="path20" style="fill:none;stroke:#000000;stroke-width:0.14;stroke-linecap:butt;stroke-linejoin:miter;stroke-miterlimit:10;stroke-dasharray:none;stroke-opacity:0" d="m 50.552,251.32 511.09,0 0,289.4 -511.09,0 0,-289.4 z"/>
      </g>
    </g>
    <g id="g22">
      <g clip-path="url(#clipPath26)" id="g24">
        <path id="path30" style="fill:#ffffff;fill-opacity:1;fill-rule:evenodd;stroke:none" d="m 50.552,251.32 511.09,0 0,289.4 -511.09,0 0,-289.4 z"/>
      </g>
    </g>
    <path id="path32" style="fill:#005aa4;fill-opacity:1;fill-rule:nonzero;stroke:none" d="m 126.2,315.7 37.03,0 0,-13.81 -37.03,0 0,13.81 z m 92.64,6.79 37.03,0 0,-20.6 -37.03,0 0,20.6 z m 92.64,3.06 37.14,0 0,-23.66 -37.14,0 0,23.66 z m 92.63,1.81 37.15,0 0,-25.47 -37.15,0 0,25.47 z m 92.64,3.97 37.14,0 0,-29.44 -37.14,0 0,29.44 z"/>
    <path id="path34" style="fill:#226b5a;fill-opacity:1;fill-rule:nonzero;stroke:none" d="m 126.2,323.85 37.03,0 0,-8.15 -37.03,0 0,8.15 z m 92.64,6 37.03,0 0,-7.36 -37.03,0 0,7.36 z m 92.64,6.69 37.14,0 0,-10.99 -37.14,0 0,10.99 z m 92.63,4.19 37.15,0 0,-13.37 -37.15,0 0,13.37 z m 92.64,5.09 37.14,0 0,-14.49 -37.14,0 0,14.49 z"/>
    <path id="path36" style="fill:#eadfbc;fill-opacity:1;fill-rule:nonzero;stroke:none" d="m 126.2,412.07 37.03,0 0,-88.22 -37.03,0 0,88.22 z m 92.64,9.97 37.03,0 0,-92.19 -37.03,0 0,92.19 z m 92.64,7.7 37.14,0 0,-93.2 -37.14,0 0,93.2 z m 92.63,13.36 37.15,0 0,-102.37 -37.15,0 0,102.37 z m 92.64,8.5 37.14,0 0,-105.78 -37.14,0 0,105.78 z"/>
    <path id="path38" style="fill:#d0b86a;fill-opacity:1;fill-rule:nonzero;stroke:none" d="m 126.2,448.42 37.03,0 0,-36.35 -37.03,0 0,36.35 z m 92.64,2.72 37.03,0 0,-29.1 -37.03,0 0,29.1 z m 92.64,6.8 37.14,0 0,-28.2 -37.14,0 0,28.2 z m 92.63,7.02 37.15,0 0,-21.86 -37.15,0 0,21.86 z m 92.64,6.23 37.14,0 0,-19.59 -37.14,0 0,19.59 z"/>
    <path id="path40" style="fill:#93decc;fill-opacity:1;fill-rule:nonzero;stroke:none" d="m 126.2,478.44 37.03,0 0,-30.02 -37.03,0 0,30.02 z m 92.64,1.58 37.03,0 0,-28.88 -37.03,0 0,28.88 z m 92.64,1.81 37.14,0 0,-23.89 -37.14,0 0,23.89 z m 92.63,3.06 37.15,0 0,-19.93 -37.15,0 0,19.93 z m 92.64,1.7 37.14,0 0,-15.4 -37.14,0 0,15.4 z"/>
    <path id="path42" style="fill:#8cd5f2;fill-opacity:1;fill-rule:nonzero;stroke:none" d="m 126.2,500.07 37.03,0 0,-21.63 -37.03,0 0,21.63 z m 92.64,1.01 37.03,0 0,-21.06 -37.03,0 0,21.06 z m 92.64,-1.13 37.14,0 0,-18.12 -37.14,0 0,18.12 z m 92.63,0.8 37.15,0 0,-15.86 -37.15,0 0,15.86 z m 92.64,0.67 37.14,0 0,-14.83 -37.14,0 0,14.83 z"/>
    <path id="path44" style="fill:#6769e2;fill-opacity:1;fill-rule:nonzero;stroke:none" d="m 126.2,505.18 37.03,0 0,-5.11 -37.03,0 0,5.11 z m 92.64,0 37.03,0 0,-4.1 -37.03,0 0,4.1 z m 92.64,0 37.14,0 0,-5.23 -37.14,0 0,5.23 z m 92.63,0 37.15,0 0,-4.43 -37.15,0 0,4.43 z m 92.64,0 37.14,0 0,-3.76 -37.14,0 0,3.76 z"/>
    <g id="g46">
      <g clip-path="url(#clipPath50)" id="g48">
        <path id="path54" style="fill:none;stroke:#808080;stroke-width:1.17970002;stroke-linecap:round;stroke-linejoin:round;stroke-miterlimit:10;stroke-dasharray:none;stroke-opacity:1" d="m 98.435,301.89 463.205,0"/>
      </g>
    </g>
    <g id="g56">
      <g clip-path="url(#clipPath60)" id="g58"><text id="text64" style="font-variant:normal;font-weight:normal;font-size:8.49600029px;font-family:'Roboto Condensed';-inkscape-font-specification:RobotoCondensed-Regular;writing-mode:lr-tb;fill:#ffffff;fill-opacity:1;fill-rule:nonzero;stroke:none" transform="matrix(1,0,0,-1,139.99,305.78)"><tspan id="tspan66" y="0" x="0 4.2000041">7%</tspan></text>
</g>
    </g>
    <g id="g68">
      <g clip-path="url(#clipPath72)" id="g70"><text id="text76" style="font-variant:normal;font-weight:normal;font-size:8.49600029px;font-family:'Roboto Condensed';-inkscape-font-specification:RobotoCondensed-Regular;writing-mode:lr-tb;fill:#ffffff;fill-opacity:1;fill-rule:nonzero;stroke:none" transform="matrix(1,0,0,-1,230.62,309.19)"><tspan id="tspan78" y="0" x="0 4.2000041 8.4000082">10%</tspan></text>
</g>
    </g>
    <g id="g80">
      <g clip-path="url(#clipPath84)" id="g82"><text id="text88" style="font-variant:normal;font-weight:normal;font-size:8.49600029px;font-family:'Roboto Condensed';-inkscape-font-specification:RobotoCondensed-Regular;writing-mode:lr-tb;fill:#ffffff;fill-opacity:1;fill-rule:nonzero;stroke:none" transform="matrix(1,0,0,-1,323.28,310.73)"><tspan id="tspan90" y="0" x="0 4.176024 8.3520479">12%</tspan></text>
</g>
    </g>
    <g id="g92">
      <g clip-path="url(#clipPath96)" id="g94"><text id="text100" style="font-variant:normal;font-weight:normal;font-size:8.49600029px;font-family:'Roboto Condensed';-inkscape-font-specification:RobotoCondensed-Regular;writing-mode:lr-tb;fill:#ffffff;fill-opacity:1;fill-rule:nonzero;stroke:none" transform="matrix(1,0,0,-1,415.92,311.62)"><tspan id="tspan102" y="0" x="0 4.2000041 8.4000082">13%</tspan></text>
</g>
    </g>
    <g id="g104">
      <g clip-path="url(#clipPath108)" id="g106"><text id="text112" style="font-variant:normal;font-weight:normal;font-size:8.49600029px;font-family:'Roboto Condensed';-inkscape-font-specification:RobotoCondensed-Regular;writing-mode:lr-tb;fill:#ffffff;fill-opacity:1;fill-rule:nonzero;stroke:none" transform="matrix(1,0,0,-1,508.58,313.56)"><tspan id="tspan114" y="0" x="0 4.2000041 8.4000082">14%</tspan></text>
</g>
    </g>
    <g id="g116">
      <g clip-path="url(#clipPath120)" id="g118"><text id="text124" style="font-variant:normal;font-weight:normal;font-size:8.49600029px;font-family:'Roboto Condensed';-inkscape-font-specification:RobotoCondensed-Regular;writing-mode:lr-tb;fill:#ffffff;fill-opacity:1;fill-rule:nonzero;stroke:none" transform="matrix(1,0,0,-1,139.99,316.75)"><tspan id="tspan126" y="0" x="0 4.2000041">4%</tspan></text>
</g>
    </g>
    <g id="g128">
      <g clip-path="url(#clipPath132)" id="g130"><text id="text136" style="font-variant:normal;font-weight:normal;font-size:8.49600029px;font-family:'Roboto Condensed';-inkscape-font-specification:RobotoCondensed-Regular;writing-mode:lr-tb;fill:#ffffff;fill-opacity:1;fill-rule:nonzero;stroke:none" transform="matrix(1,0,0,-1,232.66,323.18)"><tspan id="tspan138" y="0" x="0 4.176024">4%</tspan></text>
</g>
    </g>
    <g id="g140">
      <g clip-path="url(#clipPath144)" id="g142"><text id="text148" style="font-variant:normal;font-weight:normal;font-size:8.49600029px;font-family:'Roboto Condensed';-inkscape-font-specification:RobotoCondensed-Regular;writing-mode:lr-tb;fill:#ffffff;fill-opacity:1;fill-rule:nonzero;stroke:none" transform="matrix(1,0,0,-1,325.32,328.06)"><tspan id="tspan150" y="0" x="0 4.176024">5%</tspan></text>
</g>
    </g>
    <g id="g152">
      <g clip-path="url(#clipPath156)" id="g154"><text id="text160" style="font-variant:normal;font-weight:normal;font-size:8.49600029px;font-family:'Roboto Condensed';-inkscape-font-specification:RobotoCondensed-Regular;writing-mode:lr-tb;fill:#ffffff;fill-opacity:1;fill-rule:nonzero;stroke:none" transform="matrix(1,0,0,-1,417.96,331.06)"><tspan id="tspan162" y="0" x="0 4.2000041">7%</tspan></text>
</g>
    </g>
    <g id="g164">
      <g clip-path="url(#clipPath168)" id="g166"><text id="text172" style="font-variant:normal;font-weight:normal;font-size:8.49600029px;font-family:'Roboto Condensed';-inkscape-font-specification:RobotoCondensed-Regular;writing-mode:lr-tb;fill:#ffffff;fill-opacity:1;fill-rule:nonzero;stroke:none" transform="matrix(1,0,0,-1,510.62,335.52)"><tspan id="tspan174" y="0" x="0 4.2000041">7%</tspan></text>
</g>
    </g>
    <g id="g176">
      <g clip-path="url(#clipPath180)" id="g178"><text id="text184" style="font-variant:normal;font-weight:normal;font-size:8.49600029px;font-family:'Roboto Condensed';-inkscape-font-specification:RobotoCondensed-Regular;writing-mode:lr-tb;fill:#000000;fill-opacity:1;fill-rule:nonzero;stroke:none" transform="matrix(1,0,0,-1,137.95,364.94)"><tspan id="tspan186" y="0" x="0 4.2000041 8.4000082">43%</tspan></text>
</g>
    </g>
    <g id="g188">
      <g clip-path="url(#clipPath192)" id="g190"><text id="text196" style="font-variant:normal;font-weight:normal;font-size:8.49600029px;font-family:'Roboto Condensed';-inkscape-font-specification:RobotoCondensed-Regular;writing-mode:lr-tb;fill:#000000;fill-opacity:1;fill-rule:nonzero;stroke:none" transform="matrix(1,0,0,-1,230.62,372.94)"><tspan id="tspan198" y="0" x="0 4.2000041 8.4000082">45%</tspan></text>
</g>
    </g>
    <g id="g200">
      <g clip-path="url(#clipPath204)" id="g202"><text id="text208" style="font-variant:normal;font-weight:normal;font-size:8.49600029px;font-family:'Roboto Condensed';-inkscape-font-specification:RobotoCondensed-Regular;writing-mode:lr-tb;fill:#000000;fill-opacity:1;fill-rule:nonzero;stroke:none" transform="matrix(1,0,0,-1,323.28,380.14)"><tspan id="tspan210" y="0" x="0 4.176024 8.3520479">46%</tspan></text>
</g>
    </g>
    <g id="g212">
      <g clip-path="url(#clipPath216)" id="g214"><text id="text220" style="font-variant:normal;font-weight:normal;font-size:8.49600029px;font-family:'Roboto Condensed';-inkscape-font-specification:RobotoCondensed-Regular;writing-mode:lr-tb;fill:#000000;fill-opacity:1;fill-rule:nonzero;stroke:none" transform="matrix(1,0,0,-1,415.92,388.9)"><tspan id="tspan222" y="0" x="0 4.2000041 8.4000082">50%</tspan></text>
</g>
    </g>
    <g id="g224">
      <g clip-path="url(#clipPath228)" id="g226"><text id="text232" style="font-variant:normal;font-weight:normal;font-size:8.49600029px;font-family:'Roboto Condensed';-inkscape-font-specification:RobotoCondensed-Regular;writing-mode:lr-tb;fill:#000000;fill-opacity:1;fill-rule:nonzero;stroke:none" transform="matrix(1,0,0,-1,508.58,395.69)"><tspan id="tspan234" y="0" x="0 4.2000041 8.4000082">52%</tspan></text>
</g>
    </g>
    <g id="g236">
      <g clip-path="url(#clipPath240)" id="g238"><text id="text244" style="font-variant:normal;font-weight:normal;font-size:8.49600029px;font-family:'Roboto Condensed';-inkscape-font-specification:RobotoCondensed-Regular;writing-mode:lr-tb;fill:#000000;fill-opacity:1;fill-rule:nonzero;stroke:none" transform="matrix(1,0,0,-1,137.95,427.22)"><tspan id="tspan246" y="0" x="0 4.2000041 8.4000082">18%</tspan></text>
</g>
    </g>
    <g id="g248">
      <g clip-path="url(#clipPath252)" id="g250"><text id="text256" style="font-variant:normal;font-weight:normal;font-size:8.49600029px;font-family:'Roboto Condensed';-inkscape-font-specification:RobotoCondensed-Regular;writing-mode:lr-tb;fill:#000000;fill-opacity:1;fill-rule:nonzero;stroke:none" transform="matrix(1,0,0,-1,230.62,433.58)"><tspan id="tspan258" y="0" x="0 4.2000041 8.4000082">14%</tspan></text>
</g>
    </g>
    <g id="g260">
      <g clip-path="url(#clipPath264)" id="g262"><text id="text268" style="font-variant:normal;font-weight:normal;font-size:8.47200012px;font-family:'Roboto Condensed';-inkscape-font-specification:RobotoCondensed-Regular;writing-mode:lr-tb;fill:#000000;fill-opacity:1;fill-rule:nonzero;stroke:none" transform="matrix(1,0,0,-1,323.28,440.83)"><tspan id="tspan270" y="0" x="0 4.1759982 8.3519964">14%</tspan></text>
</g>
    </g>
    <g id="g272">
      <g clip-path="url(#clipPath276)" id="g274"><text id="text280" style="font-variant:normal;font-weight:normal;font-size:8.49600029px;font-family:'Roboto Condensed';-inkscape-font-specification:RobotoCondensed-Regular;writing-mode:lr-tb;fill:#000000;fill-opacity:1;fill-rule:nonzero;stroke:none" transform="matrix(1,0,0,-1,415.92,451.03)"><tspan id="tspan282" y="0" x="0 4.2000041 8.4000082">11%</tspan></text>
</g>
    </g>
    <g id="g284">
      <g clip-path="url(#clipPath288)" id="g286"><text id="text292" style="font-variant:normal;font-weight:normal;font-size:8.49600029px;font-family:'Roboto Condensed';-inkscape-font-specification:RobotoCondensed-Regular;writing-mode:lr-tb;fill:#000000;fill-opacity:1;fill-rule:nonzero;stroke:none" transform="matrix(1,0,0,-1,508.58,458.38)"><tspan id="tspan294" y="0" x="0 4.2000041 8.4000082">10%</tspan></text>
</g>
    </g>
    <g id="g296">
      <g clip-path="url(#clipPath300)" id="g298"><text id="text304" style="font-variant:normal;font-weight:normal;font-size:8.49600029px;font-family:'Roboto Condensed';-inkscape-font-specification:RobotoCondensed-Regular;writing-mode:lr-tb;fill:#000000;fill-opacity:1;fill-rule:nonzero;stroke:none" transform="matrix(1,0,0,-1,137.95,460.44)"><tspan id="tspan306" y="0" x="0 4.2000041 8.4000082">15%</tspan></text>
</g>
    </g>
    <g id="g308">
      <g clip-path="url(#clipPath312)" id="g310"><text id="text316" style="font-variant:normal;font-weight:normal;font-size:8.49600029px;font-family:'Roboto Condensed';-inkscape-font-specification:RobotoCondensed-Regular;writing-mode:lr-tb;fill:#000000;fill-opacity:1;fill-rule:nonzero;stroke:none" transform="matrix(1,0,0,-1,230.62,462.58)"><tspan id="tspan318" y="0" x="0 4.2000041 8.4000082">14%</tspan></text>
</g>
    </g>
    <g id="g320">
      <g clip-path="url(#clipPath324)" id="g322"><text id="text328" style="font-variant:normal;font-weight:normal;font-size:8.47200012px;font-family:'Roboto Condensed';-inkscape-font-specification:RobotoCondensed-Regular;writing-mode:lr-tb;fill:#000000;fill-opacity:1;fill-rule:nonzero;stroke:none" transform="matrix(1,0,0,-1,323.28,466.87)"><tspan id="tspan330" y="0" x="0 4.1759982 8.3519964">12%</tspan></text>
</g>
    </g>
    <g id="g332">
      <g clip-path="url(#clipPath336)" id="g334"><text id="text340" style="font-variant:normal;font-weight:normal;font-size:8.49600029px;font-family:'Roboto Condensed';-inkscape-font-specification:RobotoCondensed-Regular;writing-mode:lr-tb;fill:#000000;fill-opacity:1;fill-rule:nonzero;stroke:none" transform="matrix(1,0,0,-1,415.92,471.96)"><tspan id="tspan342" y="0" x="0 4.2000041 8.4000082">10%</tspan></text>
</g>
    </g>
    <g id="g344">
      <g clip-path="url(#clipPath348)" id="g346"><text id="text352" style="font-variant:normal;font-weight:normal;font-size:8.49600029px;font-family:'Roboto Condensed';-inkscape-font-specification:RobotoCondensed-Regular;writing-mode:lr-tb;fill:#000000;fill-opacity:1;fill-rule:nonzero;stroke:none" transform="matrix(1,0,0,-1,510.62,475.87)"><tspan id="tspan354" y="0" x="0 4.2000041">8%</tspan></text>
</g>
    </g>
    <g id="g356">
      <g clip-path="url(#clipPath360)" id="g358"><text id="text364" style="font-variant:normal;font-weight:normal;font-size:8.49600029px;font-family:'Roboto Condensed';-inkscape-font-specification:RobotoCondensed-Regular;writing-mode:lr-tb;fill:#000000;fill-opacity:1;fill-rule:nonzero;stroke:none" transform="matrix(1,0,0,-1,137.95,486.29)"><tspan id="tspan366" y="0" x="0 4.2000041 8.4000082">11%</tspan></text>
</g>
    </g>
    <g id="g368">
      <g clip-path="url(#clipPath372)" id="g370"><text id="text376" style="font-variant:normal;font-weight:normal;font-size:8.47200012px;font-family:'Roboto Condensed';-inkscape-font-specification:RobotoCondensed-Regular;writing-mode:lr-tb;fill:#000000;fill-opacity:1;fill-rule:nonzero;stroke:none" transform="matrix(1,0,0,-1,230.62,487.54)"><tspan id="tspan378" y="0" x="0 4.1999679 8.3999357">10%</tspan></text>
</g>
    </g>
    <g id="g380">
      <g clip-path="url(#clipPath384)" id="g382"><text id="text388" style="font-variant:normal;font-weight:normal;font-size:8.49600029px;font-family:'Roboto Condensed';-inkscape-font-specification:RobotoCondensed-Regular;writing-mode:lr-tb;fill:#000000;fill-opacity:1;fill-rule:nonzero;stroke:none" transform="matrix(1,0,0,-1,325.32,487.92)"><tspan id="tspan390" y="0" x="0 4.176024">9%</tspan></text>
</g>
    </g>
    <g id="g392">
      <g clip-path="url(#clipPath396)" id="g394"><text id="text400" style="font-variant:normal;font-weight:normal;font-size:8.49600029px;font-family:'Roboto Condensed';-inkscape-font-specification:RobotoCondensed-Regular;writing-mode:lr-tb;fill:#000000;fill-opacity:1;fill-rule:nonzero;stroke:none" transform="matrix(1,0,0,-1,417.96,489.82)"><tspan id="tspan402" y="0" x="0 4.2000041">8%</tspan></text>
</g>
    </g>
    <g id="g404">
      <g clip-path="url(#clipPath408)" id="g406"><text id="text412" style="font-variant:normal;font-weight:normal;font-size:8.49600029px;font-family:'Roboto Condensed';-inkscape-font-specification:RobotoCondensed-Regular;writing-mode:lr-tb;fill:#000000;fill-opacity:1;fill-rule:nonzero;stroke:none" transform="matrix(1,0,0,-1,510.62,491.04)"><tspan id="tspan414" y="0" x="0 4.2000041">7%</tspan></text>
</g>
    </g>
    <g id="g416">
      <g clip-path="url(#clipPath420)" id="g418"><text id="text424" style="font-variant:normal;font-weight:normal;font-size:8.47200012px;font-family:'Roboto Condensed';-inkscape-font-specification:RobotoCondensed-Regular;writing-mode:lr-tb;fill:#000000;fill-opacity:1;fill-rule:nonzero;stroke:none" transform="matrix(1,0,0,-1,139.99,505.27)"><tspan id="tspan426" y="0" x="0 4.1999679">3%</tspan></text>
</g>
    </g>
    <g id="g428">
      <g clip-path="url(#clipPath432)" id="g430"><text id="text436" style="font-variant:normal;font-weight:normal;font-size:8.49600029px;font-family:'Roboto Condensed';-inkscape-font-specification:RobotoCondensed-Regular;writing-mode:lr-tb;fill:#000000;fill-opacity:1;fill-rule:nonzero;stroke:none" transform="matrix(1,0,0,-1,232.66,504.84)"><tspan id="tspan438" y="0" x="0 4.176024">2%</tspan></text>
</g>
    </g>
    <g id="g440">
      <g clip-path="url(#clipPath444)" id="g442"><text id="text448" style="font-variant:normal;font-weight:normal;font-size:8.49600029px;font-family:'Roboto Condensed';-inkscape-font-specification:RobotoCondensed-Regular;writing-mode:lr-tb;fill:#000000;fill-opacity:1;fill-rule:nonzero;stroke:none" transform="matrix(1,0,0,-1,325.32,505.25)"><tspan id="tspan450" y="0" x="0 4.176024">3%</tspan></text>
</g>
    </g>
    <g id="g452">
      <g clip-path="url(#clipPath456)" id="g454"><text id="text460" style="font-variant:normal;font-weight:normal;font-size:8.49600029px;font-family:'Roboto Condensed';-inkscape-font-specification:RobotoCondensed-Regular;writing-mode:lr-tb;fill:#000000;fill-opacity:1;fill-rule:nonzero;stroke:none" transform="matrix(1,0,0,-1,417.96,506.54)"><tspan id="tspan462" y="0" x="0 4.2000041">2%</tspan></text>
</g>
    </g>
    <g id="g464">
      <g clip-path="url(#clipPath468)" id="g466"><text id="text472" style="font-variant:normal;font-weight:normal;font-size:8.49600029px;font-family:'Roboto Condensed';-inkscape-font-specification:RobotoCondensed-Regular;writing-mode:lr-tb;fill:#000000;fill-opacity:1;fill-rule:nonzero;stroke:none" transform="matrix(1,0,0,-1,510.62,505.03)"><tspan id="tspan474" y="0" x="0 4.2000041">2%</tspan></text>
</g>
    </g>
    <g id="g476">
      <g clip-path="url(#clipPath480)" id="g478"><text id="text484" style="font-variant:normal;font-weight:normal;font-size:9.38399982px;font-family:'Roboto Condensed';-inkscape-font-specification:RobotoCondensed-Regular;writing-mode:lr-tb;fill:#000000;fill-opacity:1;fill-rule:nonzero;stroke:none" transform="matrix(1,0,0,-1,79.176,298.99)"><tspan id="tspan486" y="0" x="0 4.6319962">0%</tspan></text>
</g>
    </g>
    <g id="g488">
      <g clip-path="url(#clipPath492)" id="g490"><text id="text496" style="font-variant:normal;font-weight:normal;font-size:9.40799999px;font-family:'Roboto Condensed';-inkscape-font-specification:RobotoCondensed-Regular;writing-mode:lr-tb;fill:#000000;fill-opacity:1;fill-rule:nonzero;stroke:none" transform="matrix(1,0,0,-1,74.52,319.34)"><tspan id="tspan498" y="0" x="0 4.6319518 9.2639036">10%</tspan></text>
</g>
    </g>
    <g id="g500">
      <g clip-path="url(#clipPath504)" id="g502"><text id="text508" style="font-variant:normal;font-weight:normal;font-size:9.40799999px;font-family:'Roboto Condensed';-inkscape-font-specification:RobotoCondensed-Regular;writing-mode:lr-tb;fill:#000000;fill-opacity:1;fill-rule:nonzero;stroke:none" transform="matrix(1,0,0,-1,74.52,339.67)"><tspan id="tspan510" y="0" x="0 4.6319518 9.2639036">20%</tspan></text>
</g>
    </g>
    <g id="g512">
      <g clip-path="url(#clipPath516)" id="g514"><text id="text520" style="font-variant:normal;font-weight:normal;font-size:9.40799999px;font-family:'Roboto Condensed';-inkscape-font-specification:RobotoCondensed-Regular;writing-mode:lr-tb;fill:#000000;fill-opacity:1;fill-rule:nonzero;stroke:none" transform="matrix(1,0,0,-1,74.52,360)"><tspan id="tspan522" y="0" x="0 4.6319518 9.2639036">30%</tspan></text>
</g>
    </g>
    <g id="g524">
      <g clip-path="url(#clipPath528)" id="g526"><text id="text532" style="font-variant:normal;font-weight:normal;font-size:9.40799999px;font-family:'Roboto Condensed';-inkscape-font-specification:RobotoCondensed-Regular;writing-mode:lr-tb;fill:#000000;fill-opacity:1;fill-rule:nonzero;stroke:none" transform="matrix(1,0,0,-1,74.52,380.33)"><tspan id="tspan534" y="0" x="0 4.6319518 9.2639036">40%</tspan></text>
</g>
    </g>
    <g id="g536">
      <g clip-path="url(#clipPath540)" id="g538"><text id="text544" style="font-variant:normal;font-weight:normal;font-size:9.38399982px;font-family:'Roboto Condensed';-inkscape-font-specification:RobotoCondensed-Regular;writing-mode:lr-tb;fill:#000000;fill-opacity:1;fill-rule:nonzero;stroke:none" transform="matrix(1,0,0,-1,74.52,400.66)"><tspan id="tspan546" y="0" x="0 4.6319962 9.2639923">50%</tspan></text>
</g>
    </g>
    <g id="g548">
      <g clip-path="url(#clipPath552)" id="g550"><text id="text556" style="font-variant:normal;font-weight:normal;font-size:9.38399982px;font-family:'Roboto Condensed';-inkscape-font-specification:RobotoCondensed-Regular;writing-mode:lr-tb;fill:#000000;fill-opacity:1;fill-rule:nonzero;stroke:none" transform="matrix(1,0,0,-1,74.52,420.98)"><tspan id="tspan558" y="0" x="0 4.6319962 9.2639923">60%</tspan></text>
</g>
    </g>
    <g id="g560">
      <g clip-path="url(#clipPath564)" id="g562"><text id="text568" style="font-variant:normal;font-weight:normal;font-size:9.40799999px;font-family:'Roboto Condensed';-inkscape-font-specification:RobotoCondensed-Regular;writing-mode:lr-tb;fill:#000000;fill-opacity:1;fill-rule:nonzero;stroke:none" transform="matrix(1,0,0,-1,74.52,441.34)"><tspan id="tspan570" y="0" x="0 4.6319518 9.2639036">70%</tspan></text>
</g>
    </g>
    <g id="g572">
      <g clip-path="url(#clipPath576)" id="g574"><text id="text580" style="font-variant:normal;font-weight:normal;font-size:9.40799999px;font-family:'Roboto Condensed';-inkscape-font-specification:RobotoCondensed-Regular;writing-mode:lr-tb;fill:#000000;fill-opacity:1;fill-rule:nonzero;stroke:none" transform="matrix(1,0,0,-1,74.52,461.66)"><tspan id="tspan582" y="0" x="0 4.6319518 9.2639036">80%</tspan></text>
</g>
    </g>
    <g id="g584">
      <g clip-path="url(#clipPath588)" id="g586"><text id="text592" style="font-variant:normal;font-weight:normal;font-size:9.40799999px;font-family:'Roboto Condensed';-inkscape-font-specification:RobotoCondensed-Regular;writing-mode:lr-tb;fill:#000000;fill-opacity:1;fill-rule:nonzero;stroke:none" transform="matrix(1,0,0,-1,74.52,481.99)"><tspan id="tspan594" y="0" x="0 4.6319518 9.2639036">90%</tspan></text>
</g>
    </g>
    <g id="g596">
      <g clip-path="url(#clipPath600)" id="g598"><text id="text604" style="font-variant:normal;font-weight:normal;font-size:9.40799999px;font-family:'Roboto Condensed';-inkscape-font-specification:RobotoCondensed-Regular;writing-mode:lr-tb;fill:#000000;fill-opacity:1;fill-rule:nonzero;stroke:none" transform="matrix(1,0,0,-1,69.864,502.32)"><tspan id="tspan606" y="0" x="0 4.6319518 9.2639036 13.895856">100%</tspan></text>
</g>
    </g>
    <g id="g608">
      <g clip-path="url(#clipPath612)" id="g610"><text id="text616" style="font-variant:normal;font-weight:normal;font-size:9.40799999px;font-family:'Roboto Condensed';-inkscape-font-specification:RobotoCondensed-Regular;writing-mode:lr-tb;fill:#000000;fill-opacity:1;fill-rule:nonzero;stroke:none" transform="matrix(1,0,0,-1,129.02,286.9)"><tspan id="tspan618" y="0" x="0 4.8733439 9.417408 12.352704 16.313473 20.716415 24.677183 26.831615">Survey 1</tspan></text>
</g>
    </g>
    <g id="g620">
      <g clip-path="url(#clipPath624)" id="g622"><text id="text628" style="font-variant:normal;font-weight:normal;font-size:9.40799999px;font-family:'Roboto Condensed';-inkscape-font-specification:RobotoCondensed-Regular;writing-mode:lr-tb;fill:#000000;fill-opacity:1;fill-rule:nonzero;stroke:none" transform="matrix(1,0,0,-1,221.69,286.9)"><tspan id="tspan630" y="0" x="0 4.8733439 9.36096 12.27744 16.238209 20.641151 24.601919 26.756351">Survey 2</tspan></text>
</g>
    </g>
    <g id="g632">
      <g clip-path="url(#clipPath636)" id="g634"><text id="text640" style="font-variant:normal;font-weight:normal;font-size:9.40799999px;font-family:'Roboto Condensed';-inkscape-font-specification:RobotoCondensed-Regular;writing-mode:lr-tb;fill:#000000;fill-opacity:1;fill-rule:nonzero;stroke:none" transform="matrix(1,0,0,-1,314.33,286.9)"><tspan id="tspan642" y="0" x="0 4.8733439 9.417408 12.352704 16.313473 20.716415 24.677183 26.831615">Survey 3</tspan></text>
</g>
    </g>
    <g id="g644">
      <g clip-path="url(#clipPath648)" id="g646"><text id="text652" style="font-variant:normal;font-weight:normal;font-size:9.40799999px;font-family:'Roboto Condensed';-inkscape-font-specification:RobotoCondensed-Regular;writing-mode:lr-tb;fill:#000000;fill-opacity:1;fill-rule:nonzero;stroke:none" transform="matrix(1,0,0,-1,406.99,286.9)"><tspan id="tspan654" y="0" x="0 4.8733439 9.417408 12.352704 16.313473 20.716415 24.677183 26.831615">Survey 4</tspan></text>
</g>
    </g>
    <g id="g656">
      <g clip-path="url(#clipPath660)" id="g658"><text id="text664" style="font-variant:normal;font-weight:normal;font-size:9.40799999px;font-family:'Roboto Condensed';-inkscape-font-specification:RobotoCondensed-Regular;writing-mode:lr-tb;fill:#000000;fill-opacity:1;fill-rule:nonzero;stroke:none" transform="matrix(1,0,0,-1,499.66,286.9)"><tspan id="tspan666" y="0" x="0 4.8733439 9.379776 12.296256 16.257025 20.659967 24.620735 26.775167">Survey 5</tspan></text>
</g>
    </g>
    <g id="g668">
      <g clip-path="url(#clipPath672)" id="g670"><text id="text676" style="font-variant:normal;font-weight:bold;font-size:10.41600037px;font-family:'Roboto Condensed';-inkscape-font-specification:RobotoCondensed-Bold;writing-mode:lr-tb;fill:#000000;fill-opacity:1;fill-rule:nonzero;stroke:none" transform="matrix(1,0,0,-1,249.38,523.75)"><tspan id="tspan678" y="0" x="0 6.3329282 11.520096 15.030288 18.228001 23.290176 25.685856 31.904207 39.632881 44.622143 48.080257 50.70509 55.496449 60.350304 62.610577 67.808159 72.453697 74.693138 79.807388 84.525841 89.733841 94.921005 99.681122 104.76413 108.25349">North America by Exposure</tspan></text>
</g>
    </g>
    <path id="path680" style="fill:#ffffff;fill-opacity:1;fill-rule:evenodd;stroke:none" d="m 97.224,257.86 433.74,0 0,16.334 -433.74,0 0,-16.334 z"/>
    <path id="path682" style="fill:#005aa4;fill-opacity:1;fill-rule:evenodd;stroke:none" d="m 112.65,263.48 5.0961,0 0,5.0961 -5.0961,0 0,-5.0961 z"/>
    <g id="g684">
      <g clip-path="url(#clipPath688)" id="g686"><text id="text692" style="font-variant:normal;font-weight:normal;font-size:9.38399982px;font-family:'Roboto Condensed';-inkscape-font-specification:RobotoCondensed-Regular;writing-mode:lr-tb;fill:#000000;fill-opacity:1;fill-rule:nonzero;stroke:none" transform="matrix(1,0,0,-1,119.98,263.14)"><tspan id="tspan694" y="0" x="0 4.6356959 9.2620077 13.756944 18.383257 20.532192 24.952057 27.804792 31.286257 36.691441 41.345905 46.084824 50.711136 53.535721 57.927433">Enabler/Adopter</tspan></text>
</g>
    </g>
    <path id="path696" style="fill:#226b5a;fill-opacity:1;fill-rule:evenodd;stroke:none" d="m 195.97,263.48 5.0961,0 0,5.0961 -5.0961,0 0,-5.0961 z"/>
    <g id="g698">
      <g clip-path="url(#clipPath702)" id="g700"><text id="text706" style="font-variant:normal;font-weight:normal;font-size:9.38399982px;font-family:'Roboto Condensed';-inkscape-font-specification:RobotoCondensed-Regular;writing-mode:lr-tb;fill:#000000;fill-opacity:1;fill-rule:nonzero;stroke:none" transform="matrix(1,0,0,-1,203.3,263.14)"><tspan id="tspan708" y="0" x="0 4.6356959 9.2620077 13.785096 18.411407 20.560345 24.980207">Enabler</tspan></text>
</g>
    </g>
    <path id="path710" style="fill:#eadfbc;fill-opacity:1;fill-rule:evenodd;stroke:none" d="m 246.21,263.48 5.0961,0 0,5.0961 -5.0961,0 0,-5.0961 z"/>
    <g id="g712">
      <g clip-path="url(#clipPath716)" id="g714"><text id="text720" style="font-variant:normal;font-weight:normal;font-size:9.38399982px;font-family:'Roboto Condensed';-inkscape-font-specification:RobotoCondensed-Regular;writing-mode:lr-tb;fill:#000000;fill-opacity:1;fill-rule:nonzero;stroke:none" transform="matrix(1,0,0,-1,253.56,263.14)"><tspan id="tspan722" y="0" x="0 5.4051838 10.059648 14.798568 19.424879 22.249464 26.641176">Adopter</tspan></text>
</g>
    </g>
    <path id="path724" style="fill:#d0b86a;fill-opacity:1;fill-rule:evenodd;stroke:none" d="m 298.16,263.48 5.0961,0 0,5.0961 -5.0961,0 0,-5.0961 z"/>
    <g id="g726">
      <g clip-path="url(#clipPath730)" id="g728"><text id="text734" style="font-variant:normal;font-weight:normal;font-size:9.38399982px;font-family:'Roboto Condensed';-inkscape-font-specification:RobotoCondensed-Regular;writing-mode:lr-tb;fill:#000000;fill-opacity:1;fill-rule:nonzero;stroke:none" transform="matrix(1,0,0,-1,305.5,263.14)"><tspan id="tspan736" y="0" x="0 5.2268882 8.1734638 12.827928 15.652512 20.08176 24.511007 27.251137 31.680384">Protected</tspan></text>
</g>
    </g>
    <path id="path738" style="fill:#93decc;fill-opacity:1;fill-rule:evenodd;stroke:none" d="m 356.82,263.48 5.0961,0 0,5.0961 -5.0961,0 0,-5.0961 z"/>
    <g id="g740">
      <g clip-path="url(#clipPath744)" id="g742"><text id="text748" style="font-variant:normal;font-weight:normal;font-size:9.38399982px;font-family:'Roboto Condensed';-inkscape-font-specification:RobotoCondensed-Regular;writing-mode:lr-tb;fill:#000000;fill-opacity:1;fill-rule:nonzero;stroke:none" transform="matrix(1,0,0,-1,364.18,263.14)"><tspan id="tspan750" y="0" x="0 5.4427199 10.097184 14.742264 16.328159 19.152744 21.30168 26.41596 31.051657 35.790577">Don't Know</tspan></text>
</g>
    </g>
    <path id="path752" style="fill:#8cd5f2;fill-opacity:1;fill-rule:evenodd;stroke:none" d="m 421.05,263.48 5.0961,0 0,5.0961 -5.0961,0 0,-5.0961 z"/>
    <g id="g754">
      <g clip-path="url(#clipPath758)" id="g756"><text id="text762" style="font-variant:normal;font-weight:normal;font-size:9.38399982px;font-family:'Roboto Condensed';-inkscape-font-specification:RobotoCondensed-Regular;writing-mode:lr-tb;fill:#000000;fill-opacity:1;fill-rule:nonzero;stroke:none" transform="matrix(1,0,0,-1,428.42,263.14)"><tspan id="tspan764" y="0" x="0 7.1506081 9.3746157 11.523552 16.178017 20.466503 24.989592 27.936169">Wildcard</tspan></text>
</g>
    </g>
    <path id="path766" style="fill:#6769e2;fill-opacity:1;fill-rule:evenodd;stroke:none" d="m 476.04,263.48 5.0961,0 0,5.0961 -5.0961,0 0,-5.0961 z"/>
    <g id="g768">
      <g clip-path="url(#clipPath772)" id="g770"><text id="text776" style="font-variant:normal;font-weight:normal;font-size:9.38399982px;font-family:'Roboto Condensed';-inkscape-font-specification:RobotoCondensed-Regular;writing-mode:lr-tb;fill:#000000;fill-opacity:1;fill-rule:nonzero;stroke:none" transform="matrix(1,0,0,-1,483.41,263.14)"><tspan id="tspan778" y="0" x="0 5.4427199 7.5916562 11.91768 14.770416 19.302889 23.929199 26.763168 31.154881">Disrupted</tspan></text>
</g>
    </g>
  </g>
</svg>
