<svg version="1.1" width="100%" height="100%" viewBox="0 0 355 161" xmlns="http://www.w3.org/2000/svg" xmlns:xlink="http://www.w3.org/1999/xlink"><style type="text/css" /><defs><clipPath id="clip001"><path d="M0,0 L2761.333,0 L2761.333,1340 L0,1340 Z" clip-rule="evenodd" /></clipPath><clipPath id="clip002"><path d="M0,0 L2761.333,0 L2761.333,1340 L0,1340 Z" clip-rule="evenodd" /></clipPath><clipPath id="clip003"><path d="M0,0 L2761.333,0 L2761.333,1340 L0,1340 Z" clip-rule="evenodd" /></clipPath><clipPath id="clip004"><path d="M0,0 L5200,0 L5200,1448 L0,1448 Z" clip-rule="evenodd" /></clipPath><clipPath id="clip005"><path d="M-800,0 L6000,0 L6000,1448 L-800,1448 Z" clip-rule="evenodd" /></clipPath><clipPath id="clip006"><path d="M0,0 L2753.333,0 L2753.333,1338.667 L0,1338.667 Z" clip-rule="evenodd" /></clipPath><clipPath id="clip007"><path d="M0,0 L2753.333,0 L2753.333,1338.667 L0,1338.667 Z" clip-rule="evenodd" /></clipPath><clipPath id="clip008"><path d="M381.3333,60 L2744,60 L2744,1030.667 L381.3333,1030.667 Z" clip-rule="evenodd" /></clipPath><clipPath id="clip009"><path d="M0,0 L2753.333,0 L2753.333,1338.667 L0,1338.667 Z" clip-rule="evenodd" /></clipPath><clipPath id="clip010"><path d="M0,0 L2753.333,0 L2753.333,1338.667 L0,1338.667 Z" clip-rule="evenodd" /></clipPath><clipPath id="clip011"><path d="M0,0 L2753.333,0 L2753.333,1338.667 L0,1338.667 Z" clip-rule="evenodd" /></clipPath><clipPath id="clip012"><path d="M0,0 L2753.333,0 L2753.333,1338.667 L0,1338.667 Z" clip-rule="evenodd" /></clipPath><clipPath id="clip013"><path d="M0,0 L2753.333,0 L2753.333,1338.667 L0,1338.667 Z" clip-rule="evenodd" /></clipPath><clipPath id="clip014"><path d="M0,0 L2753.333,0 L2753.333,1338.667 L0,1338.667 Z" clip-rule="evenodd" /></clipPath><clipPath id="clip015"><path d="M0,0 L2753.333,0 L2753.333,1338.667 L0,1338.667 Z" clip-rule="evenodd" /></clipPath><clipPath id="clip016"><path d="M0,0 L2753.333,0 L2753.333,1338.667 L0,1338.667 Z" clip-rule="evenodd" /></clipPath><clipPath id="clip017"><path d="M0,0 L2753.333,0 L2753.333,1338.667 L0,1338.667 Z" clip-rule="evenodd" /></clipPath><clipPath id="clip018"><path d="M0,0 L2753.333,0 L2753.333,1338.667 L0,1338.667 Z" clip-rule="evenodd" /></clipPath><clipPath id="clip019"><path d="M0,0 L2753.333,0 L2753.333,1338.667 L0,1338.667 Z" clip-rule="evenodd" /></clipPath><clipPath id="clip020"><path d="M0,0 L2753.333,0 L2753.333,1338.667 L0,1338.667 Z" clip-rule="evenodd" /></clipPath><clipPath id="clip021"><path d="M0,0 L2753.333,0 L2753.333,1338.667 L0,1338.667 Z" clip-rule="evenodd" /></clipPath><clipPath id="clip022"><path d="M0,0 L2753.333,0 L2753.333,1338.667 L0,1338.667 Z" clip-rule="evenodd" /></clipPath><clipPath id="clip023"><path d="M0,0 L2753.333,0 L2753.333,1338.667 L0,1338.667 Z" clip-rule="evenodd" /></clipPath><clipPath id="clip024"><path d="M0,0 L2753.333,0 L2753.333,1338.667 L0,1338.667 Z" clip-rule="evenodd" /></clipPath><clipPath id="clip025"><path d="M0,0 L2753.333,0 L2753.333,1338.667 L0,1338.667 Z" clip-rule="evenodd" /></clipPath><clipPath id="clip026"><path d="M0,0 L2753.333,0 L2753.333,1338.667 L0,1338.667 Z" clip-rule="evenodd" /></clipPath><clipPath id="clip027"><path d="M0,0 L2753.333,0 L2753.333,1338.667 L0,1338.667 Z" clip-rule="evenodd" /></clipPath><clipPath id="clip028"><path d="M0,0 L2753.333,0 L2753.333,1338.667 L0,1338.667 Z" clip-rule="evenodd" /></clipPath><clipPath id="clip029"><path d="M0,0 L2753.333,0 L2753.333,1338.667 L0,1338.667 Z" clip-rule="evenodd" /></clipPath><clipPath id="clip030"><path d="M0,0 L2753.333,0 L2753.333,1338.667 L0,1338.667 Z" clip-rule="evenodd" /></clipPath><clipPath id="clip031"><path d="M0,0 L2753.333,0 L2753.333,1338.667 L0,1338.667 Z" clip-rule="evenodd" /></clipPath><clipPath id="clip032"><path d="M0,0 L2753.333,0 L2753.333,1338.667 L0,1338.667 Z" clip-rule="evenodd" /></clipPath><clipPath id="clip033"><path d="M0,0 L2753.333,0 L2753.333,1338.667 L0,1338.667 Z" clip-rule="evenodd" /></clipPath><clipPath id="clip034"><path d="M0,0 L2753.333,0 L2753.333,1338.667 L0,1338.667 Z" clip-rule="evenodd" /></clipPath><clipPath id="clip035"><path d="M0,0 L2753.333,0 L2753.333,1338.667 L0,1338.667 Z" clip-rule="evenodd" /></clipPath><clipPath id="clip036"><path d="M0,0 L2753.333,0 L2753.333,1338.667 L0,1338.667 Z" clip-rule="evenodd" /></clipPath><clipPath id="clip037"><path d="M0,0 L2753.333,0 L2753.333,1338.667 L0,1338.667 Z" clip-rule="evenodd" /></clipPath><clipPath id="clip038"><path d="M0,0 L2753.333,0 L2753.333,1338.667 L0,1338.667 Z" clip-rule="evenodd" /></clipPath><clipPath id="clip039"><path d="M0,0 L2753.333,0 L2753.333,1338.667 L0,1338.667 Z" clip-rule="evenodd" /></clipPath><clipPath id="clip040"><path d="M0,0 L2753.333,0 L2753.333,1338.667 L0,1338.667 Z" clip-rule="evenodd" /></clipPath><clipPath id="clip041"><path d="M0,0 L2753.333,0 L2753.333,1338.667 L0,1338.667 Z" clip-rule="evenodd" /></clipPath><clipPath id="clip042"><path d="M0,0 L2753.333,0 L2753.333,1338.667 L0,1338.667 Z" clip-rule="evenodd" /></clipPath><clipPath id="clip043"><path d="M0,0 L2753.333,0 L2753.333,1338.667 L0,1338.667 Z" clip-rule="evenodd" /></clipPath></defs><clipPath id="page-clip-path-1"><rect x="0" y="0" width="354.67" height="161.33" /></clipPath><g clip-path="url(#page-clip-path-1)" transform="translate(0.17,0)"><g transform="translate(1,1)"><g><g transform="matrix(0.1197006,0,0,0.1199502,0,0)" clip-path="url(#clip001)"><g><g clip-path="url(#clip002)"><g><g clip-path="url(#clip003)"><g transform="matrix(1.000214,0,0,1.001037,0.00016276,0)"><g><g><g clip-path="url(#clip004)"><g transform="translate(2753.333,1340)" /></g></g></g><g clip-path="url(#clip005)"><g transform="matrix(0.000656168,0,0,0.000656168,0,0)"><path d="M0,0 L4198112,0 L4198112,2042160 L0,2042160 Z" fill="#ffffff" fill-opacity="0" fill-rule="evenodd" /></g></g><g clip-path="url(#clip006)"><g transform="matrix(0.000656168,0,0,0.000656168,382.6667,60)"><path d="M0,0 L3588512,0 L3588512,1467104 L0,1467104 Z" fill="#ffffff" fill-opacity="0" fill-rule="evenodd" /></g></g><g clip-path="url(#clip007)"><g transform="matrix(0.000656168,0,0,0.000656168,382.6667,60)"><path d="M0,1467104 L3588512,1467104 M0,1172464 L3588512,1172464 M0,587248 L3588512,587248 M0,292608 L3588512,292608 M0,0 L3588512,0 " stroke-width="16933.33" stroke-linejoin="round" stroke-miterlimit="13.33333" stroke="#bababa" fill="none" fill-rule="nonzero" /></g></g><g clip-path="url(#clip008)"><g transform="matrix(0.000656168,0,0,0.000656168,382.6667,60)"><path d="M20320,182880 L105664,182880 L105664,182880 L105664,879856 L105664,879856 L20320,879856 ZM148336,314960 L233680,314960 L233680,314960 L233680,879856 L233680,879856 L148336,879856 ZM276352,337312 L361696,337312 L361696,337312 L361696,879856 L361696,879856 L276352,879856 ZM404368,424688 L489712,424688 L489712,424688 L489712,879856 L489712,879856 L404368,879856 ZM532384,514096 L617728,514096 L617728,514096 L617728,879856 L617728,879856 L532384,879856 ZM660400,672592 L745744,672592 L745744,672592 L745744,879856 L745744,879856 L660400,879856 ZM788416,751840 L875792,751840 L875792,751840 L875792,879856 L875792,879856 L788416,879856 ZM918464,755904 L1003808,755904 L1003808,755904 L1003808,879856 L1003808,879856 L918464,879856 ZM1046480,794512 L1131824,794512 L1131824,794512 L1131824,879856 L1131824,879856 L1046480,879856 ZM1174496,841248 L1259840,841248 L1259840,841248 L1259840,879856 L1259840,879856 L1174496,879856 ZM1302512,845312 L1387856,845312 L1387856,845312 L1387856,879856 L1387856,879856 L1302512,879856 ZM1430528,875792 L1515872,875792 L1515872,875792 L1515872,879856 L1515872,879856 L1430528,879856 ZM2840736,912368 L2926080,912368 L2926080,912368 L2926080,879856 L2926080,879856 L2840736,879856 ZM2968752,920496 L3054096,920496 L3054096,920496 L3054096,879856 L3054096,879856 L2968752,879856 ZM3096768,1024128 L3182112,1024128 L3182112,1024128 L3182112,879856 L3182112,879856 L3096768,879856 ZM3224784,1060704 L3310128,1060704 L3310128,1060704 L3310128,879856 L3310128,879856 L3224784,879856 ZM3352800,1123696 L3438144,1123696 L3438144,1123696 L3438144,879856 L3438144,879856 L3352800,879856 ZM3480816,1184656 L3566160,1184656 L3566160,1184656 L3566160,879856 L3566160,879856 L3480816,879856 Z" fill="#012169" fill-rule="nonzero" /></g></g><g clip-path="url(#clip009)"><g transform="matrix(0.000656168,0,0,0.000656168,382.6667,637.3333)"><g><path d="M0.002516673,-6773.333 L3588512,-6772 " stroke-width="3386.667" stroke-linejoin="round" stroke-miterlimit="13.33333" stroke="#000000" fill="none" fill-rule="evenodd" /><path d="M-0.001258336,3386.667 L3588512,3388 " stroke-width="10160" stroke-linejoin="round" stroke-miterlimit="13.33333" stroke="#000000" fill="none" fill-rule="evenodd" /></g></g></g><g><g clip-path="url(#clip010)"><g><g transform="translate(16.66667,1052.028)"><text><tspan x="0" y="0" font-family="Connections Cond Light,Arial Narrow" font-weight="normal" font-style="normal" font-size="105.3333" fill="#ff0000">(1,200)</tspan></text></g></g></g></g><g><g clip-path="url(#clip011)"><g><g transform="translate(84.33334,859.5617)"><text><tspan x="0" y="0" font-family="Connections Cond Light,Arial Narrow" font-weight="normal" font-style="normal" font-size="105.3333" fill="#ff0000">(600)</tspan></text></g></g></g></g><g><g clip-path="url(#clip012)"><g><g transform="translate(219.3884,667.0945)"><text><tspan x="0" y="0" font-family="Connections Cond Light,Arial Narrow" font-weight="normal" font-style="normal" font-size="105.3333" fill="#000000">0</tspan></text></g></g></g></g><g><g clip-path="url(#clip013)"><g><g transform="translate(118.0551,474.6282)"><text><tspan x="0" y="0" font-family="Connections Cond Light,Arial Narrow" font-weight="normal" font-style="normal" font-size="105.3333" fill="#000000">600</tspan></text></g></g></g></g><g><g clip-path="url(#clip014)"><g><g transform="translate(50.38845,282.161)"><text><tspan x="0" y="0" font-family="Connections Cond Light,Arial Narrow" font-weight="normal" font-style="normal" font-size="105.3333" fill="#000000">1,200</tspan></text></g></g></g></g><g><g clip-path="url(#clip015)"><g><g transform="translate(50.38845,89.69466)"><text><tspan x="0" y="0" font-family="Connections Cond Light,Arial Narrow" font-weight="normal" font-style="normal" font-size="105.3333" fill="#000000">1,800</tspan></text></g></g></g></g><g><g clip-path="url(#clip016)"><g><g transform="matrix(0,-1,1,0,457.3307,1281.889)"><text><tspan x="0" y="0" font-family="Connections Cond Light,Arial Narrow" font-weight="normal" font-style="normal" font-size="105.3333" fill="#000000">KLAC</tspan></text></g></g></g></g><g><g clip-path="url(#clip017)"><g><g transform="matrix(0,-1,1,0,541.4366,1322.778)"><text><tspan x="0" y="0" font-family="Connections Cond Light,Arial Narrow" font-weight="normal" font-style="normal" font-size="105.3333" fill="#000000">MCHP</tspan></text></g></g></g></g><g><g clip-path="url(#clip018)"><g><g transform="matrix(0,-1,1,0,625.5424,1296.612)"><text><tspan x="0" y="0" font-family="Connections Cond Light,Arial Narrow" font-weight="normal" font-style="normal" font-size="105.3333" fill="#000000">NVMI</tspan></text></g></g></g></g><g><g clip-path="url(#clip019)"><g><g transform="matrix(0,-1,1,0,709.6483,1316.5)"><text><tspan x="0" y="0" font-family="Connections Cond Light,Arial Narrow" font-weight="normal" font-style="normal" font-size="105.3333" fill="#000000">AMAT</tspan></text></g></g></g></g><g><g clip-path="url(#clip020)"><g><g transform="matrix(0,-1,1,0,793.7542,1264.945)"><text><tspan x="0" y="0" font-family="Connections Cond Light,Arial Narrow" font-weight="normal" font-style="normal" font-size="105.3333" fill="#000000">INTC</tspan></text></g></g></g></g><g><g clip-path="url(#clip021)"><g><g transform="matrix(0,-1,1,0,877.86,1280.667)"><text><tspan x="0" y="0" font-family="Connections Cond Light,Arial Narrow" font-weight="normal" font-style="normal" font-size="105.3333" fill="#000000">LRCX</tspan></text></g></g></g></g><g><g clip-path="url(#clip022)"><g><g transform="matrix(0,-1,1,0,961.9659,1218.945)"><text><tspan x="0" y="0" font-family="Connections Cond Light,Arial Narrow" font-weight="normal" font-style="normal" font-size="105.3333" fill="#000000">ADI</tspan></text></g></g></g></g><g><g clip-path="url(#clip023)"><g><g transform="matrix(0,-1,1,0,1046.072,1309.167)"><text><tspan x="0" y="0" font-family="Connections Cond Light,Arial Narrow" font-weight="normal" font-style="normal" font-size="105.3333" fill="#000000">MRVL</tspan></text></g></g></g></g><g><g clip-path="url(#clip024)"><g><g transform="matrix(0,-1,1,0,1130.177,1306.667)"><text><tspan x="0" y="0" font-family="Connections Cond Light,Arial Narrow" font-weight="normal" font-style="normal" font-size="105.3333" fill="#000000">AVGO</tspan></text></g></g></g></g><g><g clip-path="url(#clip025)"><g><g transform="matrix(0,-1,1,0,1214.283,1245)"><text><tspan x="0" y="0" font-family="Connections Cond Light,Arial Narrow" font-weight="normal" font-style="normal" font-size="105.3333" fill="#000000">TXN</tspan></text></g></g></g></g><g><g clip-path="url(#clip026)"><g><g transform="matrix(0,-1,1,0,1298.389,1224.167)"><text><tspan x="0" y="0" font-family="Connections Cond Light,Arial Narrow" font-weight="normal" font-style="normal" font-size="105.3333" fill="#000000">MU</tspan></text></g></g></g></g><g><g clip-path="url(#clip027)"><g><g transform="matrix(0,-1,1,0,1382.495,1309.333)"><text><tspan x="0" y="0" font-family="Connections Cond Light,Arial Narrow" font-weight="normal" font-style="normal" font-size="105.3333" fill="#000000">NVDA</tspan></text></g></g></g></g><g><g clip-path="url(#clip028)"><g><g transform="matrix(0,-1,1,0,1466.601,1322.778)"><text><tspan x="0" y="0" font-family="Connections Cond Light,Arial Narrow" font-weight="normal" font-style="normal" font-size="105.3333" fill="#000000">MCHP</tspan></text></g></g></g></g><g><g clip-path="url(#clip029)"><g><g transform="matrix(0,-1,1,0,1550.707,1314.389)"><text><tspan x="0" y="0" font-family="Connections Cond Light,Arial Narrow" font-weight="normal" font-style="normal" font-size="105.3333" fill="#000000">SWKS</tspan></text></g></g></g></g><g><g clip-path="url(#clip030)"><g><g transform="matrix(0,-1,1,0,1634.813,1269.667)"><text><tspan x="0" y="0" font-family="Connections Cond Light,Arial Narrow" font-weight="normal" font-style="normal" font-size="105.3333" fill="#000000">NXPI</tspan></text></g></g></g></g><g><g clip-path="url(#clip031)"><g><g transform="matrix(0,-1,1,0,1718.919,1281.889)"><text><tspan x="0" y="0" font-family="Connections Cond Light,Arial Narrow" font-weight="normal" font-style="normal" font-size="105.3333" fill="#000000">KLAC</tspan></text></g></g></g></g><g><g clip-path="url(#clip032)"><g><g transform="matrix(0,-1,1,0,1803.024,1297.278)"><text><tspan x="0" y="0" font-family="Connections Cond Light,Arial Narrow" font-weight="normal" font-style="normal" font-size="105.3333" fill="#000000">CRUS</tspan></text></g></g></g></g><g><g clip-path="url(#clip033)"><g><g transform="matrix(0,-1,1,0,1887.13,1296.612)"><text><tspan x="0" y="0" font-family="Connections Cond Light,Arial Narrow" font-weight="normal" font-style="normal" font-size="105.3333" fill="#000000">NVMI</tspan></text></g></g></g></g><g><g clip-path="url(#clip034)"><g><g transform="matrix(0,-1,1,0,1971.236,1309.167)"><text><tspan x="0" y="0" font-family="Connections Cond Light,Arial Narrow" font-weight="normal" font-style="normal" font-size="105.3333" fill="#000000">MRVL</tspan></text></g></g></g></g><g><g clip-path="url(#clip035)"><g><g transform="matrix(0,-1,1,0,2055.342,1295.056)"><text><tspan x="0" y="0" font-family="Connections Cond Light,Arial Narrow" font-weight="normal" font-style="normal" font-size="105.3333" fill="#000000">SNPS</tspan></text></g></g></g></g><g><g clip-path="url(#clip036)"><g><g transform="matrix(0,-1,1,0,2139.447,1307.389)"><text><tspan x="0" y="0" font-family="Connections Cond Light,Arial Narrow" font-weight="normal" font-style="normal" font-size="105.3333" fill="#000000">CRDO</tspan></text></g></g></g></g><g><g clip-path="url(#clip037)"><g><g transform="matrix(0,-1,1,0,2223.554,1311.945)"><text><tspan x="0" y="0" font-family="Connections Cond Light,Arial Narrow" font-weight="normal" font-style="normal" font-size="105.3333" fill="#000000">CAMT</tspan></text></g></g></g></g><g><g clip-path="url(#clip038)"><g><g transform="matrix(0,-1,1,0,2307.66,1314.389)"><text><tspan x="0" y="0" font-family="Connections Cond Light,Arial Narrow" font-weight="normal" font-style="normal" font-size="105.3333" fill="#000000">SWKS</tspan></text></g></g></g></g><g><g clip-path="url(#clip039)"><g><g transform="matrix(0,-1,1,0,2391.765,1274.056)"><text><tspan x="0" y="0" font-family="Connections Cond Light,Arial Narrow" font-weight="normal" font-style="normal" font-size="105.3333" fill="#000000">AMD</tspan></text></g></g></g></g><g><g clip-path="url(#clip040)"><g><g transform="matrix(0,-1,1,0,2475.871,1209.111)"><text><tspan x="0" y="0" font-family="Connections Cond Light,Arial Narrow" font-weight="normal" font-style="normal" font-size="105.3333" fill="#000000">ON</tspan></text></g></g></g></g><g><g clip-path="url(#clip041)"><g><g transform="matrix(0,-1,1,0,2559.977,1295.056)"><text><tspan x="0" y="0" font-family="Connections Cond Light,Arial Narrow" font-weight="normal" font-style="normal" font-size="105.3333" fill="#000000">SNPS</tspan></text></g></g></g></g><g><g clip-path="url(#clip042)"><g><g transform="matrix(0,-1,1,0,2644.083,1233.333)"><text><tspan x="0" y="0" font-family="Connections Cond Light,Arial Narrow" font-weight="normal" font-style="normal" font-size="105.3333" fill="#000000">TER</tspan></text></g></g></g></g><g><g clip-path="url(#clip043)"><g><g transform="matrix(0,-1,1,0,2728.189,1307.389)"><text><tspan x="0" y="0" font-family="Connections Cond Light,Arial Narrow" font-weight="normal" font-style="normal" font-size="105.3333" fill="#000000">CRDO</tspan></text></g></g></g></g><g /></g></g></g></g></g></g></g></g></g></svg>