<?xml version="1.0" encoding="UTF-8" standalone="no"?>
<svg xmlns:dc="http://purl.org/dc/elements/1.1/" xmlns:cc="http://creativecommons.org/ns#" xmlns:rdf="http://www.w3.org/1999/02/22-rdf-syntax-ns#" xmlns:svg="http://www.w3.org/2000/svg" xmlns="http://www.w3.org/2000/svg" viewBox="66.4525 382.2 650.55125 397" height="397" width="650.55125" xml:space="preserve" version="1.1" id="svg2">
  <metadata id="metadata8">
    <rdf:RDF>
      <cc:Work rdf:about="">
        <dc:format>image/svg+xml</dc:format>
        <dc:type rdf:resource="http://purl.org/dc/dcmitype/StillImage"/>
      </cc:Work>
    </rdf:RDF>
  </metadata>
  <defs id="defs6">
    <clipPath id="clipPath16" clipPathUnits="userSpaceOnUse">
      <path style="clip-rule:evenodd" id="path18" d="m 53.053,262.86 520.55,0 0,317.68 -520.55,0 0,-317.68 z"/>
    </clipPath>
    <clipPath id="clipPath40" clipPathUnits="userSpaceOnUse">
      <path style="clip-rule:evenodd" id="path42" d="m 53.179,262.99 520.42,0 0,317.43 -520.42,0 0,-317.43 z"/>
    </clipPath>
    <clipPath id="clipPath52" clipPathUnits="userSpaceOnUse">
      <path style="clip-rule:evenodd" id="path54" d="m 53.179,262.99 520.42,0 0,317.43 -520.42,0 0,-317.43 z"/>
    </clipPath>
    <clipPath id="clipPath64" clipPathUnits="userSpaceOnUse">
      <path style="clip-rule:evenodd" id="path66" d="m 53.179,262.99 520.42,0 0,317.43 -520.42,0 0,-317.43 z"/>
    </clipPath>
    <clipPath id="clipPath76" clipPathUnits="userSpaceOnUse">
      <path style="clip-rule:evenodd" id="path78" d="m 53.179,262.99 520.42,0 0,317.43 -520.42,0 0,-317.43 z"/>
    </clipPath>
    <clipPath id="clipPath88" clipPathUnits="userSpaceOnUse">
      <path style="clip-rule:evenodd" id="path90" d="m 53.179,262.99 520.42,0 0,317.43 -520.42,0 0,-317.43 z"/>
    </clipPath>
    <clipPath id="clipPath100" clipPathUnits="userSpaceOnUse">
      <path style="clip-rule:evenodd" id="path102" d="m 53.179,262.99 520.42,0 0,317.43 -520.42,0 0,-317.43 z"/>
    </clipPath>
    <clipPath id="clipPath112" clipPathUnits="userSpaceOnUse">
      <path style="clip-rule:evenodd" id="path114" d="m 53.179,262.99 520.42,0 0,317.43 -520.42,0 0,-317.43 z"/>
    </clipPath>
    <clipPath id="clipPath124" clipPathUnits="userSpaceOnUse">
      <path style="clip-rule:evenodd" id="path126" d="m 53.179,262.99 520.42,0 0,317.43 -520.42,0 0,-317.43 z"/>
    </clipPath>
    <clipPath id="clipPath136" clipPathUnits="userSpaceOnUse">
      <path style="clip-rule:evenodd" id="path138" d="m 53.179,262.99 520.42,0 0,317.43 -520.42,0 0,-317.43 z"/>
    </clipPath>
    <clipPath id="clipPath148" clipPathUnits="userSpaceOnUse">
      <path style="clip-rule:evenodd" id="path150" d="m 53.179,262.99 520.42,0 0,317.43 -520.42,0 0,-317.43 z"/>
    </clipPath>
    <clipPath id="clipPath160" clipPathUnits="userSpaceOnUse">
      <path style="clip-rule:evenodd" id="path162" d="m 53.179,262.99 520.42,0 0,317.43 -520.42,0 0,-317.43 z"/>
    </clipPath>
    <clipPath id="clipPath172" clipPathUnits="userSpaceOnUse">
      <path style="clip-rule:evenodd" id="path174" d="m 53.179,262.99 520.42,0 0,317.43 -520.42,0 0,-317.43 z"/>
    </clipPath>
    <clipPath id="clipPath184" clipPathUnits="userSpaceOnUse">
      <path style="clip-rule:evenodd" id="path186" d="m 53.179,262.99 520.42,0 0,317.43 -520.42,0 0,-317.43 z"/>
    </clipPath>
    <clipPath id="clipPath196" clipPathUnits="userSpaceOnUse">
      <path style="clip-rule:evenodd" id="path198" d="m 53.179,262.99 520.42,0 0,317.43 -520.42,0 0,-317.43 z"/>
    </clipPath>
    <clipPath id="clipPath208" clipPathUnits="userSpaceOnUse">
      <path style="clip-rule:evenodd" id="path210" d="m 53.179,262.99 520.42,0 0,317.43 -520.42,0 0,-317.43 z"/>
    </clipPath>
    <clipPath id="clipPath220" clipPathUnits="userSpaceOnUse">
      <path style="clip-rule:evenodd" id="path222" d="m 53.179,262.99 520.42,0 0,317.43 -520.42,0 0,-317.43 z"/>
    </clipPath>
    <clipPath id="clipPath232" clipPathUnits="userSpaceOnUse">
      <path style="clip-rule:evenodd" id="path234" d="m 53.179,262.99 520.42,0 0,317.43 -520.42,0 0,-317.43 z"/>
    </clipPath>
    <clipPath id="clipPath244" clipPathUnits="userSpaceOnUse">
      <path style="clip-rule:evenodd" id="path246" d="m 53.179,262.99 520.42,0 0,317.43 -520.42,0 0,-317.43 z"/>
    </clipPath>
    <clipPath id="clipPath256" clipPathUnits="userSpaceOnUse">
      <path style="clip-rule:evenodd" id="path258" d="m 53.179,262.99 520.42,0 0,317.43 -520.42,0 0,-317.43 z"/>
    </clipPath>
    <clipPath id="clipPath268" clipPathUnits="userSpaceOnUse">
      <path style="clip-rule:evenodd" id="path270" d="m 53.135,580.53 520.375,0 0,-317.5 -520.375,0 0,317.5 z"/>
    </clipPath>
    <clipPath id="clipPath278" clipPathUnits="userSpaceOnUse">
      <path style="clip-rule:evenodd" id="path280" d="m 53.135,580.53 520.375,0 0,-317.5 -520.375,0 0,317.5 z"/>
    </clipPath>
    <clipPath id="clipPath288" clipPathUnits="userSpaceOnUse">
      <path style="clip-rule:evenodd" id="path290" d="m 573.51,580.53 0,-317.5 -520.375,0 0,317.5 520.375,0 z"/>
    </clipPath>
    <clipPath id="clipPath298" clipPathUnits="userSpaceOnUse">
      <path style="clip-rule:evenodd" id="path300" d="m 573.51,580.53 0,-317.5 -520.375,0 0,317.5 520.375,0 z"/>
    </clipPath>
    <clipPath id="clipPath308" clipPathUnits="userSpaceOnUse">
      <path style="clip-rule:evenodd" id="path310" d="m 53.135,580.53 520.375,0 0,-317.5 -520.375,0 0,317.5 z"/>
    </clipPath>
    <clipPath id="clipPath318" clipPathUnits="userSpaceOnUse">
      <path style="clip-rule:evenodd" id="path320" d="m 53.135,580.53 520.375,0 0,-317.5 -520.375,0 0,317.5 z"/>
    </clipPath>
    <clipPath id="clipPath328" clipPathUnits="userSpaceOnUse">
      <path style="clip-rule:evenodd" id="path330" d="m 53.135,580.53 520.375,0 0,-317.5 -520.375,0 0,317.5 z"/>
    </clipPath>
    <clipPath id="clipPath338" clipPathUnits="userSpaceOnUse">
      <path style="clip-rule:evenodd" id="path340" d="m 53.135,580.53 520.375,0 0,-317.5 -520.375,0 0,317.5 z"/>
    </clipPath>
    <clipPath id="clipPath348" clipPathUnits="userSpaceOnUse">
      <path style="clip-rule:evenodd" id="path350" d="m 573.51,580.53 0,-317.5 -520.375,0 0,317.5 520.375,0 z"/>
    </clipPath>
    <clipPath id="clipPath358" clipPathUnits="userSpaceOnUse">
      <path style="clip-rule:evenodd" id="path360" d="m 573.51,580.53 0,-317.5 -520.375,0 0,317.5 520.375,0 z"/>
    </clipPath>
    <clipPath id="clipPath368" clipPathUnits="userSpaceOnUse">
      <path style="clip-rule:evenodd" id="path370" d="m 53.179,262.99 520.42,0 0,317.43 -520.42,0 0,-317.43 z"/>
    </clipPath>
    <clipPath id="clipPath382" clipPathUnits="userSpaceOnUse">
      <path style="clip-rule:evenodd" id="path384" d="m 53.179,538.61 468.76,0 0,24.253 -468.76,0 0,-24.253 z"/>
    </clipPath>
    <clipPath id="clipPath396" clipPathUnits="userSpaceOnUse">
      <path style="clip-rule:evenodd" id="path398" d="m 53.179,262.86 520.42,0 0,317.56 -520.42,0 0,-317.56 z"/>
    </clipPath>
  </defs>
  <g transform="matrix(1.25,0,0,-1.25,0,1107.7875)" id="g10">
    <g id="g12">
      <g clip-path="url(#clipPath16)" id="g14">
        <path id="path20" style="fill:none;stroke:#000000;stroke-width:0.14;stroke-linecap:butt;stroke-linejoin:miter;stroke-miterlimit:10;stroke-dasharray:none;stroke-opacity:0" d="m 53.232,262.97 520.33,0 0,317.43 -520.33,0 0,-317.43 z"/>
      </g>
    </g>
    <path id="path22" style="fill:#ffffff;fill-opacity:1;fill-rule:evenodd;stroke:none" d="m 53.232,262.97 520.33,0 0,317.43 -520.33,0 0,-317.43 z"/>
    <path id="path24" style="fill:#e7e6e6;fill-opacity:1;fill-rule:evenodd;stroke:none" d="m 267.76,382.14 13.652,0 0,20.825 -13.652,0 0,-20.825 z"/>
    <path id="path26" style="fill:#e7e6e6;fill-opacity:1;fill-rule:evenodd;stroke:none" d="m 354.86,382.14 13.652,0 0,12.272 -13.652,0 0,-12.272 z"/>
    <path id="path28" style="fill:#e7e6e6;fill-opacity:1;fill-rule:evenodd;stroke:none" d="m 441.96,382.14 13.652,0 0,2.7891 -13.652,0 0,-2.7891 z"/>
    <path id="path30" style="fill:#e7e6e6;fill-opacity:1;fill-rule:evenodd;stroke:none" d="m 485.51,382.14 13.652,0 0,1.1156 -13.652,0 0,-1.1156 z"/>
    <path id="path32" style="fill:#00b0f0;fill-opacity:1;fill-rule:nonzero;stroke:none" d="m 137.1,516.93 13.64,0 0,-134.79 -13.64,0 0,134.79 z m 43.5,-87.87 13.64,0 0,-46.92 -13.64,0 0,46.92 z m 43.68,-23.14 13.63,0 0,-23.78 -13.63,0 0,23.78 z m 87,-4.66 13.64,0 0,-19.12 -13.64,0 0,19.12 z m 87.18,-14.67 13.64,0 0,-4.45 -13.64,0 0,4.45 z m 130.68,-3.63 13.64,0 0,-0.82 -13.64,0 0,0.82 z"/>
    <path id="path34" style="fill:none;stroke:#d9d9d9;stroke-width:1.02509999;stroke-linecap:butt;stroke-linejoin:round;stroke-miterlimit:10;stroke-dasharray:none;stroke-opacity:1" d="m 122.15,382.14 435.51,0"/>
    <g id="g36">
      <g clip-path="url(#clipPath40)" id="g38"><text id="text44" style="font-variant:normal;font-weight:normal;font-size:10.88399982px;font-family:Roboto;-inkscape-font-specification:Roboto;writing-mode:lr-tb;fill:#000000;fill-opacity:1;fill-rule:nonzero;stroke:none" transform="matrix(1,0,0,-1,134.86,525.81)"><tspan id="tspan46" y="0" x="0 6.0420079 12.084016">145</tspan></text>
</g>
    </g>
    <g id="g48">
      <g clip-path="url(#clipPath52)" id="g50"><text id="text56" style="font-variant:normal;font-weight:normal;font-size:10.88399982px;font-family:Roboto;-inkscape-font-specification:Roboto;writing-mode:lr-tb;fill:#000000;fill-opacity:1;fill-rule:nonzero;stroke:none" transform="matrix(1,0,0,-1,176.86,437.85)"><tspan id="tspan58" y="0" x="0 6.0406199 12.08124 15.01992">50.4</tspan></text>
</g>
    </g>
    <g id="g60">
      <g clip-path="url(#clipPath64)" id="g62"><text id="text68" style="font-variant:normal;font-weight:normal;font-size:10.86299992px;font-family:Roboto;-inkscape-font-specification:Roboto;writing-mode:lr-tb;fill:#000000;fill-opacity:1;fill-rule:nonzero;stroke:none" transform="matrix(1,0,0,-1,220.42,414.69)"><tspan id="tspan70" y="0" x="0 6.061554 12.123108 15.056118">25.5</tspan></text>
</g>
    </g>
    <g id="g72">
      <g clip-path="url(#clipPath76)" id="g74"><text id="text80" style="font-variant:normal;font-weight:normal;font-size:10.86299992px;font-family:Roboto;-inkscape-font-specification:Roboto;writing-mode:lr-tb;fill:#000000;fill-opacity:1;fill-rule:nonzero;stroke:none" transform="matrix(1,0,0,-1,264,411.81)"><tspan id="tspan82" y="0" x="0 6.0398278 12.079656 14.99094">22.4</tspan></text>
</g>
    </g>
    <g id="g84">
      <g clip-path="url(#clipPath88)" id="g86"><text id="text92" style="font-variant:normal;font-weight:normal;font-size:10.88399982px;font-family:Roboto;-inkscape-font-specification:Roboto;writing-mode:lr-tb;fill:#000000;fill-opacity:1;fill-rule:nonzero;stroke:none" transform="matrix(1,0,0,-1,307.56,410.15)"><tspan id="tspan94" y="0" x="0 6.0406199 12.08124 14.998152">20.6</tspan></text>
</g>
    </g>
    <g id="g96">
      <g clip-path="url(#clipPath100)" id="g98"><text id="text104" style="font-variant:normal;font-weight:normal;font-size:10.88399982px;font-family:Roboto;-inkscape-font-specification:Roboto;writing-mode:lr-tb;fill:#000000;fill-opacity:1;fill-rule:nonzero;stroke:none" transform="matrix(1,0,0,-1,351.12,403.26)"><tspan id="tspan106" y="0" x="0 6.0406199 12.08124 14.998152">13.2</tspan></text>
</g>
    </g>
    <g id="g108">
      <g clip-path="url(#clipPath112)" id="g110"><text id="text116" style="font-variant:normal;font-weight:normal;font-size:10.88399982px;font-family:Roboto;-inkscape-font-specification:Roboto;writing-mode:lr-tb;fill:#000000;fill-opacity:1;fill-rule:nonzero;stroke:none" transform="matrix(1,0,0,-1,397.79,395.45)"><tspan id="tspan118" y="0" x="0 6.0406199 8.9575319">4.8</tspan></text>
</g>
    </g>
    <g id="g120">
      <g clip-path="url(#clipPath124)" id="g122"><text id="text128" style="font-variant:normal;font-weight:normal;font-size:10.88399982px;font-family:Roboto;-inkscape-font-specification:Roboto;writing-mode:lr-tb;fill:#000000;fill-opacity:1;fill-rule:nonzero;stroke:none" transform="matrix(1,0,0,-1,445.83,393.79)"><tspan id="tspan130" y="0" x="0">3</tspan></text>
</g>
    </g>
    <g id="g132">
      <g clip-path="url(#clipPath136)" id="g134"><text id="text140" style="font-variant:normal;font-weight:normal;font-size:10.88399982px;font-family:Roboto;-inkscape-font-specification:Roboto;writing-mode:lr-tb;fill:#000000;fill-opacity:1;fill-rule:nonzero;stroke:none" transform="matrix(1,0,0,-1,484.91,392.11)"><tspan id="tspan142" y="0" x="0 6.0406199 8.9575319">1.2</tspan></text>
</g>
    </g>
    <g id="g144">
      <g clip-path="url(#clipPath148)" id="g146"><text id="text152" style="font-variant:normal;font-weight:normal;font-size:10.88399982px;font-family:Roboto;-inkscape-font-specification:Roboto;writing-mode:lr-tb;fill:#000000;fill-opacity:1;fill-rule:nonzero;stroke:none" transform="matrix(1,0,0,-1,528.46,391.83)"><tspan id="tspan154" y="0" x="0 6.0406199 8.9792995">0.9</tspan></text>
</g>
    </g>
    <g id="g156">
      <g clip-path="url(#clipPath160)" id="g158"><text id="text164" style="font-variant:normal;font-weight:normal;font-size:12.27400017px;font-family:Roboto;-inkscape-font-specification:Roboto;writing-mode:lr-tb;fill:#000000;fill-opacity:1;fill-rule:nonzero;stroke:none" transform="matrix(1,0,0,-1,103.98,378.34)"><tspan id="tspan166" y="0" x="0">0</tspan></text>
</g>
    </g>
    <g id="g168">
      <g clip-path="url(#clipPath172)" id="g170"><text id="text176" style="font-variant:normal;font-weight:normal;font-size:12.25300026px;font-family:Roboto;-inkscape-font-specification:Roboto;writing-mode:lr-tb;fill:#000000;fill-opacity:1;fill-rule:nonzero;stroke:none" transform="matrix(1,0,0,-1,97.053,396.93)"><tspan id="tspan178" y="0" x="0 6.9054861">20</tspan></text>
</g>
    </g>
    <g id="g180">
      <g clip-path="url(#clipPath184)" id="g182"><text id="text188" style="font-variant:normal;font-weight:normal;font-size:12.25300026px;font-family:Roboto;-inkscape-font-specification:Roboto;writing-mode:lr-tb;fill:#000000;fill-opacity:1;fill-rule:nonzero;stroke:none" transform="matrix(1,0,0,-1,97.053,415.52)"><tspan id="tspan190" y="0" x="0 6.9054861">40</tspan></text>
</g>
    </g>
    <g id="g192">
      <g clip-path="url(#clipPath196)" id="g194"><text id="text200" style="font-variant:normal;font-weight:normal;font-size:12.27400017px;font-family:Roboto;-inkscape-font-specification:Roboto;writing-mode:lr-tb;fill:#000000;fill-opacity:1;fill-rule:nonzero;stroke:none" transform="matrix(1,0,0,-1,97.053,434.13)"><tspan id="tspan202" y="0" x="0 6.9054379">60</tspan></text>
</g>
    </g>
    <g id="g204">
      <g clip-path="url(#clipPath208)" id="g206"><text id="text212" style="font-variant:normal;font-weight:normal;font-size:12.25300026px;font-family:Roboto;-inkscape-font-specification:Roboto;writing-mode:lr-tb;fill:#000000;fill-opacity:1;fill-rule:nonzero;stroke:none" transform="matrix(1,0,0,-1,97.053,452.72)"><tspan id="tspan214" y="0" x="0 6.9054861">80</tspan></text>
</g>
    </g>
    <g id="g216">
      <g clip-path="url(#clipPath220)" id="g218"><text id="text224" style="font-variant:normal;font-weight:normal;font-size:12.25300026px;font-family:Roboto;-inkscape-font-specification:Roboto;writing-mode:lr-tb;fill:#000000;fill-opacity:1;fill-rule:nonzero;stroke:none" transform="matrix(1,0,0,-1,90.147,471.31)"><tspan id="tspan226" y="0" x="0 6.9054861 13.810972">100</tspan></text>
</g>
    </g>
    <g id="g228">
      <g clip-path="url(#clipPath232)" id="g230"><text id="text236" style="font-variant:normal;font-weight:normal;font-size:12.27400017px;font-family:Roboto;-inkscape-font-specification:Roboto;writing-mode:lr-tb;fill:#000000;fill-opacity:1;fill-rule:nonzero;stroke:none" transform="matrix(1,0,0,-1,90.147,489.92)"><tspan id="tspan238" y="0" x="0 6.9054379 13.810876">120</tspan></text>
</g>
    </g>
    <g id="g240">
      <g clip-path="url(#clipPath244)" id="g242"><text id="text248" style="font-variant:normal;font-weight:normal;font-size:12.25300026px;font-family:Roboto;-inkscape-font-specification:Roboto;writing-mode:lr-tb;fill:#000000;fill-opacity:1;fill-rule:nonzero;stroke:none" transform="matrix(1,0,0,-1,90.147,508.51)"><tspan id="tspan250" y="0" x="0 6.9054861 13.810972">140</tspan></text>
</g>
    </g>
    <g id="g252">
      <g clip-path="url(#clipPath256)" id="g254"><text id="text260" style="font-variant:normal;font-weight:normal;font-size:12.25300026px;font-family:Roboto;-inkscape-font-specification:Roboto;writing-mode:lr-tb;fill:#000000;fill-opacity:1;fill-rule:nonzero;stroke:none" transform="matrix(1,0,0,-1,90.147,527.09)"><tspan id="tspan262" y="0" x="0 6.9054861 13.810972">160</tspan></text>
</g>
    </g>
    <g id="g264">
      <g clip-path="url(#clipPath268)" id="g266">
        <path id="path272" style="fill:#000000;fill-opacity:1;fill-rule:nonzero;stroke:none" d="m 109.67,341.88 5.46,-5.47 -0.72,-0.73 -5.47,5.47 0.73,0.73 z m 3.3,3.3 0.27,-4.82 0.05,-2.61 -0.89,0.66 -0.1,2.02 -0.2,3.88 0.87,0.87 z m 4.77,-6.17 -4.69,0.64 -0.15,1.01 5.7,-0.78 -0.86,-0.87 z m -1.86,6.27 4.06,-4.06 -0.7,-0.7 -4.06,4.06 0.7,0.7 z m -1.83,0.33 c -0.11,0.11 -0.17,0.24 -0.18,0.39 -0.01,0.14 0.05,0.28 0.19,0.42 0.13,0.13 0.27,0.19 0.42,0.19 0.15,-0.01 0.28,-0.07 0.39,-0.18 0.11,-0.11 0.17,-0.24 0.17,-0.38 0.01,-0.15 -0.06,-0.29 -0.19,-0.42 -0.14,-0.14 -0.28,-0.2 -0.42,-0.2 -0.15,0.01 -0.27,0.07 -0.38,0.18 z m 1.95,3.21 5.77,-5.77 -0.7,-0.7 -5.76,5.77 0.69,0.7 z m 4.8,-2.77 -0.09,0.09 c -0.29,0.29 -0.52,0.6 -0.68,0.94 -0.17,0.34 -0.27,0.68 -0.29,1.03 -0.03,0.34 0.02,0.68 0.14,1.01 0.13,0.34 0.33,0.64 0.61,0.93 0.29,0.28 0.6,0.49 0.93,0.61 0.33,0.13 0.67,0.18 1.02,0.15 0.35,-0.02 0.69,-0.12 1.03,-0.29 0.34,-0.16 0.65,-0.39 0.94,-0.68 l 0.09,-0.09 c 0.29,-0.29 0.52,-0.61 0.69,-0.94 0.16,-0.34 0.26,-0.68 0.28,-1.03 0.03,-0.35 -0.02,-0.69 -0.14,-1.02 -0.13,-0.33 -0.33,-0.64 -0.62,-0.92 -0.28,-0.29 -0.59,-0.49 -0.92,-0.61 -0.33,-0.13 -0.67,-0.18 -1.02,-0.15 -0.35,0.02 -0.69,0.12 -1.03,0.28 -0.33,0.17 -0.65,0.4 -0.94,0.69 z m 0.61,0.78 0.09,-0.09 c 0.2,-0.2 0.41,-0.37 0.64,-0.5 0.23,-0.13 0.46,-0.21 0.69,-0.26 0.23,-0.04 0.46,-0.02 0.69,0.04 0.22,0.07 0.43,0.2 0.62,0.39 0.19,0.19 0.32,0.4 0.39,0.62 0.06,0.22 0.07,0.45 0.03,0.68 -0.04,0.24 -0.13,0.47 -0.26,0.69 -0.13,0.23 -0.3,0.45 -0.5,0.65 l -0.08,0.09 c -0.21,0.2 -0.42,0.36 -0.65,0.49 -0.22,0.13 -0.46,0.22 -0.69,0.26 -0.24,0.04 -0.47,0.03 -0.69,-0.03 -0.22,-0.06 -0.43,-0.19 -0.63,-0.39 -0.19,-0.19 -0.31,-0.39 -0.38,-0.62 -0.06,-0.22 -0.07,-0.45 -0.03,-0.69 0.04,-0.23 0.13,-0.46 0.26,-0.69 0.13,-0.23 0.3,-0.44 0.5,-0.64 z m 9.46,8.79 0.72,0.72 c 0.3,-0.38 0.51,-0.79 0.63,-1.23 0.11,-0.43 0.1,-0.87 -0.03,-1.32 -0.14,-0.45 -0.42,-0.9 -0.86,-1.34 -0.32,-0.32 -0.67,-0.55 -1.06,-0.69 -0.38,-0.14 -0.77,-0.2 -1.18,-0.16 -0.41,0.03 -0.82,0.15 -1.24,0.36 -0.41,0.21 -0.81,0.51 -1.19,0.89 l -0.55,0.55 c -0.38,0.38 -0.68,0.78 -0.89,1.19 -0.21,0.42 -0.33,0.83 -0.36,1.24 -0.03,0.42 0.03,0.82 0.18,1.21 0.15,0.39 0.39,0.76 0.73,1.09 0.42,0.42 0.84,0.69 1.28,0.82 0.44,0.13 0.88,0.14 1.31,0.02 0.44,-0.11 0.85,-0.33 1.25,-0.66 l -0.72,-0.72 c -0.29,0.22 -0.58,0.38 -0.85,0.47 -0.28,0.09 -0.56,0.09 -0.84,0.02 -0.27,-0.08 -0.55,-0.26 -0.83,-0.54 -0.25,-0.24 -0.41,-0.5 -0.51,-0.78 -0.09,-0.27 -0.11,-0.56 -0.06,-0.85 0.04,-0.3 0.15,-0.6 0.33,-0.9 0.17,-0.3 0.41,-0.59 0.7,-0.88 l 0.55,-0.55 c 0.27,-0.27 0.55,-0.5 0.84,-0.68 0.29,-0.17 0.58,-0.29 0.88,-0.36 0.29,-0.06 0.58,-0.05 0.85,0.02 0.28,0.08 0.54,0.24 0.79,0.48 0.31,0.31 0.5,0.6 0.59,0.88 0.08,0.28 0.08,0.56 -0.01,0.84 -0.09,0.28 -0.24,0.56 -0.45,0.86 z m 1.28,1.78 -0.08,0.09 c -0.29,0.29 -0.52,0.61 -0.69,0.94 -0.17,0.34 -0.26,0.68 -0.29,1.03 -0.03,0.35 0.02,0.69 0.15,1.02 0.12,0.33 0.32,0.64 0.61,0.92 0.28,0.28 0.59,0.49 0.92,0.62 0.34,0.12 0.68,0.17 1.03,0.15 0.34,-0.03 0.69,-0.13 1.02,-0.29 0.34,-0.17 0.65,-0.4 0.95,-0.69 l 0.08,-0.09 c 0.3,-0.29 0.53,-0.6 0.69,-0.94 0.17,-0.34 0.26,-0.68 0.29,-1.03 0.02,-0.34 -0.03,-0.68 -0.15,-1.01 -0.12,-0.33 -0.33,-0.64 -0.61,-0.93 -0.29,-0.28 -0.6,-0.49 -0.93,-0.61 -0.33,-0.12 -0.67,-0.17 -1.02,-0.15 -0.35,0.03 -0.69,0.12 -1.02,0.29 -0.34,0.16 -0.65,0.39 -0.95,0.68 z m 0.61,0.78 0.09,-0.08 c 0.2,-0.2 0.42,-0.37 0.64,-0.5 0.23,-0.13 0.46,-0.22 0.69,-0.26 0.24,-0.04 0.47,-0.03 0.69,0.04 0.23,0.06 0.43,0.19 0.63,0.38 0.19,0.19 0.32,0.4 0.38,0.62 0.07,0.23 0.08,0.45 0.03,0.69 -0.04,0.23 -0.12,0.46 -0.26,0.69 -0.13,0.23 -0.29,0.44 -0.49,0.64 l -0.09,0.09 c -0.2,0.2 -0.42,0.37 -0.64,0.5 -0.23,0.13 -0.46,0.21 -0.7,0.26 -0.23,0.04 -0.46,0.03 -0.69,-0.04 -0.22,-0.06 -0.43,-0.19 -0.62,-0.38 -0.19,-0.19 -0.32,-0.4 -0.38,-0.62 -0.07,-0.23 -0.08,-0.46 -0.04,-0.69 0.05,-0.24 0.13,-0.47 0.27,-0.7 0.13,-0.22 0.29,-0.44 0.49,-0.64 z m 7.73,5.17 -4.98,4.98 0.7,0.69 5.77,-5.76 -0.64,-0.64 -0.85,0.73 z m -3.93,-1.54 -0.08,0.08 c -0.31,0.31 -0.55,0.63 -0.73,0.96 -0.18,0.33 -0.29,0.66 -0.33,0.98 -0.04,0.33 -0.01,0.64 0.09,0.93 0.09,0.3 0.26,0.57 0.51,0.81 0.25,0.25 0.52,0.43 0.8,0.54 0.28,0.1 0.57,0.13 0.88,0.1 0.3,-0.04 0.61,-0.14 0.92,-0.3 0.32,-0.16 0.64,-0.37 0.97,-0.64 l 0.35,-0.35 c 0.27,-0.32 0.48,-0.64 0.64,-0.96 0.16,-0.32 0.26,-0.63 0.29,-0.93 0.03,-0.3 0,-0.59 -0.1,-0.87 -0.11,-0.28 -0.29,-0.55 -0.55,-0.81 -0.24,-0.24 -0.5,-0.41 -0.8,-0.5 -0.3,-0.09 -0.62,-0.12 -0.94,-0.08 -0.33,0.05 -0.66,0.16 -0.98,0.33 -0.33,0.18 -0.64,0.41 -0.94,0.71 z m 0.62,0.78 0.08,-0.08 c 0.2,-0.2 0.41,-0.37 0.63,-0.51 0.22,-0.14 0.44,-0.23 0.67,-0.28 0.22,-0.04 0.44,-0.04 0.65,0.02 0.21,0.06 0.41,0.18 0.6,0.37 0.23,0.23 0.37,0.47 0.42,0.72 0.05,0.24 0.04,0.49 -0.03,0.74 -0.07,0.25 -0.17,0.5 -0.31,0.73 l -0.91,0.91 c -0.16,0.11 -0.34,0.2 -0.53,0.27 -0.18,0.07 -0.37,0.11 -0.56,0.13 -0.19,0.01 -0.38,-0.02 -0.57,-0.09 -0.19,-0.07 -0.37,-0.19 -0.54,-0.36 -0.2,-0.19 -0.32,-0.4 -0.38,-0.61 -0.05,-0.22 -0.06,-0.44 -0.01,-0.66 0.05,-0.23 0.14,-0.45 0.28,-0.67 0.14,-0.22 0.31,-0.43 0.51,-0.63 z m 7.57,3.29 c -0.28,-0.28 -0.58,-0.49 -0.91,-0.62 -0.32,-0.14 -0.66,-0.2 -0.99,-0.19 -0.34,0.02 -0.68,0.1 -1.01,0.25 -0.32,0.15 -0.63,0.37 -0.92,0.66 l -0.15,0.16 c -0.33,0.33 -0.58,0.67 -0.74,1.03 -0.16,0.35 -0.25,0.71 -0.26,1.05 -0.02,0.35 0.04,0.68 0.16,0.98 0.12,0.31 0.29,0.58 0.52,0.8 0.29,0.29 0.59,0.49 0.9,0.61 0.32,0.11 0.63,0.14 0.94,0.1 0.32,-0.05 0.63,-0.16 0.93,-0.33 0.31,-0.18 0.61,-0.41 0.89,-0.7 l 0.31,-0.31 -3.03,-3.03 -0.57,0.57 2.34,2.33 -0.05,0.06 c -0.19,0.17 -0.4,0.31 -0.64,0.41 -0.23,0.11 -0.47,0.15 -0.72,0.12 -0.25,-0.03 -0.49,-0.16 -0.73,-0.4 -0.16,-0.16 -0.27,-0.33 -0.33,-0.53 -0.07,-0.2 -0.09,-0.41 -0.05,-0.64 0.03,-0.22 0.12,-0.46 0.25,-0.7 0.14,-0.24 0.33,-0.48 0.57,-0.73 l 0.16,-0.15 c 0.2,-0.2 0.4,-0.35 0.63,-0.47 0.22,-0.11 0.45,-0.18 0.68,-0.2 0.23,-0.03 0.46,0 0.68,0.07 0.22,0.08 0.42,0.21 0.62,0.4 0.24,0.25 0.4,0.51 0.47,0.78 0.07,0.27 0.08,0.55 0.04,0.85 l 0.76,0.08 c 0.04,-0.22 0.06,-0.46 0.04,-0.71 -0.01,-0.26 -0.08,-0.52 -0.2,-0.79 -0.12,-0.27 -0.32,-0.54 -0.59,-0.81 z"/>
      </g>
    </g>
    <g id="g274">
      <g clip-path="url(#clipPath278)" id="g276">
        <path id="path282" style="fill:#000000;fill-opacity:1;fill-rule:nonzero;stroke:none" d="m 151.93,340.59 1.81,1.81 c 0.41,0.41 0.82,0.69 1.23,0.85 0.41,0.16 0.81,0.19 1.2,0.1 0.39,-0.1 0.77,-0.32 1.12,-0.68 0.25,-0.25 0.43,-0.53 0.54,-0.84 0.1,-0.3 0.13,-0.62 0.09,-0.96 -0.05,-0.33 -0.17,-0.66 -0.36,-1 l -0.12,-0.28 -1.71,-1.7 -0.59,0.58 1.28,1.29 c 0.26,0.26 0.43,0.52 0.51,0.78 0.09,0.27 0.09,0.52 0.02,0.76 -0.06,0.25 -0.19,0.46 -0.38,0.65 -0.21,0.21 -0.43,0.35 -0.67,0.43 -0.24,0.07 -0.5,0.07 -0.76,-0.02 -0.26,-0.09 -0.53,-0.28 -0.81,-0.56 l -1.09,-1.08 4.88,-4.88 -0.73,-0.72 -5.46,5.47 z m 8.66,-2.28 -3.81,1.15 0.75,0.76 3.79,-1.09 0.04,-0.04 -0.77,-0.78 z m -0.71,3.27 -0.09,0.08 c -0.29,0.3 -0.52,0.61 -0.69,0.95 -0.16,0.34 -0.26,0.68 -0.28,1.02 -0.03,0.35 0.02,0.69 0.14,1.02 0.13,0.33 0.33,0.64 0.61,0.92 0.29,0.29 0.6,0.49 0.93,0.62 0.33,0.12 0.67,0.17 1.02,0.15 0.35,-0.03 0.69,-0.12 1.03,-0.29 0.33,-0.16 0.65,-0.39 0.94,-0.69 l 0.09,-0.08 c 0.29,-0.3 0.52,-0.61 0.69,-0.95 0.16,-0.33 0.26,-0.67 0.28,-1.02 0.03,-0.35 -0.02,-0.69 -0.14,-1.02 -0.13,-0.33 -0.33,-0.64 -0.62,-0.92 -0.28,-0.29 -0.59,-0.49 -0.92,-0.62 -0.33,-0.12 -0.67,-0.17 -1.02,-0.15 -0.35,0.03 -0.69,0.13 -1.03,0.29 -0.33,0.17 -0.65,0.39 -0.94,0.69 z m 0.61,0.78 0.08,-0.09 c 0.21,-0.2 0.42,-0.37 0.65,-0.5 0.23,-0.13 0.46,-0.22 0.69,-0.26 0.23,-0.04 0.46,-0.03 0.69,0.04 0.22,0.07 0.43,0.2 0.62,0.39 0.19,0.19 0.32,0.39 0.39,0.62 0.06,0.22 0.07,0.45 0.03,0.68 -0.04,0.23 -0.13,0.46 -0.26,0.69 -0.13,0.23 -0.3,0.45 -0.5,0.65 l -0.09,0.08 c -0.2,0.2 -0.41,0.37 -0.64,0.5 -0.23,0.13 -0.46,0.22 -0.69,0.26 -0.24,0.04 -0.47,0.03 -0.69,-0.03 -0.23,-0.07 -0.43,-0.19 -0.63,-0.39 -0.19,-0.19 -0.31,-0.39 -0.38,-0.62 -0.06,-0.22 -0.07,-0.45 -0.03,-0.69 0.04,-0.23 0.13,-0.46 0.26,-0.69 0.13,-0.23 0.3,-0.44 0.5,-0.64 z m 3.78,3.61 -0.08,0.09 c -0.29,0.29 -0.52,0.61 -0.69,0.94 -0.17,0.34 -0.26,0.68 -0.29,1.03 -0.03,0.35 0.02,0.68 0.15,1.02 0.12,0.33 0.32,0.64 0.61,0.92 0.28,0.28 0.59,0.49 0.92,0.61 0.34,0.13 0.68,0.18 1.03,0.15 0.34,-0.02 0.69,-0.12 1.02,-0.28 0.34,-0.17 0.65,-0.4 0.95,-0.69 l 0.08,-0.09 c 0.3,-0.29 0.53,-0.61 0.69,-0.94 0.17,-0.34 0.26,-0.68 0.29,-1.03 0.02,-0.34 -0.03,-0.68 -0.15,-1.01 -0.12,-0.33 -0.33,-0.64 -0.61,-0.93 -0.29,-0.28 -0.6,-0.49 -0.93,-0.61 -0.33,-0.13 -0.67,-0.18 -1.02,-0.15 -0.35,0.02 -0.69,0.12 -1.02,0.29 -0.34,0.16 -0.65,0.39 -0.95,0.68 z m 0.61,0.78 0.09,-0.08 c 0.2,-0.21 0.42,-0.37 0.64,-0.5 0.23,-0.14 0.46,-0.22 0.69,-0.26 0.24,-0.04 0.47,-0.03 0.69,0.03 0.23,0.07 0.43,0.2 0.63,0.39 0.19,0.19 0.32,0.4 0.38,0.62 0.07,0.23 0.08,0.45 0.03,0.69 -0.04,0.23 -0.12,0.46 -0.26,0.69 -0.13,0.23 -0.29,0.44 -0.49,0.64 l -0.09,0.09 c -0.2,0.2 -0.42,0.37 -0.64,0.5 -0.23,0.13 -0.46,0.21 -0.7,0.25 -0.23,0.05 -0.46,0.04 -0.69,-0.03 -0.22,-0.06 -0.43,-0.19 -0.62,-0.38 -0.19,-0.19 -0.32,-0.4 -0.38,-0.62 -0.07,-0.23 -0.08,-0.46 -0.04,-0.69 0.05,-0.24 0.13,-0.47 0.27,-0.7 0.13,-0.22 0.29,-0.44 0.49,-0.64 z m 9.58,8.91 0.72,0.72 c 0.31,-0.38 0.52,-0.79 0.63,-1.22 0.12,-0.43 0.11,-0.88 -0.03,-1.33 -0.13,-0.45 -0.42,-0.89 -0.86,-1.33 -0.32,-0.32 -0.67,-0.55 -1.05,-0.7 -0.38,-0.14 -0.78,-0.19 -1.19,-0.16 -0.41,0.04 -0.82,0.16 -1.23,0.37 -0.41,0.21 -0.81,0.51 -1.19,0.89 l -0.55,0.54 c -0.38,0.39 -0.68,0.78 -0.89,1.2 -0.21,0.41 -0.33,0.82 -0.36,1.24 -0.03,0.41 0.03,0.82 0.18,1.21 0.15,0.39 0.39,0.75 0.73,1.09 0.41,0.41 0.84,0.68 1.28,0.81 0.44,0.13 0.88,0.14 1.31,0.03 0.43,-0.12 0.85,-0.34 1.25,-0.66 l -0.72,-0.72 c -0.29,0.22 -0.58,0.37 -0.86,0.46 -0.28,0.09 -0.55,0.1 -0.83,0.02 -0.28,-0.07 -0.55,-0.25 -0.84,-0.53 -0.24,-0.25 -0.41,-0.51 -0.5,-0.78 -0.09,-0.28 -0.11,-0.57 -0.07,-0.86 0.05,-0.29 0.16,-0.59 0.34,-0.89 0.17,-0.3 0.4,-0.6 0.69,-0.89 l 0.56,-0.55 c 0.26,-0.27 0.54,-0.49 0.84,-0.67 0.29,-0.18 0.58,-0.3 0.87,-0.36 0.3,-0.07 0.58,-0.06 0.86,0.02 0.28,0.07 0.54,0.23 0.78,0.48 0.31,0.31 0.51,0.6 0.59,0.88 0.09,0.28 0.09,0.56 0,0.84 -0.09,0.27 -0.24,0.56 -0.46,0.85 z m 1.17,1.67 -0.09,0.08 c -0.29,0.3 -0.52,0.61 -0.69,0.95 -0.16,0.33 -0.26,0.68 -0.29,1.02 -0.02,0.35 0.03,0.69 0.15,1.02 0.12,0.33 0.33,0.64 0.61,0.92 0.29,0.29 0.6,0.49 0.93,0.62 0.33,0.12 0.67,0.17 1.02,0.15 0.35,-0.03 0.69,-0.12 1.03,-0.29 0.33,-0.17 0.65,-0.4 0.94,-0.69 l 0.09,-0.08 c 0.29,-0.3 0.52,-0.61 0.69,-0.95 0.16,-0.33 0.26,-0.67 0.28,-1.02 0.03,-0.35 -0.02,-0.69 -0.15,-1.02 -0.12,-0.33 -0.32,-0.64 -0.61,-0.92 -0.28,-0.29 -0.59,-0.49 -0.92,-0.62 -0.34,-0.12 -0.68,-0.17 -1.02,-0.15 -0.35,0.03 -0.69,0.12 -1.03,0.29 -0.33,0.16 -0.65,0.39 -0.94,0.69 z m 0.61,0.78 0.08,-0.09 c 0.21,-0.2 0.42,-0.37 0.65,-0.5 0.22,-0.13 0.45,-0.22 0.69,-0.26 0.23,-0.04 0.46,-0.03 0.69,0.04 0.22,0.06 0.43,0.19 0.62,0.39 0.19,0.19 0.32,0.39 0.38,0.62 0.07,0.22 0.08,0.45 0.04,0.68 -0.04,0.23 -0.13,0.46 -0.26,0.69 -0.13,0.23 -0.3,0.44 -0.5,0.65 l -0.09,0.08 c -0.2,0.2 -0.41,0.37 -0.64,0.5 -0.23,0.13 -0.46,0.22 -0.69,0.26 -0.24,0.04 -0.47,0.03 -0.69,-0.03 -0.23,-0.07 -0.44,-0.2 -0.63,-0.39 -0.19,-0.19 -0.32,-0.4 -0.38,-0.62 -0.06,-0.22 -0.07,-0.45 -0.03,-0.69 0.04,-0.23 0.13,-0.47 0.26,-0.69 0.13,-0.23 0.3,-0.44 0.5,-0.64 z m 7.73,5.16 -4.98,4.98 0.7,0.7 5.76,-5.77 -0.63,-0.64 -0.85,0.73 z m -3.94,-1.54 -0.07,0.08 c -0.31,0.31 -0.56,0.63 -0.74,0.96 -0.17,0.33 -0.28,0.66 -0.32,0.99 -0.05,0.32 -0.02,0.63 0.08,0.92 0.1,0.3 0.27,0.57 0.51,0.81 0.26,0.26 0.52,0.44 0.8,0.54 0.28,0.1 0.58,0.14 0.88,0.1 0.3,-0.03 0.61,-0.13 0.93,-0.29 0.31,-0.16 0.64,-0.38 0.97,-0.65 l 0.34,-0.34 c 0.27,-0.33 0.49,-0.65 0.65,-0.97 0.15,-0.31 0.25,-0.62 0.28,-0.92 0.04,-0.31 0,-0.6 -0.1,-0.88 -0.1,-0.28 -0.29,-0.55 -0.54,-0.81 -0.24,-0.24 -0.51,-0.4 -0.81,-0.5 -0.3,-0.09 -0.61,-0.12 -0.94,-0.07 -0.32,0.04 -0.65,0.15 -0.98,0.33 -0.33,0.17 -0.64,0.41 -0.94,0.7 z m 0.62,0.78 0.08,-0.08 c 0.21,-0.2 0.42,-0.37 0.64,-0.51 0.22,-0.13 0.44,-0.23 0.66,-0.27 0.22,-0.05 0.44,-0.05 0.65,0.01 0.21,0.06 0.41,0.19 0.6,0.37 0.23,0.23 0.37,0.47 0.42,0.72 0.05,0.25 0.04,0.49 -0.03,0.74 -0.07,0.25 -0.17,0.5 -0.31,0.74 l -0.9,0.9 c -0.17,0.11 -0.35,0.2 -0.53,0.27 -0.19,0.07 -0.38,0.12 -0.57,0.13 -0.19,0.01 -0.38,-0.02 -0.56,-0.09 -0.19,-0.06 -0.38,-0.19 -0.55,-0.36 -0.19,-0.19 -0.32,-0.39 -0.37,-0.61 -0.06,-0.21 -0.06,-0.43 -0.02,-0.66 0.05,-0.22 0.15,-0.44 0.28,-0.67 0.14,-0.22 0.31,-0.43 0.51,-0.63 z m 7.7,3.41 c -0.28,-0.28 -0.59,-0.49 -0.91,-0.62 -0.33,-0.13 -0.66,-0.19 -1,-0.18 -0.34,0.01 -0.67,0.09 -1,0.25 -0.33,0.15 -0.63,0.37 -0.92,0.65 l -0.16,0.16 c -0.33,0.33 -0.57,0.67 -0.74,1.03 -0.16,0.36 -0.24,0.71 -0.26,1.06 -0.01,0.35 0.04,0.67 0.16,0.98 0.13,0.3 0.3,0.57 0.53,0.8 0.29,0.29 0.59,0.49 0.9,0.6 0.31,0.11 0.62,0.15 0.94,0.1 0.31,-0.04 0.62,-0.15 0.93,-0.33 0.31,-0.17 0.6,-0.41 0.89,-0.69 l 0.31,-0.31 -3.03,-3.04 -0.57,0.57 2.34,2.34 -0.05,0.05 c -0.19,0.17 -0.41,0.31 -0.64,0.42 -0.23,0.1 -0.48,0.14 -0.72,0.12 -0.25,-0.03 -0.49,-0.16 -0.73,-0.4 -0.16,-0.16 -0.27,-0.34 -0.34,-0.54 -0.06,-0.2 -0.08,-0.41 -0.05,-0.63 0.04,-0.23 0.12,-0.46 0.26,-0.7 0.14,-0.24 0.33,-0.49 0.57,-0.73 l 0.16,-0.16 c 0.19,-0.19 0.4,-0.35 0.62,-0.46 0.22,-0.12 0.45,-0.19 0.68,-0.21 0.24,-0.02 0.46,0 0.68,0.08 0.22,0.08 0.43,0.21 0.62,0.4 0.25,0.24 0.4,0.5 0.47,0.77 0.07,0.27 0.09,0.56 0.05,0.85 l 0.75,0.09 c 0.05,-0.22 0.06,-0.46 0.05,-0.72 -0.02,-0.25 -0.08,-0.51 -0.21,-0.79 -0.12,-0.27 -0.31,-0.54 -0.58,-0.81 z"/>
      </g>
    </g>
    <g id="g284">
      <g clip-path="url(#clipPath288)" id="g286">
        <path id="path292" style="fill:#000000;fill-opacity:1;fill-rule:nonzero;stroke:none" d="m 218.75,356.41 0.73,0.72 c 0.3,-0.39 0.51,-0.79 0.63,-1.23 0.11,-0.43 0.1,-0.87 -0.04,-1.33 -0.13,-0.45 -0.42,-0.89 -0.85,-1.33 -0.32,-0.32 -0.67,-0.55 -1.06,-0.69 -0.38,-0.14 -0.77,-0.2 -1.18,-0.16 -0.41,0.03 -0.82,0.15 -1.24,0.36 -0.41,0.21 -0.81,0.51 -1.19,0.89 l -0.55,0.55 c -0.38,0.38 -0.68,0.78 -0.89,1.19 -0.21,0.41 -0.33,0.83 -0.36,1.24 -0.03,0.42 0.03,0.82 0.18,1.21 0.15,0.39 0.39,0.75 0.73,1.09 0.42,0.41 0.84,0.69 1.28,0.82 0.44,0.13 0.88,0.13 1.31,0.02 0.44,-0.12 0.85,-0.34 1.25,-0.66 l -0.72,-0.72 c -0.29,0.22 -0.58,0.38 -0.86,0.46 -0.27,0.09 -0.55,0.1 -0.83,0.03 -0.27,-0.08 -0.55,-0.26 -0.83,-0.54 -0.25,-0.24 -0.41,-0.5 -0.51,-0.78 -0.09,-0.28 -0.11,-0.56 -0.06,-0.86 0.04,-0.29 0.15,-0.59 0.33,-0.89 0.17,-0.3 0.41,-0.59 0.7,-0.89 l 0.55,-0.55 c 0.27,-0.27 0.55,-0.49 0.84,-0.67 0.29,-0.18 0.58,-0.3 0.88,-0.36 0.29,-0.06 0.57,-0.06 0.85,0.02 0.28,0.08 0.54,0.24 0.79,0.48 0.31,0.31 0.5,0.6 0.59,0.88 0.08,0.28 0.08,0.56 -0.01,0.84 -0.09,0.27 -0.24,0.56 -0.46,0.86 z m -1.67,6.38 5.77,-5.77 -0.7,-0.7 -5.77,5.77 0.7,0.7 z m 3.66,0.25 4.06,-4.07 -0.7,-0.69 -4.06,4.06 0.7,0.7 z m -1.83,0.32 c -0.11,0.12 -0.17,0.25 -0.18,0.39 -0.01,0.15 0.05,0.29 0.19,0.43 0.13,0.13 0.27,0.19 0.42,0.19 0.15,-0.01 0.28,-0.07 0.39,-0.18 0.11,-0.11 0.16,-0.24 0.17,-0.39 0.01,-0.14 -0.06,-0.28 -0.19,-0.42 -0.14,-0.13 -0.28,-0.2 -0.42,-0.19 -0.15,0.01 -0.27,0.07 -0.38,0.17 z m 4.47,0.58 3.19,-3.19 -0.69,-0.7 -4.07,4.06 0.66,0.66 0.91,-0.83 z m 0.84,-1.17 -0.3,-0.28 c -0.27,0.28 -0.49,0.58 -0.65,0.89 -0.15,0.32 -0.25,0.64 -0.28,0.96 -0.03,0.32 0.01,0.63 0.12,0.93 0.1,0.29 0.28,0.57 0.52,0.81 0.2,0.2 0.41,0.36 0.62,0.46 0.22,0.11 0.44,0.16 0.67,0.16 0.23,-0.01 0.47,-0.07 0.72,-0.2 0.25,-0.13 0.5,-0.32 0.77,-0.59 l 2.66,-2.66 -0.7,-0.7 -2.67,2.67 c -0.21,0.21 -0.41,0.35 -0.6,0.42 -0.19,0.06 -0.38,0.07 -0.56,0 -0.18,-0.06 -0.35,-0.18 -0.53,-0.35 -0.17,-0.17 -0.29,-0.37 -0.36,-0.58 -0.07,-0.21 -0.09,-0.44 -0.07,-0.67 0.03,-0.22 0.1,-0.45 0.21,-0.67 0.1,-0.22 0.25,-0.42 0.43,-0.6 z m 7.69,3.16 c -0.28,-0.28 -0.59,-0.49 -0.91,-0.62 -0.33,-0.13 -0.66,-0.19 -1,-0.18 -0.34,0.01 -0.67,0.09 -1,0.25 -0.33,0.15 -0.63,0.37 -0.92,0.65 l -0.16,0.16 c -0.33,0.33 -0.57,0.67 -0.73,1.03 -0.17,0.36 -0.25,0.71 -0.27,1.06 -0.01,0.35 0.05,0.67 0.17,0.98 0.12,0.3 0.29,0.57 0.52,0.8 0.29,0.29 0.59,0.49 0.9,0.6 0.31,0.11 0.63,0.15 0.94,0.1 0.31,-0.04 0.62,-0.15 0.93,-0.33 0.31,-0.17 0.6,-0.41 0.89,-0.69 l 0.31,-0.31 -3.03,-3.04 -0.57,0.57 2.34,2.34 -0.05,0.05 c -0.19,0.17 -0.41,0.31 -0.64,0.42 -0.23,0.1 -0.47,0.14 -0.72,0.12 -0.25,-0.03 -0.49,-0.16 -0.73,-0.4 -0.16,-0.16 -0.27,-0.34 -0.34,-0.54 -0.06,-0.2 -0.08,-0.41 -0.04,-0.63 0.03,-0.23 0.12,-0.46 0.25,-0.7 0.14,-0.24 0.33,-0.49 0.57,-0.73 l 0.16,-0.16 c 0.19,-0.19 0.4,-0.35 0.62,-0.46 0.23,-0.12 0.45,-0.19 0.68,-0.21 0.24,-0.02 0.46,0 0.68,0.08 0.23,0.08 0.43,0.21 0.62,0.4 0.25,0.24 0.41,0.5 0.48,0.77 0.07,0.27 0.08,0.56 0.04,0.85 l 0.76,0.09 c 0.04,-0.22 0.06,-0.46 0.04,-0.72 -0.01,-0.25 -0.08,-0.51 -0.2,-0.79 -0.13,-0.27 -0.32,-0.54 -0.59,-0.81 z"/>
      </g>
    </g>
    <g id="g294">
      <g clip-path="url(#clipPath298)" id="g296">
        <path id="path302" style="fill:#000000;fill-opacity:1;fill-rule:nonzero;stroke:none" d="m 235.91,330.82 -1.46,-1.46 -0.59,0.59 1.46,1.46 c 0.29,0.29 0.47,0.56 0.55,0.82 0.09,0.27 0.09,0.52 0.01,0.77 -0.08,0.24 -0.22,0.46 -0.42,0.67 -0.19,0.18 -0.41,0.32 -0.65,0.4 -0.25,0.09 -0.51,0.09 -0.79,0.02 -0.28,-0.08 -0.56,-0.25 -0.84,-0.54 l -1.29,-1.29 4.87,-4.87 -0.72,-0.73 -5.47,5.47 2.02,2.02 c 0.41,0.41 0.83,0.69 1.26,0.83 0.43,0.14 0.84,0.16 1.24,0.06 0.4,-0.11 0.76,-0.32 1.08,-0.64 0.36,-0.35 0.58,-0.73 0.68,-1.12 0.1,-0.4 0.07,-0.8 -0.08,-1.22 -0.16,-0.41 -0.45,-0.82 -0.86,-1.24 z m 6.61,3.71 -2.09,2.09 c -0.16,0.16 -0.33,0.27 -0.52,0.33 -0.18,0.05 -0.37,0.05 -0.56,-0.02 -0.19,-0.06 -0.38,-0.18 -0.57,-0.37 -0.18,-0.18 -0.3,-0.36 -0.37,-0.55 -0.07,-0.19 -0.1,-0.37 -0.07,-0.55 0.02,-0.17 0.09,-0.31 0.2,-0.42 l -0.69,-0.7 c -0.15,0.15 -0.25,0.33 -0.32,0.55 -0.07,0.22 -0.09,0.45 -0.07,0.71 0.03,0.26 0.11,0.52 0.24,0.79 0.13,0.27 0.31,0.52 0.56,0.77 0.3,0.3 0.61,0.51 0.93,0.63 0.33,0.13 0.66,0.16 0.99,0.08 0.33,-0.07 0.65,-0.26 0.95,-0.56 l 1.89,-1.89 c 0.14,-0.14 0.29,-0.27 0.47,-0.4 0.18,-0.13 0.34,-0.22 0.5,-0.29 l 0.06,-0.06 -0.72,-0.72 c -0.12,0.04 -0.25,0.12 -0.41,0.24 -0.15,0.11 -0.29,0.23 -0.4,0.34 z m -1.65,1.89 0.5,-0.48 -0.71,-0.7 c -0.19,-0.2 -0.35,-0.39 -0.48,-0.58 -0.12,-0.19 -0.21,-0.36 -0.25,-0.53 -0.04,-0.17 -0.04,-0.33 0,-0.48 0.03,-0.15 0.12,-0.28 0.24,-0.41 0.13,-0.13 0.27,-0.21 0.44,-0.26 0.16,-0.05 0.33,-0.04 0.51,0.01 0.18,0.06 0.35,0.17 0.52,0.34 0.21,0.21 0.36,0.44 0.43,0.7 0.07,0.25 0.09,0.49 0.06,0.72 -0.04,0.22 -0.11,0.4 -0.23,0.53 l 0.63,-0.04 c 0.09,-0.12 0.16,-0.28 0.21,-0.49 0.05,-0.2 0.07,-0.43 0.06,-0.67 -0.02,-0.25 -0.07,-0.5 -0.17,-0.75 -0.1,-0.25 -0.26,-0.49 -0.48,-0.71 -0.28,-0.28 -0.57,-0.46 -0.89,-0.56 -0.31,-0.1 -0.62,-0.12 -0.91,-0.05 -0.3,0.07 -0.56,0.21 -0.78,0.44 -0.22,0.22 -0.37,0.45 -0.45,0.7 -0.08,0.26 -0.1,0.52 -0.05,0.79 0.05,0.27 0.16,0.55 0.32,0.83 0.17,0.28 0.39,0.56 0.67,0.84 l 0.81,0.81 z m 0.5,3.7 2.37,-0.59 -0.57,2.39 0.81,0.81 0.68,-3.33 3.43,-0.69 -0.81,-0.81 -2.46,0.59 0.58,-2.46 -0.8,-0.81 -0.69,3.42 -3.34,0.68 0.8,0.8 z m 10.02,8.12 0.59,-0.58 -2.96,-2.96 -0.59,0.59 2.96,2.95 z m -5.2,-0.49 5.47,-5.47 -0.73,-0.72 -5.46,5.46 0.72,0.73 z m 3.48,3.48 5.47,-5.47 -0.72,-0.72 -5.47,5.47 0.72,0.72 z m 3.34,0.53 4.07,-4.06 -0.7,-0.7 -4.06,4.06 0.69,0.7 z m -1.83,0.33 c -0.11,0.11 -0.17,0.24 -0.18,0.39 -0.01,0.14 0.06,0.29 0.19,0.42 0.13,0.13 0.28,0.2 0.42,0.19 0.15,-0.01 0.28,-0.07 0.4,-0.18 0.1,-0.11 0.16,-0.23 0.17,-0.38 0,-0.15 -0.06,-0.29 -0.2,-0.42 -0.13,-0.14 -0.27,-0.2 -0.42,-0.19 -0.14,0 -0.27,0.06 -0.38,0.17 z m 8.26,0.13 c -0.1,0.1 -0.21,0.17 -0.34,0.21 -0.13,0.05 -0.3,0.04 -0.51,-0.03 -0.2,-0.06 -0.47,-0.2 -0.79,-0.41 -0.27,-0.18 -0.53,-0.33 -0.77,-0.44 -0.25,-0.12 -0.48,-0.2 -0.7,-0.23 -0.22,-0.03 -0.43,-0.02 -0.62,0.04 -0.19,0.05 -0.37,0.17 -0.54,0.33 -0.16,0.16 -0.28,0.35 -0.35,0.57 -0.07,0.21 -0.1,0.44 -0.07,0.68 0.02,0.24 0.09,0.49 0.21,0.73 0.12,0.25 0.3,0.49 0.53,0.72 0.32,0.32 0.66,0.54 1,0.66 0.35,0.11 0.68,0.14 0.99,0.07 0.32,-0.07 0.59,-0.22 0.82,-0.46 l -0.69,-0.69 c -0.11,0.11 -0.26,0.19 -0.43,0.23 -0.17,0.04 -0.36,0.03 -0.55,-0.03 -0.2,-0.05 -0.39,-0.17 -0.57,-0.35 -0.19,-0.2 -0.32,-0.38 -0.38,-0.56 -0.06,-0.18 -0.07,-0.34 -0.04,-0.48 0.04,-0.15 0.11,-0.27 0.21,-0.37 0.07,-0.07 0.15,-0.13 0.24,-0.16 0.08,-0.03 0.18,-0.04 0.3,-0.02 0.12,0.02 0.26,0.07 0.42,0.15 0.17,0.08 0.37,0.19 0.6,0.34 0.41,0.26 0.77,0.44 1.09,0.55 0.32,0.11 0.61,0.14 0.87,0.1 0.26,-0.05 0.5,-0.19 0.71,-0.4 0.18,-0.18 0.31,-0.38 0.38,-0.6 0.08,-0.22 0.1,-0.46 0.06,-0.7 -0.03,-0.25 -0.11,-0.5 -0.24,-0.75 -0.14,-0.25 -0.32,-0.49 -0.56,-0.73 -0.36,-0.36 -0.73,-0.6 -1.1,-0.72 -0.38,-0.12 -0.73,-0.14 -1.06,-0.06 -0.33,0.07 -0.61,0.22 -0.83,0.45 l 0.69,0.7 c 0.21,-0.18 0.41,-0.28 0.62,-0.29 0.21,-0.01 0.42,0.03 0.61,0.13 0.19,0.1 0.36,0.22 0.5,0.36 0.19,0.19 0.32,0.38 0.4,0.56 0.08,0.18 0.11,0.34 0.09,0.5 -0.02,0.15 -0.09,0.29 -0.2,0.4 z m 0.38,6.35 0.53,-0.53 -2.19,-2.2 -0.54,0.53 2.2,2.2 z m -2.44,-0.47 0.69,0.7 4.05,-4.05 c 0.14,-0.13 0.26,-0.22 0.37,-0.24 0.12,-0.03 0.22,-0.02 0.31,0.02 0.09,0.05 0.17,0.11 0.25,0.19 0.06,0.05 0.11,0.12 0.17,0.2 0.05,0.07 0.09,0.13 0.11,0.17 l 0.57,-0.57 c -0.04,-0.07 -0.09,-0.16 -0.16,-0.26 -0.08,-0.11 -0.17,-0.22 -0.3,-0.35 -0.17,-0.17 -0.36,-0.29 -0.57,-0.37 -0.21,-0.07 -0.44,-0.07 -0.68,0 -0.24,0.08 -0.5,0.25 -0.77,0.52 l -4.04,4.04 z m 5.07,-1.05 -0.08,0.09 c -0.3,0.29 -0.53,0.6 -0.69,0.94 -0.17,0.34 -0.27,0.68 -0.29,1.03 -0.03,0.34 0.02,0.68 0.15,1.01 0.12,0.33 0.32,0.64 0.61,0.92 0.28,0.29 0.59,0.5 0.92,0.62 0.34,0.13 0.68,0.18 1.02,0.15 0.35,-0.02 0.69,-0.12 1.03,-0.29 0.34,-0.16 0.65,-0.39 0.95,-0.69 l 0.08,-0.08 c 0.3,-0.29 0.52,-0.61 0.69,-0.94 0.16,-0.34 0.26,-0.68 0.29,-1.03 0.02,-0.35 -0.03,-0.69 -0.15,-1.02 -0.12,-0.33 -0.33,-0.64 -0.61,-0.92 -0.29,-0.29 -0.6,-0.49 -0.93,-0.62 -0.33,-0.12 -0.67,-0.17 -1.02,-0.14 -0.35,0.02 -0.69,0.12 -1.02,0.28 -0.34,0.17 -0.65,0.4 -0.95,0.69 z m 0.61,0.78 0.09,-0.09 c 0.2,-0.2 0.42,-0.37 0.64,-0.5 0.23,-0.13 0.46,-0.22 0.69,-0.26 0.24,-0.04 0.47,-0.03 0.69,0.04 0.22,0.07 0.43,0.2 0.63,0.39 0.19,0.19 0.31,0.4 0.38,0.62 0.06,0.22 0.08,0.45 0.03,0.68 -0.04,0.24 -0.13,0.47 -0.26,0.69 -0.13,0.23 -0.29,0.45 -0.5,0.65 l -0.08,0.09 c -0.2,0.2 -0.42,0.36 -0.64,0.49 -0.23,0.13 -0.46,0.22 -0.7,0.26 -0.23,0.04 -0.46,0.03 -0.69,-0.03 -0.22,-0.06 -0.43,-0.19 -0.62,-0.39 -0.19,-0.19 -0.32,-0.39 -0.39,-0.62 -0.06,-0.22 -0.07,-0.45 -0.03,-0.69 0.05,-0.23 0.13,-0.46 0.26,-0.69 0.14,-0.23 0.3,-0.44 0.5,-0.64 z m 3.35,6.05 3.43,-3.42 -0.7,-0.7 -4.06,4.07 0.67,0.67 0.66,-0.62 z m 0.61,1.93 0.64,-0.65 c -0.07,-0.04 -0.13,-0.09 -0.19,-0.14 -0.05,-0.04 -0.11,-0.1 -0.18,-0.16 -0.16,-0.16 -0.27,-0.33 -0.35,-0.5 -0.07,-0.18 -0.1,-0.35 -0.1,-0.53 0.01,-0.17 0.05,-0.34 0.12,-0.52 0.08,-0.17 0.18,-0.34 0.31,-0.5 l -0.08,-0.31 c -0.24,0.25 -0.45,0.5 -0.62,0.77 -0.16,0.26 -0.28,0.53 -0.34,0.8 -0.07,0.26 -0.06,0.53 0,0.78 0.07,0.25 0.21,0.49 0.43,0.71 0.05,0.05 0.11,0.1 0.19,0.15 0.07,0.06 0.13,0.09 0.17,0.1 z m 1.38,1.34 4.06,-4.07 -0.7,-0.7 -4.06,4.07 0.7,0.7 z m -1.83,0.32 c -0.12,0.11 -0.18,0.24 -0.18,0.39 -0.01,0.15 0.05,0.29 0.18,0.42 0.14,0.14 0.28,0.2 0.43,0.19 0.15,0 0.28,-0.06 0.39,-0.18 0.11,-0.1 0.16,-0.23 0.17,-0.38 0,-0.15 -0.06,-0.29 -0.19,-0.42 -0.14,-0.13 -0.28,-0.2 -0.42,-0.19 -0.15,0.01 -0.28,0.06 -0.38,0.17 z m 8.67,-0.22 -2.09,2.09 c -0.16,0.16 -0.34,0.27 -0.52,0.32 -0.18,0.06 -0.37,0.06 -0.56,-0.01 -0.2,-0.06 -0.39,-0.18 -0.57,-0.37 -0.18,-0.18 -0.3,-0.36 -0.37,-0.55 -0.07,-0.19 -0.1,-0.38 -0.07,-0.55 0.02,-0.17 0.09,-0.31 0.2,-0.42 l -0.69,-0.7 c -0.15,0.15 -0.26,0.33 -0.32,0.55 -0.07,0.21 -0.09,0.45 -0.07,0.71 0.03,0.26 0.11,0.52 0.24,0.79 0.13,0.27 0.31,0.52 0.56,0.77 0.29,0.29 0.61,0.5 0.93,0.63 0.33,0.13 0.66,0.15 0.99,0.08 0.33,-0.07 0.64,-0.26 0.95,-0.56 l 1.89,-1.89 c 0.14,-0.14 0.29,-0.27 0.47,-0.4 0.17,-0.13 0.34,-0.23 0.5,-0.29 l 0.06,-0.06 -0.73,-0.72 c -0.11,0.04 -0.24,0.12 -0.4,0.24 -0.15,0.11 -0.29,0.22 -0.4,0.34 z m -1.65,1.89 0.49,-0.48 -0.7,-0.7 c -0.2,-0.2 -0.36,-0.39 -0.48,-0.58 -0.12,-0.19 -0.21,-0.36 -0.25,-0.53 -0.04,-0.17 -0.04,-0.33 -0.01,-0.48 0.04,-0.15 0.12,-0.28 0.25,-0.41 0.13,-0.13 0.27,-0.21 0.44,-0.26 0.16,-0.05 0.33,-0.05 0.51,0.01 0.17,0.05 0.35,0.17 0.52,0.34 0.21,0.21 0.35,0.44 0.43,0.7 0.07,0.25 0.09,0.49 0.05,0.72 -0.03,0.22 -0.1,0.4 -0.22,0.53 l 0.63,-0.04 c 0.09,-0.12 0.16,-0.28 0.21,-0.49 0.05,-0.2 0.07,-0.43 0.06,-0.68 -0.02,-0.24 -0.07,-0.49 -0.17,-0.74 -0.1,-0.26 -0.26,-0.49 -0.48,-0.71 -0.28,-0.28 -0.57,-0.46 -0.89,-0.56 -0.31,-0.1 -0.62,-0.12 -0.91,-0.05 -0.3,0.07 -0.56,0.21 -0.78,0.44 -0.22,0.22 -0.37,0.45 -0.45,0.7 -0.08,0.25 -0.1,0.52 -0.05,0.79 0.05,0.27 0.16,0.55 0.32,0.83 0.17,0.28 0.39,0.56 0.67,0.84 l 0.81,0.81 z"/>
      </g>
    </g>
    <g id="g304">
      <g clip-path="url(#clipPath308)" id="g306">
        <path id="path312" style="fill:#000000;fill-opacity:1;fill-rule:nonzero;stroke:none" d="m 290.83,348.84 5.47,-5.47 -0.73,-0.73 -6.97,1.47 4.22,-4.22 -0.73,-0.73 -5.47,5.47 0.73,0.73 6.99,-1.47 -4.23,4.23 0.72,0.72 z m 8.41,-2.68 c -0.28,-0.28 -0.58,-0.49 -0.91,-0.62 -0.33,-0.13 -0.66,-0.19 -1,-0.18 -0.34,0.01 -0.67,0.09 -1,0.24 -0.33,0.16 -0.63,0.38 -0.92,0.66 l -0.16,0.16 c -0.33,0.33 -0.57,0.67 -0.73,1.03 -0.17,0.36 -0.25,0.71 -0.27,1.06 -0.01,0.34 0.05,0.67 0.17,0.98 0.12,0.3 0.29,0.57 0.52,0.8 0.29,0.29 0.59,0.49 0.9,0.6 0.31,0.11 0.63,0.14 0.94,0.1 0.31,-0.04 0.63,-0.15 0.93,-0.33 0.31,-0.18 0.6,-0.41 0.89,-0.69 l 0.31,-0.31 -3.03,-3.04 -0.57,0.57 2.34,2.34 -0.05,0.05 c -0.19,0.17 -0.41,0.31 -0.64,0.42 -0.23,0.1 -0.47,0.14 -0.72,0.11 -0.25,-0.02 -0.49,-0.16 -0.73,-0.39 -0.16,-0.16 -0.27,-0.34 -0.34,-0.54 -0.06,-0.2 -0.08,-0.41 -0.04,-0.64 0.03,-0.22 0.12,-0.45 0.25,-0.69 0.14,-0.24 0.33,-0.49 0.57,-0.73 l 0.16,-0.16 c 0.19,-0.19 0.4,-0.35 0.62,-0.46 0.23,-0.12 0.45,-0.19 0.69,-0.21 0.23,-0.02 0.45,0 0.67,0.08 0.23,0.07 0.43,0.21 0.62,0.4 0.25,0.24 0.41,0.5 0.48,0.77 0.07,0.27 0.08,0.55 0.04,0.85 l 0.76,0.09 c 0.04,-0.22 0.06,-0.46 0.04,-0.72 -0.01,-0.25 -0.08,-0.52 -0.2,-0.79 -0.13,-0.27 -0.32,-0.54 -0.59,-0.81 z m 2.7,4.29 -2.3,4.39 0.46,0.46 0.57,-0.76 2.34,-4.46 -0.45,-0.45 -0.62,0.82 z m -4.05,2.64 4.27,-2.49 0.75,-0.62 -0.47,-0.47 -5.24,2.89 0.69,0.69 z m 6.56,-0.15 -2.5,4.21 0.69,0.69 2.88,-5.25 -0.46,-0.46 -0.61,0.81 z m -4.25,2.46 4.31,-2.27 0.89,-0.66 -0.44,-0.44 -4.5,2.31 -0.75,0.57 0.49,0.49 z m 6.27,8.11 3.17,-6.8 -0.74,-0.74 -3.38,7.56 0.48,0.47 0.47,-0.49 z m 6.5,-3.47 -6.8,3.17 -0.49,0.47 0.47,0.48 7.56,-3.38 -0.74,-0.74 z m -2.12,1.93 0.59,-0.59 -3.07,-3.07 -0.59,0.59 3.07,3.07 z m 3.46,3.7 -1.47,-1.46 -0.58,0.58 1.46,1.47 c 0.28,0.28 0.46,0.55 0.55,0.82 0.08,0.26 0.09,0.52 0.01,0.76 -0.08,0.24 -0.22,0.46 -0.43,0.67 -0.19,0.19 -0.4,0.32 -0.65,0.41 -0.25,0.08 -0.51,0.09 -0.79,0.01 -0.27,-0.07 -0.55,-0.25 -0.83,-0.53 l -1.3,-1.3 4.88,-4.87 -0.73,-0.73 -5.46,5.47 2.01,2.02 c 0.42,0.41 0.84,0.69 1.26,0.83 0.43,0.15 0.85,0.17 1.25,0.06 0.39,-0.1 0.76,-0.32 1.08,-0.64 0.35,-0.35 0.57,-0.72 0.67,-1.12 0.1,-0.39 0.08,-0.8 -0.08,-1.21 -0.16,-0.42 -0.44,-0.83 -0.85,-1.24 z m 0.32,6.96 5.46,-5.46 -0.72,-0.73 -5.47,5.47 0.73,0.72 z"/>
      </g>
    </g>
    <g id="g314">
      <g clip-path="url(#clipPath318)" id="g316">
        <path id="path322" style="fill:#000000;fill-opacity:1;fill-rule:nonzero;stroke:none" d="m 328.19,342.65 1.81,1.81 c 0.41,0.41 0.82,0.7 1.23,0.85 0.41,0.16 0.81,0.2 1.21,0.1 0.39,-0.09 0.77,-0.32 1.12,-0.68 0.25,-0.25 0.43,-0.52 0.53,-0.83 0.11,-0.31 0.14,-0.63 0.09,-0.96 -0.04,-0.34 -0.16,-0.67 -0.35,-1 l -0.13,-0.28 -1.7,-1.71 -0.6,0.59 1.29,1.28 c 0.26,0.26 0.43,0.52 0.51,0.79 0.08,0.26 0.09,0.51 0.02,0.76 -0.07,0.24 -0.19,0.46 -0.38,0.64 -0.21,0.21 -0.44,0.36 -0.68,0.43 -0.24,0.08 -0.49,0.07 -0.75,-0.02 -0.26,-0.09 -0.53,-0.27 -0.81,-0.55 l -1.09,-1.09 4.88,-4.87 -0.73,-0.73 -5.47,5.47 z m 8.67,-2.27 -3.81,1.15 0.75,0.76 3.79,-1.09 0.04,-0.05 -0.77,-0.77 z m 4.39,5.54 0.58,-0.57 -3.58,-3.58 -0.5,0.5 -0.21,3.78 c -0.02,0.47 -0.06,0.85 -0.11,1.14 -0.05,0.29 -0.12,0.53 -0.2,0.72 -0.09,0.18 -0.21,0.35 -0.35,0.49 -0.18,0.18 -0.38,0.31 -0.6,0.38 -0.22,0.07 -0.45,0.08 -0.68,0.02 -0.23,-0.05 -0.44,-0.18 -0.65,-0.38 -0.24,-0.24 -0.39,-0.49 -0.46,-0.75 -0.07,-0.25 -0.06,-0.51 0.03,-0.75 0.09,-0.25 0.24,-0.48 0.46,-0.7 l -0.7,-0.7 c -0.31,0.31 -0.52,0.66 -0.64,1.05 -0.12,0.39 -0.12,0.79 -0.01,1.21 0.11,0.42 0.36,0.82 0.75,1.21 0.35,0.34 0.7,0.58 1.07,0.7 0.37,0.13 0.73,0.15 1.08,0.06 0.35,-0.09 0.67,-0.28 0.96,-0.57 0.16,-0.16 0.3,-0.35 0.41,-0.57 0.11,-0.22 0.2,-0.46 0.27,-0.71 0.06,-0.26 0.12,-0.53 0.15,-0.81 0.03,-0.28 0.06,-0.57 0.07,-0.86 l 0.12,-3.05 2.74,2.74 z m 4.45,4.48 0.59,-0.59 -2.89,-2.89 -0.59,0.59 2.89,2.89 z m -7.62,2.13 5.46,-5.47 -0.72,-0.72 -5.47,5.47 0.73,0.72 z m 4.71,0.02 0.59,-0.59 -2.51,-2.52 -0.59,0.59 2.51,2.52 z m -2,2.69 0.59,-0.59 -2.86,-2.86 -0.59,0.59 2.86,2.86 z m 5.15,-0.56 0.57,-0.57 -1.83,-1.83 -0.57,0.57 1.83,1.83 z m 4.67,4.89 2,-2 c 0.03,-0.17 0.04,-0.39 0.01,-0.66 -0.02,-0.27 -0.12,-0.58 -0.29,-0.93 -0.16,-0.35 -0.45,-0.73 -0.86,-1.14 -0.33,-0.33 -0.7,-0.58 -1.09,-0.74 -0.4,-0.17 -0.81,-0.24 -1.24,-0.22 -0.43,0.02 -0.86,0.14 -1.29,0.35 -0.43,0.21 -0.85,0.52 -1.26,0.93 l -0.43,0.42 c -0.4,0.41 -0.72,0.82 -0.94,1.24 -0.23,0.41 -0.36,0.83 -0.39,1.24 -0.04,0.41 0.02,0.81 0.18,1.2 0.15,0.39 0.41,0.76 0.76,1.12 0.42,0.41 0.84,0.69 1.27,0.83 0.42,0.14 0.84,0.16 1.25,0.07 0.41,-0.1 0.8,-0.28 1.17,-0.56 l -0.72,-0.73 c -0.23,0.17 -0.48,0.28 -0.74,0.35 -0.26,0.07 -0.52,0.06 -0.8,-0.02 -0.28,-0.08 -0.56,-0.26 -0.84,-0.54 -0.25,-0.25 -0.42,-0.52 -0.52,-0.79 -0.09,-0.28 -0.11,-0.57 -0.06,-0.86 0.06,-0.29 0.18,-0.59 0.36,-0.9 0.19,-0.3 0.44,-0.61 0.75,-0.91 l 0.43,-0.44 c 0.31,-0.31 0.63,-0.56 0.95,-0.73 0.32,-0.17 0.64,-0.28 0.95,-0.31 0.31,-0.04 0.61,-0.01 0.89,0.09 0.28,0.1 0.54,0.27 0.77,0.5 0.26,0.26 0.45,0.49 0.57,0.7 0.11,0.2 0.19,0.38 0.21,0.53 0.03,0.15 0.04,0.28 0.04,0.38 l -1.23,1.23 -1.26,-1.27 -0.59,0.59 1.99,1.98 z m 4.54,-0.05 -2.51,4.77 0.75,0.74 3.06,-6.32 c 0.06,-0.14 0.12,-0.29 0.17,-0.47 0.06,-0.18 0.09,-0.37 0.1,-0.57 0.01,-0.2 -0.02,-0.4 -0.09,-0.6 -0.06,-0.2 -0.19,-0.39 -0.38,-0.58 -0.05,-0.05 -0.13,-0.12 -0.23,-0.19 -0.1,-0.07 -0.17,-0.11 -0.22,-0.14 l -0.56,0.56 c 0.02,0.02 0.05,0.05 0.1,0.09 0.05,0.04 0.08,0.07 0.1,0.08 0.16,0.16 0.27,0.32 0.34,0.47 0.07,0.15 0.09,0.31 0.07,0.48 -0.02,0.18 -0.08,0.38 -0.2,0.6 l -0.5,1.08 z m -4.47,2.81 4.21,-2.1 0.91,-0.55 -0.24,-0.76 -5.64,2.65 0.76,0.76 z m 4.85,3.23 3.26,-3.25 -0.7,-0.7 -4.07,4.06 0.67,0.66 0.84,-0.77 z m 0.93,-1.21 -0.34,-0.31 c -0.27,0.28 -0.49,0.57 -0.66,0.88 -0.17,0.31 -0.27,0.62 -0.3,0.93 -0.04,0.31 -0.01,0.62 0.1,0.92 0.11,0.3 0.3,0.59 0.57,0.86 0.19,0.19 0.39,0.34 0.61,0.44 0.21,0.11 0.44,0.16 0.67,0.17 0.23,0 0.47,-0.06 0.72,-0.17 0.24,-0.12 0.49,-0.3 0.75,-0.56 l 2.7,-2.71 -0.69,-0.69 -2.67,2.67 c -0.22,0.22 -0.42,0.35 -0.62,0.41 -0.2,0.05 -0.4,0.05 -0.58,-0.03 -0.19,-0.07 -0.38,-0.19 -0.55,-0.37 -0.21,-0.2 -0.34,-0.41 -0.41,-0.62 -0.06,-0.21 -0.07,-0.42 -0.03,-0.63 0.05,-0.21 0.13,-0.42 0.26,-0.62 0.13,-0.2 0.29,-0.39 0.47,-0.57 z m 2.25,3.02 -0.33,-0.61 c -0.22,0.22 -0.39,0.47 -0.53,0.75 -0.13,0.28 -0.21,0.56 -0.23,0.86 -0.03,0.3 0.01,0.59 0.12,0.89 0.11,0.29 0.29,0.57 0.55,0.82 0.22,0.22 0.44,0.39 0.66,0.5 0.23,0.11 0.46,0.16 0.7,0.16 0.23,0 0.47,-0.06 0.72,-0.19 0.24,-0.12 0.49,-0.32 0.75,-0.57 l 2.67,-2.67 -0.7,-0.7 -2.68,2.68 c -0.23,0.23 -0.44,0.37 -0.64,0.42 -0.19,0.06 -0.38,0.05 -0.56,-0.03 -0.18,-0.08 -0.36,-0.21 -0.54,-0.38 -0.15,-0.16 -0.26,-0.32 -0.33,-0.49 -0.06,-0.17 -0.09,-0.34 -0.08,-0.51 0.01,-0.17 0.06,-0.34 0.13,-0.5 0.08,-0.16 0.19,-0.3 0.32,-0.43 z"/>
      </g>
    </g>
    <g id="g324">
      <g clip-path="url(#clipPath328)" id="g326">
        <path id="path332" style="fill:#000000;fill-opacity:1;fill-rule:nonzero;stroke:none" d="m 373.93,339.71 0.35,-0.34 c 0.41,-0.41 0.72,-0.83 0.95,-1.26 0.22,-0.43 0.35,-0.85 0.38,-1.27 0.04,-0.42 -0.02,-0.83 -0.17,-1.22 -0.15,-0.39 -0.39,-0.75 -0.72,-1.08 -0.32,-0.33 -0.68,-0.56 -1.07,-0.71 -0.39,-0.15 -0.8,-0.21 -1.22,-0.18 -0.42,0.03 -0.85,0.16 -1.29,0.38 -0.43,0.21 -0.85,0.53 -1.26,0.94 l -0.35,0.35 c -0.41,0.41 -0.72,0.83 -0.94,1.26 -0.22,0.43 -0.34,0.86 -0.38,1.28 -0.03,0.42 0.03,0.83 0.18,1.22 0.14,0.39 0.38,0.75 0.7,1.07 0.34,0.33 0.7,0.57 1.09,0.72 0.39,0.15 0.79,0.21 1.22,0.17 0.42,-0.03 0.84,-0.16 1.27,-0.38 0.43,-0.22 0.85,-0.54 1.26,-0.95 z m -0.37,-1.06 -0.35,0.35 c -0.33,0.33 -0.65,0.58 -0.97,0.77 -0.31,0.18 -0.62,0.29 -0.92,0.34 -0.3,0.04 -0.58,0.01 -0.85,-0.08 -0.28,-0.1 -0.53,-0.26 -0.76,-0.5 -0.23,-0.22 -0.39,-0.47 -0.48,-0.74 -0.09,-0.27 -0.12,-0.55 -0.08,-0.85 0.04,-0.3 0.15,-0.61 0.33,-0.93 0.18,-0.32 0.44,-0.64 0.76,-0.97 l 0.36,-0.35 c 0.32,-0.33 0.65,-0.59 0.97,-0.77 0.32,-0.18 0.63,-0.29 0.94,-0.33 0.3,-0.04 0.59,-0.01 0.85,0.08 0.27,0.1 0.52,0.25 0.75,0.48 0.23,0.24 0.4,0.49 0.49,0.76 0.1,0.27 0.12,0.55 0.08,0.85 -0.05,0.3 -0.16,0.61 -0.35,0.92 -0.19,0.32 -0.44,0.64 -0.77,0.97 z m 1.75,3.19 4.84,-4.84 -0.7,-0.7 -5.62,5.62 0.63,0.64 0.85,-0.72 z m 3.95,1.52 0.08,-0.08 c 0.29,-0.29 0.53,-0.6 0.71,-0.92 0.19,-0.33 0.3,-0.65 0.35,-0.97 0.06,-0.31 0.03,-0.62 -0.06,-0.92 -0.09,-0.3 -0.26,-0.57 -0.52,-0.83 -0.25,-0.25 -0.52,-0.44 -0.81,-0.55 -0.28,-0.12 -0.57,-0.16 -0.87,-0.13 -0.3,0.02 -0.61,0.11 -0.92,0.25 -0.31,0.15 -0.62,0.35 -0.93,0.61 l -0.42,0.42 c -0.27,0.33 -0.49,0.65 -0.64,0.97 -0.16,0.32 -0.25,0.64 -0.28,0.94 -0.04,0.31 0,0.6 0.11,0.89 0.1,0.28 0.28,0.55 0.54,0.81 0.25,0.25 0.53,0.43 0.83,0.53 0.29,0.1 0.6,0.12 0.92,0.07 0.32,-0.04 0.64,-0.16 0.96,-0.35 0.32,-0.18 0.64,-0.43 0.95,-0.74 z m -0.62,-0.78 -0.08,0.08 c -0.2,0.21 -0.41,0.37 -0.63,0.51 -0.23,0.14 -0.45,0.23 -0.67,0.28 -0.23,0.04 -0.45,0.04 -0.67,-0.02 -0.21,-0.06 -0.42,-0.18 -0.61,-0.37 -0.17,-0.18 -0.3,-0.36 -0.36,-0.55 -0.07,-0.19 -0.1,-0.38 -0.09,-0.57 0.01,-0.19 0.05,-0.38 0.13,-0.57 0.07,-0.18 0.16,-0.36 0.27,-0.52 l 0.97,-0.97 c 0.23,-0.13 0.46,-0.22 0.71,-0.29 0.24,-0.06 0.48,-0.07 0.73,-0.01 0.24,0.06 0.48,0.2 0.71,0.43 0.18,0.19 0.31,0.39 0.36,0.6 0.06,0.22 0.07,0.44 0.02,0.66 -0.05,0.23 -0.14,0.46 -0.28,0.68 -0.14,0.22 -0.31,0.43 -0.51,0.63 z m 5.29,1.17 c -0.29,-0.29 -0.59,-0.49 -0.91,-0.63 -0.33,-0.13 -0.66,-0.19 -1,-0.18 -0.34,0.01 -0.67,0.09 -1,0.25 -0.33,0.15 -0.64,0.37 -0.92,0.65 l -0.16,0.16 c -0.33,0.33 -0.58,0.68 -0.74,1.03 -0.16,0.36 -0.25,0.71 -0.26,1.06 -0.01,0.35 0.04,0.68 0.16,0.98 0.12,0.31 0.3,0.57 0.52,0.8 0.29,0.29 0.6,0.49 0.91,0.6 0.31,0.11 0.62,0.15 0.94,0.1 0.31,-0.04 0.62,-0.15 0.93,-0.33 0.3,-0.17 0.6,-0.4 0.89,-0.69 l 0.31,-0.31 -3.04,-3.03 -0.56,0.56 2.34,2.34 -0.06,0.05 c -0.19,0.17 -0.4,0.31 -0.63,0.42 -0.24,0.11 -0.48,0.15 -0.73,0.12 -0.24,-0.03 -0.49,-0.16 -0.73,-0.4 -0.15,-0.16 -0.27,-0.34 -0.33,-0.54 -0.07,-0.19 -0.08,-0.41 -0.05,-0.63 0.04,-0.23 0.12,-0.46 0.26,-0.7 0.13,-0.24 0.32,-0.48 0.57,-0.73 l 0.16,-0.16 c 0.19,-0.19 0.4,-0.34 0.62,-0.46 0.22,-0.11 0.45,-0.18 0.68,-0.21 0.23,-0.02 0.46,0.01 0.68,0.08 0.22,0.08 0.43,0.21 0.62,0.4 0.24,0.25 0.4,0.5 0.47,0.78 0.07,0.27 0.09,0.55 0.05,0.84 l 0.75,0.09 c 0.05,-0.22 0.06,-0.46 0.05,-0.71 -0.02,-0.26 -0.09,-0.52 -0.21,-0.79 -0.12,-0.28 -0.31,-0.55 -0.58,-0.81 z m -0.11,6.43 3.19,-3.2 -0.69,-0.69 -4.07,4.06 0.66,0.66 0.91,-0.83 z m 0.84,-1.18 -0.3,-0.28 c -0.27,0.28 -0.49,0.58 -0.65,0.9 -0.15,0.32 -0.25,0.63 -0.28,0.96 -0.03,0.32 0.01,0.63 0.12,0.92 0.1,0.3 0.28,0.57 0.52,0.82 0.2,0.2 0.41,0.35 0.62,0.46 0.22,0.1 0.44,0.16 0.67,0.15 0.23,0 0.47,-0.07 0.72,-0.19 0.25,-0.13 0.5,-0.33 0.77,-0.59 l 2.66,-2.67 -0.7,-0.7 -2.67,2.67 c -0.21,0.22 -0.41,0.36 -0.6,0.42 -0.19,0.07 -0.38,0.07 -0.56,0.01 -0.18,-0.06 -0.35,-0.18 -0.53,-0.35 -0.17,-0.18 -0.29,-0.37 -0.36,-0.58 -0.07,-0.22 -0.09,-0.44 -0.07,-0.67 0.03,-0.23 0.1,-0.45 0.21,-0.67 0.1,-0.22 0.25,-0.43 0.43,-0.61 z m 7.6,6.7 0.72,0.73 c 0.31,-0.39 0.52,-0.8 0.63,-1.23 0.11,-0.43 0.1,-0.87 -0.03,-1.33 -0.14,-0.45 -0.42,-0.89 -0.86,-1.33 -0.32,-0.32 -0.67,-0.55 -1.05,-0.69 -0.39,-0.15 -0.78,-0.2 -1.19,-0.17 -0.41,0.04 -0.82,0.16 -1.23,0.37 -0.42,0.21 -0.82,0.51 -1.2,0.89 l -0.54,0.55 c -0.39,0.38 -0.68,0.78 -0.89,1.19 -0.21,0.41 -0.33,0.83 -0.37,1.24 -0.03,0.41 0.03,0.82 0.18,1.21 0.15,0.39 0.4,0.75 0.74,1.09 0.41,0.41 0.84,0.69 1.28,0.82 0.44,0.13 0.87,0.13 1.31,0.02 0.43,-0.12 0.85,-0.34 1.24,-0.66 l -0.72,-0.72 c -0.29,0.22 -0.57,0.37 -0.85,0.46 -0.28,0.09 -0.56,0.1 -0.83,0.02 -0.28,-0.07 -0.56,-0.25 -0.84,-0.53 -0.24,-0.25 -0.41,-0.51 -0.5,-0.78 -0.09,-0.28 -0.12,-0.56 -0.07,-0.86 0.05,-0.29 0.16,-0.59 0.33,-0.89 0.18,-0.3 0.41,-0.6 0.7,-0.89 l 0.55,-0.55 c 0.27,-0.27 0.55,-0.49 0.84,-0.67 0.29,-0.18 0.59,-0.3 0.88,-0.36 0.29,-0.06 0.58,-0.06 0.86,0.02 0.28,0.08 0.54,0.24 0.78,0.48 0.31,0.31 0.5,0.6 0.59,0.88 0.08,0.28 0.08,0.56 -0.01,0.84 -0.08,0.27 -0.24,0.56 -0.45,0.85 z m 1.16,1.67 -0.08,0.08 c -0.29,0.3 -0.52,0.61 -0.69,0.95 -0.17,0.34 -0.26,0.68 -0.29,1.02 -0.03,0.35 0.02,0.69 0.15,1.02 0.12,0.33 0.32,0.64 0.61,0.92 0.28,0.29 0.59,0.49 0.92,0.62 0.34,0.12 0.68,0.17 1.03,0.15 0.34,-0.03 0.69,-0.12 1.02,-0.29 0.34,-0.16 0.65,-0.39 0.95,-0.69 l 0.08,-0.08 c 0.3,-0.3 0.53,-0.61 0.69,-0.95 0.17,-0.33 0.26,-0.67 0.29,-1.02 0.02,-0.35 -0.03,-0.69 -0.15,-1.02 -0.12,-0.33 -0.33,-0.64 -0.61,-0.92 -0.29,-0.29 -0.6,-0.49 -0.93,-0.62 -0.33,-0.12 -0.67,-0.17 -1.02,-0.15 -0.35,0.03 -0.69,0.13 -1.02,0.29 -0.34,0.17 -0.65,0.39 -0.95,0.69 z m 0.61,0.78 0.09,-0.09 c 0.2,-0.2 0.42,-0.37 0.64,-0.5 0.23,-0.13 0.46,-0.22 0.69,-0.26 0.24,-0.04 0.47,-0.03 0.69,0.04 0.23,0.07 0.43,0.2 0.63,0.39 0.19,0.19 0.32,0.4 0.38,0.62 0.07,0.22 0.08,0.45 0.03,0.68 -0.04,0.23 -0.12,0.46 -0.25,0.69 -0.14,0.23 -0.3,0.45 -0.5,0.65 l -0.09,0.08 c -0.2,0.2 -0.42,0.37 -0.64,0.5 -0.23,0.13 -0.46,0.22 -0.7,0.26 -0.23,0.04 -0.46,0.03 -0.69,-0.03 -0.22,-0.07 -0.43,-0.19 -0.62,-0.39 -0.19,-0.19 -0.32,-0.39 -0.38,-0.62 -0.07,-0.22 -0.08,-0.45 -0.04,-0.69 0.05,-0.23 0.13,-0.46 0.27,-0.69 0.13,-0.23 0.29,-0.44 0.49,-0.64 z m 7.73,5.16 -4.98,4.98 0.7,0.7 5.77,-5.77 -0.64,-0.64 -0.85,0.73 z m -3.93,-1.54 -0.08,0.08 c -0.31,0.31 -0.55,0.63 -0.73,0.96 -0.18,0.33 -0.29,0.66 -0.33,0.99 -0.04,0.32 -0.01,0.63 0.09,0.93 0.09,0.29 0.26,0.56 0.51,0.8 0.25,0.26 0.52,0.44 0.8,0.54 0.28,0.1 0.57,0.14 0.88,0.1 0.3,-0.03 0.61,-0.13 0.92,-0.29 0.32,-0.16 0.64,-0.38 0.97,-0.65 l 0.35,-0.34 c 0.27,-0.33 0.48,-0.65 0.64,-0.97 0.16,-0.31 0.26,-0.62 0.29,-0.92 0.03,-0.31 0,-0.6 -0.1,-0.88 -0.11,-0.28 -0.29,-0.55 -0.55,-0.81 -0.24,-0.24 -0.5,-0.4 -0.8,-0.5 -0.3,-0.09 -0.61,-0.11 -0.94,-0.07 -0.33,0.04 -0.66,0.15 -0.98,0.33 -0.33,0.17 -0.64,0.41 -0.94,0.7 z m 0.62,0.78 0.08,-0.08 c 0.2,-0.2 0.41,-0.37 0.63,-0.51 0.22,-0.13 0.44,-0.22 0.67,-0.27 0.22,-0.05 0.44,-0.04 0.65,0.01 0.21,0.06 0.41,0.19 0.6,0.37 0.23,0.23 0.37,0.47 0.42,0.72 0.05,0.25 0.04,0.49 -0.03,0.75 -0.07,0.25 -0.17,0.49 -0.31,0.73 l -0.91,0.9 c -0.16,0.11 -0.34,0.2 -0.53,0.27 -0.18,0.08 -0.37,0.12 -0.56,0.13 -0.19,0.01 -0.38,-0.01 -0.57,-0.08 -0.19,-0.07 -0.37,-0.19 -0.54,-0.37 -0.2,-0.19 -0.32,-0.39 -0.38,-0.61 -0.05,-0.21 -0.06,-0.43 -0.01,-0.66 0.05,-0.22 0.14,-0.44 0.28,-0.66 0.14,-0.22 0.31,-0.44 0.51,-0.64 z m 7.7,3.42 c -0.29,-0.29 -0.59,-0.49 -0.92,-0.63 -0.32,-0.13 -0.65,-0.19 -0.99,-0.18 -0.34,0.01 -0.68,0.09 -1,0.25 -0.33,0.15 -0.64,0.37 -0.92,0.65 l -0.16,0.16 c -0.33,0.33 -0.58,0.68 -0.74,1.03 -0.16,0.36 -0.25,0.71 -0.26,1.06 -0.01,0.35 0.04,0.67 0.16,0.98 0.12,0.31 0.3,0.57 0.52,0.8 0.29,0.29 0.59,0.49 0.91,0.6 0.31,0.11 0.62,0.15 0.94,0.1 0.31,-0.04 0.62,-0.15 0.93,-0.33 0.3,-0.17 0.6,-0.4 0.88,-0.69 l 0.32,-0.31 -3.04,-3.04 -0.57,0.57 2.34,2.34 -0.05,0.05 c -0.19,0.17 -0.4,0.31 -0.63,0.42 -0.24,0.11 -0.48,0.14 -0.73,0.12 -0.25,-0.03 -0.49,-0.16 -0.73,-0.4 -0.15,-0.16 -0.27,-0.34 -0.33,-0.54 -0.07,-0.2 -0.08,-0.41 -0.05,-0.63 0.04,-0.23 0.12,-0.46 0.26,-0.7 0.13,-0.24 0.32,-0.48 0.57,-0.73 l 0.15,-0.16 c 0.2,-0.19 0.41,-0.34 0.63,-0.46 0.22,-0.11 0.45,-0.18 0.68,-0.21 0.23,-0.02 0.46,0 0.68,0.08 0.22,0.08 0.43,0.21 0.62,0.4 0.24,0.25 0.4,0.5 0.47,0.77 0.07,0.27 0.09,0.56 0.05,0.85 l 0.75,0.09 c 0.05,-0.22 0.06,-0.46 0.05,-0.71 -0.02,-0.26 -0.09,-0.52 -0.21,-0.79 -0.12,-0.28 -0.32,-0.55 -0.58,-0.81 z"/>
      </g>
    </g>
    <g id="g334">
      <g clip-path="url(#clipPath338)" id="g336">
        <path id="path342" style="fill:#000000;fill-opacity:1;fill-rule:nonzero;stroke:none" d="m 419.56,339.17 -3.87,3.87 0.72,0.72 3.87,-3.87 c 0.36,-0.36 0.59,-0.74 0.69,-1.13 0.1,-0.4 0.09,-0.79 -0.04,-1.18 -0.13,-0.39 -0.37,-0.75 -0.7,-1.08 -0.34,-0.34 -0.69,-0.58 -1.07,-0.73 -0.38,-0.14 -0.75,-0.17 -1.14,-0.08 -0.38,0.09 -0.75,0.31 -1.11,0.67 l 0.73,0.72 c 0.23,-0.23 0.46,-0.38 0.69,-0.44 0.23,-0.06 0.46,-0.05 0.68,0.03 0.22,0.08 0.43,0.22 0.63,0.41 0.19,0.19 0.32,0.41 0.39,0.64 0.07,0.23 0.07,0.47 -0.01,0.72 -0.07,0.25 -0.23,0.49 -0.46,0.73 z m 5.17,3.37 -2.09,2.09 c -0.16,0.16 -0.33,0.27 -0.52,0.32 -0.18,0.06 -0.37,0.05 -0.56,-0.01 -0.19,-0.06 -0.38,-0.19 -0.57,-0.38 -0.18,-0.17 -0.3,-0.35 -0.37,-0.55 -0.07,-0.19 -0.1,-0.37 -0.07,-0.54 0.02,-0.17 0.09,-0.31 0.2,-0.43 l -0.69,-0.69 c -0.15,0.14 -0.25,0.33 -0.32,0.54 -0.07,0.22 -0.09,0.46 -0.07,0.72 0.03,0.26 0.11,0.52 0.24,0.79 0.13,0.26 0.31,0.52 0.56,0.77 0.3,0.29 0.61,0.5 0.93,0.63 0.33,0.12 0.66,0.15 0.99,0.08 0.33,-0.07 0.65,-0.26 0.95,-0.56 l 1.89,-1.9 c 0.14,-0.13 0.29,-0.26 0.47,-0.39 0.18,-0.13 0.34,-0.23 0.5,-0.29 l 0.06,-0.06 -0.72,-0.73 c -0.12,0.05 -0.25,0.13 -0.41,0.24 -0.15,0.12 -0.29,0.23 -0.4,0.35 z m -1.65,1.89 0.5,-0.48 -0.71,-0.71 c -0.19,-0.19 -0.35,-0.39 -0.48,-0.57 -0.12,-0.19 -0.21,-0.37 -0.25,-0.53 -0.04,-0.17 -0.04,-0.33 0,-0.48 0.03,-0.15 0.12,-0.29 0.24,-0.41 0.13,-0.13 0.27,-0.22 0.44,-0.26 0.16,-0.05 0.33,-0.05 0.51,0.01 0.18,0.05 0.35,0.16 0.52,0.34 0.21,0.21 0.36,0.44 0.43,0.69 0.07,0.26 0.09,0.5 0.06,0.72 -0.04,0.23 -0.11,0.41 -0.23,0.54 l 0.63,-0.04 c 0.09,-0.12 0.16,-0.29 0.21,-0.49 0.05,-0.21 0.07,-0.43 0.06,-0.68 -0.02,-0.24 -0.07,-0.49 -0.17,-0.74 -0.1,-0.26 -0.26,-0.49 -0.48,-0.71 -0.28,-0.28 -0.57,-0.47 -0.89,-0.57 -0.31,-0.1 -0.62,-0.11 -0.91,-0.04 -0.3,0.06 -0.56,0.21 -0.78,0.44 -0.22,0.21 -0.37,0.45 -0.45,0.7 -0.08,0.25 -0.1,0.51 -0.05,0.79 0.05,0.27 0.16,0.54 0.32,0.83 0.17,0.28 0.4,0.56 0.67,0.84 l 0.81,0.81 z m 1.6,3.06 3.19,-3.2 -0.69,-0.69 -4.06,4.06 0.65,0.66 0.91,-0.83 z m 0.84,-1.18 -0.3,-0.28 c -0.27,0.28 -0.49,0.58 -0.65,0.9 -0.15,0.32 -0.25,0.64 -0.28,0.96 -0.03,0.32 0.01,0.63 0.12,0.92 0.1,0.3 0.28,0.57 0.52,0.82 0.2,0.2 0.41,0.35 0.62,0.46 0.22,0.1 0.44,0.16 0.67,0.15 0.23,0 0.47,-0.07 0.72,-0.19 0.25,-0.13 0.5,-0.33 0.77,-0.59 l 2.66,-2.67 -0.69,-0.7 -2.67,2.67 c -0.22,0.22 -0.42,0.36 -0.61,0.42 -0.19,0.07 -0.38,0.07 -0.56,0.01 -0.18,-0.06 -0.35,-0.18 -0.53,-0.35 -0.17,-0.18 -0.29,-0.37 -0.36,-0.58 -0.07,-0.22 -0.09,-0.44 -0.06,-0.67 0.02,-0.23 0.09,-0.45 0.2,-0.67 0.1,-0.22 0.25,-0.43 0.43,-0.61 z m 2.62,6.38 4.07,-4.07 -0.7,-0.69 -4.07,4.06 0.7,0.7 z m -1.83,0.32 c -0.11,0.12 -0.17,0.25 -0.18,0.39 -0.01,0.15 0.06,0.29 0.19,0.43 0.13,0.13 0.28,0.19 0.42,0.19 0.15,-0.01 0.28,-0.07 0.4,-0.18 0.1,-0.11 0.16,-0.24 0.17,-0.39 0,-0.14 -0.06,-0.28 -0.2,-0.42 -0.13,-0.13 -0.27,-0.2 -0.42,-0.19 -0.14,0.01 -0.27,0.07 -0.38,0.17 z m 4.73,2.58 0.54,-0.54 -2.2,-2.19 -0.53,0.53 2.19,2.2 z m -2.44,-0.47 0.7,0.7 4.04,-4.05 c 0.14,-0.14 0.26,-0.22 0.38,-0.25 0.11,-0.02 0.21,-0.01 0.3,0.03 0.09,0.05 0.17,0.11 0.25,0.18 0.06,0.06 0.12,0.13 0.17,0.2 0.05,0.08 0.09,0.14 0.11,0.18 l 0.57,-0.57 c -0.03,-0.07 -0.09,-0.16 -0.16,-0.26 -0.07,-0.11 -0.17,-0.22 -0.3,-0.35 -0.17,-0.17 -0.36,-0.29 -0.57,-0.37 -0.21,-0.07 -0.43,-0.07 -0.68,0 -0.24,0.08 -0.5,0.25 -0.77,0.52 l -4.04,4.04 z m 5.08,-1.05 -0.09,0.08 c -0.29,0.3 -0.52,0.61 -0.69,0.95 -0.17,0.34 -0.26,0.68 -0.29,1.02 -0.03,0.35 0.02,0.69 0.15,1.02 0.12,0.33 0.33,0.64 0.61,0.92 0.28,0.29 0.59,0.49 0.93,0.62 0.33,0.12 0.67,0.17 1.02,0.15 0.35,-0.03 0.69,-0.12 1.02,-0.29 0.34,-0.16 0.66,-0.39 0.95,-0.69 l 0.09,-0.08 c 0.29,-0.3 0.52,-0.61 0.68,-0.95 0.17,-0.33 0.26,-0.67 0.29,-1.02 0.02,-0.35 -0.03,-0.69 -0.15,-1.02 -0.12,-0.33 -0.33,-0.64 -0.61,-0.92 -0.29,-0.29 -0.59,-0.49 -0.93,-0.62 -0.33,-0.12 -0.67,-0.17 -1.02,-0.15 -0.34,0.03 -0.69,0.13 -1.02,0.29 -0.34,0.17 -0.65,0.39 -0.94,0.69 z m 0.6,0.78 0.09,-0.09 c 0.2,-0.2 0.42,-0.37 0.64,-0.5 0.23,-0.13 0.46,-0.22 0.7,-0.26 0.23,-0.04 0.46,-0.03 0.68,0.04 0.23,0.07 0.44,0.2 0.63,0.39 0.19,0.19 0.32,0.39 0.38,0.62 0.07,0.22 0.08,0.45 0.04,0.68 -0.05,0.23 -0.13,0.46 -0.26,0.69 -0.13,0.23 -0.3,0.45 -0.5,0.65 l -0.09,0.08 c -0.2,0.2 -0.41,0.37 -0.64,0.5 -0.23,0.13 -0.46,0.22 -0.7,0.26 -0.23,0.04 -0.46,0.03 -0.69,-0.03 -0.22,-0.07 -0.43,-0.19 -0.62,-0.39 -0.19,-0.19 -0.32,-0.39 -0.38,-0.62 -0.07,-0.22 -0.08,-0.45 -0.03,-0.69 0.04,-0.23 0.13,-0.46 0.26,-0.69 0.13,-0.23 0.29,-0.44 0.49,-0.64 z m 3.35,6.05 3.43,-3.42 -0.7,-0.7 -4.06,4.07 0.68,0.67 0.65,-0.62 z m 0.61,1.93 0.64,-0.65 c -0.07,-0.04 -0.13,-0.09 -0.18,-0.14 -0.06,-0.04 -0.12,-0.1 -0.18,-0.17 -0.16,-0.16 -0.28,-0.32 -0.35,-0.5 -0.08,-0.17 -0.11,-0.34 -0.1,-0.52 0,-0.17 0.04,-0.35 0.12,-0.52 0.07,-0.17 0.17,-0.34 0.31,-0.5 l -0.09,-0.31 c -0.24,0.25 -0.45,0.5 -0.61,0.76 -0.17,0.27 -0.28,0.53 -0.35,0.8 -0.06,0.27 -0.06,0.53 0,0.79 0.07,0.25 0.21,0.49 0.43,0.71 0.05,0.05 0.11,0.1 0.19,0.15 0.08,0.06 0.13,0.09 0.17,0.1 z m 3.79,5.58 3.17,-6.79 -0.74,-0.74 -3.38,7.55 0.47,0.48 0.48,-0.5 z m 6.5,-3.46 -6.8,3.17 -0.5,0.47 0.48,0.48 7.56,-3.38 -0.74,-0.74 z m -2.12,1.93 0.59,-0.6 -3.07,-3.07 -0.59,0.59 3.07,3.08 z m -1.11,5.78 5.47,-5.47 -0.73,-0.73 -5.46,5.47 0.72,0.73 z"/>
      </g>
    </g>
    <g id="g344">
      <g clip-path="url(#clipPath348)" id="g346">
        <path id="path352" style="fill:#000000;fill-opacity:1;fill-rule:nonzero;stroke:none" d="m 392.55,275.38 3.17,-6.79 -0.74,-0.74 -3.38,7.55 0.48,0.48 0.47,-0.5 z m 6.5,-3.46 -6.8,3.17 -0.49,0.47 0.47,0.48 7.56,-3.38 -0.74,-0.74 z m -2.12,1.93 0.6,-0.59 -3.08,-3.08 -0.59,0.6 3.07,3.07 z m 5.03,2.85 -3.13,3.13 0.7,0.7 4.06,-4.07 -0.66,-0.66 -0.97,0.9 z m -0.73,0.99 0.28,0.3 c 0.27,-0.27 0.5,-0.55 0.67,-0.84 0.17,-0.28 0.28,-0.57 0.32,-0.86 0.04,-0.3 0.01,-0.59 -0.1,-0.89 -0.11,-0.3 -0.31,-0.59 -0.6,-0.88 -0.19,-0.2 -0.4,-0.35 -0.63,-0.46 -0.22,-0.1 -0.45,-0.15 -0.68,-0.15 -0.24,0 -0.49,0.07 -0.75,0.2 -0.25,0.12 -0.52,0.32 -0.79,0.59 l -2.62,2.63 0.7,0.69 2.63,-2.63 c 0.18,-0.18 0.35,-0.31 0.51,-0.39 0.16,-0.08 0.31,-0.11 0.45,-0.11 0.14,0 0.27,0.03 0.39,0.09 0.11,0.07 0.22,0.14 0.31,0.24 0.3,0.29 0.48,0.59 0.53,0.87 0.06,0.29 0.03,0.57 -0.08,0.84 -0.12,0.27 -0.3,0.52 -0.54,0.76 z m 1.09,5.63 0.53,-0.54 -2.19,-2.2 -0.54,0.54 2.2,2.2 z m -2.44,-0.47 0.69,0.69 4.05,-4.04 c 0.14,-0.14 0.26,-0.22 0.37,-0.25 0.12,-0.03 0.22,-0.02 0.31,0.03 0.09,0.04 0.17,0.1 0.25,0.18 0.06,0.06 0.11,0.13 0.17,0.2 0.05,0.08 0.09,0.13 0.11,0.17 l 0.57,-0.56 c -0.03,-0.07 -0.09,-0.16 -0.16,-0.27 -0.07,-0.1 -0.17,-0.22 -0.3,-0.34 -0.17,-0.17 -0.36,-0.29 -0.57,-0.37 -0.21,-0.07 -0.44,-0.07 -0.68,0 -0.24,0.08 -0.5,0.25 -0.77,0.52 l -4.04,4.04 z m 5.2,-0.93 -0.09,0.08 c -0.29,0.3 -0.52,0.61 -0.69,0.95 -0.17,0.33 -0.26,0.68 -0.29,1.02 -0.02,0.35 0.02,0.69 0.15,1.02 0.12,0.33 0.33,0.64 0.61,0.92 0.28,0.29 0.59,0.49 0.93,0.62 0.33,0.12 0.67,0.17 1.02,0.15 0.35,-0.03 0.69,-0.12 1.02,-0.29 0.34,-0.17 0.66,-0.39 0.95,-0.69 l 0.09,-0.08 c 0.29,-0.3 0.52,-0.61 0.68,-0.95 0.17,-0.33 0.26,-0.67 0.29,-1.02 0.02,-0.35 -0.03,-0.69 -0.15,-1.02 -0.12,-0.33 -0.33,-0.64 -0.61,-0.92 -0.29,-0.29 -0.59,-0.49 -0.93,-0.62 -0.33,-0.12 -0.67,-0.17 -1.02,-0.15 -0.34,0.03 -0.69,0.12 -1.02,0.29 -0.34,0.16 -0.65,0.39 -0.94,0.69 z m 0.6,0.78 0.09,-0.09 c 0.2,-0.2 0.42,-0.37 0.64,-0.5 0.23,-0.13 0.46,-0.22 0.7,-0.26 0.23,-0.04 0.46,-0.03 0.68,0.04 0.23,0.06 0.44,0.19 0.63,0.39 0.19,0.19 0.32,0.39 0.38,0.62 0.07,0.22 0.08,0.45 0.04,0.68 -0.05,0.23 -0.13,0.46 -0.26,0.69 -0.13,0.23 -0.3,0.44 -0.5,0.65 l -0.09,0.08 c -0.2,0.2 -0.41,0.37 -0.64,0.5 -0.23,0.13 -0.46,0.22 -0.7,0.26 -0.23,0.04 -0.46,0.03 -0.69,-0.03 -0.22,-0.07 -0.43,-0.2 -0.62,-0.39 -0.19,-0.19 -0.32,-0.4 -0.38,-0.62 -0.07,-0.22 -0.08,-0.45 -0.03,-0.69 0.04,-0.23 0.13,-0.47 0.26,-0.69 0.13,-0.23 0.29,-0.44 0.49,-0.64 z m 3.46,5.7 3.2,-3.2 -0.7,-0.69 -4.06,4.06 0.66,0.66 0.9,-0.83 z m 0.85,-1.18 -0.3,-0.27 c -0.28,0.28 -0.5,0.58 -0.65,0.89 -0.16,0.32 -0.25,0.64 -0.28,0.96 -0.03,0.32 0.01,0.63 0.11,0.93 0.11,0.29 0.28,0.57 0.53,0.81 0.2,0.2 0.4,0.35 0.62,0.46 0.21,0.11 0.43,0.16 0.67,0.15 0.23,0 0.47,-0.06 0.71,-0.19 0.25,-0.13 0.51,-0.32 0.78,-0.59 l 2.66,-2.66 -0.7,-0.7 -2.67,2.67 c -0.21,0.21 -0.42,0.35 -0.61,0.42 -0.19,0.06 -0.37,0.06 -0.55,0 -0.18,-0.06 -0.36,-0.18 -0.53,-0.35 -0.18,-0.17 -0.3,-0.37 -0.37,-0.58 -0.07,-0.22 -0.09,-0.44 -0.06,-0.67 0.03,-0.23 0.09,-0.45 0.2,-0.67 0.11,-0.22 0.25,-0.42 0.44,-0.61 z m 3.75,3.36 -0.08,0.09 c -0.3,0.29 -0.53,0.61 -0.69,0.95 -0.17,0.33 -0.26,0.67 -0.29,1.02 -0.03,0.35 0.02,0.69 0.15,1.02 0.12,0.33 0.32,0.64 0.61,0.92 0.28,0.29 0.59,0.49 0.92,0.62 0.34,0.12 0.68,0.17 1.03,0.15 0.34,-0.03 0.69,-0.12 1.02,-0.29 0.34,-0.17 0.65,-0.4 0.95,-0.69 l 0.08,-0.09 c 0.3,-0.29 0.53,-0.6 0.69,-0.94 0.17,-0.33 0.26,-0.68 0.29,-1.02 0.02,-0.35 -0.03,-0.69 -0.15,-1.02 -0.12,-0.33 -0.33,-0.64 -0.61,-0.93 -0.29,-0.28 -0.6,-0.49 -0.93,-0.61 -0.33,-0.12 -0.67,-0.17 -1.02,-0.15 -0.35,0.03 -0.69,0.12 -1.02,0.29 -0.34,0.16 -0.65,0.39 -0.95,0.68 z m 0.61,0.79 0.09,-0.09 c 0.2,-0.2 0.42,-0.37 0.64,-0.5 0.23,-0.13 0.46,-0.22 0.69,-0.26 0.24,-0.04 0.47,-0.03 0.69,0.04 0.23,0.06 0.43,0.19 0.63,0.39 0.19,0.19 0.31,0.39 0.38,0.61 0.06,0.23 0.08,0.46 0.03,0.69 -0.04,0.23 -0.13,0.46 -0.26,0.69 -0.13,0.23 -0.29,0.44 -0.5,0.65 l -0.08,0.08 c -0.2,0.2 -0.42,0.37 -0.64,0.5 -0.23,0.13 -0.46,0.21 -0.7,0.26 -0.23,0.04 -0.46,0.03 -0.69,-0.04 -0.22,-0.06 -0.43,-0.19 -0.62,-0.38 -0.19,-0.19 -0.32,-0.4 -0.38,-0.62 -0.07,-0.23 -0.08,-0.46 -0.04,-0.69 0.05,-0.24 0.13,-0.47 0.26,-0.69 0.14,-0.23 0.3,-0.44 0.5,-0.64 z m 3.39,5.75 3.26,-3.25 -0.7,-0.7 -4.06,4.06 0.66,0.66 0.84,-0.77 z m 0.93,-1.21 -0.33,-0.31 c -0.28,0.28 -0.5,0.57 -0.66,0.88 -0.17,0.31 -0.27,0.62 -0.31,0.93 -0.04,0.31 0,0.62 0.11,0.92 0.11,0.3 0.29,0.59 0.57,0.86 0.19,0.19 0.39,0.34 0.6,0.44 0.22,0.11 0.44,0.17 0.67,0.17 0.23,0 0.47,-0.06 0.72,-0.17 0.24,-0.12 0.5,-0.3 0.75,-0.56 l 2.71,-2.7 -0.7,-0.7 -2.67,2.67 c -0.21,0.22 -0.42,0.35 -0.62,0.41 -0.2,0.05 -0.39,0.05 -0.58,-0.02 -0.19,-0.08 -0.37,-0.2 -0.55,-0.37 -0.2,-0.21 -0.34,-0.42 -0.4,-0.63 -0.07,-0.21 -0.08,-0.42 -0.03,-0.63 0.04,-0.21 0.13,-0.41 0.26,-0.61 0.12,-0.2 0.28,-0.4 0.46,-0.58 z m 2.25,3.02 -0.32,-0.61 c -0.22,0.22 -0.4,0.47 -0.53,0.75 -0.14,0.28 -0.22,0.56 -0.24,0.86 -0.02,0.3 0.02,0.59 0.12,0.89 0.11,0.29 0.29,0.57 0.55,0.83 0.22,0.21 0.44,0.38 0.67,0.49 0.22,0.11 0.46,0.17 0.69,0.16 0.24,0 0.48,-0.06 0.72,-0.19 0.25,-0.12 0.5,-0.31 0.75,-0.57 l 2.67,-2.67 -0.7,-0.7 -2.67,2.68 c -0.23,0.23 -0.44,0.37 -0.64,0.42 -0.2,0.06 -0.39,0.05 -0.57,-0.03 -0.18,-0.08 -0.36,-0.21 -0.54,-0.38 -0.15,-0.16 -0.26,-0.32 -0.32,-0.49 -0.07,-0.17 -0.09,-0.34 -0.08,-0.51 0.01,-0.17 0.05,-0.34 0.13,-0.5 0.07,-0.15 0.18,-0.3 0.31,-0.43 z m 4.06,2.89 -0.09,0.08 c -0.29,0.3 -0.52,0.61 -0.69,0.95 -0.17,0.33 -0.26,0.68 -0.29,1.02 -0.03,0.35 0.02,0.69 0.15,1.02 0.12,0.33 0.32,0.64 0.61,0.92 0.28,0.29 0.59,0.49 0.93,0.62 0.33,0.12 0.67,0.17 1.02,0.15 0.34,-0.03 0.69,-0.12 1.02,-0.29 0.34,-0.17 0.66,-0.4 0.95,-0.69 l 0.08,-0.08 c 0.3,-0.3 0.53,-0.61 0.69,-0.95 0.17,-0.33 0.26,-0.67 0.29,-1.02 0.02,-0.35 -0.03,-0.69 -0.15,-1.02 -0.12,-0.33 -0.33,-0.64 -0.61,-0.92 -0.29,-0.29 -0.6,-0.49 -0.93,-0.62 -0.33,-0.12 -0.67,-0.17 -1.02,-0.15 -0.34,0.03 -0.69,0.12 -1.02,0.29 -0.34,0.16 -0.65,0.39 -0.94,0.69 z m 0.6,0.78 0.09,-0.09 c 0.2,-0.2 0.42,-0.37 0.64,-0.5 0.23,-0.13 0.46,-0.22 0.7,-0.26 0.23,-0.04 0.46,-0.03 0.68,0.04 0.23,0.06 0.44,0.19 0.63,0.39 0.19,0.19 0.32,0.39 0.38,0.62 0.07,0.22 0.08,0.45 0.03,0.68 -0.04,0.23 -0.12,0.46 -0.25,0.69 -0.13,0.23 -0.3,0.44 -0.5,0.65 l -0.09,0.08 c -0.2,0.2 -0.41,0.37 -0.64,0.5 -0.23,0.13 -0.46,0.22 -0.7,0.26 -0.23,0.04 -0.46,0.03 -0.69,-0.03 -0.22,-0.07 -0.43,-0.2 -0.62,-0.39 -0.19,-0.19 -0.32,-0.4 -0.38,-0.62 -0.07,-0.22 -0.08,-0.45 -0.03,-0.69 0.04,-0.23 0.13,-0.47 0.26,-0.69 0.13,-0.23 0.29,-0.44 0.49,-0.64 z m 7.51,5.23 -3.13,3.13 0.7,0.7 4.07,-4.07 -0.67,-0.66 -0.97,0.9 z m -0.73,0.99 0.29,0.3 c 0.27,-0.27 0.49,-0.55 0.66,-0.84 0.17,-0.28 0.28,-0.57 0.32,-0.86 0.05,-0.3 0.01,-0.59 -0.1,-0.89 -0.11,-0.29 -0.3,-0.59 -0.6,-0.88 -0.19,-0.2 -0.4,-0.35 -0.62,-0.45 -0.23,-0.11 -0.46,-0.16 -0.69,-0.16 -0.24,0 -0.49,0.07 -0.75,0.2 -0.25,0.13 -0.52,0.33 -0.79,0.6 l -2.62,2.62 0.7,0.69 2.63,-2.63 c 0.18,-0.18 0.35,-0.31 0.51,-0.39 0.16,-0.08 0.31,-0.11 0.45,-0.11 0.14,0 0.27,0.03 0.39,0.1 0.11,0.06 0.22,0.14 0.31,0.23 0.3,0.3 0.48,0.59 0.54,0.87 0.05,0.29 0.02,0.57 -0.09,0.84 -0.12,0.27 -0.3,0.52 -0.54,0.76 z m 4.74,3.31 c -0.1,0.1 -0.21,0.17 -0.34,0.21 -0.13,0.04 -0.3,0.03 -0.51,-0.03 -0.2,-0.06 -0.46,-0.2 -0.78,-0.42 -0.28,-0.18 -0.54,-0.32 -0.78,-0.44 -0.25,-0.11 -0.48,-0.19 -0.7,-0.22 -0.22,-0.04 -0.43,-0.03 -0.62,0.03 -0.19,0.06 -0.37,0.17 -0.54,0.34 -0.16,0.16 -0.28,0.35 -0.35,0.56 -0.07,0.22 -0.1,0.44 -0.07,0.68 0.02,0.25 0.09,0.49 0.21,0.74 0.12,0.25 0.3,0.48 0.53,0.71 0.32,0.33 0.66,0.55 1,0.66 0.35,0.12 0.68,0.14 0.99,0.07 0.32,-0.07 0.59,-0.22 0.82,-0.45 l -0.69,-0.69 c -0.11,0.11 -0.26,0.18 -0.43,0.22 -0.17,0.04 -0.36,0.04 -0.55,-0.02 -0.2,-0.06 -0.39,-0.18 -0.57,-0.36 -0.19,-0.19 -0.32,-0.38 -0.38,-0.55 -0.06,-0.18 -0.07,-0.34 -0.04,-0.49 0.04,-0.14 0.11,-0.26 0.21,-0.36 0.07,-0.08 0.15,-0.13 0.24,-0.16 0.08,-0.04 0.18,-0.04 0.3,-0.03 0.12,0.02 0.26,0.07 0.42,0.15 0.17,0.08 0.37,0.2 0.6,0.35 0.41,0.25 0.77,0.44 1.09,0.55 0.32,0.11 0.61,0.14 0.87,0.09 0.26,-0.05 0.5,-0.18 0.71,-0.4 0.18,-0.17 0.31,-0.37 0.38,-0.6 0.08,-0.22 0.1,-0.45 0.06,-0.7 -0.03,-0.24 -0.11,-0.49 -0.24,-0.74 -0.14,-0.25 -0.32,-0.49 -0.56,-0.73 -0.36,-0.36 -0.72,-0.6 -1.1,-0.72 -0.38,-0.12 -0.73,-0.14 -1.06,-0.07 -0.33,0.08 -0.61,0.23 -0.83,0.45 l 0.7,0.7 c 0.2,-0.18 0.4,-0.27 0.61,-0.29 0.22,-0.01 0.42,0.04 0.61,0.14 0.19,0.09 0.36,0.22 0.5,0.36 0.19,0.19 0.32,0.37 0.4,0.55 0.08,0.18 0.11,0.35 0.09,0.5 -0.02,0.16 -0.08,0.29 -0.2,0.41 z m 1.23,10.01 5.47,-5.47 -0.71,-0.72 -5.47,5.47 0.71,0.72 z m 1.76,1.75 0.59,-0.59 -4.22,-4.23 -0.6,0.6 4.23,4.22 z m 3.49,-0.59 3.43,-3.42 -0.7,-0.7 -4.06,4.06 0.68,0.68 0.65,-0.62 z m 0.61,1.93 0.64,-0.65 c -0.07,-0.04 -0.13,-0.09 -0.18,-0.14 -0.06,-0.05 -0.12,-0.1 -0.18,-0.17 -0.16,-0.16 -0.28,-0.32 -0.35,-0.5 -0.08,-0.17 -0.11,-0.34 -0.1,-0.52 0,-0.17 0.04,-0.35 0.12,-0.52 0.07,-0.17 0.17,-0.34 0.31,-0.5 l -0.09,-0.31 c -0.24,0.24 -0.45,0.5 -0.61,0.76 -0.17,0.27 -0.29,0.53 -0.35,0.8 -0.06,0.27 -0.06,0.53 0,0.79 0.07,0.25 0.21,0.49 0.43,0.71 0.05,0.05 0.11,0.1 0.19,0.15 0.08,0.06 0.13,0.09 0.17,0.1 z m 6.39,-0.39 -2.09,2.09 c -0.16,0.16 -0.34,0.27 -0.52,0.32 -0.18,0.06 -0.37,0.05 -0.56,-0.01 -0.19,-0.06 -0.38,-0.19 -0.57,-0.38 -0.18,-0.17 -0.3,-0.36 -0.37,-0.55 -0.07,-0.19 -0.1,-0.37 -0.07,-0.54 0.02,-0.17 0.09,-0.31 0.2,-0.43 l -0.69,-0.69 c -0.15,0.14 -0.25,0.32 -0.32,0.54 -0.07,0.22 -0.09,0.46 -0.07,0.72 0.03,0.25 0.11,0.52 0.24,0.78 0.13,0.27 0.31,0.53 0.56,0.77 0.3,0.3 0.61,0.51 0.93,0.64 0.33,0.12 0.66,0.15 0.99,0.08 0.33,-0.07 0.65,-0.26 0.95,-0.57 l 1.89,-1.89 c 0.14,-0.13 0.29,-0.27 0.47,-0.39 0.18,-0.13 0.34,-0.23 0.5,-0.29 l 0.06,-0.06 -0.72,-0.73 c -0.12,0.05 -0.25,0.13 -0.41,0.24 -0.15,0.12 -0.29,0.23 -0.4,0.35 z m -1.65,1.88 0.5,-0.48 -0.71,-0.7 c -0.19,-0.2 -0.36,-0.39 -0.48,-0.57 -0.12,-0.19 -0.21,-0.37 -0.25,-0.54 -0.04,-0.16 -0.04,-0.32 0,-0.47 0.03,-0.15 0.12,-0.29 0.24,-0.41 0.13,-0.13 0.27,-0.22 0.44,-0.27 0.16,-0.04 0.33,-0.04 0.51,0.02 0.18,0.05 0.35,0.16 0.52,0.33 0.21,0.22 0.36,0.45 0.43,0.7 0.07,0.26 0.09,0.49 0.06,0.72 -0.04,0.23 -0.11,0.41 -0.23,0.54 l 0.63,-0.04 c 0.09,-0.12 0.16,-0.29 0.21,-0.49 0.05,-0.21 0.07,-0.43 0.06,-0.68 -0.02,-0.24 -0.07,-0.49 -0.17,-0.75 -0.1,-0.25 -0.26,-0.49 -0.48,-0.71 -0.28,-0.27 -0.57,-0.46 -0.89,-0.56 -0.31,-0.1 -0.62,-0.11 -0.91,-0.04 -0.3,0.06 -0.56,0.21 -0.78,0.43 -0.22,0.22 -0.37,0.46 -0.45,0.71 -0.08,0.25 -0.1,0.51 -0.05,0.78 0.05,0.28 0.16,0.55 0.32,0.84 0.17,0.28 0.39,0.56 0.67,0.84 l 0.81,0.8 z m 5.99,2.65 -4.98,4.98 0.7,0.7 5.77,-5.77 -0.64,-0.64 -0.85,0.73 z m -3.93,-1.54 -0.08,0.08 c -0.31,0.31 -0.55,0.63 -0.73,0.96 -0.18,0.33 -0.29,0.66 -0.33,0.98 -0.04,0.33 -0.01,0.64 0.09,0.93 0.09,0.3 0.26,0.57 0.51,0.81 0.25,0.26 0.52,0.44 0.8,0.54 0.28,0.1 0.57,0.13 0.87,0.1 0.31,-0.04 0.62,-0.13 0.93,-0.29 0.32,-0.16 0.64,-0.38 0.97,-0.65 l 0.35,-0.35 c 0.27,-0.32 0.48,-0.64 0.64,-0.96 0.16,-0.32 0.26,-0.62 0.29,-0.93 0.03,-0.3 0,-0.59 -0.1,-0.87 -0.11,-0.28 -0.29,-0.55 -0.55,-0.81 -0.24,-0.24 -0.5,-0.4 -0.8,-0.5 -0.3,-0.09 -0.62,-0.12 -0.94,-0.07 -0.33,0.04 -0.66,0.15 -0.98,0.33 -0.33,0.17 -0.64,0.41 -0.94,0.7 z m 0.62,0.78 0.08,-0.08 c 0.2,-0.2 0.41,-0.37 0.63,-0.51 0.22,-0.14 0.44,-0.23 0.66,-0.27 0.23,-0.05 0.44,-0.05 0.66,0.01 0.21,0.06 0.41,0.18 0.6,0.37 0.23,0.23 0.37,0.47 0.42,0.72 0.05,0.24 0.04,0.49 -0.03,0.74 -0.07,0.25 -0.17,0.5 -0.31,0.74 l -0.91,0.9 c -0.16,0.11 -0.34,0.2 -0.53,0.27 -0.18,0.07 -0.37,0.12 -0.56,0.13 -0.19,0.01 -0.38,-0.02 -0.57,-0.09 -0.19,-0.06 -0.37,-0.19 -0.55,-0.36 -0.19,-0.19 -0.31,-0.4 -0.37,-0.61 -0.05,-0.22 -0.06,-0.44 -0.01,-0.66 0.05,-0.22 0.14,-0.45 0.28,-0.67 0.14,-0.22 0.31,-0.43 0.51,-0.63 z m 2.63,6.62 4.06,-4.06 -0.7,-0.7 -4.06,4.06 0.7,0.7 z m -1.83,0.33 c -0.11,0.11 -0.18,0.24 -0.18,0.39 -0.01,0.14 0.05,0.28 0.19,0.42 0.13,0.13 0.27,0.19 0.42,0.19 0.15,-0.01 0.28,-0.07 0.39,-0.18 0.11,-0.11 0.16,-0.24 0.17,-0.38 0,-0.15 -0.06,-0.29 -0.19,-0.42 -0.14,-0.14 -0.28,-0.2 -0.42,-0.2 -0.15,0.01 -0.27,0.07 -0.38,0.18 z m 4.47,0.57 3.19,-3.19 -0.69,-0.7 -4.07,4.07 0.66,0.65 0.91,-0.83 z m 0.84,-1.17 -0.3,-0.28 c -0.28,0.28 -0.49,0.58 -0.65,0.9 -0.15,0.31 -0.25,0.63 -0.28,0.95 -0.03,0.32 0.01,0.63 0.11,0.93 0.11,0.3 0.29,0.57 0.53,0.82 0.2,0.2 0.41,0.35 0.62,0.46 0.22,0.1 0.44,0.15 0.67,0.15 0.23,0 0.47,-0.07 0.72,-0.2 0.24,-0.12 0.5,-0.32 0.77,-0.59 l 2.66,-2.66 -0.7,-0.7 -2.67,2.67 c -0.21,0.21 -0.41,0.35 -0.6,0.42 -0.19,0.07 -0.38,0.07 -0.56,0.01 -0.18,-0.06 -0.35,-0.18 -0.53,-0.36 -0.17,-0.17 -0.29,-0.36 -0.36,-0.58 -0.07,-0.21 -0.09,-0.43 -0.07,-0.66 0.03,-0.23 0.1,-0.46 0.2,-0.68 0.11,-0.22 0.26,-0.42 0.44,-0.6 z m 4.5,8.25 0.63,0.63 3.98,-3.97 c 0.35,-0.36 0.59,-0.74 0.7,-1.14 0.1,-0.4 0.09,-0.79 -0.03,-1.18 -0.13,-0.39 -0.37,-0.76 -0.7,-1.09 -0.14,-0.14 -0.33,-0.29 -0.56,-0.43 -0.24,-0.15 -0.49,-0.26 -0.78,-0.34 -0.29,-0.07 -0.58,-0.09 -0.88,-0.03 l -0.04,0.77 c 0.37,-0.03 0.69,0 0.96,0.11 0.27,0.11 0.49,0.25 0.67,0.44 0.22,0.22 0.37,0.45 0.45,0.69 0.08,0.24 0.08,0.49 0.01,0.74 -0.08,0.25 -0.23,0.49 -0.46,0.73 l -3.12,3.12 -0.83,0.95 z m -0.72,-4.87 -0.08,0.08 c -0.31,0.31 -0.56,0.63 -0.74,0.95 -0.18,0.33 -0.29,0.66 -0.33,0.98 -0.05,0.32 -0.02,0.63 0.08,0.93 0.1,0.29 0.27,0.57 0.52,0.81 0.25,0.26 0.52,0.44 0.8,0.54 0.28,0.1 0.57,0.14 0.88,0.1 0.3,-0.03 0.61,-0.13 0.93,-0.29 0.31,-0.16 0.63,-0.38 0.96,-0.65 l 0.35,-0.34 c 0.27,-0.33 0.49,-0.65 0.64,-0.97 0.16,-0.31 0.26,-0.62 0.29,-0.92 0.04,-0.3 0,-0.6 -0.1,-0.88 -0.11,-0.28 -0.29,-0.55 -0.54,-0.81 -0.25,-0.24 -0.52,-0.41 -0.82,-0.5 -0.3,-0.1 -0.61,-0.12 -0.93,-0.08 -0.33,0.05 -0.66,0.16 -0.98,0.34 -0.33,0.18 -0.64,0.41 -0.93,0.71 z m 0.61,0.77 0.08,-0.08 c 0.21,-0.2 0.42,-0.37 0.64,-0.51 0.21,-0.13 0.43,-0.22 0.66,-0.27 0.22,-0.05 0.43,-0.05 0.65,0.01 0.21,0.06 0.41,0.18 0.59,0.37 0.24,0.23 0.38,0.47 0.43,0.72 0.05,0.25 0.04,0.49 -0.03,0.74 -0.07,0.25 -0.17,0.5 -0.31,0.73 l -0.91,0.91 c -0.16,0.11 -0.34,0.2 -0.52,0.27 -0.19,0.08 -0.38,0.12 -0.57,0.13 -0.19,0.01 -0.38,-0.01 -0.57,-0.09 -0.19,-0.07 -0.37,-0.19 -0.55,-0.36 -0.19,-0.19 -0.31,-0.4 -0.37,-0.61 -0.06,-0.22 -0.06,-0.44 -0.01,-0.66 0.05,-0.22 0.14,-0.44 0.28,-0.66 0.14,-0.22 0.31,-0.44 0.51,-0.64 z m 9.4,8.03 c -0.12,0.13 -0.26,0.23 -0.4,0.29 -0.13,0.06 -0.29,0.08 -0.47,0.06 -0.17,-0.01 -0.38,-0.07 -0.62,-0.17 -0.25,-0.09 -0.53,-0.23 -0.87,-0.42 -0.35,-0.19 -0.68,-0.34 -1,-0.46 -0.31,-0.12 -0.61,-0.19 -0.9,-0.22 -0.28,-0.03 -0.54,0 -0.79,0.08 -0.25,0.09 -0.48,0.23 -0.69,0.45 -0.22,0.21 -0.37,0.45 -0.46,0.72 -0.09,0.27 -0.12,0.55 -0.09,0.85 0.03,0.29 0.12,0.59 0.27,0.9 0.15,0.3 0.37,0.59 0.65,0.87 0.41,0.41 0.84,0.68 1.28,0.81 0.44,0.13 0.87,0.15 1.27,0.05 0.4,-0.1 0.74,-0.3 1.03,-0.58 L 469,349.65 c -0.21,0.2 -0.43,0.34 -0.68,0.41 -0.25,0.07 -0.51,0.06 -0.77,-0.02 -0.27,-0.09 -0.54,-0.27 -0.82,-0.54 -0.26,-0.26 -0.43,-0.51 -0.52,-0.76 -0.09,-0.24 -0.11,-0.47 -0.06,-0.68 0.05,-0.22 0.16,-0.41 0.33,-0.58 0.12,-0.12 0.25,-0.2 0.39,-0.24 0.14,-0.05 0.31,-0.06 0.49,-0.03 0.19,0.02 0.39,0.08 0.62,0.17 0.23,0.1 0.49,0.23 0.78,0.39 0.39,0.22 0.76,0.39 1.09,0.51 0.34,0.12 0.64,0.18 0.92,0.19 0.28,0.02 0.54,-0.03 0.78,-0.12 0.24,-0.1 0.47,-0.26 0.68,-0.47 0.23,-0.22 0.38,-0.47 0.47,-0.74 0.09,-0.27 0.12,-0.55 0.08,-0.85 -0.04,-0.29 -0.14,-0.59 -0.31,-0.9 -0.16,-0.3 -0.39,-0.59 -0.68,-0.88 -0.25,-0.25 -0.54,-0.47 -0.85,-0.64 -0.31,-0.18 -0.64,-0.29 -0.98,-0.35 -0.34,-0.06 -0.67,-0.05 -1,0.04 -0.32,0.09 -0.62,0.27 -0.89,0.54 l 0.72,0.72 c 0.18,-0.18 0.38,-0.31 0.59,-0.37 0.2,-0.06 0.41,-0.07 0.63,-0.03 0.21,0.04 0.42,0.11 0.62,0.23 0.21,0.12 0.4,0.27 0.57,0.45 0.25,0.25 0.43,0.5 0.54,0.75 0.1,0.24 0.14,0.47 0.1,0.7 -0.04,0.22 -0.15,0.42 -0.33,0.59 z m 3.73,1.8 -2.52,4.78 0.75,0.74 3.06,-6.32 c 0.06,-0.14 0.12,-0.29 0.17,-0.47 0.06,-0.18 0.09,-0.37 0.1,-0.57 0.01,-0.2 -0.02,-0.4 -0.08,-0.6 -0.07,-0.2 -0.2,-0.39 -0.38,-0.58 -0.06,-0.05 -0.14,-0.12 -0.24,-0.19 -0.1,-0.07 -0.17,-0.11 -0.21,-0.14 l -0.57,0.56 c 0.02,0.02 0.06,0.05 0.1,0.09 0.05,0.04 0.08,0.07 0.1,0.08 0.16,0.16 0.27,0.32 0.34,0.47 0.07,0.15 0.09,0.31 0.07,0.48 -0.02,0.18 -0.08,0.37 -0.19,0.6 l -0.5,1.07 z m -4.48,2.82 4.21,-2.1 0.92,-0.55 -0.25,-0.76 -5.64,2.65 0.76,0.76 z m 8.71,2.73 c -0.1,0.1 -0.22,0.17 -0.35,0.21 -0.13,0.05 -0.3,0.04 -0.5,-0.03 -0.21,-0.06 -0.47,-0.2 -0.79,-0.41 -0.27,-0.18 -0.53,-0.33 -0.78,-0.45 -0.25,-0.11 -0.48,-0.19 -0.7,-0.22 -0.22,-0.03 -0.42,-0.02 -0.62,0.03 -0.19,0.06 -0.37,0.18 -0.54,0.34 -0.16,0.16 -0.27,0.35 -0.35,0.56 -0.07,0.22 -0.09,0.45 -0.07,0.69 0.02,0.24 0.09,0.48 0.22,0.73 0.12,0.25 0.29,0.49 0.52,0.72 0.33,0.32 0.66,0.54 1.01,0.66 0.34,0.11 0.67,0.13 0.99,0.07 0.31,-0.07 0.58,-0.22 0.82,-0.46 l -0.7,-0.69 c -0.11,0.11 -0.25,0.19 -0.43,0.23 -0.17,0.04 -0.35,0.03 -0.55,-0.03 -0.2,-0.05 -0.39,-0.17 -0.57,-0.36 -0.19,-0.19 -0.32,-0.37 -0.38,-0.55 -0.06,-0.18 -0.07,-0.34 -0.03,-0.48 0.03,-0.15 0.1,-0.27 0.2,-0.37 0.08,-0.07 0.16,-0.13 0.24,-0.16 0.09,-0.03 0.19,-0.04 0.3,-0.02 0.12,0.02 0.26,0.07 0.43,0.15 0.16,0.08 0.36,0.19 0.59,0.34 0.41,0.26 0.78,0.44 1.1,0.55 0.32,0.11 0.61,0.14 0.86,0.09 0.26,-0.04 0.5,-0.18 0.72,-0.39 0.18,-0.18 0.3,-0.38 0.38,-0.6 0.07,-0.22 0.09,-0.46 0.06,-0.7 -0.04,-0.25 -0.12,-0.5 -0.25,-0.75 -0.13,-0.25 -0.32,-0.49 -0.56,-0.73 -0.35,-0.36 -0.72,-0.6 -1.1,-0.72 -0.37,-0.12 -0.73,-0.14 -1.06,-0.06 -0.33,0.07 -0.6,0.22 -0.83,0.45 l 0.7,0.69 c 0.2,-0.18 0.41,-0.27 0.62,-0.28 0.21,-0.01 0.41,0.03 0.6,0.13 0.19,0.1 0.36,0.22 0.5,0.36 0.19,0.19 0.33,0.38 0.41,0.56 0.08,0.17 0.1,0.34 0.08,0.5 -0.02,0.15 -0.08,0.29 -0.19,0.4 z m 0.37,6.35 0.54,-0.54 -2.2,-2.19 -0.53,0.53 2.19,2.2 z m -2.44,-0.47 0.7,0.7 4.04,-4.05 c 0.14,-0.13 0.27,-0.22 0.38,-0.25 0.11,-0.02 0.21,-0.01 0.3,0.03 0.09,0.05 0.18,0.11 0.25,0.19 0.06,0.05 0.12,0.12 0.17,0.19 0.05,0.08 0.09,0.14 0.12,0.18 l 0.57,-0.57 c -0.04,-0.07 -0.1,-0.16 -0.17,-0.26 -0.07,-0.11 -0.17,-0.22 -0.3,-0.35 -0.17,-0.17 -0.36,-0.29 -0.57,-0.37 -0.21,-0.07 -0.43,-0.07 -0.68,0 -0.24,0.08 -0.5,0.25 -0.77,0.52 l -4.04,4.04 z m 9.01,-1.24 c -0.28,-0.29 -0.59,-0.49 -0.91,-0.63 -0.33,-0.13 -0.66,-0.19 -1,-0.18 -0.34,0.01 -0.67,0.09 -1,0.25 -0.33,0.15 -0.64,0.37 -0.92,0.65 l -0.16,0.16 c -0.33,0.33 -0.58,0.68 -0.74,1.03 -0.16,0.36 -0.25,0.71 -0.26,1.06 -0.01,0.35 0.04,0.67 0.16,0.98 0.12,0.31 0.3,0.57 0.53,0.8 0.29,0.29 0.59,0.49 0.9,0.6 0.31,0.11 0.62,0.15 0.94,0.1 0.31,-0.04 0.62,-0.15 0.93,-0.33 0.31,-0.17 0.6,-0.4 0.89,-0.69 l 0.31,-0.31 -3.04,-3.04 -0.56,0.57 2.34,2.34 -0.06,0.05 c -0.19,0.17 -0.4,0.31 -0.63,0.42 -0.24,0.11 -0.48,0.14 -0.73,0.12 -0.24,-0.03 -0.49,-0.16 -0.72,-0.4 -0.16,-0.16 -0.27,-0.34 -0.34,-0.54 -0.07,-0.2 -0.08,-0.41 -0.05,-0.63 0.04,-0.23 0.12,-0.46 0.26,-0.7 0.13,-0.24 0.32,-0.48 0.57,-0.73 l 0.16,-0.16 c 0.19,-0.19 0.4,-0.34 0.62,-0.46 0.22,-0.11 0.45,-0.18 0.68,-0.21 0.23,-0.02 0.46,0 0.68,0.08 0.22,0.08 0.43,0.21 0.62,0.4 0.25,0.25 0.4,0.5 0.47,0.77 0.07,0.28 0.09,0.56 0.05,0.85 l 0.75,0.09 c 0.05,-0.22 0.06,-0.46 0.05,-0.71 -0.02,-0.26 -0.09,-0.52 -0.21,-0.79 -0.12,-0.28 -0.31,-0.55 -0.58,-0.81 z m -0.18,6.48 3.26,-3.25 -0.7,-0.7 -4.06,4.06 0.66,0.66 0.84,-0.77 z m 0.93,-1.21 -0.33,-0.31 c -0.28,0.28 -0.5,0.57 -0.67,0.88 -0.16,0.31 -0.26,0.62 -0.3,0.93 -0.04,0.31 0,0.62 0.11,0.92 0.1,0.3 0.29,0.59 0.56,0.86 0.19,0.19 0.4,0.34 0.61,0.44 0.21,0.11 0.44,0.16 0.67,0.17 0.23,0 0.47,-0.06 0.72,-0.17 0.24,-0.12 0.49,-0.3 0.75,-0.56 l 2.71,-2.71 -0.7,-0.69 -2.67,2.67 c -0.21,0.22 -0.42,0.35 -0.62,0.41 -0.2,0.05 -0.39,0.05 -0.58,-0.03 -0.19,-0.07 -0.37,-0.19 -0.55,-0.37 -0.2,-0.2 -0.34,-0.41 -0.4,-0.62 -0.07,-0.21 -0.08,-0.42 -0.03,-0.63 0.04,-0.21 0.13,-0.42 0.26,-0.62 0.12,-0.2 0.28,-0.39 0.46,-0.57 z m 2.25,3.02 -0.32,-0.61 c -0.22,0.22 -0.4,0.47 -0.53,0.75 -0.14,0.28 -0.22,0.56 -0.24,0.86 -0.02,0.3 0.02,0.59 0.12,0.89 0.11,0.29 0.29,0.57 0.55,0.82 0.22,0.22 0.44,0.39 0.67,0.5 0.22,0.11 0.45,0.16 0.69,0.16 0.24,0 0.48,-0.06 0.72,-0.19 0.25,-0.12 0.5,-0.32 0.75,-0.57 l 2.67,-2.67 -0.7,-0.7 -2.67,2.68 c -0.23,0.23 -0.44,0.37 -0.64,0.42 -0.2,0.06 -0.39,0.05 -0.57,-0.03 -0.18,-0.08 -0.36,-0.21 -0.54,-0.38 -0.15,-0.16 -0.26,-0.32 -0.32,-0.49 -0.07,-0.17 -0.1,-0.34 -0.08,-0.51 0.01,-0.17 0.05,-0.34 0.13,-0.5 0.07,-0.16 0.18,-0.3 0.31,-0.43 z"/>
      </g>
    </g>
    <g id="g354">
      <g clip-path="url(#clipPath358)" id="g356">
        <path id="path362" style="fill:#000000;fill-opacity:1;fill-rule:nonzero;stroke:none" d="m 507.09,337.58 0.59,-0.58 -3.7,-3.71 -0.59,0.59 3.7,3.7 z m -4.47,4.24 1.53,-8.36 -0.45,-0.44 -0.54,0.54 -1.52,8.33 0.45,0.45 0.53,-0.52 z m -0.84,0.21 0.6,-0.59 -3.5,-3.5 -0.6,0.59 3.5,3.5 z m 8.53,-2.56 c -0.29,-0.28 -0.59,-0.49 -0.92,-0.62 -0.32,-0.14 -0.66,-0.2 -0.99,-0.18 -0.34,0.01 -0.68,0.09 -1.01,0.24 -0.32,0.15 -0.63,0.37 -0.92,0.66 l -0.15,0.16 c -0.33,0.33 -0.58,0.67 -0.74,1.03 -0.16,0.35 -0.25,0.71 -0.26,1.05 -0.01,0.35 0.04,0.68 0.16,0.98 0.12,0.31 0.29,0.58 0.52,0.8 0.29,0.3 0.59,0.5 0.9,0.61 0.32,0.11 0.63,0.14 0.94,0.1 0.32,-0.05 0.63,-0.16 0.93,-0.33 0.31,-0.18 0.61,-0.41 0.89,-0.69 l 0.31,-0.32 -3.03,-3.03 -0.57,0.57 2.34,2.34 -0.05,0.05 c -0.19,0.17 -0.4,0.31 -0.64,0.41 -0.23,0.11 -0.47,0.15 -0.72,0.12 -0.25,-0.03 -0.49,-0.16 -0.73,-0.4 -0.16,-0.15 -0.27,-0.33 -0.33,-0.53 -0.07,-0.2 -0.09,-0.41 -0.05,-0.64 0.03,-0.22 0.12,-0.46 0.25,-0.7 0.14,-0.24 0.33,-0.48 0.58,-0.73 l 0.15,-0.15 c 0.2,-0.2 0.4,-0.35 0.63,-0.46 0.22,-0.12 0.45,-0.19 0.68,-0.21 0.23,-0.03 0.46,0 0.68,0.08 0.22,0.07 0.43,0.21 0.62,0.4 0.24,0.24 0.4,0.5 0.47,0.77 0.07,0.27 0.08,0.55 0.04,0.85 l 0.76,0.08 c 0.04,-0.22 0.06,-0.45 0.04,-0.71 -0.01,-0.25 -0.08,-0.52 -0.2,-0.79 -0.12,-0.27 -0.32,-0.54 -0.58,-0.81 z m 4.16,5.89 -4.98,4.98 0.7,0.7 5.76,-5.77 -0.63,-0.64 -0.85,0.73 z m -3.93,-1.54 -0.08,0.08 c -0.31,0.31 -0.56,0.63 -0.74,0.96 -0.17,0.34 -0.28,0.66 -0.32,0.99 -0.05,0.32 -0.02,0.63 0.08,0.93 0.1,0.29 0.27,0.56 0.51,0.8 0.26,0.26 0.52,0.44 0.8,0.54 0.28,0.1 0.58,0.14 0.88,0.1 0.3,-0.03 0.61,-0.13 0.93,-0.29 0.31,-0.16 0.64,-0.38 0.97,-0.65 l 0.34,-0.34 c 0.27,-0.33 0.49,-0.65 0.65,-0.97 0.15,-0.31 0.25,-0.62 0.28,-0.92 0.04,-0.3 0,-0.6 -0.1,-0.88 -0.1,-0.28 -0.29,-0.55 -0.54,-0.81 -0.24,-0.24 -0.51,-0.4 -0.81,-0.49 -0.3,-0.1 -0.61,-0.12 -0.94,-0.08 -0.32,0.04 -0.65,0.15 -0.98,0.33 -0.33,0.17 -0.64,0.41 -0.93,0.7 z m 0.61,0.78 0.08,-0.08 c 0.21,-0.2 0.42,-0.37 0.64,-0.51 0.22,-0.13 0.44,-0.22 0.66,-0.27 0.22,-0.05 0.44,-0.04 0.65,0.02 0.21,0.05 0.41,0.18 0.6,0.37 0.23,0.23 0.37,0.46 0.42,0.71 0.05,0.25 0.04,0.5 -0.03,0.75 -0.07,0.25 -0.17,0.49 -0.31,0.73 l -0.9,0.9 c -0.17,0.11 -0.35,0.2 -0.53,0.27 -0.19,0.08 -0.38,0.12 -0.57,0.13 -0.19,0.01 -0.38,-0.01 -0.56,-0.08 -0.19,-0.07 -0.38,-0.19 -0.55,-0.37 -0.19,-0.19 -0.32,-0.39 -0.37,-0.61 -0.06,-0.21 -0.06,-0.43 -0.02,-0.66 0.05,-0.22 0.15,-0.44 0.28,-0.66 0.14,-0.22 0.31,-0.44 0.51,-0.64 z m 10.76,7.81 0.59,-0.59 -2.9,-2.9 -0.59,0.59 2.9,2.9 z m -7.63,2.13 5.47,-5.47 -0.72,-0.73 -5.47,5.47 0.72,0.73 z m 4.72,0.01 0.59,-0.59 -2.51,-2.51 -0.59,0.59 2.51,2.51 z m -2.01,2.7 0.6,-0.6 -2.86,-2.85 -0.59,0.59 2.85,2.86 z m 8.1,-1.27 -4.98,4.98 0.7,0.7 5.77,-5.77 -0.64,-0.64 -0.85,0.73 z m -3.93,-1.53 -0.08,0.07 c -0.31,0.32 -0.56,0.64 -0.73,0.97 -0.18,0.33 -0.29,0.65 -0.33,0.98 -0.04,0.32 -0.02,0.63 0.08,0.93 0.1,0.29 0.27,0.56 0.51,0.81 0.26,0.25 0.53,0.43 0.81,0.53 0.28,0.1 0.57,0.14 0.87,0.1 0.3,-0.03 0.61,-0.13 0.93,-0.29 0.31,-0.16 0.64,-0.37 0.97,-0.65 l 0.34,-0.34 c 0.27,-0.33 0.49,-0.65 0.65,-0.96 0.16,-0.32 0.25,-0.63 0.29,-0.93 0.03,-0.3 -0.01,-0.59 -0.11,-0.88 -0.1,-0.28 -0.28,-0.55 -0.54,-0.81 -0.24,-0.23 -0.51,-0.4 -0.81,-0.49 -0.3,-0.1 -0.61,-0.12 -0.94,-0.08 -0.32,0.05 -0.65,0.15 -0.98,0.33 -0.33,0.18 -0.64,0.41 -0.93,0.71 z m 0.62,0.77 0.07,-0.08 c 0.21,-0.2 0.42,-0.37 0.64,-0.5 0.22,-0.14 0.44,-0.23 0.66,-0.28 0.22,-0.05 0.44,-0.04 0.65,0.02 0.21,0.06 0.41,0.18 0.6,0.37 0.23,0.23 0.37,0.47 0.42,0.71 0.06,0.25 0.05,0.5 -0.02,0.75 -0.07,0.25 -0.18,0.49 -0.32,0.73 l -0.9,0.9 c -0.17,0.11 -0.35,0.2 -0.53,0.28 -0.19,0.07 -0.37,0.11 -0.56,0.12 -0.19,0.02 -0.38,-0.01 -0.57,-0.08 -0.19,-0.07 -0.37,-0.19 -0.55,-0.37 -0.19,-0.19 -0.31,-0.39 -0.37,-0.61 -0.06,-0.21 -0.06,-0.43 -0.01,-0.66 0.04,-0.22 0.14,-0.44 0.28,-0.66 0.13,-0.22 0.3,-0.43 0.51,-0.64 z m 2.62,6.63 4.07,-4.07 -0.7,-0.7 -4.07,4.07 0.7,0.7 z m -1.83,0.32 c -0.11,0.11 -0.17,0.24 -0.18,0.39 -0.01,0.15 0.06,0.29 0.19,0.42 0.13,0.14 0.27,0.2 0.42,0.19 0.15,0 0.28,-0.06 0.4,-0.18 0.1,-0.1 0.16,-0.23 0.16,-0.38 0.01,-0.15 -0.05,-0.29 -0.19,-0.42 -0.13,-0.13 -0.27,-0.2 -0.42,-0.19 -0.14,0.01 -0.27,0.06 -0.38,0.17 z m 4.61,2.45 0.53,-0.53 -2.19,-2.2 -0.54,0.54 2.2,2.19 z m -2.44,-0.46 0.69,0.69 4.05,-4.04 c 0.14,-0.14 0.26,-0.22 0.37,-0.25 0.12,-0.03 0.22,-0.02 0.31,0.03 0.09,0.04 0.17,0.1 0.25,0.18 0.06,0.06 0.11,0.12 0.16,0.2 0.06,0.07 0.1,0.13 0.12,0.17 l 0.57,-0.56 c -0.04,-0.07 -0.09,-0.16 -0.16,-0.27 -0.08,-0.1 -0.17,-0.22 -0.3,-0.34 -0.17,-0.17 -0.36,-0.3 -0.57,-0.37 -0.21,-0.08 -0.44,-0.08 -0.68,0 -0.24,0.07 -0.5,0.25 -0.77,0.52 l -4.04,4.04 z m 5.2,-0.94 -0.09,0.09 c -0.29,0.29 -0.52,0.61 -0.69,0.95 -0.17,0.33 -0.26,0.67 -0.29,1.02 -0.03,0.35 0.02,0.69 0.15,1.02 0.12,0.33 0.32,0.64 0.61,0.92 0.28,0.29 0.59,0.49 0.92,0.62 0.34,0.12 0.68,0.17 1.03,0.15 0.34,-0.03 0.69,-0.12 1.02,-0.29 0.34,-0.17 0.66,-0.4 0.95,-0.69 l 0.08,-0.09 c 0.3,-0.29 0.53,-0.6 0.69,-0.94 0.17,-0.33 0.26,-0.68 0.29,-1.02 0.02,-0.35 -0.03,-0.69 -0.15,-1.02 -0.12,-0.33 -0.33,-0.64 -0.61,-0.93 -0.29,-0.28 -0.6,-0.49 -0.93,-0.61 -0.33,-0.12 -0.67,-0.17 -1.02,-0.15 -0.34,0.03 -0.69,0.12 -1.02,0.29 -0.34,0.16 -0.65,0.39 -0.94,0.68 z m 0.6,0.79 0.09,-0.09 c 0.2,-0.2 0.42,-0.37 0.64,-0.5 0.23,-0.13 0.46,-0.22 0.7,-0.26 0.23,-0.04 0.46,-0.03 0.68,0.04 0.23,0.06 0.43,0.19 0.63,0.39 0.19,0.19 0.32,0.39 0.38,0.61 0.07,0.23 0.08,0.46 0.03,0.69 -0.04,0.23 -0.12,0.46 -0.25,0.69 -0.13,0.23 -0.3,0.44 -0.5,0.65 l -0.09,0.08 c -0.2,0.2 -0.41,0.37 -0.64,0.5 -0.23,0.13 -0.46,0.21 -0.7,0.26 -0.23,0.04 -0.46,0.03 -0.69,-0.04 -0.22,-0.06 -0.43,-0.19 -0.62,-0.38 -0.19,-0.19 -0.32,-0.4 -0.38,-0.62 -0.07,-0.23 -0.08,-0.46 -0.04,-0.69 0.05,-0.24 0.13,-0.47 0.27,-0.69 0.13,-0.23 0.29,-0.44 0.49,-0.64 z m 3.23,5.93 3.43,-3.43 -0.7,-0.69 -4.06,4.06 0.67,0.68 0.66,-0.62 z m 0.61,1.93 0.64,-0.65 c -0.07,-0.05 -0.13,-0.09 -0.19,-0.14 -0.05,-0.05 -0.11,-0.11 -0.18,-0.17 -0.16,-0.16 -0.27,-0.33 -0.35,-0.5 -0.07,-0.17 -0.1,-0.35 -0.1,-0.52 0.01,-0.18 0.05,-0.35 0.12,-0.52 0.08,-0.18 0.18,-0.34 0.31,-0.51 l -0.08,-0.31 c -0.24,0.25 -0.45,0.5 -0.62,0.77 -0.16,0.26 -0.28,0.53 -0.34,0.8 -0.07,0.27 -0.06,0.53 0,0.78 0.07,0.25 0.21,0.49 0.43,0.71 0.05,0.05 0.11,0.1 0.19,0.16 0.07,0.05 0.13,0.08 0.17,0.1 z"/>
      </g>
    </g>
    <g id="g364">
      <g clip-path="url(#clipPath368)" id="g366"><text id="text372" style="font-variant:normal;font-weight:bold;font-size:13.6420002px;font-family:Roboto;-inkscape-font-specification:'Roboto Bold';writing-mode:lr-tb;fill:#000000;fill-opacity:1;fill-rule:nonzero;stroke:none" transform="matrix(1,0,0,-1,74.589,556.53)"><tspan id="tspan374" y="0" x="0 7.5985942 15.197188 18.798676 23.464239 31.212896 38.497723 45.891689 53.49028">bn tokens</tspan></text>
</g>
    </g>
    <path id="path376" style="fill:#00b0f0;fill-opacity:1;fill-rule:evenodd;stroke:none" d="m 234.68,538.65 91.006,0 0,24.09 -91.006,0 0,-24.09 z"/>
    <g id="g378">
      <g clip-path="url(#clipPath382)" id="g380"><text id="text386" style="font-variant:normal;font-weight:bold;font-size:13.6420002px;font-family:Calibri;-inkscape-font-specification:Calibri-Bold;writing-mode:lr-tb;fill:#ffffff;fill-opacity:1;fill-rule:nonzero;stroke:none" transform="matrix(1,0,0,-1,245.77,546.04)"><tspan id="tspan388" y="0" x="0 7.2439022 14.501446 21.758989 25.046713 32.304256 38.702354 42.140137 48.879288 56.136829 63.394375">Coding apps</tspan></text>
</g>
    </g>
    <path id="path390" style="fill:#d6dce5;fill-opacity:1;fill-rule:evenodd;stroke:none" d="m 339.41,538.58 71.025,0 0,24.09 -71.025,0 0,-24.09 z"/>
    <g id="g392">
      <g clip-path="url(#clipPath396)" id="g394"><text id="text400" style="font-variant:normal;font-weight:bold;font-size:13.6420002px;font-family:Calibri;-inkscape-font-specification:Calibri-Bold;writing-mode:lr-tb;fill:#000000;fill-opacity:1;fill-rule:nonzero;stroke:none" transform="matrix(1,0,0,-1,355.71,545.98)"><tspan id="tspan402" y="0" x="0 9.1537819 13.805704 21.049606 27.938816 32.781727">Others</tspan></text>
</g>
    </g>
  </g>
</svg>
