<?xml version="1.0" encoding="UTF-8" standalone="no"?>
<svg xmlns:dc="http://purl.org/dc/elements/1.1/" xmlns:cc="http://creativecommons.org/ns#" xmlns:rdf="http://www.w3.org/1999/02/22-rdf-syntax-ns#" xmlns:svg="http://www.w3.org/2000/svg" xmlns="http://www.w3.org/2000/svg" viewBox="66.36125 420.1875 650.6425 321" height="321" width="650.6425" xml:space="preserve" version="1.1" id="svg2">
  <metadata id="metadata8">
    <rdf:RDF>
      <cc:Work rdf:about="">
        <dc:format>image/svg+xml</dc:format>
        <dc:type rdf:resource="http://purl.org/dc/dcmitype/StillImage"/>
      </cc:Work>
    </rdf:RDF>
  </metadata>
  <defs id="defs6">
    <clipPath id="clipPath16" clipPathUnits="userSpaceOnUse">
      <path style="clip-rule:evenodd" id="path18" d="m 53.053,293.31 520.55,0 0,256.8 -520.55,0 0,-256.8 z"/>
    </clipPath>
    <clipPath id="clipPath26" clipPathUnits="userSpaceOnUse">
      <path style="clip-rule:evenodd" id="path28" d="m 53.053,293.31 520.55,0 0,256.8 -520.55,0 0,-256.8 z"/>
    </clipPath>
    <clipPath id="clipPath60" clipPathUnits="userSpaceOnUse">
      <path style="clip-rule:evenodd" id="path62" d="m 53.179,293.31 520.42,0 0,256.67 -520.42,0 0,-256.67 z"/>
    </clipPath>
    <clipPath id="clipPath72" clipPathUnits="userSpaceOnUse">
      <path style="clip-rule:evenodd" id="path74" d="m 53.179,293.31 520.42,0 0,256.67 -520.42,0 0,-256.67 z"/>
    </clipPath>
    <clipPath id="clipPath84" clipPathUnits="userSpaceOnUse">
      <path style="clip-rule:evenodd" id="path86" d="m 53.179,293.31 520.42,0 0,256.67 -520.42,0 0,-256.67 z"/>
    </clipPath>
    <clipPath id="clipPath96" clipPathUnits="userSpaceOnUse">
      <path style="clip-rule:evenodd" id="path98" d="m 53.179,293.31 520.42,0 0,256.67 -520.42,0 0,-256.67 z"/>
    </clipPath>
    <clipPath id="clipPath108" clipPathUnits="userSpaceOnUse">
      <path style="clip-rule:evenodd" id="path110" d="m 53.179,293.31 520.42,0 0,256.67 -520.42,0 0,-256.67 z"/>
    </clipPath>
    <clipPath id="clipPath120" clipPathUnits="userSpaceOnUse">
      <path style="clip-rule:evenodd" id="path122" d="m 53.179,293.31 520.42,0 0,256.67 -520.42,0 0,-256.67 z"/>
    </clipPath>
    <clipPath id="clipPath132" clipPathUnits="userSpaceOnUse">
      <path style="clip-rule:evenodd" id="path134" d="m 53.179,293.31 520.42,0 0,256.67 -520.42,0 0,-256.67 z"/>
    </clipPath>
    <clipPath id="clipPath144" clipPathUnits="userSpaceOnUse">
      <path style="clip-rule:evenodd" id="path146" d="m 53.179,293.31 520.42,0 0,256.67 -520.42,0 0,-256.67 z"/>
    </clipPath>
    <clipPath id="clipPath156" clipPathUnits="userSpaceOnUse">
      <path style="clip-rule:evenodd" id="path158" d="m 53.179,293.31 520.42,0 0,256.67 -520.42,0 0,-256.67 z"/>
    </clipPath>
    <clipPath id="clipPath168" clipPathUnits="userSpaceOnUse">
      <path style="clip-rule:evenodd" id="path170" d="m 53.179,293.31 520.42,0 0,256.67 -520.42,0 0,-256.67 z"/>
    </clipPath>
    <clipPath id="clipPath180" clipPathUnits="userSpaceOnUse">
      <path style="clip-rule:evenodd" id="path182" d="m 53.179,293.31 520.42,0 0,256.67 -520.42,0 0,-256.67 z"/>
    </clipPath>
    <clipPath id="clipPath192" clipPathUnits="userSpaceOnUse">
      <path style="clip-rule:evenodd" id="path194" d="m 53.179,293.31 520.42,0 0,256.67 -520.42,0 0,-256.67 z"/>
    </clipPath>
    <clipPath id="clipPath204" clipPathUnits="userSpaceOnUse">
      <path style="clip-rule:evenodd" id="path206" d="m 53.179,293.31 520.42,0 0,256.67 -520.42,0 0,-256.67 z"/>
    </clipPath>
    <clipPath id="clipPath216" clipPathUnits="userSpaceOnUse">
      <path style="clip-rule:evenodd" id="path218" d="m 53.179,293.31 520.42,0 0,256.67 -520.42,0 0,-256.67 z"/>
    </clipPath>
    <clipPath id="clipPath228" clipPathUnits="userSpaceOnUse">
      <path style="clip-rule:evenodd" id="path230" d="m 53.179,293.31 520.42,0 0,256.67 -520.42,0 0,-256.67 z"/>
    </clipPath>
    <clipPath id="clipPath240" clipPathUnits="userSpaceOnUse">
      <path style="clip-rule:evenodd" id="path242" d="m 53.179,293.31 520.42,0 0,256.67 -520.42,0 0,-256.67 z"/>
    </clipPath>
    <clipPath id="clipPath252" clipPathUnits="userSpaceOnUse">
      <path style="clip-rule:evenodd" id="path254" d="m 53.179,293.31 520.42,0 0,256.67 -520.42,0 0,-256.67 z"/>
    </clipPath>
    <clipPath id="clipPath264" clipPathUnits="userSpaceOnUse">
      <path style="clip-rule:evenodd" id="path266" d="m 53.179,293.31 520.42,0 0,256.67 -520.42,0 0,-256.67 z"/>
    </clipPath>
    <clipPath id="clipPath276" clipPathUnits="userSpaceOnUse">
      <path style="clip-rule:evenodd" id="path278" d="m 53.179,293.31 520.42,0 0,256.67 -520.42,0 0,-256.67 z"/>
    </clipPath>
    <clipPath id="clipPath288" clipPathUnits="userSpaceOnUse">
      <path style="clip-rule:evenodd" id="path290" d="m 53.179,293.31 520.42,0 0,256.67 -520.42,0 0,-256.67 z"/>
    </clipPath>
    <clipPath id="clipPath300" clipPathUnits="userSpaceOnUse">
      <path style="clip-rule:evenodd" id="path302" d="m 53.179,293.31 520.42,0 0,256.67 -520.42,0 0,-256.67 z"/>
    </clipPath>
    <clipPath id="clipPath312" clipPathUnits="userSpaceOnUse">
      <path style="clip-rule:evenodd" id="path314" d="m 53.179,293.31 520.42,0 0,256.67 -520.42,0 0,-256.67 z"/>
    </clipPath>
    <clipPath id="clipPath324" clipPathUnits="userSpaceOnUse">
      <path style="clip-rule:evenodd" id="path326" d="m 53.179,293.31 520.42,0 0,256.67 -520.42,0 0,-256.67 z"/>
    </clipPath>
    <clipPath id="clipPath336" clipPathUnits="userSpaceOnUse">
      <path style="clip-rule:evenodd" id="path338" d="m 53.179,293.31 520.42,0 0,256.67 -520.42,0 0,-256.67 z"/>
    </clipPath>
    <clipPath id="clipPath348" clipPathUnits="userSpaceOnUse">
      <path style="clip-rule:evenodd" id="path350" d="m 53.179,293.31 520.42,0 0,256.67 -520.42,0 0,-256.67 z"/>
    </clipPath>
    <clipPath id="clipPath360" clipPathUnits="userSpaceOnUse">
      <path style="clip-rule:evenodd" id="path362" d="m 53.179,293.31 520.42,0 0,256.67 -520.42,0 0,-256.67 z"/>
    </clipPath>
    <clipPath id="clipPath372" clipPathUnits="userSpaceOnUse">
      <path style="clip-rule:evenodd" id="path374" d="m 53.179,293.31 520.42,0 0,256.67 -520.42,0 0,-256.67 z"/>
    </clipPath>
    <clipPath id="clipPath384" clipPathUnits="userSpaceOnUse">
      <path style="clip-rule:evenodd" id="path386" d="m 53.179,293.31 520.42,0 0,256.67 -520.42,0 0,-256.67 z"/>
    </clipPath>
    <clipPath id="clipPath396" clipPathUnits="userSpaceOnUse">
      <path style="clip-rule:evenodd" id="path398" d="m 53.179,293.31 520.42,0 0,256.67 -520.42,0 0,-256.67 z"/>
    </clipPath>
    <clipPath id="clipPath408" clipPathUnits="userSpaceOnUse">
      <path style="clip-rule:evenodd" id="path410" d="m 53.179,293.31 520.42,0 0,256.67 -520.42,0 0,-256.67 z"/>
    </clipPath>
    <clipPath id="clipPath420" clipPathUnits="userSpaceOnUse">
      <path style="clip-rule:evenodd" id="path422" d="m 53.179,293.31 520.42,0 0,256.67 -520.42,0 0,-256.67 z"/>
    </clipPath>
    <clipPath id="clipPath432" clipPathUnits="userSpaceOnUse">
      <path style="clip-rule:evenodd" id="path434" d="m 53.179,293.31 520.42,0 0,256.67 -520.42,0 0,-256.67 z"/>
    </clipPath>
    <clipPath id="clipPath444" clipPathUnits="userSpaceOnUse">
      <path style="clip-rule:evenodd" id="path446" d="m 53.179,293.31 520.42,0 0,256.67 -520.42,0 0,-256.67 z"/>
    </clipPath>
    <clipPath id="clipPath456" clipPathUnits="userSpaceOnUse">
      <path style="clip-rule:evenodd" id="path458" d="m 53.179,293.31 520.42,0 0,256.67 -520.42,0 0,-256.67 z"/>
    </clipPath>
    <clipPath id="clipPath468" clipPathUnits="userSpaceOnUse">
      <path style="clip-rule:evenodd" id="path470" d="m 53.179,293.31 520.42,0 0,256.67 -520.42,0 0,-256.67 z"/>
    </clipPath>
    <clipPath id="clipPath480" clipPathUnits="userSpaceOnUse">
      <path style="clip-rule:evenodd" id="path482" d="m 53.179,293.31 520.42,0 0,256.67 -520.42,0 0,-256.67 z"/>
    </clipPath>
    <clipPath id="clipPath494" clipPathUnits="userSpaceOnUse">
      <path style="clip-rule:evenodd" id="path496" d="m 53.179,293.31 520.42,0 0,256.67 -520.42,0 0,-256.67 z"/>
    </clipPath>
    <clipPath id="clipPath506" clipPathUnits="userSpaceOnUse">
      <path style="clip-rule:evenodd" id="path508" d="m 53.179,293.31 520.42,0 0,256.67 -520.42,0 0,-256.67 z"/>
    </clipPath>
  </defs>
  <g transform="matrix(1.25,0,0,-1.25,0,1107.7875)" id="g10">
    <g id="g12">
      <g clip-path="url(#clipPath16)" id="g14">
        <path id="path20" style="fill:none;stroke:#000000;stroke-width:0.14;stroke-linecap:butt;stroke-linejoin:miter;stroke-miterlimit:10;stroke-dasharray:none;stroke-opacity:0" d="m 53.159,293.27 520.47,0 0,256.74 -520.47,0 0,-256.74 z"/>
      </g>
    </g>
    <g id="g22">
      <g clip-path="url(#clipPath26)" id="g24">
        <path id="path30" style="fill:#ffffff;fill-opacity:1;fill-rule:evenodd;stroke:none" d="m 53.159,293.27 520.47,0 0,256.74 -520.47,0 0,-256.74 z"/>
      </g>
    </g>
    <path id="path32" style="fill:none;stroke:#bfbfbf;stroke-width:1.02069998;stroke-linecap:butt;stroke-linejoin:round;stroke-miterlimit:10;stroke-dasharray:none;stroke-opacity:1" d="m 104.53,330.35 0,192.32"/>
    <path id="path34" style="fill:none;stroke:#bfbfbf;stroke-width:1.02069998;stroke-linecap:butt;stroke-linejoin:round;stroke-miterlimit:10;stroke-dasharray:none;stroke-opacity:1" d="m 104.53,330.35 445.16,0"/>
    <path id="path36" style="fill:#0070c0;fill-opacity:1;fill-rule:nonzero;stroke:none" d="m 326.67,507.21 c 0,-1.9 -1.54,-3.44 -3.44,-3.44 -1.9,0 -3.44,1.54 -3.44,3.44 0,1.89 1.54,3.43 3.44,3.43 1.9,0 3.44,-1.54 3.44,-3.43 z"/>
    <path id="path38" style="fill:#0070c0;fill-opacity:1;fill-rule:nonzero;stroke:none" d="m 326.67,507.21 c 0,-1.9 -1.54,-3.44 -3.44,-3.44 -1.9,0 -3.44,1.54 -3.44,3.44 0,1.89 1.54,3.43 3.44,3.43 1.9,0 3.44,-1.54 3.44,-3.43 z"/>
    <path id="path40" style="fill:#0070c0;fill-opacity:1;fill-rule:nonzero;stroke:none" d="m 489.64,484.17 c 0,-1.9 -1.54,-3.44 -3.44,-3.44 -1.9,0 -3.43,1.54 -3.43,3.44 0,1.9 1.53,3.44 3.43,3.44 1.9,0 3.44,-1.54 3.44,-3.44 z"/>
    <path id="path42" style="fill:#0070c0;fill-opacity:1;fill-rule:nonzero;stroke:none" d="m 489.64,468.87 c 0,-1.9 -1.54,-3.44 -3.44,-3.44 -1.9,0 -3.43,1.54 -3.43,3.44 0,1.9 1.53,3.44 3.43,3.44 1.9,0 3.44,-1.54 3.44,-3.44 z"/>
    <path id="path44" style="fill:#0070c0;fill-opacity:1;fill-rule:nonzero;stroke:none" d="m 124.67,453.4 c 0,-1.9 -1.53,-3.44 -3.43,-3.44 -1.9,0 -3.44,1.54 -3.44,3.44 0,1.9 1.54,3.44 3.44,3.44 1.9,0 3.43,-1.54 3.43,-3.44 z"/>
    <path id="path46" style="fill:#0070c0;fill-opacity:1;fill-rule:nonzero;stroke:none" d="m 125.53,445.66 c 0,-1.9 -1.54,-3.44 -3.43,-3.44 -1.9,0 -3.44,1.54 -3.44,3.44 0,1.9 1.54,3.44 3.44,3.44 1.89,0 3.43,-1.54 3.43,-3.44 z"/>
    <path id="path48" style="fill:#0070c0;fill-opacity:1;fill-rule:nonzero;stroke:none" d="m 326.67,445.66 c 0,-1.9 -1.54,-3.44 -3.44,-3.44 -1.9,0 -3.44,1.54 -3.44,3.44 0,1.9 1.54,3.44 3.44,3.44 1.9,0 3.44,-1.54 3.44,-3.44 z"/>
    <path id="path50" style="fill:#0070c0;fill-opacity:1;fill-rule:nonzero;stroke:none" d="m 274.92,422.63 c 0,-1.9 -1.53,-3.44 -3.43,-3.44 -1.9,0 -3.44,1.54 -3.44,3.44 0,1.89 1.54,3.43 3.44,3.43 1.9,0 3.43,-1.54 3.43,-3.43 z"/>
    <path id="path52" style="fill:#0070c0;fill-opacity:1;fill-rule:nonzero;stroke:none" d="m 128.11,422.63 c 0,-1.9 -1.54,-3.44 -3.44,-3.44 -1.89,0 -3.43,1.54 -3.43,3.44 0,1.89 1.54,3.43 3.43,3.43 1.9,0 3.44,-1.54 3.44,-3.43 z"/>
    <path id="path54" style="fill:#c00000;fill-opacity:1;fill-rule:nonzero;stroke:none" d="m 141.29,453.6 c 0,-1.9 -1.54,-3.44 -3.43,-3.44 -1.9,0 -3.44,1.54 -3.44,3.44 0,1.9 1.54,3.44 3.44,3.44 1.89,0 3.43,-1.54 3.43,-3.44 z"/>
    <g id="g56">
      <g clip-path="url(#clipPath60)" id="g58"><text id="text64" style="font-variant:normal;font-weight:normal;font-size:10.8210001px;font-family:Roboto;-inkscape-font-specification:Roboto;writing-mode:lr-tb;fill:#000000;fill-opacity:1;fill-rule:nonzero;stroke:none" transform="matrix(1,0,0,-1,334.76,503.45)"><tspan id="tspan66" y="0" x="0 7.369101 14.240436">GPT</tspan></text>
</g>
    </g>
    <g id="g68">
      <g clip-path="url(#clipPath72)" id="g70"><text id="text76" style="font-variant:normal;font-weight:normal;font-size:10.8210001px;font-family:Roboto;-inkscape-font-specification:Roboto;writing-mode:lr-tb;fill:#000000;fill-opacity:1;fill-rule:nonzero;stroke:none" transform="matrix(1,0,0,-1,355.56,503.45)"><tspan id="tspan78" y="0" x="0">-</tspan></text>
</g>
    </g>
    <g id="g80">
      <g clip-path="url(#clipPath84)" id="g82"><text id="text88" style="font-variant:normal;font-weight:normal;font-size:10.8210001px;font-family:Roboto;-inkscape-font-specification:Roboto;writing-mode:lr-tb;fill:#000000;fill-opacity:1;fill-rule:nonzero;stroke:none" transform="matrix(1,0,0,-1,358.48,503.45)"><tspan id="tspan90" y="0" x="0 6.0164762 8.9273252 15.971796 22.139767 28.351021 34.010403 39.334335 42.061226 45.816113 51.82177 54.386345 60.402821 66.408478">5 Codex (high)</tspan></text>
</g>
    </g>
    <g id="g92">
      <g clip-path="url(#clipPath96)" id="g94"><text id="text100" style="font-variant:normal;font-weight:normal;font-size:10.8210001px;font-family:Roboto;-inkscape-font-specification:Roboto;writing-mode:lr-tb;fill:#000000;fill-opacity:1;fill-rule:nonzero;stroke:none" transform="matrix(1,0,0,-1,341.98,482.74)"><tspan id="tspan102" y="0" x="0 7.369101 14.240436">GPT</tspan></text>
</g>
    </g>
    <g id="g104">
      <g clip-path="url(#clipPath108)" id="g106"><text id="text112" style="font-variant:normal;font-weight:normal;font-size:10.8210001px;font-family:Roboto;-inkscape-font-specification:Roboto;writing-mode:lr-tb;fill:#000000;fill-opacity:1;fill-rule:nonzero;stroke:none" transform="matrix(1,0,0,-1,362.78,482.74)"><tspan id="tspan114" y="0" x="0">-</tspan></text>
</g>
    </g>
    <g id="g116">
      <g clip-path="url(#clipPath120)" id="g118"><text id="text124" style="font-variant:normal;font-weight:normal;font-size:10.8210001px;font-family:Roboto;-inkscape-font-specification:Roboto;writing-mode:lr-tb;fill:#000000;fill-opacity:1;fill-rule:nonzero;stroke:none" transform="matrix(1,0,0,-1,365.71,482.74)"><tspan id="tspan126" y="0" x="0 6.0164762 8.9273252 12.682212 18.687866 21.252443 27.268921 33.274574">5 (high)</tspan></text>
</g>
    </g>
    <g id="g128">
      <g clip-path="url(#clipPath132)" id="g130"><text id="text136" style="font-variant:normal;font-weight:normal;font-size:10.84200001px;font-family:Roboto;-inkscape-font-specification:Roboto;writing-mode:lr-tb;fill:#000000;fill-opacity:1;fill-rule:nonzero;stroke:none" transform="matrix(1,0,0,-1,497.77,480.38)"><tspan id="tspan138" y="0" x="0 7.3834019 11.015472 17.195412 22.692307 25.641331">Grok 4</tspan></text>
</g>
    </g>
    <g id="g140">
      <g clip-path="url(#clipPath144)" id="g142"><text id="text148" style="font-variant:normal;font-weight:normal;font-size:10.8210001px;font-family:Roboto;-inkscape-font-specification:Roboto;writing-mode:lr-tb;fill:#000000;fill-opacity:1;fill-rule:nonzero;stroke:none" transform="matrix(1,0,0,-1,480.15,450.74)"><tspan id="tspan150" y="0" x="0 7.0444708 9.5982265 15.430746 21.414759 27.59355 33.252934 36.142139 42.136974 45.02618 51.021015 53.910221 60.272968 66.440941 72.446594 78.419785 84.111633">Claude 4.5 Sonnet</tspan></text>
</g>
    </g>
    <g id="g152">
      <g clip-path="url(#clipPath156)" id="g154"><text id="text160" style="font-variant:normal;font-weight:normal;font-size:10.8210001px;font-family:Roboto;-inkscape-font-specification:Roboto;writing-mode:lr-tb;fill:#000000;fill-opacity:1;fill-rule:nonzero;stroke:none" transform="matrix(1,0,0,-1,148.32,448.29)"><tspan id="tspan162" y="0" x="0 9.4467335 12.022131 18.027786 20.592363 30.039097 35.871616">MiniMax</tspan></text>
</g>
    </g>
    <g id="g164">
      <g clip-path="url(#clipPath168)" id="g166"><text id="text172" style="font-variant:normal;font-weight:normal;font-size:10.8210001px;font-family:Roboto;-inkscape-font-specification:Roboto;writing-mode:lr-tb;fill:#000000;fill-opacity:1;fill-rule:nonzero;stroke:none" transform="matrix(1,0,0,-1,189.58,448.29)"><tspan id="tspan174" y="0" x="0">-</tspan></text>
</g>
    </g>
    <g id="g176">
      <g clip-path="url(#clipPath180)" id="g178"><text id="text184" style="font-variant:normal;font-weight:normal;font-size:10.8210001px;font-family:Roboto;-inkscape-font-specification:Roboto;writing-mode:lr-tb;fill:#000000;fill-opacity:1;fill-rule:nonzero;stroke:none" transform="matrix(1,0,0,-1,192.51,448.29)"><tspan id="tspan186" y="0" x="0 9.4525833">M2</tspan></text>
</g>
    </g>
    <g id="g188">
      <g clip-path="url(#clipPath192)" id="g190"><text id="text196" style="font-variant:normal;font-weight:normal;font-size:10.84200001px;font-family:Roboto;-inkscape-font-specification:Roboto;writing-mode:lr-tb;fill:#000000;fill-opacity:1;fill-rule:nonzero;stroke:none" transform="matrix(1,0,0,-1,122.93,469.03)"><tspan id="tspan198" y="0" x="0 7.3834019 13.38987">Gpt</tspan></text>
</g>
    </g>
    <g id="g200">
      <g clip-path="url(#clipPath204)" id="g202"><text id="text208" style="font-variant:normal;font-weight:normal;font-size:10.84200001px;font-family:Roboto;-inkscape-font-specification:Roboto;writing-mode:lr-tb;fill:#000000;fill-opacity:1;fill-rule:nonzero;stroke:none" transform="matrix(1,0,0,-1,139.94,469.03)"><tspan id="tspan210" y="0" x="0">-</tspan></text>
</g>
    </g>
    <g id="g212">
      <g clip-path="url(#clipPath216)" id="g214"><text id="text220" style="font-variant:normal;font-weight:normal;font-size:10.84200001px;font-family:Roboto;-inkscape-font-specification:Roboto;writing-mode:lr-tb;fill:#000000;fill-opacity:1;fill-rule:nonzero;stroke:none" transform="matrix(1,0,0,-1,142.86,469.03)"><tspan id="tspan222" y="0" x="0 6.1799402 11.839464">oss</tspan></text>
</g>
    </g>
    <g id="g224">
      <g clip-path="url(#clipPath228)" id="g226"><text id="text232" style="font-variant:normal;font-weight:normal;font-size:10.84200001px;font-family:Roboto;-inkscape-font-specification:Roboto;writing-mode:lr-tb;fill:#000000;fill-opacity:1;fill-rule:nonzero;stroke:none" transform="matrix(1,0,0,-1,160.4,469.03)"><tspan id="tspan234" y="0" x="0">-</tspan></text>
</g>
    </g>
    <g id="g236">
      <g clip-path="url(#clipPath240)" id="g238"><text id="text244" style="font-variant:normal;font-weight:normal;font-size:10.84200001px;font-family:Roboto;-inkscape-font-specification:Roboto;writing-mode:lr-tb;fill:#000000;fill-opacity:1;fill-rule:nonzero;stroke:none" transform="matrix(1,0,0,-1,163.33,469.03)"><tspan id="tspan246" y="0" x="0 6.0210042 12.042008 18.063011">120B</tspan></text>
</g>
    </g>
    <g id="g248">
      <g clip-path="url(#clipPath252)" id="g250"><text id="text256" style="font-variant:normal;font-weight:normal;font-size:10.84200001px;font-family:Roboto;-inkscape-font-specification:Roboto;writing-mode:lr-tb;fill:#000000;fill-opacity:1;fill-rule:nonzero;stroke:none" transform="matrix(1,0,0,-1,127.73,432.84)"><tspan id="tspan258" y="0" x="0 7.3834019 11.05884 17.238779 22.735674 25.652172 31.669481 34.412506 40.408134 46.306183 51.954865">Grok 4 Fast</tspan></text>
</g>
    </g>
    <g id="g260">
      <g clip-path="url(#clipPath264)" id="g262"><text id="text268" style="font-variant:normal;font-weight:normal;font-size:10.8210001px;font-family:Roboto;-inkscape-font-specification:Roboto;writing-mode:lr-tb;fill:#000000;fill-opacity:1;fill-rule:nonzero;stroke:none" transform="matrix(1,0,0,-1,334.84,441.89)"><tspan id="tspan270" y="0" x="0 7.369101 13.050126 22.507681 25.072256 31.077911 33.64249 36.726475 42.74295 45.653797 51.670277 54.397167 61.246861 64.85025">Gemini 2.5 Pro</tspan></text>
</g>
    </g>
    <g id="g272">
      <g clip-path="url(#clipPath276)" id="g274"><text id="text280" style="font-variant:normal;font-weight:normal;font-size:10.8210001px;font-family:Roboto;-inkscape-font-specification:Roboto;writing-mode:lr-tb;fill:#000000;fill-opacity:1;fill-rule:nonzero;stroke:none" transform="matrix(1,0,0,-1,283.16,418.82)"><tspan id="tspan282" y="0" x="0 7.412385 15.495672 21.176697 27.182352 30.093201 36.109676 39.020527 45.037003 51.053478 57.069954">Qwen 3 235B</tspan></text>
</g>
    </g>
    <g id="g284">
      <g clip-path="url(#clipPath288)" id="g286"><text id="text292" style="font-variant:normal;font-weight:normal;font-size:10.84200001px;font-family:Roboto;-inkscape-font-specification:Roboto;writing-mode:lr-tb;fill:#000000;fill-opacity:1;fill-rule:nonzero;stroke:none" transform="matrix(1,0,0,-1,118.84,402)"><tspan id="tspan294" y="0" x="0 7.0472999 12.728508 18.409716 24.427027 30.780437 36.461647 42.142853 47.639748 51.054977 57.96133 63.956959 66.873459 72.890762 75.807266 81.965523 87.343155">DeepSeek V3.2 Exp</tspan></text>
</g>
    </g>
    <g id="g296">
      <g clip-path="url(#clipPath300)" id="g298"><text id="text304" style="font-variant:normal;font-weight:normal;font-size:10.8210001px;font-family:Roboto;-inkscape-font-specification:Roboto;writing-mode:lr-tb;fill:#000000;fill-opacity:1;fill-rule:nonzero;stroke:none" transform="matrix(1,0,0,-1,82.316,327.03)"><tspan id="tspan306" y="0" x="0 6.1894021">45</tspan></text>
</g>
    </g>
    <g id="g308">
      <g clip-path="url(#clipPath312)" id="g310"><text id="text316" style="font-variant:normal;font-weight:normal;font-size:10.84200001px;font-family:Roboto;-inkscape-font-specification:Roboto;writing-mode:lr-tb;fill:#000000;fill-opacity:1;fill-rule:nonzero;stroke:none" transform="matrix(1,0,0,-1,82.316,365.52)"><tspan id="tspan318" y="0" x="0 6.189404">50</tspan></text>
</g>
    </g>
    <g id="g320">
      <g clip-path="url(#clipPath324)" id="g322"><text id="text328" style="font-variant:normal;font-weight:normal;font-size:10.8210001px;font-family:Roboto;-inkscape-font-specification:Roboto;writing-mode:lr-tb;fill:#000000;fill-opacity:1;fill-rule:nonzero;stroke:none" transform="matrix(1,0,0,-1,82.316,403.98)"><tspan id="tspan330" y="0" x="0 6.1894021">55</tspan></text>
</g>
    </g>
    <g id="g332">
      <g clip-path="url(#clipPath336)" id="g334"><text id="text340" style="font-variant:normal;font-weight:normal;font-size:10.8210001px;font-family:Roboto;-inkscape-font-specification:Roboto;writing-mode:lr-tb;fill:#000000;fill-opacity:1;fill-rule:nonzero;stroke:none" transform="matrix(1,0,0,-1,82.316,442.44)"><tspan id="tspan342" y="0" x="0 6.1894021">60</tspan></text>
</g>
    </g>
    <g id="g344">
      <g clip-path="url(#clipPath348)" id="g346"><text id="text352" style="font-variant:normal;font-weight:normal;font-size:10.84200001px;font-family:Roboto;-inkscape-font-specification:Roboto;writing-mode:lr-tb;fill:#000000;fill-opacity:1;fill-rule:nonzero;stroke:none" transform="matrix(1,0,0,-1,82.316,480.93)"><tspan id="tspan354" y="0" x="0 6.189404">65</tspan></text>
</g>
    </g>
    <g id="g356">
      <g clip-path="url(#clipPath360)" id="g358"><text id="text364" style="font-variant:normal;font-weight:normal;font-size:10.84200001px;font-family:Roboto;-inkscape-font-specification:Roboto;writing-mode:lr-tb;fill:#000000;fill-opacity:1;fill-rule:nonzero;stroke:none" transform="matrix(1,0,0,-1,82.316,519.39)"><tspan id="tspan366" y="0" x="0 6.189404">70</tspan></text>
</g>
    </g>
    <g id="g368">
      <g clip-path="url(#clipPath372)" id="g370"><text id="text376" style="font-variant:normal;font-weight:normal;font-size:10.84200001px;font-family:Roboto;-inkscape-font-specification:Roboto;writing-mode:lr-tb;fill:#000000;fill-opacity:1;fill-rule:nonzero;stroke:none" transform="matrix(1,0,0,-1,101.47,313.07)"><tspan id="tspan378" y="0" x="0">0</tspan></text>
</g>
    </g>
    <g id="g380">
      <g clip-path="url(#clipPath384)" id="g382"><text id="text388" style="font-variant:normal;font-weight:normal;font-size:10.84200001px;font-family:Roboto;-inkscape-font-specification:Roboto;writing-mode:lr-tb;fill:#000000;fill-opacity:1;fill-rule:nonzero;stroke:none" transform="matrix(1,0,0,-1,165.09,313.07)"><tspan id="tspan390" y="0" x="0">1</tspan></text>
</g>
    </g>
    <g id="g392">
      <g clip-path="url(#clipPath396)" id="g394"><text id="text400" style="font-variant:normal;font-weight:normal;font-size:10.84200001px;font-family:Roboto;-inkscape-font-specification:Roboto;writing-mode:lr-tb;fill:#000000;fill-opacity:1;fill-rule:nonzero;stroke:none" transform="matrix(1,0,0,-1,228.69,313.07)"><tspan id="tspan402" y="0" x="0">2</tspan></text>
</g>
    </g>
    <g id="g404">
      <g clip-path="url(#clipPath408)" id="g406"><text id="text412" style="font-variant:normal;font-weight:normal;font-size:10.84200001px;font-family:Roboto;-inkscape-font-specification:Roboto;writing-mode:lr-tb;fill:#000000;fill-opacity:1;fill-rule:nonzero;stroke:none" transform="matrix(1,0,0,-1,292.29,313.07)"><tspan id="tspan414" y="0" x="0">3</tspan></text>
</g>
    </g>
    <g id="g416">
      <g clip-path="url(#clipPath420)" id="g418"><text id="text424" style="font-variant:normal;font-weight:normal;font-size:10.84200001px;font-family:Roboto;-inkscape-font-specification:Roboto;writing-mode:lr-tb;fill:#000000;fill-opacity:1;fill-rule:nonzero;stroke:none" transform="matrix(1,0,0,-1,355.92,313.07)"><tspan id="tspan426" y="0" x="0">4</tspan></text>
</g>
    </g>
    <g id="g428">
      <g clip-path="url(#clipPath432)" id="g430"><text id="text436" style="font-variant:normal;font-weight:normal;font-size:10.84200001px;font-family:Roboto;-inkscape-font-specification:Roboto;writing-mode:lr-tb;fill:#000000;fill-opacity:1;fill-rule:nonzero;stroke:none" transform="matrix(1,0,0,-1,419.52,313.07)"><tspan id="tspan438" y="0" x="0">5</tspan></text>
</g>
    </g>
    <g id="g440">
      <g clip-path="url(#clipPath444)" id="g442"><text id="text448" style="font-variant:normal;font-weight:normal;font-size:10.84200001px;font-family:Roboto;-inkscape-font-specification:Roboto;writing-mode:lr-tb;fill:#000000;fill-opacity:1;fill-rule:nonzero;stroke:none" transform="matrix(1,0,0,-1,483.14,313.07)"><tspan id="tspan450" y="0" x="0">6</tspan></text>
</g>
    </g>
    <g id="g452">
      <g clip-path="url(#clipPath456)" id="g454"><text id="text460" style="font-variant:normal;font-weight:normal;font-size:10.84200001px;font-family:Roboto;-inkscape-font-specification:Roboto;writing-mode:lr-tb;fill:#000000;fill-opacity:1;fill-rule:nonzero;stroke:none" transform="matrix(1,0,0,-1,546.74,313.07)"><tspan id="tspan462" y="0" x="0">7</tspan></text>
</g>
    </g>
    <g id="g464">
      <g clip-path="url(#clipPath468)" id="g466"><text id="text472" style="font-variant:normal;font-weight:bold;font-size:10.84200001px;font-family:Roboto;-inkscape-font-specification:'Roboto Bold';writing-mode:lr-tb;fill:#000000;fill-opacity:1;fill-rule:nonzero;stroke:none" transform="matrix(-4.4e-8,1,1,4.4e-8,75.474,338.65)"><tspan id="tspan474" y="0" x="0 7.2207718 11.188944 14.79933 17.715828 21.662315 24.578814 30.24918 33.165676 39.009518 41.926014 44.517254 51.738026 57.755333 63.599171 66.515671 72.001724 77.498619 80.415115 85.91201 88.991135 92.081108 98.098419 101.71964 107.57433 110.49082 113.40732 116.32381 122.5146 128.36928 134.3866 140.05696 145.91164 148.82814 151.91811 157.93541 163.95273 169.8074">Artificial Analysis Intelligence Index</tspan></text>
</g>
    </g>
    <g id="g476">
      <g clip-path="url(#clipPath480)" id="g478"><text id="text484" style="font-variant:normal;font-weight:bold;font-size:10.8210001px;font-family:Roboto;-inkscape-font-specification:'Roboto Bold';writing-mode:lr-tb;fill:#000000;fill-opacity:1;fill-rule:nonzero;stroke:none" transform="matrix(1,0,0,-1,242.86,297.98)"><tspan id="tspan486" y="0" x="0 6.9037981 9.8038263 15.647166 21.674463 27.690939 33.534279 39.561577 42.645561 49.863167 56.907639 60.002445 62.913296 69.957764 73.918251 76.829102 82.499306 88.342644 91.101997 94.889351 102.10696 108.81598 115.02723 118.96607 128.42363 134.44011 137.18864 140.81367 146.99246 152.8358 158.67914 164.70644">Blended API Price (US$/mn token)</tspan></text>
</g>
    </g>
    <path id="path488" style="fill:#70ad47;fill-opacity:0.2;fill-rule:evenodd;stroke:none" d="m 103.83,421.04 226.9,0 0,103.85 -226.9,0 0,-103.85 z"/>
    <g id="g490">
      <g clip-path="url(#clipPath494)" id="g492"><text id="text498" style="font-variant:normal;font-weight:bold;font-size:10.84200001px;font-family:Roboto;-inkscape-font-specification:'Roboto Bold';writing-mode:lr-tb;fill:#c00000;fill-opacity:1;fill-rule:nonzero;stroke:none" transform="matrix(1,0,0,-1,108.97,512.17)"><tspan id="tspan500" y="0" x="0 7.2207718 10.820316 14.41986 18.388033 24.221027 29.869711 33.480095 36.396595 41.882645">Attractive</tspan></text>
</g>
    </g>
    <g id="g502">
      <g clip-path="url(#clipPath506)" id="g504"><text id="text510" style="font-variant:normal;font-weight:bold;font-size:10.84200001px;font-family:Roboto;-inkscape-font-specification:'Roboto Bold';writing-mode:lr-tb;fill:#c00000;fill-opacity:1;fill-rule:nonzero;stroke:none" transform="matrix(1,0,0,-1,159.85,512.17)"><tspan id="tspan512" y="0" x="0 6.2016239 12.218934 18.062773 24.080082 28.048254 33.881248 39.89856">quadrant</tspan></text>
</g>
    </g>
  </g>
</svg>
