<?xml version="1.0" encoding="utf-8" standalone="yes"?>
<svg xmlns="http://www.w3.org/2000/svg" xmlns:xlink="http://www.w3.org/1999/xlink" version="1.1" x="0" y="0" viewBox="0 0 1500 999" width="1500" height="999">
	<!--Generated by Aspose.Words for Java 23.4.0-->
	<defs>
		<clipPath id="clip001">
			<path d="M0,0 L1500,0 L1500,999 L0,999 Z" clip-rule="evenodd" />
		</clipPath>
		<clipPath id="clip002">
			<path d="M0,0 L1333.3334,0 L1333.3334,1333.3334 L0,1333.3334 Z" clip-rule="evenodd" />
		</clipPath>
		<clipPath id="clip003">
			<path d="M0,0 L0,3197.3333 L4800,3197.3333 L4800,0 Z" clip-rule="evenodd" />
		</clipPath>
		<clipPath id="clip004">
			<path d="M460,237.33333 L460,2637.3333 L4400,2637.3333 L4400,237.33333 Z" clip-rule="evenodd" />
		</clipPath>
		<clipPath id="clip005">
			<path d="M0,0 L0,3196 L4800,3196 L4800,0 Z" clip-rule="evenodd" />
		</clipPath>
		<clipPath id="clip006">
			<path d="M0,0 L0,3196 L4800,3196 L4800,0 Z" clip-rule="evenodd" />
		</clipPath>
		<clipPath id="clip007">
			<path d="M460,237.33333 L460,2637.3333 L4400,2637.3333 L4400,237.33333 Z" clip-rule="evenodd" />
		</clipPath>
		<clipPath id="clip008">
			<path d="M0,0 L0,3196 L4800,3196 L4800,0 Z" clip-rule="evenodd" />
		</clipPath>
		<clipPath id="clip009">
			<path d="M0,0 L4800,0 L4800,3196 L0,3196 Z" clip-rule="evenodd" />
		</clipPath>
		<clipPath id="clip010">
			<path d="M0,0 L4800,0 L4800,3196 L0,3196 Z" clip-rule="evenodd" />
		</clipPath>
		<clipPath id="clip011">
			<path d="M0,0 L4800,0 L4800,3196 L0,3196 Z" clip-rule="evenodd" />
		</clipPath>
		<clipPath id="clip012">
			<path d="M0,0 L4800,0 L4800,3196 L0,3196 Z" clip-rule="evenodd" />
		</clipPath>
		<clipPath id="clip013">
			<path d="M0,0 L4800,0 L4800,3196 L0,3196 Z" clip-rule="evenodd" />
		</clipPath>
		<clipPath id="clip014">
			<path d="M0,0 L4800,0 L4800,3196 L0,3196 Z" clip-rule="evenodd" />
		</clipPath>
		<clipPath id="clip015">
			<path d="M0,0 L4800,0 L4800,3196 L0,3196 Z" clip-rule="evenodd" />
		</clipPath>
		<clipPath id="clip016">
			<path d="M0,0 L4800,0 L4800,3196 L0,3196 Z" clip-rule="evenodd" />
		</clipPath>
		<clipPath id="clip017">
			<path d="M0,0 L4800,0 L4800,3196 L0,3196 Z" clip-rule="evenodd" />
		</clipPath>
		<clipPath id="clip018">
			<path d="M0,0 L4800,0 L4800,3196 L0,3196 Z" clip-rule="evenodd" />
		</clipPath>
		<clipPath id="clip019">
			<path d="M0,0 L4800,0 L4800,3196 L0,3196 Z" clip-rule="evenodd" />
		</clipPath>
		<clipPath id="clip020">
			<path d="M0,0 L4800,0 L4800,3196 L0,3196 Z" clip-rule="evenodd" />
		</clipPath>
		<clipPath id="clip021">
			<path d="M0,0 L4800,0 L4800,3196 L0,3196 Z" clip-rule="evenodd" />
		</clipPath>
		<clipPath id="clip022">
			<path d="M0,0 L4800,0 L4800,3196 L0,3196 Z" clip-rule="evenodd" />
		</clipPath>
		<clipPath id="clip023">
			<path d="M0,0 L4800,0 L4800,3196 L0,3196 Z" clip-rule="evenodd" />
		</clipPath>
		<clipPath id="clip024">
			<path d="M0,0 L4800,0 L4800,3196 L0,3196 Z" clip-rule="evenodd" />
		</clipPath>
		<clipPath id="clip025">
			<path d="M0,0 L4800,0 L4800,3196 L0,3196 Z" clip-rule="evenodd" />
		</clipPath>
		<clipPath id="clip026">
			<path d="M0,0 L4800,0 L4800,3196 L0,3196 Z" clip-rule="evenodd" />
		</clipPath>
		<clipPath id="clip027">
			<path d="M0,0 L4800,0 L4800,3196 L0,3196 Z" clip-rule="evenodd" />
		</clipPath>
		<clipPath id="clip028">
			<path d="M0,0 L4800,0 L4800,3196 L0,3196 Z" clip-rule="evenodd" />
		</clipPath>
		<clipPath id="clip029">
			<path d="M0,0 L4800,0 L4800,3196 L0,3196 Z" clip-rule="evenodd" />
		</clipPath>
		<clipPath id="clip030">
			<path d="M0,0 L4800,0 L4800,3196 L0,3196 Z" clip-rule="evenodd" />
		</clipPath>
		<clipPath id="clip031">
			<path d="M0,0 L4800,0 L4800,3196 L0,3196 Z" clip-rule="evenodd" />
		</clipPath>
		<clipPath id="clip032">
			<path d="M0,0 L4800,0 L4800,3196 L0,3196 Z" clip-rule="evenodd" />
		</clipPath>
		<clipPath id="clip033">
			<path d="M0,0 L4800,0 L4800,3196 L0,3196 Z" clip-rule="evenodd" />
		</clipPath>
		<clipPath id="clip034">
			<path d="M0,0 L4800,0 L4800,3196 L0,3196 Z" clip-rule="evenodd" />
		</clipPath>
		<clipPath id="clip035">
			<path d="M0,0 L4800,0 L4800,3196 L0,3196 Z" clip-rule="evenodd" />
		</clipPath>
		<clipPath id="clip036">
			<path d="M0,0 L4800,0 L4800,3196 L0,3196 Z" clip-rule="evenodd" />
		</clipPath>
		<clipPath id="clip037">
			<path d="M0,0 L4800,0 L4800,3196 L0,3196 Z" clip-rule="evenodd" />
		</clipPath>
		<clipPath id="clip038">
			<path d="M0,0 L0,3196 L4800,3196 L4800,0 Z" clip-rule="evenodd" />
		</clipPath>
		<clipPath id="clip039">
			<path d="M0,0 L4800,0 L4800,3196 L0,3196 Z" clip-rule="evenodd" />
		</clipPath>
		<clipPath id="clip040">
			<path d="M0,0 L0,3196 L4800,3196 L4800,0 Z" clip-rule="evenodd" />
		</clipPath>
		<clipPath id="clip041">
			<path d="M0,0 L0,3196 L4800,3196 L4800,0 Z" clip-rule="evenodd" />
		</clipPath>
		<clipPath id="clip042">
			<path d="M0,0 L4800,0 L4800,3196 L0,3196 Z" clip-rule="evenodd" />
		</clipPath>
	</defs>
	<g>
		<rect x="0" y="0" width="1500" height="999" style="fill: #ffffff; stroke: #000000; stroke-width: 0.0" />
		<g transform="translate(96,96)">
			<g>
				<g />
			</g>
		</g>
		<g>
			<g clip-path="url(#clip001)">
				<g>
					<g transform="matrix(1.125,0,0,0.74925,0,0)" clip-path="url(#clip002)">
						<g transform="matrix(0.27770063,0,0,0.41684034,0.37027994,0.55578613)">
							<g clip-path="url(#clip003)">
								<g transform="matrix(6.56168E-4,0,0,6.56168E-4,0,0)">
									<path d="M0,0 L7315200,0 L7315200,4872736 L0,4872736 Z" fill="#ffffff" fill-rule="evenodd" />
								</g>
							</g>
							<g clip-path="url(#clip004)">
								<g transform="matrix(6.56168E-4,0,0,6.56168E-4,461.33334,237.33333)">
									<path d="M373888,1958848 L1123696,1958848 L1123696,1958848 L1123696,3645408 L1123696,3645408 L373888,3645408 ZM1871472,325120 L2621280,325120 L2621280,325120 L2621280,3645408 L2621280,3645408 L1871472,3645408 ZM3369056,668528 L4118864,668528 L4118864,668528 L4118864,3645408 L4118864,3645408 L3369056,3645408 ZM4866640,636016 L5616448,636016 L5616448,636016 L5616448,3645408 L5616448,3645408 L4866640,3645408 Z" fill="#73c2fc" fill-rule="nonzero" />
								</g>
							</g>
							<g clip-path="url(#clip005)">
								<g transform="matrix(6.56168E-4,0,0,-6.56168E-4,461.33334,2629.3333)">
									<path d="M0,0 L1.3333333,3645408 " stroke-width="12700" stroke-linejoin="round" stroke-miterlimit="13.333333" stroke="#d9d9d9" fill="none" fill-rule="evenodd" />
								</g>
							</g>
							<g clip-path="url(#clip006)">
								<g transform="matrix(6.56168E-4,0,0,6.56168E-4,461.33334,2629.3333)">
									<path d="M0,0 L5990336,1.3333333 " stroke-width="12700" stroke-linejoin="round" stroke-miterlimit="13.333333" stroke="#d9d9d9" fill="none" fill-rule="evenodd" />
								</g>
							</g>
							<g clip-path="url(#clip007)">
								<g transform="matrix(6.56168E-4,0,0,6.56168E-4,952.6667,388.66666)">
									<path d="M0,941159.25 C499194.84,727241.3 998389.7,0 1497584.5,299405.56 L1497584.5,299405.56 C1996778,598809.8 2495972.8,2374345.2 2995167.8,2737588.8 L2995167.8,2737588.8 C3494361,3100832 3993557.2,2565106.8 4492752,2478865.5 " stroke-width="38100" stroke-linecap="round" stroke-linejoin="round" stroke-miterlimit="13.333333" stroke="#80ce84" fill="none" fill-rule="nonzero" />
								</g>
							</g>
							<g clip-path="url(#clip008)">
								<g transform="matrix(6.56168E-4,0,0,6.56168E-4,841.3692,895.8862)">
									<path d="M339344,169672 C339344,263379.25 263379.25,339344 169672,339344 L169672,339344 C75964.74,339344 0,263379.25 0,169672 L0,169672 C0,75964.74 75964.74,0 169672,0 L169672,0 C263379.25,0 339344,75964.74 339344,169672 Z" fill="#80ce84" fill-rule="nonzero" />
								</g>
								<g transform="matrix(6.56168E-4,0,0,6.56168E-4,1824.0358,474.55295)">
									<path d="M339344,169672 C339344,263379.25 263379.25,339344 169672,339344 L169672,339344 C75964.74,339344 0,263379.25 0,169672 L0,169672 C0,75964.74 75964.74,0 169672,0 L169672,0 C263379.25,0 339344,75964.74 339344,169672 Z" fill="#80ce84" fill-rule="nonzero" />
								</g>
								<g transform="matrix(6.56168E-4,0,0,6.56168E-4,2808.036,2074.553)">
									<path d="M339344,169672 C339344,263379.25 263379.25,339344 169672,339344 L169672,339344 C75964.74,339344 0,263379.25 0,169672 L0,169672 C0,75964.74 75964.74,0 169672,0 L169672,0 C263379.25,0 339344,75964.74 339344,169672 Z" fill="#80ce84" fill-rule="nonzero" />
								</g>
								<g transform="matrix(6.56168E-4,0,0,6.56168E-4,3790.7024,1905.2196)">
									<path d="M339344,169672 C339344,263379.25 263379.25,339344 169672,339344 L169672,339344 C75964.74,339344 0,263379.25 0,169672 L0,169672 C0,75964.74 75964.74,0 169672,0 L169672,0 C263379.25,0 339344,75964.74 339344,169672 Z" fill="#80ce84" fill-rule="nonzero" />
								</g>
							</g>
							<g>
								<g clip-path="url(#clip009)">
									<g>
										<g transform="translate(876.3709,2116.1326)">
											<text>
												<tspan x="0" y="0" font-family="Arial Narrow" font-weight="normal" font-style="normal" font-size="110.666664" fill="#000000">$</tspan>
											</text>
											<text transform="translate(50.666668,0)">
												<tspan x="0" y="0" font-family="Arial Narrow" font-weight="normal" font-style="normal" font-size="110.666664" fill="#000000">1</tspan>
											</text>
											<text transform="translate(101.333336,0)">
												<tspan x="0" y="0" font-family="Arial Narrow" font-weight="normal" font-style="normal" font-size="110.666664" fill="#000000">4</tspan>
											</text>
										</g>
									</g>
								</g>
							</g>
							<g>
								<g clip-path="url(#clip010)">
									<g>
										<g transform="translate(1859.2372,1580.6058)">
											<text>
												<tspan x="0" y="0" font-family="Arial Narrow" font-weight="normal" font-style="normal" font-size="110.666664" fill="#000000">$</tspan>
											</text>
											<text transform="translate(50.666668,0)">
												<tspan x="0" y="0" font-family="Arial Narrow" font-weight="normal" font-style="normal" font-size="110.666664" fill="#000000">2</tspan>
											</text>
											<text transform="translate(101.333336,0)">
												<tspan x="0" y="0" font-family="Arial Narrow" font-weight="normal" font-style="normal" font-size="110.666664" fill="#000000">7</tspan>
											</text>
										</g>
									</g>
								</g>
							</g>
							<g>
								<g clip-path="url(#clip011)">
									<g>
										<g transform="translate(2842.1023,1692.7423)">
											<text>
												<tspan x="0" y="0" font-family="Arial Narrow" font-weight="normal" font-style="normal" font-size="110.666664" fill="#000000">$</tspan>
											</text>
											<text transform="translate(50.666668,0)">
												<tspan x="0" y="0" font-family="Arial Narrow" font-weight="normal" font-style="normal" font-size="110.666664" fill="#000000">2</tspan>
											</text>
											<text transform="translate(101.333336,0)">
												<tspan x="0" y="0" font-family="Arial Narrow" font-weight="normal" font-style="normal" font-size="110.666664" fill="#000000">5</tspan>
											</text>
										</g>
									</g>
								</g>
							</g>
							<g>
								<g clip-path="url(#clip012)">
									<g>
										<g transform="translate(3824.9685,1682.3774)">
											<text>
												<tspan x="0" y="0" font-family="Arial Narrow" font-weight="normal" font-style="normal" font-size="110.666664" fill="#000000">$</tspan>
											</text>
											<text transform="translate(50.666668,0)">
												<tspan x="0" y="0" font-family="Arial Narrow" font-weight="normal" font-style="normal" font-size="110.666664" fill="#000000">2</tspan>
											</text>
											<text transform="translate(101.333336,0)">
												<tspan x="0" y="0" font-family="Arial Narrow" font-weight="normal" font-style="normal" font-size="110.666664" fill="#000000">5</tspan>
											</text>
										</g>
									</g>
								</g>
							</g>
							<g>
								<g clip-path="url(#clip013)">
									<g>
										<g transform="translate(824.37054,1047.0206)">
											<text>
												<tspan x="0" y="0" font-family="Arial Narrow" font-weight="normal" font-style="normal" font-size="110.666664" fill="#000000">6</tspan>
											</text>
											<text transform="translate(50.666668,0)">
												<tspan x="0" y="0" font-family="Arial Narrow" font-weight="normal" font-style="normal" font-size="110.666664" fill="#000000">8</tspan>
											</text>
											<text transform="translate(101.333336,0)">
												<tspan x="0" y="0" font-family="Arial Narrow" font-weight="normal" font-style="normal" font-size="110.666664" fill="#000000">.</tspan>
											</text>
											<text transform="translate(126.666664,0)">
												<tspan x="0" y="0" font-family="Arial Narrow" font-weight="normal" font-style="normal" font-size="110.666664" fill="#000000">6</tspan>
											</text>
											<text transform="translate(177.33333,0)">
												<tspan x="0" y="0" font-family="Arial Narrow" font-weight="normal" font-style="normal" font-size="110.666664" fill="#000000">%</tspan>
											</text>
										</g>
									</g>
								</g>
							</g>
							<g>
								<g clip-path="url(#clip014)">
									<g>
										<g transform="translate(1807.2367,625.93396)">
											<text>
												<tspan x="0" y="0" font-family="Arial Narrow" font-weight="normal" font-style="normal" font-size="110.666664" fill="#000000">9</tspan>
											</text>
											<text transform="translate(50.666668,0)">
												<tspan x="0" y="0" font-family="Arial Narrow" font-weight="normal" font-style="normal" font-size="110.666664" fill="#000000">6</tspan>
											</text>
											<text transform="translate(101.333336,0)">
												<tspan x="0" y="0" font-family="Arial Narrow" font-weight="normal" font-style="normal" font-size="110.666664" fill="#000000">.</tspan>
											</text>
											<text transform="translate(126.666664,0)">
												<tspan x="0" y="0" font-family="Arial Narrow" font-weight="normal" font-style="normal" font-size="110.666664" fill="#000000">7</tspan>
											</text>
											<text transform="translate(177.33333,0)">
												<tspan x="0" y="0" font-family="Arial Narrow" font-weight="normal" font-style="normal" font-size="110.666664" fill="#000000">%</tspan>
											</text>
										</g>
									</g>
								</g>
							</g>
							<g>
								<g clip-path="url(#clip015)">
									<g>
										<g transform="translate(2759.4353,2225.7476)">
											<text>
												<tspan x="0" y="0" font-family="Arial Narrow" font-weight="normal" font-style="normal" font-size="110.666664" fill="#000000">(</tspan>
											</text>
											<text transform="translate(30.666666,0)">
												<tspan x="0" y="0" font-family="Arial Narrow" font-weight="normal" font-style="normal" font-size="110.666664" fill="#000000">1</tspan>
											</text>
											<text transform="translate(81.333336,0)">
												<tspan x="0" y="0" font-family="Arial Narrow" font-weight="normal" font-style="normal" font-size="110.666664" fill="#000000">0</tspan>
											</text>
											<text transform="translate(132,0)">
												<tspan x="0" y="0" font-family="Arial Narrow" font-weight="normal" font-style="normal" font-size="110.666664" fill="#000000">.</tspan>
											</text>
											<text transform="translate(157.33333,0)">
												<tspan x="0" y="0" font-family="Arial Narrow" font-weight="normal" font-style="normal" font-size="110.666664" fill="#000000">3</tspan>
											</text>
											<text transform="translate(208,0)">
												<tspan x="0" y="0" font-family="Arial Narrow" font-weight="normal" font-style="normal" font-size="110.666664" fill="#000000">%</tspan>
											</text>
											<text transform="translate(285.33334,0)">
												<tspan x="0" y="0" font-family="Arial Narrow" font-weight="normal" font-style="normal" font-size="110.666664" fill="#000000">)</tspan>
											</text>
										</g>
									</g>
								</g>
							</g>
							<g>
								<g clip-path="url(#clip016)">
									<g>
										<g transform="translate(3798.3015,2055.9866)">
											<text>
												<tspan x="0" y="0" font-family="Arial Narrow" font-weight="normal" font-style="normal" font-size="110.666664" fill="#000000">1</tspan>
											</text>
											<text transform="translate(50.666668,0)">
												<tspan x="0" y="0" font-family="Arial Narrow" font-weight="normal" font-style="normal" font-size="110.666664" fill="#000000">.</tspan>
											</text>
											<text transform="translate(76,0)">
												<tspan x="0" y="0" font-family="Arial Narrow" font-weight="normal" font-style="normal" font-size="110.666664" fill="#000000">1</tspan>
											</text>
											<text transform="translate(126.666664,0)">
												<tspan x="0" y="0" font-family="Arial Narrow" font-weight="normal" font-style="normal" font-size="110.666664" fill="#000000">%</tspan>
											</text>
										</g>
									</g>
								</g>
							</g>
							<g>
								<g clip-path="url(#clip017)">
									<g>
										<g transform="translate(4489.4663,2665.616)">
											<text>
												<tspan x="0" y="0" font-family="Arial Narrow" font-weight="normal" font-style="normal" font-size="110.666664" fill="#000000">-</tspan>
											</text>
											<text transform="translate(30.666666,0)">
												<tspan x="0" y="0" font-family="Arial Narrow" font-weight="normal" font-style="normal" font-size="110.666664" fill="#000000">4</tspan>
											</text>
											<text transform="translate(81.333336,0)">
												<tspan x="0" y="0" font-family="Arial Narrow" font-weight="normal" font-style="normal" font-size="110.666664" fill="#000000">0</tspan>
											</text>
											<text transform="translate(132,0)">
												<tspan x="0" y="0" font-family="Arial Narrow" font-weight="normal" font-style="normal" font-size="110.666664" fill="#000000">%</tspan>
											</text>
										</g>
									</g>
								</g>
							</g>
							<g>
								<g clip-path="url(#clip018)">
									<g>
										<g transform="translate(4489.4663,2366.6394)">
											<text>
												<tspan x="0" y="0" font-family="Arial Narrow" font-weight="normal" font-style="normal" font-size="110.666664" fill="#000000">-</tspan>
											</text>
											<text transform="translate(30.666666,0)">
												<tspan x="0" y="0" font-family="Arial Narrow" font-weight="normal" font-style="normal" font-size="110.666664" fill="#000000">2</tspan>
											</text>
											<text transform="translate(81.333336,0)">
												<tspan x="0" y="0" font-family="Arial Narrow" font-weight="normal" font-style="normal" font-size="110.666664" fill="#000000">0</tspan>
											</text>
											<text transform="translate(132,0)">
												<tspan x="0" y="0" font-family="Arial Narrow" font-weight="normal" font-style="normal" font-size="110.666664" fill="#000000">%</tspan>
											</text>
										</g>
									</g>
								</g>
							</g>
							<g>
								<g clip-path="url(#clip019)">
									<g>
										<g transform="translate(4489.4663,2067.663)">
											<text>
												<tspan x="0" y="0" font-family="Arial Narrow" font-weight="normal" font-style="normal" font-size="110.666664" fill="#000000">0</tspan>
											</text>
											<text transform="translate(50.666668,0)">
												<tspan x="0" y="0" font-family="Arial Narrow" font-weight="normal" font-style="normal" font-size="110.666664" fill="#000000">%</tspan>
											</text>
										</g>
									</g>
								</g>
							</g>
							<g>
								<g clip-path="url(#clip020)">
									<g>
										<g transform="translate(4489.4663,1768.6869)">
											<text>
												<tspan x="0" y="0" font-family="Arial Narrow" font-weight="normal" font-style="normal" font-size="110.666664" fill="#000000">2</tspan>
											</text>
											<text transform="translate(50.666668,0)">
												<tspan x="0" y="0" font-family="Arial Narrow" font-weight="normal" font-style="normal" font-size="110.666664" fill="#000000">0</tspan>
											</text>
											<text transform="translate(101.333336,0)">
												<tspan x="0" y="0" font-family="Arial Narrow" font-weight="normal" font-style="normal" font-size="110.666664" fill="#000000">%</tspan>
											</text>
										</g>
									</g>
								</g>
							</g>
							<g>
								<g clip-path="url(#clip021)">
									<g>
										<g transform="translate(4489.4663,1469.7104)">
											<text>
												<tspan x="0" y="0" font-family="Arial Narrow" font-weight="normal" font-style="normal" font-size="110.666664" fill="#000000">4</tspan>
											</text>
											<text transform="translate(50.666668,0)">
												<tspan x="0" y="0" font-family="Arial Narrow" font-weight="normal" font-style="normal" font-size="110.666664" fill="#000000">0</tspan>
											</text>
											<text transform="translate(101.333336,0)">
												<tspan x="0" y="0" font-family="Arial Narrow" font-weight="normal" font-style="normal" font-size="110.666664" fill="#000000">%</tspan>
											</text>
										</g>
									</g>
								</g>
							</g>
							<g>
								<g clip-path="url(#clip022)">
									<g>
										<g transform="translate(4489.4663,1170.734)">
											<text>
												<tspan x="0" y="0" font-family="Arial Narrow" font-weight="normal" font-style="normal" font-size="110.666664" fill="#000000">6</tspan>
											</text>
											<text transform="translate(50.666668,0)">
												<tspan x="0" y="0" font-family="Arial Narrow" font-weight="normal" font-style="normal" font-size="110.666664" fill="#000000">0</tspan>
											</text>
											<text transform="translate(101.333336,0)">
												<tspan x="0" y="0" font-family="Arial Narrow" font-weight="normal" font-style="normal" font-size="110.666664" fill="#000000">%</tspan>
											</text>
										</g>
									</g>
								</g>
							</g>
							<g>
								<g clip-path="url(#clip023)">
									<g>
										<g transform="translate(4489.4663,871.7576)">
											<text>
												<tspan x="0" y="0" font-family="Arial Narrow" font-weight="normal" font-style="normal" font-size="110.666664" fill="#000000">8</tspan>
											</text>
											<text transform="translate(50.666668,0)">
												<tspan x="0" y="0" font-family="Arial Narrow" font-weight="normal" font-style="normal" font-size="110.666664" fill="#000000">0</tspan>
											</text>
											<text transform="translate(101.333336,0)">
												<tspan x="0" y="0" font-family="Arial Narrow" font-weight="normal" font-style="normal" font-size="110.666664" fill="#000000">%</tspan>
											</text>
										</g>
									</g>
								</g>
							</g>
							<g>
								<g clip-path="url(#clip024)">
									<g>
										<g transform="translate(4489.4663,572.7813)">
											<text>
												<tspan x="0" y="0" font-family="Arial Narrow" font-weight="normal" font-style="normal" font-size="110.666664" fill="#000000">1</tspan>
											</text>
											<text transform="translate(50.666668,0)">
												<tspan x="0" y="0" font-family="Arial Narrow" font-weight="normal" font-style="normal" font-size="110.666664" fill="#000000">0</tspan>
											</text>
											<text transform="translate(101.333336,0)">
												<tspan x="0" y="0" font-family="Arial Narrow" font-weight="normal" font-style="normal" font-size="110.666664" fill="#000000">0</tspan>
											</text>
											<text transform="translate(152,0)">
												<tspan x="0" y="0" font-family="Arial Narrow" font-weight="normal" font-style="normal" font-size="110.666664" fill="#000000">%</tspan>
											</text>
										</g>
									</g>
								</g>
							</g>
							<g>
								<g clip-path="url(#clip025)">
									<g>
										<g transform="translate(4489.4663,273.8049)">
											<text>
												<tspan x="0" y="0" font-family="Arial Narrow" font-weight="normal" font-style="normal" font-size="110.666664" fill="#000000">1</tspan>
											</text>
											<text transform="translate(50.666668,0)">
												<tspan x="0" y="0" font-family="Arial Narrow" font-weight="normal" font-style="normal" font-size="110.666664" fill="#000000">2</tspan>
											</text>
											<text transform="translate(101.333336,0)">
												<tspan x="0" y="0" font-family="Arial Narrow" font-weight="normal" font-style="normal" font-size="110.666664" fill="#000000">0</tspan>
											</text>
											<text transform="translate(152,0)">
												<tspan x="0" y="0" font-family="Arial Narrow" font-weight="normal" font-style="normal" font-size="110.666664" fill="#000000">%</tspan>
											</text>
										</g>
									</g>
								</g>
							</g>
							<g>
								<g clip-path="url(#clip026)">
									<g>
										<g transform="translate(313.20648,2665.616)">
											<text>
												<tspan x="0" y="0" font-family="Arial Narrow" font-weight="normal" font-style="normal" font-size="110.666664" fill="#000000">0</tspan>
											</text>
										</g>
									</g>
								</g>
							</g>
							<g>
								<g clip-path="url(#clip027)">
									<g>
										<g transform="translate(313.20648,2266.9807)">
											<text>
												<tspan x="0" y="0" font-family="Arial Narrow" font-weight="normal" font-style="normal" font-size="110.666664" fill="#000000">5</tspan>
											</text>
										</g>
									</g>
								</g>
							</g>
							<g>
								<g clip-path="url(#clip028)">
									<g>
										<g transform="translate(262.53983,1868.3456)">
											<text>
												<tspan x="0" y="0" font-family="Arial Narrow" font-weight="normal" font-style="normal" font-size="110.666664" fill="#000000">1</tspan>
											</text>
											<text transform="translate(50.666668,0)">
												<tspan x="0" y="0" font-family="Arial Narrow" font-weight="normal" font-style="normal" font-size="110.666664" fill="#000000">0</tspan>
											</text>
										</g>
									</g>
								</g>
							</g>
							<g>
								<g clip-path="url(#clip029)">
									<g>
										<g transform="translate(262.53983,1469.7104)">
											<text>
												<tspan x="0" y="0" font-family="Arial Narrow" font-weight="normal" font-style="normal" font-size="110.666664" fill="#000000">1</tspan>
											</text>
											<text transform="translate(50.666668,0)">
												<tspan x="0" y="0" font-family="Arial Narrow" font-weight="normal" font-style="normal" font-size="110.666664" fill="#000000">5</tspan>
											</text>
										</g>
									</g>
								</g>
							</g>
							<g>
								<g clip-path="url(#clip030)">
									<g>
										<g transform="translate(262.53983,1071.0753)">
											<text>
												<tspan x="0" y="0" font-family="Arial Narrow" font-weight="normal" font-style="normal" font-size="110.666664" fill="#000000">2</tspan>
											</text>
											<text transform="translate(50.666668,0)">
												<tspan x="0" y="0" font-family="Arial Narrow" font-weight="normal" font-style="normal" font-size="110.666664" fill="#000000">0</tspan>
											</text>
										</g>
									</g>
								</g>
							</g>
							<g>
								<g clip-path="url(#clip031)">
									<g>
										<g transform="translate(262.53983,672.44006)">
											<text>
												<tspan x="0" y="0" font-family="Arial Narrow" font-weight="normal" font-style="normal" font-size="110.666664" fill="#000000">2</tspan>
											</text>
											<text transform="translate(50.666668,0)">
												<tspan x="0" y="0" font-family="Arial Narrow" font-weight="normal" font-style="normal" font-size="110.666664" fill="#000000">5</tspan>
											</text>
										</g>
									</g>
								</g>
							</g>
							<g>
								<g clip-path="url(#clip032)">
									<g>
										<g transform="translate(262.53983,273.8049)">
											<text>
												<tspan x="0" y="0" font-family="Arial Narrow" font-weight="normal" font-style="normal" font-size="110.666664" fill="#000000">3</tspan>
											</text>
											<text transform="translate(50.666668,0)">
												<tspan x="0" y="0" font-family="Arial Narrow" font-weight="normal" font-style="normal" font-size="110.666664" fill="#000000">0</tspan>
											</text>
										</g>
									</g>
								</g>
							</g>
							<g>
								<g clip-path="url(#clip033)">
									<g>
										<g transform="translate(851.0376,2800.509)">
											<text>
												<tspan x="0" y="0" font-family="Arial Narrow" font-weight="normal" font-style="normal" font-size="110.666664" fill="#000000">2</tspan>
											</text>
											<text transform="translate(50.666668,0)">
												<tspan x="0" y="0" font-family="Arial Narrow" font-weight="normal" font-style="normal" font-size="110.666664" fill="#000000">0</tspan>
											</text>
											<text transform="translate(101.333336,0)">
												<tspan x="0" y="0" font-family="Arial Narrow" font-weight="normal" font-style="normal" font-size="110.666664" fill="#000000">2</tspan>
											</text>
											<text transform="translate(152,0)">
												<tspan x="0" y="0" font-family="Arial Narrow" font-weight="normal" font-style="normal" font-size="110.666664" fill="#000000">5</tspan>
											</text>
										</g>
									</g>
								</g>
							</g>
							<g>
								<g clip-path="url(#clip034)">
									<g>
										<g transform="translate(1833.9038,2800.509)">
											<text>
												<tspan x="0" y="0" font-family="Arial Narrow" font-weight="normal" font-style="normal" font-size="110.666664" fill="#000000">2</tspan>
											</text>
											<text transform="translate(50.666668,0)">
												<tspan x="0" y="0" font-family="Arial Narrow" font-weight="normal" font-style="normal" font-size="110.666664" fill="#000000">0</tspan>
											</text>
											<text transform="translate(101.333336,0)">
												<tspan x="0" y="0" font-family="Arial Narrow" font-weight="normal" font-style="normal" font-size="110.666664" fill="#000000">2</tspan>
											</text>
											<text transform="translate(152,0)">
												<tspan x="0" y="0" font-family="Arial Narrow" font-weight="normal" font-style="normal" font-size="110.666664" fill="#000000">6</tspan>
											</text>
										</g>
									</g>
								</g>
							</g>
							<g>
								<g clip-path="url(#clip035)">
									<g>
										<g transform="translate(2816.7688,2800.509)">
											<text>
												<tspan x="0" y="0" font-family="Arial Narrow" font-weight="normal" font-style="normal" font-size="110.666664" fill="#000000">2</tspan>
											</text>
											<text transform="translate(50.666668,0)">
												<tspan x="0" y="0" font-family="Arial Narrow" font-weight="normal" font-style="normal" font-size="110.666664" fill="#000000">0</tspan>
											</text>
											<text transform="translate(101.333336,0)">
												<tspan x="0" y="0" font-family="Arial Narrow" font-weight="normal" font-style="normal" font-size="110.666664" fill="#000000">2</tspan>
											</text>
											<text transform="translate(152,0)">
												<tspan x="0" y="0" font-family="Arial Narrow" font-weight="normal" font-style="normal" font-size="110.666664" fill="#000000">7</tspan>
											</text>
										</g>
									</g>
								</g>
							</g>
							<g>
								<g clip-path="url(#clip036)">
									<g>
										<g transform="translate(3799.635,2800.509)">
											<text>
												<tspan x="0" y="0" font-family="Arial Narrow" font-weight="normal" font-style="normal" font-size="110.666664" fill="#000000">2</tspan>
											</text>
											<text transform="translate(50.666668,0)">
												<tspan x="0" y="0" font-family="Arial Narrow" font-weight="normal" font-style="normal" font-size="110.666664" fill="#000000">0</tspan>
											</text>
											<text transform="translate(101.333336,0)">
												<tspan x="0" y="0" font-family="Arial Narrow" font-weight="normal" font-style="normal" font-size="110.666664" fill="#000000">2</tspan>
											</text>
											<text transform="translate(152,0)">
												<tspan x="0" y="0" font-family="Arial Narrow" font-weight="normal" font-style="normal" font-size="110.666664" fill="#000000">8</tspan>
											</text>
										</g>
									</g>
								</g>
							</g>
							<g>
								<g clip-path="url(#clip037)">
									<g>
										<g transform="matrix(0,-1,1,0,194.59534,1098.2362)">
											<text>
												<tspan x="0" y="0" font-family="Arial Narrow" font-weight="normal" font-style="normal" font-size="110.666664" fill="#000000">C</tspan>
											</text>
											<text transform="translate(65.333336,0)">
												<tspan x="0" y="0" font-family="Arial Narrow" font-weight="normal" font-style="normal" font-size="110.666664" fill="#000000">a</tspan>
											</text>
											<text transform="translate(116,0)">
												<tspan x="0" y="0" font-family="Arial Narrow" font-weight="normal" font-style="normal" font-size="110.666664" fill="#000000">p</tspan>
											</text>
											<text transform="translate(166.66667,0)">
												<tspan x="0" y="0" font-family="Arial Narrow" font-weight="normal" font-style="normal" font-size="110.666664" fill="#000000">E</tspan>
											</text>
											<text transform="translate(226.66667,0)">
												<tspan x="0" y="0" font-family="Arial Narrow" font-weight="normal" font-style="normal" font-size="110.666664" fill="#000000">x</tspan>
											</text>
											<text transform="translate(272,0)">
												<tspan x="0" y="0" font-family="Arial Narrow" font-weight="normal" font-style="normal" font-size="110.666664" fill="#000000"> </tspan>
											</text>
											<text transform="translate(298.66666,0)">
												<tspan x="0" y="0" font-family="Arial Narrow" font-weight="normal" font-style="normal" font-size="110.666664" fill="#000000">i</tspan>
											</text>
											<text transform="translate(318.66666,0)">
												<tspan x="0" y="0" font-family="Arial Narrow" font-weight="normal" font-style="normal" font-size="110.666664" fill="#000000">n</tspan>
											</text>
											<text transform="translate(369.33334,0)">
												<tspan x="0" y="0" font-family="Arial Narrow" font-weight="normal" font-style="normal" font-size="110.666664" fill="#000000"> </tspan>
											</text>
											<text transform="translate(394.66666,0)">
												<tspan x="0" y="0" font-family="Arial Narrow" font-weight="normal" font-style="normal" font-size="110.666664" fill="#000000">B</tspan>
											</text>
											<text transform="translate(454.66666,0)">
												<tspan x="0" y="0" font-family="Arial Narrow" font-weight="normal" font-style="normal" font-size="110.666664" fill="#000000">i</tspan>
											</text>
											<text transform="translate(474.66666,0)">
												<tspan x="0" y="0" font-family="Arial Narrow" font-weight="normal" font-style="normal" font-size="110.666664" fill="#000000">l</tspan>
											</text>
											<text transform="translate(494.66666,0)">
												<tspan x="0" y="0" font-family="Arial Narrow" font-weight="normal" font-style="normal" font-size="110.666664" fill="#000000">l</tspan>
											</text>
											<text transform="translate(514.6667,0)">
												<tspan x="0" y="0" font-family="Arial Narrow" font-weight="normal" font-style="normal" font-size="110.666664" fill="#000000">i</tspan>
											</text>
											<text transform="translate(534.6667,0)">
												<tspan x="0" y="0" font-family="Arial Narrow" font-weight="normal" font-style="normal" font-size="110.666664" fill="#000000">o</tspan>
											</text>
											<text transform="translate(585.3333,0)">
												<tspan x="0" y="0" font-family="Arial Narrow" font-weight="normal" font-style="normal" font-size="110.666664" fill="#000000">n</tspan>
											</text>
											<text transform="translate(636,0)">
												<tspan x="0" y="0" font-family="Arial Narrow" font-weight="normal" font-style="normal" font-size="110.666664" fill="#000000">s</tspan>
											</text>
											<text transform="translate(681.3333,0)">
												<tspan x="0" y="0" font-family="Arial Narrow" font-weight="normal" font-style="normal" font-size="110.666664" fill="#000000"> </tspan>
											</text>
											<text transform="translate(709.3333,0)">
												<tspan x="0" y="0" font-family="Arial Narrow" font-weight="normal" font-style="normal" font-size="110.666664" fill="#000000">$</tspan>
											</text>
										</g>
									</g>
								</g>
							</g>
							<g clip-path="url(#clip038)">
								<g transform="matrix(6.56168E-4,0,0,6.56168E-4,1082.6666,3001.3333)">
									<path d="M0,0 L325120.03,0 L325120.03,87376 L0,87376 Z" fill="#73c2fc" fill-rule="evenodd" />
								</g>
							</g>
							<g>
								<g clip-path="url(#clip039)">
									<g>
										<g transform="translate(1318.5984,3066.197)">
											<text>
												<tspan x="0" y="0" font-family="Arial Narrow" font-weight="normal" font-style="normal" font-size="110.666664" fill="#000000">C</tspan>
											</text>
											<text transform="translate(65.333336,0)">
												<tspan x="0" y="0" font-family="Arial Narrow" font-weight="normal" font-style="normal" font-size="110.666664" fill="#000000">i</tspan>
											</text>
											<text transform="translate(86.666664,0)">
												<tspan x="0" y="0" font-family="Arial Narrow" font-weight="normal" font-style="normal" font-size="110.666664" fill="#000000">t</tspan>
											</text>
											<text transform="translate(112,0)">
												<tspan x="0" y="0" font-family="Arial Narrow" font-weight="normal" font-style="normal" font-size="110.666664" fill="#000000">i</tspan>
											</text>
											<text transform="translate(132,0)">
												<tspan x="0" y="0" font-family="Arial Narrow" font-weight="normal" font-style="normal" font-size="110.666664" fill="#000000">E</tspan>
											</text>
											<text transform="translate(192,0)">
												<tspan x="0" y="0" font-family="Arial Narrow" font-weight="normal" font-style="normal" font-size="110.666664" fill="#000000"> </tspan>
											</text>
											<text transform="translate(217.33333,0)">
												<tspan x="0" y="0" font-family="Arial Narrow" font-weight="normal" font-style="normal" font-size="110.666664" fill="#000000">C</tspan>
											</text>
											<text transform="translate(284,0)">
												<tspan x="0" y="0" font-family="Arial Narrow" font-weight="normal" font-style="normal" font-size="110.666664" fill="#000000">o</tspan>
											</text>
											<text transform="translate(334.66666,0)">
												<tspan x="0" y="0" font-family="Arial Narrow" font-weight="normal" font-style="normal" font-size="110.666664" fill="#000000">r</tspan>
											</text>
											<text transform="translate(364,0)">
												<tspan x="0" y="0" font-family="Arial Narrow" font-weight="normal" font-style="normal" font-size="110.666664" fill="#000000">e</tspan>
											</text>
											<text transform="translate(414.66666,0)">
												<tspan x="0" y="0" font-family="Arial Narrow" font-weight="normal" font-style="normal" font-size="110.666664" fill="#000000">w</tspan>
											</text>
											<text transform="translate(481.33334,0)">
												<tspan x="0" y="0" font-family="Arial Narrow" font-weight="normal" font-style="normal" font-size="110.666664" fill="#000000">e</tspan>
											</text>
											<text transform="translate(532,0)">
												<tspan x="0" y="0" font-family="Arial Narrow" font-weight="normal" font-style="normal" font-size="110.666664" fill="#000000">a</tspan>
											</text>
											<text transform="translate(582.6667,0)">
												<tspan x="0" y="0" font-family="Arial Narrow" font-weight="normal" font-style="normal" font-size="110.666664" fill="#000000">v</tspan>
											</text>
											<text transform="translate(628,0)">
												<tspan x="0" y="0" font-family="Arial Narrow" font-weight="normal" font-style="normal" font-size="110.666664" fill="#000000">e</tspan>
											</text>
											<text transform="translate(678.6667,0)">
												<tspan x="0" y="0" font-family="Arial Narrow" font-weight="normal" font-style="normal" font-size="110.666664" fill="#000000"> </tspan>
											</text>
											<text transform="translate(704,0)">
												<tspan x="0" y="0" font-family="Arial Narrow" font-weight="normal" font-style="normal" font-size="110.666664" fill="#000000">E</tspan>
											</text>
											<text transform="translate(764,0)">
												<tspan x="0" y="0" font-family="Arial Narrow" font-weight="normal" font-style="normal" font-size="110.666664" fill="#000000">x</tspan>
											</text>
											<text transform="translate(810.6667,0)">
												<tspan x="0" y="0" font-family="Arial Narrow" font-weight="normal" font-style="normal" font-size="110.666664" fill="#000000"> </tspan>
											</text>
											<text transform="translate(836,0)">
												<tspan x="0" y="0" font-family="Arial Narrow" font-weight="normal" font-style="normal" font-size="110.666664" fill="#000000">C</tspan>
											</text>
											<text transform="translate(901.3333,0)">
												<tspan x="0" y="0" font-family="Arial Narrow" font-weight="normal" font-style="normal" font-size="110.666664" fill="#000000">I</tspan>
											</text>
											<text transform="translate(926.6667,0)">
												<tspan x="0" y="0" font-family="Arial Narrow" font-weight="normal" font-style="normal" font-size="110.666664" fill="#000000">P</tspan>
											</text>
										</g>
									</g>
								</g>
							</g>
							<g clip-path="url(#clip040)">
								<g transform="matrix(6.56168E-4,0,0,6.56168E-4,2899.3333,3030)">
									<path d="M0,0 L325120.03,1.3333333 " stroke-width="38100" stroke-linecap="round" stroke-linejoin="round" stroke-miterlimit="13.333333" stroke="#80ce84" fill="none" fill-rule="evenodd" />
								</g>
							</g>
							<g clip-path="url(#clip041)">
								<g transform="matrix(6.56168E-4,0,0,6.56168E-4,2972,2996)">
									<path d="M101600,50800 C101600,78856.07 78856.07,101600 50800,101600 L50800,101600 C22743.936,101600 0,78856.07 0,50800 L0,50800 C0,22743.936 22743.936,0 50800,0 L50800,0 C78856.07,0 101600,22743.936 101600,50800 Z" fill="#80ce84" fill-rule="nonzero" />
								</g>
							</g>
							<g>
								<g clip-path="url(#clip042)">
									<g>
										<g transform="translate(3134.9678,3066.197)">
											<text>
												<tspan x="0" y="0" font-family="Arial Narrow" font-weight="normal" font-style="normal" font-size="110.666664" fill="#000000">%</tspan>
											</text>
											<text transform="translate(81.333336,0)">
												<tspan x="0" y="0" font-family="Arial Narrow" font-weight="normal" font-style="normal" font-size="110.666664" fill="#000000"> </tspan>
											</text>
											<text transform="translate(106.666664,0)">
												<tspan x="0" y="0" font-family="Arial Narrow" font-weight="normal" font-style="normal" font-size="110.666664" fill="#000000">g</tspan>
											</text>
											<text transform="translate(157.33333,0)">
												<tspan x="0" y="0" font-family="Arial Narrow" font-weight="normal" font-style="normal" font-size="110.666664" fill="#000000">r</tspan>
											</text>
											<text transform="translate(188,0)">
												<tspan x="0" y="0" font-family="Arial Narrow" font-weight="normal" font-style="normal" font-size="110.666664" fill="#000000">o</tspan>
											</text>
											<text transform="translate(238.66667,0)">
												<tspan x="0" y="0" font-family="Arial Narrow" font-weight="normal" font-style="normal" font-size="110.666664" fill="#000000">w</tspan>
											</text>
											<text transform="translate(304,0)">
												<tspan x="0" y="0" font-family="Arial Narrow" font-weight="normal" font-style="normal" font-size="110.666664" fill="#000000">t</tspan>
											</text>
											<text transform="translate(329.33334,0)">
												<tspan x="0" y="0" font-family="Arial Narrow" font-weight="normal" font-style="normal" font-size="110.666664" fill="#000000">h</tspan>
											</text>
											<text transform="translate(380,0)">
												<tspan x="0" y="0" font-family="Arial Narrow" font-weight="normal" font-style="normal" font-size="110.666664" fill="#000000"> </tspan>
											</text>
											<text transform="translate(405.33334,0)">
												<tspan x="0" y="0" font-family="Arial Narrow" font-weight="normal" font-style="normal" font-size="110.666664" fill="#000000">y</tspan>
											</text>
											<text transform="translate(450.66666,0)">
												<tspan x="0" y="0" font-family="Arial Narrow" font-weight="normal" font-style="normal" font-size="110.666664" fill="#000000">-</tspan>
											</text>
											<text transform="translate(481.33334,0)">
												<tspan x="0" y="0" font-family="Arial Narrow" font-weight="normal" font-style="normal" font-size="110.666664" fill="#000000">o</tspan>
											</text>
											<text transform="translate(532,0)">
												<tspan x="0" y="0" font-family="Arial Narrow" font-weight="normal" font-style="normal" font-size="110.666664" fill="#000000">-</tspan>
											</text>
											<text transform="translate(562.6667,0)">
												<tspan x="0" y="0" font-family="Arial Narrow" font-weight="normal" font-style="normal" font-size="110.666664" fill="#000000">y</tspan>
											</text>
										</g>
									</g>
								</g>
							</g>
						</g>
					</g>
				</g>
			</g>
		</g>
	</g>
</svg>