<?xml version="1.0" encoding="UTF-8" standalone="no"?>
<svg xmlns:dc="http://purl.org/dc/elements/1.1/" xmlns:cc="http://creativecommons.org/ns#" xmlns:rdf="http://www.w3.org/1999/02/22-rdf-syntax-ns#" xmlns:svg="http://www.w3.org/2000/svg" xmlns="http://www.w3.org/2000/svg" viewBox="66.505 394.15 650.49875 372.8625" height="372.8625" width="650.49875" xml:space="preserve" version="1.1" id="svg2">
  <metadata id="metadata8">
    <rdf:RDF>
      <cc:Work rdf:about="">
        <dc:format>image/svg+xml</dc:format>
        <dc:type rdf:resource="http://purl.org/dc/dcmitype/StillImage"/>
      </cc:Work>
    </rdf:RDF>
  </metadata>
  <defs id="defs6">
    <clipPath id="clipPath16" clipPathUnits="userSpaceOnUse">
      <path style="clip-rule:evenodd" id="path18" d="m 53.053,272.59 520.55,0 0,298.36 -520.55,0 0,-298.36 z"/>
    </clipPath>
    <clipPath id="clipPath38" clipPathUnits="userSpaceOnUse">
      <path style="clip-rule:evenodd" id="path40" d="m 53.179,272.72 520.29,0 0,298.23 -520.29,0 0,-298.23 z"/>
    </clipPath>
    <clipPath id="clipPath50" clipPathUnits="userSpaceOnUse">
      <path style="clip-rule:evenodd" id="path52" d="m 53.179,272.72 520.29,0 0,298.23 -520.29,0 0,-298.23 z"/>
    </clipPath>
    <clipPath id="clipPath62" clipPathUnits="userSpaceOnUse">
      <path style="clip-rule:evenodd" id="path64" d="m 53.179,272.72 520.29,0 0,298.23 -520.29,0 0,-298.23 z"/>
    </clipPath>
    <clipPath id="clipPath74" clipPathUnits="userSpaceOnUse">
      <path style="clip-rule:evenodd" id="path76" d="m 53.179,272.72 520.29,0 0,298.23 -520.29,0 0,-298.23 z"/>
    </clipPath>
    <clipPath id="clipPath86" clipPathUnits="userSpaceOnUse">
      <path style="clip-rule:evenodd" id="path88" d="m 53.179,272.72 520.29,0 0,298.23 -520.29,0 0,-298.23 z"/>
    </clipPath>
    <clipPath id="clipPath98" clipPathUnits="userSpaceOnUse">
      <path style="clip-rule:evenodd" id="path100" d="m 53.179,272.72 520.29,0 0,298.23 -520.29,0 0,-298.23 z"/>
    </clipPath>
    <clipPath id="clipPath110" clipPathUnits="userSpaceOnUse">
      <path style="clip-rule:evenodd" id="path112" d="m 53.179,272.72 520.29,0 0,298.23 -520.29,0 0,-298.23 z"/>
    </clipPath>
    <clipPath id="clipPath122" clipPathUnits="userSpaceOnUse">
      <path style="clip-rule:evenodd" id="path124" d="m 53.179,272.72 520.29,0 0,298.23 -520.29,0 0,-298.23 z"/>
    </clipPath>
    <clipPath id="clipPath134" clipPathUnits="userSpaceOnUse">
      <path style="clip-rule:evenodd" id="path136" d="m 53.179,272.72 520.29,0 0,298.23 -520.29,0 0,-298.23 z"/>
    </clipPath>
    <clipPath id="clipPath146" clipPathUnits="userSpaceOnUse">
      <path style="clip-rule:evenodd" id="path148" d="m 53.179,272.72 520.29,0 0,298.23 -520.29,0 0,-298.23 z"/>
    </clipPath>
    <clipPath id="clipPath158" clipPathUnits="userSpaceOnUse">
      <path style="clip-rule:evenodd" id="path160" d="m 53.179,272.72 520.29,0 0,298.23 -520.29,0 0,-298.23 z"/>
    </clipPath>
    <clipPath id="clipPath170" clipPathUnits="userSpaceOnUse">
      <path style="clip-rule:evenodd" id="path172" d="m 53.179,272.72 520.29,0 0,298.23 -520.29,0 0,-298.23 z"/>
    </clipPath>
    <clipPath id="clipPath182" clipPathUnits="userSpaceOnUse">
      <path style="clip-rule:evenodd" id="path184" d="m 53.179,272.72 520.29,0 0,298.23 -520.29,0 0,-298.23 z"/>
    </clipPath>
    <clipPath id="clipPath194" clipPathUnits="userSpaceOnUse">
      <path style="clip-rule:evenodd" id="path196" d="m 53.179,272.72 520.29,0 0,298.23 -520.29,0 0,-298.23 z"/>
    </clipPath>
    <clipPath id="clipPath206" clipPathUnits="userSpaceOnUse">
      <path style="clip-rule:evenodd" id="path208" d="m 53.179,272.72 520.29,0 0,298.23 -520.29,0 0,-298.23 z"/>
    </clipPath>
    <clipPath id="clipPath218" clipPathUnits="userSpaceOnUse">
      <path style="clip-rule:evenodd" id="path220" d="m 53.179,272.72 520.29,0 0,298.23 -520.29,0 0,-298.23 z"/>
    </clipPath>
    <clipPath id="clipPath230" clipPathUnits="userSpaceOnUse">
      <path style="clip-rule:evenodd" id="path232" d="m 53.179,272.72 520.29,0 0,298.23 -520.29,0 0,-298.23 z"/>
    </clipPath>
    <clipPath id="clipPath242" clipPathUnits="userSpaceOnUse">
      <path style="clip-rule:evenodd" id="path244" d="m 53.179,272.72 520.29,0 0,298.23 -520.29,0 0,-298.23 z"/>
    </clipPath>
    <clipPath id="clipPath254" clipPathUnits="userSpaceOnUse">
      <path style="clip-rule:evenodd" id="path256" d="m 53.179,272.72 520.29,0 0,298.23 -520.29,0 0,-298.23 z"/>
    </clipPath>
    <clipPath id="clipPath266" clipPathUnits="userSpaceOnUse">
      <path style="clip-rule:evenodd" id="path268" d="m 53.179,272.72 520.29,0 0,298.23 -520.29,0 0,-298.23 z"/>
    </clipPath>
    <clipPath id="clipPath278" clipPathUnits="userSpaceOnUse">
      <path style="clip-rule:evenodd" id="path280" d="m 53.179,272.72 520.29,0 0,298.23 -520.29,0 0,-298.23 z"/>
    </clipPath>
    <clipPath id="clipPath290" clipPathUnits="userSpaceOnUse">
      <path style="clip-rule:evenodd" id="path292" d="m 53.179,272.72 520.29,0 0,298.23 -520.29,0 0,-298.23 z"/>
    </clipPath>
    <clipPath id="clipPath302" clipPathUnits="userSpaceOnUse">
      <path style="clip-rule:evenodd" id="path304" d="m 53.179,272.72 520.29,0 0,298.23 -520.29,0 0,-298.23 z"/>
    </clipPath>
    <clipPath id="clipPath314" clipPathUnits="userSpaceOnUse">
      <path style="clip-rule:evenodd" id="path316" d="m 53.179,272.72 520.29,0 0,298.23 -520.29,0 0,-298.23 z"/>
    </clipPath>
    <clipPath id="clipPath326" clipPathUnits="userSpaceOnUse">
      <path style="clip-rule:evenodd" id="path328" d="m 53.179,272.72 520.29,0 0,298.23 -520.29,0 0,-298.23 z"/>
    </clipPath>
    <clipPath id="clipPath338" clipPathUnits="userSpaceOnUse">
      <path style="clip-rule:evenodd" id="path340" d="m 53.179,272.72 520.29,0 0,298.23 -520.29,0 0,-298.23 z"/>
    </clipPath>
    <clipPath id="clipPath350" clipPathUnits="userSpaceOnUse">
      <path style="clip-rule:evenodd" id="path352" d="m 53.179,272.72 520.29,0 0,298.23 -520.29,0 0,-298.23 z"/>
    </clipPath>
    <clipPath id="clipPath362" clipPathUnits="userSpaceOnUse">
      <path style="clip-rule:evenodd" id="path364" d="m 53.179,272.72 520.29,0 0,298.23 -520.29,0 0,-298.23 z"/>
    </clipPath>
    <clipPath id="clipPath374" clipPathUnits="userSpaceOnUse">
      <path style="clip-rule:evenodd" id="path376" d="m 53.179,272.72 520.29,0 0,298.23 -520.29,0 0,-298.23 z"/>
    </clipPath>
    <clipPath id="clipPath386" clipPathUnits="userSpaceOnUse">
      <path style="clip-rule:evenodd" id="path388" d="m 53.179,272.72 520.29,0 0,298.23 -520.29,0 0,-298.23 z"/>
    </clipPath>
    <clipPath id="clipPath398" clipPathUnits="userSpaceOnUse">
      <path style="clip-rule:evenodd" id="path400" d="m 53.179,272.72 520.29,0 0,298.23 -520.29,0 0,-298.23 z"/>
    </clipPath>
    <clipPath id="clipPath412" clipPathUnits="userSpaceOnUse">
      <path style="clip-rule:evenodd" id="path414" d="m 53.179,272.72 520.29,0 0,298.23 -520.29,0 0,-298.23 z"/>
    </clipPath>
    <clipPath id="clipPath426" clipPathUnits="userSpaceOnUse">
      <path style="clip-rule:evenodd" id="path428" d="m 53.179,272.72 520.29,0 0,298.23 -520.29,0 0,-298.23 z"/>
    </clipPath>
    <clipPath id="clipPath440" clipPathUnits="userSpaceOnUse">
      <path style="clip-rule:evenodd" id="path442" d="m 53.179,272.72 520.29,0 0,298.23 -520.29,0 0,-298.23 z"/>
    </clipPath>
    <clipPath id="clipPath454" clipPathUnits="userSpaceOnUse">
      <path style="clip-rule:evenodd" id="path456" d="m 53.179,272.72 520.29,0 0,298.23 -520.29,0 0,-298.23 z"/>
    </clipPath>
  </defs>
  <g transform="matrix(1.25,0,0,-1.25,0,1107.7875)" id="g10">
    <g id="g12">
      <g clip-path="url(#clipPath16)" id="g14">
        <path id="path20" style="fill:none;stroke:#000000;stroke-width:0.14;stroke-linecap:butt;stroke-linejoin:miter;stroke-miterlimit:10;stroke-dasharray:none;stroke-opacity:0" d="m 53.274,272.69 520.28,0 0,298.15 -520.28,0 0,-298.15 z"/>
      </g>
    </g>
    <path id="path22" style="fill:#ffffff;fill-opacity:1;fill-rule:evenodd;stroke:none" d="m 53.274,272.69 520.28,0 0,298.15 -520.28,0 0,-298.15 z"/>
    <path id="path24" style="fill:#00b0f0;fill-opacity:1;fill-rule:nonzero;stroke:none" d="m 334.41,336.21 26.27,0 0,-0.45 -26.27,0 0,0.45 z m 83.9,3.25 26.47,0 0,-3.7 -26.47,0 0,3.7 z m 84.1,14.46 26.47,0 0,-18.16 -26.47,0 0,18.16 z"/>
    <path id="path26" style="fill:#ffc000;fill-opacity:1;fill-rule:nonzero;stroke:none" d="m 250.32,336.82 26.26,0 0,-1.06 -26.26,0 0,1.06 z m 84.09,10.18 26.27,0 0,-10.79 -26.27,0 0,10.79 z m 83.9,19.95 26.47,0 0,-27.49 -26.47,0 0,27.49 z m 84.1,100.39 26.47,0 0,-113.42 -26.47,0 0,113.42 z"/>
    <path id="path28" style="fill:#196b24;fill-opacity:1;fill-rule:nonzero;stroke:none" d="m 334.41,347.61 26.27,0 0,-0.61 -26.27,0 0,0.61 z m 83.9,21.99 26.47,0 0,-2.65 -26.47,0 0,2.65 z m 84.1,110.37 26.47,0 0,-12.63 -26.47,0 0,12.63 z"/>
    <path id="path30" style="fill:#92d050;fill-opacity:1;fill-rule:nonzero;stroke:none" d="m 166.22,336.21 26.26,0 0,-0.45 -26.26,0 0,0.45 z m 84.1,9.36 26.26,0 0,-8.75 -26.26,0 0,8.75 z m 84.09,13.44 26.27,0 0,-11.4 -26.27,0 0,11.4 z m 83.9,32.18 26.47,0 0,-21.59 -26.47,0 0,21.59 z m 84.1,134.19 26.47,0 0,-45.41 -26.47,0 0,45.41 z"/>
    <path id="path32" style="fill:none;stroke:#d9d9d9;stroke-width:1.20920002;stroke-linecap:butt;stroke-linejoin:round;stroke-miterlimit:10;stroke-dasharray:none;stroke-opacity:1" d="m 137.34,335.76 420.32,0"/>
    <g id="g34">
      <g clip-path="url(#clipPath38)" id="g36"><text id="text42" style="font-variant:normal;font-weight:normal;font-size:9.76840019px;font-family:Roboto;-inkscape-font-specification:Roboto;writing-mode:lr-tb;fill:#000000;fill-opacity:1;fill-rule:nonzero;stroke:none" transform="matrix(1,0,0,-1,341.12,327.68)"><tspan id="tspan44" y="0" x="0 5.4947209">2%</tspan></text>
</g>
    </g>
    <g id="g46">
      <g clip-path="url(#clipPath50)" id="g48"><text id="text54" style="font-variant:normal;font-weight:normal;font-size:9.78950024px;font-family:Roboto;-inkscape-font-specification:Roboto;writing-mode:lr-tb;fill:#000000;fill-opacity:1;fill-rule:nonzero;stroke:none" transform="matrix(1,0,0,-1,425.2,334.23)"><tspan id="tspan56" y="0" x="0 5.4947491">7%</tspan></text>
</g>
    </g>
    <g id="g58">
      <g clip-path="url(#clipPath62)" id="g60"><text id="text66" style="font-variant:normal;font-weight:normal;font-size:9.76840019px;font-family:Roboto;-inkscape-font-specification:Roboto;writing-mode:lr-tb;fill:#000000;fill-opacity:1;fill-rule:nonzero;stroke:none" transform="matrix(1,0,0,-1,506.63,341.43)"><tspan id="tspan68" y="0" x="0 5.4947209 10.989442">10%</tspan></text>
</g>
    </g>
    <g id="g70">
      <g clip-path="url(#clipPath74)" id="g72"><text id="text78" style="font-variant:normal;font-weight:normal;font-size:9.78950024px;font-family:Roboto;-inkscape-font-specification:Roboto;writing-mode:lr-tb;fill:#000000;fill-opacity:1;fill-rule:nonzero;stroke:none" transform="matrix(1,0,0,-1,254.38,332.86)"><tspan id="tspan80" y="0" x="0 5.4947491 10.989498">11%</tspan></text>
</g>
    </g>
    <g id="g82">
      <g clip-path="url(#clipPath86)" id="g84"><text id="text90" style="font-variant:normal;font-weight:normal;font-size:9.76840019px;font-family:Roboto;-inkscape-font-specification:Roboto;writing-mode:lr-tb;fill:#000000;fill-opacity:1;fill-rule:nonzero;stroke:none" transform="matrix(1,0,0,-1,340.17,341.43)"><tspan id="tspan92" y="0" x="0 5.4947209 10.989442">46%</tspan></text>
</g>
    </g>
    <g id="g94">
      <g clip-path="url(#clipPath98)" id="g96"><text id="text102" style="font-variant:normal;font-weight:normal;font-size:9.78950024px;font-family:Roboto;-inkscape-font-specification:Roboto;writing-mode:lr-tb;fill:#000000;fill-opacity:1;fill-rule:nonzero;stroke:none" transform="matrix(1,0,0,-1,422.55,349.79)"><tspan id="tspan104" y="0" x="0 5.4947491 10.989498">49%</tspan></text>
</g>
    </g>
    <g id="g106">
      <g clip-path="url(#clipPath110)" id="g108"><text id="text114" style="font-variant:normal;font-weight:normal;font-size:9.76840019px;font-family:Roboto;-inkscape-font-specification:Roboto;writing-mode:lr-tb;fill:#000000;fill-opacity:1;fill-rule:nonzero;stroke:none" transform="matrix(1,0,0,-1,506.63,407.22)"><tspan id="tspan116" y="0" x="0 5.4947209 10.989442">60%</tspan></text>
</g>
    </g>
    <g id="g118">
      <g clip-path="url(#clipPath122)" id="g120"><text id="text126" style="font-variant:normal;font-weight:normal;font-size:9.78950024px;font-family:Roboto;-inkscape-font-specification:Roboto;writing-mode:lr-tb;fill:#000000;fill-opacity:1;fill-rule:nonzero;stroke:none" transform="matrix(1,0,0,-1,315.43,345.54)"><tspan id="tspan128" y="0" x="0 5.4947491">3%</tspan></text>
</g>
    </g>
    <g id="g130">
      <g clip-path="url(#clipPath134)" id="g132"><text id="text138" style="font-variant:normal;font-weight:normal;font-size:9.76840019px;font-family:Roboto;-inkscape-font-specification:Roboto;writing-mode:lr-tb;fill:#000000;fill-opacity:1;fill-rule:nonzero;stroke:none" transform="matrix(1,0,0,-1,425.2,364.76)"><tspan id="tspan140" y="0" x="0 5.4947209">5%</tspan></text>
</g>
    </g>
    <g id="g142">
      <g clip-path="url(#clipPath146)" id="g144"><text id="text150" style="font-variant:normal;font-weight:normal;font-size:9.78950024px;font-family:Roboto;-inkscape-font-specification:Roboto;writing-mode:lr-tb;fill:#ffffff;fill-opacity:1;fill-rule:nonzero;stroke:none" transform="matrix(1,0,0,-1,509.26,470.21)"><tspan id="tspan152" y="0" x="0 5.515799">7%</tspan></text>
</g>
    </g>
    <g id="g154">
      <g clip-path="url(#clipPath158)" id="g156"><text id="text162" style="font-variant:normal;font-weight:normal;font-size:9.78950024px;font-family:Roboto;-inkscape-font-specification:Roboto;writing-mode:lr-tb;fill:#000000;fill-opacity:1;fill-rule:nonzero;stroke:none" transform="matrix(1,0,0,-1,167.45,332.51)"><tspan id="tspan164" y="0" x="0 5.4947491 10.989498 16.484247">100%</tspan></text>
</g>
    </g>
    <g id="g166">
      <g clip-path="url(#clipPath170)" id="g168"><text id="text174" style="font-variant:normal;font-weight:normal;font-size:9.78950024px;font-family:Roboto;-inkscape-font-specification:Roboto;writing-mode:lr-tb;fill:#000000;fill-opacity:1;fill-rule:nonzero;stroke:none" transform="matrix(1,0,0,-1,256.08,345.94)"><tspan id="tspan176" y="0" x="0 5.515799 11.031598">89%</tspan></text>
</g>
    </g>
    <g id="g178">
      <g clip-path="url(#clipPath182)" id="g180"><text id="text186" style="font-variant:normal;font-weight:normal;font-size:9.78950024px;font-family:Roboto;-inkscape-font-specification:Roboto;writing-mode:lr-tb;fill:#000000;fill-opacity:1;fill-rule:nonzero;stroke:none" transform="matrix(1,0,0,-1,338.46,359.71)"><tspan id="tspan188" y="0" x="0 5.4947491 10.989498">49%</tspan></text>
</g>
    </g>
    <g id="g190">
      <g clip-path="url(#clipPath194)" id="g192"><text id="text198" style="font-variant:normal;font-weight:normal;font-size:9.76840019px;font-family:Roboto;-inkscape-font-specification:Roboto;writing-mode:lr-tb;fill:#000000;fill-opacity:1;fill-rule:nonzero;stroke:none" transform="matrix(1,0,0,-1,422.55,376.93)"><tspan id="tspan200" y="0" x="0 5.4947209 10.989442">39%</tspan></text>
</g>
    </g>
    <g id="g202">
      <g clip-path="url(#clipPath206)" id="g204"><text id="text210" style="font-variant:normal;font-weight:normal;font-size:9.76840019px;font-family:Roboto;-inkscape-font-specification:Roboto;writing-mode:lr-tb;fill:#000000;fill-opacity:1;fill-rule:nonzero;stroke:none" transform="matrix(1,0,0,-1,506.63,499.28)"><tspan id="tspan212" y="0" x="0 5.4947209 10.989442">24%</tspan></text>
</g>
    </g>
    <g id="g214">
      <g clip-path="url(#clipPath218)" id="g216"><text id="text222" style="font-variant:normal;font-weight:normal;font-size:11.19999981px;font-family:Roboto;-inkscape-font-specification:Roboto;writing-mode:lr-tb;fill:#000000;fill-opacity:1;fill-rule:nonzero;stroke:none" transform="matrix(1,0,0,-1,115.5532,332.23)"><tspan id="tspan224" y="0" x="0">-</tspan></text>
</g>
    </g>
    <g id="g226">
      <g clip-path="url(#clipPath230)" id="g228"><text id="text234" style="font-variant:normal;font-weight:normal;font-size:11.19999981px;font-family:Roboto;-inkscape-font-specification:Roboto;writing-mode:lr-tb;fill:#000000;fill-opacity:1;fill-rule:nonzero;stroke:none" transform="matrix(1,0,0,-1,90.3076,354.82)"><tspan id="tspan236" y="0" x="0 6.2944002 12.6224 14.8288 21.156799 27.4512">50,000</tspan></text>
</g>
    </g>
    <g id="g238">
      <g clip-path="url(#clipPath242)" id="g240"><text id="text246" style="font-variant:normal;font-weight:normal;font-size:11.22099972px;font-family:Roboto;-inkscape-font-specification:Roboto;writing-mode:lr-tb;fill:#000000;fill-opacity:1;fill-rule:nonzero;stroke:none" transform="matrix(1,0,0,-1,83.964692,377.43)"><tspan id="tspan248" y="0" x="0 6.3062019 12.612404 18.884943 21.09548 27.401682 33.707886">100,000</tspan></text>
</g>
    </g>
    <g id="g250">
      <g clip-path="url(#clipPath254)" id="g252"><text id="text258" style="font-variant:normal;font-weight:normal;font-size:11.19999981px;font-family:Roboto;-inkscape-font-specification:Roboto;writing-mode:lr-tb;fill:#000000;fill-opacity:1;fill-rule:nonzero;stroke:none" transform="matrix(1,0,0,-1,83.9706,400.02)"><tspan id="tspan260" y="0" x="0 6.2944002 12.5888 18.8832 21.0896 27.384001 33.678398">150,000</tspan></text>
</g>
    </g>
    <g id="g262">
      <g clip-path="url(#clipPath266)" id="g264"><text id="text270" style="font-variant:normal;font-weight:normal;font-size:11.19999981px;font-family:Roboto;-inkscape-font-specification:Roboto;writing-mode:lr-tb;fill:#000000;fill-opacity:1;fill-rule:nonzero;stroke:none" transform="matrix(1,0,0,-1,83.9706,422.61)"><tspan id="tspan272" y="0" x="0 6.2944002 12.5888 18.8832 21.0896 27.384001 33.678398">200,000</tspan></text>
</g>
    </g>
    <g id="g274">
      <g clip-path="url(#clipPath278)" id="g276"><text id="text282" style="font-variant:normal;font-weight:normal;font-size:11.22099972px;font-family:Roboto;-inkscape-font-specification:Roboto;writing-mode:lr-tb;fill:#000000;fill-opacity:1;fill-rule:nonzero;stroke:none" transform="matrix(1,0,0,-1,83.964692,445.22)"><tspan id="tspan284" y="0" x="0 6.3062019 12.612404 18.884943 21.09548 27.401682 33.707886">250,000</tspan></text>
</g>
    </g>
    <g id="g286">
      <g clip-path="url(#clipPath290)" id="g288"><text id="text294" style="font-variant:normal;font-weight:normal;font-size:11.19999981px;font-family:Roboto;-inkscape-font-specification:Roboto;writing-mode:lr-tb;fill:#000000;fill-opacity:1;fill-rule:nonzero;stroke:none" transform="matrix(1,0,0,-1,83.9706,467.81)"><tspan id="tspan296" y="0" x="0 6.2944002 12.5888 18.8832 21.0896 27.384001 33.678398">300,000</tspan></text>
</g>
    </g>
    <g id="g298">
      <g clip-path="url(#clipPath302)" id="g300"><text id="text306" style="font-variant:normal;font-weight:normal;font-size:11.19999981px;font-family:Roboto;-inkscape-font-specification:Roboto;writing-mode:lr-tb;fill:#000000;fill-opacity:1;fill-rule:nonzero;stroke:none" transform="matrix(1,0,0,-1,83.9706,490.4)"><tspan id="tspan308" y="0" x="0 6.2944002 12.5888 18.8832 21.0896 27.384001 33.678398">350,000</tspan></text>
</g>
    </g>
    <g id="g310">
      <g clip-path="url(#clipPath314)" id="g312"><text id="text318" style="font-variant:normal;font-weight:normal;font-size:11.19999981px;font-family:Roboto;-inkscape-font-specification:Roboto;writing-mode:lr-tb;fill:#000000;fill-opacity:1;fill-rule:nonzero;stroke:none" transform="matrix(1,0,0,-1,83.9706,512.99)"><tspan id="tspan320" y="0" x="0 6.2944002 12.5888 18.8832 21.0896 27.384001 33.678398">400,000</tspan></text>
</g>
    </g>
    <g id="g322">
      <g clip-path="url(#clipPath326)" id="g324"><text id="text330" style="font-variant:normal;font-weight:normal;font-size:11.19999981px;font-family:Roboto;-inkscape-font-specification:Roboto;writing-mode:lr-tb;fill:#000000;fill-opacity:1;fill-rule:nonzero;stroke:none" transform="matrix(1,0,0,-1,83.9706,535.6)"><tspan id="tspan332" y="0" x="0 6.2944002 12.5888 18.8832 21.0896 27.384001 33.678398">450,000</tspan></text>
</g>
    </g>
    <g id="g334">
      <g clip-path="url(#clipPath338)" id="g336"><text id="text342" style="font-variant:normal;font-weight:normal;font-size:11.19999981px;font-family:Roboto;-inkscape-font-specification:Roboto;writing-mode:lr-tb;fill:#000000;fill-opacity:1;fill-rule:nonzero;stroke:none" transform="matrix(1,0,0,-1,163.03,317.75)"><tspan id="tspan344" y="0" x="0 6.2944002 12.6224 18.9168 25.4576">2023A</tspan></text>
</g>
    </g>
    <g id="g346">
      <g clip-path="url(#clipPath350)" id="g348"><text id="text354" style="font-variant:normal;font-weight:normal;font-size:11.19999981px;font-family:Roboto;-inkscape-font-specification:Roboto;writing-mode:lr-tb;fill:#000000;fill-opacity:1;fill-rule:nonzero;stroke:none" transform="matrix(1,0,0,-1,247.12,317.75)"><tspan id="tspan356" y="0" x="0 6.2944002 12.6224 18.9168 25.4352">2024A</tspan></text>
</g>
    </g>
    <g id="g358">
      <g clip-path="url(#clipPath362)" id="g360"><text id="text366" style="font-variant:normal;font-weight:normal;font-size:11.19999981px;font-family:Roboto;-inkscape-font-specification:Roboto;writing-mode:lr-tb;fill:#000000;fill-opacity:1;fill-rule:nonzero;stroke:none" transform="matrix(1,0,0,-1,331.66,317.75)"><tspan id="tspan368" y="0" x="0 6.2944002 12.6224 18.9168 25.4576">2025E</tspan></text>
</g>
    </g>
    <g id="g370">
      <g clip-path="url(#clipPath374)" id="g372"><text id="text378" style="font-variant:normal;font-weight:normal;font-size:11.19999981px;font-family:Roboto;-inkscape-font-specification:Roboto;writing-mode:lr-tb;fill:#000000;fill-opacity:1;fill-rule:nonzero;stroke:none" transform="matrix(1,0,0,-1,415.75,317.75)"><tspan id="tspan380" y="0" x="0 6.2944002 12.6224 18.9168 25.4576">2026E</tspan></text>
</g>
    </g>
    <g id="g382">
      <g clip-path="url(#clipPath386)" id="g384"><text id="text390" style="font-variant:normal;font-weight:normal;font-size:11.19999981px;font-family:Roboto;-inkscape-font-specification:Roboto;writing-mode:lr-tb;fill:#000000;fill-opacity:1;fill-rule:nonzero;stroke:none" transform="matrix(1,0,0,-1,499.83,317.75)"><tspan id="tspan392" y="0" x="0 6.2944002 12.6224 18.9168 25.4352">2027E</tspan></text>
</g>
    </g>
    <g id="g394">
      <g clip-path="url(#clipPath398)" id="g396"><text id="text402" style="font-variant:normal;font-weight:bold;font-size:11.19999981px;font-family:Roboto;-inkscape-font-specification:'Roboto Bold';writing-mode:lr-tb;fill:#000000;fill-opacity:1;fill-rule:nonzero;stroke:none" transform="matrix(1,0,0,-1,62.379,553.24)"><tspan id="tspan404" y="0" x="0 7.3248 14.224 20.764799 22.568001 29.108801 35.627201">US$'000</tspan></text>
</g>
    </g>
    <path id="path406" style="fill:#00b0f0;fill-opacity:1;fill-rule:evenodd;stroke:none" d="m 168.68,551.25 6.0944,0 0,6.0944 -6.0944,0 0,-6.0944 z"/>
    <g id="g408">
      <g clip-path="url(#clipPath412)" id="g410"><text id="text416" style="font-variant:normal;font-weight:normal;font-size:11.19999981px;font-family:Roboto;-inkscape-font-specification:Roboto;writing-mode:lr-tb;fill:#000000;fill-opacity:1;fill-rule:nonzero;stroke:none" transform="matrix(1,0,0,-1,177.24,550.8)"><tspan id="tspan418" y="0" x="0 9.7776003 12.6 18.704 21.5376 31.315201 37.408001 43.108799 45.942402 53.244801 59.5728 65.508797 71.792">MiniMax Agent</tspan></text>
</g>
    </g>
    <path id="path420" style="fill:#ffc000;fill-opacity:1;fill-rule:evenodd;stroke:none" d="m 273.6,551.25 6.0944,0 0,6.0944 -6.0944,0 0,-6.0944 z"/>
    <g id="g422">
      <g clip-path="url(#clipPath426)" id="g424"><text id="text430" style="font-variant:normal;font-weight:normal;font-size:11.19999981px;font-family:Roboto;-inkscape-font-specification:Roboto;writing-mode:lr-tb;fill:#000000;fill-opacity:1;fill-rule:nonzero;stroke:none" transform="matrix(1,0,0,-1,282.19,550.8)"><tspan id="tspan432" y="0" x="0 8.1311998 14.224 16.889601 19.7232 25.8272 32.3232 35.156799 42.459202">Hailuo AI</tspan></text>
</g>
    </g>
    <path id="path434" style="fill:#196b24;fill-opacity:1;fill-rule:evenodd;stroke:none" d="m 348.52,551.25 6.0944,0 0,6.0944 -6.0944,0 0,-6.0944 z"/>
    <g id="g436">
      <g clip-path="url(#clipPath440)" id="g438"><text id="text444" style="font-variant:normal;font-weight:normal;font-size:11.19999981px;font-family:Roboto;-inkscape-font-specification:Roboto;writing-mode:lr-tb;fill:#000000;fill-opacity:1;fill-rule:nonzero;stroke:none" transform="matrix(1,0,0,-1,357.12,550.8)"><tspan id="tspan446" y="0" x="0 9.7776003 12.6448 18.7712 21.627199 31.4048 37.5312 43.220798 46.076801 53.4128 59.5392 66.057602 68.711998">MiniMax Audio</tspan></text>
</g>
    </g>
    <path id="path448" style="fill:#92d050;fill-opacity:1;fill-rule:evenodd;stroke:none" d="m 452.96,551.25 6.0944,0 0,6.0944 -6.0944,0 0,-6.0944 z"/>
    <g id="g450">
      <g clip-path="url(#clipPath454)" id="g452"><text id="text458" style="font-variant:normal;font-weight:normal;font-size:11.19999981px;font-family:Roboto;-inkscape-font-specification:Roboto;writing-mode:lr-tb;fill:#000000;fill-opacity:1;fill-rule:nonzero;stroke:none" transform="matrix(1,0,0,-1,461.58,550.8)"><tspan id="tspan460" y="0" x="0 6.7312002 12.824 15.7136 21.392 24.0688 30.184 34.664001 41.787201 44.6432 50.7696 57.063999 62.585602">Talkie/Xingye</tspan></text>
</g>
    </g>
  </g>
</svg>
