<?xml version="1.0" encoding="UTF-8" standalone="no"?>
<svg xmlns:dc="http://purl.org/dc/elements/1.1/" xmlns:cc="http://creativecommons.org/ns#" xmlns:rdf="http://www.w3.org/1999/02/22-rdf-syntax-ns#" xmlns:svg="http://www.w3.org/2000/svg" xmlns="http://www.w3.org/2000/svg" viewBox="63 313.8 639 362.25" height="362.25" width="639" xml:space="preserve" version="1.1" id="svg2">
  <metadata id="metadata8">
    <rdf:RDF>
      <cc:Work rdf:about="">
        <dc:format>image/svg+xml</dc:format>
        <dc:type rdf:resource="http://purl.org/dc/dcmitype/StillImage"/>
      </cc:Work>
    </rdf:RDF>
  </metadata>
  <defs id="defs6">
    <clipPath id="clipPath16" clipPathUnits="userSpaceOnUse">
      <path style="clip-rule:evenodd" id="path18" d="m 50.4,251.16 511.2,0 0,289.8 -511.2,0 0,-289.8 z"/>
    </clipPath>
    <clipPath id="clipPath26" clipPathUnits="userSpaceOnUse">
      <path style="clip-rule:evenodd" id="path28" d="m 50.4,251.16 511.2,0 0,289.8 -511.2,0 0,-289.8 z"/>
    </clipPath>
    <clipPath id="clipPath64" clipPathUnits="userSpaceOnUse">
      <path style="clip-rule:evenodd" id="path66" d="m 50.52,251.16 510.96,0 0,289.68 -510.96,0 0,-289.68 z"/>
    </clipPath>
    <clipPath id="clipPath76" clipPathUnits="userSpaceOnUse">
      <path style="clip-rule:evenodd" id="path78" d="m 50.52,251.16 510.96,0 0,289.68 -510.96,0 0,-289.68 z"/>
    </clipPath>
    <clipPath id="clipPath88" clipPathUnits="userSpaceOnUse">
      <path style="clip-rule:evenodd" id="path90" d="m 50.52,251.16 510.96,0 0,289.68 -510.96,0 0,-289.68 z"/>
    </clipPath>
    <clipPath id="clipPath100" clipPathUnits="userSpaceOnUse">
      <path style="clip-rule:evenodd" id="path102" d="m 50.52,251.16 510.96,0 0,289.68 -510.96,0 0,-289.68 z"/>
    </clipPath>
    <clipPath id="clipPath112" clipPathUnits="userSpaceOnUse">
      <path style="clip-rule:evenodd" id="path114" d="m 50.52,251.16 510.96,0 0,289.68 -510.96,0 0,-289.68 z"/>
    </clipPath>
    <clipPath id="clipPath124" clipPathUnits="userSpaceOnUse">
      <path style="clip-rule:evenodd" id="path126" d="m 50.52,251.16 510.96,0 0,289.68 -510.96,0 0,-289.68 z"/>
    </clipPath>
    <clipPath id="clipPath136" clipPathUnits="userSpaceOnUse">
      <path style="clip-rule:evenodd" id="path138" d="m 50.52,251.16 510.96,0 0,289.68 -510.96,0 0,-289.68 z"/>
    </clipPath>
    <clipPath id="clipPath148" clipPathUnits="userSpaceOnUse">
      <path style="clip-rule:evenodd" id="path150" d="m 50.52,251.16 510.96,0 0,289.68 -510.96,0 0,-289.68 z"/>
    </clipPath>
    <clipPath id="clipPath160" clipPathUnits="userSpaceOnUse">
      <path style="clip-rule:evenodd" id="path162" d="m 50.52,251.16 510.96,0 0,289.68 -510.96,0 0,-289.68 z"/>
    </clipPath>
    <clipPath id="clipPath172" clipPathUnits="userSpaceOnUse">
      <path style="clip-rule:evenodd" id="path174" d="m 50.52,251.16 510.96,0 0,289.68 -510.96,0 0,-289.68 z"/>
    </clipPath>
    <clipPath id="clipPath184" clipPathUnits="userSpaceOnUse">
      <path style="clip-rule:evenodd" id="path186" d="m 50.52,324.72 257.28,0 0,33.12 -257.28,0 0,-33.12 z"/>
    </clipPath>
    <clipPath id="clipPath196" clipPathUnits="userSpaceOnUse">
      <path style="clip-rule:evenodd" id="path198" d="m 50.52,324.72 257.28,0 0,33.12 -257.28,0 0,-33.12 z"/>
    </clipPath>
    <clipPath id="clipPath208" clipPathUnits="userSpaceOnUse">
      <path style="clip-rule:evenodd" id="path210" d="m 50.52,359.64 267.36,0 0,33.12 -267.36,0 0,-33.12 z"/>
    </clipPath>
    <clipPath id="clipPath220" clipPathUnits="userSpaceOnUse">
      <path style="clip-rule:evenodd" id="path222" d="m 50.52,359.64 267.36,0 0,33.12 -267.36,0 0,-33.12 z"/>
    </clipPath>
    <clipPath id="clipPath232" clipPathUnits="userSpaceOnUse">
      <path style="clip-rule:evenodd" id="path234" d="m 50.52,251.16 510.96,0 0,289.68 -510.96,0 0,-289.68 z"/>
    </clipPath>
    <clipPath id="clipPath244" clipPathUnits="userSpaceOnUse">
      <path style="clip-rule:evenodd" id="path246" d="m 50.52,251.16 510.96,0 0,289.68 -510.96,0 0,-289.68 z"/>
    </clipPath>
    <clipPath id="clipPath256" clipPathUnits="userSpaceOnUse">
      <path style="clip-rule:evenodd" id="path258" d="m 50.52,422.52 353.28,0 0,33.12 -353.28,0 0,-33.12 z"/>
    </clipPath>
    <clipPath id="clipPath268" clipPathUnits="userSpaceOnUse">
      <path style="clip-rule:evenodd" id="path270" d="m 50.52,422.52 353.28,0 0,33.12 -353.28,0 0,-33.12 z"/>
    </clipPath>
    <clipPath id="clipPath280" clipPathUnits="userSpaceOnUse">
      <path style="clip-rule:evenodd" id="path282" d="m 50.52,453.36 363.6,0 0,33.12 -363.6,0 0,-33.12 z"/>
    </clipPath>
    <clipPath id="clipPath292" clipPathUnits="userSpaceOnUse">
      <path style="clip-rule:evenodd" id="path294" d="m 50.52,453.36 363.6,0 0,33.12 -363.6,0 0,-33.12 z"/>
    </clipPath>
    <clipPath id="clipPath304" clipPathUnits="userSpaceOnUse">
      <path style="clip-rule:evenodd" id="path306" d="m 50.52,251.16 510.96,0 0,289.68 -510.96,0 0,-289.68 z"/>
    </clipPath>
    <clipPath id="clipPath316" clipPathUnits="userSpaceOnUse">
      <path style="clip-rule:evenodd" id="path318" d="m 50.52,251.16 510.96,0 0,289.68 -510.96,0 0,-289.68 z"/>
    </clipPath>
    <clipPath id="clipPath328" clipPathUnits="userSpaceOnUse">
      <path style="clip-rule:evenodd" id="path330" d="m 50.52,251.16 510.96,0 0,289.68 -510.96,0 0,-289.68 z"/>
    </clipPath>
    <clipPath id="clipPath340" clipPathUnits="userSpaceOnUse">
      <path style="clip-rule:evenodd" id="path342" d="m 50.52,251.16 510.96,0 0,289.68 -510.96,0 0,-289.68 z"/>
    </clipPath>
    <clipPath id="clipPath352" clipPathUnits="userSpaceOnUse">
      <path style="clip-rule:evenodd" id="path354" d="m 50.52,251.16 510.96,0 0,289.68 -510.96,0 0,-289.68 z"/>
    </clipPath>
    <clipPath id="clipPath364" clipPathUnits="userSpaceOnUse">
      <path style="clip-rule:evenodd" id="path366" d="m 50.52,251.16 510.96,0 0,289.68 -510.96,0 0,-289.68 z"/>
    </clipPath>
    <clipPath id="clipPath376" clipPathUnits="userSpaceOnUse">
      <path style="clip-rule:evenodd" id="path378" d="m 50.52,251.16 510.96,0 0,289.68 -510.96,0 0,-289.68 z"/>
    </clipPath>
    <clipPath id="clipPath388" clipPathUnits="userSpaceOnUse">
      <path style="clip-rule:evenodd" id="path390" d="m 50.52,251.16 510.96,0 0,289.68 -510.96,0 0,-289.68 z"/>
    </clipPath>
    <clipPath id="clipPath400" clipPathUnits="userSpaceOnUse">
      <path style="clip-rule:evenodd" id="path402" d="m 50.52,251.16 510.96,0 0,289.68 -510.96,0 0,-289.68 z"/>
    </clipPath>
  </defs>
  <g transform="matrix(1.25,0,0,-1.25,0,990)" id="g10">
    <g id="g12">
      <g clip-path="url(#clipPath16)" id="g14">
        <path id="path20" style="fill:none;stroke:#000000;stroke-width:0.14;stroke-linecap:butt;stroke-linejoin:miter;stroke-miterlimit:10;stroke-dasharray:none;stroke-opacity:0" d="m 50.423,251.12 511.04,0 0,289.83 -511.04,0 0,-289.83 z"/>
      </g>
    </g>
    <g id="g22">
      <g clip-path="url(#clipPath26)" id="g24">
        <path id="path30" style="fill:#ffffff;fill-opacity:1;fill-rule:evenodd;stroke:none" d="m 50.423,251.12 511.04,0 0,289.83 -511.04,0 0,-289.83 z"/>
      </g>
    </g>
    <path id="path32" style="fill:#005aa4;fill-opacity:1;fill-rule:evenodd;stroke:none" d="m 305.94,481.12 c 55,0 99.59,-44.59 99.59,-99.59 0,-7.83 -0.92,-15.63 -2.75,-23.25 l -96.84,23.25 0,99.59 z"/>
    <path id="path34" style="fill:#eadfbc;fill-opacity:1;fill-rule:evenodd;stroke:none" d="m 402.78,358.28 c -8.09,-33.69 -33.11,-60.75 -66.06,-71.46 l -30.78,94.71 96.84,-23.25 z"/>
    <path id="path36" style="fill:#226b5a;fill-opacity:1;fill-rule:evenodd;stroke:none" d="m 336.72,286.82 c -17.47,-5.68 -36.17,-6.41 -54.02,-2.12 l 23.24,96.83 30.78,-94.71 z"/>
    <path id="path38" style="fill:#8cd5f2;fill-opacity:1;fill-rule:evenodd;stroke:none" d="m 282.7,284.7 c -15.29,3.67 -29.48,10.9 -41.43,21.11 l 64.67,75.72 -23.24,-96.83 z"/>
    <path id="path40" style="fill:#d0b86a;fill-opacity:1;fill-rule:evenodd;stroke:none" d="m 241.27,305.81 c -11.95,10.2 -21.32,23.09 -27.33,37.61 l 92,38.11 -64.67,-75.72 z"/>
    <path id="path42" style="fill:#93decc;fill-opacity:1;fill-rule:evenodd;stroke:none" d="m 213.94,343.42 c -4,9.66 -6.46,19.88 -7.28,30.3 l 99.28,7.81 -92,-38.11 z"/>
    <path id="path44" style="fill:#6769e2;fill-opacity:1;fill-rule:evenodd;stroke:none" d="m 206.66,373.72 c -0.82,10.42 0.01,20.9 2.45,31.06 l 96.83,-23.25 -99.28,-7.81 z"/>
    <path id="path46" style="fill:#606165;fill-opacity:1;fill-rule:evenodd;stroke:none" d="m 209.11,404.78 c 1.83,7.61 4.55,14.99 8.1,21.96 l 88.73,-45.21 -96.83,23.25 z"/>
    <path id="path48" style="fill:#2673b2;fill-opacity:1;fill-rule:evenodd;stroke:none" d="m 217.21,426.74 c 2.37,4.65 5.1,9.11 8.17,13.33 l 80.56,-58.54 -88.73,45.21 z"/>
    <path id="path50" style="fill:#f6f1e1;fill-opacity:1;fill-rule:evenodd;stroke:none" d="m 225.38,440.07 c 3.06,4.22 6.46,8.19 10.14,11.88 l 70.42,-70.42 -80.56,58.54 z"/>
    <path id="path52" style="fill:#38957f;fill-opacity:1;fill-rule:evenodd;stroke:none" d="m 235.52,451.95 c 1.85,1.85 3.76,3.62 5.75,5.31 l 64.67,-75.73 -70.42,70.42 z"/>
    <path id="path54" style="fill:#d9f1fb;fill-opacity:1;fill-rule:evenodd;stroke:none" d="m 241.27,457.26 c 1.98,1.69 4.03,3.31 6.14,4.84 l 58.53,-80.57 -64.67,75.73 z"/>
    <path id="path56" style="fill:#e0d19e;fill-opacity:1;fill-rule:evenodd;stroke:none" d="m 247.41,462.1 c 2.11,1.53 4.28,2.98 6.5,4.34 l 52.03,-84.91 -58.53,80.57 z"/>
    <path id="path58" style="fill:#e2f6f1;fill-opacity:1;fill-rule:evenodd;stroke:none" d="m 253.91,466.44 c 15.66,9.6 33.67,14.68 52.03,14.68 l 0,-99.59 -52.03,84.91 z"/>
    <g id="g60">
      <g clip-path="url(#clipPath64)" id="g62"><text id="text68" style="font-variant:normal;font-weight:normal;font-size:11.88000011px;font-family:'Roboto Condensed';-inkscape-font-specification:RobotoCondensed-Regular;writing-mode:lr-tb;fill:#000000;fill-opacity:1;fill-rule:nonzero;stroke:none" transform="matrix(1,0,0,-1,392.98,461.42)"><tspan id="tspan70" y="0" x="0 5.7024002 8.4229202 14.1372 19.827721 25.577641 31.08996 33.810478 39.500999 42.221519 45.07272 51.25032 56.810162 60.42168 65.506317 68.226837 73.774803 79.334641">Financial Services</tspan></text>
</g>
    </g>
    <g id="g72">
      <g clip-path="url(#clipPath76)" id="g74"><text id="text80" style="font-variant:normal;font-weight:normal;font-size:11.88000011px;font-family:'Roboto Condensed';-inkscape-font-specification:RobotoCondensed-Regular;writing-mode:lr-tb;fill:#000000;fill-opacity:1;fill-rule:nonzero;stroke:none" transform="matrix(1,0,0,-1,425.78,447.14)"><tspan id="tspan82" y="0" x="0 5.8800201 11.76004">29%</tspan></text>
</g>
    </g>
    <g id="g84">
      <g clip-path="url(#clipPath88)" id="g86"><text id="text92" style="font-variant:normal;font-weight:normal;font-size:11.90400028px;font-family:'Roboto Condensed';-inkscape-font-specification:RobotoCondensed-Regular;writing-mode:lr-tb;fill:#000000;fill-opacity:1;fill-rule:nonzero;stroke:none" transform="matrix(1,0,0,-1,387.36,299.16)"><tspan id="tspan94" y="0" x="0 6.2019839 11.737344 17.272703 22.986624 28.700544 34.712063 37.402367 43.413887 49.282558">Technology</tspan></text>
</g>
    </g>
    <g id="g96">
      <g clip-path="url(#clipPath100)" id="g98"><text id="text104" style="font-variant:normal;font-weight:normal;font-size:11.88000011px;font-family:'Roboto Condensed';-inkscape-font-specification:RobotoCondensed-Regular;writing-mode:lr-tb;fill:#000000;fill-opacity:1;fill-rule:nonzero;stroke:none" transform="matrix(1,0,0,-1,404.95,284.88)"><tspan id="tspan106" y="0" x="0 5.85602 11.71204">16%</tspan></text>
</g>
    </g>
    <g id="g108">
      <g clip-path="url(#clipPath112)" id="g110"><text id="text116" style="font-variant:normal;font-weight:normal;font-size:11.88000011px;font-family:'Roboto Condensed';-inkscape-font-specification:RobotoCondensed-Regular;writing-mode:lr-tb;fill:#000000;fill-opacity:1;fill-rule:nonzero;stroke:none" transform="matrix(1,0,0,-1,261.36,277.8)"><tspan id="tspan118" y="0" x="0 6.6409202 10.25244 16.251841 20.02968 25.58952 30.947399 36.329041 39.049561 45.013321 50.703838 56.39436 59.11488 61.764118 67.917961 73.477798 77.089317 82.173958 84.846962 90.383041 95.942879">Professional Services</tspan></text>
</g>
    </g>
    <g id="g120">
      <g clip-path="url(#clipPath124)" id="g122"><text id="text128" style="font-variant:normal;font-weight:normal;font-size:11.88000011px;font-family:'Roboto Condensed';-inkscape-font-specification:RobotoCondensed-Regular;writing-mode:lr-tb;fill:#000000;fill-opacity:1;fill-rule:nonzero;stroke:none" transform="matrix(1,0,0,-1,305.4,263.54)"><tspan id="tspan130" y="0" x="0 5.8800201">9%</tspan></text>
</g>
    </g>
    <g id="g132">
      <g clip-path="url(#clipPath136)" id="g134"><text id="text140" style="font-variant:normal;font-weight:normal;font-size:11.88000011px;font-family:'Roboto Condensed';-inkscape-font-specification:RobotoCondensed-Regular;writing-mode:lr-tb;fill:#000000;fill-opacity:1;fill-rule:nonzero;stroke:none" transform="matrix(1,0,0,-1,144.98,277.8)"><tspan id="tspan142" y="0" x="0 6.8428798 12.69972 17.784361 23.3442 26.99136 30.49596 33.21648 38.633759 41.354279 47.032921 52.889759 57.344761 66.385437 72.075958 75.735001 81.128517 86.688362 90.192963 92.913483 98.627762">Advertising/Marketing</tspan></text>
</g>
    </g>
    <g id="g144">
      <g clip-path="url(#clipPath148)" id="g146"><text id="text152" style="font-variant:normal;font-weight:normal;font-size:11.88000011px;font-family:'Roboto Condensed';-inkscape-font-specification:RobotoCondensed-Regular;writing-mode:lr-tb;fill:#000000;fill-opacity:1;fill-rule:nonzero;stroke:none" transform="matrix(1,0,0,-1,190.49,263.54)"><tspan id="tspan154" y="0" x="0 5.85602">8%</tspan></text>
</g>
    </g>
    <g id="g156">
      <g clip-path="url(#clipPath160)" id="g158"><text id="text164" style="font-variant:normal;font-weight:normal;font-size:11.88000011px;font-family:'Roboto Condensed';-inkscape-font-specification:RobotoCondensed-Regular;writing-mode:lr-tb;fill:#000000;fill-opacity:1;fill-rule:nonzero;stroke:none" transform="matrix(1,0,0,-1,82.92,311.71)"><tspan id="tspan166" y="0" x="0 5.9043598 11.59488 15.09948 20.659321 24.30648 27.811081 33.501598 36.222118 41.972038 50.822639 56.382481 62.132401 65.637001 68.618881 74.309402 80.059319 85.951797 88.767357 94.671722 97.392242 102.95208 108.48816 111.99276 115.62804 121.63932 127.3536 130.07413 135.62209">Entertainment and Electronics</tspan></text>
</g>
    </g>
    <g id="g168">
      <g clip-path="url(#clipPath172)" id="g170"><text id="text176" style="font-variant:normal;font-weight:normal;font-size:11.90400028px;font-family:'Roboto Condensed';-inkscape-font-specification:RobotoCondensed-Regular;writing-mode:lr-tb;fill:#000000;fill-opacity:1;fill-rule:nonzero;stroke:none" transform="matrix(1,0,0,-1,146.64,297.46)"><tspan id="tspan178" y="0" x="0 5.8559761">8%</tspan></text>
</g>
    </g>
    <g id="g180">
      <g clip-path="url(#clipPath184)" id="g182"><text id="text188" style="font-variant:normal;font-weight:normal;font-size:11.88000011px;font-family:'Roboto Condensed';-inkscape-font-specification:RobotoCondensed-Regular;writing-mode:lr-tb;fill:#000000;fill-opacity:1;fill-rule:nonzero;stroke:none" transform="matrix(1,0,0,-1,121.06,344.26)"><tspan id="tspan190" y="0" x="0 5.8568401 11.71368 17.4042 22.940281 28.6308 32.135399 34.79652 40.8078">Education</tspan></text>
</g>
    </g>
    <g id="g192">
      <g clip-path="url(#clipPath196)" id="g194"><text id="text200" style="font-variant:normal;font-weight:normal;font-size:11.88000011px;font-family:'Roboto Condensed';-inkscape-font-specification:RobotoCondensed-Regular;writing-mode:lr-tb;fill:#000000;fill-opacity:1;fill-rule:nonzero;stroke:none" transform="matrix(1,0,0,-1,137.69,330)"><tspan id="tspan202" y="0" x="0 5.85602">5%</tspan></text>
</g>
    </g>
    <g id="g204">
      <g clip-path="url(#clipPath208)" id="g206"><text id="text212" style="font-variant:normal;font-weight:normal;font-size:11.88000011px;font-family:'Roboto Condensed';-inkscape-font-specification:RobotoCondensed-Regular;writing-mode:lr-tb;fill:#000000;fill-opacity:1;fill-rule:nonzero;stroke:none" transform="matrix(1,0,0,-1,107.54,379.15)"><tspan id="tspan214" y="0" x="0 6.30828 11.86812 17.55864 20.27916 22.940281 28.797119 34.178761 37.683361 43.373878 46.830959">Real Estate</tspan></text>
</g>
    </g>
    <g id="g216">
      <g clip-path="url(#clipPath220)" id="g218"><text id="text224" style="font-variant:normal;font-weight:normal;font-size:11.90400028px;font-family:'Roboto Condensed';-inkscape-font-specification:RobotoCondensed-Regular;writing-mode:lr-tb;fill:#000000;fill-opacity:1;fill-rule:nonzero;stroke:none" transform="matrix(1,0,0,-1,127.03,364.9)"><tspan id="tspan226" y="0" x="0 5.8559761">5%</tspan></text>
</g>
    </g>
    <g id="g228">
      <g clip-path="url(#clipPath232)" id="g230"><text id="text236" style="font-variant:normal;font-weight:normal;font-size:11.88000011px;font-family:'Roboto Condensed';-inkscape-font-specification:RobotoCondensed-Regular;writing-mode:lr-tb;fill:#000000;fill-opacity:1;fill-rule:nonzero;stroke:none" transform="matrix(1,0,0,-1,65.976,413.11)"><tspan id="tspan238" y="0" x="0 5.8568401 11.54736 17.4042 20.12472 25.7796 31.339439 36.899281 40.510799 43.231319 48.8862 54.743038 57.107159 59.94648 66.78936 70.400879 75.936958 81.62748 84.348 87.793198 93.353043 98.865356 102.36996 105.18552 111.63636 114.35688 120.51072 126.21312 129.8484 134.93304 140.45724 145.35181 148.07233 153.7272">Engineering, Architect &amp; Surveying</tspan></text>
</g>
    </g>
    <g id="g240">
      <g clip-path="url(#clipPath244)" id="g242"><text id="text248" style="font-variant:normal;font-weight:normal;font-size:11.88000011px;font-family:'Roboto Condensed';-inkscape-font-specification:RobotoCondensed-Regular;writing-mode:lr-tb;fill:#000000;fill-opacity:1;fill-rule:nonzero;stroke:none" transform="matrix(1,0,0,-1,139.2,398.86)"><tspan id="tspan250" y="0" x="0 5.85602">4%</tspan></text>
</g>
    </g>
    <g id="g252">
      <g clip-path="url(#clipPath256)" id="g254"><text id="text260" style="font-variant:normal;font-weight:normal;font-size:11.88000011px;font-family:'Roboto Condensed';-inkscape-font-specification:RobotoCondensed-Regular;writing-mode:lr-tb;fill:#000000;fill-opacity:1;fill-rule:nonzero;stroke:none" transform="matrix(1,0,0,-1,112.08,442.01)"><tspan id="tspan262" y="0" x="0 7.4250002 12.98484 18.67536 21.34836 24.852961 30.51972 33.240238 39.394081 44.953918 48.565441 53.602558 56.323078 61.811642 67.371483">Health Services</tspan></text>
</g>
    </g>
    <g id="g264">
      <g clip-path="url(#clipPath268)" id="g266"><text id="text272" style="font-variant:normal;font-weight:normal;font-size:11.88000011px;font-family:'Roboto Condensed';-inkscape-font-specification:RobotoCondensed-Regular;writing-mode:lr-tb;fill:#000000;fill-opacity:1;fill-rule:nonzero;stroke:none" transform="matrix(1,0,0,-1,141.86,427.75)"><tspan id="tspan274" y="0" x="0 5.85602">4%</tspan></text>
</g>
    </g>
    <g id="g276">
      <g clip-path="url(#clipPath280)" id="g278"><text id="text284" style="font-variant:normal;font-weight:normal;font-size:11.88000011px;font-family:'Roboto Condensed';-inkscape-font-specification:RobotoCondensed-Regular;writing-mode:lr-tb;fill:#000000;fill-opacity:1;fill-rule:nonzero;stroke:none" transform="matrix(1,0,0,-1,96.672,472.92)"><tspan id="tspan286" y="0" x="0 6.80724 12.81852 21.692881 30.56724 36.305279 41.9958 44.71632 50.20488 55.931042 59.435638 62.09676 68.10804 73.822319">Communications</tspan></text>
</g>
    </g>
    <g id="g288">
      <g clip-path="url(#clipPath292)" id="g290"><text id="text296" style="font-variant:normal;font-weight:normal;font-size:11.88000011px;font-family:'Roboto Condensed';-inkscape-font-specification:RobotoCondensed-Regular;writing-mode:lr-tb;fill:#000000;fill-opacity:1;fill-rule:nonzero;stroke:none" transform="matrix(1,0,0,-1,129.65,458.66)"><tspan id="tspan298" y="0" x="0 5.85602">4%</tspan></text>
</g>
    </g>
    <g id="g300">
      <g clip-path="url(#clipPath304)" id="g302"><text id="text308" style="font-variant:normal;font-weight:normal;font-size:11.88000011px;font-family:'Roboto Condensed';-inkscape-font-specification:RobotoCondensed-Regular;writing-mode:lr-tb;fill:#000000;fill-opacity:1;fill-rule:nonzero;stroke:none" transform="matrix(1,0,0,-1,195.74,479.47)"><tspan id="tspan310" y="0" x="0 3.01752 8.7318001 14.14908 19.8396 23.47488 29.1654 34.915321 40.427639">Insurance</tspan></text>
</g>
    </g>
    <g id="g312">
      <g clip-path="url(#clipPath316)" id="g314"><text id="text320" style="font-variant:normal;font-weight:normal;font-size:11.88000011px;font-family:'Roboto Condensed';-inkscape-font-specification:RobotoCondensed-Regular;writing-mode:lr-tb;fill:#000000;fill-opacity:1;fill-rule:nonzero;stroke:none" transform="matrix(1,0,0,-1,212.06,465.22)"><tspan id="tspan322" y="0" x="0 5.8800201">1%</tspan></text>
</g>
    </g>
    <g id="g324">
      <g clip-path="url(#clipPath328)" id="g326"><text id="text332" style="font-variant:normal;font-weight:normal;font-size:11.90400028px;font-family:'Roboto Condensed';-inkscape-font-specification:RobotoCondensed-Regular;writing-mode:lr-tb;fill:#000000;fill-opacity:1;fill-rule:nonzero;stroke:none" transform="matrix(1,0,0,-1,234.65,496.85)"><tspan id="tspan334" y="0" x="0 6.820992 12.689664 18.558336 24.260351 27.879168 33.450241">Apparel</tspan></text>
</g>
    </g>
    <g id="g336">
      <g clip-path="url(#clipPath340)" id="g338"><text id="text344" style="font-variant:normal;font-weight:normal;font-size:11.88000011px;font-family:'Roboto Condensed';-inkscape-font-specification:RobotoCondensed-Regular;writing-mode:lr-tb;fill:#000000;fill-opacity:1;fill-rule:nonzero;stroke:none" transform="matrix(1,0,0,-1,246.05,482.57)"><tspan id="tspan346" y="0" x="0 5.8800201">1%</tspan></text>
</g>
    </g>
    <g id="g348">
      <g clip-path="url(#clipPath352)" id="g350"><text id="text356" style="font-variant:normal;font-weight:normal;font-size:11.88000011px;font-family:'Roboto Condensed';-inkscape-font-specification:RobotoCondensed-Regular;writing-mode:lr-tb;fill:#000000;fill-opacity:1;fill-rule:nonzero;stroke:none" transform="matrix(1,0,0,-1,155.33,498.94)"><tspan id="tspan358" y="0" x="0 6.9854398 12.99672 18.08136 23.60556 27.240841 32.95512 41.829479 47.38932 53.079842">Government</tspan></text>
</g>
    </g>
    <g id="g360">
      <g clip-path="url(#clipPath364)" id="g362"><text id="text368" style="font-variant:normal;font-weight:normal;font-size:11.90400028px;font-family:'Roboto Condensed';-inkscape-font-specification:RobotoCondensed-Regular;writing-mode:lr-tb;fill:#000000;fill-opacity:1;fill-rule:nonzero;stroke:none" transform="matrix(1,0,0,-1,176.88,484.68)"><tspan id="tspan370" y="0" x="0 5.8559761">1%</tspan></text>
</g>
    </g>
    <g id="g372">
      <g clip-path="url(#clipPath376)" id="g374"><text id="text380" style="font-variant:normal;font-weight:normal;font-size:11.88000011px;font-family:'Roboto Condensed';-inkscape-font-specification:RobotoCondensed-Regular;writing-mode:lr-tb;fill:#000000;fill-opacity:1;fill-rule:nonzero;stroke:none" transform="matrix(1,0,0,-1,280.2,500.42)"><tspan id="tspan382" y="0" x="0 7.1398802 10.60884 16.34688 21.8592">Other</tspan></text>
</g>
    </g>
    <g id="g384">
      <g clip-path="url(#clipPath388)" id="g386"><text id="text392" style="font-variant:normal;font-weight:normal;font-size:11.90400028px;font-family:'Roboto Condensed';-inkscape-font-specification:RobotoCondensed-Regular;writing-mode:lr-tb;fill:#000000;fill-opacity:1;fill-rule:nonzero;stroke:none" transform="matrix(1,0,0,-1,286.22,486.17)"><tspan id="tspan394" y="0" x="0 5.8559761">9%</tspan></text>
</g>
    </g>
    <g id="g396">
      <g clip-path="url(#clipPath400)" id="g398"><text id="text404" style="font-variant:normal;font-weight:bold;font-size:14.25599957px;font-family:'Roboto Condensed';-inkscape-font-specification:RobotoCondensed-Bold;writing-mode:lr-tb;fill:#000000;fill-opacity:1;fill-rule:nonzero;stroke:none" transform="matrix(1,0,0,-1,201.62,525.29)"><tspan id="tspan406" y="0" x="0 8.2399683 16.96464 25.489729 28.768608 37.37923 41.926895 46.517326 50.10984 56.624832 63.453457 66.889153 74.630157 81.458786 88.387199 95.030495 101.98743 106.36401 109.87099 117.92563 121.51814 127.91909 134.69069 139.42368 145.8959 149.53119 154.12161 157.71413 164.22913 170.87242 175.24901 178.89854 185.99803">VNO Office Tenant Diversification</tspan></text>
</g>
    </g>
  </g>
</svg>
