<?xml version="1.0" encoding="UTF-8" standalone="no"?>
<svg xmlns:dc="http://purl.org/dc/elements/1.1/" xmlns:cc="http://creativecommons.org/ns#" xmlns:rdf="http://www.w3.org/1999/02/22-rdf-syntax-ns#" xmlns:svg="http://www.w3.org/2000/svg" xmlns="http://www.w3.org/2000/svg" viewBox="16.1875 14.3875 635.7875 115.5375" height="115.5375" width="635.7875" xml:space="preserve" version="1.1" id="svg2">
  <metadata id="metadata8">
    <rdf:RDF>
      <cc:Work rdf:about="">
        <dc:format>image/svg+xml</dc:format>
        <dc:type rdf:resource="http://purl.org/dc/dcmitype/StillImage"/>
      </cc:Work>
    </rdf:RDF>
  </metadata>
  <defs id="defs6">
    <clipPath id="clipPath32" clipPathUnits="userSpaceOnUse">
      <path style="clip-rule:evenodd" id="path34" d="m 13.44,570 508.49,0 0,14.28 -508.49,0 0,-14.28 z"/>
    </clipPath>
    <clipPath id="clipPath44" clipPathUnits="userSpaceOnUse">
      <path style="clip-rule:evenodd" id="path46" d="m 13.44,570 508.49,0 0,14.28 -508.49,0 0,-14.28 z"/>
    </clipPath>
    <clipPath id="clipPath56" clipPathUnits="userSpaceOnUse">
      <path style="clip-rule:evenodd" id="path58" d="m 13.44,570 508.49,0 0,14.28 -508.49,0 0,-14.28 z"/>
    </clipPath>
    <clipPath id="clipPath68" clipPathUnits="userSpaceOnUse">
      <path style="clip-rule:evenodd" id="path70" d="m 13.44,570 508.49,0 0,14.28 -508.49,0 0,-14.28 z"/>
    </clipPath>
    <clipPath id="clipPath80" clipPathUnits="userSpaceOnUse">
      <path style="clip-rule:evenodd" id="path82" d="m 13.44,554.74 508.49,0 0,14.28 -508.49,0 0,-14.28 z"/>
    </clipPath>
    <clipPath id="clipPath92" clipPathUnits="userSpaceOnUse">
      <path style="clip-rule:evenodd" id="path94" d="m 13.44,554.74 508.49,0 0,14.28 -508.49,0 0,-14.28 z"/>
    </clipPath>
    <clipPath id="clipPath104" clipPathUnits="userSpaceOnUse">
      <path style="clip-rule:evenodd" id="path106" d="m 13.44,554.74 508.49,0 0,14.28 -508.49,0 0,-14.28 z"/>
    </clipPath>
    <clipPath id="clipPath116" clipPathUnits="userSpaceOnUse">
      <path style="clip-rule:evenodd" id="path118" d="m 13.44,554.74 508.49,0 0,14.28 -508.49,0 0,-14.28 z"/>
    </clipPath>
    <clipPath id="clipPath128" clipPathUnits="userSpaceOnUse">
      <path style="clip-rule:evenodd" id="path130" d="m 13.44,539.5 508.49,0 0,14.28 -508.49,0 0,-14.28 z"/>
    </clipPath>
    <clipPath id="clipPath140" clipPathUnits="userSpaceOnUse">
      <path style="clip-rule:evenodd" id="path142" d="m 13.44,539.5 508.49,0 0,14.28 -508.49,0 0,-14.28 z"/>
    </clipPath>
    <clipPath id="clipPath152" clipPathUnits="userSpaceOnUse">
      <path style="clip-rule:evenodd" id="path154" d="m 13.44,539.5 508.49,0 0,14.28 -508.49,0 0,-14.28 z"/>
    </clipPath>
    <clipPath id="clipPath164" clipPathUnits="userSpaceOnUse">
      <path style="clip-rule:evenodd" id="path166" d="m 13.44,539.5 508.49,0 0,14.28 -508.49,0 0,-14.28 z"/>
    </clipPath>
    <clipPath id="clipPath176" clipPathUnits="userSpaceOnUse">
      <path style="clip-rule:evenodd" id="path178" d="m 13.44,524.26 508.49,0 0,14.28 -508.49,0 0,-14.28 z"/>
    </clipPath>
    <clipPath id="clipPath188" clipPathUnits="userSpaceOnUse">
      <path style="clip-rule:evenodd" id="path190" d="m 13.44,524.26 508.49,0 0,14.28 -508.49,0 0,-14.28 z"/>
    </clipPath>
    <clipPath id="clipPath200" clipPathUnits="userSpaceOnUse">
      <path style="clip-rule:evenodd" id="path202" d="m 13.44,524.26 508.49,0 0,14.28 -508.49,0 0,-14.28 z"/>
    </clipPath>
    <clipPath id="clipPath212" clipPathUnits="userSpaceOnUse">
      <path style="clip-rule:evenodd" id="path214" d="m 13.44,524.26 508.49,0 0,14.28 -508.49,0 0,-14.28 z"/>
    </clipPath>
    <clipPath id="clipPath224" clipPathUnits="userSpaceOnUse">
      <path style="clip-rule:evenodd" id="path226" d="m 13.44,509.02 508.49,0 0,14.28 -508.49,0 0,-14.28 z"/>
    </clipPath>
    <clipPath id="clipPath236" clipPathUnits="userSpaceOnUse">
      <path style="clip-rule:evenodd" id="path238" d="m 13.44,509.02 508.49,0 0,14.28 -508.49,0 0,-14.28 z"/>
    </clipPath>
    <clipPath id="clipPath248" clipPathUnits="userSpaceOnUse">
      <path style="clip-rule:evenodd" id="path250" d="m 13.44,509.02 508.49,0 0,14.28 -508.49,0 0,-14.28 z"/>
    </clipPath>
    <clipPath id="clipPath260" clipPathUnits="userSpaceOnUse">
      <path style="clip-rule:evenodd" id="path262" d="m 13.44,509.02 508.49,0 0,14.28 -508.49,0 0,-14.28 z"/>
    </clipPath>
    <clipPath id="clipPath272" clipPathUnits="userSpaceOnUse">
      <path style="clip-rule:evenodd" id="path274" d="m 13.44,584.76 508.01,0 0,14.76 -508.01,0 0,-14.76 z"/>
    </clipPath>
    <clipPath id="clipPath284" clipPathUnits="userSpaceOnUse">
      <path style="clip-rule:evenodd" id="path286" d="m 11.52,506.02 512.47,0 0,95.424 -512.47,0 0,-95.424 z"/>
    </clipPath>
  </defs>
  <g transform="matrix(1.25,0,0,-1.25,0,765)" id="g10">
    <path id="path12" style="fill:#fab2b5;fill-opacity:1;fill-rule:evenodd;stroke:none" d="m 365.93,554.14 104.04,0 0,15.36 -104.04,0 0,-15.36 z"/>
    <path id="path14" style="fill:#f8696b;fill-opacity:1;fill-rule:evenodd;stroke:none" d="m 469.85,554.14 51.72,0 0,15.36 -51.72,0 0,-15.36 z"/>
    <path id="path16" style="fill:#a9dbb7;fill-opacity:1;fill-rule:evenodd;stroke:none" d="m 365.93,538.9 104.04,0 0,15.36 -104.04,0 0,-15.36 z"/>
    <path id="path18" style="fill:#63be7b;fill-opacity:1;fill-rule:evenodd;stroke:none" d="m 469.85,538.9 51.72,0 0,15.36 -51.72,0 0,-15.36 z"/>
    <path id="path20" style="fill:#e0f1e7;fill-opacity:1;fill-rule:evenodd;stroke:none" d="m 365.93,523.66 104.04,0 0,15.36 -104.04,0 0,-15.36 z"/>
    <path id="path22" style="fill:#b1debe;fill-opacity:1;fill-rule:evenodd;stroke:none" d="m 469.85,523.66 51.72,0 0,15.36 -51.72,0 0,-15.36 z"/>
    <path id="path24" style="fill:#fbe6e8;fill-opacity:1;fill-rule:evenodd;stroke:none" d="m 365.93,508.42 104.04,0 0,15.36 -104.04,0 0,-15.36 z"/>
    <path id="path26" style="fill:#fbdcde;fill-opacity:1;fill-rule:evenodd;stroke:none" d="m 469.85,508.42 51.72,0 0,15.36 -51.72,0 0,-15.36 z"/>
    <g id="g28">
      <g clip-path="url(#clipPath32)" id="g30"><text id="text36" style="font-variant:normal;font-weight:normal;font-size:11.03999996px;font-family:'Aptos Narrow';-inkscape-font-specification:'Aptos Narrow';writing-mode:lr-tb;fill:#000000;fill-opacity:1;fill-rule:nonzero;stroke:none" transform="matrix(1,0,0,-1,14.88,573.24)"><tspan id="tspan38" y="0" x="0 5.87328 11.50368 16.880159 21.815041">Phase</tspan></text>
</g>
    </g>
    <g id="g40">
      <g clip-path="url(#clipPath44)" id="g42"><text id="text48" style="font-variant:normal;font-weight:normal;font-size:11.03999996px;font-family:'Aptos Narrow';-inkscape-font-specification:'Aptos Narrow';writing-mode:lr-tb;fill:#000000;fill-opacity:1;fill-rule:nonzero;stroke:none" transform="matrix(1,0,0,-1,169.58,573.24)"><tspan id="tspan50" y="0" x="0 7.9156799 13.3032 18.67968 24.332161 26.83824 32.468639">Meaning</tspan></text>
</g>
    </g>
    <g id="g52">
      <g clip-path="url(#clipPath56)" id="g54"><text id="text60" style="font-variant:normal;font-weight:normal;font-size:11.03999996px;font-family:'Aptos Narrow';-inkscape-font-specification:'Aptos Narrow';writing-mode:lr-tb;fill:#000000;fill-opacity:1;fill-rule:nonzero;stroke:none" transform="matrix(1,0,0,-1,367.85,573.24)"><tspan id="tspan62" y="0" x="0 5.7599602 11.63032">SPE</tspan></text>
</g>
    </g>
    <g id="g64">
      <g clip-path="url(#clipPath68)" id="g66"><text id="text72" style="font-variant:normal;font-weight:normal;font-size:11.03999996px;font-family:'Aptos Narrow';-inkscape-font-specification:'Aptos Narrow';writing-mode:lr-tb;fill:#000000;fill-opacity:1;fill-rule:nonzero;stroke:none" transform="matrix(1,0,0,-1,471.77,573.24)"><tspan id="tspan74" y="0" x="0 7.9156799 13.3032 21.958561 27.46752 30.823681">Memory</tspan></text>
</g>
    </g>
    <g id="g76">
      <g clip-path="url(#clipPath80)" id="g78"><text id="text84" style="font-variant:normal;font-weight:normal;font-size:11.03999996px;font-family:'Aptos Narrow';-inkscape-font-specification:'Aptos Narrow';writing-mode:lr-tb;fill:#000000;fill-opacity:1;fill-rule:nonzero;stroke:none" transform="matrix(1,0,0,-1,14.88,557.98)"><tspan id="tspan86" y="0" x="0 6.94416 12.46416 19.662239 25.292641 28.56048 34.19088 37.535999">Downturn</tspan></text>
</g>
    </g>
    <g id="g88">
      <g clip-path="url(#clipPath92)" id="g90"><text id="text96" style="font-variant:normal;font-weight:normal;font-size:11.03999996px;font-family:'Aptos Narrow';-inkscape-font-specification:'Aptos Narrow';writing-mode:lr-tb;fill:#000000;fill-opacity:1;fill-rule:nonzero;stroke:none" transform="matrix(1,0,0,-1,169.58,557.98)"><tspan id="tspan98" y="0" x="0 6.9883199 11.51472 16.813919 19.430401 24.817921 26.882401 32.479679 34.544159 40.163521 43.03392 45.0984 50.47488 56.116322 61.757759 63.822239 67.034882 70.391037 75.778557 81.408958 87.0504 89.55648 95.186882 100.11072 102.1752 107.79456 113.31456 120.51264 126.14304 133.34113 138.71761 142.12897 147.73727">Cycle &lt; 0, and trending downwards</tspan></text>
</g>
    </g>
    <g id="g100">
      <g clip-path="url(#clipPath104)" id="g102"><text id="text108" style="font-variant:normal;font-weight:normal;font-size:11.03999996px;font-family:'Aptos Narrow';-inkscape-font-specification:'Aptos Narrow';writing-mode:lr-tb;fill:#000000;fill-opacity:1;fill-rule:nonzero;stroke:none" transform="matrix(1,0,0,-1,442.01,557.98)"><tspan id="tspan110" y="0" x="0 3.3782401 8.9755201 11.868 17.4984">-0.6%</tspan></text>
</g>
    </g>
    <g id="g112">
      <g clip-path="url(#clipPath116)" id="g114"><text id="text120" style="font-variant:normal;font-weight:normal;font-size:11.03999996px;font-family:'Aptos Narrow';-inkscape-font-specification:'Aptos Narrow';writing-mode:lr-tb;fill:#000000;fill-opacity:1;fill-rule:nonzero;stroke:none" transform="matrix(1,0,0,-1,493.61,557.98)"><tspan id="tspan122" y="0" x="0 3.3782401 8.9755201 11.868 17.4984">-3.0%</tspan></text>
</g>
    </g>
    <g id="g124">
      <g clip-path="url(#clipPath128)" id="g126"><text id="text132" style="font-variant:normal;font-weight:normal;font-size:11.03999996px;font-family:'Aptos Narrow';-inkscape-font-specification:'Aptos Narrow';writing-mode:lr-tb;fill:#000000;fill-opacity:1;fill-rule:nonzero;stroke:none" transform="matrix(1,0,0,-1,14.88,542.74)"><tspan id="tspan134" y="0" x="0 5.61936 11.02896 14.38512 17.02368 21.59424 26.142719 32.26992 37.6464 42.945599 48.44352 53.01408 58.39056 61.746719">Early_Recovery</tspan></text>
</g>
    </g>
    <g id="g136">
      <g clip-path="url(#clipPath140)" id="g138"><text id="text144" style="font-variant:normal;font-weight:normal;font-size:11.03999996px;font-family:'Aptos Narrow';-inkscape-font-specification:'Aptos Narrow';writing-mode:lr-tb;fill:#000000;fill-opacity:1;fill-rule:nonzero;stroke:none" transform="matrix(1,0,0,-1,169.58,542.74)"><tspan id="tspan146" y="0" x="0 6.9883199 11.51472 16.813919 19.430401 24.817921 26.882401 32.479679 34.544159 40.163521 43.03392 45.0984 50.728802 56.3592 59.627041 61.647362 64.915199 68.249283 73.636803 79.267197 84.908638 87.414719 93.04512 97.968964 100.03344 105.66384 111.29424 118.49232 123.8688 127.28016 132.88847">Cycle &lt; 0, but trending upwards</tspan></text>
</g>
    </g>
    <g id="g148">
      <g clip-path="url(#clipPath152)" id="g150"><text id="text156" style="font-variant:normal;font-weight:normal;font-size:11.03999996px;font-family:'Aptos Narrow';-inkscape-font-specification:'Aptos Narrow';writing-mode:lr-tb;fill:#000000;fill-opacity:1;fill-rule:nonzero;stroke:none" transform="matrix(1,0,0,-1,445.37,542.74)"><tspan id="tspan158" y="0" x="0 5.6304002 8.5008001 14.14224">3.7%</tspan></text>
</g>
    </g>
    <g id="g160">
      <g clip-path="url(#clipPath164)" id="g162"><text id="text168" style="font-variant:normal;font-weight:normal;font-size:11.03999996px;font-family:'Aptos Narrow';-inkscape-font-specification:'Aptos Narrow';writing-mode:lr-tb;fill:#000000;fill-opacity:1;fill-rule:nonzero;stroke:none" transform="matrix(1,0,0,-1,496.97,542.74)"><tspan id="tspan170" y="0" x="0 5.6304002 8.5008001 14.14224">5.4%</tspan></text>
</g>
    </g>
    <g id="g172">
      <g clip-path="url(#clipPath176)" id="g174"><text id="text180" style="font-variant:normal;font-weight:normal;font-size:11.03999996px;font-family:'Aptos Narrow';-inkscape-font-specification:'Aptos Narrow';writing-mode:lr-tb;fill:#000000;fill-opacity:1;fill-rule:nonzero;stroke:none" transform="matrix(1,0,0,-1,14.88,527.5)"><tspan id="tspan182" y="0" x="0 5.61936 10.1016 15.72096 21.097441 26.74992 31.64064 34.17984 39.699841">Expansion</tspan></text>
</g>
    </g>
    <g id="g184">
      <g clip-path="url(#clipPath188)" id="g186"><text id="text192" style="font-variant:normal;font-weight:normal;font-size:11.03999996px;font-family:'Aptos Narrow';-inkscape-font-specification:'Aptos Narrow';writing-mode:lr-tb;fill:#000000;fill-opacity:1;fill-rule:nonzero;stroke:none" transform="matrix(1,0,0,-1,169.58,527.5)"><tspan id="tspan194" y="0" x="0 6.9883199 11.51472 16.813919 19.430401 24.817921 26.882401 32.479679 34.544159 40.163521 43.03392 45.0984 50.47488 56.116322 61.757759 63.822239 67.034882 70.391037 75.778557 81.408958 87.0504 89.55648 95.186882 100.11072 102.1752 107.8056 113.436 120.63408 126.01056 129.42192 135.03024">Cycle &gt; 0, and trending upwards</tspan></text>
</g>
    </g>
    <g id="g196">
      <g clip-path="url(#clipPath200)" id="g198"><text id="text204" style="font-variant:normal;font-weight:normal;font-size:11.03999996px;font-family:'Aptos Narrow';-inkscape-font-specification:'Aptos Narrow';writing-mode:lr-tb;fill:#000000;fill-opacity:1;fill-rule:nonzero;stroke:none" transform="matrix(1,0,0,-1,445.37,527.5)"><tspan id="tspan206" y="0" x="0 5.6304002 8.5008001 14.14224">2.4%</tspan></text>
</g>
    </g>
    <g id="g208">
      <g clip-path="url(#clipPath212)" id="g210"><text id="text216" style="font-variant:normal;font-weight:normal;font-size:11.03999996px;font-family:'Aptos Narrow';-inkscape-font-specification:'Aptos Narrow';writing-mode:lr-tb;fill:#000000;fill-opacity:1;fill-rule:nonzero;stroke:none" transform="matrix(1,0,0,-1,496.97,527.5)"><tspan id="tspan218" y="0" x="0 5.6304002 8.5008001 14.14224">3.5%</tspan></text>
</g>
    </g>
    <g id="g220">
      <g clip-path="url(#clipPath224)" id="g222"><text id="text228" style="font-variant:normal;font-weight:normal;font-size:11.03999996px;font-family:'Aptos Narrow';-inkscape-font-specification:'Aptos Narrow';writing-mode:lr-tb;fill:#000000;fill-opacity:1;fill-rule:nonzero;stroke:none" transform="matrix(1,0,0,-1,14.88,512.26)"><tspan id="tspan230" y="0" x="0 5.87328 11.2608 16.63728 21.5832 26.142719 32.26992 37.778881 40.417439 43.056 48.576 53.146561 58.523041">Peak_Rollover</tspan></text>
</g>
    </g>
    <g id="g232">
      <g clip-path="url(#clipPath236)" id="g234"><text id="text240" style="font-variant:normal;font-weight:normal;font-size:11.03999996px;font-family:'Aptos Narrow';-inkscape-font-specification:'Aptos Narrow';writing-mode:lr-tb;fill:#000000;fill-opacity:1;fill-rule:nonzero;stroke:none" transform="matrix(1,0,0,-1,169.58,512.26)"><tspan id="tspan242" y="0" x="0 6.9883199 11.51472 16.813919 19.430401 24.817921 26.882401 32.479679 34.544159 40.163521 43.03392 45.0984 50.728802 56.3592 59.627041 61.647362 64.915199 68.249283 73.636803 79.267197 84.908638 87.414719 93.04512 97.968964 100.03344 105.6528 111.1728 118.37088 124.00128 131.19936 136.57584 139.9872 145.59552">Cycle &gt; 0, but trending downwards</tspan></text>
</g>
    </g>
    <g id="g244">
      <g clip-path="url(#clipPath248)" id="g246"><text id="text252" style="font-variant:normal;font-weight:normal;font-size:11.03999996px;font-family:'Aptos Narrow';-inkscape-font-specification:'Aptos Narrow';writing-mode:lr-tb;fill:#000000;fill-opacity:1;fill-rule:nonzero;stroke:none" transform="matrix(1,0,0,-1,445.37,512.26)"><tspan id="tspan254" y="0" x="0 5.6304002 8.5008001 14.14224">1.0%</tspan></text>
</g>
    </g>
    <g id="g256">
      <g clip-path="url(#clipPath260)" id="g258"><text id="text264" style="font-variant:normal;font-weight:normal;font-size:11.03999996px;font-family:'Aptos Narrow';-inkscape-font-specification:'Aptos Narrow';writing-mode:lr-tb;fill:#000000;fill-opacity:1;fill-rule:nonzero;stroke:none" transform="matrix(1,0,0,-1,496.97,512.26)"><tspan id="tspan266" y="0" x="0 5.6304002 8.5008001 14.14224">0.7%</tspan></text>
</g>
    </g>
    <g id="g268">
      <g clip-path="url(#clipPath272)" id="g270"><text id="text276" style="font-variant:normal;font-weight:bold;font-size:11.03999996px;font-family:'Aptos Narrow';-inkscape-font-specification:'Aptos Narrow Bold';writing-mode:lr-tb;fill:#000000;fill-opacity:1;fill-rule:nonzero;stroke:none" transform="matrix(1,0,0,-1,152.54,588.48)"><tspan id="tspan278" y="0" x="0 8.1475201 13.89936 19.662239 23.139839 28.902719 31.89456 36.807362 38.849758 44.95488 49.86768 54.957119 57.9048 59.958241 66.195839 71.826241 75.303841 81.066719 84.776161 90.572159 92.570396 95.341438 101.13744 103.13568 109.02 111.79104 115.1472 118.50336 124.13376 127.8432 133.48463 139.24751 142.72511 144.75648 152.90401 158.53439 167.43263 173.1624 176.87184 181.78464 183.82704 189.93216 195.93793 201.94368 203.964 210.9192 215.832 221.35201 224.34384">Monthly Avg. Return in different Memory ASP Cycle</tspan></text>
</g>
    </g>
    <g id="g280">
      <g clip-path="url(#clipPath284)" id="g282">
        <path id="path288" style="fill:none;stroke:#000000;stroke-width:0.14;stroke-linecap:square;stroke-linejoin:round;stroke-miterlimit:10;stroke-dasharray:none;stroke-opacity:1" d="m 13.02,600.42 508.49,0"/>
        <path id="path290" style="fill:#000000;fill-opacity:1;fill-rule:evenodd;stroke:none" d="m 12.96,599.52 508.61,0 0,0.96 -508.61,0 0,-0.96 z"/>
        <path id="path292" style="fill:none;stroke:#000000;stroke-width:0.14;stroke-linecap:square;stroke-linejoin:round;stroke-miterlimit:10;stroke-dasharray:none;stroke-opacity:1" d="m 13.02,585.18 508.49,0"/>
        <path id="path294" style="fill:#000000;fill-opacity:1;fill-rule:evenodd;stroke:none" d="m 12.96,584.28 508.61,0 0,0.96 -508.61,0 0,-0.96 z"/>
        <path id="path296" style="fill:none;stroke:#000000;stroke-width:0.14;stroke-linecap:square;stroke-linejoin:round;stroke-miterlimit:10;stroke-dasharray:none;stroke-opacity:1" d="m 13.02,569.94 508.49,0"/>
        <path id="path298" style="fill:#000000;fill-opacity:1;fill-rule:evenodd;stroke:none" d="m 12.96,569.02 508.61,0 0,0.984 -508.61,0 0,-0.984 z"/>
        <path id="path300" style="fill:none;stroke:#000000;stroke-width:0.14;stroke-linecap:square;stroke-linejoin:round;stroke-miterlimit:10;stroke-dasharray:none;stroke-opacity:1" d="m 13.02,508.96 508.49,0"/>
        <path id="path302" style="fill:#000000;fill-opacity:1;fill-rule:evenodd;stroke:none" d="m 12.96,508.06 508.61,0 0,0.96 -508.61,0 0,-0.96 z"/>
      </g>
    </g>
  </g>
</svg>
