<?xml version="1.0" encoding="UTF-8" standalone="no"?>
<svg xmlns:dc="http://purl.org/dc/elements/1.1/" xmlns:cc="http://creativecommons.org/ns#" xmlns:rdf="http://www.w3.org/1999/02/22-rdf-syntax-ns#" xmlns:svg="http://www.w3.org/2000/svg" xmlns="http://www.w3.org/2000/svg" viewBox="63 327.6 639 334.65" height="334.65" width="639" xml:space="preserve" version="1.1" id="svg2">
  <metadata id="metadata8">
    <rdf:RDF>
      <cc:Work rdf:about="">
        <dc:format>image/svg+xml</dc:format>
        <dc:type rdf:resource="http://purl.org/dc/dcmitype/StillImage"/>
      </cc:Work>
    </rdf:RDF>
  </metadata>
  <defs id="defs6">
    <clipPath id="clipPath16" clipPathUnits="userSpaceOnUse">
      <path style="clip-rule:evenodd" id="path18" d="m 50.4,262.2 511.2,0 0,267.72 -511.2,0 0,-267.72 z"/>
    </clipPath>
    <clipPath id="clipPath26" clipPathUnits="userSpaceOnUse">
      <path style="clip-rule:evenodd" id="path28" d="m 50.4,262.2 511.2,0 0,267.72 -511.2,0 0,-267.72 z"/>
    </clipPath>
    <clipPath id="clipPath40" clipPathUnits="userSpaceOnUse">
      <path style="clip-rule:evenodd" id="path42" d="m 50.4,262.29 511.2,0 0,267.6 -511.2,0 0,-267.6 z"/>
    </clipPath>
    <clipPath id="clipPath50" clipPathUnits="userSpaceOnUse">
      <path style="clip-rule:evenodd" id="path52" d="m 50.4,262.2 511.2,0 0,267.6 -511.2,0 0,-267.6 z"/>
    </clipPath>
    <clipPath id="clipPath62" clipPathUnits="userSpaceOnUse">
      <path style="clip-rule:evenodd" id="path64" d="m 50.4,262.2 511.2,0 0,267.6 -511.2,0 0,-267.6 z"/>
    </clipPath>
    <clipPath id="clipPath74" clipPathUnits="userSpaceOnUse">
      <path style="clip-rule:evenodd" id="path76" d="m 50.4,262.2 511.2,0 0,267.6 -511.2,0 0,-267.6 z"/>
    </clipPath>
    <clipPath id="clipPath86" clipPathUnits="userSpaceOnUse">
      <path style="clip-rule:evenodd" id="path88" d="m 50.4,262.2 511.2,0 0,267.6 -511.2,0 0,-267.6 z"/>
    </clipPath>
    <clipPath id="clipPath98" clipPathUnits="userSpaceOnUse">
      <path style="clip-rule:evenodd" id="path100" d="m 50.4,262.2 511.2,0 0,267.6 -511.2,0 0,-267.6 z"/>
    </clipPath>
    <clipPath id="clipPath110" clipPathUnits="userSpaceOnUse">
      <path style="clip-rule:evenodd" id="path112" d="m 50.4,262.2 511.2,0 0,267.6 -511.2,0 0,-267.6 z"/>
    </clipPath>
    <clipPath id="clipPath122" clipPathUnits="userSpaceOnUse">
      <path style="clip-rule:evenodd" id="path124" d="m 50.4,262.2 511.2,0 0,267.6 -511.2,0 0,-267.6 z"/>
    </clipPath>
    <clipPath id="clipPath134" clipPathUnits="userSpaceOnUse">
      <path style="clip-rule:evenodd" id="path136" d="m 50.4,262.2 511.2,0 0,267.6 -511.2,0 0,-267.6 z"/>
    </clipPath>
    <clipPath id="clipPath146" clipPathUnits="userSpaceOnUse">
      <path style="clip-rule:evenodd" id="path148" d="m 50.4,262.2 511.2,0 0,267.6 -511.2,0 0,-267.6 z"/>
    </clipPath>
    <clipPath id="clipPath158" clipPathUnits="userSpaceOnUse">
      <path style="clip-rule:evenodd" id="path160" d="m 50.4,262.2 511.2,0 0,267.6 -511.2,0 0,-267.6 z"/>
    </clipPath>
    <clipPath id="clipPath170" clipPathUnits="userSpaceOnUse">
      <path style="clip-rule:evenodd" id="path172" d="m 50.4,262.2 511.2,0 0,267.6 -511.2,0 0,-267.6 z"/>
    </clipPath>
    <clipPath id="clipPath182" clipPathUnits="userSpaceOnUse">
      <path style="clip-rule:evenodd" id="path184" d="m 50.4,262.2 511.2,0 0,267.6 -511.2,0 0,-267.6 z"/>
    </clipPath>
    <clipPath id="clipPath194" clipPathUnits="userSpaceOnUse">
      <path style="clip-rule:evenodd" id="path196" d="m 50.4,262.2 511.2,0 0,267.6 -511.2,0 0,-267.6 z"/>
    </clipPath>
    <clipPath id="clipPath206" clipPathUnits="userSpaceOnUse">
      <path style="clip-rule:evenodd" id="path208" d="m 50.4,262.2 511.2,0 0,267.6 -511.2,0 0,-267.6 z"/>
    </clipPath>
    <clipPath id="clipPath218" clipPathUnits="userSpaceOnUse">
      <path style="clip-rule:evenodd" id="path220" d="m 50.4,262.2 511.2,0 0,267.6 -511.2,0 0,-267.6 z"/>
    </clipPath>
    <clipPath id="clipPath230" clipPathUnits="userSpaceOnUse">
      <path style="clip-rule:evenodd" id="path232" d="m 50.4,262.2 511.2,0 0,267.6 -511.2,0 0,-267.6 z"/>
    </clipPath>
    <clipPath id="clipPath242" clipPathUnits="userSpaceOnUse">
      <path style="clip-rule:evenodd" id="path244" d="m 50.4,262.2 511.2,0 0,267.6 -511.2,0 0,-267.6 z"/>
    </clipPath>
    <clipPath id="clipPath254" clipPathUnits="userSpaceOnUse">
      <path style="clip-rule:evenodd" id="path256" d="m 50.4,262.2 511.2,0 0,267.6 -511.2,0 0,-267.6 z"/>
    </clipPath>
    <clipPath id="clipPath266" clipPathUnits="userSpaceOnUse">
      <path style="clip-rule:evenodd" id="path268" d="m 50.4,262.2 511.2,0 0,267.6 -511.2,0 0,-267.6 z"/>
    </clipPath>
    <clipPath id="clipPath278" clipPathUnits="userSpaceOnUse">
      <path style="clip-rule:evenodd" id="path280" d="m 50.4,262.2 511.2,0 0,267.6 -511.2,0 0,-267.6 z"/>
    </clipPath>
    <clipPath id="clipPath290" clipPathUnits="userSpaceOnUse">
      <path style="clip-rule:evenodd" id="path292" d="m 50.4,262.2 511.2,0 0,267.6 -511.2,0 0,-267.6 z"/>
    </clipPath>
    <clipPath id="clipPath302" clipPathUnits="userSpaceOnUse">
      <path style="clip-rule:evenodd" id="path304" d="m 50.4,262.2 511.2,0 0,267.6 -511.2,0 0,-267.6 z"/>
    </clipPath>
    <clipPath id="clipPath314" clipPathUnits="userSpaceOnUse">
      <path style="clip-rule:evenodd" id="path316" d="m 50.4,262.2 511.2,0 0,267.6 -511.2,0 0,-267.6 z"/>
    </clipPath>
    <clipPath id="clipPath326" clipPathUnits="userSpaceOnUse">
      <path style="clip-rule:evenodd" id="path328" d="m 50.4,262.2 511.2,0 0,267.6 -511.2,0 0,-267.6 z"/>
    </clipPath>
    <clipPath id="clipPath338" clipPathUnits="userSpaceOnUse">
      <path style="clip-rule:evenodd" id="path340" d="m 50.4,262.2 511.2,0 0,267.6 -511.2,0 0,-267.6 z"/>
    </clipPath>
    <clipPath id="clipPath350" clipPathUnits="userSpaceOnUse">
      <path style="clip-rule:evenodd" id="path352" d="m 50.4,262.2 511.2,0 0,267.6 -511.2,0 0,-267.6 z"/>
    </clipPath>
    <clipPath id="clipPath366" clipPathUnits="userSpaceOnUse">
      <path style="clip-rule:evenodd" id="path368" d="m 50.4,262.2 511.2,0 0,267.6 -511.2,0 0,-267.6 z"/>
    </clipPath>
    <clipPath id="clipPath380" clipPathUnits="userSpaceOnUse">
      <path style="clip-rule:evenodd" id="path382" d="m 50.4,262.2 511.2,0 0,267.6 -511.2,0 0,-267.6 z"/>
    </clipPath>
  </defs>
  <g transform="matrix(1.25,0,0,-1.25,0,990)" id="g10">
    <g id="g12">
      <g clip-path="url(#clipPath16)" id="g14">
        <path id="path20" style="fill:none;stroke:#000000;stroke-width:0.14;stroke-linecap:butt;stroke-linejoin:miter;stroke-miterlimit:10;stroke-dasharray:none;stroke-opacity:0" d="m 50.425,262.27 511.2,0 0,267.61 -511.2,0 0,-267.61 z"/>
      </g>
    </g>
    <g id="g22">
      <g clip-path="url(#clipPath26)" id="g24">
        <path id="path30" style="fill:#ffffff;fill-opacity:1;fill-rule:evenodd;stroke:none" d="m 50.425,262.27 511.2,0 0,267.61 -511.2,0 0,-267.61 z"/>
      </g>
    </g>
    <path id="path32" style="fill:#005aa4;fill-opacity:1;fill-rule:nonzero;stroke:none" d="m 123.49,378.81 26.19,0 0,-68 -26.19,0 0,68 z m 91.58,13.02 26.04,0 0,-81.02 -26.04,0 0,81.02 z m 91.44,31.4 26.18,0 0,-112.42 -26.18,0 0,112.42 z m 91.57,57.02 26.18,0 0,-169.44 -26.18,0 0,169.44 z m 91.57,-18.37 26.19,0 0,-151.07 -26.19,0 0,151.07 z"/>
    <path id="path34" style="fill:#eadfbc;fill-opacity:1;fill-rule:nonzero;stroke:none" d="m 149.68,334.26 26.04,0 0,-23.45 -26.04,0 0,23.45 z m 91.43,-0.14 26.19,0 0,-23.31 -26.19,0 0,23.31 z m 91.58,44.83 26.18,0 0,-68.14 -26.18,0 0,68.14 z m 91.57,1.5 26.19,0 0,-69.64 -26.19,0 0,69.64 z m 91.58,-7.54 26.18,0 0,-62.1 -26.18,0 0,62.1 z"/>
    <g id="g36">
      <g clip-path="url(#clipPath40)" id="g38">
        <path id="path44" style="fill:none;stroke:#808080;stroke-width:1.42799997;stroke-linecap:round;stroke-linejoin:round;stroke-miterlimit:10;stroke-dasharray:none;stroke-opacity:1" d="m 103.83,310.81 457.8,0"/>
      </g>
    </g>
    <g id="g46">
      <g clip-path="url(#clipPath50)" id="g48"><text id="text54" style="font-variant:normal;font-weight:normal;font-size:10.27200031px;font-family:'Roboto Condensed';-inkscape-font-specification:RobotoCondensed-Regular;writing-mode:lr-tb;fill:#000000;fill-opacity:1;fill-rule:nonzero;stroke:none" transform="matrix(1,0,0,-1,123.96,386.52)"><tspan id="tspan56" y="0" x="0 5.074368 10.148736 15.25392 20.318016">$36bn</tspan></text>
</g>
    </g>
    <g id="g58">
      <g clip-path="url(#clipPath62)" id="g60"><text id="text66" style="font-variant:normal;font-weight:normal;font-size:10.29599953px;font-family:'Roboto Condensed';-inkscape-font-specification:RobotoCondensed-Regular;writing-mode:lr-tb;fill:#000000;fill-opacity:1;fill-rule:nonzero;stroke:none" transform="matrix(1,0,0,-1,215.54,399.46)"><tspan id="tspan68" y="0" x="0 5.0862241 10.131264 15.217488 20.262527">$43bn</tspan></text>
</g>
    </g>
    <g id="g70">
      <g clip-path="url(#clipPath74)" id="g72"><text id="text78" style="font-variant:normal;font-weight:normal;font-size:10.29599953px;font-family:'Roboto Condensed';-inkscape-font-specification:RobotoCondensed-Regular;writing-mode:lr-tb;fill:#000000;fill-opacity:1;fill-rule:nonzero;stroke:none" transform="matrix(1,0,0,-1,307.1,430.99)"><tspan id="tspan80" y="0" x="0 5.0862241 10.172448 15.258672 20.3346">$60bn</tspan></text>
</g>
    </g>
    <g id="g82">
      <g clip-path="url(#clipPath86)" id="g84"><text id="text90" style="font-variant:normal;font-weight:normal;font-size:10.27200031px;font-family:'Roboto Condensed';-inkscape-font-specification:RobotoCondensed-Regular;writing-mode:lr-tb;fill:#000000;fill-opacity:1;fill-rule:nonzero;stroke:none" transform="matrix(1,0,0,-1,398.69,487.99)"><tspan id="tspan92" y="0" x="0 5.074368 10.148736 15.192288 20.256384">$90bn</tspan></text>
</g>
    </g>
    <g id="g94">
      <g clip-path="url(#clipPath98)" id="g96"><text id="text102" style="font-variant:normal;font-weight:normal;font-size:10.27200031px;font-family:'Roboto Condensed';-inkscape-font-specification:RobotoCondensed-Regular;writing-mode:lr-tb;fill:#000000;fill-opacity:1;fill-rule:nonzero;stroke:none" transform="matrix(1,0,0,-1,490.27,469.56)"><tspan id="tspan104" y="0" x="0 5.074368 10.148736 15.192288 20.256384">$81bn</tspan></text>
</g>
    </g>
    <g id="g106">
      <g clip-path="url(#clipPath110)" id="g108"><text id="text114" style="font-variant:normal;font-weight:normal;font-size:10.27200031px;font-family:'Roboto Condensed';-inkscape-font-specification:RobotoCondensed-Regular;writing-mode:lr-tb;fill:#000000;fill-opacity:1;fill-rule:nonzero;stroke:none" transform="matrix(1,0,0,-1,150.12,341.93)"><tspan id="tspan116" y="0" x="0 5.074368 10.148736 15.25392 20.318016">$13bn</tspan></text>
</g>
    </g>
    <g id="g118">
      <g clip-path="url(#clipPath122)" id="g120"><text id="text126" style="font-variant:normal;font-weight:normal;font-size:10.27200031px;font-family:'Roboto Condensed';-inkscape-font-specification:RobotoCondensed-Regular;writing-mode:lr-tb;fill:#000000;fill-opacity:1;fill-rule:nonzero;stroke:none" transform="matrix(1,0,0,-1,241.7,341.78)"><tspan id="tspan128" y="0" x="0 5.074368 10.148736 15.192288 20.256384">$12bn</tspan></text>
</g>
    </g>
    <g id="g130">
      <g clip-path="url(#clipPath134)" id="g132"><text id="text138" style="font-variant:normal;font-weight:normal;font-size:10.29599953px;font-family:'Roboto Condensed';-inkscape-font-specification:RobotoCondensed-Regular;writing-mode:lr-tb;fill:#000000;fill-opacity:1;fill-rule:nonzero;stroke:none" transform="matrix(1,0,0,-1,333.29,386.69)"><tspan id="tspan140" y="0" x="0 5.0862241 10.131264 15.217488 20.262527">$36bn</tspan></text>
</g>
    </g>
    <g id="g142">
      <g clip-path="url(#clipPath146)" id="g144"><text id="text150" style="font-variant:normal;font-weight:normal;font-size:10.29599953px;font-family:'Roboto Condensed';-inkscape-font-specification:RobotoCondensed-Regular;writing-mode:lr-tb;fill:#000000;fill-opacity:1;fill-rule:nonzero;stroke:none" transform="matrix(1,0,0,-1,427.3,388.1)"><tspan id="tspan152" y="0" x="0 5.0862241 10.172448 15.258672 20.3346">$37bn</tspan></text>
</g>
    </g>
    <g id="g154">
      <g clip-path="url(#clipPath158)" id="g156"><text id="text162" style="font-variant:normal;font-weight:normal;font-size:10.27200031px;font-family:'Roboto Condensed';-inkscape-font-specification:RobotoCondensed-Regular;writing-mode:lr-tb;fill:#000000;fill-opacity:1;fill-rule:nonzero;stroke:none" transform="matrix(1,0,0,-1,516.43,380.59)"><tspan id="tspan164" y="0" x="0 5.074368 10.148736 15.192288 20.256384">$33bn</tspan></text>
</g>
    </g>
    <g id="g166">
      <g clip-path="url(#clipPath170)" id="g168"><text id="text174" style="font-variant:normal;font-weight:normal;font-size:11.3760004px;font-family:'Roboto Condensed';-inkscape-font-specification:RobotoCondensed-Regular;writing-mode:lr-tb;fill:#000000;fill-opacity:1;fill-rule:nonzero;stroke:none" transform="matrix(1,0,0,-1,82.104,307.34)"><tspan id="tspan176" y="0" x="0 5.616004">$0</tspan></text>
</g>
    </g>
    <g id="g178">
      <g clip-path="url(#clipPath182)" id="g180"><text id="text186" style="font-variant:normal;font-weight:normal;font-size:11.3760004px;font-family:'Roboto Condensed';-inkscape-font-specification:RobotoCondensed-Regular;writing-mode:lr-tb;fill:#000000;fill-opacity:1;fill-rule:nonzero;stroke:none" transform="matrix(1,0,0,-1,57.312,326.09)"><tspan id="tspan188" y="0" x="0 5.6197438 11.239488 16.859232 19.16856 24.788303 30.408049">$10,000</tspan></text>
</g>
    </g>
    <g id="g190">
      <g clip-path="url(#clipPath194)" id="g192"><text id="text198" style="font-variant:normal;font-weight:normal;font-size:11.3760004px;font-family:'Roboto Condensed';-inkscape-font-specification:RobotoCondensed-Regular;writing-mode:lr-tb;fill:#000000;fill-opacity:1;fill-rule:nonzero;stroke:none" transform="matrix(1,0,0,-1,57.312,344.83)"><tspan id="tspan200" y="0" x="0 5.6197438 11.239488 16.859232 19.16856 24.788303 30.408049">$20,000</tspan></text>
</g>
    </g>
    <g id="g202">
      <g clip-path="url(#clipPath206)" id="g204"><text id="text210" style="font-variant:normal;font-weight:normal;font-size:11.39999962px;font-family:'Roboto Condensed';-inkscape-font-specification:RobotoCondensed-Regular;writing-mode:lr-tb;fill:#000000;fill-opacity:1;fill-rule:nonzero;stroke:none" transform="matrix(1,0,0,-1,57.312,363.6)"><tspan id="tspan212" y="0" x="0 5.6315999 11.2632 16.849199 19.163401 24.795 30.4266">$30,000</tspan></text>
</g>
    </g>
    <g id="g214">
      <g clip-path="url(#clipPath218)" id="g216"><text id="text222" style="font-variant:normal;font-weight:normal;font-size:11.3760004px;font-family:'Roboto Condensed';-inkscape-font-specification:RobotoCondensed-Regular;writing-mode:lr-tb;fill:#000000;fill-opacity:1;fill-rule:nonzero;stroke:none" transform="matrix(1,0,0,-1,57.312,382.34)"><tspan id="tspan224" y="0" x="0 5.6197438 11.239488 16.859232 19.16856 24.788303 30.408049">$40,000</tspan></text>
</g>
    </g>
    <g id="g226">
      <g clip-path="url(#clipPath230)" id="g228"><text id="text234" style="font-variant:normal;font-weight:normal;font-size:11.3760004px;font-family:'Roboto Condensed';-inkscape-font-specification:RobotoCondensed-Regular;writing-mode:lr-tb;fill:#000000;fill-opacity:1;fill-rule:nonzero;stroke:none" transform="matrix(1,0,0,-1,57.312,401.09)"><tspan id="tspan236" y="0" x="0 5.6197438 11.239488 16.859232 19.16856 24.788303 30.408049">$50,000</tspan></text>
</g>
    </g>
    <g id="g238">
      <g clip-path="url(#clipPath242)" id="g240"><text id="text246" style="font-variant:normal;font-weight:normal;font-size:11.39999962px;font-family:'Roboto Condensed';-inkscape-font-specification:RobotoCondensed-Regular;writing-mode:lr-tb;fill:#000000;fill-opacity:1;fill-rule:nonzero;stroke:none" transform="matrix(1,0,0,-1,57.312,419.86)"><tspan id="tspan248" y="0" x="0 5.6315999 11.2632 16.849199 19.163401 24.795 30.4266">$60,000</tspan></text>
</g>
    </g>
    <g id="g250">
      <g clip-path="url(#clipPath254)" id="g252"><text id="text258" style="font-variant:normal;font-weight:normal;font-size:11.3760004px;font-family:'Roboto Condensed';-inkscape-font-specification:RobotoCondensed-Regular;writing-mode:lr-tb;fill:#000000;fill-opacity:1;fill-rule:nonzero;stroke:none" transform="matrix(1,0,0,-1,57.312,438.6)"><tspan id="tspan260" y="0" x="0 5.6197438 11.239488 16.859232 19.16856 24.788303 30.408049">$70,000</tspan></text>
</g>
    </g>
    <g id="g262">
      <g clip-path="url(#clipPath266)" id="g264"><text id="text270" style="font-variant:normal;font-weight:normal;font-size:11.3760004px;font-family:'Roboto Condensed';-inkscape-font-specification:RobotoCondensed-Regular;writing-mode:lr-tb;fill:#000000;fill-opacity:1;fill-rule:nonzero;stroke:none" transform="matrix(1,0,0,-1,57.312,457.34)"><tspan id="tspan272" y="0" x="0 5.6197438 11.239488 16.859232 19.16856 24.788303 30.408049">$80,000</tspan></text>
</g>
    </g>
    <g id="g274">
      <g clip-path="url(#clipPath278)" id="g276"><text id="text282" style="font-variant:normal;font-weight:normal;font-size:11.39999962px;font-family:'Roboto Condensed';-inkscape-font-specification:RobotoCondensed-Regular;writing-mode:lr-tb;fill:#000000;fill-opacity:1;fill-rule:nonzero;stroke:none" transform="matrix(1,0,0,-1,57.312,476.11)"><tspan id="tspan284" y="0" x="0 5.6315999 11.2632 16.849199 19.163401 24.795 30.4266">$90,000</tspan></text>
</g>
    </g>
    <g id="g286">
      <g clip-path="url(#clipPath290)" id="g288"><text id="text294" style="font-variant:normal;font-weight:normal;font-size:11.3760004px;font-family:'Roboto Condensed';-inkscape-font-specification:RobotoCondensed-Regular;writing-mode:lr-tb;fill:#000000;fill-opacity:1;fill-rule:nonzero;stroke:none" transform="matrix(1,0,0,-1,136.66,292.68)"><tspan id="tspan296" y="0" x="0 8.6230078 14.515776 19.976255">MSFT</tspan></text>
</g>
    </g>
    <g id="g298">
      <g clip-path="url(#clipPath302)" id="g300"><text id="text306" style="font-variant:normal;font-weight:normal;font-size:11.3760004px;font-family:'Roboto Condensed';-inkscape-font-specification:RobotoCondensed-Regular;writing-mode:lr-tb;fill:#000000;fill-opacity:1;fill-rule:nonzero;stroke:none" transform="matrix(1,0,0,-1,228.79,292.68)"><tspan id="tspan308" y="0" x="0 6.8369761 12.900384 19.487087">ORCL</tspan></text>
</g>
    </g>
    <g id="g310">
      <g clip-path="url(#clipPath314)" id="g312"><text id="text318" style="font-variant:normal;font-weight:normal;font-size:11.3760004px;font-family:'Roboto Condensed';-inkscape-font-specification:RobotoCondensed-Regular;writing-mode:lr-tb;fill:#000000;fill-opacity:1;fill-rule:nonzero;stroke:none" transform="matrix(1,0,0,-1,319.37,292.68)"><tspan id="tspan320" y="0" x="0 8.6230078 14.27688 20.294785">META</tspan></text>
</g>
    </g>
    <g id="g322">
      <g clip-path="url(#clipPath326)" id="g324"><text id="text330" style="font-variant:normal;font-weight:normal;font-size:11.3760004px;font-family:'Roboto Condensed';-inkscape-font-specification:RobotoCondensed-Regular;writing-mode:lr-tb;fill:#000000;fill-opacity:1;fill-rule:nonzero;stroke:none" transform="matrix(1,0,0,-1,408.05,292.68)"><tspan id="tspan332" y="0" x="0 6.7232161 13.560192 20.397167 27.234144">GOOGL</tspan></text>
</g>
    </g>
    <g id="g334">
      <g clip-path="url(#clipPath338)" id="g336"><text id="text342" style="font-variant:normal;font-weight:normal;font-size:11.3760004px;font-family:'Roboto Condensed';-inkscape-font-specification:RobotoCondensed-Regular;writing-mode:lr-tb;fill:#000000;fill-opacity:1;fill-rule:nonzero;stroke:none" transform="matrix(1,0,0,-1,501.82,292.68)"><tspan id="tspan344" y="0" x="0 6.5525761 15.209712 21.227615">AMZN</tspan></text>
</g>
    </g>
    <g id="g346">
      <g clip-path="url(#clipPath350)" id="g348"><text id="text354" style="font-variant:normal;font-weight:bold;font-size:12.6239996px;font-family:'Roboto Condensed';-inkscape-font-specification:RobotoCondensed-Bold;writing-mode:lr-tb;fill:#000000;fill-opacity:1;fill-rule:nonzero;stroke:none" transform="matrix(1,0,0,-1,209.74,509.35)"><tspan id="tspan356" y="0" x="0 7.6627679 13.873776 19.920671 22.66008 29.502289 35.549183 41.495087 45.736752 48.64027 55.772831 61.983841 67.866623 74.077629 80.364388 86.411278 89.314796 92.496048 98.656563 101.6737 108.8315 114.73953 121.03891 127.08581 132.82973 135.59439 141.26256 146.99385 149.89737 156.89107 162.93797 168.60614 174.65305 180.81355 187.02457">One Year Change in Capex vs Revenue</tspan></text>
</g>
    </g>
    <path id="path358" style="fill:#ffffff;fill-opacity:1;fill-rule:evenodd;stroke:none" d="m 170.69,263.51 333.99,0 0,22.152 -333.99,0 0,-22.152 z"/>
    <path id="path360" style="fill:#005aa4;fill-opacity:1;fill-rule:evenodd;stroke:none" d="m 203.4,271.5 6.1689,0 0,6.1689 -6.1689,0 0,-6.1689 z"/>
    <g id="g362">
      <g clip-path="url(#clipPath366)" id="g364"><text id="text370" style="font-variant:normal;font-weight:normal;font-size:11.3760004px;font-family:'Roboto Condensed';-inkscape-font-specification:RobotoCondensed-Regular;writing-mode:lr-tb;fill:#000000;fill-opacity:1;fill-rule:nonzero;stroke:none" transform="matrix(1,0,0,-1,212.26,271.1)"><tspan id="tspan372" y="0" x="0 5.6197438 8.2248478 14.288256 19.612225 25.129583 28.587889 31.192991 37.768318 43.262928 48.746159 54.252144 59.860512 65.218605 67.823715 70.428818 76.082687 78.68779 85.137985 90.643967 96.252335 101.62181">1 Year Change in Capex</tspan></text>
</g>
    </g>
    <path id="path374" style="fill:#eadfbc;fill-opacity:1;fill-rule:evenodd;stroke:none" d="m 350.96,271.5 6.1689,0 0,6.1689 -6.1689,0 0,-6.1689 z"/>
    <g id="g376">
      <g clip-path="url(#clipPath380)" id="g378"><text id="text384" style="font-variant:normal;font-weight:normal;font-size:11.3760004px;font-family:'Roboto Condensed';-inkscape-font-specification:RobotoCondensed-Regular;writing-mode:lr-tb;fill:#000000;fill-opacity:1;fill-rule:nonzero;stroke:none" transform="matrix(1,0,0,-1,359.86,271.1)"><tspan id="tspan386" y="0" x="0 5.6197438 8.2248478 14.22 19.543968 24.993073 28.451376 31.022352 37.586304 43.080914 48.530018 54.035999 59.644367 64.968338 67.539314 70.144417 75.741409 78.346512 84.387169 89.711136 94.580063 99.90403 105.41002 110.90462">1 Year Change in Revenue</tspan></text>
</g>
    </g>
  </g>
</svg>
