<?xml version="1.0" encoding="UTF-8" standalone="no"?>
<svg xmlns:dc="http://purl.org/dc/elements/1.1/" xmlns:cc="http://creativecommons.org/ns#" xmlns:rdf="http://www.w3.org/1999/02/22-rdf-syntax-ns#" xmlns:svg="http://www.w3.org/2000/svg" xmlns="http://www.w3.org/2000/svg" viewBox="66.3575 377.575 650.645 406.375" height="406.375" width="650.645" xml:space="preserve" version="1.1" id="svg2">
  <metadata id="metadata8">
    <rdf:RDF>
      <cc:Work rdf:about="">
        <dc:format>image/svg+xml</dc:format>
        <dc:type rdf:resource="http://purl.org/dc/dcmitype/StillImage"/>
      </cc:Work>
    </rdf:RDF>
  </metadata>
  <defs id="defs6">
    <clipPath id="clipPath16" clipPathUnits="userSpaceOnUse">
      <path style="clip-rule:evenodd" id="path18" d="m 53.052,259.07 520.55,0 0,325.26 -520.55,0 0,-325.26 z"/>
    </clipPath>
    <clipPath id="clipPath26" clipPathUnits="userSpaceOnUse">
      <path style="clip-rule:evenodd" id="path28" d="m 53.053,259.07 520.55,0 0,325.26 -520.55,0 0,-325.26 z"/>
    </clipPath>
    <clipPath id="clipPath82" clipPathUnits="userSpaceOnUse">
      <path style="clip-rule:evenodd" id="path84" d="m 53.179,259.07 520.42,0 0,325.14 -520.42,0 0,-325.14 z"/>
    </clipPath>
    <clipPath id="clipPath94" clipPathUnits="userSpaceOnUse">
      <path style="clip-rule:evenodd" id="path96" d="m 53.179,259.07 520.42,0 0,325.14 -520.42,0 0,-325.14 z"/>
    </clipPath>
    <clipPath id="clipPath106" clipPathUnits="userSpaceOnUse">
      <path style="clip-rule:evenodd" id="path108" d="m 53.179,259.07 520.42,0 0,325.14 -520.42,0 0,-325.14 z"/>
    </clipPath>
    <clipPath id="clipPath118" clipPathUnits="userSpaceOnUse">
      <path style="clip-rule:evenodd" id="path120" d="m 53.179,259.07 520.42,0 0,325.14 -520.42,0 0,-325.14 z"/>
    </clipPath>
    <clipPath id="clipPath130" clipPathUnits="userSpaceOnUse">
      <path style="clip-rule:evenodd" id="path132" d="m 53.179,259.07 520.42,0 0,325.14 -520.42,0 0,-325.14 z"/>
    </clipPath>
    <clipPath id="clipPath142" clipPathUnits="userSpaceOnUse">
      <path style="clip-rule:evenodd" id="path144" d="m 53.179,259.07 520.42,0 0,325.14 -520.42,0 0,-325.14 z"/>
    </clipPath>
    <clipPath id="clipPath154" clipPathUnits="userSpaceOnUse">
      <path style="clip-rule:evenodd" id="path156" d="m 53.179,259.07 520.42,0 0,325.14 -520.42,0 0,-325.14 z"/>
    </clipPath>
    <clipPath id="clipPath166" clipPathUnits="userSpaceOnUse">
      <path style="clip-rule:evenodd" id="path168" d="m 53.179,259.07 520.42,0 0,325.14 -520.42,0 0,-325.14 z"/>
    </clipPath>
    <clipPath id="clipPath178" clipPathUnits="userSpaceOnUse">
      <path style="clip-rule:evenodd" id="path180" d="m 53.179,259.07 520.42,0 0,325.14 -520.42,0 0,-325.14 z"/>
    </clipPath>
    <clipPath id="clipPath190" clipPathUnits="userSpaceOnUse">
      <path style="clip-rule:evenodd" id="path192" d="m 53.179,259.07 520.42,0 0,325.14 -520.42,0 0,-325.14 z"/>
    </clipPath>
    <clipPath id="clipPath202" clipPathUnits="userSpaceOnUse">
      <path style="clip-rule:evenodd" id="path204" d="m 53.179,259.07 520.42,0 0,325.14 -520.42,0 0,-325.14 z"/>
    </clipPath>
    <clipPath id="clipPath214" clipPathUnits="userSpaceOnUse">
      <path style="clip-rule:evenodd" id="path216" d="m 53.179,259.07 520.42,0 0,325.14 -520.42,0 0,-325.14 z"/>
    </clipPath>
    <clipPath id="clipPath226" clipPathUnits="userSpaceOnUse">
      <path style="clip-rule:evenodd" id="path228" d="m 53.179,259.07 520.42,0 0,325.14 -520.42,0 0,-325.14 z"/>
    </clipPath>
    <clipPath id="clipPath238" clipPathUnits="userSpaceOnUse">
      <path style="clip-rule:evenodd" id="path240" d="m 53.179,259.07 520.42,0 0,325.14 -520.42,0 0,-325.14 z"/>
    </clipPath>
    <clipPath id="clipPath250" clipPathUnits="userSpaceOnUse">
      <path style="clip-rule:evenodd" id="path252" d="m 53.179,259.07 520.42,0 0,325.14 -520.42,0 0,-325.14 z"/>
    </clipPath>
    <clipPath id="clipPath262" clipPathUnits="userSpaceOnUse">
      <path style="clip-rule:evenodd" id="path264" d="m 53.179,259.07 520.42,0 0,325.14 -520.42,0 0,-325.14 z"/>
    </clipPath>
    <clipPath id="clipPath274" clipPathUnits="userSpaceOnUse">
      <path style="clip-rule:evenodd" id="path276" d="m 53.179,259.07 520.42,0 0,325.14 -520.42,0 0,-325.14 z"/>
    </clipPath>
    <clipPath id="clipPath286" clipPathUnits="userSpaceOnUse">
      <path style="clip-rule:evenodd" id="path288" d="m 53.179,259.07 520.42,0 0,325.14 -520.42,0 0,-325.14 z"/>
    </clipPath>
    <clipPath id="clipPath298" clipPathUnits="userSpaceOnUse">
      <path style="clip-rule:evenodd" id="path300" d="m 53.179,259.07 520.42,0 0,325.14 -520.42,0 0,-325.14 z"/>
    </clipPath>
    <clipPath id="clipPath310" clipPathUnits="userSpaceOnUse">
      <path style="clip-rule:evenodd" id="path312" d="m 53.179,259.07 520.42,0 0,325.14 -520.42,0 0,-325.14 z"/>
    </clipPath>
    <clipPath id="clipPath322" clipPathUnits="userSpaceOnUse">
      <path style="clip-rule:evenodd" id="path324" d="m 53.179,259.07 520.42,0 0,325.14 -520.42,0 0,-325.14 z"/>
    </clipPath>
    <clipPath id="clipPath334" clipPathUnits="userSpaceOnUse">
      <path style="clip-rule:evenodd" id="path336" d="m 53.179,259.07 520.42,0 0,325.14 -520.42,0 0,-325.14 z"/>
    </clipPath>
    <clipPath id="clipPath346" clipPathUnits="userSpaceOnUse">
      <path style="clip-rule:evenodd" id="path348" d="m 53.179,259.07 520.42,0 0,325.14 -520.42,0 0,-325.14 z"/>
    </clipPath>
    <clipPath id="clipPath358" clipPathUnits="userSpaceOnUse">
      <path style="clip-rule:evenodd" id="path360" d="m 53.179,259.07 520.42,0 0,325.14 -520.42,0 0,-325.14 z"/>
    </clipPath>
    <clipPath id="clipPath370" clipPathUnits="userSpaceOnUse">
      <path style="clip-rule:evenodd" id="path372" d="m 53.179,259.07 520.42,0 0,325.14 -520.42,0 0,-325.14 z"/>
    </clipPath>
    <clipPath id="clipPath382" clipPathUnits="userSpaceOnUse">
      <path style="clip-rule:evenodd" id="path384" d="m 53.179,259.07 520.42,0 0,325.14 -520.42,0 0,-325.14 z"/>
    </clipPath>
    <clipPath id="clipPath394" clipPathUnits="userSpaceOnUse">
      <path style="clip-rule:evenodd" id="path396" d="m 53.179,259.07 520.42,0 0,325.14 -520.42,0 0,-325.14 z"/>
    </clipPath>
    <clipPath id="clipPath406" clipPathUnits="userSpaceOnUse">
      <path style="clip-rule:evenodd" id="path408" d="m 53.179,259.07 520.42,0 0,325.14 -520.42,0 0,-325.14 z"/>
    </clipPath>
    <clipPath id="clipPath418" clipPathUnits="userSpaceOnUse">
      <path style="clip-rule:evenodd" id="path420" d="m 53.179,259.07 520.42,0 0,325.14 -520.42,0 0,-325.14 z"/>
    </clipPath>
    <clipPath id="clipPath430" clipPathUnits="userSpaceOnUse">
      <path style="clip-rule:evenodd" id="path432" d="m 53.179,259.07 520.42,0 0,325.14 -520.42,0 0,-325.14 z"/>
    </clipPath>
    <clipPath id="clipPath444" clipPathUnits="userSpaceOnUse">
      <path style="clip-rule:evenodd" id="path446" d="m 53.179,259.07 520.42,0 0,325.14 -520.42,0 0,-325.14 z"/>
    </clipPath>
    <clipPath id="clipPath458" clipPathUnits="userSpaceOnUse">
      <path style="clip-rule:evenodd" id="path460" d="m 53.179,259.07 520.42,0 0,325.14 -520.42,0 0,-325.14 z"/>
    </clipPath>
    <clipPath id="clipPath476" clipPathUnits="userSpaceOnUse">
      <path style="clip-rule:evenodd" id="path478" d="m 53.179,259.07 520.42,0 0,325.14 -520.42,0 0,-325.14 z"/>
    </clipPath>
  </defs>
  <g transform="matrix(1.25,0,0,-1.25,0,1107.7875)" id="g10">
    <g id="g12">
      <g clip-path="url(#clipPath16)" id="g14">
        <path id="path20" style="fill:none;stroke:#000000;stroke-width:0.14;stroke-linecap:butt;stroke-linejoin:miter;stroke-miterlimit:10;stroke-dasharray:none;stroke-opacity:0" d="m 53.156,584.1 520.394,0 0,-325.04 -520.394,0 0,325.04 z"/>
      </g>
    </g>
    <g id="g22">
      <g clip-path="url(#clipPath26)" id="g24">
        <path id="path30" style="fill:#ffffff;fill-opacity:1;fill-rule:evenodd;stroke:none" d="m 53.157,259.06 520.4,0 0,325.04 -520.4,0 0,-325.04 z"/>
      </g>
    </g>
    <path id="path32" style="fill:none;stroke:#d9d9d9;stroke-width:0.89406002;stroke-linecap:butt;stroke-linejoin:round;stroke-miterlimit:10;stroke-dasharray:none;stroke-opacity:1" d="m 119.75,357.77 411.22,0 m -411.22,36.43 411.22,0 m -411.22,36.59 411.22,0 m -411.22,36.43 411.22,0 m -411.22,36.44 411.22,0 m -411.22,36.53 411.22,0"/>
    <path id="path34" style="fill:#137cb1;fill-opacity:1;fill-rule:nonzero;stroke:none" d="m 133.43,322.39 18.37,0 0,-1.1 -18.37,0 0,1.1 z m 45.77,0.3 18.22,0 0,-1.4 -18.22,0 0,1.4 z m 45.62,1.2 18.37,0 0,-2.6 -18.37,0 0,2.6 z m 45.77,5.57 18.21,0 0,-8.17 -18.21,0 0,8.17 z m 45.62,7.08 18.21,0 0,-15.25 -18.21,0 0,15.25 z m 45.77,23.19 18.21,0 0,-38.44 -18.21,0 0,38.44 z m 45.62,18.36 18.21,0 0,-56.8 -18.21,0 0,56.8 z m 45.76,14.16 18.22,0 0,-70.96 -18.22,0 0,70.96 z m 45.62,14 18.22,0 0,-84.96 -18.22,0 0,84.96 z"/>
    <path id="path36" style="fill:#eacc80;fill-opacity:1;fill-rule:nonzero;stroke:none" d="m 133.43,362.74 18.37,0 0,-40.35 -18.37,0 0,40.35 z m 45.77,14 18.22,0 0,-54.05 -18.22,0 0,54.05 z m 45.62,-4.82 18.37,0 0,-48.03 -18.37,0 0,48.03 z m 45.77,15.51 18.21,0 0,-57.97 -18.21,0 0,57.97 z m 45.62,23.18 18.21,0 0,-74.07 -18.21,0 0,74.07 z m 45.77,29.97 18.21,0 0,-80.85 -18.21,0 0,80.85 z m 45.62,29.35 18.21,0 0,-91.84 -18.21,0 0,91.84 z m 45.76,32.07 18.22,0 0,-109.75 -18.22,0 0,109.75 z m 45.62,18.07 18.22,0 0,-113.82 -18.22,0 0,113.82 z"/>
    <path id="path38" style="fill:none;stroke:#d9d9d9;stroke-width:0.89406002;stroke-linecap:butt;stroke-linejoin:round;stroke-miterlimit:10;stroke-dasharray:none;stroke-opacity:1" d="m 119.75,321.29 411.22,0"/>
    <path id="path40" style="fill:none;stroke:#4aac6b;stroke-width:2.68219995;stroke-linecap:round;stroke-linejoin:round;stroke-miterlimit:10;stroke-dasharray:none;stroke-opacity:1" d="m 142.59,333.72 c 15.23,0.15 30.46,-1.72 45.7,0.45 15.23,2.16 30.46,4.74 45.69,12.53 15.23,7.79 30.46,24.57 45.69,34.21 15.23,9.64 30.46,7.45 45.69,23.62 15.23,16.18 30.46,56.34 45.69,73.44 15.23,17.1 30.46,23.47 45.69,29.17 15.23,5.69 30.46,1.32 45.69,5 15.23,3.68 30.46,11.39 45.69,17.08"/>
    <path id="path42" style="fill:#4aac6b;fill-opacity:1;fill-rule:nonzero;stroke:none" d="m 145.61,333.69 c 0,-1.67 -1.35,-3.01 -3.01,-3.01 -1.66,0 -3.01,1.34 -3.01,3.01 0,1.66 1.35,3.01 3.01,3.01 1.66,0 3.01,-1.35 3.01,-3.01 z"/>
    <path id="path44" style="fill:none;stroke:#4aac6b;stroke-width:0.89406002;stroke-linecap:butt;stroke-linejoin:round;stroke-miterlimit:10;stroke-dasharray:none;stroke-opacity:1" d="m 145.61,333.69 c 0,-1.67 -1.35,-3.01 -3.01,-3.01 -1.66,0 -3.01,1.34 -3.01,3.01 0,1.66 1.35,3.01 3.01,3.01 1.66,0 3.01,-1.35 3.01,-3.01 z"/>
    <path id="path46" style="fill:#4aac6b;fill-opacity:1;fill-rule:nonzero;stroke:none" d="m 191.39,334.14 c 0,-1.66 -1.35,-3.01 -3.01,-3.01 -1.67,0 -3.02,1.35 -3.02,3.01 0,1.66 1.35,3.01 3.02,3.01 1.66,0 3.01,-1.35 3.01,-3.01 z"/>
    <path id="path48" style="fill:none;stroke:#4aac6b;stroke-width:0.89406002;stroke-linecap:butt;stroke-linejoin:round;stroke-miterlimit:10;stroke-dasharray:none;stroke-opacity:1" d="m 191.39,334.14 c 0,-1.66 -1.35,-3.01 -3.01,-3.01 -1.67,0 -3.02,1.35 -3.02,3.01 0,1.66 1.35,3.01 3.02,3.01 1.66,0 3.01,-1.35 3.01,-3.01 z"/>
    <path id="path50" style="fill:#4aac6b;fill-opacity:1;fill-rule:nonzero;stroke:none" d="m 237.01,346.79 c 0,-1.67 -1.35,-3.01 -3.01,-3.01 -1.66,0 -3.01,1.34 -3.01,3.01 0,1.66 1.35,3.01 3.01,3.01 1.66,0 3.01,-1.35 3.01,-3.01 z"/>
    <path id="path52" style="fill:none;stroke:#4aac6b;stroke-width:0.89406002;stroke-linecap:butt;stroke-linejoin:round;stroke-miterlimit:10;stroke-dasharray:none;stroke-opacity:1" d="m 237.01,346.79 c 0,-1.67 -1.35,-3.01 -3.01,-3.01 -1.66,0 -3.01,1.34 -3.01,3.01 0,1.66 1.35,3.01 3.01,3.01 1.66,0 3.01,-1.35 3.01,-3.01 z"/>
    <path id="path54" style="fill:#4aac6b;fill-opacity:1;fill-rule:nonzero;stroke:none" d="m 282.79,380.97 c 0,-1.66 -1.35,-3.01 -3.01,-3.01 -1.67,0 -3.02,1.35 -3.02,3.01 0,1.66 1.35,3.01 3.02,3.01 1.66,0 3.01,-1.35 3.01,-3.01 z"/>
    <path id="path56" style="fill:none;stroke:#4aac6b;stroke-width:0.89406002;stroke-linecap:butt;stroke-linejoin:round;stroke-miterlimit:10;stroke-dasharray:none;stroke-opacity:1" d="m 282.79,380.97 c 0,-1.66 -1.35,-3.01 -3.01,-3.01 -1.67,0 -3.02,1.35 -3.02,3.01 0,1.66 1.35,3.01 3.02,3.01 1.66,0 3.01,-1.35 3.01,-3.01 z"/>
    <path id="path58" style="fill:#4aac6b;fill-opacity:1;fill-rule:nonzero;stroke:none" d="m 328.41,404.61 c 0,-1.66 -1.35,-3.01 -3.01,-3.01 -1.66,0 -3.01,1.35 -3.01,3.01 0,1.66 1.35,3.01 3.01,3.01 1.66,0 3.01,-1.35 3.01,-3.01 z"/>
    <path id="path60" style="fill:none;stroke:#4aac6b;stroke-width:0.89406002;stroke-linecap:butt;stroke-linejoin:round;stroke-miterlimit:10;stroke-dasharray:none;stroke-opacity:1" d="m 328.41,404.61 c 0,-1.66 -1.35,-3.01 -3.01,-3.01 -1.66,0 -3.01,1.35 -3.01,3.01 0,1.66 1.35,3.01 3.01,3.01 1.66,0 3.01,-1.35 3.01,-3.01 z"/>
    <path id="path62" style="fill:#4aac6b;fill-opacity:1;fill-rule:nonzero;stroke:none" d="m 374.04,477.94 c 0,-1.66 -1.35,-3.01 -3.01,-3.01 -1.67,0 -3.02,1.35 -3.02,3.01 0,1.66 1.35,3.01 3.02,3.01 1.66,0 3.01,-1.35 3.01,-3.01 z"/>
    <path id="path64" style="fill:none;stroke:#4aac6b;stroke-width:0.89406002;stroke-linecap:butt;stroke-linejoin:round;stroke-miterlimit:10;stroke-dasharray:none;stroke-opacity:1" d="m 374.04,477.94 c 0,-1.66 -1.35,-3.01 -3.01,-3.01 -1.67,0 -3.02,1.35 -3.02,3.01 0,1.66 1.35,3.01 3.02,3.01 1.66,0 3.01,-1.35 3.01,-3.01 z"/>
    <path id="path66" style="fill:#4aac6b;fill-opacity:1;fill-rule:nonzero;stroke:none" d="m 419.81,507.15 c 0,-1.66 -1.34,-3.01 -3.01,-3.01 -1.66,0 -3.01,1.35 -3.01,3.01 0,1.67 1.35,3.01 3.01,3.01 1.67,0 3.01,-1.34 3.01,-3.01 z"/>
    <path id="path68" style="fill:none;stroke:#4aac6b;stroke-width:0.89406002;stroke-linecap:butt;stroke-linejoin:round;stroke-miterlimit:10;stroke-dasharray:none;stroke-opacity:1" d="m 419.81,507.15 c 0,-1.66 -1.34,-3.01 -3.01,-3.01 -1.66,0 -3.01,1.35 -3.01,3.01 0,1.67 1.35,3.01 3.01,3.01 1.67,0 3.01,-1.34 3.01,-3.01 z"/>
    <path id="path70" style="fill:#4aac6b;fill-opacity:1;fill-rule:nonzero;stroke:none" d="m 465.44,512.12 c 0,-1.66 -1.35,-3.01 -3.01,-3.01 -1.67,0 -3.01,1.35 -3.01,3.01 0,1.67 1.34,3.01 3.01,3.01 1.66,0 3.01,-1.34 3.01,-3.01 z"/>
    <path id="path72" style="fill:none;stroke:#4aac6b;stroke-width:0.89406002;stroke-linecap:butt;stroke-linejoin:round;stroke-miterlimit:10;stroke-dasharray:none;stroke-opacity:1" d="m 465.44,512.12 c 0,-1.66 -1.35,-3.01 -3.01,-3.01 -1.67,0 -3.01,1.35 -3.01,3.01 0,1.67 1.34,3.01 3.01,3.01 1.66,0 3.01,-1.34 3.01,-3.01 z"/>
    <path id="path74" style="fill:#4aac6b;fill-opacity:1;fill-rule:nonzero;stroke:none" d="m 511.21,529.29 c 0,-1.67 -1.34,-3.01 -3.01,-3.01 -1.66,0 -3.01,1.34 -3.01,3.01 0,1.66 1.35,3.01 3.01,3.01 1.67,0 3.01,-1.35 3.01,-3.01 z"/>
    <path id="path76" style="fill:none;stroke:#4aac6b;stroke-width:0.89406002;stroke-linecap:butt;stroke-linejoin:round;stroke-miterlimit:10;stroke-dasharray:none;stroke-opacity:1" d="m 511.21,529.29 c 0,-1.67 -1.34,-3.01 -3.01,-3.01 -1.66,0 -3.01,1.34 -3.01,3.01 0,1.66 1.35,3.01 3.01,3.01 1.67,0 3.01,-1.35 3.01,-3.01 z"/>
    <g id="g78">
      <g clip-path="url(#clipPath82)" id="g80"><text id="text86" style="font-variant:normal;font-weight:normal;font-size:13.11600018px;font-family:Calibri;-inkscape-font-specification:Calibri;writing-mode:lr-tb;fill:#000000;fill-opacity:1;fill-rule:nonzero;stroke:none" transform="matrix(1,0,0,-1,543.24,317.45)"><tspan id="tspan88" y="0" x="0 6.631712">0%</tspan></text>
</g>
    </g>
    <g id="g90">
      <g clip-path="url(#clipPath94)" id="g92"><text id="text98" style="font-variant:normal;font-weight:normal;font-size:13.09500027px;font-family:Calibri;-inkscape-font-specification:Calibri;writing-mode:lr-tb;fill:#000000;fill-opacity:1;fill-rule:nonzero;stroke:none" transform="matrix(1,0,0,-1,543.24,341.77)"><tspan id="tspan100" y="0" x="0 6.6317148">5%</tspan></text>
</g>
    </g>
    <g id="g102">
      <g clip-path="url(#clipPath106)" id="g104"><text id="text110" style="font-variant:normal;font-weight:normal;font-size:13.11600018px;font-family:Calibri;-inkscape-font-specification:Calibri;writing-mode:lr-tb;fill:#000000;fill-opacity:1;fill-rule:nonzero;stroke:none" transform="matrix(1,0,0,-1,543.24,366.11)"><tspan id="tspan112" y="0" x="0 6.631712 13.263424">10%</tspan></text>
</g>
    </g>
    <g id="g114">
      <g clip-path="url(#clipPath118)" id="g116"><text id="text122" style="font-variant:normal;font-weight:normal;font-size:13.09500027px;font-family:Calibri;-inkscape-font-specification:Calibri;writing-mode:lr-tb;fill:#000000;fill-opacity:1;fill-rule:nonzero;stroke:none" transform="matrix(1,0,0,-1,543.24,390.42)"><tspan id="tspan124" y="0" x="0 6.6317148 13.26343">15%</tspan></text>
</g>
    </g>
    <g id="g126">
      <g clip-path="url(#clipPath130)" id="g128"><text id="text134" style="font-variant:normal;font-weight:normal;font-size:13.11600018px;font-family:Calibri;-inkscape-font-specification:Calibri;writing-mode:lr-tb;fill:#000000;fill-opacity:1;fill-rule:nonzero;stroke:none" transform="matrix(1,0,0,-1,543.24,414.76)"><tspan id="tspan136" y="0" x="0 6.631712 13.263424">20%</tspan></text>
</g>
    </g>
    <g id="g138">
      <g clip-path="url(#clipPath142)" id="g140"><text id="text146" style="font-variant:normal;font-weight:normal;font-size:13.09500027px;font-family:Calibri;-inkscape-font-specification:Calibri;writing-mode:lr-tb;fill:#000000;fill-opacity:1;fill-rule:nonzero;stroke:none" transform="matrix(1,0,0,-1,543.24,439.07)"><tspan id="tspan148" y="0" x="0 6.6317148 13.26343">25%</tspan></text>
</g>
    </g>
    <g id="g150">
      <g clip-path="url(#clipPath154)" id="g152"><text id="text158" style="font-variant:normal;font-weight:normal;font-size:13.11600018px;font-family:Calibri;-inkscape-font-specification:Calibri;writing-mode:lr-tb;fill:#000000;fill-opacity:1;fill-rule:nonzero;stroke:none" transform="matrix(1,0,0,-1,543.24,463.41)"><tspan id="tspan160" y="0" x="0 6.631712 13.263424">30%</tspan></text>
</g>
    </g>
    <g id="g162">
      <g clip-path="url(#clipPath166)" id="g164"><text id="text170" style="font-variant:normal;font-weight:normal;font-size:13.09500027px;font-family:Calibri;-inkscape-font-specification:Calibri;writing-mode:lr-tb;fill:#000000;fill-opacity:1;fill-rule:nonzero;stroke:none" transform="matrix(1,0,0,-1,543.24,487.73)"><tspan id="tspan172" y="0" x="0 6.6317148 13.26343">35%</tspan></text>
</g>
    </g>
    <g id="g174">
      <g clip-path="url(#clipPath178)" id="g176"><text id="text182" style="font-variant:normal;font-weight:normal;font-size:13.11600018px;font-family:Calibri;-inkscape-font-specification:Calibri;writing-mode:lr-tb;fill:#000000;fill-opacity:1;fill-rule:nonzero;stroke:none" transform="matrix(1,0,0,-1,543.24,512.06)"><tspan id="tspan184" y="0" x="0 6.631712 13.263424">40%</tspan></text>
</g>
    </g>
    <g id="g186">
      <g clip-path="url(#clipPath190)" id="g188"><text id="text194" style="font-variant:normal;font-weight:normal;font-size:13.09500027px;font-family:Calibri;-inkscape-font-specification:Calibri;writing-mode:lr-tb;fill:#000000;fill-opacity:1;fill-rule:nonzero;stroke:none" transform="matrix(1,0,0,-1,543.24,536.38)"><tspan id="tspan196" y="0" x="0 6.6317148 13.26343">45%</tspan></text>
</g>
    </g>
    <g id="g198">
      <g clip-path="url(#clipPath202)" id="g200"><text id="text206" style="font-variant:normal;font-weight:normal;font-size:13.11600018px;font-family:Calibri;-inkscape-font-specification:Calibri;writing-mode:lr-tb;fill:#000000;fill-opacity:1;fill-rule:nonzero;stroke:none" transform="matrix(1,0,0,-1,100.95,317.45)"><tspan id="tspan208" y="0" x="0">0</tspan></text>
</g>
    </g>
    <g id="g210">
      <g clip-path="url(#clipPath214)" id="g212"><text id="text218" style="font-variant:normal;font-weight:normal;font-size:13.09500027px;font-family:Calibri;-inkscape-font-specification:Calibri;writing-mode:lr-tb;fill:#000000;fill-opacity:1;fill-rule:nonzero;stroke:none" transform="matrix(1,0,0,-1,94.295,353.94)"><tspan id="tspan220" y="0" x="0 6.6317148">50</tspan></text>
</g>
    </g>
    <g id="g222">
      <g clip-path="url(#clipPath226)" id="g224"><text id="text230" style="font-variant:normal;font-weight:normal;font-size:13.09500027px;font-family:Calibri;-inkscape-font-specification:Calibri;writing-mode:lr-tb;fill:#000000;fill-opacity:1;fill-rule:nonzero;stroke:none" transform="matrix(1,0,0,-1,87.642,390.42)"><tspan id="tspan232" y="0" x="0 6.6317148 13.26343">100</tspan></text>
</g>
    </g>
    <g id="g234">
      <g clip-path="url(#clipPath238)" id="g236"><text id="text242" style="font-variant:normal;font-weight:normal;font-size:13.09500027px;font-family:Calibri;-inkscape-font-specification:Calibri;writing-mode:lr-tb;fill:#000000;fill-opacity:1;fill-rule:nonzero;stroke:none" transform="matrix(1,0,0,-1,87.642,426.91)"><tspan id="tspan244" y="0" x="0 6.6317148 13.26343">150</tspan></text>
</g>
    </g>
    <g id="g246">
      <g clip-path="url(#clipPath250)" id="g248"><text id="text254" style="font-variant:normal;font-weight:normal;font-size:13.11600018px;font-family:Calibri;-inkscape-font-specification:Calibri;writing-mode:lr-tb;fill:#000000;fill-opacity:1;fill-rule:nonzero;stroke:none" transform="matrix(1,0,0,-1,87.642,463.41)"><tspan id="tspan256" y="0" x="0 6.631712 13.263424">200</tspan></text>
</g>
    </g>
    <g id="g258">
      <g clip-path="url(#clipPath262)" id="g260"><text id="text266" style="font-variant:normal;font-weight:normal;font-size:13.09500027px;font-family:Calibri;-inkscape-font-specification:Calibri;writing-mode:lr-tb;fill:#000000;fill-opacity:1;fill-rule:nonzero;stroke:none" transform="matrix(1,0,0,-1,87.642,499.89)"><tspan id="tspan268" y="0" x="0 6.6317148 13.26343">250</tspan></text>
</g>
    </g>
    <g id="g270">
      <g clip-path="url(#clipPath274)" id="g272"><text id="text278" style="font-variant:normal;font-weight:normal;font-size:13.09500027px;font-family:Calibri;-inkscape-font-specification:Calibri;writing-mode:lr-tb;fill:#000000;fill-opacity:1;fill-rule:nonzero;stroke:none" transform="matrix(1,0,0,-1,87.642,536.38)"><tspan id="tspan280" y="0" x="0 6.6317148 13.26343">300</tspan></text>
</g>
    </g>
    <g id="g282">
      <g clip-path="url(#clipPath286)" id="g284"><text id="text290" style="font-variant:normal;font-weight:normal;font-size:13.11600018px;font-family:Calibri;-inkscape-font-specification:Calibri;writing-mode:lr-tb;fill:#000000;fill-opacity:1;fill-rule:nonzero;stroke:none" transform="matrix(1,0,0,-1,129.33,300.4)"><tspan id="tspan292" y="0" x="0 6.6106119 13.221224 19.831837">2021</tspan></text>
</g>
    </g>
    <g id="g294">
      <g clip-path="url(#clipPath298)" id="g296"><text id="text302" style="font-variant:normal;font-weight:normal;font-size:13.11600018px;font-family:Calibri;-inkscape-font-specification:Calibri;writing-mode:lr-tb;fill:#000000;fill-opacity:1;fill-rule:nonzero;stroke:none" transform="matrix(1,0,0,-1,175.03,300.4)"><tspan id="tspan304" y="0" x="0 6.6106119 13.221224 19.831837">2022</tspan></text>
</g>
    </g>
    <g id="g306">
      <g clip-path="url(#clipPath310)" id="g308"><text id="text314" style="font-variant:normal;font-weight:normal;font-size:13.11600018px;font-family:Calibri;-inkscape-font-specification:Calibri;writing-mode:lr-tb;fill:#000000;fill-opacity:1;fill-rule:nonzero;stroke:none" transform="matrix(1,0,0,-1,220.72,300.4)"><tspan id="tspan316" y="0" x="0 6.631712 13.263424 19.895136">2023</tspan></text>
</g>
    </g>
    <g id="g318">
      <g clip-path="url(#clipPath322)" id="g320"><text id="text326" style="font-variant:normal;font-weight:normal;font-size:13.11600018px;font-family:Calibri;-inkscape-font-specification:Calibri;writing-mode:lr-tb;fill:#000000;fill-opacity:1;fill-rule:nonzero;stroke:none" transform="matrix(1,0,0,-1,263.16,300.4)"><tspan id="tspan328" y="0" x="0 6.6498122 13.299624 19.896973 26.664827">2024e</tspan></text>
</g>
    </g>
    <g id="g330">
      <g clip-path="url(#clipPath334)" id="g332"><text id="text338" style="font-variant:normal;font-weight:normal;font-size:13.11600018px;font-family:Calibri;-inkscape-font-specification:Calibri;writing-mode:lr-tb;fill:#000000;fill-opacity:1;fill-rule:nonzero;stroke:none" transform="matrix(1,0,0,-1,308.86,300.4)"><tspan id="tspan340" y="0" x="0 6.6498122 13.299624 19.896973 26.664827">2025e</tspan></text>
</g>
    </g>
    <g id="g342">
      <g clip-path="url(#clipPath346)" id="g344"><text id="text350" style="font-variant:normal;font-weight:normal;font-size:13.11600018px;font-family:Calibri;-inkscape-font-specification:Calibri;writing-mode:lr-tb;fill:#000000;fill-opacity:1;fill-rule:nonzero;stroke:none" transform="matrix(1,0,0,-1,354.57,300.4)"><tspan id="tspan352" y="0" x="0 6.6498122 13.220928 19.870741 26.599249">2026e</tspan></text>
</g>
    </g>
    <g id="g354">
      <g clip-path="url(#clipPath358)" id="g356"><text id="text362" style="font-variant:normal;font-weight:normal;font-size:13.11600018px;font-family:Calibri;-inkscape-font-specification:Calibri;writing-mode:lr-tb;fill:#000000;fill-opacity:1;fill-rule:nonzero;stroke:none" transform="matrix(1,0,0,-1,400.27,300.4)"><tspan id="tspan364" y="0" x="0 6.6498122 13.220928 19.870741 26.573015">2027e</tspan></text>
</g>
    </g>
    <g id="g366">
      <g clip-path="url(#clipPath370)" id="g368"><text id="text374" style="font-variant:normal;font-weight:normal;font-size:13.11600018px;font-family:Calibri;-inkscape-font-specification:Calibri;writing-mode:lr-tb;fill:#000000;fill-opacity:1;fill-rule:nonzero;stroke:none" transform="matrix(1,0,0,-1,445.96,300.4)"><tspan id="tspan376" y="0" x="0 6.6498122 13.299624 19.896973 26.664827">2028e</tspan></text>
</g>
    </g>
    <g id="g378">
      <g clip-path="url(#clipPath382)" id="g380"><text id="text386" style="font-variant:normal;font-weight:normal;font-size:13.11600018px;font-family:Calibri;-inkscape-font-specification:Calibri;writing-mode:lr-tb;fill:#000000;fill-opacity:1;fill-rule:nonzero;stroke:none" transform="matrix(1,0,0,-1,491.66,300.4)"><tspan id="tspan388" y="0" x="0 6.6498122 13.299624 19.896973 26.664827">2029e</tspan></text>
</g>
    </g>
    <g id="g390">
      <g clip-path="url(#clipPath394)" id="g392"><text id="text398" style="font-variant:normal;font-weight:normal;font-size:13.09500027px;font-family:Calibri;-inkscape-font-specification:Calibri;writing-mode:lr-tb;fill:#000000;fill-opacity:1;fill-rule:nonzero;stroke:none" transform="matrix(-4.4e-8,1,1,4.4e-8,73.474,414.4)"><tspan id="tspan400" y="0" x="0 8.4069901 14.417595 21.056761 24.055515 30.969675">US$ bn</tspan></text>
</g>
    </g>
    <g id="g402">
      <g clip-path="url(#clipPath406)" id="g404"><text id="text410" style="font-variant:normal;font-weight:normal;font-size:15.81099987px;font-family:Calibri;-inkscape-font-specification:Calibri;writing-mode:lr-tb;fill:#000000;fill-opacity:1;fill-rule:nonzero;stroke:none" transform="matrix(1,0,0,-1,222.8,560.06)"><tspan id="tspan412" y="0" x="0 7.5418472 14.799096 28.317501 36.744762 40.238995 49.393562 53.377937 56.951221 65.236183 72.920334 79.845551 87.719429 95.956963 104.25774 112.06837 115.67328 122.74079 128.9229 132.9547 136.2592 146.4731 154.8055">TSMC AI Revenue vs. Non</tspan></text>
</g>
    </g>
    <g id="g414">
      <g clip-path="url(#clipPath418)" id="g416"><text id="text422" style="font-variant:normal;font-weight:normal;font-size:15.81099987px;font-family:Calibri;-inkscape-font-specification:Calibri;writing-mode:lr-tb;fill:#000000;fill-opacity:1;fill-rule:nonzero;stroke:none" transform="matrix(1,0,0,-1,385.92,560.06)"><tspan id="tspan424" y="0" x="0">-</tspan></text>
</g>
    </g>
    <g id="g426">
      <g clip-path="url(#clipPath430)" id="g428"><text id="text434" style="font-variant:normal;font-weight:normal;font-size:15.81099987px;font-family:Calibri;-inkscape-font-specification:Calibri;writing-mode:lr-tb;fill:#000000;fill-opacity:1;fill-rule:nonzero;stroke:none" transform="matrix(1,0,0,-1,390.74,560.06)"><tspan id="tspan436" y="0" x="0 9.1792688">AI</tspan></text>
</g>
    </g>
    <path id="path438" style="fill:#137cb1;fill-opacity:1;fill-rule:evenodd;stroke:none" d="m 94.467,274.11 22.888,0 0,7.2043 -22.888,0 0,-7.2043 z"/>
    <g id="g440">
      <g clip-path="url(#clipPath444)" id="g442"><text id="text448" style="font-variant:normal;font-weight:normal;font-size:13.09500027px;font-family:Calibri;-inkscape-font-specification:Calibri;writing-mode:lr-tb;fill:#000000;fill-opacity:1;fill-rule:nonzero;stroke:none" transform="matrix(1,0,0,-1,119.79,273.85)"><tspan id="tspan450" y="0" x="0 6.0106049 12.479535 17.115166 22.99482 29.463751 34.09938 36.967186 44.640854 47.940796 50.808601 55.444229 61.913158 67.792816 74.392693 81.306854 88.090065">Server AI revenue</tspan></text>
</g>
    </g>
    <path id="path452" style="fill:#eacc80;fill-opacity:1;fill-rule:evenodd;stroke:none" d="m 229.43,274.11 22.888,0 0,7.2043 -22.888,0 0,-7.2043 z"/>
    <g id="g454">
      <g clip-path="url(#clipPath458)" id="g456"><text id="text462" style="font-variant:normal;font-weight:normal;font-size:13.09500027px;font-family:Calibri;-inkscape-font-specification:Calibri;writing-mode:lr-tb;fill:#000000;fill-opacity:1;fill-rule:nonzero;stroke:none" transform="matrix(1,0,0,-1,254.78,273.85)"><tspan id="tspan464" y="0" x="0 8.4593697 15.360435 22.23531 26.32095 33.86367 37.163609 40.162365 44.667046 51.135975 57.14658 63.615509 70.529671 77.312881">Non-AI revenue</tspan></text>
</g>
    </g>
    <path id="path466" style="fill:none;stroke:#4aac6b;stroke-width:2.68219995;stroke-linecap:round;stroke-linejoin:round;stroke-miterlimit:10;stroke-dasharray:none;stroke-opacity:1" d="m 356.53,277.71 22.89,0"/>
    <path id="path468" style="fill:#4aac6b;fill-opacity:1;fill-rule:nonzero;stroke:none" d="m 370.98,277.79 c 0,-1.66 -1.35,-3.01 -3.01,-3.01 -1.66,0 -3.01,1.35 -3.01,3.01 0,1.66 1.35,3.01 3.01,3.01 1.66,0 3.01,-1.35 3.01,-3.01 z"/>
    <path id="path470" style="fill:none;stroke:#4aac6b;stroke-width:0.89406002;stroke-linecap:butt;stroke-linejoin:round;stroke-miterlimit:10;stroke-dasharray:none;stroke-opacity:1" d="m 370.98,277.79 c 0,-1.66 -1.35,-3.01 -3.01,-3.01 -1.66,0 -3.01,1.35 -3.01,3.01 0,1.66 1.35,3.01 3.01,3.01 1.66,0 3.01,-1.35 3.01,-3.01 z"/>
    <g id="g472">
      <g clip-path="url(#clipPath476)" id="g474"><text id="text480" style="font-variant:normal;font-weight:normal;font-size:13.09500027px;font-family:Calibri;-inkscape-font-specification:Calibri;writing-mode:lr-tb;fill:#000000;fill-opacity:1;fill-rule:nonzero;stroke:none" transform="matrix(1,0,0,-1,381.89,273.85)"><tspan id="tspan482" y="0" x="0 6.0106049 12.531915 17.193735 23.073389 29.5947 34.217236 37.085041 44.758709 48.058651 50.952644 60.433426 63.301231 70.241577 74.314125 77.339073 83.677048 89.687653 100.88388 107.95518 110.98013 115.51099 122.0323 128.02982 134.55113 141.42599 148.2354">Server AI % of TSMC revenue</tspan></text>
</g>
    </g>
  </g>
</svg>
