<svg version="1.1" width="100%" height="100%" viewBox="0 0 355 251" xmlns="http://www.w3.org/2000/svg" xmlns:xlink="http://www.w3.org/1999/xlink"><style type="text/css" /><defs><clipPath id="clip001"><path d="M0,0 L2761.333,0 L2761.333,2080 L0,2080 Z" clip-rule="evenodd" /></clipPath><clipPath id="clip002"><path d="M0,0 L2761.333,0 L2761.333,2080 L0,2080 Z" clip-rule="evenodd" /></clipPath><clipPath id="clip003"><path d="M0,0 L2761.333,0 L2761.333,2080 L0,2080 Z" clip-rule="evenodd" /></clipPath><clipPath id="clip004"><path d="M0,0 L5200,0 L5200,2188 L0,2188 Z" clip-rule="evenodd" /></clipPath><clipPath id="clip005"><path d="M-800,0 L6000,0 L6000,2188 L-800,2188 Z" clip-rule="evenodd" /></clipPath><clipPath id="clip006"><path d="M0,0 L2753.333,0 L2753.333,2080 L0,2080 Z" clip-rule="evenodd" /></clipPath><clipPath id="clip007"><path d="M0,0 L2753.333,0 L2753.333,2080 L0,2080 Z" clip-rule="evenodd" /></clipPath><clipPath id="clip008"><path d="M260,60 L2714.667,60 L2714.667,1841.333 L260,1841.333 Z" clip-rule="evenodd" /></clipPath><clipPath id="clip009"><path d="M260,60 L2714.667,60 L2714.667,1841.333 L260,1841.333 Z" clip-rule="evenodd" /></clipPath><clipPath id="clip010"><path d="M260,60 L2714.667,60 L2714.667,1841.333 L260,1841.333 Z" clip-rule="evenodd" /></clipPath><clipPath id="clip011"><path d="M260,60 L2714.667,60 L2714.667,1841.333 L260,1841.333 Z" clip-rule="evenodd" /></clipPath><clipPath id="clip012"><path d="M260,60 L2714.667,60 L2714.667,1841.333 L260,1841.333 Z" clip-rule="evenodd" /></clipPath><clipPath id="clip013"><path d="M0,0 L2753.333,0 L2753.333,2080 L0,2080 Z" clip-rule="evenodd" /></clipPath><clipPath id="clip014"><path d="M0,0 L2753.333,0 L2753.333,2080 L0,2080 Z" clip-rule="evenodd" /></clipPath><clipPath id="clip015"><path d="M0,0 L2753.333,0 L2753.333,2080 L0,2080 Z" clip-rule="evenodd" /></clipPath><clipPath id="clip016"><path d="M0,0 L2753.333,0 L2753.333,2080 L0,2080 Z" clip-rule="evenodd" /></clipPath><clipPath id="clip017"><path d="M0,0 L2753.333,0 L2753.333,2080 L0,2080 Z" clip-rule="evenodd" /></clipPath><clipPath id="clip018"><path d="M0,0 L2753.333,0 L2753.333,2080 L0,2080 Z" clip-rule="evenodd" /></clipPath><clipPath id="clip019"><path d="M0,0 L2753.333,0 L2753.333,2080 L0,2080 Z" clip-rule="evenodd" /></clipPath><clipPath id="clip020"><path d="M0,0 L2753.333,0 L2753.333,2080 L0,2080 Z" clip-rule="evenodd" /></clipPath><clipPath id="clip021"><path d="M0,0 L2753.333,0 L2753.333,2080 L0,2080 Z" clip-rule="evenodd" /></clipPath><clipPath id="clip022"><path d="M0,0 L2753.333,0 L2753.333,2080 L0,2080 Z" clip-rule="evenodd" /></clipPath><clipPath id="clip023"><path d="M0,0 L2753.333,0 L2753.333,2080 L0,2080 Z" clip-rule="evenodd" /></clipPath><clipPath id="clip024"><path d="M0,0 L2753.333,0 L2753.333,2080 L0,2080 Z" clip-rule="evenodd" /></clipPath><clipPath id="clip025"><path d="M0,0 L2753.333,0 L2753.333,2080 L0,2080 Z" clip-rule="evenodd" /></clipPath><clipPath id="clip026"><path d="M0,0 L2753.333,0 L2753.333,2080 L0,2080 Z" clip-rule="evenodd" /></clipPath><clipPath id="clip027"><path d="M0,0 L2753.333,0 L2753.333,2080 L0,2080 Z" clip-rule="evenodd" /></clipPath><clipPath id="clip028"><path d="M0,0 L2753.333,0 L2753.333,2080 L0,2080 Z" clip-rule="evenodd" /></clipPath><clipPath id="clip029"><path d="M0,0 L2753.333,0 L2753.333,2080 L0,2080 Z" clip-rule="evenodd" /></clipPath><clipPath id="clip030"><path d="M0,0 L2753.333,0 L2753.333,2080 L0,2080 Z" clip-rule="evenodd" /></clipPath><clipPath id="clip031"><path d="M0,0 L2753.333,0 L2753.333,2080 L0,2080 Z" clip-rule="evenodd" /></clipPath><clipPath id="clip032"><path d="M0,0 L2753.333,0 L2753.333,2080 L0,2080 Z" clip-rule="evenodd" /></clipPath><clipPath id="clip033"><path d="M0,0 L2753.333,0 L2753.333,2080 L0,2080 Z" clip-rule="evenodd" /></clipPath><clipPath id="clip034"><path d="M0,0 L2753.333,0 L2753.333,2080 L0,2080 Z" clip-rule="evenodd" /></clipPath><clipPath id="clip035"><path d="M0,0 L2753.333,0 L2753.333,2080 L0,2080 Z" clip-rule="evenodd" /></clipPath><clipPath id="clip036"><path d="M0,0 L2753.333,0 L2753.333,2080 L0,2080 Z" clip-rule="evenodd" /></clipPath><clipPath id="clip037"><path d="M0,0 L2753.333,0 L2753.333,2080 L0,2080 Z" clip-rule="evenodd" /></clipPath><clipPath id="clip038"><path d="M0,0 L2753.333,0 L2753.333,2080 L0,2080 Z" clip-rule="evenodd" /></clipPath></defs><clipPath id="page-clip-path-1"><rect x="0" y="0" width="354.67" height="250.67" /></clipPath><g clip-path="url(#page-clip-path-1)" transform="translate(0.17,0)"><g transform="translate(1,1)"><g><g transform="matrix(0.1197006,0,0,0.12,0,0)" clip-path="url(#clip001)"><g><g clip-path="url(#clip002)"><g><g clip-path="url(#clip003)"><g transform="matrix(1.000214,0,0,1.000553,0.00016276,0.00008138)"><g><g><g clip-path="url(#clip004)"><g transform="translate(2753.333,2080)" /></g></g></g><g clip-path="url(#clip005)"><g transform="matrix(0.000656168,0,0,0.000656168,0,0)"><path d="M0,0 L4198112,0 L4198112,3169920 L0,3169920 Z" fill="#ffffff" fill-opacity="0" fill-rule="evenodd" /></g></g><g clip-path="url(#clip006)"><g transform="matrix(0.000656168,0,0,0.000656168,260,60)"><path d="M0,2162048 L3728720,2162048 M0,1621536 L3728720,1621536 M0,1081024 L3728720,1081024 M0,540512 L3728720,540512 M0,0 L3728720,0 " stroke-width="16933.33" stroke-linejoin="round" stroke-miterlimit="13.33333" stroke="#bababa" fill="none" fill-rule="nonzero" /></g></g><g clip-path="url(#clip007)"><g transform="matrix(0.000656168,0,0,0.000656168,260,1833.333)"><g><path d="M0.00242204,-6773.333 L3728720,-6772 " stroke-width="3386.667" stroke-linejoin="round" stroke-miterlimit="13.33333" stroke="#000000" fill="none" fill-rule="evenodd" /><path d="M-0.00121102,3386.667 L3728720,3388 " stroke-width="10160" stroke-linejoin="round" stroke-miterlimit="13.33333" stroke="#000000" fill="none" fill-rule="evenodd" /></g></g></g><g clip-path="url(#clip008)"><g transform="matrix(0.000656168,0,0,0.000656168,395.3333,1827.333)"><path d="M0,8128 L414528,6096 L414528,6096 L829056,2032 L829056,2032 L1243584,0 L1243584,0 L1658112,2032 L1658112,2032 L2072640,4064 L2072640,4064 L2487168,6096 L2487168,6096 L2901696,8128 L2901696,8128 L3316224,10160 " stroke-width="33866.67" stroke-linecap="round" stroke-linejoin="round" stroke-miterlimit="13.33333" stroke="#012169" fill="none" fill-rule="nonzero" /></g></g><g clip-path="url(#clip009)"><g transform="matrix(0.000656168,0,0,0.000656168,395.3333,1563.333)"><path d="M0,363728 L414528,310896 L414528,310896 L829056,85344 L829056,85344 L1243584,0 L1243584,0 L1658112,60960 L1658112,60960 L2072640,150368 L2072640,150368 L2487168,262128 L2487168,262128 L2901696,349504 L2901696,349504 L3316224,402336 " stroke-width="33866.67" stroke-linecap="round" stroke-linejoin="round" stroke-miterlimit="13.33333" stroke="#009cde" fill="none" fill-rule="nonzero" /></g></g><g clip-path="url(#clip010)"><g transform="matrix(0.000656168,0,0,0.000656168,395.3333,840.6667)"><path d="M0,1511808 L414528,1479296 L414528,1479296 L829056,1361440 L829056,1361440 L1243584,1154176 L1243584,1154176 L1658112,601472 L1658112,601472 L2072640,162560 L2072640,162560 L2487168,0 L2487168,0 L2901696,282448 L2901696,282448 L3316224,660400 " stroke-width="33866.67" stroke-linecap="round" stroke-linejoin="round" stroke-miterlimit="13.33333" stroke="#e56200" fill="none" fill-rule="nonzero" /></g></g><g clip-path="url(#clip011)"><g transform="matrix(0.000656168,0,0,0.000656168,395.3333,446)"><path d="M0,2115312 L414528,2115312 L414528,2115312 L829056,2115312 L829056,2115312 L1243584,2094992 L1243584,2094992 L1658112,1857248 L1658112,1857248 L2072640,1454912 L2072640,1454912 L2487168,877824 L2487168,877824 L2901696,453136 L2901696,453136 L3316224,0 " stroke-width="33866.67" stroke-linecap="round" stroke-linejoin="round" stroke-miterlimit="13.33333" stroke="#006980" fill="none" fill-rule="nonzero" /></g></g><g clip-path="url(#clip012)"><g transform="matrix(0.000656168,0,0,0.000656168,395.3333,828.6667)"><path d="M0,1532128 L414528,1532128 L414528,1532128 L829056,1532128 L829056,1532128 L1243584,1532128 L1243584,1532128 L1658112,1532128 L1658112,1532128 L2072640,1521968 L2072640,1521968 L2487168,1450848 L2487168,1450848 L2901696,853440 L2901696,853440 L3316224,0 " stroke-width="33866.67" stroke-linecap="round" stroke-linejoin="round" stroke-miterlimit="13.33333" stroke="#279f00" fill="none" fill-rule="nonzero" /></g></g><g><g clip-path="url(#clip013)"><g><g transform="translate(118,1863.182)"><text><tspan x="0" y="0" font-family="Connections Cond Light,Arial Narrow" font-weight="normal" font-style="normal" font-size="105.3333" fill="#000000">0</tspan></text></g></g></g></g><g><g clip-path="url(#clip014)"><g><g transform="translate(67.33334,1508.485)"><text><tspan x="0" y="0" font-family="Connections Cond Light,Arial Narrow" font-weight="normal" font-style="normal" font-size="105.3333" fill="#000000">30</tspan></text></g></g></g></g><g><g clip-path="url(#clip015)"><g><g transform="translate(67.33334,1153.787)"><text><tspan x="0" y="0" font-family="Connections Cond Light,Arial Narrow" font-weight="normal" font-style="normal" font-size="105.3333" fill="#000000">60</tspan></text></g></g></g></g><g><g clip-path="url(#clip016)"><g><g transform="translate(67.33334,799.0893)"><text><tspan x="0" y="0" font-family="Connections Cond Light,Arial Narrow" font-weight="normal" font-style="normal" font-size="105.3333" fill="#000000">90</tspan></text></g></g></g></g><g><g clip-path="url(#clip017)"><g><g transform="translate(16.66667,444.392)"><text><tspan x="0" y="0" font-family="Connections Cond Light,Arial Narrow" font-weight="normal" font-style="normal" font-size="105.3333" fill="#000000">120</tspan></text></g></g></g></g><g><g clip-path="url(#clip018)"><g><g transform="translate(16.66667,89.69466)"><text><tspan x="0" y="0" font-family="Connections Cond Light,Arial Narrow" font-weight="normal" font-style="normal" font-size="105.3333" fill="#000000">150</tspan></text></g></g></g></g><g><g clip-path="url(#clip019)"><g><g transform="translate(294.6255,1989.431)"><text><tspan x="0" y="0" font-family="Connections Cond Light,Arial Narrow" font-weight="normal" font-style="normal" font-size="105.3333" fill="#000000">2022</tspan></text></g></g></g></g><g><g clip-path="url(#clip020)"><g><g transform="translate(566.5442,1989.431)"><text><tspan x="0" y="0" font-family="Connections Cond Light,Arial Narrow" font-weight="normal" font-style="normal" font-size="105.3333" fill="#000000">2023</tspan></text></g></g></g></g><g><g clip-path="url(#clip021)"><g><g transform="translate(838.4628,1989.431)"><text><tspan x="0" y="0" font-family="Connections Cond Light,Arial Narrow" font-weight="normal" font-style="normal" font-size="105.3333" fill="#000000">2024</tspan></text></g></g></g></g><g><g clip-path="url(#clip022)"><g><g transform="translate(1110.381,1989.431)"><text><tspan x="0" y="0" font-family="Connections Cond Light,Arial Narrow" font-weight="normal" font-style="normal" font-size="105.3333" fill="#000000">2025</tspan></text></g></g></g></g><g><g clip-path="url(#clip023)"><g><g transform="translate(1358.134,1989.431)"><text><tspan x="0" y="0" font-family="Connections Cond Light,Arial Narrow" font-weight="normal" font-style="normal" font-size="105.3333" fill="#000000">2026E</tspan></text></g></g></g></g><g><g clip-path="url(#clip024)"><g><g transform="translate(1630.053,1989.431)"><text><tspan x="0" y="0" font-family="Connections Cond Light,Arial Narrow" font-weight="normal" font-style="normal" font-size="105.3333" fill="#000000">2027E</tspan></text></g></g></g></g><g><g clip-path="url(#clip025)"><g><g transform="translate(1901.971,1989.431)"><text><tspan x="0" y="0" font-family="Connections Cond Light,Arial Narrow" font-weight="normal" font-style="normal" font-size="105.3333" fill="#000000">2028E</tspan></text></g></g></g></g><g><g clip-path="url(#clip026)"><g><g transform="translate(2173.89,1989.431)"><text><tspan x="0" y="0" font-family="Connections Cond Light,Arial Narrow" font-weight="normal" font-style="normal" font-size="105.3333" fill="#000000">2029E</tspan></text></g></g></g></g><g><g clip-path="url(#clip027)"><g><g transform="translate(2445.808,1989.431)"><text><tspan x="0" y="0" font-family="Connections Cond Light,Arial Narrow" font-weight="normal" font-style="normal" font-size="105.3333" fill="#000000">2030E</tspan></text></g></g></g></g><g clip-path="url(#clip028)"><g transform="matrix(0.000656168,0,0,0.000656168,217.3333,46.66667)"><path d="M0,0 L3793744,0 L3793744,245872 L0,245872 Z" fill="#156082" fill-opacity="0" fill-rule="evenodd" /></g></g><g clip-path="url(#clip029)"><g transform="matrix(0.000656168,0,0,0.000656168,286,127.3333)"><path d="M0,0 L325120,1.333333 " stroke-width="33866.67" stroke-linecap="round" stroke-linejoin="round" stroke-miterlimit="13.33333" stroke="#012169" fill="none" fill-rule="evenodd" /></g></g><g><g clip-path="url(#clip030)"><g><g transform="translate(521.559,157.1785)"><text><tspan x="0" y="0" font-family="Connections Cond Light,Arial Narrow" font-weight="normal" font-style="normal" font-size="105.3333" fill="#000000">200G</tspan></text></g></g></g></g><g clip-path="url(#clip031)"><g transform="matrix(0.000656168,0,0,0.000656168,792.6667,127.3333)"><path d="M0,0 L325120,1.333333 " stroke-width="33866.67" stroke-linecap="round" stroke-linejoin="round" stroke-miterlimit="13.33333" stroke="#009cde" fill="none" fill-rule="evenodd" /></g></g><g><g clip-path="url(#clip032)"><g><g transform="translate(1028.698,157.1785)"><text><tspan x="0" y="0" font-family="Connections Cond Light,Arial Narrow" font-weight="normal" font-style="normal" font-size="105.3333" fill="#000000">400G</tspan></text></g></g></g></g><g clip-path="url(#clip033)"><g transform="matrix(0.000656168,0,0,0.000656168,1300.667,127.3333)"><path d="M0,0 L325120,1.333333 " stroke-width="33866.67" stroke-linecap="round" stroke-linejoin="round" stroke-miterlimit="13.33333" stroke="#e56200" fill="none" fill-rule="evenodd" /></g></g><g><g clip-path="url(#clip034)"><g><g transform="translate(1535.837,157.1785)"><text><tspan x="0" y="0" font-family="Connections Cond Light,Arial Narrow" font-weight="normal" font-style="normal" font-size="105.3333" fill="#000000">800G</tspan></text></g></g></g></g><g clip-path="url(#clip035)"><g transform="matrix(0.000656168,0,0,0.000656168,1807.333,127.3333)"><path d="M0,0 L325120,1.333333 " stroke-width="33866.67" stroke-linecap="round" stroke-linejoin="round" stroke-miterlimit="13.33333" stroke="#006980" fill="none" fill-rule="evenodd" /></g></g><g><g clip-path="url(#clip036)"><g><g transform="translate(2042.976,157.1785)"><text><tspan x="0" y="0" font-family="Connections Cond Light,Arial Narrow" font-weight="normal" font-style="normal" font-size="105.3333" fill="#000000">1.6T</tspan></text></g></g></g></g><g clip-path="url(#clip037)"><g transform="matrix(0.000656168,0,0,0.000656168,2274,127.3333)"><path d="M0,0 L325120,1.333333 " stroke-width="33866.67" stroke-linecap="round" stroke-linejoin="round" stroke-miterlimit="13.33333" stroke="#279f00" fill="none" fill-rule="evenodd" /></g></g><g><g clip-path="url(#clip038)"><g><g transform="translate(2510.228,157.1785)"><text><tspan x="0" y="0" font-family="Connections Cond Light,Arial Narrow" font-weight="normal" font-style="normal" font-size="105.3333" fill="#000000">3.2T</tspan></text></g></g></g></g><g /></g></g></g></g></g></g></g></g></g></svg>