<?xml version="1.0" encoding="UTF-8" standalone="no"?>
<svg xmlns:dc="http://purl.org/dc/elements/1.1/" xmlns:cc="http://creativecommons.org/ns#" xmlns:rdf="http://www.w3.org/1999/02/22-rdf-syntax-ns#" xmlns:svg="http://www.w3.org/2000/svg" xmlns="http://www.w3.org/2000/svg" viewBox="66.40125 396 650.6025 369.5" height="369.5" width="650.6025" xml:space="preserve" version="1.1" id="svg2">
  <metadata id="metadata8">
    <rdf:RDF>
      <cc:Work rdf:about="">
        <dc:format>image/svg+xml</dc:format>
        <dc:type rdf:resource="http://purl.org/dc/dcmitype/StillImage"/>
      </cc:Work>
    </rdf:RDF>
  </metadata>
  <defs id="defs6">
    <clipPath id="clipPath16" clipPathUnits="userSpaceOnUse">
      <path style="clip-rule:evenodd" id="path18" d="m 53.053,273.85 520.55,0 0,295.71 -520.55,0 0,-295.71 z"/>
    </clipPath>
    <clipPath id="clipPath26" clipPathUnits="userSpaceOnUse">
      <path style="clip-rule:evenodd" id="path28" d="m 53.053,273.85 520.55,0 0,295.71 -520.55,0 0,-295.71 z"/>
    </clipPath>
    <clipPath id="clipPath36" clipPathUnits="userSpaceOnUse">
      <path style="clip-rule:evenodd" id="path38" d="m 53.145,273.91 520.39,0 0,295.54 -520.39,0 0,-295.54 z"/>
    </clipPath>
    <clipPath id="clipPath60" clipPathUnits="userSpaceOnUse">
      <path style="clip-rule:evenodd" id="path62" d="m 53.145,273.91 520.39,0 0,295.54 -520.39,0 0,-295.54 z"/>
    </clipPath>
    <clipPath id="clipPath70" clipPathUnits="userSpaceOnUse">
      <path style="clip-rule:evenodd" id="path72" d="m 53.179,273.85 520.42,0 0,295.58 -520.42,0 0,-295.58 z"/>
    </clipPath>
    <clipPath id="clipPath82" clipPathUnits="userSpaceOnUse">
      <path style="clip-rule:evenodd" id="path84" d="m 53.179,273.85 520.42,0 0,295.58 -520.42,0 0,-295.58 z"/>
    </clipPath>
    <clipPath id="clipPath94" clipPathUnits="userSpaceOnUse">
      <path style="clip-rule:evenodd" id="path96" d="m 53.179,273.85 520.42,0 0,295.58 -520.42,0 0,-295.58 z"/>
    </clipPath>
    <clipPath id="clipPath106" clipPathUnits="userSpaceOnUse">
      <path style="clip-rule:evenodd" id="path108" d="m 53.179,273.85 520.42,0 0,295.58 -520.42,0 0,-295.58 z"/>
    </clipPath>
    <clipPath id="clipPath118" clipPathUnits="userSpaceOnUse">
      <path style="clip-rule:evenodd" id="path120" d="m 53.179,273.85 520.42,0 0,295.58 -520.42,0 0,-295.58 z"/>
    </clipPath>
    <clipPath id="clipPath130" clipPathUnits="userSpaceOnUse">
      <path style="clip-rule:evenodd" id="path132" d="m 53.179,273.85 520.42,0 0,295.58 -520.42,0 0,-295.58 z"/>
    </clipPath>
    <clipPath id="clipPath142" clipPathUnits="userSpaceOnUse">
      <path style="clip-rule:evenodd" id="path144" d="m 53.179,273.85 520.42,0 0,295.58 -520.42,0 0,-295.58 z"/>
    </clipPath>
    <clipPath id="clipPath154" clipPathUnits="userSpaceOnUse">
      <path style="clip-rule:evenodd" id="path156" d="m 53.179,273.85 520.42,0 0,295.58 -520.42,0 0,-295.58 z"/>
    </clipPath>
    <clipPath id="clipPath166" clipPathUnits="userSpaceOnUse">
      <path style="clip-rule:evenodd" id="path168" d="m 53.179,273.85 520.42,0 0,295.58 -520.42,0 0,-295.58 z"/>
    </clipPath>
    <clipPath id="clipPath178" clipPathUnits="userSpaceOnUse">
      <path style="clip-rule:evenodd" id="path180" d="m 53.179,273.85 520.42,0 0,295.58 -520.42,0 0,-295.58 z"/>
    </clipPath>
    <clipPath id="clipPath190" clipPathUnits="userSpaceOnUse">
      <path style="clip-rule:evenodd" id="path192" d="m 53.179,273.85 520.42,0 0,295.58 -520.42,0 0,-295.58 z"/>
    </clipPath>
    <clipPath id="clipPath202" clipPathUnits="userSpaceOnUse">
      <path style="clip-rule:evenodd" id="path204" d="m 53.179,273.85 520.42,0 0,295.58 -520.42,0 0,-295.58 z"/>
    </clipPath>
    <clipPath id="clipPath214" clipPathUnits="userSpaceOnUse">
      <path style="clip-rule:evenodd" id="path216" d="m 53.179,273.85 520.42,0 0,295.58 -520.42,0 0,-295.58 z"/>
    </clipPath>
    <clipPath id="clipPath226" clipPathUnits="userSpaceOnUse">
      <path style="clip-rule:evenodd" id="path228" d="m 53.179,273.85 520.42,0 0,295.58 -520.42,0 0,-295.58 z"/>
    </clipPath>
    <clipPath id="clipPath238" clipPathUnits="userSpaceOnUse">
      <path style="clip-rule:evenodd" id="path240" d="m 53.179,273.85 520.42,0 0,295.58 -520.42,0 0,-295.58 z"/>
    </clipPath>
    <clipPath id="clipPath254" clipPathUnits="userSpaceOnUse">
      <path style="clip-rule:evenodd" id="path256" d="m 53.179,273.85 520.42,0 0,295.58 -520.42,0 0,-295.58 z"/>
    </clipPath>
    <clipPath id="clipPath268" clipPathUnits="userSpaceOnUse">
      <path style="clip-rule:evenodd" id="path270" d="m 53.179,273.85 520.42,0 0,295.58 -520.42,0 0,-295.58 z"/>
    </clipPath>
    <clipPath id="clipPath282" clipPathUnits="userSpaceOnUse">
      <path style="clip-rule:evenodd" id="path284" d="m 53.179,273.85 520.42,0 0,295.58 -520.42,0 0,-295.58 z"/>
    </clipPath>
    <clipPath id="clipPath296" clipPathUnits="userSpaceOnUse">
      <path style="clip-rule:evenodd" id="path298" d="m 53.179,273.85 520.42,0 0,295.58 -520.42,0 0,-295.58 z"/>
    </clipPath>
    <clipPath id="clipPath310" clipPathUnits="userSpaceOnUse">
      <path style="clip-rule:evenodd" id="path312" d="m 53.179,273.85 520.42,0 0,295.58 -520.42,0 0,-295.58 z"/>
    </clipPath>
    <clipPath id="clipPath324" clipPathUnits="userSpaceOnUse">
      <path style="clip-rule:evenodd" id="path326" d="m 53.179,273.85 520.42,0 0,295.58 -520.42,0 0,-295.58 z"/>
    </clipPath>
    <clipPath id="clipPath338" clipPathUnits="userSpaceOnUse">
      <path style="clip-rule:evenodd" id="path340" d="m 53.179,273.85 520.42,0 0,295.58 -520.42,0 0,-295.58 z"/>
    </clipPath>
    <clipPath id="clipPath350" clipPathUnits="userSpaceOnUse">
      <path style="clip-rule:evenodd" id="path352" d="m 53.179,401.81 270.69,0 0,17.558 -270.69,0 0,-17.558 z"/>
    </clipPath>
    <clipPath id="clipPath362" clipPathUnits="userSpaceOnUse">
      <path style="clip-rule:evenodd" id="path364" d="m 53.179,273.85 520.42,0 0,295.58 -520.42,0 0,-295.58 z"/>
    </clipPath>
    <clipPath id="clipPath374" clipPathUnits="userSpaceOnUse">
      <path style="clip-rule:evenodd" id="path376" d="m 53.179,273.85 520.42,0 0,295.58 -520.42,0 0,-295.58 z"/>
    </clipPath>
  </defs>
  <g transform="matrix(1.25,0,0,-1.25,0,1107.7875)" id="g10">
    <g id="g12">
      <g clip-path="url(#clipPath16)" id="g14">
        <path id="path20" style="fill:none;stroke:#000000;stroke-width:0.14;stroke-linecap:butt;stroke-linejoin:miter;stroke-miterlimit:10;stroke-dasharray:none;stroke-opacity:0" d="m 53.191,273.89 520.43,0 0,295.49 -520.43,0 0,-295.49 z"/>
      </g>
    </g>
    <g id="g22">
      <g clip-path="url(#clipPath26)" id="g24">
        <path id="path30" style="fill:#ffffff;fill-opacity:1;fill-rule:evenodd;stroke:none" d="m 53.191,273.89 520.43,0 0,295.49 -520.43,0 0,-295.49 z"/>
      </g>
    </g>
    <g id="g32">
      <g clip-path="url(#clipPath36)" id="g34">
        <path id="path40" style="fill:none;stroke:#c0c0c0;stroke-width:0.61088002;stroke-linecap:round;stroke-linejoin:round;stroke-miterlimit:10;stroke-dasharray:none;stroke-opacity:1" d="m 95.704,341.76 477.916,0 m -477.916,27.31 477.916,0 m -477.916,27.47 477.916,0 m -477.916,27.31 477.916,0 m -477.916,27.47 477.916,0 m -477.916,27.31 477.916,0 m -477.916,27.47 477.916,0 m -477.916,27.38 477.916,0"/>
      </g>
    </g>
    <path id="path42" style="fill:#005aa4;fill-opacity:1;fill-rule:nonzero;stroke:none" d="m 143.49,348.86 63.73,0 0,-34.52 -63.73,0 0,34.52 z m 159.25,14.81 63.73,0 0,-49.33 -63.73,0 0,49.33 z m 159.4,20.22 63.73,0 0,-69.55 -63.73,0 0,69.55 z"/>
    <path id="path44" style="fill:#eadfbc;fill-opacity:1;fill-rule:nonzero;stroke:none" d="m 143.49,370.77 63.73,0 0,-21.91 -63.73,0 0,21.91 z m 159.25,39.5 63.73,0 0,-46.6 -63.73,0 0,46.6 z m 159.4,37.19 63.73,0 0,-63.57 -63.73,0 0,63.57 z"/>
    <path id="path46" style="fill:#226b5a;fill-opacity:1;fill-rule:nonzero;stroke:none" d="m 143.49,378.49 63.73,0 0,-7.72 -63.73,0 0,7.72 z m 159.25,39.35 63.73,0 0,-7.57 -63.73,0 0,7.57 z m 159.4,37.34 63.73,0 0,-7.72 -63.73,0 0,7.72 z"/>
    <path id="path48" style="fill:#8cd5f2;fill-opacity:1;fill-rule:nonzero;stroke:none" d="m 143.49,384.97 63.73,0 0,-6.48 -63.73,0 0,6.48 z m 159.25,44.9 63.73,0 0,-12.03 -63.73,0 0,12.03 z m 159.4,45.06 63.73,0 0,-19.75 -63.73,0 0,19.75 z"/>
    <path id="path50" style="fill:#d0b86a;fill-opacity:1;fill-rule:nonzero;stroke:none" d="m 462.14,474.93 63.729,0 0,10.339 -63.729,0 0,-10.339 z"/>
    <path id="path52" style="fill:#93decc;fill-opacity:1;fill-rule:nonzero;stroke:none" d="m 143.49,389.91 63.73,0 0,-4.94 -63.73,0 0,4.94 z m 159.25,46.6 63.73,0 0,-6.64 -63.73,0 0,6.64 z m 159.4,56.47 63.73,0 0,-7.71 -63.73,0 0,7.71 z"/>
    <path id="path54" style="fill:#6769e2;fill-opacity:1;fill-rule:nonzero;stroke:none" d="m 143.49,396.54 63.73,0 0,-6.63 -63.73,0 0,6.63 z m 159.25,49.22 63.73,0 0,-9.25 -63.73,0 0,9.25 z m 159.4,57.56 63.73,0 0,-10.34 -63.73,0 0,10.34 z"/>
    <g id="g56">
      <g clip-path="url(#clipPath60)" id="g58">
        <path id="path64" style="fill:none;stroke:#808080;stroke-width:1.52719998;stroke-linecap:round;stroke-linejoin:round;stroke-miterlimit:10;stroke-dasharray:none;stroke-opacity:1" d="m 95.704,314.34 477.916,0"/>
      </g>
    </g>
    <g id="g66">
      <g clip-path="url(#clipPath70)" id="g68"><text id="text74" style="font-variant:normal;font-weight:normal;font-size:10.96800041px;font-family:'Roboto Condensed';-inkscape-font-specification:RobotoCondensed-Regular;writing-mode:lr-tb;fill:#000000;fill-opacity:1;fill-rule:nonzero;stroke:none" transform="matrix(1,0,0,-1,75.305072,310.93)"><tspan id="tspan76" y="0" x="0">-</tspan></text>
</g>
    </g>
    <g id="g78">
      <g clip-path="url(#clipPath82)" id="g80"><text id="text86" style="font-variant:normal;font-weight:normal;font-size:10.96800041px;font-family:'Roboto Condensed';-inkscape-font-specification:RobotoCondensed-Regular;writing-mode:lr-tb;fill:#000000;fill-opacity:1;fill-rule:nonzero;stroke:none" transform="matrix(1,0,0,-1,72.237672,338.32)"><tspan id="tspan88" y="0" x="0 5.3852878">50</tspan></text>
</g>
    </g>
    <g id="g90">
      <g clip-path="url(#clipPath94)" id="g92"><text id="text98" style="font-variant:normal;font-weight:normal;font-size:10.94699955px;font-family:'Roboto Condensed';-inkscape-font-specification:RobotoCondensed-Regular;writing-mode:lr-tb;fill:#000000;fill-opacity:1;fill-rule:nonzero;stroke:none" transform="matrix(1,0,0,-1,66.801863,365.71)"><tspan id="tspan100" y="0" x="0 5.4078178 10.936053">100</tspan></text>
</g>
    </g>
    <g id="g102">
      <g clip-path="url(#clipPath106)" id="g104"><text id="text110" style="font-variant:normal;font-weight:normal;font-size:10.96800041px;font-family:'Roboto Condensed';-inkscape-font-specification:RobotoCondensed-Regular;writing-mode:lr-tb;fill:#000000;fill-opacity:1;fill-rule:nonzero;stroke:none" transform="matrix(1,0,0,-1,66.806672,393.12)"><tspan id="tspan112" y="0" x="0 5.3852878 10.935096">150</tspan></text>
</g>
    </g>
    <g id="g114">
      <g clip-path="url(#clipPath118)" id="g116"><text id="text122" style="font-variant:normal;font-weight:normal;font-size:10.96800041px;font-family:'Roboto Condensed';-inkscape-font-specification:RobotoCondensed-Regular;writing-mode:lr-tb;fill:#000000;fill-opacity:1;fill-rule:nonzero;stroke:none" transform="matrix(1,0,0,-1,66.806672,420.51)"><tspan id="tspan124" y="0" x="0 5.3852878 10.935096">200</tspan></text>
</g>
    </g>
    <g id="g126">
      <g clip-path="url(#clipPath130)" id="g128"><text id="text134" style="font-variant:normal;font-weight:normal;font-size:10.94699955px;font-family:'Roboto Condensed';-inkscape-font-specification:RobotoCondensed-Regular;writing-mode:lr-tb;fill:#000000;fill-opacity:1;fill-rule:nonzero;stroke:none" transform="matrix(1,0,0,-1,66.801863,447.89)"><tspan id="tspan136" y="0" x="0 5.4078178 10.936053">250</tspan></text>
</g>
    </g>
    <g id="g138">
      <g clip-path="url(#clipPath142)" id="g140"><text id="text146" style="font-variant:normal;font-weight:normal;font-size:10.96800041px;font-family:'Roboto Condensed';-inkscape-font-specification:RobotoCondensed-Regular;writing-mode:lr-tb;fill:#000000;fill-opacity:1;fill-rule:nonzero;stroke:none" transform="matrix(1,0,0,-1,66.806672,475.31)"><tspan id="tspan148" y="0" x="0 5.3852878 10.935096">300</tspan></text>
</g>
    </g>
    <g id="g150">
      <g clip-path="url(#clipPath154)" id="g152"><text id="text158" style="font-variant:normal;font-weight:normal;font-size:10.96800041px;font-family:'Roboto Condensed';-inkscape-font-specification:RobotoCondensed-Regular;writing-mode:lr-tb;fill:#000000;fill-opacity:1;fill-rule:nonzero;stroke:none" transform="matrix(1,0,0,-1,66.806672,502.69)"><tspan id="tspan160" y="0" x="0 5.3852878 10.935096">350</tspan></text>
</g>
    </g>
    <g id="g162">
      <g clip-path="url(#clipPath166)" id="g164"><text id="text170" style="font-variant:normal;font-weight:normal;font-size:10.94699955px;font-family:'Roboto Condensed';-inkscape-font-specification:RobotoCondensed-Regular;writing-mode:lr-tb;fill:#000000;fill-opacity:1;fill-rule:nonzero;stroke:none" transform="matrix(1,0,0,-1,66.801863,530.08)"><tspan id="tspan172" y="0" x="0 5.4078178 10.936053">400</tspan></text>
</g>
    </g>
    <g id="g174">
      <g clip-path="url(#clipPath178)" id="g176"><text id="text182" style="font-variant:normal;font-weight:normal;font-size:10.94699955px;font-family:'Roboto Condensed';-inkscape-font-specification:RobotoCondensed-Regular;writing-mode:lr-tb;fill:#000000;fill-opacity:1;fill-rule:nonzero;stroke:none" transform="matrix(1,0,0,-1,157.05307,296.8)"><tspan id="tspan184" y="0" x="0 5.232666 10.782795 17.898346 20.646042 25.769238 31.144215">Low-end</tspan></text>
</g>
    </g>
    <g id="g186">
      <g clip-path="url(#clipPath190)" id="g188"><text id="text194" style="font-variant:normal;font-weight:normal;font-size:10.94699955px;font-family:'Roboto Condensed';-inkscape-font-specification:RobotoCondensed-Regular;writing-mode:lr-tb;fill:#000000;fill-opacity:1;fill-rule:nonzero;stroke:none" transform="matrix(1,0,0,-1,317.20307,296.8)"><tspan id="tspan196" y="0" x="0 8.3306665 10.793742 16.34387 18.971151 24.203817 29.44743">Mid-end</tspan></text>
</g>
    </g>
    <g id="g198">
      <g clip-path="url(#clipPath202)" id="g200"><text id="text206" style="font-variant:normal;font-weight:normal;font-size:10.94699955px;font-family:'Roboto Condensed';-inkscape-font-specification:RobotoCondensed-Regular;writing-mode:lr-tb;fill:#000000;fill-opacity:1;fill-rule:nonzero;stroke:none" transform="matrix(1,0,0,-1,474.65307,296.8)"><tspan id="tspan208" y="0" x="0 6.7871399 9.3815794 14.77845 20.011116 22.780706 27.903902 33.256985">High-end</tspan></text>
</g>
    </g>
    <g id="g210">
      <g clip-path="url(#clipPath214)" id="g212"><text id="text218" style="font-variant:normal;font-weight:bold;font-size:13.43200016px;font-family:'Roboto Condensed';-inkscape-font-specification:RobotoCondensed-Bold;writing-mode:lr-tb;fill:#000000;fill-opacity:1;fill-rule:nonzero;stroke:none" transform="matrix(1,0,0,-1,201.22,547.37)"><tspan id="tspan220" y="0" x="0 7.5353522 15.554256 23.129904 31.148808 34.238167 37.623032 44.271873 52.774326 57.220322 67.267456 70.652321 77.31459 81.760582 88.369125 91.780853 98.564018">BABA low/mid/high</tspan></text>
</g>
    </g>
    <g id="g222">
      <g clip-path="url(#clipPath226)" id="g224"><text id="text230" style="font-variant:normal;font-weight:bold;font-size:13.43200016px;font-family:'Roboto Condensed';-inkscape-font-specification:RobotoCondensed-Bold;writing-mode:lr-tb;fill:#000000;fill-opacity:1;fill-rule:nonzero;stroke:none" transform="matrix(1,0,0,-1,306.51,547.37)"><tspan id="tspan232" y="0" x="0">-</tspan></text>
</g>
    </g>
    <g id="g234">
      <g clip-path="url(#clipPath238)" id="g236"><text id="text242" style="font-variant:normal;font-weight:bold;font-size:13.43200016px;font-family:'Roboto Condensed';-inkscape-font-specification:RobotoCondensed-Bold;writing-mode:lr-tb;fill:#000000;fill-opacity:1;fill-rule:nonzero;stroke:none" transform="matrix(1,0,0,-1,311.43,547.37)"><tspan id="tspan244" y="0" x="0 6.4742241 13.109632 19.771904 22.538897 29.792175 37.972263 45.265839 52.787762 56.01144 60.349976 68.059944 75.313225 79.799515 85.978233 92.61364 98.940109 103.39954 109.90063">end SOTP (US/share)</tspan></text>
</g>
    </g>
    <path id="path246" style="fill:#ffffff;fill-opacity:1;fill-rule:evenodd;stroke:none" d="m 85.001,525.08 466.06,0 0,19.518 -466.06,0 0,-19.518 z"/>
    <path id="path248" style="fill:#005aa4;fill-opacity:1;fill-rule:evenodd;stroke:none" d="m 101.7,531.87 5.9378,0 0,5.9377 -5.9378,0 0,-5.9377 z"/>
    <g id="g250">
      <g clip-path="url(#clipPath254)" id="g252"><text id="text258" style="font-variant:normal;font-weight:normal;font-size:10.96800041px;font-family:'Roboto Condensed';-inkscape-font-specification:RobotoCondensed-Regular;writing-mode:lr-tb;fill:#000000;fill-opacity:1;fill-rule:nonzero;stroke:none" transform="matrix(1,0,0,-1,110.17,531.45)"><tspan id="tspan260" y="0" x="0 5.3852878 8.1492243 13.21644 18.788183 26.959345 35.284058 40.373207 43.75135 48.818569">E-commerce</tspan></text>
</g>
    </g>
    <path id="path262" style="fill:#eadfbc;fill-opacity:1;fill-rule:evenodd;stroke:none" d="m 182.95,531.87 5.9378,0 0,5.9377 -5.9378,0 0,-5.9377 z"/>
    <g id="g264">
      <g clip-path="url(#clipPath268)" id="g266"><text id="text272" style="font-variant:normal;font-weight:normal;font-size:10.96800041px;font-family:'Roboto Condensed';-inkscape-font-specification:RobotoCondensed-Regular;writing-mode:lr-tb;fill:#000000;fill-opacity:1;fill-rule:nonzero;stroke:none" transform="matrix(1,0,0,-1,191.43,531.45)"><tspan id="tspan274" y="0" x="0 6.1640158 8.785368 14.192592 19.588848">Cloud</tspan></text>
</g>
    </g>
    <path id="path276" style="fill:#226b5a;fill-opacity:1;fill-rule:evenodd;stroke:none" d="m 232.68,531.87 5.9378,0 0,5.9377 -5.9378,0 0,-5.9377 z"/>
    <g id="g278">
      <g clip-path="url(#clipPath282)" id="g280"><text id="text286" style="font-variant:normal;font-weight:normal;font-size:10.96800041px;font-family:'Roboto Condensed';-inkscape-font-specification:RobotoCondensed-Regular;writing-mode:lr-tb;fill:#000000;fill-opacity:1;fill-rule:nonzero;stroke:none" transform="matrix(1,0,0,-1,241.18,531.45)"><tspan id="tspan288" y="0" x="0 6.3175678 9.0815039 15.388104">AIDC</tspan></text>
</g>
    </g>
    <path id="path290" style="fill:#8cd5f2;fill-opacity:1;fill-rule:evenodd;stroke:none" d="m 278.96,531.87 5.9377,0 0,5.9377 -5.9377,0 0,-5.9377 z"/>
    <g id="g292">
      <g clip-path="url(#clipPath296)" id="g294"><text id="text300" style="font-variant:normal;font-weight:normal;font-size:10.96800041px;font-family:'Roboto Condensed';-inkscape-font-specification:RobotoCondensed-Regular;writing-mode:lr-tb;fill:#000000;fill-opacity:1;fill-rule:nonzero;stroke:none" transform="matrix(1,0,0,-1,287.45,531.45)"><tspan id="tspan302" y="0" x="0 5.7143278 8.4892321 15.289392 20.378544 25.632215">T-Head</tspan></text>
</g>
    </g>
    <path id="path304" style="fill:#d0b86a;fill-opacity:1;fill-rule:evenodd;stroke:none" d="m 334.78,531.87 5.9377,0 0,5.9377 -5.9377,0 0,-5.9377 z"/>
    <g id="g306">
      <g clip-path="url(#clipPath310)" id="g308"><text id="text314" style="font-variant:normal;font-weight:normal;font-size:10.96800041px;font-family:'Roboto Condensed';-inkscape-font-specification:RobotoCondensed-Regular;writing-mode:lr-tb;fill:#000000;fill-opacity:1;fill-rule:nonzero;stroke:none" transform="matrix(1,0,0,-1,343.31,531.45)"><tspan id="tspan316" y="0" x="0 6.6246719 13.720968 18.81012">Qwen</tspan></text>
</g>
    </g>
    <path id="path318" style="fill:#93decc;fill-opacity:1;fill-rule:evenodd;stroke:none" d="m 383.69,531.87 5.9377,0 0,5.9377 -5.9377,0 0,-5.9377 z"/>
    <g id="g320">
      <g clip-path="url(#clipPath324)" id="g322"><text id="text328" style="font-variant:normal;font-weight:normal;font-size:10.96800041px;font-family:'Roboto Condensed';-inkscape-font-specification:RobotoCondensed-Regular;writing-mode:lr-tb;fill:#000000;fill-opacity:1;fill-rule:nonzero;stroke:none" transform="matrix(1,0,0,-1,392.21,531.45)"><tspan id="tspan330" y="0" x="0 6.7891922 11.922216 15.289392 17.801064 22.86828 28.121952 33.079487 38.475742 42.500999 45.912048 51.461857 56.551006 61.958233 65.193794">Net cash/(debt)</tspan></text>
</g>
    </g>
    <path id="path332" style="fill:#6769e2;fill-opacity:1;fill-rule:evenodd;stroke:none" d="m 477.07,531.87 5.9377,0 0,5.9377 -5.9377,0 0,-5.9377 z"/>
    <g id="g334">
      <g clip-path="url(#clipPath338)" id="g336"><text id="text342" style="font-variant:normal;font-weight:normal;font-size:10.96800041px;font-family:'Roboto Condensed';-inkscape-font-specification:RobotoCondensed-Regular;writing-mode:lr-tb;fill:#000000;fill-opacity:1;fill-rule:nonzero;stroke:none" transform="matrix(1,0,0,-1,485.62,531.45)"><tspan id="tspan344" y="0" x="0 2.763936 8.0066404 12.77772 17.866873 22.945057 26.180616 34.351776 39.583511 44.826218 48.061775">Investments</tspan></text>
</g>
    </g>
    <g id="g346">
      <g clip-path="url(#clipPath350)" id="g348"><text id="text354" style="font-variant:normal;font-weight:bold;font-size:13.43200016px;font-family:'Roboto Condensed';-inkscape-font-specification:RobotoCondensed-Bold;writing-mode:lr-tb;fill:#000000;fill-opacity:1;fill-rule:nonzero;stroke:none" transform="matrix(1,0,0,-1,155.26,402.11)"><tspan id="tspan356" y="0" x="0 7.7099681 14.963248 21.75984 28.556433 35.353024">US$150</tspan></text>
</g>
    </g>
    <g id="g358">
      <g clip-path="url(#clipPath362)" id="g360"><text id="text366" style="font-variant:normal;font-weight:bold;font-size:13.43200016px;font-family:'Roboto Condensed';-inkscape-font-specification:RobotoCondensed-Bold;writing-mode:lr-tb;fill:#000000;fill-opacity:1;fill-rule:nonzero;stroke:none" transform="matrix(1,0,0,-1,312.88,455.62)"><tspan id="tspan368" y="0" x="0 7.669672 14.922952 21.719543 28.516136 35.312729">US$240</tspan></text>
</g>
    </g>
    <g id="g370">
      <g clip-path="url(#clipPath374)" id="g372"><text id="text378" style="font-variant:normal;font-weight:bold;font-size:13.43200016px;font-family:'Roboto Condensed';-inkscape-font-specification:RobotoCondensed-Bold;writing-mode:lr-tb;fill:#000000;fill-opacity:1;fill-rule:nonzero;stroke:none" transform="matrix(1,0,0,-1,471.01,511.35)"><tspan id="tspan380" y="0" x="0 7.669672 14.922952 21.719543 28.516136 35.312729">US$345</tspan></text>
</g>
    </g>
  </g>
</svg>
