<?xml version="1.0" encoding="UTF-8" standalone="no"?>
<svg xmlns:dc="http://purl.org/dc/elements/1.1/" xmlns:cc="http://creativecommons.org/ns#" xmlns:rdf="http://www.w3.org/1999/02/22-rdf-syntax-ns#" xmlns:svg="http://www.w3.org/2000/svg" xmlns="http://www.w3.org/2000/svg" viewBox="109.8075 67.74 770.0625 629.5625" height="629.5625" width="770.0625" xml:space="preserve" version="1.1" id="svg2">
  <metadata id="metadata8">
    <rdf:RDF>
      <cc:Work rdf:about="">
        <dc:format>image/svg+xml</dc:format>
        <dc:type rdf:resource="http://purl.org/dc/dcmitype/StillImage"/>
      </cc:Work>
    </rdf:RDF>
  </metadata>
  <defs id="defs6">
    <clipPath id="clipPath16" clipPathUnits="userSpaceOnUse">
      <path style="clip-rule:evenodd" id="path18" d="m 87.84,54 616.2,0 0,504 -616.2,0 0,-504 z"/>
    </clipPath>
    <clipPath id="clipPath36" clipPathUnits="userSpaceOnUse">
      <path style="clip-rule:evenodd" id="path38" d="m 87.96,54.24 615.96,0 0,503.64 -615.96,0 0,-503.64 z"/>
    </clipPath>
    <clipPath id="clipPath48" clipPathUnits="userSpaceOnUse">
      <path style="clip-rule:evenodd" id="path50" d="m 87.96,54.24 615.96,0 0,503.64 -615.96,0 0,-503.64 z"/>
    </clipPath>
    <clipPath id="clipPath60" clipPathUnits="userSpaceOnUse">
      <path style="clip-rule:evenodd" id="path62" d="m 87.96,54.24 615.96,0 0,503.64 -615.96,0 0,-503.64 z"/>
    </clipPath>
    <clipPath id="clipPath72" clipPathUnits="userSpaceOnUse">
      <path style="clip-rule:evenodd" id="path74" d="m 87.96,54.24 615.96,0 0,503.64 -615.96,0 0,-503.64 z"/>
    </clipPath>
    <clipPath id="clipPath84" clipPathUnits="userSpaceOnUse">
      <path style="clip-rule:evenodd" id="path86" d="m 87.96,54.24 615.96,0 0,503.64 -615.96,0 0,-503.64 z"/>
    </clipPath>
    <clipPath id="clipPath96" clipPathUnits="userSpaceOnUse">
      <path style="clip-rule:evenodd" id="path98" d="m 87.96,54.24 615.96,0 0,503.64 -615.96,0 0,-503.64 z"/>
    </clipPath>
    <clipPath id="clipPath108" clipPathUnits="userSpaceOnUse">
      <path style="clip-rule:evenodd" id="path110" d="m 87.96,54.24 615.96,0 0,503.64 -615.96,0 0,-503.64 z"/>
    </clipPath>
    <clipPath id="clipPath120" clipPathUnits="userSpaceOnUse">
      <path style="clip-rule:evenodd" id="path122" d="m 87.96,54.24 615.96,0 0,503.64 -615.96,0 0,-503.64 z"/>
    </clipPath>
    <clipPath id="clipPath132" clipPathUnits="userSpaceOnUse">
      <path style="clip-rule:evenodd" id="path134" d="m 87.96,54.24 615.96,0 0,503.64 -615.96,0 0,-503.64 z"/>
    </clipPath>
    <clipPath id="clipPath144" clipPathUnits="userSpaceOnUse">
      <path style="clip-rule:evenodd" id="path146" d="m 87.96,54.24 615.96,0 0,503.64 -615.96,0 0,-503.64 z"/>
    </clipPath>
    <clipPath id="clipPath156" clipPathUnits="userSpaceOnUse">
      <path style="clip-rule:evenodd" id="path158" d="m 87.96,54.24 615.96,0 0,503.64 -615.96,0 0,-503.64 z"/>
    </clipPath>
    <clipPath id="clipPath168" clipPathUnits="userSpaceOnUse">
      <path style="clip-rule:evenodd" id="path170" d="m 87.96,54.24 615.96,0 0,503.64 -615.96,0 0,-503.64 z"/>
    </clipPath>
    <clipPath id="clipPath180" clipPathUnits="userSpaceOnUse">
      <path style="clip-rule:evenodd" id="path182" d="m 87.96,54.24 615.96,0 0,503.64 -615.96,0 0,-503.64 z"/>
    </clipPath>
    <clipPath id="clipPath192" clipPathUnits="userSpaceOnUse">
      <path style="clip-rule:evenodd" id="path194" d="m 87.96,54.24 615.96,0 0,503.64 -615.96,0 0,-503.64 z"/>
    </clipPath>
    <clipPath id="clipPath204" clipPathUnits="userSpaceOnUse">
      <path style="clip-rule:evenodd" id="path206" d="m 87.96,54.24 615.96,0 0,503.64 -615.96,0 0,-503.64 z"/>
    </clipPath>
    <clipPath id="clipPath216" clipPathUnits="userSpaceOnUse">
      <path style="clip-rule:evenodd" id="path218" d="m 87.96,54.24 615.96,0 0,503.64 -615.96,0 0,-503.64 z"/>
    </clipPath>
    <clipPath id="clipPath228" clipPathUnits="userSpaceOnUse">
      <path style="clip-rule:evenodd" id="path230" d="m 87.96,54.24 615.96,0 0,503.64 -615.96,0 0,-503.64 z"/>
    </clipPath>
    <clipPath id="clipPath240" clipPathUnits="userSpaceOnUse">
      <path style="clip-rule:evenodd" id="path242" d="m 87.96,511.44 616.08,0 0,37.44 -616.08,0 0,-37.44 z"/>
    </clipPath>
    <clipPath id="clipPath252" clipPathUnits="userSpaceOnUse">
      <path style="clip-rule:evenodd" id="path254" d="m 87.96,511.44 616.08,0 0,37.44 -616.08,0 0,-37.44 z"/>
    </clipPath>
    <clipPath id="clipPath264" clipPathUnits="userSpaceOnUse">
      <path style="clip-rule:evenodd" id="path266" d="m 87.96,511.44 616.08,0 0,37.44 -616.08,0 0,-37.44 z"/>
    </clipPath>
    <clipPath id="clipPath280" clipPathUnits="userSpaceOnUse">
      <path style="clip-rule:evenodd" id="path282" d="m 87.96,54 616.08,0 0,503.88 -616.08,0 0,-503.88 z"/>
    </clipPath>
    <clipPath id="clipPath292" clipPathUnits="userSpaceOnUse">
      <path style="clip-rule:evenodd" id="path294" d="m 87.96,54 616.08,0 0,503.88 -616.08,0 0,-503.88 z"/>
    </clipPath>
    <clipPath id="clipPath304" clipPathUnits="userSpaceOnUse">
      <path style="clip-rule:evenodd" id="path306" d="m 87.96,54 616.08,0 0,503.88 -616.08,0 0,-503.88 z"/>
    </clipPath>
    <clipPath id="clipPath316" clipPathUnits="userSpaceOnUse">
      <path style="clip-rule:evenodd" id="path318" d="m 87.96,54 616.08,0 0,503.88 -616.08,0 0,-503.88 z"/>
    </clipPath>
    <clipPath id="clipPath328" clipPathUnits="userSpaceOnUse">
      <path style="clip-rule:evenodd" id="path330" d="m 88.2,235.92 579.24,0 0,83.4 -579.24,0 0,-83.4 z"/>
    </clipPath>
  </defs>
  <g transform="matrix(1.25,0,0,-1.25,0,765)" id="g10">
    <g id="g12">
      <g clip-path="url(#clipPath16)" id="g14">
        <path id="path20" style="fill:none;stroke:#000000;stroke-width:0.14;stroke-linecap:butt;stroke-linejoin:miter;stroke-miterlimit:10;stroke-dasharray:none;stroke-opacity:0" d="m 87.916,54.228 615.91,0 0,503.51 -615.91,0 0,-503.51 z"/>
      </g>
    </g>
    <path id="path22" style="fill:#ffffff;fill-opacity:1;fill-rule:evenodd;stroke:none" d="m 87.916,54.229 615.91,0 0,503.51 -615.91,0 0,-503.51 z"/>
    <path id="path24" style="fill:#ffffff;fill-opacity:1;fill-rule:evenodd;stroke:none" d="m 157.63,174.37 509.97,0 0,328.56 -509.97,0 0,-328.56 z"/>
    <path id="path26" style="fill:#d0b86a;fill-opacity:1;fill-rule:nonzero;stroke:none" d="m 164.75,233.58 28.31,0 0,105.17 -28.31,0 0,-105.17 z m 42.33,65.52 28.59,0 0,39.65 -28.59,0 0,-39.65 z m 42.61,-52.58 28.32,0 0,92.23 -28.32,0 0,-92.23 z m 42.61,13.21 28.31,0 0,79.02 -28.31,0 0,-79.02 z m 42.34,82.25 28.31,0 0,-3.23 -28.31,0 0,3.23 z m 42.6,0 28.32,0 0,-3.23 -28.32,0 0,3.23 z m 42.34,26.16 28.31,0 0,-29.39 -28.31,0 0,29.39 z m 42.61,115.14 28.31,0 0,-144.53 -28.31,0 0,144.53 z m 42.6,-88.71 28.32,0 0,-55.82 -28.32,0 0,55.82 z m 42.34,59.05 28.31,0 0,-114.87 -28.31,0 0,114.87 z m 42.61,-13.21 28.31,0 0,-101.66 -28.31,0 0,101.66 z m 42.33,3.5 28.32,0 0,-105.16 -28.32,0 0,105.16 z"/>
    <path id="path28" style="fill:none;stroke:#d0b86a;stroke-width:4.49440002;stroke-linecap:butt;stroke-linejoin:round;stroke-miterlimit:10;stroke-dasharray:none;stroke-opacity:1" d="m 164.75,233.58 28.31,0 0,105.17 -28.31,0 0,-105.17 z m 42.33,65.52 28.59,0 0,39.65 -28.59,0 0,-39.65 z m 42.61,-52.58 28.32,0 0,92.23 -28.32,0 0,-92.23 z m 42.61,13.21 28.31,0 0,79.02 -28.31,0 0,-79.02 z m 42.34,82.25 28.31,0 0,-3.23 -28.31,0 0,3.23 z m 42.6,0 28.32,0 0,-3.23 -28.32,0 0,3.23 z m 42.34,26.16 28.31,0 0,-29.39 -28.31,0 0,29.39 z m 42.61,115.14 28.31,0 0,-144.53 -28.31,0 0,144.53 z m 42.6,-88.71 28.32,0 0,-55.82 -28.32,0 0,55.82 z m 42.34,59.05 28.31,0 0,-114.87 -28.31,0 0,114.87 z m 42.61,-13.21 28.31,0 0,-101.66 -28.31,0 0,101.66 z m 42.33,3.5 28.32,0 0,-105.16 -28.32,0 0,105.16 z"/>
    <path id="path30" style="fill:none;stroke:#000000;stroke-width:3.37080002;stroke-linecap:butt;stroke-linejoin:round;stroke-miterlimit:10;stroke-dasharray:none;stroke-opacity:1" d="m 157.63,338.65 509.97,0"/>
    <g id="g32">
      <g clip-path="url(#clipPath36)" id="g34"><text id="text40" style="font-variant:normal;font-weight:normal;font-size:22.3920002px;font-family:'Roboto Condensed';-inkscape-font-specification:RobotoCondensed-Regular;writing-mode:lr-tb;fill:#000000;fill-opacity:1;fill-rule:nonzero;stroke:none" transform="matrix(1,0,0,-1,103.37,167.59)"><tspan id="tspan42" y="0" x="0 5.6427841 16.704432 22.593529">-5.0</tspan></text>
</g>
    </g>
    <g id="g44">
      <g clip-path="url(#clipPath48)" id="g46"><text id="text52" style="font-variant:normal;font-weight:normal;font-size:22.3920002px;font-family:'Roboto Condensed';-inkscape-font-specification:RobotoCondensed-Regular;writing-mode:lr-tb;fill:#000000;fill-opacity:1;fill-rule:nonzero;stroke:none" transform="matrix(1,0,0,-1,103.37,249.74)"><tspan id="tspan54" y="0" x="0 5.6427841 16.704432 22.593529">-2.5</tspan></text>
</g>
    </g>
    <g id="g56">
      <g clip-path="url(#clipPath60)" id="g58"><text id="text64" style="font-variant:normal;font-weight:normal;font-size:22.3920002px;font-family:'Roboto Condensed';-inkscape-font-specification:RobotoCondensed-Regular;writing-mode:lr-tb;fill:#000000;fill-opacity:1;fill-rule:nonzero;stroke:none" transform="matrix(1,0,0,-1,108.96,331.9)"><tspan id="tspan66" y="0" x="0 11.061648 16.950745">0.0</tspan></text>
</g>
    </g>
    <g id="g68">
      <g clip-path="url(#clipPath72)" id="g70"><text id="text76" style="font-variant:normal;font-weight:normal;font-size:22.3920002px;font-family:'Roboto Condensed';-inkscape-font-specification:RobotoCondensed-Regular;writing-mode:lr-tb;fill:#000000;fill-opacity:1;fill-rule:nonzero;stroke:none" transform="matrix(1,0,0,-1,108.96,414.05)"><tspan id="tspan78" y="0" x="0 11.061648 16.950745">2.5</tspan></text>
</g>
    </g>
    <g id="g80">
      <g clip-path="url(#clipPath84)" id="g82"><text id="text88" style="font-variant:normal;font-weight:normal;font-size:22.3920002px;font-family:'Roboto Condensed';-inkscape-font-specification:RobotoCondensed-Regular;writing-mode:lr-tb;fill:#000000;fill-opacity:1;fill-rule:nonzero;stroke:none" transform="matrix(1,0,0,-1,108.96,496.2)"><tspan id="tspan90" y="0" x="0 11.061648 16.950745">5.0</tspan></text>
</g>
    </g>
    <g id="g92">
      <g clip-path="url(#clipPath96)" id="g94"><text id="text100" style="font-variant:normal;font-weight:normal;font-size:22.3920002px;font-family:'Roboto Condensed';-inkscape-font-specification:RobotoCondensed-Regular;writing-mode:lr-tb;fill:#000000;fill-opacity:1;fill-rule:nonzero;stroke:none" transform="matrix(-4.4e-8,1,1,4.4e-8,186.72,94.224)"><tspan id="tspan102" y="0" x="0 16.973137 27.698904 34.506073 39.633839 43.619617 54.681263">Mar '26</tspan></text>
</g>
    </g>
    <g id="g104">
      <g clip-path="url(#clipPath108)" id="g106"><text id="text112" style="font-variant:normal;font-weight:normal;font-size:22.3920002px;font-family:'Roboto Condensed';-inkscape-font-specification:RobotoCondensed-Regular;writing-mode:lr-tb;fill:#000000;fill-opacity:1;fill-rule:nonzero;stroke:none" transform="matrix(-4.4e-8,1,1,4.4e-8,229.22,97.944)"><tspan id="tspan114" y="0" x="0 12.897792 23.937048 30.744217 36.118298 39.880154 50.941799">Apr '26</tspan></text>
</g>
    </g>
    <g id="g116">
      <g clip-path="url(#clipPath120)" id="g118"><text id="text124" style="font-variant:normal;font-weight:normal;font-size:22.3920002px;font-family:'Roboto Condensed';-inkscape-font-specification:RobotoCondensed-Regular;writing-mode:lr-tb;fill:#000000;fill-opacity:1;fill-rule:nonzero;stroke:none" transform="matrix(-4.4e-8,1,1,4.4e-8,271.73,96.192)"><tspan id="tspan126" y="0" x="0 10.815336 21.787416 32.625145 37.685738 41.693905 52.75555">Jun '26</tspan></text>
</g>
    </g>
    <g id="g128">
      <g clip-path="url(#clipPath132)" id="g130"><text id="text136" style="font-variant:normal;font-weight:normal;font-size:22.3920002px;font-family:'Roboto Condensed';-inkscape-font-specification:RobotoCondensed-Regular;writing-mode:lr-tb;fill:#000000;fill-opacity:1;fill-rule:nonzero;stroke:none" transform="matrix(-4.4e-8,1,1,4.4e-8,314.23,101.93)"><tspan id="tspan138" y="0" x="0 10.815336 21.787416 26.915184 32.042953 35.782417 46.844063">Jul '26</tspan></text>
</g>
    </g>
    <g id="g140">
      <g clip-path="url(#clipPath144)" id="g142"><text id="text148" style="font-variant:normal;font-weight:normal;font-size:22.3920002px;font-family:'Roboto Condensed';-inkscape-font-specification:RobotoCondensed-Regular;writing-mode:lr-tb;fill:#000000;fill-opacity:1;fill-rule:nonzero;stroke:none" transform="matrix(-4.4e-8,1,1,4.4e-8,356.74,95.544)"><tspan id="tspan150" y="0" x="0 11.599056 22.078512 33.117767 38.245537 42.343273 53.404919">Sep '26</tspan></text>
</g>
    </g>
    <g id="g152">
      <g clip-path="url(#clipPath156)" id="g154"><text id="text160" style="font-variant:normal;font-weight:normal;font-size:22.3920002px;font-family:'Roboto Condensed';-inkscape-font-specification:RobotoCondensed-Regular;writing-mode:lr-tb;fill:#000000;fill-opacity:1;fill-rule:nonzero;stroke:none" transform="matrix(-4.4e-8,1,1,4.4e-8,399.24,98.28)"><tspan id="tspan162" y="0" x="0 13.457592 23.981833 30.453119 35.580887 39.566666 50.628311">Oct '26</tspan></text>
</g>
    </g>
    <g id="g164">
      <g clip-path="url(#clipPath168)" id="g166"><text id="text172" style="font-variant:normal;font-weight:normal;font-size:22.3920002px;font-family:'Roboto Condensed';-inkscape-font-specification:RobotoCondensed-Regular;writing-mode:lr-tb;fill:#000000;fill-opacity:1;fill-rule:nonzero;stroke:none" transform="matrix(-4.4e-8,1,1,4.4e-8,441.74,95.04)"><tspan id="tspan174" y="0" x="0 12.942576 23.422031 33.767136 38.894905 42.903072 53.964722">Dec '26</tspan></text>
</g>
    </g>
    <g id="g176">
      <g clip-path="url(#clipPath180)" id="g178"><text id="text184" style="font-variant:normal;font-weight:normal;font-size:22.3920002px;font-family:'Roboto Condensed';-inkscape-font-specification:RobotoCondensed-Regular;writing-mode:lr-tb;fill:#000000;fill-opacity:1;fill-rule:nonzero;stroke:none" transform="matrix(-4.4e-8,1,1,4.4e-8,484.25,96.288)"><tspan id="tspan186" y="0" x="0 10.815336 21.541103 32.602753 37.730518 41.492374 52.554024">Jan '27</tspan></text>
</g>
    </g>
    <g id="g188">
      <g clip-path="url(#clipPath192)" id="g190"><text id="text196" style="font-variant:normal;font-weight:normal;font-size:22.3920002px;font-family:'Roboto Condensed';-inkscape-font-specification:RobotoCondensed-Regular;writing-mode:lr-tb;fill:#000000;fill-opacity:1;fill-rule:nonzero;stroke:none" transform="matrix(-4.4e-8,1,1,4.4e-8,526.75,94.224)"><tspan id="tspan198" y="0" x="0 16.973137 27.698904 34.506073 39.633839 43.619617 54.681263">Mar '27</tspan></text>
</g>
    </g>
    <g id="g200">
      <g clip-path="url(#clipPath204)" id="g202"><text id="text208" style="font-variant:normal;font-weight:normal;font-size:22.3920002px;font-family:'Roboto Condensed';-inkscape-font-specification:RobotoCondensed-Regular;writing-mode:lr-tb;fill:#000000;fill-opacity:1;fill-rule:nonzero;stroke:none" transform="matrix(-4.4e-8,1,1,4.4e-8,569.26,97.944)"><tspan id="tspan210" y="0" x="0 12.897792 23.937048 30.744217 36.118298 39.880154 50.941799">Apr '27</tspan></text>
</g>
    </g>
    <g id="g212">
      <g clip-path="url(#clipPath216)" id="g214"><text id="text220" style="font-variant:normal;font-weight:normal;font-size:22.3920002px;font-family:'Roboto Condensed';-inkscape-font-specification:RobotoCondensed-Regular;writing-mode:lr-tb;fill:#000000;fill-opacity:1;fill-rule:nonzero;stroke:none" transform="matrix(-4.4e-8,1,1,4.4e-8,611.76,96.192)"><tspan id="tspan222" y="0" x="0 10.815336 21.787416 32.625145 37.685738 41.693905 52.75555">Jun '27</tspan></text>
</g>
    </g>
    <g id="g224">
      <g clip-path="url(#clipPath228)" id="g226"><text id="text232" style="font-variant:normal;font-weight:normal;font-size:22.3920002px;font-family:'Roboto Condensed';-inkscape-font-specification:RobotoCondensed-Regular;writing-mode:lr-tb;fill:#000000;fill-opacity:1;fill-rule:nonzero;stroke:none" transform="matrix(-4.4e-8,1,1,4.4e-8,654.26,101.93)"><tspan id="tspan234" y="0" x="0 10.815336 21.787416 26.915184 32.042953 35.782417 46.844063">Jul '27</tspan></text>
</g>
    </g>
    <g id="g236">
      <g clip-path="url(#clipPath240)" id="g238"><text id="text244" style="font-variant:normal;font-weight:normal;font-size:22.36800003px;font-family:'Roboto Condensed';-inkscape-font-specification:RobotoCondensed-Regular;writing-mode:lr-tb;fill:#000000;fill-opacity:1;fill-rule:nonzero;stroke:none" transform="matrix(1,0,0,-1,200.14,527.45)"><tspan id="tspan246" y="0" x="0 16.977312 27.691584 34.491455 44.489952 54.958176">Market</tspan></text>
</g>
    </g>
    <g id="g248">
      <g clip-path="url(#clipPath252)" id="g250"><text id="text256" style="font-variant:normal;font-weight:normal;font-size:22.36800003px;font-family:'Roboto Condensed';-inkscape-font-specification:RobotoCondensed-Regular;writing-mode:lr-tb;fill:#000000;fill-opacity:1;fill-rule:nonzero;stroke:none" transform="matrix(1,0,0,-1,261.89,527.45)"><tspan id="tspan258" y="0" x="0">-</tspan></text>
</g>
    </g>
    <g id="g260">
      <g clip-path="url(#clipPath264)" id="g262"><text id="text268" style="font-variant:normal;font-weight:normal;font-size:22.36800003px;font-family:'Roboto Condensed';-inkscape-font-specification:RobotoCondensed-Regular;writing-mode:lr-tb;fill:#000000;fill-opacity:1;fill-rule:nonzero;stroke:none" transform="matrix(1,0,0,-1,267.55,527.45)"><tspan id="tspan270" y="0" x="0 5.122272 21.853537 32.880959 38.003231 43.125504 53.683201 64.777725 70.392097 82.582657 93.811394 106.49405 111.61632 122.71085 129.51073 134.633 144.83279 149.95508 160.78119 171.80861 177.46771 188.49513 199.03046 205.83034 210.95261 227.63913 238.10736 248.64268 255.37546 260.49774 271.32385 282.35126 287.74194 294.7655 305.79294 316.82034">implied BoC pricing per meeting (bp)</tspan></text>
</g>
    </g>
    <g id="g272">
      <path id="path274" style="fill:none;stroke:#776426;stroke-width:4.49440002;stroke-linecap:butt;stroke-linejoin:miter;stroke-miterlimit:8;stroke-dasharray:17.978, 13.483;stroke-dashoffset:0;stroke-opacity:1" d="m 153.21,84.137 302.97,0 0,296.99 -302.97,0 0,-296.99 z"/>
    </g>
    <g id="g276">
      <g clip-path="url(#clipPath280)" id="g278"><text id="text284" style="font-variant:normal;font-weight:bold;font-size:18.0720005px;font-family:'Roboto Condensed';-inkscape-font-specification:RobotoCondensed-Bold;writing-mode:lr-tb;fill:#776426;fill-opacity:1;fill-rule:nonzero;stroke:none" transform="matrix(1,0,0,-1,336.5,294.12)"><tspan id="tspan286" y="0" x="0">-</tspan></text>
</g>
    </g>
    <g id="g288">
      <g clip-path="url(#clipPath292)" id="g290"><text id="text296" style="font-variant:normal;font-weight:bold;font-size:18.0720005px;font-family:'Roboto Condensed';-inkscape-font-specification:RobotoCondensed-Bold;writing-mode:lr-tb;fill:#776426;fill-opacity:1;fill-rule:nonzero;stroke:none" transform="matrix(1,0,0,-1,342.98,294.12)"><tspan id="tspan298" y="0" x="0 9.1444321 18.090073">8bp</tspan></text>
</g>
    </g>
    <g id="g300">
      <g clip-path="url(#clipPath304)" id="g302"><text id="text308" style="font-variant:normal;font-weight:bold;font-size:18.0720005px;font-family:'Roboto Condensed';-inkscape-font-specification:RobotoCondensed-Bold;writing-mode:lr-tb;fill:#776426;fill-opacity:1;fill-rule:nonzero;stroke:none" transform="matrix(1,0,0,-1,373.99,294.12)"><tspan id="tspan310" y="0" x="0 8.9456396 14.837112 19.391256 27.758593 36.415081">priced</tspan></text>
</g>
    </g>
    <g id="g312">
      <g clip-path="url(#clipPath316)" id="g314"><text id="text320" style="font-variant:normal;font-weight:bold;font-size:18.0720005px;font-family:'Roboto Condensed';-inkscape-font-specification:RobotoCondensed-Bold;writing-mode:lr-tb;fill:#776426;fill-opacity:1;fill-rule:nonzero;stroke:none" transform="matrix(1,0,0,-1,336.5,272.54)"><tspan id="tspan322" y="0" x="0 5.638464 14.529888 20.475576 29.385073 38.276497 47.438999 56.330425">through </tspan></text>
</g>
    </g>
    <g id="g324">
      <g clip-path="url(#clipPath328)" id="g326"><text id="text332" style="font-variant:normal;font-weight:bold;font-size:18.0720005px;font-family:'Roboto Condensed';-inkscape-font-specification:RobotoCondensed-Bold;writing-mode:lr-tb;fill:#776426;fill-opacity:1;fill-rule:nonzero;stroke:none" transform="matrix(1,0,0,-1,336.5,250.97)"><tspan id="tspan334" y="0" x="0 9.1680317 18.336063 27.504095">2026</tspan></text>
</g>
    </g>
  </g>
</svg>
