<?xml version="1.0" encoding="UTF-8" standalone="no"?>
<svg xmlns:dc="http://purl.org/dc/elements/1.1/" xmlns:cc="http://creativecommons.org/ns#" xmlns:rdf="http://www.w3.org/1999/02/22-rdf-syntax-ns#" xmlns:svg="http://www.w3.org/2000/svg" xmlns="http://www.w3.org/2000/svg" viewBox="63.06125 82 926.33875 580.3375" height="580.3375" width="926.33875" xml:space="preserve" version="1.1" id="svg2">
  <metadata id="metadata8">
    <rdf:RDF>
      <cc:Work rdf:about="">
        <dc:format>image/svg+xml</dc:format>
        <dc:type rdf:resource="http://purl.org/dc/dcmitype/StillImage"/>
      </cc:Work>
    </rdf:RDF>
  </metadata>
  <defs id="defs6">
    <clipPath id="clipPath16" clipPathUnits="userSpaceOnUse">
      <path style="clip-rule:evenodd" id="path18" d="m 50.399,65.521 741.12,0 0,464.28 -741.12,0 0,-464.28 z"/>
    </clipPath>
    <clipPath id="clipPath26" clipPathUnits="userSpaceOnUse">
      <path style="clip-rule:evenodd" id="path28" d="m 50.4,65.52 741.12,0 0,464.28 -741.12,0 0,-464.28 z"/>
    </clipPath>
    <clipPath id="clipPath44" clipPathUnits="userSpaceOnUse">
      <path style="clip-rule:evenodd" id="path46" d="m 50.496,65.52 740.92,0 0,464.22 -740.92,0 0,-464.22 z"/>
    </clipPath>
    <clipPath id="clipPath54" clipPathUnits="userSpaceOnUse">
      <path style="clip-rule:evenodd" id="path56" d="m 50.496,65.52 740.92,0 0,464.22 -740.92,0 0,-464.22 z"/>
    </clipPath>
    <clipPath id="clipPath92" clipPathUnits="userSpaceOnUse">
      <path style="clip-rule:evenodd" id="path94" d="m 50.52,65.52 741,0 0,464.16 -741,0 0,-464.16 z"/>
    </clipPath>
    <clipPath id="clipPath104" clipPathUnits="userSpaceOnUse">
      <path style="clip-rule:evenodd" id="path106" d="m 50.52,65.52 741,0 0,464.16 -741,0 0,-464.16 z"/>
    </clipPath>
    <clipPath id="clipPath116" clipPathUnits="userSpaceOnUse">
      <path style="clip-rule:evenodd" id="path118" d="m 50.52,65.52 741,0 0,464.16 -741,0 0,-464.16 z"/>
    </clipPath>
    <clipPath id="clipPath128" clipPathUnits="userSpaceOnUse">
      <path style="clip-rule:evenodd" id="path130" d="m 50.52,65.52 741,0 0,464.16 -741,0 0,-464.16 z"/>
    </clipPath>
    <clipPath id="clipPath140" clipPathUnits="userSpaceOnUse">
      <path style="clip-rule:evenodd" id="path142" d="m 50.52,65.52 741,0 0,464.16 -741,0 0,-464.16 z"/>
    </clipPath>
    <clipPath id="clipPath152" clipPathUnits="userSpaceOnUse">
      <path style="clip-rule:evenodd" id="path154" d="m 50.52,65.52 741,0 0,464.16 -741,0 0,-464.16 z"/>
    </clipPath>
    <clipPath id="clipPath164" clipPathUnits="userSpaceOnUse">
      <path style="clip-rule:evenodd" id="path166" d="m 50.52,65.52 741,0 0,464.16 -741,0 0,-464.16 z"/>
    </clipPath>
    <clipPath id="clipPath176" clipPathUnits="userSpaceOnUse">
      <path style="clip-rule:evenodd" id="path178" d="m 50.52,65.52 741,0 0,464.16 -741,0 0,-464.16 z"/>
    </clipPath>
    <clipPath id="clipPath188" clipPathUnits="userSpaceOnUse">
      <path style="clip-rule:evenodd" id="path190" d="m 50.52,65.52 741,0 0,464.16 -741,0 0,-464.16 z"/>
    </clipPath>
    <clipPath id="clipPath200" clipPathUnits="userSpaceOnUse">
      <path style="clip-rule:evenodd" id="path202" d="m 50.52,65.52 741,0 0,464.16 -741,0 0,-464.16 z"/>
    </clipPath>
    <clipPath id="clipPath212" clipPathUnits="userSpaceOnUse">
      <path style="clip-rule:evenodd" id="path214" d="m 50.52,65.52 741,0 0,464.16 -741,0 0,-464.16 z"/>
    </clipPath>
    <clipPath id="clipPath224" clipPathUnits="userSpaceOnUse">
      <path style="clip-rule:evenodd" id="path226" d="m 50.52,65.52 741,0 0,464.16 -741,0 0,-464.16 z"/>
    </clipPath>
    <clipPath id="clipPath236" clipPathUnits="userSpaceOnUse">
      <path style="clip-rule:evenodd" id="path238" d="m 50.52,65.52 741,0 0,464.16 -741,0 0,-464.16 z"/>
    </clipPath>
    <clipPath id="clipPath248" clipPathUnits="userSpaceOnUse">
      <path style="clip-rule:evenodd" id="path250" d="m 50.52,65.52 741,0 0,464.16 -741,0 0,-464.16 z"/>
    </clipPath>
    <clipPath id="clipPath260" clipPathUnits="userSpaceOnUse">
      <path style="clip-rule:evenodd" id="path262" d="m 50.52,65.52 741,0 0,464.16 -741,0 0,-464.16 z"/>
    </clipPath>
    <clipPath id="clipPath272" clipPathUnits="userSpaceOnUse">
      <path style="clip-rule:evenodd" id="path274" d="m 50.52,65.52 741,0 0,464.16 -741,0 0,-464.16 z"/>
    </clipPath>
    <clipPath id="clipPath284" clipPathUnits="userSpaceOnUse">
      <path style="clip-rule:evenodd" id="path286" d="m 50.52,65.52 741,0 0,464.16 -741,0 0,-464.16 z"/>
    </clipPath>
    <clipPath id="clipPath296" clipPathUnits="userSpaceOnUse">
      <path style="clip-rule:evenodd" id="path298" d="m 50.52,65.52 741,0 0,464.16 -741,0 0,-464.16 z"/>
    </clipPath>
    <clipPath id="clipPath308" clipPathUnits="userSpaceOnUse">
      <path style="clip-rule:evenodd" id="path310" d="m 50.52,65.52 741,0 0,464.16 -741,0 0,-464.16 z"/>
    </clipPath>
    <clipPath id="clipPath320" clipPathUnits="userSpaceOnUse">
      <path style="clip-rule:evenodd" id="path322" d="m 50.52,65.52 741,0 0,464.16 -741,0 0,-464.16 z"/>
    </clipPath>
    <clipPath id="clipPath332" clipPathUnits="userSpaceOnUse">
      <path style="clip-rule:evenodd" id="path334" d="m 50.52,65.52 741,0 0,464.16 -741,0 0,-464.16 z"/>
    </clipPath>
    <clipPath id="clipPath344" clipPathUnits="userSpaceOnUse">
      <path style="clip-rule:evenodd" id="path346" d="m 50.52,65.52 741,0 0,464.16 -741,0 0,-464.16 z"/>
    </clipPath>
    <clipPath id="clipPath356" clipPathUnits="userSpaceOnUse">
      <path style="clip-rule:evenodd" id="path358" d="m 50.52,65.52 741,0 0,464.16 -741,0 0,-464.16 z"/>
    </clipPath>
    <clipPath id="clipPath368" clipPathUnits="userSpaceOnUse">
      <path style="clip-rule:evenodd" id="path370" d="m 50.52,65.52 741,0 0,464.16 -741,0 0,-464.16 z"/>
    </clipPath>
    <clipPath id="clipPath380" clipPathUnits="userSpaceOnUse">
      <path style="clip-rule:evenodd" id="path382" d="m 50.52,65.52 741,0 0,464.16 -741,0 0,-464.16 z"/>
    </clipPath>
    <clipPath id="clipPath392" clipPathUnits="userSpaceOnUse">
      <path style="clip-rule:evenodd" id="path394" d="m 50.52,65.52 741,0 0,464.16 -741,0 0,-464.16 z"/>
    </clipPath>
    <clipPath id="clipPath404" clipPathUnits="userSpaceOnUse">
      <path style="clip-rule:evenodd" id="path406" d="m 50.52,65.52 741,0 0,464.16 -741,0 0,-464.16 z"/>
    </clipPath>
    <clipPath id="clipPath416" clipPathUnits="userSpaceOnUse">
      <path style="clip-rule:evenodd" id="path418" d="m 50.52,65.52 741,0 0,464.16 -741,0 0,-464.16 z"/>
    </clipPath>
    <clipPath id="clipPath428" clipPathUnits="userSpaceOnUse">
      <path style="clip-rule:evenodd" id="path430" d="m 50.52,65.52 741,0 0,464.16 -741,0 0,-464.16 z"/>
    </clipPath>
    <clipPath id="clipPath440" clipPathUnits="userSpaceOnUse">
      <path style="clip-rule:evenodd" id="path442" d="m 50.52,65.52 741,0 0,464.16 -741,0 0,-464.16 z"/>
    </clipPath>
  </defs>
  <g transform="matrix(1.25,0,0,-1.25,0,744.15)" id="g10">
    <g id="g12">
      <g clip-path="url(#clipPath16)" id="g14">
        <path id="path20" style="fill:none;stroke:#000000;stroke-width:0.14;stroke-linecap:butt;stroke-linejoin:miter;stroke-miterlimit:10;stroke-dasharray:none;stroke-opacity:0" d="m 50.519,65.49 741.1,0 0,464.23 -741.1,0 0,-464.23 z"/>
      </g>
    </g>
    <g id="g22">
      <g clip-path="url(#clipPath26)" id="g24">
        <path id="path30" style="fill:#ffffff;fill-opacity:1;fill-rule:evenodd;stroke:none" d="m 50.52,65.49 741.1,0 0,464.23 -741.1,0 0,-464.23 z"/>
      </g>
    </g>
    <path id="path32" style="fill:#137cb1;fill-opacity:1;fill-rule:evenodd;stroke:none" d="m 465.93,514.44 c 31.47,0 62.56,-6.92 91.05,-20.27 l -91.05,-194.3 0,214.57 z"/>
    <path id="path34" style="fill:none;stroke:#ffffff;stroke-width:2.4526999;stroke-linecap:butt;stroke-linejoin:round;stroke-miterlimit:10;stroke-dasharray:none;stroke-opacity:1" d="m 465.93,514.44 c 31.47,0 62.56,-6.92 91.05,-20.27 l -91.05,-194.3 0,214.57 z"/>
    <path id="path36" style="fill:#eacc80;fill-opacity:1;fill-rule:evenodd;stroke:none" d="m 556.98,494.17 c 107.31,-50.29 153.54,-178.04 103.25,-285.35 -1.33,-2.84 -2.72,-5.65 -4.17,-8.42 l -190.13,99.47 91.05,194.3 z"/>
    <path id="path38" style="fill:none;stroke:#ffffff;stroke-width:2.4526999;stroke-linecap:butt;stroke-linejoin:round;stroke-miterlimit:10;stroke-dasharray:none;stroke-opacity:1" d="m 556.98,494.17 c 107.31,-50.29 153.54,-178.04 103.25,-285.35 -1.33,-2.84 -2.72,-5.65 -4.17,-8.42 l -190.13,99.47 91.05,194.3 z"/>
    <g id="g40">
      <g clip-path="url(#clipPath44)" id="g42">
        <path id="path48" style="fill:#4aac6b;fill-opacity:1;fill-rule:evenodd;stroke:none" d="M 656.06,200.4 C 606.12,104.95 493.16,61.323 392.04,98.421 L 465.93,299.87 656.06,200.4 Z"/>
      </g>
    </g>
    <g id="g50">
      <g clip-path="url(#clipPath54)" id="g52">
        <path id="path58" style="fill:none;stroke:#ffffff;stroke-width:2.4526999;stroke-linecap:butt;stroke-linejoin:round;stroke-miterlimit:10;stroke-dasharray:none;stroke-opacity:1" d="M 656.06,200.4 C 606.12,104.95 493.16,61.323 392.04,98.421 L 465.93,299.87 656.06,200.4 Z"/>
      </g>
    </g>
    <path id="path60" style="fill:#a8d7e2;fill-opacity:1;fill-rule:evenodd;stroke:none" d="M 392.04,98.421 C 352.64,112.87 318.35,138.56 293.4,172.3 L 465.93,299.87 392.04,98.421 Z"/>
    <path id="path62" style="fill:none;stroke:#ffffff;stroke-width:2.4526999;stroke-linecap:butt;stroke-linejoin:round;stroke-miterlimit:10;stroke-dasharray:none;stroke-opacity:1" d="M 392.04,98.421 C 352.64,112.87 318.35,138.56 293.4,172.3 L 465.93,299.87 392.04,98.421 Z"/>
    <path id="path64" style="fill:#e58061;fill-opacity:1;fill-rule:evenodd;stroke:none" d="m 293.4,172.3 c -14.24,19.26 -25.16,40.77 -32.29,63.63 L 465.93,299.87 293.4,172.3 Z"/>
    <path id="path66" style="fill:none;stroke:#ffffff;stroke-width:2.4526999;stroke-linecap:butt;stroke-linejoin:round;stroke-miterlimit:10;stroke-dasharray:none;stroke-opacity:1" d="m 293.4,172.3 c -14.24,19.26 -25.16,40.77 -32.29,63.63 L 465.93,299.87 293.4,172.3 Z"/>
    <path id="path68" style="fill:#bce3a1;fill-opacity:1;fill-rule:evenodd;stroke:none" d="m 261.11,235.93 c -6.41,20.54 -9.7,41.92 -9.75,63.44 l 214.57,0.5 -204.82,-63.94 z"/>
    <path id="path70" style="fill:none;stroke:#ffffff;stroke-width:2.4526999;stroke-linecap:butt;stroke-linejoin:round;stroke-miterlimit:10;stroke-dasharray:none;stroke-opacity:1" d="m 261.11,235.93 c -6.41,20.54 -9.7,41.92 -9.75,63.44 l 214.57,0.5 -204.82,-63.94 z"/>
    <path id="path72" style="fill:#0b4a6a;fill-opacity:1;fill-rule:evenodd;stroke:none" d="m 251.36,299.37 c -0.02,9.08 0.54,18.15 1.67,27.16 l 212.9,-26.66 -214.57,-0.5 z"/>
    <path id="path74" style="fill:none;stroke:#ffffff;stroke-width:2.4526999;stroke-linecap:butt;stroke-linejoin:round;stroke-miterlimit:10;stroke-dasharray:none;stroke-opacity:1" d="m 251.36,299.37 c -0.02,9.08 0.54,18.15 1.67,27.16 l 212.9,-26.66 -214.57,-0.5 z"/>
    <path id="path76" style="fill:#ba8e1f;fill-opacity:1;fill-rule:evenodd;stroke:none" d="m 253.03,326.53 c 1.53,12.23 4.11,24.3 7.71,36.08 l 205.19,-62.74 -212.9,26.66 z"/>
    <path id="path78" style="fill:none;stroke:#ffffff;stroke-width:2.4526999;stroke-linecap:butt;stroke-linejoin:round;stroke-miterlimit:10;stroke-dasharray:none;stroke-opacity:1" d="m 253.03,326.53 c 1.53,12.23 4.11,24.3 7.71,36.08 l 205.19,-62.74 -212.9,26.66 z"/>
    <path id="path80" style="fill:#2c6740;fill-opacity:1;fill-rule:evenodd;stroke:none" d="m 260.74,362.61 c 20.69,67.65 73.39,120.76 140.88,141.97 l 64.31,-204.71 -205.19,62.74 z"/>
    <path id="path82" style="fill:none;stroke:#ffffff;stroke-width:2.4526999;stroke-linecap:butt;stroke-linejoin:round;stroke-miterlimit:10;stroke-dasharray:none;stroke-opacity:1" d="m 260.74,362.61 c 20.69,67.65 73.39,120.76 140.88,141.97 l 64.31,-204.71 -205.19,62.74 z"/>
    <path id="path84" style="fill:#3b9bb1;fill-opacity:1;fill-rule:evenodd;stroke:none" d="m 401.62,504.58 c 20.81,6.53 42.5,9.86 64.31,9.86 l 0,-214.57 -64.31,204.71 z"/>
    <path id="path86" style="fill:none;stroke:#ffffff;stroke-width:2.4526999;stroke-linecap:butt;stroke-linejoin:round;stroke-miterlimit:10;stroke-dasharray:none;stroke-opacity:1" d="m 401.62,504.58 c 20.81,6.53 42.5,9.86 64.31,9.86 l 0,-214.57 -64.31,204.71 z"/>
    <g id="g88">
      <g clip-path="url(#clipPath92)" id="g90"><text id="text96" style="font-variant:normal;font-weight:normal;font-size:14.73600006px;font-family:Calibri;-inkscape-font-specification:Calibri;writing-mode:lr-tb;fill:#ffffff;fill-opacity:1;fill-rule:nonzero;stroke:none" transform="matrix(1,0,0,-1,478.63,482.66)"><tspan id="tspan98" y="0" x="0 7.4711518 13.159248 20.6304 24.343872 31.815023 39.463009">2/1.6nm</tspan></text>
</g>
    </g>
    <g id="g100">
      <g clip-path="url(#clipPath104)" id="g102"><text id="text108" style="font-variant:normal;font-weight:normal;font-size:14.73600006px;font-family:Calibri;-inkscape-font-specification:Calibri;writing-mode:lr-tb;fill:#ffffff;fill-opacity:1;fill-rule:nonzero;stroke:none" transform="matrix(1,0,0,-1,529.85,482.66)"><tspan id="tspan110" y="0" x="0 3.72">, </tspan></text>
</g>
    </g>
    <g id="g112">
      <g clip-path="url(#clipPath116)" id="g114"><text id="text120" style="font-variant:normal;font-weight:normal;font-size:14.71199989px;font-family:Calibri;-inkscape-font-specification:Calibri;writing-mode:lr-tb;fill:#ffffff;fill-opacity:1;fill-rule:nonzero;stroke:none" transform="matrix(1,0,0,-1,491.38,464.59)"><tspan id="tspan122" y="0" x="0 7.4589839 11.166408 18.654816">7.0%</tspan></text>
</g>
    </g>
    <g id="g124">
      <g clip-path="url(#clipPath128)" id="g126"><text id="text132" style="font-variant:normal;font-weight:normal;font-size:14.71199989px;font-family:Calibri;-inkscape-font-specification:Calibri;writing-mode:lr-tb;fill:#404040;fill-opacity:1;fill-rule:nonzero;stroke:none" transform="matrix(1,0,0,-1,595.06,341.59)"><tspan id="tspan134" y="0" x="0 7.4589839 15.123936">3nm</tspan></text>
</g>
    </g>
    <g id="g136">
      <g clip-path="url(#clipPath140)" id="g138"><text id="text144" style="font-variant:normal;font-weight:normal;font-size:14.71199989px;font-family:Calibri;-inkscape-font-specification:Calibri;writing-mode:lr-tb;fill:#404040;fill-opacity:1;fill-rule:nonzero;stroke:none" transform="matrix(1,0,0,-1,621.96,341.59)"><tspan id="tspan146" y="0" x="0 3.72">, </tspan></text>
</g>
    </g>
    <g id="g148">
      <g clip-path="url(#clipPath152)" id="g150"><text id="text156" style="font-variant:normal;font-weight:normal;font-size:14.71199989px;font-family:Calibri;-inkscape-font-specification:Calibri;writing-mode:lr-tb;fill:#404040;fill-opacity:1;fill-rule:nonzero;stroke:none" transform="matrix(1,0,0,-1,629.02,341.59)"><tspan id="tspan158" y="0" x="0 7.464004 14.928008 18.640451 26.104456">25.7%</tspan></text>
</g>
    </g>
    <g id="g160">
      <g clip-path="url(#clipPath164)" id="g162"><text id="text168" style="font-variant:normal;font-weight:normal;font-size:14.73600006px;font-family:Calibri;-inkscape-font-specification:Calibri;writing-mode:lr-tb;fill:#ffffff;fill-opacity:1;fill-rule:nonzero;stroke:none" transform="matrix(1,0,0,-1,501.84,131.86)"><tspan id="tspan170" y="0" x="0 7.4711518 15.119136">5nm</tspan></text>
</g>
    </g>
    <g id="g172">
      <g clip-path="url(#clipPath176)" id="g174"><text id="text180" style="font-variant:normal;font-weight:normal;font-size:14.73600006px;font-family:Calibri;-inkscape-font-specification:Calibri;writing-mode:lr-tb;fill:#ffffff;fill-opacity:1;fill-rule:nonzero;stroke:none" transform="matrix(1,0,0,-1,528.74,131.86)"><tspan id="tspan182" y="0" x="0 3.72">, </tspan></text>
</g>
    </g>
    <g id="g184">
      <g clip-path="url(#clipPath188)" id="g186"><text id="text192" style="font-variant:normal;font-weight:normal;font-size:14.73600006px;font-family:Calibri;-inkscape-font-specification:Calibri;writing-mode:lr-tb;fill:#ffffff;fill-opacity:1;fill-rule:nonzero;stroke:none" transform="matrix(1,0,0,-1,535.8,131.86)"><tspan id="tspan194" y="0" x="0 7.4711518 14.942304 18.655775 26.126928">22.9%</tspan></text>
</g>
    </g>
    <g id="g196">
      <g clip-path="url(#clipPath200)" id="g198"><text id="text204" style="font-variant:normal;font-weight:normal;font-size:14.71199989px;font-family:Calibri;-inkscape-font-specification:Calibri;writing-mode:lr-tb;fill:#404040;fill-opacity:1;fill-rule:nonzero;stroke:none" transform="matrix(1,0,0,-1,315.31,160.06)"><tspan id="tspan206" y="0" x="0 7.4589839 14.917968 20.5968 28.055784 35.779583">10/7nm</tspan></text>
</g>
    </g>
    <g id="g208">
      <g clip-path="url(#clipPath212)" id="g210"><text id="text216" style="font-variant:normal;font-weight:normal;font-size:14.71199989px;font-family:Calibri;-inkscape-font-specification:Calibri;writing-mode:lr-tb;fill:#404040;fill-opacity:1;fill-rule:nonzero;stroke:none" transform="matrix(1,0,0,-1,362.81,160.06)"><tspan id="tspan218" y="0" x="0 3.72">, </tspan></text>
</g>
    </g>
    <g id="g220">
      <g clip-path="url(#clipPath224)" id="g222"><text id="text228" style="font-variant:normal;font-weight:normal;font-size:14.71199989px;font-family:Calibri;-inkscape-font-specification:Calibri;writing-mode:lr-tb;fill:#404040;fill-opacity:1;fill-rule:nonzero;stroke:none" transform="matrix(1,0,0,-1,369.86,160.06)"><tspan id="tspan230" y="0" x="0 7.4589839 11.166408 18.654816">9.3%</tspan></text>
</g>
    </g>
    <g id="g232">
      <g clip-path="url(#clipPath236)" id="g234"><text id="text240" style="font-variant:normal;font-weight:normal;font-size:14.71199989px;font-family:Calibri;-inkscape-font-specification:Calibri;writing-mode:lr-tb;fill:#ffffff;fill-opacity:1;fill-rule:nonzero;stroke:none" transform="matrix(1,0,0,-1,274.9,220.15)"><tspan id="tspan242" y="0" x="0 7.4589839 14.917968 20.5968 28.011648 35.470631 43.076736">16/20nm</tspan></text>
</g>
    </g>
    <g id="g244">
      <g clip-path="url(#clipPath248)" id="g246"><text id="text252" style="font-variant:normal;font-weight:normal;font-size:14.71199989px;font-family:Calibri;-inkscape-font-specification:Calibri;writing-mode:lr-tb;fill:#ffffff;fill-opacity:1;fill-rule:nonzero;stroke:none" transform="matrix(1,0,0,-1,329.83,220.15)"><tspan id="tspan254" y="0" x="0 3.72">, </tspan></text>
</g>
    </g>
    <g id="g256">
      <g clip-path="url(#clipPath260)" id="g258"><text id="text264" style="font-variant:normal;font-weight:normal;font-size:14.71199989px;font-family:Calibri;-inkscape-font-specification:Calibri;writing-mode:lr-tb;fill:#ffffff;fill-opacity:1;fill-rule:nonzero;stroke:none" transform="matrix(1,0,0,-1,289.61,202.1)"><tspan id="tspan266" y="0" x="0 7.464004 11.176448 18.640451">5.3%</tspan></text>
</g>
    </g>
    <g id="g268">
      <g clip-path="url(#clipPath272)" id="g270"><text id="text276" style="font-variant:normal;font-weight:normal;font-size:14.73600006px;font-family:Calibri;-inkscape-font-specification:Calibri;writing-mode:lr-tb;fill:#404040;fill-opacity:1;fill-rule:nonzero;stroke:none" transform="matrix(1,0,0,-1,257.76,281.5)"><tspan id="tspan278" y="0" x="0 7.4711518 14.942304 22.590288 34.364353 37.694687 42.631248 50.470798 53.801136 61.272289 68.743439 76.391426">21nm to 32nm</tspan></text>
</g>
    </g>
    <g id="g280">
      <g clip-path="url(#clipPath284)" id="g282"><text id="text288" style="font-variant:normal;font-weight:normal;font-size:14.73600006px;font-family:Calibri;-inkscape-font-specification:Calibri;writing-mode:lr-tb;fill:#404040;fill-opacity:1;fill-rule:nonzero;stroke:none" transform="matrix(1,0,0,-1,345.89,281.5)"><tspan id="tspan290" y="0" x="0 3.72">, </tspan></text>
</g>
    </g>
    <g id="g292">
      <g clip-path="url(#clipPath296)" id="g294"><text id="text300" style="font-variant:normal;font-weight:normal;font-size:14.73600006px;font-family:Calibri;-inkscape-font-specification:Calibri;writing-mode:lr-tb;fill:#404040;fill-opacity:1;fill-rule:nonzero;stroke:none" transform="matrix(1,0,0,-1,352.94,281.5)"><tspan id="tspan302" y="0" x="0 7.4711518 11.184624 18.655775">4.8%</tspan></text>
</g>
    </g>
    <g id="g304">
      <g clip-path="url(#clipPath308)" id="g306"><text id="text312" style="font-variant:normal;font-weight:normal;font-size:14.71199989px;font-family:Calibri;-inkscape-font-specification:Calibri;writing-mode:lr-tb;fill:#404040;fill-opacity:1;fill-rule:nonzero;stroke:none" transform="matrix(1,0,0,-1,122.86,308.47)"><tspan id="tspan314" y="0" x="0 7.4589839 14.917968 22.509359 34.264248 37.589161 42.517681 50.329754 53.654663 61.113647 68.572632 76.178734">33nm to 45nm</tspan></text>
</g>
    </g>
    <g id="g316">
      <g clip-path="url(#clipPath320)" id="g318"><text id="text324" style="font-variant:normal;font-weight:normal;font-size:14.71199989px;font-family:Calibri;-inkscape-font-specification:Calibri;writing-mode:lr-tb;fill:#404040;fill-opacity:1;fill-rule:nonzero;stroke:none" transform="matrix(1,0,0,-1,210.96,308.47)"><tspan id="tspan326" y="0" x="0 3.72">, </tspan></text>
</g>
    </g>
    <g id="g328">
      <g clip-path="url(#clipPath332)" id="g330"><text id="text336" style="font-variant:normal;font-weight:normal;font-size:14.71199989px;font-family:Calibri;-inkscape-font-specification:Calibri;writing-mode:lr-tb;fill:#404040;fill-opacity:1;fill-rule:nonzero;stroke:none" transform="matrix(1,0,0,-1,218.02,308.47)"><tspan id="tspan338" y="0" x="0 7.4589839 11.166408 18.654816">2.0%</tspan></text>
</g>
    </g>
    <g id="g340">
      <g clip-path="url(#clipPath344)" id="g342"><text id="text348" style="font-variant:normal;font-weight:normal;font-size:14.71199989px;font-family:Calibri;-inkscape-font-specification:Calibri;writing-mode:lr-tb;fill:#404040;fill-opacity:1;fill-rule:nonzero;stroke:none" transform="matrix(1,0,0,-1,127.75,340.37)"><tspan id="tspan350" y="0" x="0 7.4589839 14.917968 22.58292 34.337807 37.66272 42.59124 50.432735 53.757648 61.216633 68.675613 76.355278">46nm to 65nm</tspan></text>
</g>
    </g>
    <g id="g352">
      <g clip-path="url(#clipPath356)" id="g354"><text id="text360" style="font-variant:normal;font-weight:normal;font-size:14.71199989px;font-family:Calibri;-inkscape-font-specification:Calibri;writing-mode:lr-tb;fill:#404040;fill-opacity:1;fill-rule:nonzero;stroke:none" transform="matrix(1,0,0,-1,215.86,340.37)"><tspan id="tspan362" y="0" x="0 3.744">, </tspan></text>
</g>
    </g>
    <g id="g364">
      <g clip-path="url(#clipPath368)" id="g366"><text id="text372" style="font-variant:normal;font-weight:normal;font-size:14.71199989px;font-family:Calibri;-inkscape-font-specification:Calibri;writing-mode:lr-tb;fill:#404040;fill-opacity:1;fill-rule:nonzero;stroke:none" transform="matrix(1,0,0,-1,222.94,340.37)"><tspan id="tspan374" y="0" x="0 7.464004 11.176448 18.640451">2.7%</tspan></text>
</g>
    </g>
    <g id="g376">
      <g clip-path="url(#clipPath380)" id="g378"><text id="text384" style="font-variant:normal;font-weight:normal;font-size:14.71199989px;font-family:Calibri;-inkscape-font-specification:Calibri;writing-mode:lr-tb;fill:#ffffff;fill-opacity:1;fill-rule:nonzero;stroke:none" transform="matrix(1,0,0,-1,295.68,401.69)"><tspan id="tspan386" y="0" x="0 7.841496 15.682992 28.820808 36.647591">CoWoS</tspan></text>
</g>
    </g>
    <g id="g388">
      <g clip-path="url(#clipPath392)" id="g390"><text id="text396" style="font-variant:normal;font-weight:normal;font-size:14.71199989px;font-family:Calibri;-inkscape-font-specification:Calibri;writing-mode:lr-tb;fill:#ffffff;fill-opacity:1;fill-rule:nonzero;stroke:none" transform="matrix(1,0,0,-1,339.05,401.69)"><tspan id="tspan398" y="0" x="0 3.744">, </tspan></text>
</g>
    </g>
    <g id="g400">
      <g clip-path="url(#clipPath404)" id="g402"><text id="text408" style="font-variant:normal;font-weight:normal;font-size:14.71199989px;font-family:Calibri;-inkscape-font-specification:Calibri;writing-mode:lr-tb;fill:#ffffff;fill-opacity:1;fill-rule:nonzero;stroke:none" transform="matrix(1,0,0,-1,345.94,401.69)"><tspan id="tspan410" y="0" x="0 7.4589839 14.917968 18.625393 26.040239">15.4%</tspan></text>
</g>
    </g>
    <g id="g412">
      <g clip-path="url(#clipPath416)" id="g414"><text id="text420" style="font-variant:normal;font-weight:normal;font-size:14.71199989px;font-family:Calibri;-inkscape-font-specification:Calibri;writing-mode:lr-tb;fill:#ffffff;fill-opacity:1;fill-rule:nonzero;stroke:none" transform="matrix(1,0,0,-1,412.2,487.56)"><tspan id="tspan422" y="0" x="0 9.798192 14.726712 22.376951 29.64468 34.779167 40.443287">Others </tspan></text>
</g>
    </g>
    <g id="g424">
      <g clip-path="url(#clipPath428)" id="g426"><text id="text432" style="font-variant:normal;font-weight:normal;font-size:14.71199989px;font-family:Calibri;-inkscape-font-specification:Calibri;writing-mode:lr-tb;fill:#ffffff;fill-opacity:1;fill-rule:nonzero;stroke:none" transform="matrix(1,0,0,-1,456.17,487.56)"><tspan id="tspan434" y="0" x="0 3.72">, </tspan></text>
</g>
    </g>
    <g id="g436">
      <g clip-path="url(#clipPath440)" id="g438"><text id="text444" style="font-variant:normal;font-weight:normal;font-size:14.73600006px;font-family:Calibri;-inkscape-font-specification:Calibri;writing-mode:lr-tb;fill:#ffffff;fill-opacity:1;fill-rule:nonzero;stroke:none" transform="matrix(1,0,0,-1,421.44,469.51)"><tspan id="tspan446" y="0" x="0 7.4711518 11.184624 18.596832">4.8%</tspan></text>
</g>
    </g>
  </g>
</svg>
