<?xml version="1.0" encoding="UTF-8" standalone="no"?>
<svg xmlns:dc="http://purl.org/dc/elements/1.1/" xmlns:cc="http://creativecommons.org/ns#" xmlns:rdf="http://www.w3.org/1999/02/22-rdf-syntax-ns#" xmlns:svg="http://www.w3.org/2000/svg" xmlns="http://www.w3.org/2000/svg" viewBox="63 315.45 639 359" height="359" width="639" xml:space="preserve" version="1.1" id="svg2">
  <metadata id="metadata8">
    <rdf:RDF>
      <cc:Work rdf:about="">
        <dc:format>image/svg+xml</dc:format>
        <dc:type rdf:resource="http://purl.org/dc/dcmitype/StillImage"/>
      </cc:Work>
    </rdf:RDF>
  </metadata>
  <defs id="defs6">
    <clipPath id="clipPath16" clipPathUnits="userSpaceOnUse">
      <path style="clip-rule:evenodd" id="path18" d="m 50.4,252.48 511.2,0 0,287.16 -511.2,0 0,-287.16 z"/>
    </clipPath>
    <clipPath id="clipPath66" clipPathUnits="userSpaceOnUse">
      <path style="clip-rule:evenodd" id="path68" d="m 50.52,252.48 511.08,0 0,287.04 -511.08,0 0,-287.04 z"/>
    </clipPath>
    <clipPath id="clipPath78" clipPathUnits="userSpaceOnUse">
      <path style="clip-rule:evenodd" id="path80" d="m 50.52,252.48 511.08,0 0,287.04 -511.08,0 0,-287.04 z"/>
    </clipPath>
    <clipPath id="clipPath90" clipPathUnits="userSpaceOnUse">
      <path style="clip-rule:evenodd" id="path92" d="m 50.52,252.48 511.08,0 0,287.04 -511.08,0 0,-287.04 z"/>
    </clipPath>
    <clipPath id="clipPath102" clipPathUnits="userSpaceOnUse">
      <path style="clip-rule:evenodd" id="path104" d="m 50.52,252.48 511.08,0 0,287.04 -511.08,0 0,-287.04 z"/>
    </clipPath>
    <clipPath id="clipPath114" clipPathUnits="userSpaceOnUse">
      <path style="clip-rule:evenodd" id="path116" d="m 50.52,252.48 511.08,0 0,287.04 -511.08,0 0,-287.04 z"/>
    </clipPath>
    <clipPath id="clipPath126" clipPathUnits="userSpaceOnUse">
      <path style="clip-rule:evenodd" id="path128" d="m 50.52,252.48 511.08,0 0,287.04 -511.08,0 0,-287.04 z"/>
    </clipPath>
    <clipPath id="clipPath138" clipPathUnits="userSpaceOnUse">
      <path style="clip-rule:evenodd" id="path140" d="m 50.52,252.48 511.08,0 0,287.04 -511.08,0 0,-287.04 z"/>
    </clipPath>
    <clipPath id="clipPath150" clipPathUnits="userSpaceOnUse">
      <path style="clip-rule:evenodd" id="path152" d="m 50.52,252.48 511.08,0 0,287.04 -511.08,0 0,-287.04 z"/>
    </clipPath>
    <clipPath id="clipPath162" clipPathUnits="userSpaceOnUse">
      <path style="clip-rule:evenodd" id="path164" d="m 50.52,252.48 511.08,0 0,287.04 -511.08,0 0,-287.04 z"/>
    </clipPath>
    <clipPath id="clipPath174" clipPathUnits="userSpaceOnUse">
      <path style="clip-rule:evenodd" id="path176" d="m 50.52,252.48 511.08,0 0,287.04 -511.08,0 0,-287.04 z"/>
    </clipPath>
    <clipPath id="clipPath186" clipPathUnits="userSpaceOnUse">
      <path style="clip-rule:evenodd" id="path188" d="m 50.52,252.48 511.08,0 0,287.04 -511.08,0 0,-287.04 z"/>
    </clipPath>
    <clipPath id="clipPath198" clipPathUnits="userSpaceOnUse">
      <path style="clip-rule:evenodd" id="path200" d="m 50.52,252.48 511.08,0 0,287.04 -511.08,0 0,-287.04 z"/>
    </clipPath>
    <clipPath id="clipPath210" clipPathUnits="userSpaceOnUse">
      <path style="clip-rule:evenodd" id="path212" d="m 50.52,252.48 511.08,0 0,287.04 -511.08,0 0,-287.04 z"/>
    </clipPath>
    <clipPath id="clipPath222" clipPathUnits="userSpaceOnUse">
      <path style="clip-rule:evenodd" id="path224" d="m 50.52,252.48 511.08,0 0,287.04 -511.08,0 0,-287.04 z"/>
    </clipPath>
    <clipPath id="clipPath234" clipPathUnits="userSpaceOnUse">
      <path style="clip-rule:evenodd" id="path236" d="m 50.52,252.48 511.08,0 0,287.04 -511.08,0 0,-287.04 z"/>
    </clipPath>
    <clipPath id="clipPath246" clipPathUnits="userSpaceOnUse">
      <path style="clip-rule:evenodd" id="path248" d="m 50.52,252.48 511.08,0 0,287.04 -511.08,0 0,-287.04 z"/>
    </clipPath>
    <clipPath id="clipPath258" clipPathUnits="userSpaceOnUse">
      <path style="clip-rule:evenodd" id="path260" d="m 50.52,252.48 511.08,0 0,287.04 -511.08,0 0,-287.04 z"/>
    </clipPath>
    <clipPath id="clipPath270" clipPathUnits="userSpaceOnUse">
      <path style="clip-rule:evenodd" id="path272" d="m 50.52,252.48 511.08,0 0,287.04 -511.08,0 0,-287.04 z"/>
    </clipPath>
    <clipPath id="clipPath282" clipPathUnits="userSpaceOnUse">
      <path style="clip-rule:evenodd" id="path284" d="m 50.52,252.48 511.08,0 0,287.04 -511.08,0 0,-287.04 z"/>
    </clipPath>
    <clipPath id="clipPath294" clipPathUnits="userSpaceOnUse">
      <path style="clip-rule:evenodd" id="path296" d="m 50.52,252.48 511.08,0 0,287.04 -511.08,0 0,-287.04 z"/>
    </clipPath>
    <clipPath id="clipPath306" clipPathUnits="userSpaceOnUse">
      <path style="clip-rule:evenodd" id="path308" d="m 50.52,252.48 511.08,0 0,287.04 -511.08,0 0,-287.04 z"/>
    </clipPath>
    <clipPath id="clipPath318" clipPathUnits="userSpaceOnUse">
      <path style="clip-rule:evenodd" id="path320" d="m 50.52,252.48 511.08,0 0,287.04 -511.08,0 0,-287.04 z"/>
    </clipPath>
    <clipPath id="clipPath334" clipPathUnits="userSpaceOnUse">
      <path style="clip-rule:evenodd" id="path336" d="m 50.52,252.48 511.08,0 0,287.04 -511.08,0 0,-287.04 z"/>
    </clipPath>
    <clipPath id="clipPath348" clipPathUnits="userSpaceOnUse">
      <path style="clip-rule:evenodd" id="path350" d="m 50.52,252.48 511.08,0 0,287.04 -511.08,0 0,-287.04 z"/>
    </clipPath>
    <clipPath id="clipPath364" clipPathUnits="userSpaceOnUse">
      <path style="clip-rule:evenodd" id="path366" d="m 50.52,252.48 511.08,0 0,287.04 -511.08,0 0,-287.04 z"/>
    </clipPath>
  </defs>
  <g transform="matrix(1.25,0,0,-1.25,0,990)" id="g10">
    <g id="g12">
      <g clip-path="url(#clipPath16)" id="g14">
        <path id="path20" style="fill:none;stroke:#000000;stroke-width:0.14;stroke-linecap:butt;stroke-linejoin:miter;stroke-miterlimit:10;stroke-dasharray:none;stroke-opacity:0" d="m 50.46,252.58 511.1,0 0,287 -511.1,0 0,-287 z"/>
      </g>
    </g>
    <path id="path22" style="fill:#ffffff;fill-opacity:1;fill-rule:evenodd;stroke:none" d="m 50.46,252.58 511.1,0 0,287 -511.1,0 0,-287 z"/>
    <path id="path24" style="fill:none;stroke:#c0c0c0;stroke-width:0.52015001;stroke-linecap:round;stroke-linejoin:round;stroke-miterlimit:10;stroke-dasharray:none;stroke-opacity:1" d="m 103.47,276.46 442.42,0 m -442.42,36.93 442.42,0 m -442.42,36.95 442.42,0 m -442.42,73.78 442.42,0 m -442.42,36.95 442.42,0 m -442.42,36.92 442.42,0"/>
    <path id="path26" style="fill:#eadfbc;fill-opacity:1;fill-rule:nonzero;stroke:none" d="m 112.98,432.48 12.6,0 0,-45.32 -12.6,0 0,45.32 z m 31.58,8.24 12.61,0 0,-53.56 -12.61,0 0,53.56 z m 31.58,8.61 12.61,0 0,-62.17 -12.61,0 0,62.17 z m 31.59,-15.85 12.73,0 0,-46.32 -12.73,0 0,46.32 z m 31.58,3.99 12.73,0 0,-50.31 -12.73,0 0,50.31 z m 31.71,8.24 12.61,0 0,-58.55 -12.61,0 0,58.55 z m 31.58,6.24 12.61,0 0,-64.79 -12.61,0 0,64.79 z m 31.58,-2.49 12.61,0 0,-62.3 -12.61,0 0,62.3 z m 31.59,-6.62 12.6,0 0,-55.68 -12.6,0 0,55.68 z m 31.58,25.34 12.61,0 0,-81.02 -12.61,0 0,81.02 z m 31.58,7.87 12.74,0 0,-88.89 -12.74,0 0,88.89 z m 31.59,-18.73 12.73,0 0,-70.16 -12.73,0 0,70.16 z m 31.7,-11.11 12.61,0 0,-59.05 -12.61,0 0,59.05 z m 31.59,-11.61 12.61,0 0,-47.44 -12.61,0 0,47.44 z"/>
    <path id="path28" style="fill:#2f5597;fill-opacity:1;fill-rule:nonzero;stroke:none" d="m 112.98,314.64 12.6,0 0,72.52 -12.6,0 0,-72.52 z m 31.58,1.99 12.61,0 0,70.53 -12.61,0 0,-70.53 z m 31.58,-1.62 12.61,0 0,72.15 -12.61,0 0,-72.15 z m 31.59,5.12 12.73,0 0,67.03 -12.73,0 0,-67.03 z m 31.58,2.37 12.73,0 0,64.66 -12.73,0 0,-64.66 z m 31.71,-7.49 12.61,0 0,72.15 -12.61,0 0,-72.15 z m 31.58,9.99 12.61,0 0,62.16 -12.61,0 0,-62.16 z m 31.58,4.24 12.61,0 0,57.92 -12.61,0 0,-57.92 z m 31.59,6.87 12.6,0 0,51.05 -12.6,0 0,-51.05 z m 31.58,-16.98 12.61,0 0,68.03 -12.61,0 0,-68.03 z m 31.58,-0.25 12.74,0 0,68.28 -12.74,0 0,-68.28 z m 31.59,-7.24 12.73,0 0,75.52 -12.73,0 0,-75.52 z m 31.7,-4.87 12.61,0 0,80.39 -12.61,0 0,-80.39 z m 31.59,9.86 12.61,0 0,70.53 -12.61,0 0,-70.53 z"/>
    <path id="path30" style="fill:none;stroke:#808080;stroke-width:1.30040002;stroke-linecap:round;stroke-linejoin:round;stroke-miterlimit:10;stroke-dasharray:none;stroke-opacity:1" d="m 103.47,387.22 442.42,0"/>
    <path id="path32" style="fill:none;stroke:#385723;stroke-width:1.82050002;stroke-linecap:round;stroke-linejoin:round;stroke-miterlimit:10;stroke-dasharray:none;stroke-opacity:1" d="m 119.27,359.93 31.66,10.13 31.58,7.12 31.58,-10.74 31.59,6.37 31.58,0.75 31.58,16.1 31.59,1.75 31.7,0.25 31.59,8.49 31.58,7.54 31.58,-25.89 31.59,-15.98 31.62,-1.75"/>
    <path id="path34" style="fill:#385723;fill-opacity:1;fill-rule:nonzero;stroke:none" d="m 121.24,360 c 0,-1.14 -0.92,-2.06 -2.06,-2.06 -1.14,0 -2.06,0.92 -2.06,2.06 0,1.14 0.92,2.06 2.06,2.06 1.14,0 2.06,-0.92 2.06,-2.06 z"/>
    <path id="path36" style="fill:#385723;fill-opacity:1;fill-rule:nonzero;stroke:none" d="m 152.95,370.11 c 0,-1.14 -0.92,-2.06 -2.06,-2.06 -1.14,0 -2.06,0.92 -2.06,2.06 0,1.14 0.92,2.06 2.06,2.06 1.14,0 2.06,-0.92 2.06,-2.06 z"/>
    <path id="path38" style="fill:#385723;fill-opacity:1;fill-rule:nonzero;stroke:none" d="m 184.53,377.23 c 0,-1.14 -0.92,-2.06 -2.06,-2.06 -1.13,0 -2.06,0.92 -2.06,2.06 0,1.13 0.93,2.06 2.06,2.06 1.14,0 2.06,-0.93 2.06,-2.06 z"/>
    <path id="path40" style="fill:#385723;fill-opacity:1;fill-rule:nonzero;stroke:none" d="m 216.12,366.49 c 0,-1.14 -0.93,-2.06 -2.06,-2.06 -1.14,0 -2.06,0.92 -2.06,2.06 0,1.14 0.92,2.06 2.06,2.06 1.13,0 2.06,-0.92 2.06,-2.06 z"/>
    <path id="path42" style="fill:#385723;fill-opacity:1;fill-rule:nonzero;stroke:none" d="m 247.7,372.86 c 0,-1.14 -0.92,-2.06 -2.06,-2.06 -1.14,0 -2.06,0.92 -2.06,2.06 0,1.14 0.92,2.06 2.06,2.06 1.14,0 2.06,-0.92 2.06,-2.06 z"/>
    <path id="path44" style="fill:#385723;fill-opacity:1;fill-rule:nonzero;stroke:none" d="m 279.28,373.61 c 0,-1.14 -0.92,-2.06 -2.06,-2.06 -1.13,0 -2.06,0.92 -2.06,2.06 0,1.13 0.93,2.06 2.06,2.06 1.14,0 2.06,-0.93 2.06,-2.06 z"/>
    <path id="path46" style="fill:#385723;fill-opacity:1;fill-rule:nonzero;stroke:none" d="m 310.87,389.71 c 0,-1.14 -0.93,-2.06 -2.06,-2.06 -1.14,0 -2.06,0.92 -2.06,2.06 0,1.14 0.92,2.06 2.06,2.06 1.13,0 2.06,-0.92 2.06,-2.06 z"/>
    <path id="path48" style="fill:#385723;fill-opacity:1;fill-rule:nonzero;stroke:none" d="m 342.45,391.46 c 0,-1.14 -0.92,-2.06 -2.06,-2.06 -1.14,0 -2.06,0.92 -2.06,2.06 0,1.14 0.92,2.06 2.06,2.06 1.14,0 2.06,-0.92 2.06,-2.06 z"/>
    <path id="path50" style="fill:#385723;fill-opacity:1;fill-rule:nonzero;stroke:none" d="m 374.16,391.71 c 0,-1.14 -0.92,-2.06 -2.06,-2.06 -1.14,0 -2.06,0.92 -2.06,2.06 0,1.14 0.92,2.06 2.06,2.06 1.14,0 2.06,-0.92 2.06,-2.06 z"/>
    <path id="path52" style="fill:#385723;fill-opacity:1;fill-rule:nonzero;stroke:none" d="m 405.74,400.2 c 0,-1.14 -0.92,-2.06 -2.06,-2.06 -1.14,0 -2.06,0.92 -2.06,2.06 0,1.13 0.92,2.06 2.06,2.06 1.14,0 2.06,-0.93 2.06,-2.06 z"/>
    <path id="path54" style="fill:#385723;fill-opacity:1;fill-rule:nonzero;stroke:none" d="m 437.32,407.69 c 0,-1.14 -0.92,-2.06 -2.06,-2.06 -1.13,0 -2.06,0.92 -2.06,2.06 0,1.13 0.93,2.06 2.06,2.06 1.14,0 2.06,-0.93 2.06,-2.06 z"/>
    <path id="path56" style="fill:#385723;fill-opacity:1;fill-rule:nonzero;stroke:none" d="m 468.91,381.85 c 0,-1.14 -0.93,-2.06 -2.06,-2.06 -1.14,0 -2.06,0.92 -2.06,2.06 0,1.13 0.92,2.06 2.06,2.06 1.13,0 2.06,-0.93 2.06,-2.06 z"/>
    <path id="path58" style="fill:#385723;fill-opacity:1;fill-rule:nonzero;stroke:none" d="m 500.49,365.87 c 0,-1.14 -0.92,-2.06 -2.06,-2.06 -1.14,0 -2.06,0.92 -2.06,2.06 0,1.13 0.92,2.06 2.06,2.06 1.14,0 2.06,-0.93 2.06,-2.06 z"/>
    <path id="path60" style="fill:#385723;fill-opacity:1;fill-rule:nonzero;stroke:none" d="m 532.07,364.12 c 0,-1.14 -0.92,-2.06 -2.06,-2.06 -1.13,0 -2.06,0.92 -2.06,2.06 0,1.14 0.93,2.06 2.06,2.06 1.14,0 2.06,-0.92 2.06,-2.06 z"/>
    <g id="g62">
      <g clip-path="url(#clipPath66)" id="g64"><text id="text70" style="font-variant:normal;font-weight:normal;font-size:9.35999966px;font-family:'Roboto Condensed';-inkscape-font-specification:RobotoCondensed-Regular;writing-mode:lr-tb;fill:#000000;fill-opacity:1;fill-rule:nonzero;stroke:none" transform="matrix(1,0,0,-1,56.544,273.6)"><tspan id="tspan72" y="0" x="0 2.3680799 6.99192 8.7235203 13.34736 17.943119 22.566959 24.40152 29.02536 33.6492">-6,000,000</tspan></text>
</g>
    </g>
    <g id="g74">
      <g clip-path="url(#clipPath78)" id="g76"><text id="text82" style="font-variant:normal;font-weight:normal;font-size:9.35999966px;font-family:'Roboto Condensed';-inkscape-font-specification:RobotoCondensed-Regular;writing-mode:lr-tb;fill:#000000;fill-opacity:1;fill-rule:nonzero;stroke:none" transform="matrix(1,0,0,-1,56.544,310.54)"><tspan id="tspan84" y="0" x="0 2.3680799 6.99192 8.7235203 13.34736 17.943119 22.566959 24.40152 29.02536 33.6492">-4,000,000</tspan></text>
</g>
    </g>
    <g id="g86">
      <g clip-path="url(#clipPath90)" id="g88"><text id="text94" style="font-variant:normal;font-weight:normal;font-size:9.35999966px;font-family:'Roboto Condensed';-inkscape-font-specification:RobotoCondensed-Regular;writing-mode:lr-tb;fill:#000000;fill-opacity:1;fill-rule:nonzero;stroke:none" transform="matrix(1,0,0,-1,56.544,347.45)"><tspan id="tspan96" y="0" x="0 2.3680799 6.99192 8.7235203 13.34736 17.943119 22.566959 24.40152 29.02536 33.6492">-2,000,000</tspan></text>
</g>
    </g>
    <g id="g98">
      <g clip-path="url(#clipPath102)" id="g100"><text id="text106" style="font-variant:normal;font-weight:normal;font-size:9.35999966px;font-family:'Roboto Condensed';-inkscape-font-specification:RobotoCondensed-Regular;writing-mode:lr-tb;fill:#000000;fill-opacity:1;fill-rule:nonzero;stroke:none" transform="matrix(1,0,0,-1,90.288,384.38)"><tspan id="tspan108" y="0" x="0">0</tspan></text>
</g>
    </g>
    <g id="g110">
      <g clip-path="url(#clipPath114)" id="g112"><text id="text118" style="font-variant:normal;font-weight:normal;font-size:9.35999966px;font-family:'Roboto Condensed';-inkscape-font-specification:RobotoCondensed-Regular;writing-mode:lr-tb;fill:#000000;fill-opacity:1;fill-rule:nonzero;stroke:none" transform="matrix(1,0,0,-1,58.872,421.32)"><tspan id="tspan120" y="0" x="0 4.6238399 6.4583998 11.08224 15.70608 20.32992 22.16448 26.788321 31.412161">2,000,000</tspan></text>
</g>
    </g>
    <g id="g122">
      <g clip-path="url(#clipPath126)" id="g124"><text id="text130" style="font-variant:normal;font-weight:normal;font-size:9.35999966px;font-family:'Roboto Condensed';-inkscape-font-specification:RobotoCondensed-Regular;writing-mode:lr-tb;fill:#000000;fill-opacity:1;fill-rule:nonzero;stroke:none" transform="matrix(1,0,0,-1,58.872,458.23)"><tspan id="tspan132" y="0" x="0 4.6238399 6.4583998 11.08224 15.70608 20.32992 22.16448 26.788321 31.412161">4,000,000</tspan></text>
</g>
    </g>
    <g id="g134">
      <g clip-path="url(#clipPath138)" id="g136"><text id="text142" style="font-variant:normal;font-weight:normal;font-size:9.35999966px;font-family:'Roboto Condensed';-inkscape-font-specification:RobotoCondensed-Regular;writing-mode:lr-tb;fill:#000000;fill-opacity:1;fill-rule:nonzero;stroke:none" transform="matrix(1,0,0,-1,58.872,495.17)"><tspan id="tspan144" y="0" x="0 4.6238399 6.4583998 11.08224 15.70608 20.32992 22.16448 26.788321 31.412161">6,000,000</tspan></text>
</g>
    </g>
    <g id="g146">
      <g clip-path="url(#clipPath150)" id="g148"><text id="text154" style="font-variant:normal;font-weight:normal;font-size:9.35999966px;font-family:'Roboto Condensed';-inkscape-font-specification:RobotoCondensed-Regular;writing-mode:lr-tb;fill:#000000;fill-opacity:1;fill-rule:nonzero;stroke:none" transform="matrix(1,0,0,-1,110.04,261.58)"><tspan id="tspan156" y="0" x="0 4.632 9.2639999 13.896">2012</tspan></text>
</g>
    </g>
    <g id="g158">
      <g clip-path="url(#clipPath162)" id="g160"><text id="text166" style="font-variant:normal;font-weight:normal;font-size:9.35999966px;font-family:'Roboto Condensed';-inkscape-font-specification:RobotoCondensed-Regular;writing-mode:lr-tb;fill:#000000;fill-opacity:1;fill-rule:nonzero;stroke:none" transform="matrix(1,0,0,-1,141.65,261.58)"><tspan id="tspan168" y="0" x="0 4.632 9.2639999 13.896">2013</tspan></text>
</g>
    </g>
    <g id="g170">
      <g clip-path="url(#clipPath174)" id="g172"><text id="text178" style="font-variant:normal;font-weight:normal;font-size:9.35999966px;font-family:'Roboto Condensed';-inkscape-font-specification:RobotoCondensed-Regular;writing-mode:lr-tb;fill:#000000;fill-opacity:1;fill-rule:nonzero;stroke:none" transform="matrix(1,0,0,-1,173.26,261.58)"><tspan id="tspan180" y="0" x="0 4.632 9.2639999 13.896">2014</tspan></text>
</g>
    </g>
    <g id="g182">
      <g clip-path="url(#clipPath186)" id="g184"><text id="text190" style="font-variant:normal;font-weight:normal;font-size:9.35999966px;font-family:'Roboto Condensed';-inkscape-font-specification:RobotoCondensed-Regular;writing-mode:lr-tb;fill:#000000;fill-opacity:1;fill-rule:nonzero;stroke:none" transform="matrix(1,0,0,-1,204.86,261.58)"><tspan id="tspan192" y="0" x="0 4.632 9.2639999 13.896">2015</tspan></text>
</g>
    </g>
    <g id="g194">
      <g clip-path="url(#clipPath198)" id="g196"><text id="text202" style="font-variant:normal;font-weight:normal;font-size:9.35999966px;font-family:'Roboto Condensed';-inkscape-font-specification:RobotoCondensed-Regular;writing-mode:lr-tb;fill:#000000;fill-opacity:1;fill-rule:nonzero;stroke:none" transform="matrix(1,0,0,-1,236.47,261.58)"><tspan id="tspan204" y="0" x="0 4.632 9.2639999 13.896">2016</tspan></text>
</g>
    </g>
    <g id="g206">
      <g clip-path="url(#clipPath210)" id="g208"><text id="text214" style="font-variant:normal;font-weight:normal;font-size:9.35999966px;font-family:'Roboto Condensed';-inkscape-font-specification:RobotoCondensed-Regular;writing-mode:lr-tb;fill:#000000;fill-opacity:1;fill-rule:nonzero;stroke:none" transform="matrix(1,0,0,-1,268.08,261.58)"><tspan id="tspan216" y="0" x="0 4.632 9.2639999 13.896">2017</tspan></text>
</g>
    </g>
    <g id="g218">
      <g clip-path="url(#clipPath222)" id="g220"><text id="text226" style="font-variant:normal;font-weight:normal;font-size:9.35999966px;font-family:'Roboto Condensed';-inkscape-font-specification:RobotoCondensed-Regular;writing-mode:lr-tb;fill:#000000;fill-opacity:1;fill-rule:nonzero;stroke:none" transform="matrix(1,0,0,-1,299.69,261.58)"><tspan id="tspan228" y="0" x="0 4.632 9.2639999 13.896">2018</tspan></text>
</g>
    </g>
    <g id="g230">
      <g clip-path="url(#clipPath234)" id="g232"><text id="text238" style="font-variant:normal;font-weight:normal;font-size:9.35999966px;font-family:'Roboto Condensed';-inkscape-font-specification:RobotoCondensed-Regular;writing-mode:lr-tb;fill:#000000;fill-opacity:1;fill-rule:nonzero;stroke:none" transform="matrix(1,0,0,-1,331.3,261.58)"><tspan id="tspan240" y="0" x="0 4.632 9.2639999 13.896">2019</tspan></text>
</g>
    </g>
    <g id="g242">
      <g clip-path="url(#clipPath246)" id="g244"><text id="text250" style="font-variant:normal;font-weight:normal;font-size:9.35999966px;font-family:'Roboto Condensed';-inkscape-font-specification:RobotoCondensed-Regular;writing-mode:lr-tb;fill:#000000;fill-opacity:1;fill-rule:nonzero;stroke:none" transform="matrix(1,0,0,-1,362.9,261.58)"><tspan id="tspan252" y="0" x="0 4.632 9.2639999 13.896">2020</tspan></text>
</g>
    </g>
    <g id="g254">
      <g clip-path="url(#clipPath258)" id="g256"><text id="text262" style="font-variant:normal;font-weight:normal;font-size:9.35999966px;font-family:'Roboto Condensed';-inkscape-font-specification:RobotoCondensed-Regular;writing-mode:lr-tb;fill:#000000;fill-opacity:1;fill-rule:nonzero;stroke:none" transform="matrix(1,0,0,-1,394.51,261.58)"><tspan id="tspan264" y="0" x="0 4.632 9.2639999 13.896">2021</tspan></text>
</g>
    </g>
    <g id="g266">
      <g clip-path="url(#clipPath270)" id="g268"><text id="text274" style="font-variant:normal;font-weight:normal;font-size:9.35999966px;font-family:'Roboto Condensed';-inkscape-font-specification:RobotoCondensed-Regular;writing-mode:lr-tb;fill:#000000;fill-opacity:1;fill-rule:nonzero;stroke:none" transform="matrix(1,0,0,-1,426.12,261.58)"><tspan id="tspan276" y="0" x="0 4.6080399 9.2160797 13.82412">2022</tspan></text>
</g>
    </g>
    <g id="g278">
      <g clip-path="url(#clipPath282)" id="g280"><text id="text286" style="font-variant:normal;font-weight:normal;font-size:9.35999966px;font-family:'Roboto Condensed';-inkscape-font-specification:RobotoCondensed-Regular;writing-mode:lr-tb;fill:#000000;fill-opacity:1;fill-rule:nonzero;stroke:none" transform="matrix(1,0,0,-1,457.73,261.58)"><tspan id="tspan288" y="0" x="0 4.6080399 9.2160797 13.82412">2023</tspan></text>
</g>
    </g>
    <g id="g290">
      <g clip-path="url(#clipPath294)" id="g292"><text id="text298" style="font-variant:normal;font-weight:normal;font-size:9.35999966px;font-family:'Roboto Condensed';-inkscape-font-specification:RobotoCondensed-Regular;writing-mode:lr-tb;fill:#000000;fill-opacity:1;fill-rule:nonzero;stroke:none" transform="matrix(1,0,0,-1,489.34,261.58)"><tspan id="tspan300" y="0" x="0 4.6080399 9.2160797 13.82412">2024</tspan></text>
</g>
    </g>
    <g id="g302">
      <g clip-path="url(#clipPath306)" id="g304"><text id="text310" style="font-variant:normal;font-weight:normal;font-size:9.35999966px;font-family:'Roboto Condensed';-inkscape-font-specification:RobotoCondensed-Regular;writing-mode:lr-tb;fill:#000000;fill-opacity:1;fill-rule:nonzero;stroke:none" transform="matrix(1,0,0,-1,520.94,261.58)"><tspan id="tspan312" y="0" x="0 4.6080399 9.2160797 13.82412">2025</tspan></text>
</g>
    </g>
    <g id="g314">
      <g clip-path="url(#clipPath318)" id="g316"><text id="text322" style="font-variant:normal;font-weight:bold;font-size:11.23200035px;font-family:'Roboto Condensed';-inkscape-font-specification:RobotoCondensed-Bold;writing-mode:lr-tb;fill:#000000;fill-opacity:1;fill-rule:nonzero;stroke:none" transform="matrix(1,0,0,-1,261.46,527.23)"><tspan id="tspan324" y="0" x="0 6.3573122 12.46752 16.185312 24.699167 30.079296 35.167393 38.065247 43.175808 48.769344 51.285313 57.395519 60.888672 66.268799 71.648926 74.513084 77.006592 80.499741 84.228767 89.519043 95.090111">US/Mexico Steel trade</tspan></text>
</g>
    </g>
    <path id="path326" style="fill:#ffffff;fill-opacity:1;fill-rule:evenodd;stroke:none" d="m 156.03,502.67 306.01,0 0,16.809 -306.01,0 0,-16.809 z"/>
    <path id="path328" style="fill:#eadfbc;fill-opacity:1;fill-rule:evenodd;stroke:none" d="m 172.39,508.54 19.974,0 0,5.0558 -19.974,0 0,-5.0558 z"/>
    <g id="g330">
      <g clip-path="url(#clipPath334)" id="g332"><text id="text338" style="font-variant:normal;font-weight:normal;font-size:9.35999966px;font-family:'Roboto Condensed';-inkscape-font-specification:RobotoCondensed-Regular;writing-mode:lr-tb;fill:#000000;fill-opacity:1;fill-rule:nonzero;stroke:none" transform="matrix(1,0,0,-1,194.5,508.25)"><tspan id="tspan340" y="0" x="0 2.3680799 9.3787203 13.9932 18.757441 21.63096 24.39216 26.535601 29.521441 32.394958 37.02816 44.151119 46.294559 53.408161 57.788639 61.916401 64.059837 68.299919">Import from Mexico</tspan></text>
</g>
    </g>
    <path id="path342" style="fill:#2f5597;fill-opacity:1;fill-rule:evenodd;stroke:none" d="m 283.35,508.54 19.974,0 0,5.0558 -19.974,0 0,-5.0558 z"/>
    <g id="g344">
      <g clip-path="url(#clipPath348)" id="g346"><text id="text352" style="font-variant:normal;font-weight:normal;font-size:9.35999966px;font-family:'Roboto Condensed';-inkscape-font-specification:RobotoCondensed-Regular;writing-mode:lr-tb;fill:#000000;fill-opacity:1;fill-rule:nonzero;stroke:none" transform="matrix(1,0,0,-1,305.47,508.25)"><tspan id="tspan354" y="0" x="0 4.6519198 8.7609596 13.37544 18.13032 21.003839 23.765039 25.90848 28.66968 33.405842 35.549278 42.66288 47.043362 51.17112 53.31456 57.68568">Export to Mexico</tspan></text>
</g>
    </g>
    <path id="path356" style="fill:none;stroke:#385723;stroke-width:1.82050002;stroke-linecap:round;stroke-linejoin:round;stroke-miterlimit:10;stroke-dasharray:none;stroke-opacity:1" d="m 383.59,511.07 19.97,0"/>
    <path id="path358" style="fill:#385723;fill-opacity:1;fill-rule:nonzero;stroke:none" d="m 395.48,511.19 c 0,-1.14 -0.92,-2.06 -2.06,-2.06 -1.14,0 -2.06,0.92 -2.06,2.06 0,1.14 0.92,2.06 2.06,2.06 1.14,0 2.06,-0.92 2.06,-2.06 z"/>
    <g id="g360">
      <g clip-path="url(#clipPath364)" id="g362"><text id="text368" style="font-variant:normal;font-weight:normal;font-size:9.35999966px;font-family:'Roboto Condensed';-inkscape-font-specification:RobotoCondensed-Regular;writing-mode:lr-tb;fill:#000000;fill-opacity:1;fill-rule:nonzero;stroke:none" transform="matrix(1,0,0,-1,405.74,508.25)"><tspan id="tspan370" y="0" x="0 5.73768 10.21176 12.97296 15.06024 17.42832 24.410879 29.02536 33.76152 36.63504 39.39624">Net Imports</tspan></text>
</g>
    </g>
  </g>
</svg>
