<?xml version="1.0" encoding="UTF-8" standalone="no"?>
<svg xmlns:dc="http://purl.org/dc/elements/1.1/" xmlns:cc="http://creativecommons.org/ns#" xmlns:rdf="http://www.w3.org/1999/02/22-rdf-syntax-ns#" xmlns:svg="http://www.w3.org/2000/svg" xmlns="http://www.w3.org/2000/svg" viewBox="15.7375 14.5375 464.4875 191.75" height="191.75" width="464.4875" xml:space="preserve" version="1.1" id="svg2">
  <metadata id="metadata8">
    <rdf:RDF>
      <cc:Work rdf:about="">
        <dc:format>image/svg+xml</dc:format>
        <dc:type rdf:resource="http://purl.org/dc/dcmitype/StillImage"/>
      </cc:Work>
    </rdf:RDF>
  </metadata>
  <defs id="defs6">
    <clipPath id="clipPath16" clipPathUnits="userSpaceOnUse">
      <path style="clip-rule:evenodd" id="path18" d="m 13.56,446.98 370.61,0 0,152.42 -370.61,0 0,-152.42 z"/>
    </clipPath>
    <clipPath id="clipPath26" clipPathUnits="userSpaceOnUse">
      <path style="clip-rule:evenodd" id="path28" d="m 13.56,585.12 370.61,0 0,14.28 -370.61,0 0,-14.28 z"/>
    </clipPath>
    <clipPath id="clipPath38" clipPathUnits="userSpaceOnUse">
      <path style="clip-rule:evenodd" id="path40" d="m 13.56,585.12 370.61,0 0,14.28 -370.61,0 0,-14.28 z"/>
    </clipPath>
    <clipPath id="clipPath50" clipPathUnits="userSpaceOnUse">
      <path style="clip-rule:evenodd" id="path52" d="m 13.56,585.12 370.61,0 0,14.28 -370.61,0 0,-14.28 z"/>
    </clipPath>
    <clipPath id="clipPath62" clipPathUnits="userSpaceOnUse">
      <path style="clip-rule:evenodd" id="path64" d="m 13.56,569.88 370.61,0 0,14.28 -370.61,0 0,-14.28 z"/>
    </clipPath>
    <clipPath id="clipPath74" clipPathUnits="userSpaceOnUse">
      <path style="clip-rule:evenodd" id="path76" d="m 13.56,569.88 370.61,0 0,14.28 -370.61,0 0,-14.28 z"/>
    </clipPath>
    <clipPath id="clipPath86" clipPathUnits="userSpaceOnUse">
      <path style="clip-rule:evenodd" id="path88" d="m 13.56,569.88 370.61,0 0,14.28 -370.61,0 0,-14.28 z"/>
    </clipPath>
    <clipPath id="clipPath98" clipPathUnits="userSpaceOnUse">
      <path style="clip-rule:evenodd" id="path100" d="m 13.56,554.64 370.61,0 0,14.28 -370.61,0 0,-14.28 z"/>
    </clipPath>
    <clipPath id="clipPath110" clipPathUnits="userSpaceOnUse">
      <path style="clip-rule:evenodd" id="path112" d="m 13.56,554.64 370.61,0 0,14.28 -370.61,0 0,-14.28 z"/>
    </clipPath>
    <clipPath id="clipPath122" clipPathUnits="userSpaceOnUse">
      <path style="clip-rule:evenodd" id="path124" d="m 13.56,554.64 370.61,0 0,14.28 -370.61,0 0,-14.28 z"/>
    </clipPath>
    <clipPath id="clipPath134" clipPathUnits="userSpaceOnUse">
      <path style="clip-rule:evenodd" id="path136" d="m 13.56,539.4 370.61,0 0,14.28 -370.61,0 0,-14.28 z"/>
    </clipPath>
    <clipPath id="clipPath146" clipPathUnits="userSpaceOnUse">
      <path style="clip-rule:evenodd" id="path148" d="m 13.56,539.4 370.61,0 0,14.28 -370.61,0 0,-14.28 z"/>
    </clipPath>
    <clipPath id="clipPath158" clipPathUnits="userSpaceOnUse">
      <path style="clip-rule:evenodd" id="path160" d="m 13.56,539.4 370.61,0 0,14.28 -370.61,0 0,-14.28 z"/>
    </clipPath>
    <clipPath id="clipPath170" clipPathUnits="userSpaceOnUse">
      <path style="clip-rule:evenodd" id="path172" d="m 13.56,524.14 370.61,0 0,14.304 -370.61,0 0,-14.304 z"/>
    </clipPath>
    <clipPath id="clipPath182" clipPathUnits="userSpaceOnUse">
      <path style="clip-rule:evenodd" id="path184" d="m 13.56,524.14 370.61,0 0,14.304 -370.61,0 0,-14.304 z"/>
    </clipPath>
    <clipPath id="clipPath194" clipPathUnits="userSpaceOnUse">
      <path style="clip-rule:evenodd" id="path196" d="m 13.56,524.14 370.61,0 0,14.304 -370.61,0 0,-14.304 z"/>
    </clipPath>
    <clipPath id="clipPath206" clipPathUnits="userSpaceOnUse">
      <path style="clip-rule:evenodd" id="path208" d="m 13.56,508.9 370.61,0 0,14.28 -370.61,0 0,-14.28 z"/>
    </clipPath>
    <clipPath id="clipPath218" clipPathUnits="userSpaceOnUse">
      <path style="clip-rule:evenodd" id="path220" d="m 13.56,508.9 370.61,0 0,14.28 -370.61,0 0,-14.28 z"/>
    </clipPath>
    <clipPath id="clipPath230" clipPathUnits="userSpaceOnUse">
      <path style="clip-rule:evenodd" id="path232" d="m 13.56,508.9 370.61,0 0,14.28 -370.61,0 0,-14.28 z"/>
    </clipPath>
    <clipPath id="clipPath242" clipPathUnits="userSpaceOnUse">
      <path style="clip-rule:evenodd" id="path244" d="m 13.56,493.66 370.61,0 0,14.28 -370.61,0 0,-14.28 z"/>
    </clipPath>
    <clipPath id="clipPath254" clipPathUnits="userSpaceOnUse">
      <path style="clip-rule:evenodd" id="path256" d="m 13.56,493.66 370.61,0 0,14.28 -370.61,0 0,-14.28 z"/>
    </clipPath>
    <clipPath id="clipPath266" clipPathUnits="userSpaceOnUse">
      <path style="clip-rule:evenodd" id="path268" d="m 13.56,493.66 370.61,0 0,14.28 -370.61,0 0,-14.28 z"/>
    </clipPath>
    <clipPath id="clipPath278" clipPathUnits="userSpaceOnUse">
      <path style="clip-rule:evenodd" id="path280" d="m 13.56,478.42 370.61,0 0,14.28 -370.61,0 0,-14.28 z"/>
    </clipPath>
    <clipPath id="clipPath290" clipPathUnits="userSpaceOnUse">
      <path style="clip-rule:evenodd" id="path292" d="m 13.56,478.42 370.61,0 0,14.28 -370.61,0 0,-14.28 z"/>
    </clipPath>
    <clipPath id="clipPath302" clipPathUnits="userSpaceOnUse">
      <path style="clip-rule:evenodd" id="path304" d="m 13.56,478.42 370.61,0 0,14.28 -370.61,0 0,-14.28 z"/>
    </clipPath>
    <clipPath id="clipPath314" clipPathUnits="userSpaceOnUse">
      <path style="clip-rule:evenodd" id="path316" d="m 13.56,463.18 370.61,0 0,14.28 -370.61,0 0,-14.28 z"/>
    </clipPath>
    <clipPath id="clipPath326" clipPathUnits="userSpaceOnUse">
      <path style="clip-rule:evenodd" id="path328" d="m 13.56,463.18 370.61,0 0,14.28 -370.61,0 0,-14.28 z"/>
    </clipPath>
    <clipPath id="clipPath338" clipPathUnits="userSpaceOnUse">
      <path style="clip-rule:evenodd" id="path340" d="m 13.56,463.18 370.61,0 0,14.28 -370.61,0 0,-14.28 z"/>
    </clipPath>
    <clipPath id="clipPath350" clipPathUnits="userSpaceOnUse">
      <path style="clip-rule:evenodd" id="path352" d="m 13.56,447.94 370.61,0 0,14.28 -370.61,0 0,-14.28 z"/>
    </clipPath>
    <clipPath id="clipPath362" clipPathUnits="userSpaceOnUse">
      <path style="clip-rule:evenodd" id="path364" d="m 13.56,447.94 370.61,0 0,14.28 -370.61,0 0,-14.28 z"/>
    </clipPath>
    <clipPath id="clipPath374" clipPathUnits="userSpaceOnUse">
      <path style="clip-rule:evenodd" id="path376" d="m 13.56,447.94 370.61,0 0,14.28 -370.61,0 0,-14.28 z"/>
    </clipPath>
    <clipPath id="clipPath386" clipPathUnits="userSpaceOnUse">
      <path style="clip-rule:evenodd" id="path388" d="m 11.64,444.94 374.57,0 0,156.38 -374.57,0 0,-156.38 z"/>
    </clipPath>
  </defs>
  <g transform="matrix(1.25,0,0,-1.25,0,765)" id="g10">
    <g id="g12">
      <g clip-path="url(#clipPath16)" id="g14">
        <path id="path20" style="fill:#0070c0;fill-opacity:1;fill-rule:evenodd;stroke:none" d="m 13.08,584.52 370.73,0 0,15.36 -370.73,0 0,-15.36 z"/>
      </g>
    </g>
    <g id="g22">
      <g clip-path="url(#clipPath26)" id="g24"><text id="text30" style="font-variant:normal;font-weight:bold;font-size:11.03999996px;font-family:'Aptos Narrow';-inkscape-font-specification:'Aptos Narrow Bold';writing-mode:lr-tb;fill:#ffffff;fill-opacity:1;fill-rule:nonzero;stroke:none" transform="matrix(1,0,0,-1,15,588.36)"><tspan id="tspan32" y="0" x="0 5.0673599 10.77504 16.30608 21.815041 25.3368 28.063681 33.815521 39.5784">Location </tspan></text>
</g>
    </g>
    <g id="g34">
      <g clip-path="url(#clipPath38)" id="g36"><text id="text42" style="font-variant:normal;font-weight:bold;font-size:11.03999996px;font-family:'Aptos Narrow';-inkscape-font-specification:'Aptos Narrow Bold';writing-mode:lr-tb;fill:#ffffff;fill-opacity:1;fill-rule:nonzero;stroke:none" transform="matrix(1,0,0,-1,79.44,588.36)"><tspan id="tspan44" y="0" x="0 5.3102398 9.01968 14.72736 20.523359 24.000959 27.3792 32.987518 38.750401 44.601601 46.655041 52.660801 55.652641 61.161598 66.957603">Front-end Plant</tspan></text>
</g>
    </g>
    <g id="g46">
      <g clip-path="url(#clipPath50)" id="g48"><text id="text54" style="font-variant:normal;font-weight:bold;font-size:11.03999996px;font-family:'Aptos Narrow';-inkscape-font-specification:'Aptos Narrow Bold';writing-mode:lr-tb;fill:#ffffff;fill-opacity:1;fill-rule:nonzero;stroke:none" transform="matrix(1,0,0,-1,217.22,588.36)"><tspan id="tspan56" y="0" x="0 5.3102398 11.01792 16.54896 22.31184 27.3792 32.965439 38.860802 40.892159 45.816002 51.4464 56.95536 62.718239 68.481117 74.232964 77.2248 82.976639 88.021919">Focused Technology</tspan></text>
</g>
    </g>
    <g id="g58">
      <g clip-path="url(#clipPath62)" id="g60"><text id="text66" style="font-variant:normal;font-weight:normal;font-size:11.03999996px;font-family:'Aptos Narrow';-inkscape-font-specification:'Aptos Narrow';writing-mode:lr-tb;fill:#000000;fill-opacity:1;fill-rule:nonzero;stroke:none" transform="matrix(1,0,0,-1,15,573)"><tspan id="tspan68" y="0" x="0 4.8134398 10.18992 12.70704 18.33744 23.713921">Tainan</tspan></text>
</g>
    </g>
    <g id="g70">
      <g clip-path="url(#clipPath74)" id="g72"><text id="text78" style="font-variant:normal;font-weight:normal;font-size:11.03999996px;font-family:'Aptos Narrow';-inkscape-font-specification:'Aptos Narrow';writing-mode:lr-tb;fill:#000000;fill-opacity:1;fill-rule:nonzero;stroke:none" transform="matrix(1,0,0,-1,79.44,573)"><tspan id="tspan80" y="0" x="0 5.2992001 10.89648 16.54896 18.61344 21.947519 24.011999 29.85216 35.493599 38.94912 44.844479 50.47488 53.930401 59.82576 65.456161 68.911682 74.807037">F18 - P4/P5/P6/P8</tspan></text>
</g>
    </g>
    <g id="g82">
      <g clip-path="url(#clipPath86)" id="g84"><text id="text90" style="font-variant:normal;font-weight:normal;font-size:11.03999996px;font-family:'Aptos Narrow';-inkscape-font-specification:'Aptos Narrow';writing-mode:lr-tb;fill:#000000;fill-opacity:1;fill-rule:nonzero;stroke:none" transform="matrix(1,0,0,-1,217.22,573)"><tspan id="tspan92" y="0" x="0 7.0799999">N3</tspan></text>
</g>
    </g>
    <g id="g94">
      <g clip-path="url(#clipPath98)" id="g96"><text id="text102" style="font-variant:normal;font-weight:normal;font-size:11.03999996px;font-family:'Aptos Narrow';-inkscape-font-specification:'Aptos Narrow';writing-mode:lr-tb;fill:#000000;fill-opacity:1;fill-rule:nonzero;stroke:none" transform="matrix(1,0,0,-1,15,557.76)"><tspan id="tspan104" y="0" x="0 4.8134398 10.18992 12.70704 18.33744 23.713921">Tainan</tspan></text>
</g>
    </g>
    <g id="g106">
      <g clip-path="url(#clipPath110)" id="g108"><text id="text114" style="font-variant:normal;font-weight:normal;font-size:11.03999996px;font-family:'Aptos Narrow';-inkscape-font-specification:'Aptos Narrow';writing-mode:lr-tb;fill:#000000;fill-opacity:1;fill-rule:nonzero;stroke:none" transform="matrix(1,0,0,-1,79.44,557.76)"><tspan id="tspan116" y="0" x="0 5.2992001 10.89648 16.54896 18.61344 21.947519 24.011999 29.85216 35.493599 38.94912 44.844479 50.47488 56.105282 59.560799 65.456161 71.086563">F18 - P9/P10/P11</tspan></text>
</g>
    </g>
    <g id="g118">
      <g clip-path="url(#clipPath122)" id="g120"><text id="text126" style="font-variant:normal;font-weight:normal;font-size:11.03999996px;font-family:'Aptos Narrow';-inkscape-font-specification:'Aptos Narrow';writing-mode:lr-tb;fill:#000000;fill-opacity:1;fill-rule:nonzero;stroke:none" transform="matrix(1,0,0,-1,217.22,557.76)"><tspan id="tspan128" y="0" x="0 7.0799999">N2</tspan></text>
</g>
    </g>
    <g id="g130">
      <g clip-path="url(#clipPath134)" id="g132"><text id="text138" style="font-variant:normal;font-weight:normal;font-size:11.03999996px;font-family:'Aptos Narrow';-inkscape-font-specification:'Aptos Narrow';writing-mode:lr-tb;fill:#000000;fill-opacity:1;fill-rule:nonzero;stroke:none" transform="matrix(1,0,0,-1,15,542.52)"><tspan id="tspan140" y="0" x="0 7.0766401 11.96736 14.50656 20.136959 27.12528 32.722561">HsinChu</tspan></text>
</g>
    </g>
    <g id="g142">
      <g clip-path="url(#clipPath146)" id="g144"><text id="text150" style="font-variant:normal;font-weight:normal;font-size:11.03999996px;font-family:'Aptos Narrow';-inkscape-font-specification:'Aptos Narrow';writing-mode:lr-tb;fill:#000000;fill-opacity:1;fill-rule:nonzero;stroke:none" transform="matrix(1,0,0,-1,79.44,542.52)"><tspan id="tspan152" y="0" x="0 5.2992001 10.89648 16.54896 18.61344 21.947519 24.011999 29.85216 35.493599 38.94912 44.844479 50.47488 53.930401 59.82576 65.456161 68.911682 74.807037">F20 - P1/P2/P3/P4</tspan></text>
</g>
    </g>
    <g id="g154">
      <g clip-path="url(#clipPath158)" id="g156"><text id="text162" style="font-variant:normal;font-weight:normal;font-size:11.03999996px;font-family:'Aptos Narrow';-inkscape-font-specification:'Aptos Narrow';writing-mode:lr-tb;fill:#000000;fill-opacity:1;fill-rule:nonzero;stroke:none" transform="matrix(1,0,0,-1,217.22,542.52)"><tspan id="tspan164" y="0" x="0 7.0766401 12.70704 16.16256 22.05792 27.69936">N2/A14</tspan></text>
</g>
    </g>
    <g id="g166">
      <g clip-path="url(#clipPath170)" id="g168"><text id="text174" style="font-variant:normal;font-weight:normal;font-size:11.03999996px;font-family:'Aptos Narrow';-inkscape-font-specification:'Aptos Narrow';writing-mode:lr-tb;fill:#000000;fill-opacity:1;fill-rule:nonzero;stroke:none" transform="matrix(1,0,0,-1,15,527.28)"><tspan id="tspan176" y="0" x="0 5.89536 9.2404804 11.74656 16.173599 21.6936 27.323999">Arizona</tspan></text>
</g>
    </g>
    <g id="g178">
      <g clip-path="url(#clipPath182)" id="g180"><text id="text186" style="font-variant:normal;font-weight:normal;font-size:11.03999996px;font-family:'Aptos Narrow';-inkscape-font-specification:'Aptos Narrow';writing-mode:lr-tb;fill:#000000;fill-opacity:1;fill-rule:nonzero;stroke:none" transform="matrix(1,0,0,-1,79.44,527.28)"><tspan id="tspan188" y="0" x="0 5.2992001 10.89648 16.54896 18.61344 21.947519 24.011999 29.85216">F21 - P2</tspan></text>
</g>
    </g>
    <g id="g190">
      <g clip-path="url(#clipPath194)" id="g192"><text id="text198" style="font-variant:normal;font-weight:normal;font-size:11.03999996px;font-family:'Aptos Narrow';-inkscape-font-specification:'Aptos Narrow';writing-mode:lr-tb;fill:#000000;fill-opacity:1;fill-rule:nonzero;stroke:none" transform="matrix(1,0,0,-1,217.22,527.28)"><tspan id="tspan200" y="0" x="0 7.0799999">N3</tspan></text>
</g>
    </g>
    <g id="g202">
      <g clip-path="url(#clipPath206)" id="g204"><text id="text210" style="font-variant:normal;font-weight:normal;font-size:11.03999996px;font-family:'Aptos Narrow';-inkscape-font-specification:'Aptos Narrow';writing-mode:lr-tb;fill:#000000;fill-opacity:1;fill-rule:nonzero;stroke:none" transform="matrix(1,0,0,-1,15,512.02)"><tspan id="tspan212" y="0" x="0 5.7628798 11.13936 16.68144 23.75808 28.6488 31.188 36.818401 42.459839">KaoHsiung</tspan></text>
</g>
    </g>
    <g id="g214">
      <g clip-path="url(#clipPath218)" id="g216"><text id="text222" style="font-variant:normal;font-weight:normal;font-size:11.03999996px;font-family:'Aptos Narrow';-inkscape-font-specification:'Aptos Narrow';writing-mode:lr-tb;fill:#000000;fill-opacity:1;fill-rule:nonzero;stroke:none" transform="matrix(1,0,0,-1,79.44,512.02)"><tspan id="tspan224" y="0" x="0 5.2992001 10.89648 16.54896 18.61344 21.947519 24.011999 29.85216 35.493599 38.94912 44.844479 50.47488 53.930401 59.82576">F22 - P1/P2/P3</tspan></text>
</g>
    </g>
    <g id="g226">
      <g clip-path="url(#clipPath230)" id="g228"><text id="text234" style="font-variant:normal;font-weight:normal;font-size:11.03999996px;font-family:'Aptos Narrow';-inkscape-font-specification:'Aptos Narrow';writing-mode:lr-tb;fill:#000000;fill-opacity:1;fill-rule:nonzero;stroke:none" transform="matrix(1,0,0,-1,217.22,512.02)"><tspan id="tspan236" y="0" x="0 7.0799999">N2</tspan></text>
</g>
    </g>
    <g id="g238">
      <g clip-path="url(#clipPath242)" id="g240"><text id="text246" style="font-variant:normal;font-weight:normal;font-size:11.03999996px;font-family:'Aptos Narrow';-inkscape-font-specification:'Aptos Narrow';writing-mode:lr-tb;fill:#000000;fill-opacity:1;fill-rule:nonzero;stroke:none" transform="matrix(1,0,0,-1,15,496.78)"><tspan id="tspan248" y="0" x="0 5.7628798 11.13936 16.68144 23.75808 28.6488 31.188 36.818401 42.459839">KaoHsiung</tspan></text>
</g>
    </g>
    <g id="g250">
      <g clip-path="url(#clipPath254)" id="g252"><text id="text258" style="font-variant:normal;font-weight:normal;font-size:11.03999996px;font-family:'Aptos Narrow';-inkscape-font-specification:'Aptos Narrow';writing-mode:lr-tb;fill:#000000;fill-opacity:1;fill-rule:nonzero;stroke:none" transform="matrix(1,0,0,-1,79.44,496.78)"><tspan id="tspan260" y="0" x="0 5.2992001 10.89648 16.54896 18.61344 21.947519 24.011999 29.85216 35.493599 38.94912 44.844479 50.47488 53.930401 59.82576">F22 - P4/P5/P6</tspan></text>
</g>
    </g>
    <g id="g262">
      <g clip-path="url(#clipPath266)" id="g264"><text id="text270" style="font-variant:normal;font-weight:normal;font-size:11.03999996px;font-family:'Aptos Narrow';-inkscape-font-specification:'Aptos Narrow';writing-mode:lr-tb;fill:#000000;fill-opacity:1;fill-rule:nonzero;stroke:none" transform="matrix(1,0,0,-1,217.22,496.78)"><tspan id="tspan272" y="0" x="0 5.89536 11.49264">A16</tspan></text>
</g>
    </g>
    <g id="g274">
      <g clip-path="url(#clipPath278)" id="g276"><text id="text282" style="font-variant:normal;font-weight:normal;font-size:11.03999996px;font-family:'Aptos Narrow';-inkscape-font-specification:'Aptos Narrow';writing-mode:lr-tb;fill:#000000;fill-opacity:1;fill-rule:nonzero;stroke:none" transform="matrix(1,0,0,-1,15,481.54)"><tspan id="tspan284" y="0" x="0 5.7628798 11.39328 20.048639 25.425119 34.080479 39.600479 42.86832">Kumamoto</tspan></text>
</g>
    </g>
    <g id="g286">
      <g clip-path="url(#clipPath290)" id="g288"><text id="text294" style="font-variant:normal;font-weight:normal;font-size:11.03999996px;font-family:'Aptos Narrow';-inkscape-font-specification:'Aptos Narrow';writing-mode:lr-tb;fill:#000000;fill-opacity:1;fill-rule:nonzero;stroke:none" transform="matrix(1,0,0,-1,79.44,481.54)"><tspan id="tspan296" y="0" x="0 5.2992001 10.89648 16.54896 18.61344 21.947519 24.011999 29.85216">F23 - P2</tspan></text>
</g>
    </g>
    <g id="g298">
      <g clip-path="url(#clipPath302)" id="g300"><text id="text306" style="font-variant:normal;font-weight:normal;font-size:11.03999996px;font-family:'Aptos Narrow';-inkscape-font-specification:'Aptos Narrow';writing-mode:lr-tb;fill:#000000;fill-opacity:1;fill-rule:nonzero;stroke:none" transform="matrix(1,0,0,-1,217.22,481.54)"><tspan id="tspan308" y="0" x="0 7.0799999">N3</tspan></text>
</g>
    </g>
    <g id="g310">
      <g clip-path="url(#clipPath314)" id="g312"><text id="text318" style="font-variant:normal;font-weight:normal;font-size:11.03999996px;font-family:'Aptos Narrow';-inkscape-font-specification:'Aptos Narrow';writing-mode:lr-tb;fill:#000000;fill-opacity:1;fill-rule:nonzero;stroke:none" transform="matrix(1,0,0,-1,15,466.3)"><tspan id="tspan320" y="0" x="0 4.8134398 10.18992 12.70704 18.006241 23.603519 29.256001 34.886398">Taichung</tspan></text>
</g>
    </g>
    <g id="g322">
      <g clip-path="url(#clipPath326)" id="g324"><text id="text330" style="font-variant:normal;font-weight:normal;font-size:11.03999996px;font-family:'Aptos Narrow';-inkscape-font-specification:'Aptos Narrow';writing-mode:lr-tb;fill:#000000;fill-opacity:1;fill-rule:nonzero;stroke:none" transform="matrix(1,0,0,-1,79.44,466.3)"><tspan id="tspan332" y="0" x="0 5.2992001 10.89648 16.54896 18.61344 21.947519 24.011999 29.85216 35.493599 38.94912 44.844479 50.47488 53.930401 59.82576 65.456161 68.911682 74.807037">F25 - P1/P2/P3/P4</tspan></text>
</g>
    </g>
    <g id="g334">
      <g clip-path="url(#clipPath338)" id="g336"><text id="text342" style="font-variant:normal;font-weight:normal;font-size:11.03999996px;font-family:'Aptos Narrow';-inkscape-font-specification:'Aptos Narrow';writing-mode:lr-tb;fill:#000000;fill-opacity:1;fill-rule:nonzero;stroke:none" transform="matrix(1,0,0,-1,217.22,466.3)"><tspan id="tspan344" y="0" x="0 5.89536 11.49264">A14</tspan></text>
</g>
    </g>
    <g id="g346">
      <g clip-path="url(#clipPath350)" id="g348"><text id="text354" style="font-variant:normal;font-weight:normal;font-size:11.03999996px;font-family:'Aptos Narrow';-inkscape-font-specification:'Aptos Narrow';writing-mode:lr-tb;fill:#000000;fill-opacity:1;fill-rule:nonzero;stroke:none" transform="matrix(1,0,0,-1,15,451.06)"><tspan id="tspan356" y="0" x="0 4.8134398 10.18992 12.70704 18.33744 23.713921">Tainan</tspan></text>
</g>
    </g>
    <g id="g358">
      <g clip-path="url(#clipPath362)" id="g360"><text id="text366" style="font-variant:normal;font-weight:normal;font-size:11.03999996px;font-family:'Aptos Narrow';-inkscape-font-specification:'Aptos Narrow';writing-mode:lr-tb;fill:#000000;fill-opacity:1;fill-rule:nonzero;stroke:none" transform="matrix(1,0,0,-1,79.44,451.06)"><tspan id="tspan368" y="0" x="0 5.2992001 10.89648 16.54896 18.61344 21.947519 24.011999 29.85216 35.493599 38.94912 44.844479 50.47488 53.930401 59.82576 65.456161 68.911682 74.807037">F26 - P1/P2/P3/P4</tspan></text>
</g>
    </g>
    <g id="g370">
      <g clip-path="url(#clipPath374)" id="g372"><text id="text378" style="font-variant:normal;font-weight:normal;font-size:11.03999996px;font-family:'Aptos Narrow';-inkscape-font-specification:'Aptos Narrow';writing-mode:lr-tb;fill:#000000;fill-opacity:1;fill-rule:nonzero;stroke:none" transform="matrix(1,0,0,-1,217.22,451.06)"><tspan id="tspan380" y="0" x="0 5.89536 11.49264">A10</tspan></text>
</g>
    </g>
    <g id="g382">
      <g clip-path="url(#clipPath386)" id="g384">
        <path id="path390" style="fill:none;stroke:#000000;stroke-width:0.14;stroke-linecap:square;stroke-linejoin:round;stroke-miterlimit:10;stroke-dasharray:none;stroke-opacity:1" d="m 12.66,600.3 0,-153.26"/>
        <path id="path392" style="fill:#000000;fill-opacity:1;fill-rule:evenodd;stroke:none" d="m 12.6,446.98 0.96,0 0,153.38 -0.96,0 0,-153.38 z"/>
        <path id="path394" style="fill:none;stroke:#000000;stroke-width:0.14;stroke-linecap:square;stroke-linejoin:round;stroke-miterlimit:10;stroke-dasharray:none;stroke-opacity:1" d="m 383.27,599.34 0,-152.3"/>
        <path id="path396" style="fill:#000000;fill-opacity:1;fill-rule:evenodd;stroke:none" d="m 383.21,446.98 0.95999,0 0,152.42 -0.95999,0 0,-152.42 z"/>
        <path id="path398" style="fill:none;stroke:#000000;stroke-width:0.14;stroke-linecap:square;stroke-linejoin:round;stroke-miterlimit:10;stroke-dasharray:none;stroke-opacity:1" d="m 13.62,600.3 370.49,0"/>
        <path id="path400" style="fill:#000000;fill-opacity:1;fill-rule:evenodd;stroke:none" d="m 13.56,599.4 370.61,0 0,0.96 -370.61,0 0,-0.96 z"/>
        <path id="path402" style="fill:none;stroke:#000000;stroke-width:0.14;stroke-linecap:square;stroke-linejoin:round;stroke-miterlimit:10;stroke-dasharray:none;stroke-opacity:1" d="m 13.62,447.88 370.49,0"/>
        <path id="path404" style="fill:#000000;fill-opacity:1;fill-rule:evenodd;stroke:none" d="m 13.56,446.98 370.61,0 0,0.96001 -370.61,0 0,-0.96001 z"/>
      </g>
    </g>
  </g>
</svg>
