<?xml version="1.0" encoding="UTF-8" standalone="no"?>
<svg xmlns:dc="http://purl.org/dc/elements/1.1/" xmlns:cc="http://creativecommons.org/ns#" xmlns:rdf="http://www.w3.org/1999/02/22-rdf-syntax-ns#" xmlns:svg="http://www.w3.org/2000/svg" xmlns="http://www.w3.org/2000/svg" viewBox="63 310.2 639 369.75" height="369.75" width="639" xml:space="preserve" version="1.1" id="svg2">
  <metadata id="metadata8">
    <rdf:RDF>
      <cc:Work rdf:about="">
        <dc:format>image/svg+xml</dc:format>
        <dc:type rdf:resource="http://purl.org/dc/dcmitype/StillImage"/>
      </cc:Work>
    </rdf:RDF>
  </metadata>
  <defs id="defs6">
    <clipPath id="clipPath16" clipPathUnits="userSpaceOnUse">
      <path style="clip-rule:evenodd" id="path18" d="m 50.399,248.04 511.2,0 0,295.92 -511.2,0 0,-295.92 z"/>
    </clipPath>
    <clipPath id="clipPath26" clipPathUnits="userSpaceOnUse">
      <path style="clip-rule:evenodd" id="path28" d="m 50.4,248.04 511.2,0 0,295.92 -511.2,0 0,-295.92 z"/>
    </clipPath>
    <clipPath id="clipPath40" clipPathUnits="userSpaceOnUse">
      <path style="clip-rule:evenodd" id="path42" d="m 86.426,275.14 458.73,0 0,252.1 -458.73,0 0,-252.1 z"/>
    </clipPath>
    <clipPath id="clipPath50" clipPathUnits="userSpaceOnUse">
      <path style="clip-rule:evenodd" id="path52" d="m 86.426,275.14 458.73,0 0,252.1 -458.73,0 0,-252.1 z"/>
    </clipPath>
    <clipPath id="clipPath60" clipPathUnits="userSpaceOnUse">
      <path style="clip-rule:evenodd" id="path62" d="m 50.52,248.04 510.96,0 0,295.8 -510.96,0 0,-295.8 z"/>
    </clipPath>
    <clipPath id="clipPath72" clipPathUnits="userSpaceOnUse">
      <path style="clip-rule:evenodd" id="path74" d="m 50.52,248.04 510.96,0 0,295.8 -510.96,0 0,-295.8 z"/>
    </clipPath>
    <clipPath id="clipPath84" clipPathUnits="userSpaceOnUse">
      <path style="clip-rule:evenodd" id="path86" d="m 50.52,248.04 510.96,0 0,295.8 -510.96,0 0,-295.8 z"/>
    </clipPath>
    <clipPath id="clipPath96" clipPathUnits="userSpaceOnUse">
      <path style="clip-rule:evenodd" id="path98" d="m 50.52,248.04 510.96,0 0,295.8 -510.96,0 0,-295.8 z"/>
    </clipPath>
    <clipPath id="clipPath108" clipPathUnits="userSpaceOnUse">
      <path style="clip-rule:evenodd" id="path110" d="m 50.52,248.04 510.96,0 0,295.8 -510.96,0 0,-295.8 z"/>
    </clipPath>
    <clipPath id="clipPath120" clipPathUnits="userSpaceOnUse">
      <path style="clip-rule:evenodd" id="path122" d="m 50.52,248.04 510.96,0 0,295.8 -510.96,0 0,-295.8 z"/>
    </clipPath>
    <clipPath id="clipPath132" clipPathUnits="userSpaceOnUse">
      <path style="clip-rule:evenodd" id="path134" d="m 50.52,248.04 510.96,0 0,295.8 -510.96,0 0,-295.8 z"/>
    </clipPath>
    <clipPath id="clipPath144" clipPathUnits="userSpaceOnUse">
      <path style="clip-rule:evenodd" id="path146" d="m 50.52,248.04 510.96,0 0,295.8 -510.96,0 0,-295.8 z"/>
    </clipPath>
    <clipPath id="clipPath156" clipPathUnits="userSpaceOnUse">
      <path style="clip-rule:evenodd" id="path158" d="m 50.52,248.04 510.96,0 0,295.8 -510.96,0 0,-295.8 z"/>
    </clipPath>
    <clipPath id="clipPath168" clipPathUnits="userSpaceOnUse">
      <path style="clip-rule:evenodd" id="path170" d="m 50.52,248.04 510.96,0 0,295.8 -510.96,0 0,-295.8 z"/>
    </clipPath>
    <clipPath id="clipPath180" clipPathUnits="userSpaceOnUse">
      <path style="clip-rule:evenodd" id="path182" d="m 50.52,248.04 510.96,0 0,295.8 -510.96,0 0,-295.8 z"/>
    </clipPath>
    <clipPath id="clipPath192" clipPathUnits="userSpaceOnUse">
      <path style="clip-rule:evenodd" id="path194" d="m 50.52,248.04 510.96,0 0,295.8 -510.96,0 0,-295.8 z"/>
    </clipPath>
    <clipPath id="clipPath204" clipPathUnits="userSpaceOnUse">
      <path style="clip-rule:evenodd" id="path206" d="m 50.52,248.04 510.96,0 0,295.8 -510.96,0 0,-295.8 z"/>
    </clipPath>
    <clipPath id="clipPath216" clipPathUnits="userSpaceOnUse">
      <path style="clip-rule:evenodd" id="path218" d="m 50.52,248.04 510.96,0 0,295.8 -510.96,0 0,-295.8 z"/>
    </clipPath>
    <clipPath id="clipPath228" clipPathUnits="userSpaceOnUse">
      <path style="clip-rule:evenodd" id="path230" d="m 50.52,248.04 510.96,0 0,295.8 -510.96,0 0,-295.8 z"/>
    </clipPath>
    <clipPath id="clipPath240" clipPathUnits="userSpaceOnUse">
      <path style="clip-rule:evenodd" id="path242" d="m 50.52,248.04 510.96,0 0,295.8 -510.96,0 0,-295.8 z"/>
    </clipPath>
    <clipPath id="clipPath252" clipPathUnits="userSpaceOnUse">
      <path style="clip-rule:evenodd" id="path254" d="m 50.52,248.04 510.96,0 0,295.8 -510.96,0 0,-295.8 z"/>
    </clipPath>
    <clipPath id="clipPath264" clipPathUnits="userSpaceOnUse">
      <path style="clip-rule:evenodd" id="path266" d="m 50.52,248.04 510.96,0 0,295.8 -510.96,0 0,-295.8 z"/>
    </clipPath>
    <clipPath id="clipPath276" clipPathUnits="userSpaceOnUse">
      <path style="clip-rule:evenodd" id="path278" d="m 50.52,248.04 510.96,0 0,295.8 -510.96,0 0,-295.8 z"/>
    </clipPath>
    <clipPath id="clipPath290" clipPathUnits="userSpaceOnUse">
      <path style="clip-rule:evenodd" id="path292" d="m 50.52,248.04 510.96,0 0,295.8 -510.96,0 0,-295.8 z"/>
    </clipPath>
    <clipPath id="clipPath304" clipPathUnits="userSpaceOnUse">
      <path style="clip-rule:evenodd" id="path306" d="m 50.52,248.04 510.96,0 0,295.8 -510.96,0 0,-295.8 z"/>
    </clipPath>
  </defs>
  <g transform="matrix(1.25,0,0,-1.25,0,990)" id="g10">
    <g id="g12">
      <g clip-path="url(#clipPath16)" id="g14">
        <path id="path20" style="fill:none;stroke:#000000;stroke-width:0.14;stroke-linecap:butt;stroke-linejoin:miter;stroke-miterlimit:10;stroke-dasharray:none;stroke-opacity:0" d="m 50.413,248 511.04,0 0,295.77 -511.04,0 0,-295.77 z"/>
      </g>
    </g>
    <g id="g22">
      <g clip-path="url(#clipPath26)" id="g24">
        <path id="path30" style="fill:#ffffff;fill-opacity:1;fill-rule:evenodd;stroke:none" d="m 50.413,248 511.04,0 0,295.77 -511.04,0 0,-295.77 z"/>
      </g>
    </g>
    <path id="path32" style="fill:none;stroke:#808080;stroke-width:1.35800004;stroke-linecap:butt;stroke-linejoin:round;stroke-miterlimit:10;stroke-dasharray:none;stroke-opacity:1" d="m 86.488,276.13 0,251.04"/>
    <path id="path34" style="fill:none;stroke:#808080;stroke-width:1.35800004;stroke-linecap:butt;stroke-linejoin:round;stroke-miterlimit:10;stroke-dasharray:none;stroke-opacity:1" d="m 86.488,383.72 457.702,0"/>
    <g id="g36">
      <g clip-path="url(#clipPath40)" id="g38">
        <path id="path44" style="fill:none;stroke:#137cb1;stroke-width:2.03699994;stroke-linecap:round;stroke-linejoin:round;stroke-miterlimit:10;stroke-dasharray:none;stroke-opacity:1" d="m -876.2,425.55 11.28,-40.91 11.4,-32.43 11.41,-198.28 11.24,156.89 11.41,99.41 11.41,34.06 11.24,-1.31 11.41,-33.57 11.41,26.89 11.24,-13.04 11.41,-50.35 11.24,54.27 11.41,-1.96 11.41,-23.3 11.24,30.14 11.41,-43.18 11.4,-2.77 11.25,-4.24 11.41,20.54 11.4,-14.18 11.25,-11.25 11.4,21.68 11.25,-9.94 11.41,4.23 11.4,-17.27 11.25,-0.16 11.4,-24.94 11.41,5.71 11.24,48.72 11.41,-49.21 11.41,3.58 11.24,26.08 11.41,14.18 11.24,-15.97 11.41,-10.76 11.41,20.53 11.24,-4.56 11.41,-4.56 11.41,40.41 11.24,-28.84 11.41,-30.96 11.4,42.69 11.25,-9.78 11.41,-23.95 11.24,10.43 11.41,34.22 11.4,-10.27 11.25,-0.16 11.41,-18.9 11.4,3.58 11.25,-5.7 11.4,11.89 11.41,23.31 11.24,-27.54 11.41,-5.87 11.41,-0.81 11.24,-19.72 11.41,-19.39 11.24,-72.52 11.41,119.12 11.41,21.51 11.24,-14.01 11.41,-3.1 11.41,-6.52 11.24,-18.25 11.41,38.79 11.41,-10.6 11.24,13.53 11.406,-7.01 11.244,7.66 11.407,-17.92 11.407,-20.7 11.245,5.54 11.407,-29.5 11.407,20.37 11.244,0.33 11.407,14.99 11.4071,-3.75 11.2439,-15.8 11.407,43.34 11.244,-28.68 11.407,33.74 11.408,-37.48 11.244,22.65 11.407,0.65 11.407,-38.62 11.241,13.85 11.41,0.16 11.41,7.17 11.24,21.35 11.41,-32.27 11.24,2.12 11.41,11.41 11.41,-14.5 11.24,35.85 11.41,-42.53 11.4,6.35 11.25,-3.91 11.41,21.84 11.4,-19.4 11.25,-3.26 11.4,10.92 11.25,-38.94 11.41,-180.07 11.4,394.05 11.25,-100.57 11.4,-58.17 11.41,-7.66 11.24,6.84 11.41,-6.68 11.41,22.82 11.24,-23.31 11.41,-10.26 11.24,28.03 11.41,19.23 11.41,-23.96 11.24,-7.33 11.41,2.44 11.41,-29.98 11.24,7.49 11.41,8.31 11.41,-16.45 11.24,0 11.41,17.27 11.32,-3.91"/>
      </g>
    </g>
    <g id="g46">
      <g clip-path="url(#clipPath50)" id="g48">
        <path id="path54" style="fill:none;stroke:#eacc80;stroke-width:2.03699994;stroke-linecap:round;stroke-linejoin:round;stroke-miterlimit:10;stroke-dasharray:none;stroke-opacity:1" d="m -876.2,286.05 11.28,85.72 11.4,42.37 11.41,-85.88 11.24,-102.84 11.41,169.98 11.41,31.94 11.24,-116.52 11.41,161.17 11.41,-77.41 11.24,5.54 11.41,6.69 11.24,31.61 11.41,-70.24 11.41,16.3 11.24,-107.06 11.41,136.23 11.4,12.22 11.25,-55.73 11.41,110.65 11.4,-142.1 11.25,58.18 11.4,38.94 11.25,62.58 11.41,-84.41 11.4,5.7 11.25,-104.46 11.4,59.81 11.41,45.14 11.24,-67.3 11.41,113.42 11.41,-44.33 11.24,-5.38 11.41,-11.08 11.24,14.99 11.41,-18.57 11.41,-36.18 11.24,-9.61 11.41,24.11 11.41,29.34 11.24,-28.2 11.41,47.26 11.4,-45.79 11.25,3.26 11.41,33.9 11.24,-21.84 11.41,17.6 11.4,-32.92 11.25,6.84 11.41,10.43 11.4,-32.75 11.25,7.33 11.4,24.94 11.41,20.53 11.24,16.62 11.41,-9.94 11.41,-1.47 11.24,-23.95 11.41,-22.16 11.24,44.48 11.41,-68.28 11.41,-26.4 11.24,24.61 11.41,44.49 11.41,16.78 11.24,-14.34 11.41,-0.49 11.41,-71.05 11.24,58.34 11.406,5.38 11.244,-59.32 11.407,-42.04 11.407,138.52 11.245,-11.09 11.407,17.93 11.407,-41.72 11.244,-77.24 11.407,8.15 11.4071,45.46 11.2439,116.36 11.407,-155.47 11.244,22.49 11.407,11.41 11.408,-35.04 11.244,71.22 11.407,6.84 11.407,-75.61 11.241,99.73 11.41,-53.94 11.41,-42.21 11.24,28.03 11.41,-29.33 11.24,7.01 11.41,49.7 11.41,71.37 11.24,-146.82 11.41,105.11 11.4,-48.08 11.25,-17.43 11.41,-19.07 11.4,-6.68 11.25,43.67 11.4,-26.4 11.25,92.07 11.41,-85.39 11.4,-6.02 11.25,-13.69 11.4,76.59 11.41,-21.35 11.24,0.16 11.41,-10.26 11.41,-2.94 11.24,47.42 11.41,-38.78 11.24,75.78 11.41,-79.53 11.41,64.04 11.24,7.66 11.41,-14.5 11.41,88.6 11.24,-154.43 11.41,25.09 11.41,-60.95 11.24,-53.77 11.41,93.05 11.32,-18.09"/>
      </g>
    </g>
    <g id="g56">
      <g clip-path="url(#clipPath60)" id="g58"><text id="text64" style="font-variant:normal;font-weight:normal;font-size:12.2159996px;font-family:'Roboto Condensed';-inkscape-font-specification:'Roboto Condensed';writing-mode:lr-tb;fill:#000000;fill-opacity:1;fill-rule:nonzero;stroke:none" transform="matrix(1,0,0,-1,52.464,272.42)"><tspan id="tspan66" y="0" x="0 3.0784321 9.1131363 15.14784">-15%</tspan></text>
</g>
    </g>
    <g id="g68">
      <g clip-path="url(#clipPath72)" id="g70"><text id="text76" style="font-variant:normal;font-weight:normal;font-size:12.23999977px;font-family:'Roboto Condensed';-inkscape-font-specification:'Roboto Condensed';writing-mode:lr-tb;fill:#000000;fill-opacity:1;fill-rule:nonzero;stroke:none" transform="matrix(1,0,0,-1,52.464,308.3)"><tspan id="tspan78" y="0" x="0 3.08448 9.1310396 15.12864">-10%</tspan></text>
</g>
    </g>
    <g id="g80">
      <g clip-path="url(#clipPath84)" id="g82"><text id="text88" style="font-variant:normal;font-weight:normal;font-size:12.2159996px;font-family:'Roboto Condensed';-inkscape-font-specification:'Roboto Condensed';writing-mode:lr-tb;fill:#000000;fill-opacity:1;fill-rule:nonzero;stroke:none" transform="matrix(1,0,0,-1,58.512,344.16)"><tspan id="tspan90" y="0" x="0 3.0784321 9.1131363">-5%</tspan></text>
</g>
    </g>
    <g id="g92">
      <g clip-path="url(#clipPath96)" id="g94"><text id="text100" style="font-variant:normal;font-weight:normal;font-size:12.23999977px;font-family:'Roboto Condensed';-inkscape-font-specification:'Roboto Condensed';writing-mode:lr-tb;fill:#000000;fill-opacity:1;fill-rule:nonzero;stroke:none" transform="matrix(1,0,0,-1,61.536,380.04)"><tspan id="tspan102" y="0" x="0 6.0239601">0%</tspan></text>
</g>
    </g>
    <g id="g104">
      <g clip-path="url(#clipPath108)" id="g106"><text id="text112" style="font-variant:normal;font-weight:normal;font-size:12.2159996px;font-family:'Roboto Condensed';-inkscape-font-specification:'Roboto Condensed';writing-mode:lr-tb;fill:#000000;fill-opacity:1;fill-rule:nonzero;stroke:none" transform="matrix(1,0,0,-1,61.536,415.9)"><tspan id="tspan114" y="0" x="0 6.024004">5%</tspan></text>
</g>
    </g>
    <g id="g116">
      <g clip-path="url(#clipPath120)" id="g118"><text id="text124" style="font-variant:normal;font-weight:normal;font-size:12.23999977px;font-family:'Roboto Condensed';-inkscape-font-specification:'Roboto Condensed';writing-mode:lr-tb;fill:#000000;fill-opacity:1;fill-rule:nonzero;stroke:none" transform="matrix(1,0,0,-1,55.488,451.78)"><tspan id="tspan126" y="0" x="0 6.0239601 12.04792">10%</tspan></text>
</g>
    </g>
    <g id="g128">
      <g clip-path="url(#clipPath132)" id="g130"><text id="text136" style="font-variant:normal;font-weight:normal;font-size:12.2159996px;font-family:'Roboto Condensed';-inkscape-font-specification:'Roboto Condensed';writing-mode:lr-tb;fill:#000000;fill-opacity:1;fill-rule:nonzero;stroke:none" transform="matrix(1,0,0,-1,55.488,487.63)"><tspan id="tspan138" y="0" x="0 6.024004 12.048008">15%</tspan></text>
</g>
    </g>
    <g id="g140">
      <g clip-path="url(#clipPath144)" id="g142"><text id="text148" style="font-variant:normal;font-weight:normal;font-size:12.2159996px;font-family:'Roboto Condensed';-inkscape-font-specification:'Roboto Condensed';writing-mode:lr-tb;fill:#000000;fill-opacity:1;fill-rule:nonzero;stroke:none" transform="matrix(1,0,0,-1,55.488,523.51)"><tspan id="tspan150" y="0" x="0 6.024004 12.048008">20%</tspan></text>
</g>
    </g>
    <g id="g152">
      <g clip-path="url(#clipPath156)" id="g154"><text id="text160" style="font-variant:normal;font-weight:normal;font-size:12.2159996px;font-family:'Roboto Condensed';-inkscape-font-specification:'Roboto Condensed';writing-mode:lr-tb;fill:#000000;fill-opacity:1;fill-rule:nonzero;stroke:none" transform="matrix(1,0,0,-1,71.808,256.73)"><tspan id="tspan162" y="0" x="0 6.3401041 12.020544 18.043032 21.13368 27.168385">Sep-15</tspan></text>
</g>
    </g>
    <g id="g164">
      <g clip-path="url(#clipPath168)" id="g166"><text id="text172" style="font-variant:normal;font-weight:normal;font-size:12.2159996px;font-family:'Roboto Condensed';-inkscape-font-specification:'Roboto Condensed';writing-mode:lr-tb;fill:#000000;fill-opacity:1;fill-rule:nonzero;stroke:none" transform="matrix(1,0,0,-1,117.19,256.73)"><tspan id="tspan174" y="0" x="0 6.3401041 12.069408 18.091896 21.206976 27.24168">Sep-16</tspan></text>
</g>
    </g>
    <g id="g176">
      <g clip-path="url(#clipPath180)" id="g178"><text id="text184" style="font-variant:normal;font-weight:normal;font-size:12.2159996px;font-family:'Roboto Condensed';-inkscape-font-specification:'Roboto Condensed';writing-mode:lr-tb;fill:#000000;fill-opacity:1;fill-rule:nonzero;stroke:none" transform="matrix(1,0,0,-1,162.6,256.73)"><tspan id="tspan186" y="0" x="0 6.3401041 12.069408 18.091896 21.182545 27.217249">Sep-17</tspan></text>
</g>
    </g>
    <g id="g188">
      <g clip-path="url(#clipPath192)" id="g190"><text id="text196" style="font-variant:normal;font-weight:normal;font-size:12.2159996px;font-family:'Roboto Condensed';-inkscape-font-specification:'Roboto Condensed';writing-mode:lr-tb;fill:#000000;fill-opacity:1;fill-rule:nonzero;stroke:none" transform="matrix(1,0,0,-1,208.01,256.73)"><tspan id="tspan198" y="0" x="0 6.3401041 12.020544 18.043032 21.13368 27.168385">Sep-18</tspan></text>
</g>
    </g>
    <g id="g200">
      <g clip-path="url(#clipPath204)" id="g202"><text id="text208" style="font-variant:normal;font-weight:normal;font-size:12.2159996px;font-family:'Roboto Condensed';-inkscape-font-specification:'Roboto Condensed';writing-mode:lr-tb;fill:#000000;fill-opacity:1;fill-rule:nonzero;stroke:none" transform="matrix(1,0,0,-1,253.39,256.73)"><tspan id="tspan210" y="0" x="0 6.3401041 12.069408 18.091896 21.182545 27.217249">Sep-19</tspan></text>
</g>
    </g>
    <g id="g212">
      <g clip-path="url(#clipPath216)" id="g214"><text id="text220" style="font-variant:normal;font-weight:normal;font-size:12.2159996px;font-family:'Roboto Condensed';-inkscape-font-specification:'Roboto Condensed';writing-mode:lr-tb;fill:#000000;fill-opacity:1;fill-rule:nonzero;stroke:none" transform="matrix(1,0,0,-1,298.8,256.73)"><tspan id="tspan222" y="0" x="0 6.3401041 12.069408 18.091896 21.182545 27.217249">Sep-20</tspan></text>
</g>
    </g>
    <g id="g224">
      <g clip-path="url(#clipPath228)" id="g226"><text id="text232" style="font-variant:normal;font-weight:normal;font-size:12.2159996px;font-family:'Roboto Condensed';-inkscape-font-specification:'Roboto Condensed';writing-mode:lr-tb;fill:#000000;fill-opacity:1;fill-rule:nonzero;stroke:none" transform="matrix(1,0,0,-1,344.21,256.73)"><tspan id="tspan234" y="0" x="0 6.3401041 12.020544 18.043032 21.13368 27.168385">Sep-21</tspan></text>
</g>
    </g>
    <g id="g236">
      <g clip-path="url(#clipPath240)" id="g238"><text id="text244" style="font-variant:normal;font-weight:normal;font-size:12.2159996px;font-family:'Roboto Condensed';-inkscape-font-specification:'Roboto Condensed';writing-mode:lr-tb;fill:#000000;fill-opacity:1;fill-rule:nonzero;stroke:none" transform="matrix(1,0,0,-1,389.59,256.73)"><tspan id="tspan246" y="0" x="0 6.3401041 12.069408 18.091896 21.182545 27.217249">Sep-22</tspan></text>
</g>
    </g>
    <g id="g248">
      <g clip-path="url(#clipPath252)" id="g250"><text id="text256" style="font-variant:normal;font-weight:normal;font-size:12.2159996px;font-family:'Roboto Condensed';-inkscape-font-specification:'Roboto Condensed';writing-mode:lr-tb;fill:#000000;fill-opacity:1;fill-rule:nonzero;stroke:none" transform="matrix(1,0,0,-1,435,256.73)"><tspan id="tspan258" y="0" x="0 6.3401041 12.069408 18.091896 21.182545 27.217249">Sep-23</tspan></text>
</g>
    </g>
    <g id="g260">
      <g clip-path="url(#clipPath264)" id="g262"><text id="text268" style="font-variant:normal;font-weight:normal;font-size:12.2159996px;font-family:'Roboto Condensed';-inkscape-font-specification:'Roboto Condensed';writing-mode:lr-tb;fill:#000000;fill-opacity:1;fill-rule:nonzero;stroke:none" transform="matrix(1,0,0,-1,480.38,256.73)"><tspan id="tspan270" y="0" x="0 6.3401041 12.069408 18.091896 21.206976 27.24168">Sep-24</tspan></text>
</g>
    </g>
    <g id="g272">
      <g clip-path="url(#clipPath276)" id="g274"><text id="text280" style="font-variant:normal;font-weight:normal;font-size:12.2159996px;font-family:'Roboto Condensed';-inkscape-font-specification:'Roboto Condensed';writing-mode:lr-tb;fill:#000000;fill-opacity:1;fill-rule:nonzero;stroke:none" transform="matrix(1,0,0,-1,525.79,256.73)"><tspan id="tspan282" y="0" x="0 6.3401041 12.069408 18.091896 21.182545 27.217249">Sep-25</tspan></text>
</g>
    </g>
    <path id="path284" style="fill:none;stroke:#137cb1;stroke-width:2.03699994;stroke-linecap:round;stroke-linejoin:round;stroke-miterlimit:10;stroke-dasharray:none;stroke-opacity:1" d="m 108.12,519.77 26.08,0"/>
    <g id="g286">
      <g clip-path="url(#clipPath290)" id="g288"><text id="text294" style="font-variant:normal;font-weight:normal;font-size:12.2159996px;font-family:'Roboto Condensed';-inkscape-font-specification:'Roboto Condensed';writing-mode:lr-tb;fill:#000000;fill-opacity:1;fill-rule:nonzero;stroke:none" transform="matrix(1,0,0,-1,136.97,516.1)"><tspan id="tspan296" y="0" x="0 6.8531761 10.456896 13.400952 18.6294 24.480864 28.0968 33.826103 36.635784 39.396599 45.431305 50.659752 56.389057 61.922905 65.538841 74.798569 80.52787 86.391556">Private investment</tspan></text>
</g>
    </g>
    <path id="path298" style="fill:none;stroke:#eacc80;stroke-width:2.03699994;stroke-linecap:round;stroke-linejoin:round;stroke-miterlimit:10;stroke-dasharray:none;stroke-opacity:1" d="m 108.12,495.33 26.08,0"/>
    <g id="g300">
      <g clip-path="url(#clipPath304)" id="g302"><text id="text308" style="font-variant:normal;font-weight:normal;font-size:12.2159996px;font-family:'Roboto Condensed';-inkscape-font-specification:'Roboto Condensed';writing-mode:lr-tb;fill:#000000;fill-opacity:1;fill-rule:nonzero;stroke:none" transform="matrix(1,0,0,-1,136.97,491.66)"><tspan id="tspan310" y="0" x="0 6.8531761 12.753504 18.775991 21.585672 24.346489 30.051359 32.861038 35.621857 41.656559 46.88501 52.614311 58.148159 61.764095 71.023827 76.753128 82.616806">Public investment</tspan></text>
</g>
    </g>
    <path id="path312" style="fill:none;stroke:#ff0000;stroke-width:1.35800004;stroke-linecap:butt;stroke-linejoin:miter;stroke-miterlimit:8;stroke-dasharray:none;stroke-opacity:1" d="m 490.76,348.65 c 0,41.74 13.72,75.58 30.66,75.58 16.93,0 30.66,-33.84 30.66,-75.58 0,-41.75 -13.73,-75.59 -30.66,-75.59 -16.94,0 -30.66,33.84 -30.66,75.59 z"/>
  </g>
</svg>
