<?xml version="1.0" encoding="UTF-8" standalone="no"?>
<svg xmlns:dc="http://purl.org/dc/elements/1.1/" xmlns:cc="http://creativecommons.org/ns#" xmlns:rdf="http://www.w3.org/1999/02/22-rdf-syntax-ns#" xmlns:svg="http://www.w3.org/2000/svg" xmlns="http://www.w3.org/2000/svg" viewBox="63.077769 159.58152 864 446" height="446" width="864" xml:space="preserve" version="1.1" id="svg2">
  <metadata id="metadata8">
    <rdf:RDF>
      <cc:Work rdf:about="">
        <dc:format>image/svg+xml</dc:format>
        <dc:type rdf:resource="http://purl.org/dc/dcmitype/StillImage"/>
      </cc:Work>
    </rdf:RDF>
  </metadata>
  <defs id="defs6">
    <clipPath id="clipPath28" clipPathUnits="userSpaceOnUse">
      <path style="clip-rule:evenodd" id="path30" d="m 50.88,127.92 690.36,0 0,356.04 -690.36,0 0,-356.04 z"/>
    </clipPath>
    <clipPath id="clipPath40" clipPathUnits="userSpaceOnUse">
      <path style="clip-rule:evenodd" id="path42" d="m 50.88,127.92 690.36,0 0,356.04 -690.36,0 0,-356.04 z"/>
    </clipPath>
    <clipPath id="clipPath52" clipPathUnits="userSpaceOnUse">
      <path style="clip-rule:evenodd" id="path54" d="m 50.88,127.92 690.36,0 0,356.04 -690.36,0 0,-356.04 z"/>
    </clipPath>
    <clipPath id="clipPath64" clipPathUnits="userSpaceOnUse">
      <path style="clip-rule:evenodd" id="path66" d="m 50.88,127.92 690.36,0 0,356.04 -690.36,0 0,-356.04 z"/>
    </clipPath>
    <clipPath id="clipPath76" clipPathUnits="userSpaceOnUse">
      <path style="clip-rule:evenodd" id="path78" d="m 50.88,127.92 690.36,0 0,356.04 -690.36,0 0,-356.04 z"/>
    </clipPath>
    <clipPath id="clipPath88" clipPathUnits="userSpaceOnUse">
      <path style="clip-rule:evenodd" id="path90" d="m 50.88,127.92 690.36,0 0,356.04 -690.36,0 0,-356.04 z"/>
    </clipPath>
    <clipPath id="clipPath100" clipPathUnits="userSpaceOnUse">
      <path style="clip-rule:evenodd" id="path102" d="m 50.88,127.92 690.36,0 0,356.04 -690.36,0 0,-356.04 z"/>
    </clipPath>
    <clipPath id="clipPath112" clipPathUnits="userSpaceOnUse">
      <path style="clip-rule:evenodd" id="path114" d="m 50.88,127.92 690.36,0 0,356.04 -690.36,0 0,-356.04 z"/>
    </clipPath>
    <clipPath id="clipPath124" clipPathUnits="userSpaceOnUse">
      <path style="clip-rule:evenodd" id="path126" d="m 50.88,127.92 690.36,0 0,356.04 -690.36,0 0,-356.04 z"/>
    </clipPath>
    <clipPath id="clipPath136" clipPathUnits="userSpaceOnUse">
      <path style="clip-rule:evenodd" id="path138" d="m 50.88,127.92 690.36,0 0,356.04 -690.36,0 0,-356.04 z"/>
    </clipPath>
    <clipPath id="clipPath148" clipPathUnits="userSpaceOnUse">
      <path style="clip-rule:evenodd" id="path150" d="m 50.88,127.92 690.36,0 0,356.04 -690.36,0 0,-356.04 z"/>
    </clipPath>
    <clipPath id="clipPath160" clipPathUnits="userSpaceOnUse">
      <path style="clip-rule:evenodd" id="path162" d="m 50.88,127.92 690.36,0 0,356.04 -690.36,0 0,-356.04 z"/>
    </clipPath>
    <clipPath id="clipPath172" clipPathUnits="userSpaceOnUse">
      <path style="clip-rule:evenodd" id="path174" d="m 50.88,127.92 690.36,0 0,356.04 -690.36,0 0,-356.04 z"/>
    </clipPath>
    <clipPath id="clipPath184" clipPathUnits="userSpaceOnUse">
      <path style="clip-rule:evenodd" id="path186" d="m 50.88,127.92 690.36,0 0,356.04 -690.36,0 0,-356.04 z"/>
    </clipPath>
    <clipPath id="clipPath196" clipPathUnits="userSpaceOnUse">
      <path style="clip-rule:evenodd" id="path198" d="m 50.88,127.92 690.36,0 0,356.04 -690.36,0 0,-356.04 z"/>
    </clipPath>
    <clipPath id="clipPath208" clipPathUnits="userSpaceOnUse">
      <path style="clip-rule:evenodd" id="path210" d="m 50.88,127.92 690.36,0 0,356.04 -690.36,0 0,-356.04 z"/>
    </clipPath>
    <clipPath id="clipPath220" clipPathUnits="userSpaceOnUse">
      <path style="clip-rule:evenodd" id="path222" d="m 50.88,127.92 690.36,0 0,356.04 -690.36,0 0,-356.04 z"/>
    </clipPath>
    <clipPath id="clipPath232" clipPathUnits="userSpaceOnUse">
      <path style="clip-rule:evenodd" id="path234" d="m 50.88,127.92 690.36,0 0,356.04 -690.36,0 0,-356.04 z"/>
    </clipPath>
    <clipPath id="clipPath244" clipPathUnits="userSpaceOnUse">
      <path style="clip-rule:evenodd" id="path246" d="m 50.88,127.92 690.36,0 0,356.04 -690.36,0 0,-356.04 z"/>
    </clipPath>
    <clipPath id="clipPath256" clipPathUnits="userSpaceOnUse">
      <path style="clip-rule:evenodd" id="path258" d="m 50.88,127.92 690.36,0 0,356.04 -690.36,0 0,-356.04 z"/>
    </clipPath>
    <clipPath id="clipPath268" clipPathUnits="userSpaceOnUse">
      <path style="clip-rule:evenodd" id="path270" d="m 50.88,127.92 690.36,0 0,356.04 -690.36,0 0,-356.04 z"/>
    </clipPath>
    <clipPath id="clipPath280" clipPathUnits="userSpaceOnUse">
      <path style="clip-rule:evenodd" id="path282" d="m 50.88,127.92 690.36,0 0,356.04 -690.36,0 0,-356.04 z"/>
    </clipPath>
    <clipPath id="clipPath292" clipPathUnits="userSpaceOnUse">
      <path style="clip-rule:evenodd" id="path294" d="m 50.88,127.92 690.36,0 0,356.04 -690.36,0 0,-356.04 z"/>
    </clipPath>
    <clipPath id="clipPath306" clipPathUnits="userSpaceOnUse">
      <path style="clip-rule:evenodd" id="path308" d="m 50.88,127.92 690.36,0 0,356.04 -690.36,0 0,-356.04 z"/>
    </clipPath>
    <clipPath id="clipPath320" clipPathUnits="userSpaceOnUse">
      <path style="clip-rule:evenodd" id="path322" d="m 50.88,127.92 690.36,0 0,356.04 -690.36,0 0,-356.04 z"/>
    </clipPath>
    <clipPath id="clipPath332" clipPathUnits="userSpaceOnUse">
      <path style="clip-rule:evenodd" id="path334" d="m 50.4,127.56 691.2,0 0,356.88 -691.2,0 0,-356.88 z"/>
    </clipPath>
  </defs>
  <g transform="matrix(1.25,0,0,-1.25,0,765)" id="g10">
    <path id="path12" style="fill:none;stroke:#000000;stroke-width:0.14;stroke-linecap:butt;stroke-linejoin:miter;stroke-miterlimit:10;stroke-dasharray:none;stroke-opacity:0" d="m 50.897,127.93 690.3,0 0,355.97 -690.3,0 0,-355.97 z"/>
    <path id="path14" style="fill:#ffffff;fill-opacity:1;fill-rule:evenodd;stroke:none" d="m 50.897,127.93 690.3,0 0,355.97 -690.3,0 0,-355.97 z"/>
    <path id="path16" style="fill:none;stroke:#d9d9d9;stroke-width:0.86957002;stroke-linecap:butt;stroke-linejoin:round;stroke-miterlimit:10;stroke-dasharray:none;stroke-opacity:1" d="m 79.31,194.85 649.13,0 m -649.13,32.7 649.13,0 m -649.13,32.69 649.13,0 m -649.13,32.7 649.13,0 m -649.13,32.69 649.13,0 m -649.13,32.7 649.13,0 m -649.13,32.69 649.13,0 m -649.13,32.72 649.13,0"/>
    <path id="path18" style="fill:#137cb1;fill-opacity:1;fill-rule:nonzero;stroke:none" d="m 97.019,188.31 16.141,0 0,-26.23 -16.141,0 0,26.23 z m 72.071,85.29 16.28,0 0,-111.52 -16.28,0 0,111.52 z m 72.21,-25.88 16.14,0 0,-85.64 -16.14,0 0,85.64 z m 72.07,26.02 16.14,0 0,-111.66 -16.14,0 0,111.66 z m 72.21,-47.86 16.13,0 0,-63.8 -16.13,0 0,63.8 z m 72.07,38.4 16.13,0 0,-102.2 -16.13,0 0,102.2 z m 72.06,37.28 16.28,0 0,-139.48 -16.28,0 0,139.48 z m 72.21,-5.14 16.14,0 0,-134.34 -16.14,0 0,134.34 z m 72.07,36.59 16.14,0 0,-170.93 -16.14,0 0,170.93 z"/>
    <path id="path20" style="fill:#eacc7d;fill-opacity:1;fill-rule:nonzero;stroke:none" d="m 117.61,333.7 16.14,0 0,-171.62 -16.14,0 0,171.62 z m 72.07,-119.93 16.14,0 0,-51.69 -16.14,0 0,51.69 z m 72.07,62.75 16.28,0 0,-114.44 -16.28,0 0,114.44 z m 72.21,22.68 16.14,0 0,-137.12 -16.14,0 0,137.12 z m 72.07,-4.59 16.14,0 0,-132.53 -16.14,0 0,132.53 z m 72.21,33.53 16.14,0 0,-166.06 -16.14,0 0,166.06 z m 72.07,21.01 16.14,0 0,-187.07 -16.14,0 0,187.07 z m 72.07,43.54 16.27,0 0,-230.61 -16.27,0 0,230.61 z m 72.2,-56.62 16.14,0 0,-173.99 -16.14,0 0,173.99 z"/>
    <path id="path22" style="fill:none;stroke:#d9d9d9;stroke-width:0.86957002;stroke-linecap:butt;stroke-linejoin:round;stroke-miterlimit:10;stroke-dasharray:none;stroke-opacity:1" d="m 79.31,162.08 649.13,0"/>
    <g id="g24">
      <g clip-path="url(#clipPath28)" id="g26"><text id="text32" style="font-variant:normal;font-weight:normal;font-size:9.31200027px;font-family:Arial;-inkscape-font-specification:Arial;writing-mode:lr-tb;fill:#595959;fill-opacity:1;fill-rule:nonzero;stroke:none" transform="matrix(1,0,0,-1,58.44,159.1)"><tspan id="tspan34" y="0" x="0 5.1774721 7.7941442">0.0</tspan></text>
</g>
    </g>
    <g id="g36">
      <g clip-path="url(#clipPath40)" id="g38"><text id="text44" style="font-variant:normal;font-weight:normal;font-size:9.31200027px;font-family:Arial;-inkscape-font-specification:Arial;writing-mode:lr-tb;fill:#595959;fill-opacity:1;fill-rule:nonzero;stroke:none" transform="matrix(1,0,0,-1,58.44,191.81)"><tspan id="tspan46" y="0" x="0 5.1774721 7.7941442">0.1</tspan></text>
</g>
    </g>
    <g id="g48">
      <g clip-path="url(#clipPath52)" id="g50"><text id="text56" style="font-variant:normal;font-weight:normal;font-size:9.31200027px;font-family:Arial;-inkscape-font-specification:Arial;writing-mode:lr-tb;fill:#595959;fill-opacity:1;fill-rule:nonzero;stroke:none" transform="matrix(1,0,0,-1,58.44,224.52)"><tspan id="tspan58" y="0" x="0 5.1774721 7.7941442">0.2</tspan></text>
</g>
    </g>
    <g id="g60">
      <g clip-path="url(#clipPath64)" id="g62"><text id="text68" style="font-variant:normal;font-weight:normal;font-size:9.31200027px;font-family:Arial;-inkscape-font-specification:Arial;writing-mode:lr-tb;fill:#595959;fill-opacity:1;fill-rule:nonzero;stroke:none" transform="matrix(1,0,0,-1,58.44,257.23)"><tspan id="tspan70" y="0" x="0 5.1774721 7.7941442">0.3</tspan></text>
</g>
    </g>
    <g id="g72">
      <g clip-path="url(#clipPath76)" id="g74"><text id="text80" style="font-variant:normal;font-weight:normal;font-size:9.31200027px;font-family:Arial;-inkscape-font-specification:Arial;writing-mode:lr-tb;fill:#595959;fill-opacity:1;fill-rule:nonzero;stroke:none" transform="matrix(1,0,0,-1,58.44,289.94)"><tspan id="tspan82" y="0" x="0 5.1774721 7.7941442">0.4</tspan></text>
</g>
    </g>
    <g id="g84">
      <g clip-path="url(#clipPath88)" id="g86"><text id="text92" style="font-variant:normal;font-weight:normal;font-size:9.31200027px;font-family:Arial;-inkscape-font-specification:Arial;writing-mode:lr-tb;fill:#595959;fill-opacity:1;fill-rule:nonzero;stroke:none" transform="matrix(1,0,0,-1,58.44,322.66)"><tspan id="tspan94" y="0" x="0 5.1774721 7.7941442">0.5</tspan></text>
</g>
    </g>
    <g id="g96">
      <g clip-path="url(#clipPath100)" id="g98"><text id="text104" style="font-variant:normal;font-weight:normal;font-size:9.31200027px;font-family:Arial;-inkscape-font-specification:Arial;writing-mode:lr-tb;fill:#595959;fill-opacity:1;fill-rule:nonzero;stroke:none" transform="matrix(1,0,0,-1,58.44,355.37)"><tspan id="tspan106" y="0" x="0 5.1774721 7.7941442">0.6</tspan></text>
</g>
    </g>
    <g id="g108">
      <g clip-path="url(#clipPath112)" id="g110"><text id="text116" style="font-variant:normal;font-weight:normal;font-size:9.31200027px;font-family:Arial;-inkscape-font-specification:Arial;writing-mode:lr-tb;fill:#595959;fill-opacity:1;fill-rule:nonzero;stroke:none" transform="matrix(1,0,0,-1,58.44,388.08)"><tspan id="tspan118" y="0" x="0 5.1774721 7.7941442">0.7</tspan></text>
</g>
    </g>
    <g id="g120">
      <g clip-path="url(#clipPath124)" id="g122"><text id="text128" style="font-variant:normal;font-weight:normal;font-size:9.33600044px;font-family:Arial;-inkscape-font-specification:Arial;writing-mode:lr-tb;fill:#595959;fill-opacity:1;fill-rule:nonzero;stroke:none" transform="matrix(1,0,0,-1,58.44,420.82)"><tspan id="tspan130" y="0" x="0 5.1628079 7.7955599">0.8</tspan></text>
</g>
    </g>
    <g id="g132">
      <g clip-path="url(#clipPath136)" id="g134"><text id="text140" style="font-variant:normal;font-weight:normal;font-size:9.33600044px;font-family:Arial;-inkscape-font-specification:Arial;writing-mode:lr-tb;fill:#595959;fill-opacity:1;fill-rule:nonzero;stroke:none" transform="matrix(1,0,0,-1,83.16,148.06)"><tspan id="tspan142" y="0" x="0 6.67524 11.838048 19.614937 27.298464 32.461273 37.624081 39.696671 44.430023 49.592831 52.113552 54.186146 59.376961">Communication</tspan></text>
</g>
    </g>
    <g id="g144">
      <g clip-path="url(#clipPath148)" id="g146"><text id="text152" style="font-variant:normal;font-weight:normal;font-size:9.31200027px;font-family:Arial;-inkscape-font-specification:Arial;writing-mode:lr-tb;fill:#595959;fill-opacity:1;fill-rule:nonzero;stroke:none" transform="matrix(1,0,0,-1,97.608,137.38)"><tspan id="tspan154" y="0" x="0 6.1179838 11.388576 14.4336 19.015104 21.082369 25.682495 30.82272">Services</tspan></text>
</g>
    </g>
    <g id="g156">
      <g clip-path="url(#clipPath160)" id="g158"><text id="text164" style="font-variant:normal;font-weight:normal;font-size:9.33600044px;font-family:Arial;-inkscape-font-specification:Arial;writing-mode:lr-tb;fill:#595959;fill-opacity:1;fill-rule:nonzero;stroke:none" transform="matrix(1,0,0,-1,166.13,148.06)"><tspan id="tspan166" y="0" x="0 6.67524 11.838048 17.000856 21.715536 26.878344 34.533863 39.696671">Consumer</tspan></text>
</g>
    </g>
    <g id="g168">
      <g clip-path="url(#clipPath172)" id="g170"><text id="text176" style="font-variant:normal;font-weight:normal;font-size:9.31200027px;font-family:Arial;-inkscape-font-specification:Arial;writing-mode:lr-tb;fill:#595959;fill-opacity:1;fill-rule:nonzero;stroke:none" transform="matrix(1,0,0,-1,160.46,137.38)"><tspan id="tspan178" y="0" x="0 6.6673918 8.7346563 13.334784 18.055967 21.100992 26.241217 28.736832 30.804096 35.981567 41.093857 46.234081 49.418785">Discretionary</tspan></text>
</g>
    </g>
    <g id="g180">
      <g clip-path="url(#clipPath184)" id="g182"><text id="text188" style="font-variant:normal;font-weight:normal;font-size:9.33600044px;font-family:Arial;-inkscape-font-specification:Arial;writing-mode:lr-tb;fill:#595959;fill-opacity:1;fill-rule:nonzero;stroke:none" transform="matrix(1,0,0,-1,238.27,148.06)"><tspan id="tspan190" y="0" x="0 6.67524 11.81004 16.944839 21.659519 26.794319 34.449841 39.584641">Consumer</tspan></text>
</g>
    </g>
    <g id="g192">
      <g clip-path="url(#clipPath196)" id="g194"><text id="text200" style="font-variant:normal;font-weight:normal;font-size:9.31200027px;font-family:Arial;-inkscape-font-specification:Arial;writing-mode:lr-tb;fill:#595959;fill-opacity:1;fill-rule:nonzero;stroke:none" transform="matrix(1,0,0,-1,244.2,137.38)"><tspan id="tspan202" y="0" x="0 6.1179838 8.7532797 13.893504 19.033728 21.100992 26.278463">Staples</tspan></text>
</g>
    </g>
    <g id="g204">
      <g clip-path="url(#clipPath208)" id="g206"><text id="text212" style="font-variant:normal;font-weight:normal;font-size:9.33600044px;font-family:Arial;-inkscape-font-specification:Arial;writing-mode:lr-tb;fill:#595959;fill-opacity:1;fill-rule:nonzero;stroke:none" transform="matrix(1,0,0,-1,317.09,148.06)"><tspan id="tspan214" y="0" x="0 6.1430879 11.4366 16.599407 19.670952 24.833759">Energy</tspan></text>
</g>
    </g>
    <g id="g216">
      <g clip-path="url(#clipPath220)" id="g218"><text id="text224" style="font-variant:normal;font-weight:normal;font-size:9.33600044px;font-family:Arial;-inkscape-font-specification:Arial;writing-mode:lr-tb;fill:#595959;fill-opacity:1;fill-rule:nonzero;stroke:none" transform="matrix(1,0,0,-1,379.18,148.06)"><tspan id="tspan226" y="0" x="0 6.67524 11.838048 17.000856 19.073448 21.715536 26.878344 29.399063 36.074303 41.23711 44.439362">Health Care</tspan></text>
</g>
    </g>
    <g id="g228">
      <g clip-path="url(#clipPath232)" id="g230"><text id="text236" style="font-variant:normal;font-weight:normal;font-size:9.33600044px;font-family:Arial;-inkscape-font-specification:Arial;writing-mode:lr-tb;fill:#595959;fill-opacity:1;fill-rule:nonzero;stroke:none" transform="matrix(1,0,0,-1,454.92,148.06)"><tspan id="tspan238" y="0" x="0 2.6327519 7.7955599 12.958368 18.121176 22.73316 25.365911 28.437456 30.510048 35.700863 37.773457">Industrials</tspan></text>
</g>
    </g>
    <g id="g240">
      <g clip-path="url(#clipPath244)" id="g242"><text id="text248" style="font-variant:normal;font-weight:normal;font-size:9.33600044px;font-family:Arial;-inkscape-font-specification:Arial;writing-mode:lr-tb;fill:#595959;fill-opacity:1;fill-rule:nonzero;stroke:none" transform="matrix(1,0,0,-1,525,148.06)"><tspan id="tspan250" y="0" x="0 2.6327519 7.7675519 10.260264 15.395064 18.438601 26.215488 31.350288 33.98304 35.924927 41.199768">Information</tspan></text>
</g>
    </g>
    <g id="g252">
      <g clip-path="url(#clipPath256)" id="g254"><text id="text260" style="font-variant:normal;font-weight:normal;font-size:9.31200027px;font-family:Arial;-inkscape-font-specification:Arial;writing-mode:lr-tb;fill:#595959;fill-opacity:1;fill-rule:nonzero;stroke:none" transform="matrix(1,0,0,-1,524.23,137.38)"><tspan id="tspan262" y="0" x="0 5.6896319 10.820544 15.402048 20.542273 25.682495 30.82272 32.889984 38.067455 43.179745">Technology</tspan></text>
</g>
    </g>
    <g id="g264">
      <g clip-path="url(#clipPath268)" id="g266"><text id="text272" style="font-variant:normal;font-weight:normal;font-size:9.33600044px;font-family:Arial;-inkscape-font-specification:Arial;writing-mode:lr-tb;fill:#595959;fill-opacity:1;fill-rule:nonzero;stroke:none" transform="matrix(1,0,0,-1,601.51,148.06)"><tspan id="tspan274" y="0" x="0 7.7768879 12.967704 15.479088 20.641895 23.71344 25.786032 30.976849 33.049438">Materials</tspan></text>
</g>
    </g>
    <g id="g276">
      <g clip-path="url(#clipPath280)" id="g278"><text id="text284" style="font-variant:normal;font-weight:normal;font-size:9.33600044px;font-family:Arial;-inkscape-font-specification:Arial;writing-mode:lr-tb;fill:#595959;fill-opacity:1;fill-rule:nonzero;stroke:none" transform="matrix(1,0,0,-1,677.54,148.06)"><tspan id="tspan286" y="0" x="0 6.67524 9.307992 11.24988 13.322472 15.395064 17.990473 19.960367 25.095167">Utilities</tspan></text>
</g>
    </g>
    <g id="g288">
      <g clip-path="url(#clipPath292)" id="g290"><text id="text296" style="font-variant:normal;font-weight:normal;font-size:11.13599968px;font-family:Arial;-inkscape-font-specification:Arial;writing-mode:lr-tb;fill:#595959;fill-opacity:1;fill-rule:nonzero;stroke:none" transform="matrix(1,0,0,-1,245.18,464.74)"><tspan id="tspan298" y="0" x="0 7.3720322 13.496832 17.227392 20.412289 26.537088 30.267649 39.566208 45.69101 51.815807 57.383808 63.50861 66.693504 72.818306 76.003197 79.054466 86.426498 92.551292 96.281853 102.40665 104.87885 111.02592 117.15072 122.71872 126.04839 134.66765 140.79245 146.91725 149.38943 151.89503 154.9463 160.36954 163.6992 171.7394 177.88646 187.18503 193.30983 199.43463 205.00262 207.47482 210.57062 216.66202 219.99168 226.79578 232.93172 238.49971 241.55098 247.67578 251.40634 254.59123 260.71603 266.13925 269.46893 276.84097 282.96576 288.53375 291.58502 297.70984">Performance of Earnings Quality Composite Factor by Sector</tspan></text>
</g>
    </g>
    <path id="path300" style="fill:#137cb1;fill-opacity:1;fill-rule:evenodd;stroke:none" d="m 246.03,442.77 4.6618,0 0,4.6618 -4.6618,0 0,-4.6618 z"/>
    <g id="g302">
      <g clip-path="url(#clipPath306)" id="g304"><text id="text310" style="font-variant:normal;font-weight:normal;font-size:9.33600044px;font-family:Arial;-inkscape-font-specification:Arial;writing-mode:lr-tb;fill:#595959;fill-opacity:1;fill-rule:nonzero;stroke:none" transform="matrix(1,0,0,-1,252.62,442.18)"><tspan id="tspan312" y="0" x="0 6.1244159 11.399256 14.4708 19.633608 21.7062 26.897017 32.041153 36.62513 39.257881 46.52129 51.665424 56.828232 58.900826 60.861385 63.494137 68.07811 70.710861 77.386101 82.548912 90.20443 95.479271 100.64208 105.22606 107.29865 109.81004">Earnings Quality Composite</tspan></text>
</g>
    </g>
    <path id="path314" style="fill:#eacc7d;fill-opacity:1;fill-rule:evenodd;stroke:none" d="m 389.48,442.77 4.6618,0 0,4.6618 -4.6618,0 0,-4.6618 z"/>
    <g id="g316">
      <g clip-path="url(#clipPath320)" id="g318"><text id="text324" style="font-variant:normal;font-weight:normal;font-size:9.33600044px;font-family:Arial;-inkscape-font-specification:Arial;writing-mode:lr-tb;fill:#595959;fill-opacity:1;fill-rule:nonzero;stroke:none" transform="matrix(1,0,0,-1,396.1,442.18)"><tspan id="tspan326" y="0" x="0 6.1244159 11.399256 13.341144 18.503952 23.218632 25.711344 30.874151 36.036961 38.669712 44.794128 50.06897 53.140511 58.303322 60.375912 65.566727 70.710861 75.294838 77.927589 85.191002 90.335136 95.497948 97.570534 99.531097 102.16385 106.74783 109.38058 116.05582 121.21862 128.87415 134.14899 139.3118 143.89577 145.96835 148.47975">Adjusted Earnings Quality Composite</tspan></text>
</g>
    </g>
    <g id="g328">
      <g clip-path="url(#clipPath332)" id="g330">
        <path id="path336" style="fill:none;stroke:#d9d9d9;stroke-width:0.86957002;stroke-linecap:butt;stroke-linejoin:round;stroke-miterlimit:10;stroke-dasharray:none;stroke-opacity:1" d="m 50.897,127.93 690.3,0 0,355.97 -690.3,0 0,-355.97 z"/>
      </g>
    </g>
  </g>
</svg>
