<?xml version="1.0" encoding="UTF-8" standalone="no"?>
<svg xmlns:dc="http://purl.org/dc/elements/1.1/" xmlns:cc="http://creativecommons.org/ns#" xmlns:rdf="http://www.w3.org/1999/02/22-rdf-syntax-ns#" xmlns:svg="http://www.w3.org/2000/svg" xmlns="http://www.w3.org/2000/svg" viewBox="66.4325 405.7375 650.57125 349.7875" height="349.7875" width="650.57125" xml:space="preserve" version="1.1" id="svg2">
  <metadata id="metadata8">
    <rdf:RDF>
      <cc:Work rdf:about="">
        <dc:format>image/svg+xml</dc:format>
        <dc:type rdf:resource="http://purl.org/dc/dcmitype/StillImage"/>
      </cc:Work>
    </rdf:RDF>
  </metadata>
  <defs id="defs6">
    <clipPath id="clipPath16" clipPathUnits="userSpaceOnUse">
      <path style="clip-rule:evenodd" id="path18" d="m 53.052,281.81 520.55,0 0,279.92 -520.55,0 0,-279.92 z"/>
    </clipPath>
    <clipPath id="clipPath26" clipPathUnits="userSpaceOnUse">
      <path style="clip-rule:evenodd" id="path28" d="m 53.053,281.81 520.55,0 0,279.92 -520.55,0 0,-279.92 z"/>
    </clipPath>
    <clipPath id="clipPath36" clipPathUnits="userSpaceOnUse">
      <path style="clip-rule:evenodd" id="path38" d="m 53.158,281.91 520.43,0 0,279.78 -520.43,0 0,-279.78 z"/>
    </clipPath>
    <clipPath id="clipPath52" clipPathUnits="userSpaceOnUse">
      <path style="clip-rule:evenodd" id="path54" d="m 53.158,281.91 520.43,0 0,279.78 -520.43,0 0,-279.78 z"/>
    </clipPath>
    <clipPath id="clipPath62" clipPathUnits="userSpaceOnUse">
      <path style="clip-rule:evenodd" id="path64" d="m 53.179,281.81 520.42,0 0,279.79 -520.42,0 0,-279.79 z"/>
    </clipPath>
    <clipPath id="clipPath74" clipPathUnits="userSpaceOnUse">
      <path style="clip-rule:evenodd" id="path76" d="m 53.179,281.81 520.42,0 0,279.79 -520.42,0 0,-279.79 z"/>
    </clipPath>
    <clipPath id="clipPath86" clipPathUnits="userSpaceOnUse">
      <path style="clip-rule:evenodd" id="path88" d="m 53.179,281.81 520.42,0 0,279.79 -520.42,0 0,-279.79 z"/>
    </clipPath>
    <clipPath id="clipPath98" clipPathUnits="userSpaceOnUse">
      <path style="clip-rule:evenodd" id="path100" d="m 53.179,281.81 520.42,0 0,279.79 -520.42,0 0,-279.79 z"/>
    </clipPath>
    <clipPath id="clipPath110" clipPathUnits="userSpaceOnUse">
      <path style="clip-rule:evenodd" id="path112" d="m 53.179,281.81 520.42,0 0,279.79 -520.42,0 0,-279.79 z"/>
    </clipPath>
    <clipPath id="clipPath122" clipPathUnits="userSpaceOnUse">
      <path style="clip-rule:evenodd" id="path124" d="m 53.179,281.81 520.42,0 0,279.79 -520.42,0 0,-279.79 z"/>
    </clipPath>
    <clipPath id="clipPath134" clipPathUnits="userSpaceOnUse">
      <path style="clip-rule:evenodd" id="path136" d="m 53.179,281.81 520.42,0 0,279.79 -520.42,0 0,-279.79 z"/>
    </clipPath>
    <clipPath id="clipPath146" clipPathUnits="userSpaceOnUse">
      <path style="clip-rule:evenodd" id="path148" d="m 53.179,281.81 520.42,0 0,279.79 -520.42,0 0,-279.79 z"/>
    </clipPath>
    <clipPath id="clipPath158" clipPathUnits="userSpaceOnUse">
      <path style="clip-rule:evenodd" id="path160" d="m 53.179,281.81 520.42,0 0,279.79 -520.42,0 0,-279.79 z"/>
    </clipPath>
    <clipPath id="clipPath170" clipPathUnits="userSpaceOnUse">
      <path style="clip-rule:evenodd" id="path172" d="m 53.179,281.81 520.42,0 0,279.79 -520.42,0 0,-279.79 z"/>
    </clipPath>
    <clipPath id="clipPath182" clipPathUnits="userSpaceOnUse">
      <path style="clip-rule:evenodd" id="path184" d="m 53.179,281.81 520.42,0 0,279.79 -520.42,0 0,-279.79 z"/>
    </clipPath>
    <clipPath id="clipPath194" clipPathUnits="userSpaceOnUse">
      <path style="clip-rule:evenodd" id="path196" d="m 53.179,281.81 520.42,0 0,279.79 -520.42,0 0,-279.79 z"/>
    </clipPath>
    <clipPath id="clipPath206" clipPathUnits="userSpaceOnUse">
      <path style="clip-rule:evenodd" id="path208" d="m 53.179,281.81 520.42,0 0,279.79 -520.42,0 0,-279.79 z"/>
    </clipPath>
    <clipPath id="clipPath218" clipPathUnits="userSpaceOnUse">
      <path style="clip-rule:evenodd" id="path220" d="m 53.179,281.81 520.42,0 0,279.79 -520.42,0 0,-279.79 z"/>
    </clipPath>
    <clipPath id="clipPath230" clipPathUnits="userSpaceOnUse">
      <path style="clip-rule:evenodd" id="path232" d="m 53.179,281.81 520.42,0 0,279.79 -520.42,0 0,-279.79 z"/>
    </clipPath>
    <clipPath id="clipPath242" clipPathUnits="userSpaceOnUse">
      <path style="clip-rule:evenodd" id="path244" d="m 53.179,281.81 520.42,0 0,279.79 -520.42,0 0,-279.79 z"/>
    </clipPath>
    <clipPath id="clipPath254" clipPathUnits="userSpaceOnUse">
      <path style="clip-rule:evenodd" id="path256" d="m 53.179,281.81 520.42,0 0,279.79 -520.42,0 0,-279.79 z"/>
    </clipPath>
    <clipPath id="clipPath266" clipPathUnits="userSpaceOnUse">
      <path style="clip-rule:evenodd" id="path268" d="m 53.179,281.81 520.42,0 0,279.79 -520.42,0 0,-279.79 z"/>
    </clipPath>
    <clipPath id="clipPath278" clipPathUnits="userSpaceOnUse">
      <path style="clip-rule:evenodd" id="path280" d="m 53.179,281.81 520.42,0 0,279.79 -520.42,0 0,-279.79 z"/>
    </clipPath>
    <clipPath id="clipPath290" clipPathUnits="userSpaceOnUse">
      <path style="clip-rule:evenodd" id="path292" d="m 53.179,281.81 520.42,0 0,279.79 -520.42,0 0,-279.79 z"/>
    </clipPath>
    <clipPath id="clipPath302" clipPathUnits="userSpaceOnUse">
      <path style="clip-rule:evenodd" id="path304" d="m 53.179,281.81 520.42,0 0,279.79 -520.42,0 0,-279.79 z"/>
    </clipPath>
  </defs>
  <g transform="matrix(1.25,0,0,-1.25,0,1107.7875)" id="g10">
    <g id="g12">
      <g clip-path="url(#clipPath16)" id="g14">
        <path id="path20" style="fill:none;stroke:#000000;stroke-width:0.14;stroke-linecap:butt;stroke-linejoin:miter;stroke-miterlimit:10;stroke-dasharray:none;stroke-opacity:0" d="m 53.216,281.85 520.43,0 0,279.72 -520.43,0 0,-279.72 z"/>
      </g>
    </g>
    <g id="g22">
      <g clip-path="url(#clipPath26)" id="g24">
        <path id="path30" style="fill:#ffffff;fill-opacity:1;fill-rule:evenodd;stroke:none" d="m 53.216,281.85 520.43,0 0,279.72 -520.43,0 0,-279.72 z"/>
      </g>
    </g>
    <g id="g32">
      <g clip-path="url(#clipPath36)" id="g34">
        <path id="path40" style="fill:none;stroke:#c0c0c0;stroke-width:0.47367999;stroke-linecap:round;stroke-linejoin:round;stroke-miterlimit:10;stroke-dasharray:none;stroke-opacity:1" d="m 88.735,404.71 484.915,0 m -484.915,32.19 484.915,0 m -484.915,32.19 484.915,0 m -484.915,32.18 484.915,0 m -484.915,32.14 484.915,0"/>
      </g>
    </g>
    <path id="path42" style="fill:#eadfbc;fill-opacity:1;fill-rule:evenodd;stroke:none" d="m 181.68,372.48 16.164,0 0,116.3 -16.164,0 0,-116.3 z"/>
    <path id="path44" style="fill:#eadfbc;fill-opacity:1;fill-rule:evenodd;stroke:none" d="m 424.13,372.48 16.164,0 0,90.12 -16.164,0 0,-90.12 z"/>
    <path id="path46" style="fill:#005aa4;fill-opacity:1;fill-rule:nonzero;stroke:none" d="m 100.8,528.43 16.28,0 0,-155.95 -16.28,0 0,155.95 z m 40.45,-3.95 16.15,0 0,-152 -16.15,0 0,152 z m 80.88,-37.21 16.15,0 0,-114.79 -16.15,0 0,114.79 z m 40.32,-1.91 16.15,0 0,-112.88 -16.15,0 0,112.88 z m 40.44,-1.44 16.16,0 0,-111.44 -16.16,0 0,111.44 z m 40.45,-4.54 16.15,0 0,-106.9 -16.15,0 0,106.9 z m 40.44,-4.31 16.15,0 0,-102.59 -16.15,0 0,102.59 z m 80.76,-29.79 16.15,0 0,-72.8 -16.15,0 0,72.8 z m 40.44,-11.73 16.16,0 0,-61.07 -16.16,0 0,61.07 z m 40.33,-0.36 16.27,0 0,-60.71 -16.27,0 0,60.71 z"/>
    <g id="g48">
      <g clip-path="url(#clipPath52)" id="g50">
        <path id="path56" style="fill:none;stroke:#808080;stroke-width:1.18420005;stroke-linecap:round;stroke-linejoin:round;stroke-miterlimit:10;stroke-dasharray:none;stroke-opacity:1" d="m 88.735,372.48 484.915,0"/>
      </g>
    </g>
    <g id="g58">
      <g clip-path="url(#clipPath62)" id="g60"><text id="text66" style="font-variant:normal;font-weight:normal;font-size:9.45259953px;font-family:'Roboto Condensed';-inkscape-font-specification:RobotoCondensed-Regular;writing-mode:lr-tb;fill:#000000;fill-opacity:1;fill-rule:nonzero;stroke:none" transform="matrix(1,0,0,-1,68.211,369.6)"><tspan id="tspan68" y="0" x="0 4.6695843 7.1934285">0.0</tspan></text>
</g>
    </g>
    <g id="g70">
      <g clip-path="url(#clipPath74)" id="g72"><text id="text78" style="font-variant:normal;font-weight:normal;font-size:9.45259953px;font-family:'Roboto Condensed';-inkscape-font-specification:RobotoCondensed-Regular;writing-mode:lr-tb;fill:#000000;fill-opacity:1;fill-rule:nonzero;stroke:none" transform="matrix(1,0,0,-1,68.211,401.79)"><tspan id="tspan80" y="0" x="0 4.6695843 7.1934285">5.0</tspan></text>
</g>
    </g>
    <g id="g82">
      <g clip-path="url(#clipPath86)" id="g84"><text id="text90" style="font-variant:normal;font-weight:normal;font-size:9.45259953px;font-family:'Roboto Condensed';-inkscape-font-specification:RobotoCondensed-Regular;writing-mode:lr-tb;fill:#000000;fill-opacity:1;fill-rule:nonzero;stroke:none" transform="matrix(1,0,0,-1,63.537,433.98)"><tspan id="tspan92" y="0" x="0 4.6695843 9.3391685 11.825203">10.0</tspan></text>
</g>
    </g>
    <g id="g94">
      <g clip-path="url(#clipPath98)" id="g96"><text id="text102" style="font-variant:normal;font-weight:normal;font-size:9.45259953px;font-family:'Roboto Condensed';-inkscape-font-specification:RobotoCondensed-Regular;writing-mode:lr-tb;fill:#000000;fill-opacity:1;fill-rule:nonzero;stroke:none" transform="matrix(1,0,0,-1,63.537,466.17)"><tspan id="tspan104" y="0" x="0 4.6695843 9.3391685 11.825203">15.0</tspan></text>
</g>
    </g>
    <g id="g106">
      <g clip-path="url(#clipPath110)" id="g108"><text id="text114" style="font-variant:normal;font-weight:normal;font-size:9.45259953px;font-family:'Roboto Condensed';-inkscape-font-specification:RobotoCondensed-Regular;writing-mode:lr-tb;fill:#000000;fill-opacity:1;fill-rule:nonzero;stroke:none" transform="matrix(1,0,0,-1,63.537,498.36)"><tspan id="tspan116" y="0" x="0 4.6695843 9.3391685 11.825203">20.0</tspan></text>
</g>
    </g>
    <g id="g118">
      <g clip-path="url(#clipPath122)" id="g120"><text id="text126" style="font-variant:normal;font-weight:normal;font-size:9.45259953px;font-family:'Roboto Condensed';-inkscape-font-specification:RobotoCondensed-Regular;writing-mode:lr-tb;fill:#000000;fill-opacity:1;fill-rule:nonzero;stroke:none" transform="matrix(1,0,0,-1,63.537,530.55)"><tspan id="tspan128" y="0" x="0 4.6695843 9.3391685 11.825203">25.0</tspan></text>
</g>
    </g>
    <g id="g130">
      <g clip-path="url(#clipPath134)" id="g132"><text id="text138" style="font-variant:normal;font-weight:normal;font-size:9.45259953px;font-family:'Roboto Condensed';-inkscape-font-specification:RobotoCondensed-Regular;writing-mode:lr-tb;fill:#000000;fill-opacity:1;fill-rule:nonzero;stroke:none" transform="matrix(-4.4e-8,1,1,4.4e-8,112.25,336.15)"><tspan id="tspan140" y="0" x="0 7.165071 11.588887 13.753533 16.494787 21.136013 25.663809">Meituan</tspan></text>
</g>
    </g>
    <g id="g142">
      <g clip-path="url(#clipPath146)" id="g144"><text id="text150" style="font-variant:normal;font-weight:normal;font-size:9.47369957px;font-family:'Roboto Condensed';-inkscape-font-specification:RobotoCondensed-Regular;writing-mode:lr-tb;fill:#000000;fill-opacity:1;fill-rule:nonzero;stroke:none" transform="matrix(-4.4e-8,1,1,4.4e-8,152.65,352)"><tspan id="tspan152" y="0" x="0 5.1631665 7.5315914 12.097915">BILI</tspan></text>
</g>
    </g>
    <g id="g154">
      <g clip-path="url(#clipPath158)" id="g156"><text id="text162" style="font-variant:normal;font-weight:normal;font-size:9.45259953px;font-family:'Roboto Condensed';-inkscape-font-specification:RobotoCondensed-Regular;writing-mode:lr-tb;fill:#000000;fill-opacity:1;fill-rule:nonzero;stroke:none" transform="matrix(-4.4e-8,1,1,4.4e-8,193.07,345.26)"><tspan id="tspan164" y="0" x="0 5.1516671 9.6794624 11.844108 16.598766">Baidu</tspan></text>
</g>
    </g>
    <g id="g166">
      <g clip-path="url(#clipPath170)" id="g168"><text id="text174" style="font-variant:normal;font-weight:normal;font-size:9.45259953px;font-family:'Roboto Condensed';-inkscape-font-specification:RobotoCondensed-Regular;writing-mode:lr-tb;fill:#000000;fill-opacity:1;fill-rule:nonzero;stroke:none" transform="matrix(-4.4e-8,1,1,4.4e-8,233.49,336.25)"><tspan id="tspan176" y="0" x="0 4.9248047 9.3486214 14.008753 18.328592 22.752409 27.431446">Tencent</tspan></text>
</g>
    </g>
    <g id="g178">
      <g clip-path="url(#clipPath182)" id="g180"><text id="text186" style="font-variant:normal;font-weight:normal;font-size:9.45259953px;font-family:'Roboto Condensed';-inkscape-font-specification:RobotoCondensed-Regular;writing-mode:lr-tb;fill:#000000;fill-opacity:1;fill-rule:nonzero;stroke:none" transform="matrix(-4.4e-8,1,1,4.4e-8,273.92,349.62)"><tspan id="tspan188" y="0" x="0 4.9248047 12.061518">TME</tspan></text>
</g>
    </g>
    <g id="g190">
      <g clip-path="url(#clipPath194)" id="g192"><text id="text198" style="font-variant:normal;font-weight:normal;font-size:9.45259953px;font-family:'Roboto Condensed';-inkscape-font-specification:RobotoCondensed-Regular;writing-mode:lr-tb;fill:#000000;fill-opacity:1;fill-rule:nonzero;stroke:none" transform="matrix(-4.4e-8,1,1,4.4e-8,314.34,338.19)"><tspan id="tspan200" y="0" x="0 5.5108657 7.6755114 9.8401566 14.500288 19.056442 23.716574">Alibaba</tspan></text>
</g>
    </g>
    <g id="g202">
      <g clip-path="url(#clipPath206)" id="g204"><text id="text210" style="font-variant:normal;font-weight:normal;font-size:9.45259953px;font-family:'Roboto Condensed';-inkscape-font-specification:RobotoCondensed-Regular;writing-mode:lr-tb;fill:#000000;fill-opacity:1;fill-rule:nonzero;stroke:none" transform="matrix(-4.4e-8,1,1,4.4e-8,354.76,333.01)"><tspan id="tspan212" y="0" x="0 4.9248047 7.7700372 9.9346828 14.594814 17.080849 21.504665 26.278229">Trip.com</tspan></text>
</g>
    </g>
    <g id="g214">
      <g clip-path="url(#clipPath218)" id="g216"><text id="text222" style="font-variant:normal;font-weight:normal;font-size:9.45259953px;font-family:'Roboto Condensed';-inkscape-font-specification:RobotoCondensed-Regular;writing-mode:lr-tb;fill:#000000;fill-opacity:1;fill-rule:nonzero;stroke:none" transform="matrix(-4.4e-8,1,1,4.4e-8,395.18,346)"><tspan id="tspan224" y="0" x="0 5.8511596 10.775964 15.568432">NTES</tspan></text>
</g>
    </g>
    <g id="g226">
      <g clip-path="url(#clipPath230)" id="g228"><text id="text234" style="font-variant:normal;font-weight:normal;font-size:9.45259953px;font-family:'Roboto Condensed';-inkscape-font-specification:RobotoCondensed-Regular;writing-mode:lr-tb;fill:#000000;fill-opacity:1;fill-rule:nonzero;stroke:none" transform="matrix(-4.4e-8,1,1,4.4e-8,435.6,301.56)"><tspan id="tspan236" y="0" x="0 5.1516671 9.6794624 11.844108 16.598766 21.164371 23.291206 26.259323 30.68314 34.880093 37.044739 41.213337 45.873466 50.448524 52.56591 57.131516 61.782192">Baidu (ex kunlun)</tspan></text>
</g>
    </g>
    <g id="g238">
      <g clip-path="url(#clipPath242)" id="g240"><text id="text246" style="font-variant:normal;font-weight:normal;font-size:9.47369957px;font-family:'Roboto Condensed';-inkscape-font-specification:RobotoCondensed-Regular;writing-mode:lr-tb;fill:#000000;fill-opacity:1;fill-rule:nonzero;stroke:none" transform="matrix(-4.4e-8,1,1,4.4e-8,476,356.34)"><tspan id="tspan248" y="0" x="0 5.1579065">KS</tspan></text>
</g>
    </g>
    <g id="g250">
      <g clip-path="url(#clipPath254)" id="g252"><text id="text258" style="font-variant:normal;font-weight:normal;font-size:9.45259953px;font-family:'Roboto Condensed';-inkscape-font-specification:RobotoCondensed-Regular;writing-mode:lr-tb;fill:#000000;fill-opacity:1;fill-rule:nonzero;stroke:none" transform="matrix(-4.4e-8,1,1,4.4e-8,516.42,350.34)"><tspan id="tspan260" y="0" x="0 5.2745509 10.671986">PDD</tspan></text>
</g>
    </g>
    <g id="g262">
      <g clip-path="url(#clipPath266)" id="g264"><text id="text270" style="font-variant:normal;font-weight:normal;font-size:9.45259953px;font-family:'Roboto Condensed';-inkscape-font-specification:RobotoCondensed-Regular;writing-mode:lr-tb;fill:#000000;fill-opacity:1;fill-rule:nonzero;stroke:none" transform="matrix(-4.4e-8,1,1,4.4e-8,556.84,356.42)"><tspan id="tspan272" y="0" x="0 4.5473056">JD</tspan></text>
</g>
    </g>
    <g id="g274">
      <g clip-path="url(#clipPath278)" id="g276"><text id="text282" style="font-variant:normal;font-weight:bold;font-size:11.36800003px;font-family:'Roboto Condensed';-inkscape-font-specification:RobotoCondensed-Bold;writing-mode:lr-tb;fill:#000000;fill-opacity:1;fill-rule:nonzero;stroke:none" transform="matrix(1,0,0,-1,233.79,543.64)"><tspan id="tspan284" y="0" x="0 6.4797602 12.072816 14.937552 20.57608 25.953144 28.476839 31.341576 36.968735 40.458714 45.835777 49.655422 55.248482 60.693752 64.138252 66.752899 72.505104 78.257309 84.009521 89.761726 95.150162 97.901215 103.49427 109.15553">China internet 2026e non</tspan></text>
</g>
    </g>
    <g id="g286">
      <g clip-path="url(#clipPath290)" id="g288"><text id="text294" style="font-variant:normal;font-weight:bold;font-size:11.36800003px;font-family:'Roboto Condensed';-inkscape-font-specification:RobotoCondensed-Bold;writing-mode:lr-tb;fill:#000000;fill-opacity:1;fill-rule:nonzero;stroke:none" transform="matrix(1,0,0,-1,348.57,543.64)"><tspan id="tspan296" y="0" x="0">-</tspan></text>
</g>
    </g>
    <g id="g298">
      <g clip-path="url(#clipPath302)" id="g300"><text id="text306" style="font-variant:normal;font-weight:bold;font-size:11.36800003px;font-family:'Roboto Condensed';-inkscape-font-specification:RobotoCondensed-Bold;writing-mode:lr-tb;fill:#000000;fill-opacity:1;fill-rule:nonzero;stroke:none" transform="matrix(1,0,0,-1,352.76,543.64)"><tspan id="tspan308" y="0" x="0 5.7181039 11.129272 16.506336 22.133495 24.543512 31.011904 34.72924">gaap P/E</tspan></text>
</g>
    </g>
  </g>
</svg>
