<?xml version="1.0" encoding="UTF-8" standalone="no"?>
<svg xmlns:dc="http://purl.org/dc/elements/1.1/" xmlns:cc="http://creativecommons.org/ns#" xmlns:rdf="http://www.w3.org/1999/02/22-rdf-syntax-ns#" xmlns:svg="http://www.w3.org/2000/svg" xmlns="http://www.w3.org/2000/svg" viewBox="63 300.225 639 389.4625" height="389.4625" width="639" xml:space="preserve" version="1.1" id="svg2">
  <metadata id="metadata8">
    <rdf:RDF>
      <cc:Work rdf:about="">
        <dc:format>image/svg+xml</dc:format>
        <dc:type rdf:resource="http://purl.org/dc/dcmitype/StillImage"/>
      </cc:Work>
    </rdf:RDF>
  </metadata>
  <defs id="defs6">
    <clipPath id="clipPath16" clipPathUnits="userSpaceOnUse">
      <path style="clip-rule:evenodd" id="path18" d="m 50.4,240.24 511.2,0 0,311.64 -511.2,0 0,-311.64 z"/>
    </clipPath>
    <clipPath id="clipPath34" clipPathUnits="userSpaceOnUse">
      <path style="clip-rule:evenodd" id="path36" d="m 50.4,240.24 511.08,0 0,311.52 -511.08,0 0,-311.52 z"/>
    </clipPath>
    <clipPath id="clipPath46" clipPathUnits="userSpaceOnUse">
      <path style="clip-rule:evenodd" id="path48" d="m 50.4,240.24 511.08,0 0,311.52 -511.08,0 0,-311.52 z"/>
    </clipPath>
    <clipPath id="clipPath58" clipPathUnits="userSpaceOnUse">
      <path style="clip-rule:evenodd" id="path60" d="m 50.4,240.24 511.08,0 0,311.52 -511.08,0 0,-311.52 z"/>
    </clipPath>
    <clipPath id="clipPath70" clipPathUnits="userSpaceOnUse">
      <path style="clip-rule:evenodd" id="path72" d="m 50.4,240.24 511.08,0 0,311.52 -511.08,0 0,-311.52 z"/>
    </clipPath>
    <clipPath id="clipPath82" clipPathUnits="userSpaceOnUse">
      <path style="clip-rule:evenodd" id="path84" d="m 50.4,240.24 511.08,0 0,311.52 -511.08,0 0,-311.52 z"/>
    </clipPath>
    <clipPath id="clipPath94" clipPathUnits="userSpaceOnUse">
      <path style="clip-rule:evenodd" id="path96" d="m 50.4,240.24 511.08,0 0,311.52 -511.08,0 0,-311.52 z"/>
    </clipPath>
    <clipPath id="clipPath106" clipPathUnits="userSpaceOnUse">
      <path style="clip-rule:evenodd" id="path108" d="m 50.4,240.24 511.08,0 0,311.52 -511.08,0 0,-311.52 z"/>
    </clipPath>
    <clipPath id="clipPath118" clipPathUnits="userSpaceOnUse">
      <path style="clip-rule:evenodd" id="path120" d="m 50.4,240.24 511.08,0 0,311.52 -511.08,0 0,-311.52 z"/>
    </clipPath>
    <clipPath id="clipPath130" clipPathUnits="userSpaceOnUse">
      <path style="clip-rule:evenodd" id="path132" d="m 50.4,240.24 511.08,0 0,311.52 -511.08,0 0,-311.52 z"/>
    </clipPath>
    <clipPath id="clipPath142" clipPathUnits="userSpaceOnUse">
      <path style="clip-rule:evenodd" id="path144" d="m 50.4,240.24 511.08,0 0,311.52 -511.08,0 0,-311.52 z"/>
    </clipPath>
    <clipPath id="clipPath154" clipPathUnits="userSpaceOnUse">
      <path style="clip-rule:evenodd" id="path156" d="m 50.4,240.24 511.08,0 0,311.52 -511.08,0 0,-311.52 z"/>
    </clipPath>
    <clipPath id="clipPath166" clipPathUnits="userSpaceOnUse">
      <path style="clip-rule:evenodd" id="path168" d="m 50.4,240.24 511.08,0 0,311.52 -511.08,0 0,-311.52 z"/>
    </clipPath>
    <clipPath id="clipPath178" clipPathUnits="userSpaceOnUse">
      <path style="clip-rule:evenodd" id="path180" d="m 50.4,240.24 511.08,0 0,311.52 -511.08,0 0,-311.52 z"/>
    </clipPath>
    <clipPath id="clipPath190" clipPathUnits="userSpaceOnUse">
      <path style="clip-rule:evenodd" id="path192" d="m 50.4,240.24 511.08,0 0,311.52 -511.08,0 0,-311.52 z"/>
    </clipPath>
    <clipPath id="clipPath202" clipPathUnits="userSpaceOnUse">
      <path style="clip-rule:evenodd" id="path204" d="m 50.4,240.24 511.08,0 0,311.52 -511.08,0 0,-311.52 z"/>
    </clipPath>
    <clipPath id="clipPath214" clipPathUnits="userSpaceOnUse">
      <path style="clip-rule:evenodd" id="path216" d="m 50.4,240.24 511.08,0 0,311.52 -511.08,0 0,-311.52 z"/>
    </clipPath>
    <clipPath id="clipPath226" clipPathUnits="userSpaceOnUse">
      <path style="clip-rule:evenodd" id="path228" d="m 50.4,240.24 511.08,0 0,311.52 -511.08,0 0,-311.52 z"/>
    </clipPath>
    <clipPath id="clipPath238" clipPathUnits="userSpaceOnUse">
      <path style="clip-rule:evenodd" id="path240" d="m 50.4,240.24 511.08,0 0,311.52 -511.08,0 0,-311.52 z"/>
    </clipPath>
    <clipPath id="clipPath250" clipPathUnits="userSpaceOnUse">
      <path style="clip-rule:evenodd" id="path252" d="m 50.4,240.24 511.08,0 0,311.52 -511.08,0 0,-311.52 z"/>
    </clipPath>
    <clipPath id="clipPath262" clipPathUnits="userSpaceOnUse">
      <path style="clip-rule:evenodd" id="path264" d="m 50.4,240.24 511.08,0 0,311.52 -511.08,0 0,-311.52 z"/>
    </clipPath>
    <clipPath id="clipPath276" clipPathUnits="userSpaceOnUse">
      <path style="clip-rule:evenodd" id="path278" d="m 50.4,240.24 511.08,0 0,311.52 -511.08,0 0,-311.52 z"/>
    </clipPath>
    <clipPath id="clipPath290" clipPathUnits="userSpaceOnUse">
      <path style="clip-rule:evenodd" id="path292" d="m 50.4,240.24 511.08,0 0,311.52 -511.08,0 0,-311.52 z"/>
    </clipPath>
    <clipPath id="clipPath302" clipPathUnits="userSpaceOnUse">
      <path style="clip-rule:evenodd" id="path304" d="m 50.4,240.24 511.2,0 0,311.52 -511.2,0 0,-311.52 z"/>
    </clipPath>
  </defs>
  <g transform="matrix(1.25,0,0,-1.25,0,990)" id="g10">
    <g id="g12">
      <g clip-path="url(#clipPath16)" id="g14">
        <path id="path20" style="fill:none;stroke:#000000;stroke-width:0.14;stroke-linecap:butt;stroke-linejoin:miter;stroke-miterlimit:10;stroke-dasharray:none;stroke-opacity:0" d="m 50.436,240.32 511.08,0 0,311.43 -511.08,0 0,-311.43 z"/>
      </g>
    </g>
    <path id="path22" style="fill:#ffffff;fill-opacity:1;fill-rule:evenodd;stroke:none" d="m 50.436,240.32 511.08,0 0,311.43 -511.08,0 0,-311.43 z"/>
    <path id="path24" style="fill:none;stroke:#d9d9d9;stroke-width:0.74044001;stroke-linecap:butt;stroke-linejoin:round;stroke-miterlimit:10;stroke-dasharray:none;stroke-opacity:1" d="m 103.59,345.26 407.54,0"/>
    <path id="path26" style="fill:none;stroke:#4aac6b;stroke-width:2.22129989;stroke-linecap:round;stroke-linejoin:round;stroke-miterlimit:10;stroke-dasharray:none;stroke-opacity:1" d="m 106.63,352.75 18.29,-0.94 18.24,-13.98 18.25,-14.34 18.24,-16.35 18.25,-6.04 18.24,10.07 18.25,23.34 18.24,77.36 18.25,75.59 18.24,6.5 18.24,-28.54 18.25,-87.19 18.24,-39.22 18.25,-25.82 18.24,-18.01 18.25,-2.27 18.24,0.25 18.25,7.11 18.24,15.64 18.24,16.94 18.25,19.31 18.28,10.07"/>
    <path id="path28" style="fill:none;stroke:#a8d7e2;stroke-width:2.22129989;stroke-linecap:round;stroke-linejoin:round;stroke-miterlimit:10;stroke-dasharray:none;stroke-opacity:1" d="m 106.63,297.9 18.29,-7.46 18.24,-0.79 18.25,6.24 18.24,13.27 18.25,18.95 18.24,26.18 18.25,34.72 18.24,32.22 18.25,52.72 18.24,10.95 18.24,-5.97 18.25,-32.82 18.24,-39.81 18.25,-1.3 18.24,-4.26 18.25,-0.12 18.24,-29.03 18.25,-27.37 18.24,-14.8 18.24,5.92 18.25,32.82 18.28,9.59"/>
    <g id="g30">
      <g clip-path="url(#clipPath34)" id="g32"><text id="text38" style="font-variant:normal;font-weight:normal;font-size:11.85599995px;font-family:Arial;-inkscape-font-specification:Arial;writing-mode:lr-tb;fill:#000000;fill-opacity:1;fill-rule:nonzero;stroke:none" transform="matrix(1,0,0,-1,521.42,264)"><tspan id="tspan40" y="0" x="0 3.9124801 10.504416 17.143776">-30%</tspan></text>
</g>
    </g>
    <g id="g42">
      <g clip-path="url(#clipPath46)" id="g44"><text id="text50" style="font-variant:normal;font-weight:normal;font-size:11.83199978px;font-family:Arial;-inkscape-font-specification:Arial;writing-mode:lr-tb;fill:#000000;fill-opacity:1;fill-rule:nonzero;stroke:none" transform="matrix(1,0,0,-1,521.42,310.42)"><tspan id="tspan52" y="0" x="0 3.9400561 10.518648 17.144567">-15%</tspan></text>
</g>
    </g>
    <g id="g54">
      <g clip-path="url(#clipPath58)" id="g56"><text id="text62" style="font-variant:normal;font-weight:normal;font-size:11.85599995px;font-family:Arial;-inkscape-font-specification:Arial;writing-mode:lr-tb;fill:#000000;fill-opacity:1;fill-rule:nonzero;stroke:none" transform="matrix(1,0,0,-1,521.42,356.86)"><tspan id="tspan64" y="0" x="0 6.6240358">0%</tspan></text>
</g>
    </g>
    <g id="g66">
      <g clip-path="url(#clipPath70)" id="g68"><text id="text74" style="font-variant:normal;font-weight:normal;font-size:11.83199978px;font-family:Arial;-inkscape-font-specification:Arial;writing-mode:lr-tb;fill:#000000;fill-opacity:1;fill-rule:nonzero;stroke:none" transform="matrix(1,0,0,-1,521.42,403.27)"><tspan id="tspan76" y="0" x="0 6.6140881 13.121688">15%</tspan></text>
</g>
    </g>
    <g id="g78">
      <g clip-path="url(#clipPath82)" id="g80"><text id="text86" style="font-variant:normal;font-weight:normal;font-size:11.85599995px;font-family:Arial;-inkscape-font-specification:Arial;writing-mode:lr-tb;fill:#000000;fill-opacity:1;fill-rule:nonzero;stroke:none" transform="matrix(1,0,0,-1,521.42,449.71)"><tspan id="tspan88" y="0" x="0 6.5919361 13.124592">30%</tspan></text>
</g>
    </g>
    <g id="g90">
      <g clip-path="url(#clipPath94)" id="g92"><text id="text98" style="font-variant:normal;font-weight:normal;font-size:11.85599995px;font-family:Arial;-inkscape-font-specification:Arial;writing-mode:lr-tb;fill:#000000;fill-opacity:1;fill-rule:nonzero;stroke:none" transform="matrix(1,0,0,-1,521.42,496.13)"><tspan id="tspan100" y="0" x="0 6.5919361 13.124592">45%</tspan></text>
</g>
    </g>
    <g id="g102">
      <g clip-path="url(#clipPath106)" id="g104"><text id="text110" style="font-variant:normal;font-weight:normal;font-size:11.85599995px;font-family:Arial;-inkscape-font-specification:Arial;writing-mode:lr-tb;fill:#000000;fill-opacity:1;fill-rule:nonzero;stroke:none" transform="matrix(1,0,0,-1,59.16,264)"><tspan id="tspan112" y="0" x="0 3.9124801 10.504416 17.143776 23.676432">-100%</tspan></text>
</g>
    </g>
    <g id="g114">
      <g clip-path="url(#clipPath118)" id="g116"><text id="text122" style="font-variant:normal;font-weight:normal;font-size:11.85599995px;font-family:Arial;-inkscape-font-specification:Arial;writing-mode:lr-tb;fill:#000000;fill-opacity:1;fill-rule:nonzero;stroke:none" transform="matrix(1,0,0,-1,65.76,302.69)"><tspan id="tspan124" y="0" x="0 3.9124801 10.504416 17.143776">-50%</tspan></text>
</g>
    </g>
    <g id="g126">
      <g clip-path="url(#clipPath130)" id="g128"><text id="text134" style="font-variant:normal;font-weight:normal;font-size:11.85599995px;font-family:Arial;-inkscape-font-specification:Arial;writing-mode:lr-tb;fill:#000000;fill-opacity:1;fill-rule:nonzero;stroke:none" transform="matrix(1,0,0,-1,76.296,341.38)"><tspan id="tspan136" y="0" x="0 6.6240358">0%</tspan></text>
</g>
    </g>
    <g id="g138">
      <g clip-path="url(#clipPath142)" id="g140"><text id="text146" style="font-variant:normal;font-weight:normal;font-size:11.85599995px;font-family:Arial;-inkscape-font-specification:Arial;writing-mode:lr-tb;fill:#000000;fill-opacity:1;fill-rule:nonzero;stroke:none" transform="matrix(1,0,0,-1,69.696,380.06)"><tspan id="tspan148" y="0" x="0 6.5919361 13.183872">50%</tspan></text>
</g>
    </g>
    <g id="g150">
      <g clip-path="url(#clipPath154)" id="g152"><text id="text158" style="font-variant:normal;font-weight:normal;font-size:11.85599995px;font-family:Arial;-inkscape-font-specification:Arial;writing-mode:lr-tb;fill:#000000;fill-opacity:1;fill-rule:nonzero;stroke:none" transform="matrix(1,0,0,-1,63.096,418.75)"><tspan id="tspan160" y="0" x="0 6.63936 13.172016 19.811377">100%</tspan></text>
</g>
    </g>
    <g id="g162">
      <g clip-path="url(#clipPath166)" id="g164"><text id="text170" style="font-variant:normal;font-weight:normal;font-size:11.85599995px;font-family:Arial;-inkscape-font-specification:Arial;writing-mode:lr-tb;fill:#000000;fill-opacity:1;fill-rule:nonzero;stroke:none" transform="matrix(1,0,0,-1,63.096,457.44)"><tspan id="tspan172" y="0" x="0 6.63936 13.172016 19.811377">150%</tspan></text>
</g>
    </g>
    <g id="g174">
      <g clip-path="url(#clipPath178)" id="g176"><text id="text182" style="font-variant:normal;font-weight:normal;font-size:11.85599995px;font-family:Arial;-inkscape-font-specification:Arial;writing-mode:lr-tb;fill:#000000;fill-opacity:1;fill-rule:nonzero;stroke:none" transform="matrix(1,0,0,-1,63.096,496.13)"><tspan id="tspan184" y="0" x="0 6.63936 13.172016 19.811377">200%</tspan></text>
</g>
    </g>
    <g id="g186">
      <g clip-path="url(#clipPath190)" id="g188"><text id="text194" style="font-variant:normal;font-weight:normal;font-size:11.85599995px;font-family:Arial;-inkscape-font-specification:Arial;writing-mode:lr-tb;fill:#000000;fill-opacity:1;fill-rule:nonzero;stroke:none" transform="matrix(1,0,0,-1,87.888,249.89)"><tspan id="tspan196" y="0" x="0 9.8404799 16.432417 20.380465 24.399649 30.908592">Mar-20</tspan></text>
</g>
    </g>
    <g id="g198">
      <g clip-path="url(#clipPath202)" id="g200"><text id="text206" style="font-variant:normal;font-weight:normal;font-size:11.85599995px;font-family:Arial;-inkscape-font-specification:Arial;writing-mode:lr-tb;fill:#000000;fill-opacity:1;fill-rule:nonzero;stroke:none" transform="matrix(1,0,0,-1,154.8,249.89)"><tspan id="tspan208" y="0" x="0 7.2440162 13.859664 20.392321 24.411505 30.94416">Feb-21</tspan></text>
</g>
    </g>
    <g id="g210">
      <g clip-path="url(#clipPath214)" id="g212"><text id="text218" style="font-variant:normal;font-weight:normal;font-size:11.85599995px;font-family:Arial;-inkscape-font-specification:Arial;writing-mode:lr-tb;fill:#000000;fill-opacity:1;fill-rule:nonzero;stroke:none" transform="matrix(1,0,0,-1,222.38,249.89)"><tspan id="tspan220" y="0" x="0 5.928 12.519936 19.052591 23.071775 29.580721">Jan-22</tspan></text>
</g>
    </g>
    <g id="g222">
      <g clip-path="url(#clipPath226)" id="g224"><text id="text230" style="font-variant:normal;font-weight:normal;font-size:11.85599995px;font-family:Arial;-inkscape-font-specification:Arial;writing-mode:lr-tb;fill:#000000;fill-opacity:1;fill-rule:nonzero;stroke:none" transform="matrix(1,0,0,-1,288.31,249.89)"><tspan id="tspan232" y="0" x="0 8.5600319 15.17568 21.10368 25.016159 31.655519">Dec-22</tspan></text>
</g>
    </g>
    <g id="g234">
      <g clip-path="url(#clipPath238)" id="g236"><text id="text242" style="font-variant:normal;font-weight:normal;font-size:11.85599995px;font-family:Arial;-inkscape-font-specification:Arial;writing-mode:lr-tb;fill:#000000;fill-opacity:1;fill-rule:nonzero;stroke:none" transform="matrix(1,0,0,-1,355.25,249.89)"><tspan id="tspan244" y="0" x="0 8.5244637 15.1164 21.044399 24.992449 31.584385">Nov-23</tspan></text>
</g>
    </g>
    <g id="g246">
      <g clip-path="url(#clipPath250)" id="g248"><text id="text254" style="font-variant:normal;font-weight:normal;font-size:11.85599995px;font-family:Arial;-inkscape-font-specification:Arial;writing-mode:lr-tb;fill:#000000;fill-opacity:1;fill-rule:nonzero;stroke:none" transform="matrix(1,0,0,-1,423.48,249.89)"><tspan id="tspan256" y="0" x="0 9.2239676 15.151968 18.447935 22.395985 28.987921">Oct-24</tspan></text>
</g>
    </g>
    <g id="g258">
      <g clip-path="url(#clipPath262)" id="g260"><text id="text266" style="font-variant:normal;font-weight:normal;font-size:11.85599995px;font-family:Arial;-inkscape-font-specification:Arial;writing-mode:lr-tb;fill:#000000;fill-opacity:1;fill-rule:nonzero;stroke:none" transform="matrix(1,0,0,-1,489.07,249.89)"><tspan id="tspan268" y="0" x="0 7.931664 14.46432 21.10368 25.016159 31.655519">Sep-25</tspan></text>
</g>
    </g>
    <path id="path270" style="fill:none;stroke:#4aac6b;stroke-width:2.22129989;stroke-linecap:round;stroke-linejoin:round;stroke-miterlimit:10;stroke-dasharray:none;stroke-opacity:1" d="m 125.93,511.5 18.96,0"/>
    <g id="g272">
      <g clip-path="url(#clipPath276)" id="g274"><text id="text280" style="font-variant:normal;font-weight:normal;font-size:11.85599995px;font-family:Arial;-inkscape-font-specification:Arial;writing-mode:lr-tb;fill:#000000;fill-opacity:1;fill-rule:nonzero;stroke:none" transform="matrix(1,0,0,-1,146.93,507.65)"><tspan id="tspan282" y="0" x="0 8.5244637 15.1164 23.676432 26.972401 30.268368 36.801025 42.729023 49.320961 55.248959 58.54493 68.361694 74.953629 81.48629 84.782257 90.710258 94.006226 101.25024 109.76285">New Investments FDI</tspan></text>
</g>
    </g>
    <path id="path284" style="fill:none;stroke:#a8d7e2;stroke-width:2.22129989;stroke-linecap:round;stroke-linejoin:round;stroke-miterlimit:10;stroke-dasharray:none;stroke-opacity:1" d="m 291.59,511.5 18.95,0"/>
    <g id="g286">
      <g clip-path="url(#clipPath290)" id="g288"><text id="text294" style="font-variant:normal;font-weight:normal;font-size:11.85599995px;font-family:Arial;-inkscape-font-specification:Arial;writing-mode:lr-tb;fill:#000000;fill-opacity:1;fill-rule:nonzero;stroke:none" transform="matrix(1,0,0,-1,312.6,507.65)"><tspan id="tspan296" y="0" x="0 8.5244637 15.1164 21.649055 27.577057 30.873024 34.904064 41.41301 47.341007 50.636974 53.269009 59.860943 66.3936 69.689568 77.633087 83.561089 86.857056 89.48909 95.417091 98.049118 101.34509 107.27309 110.56905 119.12909 125.72102 132.22997 135.52594 142.15344 146.06592 149.36189 157.92192 164.51385 168.4619 171.75787">Construction Activity Center North</tspan></text>
</g>
    </g>
    <g id="g298">
      <g clip-path="url(#clipPath302)" id="g300"><text id="text306" style="font-variant:normal;font-weight:normal;font-size:13.87199974px;font-family:Arial;-inkscape-font-specification:Arial;writing-mode:lr-tb;fill:#000000;fill-opacity:1;fill-rule:nonzero;stroke:none" transform="matrix(1,0,0,-1,57.552,535.25)"><tspan id="tspan308" y="0" x="0 6.8943839 14.607216 22.320047 26.093231 33.806065 41.518894 45.375313 55.390896 63.103729 70.816559 78.487778 82.385811 87.00518 90.08477 97.7976 104.81683 108.36806 118.32816 126.04099 135.87624 139.89912 143.79715 151.50998 158.26566 165.97849 172.96997 176.868 180.76604 184.44211 192.86241 202.82251 206.72055 210.61858 217.38811 224.37959 228.27763 238.23773 245.95056 253.66339 260.64102 264.53903 269.15842 276.87125 283.86273 287.76077 290.84036 298.55319 306.26602 308.99881 318.25143 325.22903 329.12708 333.02512 336.57632 341.19571 347.85428 356.27457 367.77448 371.45053 379.27435 386.98718 395.87915 399.90201 410.69443 415.31381 423.02664 432.87576 436.7738 444.48663 448.37079 452.15784 464.49005 469.10944">Top 10 Countries New Invest. FDI vs Construction Act. (LTM YoY Growth, %) </tspan></text>
</g>
    </g>
  </g>
</svg>
