<svg version="1.1" width="100%" height="100%" viewBox="0 0 355 245" xmlns="http://www.w3.org/2000/svg" xmlns:xlink="http://www.w3.org/1999/xlink"><style type="text/css" /><defs><clipPath id="clip001"><path d="M0,0 L2761.333,0 L2761.333,2041.333 L0,2041.333 Z" clip-rule="evenodd" /></clipPath><clipPath id="clip002"><path d="M0,0 L2761.333,0 L2761.333,2041.333 L0,2041.333 Z" clip-rule="evenodd" /></clipPath><clipPath id="clip003"><path d="M0,0 L2761.333,0 L2761.333,2041.333 L0,2041.333 Z" clip-rule="evenodd" /></clipPath><clipPath id="clip004"><path d="M0,0 L5200,0 L5200,2149.333 L0,2149.333 Z" clip-rule="evenodd" /></clipPath><clipPath id="clip005"><path d="M-800,0 L6000,0 L6000,2149.333 L-800,2149.333 Z" clip-rule="evenodd" /></clipPath><clipPath id="clip006"><path d="M0,0 L2753.333,0 L2753.333,2040 L0,2040 Z" clip-rule="evenodd" /></clipPath><clipPath id="clip007"><path d="M338.6667,182.6667 L2753.333,182.6667 L2753.333,1841.333 L338.6667,1841.333 Z" clip-rule="evenodd" /></clipPath><clipPath id="clip008"><path d="M338.6667,182.6667 L2753.333,182.6667 L2753.333,1841.333 L338.6667,1841.333 Z" clip-rule="evenodd" /></clipPath><clipPath id="clip009"><path d="M0,0 L2753.333,0 L2753.333,2040 L0,2040 Z" clip-rule="evenodd" /></clipPath><clipPath id="clip010"><path d="M0,0 L2753.333,0 L2753.333,2040 L0,2040 Z" clip-rule="evenodd" /></clipPath><clipPath id="clip011"><path d="M0,0 L2753.333,0 L2753.333,2040 L0,2040 Z" clip-rule="evenodd" /></clipPath><clipPath id="clip012"><path d="M0,0 L2753.333,0 L2753.333,2040 L0,2040 Z" clip-rule="evenodd" /></clipPath><clipPath id="clip013"><path d="M0,0 L2753.333,0 L2753.333,2040 L0,2040 Z" clip-rule="evenodd" /></clipPath><clipPath id="clip014"><path d="M0,0 L2753.333,0 L2753.333,2040 L0,2040 Z" clip-rule="evenodd" /></clipPath><clipPath id="clip015"><path d="M0,0 L2753.333,0 L2753.333,2040 L0,2040 Z" clip-rule="evenodd" /></clipPath><clipPath id="clip016"><path d="M0,0 L2753.333,0 L2753.333,2040 L0,2040 Z" clip-rule="evenodd" /></clipPath><clipPath id="clip017"><path d="M0,0 L2753.333,0 L2753.333,2040 L0,2040 Z" clip-rule="evenodd" /></clipPath><clipPath id="clip018"><path d="M0,0 L2753.333,0 L2753.333,2040 L0,2040 Z" clip-rule="evenodd" /></clipPath><clipPath id="clip019"><path d="M0,0 L2753.333,0 L2753.333,2040 L0,2040 Z" clip-rule="evenodd" /></clipPath><clipPath id="clip020"><path d="M0,0 L2753.333,0 L2753.333,2040 L0,2040 Z" clip-rule="evenodd" /></clipPath><clipPath id="clip021"><path d="M0,0 L2753.333,0 L2753.333,2040 L0,2040 Z" clip-rule="evenodd" /></clipPath><clipPath id="clip022"><path d="M0,0 L2753.333,0 L2753.333,2040 L0,2040 Z" clip-rule="evenodd" /></clipPath><clipPath id="clip023"><path d="M0,0 L2753.333,0 L2753.333,2040 L0,2040 Z" clip-rule="evenodd" /></clipPath><clipPath id="clip024"><path d="M0,0 L2753.333,0 L2753.333,2040 L0,2040 Z" clip-rule="evenodd" /></clipPath><clipPath id="clip025"><path d="M0,0 L2753.333,0 L2753.333,2040 L0,2040 Z" clip-rule="evenodd" /></clipPath><clipPath id="clip026"><path d="M0,0 L2753.333,0 L2753.333,2040 L0,2040 Z" clip-rule="evenodd" /></clipPath><clipPath id="clip027"><path d="M0,0 L2753.333,0 L2753.333,2040 L0,2040 Z" clip-rule="evenodd" /></clipPath><clipPath id="clip028"><path d="M0,0 L2753.333,0 L2753.333,2040 L0,2040 Z" clip-rule="evenodd" /></clipPath><clipPath id="clip029"><path d="M0,0 L2753.333,0 L2753.333,2040 L0,2040 Z" clip-rule="evenodd" /></clipPath><clipPath id="clip030"><path d="M0,0 L2753.333,0 L2753.333,2040 L0,2040 Z" clip-rule="evenodd" /></clipPath><clipPath id="clip031"><path d="M0,0 L2753.333,0 L2753.333,2040 L0,2040 Z" clip-rule="evenodd" /></clipPath><clipPath id="clip032"><path d="M0,0 L2753.333,0 L2753.333,2040 L0,2040 Z" clip-rule="evenodd" /></clipPath><clipPath id="clip033"><path d="M0,0 L2753.333,0 L2753.333,2040 L0,2040 Z" clip-rule="evenodd" /></clipPath><clipPath id="clip034"><path d="M0,0 L2753.333,0 L2753.333,2040 L0,2040 Z" clip-rule="evenodd" /></clipPath><clipPath id="clip035"><path d="M0,0 L2753.333,0 L2753.333,2040 L0,2040 Z" clip-rule="evenodd" /></clipPath><clipPath id="clip036"><path d="M0,0 L2753.333,0 L2753.333,2040 L0,2040 Z" clip-rule="evenodd" /></clipPath><clipPath id="clip037"><path d="M0,0 L2753.333,0 L2753.333,2040 L0,2040 Z" clip-rule="evenodd" /></clipPath></defs><clipPath id="page-clip-path-1"><rect x="0" y="0" width="354.67" height="245.33" /></clipPath><g clip-path="url(#page-clip-path-1)" transform="translate(0.17,0)"><g transform="translate(1,1)"><g><g transform="matrix(0.1197006,0,0,0.1199869,0,0)" clip-path="url(#clip001)"><g><g clip-path="url(#clip002)"><g><g clip-path="url(#clip003)"><g transform="matrix(1.000214,0,0,1.000739,0.00016276,0)"><g><g><g clip-path="url(#clip004)"><g transform="translate(2753.333,2041.333)" /></g></g></g><g clip-path="url(#clip005)"><g transform="matrix(0.000656168,0,0,0.000656168,0,0)"><path d="M0,0 L4198112,0 L4198112,3110992 L0,3110992 Z" fill="#ffffff" fill-opacity="0" fill-rule="evenodd" /></g></g><g clip-path="url(#clip006)"><g transform="matrix(0.000656168,0,0,0.000656168,340,184)"><path d="M0,2011680 L3679952,2011680 M0,1507744 L3679952,1507744 M0,1005840 L3679952,1005840 M0,501904 L3679952,501904 M0,0 L3679952,0 " stroke-width="16933.33" stroke-linejoin="round" stroke-miterlimit="13.33333" stroke="#bababa" fill="none" fill-rule="nonzero" /></g></g><g clip-path="url(#clip007)"><g transform="matrix(0.000656168,0,0,0.000656168,340,184)"><path d="M87376,0 L436880,0 L436880,0 L436880,2513584 L436880,2513584 L87376,2513584 ZM611632,0 L963168,0 L963168,0 L963168,2513584 L963168,2513584 L611632,2513584 ZM1137920,0 L1489456,0 L1489456,0 L1489456,2513584 L1489456,2513584 L1137920,2513584 ZM1664208,12192 L2013712,12192 L2013712,12192 L2013712,2513584 L2013712,2513584 L1664208,2513584 ZM2190496,111760 L2540000,111760 L2540000,111760 L2540000,2513584 L2540000,2513584 L2190496,2513584 ZM2714752,327152 L3066288,327152 L3066288,327152 L3066288,2513584 L3066288,2513584 L2714752,2513584 ZM3241040,642112 L3592576,642112 L3592576,642112 L3592576,2513584 L3592576,2513584 L3241040,2513584 Z" fill="#012169" fill-rule="nonzero" /><path d="M87376,0 L436880,0 L436880,0 L436880,2513584 L436880,2513584 L87376,2513584 ZM611632,0 L963168,0 L963168,0 L963168,2513584 L963168,2513584 L611632,2513584 ZM1137920,0 L1489456,0 L1489456,0 L1489456,2513584 L1489456,2513584 L1137920,2513584 ZM1664208,12192 L2013712,12192 L2013712,12192 L2013712,2513584 L2013712,2513584 L1664208,2513584 ZM2190496,111760 L2540000,111760 L2540000,111760 L2540000,2513584 L2540000,2513584 L2190496,2513584 ZM2714752,327152 L3066288,327152 L3066288,327152 L3066288,2513584 L3066288,2513584 L2714752,2513584 ZM3241040,642112 L3592576,642112 L3592576,642112 L3592576,2513584 L3592576,2513584 L3241040,2513584 Z" stroke-width="8466.667" stroke-linejoin="round" stroke-miterlimit="13.33333" stroke="#ffffff" fill="none" fill-rule="nonzero" /></g></g><g clip-path="url(#clip008)"><g transform="matrix(0.000656168,0,0,0.000656168,340,184)"><path d="M1664208,0 L2013712,0 L2013712,0 L2013712,12192 L2013712,12192 L1664208,12192 ZM2190496,0 L2540000,0 L2540000,0 L2540000,111760 L2540000,111760 L2190496,111760 ZM2714752,0 L3066288,0 L3066288,0 L3066288,327152 L3066288,327152 L2714752,327152 ZM3241040,0 L3592576,0 L3592576,0 L3592576,642112 L3592576,642112 L3241040,642112 Z" fill="#009cde" fill-rule="nonzero" /><path d="M1664208,0 L2013712,0 L2013712,0 L2013712,12192 L2013712,12192 L1664208,12192 ZM2190496,0 L2540000,0 L2540000,0 L2540000,111760 L2540000,111760 L2190496,111760 ZM2714752,0 L3066288,0 L3066288,0 L3066288,327152 L3066288,327152 L2714752,327152 ZM3241040,0 L3592576,0 L3592576,0 L3592576,642112 L3592576,642112 L3241040,642112 Z" stroke-width="8466.667" stroke-linejoin="round" stroke-miterlimit="13.33333" stroke="#ffffff" fill="none" fill-rule="nonzero" /></g></g><g clip-path="url(#clip009)"><g transform="matrix(0.000656168,0,0,0.000656168,340,1833.333)"><g><path d="M0.002454138,-6773.333 L3679952,-6772 " stroke-width="3386.667" stroke-linejoin="round" stroke-miterlimit="13.33333" stroke="#000000" fill="none" fill-rule="evenodd" /><path d="M-0.001227069,3386.667 L3679952,3388 " stroke-width="10160" stroke-linejoin="round" stroke-miterlimit="13.33333" stroke="#000000" fill="none" fill-rule="evenodd" /></g></g></g><g><g clip-path="url(#clip010)"><g><g transform="translate(385.7821,1036.689)"><text><tspan x="0" y="0" font-family="Connections Cond Light,Arial Narrow" font-weight="normal" font-style="normal" font-size="89.33334" fill="#ffffff">100.0%</tspan></text></g></g></g></g><g><g clip-path="url(#clip011)"><g><g transform="translate(730.79,1036.689)"><text><tspan x="0" y="0" font-family="Connections Cond Light,Arial Narrow" font-weight="normal" font-style="normal" font-size="89.33334" fill="#ffffff">100.0%</tspan></text></g></g></g></g><g><g clip-path="url(#clip012)"><g><g transform="translate(1075.798,1036.689)"><text><tspan x="0" y="0" font-family="Connections Cond Light,Arial Narrow" font-weight="normal" font-style="normal" font-size="89.33334" fill="#ffffff">100.0%</tspan></text></g></g></g></g><g><g clip-path="url(#clip013)"><g><g transform="translate(1442.139,1040.801)"><text><tspan x="0" y="0" font-family="Connections Cond Light,Arial Narrow" font-weight="normal" font-style="normal" font-size="89.33334" fill="#ffffff">99.5%</tspan></text></g></g></g></g><g><g clip-path="url(#clip014)"><g><g transform="translate(1787.147,1073.655)"><text><tspan x="0" y="0" font-family="Connections Cond Light,Arial Narrow" font-weight="normal" font-style="normal" font-size="89.33334" fill="#ffffff">95.5%</tspan></text></g></g></g></g><g><g clip-path="url(#clip015)"><g><g transform="translate(2132.155,1144.441)"><text><tspan x="0" y="0" font-family="Connections Cond Light,Arial Narrow" font-weight="normal" font-style="normal" font-size="89.33334" fill="#ffffff">86.9%</tspan></text></g></g></g></g><g><g clip-path="url(#clip016)"><g><g transform="translate(2477.163,1247.827)"><text><tspan x="0" y="0" font-family="Connections Cond Light,Arial Narrow" font-weight="normal" font-style="normal" font-size="89.33334" fill="#ffffff">74.4%</tspan></text></g></g></g></g><g><g clip-path="url(#clip017)"><g><g transform="translate(1808.48,248.4466)"><text><tspan x="0" y="0" font-family="Connections Cond Light,Arial Narrow" font-weight="normal" font-style="normal" font-size="89.33334" fill="#ffffff">4.5%</tspan></text></g></g></g></g><g><g clip-path="url(#clip018)"><g><g transform="translate(2132.155,319.2314)"><text><tspan x="0" y="0" font-family="Connections Cond Light,Arial Narrow" font-weight="normal" font-style="normal" font-size="89.33334" fill="#ffffff">13.1%</tspan></text></g></g></g></g><g><g clip-path="url(#clip019)"><g><g transform="translate(2477.163,422.619)"><text><tspan x="0" y="0" font-family="Connections Cond Light,Arial Narrow" font-weight="normal" font-style="normal" font-size="89.33334" fill="#ffffff">25.6%</tspan></text></g></g></g></g><g><g clip-path="url(#clip020)"><g><g transform="translate(118,1863.425)"><text><tspan x="0" y="0" font-family="Connections Cond Light,Arial Narrow" font-weight="normal" font-style="normal" font-size="105.3333" fill="#000000">0%</tspan></text></g></g></g></g><g><g clip-path="url(#clip021)"><g><g transform="translate(67.33334,1533.342)"><text><tspan x="0" y="0" font-family="Connections Cond Light,Arial Narrow" font-weight="normal" font-style="normal" font-size="105.3333" fill="#000000">20%</tspan></text></g></g></g></g><g><g clip-path="url(#clip022)"><g><g transform="translate(67.33334,1203.258)"><text><tspan x="0" y="0" font-family="Connections Cond Light,Arial Narrow" font-weight="normal" font-style="normal" font-size="105.3333" fill="#000000">40%</tspan></text></g></g></g></g><g><g clip-path="url(#clip023)"><g><g transform="translate(67.33334,873.175)"><text><tspan x="0" y="0" font-family="Connections Cond Light,Arial Narrow" font-weight="normal" font-style="normal" font-size="105.3333" fill="#000000">60%</tspan></text></g></g></g></g><g><g clip-path="url(#clip024)"><g><g transform="translate(67.33334,543.091)"><text><tspan x="0" y="0" font-family="Connections Cond Light,Arial Narrow" font-weight="normal" font-style="normal" font-size="105.3333" fill="#000000">80%</tspan></text></g></g></g></g><g><g clip-path="url(#clip025)"><g><g transform="translate(16.66667,213.0079)"><text><tspan x="0" y="0" font-family="Connections Cond Light,Arial Narrow" font-weight="normal" font-style="normal" font-size="105.3333" fill="#000000">100%</tspan></text></g></g></g></g><g><g clip-path="url(#clip026)"><g><g transform="translate(410.5599,1989.674)"><text><tspan x="0" y="0" font-family="Connections Cond Light,Arial Narrow" font-weight="normal" font-style="normal" font-size="105.3333" fill="#000000">2024</tspan></text></g></g></g></g><g><g clip-path="url(#clip027)"><g><g transform="translate(755.5678,1989.674)"><text><tspan x="0" y="0" font-family="Connections Cond Light,Arial Narrow" font-weight="normal" font-style="normal" font-size="105.3333" fill="#000000">2025</tspan></text></g></g></g></g><g><g clip-path="url(#clip028)"><g><g transform="translate(1100.576,1989.674)"><text><tspan x="0" y="0" font-family="Connections Cond Light,Arial Narrow" font-weight="normal" font-style="normal" font-size="105.3333" fill="#000000">2026</tspan></text></g></g></g></g><g><g clip-path="url(#clip029)"><g><g transform="translate(1445.583,1989.674)"><text><tspan x="0" y="0" font-family="Connections Cond Light,Arial Narrow" font-weight="normal" font-style="normal" font-size="105.3333" fill="#000000">2027</tspan></text></g></g></g></g><g><g clip-path="url(#clip030)"><g><g transform="translate(1790.591,1989.674)"><text><tspan x="0" y="0" font-family="Connections Cond Light,Arial Narrow" font-weight="normal" font-style="normal" font-size="105.3333" fill="#000000">2028</tspan></text></g></g></g></g><g><g clip-path="url(#clip031)"><g><g transform="translate(2135.599,1989.674)"><text><tspan x="0" y="0" font-family="Connections Cond Light,Arial Narrow" font-weight="normal" font-style="normal" font-size="105.3333" fill="#000000">2029</tspan></text></g></g></g></g><g><g clip-path="url(#clip032)"><g><g transform="translate(2480.607,1989.674)"><text><tspan x="0" y="0" font-family="Connections Cond Light,Arial Narrow" font-weight="normal" font-style="normal" font-size="105.3333" fill="#000000">2030</tspan></text></g></g></g></g><g clip-path="url(#clip033)"><g transform="matrix(0.000656168,0,0,0.000656168,1006.667,28)"><path d="M0,0 L1940560,0 L1940560,241808 L0,241808 Z" fill="#156082" fill-opacity="0" fill-rule="evenodd" /></g></g><g clip-path="url(#clip034)"><g transform="matrix(0.000656168,0,0,0.000656168,1105.333,80)"><path d="M0,0 L83312,0 L83312,83312 L0,83312 Z" fill="#012169" fill-rule="evenodd" /><path d="M0,0 L83312,0 L83312,0 L83312,83312 L83312,83312 L0,83312 Z" stroke-width="8466.667" stroke-linejoin="round" stroke-miterlimit="13.33333" stroke="#ffffff" fill="none" fill-rule="evenodd" /></g></g><g><g clip-path="url(#clip035)"><g><g transform="translate(1182.639,136.9003)"><text><tspan x="0" y="0" font-family="Connections Cond Light,Arial Narrow" font-weight="normal" font-style="normal" font-size="105.3333" fill="#000000">Without CPO</tspan></text></g></g></g></g><g clip-path="url(#clip036)"><g transform="matrix(0.000656168,0,0,0.000656168,1776,80)"><path d="M0,0 L83312,0 L83312,83312 L0,83312 Z" fill="#009cde" fill-rule="evenodd" /><path d="M0,0 L83312,0 L83312,0 L83312,83312 L83312,83312 L0,83312 Z" stroke-width="8466.667" stroke-linejoin="round" stroke-miterlimit="13.33333" stroke="#ffffff" fill="none" fill-rule="evenodd" /></g></g><g><g clip-path="url(#clip037)"><g><g transform="translate(1853.06,136.9003)"><text><tspan x="0" y="0" font-family="Connections Cond Light,Arial Narrow" font-weight="normal" font-style="normal" font-size="105.3333" fill="#000000">With CPO</tspan></text></g></g></g></g><g /></g></g></g></g></g></g></g></g></g></svg>