<?xml version="1.0" encoding="UTF-8" standalone="no"?>
<svg xmlns:dc="http://purl.org/dc/elements/1.1/" xmlns:cc="http://creativecommons.org/ns#" xmlns:rdf="http://www.w3.org/1999/02/22-rdf-syntax-ns#" xmlns:svg="http://www.w3.org/2000/svg" xmlns="http://www.w3.org/2000/svg" viewBox="63.02625 313.55 639 363" height="363" width="639" xml:space="preserve" version="1.1" id="svg2">
  <metadata id="metadata8">
    <rdf:RDF>
      <cc:Work rdf:about="">
        <dc:format>image/svg+xml</dc:format>
        <dc:type rdf:resource="http://purl.org/dc/dcmitype/StillImage"/>
      </cc:Work>
    </rdf:RDF>
  </metadata>
  <defs id="defs6">
    <clipPath id="clipPath16" clipPathUnits="userSpaceOnUse">
      <path style="clip-rule:evenodd" id="path18" d="m 50.4,250.8 511.2,0 0,290.4 -511.2,0 0,-290.4 z"/>
    </clipPath>
    <clipPath id="clipPath26" clipPathUnits="userSpaceOnUse">
      <path style="clip-rule:evenodd" id="path28" d="m 50.4,250.8 511.2,0 0,290.4 -511.2,0 0,-290.4 z"/>
    </clipPath>
    <clipPath id="clipPath36" clipPathUnits="userSpaceOnUse">
      <path style="clip-rule:evenodd" id="path38" d="m 50.479,250.8 511.12,0 0,290.29 -511.12,0 0,-290.29 z"/>
    </clipPath>
    <clipPath id="clipPath50" clipPathUnits="userSpaceOnUse">
      <path style="clip-rule:evenodd" id="path52" d="m 50.479,250.8 511.12,0 0,290.29 -511.12,0 0,-290.29 z"/>
    </clipPath>
    <clipPath id="clipPath60" clipPathUnits="userSpaceOnUse">
      <path style="clip-rule:evenodd" id="path62" d="m 50.52,250.8 511.08,0 0,290.28 -511.08,0 0,-290.28 z"/>
    </clipPath>
    <clipPath id="clipPath72" clipPathUnits="userSpaceOnUse">
      <path style="clip-rule:evenodd" id="path74" d="m 50.52,250.8 511.08,0 0,290.28 -511.08,0 0,-290.28 z"/>
    </clipPath>
    <clipPath id="clipPath84" clipPathUnits="userSpaceOnUse">
      <path style="clip-rule:evenodd" id="path86" d="m 50.52,250.8 511.08,0 0,290.28 -511.08,0 0,-290.28 z"/>
    </clipPath>
    <clipPath id="clipPath96" clipPathUnits="userSpaceOnUse">
      <path style="clip-rule:evenodd" id="path98" d="m 50.52,250.8 511.08,0 0,290.28 -511.08,0 0,-290.28 z"/>
    </clipPath>
    <clipPath id="clipPath108" clipPathUnits="userSpaceOnUse">
      <path style="clip-rule:evenodd" id="path110" d="m 50.52,250.8 511.08,0 0,290.28 -511.08,0 0,-290.28 z"/>
    </clipPath>
    <clipPath id="clipPath120" clipPathUnits="userSpaceOnUse">
      <path style="clip-rule:evenodd" id="path122" d="m 50.52,250.8 511.08,0 0,290.28 -511.08,0 0,-290.28 z"/>
    </clipPath>
    <clipPath id="clipPath132" clipPathUnits="userSpaceOnUse">
      <path style="clip-rule:evenodd" id="path134" d="m 50.52,250.8 511.08,0 0,290.28 -511.08,0 0,-290.28 z"/>
    </clipPath>
    <clipPath id="clipPath144" clipPathUnits="userSpaceOnUse">
      <path style="clip-rule:evenodd" id="path146" d="m 50.52,250.8 511.08,0 0,290.28 -511.08,0 0,-290.28 z"/>
    </clipPath>
    <clipPath id="clipPath156" clipPathUnits="userSpaceOnUse">
      <path style="clip-rule:evenodd" id="path158" d="m 50.52,250.8 511.08,0 0,290.28 -511.08,0 0,-290.28 z"/>
    </clipPath>
    <clipPath id="clipPath168" clipPathUnits="userSpaceOnUse">
      <path style="clip-rule:evenodd" id="path170" d="m 50.52,250.8 511.08,0 0,290.28 -511.08,0 0,-290.28 z"/>
    </clipPath>
    <clipPath id="clipPath180" clipPathUnits="userSpaceOnUse">
      <path style="clip-rule:evenodd" id="path182" d="m 50.52,250.8 511.08,0 0,290.28 -511.08,0 0,-290.28 z"/>
    </clipPath>
    <clipPath id="clipPath192" clipPathUnits="userSpaceOnUse">
      <path style="clip-rule:evenodd" id="path194" d="m 50.52,250.8 511.08,0 0,290.28 -511.08,0 0,-290.28 z"/>
    </clipPath>
    <clipPath id="clipPath204" clipPathUnits="userSpaceOnUse">
      <path style="clip-rule:evenodd" id="path206" d="m 50.52,250.8 511.08,0 0,290.28 -511.08,0 0,-290.28 z"/>
    </clipPath>
    <clipPath id="clipPath216" clipPathUnits="userSpaceOnUse">
      <path style="clip-rule:evenodd" id="path218" d="m 50.52,250.8 511.08,0 0,290.28 -511.08,0 0,-290.28 z"/>
    </clipPath>
    <clipPath id="clipPath228" clipPathUnits="userSpaceOnUse">
      <path style="clip-rule:evenodd" id="path230" d="m 50.52,250.8 511.08,0 0,290.28 -511.08,0 0,-290.28 z"/>
    </clipPath>
    <clipPath id="clipPath240" clipPathUnits="userSpaceOnUse">
      <path style="clip-rule:evenodd" id="path242" d="m 50.52,250.8 511.08,0 0,290.28 -511.08,0 0,-290.28 z"/>
    </clipPath>
    <clipPath id="clipPath252" clipPathUnits="userSpaceOnUse">
      <path style="clip-rule:evenodd" id="path254" d="m 50.52,250.8 511.08,0 0,290.28 -511.08,0 0,-290.28 z"/>
    </clipPath>
    <clipPath id="clipPath264" clipPathUnits="userSpaceOnUse">
      <path style="clip-rule:evenodd" id="path266" d="m 50.52,250.8 511.08,0 0,290.28 -511.08,0 0,-290.28 z"/>
    </clipPath>
    <clipPath id="clipPath276" clipPathUnits="userSpaceOnUse">
      <path style="clip-rule:evenodd" id="path278" d="m 50.52,250.8 511.08,0 0,290.28 -511.08,0 0,-290.28 z"/>
    </clipPath>
    <clipPath id="clipPath288" clipPathUnits="userSpaceOnUse">
      <path style="clip-rule:evenodd" id="path290" d="m 50.52,250.8 511.08,0 0,290.28 -511.08,0 0,-290.28 z"/>
    </clipPath>
    <clipPath id="clipPath304" clipPathUnits="userSpaceOnUse">
      <path style="clip-rule:evenodd" id="path306" d="m 50.52,250.8 511.08,0 0,290.28 -511.08,0 0,-290.28 z"/>
    </clipPath>
    <clipPath id="clipPath318" clipPathUnits="userSpaceOnUse">
      <path style="clip-rule:evenodd" id="path320" d="m 50.52,250.8 511.08,0 0,290.28 -511.08,0 0,-290.28 z"/>
    </clipPath>
    <clipPath id="clipPath334" clipPathUnits="userSpaceOnUse">
      <path style="clip-rule:evenodd" id="path336" d="m 50.4,250.8 511.2,0 0,290.4 -511.2,0 0,-290.4 z"/>
    </clipPath>
    <clipPath id="clipPath346" clipPathUnits="userSpaceOnUse">
      <path style="clip-rule:evenodd" id="path348" d="m 50.4,250.8 511.2,0 0,290.4 -511.2,0 0,-290.4 z"/>
    </clipPath>
    <clipPath id="clipPath358" clipPathUnits="userSpaceOnUse">
      <path style="clip-rule:evenodd" id="path360" d="m 50.4,250.8 511.2,0 0,290.4 -511.2,0 0,-290.4 z"/>
    </clipPath>
    <clipPath id="clipPath370" clipPathUnits="userSpaceOnUse">
      <path style="clip-rule:evenodd" id="path372" d="m 50.4,250.8 511.2,0 0,290.4 -511.2,0 0,-290.4 z"/>
    </clipPath>
    <clipPath id="clipPath382" clipPathUnits="userSpaceOnUse">
      <path style="clip-rule:evenodd" id="path384" d="m 50.4,250.8 511.2,0 0,290.4 -511.2,0 0,-290.4 z"/>
    </clipPath>
    <clipPath id="clipPath394" clipPathUnits="userSpaceOnUse">
      <path style="clip-rule:evenodd" id="path396" d="m 50.4,250.8 511.2,0 0,290.4 -511.2,0 0,-290.4 z"/>
    </clipPath>
    <clipPath id="clipPath406" clipPathUnits="userSpaceOnUse">
      <path style="clip-rule:evenodd" id="path408" d="m 50.4,250.8 511.2,0 0,290.4 -511.2,0 0,-290.4 z"/>
    </clipPath>
  </defs>
  <g transform="matrix(1.25,0,0,-1.25,0,990)" id="g10">
    <g id="g12">
      <g clip-path="url(#clipPath16)" id="g14">
        <path id="path20" style="fill:none;stroke:#000000;stroke-width:0.14;stroke-linecap:butt;stroke-linejoin:miter;stroke-miterlimit:10;stroke-dasharray:none;stroke-opacity:0" d="m 50.491,250.73 511.19,0 0,290.36 -511.19,0 0,-290.36 z"/>
      </g>
    </g>
    <g id="g22">
      <g clip-path="url(#clipPath26)" id="g24">
        <path id="path30" style="fill:#ffffff;fill-opacity:1;fill-rule:evenodd;stroke:none" d="m 50.491,250.73 511.19,0 0,290.36 -511.19,0 0,-290.36 z"/>
      </g>
    </g>
    <g id="g32">
      <g clip-path="url(#clipPath36)" id="g34">
        <path id="path40" style="fill:none;stroke:#c0c0c0;stroke-width:0.57366002;stroke-linecap:round;stroke-linejoin:round;stroke-miterlimit:10;stroke-dasharray:none;stroke-opacity:1" d="m 98.339,369.41 463.341,0 m -463.341,17.21 463.341,0 m -463.341,17.07 463.341,0 m -463.341,17.21 463.341,0 m -463.341,17.07 463.341,0 m -463.341,17.21 463.341,0 m -463.341,17.08 463.341,0 m -463.341,17.21 463.341,0 m -463.341,17.1 463.341,0"/>
      </g>
    </g>
    <path id="path42" style="fill:#005aa4;fill-opacity:1;fill-rule:nonzero;stroke:none" d="m 112.57,407.13 18.86,0 0,-54.79 -18.86,0 0,54.79 z m 66.09,85.78 19,0 0,-140.57 -19,0 0,140.57 z m 66.22,-137.13 19,0 0,-3.44 -19,0 0,3.44 z m 66.22,0 18.87,0 0,-3.44 -18.87,0 0,3.44 z m 66.23,106.29 18.86,0 0,-109.73 -18.86,0 0,109.73 z m 66.08,-85.78 19,0 0,-23.95 -19,0 0,23.95 z m 66.23,-13.63 19,0 0,-10.32 -19,0 0,10.32 z"/>
    <path id="path44" style="fill:#d0b86a;fill-opacity:1;fill-rule:nonzero;stroke:none" d="m 131.43,386.62 18.87,0 0,-34.28 -18.87,0 0,34.28 z m 66.23,75.45 18.86,0 0,-109.73 -18.86,0 0,109.73 z m 66.22,-99.41 18.86,0 0,-10.32 -18.86,0 0,10.32 z m 132.31,78.76 18.86,0 0,-89.08 -18.86,0 0,89.08 z m 66.22,-47.92 18.86,0 0,-41.16 -18.86,0 0,41.16 z m 66.23,17.08 18.86,0 0,-58.24 -18.86,0 0,58.24 z"/>
    <g id="g46">
      <g clip-path="url(#clipPath50)" id="g48">
        <path id="path54" style="fill:none;stroke:#808080;stroke-width:1.43420005;stroke-linecap:round;stroke-linejoin:round;stroke-miterlimit:10;stroke-dasharray:none;stroke-opacity:1" d="m 98.339,352.34 463.341,0"/>
      </g>
    </g>
    <g id="g56">
      <g clip-path="url(#clipPath60)" id="g58"><text id="text64" style="font-variant:normal;font-weight:normal;font-size:10.34399986px;font-family:'Roboto Condensed';-inkscape-font-specification:RobotoCondensed-Regular;writing-mode:lr-tb;fill:#000000;fill-opacity:1;fill-rule:nonzero;stroke:none" transform="matrix(1,0,0,-1,74.904,349.22)"><tspan id="tspan66" y="0" x="0 5.0880361">0%</tspan></text>
</g>
    </g>
    <g id="g68">
      <g clip-path="url(#clipPath72)" id="g70"><text id="text76" style="font-variant:normal;font-weight:normal;font-size:10.34399986px;font-family:'Roboto Condensed';-inkscape-font-specification:RobotoCondensed-Regular;writing-mode:lr-tb;fill:#000000;fill-opacity:1;fill-rule:nonzero;stroke:none" transform="matrix(1,0,0,-1,74.904,366.36)"><tspan id="tspan78" y="0" x="0 5.0880361">5%</tspan></text>
</g>
    </g>
    <g id="g80">
      <g clip-path="url(#clipPath84)" id="g82"><text id="text88" style="font-variant:normal;font-weight:normal;font-size:10.34399986px;font-family:'Roboto Condensed';-inkscape-font-specification:RobotoCondensed-Regular;writing-mode:lr-tb;fill:#000000;fill-opacity:1;fill-rule:nonzero;stroke:none" transform="matrix(1,0,0,-1,69.792,383.5)"><tspan id="tspan90" y="0" x="0 5.0880361 10.176072">10%</tspan></text>
</g>
    </g>
    <g id="g92">
      <g clip-path="url(#clipPath96)" id="g94"><text id="text100" style="font-variant:normal;font-weight:normal;font-size:10.31999969px;font-family:'Roboto Condensed';-inkscape-font-specification:RobotoCondensed-Regular;writing-mode:lr-tb;fill:#000000;fill-opacity:1;fill-rule:nonzero;stroke:none" transform="matrix(1,0,0,-1,69.792,400.63)"><tspan id="tspan102" y="0" x="0 5.0879798 10.17596">15%</tspan></text>
</g>
    </g>
    <g id="g104">
      <g clip-path="url(#clipPath108)" id="g106"><text id="text112" style="font-variant:normal;font-weight:normal;font-size:10.31999969px;font-family:'Roboto Condensed';-inkscape-font-specification:RobotoCondensed-Regular;writing-mode:lr-tb;fill:#000000;fill-opacity:1;fill-rule:nonzero;stroke:none" transform="matrix(1,0,0,-1,69.792,417.77)"><tspan id="tspan114" y="0" x="0 5.0879798 10.17596">20%</tspan></text>
</g>
    </g>
    <g id="g116">
      <g clip-path="url(#clipPath120)" id="g118"><text id="text124" style="font-variant:normal;font-weight:normal;font-size:10.31999969px;font-family:'Roboto Condensed';-inkscape-font-specification:RobotoCondensed-Regular;writing-mode:lr-tb;fill:#000000;fill-opacity:1;fill-rule:nonzero;stroke:none" transform="matrix(1,0,0,-1,69.792,434.9)"><tspan id="tspan126" y="0" x="0 5.0879798 10.17596">25%</tspan></text>
</g>
    </g>
    <g id="g128">
      <g clip-path="url(#clipPath132)" id="g130"><text id="text136" style="font-variant:normal;font-weight:normal;font-size:10.31999969px;font-family:'Roboto Condensed';-inkscape-font-specification:RobotoCondensed-Regular;writing-mode:lr-tb;fill:#000000;fill-opacity:1;fill-rule:nonzero;stroke:none" transform="matrix(1,0,0,-1,69.792,452.04)"><tspan id="tspan138" y="0" x="0 5.0879798 10.17596">30%</tspan></text>
</g>
    </g>
    <g id="g140">
      <g clip-path="url(#clipPath144)" id="g142"><text id="text148" style="font-variant:normal;font-weight:normal;font-size:10.31999969px;font-family:'Roboto Condensed';-inkscape-font-specification:RobotoCondensed-Regular;writing-mode:lr-tb;fill:#000000;fill-opacity:1;fill-rule:nonzero;stroke:none" transform="matrix(1,0,0,-1,69.792,469.18)"><tspan id="tspan150" y="0" x="0 5.0879798 10.17596">35%</tspan></text>
</g>
    </g>
    <g id="g152">
      <g clip-path="url(#clipPath156)" id="g154"><text id="text160" style="font-variant:normal;font-weight:normal;font-size:10.31999969px;font-family:'Roboto Condensed';-inkscape-font-specification:RobotoCondensed-Regular;writing-mode:lr-tb;fill:#000000;fill-opacity:1;fill-rule:nonzero;stroke:none" transform="matrix(1,0,0,-1,69.792,486.31)"><tspan id="tspan162" y="0" x="0 5.0879798 10.17596">40%</tspan></text>
</g>
    </g>
    <g id="g164">
      <g clip-path="url(#clipPath168)" id="g166"><text id="text172" style="font-variant:normal;font-weight:normal;font-size:10.34399986px;font-family:'Roboto Condensed';-inkscape-font-specification:RobotoCondensed-Regular;writing-mode:lr-tb;fill:#000000;fill-opacity:1;fill-rule:nonzero;stroke:none" transform="matrix(1,0,0,-1,69.792,503.47)"><tspan id="tspan174" y="0" x="0 5.0880361 10.176072">45%</tspan></text>
</g>
    </g>
    <g id="g176">
      <g clip-path="url(#clipPath180)" id="g178"><text id="text184" style="font-variant:normal;font-weight:normal;font-size:10.31999969px;font-family:'Roboto Condensed';-inkscape-font-specification:RobotoCondensed-Regular;writing-mode:lr-tb;fill:#000000;fill-opacity:1;fill-rule:nonzero;stroke:none" transform="matrix(1,0,0,-1,102.74,335.95)"><tspan id="tspan186" y="0" x="0 5.9133601 8.2766399 13.3644 15.72768 18.772079 23.715361 26.07864 28.586399 35.211842 40.155121 42.518398 45.015839 49.8456 52.889999">Digital wallets</tspan></text>
</g>
    </g>
    <g id="g188">
      <g clip-path="url(#clipPath192)" id="g190"><text id="text196" style="font-variant:normal;font-weight:normal;font-size:10.31999969px;font-family:'Roboto Condensed';-inkscape-font-specification:RobotoCondensed-Regular;writing-mode:lr-tb;fill:#000000;fill-opacity:1;fill-rule:nonzero;stroke:none" transform="matrix(1,0,0,-1,189.17,335.95)"><tspan id="tspan198" y="0" x="0 5.92802 11.0098">A2A</tspan></text>
</g>
    </g>
    <g id="g200">
      <g clip-path="url(#clipPath204)" id="g202"><text id="text208" style="font-variant:normal;font-weight:normal;font-size:10.31999969px;font-family:'Roboto Condensed';-inkscape-font-specification:RobotoCondensed-Regular;writing-mode:lr-tb;fill:#000000;fill-opacity:1;fill-rule:nonzero;stroke:none" transform="matrix(1,0,0,-1,241.99,335.95)"><tspan id="tspan210" y="0" x="0 5.6244001 11.9712 17.74008 22.67304 26.388241 32.15712 38.35944">BNPL/POS</tspan></text>
</g>
    </g>
    <g id="g212">
      <g clip-path="url(#clipPath216)" id="g214"><text id="text220" style="font-variant:normal;font-weight:normal;font-size:10.31999969px;font-family:'Roboto Condensed';-inkscape-font-specification:RobotoCondensed-Regular;writing-mode:lr-tb;fill:#000000;fill-opacity:1;fill-rule:nonzero;stroke:none" transform="matrix(1,0,0,-1,244.97,323.57)"><tspan id="tspan222" y="0" x="0 3.3024001 5.6656799 10.61928 15.56256 20.55744 25.36656 27.729839 32.796959">financing</tspan></text>
</g>
    </g>
    <g id="g224">
      <g clip-path="url(#clipPath228)" id="g226"><text id="text232" style="font-variant:normal;font-weight:normal;font-size:10.31999969px;font-family:'Roboto Condensed';-inkscape-font-specification:RobotoCondensed-Regular;writing-mode:lr-tb;fill:#000000;fill-opacity:1;fill-rule:nonzero;stroke:none" transform="matrix(1,0,0,-1,316.75,335.95)"><tspan id="tspan234" y="0" x="0 5.9133601 8.9371204 13.34376 18.43152 21.47592">Crypto</tspan></text>
</g>
    </g>
    <g id="g236">
      <g clip-path="url(#clipPath240)" id="g238"><text id="text244" style="font-variant:normal;font-weight:normal;font-size:10.31999969px;font-family:'Roboto Condensed';-inkscape-font-specification:RobotoCondensed-Regular;writing-mode:lr-tb;fill:#000000;fill-opacity:1;fill-rule:nonzero;stroke:none" transform="matrix(1,0,0,-1,371.57,335.95)"><tspan id="tspan246" y="0" x="0 5.8927202 8.9164801 13.74624 18.95784 21.290159 24.33456 26.64624 31.45536 36.39864 39.556561 44.675282">Credit cards</tspan></text>
</g>
    </g>
    <g id="g248">
      <g clip-path="url(#clipPath252)" id="g250"><text id="text256" style="font-variant:normal;font-weight:normal;font-size:10.31999969px;font-family:'Roboto Condensed';-inkscape-font-specification:RobotoCondensed-Regular;writing-mode:lr-tb;fill:#000000;fill-opacity:1;fill-rule:nonzero;stroke:none" transform="matrix(1,0,0,-1,443.14,335.95)"><tspan id="tspan258" y="0" x="0 5.9133601 10.74312 15.83088 18.19416 21.197281 23.56056 28.503839 33.591599">Debit and</tspan></text>
</g>
    </g>
    <g id="g260">
      <g clip-path="url(#clipPath264)" id="g262"><text id="text268" style="font-variant:normal;font-weight:normal;font-size:10.31999969px;font-family:'Roboto Condensed';-inkscape-font-specification:RobotoCondensed-Regular;writing-mode:lr-tb;fill:#000000;fill-opacity:1;fill-rule:nonzero;stroke:none" transform="matrix(1,0,0,-1,447.17,323.57)"><tspan id="tspan270" y="0" x="0 5.08776 8.2663202 13.09608 18.18384 23.158079 25.52136">prepaid</tspan></text>
</g>
    </g>
    <g id="g272">
      <g clip-path="url(#clipPath276)" id="g274"><text id="text280" style="font-variant:normal;font-weight:normal;font-size:10.31999969px;font-family:'Roboto Condensed';-inkscape-font-specification:RobotoCondensed-Regular;writing-mode:lr-tb;fill:#000000;fill-opacity:1;fill-rule:nonzero;stroke:none" transform="matrix(1,0,0,-1,518.42,335.95)"><tspan id="tspan282" y="0" x="0 5.9133601 10.7328 15.54192">Cash</tspan></text>
</g>
    </g>
    <g id="g284">
      <g clip-path="url(#clipPath288)" id="g286"><text id="text292" style="font-variant:normal;font-weight:bold;font-size:12.38399982px;font-family:'Roboto Condensed';-inkscape-font-specification:RobotoCondensed-Bold;writing-mode:lr-tb;fill:#000000;fill-opacity:1;fill-rule:nonzero;stroke:none" transform="matrix(1,0,0,-1,201.34,520.61)"><tspan id="tspan294" y="0" x="0 6.9969602 11.108448 16.941313 22.551264 25.709185 28.867104 31.603968 38.613312 44.396641 49.919903 59.108833 65.040771 71.059395 74.886047 77.734367 87.121437 93.053375 96.855263 102.94819 109.11543 115.29504 118.03191 125.02886 129.14035 135.07228 140.84323 146.77516 152.91763 159.12201 166.96109 173.05402 175.90233 179.90237 186.20583 192.53404 198.86227 205.19049">Brazil Payment Method Breakdown (2024)</tspan></text>
</g>
    </g>
    <path id="path296" style="fill:#ffffff;fill-opacity:1;fill-rule:evenodd;stroke:none" d="m 220.94,257.62 170.3,0 0,19.151 -170.3,0 0,-19.151 z"/>
    <path id="path298" style="fill:#005aa4;fill-opacity:1;fill-rule:evenodd;stroke:none" d="m 234.05,264.4 5.576,0 0,5.576 -5.576,0 0,-5.576 z"/>
    <g id="g300">
      <g clip-path="url(#clipPath304)" id="g302"><text id="text308" style="font-variant:normal;font-weight:normal;font-size:10.31999969px;font-family:'Roboto Condensed';-inkscape-font-specification:RobotoCondensed-Regular;writing-mode:lr-tb;fill:#000000;fill-opacity:1;fill-rule:nonzero;stroke:none" transform="matrix(1,0,0,-1,242.02,264.05)"><tspan id="tspan310" y="0" x="0 5.1290398 7.7193599 12.42528 17.6472 25.51104 27.874319 31.03224 37.110722 42.322319 47.420399 52.518478 58.2048">E-com (~$86B)</tspan></text>
</g>
    </g>
    <path id="path312" style="fill:#d0b86a;fill-opacity:1;fill-rule:evenodd;stroke:none" d="m 315.98,264.4 5.576,0 0,5.576 -5.576,0 0,-5.576 z"/>
    <g id="g314">
      <g clip-path="url(#clipPath318)" id="g316"><text id="text322" style="font-variant:normal;font-weight:normal;font-size:10.31999969px;font-family:'Roboto Condensed';-inkscape-font-specification:RobotoCondensed-Regular;writing-mode:lr-tb;fill:#000000;fill-opacity:1;fill-rule:nonzero;stroke:none" transform="matrix(1,0,0,-1,323.98,264.05)"><tspan id="tspan324" y="0" x="0 5.7688799 11.9712 17.316959 19.680241 22.827841 28.906321 33.96312 39.18504 44.283119 49.381199 55.0056">POS (~$830B)</tspan></text>
</g>
    </g>
    <path id="path326" style="fill:#ffffff;fill-opacity:1;fill-rule:evenodd;stroke:none" d="m 225.88,423.93 143.46,0 0,79.578 -143.46,0 0,-79.578 z"/>
    <path id="path328" style="fill:none;stroke:#ff0000;stroke-width:2.29460001;stroke-linecap:butt;stroke-linejoin:round;stroke-miterlimit:10;stroke-dasharray:none;stroke-opacity:1" d="m 225.88,423.93 143.46,0 0,79.578 -143.46,0 0,-79.578 z"/>
    <g id="g330">
      <g clip-path="url(#clipPath334)" id="g332"><text id="text338" style="font-variant:normal;font-weight:normal;font-size:11.42399979px;font-family:'Aptos Narrow';-inkscape-font-specification:'Aptos Narrow';writing-mode:lr-tb;fill:#000000;fill-opacity:1;fill-rule:nonzero;stroke:none" transform="matrix(1,0,0,-1,234.19,488.59)"><tspan id="tspan340" y="0" x="0 6.317472 9.9046078 15.399552 19.957727 22.539553 25.315584 28.171583 33.232414 35.460094 39.024384 44.519329 50.014271">Brazil’s real</tspan></text>
</g>
    </g>
    <g id="g342">
      <g clip-path="url(#clipPath346)" id="g344"><text id="text350" style="font-variant:normal;font-weight:normal;font-size:11.42399979px;font-family:'Aptos Narrow';-inkscape-font-specification:'Aptos Narrow';writing-mode:lr-tb;fill:#000000;fill-opacity:1;fill-rule:nonzero;stroke:none" transform="matrix(1,0,0,-1,287.06,488.59)"><tspan id="tspan352" y="0" x="0">-</tspan></text>
</g>
    </g>
    <g id="g354">
      <g clip-path="url(#clipPath358)" id="g356"><text id="text362" style="font-variant:normal;font-weight:normal;font-size:11.42399979px;font-family:'Aptos Narrow';-inkscape-font-specification:'Aptos Narrow';writing-mode:lr-tb;fill:#000000;fill-opacity:1;fill-rule:nonzero;stroke:none" transform="matrix(1,0,0,-1,290.5,488.59)"><tspan id="tspan364" y="0" x="0 3.450048 6.0547199 15.011136 20.551777 22.870848 28.788481 34.306271 39.035809 47.992226 53.487167 59.279137 62.717758">time payment </tspan></text>
</g>
    </g>
    <g id="g366">
      <g clip-path="url(#clipPath370)" id="g368"><text id="text374" style="font-variant:normal;font-weight:normal;font-size:11.42399979px;font-family:'Aptos Narrow';-inkscape-font-specification:'Aptos Narrow';writing-mode:lr-tb;fill:#000000;fill-opacity:1;fill-rule:nonzero;stroke:none" transform="matrix(1,0,0,-1,234.19,474.55)"><tspan id="tspan376" y="0" x="0 5.060832 9.7903681 14.8512 18.2784 23.773344 32.729759 35.734272">system, </tspan></text>
</g>
    </g>
    <g id="g378">
      <g clip-path="url(#clipPath382)" id="g380"><text id="text386" style="font-variant:normal;font-weight:bold;font-size:11.42399979px;font-family:'Aptos Narrow';-inkscape-font-specification:'Aptos Narrow Bold';writing-mode:lr-tb;fill:#000000;fill-opacity:1;fill-rule:nonzero;stroke:none" transform="matrix(1,0,0,-1,272.18,474.55)"><tspan id="tspan388" y="0" x="0 6.2146559 9.104928 14.200032 17.25024 19.443647 25.509792 31.176096 36.419712 38.487457 44.542175 50.608318 53.498592 59.164894 64.671265 67.835709 72.919395">Pix, has quickly </tspan></text>
</g>
    </g>
    <g id="g390">
      <g clip-path="url(#clipPath394)" id="g392"><text id="text398" style="font-variant:normal;font-weight:bold;font-size:11.42399979px;font-family:'Aptos Narrow';-inkscape-font-specification:'Aptos Narrow Bold';writing-mode:lr-tb;fill:#000000;fill-opacity:1;fill-rule:nonzero;stroke:none" transform="matrix(1,0,0,-1,234.19,460.51)"><tspan id="tspan400" y="0" x="0 9.2077436 15.113952 20.197632 25.978176 32.032894 34.237728 40.555199 46.347168 52.664639 54.732384 58.468033 64.374237 66.441986 72.770882 76.609344 82.2528 87.062302 89.929726 93.094177 96.144386 101.35373">moved A2A to Brazil’s </tspan></text>
</g>
    </g>
    <g id="g402">
      <g clip-path="url(#clipPath406)" id="g404"><text id="text410" style="font-variant:normal;font-weight:bold;font-size:11.42399979px;font-family:'Aptos Narrow';-inkscape-font-specification:'Aptos Narrow Bold';writing-mode:lr-tb;fill:#000000;fill-opacity:1;fill-rule:nonzero;stroke:none" transform="matrix(1,0,0,-1,234.19,446.59)"><tspan id="tspan412" y="0" x="0 3.153024 8.933568 14.577024 20.631744 23.499168 29.542463 34.774654 36.968063 43.022785 48.654816 53.738495 62.946239 68.726784 74.781502 78.494301 80.56205 89.769791 95.550339 99.263138 105.29501 111.20122 117.25594">leading payment method.</tspan></text>
</g>
    </g>
    <path id="path414" style="fill:#ff0000;fill-opacity:1;fill-rule:nonzero;stroke:none" d="m 276.44,424.7 -43.88,-21.94 0.76,-1.54 43.89,21.94 -0.77,1.54 z m -44.01,-19.12 -4.62,-6.16 7.7,0 -3.08,6.16 z"/>
  </g>
</svg>
