<?xml version="1.0" encoding="UTF-8" standalone="no"?>
<svg xmlns:dc="http://purl.org/dc/elements/1.1/" xmlns:cc="http://creativecommons.org/ns#" xmlns:rdf="http://www.w3.org/1999/02/22-rdf-syntax-ns#" xmlns:svg="http://www.w3.org/2000/svg" xmlns="http://www.w3.org/2000/svg" viewBox="63.06 322.675 639 344.675" height="344.675" width="639" xml:space="preserve" version="1.1" id="svg2">
  <metadata id="metadata8">
    <rdf:RDF>
      <cc:Work rdf:about="">
        <dc:format>image/svg+xml</dc:format>
        <dc:type rdf:resource="http://purl.org/dc/dcmitype/StillImage"/>
      </cc:Work>
    </rdf:RDF>
  </metadata>
  <defs id="defs6">
    <clipPath id="clipPath16" clipPathUnits="userSpaceOnUse">
      <path style="clip-rule:evenodd" id="path18" d="m 50.399,258.12 511.2,0 0,275.76 -511.2,0 0,-275.76 z"/>
    </clipPath>
    <clipPath id="clipPath26" clipPathUnits="userSpaceOnUse">
      <path style="clip-rule:evenodd" id="path28" d="m 50.4,258.12 511.2,0 0,275.76 -511.2,0 0,-275.76 z"/>
    </clipPath>
    <clipPath id="clipPath40" clipPathUnits="userSpaceOnUse">
      <path style="clip-rule:evenodd" id="path42" d="m 82.692,304.45 459.09,0 0,184.29 -459.09,0 0,-184.29 z"/>
    </clipPath>
    <clipPath id="clipPath122" clipPathUnits="userSpaceOnUse">
      <path style="clip-rule:evenodd" id="path124" d="m 50.52,258.12 511.08,0 0,275.64 -511.08,0 0,-275.64 z"/>
    </clipPath>
    <clipPath id="clipPath134" clipPathUnits="userSpaceOnUse">
      <path style="clip-rule:evenodd" id="path136" d="m 50.52,258.12 511.08,0 0,275.64 -511.08,0 0,-275.64 z"/>
    </clipPath>
    <clipPath id="clipPath146" clipPathUnits="userSpaceOnUse">
      <path style="clip-rule:evenodd" id="path148" d="m 50.52,258.12 511.08,0 0,275.64 -511.08,0 0,-275.64 z"/>
    </clipPath>
    <clipPath id="clipPath158" clipPathUnits="userSpaceOnUse">
      <path style="clip-rule:evenodd" id="path160" d="m 50.52,258.12 511.08,0 0,275.64 -511.08,0 0,-275.64 z"/>
    </clipPath>
    <clipPath id="clipPath170" clipPathUnits="userSpaceOnUse">
      <path style="clip-rule:evenodd" id="path172" d="m 50.52,258.12 511.08,0 0,275.64 -511.08,0 0,-275.64 z"/>
    </clipPath>
    <clipPath id="clipPath182" clipPathUnits="userSpaceOnUse">
      <path style="clip-rule:evenodd" id="path184" d="m 50.52,258.12 511.08,0 0,275.64 -511.08,0 0,-275.64 z"/>
    </clipPath>
    <clipPath id="clipPath194" clipPathUnits="userSpaceOnUse">
      <path style="clip-rule:evenodd" id="path196" d="m 50.52,258.12 511.08,0 0,275.64 -511.08,0 0,-275.64 z"/>
    </clipPath>
    <clipPath id="clipPath206" clipPathUnits="userSpaceOnUse">
      <path style="clip-rule:evenodd" id="path208" d="m 50.52,258.12 511.08,0 0,275.64 -511.08,0 0,-275.64 z"/>
    </clipPath>
    <clipPath id="clipPath218" clipPathUnits="userSpaceOnUse">
      <path style="clip-rule:evenodd" id="path220" d="m 50.52,258.12 511.08,0 0,275.64 -511.08,0 0,-275.64 z"/>
    </clipPath>
    <clipPath id="clipPath230" clipPathUnits="userSpaceOnUse">
      <path style="clip-rule:evenodd" id="path232" d="m 50.52,258.12 511.08,0 0,275.64 -511.08,0 0,-275.64 z"/>
    </clipPath>
    <clipPath id="clipPath244" clipPathUnits="userSpaceOnUse">
      <path style="clip-rule:evenodd" id="path246" d="m 50.52,258.12 511.08,0 0,275.64 -511.08,0 0,-275.64 z"/>
    </clipPath>
    <clipPath id="clipPath256" clipPathUnits="userSpaceOnUse">
      <path style="clip-rule:evenodd" id="path258" d="m 50.52,258.12 511.08,0 0,275.64 -511.08,0 0,-275.64 z"/>
    </clipPath>
    <clipPath id="clipPath268" clipPathUnits="userSpaceOnUse">
      <path style="clip-rule:evenodd" id="path270" d="m 385.2,456.36 135.6,0 0,14.64 -135.6,0 0,-14.64 z"/>
    </clipPath>
    <clipPath id="clipPath284" clipPathUnits="userSpaceOnUse">
      <path style="clip-rule:evenodd" id="path286" d="m 50.52,258.12 511.08,0 0,275.64 -511.08,0 0,-275.64 z"/>
    </clipPath>
    <clipPath id="clipPath300" clipPathUnits="userSpaceOnUse">
      <path style="clip-rule:evenodd" id="path302" d="m 50.52,258.12 511.08,0 0,275.64 -511.08,0 0,-275.64 z"/>
    </clipPath>
    <clipPath id="clipPath316" clipPathUnits="userSpaceOnUse">
      <path style="clip-rule:evenodd" id="path318" d="m 50.52,258.12 511.08,0 0,275.64 -511.08,0 0,-275.64 z"/>
    </clipPath>
    <clipPath id="clipPath332" clipPathUnits="userSpaceOnUse">
      <path style="clip-rule:evenodd" id="path334" d="m 50.52,258.12 511.08,0 0,275.64 -511.08,0 0,-275.64 z"/>
    </clipPath>
    <clipPath id="clipPath344" clipPathUnits="userSpaceOnUse">
      <path style="clip-rule:evenodd" id="path346" d="m 50.52,258.12 511.08,0 0,275.64 -511.08,0 0,-275.64 z"/>
    </clipPath>
    <clipPath id="clipPath356" clipPathUnits="userSpaceOnUse">
      <path style="clip-rule:evenodd" id="path358" d="m 50.52,258.12 511.08,0 0,275.64 -511.08,0 0,-275.64 z"/>
    </clipPath>
    <clipPath id="clipPath368" clipPathUnits="userSpaceOnUse">
      <path style="clip-rule:evenodd" id="path370" d="m 50.52,258.12 511.08,0 0,275.64 -511.08,0 0,-275.64 z"/>
    </clipPath>
    <clipPath id="clipPath380" clipPathUnits="userSpaceOnUse">
      <path style="clip-rule:evenodd" id="path382" d="m 50.52,258.12 511.08,0 0,275.64 -511.08,0 0,-275.64 z"/>
    </clipPath>
    <clipPath id="clipPath392" clipPathUnits="userSpaceOnUse">
      <path style="clip-rule:evenodd" id="path394" d="m 50.52,258.12 511.08,0 0,275.64 -511.08,0 0,-275.64 z"/>
    </clipPath>
    <clipPath id="clipPath404" clipPathUnits="userSpaceOnUse">
      <path style="clip-rule:evenodd" id="path406" d="m 50.52,258.12 511.08,0 0,275.64 -511.08,0 0,-275.64 z"/>
    </clipPath>
    <clipPath id="clipPath416" clipPathUnits="userSpaceOnUse">
      <path style="clip-rule:evenodd" id="path418" d="m 50.52,258.12 511.08,0 0,275.64 -511.08,0 0,-275.64 z"/>
    </clipPath>
    <clipPath id="clipPath428" clipPathUnits="userSpaceOnUse">
      <path style="clip-rule:evenodd" id="path430" d="m 50.52,258.12 511.08,0 0,275.64 -511.08,0 0,-275.64 z"/>
    </clipPath>
    <clipPath id="clipPath440" clipPathUnits="userSpaceOnUse">
      <path style="clip-rule:evenodd" id="path442" d="m 50.52,258.12 511.08,0 0,275.64 -511.08,0 0,-275.64 z"/>
    </clipPath>
    <clipPath id="clipPath452" clipPathUnits="userSpaceOnUse">
      <path style="clip-rule:evenodd" id="path454" d="m 50.52,258.12 511.08,0 0,275.64 -511.08,0 0,-275.64 z"/>
    </clipPath>
    <clipPath id="clipPath464" clipPathUnits="userSpaceOnUse">
      <path style="clip-rule:evenodd" id="path466" d="m 50.52,258.12 511.08,0 0,275.64 -511.08,0 0,-275.64 z"/>
    </clipPath>
    <clipPath id="clipPath476" clipPathUnits="userSpaceOnUse">
      <path style="clip-rule:evenodd" id="path478" d="m 50.52,258.12 511.08,0 0,275.64 -511.08,0 0,-275.64 z"/>
    </clipPath>
    <clipPath id="clipPath488" clipPathUnits="userSpaceOnUse">
      <path style="clip-rule:evenodd" id="path490" d="m 50.52,258.12 511.08,0 0,275.64 -511.08,0 0,-275.64 z"/>
    </clipPath>
    <clipPath id="clipPath500" clipPathUnits="userSpaceOnUse">
      <path style="clip-rule:evenodd" id="path502" d="m 50.52,258.12 511.08,0 0,275.64 -511.08,0 0,-275.64 z"/>
    </clipPath>
    <clipPath id="clipPath512" clipPathUnits="userSpaceOnUse">
      <path style="clip-rule:evenodd" id="path514" d="m 50.52,258.12 511.08,0 0,275.64 -511.08,0 0,-275.64 z"/>
    </clipPath>
    <clipPath id="clipPath524" clipPathUnits="userSpaceOnUse">
      <path style="clip-rule:evenodd" id="path526" d="m 50.52,258.12 511.08,0 0,275.64 -511.08,0 0,-275.64 z"/>
    </clipPath>
    <clipPath id="clipPath536" clipPathUnits="userSpaceOnUse">
      <path style="clip-rule:evenodd" id="path538" d="m 50.52,258.12 511.08,0 0,275.64 -511.08,0 0,-275.64 z"/>
    </clipPath>
    <clipPath id="clipPath548" clipPathUnits="userSpaceOnUse">
      <path style="clip-rule:evenodd" id="path550" d="m 50.52,258.12 511.08,0 0,275.64 -511.08,0 0,-275.64 z"/>
    </clipPath>
    <clipPath id="clipPath560" clipPathUnits="userSpaceOnUse">
      <path style="clip-rule:evenodd" id="path562" d="m 50.52,258.12 511.08,0 0,275.64 -511.08,0 0,-275.64 z"/>
    </clipPath>
    <clipPath id="clipPath572" clipPathUnits="userSpaceOnUse">
      <path style="clip-rule:evenodd" id="path574" d="m 50.52,258.12 511.08,0 0,275.64 -511.08,0 0,-275.64 z"/>
    </clipPath>
    <clipPath id="clipPath584" clipPathUnits="userSpaceOnUse">
      <path style="clip-rule:evenodd" id="path586" d="m 50.52,258.12 511.08,0 0,275.64 -511.08,0 0,-275.64 z"/>
    </clipPath>
    <clipPath id="clipPath596" clipPathUnits="userSpaceOnUse">
      <path style="clip-rule:evenodd" id="path598" d="m 50.52,258.12 511.08,0 0,275.64 -511.08,0 0,-275.64 z"/>
    </clipPath>
    <clipPath id="clipPath608" clipPathUnits="userSpaceOnUse">
      <path style="clip-rule:evenodd" id="path610" d="m 50.52,258.12 511.08,0 0,275.64 -511.08,0 0,-275.64 z"/>
    </clipPath>
    <clipPath id="clipPath620" clipPathUnits="userSpaceOnUse">
      <path style="clip-rule:evenodd" id="path622" d="m 50.52,258.12 511.08,0 0,275.64 -511.08,0 0,-275.64 z"/>
    </clipPath>
    <clipPath id="clipPath638" clipPathUnits="userSpaceOnUse">
      <path style="clip-rule:evenodd" id="path640" d="m 50.52,258.12 511.08,0 0,275.64 -511.08,0 0,-275.64 z"/>
    </clipPath>
    <clipPath id="clipPath654" clipPathUnits="userSpaceOnUse">
      <path style="clip-rule:evenodd" id="path656" d="m 50.52,258.12 511.08,0 0,275.64 -511.08,0 0,-275.64 z"/>
    </clipPath>
  </defs>
  <g transform="matrix(1.25,0,0,-1.25,0,990)" id="g10">
    <g id="g12">
      <g clip-path="url(#clipPath16)" id="g14">
        <path id="path20" style="fill:none;stroke:#000000;stroke-width:0.14;stroke-linecap:butt;stroke-linejoin:miter;stroke-miterlimit:10;stroke-dasharray:none;stroke-opacity:0" d="m 50.518,258.04 511.19,0 0,275.75 -511.19,0 0,-275.75 z"/>
      </g>
    </g>
    <g id="g22">
      <g clip-path="url(#clipPath26)" id="g24">
        <path id="path30" style="fill:#ffffff;fill-opacity:1;fill-rule:evenodd;stroke:none" d="m 50.518,258.04 511.19,0 0,275.75 -511.19,0 0,-275.75 z"/>
      </g>
    </g>
    <g id="g32">
      <path id="path34" style="fill:none;stroke:#7f7f7f;stroke-width:0.65930998;stroke-linecap:butt;stroke-linejoin:round;stroke-miterlimit:10;stroke-dasharray:2.6372, 1.9779;stroke-dashoffset:0;stroke-opacity:1" d="m 82.736,325.49 458.424,0"/>
    </g>
    <g id="g36">
      <g clip-path="url(#clipPath40)" id="g38">
        <path id="path44" style="fill:none;stroke:#137cb1;stroke-width:1.97790003;stroke-linecap:round;stroke-linejoin:round;stroke-miterlimit:10;stroke-dasharray:none;stroke-opacity:1" d="m 382.47,358.08 c 11.76,-11.94 23.51,-56.75 35.27,-41.17"/>
      </g>
    </g>
    <path id="path46" style="fill:none;stroke:#137cb1;stroke-width:1.97790003;stroke-linecap:round;stroke-linejoin:round;stroke-miterlimit:10;stroke-dasharray:none;stroke-opacity:1" d="m 417.74,316.91 c 11.75,15.58 23.51,110.71 35.26,134.65"/>
    <g id="g48">
      <path id="path50" style="fill:none;stroke:#137cb1;stroke-width:1.97790003;stroke-linecap:round;stroke-linejoin:round;stroke-miterlimit:10;stroke-dasharray:5.9338, 7.9117;stroke-dashoffset:0;stroke-opacity:1" d="m 453,451.56 c 8.02,16.34 27.25,10.04 35.26,9.01"/>
    </g>
    <g id="g52">
      <path id="path54" style="fill:none;stroke:#137cb1;stroke-width:1.97790003;stroke-linecap:round;stroke-linejoin:round;stroke-miterlimit:10;stroke-dasharray:5.9338, 7.9117;stroke-dashoffset:0;stroke-opacity:1" d="m 488.26,460.57 c 11.76,-1.51 23.51,-12.05 35.27,-18.08"/>
    </g>
    <path id="path56" style="fill:none;stroke:#137cb1;stroke-width:1.97790003;stroke-linecap:round;stroke-linejoin:round;stroke-miterlimit:10;stroke-dasharray:none;stroke-opacity:1" d="m 100.37,378.1 c 11.75,-9.49 23.51,-26.44 35.26,-28.46 11.76,-2.03 23.51,13.38 35.26,16.32 11.76,2.93 23.51,-7.82 35.27,1.28 11.75,9.09 23.51,61.05 35.26,53.29 11.76,-7.76 23.51,-94.28 35.26,-99.84 11.76,-5.56 23.51,55.16 35.27,66.48 11.75,11.31 23.51,6.27 35.26,1.42 11.76,-4.84 23.51,-18.56 35.26,-30.51"/>
    <path id="path58" style="fill:#137cb1;fill-opacity:1;fill-rule:nonzero;stroke:none" d="m 100.41,380.3 2.22,-2.22 -2.22,-2.21 -2.211,2.21 2.211,2.22 z"/>
    <path id="path60" style="fill:none;stroke:#137cb1;stroke-width:0.65930998;stroke-linecap:butt;stroke-linejoin:round;stroke-miterlimit:10;stroke-dasharray:none;stroke-opacity:1" d="m 100.41,380.3 2.22,-2.22 -2.22,-2.21 -2.211,2.21 2.211,2.22 z"/>
    <path id="path62" style="fill:#137cb1;fill-opacity:1;fill-rule:nonzero;stroke:none" d="m 135.65,351.82 2.21,-2.22 -2.21,-2.21 -2.22,2.21 2.22,2.22 z"/>
    <path id="path64" style="fill:none;stroke:#137cb1;stroke-width:0.65930998;stroke-linecap:butt;stroke-linejoin:round;stroke-miterlimit:10;stroke-dasharray:none;stroke-opacity:1" d="m 135.65,351.82 2.21,-2.22 -2.21,-2.21 -2.22,2.21 2.22,2.22 z"/>
    <path id="path66" style="fill:#137cb1;fill-opacity:1;fill-rule:nonzero;stroke:none" d="m 170.88,368.17 2.22,-2.22 -2.22,-2.21 -2.21,2.21 2.21,2.22 z"/>
    <path id="path68" style="fill:none;stroke:#137cb1;stroke-width:0.65930998;stroke-linecap:butt;stroke-linejoin:round;stroke-miterlimit:10;stroke-dasharray:none;stroke-opacity:1" d="m 170.88,368.17 2.22,-2.22 -2.22,-2.21 -2.21,2.21 2.21,2.22 z"/>
    <path id="path70" style="fill:#137cb1;fill-opacity:1;fill-rule:nonzero;stroke:none" d="m 206.11,369.43 2.22,-2.21 -2.22,-2.22 -2.21,2.22 2.21,2.21 z"/>
    <path id="path72" style="fill:none;stroke:#137cb1;stroke-width:0.65930998;stroke-linecap:butt;stroke-linejoin:round;stroke-miterlimit:10;stroke-dasharray:none;stroke-opacity:1" d="m 206.11,369.43 2.22,-2.21 -2.22,-2.22 -2.21,2.22 2.21,2.21 z"/>
    <path id="path74" style="fill:#137cb1;fill-opacity:1;fill-rule:nonzero;stroke:none" d="m 241.45,422.71 2.22,-2.22 -2.22,-2.22 -2.21,2.22 2.21,2.22 z"/>
    <path id="path76" style="fill:none;stroke:#137cb1;stroke-width:0.65930998;stroke-linecap:butt;stroke-linejoin:round;stroke-miterlimit:10;stroke-dasharray:none;stroke-opacity:1" d="m 241.45,422.71 2.22,-2.22 -2.22,-2.22 -2.21,2.22 2.21,2.22 z"/>
    <path id="path78" style="fill:#137cb1;fill-opacity:1;fill-rule:nonzero;stroke:none" d="m 276.69,322.91 2.21,-2.21 -2.21,-2.22 -2.22,2.22 2.22,2.21 z"/>
    <path id="path80" style="fill:none;stroke:#137cb1;stroke-width:0.65930998;stroke-linecap:butt;stroke-linejoin:round;stroke-miterlimit:10;stroke-dasharray:none;stroke-opacity:1" d="m 276.69,322.91 2.21,-2.21 -2.21,-2.22 -2.22,2.22 2.22,2.21 z"/>
    <path id="path82" style="fill:#137cb1;fill-opacity:1;fill-rule:nonzero;stroke:none" d="m 311.92,389.37 2.22,-2.21 -2.22,-2.22 -2.22,2.22 2.22,2.21 z"/>
    <path id="path84" style="fill:none;stroke:#137cb1;stroke-width:0.65930998;stroke-linecap:butt;stroke-linejoin:round;stroke-miterlimit:10;stroke-dasharray:none;stroke-opacity:1" d="m 311.92,389.37 2.22,-2.21 -2.22,-2.22 -2.22,2.22 2.22,2.21 z"/>
    <path id="path86" style="fill:#137cb1;fill-opacity:1;fill-rule:nonzero;stroke:none" d="m 347.26,390.85 2.21,-2.22 -2.21,-2.21 -2.22,2.21 2.22,2.22 z"/>
    <path id="path88" style="fill:none;stroke:#137cb1;stroke-width:0.65930998;stroke-linecap:butt;stroke-linejoin:round;stroke-miterlimit:10;stroke-dasharray:none;stroke-opacity:1" d="m 347.26,390.85 2.21,-2.22 -2.21,-2.21 -2.22,2.21 2.22,2.22 z"/>
    <path id="path90" style="fill:#137cb1;fill-opacity:1;fill-rule:nonzero;stroke:none" d="m 382.49,360.26 2.22,-2.22 -2.22,-2.21 -2.21,2.21 2.21,2.22 z"/>
    <path id="path92" style="fill:none;stroke:#137cb1;stroke-width:0.65930998;stroke-linecap:butt;stroke-linejoin:round;stroke-miterlimit:10;stroke-dasharray:none;stroke-opacity:1" d="m 382.49,360.26 2.22,-2.22 -2.22,-2.21 -2.21,2.21 2.21,2.22 z"/>
    <path id="path94" style="fill:#137cb1;fill-opacity:1;fill-rule:nonzero;stroke:none" d="m 417.73,319.22 2.21,-2.21 -2.21,-2.22 -2.22,2.22 2.22,2.21 z"/>
    <path id="path96" style="fill:none;stroke:#137cb1;stroke-width:0.65930998;stroke-linecap:butt;stroke-linejoin:round;stroke-miterlimit:10;stroke-dasharray:none;stroke-opacity:1" d="m 417.73,319.22 2.21,-2.21 -2.21,-2.22 -2.22,2.22 2.22,2.21 z"/>
    <path id="path98" style="fill:#137cb1;fill-opacity:1;fill-rule:nonzero;stroke:none" d="m 452.96,453.82 2.21,-2.21 -2.21,-2.22 -2.22,2.22 2.22,2.21 z"/>
    <path id="path100" style="fill:none;stroke:#137cb1;stroke-width:0.65930998;stroke-linecap:butt;stroke-linejoin:round;stroke-miterlimit:10;stroke-dasharray:none;stroke-opacity:1" d="m 452.96,453.82 2.21,-2.21 -2.21,-2.22 -2.22,2.22 2.22,2.21 z"/>
    <path id="path102" style="fill:#137cb1;fill-opacity:1;fill-rule:nonzero;stroke:none" d="m 488.19,462.79 2.22,-2.21 -2.22,-2.22 -2.21,2.22 2.21,2.21 z"/>
    <path id="path104" style="fill:none;stroke:#137cb1;stroke-width:0.65930998;stroke-linecap:butt;stroke-linejoin:round;stroke-miterlimit:10;stroke-dasharray:none;stroke-opacity:1" d="m 488.19,462.79 2.22,-2.21 -2.22,-2.22 -2.21,2.22 2.21,2.21 z"/>
    <path id="path106" style="fill:#137cb1;fill-opacity:1;fill-rule:nonzero;stroke:none" d="m 523.43,444.75 2.21,-2.21 -2.21,-2.22 -2.22,2.22 2.22,2.21 z"/>
    <path id="path108" style="fill:none;stroke:#137cb1;stroke-width:0.65930998;stroke-linecap:butt;stroke-linejoin:round;stroke-miterlimit:10;stroke-dasharray:none;stroke-opacity:1" d="m 523.43,444.75 2.21,-2.21 -2.21,-2.22 -2.22,2.22 2.22,2.21 z"/>
    <g id="g110">
      <path id="path112" style="fill:none;stroke:#eacc80;stroke-width:1.97790003;stroke-linecap:round;stroke-linejoin:round;stroke-miterlimit:10;stroke-dasharray:5.9338, 7.9117;stroke-dashoffset:0;stroke-opacity:1" d="m 453,458.34 c 8.27,15.96 26.99,0.31 35.26,-6.99 11.76,-10.36 23.51,-36.79 35.27,-55.18"/>
    </g>
    <path id="path114" style="fill:#eacc80;fill-opacity:1;fill-rule:nonzero;stroke:none" d="m 452.96,460.58 2.21,-2.22 -2.21,-2.21 -2.22,2.21 2.22,2.22 z"/>
    <path id="path116" style="fill:none;stroke:#eacc80;stroke-width:0.65930998;stroke-linecap:butt;stroke-linejoin:round;stroke-miterlimit:10;stroke-dasharray:none;stroke-opacity:1" d="m 452.96,460.58 2.21,-2.22 -2.21,-2.21 -2.22,2.21 2.22,2.22 z"/>
    <g id="g118">
      <g clip-path="url(#clipPath122)" id="g120"><text id="text126" style="font-variant:normal;font-weight:normal;font-size:9.6960001px;font-family:Arial;-inkscape-font-specification:Arial;writing-mode:lr-tb;fill:#000000;fill-opacity:1;fill-rule:nonzero;stroke:none" transform="matrix(1,0,0,-1,90.624,386.23)"><tspan id="tspan128" y="0" x="0 5.3759761 10.751952">26%</tspan></text>
</g>
    </g>
    <g id="g130">
      <g clip-path="url(#clipPath134)" id="g132"><text id="text138" style="font-variant:normal;font-weight:normal;font-size:9.6960001px;font-family:Arial;-inkscape-font-specification:Arial;writing-mode:lr-tb;fill:#000000;fill-opacity:1;fill-rule:nonzero;stroke:none" transform="matrix(1,0,0,-1,125.88,357.77)"><tspan id="tspan140" y="0" x="0 5.3999958 10.799992">12%</tspan></text>
</g>
    </g>
    <g id="g142">
      <g clip-path="url(#clipPath146)" id="g144"><text id="text150" style="font-variant:normal;font-weight:normal;font-size:9.6960001px;font-family:Arial;-inkscape-font-specification:Arial;writing-mode:lr-tb;fill:#000000;fill-opacity:1;fill-rule:nonzero;stroke:none" transform="matrix(1,0,0,-1,161.16,374.09)"><tspan id="tspan152" y="0" x="0 5.3759761 10.751952">20%</tspan></text>
</g>
    </g>
    <g id="g154">
      <g clip-path="url(#clipPath158)" id="g156"><text id="text162" style="font-variant:normal;font-weight:normal;font-size:9.6960001px;font-family:Arial;-inkscape-font-specification:Arial;writing-mode:lr-tb;fill:#000000;fill-opacity:1;fill-rule:nonzero;stroke:none" transform="matrix(1,0,0,-1,191.45,374.54)"><tspan id="tspan164" y="0" x="0 5.3999958 10.799992">20%</tspan></text>
</g>
    </g>
    <g id="g166">
      <g clip-path="url(#clipPath170)" id="g168"><text id="text174" style="font-variant:normal;font-weight:normal;font-size:9.6960001px;font-family:Arial;-inkscape-font-specification:Arial;writing-mode:lr-tb;fill:#000000;fill-opacity:1;fill-rule:nonzero;stroke:none" transform="matrix(1,0,0,-1,226.66,423.55)"><tspan id="tspan176" y="0" x="0 5.3999958 10.799992">47%</tspan></text>
</g>
    </g>
    <g id="g178">
      <g clip-path="url(#clipPath182)" id="g180"><text id="text186" style="font-variant:normal;font-weight:normal;font-size:9.6960001px;font-family:Arial;-inkscape-font-specification:Arial;writing-mode:lr-tb;fill:#000000;fill-opacity:1;fill-rule:nonzero;stroke:none" transform="matrix(1,0,0,-1,276.58,327.98)"><tspan id="tspan188" y="0" x="0">-</tspan></text>
</g>
    </g>
    <g id="g190">
      <g clip-path="url(#clipPath194)" id="g192"><text id="text198" style="font-variant:normal;font-weight:normal;font-size:9.6960001px;font-family:Arial;-inkscape-font-specification:Arial;writing-mode:lr-tb;fill:#000000;fill-opacity:1;fill-rule:nonzero;stroke:none" transform="matrix(1,0,0,-1,279.86,327.98)"><tspan id="tspan200" y="0" x="0 5.3759761">2%</tspan></text>
</g>
    </g>
    <g id="g202">
      <g clip-path="url(#clipPath206)" id="g204"><text id="text210" style="font-variant:normal;font-weight:normal;font-size:9.72000027px;font-family:Arial;-inkscape-font-specification:Arial;writing-mode:lr-tb;fill:#000000;fill-opacity:1;fill-rule:nonzero;stroke:none" transform="matrix(1,0,0,-1,306.6,395.02)"><tspan id="tspan212" y="0" x="0 5.37602 10.75204">30%</tspan></text>
</g>
    </g>
    <g id="g214">
      <g clip-path="url(#clipPath218)" id="g216"><text id="text222" style="font-variant:normal;font-weight:normal;font-size:9.72000027px;font-family:Arial;-inkscape-font-specification:Arial;writing-mode:lr-tb;fill:#000000;fill-opacity:1;fill-rule:nonzero;stroke:none" transform="matrix(1,0,0,-1,337.51,396.74)"><tspan id="tspan224" y="0" x="0 5.37602 10.75204">31%</tspan></text>
</g>
    </g>
    <g id="g226">
      <g clip-path="url(#clipPath230)" id="g228"><text id="text234" style="font-variant:normal;font-weight:normal;font-size:9.6960001px;font-family:Arial;-inkscape-font-specification:Arial;writing-mode:lr-tb;fill:#000000;fill-opacity:1;fill-rule:nonzero;stroke:none" transform="matrix(1,0,0,-1,377.11,364.61)"><tspan id="tspan236" y="0" x="0 5.3999958 10.799992">16%</tspan></text>
</g>
    </g>
    <path id="path238" style="fill:#ffffff;fill-opacity:1;fill-rule:evenodd;stroke:none" d="m 422.57,310.03 22.474,0 0,13.758 -22.474,0 0,-13.758 z"/>
    <g id="g240">
      <g clip-path="url(#clipPath244)" id="g242"><text id="text248" style="font-variant:normal;font-weight:normal;font-size:9.6960001px;font-family:Arial;-inkscape-font-specification:Arial;writing-mode:lr-tb;fill:#000000;fill-opacity:1;fill-rule:nonzero;stroke:none" transform="matrix(1,0,0,-1,425.18,313.32)"><tspan id="tspan250" y="0" x="0">-</tspan></text>
</g>
    </g>
    <g id="g252">
      <g clip-path="url(#clipPath256)" id="g254"><text id="text260" style="font-variant:normal;font-weight:normal;font-size:9.6960001px;font-family:Arial;-inkscape-font-specification:Arial;writing-mode:lr-tb;fill:#000000;fill-opacity:1;fill-rule:nonzero;stroke:none" transform="matrix(1,0,0,-1,428.45,313.32)"><tspan id="tspan262" y="0" x="0 5.3759761">4%</tspan></text>
</g>
    </g>
    <g id="g264">
      <g clip-path="url(#clipPath268)" id="g266"><text id="text272" style="font-variant:normal;font-weight:normal;font-size:9.6960001px;font-family:Arial;-inkscape-font-specification:Arial;writing-mode:lr-tb;fill:#000000;fill-opacity:1;fill-rule:nonzero;stroke:none" transform="matrix(1,0,0,-1,443.35,460.1)"><tspan id="tspan274" y="0" x="0 5.3999958 10.799992">62%</tspan></text>
</g>
    </g>
    <path id="path276" style="fill:#ffffff;fill-opacity:1;fill-rule:evenodd;stroke:none" d="m 475.95,465.4 24.632,0 0,13.758 -24.632,0 0,-13.758 z"/>
    <path id="path278" style="fill:none;stroke:#137cb1;stroke-width:0.65930998;stroke-linecap:butt;stroke-linejoin:round;stroke-miterlimit:10;stroke-dasharray:none;stroke-opacity:1" d="m 475.95,465.4 24.632,0 0,13.758 -24.632,0 0,-13.758 z"/>
    <g id="g280">
      <g clip-path="url(#clipPath284)" id="g282"><text id="text288" style="font-variant:normal;font-weight:normal;font-size:9.6960001px;font-family:Arial;-inkscape-font-specification:Arial;writing-mode:lr-tb;fill:#137cb1;fill-opacity:1;fill-rule:nonzero;stroke:none" transform="matrix(1,0,0,-1,478.58,468.72)"><tspan id="tspan290" y="0" x="0 5.3759761 10.751952">66%</tspan></text>
</g>
    </g>
    <path id="path292" style="fill:#ffffff;fill-opacity:1;fill-rule:evenodd;stroke:none" d="m 511.21,447.33 24.632,0 0,13.758 -24.632,0 0,-13.758 z"/>
    <path id="path294" style="fill:none;stroke:#137cb1;stroke-width:0.65930998;stroke-linecap:butt;stroke-linejoin:round;stroke-miterlimit:10;stroke-dasharray:none;stroke-opacity:1" d="m 511.21,447.33 24.632,0 0,13.758 -24.632,0 0,-13.758 z"/>
    <g id="g296">
      <g clip-path="url(#clipPath300)" id="g298"><text id="text304" style="font-variant:normal;font-weight:normal;font-size:9.72000027px;font-family:Arial;-inkscape-font-specification:Arial;writing-mode:lr-tb;fill:#137cb1;fill-opacity:1;fill-rule:nonzero;stroke:none" transform="matrix(1,0,0,-1,513.86,450.65)"><tspan id="tspan306" y="0" x="0 5.37602 10.75204">57%</tspan></text>
</g>
    </g>
    <path id="path308" style="fill:#ffffff;fill-opacity:1;fill-rule:evenodd;stroke:none" d="m 472.06,434.49 24.632,0 0,13.758 -24.632,0 0,-13.758 z"/>
    <path id="path310" style="fill:none;stroke:#eacc80;stroke-width:0.65930998;stroke-linecap:butt;stroke-linejoin:round;stroke-miterlimit:10;stroke-dasharray:none;stroke-opacity:1" d="m 472.06,434.49 24.632,0 0,13.758 -24.632,0 0,-13.758 z"/>
    <g id="g312">
      <g clip-path="url(#clipPath316)" id="g314"><text id="text320" style="font-variant:normal;font-weight:normal;font-size:9.6960001px;font-family:Arial;-inkscape-font-specification:Arial;writing-mode:lr-tb;fill:#eacc80;fill-opacity:1;fill-rule:nonzero;stroke:none" transform="matrix(1,0,0,-1,474.7,437.81)"><tspan id="tspan322" y="0" x="0 5.3759761 10.751952">62%</tspan></text>
</g>
    </g>
    <path id="path324" style="fill:#ffffff;fill-opacity:1;fill-rule:evenodd;stroke:none" d="m 511.21,377.57 24.632,0 0,13.758 -24.632,0 0,-13.758 z"/>
    <path id="path326" style="fill:none;stroke:#eacc80;stroke-width:0.65930998;stroke-linecap:butt;stroke-linejoin:round;stroke-miterlimit:10;stroke-dasharray:none;stroke-opacity:1" d="m 511.21,377.57 24.632,0 0,13.758 -24.632,0 0,-13.758 z"/>
    <g id="g328">
      <g clip-path="url(#clipPath332)" id="g330"><text id="text336" style="font-variant:normal;font-weight:normal;font-size:9.6960001px;font-family:Arial;-inkscape-font-specification:Arial;writing-mode:lr-tb;fill:#eacc80;fill-opacity:1;fill-rule:nonzero;stroke:none" transform="matrix(1,0,0,-1,513.86,380.88)"><tspan id="tspan338" y="0" x="0 5.3759761 10.751952">35%</tspan></text>
</g>
    </g>
    <g id="g340">
      <g clip-path="url(#clipPath344)" id="g342"><text id="text348" style="font-variant:normal;font-weight:normal;font-size:9.6960001px;font-family:Arial;-inkscape-font-specification:Arial;writing-mode:lr-tb;fill:#000000;fill-opacity:1;fill-rule:nonzero;stroke:none" transform="matrix(1,0,0,-1,51.84,301.94)"><tspan id="tspan350" y="0" x="0 3.2772479 8.6682243 14.0592">-10%</tspan></text>
</g>
    </g>
    <g id="g352">
      <g clip-path="url(#clipPath356)" id="g354"><text id="text360" style="font-variant:normal;font-weight:normal;font-size:9.6960001px;font-family:Arial;-inkscape-font-specification:Arial;writing-mode:lr-tb;fill:#000000;fill-opacity:1;fill-rule:nonzero;stroke:none" transform="matrix(1,0,0,-1,60.456,322.34)"><tspan id="tspan362" y="0" x="0 5.3759761">0%</tspan></text>
</g>
    </g>
    <g id="g364">
      <g clip-path="url(#clipPath368)" id="g366"><text id="text372" style="font-variant:normal;font-weight:normal;font-size:9.6960001px;font-family:Arial;-inkscape-font-specification:Arial;writing-mode:lr-tb;fill:#000000;fill-opacity:1;fill-rule:nonzero;stroke:none" transform="matrix(1,0,0,-1,55.08,342.74)"><tspan id="tspan374" y="0" x="0 5.3759761 10.751952">10%</tspan></text>
</g>
    </g>
    <g id="g376">
      <g clip-path="url(#clipPath380)" id="g378"><text id="text384" style="font-variant:normal;font-weight:normal;font-size:9.6960001px;font-family:Arial;-inkscape-font-specification:Arial;writing-mode:lr-tb;fill:#000000;fill-opacity:1;fill-rule:nonzero;stroke:none" transform="matrix(1,0,0,-1,55.08,363.14)"><tspan id="tspan386" y="0" x="0 5.3759761 10.751952">20%</tspan></text>
</g>
    </g>
    <g id="g388">
      <g clip-path="url(#clipPath392)" id="g390"><text id="text396" style="font-variant:normal;font-weight:normal;font-size:9.6960001px;font-family:Arial;-inkscape-font-specification:Arial;writing-mode:lr-tb;fill:#000000;fill-opacity:1;fill-rule:nonzero;stroke:none" transform="matrix(1,0,0,-1,55.08,383.54)"><tspan id="tspan398" y="0" x="0 5.3759761 10.751952">30%</tspan></text>
</g>
    </g>
    <g id="g400">
      <g clip-path="url(#clipPath404)" id="g402"><text id="text408" style="font-variant:normal;font-weight:normal;font-size:9.6960001px;font-family:Arial;-inkscape-font-specification:Arial;writing-mode:lr-tb;fill:#000000;fill-opacity:1;fill-rule:nonzero;stroke:none" transform="matrix(1,0,0,-1,55.08,403.94)"><tspan id="tspan410" y="0" x="0 5.3759761 10.751952">40%</tspan></text>
</g>
    </g>
    <g id="g412">
      <g clip-path="url(#clipPath416)" id="g414"><text id="text420" style="font-variant:normal;font-weight:normal;font-size:9.6960001px;font-family:Arial;-inkscape-font-specification:Arial;writing-mode:lr-tb;fill:#000000;fill-opacity:1;fill-rule:nonzero;stroke:none" transform="matrix(1,0,0,-1,55.08,424.34)"><tspan id="tspan422" y="0" x="0 5.3759761 10.751952">50%</tspan></text>
</g>
    </g>
    <g id="g424">
      <g clip-path="url(#clipPath428)" id="g426"><text id="text432" style="font-variant:normal;font-weight:normal;font-size:9.6960001px;font-family:Arial;-inkscape-font-specification:Arial;writing-mode:lr-tb;fill:#000000;fill-opacity:1;fill-rule:nonzero;stroke:none" transform="matrix(1,0,0,-1,55.08,444.74)"><tspan id="tspan434" y="0" x="0 5.3759761 10.751952">60%</tspan></text>
</g>
    </g>
    <g id="g436">
      <g clip-path="url(#clipPath440)" id="g438"><text id="text444" style="font-variant:normal;font-weight:normal;font-size:9.6960001px;font-family:Arial;-inkscape-font-specification:Arial;writing-mode:lr-tb;fill:#000000;fill-opacity:1;fill-rule:nonzero;stroke:none" transform="matrix(1,0,0,-1,55.08,465.14)"><tspan id="tspan446" y="0" x="0 5.3759761 10.751952">70%</tspan></text>
</g>
    </g>
    <g id="g448">
      <g clip-path="url(#clipPath452)" id="g450"><text id="text456" style="font-variant:normal;font-weight:normal;font-size:9.6960001px;font-family:Arial;-inkscape-font-specification:Arial;writing-mode:lr-tb;fill:#000000;fill-opacity:1;fill-rule:nonzero;stroke:none" transform="matrix(1,0,0,-1,55.08,485.54)"><tspan id="tspan458" y="0" x="0 5.3759761 10.751952">80%</tspan></text>
</g>
    </g>
    <g id="g460">
      <g clip-path="url(#clipPath464)" id="g462"><text id="text468" style="font-variant:normal;font-weight:normal;font-size:9.6960001px;font-family:Arial;-inkscape-font-specification:Arial;writing-mode:lr-tb;fill:#000000;fill-opacity:1;fill-rule:nonzero;stroke:none" transform="matrix(-4.4e-8,1,1,4.4e-8,103.75,277.66)"><tspan id="tspan470" y="0" x="0 5.3999958 10.799992 16.199987">2014</tspan></text>
</g>
    </g>
    <g id="g472">
      <g clip-path="url(#clipPath476)" id="g474"><text id="text480" style="font-variant:normal;font-weight:normal;font-size:9.72000027px;font-family:Arial;-inkscape-font-specification:Arial;writing-mode:lr-tb;fill:#000000;fill-opacity:1;fill-rule:nonzero;stroke:none" transform="matrix(-4.4e-8,1,1,4.4e-8,139.01,277.66)"><tspan id="tspan482" y="0" x="0 5.4000001 10.8 16.200001">2015</tspan></text>
</g>
    </g>
    <g id="g484">
      <g clip-path="url(#clipPath488)" id="g486"><text id="text492" style="font-variant:normal;font-weight:normal;font-size:9.6960001px;font-family:Arial;-inkscape-font-specification:Arial;writing-mode:lr-tb;fill:#000000;fill-opacity:1;fill-rule:nonzero;stroke:none" transform="matrix(-4.4e-8,1,1,4.4e-8,174.29,277.66)"><tspan id="tspan494" y="0" x="0 5.3999958 10.799992 16.199987">2016</tspan></text>
</g>
    </g>
    <g id="g496">
      <g clip-path="url(#clipPath500)" id="g498"><text id="text504" style="font-variant:normal;font-weight:normal;font-size:9.72000027px;font-family:Arial;-inkscape-font-specification:Arial;writing-mode:lr-tb;fill:#000000;fill-opacity:1;fill-rule:nonzero;stroke:none" transform="matrix(-4.4e-8,1,1,4.4e-8,209.54,277.66)"><tspan id="tspan506" y="0" x="0 5.4000001 10.8 16.200001">2017</tspan></text>
</g>
    </g>
    <g id="g508">
      <g clip-path="url(#clipPath512)" id="g510"><text id="text516" style="font-variant:normal;font-weight:normal;font-size:9.6960001px;font-family:Arial;-inkscape-font-specification:Arial;writing-mode:lr-tb;fill:#000000;fill-opacity:1;fill-rule:nonzero;stroke:none" transform="matrix(-4.4e-8,1,1,4.4e-8,244.82,277.66)"><tspan id="tspan518" y="0" x="0 5.3999958 10.799992 16.199987">2018</tspan></text>
</g>
    </g>
    <g id="g520">
      <g clip-path="url(#clipPath524)" id="g522"><text id="text528" style="font-variant:normal;font-weight:normal;font-size:9.72000027px;font-family:Arial;-inkscape-font-specification:Arial;writing-mode:lr-tb;fill:#000000;fill-opacity:1;fill-rule:nonzero;stroke:none" transform="matrix(-4.4e-8,1,1,4.4e-8,280.08,277.66)"><tspan id="tspan530" y="0" x="0 5.4000001 10.8 16.200001">2019</tspan></text>
</g>
    </g>
    <g id="g532">
      <g clip-path="url(#clipPath536)" id="g534"><text id="text540" style="font-variant:normal;font-weight:normal;font-size:9.6960001px;font-family:Arial;-inkscape-font-specification:Arial;writing-mode:lr-tb;fill:#000000;fill-opacity:1;fill-rule:nonzero;stroke:none" transform="matrix(-4.4e-8,1,1,4.4e-8,315.36,277.66)"><tspan id="tspan542" y="0" x="0 5.3999958 10.799992 16.199987">2020</tspan></text>
</g>
    </g>
    <g id="g544">
      <g clip-path="url(#clipPath548)" id="g546"><text id="text552" style="font-variant:normal;font-weight:normal;font-size:9.6960001px;font-family:Arial;-inkscape-font-specification:Arial;writing-mode:lr-tb;fill:#000000;fill-opacity:1;fill-rule:nonzero;stroke:none" transform="matrix(-4.4e-8,1,1,4.4e-8,350.64,277.66)"><tspan id="tspan554" y="0" x="0 5.3999958 10.799992 16.199987">2021</tspan></text>
</g>
    </g>
    <g id="g556">
      <g clip-path="url(#clipPath560)" id="g558"><text id="text564" style="font-variant:normal;font-weight:normal;font-size:9.72000027px;font-family:Arial;-inkscape-font-specification:Arial;writing-mode:lr-tb;fill:#000000;fill-opacity:1;fill-rule:nonzero;stroke:none" transform="matrix(-4.4e-8,1,1,4.4e-8,385.9,277.66)"><tspan id="tspan566" y="0" x="0 5.4000001 10.8 16.200001">2022</tspan></text>
</g>
    </g>
    <g id="g568">
      <g clip-path="url(#clipPath572)" id="g570"><text id="text576" style="font-variant:normal;font-weight:normal;font-size:9.6960001px;font-family:Arial;-inkscape-font-specification:Arial;writing-mode:lr-tb;fill:#000000;fill-opacity:1;fill-rule:nonzero;stroke:none" transform="matrix(-4.4e-8,1,1,4.4e-8,421.18,277.66)"><tspan id="tspan578" y="0" x="0 5.3999958 10.799992 16.199987">2023</tspan></text>
</g>
    </g>
    <g id="g580">
      <g clip-path="url(#clipPath584)" id="g582"><text id="text588" style="font-variant:normal;font-weight:normal;font-size:9.72000027px;font-family:Arial;-inkscape-font-specification:Arial;writing-mode:lr-tb;fill:#000000;fill-opacity:1;fill-rule:nonzero;stroke:none" transform="matrix(-4.4e-8,1,1,4.4e-8,456.43,277.66)"><tspan id="tspan590" y="0" x="0 5.4000001 10.8 16.200001">2024</tspan></text>
</g>
    </g>
    <g id="g592">
      <g clip-path="url(#clipPath596)" id="g594"><text id="text600" style="font-variant:normal;font-weight:normal;font-size:9.6960001px;font-family:Arial;-inkscape-font-specification:Arial;writing-mode:lr-tb;fill:#000000;fill-opacity:1;fill-rule:nonzero;stroke:none" transform="matrix(-4.4e-8,1,1,4.4e-8,491.71,277.66)"><tspan id="tspan602" y="0" x="0 5.3999958 10.799992 16.199987">2025</tspan></text>
</g>
    </g>
    <g id="g604">
      <g clip-path="url(#clipPath608)" id="g606"><text id="text612" style="font-variant:normal;font-weight:normal;font-size:9.72000027px;font-family:Arial;-inkscape-font-specification:Arial;writing-mode:lr-tb;fill:#000000;fill-opacity:1;fill-rule:nonzero;stroke:none" transform="matrix(-4.4e-8,1,1,4.4e-8,526.97,277.66)"><tspan id="tspan614" y="0" x="0 5.4000001 10.8 16.200001">2026</tspan></text>
</g>
    </g>
    <g id="g616">
      <g clip-path="url(#clipPath620)" id="g618"><text id="text624" style="font-variant:normal;font-weight:normal;font-size:11.61600018px;font-family:Arial;-inkscape-font-specification:Arial;writing-mode:lr-tb;fill:#000000;fill-opacity:1;fill-rule:nonzero;stroke:none" transform="matrix(1,0,0,-1,53.376,520.54)"><tspan id="tspan626" y="0" x="0 6.0287042 12.4872 18.887615 21.931007 27.518305 33.976799 37.206047 45.546337 48.067009 54.525505 60.925919 67.384415 70.72982 78.431229 82.334206 88.792702 94.6007 97.098145 103.55664 109.95705 113.86003 119.66803 122.89728 126.12653 134.43196 136.95264 143.41113 149.81155 156.27005 159.61546 167.94412 174.40262 180.80304 187.26154 192.91853 196.14778 203.89565 207.12489 214.64044 217.86969 226.96503 230.868 237.32649 245.41124 248.64047">Top 11 Cloud Providers: Cloud Capex Y/Y Growth</tspan></text>
</g>
    </g>
    <path id="path628" style="fill:none;stroke:#137cb1;stroke-width:1.97790003;stroke-linecap:round;stroke-linejoin:round;stroke-miterlimit:10;stroke-dasharray:none;stroke-opacity:1" d="m 125.98,504.67 22.15,0"/>
    <path id="path630" style="fill:#137cb1;fill-opacity:1;fill-rule:nonzero;stroke:none" d="m 137.02,506.89 2.21,-2.22 -2.21,-2.21 -2.22,2.21 2.22,2.22 z"/>
    <path id="path632" style="fill:none;stroke:#137cb1;stroke-width:0.65930998;stroke-linecap:butt;stroke-linejoin:round;stroke-miterlimit:10;stroke-dasharray:none;stroke-opacity:1" d="m 137.02,506.89 2.21,-2.22 -2.21,-2.21 -2.22,2.21 2.22,2.22 z"/>
    <g id="g634">
      <g clip-path="url(#clipPath638)" id="g636"><text id="text642" style="font-variant:normal;font-weight:normal;font-size:9.6960001px;font-family:Arial;-inkscape-font-specification:Arial;writing-mode:lr-tb;fill:#000000;fill-opacity:1;fill-rule:nonzero;stroke:none" transform="matrix(1,0,0,-1,150.6,501.55)"><tspan id="tspan644" y="0" x="0 6.9617281 12.352704 15.581472 18.771456 24.162432 29.524321 32.248898 34.886208 41.847935 44.048927 49.439903 54.801792 60.192768 62.820385 69.782112 75.173088 80.534973 85.925949 90.773949 93.469437 99.3937 104.78468 107.94556 113.33654 118.18455 123.54643 128.39442">Current Cloud Capex Forecast</tspan></text>
</g>
    </g>
    <g id="g646">
      <path id="path648" style="fill:none;stroke:#eacc80;stroke-width:1.97790003;stroke-linecap:round;stroke-linejoin:round;stroke-miterlimit:10;stroke-dasharray:5.9338, 7.9117;stroke-dashoffset:0;stroke-opacity:1" d="m 347.54,504.67 22.15,0"/>
    </g>
    <g id="g650">
      <g clip-path="url(#clipPath654)" id="g652"><text id="text658" style="font-variant:normal;font-weight:normal;font-size:9.6960001px;font-family:Arial;-inkscape-font-specification:Arial;writing-mode:lr-tb;fill:#000000;fill-opacity:1;fill-rule:nonzero;stroke:none" transform="matrix(1,0,0,-1,372.19,501.55)"><tspan id="tspan660" y="0" x="0 6.4672322 9.7347841 11.848512 17.239489 20.526432 23.163744 30.164255 32.36525 37.756226 43.147202 48.538177 51.233665 58.185696 63.576672 68.967651 74.358627 79.245407 81.999069 87.923325 93.314301 96.494591 101.88557 106.75296 112.14394 117.01133">Prior Cloud Capex Forecast</tspan></text>
</g>
    </g>
  </g>
</svg>
