<?xml version="1.0" encoding="UTF-8" standalone="no"?>
<svg xmlns:dc="http://purl.org/dc/elements/1.1/" xmlns:cc="http://creativecommons.org/ns#" xmlns:rdf="http://www.w3.org/1999/02/22-rdf-syntax-ns#" xmlns:svg="http://www.w3.org/2000/svg" xmlns="http://www.w3.org/2000/svg" viewBox="16.8 15.6 677.1875 164.60862" height="164.60862" width="677.1875" xml:space="preserve" version="1.1" id="svg2">
  <metadata id="metadata8">
    <rdf:RDF>
      <cc:Work rdf:about="">
        <dc:format>image/svg+xml</dc:format>
        <dc:type rdf:resource="http://purl.org/dc/dcmitype/StillImage"/>
      </cc:Work>
    </rdf:RDF>
  </metadata>
  <defs id="defs6">
    <clipPath id="clipPath16" clipPathUnits="userSpaceOnUse">
      <path style="clip-rule:evenodd" id="path18" d="m 13.44,466.3 542.11,0 0,133.22 -542.11,0 0,-133.22 z"/>
    </clipPath>
  </defs>
  <g transform="matrix(1.25,0,0,-1.25,0,765)" id="g10">
    <g id="g12">
      <g clip-path="url(#clipPath16)" id="g14"><path id="path20" style="fill:#4472c4;fill-opacity:1;fill-rule:evenodd;stroke:none" d="m 12.96,586.56 542.23,0 0,13.44 -542.23,0 0,-13.44 z"/><text id="text22" style="font-variant:normal;font-weight:bold;font-size:9.96000004px;font-family:Arial;-inkscape-font-specification:'Arial Bold';writing-mode:lr-tb;fill:#ffffff;fill-opacity:1;fill-rule:nonzero;stroke:none" transform="matrix(1,0,0,-1,60,589.68)"><tspan id="tspan24" y="0" x="0 6.6034799 12.14124 17.63916 20.98572 27.0912">Sector</tspan></text>
<text id="text26" style="font-variant:normal;font-weight:bold;font-size:9.96000004px;font-family:Arial;-inkscape-font-specification:'Arial Bold';writing-mode:lr-tb;fill:#ffffff;fill-opacity:1;fill-rule:nonzero;stroke:none" transform="matrix(1,0,0,-1,291.62,589.68)"><tspan id="tspan28" y="0" x="0 6.6034799 12.14124 17.63916 20.98572 27.0912 30.93576 33.704639 40.298161 46.403641 51.941399 57.43932 60.208199 63.5448 66.313683 71.85144 74.580482 83.086319 88.624077 91.940758 95.815201 98.584084 104.082">Sector Specific Metrics</tspan></text>
<text id="text30" style="font-variant:normal;font-weight:normal;font-size:9.96000004px;font-family:Arial;-inkscape-font-specification:Arial;writing-mode:lr-tb;fill:#000000;fill-opacity:1;fill-rule:nonzero;stroke:none" transform="matrix(1,0,0,-1,14.88,576.48)"><tspan id="tspan32" y="0" x="0 7.1911201 12.72888 21.23472 29.740561 35.27832 40.776241 42.937561 47.967361 53.505119 56.273998 58.405441 63.943199 69.441116 72.209999 78.80352 84.341278 87.657959 92.608078 94.769402 99.799202 105.33696">Communication Services</tspan></text>
<text id="text34" style="font-variant:normal;font-weight:normal;font-size:9.96000004px;font-family:Arial;-inkscape-font-specification:Arial;writing-mode:lr-tb;fill:#000000;fill-opacity:1;fill-rule:nonzero;stroke:none" transform="matrix(1,0,0,-1,141.74888,576.48)"><tspan id="tspan36" y="0" x="0 7.1911201 13.7946 20.398081 23.16696 30.35808 35.89584 38.664719 44.16264 46.931519 52.67844 55.447319 60.118561 62.88744 67.558678 70.32756 75.347397 80.885162 86.38308 91.920837 97.418762 102.95652 105.7254 107.85684 113.3946 116.16348 123.3546 128.85252 133.53372 138.56352 141.3324 147.92592 153.46368 155.60509 161.14284 166.15273 168.9216 176.70036 182.23811 185.007">D&amp;A Rate + y/y change in Days Sales Out </tspan></text>
<text id="text38" style="font-variant:normal;font-weight:normal;font-size:9.96000004px;font-family:Arial;-inkscape-font-specification:Arial;writing-mode:lr-tb;fill:#000000;fill-opacity:1;fill-rule:nonzero;stroke:none" transform="matrix(1,0,0,-1,14.88,563.14)"><tspan id="tspan40" y="0" x="0 7.1911201 12.72888 18.26664 23.26656 28.804319 37.300201 42.837959 46.15464 48.923519 56.114639 58.32576 63.32568 68.355476 71.702042 77.239799 80.008682 82.140121 87.677879 93.175797 98.713562 102.03024">Consumer Discretionary</tspan></text>
<text id="text42" style="font-variant:normal;font-weight:normal;font-size:9.96000004px;font-family:Arial;-inkscape-font-specification:Arial;writing-mode:lr-tb;fill:#000000;fill-opacity:1;fill-rule:nonzero;stroke:none" transform="matrix(1,0,0,-1,141.74888,563.14)"><tspan id="tspan44" y="0" x="0 7.1911201 12.72888 17.73876 23.27652 26.045401 33.236519 38.73444 44.272202 49.17252 54.710281 58.026958 63.086639 65.247963 70.785721 76.283638 79.052521 86.243637 91.781403 94.550278 96.681717 102.21948 104.98836 110.72532 113.4942 120.08772 122.24904 127.7868 133.28471 138.82248 141.59135 148.78249 154.2804 157.04929 159.20064 164.7384">Cash Conversion Ratio + Sloan Ratio </tspan></text>
<text id="text46" style="font-variant:normal;font-weight:normal;font-size:9.96000004px;font-family:Arial;-inkscape-font-specification:Arial;writing-mode:lr-tb;fill:#000000;fill-opacity:1;fill-rule:nonzero;stroke:none" transform="matrix(1,0,0,-1,14.88,549.82)"><tspan id="tspan48" y="0" x="0 7.1911201 12.72888 18.26664 23.26656 28.804319 37.300201 42.837959 46.15464 48.923519 55.566841 58.295879 63.833641 69.331558 71.492882 77.03064">Consumer Staples</tspan></text>
<text id="text50" style="font-variant:normal;font-weight:normal;font-size:9.96000004px;font-family:Arial;-inkscape-font-specification:Arial;writing-mode:lr-tb;fill:#000000;fill-opacity:1;fill-rule:nonzero;stroke:none" transform="matrix(1,0,0,-1,141.74888,549.82)"><tspan id="tspan52" y="0" x="0 7.1911201 12.72888 17.73876 23.27652 26.045401 33.236519 38.73444 44.272202 49.17252 54.710281 58.026958 63.086639 65.247963 70.785721 76.283638 79.052521 86.243637 91.781403 94.550278 96.681717 102.21948 104.98836 110.72532 113.4942 120.08772 125.11752 130.14732 133.49388 139.03165 144.52956 146.69089">Cash Conversion Ratio + Accruals</tspan></text>
<text id="text54" style="font-variant:normal;font-weight:normal;font-size:9.96000004px;font-family:Arial;-inkscape-font-specification:Arial;writing-mode:lr-tb;fill:#000000;fill-opacity:1;fill-rule:nonzero;stroke:none" transform="matrix(1,0,0,-1,14.88,536.5)"><tspan id="tspan56" y="0" x="0 6.6034799 12.14124 17.63916 20.98572 26.523479">Energy</tspan></text>
<text id="text58" style="font-variant:normal;font-weight:normal;font-size:9.96000004px;font-family:Arial;-inkscape-font-specification:Arial;writing-mode:lr-tb;fill:#000000;fill-opacity:1;fill-rule:nonzero;stroke:none" transform="matrix(1,0,0,-1,141.74888,536.5)"><tspan id="tspan60" y="0" x="0 6.5935202 8.7548399 14.2926 19.79052 25.328279 28.09716 35.28828 40.786201 43.55508 45.70644 51.244202 54.013081 59.750038 62.518921 67.190163 69.959038 74.63028 77.399162 82.418999 87.956757 93.454681 98.992439 104.49036 110.02812 112.797 114.92844 120.4662 123.23508 130.42619 135.92412 140.95392 146.49168 149.26056 156.45168 161.9496 167.48737 172.38768 177.92545 181.24213 186.3018 188.46312 194.00089 199.49879 202.26768 209.4588 214.14 219.1698 221.33112">Sloan Ratio + y/y change in Cash Conversion Cycle</tspan></text>
<text id="text62" style="font-variant:normal;font-weight:normal;font-size:9.96000004px;font-family:Arial;-inkscape-font-specification:Arial;writing-mode:lr-tb;fill:#000000;fill-opacity:1;fill-rule:nonzero;stroke:none" transform="matrix(1,0,0,-1,14.88,523.18)"><tspan id="tspan64" y="0" x="0 7.1911201 12.72888 18.26664 20.398081 23.16696 28.70472 31.43376 38.624882 44.16264 47.499241">Health Care</tspan></text>
<text id="text66" style="font-variant:normal;font-weight:normal;font-size:9.96000004px;font-family:Arial;-inkscape-font-specification:Arial;writing-mode:lr-tb;fill:#000000;fill-opacity:1;fill-rule:nonzero;stroke:none" transform="matrix(1,0,0,-1,141.74888,523.18)"><tspan id="tspan68" y="0" x="0 6.5935202 8.7548399 14.2926 19.79052 25.328279 28.09716 35.28828 40.786201 43.55508 45.70644 51.244202 54.013081 59.750038 62.518921 67.190163 69.959038 74.63028 77.399162 82.418999 87.956757 93.454681 98.992439 104.49036 110.02812 112.797 114.92844 120.4662 123.23508 130.42619 135.92412 140.95392 146.49168 149.26056 156.45168 161.9496 167.48737 172.38768 177.92545 181.24213 186.3018 188.46312 194.00089 199.49879 202.26768 209.4588 214.99657 217.76544 219.89688 225.43465">Sloan Ratio + y/y change in Cash Conversion Ratio </tspan></text>
<text id="text70" style="font-variant:normal;font-weight:normal;font-size:9.96000004px;font-family:Arial;-inkscape-font-specification:Arial;writing-mode:lr-tb;fill:#000000;fill-opacity:1;fill-rule:nonzero;stroke:none" transform="matrix(1,0,0,-1,14.88,509.86)"><tspan id="tspan72" y="0" x="0 2.7688799 8.3066397 13.80456 19.342319 24.3522 27.12108 30.45768 32.618999 38.156761 40.298161">Industrials</tspan></text>
<text id="text74" style="font-variant:normal;font-weight:normal;font-size:9.96000004px;font-family:Arial;-inkscape-font-specification:Arial;writing-mode:lr-tb;fill:#000000;fill-opacity:1;fill-rule:nonzero;stroke:none" transform="matrix(1,0,0,-1,141.74888,509.86)"><tspan id="tspan76" y="0" x="0 4.6712399 7.4401202 12.11136 14.88024 19.90008 25.43784 30.93576 36.473518 41.971439 47.509201 50.27808 52.409519 57.947281 60.71616 67.90728 74.490837 81.094322 83.863197 87.199799 92.737556 95.506439 101.00436 103.77324 109.52016 112.28904 118.88256 121.04388 126.58164 132.07956 137.61732 140.3862 147.57732 153.07524 155.84412 157.99548 163.53323">y/y change in D&amp;A rate + Sloan Ratio </tspan></text>
<text id="text78" style="font-variant:normal;font-weight:normal;font-size:9.96000004px;font-family:Arial;-inkscape-font-specification:Arial;writing-mode:lr-tb;fill:#000000;fill-opacity:1;fill-rule:nonzero;stroke:none" transform="matrix(1,0,0,-1,14.88,496.54)"><tspan id="tspan80" y="0" x="0 2.7688799 8.3066397 11.14524 16.683001 19.99968 28.5354 34.073158 36.842041 38.97348 44.511238 50.009159 52.778042 59.00304 64.540802 69.550682 75.08844 80.586357 86.124123 88.265518 93.803284 99.301201">Information Technology</tspan></text>
<text id="text82" style="font-variant:normal;font-weight:normal;font-size:9.96000004px;font-family:Arial;-inkscape-font-specification:Arial;writing-mode:lr-tb;fill:#000000;fill-opacity:1;fill-rule:nonzero;stroke:none" transform="matrix(1,0,0,-1,141.74888,496.54)"><tspan id="tspan84" y="0" x="0 7.1911201 13.7946 20.398081 23.16696 30.35808 35.89584 38.664719 44.16264 46.931519 52.67844 55.447319 62.638439 68.176201 73.186081 78.723839 81.492722 88.683838 94.181763 99.719521 104.61984 110.1576 113.47428 118.53396 120.69528 126.23304 131.73096 134.49985 141.69096 147.22871 149.9976 152.12904 157.66679">D&amp;A Rate + Cash Conversion Ratio </tspan></text>
<text id="text86" style="font-variant:normal;font-weight:normal;font-size:9.96000004px;font-family:Arial;-inkscape-font-specification:Arial;writing-mode:lr-tb;fill:#000000;fill-opacity:1;fill-rule:nonzero;stroke:none" transform="matrix(1,0,0,-1,14.88,483.22)"><tspan id="tspan88" y="0" x="0 8.2966805 13.80456 16.573441 22.1112 25.427879 27.609119 33.146881 35.28828">Materials</tspan></text>
<text id="text90" style="font-variant:normal;font-weight:normal;font-size:9.96000004px;font-family:Arial;-inkscape-font-specification:Arial;writing-mode:lr-tb;fill:#000000;fill-opacity:1;fill-rule:nonzero;stroke:none" transform="matrix(1,0,0,-1,141.74888,483.22)"><tspan id="tspan92" y="0" x="0 6.5935202 11.62332 16.65312 19.99968 25.537439 31.03536 33.196678 38.226479 40.995361 46.742279 49.511162 56.702278 62.24004 67.249924 72.787682 75.556557 82.747681 88.245598 93.783363 98.683678 104.22144 107.53812 112.5978 114.75912 120.29688 125.7948 128.56367 135.75481 141.29256 144.06145 146.19289 151.73064">Accruals + Cash Conversion Ratio </tspan></text>
<text id="text94" style="font-variant:normal;font-weight:normal;font-size:9.96000004px;font-family:Arial;-inkscape-font-specification:Arial;writing-mode:lr-tb;fill:#000000;fill-opacity:1;fill-rule:nonzero;stroke:none" transform="matrix(1,0,0,-1,14.88,469.9)"><tspan id="tspan96" y="0" x="0 7.1911201 9.96 12.12132 14.28264 16.44396 19.212839 21.364201 26.90196">Utilities</tspan></text>
<text id="text98" style="font-variant:normal;font-weight:normal;font-size:9.96000004px;font-family:Arial;-inkscape-font-specification:Arial;writing-mode:lr-tb;fill:#000000;fill-opacity:1;fill-rule:nonzero;stroke:none" transform="matrix(1,0,0,-1,141.74888,469.9)"><tspan id="tspan100" y="0" x="0 6.5935202 11.62332 16.65312 19.99968 25.537439 31.03536 33.196678 38.226479 40.995361 46.742279 49.511162 54.1824 56.951279 61.62252 64.391403 69.41124 74.948997 80.446922 85.98468 91.482597 97.020363 99.789238 101.92068 107.45844 110.22732 117.41844 124.002 130.60548 133.37436 140.56548 146.10324 148.87212">Accruals + y/y change in D&amp;A Rate</tspan></text>
</g>
    </g>
  </g>
</svg>
