<?xml version="1.0" encoding="UTF-8" standalone="no"?>
<svg xmlns:dc="http://purl.org/dc/elements/1.1/" xmlns:cc="http://creativecommons.org/ns#" xmlns:rdf="http://www.w3.org/1999/02/22-rdf-syntax-ns#" xmlns:svg="http://www.w3.org/2000/svg" xmlns="http://www.w3.org/2000/svg" viewBox="17.12125 16 1220.425 169.67562" height="169.67562" width="1220.425" xml:space="preserve" version="1.1" id="svg2">
  <metadata id="metadata8">
    <rdf:RDF>
      <cc:Work rdf:about="">
        <dc:format>image/svg+xml</dc:format>
        <dc:type rdf:resource="http://purl.org/dc/dcmitype/StillImage"/>
      </cc:Work>
    </rdf:RDF>
  </metadata>
  <defs id="defs6">
    <clipPath id="clipPath16" clipPathUnits="userSpaceOnUse">
      <path style="clip-rule:evenodd" id="path18" d="m 13.697,467.98 976.34,0 0,137.48 -976.34,0 0,-137.48 z"/>
    </clipPath>
    <clipPath id="clipPath26" clipPathUnits="userSpaceOnUse">
      <path style="clip-rule:evenodd" id="path28" d="m 13.697,591.15 976.34,0 0,14.303 -976.34,0 0,-14.303 z"/>
    </clipPath>
    <clipPath id="clipPath38" clipPathUnits="userSpaceOnUse">
      <path style="clip-rule:evenodd" id="path40" d="m 13.697,591.15 976.34,0 0,14.303 -976.34,0 0,-14.303 z"/>
    </clipPath>
    <clipPath id="clipPath50" clipPathUnits="userSpaceOnUse">
      <path style="clip-rule:evenodd" id="path52" d="m 13.697,591.15 976.34,0 0,14.303 -976.34,0 0,-14.303 z"/>
    </clipPath>
    <clipPath id="clipPath62" clipPathUnits="userSpaceOnUse">
      <path style="clip-rule:evenodd" id="path64" d="m 13.697,591.15 976.34,0 0,14.303 -976.34,0 0,-14.303 z"/>
    </clipPath>
    <clipPath id="clipPath74" clipPathUnits="userSpaceOnUse">
      <path style="clip-rule:evenodd" id="path76" d="m 13.697,591.15 976.34,0 0,14.303 -976.34,0 0,-14.303 z"/>
    </clipPath>
    <clipPath id="clipPath86" clipPathUnits="userSpaceOnUse">
      <path style="clip-rule:evenodd" id="path88" d="m 13.697,591.15 976.34,0 0,14.303 -976.34,0 0,-14.303 z"/>
    </clipPath>
    <clipPath id="clipPath98" clipPathUnits="userSpaceOnUse">
      <path style="clip-rule:evenodd" id="path100" d="m 13.697,591.15 976.34,0 0,14.303 -976.34,0 0,-14.303 z"/>
    </clipPath>
    <clipPath id="clipPath110" clipPathUnits="userSpaceOnUse">
      <path style="clip-rule:evenodd" id="path112" d="m 13.697,591.15 976.34,0 0,14.303 -976.34,0 0,-14.303 z"/>
    </clipPath>
    <clipPath id="clipPath122" clipPathUnits="userSpaceOnUse">
      <path style="clip-rule:evenodd" id="path124" d="m 13.697,575.88 976.34,0 0,14.303 -976.34,0 0,-14.303 z"/>
    </clipPath>
    <clipPath id="clipPath134" clipPathUnits="userSpaceOnUse">
      <path style="clip-rule:evenodd" id="path136" d="m 13.697,575.88 976.34,0 0,14.303 -976.34,0 0,-14.303 z"/>
    </clipPath>
    <clipPath id="clipPath146" clipPathUnits="userSpaceOnUse">
      <path style="clip-rule:evenodd" id="path148" d="m 13.697,575.88 976.34,0 0,14.303 -976.34,0 0,-14.303 z"/>
    </clipPath>
    <clipPath id="clipPath158" clipPathUnits="userSpaceOnUse">
      <path style="clip-rule:evenodd" id="path160" d="m 13.697,575.88 976.34,0 0,14.303 -976.34,0 0,-14.303 z"/>
    </clipPath>
    <clipPath id="clipPath170" clipPathUnits="userSpaceOnUse">
      <path style="clip-rule:evenodd" id="path172" d="m 13.697,575.88 976.34,0 0,14.303 -976.34,0 0,-14.303 z"/>
    </clipPath>
    <clipPath id="clipPath182" clipPathUnits="userSpaceOnUse">
      <path style="clip-rule:evenodd" id="path184" d="m 13.697,575.88 976.34,0 0,14.303 -976.34,0 0,-14.303 z"/>
    </clipPath>
    <clipPath id="clipPath194" clipPathUnits="userSpaceOnUse">
      <path style="clip-rule:evenodd" id="path196" d="m 13.697,575.88 976.34,0 0,14.303 -976.34,0 0,-14.303 z"/>
    </clipPath>
    <clipPath id="clipPath206" clipPathUnits="userSpaceOnUse">
      <path style="clip-rule:evenodd" id="path208" d="m 13.697,575.88 976.34,0 0,14.303 -976.34,0 0,-14.303 z"/>
    </clipPath>
    <clipPath id="clipPath218" clipPathUnits="userSpaceOnUse">
      <path style="clip-rule:evenodd" id="path220" d="m 13.697,560.61 976.34,0 0,14.303 -976.34,0 0,-14.303 z"/>
    </clipPath>
    <clipPath id="clipPath230" clipPathUnits="userSpaceOnUse">
      <path style="clip-rule:evenodd" id="path232" d="m 13.697,560.61 976.34,0 0,14.303 -976.34,0 0,-14.303 z"/>
    </clipPath>
    <clipPath id="clipPath242" clipPathUnits="userSpaceOnUse">
      <path style="clip-rule:evenodd" id="path244" d="m 13.697,560.61 976.34,0 0,14.303 -976.34,0 0,-14.303 z"/>
    </clipPath>
    <clipPath id="clipPath254" clipPathUnits="userSpaceOnUse">
      <path style="clip-rule:evenodd" id="path256" d="m 13.697,560.61 976.34,0 0,14.303 -976.34,0 0,-14.303 z"/>
    </clipPath>
    <clipPath id="clipPath266" clipPathUnits="userSpaceOnUse">
      <path style="clip-rule:evenodd" id="path268" d="m 13.697,560.61 976.34,0 0,14.303 -976.34,0 0,-14.303 z"/>
    </clipPath>
    <clipPath id="clipPath278" clipPathUnits="userSpaceOnUse">
      <path style="clip-rule:evenodd" id="path280" d="m 13.697,560.61 976.34,0 0,14.303 -976.34,0 0,-14.303 z"/>
    </clipPath>
    <clipPath id="clipPath290" clipPathUnits="userSpaceOnUse">
      <path style="clip-rule:evenodd" id="path292" d="m 13.697,560.61 976.34,0 0,14.303 -976.34,0 0,-14.303 z"/>
    </clipPath>
    <clipPath id="clipPath302" clipPathUnits="userSpaceOnUse">
      <path style="clip-rule:evenodd" id="path304" d="m 13.697,560.61 976.34,0 0,14.303 -976.34,0 0,-14.303 z"/>
    </clipPath>
    <clipPath id="clipPath314" clipPathUnits="userSpaceOnUse">
      <path style="clip-rule:evenodd" id="path316" d="m 13.697,545.33 976.34,0 0,14.303 -976.34,0 0,-14.303 z"/>
    </clipPath>
    <clipPath id="clipPath326" clipPathUnits="userSpaceOnUse">
      <path style="clip-rule:evenodd" id="path328" d="m 13.697,545.33 976.34,0 0,14.303 -976.34,0 0,-14.303 z"/>
    </clipPath>
    <clipPath id="clipPath338" clipPathUnits="userSpaceOnUse">
      <path style="clip-rule:evenodd" id="path340" d="m 13.697,545.33 976.34,0 0,14.303 -976.34,0 0,-14.303 z"/>
    </clipPath>
    <clipPath id="clipPath350" clipPathUnits="userSpaceOnUse">
      <path style="clip-rule:evenodd" id="path352" d="m 13.697,545.33 976.34,0 0,14.303 -976.34,0 0,-14.303 z"/>
    </clipPath>
    <clipPath id="clipPath362" clipPathUnits="userSpaceOnUse">
      <path style="clip-rule:evenodd" id="path364" d="m 13.697,545.33 976.34,0 0,14.303 -976.34,0 0,-14.303 z"/>
    </clipPath>
    <clipPath id="clipPath374" clipPathUnits="userSpaceOnUse">
      <path style="clip-rule:evenodd" id="path376" d="m 13.697,545.33 976.34,0 0,14.303 -976.34,0 0,-14.303 z"/>
    </clipPath>
    <clipPath id="clipPath386" clipPathUnits="userSpaceOnUse">
      <path style="clip-rule:evenodd" id="path388" d="m 13.697,545.33 976.34,0 0,14.303 -976.34,0 0,-14.303 z"/>
    </clipPath>
    <clipPath id="clipPath398" clipPathUnits="userSpaceOnUse">
      <path style="clip-rule:evenodd" id="path400" d="m 13.697,545.33 976.34,0 0,14.303 -976.34,0 0,-14.303 z"/>
    </clipPath>
    <clipPath id="clipPath410" clipPathUnits="userSpaceOnUse">
      <path style="clip-rule:evenodd" id="path412" d="m 13.697,530.04 976.34,0 0,14.327 -976.34,0 0,-14.327 z"/>
    </clipPath>
    <clipPath id="clipPath422" clipPathUnits="userSpaceOnUse">
      <path style="clip-rule:evenodd" id="path424" d="m 13.697,530.04 976.34,0 0,14.327 -976.34,0 0,-14.327 z"/>
    </clipPath>
    <clipPath id="clipPath434" clipPathUnits="userSpaceOnUse">
      <path style="clip-rule:evenodd" id="path436" d="m 13.697,530.04 976.34,0 0,14.327 -976.34,0 0,-14.327 z"/>
    </clipPath>
    <clipPath id="clipPath446" clipPathUnits="userSpaceOnUse">
      <path style="clip-rule:evenodd" id="path448" d="m 13.697,530.04 976.34,0 0,14.327 -976.34,0 0,-14.327 z"/>
    </clipPath>
    <clipPath id="clipPath458" clipPathUnits="userSpaceOnUse">
      <path style="clip-rule:evenodd" id="path460" d="m 13.697,530.04 976.34,0 0,14.327 -976.34,0 0,-14.327 z"/>
    </clipPath>
    <clipPath id="clipPath470" clipPathUnits="userSpaceOnUse">
      <path style="clip-rule:evenodd" id="path472" d="m 13.697,530.04 976.34,0 0,14.327 -976.34,0 0,-14.327 z"/>
    </clipPath>
    <clipPath id="clipPath482" clipPathUnits="userSpaceOnUse">
      <path style="clip-rule:evenodd" id="path484" d="m 13.697,530.04 976.34,0 0,14.327 -976.34,0 0,-14.327 z"/>
    </clipPath>
    <clipPath id="clipPath494" clipPathUnits="userSpaceOnUse">
      <path style="clip-rule:evenodd" id="path496" d="m 13.697,530.04 976.34,0 0,14.327 -976.34,0 0,-14.327 z"/>
    </clipPath>
    <clipPath id="clipPath506" clipPathUnits="userSpaceOnUse">
      <path style="clip-rule:evenodd" id="path508" d="m 13.697,514.76 976.34,0 0,14.303 -976.34,0 0,-14.303 z"/>
    </clipPath>
    <clipPath id="clipPath518" clipPathUnits="userSpaceOnUse">
      <path style="clip-rule:evenodd" id="path520" d="m 13.697,514.76 976.34,0 0,14.303 -976.34,0 0,-14.303 z"/>
    </clipPath>
    <clipPath id="clipPath530" clipPathUnits="userSpaceOnUse">
      <path style="clip-rule:evenodd" id="path532" d="m 13.697,514.76 976.34,0 0,14.303 -976.34,0 0,-14.303 z"/>
    </clipPath>
    <clipPath id="clipPath542" clipPathUnits="userSpaceOnUse">
      <path style="clip-rule:evenodd" id="path544" d="m 13.697,514.76 976.34,0 0,14.303 -976.34,0 0,-14.303 z"/>
    </clipPath>
    <clipPath id="clipPath554" clipPathUnits="userSpaceOnUse">
      <path style="clip-rule:evenodd" id="path556" d="m 13.697,514.76 976.34,0 0,14.303 -976.34,0 0,-14.303 z"/>
    </clipPath>
    <clipPath id="clipPath566" clipPathUnits="userSpaceOnUse">
      <path style="clip-rule:evenodd" id="path568" d="m 13.697,514.76 976.34,0 0,14.303 -976.34,0 0,-14.303 z"/>
    </clipPath>
    <clipPath id="clipPath578" clipPathUnits="userSpaceOnUse">
      <path style="clip-rule:evenodd" id="path580" d="m 13.697,514.76 976.34,0 0,14.303 -976.34,0 0,-14.303 z"/>
    </clipPath>
    <clipPath id="clipPath590" clipPathUnits="userSpaceOnUse">
      <path style="clip-rule:evenodd" id="path592" d="m 13.697,514.76 976.34,0 0,14.303 -976.34,0 0,-14.303 z"/>
    </clipPath>
    <clipPath id="clipPath602" clipPathUnits="userSpaceOnUse">
      <path style="clip-rule:evenodd" id="path604" d="m 13.697,499.49 976.34,0 0,14.303 -976.34,0 0,-14.303 z"/>
    </clipPath>
    <clipPath id="clipPath614" clipPathUnits="userSpaceOnUse">
      <path style="clip-rule:evenodd" id="path616" d="m 13.697,499.49 976.34,0 0,14.303 -976.34,0 0,-14.303 z"/>
    </clipPath>
    <clipPath id="clipPath626" clipPathUnits="userSpaceOnUse">
      <path style="clip-rule:evenodd" id="path628" d="m 13.697,499.49 976.34,0 0,14.303 -976.34,0 0,-14.303 z"/>
    </clipPath>
    <clipPath id="clipPath638" clipPathUnits="userSpaceOnUse">
      <path style="clip-rule:evenodd" id="path640" d="m 13.697,499.49 976.34,0 0,14.303 -976.34,0 0,-14.303 z"/>
    </clipPath>
    <clipPath id="clipPath650" clipPathUnits="userSpaceOnUse">
      <path style="clip-rule:evenodd" id="path652" d="m 13.697,499.49 976.34,0 0,14.303 -976.34,0 0,-14.303 z"/>
    </clipPath>
    <clipPath id="clipPath662" clipPathUnits="userSpaceOnUse">
      <path style="clip-rule:evenodd" id="path664" d="m 13.697,499.49 976.34,0 0,14.303 -976.34,0 0,-14.303 z"/>
    </clipPath>
    <clipPath id="clipPath674" clipPathUnits="userSpaceOnUse">
      <path style="clip-rule:evenodd" id="path676" d="m 13.697,499.49 976.34,0 0,14.303 -976.34,0 0,-14.303 z"/>
    </clipPath>
    <clipPath id="clipPath686" clipPathUnits="userSpaceOnUse">
      <path style="clip-rule:evenodd" id="path688" d="m 13.697,499.49 976.34,0 0,14.303 -976.34,0 0,-14.303 z"/>
    </clipPath>
    <clipPath id="clipPath698" clipPathUnits="userSpaceOnUse">
      <path style="clip-rule:evenodd" id="path700" d="m 13.697,484.22 976.34,0 0,14.303 -976.34,0 0,-14.303 z"/>
    </clipPath>
    <clipPath id="clipPath710" clipPathUnits="userSpaceOnUse">
      <path style="clip-rule:evenodd" id="path712" d="m 13.697,484.22 976.34,0 0,14.303 -976.34,0 0,-14.303 z"/>
    </clipPath>
    <clipPath id="clipPath722" clipPathUnits="userSpaceOnUse">
      <path style="clip-rule:evenodd" id="path724" d="m 13.697,484.22 976.34,0 0,14.303 -976.34,0 0,-14.303 z"/>
    </clipPath>
    <clipPath id="clipPath734" clipPathUnits="userSpaceOnUse">
      <path style="clip-rule:evenodd" id="path736" d="m 13.697,484.22 976.34,0 0,14.303 -976.34,0 0,-14.303 z"/>
    </clipPath>
    <clipPath id="clipPath746" clipPathUnits="userSpaceOnUse">
      <path style="clip-rule:evenodd" id="path748" d="m 13.697,484.22 976.34,0 0,14.303 -976.34,0 0,-14.303 z"/>
    </clipPath>
    <clipPath id="clipPath758" clipPathUnits="userSpaceOnUse">
      <path style="clip-rule:evenodd" id="path760" d="m 13.697,484.22 976.34,0 0,14.303 -976.34,0 0,-14.303 z"/>
    </clipPath>
    <clipPath id="clipPath770" clipPathUnits="userSpaceOnUse">
      <path style="clip-rule:evenodd" id="path772" d="m 13.697,484.22 976.34,0 0,14.303 -976.34,0 0,-14.303 z"/>
    </clipPath>
    <clipPath id="clipPath782" clipPathUnits="userSpaceOnUse">
      <path style="clip-rule:evenodd" id="path784" d="m 13.697,484.22 976.34,0 0,14.303 -976.34,0 0,-14.303 z"/>
    </clipPath>
    <clipPath id="clipPath794" clipPathUnits="userSpaceOnUse">
      <path style="clip-rule:evenodd" id="path796" d="m 13.697,468.95 976.34,0 0,14.303 -976.34,0 0,-14.303 z"/>
    </clipPath>
    <clipPath id="clipPath806" clipPathUnits="userSpaceOnUse">
      <path style="clip-rule:evenodd" id="path808" d="m 13.697,468.95 976.34,0 0,14.303 -976.34,0 0,-14.303 z"/>
    </clipPath>
    <clipPath id="clipPath818" clipPathUnits="userSpaceOnUse">
      <path style="clip-rule:evenodd" id="path820" d="m 13.697,468.95 976.34,0 0,14.303 -976.34,0 0,-14.303 z"/>
    </clipPath>
    <clipPath id="clipPath830" clipPathUnits="userSpaceOnUse">
      <path style="clip-rule:evenodd" id="path832" d="m 13.697,468.95 976.34,0 0,14.303 -976.34,0 0,-14.303 z"/>
    </clipPath>
    <clipPath id="clipPath842" clipPathUnits="userSpaceOnUse">
      <path style="clip-rule:evenodd" id="path844" d="m 13.697,468.95 976.34,0 0,14.303 -976.34,0 0,-14.303 z"/>
    </clipPath>
    <clipPath id="clipPath854" clipPathUnits="userSpaceOnUse">
      <path style="clip-rule:evenodd" id="path856" d="m 13.697,468.95 976.34,0 0,14.303 -976.34,0 0,-14.303 z"/>
    </clipPath>
    <clipPath id="clipPath866" clipPathUnits="userSpaceOnUse">
      <path style="clip-rule:evenodd" id="path868" d="m 13.697,468.95 976.34,0 0,14.303 -976.34,0 0,-14.303 z"/>
    </clipPath>
    <clipPath id="clipPath878" clipPathUnits="userSpaceOnUse">
      <path style="clip-rule:evenodd" id="path880" d="m 13.697,468.95 976.34,0 0,14.303 -976.34,0 0,-14.303 z"/>
    </clipPath>
  </defs>
  <g transform="matrix(1.25,0,0,-1.25,0,772.725)" id="g10">
    <g id="g12">
      <g clip-path="url(#clipPath16)" id="g14">
        <path id="path20" style="fill:#156082;fill-opacity:1;fill-rule:evenodd;stroke:none" d="m 13.212,590.55 976.46,0 0,15.394 -976.46,0 0,-15.394 z"/>
      </g>
    </g>
    <g id="g22">
      <g clip-path="url(#clipPath26)" id="g24"><text id="text30" style="font-variant:normal;font-weight:bold;font-size:11.02999973px;font-family:'Aptos Narrow';-inkscape-font-specification:'Aptos Narrow Bold';writing-mode:lr-tb;fill:#ffffff;fill-opacity:1;fill-rule:nonzero;stroke:none" transform="matrix(1,0,0,-1,15.152,594.3)"><tspan id="tspan32" y="0" x="0 5.3054299 10.88661 16.390579 19.909149 25.6999 29.43907 35.020248 36.9505 40.855122 42.763309 50.859329 56.56184 62.407742 67.988922">Feature / Model</tspan></text>
</g>
    </g>
    <g id="g34">
      <g clip-path="url(#clipPath38)" id="g36"><text id="text42" style="font-variant:normal;font-weight:bold;font-size:11.02999973px;font-family:'Aptos Narrow';-inkscape-font-specification:'Aptos Narrow Bold';writing-mode:lr-tb;fill:#ffffff;fill-opacity:1;fill-rule:nonzero;stroke:none" transform="matrix(1,0,0,-1,186.93,594.3)"><tspan id="tspan44" y="0" x="0 7.01508 12.59626 18.177441 23.979219 29.913361 35.494541 41.075722 46.392181 49.767361 55.844891 61.437099 64.326958">DeepSeek-V3.2</tspan></text>
</g>
    </g>
    <g id="g46">
      <g clip-path="url(#clipPath50)" id="g48"><text id="text54" style="font-variant:normal;font-weight:bold;font-size:11.02999973px;font-family:'Aptos Narrow';-inkscape-font-specification:'Aptos Narrow Bold';writing-mode:lr-tb;fill:#ffffff;fill-opacity:1;fill-rule:nonzero;stroke:none" transform="matrix(1,0,0,-1,300.39,594.3)"><tspan id="tspan56" y="0" x="0 7.25774 14.7802 20.36138 26.15213 29.5604 35.152611 37.071831 40.458038 46.557629 49.546761 52.315289 58.16119 63.62104 69.466942 74.8937">Qwen-3 (Alibaba)</tspan></text>
</g>
    </g>
    <g id="g58">
      <g clip-path="url(#clipPath62)" id="g60"><text id="text66" style="font-variant:normal;font-weight:bold;font-size:11.02999973px;font-family:'Aptos Narrow';-inkscape-font-specification:'Aptos Narrow Bold';writing-mode:lr-tb;fill:#ffffff;fill-opacity:1;fill-rule:nonzero;stroke:none" transform="matrix(1,0,0,-1,421.26,594.3)"><tspan id="tspan68" y="0" x="0 7.01508 12.71759 18.508341 24.35424 29.803061 35.505569 38.880749 44.814892 50.396069 55.977249 61.823151 65.198334 70.790543 73.680397">Doubao-Seed-1.8</tspan></text>
</g>
    </g>
    <g id="g70">
      <g clip-path="url(#clipPath74)" id="g72"><text id="text78" style="font-variant:normal;font-weight:bold;font-size:11.02999973px;font-family:'Aptos Narrow';-inkscape-font-specification:'Aptos Narrow Bold';writing-mode:lr-tb;fill:#ffffff;fill-opacity:1;fill-rule:nonzero;stroke:none" transform="matrix(1,0,0,-1,586.62,594.3)"><tspan id="tspan80" y="0" x="0 6.1988602 8.9673901 17.81345 20.58198 23.979219 30.17808">Kimi-K2</tspan></text>
</g>
    </g>
    <g id="g82">
      <g clip-path="url(#clipPath86)" id="g84"><text id="text90" style="font-variant:normal;font-weight:bold;font-size:11.02999973px;font-family:'Aptos Narrow';-inkscape-font-specification:'Aptos Narrow Bold';writing-mode:lr-tb;fill:#ffffff;fill-opacity:1;fill-rule:nonzero;stroke:none" transform="matrix(1,0,0,-1,706.5,594.3)"><tspan id="tspan92" y="0" x="0 7.0261102 12.08888 20.229019 23.6042 29.196409 32.10833">GLM-4.5</tspan></text>
</g>
    </g>
    <g id="g94">
      <g clip-path="url(#clipPath98)" id="g96"><text id="text102" style="font-variant:normal;font-weight:bold;font-size:11.02999973px;font-family:'Aptos Narrow';-inkscape-font-specification:'Aptos Narrow Bold';writing-mode:lr-tb;fill:#ffffff;fill-opacity:1;fill-rule:nonzero;stroke:none" transform="matrix(1,0,0,-1,811.01,594.3)"><tspan id="tspan104" y="0" x="0 8.0960197 10.89764 16.688391 19.490009 27.586029 33.09 37.91011 41.28529 49.414398">MiniMax-M2</tspan></text>
</g>
    </g>
    <g id="g106">
      <g clip-path="url(#clipPath110)" id="g108"><text id="text114" style="font-variant:normal;font-weight:bold;font-size:11.02999973px;font-family:'Aptos Narrow';-inkscape-font-specification:'Aptos Narrow Bold';writing-mode:lr-tb;fill:#ffffff;fill-opacity:1;fill-rule:nonzero;stroke:none" transform="matrix(1,0,0,-1,931.98,594.3)"><tspan id="tspan116" y="0" x="0 7.01508 12.80583 18.309799 21.828369 28.83242 34.876862 39.840359 41.781639 47.373852 50.26371">ChatGPT 5.2</tspan></text>
</g>
    </g>
    <g id="g118">
      <g clip-path="url(#clipPath122)" id="g120"><text id="text126" style="font-variant:normal;font-weight:bold;font-size:11.02999973px;font-family:'Aptos Narrow';-inkscape-font-specification:'Aptos Narrow Bold';writing-mode:lr-tb;fill:#000000;fill-opacity:1;fill-rule:nonzero;stroke:none" transform="matrix(1,0,0,-1,15.152,579.03)"><tspan id="tspan128" y="0" x="0 6.2760701 11.85725 14.90153 20.48271 25.93153 30.994301 36.575481 38.538818 45.553902 51.013748 54.532318">Release Date</tspan></text>
</g>
    </g>
    <g id="g130">
      <g clip-path="url(#clipPath134)" id="g132"><text id="text138" style="font-variant:normal;font-weight:normal;font-size:11.02999973px;font-family:'Aptos Narrow';-inkscape-font-specification:'Aptos Narrow';writing-mode:lr-tb;fill:#000000;fill-opacity:1;fill-rule:nonzero;stroke:none" transform="matrix(1,0,0,-1,225.36,579.15)"><tspan id="tspan140" y="0" x="0 5.7245698 11.03 16.699421 20.107691 25.6999">Sep-25</tspan></text>
</g>
    </g>
    <g id="g142">
      <g clip-path="url(#clipPath146)" id="g144"><text id="text150" style="font-variant:normal;font-weight:normal;font-size:11.02999973px;font-family:'Aptos Narrow';-inkscape-font-specification:'Aptos Narrow';writing-mode:lr-tb;fill:#000000;fill-opacity:1;fill-rule:nonzero;stroke:none" transform="matrix(1,0,0,-1,348.9,579.15)"><tspan id="tspan152" y="0" x="0 5.92311 11.59253 15.0008 18.37598 23.968189">Apr-25</tspan></text>
</g>
    </g>
    <g id="g154">
      <g clip-path="url(#clipPath158)" id="g156"><text id="text162" style="font-variant:normal;font-weight:normal;font-size:11.02999973px;font-family:'Aptos Narrow';-inkscape-font-specification:'Aptos Narrow';writing-mode:lr-tb;fill:#000000;fill-opacity:1;fill-rule:nonzero;stroke:none" transform="matrix(1,0,0,-1,468.17,579.15)"><tspan id="tspan164" y="0" x="0 6.9158101 12.26536 17.559759 20.957001 26.54921">Dec-25</tspan></text>
</g>
    </g>
    <g id="g166">
      <g clip-path="url(#clipPath170)" id="g168"><text id="text174" style="font-variant:normal;font-weight:normal;font-size:11.02999973px;font-family:'Aptos Narrow';-inkscape-font-specification:'Aptos Narrow';writing-mode:lr-tb;fill:#000000;fill-opacity:1;fill-rule:nonzero;stroke:none" transform="matrix(1,0,0,-1,596.19,579.03)"><tspan id="tspan176" y="0" x="0 3.36415 8.9894505 11.63665 15.01183 20.60404">Jul-25</tspan></text>
</g>
    </g>
    <g id="g178">
      <g clip-path="url(#clipPath182)" id="g180"><text id="text186" style="font-variant:normal;font-weight:normal;font-size:11.02999973px;font-family:'Aptos Narrow';-inkscape-font-specification:'Aptos Narrow';writing-mode:lr-tb;fill:#000000;fill-opacity:1;fill-rule:nonzero;stroke:none" transform="matrix(1,0,0,-1,718.01,579.03)"><tspan id="tspan188" y="0" x="0 3.36415 8.9894505 11.63665 15.01183 20.60404">Jul-25</tspan></text>
</g>
    </g>
    <g id="g190">
      <g clip-path="url(#clipPath194)" id="g192"><text id="text198" style="font-variant:normal;font-weight:normal;font-size:11.02999973px;font-family:'Aptos Narrow';-inkscape-font-specification:'Aptos Narrow';writing-mode:lr-tb;fill:#000000;fill-opacity:1;fill-rule:nonzero;stroke:none" transform="matrix(1,0,0,-1,835.49,579.03)"><tspan id="tspan200" y="0" x="0 7.3790698 12.70656 15.97144 19.346621 24.938829">Oct-25</tspan></text>
</g>
    </g>
    <g id="g202">
      <g clip-path="url(#clipPath206)" id="g204"><text id="text210" style="font-variant:normal;font-weight:normal;font-size:11.02999973px;font-family:'Aptos Narrow';-inkscape-font-specification:'Aptos Narrow';writing-mode:lr-tb;fill:#000000;fill-opacity:1;fill-rule:nonzero;stroke:none" transform="matrix(1,0,0,-1,955.73,579.03)"><tspan id="tspan212" y="0" x="0 6.9158101 12.26536 17.559759 20.957001 26.54921">Dec-25</tspan></text>
</g>
    </g>
    <g id="g214">
      <g clip-path="url(#clipPath218)" id="g216"><text id="text222" style="font-variant:normal;font-weight:bold;font-size:11.02999973px;font-family:'Aptos Narrow';-inkscape-font-specification:'Aptos Narrow Bold';writing-mode:lr-tb;fill:#000000;fill-opacity:1;fill-rule:nonzero;stroke:none" transform="matrix(1,0,0,-1,15.152,563.76)"><tspan id="tspan224" y="0" x="0 7.01508 12.71759 18.508341 22.026911 27.608089 32.472321 35.990891 37.932171 42.994942 48.576118 54.410992 59.495819 63.014389">Context Length</tspan></text>
</g>
    </g>
    <g id="g226">
      <g clip-path="url(#clipPath230)" id="g228"><text id="text234" style="font-variant:normal;font-weight:normal;font-size:11.02999973px;font-family:'Aptos Narrow';-inkscape-font-specification:'Aptos Narrow';writing-mode:lr-tb;fill:#000000;fill-opacity:1;fill-rule:nonzero;stroke:none" transform="matrix(1,0,0,-1,228.75,563.76)"><tspan id="tspan236" y="0" x="0 5.5756102 11.15122 16.72683 22.302441">~128K</tspan></text>
</g>
    </g>
    <g id="g238">
      <g clip-path="url(#clipPath242)" id="g240"><text id="text246" style="font-variant:normal;font-weight:normal;font-size:11.02999973px;font-family:'Aptos Narrow';-inkscape-font-specification:'Aptos Narrow';writing-mode:lr-tb;fill:#000000;fill-opacity:1;fill-rule:nonzero;stroke:none" transform="matrix(1,0,0,-1,334.84,563.76)"><tspan id="tspan248" y="0" x="0 5.5922098 11.15133 16.74354 21.33202 26.924231 32.516441 38.064529">128–256K</tspan></text>
</g>
    </g>
    <g id="g250">
      <g clip-path="url(#clipPath254)" id="g252"><text id="text258" style="font-variant:normal;font-weight:normal;font-size:11.02999973px;font-family:'Aptos Narrow';-inkscape-font-specification:'Aptos Narrow';writing-mode:lr-tb;fill:#000000;fill-opacity:1;fill-rule:nonzero;stroke:none" transform="matrix(1,0,0,-1,477.99,563.76)"><tspan id="tspan260" y="0" x="0 5.5756102 11.15122 16.72683">256K</tspan></text>
</g>
    </g>
    <g id="g262">
      <g clip-path="url(#clipPath266)" id="g264"><text id="text270" style="font-variant:normal;font-weight:normal;font-size:11.02999973px;font-family:'Aptos Narrow';-inkscape-font-specification:'Aptos Narrow';writing-mode:lr-tb;fill:#000000;fill-opacity:1;fill-rule:nonzero;stroke:none" transform="matrix(1,0,0,-1,599.83,563.76)"><tspan id="tspan272" y="0" x="0 5.5756102 11.15122 16.72683">256K</tspan></text>
</g>
    </g>
    <g id="g274">
      <g clip-path="url(#clipPath278)" id="g276"><text id="text282" style="font-variant:normal;font-weight:normal;font-size:11.02999973px;font-family:'Aptos Narrow';-inkscape-font-specification:'Aptos Narrow';writing-mode:lr-tb;fill:#000000;fill-opacity:1;fill-rule:nonzero;stroke:none" transform="matrix(1,0,0,-1,716.07,563.76)"><tspan id="tspan284" y="0" x="0 5.5756102 11.15122 16.72683 22.302441">~130K</tspan></text>
</g>
    </g>
    <g id="g286">
      <g clip-path="url(#clipPath290)" id="g288"><text id="text294" style="font-variant:normal;font-weight:normal;font-size:11.02999973px;font-family:'Aptos Narrow';-inkscape-font-specification:'Aptos Narrow';writing-mode:lr-tb;fill:#000000;fill-opacity:1;fill-rule:nonzero;stroke:none" transform="matrix(1,0,0,-1,837.92,563.76)"><tspan id="tspan296" y="0" x="0 5.5756102 11.15122 16.72683 22.302441">~200K</tspan></text>
</g>
    </g>
    <g id="g298">
      <g clip-path="url(#clipPath302)" id="g300"><text id="text306" style="font-variant:normal;font-weight:normal;font-size:11.02999973px;font-family:'Aptos Narrow';-inkscape-font-specification:'Aptos Narrow';writing-mode:lr-tb;fill:#000000;fill-opacity:1;fill-rule:nonzero;stroke:none" transform="matrix(1,0,0,-1,963.13,563.76)"><tspan id="tspan308" y="0" x="0 5.5922098 11.15133 19.137051">~2M+</tspan></text>
</g>
    </g>
    <g id="g310">
      <g clip-path="url(#clipPath314)" id="g312"><text id="text318" style="font-variant:normal;font-weight:bold;font-size:11.02999973px;font-family:'Aptos Narrow';-inkscape-font-specification:'Aptos Narrow Bold';writing-mode:lr-tb;fill:#000000;fill-opacity:1;fill-rule:nonzero;stroke:none" transform="matrix(1,0,0,-1,15.152,548.48)"><tspan id="tspan320" y="0" x="0 8.0960197 13.93089 16.95311 20.47168 23.24021 32.13039 37.832901 43.62365 49.0835">Multimodal</tspan></text>
</g>
    </g>
    <g id="g322">
      <g clip-path="url(#clipPath326)" id="g324"><text id="text330" style="font-variant:normal;font-weight:normal;font-size:11.02999973px;font-family:'Aptos Narrow';-inkscape-font-specification:'Aptos Narrow';writing-mode:lr-tb;fill:#000000;fill-opacity:1;fill-rule:nonzero;stroke:none" transform="matrix(1,0,0,-1,241.24,548.48)"><tspan id="tspan332" y="0" x="0 5.4377899 10.78734">Yes</tspan></text>
</g>
    </g>
    <g id="g334">
      <g clip-path="url(#clipPath338)" id="g336"><text id="text342" style="font-variant:normal;font-weight:normal;font-size:11.02999973px;font-family:'Aptos Narrow';-inkscape-font-specification:'Aptos Narrow';writing-mode:lr-tb;fill:#000000;fill-opacity:1;fill-rule:nonzero;stroke:none" transform="matrix(1,0,0,-1,363.08,548.48)"><tspan id="tspan344" y="0" x="0 5.4377899 10.78734">Yes</tspan></text>
</g>
    </g>
    <g id="g346">
      <g clip-path="url(#clipPath350)" id="g348"><text id="text354" style="font-variant:normal;font-weight:normal;font-size:11.02999973px;font-family:'Aptos Narrow';-inkscape-font-specification:'Aptos Narrow';writing-mode:lr-tb;fill:#000000;fill-opacity:1;fill-rule:nonzero;stroke:none" transform="matrix(1,0,0,-1,484.9,548.48)"><tspan id="tspan356" y="0" x="0 5.4377899 10.78734">Yes</tspan></text>
</g>
    </g>
    <g id="g358">
      <g clip-path="url(#clipPath362)" id="g360"><text id="text366" style="font-variant:normal;font-weight:normal;font-size:11.02999973px;font-family:'Aptos Narrow';-inkscape-font-specification:'Aptos Narrow';writing-mode:lr-tb;fill:#000000;fill-opacity:1;fill-rule:nonzero;stroke:none" transform="matrix(1,0,0,-1,606.74,548.48)"><tspan id="tspan368" y="0" x="0 5.4377899 10.78734">Yes</tspan></text>
</g>
    </g>
    <g id="g370">
      <g clip-path="url(#clipPath374)" id="g372"><text id="text378" style="font-variant:normal;font-weight:normal;font-size:11.02999973px;font-family:'Aptos Narrow';-inkscape-font-specification:'Aptos Narrow';writing-mode:lr-tb;fill:#000000;fill-opacity:1;fill-rule:nonzero;stroke:none" transform="matrix(1,0,0,-1,728.56,548.48)"><tspan id="tspan380" y="0" x="0 5.4377899 10.78734">Yes</tspan></text>
</g>
    </g>
    <g id="g382">
      <g clip-path="url(#clipPath386)" id="g384"><text id="text390" style="font-variant:normal;font-weight:normal;font-size:11.02999973px;font-family:'Aptos Narrow';-inkscape-font-specification:'Aptos Narrow';writing-mode:lr-tb;fill:#000000;fill-opacity:1;fill-rule:nonzero;stroke:none" transform="matrix(1,0,0,-1,850.4,548.48)"><tspan id="tspan392" y="0" x="0 5.4377899 10.78734">Yes</tspan></text>
</g>
    </g>
    <g id="g394">
      <g clip-path="url(#clipPath398)" id="g396"><text id="text402" style="font-variant:normal;font-weight:normal;font-size:11.02999973px;font-family:'Aptos Narrow';-inkscape-font-specification:'Aptos Narrow';writing-mode:lr-tb;fill:#000000;fill-opacity:1;fill-rule:nonzero;stroke:none" transform="matrix(1,0,0,-1,972.22,548.48)"><tspan id="tspan404" y="0" x="0 5.4377899 10.78734">Yes</tspan></text>
</g>
    </g>
    <g id="g406">
      <g clip-path="url(#clipPath410)" id="g408"><text id="text414" style="font-variant:normal;font-weight:bold;font-size:11.02999973px;font-family:'Aptos Narrow';-inkscape-font-specification:'Aptos Narrow Bold';writing-mode:lr-tb;fill:#000000;fill-opacity:1;fill-rule:nonzero;stroke:none" transform="matrix(1,0,0,-1,15.152,533.19)"><tspan id="tspan416" y="0" x="0 7.25774 13.10364 18.68482 24.475571 26.427879 32.362019 38.064529 43.855282 47.627541 53.098419">Open Source</tspan></text>
</g>
    </g>
    <g id="g418">
      <g clip-path="url(#clipPath422)" id="g420"><text id="text426" style="font-variant:normal;font-weight:normal;font-size:11.02999973px;font-family:'Aptos Narrow';-inkscape-font-specification:'Aptos Narrow';writing-mode:lr-tb;fill:#000000;fill-opacity:1;fill-rule:nonzero;stroke:none" transform="matrix(1,0,0,-1,241.24,533.19)"><tspan id="tspan428" y="0" x="0 5.4377899 10.78734">Yes</tspan></text>
</g>
    </g>
    <g id="g430">
      <g clip-path="url(#clipPath434)" id="g432"><text id="text438" style="font-variant:normal;font-weight:normal;font-size:11.02999973px;font-family:'Aptos Narrow';-inkscape-font-specification:'Aptos Narrow';writing-mode:lr-tb;fill:#000000;fill-opacity:1;fill-rule:nonzero;stroke:none" transform="matrix(1,0,0,-1,363.08,533.19)"><tspan id="tspan440" y="0" x="0 5.4377899 10.78734">Yes</tspan></text>
</g>
    </g>
    <g id="g442">
      <g clip-path="url(#clipPath446)" id="g444"><text id="text450" style="font-variant:normal;font-weight:normal;font-size:11.02999973px;font-family:'Aptos Narrow';-inkscape-font-specification:'Aptos Narrow';writing-mode:lr-tb;fill:#000000;fill-opacity:1;fill-rule:nonzero;stroke:none" transform="matrix(1,0,0,-1,487.81,533.19)"><tspan id="tspan452" y="0" x="0 7.15135">No</tspan></text>
</g>
    </g>
    <g id="g454">
      <g clip-path="url(#clipPath458)" id="g456"><text id="text462" style="font-variant:normal;font-weight:normal;font-size:11.02999973px;font-family:'Aptos Narrow';-inkscape-font-specification:'Aptos Narrow';writing-mode:lr-tb;fill:#000000;fill-opacity:1;fill-rule:nonzero;stroke:none" transform="matrix(1,0,0,-1,606.74,533.19)"><tspan id="tspan464" y="0" x="0 5.4377899 10.78734">Yes</tspan></text>
</g>
    </g>
    <g id="g466">
      <g clip-path="url(#clipPath470)" id="g468"><text id="text474" style="font-variant:normal;font-weight:normal;font-size:11.02999973px;font-family:'Aptos Narrow';-inkscape-font-specification:'Aptos Narrow';writing-mode:lr-tb;fill:#000000;fill-opacity:1;fill-rule:nonzero;stroke:none" transform="matrix(1,0,0,-1,728.56,533.19)"><tspan id="tspan476" y="0" x="0 5.4377899 10.78734">Yes</tspan></text>
</g>
    </g>
    <g id="g478">
      <g clip-path="url(#clipPath482)" id="g480"><text id="text486" style="font-variant:normal;font-weight:normal;font-size:11.02999973px;font-family:'Aptos Narrow';-inkscape-font-specification:'Aptos Narrow';writing-mode:lr-tb;fill:#000000;fill-opacity:1;fill-rule:nonzero;stroke:none" transform="matrix(1,0,0,-1,850.4,533.19)"><tspan id="tspan488" y="0" x="0 5.4377899 10.78734">Yes</tspan></text>
</g>
    </g>
    <g id="g490">
      <g clip-path="url(#clipPath494)" id="g492"><text id="text498" style="font-variant:normal;font-weight:normal;font-size:11.02999973px;font-family:'Aptos Narrow';-inkscape-font-specification:'Aptos Narrow';writing-mode:lr-tb;fill:#000000;fill-opacity:1;fill-rule:nonzero;stroke:none" transform="matrix(1,0,0,-1,975.13,533.19)"><tspan id="tspan500" y="0" x="0 7.15135">No</tspan></text>
</g>
    </g>
    <g id="g502">
      <g clip-path="url(#clipPath506)" id="g504"><text id="text510" style="font-variant:normal;font-weight:bold;font-size:11.02999973px;font-family:'Aptos Narrow';-inkscape-font-specification:'Aptos Narrow Bold';writing-mode:lr-tb;fill:#000000;fill-opacity:1;fill-rule:nonzero;stroke:none" transform="matrix(1,0,0,-1,15.152,517.92)"><tspan id="tspan512" y="0" x="0 8.0960197 16.23616 21.298929 28.115471 30.056749 33.442959 41.693401">MMLU (%)</tspan></text>
</g>
    </g>
    <g id="g514">
      <g clip-path="url(#clipPath518)" id="g516"><text id="text522" style="font-variant:normal;font-weight:normal;font-size:11.02999973px;font-family:'Aptos Narrow';-inkscape-font-specification:'Aptos Narrow';writing-mode:lr-tb;fill:#000000;fill-opacity:1;fill-rule:nonzero;stroke:none" transform="matrix(1,0,0,-1,231.66,517.92)"><tspan id="tspan524" y="0" x="0 5.5922098 11.15133 16.74354 19.61134">~88.5</tspan></text>
</g>
    </g>
    <g id="g526">
      <g clip-path="url(#clipPath530)" id="g528"><text id="text534" style="font-variant:normal;font-weight:normal;font-size:11.02999973px;font-family:'Aptos Narrow';-inkscape-font-specification:'Aptos Narrow';writing-mode:lr-tb;fill:#000000;fill-opacity:1;fill-rule:nonzero;stroke:none" transform="matrix(1,0,0,-1,356.41,517.92)"><tspan id="tspan536" y="0" x="0 5.5756102 11.15122 16.72683">~92+</tspan></text>
</g>
    </g>
    <g id="g538">
      <g clip-path="url(#clipPath542)" id="g540"><text id="text546" style="font-variant:normal;font-weight:normal;font-size:11.02999973px;font-family:'Aptos Narrow';-inkscape-font-specification:'Aptos Narrow';writing-mode:lr-tb;fill:#000000;fill-opacity:1;fill-rule:nonzero;stroke:none" transform="matrix(1,0,0,-1,483.81,517.92)"><tspan id="tspan548" y="0" x="0 5.5756102 11.15122">~92</tspan></text>
</g>
    </g>
    <g id="g550">
      <g clip-path="url(#clipPath554)" id="g552"><text id="text558" style="font-variant:normal;font-weight:normal;font-size:11.02999973px;font-family:'Aptos Narrow';-inkscape-font-specification:'Aptos Narrow';writing-mode:lr-tb;fill:#000000;fill-opacity:1;fill-rule:nonzero;stroke:none" transform="matrix(1,0,0,-1,605.65,517.92)"><tspan id="tspan560" y="0" x="0 5.5756102 11.15122">~87</tspan></text>
</g>
    </g>
    <g id="g562">
      <g clip-path="url(#clipPath566)" id="g564"><text id="text570" style="font-variant:normal;font-weight:normal;font-size:11.02999973px;font-family:'Aptos Narrow';-inkscape-font-specification:'Aptos Narrow';writing-mode:lr-tb;fill:#000000;fill-opacity:1;fill-rule:nonzero;stroke:none" transform="matrix(1,0,0,-1,711.71,517.92)"><tspan id="tspan572" y="0" x="0 5.5922098 11.15133 16.74354 21.33202 26.924231">~80–85</tspan></text>
</g>
    </g>
    <g id="g574">
      <g clip-path="url(#clipPath578)" id="g576"><text id="text582" style="font-variant:normal;font-weight:normal;font-size:11.02999973px;font-family:'Aptos Narrow';-inkscape-font-specification:'Aptos Narrow';writing-mode:lr-tb;fill:#000000;fill-opacity:1;fill-rule:nonzero;stroke:none" transform="matrix(1,0,0,-1,843.73,517.92)"><tspan id="tspan584" y="0" x="0 5.5756102 11.15122 16.72683">~90+</tspan></text>
</g>
    </g>
    <g id="g586">
      <g clip-path="url(#clipPath590)" id="g588"><text id="text594" style="font-style:italic;font-variant:normal;font-weight:normal;font-size:11.02999973px;font-family:'Aptos Narrow';-inkscape-font-specification:'Aptos Narrow Italic';writing-mode:lr-tb;fill:#000000;fill-opacity:1;fill-rule:nonzero;stroke:none" transform="matrix(1,0,0,-1,968.95,517.92)"><tspan id="tspan596" y="0" x="0 5.5756102 11.15122">~92</tspan></text>
</g>
    </g>
    <g id="g598">
      <g clip-path="url(#clipPath602)" id="g600"><text id="text606" style="font-variant:normal;font-weight:bold;font-size:11.02999973px;font-family:'Aptos Narrow';-inkscape-font-specification:'Aptos Narrow Bold';writing-mode:lr-tb;fill:#000000;fill-opacity:1;fill-rule:nonzero;stroke:none" transform="matrix(1,0,0,-1,15.152,502.64)"><tspan id="tspan608" y="0" x="0 7.0261102 13.07055 20.328291 26.427879 28.347099 31.733311 39.983749">GPQA (%)</tspan></text>
</g>
    </g>
    <g id="g610">
      <g clip-path="url(#clipPath614)" id="g612"><text id="text618" style="font-variant:normal;font-weight:normal;font-size:11.02999973px;font-family:'Aptos Narrow';-inkscape-font-specification:'Aptos Narrow';writing-mode:lr-tb;fill:#000000;fill-opacity:1;fill-rule:nonzero;stroke:none" transform="matrix(1,0,0,-1,240.15,502.64)"><tspan id="tspan620" y="0" x="0 5.5756102 11.15122">~82</tspan></text>
</g>
    </g>
    <g id="g622">
      <g clip-path="url(#clipPath626)" id="g624"><text id="text630" style="font-variant:normal;font-weight:normal;font-size:11.02999973px;font-family:'Aptos Narrow';-inkscape-font-specification:'Aptos Narrow';writing-mode:lr-tb;fill:#000000;fill-opacity:1;fill-rule:nonzero;stroke:none" transform="matrix(1,0,0,-1,356.41,502.64)"><tspan id="tspan632" y="0" x="0 5.5756102 11.15122 16.72683">~87+</tspan></text>
</g>
    </g>
    <g id="g634">
      <g clip-path="url(#clipPath638)" id="g636"><text id="text642" style="font-variant:normal;font-weight:normal;font-size:11.02999973px;font-family:'Aptos Narrow';-inkscape-font-specification:'Aptos Narrow';writing-mode:lr-tb;fill:#000000;fill-opacity:1;fill-rule:nonzero;stroke:none" transform="matrix(1,0,0,-1,483.81,502.64)"><tspan id="tspan644" y="0" x="0 5.5756102 11.15122">~83</tspan></text>
</g>
    </g>
    <g id="g646">
      <g clip-path="url(#clipPath650)" id="g648"><text id="text654" style="font-variant:normal;font-weight:normal;font-size:11.02999973px;font-family:'Aptos Narrow';-inkscape-font-specification:'Aptos Narrow';writing-mode:lr-tb;fill:#000000;fill-opacity:1;fill-rule:nonzero;stroke:none" transform="matrix(1,0,0,-1,605.65,502.64)"><tspan id="tspan656" y="0" x="0 5.5756102 11.15122">~85</tspan></text>
</g>
    </g>
    <g id="g658">
      <g clip-path="url(#clipPath662)" id="g660"><text id="text666" style="font-variant:normal;font-weight:normal;font-size:11.02999973px;font-family:'Aptos Narrow';-inkscape-font-specification:'Aptos Narrow';writing-mode:lr-tb;fill:#000000;fill-opacity:1;fill-rule:nonzero;stroke:none" transform="matrix(1,0,0,-1,711.71,502.64)"><tspan id="tspan668" y="0" x="0 5.5922098 11.15133 16.74354 21.33202 26.924231">~77–80</tspan></text>
</g>
    </g>
    <g id="g670">
      <g clip-path="url(#clipPath674)" id="g672"><text id="text678" style="font-variant:normal;font-weight:normal;font-size:11.02999973px;font-family:'Aptos Narrow';-inkscape-font-specification:'Aptos Narrow';writing-mode:lr-tb;fill:#000000;fill-opacity:1;fill-rule:nonzero;stroke:none" transform="matrix(1,0,0,-1,843.73,502.64)"><tspan id="tspan680" y="0" x="0 5.5756102 11.15122 16.72683">~85+</tspan></text>
</g>
    </g>
    <g id="g682">
      <g clip-path="url(#clipPath686)" id="g684"><text id="text690" style="font-style:italic;font-variant:normal;font-weight:normal;font-size:11.02999973px;font-family:'Aptos Narrow';-inkscape-font-specification:'Aptos Narrow Italic';writing-mode:lr-tb;fill:#000000;fill-opacity:1;fill-rule:nonzero;stroke:none" transform="matrix(1,0,0,-1,963.37,502.64)"><tspan id="tspan692" y="0" x="0 5.5756102 11.15122 16.72683">~89+</tspan></text>
</g>
    </g>
    <g id="g694">
      <g clip-path="url(#clipPath698)" id="g696"><text id="text702" style="font-variant:normal;font-weight:bold;font-size:11.02999973px;font-family:'Aptos Narrow';-inkscape-font-specification:'Aptos Narrow Bold';writing-mode:lr-tb;fill:#000000;fill-opacity:1;fill-rule:nonzero;stroke:none" transform="matrix(1,0,0,-1,15.152,487.37)"><tspan id="tspan704" y="0" x="0 7.01508 12.71759 18.530399 21.298929 27.12277 32.2076 34.14888 37.535091 45.78553 47.72681 53.66095 62.88203 68.562477 71.959717 78.114464 83.695641 89.519478 94.990356 100.78111">Coding (% SWE-Bench)</tspan></text>
</g>
    </g>
    <g id="g706">
      <g clip-path="url(#clipPath710)" id="g708"><text id="text714" style="font-variant:normal;font-weight:normal;font-size:11.02999973px;font-family:'Aptos Narrow';-inkscape-font-specification:'Aptos Narrow';writing-mode:lr-tb;fill:#000000;fill-opacity:1;fill-rule:nonzero;stroke:none" transform="matrix(1,0,0,-1,240.15,487.37)"><tspan id="tspan716" y="0" x="0 5.5756102 11.15122">~72</tspan></text>
</g>
    </g>
    <g id="g718">
      <g clip-path="url(#clipPath722)" id="g720"><text id="text726" style="font-variant:normal;font-weight:normal;font-size:11.02999973px;font-family:'Aptos Narrow';-inkscape-font-specification:'Aptos Narrow';writing-mode:lr-tb;fill:#000000;fill-opacity:1;fill-rule:nonzero;stroke:none" transform="matrix(1,0,0,-1,356.41,487.37)"><tspan id="tspan728" y="0" x="0 5.5756102 11.15122 16.72683">~88+</tspan></text>
</g>
    </g>
    <g id="g730">
      <g clip-path="url(#clipPath734)" id="g732"><text id="text738" style="font-variant:normal;font-weight:normal;font-size:11.02999973px;font-family:'Aptos Narrow';-inkscape-font-specification:'Aptos Narrow';writing-mode:lr-tb;fill:#000000;fill-opacity:1;fill-rule:nonzero;stroke:none" transform="matrix(1,0,0,-1,483.81,487.37)"><tspan id="tspan740" y="0" x="0 5.5756102 11.15122">~72</tspan></text>
</g>
    </g>
    <g id="g742">
      <g clip-path="url(#clipPath746)" id="g744"><text id="text750" style="font-variant:normal;font-weight:normal;font-size:11.02999973px;font-family:'Aptos Narrow';-inkscape-font-specification:'Aptos Narrow';writing-mode:lr-tb;fill:#000000;fill-opacity:1;fill-rule:nonzero;stroke:none" transform="matrix(1,0,0,-1,605.65,487.37)"><tspan id="tspan752" y="0" x="0 5.5756102 11.15122">~84</tspan></text>
</g>
    </g>
    <g id="g754">
      <g clip-path="url(#clipPath758)" id="g756"><text id="text762" style="font-variant:normal;font-weight:normal;font-size:11.02999973px;font-family:'Aptos Narrow';-inkscape-font-specification:'Aptos Narrow';writing-mode:lr-tb;fill:#000000;fill-opacity:1;fill-rule:nonzero;stroke:none" transform="matrix(1,0,0,-1,711.71,487.37)"><tspan id="tspan764" y="0" x="0 5.5922098 11.15133 16.74354 21.33202 26.924231">~65–70</tspan></text>
</g>
    </g>
    <g id="g766">
      <g clip-path="url(#clipPath770)" id="g768"><text id="text774" style="font-variant:normal;font-weight:normal;font-size:11.02999973px;font-family:'Aptos Narrow';-inkscape-font-specification:'Aptos Narrow';writing-mode:lr-tb;fill:#000000;fill-opacity:1;fill-rule:nonzero;stroke:none" transform="matrix(1,0,0,-1,833.55,487.37)"><tspan id="tspan776" y="0" x="0 5.5922098 11.15133 16.74354 21.33202 26.924231">~78–82</tspan></text>
</g>
    </g>
    <g id="g778">
      <g clip-path="url(#clipPath782)" id="g780"><text id="text786" style="font-variant:normal;font-weight:normal;font-size:11.02999973px;font-family:'Aptos Narrow';-inkscape-font-specification:'Aptos Narrow';writing-mode:lr-tb;fill:#000000;fill-opacity:1;fill-rule:nonzero;stroke:none" transform="matrix(1,0,0,-1,971.13,487.37)"><tspan id="tspan788" y="0" x="0 5.5756102 11.15122">~72</tspan></text>
</g>
    </g>
    <g id="g790">
      <g clip-path="url(#clipPath794)" id="g792"><text id="text798" style="font-variant:normal;font-weight:bold;font-size:11.02999973px;font-family:'Aptos Narrow';-inkscape-font-specification:'Aptos Narrow Bold';writing-mode:lr-tb;fill:#000000;fill-opacity:1;fill-rule:nonzero;stroke:none" transform="matrix(1,0,0,-1,15.152,472.1)"><tspan id="tspan800" y="0" x="0 6.1988602 11.78004 16.710449 18.65173 24.585871 28.104441 31.854639 37.435822 43.22657 48.311401 51.829971">Key Strength</tspan></text>
</g>
    </g>
    <g id="g802">
      <g clip-path="url(#clipPath806)" id="g804"><text id="text810" style="font-variant:normal;font-weight:normal;font-size:11.02999973px;font-family:'Aptos Narrow';-inkscape-font-specification:'Aptos Narrow';writing-mode:lr-tb;fill:#000000;fill-opacity:1;fill-rule:nonzero;stroke:none" transform="matrix(1,0,0,-1,158.93,472.1)"><tspan id="tspan812" y="0" x="0 6.1657701 11.51532 16.831779 21.68498 27.255131 32.84734 35.262909 40.855122 45.818619 47.881229 53.473438 55.536049 60.84148 63.874729 66.907982 69.334579 74.662071 77.088669 82.438217 88.030434 93.324829">Reasoning + efficiency</tspan></text>
</g>
    </g>
    <g id="g814">
      <g clip-path="url(#clipPath818)" id="g816"><text id="text822" style="font-variant:normal;font-weight:normal;font-size:11.02999973px;font-family:'Aptos Narrow';-inkscape-font-specification:'Aptos Narrow';writing-mode:lr-tb;fill:#000000;fill-opacity:1;fill-rule:nonzero;stroke:none" transform="matrix(1,0,0,-1,291.54,472.1)"><tspan id="tspan824" y="0" x="0 6.05547 9.4637403 15.03389 20.36138 26.0308 28.09341 34.656261 36.718868 45.322269 50.892422 53.572708 56.837589 59.253159 67.85656 73.426712 79.09613 84.467743">Broad &amp; multimodal</tspan></text>
</g>
    </g>
    <g id="g826">
      <g clip-path="url(#clipPath830)" id="g828"><text id="text834" style="font-variant:normal;font-weight:normal;font-size:11.02999973px;font-family:'Aptos Narrow';-inkscape-font-specification:'Aptos Narrow';writing-mode:lr-tb;fill:#000000;fill-opacity:1;fill-rule:nonzero;stroke:none" transform="matrix(1,0,0,-1,440.41,472.1)"><tspan id="tspan836" y="0" x="0 6.9158101 12.26536 17.570789 23.24021 25.30282 28.567699 34.159908 36.63063 42.178719 47.120159 49.590881 55.150002">Deep thinking</tspan></text>
</g>
    </g>
    <g id="g838">
      <g clip-path="url(#clipPath842)" id="g840"><text id="text846" style="font-variant:normal;font-weight:normal;font-size:11.02999973px;font-family:'Aptos Narrow';-inkscape-font-specification:'Aptos Narrow';writing-mode:lr-tb;fill:#000000;fill-opacity:1;fill-rule:nonzero;stroke:none" transform="matrix(1,0,0,-1,552.07,472.1)"><tspan id="tspan848" y="0" x="0 7.01508 12.58523 18.25465 20.72537 26.317579 31.28108 33.343689 38.891781 40.954391 46.281879 51.24538 56.594929 62.187141 65.452019">Coding + agents</tspan></text>
</g>
    </g>
    <g id="g850">
      <g clip-path="url(#clipPath854)" id="g852"><text id="text858" style="font-variant:normal;font-weight:normal;font-size:11.02999973px;font-family:'Aptos Narrow';-inkscape-font-specification:'Aptos Narrow';writing-mode:lr-tb;fill:#000000;fill-opacity:1;fill-rule:nonzero;stroke:none" transform="matrix(1,0,0,-1,666.98,472.1)"><tspan id="tspan860" y="0" x="0 4.8421698 10.41232 15.98247 18.66276 23.50493 25.567539 32.097301 34.159908 37.56818 42.917728 48.22316 53.076359 58.646511 64.238724 66.654289 72.246498">Tools &amp; reasoning</tspan></text>
</g>
    </g>
    <g id="g862">
      <g clip-path="url(#clipPath866)" id="g864"><text id="text870" style="font-variant:normal;font-weight:normal;font-size:11.02999973px;font-family:'Aptos Narrow';-inkscape-font-specification:'Aptos Narrow';writing-mode:lr-tb;fill:#000000;fill-opacity:1;fill-rule:nonzero;stroke:none" transform="matrix(1,0,0,-1,765.79,472.1)"><tspan id="tspan872" y="0" x="0 5.0848298 10.65498 16.24719 21.21069 23.2733 28.567699 34.159908 39.752121 43.016998 48.36655 52.84473 56.109612 60.951778 63.014389 68.606598 70.669212 75.963608 81.53376 87.247299 89.673897 95.266113">Long contexts + coding</tspan></text>
</g>
    </g>
    <g id="g874">
      <g clip-path="url(#clipPath878)" id="g876"><text id="text882" style="font-variant:normal;font-weight:normal;font-size:11.02999973px;font-family:'Aptos Narrow';-inkscape-font-specification:'Aptos Narrow';writing-mode:lr-tb;fill:#000000;fill-opacity:1;fill-rule:nonzero;stroke:none" transform="matrix(1,0,0,-1,899.37,472.1)"><tspan id="tspan884" y="0" x="0 6.05547 9.4637403 15.03389 20.36138 26.0308 28.09341 31.35829 36.7299 41.572071 46.513512 48.576118 53.925671 59.495819 64.095329 69.444878 72.853149 78.158577 83.122078">Broad task coverage</tspan></text>
</g>
    </g>
  </g>
</svg>
