<svg version="1.1" width="100%" height="100%" viewBox="0 0 355 217" xmlns="http://www.w3.org/2000/svg" xmlns:xlink="http://www.w3.org/1999/xlink"><style type="text/css" /><defs><clipPath id="clip001"><path d="M0,0 L2761.333,0 L2761.333,1810.667 L0,1810.667 Z" clip-rule="evenodd" /></clipPath><clipPath id="clip002"><path d="M0,0 L2761.333,0 L2761.333,1810.667 L0,1810.667 Z" clip-rule="evenodd" /></clipPath><clipPath id="clip003"><path d="M0,0 L2761.333,0 L2761.333,1810.667 L0,1810.667 Z" clip-rule="evenodd" /></clipPath><clipPath id="clip004"><path d="M0,0 L5200,0 L5200,1920 L0,1920 Z" clip-rule="evenodd" /></clipPath><clipPath id="clip005"><path d="M-800,0 L6000,0 L6000,1920 L-800,1920 Z" clip-rule="evenodd" /></clipPath><clipPath id="clip006"><path d="M0,0 L2753.333,0 L2753.333,1810.667 L0,1810.667 Z" clip-rule="evenodd" /></clipPath><clipPath id="clip007"><path d="M350.6667,212 L2753.333,212 L2753.333,1620 L350.6667,1620 Z" clip-rule="evenodd" /></clipPath><clipPath id="clip008"><path d="M350.6667,212 L2753.333,212 L2753.333,1620 L350.6667,1620 Z" clip-rule="evenodd" /></clipPath><clipPath id="clip009"><path d="M350.6667,212 L2753.333,212 L2753.333,1620 L350.6667,1620 Z" clip-rule="evenodd" /></clipPath><clipPath id="clip010"><path d="M0,0 L2753.333,0 L2753.333,1810.667 L0,1810.667 Z" clip-rule="evenodd" /></clipPath><clipPath id="clip011"><path d="M0,0 L2753.333,0 L2753.333,1810.667 L0,1810.667 Z" clip-rule="evenodd" /></clipPath><clipPath id="clip012"><path d="M0,0 L2753.333,0 L2753.333,1810.667 L0,1810.667 Z" clip-rule="evenodd" /></clipPath><clipPath id="clip013"><path d="M0,0 L2753.333,0 L2753.333,1810.667 L0,1810.667 Z" clip-rule="evenodd" /></clipPath><clipPath id="clip014"><path d="M0,0 L2753.333,0 L2753.333,1810.667 L0,1810.667 Z" clip-rule="evenodd" /></clipPath><clipPath id="clip015"><path d="M0,0 L2753.333,0 L2753.333,1810.667 L0,1810.667 Z" clip-rule="evenodd" /></clipPath><clipPath id="clip016"><path d="M0,0 L2753.333,0 L2753.333,1810.667 L0,1810.667 Z" clip-rule="evenodd" /></clipPath><clipPath id="clip017"><path d="M0,0 L2753.333,0 L2753.333,1810.667 L0,1810.667 Z" clip-rule="evenodd" /></clipPath><clipPath id="clip018"><path d="M0,0 L2753.333,0 L2753.333,1810.667 L0,1810.667 Z" clip-rule="evenodd" /></clipPath><clipPath id="clip019"><path d="M0,0 L2753.333,0 L2753.333,1810.667 L0,1810.667 Z" clip-rule="evenodd" /></clipPath><clipPath id="clip020"><path d="M0,0 L2753.333,0 L2753.333,1810.667 L0,1810.667 Z" clip-rule="evenodd" /></clipPath><clipPath id="clip021"><path d="M0,0 L2753.333,0 L2753.333,1810.667 L0,1810.667 Z" clip-rule="evenodd" /></clipPath><clipPath id="clip022"><path d="M0,0 L2753.333,0 L2753.333,1810.667 L0,1810.667 Z" clip-rule="evenodd" /></clipPath><clipPath id="clip023"><path d="M0,0 L2753.333,0 L2753.333,1810.667 L0,1810.667 Z" clip-rule="evenodd" /></clipPath><clipPath id="clip024"><path d="M0,0 L2753.333,0 L2753.333,1810.667 L0,1810.667 Z" clip-rule="evenodd" /></clipPath><clipPath id="clip025"><path d="M0,0 L2753.333,0 L2753.333,1810.667 L0,1810.667 Z" clip-rule="evenodd" /></clipPath><clipPath id="clip026"><path d="M0,0 L2753.333,0 L2753.333,1810.667 L0,1810.667 Z" clip-rule="evenodd" /></clipPath><clipPath id="clip027"><path d="M0,0 L2753.333,0 L2753.333,1810.667 L0,1810.667 Z" clip-rule="evenodd" /></clipPath><clipPath id="clip028"><path d="M0,0 L2753.333,0 L2753.333,1810.667 L0,1810.667 Z" clip-rule="evenodd" /></clipPath><clipPath id="clip029"><path d="M0,0 L2753.333,0 L2753.333,1810.667 L0,1810.667 Z" clip-rule="evenodd" /></clipPath><clipPath id="clip030"><path d="M0,0 L2753.333,0 L2753.333,1810.667 L0,1810.667 Z" clip-rule="evenodd" /></clipPath><clipPath id="clip031"><path d="M0,0 L2753.333,0 L2753.333,1810.667 L0,1810.667 Z" clip-rule="evenodd" /></clipPath><clipPath id="clip032"><path d="M0,0 L2753.333,0 L2753.333,1810.667 L0,1810.667 Z" clip-rule="evenodd" /></clipPath><clipPath id="clip033"><path d="M0,0 L2753.333,0 L2753.333,1810.667 L0,1810.667 Z" clip-rule="evenodd" /></clipPath><clipPath id="clip034"><path d="M0,0 L2753.333,0 L2753.333,1810.667 L0,1810.667 Z" clip-rule="evenodd" /></clipPath><clipPath id="clip035"><path d="M0,0 L2753.333,0 L2753.333,1810.667 L0,1810.667 Z" clip-rule="evenodd" /></clipPath><clipPath id="clip036"><path d="M0,0 L2753.333,0 L2753.333,1810.667 L0,1810.667 Z" clip-rule="evenodd" /></clipPath><clipPath id="clip037"><path d="M0,0 L2753.333,0 L2753.333,1810.667 L0,1810.667 Z" clip-rule="evenodd" /></clipPath><clipPath id="clip038"><path d="M0,0 L2753.333,0 L2753.333,1810.667 L0,1810.667 Z" clip-rule="evenodd" /></clipPath><clipPath id="clip039"><path d="M0,0 L2753.333,0 L2753.333,1810.667 L0,1810.667 Z" clip-rule="evenodd" /></clipPath><clipPath id="clip040"><path d="M0,0 L2753.333,0 L2753.333,1810.667 L0,1810.667 Z" clip-rule="evenodd" /></clipPath><clipPath id="clip041"><path d="M0,0 L2753.333,0 L2753.333,1810.667 L0,1810.667 Z" clip-rule="evenodd" /></clipPath><clipPath id="clip042"><path d="M0,0 L2753.333,0 L2753.333,1810.667 L0,1810.667 Z" clip-rule="evenodd" /></clipPath></defs><clipPath id="page-clip-path-1"><rect x="0" y="0" width="354.67" height="217.33" /></clipPath><g clip-path="url(#page-clip-path-1)" transform="translate(0.17,0)"><g transform="translate(1,1)"><g><g transform="matrix(0.1197006,0,0,0.1200295,0,0)" clip-path="url(#clip001)"><g><g clip-path="url(#clip002)"><g><g clip-path="url(#clip003)"><g transform="matrix(1.000214,0,0,1.00041,0.00016276,0)"><g><g><g clip-path="url(#clip004)"><g transform="translate(2753.333,1812)" /></g></g></g><g clip-path="url(#clip005)"><g transform="matrix(0.000656168,0,0,0.000656168,0,0)"><path d="M0,0 L4198112,0 L4198112,2759456 L0,2759456 Z" fill="#ffffff" fill-opacity="0" fill-rule="evenodd" /></g></g><g clip-path="url(#clip006)"><g transform="matrix(0.000656168,0,0,0.000656168,350.6667,213.3333)"><path d="M0,1704848 L3663696,1704848 M0,1278128 L3663696,1278128 M0,851408 L3663696,851408 M0,426720 L3663696,426720 M0,0 L3663696,0 " stroke-width="16933.33" stroke-linejoin="round" stroke-miterlimit="13.33333" stroke="#bababa" fill="none" fill-rule="nonzero" /></g></g><g clip-path="url(#clip007)"><g transform="matrix(0.000656168,0,0,0.000656168,350.6667,213.3333)"><path d="M101600,10160 L508000,10160 L508000,10160 L508000,2131568 L508000,2131568 L101600,2131568 ZM713232,105664 L1119632,105664 L1119632,105664 L1119632,2131568 L1119632,2131568 L713232,2131568 ZM1322832,251968 L1729232,251968 L1729232,251968 L1729232,2131568 L1729232,2131568 L1322832,2131568 ZM1934464,424688 L2340864,424688 L2340864,424688 L2340864,2131568 L2340864,2131568 L1934464,2131568 ZM2544064,682752 L2950464,682752 L2950464,682752 L2950464,2131568 L2950464,2131568 L2544064,2131568 ZM3153664,849376 L3562096,849376 L3562096,849376 L3562096,2131568 L3562096,2131568 L3153664,2131568 Z" fill="#012169" fill-rule="nonzero" /><path d="M101600,10160 L508000,10160 L508000,10160 L508000,2131568 L508000,2131568 L101600,2131568 ZM713232,105664 L1119632,105664 L1119632,105664 L1119632,2131568 L1119632,2131568 L713232,2131568 ZM1322832,251968 L1729232,251968 L1729232,251968 L1729232,2131568 L1729232,2131568 L1322832,2131568 ZM1934464,424688 L2340864,424688 L2340864,424688 L2340864,2131568 L2340864,2131568 L1934464,2131568 ZM2544064,682752 L2950464,682752 L2950464,682752 L2950464,2131568 L2950464,2131568 L2544064,2131568 ZM3153664,849376 L3562096,849376 L3562096,849376 L3562096,2131568 L3562096,2131568 L3153664,2131568 Z" stroke-width="8466.667" stroke-linejoin="round" stroke-miterlimit="13.33333" stroke="#ffffff" fill="none" fill-rule="nonzero" /></g></g><g clip-path="url(#clip008)"><g transform="matrix(0.000656168,0,0,0.000656168,350.6667,213.3333)"><path d="M101600,6096 L508000,6096 L508000,6096 L508000,10160 L508000,10160 L101600,10160 ZM713232,10160 L1119632,10160 L1119632,10160 L1119632,105664 L1119632,105664 L713232,105664 ZM1322832,58928 L1729232,58928 L1729232,58928 L1729232,251968 L1729232,251968 L1322832,251968 ZM1934464,180848 L2340864,180848 L2340864,180848 L2340864,424688 L2340864,424688 L1934464,424688 ZM2544064,463296 L2950464,463296 L2950464,463296 L2950464,682752 L2950464,682752 L2544064,682752 ZM3153664,666496 L3562096,666496 L3562096,666496 L3562096,849376 L3562096,849376 L3153664,849376 Z" fill="#009cde" fill-rule="nonzero" /><path d="M101600,6096 L508000,6096 L508000,6096 L508000,10160 L508000,10160 L101600,10160 ZM713232,10160 L1119632,10160 L1119632,10160 L1119632,105664 L1119632,105664 L713232,105664 ZM1322832,58928 L1729232,58928 L1729232,58928 L1729232,251968 L1729232,251968 L1322832,251968 ZM1934464,180848 L2340864,180848 L2340864,180848 L2340864,424688 L2340864,424688 L1934464,424688 ZM2544064,463296 L2950464,463296 L2950464,463296 L2950464,682752 L2950464,682752 L2544064,682752 ZM3153664,666496 L3562096,666496 L3562096,666496 L3562096,849376 L3562096,849376 L3153664,849376 Z" stroke-width="8466.667" stroke-linejoin="round" stroke-miterlimit="13.33333" stroke="#ffffff" fill="none" fill-rule="nonzero" /></g></g><g clip-path="url(#clip009)"><g transform="matrix(0.000656168,0,0,0.000656168,350.6667,213.3333)"><path d="M101600,0 L508000,0 L508000,0 L508000,6096 L508000,6096 L101600,6096 ZM713232,0 L1119632,0 L1119632,0 L1119632,10160 L1119632,10160 L713232,10160 ZM1322832,0 L1729232,0 L1729232,0 L1729232,58928 L1729232,58928 L1322832,58928 ZM1934464,0 L2340864,0 L2340864,0 L2340864,180848 L2340864,180848 L1934464,180848 ZM2544064,0 L2950464,0 L2950464,0 L2950464,463296 L2950464,463296 L2544064,463296 ZM3153664,0 L3562096,0 L3562096,0 L3562096,666496 L3562096,666496 L3153664,666496 Z" fill="#e56200" fill-rule="nonzero" /><path d="M101600,0 L508000,0 L508000,0 L508000,6096 L508000,6096 L101600,6096 ZM713232,0 L1119632,0 L1119632,0 L1119632,10160 L1119632,10160 L713232,10160 ZM1322832,0 L1729232,0 L1729232,0 L1729232,58928 L1729232,58928 L1322832,58928 ZM1934464,0 L2340864,0 L2340864,0 L2340864,180848 L2340864,180848 L1934464,180848 ZM2544064,0 L2950464,0 L2950464,0 L2950464,463296 L2950464,463296 L2544064,463296 ZM3153664,0 L3562096,0 L3562096,0 L3562096,666496 L3562096,666496 L3153664,666496 Z" stroke-width="8466.667" stroke-linejoin="round" stroke-miterlimit="13.33333" stroke="#ffffff" fill="none" fill-rule="nonzero" /></g></g><g clip-path="url(#clip010)"><g transform="matrix(0.000656168,0,0,0.000656168,350.6667,1612)"><g><path d="M0.002465027,-6773.333 L3663696,-6772 " stroke-width="3386.667" stroke-linejoin="round" stroke-miterlimit="13.33333" stroke="#000000" fill="none" fill-rule="evenodd" /><path d="M-0.001232514,3386.667 L3663696,3388 " stroke-width="10160" stroke-linejoin="round" stroke-miterlimit="13.33333" stroke="#000000" fill="none" fill-rule="evenodd" /></g></g></g><g><g clip-path="url(#clip011)"><g><g transform="translate(455.5892,949.2007)"><text><tspan x="0" y="0" font-family="Connections Cond Light,Arial Narrow" font-weight="bold" font-style="normal" font-size="105.3333" fill="#ffffff">99%</tspan></text></g></g></g></g><g><g clip-path="url(#clip012)"><g><g transform="translate(856.2095,980.6138)"><text><tspan x="0" y="0" font-family="Connections Cond Light,Arial Narrow" font-weight="bold" font-style="normal" font-size="105.3333" fill="#ffffff">95%</tspan></text></g></g></g></g><g><g clip-path="url(#clip013)"><g><g transform="translate(1256.829,1028.728)"><text><tspan x="0" y="0" font-family="Connections Cond Light,Arial Narrow" font-weight="bold" font-style="normal" font-size="105.3333" fill="#ffffff">88%</tspan></text></g></g></g></g><g><g clip-path="url(#clip014)"><g><g transform="translate(1657.449,1085.168)"><text><tspan x="0" y="0" font-family="Connections Cond Light,Arial Narrow" font-weight="bold" font-style="normal" font-size="105.3333" fill="#ffffff">80%</tspan></text></g></g></g></g><g><g clip-path="url(#clip015)"><g><g transform="translate(2058.07,1169.522)"><text><tspan x="0" y="0" font-family="Connections Cond Light,Arial Narrow" font-weight="bold" font-style="normal" font-size="105.3333" fill="#ffffff">68%</tspan></text></g></g></g></g><g><g clip-path="url(#clip016)"><g><g transform="translate(2458.69,1224.334)"><text><tspan x="0" y="0" font-family="Connections Cond Light,Arial Narrow" font-weight="bold" font-style="normal" font-size="105.3333" fill="#ffffff">60%</tspan></text></g></g></g></g><g><g clip-path="url(#clip017)"><g><g transform="translate(1283.524,348.9445)"><text><tspan x="0" y="0" font-family="Connections Cond Light,Arial Narrow" font-weight="bold" font-style="normal" font-size="105.3333" fill="#ffffff">9%</tspan></text></g></g></g></g><g><g clip-path="url(#clip018)"><g><g transform="translate(1657.449,444.9628)"><text><tspan x="0" y="0" font-family="Connections Cond Light,Arial Narrow" font-weight="bold" font-style="normal" font-size="105.3333" fill="#ffffff">11%</tspan></text></g></g></g></g><g><g clip-path="url(#clip019)"><g><g transform="translate(2058.07,622.0101)"><text><tspan x="0" y="0" font-family="Connections Cond Light,Arial Narrow" font-weight="bold" font-style="normal" font-size="105.3333" fill="#ffffff">10%</tspan></text></g></g></g></g><g><g clip-path="url(#clip020)"><g><g transform="translate(2485.385,743.4492)"><text><tspan x="0" y="0" font-family="Connections Cond Light,Arial Narrow" font-weight="bold" font-style="normal" font-size="105.3333" fill="#ffffff">9%</tspan></text></g></g></g></g><g><g clip-path="url(#clip021)"><g><g transform="translate(1684.144,305.4694)"><text><tspan x="0" y="0" font-family="Connections Cond Light,Arial Narrow" font-weight="bold" font-style="normal" font-size="105.3333" fill="#ffffff">8%</tspan></text></g></g></g></g><g><g clip-path="url(#clip022)"><g><g transform="translate(2058.07,398.1632)"><text><tspan x="0" y="0" font-family="Connections Cond Light,Arial Narrow" font-weight="bold" font-style="normal" font-size="105.3333" fill="#ffffff">22%</tspan></text></g></g></g></g><g><g clip-path="url(#clip023)"><g><g transform="translate(2458.69,464.7904)"><text><tspan x="0" y="0" font-family="Connections Cond Light,Arial Narrow" font-weight="bold" font-style="normal" font-size="105.3333" fill="#ffffff">31%</tspan></text></g></g></g></g><g><g clip-path="url(#clip024)"><g><g transform="translate(123.6675,1641.417)"><text><tspan x="0" y="0" font-family="Connections Cond Light,Arial Narrow" font-weight="bold" font-style="normal" font-size="105.3333" fill="#000000">0%</tspan></text></g></g></g></g><g><g clip-path="url(#clip025)"><g><g transform="translate(70.16711,1361.664)"><text><tspan x="0" y="0" font-family="Connections Cond Light,Arial Narrow" font-weight="bold" font-style="normal" font-size="105.3333" fill="#000000">20%</tspan></text></g></g></g></g><g><g clip-path="url(#clip026)"><g><g transform="translate(70.16711,1081.912)"><text><tspan x="0" y="0" font-family="Connections Cond Light,Arial Narrow" font-weight="bold" font-style="normal" font-size="105.3333" fill="#000000">40%</tspan></text></g></g></g></g><g><g clip-path="url(#clip027)"><g><g transform="translate(70.16711,802.1592)"><text><tspan x="0" y="0" font-family="Connections Cond Light,Arial Narrow" font-weight="bold" font-style="normal" font-size="105.3333" fill="#000000">60%</tspan></text></g></g></g></g><g><g clip-path="url(#clip028)"><g><g transform="translate(70.16711,522.4068)"><text><tspan x="0" y="0" font-family="Connections Cond Light,Arial Narrow" font-weight="bold" font-style="normal" font-size="105.3333" fill="#000000">80%</tspan></text></g></g></g></g><g><g clip-path="url(#clip029)"><g><g transform="translate(16.66667,242.6544)"><text><tspan x="0" y="0" font-family="Connections Cond Light,Arial Narrow" font-weight="bold" font-style="normal" font-size="105.3333" fill="#000000">100%</tspan></text></g></g></g></g><g><g clip-path="url(#clip030)"><g><g transform="translate(444.0324,1767.666)"><text><tspan x="0" y="0" font-family="Connections Cond Light,Arial Narrow" font-weight="bold" font-style="normal" font-size="105.3333" fill="#000000">2025</tspan></text></g></g></g></g><g><g clip-path="url(#clip031)"><g><g transform="translate(844.6526,1767.666)"><text><tspan x="0" y="0" font-family="Connections Cond Light,Arial Narrow" font-weight="bold" font-style="normal" font-size="105.3333" fill="#000000">2026</tspan></text></g></g></g></g><g><g clip-path="url(#clip032)"><g><g transform="translate(1245.273,1767.666)"><text><tspan x="0" y="0" font-family="Connections Cond Light,Arial Narrow" font-weight="bold" font-style="normal" font-size="105.3333" fill="#000000">2027</tspan></text></g></g></g></g><g><g clip-path="url(#clip033)"><g><g transform="translate(1645.893,1767.666)"><text><tspan x="0" y="0" font-family="Connections Cond Light,Arial Narrow" font-weight="bold" font-style="normal" font-size="105.3333" fill="#000000">2028</tspan></text></g></g></g></g><g><g clip-path="url(#clip034)"><g><g transform="translate(2046.514,1767.666)"><text><tspan x="0" y="0" font-family="Connections Cond Light,Arial Narrow" font-weight="bold" font-style="normal" font-size="105.3333" fill="#000000">2029</tspan></text></g></g></g></g><g><g clip-path="url(#clip035)"><g><g transform="translate(2447.134,1767.666)"><text><tspan x="0" y="0" font-family="Connections Cond Light,Arial Narrow" font-weight="bold" font-style="normal" font-size="105.3333" fill="#000000">2030</tspan></text></g></g></g></g><g clip-path="url(#clip036)"><g transform="matrix(0.000656168,0,0,0.000656168,474.6667,28)"><path d="M0,0 L3088640,0 L3088640,213360 L0,213360 Z" fill="#156082" fill-opacity="0" fill-rule="evenodd" /></g></g><g clip-path="url(#clip037)"><g transform="matrix(0.000656168,0,0,0.000656168,588,70.66666)"><path d="M0,0 L83312,0 L83312,83312 L0,83312 Z" fill="#012169" fill-rule="evenodd" /><path d="M0,0 L83312,0 L83312,0 L83312,83312 L83312,83312 L0,83312 Z" stroke-width="8466.667" stroke-linejoin="round" stroke-miterlimit="13.33333" stroke="#ffffff" fill="none" fill-rule="evenodd" /></g></g><g><g clip-path="url(#clip038)"><g><g transform="translate(665.2782,127.7463)"><text><tspan x="0" y="0" font-family="Connections Cond Light,Arial Narrow" font-weight="bold" font-style="normal" font-size="105.3333" fill="#000000">Ethernet Transceiver</tspan></text></g></g></g></g><g clip-path="url(#clip039)"><g transform="matrix(0.000656168,0,0,0.000656168,1626.667,70.66666)"><path d="M0,0 L83312,0 L83312,83312 L0,83312 Z" fill="#009cde" fill-rule="evenodd" /><path d="M0,0 L83312,0 L83312,0 L83312,83312 L83312,83312 L0,83312 Z" stroke-width="8466.667" stroke-linejoin="round" stroke-miterlimit="13.33333" stroke="#ffffff" fill="none" fill-rule="evenodd" /></g></g><g><g clip-path="url(#clip040)"><g><g transform="translate(1703.77,127.7463)"><text><tspan x="0" y="0" font-family="Connections Cond Light,Arial Narrow" font-weight="bold" font-style="normal" font-size="105.3333" fill="#000000">LPO/LRO</tspan></text></g></g></g></g><g clip-path="url(#clip041)"><g transform="matrix(0.000656168,0,0,0.000656168,2180,70.66666)"><path d="M0,0 L83312,0 L83312,83312 L0,83312 Z" fill="#e56200" fill-rule="evenodd" /><path d="M0,0 L83312,0 L83312,0 L83312,83312 L83312,83312 L0,83312 Z" stroke-width="8466.667" stroke-linejoin="round" stroke-miterlimit="13.33333" stroke="#ffffff" fill="none" fill-rule="evenodd" /></g></g><g><g clip-path="url(#clip042)"><g><g transform="translate(2256.926,127.7463)"><text><tspan x="0" y="0" font-family="Connections Cond Light,Arial Narrow" font-weight="bold" font-style="normal" font-size="105.3333" fill="#000000">CPO</tspan></text></g></g></g></g><g /></g></g></g></g></g></g></g></g></g></svg>