<?xml version="1.0" encoding="UTF-8" standalone="no"?>
<svg xmlns:dc="http://purl.org/dc/elements/1.1/" xmlns:cc="http://creativecommons.org/ns#" xmlns:rdf="http://www.w3.org/1999/02/22-rdf-syntax-ns#" xmlns:svg="http://www.w3.org/2000/svg" xmlns="http://www.w3.org/2000/svg" viewBox="63.06125 322.65 639 344.7" height="344.7" width="639" xml:space="preserve" version="1.1" id="svg2">
  <metadata id="metadata8">
    <rdf:RDF>
      <cc:Work rdf:about="">
        <dc:format>image/svg+xml</dc:format>
        <dc:type rdf:resource="http://purl.org/dc/dcmitype/StillImage"/>
      </cc:Work>
    </rdf:RDF>
  </metadata>
  <defs id="defs6">
    <clipPath id="clipPath16" clipPathUnits="userSpaceOnUse">
      <path style="clip-rule:evenodd" id="path18" d="m 50.4,258.12 511.2,0 0,275.76 -511.2,0 0,-275.76 z"/>
    </clipPath>
    <clipPath id="clipPath26" clipPathUnits="userSpaceOnUse">
      <path style="clip-rule:evenodd" id="path28" d="m 50.4,258.12 511.2,0 0,275.76 -511.2,0 0,-275.76 z"/>
    </clipPath>
    <clipPath id="clipPath48" clipPathUnits="userSpaceOnUse">
      <path style="clip-rule:evenodd" id="path50" d="m 50.52,258.12 511.08,0 0,275.64 -511.08,0 0,-275.64 z"/>
    </clipPath>
    <clipPath id="clipPath60" clipPathUnits="userSpaceOnUse">
      <path style="clip-rule:evenodd" id="path62" d="m 50.52,258.12 511.08,0 0,275.64 -511.08,0 0,-275.64 z"/>
    </clipPath>
    <clipPath id="clipPath72" clipPathUnits="userSpaceOnUse">
      <path style="clip-rule:evenodd" id="path74" d="m 50.52,258.12 511.08,0 0,275.64 -511.08,0 0,-275.64 z"/>
    </clipPath>
    <clipPath id="clipPath84" clipPathUnits="userSpaceOnUse">
      <path style="clip-rule:evenodd" id="path86" d="m 50.52,258.12 511.08,0 0,275.64 -511.08,0 0,-275.64 z"/>
    </clipPath>
    <clipPath id="clipPath96" clipPathUnits="userSpaceOnUse">
      <path style="clip-rule:evenodd" id="path98" d="m 50.52,258.12 511.08,0 0,275.64 -511.08,0 0,-275.64 z"/>
    </clipPath>
    <clipPath id="clipPath108" clipPathUnits="userSpaceOnUse">
      <path style="clip-rule:evenodd" id="path110" d="m 50.52,258.12 511.08,0 0,275.64 -511.08,0 0,-275.64 z"/>
    </clipPath>
    <clipPath id="clipPath120" clipPathUnits="userSpaceOnUse">
      <path style="clip-rule:evenodd" id="path122" d="m 50.52,258.12 511.08,0 0,275.64 -511.08,0 0,-275.64 z"/>
    </clipPath>
    <clipPath id="clipPath132" clipPathUnits="userSpaceOnUse">
      <path style="clip-rule:evenodd" id="path134" d="m 50.52,258.12 511.08,0 0,275.64 -511.08,0 0,-275.64 z"/>
    </clipPath>
    <clipPath id="clipPath144" clipPathUnits="userSpaceOnUse">
      <path style="clip-rule:evenodd" id="path146" d="m 50.52,258.12 511.08,0 0,275.64 -511.08,0 0,-275.64 z"/>
    </clipPath>
    <clipPath id="clipPath156" clipPathUnits="userSpaceOnUse">
      <path style="clip-rule:evenodd" id="path158" d="m 50.52,258.12 511.08,0 0,275.64 -511.08,0 0,-275.64 z"/>
    </clipPath>
    <clipPath id="clipPath168" clipPathUnits="userSpaceOnUse">
      <path style="clip-rule:evenodd" id="path170" d="m 50.52,258.12 511.08,0 0,275.64 -511.08,0 0,-275.64 z"/>
    </clipPath>
    <clipPath id="clipPath180" clipPathUnits="userSpaceOnUse">
      <path style="clip-rule:evenodd" id="path182" d="m 50.52,258.12 511.08,0 0,275.64 -511.08,0 0,-275.64 z"/>
    </clipPath>
    <clipPath id="clipPath192" clipPathUnits="userSpaceOnUse">
      <path style="clip-rule:evenodd" id="path194" d="m 50.52,258.12 511.08,0 0,275.64 -511.08,0 0,-275.64 z"/>
    </clipPath>
    <clipPath id="clipPath204" clipPathUnits="userSpaceOnUse">
      <path style="clip-rule:evenodd" id="path206" d="m 50.52,258.12 511.08,0 0,275.64 -511.08,0 0,-275.64 z"/>
    </clipPath>
    <clipPath id="clipPath216" clipPathUnits="userSpaceOnUse">
      <path style="clip-rule:evenodd" id="path218" d="m 50.52,258.12 511.08,0 0,275.64 -511.08,0 0,-275.64 z"/>
    </clipPath>
    <clipPath id="clipPath228" clipPathUnits="userSpaceOnUse">
      <path style="clip-rule:evenodd" id="path230" d="m 50.52,258.12 511.08,0 0,275.64 -511.08,0 0,-275.64 z"/>
    </clipPath>
    <clipPath id="clipPath240" clipPathUnits="userSpaceOnUse">
      <path style="clip-rule:evenodd" id="path242" d="m 50.52,258.12 511.08,0 0,275.64 -511.08,0 0,-275.64 z"/>
    </clipPath>
    <clipPath id="clipPath252" clipPathUnits="userSpaceOnUse">
      <path style="clip-rule:evenodd" id="path254" d="m 50.52,258.12 511.08,0 0,275.64 -511.08,0 0,-275.64 z"/>
    </clipPath>
    <clipPath id="clipPath264" clipPathUnits="userSpaceOnUse">
      <path style="clip-rule:evenodd" id="path266" d="m 50.52,258.12 511.08,0 0,275.64 -511.08,0 0,-275.64 z"/>
    </clipPath>
    <clipPath id="clipPath276" clipPathUnits="userSpaceOnUse">
      <path style="clip-rule:evenodd" id="path278" d="m 50.52,258.12 511.08,0 0,275.64 -511.08,0 0,-275.64 z"/>
    </clipPath>
    <clipPath id="clipPath288" clipPathUnits="userSpaceOnUse">
      <path style="clip-rule:evenodd" id="path290" d="m 50.52,258.12 511.08,0 0,275.64 -511.08,0 0,-275.64 z"/>
    </clipPath>
    <clipPath id="clipPath300" clipPathUnits="userSpaceOnUse">
      <path style="clip-rule:evenodd" id="path302" d="m 50.52,258.12 511.08,0 0,275.64 -511.08,0 0,-275.64 z"/>
    </clipPath>
    <clipPath id="clipPath312" clipPathUnits="userSpaceOnUse">
      <path style="clip-rule:evenodd" id="path314" d="m 50.52,258.12 511.08,0 0,275.64 -511.08,0 0,-275.64 z"/>
    </clipPath>
    <clipPath id="clipPath324" clipPathUnits="userSpaceOnUse">
      <path style="clip-rule:evenodd" id="path326" d="m 50.52,258.12 511.08,0 0,275.64 -511.08,0 0,-275.64 z"/>
    </clipPath>
    <clipPath id="clipPath336" clipPathUnits="userSpaceOnUse">
      <path style="clip-rule:evenodd" id="path338" d="m 50.52,258.12 511.08,0 0,275.64 -511.08,0 0,-275.64 z"/>
    </clipPath>
    <clipPath id="clipPath348" clipPathUnits="userSpaceOnUse">
      <path style="clip-rule:evenodd" id="path350" d="m 50.52,258.12 511.08,0 0,275.64 -511.08,0 0,-275.64 z"/>
    </clipPath>
    <clipPath id="clipPath360" clipPathUnits="userSpaceOnUse">
      <path style="clip-rule:evenodd" id="path362" d="m 50.52,258.12 511.08,0 0,275.64 -511.08,0 0,-275.64 z"/>
    </clipPath>
    <clipPath id="clipPath372" clipPathUnits="userSpaceOnUse">
      <path style="clip-rule:evenodd" id="path374" d="m 50.52,258.12 511.08,0 0,275.64 -511.08,0 0,-275.64 z"/>
    </clipPath>
    <clipPath id="clipPath384" clipPathUnits="userSpaceOnUse">
      <path style="clip-rule:evenodd" id="path386" d="m 50.52,258.12 511.08,0 0,275.64 -511.08,0 0,-275.64 z"/>
    </clipPath>
    <clipPath id="clipPath396" clipPathUnits="userSpaceOnUse">
      <path style="clip-rule:evenodd" id="path398" d="m 50.52,258.12 511.08,0 0,275.64 -511.08,0 0,-275.64 z"/>
    </clipPath>
    <clipPath id="clipPath408" clipPathUnits="userSpaceOnUse">
      <path style="clip-rule:evenodd" id="path410" d="m 50.52,258.12 511.08,0 0,275.64 -511.08,0 0,-275.64 z"/>
    </clipPath>
    <clipPath id="clipPath420" clipPathUnits="userSpaceOnUse">
      <path style="clip-rule:evenodd" id="path422" d="m 50.52,258.12 511.08,0 0,275.64 -511.08,0 0,-275.64 z"/>
    </clipPath>
    <clipPath id="clipPath432" clipPathUnits="userSpaceOnUse">
      <path style="clip-rule:evenodd" id="path434" d="m 50.52,258.12 511.08,0 0,275.64 -511.08,0 0,-275.64 z"/>
    </clipPath>
    <clipPath id="clipPath444" clipPathUnits="userSpaceOnUse">
      <path style="clip-rule:evenodd" id="path446" d="m 50.52,258.12 511.08,0 0,275.64 -511.08,0 0,-275.64 z"/>
    </clipPath>
    <clipPath id="clipPath456" clipPathUnits="userSpaceOnUse">
      <path style="clip-rule:evenodd" id="path458" d="m 50.52,258.12 511.08,0 0,275.64 -511.08,0 0,-275.64 z"/>
    </clipPath>
    <clipPath id="clipPath468" clipPathUnits="userSpaceOnUse">
      <path style="clip-rule:evenodd" id="path470" d="m 50.52,258.12 511.08,0 0,275.64 -511.08,0 0,-275.64 z"/>
    </clipPath>
    <clipPath id="clipPath482" clipPathUnits="userSpaceOnUse">
      <path style="clip-rule:evenodd" id="path484" d="m 50.52,258.12 511.08,0 0,275.64 -511.08,0 0,-275.64 z"/>
    </clipPath>
    <clipPath id="clipPath496" clipPathUnits="userSpaceOnUse">
      <path style="clip-rule:evenodd" id="path498" d="m 50.52,258.12 511.08,0 0,275.64 -511.08,0 0,-275.64 z"/>
    </clipPath>
    <clipPath id="clipPath510" clipPathUnits="userSpaceOnUse">
      <path style="clip-rule:evenodd" id="path512" d="m 50.52,258.12 511.08,0 0,275.64 -511.08,0 0,-275.64 z"/>
    </clipPath>
    <clipPath id="clipPath524" clipPathUnits="userSpaceOnUse">
      <path style="clip-rule:evenodd" id="path526" d="m 50.52,258.12 511.08,0 0,275.64 -511.08,0 0,-275.64 z"/>
    </clipPath>
    <clipPath id="clipPath538" clipPathUnits="userSpaceOnUse">
      <path style="clip-rule:evenodd" id="path540" d="m 50.52,258.12 511.08,0 0,275.64 -511.08,0 0,-275.64 z"/>
    </clipPath>
  </defs>
  <g transform="matrix(1.25,0,0,-1.25,0,990)" id="g10">
    <g id="g12">
      <g clip-path="url(#clipPath16)" id="g14">
        <path id="path20" style="fill:none;stroke:#000000;stroke-width:0.14;stroke-linecap:butt;stroke-linejoin:miter;stroke-miterlimit:10;stroke-dasharray:none;stroke-opacity:0" d="m 50.519,533.83 511.031,0 0,-275.81 -511.031,0 0,275.81 z"/>
      </g>
    </g>
    <g id="g22">
      <g clip-path="url(#clipPath26)" id="g24">
        <path id="path30" style="fill:#ffffff;fill-opacity:1;fill-rule:evenodd;stroke:none" d="m 50.519,258.02 511.03,0 0,275.8 -511.03,0 0,-275.8 z"/>
      </g>
    </g>
    <path id="path32" style="fill:#137cb1;fill-opacity:1;fill-rule:nonzero;stroke:none" d="m 90.335,318.6 16.145,0 0,-38.21 -16.145,0 0,38.21 z m 93.625,66.08 16.15,0 0,-104.29 -16.15,0 0,104.29 z m 93.63,-98.59 16.15,0 0,-5.7 -16.15,0 0,5.7 z m 93.52,18.37 16.15,0 0,-24.07 -16.15,0 0,24.07 z m 93.63,32.4 16.15,0 0,-56.47 -16.15,0 0,56.47 z"/>
    <path id="path34" style="fill:#eacc80;fill-opacity:1;fill-rule:nonzero;stroke:none" d="m 106.48,334.01 16.15,0 0,-53.62 -16.15,0 0,53.62 z m 93.63,92.78 16.15,0 0,-146.4 -16.15,0 0,146.4 z m 93.63,-121.17 16.15,0 0,-25.23 -16.15,0 0,25.23 z m 93.52,5.59 16.15,0 0,-30.82 -16.15,0 0,30.82 z m 93.63,49.51 16.15,0 0,-80.33 -16.15,0 0,80.33 z"/>
    <path id="path36" style="fill:#4aac6b;fill-opacity:1;fill-rule:nonzero;stroke:none" d="m 122.63,339.71 16.15,0 0,-59.32 -16.15,0 0,59.32 z m 93.63,95.21 16.15,0 0,-154.53 -16.15,0 0,154.53 z m 93.63,-108.93 16.04,0 0,-45.6 -16.04,0 0,45.6 z m 93.52,10.24 16.15,0 0,-55.84 -16.15,0 0,55.84 z m 93.63,33.25 16.15,0 0,-89.09 -16.15,0 0,89.09 z"/>
    <path id="path38" style="fill:#a8d7e2;fill-opacity:1;fill-rule:nonzero;stroke:none" d="m 138.78,364.52 16.15,0 0,-84.13 -16.15,0 0,84.13 z m 93.63,-7.6 16.15,0 0,-76.53 -16.15,0 0,76.53 z m 93.52,-20.16 16.15,0 0,-56.37 -16.15,0 0,56.37 z m 93.63,-25.44 16.15,0 0,-30.93 -16.15,0 0,30.93 z m 93.63,45.28 16.15,0 0,-76.21 -16.15,0 0,76.21 z"/>
    <path id="path40" style="fill:#e58061;fill-opacity:1;fill-rule:nonzero;stroke:none" d="m 154.93,393.33 16.15,0 0,-112.94 -16.15,0 0,112.94 z m 93.63,-23.53 16.05,0 0,-89.41 -16.05,0 0,89.41 z m 93.52,-6.23 16.15,0 0,-83.18 -16.15,0 0,83.18 z m 93.63,-41.49 16.15,0 0,-41.69 -16.15,0 0,41.69 z m 93.63,56.79 16.04,0 0,-98.48 -16.04,0 0,98.48 z"/>
    <path id="path42" style="fill:none;stroke:#d9d9d9;stroke-width:0.65972;stroke-linecap:butt;stroke-linejoin:round;stroke-miterlimit:10;stroke-dasharray:none;stroke-opacity:1" d="m 83.931,280.39 467.949,0"/>
    <g id="g44">
      <g clip-path="url(#clipPath48)" id="g46"><text id="text52" style="font-variant:normal;font-weight:normal;font-size:9.72000027px;font-family:Arial;-inkscape-font-specification:Arial;writing-mode:lr-tb;fill:#137cb1;fill-opacity:1;fill-rule:nonzero;stroke:none" transform="matrix(1,0,0,-1,88.752,324.58)"><tspan id="tspan54" y="0" x="0 5.37602 10.75204">12%</tspan></text>
</g>
    </g>
    <g id="g56">
      <g clip-path="url(#clipPath60)" id="g58"><text id="text64" style="font-variant:normal;font-weight:normal;font-size:9.6960001px;font-family:Arial;-inkscape-font-specification:Arial;writing-mode:lr-tb;fill:#137cb1;fill-opacity:1;fill-rule:nonzero;stroke:none" transform="matrix(1,0,0,-1,182.35,390.65)"><tspan id="tspan66" y="0" x="0 5.3759761 10.751952">33%</tspan></text>
</g>
    </g>
    <g id="g68">
      <g clip-path="url(#clipPath72)" id="g70"><text id="text76" style="font-variant:normal;font-weight:normal;font-size:9.6960001px;font-family:Arial;-inkscape-font-specification:Arial;writing-mode:lr-tb;fill:#137cb1;fill-opacity:1;fill-rule:nonzero;stroke:none" transform="matrix(1,0,0,-1,278.59,292.01)"><tspan id="tspan78" y="0" x="0 5.3999958">2%</tspan></text>
</g>
    </g>
    <g id="g80">
      <g clip-path="url(#clipPath84)" id="g82"><text id="text88" style="font-variant:normal;font-weight:normal;font-size:9.6960001px;font-family:Arial;-inkscape-font-specification:Arial;writing-mode:lr-tb;fill:#137cb1;fill-opacity:1;fill-rule:nonzero;stroke:none" transform="matrix(1,0,0,-1,372.19,310.39)"><tspan id="tspan90" y="0" x="0 5.3999958">8%</tspan></text>
</g>
    </g>
    <g id="g92">
      <g clip-path="url(#clipPath96)" id="g94"><text id="text100" style="font-variant:normal;font-weight:normal;font-size:9.72000027px;font-family:Arial;-inkscape-font-specification:Arial;writing-mode:lr-tb;fill:#137cb1;fill-opacity:1;fill-rule:nonzero;stroke:none" transform="matrix(1,0,0,-1,463.18,342.77)"><tspan id="tspan102" y="0" x="0 5.37602 10.75204">18%</tspan></text>
</g>
    </g>
    <g id="g104">
      <g clip-path="url(#clipPath108)" id="g106"><text id="text112" style="font-variant:normal;font-weight:normal;font-size:9.72000027px;font-family:Arial;-inkscape-font-specification:Arial;writing-mode:lr-tb;fill:#eacc80;fill-opacity:1;fill-rule:nonzero;stroke:none" transform="matrix(1,0,0,-1,104.88,339.98)"><tspan id="tspan114" y="0" x="0 5.4000001 10.8">17%</tspan></text>
</g>
    </g>
    <g id="g116">
      <g clip-path="url(#clipPath120)" id="g118"><text id="text124" style="font-variant:normal;font-weight:normal;font-size:9.72000027px;font-family:Arial;-inkscape-font-specification:Arial;writing-mode:lr-tb;fill:#eacc80;fill-opacity:1;fill-rule:nonzero;stroke:none" transform="matrix(1,0,0,-1,198.5,432.77)"><tspan id="tspan126" y="0" x="0 5.37602 10.75204">47%</tspan></text>
</g>
    </g>
    <g id="g128">
      <g clip-path="url(#clipPath132)" id="g130"><text id="text136" style="font-variant:normal;font-weight:normal;font-size:9.6960001px;font-family:Arial;-inkscape-font-specification:Arial;writing-mode:lr-tb;fill:#eacc80;fill-opacity:1;fill-rule:nonzero;stroke:none" transform="matrix(1,0,0,-1,294.74,311.54)"><tspan id="tspan138" y="0" x="0 5.3759761">8%</tspan></text>
</g>
    </g>
    <g id="g140">
      <g clip-path="url(#clipPath144)" id="g142"><text id="text148" style="font-variant:normal;font-weight:normal;font-size:9.72000027px;font-family:Arial;-inkscape-font-specification:Arial;writing-mode:lr-tb;fill:#eacc80;fill-opacity:1;fill-rule:nonzero;stroke:none" transform="matrix(1,0,0,-1,385.7,317.16)"><tspan id="tspan150" y="0" x="0 5.37602 10.75204">10%</tspan></text>
</g>
    </g>
    <g id="g152">
      <g clip-path="url(#clipPath156)" id="g154"><text id="text160" style="font-variant:normal;font-weight:normal;font-size:9.6960001px;font-family:Arial;-inkscape-font-specification:Arial;writing-mode:lr-tb;fill:#eacc80;fill-opacity:1;fill-rule:nonzero;stroke:none" transform="matrix(1,0,0,-1,479.3,366.62)"><tspan id="tspan162" y="0" x="0 5.3759761 10.751952">26%</tspan></text>
</g>
    </g>
    <g id="g164">
      <g clip-path="url(#clipPath168)" id="g166"><text id="text172" style="font-variant:normal;font-weight:normal;font-size:9.72000027px;font-family:Arial;-inkscape-font-specification:Arial;writing-mode:lr-tb;fill:#4aac6b;fill-opacity:1;fill-rule:nonzero;stroke:none" transform="matrix(1,0,0,-1,121.03,345.7)"><tspan id="tspan174" y="0" x="0 5.37602 10.75204">19%</tspan></text>
</g>
    </g>
    <g id="g176">
      <g clip-path="url(#clipPath180)" id="g178"><text id="text184" style="font-variant:normal;font-weight:normal;font-size:9.72000027px;font-family:Arial;-inkscape-font-specification:Arial;writing-mode:lr-tb;fill:#4aac6b;fill-opacity:1;fill-rule:nonzero;stroke:none" transform="matrix(1,0,0,-1,214.63,440.83)"><tspan id="tspan186" y="0" x="0 5.37602 10.75204">49%</tspan></text>
</g>
    </g>
    <g id="g188">
      <g clip-path="url(#clipPath192)" id="g190"><text id="text196" style="font-variant:normal;font-weight:normal;font-size:9.72000027px;font-family:Arial;-inkscape-font-specification:Arial;writing-mode:lr-tb;fill:#4aac6b;fill-opacity:1;fill-rule:nonzero;stroke:none" transform="matrix(1,0,0,-1,308.23,331.97)"><tspan id="tspan198" y="0" x="0 5.4000001 10.8">15%</tspan></text>
</g>
    </g>
    <g id="g200">
      <g clip-path="url(#clipPath204)" id="g202"><text id="text208" style="font-variant:normal;font-weight:normal;font-size:9.72000027px;font-family:Arial;-inkscape-font-specification:Arial;writing-mode:lr-tb;fill:#4aac6b;fill-opacity:1;fill-rule:nonzero;stroke:none" transform="matrix(1,0,0,-1,401.83,342.22)"><tspan id="tspan210" y="0" x="0 5.4000001 10.8">18%</tspan></text>
</g>
    </g>
    <g id="g212">
      <g clip-path="url(#clipPath216)" id="g214"><text id="text220" style="font-variant:normal;font-weight:normal;font-size:9.6960001px;font-family:Arial;-inkscape-font-specification:Arial;writing-mode:lr-tb;fill:#4aac6b;fill-opacity:1;fill-rule:nonzero;stroke:none" transform="matrix(1,0,0,-1,495.46,375.46)"><tspan id="tspan222" y="0" x="0 5.3759761 10.751952">28%</tspan></text>
</g>
    </g>
    <g id="g224">
      <g clip-path="url(#clipPath228)" id="g226"><text id="text232" style="font-variant:normal;font-weight:normal;font-size:9.72000027px;font-family:Arial;-inkscape-font-specification:Arial;writing-mode:lr-tb;fill:#a8d7e2;fill-opacity:1;fill-rule:nonzero;stroke:none" transform="matrix(1,0,0,-1,137.16,370.51)"><tspan id="tspan234" y="0" x="0 5.4000001 10.8">27%</tspan></text>
</g>
    </g>
    <g id="g236">
      <g clip-path="url(#clipPath240)" id="g238"><text id="text244" style="font-variant:normal;font-weight:normal;font-size:9.72000027px;font-family:Arial;-inkscape-font-specification:Arial;writing-mode:lr-tb;fill:#a8d7e2;fill-opacity:1;fill-rule:nonzero;stroke:none" transform="matrix(1,0,0,-1,230.76,362.88)"><tspan id="tspan246" y="0" x="0 5.4000001 10.8">24%</tspan></text>
</g>
    </g>
    <g id="g248">
      <g clip-path="url(#clipPath252)" id="g250"><text id="text256" style="font-variant:normal;font-weight:normal;font-size:9.72000027px;font-family:Arial;-inkscape-font-specification:Arial;writing-mode:lr-tb;fill:#a8d7e2;fill-opacity:1;fill-rule:nonzero;stroke:none" transform="matrix(1,0,0,-1,324.38,342.67)"><tspan id="tspan258" y="0" x="0 5.37602 10.75204">18%</tspan></text>
</g>
    </g>
    <g id="g260">
      <g clip-path="url(#clipPath264)" id="g262"><text id="text268" style="font-variant:normal;font-weight:normal;font-size:9.6960001px;font-family:Arial;-inkscape-font-specification:Arial;writing-mode:lr-tb;fill:#a8d7e2;fill-opacity:1;fill-rule:nonzero;stroke:none" transform="matrix(1,0,0,-1,417.98,317.23)"><tspan id="tspan270" y="0" x="0 5.3759761 10.751952">10%</tspan></text>
</g>
    </g>
    <g id="g272">
      <g clip-path="url(#clipPath276)" id="g274"><text id="text280" style="font-variant:normal;font-weight:normal;font-size:9.6960001px;font-family:Arial;-inkscape-font-specification:Arial;writing-mode:lr-tb;fill:#a8d7e2;fill-opacity:1;fill-rule:nonzero;stroke:none" transform="matrix(1,0,0,-1,511.58,362.5)"><tspan id="tspan282" y="0" x="0 5.3759761 10.751952">24%</tspan></text>
</g>
    </g>
    <g id="g284">
      <g clip-path="url(#clipPath288)" id="g286"><text id="text292" style="font-variant:normal;font-weight:normal;font-size:9.72000027px;font-family:Arial;-inkscape-font-specification:Arial;writing-mode:lr-tb;fill:#e58061;fill-opacity:1;fill-rule:nonzero;stroke:none" transform="matrix(1,0,0,-1,153.31,399.31)"><tspan id="tspan294" y="0" x="0 5.37602 10.75204">36%</tspan></text>
</g>
    </g>
    <g id="g296">
      <g clip-path="url(#clipPath300)" id="g298"><text id="text304" style="font-variant:normal;font-weight:normal;font-size:9.6960001px;font-family:Arial;-inkscape-font-specification:Arial;writing-mode:lr-tb;fill:#e58061;fill-opacity:1;fill-rule:nonzero;stroke:none" transform="matrix(1,0,0,-1,246.91,375.74)"><tspan id="tspan306" y="0" x="0 5.3759761 10.751952">29%</tspan></text>
</g>
    </g>
    <g id="g308">
      <g clip-path="url(#clipPath312)" id="g310"><text id="text316" style="font-variant:normal;font-weight:normal;font-size:9.72000027px;font-family:Arial;-inkscape-font-specification:Arial;writing-mode:lr-tb;fill:#e58061;fill-opacity:1;fill-rule:nonzero;stroke:none" transform="matrix(1,0,0,-1,340.51,369.53)"><tspan id="tspan318" y="0" x="0 5.37602 10.75204">27%</tspan></text>
</g>
    </g>
    <g id="g320">
      <g clip-path="url(#clipPath324)" id="g322"><text id="text328" style="font-variant:normal;font-weight:normal;font-size:9.72000027px;font-family:Arial;-inkscape-font-specification:Arial;writing-mode:lr-tb;fill:#e58061;fill-opacity:1;fill-rule:nonzero;stroke:none" transform="matrix(1,0,0,-1,434.11,328.06)"><tspan id="tspan330" y="0" x="0 5.4000001 10.8">13%</tspan></text>
</g>
    </g>
    <g id="g332">
      <g clip-path="url(#clipPath336)" id="g334"><text id="text340" style="font-variant:normal;font-weight:normal;font-size:9.72000027px;font-family:Arial;-inkscape-font-specification:Arial;writing-mode:lr-tb;fill:#e58061;fill-opacity:1;fill-rule:nonzero;stroke:none" transform="matrix(1,0,0,-1,527.74,384.82)"><tspan id="tspan342" y="0" x="0 5.37602 10.75204">31%</tspan></text>
</g>
    </g>
    <g id="g344">
      <g clip-path="url(#clipPath348)" id="g346"><text id="text352" style="font-variant:normal;font-weight:normal;font-size:9.72000027px;font-family:Arial;-inkscape-font-specification:Arial;writing-mode:lr-tb;fill:#000000;fill-opacity:1;fill-rule:nonzero;stroke:none" transform="matrix(1,0,0,-1,61.632,277.25)"><tspan id="tspan354" y="0" x="0 5.37602">0%</tspan></text>
</g>
    </g>
    <g id="g356">
      <g clip-path="url(#clipPath360)" id="g358"><text id="text364" style="font-variant:normal;font-weight:normal;font-size:9.72000027px;font-family:Arial;-inkscape-font-specification:Arial;writing-mode:lr-tb;fill:#000000;fill-opacity:1;fill-rule:nonzero;stroke:none" transform="matrix(1,0,0,-1,56.256,339.84)"><tspan id="tspan366" y="0" x="0 5.37602 10.75204">20%</tspan></text>
</g>
    </g>
    <g id="g368">
      <g clip-path="url(#clipPath372)" id="g370"><text id="text376" style="font-variant:normal;font-weight:normal;font-size:9.6960001px;font-family:Arial;-inkscape-font-specification:Arial;writing-mode:lr-tb;fill:#000000;fill-opacity:1;fill-rule:nonzero;stroke:none" transform="matrix(1,0,0,-1,56.256,402.43)"><tspan id="tspan378" y="0" x="0 5.3759761 10.751952">40%</tspan></text>
</g>
    </g>
    <g id="g380">
      <g clip-path="url(#clipPath384)" id="g382"><text id="text388" style="font-variant:normal;font-weight:normal;font-size:9.6960001px;font-family:Arial;-inkscape-font-specification:Arial;writing-mode:lr-tb;fill:#000000;fill-opacity:1;fill-rule:nonzero;stroke:none" transform="matrix(1,0,0,-1,56.256,465.02)"><tspan id="tspan390" y="0" x="0 5.3759761 10.751952">60%</tspan></text>
</g>
    </g>
    <g id="g392">
      <g clip-path="url(#clipPath396)" id="g394"><text id="text400" style="font-variant:normal;font-weight:normal;font-size:9.6960001px;font-family:Arial;-inkscape-font-specification:Arial;writing-mode:lr-tb;fill:#000000;fill-opacity:1;fill-rule:nonzero;stroke:none" transform="matrix(1,0,0,-1,124.03,265.7)"><tspan id="tspan402" y="0" x="0 6.960012">US</tspan></text>
</g>
    </g>
    <g id="g404">
      <g clip-path="url(#clipPath408)" id="g406"><text id="text412" style="font-variant:normal;font-weight:normal;font-size:9.6960001px;font-family:Arial;-inkscape-font-specification:Arial;writing-mode:lr-tb;fill:#000000;fill-opacity:1;fill-rule:nonzero;stroke:none" transform="matrix(1,0,0,-1,211.7,265.7)"><tspan id="tspan414" y="0" x="0 7.0005121 12.391488 14.602176 19.993153">China</tspan></text>
</g>
    </g>
    <g id="g416">
      <g clip-path="url(#clipPath420)" id="g418"><text id="text424" style="font-variant:normal;font-weight:normal;font-size:9.6960001px;font-family:Arial;-inkscape-font-specification:Arial;writing-mode:lr-tb;fill:#000000;fill-opacity:1;fill-rule:nonzero;stroke:none" transform="matrix(1,0,0,-1,311.23,265.7)"><tspan id="tspan426" y="0" x="0 6.9840121">UK</tspan></text>
</g>
    </g>
    <g id="g428">
      <g clip-path="url(#clipPath432)" id="g430"><text id="text436" style="font-variant:normal;font-weight:normal;font-size:9.6960001px;font-family:Arial;-inkscape-font-specification:Arial;writing-mode:lr-tb;fill:#000000;fill-opacity:1;fill-rule:nonzero;stroke:none" transform="matrix(1,0,0,-1,391.66,265.7)"><tspan id="tspan438" y="0" x="0 7.5144 12.905376 16.19232 24.230305 29.621281 35.012257">Germany</tspan></text>
</g>
    </g>
    <g id="g440">
      <g clip-path="url(#clipPath444)" id="g442"><text id="text448" style="font-variant:normal;font-weight:normal;font-size:9.6960001px;font-family:Arial;-inkscape-font-specification:Arial;writing-mode:lr-tb;fill:#000000;fill-opacity:1;fill-rule:nonzero;stroke:none" transform="matrix(1,0,0,-1,491.18,265.7)"><tspan id="tspan450" y="0" x="0 7.485312 9.6863041 15.07728 20.439169 25.830145">Global</tspan></text>
</g>
    </g>
    <g id="g452">
      <g clip-path="url(#clipPath456)" id="g454"><text id="text460" style="font-variant:normal;font-weight:normal;font-size:11.61600018px;font-family:Arial;-inkscape-font-specification:Arial;writing-mode:lr-tb;fill:#000000;fill-opacity:1;fill-rule:nonzero;stroke:none" transform="matrix(1,0,0,-1,59.736,516.48)"><tspan id="tspan462" y="0" x="0 10.326624 13.509408 19.967903 23.197151 26.461248 34.789921 37.310593 40.353985 43.583233 50.041729 53.909855 60.368351 66.826851 70.056099 73.238876 75.759552 83.46096 89.919456 96.31987 102.77837 109.17879 112.52419 122.11901 128.5775 134.97792 141.43642 143.93385 147.27927 155.60794 161.41594 167.87444 171.74255 177.55057 180.59395 187.85396 194.31245 200.71286 203.94211 206.27693 213.97833 217.84647 224.30496 227.53421 235.28207 240.95068 244.17993 248.09453 254.55302 264.22916 270.68765 273.17346 278.76077 282.32687 285.55612 292.01462 295.27872 301.73721 305.60535 312.06384 317.87183 321.10107 327.55957 333.97162 337.01501 339.53568 345.99417 349.22342 356.93646 363.39496 368.95901 371.47968 377.93817 384.33859 387.28906 394.33997">% of Different iPhone Model Users That Are Extremely Interested in Buying A </tspan></text>
</g>
    </g>
    <g id="g464">
      <g clip-path="url(#clipPath468)" id="g466"><text id="text472" style="font-variant:normal;font-weight:normal;font-size:11.61600018px;font-family:Arial;-inkscape-font-specification:Arial;writing-mode:lr-tb;fill:#000000;fill-opacity:1;fill-rule:nonzero;stroke:none" transform="matrix(1,0,0,-1,59.736,503.09)"><tspan id="tspan474" y="0" x="0 7.0509119 13.509408 16.006847 22.465343 28.865761 35.324257 37.821697 44.280193 47.602367 50.123039 57.824448 64.282944 70.683357 77.141853">Foldable iPhone</tspan></text>
</g>
    </g>
    <path id="path476" style="fill:#137cb1;fill-opacity:1;fill-rule:evenodd;stroke:none" d="m 87.701,490.15 4.8647,0 0,4.8647 -4.8647,0 0,-4.8647 z"/>
    <g id="g478">
      <g clip-path="url(#clipPath482)" id="g480"><text id="text486" style="font-variant:normal;font-weight:normal;font-size:9.6960001px;font-family:Arial;-inkscape-font-specification:Arial;writing-mode:lr-tb;fill:#000000;fill-opacity:1;fill-rule:nonzero;stroke:none" transform="matrix(1,0,0,-1,94.68,489.46)"><tspan id="tspan488" y="0" x="0 8.0379839 10.258368 15.649344 17.772768 20.526432 25.917408 28.564417 35.031647 41.498878 44.223457 52.26144 57.652416 63.043392 68.434364 70.683838">mini/e/SE Models</tspan></text>
</g>
    </g>
    <path id="path490" style="fill:#eacc80;fill-opacity:1;fill-rule:evenodd;stroke:none" d="m 196.14,490.15 4.8647,0 0,4.8647 -4.8647,0 0,-4.8647 z"/>
    <g id="g492">
      <g clip-path="url(#clipPath496)" id="g494"><text id="text500" style="font-variant:normal;font-weight:normal;font-size:9.6960001px;font-family:Arial;-inkscape-font-specification:Arial;writing-mode:lr-tb;fill:#000000;fill-opacity:1;fill-rule:nonzero;stroke:none" transform="matrix(1,0,0,-1,203.16,489.46)"><tspan id="tspan502" y="0" x="0 6.4284482 11.819424 16.667423 22.029312 24.666624 32.77248 38.163456 43.525345 48.916321 51.010654">Base Models</tspan></text>
</g>
    </g>
    <path id="path504" style="fill:#4aac6b;fill-opacity:1;fill-rule:evenodd;stroke:none" d="m 285.23,490.15 4.8647,0 0,4.8647 -4.8647,0 0,-4.8647 z"/>
    <g id="g506">
      <g clip-path="url(#clipPath510)" id="g508"><text id="text514" style="font-variant:normal;font-weight:normal;font-size:9.6960001px;font-family:Arial;-inkscape-font-specification:Arial;writing-mode:lr-tb;fill:#000000;fill-opacity:1;fill-rule:nonzero;stroke:none" transform="matrix(1,0,0,-1,292.25,489.46)"><tspan id="tspan516" y="0" x="0 6.4672322 8.6779203 14.068896 18.829632 21.583296 29.621281 35.012257 40.403233 45.794209 48.043678">Plus Models</tspan></text>
</g>
    </g>
    <path id="path518" style="fill:#a8d7e2;fill-opacity:1;fill-rule:evenodd;stroke:none" d="m 371.09,490.15 4.8647,0 0,4.8647 -4.8647,0 0,-4.8647 z"/>
    <g id="g520">
      <g clip-path="url(#clipPath524)" id="g522"><text id="text528" style="font-variant:normal;font-weight:normal;font-size:9.6960001px;font-family:Arial;-inkscape-font-specification:Arial;writing-mode:lr-tb;fill:#000000;fill-opacity:1;fill-rule:nonzero;stroke:none" transform="matrix(1,0,0,-1,378.12,489.46)"><tspan id="tspan530" y="0" x="0 6.4672322 9.7347841 15.12576 17.772768 25.898016 31.288992 36.67997 42.070946 44.223457">Pro Models</tspan></text>
</g>
    </g>
    <path id="path532" style="fill:#e58061;fill-opacity:1;fill-rule:evenodd;stroke:none" d="m 453.18,490.15 4.8647,0 0,4.8647 -4.8647,0 0,-4.8647 z"/>
    <g id="g534">
      <g clip-path="url(#clipPath538)" id="g536"><text id="text542" style="font-variant:normal;font-weight:normal;font-size:9.6960001px;font-family:Arial;-inkscape-font-specification:Arial;writing-mode:lr-tb;fill:#000000;fill-opacity:1;fill-rule:nonzero;stroke:none" transform="matrix(1,0,0,-1,460.22,489.46)"><tspan id="tspan544" y="0" x="0 6.4672322 9.7347841 15.12576 17.772768 25.898016 31.288992 36.049728 38.803391 46.841377 52.232353 57.623329 63.014305 65.263779">Pro Max Models</tspan></text>
</g>
    </g>
    <g id="g546">
      <path id="path548" style="fill:none;stroke:#000000;stroke-width:1.75919998;stroke-linecap:butt;stroke-linejoin:round;stroke-miterlimit:10;stroke-dasharray:7.037, 5.2777;stroke-dashoffset:0;stroke-opacity:1" d="m 456.52,447.87 c 0,8.88 7.2,16.08 16.08,16.08 l 64.32,0 c 8.88,0 16.08,-7.2 16.08,-16.08 l 0,-170.72 c 0,-8.88 -7.2,-16.08 -16.08,-16.08 l -64.32,0 c -8.88,0 -16.08,7.2 -16.08,16.08 l 0,170.72 z"/>
    </g>
  </g>
</svg>
