<?xml version="1.0" encoding="UTF-8" standalone="no"?>
<svg xmlns:dc="http://purl.org/dc/elements/1.1/" xmlns:cc="http://creativecommons.org/ns#" xmlns:rdf="http://www.w3.org/1999/02/22-rdf-syntax-ns#" xmlns:svg="http://www.w3.org/2000/svg" xmlns="http://www.w3.org/2000/svg" viewBox="63 322.375 639 345.125" height="345.125" width="639" xml:space="preserve" version="1.1" id="svg2">
  <metadata id="metadata8">
    <rdf:RDF>
      <cc:Work rdf:about="">
        <dc:format>image/svg+xml</dc:format>
        <dc:type rdf:resource="http://purl.org/dc/dcmitype/StillImage"/>
      </cc:Work>
    </rdf:RDF>
  </metadata>
  <defs id="defs6">
    <clipPath id="clipPath16" clipPathUnits="userSpaceOnUse">
      <path style="clip-rule:evenodd" id="path18" d="m 50.4,258 511.2,0 0,276.12 -511.2,0 0,-276.12 z"/>
    </clipPath>
    <clipPath id="clipPath26" clipPathUnits="userSpaceOnUse">
      <path style="clip-rule:evenodd" id="path28" d="m 50.4,258 511.2,0 0,276.12 -511.2,0 0,-276.12 z"/>
    </clipPath>
    <clipPath id="clipPath46" clipPathUnits="userSpaceOnUse">
      <path style="clip-rule:evenodd" id="path48" d="m 50.52,258 511.08,0 0,276 -511.08,0 0,-276 z"/>
    </clipPath>
    <clipPath id="clipPath62" clipPathUnits="userSpaceOnUse">
      <path style="clip-rule:evenodd" id="path64" d="m 50.52,258 511.08,0 0,276 -511.08,0 0,-276 z"/>
    </clipPath>
    <clipPath id="clipPath78" clipPathUnits="userSpaceOnUse">
      <path style="clip-rule:evenodd" id="path80" d="m 50.52,258 511.08,0 0,276 -511.08,0 0,-276 z"/>
    </clipPath>
    <clipPath id="clipPath94" clipPathUnits="userSpaceOnUse">
      <path style="clip-rule:evenodd" id="path96" d="m 50.52,258 511.08,0 0,276 -511.08,0 0,-276 z"/>
    </clipPath>
    <clipPath id="clipPath110" clipPathUnits="userSpaceOnUse">
      <path style="clip-rule:evenodd" id="path112" d="m 50.52,258 511.08,0 0,276 -511.08,0 0,-276 z"/>
    </clipPath>
    <clipPath id="clipPath126" clipPathUnits="userSpaceOnUse">
      <path style="clip-rule:evenodd" id="path128" d="m 50.52,258 511.08,0 0,276 -511.08,0 0,-276 z"/>
    </clipPath>
    <clipPath id="clipPath142" clipPathUnits="userSpaceOnUse">
      <path style="clip-rule:evenodd" id="path144" d="m 50.52,258 511.08,0 0,276 -511.08,0 0,-276 z"/>
    </clipPath>
    <clipPath id="clipPath158" clipPathUnits="userSpaceOnUse">
      <path style="clip-rule:evenodd" id="path160" d="m 50.52,258 511.08,0 0,276 -511.08,0 0,-276 z"/>
    </clipPath>
    <clipPath id="clipPath174" clipPathUnits="userSpaceOnUse">
      <path style="clip-rule:evenodd" id="path176" d="m 50.52,258 511.08,0 0,276 -511.08,0 0,-276 z"/>
    </clipPath>
    <clipPath id="clipPath190" clipPathUnits="userSpaceOnUse">
      <path style="clip-rule:evenodd" id="path192" d="m 50.52,258 511.08,0 0,276 -511.08,0 0,-276 z"/>
    </clipPath>
    <clipPath id="clipPath206" clipPathUnits="userSpaceOnUse">
      <path style="clip-rule:evenodd" id="path208" d="m 50.52,258 511.08,0 0,276 -511.08,0 0,-276 z"/>
    </clipPath>
    <clipPath id="clipPath222" clipPathUnits="userSpaceOnUse">
      <path style="clip-rule:evenodd" id="path224" d="m 50.52,258 511.08,0 0,276 -511.08,0 0,-276 z"/>
    </clipPath>
    <clipPath id="clipPath238" clipPathUnits="userSpaceOnUse">
      <path style="clip-rule:evenodd" id="path240" d="m 50.52,258 511.08,0 0,276 -511.08,0 0,-276 z"/>
    </clipPath>
    <clipPath id="clipPath254" clipPathUnits="userSpaceOnUse">
      <path style="clip-rule:evenodd" id="path256" d="m 50.52,258 511.08,0 0,276 -511.08,0 0,-276 z"/>
    </clipPath>
    <clipPath id="clipPath266" clipPathUnits="userSpaceOnUse">
      <path style="clip-rule:evenodd" id="path268" d="m 50.52,258 511.08,0 0,276 -511.08,0 0,-276 z"/>
    </clipPath>
    <clipPath id="clipPath278" clipPathUnits="userSpaceOnUse">
      <path style="clip-rule:evenodd" id="path280" d="m 50.52,258 511.08,0 0,276 -511.08,0 0,-276 z"/>
    </clipPath>
    <clipPath id="clipPath290" clipPathUnits="userSpaceOnUse">
      <path style="clip-rule:evenodd" id="path292" d="m 50.52,258 511.08,0 0,276 -511.08,0 0,-276 z"/>
    </clipPath>
    <clipPath id="clipPath302" clipPathUnits="userSpaceOnUse">
      <path style="clip-rule:evenodd" id="path304" d="m 50.52,258 511.08,0 0,276 -511.08,0 0,-276 z"/>
    </clipPath>
    <clipPath id="clipPath314" clipPathUnits="userSpaceOnUse">
      <path style="clip-rule:evenodd" id="path316" d="m 50.52,258 511.08,0 0,276 -511.08,0 0,-276 z"/>
    </clipPath>
    <clipPath id="clipPath326" clipPathUnits="userSpaceOnUse">
      <path style="clip-rule:evenodd" id="path328" d="m 50.52,258 511.08,0 0,276 -511.08,0 0,-276 z"/>
    </clipPath>
    <clipPath id="clipPath338" clipPathUnits="userSpaceOnUse">
      <path style="clip-rule:evenodd" id="path340" d="m 50.52,258 511.08,0 0,276 -511.08,0 0,-276 z"/>
    </clipPath>
    <clipPath id="clipPath350" clipPathUnits="userSpaceOnUse">
      <path style="clip-rule:evenodd" id="path352" d="m 50.52,258 511.08,0 0,276 -511.08,0 0,-276 z"/>
    </clipPath>
    <clipPath id="clipPath362" clipPathUnits="userSpaceOnUse">
      <path style="clip-rule:evenodd" id="path364" d="m 50.52,258 511.08,0 0,276 -511.08,0 0,-276 z"/>
    </clipPath>
    <clipPath id="clipPath374" clipPathUnits="userSpaceOnUse">
      <path style="clip-rule:evenodd" id="path376" d="m 50.52,258 511.08,0 0,276 -511.08,0 0,-276 z"/>
    </clipPath>
    <clipPath id="clipPath386" clipPathUnits="userSpaceOnUse">
      <path style="clip-rule:evenodd" id="path388" d="m 50.52,258 511.08,0 0,276 -511.08,0 0,-276 z"/>
    </clipPath>
    <clipPath id="clipPath398" clipPathUnits="userSpaceOnUse">
      <path style="clip-rule:evenodd" id="path400" d="m 50.52,258 511.08,0 0,276 -511.08,0 0,-276 z"/>
    </clipPath>
    <clipPath id="clipPath410" clipPathUnits="userSpaceOnUse">
      <path style="clip-rule:evenodd" id="path412" d="m 50.52,258 511.08,0 0,276 -511.08,0 0,-276 z"/>
    </clipPath>
    <clipPath id="clipPath422" clipPathUnits="userSpaceOnUse">
      <path style="clip-rule:evenodd" id="path424" d="m 50.52,258 511.08,0 0,276 -511.08,0 0,-276 z"/>
    </clipPath>
    <clipPath id="clipPath434" clipPathUnits="userSpaceOnUse">
      <path style="clip-rule:evenodd" id="path436" d="m 50.52,258 511.08,0 0,276 -511.08,0 0,-276 z"/>
    </clipPath>
    <clipPath id="clipPath446" clipPathUnits="userSpaceOnUse">
      <path style="clip-rule:evenodd" id="path448" d="m 50.52,258 511.08,0 0,276 -511.08,0 0,-276 z"/>
    </clipPath>
    <clipPath id="clipPath458" clipPathUnits="userSpaceOnUse">
      <path style="clip-rule:evenodd" id="path460" d="m 50.52,258 511.08,0 0,276 -511.08,0 0,-276 z"/>
    </clipPath>
    <clipPath id="clipPath470" clipPathUnits="userSpaceOnUse">
      <path style="clip-rule:evenodd" id="path472" d="m 50.52,258 511.08,0 0,276 -511.08,0 0,-276 z"/>
    </clipPath>
    <clipPath id="clipPath482" clipPathUnits="userSpaceOnUse">
      <path style="clip-rule:evenodd" id="path484" d="m 50.52,258 511.08,0 0,276 -511.08,0 0,-276 z"/>
    </clipPath>
    <clipPath id="clipPath494" clipPathUnits="userSpaceOnUse">
      <path style="clip-rule:evenodd" id="path496" d="m 50.52,258 511.08,0 0,276 -511.08,0 0,-276 z"/>
    </clipPath>
    <clipPath id="clipPath506" clipPathUnits="userSpaceOnUse">
      <path style="clip-rule:evenodd" id="path508" d="m 50.52,258 511.08,0 0,276 -511.08,0 0,-276 z"/>
    </clipPath>
    <clipPath id="clipPath518" clipPathUnits="userSpaceOnUse">
      <path style="clip-rule:evenodd" id="path520" d="m 50.52,258 511.08,0 0,276 -511.08,0 0,-276 z"/>
    </clipPath>
    <clipPath id="clipPath530" clipPathUnits="userSpaceOnUse">
      <path style="clip-rule:evenodd" id="path532" d="m 50.52,258 511.08,0 0,276 -511.08,0 0,-276 z"/>
    </clipPath>
    <clipPath id="clipPath542" clipPathUnits="userSpaceOnUse">
      <path style="clip-rule:evenodd" id="path544" d="m 50.52,258 511.08,0 0,276 -511.08,0 0,-276 z"/>
    </clipPath>
    <clipPath id="clipPath556" clipPathUnits="userSpaceOnUse">
      <path style="clip-rule:evenodd" id="path558" d="m 50.52,258 511.08,0 0,276 -511.08,0 0,-276 z"/>
    </clipPath>
    <clipPath id="clipPath570" clipPathUnits="userSpaceOnUse">
      <path style="clip-rule:evenodd" id="path572" d="m 50.52,258 511.08,0 0,276 -511.08,0 0,-276 z"/>
    </clipPath>
    <clipPath id="clipPath586" clipPathUnits="userSpaceOnUse">
      <path style="clip-rule:evenodd" id="path588" d="m 50.52,258 511.08,0 0,276 -511.08,0 0,-276 z"/>
    </clipPath>
    <clipPath id="clipPath598" clipPathUnits="userSpaceOnUse">
      <path style="clip-rule:evenodd" id="path600" d="m 50.52,258 511.08,0 0,276 -511.08,0 0,-276 z"/>
    </clipPath>
    <clipPath id="clipPath610" clipPathUnits="userSpaceOnUse">
      <path style="clip-rule:evenodd" id="path612" d="m 50.52,258 511.08,0 0,276 -511.08,0 0,-276 z"/>
    </clipPath>
    <clipPath id="clipPath622" clipPathUnits="userSpaceOnUse">
      <path style="clip-rule:evenodd" id="path624" d="m 50.52,258 511.08,0 0,276 -511.08,0 0,-276 z"/>
    </clipPath>
    <clipPath id="clipPath634" clipPathUnits="userSpaceOnUse">
      <path style="clip-rule:evenodd" id="path636" d="m 50.52,258 511.08,0 0,276 -511.08,0 0,-276 z"/>
    </clipPath>
    <clipPath id="clipPath646" clipPathUnits="userSpaceOnUse">
      <path style="clip-rule:evenodd" id="path648" d="m 187.68,474.48 373.92,0 0,51.96 -373.92,0 0,-51.96 z"/>
    </clipPath>
    <clipPath id="clipPath658" clipPathUnits="userSpaceOnUse">
      <path style="clip-rule:evenodd" id="path660" d="m 187.68,474.48 373.92,0 0,51.96 -373.92,0 0,-51.96 z"/>
    </clipPath>
    <clipPath id="clipPath670" clipPathUnits="userSpaceOnUse">
      <path style="clip-rule:evenodd" id="path672" d="m 187.68,474.48 373.92,0 0,51.96 -373.92,0 0,-51.96 z"/>
    </clipPath>
    <clipPath id="clipPath682" clipPathUnits="userSpaceOnUse">
      <path style="clip-rule:evenodd" id="path684" d="m 187.68,474.48 373.92,0 0,51.96 -373.92,0 0,-51.96 z"/>
    </clipPath>
    <clipPath id="clipPath694" clipPathUnits="userSpaceOnUse">
      <path style="clip-rule:evenodd" id="path696" d="m 187.68,474.48 373.92,0 0,51.96 -373.92,0 0,-51.96 z"/>
    </clipPath>
  </defs>
  <g transform="matrix(1.25,0,0,-1.25,0,990)" id="g10">
    <g id="g12">
      <g clip-path="url(#clipPath16)" id="g14">
        <path id="path20" style="fill:none;stroke:#000000;stroke-width:0.14;stroke-linecap:butt;stroke-linejoin:miter;stroke-miterlimit:10;stroke-dasharray:none;stroke-opacity:0" d="m 50.457,257.93 511.2,0 0,276.1 -511.2,0 0,-276.1 z"/>
      </g>
    </g>
    <g id="g22">
      <g clip-path="url(#clipPath26)" id="g24">
        <path id="path30" style="fill:#ffffff;fill-opacity:1;fill-rule:evenodd;stroke:none" d="m 50.457,257.93 511.2,0 0,276.1 -511.2,0 0,-276.1 z"/>
      </g>
    </g>
    <path id="path32" style="fill:#137cb1;fill-opacity:1;fill-rule:nonzero;stroke:none" d="m 130.66,279.71 31.27,0 0,-0.11 -31.27,0 0,0.11 z m 62.55,0.2 31.38,0 0,-0.31 -31.38,0 0,0.31 z m 62.66,0.85 31.27,0 0,-1.16 -31.27,0 0,1.16 z m 62.55,0.74 31.28,0 0,-1.9 -31.28,0 0,1.9 z m 62.55,0.52 31.38,0 0,-2.42 -31.38,0 0,2.42 z m 62.66,0.11 31.28,0 0,-2.53 -31.28,0 0,2.53 z m 62.55,0.21 31.28,0 0,-2.74 -31.28,0 0,2.74 z"/>
    <path id="path34" style="fill:#eacc80;fill-opacity:1;fill-rule:nonzero;stroke:none" d="m 130.66,465.98 31.27,0 0,-186.39 -31.27,0 0,186.39 z m 62.55,-12.36 31.38,0 0,-173.71 -31.38,0 0,173.71 z m 62.66,10.67 31.27,0 0,-183.53 -31.27,0 0,183.53 z m 62.55,-20.81 31.28,0 0,-161.98 -31.28,0 0,161.98 z m 62.55,-5.6 31.38,0 0,-155.86 -31.38,0 0,155.86 z m 62.66,9.82 31.28,0 0,-165.57 -31.28,0 0,165.57 z m 62.55,3.28 31.28,0 0,-168.64 -31.28,0 0,168.64 z"/>
    <path id="path36" style="fill:none;stroke:#d9d9d9;stroke-width:0.66039997;stroke-linecap:butt;stroke-linejoin:round;stroke-miterlimit:10;stroke-dasharray:none;stroke-opacity:1" d="m 115.02,279.6 438.12,0"/>
    <path id="path38" style="fill:#ffffff;fill-opacity:0.70196001;fill-rule:evenodd;stroke:none" d="m 137.56,273.23 17.523,0 0,12.768 -17.523,0 0,-12.768 z"/>
    <path id="path40" style="fill:none;stroke:#137cb1;stroke-width:0.66039997;stroke-linecap:butt;stroke-linejoin:round;stroke-miterlimit:10;stroke-dasharray:none;stroke-opacity:1" d="m 137.56,273.23 17.523,0 0,12.768 -17.523,0 0,-12.768 z"/>
    <g id="g42">
      <g clip-path="url(#clipPath46)" id="g44"><text id="text50" style="font-variant:normal;font-weight:normal;font-size:8.76000023px;font-family:Arial;-inkscape-font-specification:Arial;writing-mode:lr-tb;fill:#000000;fill-opacity:1;fill-rule:nonzero;stroke:none" transform="matrix(1,0,0,-1,140.23,276.36)"><tspan id="tspan52" y="0" x="0 4.8705602 7.30584">0.2</tspan></text>
</g>
    </g>
    <path id="path54" style="fill:#ffffff;fill-opacity:0.70196001;fill-rule:evenodd;stroke:none" d="m 200.14,273.35 17.523,0 0,12.768 -17.523,0 0,-12.768 z"/>
    <path id="path56" style="fill:none;stroke:#137cb1;stroke-width:0.66039997;stroke-linecap:butt;stroke-linejoin:round;stroke-miterlimit:10;stroke-dasharray:none;stroke-opacity:1" d="m 200.14,273.35 17.523,0 0,12.768 -17.523,0 0,-12.768 z"/>
    <g id="g58">
      <g clip-path="url(#clipPath62)" id="g60"><text id="text66" style="font-variant:normal;font-weight:normal;font-size:8.76000023px;font-family:Arial;-inkscape-font-specification:Arial;writing-mode:lr-tb;fill:#000000;fill-opacity:1;fill-rule:nonzero;stroke:none" transform="matrix(1,0,0,-1,202.85,276.48)"><tspan id="tspan68" y="0" x="0 4.8705602 7.2708001">1.9</tspan></text>
</g>
    </g>
    <path id="path70" style="fill:#ffffff;fill-opacity:0.70196001;fill-rule:evenodd;stroke:none" d="m 262.73,273.77 17.523,0 0,12.768 -17.523,0 0,-12.768 z"/>
    <path id="path72" style="fill:none;stroke:#137cb1;stroke-width:0.66039997;stroke-linecap:butt;stroke-linejoin:round;stroke-miterlimit:10;stroke-dasharray:none;stroke-opacity:1" d="m 262.73,273.77 17.523,0 0,12.768 -17.523,0 0,-12.768 z"/>
    <g id="g74">
      <g clip-path="url(#clipPath78)" id="g76"><text id="text82" style="font-variant:normal;font-weight:normal;font-size:8.7840004px;font-family:Arial;-inkscape-font-specification:Arial;writing-mode:lr-tb;fill:#000000;fill-opacity:1;fill-rule:nonzero;stroke:none" transform="matrix(1,0,0,-1,265.44,276.91)"><tspan id="tspan84" y="0" x="0 4.8487682 7.29072">8.1</tspan></text>
</g>
    </g>
    <path id="path86" style="fill:#ffffff;fill-opacity:0.70196001;fill-rule:evenodd;stroke:none" d="m 322.87,274.18 22.418,0 0,12.768 -22.418,0 0,-12.768 z"/>
    <path id="path88" style="fill:none;stroke:#137cb1;stroke-width:0.66039997;stroke-linecap:butt;stroke-linejoin:round;stroke-miterlimit:10;stroke-dasharray:none;stroke-opacity:1" d="m 322.87,274.18 22.418,0 0,12.768 -22.418,0 0,-12.768 z"/>
    <g id="g90">
      <g clip-path="url(#clipPath94)" id="g92"><text id="text98" style="font-variant:normal;font-weight:normal;font-size:8.7840004px;font-family:Arial;-inkscape-font-specification:Arial;writing-mode:lr-tb;fill:#000000;fill-opacity:1;fill-rule:nonzero;stroke:none" transform="matrix(1,0,0,-1,325.61,277.32)"><tspan id="tspan100" y="0" x="0 4.8487682 9.6975365 12.139488">14.1</tspan></text>
</g>
    </g>
    <path id="path102" style="fill:#ffffff;fill-opacity:0.70196001;fill-rule:evenodd;stroke:none" d="m 385.46,274.44 22.418,0 0,12.768 -22.418,0 0,-12.768 z"/>
    <path id="path104" style="fill:none;stroke:#137cb1;stroke-width:0.66039997;stroke-linecap:butt;stroke-linejoin:round;stroke-miterlimit:10;stroke-dasharray:none;stroke-opacity:1" d="m 385.46,274.44 22.418,0 0,12.768 -22.418,0 0,-12.768 z"/>
    <g id="g106">
      <g clip-path="url(#clipPath110)" id="g108"><text id="text114" style="font-variant:normal;font-weight:normal;font-size:8.7840004px;font-family:Arial;-inkscape-font-specification:Arial;writing-mode:lr-tb;fill:#000000;fill-opacity:1;fill-rule:nonzero;stroke:none" transform="matrix(1,0,0,-1,388.2,277.58)"><tspan id="tspan116" y="0" x="0 4.872004 9.7440081 12.17406">18.0</tspan></text>
</g>
    </g>
    <path id="path118" style="fill:#ffffff;fill-opacity:0.70196001;fill-rule:evenodd;stroke:none" d="m 448.05,274.49 22.418,0 0,12.768 -22.418,0 0,-12.768 z"/>
    <path id="path120" style="fill:none;stroke:#137cb1;stroke-width:0.66039997;stroke-linecap:butt;stroke-linejoin:round;stroke-miterlimit:10;stroke-dasharray:none;stroke-opacity:1" d="m 448.05,274.49 22.418,0 0,12.768 -22.418,0 0,-12.768 z"/>
    <g id="g122">
      <g clip-path="url(#clipPath126)" id="g124"><text id="text130" style="font-variant:normal;font-weight:normal;font-size:8.7840004px;font-family:Arial;-inkscape-font-specification:Arial;writing-mode:lr-tb;fill:#000000;fill-opacity:1;fill-rule:nonzero;stroke:none" transform="matrix(1,0,0,-1,450.79,277.63)"><tspan id="tspan132" y="0" x="0 4.883904 9.767808 12.20976">18.7</tspan></text>
</g>
    </g>
    <path id="path134" style="fill:#ffffff;fill-opacity:0.70196001;fill-rule:evenodd;stroke:none" d="m 510.63,274.6 22.418,0 0,12.768 -22.418,0 0,-12.768 z"/>
    <path id="path136" style="fill:none;stroke:#137cb1;stroke-width:0.66039997;stroke-linecap:butt;stroke-linejoin:round;stroke-miterlimit:10;stroke-dasharray:none;stroke-opacity:1" d="m 510.63,274.6 22.418,0 0,12.768 -22.418,0 0,-12.768 z"/>
    <g id="g138">
      <g clip-path="url(#clipPath142)" id="g140"><text id="text146" style="font-variant:normal;font-weight:normal;font-size:8.76000023px;font-family:Arial;-inkscape-font-specification:Arial;writing-mode:lr-tb;fill:#000000;fill-opacity:1;fill-rule:nonzero;stroke:none" transform="matrix(1,0,0,-1,513.41,277.73)"><tspan id="tspan148" y="0" x="0 4.8705602 9.69732 12.1326">20.3</tspan></text>
</g>
    </g>
    <path id="path150" style="fill:#ffffff;fill-opacity:0.70196001;fill-rule:evenodd;stroke:none" d="m 132.66,366.45 27.314,0 0,12.768 -27.314,0 0,-12.768 z"/>
    <path id="path152" style="fill:none;stroke:#eacc80;stroke-width:0.66039997;stroke-linecap:butt;stroke-linejoin:round;stroke-miterlimit:10;stroke-dasharray:none;stroke-opacity:1" d="m 132.66,366.45 27.314,0 0,12.768 -27.314,0 0,-12.768 z"/>
    <g id="g154">
      <g clip-path="url(#clipPath158)" id="g156"><text id="text162" style="font-variant:normal;font-weight:normal;font-size:8.7840004px;font-family:Arial;-inkscape-font-specification:Arial;writing-mode:lr-tb;fill:#000000;fill-opacity:1;fill-rule:nonzero;stroke:none" transform="matrix(1,0,0,-1,135.38,369.6)"><tspan id="tspan164" y="0" x="0 4.8487682 7.29072 12.12192 16.970688 21.819456">1,372 </tspan></text>
</g>
    </g>
    <path id="path166" style="fill:#ffffff;fill-opacity:0.70196001;fill-rule:evenodd;stroke:none" d="m 195.25,360.36 27.314,0 0,12.768 -27.314,0 0,-12.768 z"/>
    <path id="path168" style="fill:none;stroke:#eacc80;stroke-width:0.66039997;stroke-linecap:butt;stroke-linejoin:round;stroke-miterlimit:10;stroke-dasharray:none;stroke-opacity:1" d="m 195.25,360.36 27.314,0 0,12.768 -27.314,0 0,-12.768 z"/>
    <g id="g170">
      <g clip-path="url(#clipPath174)" id="g172"><text id="text178" style="font-variant:normal;font-weight:normal;font-size:8.76000023px;font-family:Arial;-inkscape-font-specification:Arial;writing-mode:lr-tb;fill:#000000;fill-opacity:1;fill-rule:nonzero;stroke:none" transform="matrix(1,0,0,-1,197.98,363.5)"><tspan id="tspan180" y="0" x="0 4.8705602 7.30584 12.1764 17.046961 21.917521">1,279 </tspan></text>
</g>
    </g>
    <path id="path182" style="fill:#ffffff;fill-opacity:0.70196001;fill-rule:evenodd;stroke:none" d="m 257.84,366.12 27.314,0 0,12.768 -27.314,0 0,-12.768 z"/>
    <path id="path184" style="fill:none;stroke:#eacc80;stroke-width:0.66039997;stroke-linecap:butt;stroke-linejoin:round;stroke-miterlimit:10;stroke-dasharray:none;stroke-opacity:1" d="m 257.84,366.12 27.314,0 0,12.768 -27.314,0 0,-12.768 z"/>
    <g id="g186">
      <g clip-path="url(#clipPath190)" id="g188"><text id="text194" style="font-variant:normal;font-weight:normal;font-size:8.7840004px;font-family:Arial;-inkscape-font-specification:Arial;writing-mode:lr-tb;fill:#000000;fill-opacity:1;fill-rule:nonzero;stroke:none" transform="matrix(1,0,0,-1,260.57,369.26)"><tspan id="tspan196" y="0" x="0 4.883904 7.3258562 12.20976 17.067312 21.951216">1,352 </tspan></text>
</g>
    </g>
    <path id="path198" style="fill:#ffffff;fill-opacity:0.70196001;fill-rule:evenodd;stroke:none" d="m 320.42,356.1 27.314,0 0,12.768 -27.314,0 0,-12.768 z"/>
    <path id="path200" style="fill:none;stroke:#eacc80;stroke-width:0.66039997;stroke-linecap:butt;stroke-linejoin:round;stroke-miterlimit:10;stroke-dasharray:none;stroke-opacity:1" d="m 320.42,356.1 27.314,0 0,12.768 -27.314,0 0,-12.768 z"/>
    <g id="g202">
      <g clip-path="url(#clipPath206)" id="g204"><text id="text210" style="font-variant:normal;font-weight:normal;font-size:8.76000023px;font-family:Arial;-inkscape-font-specification:Arial;writing-mode:lr-tb;fill:#000000;fill-opacity:1;fill-rule:nonzero;stroke:none" transform="matrix(1,0,0,-1,323.18,359.23)"><tspan id="tspan212" y="0" x="0 4.8705602 7.2708001 12.14136 16.968121 21.83868">1,192 </tspan></text>
</g>
    </g>
    <path id="path214" style="fill:#ffffff;fill-opacity:0.70196001;fill-rule:evenodd;stroke:none" d="m 383.01,353.59 27.314,0 0,12.768 -27.314,0 0,-12.768 z"/>
    <path id="path216" style="fill:none;stroke:#eacc80;stroke-width:0.66039997;stroke-linecap:butt;stroke-linejoin:round;stroke-miterlimit:10;stroke-dasharray:none;stroke-opacity:1" d="m 383.01,353.59 27.314,0 0,12.768 -27.314,0 0,-12.768 z"/>
    <g id="g218">
      <g clip-path="url(#clipPath222)" id="g220"><text id="text226" style="font-variant:normal;font-weight:normal;font-size:8.7840004px;font-family:Arial;-inkscape-font-specification:Arial;writing-mode:lr-tb;fill:#000000;fill-opacity:1;fill-rule:nonzero;stroke:none" transform="matrix(1,0,0,-1,385.78,356.74)"><tspan id="tspan228" y="0" x="0 4.8487682 7.29072 12.12192 16.970688 21.819456">1,147 </tspan></text>
</g>
    </g>
    <path id="path230" style="fill:#ffffff;fill-opacity:0.70196001;fill-rule:evenodd;stroke:none" d="m 445.6,358.53 27.314,0 0,12.768 -27.314,0 0,-12.768 z"/>
    <path id="path232" style="fill:none;stroke:#eacc80;stroke-width:0.66039997;stroke-linecap:butt;stroke-linejoin:round;stroke-miterlimit:10;stroke-dasharray:none;stroke-opacity:1" d="m 445.6,358.53 27.314,0 0,12.768 -27.314,0 0,-12.768 z"/>
    <g id="g234">
      <g clip-path="url(#clipPath238)" id="g236"><text id="text242" style="font-variant:normal;font-weight:normal;font-size:8.7840004px;font-family:Arial;-inkscape-font-specification:Arial;writing-mode:lr-tb;fill:#000000;fill-opacity:1;fill-rule:nonzero;stroke:none" transform="matrix(1,0,0,-1,448.37,361.68)"><tspan id="tspan244" y="0" x="0 4.872004 7.3020558 12.17406 17.046064 21.918068">1,219 </tspan></text>
</g>
    </g>
    <path id="path246" style="fill:#ffffff;fill-opacity:0.70196001;fill-rule:evenodd;stroke:none" d="m 508.19,360.28 27.314,0 0,12.768 -27.314,0 0,-12.768 z"/>
    <path id="path248" style="fill:none;stroke:#eacc80;stroke-width:0.66039997;stroke-linecap:butt;stroke-linejoin:round;stroke-miterlimit:10;stroke-dasharray:none;stroke-opacity:1" d="m 508.19,360.28 27.314,0 0,12.768 -27.314,0 0,-12.768 z"/>
    <g id="g250">
      <g clip-path="url(#clipPath254)" id="g252"><text id="text258" style="font-variant:normal;font-weight:normal;font-size:8.7840004px;font-family:Arial;-inkscape-font-specification:Arial;writing-mode:lr-tb;fill:#000000;fill-opacity:1;fill-rule:nonzero;stroke:none" transform="matrix(1,0,0,-1,510.96,363.43)"><tspan id="tspan260" y="0" x="0 4.883904 7.3258562 12.20976 17.067312 21.951216">1,241 </tspan></text>
</g>
    </g>
    <g id="g262">
      <g clip-path="url(#clipPath266)" id="g264"><text id="text270" style="font-variant:normal;font-weight:bold;font-size:9.72000027px;font-family:Arial;-inkscape-font-specification:'Arial Bold';writing-mode:lr-tb;fill:#000000;fill-opacity:1;fill-rule:nonzero;stroke:none" transform="matrix(1,0,0,-1,134.21,472.01)"><tspan id="tspan272" y="0" x="0 5.4043198 8.1550798 13.5594 18.96372 24.36804">1,373 </tspan></text>
</g>
    </g>
    <g id="g274">
      <g clip-path="url(#clipPath278)" id="g276"><text id="text282" style="font-variant:normal;font-weight:bold;font-size:9.74400043px;font-family:Arial;-inkscape-font-specification:'Arial Bold';writing-mode:lr-tb;fill:#000000;fill-opacity:1;fill-rule:nonzero;stroke:none" transform="matrix(1,0,0,-1,196.82,459.6)"><tspan id="tspan284" y="0" x="0 5.3786879 8.0875196 13.505184 18.864384 24.243073">1,281 </tspan></text>
</g>
    </g>
    <g id="g286">
      <g clip-path="url(#clipPath290)" id="g288"><text id="text294" style="font-variant:normal;font-weight:bold;font-size:9.72000027px;font-family:Arial;-inkscape-font-specification:'Arial Bold';writing-mode:lr-tb;fill:#000000;fill-opacity:1;fill-rule:nonzero;stroke:none" transform="matrix(1,0,0,-1,259.42,470.26)"><tspan id="tspan296" y="0" x="0 5.4043198 8.1259203 13.53024 18.934561 24.338881">1,360 </tspan></text>
</g>
    </g>
    <g id="g298">
      <g clip-path="url(#clipPath302)" id="g300"><text id="text306" style="font-variant:normal;font-weight:bold;font-size:9.72000027px;font-family:Arial;-inkscape-font-specification:'Arial Bold';writing-mode:lr-tb;fill:#000000;fill-opacity:1;fill-rule:nonzero;stroke:none" transform="matrix(1,0,0,-1,322.01,449.4)"><tspan id="tspan308" y="0" x="0 5.4043198 8.1550798 13.5594 18.96372 24.36804">1,206 </tspan></text>
</g>
    </g>
    <g id="g310">
      <g clip-path="url(#clipPath314)" id="g312"><text id="text318" style="font-variant:normal;font-weight:bold;font-size:9.72000027px;font-family:Arial;-inkscape-font-specification:'Arial Bold';writing-mode:lr-tb;fill:#000000;fill-opacity:1;fill-rule:nonzero;stroke:none" transform="matrix(1,0,0,-1,384.62,443.86)"><tspan id="tspan320" y="0" x="0 5.4043198 8.1064796 13.5108 18.86652 24.27084">1,165 </tspan></text>
</g>
    </g>
    <g id="g322">
      <g clip-path="url(#clipPath326)" id="g324"><text id="text330" style="font-variant:normal;font-weight:bold;font-size:9.72000027px;font-family:Arial;-inkscape-font-specification:'Arial Bold';writing-mode:lr-tb;fill:#000000;fill-opacity:1;fill-rule:nonzero;stroke:none" transform="matrix(1,0,0,-1,447.22,453.65)"><tspan id="tspan332" y="0" x="0 5.4043198 8.1064796 13.5108 18.86652 24.27084">1,237 </tspan></text>
</g>
    </g>
    <g id="g334">
      <g clip-path="url(#clipPath338)" id="g336"><text id="text342" style="font-variant:normal;font-weight:bold;font-size:9.72000027px;font-family:Arial;-inkscape-font-specification:'Arial Bold';writing-mode:lr-tb;fill:#000000;fill-opacity:1;fill-rule:nonzero;stroke:none" transform="matrix(1,0,0,-1,509.81,456.94)"><tspan id="tspan344" y="0" x="0 5.4043198 8.1550798 13.5594 18.96372 24.36804">1,262 </tspan></text>
</g>
    </g>
    <g id="g346">
      <g clip-path="url(#clipPath350)" id="g348"><text id="text354" style="font-variant:normal;font-weight:normal;font-size:9.72000027px;font-family:Arial;-inkscape-font-specification:Arial;writing-mode:lr-tb;fill:#000000;fill-opacity:1;fill-rule:nonzero;stroke:none" transform="matrix(1,0,0,-1,98.64,276.46)"><tspan id="tspan356" y="0" x="0">0</tspan></text>
</g>
    </g>
    <g id="g358">
      <g clip-path="url(#clipPath362)" id="g360"><text id="text366" style="font-variant:normal;font-weight:normal;font-size:9.72000027px;font-family:Arial;-inkscape-font-specification:Arial;writing-mode:lr-tb;fill:#000000;fill-opacity:1;fill-rule:nonzero;stroke:none" transform="matrix(1,0,0,-1,87.864,303.62)"><tspan id="tspan368" y="0" x="0 5.37602 10.75204">200</tspan></text>
</g>
    </g>
    <g id="g370">
      <g clip-path="url(#clipPath374)" id="g372"><text id="text378" style="font-variant:normal;font-weight:normal;font-size:9.72000027px;font-family:Arial;-inkscape-font-specification:Arial;writing-mode:lr-tb;fill:#000000;fill-opacity:1;fill-rule:nonzero;stroke:none" transform="matrix(1,0,0,-1,87.864,330.79)"><tspan id="tspan380" y="0" x="0 5.37602 10.75204">400</tspan></text>
</g>
    </g>
    <g id="g382">
      <g clip-path="url(#clipPath386)" id="g384"><text id="text390" style="font-variant:normal;font-weight:normal;font-size:9.72000027px;font-family:Arial;-inkscape-font-specification:Arial;writing-mode:lr-tb;fill:#000000;fill-opacity:1;fill-rule:nonzero;stroke:none" transform="matrix(1,0,0,-1,87.864,357.96)"><tspan id="tspan392" y="0" x="0 5.37602 10.75204">600</tspan></text>
</g>
    </g>
    <g id="g394">
      <g clip-path="url(#clipPath398)" id="g396"><text id="text402" style="font-variant:normal;font-weight:normal;font-size:9.72000027px;font-family:Arial;-inkscape-font-specification:Arial;writing-mode:lr-tb;fill:#000000;fill-opacity:1;fill-rule:nonzero;stroke:none" transform="matrix(1,0,0,-1,87.864,385.13)"><tspan id="tspan404" y="0" x="0 5.37602 10.75204">800</tspan></text>
</g>
    </g>
    <g id="g406">
      <g clip-path="url(#clipPath410)" id="g408"><text id="text414" style="font-variant:normal;font-weight:normal;font-size:9.72000027px;font-family:Arial;-inkscape-font-specification:Arial;writing-mode:lr-tb;fill:#000000;fill-opacity:1;fill-rule:nonzero;stroke:none" transform="matrix(1,0,0,-1,79.776,412.3)"><tspan id="tspan416" y="0" x="0 5.4043198 8.0190001 13.42332 18.76932">1,000</tspan></text>
</g>
    </g>
    <g id="g418">
      <g clip-path="url(#clipPath422)" id="g420"><text id="text426" style="font-variant:normal;font-weight:normal;font-size:9.72000027px;font-family:Arial;-inkscape-font-specification:Arial;writing-mode:lr-tb;fill:#000000;fill-opacity:1;fill-rule:nonzero;stroke:none" transform="matrix(1,0,0,-1,79.776,439.46)"><tspan id="tspan428" y="0" x="0 5.4043198 8.0190001 13.42332 18.76932">1,200</tspan></text>
</g>
    </g>
    <g id="g430">
      <g clip-path="url(#clipPath434)" id="g432"><text id="text438" style="font-variant:normal;font-weight:normal;font-size:9.72000027px;font-family:Arial;-inkscape-font-specification:Arial;writing-mode:lr-tb;fill:#000000;fill-opacity:1;fill-rule:nonzero;stroke:none" transform="matrix(1,0,0,-1,79.776,466.63)"><tspan id="tspan440" y="0" x="0 5.4043198 8.0190001 13.42332 18.76932">1,400</tspan></text>
</g>
    </g>
    <g id="g442">
      <g clip-path="url(#clipPath446)" id="g444"><text id="text450" style="font-variant:normal;font-weight:normal;font-size:9.72000027px;font-family:Arial;-inkscape-font-specification:Arial;writing-mode:lr-tb;fill:#000000;fill-opacity:1;fill-rule:nonzero;stroke:none" transform="matrix(1,0,0,-1,135.58,264.91)"><tspan id="tspan452" y="0" x="0 5.37602 10.75204 16.128059">2019</tspan></text>
</g>
    </g>
    <g id="g454">
      <g clip-path="url(#clipPath458)" id="g456"><text id="text462" style="font-variant:normal;font-weight:normal;font-size:9.72000027px;font-family:Arial;-inkscape-font-specification:Arial;writing-mode:lr-tb;fill:#000000;fill-opacity:1;fill-rule:nonzero;stroke:none" transform="matrix(1,0,0,-1,198.17,264.91)"><tspan id="tspan464" y="0" x="0 5.4000001 10.8 16.200001">2020</tspan></text>
</g>
    </g>
    <g id="g466">
      <g clip-path="url(#clipPath470)" id="g468"><text id="text474" style="font-variant:normal;font-weight:normal;font-size:9.72000027px;font-family:Arial;-inkscape-font-specification:Arial;writing-mode:lr-tb;fill:#000000;fill-opacity:1;fill-rule:nonzero;stroke:none" transform="matrix(1,0,0,-1,260.76,264.91)"><tspan id="tspan476" y="0" x="0 5.4000001 10.8 16.200001">2021</tspan></text>
</g>
    </g>
    <g id="g478">
      <g clip-path="url(#clipPath482)" id="g480"><text id="text486" style="font-variant:normal;font-weight:normal;font-size:9.72000027px;font-family:Arial;-inkscape-font-specification:Arial;writing-mode:lr-tb;fill:#000000;fill-opacity:1;fill-rule:nonzero;stroke:none" transform="matrix(1,0,0,-1,323.35,264.91)"><tspan id="tspan488" y="0" x="0 5.4000001 10.8 16.200001">2022</tspan></text>
</g>
    </g>
    <g id="g490">
      <g clip-path="url(#clipPath494)" id="g492"><text id="text498" style="font-variant:normal;font-weight:normal;font-size:9.72000027px;font-family:Arial;-inkscape-font-specification:Arial;writing-mode:lr-tb;fill:#000000;fill-opacity:1;fill-rule:nonzero;stroke:none" transform="matrix(1,0,0,-1,385.97,264.91)"><tspan id="tspan500" y="0" x="0 5.37602 10.75204 16.128059">2023</tspan></text>
</g>
    </g>
    <g id="g502">
      <g clip-path="url(#clipPath506)" id="g504"><text id="text510" style="font-variant:normal;font-weight:normal;font-size:9.72000027px;font-family:Arial;-inkscape-font-specification:Arial;writing-mode:lr-tb;fill:#000000;fill-opacity:1;fill-rule:nonzero;stroke:none" transform="matrix(1,0,0,-1,448.56,264.91)"><tspan id="tspan512" y="0" x="0 5.4000001 10.8 16.200001">2024</tspan></text>
</g>
    </g>
    <g id="g514">
      <g clip-path="url(#clipPath518)" id="g516"><text id="text522" style="font-variant:normal;font-weight:normal;font-size:9.72000027px;font-family:Arial;-inkscape-font-specification:Arial;writing-mode:lr-tb;fill:#000000;fill-opacity:1;fill-rule:nonzero;stroke:none" transform="matrix(1,0,0,-1,511.15,264.91)"><tspan id="tspan524" y="0" x="0 5.4000001 10.8 16.200001">2025</tspan></text>
</g>
    </g>
    <g id="g526">
      <g clip-path="url(#clipPath530)" id="g528"><text id="text534" style="font-variant:normal;font-weight:normal;font-size:9.72000027px;font-family:Arial;-inkscape-font-specification:Arial;writing-mode:lr-tb;fill:#000000;fill-opacity:1;fill-rule:nonzero;stroke:none" transform="matrix(-4.4e-8,1,1,4.4e-8,75.072,364.9)"><tspan id="tspan536" y="0" x="0 7.9412398 10.7892 17.77788 23.182199 25.291439 28.0422">M Units</tspan></text>
</g>
    </g>
    <g id="g538">
      <g clip-path="url(#clipPath542)" id="g540"><text id="text546" style="font-variant:normal;font-weight:normal;font-size:11.61600018px;font-family:Arial;-inkscape-font-specification:Arial;writing-mode:lr-tb;fill:#000000;fill-opacity:1;fill-rule:nonzero;stroke:none" transform="matrix(1,0,0,-1,58.2,516.67)"><tspan id="tspan548" y="0" x="0 9.0372477 11.616 18.028032 24.486528 30.886944 33.407616 36.636864 44.384735 54.060863 60.51936 64.387489 67.6632 74.121696 80.52211 86.980606 93.381027 99.839523 103.06877 110.78179 117.24029 119.73772 126.19622 135.87234 142.33084 148.7545 151.98375 157.79175 161.07907 164.30832 171.4057 177.8642 180.37325 186.83174 193.23216 199.69066 202.1881 208.64659 211.96877 217.77676 223.58476 226.81401 230.10135 239.1386 242.42592 248.88441 255.28484 259.15295">Global Smartphone Shipments: Foldable vs. Others</tspan></text>
</g>
    </g>
    <path id="path550" style="fill:#137cb1;fill-opacity:1;fill-rule:evenodd;stroke:none" d="m 157.28,498.14 4.8697,0 0,4.8698 -4.8697,0 0,-4.8698 z"/>
    <g id="g552">
      <g clip-path="url(#clipPath556)" id="g554"><text id="text560" style="font-variant:normal;font-weight:normal;font-size:9.72000027px;font-family:Arial;-inkscape-font-specification:Arial;writing-mode:lr-tb;fill:#000000;fill-opacity:1;fill-rule:nonzero;stroke:none" transform="matrix(1,0,0,-1,164.28,497.45)"><tspan id="tspan562" y="0" x="0 5.93892 11.34324 13.44276 18.84708 24.2514 29.65572 31.86216">Foldable</tspan></text>
</g>
    </g>
    <path id="path564" style="fill:#eacc80;fill-opacity:1;fill-rule:evenodd;stroke:none" d="m 295.51,498.14 4.8698,0 0,4.8698 -4.8698,0 0,-4.8698 z"/>
    <g id="g566">
      <g clip-path="url(#clipPath570)" id="g568"><text id="text574" style="font-variant:normal;font-weight:normal;font-size:9.72000027px;font-family:Arial;-inkscape-font-specification:Arial;writing-mode:lr-tb;fill:#000000;fill-opacity:1;fill-rule:nonzero;stroke:none" transform="matrix(1,0,0,-1,302.54,497.45)"><tspan id="tspan576" y="0" x="0 6.4346399 11.29464 14.5314 17.184959 22.589279 24.669359 30.073681 35.419682 40.824001 42.981838">Ex-foldable</tspan></text>
</g>
    </g>
    <path id="path578" style="fill:none;stroke:#000000;stroke-width:0.66039997;stroke-linecap:butt;stroke-linejoin:round;stroke-miterlimit:10;stroke-dasharray:none;stroke-opacity:1" d="m 439.54,474.59 107.21,0 0,51.769 -107.21,0 0,-51.769 z"/>
    <path id="path580" style="fill:#000000;fill-opacity:1;fill-rule:evenodd;stroke:none" d="m 454.54,513.15 19.31,0 19.31,0 19.31,0 19.31,0 0,-1.05 -19.31,0 -19.31,0 -19.31,0 -19.31,0 0,1.05 z"/>
    <g id="g582">
      <g clip-path="url(#clipPath586)" id="g584"><text id="text590" style="font-variant:normal;font-weight:bold;font-size:9.72000027px;font-family:Arial;-inkscape-font-specification:'Arial Bold';writing-mode:lr-tb;fill:#000000;fill-opacity:1;fill-rule:nonzero;stroke:none" transform="matrix(1,0,0,-1,454.63,514.06)"><tspan id="tspan592" y="0" x="0 5.37602 10.75204 16.128059">2022</tspan></text>
</g>
    </g>
    <g id="g594">
      <g clip-path="url(#clipPath598)" id="g596"><text id="text602" style="font-variant:normal;font-weight:bold;font-size:9.72000027px;font-family:Arial;-inkscape-font-specification:'Arial Bold';writing-mode:lr-tb;fill:#000000;fill-opacity:1;fill-rule:nonzero;stroke:none" transform="matrix(1,0,0,-1,476.18,514.06)"><tspan id="tspan604" y="0" x="0">-</tspan></text>
</g>
    </g>
    <g id="g606">
      <g clip-path="url(#clipPath610)" id="g608"><text id="text614" style="font-variant:normal;font-weight:bold;font-size:9.72000027px;font-family:Arial;-inkscape-font-specification:'Arial Bold';writing-mode:lr-tb;fill:#000000;fill-opacity:1;fill-rule:nonzero;stroke:none" transform="matrix(1,0,0,-1,479.45,514.06)"><tspan id="tspan616" y="0" x="0 5.4043198 10.80864 16.212959 21.617279 24.26112 31.2498 37.917721 45.5382">2025 CAGR</tspan></text>
</g>
    </g>
    <g id="g618">
      <g clip-path="url(#clipPath622)" id="g620"><text id="text626" style="font-variant:normal;font-weight:normal;font-size:9.72000027px;font-family:Arial;-inkscape-font-specification:Arial;writing-mode:lr-tb;fill:#000000;fill-opacity:1;fill-rule:nonzero;stroke:none" transform="matrix(1,0,0,-1,445.97,491.76)"><tspan id="tspan628" y="0" x="0">-</tspan></text>
</g>
    </g>
    <g id="g630">
      <g clip-path="url(#clipPath634)" id="g632"><text id="text638" style="font-variant:normal;font-weight:normal;font-size:9.72000027px;font-family:Arial;-inkscape-font-specification:Arial;writing-mode:lr-tb;fill:#000000;fill-opacity:1;fill-rule:nonzero;stroke:none" transform="matrix(1,0,0,-1,451.87,491.76)"><tspan id="tspan640" y="0" x="0 5.93892 11.34324 13.44276 18.84708 24.2514 29.65572 31.755239 37.159561 39.91032 42.661079 48.065399 53.469719">Foldable: 13%</tspan></text>
</g>
    </g>
    <g id="g642">
      <g clip-path="url(#clipPath646)" id="g644"><text id="text650" style="font-variant:normal;font-weight:normal;font-size:9.72000027px;font-family:Arial;-inkscape-font-specification:Arial;writing-mode:lr-tb;fill:#000000;fill-opacity:1;fill-rule:nonzero;stroke:none" transform="matrix(1,0,0,-1,445.97,480.67)"><tspan id="tspan652" y="0" x="0">-</tspan></text>
</g>
    </g>
    <g id="g654">
      <g clip-path="url(#clipPath658)" id="g656"><text id="text662" style="font-variant:normal;font-weight:normal;font-size:9.72000027px;font-family:Arial;-inkscape-font-specification:Arial;writing-mode:lr-tb;fill:#000000;fill-opacity:1;fill-rule:nonzero;stroke:none" transform="matrix(1,0,0,-1,451.87,480.67)"><tspan id="tspan664" y="0" x="0 6.9886799 12.393">Non</tspan></text>
</g>
    </g>
    <g id="g666">
      <g clip-path="url(#clipPath670)" id="g668"><text id="text674" style="font-variant:normal;font-weight:normal;font-size:9.72000027px;font-family:Arial;-inkscape-font-specification:Arial;writing-mode:lr-tb;fill:#000000;fill-opacity:1;fill-rule:nonzero;stroke:none" transform="matrix(1,0,0,-1,469.63,480.67)"><tspan id="tspan676" y="0" x="0">-</tspan></text>
</g>
    </g>
    <g id="g678">
      <g clip-path="url(#clipPath682)" id="g680"><text id="text686" style="font-variant:normal;font-weight:normal;font-size:9.72000027px;font-family:Arial;-inkscape-font-specification:Arial;writing-mode:lr-tb;fill:#000000;fill-opacity:1;fill-rule:nonzero;stroke:none" transform="matrix(1,0,0,-1,472.9,480.67)"><tspan id="tspan688" y="0" x="0 2.84796 8.2522802 10.41012 15.78528 21.1896 26.59392 28.722601 34.126919">foldable:</tspan></text>
</g>
    </g>
    <g id="g690">
      <g clip-path="url(#clipPath694)" id="g692"><text id="text698" style="font-variant:normal;font-weight:normal;font-size:9.72000027px;font-family:Arial;-inkscape-font-specification:Arial;writing-mode:lr-tb;fill:#000000;fill-opacity:1;fill-rule:nonzero;stroke:none" transform="matrix(1,0,0,-1,512.23,480.67)"><tspan id="tspan700" y="0" x="0 5.37602">1%</tspan></text>
</g>
    </g>
    <path id="path702" style="fill:#00b050;fill-opacity:1;fill-rule:nonzero;stroke:none" d="m 273.41,289.34 250.49,7.54 -0.03,1.1 -250.49,-7.54 0.03,-1.1 z m 249.68,5.42 5.2,2.8 -5.36,2.48 0.16,-5.28 z"/>
  </g>
</svg>
