<?xml version="1.0" encoding="UTF-8" standalone="no"?>
<svg xmlns:dc="http://purl.org/dc/elements/1.1/" xmlns:cc="http://creativecommons.org/ns#" xmlns:rdf="http://www.w3.org/1999/02/22-rdf-syntax-ns#" xmlns:svg="http://www.w3.org/2000/svg" xmlns="http://www.w3.org/2000/svg" viewBox="63.04 322.575 639 345" height="345" width="639" xml:space="preserve" version="1.1" id="svg2">
  <metadata id="metadata8">
    <rdf:RDF>
      <cc:Work rdf:about="">
        <dc:format>image/svg+xml</dc:format>
        <dc:type rdf:resource="http://purl.org/dc/dcmitype/StillImage"/>
      </cc:Work>
    </rdf:RDF>
  </metadata>
  <defs id="defs6">
    <clipPath id="clipPath16" clipPathUnits="userSpaceOnUse">
      <path style="clip-rule:evenodd" id="path18" d="m 50.4,258 511.2,0 0,276 -511.2,0 0,-276 z"/>
    </clipPath>
    <clipPath id="clipPath26" clipPathUnits="userSpaceOnUse">
      <path style="clip-rule:evenodd" id="path28" d="m 50.4,258 511.2,0 0,276 -511.2,0 0,-276 z"/>
    </clipPath>
    <clipPath id="clipPath42" clipPathUnits="userSpaceOnUse">
      <path style="clip-rule:evenodd" id="path44" d="m 50.52,258 511.08,0 0,275.88 -511.08,0 0,-275.88 z"/>
    </clipPath>
    <clipPath id="clipPath54" clipPathUnits="userSpaceOnUse">
      <path style="clip-rule:evenodd" id="path56" d="m 50.52,258 511.08,0 0,275.88 -511.08,0 0,-275.88 z"/>
    </clipPath>
    <clipPath id="clipPath66" clipPathUnits="userSpaceOnUse">
      <path style="clip-rule:evenodd" id="path68" d="m 50.52,258 511.08,0 0,275.88 -511.08,0 0,-275.88 z"/>
    </clipPath>
    <clipPath id="clipPath78" clipPathUnits="userSpaceOnUse">
      <path style="clip-rule:evenodd" id="path80" d="m 50.52,258 511.08,0 0,275.88 -511.08,0 0,-275.88 z"/>
    </clipPath>
    <clipPath id="clipPath90" clipPathUnits="userSpaceOnUse">
      <path style="clip-rule:evenodd" id="path92" d="m 50.52,258 511.08,0 0,275.88 -511.08,0 0,-275.88 z"/>
    </clipPath>
    <clipPath id="clipPath102" clipPathUnits="userSpaceOnUse">
      <path style="clip-rule:evenodd" id="path104" d="m 50.52,258 511.08,0 0,275.88 -511.08,0 0,-275.88 z"/>
    </clipPath>
    <clipPath id="clipPath114" clipPathUnits="userSpaceOnUse">
      <path style="clip-rule:evenodd" id="path116" d="m 50.52,258 511.08,0 0,275.88 -511.08,0 0,-275.88 z"/>
    </clipPath>
    <clipPath id="clipPath126" clipPathUnits="userSpaceOnUse">
      <path style="clip-rule:evenodd" id="path128" d="m 50.52,258 511.08,0 0,275.88 -511.08,0 0,-275.88 z"/>
    </clipPath>
    <clipPath id="clipPath138" clipPathUnits="userSpaceOnUse">
      <path style="clip-rule:evenodd" id="path140" d="m 50.52,258 511.08,0 0,275.88 -511.08,0 0,-275.88 z"/>
    </clipPath>
    <clipPath id="clipPath150" clipPathUnits="userSpaceOnUse">
      <path style="clip-rule:evenodd" id="path152" d="m 50.52,258 511.08,0 0,275.88 -511.08,0 0,-275.88 z"/>
    </clipPath>
    <clipPath id="clipPath162" clipPathUnits="userSpaceOnUse">
      <path style="clip-rule:evenodd" id="path164" d="m 50.52,258 511.08,0 0,275.88 -511.08,0 0,-275.88 z"/>
    </clipPath>
    <clipPath id="clipPath174" clipPathUnits="userSpaceOnUse">
      <path style="clip-rule:evenodd" id="path176" d="m 50.52,258 511.08,0 0,275.88 -511.08,0 0,-275.88 z"/>
    </clipPath>
    <clipPath id="clipPath186" clipPathUnits="userSpaceOnUse">
      <path style="clip-rule:evenodd" id="path188" d="m 50.52,258 511.08,0 0,275.88 -511.08,0 0,-275.88 z"/>
    </clipPath>
    <clipPath id="clipPath198" clipPathUnits="userSpaceOnUse">
      <path style="clip-rule:evenodd" id="path200" d="m 50.52,258 511.08,0 0,275.88 -511.08,0 0,-275.88 z"/>
    </clipPath>
    <clipPath id="clipPath210" clipPathUnits="userSpaceOnUse">
      <path style="clip-rule:evenodd" id="path212" d="m 50.52,258 511.08,0 0,275.88 -511.08,0 0,-275.88 z"/>
    </clipPath>
    <clipPath id="clipPath222" clipPathUnits="userSpaceOnUse">
      <path style="clip-rule:evenodd" id="path224" d="m 50.52,258 511.08,0 0,275.88 -511.08,0 0,-275.88 z"/>
    </clipPath>
    <clipPath id="clipPath236" clipPathUnits="userSpaceOnUse">
      <path style="clip-rule:evenodd" id="path238" d="m 50.52,258 511.08,0 0,275.88 -511.08,0 0,-275.88 z"/>
    </clipPath>
    <clipPath id="clipPath250" clipPathUnits="userSpaceOnUse">
      <path style="clip-rule:evenodd" id="path252" d="m 50.52,258 511.08,0 0,275.88 -511.08,0 0,-275.88 z"/>
    </clipPath>
  </defs>
  <g transform="matrix(1.25,0,0,-1.25,0,990)" id="g10">
    <g id="g12">
      <g clip-path="url(#clipPath16)" id="g14">
        <path id="path20" style="fill:none;stroke:#000000;stroke-width:0.14;stroke-linecap:butt;stroke-linejoin:miter;stroke-miterlimit:10;stroke-dasharray:none;stroke-opacity:0" d="m 50.502,257.95 511.09,0 0,275.92 -511.09,0 0,-275.92 z"/>
      </g>
    </g>
    <g id="g22">
      <g clip-path="url(#clipPath26)" id="g24">
        <path id="path30" style="fill:#ffffff;fill-opacity:1;fill-rule:evenodd;stroke:none" d="m 50.502,257.95 511.09,0 0,275.92 -511.09,0 0,-275.92 z"/>
      </g>
    </g>
    <path id="path32" style="fill:#137cb1;fill-opacity:1;fill-rule:nonzero;stroke:none" d="m 70.325,428.92 32.195,0 0,-143.35 -32.195,0 0,143.35 z m 98.065,41.06 32.19,0 0,-184.41 -32.19,0 0,184.41 z m 98.06,-61.54 32.19,0 0,-122.87 -32.19,0 0,122.87 z m 98.06,-40.95 32.19,0 0,-81.92 -32.19,0 0,81.92 z m 98.06,61.43 32.19,0 0,-143.35 -32.19,0 0,143.35 z"/>
    <path id="path34" style="fill:#eacc80;fill-opacity:1;fill-rule:nonzero;stroke:none" d="m 104.1,306.05 32.2,0 0,-20.48 -32.2,0 0,20.48 z m 98.06,163.93 32.2,0 0,-184.41 -32.2,0 0,184.41 z m 98.06,-122.97 32.2,0 0,-61.44 -32.2,0 0,61.44 z m 98.06,-40.96 32.2,0 0,-20.48 -32.2,0 0,20.48 z m 98.06,61.44 32.2,0 0,-81.92 -32.2,0 0,81.92 z"/>
    <path id="path36" style="fill:none;stroke:#d9d9d9;stroke-width:0.65972;stroke-linecap:butt;stroke-linejoin:round;stroke-miterlimit:10;stroke-dasharray:none;stroke-opacity:1" d="m 54.288,285.57 490.272,0"/>
    <g id="g38">
      <g clip-path="url(#clipPath42)" id="g40"><text id="text46" style="font-variant:normal;font-weight:normal;font-size:9.72000027px;font-family:Arial;-inkscape-font-specification:Arial;writing-mode:lr-tb;fill:#000000;fill-opacity:1;fill-rule:nonzero;stroke:none" transform="matrix(1,0,0,-1,81.048,434.93)"><tspan id="tspan48" y="0" x="0 5.37602">#5</tspan></text>
</g>
    </g>
    <g id="g50">
      <g clip-path="url(#clipPath54)" id="g52"><text id="text58" style="font-variant:normal;font-weight:normal;font-size:9.6960001px;font-family:Arial;-inkscape-font-specification:Arial;writing-mode:lr-tb;fill:#000000;fill-opacity:1;fill-rule:nonzero;stroke:none" transform="matrix(1,0,0,-1,179.11,475.9)"><tspan id="tspan60" y="0" x="0 5.3999958">#4</tspan></text>
</g>
    </g>
    <g id="g62">
      <g clip-path="url(#clipPath66)" id="g64"><text id="text70" style="font-variant:normal;font-weight:normal;font-size:9.6960001px;font-family:Arial;-inkscape-font-specification:Arial;writing-mode:lr-tb;fill:#000000;fill-opacity:1;fill-rule:nonzero;stroke:none" transform="matrix(1,0,0,-1,277.2,414.43)"><tspan id="tspan72" y="0" x="0 5.3759761">#6</tspan></text>
</g>
    </g>
    <g id="g74">
      <g clip-path="url(#clipPath78)" id="g76"><text id="text82" style="font-variant:normal;font-weight:normal;font-size:9.72000027px;font-family:Arial;-inkscape-font-specification:Arial;writing-mode:lr-tb;fill:#000000;fill-opacity:1;fill-rule:nonzero;stroke:none" transform="matrix(1,0,0,-1,375.26,373.46)"><tspan id="tspan84" y="0" x="0 5.37602">#7</tspan></text>
</g>
    </g>
    <g id="g86">
      <g clip-path="url(#clipPath90)" id="g88"><text id="text94" style="font-variant:normal;font-weight:normal;font-size:9.72000027px;font-family:Arial;-inkscape-font-specification:Arial;writing-mode:lr-tb;fill:#000000;fill-opacity:1;fill-rule:nonzero;stroke:none" transform="matrix(1,0,0,-1,473.33,434.93)"><tspan id="tspan96" y="0" x="0 5.4000001">#5</tspan></text>
</g>
    </g>
    <g id="g98">
      <g clip-path="url(#clipPath102)" id="g100"><text id="text106" style="font-variant:normal;font-weight:normal;font-size:9.72000027px;font-family:Arial;-inkscape-font-specification:Arial;writing-mode:lr-tb;fill:#000000;fill-opacity:1;fill-rule:nonzero;stroke:none" transform="matrix(1,0,0,-1,114.82,312)"><tspan id="tspan108" y="0" x="0 5.37602">#9</tspan></text>
</g>
    </g>
    <g id="g110">
      <g clip-path="url(#clipPath114)" id="g112"><text id="text118" style="font-variant:normal;font-weight:normal;font-size:9.6960001px;font-family:Arial;-inkscape-font-specification:Arial;writing-mode:lr-tb;fill:#000000;fill-opacity:1;fill-rule:nonzero;stroke:none" transform="matrix(1,0,0,-1,212.88,475.9)"><tspan id="tspan120" y="0" x="0 5.3759761">#4</tspan></text>
</g>
    </g>
    <g id="g122">
      <g clip-path="url(#clipPath126)" id="g124"><text id="text130" style="font-variant:normal;font-weight:normal;font-size:9.72000027px;font-family:Arial;-inkscape-font-specification:Arial;writing-mode:lr-tb;fill:#000000;fill-opacity:1;fill-rule:nonzero;stroke:none" transform="matrix(1,0,0,-1,310.94,352.97)"><tspan id="tspan132" y="0" x="0 5.4000001">#8</tspan></text>
</g>
    </g>
    <g id="g134">
      <g clip-path="url(#clipPath138)" id="g136"><text id="text142" style="font-variant:normal;font-weight:normal;font-size:9.72000027px;font-family:Arial;-inkscape-font-specification:Arial;writing-mode:lr-tb;fill:#000000;fill-opacity:1;fill-rule:nonzero;stroke:none" transform="matrix(1,0,0,-1,409.03,312)"><tspan id="tspan144" y="0" x="0 5.37602">#9</tspan></text>
</g>
    </g>
    <g id="g146">
      <g clip-path="url(#clipPath150)" id="g148"><text id="text154" style="font-variant:normal;font-weight:normal;font-size:9.72000027px;font-family:Arial;-inkscape-font-specification:Arial;writing-mode:lr-tb;fill:#000000;fill-opacity:1;fill-rule:nonzero;stroke:none" transform="matrix(1,0,0,-1,507.1,373.46)"><tspan id="tspan156" y="0" x="0 5.37602">#7</tspan></text>
</g>
    </g>
    <g id="g158">
      <g clip-path="url(#clipPath162)" id="g160"><text id="text166" style="font-variant:normal;font-weight:normal;font-size:9.72000027px;font-family:Arial;-inkscape-font-specification:Arial;writing-mode:lr-tb;fill:#000000;fill-opacity:1;fill-rule:nonzero;stroke:none" transform="matrix(1,0,0,-1,96.624,270.89)"><tspan id="tspan168" y="0" x="0 6.9600401">US</tspan></text>
</g>
    </g>
    <g id="g170">
      <g clip-path="url(#clipPath174)" id="g172"><text id="text178" style="font-variant:normal;font-weight:normal;font-size:9.72000027px;font-family:Arial;-inkscape-font-specification:Arial;writing-mode:lr-tb;fill:#000000;fill-opacity:1;fill-rule:nonzero;stroke:none" transform="matrix(1,0,0,-1,188.76,270.89)"><tspan id="tspan180" y="0" x="0 6.9595199 12.36384 14.52168 19.926001">China</tspan></text>
</g>
    </g>
    <g id="g182">
      <g clip-path="url(#clipPath186)" id="g184"><text id="text190" style="font-variant:normal;font-weight:normal;font-size:9.72000027px;font-family:Arial;-inkscape-font-specification:Arial;writing-mode:lr-tb;fill:#000000;fill-opacity:1;fill-rule:nonzero;stroke:none" transform="matrix(1,0,0,-1,292.75,270.89)"><tspan id="tspan192" y="0" x="0 6.9840398">UK</tspan></text>
</g>
    </g>
    <g id="g194">
      <g clip-path="url(#clipPath198)" id="g196"><text id="text202" style="font-variant:normal;font-weight:normal;font-size:9.72000027px;font-family:Arial;-inkscape-font-specification:Arial;writing-mode:lr-tb;fill:#000000;fill-opacity:1;fill-rule:nonzero;stroke:none" transform="matrix(1,0,0,-1,377.64,270.89)"><tspan id="tspan204" y="0" x="0 7.5135598 12.91788 16.19352 24.23196 29.63628 35.0406">Germany</tspan></text>
</g>
    </g>
    <g id="g206">
      <g clip-path="url(#clipPath210)" id="g208"><text id="text214" style="font-variant:normal;font-weight:normal;font-size:9.72000027px;font-family:Arial;-inkscape-font-specification:Arial;writing-mode:lr-tb;fill:#000000;fill-opacity:1;fill-rule:nonzero;stroke:none" transform="matrix(1,0,0,-1,481.63,270.89)"><tspan id="tspan216" y="0" x="0 7.4843998 9.6811199 15.08544 20.43144 25.83576">Global</tspan></text>
</g>
    </g>
    <g id="g218">
      <g clip-path="url(#clipPath222)" id="g220"><text id="text226" style="font-variant:normal;font-weight:normal;font-size:11.61600018px;font-family:Arial;-inkscape-font-specification:Arial;writing-mode:lr-tb;fill:#000000;fill-opacity:1;fill-rule:nonzero;stroke:none" transform="matrix(1,0,0,-1,60.672,516.53)"><tspan id="tspan228" y="0" x="0 7.7014079 13.509408 19.317408 25.775904 31.583904 37.391903 40.621151 43.885246 50.343742 52.864414 60.565823 67.024323 73.424736 76.003487 82.403908 85.772545 89.001793 95.460289 98.72438 105.18288 107.70355 110.2823 112.79136 119.24986 125.65027 132.10876 137.91676 144.31718 147.68582 154.14432 159.95232 162.99571 170.25571 176.7142 183.11462 186.18124 194.50992 200.96841 207.36884 213.17683 215.75558 222.15601 228.6145 231.9599 238.4184 241.64764 244.81882 253.14749 259.60599 266.00641 271.81439 278.27289 284.67331 290.48132 293.84995 297.07919 303.53769 306.70886 315.03754 321.49603 327.89645 331.79944 338.25793 344.65833 351.11682 354.46225 357.04099 364.70755 371.16605 377.56647 384.02496">Access to Apple Intelligence as The Ranking of Reasons to Upgrade iPhone</tspan></text>
</g>
    </g>
    <path id="path230" style="fill:#137cb1;fill-opacity:1;fill-rule:evenodd;stroke:none" d="m 207.88,498 4.8647,0 0,4.8647 -4.8647,0 0,-4.8647 z"/>
    <g id="g232">
      <g clip-path="url(#clipPath236)" id="g234"><text id="text240" style="font-variant:normal;font-weight:normal;font-size:9.72000027px;font-family:Arial;-inkscape-font-specification:Arial;writing-mode:lr-tb;fill:#000000;fill-opacity:1;fill-rule:nonzero;stroke:none" transform="matrix(1,0,0,-1,214.9,497.33)"><tspan id="tspan242" y="0" x="0 5.37602 10.75204 16.128059">2024</tspan></text>
</g>
    </g>
    <path id="path244" style="fill:#eacc80;fill-opacity:1;fill-rule:evenodd;stroke:none" d="m 380.46,498 4.8647,0 0,4.8647 -4.8647,0 0,-4.8647 z"/>
    <g id="g246">
      <g clip-path="url(#clipPath250)" id="g248"><text id="text254" style="font-variant:normal;font-weight:normal;font-size:9.72000027px;font-family:Arial;-inkscape-font-specification:Arial;writing-mode:lr-tb;fill:#000000;fill-opacity:1;fill-rule:nonzero;stroke:none" transform="matrix(1,0,0,-1,387.5,497.33)"><tspan id="tspan256" y="0" x="0 5.37602 10.75204 16.128059">2025</tspan></text>
</g>
    </g>
    <g id="g258">
      <path id="path260" style="fill:none;stroke:#033149;stroke-width:1.75919998;stroke-linecap:butt;stroke-linejoin:round;stroke-miterlimit:10;stroke-dasharray:7.037, 5.2777;stroke-dashoffset:0;stroke-opacity:1" d="m 451.36,449.51 c 0,8 6.48,14.48 14.48,14.48 l 57.9,0 c 7.99,0 14.47,-6.48 14.47,-14.48 l 0,-173.93 c 0,-7.99 -6.48,-14.47 -14.47,-14.47 l -57.9,0 c -8,0 -14.48,6.48 -14.48,14.47 l 0,173.93 z"/>
    </g>
    <path id="path262" style="fill:#ff0000;fill-opacity:1;fill-rule:nonzero;stroke:none" d="m 89.169,453.98 30.241,-123.04 -1.28,-0.31 -30.243,123.03 1.282,0.32 z m 31.951,-121.71 -1.3,-5.75 -3.83,4.49 5.13,1.26 z"/>
    <path id="path264" style="fill:#ff0000;fill-opacity:1;fill-rule:nonzero;stroke:none" d="m 282.87,434.58 30.15,-60.26 -1.18,-0.59 -30.15,60.26 1.18,0.59 z M 314.4,376 l 0,-5.9 -4.72,3.54 4.72,2.36 z"/>
    <path id="path266" style="fill:#ff0000;fill-opacity:1;fill-rule:nonzero;stroke:none" d="m 382.25,394.73 29.44,-63.2 -1.2,-0.55 -29.43,63.2 1.19,0.55 z m 30.86,-61.56 -0.16,-5.9 -4.63,3.67 4.79,2.23 z"/>
    <path id="path268" style="fill:#ff0000;fill-opacity:1;fill-rule:nonzero;stroke:none" d="m 479.96,451.86 30.15,-60.25 -1.18,-0.59 -30.15,60.25 1.18,0.59 z m 31.53,-58.58 0,-5.9 -4.72,3.54 4.72,2.36 z"/>
  </g>
</svg>
