<?xml version="1.0" encoding="UTF-8" standalone="no"?>
<svg xmlns:dc="http://purl.org/dc/elements/1.1/" xmlns:cc="http://creativecommons.org/ns#" xmlns:rdf="http://www.w3.org/1999/02/22-rdf-syntax-ns#" xmlns:svg="http://www.w3.org/2000/svg" xmlns="http://www.w3.org/2000/svg" viewBox="63.1275 317.7 638.8725 354.5875" height="354.5875" width="638.8725" xml:space="preserve" version="1.1" id="svg2">
  <metadata id="metadata8">
    <rdf:RDF>
      <cc:Work rdf:about="">
        <dc:format>image/svg+xml</dc:format>
        <dc:type rdf:resource="http://purl.org/dc/dcmitype/StillImage"/>
      </cc:Work>
    </rdf:RDF>
  </metadata>
  <defs id="defs6">
    <clipPath id="clipPath16" clipPathUnits="userSpaceOnUse">
      <path style="clip-rule:evenodd" id="path18" d="m 50.4,254.16 511.2,0 0,283.68 -511.2,0 0,-283.68 z"/>
    </clipPath>
    <clipPath id="clipPath26" clipPathUnits="userSpaceOnUse">
      <path style="clip-rule:evenodd" id="path28" d="m 50.4,254.16 511.2,0 0,283.68 -511.2,0 0,-283.68 z"/>
    </clipPath>
    <clipPath id="clipPath48" clipPathUnits="userSpaceOnUse">
      <path style="clip-rule:evenodd" id="path50" d="m 50.52,254.16 511.08,0 0,283.56 -511.08,0 0,-283.56 z"/>
    </clipPath>
    <clipPath id="clipPath60" clipPathUnits="userSpaceOnUse">
      <path style="clip-rule:evenodd" id="path62" d="m 50.52,254.16 511.08,0 0,283.56 -511.08,0 0,-283.56 z"/>
    </clipPath>
    <clipPath id="clipPath72" clipPathUnits="userSpaceOnUse">
      <path style="clip-rule:evenodd" id="path74" d="m 50.52,254.16 511.08,0 0,283.56 -511.08,0 0,-283.56 z"/>
    </clipPath>
    <clipPath id="clipPath84" clipPathUnits="userSpaceOnUse">
      <path style="clip-rule:evenodd" id="path86" d="m 50.52,254.16 511.08,0 0,283.56 -511.08,0 0,-283.56 z"/>
    </clipPath>
    <clipPath id="clipPath96" clipPathUnits="userSpaceOnUse">
      <path style="clip-rule:evenodd" id="path98" d="m 50.52,254.16 511.08,0 0,283.56 -511.08,0 0,-283.56 z"/>
    </clipPath>
    <clipPath id="clipPath108" clipPathUnits="userSpaceOnUse">
      <path style="clip-rule:evenodd" id="path110" d="m 50.52,254.16 511.08,0 0,283.56 -511.08,0 0,-283.56 z"/>
    </clipPath>
    <clipPath id="clipPath120" clipPathUnits="userSpaceOnUse">
      <path style="clip-rule:evenodd" id="path122" d="m 50.52,254.16 511.08,0 0,283.56 -511.08,0 0,-283.56 z"/>
    </clipPath>
    <clipPath id="clipPath132" clipPathUnits="userSpaceOnUse">
      <path style="clip-rule:evenodd" id="path134" d="m 50.52,254.16 511.08,0 0,283.56 -511.08,0 0,-283.56 z"/>
    </clipPath>
    <clipPath id="clipPath144" clipPathUnits="userSpaceOnUse">
      <path style="clip-rule:evenodd" id="path146" d="m 50.52,254.16 511.08,0 0,283.56 -511.08,0 0,-283.56 z"/>
    </clipPath>
    <clipPath id="clipPath156" clipPathUnits="userSpaceOnUse">
      <path style="clip-rule:evenodd" id="path158" d="m 50.52,254.16 511.08,0 0,283.56 -511.08,0 0,-283.56 z"/>
    </clipPath>
    <clipPath id="clipPath168" clipPathUnits="userSpaceOnUse">
      <path style="clip-rule:evenodd" id="path170" d="m 50.52,254.16 511.08,0 0,283.56 -511.08,0 0,-283.56 z"/>
    </clipPath>
    <clipPath id="clipPath180" clipPathUnits="userSpaceOnUse">
      <path style="clip-rule:evenodd" id="path182" d="m 50.52,254.16 511.08,0 0,283.56 -511.08,0 0,-283.56 z"/>
    </clipPath>
    <clipPath id="clipPath192" clipPathUnits="userSpaceOnUse">
      <path style="clip-rule:evenodd" id="path194" d="m 50.52,254.16 511.08,0 0,283.56 -511.08,0 0,-283.56 z"/>
    </clipPath>
    <clipPath id="clipPath204" clipPathUnits="userSpaceOnUse">
      <path style="clip-rule:evenodd" id="path206" d="m 50.52,254.16 511.08,0 0,283.56 -511.08,0 0,-283.56 z"/>
    </clipPath>
    <clipPath id="clipPath216" clipPathUnits="userSpaceOnUse">
      <path style="clip-rule:evenodd" id="path218" d="m 50.52,254.16 511.08,0 0,283.56 -511.08,0 0,-283.56 z"/>
    </clipPath>
    <clipPath id="clipPath228" clipPathUnits="userSpaceOnUse">
      <path style="clip-rule:evenodd" id="path230" d="m 50.52,254.16 511.08,0 0,283.56 -511.08,0 0,-283.56 z"/>
    </clipPath>
    <clipPath id="clipPath240" clipPathUnits="userSpaceOnUse">
      <path style="clip-rule:evenodd" id="path242" d="m 50.52,254.16 511.08,0 0,283.56 -511.08,0 0,-283.56 z"/>
    </clipPath>
    <clipPath id="clipPath252" clipPathUnits="userSpaceOnUse">
      <path style="clip-rule:evenodd" id="path254" d="m 50.52,254.16 511.08,0 0,283.56 -511.08,0 0,-283.56 z"/>
    </clipPath>
    <clipPath id="clipPath264" clipPathUnits="userSpaceOnUse">
      <path style="clip-rule:evenodd" id="path266" d="m 50.52,254.16 511.08,0 0,283.56 -511.08,0 0,-283.56 z"/>
    </clipPath>
    <clipPath id="clipPath276" clipPathUnits="userSpaceOnUse">
      <path style="clip-rule:evenodd" id="path278" d="m 50.52,254.16 511.08,0 0,283.56 -511.08,0 0,-283.56 z"/>
    </clipPath>
    <clipPath id="clipPath288" clipPathUnits="userSpaceOnUse">
      <path style="clip-rule:evenodd" id="path290" d="m 50.52,254.16 511.08,0 0,283.56 -511.08,0 0,-283.56 z"/>
    </clipPath>
    <clipPath id="clipPath300" clipPathUnits="userSpaceOnUse">
      <path style="clip-rule:evenodd" id="path302" d="m 50.474,254.25 511.06,0 0,283.56 -511.06,0 0,-283.56 z"/>
    </clipPath>
    <clipPath id="clipPath312" clipPathUnits="userSpaceOnUse">
      <path style="clip-rule:evenodd" id="path314" d="m 50.52,254.16 511.08,0 0,283.56 -511.08,0 0,-283.56 z"/>
    </clipPath>
    <clipPath id="clipPath326" clipPathUnits="userSpaceOnUse">
      <path style="clip-rule:evenodd" id="path328" d="m 50.52,254.16 511.08,0 0,283.56 -511.08,0 0,-283.56 z"/>
    </clipPath>
    <clipPath id="clipPath340" clipPathUnits="userSpaceOnUse">
      <path style="clip-rule:evenodd" id="path342" d="m 50.52,254.16 511.08,0 0,283.56 -511.08,0 0,-283.56 z"/>
    </clipPath>
    <clipPath id="clipPath354" clipPathUnits="userSpaceOnUse">
      <path style="clip-rule:evenodd" id="path356" d="m 50.52,254.16 511.08,0 0,283.56 -511.08,0 0,-283.56 z"/>
    </clipPath>
    <clipPath id="clipPath368" clipPathUnits="userSpaceOnUse">
      <path style="clip-rule:evenodd" id="path370" d="m 50.52,254.16 511.08,0 0,283.56 -511.08,0 0,-283.56 z"/>
    </clipPath>
  </defs>
  <g transform="matrix(1.25,0,0,-1.25,0,990)" id="g10">
    <g id="g12">
      <g clip-path="url(#clipPath16)" id="g14">
        <path id="path20" style="fill:none;stroke:#000000;stroke-width:0.14;stroke-linecap:butt;stroke-linejoin:miter;stroke-miterlimit:10;stroke-dasharray:none;stroke-opacity:0" d="m 50.572,254.24 511.06,0 0,283.53 -511.06,0 0,-283.53 z"/>
      </g>
    </g>
    <g id="g22">
      <g clip-path="url(#clipPath26)" id="g24">
        <path id="path30" style="fill:#ffffff;fill-opacity:1;fill-rule:evenodd;stroke:none" d="m 50.572,254.24 511.06,0 0,283.53 -511.06,0 0,-283.53 z"/>
      </g>
    </g>
    <path id="path32" style="fill:#d0b86a;fill-opacity:1;fill-rule:nonzero;stroke:none" d="m 137.15,300.19 29.54,0 0,-0.23 -29.54,0 0,0.23 z m 73.83,0.96 29.4,0 0,-1.19 -29.4,0 0,1.19 z m 73.7,1.37 29.39,0 0,-2.56 -29.39,0 0,2.56 z m 73.69,6.56 29.53,0 0,-9.12 -29.53,0 0,9.12 z m 73.69,3.14 29.53,0 0,-12.26 -29.53,0 0,12.26 z m 73.69,61.25 29.54,0 0,-73.51 -29.54,0 0,73.51 z"/>
    <path id="path34" style="fill:#8cd5f2;fill-opacity:1;fill-rule:nonzero;stroke:none" d="m 137.15,303.75 29.54,0 0,-3.56 -29.54,0 0,3.56 z m 73.83,1.91 29.4,0 0,-4.51 -29.4,0 0,4.51 z m 73.7,8.75 29.39,0 0,-11.89 -29.39,0 0,11.89 z m 73.69,27.62 29.53,0 0,-32.95 -29.53,0 0,32.95 z m 73.69,-3.69 29.53,0 0,-26.12 -29.53,0 0,26.12 z m 73.69,78.75 29.54,0 0,-43.62 -29.54,0 0,43.62 z"/>
    <path id="path36" style="fill:#3bc3a3;fill-opacity:1;fill-rule:nonzero;stroke:none" d="m 137.15,305.93 29.54,0 0,-2.18 -29.54,0 0,2.18 z m 73.83,2.46 29.4,0 0,-2.73 -29.4,0 0,2.73 z m 73.7,8.75 29.39,0 0,-2.73 -29.39,0 0,2.73 z m 73.69,27.21 29.53,0 0,-2.32 -29.53,0 0,2.32 z m 73.69,3.56 29.53,0 0,-9.57 -29.53,0 0,9.57 z m 73.69,98.44 29.54,0 0,-29.26 -29.54,0 0,29.26 z"/>
    <path id="path38" style="fill:#6769e2;fill-opacity:1;fill-rule:nonzero;stroke:none" d="m 137.15,314 29.54,0 0,-8.07 -29.54,0 0,8.07 z m 73.83,3.14 29.4,0 0,-8.75 -29.4,0 0,8.75 z m 73.7,7.66 29.39,0 0,-7.66 -29.39,0 0,7.66 z m 73.69,30.35 29.53,0 0,-10.8 -29.53,0 0,10.8 z m 73.69,10.12 29.53,0 0,-17.36 -29.53,0 0,17.36 z m 73.69,108.28 29.54,0 0,-27.2 -29.54,0 0,27.2 z"/>
    <path id="path40" style="fill:#005aa4;fill-opacity:1;fill-rule:nonzero;stroke:none" d="m 137.15,316.32 29.54,0 0,-2.32 -29.54,0 0,2.32 z m 73.83,2.46 29.4,0 0,-1.64 -29.4,0 0,1.64 z m 73.7,6.98 29.39,0 0,-0.96 -29.39,0 0,0.96 z m 73.69,30.49 29.53,0 0,-1.1 -29.53,0 0,1.1 z m 73.69,11.07 29.53,0 0,-2.05 -29.53,0 0,2.05 z m 73.69,122.64 29.54,0 0,-16.41 -29.54,0 0,16.41 z"/>
    <path id="path42" style="fill:none;stroke:#808080;stroke-width:1.42420006;stroke-linecap:round;stroke-linejoin:round;stroke-miterlimit:10;stroke-dasharray:none;stroke-opacity:1" d="m 115.11,299.96 442.27,0"/>
    <g id="g44">
      <g clip-path="url(#clipPath48)" id="g46"><text id="text52" style="font-variant:normal;font-weight:normal;font-size:10.27200031px;font-family:'Roboto Condensed';-inkscape-font-specification:RobotoCondensed-Regular;writing-mode:lr-tb;fill:#000000;fill-opacity:1;fill-rule:nonzero;stroke:none" transform="matrix(1,0,0,-1,507.94,333.1)"><tspan id="tspan54" y="0" x="0 5.039968 10.079936 15.119904 20.159872">$261b</tspan></text>
</g>
    </g>
    <g id="g56">
      <g clip-path="url(#clipPath60)" id="g58"><text id="text64" style="font-variant:normal;font-weight:normal;font-size:10.27200031px;font-family:'Roboto Condensed';-inkscape-font-specification:RobotoCondensed-Regular;writing-mode:lr-tb;fill:#000000;fill-opacity:1;fill-rule:nonzero;stroke:none" transform="matrix(1,0,0,-1,507.94,391.7)"><tspan id="tspan66" y="0" x="0 5.039968 10.079936 15.119904 20.159872">$155b</tspan></text>
</g>
    </g>
    <g id="g68">
      <g clip-path="url(#clipPath72)" id="g70"><text id="text76" style="font-variant:normal;font-weight:normal;font-size:10.27200031px;font-family:'Roboto Condensed';-inkscape-font-specification:RobotoCondensed-Regular;writing-mode:lr-tb;fill:#000000;fill-opacity:1;fill-rule:nonzero;stroke:none" transform="matrix(1,0,0,-1,507.94,428.16)"><tspan id="tspan78" y="0" x="0 5.039968 10.079936 15.119904 20.159872">$104b</tspan></text>
</g>
    </g>
    <g id="g80">
      <g clip-path="url(#clipPath84)" id="g82"><text id="text88" style="font-variant:normal;font-weight:normal;font-size:10.24800014px;font-family:'Roboto Condensed';-inkscape-font-specification:RobotoCondensed-Regular;writing-mode:lr-tb;fill:#ffffff;fill-opacity:1;fill-rule:nonzero;stroke:none" transform="matrix(1,0,0,-1,510.53,456.34)"><tspan id="tspan90" y="0" x="0 5.064002 10.128004 15.192006">$96b</tspan></text>
</g>
    </g>
    <g id="g92">
      <g clip-path="url(#clipPath96)" id="g94"><text id="text100" style="font-variant:normal;font-weight:normal;font-size:10.24800014px;font-family:'Roboto Condensed';-inkscape-font-specification:RobotoCondensed-Regular;writing-mode:lr-tb;fill:#ffffff;fill-opacity:1;fill-rule:nonzero;stroke:none" transform="matrix(1,0,0,-1,510.53,478.15)"><tspan id="tspan102" y="0" x="0 5.064002 10.128004 15.192006">$59b</tspan></text>
</g>
    </g>
    <g id="g104">
      <g clip-path="url(#clipPath108)" id="g106"><text id="text112" style="font-variant:normal;font-weight:normal;font-size:10.24800014px;font-family:'Roboto Condensed';-inkscape-font-specification:RobotoCondensed-Regular;writing-mode:lr-tb;fill:#000000;fill-opacity:1;fill-rule:nonzero;stroke:none" transform="matrix(1,0,0,-1,95.592,296.83)"><tspan id="tspan114" y="0" x="0 5.064002">$0</tspan></text>
</g>
    </g>
    <g id="g116">
      <g clip-path="url(#clipPath120)" id="g118"><text id="text124" style="font-variant:normal;font-weight:normal;font-size:10.24800014px;font-family:'Roboto Condensed';-inkscape-font-specification:RobotoCondensed-Regular;writing-mode:lr-tb;fill:#000000;fill-opacity:1;fill-rule:nonzero;stroke:none" transform="matrix(1,0,0,-1,68.256,325.01)"><tspan id="tspan126" y="0" x="0 5.0625119 10.125024 15.187536 20.250048 22.309896 27.372408 32.434921">$100,000</tspan></text>
</g>
    </g>
    <g id="g128">
      <g clip-path="url(#clipPath132)" id="g130"><text id="text136" style="font-variant:normal;font-weight:normal;font-size:10.27200031px;font-family:'Roboto Condensed';-inkscape-font-specification:RobotoCondensed-Regular;writing-mode:lr-tb;fill:#000000;fill-opacity:1;fill-rule:nonzero;stroke:none" transform="matrix(1,0,0,-1,68.256,353.18)"><tspan id="tspan138" y="0" x="0 5.074368 10.148736 15.192288 20.266657 22.310783 27.385153 32.459518">$200,000</tspan></text>
</g>
    </g>
    <g id="g140">
      <g clip-path="url(#clipPath144)" id="g142"><text id="text148" style="font-variant:normal;font-weight:normal;font-size:10.24800014px;font-family:'Roboto Condensed';-inkscape-font-specification:RobotoCondensed-Regular;writing-mode:lr-tb;fill:#000000;fill-opacity:1;fill-rule:nonzero;stroke:none" transform="matrix(1,0,0,-1,68.256,381.34)"><tspan id="tspan150" y="0" x="0 5.0625119 10.125024 15.187536 20.250048 22.309896 27.372408 32.434921">$300,000</tspan></text>
</g>
    </g>
    <g id="g152">
      <g clip-path="url(#clipPath156)" id="g154"><text id="text160" style="font-variant:normal;font-weight:normal;font-size:10.24800014px;font-family:'Roboto Condensed';-inkscape-font-specification:RobotoCondensed-Regular;writing-mode:lr-tb;fill:#000000;fill-opacity:1;fill-rule:nonzero;stroke:none" transform="matrix(1,0,0,-1,68.256,409.51)"><tspan id="tspan162" y="0" x="0 5.0625119 10.125024 15.187536 20.250048 22.309896 27.372408 32.434921">$400,000</tspan></text>
</g>
    </g>
    <g id="g164">
      <g clip-path="url(#clipPath168)" id="g166"><text id="text172" style="font-variant:normal;font-weight:normal;font-size:10.27200031px;font-family:'Roboto Condensed';-inkscape-font-specification:RobotoCondensed-Regular;writing-mode:lr-tb;fill:#000000;fill-opacity:1;fill-rule:nonzero;stroke:none" transform="matrix(1,0,0,-1,68.256,437.69)"><tspan id="tspan174" y="0" x="0 5.074368 10.148736 15.192288 20.266657 22.310783 27.385153 32.459518">$500,000</tspan></text>
</g>
    </g>
    <g id="g176">
      <g clip-path="url(#clipPath180)" id="g178"><text id="text184" style="font-variant:normal;font-weight:normal;font-size:10.24800014px;font-family:'Roboto Condensed';-inkscape-font-specification:RobotoCondensed-Regular;writing-mode:lr-tb;fill:#000000;fill-opacity:1;fill-rule:nonzero;stroke:none" transform="matrix(1,0,0,-1,68.256,465.84)"><tspan id="tspan186" y="0" x="0 5.0625119 10.125024 15.187536 20.250048 22.309896 27.372408 32.434921">$600,000</tspan></text>
</g>
    </g>
    <g id="g188">
      <g clip-path="url(#clipPath192)" id="g190"><text id="text196" style="font-variant:normal;font-weight:normal;font-size:10.24800014px;font-family:'Roboto Condensed';-inkscape-font-specification:RobotoCondensed-Regular;writing-mode:lr-tb;fill:#000000;fill-opacity:1;fill-rule:nonzero;stroke:none" transform="matrix(1,0,0,-1,68.256,494.02)"><tspan id="tspan198" y="0" x="0 5.0625119 10.125024 15.187536 20.250048 22.309896 27.372408 32.434921">$700,000</tspan></text>
</g>
    </g>
    <g id="g200">
      <g clip-path="url(#clipPath204)" id="g202"><text id="text208" style="font-variant:normal;font-weight:normal;font-size:10.27200031px;font-family:'Roboto Condensed';-inkscape-font-specification:RobotoCondensed-Regular;writing-mode:lr-tb;fill:#000000;fill-opacity:1;fill-rule:nonzero;stroke:none" transform="matrix(1,0,0,-1,68.256,522.19)"><tspan id="tspan210" y="0" x="0 5.074368 10.148736 15.192288 20.266657 22.310783 27.385153 32.459518">$800,000</tspan></text>
</g>
    </g>
    <g id="g212">
      <g clip-path="url(#clipPath216)" id="g214"><text id="text220" style="font-variant:normal;font-weight:normal;font-size:11.32800007px;font-family:'Roboto Condensed';-inkscape-font-specification:RobotoCondensed-Regular;writing-mode:lr-tb;fill:#000000;fill-opacity:1;fill-rule:nonzero;stroke:none" transform="matrix(1,0,0,-1,140.74,281.86)"><tspan id="tspan222" y="0" x="0 5.6160321 11.232064 16.848097">2020</tspan></text>
</g>
    </g>
    <g id="g224">
      <g clip-path="url(#clipPath228)" id="g226"><text id="text232" style="font-variant:normal;font-weight:normal;font-size:11.32800007px;font-family:'Roboto Condensed';-inkscape-font-specification:RobotoCondensed-Regular;writing-mode:lr-tb;fill:#000000;fill-opacity:1;fill-rule:nonzero;stroke:none" transform="matrix(1,0,0,-1,214.46,281.86)"><tspan id="tspan234" y="0" x="0 5.6160321 11.232064 16.848097">2021</tspan></text>
</g>
    </g>
    <g id="g236">
      <g clip-path="url(#clipPath240)" id="g238"><text id="text244" style="font-variant:normal;font-weight:normal;font-size:11.32800007px;font-family:'Roboto Condensed';-inkscape-font-specification:RobotoCondensed-Regular;writing-mode:lr-tb;fill:#000000;fill-opacity:1;fill-rule:nonzero;stroke:none" transform="matrix(1,0,0,-1,288.19,281.86)"><tspan id="tspan246" y="0" x="0 5.6160321 11.232064 16.848097">2022</tspan></text>
</g>
    </g>
    <g id="g248">
      <g clip-path="url(#clipPath252)" id="g250"><text id="text256" style="font-variant:normal;font-weight:normal;font-size:11.32800007px;font-family:'Roboto Condensed';-inkscape-font-specification:RobotoCondensed-Regular;writing-mode:lr-tb;fill:#000000;fill-opacity:1;fill-rule:nonzero;stroke:none" transform="matrix(1,0,0,-1,361.92,281.86)"><tspan id="tspan258" y="0" x="0 5.6160321 11.232064 16.848097">2023</tspan></text>
</g>
    </g>
    <g id="g260">
      <g clip-path="url(#clipPath264)" id="g262"><text id="text268" style="font-variant:normal;font-weight:normal;font-size:11.32800007px;font-family:'Roboto Condensed';-inkscape-font-specification:RobotoCondensed-Regular;writing-mode:lr-tb;fill:#000000;fill-opacity:1;fill-rule:nonzero;stroke:none" transform="matrix(1,0,0,-1,435.65,281.86)"><tspan id="tspan270" y="0" x="0 5.5920019 11.184004 16.776007">2024</tspan></text>
</g>
    </g>
    <g id="g272">
      <g clip-path="url(#clipPath276)" id="g274"><text id="text280" style="font-variant:normal;font-weight:normal;font-size:11.32800007px;font-family:'Roboto Condensed';-inkscape-font-specification:RobotoCondensed-Regular;writing-mode:lr-tb;fill:#000000;fill-opacity:1;fill-rule:nonzero;stroke:none" transform="matrix(1,0,0,-1,506.9,281.86)"><tspan id="tspan282" y="0" x="0 5.5960321 11.226048 16.822081 22.588032">2025*</tspan></text>
</g>
    </g>
    <g id="g284">
      <g clip-path="url(#clipPath288)" id="g286"><text id="text292" style="font-variant:normal;font-weight:bold;font-size:12.31200027px;font-family:'Roboto Condensed';-inkscape-font-specification:RobotoCondensed-Bold;writing-mode:lr-tb;fill:#000000;fill-opacity:1;fill-rule:nonzero;stroke:none" transform="matrix(1,0,0,-1,242.69,517.44)"><tspan id="tspan294" y="0" x="0 5.8974481 11.794896 17.495352 23.084999 28.982449 31.814207 38.782799 44.914177 54.086617 63.222118 66.386307 70.166084 79.363152 85.260597 91.268852 95.048637 100.66291 103.39618 107.37296 113.62745 122.76295">Lease Commitments ($m)</tspan></text>
</g>
    </g>
    <g id="g296">
      <g clip-path="url(#clipPath300)" id="g298">
        <path id="path304" style="fill:#ffffff;fill-opacity:1;fill-rule:evenodd;stroke:none" d="m 191.07,254.24 257.53,0 0,20.478 -257.53,0 0,-20.478 z"/>
      </g>
    </g>
    <path id="path306" style="fill:#d0b86a;fill-opacity:1;fill-rule:evenodd;stroke:none" d="m 204.64,261.4 6.1525,0 0,6.1525 -6.1525,0 0,-6.1525 z"/>
    <g id="g308">
      <g clip-path="url(#clipPath312)" id="g310"><text id="text316" style="font-variant:normal;font-weight:normal;font-size:11.35200024px;font-family:'Roboto Condensed';-inkscape-font-specification:RobotoCondensed-Regular;writing-mode:lr-tb;fill:#000000;fill-opacity:1;fill-rule:nonzero;stroke:none" transform="matrix(1,0,0,-1,213.48,261)"><tspan id="tspan318" y="0" x="0 6.8225522 12.850464 19.423271">ORCL</tspan></text>
</g>
    </g>
    <path id="path320" style="fill:#8cd5f2;fill-opacity:1;fill-rule:evenodd;stroke:none" d="m 251.35,261.4 6.1524,0 0,6.1525 -6.1524,0 0,-6.1525 z"/>
    <g id="g322">
      <g clip-path="url(#clipPath326)" id="g324"><text id="text330" style="font-variant:normal;font-weight:normal;font-size:11.35200024px;font-family:'Roboto Condensed';-inkscape-font-specification:RobotoCondensed-Regular;writing-mode:lr-tb;fill:#000000;fill-opacity:1;fill-rule:nonzero;stroke:none" transform="matrix(1,0,0,-1,260.21,261)"><tspan id="tspan332" y="0" x="0 8.6048164 14.485152 19.934113">MSFT</tspan></text>
</g>
    </g>
    <path id="path334" style="fill:#3bc3a3;fill-opacity:1;fill-rule:evenodd;stroke:none" d="m 299.21,261.4 6.1524,0 0,6.1525 -6.1524,0 0,-6.1525 z"/>
    <g id="g336">
      <g clip-path="url(#clipPath340)" id="g338"><text id="text344" style="font-variant:normal;font-weight:normal;font-size:11.35200024px;font-family:'Roboto Condensed';-inkscape-font-specification:RobotoCondensed-Regular;writing-mode:lr-tb;fill:#000000;fill-opacity:1;fill-rule:nonzero;stroke:none" transform="matrix(1,0,0,-1,308.06,261)"><tspan id="tspan346" y="0" x="0 8.6048164 14.24676 20.229263">META</tspan></text>
</g>
    </g>
    <path id="path348" style="fill:#6769e2;fill-opacity:1;fill-rule:evenodd;stroke:none" d="m 347.91,261.4 6.1524,0 0,6.1525 -6.1524,0 0,-6.1525 z"/>
    <g id="g350">
      <g clip-path="url(#clipPath354)" id="g352"><text id="text358" style="font-variant:normal;font-weight:normal;font-size:11.35200024px;font-family:'Roboto Condensed';-inkscape-font-specification:RobotoCondensed-Regular;writing-mode:lr-tb;fill:#000000;fill-opacity:1;fill-rule:nonzero;stroke:none" transform="matrix(1,0,0,-1,356.78,261)"><tspan id="tspan360" y="0" x="0 6.5387521 15.15492 21.148775">AMZN</tspan></text>
</g>
    </g>
    <path id="path362" style="fill:#005aa4;fill-opacity:1;fill-rule:evenodd;stroke:none" d="m 398.03,261.4 6.1524,0 0,6.1525 -6.1524,0 0,-6.1525 z"/>
    <g id="g364">
      <g clip-path="url(#clipPath368)" id="g366"><text id="text372" style="font-variant:normal;font-weight:normal;font-size:11.35200024px;font-family:'Roboto Condensed';-inkscape-font-specification:RobotoCondensed-Regular;writing-mode:lr-tb;fill:#000000;fill-opacity:1;fill-rule:nonzero;stroke:none" transform="matrix(1,0,0,-1,406.9,261)"><tspan id="tspan374" y="0" x="0 6.7090321 13.531584 20.388191 27.222095">GOOGL</tspan></text>
</g>
    </g>
  </g>
</svg>
