<?xml version="1.0" encoding="UTF-8" standalone="no"?>
<svg xmlns:dc="http://purl.org/dc/elements/1.1/" xmlns:cc="http://creativecommons.org/ns#" xmlns:rdf="http://www.w3.org/1999/02/22-rdf-syntax-ns#" xmlns:svg="http://www.w3.org/2000/svg" xmlns="http://www.w3.org/2000/svg" viewBox="63 97.21125 926.4 549.7375" height="549.7375" width="926.4" xml:space="preserve" version="1.1" id="svg2">
  <metadata id="metadata8">
    <rdf:RDF>
      <cc:Work rdf:about="">
        <dc:format>image/svg+xml</dc:format>
        <dc:type rdf:resource="http://purl.org/dc/dcmitype/StillImage"/>
      </cc:Work>
    </rdf:RDF>
  </metadata>
  <defs id="defs6">
    <clipPath id="clipPath16" clipPathUnits="userSpaceOnUse">
      <path style="clip-rule:evenodd" id="path18" d="m 50.4,77.76 741.12,0 0,439.8 -741.12,0 0,-439.8 z"/>
    </clipPath>
    <clipPath id="clipPath26" clipPathUnits="userSpaceOnUse">
      <path style="clip-rule:evenodd" id="path28" d="m 50.4,77.76 741.12,0 0,439.8 -741.12,0 0,-439.8 z"/>
    </clipPath>
    <clipPath id="clipPath86" clipPathUnits="userSpaceOnUse">
      <path style="clip-rule:evenodd" id="path88" d="m 50.52,77.88 741,0 0,439.56 -741,0 0,-439.56 z"/>
    </clipPath>
    <clipPath id="clipPath98" clipPathUnits="userSpaceOnUse">
      <path style="clip-rule:evenodd" id="path100" d="m 50.52,77.88 741,0 0,439.56 -741,0 0,-439.56 z"/>
    </clipPath>
    <clipPath id="clipPath110" clipPathUnits="userSpaceOnUse">
      <path style="clip-rule:evenodd" id="path112" d="m 50.52,77.88 741,0 0,439.56 -741,0 0,-439.56 z"/>
    </clipPath>
    <clipPath id="clipPath122" clipPathUnits="userSpaceOnUse">
      <path style="clip-rule:evenodd" id="path124" d="m 50.52,77.88 741,0 0,439.56 -741,0 0,-439.56 z"/>
    </clipPath>
    <clipPath id="clipPath134" clipPathUnits="userSpaceOnUse">
      <path style="clip-rule:evenodd" id="path136" d="m 50.52,77.88 741,0 0,439.56 -741,0 0,-439.56 z"/>
    </clipPath>
    <clipPath id="clipPath146" clipPathUnits="userSpaceOnUse">
      <path style="clip-rule:evenodd" id="path148" d="m 50.52,77.88 741,0 0,439.56 -741,0 0,-439.56 z"/>
    </clipPath>
    <clipPath id="clipPath158" clipPathUnits="userSpaceOnUse">
      <path style="clip-rule:evenodd" id="path160" d="m 50.52,77.88 741,0 0,439.56 -741,0 0,-439.56 z"/>
    </clipPath>
    <clipPath id="clipPath170" clipPathUnits="userSpaceOnUse">
      <path style="clip-rule:evenodd" id="path172" d="m 50.52,77.88 741,0 0,439.56 -741,0 0,-439.56 z"/>
    </clipPath>
    <clipPath id="clipPath182" clipPathUnits="userSpaceOnUse">
      <path style="clip-rule:evenodd" id="path184" d="m 50.52,77.88 741,0 0,439.56 -741,0 0,-439.56 z"/>
    </clipPath>
    <clipPath id="clipPath194" clipPathUnits="userSpaceOnUse">
      <path style="clip-rule:evenodd" id="path196" d="m 50.52,77.88 741,0 0,439.56 -741,0 0,-439.56 z"/>
    </clipPath>
    <clipPath id="clipPath206" clipPathUnits="userSpaceOnUse">
      <path style="clip-rule:evenodd" id="path208" d="m 50.52,77.88 741,0 0,439.56 -741,0 0,-439.56 z"/>
    </clipPath>
    <clipPath id="clipPath218" clipPathUnits="userSpaceOnUse">
      <path style="clip-rule:evenodd" id="path220" d="m 50.52,77.88 741,0 0,439.56 -741,0 0,-439.56 z"/>
    </clipPath>
    <clipPath id="clipPath230" clipPathUnits="userSpaceOnUse">
      <path style="clip-rule:evenodd" id="path232" d="m 50.52,77.88 741,0 0,439.56 -741,0 0,-439.56 z"/>
    </clipPath>
    <clipPath id="clipPath242" clipPathUnits="userSpaceOnUse">
      <path style="clip-rule:evenodd" id="path244" d="m 50.52,77.88 741,0 0,439.56 -741,0 0,-439.56 z"/>
    </clipPath>
    <clipPath id="clipPath254" clipPathUnits="userSpaceOnUse">
      <path style="clip-rule:evenodd" id="path256" d="m 50.52,77.88 741,0 0,439.56 -741,0 0,-439.56 z"/>
    </clipPath>
    <clipPath id="clipPath266" clipPathUnits="userSpaceOnUse">
      <path style="clip-rule:evenodd" id="path268" d="m 50.52,77.88 741,0 0,439.56 -741,0 0,-439.56 z"/>
    </clipPath>
    <clipPath id="clipPath278" clipPathUnits="userSpaceOnUse">
      <path style="clip-rule:evenodd" id="path280" d="m 50.52,77.88 741,0 0,439.56 -741,0 0,-439.56 z"/>
    </clipPath>
    <clipPath id="clipPath290" clipPathUnits="userSpaceOnUse">
      <path style="clip-rule:evenodd" id="path292" d="m 50.52,77.88 741,0 0,439.56 -741,0 0,-439.56 z"/>
    </clipPath>
    <clipPath id="clipPath302" clipPathUnits="userSpaceOnUse">
      <path style="clip-rule:evenodd" id="path304" d="m 50.52,77.88 741,0 0,439.56 -741,0 0,-439.56 z"/>
    </clipPath>
    <clipPath id="clipPath314" clipPathUnits="userSpaceOnUse">
      <path style="clip-rule:evenodd" id="path316" d="m 50.52,77.88 741,0 0,439.56 -741,0 0,-439.56 z"/>
    </clipPath>
    <clipPath id="clipPath326" clipPathUnits="userSpaceOnUse">
      <path style="clip-rule:evenodd" id="path328" d="m 50.52,77.88 741,0 0,439.56 -741,0 0,-439.56 z"/>
    </clipPath>
    <clipPath id="clipPath338" clipPathUnits="userSpaceOnUse">
      <path style="clip-rule:evenodd" id="path340" d="m 50.52,77.88 741,0 0,439.56 -741,0 0,-439.56 z"/>
    </clipPath>
    <clipPath id="clipPath350" clipPathUnits="userSpaceOnUse">
      <path style="clip-rule:evenodd" id="path352" d="m 50.52,77.88 741,0 0,439.56 -741,0 0,-439.56 z"/>
    </clipPath>
    <clipPath id="clipPath362" clipPathUnits="userSpaceOnUse">
      <path style="clip-rule:evenodd" id="path364" d="m 50.52,77.88 741,0 0,439.56 -741,0 0,-439.56 z"/>
    </clipPath>
    <clipPath id="clipPath374" clipPathUnits="userSpaceOnUse">
      <path style="clip-rule:evenodd" id="path376" d="m 50.52,77.88 741,0 0,439.56 -741,0 0,-439.56 z"/>
    </clipPath>
    <clipPath id="clipPath386" clipPathUnits="userSpaceOnUse">
      <path style="clip-rule:evenodd" id="path388" d="m 50.52,77.88 741,0 0,439.56 -741,0 0,-439.56 z"/>
    </clipPath>
    <clipPath id="clipPath398" clipPathUnits="userSpaceOnUse">
      <path style="clip-rule:evenodd" id="path400" d="m 50.52,77.88 741,0 0,439.56 -741,0 0,-439.56 z"/>
    </clipPath>
    <clipPath id="clipPath410" clipPathUnits="userSpaceOnUse">
      <path style="clip-rule:evenodd" id="path412" d="m 50.52,77.88 741,0 0,439.56 -741,0 0,-439.56 z"/>
    </clipPath>
    <clipPath id="clipPath422" clipPathUnits="userSpaceOnUse">
      <path style="clip-rule:evenodd" id="path424" d="m 50.52,77.88 741,0 0,439.56 -741,0 0,-439.56 z"/>
    </clipPath>
    <clipPath id="clipPath434" clipPathUnits="userSpaceOnUse">
      <path style="clip-rule:evenodd" id="path436" d="m 50.52,77.88 741,0 0,439.56 -741,0 0,-439.56 z"/>
    </clipPath>
    <clipPath id="clipPath446" clipPathUnits="userSpaceOnUse">
      <path style="clip-rule:evenodd" id="path448" d="m 50.52,77.88 741,0 0,439.56 -741,0 0,-439.56 z"/>
    </clipPath>
    <clipPath id="clipPath458" clipPathUnits="userSpaceOnUse">
      <path style="clip-rule:evenodd" id="path460" d="m 50.52,77.88 741,0 0,439.56 -741,0 0,-439.56 z"/>
    </clipPath>
  </defs>
  <g transform="matrix(1.25,0,0,-1.25,0,744.15)" id="g10">
    <g id="g12">
      <g clip-path="url(#clipPath16)" id="g14">
        <path id="path20" style="fill:none;stroke:#000000;stroke-width:0.14;stroke-linecap:butt;stroke-linejoin:miter;stroke-miterlimit:10;stroke-dasharray:none;stroke-opacity:0" d="m 50.46,77.831 741.12,0 0,439.65 -741.12,0 0,-439.65 z"/>
      </g>
    </g>
    <g id="g22">
      <g clip-path="url(#clipPath26)" id="g24">
        <path id="path30" style="fill:#ffffff;fill-opacity:1;fill-rule:evenodd;stroke:none" d="m 50.461,77.831 741.12,0 0,439.65 -741.12,0 0,-439.65 z"/>
      </g>
    </g>
    <path id="path32" style="fill:none;stroke:#c0c0c0;stroke-width:1.29279995;stroke-linecap:butt;stroke-linejoin:round;stroke-miterlimit:10;stroke-dasharray:none;stroke-opacity:1" d="m 112.03,165.43 660.59,0 m -660.59,41.16 660.59,0 m -660.59,41.37 660.59,0 m -660.59,41.16 660.59,0 m -660.59,41.16 660.59,0 m -660.59,41.37 660.59,0 m -660.59,41.16 660.59,0 m -660.59,41.18 660.59,0"/>
    <path id="path34" style="fill:none;stroke:#808080;stroke-width:1.29279995;stroke-linecap:butt;stroke-linejoin:round;stroke-miterlimit:10;stroke-dasharray:none;stroke-opacity:1" d="m 112.03,124.22 660.59,0"/>
    <path id="path36" style="fill:none;stroke:#137cb1;stroke-width:3.87829995;stroke-linecap:round;stroke-linejoin:round;stroke-miterlimit:10;stroke-dasharray:none;stroke-opacity:1" d="m 142.06,132.92 60.02,18.24 60.19,18.2 59.98,23.17 59.99,53.98 60.19,2.28 59.98,54.81 59.99,84.6 60.19,17.37 59.98,23.79 60.02,5.68"/>
    <path id="path38" style="fill:#137cb1;fill-opacity:1;fill-rule:nonzero;stroke:none" d="m 142.09,138.95 6,-6 -6,-5.99 -6,5.99 6,6 z"/>
    <path id="path40" style="fill:none;stroke:#137cb1;stroke-width:1.29279995;stroke-linecap:butt;stroke-linejoin:round;stroke-miterlimit:10;stroke-dasharray:none;stroke-opacity:1" d="m 142.09,138.95 6,-6 -6,-5.99 -6,5.99 6,6 z"/>
    <path id="path42" style="fill:#137cb1;fill-opacity:1;fill-rule:nonzero;stroke:none" d="m 202.08,157.15 6,-5.99 -6,-6 -6,6 6,5.99 z"/>
    <path id="path44" style="fill:none;stroke:#137cb1;stroke-width:1.29279995;stroke-linecap:butt;stroke-linejoin:round;stroke-miterlimit:10;stroke-dasharray:none;stroke-opacity:1" d="m 202.08,157.15 6,-5.99 -6,-6 -6,6 6,5.99 z"/>
    <path id="path46" style="fill:#137cb1;fill-opacity:1;fill-rule:nonzero;stroke:none" d="m 262.27,175.36 6,-6 -6,-6 -6,6 6,6 z"/>
    <path id="path48" style="fill:none;stroke:#137cb1;stroke-width:1.29279995;stroke-linecap:butt;stroke-linejoin:round;stroke-miterlimit:10;stroke-dasharray:none;stroke-opacity:1" d="m 262.27,175.36 6,-6 -6,-6 -6,6 6,6 z"/>
    <path id="path50" style="fill:#137cb1;fill-opacity:1;fill-rule:nonzero;stroke:none" d="m 322.25,198.52 6,-5.99 -6,-6 -6,6 6,5.99 z"/>
    <path id="path52" style="fill:none;stroke:#137cb1;stroke-width:1.29279995;stroke-linecap:butt;stroke-linejoin:round;stroke-miterlimit:10;stroke-dasharray:none;stroke-opacity:1" d="m 322.25,198.52 6,-5.99 -6,-6 -6,6 6,5.99 z"/>
    <path id="path54" style="fill:#137cb1;fill-opacity:1;fill-rule:nonzero;stroke:none" d="m 382.24,252.51 6,-6 -6,-6 -6,6 6,6 z"/>
    <path id="path56" style="fill:none;stroke:#137cb1;stroke-width:1.29279995;stroke-linecap:butt;stroke-linejoin:round;stroke-miterlimit:10;stroke-dasharray:none;stroke-opacity:1" d="m 382.24,252.51 6,-6 -6,-6 -6,6 6,6 z"/>
    <path id="path58" style="fill:#137cb1;fill-opacity:1;fill-rule:nonzero;stroke:none" d="m 442.43,254.79 6,-6 -6,-6 -6,6 6,6 z"/>
    <path id="path60" style="fill:none;stroke:#137cb1;stroke-width:1.29279995;stroke-linecap:butt;stroke-linejoin:round;stroke-miterlimit:10;stroke-dasharray:none;stroke-opacity:1" d="m 442.43,254.79 6,-6 -6,-6 -6,6 6,6 z"/>
    <path id="path62" style="fill:#137cb1;fill-opacity:1;fill-rule:nonzero;stroke:none" d="m 502.41,309.6 6,-6 -6,-6 -6,6 6,6 z"/>
    <path id="path64" style="fill:none;stroke:#137cb1;stroke-width:1.29279995;stroke-linecap:butt;stroke-linejoin:round;stroke-miterlimit:10;stroke-dasharray:none;stroke-opacity:1" d="m 502.41,309.6 6,-6 -6,-6 -6,6 6,6 z"/>
    <path id="path66" style="fill:#137cb1;fill-opacity:1;fill-rule:nonzero;stroke:none" d="m 562.4,394.2 6,-6 -6,-6 -6,6 6,6 z"/>
    <path id="path68" style="fill:none;stroke:#137cb1;stroke-width:1.29279995;stroke-linecap:butt;stroke-linejoin:round;stroke-miterlimit:10;stroke-dasharray:none;stroke-opacity:1" d="m 562.4,394.2 6,-6 -6,-6 -6,6 6,6 z"/>
    <path id="path70" style="fill:#137cb1;fill-opacity:1;fill-rule:nonzero;stroke:none" d="m 622.59,411.57 6,-6 -6,-5.99 -6,5.99 6,6 z"/>
    <path id="path72" style="fill:none;stroke:#137cb1;stroke-width:1.29279995;stroke-linecap:butt;stroke-linejoin:round;stroke-miterlimit:10;stroke-dasharray:none;stroke-opacity:1" d="m 622.59,411.57 6,-6 -6,-5.99 -6,5.99 6,6 z"/>
    <path id="path74" style="fill:#137cb1;fill-opacity:1;fill-rule:nonzero;stroke:none" d="m 682.57,435.36 6,-6 -6,-6 -5.99,6 5.99,6 z"/>
    <path id="path76" style="fill:none;stroke:#137cb1;stroke-width:1.29279995;stroke-linecap:butt;stroke-linejoin:round;stroke-miterlimit:10;stroke-dasharray:none;stroke-opacity:1" d="m 682.57,435.36 6,-6 -6,-6 -5.99,6 5.99,6 z"/>
    <path id="path78" style="fill:#137cb1;fill-opacity:1;fill-rule:nonzero;stroke:none" d="m 742.56,440.94 6,-5.99 -6,-6 -6,6 6,5.99 z"/>
    <path id="path80" style="fill:none;stroke:#137cb1;stroke-width:1.29279995;stroke-linecap:butt;stroke-linejoin:round;stroke-miterlimit:10;stroke-dasharray:none;stroke-opacity:1" d="m 742.56,440.94 6,-5.99 -6,-6 -6,6 6,5.99 z"/>
    <g id="g82">
      <g clip-path="url(#clipPath86)" id="g84"><text id="text90" style="font-variant:normal;font-weight:normal;font-size:19.03199959px;font-family:Calibri;-inkscape-font-specification:Calibri;writing-mode:lr-tb;fill:#000000;fill-opacity:1;fill-rule:nonzero;stroke:none" transform="matrix(1,0,0,-1,130.44,151.78)"><tspan id="tspan92" y="0" x="0 9.7200241">2%</tspan></text>
</g>
    </g>
    <g id="g94">
      <g clip-path="url(#clipPath98)" id="g96"><text id="text102" style="font-variant:normal;font-weight:normal;font-size:19.03199959px;font-family:Calibri;-inkscape-font-specification:Calibri;writing-mode:lr-tb;fill:#000000;fill-opacity:1;fill-rule:nonzero;stroke:none" transform="matrix(1,0,0,-1,190.49,170.06)"><tspan id="tspan104" y="0" x="0 9.7440243">7%</tspan></text>
</g>
    </g>
    <g id="g106">
      <g clip-path="url(#clipPath110)" id="g108"><text id="text114" style="font-variant:normal;font-weight:normal;font-size:19.03199959px;font-family:Calibri;-inkscape-font-specification:Calibri;writing-mode:lr-tb;fill:#000000;fill-opacity:1;fill-rule:nonzero;stroke:none" transform="matrix(1,0,0,-1,245.59,188.16)"><tspan id="tspan116" y="0" x="0 9.7200241 19.440048">11%</tspan></text>
</g>
    </g>
    <g id="g118">
      <g clip-path="url(#clipPath122)" id="g120"><text id="text126" style="font-variant:normal;font-weight:normal;font-size:19.03199959px;font-family:Calibri;-inkscape-font-specification:Calibri;writing-mode:lr-tb;fill:#000000;fill-opacity:1;fill-rule:nonzero;stroke:none" transform="matrix(1,0,0,-1,305.66,211.34)"><tspan id="tspan128" y="0" x="0 9.7200241 19.440048">17%</tspan></text>
</g>
    </g>
    <g id="g130">
      <g clip-path="url(#clipPath134)" id="g132"><text id="text138" style="font-variant:normal;font-weight:normal;font-size:19.03199959px;font-family:Calibri;-inkscape-font-specification:Calibri;writing-mode:lr-tb;fill:#000000;fill-opacity:1;fill-rule:nonzero;stroke:none" transform="matrix(1,0,0,-1,365.71,265.42)"><tspan id="tspan140" y="0" x="0 9.7200241 19.440048">30%</tspan></text>
</g>
    </g>
    <g id="g142">
      <g clip-path="url(#clipPath146)" id="g144"><text id="text150" style="font-variant:normal;font-weight:normal;font-size:19.03199959px;font-family:Calibri;-inkscape-font-specification:Calibri;writing-mode:lr-tb;fill:#000000;fill-opacity:1;fill-rule:nonzero;stroke:none" transform="matrix(1,0,0,-1,425.78,267.6)"><tspan id="tspan152" y="0" x="0 9.7200241 19.440048">30%</tspan></text>
</g>
    </g>
    <g id="g154">
      <g clip-path="url(#clipPath158)" id="g156"><text id="text162" style="font-variant:normal;font-weight:normal;font-size:19.05599976px;font-family:Calibri;-inkscape-font-specification:Calibri;writing-mode:lr-tb;fill:#000000;fill-opacity:1;fill-rule:nonzero;stroke:none" transform="matrix(1,0,0,-1,485.83,322.46)"><tspan id="tspan164" y="0" x="0 9.7439919 19.487984">44%</tspan></text>
</g>
    </g>
    <g id="g166">
      <g clip-path="url(#clipPath170)" id="g168"><text id="text174" style="font-variant:normal;font-weight:normal;font-size:19.03199959px;font-family:Calibri;-inkscape-font-specification:Calibri;writing-mode:lr-tb;fill:#000000;fill-opacity:1;fill-rule:nonzero;stroke:none" transform="matrix(1,0,0,-1,545.9,407.04)"><tspan id="tspan176" y="0" x="0 9.7200241 19.440048">64%</tspan></text>
</g>
    </g>
    <g id="g178">
      <g clip-path="url(#clipPath182)" id="g180"><text id="text186" style="font-variant:normal;font-weight:normal;font-size:19.03199959px;font-family:Calibri;-inkscape-font-specification:Calibri;writing-mode:lr-tb;fill:#000000;fill-opacity:1;fill-rule:nonzero;stroke:none" transform="matrix(1,0,0,-1,605.98,424.51)"><tspan id="tspan188" y="0" x="0 9.7200241 19.440048">68%</tspan></text>
</g>
    </g>
    <g id="g190">
      <g clip-path="url(#clipPath194)" id="g192"><text id="text198" style="font-variant:normal;font-weight:normal;font-size:19.03199959px;font-family:Calibri;-inkscape-font-specification:Calibri;writing-mode:lr-tb;fill:#000000;fill-opacity:1;fill-rule:nonzero;stroke:none" transform="matrix(1,0,0,-1,666.02,448.34)"><tspan id="tspan200" y="0" x="0 9.7200241 19.440048">74%</tspan></text>
</g>
    </g>
    <g id="g202">
      <g clip-path="url(#clipPath206)" id="g204"><text id="text210" style="font-variant:normal;font-weight:normal;font-size:19.03199959px;font-family:Calibri;-inkscape-font-specification:Calibri;writing-mode:lr-tb;fill:#000000;fill-opacity:1;fill-rule:nonzero;stroke:none" transform="matrix(1,0,0,-1,726.1,453.96)"><tspan id="tspan212" y="0" x="0 9.7200241 19.440048">75%</tspan></text>
</g>
    </g>
    <g id="g214">
      <g clip-path="url(#clipPath218)" id="g216"><text id="text222" style="font-variant:normal;font-weight:normal;font-size:19.03199959px;font-family:Calibri;-inkscape-font-specification:Calibri;writing-mode:lr-tb;fill:#000000;fill-opacity:1;fill-rule:nonzero;stroke:none" transform="matrix(1,0,0,-1,71.28,118.75)"><tspan id="tspan224" y="0" x="0 9.528224">0%</tspan></text>
</g>
    </g>
    <g id="g226">
      <g clip-path="url(#clipPath230)" id="g228"><text id="text234" style="font-variant:normal;font-weight:normal;font-size:19.03199959px;font-family:Calibri;-inkscape-font-specification:Calibri;writing-mode:lr-tb;fill:#000000;fill-opacity:1;fill-rule:nonzero;stroke:none" transform="matrix(1,0,0,-1,61.68,159.98)"><tspan id="tspan236" y="0" x="0 9.4969683 19.203287">10%</tspan></text>
</g>
    </g>
    <g id="g238">
      <g clip-path="url(#clipPath242)" id="g240"><text id="text246" style="font-variant:normal;font-weight:normal;font-size:19.03199959px;font-family:Calibri;-inkscape-font-specification:Calibri;writing-mode:lr-tb;fill:#000000;fill-opacity:1;fill-rule:nonzero;stroke:none" transform="matrix(1,0,0,-1,61.68,201.22)"><tspan id="tspan248" y="0" x="0 9.4969683 19.203287">20%</tspan></text>
</g>
    </g>
    <g id="g250">
      <g clip-path="url(#clipPath254)" id="g252"><text id="text258" style="font-variant:normal;font-weight:normal;font-size:19.03199959px;font-family:Calibri;-inkscape-font-specification:Calibri;writing-mode:lr-tb;fill:#000000;fill-opacity:1;fill-rule:nonzero;stroke:none" transform="matrix(1,0,0,-1,61.68,242.45)"><tspan id="tspan260" y="0" x="0 9.4969683 19.203287">30%</tspan></text>
</g>
    </g>
    <g id="g262">
      <g clip-path="url(#clipPath266)" id="g264"><text id="text270" style="font-variant:normal;font-weight:normal;font-size:19.03199959px;font-family:Calibri;-inkscape-font-specification:Calibri;writing-mode:lr-tb;fill:#000000;fill-opacity:1;fill-rule:nonzero;stroke:none" transform="matrix(1,0,0,-1,61.68,283.68)"><tspan id="tspan272" y="0" x="0 9.4969683 19.203287">40%</tspan></text>
</g>
    </g>
    <g id="g274">
      <g clip-path="url(#clipPath278)" id="g276"><text id="text282" style="font-variant:normal;font-weight:normal;font-size:19.03199959px;font-family:Calibri;-inkscape-font-specification:Calibri;writing-mode:lr-tb;fill:#000000;fill-opacity:1;fill-rule:nonzero;stroke:none" transform="matrix(1,0,0,-1,61.68,324.91)"><tspan id="tspan284" y="0" x="0 9.4969683 19.203287">50%</tspan></text>
</g>
    </g>
    <g id="g286">
      <g clip-path="url(#clipPath290)" id="g288"><text id="text294" style="font-variant:normal;font-weight:normal;font-size:19.03199959px;font-family:Calibri;-inkscape-font-specification:Calibri;writing-mode:lr-tb;fill:#000000;fill-opacity:1;fill-rule:nonzero;stroke:none" transform="matrix(1,0,0,-1,61.68,366.12)"><tspan id="tspan296" y="0" x="0 9.4969683 19.203287">60%</tspan></text>
</g>
    </g>
    <g id="g298">
      <g clip-path="url(#clipPath302)" id="g300"><text id="text306" style="font-variant:normal;font-weight:normal;font-size:19.03199959px;font-family:Calibri;-inkscape-font-specification:Calibri;writing-mode:lr-tb;fill:#000000;fill-opacity:1;fill-rule:nonzero;stroke:none" transform="matrix(1,0,0,-1,61.68,407.35)"><tspan id="tspan308" y="0" x="0 9.4969683 19.203287">70%</tspan></text>
</g>
    </g>
    <g id="g310">
      <g clip-path="url(#clipPath314)" id="g312"><text id="text318" style="font-variant:normal;font-weight:normal;font-size:19.03199959px;font-family:Calibri;-inkscape-font-specification:Calibri;writing-mode:lr-tb;fill:#000000;fill-opacity:1;fill-rule:nonzero;stroke:none" transform="matrix(1,0,0,-1,61.68,448.58)"><tspan id="tspan320" y="0" x="0 9.4969683 19.203287">80%</tspan></text>
</g>
    </g>
    <g id="g322">
      <g clip-path="url(#clipPath326)" id="g324"><text id="text330" style="font-variant:normal;font-weight:normal;font-size:19.03199959px;font-family:Calibri;-inkscape-font-specification:Calibri;writing-mode:lr-tb;fill:#000000;fill-opacity:1;fill-rule:nonzero;stroke:none" transform="matrix(1,0,0,-1,122.86,94.08)"><tspan id="tspan332" y="0" x="0 9.5350323 19.241352 28.776384">2018</tspan></text>
</g>
    </g>
    <g id="g334">
      <g clip-path="url(#clipPath338)" id="g336"><text id="text342" style="font-variant:normal;font-weight:normal;font-size:19.03199959px;font-family:Calibri;-inkscape-font-specification:Calibri;writing-mode:lr-tb;fill:#000000;fill-opacity:1;fill-rule:nonzero;stroke:none" transform="matrix(1,0,0,-1,182.93,94.08)"><tspan id="tspan344" y="0" x="0 9.4969683 19.203287 28.700256">2019</tspan></text>
</g>
    </g>
    <g id="g346">
      <g clip-path="url(#clipPath350)" id="g348"><text id="text354" style="font-variant:normal;font-weight:normal;font-size:19.03199959px;font-family:Calibri;-inkscape-font-specification:Calibri;writing-mode:lr-tb;fill:#000000;fill-opacity:1;fill-rule:nonzero;stroke:none" transform="matrix(1,0,0,-1,242.98,94.08)"><tspan id="tspan356" y="0" x="0 9.5350323 19.241352 28.776384">2020</tspan></text>
</g>
    </g>
    <g id="g358">
      <g clip-path="url(#clipPath362)" id="g360"><text id="text366" style="font-variant:normal;font-weight:normal;font-size:19.03199959px;font-family:Calibri;-inkscape-font-specification:Calibri;writing-mode:lr-tb;fill:#000000;fill-opacity:1;fill-rule:nonzero;stroke:none" transform="matrix(1,0,0,-1,303.05,94.08)"><tspan id="tspan368" y="0" x="0 9.4969683 19.203287 28.700256">2021</tspan></text>
</g>
    </g>
    <g id="g370">
      <g clip-path="url(#clipPath374)" id="g372"><text id="text378" style="font-variant:normal;font-weight:normal;font-size:19.03199959px;font-family:Calibri;-inkscape-font-specification:Calibri;writing-mode:lr-tb;fill:#000000;fill-opacity:1;fill-rule:nonzero;stroke:none" transform="matrix(1,0,0,-1,363.1,94.08)"><tspan id="tspan380" y="0" x="0 9.5350323 19.241352 28.776384">2022</tspan></text>
</g>
    </g>
    <g id="g382">
      <g clip-path="url(#clipPath386)" id="g384"><text id="text390" style="font-variant:normal;font-weight:normal;font-size:19.03199959px;font-family:Calibri;-inkscape-font-specification:Calibri;writing-mode:lr-tb;fill:#000000;fill-opacity:1;fill-rule:nonzero;stroke:none" transform="matrix(1,0,0,-1,423.17,94.08)"><tspan id="tspan392" y="0" x="0 9.4969683 19.203287 28.700256">2023</tspan></text>
</g>
    </g>
    <g id="g394">
      <g clip-path="url(#clipPath398)" id="g396"><text id="text402" style="font-variant:normal;font-weight:normal;font-size:19.03199959px;font-family:Calibri;-inkscape-font-specification:Calibri;writing-mode:lr-tb;fill:#000000;fill-opacity:1;fill-rule:nonzero;stroke:none" transform="matrix(1,0,0,-1,483.22,94.08)"><tspan id="tspan404" y="0" x="0 9.5350323 19.260384 28.795416">2024</tspan></text>
</g>
    </g>
    <g id="g406">
      <g clip-path="url(#clipPath410)" id="g408"><text id="text414" style="font-variant:normal;font-weight:normal;font-size:19.03199959px;font-family:Calibri;-inkscape-font-specification:Calibri;writing-mode:lr-tb;fill:#000000;fill-opacity:1;fill-rule:nonzero;stroke:none" transform="matrix(1,0,0,-1,543.29,94.08)"><tspan id="tspan416" y="0" x="0 9.4969683 19.203287 28.700256">2025</tspan></text>
</g>
    </g>
    <g id="g418">
      <g clip-path="url(#clipPath422)" id="g420"><text id="text426" style="font-variant:normal;font-weight:normal;font-size:19.03199959px;font-family:Calibri;-inkscape-font-specification:Calibri;writing-mode:lr-tb;fill:#000000;fill-opacity:1;fill-rule:nonzero;stroke:none" transform="matrix(1,0,0,-1,598.63,94.08)"><tspan id="tspan428" y="0" x="0 9.4969683 19.203287 28.700256 38.406574">2026e</tspan></text>
</g>
    </g>
    <g id="g430">
      <g clip-path="url(#clipPath434)" id="g432"><text id="text438" style="font-variant:normal;font-weight:normal;font-size:19.03199959px;font-family:Calibri;-inkscape-font-specification:Calibri;writing-mode:lr-tb;fill:#000000;fill-opacity:1;fill-rule:nonzero;stroke:none" transform="matrix(1,0,0,-1,658.68,94.08)"><tspan id="tspan440" y="0" x="0 9.5350323 19.260384 28.795416 38.520767">2027e</tspan></text>
</g>
    </g>
    <g id="g442">
      <g clip-path="url(#clipPath446)" id="g444"><text id="text450" style="font-variant:normal;font-weight:normal;font-size:19.03199959px;font-family:Calibri;-inkscape-font-specification:Calibri;writing-mode:lr-tb;fill:#000000;fill-opacity:1;fill-rule:nonzero;stroke:none" transform="matrix(1,0,0,-1,718.75,94.08)"><tspan id="tspan452" y="0" x="0 9.4969683 19.203287 28.700256 38.406574">2028e</tspan></text>
</g>
    </g>
    <g id="g454">
      <g clip-path="url(#clipPath458)" id="g456"><text id="text462" style="font-variant:normal;font-weight:normal;font-size:22.75200081px;font-family:Calibri;-inkscape-font-specification:Calibri;writing-mode:lr-tb;fill:#000000;fill-opacity:1;fill-rule:nonzero;stroke:none" transform="matrix(1,0,0,-1,187.06,482.81)"><tspan id="tspan464" y="0" x="0 10.966464 21.500641 40.953602 53.14867 58.176865 67.072899 71.987328 90.166176 101.1554 109.02758 118.56067 129.75465 137.37657 142.7688 151.66483 163.60963 174.6216 182.26627 193.59677 198.6022 203.83517 215.77997 220.92192 232.91223 243.12787 254.45837 261.96652 272.91025 278.14319 283.28516 288.24509 300.44016 312.20294 326.92349 331.88342 350.06229 361.05148 372.99628 385.0321 391.65292 402.59665 412.289 419.91092 431.92398 439.79617 445.02911 456.97391">TSMC's market share in overall CPU manufacturing</tspan></text>
</g>
    </g>
  </g>
</svg>
