<?xml version="1.0" encoding="UTF-8" standalone="no"?>
<svg xmlns:dc="http://purl.org/dc/elements/1.1/" xmlns:cc="http://creativecommons.org/ns#" xmlns:rdf="http://www.w3.org/1999/02/22-rdf-syntax-ns#" xmlns:svg="http://www.w3.org/2000/svg" xmlns="http://www.w3.org/2000/svg" viewBox="63 285.0625 639 420" height="420" width="639" xml:space="preserve" version="1.1" id="svg2">
  <metadata id="metadata8">
    <rdf:RDF>
      <cc:Work rdf:about="">
        <dc:format>image/svg+xml</dc:format>
        <dc:type rdf:resource="http://purl.org/dc/dcmitype/StillImage"/>
      </cc:Work>
    </rdf:RDF>
  </metadata>
  <defs id="defs6">
    <clipPath id="clipPath16" clipPathUnits="userSpaceOnUse">
      <path style="clip-rule:evenodd" id="path18" d="m 50.4,228 511.2,0 0,336 -511.2,0 0,-336 z"/>
    </clipPath>
    <clipPath id="clipPath26" clipPathUnits="userSpaceOnUse">
      <path style="clip-rule:evenodd" id="path28" d="m 50.4,228 511.2,0 0,336 -511.2,0 0,-336 z"/>
    </clipPath>
    <clipPath id="clipPath46" clipPathUnits="userSpaceOnUse">
      <path style="clip-rule:evenodd" id="path48" d="m 50.4,228 511.2,0 0,335.88 -511.2,0 0,-335.88 z"/>
    </clipPath>
    <clipPath id="clipPath58" clipPathUnits="userSpaceOnUse">
      <path style="clip-rule:evenodd" id="path60" d="m 50.4,228 511.2,0 0,335.88 -511.2,0 0,-335.88 z"/>
    </clipPath>
    <clipPath id="clipPath70" clipPathUnits="userSpaceOnUse">
      <path style="clip-rule:evenodd" id="path72" d="m 50.4,228 511.2,0 0,335.88 -511.2,0 0,-335.88 z"/>
    </clipPath>
    <clipPath id="clipPath82" clipPathUnits="userSpaceOnUse">
      <path style="clip-rule:evenodd" id="path84" d="m 50.4,228 511.2,0 0,335.88 -511.2,0 0,-335.88 z"/>
    </clipPath>
    <clipPath id="clipPath94" clipPathUnits="userSpaceOnUse">
      <path style="clip-rule:evenodd" id="path96" d="m 50.4,228 511.2,0 0,335.88 -511.2,0 0,-335.88 z"/>
    </clipPath>
    <clipPath id="clipPath106" clipPathUnits="userSpaceOnUse">
      <path style="clip-rule:evenodd" id="path108" d="m 50.4,228 511.2,0 0,335.88 -511.2,0 0,-335.88 z"/>
    </clipPath>
    <clipPath id="clipPath118" clipPathUnits="userSpaceOnUse">
      <path style="clip-rule:evenodd" id="path120" d="m 50.4,228 511.2,0 0,335.88 -511.2,0 0,-335.88 z"/>
    </clipPath>
    <clipPath id="clipPath130" clipPathUnits="userSpaceOnUse">
      <path style="clip-rule:evenodd" id="path132" d="m 50.4,228 511.2,0 0,335.88 -511.2,0 0,-335.88 z"/>
    </clipPath>
    <clipPath id="clipPath142" clipPathUnits="userSpaceOnUse">
      <path style="clip-rule:evenodd" id="path144" d="m 50.4,228 511.2,0 0,335.88 -511.2,0 0,-335.88 z"/>
    </clipPath>
    <clipPath id="clipPath154" clipPathUnits="userSpaceOnUse">
      <path style="clip-rule:evenodd" id="path156" d="m 50.52,228 511.08,0 0,335.88 -511.08,0 0,-335.88 z"/>
    </clipPath>
    <clipPath id="clipPath166" clipPathUnits="userSpaceOnUse">
      <path style="clip-rule:evenodd" id="path168" d="m 50.4,228 511.2,0 0,335.88 -511.2,0 0,-335.88 z"/>
    </clipPath>
    <clipPath id="clipPath178" clipPathUnits="userSpaceOnUse">
      <path style="clip-rule:evenodd" id="path180" d="m 50.4,228 511.2,0 0,335.88 -511.2,0 0,-335.88 z"/>
    </clipPath>
    <clipPath id="clipPath190" clipPathUnits="userSpaceOnUse">
      <path style="clip-rule:evenodd" id="path192" d="m 50.4,228 511.2,0 0,335.88 -511.2,0 0,-335.88 z"/>
    </clipPath>
    <clipPath id="clipPath202" clipPathUnits="userSpaceOnUse">
      <path style="clip-rule:evenodd" id="path204" d="m 50.4,228 511.2,0 0,335.88 -511.2,0 0,-335.88 z"/>
    </clipPath>
    <clipPath id="clipPath214" clipPathUnits="userSpaceOnUse">
      <path style="clip-rule:evenodd" id="path216" d="m 50.52,228 511.08,0 0,335.88 -511.08,0 0,-335.88 z"/>
    </clipPath>
    <clipPath id="clipPath226" clipPathUnits="userSpaceOnUse">
      <path style="clip-rule:evenodd" id="path228" d="m 50.52,228 511.08,0 0,335.88 -511.08,0 0,-335.88 z"/>
    </clipPath>
    <clipPath id="clipPath238" clipPathUnits="userSpaceOnUse">
      <path style="clip-rule:evenodd" id="path240" d="m 50.52,228 511.08,0 0,335.88 -511.08,0 0,-335.88 z"/>
    </clipPath>
    <clipPath id="clipPath250" clipPathUnits="userSpaceOnUse">
      <path style="clip-rule:evenodd" id="path252" d="m 50.4,228 511.2,0 0,335.88 -511.2,0 0,-335.88 z"/>
    </clipPath>
    <clipPath id="clipPath262" clipPathUnits="userSpaceOnUse">
      <path style="clip-rule:evenodd" id="path264" d="m 50.52,228 511.08,0 0,335.88 -511.08,0 0,-335.88 z"/>
    </clipPath>
    <clipPath id="clipPath274" clipPathUnits="userSpaceOnUse">
      <path style="clip-rule:evenodd" id="path276" d="m 50.4,228 511.2,0 0,335.88 -511.2,0 0,-335.88 z"/>
    </clipPath>
    <clipPath id="clipPath286" clipPathUnits="userSpaceOnUse">
      <path style="clip-rule:evenodd" id="path288" d="m 50.4,228 511.2,0 0,335.88 -511.2,0 0,-335.88 z"/>
    </clipPath>
    <clipPath id="clipPath302" clipPathUnits="userSpaceOnUse">
      <path style="clip-rule:evenodd" id="path304" d="m 50.4,228 511.2,0 0,335.88 -511.2,0 0,-335.88 z"/>
    </clipPath>
    <clipPath id="clipPath316" clipPathUnits="userSpaceOnUse">
      <path style="clip-rule:evenodd" id="path318" d="m 50.4,228 511.2,0 0,335.88 -511.2,0 0,-335.88 z"/>
    </clipPath>
    <clipPath id="clipPath330" clipPathUnits="userSpaceOnUse">
      <path style="clip-rule:evenodd" id="path332" d="m 50.52,228 511.08,0 0,335.88 -511.08,0 0,-335.88 z"/>
    </clipPath>
    <clipPath id="clipPath344" clipPathUnits="userSpaceOnUse">
      <path style="clip-rule:evenodd" id="path346" d="m 50.52,228 511.08,0 0,335.88 -511.08,0 0,-335.88 z"/>
    </clipPath>
    <clipPath id="clipPath356" clipPathUnits="userSpaceOnUse">
      <path style="clip-rule:evenodd" id="path358" d="m 50.4,228 511.2,0 0,335.88 -511.2,0 0,-335.88 z"/>
    </clipPath>
    <clipPath id="clipPath368" clipPathUnits="userSpaceOnUse">
      <path style="clip-rule:evenodd" id="path370" d="m 50.4,228 511.2,0 0,335.88 -511.2,0 0,-335.88 z"/>
    </clipPath>
    <clipPath id="clipPath380" clipPathUnits="userSpaceOnUse">
      <path style="clip-rule:evenodd" id="path382" d="m 50.4,228 511.2,0 0,335.88 -511.2,0 0,-335.88 z"/>
    </clipPath>
    <clipPath id="clipPath392" clipPathUnits="userSpaceOnUse">
      <path style="clip-rule:evenodd" id="path394" d="m 50.4,228 511.2,0 0,335.88 -511.2,0 0,-335.88 z"/>
    </clipPath>
  </defs>
  <g transform="matrix(1.25,0,0,-1.25,0,990)" id="g10">
    <g id="g12">
      <g clip-path="url(#clipPath16)" id="g14">
        <path id="path20" style="fill:none;stroke:#000000;stroke-width:0.14;stroke-linecap:butt;stroke-linejoin:miter;stroke-miterlimit:10;stroke-dasharray:none;stroke-opacity:0" d="m 50.412,227.95 511.17,0 0,335.93 -511.17,0 0,-335.93 z"/>
      </g>
    </g>
    <g id="g22">
      <g clip-path="url(#clipPath26)" id="g24">
        <path id="path30" style="fill:#ffffff;fill-opacity:1;fill-rule:evenodd;stroke:none" d="m 50.412,227.95 511.17,0 0,335.93 -511.17,0 0,-335.93 z"/>
      </g>
    </g>
    <path id="path32" style="fill:none;stroke:#808080;stroke-width:1.03120005;stroke-linecap:round;stroke-linejoin:round;stroke-miterlimit:10;stroke-dasharray:none;stroke-opacity:1" d="m 79.11,265.7 455.67,0"/>
    <path id="path34" style="fill:none;stroke:#005aa4;stroke-width:1.23740005;stroke-linecap:round;stroke-linejoin:round;stroke-miterlimit:10;stroke-dasharray:none;stroke-opacity:1" d="m 81.388,276.4 4.554,0.2 4.554,0.2 4.554,0.2 4.553,0.1 4.557,0.1 4.55,0.1 4.55,0.49 4.56,0.69 4.55,0.2 4.56,0.1 4.55,0.2 4.55,0.3 4.56,0.29 4.55,0.4 4.55,0.59 4.56,0.2 4.65,0.2 4.55,0.1 4.56,0.2 4.55,0.09 4.55,-0.09 4.56,-5.61 4.55,0.16 4.56,0.1 4.55,0.4 4.55,0.09 4.56,0.2 4.55,0.1 4.55,0 4.56,0.2 4.55,0.1 4.56,0.2 4.55,0.19 4.55,0.3 4.56,-1.29 4.55,-0.09 4.55,0.19 4.56,0.1 4.55,0.1 4.55,0.2 4.56,-0.1 4.55,0.1 4.56,0.2 4.55,0.2 4.55,0.09 4.56,0 4.55,0.1 4.55,0.2 4.56,0.1 4.65,0.1 4.55,0.3 4.56,0.19 4.55,0.3 4.56,0.2 4.55,0.2 4.55,0.1 4.56,0.19 4.55,0.1 4.55,0.2 4.56,0.1 4.55,0.2 4.55,0.1 4.56,0.2 4.55,0.09 4.56,0.1 4.55,0.2 4.55,0.2 4.56,0.1 4.55,0.2 4.55,0.1 4.56,0.19 4.55,0.2 4.56,0.1 4.55,0.2 4.55,0.1 4.56,0.2 4.55,0.09 4.55,0 4.56,0.2 4.55,0.1 4.55,0.2 4.56,0 4.55,0.2 4.65,0.1 4.56,0.1 4.55,0.19 4.56,0.1 4.55,0.2 4.55,0.2 4.56,0.2 4.55,0.79 4.55,0.1 4.56,0.2 4.55,0.19 4.56,0.2 4.55,0.3 4.55,0.39 4.56,0.5 4.55,1.05"/>
    <path id="path36" style="fill:none;stroke:#eadfbc;stroke-width:1.23740005;stroke-linecap:round;stroke-linejoin:round;stroke-miterlimit:10;stroke-dasharray:none;stroke-opacity:1" d="m 81.388,276.36 4.554,1.83 4.554,0.1 4.554,0.29 4.553,2.48 4.557,2.08 4.55,1.78 4.55,1.98 4.56,0.69 4.55,0.1 4.56,0.1 4.55,0.2 4.55,1.18 4.56,1.79 4.55,0.59 4.55,1.39 4.56,0.1 4.65,0.09 4.55,1.09 4.56,1.88 4.55,0.3 4.55,2.87 4.56,0.99 4.55,0.2 4.56,0.1 4.55,0.69 4.55,1.29 4.56,3.27 4.55,8.81 4.55,30.68 4.56,0.2 4.55,0.2 4.56,0.49 4.55,2.68 4.55,0.49 4.56,0.6 4.55,2.37 4.55,0.2 4.56,0.4 4.55,0.19 4.55,0.2 4.56,0.6 4.55,4.35 4.56,14.36 4.55,0.29 4.55,0.3 4.56,0.2 4.55,0.1 4.55,1.09 4.56,0.79 4.65,2.37 4.55,0.3 4.56,0.3 4.55,1.58 4.56,0.99 4.55,2.77 4.55,0.3 4.56,1.49 4.55,0.29 4.55,0.2 4.56,0.3 4.55,0.89 4.55,0.69 4.56,0.59 4.55,3.17 4.56,0.3 4.55,0.3 4.55,0.49 4.56,2.08 4.55,6.53 4.55,1.09 4.56,6.24 4.55,0.3 4.56,2.57 4.55,7.62 4.55,1.09 4.56,0.79 4.55,15.55 4.55,1.38 4.56,0.4 4.55,0.39 4.55,0.89 4.56,1.29 4.55,1.58 4.65,4.26 4.56,0.79 4.55,1.39 4.56,0.4 4.55,1.28 4.55,0.89 4.56,0.7 4.55,0.79 4.55,2.18 4.56,0.29 4.55,0.2 4.56,3.47 4.55,4.75 4.55,5.94 4.56,2.27 4.55,3.08"/>
    <path id="path38" style="fill:none;stroke:#226b5a;stroke-width:1.23740005;stroke-linecap:round;stroke-linejoin:round;stroke-miterlimit:10;stroke-dasharray:none;stroke-opacity:1" d="m 81.388,276.36 4.554,0.34 4.554,0.1 4.554,0.1 4.553,0.3 4.557,0.19 4.55,0.2 4.55,0.4 4.56,0.49 4.55,0.1 4.56,0.1 4.55,0.3 4.55,0.1 4.56,0.59 4.55,0.4 4.55,0.59 4.56,0.1 4.65,0.2 4.55,0 4.56,0.99 4.55,0.99 4.55,1.29 4.56,1.78 4.55,0.19 4.56,0.1 4.55,0.1 4.55,0.5 4.56,0.29 4.55,0.1 4.55,0.4 4.56,0.2 4.55,0.1 4.56,1.38 4.55,0.1 4.55,0.1 4.56,0.2 4.55,0.99 4.55,0.1 4.56,0.2 4.55,0 4.55,0.19 4.56,0.1 4.55,0.2 4.56,0.2 4.55,0.1 4.55,0.2 4.56,0.19 4.55,0 4.55,0.2 4.56,0.2 4.65,0.59 4.55,0.2 4.56,0.1 4.55,-0.59 4.56,2.97 4.55,1.98 4.55,0.69 4.56,1.09 4.55,0.2 4.55,0.19 4.56,0.2 4.55,0.2 4.55,0.59 4.56,0.5 4.55,0.3 4.56,0.19 4.55,0.2 4.55,0.1 4.56,1.29 4.55,0.99 4.55,0.1 4.56,0.59 4.55,0.2 4.56,0.2 4.55,0.29 4.55,0.2 4.56,0.2 4.55,0.2 4.55,0 4.56,0.2 4.55,0.29 4.55,-0.1 4.56,0.5 4.55,0.69 4.65,0.79 4.56,0.6 4.55,0.2 4.56,0.29 4.55,0.4 4.55,0.2 4.56,0.69 4.55,0.69 4.55,0.3 4.56,0.2 4.55,0.29 4.56,0.1 4.55,1.19 4.55,0.69 4.56,0.1 4.55,0.96"/>
    <path id="path40" style="fill:none;stroke:#8cd5f2;stroke-width:1.23740005;stroke-linecap:round;stroke-linejoin:round;stroke-miterlimit:10;stroke-dasharray:none;stroke-opacity:1" d="m 81.388,276.36 4.554,0.94 4.554,0 4.554,0 4.553,1.58 4.557,2.18 4.55,-0.7 4.55,0.7 4.56,0.69 4.55,0 4.56,0 4.55,-0.3 4.55,0.99 4.56,1.39 4.55,0.89 4.55,1.09 4.56,0 4.65,0 4.55,0.3 4.56,3.46 4.55,0.89 4.55,-0.1 4.56,-1.78 4.55,0 4.56,0 4.55,0.3 4.55,0.59 4.56,1.59 4.55,0.39 4.55,-1.98 4.56,0 4.55,0 4.56,1.49 4.55,1.38 4.55,0.2 4.56,-0.59 4.55,-1.59 4.55,0 4.56,0 4.55,-0.2 4.55,0.2 4.56,0.5 4.55,-0.2 4.56,2.28 4.55,0 4.55,0 4.56,0.29 4.55,-0.39 4.55,0.29 4.56,-0.09 4.65,0 4.55,0 4.56,0 4.55,-0.5 4.56,0.1 4.55,0.69 4.55,3.37 4.56,1.48 4.55,0 4.55,0 4.56,0 4.55,-1.58 4.55,-0.59 4.56,1.48 4.55,0.5 4.56,0 4.55,0 4.55,-0.7 4.56,1.09 4.55,0.6 4.55,-0.2 4.56,1.98 4.55,0 4.56,0 4.55,0.69 4.55,0.79 4.56,1.49 4.55,10.29 4.55,1.19 4.56,0 4.55,0 4.55,-1.29 4.56,1.19 4.55,0 4.65,1.29 4.56,-0.2 4.55,0 4.56,0 4.55,-1.58 4.55,-0.89 4.56,2.47 4.55,0 4.55,0.2 4.56,0 4.55,0 4.56,0.99 4.55,0.2 4.55,2.27 4.56,1.29 4.55,0.55"/>
    <g id="g42">
      <g clip-path="url(#clipPath46)" id="g44"><text id="text50" style="font-variant:normal;font-weight:normal;font-size:7.41599989px;font-family:'Roboto Condensed';-inkscape-font-specification:RobotoCondensed-Regular;writing-mode:lr-tb;fill:#000000;fill-opacity:1;fill-rule:nonzero;stroke:none" transform="matrix(1,0,0,-1,64.992,263.42)"><tspan id="tspan52" y="0" x="0 3.6480041">90</tspan></text>
</g>
    </g>
    <g id="g54">
      <g clip-path="url(#clipPath58)" id="g56"><text id="text62" style="font-variant:normal;font-weight:normal;font-size:7.41599989px;font-family:'Roboto Condensed';-inkscape-font-specification:RobotoCondensed-Regular;writing-mode:lr-tb;fill:#000000;fill-opacity:1;fill-rule:nonzero;stroke:none" transform="matrix(1,0,0,-1,61.32,316.73)"><tspan id="tspan64" y="0" x="0 3.672004 7.344008">140</tspan></text>
</g>
    </g>
    <g id="g66">
      <g clip-path="url(#clipPath70)" id="g68"><text id="text74" style="font-variant:normal;font-weight:normal;font-size:7.41599989px;font-family:'Roboto Condensed';-inkscape-font-specification:RobotoCondensed-Regular;writing-mode:lr-tb;fill:#000000;fill-opacity:1;fill-rule:nonzero;stroke:none" transform="matrix(1,0,0,-1,61.32,370.03)"><tspan id="tspan76" y="0" x="0 3.672004 7.344008">190</tspan></text>
</g>
    </g>
    <g id="g78">
      <g clip-path="url(#clipPath82)" id="g80"><text id="text86" style="font-variant:normal;font-weight:normal;font-size:7.41599989px;font-family:'Roboto Condensed';-inkscape-font-specification:RobotoCondensed-Regular;writing-mode:lr-tb;fill:#000000;fill-opacity:1;fill-rule:nonzero;stroke:none" transform="matrix(1,0,0,-1,61.32,423.34)"><tspan id="tspan88" y="0" x="0 3.672004 7.344008">240</tspan></text>
</g>
    </g>
    <g id="g90">
      <g clip-path="url(#clipPath94)" id="g92"><text id="text98" style="font-variant:normal;font-weight:normal;font-size:7.41599989px;font-family:'Roboto Condensed';-inkscape-font-specification:RobotoCondensed-Regular;writing-mode:lr-tb;fill:#000000;fill-opacity:1;fill-rule:nonzero;stroke:none" transform="matrix(1,0,0,-1,61.32,476.64)"><tspan id="tspan100" y="0" x="0 3.672004 7.344008">290</tspan></text>
</g>
    </g>
    <g id="g102">
      <g clip-path="url(#clipPath106)" id="g104"><text id="text110" style="font-variant:normal;font-weight:normal;font-size:7.41599989px;font-family:'Roboto Condensed';-inkscape-font-specification:RobotoCondensed-Regular;writing-mode:lr-tb;fill:#000000;fill-opacity:1;fill-rule:nonzero;stroke:none" transform="matrix(1,0,0,-1,61.32,529.94)"><tspan id="tspan112" y="0" x="0 3.672004 7.344008">340</tspan></text>
</g>
    </g>
    <g id="g114">
      <g clip-path="url(#clipPath118)" id="g116"><text id="text122" style="font-variant:normal;font-weight:normal;font-size:7.44000006px;font-family:'Roboto Condensed';-inkscape-font-specification:RobotoCondensed-Regular;writing-mode:lr-tb;fill:#000000;fill-opacity:1;fill-rule:nonzero;stroke:none" transform="matrix(1,0,0,-1,71.448,253.9)"><tspan id="tspan124" y="0" x="0 3.5935199 7.15728 10.72848 12.59592 16.27128">Jan-26</tspan></text>
</g>
    </g>
    <g id="g126">
      <g clip-path="url(#clipPath130)" id="g128"><text id="text134" style="font-variant:normal;font-weight:normal;font-size:7.44000006px;font-family:'Roboto Condensed';-inkscape-font-specification:RobotoCondensed-Regular;writing-mode:lr-tb;fill:#000000;fill-opacity:1;fill-rule:nonzero;stroke:none" transform="matrix(1,0,0,-1,103.34,253.9)"><tspan id="tspan136" y="0" x="0 3.5935199 7.15728 10.72848 12.61824 16.2936">Jan-26</tspan></text>
</g>
    </g>
    <g id="g138">
      <g clip-path="url(#clipPath142)" id="g140"><text id="text146" style="font-variant:normal;font-weight:normal;font-size:7.44000006px;font-family:'Roboto Condensed';-inkscape-font-specification:RobotoCondensed-Regular;writing-mode:lr-tb;fill:#000000;fill-opacity:1;fill-rule:nonzero;stroke:none" transform="matrix(1,0,0,-1,135.26,253.9)"><tspan id="tspan148" y="0" x="0 3.5488801 7.1126399 10.65408 12.52152 16.16712">Jan-26</tspan></text>
</g>
    </g>
    <g id="g150">
      <g clip-path="url(#clipPath154)" id="g152"><text id="text158" style="font-variant:normal;font-weight:normal;font-size:7.44000006px;font-family:'Roboto Condensed';-inkscape-font-specification:RobotoCondensed-Regular;writing-mode:lr-tb;fill:#000000;fill-opacity:1;fill-rule:nonzero;stroke:none" transform="matrix(1,0,0,-1,167.16,253.9)"><tspan id="tspan160" y="0" x="0 3.5488801 7.1126399 10.65408 12.52152 16.16712">Jan-26</tspan></text>
</g>
    </g>
    <g id="g162">
      <g clip-path="url(#clipPath166)" id="g164"><text id="text170" style="font-variant:normal;font-weight:normal;font-size:7.44000006px;font-family:'Roboto Condensed';-inkscape-font-specification:RobotoCondensed-Regular;writing-mode:lr-tb;fill:#000000;fill-opacity:1;fill-rule:nonzero;stroke:none" transform="matrix(1,0,0,-1,199.06,253.9)"><tspan id="tspan172" y="0" x="0 3.5935199 7.15728 10.72848 12.59592 16.27128">Jan-26</tspan></text>
</g>
    </g>
    <g id="g174">
      <g clip-path="url(#clipPath178)" id="g176"><text id="text182" style="font-variant:normal;font-weight:normal;font-size:7.44000006px;font-family:'Roboto Condensed';-inkscape-font-specification:RobotoCondensed-Regular;writing-mode:lr-tb;fill:#000000;fill-opacity:1;fill-rule:nonzero;stroke:none" transform="matrix(1,0,0,-1,230.98,253.9)"><tspan id="tspan184" y="0" x="0 3.5711999 7.0084801 10.6764 12.54384 16.2192">Feb-26</tspan></text>
</g>
    </g>
    <g id="g186">
      <g clip-path="url(#clipPath190)" id="g188"><text id="text194" style="font-variant:normal;font-weight:normal;font-size:7.44000006px;font-family:'Roboto Condensed';-inkscape-font-specification:RobotoCondensed-Regular;writing-mode:lr-tb;fill:#000000;fill-opacity:1;fill-rule:nonzero;stroke:none" transform="matrix(1,0,0,-1,262.87,253.9)"><tspan id="tspan196" y="0" x="0 3.5711999 7.0531201 10.72104 12.61824 16.2936">Feb-26</tspan></text>
</g>
    </g>
    <g id="g198">
      <g clip-path="url(#clipPath202)" id="g200"><text id="text206" style="font-variant:normal;font-weight:normal;font-size:7.44000006px;font-family:'Roboto Condensed';-inkscape-font-specification:RobotoCondensed-Regular;writing-mode:lr-tb;fill:#000000;fill-opacity:1;fill-rule:nonzero;stroke:none" transform="matrix(1,0,0,-1,294.77,253.9)"><tspan id="tspan208" y="0" x="0 3.5711999 7.0531201 10.72104 12.61824 16.2936">Feb-26</tspan></text>
</g>
    </g>
    <g id="g210">
      <g clip-path="url(#clipPath214)" id="g212"><text id="text218" style="font-variant:normal;font-weight:normal;font-size:7.44000006px;font-family:'Roboto Condensed';-inkscape-font-specification:RobotoCondensed-Regular;writing-mode:lr-tb;fill:#000000;fill-opacity:1;fill-rule:nonzero;stroke:none" transform="matrix(1,0,0,-1,326.69,253.9)"><tspan id="tspan220" y="0" x="0 3.5711999 7.0084801 10.6764 12.52152 16.19688">Feb-26</tspan></text>
</g>
    </g>
    <g id="g222">
      <g clip-path="url(#clipPath226)" id="g224"><text id="text230" style="font-variant:normal;font-weight:normal;font-size:7.44000006px;font-family:'Roboto Condensed';-inkscape-font-specification:RobotoCondensed-Regular;writing-mode:lr-tb;fill:#000000;fill-opacity:1;fill-rule:nonzero;stroke:none" transform="matrix(1,0,0,-1,358.22,253.9)"><tspan id="tspan232" y="0" x="0 5.6320801 9.1958399 11.39064 13.25808 16.933439">Mar-26</tspan></text>
</g>
    </g>
    <g id="g234">
      <g clip-path="url(#clipPath238)" id="g236"><text id="text242" style="font-variant:normal;font-weight:normal;font-size:7.44000006px;font-family:'Roboto Condensed';-inkscape-font-specification:RobotoCondensed-Regular;writing-mode:lr-tb;fill:#000000;fill-opacity:1;fill-rule:nonzero;stroke:none" transform="matrix(1,0,0,-1,390.12,253.9)"><tspan id="tspan244" y="0" x="0 5.6320801 9.1958399 11.39064 13.2804 16.955759">Mar-26</tspan></text>
</g>
    </g>
    <g id="g246">
      <g clip-path="url(#clipPath250)" id="g248"><text id="text254" style="font-variant:normal;font-weight:normal;font-size:7.44000006px;font-family:'Roboto Condensed';-inkscape-font-specification:RobotoCondensed-Regular;writing-mode:lr-tb;fill:#000000;fill-opacity:1;fill-rule:nonzero;stroke:none" transform="matrix(1,0,0,-1,422.04,253.9)"><tspan id="tspan256" y="0" x="0 5.6320801 9.1958399 11.346 13.21344 16.859039">Mar-26</tspan></text>
</g>
    </g>
    <g id="g258">
      <g clip-path="url(#clipPath262)" id="g260"><text id="text266" style="font-variant:normal;font-weight:normal;font-size:7.44000006px;font-family:'Roboto Condensed';-inkscape-font-specification:RobotoCondensed-Regular;writing-mode:lr-tb;fill:#000000;fill-opacity:1;fill-rule:nonzero;stroke:none" transform="matrix(1,0,0,-1,453.94,253.9)"><tspan id="tspan268" y="0" x="0 5.6320801 9.1958399 11.36832 13.23576 16.881359">Mar-26</tspan></text>
</g>
    </g>
    <g id="g270">
      <g clip-path="url(#clipPath274)" id="g272"><text id="text278" style="font-variant:normal;font-weight:normal;font-size:7.44000006px;font-family:'Roboto Condensed';-inkscape-font-specification:RobotoCondensed-Regular;writing-mode:lr-tb;fill:#000000;fill-opacity:1;fill-rule:nonzero;stroke:none" transform="matrix(1,0,0,-1,486.46,253.9)"><tspan id="tspan280" y="0" x="0 4.24824 7.9161601 10.1556 12.02304 15.66864">Apr-26</tspan></text>
</g>
    </g>
    <g id="g282">
      <g clip-path="url(#clipPath286)" id="g284"><text id="text290" style="font-variant:normal;font-weight:normal;font-size:7.44000006px;font-family:'Roboto Condensed';-inkscape-font-specification:RobotoCondensed-Regular;writing-mode:lr-tb;fill:#000000;fill-opacity:1;fill-rule:nonzero;stroke:none" transform="matrix(1,0,0,-1,518.35,253.9)"><tspan id="tspan292" y="0" x="0 4.24824 7.9161601 10.17792 12.03792 15.68352">Apr-26</tspan></text>
</g>
    </g>
    <path id="path294" style="fill:#ffffff;fill-opacity:1;fill-rule:evenodd;stroke:none" d="m 202.21,545.16 207.57,0 0,13.77 -207.57,0 0,-13.77 z"/>
    <path id="path296" style="fill:none;stroke:#005aa4;stroke-width:1.23740005;stroke-linecap:round;stroke-linejoin:round;stroke-miterlimit:10;stroke-dasharray:none;stroke-opacity:1" d="m 211.73,552.05 15.84,0"/>
    <g id="g298">
      <g clip-path="url(#clipPath302)" id="g300"><text id="text306" style="font-variant:normal;font-weight:normal;font-size:7.44000006px;font-family:'Roboto Condensed';-inkscape-font-specification:RobotoCondensed-Regular;writing-mode:lr-tb;fill:#000000;fill-opacity:1;fill-rule:nonzero;stroke:none" transform="matrix(1,0,0,-1,229.27,549.82)"><tspan id="tspan308" y="0" x="0 4.2631202 8.3179197">CPU</tspan></text>
</g>
    </g>
    <path id="path310" style="fill:none;stroke:#eadfbc;stroke-width:1.23740005;stroke-linecap:round;stroke-linejoin:round;stroke-miterlimit:10;stroke-dasharray:none;stroke-opacity:1" d="m 250.94,552.05 15.84,0"/>
    <g id="g312">
      <g clip-path="url(#clipPath316)" id="g314"><text id="text320" style="font-variant:normal;font-weight:normal;font-size:7.44000006px;font-family:'Roboto Condensed';-inkscape-font-specification:RobotoCondensed-Regular;writing-mode:lr-tb;fill:#000000;fill-opacity:1;fill-rule:nonzero;stroke:none" transform="matrix(1,0,0,-1,268.49,549.82)"><tspan id="tspan322" y="0" x="0 5.6543999 9.1363201 14.67912 18.436319 20.69808">Memory</tspan></text>
</g>
    </g>
    <path id="path324" style="fill:none;stroke:#226b5a;stroke-width:1.23740005;stroke-linecap:round;stroke-linejoin:round;stroke-miterlimit:10;stroke-dasharray:none;stroke-opacity:1" d="m 301.41,552.05 15.84,0"/>
    <g id="g326">
      <g clip-path="url(#clipPath330)" id="g328"><text id="text334" style="font-variant:normal;font-weight:normal;font-size:7.44000006px;font-family:'Roboto Condensed';-inkscape-font-specification:RobotoCondensed-Regular;writing-mode:lr-tb;fill:#000000;fill-opacity:1;fill-rule:nonzero;stroke:none" transform="matrix(1,0,0,-1,318.98,549.82)"><tspan id="tspan336" y="0" x="0 4.24824 8.3030396 11.87424 13.53336 17.38728 20.95104 24.618959 28.0488 30.243601 32.50536 36.069118 38.26392 41.701199">ABF Substrates</tspan></text>
</g>
    </g>
    <path id="path338" style="fill:none;stroke:#8cd5f2;stroke-width:1.23740005;stroke-linecap:round;stroke-linejoin:round;stroke-miterlimit:10;stroke-dasharray:none;stroke-opacity:1" d="m 373.27,552.05 15.84,0"/>
    <g id="g340">
      <g clip-path="url(#clipPath344)" id="g342"><text id="text348" style="font-variant:normal;font-weight:normal;font-size:7.44000006px;font-family:'Roboto Condensed';-inkscape-font-specification:RobotoCondensed-Regular;writing-mode:lr-tb;fill:#000000;fill-opacity:1;fill-rule:nonzero;stroke:none" transform="matrix(1,0,0,-1,390.84,549.82)"><tspan id="tspan350" y="0" x="0 3.85392 8.3253603">SOX</tspan></text>
</g>
    </g>
    <g id="g352">
      <g clip-path="url(#clipPath356)" id="g354"><text id="text360" style="font-variant:normal;font-weight:bold;font-size:7.41599989px;font-family:Arial;-inkscape-font-specification:'Arial Bold';writing-mode:lr-tb;fill:#226b5a;fill-opacity:1;fill-rule:nonzero;stroke:none" transform="matrix(1,0,0,-1,535.1,311.81)"><tspan id="tspan362" y="0" x="0 4.3680439 8.5284405 12.688836">+39%</tspan></text>
</g>
    </g>
    <g id="g364">
      <g clip-path="url(#clipPath368)" id="g366"><text id="text372" style="font-variant:normal;font-weight:bold;font-size:7.41599989px;font-family:Arial;-inkscape-font-specification:'Arial Bold';writing-mode:lr-tb;fill:#eadfbc;fill-opacity:1;fill-rule:nonzero;stroke:none" transform="matrix(1,0,0,-1,535.1,470.38)"><tspan id="tspan374" y="0" x="0 4.3606081 8.5284004 12.696192 16.863983">+196%</tspan></text>
</g>
    </g>
    <g id="g376">
      <g clip-path="url(#clipPath380)" id="g378"><text id="text384" style="font-variant:normal;font-weight:bold;font-size:7.44000006px;font-family:Arial;-inkscape-font-specification:'Arial Bold';writing-mode:lr-tb;fill:#8cd5f2;fill-opacity:1;fill-rule:nonzero;stroke:none" transform="matrix(1,0,0,-1,535.1,321.24)"><tspan id="tspan386" y="0" x="0 4.3598399 8.5262403 12.69264">+45%</tspan></text>
</g>
    </g>
    <g id="g388">
      <g clip-path="url(#clipPath392)" id="g390"><text id="text396" style="font-variant:normal;font-weight:bold;font-size:7.44000006px;font-family:Arial;-inkscape-font-specification:'Arial Bold';writing-mode:lr-tb;fill:#005aa4;fill-opacity:1;fill-rule:nonzero;stroke:none" transform="matrix(1,0,0,-1,535.1,286.18)"><tspan id="tspan398" y="0" x="0 4.3598399 8.5262403 12.69264">+13%</tspan></text>
</g>
    </g>
  </g>
</svg>
