<?xml version="1.0" encoding="UTF-8" standalone="no"?>
<svg xmlns:dc="http://purl.org/dc/elements/1.1/" xmlns:cc="http://creativecommons.org/ns#" xmlns:rdf="http://www.w3.org/1999/02/22-rdf-syntax-ns#" xmlns:svg="http://www.w3.org/2000/svg" xmlns="http://www.w3.org/2000/svg" viewBox="16.8 15.6 644.6375 571.175" height="571.175" width="644.6375" xml:space="preserve" version="1.1" id="svg2">
  <metadata id="metadata8">
    <rdf:RDF>
      <cc:Work rdf:about="">
        <dc:format>image/svg+xml</dc:format>
        <dc:type rdf:resource="http://purl.org/dc/dcmitype/StillImage"/>
      </cc:Work>
    </rdf:RDF>
  </metadata>
  <defs id="defs6">
    <clipPath id="clipPath16" clipPathUnits="userSpaceOnUse">
      <path style="clip-rule:evenodd" id="path18" d="m 13.44,142.22 516.07,0 0,457.3 -516.07,0 0,-457.3 z"/>
    </clipPath>
    <clipPath id="clipPath66" clipPathUnits="userSpaceOnUse">
      <path style="clip-rule:evenodd" id="path68" d="m 12.48,142.32 516.96,0 0,458.16 -516.96,0 0,-458.16 z"/>
    </clipPath>
    <clipPath id="clipPath78" clipPathUnits="userSpaceOnUse">
      <path style="clip-rule:evenodd" id="path80" d="m 12.48,142.32 516.96,0 0,458.16 -516.96,0 0,-458.16 z"/>
    </clipPath>
    <clipPath id="clipPath94" clipPathUnits="userSpaceOnUse">
      <path style="clip-rule:evenodd" id="path96" d="m 12.48,142.32 516.96,0 0,458.16 -516.96,0 0,-458.16 z"/>
    </clipPath>
    <clipPath id="clipPath110" clipPathUnits="userSpaceOnUse">
      <path style="clip-rule:evenodd" id="path112" d="m 12.48,142.32 516.96,0 0,458.16 -516.96,0 0,-458.16 z"/>
    </clipPath>
    <clipPath id="clipPath122" clipPathUnits="userSpaceOnUse">
      <path style="clip-rule:evenodd" id="path124" d="m 12.48,142.32 516.96,0 0,458.16 -516.96,0 0,-458.16 z"/>
    </clipPath>
    <clipPath id="clipPath134" clipPathUnits="userSpaceOnUse">
      <path style="clip-rule:evenodd" id="path136" d="m 12.48,142.32 516.96,0 0,458.16 -516.96,0 0,-458.16 z"/>
    </clipPath>
    <clipPath id="clipPath146" clipPathUnits="userSpaceOnUse">
      <path style="clip-rule:evenodd" id="path148" d="m 12.48,142.32 516.96,0 0,458.16 -516.96,0 0,-458.16 z"/>
    </clipPath>
    <clipPath id="clipPath158" clipPathUnits="userSpaceOnUse">
      <path style="clip-rule:evenodd" id="path160" d="m 189.96,354 144,0 0,77.88 -144,0 0,-77.88 z"/>
    </clipPath>
    <clipPath id="clipPath170" clipPathUnits="userSpaceOnUse">
      <path style="clip-rule:evenodd" id="path172" d="m 12.48,142.32 516.96,0 0,458.16 -516.96,0 0,-458.16 z"/>
    </clipPath>
    <clipPath id="clipPath188" clipPathUnits="userSpaceOnUse">
      <path style="clip-rule:evenodd" id="path190" d="m 12.48,142.32 516.96,0 0,458.16 -516.96,0 0,-458.16 z"/>
    </clipPath>
    <clipPath id="clipPath202" clipPathUnits="userSpaceOnUse">
      <path style="clip-rule:evenodd" id="path204" d="m 12.48,142.32 516.96,0 0,458.16 -516.96,0 0,-458.16 z"/>
    </clipPath>
    <clipPath id="clipPath214" clipPathUnits="userSpaceOnUse">
      <path style="clip-rule:evenodd" id="path216" d="m 226.68,471.84 69.96,0 0,31.68 -69.96,0 0,-31.68 z"/>
    </clipPath>
    <clipPath id="clipPath226" clipPathUnits="userSpaceOnUse">
      <path style="clip-rule:evenodd" id="path228" d="m 156.12,463.8 57.12,0 0,19.44 -57.12,0 0,-19.44 z"/>
    </clipPath>
    <clipPath id="clipPath242" clipPathUnits="userSpaceOnUse">
      <path style="clip-rule:evenodd" id="path244" d="m 12.48,142.32 516.96,0 0,458.16 -516.96,0 0,-458.16 z"/>
    </clipPath>
    <clipPath id="clipPath254" clipPathUnits="userSpaceOnUse">
      <path style="clip-rule:evenodd" id="path256" d="m 343.44,453.96 72.6,0 0,31.56 -72.6,0 0,-31.56 z"/>
    </clipPath>
    <clipPath id="clipPath268" clipPathUnits="userSpaceOnUse">
      <path style="clip-rule:evenodd" id="path270" d="m 396.48,428.52 115.8,0 0,19.56 -115.8,0 0,-19.56 z"/>
    </clipPath>
    <clipPath id="clipPath280" clipPathUnits="userSpaceOnUse">
      <path style="clip-rule:evenodd" id="path282" d="m 529.44,600.48 0,-458.16 -516.96,0 0,458.16 516.96,0 z"/>
    </clipPath>
    <clipPath id="clipPath290" clipPathUnits="userSpaceOnUse">
      <path style="clip-rule:evenodd" id="path292" d="m 12.48,142.32 516.96,0 0,458.16 -516.96,0 0,-458.16 z"/>
    </clipPath>
    <clipPath id="clipPath302" clipPathUnits="userSpaceOnUse">
      <path style="clip-rule:evenodd" id="path304" d="m 12.48,142.32 516.96,0 0,458.16 -516.96,0 0,-458.16 z"/>
    </clipPath>
    <clipPath id="clipPath314" clipPathUnits="userSpaceOnUse">
      <path style="clip-rule:evenodd" id="path316" d="m 12.48,142.32 516.96,0 0,458.16 -516.96,0 0,-458.16 z"/>
    </clipPath>
    <clipPath id="clipPath326" clipPathUnits="userSpaceOnUse">
      <path style="clip-rule:evenodd" id="path328" d="m 30,337.32 73.44,0 0,43.8 -73.44,0 0,-43.8 z"/>
    </clipPath>
    <clipPath id="clipPath340" clipPathUnits="userSpaceOnUse">
      <path style="clip-rule:evenodd" id="path342" d="m 12.48,142.32 516.96,0 0,458.16 -516.96,0 0,-458.16 z"/>
    </clipPath>
    <clipPath id="clipPath352" clipPathUnits="userSpaceOnUse">
      <path style="clip-rule:evenodd" id="path354" d="m 12.48,142.32 516.96,0 0,458.16 -516.96,0 0,-458.16 z"/>
    </clipPath>
    <clipPath id="clipPath366" clipPathUnits="userSpaceOnUse">
      <path style="clip-rule:evenodd" id="path368" d="m 12.48,142.32 516.96,0 0,458.16 -516.96,0 0,-458.16 z"/>
    </clipPath>
    <clipPath id="clipPath378" clipPathUnits="userSpaceOnUse">
      <path style="clip-rule:evenodd" id="path380" d="m 12.48,142.32 516.96,0 0,458.16 -516.96,0 0,-458.16 z"/>
    </clipPath>
    <clipPath id="clipPath390" clipPathUnits="userSpaceOnUse">
      <path style="clip-rule:evenodd" id="path392" d="m 12.48,142.32 516.96,0 0,458.16 -516.96,0 0,-458.16 z"/>
    </clipPath>
    <clipPath id="clipPath402" clipPathUnits="userSpaceOnUse">
      <path style="clip-rule:evenodd" id="path404" d="m 12.48,142.32 516.96,0 0,458.16 -516.96,0 0,-458.16 z"/>
    </clipPath>
    <clipPath id="clipPath414" clipPathUnits="userSpaceOnUse">
      <path style="clip-rule:evenodd" id="path416" d="m 12.48,142.32 516.96,0 0,458.16 -516.96,0 0,-458.16 z"/>
    </clipPath>
    <clipPath id="clipPath432" clipPathUnits="userSpaceOnUse">
      <path style="clip-rule:evenodd" id="path434" d="m 12.48,142.32 516.96,0 0,458.16 -516.96,0 0,-458.16 z"/>
    </clipPath>
    <clipPath id="clipPath444" clipPathUnits="userSpaceOnUse">
      <path style="clip-rule:evenodd" id="path446" d="m 12.48,142.32 516.96,0 0,458.16 -516.96,0 0,-458.16 z"/>
    </clipPath>
  </defs>
  <g transform="matrix(1.25,0,0,-1.25,0,765)" id="g10">
    <g id="g12">
      <g clip-path="url(#clipPath16)" id="g14"><path id="path20" style="fill:#ffffff;fill-opacity:1;fill-rule:evenodd;stroke:none" d="m 12.96,203.57 516.19,0 0,396.43 -516.19,0 0,-396.43 z"/><path id="path22" style="fill:#ffffff;fill-opacity:1;fill-rule:evenodd;stroke:none" d="m 12.96,188.33 154.94,0 0,15.36 -154.94,0 0,-15.36 z"/><path id="path24" style="fill:#3c7d22;fill-opacity:1;fill-rule:evenodd;stroke:none" d="m 167.78,188.33 51.72,0 0,15.36 -51.72,0 0,-15.36 z"/><path id="path26" style="fill:#ffffff;fill-opacity:1;fill-rule:evenodd;stroke:none" d="m 219.38,188.33 309.77,0 0,15.36 -309.77,0 0,-15.36 z"/><path id="path28" style="fill:#ffffff;fill-opacity:1;fill-rule:evenodd;stroke:none" d="m 12.96,173.09 154.94,0 0,15.36 -154.94,0 0,-15.36 z"/><path id="path30" style="fill:#d86dcd;fill-opacity:1;fill-rule:evenodd;stroke:none" d="m 167.78,173.09 51.72,0 0,15.36 -51.72,0 0,-15.36 z"/><path id="path32" style="fill:#ffffff;fill-opacity:1;fill-rule:evenodd;stroke:none" d="m 219.38,173.09 309.77,0 0,15.36 -309.77,0 0,-15.36 z"/><path id="path34" style="fill:#ffffff;fill-opacity:1;fill-rule:evenodd;stroke:none" d="m 12.96,157.85 154.94,0 0,15.36 -154.94,0 0,-15.36 z"/><path id="path36" style="fill:#eadfbc;fill-opacity:1;fill-rule:evenodd;stroke:none" d="m 167.78,157.85 51.72,0 0,15.36 -51.72,0 0,-15.36 z"/><path id="path38" style="fill:#ffffff;fill-opacity:1;fill-rule:evenodd;stroke:none" d="m 219.38,157.85 309.77,0 0,15.36 -309.77,0 0,-15.36 z"/><path id="path40" style="fill:#ffffff;fill-opacity:1;fill-rule:evenodd;stroke:none" d="m 12.96,142.58 516.19,0 0,15.384 -516.19,0 0,-15.384 z"/><text id="text42" style="font-variant:normal;font-weight:bold;font-size:11.03999996px;font-family:'Roboto Condensed';-inkscape-font-specification:RobotoCondensed-Bold;writing-mode:lr-tb;fill:#000000;fill-opacity:1;fill-rule:nonzero;stroke:none" transform="matrix(1,0,0,-1,169.7,207.41)"><tspan id="tspan44" y="0" x="0 5.2881598 10.57632 16.085279 21.37344 26.76096">Legend</tspan></text>
<text id="text46" style="font-variant:normal;font-weight:normal;font-size:11.03999996px;font-family:'Roboto Condensed';-inkscape-font-specification:RobotoCondensed-Regular;writing-mode:lr-tb;fill:#000000;fill-opacity:1;fill-rule:nonzero;stroke:none" transform="matrix(1,0,0,-1,221.3,192.17)"><tspan id="tspan48" y="0" x="0 6.1161599 11.40432 14.66112 19.916161 22.444321 27.986401 31.43088 33.959042 39.10368 44.380798 46.908958 52.296478">Path of chips</tspan></text>
<text id="text50" style="font-variant:normal;font-weight:normal;font-size:11.03999996px;font-family:'Roboto Condensed';-inkscape-font-specification:RobotoCondensed-Regular;writing-mode:lr-tb;fill:#000000;fill-opacity:1;fill-rule:nonzero;stroke:none" transform="matrix(1,0,0,-1,221.3,176.93)"><tspan id="tspan52" y="0" x="0 6.2596798 11.54784 16.582081 21.83712 24.36528 27.85392 30.38208 35.880001 43.056 48.09024 50.618401 53.97456 59.141281 61.669441 66.957603 70.214401 75.381119 80.856956 83.385117 86.641922 92.183998 94.712158 99.812637 105.14496 107.67312 113.03856">Cash flows related to chips</tspan></text>
<text id="text54" style="font-variant:normal;font-weight:normal;font-size:11.03999996px;font-family:'Roboto Condensed';-inkscape-font-specification:RobotoCondensed-Regular;writing-mode:lr-tb;fill:#000000;fill-opacity:1;fill-rule:nonzero;stroke:none" transform="matrix(1,0,0,-1,221.3,161.69)"><tspan id="tspan56" y="0" x="0 5.2992001 7.8273602 13.17072 18.458879 23.868481 29.013121 31.541281 36.829441 39.357601 41.885761 44.369759 49.757278 54.43824 59.604961 64.639198 67.896004 73.393921 76.750076 81.784317 84.312477 90.307198 92.835358 95.363518 100.74 105.42096 110.58768 115.62192 118.87872 127.13664 132.30336 137.69089 140.94768">Financial investors &amp; investments</tspan></text>
</g>
    </g>
    <path id="path58" style="fill:#ffffff;fill-opacity:1;fill-rule:evenodd;stroke:none" d="m 108.36,517.34 130.8,0 0,77.76 -130.8,0 0,-77.76 z"/>
    <path id="path60" style="fill:none;stroke:#eadfbc;stroke-width:1;stroke-linecap:butt;stroke-linejoin:round;stroke-miterlimit:10;stroke-dasharray:none;stroke-opacity:1" d="m 108.36,517.34 130.8,0 0,77.76 -130.8,0 0,-77.76 z"/>
    <g id="g62">
      <g clip-path="url(#clipPath66)" id="g64"><text id="text70" style="font-variant:normal;font-weight:bold;font-size:12px;font-family:'Roboto Condensed';-inkscape-font-specification:RobotoCondensed-Bold;writing-mode:lr-tb;fill:#000000;fill-opacity:1;fill-rule:nonzero;stroke:none" transform="matrix(1,0,0,-1,141.98,552)"><tspan id="tspan72" y="0" x="0 6.8400002 12.744 15.72">Chip</tspan></text>
</g>
    </g>
    <g id="g74">
      <g clip-path="url(#clipPath78)" id="g76"><text id="text82" style="font-variant:normal;font-weight:bold;font-size:12px;font-family:'Roboto Condensed';-inkscape-font-specification:RobotoCondensed-Bold;writing-mode:lr-tb;fill:#000000;fill-opacity:1;fill-rule:nonzero;stroke:none" transform="matrix(1,0,0,-1,166.46,552)"><tspan id="tspan84" y="0" x="0 5.4000001 11.304 17.268 23.256001 26.280001 29.256001 35.004002">supplier</tspan></text>
</g>
    </g>
    <path id="path86" style="fill:#ffffff;fill-opacity:1;fill-rule:evenodd;stroke:none" d="m 394.04,517.34 131.03,0 0,77.76 -131.03,0 0,-77.76 z"/>
    <path id="path88" style="fill:none;stroke:#000000;stroke-width:0.75;stroke-linecap:butt;stroke-linejoin:round;stroke-miterlimit:10;stroke-dasharray:none;stroke-opacity:1" d="m 394.04,517.34 131.03,0 0,77.76 -131.03,0 0,-77.76 z"/>
    <g id="g90">
      <g clip-path="url(#clipPath94)" id="g92"><text id="text98" style="font-variant:normal;font-weight:bold;font-size:12px;font-family:'Roboto Condensed';-inkscape-font-specification:RobotoCondensed-Bold;writing-mode:lr-tb;fill:#000000;fill-opacity:1;fill-rule:nonzero;stroke:none" transform="matrix(1,0,0,-1,446.4,552)"><tspan id="tspan100" y="0" x="0 7.1999998 13.8 20.639999">ORCL</tspan></text>
</g>
    </g>
    <path id="path102" style="fill:#ffffff;fill-opacity:1;fill-rule:evenodd;stroke:none" d="m 190.04,354.07 143.88,0 0,77.76 -143.88,0 0,-77.76 z"/>
    <path id="path104" style="fill:none;stroke:#000000;stroke-width:0.75;stroke-linecap:butt;stroke-linejoin:round;stroke-miterlimit:10;stroke-dasharray:none;stroke-opacity:1" d="m 190.04,354.07 143.88,0 0,77.76 -143.88,0 0,-77.76 z"/>
    <g id="g106">
      <g clip-path="url(#clipPath110)" id="g108"><text id="text114" style="font-variant:normal;font-weight:bold;font-size:12px;font-family:'Roboto Condensed';-inkscape-font-specification:RobotoCondensed-Bold;writing-mode:lr-tb;fill:#000000;fill-opacity:1;fill-rule:nonzero;stroke:none" transform="matrix(1,0,0,-1,207.82,406.7)"><tspan id="tspan116" y="0" x="0 7.3200002 12.708 18.695999 24.672001 28.403999 34.307999 40.056 43.740002 46.764 52.284 57.936001">Hypothetical</tspan></text>
</g>
    </g>
    <g id="g118">
      <g clip-path="url(#clipPath122)" id="g120"><text id="text126" style="font-variant:normal;font-weight:bold;font-size:12px;font-family:'Roboto Condensed';-inkscape-font-specification:RobotoCondensed-Bold;writing-mode:lr-tb;fill:#000000;fill-opacity:1;fill-rule:nonzero;stroke:none" transform="matrix(1,0,0,-1,271.44,406.7)"><tspan id="tspan128" y="0" x="0 6.8400002 12.744 15.72 21.708 24.468 30.948 37.776001">Chip SPV</tspan></text>
</g>
    </g>
    <g id="g130">
      <g clip-path="url(#clipPath134)" id="g132"><text id="text138" style="font-style:italic;font-variant:normal;font-weight:normal;font-size:9.96000004px;font-family:'Roboto Condensed';-inkscape-font-specification:RobotoCondensed-Italic;writing-mode:lr-tb;fill:#000000;fill-opacity:1;fill-rule:nonzero;stroke:none" transform="matrix(1,0,0,-1,201.7,394.22)"><tspan id="tspan140" y="0" x="0 4.6911602 9.3624001 14.0436 18.84432 23.41596">Funded</tspan></text>
</g>
    </g>
    <g id="g142">
      <g clip-path="url(#clipPath146)" id="g144"><text id="text150" style="font-style:italic;font-variant:normal;font-weight:normal;font-size:9.96000004px;font-family:'Roboto Condensed';-inkscape-font-specification:RobotoCondensed-Italic;writing-mode:lr-tb;fill:#000000;fill-opacity:1;fill-rule:nonzero;stroke:none" transform="matrix(1,0,0,-1,232.42,394.22)"><tspan id="tspan152" y="0" x="0 4.8106799 8.8843203 11.27472 16.075439 20.647079 25.45776 28.31628 30.70668 36.005402 38.266319 42.837959 47.718361 52.4394 54.700321 57.608639 61.682281 63.584641 65.975037 70.427162 74.998802 77.857323 80.247719 84.928917 89.739601">by debt &amp; equity, set up </tspan></text>
</g>
    </g>
    <g id="g154">
      <g clip-path="url(#clipPath158)" id="g156"><text id="text162" style="font-style:italic;font-variant:normal;font-weight:normal;font-size:9.96000004px;font-family:'Roboto Condensed';-inkscape-font-specification:RobotoCondensed-Italic;writing-mode:lr-tb;fill:#000000;fill-opacity:1;fill-rule:nonzero;stroke:none" transform="matrix(1,0,0,-1,198.22,382.22)"><tspan id="tspan164" y="0" x="0 2.90832 7.80864 10.06956 14.88024 19.56144 23.63508 26.03544 30.58716 35.26836 37.529282 42.339958 46.79208 49.053001 54.351719 56.742119 59.730122 64.301758 68.982964 71.891281 74.251801 77.160118 81.81144 86.38308 93.703682 96.084122 98.992439 103.89276 106.15368 112.03008 117.20928 122.73708 127.37844">to buy chips &amp; rent them to ORCL </tspan></text>
</g>
    </g>
    <g id="g166">
      <g clip-path="url(#clipPath170)" id="g168"><text id="text174" style="font-style:italic;font-variant:normal;font-weight:normal;font-size:9.96000004px;font-family:'Roboto Condensed';-inkscape-font-specification:RobotoCondensed-Italic;writing-mode:lr-tb;fill:#000000;fill-opacity:1;fill-rule:nonzero;stroke:none" transform="matrix(1,0,0,-1,231.82,370.22)"><tspan id="tspan176" y="0" x="0 3.1075201 8.0277596 11.01576 13.2966 17.74872 22.559401 27.10116 31.65288 33.913799 37.041241 39.302158 43.873798 46.13472 50.586842 52.847759 55.756081">for specific site</tspan></text>
</g>
    </g>
    <path id="path178" style="fill:#eadfbc;fill-opacity:1;fill-rule:evenodd;stroke:none" d="m 18.96,307.08 c 13.649,0.28 30.142,1.76 42.366,0 12.224,-1.76 24.642,-1.54 39.744,0 15.1,1.54 34.24,2.03 48.92,0 -0.19,-12.92 -1.24,-25.9 0,-38.04 1.23,-12.15 -0.06,-23.33 0,-39.6 -12.65,-0.82 -26.19,-0.72 -41.06,0 -14.865,0.72 -23.095,-0.11 -41.053,0 -17.958,0.11 -26.93,-0.19 -48.917,0 -0.62,16.9 0.754,25.48 0,36.49 -0.754,11.01 1.827,29.35 0,41.15 z"/>
    <g id="g180">
      <path id="path182" style="fill:none;stroke:#000000;stroke-width:0.75;stroke-linecap:butt;stroke-linejoin:round;stroke-miterlimit:10;stroke-dasharray:3, 2.25;stroke-dashoffset:0;stroke-opacity:1" d="m 18.96,307.08 c 9.665,0.09 24.009,0.78 42.366,0 18.357,-0.78 32.402,1.47 43.674,0 11.28,-1.47 30.68,-0.96 44.99,0 -1.39,-13.88 0.89,-20.8 0,-38.82 -0.9,-18.02 -0.15,-26.97 0,-38.82 -19.54,-0.87 -32.52,1.13 -43.68,0 -11.16,-1.14 -31.407,1.22 -41.053,0 -9.647,-1.22 -27.389,-0.13 -46.297,0 0.091,12.5 -2.008,28.48 0,38.04 2.008,9.56 -0.028,20.32 0,39.6 z"/>
    </g>
    <g id="g184">
      <g clip-path="url(#clipPath188)" id="g186"><text id="text192" style="font-variant:normal;font-weight:bold;font-size:12px;font-family:'Roboto Condensed';-inkscape-font-specification:RobotoCondensed-Bold;writing-mode:lr-tb;fill:#000000;fill-opacity:1;fill-rule:nonzero;stroke:none" transform="matrix(1,0,0,-1,45.84,264)"><tspan id="tspan194" y="0" x="0 5.8920002 11.856 17.76 20.784 24.468 29.868 32.627998 35.652 41.507999 46.896 52.644001 58.091999 61.776001 67.776001 71.760002">Equity investors</tspan></text>
</g>
    </g>
    <path id="path196" style="fill:#3b7d23;fill-opacity:1;fill-rule:nonzero;stroke:none" d="m 190.09,516.95 78.2,-81.18 -0.72,-0.69 -78.2,81.17 0.72,0.7 z m 79.31,-78.72 2,-6.4 -6.32,2.24 4.32,4.16 z"/>
    <g id="g198">
      <g clip-path="url(#clipPath202)" id="g200"><text id="text206" style="font-variant:normal;font-weight:normal;font-size:9.96000004px;font-family:'Roboto Condensed';-inkscape-font-specification:RobotoCondensed-Regular;writing-mode:lr-tb;fill:#3b7d23;fill-opacity:1;fill-rule:nonzero;stroke:none" transform="matrix(1,0,0,-1,233.98,490.3)"><tspan id="tspan208" y="0" x="0 5.1592798 9.8205605 12.1014 14.38224 18.95388 21.23472 25.7964 30.60708 32.88792 37.798199 42.339958 44.750278 47.738281 52.768082">Sells chips to </tspan></text>
</g>
    </g>
    <g id="g210">
      <g clip-path="url(#clipPath214)" id="g212"><text id="text218" style="font-variant:normal;font-weight:normal;font-size:9.96000004px;font-family:'Roboto Condensed';-inkscape-font-specification:RobotoCondensed-Regular;writing-mode:lr-tb;fill:#3b7d23;fill-opacity:1;fill-rule:nonzero;stroke:none" transform="matrix(1,0,0,-1,233.98,478.3)"><tspan id="tspan220" y="0" x="0 5.1599998 10.67856">SPV</tspan></text>
</g>
    </g>
    <g id="g222">
      <g clip-path="url(#clipPath226)" id="g224"><text id="text230" style="font-variant:normal;font-weight:normal;font-size:9.96000004px;font-family:'Roboto Condensed';-inkscape-font-specification:RobotoCondensed-Regular;writing-mode:lr-tb;fill:#d86ecc;fill-opacity:1;fill-rule:nonzero;stroke:none" transform="matrix(1,0,0,-1,163.34,470.11)"><tspan id="tspan232" y="0" x="0 5.2887602 9.9500399 14.27268 18.93396 23.754601 28.565281">Revenue</tspan></text>
</g>
    </g>
    <path id="path234" style="fill:#d86ecc;fill-opacity:1;fill-rule:nonzero;stroke:none" d="m 254.16,431.48 -78.09,81.17 0.73,0.69 78.08,-81.17 -0.72,-0.69 z m -79.19,78.72 -2,6.4 6.32,-2.24 -4.32,-4.16 z"/>
    <path id="path236" style="fill:#3b7d23;fill-opacity:1;fill-rule:nonzero;stroke:none" d="m 334.26,392.59 122.13,120.88 -0.7,0.71 -122.13,-120.88 0.7,-0.71 z m 123.18,118.4 2.15,6.35 -6.37,-2.09 4.22,-4.26 z"/>
    <g id="g238">
      <g clip-path="url(#clipPath242)" id="g240"><text id="text246" style="font-variant:normal;font-weight:normal;font-size:9.98400021px;font-family:'Roboto Condensed';-inkscape-font-specification:RobotoCondensed-Regular;writing-mode:lr-tb;fill:#3b7d23;fill-opacity:1;fill-rule:nonzero;stroke:none" transform="matrix(1,0,0,-1,350.69,472.42)"><tspan id="tspan248" y="0" x="0 5.6609278 10.443264 12.7296 17.651712 22.204416 24.590591 26.876928 31.54944 36.331776 40.88448 45.576962 50.499073">Chips leased </tspan></text>
</g>
    </g>
    <g id="g250">
      <g clip-path="url(#clipPath254)" id="g252"><text id="text258" style="font-variant:normal;font-weight:normal;font-size:9.96000004px;font-family:'Roboto Condensed';-inkscape-font-specification:RobotoCondensed-Regular;writing-mode:lr-tb;fill:#3b7d23;fill-opacity:1;fill-rule:nonzero;stroke:none" transform="matrix(1,0,0,-1,350.69,460.39)"><tspan id="tspan260" y="0" x="0 2.9879999 8.0178003 10.29864 16.284599 21.57336 27.22068">to ORCL</tspan></text>
</g>
    </g>
    <path id="path262" style="fill:#d86ecc;fill-opacity:1;fill-rule:nonzero;stroke:none" d="m 469.79,516.63 -133.35,-132.1 0.71,-0.71 133.34,132.1 -0.7,0.71 z M 335.4,387.01 l -2.16,-6.36 6.38,2.1 -4.22,4.26 z"/>
    <g id="g264">
      <g clip-path="url(#clipPath268)" id="g266"><text id="text272" style="font-variant:normal;font-weight:normal;font-size:9.96000004px;font-family:'Roboto Condensed';-inkscape-font-specification:RobotoCondensed-Regular;writing-mode:lr-tb;fill:#d86ecc;fill-opacity:1;fill-rule:nonzero;stroke:none" transform="matrix(1,0,0,-1,403.78,434.88)"><tspan id="tspan274" y="0" x="0 4.6812 9.3424797 14.15316 18.69492 23.38608 25.77648 30.68676 35.48748 39.680641 47.120762 51.78204 56.60268 59.590679 64.132439 66.413277 69.560638 74.580482 77.608322 79.968842 85.835281 90.755524">Lease payments for ~5Y</tspan></text>
</g>
    </g>
    <g id="g276">
      <g clip-path="url(#clipPath280)" id="g278">
        <path id="path284" style="fill:#d0b86a;fill-opacity:1;fill-rule:nonzero;stroke:none" d="m 83.935,307.09 0.038,2.02 0.113,2.03 0.197,2.03 0.265,2.02 0.34,2.02 0.409,2.01 0.476,2.02 0.552,1.99 0.62,2 0.687,1.98 0.748,1.97 0.816,1.96 0.876,1.95 0.944,1.94 1.003,1.92 1.057,1.91 1.117,1.89 1.177,1.87 1.229,1.85 1.29,1.84 1.335,1.81 1.396,1.8 1.44,1.77 1.49,1.75 1.54,1.73 1.59,1.69 1.63,1.68 1.68,1.66 3.48,3.2 3.65,3.1 3.8,2.97 3.96,2.83 4.08,2.69 4.21,2.54 4.33,2.38 4.43,2.22 2.25,1.04 2.29,1 2.29,0.95 2.32,0.91 2.34,0.86 2.36,0.82 2.37,0.76 2.39,0.71 2.41,0.67 2.42,0.6 2.43,0.56 2.44,0.5 2.45,0.45 2.47,0.39 2.46,0.33 2.48,0.27 2.48,0.22 2.43,0.12 0.05,-1 -2.42,-0.12 0.02,0 -2.47,-0.22 0.01,0.01 -2.46,-0.27 0.01,0 -2.45,-0.33 0.01,0 -2.45,-0.39 0.01,0 -2.44,-0.44 0.01,0 -2.43,-0.5 0.01,0 -2.42,-0.55 0.01,0 -2.41,-0.6 0.01,0 -2.4,-0.66 0.01,0 -2.37,-0.71 0.01,0 -2.37,-0.75 0.01,0 -2.34,-0.81 0,0 -2.33,-0.85 0.01,0 -2.31,-0.91 0.01,0.01 -2.29,-0.95 0.01,0.01 -2.27,-1 0.01,0 -2.24,-1.04 0.01,0.01 -4.42,-2.21 0.02,0.01 -4.31,-2.38 0.02,0.01 -4.2,-2.52 0.02,0.01 -4.07,-2.68 0.02,0.01 -3.94,-2.82 0.02,0.01 -3.79,-2.95 0.02,0.01 -3.63,-3.08 0.01,0.01 -3.47,-3.19 0.01,0.01 -1.67,-1.64 0.01,0 -1.62,-1.67 0,0.01 -1.58,-1.69 0.01,0.01 -1.53,-1.72 0.01,0.01 -1.49,-1.74 0.01,0.01 -1.43,-1.77 0,0.01 -1.38,-1.79 0,0.01 -1.323,-1.8 0.007,0.01 -1.282,-1.83 0.007,0.01 -1.222,-1.84 0.006,0.01 -1.17,-1.86 0.007,0.01 -1.11,-1.87 0.007,0.01 -1.05,-1.9 0.006,0.01 -0.997,-1.91 0.006,0.01 -0.938,-1.92 0.007,0.01 -0.87,-1.93 0.006,0.01 -0.81,-1.95 0.005,0.02 -0.742,-1.96 0.005,0.01 -0.683,-1.96 0.005,0.01 -0.615,-1.98 0.005,0.02 -0.548,-1.98 0.005,0.02 -0.472,-2 0.003,0.02 -0.405,-2 0.003,0.02 -0.337,-2 0.002,0.02 -0.262,-2.01 0.002,0.01 -0.195,-2.01 0.001,0.02 -0.112,-2.01 0,0.02 -0.037,-2.01 -1,0.02 z m 100.005,88.67 6.09,-2.81 -5.9,-3.19 -0.19,6 z"/>
      </g>
    </g>
    <g id="g286">
      <g clip-path="url(#clipPath290)" id="g288"><text id="text294" style="font-variant:normal;font-weight:normal;font-size:9.96000004px;font-family:'Roboto Condensed';-inkscape-font-specification:RobotoCondensed-Regular;writing-mode:lr-tb;fill:#d0b86a;fill-opacity:1;fill-rule:nonzero;stroke:none" transform="matrix(1,0,0,-1,37.272,367.92)"><tspan id="tspan296" y="0" x="0 4.9202399 9.9500399 14.76072 17.041559 20.0196 24.212761 26.493601 29.640961 34.4118 39.232441 44.132759 46.413601 51.234241 56.14452">Equity funding </tspan></text>
</g>
    </g>
    <g id="g298">
      <g clip-path="url(#clipPath302)" id="g300"><text id="text306" style="font-variant:normal;font-weight:normal;font-size:9.98400021px;font-family:'Roboto Condensed';-inkscape-font-specification:RobotoCondensed-Regular;writing-mode:lr-tb;fill:#d0b86a;fill-opacity:1;fill-rule:nonzero;stroke:none" transform="matrix(1,0,0,-1,37.272,355.92)"><tspan id="tspan308" y="0" x="0 3.1349759 6.1201921 10.792704 15.345408 17.631744 22.583809 27.356159 32.138496">(residual</tspan></text>
</g>
    </g>
    <g id="g310">
      <g clip-path="url(#clipPath314)" id="g312"><text id="text318" style="font-variant:normal;font-weight:normal;font-size:9.98400021px;font-family:'Roboto Condensed';-inkscape-font-specification:RobotoCondensed-Regular;writing-mode:lr-tb;fill:#d0b86a;fill-opacity:1;fill-rule:nonzero;stroke:none" transform="matrix(1,0,0,-1,74.112,355.92)"><tspan id="tspan320" y="0" x="0 4.3130879 9.0954237 11.38176 16.204033 20.876545">value </tspan></text>
</g>
    </g>
    <g id="g322">
      <g clip-path="url(#clipPath326)" id="g324"><text id="text330" style="font-variant:normal;font-weight:normal;font-size:9.96000004px;font-family:'Roboto Condensed';-inkscape-font-specification:RobotoCondensed-Regular;writing-mode:lr-tb;fill:#d0b86a;fill-opacity:1;fill-rule:nonzero;stroke:none" transform="matrix(1,0,0,-1,37.272,343.9)"><tspan id="tspan332" y="0" x="0 2.2808399 7.10148 9.3823204 13.92408 18.73476 21.0156 25.92588 30.46764">in chips)</tspan></text>
</g>
    </g>
    <path id="path334" style="fill:#d0b86a;fill-opacity:1;fill-rule:nonzero;stroke:none" d="m 394.03,267.7 -6.19,0.13 -6.2,0.37 -6.18,0.6 -6.14,0.83 -6.08,1.06 -6.03,1.27 -5.96,1.47 -5.86,1.67 -5.78,1.86 -5.66,2.04 -5.54,2.22 -5.41,2.37 -5.26,2.54 -5.11,2.68 -4.94,2.84 -4.74,2.96 -4.57,3.09 -4.36,3.22 -4.14,3.32 -3.91,3.42 -3.66,3.52 -3.42,3.61 -3.14,3.69 -2.87,3.76 -2.58,3.83 -2.28,3.89 -1.96,3.94 -1.63,3.98 -1.29,4.01 -0.95,4.04 -0.37,3.09 1,0.11 0.36,-3.05 -0.01,0.05 0.93,-3.99 -0.01,0.04 1.29,-3.98 -0.02,0.04 1.62,-3.95 -0.02,0.04 1.95,-3.91 -0.02,0.03 2.26,-3.86 -0.02,0.03 2.57,-3.81 -0.02,0.02 2.85,-3.73 -0.01,0.02 3.12,-3.68 -0.01,0.02 3.39,-3.58 -0.01,0.02 3.65,-3.51 -0.02,0.01 3.89,-3.4 -0.01,0.01 4.12,-3.31 -0.01,0.01 4.33,-3.2 -0.01,0.01 4.55,-3.08 -0.02,0.01 4.73,-2.95 -0.01,0.01 4.92,-2.82 -0.02,0.01 5.1,-2.68 -0.02,0.01 5.25,-2.53 -0.02,0.01 5.4,-2.37 -0.02,0 5.53,-2.21 -0.02,0.01 5.64,-2.04 -0.01,0.01 5.76,-1.85 -0.02,0 5.85,-1.66 -0.02,0 5.94,-1.47 -0.01,0 6,-1.26 -0.01,0 6.06,-1.05 -0.01,0 6.11,-0.83 -0.01,0 6.15,-0.6 -0.02,0 6.18,-0.36 -0.01,0 6.18,-0.13 -0.02,-1 z m -134.62,80.14 2.52,6.22 3.46,-5.75 -5.98,-0.47 z"/>
    <g id="g336">
      <g clip-path="url(#clipPath340)" id="g338"><text id="text344" style="font-variant:normal;font-weight:normal;font-size:9.96000004px;font-family:'Roboto Condensed';-inkscape-font-specification:RobotoCondensed-Regular;writing-mode:lr-tb;fill:#d0b86a;fill-opacity:1;fill-rule:nonzero;stroke:none" transform="matrix(1,0,0,-1,237.65,287.86)"><tspan id="tspan346" y="0" x="0 5.6373601 10.29864 15.20892 18.226801 20.507641 23.655001 28.42584 33.246479 38.146801 40.427639 45.24828 50.158562">Debt funding </tspan></text>
</g>
    </g>
    <g id="g348">
      <g clip-path="url(#clipPath352)" id="g350"><text id="text356" style="font-variant:normal;font-weight:normal;font-size:9.98400021px;font-family:'Roboto Condensed';-inkscape-font-specification:RobotoCondensed-Regular;writing-mode:lr-tb;fill:#d0b86a;fill-opacity:1;fill-rule:nonzero;stroke:none" transform="matrix(1,0,0,-1,237.65,275.86)"><tspan id="tspan358" y="0" x="0 3.1349759 7.9173121 10.912512 13.198848 17.751553 22.683647 27.615744 33.935616 36.221951 40.914433 46.07616 51.737087">(at &gt;50% LTC)</tspan></text>
</g>
    </g>
    <path id="path360" style="fill:#d86ecc;fill-opacity:1;fill-rule:nonzero;stroke:none" d="m 262.04,354.55 192.81,-45.83 -0.24,-0.97 -192.8,45.83 0.23,0.97 z m 192.41,-43.16 5.14,-4.31 -6.53,-1.53 1.39,5.84 z"/>
    <g id="g362">
      <g clip-path="url(#clipPath366)" id="g364"><text id="text370" style="font-variant:normal;font-weight:normal;font-size:9.96000004px;font-family:'Roboto Condensed';-inkscape-font-specification:RobotoCondensed-Regular;writing-mode:lr-tb;fill:#d86ecc;fill-opacity:1;fill-rule:nonzero;stroke:none" transform="matrix(1,0,0,-1,349.97,349.68)"><tspan id="tspan372" y="0" x="0 5.6373601 10.29864 15.20892 18.226801 20.507641 25.0494 29.740561 32.768398 37.031281 39.312119 43.913639 48.574921 53.515079 55.895519 60.805801 65.008919 67.289757 71.85144 76.881241 84.321358 91.761482 94.04232 97.030319 100.01832 104.6796 109.61976 112.12968 114.41052 119.0718 123.88248 128.42424 133.1154">Debt serviced by committed lease </tspan></text>
</g>
    </g>
    <g id="g374">
      <g clip-path="url(#clipPath378)" id="g376"><text id="text382" style="font-variant:normal;font-weight:normal;font-size:9.96000004px;font-family:'Roboto Condensed';-inkscape-font-specification:RobotoCondensed-Regular;writing-mode:lr-tb;fill:#d86ecc;fill-opacity:1;fill-rule:nonzero;stroke:none" transform="matrix(1,0,0,-1,349.97,337.68)"><tspan id="tspan384" y="0" x="0 3.0278399 7.6891198 12.24084 16.902121 19.182961 23.51556 28.2864 33.226559 35.507401 40.168678 44.740318 47.130718 50.27808 53.246159 58.275959 65.71608 68.106483 70.616402">receivables from IG</tspan></text>
</g>
    </g>
    <g id="g386">
      <g clip-path="url(#clipPath390)" id="g388"><text id="text394" style="font-variant:normal;font-weight:normal;font-size:9.96000004px;font-family:'Roboto Condensed';-inkscape-font-specification:RobotoCondensed-Regular;writing-mode:lr-tb;fill:#d86ecc;fill-opacity:1;fill-rule:nonzero;stroke:none" transform="matrix(1,0,0,-1,426.55,337.68)"><tspan id="tspan396" y="0" x="0">-</tspan></text>
</g>
    </g>
    <g id="g398">
      <g clip-path="url(#clipPath402)" id="g400"><text id="text406" style="font-variant:normal;font-weight:normal;font-size:9.96000004px;font-family:'Roboto Condensed';-inkscape-font-specification:RobotoCondensed-Regular;writing-mode:lr-tb;fill:#d86ecc;fill-opacity:1;fill-rule:nonzero;stroke:none" transform="matrix(1,0,0,-1,429.07,337.68)"><tspan id="tspan408" y="0" x="0 3.0278399 7.7986798 10.78668 15.44796">rated</tspan></text>
</g>
    </g>
    <g id="g410">
      <g clip-path="url(#clipPath414)" id="g412"><text id="text418" style="font-variant:normal;font-weight:normal;font-size:9.96000004px;font-family:'Roboto Condensed';-inkscape-font-specification:RobotoCondensed-Regular;writing-mode:lr-tb;fill:#d86ecc;fill-opacity:1;fill-rule:nonzero;stroke:none" transform="matrix(1,0,0,-1,451.75,337.68)"><tspan id="tspan420" y="0" x="0 1.6832401 4.6712399 9.3325195 14.15316 18.924 23.74464 26.742599">'tenant'</tspan></text>
</g>
    </g>
    <path id="path422" style="fill:#eadfbc;fill-opacity:1;fill-rule:evenodd;stroke:none" d="m 394.04,307.08 c 13.64,0.28 30.14,1.76 42.36,0 12.23,-1.76 24.64,-1.54 39.75,0 15.1,1.54 34.24,2.03 48.91,0 -0.19,-12.92 -1.23,-25.9 0,-38.04 1.24,-12.15 -0.05,-23.33 0,-39.6 -12.65,-0.82 -26.18,-0.72 -41.05,0 -14.87,0.72 -23.1,-0.11 -41.06,0 -17.96,0.11 -26.93,-0.19 -48.91,0 -0.62,16.9 0.75,25.48 0,36.49 -0.76,11.01 1.82,29.35 0,41.15 z"/>
    <g id="g424">
      <path id="path426" style="fill:none;stroke:#000000;stroke-width:0.75;stroke-linecap:butt;stroke-linejoin:round;stroke-miterlimit:10;stroke-dasharray:3, 2.25;stroke-dashoffset:0;stroke-opacity:1" d="m 394.04,307.08 c 9.66,0.09 24,0.78 42.36,0 18.36,-0.78 32.4,1.47 43.68,0 11.27,-1.47 30.67,-0.96 44.98,0 -1.38,-13.88 0.9,-20.8 0,-38.82 -0.89,-18.02 -0.14,-26.97 0,-38.82 -19.54,-0.87 -32.51,1.13 -43.67,0 -11.16,-1.14 -31.41,1.22 -41.06,0 -9.64,-1.22 -27.39,-0.13 -46.29,0 0.09,12.5 -2.01,28.48 0,38.04 2,9.56 -0.03,20.32 0,39.6 z"/>
    </g>
    <g id="g428">
      <g clip-path="url(#clipPath432)" id="g430"><text id="text436" style="font-variant:normal;font-weight:bold;font-size:12px;font-family:'Roboto Condensed';-inkscape-font-specification:RobotoCondensed-Bold;writing-mode:lr-tb;fill:#000000;fill-opacity:1;fill-rule:nonzero;stroke:none" transform="matrix(1,0,0,-1,427.08,264)"><tspan id="tspan438" y="0" x="0 6.8280001 10.812 13.8 19.188 24.84 28.548">Private</tspan></text>
</g>
    </g>
    <g id="g440">
      <g clip-path="url(#clipPath444)" id="g442"><text id="text448" style="font-variant:normal;font-weight:bold;font-size:12px;font-family:'Roboto Condensed';-inkscape-font-specification:RobotoCondensed-Bold;writing-mode:lr-tb;fill:#000000;fill-opacity:1;fill-rule:nonzero;stroke:none" transform="matrix(1,0,0,-1,464.16,264)"><tspan id="tspan450" y="0" x="0 5.52 9.5039997 15.252 21.228001 24.252001">credit</tspan></text>
</g>
    </g>
  </g>
</svg>
