<?xml version="1.0" encoding="UTF-8" standalone="no"?>
<svg xmlns:dc="http://purl.org/dc/elements/1.1/" xmlns:cc="http://creativecommons.org/ns#" xmlns:rdf="http://www.w3.org/1999/02/22-rdf-syntax-ns#" xmlns:svg="http://www.w3.org/2000/svg" xmlns="http://www.w3.org/2000/svg" viewBox="15.15 14 405.6625 85.05" height="85.05" width="405.6625" xml:space="preserve" version="1.1" id="svg2">
  <metadata id="metadata8">
    <rdf:RDF>
      <cc:Work rdf:about="">
        <dc:format>image/svg+xml</dc:format>
        <dc:type rdf:resource="http://purl.org/dc/dcmitype/StillImage"/>
      </cc:Work>
    </rdf:RDF>
  </metadata>
  <defs id="defs6">
    <clipPath id="clipPath16" clipPathUnits="userSpaceOnUse">
      <path style="clip-rule:evenodd" id="path18" d="m 13.56,533.28 322.61,0 0,66.12 -322.61,0 0,-66.12 z"/>
    </clipPath>
    <clipPath id="clipPath26" clipPathUnits="userSpaceOnUse">
      <path style="clip-rule:evenodd" id="path28" d="m 13.56,533.28 322.61,0 0,66.12 -322.61,0 0,-66.12 z"/>
    </clipPath>
    <clipPath id="clipPath36" clipPathUnits="userSpaceOnUse">
      <path style="clip-rule:evenodd" id="path38" d="m 13.56,533.28 322.61,0 0,66.12 -322.61,0 0,-66.12 z"/>
    </clipPath>
    <clipPath id="clipPath46" clipPathUnits="userSpaceOnUse">
      <path style="clip-rule:evenodd" id="path48" d="m 13.56,587.28 322.61,0 0,12.12 -322.61,0 0,-12.12 z"/>
    </clipPath>
    <clipPath id="clipPath58" clipPathUnits="userSpaceOnUse">
      <path style="clip-rule:evenodd" id="path60" d="m 13.56,587.28 322.61,0 0,12.12 -322.61,0 0,-12.12 z"/>
    </clipPath>
    <clipPath id="clipPath70" clipPathUnits="userSpaceOnUse">
      <path style="clip-rule:evenodd" id="path72" d="m 13.56,574.2 322.61,0 0,12.12 -322.61,0 0,-12.12 z"/>
    </clipPath>
    <clipPath id="clipPath82" clipPathUnits="userSpaceOnUse">
      <path style="clip-rule:evenodd" id="path84" d="m 13.56,574.2 322.61,0 0,12.12 -322.61,0 0,-12.12 z"/>
    </clipPath>
    <clipPath id="clipPath94" clipPathUnits="userSpaceOnUse">
      <path style="clip-rule:evenodd" id="path96" d="m 13.56,561.12 322.61,0 0,12.12 -322.61,0 0,-12.12 z"/>
    </clipPath>
    <clipPath id="clipPath106" clipPathUnits="userSpaceOnUse">
      <path style="clip-rule:evenodd" id="path108" d="m 13.56,561.12 322.61,0 0,12.12 -322.61,0 0,-12.12 z"/>
    </clipPath>
    <clipPath id="clipPath118" clipPathUnits="userSpaceOnUse">
      <path style="clip-rule:evenodd" id="path120" d="m 13.56,548.04 322.61,0 0,12.12 -322.61,0 0,-12.12 z"/>
    </clipPath>
    <clipPath id="clipPath130" clipPathUnits="userSpaceOnUse">
      <path style="clip-rule:evenodd" id="path132" d="m 13.56,548.04 322.61,0 0,12.12 -322.61,0 0,-12.12 z"/>
    </clipPath>
    <clipPath id="clipPath142" clipPathUnits="userSpaceOnUse">
      <path style="clip-rule:evenodd" id="path144" d="m 13.56,534.24 322.61,0 0,12.84 -322.61,0 0,-12.84 z"/>
    </clipPath>
    <clipPath id="clipPath154" clipPathUnits="userSpaceOnUse">
      <path style="clip-rule:evenodd" id="path156" d="m 13.56,534.24 322.61,0 0,12.84 -322.61,0 0,-12.84 z"/>
    </clipPath>
    <clipPath id="clipPath166" clipPathUnits="userSpaceOnUse">
      <path style="clip-rule:evenodd" id="path168" d="m 11.64,531.24 326.57,0 0,70.08 -326.57,0 0,-70.08 z"/>
    </clipPath>
  </defs>
  <g transform="matrix(1.25,0,0,-1.25,0,765)" id="g10">
    <g id="g12">
      <g clip-path="url(#clipPath16)" id="g14">
        <path id="path20" style="fill:#156082;fill-opacity:1;fill-rule:evenodd;stroke:none" d="m 13.08,586.68 322.73,0 0,13.2 -322.73,0 0,-13.2 z"/>
      </g>
    </g>
    <g id="g22">
      <g clip-path="url(#clipPath26)" id="g24">
        <path id="path30" style="fill:#ffffff;fill-opacity:1;fill-rule:evenodd;stroke:none" d="m 13.08,547.44 322.73,0 0,39.36 -322.73,0 0,-39.36 z"/>
      </g>
    </g>
    <g id="g32">
      <g clip-path="url(#clipPath36)" id="g34">
        <path id="path40" style="fill:#c1f0c8;fill-opacity:1;fill-rule:evenodd;stroke:none" d="m 13.08,533.64 322.73,0 0,13.92 -322.73,0 0,-13.92 z"/>
      </g>
    </g>
    <g id="g42">
      <g clip-path="url(#clipPath46)" id="g44"><text id="text50" style="font-variant:normal;font-weight:bold;font-size:9.96000004px;font-family:Calibri;-inkscape-font-specification:Calibri-Bold;writing-mode:lr-tb;fill:#ffffff;fill-opacity:1;fill-rule:nonzero;stroke:none" transform="matrix(1,0,0,-1,14.88,590.04)"><tspan id="tspan52" y="0" x="0 4.8007202 9.4819202 14.51172 18.097321 22.778521 25.02948 30.079201 38.844002 41.094959 47.598839 52.997162 55.397518 58.853642 62.827679 65.108521 70.49688 73.644241 75.895203 79.351318 84.769562 88.225677 93.14592 95.596077 97.847038 103.11588 108.4146 114.91848 117.16944 122.5578 127.94616 131.9202 134.31059 139.69896">Every 1M Units of total CPU upside</tspan></text>
</g>
    </g>
    <g id="g54">
      <g clip-path="url(#clipPath58)" id="g56"><text id="text62" style="font-variant:normal;font-weight:normal;font-size:9.96000004px;font-family:Calibri;-inkscape-font-specification:Calibri;writing-mode:lr-tb;fill:#156082;fill-opacity:1;fill-rule:nonzero;stroke:none" transform="matrix(1,0,0,-1,301.1,590.04)"><tspan id="tspan64" y="0" x="0 5.0497198 10.09944 15.14916 17.63916 22.688881 27.7386">400,000</tspan></text>
</g>
    </g>
    <g id="g66">
      <g clip-path="url(#clipPath70)" id="g68"><text id="text74" style="font-variant:normal;font-weight:normal;font-size:9.96000004px;font-family:Calibri;-inkscape-font-specification:Calibri;writing-mode:lr-tb;fill:#000000;fill-opacity:1;fill-rule:nonzero;stroke:none" transform="matrix(1,0,0,-1,14.88,576.96)"><tspan id="tspan76" y="0" x="0 4.57164 9.4819202 12.95796 17.40012 22.32036 25.7964 28.06728 33.375961 38.52528 44.869801 47.120762 51.692402 56.981159 61.194241 65.726044 70.686119 74.02272 76.273682 82.04052 86.61216 91.761482 94.052277 97.07016 103.41468 107.98632 113.03604">Server CPU Socket ASP (US$)</tspan></text>
</g>
    </g>
    <g id="g78">
      <g clip-path="url(#clipPath82)" id="g80"><text id="text86" style="font-variant:normal;font-weight:normal;font-size:9.96000004px;font-family:Calibri;-inkscape-font-specification:Calibri;writing-mode:lr-tb;fill:#000000;fill-opacity:1;fill-rule:nonzero;stroke:none" transform="matrix(1,0,0,-1,316.22,576.96)"><tspan id="tspan88" y="0" x="0 5.0497198 10.09944 12.60936">21.9</tspan></text>
</g>
    </g>
    <g id="g90">
      <g clip-path="url(#clipPath94)" id="g92"><text id="text98" style="font-variant:normal;font-weight:normal;font-size:9.96000004px;font-family:Calibri;-inkscape-font-specification:Calibri;writing-mode:lr-tb;fill:#000000;fill-opacity:1;fill-rule:nonzero;stroke:none" transform="matrix(1,0,0,-1,14.88,563.88)"><tspan id="tspan100" y="0" x="0 5.4082799 10.31856 14.76072 19.68096 24.9498 30.218639 35.138882 37.389839 42.68856 47.957401 51.80196 54.092758 59.351639 64.271881 66.522842 69.899277 75.168121 77.419083 81.990723 84.500641 89.351158 91.602119 96.88092 101.80116 105.2772 107.54808 112.5978 121.1136 123.36456 128.67323 133.82256 140.21687 144.03156 146.28252 149.3004 155.69472 160.23648 165.28619 167.53716 176.05296">Revenue upside to FIT per 1M CPUs (US$ M)</tspan></text>
</g>
    </g>
    <g id="g102">
      <g clip-path="url(#clipPath106)" id="g104"><text id="text110" style="font-variant:normal;font-weight:normal;font-size:9.96000004px;font-family:Calibri;-inkscape-font-specification:Calibri;writing-mode:lr-tb;fill:#000000;fill-opacity:1;fill-rule:nonzero;stroke:none" transform="matrix(1,0,0,-1,321.26,563.88)"><tspan id="tspan112" y="0" x="0 5.0497198 7.5596399">8.8</tspan></text>
</g>
    </g>
    <g id="g114">
      <g clip-path="url(#clipPath118)" id="g116"><text id="text122" style="font-variant:normal;font-weight:normal;font-size:9.96000004px;font-family:Calibri;-inkscape-font-specification:Calibri;writing-mode:lr-tb;fill:#000000;fill-opacity:1;fill-rule:nonzero;stroke:none" transform="matrix(1,0,0,-1,14.88,550.8)"><tspan id="tspan124" y="0" x="0 4.57164 7.0815601 11.88228 14.13324 19.182961 24.232679 29.2824 34.332119 36.58308 39.949558 45.218399 48.555 53.365681 55.656479 57.90744 61.38348 66.343559 70.7658 75.686043 80.95488 86.223717 91.143959 93.39492 98.355003 102.17964 105.51624 107.80704 115.76508 120.53592 123.87252 128.8326 131.08356 134.10144 140.45592 145.02756 150.07729 152.32825 160.84404">FIT 2026 total revenue estimate (US$ M)</tspan></text>
</g>
    </g>
    <g id="g126">
      <g clip-path="url(#clipPath130)" id="g128"><text id="text134" style="font-variant:normal;font-weight:normal;font-size:9.96000004px;font-family:Calibri;-inkscape-font-specification:Calibri;writing-mode:lr-tb;fill:#000000;fill-opacity:1;fill-rule:nonzero;stroke:none" transform="matrix(1,0,0,-1,311.18,550.8)"><tspan id="tspan136" y="0" x="0 5.0497198 7.5397201 12.58944 17.63916">5,483</tspan></text>
</g>
    </g>
    <g id="g138">
      <g clip-path="url(#clipPath142)" id="g140"><text id="text146" style="font-variant:normal;font-weight:bold;font-size:9.96000004px;font-family:Calibri;-inkscape-font-specification:Calibri-Bold;writing-mode:lr-tb;fill:#ff0000;fill-opacity:1;fill-rule:nonzero;stroke:none" transform="matrix(1,0,0,-1,14.88,537.96)"><tspan id="tspan148" y="0" x="0 4.57164 7.2010798 12.13128 14.38224 19.671 24.969721 31.43376 33.684719 38.395802 43.784161 47.977322 52.758121 57.807838 61.263962 63.55476 68.943123 74.331482 78.305519 80.695923 86.084282 91.114082 93.365044 98.783279 103.81308 107.39868 109.64964 114.69936 123.46416 125.71512 131.01384 136.31256 142.7766">FIT CPU Socket upside per 1M CPUs</tspan></text>
</g>
    </g>
    <g id="g150">
      <g clip-path="url(#clipPath154)" id="g152"><text id="text158" style="font-variant:normal;font-weight:bold;font-size:9.96000004px;font-family:Calibri;-inkscape-font-specification:Calibri-Bold;writing-mode:lr-tb;fill:#ff0000;fill-opacity:1;fill-rule:nonzero;stroke:none" transform="matrix(1,0,0,-1,313.82,537.96)"><tspan id="tspan160" y="0" x="0 5.04 7.6896 12.7296">0.2%</tspan></text>
</g>
    </g>
    <g id="g162">
      <g clip-path="url(#clipPath166)" id="g164">
        <path id="path170" style="fill:#000000;fill-opacity:1;fill-rule:evenodd;stroke:none" d="m 12.12,532.8 1.92,0 0,68.04 -1.92,0 0,-68.04 z"/>
        <path id="path172" style="fill:#000000;fill-opacity:1;fill-rule:evenodd;stroke:none" d="m 334.73,532.8 1.92,0 0,66.12 -1.92,0 0,-66.12 z"/>
        <path id="path174" style="fill:#000000;fill-opacity:1;fill-rule:evenodd;stroke:none" d="m 14.04,598.92 322.61,0 0,1.92 -322.61,0 0,-1.92 z"/>
        <path id="path176" style="fill:#000000;fill-opacity:1;fill-rule:evenodd;stroke:none" d="m 14.04,532.8 322.61,0 0,1.92 -322.61,0 0,-1.92 z"/>
      </g>
    </g>
  </g>
</svg>
