<svg version="1.1" width="100%" height="100%" viewBox="0 0 355 287" xmlns="http://www.w3.org/2000/svg" xmlns:xlink="http://www.w3.org/1999/xlink"><style type="text/css" /><defs><clipPath id="clip001"><path d="M0,0 L2753.333,0 L2753.333,2388 L0,2388 Z" clip-rule="evenodd" /></clipPath><clipPath id="clip002"><path d="M0,0 L2753.333,0 L2753.333,2388 L0,2388 Z" clip-rule="evenodd" /></clipPath><clipPath id="clip003"><path d="M0,0 L2753.333,0 L2753.333,2388 L0,2388 Z" clip-rule="evenodd" /></clipPath><clipPath id="clip004"><path d="M0,0 L5200,0 L5200,2493.333 L0,2493.333 Z" clip-rule="evenodd" /></clipPath><clipPath id="clip005"><path d="M-800,0 L6000,0 L6000,2493.333 L-800,2493.333 Z" clip-rule="evenodd" /></clipPath><clipPath id="clip006"><path d="M0,0 L2753.333,0 L2753.333,2384 L0,2384 Z" clip-rule="evenodd" /></clipPath><clipPath id="clip007"><path d="M277.3333,60 L2380,60 L2380,2137.333 L277.3333,2137.333 Z" clip-rule="evenodd" /></clipPath><clipPath id="clip008"><path d="M0,0 L2753.333,0 L2753.333,2384 L0,2384 Z" clip-rule="evenodd" /></clipPath><clipPath id="clip009"><path d="M277.3333,60 L2380,60 L2380,2137.333 L277.3333,2137.333 Z" clip-rule="evenodd" /></clipPath><clipPath id="clip010"><path d="M0,0 L2753.333,0 L2753.333,2384 L0,2384 Z" clip-rule="evenodd" /></clipPath><clipPath id="clip011"><path d="M0,0 L2753.333,0 L2753.333,2384 L0,2384 Z" clip-rule="evenodd" /></clipPath><clipPath id="clip012"><path d="M0,0 L2753.333,0 L2753.333,2384 L0,2384 Z" clip-rule="evenodd" /></clipPath><clipPath id="clip013"><path d="M0,0 L2753.333,0 L2753.333,2384 L0,2384 Z" clip-rule="evenodd" /></clipPath><clipPath id="clip014"><path d="M0,0 L2753.333,0 L2753.333,2384 L0,2384 Z" clip-rule="evenodd" /></clipPath><clipPath id="clip015"><path d="M0,0 L2753.333,0 L2753.333,2384 L0,2384 Z" clip-rule="evenodd" /></clipPath><clipPath id="clip016"><path d="M0,0 L2753.333,0 L2753.333,2384 L0,2384 Z" clip-rule="evenodd" /></clipPath><clipPath id="clip017"><path d="M0,0 L2753.333,0 L2753.333,2384 L0,2384 Z" clip-rule="evenodd" /></clipPath><clipPath id="clip018"><path d="M0,0 L2753.333,0 L2753.333,2384 L0,2384 Z" clip-rule="evenodd" /></clipPath><clipPath id="clip019"><path d="M0,0 L2753.333,0 L2753.333,2384 L0,2384 Z" clip-rule="evenodd" /></clipPath><clipPath id="clip020"><path d="M0,0 L2753.333,0 L2753.333,2384 L0,2384 Z" clip-rule="evenodd" /></clipPath><clipPath id="clip021"><path d="M0,0 L2753.333,0 L2753.333,2384 L0,2384 Z" clip-rule="evenodd" /></clipPath><clipPath id="clip022"><path d="M0,0 L2753.333,0 L2753.333,2384 L0,2384 Z" clip-rule="evenodd" /></clipPath><clipPath id="clip023"><path d="M0,0 L2753.333,0 L2753.333,2384 L0,2384 Z" clip-rule="evenodd" /></clipPath><clipPath id="clip024"><path d="M0,0 L2753.333,0 L2753.333,2384 L0,2384 Z" clip-rule="evenodd" /></clipPath><clipPath id="clip025"><path d="M0,0 L2753.333,0 L2753.333,2384 L0,2384 Z" clip-rule="evenodd" /></clipPath><clipPath id="clip026"><path d="M0,0 L2753.333,0 L2753.333,2384 L0,2384 Z" clip-rule="evenodd" /></clipPath><clipPath id="clip027"><path d="M0,0 L2753.333,0 L2753.333,2384 L0,2384 Z" clip-rule="evenodd" /></clipPath><clipPath id="clip028"><path d="M0,0 L2753.333,0 L2753.333,2384 L0,2384 Z" clip-rule="evenodd" /></clipPath><clipPath id="clip029"><path d="M0,0 L2753.333,0 L2753.333,2384 L0,2384 Z" clip-rule="evenodd" /></clipPath><clipPath id="clip030"><path d="M0,0 L2753.333,0 L2753.333,2384 L0,2384 Z" clip-rule="evenodd" /></clipPath><clipPath id="clip031"><path d="M0,0 L2753.333,0 L2753.333,2384 L0,2384 Z" clip-rule="evenodd" /></clipPath><clipPath id="clip032"><path d="M0,0 L2753.333,0 L2753.333,2384 L0,2384 Z" clip-rule="evenodd" /></clipPath><clipPath id="clip033"><path d="M0,0 L2753.333,0 L2753.333,2384 L0,2384 Z" clip-rule="evenodd" /></clipPath><clipPath id="clip034"><path d="M0,0 L2753.333,0 L2753.333,2384 L0,2384 Z" clip-rule="evenodd" /></clipPath><clipPath id="clip035"><path d="M0,0 L2753.333,0 L2753.333,2384 L0,2384 Z" clip-rule="evenodd" /></clipPath><clipPath id="clip036"><path d="M0,0 L2753.333,0 L2753.333,2384 L0,2384 Z" clip-rule="evenodd" /></clipPath><clipPath id="clip037"><path d="M0,0 L2753.333,0 L2753.333,2384 L0,2384 Z" clip-rule="evenodd" /></clipPath><clipPath id="clip038"><path d="M0,0 L2753.333,0 L2753.333,2384 L0,2384 Z" clip-rule="evenodd" /></clipPath><clipPath id="clip039"><path d="M0,0 L2753.333,0 L2753.333,2384 L0,2384 Z" clip-rule="evenodd" /></clipPath><clipPath id="clip040"><path d="M0,0 L2753.333,0 L2753.333,2384 L0,2384 Z" clip-rule="evenodd" /></clipPath><clipPath id="clip041"><path d="M0,0 L2753.333,0 L2753.333,2384 L0,2384 Z" clip-rule="evenodd" /></clipPath><clipPath id="clip042"><path d="M0,0 L2753.333,0 L2753.333,2384 L0,2384 Z" clip-rule="evenodd" /></clipPath><clipPath id="clip043"><path d="M0,0 L2753.333,0 L2753.333,2384 L0,2384 Z" clip-rule="evenodd" /></clipPath><clipPath id="clip044"><path d="M0,0 L2753.333,0 L2753.333,2384 L0,2384 Z" clip-rule="evenodd" /></clipPath><clipPath id="clip045"><path d="M0,0 L2753.333,0 L2753.333,2384 L0,2384 Z" clip-rule="evenodd" /></clipPath><clipPath id="clip046"><path d="M0,0 L2753.333,0 L2753.333,2384 L0,2384 Z" clip-rule="evenodd" /></clipPath><clipPath id="clip047"><path d="M0,0 L2753.333,0 L2753.333,2384 L0,2384 Z" clip-rule="evenodd" /></clipPath></defs><clipPath id="page-clip-path-1"><rect x="0" y="0" width="354.67" height="286.67" /></clipPath><g clip-path="url(#page-clip-path-1)" transform="translate(0.17,0)"><g transform="translate(1,1)"><g><g transform="matrix(0.1200484,0,0,0.1198213,0,0)" clip-path="url(#clip001)"><g><g clip-path="url(#clip002)"><g><g clip-path="url(#clip003)"><g transform="matrix(1.000207,0,0,1.000746,-0.00016276,0)"><g><g><g clip-path="url(#clip004)"><g transform="translate(2753.333,2385.333)" /></g></g></g><g clip-path="url(#clip005)"><g transform="matrix(0.000656168,0,0,0.000656168,0,0)"><path d="M0,0 L4198112,0 L4198112,3633216 L0,3633216 Z" fill="#ffffff" fill-opacity="0" fill-rule="evenodd" /></g></g><g clip-path="url(#clip006)"><g transform="matrix(0.000656168,0,0,0.000656168,277.3333,60)"><path d="M0,2804160 L3192272,2804160 M0,2452624 L3192272,2452624 M0,2103120 L3192272,2103120 M0,1751584 L3192272,1751584 M0,1402080 L3192272,1402080 M0,1052576 L3192272,1052576 M0,701040 L3192272,701040 M0,351536 L3192272,351536 M0,0 L3192272,0 " stroke-width="16933.33" stroke-linejoin="round" stroke-miterlimit="13.33333" stroke="#bababa" fill="none" fill-rule="nonzero" /></g></g><g clip-path="url(#clip007)"><g transform="matrix(0.000656168,0,0,0.000656168,277.3333,60)"><path d="M107696,1170432 L532384,1170432 L532384,1170432 L532384,3153664 L532384,3153664 L107696,3153664 ZM745744,1068832 L1170432,1068832 L1170432,1068832 L1170432,3153664 L1170432,3153664 L745744,3153664 ZM1383792,715264 L1808480,715264 L1808480,715264 L1808480,3153664 L1808480,3153664 L1383792,3153664 ZM2021840,483616 L2446528,483616 L2446528,483616 L2446528,3153664 L2446528,3153664 L2021840,3153664 ZM2659888,333248 L3086608,333248 L3086608,333248 L3086608,3153664 L3086608,3153664 L2659888,3153664 Z" fill="#012169" fill-rule="nonzero" /><path d="M107696,1170432 L532384,1170432 L532384,1170432 L532384,3153664 L532384,3153664 L107696,3153664 ZM745744,1068832 L1170432,1068832 L1170432,1068832 L1170432,3153664 L1170432,3153664 L745744,3153664 ZM1383792,715264 L1808480,715264 L1808480,715264 L1808480,3153664 L1808480,3153664 L1383792,3153664 ZM2021840,483616 L2446528,483616 L2446528,483616 L2446528,3153664 L2446528,3153664 L2021840,3153664 ZM2659888,333248 L3086608,333248 L3086608,333248 L3086608,3153664 L3086608,3153664 L2659888,3153664 Z" stroke-width="8466.667" stroke-linejoin="round" stroke-miterlimit="13.33333" stroke="#ffffff" fill="none" fill-rule="nonzero" /></g></g><g clip-path="url(#clip008)"><g transform="matrix(0.000656168,0,0,0.000656168,277.3333,2129.333)"><g><path d="M0.002829054,-6773.333 L3192272,-6772 " stroke-width="3386.667" stroke-linejoin="round" stroke-miterlimit="13.33333" stroke="#000000" fill="none" fill-rule="evenodd" /><path d="M-0.001414527,3386.667 L3192272,3388 " stroke-width="10160" stroke-linejoin="round" stroke-miterlimit="13.33333" stroke="#000000" fill="none" fill-rule="evenodd" /></g></g></g><g clip-path="url(#clip009)"><g transform="matrix(0.000656168,0,0,0.000656168,487.3333,240.6667)"><path d="M0,654304 L638048,664464 L638048,664464 L1276096,333248 L1276096,333248 L1914144,136144 L1914144,136144 L2552192,0 " stroke-width="33866.67" stroke-linecap="round" stroke-linejoin="round" stroke-miterlimit="13.33333" stroke="#009cde" fill="none" fill-rule="nonzero" /></g></g><g><g clip-path="url(#clip010)"><g><g transform="translate(402.3854,750.6619)"><text><tspan x="0" y="0" font-family="Connections Cond Light,Arial Narrow" font-weight="normal" font-style="normal" font-size="105.3333" fill="#000000">11.3</tspan></text></g></g></g></g><g><g clip-path="url(#clip011)"><g><g transform="translate(821.2104,683.9357)"><text><tspan x="0" y="0" font-family="Connections Cond Light,Arial Narrow" font-weight="normal" font-style="normal" font-size="105.3333" fill="#000000">11.9</tspan></text></g></g></g></g><g><g clip-path="url(#clip012)"><g><g transform="translate(1240.035,452.0057)"><text><tspan x="0" y="0" font-family="Connections Cond Light,Arial Narrow" font-weight="normal" font-style="normal" font-size="105.3333" fill="#000000">13.9</tspan></text></g></g></g></g><g><g clip-path="url(#clip013)"><g><g transform="translate(1658.861,300.2165)"><text><tspan x="0" y="0" font-family="Connections Cond Light,Arial Narrow" font-weight="normal" font-style="normal" font-size="105.3333" fill="#000000">15.2</tspan></text></g></g></g></g><g><g clip-path="url(#clip014)"><g><g transform="translate(2077.686,201.8377)"><text><tspan x="0" y="0" font-family="Connections Cond Light,Arial Narrow" font-weight="normal" font-style="normal" font-size="105.3333" fill="#000000">16.1</tspan></text></g></g></g></g><g><g clip-path="url(#clip015)"><g><g transform="translate(353.052,565.996)"><text><tspan x="0" y="0" font-family="Connections Cond Light,Arial Narrow" font-weight="normal" font-style="normal" font-size="105.3333" fill="#000000">$1,128</tspan></text></g></g></g></g><g><g clip-path="url(#clip016)"><g><g transform="translate(771.8771,571.8193)"><text><tspan x="0" y="0" font-family="Connections Cond Light,Arial Narrow" font-weight="normal" font-style="normal" font-size="105.3333" fill="#000000">$1,124</tspan></text></g></g></g></g><g><g clip-path="url(#clip017)"><g><g transform="translate(1190.702,355.1212)"><text><tspan x="0" y="0" font-family="Connections Cond Light,Arial Narrow" font-weight="normal" font-style="normal" font-size="105.3333" fill="#000000">$1,291</tspan></text></g></g></g></g><g><g clip-path="url(#clip018)"><g><g transform="translate(1609.527,225.4624)"><text><tspan x="0" y="0" font-family="Connections Cond Light,Arial Narrow" font-weight="normal" font-style="normal" font-size="105.3333" fill="#000000">$1,391</tspan></text></g></g></g></g><g><g clip-path="url(#clip019)"><g><g transform="translate(2028.352,136.1334)"><text><tspan x="0" y="0" font-family="Connections Cond Light,Arial Narrow" font-weight="normal" font-style="normal" font-size="105.3333" fill="#000000">$1,460</tspan></text></g></g></g></g><g><g clip-path="url(#clip020)"><g><g transform="translate(2463.182,2159.586)"><text><tspan x="0" y="0" font-family="Connections Cond Light,Arial Narrow" font-weight="normal" font-style="normal" font-size="105.3333" fill="#000000">$0</tspan></text></g></g></g></g><g><g clip-path="url(#clip021)"><g><g transform="translate(2463.182,1900.849)"><text><tspan x="0" y="0" font-family="Connections Cond Light,Arial Narrow" font-weight="normal" font-style="normal" font-size="105.3333" fill="#000000">$200</tspan></text></g></g></g></g><g><g clip-path="url(#clip022)"><g><g transform="translate(2463.182,1642.113)"><text><tspan x="0" y="0" font-family="Connections Cond Light,Arial Narrow" font-weight="normal" font-style="normal" font-size="105.3333" fill="#000000">$400</tspan></text></g></g></g></g><g><g clip-path="url(#clip023)"><g><g transform="translate(2463.182,1383.377)"><text><tspan x="0" y="0" font-family="Connections Cond Light,Arial Narrow" font-weight="normal" font-style="normal" font-size="105.3333" fill="#000000">$600</tspan></text></g></g></g></g><g><g clip-path="url(#clip024)"><g><g transform="translate(2463.182,1124.64)"><text><tspan x="0" y="0" font-family="Connections Cond Light,Arial Narrow" font-weight="normal" font-style="normal" font-size="105.3333" fill="#000000">$800</tspan></text></g></g></g></g><g><g clip-path="url(#clip025)"><g><g transform="translate(2463.182,865.9037)"><text><tspan x="0" y="0" font-family="Connections Cond Light,Arial Narrow" font-weight="normal" font-style="normal" font-size="105.3333" fill="#000000">$1,000</tspan></text></g></g></g></g><g><g clip-path="url(#clip026)"><g><g transform="translate(2463.182,607.1671)"><text><tspan x="0" y="0" font-family="Connections Cond Light,Arial Narrow" font-weight="normal" font-style="normal" font-size="105.3333" fill="#000000">$1,200</tspan></text></g></g></g></g><g><g clip-path="url(#clip027)"><g><g transform="translate(2463.182,348.4313)"><text><tspan x="0" y="0" font-family="Connections Cond Light,Arial Narrow" font-weight="normal" font-style="normal" font-size="105.3333" fill="#000000">$1,400</tspan></text></g></g></g></g><g><g clip-path="url(#clip028)"><g><g transform="translate(2463.182,89.69466)"><text><tspan x="0" y="0" font-family="Connections Cond Light,Arial Narrow" font-weight="normal" font-style="normal" font-size="105.3333" fill="#000000">$1,600</tspan></text></g></g></g></g><g><g clip-path="url(#clip029)"><g><g transform="translate(67.33334,2159.586)"><text><tspan x="0" y="0" font-family="Connections Cond Light,Arial Narrow" font-weight="normal" font-style="normal" font-size="105.3333" fill="#000000">0.0</tspan></text></g></g></g></g><g><g clip-path="url(#clip030)"><g><g transform="translate(67.33334,1929.599)"><text><tspan x="0" y="0" font-family="Connections Cond Light,Arial Narrow" font-weight="normal" font-style="normal" font-size="105.3333" fill="#000000">2.0</tspan></text></g></g></g></g><g><g clip-path="url(#clip031)"><g><g transform="translate(67.33334,1699.611)"><text><tspan x="0" y="0" font-family="Connections Cond Light,Arial Narrow" font-weight="normal" font-style="normal" font-size="105.3333" fill="#000000">4.0</tspan></text></g></g></g></g><g><g clip-path="url(#clip032)"><g><g transform="translate(67.33334,1469.622)"><text><tspan x="0" y="0" font-family="Connections Cond Light,Arial Narrow" font-weight="normal" font-style="normal" font-size="105.3333" fill="#000000">6.0</tspan></text></g></g></g></g><g><g clip-path="url(#clip033)"><g><g transform="translate(67.33334,1239.634)"><text><tspan x="0" y="0" font-family="Connections Cond Light,Arial Narrow" font-weight="normal" font-style="normal" font-size="105.3333" fill="#000000">8.0</tspan></text></g></g></g></g><g><g clip-path="url(#clip034)"><g><g transform="translate(16.66667,1009.647)"><text><tspan x="0" y="0" font-family="Connections Cond Light,Arial Narrow" font-weight="normal" font-style="normal" font-size="105.3333" fill="#000000">10.0</tspan></text></g></g></g></g><g><g clip-path="url(#clip035)"><g><g transform="translate(16.66667,779.6588)"><text><tspan x="0" y="0" font-family="Connections Cond Light,Arial Narrow" font-weight="normal" font-style="normal" font-size="105.3333" fill="#000000">12.0</tspan></text></g></g></g></g><g><g clip-path="url(#clip036)"><g><g transform="translate(16.66667,549.6702)"><text><tspan x="0" y="0" font-family="Connections Cond Light,Arial Narrow" font-weight="normal" font-style="normal" font-size="105.3333" fill="#000000">14.0</tspan></text></g></g></g></g><g><g clip-path="url(#clip037)"><g><g transform="translate(16.66667,319.6824)"><text><tspan x="0" y="0" font-family="Connections Cond Light,Arial Narrow" font-weight="normal" font-style="normal" font-size="105.3333" fill="#000000">16.0</tspan></text></g></g></g></g><g><g clip-path="url(#clip038)"><g><g transform="translate(16.66667,89.69466)"><text><tspan x="0" y="0" font-family="Connections Cond Light,Arial Narrow" font-weight="normal" font-style="normal" font-size="105.3333" fill="#000000">18.0</tspan></text></g></g></g></g><g><g clip-path="url(#clip039)"><g><g transform="translate(385.8023,2285.835)"><text><tspan x="0" y="0" font-family="Connections Cond Light,Arial Narrow" font-weight="normal" font-style="normal" font-size="105.3333" fill="#000000">2024</tspan></text></g></g></g></g><g><g clip-path="url(#clip040)"><g><g transform="translate(804.6273,2285.835)"><text><tspan x="0" y="0" font-family="Connections Cond Light,Arial Narrow" font-weight="normal" font-style="normal" font-size="105.3333" fill="#000000">2025</tspan></text></g></g></g></g><g><g clip-path="url(#clip041)"><g><g transform="translate(1199.286,2285.835)"><text><tspan x="0" y="0" font-family="Connections Cond Light,Arial Narrow" font-weight="normal" font-style="normal" font-size="105.3333" fill="#000000">2026E</tspan></text></g></g></g></g><g><g clip-path="url(#clip042)"><g><g transform="translate(1618.111,2285.835)"><text><tspan x="0" y="0" font-family="Connections Cond Light,Arial Narrow" font-weight="normal" font-style="normal" font-size="105.3333" fill="#000000">2027E</tspan></text></g></g></g></g><g><g clip-path="url(#clip043)"><g><g transform="translate(2036.936,2285.835)"><text><tspan x="0" y="0" font-family="Connections Cond Light,Arial Narrow" font-weight="normal" font-style="normal" font-size="105.3333" fill="#000000">2028E</tspan></text></g></g></g></g><g clip-path="url(#clip044)"><g transform="matrix(0.000656168,0,0,0.000656168,294.6667,132)"><path d="M0,0 L325120,0 L325120,83312 L0,83312 Z" fill="#012169" fill-rule="evenodd" /><path d="M0,0 L325120,0 L325120,0 L325120,83312 L325120,83312 L0,83312 Z" stroke-width="8466.667" stroke-linejoin="round" stroke-miterlimit="13.33333" stroke="#ffffff" fill="none" fill-rule="evenodd" /></g></g><g><g clip-path="url(#clip045)"><g><g transform="translate(530.9213,189.0936)"><text><tspan x="0" y="0" font-family="Connections Cond Light,Arial Narrow" font-weight="normal" font-style="normal" font-size="105.3333" fill="#000000">Server CPU Units (mn)</tspan></text></g></g></g></g><g clip-path="url(#clip046)"><g transform="matrix(0.000656168,0,0,0.000656168,1542,159.3333)"><path d="M0,0 L325120,1.333333 " stroke-width="33866.67" stroke-linecap="round" stroke-linejoin="round" stroke-miterlimit="13.33333" stroke="#009cde" fill="none" fill-rule="evenodd" /></g></g><g><g clip-path="url(#clip047)"><g><g transform="translate(1777.737,189.0936)"><text><tspan x="0" y="0" font-family="Connections Cond Light,Arial Narrow" font-weight="normal" font-style="normal" font-size="105.3333" fill="#000000">Server CPU ASP ($)</tspan></text></g></g></g></g><g /></g></g></g></g></g></g></g></g></g></svg>