<svg version="1.1" width="100%" height="100%" viewBox="0 0 355 211" xmlns="http://www.w3.org/2000/svg" xmlns:xlink="http://www.w3.org/1999/xlink"><style type="text/css" /><defs><clipPath id="clip001"><path d="M0,0 L2761.333,0 L2761.333,1749.333 L0,1749.333 Z" clip-rule="evenodd" /></clipPath><clipPath id="clip002"><path d="M0,0 L2761.333,0 L2761.333,1749.333 L0,1749.333 Z" clip-rule="evenodd" /></clipPath><clipPath id="clip003"><path d="M0,0 L2761.333,0 L2761.333,1749.333 L0,1749.333 Z" clip-rule="evenodd" /></clipPath><clipPath id="clip004"><path d="M0,0 L5200,0 L5200,1857.333 L0,1857.333 Z" clip-rule="evenodd" /></clipPath><clipPath id="clip005"><path d="M-800,0 L6000,0 L6000,1857.333 L-800,1857.333 Z" clip-rule="evenodd" /></clipPath><clipPath id="clip006"><path d="M0,0 L2753.333,0 L2753.333,1748 L0,1748 Z" clip-rule="evenodd" /></clipPath><clipPath id="clip007"><path d="M205.3333,60 L2524,60 L2524,1442.667 L205.3333,1442.667 Z" clip-rule="evenodd" /></clipPath><clipPath id="clip008"><path d="M0,0 L2753.333,0 L2753.333,1748 L0,1748 Z" clip-rule="evenodd" /></clipPath><clipPath id="clip009"><path d="M205.3333,60 L2524,60 L2524,1442.667 L205.3333,1442.667 Z" clip-rule="evenodd" /></clipPath><clipPath id="clip010"><path d="M0,0 L2753.333,0 L2753.333,1748 L0,1748 Z" clip-rule="evenodd" /></clipPath><clipPath id="clip011"><path d="M0,0 L2753.333,0 L2753.333,1748 L0,1748 Z" clip-rule="evenodd" /></clipPath><clipPath id="clip012"><path d="M0,0 L2753.333,0 L2753.333,1748 L0,1748 Z" clip-rule="evenodd" /></clipPath><clipPath id="clip013"><path d="M0,0 L2753.333,0 L2753.333,1748 L0,1748 Z" clip-rule="evenodd" /></clipPath><clipPath id="clip014"><path d="M0,0 L2753.333,0 L2753.333,1748 L0,1748 Z" clip-rule="evenodd" /></clipPath><clipPath id="clip015"><path d="M0,0 L2753.333,0 L2753.333,1748 L0,1748 Z" clip-rule="evenodd" /></clipPath><clipPath id="clip016"><path d="M0,0 L2753.333,0 L2753.333,1748 L0,1748 Z" clip-rule="evenodd" /></clipPath><clipPath id="clip017"><path d="M0,0 L2753.333,0 L2753.333,1748 L0,1748 Z" clip-rule="evenodd" /></clipPath><clipPath id="clip018"><path d="M0,0 L2753.333,0 L2753.333,1748 L0,1748 Z" clip-rule="evenodd" /></clipPath><clipPath id="clip019"><path d="M0,0 L2753.333,0 L2753.333,1748 L0,1748 Z" clip-rule="evenodd" /></clipPath><clipPath id="clip020"><path d="M0,0 L2753.333,0 L2753.333,1748 L0,1748 Z" clip-rule="evenodd" /></clipPath><clipPath id="clip021"><path d="M0,0 L2753.333,0 L2753.333,1748 L0,1748 Z" clip-rule="evenodd" /></clipPath><clipPath id="clip022"><path d="M0,0 L2753.333,0 L2753.333,1748 L0,1748 Z" clip-rule="evenodd" /></clipPath><clipPath id="clip023"><path d="M0,0 L2753.333,0 L2753.333,1748 L0,1748 Z" clip-rule="evenodd" /></clipPath><clipPath id="clip024"><path d="M0,0 L2753.333,0 L2753.333,1748 L0,1748 Z" clip-rule="evenodd" /></clipPath><clipPath id="clip025"><path d="M0,0 L2753.333,0 L2753.333,1748 L0,1748 Z" clip-rule="evenodd" /></clipPath><clipPath id="clip026"><path d="M0,0 L2753.333,0 L2753.333,1748 L0,1748 Z" clip-rule="evenodd" /></clipPath><clipPath id="clip027"><path d="M0,0 L2753.333,0 L2753.333,1748 L0,1748 Z" clip-rule="evenodd" /></clipPath><clipPath id="clip028"><path d="M0,0 L2753.333,0 L2753.333,1748 L0,1748 Z" clip-rule="evenodd" /></clipPath><clipPath id="clip029"><path d="M0,0 L2753.333,0 L2753.333,1748 L0,1748 Z" clip-rule="evenodd" /></clipPath><clipPath id="clip030"><path d="M0,0 L2753.333,0 L2753.333,1748 L0,1748 Z" clip-rule="evenodd" /></clipPath><clipPath id="clip031"><path d="M0,0 L2753.333,0 L2753.333,1748 L0,1748 Z" clip-rule="evenodd" /></clipPath><clipPath id="clip032"><path d="M0,0 L2753.333,0 L2753.333,1748 L0,1748 Z" clip-rule="evenodd" /></clipPath><clipPath id="clip033"><path d="M0,0 L2753.333,0 L2753.333,1748 L0,1748 Z" clip-rule="evenodd" /></clipPath><clipPath id="clip034"><path d="M0,0 L2753.333,0 L2753.333,1748 L0,1748 Z" clip-rule="evenodd" /></clipPath><clipPath id="clip035"><path d="M0,0 L2753.333,0 L2753.333,1748 L0,1748 Z" clip-rule="evenodd" /></clipPath><clipPath id="clip036"><path d="M0,0 L2753.333,0 L2753.333,1748 L0,1748 Z" clip-rule="evenodd" /></clipPath><clipPath id="clip037"><path d="M0,0 L2753.333,0 L2753.333,1748 L0,1748 Z" clip-rule="evenodd" /></clipPath><clipPath id="clip038"><path d="M0,0 L2753.333,0 L2753.333,1748 L0,1748 Z" clip-rule="evenodd" /></clipPath><clipPath id="clip039"><path d="M0,0 L2753.333,0 L2753.333,1748 L0,1748 Z" clip-rule="evenodd" /></clipPath><clipPath id="clip040"><path d="M0,0 L2753.333,0 L2753.333,1748 L0,1748 Z" clip-rule="evenodd" /></clipPath><clipPath id="clip041"><path d="M0,0 L2753.333,0 L2753.333,1748 L0,1748 Z" clip-rule="evenodd" /></clipPath></defs><clipPath id="page-clip-path-1"><rect x="0" y="0" width="354.67" height="210.67" /></clipPath><g clip-path="url(#page-clip-path-1)" transform="translate(0.17,0)"><g transform="translate(1,1)"><g><g transform="matrix(0.1197006,0,0,0.1199695,0,0)" clip-path="url(#clip001)"><g><g clip-path="url(#clip002)"><g><g clip-path="url(#clip003)"><g transform="matrix(1.000214,0,0,1.0008,0.00016276,0)"><g><g><g clip-path="url(#clip004)"><g transform="translate(2753.333,1749.333)" /></g></g></g><g clip-path="url(#clip005)"><g transform="matrix(0.000656168,0,0,0.000656168,0,0)"><path d="M0,0 L4198112,0 L4198112,2665984 L0,2665984 Z" fill="#ffffff" fill-opacity="0" fill-rule="evenodd" /></g></g><g clip-path="url(#clip006)"><g transform="matrix(0.000656168,0,0,0.000656168,205.3333,60)"><path d="M0,1570736 L3521456,1570736 M0,1048512 L3521456,1048512 M0,524256 L3521456,524256 M0,0 L3521456,0 " stroke-width="16933.33" stroke-linejoin="round" stroke-miterlimit="13.33333" stroke="#bababa" fill="none" fill-rule="nonzero" /></g></g><g clip-path="url(#clip007)"><g transform="matrix(0.000656168,0,0,0.000656168,205.3333,60)"><path d="M34544,1845056 L172720,1845056 L172720,1845056 L172720,2094992 L172720,2094992 L34544,2094992 ZM241808,1485392 L379984,1485392 L379984,1485392 L379984,2094992 L379984,2094992 L241808,2094992 ZM449072,1446784 L587248,1446784 L587248,1446784 L587248,2094992 L587248,2094992 L449072,2094992 ZM656336,1684528 L794512,1684528 L794512,1684528 L794512,2094992 L794512,2094992 L656336,2094992 ZM863600,1715008 L1001776,1715008 L1001776,1715008 L1001776,2094992 L1001776,2094992 L863600,2094992 ZM1070864,1666240 L1209040,1666240 L1209040,1666240 L1209040,2094992 L1209040,2094992 L1070864,2094992 ZM1278128,1621536 L1416304,1621536 L1416304,1621536 L1416304,2094992 L1416304,2094992 L1278128,2094992 ZM1485392,1428496 L1623568,1428496 L1623568,1428496 L1623568,2094992 L1623568,2094992 L1485392,2094992 ZM1692656,1180592 L1830832,1180592 L1830832,1180592 L1830832,2094992 L1830832,2094992 L1692656,2094992 ZM1899920,1125728 L2038096,1125728 L2038096,1125728 L2038096,2094992 L2038096,2094992 L1899920,2094992 ZM2107184,1337056 L2245360,1337056 L2245360,1337056 L2245360,2094992 L2245360,2094992 L2107184,2094992 ZM2314448,1170432 L2452624,1170432 L2452624,1170432 L2452624,2094992 L2452624,2094992 L2314448,2094992 ZM2521712,581152 L2659888,581152 L2659888,581152 L2659888,2094992 L2659888,2094992 L2521712,2094992 ZM2728976,512064 L2867152,512064 L2867152,512064 L2867152,2094992 L2867152,2094992 L2728976,2094992 ZM2934208,688848 L3072384,688848 L3072384,688848 L3072384,2094992 L3072384,2094992 L2934208,2094992 ZM3141472,546608 L3279648,546608 L3279648,546608 L3279648,2094992 L3279648,2094992 L3141472,2094992 ZM3348736,148336 L3486912,148336 L3486912,148336 L3486912,2094992 L3486912,2094992 L3348736,2094992 Z" fill="#012169" fill-rule="nonzero" /></g></g><g clip-path="url(#clip008)"><g transform="matrix(0.000656168,0,0,0.000656168,205.3333,1434.667)"><g><path d="M0.002564596,-6773.333 L3521456,-6772 " stroke-width="3386.667" stroke-linejoin="round" stroke-miterlimit="13.33333" stroke="#000000" fill="none" fill-rule="evenodd" /><path d="M-0.001282298,3386.667 L3521456,3388 " stroke-width="10160" stroke-linejoin="round" stroke-miterlimit="13.33333" stroke="#000000" fill="none" fill-rule="evenodd" /></g></g></g><g clip-path="url(#clip009)"><g transform="matrix(0.000656168,0,0,0.000656168,274,310)"><path d="M0,73152 L207264,56896 L207264,56896 L414528,195072 L414528,195072 L621792,544576 L621792,544576 L829056,459232 L829056,459232 L1036320,497840 L1036320,497840 L1243584,353568 L1243584,353568 L1448816,0 L1448816,0 L1656080,16256 L1656080,16256 L1863344,160528 L1863344,160528 L2070608,428752 L2070608,428752 L2277872,371856 L2277872,371856 L2485136,180848 L2485136,180848 L2692400,241808 L2692400,241808 L2899664,438912 L2899664,438912 L3106928,406400 " stroke-width="33866.67" stroke-linecap="round" stroke-linejoin="round" stroke-miterlimit="13.33333" stroke="#009cde" fill="none" fill-rule="nonzero" /></g></g><g><g clip-path="url(#clip010)"><g><g transform="translate(2607.722,1464.253)"><text><tspan x="0" y="0" font-family="Connections Cond Light,Arial Narrow" font-weight="normal" font-style="normal" font-size="105.3333" fill="#000000">0%</tspan></text></g></g></g></g><g><g clip-path="url(#clip011)"><g><g transform="translate(2607.722,1006.066)"><text><tspan x="0" y="0" font-family="Connections Cond Light,Arial Narrow" font-weight="normal" font-style="normal" font-size="105.3333" fill="#000000">2%</tspan></text></g></g></g></g><g><g clip-path="url(#clip012)"><g><g transform="translate(2607.722,547.881)"><text><tspan x="0" y="0" font-family="Connections Cond Light,Arial Narrow" font-weight="normal" font-style="normal" font-size="105.3333" fill="#000000">3%</tspan></text></g></g></g></g><g><g clip-path="url(#clip013)"><g><g transform="translate(2607.722,89.69466)"><text><tspan x="0" y="0" font-family="Connections Cond Light,Arial Narrow" font-weight="normal" font-style="normal" font-size="105.3333" fill="#000000">5%</tspan></text></g></g></g></g><g><g clip-path="url(#clip014)"><g><g transform="translate(16.66667,1464.253)"><text><tspan x="0" y="0" font-family="Connections Cond Light,Arial Narrow" font-weight="normal" font-style="normal" font-size="105.3333" fill="#000000">$0</tspan></text></g></g></g></g><g><g clip-path="url(#clip015)"><g><g transform="translate(16.66667,1120.613)"><text><tspan x="0" y="0" font-family="Connections Cond Light,Arial Narrow" font-weight="normal" font-style="normal" font-size="105.3333" fill="#000000">$1</tspan></text></g></g></g></g><g><g clip-path="url(#clip016)"><g><g transform="translate(16.66667,776.9737)"><text><tspan x="0" y="0" font-family="Connections Cond Light,Arial Narrow" font-weight="normal" font-style="normal" font-size="105.3333" fill="#000000">$2</tspan></text></g></g></g></g><g><g clip-path="url(#clip017)"><g><g transform="translate(16.66667,433.3342)"><text><tspan x="0" y="0" font-family="Connections Cond Light,Arial Narrow" font-weight="normal" font-style="normal" font-size="105.3333" fill="#000000">$3</tspan></text></g></g></g></g><g><g clip-path="url(#clip018)"><g><g transform="translate(16.66667,89.69466)"><text><tspan x="0" y="0" font-family="Connections Cond Light,Arial Narrow" font-weight="normal" font-style="normal" font-size="105.3333" fill="#000000">$4</tspan></text></g></g></g></g><g><g clip-path="url(#clip019)"><g><g transform="matrix(0,-1,1,0,307.1767,1699.836)"><text><tspan x="0" y="0" font-family="Connections Cond Light,Arial Narrow" font-weight="normal" font-style="normal" font-size="105.3333" fill="#000000">2009</tspan></text></g></g></g></g><g><g clip-path="url(#clip020)"><g><g transform="matrix(0,-1,1,0,443.0848,1699.836)"><text><tspan x="0" y="0" font-family="Connections Cond Light,Arial Narrow" font-weight="normal" font-style="normal" font-size="105.3333" fill="#000000">2010</tspan></text></g></g></g></g><g><g clip-path="url(#clip021)"><g><g transform="matrix(0,-1,1,0,578.993,1699.836)"><text><tspan x="0" y="0" font-family="Connections Cond Light,Arial Narrow" font-weight="normal" font-style="normal" font-size="105.3333" fill="#000000">2011</tspan></text></g></g></g></g><g><g clip-path="url(#clip022)"><g><g transform="matrix(0,-1,1,0,714.902,1699.836)"><text><tspan x="0" y="0" font-family="Connections Cond Light,Arial Narrow" font-weight="normal" font-style="normal" font-size="105.3333" fill="#000000">2012</tspan></text></g></g></g></g><g><g clip-path="url(#clip023)"><g><g transform="matrix(0,-1,1,0,850.8101,1699.836)"><text><tspan x="0" y="0" font-family="Connections Cond Light,Arial Narrow" font-weight="normal" font-style="normal" font-size="105.3333" fill="#000000">2013</tspan></text></g></g></g></g><g><g clip-path="url(#clip024)"><g><g transform="matrix(0,-1,1,0,986.7183,1699.836)"><text><tspan x="0" y="0" font-family="Connections Cond Light,Arial Narrow" font-weight="normal" font-style="normal" font-size="105.3333" fill="#000000">2014</tspan></text></g></g></g></g><g><g clip-path="url(#clip025)"><g><g transform="matrix(0,-1,1,0,1122.627,1699.836)"><text><tspan x="0" y="0" font-family="Connections Cond Light,Arial Narrow" font-weight="normal" font-style="normal" font-size="105.3333" fill="#000000">2015</tspan></text></g></g></g></g><g><g clip-path="url(#clip026)"><g><g transform="matrix(0,-1,1,0,1258.535,1699.836)"><text><tspan x="0" y="0" font-family="Connections Cond Light,Arial Narrow" font-weight="normal" font-style="normal" font-size="105.3333" fill="#000000">2016</tspan></text></g></g></g></g><g><g clip-path="url(#clip027)"><g><g transform="matrix(0,-1,1,0,1394.444,1699.836)"><text><tspan x="0" y="0" font-family="Connections Cond Light,Arial Narrow" font-weight="normal" font-style="normal" font-size="105.3333" fill="#000000">2017</tspan></text></g></g></g></g><g><g clip-path="url(#clip028)"><g><g transform="matrix(0,-1,1,0,1530.353,1699.836)"><text><tspan x="0" y="0" font-family="Connections Cond Light,Arial Narrow" font-weight="normal" font-style="normal" font-size="105.3333" fill="#000000">2018</tspan></text></g></g></g></g><g><g clip-path="url(#clip029)"><g><g transform="matrix(0,-1,1,0,1666.261,1699.836)"><text><tspan x="0" y="0" font-family="Connections Cond Light,Arial Narrow" font-weight="normal" font-style="normal" font-size="105.3333" fill="#000000">2019</tspan></text></g></g></g></g><g><g clip-path="url(#clip030)"><g><g transform="matrix(0,-1,1,0,1802.17,1699.836)"><text><tspan x="0" y="0" font-family="Connections Cond Light,Arial Narrow" font-weight="normal" font-style="normal" font-size="105.3333" fill="#000000">2020</tspan></text></g></g></g></g><g><g clip-path="url(#clip031)"><g><g transform="matrix(0,-1,1,0,1938.078,1699.836)"><text><tspan x="0" y="0" font-family="Connections Cond Light,Arial Narrow" font-weight="normal" font-style="normal" font-size="105.3333" fill="#000000">2021</tspan></text></g></g></g></g><g><g clip-path="url(#clip032)"><g><g transform="matrix(0,-1,1,0,2073.986,1699.836)"><text><tspan x="0" y="0" font-family="Connections Cond Light,Arial Narrow" font-weight="normal" font-style="normal" font-size="105.3333" fill="#000000">2022</tspan></text></g></g></g></g><g><g clip-path="url(#clip033)"><g><g transform="matrix(0,-1,1,0,2209.895,1699.836)"><text><tspan x="0" y="0" font-family="Connections Cond Light,Arial Narrow" font-weight="normal" font-style="normal" font-size="105.3333" fill="#000000">2023</tspan></text></g></g></g></g><g><g clip-path="url(#clip034)"><g><g transform="matrix(0,-1,1,0,2345.803,1699.836)"><text><tspan x="0" y="0" font-family="Connections Cond Light,Arial Narrow" font-weight="normal" font-style="normal" font-size="105.3333" fill="#000000">2024</tspan></text></g></g></g></g><g><g clip-path="url(#clip035)"><g><g transform="matrix(0,-1,1,0,2481.711,1699.836)"><text><tspan x="0" y="0" font-family="Connections Cond Light,Arial Narrow" font-weight="normal" font-style="normal" font-size="105.3333" fill="#000000">2025</tspan></text></g></g></g></g><g><g clip-path="url(#clip036)"><g><g transform="matrix(0,-1,1,0,-43.44399,513.1124)"><text><tspan x="0" y="0" font-family="Connections Cond Light,Arial Narrow" font-weight="normal" font-style="normal" font-size="105.3333" fill="#000000">Thousands</tspan></text></g></g></g></g><g clip-path="url(#clip037)"><g transform="matrix(0.000656168,0,0,0.000656168,310.6667,40)"><path d="M0,0 L2718816,0 L2718816,278384 L0,278384 Z" fill="#4f81bd" fill-opacity="0" fill-rule="evenodd" /></g></g><g clip-path="url(#clip038)"><g transform="matrix(0.000656168,0,0,0.000656168,440,104)"><path d="M0,0 L325120,0 L325120,83312 L0,83312 Z" fill="#012169" fill-rule="evenodd" /></g></g><g><g clip-path="url(#clip039)"><g><g transform="translate(675.4235,160.9405)"><text><tspan x="0" y="0" font-family="Connections Cond Light,Arial Narrow" font-weight="normal" font-style="normal" font-size="105.3333" fill="#000000">CMP ($bn)</tspan></text></g></g></g></g><g clip-path="url(#clip040)"><g transform="matrix(0.000656168,0,0,0.000656168,1198,131.3333)"><path d="M0,0 L325120,1.333333 " stroke-width="33866.67" stroke-linecap="round" stroke-linejoin="round" stroke-miterlimit="13.33333" stroke="#009cde" fill="none" fill-rule="evenodd" /></g></g><g><g clip-path="url(#clip041)"><g><g transform="translate(1434.082,160.9405)"><text><tspan x="0" y="0" font-family="Connections Cond Light,Arial Narrow" font-weight="normal" font-style="normal" font-size="105.3333" fill="#000000">CMP % of WFE</tspan></text></g></g></g></g><g /></g></g></g></g></g></g></g></g></g></svg>