<?xml version="1.0" encoding="UTF-8" standalone="no"?>
<svg xmlns:dc="http://purl.org/dc/elements/1.1/" xmlns:cc="http://creativecommons.org/ns#" xmlns:rdf="http://www.w3.org/1999/02/22-rdf-syntax-ns#" xmlns:svg="http://www.w3.org/2000/svg" xmlns="http://www.w3.org/2000/svg" viewBox="63.13625 368.425 618.01375 315.725" height="315.725" width="618.01375" xml:space="preserve" version="1.1" id="svg2">
  <metadata id="metadata8">
    <rdf:RDF>
      <cc:Work rdf:about="">
        <dc:format>image/svg+xml</dc:format>
        <dc:type rdf:resource="http://purl.org/dc/dcmitype/StillImage"/>
      </cc:Work>
    </rdf:RDF>
  </metadata>
  <defs id="defs6">
    <clipPath id="clipPath16" clipPathUnits="userSpaceOnUse">
      <path style="clip-rule:evenodd" id="path18" d="m 50.4,294.6 494.52,0 0,252.72 -494.52,0 0,-252.72 z"/>
    </clipPath>
    <clipPath id="clipPath26" clipPathUnits="userSpaceOnUse">
      <path style="clip-rule:evenodd" id="path28" d="m 50.4,294.6 494.52,0 0,252.72 -494.52,0 0,-252.72 z"/>
    </clipPath>
    <clipPath id="clipPath74" clipPathUnits="userSpaceOnUse">
      <path style="clip-rule:evenodd" id="path76" d="m 50.52,294.6 494.4,0 0,252.6 -494.4,0 0,-252.6 z"/>
    </clipPath>
    <clipPath id="clipPath88" clipPathUnits="userSpaceOnUse">
      <path style="clip-rule:evenodd" id="path90" d="m 50.52,294.6 494.4,0 0,252.6 -494.4,0 0,-252.6 z"/>
    </clipPath>
    <clipPath id="clipPath102" clipPathUnits="userSpaceOnUse">
      <path style="clip-rule:evenodd" id="path104" d="m 50.52,294.6 494.4,0 0,252.6 -494.4,0 0,-252.6 z"/>
    </clipPath>
    <clipPath id="clipPath116" clipPathUnits="userSpaceOnUse">
      <path style="clip-rule:evenodd" id="path118" d="m 50.52,294.6 494.4,0 0,252.6 -494.4,0 0,-252.6 z"/>
    </clipPath>
    <clipPath id="clipPath130" clipPathUnits="userSpaceOnUse">
      <path style="clip-rule:evenodd" id="path132" d="m 50.52,294.6 494.4,0 0,252.6 -494.4,0 0,-252.6 z"/>
    </clipPath>
    <clipPath id="clipPath144" clipPathUnits="userSpaceOnUse">
      <path style="clip-rule:evenodd" id="path146" d="m 50.52,294.6 494.4,0 0,252.6 -494.4,0 0,-252.6 z"/>
    </clipPath>
    <clipPath id="clipPath158" clipPathUnits="userSpaceOnUse">
      <path style="clip-rule:evenodd" id="path160" d="m 50.52,294.6 494.4,0 0,252.6 -494.4,0 0,-252.6 z"/>
    </clipPath>
    <clipPath id="clipPath172" clipPathUnits="userSpaceOnUse">
      <path style="clip-rule:evenodd" id="path174" d="m 50.52,294.6 494.4,0 0,252.6 -494.4,0 0,-252.6 z"/>
    </clipPath>
    <clipPath id="clipPath184" clipPathUnits="userSpaceOnUse">
      <path style="clip-rule:evenodd" id="path186" d="m 50.52,294.6 494.4,0 0,252.6 -494.4,0 0,-252.6 z"/>
    </clipPath>
    <clipPath id="clipPath196" clipPathUnits="userSpaceOnUse">
      <path style="clip-rule:evenodd" id="path198" d="m 50.52,294.6 494.4,0 0,252.6 -494.4,0 0,-252.6 z"/>
    </clipPath>
    <clipPath id="clipPath208" clipPathUnits="userSpaceOnUse">
      <path style="clip-rule:evenodd" id="path210" d="m 50.52,294.6 494.4,0 0,252.6 -494.4,0 0,-252.6 z"/>
    </clipPath>
    <clipPath id="clipPath220" clipPathUnits="userSpaceOnUse">
      <path style="clip-rule:evenodd" id="path222" d="m 50.52,294.6 494.4,0 0,252.6 -494.4,0 0,-252.6 z"/>
    </clipPath>
    <clipPath id="clipPath232" clipPathUnits="userSpaceOnUse">
      <path style="clip-rule:evenodd" id="path234" d="m 50.52,294.6 494.4,0 0,252.6 -494.4,0 0,-252.6 z"/>
    </clipPath>
    <clipPath id="clipPath244" clipPathUnits="userSpaceOnUse">
      <path style="clip-rule:evenodd" id="path246" d="m 50.52,294.6 494.4,0 0,252.6 -494.4,0 0,-252.6 z"/>
    </clipPath>
    <clipPath id="clipPath256" clipPathUnits="userSpaceOnUse">
      <path style="clip-rule:evenodd" id="path258" d="m 50.52,294.6 494.4,0 0,252.6 -494.4,0 0,-252.6 z"/>
    </clipPath>
    <clipPath id="clipPath268" clipPathUnits="userSpaceOnUse">
      <path style="clip-rule:evenodd" id="path270" d="m 50.52,294.6 494.4,0 0,252.6 -494.4,0 0,-252.6 z"/>
    </clipPath>
    <clipPath id="clipPath280" clipPathUnits="userSpaceOnUse">
      <path style="clip-rule:evenodd" id="path282" d="m 50.52,294.6 494.4,0 0,252.6 -494.4,0 0,-252.6 z"/>
    </clipPath>
    <clipPath id="clipPath292" clipPathUnits="userSpaceOnUse">
      <path style="clip-rule:evenodd" id="path294" d="m 50.52,294.6 494.4,0 0,252.6 -494.4,0 0,-252.6 z"/>
    </clipPath>
    <clipPath id="clipPath308" clipPathUnits="userSpaceOnUse">
      <path style="clip-rule:evenodd" id="path310" d="m 50.52,294.6 494.4,0 0,252.6 -494.4,0 0,-252.6 z"/>
    </clipPath>
  </defs>
  <g transform="matrix(1.25,0,0,-1.25,0,1052.4)" id="g10">
    <g id="g12">
      <g clip-path="url(#clipPath16)" id="g14">
        <path id="path20" style="fill:none;stroke:#000000;stroke-width:0.14;stroke-linecap:butt;stroke-linejoin:miter;stroke-miterlimit:10;stroke-dasharray:none;stroke-opacity:0" d="m 50.579,294.59 494.41,0 0,252.52 -494.41,0 0,-252.52 z"/>
      </g>
    </g>
    <g id="g22">
      <g clip-path="url(#clipPath26)" id="g24">
        <path id="path30" style="fill:#ffffff;fill-opacity:1;fill-rule:evenodd;stroke:none" d="m 50.579,294.59 494.41,0 0,252.52 -494.41,0 0,-252.52 z"/>
      </g>
    </g>
    <path id="path32" style="fill:#ffffff;fill-opacity:1;fill-rule:nonzero;stroke:none" d="m 82.784,333.2 3.256,0 m -3.256,29.53 3.256,0 m -3.256,29.64 3.256,0 m -3.256,29.54 3.256,0 m -3.256,29.65 3.256,0 m -3.256,29.54 3.256,0 m -3.256,29.53 3.256,0 m -3.256,29.62 3.256,0"/>
    <path id="path34" style="fill:#ffffff;fill-opacity:1;fill-rule:evenodd;stroke:none" d="m 61.685,327.5 14.839,0 0,12.522 -14.839,0 0,-12.522 z"/>
    <path id="path36" style="fill:#ffffff;fill-opacity:1;fill-rule:evenodd;stroke:none" d="m 61.685,357.08 14.839,0 0,12.522 -14.839,0 0,-12.522 z"/>
    <path id="path38" style="fill:#ffffff;fill-opacity:1;fill-rule:evenodd;stroke:none" d="m 61.685,386.66 14.839,0 0,12.522 -14.839,0 0,-12.522 z"/>
    <path id="path40" style="fill:#ffffff;fill-opacity:1;fill-rule:evenodd;stroke:none" d="m 61.685,416.24 14.839,0 0,12.522 -14.839,0 0,-12.522 z"/>
    <path id="path42" style="fill:#ffffff;fill-opacity:1;fill-rule:evenodd;stroke:none" d="m 61.685,445.82 14.839,0 0,12.522 -14.839,0 0,-12.522 z"/>
    <path id="path44" style="fill:#ffffff;fill-opacity:1;fill-rule:evenodd;stroke:none" d="m 61.685,475.4 14.839,0 0,12.522 -14.839,0 0,-12.522 z"/>
    <path id="path46" style="fill:#ffffff;fill-opacity:1;fill-rule:evenodd;stroke:none" d="m 61.685,504.98 14.839,0 0,12.522 -14.839,0 0,-12.522 z"/>
    <path id="path48" style="fill:#ffffff;fill-opacity:1;fill-rule:evenodd;stroke:none" d="m 61.685,534.55 14.839,0 0,12.522 -14.839,0 0,-12.522 z"/>
    <path id="path50" style="fill:none;stroke:#808080;stroke-width:0.23309;stroke-linecap:butt;stroke-linejoin:round;stroke-miterlimit:10;stroke-dasharray:none;stroke-opacity:1" d="m 86.04,333.2 437.76,0"/>
    <path id="path52" style="fill:none;stroke:#808080;stroke-width:0.23309;stroke-linecap:butt;stroke-linejoin:round;stroke-miterlimit:10;stroke-dasharray:none;stroke-opacity:1" d="m 86.04,333.2 0,-3.26 m 48.28,3.26 0,-3.26 m 48.22,3.26 0,-3.26 m 48.22,3.26 0,-3.26 m 48.34,3.26 0,-3.26 m 48.22,3.26 0,-3.26 m 48.22,3.26 0,-3.26 m 48.33,3.26 0,-3.26 m 48.22,3.26 0,-3.26 m 48.26,3.26 0,-3.26"/>
    <path id="path54" style="fill:none;stroke:#137cb1;stroke-width:1.86469996;stroke-linecap:round;stroke-linejoin:round;stroke-miterlimit:10;stroke-dasharray:none;stroke-opacity:1" d="m 87.763,526.75 24.177,-61.99 24.06,-27.41 24.16,28.31 24.17,-22.72 24.06,-11.74 24.16,-19.92 24.06,-38.93 24.16,7.83 24.17,-2.69 24.05,9.51 24.17,-3.69 24.17,-13.67 24.05,29.33 24.17,9.96 24.17,-7.83 24.05,9.4 24.18,35.13"/>
    <g id="g56">
      <path id="path58" style="fill:none;stroke:#003366;stroke-width:1.86469996;stroke-linecap:round;stroke-linejoin:round;stroke-miterlimit:10;stroke-dasharray:3.7294, 3.7294;stroke-dashoffset:0;stroke-opacity:1" d="m 87.763,417.51 24.177,0 24.06,0 24.16,0 24.17,0 24.06,0 24.16,0 24.06,0 24.16,0 24.17,0 24.05,0 24.17,0 24.17,0 24.05,0 24.17,0 24.17,0 24.05,0 24.18,0"/>
    </g>
    <g id="g60">
      <path id="path62" style="fill:none;stroke:#a8d7e2;stroke-width:1.86469996;stroke-linecap:round;stroke-linejoin:round;stroke-miterlimit:10;stroke-dasharray:5.5941, 7.4588;stroke-dashoffset:0;stroke-opacity:1" d="m 87.763,376.42 24.177,0 24.06,0 24.16,0 24.17,0 24.06,0 24.16,0 24.06,0 24.16,0 24.17,0 24.05,0 24.17,0 24.17,0 24.05,0 24.17,0 24.17,0 24.05,0 24.18,0"/>
    </g>
    <g id="g64">
      <path id="path66" style="fill:none;stroke:#a8d7e2;stroke-width:1.86469996;stroke-linecap:round;stroke-linejoin:round;stroke-miterlimit:10;stroke-dasharray:5.5941, 7.4588;stroke-dashoffset:0;stroke-opacity:1" d="m 87.763,458.61 24.177,0 24.06,0 24.16,0 24.17,0 24.06,0 24.16,0 24.06,0 24.16,0 24.17,0 24.05,0 24.17,0 24.17,0 24.05,0 24.17,0 24.17,0 24.05,0 24.18,0"/>
    </g>
    <path id="path68" style="fill:#ffffff;fill-opacity:1;fill-rule:evenodd;stroke:none" d="m 61.685,327.5 14.839,0 0,12.522 -14.839,0 0,-12.522 z"/>
    <g id="g70">
      <g clip-path="url(#clipPath74)" id="g72"><text id="text78" style="font-variant:normal;font-weight:normal;font-size:10.29599953px;font-family:Calibri;-inkscape-font-specification:Calibri;writing-mode:lr-tb;fill:#333333;fill-opacity:1;fill-rule:nonzero;stroke:none" transform="matrix(1,0,0,-1,61.704,330.22)"><tspan id="tspan80" y="0" x="0 5.1377039 10.378368">40x</tspan></text>
</g>
    </g>
    <path id="path82" style="fill:#ffffff;fill-opacity:1;fill-rule:evenodd;stroke:none" d="m 61.685,357.08 14.839,0 0,12.522 -14.839,0 0,-12.522 z"/>
    <g id="g84">
      <g clip-path="url(#clipPath88)" id="g86"><text id="text92" style="font-variant:normal;font-weight:normal;font-size:10.29599953px;font-family:Calibri;-inkscape-font-specification:Calibri;writing-mode:lr-tb;fill:#333333;fill-opacity:1;fill-rule:nonzero;stroke:none" transform="matrix(1,0,0,-1,61.704,359.81)"><tspan id="tspan94" y="0" x="0 5.1377039 10.378368">45x</tspan></text>
</g>
    </g>
    <path id="path96" style="fill:#ffffff;fill-opacity:1;fill-rule:evenodd;stroke:none" d="m 61.685,386.66 14.839,0 0,12.522 -14.839,0 0,-12.522 z"/>
    <g id="g98">
      <g clip-path="url(#clipPath102)" id="g100"><text id="text106" style="font-variant:normal;font-weight:normal;font-size:10.27200031px;font-family:Calibri;-inkscape-font-specification:Calibri;writing-mode:lr-tb;fill:#333333;fill-opacity:1;fill-rule:nonzero;stroke:none" transform="matrix(1,0,0,-1,61.704,389.38)"><tspan id="tspan108" y="0" x="0 5.1360002 10.384992">50x</tspan></text>
</g>
    </g>
    <path id="path110" style="fill:#ffffff;fill-opacity:1;fill-rule:evenodd;stroke:none" d="m 61.685,416.24 14.839,0 0,12.522 -14.839,0 0,-12.522 z"/>
    <g id="g112">
      <g clip-path="url(#clipPath116)" id="g114"><text id="text120" style="font-variant:normal;font-weight:normal;font-size:10.29599953px;font-family:Calibri;-inkscape-font-specification:Calibri;writing-mode:lr-tb;fill:#333333;fill-opacity:1;fill-rule:nonzero;stroke:none" transform="matrix(1,0,0,-1,61.704,418.97)"><tspan id="tspan122" y="0" x="0 5.1377039 10.378368">55x</tspan></text>
</g>
    </g>
    <path id="path124" style="fill:#ffffff;fill-opacity:1;fill-rule:evenodd;stroke:none" d="m 61.685,445.82 14.839,0 0,12.522 -14.839,0 0,-12.522 z"/>
    <g id="g126">
      <g clip-path="url(#clipPath130)" id="g128"><text id="text134" style="font-variant:normal;font-weight:normal;font-size:10.29599953px;font-family:Calibri;-inkscape-font-specification:Calibri;writing-mode:lr-tb;fill:#333333;fill-opacity:1;fill-rule:nonzero;stroke:none" transform="matrix(1,0,0,-1,61.704,448.56)"><tspan id="tspan136" y="0" x="0 5.1377039 10.378368">60x</tspan></text>
</g>
    </g>
    <path id="path138" style="fill:#ffffff;fill-opacity:1;fill-rule:evenodd;stroke:none" d="m 61.685,475.4 14.839,0 0,12.522 -14.839,0 0,-12.522 z"/>
    <g id="g140">
      <g clip-path="url(#clipPath144)" id="g142"><text id="text148" style="font-variant:normal;font-weight:normal;font-size:10.29599953px;font-family:Calibri;-inkscape-font-specification:Calibri;writing-mode:lr-tb;fill:#333333;fill-opacity:1;fill-rule:nonzero;stroke:none" transform="matrix(1,0,0,-1,61.704,478.13)"><tspan id="tspan150" y="0" x="0 5.1377039 10.378368">65x</tspan></text>
</g>
    </g>
    <path id="path152" style="fill:#ffffff;fill-opacity:1;fill-rule:evenodd;stroke:none" d="m 61.685,504.98 14.839,0 0,12.522 -14.839,0 0,-12.522 z"/>
    <g id="g154">
      <g clip-path="url(#clipPath158)" id="g156"><text id="text162" style="font-variant:normal;font-weight:normal;font-size:10.29599953px;font-family:Calibri;-inkscape-font-specification:Calibri;writing-mode:lr-tb;fill:#333333;fill-opacity:1;fill-rule:nonzero;stroke:none" transform="matrix(1,0,0,-1,61.704,507.72)"><tspan id="tspan164" y="0" x="0 5.1377039 10.378368">70x</tspan></text>
</g>
    </g>
    <path id="path166" style="fill:#ffffff;fill-opacity:1;fill-rule:evenodd;stroke:none" d="m 61.685,534.55 14.839,0 0,12.522 -14.839,0 0,-12.522 z"/>
    <g id="g168">
      <g clip-path="url(#clipPath172)" id="g170"><text id="text176" style="font-variant:normal;font-weight:normal;font-size:10.27200031px;font-family:Calibri;-inkscape-font-specification:Calibri;writing-mode:lr-tb;fill:#333333;fill-opacity:1;fill-rule:nonzero;stroke:none" transform="matrix(1,0,0,-1,61.704,537.29)"><tspan id="tspan178" y="0" x="0 5.1360002 10.384992">75x</tspan></text>
</g>
    </g>
    <g id="g180">
      <g clip-path="url(#clipPath184)" id="g182"><text id="text188" style="font-variant:normal;font-weight:normal;font-size:10.29599953px;font-family:Calibri;-inkscape-font-specification:Calibri;writing-mode:lr-tb;fill:#333333;fill-opacity:1;fill-rule:nonzero;stroke:none" transform="matrix(1,0,0,-1,75.816,316.87)"><tspan id="tspan190" y="0" x="0 5.1377039 10.378368 13.528944 18.635759">25-12</tspan></text>
</g>
    </g>
    <g id="g192">
      <g clip-path="url(#clipPath196)" id="g194"><text id="text200" style="font-variant:normal;font-weight:normal;font-size:10.29599953px;font-family:Calibri;-inkscape-font-specification:Calibri;writing-mode:lr-tb;fill:#333333;fill-opacity:1;fill-rule:nonzero;stroke:none" transform="matrix(1,0,0,-1,124.08,316.87)"><tspan id="tspan202" y="0" x="0 5.1377039 10.378368 13.528944 18.635759">26-01</tspan></text>
</g>
    </g>
    <g id="g204">
      <g clip-path="url(#clipPath208)" id="g206"><text id="text212" style="font-variant:normal;font-weight:normal;font-size:10.29599953px;font-family:Calibri;-inkscape-font-specification:Calibri;writing-mode:lr-tb;fill:#333333;fill-opacity:1;fill-rule:nonzero;stroke:none" transform="matrix(1,0,0,-1,172.34,316.87)"><tspan id="tspan214" y="0" x="0 5.1377039 10.378368 13.528944 18.656351">26-01</tspan></text>
</g>
    </g>
    <g id="g216">
      <g clip-path="url(#clipPath220)" id="g218"><text id="text224" style="font-variant:normal;font-weight:normal;font-size:10.29599953px;font-family:Calibri;-inkscape-font-specification:Calibri;writing-mode:lr-tb;fill:#333333;fill-opacity:1;fill-rule:nonzero;stroke:none" transform="matrix(1,0,0,-1,220.61,316.87)"><tspan id="tspan226" y="0" x="0 5.1582961 10.39896 13.549536 18.707832">26-01</tspan></text>
</g>
    </g>
    <g id="g228">
      <g clip-path="url(#clipPath232)" id="g230"><text id="text236" style="font-variant:normal;font-weight:normal;font-size:10.29599953px;font-family:Calibri;-inkscape-font-specification:Calibri;writing-mode:lr-tb;fill:#333333;fill-opacity:1;fill-rule:nonzero;stroke:none" transform="matrix(1,0,0,-1,268.87,316.87)"><tspan id="tspan238" y="0" x="0 5.1582961 10.39896 13.549536 18.707832">26-02</tspan></text>
</g>
    </g>
    <g id="g240">
      <g clip-path="url(#clipPath244)" id="g242"><text id="text248" style="font-variant:normal;font-weight:normal;font-size:10.29599953px;font-family:Calibri;-inkscape-font-specification:Calibri;writing-mode:lr-tb;fill:#333333;fill-opacity:1;fill-rule:nonzero;stroke:none" transform="matrix(1,0,0,-1,317.14,316.87)"><tspan id="tspan250" y="0" x="0 5.1582961 10.39896 13.549536 18.707832">26-02</tspan></text>
</g>
    </g>
    <g id="g252">
      <g clip-path="url(#clipPath256)" id="g254"><text id="text260" style="font-variant:normal;font-weight:normal;font-size:10.29599953px;font-family:Calibri;-inkscape-font-specification:Calibri;writing-mode:lr-tb;fill:#333333;fill-opacity:1;fill-rule:nonzero;stroke:none" transform="matrix(1,0,0,-1,365.4,316.87)"><tspan id="tspan262" y="0" x="0 5.1582961 10.39896 13.549536 18.707832">26-03</tspan></text>
</g>
    </g>
    <g id="g264">
      <g clip-path="url(#clipPath268)" id="g266"><text id="text272" style="font-variant:normal;font-weight:normal;font-size:10.29599953px;font-family:Calibri;-inkscape-font-specification:Calibri;writing-mode:lr-tb;fill:#333333;fill-opacity:1;fill-rule:nonzero;stroke:none" transform="matrix(1,0,0,-1,413.66,316.87)"><tspan id="tspan274" y="0" x="0 5.1582961 10.429848 13.580424 18.73872">26-03</tspan></text>
</g>
    </g>
    <g id="g276">
      <g clip-path="url(#clipPath280)" id="g278"><text id="text284" style="font-variant:normal;font-weight:normal;font-size:10.29599953px;font-family:Calibri;-inkscape-font-specification:Calibri;writing-mode:lr-tb;fill:#333333;fill-opacity:1;fill-rule:nonzero;stroke:none" transform="matrix(1,0,0,-1,461.95,316.87)"><tspan id="tspan286" y="0" x="0 5.1377039 10.378368 13.528944 18.635759">26-04</tspan></text>
</g>
    </g>
    <g id="g288">
      <g clip-path="url(#clipPath292)" id="g290"><text id="text296" style="font-variant:normal;font-weight:normal;font-size:10.29599953px;font-family:Calibri;-inkscape-font-specification:Calibri;writing-mode:lr-tb;fill:#333333;fill-opacity:1;fill-rule:nonzero;stroke:none" transform="matrix(1,0,0,-1,510.22,316.87)"><tspan id="tspan298" y="0" x="0 5.1377039 10.378368 13.528944 18.635759">26-04</tspan></text>
</g>
    </g>
    <g id="g300">
      <path id="path302" style="fill:none;stroke:#003366;stroke-width:1.86469996;stroke-linecap:round;stroke-linejoin:round;stroke-miterlimit:10;stroke-dasharray:3.7294, 3.7294;stroke-dashoffset:0;stroke-opacity:1" d="m 239.57,302.94 23.49,0"/>
    </g>
    <g id="g304">
      <g clip-path="url(#clipPath308)" id="g306"><text id="text312" style="font-variant:normal;font-weight:normal;font-size:10.29599953px;font-family:Calibri;-inkscape-font-specification:Calibri;writing-mode:lr-tb;fill:#333333;fill-opacity:1;fill-rule:nonzero;stroke:none" transform="matrix(1,0,0,-1,265.7,299.95)"><tspan id="tspan314" y="0" x="0 8.7310076 13.858416 17.307575 22.239361 27.500616 29.827513 35.253506 40.607426 45.734833 48.885406 53.549496 58.604832 63.536617 67.129921 69.456818 72.597099 77.951019 81.544319 88.90596 93.837746 97.431046 102.79527 105.0295 110.39371 114.30619">MetaX one-year forward P/S</tspan></text>
</g>
    </g>
  </g>
</svg>
