<?xml version="1.0" encoding="UTF-8" standalone="no"?>
<svg xmlns:dc="http://purl.org/dc/elements/1.1/" xmlns:cc="http://creativecommons.org/ns#" xmlns:rdf="http://www.w3.org/1999/02/22-rdf-syntax-ns#" xmlns:svg="http://www.w3.org/2000/svg" xmlns="http://www.w3.org/2000/svg" viewBox="66.37375 465.475 650.63 230.3625" height="230.3625" width="650.63" xml:space="preserve" version="1.1" id="svg2">
  <metadata id="metadata8">
    <rdf:RDF>
      <cc:Work rdf:about="">
        <dc:format>image/svg+xml</dc:format>
        <dc:type rdf:resource="http://purl.org/dc/dcmitype/StillImage"/>
      </cc:Work>
    </rdf:RDF>
  </metadata>
  <defs id="defs6">
    <clipPath id="clipPath16" clipPathUnits="userSpaceOnUse">
      <path style="clip-rule:evenodd" id="path18" d="m 53.053,329.56 520.55,0 0,184.42 -520.55,0 0,-184.42 z"/>
    </clipPath>
    <clipPath id="clipPath26" clipPathUnits="userSpaceOnUse">
      <path style="clip-rule:evenodd" id="path28" d="m 53.053,329.56 520.55,0 0,184.42 -520.55,0 0,-184.42 z"/>
    </clipPath>
    <clipPath id="clipPath66" clipPathUnits="userSpaceOnUse">
      <path style="clip-rule:evenodd" id="path68" d="m 53.179,329.56 520.42,0 0,184.29 -520.42,0 0,-184.29 z"/>
    </clipPath>
    <clipPath id="clipPath78" clipPathUnits="userSpaceOnUse">
      <path style="clip-rule:evenodd" id="path80" d="m 53.179,329.56 520.42,0 0,184.29 -520.42,0 0,-184.29 z"/>
    </clipPath>
    <clipPath id="clipPath90" clipPathUnits="userSpaceOnUse">
      <path style="clip-rule:evenodd" id="path92" d="m 53.179,329.56 520.42,0 0,184.29 -520.42,0 0,-184.29 z"/>
    </clipPath>
    <clipPath id="clipPath102" clipPathUnits="userSpaceOnUse">
      <path style="clip-rule:evenodd" id="path104" d="m 53.179,329.56 520.42,0 0,184.29 -520.42,0 0,-184.29 z"/>
    </clipPath>
    <clipPath id="clipPath114" clipPathUnits="userSpaceOnUse">
      <path style="clip-rule:evenodd" id="path116" d="m 53.179,329.56 520.42,0 0,184.29 -520.42,0 0,-184.29 z"/>
    </clipPath>
    <clipPath id="clipPath126" clipPathUnits="userSpaceOnUse">
      <path style="clip-rule:evenodd" id="path128" d="m 53.179,329.56 520.42,0 0,184.29 -520.42,0 0,-184.29 z"/>
    </clipPath>
    <clipPath id="clipPath138" clipPathUnits="userSpaceOnUse">
      <path style="clip-rule:evenodd" id="path140" d="m 53.179,329.56 520.42,0 0,184.29 -520.42,0 0,-184.29 z"/>
    </clipPath>
    <clipPath id="clipPath150" clipPathUnits="userSpaceOnUse">
      <path style="clip-rule:evenodd" id="path152" d="m 53.179,329.56 520.42,0 0,184.29 -520.42,0 0,-184.29 z"/>
    </clipPath>
    <clipPath id="clipPath162" clipPathUnits="userSpaceOnUse">
      <path style="clip-rule:evenodd" id="path164" d="m 53.179,329.56 520.42,0 0,184.29 -520.42,0 0,-184.29 z"/>
    </clipPath>
    <clipPath id="clipPath174" clipPathUnits="userSpaceOnUse">
      <path style="clip-rule:evenodd" id="path176" d="m 53.179,329.56 520.42,0 0,184.29 -520.42,0 0,-184.29 z"/>
    </clipPath>
    <clipPath id="clipPath186" clipPathUnits="userSpaceOnUse">
      <path style="clip-rule:evenodd" id="path188" d="m 53.179,329.56 520.42,0 0,184.29 -520.42,0 0,-184.29 z"/>
    </clipPath>
    <clipPath id="clipPath198" clipPathUnits="userSpaceOnUse">
      <path style="clip-rule:evenodd" id="path200" d="m 53.179,329.56 520.42,0 0,184.29 -520.42,0 0,-184.29 z"/>
    </clipPath>
    <clipPath id="clipPath210" clipPathUnits="userSpaceOnUse">
      <path style="clip-rule:evenodd" id="path212" d="m 53.179,329.56 520.42,0 0,184.29 -520.42,0 0,-184.29 z"/>
    </clipPath>
    <clipPath id="clipPath222" clipPathUnits="userSpaceOnUse">
      <path style="clip-rule:evenodd" id="path224" d="m 53.179,329.56 520.42,0 0,184.29 -520.42,0 0,-184.29 z"/>
    </clipPath>
    <clipPath id="clipPath234" clipPathUnits="userSpaceOnUse">
      <path style="clip-rule:evenodd" id="path236" d="m 53.179,329.56 520.42,0 0,184.29 -520.42,0 0,-184.29 z"/>
    </clipPath>
    <clipPath id="clipPath246" clipPathUnits="userSpaceOnUse">
      <path style="clip-rule:evenodd" id="path248" d="m 53.179,329.56 520.42,0 0,184.29 -520.42,0 0,-184.29 z"/>
    </clipPath>
    <clipPath id="clipPath258" clipPathUnits="userSpaceOnUse">
      <path style="clip-rule:evenodd" id="path260" d="m 53.179,329.56 520.42,0 0,184.29 -520.42,0 0,-184.29 z"/>
    </clipPath>
    <clipPath id="clipPath270" clipPathUnits="userSpaceOnUse">
      <path style="clip-rule:evenodd" id="path272" d="m 53.179,329.56 520.42,0 0,184.29 -520.42,0 0,-184.29 z"/>
    </clipPath>
    <clipPath id="clipPath282" clipPathUnits="userSpaceOnUse">
      <path style="clip-rule:evenodd" id="path284" d="m 53.179,329.56 520.42,0 0,184.29 -520.42,0 0,-184.29 z"/>
    </clipPath>
    <clipPath id="clipPath294" clipPathUnits="userSpaceOnUse">
      <path style="clip-rule:evenodd" id="path296" d="m 53.179,329.56 520.42,0 0,184.29 -520.42,0 0,-184.29 z"/>
    </clipPath>
    <clipPath id="clipPath306" clipPathUnits="userSpaceOnUse">
      <path style="clip-rule:evenodd" id="path308" d="m 53.179,329.56 520.42,0 0,184.29 -520.42,0 0,-184.29 z"/>
    </clipPath>
    <clipPath id="clipPath318" clipPathUnits="userSpaceOnUse">
      <path style="clip-rule:evenodd" id="path320" d="m 53.179,329.56 520.42,0 0,184.29 -520.42,0 0,-184.29 z"/>
    </clipPath>
    <clipPath id="clipPath330" clipPathUnits="userSpaceOnUse">
      <path style="clip-rule:evenodd" id="path332" d="m 53.179,329.56 520.42,0 0,184.29 -520.42,0 0,-184.29 z"/>
    </clipPath>
    <clipPath id="clipPath342" clipPathUnits="userSpaceOnUse">
      <path style="clip-rule:evenodd" id="path344" d="m 53.179,329.56 520.42,0 0,184.29 -520.42,0 0,-184.29 z"/>
    </clipPath>
    <clipPath id="clipPath354" clipPathUnits="userSpaceOnUse">
      <path style="clip-rule:evenodd" id="path356" d="m 53.179,329.56 520.42,0 0,184.29 -520.42,0 0,-184.29 z"/>
    </clipPath>
    <clipPath id="clipPath366" clipPathUnits="userSpaceOnUse">
      <path style="clip-rule:evenodd" id="path368" d="m 53.179,329.56 520.42,0 0,184.29 -520.42,0 0,-184.29 z"/>
    </clipPath>
    <clipPath id="clipPath378" clipPathUnits="userSpaceOnUse">
      <path style="clip-rule:evenodd" id="path380" d="m 53.179,329.56 520.42,0 0,184.29 -520.42,0 0,-184.29 z"/>
    </clipPath>
    <clipPath id="clipPath390" clipPathUnits="userSpaceOnUse">
      <path style="clip-rule:evenodd" id="path392" d="m 53.179,329.56 520.42,0 0,184.29 -520.42,0 0,-184.29 z"/>
    </clipPath>
    <clipPath id="clipPath402" clipPathUnits="userSpaceOnUse">
      <path style="clip-rule:evenodd" id="path404" d="m 53.179,329.56 520.42,0 0,184.29 -520.42,0 0,-184.29 z"/>
    </clipPath>
    <clipPath id="clipPath414" clipPathUnits="userSpaceOnUse">
      <path style="clip-rule:evenodd" id="path416" d="m 53.179,329.56 520.42,0 0,184.29 -520.42,0 0,-184.29 z"/>
    </clipPath>
    <clipPath id="clipPath434" clipPathUnits="userSpaceOnUse">
      <path style="clip-rule:evenodd" id="path436" d="m 53.095,329.56 520.5,0 0,184.3 -520.5,0 0,-184.3 z"/>
    </clipPath>
    <clipPath id="clipPath444" clipPathUnits="userSpaceOnUse">
      <path style="clip-rule:evenodd" id="path446" d="m 53.179,329.56 520.42,0 0,184.29 -520.42,0 0,-184.29 z"/>
    </clipPath>
    <clipPath id="clipPath458" clipPathUnits="userSpaceOnUse">
      <path style="clip-rule:evenodd" id="path460" d="m 53.179,329.56 520.42,0 0,184.29 -520.42,0 0,-184.29 z"/>
    </clipPath>
  </defs>
  <g transform="matrix(1.25,0,0,-1.25,0,1107.7875)" id="g10">
    <g id="g12">
      <g clip-path="url(#clipPath16)" id="g14">
        <path id="path20" style="fill:none;stroke:#000000;stroke-width:0.14;stroke-linecap:butt;stroke-linejoin:miter;stroke-miterlimit:10;stroke-dasharray:none;stroke-opacity:0" d="m 53.169,329.48 520.55,0 0,184.3 -520.55,0 0,-184.3 z"/>
      </g>
    </g>
    <g id="g22">
      <g clip-path="url(#clipPath26)" id="g24">
        <path id="path30" style="fill:#ffffff;fill-opacity:1;fill-rule:evenodd;stroke:none" d="m 53.169,329.48 520.55,0 0,184.3 -520.55,0 0,-184.3 z"/>
      </g>
    </g>
    <path id="path32" style="fill:#dceff3;fill-opacity:1;fill-rule:evenodd;stroke:none" d="m 190.26,357.98 9.5508,0 0,24.808 -9.5508,0 0,-24.808 z"/>
    <path id="path34" style="fill:#dceff3;fill-opacity:1;fill-rule:evenodd;stroke:none" d="m 220.72,357.98 9.5508,0 0,72.357 -9.5508,0 0,-72.357 z"/>
    <path id="path36" style="fill:#dceff3;fill-opacity:1;fill-rule:evenodd;stroke:none" d="m 251.19,357.98 9.5508,0 0,62.617 -9.5508,0 0,-62.617 z"/>
    <path id="path38" style="fill:#dceff3;fill-opacity:1;fill-rule:evenodd;stroke:none" d="m 281.66,357.98 9.5508,0 0,75.372 -9.5508,0 0,-75.372 z"/>
    <path id="path40" style="fill:#eacc80;fill-opacity:1;fill-rule:evenodd;stroke:none" d="m 312.12,357.98 9.5508,0 0,31.01 -9.5508,0 0,-31.01 z"/>
    <path id="path42" style="fill:#eacc80;fill-opacity:1;fill-rule:evenodd;stroke:none" d="m 342.59,357.98 9.5508,0 0,59.635 -9.5508,0 0,-59.635 z"/>
    <path id="path44" style="fill:#e58061;fill-opacity:1;fill-rule:evenodd;stroke:none" d="m 373.06,357.98 9.5508,0 0,16.539 -9.5508,0 0,-16.539 z"/>
    <path id="path46" style="fill:#e58061;fill-opacity:1;fill-rule:evenodd;stroke:none" d="m 403.53,357.98 9.5508,0 0,81.833 -9.5508,0 0,-81.833 z"/>
    <path id="path48" style="fill:#bce3a1;fill-opacity:1;fill-rule:evenodd;stroke:none" d="m 433.99,357.98 9.5508,0 0,99.392 -9.5508,0 0,-99.392 z"/>
    <path id="path50" style="fill:#87cd56;fill-opacity:1;fill-rule:evenodd;stroke:none" d="m 464.46,357.98 9.5508,0 0,60.298 -9.5508,0 0,-60.298 z"/>
    <path id="path52" style="fill:#9b771a;fill-opacity:1;fill-rule:evenodd;stroke:none" d="m 494.93,357.98 9.5508,0 0,54.44 -9.5508,0 0,-54.44 z"/>
    <path id="path54" style="fill:#137cb1;fill-opacity:1;fill-rule:nonzero;stroke:none" d="m 98.851,431.78 9.569,0 0,-73.8 -9.569,0 0,73.8 z m 30.489,0 9.57,0 0,-73.8 -9.57,0 0,73.8 z m 30.42,33.9 9.57,0 0,-107.7 -9.57,0 0,107.7 z"/>
    <path id="path56" style="fill:none;stroke:#d9d9d9;stroke-width:0.44053;stroke-linecap:butt;stroke-linejoin:round;stroke-miterlimit:10;stroke-dasharray:none;stroke-opacity:1" d="m 88.398,357.98 426.542,0"/>
    <path id="path58" style="fill:none;stroke:#d9d9d9;stroke-width:0.44053;stroke-linecap:butt;stroke-linejoin:round;stroke-miterlimit:10;stroke-dasharray:none;stroke-opacity:1" d="m 88.398,357.98 0,-10.2 m 91.392,10.2 0,-10.2 m 121.88,10.2 0,-10.2 m 60.91,10.2 0,-10.2 m 60.98,10.2 0,-10.2 m 30.41,10.2 0,-10.2 m 30.49,10.2 0,-10.2 m 30.48,10.2 0,-10.2"/>
    <path id="path60" style="fill:none;stroke:#d9d9d9;stroke-width:0.44053;stroke-linecap:butt;stroke-linejoin:round;stroke-miterlimit:10;stroke-dasharray:none;stroke-opacity:1" d="m 88.398,347.78 0,-10.21 m 91.392,10.21 0,-10.21 m 121.88,10.21 0,-10.21 m 60.91,10.21 0,-10.21 m 60.98,10.21 0,-10.21 m 30.41,10.21 0,-10.21 m 30.49,10.21 0,-10.21 m 30.48,10.21 0,-10.21"/>
    <g id="g62">
      <g clip-path="url(#clipPath66)" id="g64"><text id="text70" style="font-variant:normal;font-weight:normal;font-size:5.28420019px;font-family:'Aptos Narrow';-inkscape-font-specification:'Aptos Narrow';writing-mode:lr-tb;fill:#595959;fill-opacity:1;fill-rule:nonzero;stroke:none" transform="matrix(1,0,0,-1,74.105,356.46)"><tspan id="tspan72" y="0" x="0 2.6790893 4.0794024 6.758492">0.00</tspan></text>
</g>
    </g>
    <g id="g74">
      <g clip-path="url(#clipPath78)" id="g76"><text id="text82" style="font-variant:normal;font-weight:normal;font-size:5.26319981px;font-family:'Aptos Narrow';-inkscape-font-specification:'Aptos Narrow';writing-mode:lr-tb;fill:#595959;fill-opacity:1;fill-rule:nonzero;stroke:none" transform="matrix(1,0,0,-1,74.105,374.91)"><tspan id="tspan84" y="0" x="0 2.6684425 4.07898 6.7474222">0.02</tspan></text>
</g>
    </g>
    <g id="g86">
      <g clip-path="url(#clipPath90)" id="g88"><text id="text94" style="font-variant:normal;font-weight:normal;font-size:5.26319981px;font-family:'Aptos Narrow';-inkscape-font-specification:'Aptos Narrow';writing-mode:lr-tb;fill:#595959;fill-opacity:1;fill-rule:nonzero;stroke:none" transform="matrix(1,0,0,-1,74.105,393.37)"><tspan id="tspan96" y="0" x="0 2.6684425 4.07898 6.7474222">0.04</tspan></text>
</g>
    </g>
    <g id="g98">
      <g clip-path="url(#clipPath102)" id="g100"><text id="text106" style="font-variant:normal;font-weight:normal;font-size:5.26319981px;font-family:'Aptos Narrow';-inkscape-font-specification:'Aptos Narrow';writing-mode:lr-tb;fill:#595959;fill-opacity:1;fill-rule:nonzero;stroke:none" transform="matrix(1,0,0,-1,74.105,411.83)"><tspan id="tspan108" y="0" x="0 2.6684425 4.07898 6.7474222">0.06</tspan></text>
</g>
    </g>
    <g id="g110">
      <g clip-path="url(#clipPath114)" id="g112"><text id="text118" style="font-variant:normal;font-weight:normal;font-size:5.26319981px;font-family:'Aptos Narrow';-inkscape-font-specification:'Aptos Narrow';writing-mode:lr-tb;fill:#595959;fill-opacity:1;fill-rule:nonzero;stroke:none" transform="matrix(1,0,0,-1,74.105,430.29)"><tspan id="tspan120" y="0" x="0 2.6684425 4.07898 6.7474222">0.08</tspan></text>
</g>
    </g>
    <g id="g122">
      <g clip-path="url(#clipPath126)" id="g124"><text id="text130" style="font-variant:normal;font-weight:normal;font-size:5.26319981px;font-family:'Aptos Narrow';-inkscape-font-specification:'Aptos Narrow';writing-mode:lr-tb;fill:#595959;fill-opacity:1;fill-rule:nonzero;stroke:none" transform="matrix(1,0,0,-1,74.105,448.76)"><tspan id="tspan132" y="0" x="0 2.6684425 4.07898 6.7474222">0.10</tspan></text>
</g>
    </g>
    <g id="g134">
      <g clip-path="url(#clipPath138)" id="g136"><text id="text142" style="font-variant:normal;font-weight:normal;font-size:5.26319981px;font-family:'Aptos Narrow';-inkscape-font-specification:'Aptos Narrow';writing-mode:lr-tb;fill:#595959;fill-opacity:1;fill-rule:nonzero;stroke:none" transform="matrix(1,0,0,-1,74.105,467.22)"><tspan id="tspan144" y="0" x="0 2.6684425 4.07898 6.7474222">0.12</tspan></text>
</g>
    </g>
    <g id="g146">
      <g clip-path="url(#clipPath150)" id="g148"><text id="text154" style="font-variant:normal;font-weight:normal;font-size:5.26319981px;font-family:'Aptos Narrow';-inkscape-font-specification:'Aptos Narrow';writing-mode:lr-tb;fill:#595959;fill-opacity:1;fill-rule:nonzero;stroke:none" transform="matrix(1,0,0,-1,74.105,485.68)"><tspan id="tspan156" y="0" x="0 2.6684425 4.07898 6.7474222">0.14</tspan></text>
</g>
    </g>
    <g id="g158">
      <g clip-path="url(#clipPath162)" id="g160"><text id="text166" style="font-variant:normal;font-weight:normal;font-size:5.26319981px;font-family:'Aptos Narrow';-inkscape-font-specification:'Aptos Narrow';writing-mode:lr-tb;fill:#595959;fill-opacity:1;fill-rule:nonzero;stroke:none" transform="matrix(1,0,0,-1,98.168,349.62)"><tspan id="tspan168" y="0" x="0 2.6737025 5.347405 8.0211077">910B</tspan></text>
</g>
    </g>
    <g id="g170">
      <g clip-path="url(#clipPath174)" id="g172"><text id="text178" style="font-variant:normal;font-weight:normal;font-size:5.26319981px;font-family:'Aptos Narrow';-inkscape-font-specification:'Aptos Narrow';writing-mode:lr-tb;fill:#595959;fill-opacity:1;fill-rule:nonzero;stroke:none" transform="matrix(1,0,0,-1,128.42,349.62)"><tspan id="tspan180" y="0" x="0 2.6737025 5.347405 8.0211077">910C</tspan></text>
</g>
    </g>
    <g id="g182">
      <g clip-path="url(#clipPath186)" id="g184"><text id="text190" style="font-variant:normal;font-weight:normal;font-size:5.26319981px;font-family:'Aptos Narrow';-inkscape-font-specification:'Aptos Narrow';writing-mode:lr-tb;fill:#595959;fill-opacity:1;fill-rule:nonzero;stroke:none" transform="matrix(1,0,0,-1,156.4,349.62)"><tspan id="tspan192" y="0" x="0 2.6526527 5.3053055 7.9579582 10.77377 13.736952">950PR*</tspan></text>
</g>
    </g>
    <g id="g194">
      <g clip-path="url(#clipPath198)" id="g196"><text id="text202" style="font-variant:normal;font-weight:normal;font-size:5.26319981px;font-family:'Aptos Narrow';-inkscape-font-specification:'Aptos Narrow';writing-mode:lr-tb;fill:#595959;fill-opacity:1;fill-rule:nonzero;stroke:none" transform="matrix(1,0,0,-1,185.79,349.62)"><tspan id="tspan204" y="0" x="0 3.8000305 6.2474184 9.5158653 10.55798 13.226421 15.894864">MLU 370</tspan></text>
</g>
    </g>
    <g id="g206">
      <g clip-path="url(#clipPath210)" id="g208"><text id="text214" style="font-variant:normal;font-weight:normal;font-size:5.26319981px;font-family:'Aptos Narrow';-inkscape-font-specification:'Aptos Narrow';writing-mode:lr-tb;fill:#595959;fill-opacity:1;fill-rule:nonzero;stroke:none" transform="matrix(1,0,0,-1,214.95,349.62)"><tspan id="tspan216" y="0" x="0 3.8000305 6.2263656 9.494813 10.536926 13.205369 15.873811 18.542253">MLU 580*</tspan></text>
</g>
    </g>
    <g id="g218">
      <g clip-path="url(#clipPath222)" id="g220"><text id="text226" style="font-variant:normal;font-weight:normal;font-size:5.26319981px;font-family:'Aptos Narrow';-inkscape-font-specification:'Aptos Narrow';writing-mode:lr-tb;fill:#595959;fill-opacity:1;fill-rule:nonzero;stroke:none" transform="matrix(1,0,0,-1,245.43,349.62)"><tspan id="tspan228" y="0" x="0 3.7684512 6.2053127 9.4737597 10.494821 13.163263 15.831706 18.500149">MLU 590*</tspan></text>
</g>
    </g>
    <g id="g230">
      <g clip-path="url(#clipPath234)" id="g232"><text id="text238" style="font-variant:normal;font-weight:normal;font-size:5.26319981px;font-family:'Aptos Narrow';-inkscape-font-specification:'Aptos Narrow';writing-mode:lr-tb;fill:#595959;fill-opacity:1;fill-rule:nonzero;stroke:none" transform="matrix(1,0,0,-1,275.89,349.62)"><tspan id="tspan240" y="0" x="0 3.8000305 6.2263656 9.494813 10.536926 13.205369 15.873811 18.542253">MLU 690*</tspan></text>
</g>
    </g>
    <g id="g242">
      <g clip-path="url(#clipPath246)" id="g244"><text id="text250" style="font-variant:normal;font-weight:normal;font-size:5.26319981px;font-family:'Aptos Narrow';-inkscape-font-specification:'Aptos Narrow';writing-mode:lr-tb;fill:#595959;fill-opacity:1;fill-rule:nonzero;stroke:none" transform="matrix(1,0,0,-1,311.26,349.62)"><tspan id="tspan252" y="0" x="0 3.3421321 6.0105743 8.6790171">C500</tspan></text>
</g>
    </g>
    <g id="g254">
      <g clip-path="url(#clipPath258)" id="g256"><text id="text262" style="font-variant:normal;font-weight:normal;font-size:5.26319981px;font-family:'Aptos Narrow';-inkscape-font-specification:'Aptos Narrow';writing-mode:lr-tb;fill:#595959;fill-opacity:1;fill-rule:nonzero;stroke:none" transform="matrix(1,0,0,-1,340.42,349.62)"><tspan id="tspan264" y="0" x="0 3.3421321 6.0105743 8.6790171 11.347459">C600*</tspan></text>
</g>
    </g>
    <g id="g266">
      <g clip-path="url(#clipPath270)" id="g268"><text id="text274" style="font-variant:normal;font-weight:normal;font-size:5.26319981px;font-family:'Aptos Narrow';-inkscape-font-specification:'Aptos Narrow';writing-mode:lr-tb;fill:#595959;fill-opacity:1;fill-rule:nonzero;stroke:none" transform="matrix(1,0,0,-1,368.25,349.62)"><tspan id="tspan276" y="0" x="0 2.9105496 4.2474022 5.8842578 8.6421747 11.310616 14.068534 16.736977">BI-V100*</tspan></text>
</g>
    </g>
    <g id="g278">
      <g clip-path="url(#clipPath282)" id="g280"><text id="text286" style="font-variant:normal;font-weight:normal;font-size:5.26319981px;font-family:'Aptos Narrow';-inkscape-font-specification:'Aptos Narrow';writing-mode:lr-tb;fill:#595959;fill-opacity:1;fill-rule:nonzero;stroke:none" transform="matrix(1,0,0,-1,398.74,349.62)"><tspan id="tspan288" y="0" x="0 2.8842337 4.205297 5.815836 8.5632267 11.215879 13.94748 16.600132">BI-V200*</tspan></text>
</g>
    </g>
    <g id="g290">
      <g clip-path="url(#clipPath294)" id="g292"><text id="text298" style="font-variant:normal;font-weight:normal;font-size:5.26319981px;font-family:'Aptos Narrow';-inkscape-font-specification:'Aptos Narrow';writing-mode:lr-tb;fill:#595959;fill-opacity:1;fill-rule:nonzero;stroke:none" transform="matrix(1,0,0,-1,430.8,349.62)"><tspan id="tspan300" y="0" x="0 2.7526536 5.4210958 8.0895386 10.75798 13.442213">S5000*</tspan></text>
</g>
    </g>
    <g id="g302">
      <g clip-path="url(#clipPath306)" id="g304"><text id="text310" style="font-variant:normal;font-weight:normal;font-size:5.26319981px;font-family:'Aptos Narrow';-inkscape-font-specification:'Aptos Narrow';writing-mode:lr-tb;fill:#595959;fill-opacity:1;fill-rule:nonzero;stroke:none" transform="matrix(1,0,0,-1,463.58,349.62)"><tspan id="tspan312" y="0" x="0 2.8158121 5.5526762 8.8737555">PPU*</tspan></text>
</g>
    </g>
    <g id="g314">
      <g clip-path="url(#clipPath318)" id="g316"><text id="text322" style="font-variant:normal;font-weight:normal;font-size:5.26319981px;font-family:'Aptos Narrow';-inkscape-font-specification:'Aptos Narrow';writing-mode:lr-tb;fill:#595959;fill-opacity:1;fill-rule:nonzero;stroke:none" transform="matrix(1,0,0,-1,493.07,349.62)"><tspan id="tspan324" y="0" x="0 2.8158121 5.4842544 8.1526966 10.821139">P800*</tspan></text>
</g>
    </g>
    <g id="g326">
      <g clip-path="url(#clipPath330)" id="g328"><text id="text334" style="font-variant:normal;font-weight:normal;font-size:5.28420019px;font-family:'Aptos Narrow';-inkscape-font-specification:'Aptos Narrow';writing-mode:lr-tb;fill:#595959;fill-opacity:1;fill-rule:nonzero;stroke:none" transform="matrix(1,0,0,-1,117.83,339.43)"><tspan id="tspan336" y="0" x="0 3.4135933 6.0821142 8.6872244 12.174797 14.700644 15.894874 16.941145 19.762909 22.056252 24.661362 27.187208 29.866299">Huawei Ascend</tspan></text>
</g>
    </g>
    <g id="g338">
      <g clip-path="url(#clipPath342)" id="g340"><text id="text346" style="font-variant:normal;font-weight:normal;font-size:5.28420019px;font-family:'Aptos Narrow';-inkscape-font-specification:'Aptos Narrow';writing-mode:lr-tb;fill:#595959;fill-opacity:1;fill-rule:nonzero;stroke:none" transform="matrix(1,0,0,-1,229.03,339.43)"><tspan id="tspan348" y="0" x="0 3.3448987 5.9341564 10.076969 12.756059 14.388877 15.572537 18.108953 20.777473">Cambricon</tspan></text>
</g>
    </g>
    <g id="g350">
      <g clip-path="url(#clipPath354)" id="g352"><text id="text358" style="font-variant:normal;font-weight:normal;font-size:5.28420019px;font-family:'Aptos Narrow';-inkscape-font-specification:'Aptos Narrow';writing-mode:lr-tb;fill:#595959;fill-opacity:1;fill-rule:nonzero;stroke:none" transform="matrix(1,0,0,-1,325.6,339.43)"><tspan id="tspan360" y="0" x="0 3.7887714 6.372745 7.9368682 10.510274">MetaX</tspan></text>
</g>
    </g>
    <g id="g362">
      <g clip-path="url(#clipPath366)" id="g364"><text id="text370" style="font-variant:normal;font-weight:normal;font-size:5.28420019px;font-family:'Aptos Narrow';-inkscape-font-specification:'Aptos Narrow';writing-mode:lr-tb;fill:#595959;fill-opacity:1;fill-rule:nonzero;stroke:none" transform="matrix(1,0,0,-1,384.59,339.43)"><tspan id="tspan372" y="0" x="0 1.2629238 2.6051106 3.8680344 6.5418396 8.7664881 11.292336 12.930437 15.456285">Illuvatar</tspan></text>
</g>
    </g>
    <g id="g374">
      <g clip-path="url(#clipPath378)" id="g376"><text id="text382" style="font-variant:normal;font-weight:normal;font-size:5.28420019px;font-family:'Aptos Narrow';-inkscape-font-specification:'Aptos Narrow';writing-mode:lr-tb;fill:#595959;fill-opacity:1;fill-rule:nonzero;stroke:none" transform="matrix(1,0,0,-1,424.93,339.43)"><tspan id="tspan384" y="0" x="0 3.7887714 6.4572926 9.1258135 10.774484 13.379595 15.683506 18.362595 19.995413 22.616377 25.221487">MooreThread</tspan></text>
</g>
    </g>
    <g id="g386">
      <g clip-path="url(#clipPath390)" id="g388"><text id="text394" style="font-variant:normal;font-weight:normal;font-size:5.28420019px;font-family:'Aptos Narrow';-inkscape-font-specification:'Aptos Narrow';writing-mode:lr-tb;fill:#595959;fill-opacity:1;fill-rule:nonzero;stroke:none" transform="matrix(1,0,0,-1,460.4,339.43)"><tspan id="tspan396" y="0" x="0 2.3039112 3.9525816 7.3767433 9.9818535 12.507702 15.26077">T-Head*</tspan></text>
</g>
    </g>
    <g id="g398">
      <g clip-path="url(#clipPath402)" id="g400"><text id="text406" style="font-variant:normal;font-weight:normal;font-size:5.28420019px;font-family:'Aptos Narrow';-inkscape-font-specification:'Aptos Narrow';writing-mode:lr-tb;fill:#595959;fill-opacity:1;fill-rule:nonzero;stroke:none" transform="matrix(1,0,0,-1,491.09,339.43)"><tspan id="tspan408" y="0" x="0 2.7372155 5.4691472 8.1218157 9.3847389 12.037408 14.690076">Kunlun*</tspan></text>
</g>
    </g>
    <g id="g410">
      <g clip-path="url(#clipPath414)" id="g412"><text id="text418" style="font-variant:normal;font-weight:normal;font-size:8.25259972px;font-family:'Aptos Narrow';-inkscape-font-specification:'Aptos Narrow';writing-mode:lr-tb;fill:#595959;fill-opacity:1;fill-rule:nonzero;stroke:none" transform="matrix(1,0,0,-1,283.47,501.62)"><tspan id="tspan420" y="0" x="0 4.0850372 8.0875483 10.612844 12.841045 17.008608 19.517399 25.987438 29.981695 34.132755 38.094002 42.071754 44.59705 49.820946 53.947247 57.504116">Performance/Cost</tspan></text>
</g>
    </g>
    <g id="g422">
      <path id="path424" style="fill:none;stroke:#e58061;stroke-width:1.76209998;stroke-linecap:butt;stroke-linejoin:miter;stroke-miterlimit:8;stroke-dasharray:1.7621, 1.7621;stroke-dashoffset:0;stroke-opacity:1" d="m 91.935,396.74 420.435,2.03"/>
    </g>
    <g id="g426">
      <path id="path428" style="fill:none;stroke:#eacc80;stroke-width:1.76209998;stroke-linecap:butt;stroke-linejoin:miter;stroke-miterlimit:8;stroke-dasharray:1.7621, 1.7621;stroke-dashoffset:0;stroke-opacity:1" d="m 88.817,479.32 420.193,0.95"/>
    </g>
    <g id="g430">
      <g clip-path="url(#clipPath434)" id="g432">
        <path id="path438" style="fill:#ffffff;fill-opacity:1;fill-rule:evenodd;stroke:none" d="m 515.24,390.74 58.478,0 0,15.059 -58.478,0 0,-15.059 z"/>
      </g>
    </g>
    <g id="g440">
      <g clip-path="url(#clipPath444)" id="g442"><text id="text448" style="font-variant:normal;font-weight:bold;font-size:6.46320009px;font-family:'Aptos Narrow';-inkscape-font-specification:'Aptos Narrow Bold';writing-mode:lr-tb;fill:#e58061;fill-opacity:1;fill-rule:nonzero;stroke:none" transform="matrix(1,0,0,-1,519.58,397.54)"><tspan id="tspan450" y="0" x="0 4.1493745 7.6976714 11.788877 15.33071 16.500549 20.074699 23.332151 26.608994">NVDA A100</tspan></text>
</g>
    </g>
    <path id="path452" style="fill:#ffffff;fill-opacity:1;fill-rule:evenodd;stroke:none" d="m 511.88,471.59 57.916,0 0,15.057 -57.916,0 0,-15.057 z"/>
    <g id="g454">
      <g clip-path="url(#clipPath458)" id="g456"><text id="text462" style="font-variant:normal;font-weight:bold;font-size:6.46320009px;font-family:'Aptos Narrow';-inkscape-font-specification:'Aptos Narrow Bold';writing-mode:lr-tb;fill:#eacc80;fill-opacity:1;fill-rule:nonzero;stroke:none" transform="matrix(1,0,0,-1,516.21,478.4)"><tspan id="tspan464" y="0" x="0 4.1493745 7.6976714 11.788877 15.363027 16.532866 20.753336 24.030178 27.28763">NVDA H200</tspan></text>
</g>
    </g>
  </g>
</svg>
