<?xml version="1.0" encoding="UTF-8" standalone="no"?>
<svg xmlns:dc="http://purl.org/dc/elements/1.1/" xmlns:cc="http://creativecommons.org/ns#" xmlns:rdf="http://www.w3.org/1999/02/22-rdf-syntax-ns#" xmlns:svg="http://www.w3.org/2000/svg" xmlns="http://www.w3.org/2000/svg" viewBox="16.35 15.15 1131 733.35" height="733.35" width="1131" xml:space="preserve" version="1.1" id="svg2">
  <metadata id="metadata8">
    <rdf:RDF>
      <cc:Work rdf:about="">
        <dc:format>image/svg+xml</dc:format>
        <dc:type rdf:resource="http://purl.org/dc/dcmitype/StillImage"/>
      </cc:Work>
    </rdf:RDF>
  </metadata>
  <defs id="defs6">
    <clipPath id="clipPath16" clipPathUnits="userSpaceOnUse">
      <path style="clip-rule:evenodd" id="path18" d="m 13.92,13.2 903.96,0 0,585.84 -903.96,0 0,-585.84 z"/>
    </clipPath>
    <clipPath id="clipPath26" clipPathUnits="userSpaceOnUse">
      <path style="clip-rule:evenodd" id="path28" d="m 13.92,557.88 903.96,0 0,41.16 -903.96,0 0,-41.16 z"/>
    </clipPath>
    <clipPath id="clipPath38" clipPathUnits="userSpaceOnUse">
      <path style="clip-rule:evenodd" id="path40" d="m 13.92,557.88 903.96,0 0,41.16 -903.96,0 0,-41.16 z"/>
    </clipPath>
    <clipPath id="clipPath50" clipPathUnits="userSpaceOnUse">
      <path style="clip-rule:evenodd" id="path52" d="m 13.92,557.88 903.96,0 0,41.16 -903.96,0 0,-41.16 z"/>
    </clipPath>
    <clipPath id="clipPath62" clipPathUnits="userSpaceOnUse">
      <path style="clip-rule:evenodd" id="path64" d="m 208.34,557.88 96.24,0 0,41.16 -96.24,0 0,-41.16 z"/>
    </clipPath>
    <clipPath id="clipPath74" clipPathUnits="userSpaceOnUse">
      <path style="clip-rule:evenodd" id="path76" d="m 208.34,557.88 96.24,0 0,41.16 -96.24,0 0,-41.16 z"/>
    </clipPath>
    <clipPath id="clipPath86" clipPathUnits="userSpaceOnUse">
      <path style="clip-rule:evenodd" id="path88" d="m 13.92,557.88 903.96,0 0,41.16 -903.96,0 0,-41.16 z"/>
    </clipPath>
    <clipPath id="clipPath98" clipPathUnits="userSpaceOnUse">
      <path style="clip-rule:evenodd" id="path100" d="m 13.92,557.88 903.96,0 0,41.16 -903.96,0 0,-41.16 z"/>
    </clipPath>
    <clipPath id="clipPath110" clipPathUnits="userSpaceOnUse">
      <path style="clip-rule:evenodd" id="path112" d="m 13.92,557.88 903.96,0 0,41.16 -903.96,0 0,-41.16 z"/>
    </clipPath>
    <clipPath id="clipPath122" clipPathUnits="userSpaceOnUse">
      <path style="clip-rule:evenodd" id="path124" d="m 13.92,13.2 903.96,0 0,585.84 -903.96,0 0,-585.84 z"/>
    </clipPath>
    <clipPath id="clipPath134" clipPathUnits="userSpaceOnUse">
      <path style="clip-rule:evenodd" id="path136" d="m 13.92,13.2 903.96,0 0,585.84 -903.96,0 0,-585.84 z"/>
    </clipPath>
    <clipPath id="clipPath146" clipPathUnits="userSpaceOnUse">
      <path style="clip-rule:evenodd" id="path148" d="m 13.92,13.2 903.96,0 0,585.84 -903.96,0 0,-585.84 z"/>
    </clipPath>
    <clipPath id="clipPath158" clipPathUnits="userSpaceOnUse">
      <path style="clip-rule:evenodd" id="path160" d="m 13.92,13.2 903.96,0 0,585.84 -903.96,0 0,-585.84 z"/>
    </clipPath>
    <clipPath id="clipPath170" clipPathUnits="userSpaceOnUse">
      <path style="clip-rule:evenodd" id="path172" d="m 13.92,13.2 903.96,0 0,585.84 -903.96,0 0,-585.84 z"/>
    </clipPath>
    <clipPath id="clipPath182" clipPathUnits="userSpaceOnUse">
      <path style="clip-rule:evenodd" id="path184" d="m 625.87,449.14 291.05,0 0,107.78 -291.05,0 0,-107.78 z"/>
    </clipPath>
    <clipPath id="clipPath194" clipPathUnits="userSpaceOnUse">
      <path style="clip-rule:evenodd" id="path196" d="m 625.87,449.14 291.05,0 0,107.78 -291.05,0 0,-107.78 z"/>
    </clipPath>
    <clipPath id="clipPath206" clipPathUnits="userSpaceOnUse">
      <path style="clip-rule:evenodd" id="path208" d="m 625.87,449.14 291.05,0 0,107.78 -291.05,0 0,-107.78 z"/>
    </clipPath>
    <clipPath id="clipPath218" clipPathUnits="userSpaceOnUse">
      <path style="clip-rule:evenodd" id="path220" d="m 13.92,13.2 903.96,0 0,585.84 -903.96,0 0,-585.84 z"/>
    </clipPath>
    <clipPath id="clipPath230" clipPathUnits="userSpaceOnUse">
      <path style="clip-rule:evenodd" id="path232" d="m 13.92,13.2 903.96,0 0,585.84 -903.96,0 0,-585.84 z"/>
    </clipPath>
    <clipPath id="clipPath242" clipPathUnits="userSpaceOnUse">
      <path style="clip-rule:evenodd" id="path244" d="m 13.92,13.2 903.96,0 0,585.84 -903.96,0 0,-585.84 z"/>
    </clipPath>
    <clipPath id="clipPath254" clipPathUnits="userSpaceOnUse">
      <path style="clip-rule:evenodd" id="path256" d="m 13.92,13.2 903.96,0 0,585.84 -903.96,0 0,-585.84 z"/>
    </clipPath>
    <clipPath id="clipPath266" clipPathUnits="userSpaceOnUse">
      <path style="clip-rule:evenodd" id="path268" d="m 13.92,13.2 903.96,0 0,585.84 -903.96,0 0,-585.84 z"/>
    </clipPath>
    <clipPath id="clipPath278" clipPathUnits="userSpaceOnUse">
      <path style="clip-rule:evenodd" id="path280" d="m 625.87,340.39 291.05,0 0,107.78 -291.05,0 0,-107.78 z"/>
    </clipPath>
    <clipPath id="clipPath290" clipPathUnits="userSpaceOnUse">
      <path style="clip-rule:evenodd" id="path292" d="m 625.87,340.39 291.05,0 0,107.78 -291.05,0 0,-107.78 z"/>
    </clipPath>
    <clipPath id="clipPath302" clipPathUnits="userSpaceOnUse">
      <path style="clip-rule:evenodd" id="path304" d="m 625.87,340.39 291.05,0 0,107.78 -291.05,0 0,-107.78 z"/>
    </clipPath>
    <clipPath id="clipPath314" clipPathUnits="userSpaceOnUse">
      <path style="clip-rule:evenodd" id="path316" d="m 625.87,340.39 291.05,0 0,107.78 -291.05,0 0,-107.78 z"/>
    </clipPath>
    <clipPath id="clipPath326" clipPathUnits="userSpaceOnUse">
      <path style="clip-rule:evenodd" id="path328" d="m 13.92,13.2 903.96,0 0,585.84 -903.96,0 0,-585.84 z"/>
    </clipPath>
    <clipPath id="clipPath338" clipPathUnits="userSpaceOnUse">
      <path style="clip-rule:evenodd" id="path340" d="m 13.92,13.2 903.96,0 0,585.84 -903.96,0 0,-585.84 z"/>
    </clipPath>
    <clipPath id="clipPath350" clipPathUnits="userSpaceOnUse">
      <path style="clip-rule:evenodd" id="path352" d="m 13.92,13.2 903.96,0 0,585.84 -903.96,0 0,-585.84 z"/>
    </clipPath>
    <clipPath id="clipPath362" clipPathUnits="userSpaceOnUse">
      <path style="clip-rule:evenodd" id="path364" d="m 13.92,13.2 903.96,0 0,585.84 -903.96,0 0,-585.84 z"/>
    </clipPath>
    <clipPath id="clipPath374" clipPathUnits="userSpaceOnUse">
      <path style="clip-rule:evenodd" id="path376" d="m 13.92,13.2 903.96,0 0,585.84 -903.96,0 0,-585.84 z"/>
    </clipPath>
    <clipPath id="clipPath386" clipPathUnits="userSpaceOnUse">
      <path style="clip-rule:evenodd" id="path388" d="m 625.87,231.65 291.05,0 0,107.78 -291.05,0 0,-107.78 z"/>
    </clipPath>
    <clipPath id="clipPath398" clipPathUnits="userSpaceOnUse">
      <path style="clip-rule:evenodd" id="path400" d="m 625.87,231.65 291.05,0 0,107.78 -291.05,0 0,-107.78 z"/>
    </clipPath>
    <clipPath id="clipPath410" clipPathUnits="userSpaceOnUse">
      <path style="clip-rule:evenodd" id="path412" d="m 625.87,231.65 291.05,0 0,107.78 -291.05,0 0,-107.78 z"/>
    </clipPath>
    <clipPath id="clipPath422" clipPathUnits="userSpaceOnUse">
      <path style="clip-rule:evenodd" id="path424" d="m 625.87,231.65 291.05,0 0,107.78 -291.05,0 0,-107.78 z"/>
    </clipPath>
    <clipPath id="clipPath434" clipPathUnits="userSpaceOnUse">
      <path style="clip-rule:evenodd" id="path436" d="m 625.87,231.65 291.05,0 0,107.78 -291.05,0 0,-107.78 z"/>
    </clipPath>
    <clipPath id="clipPath446" clipPathUnits="userSpaceOnUse">
      <path style="clip-rule:evenodd" id="path448" d="m 13.92,13.2 903.96,0 0,585.84 -903.96,0 0,-585.84 z"/>
    </clipPath>
    <clipPath id="clipPath458" clipPathUnits="userSpaceOnUse">
      <path style="clip-rule:evenodd" id="path460" d="m 13.92,13.2 903.96,0 0,585.84 -903.96,0 0,-585.84 z"/>
    </clipPath>
    <clipPath id="clipPath470" clipPathUnits="userSpaceOnUse">
      <path style="clip-rule:evenodd" id="path472" d="m 13.92,13.2 903.96,0 0,585.84 -903.96,0 0,-585.84 z"/>
    </clipPath>
    <clipPath id="clipPath482" clipPathUnits="userSpaceOnUse">
      <path style="clip-rule:evenodd" id="path484" d="m 13.92,13.2 903.96,0 0,585.84 -903.96,0 0,-585.84 z"/>
    </clipPath>
    <clipPath id="clipPath494" clipPathUnits="userSpaceOnUse">
      <path style="clip-rule:evenodd" id="path496" d="m 13.92,13.2 903.96,0 0,585.84 -903.96,0 0,-585.84 z"/>
    </clipPath>
    <clipPath id="clipPath506" clipPathUnits="userSpaceOnUse">
      <path style="clip-rule:evenodd" id="path508" d="m 625.87,122.9 291.05,0 0,107.78 -291.05,0 0,-107.78 z"/>
    </clipPath>
    <clipPath id="clipPath518" clipPathUnits="userSpaceOnUse">
      <path style="clip-rule:evenodd" id="path520" d="m 625.87,122.9 291.05,0 0,107.78 -291.05,0 0,-107.78 z"/>
    </clipPath>
    <clipPath id="clipPath530" clipPathUnits="userSpaceOnUse">
      <path style="clip-rule:evenodd" id="path532" d="m 625.87,122.9 291.05,0 0,107.78 -291.05,0 0,-107.78 z"/>
    </clipPath>
    <clipPath id="clipPath542" clipPathUnits="userSpaceOnUse">
      <path style="clip-rule:evenodd" id="path544" d="m 625.87,122.9 291.05,0 0,107.78 -291.05,0 0,-107.78 z"/>
    </clipPath>
    <clipPath id="clipPath554" clipPathUnits="userSpaceOnUse">
      <path style="clip-rule:evenodd" id="path556" d="m 13.92,13.2 903.96,0 0,585.84 -903.96,0 0,-585.84 z"/>
    </clipPath>
    <clipPath id="clipPath566" clipPathUnits="userSpaceOnUse">
      <path style="clip-rule:evenodd" id="path568" d="m 13.92,13.2 903.96,0 0,585.84 -903.96,0 0,-585.84 z"/>
    </clipPath>
    <clipPath id="clipPath578" clipPathUnits="userSpaceOnUse">
      <path style="clip-rule:evenodd" id="path580" d="m 13.92,13.2 903.96,0 0,585.84 -903.96,0 0,-585.84 z"/>
    </clipPath>
    <clipPath id="clipPath590" clipPathUnits="userSpaceOnUse">
      <path style="clip-rule:evenodd" id="path592" d="m 13.92,13.2 903.96,0 0,585.84 -903.96,0 0,-585.84 z"/>
    </clipPath>
    <clipPath id="clipPath602" clipPathUnits="userSpaceOnUse">
      <path style="clip-rule:evenodd" id="path604" d="m 402.77,14.16 222.14,0 0,107.78 -222.14,0 0,-107.78 z"/>
    </clipPath>
    <clipPath id="clipPath614" clipPathUnits="userSpaceOnUse">
      <path style="clip-rule:evenodd" id="path616" d="m 402.77,14.16 222.14,0 0,107.78 -222.14,0 0,-107.78 z"/>
    </clipPath>
    <clipPath id="clipPath626" clipPathUnits="userSpaceOnUse">
      <path style="clip-rule:evenodd" id="path628" d="m 625.87,14.16 291.05,0 0,107.78 -291.05,0 0,-107.78 z"/>
    </clipPath>
    <clipPath id="clipPath638" clipPathUnits="userSpaceOnUse">
      <path style="clip-rule:evenodd" id="path640" d="m 625.87,14.16 291.05,0 0,107.78 -291.05,0 0,-107.78 z"/>
    </clipPath>
    <clipPath id="clipPath650" clipPathUnits="userSpaceOnUse">
      <path style="clip-rule:evenodd" id="path652" d="m 625.87,14.16 291.05,0 0,107.78 -291.05,0 0,-107.78 z"/>
    </clipPath>
    <clipPath id="clipPath662" clipPathUnits="userSpaceOnUse">
      <path style="clip-rule:evenodd" id="path664" d="m 625.87,14.16 291.05,0 0,107.78 -291.05,0 0,-107.78 z"/>
    </clipPath>
    <clipPath id="clipPath674" clipPathUnits="userSpaceOnUse">
      <path style="clip-rule:evenodd" id="path676" d="m 12,11.16 907.92,0 0,589.8 -907.92,0 0,-589.8 z"/>
    </clipPath>
  </defs>
  <g transform="matrix(1.25,0,0,-1.25,0,765)" id="g10">
    <g id="g12">
      <g clip-path="url(#clipPath16)" id="g14">
        <path id="path20" style="fill:#b9babe;fill-opacity:1;fill-rule:evenodd;stroke:none" d="m 13.44,557.28 904.08,0 0,42.24 -904.08,0 0,-42.24 z"/>
      </g>
    </g>
    <g id="g22">
      <g clip-path="url(#clipPath26)" id="g24"><text id="text30" style="font-variant:normal;font-weight:bold;font-size:12.96000004px;font-family:'Aptos Narrow';-inkscape-font-specification:'Aptos Narrow Bold';writing-mode:lr-tb;fill:#000000;fill-opacity:1;fill-rule:nonzero;stroke:none" transform="matrix(1,0,0,-1,36.12,582.6)"><tspan id="tspan32" y="0" x="0 6.2337599 9.4867201 16.29072 22.78368 29.587681 36.093601 39.346561 46.150558 52.164001">Financing </tspan></text>
</g>
    </g>
    <g id="g34">
      <g clip-path="url(#clipPath38)" id="g36"><text id="text42" style="font-variant:normal;font-weight:bold;font-size:12.96000004px;font-family:'Aptos Narrow';-inkscape-font-specification:'Aptos Narrow Bold';writing-mode:lr-tb;fill:#000000;fill-opacity:1;fill-rule:nonzero;stroke:none" transform="matrix(1,0,0,-1,42.72,565.08)"><tspan id="tspan44" y="0" x="0 6.2337599 12.7008 19.180799 22.43376 25.90704 29.16 33.229439">Facility</tspan></text>
</g>
    </g>
    <g id="g46">
      <g clip-path="url(#clipPath50)" id="g48"><text id="text54" style="font-variant:normal;font-weight:bold;font-size:12.96000004px;font-family:'Aptos Narrow';-inkscape-font-specification:'Aptos Narrow Bold';writing-mode:lr-tb;fill:#000000;fill-opacity:1;fill-rule:nonzero;stroke:none" transform="matrix(1,0,0,-1,121.2,573.84)"><tspan id="tspan56" y="0" x="0 3.4862399 9.4737597 15.46128 22.26528 28.7712 35.575199 42.08112 48.664799 51.049438 59.214241 65.681282 69.776642">Issuance Date</tspan></text>
</g>
    </g>
    <g id="g58">
      <g clip-path="url(#clipPath62)" id="g60"><text id="text66" style="font-variant:normal;font-weight:bold;font-size:12.96000004px;font-family:'Aptos Narrow';-inkscape-font-specification:'Aptos Narrow Bold';writing-mode:lr-tb;fill:#000000;fill-opacity:1;fill-rule:nonzero;stroke:none" transform="matrix(1,0,0,-1,210.38,582.6)"><tspan id="tspan68" y="0" x="0 7.05024 11.4048 14.65776 21.46176 27.941759 31.194719 38.024639 44.49168 48.003841 50.349602 57.568321 68.014076 74.714401 81.557281 88.361282 92.495522">Principal Amount </tspan></text>
</g>
    </g>
    <g id="g70">
      <g clip-path="url(#clipPath74)" id="g72"><text id="text78" style="font-variant:normal;font-weight:bold;font-size:12.96000004px;font-family:'Aptos Narrow';-inkscape-font-specification:'Aptos Narrow Bold';writing-mode:lr-tb;fill:#000000;fill-opacity:1;fill-rule:nonzero;stroke:none" transform="matrix(1,0,0,-1,244.7,565.08)"><tspan id="tspan80" y="0" x="0 3.9787199 10.54944 20.06208">($M)</tspan></text>
</g>
    </g>
    <g id="g82">
      <g clip-path="url(#clipPath86)" id="g84"><text id="text90" style="font-variant:normal;font-weight:bold;font-size:12.96000004px;font-family:'Aptos Narrow';-inkscape-font-specification:'Aptos Narrow Bold';writing-mode:lr-tb;fill:#000000;fill-opacity:1;fill-rule:nonzero;stroke:none" transform="matrix(1,0,0,-1,327.29,573.84)"><tspan id="tspan92" y="0" x="0 8.1647997 14.9688 20.995199 25.0776 31.77792 42.223679 48.82032">Customer</tspan></text>
</g>
    </g>
    <g id="g94">
      <g clip-path="url(#clipPath98)" id="g96"><text id="text102" style="font-variant:normal;font-weight:bold;font-size:12.96000004px;font-family:'Aptos Narrow';-inkscape-font-specification:'Aptos Narrow Bold';writing-mode:lr-tb;fill:#000000;fill-opacity:1;fill-rule:nonzero;stroke:none" transform="matrix(1,0,0,-1,454.73,573.84)"><tspan id="tspan104" y="0" x="0 6.7132802 10.65312 14.61888 21.20256 27.6696 31.752001 35.004959 40.77216 47.329922 49.740479 53.226719 60.03072 64.164963 70.722717 75.077278 81.63504 87.648483 91.730881 94.115517 101.43792 107.90496 112.00032 118.584">Effective Interest Rate </tspan></text>
</g>
    </g>
    <g id="g106">
      <g clip-path="url(#clipPath110)" id="g108"><text id="text114" style="font-variant:normal;font-weight:bold;font-size:12.96000004px;font-family:'Aptos Narrow';-inkscape-font-specification:'Aptos Narrow Bold';writing-mode:lr-tb;fill:#000000;fill-opacity:1;fill-rule:nonzero;stroke:none" transform="matrix(1,0,0,-1,752.62,573.84)"><tspan id="tspan116" y="0" x="0 8.1647997 14.74848 18.830879 25.29792 28.55088 32.063042 38.011681">Details </tspan></text>
</g>
    </g>
    <g id="g118">
      <g clip-path="url(#clipPath122)" id="g120"><text id="text126" style="font-variant:normal;font-weight:normal;font-size:12.96000004px;font-family:'Aptos Narrow';-inkscape-font-specification:'Aptos Narrow';writing-mode:lr-tb;fill:#000000;fill-opacity:1;fill-rule:nonzero;stroke:none" transform="matrix(1,0,0,-1,39.12,498.34)"><tspan id="tspan128" y="0" x="0 8.1259203 16.30368 21.954241 27.825121 30.24864 36.819359 40.188961">DDTL 1.0</tspan></text>
</g>
    </g>
    <g id="g130">
      <g clip-path="url(#clipPath134)" id="g132"><text id="text138" style="font-variant:normal;font-weight:normal;font-size:12.96000004px;font-family:'Aptos Narrow';-inkscape-font-specification:'Aptos Narrow';writing-mode:lr-tb;fill:#000000;fill-opacity:1;fill-rule:nonzero;stroke:none" transform="matrix(1,0,0,-1,144.26,498.34)"><tspan id="tspan140" y="0" x="0 3.9528 10.5624 13.71168 17.677441 24.248159">Jul-23</tspan></text>
</g>
    </g>
    <g id="g142">
      <g clip-path="url(#clipPath146)" id="g144"><text id="text150" style="font-variant:normal;font-weight:normal;font-size:12.96000004px;font-family:'Aptos Narrow';-inkscape-font-specification:'Aptos Narrow';writing-mode:lr-tb;fill:#000000;fill-opacity:1;fill-rule:nonzero;stroke:none" transform="matrix(1,0,0,-1,236.78,498.34)"><tspan id="tspan152" y="0" x="0 6.5707202 13.19328 16.56288 23.1336 29.7432">$2,300</tspan></text>
</g>
    </g>
    <g id="g154">
      <g clip-path="url(#clipPath158)" id="g156"><text id="text162" style="font-variant:normal;font-weight:normal;font-size:12.96000004px;font-family:'Aptos Narrow';-inkscape-font-specification:'Aptos Narrow';writing-mode:lr-tb;fill:#000000;fill-opacity:1;fill-rule:nonzero;stroke:none" transform="matrix(1,0,0,-1,329.69,498.34)"><tspan id="tspan164" y="0" x="0 9.3571196 12.26016 18.480961 22.43376 29.017441 34.75872 41.36832 44.971199">Microsoft</tspan></text>
</g>
    </g>
    <g id="g166">
      <g clip-path="url(#clipPath170)" id="g168"><text id="text174" style="font-variant:normal;font-weight:normal;font-size:12.96000004px;font-family:'Aptos Narrow';-inkscape-font-specification:'Aptos Narrow';writing-mode:lr-tb;fill:#000000;fill-opacity:1;fill-rule:nonzero;stroke:none" transform="matrix(1,0,0,-1,495.77,498.34)"><tspan id="tspan176" y="0" x="0 6.5707202 13.19328 16.56288 23.1336">15.0%</tspan></text>
</g>
    </g>
    <g id="g178">
      <g clip-path="url(#clipPath182)" id="g180"><text id="text186" style="font-variant:normal;font-weight:normal;font-size:12.96000004px;font-family:'Aptos Narrow';-inkscape-font-specification:'Aptos Narrow';writing-mode:lr-tb;fill:#000000;fill-opacity:1;fill-rule:nonzero;stroke:none" transform="matrix(1,0,0,-1,628.63,515.88)"><tspan id="tspan188" y="0" x="0 5.6505599 12.22128 18.50688 20.878559 27.591841 31.5576 34.46064 41.031361 47.252159 50.155201 56.868481 63.21888 66.368156 68.739838 75.09024 85.276802 91.860481 98.470078 105.0408 108.87696 111.30048 117.88416 121.48704 123.91056 127.74672 134.31744 140.56416 142.98769 151.1136 159.26544 164.916 170.78688 173.2104 179.78111 183.15073 189.72144 192.14496 198.36575 204.72913 210.94992 213.85297 217.00224 219.85344 223.68961 229.05504 231.47856 234.38161 240.12288 242.5464 246.49921 252.73296 259.44623 266.05585 268.95889 272.88577 279.11951 285.83279">The principal amount of the DDTL 1.0 Facility is required </tspan></text>
</g>
    </g>
    <g id="g190">
      <g clip-path="url(#clipPath194)" id="g192"><text id="text198" style="font-variant:normal;font-weight:normal;font-size:12.96000004px;font-family:'Aptos Narrow';-inkscape-font-specification:'Aptos Narrow';writing-mode:lr-tb;fill:#000000;fill-opacity:1;fill-rule:nonzero;stroke:none" transform="matrix(1,0,0,-1,641.71,498.34)"><tspan id="tspan200" y="0" x="0 3.8361599 10.4328 12.85632 19.517759 25.80336 28.226879 32.153759 38.38752 45.1008 51.451199 54.35424 61.015678 63.439201 66.342239 72.912956 75.336479 82.036797 88.6464 94.957916 98.962563 102.79872 109.03248 112.99824 116.14752 121.51296 123.93648 126.80064 133.37135 139.15152 142.98769 149.33807 152.48737 155.57184 165.75841 171.99216 178.56288 182.39903 188.1792 191.5488 193.97232 202.47408 205.37712 209.21329 215.784 218.20752 222.04369 228.6144 234.86111 237.28464 240.88753 243.73872 250.30943 256.68576 259.83505">to be repaid in quarterly installments, with the final </tspan></text>
</g>
    </g>
    <g id="g202">
      <g clip-path="url(#clipPath206)" id="g204"><text id="text210" style="font-variant:normal;font-weight:normal;font-size:12.96000004px;font-family:'Aptos Narrow';-inkscape-font-specification:'Aptos Narrow';writing-mode:lr-tb;fill:#000000;fill-opacity:1;fill-rule:nonzero;stroke:none" transform="matrix(1,0,0,-1,687.19,480.82)"><tspan id="tspan212" y="0" x="0 6.7132802 13.06368 18.429119 28.65456 34.888321 41.459042 45.2952 47.718719 54.431999 61.041599 67.27536 69.698883 76.243683 82.866241 85.289757 94.646881 100.9584 104.96304 111.18384 117.75456 120.17808 126.7488 133.37135 136.74097 139.16447 145.7352 152.30592 158.91553 165.48624">payment due on March 28, 2028.</tspan></text>
</g>
    </g>
    <g id="g214">
      <g clip-path="url(#clipPath218)" id="g216"><text id="text222" style="font-variant:normal;font-weight:normal;font-size:12.96000004px;font-family:'Aptos Narrow';-inkscape-font-specification:'Aptos Narrow';writing-mode:lr-tb;fill:#000000;fill-opacity:1;fill-rule:nonzero;stroke:none" transform="matrix(1,0,0,-1,39.12,389.59)"><tspan id="tspan224" y="0" x="0 8.1259203 16.30368 21.954241 27.825121 30.24864 36.819359 40.188961">DDTL 2.0</tspan></text>
</g>
    </g>
    <g id="g226">
      <g clip-path="url(#clipPath230)" id="g228"><text id="text234" style="font-variant:normal;font-weight:normal;font-size:12.96000004px;font-family:'Aptos Narrow';-inkscape-font-specification:'Aptos Narrow';writing-mode:lr-tb;fill:#000000;fill-opacity:1;fill-rule:nonzero;stroke:none" transform="matrix(1,0,0,-1,140.54,389.59)"><tspan id="tspan236" y="0" x="0 9.3571196 15.70752 21.07296 25.038719 31.648319">May-24</tspan></text>
</g>
    </g>
    <g id="g238">
      <g clip-path="url(#clipPath242)" id="g240"><text id="text246" style="font-variant:normal;font-weight:normal;font-size:12.96000004px;font-family:'Aptos Narrow';-inkscape-font-specification:'Aptos Narrow';writing-mode:lr-tb;fill:#000000;fill-opacity:1;fill-rule:nonzero;stroke:none" transform="matrix(1,0,0,-1,236.78,389.59)"><tspan id="tspan248" y="0" x="0 6.5707202 13.19328 16.56288 23.1336 29.7432">$7,600</tspan></text>
</g>
    </g>
    <g id="g250">
      <g clip-path="url(#clipPath254)" id="g252"><text id="text258" style="font-variant:normal;font-weight:normal;font-size:12.96000004px;font-family:'Aptos Narrow';-inkscape-font-specification:'Aptos Narrow';writing-mode:lr-tb;fill:#000000;fill-opacity:1;fill-rule:nonzero;stroke:none" transform="matrix(1,0,0,-1,316.94,389.59)"><tspan id="tspan260" y="0" x="0 8.3851204 14.9688 18.80496 21.228479 27.44928 34.032959 40.60368 44.206558 47.1096 51.075359 61.261921 67.495682">Not confirmed</tspan></text>
</g>
    </g>
    <g id="g262">
      <g clip-path="url(#clipPath266)" id="g264"><text id="text270" style="font-variant:normal;font-weight:normal;font-size:12.96000004px;font-family:'Aptos Narrow';-inkscape-font-specification:'Aptos Narrow';writing-mode:lr-tb;fill:#000000;fill-opacity:1;fill-rule:nonzero;stroke:none" transform="matrix(1,0,0,-1,495.77,389.59)"><tspan id="tspan272" y="0" x="0 6.5707202 13.19328 16.56288 23.1336">10.0%</tspan></text>
</g>
    </g>
    <g id="g274">
      <g clip-path="url(#clipPath278)" id="g276"><text id="text282" style="font-variant:normal;font-weight:normal;font-size:12.96000004px;font-family:'Aptos Narrow';-inkscape-font-specification:'Aptos Narrow';writing-mode:lr-tb;fill:#000000;fill-opacity:1;fill-rule:nonzero;stroke:none" transform="matrix(1,0,0,-1,628.63,415.9)"><tspan id="tspan284" y="0" x="0 5.6505599 12.22128 18.50688 20.878559 27.591841 31.5576 34.46064 41.031361 47.252159 50.155201 56.868481 63.21888 66.368156 68.739838 75.09024 85.276802 91.860481 98.470078 105.0408 108.87696 111.30048 117.88416 121.48704 123.91056 127.74672 134.31744 140.56416 142.98769 151.1136 159.26544 164.916 170.78688 173.2104 179.78111 183.15073 189.72144 192.14496 198.36575 204.72913 210.94992 213.85297 217.00224 219.85344 223.68961 229.05504 231.47856 234.38161 240.12288 242.5464 246.49921 252.73296 259.44623 266.05585 268.95889 272.88577 279.11951 285.83279">The principal amount of the DDTL 2.0 Facility is required </tspan></text>
</g>
    </g>
    <g id="g286">
      <g clip-path="url(#clipPath290)" id="g288"><text id="text294" style="font-variant:normal;font-weight:normal;font-size:12.96000004px;font-family:'Aptos Narrow';-inkscape-font-specification:'Aptos Narrow';writing-mode:lr-tb;fill:#000000;fill-opacity:1;fill-rule:nonzero;stroke:none" transform="matrix(1,0,0,-1,643.51,398.35)"><tspan id="tspan296" y="0" x="0 3.8361599 10.4328 12.85632 19.517759 25.80336 28.226879 32.153759 38.38752 45.1008 51.451199 54.35424 61.015678 63.439201 66.342239 72.912956 75.336479 82.036797 88.6464 94.957916 98.962563 102.79872 109.03248 112.99824 116.14752 121.51296 123.93648 126.80064 133.37135 139.15152 142.98769 149.33807 152.48737 155.57184 165.75841 171.99216 178.56288 182.39903 188.1792 191.5488 193.97232 200.63376 206.91936 212.75136 215.6544 222.22511 228.84769 231.75072 238.32144 244.19232 246.61584 249.46704 256.03775">to be repaid in quarterly installments, beginning in </tspan></text>
</g>
    </g>
    <g id="g298">
      <g clip-path="url(#clipPath302)" id="g300"><text id="text306" style="font-variant:normal;font-weight:normal;font-size:12.96000004px;font-family:'Aptos Narrow';-inkscape-font-specification:'Aptos Narrow';writing-mode:lr-tb;fill:#000000;fill-opacity:1;fill-rule:nonzero;stroke:none" transform="matrix(1,0,0,-1,628.39,380.83)"><tspan id="tspan308" y="0" x="0 3.9528 10.3032 16.87392 23.483521 29.84688 33.812641 39.178082 41.601601 48.198238 54.768959 61.391521 67.962242 71.331841 73.755363 82.257118 85.160156 88.996323 95.567039 97.990562 101.82672 108.39744 114.68304 117.10656 120.70944 123.54768 130.11839 136.49472 139.644 142.01569 148.72896 155.07936 160.44479 170.67024 176.90401 183.47472 187.31088 189.73441 196.44768 203.05728 209.29105 211.71455 215.31744 218.16864 223.53407 229.81969 232.24319 237.60864 243.84241 250.19279 254.15855 259.89984 262.32336 268.6608 272.26367 276.09985 282.34656 286.31232">January 2026, with the final payment due five years after </tspan></text>
</g>
    </g>
    <g id="g310">
      <g clip-path="url(#clipPath314)" id="g312"><text id="text318" style="font-variant:normal;font-weight:normal;font-size:12.96000004px;font-family:'Aptos Narrow';-inkscape-font-specification:'Aptos Narrow';writing-mode:lr-tb;fill:#000000;fill-opacity:1;fill-rule:nonzero;stroke:none" transform="matrix(1,0,0,-1,689.71,363.31)"><tspan id="tspan320" y="0" x="0 3.8361599 10.40688 16.69248 19.115999 25.427521 32.1408 38.85408 42.003361 44.854561 51.075359 57.438721 64.152 67.301277 73.509117 75.93264 79.030083 85.613762 91.964157 98.534882 100.9584 109.46016 115.83648 121.57776 124.00128 127.60416 134.21376 140.78448 147.49776 153.73152 160.44479">the applicable loan was funded.</tspan></text>
</g>
    </g>
    <g id="g322">
      <g clip-path="url(#clipPath326)" id="g324"><text id="text330" style="font-variant:normal;font-weight:normal;font-size:12.96000004px;font-family:'Aptos Narrow';-inkscape-font-specification:'Aptos Narrow';writing-mode:lr-tb;fill:#000000;fill-opacity:1;fill-rule:nonzero;stroke:none" transform="matrix(1,0,0,-1,39.12,280.85)"><tspan id="tspan332" y="0" x="0 8.1259203 16.30368 21.954241 27.825121 30.24864 36.819359 40.188961">DDTL 3.0</tspan></text>
</g>
    </g>
    <g id="g334">
      <g clip-path="url(#clipPath338)" id="g336"><text id="text342" style="font-variant:normal;font-weight:normal;font-size:12.96000004px;font-family:'Aptos Narrow';-inkscape-font-specification:'Aptos Narrow';writing-mode:lr-tb;fill:#000000;fill-opacity:1;fill-rule:nonzero;stroke:none" transform="matrix(1,0,0,-1,144.26,280.85)"><tspan id="tspan344" y="0" x="0 3.9528 10.5624 13.71168 17.677441 24.248159">Jul-25</tspan></text>
</g>
    </g>
    <g id="g346">
      <g clip-path="url(#clipPath350)" id="g348"><text id="text354" style="font-variant:normal;font-weight:normal;font-size:12.96000004px;font-family:'Aptos Narrow';-inkscape-font-specification:'Aptos Narrow';writing-mode:lr-tb;fill:#000000;fill-opacity:1;fill-rule:nonzero;stroke:none" transform="matrix(1,0,0,-1,236.78,280.85)"><tspan id="tspan356" y="0" x="0 6.5707202 13.19328 16.56288 23.1336 29.7432">$2,600</tspan></text>
</g>
    </g>
    <g id="g358">
      <g clip-path="url(#clipPath362)" id="g360"><text id="text366" style="font-variant:normal;font-weight:normal;font-size:12.96000004px;font-family:'Aptos Narrow';-inkscape-font-specification:'Aptos Narrow';writing-mode:lr-tb;fill:#000000;fill-opacity:1;fill-rule:nonzero;stroke:none" transform="matrix(1,0,0,-1,334.97,280.85)"><tspan id="tspan368" y="0" x="0 8.6443195 15.34464 21.5784 28.14912 35.121601">OpenAI</tspan></text>
</g>
    </g>
    <g id="g370">
      <g clip-path="url(#clipPath374)" id="g372"><text id="text378" style="font-variant:normal;font-weight:normal;font-size:12.96000004px;font-family:'Aptos Narrow';-inkscape-font-specification:'Aptos Narrow';writing-mode:lr-tb;fill:#000000;fill-opacity:1;fill-rule:nonzero;stroke:none" transform="matrix(1,0,0,-1,499.13,280.85)"><tspan id="tspan380" y="0" x="0 6.5707202 9.94032 16.549919">9.0%</tspan></text>
</g>
    </g>
    <g id="g382">
      <g clip-path="url(#clipPath386)" id="g384"><text id="text390" style="font-variant:normal;font-weight:normal;font-size:12.96000004px;font-family:'Aptos Narrow';-inkscape-font-specification:'Aptos Narrow';writing-mode:lr-tb;fill:#000000;fill-opacity:1;fill-rule:nonzero;stroke:none" transform="matrix(1,0,0,-1,628.63,315.91)"><tspan id="tspan392" y="0" x="0 5.6505599 12.22128 18.50688 20.878559 27.591841 31.5576 34.46064 41.031361 47.252159 50.155201 56.868481 63.21888 66.368156 68.739838 75.09024 85.276802 91.860481 98.470078 105.0408 108.87696 111.30048 117.88416 121.48704 123.91056 127.74672 134.31744 140.56416 142.98769 151.1136 159.26544 164.916 170.78688 173.2104 179.78111 183.15073 189.72144 192.14496 198.36575 204.72913 210.94992 213.85297 217.00224 219.85344 223.68961 229.05504 231.47856 234.38161 240.12288 242.5464 246.49921 252.73296 259.44623 266.05585 268.95889 272.88577 279.11951 285.83279">The principal amount of the DDTL 3.0 Facility is required </tspan></text>
</g>
    </g>
    <g id="g394">
      <g clip-path="url(#clipPath398)" id="g396"><text id="text402" style="font-variant:normal;font-weight:normal;font-size:12.96000004px;font-family:'Aptos Narrow';-inkscape-font-specification:'Aptos Narrow';writing-mode:lr-tb;fill:#000000;fill-opacity:1;fill-rule:nonzero;stroke:none" transform="matrix(1,0,0,-1,632.47,298.39)"><tspan id="tspan404" y="0" x="0 3.8361599 10.4328 12.85632 19.517759 25.80336 28.226879 32.153759 38.38752 45.1008 51.451199 54.35424 61.015678 63.439201 66.342239 72.912956 75.336479 85.497124 92.119682 98.690399 102.52656 109.14912 112.2984 117.66384 120.08736 122.95152 129.52225 135.3024 139.13857 145.48895 148.63824 151.72272 161.90929 168.14304 174.71376 178.54993 184.33008 187.69968 190.1232 196.78464 203.07024 208.90224 211.80528 218.37601 224.99857 227.9016 234.47232 240.3432 242.76672 245.61792 252.18864 254.61217 261.55872 268.272 272.23776 275.14081 278.23825">to be repaid in monthly installments, beginning in April </tspan></text>
</g>
    </g>
    <g id="g406">
      <g clip-path="url(#clipPath410)" id="g408"><text id="text414" style="font-variant:normal;font-weight:normal;font-size:12.96000004px;font-family:'Aptos Narrow';-inkscape-font-specification:'Aptos Narrow';writing-mode:lr-tb;fill:#000000;fill-opacity:1;fill-rule:nonzero;stroke:none" transform="matrix(1,0,0,-1,636.31,280.85)"><tspan id="tspan416" y="0" x="0 6.5707202 13.19328 19.764 26.38656 29.756161 32.17968 40.681438 43.58448 47.420639 53.99136 56.414879 60.251041 66.821762 73.068481 75.491997 79.094879 81.946083 88.5168 94.89312 98.042397 100.41408 107.12736 113.47776 118.8432 129.06863 135.3024 141.87312 145.70927 148.1328 154.84608 161.45567 167.68944 170.11296 172.96416 179.53488 181.9584 188.90495 195.51456 201.34656 207.95616 213.73631 217.57248 219.996 226.56673 233.16336 239.73409 246.35664 249.72624 252.14977 257.76144 264.33215 270.61777">2026, with the final payment due in August 2030. The </tspan></text>
</g>
    </g>
    <g id="g418">
      <g clip-path="url(#clipPath422)" id="g420"><text id="text426" style="font-variant:normal;font-weight:normal;font-size:12.96000004px;font-family:'Aptos Narrow';-inkscape-font-specification:'Aptos Narrow';writing-mode:lr-tb;fill:#000000;fill-opacity:1;fill-rule:nonzero;stroke:none" transform="matrix(1,0,0,-1,634.75,263.33)"><tspan id="tspan428" y="0" x="0 8.1647997 14.74848 24.93504 31.648319 37.998718 44.569439 49.986721 52.41024 55.26144 61.00272 63.426239 67.379044 73.612801 80.32608 86.935677 89.838722 93.765602 99.999359 106.71264 109.13616 112.97232 119.51712 121.94064 128.65392 135.00432 140.36977 142.79327 149.15665 151.58015 155.18304 161.39088 167.62463 170.04816 176.59296 180.19585 182.61935 189.19008 192.55968 199.16928 205.74001 215.60255 218.02608 224.71344 230.9472 234.91296 237.33649 243.64799 250.2576 256.82831 263.43793 273.65039">Company is required to pay a fee of 0.50% per annum </tspan></text>
</g>
    </g>
    <g id="g430">
      <g clip-path="url(#clipPath434)" id="g432"><text id="text438" style="font-variant:normal;font-weight:normal;font-size:12.96000004px;font-family:'Aptos Narrow';-inkscape-font-specification:'Aptos Narrow';writing-mode:lr-tb;fill:#000000;fill-opacity:1;fill-rule:nonzero;stroke:none" transform="matrix(1,0,0,-1,695.35,245.81)"><tspan id="tspan440" y="0" x="0 6.5836802 13.1544 15.57792 19.41408 26.010719 32.24448 34.667999 41.277599 47.84832 54.548641 58.5144 64.864799 73.366562 79.976158 82.399681 88.620483 95.204163 105.39072 115.57728 118.48032 122.31648 132.47713 138.76273 145.33344 149.1696">on the undrawn commitment.</tspan></text>
</g>
    </g>
    <g id="g442">
      <g clip-path="url(#clipPath446)" id="g444"><text id="text450" style="font-variant:normal;font-weight:normal;font-size:12.96000004px;font-family:'Aptos Narrow';-inkscape-font-specification:'Aptos Narrow';writing-mode:lr-tb;fill:#000000;fill-opacity:1;fill-rule:nonzero;stroke:none" transform="matrix(1,0,0,-1,39.12,172.1)"><tspan id="tspan452" y="0" x="0 8.1259203 16.30368 21.954241 27.825121 30.24864 36.819359 40.188961">DDTL 2.1</tspan></text>
</g>
    </g>
    <g id="g454">
      <g clip-path="url(#clipPath458)" id="g456"><text id="text462" style="font-variant:normal;font-weight:normal;font-size:12.96000004px;font-family:'Aptos Narrow';-inkscape-font-specification:'Aptos Narrow';writing-mode:lr-tb;fill:#000000;fill-opacity:1;fill-rule:nonzero;stroke:none" transform="matrix(1,0,0,-1,141.26,172.1)"><tspan id="tspan464" y="0" x="0 6.7262402 12.96 19.673281 23.63904 30.209761">Sep-25</tspan></text>
</g>
    </g>
    <g id="g466">
      <g clip-path="url(#clipPath470)" id="g468"><text id="text474" style="font-variant:normal;font-weight:normal;font-size:12.96000004px;font-family:'Aptos Narrow';-inkscape-font-specification:'Aptos Narrow';writing-mode:lr-tb;fill:#000000;fill-opacity:1;fill-rule:nonzero;stroke:none" transform="matrix(1,0,0,-1,236.78,172.1)"><tspan id="tspan476" y="0" x="0 6.5707202 13.19328 16.56288 23.1336 29.7432">$3,000</tspan></text>
</g>
    </g>
    <g id="g478">
      <g clip-path="url(#clipPath482)" id="g480"><text id="text486" style="font-variant:normal;font-weight:normal;font-size:12.96000004px;font-family:'Aptos Narrow';-inkscape-font-specification:'Aptos Narrow';writing-mode:lr-tb;fill:#000000;fill-opacity:1;fill-rule:nonzero;stroke:none" transform="matrix(1,0,0,-1,316.94,172.1)"><tspan id="tspan488" y="0" x="0 8.3851204 14.9688 18.80496 21.228479 27.44928 34.032959 40.60368 44.206558 47.1096 51.075359 61.261921 67.495682">Not confirmed</tspan></text>
</g>
    </g>
    <g id="g490">
      <g clip-path="url(#clipPath494)" id="g492"><text id="text498" style="font-variant:normal;font-weight:normal;font-size:12.96000004px;font-family:'Aptos Narrow';-inkscape-font-specification:'Aptos Narrow';writing-mode:lr-tb;fill:#000000;fill-opacity:1;fill-rule:nonzero;stroke:none" transform="matrix(1,0,0,-1,499.13,172.1)"><tspan id="tspan500" y="0" x="0 6.5707202 9.94032 16.549919">9.0%</tspan></text>
</g>
    </g>
    <g id="g502">
      <g clip-path="url(#clipPath506)" id="g504"><text id="text510" style="font-variant:normal;font-weight:normal;font-size:12.96000004px;font-family:'Aptos Narrow';-inkscape-font-specification:'Aptos Narrow';writing-mode:lr-tb;fill:#000000;fill-opacity:1;fill-rule:nonzero;stroke:none" transform="matrix(1,0,0,-1,628.63,198.41)"><tspan id="tspan512" y="0" x="0 5.6505599 12.22128 18.50688 20.878559 27.591841 31.5576 34.46064 41.031361 47.252159 50.155201 56.868481 63.21888 66.368156 68.739838 75.09024 85.276802 91.860481 98.470078 105.0408 108.87696 111.30048 117.88416 121.48704 123.91056 127.74672 134.31744 140.56416 142.98769 151.1136 159.26544 164.916 170.78688 173.2104 179.78111 183.15073 189.72144 192.14496 198.36575 204.72913 210.94992 213.85297 217.00224 219.85344 223.68961 229.05504 231.47856 234.38161 240.12288 242.5464 246.49921 252.73296 259.44623 266.05585 268.95889 272.88577 279.11951 285.83279">The principal amount of the DDTL 2.1 Facility is required </tspan></text>
</g>
    </g>
    <g id="g514">
      <g clip-path="url(#clipPath518)" id="g516"><text id="text522" style="font-variant:normal;font-weight:normal;font-size:12.96000004px;font-family:'Aptos Narrow';-inkscape-font-specification:'Aptos Narrow';writing-mode:lr-tb;fill:#000000;fill-opacity:1;fill-rule:nonzero;stroke:none" transform="matrix(1,0,0,-1,632.83,180.86)"><tspan id="tspan524" y="0" x="0 3.8361599 10.4328 12.85632 19.517759 25.80336 28.226879 32.153759 38.38752 45.1008 51.451199 54.35424 61.015678 63.439201 66.342239 72.912956 75.336479 82.036797 88.6464 94.957916 98.962563 102.79872 109.03248 112.99824 116.14752 121.51296 123.93648 126.80064 133.37135 139.15152 142.98769 149.33807 152.48737 155.57184 165.75841 171.99216 178.56288 182.39903 188.1792 191.5488 193.97232 200.63376 206.91936 212.75136 215.6544 222.22511 228.84769 231.75072 238.32144 244.19232 246.61584 249.46704 256.03775 258.46127 262.41409 269.02368 272.17297 277.53839">to be repaid in quarterly installments, beginning in July </tspan></text>
</g>
    </g>
    <g id="g526">
      <g clip-path="url(#clipPath530)" id="g528"><text id="text534" style="font-variant:normal;font-weight:normal;font-size:12.96000004px;font-family:'Aptos Narrow';-inkscape-font-specification:'Aptos Narrow';writing-mode:lr-tb;fill:#000000;fill-opacity:1;fill-rule:nonzero;stroke:none" transform="matrix(1,0,0,-1,639.67,163.34)"><tspan id="tspan536" y="0" x="0 6.5707202 13.19328 19.764 26.38656 29.756161 32.17968 40.681438 43.58448 47.420639 53.99136 56.414879 60.251041 66.821762 73.068481 75.491997 79.094879 81.946083 88.5168 94.89312 98.042397 100.41408 107.12736 113.47776 118.8432 129.06863 135.3024 141.87312 145.70927 148.1328 154.84608 161.45567 167.68944 170.11296 173.71584 176.56705 181.93248 188.21808 190.6416 196.00703 202.2408 208.5912 212.55696 218.29823 220.72176 227.0592 230.66208 234.49825 240.74496 244.71072 247.13425 250.9704 257.54111 263.82672">2026, with the final payment due five years after the </tspan></text>
</g>
    </g>
    <g id="g538">
      <g clip-path="url(#clipPath542)" id="g540"><text id="text546" style="font-variant:normal;font-weight:normal;font-size:12.96000004px;font-family:'Aptos Narrow';-inkscape-font-specification:'Aptos Narrow';writing-mode:lr-tb;fill:#000000;fill-opacity:1;fill-rule:nonzero;stroke:none" transform="matrix(1,0,0,-1,699.19,145.82)"><tspan id="tspan548" y="0" x="0 6.3504 13.06368 19.77696 22.926241 25.777439 31.99824 38.361599 45.074879 48.224159 54.431999 56.855518 59.952961 66.536636 72.887039 79.457764 81.881279 90.383041 96.759361 102.50064 104.92416 108.52704 115.13664 121.70736 128.42064 134.6544 141.36768 144.73727">applicable loan was funded. </tspan></text>
</g>
    </g>
    <g id="g550">
      <g clip-path="url(#clipPath554)" id="g552"><text id="text558" style="font-variant:normal;font-weight:normal;font-size:12.96000004px;font-family:'Aptos Narrow';-inkscape-font-specification:'Aptos Narrow';writing-mode:lr-tb;fill:#000000;fill-opacity:1;fill-rule:nonzero;stroke:none" transform="matrix(1,0,0,-1,39.12,63.36)"><tspan id="tspan560" y="0" x="0 8.1259203 16.30368 21.954241 27.825121 30.24864 36.819359 40.188961">DDTL 4.0</tspan></text>
</g>
    </g>
    <g id="g562">
      <g clip-path="url(#clipPath566)" id="g564"><text id="text570" style="font-variant:normal;font-weight:normal;font-size:12.96000004px;font-family:'Aptos Narrow';-inkscape-font-specification:'Aptos Narrow';writing-mode:lr-tb;fill:#000000;fill-opacity:1;fill-rule:nonzero;stroke:none" transform="matrix(1,0,0,-1,141.26,63.36)"><tspan id="tspan572" y="0" x="0 9.3571196 15.70752 19.673281 23.63904 30.209761">Mar-26</tspan></text>
</g>
    </g>
    <g id="g574">
      <g clip-path="url(#clipPath578)" id="g576"><text id="text582" style="font-variant:normal;font-weight:normal;font-size:12.96000004px;font-family:'Aptos Narrow';-inkscape-font-specification:'Aptos Narrow';writing-mode:lr-tb;fill:#000000;fill-opacity:1;fill-rule:nonzero;stroke:none" transform="matrix(1,0,0,-1,236.78,63.36)"><tspan id="tspan584" y="0" x="0 6.5707202 13.19328 16.56288 23.1336 29.7432">$8,500</tspan></text>
</g>
    </g>
    <g id="g586">
      <g clip-path="url(#clipPath590)" id="g588"><text id="text594" style="font-variant:normal;font-weight:normal;font-size:12.96000004px;font-family:'Aptos Narrow';-inkscape-font-specification:'Aptos Narrow';writing-mode:lr-tb;fill:#000000;fill-opacity:1;fill-rule:nonzero;stroke:none" transform="matrix(1,0,0,-1,341.21,63.36)"><tspan id="tspan596" y="0" x="0 9.3571196 15.60384 19.440001">Meta</tspan></text>
</g>
    </g>
    <g id="g598">
      <g clip-path="url(#clipPath602)" id="g600"><text id="text606" style="font-variant:normal;font-weight:normal;font-size:12.96000004px;font-family:'Aptos Narrow';-inkscape-font-specification:'Aptos Narrow';writing-mode:lr-tb;fill:#000000;fill-opacity:1;fill-rule:nonzero;stroke:none" transform="matrix(1,0,0,-1,415.73,72.12)"><tspan id="tspan608" y="0" x="0 6.2207999 9.37008 15.9408 22.291201 26.127359 29.030399 35.60112 41.472 43.895519 51.088322 57.399841 61.236 67.521599 69.945122 75.556801 79.52256 85.872963 92.44368 98.703362 105.27408 111.55968 114.92928 117.30096 124.0272 132.67152 138.89232 146.08511 148.50864 155.07936 157.50288 164.07359 170.6832 177.25392 183.99312 190.70641">Floating Rate Tranche: SOFR + 225bps</tspan></text>
</g>
    </g>
    <g id="g610">
      <g clip-path="url(#clipPath614)" id="g612"><text id="text618" style="font-variant:normal;font-weight:normal;font-size:12.96000004px;font-family:'Aptos Narrow';-inkscape-font-specification:'Aptos Narrow';writing-mode:lr-tb;fill:#000000;fill-opacity:1;fill-rule:nonzero;stroke:none" transform="matrix(1,0,0,-1,445.97,54.6)"><tspan id="tspan620" y="0" x="0 6.2207999 9.1238403 14.3856 20.6712 27.33264 29.756161 36.948959 43.312321 47.148479 53.395199 55.818722 61.46928 65.396156 71.746559 78.317284 84.576958 91.147682 97.433281 100.80288 103.17456 109.74528 116.36784 119.73744 126.30816 136.17072">Fixed Rate Tranche: ~5.9% </tspan></text>
</g>
    </g>
    <g id="g622">
      <g clip-path="url(#clipPath626)" id="g624"><text id="text630" style="font-variant:normal;font-weight:normal;font-size:12.96000004px;font-family:'Aptos Narrow';-inkscape-font-specification:'Aptos Narrow';writing-mode:lr-tb;fill:#000000;fill-opacity:1;fill-rule:nonzero;stroke:none" transform="matrix(1,0,0,-1,637.63,89.664)"><tspan id="tspan632" y="0" x="0 5.6505599 12.22128 18.50688 20.878559 29.00448 37.18224 42.832802 48.703678 51.127201 57.697922 61.06752 67.638237 70.06176 76.282562 82.64592 88.866722 91.76976 94.919037 97.770241 101.6064 106.97184 109.39536 116.1216 120.08736 126.67104 132.03648 134.93951 141.6528 147.88657 153.62784 156.05136 159.65424 166.23792 170.20367 172.6272 179.28864 185.57423 188.68465 195.03503 200.40048 206.68608 213.3864 215.80992 222.47136 226.476 232.78752 241.32816 243.75168 247.58784 253.80864 257.77441 267.96097">The DDTL 4.0 Facility provides for delayed draw term </tspan></text>
</g>
    </g>
    <g id="g634">
      <g clip-path="url(#clipPath638)" id="g636"><text id="text642" style="font-variant:normal;font-weight:normal;font-size:12.96000004px;font-family:'Aptos Narrow';-inkscape-font-specification:'Aptos Narrow';writing-mode:lr-tb;fill:#000000;fill-opacity:1;fill-rule:nonzero;stroke:none" transform="matrix(1,0,0,-1,655.75,72.12)"><tspan id="tspan644" y="0" x="0 3.1492801 9.6940804 16.0704 22.641121 28.42128 30.844801 37.156319 42.573601 48.924 51.827042 54.92448 61.274879 67.988159 71.137444 77.345284 79.768799 82.620003 89.19072 91.614243 98.210876 104.7816 111.0672 113.45184 120.03552 124.00128 126.4248 136.58543 143.18208 147.14784 153.38161 155.80511 162.46655 166.47121 172.78271 181.32336 187.06464 189.48816 196.09776 202.66849 206.50464 209.40768 212.55696 214.92863 218.7648 225.33553 231.62112">loans available in one or more draws until the </tspan></text>
</g>
    </g>
    <g id="g646">
      <g clip-path="url(#clipPath650)" id="g648"><text id="text654" style="font-variant:normal;font-weight:normal;font-size:12.96000004px;font-family:'Aptos Narrow';-inkscape-font-specification:'Aptos Narrow';writing-mode:lr-tb;fill:#000000;fill-opacity:1;fill-rule:nonzero;stroke:none" transform="matrix(1,0,0,-1,648.91,54.6)"><tspan id="tspan656" y="0" x="0 6.2207999 12.8304 23.01696 33.203522 36.10656 39.942719 50.103359 56.388962 62.959679 66.795837 69.21936 73.055519 79.289284 83.255043 93.441597 96.344643 102.91536 109.26576 113.10192 116.00496 122.54976 129.17232 131.59584 138.25728 144.63361 148.46976 154.71648 157.14 159.9912 166.56192 168.98544 172.93823 179.54784 186.11856 192.40416 194.82768 201.39841 207.96912 214.57872 221.14944 224.51904 226.94257 232.59312 239.16383 245.44943">commitment termination date in June 2027. The </tspan></text>
</g>
    </g>
    <g id="g658">
      <g clip-path="url(#clipPath662)" id="g660"><text id="text666" style="font-variant:normal;font-weight:normal;font-size:12.96000004px;font-family:'Aptos Narrow';-inkscape-font-specification:'Aptos Narrow';writing-mode:lr-tb;fill:#000000;fill-opacity:1;fill-rule:nonzero;stroke:none" transform="matrix(1,0,0,-1,628.63,37.08)"><tspan id="tspan668" y="0" x="0 10.18656 16.536961 20.373119 26.982719 30.93552 33.838558 37.674721 43.040161 45.46368 52.164001 58.5144 62.350559 68.597282 71.020798 77.565598 81.16848 83.592003 87.428162 93.998878 100.28448 102.708 110.83392 118.95984 124.6104 130.53313 132.91776 139.48848 142.85808 149.46768 151.8912 158.112 164.44943 170.67024 173.57327 176.72256 179.57376 183.40993 188.77536 191.19888 194.10191 199.8432 202.26672 211.62384 217.93536 221.94 228.1608 234.75745 237.18095 243.75168 250.3224 253.692 256.11551 262.68625 269.30881 275.87952 282.50208">maturity date of the DDTL 4.0 Facility is March 31, 2032.</tspan></text>
</g>
    </g>
    <g id="g670">
      <g clip-path="url(#clipPath674)" id="g672">
        <path id="path678" style="fill:#000000;fill-opacity:1;fill-rule:evenodd;stroke:none" d="m 13.08,13.2 0.84,0 0,586.68 -0.84,0 0,-586.68 z"/>
        <path id="path680" style="fill:#000000;fill-opacity:1;fill-rule:evenodd;stroke:none" d="m 110.28,13.2 0.84,0 0,585.84 -0.84,0 0,-585.84 z"/>
        <path id="path682" style="fill:#000000;fill-opacity:1;fill-rule:evenodd;stroke:none" d="m 207.5,13.2 0.84001,0 0,585.84 -0.84001,0 0,-585.84 z"/>
        <path id="path684" style="fill:#000000;fill-opacity:1;fill-rule:evenodd;stroke:none" d="m 304.7,13.2 0.84,0 0,585.84 -0.84,0 0,-585.84 z"/>
        <path id="path686" style="fill:#000000;fill-opacity:1;fill-rule:evenodd;stroke:none" d="m 401.93,13.2 0.84,0 0,585.84 -0.84,0 0,-585.84 z"/>
        <path id="path688" style="fill:#000000;fill-opacity:1;fill-rule:evenodd;stroke:none" d="m 625.03,13.2 0.84003,0 0,585.84 -0.84003,0 0,-585.84 z"/>
        <path id="path690" style="fill:#000000;fill-opacity:1;fill-rule:evenodd;stroke:none" d="m 917.04,13.2 0.84003,0 0,585.84 -0.84003,0 0,-585.84 z"/>
        <path id="path692" style="fill:#000000;fill-opacity:1;fill-rule:evenodd;stroke:none" d="m 13.92,599.04 903.96,0 0,0.84 -903.96,0 0,-0.84 z"/>
        <path id="path694" style="fill:#000000;fill-opacity:1;fill-rule:evenodd;stroke:none" d="m 13.92,556.92 903.96,0 0,0.84 -903.96,0 0,-0.84 z"/>
        <path id="path696" style="fill:#000000;fill-opacity:1;fill-rule:evenodd;stroke:none" d="m 13.92,448.18 903.96,0 0,0.84 -903.96,0 0,-0.84 z"/>
        <path id="path698" style="fill:#000000;fill-opacity:1;fill-rule:evenodd;stroke:none" d="m 13.92,339.43 903.96,0 0,0.84 -903.96,0 0,-0.84 z"/>
        <path id="path700" style="fill:#000000;fill-opacity:1;fill-rule:evenodd;stroke:none" d="m 13.92,230.69 903.96,0 0,0.84 -903.96,0 0,-0.84 z"/>
        <path id="path702" style="fill:#000000;fill-opacity:1;fill-rule:evenodd;stroke:none" d="m 13.92,121.94 903.96,0 0,0.84 -903.96,0 0,-0.84 z"/>
        <path id="path704" style="fill:#000000;fill-opacity:1;fill-rule:evenodd;stroke:none" d="m 13.92,13.2 903.96,0 0,0.83997 -903.96,0 0,-0.83997 z"/>
      </g>
    </g>
  </g>
</svg>
