<svg version="1.1" width="100%" height="100%" viewBox="0 0 355 213" xmlns="http://www.w3.org/2000/svg" xmlns:xlink="http://www.w3.org/1999/xlink"><style type="text/css" /><defs><clipPath id="clip001"><path d="M0,0 L2761.333,0 L2761.333,1772 L0,1772 Z" clip-rule="evenodd" /></clipPath><clipPath id="clip002"><path d="M0,0 L2761.333,0 L2761.333,1772 L0,1772 Z" clip-rule="evenodd" /></clipPath><clipPath id="clip003"><path d="M0,0 L2761.333,0 L2761.333,1772 L0,1772 Z" clip-rule="evenodd" /></clipPath><clipPath id="clip004"><path d="M0,0 L5200,0 L5200,1880 L0,1880 Z" clip-rule="evenodd" /></clipPath><clipPath id="clip005"><path d="M-800,0 L6000,0 L6000,1880 L-800,1880 Z" clip-rule="evenodd" /></clipPath><clipPath id="clip006"><path d="M0,0 L2753.333,0 L2753.333,1770.667 L0,1770.667 Z" clip-rule="evenodd" /></clipPath><clipPath id="clip007"><path d="M338.6667,190.6667 L2753.333,190.6667 L2753.333,1449.333 L338.6667,1449.333 Z" clip-rule="evenodd" /></clipPath><clipPath id="clip008"><path d="M338.6667,190.6667 L2753.333,190.6667 L2753.333,1449.333 L338.6667,1449.333 Z" clip-rule="evenodd" /></clipPath><clipPath id="clip009"><path d="M338.6667,190.6667 L2753.333,190.6667 L2753.333,1449.333 L338.6667,1449.333 Z" clip-rule="evenodd" /></clipPath><clipPath id="clip010"><path d="M338.6667,190.6667 L2753.333,190.6667 L2753.333,1449.333 L338.6667,1449.333 Z" clip-rule="evenodd" /></clipPath><clipPath id="clip011"><path d="M0,0 L2753.333,0 L2753.333,1770.667 L0,1770.667 Z" clip-rule="evenodd" /></clipPath><clipPath id="clip012"><path d="M0,0 L2753.333,0 L2753.333,1770.667 L0,1770.667 Z" clip-rule="evenodd" /></clipPath><clipPath id="clip013"><path d="M0,0 L2753.333,0 L2753.333,1770.667 L0,1770.667 Z" clip-rule="evenodd" /></clipPath><clipPath id="clip014"><path d="M0,0 L2753.333,0 L2753.333,1770.667 L0,1770.667 Z" clip-rule="evenodd" /></clipPath><clipPath id="clip015"><path d="M0,0 L2753.333,0 L2753.333,1770.667 L0,1770.667 Z" clip-rule="evenodd" /></clipPath><clipPath id="clip016"><path d="M0,0 L2753.333,0 L2753.333,1770.667 L0,1770.667 Z" clip-rule="evenodd" /></clipPath><clipPath id="clip017"><path d="M0,0 L2753.333,0 L2753.333,1770.667 L0,1770.667 Z" clip-rule="evenodd" /></clipPath><clipPath id="clip018"><path d="M0,0 L2753.333,0 L2753.333,1770.667 L0,1770.667 Z" clip-rule="evenodd" /></clipPath><clipPath id="clip019"><path d="M0,0 L2753.333,0 L2753.333,1770.667 L0,1770.667 Z" clip-rule="evenodd" /></clipPath><clipPath id="clip020"><path d="M0,0 L2753.333,0 L2753.333,1770.667 L0,1770.667 Z" clip-rule="evenodd" /></clipPath><clipPath id="clip021"><path d="M0,0 L2753.333,0 L2753.333,1770.667 L0,1770.667 Z" clip-rule="evenodd" /></clipPath><clipPath id="clip022"><path d="M0,0 L2753.333,0 L2753.333,1770.667 L0,1770.667 Z" clip-rule="evenodd" /></clipPath><clipPath id="clip023"><path d="M0,0 L2753.333,0 L2753.333,1770.667 L0,1770.667 Z" clip-rule="evenodd" /></clipPath><clipPath id="clip024"><path d="M0,0 L2753.333,0 L2753.333,1770.667 L0,1770.667 Z" clip-rule="evenodd" /></clipPath><clipPath id="clip025"><path d="M0,0 L2753.333,0 L2753.333,1770.667 L0,1770.667 Z" clip-rule="evenodd" /></clipPath><clipPath id="clip026"><path d="M0,0 L2753.333,0 L2753.333,1770.667 L0,1770.667 Z" clip-rule="evenodd" /></clipPath><clipPath id="clip027"><path d="M0,0 L2753.333,0 L2753.333,1770.667 L0,1770.667 Z" clip-rule="evenodd" /></clipPath><clipPath id="clip028"><path d="M0,0 L2753.333,0 L2753.333,1770.667 L0,1770.667 Z" clip-rule="evenodd" /></clipPath><clipPath id="clip029"><path d="M0,0 L2753.333,0 L2753.333,1770.667 L0,1770.667 Z" clip-rule="evenodd" /></clipPath><clipPath id="clip030"><path d="M0,0 L2753.333,0 L2753.333,1770.667 L0,1770.667 Z" clip-rule="evenodd" /></clipPath><clipPath id="clip031"><path d="M0,0 L2753.333,0 L2753.333,1770.667 L0,1770.667 Z" clip-rule="evenodd" /></clipPath><clipPath id="clip032"><path d="M0,0 L2753.333,0 L2753.333,1770.667 L0,1770.667 Z" clip-rule="evenodd" /></clipPath><clipPath id="clip033"><path d="M0,0 L2753.333,0 L2753.333,1770.667 L0,1770.667 Z" clip-rule="evenodd" /></clipPath><clipPath id="clip034"><path d="M0,0 L2753.333,0 L2753.333,1770.667 L0,1770.667 Z" clip-rule="evenodd" /></clipPath><clipPath id="clip035"><path d="M0,0 L2753.333,0 L2753.333,1770.667 L0,1770.667 Z" clip-rule="evenodd" /></clipPath><clipPath id="clip036"><path d="M0,0 L2753.333,0 L2753.333,1770.667 L0,1770.667 Z" clip-rule="evenodd" /></clipPath><clipPath id="clip037"><path d="M0,0 L2753.333,0 L2753.333,1770.667 L0,1770.667 Z" clip-rule="evenodd" /></clipPath><clipPath id="clip038"><path d="M0,0 L2753.333,0 L2753.333,1770.667 L0,1770.667 Z" clip-rule="evenodd" /></clipPath><clipPath id="clip039"><path d="M0,0 L2753.333,0 L2753.333,1770.667 L0,1770.667 Z" clip-rule="evenodd" /></clipPath><clipPath id="clip040"><path d="M0,0 L2753.333,0 L2753.333,1770.667 L0,1770.667 Z" clip-rule="evenodd" /></clipPath><clipPath id="clip041"><path d="M0,0 L2753.333,0 L2753.333,1770.667 L0,1770.667 Z" clip-rule="evenodd" /></clipPath><clipPath id="clip042"><path d="M0,0 L2753.333,0 L2753.333,1770.667 L0,1770.667 Z" clip-rule="evenodd" /></clipPath><clipPath id="clip043"><path d="M0,0 L2753.333,0 L2753.333,1770.667 L0,1770.667 Z" clip-rule="evenodd" /></clipPath><clipPath id="clip044"><path d="M0,0 L2753.333,0 L2753.333,1770.667 L0,1770.667 Z" clip-rule="evenodd" /></clipPath><clipPath id="clip045"><path d="M0,0 L2753.333,0 L2753.333,1770.667 L0,1770.667 Z" clip-rule="evenodd" /></clipPath><clipPath id="clip046"><path d="M0,0 L2753.333,0 L2753.333,1770.667 L0,1770.667 Z" clip-rule="evenodd" /></clipPath><clipPath id="clip047"><path d="M0,0 L2753.333,0 L2753.333,1770.667 L0,1770.667 Z" clip-rule="evenodd" /></clipPath><clipPath id="clip048"><path d="M0,0 L2753.333,0 L2753.333,1770.667 L0,1770.667 Z" clip-rule="evenodd" /></clipPath></defs><clipPath id="page-clip-path-1"><rect x="0" y="0" width="354.67" height="213.33" /></clipPath><g clip-path="url(#page-clip-path-1)" transform="translate(0.17,0)"><g transform="translate(1,1)"><g><g transform="matrix(0.1197006,0,0,0.1199774,0,0)" clip-path="url(#clip001)"><g><g clip-path="url(#clip002)"><g><g clip-path="url(#clip003)"><g transform="matrix(1.000214,0,0,1.000788,0.00016276,0)"><g><g><g clip-path="url(#clip004)"><g transform="translate(2753.333,1772)" /></g></g></g><g clip-path="url(#clip005)"><g transform="matrix(0.000656168,0,0,0.000656168,0,0)"><path d="M0,0 L4198112,0 L4198112,2700528 L0,2700528 Z" fill="#ffffff" fill-opacity="0" fill-rule="evenodd" /></g></g><g clip-path="url(#clip006)"><g transform="matrix(0.000656168,0,0,0.000656168,340,192)"><path d="M0,1712976 L3679952,1712976 M0,1521968 L3679952,1521968 M0,1332992 L3679952,1332992 M0,1141984 L3679952,1141984 M0,950976 L3679952,950976 M0,762000 L3679952,762000 M0,570992 L3679952,570992 M0,379984 L3679952,379984 M0,188976 L3679952,188976 M0,0 L3679952,0 " stroke-width="16933.33" stroke-linejoin="round" stroke-miterlimit="13.33333" stroke="#bababa" fill="none" fill-rule="nonzero" /></g></g><g clip-path="url(#clip007)"><g transform="matrix(0.000656168,0,0,0.000656168,340,192)"><path d="M34544,1005840 L178816,1005840 L178816,1005840 L178816,1903984 L178816,1903984 L34544,1903984 ZM251968,920496 L396240,920496 L396240,920496 L396240,1903984 L396240,1903984 L251968,1903984 ZM467360,1152144 L611632,1152144 L611632,1152144 L611632,1903984 L611632,1903984 L467360,1903984 ZM684784,1123696 L829056,1123696 L829056,1123696 L829056,1903984 L829056,1903984 L684784,1903984 ZM900176,1064768 L1046480,1064768 L1046480,1064768 L1046480,1903984 L1046480,1903984 L900176,1903984 ZM1117600,1052576 L1261872,1052576 L1261872,1052576 L1261872,1903984 L1261872,1903984 L1117600,1903984 ZM1335024,985520 L1479296,985520 L1479296,985520 L1479296,1903984 L1479296,1903984 L1335024,1903984 ZM1550416,948944 L1694688,948944 L1694688,948944 L1694688,1903984 L1694688,1903984 L1550416,1903984 ZM1767840,855472 L1912112,855472 L1912112,855472 L1912112,1903984 L1912112,1903984 L1767840,1903984 ZM1983232,1022096 L2127504,1022096 L2127504,1022096 L2127504,1903984 L2127504,1903984 L1983232,1903984 ZM2200656,1133856 L2344928,1133856 L2344928,1133856 L2344928,1903984 L2344928,1903984 L2200656,1903984 ZM2416048,1117600 L2560320,1117600 L2560320,1117600 L2560320,1903984 L2560320,1903984 L2416048,1903984 ZM2633472,1048512 L2777744,1048512 L2777744,1048512 L2777744,1903984 L2777744,1903984 L2633472,1903984 ZM2848864,1007872 L2993136,1007872 L2993136,1007872 L2993136,1903984 L2993136,1903984 L2848864,1903984 ZM3066288,1052576 L3210560,1052576 L3210560,1052576 L3210560,1903984 L3210560,1903984 L3066288,1903984 ZM3281680,1009904 L3427984,1009904 L3427984,1009904 L3427984,1903984 L3427984,1903984 L3281680,1903984 ZM3499104,1121664 L3643376,1121664 L3643376,1121664 L3643376,1903984 L3643376,1903984 L3499104,1903984 Z" fill="#012169" fill-rule="nonzero" /></g></g><g clip-path="url(#clip008)"><g transform="matrix(0.000656168,0,0,0.000656168,340,192)"><path d="M34544,589280 L178816,589280 L178816,589280 L178816,1005840 L178816,1005840 L34544,1005840 ZM251968,457200 L396240,457200 L396240,457200 L396240,920496 L396240,920496 L251968,920496 ZM467360,660400 L611632,660400 L611632,660400 L611632,1152144 L611632,1152144 L467360,1152144 ZM684784,705104 L829056,705104 L829056,705104 L829056,1123696 L829056,1123696 L684784,1123696 ZM900176,768096 L1046480,768096 L1046480,768096 L1046480,1064768 L1046480,1064768 L900176,1064768 ZM1117600,711200 L1261872,711200 L1261872,711200 L1261872,1052576 L1261872,1052576 L1117600,1052576 ZM1335024,686816 L1479296,686816 L1479296,686816 L1479296,985520 L1479296,985520 L1335024,985520 ZM1550416,560832 L1694688,560832 L1694688,560832 L1694688,948944 L1694688,948944 L1550416,948944 ZM1767840,575056 L1912112,575056 L1912112,575056 L1912112,855472 L1912112,855472 L1767840,855472 ZM1983232,627888 L2127504,627888 L2127504,627888 L2127504,1022096 L2127504,1022096 L1983232,1022096 ZM2200656,747776 L2344928,747776 L2344928,747776 L2344928,1133856 L2344928,1133856 L2200656,1133856 ZM2416048,759968 L2560320,759968 L2560320,759968 L2560320,1117600 L2560320,1117600 L2416048,1117600 ZM2633472,682752 L2777744,682752 L2777744,682752 L2777744,1048512 L2777744,1048512 L2633472,1048512 ZM2848864,682752 L2993136,682752 L2993136,682752 L2993136,1007872 L2993136,1007872 L2848864,1007872 ZM3066288,780288 L3210560,780288 L3210560,780288 L3210560,1052576 L3210560,1052576 L3066288,1052576 ZM3281680,759968 L3427984,759968 L3427984,759968 L3427984,1009904 L3427984,1009904 L3281680,1009904 ZM3499104,918464 L3643376,918464 L3643376,918464 L3643376,1121664 L3643376,1121664 L3499104,1121664 Z" fill="#009cde" fill-rule="nonzero" /></g></g><g clip-path="url(#clip009)"><g transform="matrix(0.000656168,0,0,0.000656168,340,192)"><path d="M34544,365760 L178816,365760 L178816,365760 L178816,589280 L178816,589280 L34544,589280 ZM251968,235712 L396240,235712 L396240,235712 L396240,457200 L396240,457200 L251968,457200 ZM467360,310896 L611632,310896 L611632,310896 L611632,660400 L611632,660400 L467360,660400 ZM684784,420624 L829056,420624 L829056,420624 L829056,705104 L829056,705104 L684784,705104 ZM900176,369824 L1046480,369824 L1046480,369824 L1046480,768096 L1046480,768096 L900176,768096 ZM1117600,422656 L1261872,422656 L1261872,422656 L1261872,711200 L1261872,711200 L1117600,711200 ZM1335024,373888 L1479296,373888 L1479296,373888 L1479296,686816 L1479296,686816 L1335024,686816 ZM1550416,335280 L1694688,335280 L1694688,335280 L1694688,560832 L1694688,560832 L1550416,560832 ZM1767840,308864 L1912112,308864 L1912112,308864 L1912112,575056 L1912112,575056 L1767840,575056 ZM1983232,349504 L2127504,349504 L2127504,349504 L2127504,627888 L2127504,627888 L1983232,627888 ZM2200656,382016 L2344928,382016 L2344928,382016 L2344928,747776 L2344928,747776 L2200656,747776 ZM2416048,359664 L2560320,359664 L2560320,359664 L2560320,759968 L2560320,759968 L2416048,759968 ZM2633472,316992 L2777744,316992 L2777744,316992 L2777744,682752 L2777744,682752 L2633472,682752 ZM2848864,351536 L2993136,351536 L2993136,351536 L2993136,682752 L2993136,682752 L2848864,682752 ZM3066288,532384 L3210560,532384 L3210560,532384 L3210560,780288 L3210560,780288 L3066288,780288 ZM3281680,530352 L3427984,530352 L3427984,530352 L3427984,759968 L3427984,759968 L3281680,759968 ZM3499104,692912 L3643376,692912 L3643376,692912 L3643376,918464 L3643376,918464 L3499104,918464 Z" fill="#f2a900" fill-rule="nonzero" /></g></g><g clip-path="url(#clip010)"><g transform="matrix(0.000656168,0,0,0.000656168,340,192)"><path d="M34544,0 L178816,0 L178816,0 L178816,365760 L178816,365760 L34544,365760 ZM251968,0 L396240,0 L396240,0 L396240,235712 L396240,235712 L251968,235712 ZM467360,0 L611632,0 L611632,0 L611632,310896 L611632,310896 L467360,310896 ZM684784,0 L829056,0 L829056,0 L829056,420624 L829056,420624 L684784,420624 ZM900176,0 L1046480,0 L1046480,0 L1046480,369824 L1046480,369824 L900176,369824 ZM1117600,0 L1261872,0 L1261872,0 L1261872,422656 L1261872,422656 L1117600,422656 ZM1335024,0 L1479296,0 L1479296,0 L1479296,373888 L1479296,373888 L1335024,373888 ZM1550416,0 L1694688,0 L1694688,0 L1694688,335280 L1694688,335280 L1550416,335280 ZM1767840,0 L1912112,0 L1912112,0 L1912112,308864 L1912112,308864 L1767840,308864 ZM1983232,0 L2127504,0 L2127504,0 L2127504,349504 L2127504,349504 L1983232,349504 ZM2200656,0 L2344928,0 L2344928,0 L2344928,382016 L2344928,382016 L2200656,382016 ZM2416048,0 L2560320,0 L2560320,0 L2560320,359664 L2560320,359664 L2416048,359664 ZM2633472,0 L2777744,0 L2777744,0 L2777744,316992 L2777744,316992 L2633472,316992 ZM2848864,0 L2993136,0 L2993136,0 L2993136,351536 L2993136,351536 L2848864,351536 ZM3066288,0 L3210560,0 L3210560,0 L3210560,532384 L3210560,532384 L3066288,532384 ZM3281680,0 L3427984,0 L3427984,0 L3427984,530352 L3427984,530352 L3281680,530352 ZM3499104,0 L3643376,0 L3643376,0 L3643376,692912 L3643376,692912 L3499104,692912 Z" fill="#006980" fill-rule="nonzero" /></g></g><g clip-path="url(#clip011)"><g transform="matrix(0.000656168,0,0,0.000656168,340,1441.333)"><g><path d="M0.002454138,-6773.333 L3679952,-6772 " stroke-width="3386.667" stroke-linejoin="round" stroke-miterlimit="13.33333" stroke="#000000" fill="none" fill-rule="evenodd" /><path d="M-0.001227069,3386.667 L3679952,3388 " stroke-width="10160" stroke-linejoin="round" stroke-miterlimit="13.33333" stroke="#000000" fill="none" fill-rule="evenodd" /></g></g></g><g><g clip-path="url(#clip012)"><g><g transform="translate(118,1470.922)"><text><tspan x="0" y="0" font-family="Connections Cond Light,Arial Narrow" font-weight="normal" font-style="normal" font-size="105.3333" fill="#000000">0%</tspan></text></g></g></g></g><g><g clip-path="url(#clip013)"><g><g transform="translate(67.33334,1345.944)"><text><tspan x="0" y="0" font-family="Connections Cond Light,Arial Narrow" font-weight="normal" font-style="normal" font-size="105.3333" fill="#000000">10%</tspan></text></g></g></g></g><g><g clip-path="url(#clip014)"><g><g transform="translate(67.33334,1220.965)"><text><tspan x="0" y="0" font-family="Connections Cond Light,Arial Narrow" font-weight="normal" font-style="normal" font-size="105.3333" fill="#000000">20%</tspan></text></g></g></g></g><g><g clip-path="url(#clip015)"><g><g transform="translate(67.33334,1095.987)"><text><tspan x="0" y="0" font-family="Connections Cond Light,Arial Narrow" font-weight="normal" font-style="normal" font-size="105.3333" fill="#000000">30%</tspan></text></g></g></g></g><g><g clip-path="url(#clip016)"><g><g transform="translate(67.33334,971.0088)"><text><tspan x="0" y="0" font-family="Connections Cond Light,Arial Narrow" font-weight="normal" font-style="normal" font-size="105.3333" fill="#000000">40%</tspan></text></g></g></g></g><g><g clip-path="url(#clip017)"><g><g transform="translate(67.33334,846.0298)"><text><tspan x="0" y="0" font-family="Connections Cond Light,Arial Narrow" font-weight="normal" font-style="normal" font-size="105.3333" fill="#000000">50%</tspan></text></g></g></g></g><g><g clip-path="url(#clip018)"><g><g transform="translate(67.33334,721.0516)"><text><tspan x="0" y="0" font-family="Connections Cond Light,Arial Narrow" font-weight="normal" font-style="normal" font-size="105.3333" fill="#000000">60%</tspan></text></g></g></g></g><g><g clip-path="url(#clip019)"><g><g transform="translate(67.33334,596.0735)"><text><tspan x="0" y="0" font-family="Connections Cond Light,Arial Narrow" font-weight="normal" font-style="normal" font-size="105.3333" fill="#000000">70%</tspan></text></g></g></g></g><g><g clip-path="url(#clip020)"><g><g transform="translate(67.33334,471.0954)"><text><tspan x="0" y="0" font-family="Connections Cond Light,Arial Narrow" font-weight="normal" font-style="normal" font-size="105.3333" fill="#000000">80%</tspan></text></g></g></g></g><g><g clip-path="url(#clip021)"><g><g transform="translate(67.33334,346.1164)"><text><tspan x="0" y="0" font-family="Connections Cond Light,Arial Narrow" font-weight="normal" font-style="normal" font-size="105.3333" fill="#000000">90%</tspan></text></g></g></g></g><g><g clip-path="url(#clip022)"><g><g transform="translate(16.66667,221.1382)"><text><tspan x="0" y="0" font-family="Connections Cond Light,Arial Narrow" font-weight="normal" font-style="normal" font-size="105.3333" fill="#000000">100%</tspan></text></g></g></g></g><g><g clip-path="url(#clip023)"><g><g transform="matrix(0,-1,1,0,443.6973,1706.505)"><text><tspan x="0" y="0" font-family="Connections Cond Light,Arial Narrow" font-weight="normal" font-style="normal" font-size="105.3333" fill="#000000">2009</tspan></text></g></g></g></g><g><g clip-path="url(#clip024)"><g><g transform="matrix(0,-1,1,0,585.7594,1706.505)"><text><tspan x="0" y="0" font-family="Connections Cond Light,Arial Narrow" font-weight="normal" font-style="normal" font-size="105.3333" fill="#000000">2010</tspan></text></g></g></g></g><g><g clip-path="url(#clip025)"><g><g transform="matrix(0,-1,1,0,727.8215,1706.505)"><text><tspan x="0" y="0" font-family="Connections Cond Light,Arial Narrow" font-weight="normal" font-style="normal" font-size="105.3333" fill="#000000">2011</tspan></text></g></g></g></g><g><g clip-path="url(#clip026)"><g><g transform="matrix(0,-1,1,0,869.8836,1706.505)"><text><tspan x="0" y="0" font-family="Connections Cond Light,Arial Narrow" font-weight="normal" font-style="normal" font-size="105.3333" fill="#000000">2012</tspan></text></g></g></g></g><g><g clip-path="url(#clip027)"><g><g transform="matrix(0,-1,1,0,1011.946,1706.505)"><text><tspan x="0" y="0" font-family="Connections Cond Light,Arial Narrow" font-weight="normal" font-style="normal" font-size="105.3333" fill="#000000">2013</tspan></text></g></g></g></g><g><g clip-path="url(#clip028)"><g><g transform="matrix(0,-1,1,0,1154.008,1706.505)"><text><tspan x="0" y="0" font-family="Connections Cond Light,Arial Narrow" font-weight="normal" font-style="normal" font-size="105.3333" fill="#000000">2014</tspan></text></g></g></g></g><g><g clip-path="url(#clip029)"><g><g transform="matrix(0,-1,1,0,1296.07,1706.505)"><text><tspan x="0" y="0" font-family="Connections Cond Light,Arial Narrow" font-weight="normal" font-style="normal" font-size="105.3333" fill="#000000">2015</tspan></text></g></g></g></g><g><g clip-path="url(#clip030)"><g><g transform="matrix(0,-1,1,0,1438.132,1706.505)"><text><tspan x="0" y="0" font-family="Connections Cond Light,Arial Narrow" font-weight="normal" font-style="normal" font-size="105.3333" fill="#000000">2016</tspan></text></g></g></g></g><g><g clip-path="url(#clip031)"><g><g transform="matrix(0,-1,1,0,1580.194,1706.505)"><text><tspan x="0" y="0" font-family="Connections Cond Light,Arial Narrow" font-weight="normal" font-style="normal" font-size="105.3333" fill="#000000">2017</tspan></text></g></g></g></g><g><g clip-path="url(#clip032)"><g><g transform="matrix(0,-1,1,0,1722.256,1706.505)"><text><tspan x="0" y="0" font-family="Connections Cond Light,Arial Narrow" font-weight="normal" font-style="normal" font-size="105.3333" fill="#000000">2018</tspan></text></g></g></g></g><g><g clip-path="url(#clip033)"><g><g transform="matrix(0,-1,1,0,1864.318,1706.505)"><text><tspan x="0" y="0" font-family="Connections Cond Light,Arial Narrow" font-weight="normal" font-style="normal" font-size="105.3333" fill="#000000">2019</tspan></text></g></g></g></g><g><g clip-path="url(#clip034)"><g><g transform="matrix(0,-1,1,0,2006.38,1706.505)"><text><tspan x="0" y="0" font-family="Connections Cond Light,Arial Narrow" font-weight="normal" font-style="normal" font-size="105.3333" fill="#000000">2020</tspan></text></g></g></g></g><g><g clip-path="url(#clip035)"><g><g transform="matrix(0,-1,1,0,2148.443,1706.505)"><text><tspan x="0" y="0" font-family="Connections Cond Light,Arial Narrow" font-weight="normal" font-style="normal" font-size="105.3333" fill="#000000">2021</tspan></text></g></g></g></g><g><g clip-path="url(#clip036)"><g><g transform="matrix(0,-1,1,0,2290.505,1706.505)"><text><tspan x="0" y="0" font-family="Connections Cond Light,Arial Narrow" font-weight="normal" font-style="normal" font-size="105.3333" fill="#000000">2022</tspan></text></g></g></g></g><g><g clip-path="url(#clip037)"><g><g transform="matrix(0,-1,1,0,2432.567,1706.505)"><text><tspan x="0" y="0" font-family="Connections Cond Light,Arial Narrow" font-weight="normal" font-style="normal" font-size="105.3333" fill="#000000">2023</tspan></text></g></g></g></g><g><g clip-path="url(#clip038)"><g><g transform="matrix(0,-1,1,0,2574.629,1706.505)"><text><tspan x="0" y="0" font-family="Connections Cond Light,Arial Narrow" font-weight="normal" font-style="normal" font-size="105.3333" fill="#000000">2024</tspan></text></g></g></g></g><g><g clip-path="url(#clip039)"><g><g transform="matrix(0,-1,1,0,2716.691,1706.505)"><text><tspan x="0" y="0" font-family="Connections Cond Light,Arial Narrow" font-weight="normal" font-style="normal" font-size="105.3333" fill="#000000">2025</tspan></text></g></g></g></g><g clip-path="url(#clip040)"><g transform="matrix(0.000656168,0,0,0.000656168,272,41.33333)"><path d="M0,0 L3777488,0 L3777488,211328 L0,211328 Z" fill="#4f81bd" fill-opacity="0" fill-rule="evenodd" /></g></g><g clip-path="url(#clip041)"><g transform="matrix(0.000656168,0,0,0.000656168,393.3333,84)"><path d="M0,0 L81280.01,0 L81280.01,81280.01 L0,81280.01 Z" fill="#012169" fill-rule="evenodd" /></g></g><g><g clip-path="url(#clip042)"><g><g transform="translate(469.9073,140.2922)"><text><tspan x="0" y="0" font-family="Connections Cond Light,Arial Narrow" font-weight="normal" font-style="normal" font-size="105.3333" fill="#000000">AMAT</tspan></text></g></g></g></g><g clip-path="url(#clip043)"><g transform="matrix(0.000656168,0,0,0.000656168,818.6667,84)"><path d="M0,0 L81280.01,0 L81280.01,81280.01 L0,81280.01 Z" fill="#009cde" fill-rule="evenodd" /></g></g><g><g clip-path="url(#clip044)"><g><g transform="translate(895.293,140.2922)"><text><tspan x="0" y="0" font-family="Connections Cond Light,Arial Narrow" font-weight="normal" font-style="normal" font-size="105.3333" fill="#000000">Tokyo Electron</tspan></text></g></g></g></g><g clip-path="url(#clip045)"><g transform="matrix(0.000656168,0,0,0.000656168,1578.667,84)"><path d="M0,0 L83312,0 L83312,81280.01 L0,81280.01 Z" fill="#f2a900" fill-rule="evenodd" /></g></g><g><g clip-path="url(#clip046)"><g><g transform="translate(1656.18,140.2922)"><text><tspan x="0" y="0" font-family="Connections Cond Light,Arial Narrow" font-weight="normal" font-style="normal" font-size="105.3333" fill="#000000">Kokusai Electric</tspan></text></g></g></g></g><g clip-path="url(#clip047)"><g transform="matrix(0.000656168,0,0,0.000656168,2369.333,84)"><path d="M0,0 L83312,0 L83312,81280.01 L0,81280.01 Z" fill="#006980" fill-rule="evenodd" /></g></g><g><g clip-path="url(#clip048)"><g><g transform="translate(2446.846,140.2922)"><text><tspan x="0" y="0" font-family="Connections Cond Light,Arial Narrow" font-weight="normal" font-style="normal" font-size="105.3333" fill="#000000">Other</tspan></text></g></g></g></g><g /></g></g></g></g></g></g></g></g></g></svg>