<?xml version="1.0" encoding="utf-8" standalone="yes"?>
<svg xmlns="http://www.w3.org/2000/svg" xmlns:xlink="http://www.w3.org/1999/xlink" version="1.1" x="0" y="0" viewBox="0 0 1500 833" width="1500" height="833">
	<!--Generated by Aspose.Words for Java 23.4.0-->
	<defs>
		<clipPath id="clip001">
			<path d="M0,0 L1500,0 L1500,833 L0,833 Z" clip-rule="evenodd" />
		</clipPath>
		<clipPath id="clip002">
			<path d="M0,0 L1333.3334,0 L1333.3334,1333.3334 L0,1333.3334 Z" clip-rule="evenodd" />
		</clipPath>
		<clipPath id="clip003">
			<path d="M121.333336,121.333336 L121.333336,2034.6666 L4621.3335,2034.6666 L4621.3335,121.333336 Z" clip-rule="evenodd" />
		</clipPath>
		<clipPath id="clip004">
			<path d="M0,0 L0,2630.6667 L4734.6665,2630.6667 L4734.6665,0 Z" clip-rule="evenodd" />
		</clipPath>
		<clipPath id="clip005">
			<path d="M0,0 L4734.6665,0 L4734.6665,2630.6667 L0,2630.6667 Z" clip-rule="evenodd" />
		</clipPath>
		<clipPath id="clip006">
			<path d="M0,0 L4734.6665,0 L4734.6665,2630.6667 L0,2630.6667 Z" clip-rule="evenodd" />
		</clipPath>
		<clipPath id="clip007">
			<path d="M0,0 L4734.6665,0 L4734.6665,2630.6667 L0,2630.6667 Z" clip-rule="evenodd" />
		</clipPath>
		<clipPath id="clip008">
			<path d="M0,0 L4734.6665,0 L4734.6665,2630.6667 L0,2630.6667 Z" clip-rule="evenodd" />
		</clipPath>
		<clipPath id="clip009">
			<path d="M0,0 L4734.6665,0 L4734.6665,2630.6667 L0,2630.6667 Z" clip-rule="evenodd" />
		</clipPath>
		<clipPath id="clip010">
			<path d="M0,0 L4734.6665,0 L4734.6665,2630.6667 L0,2630.6667 Z" clip-rule="evenodd" />
		</clipPath>
		<clipPath id="clip011">
			<path d="M0,0 L4734.6665,0 L4734.6665,2630.6667 L0,2630.6667 Z" clip-rule="evenodd" />
		</clipPath>
		<clipPath id="clip012">
			<path d="M0,0 L4734.6665,0 L4734.6665,2630.6667 L0,2630.6667 Z" clip-rule="evenodd" />
		</clipPath>
		<clipPath id="clip013">
			<path d="M0,0 L4734.6665,0 L4734.6665,2630.6667 L0,2630.6667 Z" clip-rule="evenodd" />
		</clipPath>
		<clipPath id="clip014">
			<path d="M0,0 L4734.6665,0 L4734.6665,2630.6667 L0,2630.6667 Z" clip-rule="evenodd" />
		</clipPath>
		<clipPath id="clip015">
			<path d="M0,0 L4734.6665,0 L4734.6665,2630.6667 L0,2630.6667 Z" clip-rule="evenodd" />
		</clipPath>
		<clipPath id="clip016">
			<path d="M0,0 L4734.6665,0 L4734.6665,2630.6667 L0,2630.6667 Z" clip-rule="evenodd" />
		</clipPath>
		<clipPath id="clip017">
			<path d="M0,0 L0,2630.6667 L4734.6665,2630.6667 L4734.6665,0 Z" clip-rule="evenodd" />
		</clipPath>
		<clipPath id="clip018">
			<path d="M0,0 L4734.6665,0 L4734.6665,2630.6667 L0,2630.6667 Z" clip-rule="evenodd" />
		</clipPath>
	</defs>
	<g>
		<rect x="0" y="0" width="1500" height="833" style="fill: #ffffff; stroke: #000000; stroke-width: 0.0" />
		<g transform="translate(96,96)">
			<g>
				<g />
			</g>
		</g>
		<g>
			<g clip-path="url(#clip001)">
				<g>
					<g transform="matrix(1.125,0,0,0.62475,0,0)" clip-path="url(#clip002)">
						<g transform="matrix(0.2814523,0,0,0.5065856,0.37524414,0.67545575)">
							<g clip-path="url(#clip003)">
								<g transform="matrix(6.56168E-4,0,0,6.56168E-4,122.666664,122.666664)">
									<path d="M392176,2810256 L749808,2810256 L749808,2810256 L749808,2901696 L749808,2901696 L392176,2901696 ZM1532128,2497328 L1889760,2497328 L1889760,2497328 L1889760,2901696 L1889760,2901696 L1532128,2901696 ZM2672080,2123440 L3029712,2123440 L3029712,2123440 L3029712,2901696 L3029712,2901696 L2672080,2901696 ZM3814064,1599184 L4171696,1599184 L4171696,1599184 L4171696,2901696 L4171696,2901696 L3814064,2901696 ZM4954016,1034288 L5311648,1034288 L5311648,1034288 L5311648,2901696 L5311648,2901696 L4954016,2901696 ZM6096000,461264 L6453632,461264 L6453632,461264 L6453632,2901696 L6453632,2901696 L6096000,2901696 Z" fill="#255be3" fill-rule="nonzero" />
									<path d="M392176,2810256 L749808,2810256 L749808,2810256 L749808,2901696 L749808,2901696 L392176,2901696 ZM1532128,2497328 L1889760,2497328 L1889760,2497328 L1889760,2901696 L1889760,2901696 L1532128,2901696 ZM2672080,2123440 L3029712,2123440 L3029712,2123440 L3029712,2901696 L3029712,2901696 L2672080,2901696 ZM3814064,1599184 L4171696,1599184 L4171696,1599184 L4171696,2901696 L4171696,2901696 L3814064,2901696 ZM4954016,1034288 L5311648,1034288 L5311648,1034288 L5311648,2901696 L5311648,2901696 L4954016,2901696 ZM6096000,461264 L6453632,461264 L6453632,461264 L6453632,2901696 L6453632,2901696 L6096000,2901696 Z" stroke-width="12700" stroke-linejoin="round" stroke-miterlimit="13.333333" stroke="#0f1632" fill="none" fill-rule="nonzero" />
								</g>
							</g>
							<g clip-path="url(#clip004)">
								<g transform="matrix(6.56168E-4,0,0,6.56168E-4,122.666664,2026.6666)">
									<path d="M0,0 L6843776,1.3333333 " stroke-width="12700" stroke-linejoin="round" stroke-miterlimit="13.333333" stroke="#0f1632" fill="none" fill-rule="evenodd" />
								</g>
							</g>
							<g>
								<g clip-path="url(#clip005)">
									<g>
										<g transform="translate(427.30054,1887.3048)">
											<text>
												<tspan x="0" y="0" font-family="Citi Sans Text" font-weight="normal" font-style="normal" font-size="133.33333" fill="#0f1632">4</tspan>
											</text>
											<text transform="translate(84,0)">
												<tspan x="0" y="0" font-family="Citi Sans Text" font-weight="normal" font-style="normal" font-size="133.33333" fill="#0f1632">5</tspan>
											</text>
											<text transform="translate(165.33333,0)">
												<tspan x="0" y="0" font-family="Citi Sans Text" font-weight="normal" font-style="normal" font-size="133.33333" fill="#0f1632"> </tspan>
											</text>
										</g>
									</g>
								</g>
							</g>
							<g>
								<g clip-path="url(#clip006)">
									<g>
										<g transform="translate(1150.4738,1682.3898)">
											<text>
												<tspan x="0" y="0" font-family="Citi Sans Text" font-weight="normal" font-style="normal" font-size="133.33333" fill="#0f1632">195 </tspan>
											</text>
										</g>
									</g>
								</g>
							</g>
							<g>
								<g clip-path="url(#clip007)">
									<g>
										<g transform="translate(1892.3131,1436.5516)">
											<text>
												<tspan x="0" y="0" font-family="Citi Sans Text" font-weight="normal" font-style="normal" font-size="133.33333" fill="#0f1632">3</tspan>
											</text>
											<text transform="translate(80,0)">
												<tspan x="0" y="0" font-family="Citi Sans Text" font-weight="normal" font-style="normal" font-size="133.33333" fill="#0f1632">7</tspan>
											</text>
											<text transform="translate(148,0)">
												<tspan x="0" y="0" font-family="Citi Sans Text" font-weight="normal" font-style="normal" font-size="133.33333" fill="#0f1632">6</tspan>
											</text>
											<text transform="translate(229.33333,0)">
												<tspan x="0" y="0" font-family="Citi Sans Text" font-weight="normal" font-style="normal" font-size="133.33333" fill="#0f1632"> </tspan>
											</text>
										</g>
									</g>
								</g>
							</g>
							<g>
								<g clip-path="url(#clip008)">
									<g>
										<g transform="translate(2634.1536,1092.828)">
											<text>
												<tspan x="0" y="0" font-family="Citi Sans Text" font-weight="normal" font-style="normal" font-size="133.33333" fill="#0f1632">6</tspan>
											</text>
											<text transform="translate(81.333336,0)">
												<tspan x="0" y="0" font-family="Citi Sans Text" font-weight="normal" font-style="normal" font-size="133.33333" fill="#0f1632">2</tspan>
											</text>
											<text transform="translate(158.66667,0)">
												<tspan x="0" y="0" font-family="Citi Sans Text" font-weight="normal" font-style="normal" font-size="133.33333" fill="#0f1632">8</tspan>
											</text>
											<text transform="translate(241.33333,0)">
												<tspan x="0" y="0" font-family="Citi Sans Text" font-weight="normal" font-style="normal" font-size="133.33333" fill="#0f1632"> </tspan>
											</text>
										</g>
									</g>
								</g>
							</g>
							<g>
								<g clip-path="url(#clip009)">
									<g>
										<g transform="translate(3393.3545,721.7966)">
											<text>
												<tspan x="0" y="0" font-family="Citi Sans Text" font-weight="normal" font-style="normal" font-size="133.33333" fill="#0f1632">9</tspan>
											</text>
											<text transform="translate(81.333336,0)">
												<tspan x="0" y="0" font-family="Citi Sans Text" font-weight="normal" font-style="normal" font-size="133.33333" fill="#0f1632">0</tspan>
											</text>
											<text transform="translate(168,0)">
												<tspan x="0" y="0" font-family="Citi Sans Text" font-weight="normal" font-style="normal" font-size="133.33333" fill="#0f1632">1</tspan>
											</text>
											<text transform="translate(221.33333,0)">
												<tspan x="0" y="0" font-family="Citi Sans Text" font-weight="normal" font-style="normal" font-size="133.33333" fill="#0f1632"> </tspan>
											</text>
										</g>
									</g>
								</g>
							</g>
							<g>
								<g clip-path="url(#clip010)">
									<g>
										<g transform="translate(4112.528,346.11154)">
											<text>
												<tspan x="0" y="0" font-family="Citi Sans Text" font-weight="normal" font-style="normal" font-size="133.33333" fill="#0f1632">1</tspan>
											</text>
											<text transform="translate(53.333332,0)">
												<tspan x="0" y="0" font-family="Citi Sans Text" font-weight="normal" font-style="normal" font-size="133.33333" fill="#0f1632">,</tspan>
											</text>
											<text transform="translate(89.333336,0)">
												<tspan x="0" y="0" font-family="Citi Sans Text" font-weight="normal" font-style="normal" font-size="133.33333" fill="#0f1632">1</tspan>
											</text>
											<text transform="translate(142.66667,0)">
												<tspan x="0" y="0" font-family="Citi Sans Text" font-weight="normal" font-style="normal" font-size="133.33333" fill="#0f1632">7</tspan>
											</text>
											<text transform="translate(210.66667,0)">
												<tspan x="0" y="0" font-family="Citi Sans Text" font-weight="normal" font-style="normal" font-size="133.33333" fill="#0f1632">7</tspan>
											</text>
											<text transform="translate(278.66666,0)">
												<tspan x="0" y="0" font-family="Citi Sans Text" font-weight="normal" font-style="normal" font-size="133.33333" fill="#0f1632"> </tspan>
											</text>
										</g>
									</g>
								</g>
							</g>
							<g>
								<g clip-path="url(#clip011)">
									<g>
										<g transform="translate(295.8005,2240.622)">
											<text>
												<tspan x="0" y="0" font-family="Citi Sans Text" font-weight="normal" font-style="normal" font-size="133.33333" fill="#0f1632">2</tspan>
											</text>
											<text transform="translate(77.333336,0)">
												<tspan x="0" y="0" font-family="Citi Sans Text" font-weight="normal" font-style="normal" font-size="133.33333" fill="#0f1632">0</tspan>
											</text>
											<text transform="translate(165.33333,0)">
												<tspan x="0" y="0" font-family="Citi Sans Text" font-weight="normal" font-style="normal" font-size="133.33333" fill="#0f1632">2</tspan>
											</text>
											<text transform="translate(242.66667,0)">
												<tspan x="0" y="0" font-family="Citi Sans Text" font-weight="normal" font-style="normal" font-size="133.33333" fill="#0f1632">5</tspan>
											</text>
											<text transform="translate(324,0)">
												<tspan x="0" y="0" font-family="Citi Sans Text" font-weight="normal" font-style="normal" font-size="133.33333" fill="#0f1632">E</tspan>
											</text>
										</g>
									</g>
								</g>
							</g>
							<g>
								<g clip-path="url(#clip012)">
									<g>
										<g transform="translate(1044.307,2240.622)">
											<text>
												<tspan x="0" y="0" font-family="Citi Sans Text" font-weight="normal" font-style="normal" font-size="133.33333" fill="#0f1632">2</tspan>
											</text>
											<text transform="translate(77.333336,0)">
												<tspan x="0" y="0" font-family="Citi Sans Text" font-weight="normal" font-style="normal" font-size="133.33333" fill="#0f1632">0</tspan>
											</text>
											<text transform="translate(165.33333,0)">
												<tspan x="0" y="0" font-family="Citi Sans Text" font-weight="normal" font-style="normal" font-size="133.33333" fill="#0f1632">2</tspan>
											</text>
											<text transform="translate(242.66667,0)">
												<tspan x="0" y="0" font-family="Citi Sans Text" font-weight="normal" font-style="normal" font-size="133.33333" fill="#0f1632">6</tspan>
											</text>
											<text transform="translate(324,0)">
												<tspan x="0" y="0" font-family="Citi Sans Text" font-weight="normal" font-style="normal" font-size="133.33333" fill="#0f1632">E</tspan>
											</text>
										</g>
									</g>
								</g>
							</g>
							<g>
								<g clip-path="url(#clip013)">
									<g>
										<g transform="translate(1799.2852,2240.622)">
											<text>
												<tspan x="0" y="0" font-family="Citi Sans Text" font-weight="normal" font-style="normal" font-size="133.33333" fill="#0f1632">2</tspan>
											</text>
											<text transform="translate(77.333336,0)">
												<tspan x="0" y="0" font-family="Citi Sans Text" font-weight="normal" font-style="normal" font-size="133.33333" fill="#0f1632">0</tspan>
											</text>
											<text transform="translate(165.33333,0)">
												<tspan x="0" y="0" font-family="Citi Sans Text" font-weight="normal" font-style="normal" font-size="133.33333" fill="#0f1632">2</tspan>
											</text>
											<text transform="translate(242.66667,0)">
												<tspan x="0" y="0" font-family="Citi Sans Text" font-weight="normal" font-style="normal" font-size="133.33333" fill="#0f1632">7</tspan>
											</text>
											<text transform="translate(310.66666,0)">
												<tspan x="0" y="0" font-family="Citi Sans Text" font-weight="normal" font-style="normal" font-size="133.33333" fill="#0f1632">E</tspan>
											</text>
										</g>
									</g>
								</g>
							</g>
							<g>
								<g clip-path="url(#clip014)">
									<g>
										<g transform="translate(2540.5144,2240.622)">
											<text>
												<tspan x="0" y="0" font-family="Citi Sans Text" font-weight="normal" font-style="normal" font-size="133.33333" fill="#0f1632">2</tspan>
											</text>
											<text transform="translate(77.333336,0)">
												<tspan x="0" y="0" font-family="Citi Sans Text" font-weight="normal" font-style="normal" font-size="133.33333" fill="#0f1632">0</tspan>
											</text>
											<text transform="translate(165.33333,0)">
												<tspan x="0" y="0" font-family="Citi Sans Text" font-weight="normal" font-style="normal" font-size="133.33333" fill="#0f1632">2</tspan>
											</text>
											<text transform="translate(242.66667,0)">
												<tspan x="0" y="0" font-family="Citi Sans Text" font-weight="normal" font-style="normal" font-size="133.33333" fill="#0f1632">8</tspan>
											</text>
											<text transform="translate(325.33334,0)">
												<tspan x="0" y="0" font-family="Citi Sans Text" font-weight="normal" font-style="normal" font-size="133.33333" fill="#0f1632">E</tspan>
											</text>
										</g>
									</g>
								</g>
							</g>
							<g>
								<g clip-path="url(#clip015)">
									<g>
										<g transform="translate(3289.827,2240.622)">
											<text>
												<tspan x="0" y="0" font-family="Citi Sans Text" font-weight="normal" font-style="normal" font-size="133.33333" fill="#0f1632">2</tspan>
											</text>
											<text transform="translate(77.333336,0)">
												<tspan x="0" y="0" font-family="Citi Sans Text" font-weight="normal" font-style="normal" font-size="133.33333" fill="#0f1632">0</tspan>
											</text>
											<text transform="translate(165.33333,0)">
												<tspan x="0" y="0" font-family="Citi Sans Text" font-weight="normal" font-style="normal" font-size="133.33333" fill="#0f1632">2</tspan>
											</text>
											<text transform="translate(242.66667,0)">
												<tspan x="0" y="0" font-family="Citi Sans Text" font-weight="normal" font-style="normal" font-size="133.33333" fill="#0f1632">9</tspan>
											</text>
											<text transform="translate(324,0)">
												<tspan x="0" y="0" font-family="Citi Sans Text" font-weight="normal" font-style="normal" font-size="133.33333" fill="#0f1632">E</tspan>
											</text>
										</g>
									</g>
								</g>
							</g>
							<g>
								<g clip-path="url(#clip016)">
									<g>
										<g transform="translate(4034.1943,2240.622)">
											<text>
												<tspan x="0" y="0" font-family="Citi Sans Text" font-weight="normal" font-style="normal" font-size="133.33333" fill="#0f1632">2</tspan>
											</text>
											<text transform="translate(77.333336,0)">
												<tspan x="0" y="0" font-family="Citi Sans Text" font-weight="normal" font-style="normal" font-size="133.33333" fill="#0f1632">0</tspan>
											</text>
											<text transform="translate(165.33333,0)">
												<tspan x="0" y="0" font-family="Citi Sans Text" font-weight="normal" font-style="normal" font-size="133.33333" fill="#0f1632">3</tspan>
											</text>
											<text transform="translate(245.33333,0)">
												<tspan x="0" y="0" font-family="Citi Sans Text" font-weight="normal" font-style="normal" font-size="133.33333" fill="#0f1632">0</tspan>
											</text>
											<text transform="translate(332,0)">
												<tspan x="0" y="0" font-family="Citi Sans Text" font-weight="normal" font-style="normal" font-size="133.33333" fill="#0f1632">E</tspan>
											</text>
										</g>
									</g>
								</g>
							</g>
							<g clip-path="url(#clip017)">
								<g transform="matrix(6.56168E-4,0,0,6.56168E-4,1313.3334,2417.3333)">
									<path d="M0,0 L107696,0 L107696,109728 L0,109728 Z" fill="#255be3" fill-rule="evenodd" />
									<path d="M0,0 L107696,0 L107696,0 L107696,109728 L107696,109728 L0,109728 Z" stroke-width="12700" stroke-linejoin="round" stroke-miterlimit="13.333333" stroke="#0f1632" fill="none" fill-rule="evenodd" />
								</g>
							</g>
							<g>
								<g clip-path="url(#clip018)">
									<g>
										<g transform="translate(1415.084,2496.7234)">
											<text>
												<tspan x="0" y="0" font-family="Citi Sans Text" font-weight="normal" font-style="normal" font-size="133.33333" fill="#0f1632">T</tspan>
											</text>
											<text transform="translate(76,0)">
												<tspan x="0" y="0" font-family="Citi Sans Text" font-weight="normal" font-style="normal" font-size="133.33333" fill="#0f1632">o</tspan>
											</text>
											<text transform="translate(152,0)">
												<tspan x="0" y="0" font-family="Citi Sans Text" font-weight="normal" font-style="normal" font-size="133.33333" fill="#0f1632">t</tspan>
											</text>
											<text transform="translate(202.66667,0)">
												<tspan x="0" y="0" font-family="Citi Sans Text" font-weight="normal" font-style="normal" font-size="133.33333" fill="#0f1632">a</tspan>
											</text>
											<text transform="translate(276,0)">
												<tspan x="0" y="0" font-family="Citi Sans Text" font-weight="normal" font-style="normal" font-size="133.33333" fill="#0f1632">l</tspan>
											</text>
											<text transform="translate(310.66666,0)">
												<tspan x="0" y="0" font-family="Citi Sans Text" font-weight="normal" font-style="normal" font-size="133.33333" fill="#0f1632"> </tspan>
											</text>
											<text transform="translate(337.33334,0)">
												<tspan x="0" y="0" font-family="Citi Sans Text" font-weight="normal" font-style="normal" font-size="133.33333" fill="#0f1632">A</tspan>
											</text>
											<text transform="translate(421.33334,0)">
												<tspan x="0" y="0" font-family="Citi Sans Text" font-weight="normal" font-style="normal" font-size="133.33333" fill="#0f1632">I</tspan>
											</text>
											<text transform="translate(460,0)">
												<tspan x="0" y="0" font-family="Citi Sans Text" font-weight="normal" font-style="normal" font-size="133.33333" fill="#0f1632"> </tspan>
											</text>
											<text transform="translate(486.66666,0)">
												<tspan x="0" y="0" font-family="Citi Sans Text" font-weight="normal" font-style="normal" font-size="133.33333" fill="#0f1632">S</tspan>
											</text>
											<text transform="translate(569.3333,0)">
												<tspan x="0" y="0" font-family="Citi Sans Text" font-weight="normal" font-style="normal" font-size="133.33333" fill="#0f1632">e</tspan>
											</text>
											<text transform="translate(640,0)">
												<tspan x="0" y="0" font-family="Citi Sans Text" font-weight="normal" font-style="normal" font-size="133.33333" fill="#0f1632">r</tspan>
											</text>
											<text transform="translate(686.6667,0)">
												<tspan x="0" y="0" font-family="Citi Sans Text" font-weight="normal" font-style="normal" font-size="133.33333" fill="#0f1632">v</tspan>
											</text>
											<text transform="translate(752,0)">
												<tspan x="0" y="0" font-family="Citi Sans Text" font-weight="normal" font-style="normal" font-size="133.33333" fill="#0f1632">i</tspan>
											</text>
											<text transform="translate(785.3333,0)">
												<tspan x="0" y="0" font-family="Citi Sans Text" font-weight="normal" font-style="normal" font-size="133.33333" fill="#0f1632">c</tspan>
											</text>
											<text transform="translate(853.3333,0)">
												<tspan x="0" y="0" font-family="Citi Sans Text" font-weight="normal" font-style="normal" font-size="133.33333" fill="#0f1632">e</tspan>
											</text>
											<text transform="translate(922.6667,0)">
												<tspan x="0" y="0" font-family="Citi Sans Text" font-weight="normal" font-style="normal" font-size="133.33333" fill="#0f1632"> </tspan>
											</text>
											<text transform="translate(949.3333,0)">
												<tspan x="0" y="0" font-family="Citi Sans Text" font-weight="normal" font-style="normal" font-size="133.33333" fill="#0f1632">R</tspan>
											</text>
											<text transform="translate(1036,0)">
												<tspan x="0" y="0" font-family="Citi Sans Text" font-weight="normal" font-style="normal" font-size="133.33333" fill="#0f1632">e</tspan>
											</text>
											<text transform="translate(1105.3334,0)">
												<tspan x="0" y="0" font-family="Citi Sans Text" font-weight="normal" font-style="normal" font-size="133.33333" fill="#0f1632">v</tspan>
											</text>
											<text transform="translate(1172,0)">
												<tspan x="0" y="0" font-family="Citi Sans Text" font-weight="normal" font-style="normal" font-size="133.33333" fill="#0f1632">e</tspan>
											</text>
											<text transform="translate(1241.3334,0)">
												<tspan x="0" y="0" font-family="Citi Sans Text" font-weight="normal" font-style="normal" font-size="133.33333" fill="#0f1632">n</tspan>
											</text>
											<text transform="translate(1320,0)">
												<tspan x="0" y="0" font-family="Citi Sans Text" font-weight="normal" font-style="normal" font-size="133.33333" fill="#0f1632">u</tspan>
											</text>
											<text transform="translate(1398.6666,0)">
												<tspan x="0" y="0" font-family="Citi Sans Text" font-weight="normal" font-style="normal" font-size="133.33333" fill="#0f1632">e</tspan>
											</text>
											<text transform="translate(1468,0)">
												<tspan x="0" y="0" font-family="Citi Sans Text" font-weight="normal" font-style="normal" font-size="133.33333" fill="#0f1632"> </tspan>
											</text>
											<text transform="translate(1494.6666,0)">
												<tspan x="0" y="0" font-family="Citi Sans Text" font-weight="normal" font-style="normal" font-size="133.33333" fill="#0f1632">(</tspan>
											</text>
											<text transform="translate(1534.6666,0)">
												<tspan x="0" y="0" font-family="Citi Sans Text" font-weight="normal" font-style="normal" font-size="133.33333" fill="#0f1632">$</tspan>
											</text>
											<text transform="translate(1618.6666,0)">
												<tspan x="0" y="0" font-family="Citi Sans Text" font-weight="normal" font-style="normal" font-size="133.33333" fill="#0f1632"> </tspan>
											</text>
											<text transform="translate(1645.3334,0)">
												<tspan x="0" y="0" font-family="Citi Sans Text" font-weight="normal" font-style="normal" font-size="133.33333" fill="#0f1632">b</tspan>
											</text>
											<text transform="translate(1725.3334,0)">
												<tspan x="0" y="0" font-family="Citi Sans Text" font-weight="normal" font-style="normal" font-size="133.33333" fill="#0f1632">i</tspan>
											</text>
											<text transform="translate(1758.6666,0)">
												<tspan x="0" y="0" font-family="Citi Sans Text" font-weight="normal" font-style="normal" font-size="133.33333" fill="#0f1632">l</tspan>
											</text>
											<text transform="translate(1793.3334,0)">
												<tspan x="0" y="0" font-family="Citi Sans Text" font-weight="normal" font-style="normal" font-size="133.33333" fill="#0f1632">l</tspan>
											</text>
											<text transform="translate(1826.6666,0)">
												<tspan x="0" y="0" font-family="Citi Sans Text" font-weight="normal" font-style="normal" font-size="133.33333" fill="#0f1632">i</tspan>
											</text>
											<text transform="translate(1861.3334,0)">
												<tspan x="0" y="0" font-family="Citi Sans Text" font-weight="normal" font-style="normal" font-size="133.33333" fill="#0f1632">o</tspan>
											</text>
											<text transform="translate(1937.3334,0)">
												<tspan x="0" y="0" font-family="Citi Sans Text" font-weight="normal" font-style="normal" font-size="133.33333" fill="#0f1632">n</tspan>
											</text>
											<text transform="translate(2016,0)">
												<tspan x="0" y="0" font-family="Citi Sans Text" font-weight="normal" font-style="normal" font-size="133.33333" fill="#0f1632">)</tspan>
											</text>
										</g>
									</g>
								</g>
							</g>
						</g>
					</g>
				</g>
			</g>
		</g>
	</g>
</svg>