<svg version="1.1" width="100%" height="100%" viewBox="0 0 355 209" xmlns="http://www.w3.org/2000/svg" xmlns:xlink="http://www.w3.org/1999/xlink"><style type="text/css" /><defs><clipPath id="clip001"><path d="M0,0 L2761.333,0 L2761.333,1741.333 L0,1741.333 Z" clip-rule="evenodd" /></clipPath><clipPath id="clip002"><path d="M0,0 L2761.333,0 L2761.333,1741.333 L0,1741.333 Z" clip-rule="evenodd" /></clipPath><clipPath id="clip003"><path d="M0,0 L2761.333,0 L2761.333,1741.333 L0,1741.333 Z" clip-rule="evenodd" /></clipPath><clipPath id="clip004"><path d="M0,0 L5200,0 L5200,1850.667 L0,1850.667 Z" clip-rule="evenodd" /></clipPath><clipPath id="clip005"><path d="M-800,0 L6000,0 L6000,1850.667 L-800,1850.667 Z" clip-rule="evenodd" /></clipPath><clipPath id="clip006"><path d="M0,0 L2753.333,0 L2753.333,1741.333 L0,1741.333 Z" clip-rule="evenodd" /></clipPath><clipPath id="clip007"><path d="M256,60 L2473.333,60 L2473.333,1434.667 L256,1434.667 Z" clip-rule="evenodd" /></clipPath><clipPath id="clip008"><path d="M0,0 L2753.333,0 L2753.333,1741.333 L0,1741.333 Z" clip-rule="evenodd" /></clipPath><clipPath id="clip009"><path d="M256,60 L2473.333,60 L2473.333,1434.667 L256,1434.667 Z" clip-rule="evenodd" /></clipPath><clipPath id="clip010"><path d="M0,0 L2753.333,0 L2753.333,1741.333 L0,1741.333 Z" clip-rule="evenodd" /></clipPath><clipPath id="clip011"><path d="M0,0 L2753.333,0 L2753.333,1741.333 L0,1741.333 Z" clip-rule="evenodd" /></clipPath><clipPath id="clip012"><path d="M0,0 L2753.333,0 L2753.333,1741.333 L0,1741.333 Z" clip-rule="evenodd" /></clipPath><clipPath id="clip013"><path d="M0,0 L2753.333,0 L2753.333,1741.333 L0,1741.333 Z" clip-rule="evenodd" /></clipPath><clipPath id="clip014"><path d="M0,0 L2753.333,0 L2753.333,1741.333 L0,1741.333 Z" clip-rule="evenodd" /></clipPath><clipPath id="clip015"><path d="M0,0 L2753.333,0 L2753.333,1741.333 L0,1741.333 Z" clip-rule="evenodd" /></clipPath><clipPath id="clip016"><path d="M0,0 L2753.333,0 L2753.333,1741.333 L0,1741.333 Z" clip-rule="evenodd" /></clipPath><clipPath id="clip017"><path d="M0,0 L2753.333,0 L2753.333,1741.333 L0,1741.333 Z" clip-rule="evenodd" /></clipPath><clipPath id="clip018"><path d="M0,0 L2753.333,0 L2753.333,1741.333 L0,1741.333 Z" clip-rule="evenodd" /></clipPath><clipPath id="clip019"><path d="M0,0 L2753.333,0 L2753.333,1741.333 L0,1741.333 Z" clip-rule="evenodd" /></clipPath><clipPath id="clip020"><path d="M0,0 L2753.333,0 L2753.333,1741.333 L0,1741.333 Z" clip-rule="evenodd" /></clipPath><clipPath id="clip021"><path d="M0,0 L2753.333,0 L2753.333,1741.333 L0,1741.333 Z" clip-rule="evenodd" /></clipPath><clipPath id="clip022"><path d="M0,0 L2753.333,0 L2753.333,1741.333 L0,1741.333 Z" clip-rule="evenodd" /></clipPath><clipPath id="clip023"><path d="M0,0 L2753.333,0 L2753.333,1741.333 L0,1741.333 Z" clip-rule="evenodd" /></clipPath><clipPath id="clip024"><path d="M0,0 L2753.333,0 L2753.333,1741.333 L0,1741.333 Z" clip-rule="evenodd" /></clipPath><clipPath id="clip025"><path d="M0,0 L2753.333,0 L2753.333,1741.333 L0,1741.333 Z" clip-rule="evenodd" /></clipPath><clipPath id="clip026"><path d="M0,0 L2753.333,0 L2753.333,1741.333 L0,1741.333 Z" clip-rule="evenodd" /></clipPath><clipPath id="clip027"><path d="M0,0 L2753.333,0 L2753.333,1741.333 L0,1741.333 Z" clip-rule="evenodd" /></clipPath><clipPath id="clip028"><path d="M0,0 L2753.333,0 L2753.333,1741.333 L0,1741.333 Z" clip-rule="evenodd" /></clipPath><clipPath id="clip029"><path d="M0,0 L2753.333,0 L2753.333,1741.333 L0,1741.333 Z" clip-rule="evenodd" /></clipPath><clipPath id="clip030"><path d="M0,0 L2753.333,0 L2753.333,1741.333 L0,1741.333 Z" clip-rule="evenodd" /></clipPath><clipPath id="clip031"><path d="M0,0 L2753.333,0 L2753.333,1741.333 L0,1741.333 Z" clip-rule="evenodd" /></clipPath><clipPath id="clip032"><path d="M0,0 L2753.333,0 L2753.333,1741.333 L0,1741.333 Z" clip-rule="evenodd" /></clipPath><clipPath id="clip033"><path d="M0,0 L2753.333,0 L2753.333,1741.333 L0,1741.333 Z" clip-rule="evenodd" /></clipPath><clipPath id="clip034"><path d="M0,0 L2753.333,0 L2753.333,1741.333 L0,1741.333 Z" clip-rule="evenodd" /></clipPath><clipPath id="clip035"><path d="M0,0 L2753.333,0 L2753.333,1741.333 L0,1741.333 Z" clip-rule="evenodd" /></clipPath><clipPath id="clip036"><path d="M0,0 L2753.333,0 L2753.333,1741.333 L0,1741.333 Z" clip-rule="evenodd" /></clipPath><clipPath id="clip037"><path d="M0,0 L2753.333,0 L2753.333,1741.333 L0,1741.333 Z" clip-rule="evenodd" /></clipPath><clipPath id="clip038"><path d="M0,0 L2753.333,0 L2753.333,1741.333 L0,1741.333 Z" clip-rule="evenodd" /></clipPath><clipPath id="clip039"><path d="M0,0 L2753.333,0 L2753.333,1741.333 L0,1741.333 Z" clip-rule="evenodd" /></clipPath><clipPath id="clip040"><path d="M0,0 L2753.333,0 L2753.333,1741.333 L0,1741.333 Z" clip-rule="evenodd" /></clipPath><clipPath id="clip041"><path d="M0,0 L2753.333,0 L2753.333,1741.333 L0,1741.333 Z" clip-rule="evenodd" /></clipPath></defs><clipPath id="page-clip-path-1"><rect x="0" y="0" width="354.67" height="209.33" /></clipPath><g clip-path="url(#page-clip-path-1)" transform="translate(0.17,0)"><g transform="translate(1,1)"><g><g transform="matrix(0.1197006,0,0,0.120023,0,0)" clip-path="url(#clip001)"><g><g clip-path="url(#clip002)"><g><g clip-path="url(#clip003)"><g transform="matrix(1.000214,0,0,1.000394,0.00016276,0)"><g><g><g clip-path="url(#clip004)"><g transform="translate(2753.333,1742.667)" /></g></g></g><g clip-path="url(#clip005)"><g transform="matrix(0.000656168,0,0,0.000656168,0,0)"><path d="M0,0 L4198112,0 L4198112,2653792 L0,2653792 Z" fill="#ffffff" fill-opacity="0" fill-rule="evenodd" /></g></g><g clip-path="url(#clip006)"><g transform="matrix(0.000656168,0,0,0.000656168,256,60)"><path d="M0,1562608 L3367024,1562608 M0,1042416 L3367024,1042416 M0,520192 L3367024,520192 M0,0 L3367024,0 " stroke-width="16933.33" stroke-linejoin="round" stroke-miterlimit="13.33333" stroke="#bababa" fill="none" fill-rule="nonzero" /></g></g><g clip-path="url(#clip007)"><g transform="matrix(0.000656168,0,0,0.000656168,256,60)"><path d="M34544,1855216 L166624,1855216 L166624,1855216 L166624,2084832 L166624,2084832 L34544,2084832 ZM231648,1627632 L363728,1627632 L363728,1627632 L363728,2084832 L363728,2084832 L231648,2084832 ZM430784,1507744 L562864,1507744 L562864,1507744 L562864,2084832 L562864,2084832 L430784,2084832 ZM627888,1509776 L759968,1509776 L759968,1509776 L759968,2084832 L759968,2084832 L627888,2084832 ZM827024,1560576 L959104,1560576 L959104,1560576 L959104,2084832 L959104,2084832 L827024,2084832 ZM1024128,1521968 L1156208,1521968 L1156208,1521968 L1156208,2084832 L1156208,2084832 L1024128,2084832 ZM1221232,1534160 L1353312,1534160 L1353312,1534160 L1353312,2084832 L1353312,2084832 L1221232,2084832 ZM1420368,1471168 L1552448,1471168 L1552448,1471168 L1552448,2084832 L1552448,2084832 L1420368,2084832 ZM1617472,1369568 L1749552,1369568 L1749552,1369568 L1749552,2084832 L1749552,2084832 L1617472,2084832 ZM1816608,1249680 L1948688,1249680 L1948688,1249680 L1948688,2084832 L1948688,2084832 L1816608,2084832 ZM2013712,1280160 L2145792,1280160 L2145792,1280160 L2145792,2084832 L2145792,2084832 L2013712,2084832 ZM2212848,1137920 L2344928,1137920 L2344928,1137920 L2344928,2084832 L2344928,2084832 L2212848,2084832 ZM2409952,721360 L2542032,721360 L2542032,721360 L2542032,2084832 L2542032,2084832 L2409952,2084832 ZM2609088,319024 L2741168,319024 L2741168,319024 L2741168,2084832 L2741168,2084832 L2609088,2084832 ZM2806192,428752 L2938272,428752 L2938272,428752 L2938272,2084832 L2938272,2084832 L2806192,2084832 ZM3005328,249936 L3137408,249936 L3137408,249936 L3137408,2084832 L3137408,2084832 L3005328,2084832 Z" fill="#012169" fill-rule="nonzero" /></g></g><g clip-path="url(#clip008)"><g transform="matrix(0.000656168,0,0,0.000656168,256,1428)"><g><path d="M0.002682223,-6773.333 L3367024,-6772 " stroke-width="3386.667" stroke-linejoin="round" stroke-miterlimit="13.33333" stroke="#000000" fill="none" fill-rule="evenodd" /><path d="M-0.001341112,3386.667 L3367024,3388 " stroke-width="10160" stroke-linejoin="round" stroke-miterlimit="13.33333" stroke="#000000" fill="none" fill-rule="evenodd" /></g></g></g><g clip-path="url(#clip009)"><g transform="matrix(0.000656168,0,0,0.000656168,322,143.3333)"><path d="M0,263385.1 C65997.59,361618.6 131995.2,528921.9 197992.8,558085.6 L197992.8,558085.6 C263990.3,587248 329986.6,512813.7 395985.5,438364.6 L395985.5,438364.6 C461983.1,363914.3 527980.7,183115.6 593979.6,111386.2 L593979.6,111386.2 C659977.2,39655.48 725974.8,0 791972.3,7982.822 L791972.3,7982.822 C857969.9,15964.31 923967.5,131548.6 989965.1,159276.5 L989965.1,159276.5 C1055963,187003.1 1121960,169600.3 1187958,174347.6 L1187958,174347.6 C1253955,179093.6 1319952,139415.4 1385951,187759 L1385951,187759 C1451948,236101.1 1517946,420535.3 1583945,464407.5 L1583945,464407.5 C1649942,508279.7 1715940,458220.4 1781937,450992.1 L1781937,450992.1 C1847935,443762.5 1913933,427266.3 1979930,421032.5 L1979930,421032.5 C2045928,414797.5 2111925,416291.9 2177923,413585.6 L2177923,413585.6 C2243921,410878 2309918,455000.8 2375916,404792.3 L2375916,404792.3 C2441913,354582.3 2507910,135050.7 2573909,112327.4 L2573909,112327.4 C2639906,89602.78 2705904,251116.3 2771903,268451 L2771903,268451 C2837900,285784.5 2903898,241061.8 2969895,216334.8 L2969895,216334.8 C3035893,191606.4 3101890,152165.5 3167888,120082.3 " stroke-width="33866.67" stroke-linecap="round" stroke-linejoin="round" stroke-miterlimit="13.33333" stroke="#009cde" fill="none" fill-rule="nonzero" /></g></g><g><g clip-path="url(#clip010)"><g><g transform="translate(2557.055,1457.165)"><text><tspan x="0" y="0" font-family="Connections Cond Light,Arial Narrow" font-weight="normal" font-style="normal" font-size="105.3333" fill="#000000">0%</tspan></text></g></g></g></g><g><g clip-path="url(#clip011)"><g><g transform="translate(2557.055,1115.297)"><text><tspan x="0" y="0" font-family="Connections Cond Light,Arial Narrow" font-weight="normal" font-style="normal" font-size="105.3333" fill="#000000">4%</tspan></text></g></g></g></g><g><g clip-path="url(#clip012)"><g><g transform="translate(2557.055,773.4296)"><text><tspan x="0" y="0" font-family="Connections Cond Light,Arial Narrow" font-weight="normal" font-style="normal" font-size="105.3333" fill="#000000">8%</tspan></text></g></g></g></g><g><g clip-path="url(#clip013)"><g><g transform="translate(2557.055,431.5625)"><text><tspan x="0" y="0" font-family="Connections Cond Light,Arial Narrow" font-weight="normal" font-style="normal" font-size="105.3333" fill="#000000">12%</tspan></text></g></g></g></g><g><g clip-path="url(#clip014)"><g><g transform="translate(2557.055,89.69466)"><text><tspan x="0" y="0" font-family="Connections Cond Light,Arial Narrow" font-weight="normal" font-style="normal" font-size="105.3333" fill="#000000">16%</tspan></text></g></g></g></g><g><g clip-path="url(#clip015)"><g><g transform="translate(67.33334,1457.165)"><text><tspan x="0" y="0" font-family="Connections Cond Light,Arial Narrow" font-weight="normal" font-style="normal" font-size="105.3333" fill="#000000">$0</tspan></text></g></g></g></g><g><g clip-path="url(#clip016)"><g><g transform="translate(67.33334,1115.297)"><text><tspan x="0" y="0" font-family="Connections Cond Light,Arial Narrow" font-weight="normal" font-style="normal" font-size="105.3333" fill="#000000">$4</tspan></text></g></g></g></g><g><g clip-path="url(#clip017)"><g><g transform="translate(67.33334,773.4296)"><text><tspan x="0" y="0" font-family="Connections Cond Light,Arial Narrow" font-weight="normal" font-style="normal" font-size="105.3333" fill="#000000">$8</tspan></text></g></g></g></g><g><g clip-path="url(#clip018)"><g><g transform="translate(16.66667,431.5617)"><text><tspan x="0" y="0" font-family="Connections Cond Light,Arial Narrow" font-weight="normal" font-style="normal" font-size="105.3333" fill="#000000">$12</tspan></text></g></g></g></g><g><g clip-path="url(#clip019)"><g><g transform="translate(16.66667,89.69466)"><text><tspan x="0" y="0" font-family="Connections Cond Light,Arial Narrow" font-weight="normal" font-style="normal" font-size="105.3333" fill="#000000">$16</tspan></text></g></g></g></g><g><g clip-path="url(#clip020)"><g><g transform="matrix(0,-1,1,0,354.8631,1692.748)"><text><tspan x="0" y="0" font-family="Connections Cond Light,Arial Narrow" font-weight="normal" font-style="normal" font-size="105.3333" fill="#000000">2009</tspan></text></g></g></g></g><g><g clip-path="url(#clip021)"><g><g transform="matrix(0,-1,1,0,484.8106,1692.748)"><text><tspan x="0" y="0" font-family="Connections Cond Light,Arial Narrow" font-weight="normal" font-style="normal" font-size="105.3333" fill="#000000">2010</tspan></text></g></g></g></g><g><g clip-path="url(#clip022)"><g><g transform="matrix(0,-1,1,0,614.7581,1692.748)"><text><tspan x="0" y="0" font-family="Connections Cond Light,Arial Narrow" font-weight="normal" font-style="normal" font-size="105.3333" fill="#000000">2011</tspan></text></g></g></g></g><g><g clip-path="url(#clip023)"><g><g transform="matrix(0,-1,1,0,744.7065,1692.748)"><text><tspan x="0" y="0" font-family="Connections Cond Light,Arial Narrow" font-weight="normal" font-style="normal" font-size="105.3333" fill="#000000">2012</tspan></text></g></g></g></g><g><g clip-path="url(#clip024)"><g><g transform="matrix(0,-1,1,0,874.654,1692.748)"><text><tspan x="0" y="0" font-family="Connections Cond Light,Arial Narrow" font-weight="normal" font-style="normal" font-size="105.3333" fill="#000000">2013</tspan></text></g></g></g></g><g><g clip-path="url(#clip025)"><g><g transform="matrix(0,-1,1,0,1004.602,1692.748)"><text><tspan x="0" y="0" font-family="Connections Cond Light,Arial Narrow" font-weight="normal" font-style="normal" font-size="105.3333" fill="#000000">2014</tspan></text></g></g></g></g><g><g clip-path="url(#clip026)"><g><g transform="matrix(0,-1,1,0,1134.549,1692.748)"><text><tspan x="0" y="0" font-family="Connections Cond Light,Arial Narrow" font-weight="normal" font-style="normal" font-size="105.3333" fill="#000000">2015</tspan></text></g></g></g></g><g><g clip-path="url(#clip027)"><g><g transform="matrix(0,-1,1,0,1264.496,1692.748)"><text><tspan x="0" y="0" font-family="Connections Cond Light,Arial Narrow" font-weight="normal" font-style="normal" font-size="105.3333" fill="#000000">2016</tspan></text></g></g></g></g><g><g clip-path="url(#clip028)"><g><g transform="matrix(0,-1,1,0,1394.445,1692.748)"><text><tspan x="0" y="0" font-family="Connections Cond Light,Arial Narrow" font-weight="normal" font-style="normal" font-size="105.3333" fill="#000000">2017</tspan></text></g></g></g></g><g><g clip-path="url(#clip029)"><g><g transform="matrix(0,-1,1,0,1524.392,1692.748)"><text><tspan x="0" y="0" font-family="Connections Cond Light,Arial Narrow" font-weight="normal" font-style="normal" font-size="105.3333" fill="#000000">2018</tspan></text></g></g></g></g><g><g clip-path="url(#clip030)"><g><g transform="matrix(0,-1,1,0,1654.34,1692.748)"><text><tspan x="0" y="0" font-family="Connections Cond Light,Arial Narrow" font-weight="normal" font-style="normal" font-size="105.3333" fill="#000000">2019</tspan></text></g></g></g></g><g><g clip-path="url(#clip031)"><g><g transform="matrix(0,-1,1,0,1784.287,1692.748)"><text><tspan x="0" y="0" font-family="Connections Cond Light,Arial Narrow" font-weight="normal" font-style="normal" font-size="105.3333" fill="#000000">2020</tspan></text></g></g></g></g><g><g clip-path="url(#clip032)"><g><g transform="matrix(0,-1,1,0,1914.235,1692.748)"><text><tspan x="0" y="0" font-family="Connections Cond Light,Arial Narrow" font-weight="normal" font-style="normal" font-size="105.3333" fill="#000000">2021</tspan></text></g></g></g></g><g><g clip-path="url(#clip033)"><g><g transform="matrix(0,-1,1,0,2044.182,1692.748)"><text><tspan x="0" y="0" font-family="Connections Cond Light,Arial Narrow" font-weight="normal" font-style="normal" font-size="105.3333" fill="#000000">2022</tspan></text></g></g></g></g><g><g clip-path="url(#clip034)"><g><g transform="matrix(0,-1,1,0,2174.131,1692.748)"><text><tspan x="0" y="0" font-family="Connections Cond Light,Arial Narrow" font-weight="normal" font-style="normal" font-size="105.3333" fill="#000000">2023</tspan></text></g></g></g></g><g><g clip-path="url(#clip035)"><g><g transform="matrix(0,-1,1,0,2304.078,1692.748)"><text><tspan x="0" y="0" font-family="Connections Cond Light,Arial Narrow" font-weight="normal" font-style="normal" font-size="105.3333" fill="#000000">2024</tspan></text></g></g></g></g><g><g clip-path="url(#clip036)"><g><g transform="matrix(0,-1,1,0,-43.444,512.2236)"><text><tspan x="0" y="0" font-family="Connections Cond Light,Arial Narrow" font-weight="normal" font-style="normal" font-size="105.3333" fill="#000000">Thousands</tspan></text></g></g></g></g><g clip-path="url(#clip037)"><g transform="matrix(0.000656168,0,0,0.000656168,125.3333,84)"><path d="M0,0 L3779520,0 L3779520,276352 L0,276352 Z" fill="#4f81bd" fill-opacity="0" fill-rule="evenodd" /></g></g><g clip-path="url(#clip038)"><g transform="matrix(0.000656168,0,0,0.000656168,206.6667,148)"><path d="M0,0 L325120,0 L325120,81280.01 L0,81280.01 Z" fill="#012169" fill-rule="evenodd" /></g></g><g><g clip-path="url(#clip039)"><g><g transform="translate(442.6842,204.0157)"><text><tspan x="0" y="0" font-family="Connections Cond Light,Arial Narrow" font-weight="normal" font-style="normal" font-size="105.3333" fill="#000000">Process Control ($bn)</tspan></text></g></g></g></g><g clip-path="url(#clip040)"><g transform="matrix(0.000656168,0,0,0.000656168,1336.667,174)"><path d="M0,0 L325120,1.333333 " stroke-width="33866.67" stroke-linecap="round" stroke-linejoin="round" stroke-miterlimit="13.33333" stroke="#009cde" fill="none" fill-rule="evenodd" /></g></g><g><g clip-path="url(#clip041)"><g><g transform="translate(1572.832,204.0157)"><text><tspan x="0" y="0" font-family="Connections Cond Light,Arial Narrow" font-weight="normal" font-style="normal" font-size="105.3333" fill="#000000">Process Control % of WFE</tspan></text></g></g></g></g><g /></g></g></g></g></g></g></g></g></g></svg>