<svg version="1.1" width="100%" height="100%" viewBox="0 0 500 272" xmlns="http://www.w3.org/2000/svg" xmlns:xlink="http://www.w3.org/1999/xlink"><style type="text/css" /><defs><clipPath id="clip001"><path d="M0,0 L3969.333,0 L3969.333,2266.667 L0,2266.667 Z" clip-rule="evenodd" /></clipPath><clipPath id="clip002"><path d="M0,0 L3969.333,0 L3969.333,2266.667 L0,2266.667 Z" clip-rule="evenodd" /></clipPath><clipPath id="clip003"><path d="M0,0 L3969.333,0 L3969.333,2266.667 L0,2266.667 Z" clip-rule="evenodd" /></clipPath><clipPath id="clip004"><path d="M0,0 L5200,0 L5200,2374.667 L0,2374.667 Z" clip-rule="evenodd" /></clipPath><clipPath id="clip005"><path d="M-800,0 L6000,0 L6000,2374.667 L-800,2374.667 Z" clip-rule="evenodd" /></clipPath><clipPath id="clip006"><path d="M0,0 L3960,0 L3960,2266.667 L0,2266.667 Z" clip-rule="evenodd" /></clipPath><clipPath id="clip007"><path d="M394.6667,60 L3610.667,60 L3610.667,2033.333 L394.6667,2033.333 Z" clip-rule="evenodd" /></clipPath><clipPath id="clip008"><path d="M394.6667,60 L3610.667,60 L3610.667,2033.333 L394.6667,2033.333 Z" clip-rule="evenodd" /></clipPath><clipPath id="clip009"><path d="M0,0 L3960,0 L3960,2266.667 L0,2266.667 Z" clip-rule="evenodd" /></clipPath><clipPath id="clip010"><path d="M394.6667,60 L3610.667,60 L3610.667,2033.333 L394.6667,2033.333 Z" clip-rule="evenodd" /></clipPath><clipPath id="clip011"><path d="M0,0 L3960,0 L3960,2266.667 L0,2266.667 Z" clip-rule="evenodd" /></clipPath><clipPath id="clip012"><path d="M0,0 L3960,0 L3960,2266.667 L0,2266.667 Z" clip-rule="evenodd" /></clipPath><clipPath id="clip013"><path d="M0,0 L3960,0 L3960,2266.667 L0,2266.667 Z" clip-rule="evenodd" /></clipPath><clipPath id="clip014"><path d="M0,0 L3960,0 L3960,2266.667 L0,2266.667 Z" clip-rule="evenodd" /></clipPath><clipPath id="clip015"><path d="M0,0 L3960,0 L3960,2266.667 L0,2266.667 Z" clip-rule="evenodd" /></clipPath><clipPath id="clip016"><path d="M0,0 L3960,0 L3960,2266.667 L0,2266.667 Z" clip-rule="evenodd" /></clipPath><clipPath id="clip017"><path d="M0,0 L3960,0 L3960,2266.667 L0,2266.667 Z" clip-rule="evenodd" /></clipPath><clipPath id="clip018"><path d="M0,0 L3960,0 L3960,2266.667 L0,2266.667 Z" clip-rule="evenodd" /></clipPath><clipPath id="clip019"><path d="M0,0 L3960,0 L3960,2266.667 L0,2266.667 Z" clip-rule="evenodd" /></clipPath><clipPath id="clip020"><path d="M0,0 L3960,0 L3960,2266.667 L0,2266.667 Z" clip-rule="evenodd" /></clipPath><clipPath id="clip021"><path d="M0,0 L3960,0 L3960,2266.667 L0,2266.667 Z" clip-rule="evenodd" /></clipPath><clipPath id="clip022"><path d="M0,0 L3960,0 L3960,2266.667 L0,2266.667 Z" clip-rule="evenodd" /></clipPath><clipPath id="clip023"><path d="M0,0 L3960,0 L3960,2266.667 L0,2266.667 Z" clip-rule="evenodd" /></clipPath><clipPath id="clip024"><path d="M0,0 L3960,0 L3960,2266.667 L0,2266.667 Z" clip-rule="evenodd" /></clipPath><clipPath id="clip025"><path d="M0,0 L3960,0 L3960,2266.667 L0,2266.667 Z" clip-rule="evenodd" /></clipPath><clipPath id="clip026"><path d="M0,0 L3960,0 L3960,2266.667 L0,2266.667 Z" clip-rule="evenodd" /></clipPath><clipPath id="clip027"><path d="M0,0 L3960,0 L3960,2266.667 L0,2266.667 Z" clip-rule="evenodd" /></clipPath><clipPath id="clip028"><path d="M0,0 L3960,0 L3960,2266.667 L0,2266.667 Z" clip-rule="evenodd" /></clipPath><clipPath id="clip029"><path d="M0,0 L3960,0 L3960,2266.667 L0,2266.667 Z" clip-rule="evenodd" /></clipPath><clipPath id="clip030"><path d="M0,0 L3960,0 L3960,2266.667 L0,2266.667 Z" clip-rule="evenodd" /></clipPath><clipPath id="clip031"><path d="M0,0 L3960,0 L3960,2266.667 L0,2266.667 Z" clip-rule="evenodd" /></clipPath><clipPath id="clip032"><path d="M0,0 L3960,0 L3960,2266.667 L0,2266.667 Z" clip-rule="evenodd" /></clipPath><clipPath id="clip033"><path d="M0,0 L3960,0 L3960,2266.667 L0,2266.667 Z" clip-rule="evenodd" /></clipPath><clipPath id="clip034"><path d="M0,0 L3960,0 L3960,2266.667 L0,2266.667 Z" clip-rule="evenodd" /></clipPath><clipPath id="clip035"><path d="M0,0 L3960,0 L3960,2266.667 L0,2266.667 Z" clip-rule="evenodd" /></clipPath><clipPath id="clip036"><path d="M0,0 L3960,0 L3960,2266.667 L0,2266.667 Z" clip-rule="evenodd" /></clipPath><clipPath id="clip037"><path d="M0,0 L3960,0 L3960,2266.667 L0,2266.667 Z" clip-rule="evenodd" /></clipPath><clipPath id="clip038"><path d="M0,0 L3960,0 L3960,2266.667 L0,2266.667 Z" clip-rule="evenodd" /></clipPath><clipPath id="clip039"><path d="M0,0 L3960,0 L3960,2266.667 L0,2266.667 Z" clip-rule="evenodd" /></clipPath><clipPath id="clip040"><path d="M0,0 L3960,0 L3960,2266.667 L0,2266.667 Z" clip-rule="evenodd" /></clipPath><clipPath id="clip041"><path d="M0,0 L3960,0 L3960,2266.667 L0,2266.667 Z" clip-rule="evenodd" /></clipPath><clipPath id="clip042"><path d="M0,0 L3960,0 L3960,2266.667 L0,2266.667 Z" clip-rule="evenodd" /></clipPath><clipPath id="clip043"><path d="M0,0 L3960,0 L3960,2266.667 L0,2266.667 Z" clip-rule="evenodd" /></clipPath><clipPath id="clip044"><path d="M0,0 L3960,0 L3960,2266.667 L0,2266.667 Z" clip-rule="evenodd" /></clipPath><clipPath id="clip045"><path d="M0,0 L3960,0 L3960,2266.667 L0,2266.667 Z" clip-rule="evenodd" /></clipPath><clipPath id="clip046"><path d="M0,0 L3960,0 L3960,2266.667 L0,2266.667 Z" clip-rule="evenodd" /></clipPath><clipPath id="clip047"><path d="M0,0 L3960,0 L3960,2266.667 L0,2266.667 Z" clip-rule="evenodd" /></clipPath><clipPath id="clip048"><path d="M0,0 L3960,0 L3960,2266.667 L0,2266.667 Z" clip-rule="evenodd" /></clipPath><clipPath id="clip049"><path d="M0,0 L3960,0 L3960,2266.667 L0,2266.667 Z" clip-rule="evenodd" /></clipPath><clipPath id="clip050"><path d="M0,0 L3960,0 L3960,2266.667 L0,2266.667 Z" clip-rule="evenodd" /></clipPath><clipPath id="clip051"><path d="M0,0 L3960,0 L3960,2266.667 L0,2266.667 Z" clip-rule="evenodd" /></clipPath><clipPath id="clip052"><path d="M0,0 L3960,0 L3960,2266.667 L0,2266.667 Z" clip-rule="evenodd" /></clipPath><clipPath id="clip053"><path d="M0,0 L3960,0 L3960,2266.667 L0,2266.667 Z" clip-rule="evenodd" /></clipPath><clipPath id="clip054"><path d="M0,0 L3960,0 L3960,2266.667 L0,2266.667 Z" clip-rule="evenodd" /></clipPath><clipPath id="clip055"><path d="M0,0 L3960,0 L3960,2266.667 L0,2266.667 Z" clip-rule="evenodd" /></clipPath><clipPath id="clip056"><path d="M0,0 L3960,0 L3960,2266.667 L0,2266.667 Z" clip-rule="evenodd" /></clipPath><clipPath id="clip057"><path d="M0,0 L3960,0 L3960,2266.667 L0,2266.667 Z" clip-rule="evenodd" /></clipPath><clipPath id="clip058"><path d="M0,0 L3960,0 L3960,2266.667 L0,2266.667 Z" clip-rule="evenodd" /></clipPath><clipPath id="clip059"><path d="M0,0 L3960,0 L3960,2266.667 L0,2266.667 Z" clip-rule="evenodd" /></clipPath><clipPath id="clip060"><path d="M0,0 L3960,0 L3960,2266.667 L0,2266.667 Z" clip-rule="evenodd" /></clipPath><clipPath id="clip061"><path d="M0,0 L3960,0 L3960,2266.667 L0,2266.667 Z" clip-rule="evenodd" /></clipPath><clipPath id="clip062"><path d="M0,0 L3960,0 L3960,2266.667 L0,2266.667 Z" clip-rule="evenodd" /></clipPath><clipPath id="clip063"><path d="M0,0 L3960,0 L3960,2266.667 L0,2266.667 Z" clip-rule="evenodd" /></clipPath><clipPath id="clip064"><path d="M0,0 L3960,0 L3960,2266.667 L0,2266.667 Z" clip-rule="evenodd" /></clipPath><clipPath id="clip065"><path d="M0,0 L3960,0 L3960,2266.667 L0,2266.667 Z" clip-rule="evenodd" /></clipPath><clipPath id="clip066"><path d="M0,0 L3960,0 L3960,2266.667 L0,2266.667 Z" clip-rule="evenodd" /></clipPath></defs><clipPath id="page-clip-path-1"><rect x="0" y="0" width="500" height="272" /></clipPath><g clip-path="url(#page-clip-path-1)"><g transform="translate(1,1)"><g><g transform="matrix(0.1197178,0,0,0.12,0,0)" clip-path="url(#clip001)"><g><g clip-path="url(#clip002)"><g><g clip-path="url(#clip003)"><g transform="matrix(1.000214,0,0,1.000485,0.00016276,0.00008138)"><g><g><g clip-path="url(#clip004)"><g transform="translate(3966.667,2266.667)" /></g></g></g><g clip-path="url(#clip005)"><g transform="matrix(0.000656168,0,0,0.000656168,0,0)"><path d="M0,0 L6035040,0 L6035040,3454400 L0,3454400 Z" fill="#ffffff" fill-opacity="0" fill-rule="evenodd" /></g></g><g clip-path="url(#clip006)"><g transform="matrix(0.000656168,0,0,0.000656168,396,60)"><path d="M0,2395728 L4886960,2395728 M0,1796288 L4886960,1796288 M0,1198880 L4886960,1198880 M0,599440 L4886960,599440 M0,0 L4886960,0 " stroke-width="16933.33" stroke-linejoin="round" stroke-miterlimit="13.33333" stroke="#bababa" fill="none" fill-rule="nonzero" /></g></g><g clip-path="url(#clip007)"><g transform="matrix(0.000656168,0,0,0.000656168,396,60)"><path d="M48768,2966720 L243840,2966720 L243840,2966720 L243840,2995168 L243840,2995168 L48768,2995168 ZM591312,2970784 L788416,2970784 L788416,2970784 L788416,2995168 L788416,2995168 L591312,2995168 ZM1133856,2968752 L1330960,2968752 L1330960,2968752 L1330960,2995168 L1330960,2995168 L1133856,2995168 ZM1678432,2962656 L1873504,2962656 L1873504,2962656 L1873504,2995168 L1873504,2995168 L1678432,2995168 ZM2220976,2944368 L2416048,2944368 L2416048,2944368 L2416048,2995168 L2416048,2995168 L2220976,2995168 ZM2763520,2922016 L2960624,2922016 L2960624,2922016 L2960624,2995168 L2960624,2995168 L2763520,2995168 ZM3306064,2899664 L3503168,2899664 L3503168,2899664 L3503168,2995168 L3503168,2995168 L3306064,2995168 ZM3850640,2873248 L4045712,2873248 L4045712,2873248 L4045712,2995168 L4045712,2995168 L3850640,2995168 ZM4393184,2844800 L4590288,2844800 L4590288,2844800 L4590288,2995168 L4590288,2995168 L4393184,2995168 Z" fill="#012169" fill-rule="nonzero" /><path d="M48768,2966720 L243840,2966720 L243840,2966720 L243840,2995168 L243840,2995168 L48768,2995168 ZM591312,2970784 L788416,2970784 L788416,2970784 L788416,2995168 L788416,2995168 L591312,2995168 ZM1133856,2968752 L1330960,2968752 L1330960,2968752 L1330960,2995168 L1330960,2995168 L1133856,2995168 ZM1678432,2962656 L1873504,2962656 L1873504,2962656 L1873504,2995168 L1873504,2995168 L1678432,2995168 ZM2220976,2944368 L2416048,2944368 L2416048,2944368 L2416048,2995168 L2416048,2995168 L2220976,2995168 ZM2763520,2922016 L2960624,2922016 L2960624,2922016 L2960624,2995168 L2960624,2995168 L2763520,2995168 ZM3306064,2899664 L3503168,2899664 L3503168,2899664 L3503168,2995168 L3503168,2995168 L3306064,2995168 ZM3850640,2873248 L4045712,2873248 L4045712,2873248 L4045712,2995168 L4045712,2995168 L3850640,2995168 ZM4393184,2844800 L4590288,2844800 L4590288,2844800 L4590288,2995168 L4590288,2995168 L4393184,2995168 Z" stroke-width="8466.667" stroke-linejoin="round" stroke-miterlimit="13.33333" stroke="#ffffff" fill="none" fill-rule="nonzero" /></g></g><g clip-path="url(#clip008)"><g transform="matrix(0.000656168,0,0,0.000656168,396,60)"><path d="M296672,2722880 L493776,2722880 L493776,2722880 L493776,2995168 L493776,2995168 L296672,2995168 ZM841248,2710688 L1036320,2710688 L1036320,2710688 L1036320,2995168 L1036320,2995168 L841248,2995168 ZM1383792,2594864 L1578864,2594864 L1578864,2594864 L1578864,2995168 L1578864,2995168 L1383792,2995168 ZM1926336,2389632 L2123440,2389632 L2123440,2389632 L2123440,2995168 L2123440,2995168 L1926336,2995168 ZM2468880,2076704 L2665984,2076704 L2665984,2076704 L2665984,2995168 L2665984,2995168 L2468880,2995168 ZM3013456,1649984 L3208528,1649984 L3208528,1649984 L3208528,2995168 L3208528,2995168 L3013456,2995168 ZM3556000,1213104 L3751072,1213104 L3751072,1213104 L3751072,2995168 L3751072,2995168 L3556000,2995168 ZM4098544,833120 L4295648,833120 L4295648,833120 L4295648,2995168 L4295648,2995168 L4098544,2995168 ZM4643120,522224 L4838192,522224 L4838192,522224 L4838192,2995168 L4838192,2995168 L4643120,2995168 Z" fill="#009cde" fill-rule="nonzero" /><path d="M296672,2722880 L493776,2722880 L493776,2722880 L493776,2995168 L493776,2995168 L296672,2995168 ZM841248,2710688 L1036320,2710688 L1036320,2710688 L1036320,2995168 L1036320,2995168 L841248,2995168 ZM1383792,2594864 L1578864,2594864 L1578864,2594864 L1578864,2995168 L1578864,2995168 L1383792,2995168 ZM1926336,2389632 L2123440,2389632 L2123440,2389632 L2123440,2995168 L2123440,2995168 L1926336,2995168 ZM2468880,2076704 L2665984,2076704 L2665984,2076704 L2665984,2995168 L2665984,2995168 L2468880,2995168 ZM3013456,1649984 L3208528,1649984 L3208528,1649984 L3208528,2995168 L3208528,2995168 L3013456,2995168 ZM3556000,1213104 L3751072,1213104 L3751072,1213104 L3751072,2995168 L3751072,2995168 L3556000,2995168 ZM4098544,833120 L4295648,833120 L4295648,833120 L4295648,2995168 L4295648,2995168 L4098544,2995168 ZM4643120,522224 L4838192,522224 L4838192,522224 L4838192,2995168 L4838192,2995168 L4643120,2995168 Z" stroke-width="8466.667" stroke-linejoin="round" stroke-miterlimit="13.33333" stroke="#ffffff" fill="none" fill-rule="nonzero" /></g></g><g clip-path="url(#clip009)"><g transform="matrix(0.000656168,0,0,0.000656168,396,2025.333)"><g><path d="M0.001848002,-6773.333 L4886960,-6772 " stroke-width="3386.667" stroke-linejoin="round" stroke-miterlimit="13.33333" stroke="#000000" fill="none" fill-rule="evenodd" /><path d="M-0.000924001,3386.667 L4886960,3388 " stroke-width="10160" stroke-linejoin="round" stroke-miterlimit="13.33333" stroke="#000000" fill="none" fill-rule="evenodd" /></g></g></g><g clip-path="url(#clip010)"><g transform="matrix(0.000656168,0,0,0.000656168,574,303.3333)"><path d="M0,0 L542544,570992 L542544,570992 L1085088,983488 L1085088,983488 L1629664,1310640 L1629664,1310640 L2172208,1235456 L2172208,1235456 L2714752,1265936 L2714752,1265936 L3257296,1288288 L3257296,1288288 L3801872,1219200 L3801872,1219200 L4344416,1111504 " stroke-width="33866.67" stroke-linecap="round" stroke-linejoin="round" stroke-miterlimit="13.33333" stroke="#e56200" fill="none" fill-rule="nonzero" /></g></g><g><g clip-path="url(#clip011)"><g><g transform="translate(417.4081,1929.818)"><text><tspan x="0" y="0" font-family="Connections Cond Light,Arial Narrow" font-weight="normal" font-style="normal" font-size="105.3333" fill="#000000">$24 </tspan></text></g></g></g></g><g><g clip-path="url(#clip012)"><g><g transform="translate(773.7783,1933.222)"><text><tspan x="0" y="0" font-family="Connections Cond Light,Arial Narrow" font-weight="normal" font-style="normal" font-size="105.3333" fill="#000000">$20 </tspan></text></g></g></g></g><g><g clip-path="url(#clip013)"><g><g transform="translate(1130.148,1931.354)"><text><tspan x="0" y="0" font-family="Connections Cond Light,Arial Narrow" font-weight="normal" font-style="normal" font-size="105.3333" fill="#000000">$22 </tspan></text></g></g></g></g><g><g clip-path="url(#clip014)"><g><g transform="translate(1486.518,1927.651)"><text><tspan x="0" y="0" font-family="Connections Cond Light,Arial Narrow" font-weight="normal" font-style="normal" font-size="105.3333" fill="#000000">$27 </tspan></text></g></g></g></g><g><g clip-path="url(#clip015)"><g><g transform="translate(1842.889,1915.005)"><text><tspan x="0" y="0" font-family="Connections Cond Light,Arial Narrow" font-weight="normal" font-style="normal" font-size="105.3333" fill="#000000">$43 </tspan></text></g></g></g></g><g><g clip-path="url(#clip016)"><g><g transform="translate(2199.259,1900.56)"><text><tspan x="0" y="0" font-family="Connections Cond Light,Arial Narrow" font-weight="normal" font-style="normal" font-size="105.3333" fill="#000000">$61 </tspan></text></g></g></g></g><g><g clip-path="url(#clip017)"><g><g transform="translate(2555.629,1886.031)"><text><tspan x="0" y="0" font-family="Connections Cond Light,Arial Narrow" font-weight="normal" font-style="normal" font-size="105.3333" fill="#000000">$80 </tspan></text></g></g></g></g><g><g clip-path="url(#clip018)"><g><g transform="translate(2886.665,1868.713)"><text><tspan x="0" y="0" font-family="Connections Cond Light,Arial Narrow" font-weight="normal" font-style="normal" font-size="105.3333" fill="#000000">$102 </tspan></text></g></g></g></g><g><g clip-path="url(#clip019)"><g><g transform="translate(3243.036,1850.195)"><text><tspan x="0" y="0" font-family="Connections Cond Light,Arial Narrow" font-weight="normal" font-style="normal" font-size="105.3333" fill="#000000">$125 </tspan></text></g></g></g></g><g><g clip-path="url(#clip020)"><g><g transform="translate(555.4641,1770.071)"><text><tspan x="0" y="0" font-family="Connections Cond Light,Arial Narrow" font-weight="normal" font-style="normal" font-size="105.3333" fill="#000000">$227 </tspan></text></g></g></g></g><g><g clip-path="url(#clip021)"><g><g transform="translate(911.8342,1761.836)"><text><tspan x="0" y="0" font-family="Connections Cond Light,Arial Narrow" font-weight="normal" font-style="normal" font-size="105.3333" fill="#000000">$238 </tspan></text></g></g></g></g><g><g clip-path="url(#clip022)"><g><g transform="translate(1268.205,1686.424)"><text><tspan x="0" y="0" font-family="Connections Cond Light,Arial Narrow" font-weight="normal" font-style="normal" font-size="105.3333" fill="#000000">$333 </tspan></text></g></g></g></g><g><g clip-path="url(#clip023)"><g><g transform="translate(1624.575,1551.09)"><text><tspan x="0" y="0" font-family="Connections Cond Light,Arial Narrow" font-weight="normal" font-style="normal" font-size="105.3333" fill="#000000">$506 </tspan></text></g></g></g></g><g><g clip-path="url(#clip024)"><g><g transform="translate(1980.945,1345.435)"><text><tspan x="0" y="0" font-family="Connections Cond Light,Arial Narrow" font-weight="normal" font-style="normal" font-size="105.3333" fill="#000000">$767 </tspan></text></g></g></g></g><g><g clip-path="url(#clip025)"><g><g transform="translate(2303.982,1066.535)"><text><tspan x="0" y="0" font-family="Connections Cond Light,Arial Narrow" font-weight="normal" font-style="normal" font-size="105.3333" fill="#000000">$1,122 </tspan></text></g></g></g></g><g><g clip-path="url(#clip026)"><g><g transform="translate(2660.352,779.3329)"><text><tspan x="0" y="0" font-family="Connections Cond Light,Arial Narrow" font-weight="normal" font-style="normal" font-size="105.3333" fill="#000000">$1,487 </tspan></text></g></g></g></g><g><g clip-path="url(#clip027)"><g><g transform="translate(3016.722,530.5297)"><text><tspan x="0" y="0" font-family="Connections Cond Light,Arial Narrow" font-weight="normal" font-style="normal" font-size="105.3333" fill="#000000">$1,804 </tspan></text></g></g></g></g><g><g clip-path="url(#clip028)"><g><g transform="translate(3373.093,325.7704)"><text><tspan x="0" y="0" font-family="Connections Cond Light,Arial Narrow" font-weight="normal" font-style="normal" font-size="105.3333" fill="#000000">$2,064 </tspan></text></g></g></g></g><g><g clip-path="url(#clip029)"><g><g transform="translate(449.7419,199.3583)"><text><tspan x="0" y="0" font-family="Connections Cond Light,Arial Narrow" font-weight="normal" font-style="normal" font-size="105.3333" fill="#000000">10.5%</tspan></text></g></g></g></g><g><g clip-path="url(#clip030)"><g><g transform="translate(831.4453,573.8097)"><text><tspan x="0" y="0" font-family="Connections Cond Light,Arial Narrow" font-weight="normal" font-style="normal" font-size="105.3333" fill="#000000">8.2%</tspan></text></g></g></g></g><g><g clip-path="url(#clip031)"><g><g transform="translate(1187.815,844.6024)"><text><tspan x="0" y="0" font-family="Connections Cond Light,Arial Narrow" font-weight="normal" font-style="normal" font-size="105.3333" fill="#000000">6.6%</tspan></text></g></g></g></g><g><g clip-path="url(#clip032)"><g><g transform="translate(1544.186,1058.462)"><text><tspan x="0" y="0" font-family="Connections Cond Light,Arial Narrow" font-weight="normal" font-style="normal" font-size="105.3333" fill="#000000">5.3%</tspan></text></g></g></g></g><g><g clip-path="url(#clip033)"><g><g transform="translate(1900.556,1009.111)"><text><tspan x="0" y="0" font-family="Connections Cond Light,Arial Narrow" font-weight="normal" font-style="normal" font-size="105.3333" fill="#000000">5.6%</tspan></text></g></g></g></g><g><g clip-path="url(#clip034)"><g><g transform="translate(2256.926,1029.162)"><text><tspan x="0" y="0" font-family="Connections Cond Light,Arial Narrow" font-weight="normal" font-style="normal" font-size="105.3333" fill="#000000">5.4%</tspan></text></g></g></g></g><g><g clip-path="url(#clip035)"><g><g transform="translate(2613.296,1044.686)"><text><tspan x="0" y="0" font-family="Connections Cond Light,Arial Narrow" font-weight="normal" font-style="normal" font-size="105.3333" fill="#000000">5.3%</tspan></text></g></g></g></g><g><g clip-path="url(#clip036)"><g><g transform="translate(2969.666,998.3819)"><text><tspan x="0" y="0" font-family="Connections Cond Light,Arial Narrow" font-weight="normal" font-style="normal" font-size="105.3333" fill="#000000">5.6%</tspan></text></g></g></g></g><g><g clip-path="url(#clip037)"><g><g transform="translate(3326.036,927.8972)"><text><tspan x="0" y="0" font-family="Connections Cond Light,Arial Narrow" font-weight="normal" font-style="normal" font-size="105.3333" fill="#000000">6.1%</tspan></text></g></g></g></g><g><g clip-path="url(#clip038)"><g><g transform="translate(3694.221,2054.996)"><text><tspan x="0" y="0" font-family="Connections Cond Light,Arial Narrow" font-weight="normal" font-style="normal" font-size="105.3333" fill="#000000">0.0%</tspan></text></g></g></g></g><g><g clip-path="url(#clip039)"><g><g transform="translate(3694.221,1727.446)"><text><tspan x="0" y="0" font-family="Connections Cond Light,Arial Narrow" font-weight="normal" font-style="normal" font-size="105.3333" fill="#000000">2.0%</tspan></text></g></g></g></g><g><g clip-path="url(#clip040)"><g><g transform="translate(3694.221,1399.896)"><text><tspan x="0" y="0" font-family="Connections Cond Light,Arial Narrow" font-weight="normal" font-style="normal" font-size="105.3333" fill="#000000">4.0%</tspan></text></g></g></g></g><g><g clip-path="url(#clip041)"><g><g transform="translate(3694.221,1072.346)"><text><tspan x="0" y="0" font-family="Connections Cond Light,Arial Narrow" font-weight="normal" font-style="normal" font-size="105.3333" fill="#000000">6.0%</tspan></text></g></g></g></g><g><g clip-path="url(#clip042)"><g><g transform="translate(3694.221,744.7952)"><text><tspan x="0" y="0" font-family="Connections Cond Light,Arial Narrow" font-weight="normal" font-style="normal" font-size="105.3333" fill="#000000">8.0%</tspan></text></g></g></g></g><g><g clip-path="url(#clip043)"><g><g transform="translate(3694.221,417.245)"><text><tspan x="0" y="0" font-family="Connections Cond Light,Arial Narrow" font-weight="normal" font-style="normal" font-size="105.3333" fill="#000000">10.0%</tspan></text></g></g></g></g><g><g clip-path="url(#clip044)"><g><g transform="translate(3694.221,89.69466)"><text><tspan x="0" y="0" font-family="Connections Cond Light,Arial Narrow" font-weight="normal" font-style="normal" font-size="105.3333" fill="#000000">12.0%</tspan></text></g></g></g></g><g><g clip-path="url(#clip045)"><g><g transform="translate(185.6667,2054.996)"><text><tspan x="0" y="0" font-family="Connections Cond Light,Arial Narrow" font-weight="normal" font-style="normal" font-size="105.3333" fill="#000000">$0</tspan></text></g></g></g></g><g><g clip-path="url(#clip046)"><g><g transform="translate(84.33334,1661.936)"><text><tspan x="0" y="0" font-family="Connections Cond Light,Arial Narrow" font-weight="normal" font-style="normal" font-size="105.3333" fill="#000000">$500</tspan></text></g></g></g></g><g><g clip-path="url(#clip047)"><g><g transform="translate(16.66667,1268.876)"><text><tspan x="0" y="0" font-family="Connections Cond Light,Arial Narrow" font-weight="normal" font-style="normal" font-size="105.3333" fill="#000000">$1,000</tspan></text></g></g></g></g><g><g clip-path="url(#clip048)"><g><g transform="translate(16.66667,875.8154)"><text><tspan x="0" y="0" font-family="Connections Cond Light,Arial Narrow" font-weight="normal" font-style="normal" font-size="105.3333" fill="#000000">$1,500</tspan></text></g></g></g></g><g><g clip-path="url(#clip049)"><g><g transform="translate(16.66667,482.755)"><text><tspan x="0" y="0" font-family="Connections Cond Light,Arial Narrow" font-weight="normal" font-style="normal" font-size="105.3333" fill="#000000">$2,000</tspan></text></g></g></g></g><g><g clip-path="url(#clip050)"><g><g transform="translate(16.66667,89.69466)"><text><tspan x="0" y="0" font-family="Connections Cond Light,Arial Narrow" font-weight="normal" font-style="normal" font-size="105.3333" fill="#000000">$2,500</tspan></text></g></g></g></g><g><g clip-path="url(#clip051)"><g><g transform="translate(472.4086,2181.246)"><text><tspan x="0" y="0" font-family="Connections Cond Light,Arial Narrow" font-weight="normal" font-style="normal" font-size="105.3333" fill="#000000">2022</tspan></text></g></g></g></g><g><g clip-path="url(#clip052)"><g><g transform="translate(828.7786,2181.246)"><text><tspan x="0" y="0" font-family="Connections Cond Light,Arial Narrow" font-weight="normal" font-style="normal" font-size="105.3333" fill="#000000">2023</tspan></text></g></g></g></g><g><g clip-path="url(#clip053)"><g><g transform="translate(1185.149,2181.246)"><text><tspan x="0" y="0" font-family="Connections Cond Light,Arial Narrow" font-weight="normal" font-style="normal" font-size="105.3333" fill="#000000">2024</tspan></text></g></g></g></g><g><g clip-path="url(#clip054)"><g><g transform="translate(1541.519,2181.246)"><text><tspan x="0" y="0" font-family="Connections Cond Light,Arial Narrow" font-weight="normal" font-style="normal" font-size="105.3333" fill="#000000">2025</tspan></text></g></g></g></g><g><g clip-path="url(#clip055)"><g><g transform="translate(1873.723,2181.246)"><text><tspan x="0" y="0" font-family="Connections Cond Light,Arial Narrow" font-weight="normal" font-style="normal" font-size="105.3333" fill="#000000">2026E</tspan></text></g></g></g></g><g><g clip-path="url(#clip056)"><g><g transform="translate(2230.093,2181.246)"><text><tspan x="0" y="0" font-family="Connections Cond Light,Arial Narrow" font-weight="normal" font-style="normal" font-size="105.3333" fill="#000000">2027E</tspan></text></g></g></g></g><g><g clip-path="url(#clip057)"><g><g transform="translate(2586.463,2181.246)"><text><tspan x="0" y="0" font-family="Connections Cond Light,Arial Narrow" font-weight="normal" font-style="normal" font-size="105.3333" fill="#000000">2028E</tspan></text></g></g></g></g><g><g clip-path="url(#clip058)"><g><g transform="translate(2942.833,2181.246)"><text><tspan x="0" y="0" font-family="Connections Cond Light,Arial Narrow" font-weight="normal" font-style="normal" font-size="105.3333" fill="#000000">2029E</tspan></text></g></g></g></g><g><g clip-path="url(#clip059)"><g><g transform="translate(3299.203,2181.246)"><text><tspan x="0" y="0" font-family="Connections Cond Light,Arial Narrow" font-weight="normal" font-style="normal" font-size="105.3333" fill="#000000">2030E</tspan></text></g></g></g></g><g clip-path="url(#clip060)"><g transform="matrix(0.000656168,0,0,0.000656168,444,52)"><path d="M0,0 L4691888,0 L4691888,268224 L0,268224 Z" fill="#5b9bd5" fill-opacity="0" fill-rule="evenodd" /></g></g><g clip-path="url(#clip061)"><g transform="matrix(0.000656168,0,0,0.000656168,601.3333,113.3333)"><path d="M0,0 L325120,0 L325120,81280.01 L0,81280.01 Z" fill="#012169" fill-rule="evenodd" /><path d="M0,0 L325120,0 L325120,0 L325120,81280.01 L325120,81280.01 L0,81280.01 Z" stroke-width="8466.667" stroke-linejoin="round" stroke-miterlimit="13.33333" stroke="#ffffff" fill="none" fill-rule="evenodd" /></g></g><g><g clip-path="url(#clip062)"><g><g transform="translate(836.5652,169.741)"><text><tspan x="0" y="0" font-family="Connections Cond Light,Arial Narrow" font-weight="normal" font-style="normal" font-size="105.3333" fill="#000000">Server CPU ($bn)</tspan></text></g></g></g></g><g clip-path="url(#clip063)"><g transform="matrix(0.000656168,0,0,0.000656168,1636,113.3333)"><path d="M0,0 L325120,0 L325120,81280.01 L0,81280.01 Z" fill="#009cde" fill-rule="evenodd" /><path d="M0,0 L325120,0 L325120,0 L325120,81280.01 L325120,81280.01 L0,81280.01 Z" stroke-width="8466.667" stroke-linejoin="round" stroke-miterlimit="13.33333" stroke="#ffffff" fill="none" fill-rule="evenodd" /></g></g><g><g clip-path="url(#clip064)"><g><g transform="translate(1872.2,169.741)"><text><tspan x="0" y="0" font-family="Connections Cond Light,Arial Narrow" font-weight="normal" font-style="normal" font-size="105.3333" fill="#000000">DC Systems TAM</tspan></text></g></g></g></g><g clip-path="url(#clip065)"><g transform="matrix(0.000656168,0,0,0.000656168,2680.667,140.6667)"><path d="M0,0 L325120,1.333333 " stroke-width="33866.67" stroke-linecap="round" stroke-linejoin="round" stroke-miterlimit="13.33333" stroke="#e56200" fill="none" fill-rule="evenodd" /></g></g><g><g clip-path="url(#clip066)"><g><g transform="translate(2916.111,169.741)"><text><tspan x="0" y="0" font-family="Connections Cond Light,Arial Narrow" font-weight="normal" font-style="normal" font-size="105.3333" fill="#000000">CPU % of DC</tspan></text></g></g></g></g><g /></g></g></g></g></g></g></g></g></g></svg>