<?xml version="1.0" encoding="UTF-8" standalone="no"?>
<svg xmlns:dc="http://purl.org/dc/elements/1.1/" xmlns:cc="http://creativecommons.org/ns#" xmlns:rdf="http://www.w3.org/1999/02/22-rdf-syntax-ns#" xmlns:svg="http://www.w3.org/2000/svg" xmlns="http://www.w3.org/2000/svg" viewBox="63.1925 130.825 863.8075 503.225" height="503.225" width="863.8075" xml:space="preserve" version="1.1" id="svg2">
  <metadata id="metadata8">
    <rdf:RDF>
      <cc:Work rdf:about="">
        <dc:format>image/svg+xml</dc:format>
        <dc:type rdf:resource="http://purl.org/dc/dcmitype/StillImage"/>
      </cc:Work>
    </rdf:RDF>
  </metadata>
  <defs id="defs6">
    <clipPath id="clipPath16" clipPathUnits="userSpaceOnUse">
      <path style="clip-rule:evenodd" id="path18" d="m 50.4,104.76 691.2,0 0,402.6 -691.2,0 0,-402.6 z"/>
    </clipPath>
    <clipPath id="clipPath26" clipPathUnits="userSpaceOnUse">
      <path style="clip-rule:evenodd" id="path28" d="m 50.4,104.76 691.2,0 0,402.6 -691.2,0 0,-402.6 z"/>
    </clipPath>
    <clipPath id="clipPath44" clipPathUnits="userSpaceOnUse">
      <path style="clip-rule:evenodd" id="path46" d="m 50.52,104.88 690.96,0 0,402.36 -690.96,0 0,-402.36 z"/>
    </clipPath>
    <clipPath id="clipPath56" clipPathUnits="userSpaceOnUse">
      <path style="clip-rule:evenodd" id="path58" d="m 50.52,104.88 690.96,0 0,402.36 -690.96,0 0,-402.36 z"/>
    </clipPath>
    <clipPath id="clipPath68" clipPathUnits="userSpaceOnUse">
      <path style="clip-rule:evenodd" id="path70" d="m 50.52,104.88 690.96,0 0,402.36 -690.96,0 0,-402.36 z"/>
    </clipPath>
    <clipPath id="clipPath80" clipPathUnits="userSpaceOnUse">
      <path style="clip-rule:evenodd" id="path82" d="m 50.52,104.88 690.96,0 0,402.36 -690.96,0 0,-402.36 z"/>
    </clipPath>
    <clipPath id="clipPath92" clipPathUnits="userSpaceOnUse">
      <path style="clip-rule:evenodd" id="path94" d="m 50.52,104.88 690.96,0 0,402.36 -690.96,0 0,-402.36 z"/>
    </clipPath>
    <clipPath id="clipPath104" clipPathUnits="userSpaceOnUse">
      <path style="clip-rule:evenodd" id="path106" d="m 50.52,104.88 690.96,0 0,402.36 -690.96,0 0,-402.36 z"/>
    </clipPath>
    <clipPath id="clipPath116" clipPathUnits="userSpaceOnUse">
      <path style="clip-rule:evenodd" id="path118" d="m 50.52,104.88 690.96,0 0,402.36 -690.96,0 0,-402.36 z"/>
    </clipPath>
    <clipPath id="clipPath128" clipPathUnits="userSpaceOnUse">
      <path style="clip-rule:evenodd" id="path130" d="m 50.52,104.88 690.96,0 0,402.36 -690.96,0 0,-402.36 z"/>
    </clipPath>
    <clipPath id="clipPath140" clipPathUnits="userSpaceOnUse">
      <path style="clip-rule:evenodd" id="path142" d="m 50.52,104.88 690.96,0 0,402.36 -690.96,0 0,-402.36 z"/>
    </clipPath>
    <clipPath id="clipPath152" clipPathUnits="userSpaceOnUse">
      <path style="clip-rule:evenodd" id="path154" d="m 50.52,104.88 690.96,0 0,402.36 -690.96,0 0,-402.36 z"/>
    </clipPath>
    <clipPath id="clipPath164" clipPathUnits="userSpaceOnUse">
      <path style="clip-rule:evenodd" id="path166" d="m 50.52,104.88 690.96,0 0,402.36 -690.96,0 0,-402.36 z"/>
    </clipPath>
    <clipPath id="clipPath176" clipPathUnits="userSpaceOnUse">
      <path style="clip-rule:evenodd" id="path178" d="m 50.52,104.88 690.96,0 0,402.36 -690.96,0 0,-402.36 z"/>
    </clipPath>
    <clipPath id="clipPath188" clipPathUnits="userSpaceOnUse">
      <path style="clip-rule:evenodd" id="path190" d="m 50.52,104.88 690.96,0 0,402.36 -690.96,0 0,-402.36 z"/>
    </clipPath>
    <clipPath id="clipPath200" clipPathUnits="userSpaceOnUse">
      <path style="clip-rule:evenodd" id="path202" d="m 50.52,104.88 690.96,0 0,402.36 -690.96,0 0,-402.36 z"/>
    </clipPath>
    <clipPath id="clipPath212" clipPathUnits="userSpaceOnUse">
      <path style="clip-rule:evenodd" id="path214" d="m 50.52,104.88 690.96,0 0,402.36 -690.96,0 0,-402.36 z"/>
    </clipPath>
    <clipPath id="clipPath224" clipPathUnits="userSpaceOnUse">
      <path style="clip-rule:evenodd" id="path226" d="m 50.52,104.88 690.96,0 0,402.36 -690.96,0 0,-402.36 z"/>
    </clipPath>
    <clipPath id="clipPath236" clipPathUnits="userSpaceOnUse">
      <path style="clip-rule:evenodd" id="path238" d="m 50.52,104.88 690.96,0 0,402.36 -690.96,0 0,-402.36 z"/>
    </clipPath>
    <clipPath id="clipPath248" clipPathUnits="userSpaceOnUse">
      <path style="clip-rule:evenodd" id="path250" d="m 50.52,104.88 690.96,0 0,402.36 -690.96,0 0,-402.36 z"/>
    </clipPath>
    <clipPath id="clipPath262" clipPathUnits="userSpaceOnUse">
      <path style="clip-rule:evenodd" id="path264" d="m 50.52,104.88 690.96,0 0,402.36 -690.96,0 0,-402.36 z"/>
    </clipPath>
    <clipPath id="clipPath276" clipPathUnits="userSpaceOnUse">
      <path style="clip-rule:evenodd" id="path278" d="m 50.52,104.88 690.96,0 0,402.36 -690.96,0 0,-402.36 z"/>
    </clipPath>
  </defs>
  <g transform="matrix(1.25,0,0,-1.25,0,765)" id="g10">
    <g id="g12">
      <g clip-path="url(#clipPath16)" id="g14">
        <path id="path20" style="fill:none;stroke:#000000;stroke-width:0.14;stroke-linecap:butt;stroke-linejoin:miter;stroke-miterlimit:10;stroke-dasharray:none;stroke-opacity:0" d="m 50.624,507.27 691.046,0 0,-402.53 -691.045,0 -10e-4,402.53 z"/>
      </g>
    </g>
    <g id="g22">
      <g clip-path="url(#clipPath26)" id="g24">
        <path id="path30" style="fill:#ffffff;fill-opacity:1;fill-rule:evenodd;stroke:none" d="m 50.625,104.74 691.05,0 0,402.53 -691.05,0 0,-402.53 z"/>
      </g>
    </g>
    <path id="path32" style="fill:none;stroke:#d9d9d9;stroke-width:1.34829998;stroke-linecap:butt;stroke-linejoin:round;stroke-miterlimit:10;stroke-dasharray:none;stroke-opacity:1" d="m 122.44,176.36 599.46,0 m -599.46,29.99 599.46,0 m -599.46,29.98 599.46,0 m -599.46,29.99 599.46,0 m -599.46,29.99 599.46,0 m -599.46,29.98 599.46,0 m -599.46,29.99 599.46,0 m -599.46,29.99 599.46,0 m -599.46,30.2 599.46,0 m -599.46,29.9 599.46,0"/>
    <path id="path34" style="fill:#137cb1;fill-opacity:1;fill-rule:nonzero;stroke:none" d="m 143.47,213.47 19.2,0 0,-67.17 -19.2,0 0,67.17 z m 85.65,-6.05 19.2,0 0,-61.12 -19.2,0 0,61.12 z m 85.64,20.93 19.2,0 0,-82.05 -19.2,0 0,82.05 z m 85.65,4.75 19.2,0 0,-86.8 -19.2,0 0,86.8 z m 85.64,35.59 19.2,0 0,-122.39 -19.2,0 0,122.39 z m 85.65,31.28 19.2,0 0,-153.67 -19.2,0 0,153.67 z m 85.64,29.99 19.2,0 0,-183.66 -19.2,0 0,183.66 z"/>
    <path id="path36" style="fill:#eacc80;fill-opacity:1;fill-rule:nonzero;stroke:none" d="m 167.85,251.87 19.2,0 0,-105.57 -19.2,0 0,105.57 z m 85.65,-11.22 19.2,0 0,-94.35 -19.2,0 0,94.35 z m 85.64,12.29 19.2,0 0,-106.64 -19.2,0 0,106.64 z m 85.65,47.03 19.2,0 0,-153.67 -19.2,0 0,153.67 z m 85.64,91.26 19.2,0 0,-244.93 -19.2,0 0,244.93 z m 85.65,15.53 19.2,0 0,-260.46 -19.2,0 0,260.46 z m 85.64,-5.39 19.2,0 0,-255.07 -19.2,0 0,255.07 z"/>
    <path id="path38" style="fill:none;stroke:#d9d9d9;stroke-width:1.34829998;stroke-linecap:butt;stroke-linejoin:round;stroke-miterlimit:10;stroke-dasharray:none;stroke-opacity:1" d="m 122.44,146.3 599.46,0"/>
    <g id="g40">
      <g clip-path="url(#clipPath44)" id="g42"><text id="text48" style="font-variant:normal;font-weight:normal;font-size:16.20000076px;font-family:'Aptos Narrow';-inkscape-font-specification:'Aptos Narrow';writing-mode:lr-tb;fill:#595959;fill-opacity:1;fill-rule:nonzero;stroke:none" transform="matrix(1,0,0,-1,99.312,141.89)"><tspan id="tspan50" y="0" x="0">0</tspan></text>
</g>
    </g>
    <g id="g52">
      <g clip-path="url(#clipPath56)" id="g54"><text id="text60" style="font-variant:normal;font-weight:normal;font-size:16.1760006px;font-family:'Aptos Narrow';-inkscape-font-specification:'Aptos Narrow';writing-mode:lr-tb;fill:#595959;fill-opacity:1;fill-rule:nonzero;stroke:none" transform="matrix(1,0,0,-1,70.512,171.89)"><tspan id="tspan62" y="0" x="0 8.201232 12.504048 20.70528 28.906511">5,000</tspan></text>
</g>
    </g>
    <g id="g64">
      <g clip-path="url(#clipPath68)" id="g66"><text id="text72" style="font-variant:normal;font-weight:normal;font-size:16.20000076px;font-family:'Aptos Narrow';-inkscape-font-specification:'Aptos Narrow';writing-mode:lr-tb;fill:#595959;fill-opacity:1;fill-rule:nonzero;stroke:none" transform="matrix(1,0,0,-1,62.328,201.91)"><tspan id="tspan74" y="0" x="0 8.2133999 16.362 20.6388 28.8522 37.000801">10,000</tspan></text>
</g>
    </g>
    <g id="g76">
      <g clip-path="url(#clipPath80)" id="g78"><text id="text84" style="font-variant:normal;font-weight:normal;font-size:16.1760006px;font-family:'Aptos Narrow';-inkscape-font-specification:'Aptos Narrow';writing-mode:lr-tb;fill:#595959;fill-opacity:1;fill-rule:nonzero;stroke:none" transform="matrix(1,0,0,-1,62.328,231.91)"><tspan id="tspan86" y="0" x="0 8.201232 16.402464 20.640575 28.841808 37.043041">15,000</tspan></text>
</g>
    </g>
    <g id="g88">
      <g clip-path="url(#clipPath92)" id="g90"><text id="text96" style="font-variant:normal;font-weight:normal;font-size:16.20000076px;font-family:'Aptos Narrow';-inkscape-font-specification:'Aptos Narrow';writing-mode:lr-tb;fill:#595959;fill-opacity:1;fill-rule:nonzero;stroke:none" transform="matrix(1,0,0,-1,62.328,261.94)"><tspan id="tspan98" y="0" x="0 8.2133999 16.362 20.6388 28.8522 37.000801">20,000</tspan></text>
</g>
    </g>
    <g id="g100">
      <g clip-path="url(#clipPath104)" id="g102"><text id="text108" style="font-variant:normal;font-weight:normal;font-size:16.1760006px;font-family:'Aptos Narrow';-inkscape-font-specification:'Aptos Narrow';writing-mode:lr-tb;fill:#595959;fill-opacity:1;fill-rule:nonzero;stroke:none" transform="matrix(1,0,0,-1,62.328,291.94)"><tspan id="tspan110" y="0" x="0 8.201232 16.402464 20.640575 28.841808 37.043041">25,000</tspan></text>
</g>
    </g>
    <g id="g112">
      <g clip-path="url(#clipPath116)" id="g114"><text id="text120" style="font-variant:normal;font-weight:normal;font-size:16.20000076px;font-family:'Aptos Narrow';-inkscape-font-specification:'Aptos Narrow';writing-mode:lr-tb;fill:#595959;fill-opacity:1;fill-rule:nonzero;stroke:none" transform="matrix(1,0,0,-1,62.328,321.96)"><tspan id="tspan122" y="0" x="0 8.2133999 16.362 20.6388 28.8522 37.000801">30,000</tspan></text>
</g>
    </g>
    <g id="g124">
      <g clip-path="url(#clipPath128)" id="g126"><text id="text132" style="font-variant:normal;font-weight:normal;font-size:16.1760006px;font-family:'Aptos Narrow';-inkscape-font-specification:'Aptos Narrow';writing-mode:lr-tb;fill:#595959;fill-opacity:1;fill-rule:nonzero;stroke:none" transform="matrix(1,0,0,-1,62.328,351.96)"><tspan id="tspan134" y="0" x="0 8.201232 16.402464 20.640575 28.841808 37.043041">35,000</tspan></text>
</g>
    </g>
    <g id="g136">
      <g clip-path="url(#clipPath140)" id="g138"><text id="text144" style="font-variant:normal;font-weight:normal;font-size:16.1760006px;font-family:'Aptos Narrow';-inkscape-font-specification:'Aptos Narrow';writing-mode:lr-tb;fill:#595959;fill-opacity:1;fill-rule:nonzero;stroke:none" transform="matrix(1,0,0,-1,62.328,381.98)"><tspan id="tspan146" y="0" x="0 8.201232 16.402464 20.640575 28.841808 37.043041">40,000</tspan></text>
</g>
    </g>
    <g id="g148">
      <g clip-path="url(#clipPath152)" id="g150"><text id="text156" style="font-variant:normal;font-weight:normal;font-size:16.1760006px;font-family:'Aptos Narrow';-inkscape-font-specification:'Aptos Narrow';writing-mode:lr-tb;fill:#595959;fill-opacity:1;fill-rule:nonzero;stroke:none" transform="matrix(1,0,0,-1,62.328,411.98)"><tspan id="tspan158" y="0" x="0 8.201232 16.402464 20.640575 28.841808 37.043041">45,000</tspan></text>
</g>
    </g>
    <g id="g160">
      <g clip-path="url(#clipPath164)" id="g162"><text id="text168" style="font-variant:normal;font-weight:normal;font-size:16.1760006px;font-family:'Aptos Narrow';-inkscape-font-specification:'Aptos Narrow';writing-mode:lr-tb;fill:#595959;fill-opacity:1;fill-rule:nonzero;stroke:none" transform="matrix(1,0,0,-1,62.328,442.01)"><tspan id="tspan170" y="0" x="0 8.201232 16.402464 20.640575 28.841808 37.043041">50,000</tspan></text>
</g>
    </g>
    <g id="g172">
      <g clip-path="url(#clipPath176)" id="g174"><text id="text180" style="font-variant:normal;font-weight:normal;font-size:16.1760006px;font-family:'Aptos Narrow';-inkscape-font-specification:'Aptos Narrow';writing-mode:lr-tb;fill:#595959;fill-opacity:1;fill-rule:nonzero;stroke:none" transform="matrix(1,0,0,-1,148.9,120.98)"><tspan id="tspan182" y="0" x="0 8.1840324 16.368065 24.552095">2022</tspan></text>
</g>
    </g>
    <g id="g184">
      <g clip-path="url(#clipPath188)" id="g186"><text id="text192" style="font-variant:normal;font-weight:normal;font-size:16.1760006px;font-family:'Aptos Narrow';-inkscape-font-specification:'Aptos Narrow';writing-mode:lr-tb;fill:#595959;fill-opacity:1;fill-rule:nonzero;stroke:none" transform="matrix(1,0,0,-1,234.53,120.98)"><tspan id="tspan194" y="0" x="0 8.2080021 16.416004 24.624006">2023</tspan></text>
</g>
    </g>
    <g id="g196">
      <g clip-path="url(#clipPath200)" id="g198"><text id="text204" style="font-variant:normal;font-weight:normal;font-size:16.1760006px;font-family:'Aptos Narrow';-inkscape-font-specification:'Aptos Narrow';writing-mode:lr-tb;fill:#595959;fill-opacity:1;fill-rule:nonzero;stroke:none" transform="matrix(1,0,0,-1,320.18,120.98)"><tspan id="tspan206" y="0" x="0 8.2080021 16.416004 24.624006">2024</tspan></text>
</g>
    </g>
    <g id="g208">
      <g clip-path="url(#clipPath212)" id="g210"><text id="text216" style="font-variant:normal;font-weight:normal;font-size:16.1760006px;font-family:'Aptos Narrow';-inkscape-font-specification:'Aptos Narrow';writing-mode:lr-tb;fill:#595959;fill-opacity:1;fill-rule:nonzero;stroke:none" transform="matrix(1,0,0,-1,405.84,120.98)"><tspan id="tspan218" y="0" x="0 8.1840324 16.368065 24.552095">2025</tspan></text>
</g>
    </g>
    <g id="g220">
      <g clip-path="url(#clipPath224)" id="g222"><text id="text228" style="font-variant:normal;font-weight:normal;font-size:16.1760006px;font-family:'Aptos Narrow';-inkscape-font-specification:'Aptos Narrow';writing-mode:lr-tb;fill:#595959;fill-opacity:1;fill-rule:nonzero;stroke:none" transform="matrix(1,0,0,-1,487.56,120.98)"><tspan id="tspan230" y="0" x="0 8.1840324 16.368065 24.552095 32.73613">2026e</tspan></text>
</g>
    </g>
    <g id="g232">
      <g clip-path="url(#clipPath236)" id="g234"><text id="text240" style="font-variant:normal;font-weight:normal;font-size:16.1760006px;font-family:'Aptos Narrow';-inkscape-font-specification:'Aptos Narrow';writing-mode:lr-tb;fill:#595959;fill-opacity:1;fill-rule:nonzero;stroke:none" transform="matrix(1,0,0,-1,573.19,120.98)"><tspan id="tspan242" y="0" x="0 8.2080021 16.416004 24.624006 32.832008">2027e</tspan></text>
</g>
    </g>
    <g id="g244">
      <g clip-path="url(#clipPath248)" id="g246"><text id="text252" style="font-variant:normal;font-weight:normal;font-size:16.1760006px;font-family:'Aptos Narrow';-inkscape-font-specification:'Aptos Narrow';writing-mode:lr-tb;fill:#595959;fill-opacity:1;fill-rule:nonzero;stroke:none" transform="matrix(1,0,0,-1,658.85,120.98)"><tspan id="tspan254" y="0" x="0 8.2080021 16.416004 24.624006 32.832008">2028e</tspan></text>
</g>
    </g>
    <path id="path256" style="fill:#137cb1;fill-opacity:1;fill-rule:evenodd;stroke:none" d="m 217.47,476.87 8.8868,0 0,8.8868 -8.8868,0 0,-8.8868 z"/>
    <g id="g258">
      <g clip-path="url(#clipPath262)" id="g260"><text id="text266" style="font-variant:normal;font-weight:normal;font-size:16.1760006px;font-family:'Aptos Narrow';-inkscape-font-specification:'Aptos Narrow';writing-mode:lr-tb;fill:#595959;fill-opacity:1;fill-rule:nonzero;stroke:none" transform="matrix(1,0,0,-1,230.16,476.95)"><tspan id="tspan268" y="0" x="0 8.6218081 16.402464 24.166945 31.510847 39.291504 46.619232 50.275009 58.476238 65.80397 68.82888 77.062462 85.24752 93.659042 97.120705 105.53223 118.26273 126.04339 134.24463 139.03271 142.05763 151.08385 158.8645 165.56136 173.53613 181.73737 189.98712">Packaging Equipment Revenue</tspan></text>
</g>
    </g>
    <path id="path270" style="fill:#eacc80;fill-opacity:1;fill-rule:evenodd;stroke:none" d="m 456.03,476.87 8.8868,0 0,8.8868 -8.8868,0 0,-8.8868 z"/>
    <g id="g272">
      <g clip-path="url(#clipPath276)" id="g274"><text id="text280" style="font-variant:normal;font-weight:normal;font-size:16.1760006px;font-family:'Aptos Narrow';-inkscape-font-specification:'Aptos Narrow';writing-mode:lr-tb;fill:#595959;fill-opacity:1;fill-rule:nonzero;stroke:none" transform="matrix(1,0,0,-1,468.77,476.95)"><tspan id="tspan282" y="0" x="0 8.6056318 16.353935 24.118416 31.413792 39.162094 46.441296 50.113247 58.31448 65.593681 68.618591 78.744766 86.703362 94.888412 102.84701">Packaging Capex</tspan></text>
</g>
    </g>
  </g>
</svg>
