<svg version="1.1" width="100%" height="100%" viewBox="0 0 355 237" xmlns="http://www.w3.org/2000/svg" xmlns:xlink="http://www.w3.org/1999/xlink"><style type="text/css" /><defs><clipPath id="clip001"><path d="M0,0 L2761.333,0 L2761.333,1968 L0,1968 Z" clip-rule="evenodd" /></clipPath><clipPath id="clip002"><path d="M0,0 L2761.333,0 L2761.333,1968 L0,1968 Z" clip-rule="evenodd" /></clipPath><clipPath id="clip003"><path d="M0,0 L2761.333,0 L2761.333,1968 L0,1968 Z" clip-rule="evenodd" /></clipPath><clipPath id="clip004"><path d="M0,0 L5200,0 L5200,2076 L0,2076 Z" clip-rule="evenodd" /></clipPath><clipPath id="clip005"><path d="M-800,0 L6000,0 L6000,2076 L-800,2076 Z" clip-rule="evenodd" /></clipPath><clipPath id="clip006"><path d="M0,0 L2753.333,0 L2753.333,1966.667 L0,1966.667 Z" clip-rule="evenodd" /></clipPath><clipPath id="clip007"><path d="M445.3333,60 L2750.667,60 L2750.667,1738.667 L445.3333,1738.667 Z" clip-rule="evenodd" /></clipPath><clipPath id="clip008"><path d="M445.3333,60 L2750.667,60 L2750.667,1738.667 L445.3333,1738.667 Z" clip-rule="evenodd" /></clipPath><clipPath id="clip009"><path d="M445.3333,60 L2750.667,60 L2750.667,1738.667 L445.3333,1738.667 Z" clip-rule="evenodd" /></clipPath><clipPath id="clip010"><path d="M445.3333,60 L2750.667,60 L2750.667,1738.667 L445.3333,1738.667 Z" clip-rule="evenodd" /></clipPath><clipPath id="clip011"><path d="M445.3333,60 L2750.667,60 L2750.667,1738.667 L445.3333,1738.667 Z" clip-rule="evenodd" /></clipPath><clipPath id="clip012"><path d="M445.3333,60 L2750.667,60 L2750.667,1738.667 L445.3333,1738.667 Z" clip-rule="evenodd" /></clipPath><clipPath id="clip013"><path d="M0,0 L2753.333,0 L2753.333,1966.667 L0,1966.667 Z" clip-rule="evenodd" /></clipPath><clipPath id="clip014"><path d="M0,0 L2753.333,0 L2753.333,1966.667 L0,1966.667 Z" clip-rule="evenodd" /></clipPath><clipPath id="clip015"><path d="M0,0 L2753.333,0 L2753.333,1966.667 L0,1966.667 Z" clip-rule="evenodd" /></clipPath><clipPath id="clip016"><path d="M0,0 L2753.333,0 L2753.333,1966.667 L0,1966.667 Z" clip-rule="evenodd" /></clipPath><clipPath id="clip017"><path d="M0,0 L2753.333,0 L2753.333,1966.667 L0,1966.667 Z" clip-rule="evenodd" /></clipPath><clipPath id="clip018"><path d="M0,0 L2753.333,0 L2753.333,1966.667 L0,1966.667 Z" clip-rule="evenodd" /></clipPath><clipPath id="clip019"><path d="M0,0 L2753.333,0 L2753.333,1966.667 L0,1966.667 Z" clip-rule="evenodd" /></clipPath><clipPath id="clip020"><path d="M0,0 L2753.333,0 L2753.333,1966.667 L0,1966.667 Z" clip-rule="evenodd" /></clipPath><clipPath id="clip021"><path d="M0,0 L2753.333,0 L2753.333,1966.667 L0,1966.667 Z" clip-rule="evenodd" /></clipPath><clipPath id="clip022"><path d="M0,0 L2753.333,0 L2753.333,1966.667 L0,1966.667 Z" clip-rule="evenodd" /></clipPath><clipPath id="clip023"><path d="M0,0 L2753.333,0 L2753.333,1966.667 L0,1966.667 Z" clip-rule="evenodd" /></clipPath><clipPath id="clip024"><path d="M0,0 L2753.333,0 L2753.333,1966.667 L0,1966.667 Z" clip-rule="evenodd" /></clipPath><clipPath id="clip025"><path d="M0,0 L2753.333,0 L2753.333,1966.667 L0,1966.667 Z" clip-rule="evenodd" /></clipPath><clipPath id="clip026"><path d="M0,0 L2753.333,0 L2753.333,1966.667 L0,1966.667 Z" clip-rule="evenodd" /></clipPath><clipPath id="clip027"><path d="M0,0 L2753.333,0 L2753.333,1966.667 L0,1966.667 Z" clip-rule="evenodd" /></clipPath><clipPath id="clip028"><path d="M0,0 L2753.333,0 L2753.333,1966.667 L0,1966.667 Z" clip-rule="evenodd" /></clipPath><clipPath id="clip029"><path d="M0,0 L2753.333,0 L2753.333,1966.667 L0,1966.667 Z" clip-rule="evenodd" /></clipPath><clipPath id="clip030"><path d="M0,0 L2753.333,0 L2753.333,1966.667 L0,1966.667 Z" clip-rule="evenodd" /></clipPath><clipPath id="clip031"><path d="M0,0 L2753.333,0 L2753.333,1966.667 L0,1966.667 Z" clip-rule="evenodd" /></clipPath><clipPath id="clip032"><path d="M0,0 L2753.333,0 L2753.333,1966.667 L0,1966.667 Z" clip-rule="evenodd" /></clipPath><clipPath id="clip033"><path d="M0,0 L2753.333,0 L2753.333,1966.667 L0,1966.667 Z" clip-rule="evenodd" /></clipPath><clipPath id="clip034"><path d="M0,0 L2753.333,0 L2753.333,1966.667 L0,1966.667 Z" clip-rule="evenodd" /></clipPath><clipPath id="clip035"><path d="M0,0 L2753.333,0 L2753.333,1966.667 L0,1966.667 Z" clip-rule="evenodd" /></clipPath><clipPath id="clip036"><path d="M0,0 L2753.333,0 L2753.333,1966.667 L0,1966.667 Z" clip-rule="evenodd" /></clipPath><clipPath id="clip037"><path d="M0,0 L2753.333,0 L2753.333,1966.667 L0,1966.667 Z" clip-rule="evenodd" /></clipPath><clipPath id="clip038"><path d="M0,0 L2753.333,0 L2753.333,1966.667 L0,1966.667 Z" clip-rule="evenodd" /></clipPath><clipPath id="clip039"><path d="M0,0 L2753.333,0 L2753.333,1966.667 L0,1966.667 Z" clip-rule="evenodd" /></clipPath></defs><clipPath id="page-clip-path-1"><rect x="0" y="0" width="354.67" height="237.33" /></clipPath><g clip-path="url(#page-clip-path-1)" transform="translate(0.17,0)"><g transform="translate(1,1)"><g><g transform="matrix(0.1197006,0,0,0.1199526,0,0)" clip-path="url(#clip001)"><g><g clip-path="url(#clip002)"><g><g clip-path="url(#clip003)"><g transform="matrix(1.000214,0,0,1.000934,0.00016276,0)"><g><g><g clip-path="url(#clip004)"><g transform="translate(2753.333,1968)" /></g></g></g><g clip-path="url(#clip005)"><g transform="matrix(0.000656168,0,0,0.000656168,0,0)"><path d="M0,0 L4198112,0 L4198112,2997200 L0,2997200 Z" fill="#ffffff" fill-opacity="0" fill-rule="evenodd" /></g></g><g clip-path="url(#clip006)"><g transform="matrix(0.000656168,0,0,0.000656168,446.6667,60)"><path d="M0,1698752 L3499104,1698752 M0,849376 L3499104,849376 M0,0 L3499104,0 " stroke-width="16933.33" stroke-linejoin="round" stroke-miterlimit="13.33333" stroke="#bababa" fill="none" fill-rule="nonzero" /></g></g><g clip-path="url(#clip007)"><g transform="matrix(0.000656168,0,0,0.000656168,446.6667,60)"><path d="M65024,2525776 L323088,2525776 L323088,2525776 L323088,2548128 L323088,2548128 L65024,2548128 ZM453136,2501392 L711200,2501392 L711200,2501392 L711200,2548128 L711200,2548128 L453136,2548128 ZM841248,2454656 L1101344,2454656 L1101344,2454656 L1101344,2548128 L1101344,2548128 L841248,2548128 ZM1231392,2395728 L1489456,2395728 L1489456,2395728 L1489456,2548128 L1489456,2548128 L1231392,2548128 ZM1619504,2318512 L1879600,2318512 L1879600,2318512 L1879600,2548128 L1879600,2548128 L1619504,2548128 ZM2007616,2190496 L2267712,2190496 L2267712,2190496 L2267712,2548128 L2267712,2548128 L2007616,2548128 ZM2397760,2186432 L2655824,2186432 L2655824,2186432 L2655824,2548128 L2655824,2548128 L2397760,2548128 ZM2785872,2145792 L3045968,2145792 L3045968,2145792 L3045968,2548128 L3045968,2548128 L2785872,2548128 ZM3173984,2129536 L3434080,2129536 L3434080,2129536 L3434080,2548128 L3434080,2548128 L3173984,2548128 Z" fill="#012169" fill-rule="nonzero" /><path d="M65024,2525776 L323088,2525776 L323088,2525776 L323088,2548128 L323088,2548128 L65024,2548128 ZM453136,2501392 L711200,2501392 L711200,2501392 L711200,2548128 L711200,2548128 L453136,2548128 ZM841248,2454656 L1101344,2454656 L1101344,2454656 L1101344,2548128 L1101344,2548128 L841248,2548128 ZM1231392,2395728 L1489456,2395728 L1489456,2395728 L1489456,2548128 L1489456,2548128 L1231392,2548128 ZM1619504,2318512 L1879600,2318512 L1879600,2318512 L1879600,2548128 L1879600,2548128 L1619504,2548128 ZM2007616,2190496 L2267712,2190496 L2267712,2190496 L2267712,2548128 L2267712,2548128 L2007616,2548128 ZM2397760,2186432 L2655824,2186432 L2655824,2186432 L2655824,2548128 L2655824,2548128 L2397760,2548128 ZM2785872,2145792 L3045968,2145792 L3045968,2145792 L3045968,2548128 L3045968,2548128 L2785872,2548128 ZM3173984,2129536 L3434080,2129536 L3434080,2129536 L3434080,2548128 L3434080,2548128 L3173984,2548128 Z" stroke-width="8466.667" stroke-linejoin="round" stroke-miterlimit="13.33333" stroke="#ffffff" fill="none" fill-rule="nonzero" /></g></g><g clip-path="url(#clip008)"><g transform="matrix(0.000656168,0,0,0.000656168,446.6667,60)"><path d="M65024,2521712 L323088,2521712 L323088,2521712 L323088,2525776 L323088,2525776 L65024,2525776 ZM453136,2495296 L711200,2495296 L711200,2495296 L711200,2501392 L711200,2501392 L453136,2501392 ZM841248,2444496 L1101344,2444496 L1101344,2444496 L1101344,2454656 L1101344,2454656 L841248,2454656 ZM1231392,2379472 L1489456,2379472 L1489456,2379472 L1489456,2395728 L1489456,2395728 L1231392,2395728 ZM1619504,2286000 L1879600,2286000 L1879600,2286000 L1879600,2318512 L1879600,2318512 L1619504,2318512 ZM2007616,2082800 L2267712,2082800 L2267712,2082800 L2267712,2190496 L2267712,2190496 L2007616,2190496 ZM2397760,2025904 L2655824,2025904 L2655824,2025904 L2655824,2186432 L2655824,2186432 L2397760,2186432 ZM2785872,1991360 L3045968,1991360 L3045968,1991360 L3045968,2145792 L3045968,2145792 L2785872,2145792 ZM3173984,1987296 L3434080,1987296 L3434080,1987296 L3434080,2129536 L3434080,2129536 L3173984,2129536 Z" fill="#009cde" fill-rule="nonzero" /><path d="M65024,2521712 L323088,2521712 L323088,2521712 L323088,2525776 L323088,2525776 L65024,2525776 ZM453136,2495296 L711200,2495296 L711200,2495296 L711200,2501392 L711200,2501392 L453136,2501392 ZM841248,2444496 L1101344,2444496 L1101344,2444496 L1101344,2454656 L1101344,2454656 L841248,2454656 ZM1231392,2379472 L1489456,2379472 L1489456,2379472 L1489456,2395728 L1489456,2395728 L1231392,2395728 ZM1619504,2286000 L1879600,2286000 L1879600,2286000 L1879600,2318512 L1879600,2318512 L1619504,2318512 ZM2007616,2082800 L2267712,2082800 L2267712,2082800 L2267712,2190496 L2267712,2190496 L2007616,2190496 ZM2397760,2025904 L2655824,2025904 L2655824,2025904 L2655824,2186432 L2655824,2186432 L2397760,2186432 ZM2785872,1991360 L3045968,1991360 L3045968,1991360 L3045968,2145792 L3045968,2145792 L2785872,2145792 ZM3173984,1987296 L3434080,1987296 L3434080,1987296 L3434080,2129536 L3434080,2129536 L3173984,2129536 Z" stroke-width="8466.667" stroke-linejoin="round" stroke-miterlimit="13.33333" stroke="#ffffff" fill="none" fill-rule="nonzero" /></g></g><g clip-path="url(#clip009)"><g transform="matrix(0.000656168,0,0,0.000656168,446.6667,60)"><path d="M65024,2519680 L323088,2519680 L323088,2519680 L323088,2521712 L323088,2521712 L65024,2521712 ZM453136,2493264 L711200,2493264 L711200,2493264 L711200,2495296 L711200,2495296 L453136,2495296 ZM841248,2438400 L1101344,2438400 L1101344,2438400 L1101344,2444496 L1101344,2444496 L841248,2444496 ZM1231392,2369312 L1489456,2369312 L1489456,2369312 L1489456,2379472 L1489456,2379472 L1231392,2379472 ZM1619504,2259584 L1879600,2259584 L1879600,2259584 L1879600,2286000 L1879600,2286000 L1619504,2286000 ZM2007616,1979168 L2267712,1979168 L2267712,1979168 L2267712,2082800 L2267712,2082800 L2007616,2082800 ZM2397760,1903984 L2655824,1903984 L2655824,1903984 L2655824,2025904 L2655824,2025904 L2397760,2025904 ZM2785872,1853184 L3045968,1853184 L3045968,1853184 L3045968,1991360 L3045968,1991360 L2785872,1991360 ZM3173984,1851152 L3434080,1851152 L3434080,1851152 L3434080,1987296 L3434080,1987296 L3173984,1987296 Z" fill="#e56200" fill-rule="nonzero" /><path d="M65024,2519680 L323088,2519680 L323088,2519680 L323088,2521712 L323088,2521712 L65024,2521712 ZM453136,2493264 L711200,2493264 L711200,2493264 L711200,2495296 L711200,2495296 L453136,2495296 ZM841248,2438400 L1101344,2438400 L1101344,2438400 L1101344,2444496 L1101344,2444496 L841248,2444496 ZM1231392,2369312 L1489456,2369312 L1489456,2369312 L1489456,2379472 L1489456,2379472 L1231392,2379472 ZM1619504,2259584 L1879600,2259584 L1879600,2259584 L1879600,2286000 L1879600,2286000 L1619504,2286000 ZM2007616,1979168 L2267712,1979168 L2267712,1979168 L2267712,2082800 L2267712,2082800 L2007616,2082800 ZM2397760,1903984 L2655824,1903984 L2655824,1903984 L2655824,2025904 L2655824,2025904 L2397760,2025904 ZM2785872,1853184 L3045968,1853184 L3045968,1853184 L3045968,1991360 L3045968,1991360 L2785872,1991360 ZM3173984,1851152 L3434080,1851152 L3434080,1851152 L3434080,1987296 L3434080,1987296 L3173984,1987296 Z" stroke-width="8466.667" stroke-linejoin="round" stroke-miterlimit="13.33333" stroke="#ffffff" fill="none" fill-rule="nonzero" /></g></g><g clip-path="url(#clip010)"><g transform="matrix(0.000656168,0,0,0.000656168,446.6667,60)"><path d="M65024,2456688 L323088,2456688 L323088,2456688 L323088,2521712 L323088,2521712 L65024,2521712 ZM453136,2359152 L711200,2359152 L711200,2359152 L711200,2493264 L711200,2493264 L453136,2493264 ZM841248,2168144 L1101344,2168144 L1101344,2168144 L1101344,2438400 L1101344,2438400 L841248,2438400 ZM1231392,1928368 L1489456,1928368 L1489456,1928368 L1489456,2369312 L1489456,2369312 L1231392,2369312 ZM1619504,1580896 L1879600,1580896 L1879600,1580896 L1879600,2259584 L1879600,2259584 L1619504,2259584 ZM2007616,843280 L2267712,843280 L2267712,843280 L2267712,1979168 L2267712,1979168 L2007616,1979168 ZM2397760,759968 L2655824,759968 L2655824,759968 L2655824,1903984 L2655824,1903984 L2397760,1903984 ZM2785872,548640 L3045968,548640 L3045968,548640 L3045968,1853184 L3045968,1853184 L2785872,1853184 ZM3173984,475488 L3434080,475488 L3434080,475488 L3434080,1851152 L3434080,1851152 L3173984,1851152 Z" fill="#006980" fill-rule="nonzero" /><path d="M65024,2456688 L323088,2456688 L323088,2456688 L323088,2521712 L323088,2521712 L65024,2521712 ZM453136,2359152 L711200,2359152 L711200,2359152 L711200,2493264 L711200,2493264 L453136,2493264 ZM841248,2168144 L1101344,2168144 L1101344,2168144 L1101344,2438400 L1101344,2438400 L841248,2438400 ZM1231392,1928368 L1489456,1928368 L1489456,1928368 L1489456,2369312 L1489456,2369312 L1231392,2369312 ZM1619504,1580896 L1879600,1580896 L1879600,1580896 L1879600,2259584 L1879600,2259584 L1619504,2259584 ZM2007616,843280 L2267712,843280 L2267712,843280 L2267712,1979168 L2267712,1979168 L2007616,1979168 ZM2397760,759968 L2655824,759968 L2655824,759968 L2655824,1903984 L2655824,1903984 L2397760,1903984 ZM2785872,548640 L3045968,548640 L3045968,548640 L3045968,1853184 L3045968,1853184 L2785872,1853184 ZM3173984,475488 L3434080,475488 L3434080,475488 L3434080,1851152 L3434080,1851152 L3173984,1851152 Z" stroke-width="8466.667" stroke-linejoin="round" stroke-miterlimit="13.33333" stroke="#ffffff" fill="none" fill-rule="nonzero" /></g></g><g clip-path="url(#clip011)"><g transform="matrix(0.000656168,0,0,0.000656168,446.6667,60)"><path d="M65024,2452624 L323088,2452624 L323088,2452624 L323088,2456688 L323088,2456688 L65024,2456688 ZM453136,2351024 L711200,2351024 L711200,2351024 L711200,2359152 L711200,2359152 L453136,2359152 ZM841248,2149856 L1101344,2149856 L1101344,2149856 L1101344,2168144 L1101344,2168144 L841248,2168144 ZM1231392,1899920 L1489456,1899920 L1489456,1899920 L1489456,1928368 L1489456,1928368 L1231392,1928368 ZM1619504,1534160 L1879600,1534160 L1879600,1534160 L1879600,1580896 L1879600,1580896 L1619504,1580896 ZM2007616,751840 L2267712,751840 L2267712,751840 L2267712,843280 L2267712,843280 L2007616,843280 ZM2397760,650240 L2655824,650240 L2655824,650240 L2655824,759968 L2655824,759968 L2397760,759968 ZM2785872,424688 L3045968,424688 L3045968,424688 L3045968,548640 L3045968,548640 L2785872,548640 ZM3173984,345440 L3434080,345440 L3434080,345440 L3434080,475488 L3434080,475488 L3173984,475488 Z" fill="#279f00" fill-rule="nonzero" /><path d="M65024,2452624 L323088,2452624 L323088,2452624 L323088,2456688 L323088,2456688 L65024,2456688 ZM453136,2351024 L711200,2351024 L711200,2351024 L711200,2359152 L711200,2359152 L453136,2359152 ZM841248,2149856 L1101344,2149856 L1101344,2149856 L1101344,2168144 L1101344,2168144 L841248,2168144 ZM1231392,1899920 L1489456,1899920 L1489456,1899920 L1489456,1928368 L1489456,1928368 L1231392,1928368 ZM1619504,1534160 L1879600,1534160 L1879600,1534160 L1879600,1580896 L1879600,1580896 L1619504,1580896 ZM2007616,751840 L2267712,751840 L2267712,751840 L2267712,843280 L2267712,843280 L2007616,843280 ZM2397760,650240 L2655824,650240 L2655824,650240 L2655824,759968 L2655824,759968 L2397760,759968 ZM2785872,424688 L3045968,424688 L3045968,424688 L3045968,548640 L3045968,548640 L2785872,548640 ZM3173984,345440 L3434080,345440 L3434080,345440 L3434080,475488 L3434080,475488 L3173984,475488 Z" stroke-width="8466.667" stroke-linejoin="round" stroke-miterlimit="13.33333" stroke="#ffffff" fill="none" fill-rule="nonzero" /></g></g><g clip-path="url(#clip012)"><g transform="matrix(0.000656168,0,0,0.000656168,446.6667,60)"><path d="M65024,2450592 L323088,2450592 L323088,2450592 L323088,2452624 L323088,2452624 L65024,2452624 ZM453136,2344928 L711200,2344928 L711200,2344928 L711200,2351024 L711200,2351024 L453136,2351024 ZM841248,2137664 L1101344,2137664 L1101344,2137664 L1101344,2149856 L1101344,2149856 L841248,2149856 ZM1231392,1879600 L1489456,1879600 L1489456,1879600 L1489456,1899920 L1489456,1899920 L1231392,1899920 ZM1619504,1503680 L1879600,1503680 L1879600,1503680 L1879600,1534160 L1879600,1534160 L1619504,1534160 ZM2007616,692912 L2267712,692912 L2267712,692912 L2267712,751840 L2267712,751840 L2007616,751840 ZM2397760,583184 L2655824,583184 L2655824,583184 L2655824,650240 L2655824,650240 L2397760,650240 ZM2785872,349504 L3045968,349504 L3045968,349504 L3045968,424688 L3045968,424688 L2785872,424688 ZM3173984,268224 L3434080,268224 L3434080,268224 L3434080,345440 L3434080,345440 L3173984,345440 Z" fill="#bb8099" fill-rule="nonzero" /><path d="M65024,2450592 L323088,2450592 L323088,2450592 L323088,2452624 L323088,2452624 L65024,2452624 ZM453136,2344928 L711200,2344928 L711200,2344928 L711200,2351024 L711200,2351024 L453136,2351024 ZM841248,2137664 L1101344,2137664 L1101344,2137664 L1101344,2149856 L1101344,2149856 L841248,2149856 ZM1231392,1879600 L1489456,1879600 L1489456,1879600 L1489456,1899920 L1489456,1899920 L1231392,1899920 ZM1619504,1503680 L1879600,1503680 L1879600,1503680 L1879600,1534160 L1879600,1534160 L1619504,1534160 ZM2007616,692912 L2267712,692912 L2267712,692912 L2267712,751840 L2267712,751840 L2007616,751840 ZM2397760,583184 L2655824,583184 L2655824,583184 L2655824,650240 L2655824,650240 L2397760,650240 ZM2785872,349504 L3045968,349504 L3045968,349504 L3045968,424688 L3045968,424688 L2785872,424688 ZM3173984,268224 L3434080,268224 L3434080,268224 L3434080,345440 L3434080,345440 L3173984,345440 Z" stroke-width="8466.667" stroke-linejoin="round" stroke-miterlimit="13.33333" stroke="#ffffff" fill="none" fill-rule="nonzero" /></g></g><g clip-path="url(#clip013)"><g transform="matrix(0.000656168,0,0,0.000656168,446.6667,1732)"><g><path d="M0.002580978,-6773.333 L3499104,-6772 " stroke-width="3386.667" stroke-linejoin="round" stroke-miterlimit="13.33333" stroke="#000000" fill="none" fill-rule="evenodd" /><path d="M-0.001290489,3386.667 L3499104,3388 " stroke-width="10160" stroke-linejoin="round" stroke-miterlimit="13.33333" stroke="#000000" fill="none" fill-rule="evenodd" /></g></g></g><g><g clip-path="url(#clip014)"><g><g transform="translate(236.3333,1761.097)"><text><tspan x="0" y="0" font-family="Connections Cond Light,Arial Narrow" font-weight="normal" font-style="normal" font-size="105.3333" fill="#000000">$0</tspan></text></g></g></g></g><g><g clip-path="url(#clip015)"><g><g transform="translate(16.66667,1203.963)"><text><tspan x="0" y="0" font-family="Connections Cond Light,Arial Narrow" font-weight="normal" font-style="normal" font-size="105.3333" fill="#000000">$10,000</tspan></text></g></g></g></g><g><g clip-path="url(#clip016)"><g><g transform="translate(16.66667,646.8286)"><text><tspan x="0" y="0" font-family="Connections Cond Light,Arial Narrow" font-weight="normal" font-style="normal" font-size="105.3333" fill="#000000">$20,000</tspan></text></g></g></g></g><g><g clip-path="url(#clip017)"><g><g transform="translate(16.66667,89.69466)"><text><tspan x="0" y="0" font-family="Connections Cond Light,Arial Narrow" font-weight="normal" font-style="normal" font-size="105.3333" fill="#000000">$30,000</tspan></text></g></g></g></g><g><g clip-path="url(#clip018)"><g><g transform="translate(475.4007,1887.347)"><text><tspan x="0" y="0" font-family="Connections Cond Light,Arial Narrow" font-weight="normal" font-style="normal" font-size="105.3333" fill="#000000">CY22</tspan></text></g></g></g></g><g><g clip-path="url(#clip019)"><g><g transform="translate(730.5328,1887.347)"><text><tspan x="0" y="0" font-family="Connections Cond Light,Arial Narrow" font-weight="normal" font-style="normal" font-size="105.3333" fill="#000000">CY23</tspan></text></g></g></g></g><g><g clip-path="url(#clip020)"><g><g transform="translate(985.6658,1887.347)"><text><tspan x="0" y="0" font-family="Connections Cond Light,Arial Narrow" font-weight="normal" font-style="normal" font-size="105.3333" fill="#000000">CY24</tspan></text></g></g></g></g><g><g clip-path="url(#clip021)"><g><g transform="translate(1240.798,1887.347)"><text><tspan x="0" y="0" font-family="Connections Cond Light,Arial Narrow" font-weight="normal" font-style="normal" font-size="105.3333" fill="#000000">CY25</tspan></text></g></g></g></g><g><g clip-path="url(#clip022)"><g><g transform="translate(1495.93,1887.347)"><text><tspan x="0" y="0" font-family="Connections Cond Light,Arial Narrow" font-weight="normal" font-style="normal" font-size="105.3333" fill="#000000">CY26</tspan></text></g></g></g></g><g><g clip-path="url(#clip023)"><g><g transform="translate(1751.062,1887.347)"><text><tspan x="0" y="0" font-family="Connections Cond Light,Arial Narrow" font-weight="normal" font-style="normal" font-size="105.3333" fill="#000000">CY27</tspan></text></g></g></g></g><g><g clip-path="url(#clip024)"><g><g transform="translate(2006.194,1887.347)"><text><tspan x="0" y="0" font-family="Connections Cond Light,Arial Narrow" font-weight="normal" font-style="normal" font-size="105.3333" fill="#000000">CY28</tspan></text></g></g></g></g><g><g clip-path="url(#clip025)"><g><g transform="translate(2261.327,1887.347)"><text><tspan x="0" y="0" font-family="Connections Cond Light,Arial Narrow" font-weight="normal" font-style="normal" font-size="105.3333" fill="#000000">CY29</tspan></text></g></g></g></g><g><g clip-path="url(#clip026)"><g><g transform="translate(2516.459,1887.347)"><text><tspan x="0" y="0" font-family="Connections Cond Light,Arial Narrow" font-weight="normal" font-style="normal" font-size="105.3333" fill="#000000">CY30</tspan></text></g></g></g></g><g clip-path="url(#clip027)"><g transform="matrix(0.000656168,0,0,0.000656168,468,100)"><path d="M0,0 L2420112,0 L2420112,570992 L0,570992 Z" fill="#156082" fill-opacity="0" fill-rule="evenodd" /></g></g><g clip-path="url(#clip028)"><g transform="matrix(0.000656168,0,0,0.000656168,562.6667,166.6667)"><path d="M0,0 L81280.01,0 L81280.01,83312 L0,83312 Z" fill="#012169" fill-rule="evenodd" /><path d="M0,0 L81280.01,0 L81280.01,0 L81280.01,83312 L81280.01,83312 L0,83312 Z" stroke-width="8466.667" stroke-linejoin="round" stroke-miterlimit="13.33333" stroke="#ffffff" fill="none" fill-rule="evenodd" /></g></g><g><g clip-path="url(#clip029)"><g><g transform="translate(638.9169,223.3683)"><text><tspan x="0" y="0" font-family="Connections Cond Light,Arial Narrow" font-weight="normal" font-style="normal" font-size="105.3333" fill="#000000">Silicon</tspan></text></g></g></g></g><g clip-path="url(#clip030)"><g transform="matrix(0.000656168,0,0,0.000656168,1090.667,166.6667)"><path d="M0,0 L83312,0 L83312,83312 L0,83312 Z" fill="#009cde" fill-rule="evenodd" /><path d="M0,0 L83312,0 L83312,0 L83312,83312 L83312,83312 L0,83312 Z" stroke-width="8466.667" stroke-linejoin="round" stroke-miterlimit="13.33333" stroke="#ffffff" fill="none" fill-rule="evenodd" /></g></g><g><g clip-path="url(#clip031)"><g><g transform="translate(1167.831,223.3683)"><text><tspan x="0" y="0" font-family="Connections Cond Light,Arial Narrow" font-weight="normal" font-style="normal" font-size="105.3333" fill="#000000">SiC</tspan></text></g></g></g></g><g clip-path="url(#clip032)"><g transform="matrix(0.000656168,0,0,0.000656168,1620,166.6667)"><path d="M0,0 L81280.01,0 L81280.01,83312 L0,83312 Z" fill="#e56200" fill-rule="evenodd" /><path d="M0,0 L81280.01,0 L81280.01,0 L81280.01,83312 L81280.01,83312 L0,83312 Z" stroke-width="8466.667" stroke-linejoin="round" stroke-miterlimit="13.33333" stroke="#ffffff" fill="none" fill-rule="evenodd" /></g></g><g><g clip-path="url(#clip033)"><g><g transform="translate(1696.745,223.3683)"><text><tspan x="0" y="0" font-family="Connections Cond Light,Arial Narrow" font-weight="normal" font-style="normal" font-size="105.3333" fill="#000000">GaN</tspan></text></g></g></g></g><g clip-path="url(#clip034)"><g transform="matrix(0.000656168,0,0,0.000656168,562.6667,353.3333)"><path d="M0,0 L81280.01,0 L81280.01,83312 L0,83312 Z" fill="#006980" fill-rule="evenodd" /><path d="M0,0 L81280.01,0 L81280.01,0 L81280.01,83312 L81280.01,83312 L0,83312 Z" stroke-width="8466.667" stroke-linejoin="round" stroke-miterlimit="13.33333" stroke="#ffffff" fill="none" fill-rule="evenodd" /></g></g><g><g clip-path="url(#clip035)"><g><g transform="translate(638.9169,410.4619)"><text><tspan x="0" y="0" font-family="Connections Cond Light,Arial Narrow" font-weight="normal" font-style="normal" font-size="105.3333" fill="#000000">Analog</tspan></text></g></g></g></g><g clip-path="url(#clip036)"><g transform="matrix(0.000656168,0,0,0.000656168,1090.667,353.3333)"><path d="M0,0 L83312,0 L83312,83312 L0,83312 Z" fill="#279f00" fill-rule="evenodd" /><path d="M0,0 L83312,0 L83312,0 L83312,83312 L83312,83312 L0,83312 Z" stroke-width="8466.667" stroke-linejoin="round" stroke-miterlimit="13.33333" stroke="#ffffff" fill="none" fill-rule="evenodd" /></g></g><g><g clip-path="url(#clip037)"><g><g transform="translate(1167.831,410.4619)"><text><tspan x="0" y="0" font-family="Connections Cond Light,Arial Narrow" font-weight="normal" font-style="normal" font-size="105.3333" fill="#000000">MCU</tspan></text></g></g></g></g><g clip-path="url(#clip038)"><g transform="matrix(0.000656168,0,0,0.000656168,1620,353.3333)"><path d="M0,0 L81280.01,0 L81280.01,83312 L0,83312 Z" fill="#bb8099" fill-rule="evenodd" /><path d="M0,0 L81280.01,0 L81280.01,0 L81280.01,83312 L81280.01,83312 L0,83312 Z" stroke-width="8466.667" stroke-linejoin="round" stroke-miterlimit="13.33333" stroke="#ffffff" fill="none" fill-rule="evenodd" /></g></g><g><g clip-path="url(#clip039)"><g><g transform="translate(1696.745,410.4619)"><text><tspan x="0" y="0" font-family="Connections Cond Light,Arial Narrow" font-weight="normal" font-style="normal" font-size="105.3333" fill="#000000">Sensors</tspan></text></g></g></g></g><g /></g></g></g></g></g></g></g></g></g></svg>