<svg version="1.1" width="100%" height="100%" viewBox="0 0 355 187" xmlns="http://www.w3.org/2000/svg" xmlns:xlink="http://www.w3.org/1999/xlink"><style type="text/css" /><defs><clipPath id="clip001"><path d="M0,0 L2761.333,0 L2761.333,1552 L0,1552 Z" clip-rule="evenodd" /></clipPath><clipPath id="clip002"><path d="M0,0 L2761.333,0 L2761.333,1552 L0,1552 Z" clip-rule="evenodd" /></clipPath><clipPath id="clip003"><path d="M0,0 L2761.333,0 L2761.333,1552 L0,1552 Z" clip-rule="evenodd" /></clipPath><clipPath id="clip004"><path d="M0,0 L5200,0 L5200,1660 L0,1660 Z" clip-rule="evenodd" /></clipPath><clipPath id="clip005"><path d="M-800,0 L6000,0 L6000,1660 L-800,1660 Z" clip-rule="evenodd" /></clipPath><clipPath id="clip006"><path d="M0,0 L2753.333,0 L2753.333,1550.667 L0,1550.667 Z" clip-rule="evenodd" /></clipPath><clipPath id="clip007"><path d="M0,0 L2753.333,0 L2753.333,1550.667 L0,1550.667 Z" clip-rule="evenodd" /></clipPath><clipPath id="clip008"><path d="M0,0 L2753.333,0 L2753.333,1550.667 L0,1550.667 Z" clip-rule="evenodd" /></clipPath><clipPath id="clip009"><path d="M306.6667,60 L2752,60 L2752,1232 L306.6667,1232 Z" clip-rule="evenodd" /></clipPath><clipPath id="clip010"><path d="M306.6667,60 L2752,60 L2752,1232 L306.6667,1232 Z" clip-rule="evenodd" /></clipPath><clipPath id="clip011"><path d="M306.6667,60 L2752,60 L2752,1232 L306.6667,1232 Z" clip-rule="evenodd" /></clipPath><clipPath id="clip012"><path d="M0,0 L2753.333,0 L2753.333,1550.667 L0,1550.667 Z" clip-rule="evenodd" /></clipPath><clipPath id="clip013"><path d="M0,0 L2753.333,0 L2753.333,1550.667 L0,1550.667 Z" clip-rule="evenodd" /></clipPath><clipPath id="clip014"><path d="M0,0 L2753.333,0 L2753.333,1550.667 L0,1550.667 Z" clip-rule="evenodd" /></clipPath><clipPath id="clip015"><path d="M0,0 L2753.333,0 L2753.333,1550.667 L0,1550.667 Z" clip-rule="evenodd" /></clipPath><clipPath id="clip016"><path d="M0,0 L2753.333,0 L2753.333,1550.667 L0,1550.667 Z" clip-rule="evenodd" /></clipPath><clipPath id="clip017"><path d="M0,0 L2753.333,0 L2753.333,1550.667 L0,1550.667 Z" clip-rule="evenodd" /></clipPath><clipPath id="clip018"><path d="M0,0 L2753.333,0 L2753.333,1550.667 L0,1550.667 Z" clip-rule="evenodd" /></clipPath><clipPath id="clip019"><path d="M0,0 L2753.333,0 L2753.333,1550.667 L0,1550.667 Z" clip-rule="evenodd" /></clipPath><clipPath id="clip020"><path d="M0,0 L2753.333,0 L2753.333,1550.667 L0,1550.667 Z" clip-rule="evenodd" /></clipPath><clipPath id="clip021"><path d="M0,0 L2753.333,0 L2753.333,1550.667 L0,1550.667 Z" clip-rule="evenodd" /></clipPath><clipPath id="clip022"><path d="M0,0 L2753.333,0 L2753.333,1550.667 L0,1550.667 Z" clip-rule="evenodd" /></clipPath><clipPath id="clip023"><path d="M0,0 L2753.333,0 L2753.333,1550.667 L0,1550.667 Z" clip-rule="evenodd" /></clipPath><clipPath id="clip024"><path d="M0,0 L2753.333,0 L2753.333,1550.667 L0,1550.667 Z" clip-rule="evenodd" /></clipPath><clipPath id="clip025"><path d="M0,0 L2753.333,0 L2753.333,1550.667 L0,1550.667 Z" clip-rule="evenodd" /></clipPath><clipPath id="clip026"><path d="M0,0 L2753.333,0 L2753.333,1550.667 L0,1550.667 Z" clip-rule="evenodd" /></clipPath><clipPath id="clip027"><path d="M0,0 L2753.333,0 L2753.333,1550.667 L0,1550.667 Z" clip-rule="evenodd" /></clipPath><clipPath id="clip028"><path d="M0,0 L2753.333,0 L2753.333,1550.667 L0,1550.667 Z" clip-rule="evenodd" /></clipPath><clipPath id="clip029"><path d="M0,0 L2753.333,0 L2753.333,1550.667 L0,1550.667 Z" clip-rule="evenodd" /></clipPath><clipPath id="clip030"><path d="M0,0 L2753.333,0 L2753.333,1550.667 L0,1550.667 Z" clip-rule="evenodd" /></clipPath><clipPath id="clip031"><path d="M0,0 L2753.333,0 L2753.333,1550.667 L0,1550.667 Z" clip-rule="evenodd" /></clipPath><clipPath id="clip032"><path d="M0,0 L2753.333,0 L2753.333,1550.667 L0,1550.667 Z" clip-rule="evenodd" /></clipPath><clipPath id="clip033"><path d="M0,0 L2753.333,0 L2753.333,1550.667 L0,1550.667 Z" clip-rule="evenodd" /></clipPath><clipPath id="clip034"><path d="M0,0 L2753.333,0 L2753.333,1550.667 L0,1550.667 Z" clip-rule="evenodd" /></clipPath><clipPath id="clip035"><path d="M0,0 L2753.333,0 L2753.333,1550.667 L0,1550.667 Z" clip-rule="evenodd" /></clipPath><clipPath id="clip036"><path d="M0,0 L2753.333,0 L2753.333,1550.667 L0,1550.667 Z" clip-rule="evenodd" /></clipPath><clipPath id="clip037"><path d="M0,0 L2753.333,0 L2753.333,1550.667 L0,1550.667 Z" clip-rule="evenodd" /></clipPath><clipPath id="clip038"><path d="M0,0 L2753.333,0 L2753.333,1550.667 L0,1550.667 Z" clip-rule="evenodd" /></clipPath><clipPath id="clip039"><path d="M0,0 L2753.333,0 L2753.333,1550.667 L0,1550.667 Z" clip-rule="evenodd" /></clipPath><clipPath id="clip040"><path d="M0,0 L2753.333,0 L2753.333,1550.667 L0,1550.667 Z" clip-rule="evenodd" /></clipPath></defs><clipPath id="page-clip-path-1"><rect x="0" y="0" width="354.67" height="186.67" /></clipPath><g clip-path="url(#page-clip-path-1)" transform="translate(0.17,0)"><g transform="translate(1,1)"><g><g transform="matrix(0.1197006,0,0,0.1199313,0,0)" clip-path="url(#clip001)"><g><g clip-path="url(#clip002)"><g><g clip-path="url(#clip003)"><g transform="matrix(1.000214,0,0,1.001144,0.00016276,0)"><g><g><g clip-path="url(#clip004)"><g transform="translate(2753.333,1552)" /></g></g></g><g clip-path="url(#clip005)"><g transform="matrix(0.000656168,0,0,0.000656168,0,0)"><path d="M0,0 L4198112,0 L4198112,2363216 L0,2363216 Z" fill="#ffffff" fill-opacity="0" fill-rule="evenodd" /></g></g><g clip-path="url(#clip006)"><g transform="matrix(0.000656168,0,0,0.000656168,306.6667,60)"><path d="M0,0 L3714496,0 L3714496,1773936 L0,1773936 Z" fill="#ffffff" fill-opacity="0" fill-rule="evenodd" /></g></g><g clip-path="url(#clip007)"><g transform="matrix(0.000656168,0,0,0.000656168,306.6667,60)"><path d="M0,1597152 L3714496,1597152 M0,1418336 L3714496,1418336 M0,1241552 L3714496,1241552 M0,1064768 L3714496,1064768 M0,887984 L3714496,887984 M0,709168 L3714496,709168 M0,532384 L3714496,532384 M0,355600 L3714496,355600 M0,176784 L3714496,176784 M0,0 L3714496,0 " stroke-width="16933.33" stroke-linejoin="round" stroke-miterlimit="13.33333" stroke="#bababa" fill="none" fill-rule="nonzero" /></g></g><g clip-path="url(#clip008)"><g transform="matrix(0.000656168,0,0,0.000656168,306.6667,1224)"><g><path d="M0.002431315,-6773.333 L3714496,-6772 " stroke-width="3386.667" stroke-linejoin="round" stroke-miterlimit="13.33333" stroke="#000000" fill="none" fill-rule="evenodd" /><path d="M-0.001215658,3386.667 L3714496,3388 " stroke-width="10160" stroke-linejoin="round" stroke-miterlimit="13.33333" stroke="#000000" fill="none" fill-rule="evenodd" /></g></g></g><g clip-path="url(#clip009)"><g transform="matrix(0.000656168,0,0,0.000656168,400.6667,274)"><path d="M0,338801.9 C95232.71,323053.2 190465.4,292388.3 285699.5,291557.2 L285699.5,291557.2 C380932.2,290726 476163.5,320551.6 571397.6,333814.7 L571397.6,333814.7 C666630.3,347076.5 761863,388112 857097.1,371130.5 L857097.1,371130.5 C952329.8,354147.8 1047563,251929.8 1142797,231922 L1142797,231922 C1238029,211914.2 1333262,246309.4 1428496,251083.8 L1428496,251083.8 C1523729,255856.9 1618962,260668.8 1714196,260565.7 L1714196,260565.7 C1809428,260461.3 1904660,284606.4 1999894,250458.8 L1999894,250458.8 C2095126,216309.8 2190359,94477.5 2285593,55677.28 L2285593,55677.28 C2380826,16877.05 2476059,26935.83 2571293,17657.39 L2571293,17657.39 C2666525,8377.626 2809375,2942.007 2856992,0 " stroke-width="33866.67" stroke-linecap="round" stroke-linejoin="round" stroke-miterlimit="13.33333" stroke="#012169" fill="none" fill-rule="nonzero" /></g></g><g clip-path="url(#clip010)"><g transform="matrix(0.000656168,0,0,0.000656168,400.6667,183.3333)"><path d="M0,890769.3 C95232.71,889607.9 190465.4,892048 285699.5,887286.4 L285699.5,887286.4 C380932.2,882523.6 476163.5,891546.7 571397.6,862193.3 L571397.6,862193.3 C666630.3,832838.7 761863,774030.7 857097.1,711161.3 L857097.1,711161.3 C952329.8,648290.4 1047563,518132.6 1142797,484973.8 L1142797,484973.8 C1238029,451813.6 1333262,499302.4 1428496,512204.3 L1428496,512204.3 C1523729,525104.9 1618962,613831.6 1714196,562382.6 L1714196,562382.6 C1809428,510932.3 1904660,283239.4 1999894,203506.5 L1999894,203506.5 C2095126,123773.6 2190359,112843.7 2285593,83985.1 L2285593,83985.1 C2380826,55125.14 2476059,44345.99 2571293,30349.36 L2571293,30349.36 C2666525,16351.4 2809375,5057.56 2856992,0 " stroke-width="33866.67" stroke-linecap="round" stroke-linejoin="round" stroke-miterlimit="13.33333" stroke="#009cde" fill="none" fill-rule="nonzero" /></g></g><g clip-path="url(#clip011)"><g transform="matrix(0.000656168,0,0,0.000656168,400.6667,370)"><path d="M0,1300480 L286512,753872 L286512,753872 L570992,690880 L570992,690880 L857504,570992 L857504,570992 L1144016,349504 L1144016,349504 L1428496,270256 L1428496,270256 L1715008,268224 L1715008,268224 L1999488,245872 L1999488,245872 L2286000,52832 L2286000,52832 L2570480,16256 L2570480,16256 L2856992,0 " stroke-width="33866.67" stroke-linecap="round" stroke-linejoin="round" stroke-miterlimit="13.33333" stroke="#e56200" fill="none" fill-rule="nonzero" /></g></g><g><g clip-path="url(#clip012)"><g><g transform="translate(118,1253.622)"><text><tspan x="0" y="0" font-family="Connections Cond Light,Arial Narrow" font-weight="normal" font-style="normal" font-size="105.3333" fill="#000000">$0</tspan></text></g></g></g></g><g><g clip-path="url(#clip013)"><g><g transform="translate(67.33334,1137.229)"><text><tspan x="0" y="0" font-family="Connections Cond Light,Arial Narrow" font-weight="normal" font-style="normal" font-size="105.3333" fill="#000000">$20</tspan></text></g></g></g></g><g><g clip-path="url(#clip014)"><g><g transform="translate(67.33334,1020.836)"><text><tspan x="0" y="0" font-family="Connections Cond Light,Arial Narrow" font-weight="normal" font-style="normal" font-size="105.3333" fill="#000000">$40</tspan></text></g></g></g></g><g><g clip-path="url(#clip015)"><g><g transform="translate(67.33334,904.4436)"><text><tspan x="0" y="0" font-family="Connections Cond Light,Arial Narrow" font-weight="normal" font-style="normal" font-size="105.3333" fill="#000000">$60</tspan></text></g></g></g></g><g><g clip-path="url(#clip016)"><g><g transform="translate(67.33334,788.0508)"><text><tspan x="0" y="0" font-family="Connections Cond Light,Arial Narrow" font-weight="normal" font-style="normal" font-size="105.3333" fill="#000000">$80</tspan></text></g></g></g></g><g><g clip-path="url(#clip017)"><g><g transform="translate(16.66667,671.6579)"><text><tspan x="0" y="0" font-family="Connections Cond Light,Arial Narrow" font-weight="normal" font-style="normal" font-size="105.3333" fill="#000000">$100</tspan></text></g></g></g></g><g><g clip-path="url(#clip018)"><g><g transform="translate(16.66667,555.2659)"><text><tspan x="0" y="0" font-family="Connections Cond Light,Arial Narrow" font-weight="normal" font-style="normal" font-size="105.3333" fill="#000000">$120</tspan></text></g></g></g></g><g><g clip-path="url(#clip019)"><g><g transform="translate(16.66667,438.8731)"><text><tspan x="0" y="0" font-family="Connections Cond Light,Arial Narrow" font-weight="normal" font-style="normal" font-size="105.3333" fill="#000000">$140</tspan></text></g></g></g></g><g><g clip-path="url(#clip020)"><g><g transform="translate(16.66667,322.4803)"><text><tspan x="0" y="0" font-family="Connections Cond Light,Arial Narrow" font-weight="normal" font-style="normal" font-size="105.3333" fill="#000000">$160</tspan></text></g></g></g></g><g><g clip-path="url(#clip021)"><g><g transform="translate(16.66667,206.0875)"><text><tspan x="0" y="0" font-family="Connections Cond Light,Arial Narrow" font-weight="normal" font-style="normal" font-size="105.3333" fill="#000000">$180</tspan></text></g></g></g></g><g><g clip-path="url(#clip022)"><g><g transform="translate(16.66667,89.69466)"><text><tspan x="0" y="0" font-family="Connections Cond Light,Arial Narrow" font-weight="normal" font-style="normal" font-size="105.3333" fill="#000000">$200</tspan></text></g></g></g></g><g><g clip-path="url(#clip023)"><g><g transform="matrix(0,-1,1,0,434.2765,1489.205)"><text><tspan x="0" y="0" font-family="Connections Cond Light,Arial Narrow" font-weight="normal" font-style="normal" font-size="105.3333" fill="#000000">2018</tspan></text></g></g></g></g><g><g clip-path="url(#clip024)"><g><g transform="matrix(0,-1,1,0,621.7183,1489.205)"><text><tspan x="0" y="0" font-family="Connections Cond Light,Arial Narrow" font-weight="normal" font-style="normal" font-size="105.3333" fill="#000000">2019</tspan></text></g></g></g></g><g><g clip-path="url(#clip025)"><g><g transform="matrix(0,-1,1,0,809.1592,1489.205)"><text><tspan x="0" y="0" font-family="Connections Cond Light,Arial Narrow" font-weight="normal" font-style="normal" font-size="105.3333" fill="#000000">2020</tspan></text></g></g></g></g><g><g clip-path="url(#clip026)"><g><g transform="matrix(0,-1,1,0,996.6011,1489.205)"><text><tspan x="0" y="0" font-family="Connections Cond Light,Arial Narrow" font-weight="normal" font-style="normal" font-size="105.3333" fill="#000000">2021</tspan></text></g></g></g></g><g><g clip-path="url(#clip027)"><g><g transform="matrix(0,-1,1,0,1184.043,1489.205)"><text><tspan x="0" y="0" font-family="Connections Cond Light,Arial Narrow" font-weight="normal" font-style="normal" font-size="105.3333" fill="#000000">2022</tspan></text></g></g></g></g><g><g clip-path="url(#clip028)"><g><g transform="matrix(0,-1,1,0,1371.485,1489.205)"><text><tspan x="0" y="0" font-family="Connections Cond Light,Arial Narrow" font-weight="normal" font-style="normal" font-size="105.3333" fill="#000000">2023</tspan></text></g></g></g></g><g><g clip-path="url(#clip029)"><g><g transform="matrix(0,-1,1,0,1558.926,1489.205)"><text><tspan x="0" y="0" font-family="Connections Cond Light,Arial Narrow" font-weight="normal" font-style="normal" font-size="105.3333" fill="#000000">2024</tspan></text></g></g></g></g><g><g clip-path="url(#clip030)"><g><g transform="matrix(0,-1,1,0,1746.368,1489.205)"><text><tspan x="0" y="0" font-family="Connections Cond Light,Arial Narrow" font-weight="normal" font-style="normal" font-size="105.3333" fill="#000000">2025</tspan></text></g></g></g></g><g><g clip-path="url(#clip031)"><g><g transform="matrix(0,-1,1,0,1933.809,1489.205)"><text><tspan x="0" y="0" font-family="Connections Cond Light,Arial Narrow" font-weight="normal" font-style="normal" font-size="105.3333" fill="#000000">2026</tspan></text></g></g></g></g><g><g clip-path="url(#clip032)"><g><g transform="matrix(0,-1,1,0,2121.251,1489.205)"><text><tspan x="0" y="0" font-family="Connections Cond Light,Arial Narrow" font-weight="normal" font-style="normal" font-size="105.3333" fill="#000000">2027</tspan></text></g></g></g></g><g><g clip-path="url(#clip033)"><g><g transform="matrix(0,-1,1,0,2308.693,1489.205)"><text><tspan x="0" y="0" font-family="Connections Cond Light,Arial Narrow" font-weight="normal" font-style="normal" font-size="105.3333" fill="#000000">2028</tspan></text></g></g></g></g><g clip-path="url(#clip034)"><g transform="matrix(0.000656168,0,0,0.000656168,337.3333,45.33333)"><path d="M0,0 L2710688,0 L2710688,237744 L0,237744 Z" fill="#4f81bd" fill-opacity="0" fill-rule="evenodd" /></g></g><g clip-path="url(#clip035)"><g transform="matrix(0.000656168,0,0,0.000656168,426,123.3333)"><path d="M0,0 L325120,1.333333 " stroke-width="33866.67" stroke-linecap="round" stroke-linejoin="round" stroke-miterlimit="13.33333" stroke="#012169" fill="none" fill-rule="evenodd" /></g></g><g><g clip-path="url(#clip036)"><g><g transform="translate(662.1356,152.9055)"><text><tspan x="0" y="0" font-family="Connections Cond Light,Arial Narrow" font-weight="normal" font-style="normal" font-size="105.3333" fill="#000000">INTC</tspan></text></g></g></g></g><g clip-path="url(#clip037)"><g transform="matrix(0.000656168,0,0,0.000656168,927.3333,123.3333)"><path d="M0,0 L325120,1.333333 " stroke-width="33866.67" stroke-linecap="round" stroke-linejoin="round" stroke-miterlimit="13.33333" stroke="#009cde" fill="none" fill-rule="evenodd" /></g></g><g><g clip-path="url(#clip038)"><g><g transform="translate(1162.77,152.9055)"><text><tspan x="0" y="0" font-family="Connections Cond Light,Arial Narrow" font-weight="normal" font-style="normal" font-size="105.3333" fill="#000000">AMD</tspan></text></g></g></g></g><g clip-path="url(#clip039)"><g transform="matrix(0.000656168,0,0,0.000656168,1436.667,123.3333)"><path d="M0,0 L325120,1.333333 " stroke-width="33866.67" stroke-linecap="round" stroke-linejoin="round" stroke-miterlimit="13.33333" stroke="#e56200" fill="none" fill-rule="evenodd" /></g></g><g><g clip-path="url(#clip040)"><g><g transform="translate(1672.515,152.9055)"><text><tspan x="0" y="0" font-family="Connections Cond Light,Arial Narrow" font-weight="normal" font-style="normal" font-size="105.3333" fill="#000000">ARM (est.)</tspan></text></g></g></g></g><g /></g></g></g></g></g></g></g></g></g></svg>