<?xml version="1.0" encoding="UTF-8" standalone="no"?>
<svg xmlns:dc="http://purl.org/dc/elements/1.1/" xmlns:cc="http://creativecommons.org/ns#" xmlns:rdf="http://www.w3.org/1999/02/22-rdf-syntax-ns#" xmlns:svg="http://www.w3.org/2000/svg" xmlns="http://www.w3.org/2000/svg" viewBox="63 149.1375 864 466.7625" height="466.7625" width="864" xml:space="preserve" version="1.1" id="svg2">
  <metadata id="metadata8">
    <rdf:RDF>
      <cc:Work rdf:about="">
        <dc:format>image/svg+xml</dc:format>
        <dc:type rdf:resource="http://purl.org/dc/dcmitype/StillImage"/>
      </cc:Work>
    </rdf:RDF>
  </metadata>
  <defs id="defs6">
    <clipPath id="clipPath16" clipPathUnits="userSpaceOnUse">
      <path style="clip-rule:evenodd" id="path18" d="m 50.4,119.28 691.2,0 0,373.44 -691.2,0 0,-373.44 z"/>
    </clipPath>
    <clipPath id="clipPath26" clipPathUnits="userSpaceOnUse">
      <path style="clip-rule:evenodd" id="path28" d="m 50.4,119.28 691.2,0 0,373.44 -691.2,0 0,-373.44 z"/>
    </clipPath>
    <clipPath id="clipPath48" clipPathUnits="userSpaceOnUse">
      <path style="clip-rule:evenodd" id="path50" d="m 50.52,119.28 691.08,0 0,373.32 -691.08,0 0,-373.32 z"/>
    </clipPath>
    <clipPath id="clipPath60" clipPathUnits="userSpaceOnUse">
      <path style="clip-rule:evenodd" id="path62" d="m 50.52,119.28 691.08,0 0,373.32 -691.08,0 0,-373.32 z"/>
    </clipPath>
    <clipPath id="clipPath72" clipPathUnits="userSpaceOnUse">
      <path style="clip-rule:evenodd" id="path74" d="m 50.52,119.28 691.08,0 0,373.32 -691.08,0 0,-373.32 z"/>
    </clipPath>
    <clipPath id="clipPath84" clipPathUnits="userSpaceOnUse">
      <path style="clip-rule:evenodd" id="path86" d="m 50.52,119.28 691.08,0 0,373.32 -691.08,0 0,-373.32 z"/>
    </clipPath>
    <clipPath id="clipPath96" clipPathUnits="userSpaceOnUse">
      <path style="clip-rule:evenodd" id="path98" d="m 50.52,119.28 691.08,0 0,373.32 -691.08,0 0,-373.32 z"/>
    </clipPath>
    <clipPath id="clipPath108" clipPathUnits="userSpaceOnUse">
      <path style="clip-rule:evenodd" id="path110" d="m 50.52,119.28 691.08,0 0,373.32 -691.08,0 0,-373.32 z"/>
    </clipPath>
    <clipPath id="clipPath120" clipPathUnits="userSpaceOnUse">
      <path style="clip-rule:evenodd" id="path122" d="m 50.52,119.28 691.08,0 0,373.32 -691.08,0 0,-373.32 z"/>
    </clipPath>
    <clipPath id="clipPath132" clipPathUnits="userSpaceOnUse">
      <path style="clip-rule:evenodd" id="path134" d="m 50.52,119.28 691.08,0 0,373.32 -691.08,0 0,-373.32 z"/>
    </clipPath>
    <clipPath id="clipPath144" clipPathUnits="userSpaceOnUse">
      <path style="clip-rule:evenodd" id="path146" d="m 50.52,119.28 691.08,0 0,373.32 -691.08,0 0,-373.32 z"/>
    </clipPath>
    <clipPath id="clipPath156" clipPathUnits="userSpaceOnUse">
      <path style="clip-rule:evenodd" id="path158" d="m 50.52,119.28 691.08,0 0,373.32 -691.08,0 0,-373.32 z"/>
    </clipPath>
    <clipPath id="clipPath168" clipPathUnits="userSpaceOnUse">
      <path style="clip-rule:evenodd" id="path170" d="m 50.52,119.28 691.08,0 0,373.32 -691.08,0 0,-373.32 z"/>
    </clipPath>
    <clipPath id="clipPath180" clipPathUnits="userSpaceOnUse">
      <path style="clip-rule:evenodd" id="path182" d="m 50.52,119.28 691.08,0 0,373.32 -691.08,0 0,-373.32 z"/>
    </clipPath>
    <clipPath id="clipPath192" clipPathUnits="userSpaceOnUse">
      <path style="clip-rule:evenodd" id="path194" d="m 50.52,119.28 691.08,0 0,373.32 -691.08,0 0,-373.32 z"/>
    </clipPath>
    <clipPath id="clipPath206" clipPathUnits="userSpaceOnUse">
      <path style="clip-rule:evenodd" id="path208" d="m 50.52,119.28 691.08,0 0,373.32 -691.08,0 0,-373.32 z"/>
    </clipPath>
    <clipPath id="clipPath220" clipPathUnits="userSpaceOnUse">
      <path style="clip-rule:evenodd" id="path222" d="m 50.52,119.28 691.08,0 0,373.32 -691.08,0 0,-373.32 z"/>
    </clipPath>
    <clipPath id="clipPath234" clipPathUnits="userSpaceOnUse">
      <path style="clip-rule:evenodd" id="path236" d="m 50.52,119.28 691.08,0 0,373.32 -691.08,0 0,-373.32 z"/>
    </clipPath>
    <clipPath id="clipPath248" clipPathUnits="userSpaceOnUse">
      <path style="clip-rule:evenodd" id="path250" d="m 50.52,119.28 691.08,0 0,373.32 -691.08,0 0,-373.32 z"/>
    </clipPath>
  </defs>
  <g transform="matrix(1.25,0,0,-1.25,0,765)" id="g10">
    <g id="g12">
      <g clip-path="url(#clipPath16)" id="g14">
        <path id="path20" style="fill:none;stroke:#000000;stroke-width:0.14;stroke-linecap:butt;stroke-linejoin:miter;stroke-miterlimit:10;stroke-dasharray:none;stroke-opacity:0" d="m 50.46,119.26 691.2,0 0,373.36 -691.2,0 0,-373.36 z"/>
      </g>
    </g>
    <g id="g22">
      <g clip-path="url(#clipPath26)" id="g24">
        <path id="path30" style="fill:#ffffff;fill-opacity:1;fill-rule:evenodd;stroke:none" d="m 50.46,119.26 691.2,0 0,373.36 -691.2,0 0,-373.36 z"/>
      </g>
    </g>
    <path id="path32" style="fill:none;stroke:#d9d9d9;stroke-width:1.33949995;stroke-linecap:butt;stroke-linejoin:round;stroke-miterlimit:10;stroke-dasharray:none;stroke-opacity:1" d="m 104.76,194.7 617.25,0 m -617.25,33.87 617.25,0 m -617.25,33.86 617.25,0 m -617.25,34.08 617.25,0 m -617.25,33.86 617.25,0 m -617.25,33.86 617.25,0 m -617.25,33.87 617.25,0 m -617.25,34.01 617.25,0"/>
    <path id="path34" style="fill:#137cb1;fill-opacity:1;fill-rule:nonzero;stroke:none" d="m 128.9,199.42 22.08,0 0,-38.73 -22.08,0 0,38.73 z m 154.32,54.01 22.07,0 0,-92.74 -22.07,0 0,92.74 z m 154.31,2.78 22.08,0 0,-95.52 -22.08,0 0,95.52 z m 154.32,-52.51 22.07,0 0,-43.01 -22.07,0 0,43.01 z"/>
    <path id="path36" style="fill:#eacc80;fill-opacity:1;fill-rule:nonzero;stroke:none" d="m 156.98,190.63 21.86,0 0,-29.94 -21.86,0 0,29.94 z m 154.31,25.51 21.87,0 0,-55.45 -21.87,0 0,55.45 z m 154.32,27.43 21.86,0 0,-82.88 -21.86,0 0,82.88 z m 154.31,-22.51 21.86,0 0,-60.37 -21.86,0 0,60.37 z"/>
    <path id="path38" style="fill:#4aac6b;fill-opacity:1;fill-rule:nonzero;stroke:none" d="m 184.84,182.06 22.08,0 0,-21.37 -22.08,0 0,21.37 z m 154.32,126.66 22.07,0 0,-148.03 -22.07,0 0,148.03 z m 154.31,-53.15 22.08,0 0,-94.88 -22.08,0 0,94.88 z m 154.32,-76.51 22.07,0 0,-18.37 -22.07,0 0,18.37 z"/>
    <path id="path40" style="fill:#a8d7e2;fill-opacity:1;fill-rule:nonzero;stroke:none" d="m 212.92,390.38 22.07,0 0,-229.69 -22.07,0 0,229.69 z m 154.31,-33.43 22.08,0 0,-196.26 -22.08,0 0,196.26 z m 154.32,-21.22 22.07,0 0,-175.04 -22.07,0 0,175.04 z m 154.31,-153.24 22.08,0 0,-21.8 -22.08,0 0,21.8 z"/>
    <path id="path42" style="fill:none;stroke:#d9d9d9;stroke-width:1.33949995;stroke-linecap:butt;stroke-linejoin:round;stroke-miterlimit:10;stroke-dasharray:none;stroke-opacity:1" d="m 104.76,160.69 617.25,0"/>
    <g id="g44">
      <g clip-path="url(#clipPath48)" id="g46"><text id="text52" style="font-variant:normal;font-weight:normal;font-size:16.07999992px;font-family:Calibri;-inkscape-font-specification:Calibri;writing-mode:lr-tb;fill:#595959;fill-opacity:1;fill-rule:nonzero;stroke:none" transform="matrix(1,0,0,-1,70.224,156.1)"><tspan id="tspan54" y="0" x="0 8.1359596">0%</tspan></text>
</g>
    </g>
    <g id="g56">
      <g clip-path="url(#clipPath60)" id="g58"><text id="text64" style="font-variant:normal;font-weight:normal;font-size:16.07999992px;font-family:Calibri;-inkscape-font-specification:Calibri;writing-mode:lr-tb;fill:#595959;fill-opacity:1;fill-rule:nonzero;stroke:none" transform="matrix(1,0,0,-1,62.088,190.03)"><tspan id="tspan66" y="0" x="0 8.1359596 16.271919">10%</tspan></text>
</g>
    </g>
    <g id="g68">
      <g clip-path="url(#clipPath72)" id="g70"><text id="text76" style="font-variant:normal;font-weight:normal;font-size:16.05599976px;font-family:Calibri;-inkscape-font-specification:Calibri;writing-mode:lr-tb;fill:#595959;fill-opacity:1;fill-rule:nonzero;stroke:none" transform="matrix(1,0,0,-1,62.088,223.94)"><tspan id="tspan78" y="0" x="0 8.1360016 16.272003">20%</tspan></text>
</g>
    </g>
    <g id="g80">
      <g clip-path="url(#clipPath84)" id="g82"><text id="text88" style="font-variant:normal;font-weight:normal;font-size:16.07999992px;font-family:Calibri;-inkscape-font-specification:Calibri;writing-mode:lr-tb;fill:#595959;fill-opacity:1;fill-rule:nonzero;stroke:none" transform="matrix(1,0,0,-1,62.088,257.88)"><tspan id="tspan90" y="0" x="0 8.1359596 16.271919">30%</tspan></text>
</g>
    </g>
    <g id="g92">
      <g clip-path="url(#clipPath96)" id="g94"><text id="text100" style="font-variant:normal;font-weight:normal;font-size:16.07999992px;font-family:Calibri;-inkscape-font-specification:Calibri;writing-mode:lr-tb;fill:#595959;fill-opacity:1;fill-rule:nonzero;stroke:none" transform="matrix(1,0,0,-1,62.088,291.82)"><tspan id="tspan102" y="0" x="0 8.1359596 16.271919">40%</tspan></text>
</g>
    </g>
    <g id="g104">
      <g clip-path="url(#clipPath108)" id="g106"><text id="text112" style="font-variant:normal;font-weight:normal;font-size:16.07999992px;font-family:Calibri;-inkscape-font-specification:Calibri;writing-mode:lr-tb;fill:#595959;fill-opacity:1;fill-rule:nonzero;stroke:none" transform="matrix(1,0,0,-1,62.088,325.75)"><tspan id="tspan114" y="0" x="0 8.1359596 16.271919">50%</tspan></text>
</g>
    </g>
    <g id="g116">
      <g clip-path="url(#clipPath120)" id="g118"><text id="text124" style="font-variant:normal;font-weight:normal;font-size:16.07999992px;font-family:Calibri;-inkscape-font-specification:Calibri;writing-mode:lr-tb;fill:#595959;fill-opacity:1;fill-rule:nonzero;stroke:none" transform="matrix(1,0,0,-1,62.088,359.69)"><tspan id="tspan126" y="0" x="0 8.1359596 16.271919">60%</tspan></text>
</g>
    </g>
    <g id="g128">
      <g clip-path="url(#clipPath132)" id="g130"><text id="text136" style="font-variant:normal;font-weight:normal;font-size:16.07999992px;font-family:Calibri;-inkscape-font-specification:Calibri;writing-mode:lr-tb;fill:#595959;fill-opacity:1;fill-rule:nonzero;stroke:none" transform="matrix(1,0,0,-1,62.088,393.62)"><tspan id="tspan138" y="0" x="0 8.1359596 16.271919">70%</tspan></text>
</g>
    </g>
    <g id="g140">
      <g clip-path="url(#clipPath144)" id="g142"><text id="text148" style="font-variant:normal;font-weight:normal;font-size:16.07999992px;font-family:Calibri;-inkscape-font-specification:Calibri;writing-mode:lr-tb;fill:#595959;fill-opacity:1;fill-rule:nonzero;stroke:none" transform="matrix(1,0,0,-1,62.088,427.56)"><tspan id="tspan150" y="0" x="0 8.1359596 16.271919">80%</tspan></text>
</g>
    </g>
    <g id="g152">
      <g clip-path="url(#clipPath156)" id="g154"><text id="text160" style="font-variant:normal;font-weight:normal;font-size:16.07999992px;font-family:Calibri;-inkscape-font-specification:Calibri;writing-mode:lr-tb;fill:#595959;fill-opacity:1;fill-rule:nonzero;stroke:none" transform="matrix(1,0,0,-1,165.65,135.19)"><tspan id="tspan162" y="0" x="0 8.1599998 16.32 24.48">2025</tspan></text>
</g>
    </g>
    <g id="g164">
      <g clip-path="url(#clipPath168)" id="g166"><text id="text172" style="font-variant:normal;font-weight:normal;font-size:16.07999992px;font-family:Calibri;-inkscape-font-specification:Calibri;writing-mode:lr-tb;fill:#595959;fill-opacity:1;fill-rule:nonzero;stroke:none" transform="matrix(1,0,0,-1,315.98,135.19)"><tspan id="tspan174" y="0" x="0 8.1599998 16.32 24.48 32.639999">2026e</tspan></text>
</g>
    </g>
    <g id="g176">
      <g clip-path="url(#clipPath180)" id="g178"><text id="text184" style="font-variant:normal;font-weight:normal;font-size:16.07999992px;font-family:Calibri;-inkscape-font-specification:Calibri;writing-mode:lr-tb;fill:#595959;fill-opacity:1;fill-rule:nonzero;stroke:none" transform="matrix(1,0,0,-1,470.33,135.19)"><tspan id="tspan186" y="0" x="0 8.1359596 16.271919 24.407881 32.543839">2027e</tspan></text>
</g>
    </g>
    <g id="g188">
      <g clip-path="url(#clipPath192)" id="g190"><text id="text196" style="font-variant:normal;font-weight:normal;font-size:16.07999992px;font-family:Calibri;-inkscape-font-specification:Calibri;writing-mode:lr-tb;fill:#595959;fill-opacity:1;fill-rule:nonzero;stroke:none" transform="matrix(1,0,0,-1,624.65,135.19)"><tspan id="tspan198" y="0" x="0 8.1599998 16.32 24.48 32.639999">2028e</tspan></text>
</g>
    </g>
    <path id="path200" style="fill:#137cb1;fill-opacity:1;fill-rule:evenodd;stroke:none" d="m 277.36,462.41 8.829,0 0,8.829 -8.829,0 0,-8.829 z"/>
    <g id="g202">
      <g clip-path="url(#clipPath206)" id="g204"><text id="text210" style="font-variant:normal;font-weight:normal;font-size:16.07999992px;font-family:Calibri;-inkscape-font-specification:Calibri;writing-mode:lr-tb;fill:#595959;fill-opacity:1;fill-rule:nonzero;stroke:none" transform="matrix(1,0,0,-1,289.97,462.29)"><tspan id="tspan212" y="0" x="0 7.9274402 16.30512 21.691919 29.394239">Total</tspan></text>
</g>
    </g>
    <path id="path214" style="fill:#eacc80;fill-opacity:1;fill-rule:evenodd;stroke:none" d="m 336.99,462.41 8.829,0 0,8.829 -8.829,0 0,-8.829 z"/>
    <g id="g216">
      <g clip-path="url(#clipPath220)" id="g218"><text id="text224" style="font-variant:normal;font-weight:normal;font-size:16.07999992px;font-family:Calibri;-inkscape-font-specification:Calibri;writing-mode:lr-tb;fill:#595959;fill-opacity:1;fill-rule:nonzero;stroke:none" transform="matrix(1,0,0,-1,349.61,462.29)"><tspan id="tspan226" y="0" x="0 6.85008 15.22776 22.73712 26.58024">Logic</tspan></text>
</g>
    </g>
    <path id="path228" style="fill:#4aac6b;fill-opacity:1;fill-rule:evenodd;stroke:none" d="m 396.82,462.41 8.829,0 0,8.829 -8.829,0 0,-8.829 z"/>
    <g id="g230">
      <g clip-path="url(#clipPath234)" id="g232"><text id="text238" style="font-variant:normal;font-weight:normal;font-size:16.07999992px;font-family:Calibri;-inkscape-font-specification:Calibri;writing-mode:lr-tb;fill:#595959;fill-opacity:1;fill-rule:nonzero;stroke:none" transform="matrix(1,0,0,-1,409.44,462.29)"><tspan id="tspan240" y="0" x="0 9.8892002 18.6528 27.8988">DRAM</tspan></text>
</g>
    </g>
    <path id="path242" style="fill:#a8d7e2;fill-opacity:1;fill-rule:evenodd;stroke:none" d="m 465.03,462.41 8.829,0 0,8.829 -8.829,0 0,-8.829 z"/>
    <g id="g244">
      <g clip-path="url(#clipPath248)" id="g246"><text id="text252" style="font-variant:normal;font-weight:normal;font-size:16.07999992px;font-family:Calibri;-inkscape-font-specification:Calibri;writing-mode:lr-tb;fill:#595959;fill-opacity:1;fill-rule:nonzero;stroke:none" transform="matrix(1,0,0,-1,477.67,462.29)"><tspan id="tspan254" y="0" x="0 10.2912 19.714081 30.00528">NAND</tspan></text>
</g>
    </g>
  </g>
</svg>
