<?xml version="1.0" encoding="UTF-8" standalone="no"?>
<svg xmlns:dc="http://purl.org/dc/elements/1.1/" xmlns:cc="http://creativecommons.org/ns#" xmlns:rdf="http://www.w3.org/1999/02/22-rdf-syntax-ns#" xmlns:svg="http://www.w3.org/2000/svg" xmlns="http://www.w3.org/2000/svg" viewBox="63.0925 321.15 639 347.55" height="347.55" width="639" xml:space="preserve" version="1.1" id="svg2">
  <metadata id="metadata8">
    <rdf:RDF>
      <cc:Work rdf:about="">
        <dc:format>image/svg+xml</dc:format>
        <dc:type rdf:resource="http://purl.org/dc/dcmitype/StillImage"/>
      </cc:Work>
    </rdf:RDF>
  </metadata>
  <defs id="defs6">
    <clipPath id="clipPath16" clipPathUnits="userSpaceOnUse">
      <path style="clip-rule:evenodd" id="path18" d="m 50.4,257.04 511.2,0 0,278.04 -511.2,0 0,-278.04 z"/>
    </clipPath>
    <clipPath id="clipPath26" clipPathUnits="userSpaceOnUse">
      <path style="clip-rule:evenodd" id="path28" d="m 50.4,257.04 511.2,0 0,278.04 -511.2,0 0,-278.04 z"/>
    </clipPath>
    <clipPath id="clipPath36" clipPathUnits="userSpaceOnUse">
      <path style="clip-rule:evenodd" id="path38" d="m 393.96,376.13 167.64,0 0,158.95 -167.64,0 0,-158.95 z"/>
    </clipPath>
    <clipPath id="clipPath46" clipPathUnits="userSpaceOnUse">
      <path style="clip-rule:evenodd" id="path48" d="m 393.96,376.13 167.64,0 0,158.95 -167.64,0 0,-158.95 z"/>
    </clipPath>
    <clipPath id="clipPath56" clipPathUnits="userSpaceOnUse">
      <path style="clip-rule:evenodd" id="path58" d="m 393.96,376.13 167.64,0 0,158.95 -167.64,0 0,-158.95 z"/>
    </clipPath>
    <clipPath id="clipPath66" clipPathUnits="userSpaceOnUse">
      <path style="clip-rule:evenodd" id="path68" d="m 393.96,376.13 167.64,0 0,158.95 -167.64,0 0,-158.95 z"/>
    </clipPath>
    <clipPath id="clipPath76" clipPathUnits="userSpaceOnUse">
      <path style="clip-rule:evenodd" id="path78" d="m 393.96,376.08 167.64,0 0,159 -167.64,0 0,-159 z"/>
    </clipPath>
    <clipPath id="clipPath88" clipPathUnits="userSpaceOnUse">
      <path style="clip-rule:evenodd" id="path90" d="m 393.96,376.08 167.64,0 0,159 -167.64,0 0,-159 z"/>
    </clipPath>
    <clipPath id="clipPath100" clipPathUnits="userSpaceOnUse">
      <path style="clip-rule:evenodd" id="path102" d="m 393.96,376.08 167.64,0 0,159 -167.64,0 0,-159 z"/>
    </clipPath>
    <clipPath id="clipPath112" clipPathUnits="userSpaceOnUse">
      <path style="clip-rule:evenodd" id="path114" d="m 50.4,257.04 511.2,0 0,278.04 -511.2,0 0,-278.04 z"/>
    </clipPath>
    <clipPath id="clipPath122" clipPathUnits="userSpaceOnUse">
      <path style="clip-rule:evenodd" id="path124" d="m 50.4,257.04 511.2,0 0,278.04 -511.2,0 0,-278.04 z"/>
    </clipPath>
    <clipPath id="clipPath140" clipPathUnits="userSpaceOnUse">
      <path style="clip-rule:evenodd" id="path142" d="m 50.52,257.04 511.08,0 0,277.92 -511.08,0 0,-277.92 z"/>
    </clipPath>
    <clipPath id="clipPath152" clipPathUnits="userSpaceOnUse">
      <path style="clip-rule:evenodd" id="path154" d="m 50.52,257.04 511.08,0 0,277.92 -511.08,0 0,-277.92 z"/>
    </clipPath>
    <clipPath id="clipPath164" clipPathUnits="userSpaceOnUse">
      <path style="clip-rule:evenodd" id="path166" d="m 50.52,257.04 511.08,0 0,277.92 -511.08,0 0,-277.92 z"/>
    </clipPath>
    <clipPath id="clipPath176" clipPathUnits="userSpaceOnUse">
      <path style="clip-rule:evenodd" id="path178" d="m 50.52,257.04 511.08,0 0,277.92 -511.08,0 0,-277.92 z"/>
    </clipPath>
    <clipPath id="clipPath188" clipPathUnits="userSpaceOnUse">
      <path style="clip-rule:evenodd" id="path190" d="m 50.52,257.04 511.08,0 0,277.92 -511.08,0 0,-277.92 z"/>
    </clipPath>
    <clipPath id="clipPath200" clipPathUnits="userSpaceOnUse">
      <path style="clip-rule:evenodd" id="path202" d="m 50.52,257.04 511.08,0 0,277.92 -511.08,0 0,-277.92 z"/>
    </clipPath>
    <clipPath id="clipPath212" clipPathUnits="userSpaceOnUse">
      <path style="clip-rule:evenodd" id="path214" d="m 50.52,257.04 511.08,0 0,277.92 -511.08,0 0,-277.92 z"/>
    </clipPath>
    <clipPath id="clipPath224" clipPathUnits="userSpaceOnUse">
      <path style="clip-rule:evenodd" id="path226" d="m 50.52,257.04 511.08,0 0,277.92 -511.08,0 0,-277.92 z"/>
    </clipPath>
    <clipPath id="clipPath236" clipPathUnits="userSpaceOnUse">
      <path style="clip-rule:evenodd" id="path238" d="m 50.52,257.04 511.08,0 0,277.92 -511.08,0 0,-277.92 z"/>
    </clipPath>
    <clipPath id="clipPath248" clipPathUnits="userSpaceOnUse">
      <path style="clip-rule:evenodd" id="path250" d="m 50.52,257.04 511.08,0 0,277.92 -511.08,0 0,-277.92 z"/>
    </clipPath>
    <clipPath id="clipPath260" clipPathUnits="userSpaceOnUse">
      <path style="clip-rule:evenodd" id="path262" d="m 50.52,257.04 511.08,0 0,277.92 -511.08,0 0,-277.92 z"/>
    </clipPath>
    <clipPath id="clipPath272" clipPathUnits="userSpaceOnUse">
      <path style="clip-rule:evenodd" id="path274" d="m 50.52,257.04 511.08,0 0,277.92 -511.08,0 0,-277.92 z"/>
    </clipPath>
    <clipPath id="clipPath284" clipPathUnits="userSpaceOnUse">
      <path style="clip-rule:evenodd" id="path286" d="m 50.52,257.04 511.08,0 0,277.92 -511.08,0 0,-277.92 z"/>
    </clipPath>
    <clipPath id="clipPath296" clipPathUnits="userSpaceOnUse">
      <path style="clip-rule:evenodd" id="path298" d="m 50.52,257.04 511.08,0 0,277.92 -511.08,0 0,-277.92 z"/>
    </clipPath>
    <clipPath id="clipPath308" clipPathUnits="userSpaceOnUse">
      <path style="clip-rule:evenodd" id="path310" d="m 50.52,257.04 511.08,0 0,277.92 -511.08,0 0,-277.92 z"/>
    </clipPath>
    <clipPath id="clipPath320" clipPathUnits="userSpaceOnUse">
      <path style="clip-rule:evenodd" id="path322" d="m 50.52,257.04 511.08,0 0,277.92 -511.08,0 0,-277.92 z"/>
    </clipPath>
    <clipPath id="clipPath332" clipPathUnits="userSpaceOnUse">
      <path style="clip-rule:evenodd" id="path334" d="m 50.52,257.04 511.08,0 0,277.92 -511.08,0 0,-277.92 z"/>
    </clipPath>
    <clipPath id="clipPath344" clipPathUnits="userSpaceOnUse">
      <path style="clip-rule:evenodd" id="path346" d="m 50.52,257.04 511.08,0 0,277.92 -511.08,0 0,-277.92 z"/>
    </clipPath>
    <clipPath id="clipPath356" clipPathUnits="userSpaceOnUse">
      <path style="clip-rule:evenodd" id="path358" d="m 50.52,257.04 511.08,0 0,277.92 -511.08,0 0,-277.92 z"/>
    </clipPath>
    <clipPath id="clipPath368" clipPathUnits="userSpaceOnUse">
      <path style="clip-rule:evenodd" id="path370" d="m 50.52,257.04 511.08,0 0,277.92 -511.08,0 0,-277.92 z"/>
    </clipPath>
    <clipPath id="clipPath382" clipPathUnits="userSpaceOnUse">
      <path style="clip-rule:evenodd" id="path384" d="m 50.52,257.04 511.08,0 0,277.92 -511.08,0 0,-277.92 z"/>
    </clipPath>
    <clipPath id="clipPath396" clipPathUnits="userSpaceOnUse">
      <path style="clip-rule:evenodd" id="path398" d="m 50.52,257.04 511.08,0 0,277.92 -511.08,0 0,-277.92 z"/>
    </clipPath>
    <clipPath id="clipPath410" clipPathUnits="userSpaceOnUse">
      <path style="clip-rule:evenodd" id="path412" d="m 50.4,535.08 511.2,0 0,-278.04 -511.2,0 0,278.04 z"/>
    </clipPath>
    <clipPath id="clipPath420" clipPathUnits="userSpaceOnUse">
      <path style="clip-rule:evenodd" id="path422" d="m 50.4,535.08 511.2,0 0,-278.04 -511.2,0 0,278.04 z"/>
    </clipPath>
    <clipPath id="clipPath430" clipPathUnits="userSpaceOnUse">
      <path style="clip-rule:evenodd" id="path432" d="m 50.4,535.08 511.2,0 0,-278.04 -511.2,0 0,278.04 z"/>
    </clipPath>
    <clipPath id="clipPath440" clipPathUnits="userSpaceOnUse">
      <path style="clip-rule:evenodd" id="path442" d="m 50.4,535.08 511.2,0 0,-278.04 -511.2,0 0,278.04 z"/>
    </clipPath>
  </defs>
  <g transform="matrix(1.25,0,0,-1.25,0,990)" id="g10">
    <g id="g12">
      <g clip-path="url(#clipPath16)" id="g14">
        <path id="path20" style="fill:none;stroke:#000000;stroke-width:0.14;stroke-linecap:butt;stroke-linejoin:miter;stroke-miterlimit:10;stroke-dasharray:none;stroke-opacity:0" d="m 394.03,562.84 294.26,0 0,-186.72 -294.26,0 0,186.72 z"/>
      </g>
    </g>
    <g id="g22">
      <g clip-path="url(#clipPath26)" id="g24">
        <path id="path30" style="fill:#ffffff;fill-opacity:1;fill-rule:evenodd;stroke:none" d="m 394.03,376.12 294.26,0 0,186.72 -294.26,0 0,-186.72 z"/>
      </g>
    </g>
    <g id="g32">
      <g clip-path="url(#clipPath36)" id="g34">
        <path id="path40" style="fill:#eacc80;fill-opacity:1;fill-rule:evenodd;stroke:none" d="m 544.89,533.27 c 39.21,0 71,-31.79 71,-71.01 0,-23.32 -11.45,-45.15 -30.63,-58.41 l -40.37,58.41 0,71.01 z"/>
      </g>
    </g>
    <g id="g42">
      <g clip-path="url(#clipPath46)" id="g44">
        <path id="path50" style="fill:none;stroke:#ffffff;stroke-width:1.26380002;stroke-linecap:butt;stroke-linejoin:round;stroke-miterlimit:10;stroke-dasharray:none;stroke-opacity:1" d="m 544.89,533.27 c 39.21,0 71,-31.79 71,-71.01 0,-23.32 -11.45,-45.15 -30.63,-58.41 l -40.37,58.41 0,71.01 z"/>
      </g>
    </g>
    <g id="g52">
      <g clip-path="url(#clipPath56)" id="g54">
        <path id="path60" style="fill:#137cb1;fill-opacity:1;fill-rule:evenodd;stroke:none" d="m 585.26,403.85 c -32.27,-22.3 -76.49,-14.22 -98.79,18.04 -22.3,32.27 -14.22,76.49 18.04,98.79 11.87,8.2 25.95,12.59 40.38,12.59 l 0,-71.01 40.37,-58.41 z"/>
      </g>
    </g>
    <g id="g62">
      <g clip-path="url(#clipPath66)" id="g64">
        <path id="path70" style="fill:none;stroke:#ffffff;stroke-width:1.26380002;stroke-linecap:butt;stroke-linejoin:round;stroke-miterlimit:10;stroke-dasharray:none;stroke-opacity:1" d="m 585.26,403.85 c -32.27,-22.3 -76.49,-14.22 -98.79,18.04 -22.3,32.27 -14.22,76.49 18.04,98.79 11.87,8.2 25.95,12.59 40.38,12.59 l 0,-71.01 40.37,-58.41 z"/>
      </g>
    </g>
    <g id="g72">
      <g clip-path="url(#clipPath76)" id="g74"><text id="text80" style="font-variant:normal;font-weight:normal;font-size:10.10400009px;font-family:Arial;-inkscape-font-specification:Arial;writing-mode:lr-tb;fill:#000000;fill-opacity:1;fill-rule:nonzero;stroke:none" transform="matrix(1,0,0,-1,567.7,471.77)"><tspan id="tspan82" y="0" x="0 2.808912 8.48736 11.407416 17.065657 20.430288 26.048113 31.716455 36.768456">Inference</tspan></text>
</g>
    </g>
    <g id="g84">
      <g clip-path="url(#clipPath88)" id="g86"><text id="text92" style="font-variant:normal;font-weight:normal;font-size:10.12800026px;font-family:Arial;-inkscape-font-specification:Arial;writing-mode:lr-tb;fill:#ffffff;fill-opacity:1;fill-rule:nonzero;stroke:none" transform="matrix(1,0,0,-1,485.23,466.9)"><tspan id="tspan94" y="0" x="0 5.8539839 9.1860962 14.83752 17.085936 22.717104 24.965521 30.616943">Training</tspan></text>
</g>
    </g>
    <g id="g96">
      <g clip-path="url(#clipPath100)" id="g98"><text id="text104" style="font-variant:normal;font-weight:normal;font-size:10.10400009px;font-family:Arial;-inkscape-font-specification:Arial;writing-mode:lr-tb;fill:#ffffff;fill-opacity:1;fill-rule:nonzero;stroke:none" transform="matrix(1,0,0,-1,493.13,455.26)"><tspan id="tspan106" y="0" x="0 5.6640239 11.328048">60%</tspan></text>
</g>
    </g>
    <g id="g108">
      <g clip-path="url(#clipPath112)" id="g110">
        <path id="path116" style="fill:none;stroke:#000000;stroke-width:0.14;stroke-linecap:butt;stroke-linejoin:miter;stroke-miterlimit:10;stroke-dasharray:none;stroke-opacity:0" d="m 50.544,257.06 511.09,0 0,277.82 -511.09,0 0,-277.82 z"/>
      </g>
    </g>
    <g id="g118">
      <g clip-path="url(#clipPath122)" id="g120">
        <path id="path126" style="fill:#ffffff;fill-opacity:1;fill-rule:evenodd;stroke:none" d="m 50.544,257.06 511.09,0 0,277.82 -511.09,0 0,-277.82 z"/>
      </g>
    </g>
    <path id="path128" style="fill:none;stroke:#d9d9d9;stroke-width:0.63191998;stroke-linecap:butt;stroke-linejoin:round;stroke-miterlimit:10;stroke-dasharray:none;stroke-opacity:1" d="m 111.92,323.86 434.1,0 m -434.1,35.99 434.1,0 m -434.1,36 434.1,0 m -434.1,35.99 434.1,0 m -434.1,36.03 434.1,0"/>
    <path id="path130" style="fill:#137cb1;fill-opacity:1;fill-rule:nonzero;stroke:none" d="m 119.15,293.22 28.92,0 0,-5.38 -28.92,0 0,5.38 z m 43.37,8.19 29.02,0 0,-13.57 -29.02,0 0,13.57 z m 43.48,13.45 28.92,0 0,-27.02 -28.92,0 0,27.02 z m 43.38,6.37 28.91,0 0,-33.39 -28.91,0 0,33.39 z m 43.37,8.49 29.02,0 0,-41.88 -29.02,0 0,41.88 z m 43.48,8.6 28.91,0 0,-50.48 -28.91,0 0,50.48 z m 43.37,8.19 28.92,0 0,-58.67 -28.92,0 0,58.67 z m 43.38,9.8 29.02,0 0,-68.47 -29.02,0 0,68.47 z m 43.47,10.11 28.92,0 0,-78.58 -28.92,0 0,78.58 z m 43.38,11.43 28.92,0 0,-90.01 -28.92,0 0,90.01 z"/>
    <path id="path132" style="fill:#eacc80;fill-opacity:1;fill-rule:nonzero;stroke:none" d="m 119.15,293.73 28.92,0 0,-0.51 -28.92,0 0,0.51 z m 43.37,8.59 29.02,0 0,-0.91 -29.02,0 0,0.91 z m 43.48,14.46 28.92,0 0,-1.92 -28.92,0 0,1.92 z m 43.38,11.32 28.91,0 0,-6.87 -28.91,0 0,6.87 z m 43.37,16.69 29.02,0 0,-15.07 -29.02,0 0,15.07 z m 43.48,17.69 28.91,0 0,-24.16 -28.91,0 0,24.16 z m 43.37,18.2 28.92,0 0,-34.17 -28.92,0 0,34.17 z m 43.38,27 29.02,0 0,-51.37 -29.02,0 0,51.37 z m 43.47,27.6 28.92,0 0,-68.86 -28.92,0 0,68.86 z m 43.38,28.11 28.92,0 0,-85.54 -28.92,0 0,85.54 z"/>
    <path id="path134" style="fill:none;stroke:#d9d9d9;stroke-width:0.63191998;stroke-linecap:butt;stroke-linejoin:round;stroke-miterlimit:10;stroke-dasharray:none;stroke-opacity:1" d="m 111.92,287.84 434.1,0"/>
    <g id="g136">
      <g clip-path="url(#clipPath140)" id="g138"><text id="text144" style="font-variant:normal;font-weight:bold;font-size:7.58400011px;font-family:Arial;-inkscape-font-specification:'Arial Bold';writing-mode:lr-tb;fill:#ffffff;fill-opacity:1;fill-rule:nonzero;stroke:none" transform="matrix(1,0,0,-1,516.86,330.07)"><tspan id="tspan146" y="0" x="0 4.248004 8.4960079">44%</tspan></text>
</g>
    </g>
    <g id="g148">
      <g clip-path="url(#clipPath152)" id="g150"><text id="text156" style="font-variant:normal;font-weight:bold;font-size:7.58400011px;font-family:Arial;-inkscape-font-specification:'Arial Bold';writing-mode:lr-tb;fill:#000000;fill-opacity:1;fill-rule:nonzero;stroke:none" transform="matrix(1,0,0,-1,516.86,417.84)"><tspan id="tspan158" y="0" x="0 4.248004 8.4960079">56%</tspan></text>
</g>
    </g>
    <g id="g160">
      <g clip-path="url(#clipPath164)" id="g162"><text id="text168" style="font-variant:normal;font-weight:normal;font-size:7.58400011px;font-family:Arial;-inkscape-font-specification:Arial;writing-mode:lr-tb;fill:#000000;fill-opacity:1;fill-rule:nonzero;stroke:none" transform="matrix(1,0,0,-1,96.599952,285.36)"><tspan id="tspan170" y="0" x="0">-</tspan></text>
</g>
    </g>
    <g id="g172">
      <g clip-path="url(#clipPath176)" id="g174"><text id="text180" style="font-variant:normal;font-weight:normal;font-size:7.58400011px;font-family:Arial;-inkscape-font-specification:Arial;writing-mode:lr-tb;fill:#000000;fill-opacity:1;fill-rule:nonzero;stroke:none" transform="matrix(1,0,0,-1,90.668352,321.36)"><tspan id="tspan182" y="0" x="0 4.2470398 8.372736">200</tspan></text>
</g>
    </g>
    <g id="g184">
      <g clip-path="url(#clipPath188)" id="g186"><text id="text192" style="font-variant:normal;font-weight:normal;font-size:7.58400011px;font-family:Arial;-inkscape-font-specification:Arial;writing-mode:lr-tb;fill:#000000;fill-opacity:1;fill-rule:nonzero;stroke:none" transform="matrix(1,0,0,-1,90.668352,357.36)"><tspan id="tspan194" y="0" x="0 4.2470398 8.372736">400</tspan></text>
</g>
    </g>
    <g id="g196">
      <g clip-path="url(#clipPath200)" id="g198"><text id="text204" style="font-variant:normal;font-weight:normal;font-size:7.58400011px;font-family:Arial;-inkscape-font-specification:Arial;writing-mode:lr-tb;fill:#000000;fill-opacity:1;fill-rule:nonzero;stroke:none" transform="matrix(1,0,0,-1,90.668352,393.38)"><tspan id="tspan206" y="0" x="0 4.2470398 8.372736">600</tspan></text>
</g>
    </g>
    <g id="g208">
      <g clip-path="url(#clipPath212)" id="g210"><text id="text216" style="font-variant:normal;font-weight:normal;font-size:7.58400011px;font-family:Arial;-inkscape-font-specification:Arial;writing-mode:lr-tb;fill:#000000;fill-opacity:1;fill-rule:nonzero;stroke:none" transform="matrix(1,0,0,-1,90.668352,429.38)"><tspan id="tspan218" y="0" x="0 4.2470398 8.372736">800</tspan></text>
</g>
    </g>
    <g id="g220">
      <g clip-path="url(#clipPath224)" id="g222"><text id="text228" style="font-variant:normal;font-weight:normal;font-size:7.58400011px;font-family:Arial;-inkscape-font-specification:Arial;writing-mode:lr-tb;fill:#000000;fill-opacity:1;fill-rule:nonzero;stroke:none" transform="matrix(1,0,0,-1,84.355104,465.41)"><tspan id="tspan230" y="0" x="0 4.2394562 6.2568002 10.496256 14.735712">1,000</tspan></text>
</g>
    </g>
    <g id="g232">
      <g clip-path="url(#clipPath236)" id="g234"><text id="text240" style="font-variant:normal;font-weight:normal;font-size:7.58400011px;font-family:Arial;-inkscape-font-specification:Arial;writing-mode:lr-tb;fill:#000000;fill-opacity:1;fill-rule:nonzero;stroke:none" transform="matrix(1,0,0,-1,125.21,276.31)"><tspan id="tspan242" y="0" x="0 4.2394562 8.3879042 12.62736">2021</tspan></text>
</g>
    </g>
    <g id="g244">
      <g clip-path="url(#clipPath248)" id="g246"><text id="text252" style="font-variant:normal;font-weight:normal;font-size:7.58400011px;font-family:Arial;-inkscape-font-specification:Arial;writing-mode:lr-tb;fill:#000000;fill-opacity:1;fill-rule:nonzero;stroke:none" transform="matrix(1,0,0,-1,168.62,276.31)"><tspan id="tspan254" y="0" x="0 4.2394562 8.3879042 12.62736">2022</tspan></text>
</g>
    </g>
    <g id="g256">
      <g clip-path="url(#clipPath260)" id="g258"><text id="text264" style="font-variant:normal;font-weight:normal;font-size:7.58400011px;font-family:Arial;-inkscape-font-specification:Arial;writing-mode:lr-tb;fill:#000000;fill-opacity:1;fill-rule:nonzero;stroke:none" transform="matrix(1,0,0,-1,212.04,276.31)"><tspan id="tspan266" y="0" x="0 4.2394562 8.3879042 12.62736">2023</tspan></text>
</g>
    </g>
    <g id="g268">
      <g clip-path="url(#clipPath272)" id="g270"><text id="text276" style="font-variant:normal;font-weight:normal;font-size:7.58400011px;font-family:Arial;-inkscape-font-specification:Arial;writing-mode:lr-tb;fill:#000000;fill-opacity:1;fill-rule:nonzero;stroke:none" transform="matrix(1,0,0,-1,255.46,276.31)"><tspan id="tspan278" y="0" x="0 4.2394562 8.3879042 12.62736">2024</tspan></text>
</g>
    </g>
    <g id="g280">
      <g clip-path="url(#clipPath284)" id="g282"><text id="text288" style="font-variant:normal;font-weight:normal;font-size:7.58400011px;font-family:Arial;-inkscape-font-specification:Arial;writing-mode:lr-tb;fill:#000000;fill-opacity:1;fill-rule:nonzero;stroke:none" transform="matrix(1,0,0,-1,298.9,276.31)"><tspan id="tspan290" y="0" x="0 4.2167039 8.3499842 12.566688">2025</tspan></text>
</g>
    </g>
    <g id="g292">
      <g clip-path="url(#clipPath296)" id="g294"><text id="text300" style="font-variant:normal;font-weight:normal;font-size:7.58400011px;font-family:Arial;-inkscape-font-specification:Arial;writing-mode:lr-tb;fill:#000000;fill-opacity:1;fill-rule:nonzero;stroke:none" transform="matrix(1,0,0,-1,339.77,276.31)"><tspan id="tspan302" y="0" x="0 4.2394562 8.3879042 12.62736 16.866816">2026E</tspan></text>
</g>
    </g>
    <g id="g304">
      <g clip-path="url(#clipPath308)" id="g306"><text id="text312" style="font-variant:normal;font-weight:normal;font-size:7.58400011px;font-family:Arial;-inkscape-font-specification:Arial;writing-mode:lr-tb;fill:#000000;fill-opacity:1;fill-rule:nonzero;stroke:none" transform="matrix(1,0,0,-1,383.18,276.31)"><tspan id="tspan314" y="0" x="0 4.2394562 8.3879042 12.62736 16.866816">2027E</tspan></text>
</g>
    </g>
    <g id="g316">
      <g clip-path="url(#clipPath320)" id="g318"><text id="text324" style="font-variant:normal;font-weight:normal;font-size:7.58400011px;font-family:Arial;-inkscape-font-specification:Arial;writing-mode:lr-tb;fill:#000000;fill-opacity:1;fill-rule:nonzero;stroke:none" transform="matrix(1,0,0,-1,426.6,276.31)"><tspan id="tspan326" y="0" x="0 4.2394562 8.3879042 12.62736 16.866816">2028E</tspan></text>
</g>
    </g>
    <g id="g328">
      <g clip-path="url(#clipPath332)" id="g330"><text id="text336" style="font-variant:normal;font-weight:normal;font-size:7.58400011px;font-family:Arial;-inkscape-font-specification:Arial;writing-mode:lr-tb;fill:#000000;fill-opacity:1;fill-rule:nonzero;stroke:none" transform="matrix(1,0,0,-1,470.02,276.31)"><tspan id="tspan338" y="0" x="0 4.2394562 8.3879042 12.62736 16.866816">2029E</tspan></text>
</g>
    </g>
    <g id="g340">
      <g clip-path="url(#clipPath344)" id="g342"><text id="text348" style="font-variant:normal;font-weight:normal;font-size:7.58400011px;font-family:Arial;-inkscape-font-specification:Arial;writing-mode:lr-tb;fill:#000000;fill-opacity:1;fill-rule:nonzero;stroke:none" transform="matrix(1,0,0,-1,513.43,276.31)"><tspan id="tspan350" y="0" x="0 4.2394562 8.3879042 12.62736 16.866816">2030E</tspan></text>
</g>
    </g>
    <g id="g352">
      <g clip-path="url(#clipPath356)" id="g354"><text id="text360" style="font-style:italic;font-variant:normal;font-weight:normal;font-size:8.39999962px;font-family:Arial;-inkscape-font-specification:'Arial Italic';writing-mode:lr-tb;fill:#000000;fill-opacity:1;fill-rule:nonzero;stroke:none" transform="matrix(1,0,0,-1,55.944,492.12)"><tspan id="tspan362" y="0" x="0 6.0647998 11.592 14.0112 18.639601 23.268">US $bn</tspan></text>
</g>
    </g>
    <g id="g364">
      <g clip-path="url(#clipPath368)" id="g366"><text id="text372" style="font-variant:normal;font-weight:bold;font-size:7.58400011px;font-family:Arial;-inkscape-font-specification:'Arial Bold';writing-mode:lr-tb;fill:#000000;fill-opacity:1;fill-rule:nonzero;stroke:none" transform="matrix(1,0,0,-1,204.31,521.45)"><tspan id="tspan374" y="0" x="0 5.3770561 7.5081601 9.7302723 11.861376 16.495199 19.051008 22.001184 26.217888 30.464928 32.990398 35.940575 40.574402 44.836609 47.36208 52.026241 54.976418 59.193119 61.119457 65.753281 71.153091 77.531235 79.662338 85.137985 88.065407 92.304863 96.544319 100.78378 105.4176 110.08934 116.15655 120.79037 123.24 125.25735 129.89117 132.84134 137.0808 139.2119 143.84573 145.99959 150.63341 155.30515 157.22391 161.37234 165.6118 167.7429 169.87402 172.00513 176.63895 179.19475 183.4342 186.38438 190.60109 195.25766 199.49712">AI Infrastructure TAM Breakdown: Training vs. Inference</tspan></text>
</g>
    </g>
    <path id="path376" style="fill:#137cb1;fill-opacity:1;fill-rule:evenodd;stroke:none" d="m 269.03,504.9 3.8105,0 0,3.8105 -3.8105,0 0,-3.8105 z"/>
    <g id="g378">
      <g clip-path="url(#clipPath382)" id="g380"><text id="text386" style="font-variant:normal;font-weight:normal;font-size:7.58400011px;font-family:Arial;-inkscape-font-specification:Arial;writing-mode:lr-tb;fill:#000000;fill-opacity:1;fill-rule:nonzero;stroke:none" transform="matrix(1,0,0,-1,274.49,504.34)"><tspan id="tspan388" y="0" x="0 4.6338239 7.159296 11.376 12.983808 17.200512 18.906912 23.032608">Training</tspan></text>
</g>
    </g>
    <path id="path390" style="fill:#eacc80;fill-opacity:1;fill-rule:evenodd;stroke:none" d="m 308.99,504.9 3.8105,0 0,3.8105 -3.8105,0 0,-3.8105 z"/>
    <g id="g392">
      <g clip-path="url(#clipPath396)" id="g394"><text id="text400" style="font-variant:normal;font-weight:normal;font-size:7.58400011px;font-family:Arial;-inkscape-font-specification:Arial;writing-mode:lr-tb;fill:#000000;fill-opacity:1;fill-rule:nonzero;stroke:none" transform="matrix(1,0,0,-1,314.45,504.34)"><tspan id="tspan402" y="0" x="0 2.131104 6.3705602 8.3879042 12.62736 15.152832 19.384705 23.533152 27.363071">Inference</tspan></text>
</g>
    </g>
    <path id="path404" style="fill:#eacc80;fill-opacity:1;fill-rule:nonzero;stroke:none" d="m 152.27,311.68 346.99,162.04 -0.26,0.57 -347,-162.04 0.27,-0.57 z m 347.17,159.67 3.51,4.43 -5.65,0.16 2.14,-4.59 z"/>
    <g id="g406">
      <g clip-path="url(#clipPath410)" id="g408">
        <path id="path414" style="fill:#9e781a;fill-opacity:1;fill-rule:nonzero;stroke:none" d="m 244.43,371.41 -3.4,5.73 1.15,0.68 3.4,-5.72 -1.15,-0.69 z m 6.06,3.6 -1.1,-0.65 -1.26,2.12 c -0.26,0.44 -0.46,0.72 -0.59,0.82 -0.12,0.11 -0.26,0.16 -0.41,0.17 -0.14,0.01 -0.29,-0.02 -0.44,-0.11 -0.19,-0.12 -0.33,-0.27 -0.42,-0.46 -0.09,-0.2 -0.11,-0.4 -0.06,-0.6 0.04,-0.21 0.2,-0.54 0.48,-1 l 1.11,-1.88 -1.09,-0.65 -2.47,4.14 1.02,0.61 0.36,-0.61 c 0.09,0.68 0.4,1.19 0.95,1.51 0.25,0.15 0.49,0.24 0.74,0.27 0.26,0.03 0.47,0.01 0.66,-0.07 0.18,-0.07 0.34,-0.18 0.49,-0.33 0.14,-0.15 0.3,-0.38 0.5,-0.7 l 1.53,-2.58 z m -1.85,4.51 0.61,0.37 -0.19,0.31 c -0.21,0.35 -0.32,0.63 -0.35,0.85 -0.03,0.21 0.03,0.43 0.16,0.66 0.14,0.22 0.36,0.43 0.66,0.61 0.31,0.18 0.65,0.32 1,0.4 l 0.31,-0.85 c -0.2,-0.06 -0.38,-0.14 -0.54,-0.24 -0.16,-0.09 -0.25,-0.2 -0.28,-0.31 -0.02,-0.12 0.03,-0.28 0.15,-0.49 l 0.17,-0.29 0.83,0.48 0.51,-0.86 -0.82,-0.49 1.95,-3.28 -1.1,-0.65 -1.95,3.28 -0.61,-0.36 -0.51,0.86 z m 7.25,0.49 1.21,0.46 c 0.09,-0.48 0.05,-0.92 -0.13,-1.31 -0.17,-0.39 -0.49,-0.72 -0.95,-0.99 -0.72,-0.43 -1.39,-0.51 -2.02,-0.24 -0.5,0.21 -0.91,0.61 -1.26,1.18 -0.4,0.69 -0.54,1.34 -0.42,1.94 0.13,0.6 0.47,1.07 1.02,1.39 0.62,0.37 1.22,0.45 1.82,0.26 0.6,-0.2 1.14,-0.72 1.63,-1.57 l -2.75,-1.63 c 0.2,-0.32 0.44,-0.52 0.71,-0.6 0.28,-0.09 0.55,-0.05 0.8,0.1 0.17,0.1 0.29,0.23 0.35,0.4 0.06,0.16 0.06,0.36 -0.01,0.61 z m -0.59,1.14 c -0.2,0.32 -0.42,0.51 -0.68,0.58 -0.25,0.08 -0.49,0.05 -0.72,-0.09 -0.23,-0.14 -0.38,-0.34 -0.43,-0.61 -0.06,-0.27 0.01,-0.55 0.19,-0.85 l 1.64,0.97 z m 4.46,-0.63 -1.1,-0.65 -2.46,4.14 1.02,0.61 0.35,-0.59 c 0.01,0.38 0.06,0.66 0.14,0.83 0.09,0.17 0.22,0.31 0.4,0.41 0.25,0.15 0.53,0.23 0.84,0.23 l 0.23,-1.16 c -0.25,0.01 -0.46,-0.03 -0.62,-0.13 -0.15,-0.09 -0.26,-0.21 -0.31,-0.36 -0.06,-0.15 -0.05,-0.35 0.02,-0.61 0.07,-0.25 0.31,-0.74 0.73,-1.44 l 0.76,-1.28 z m 3.7,3.98 1.2,0.47 c 0.1,-0.49 0.06,-0.93 -0.12,-1.32 -0.18,-0.39 -0.5,-0.72 -0.95,-0.99 -0.72,-0.42 -1.4,-0.51 -2.02,-0.24 -0.5,0.21 -0.92,0.61 -1.26,1.19 -0.41,0.68 -0.55,1.33 -0.42,1.93 0.12,0.6 0.46,1.07 1.01,1.39 0.62,0.37 1.23,0.46 1.83,0.26 0.6,-0.2 1.14,-0.72 1.62,-1.57 l -2.75,-1.63 c 0.2,-0.32 0.44,-0.52 0.72,-0.6 0.27,-0.08 0.54,-0.05 0.79,0.1 0.17,0.1 0.29,0.24 0.35,0.4 0.06,0.16 0.06,0.37 0,0.61 z m -0.6,1.15 c -0.19,0.31 -0.42,0.5 -0.67,0.57 -0.26,0.08 -0.5,0.05 -0.72,-0.09 -0.24,-0.14 -0.39,-0.34 -0.44,-0.61 -0.05,-0.27 0.01,-0.55 0.19,-0.85 l 1.64,0.98 z m 7.19,0.98 -1.1,-0.66 -1.26,2.12 c -0.26,0.45 -0.46,0.72 -0.58,0.83 -0.13,0.1 -0.27,0.16 -0.41,0.17 -0.15,0.01 -0.3,-0.03 -0.45,-0.12 -0.19,-0.11 -0.33,-0.26 -0.42,-0.46 -0.09,-0.19 -0.11,-0.39 -0.06,-0.6 0.04,-0.2 0.2,-0.54 0.48,-1 l 1.11,-1.88 -1.09,-0.65 -2.47,4.15 1.02,0.6 0.36,-0.61 c 0.09,0.69 0.4,1.19 0.95,1.52 0.25,0.14 0.49,0.23 0.75,0.26 0.25,0.03 0.47,0.01 0.65,-0.06 0.18,-0.08 0.34,-0.19 0.49,-0.33 0.14,-0.15 0.31,-0.39 0.5,-0.71 l 1.53,-2.57 z m 2.97,5.72 -0.96,-0.84 c -0.17,0.19 -0.35,0.31 -0.54,0.34 -0.19,0.03 -0.39,-0.01 -0.6,-0.14 -0.27,-0.16 -0.43,-0.38 -0.49,-0.67 -0.05,-0.28 0.06,-0.65 0.32,-1.09 0.3,-0.49 0.58,-0.79 0.87,-0.89 0.29,-0.11 0.57,-0.08 0.85,0.09 0.21,0.12 0.34,0.28 0.4,0.48 0.07,0.2 0.04,0.45 -0.08,0.78 l 1.19,0.45 c 0.18,-0.56 0.19,-1.06 0.02,-1.5 -0.17,-0.44 -0.52,-0.82 -1.05,-1.14 -0.61,-0.36 -1.21,-0.45 -1.79,-0.29 -0.59,0.17 -1.09,0.6 -1.49,1.27 -0.41,0.69 -0.54,1.33 -0.41,1.92 0.14,0.6 0.52,1.08 1.13,1.45 0.51,0.3 0.97,0.43 1.4,0.39 0.43,-0.04 0.84,-0.25 1.23,-0.61 z m 4.17,0.31 1.21,0.46 c 0.09,-0.48 0.05,-0.92 -0.13,-1.31 -0.17,-0.39 -0.49,-0.72 -0.95,-0.99 -0.72,-0.43 -1.39,-0.51 -2.02,-0.24 -0.5,0.21 -0.92,0.61 -1.26,1.18 -0.41,0.69 -0.55,1.33 -0.42,1.94 0.13,0.6 0.47,1.06 1.02,1.39 0.62,0.37 1.22,0.45 1.82,0.26 0.6,-0.2 1.14,-0.72 1.63,-1.57 l -2.75,-1.64 c 0.2,-0.32 0.44,-0.52 0.71,-0.6 0.28,-0.08 0.54,-0.04 0.8,0.11 0.17,0.1 0.29,0.23 0.35,0.39 0.06,0.17 0.06,0.37 -0.01,0.62 z m -0.59,1.14 c -0.2,0.31 -0.42,0.51 -0.68,0.58 -0.25,0.07 -0.49,0.04 -0.72,-0.09 -0.24,-0.14 -0.38,-0.35 -0.43,-0.61 -0.06,-0.27 0.01,-0.55 0.19,-0.85 l 1.64,0.97 z m 3.3,3.67 -0.84,0.94 -0.58,0.97 1.2,0.71 0.57,-0.97 0.46,-1.17 -0.81,-0.48 z m 6.98,0.53 0.6,-1.02 -3.85,-2.29 c -0.18,0.41 -0.28,0.85 -0.27,1.32 0,0.47 0.14,1.17 0.42,2.11 0.22,0.75 0.34,1.24 0.35,1.48 0.02,0.31 -0.04,0.58 -0.17,0.8 -0.15,0.25 -0.32,0.4 -0.53,0.45 -0.21,0.05 -0.43,0.01 -0.67,-0.13 -0.23,-0.13 -0.37,-0.31 -0.42,-0.53 -0.05,-0.22 0,-0.49 0.17,-0.83 l -1.15,-0.54 c -0.3,0.65 -0.35,1.2 -0.16,1.67 0.18,0.47 0.54,0.85 1.05,1.16 0.57,0.33 1.1,0.45 1.6,0.33 0.51,-0.11 0.89,-0.39 1.16,-0.85 0.16,-0.25 0.26,-0.53 0.3,-0.81 0.05,-0.29 0.05,-0.62 0,-1 -0.04,-0.25 -0.13,-0.63 -0.29,-1.15 -0.16,-0.53 -0.25,-0.87 -0.28,-1.03 -0.03,-0.16 -0.05,-0.3 -0.04,-0.44 l 2.18,1.3 z m 0.47,0.89 1.03,0.76 c 0.17,-0.22 0.38,-0.37 0.62,-0.42 0.24,-0.05 0.46,-0.02 0.66,0.1 0.23,0.14 0.37,0.34 0.42,0.62 0.05,0.29 -0.04,0.61 -0.26,0.99 -0.21,0.35 -0.45,0.57 -0.71,0.65 -0.26,0.08 -0.52,0.05 -0.77,-0.1 -0.32,-0.19 -0.52,-0.5 -0.6,-0.92 l -0.97,-0.4 -1.2,3.31 2.9,1.72 0.61,-1.02 -2.07,-1.23 0.4,-1.08 c 0.17,0.27 0.39,0.48 0.64,0.63 0.49,0.29 1.01,0.36 1.56,0.2 0.55,-0.15 0.99,-0.51 1.32,-1.07 0.28,-0.47 0.4,-0.98 0.34,-1.51 -0.07,-0.72 -0.44,-1.28 -1.1,-1.68 -0.53,-0.31 -1.04,-0.42 -1.54,-0.34 -0.51,0.09 -0.93,0.35 -1.28,0.79 z"/>
      </g>
    </g>
    <g id="g416">
      <g clip-path="url(#clipPath420)" id="g418">
        <path id="path424" style="fill:#9e781a;fill-opacity:1;fill-rule:nonzero;stroke:none" d="m 291.84,401.64 -0.65,1.09 2.16,1.28 0.65,-1.09 -2.16,-1.28 z"/>
      </g>
    </g>
    <g id="g426">
      <g clip-path="url(#clipPath430)" id="g428">
        <path id="path434" style="fill:#9e781a;fill-opacity:1;fill-rule:nonzero;stroke:none" d="m 293.37,405.47 -0.84,0.94 -0.57,0.97 1.19,0.71 0.58,-0.97 0.45,-1.17 -0.81,-0.48 z m 2.94,-1.19 0.98,0.75 c 0.2,-0.25 0.41,-0.4 0.65,-0.45 0.23,-0.06 0.45,-0.02 0.66,0.1 0.23,0.14 0.37,0.34 0.42,0.6 0.05,0.26 -0.01,0.54 -0.18,0.83 -0.16,0.28 -0.37,0.45 -0.61,0.53 -0.25,0.07 -0.47,0.04 -0.69,-0.08 -0.14,-0.09 -0.29,-0.21 -0.45,-0.39 l -0.41,0.97 c 0.3,0.17 0.49,0.37 0.56,0.6 0.08,0.23 0.05,0.46 -0.09,0.68 -0.11,0.19 -0.26,0.31 -0.44,0.36 -0.19,0.05 -0.37,0.01 -0.56,-0.1 -0.19,-0.11 -0.31,-0.27 -0.37,-0.48 -0.05,-0.21 -0.02,-0.45 0.1,-0.71 l -1.11,-0.43 c -0.14,0.39 -0.2,0.73 -0.18,1.02 0.02,0.29 0.12,0.57 0.31,0.84 0.18,0.27 0.43,0.49 0.74,0.68 0.54,0.32 1.08,0.41 1.61,0.26 0.43,-0.13 0.75,-0.36 0.96,-0.72 0.3,-0.5 0.27,-1.06 -0.11,-1.69 0.37,0.12 0.73,0.12 1.07,-0.01 0.34,-0.12 0.62,-0.36 0.82,-0.71 0.3,-0.5 0.37,-1.04 0.22,-1.61 -0.16,-0.57 -0.51,-1.02 -1.06,-1.34 -0.52,-0.31 -1.04,-0.42 -1.55,-0.32 -0.52,0.09 -0.95,0.37 -1.29,0.82 z m 3.81,7.98 c 0.56,0.33 1.11,0.39 1.66,0.18 0.65,-0.25 1.3,-0.91 1.94,-2 0.64,-1.08 0.92,-1.97 0.82,-2.67 -0.07,-0.57 -0.39,-1.02 -0.94,-1.35 -0.56,-0.33 -1.14,-0.39 -1.73,-0.16 -0.6,0.22 -1.22,0.89 -1.87,1.98 -0.64,1.08 -0.92,1.97 -0.82,2.67 0.07,0.57 0.39,1.02 0.94,1.35 z m 0.54,-0.91 c -0.13,-0.08 -0.22,-0.19 -0.28,-0.34 -0.05,-0.14 -0.04,-0.34 0.03,-0.59 0.1,-0.33 0.34,-0.83 0.74,-1.5 0.4,-0.68 0.71,-1.12 0.92,-1.33 0.22,-0.21 0.41,-0.33 0.56,-0.35 0.15,-0.02 0.29,0.01 0.43,0.09 0.13,0.07 0.22,0.19 0.28,0.33 0.05,0.15 0.04,0.35 -0.03,0.6 -0.09,0.33 -0.34,0.83 -0.74,1.5 -0.4,0.67 -0.7,1.11 -0.92,1.32 -0.22,0.21 -0.4,0.33 -0.56,0.36 -0.15,0.02 -0.29,-0.01 -0.43,-0.09 z m 5.7,-3.16 -3.4,5.72 4.24,2.52 0.58,-0.96 -3.09,-1.84 0.75,-1.27 2.88,1.71 0.57,-0.97 -2.87,-1.7 0.92,-1.56 3.2,1.9 0.57,-0.97 -4.35,-2.58 z"/>
      </g>
    </g>
    <g id="g436">
      <g clip-path="url(#clipPath440)" id="g438">
        <path id="path444" style="fill:#9e781a;fill-opacity:1;fill-rule:nonzero;stroke:none" d="m 316.25,416.91 1.33,0.31 c 0.2,-0.73 0.19,-1.36 -0.03,-1.9 -0.22,-0.54 -0.64,-1 -1.25,-1.36 -0.76,-0.45 -1.54,-0.56 -2.34,-0.34 -0.8,0.23 -1.46,0.8 -2,1.7 -0.56,0.95 -0.76,1.84 -0.58,2.66 0.18,0.82 0.67,1.47 1.47,1.94 0.7,0.42 1.4,0.55 2.08,0.39 0.4,-0.09 0.81,-0.32 1.21,-0.7 l -0.98,-0.96 c -0.24,0.26 -0.53,0.41 -0.84,0.46 -0.32,0.04 -0.63,-0.03 -0.94,-0.21 -0.42,-0.25 -0.68,-0.61 -0.76,-1.07 -0.08,-0.46 0.08,-1.04 0.48,-1.72 0.43,-0.72 0.87,-1.16 1.31,-1.31 0.44,-0.15 0.87,-0.11 1.29,0.14 0.31,0.18 0.51,0.44 0.62,0.76 0.1,0.33 0.08,0.73 -0.07,1.21 z m 8.49,2.19 -1.26,-0.75 -1.27,1.01 -2.29,-1.36 0.3,-1.58 -1.23,-0.73 -1.17,7.05 1.22,0.72 5.7,-4.36 z m -3.48,1 -2.05,1.66 0.49,-2.59 1.56,0.93 z m 5.2,2.87 -0.57,0.97 2.49,1.48 1.36,-2.28 c -0.11,-0.38 -0.33,-0.8 -0.69,-1.25 -0.35,-0.45 -0.76,-0.81 -1.24,-1.09 -0.59,-0.36 -1.19,-0.54 -1.79,-0.56 -0.59,-0.01 -1.14,0.15 -1.64,0.49 -0.5,0.33 -0.91,0.77 -1.24,1.32 -0.35,0.6 -0.54,1.2 -0.57,1.81 -0.02,0.62 0.13,1.19 0.46,1.72 0.26,0.41 0.66,0.78 1.21,1.1 0.71,0.42 1.35,0.6 1.93,0.54 0.57,-0.06 1.08,-0.32 1.5,-0.78 l -1.02,-0.89 c -0.25,0.23 -0.53,0.36 -0.85,0.39 -0.32,0.03 -0.64,-0.05 -0.98,-0.25 -0.5,-0.3 -0.81,-0.7 -0.92,-1.19 -0.1,-0.5 0.03,-1.06 0.4,-1.69 0.41,-0.68 0.86,-1.1 1.36,-1.26 0.51,-0.16 1,-0.1 1.49,0.19 0.25,0.14 0.46,0.34 0.65,0.58 0.18,0.24 0.32,0.47 0.42,0.71 l -0.43,0.73 -1.33,-0.79 z m 4.85,0.04 -3.4,5.72 2.44,1.45 c 0.61,0.36 1.08,0.57 1.42,0.63 0.34,0.07 0.67,0.01 0.99,-0.15 0.33,-0.16 0.59,-0.41 0.79,-0.75 0.25,-0.43 0.34,-0.86 0.25,-1.29 -0.08,-0.43 -0.36,-0.83 -0.82,-1.2 0.34,0 0.64,-0.04 0.91,-0.12 0.26,-0.07 0.67,-0.25 1.21,-0.54 l 1.36,-0.7 -1.38,-0.82 -1.58,0.75 c -0.56,0.27 -0.93,0.43 -1.11,0.48 -0.17,0.05 -0.34,0.06 -0.49,0.03 -0.14,-0.03 -0.35,-0.12 -0.62,-0.28 l -0.23,-0.14 1.42,-2.39 -1.16,-0.68 z m -0.8,3.99 0.85,0.5 c 0.56,0.33 0.89,0.56 1,0.69 0.11,0.13 0.17,0.28 0.18,0.44 0.01,0.16 -0.04,0.32 -0.14,0.5 -0.11,0.19 -0.26,0.31 -0.43,0.37 -0.17,0.06 -0.36,0.05 -0.57,-0.03 -0.1,-0.05 -0.38,-0.21 -0.85,-0.48 l -0.91,-0.54 0.87,-1.45 z m 4.93,2.58 -0.65,1.1 1.09,0.65 0.66,-1.1 -1.1,-0.65 z m 1.81,-3.05 -0.65,1.1 1.1,0.65 0.65,-1.1 -1.1,-0.65 z m 6.84,4.06 -0.69,1.15 -2.34,-1.39 -0.57,0.96 0.32,5.11 0.92,0.55 2.16,-3.63 0.71,0.42 0.57,-0.96 -0.71,-0.43 0.69,-1.15 -1.06,-0.63 z m -1.26,2.12 -1.16,1.95 -0.16,-2.73 1.32,0.78 z m 6.64,2.46 0.6,-1.02 -3.84,-2.29 c -0.19,0.41 -0.28,0.85 -0.28,1.32 0.01,0.47 0.14,1.17 0.42,2.11 0.22,0.75 0.34,1.24 0.35,1.47 0.02,0.32 -0.04,0.59 -0.17,0.81 -0.14,0.24 -0.32,0.39 -0.53,0.45 -0.21,0.05 -0.43,0.01 -0.66,-0.13 -0.23,-0.14 -0.37,-0.31 -0.43,-0.53 -0.05,-0.22 0.01,-0.49 0.18,-0.83 l -1.16,-0.54 c -0.29,0.65 -0.35,1.2 -0.16,1.67 0.19,0.46 0.54,0.85 1.05,1.16 0.57,0.33 1.1,0.44 1.61,0.33 0.5,-0.11 0.89,-0.39 1.16,-0.85 0.15,-0.26 0.25,-0.53 0.3,-0.82 0.04,-0.28 0.04,-0.62 -0.01,-0.99 -0.03,-0.25 -0.13,-0.63 -0.28,-1.16 -0.16,-0.52 -0.26,-0.86 -0.29,-1.02 -0.03,-0.16 -0.04,-0.3 -0.04,-0.44 l 2.18,1.3 z m -1.22,3.72 c -0.31,0.52 -0.42,0.96 -0.34,1.35 0.08,0.38 0.31,0.68 0.7,0.91 0.39,0.24 0.78,0.3 1.15,0.19 0.37,-0.12 0.71,-0.43 1.02,-0.94 0.3,-0.52 0.41,-0.96 0.34,-1.35 -0.08,-0.38 -0.31,-0.68 -0.7,-0.91 -0.4,-0.24 -0.78,-0.3 -1.15,-0.19 -0.38,0.12 -0.71,0.43 -1.02,0.94 z m 0.85,0.52 c 0.22,-0.37 0.41,-0.6 0.57,-0.67 0.12,-0.06 0.24,-0.05 0.36,0.02 0.11,0.07 0.18,0.17 0.19,0.3 0,0.18 -0.1,0.45 -0.32,0.82 -0.22,0.38 -0.41,0.6 -0.57,0.68 -0.12,0.05 -0.24,0.05 -0.36,-0.02 -0.11,-0.07 -0.18,-0.17 -0.19,-0.3 -0.01,-0.18 0.1,-0.46 0.32,-0.83 z m 3.93,-3.8 -0.81,-0.49 -0.54,7.86 0.79,0.46 0.56,-7.83 z m 0.88,2.55 c -0.31,0.51 -0.42,0.96 -0.34,1.34 0.08,0.38 0.31,0.69 0.7,0.92 0.4,0.24 0.78,0.3 1.15,0.18 0.37,-0.11 0.71,-0.42 1.02,-0.94 0.3,-0.51 0.42,-0.96 0.34,-1.34 -0.08,-0.38 -0.31,-0.69 -0.7,-0.92 -0.4,-0.23 -0.78,-0.3 -1.15,-0.18 -0.38,0.11 -0.71,0.43 -1.02,0.94 z m 0.85,0.51 c 0.22,-0.37 0.41,-0.59 0.57,-0.67 0.13,-0.05 0.24,-0.05 0.36,0.02 0.12,0.07 0.18,0.17 0.18,0.3 0.02,0.18 -0.09,0.45 -0.31,0.83 -0.22,0.37 -0.41,0.59 -0.57,0.67 -0.12,0.06 -0.24,0.05 -0.36,-0.02 -0.12,-0.07 -0.18,-0.17 -0.18,-0.3 -0.01,-0.18 0.09,-0.45 0.31,-0.83 z"/>
      </g>
    </g>
  </g>
</svg>
