<?xml version="1.0" encoding="UTF-8" standalone="no"?>
<svg xmlns:dc="http://purl.org/dc/elements/1.1/" xmlns:cc="http://creativecommons.org/ns#" xmlns:rdf="http://www.w3.org/1999/02/22-rdf-syntax-ns#" xmlns:svg="http://www.w3.org/2000/svg" xmlns="http://www.w3.org/2000/svg" viewBox="63.055 322.3625 639 345.2875" height="345.2875" width="639" xml:space="preserve" version="1.1" id="svg2">
  <metadata id="metadata8">
    <rdf:RDF>
      <cc:Work rdf:about="">
        <dc:format>image/svg+xml</dc:format>
        <dc:type rdf:resource="http://purl.org/dc/dcmitype/StillImage"/>
      </cc:Work>
    </rdf:RDF>
  </metadata>
  <defs id="defs6">
    <clipPath id="clipPath16" clipPathUnits="userSpaceOnUse">
      <path style="clip-rule:evenodd" id="path18" d="m 50.4,257.88 511.2,0 0,276.24 -511.2,0 0,-276.24 z"/>
    </clipPath>
    <clipPath id="clipPath26" clipPathUnits="userSpaceOnUse">
      <path style="clip-rule:evenodd" id="path28" d="m 50.4,257.88 511.2,0 0,276.24 -511.2,0 0,-276.24 z"/>
    </clipPath>
    <clipPath id="clipPath40" clipPathUnits="userSpaceOnUse">
      <path style="clip-rule:evenodd" id="path42" d="m 50.52,257.88 511.08,0 0,276.12 -511.08,0 0,-276.12 z"/>
    </clipPath>
    <clipPath id="clipPath52" clipPathUnits="userSpaceOnUse">
      <path style="clip-rule:evenodd" id="path54" d="m 50.52,257.88 511.08,0 0,276.12 -511.08,0 0,-276.12 z"/>
    </clipPath>
    <clipPath id="clipPath64" clipPathUnits="userSpaceOnUse">
      <path style="clip-rule:evenodd" id="path66" d="m 50.52,257.88 511.08,0 0,276.12 -511.08,0 0,-276.12 z"/>
    </clipPath>
    <clipPath id="clipPath76" clipPathUnits="userSpaceOnUse">
      <path style="clip-rule:evenodd" id="path78" d="m 50.52,257.88 511.08,0 0,276.12 -511.08,0 0,-276.12 z"/>
    </clipPath>
    <clipPath id="clipPath88" clipPathUnits="userSpaceOnUse">
      <path style="clip-rule:evenodd" id="path90" d="m 50.52,257.88 511.08,0 0,276.12 -511.08,0 0,-276.12 z"/>
    </clipPath>
    <clipPath id="clipPath100" clipPathUnits="userSpaceOnUse">
      <path style="clip-rule:evenodd" id="path102" d="m 50.52,257.88 511.08,0 0,276.12 -511.08,0 0,-276.12 z"/>
    </clipPath>
    <clipPath id="clipPath112" clipPathUnits="userSpaceOnUse">
      <path style="clip-rule:evenodd" id="path114" d="m 50.52,257.88 511.08,0 0,276.12 -511.08,0 0,-276.12 z"/>
    </clipPath>
    <clipPath id="clipPath124" clipPathUnits="userSpaceOnUse">
      <path style="clip-rule:evenodd" id="path126" d="m 50.52,257.88 511.08,0 0,276.12 -511.08,0 0,-276.12 z"/>
    </clipPath>
    <clipPath id="clipPath136" clipPathUnits="userSpaceOnUse">
      <path style="clip-rule:evenodd" id="path138" d="m 50.52,257.88 511.08,0 0,276.12 -511.08,0 0,-276.12 z"/>
    </clipPath>
    <clipPath id="clipPath148" clipPathUnits="userSpaceOnUse">
      <path style="clip-rule:evenodd" id="path150" d="m 50.52,257.88 511.08,0 0,276.12 -511.08,0 0,-276.12 z"/>
    </clipPath>
    <clipPath id="clipPath160" clipPathUnits="userSpaceOnUse">
      <path style="clip-rule:evenodd" id="path162" d="m 50.52,257.88 511.08,0 0,276.12 -511.08,0 0,-276.12 z"/>
    </clipPath>
    <clipPath id="clipPath172" clipPathUnits="userSpaceOnUse">
      <path style="clip-rule:evenodd" id="path174" d="m 50.52,257.88 511.08,0 0,276.12 -511.08,0 0,-276.12 z"/>
    </clipPath>
    <clipPath id="clipPath184" clipPathUnits="userSpaceOnUse">
      <path style="clip-rule:evenodd" id="path186" d="m 50.52,257.88 511.08,0 0,276.12 -511.08,0 0,-276.12 z"/>
    </clipPath>
    <clipPath id="clipPath196" clipPathUnits="userSpaceOnUse">
      <path style="clip-rule:evenodd" id="path198" d="m 50.52,257.88 511.08,0 0,276.12 -511.08,0 0,-276.12 z"/>
    </clipPath>
    <clipPath id="clipPath208" clipPathUnits="userSpaceOnUse">
      <path style="clip-rule:evenodd" id="path210" d="m 50.52,257.88 511.08,0 0,276.12 -511.08,0 0,-276.12 z"/>
    </clipPath>
    <clipPath id="clipPath220" clipPathUnits="userSpaceOnUse">
      <path style="clip-rule:evenodd" id="path222" d="m 50.52,257.88 511.08,0 0,276.12 -511.08,0 0,-276.12 z"/>
    </clipPath>
    <clipPath id="clipPath232" clipPathUnits="userSpaceOnUse">
      <path style="clip-rule:evenodd" id="path234" d="m 50.52,257.88 511.08,0 0,276.12 -511.08,0 0,-276.12 z"/>
    </clipPath>
    <clipPath id="clipPath244" clipPathUnits="userSpaceOnUse">
      <path style="clip-rule:evenodd" id="path246" d="m 50.52,257.88 511.08,0 0,276.12 -511.08,0 0,-276.12 z"/>
    </clipPath>
    <clipPath id="clipPath256" clipPathUnits="userSpaceOnUse">
      <path style="clip-rule:evenodd" id="path258" d="m 50.52,257.88 511.08,0 0,276.12 -511.08,0 0,-276.12 z"/>
    </clipPath>
    <clipPath id="clipPath268" clipPathUnits="userSpaceOnUse">
      <path style="clip-rule:evenodd" id="path270" d="m 50.52,257.88 511.08,0 0,276.12 -511.08,0 0,-276.12 z"/>
    </clipPath>
  </defs>
  <g transform="matrix(1.25,0,0,-1.25,0,990)" id="g10">
    <g id="g12">
      <g clip-path="url(#clipPath16)" id="g14">
        <path id="path20" style="fill:none;stroke:#000000;stroke-width:0.14;stroke-linecap:butt;stroke-linejoin:miter;stroke-miterlimit:10;stroke-dasharray:none;stroke-opacity:0" d="m 50.514,257.91 511.18,0 0,276.13 -511.18,0 0,-276.13 z"/>
      </g>
    </g>
    <g id="g22">
      <g clip-path="url(#clipPath26)" id="g24">
        <path id="path30" style="fill:#ffffff;fill-opacity:1;fill-rule:evenodd;stroke:none" d="m 50.514,257.91 511.18,0 0,276.13 -511.18,0 0,-276.13 z"/>
      </g>
    </g>
    <path id="path32" style="fill:none;stroke:#808080;stroke-width:1.49790001;stroke-linecap:round;stroke-linejoin:round;stroke-miterlimit:10;stroke-dasharray:none;stroke-opacity:1" d="m 96.308,334.29 437.452,0"/>
    <path id="path34" style="fill:none;stroke:#005aa4;stroke-width:1.79750001;stroke-linecap:round;stroke-linejoin:round;stroke-miterlimit:10;stroke-dasharray:none;stroke-opacity:1" d="m 97.917,332.58 3.203,1.72 3.16,-0.57 3.31,0 3.16,0.57 3.31,-3.59 3.16,1.29 3.17,-3.02 3.31,-0.57 3.16,0 3.16,0.57 3.31,-0.57 3.16,-2.88 3.31,-1.15 3.16,0.57 3.17,0 3.3,-1.15 3.17,2.88 3.16,-1.15 3.31,1.73 3.16,1.15 3.17,-1.73 3.3,-1.15 3.17,1.15 3.3,7.62 3.17,0.58 3.16,-0.58 3.31,3.45 3.16,-1.15 3.17,0 3.3,-7.62 3.17,-1.72 3.3,-4.17 3.17,1.86 3.16,0.58 3.31,0 3.16,-4.17 3.17,0.58 3.3,1.86 3.17,-1.86 3.16,-1.73 3.31,1.15 3.16,4.75 3.31,-1.73 3.16,8.77 3.17,-1.72 3.3,0 3.17,-0.72 3.16,-5.18 3.31,-1.15 3.16,-0.58 3.31,0.58 3.16,1.15 3.17,2.3 3.3,3.6 3.17,4.6 3.16,-2.88 3.31,1.15 3.16,-1.15 3.16,2.3 3.31,3.6 3.17,0 3.3,0.57 3.17,-8.19 3.16,1.72 3.31,-2.44 3.16,-2.88 3.16,-1.72 3.31,-1.73 3.16,-7.09 3.31,1.19 3.17,2.3 3.16,1.16 3.31,0 3.16,0.57 3.16,5.32 3.31,2.88 3.16,0.72 3.17,1.15 3.31,2.87 3.16,1.15 3.31,9.35 3.16,3.59 3.16,-1.72 3.31,9.35 3.16,0.57 3.17,1.15 3.31,-1.72 3.16,0 3.31,2.87 3.16,0.58 3.16,-4.03 3.31,1.15 3.16,4.75 3.17,-0.58 3.31,-1.29 3.16,-13.38 3.31,0 3.16,-2.44 3.16,1.15 3.31,-8.2 3.16,-2.3 3.17,1.15 3.3,3.6 3.17,0 3.16,-5.32 3.31,-1.73 3.16,-1.15 3.31,7.05 3.16,-0.72 3.17,-0.58 3.3,3.02 3.17,5.18 3.16,-2.3 3.31,-7.62 3.16,-1.15 3.31,-1.73 3.16,4.03 3.17,7.62 3.3,-0.58 3.17,-8.77 3.16,-2.3 3.31,2.88 3.16,-2.88 3.17,1.15 3.3,-5.89 3.17,5.89 3.3,22.29 3.17,0.58 3.16,-1.15 3.31,-1.16 3.16,2.88 3.17,11.07 3.3,60.4 3.17,9.49 3.23,57.4"/>
    <g id="g36">
      <g clip-path="url(#clipPath40)" id="g38"><text id="text44" style="font-variant:normal;font-weight:bold;font-size:13.22399998px;font-family:'Roboto Condensed';-inkscape-font-specification:RobotoCondensed-Bold;writing-mode:lr-tb;fill:#005aa4;fill-opacity:1;fill-rule:nonzero;stroke:none" transform="matrix(1,0,0,-1,520.1,507.74)"><tspan id="tspan46" y="0" x="0 6.7310162 13.462032 17.336664">27.6</tspan></text>
</g>
    </g>
    <g id="g48">
      <g clip-path="url(#clipPath52)" id="g50"><text id="text56" style="font-variant:normal;font-weight:normal;font-size:13.22399998px;font-family:'Roboto Condensed';-inkscape-font-specification:RobotoCondensed-Regular;writing-mode:lr-tb;fill:#000000;fill-opacity:1;fill-rule:nonzero;stroke:none" transform="matrix(1,0,0,-1,64.488,300.96)"><tspan id="tspan58" y="0" x="0 3.279552 9.8122082 13.250448">-5.0</tspan></text>
</g>
    </g>
    <g id="g60">
      <g clip-path="url(#clipPath64)" id="g62"><text id="text68" style="font-variant:normal;font-weight:normal;font-size:13.22399998px;font-family:'Roboto Condensed';-inkscape-font-specification:RobotoCondensed-Regular;writing-mode:lr-tb;fill:#000000;fill-opacity:1;fill-rule:nonzero;stroke:none" transform="matrix(1,0,0,-1,67.752,330.29)"><tspan id="tspan70" y="0" x="0 6.4797602 9.9576721">0.0</tspan></text>
</g>
    </g>
    <g id="g72">
      <g clip-path="url(#clipPath76)" id="g74"><text id="text80" style="font-variant:normal;font-weight:normal;font-size:13.22399998px;font-family:'Roboto Condensed';-inkscape-font-specification:RobotoCondensed-Regular;writing-mode:lr-tb;fill:#000000;fill-opacity:1;fill-rule:nonzero;stroke:none" transform="matrix(1,0,0,-1,67.752,359.59)"><tspan id="tspan82" y="0" x="0 6.4797602 9.9576721">5.0</tspan></text>
</g>
    </g>
    <g id="g84">
      <g clip-path="url(#clipPath88)" id="g86"><text id="text92" style="font-variant:normal;font-weight:normal;font-size:13.22399998px;font-family:'Roboto Condensed';-inkscape-font-specification:RobotoCondensed-Regular;writing-mode:lr-tb;fill:#000000;fill-opacity:1;fill-rule:nonzero;stroke:none" transform="matrix(1,0,0,-1,61.248,388.92)"><tspan id="tspan94" y="0" x="0 6.4797602 13.09176 16.569672">10.0</tspan></text>
</g>
    </g>
    <g id="g96">
      <g clip-path="url(#clipPath100)" id="g98"><text id="text104" style="font-variant:normal;font-weight:normal;font-size:13.22399998px;font-family:'Roboto Condensed';-inkscape-font-specification:RobotoCondensed-Regular;writing-mode:lr-tb;fill:#000000;fill-opacity:1;fill-rule:nonzero;stroke:none" transform="matrix(1,0,0,-1,61.248,418.22)"><tspan id="tspan106" y="0" x="0 6.4797602 13.09176 16.569672">15.0</tspan></text>
</g>
    </g>
    <g id="g108">
      <g clip-path="url(#clipPath112)" id="g110"><text id="text116" style="font-variant:normal;font-weight:normal;font-size:13.22399998px;font-family:'Roboto Condensed';-inkscape-font-specification:RobotoCondensed-Regular;writing-mode:lr-tb;fill:#000000;fill-opacity:1;fill-rule:nonzero;stroke:none" transform="matrix(1,0,0,-1,61.248,447.55)"><tspan id="tspan118" y="0" x="0 6.4797602 13.09176 16.569672">20.0</tspan></text>
</g>
    </g>
    <g id="g120">
      <g clip-path="url(#clipPath124)" id="g122"><text id="text128" style="font-variant:normal;font-weight:normal;font-size:13.24800014px;font-family:'Roboto Condensed';-inkscape-font-specification:RobotoCondensed-Regular;writing-mode:lr-tb;fill:#000000;fill-opacity:1;fill-rule:nonzero;stroke:none" transform="matrix(1,0,0,-1,61.248,476.88)"><tspan id="tspan130" y="0" x="0 6.478272 13.089024 16.573248">25.0</tspan></text>
</g>
    </g>
    <g id="g132">
      <g clip-path="url(#clipPath136)" id="g134"><text id="text140" style="font-variant:normal;font-weight:normal;font-size:13.22399998px;font-family:'Roboto Condensed';-inkscape-font-specification:RobotoCondensed-Regular;writing-mode:lr-tb;fill:#000000;fill-opacity:1;fill-rule:nonzero;stroke:none" transform="matrix(1,0,0,-1,61.248,506.18)"><tspan id="tspan142" y="0" x="0 6.4797602 13.09176 16.569672">30.0</tspan></text>
</g>
    </g>
    <g id="g144">
      <g clip-path="url(#clipPath148)" id="g146"><text id="text152" style="font-variant:normal;font-weight:normal;font-size:13.22399998px;font-family:'Roboto Condensed';-inkscape-font-specification:RobotoCondensed-Regular;writing-mode:lr-tb;fill:#000000;fill-opacity:1;fill-rule:nonzero;stroke:none" transform="matrix(1,0,0,-1,80.256,284.04)"><tspan id="tspan154" y="0" x="0 6.3342962 12.668592 19.135128 22.308887 28.920889">Jan-15</tspan></text>
</g>
    </g>
    <g id="g156">
      <g clip-path="url(#clipPath160)" id="g158"><text id="text164" style="font-variant:normal;font-weight:normal;font-size:13.22399998px;font-family:'Roboto Condensed';-inkscape-font-specification:RobotoCondensed-Regular;writing-mode:lr-tb;fill:#000000;fill-opacity:1;fill-rule:nonzero;stroke:none" transform="matrix(1,0,0,-1,129,284.04)"><tspan id="tspan166" y="0" x="0 7.6170239 14.08356 18.103657 21.409657 27.889416">Apr-16</tspan></text>
</g>
    </g>
    <g id="g168">
      <g clip-path="url(#clipPath172)" id="g170"><text id="text176" style="font-variant:normal;font-weight:normal;font-size:13.22399998px;font-family:'Roboto Condensed';-inkscape-font-specification:RobotoCondensed-Regular;writing-mode:lr-tb;fill:#000000;fill-opacity:1;fill-rule:nonzero;stroke:none" transform="matrix(1,0,0,-1,178.44,284.04)"><tspan id="tspan178" y="0" x="0 6.307848 12.747936 15.776232 18.897097 25.482649">Jul-17</tspan></text>
</g>
    </g>
    <g id="g180">
      <g clip-path="url(#clipPath184)" id="g182"><text id="text188" style="font-variant:normal;font-weight:normal;font-size:13.22399998px;font-family:'Roboto Condensed';-inkscape-font-specification:RobotoCondensed-Regular;writing-mode:lr-tb;fill:#000000;fill-opacity:1;fill-rule:nonzero;stroke:none" transform="matrix(1,0,0,-1,225.62,284.04)"><tspan id="tspan190" y="0" x="0 7.8947282 13.924872 17.825953 21.105503 27.532368">Oct-18</tspan></text>
</g>
    </g>
    <g id="g192">
      <g clip-path="url(#clipPath196)" id="g194"><text id="text200" style="font-variant:normal;font-weight:normal;font-size:13.22399998px;font-family:'Roboto Condensed';-inkscape-font-specification:RobotoCondensed-Regular;writing-mode:lr-tb;fill:#000000;fill-opacity:1;fill-rule:nonzero;stroke:none" transform="matrix(1,0,0,-1,273.29,284.04)"><tspan id="tspan202" y="0" x="0 6.3342962 12.668592 19.135128 22.308887 28.920889">Jan-20</tspan></text>
</g>
    </g>
    <g id="g204">
      <g clip-path="url(#clipPath208)" id="g206"><text id="text212" style="font-variant:normal;font-weight:normal;font-size:13.22399998px;font-family:'Roboto Condensed';-inkscape-font-specification:RobotoCondensed-Regular;writing-mode:lr-tb;fill:#000000;fill-opacity:1;fill-rule:nonzero;stroke:none" transform="matrix(1,0,0,-1,322.03,284.04)"><tspan id="tspan214" y="0" x="0 7.6170239 14.070336 18.090431 21.369984 27.823296">Apr-21</tspan></text>
</g>
    </g>
    <g id="g216">
      <g clip-path="url(#clipPath220)" id="g218"><text id="text224" style="font-variant:normal;font-weight:normal;font-size:13.22399998px;font-family:'Roboto Condensed';-inkscape-font-specification:RobotoCondensed-Regular;writing-mode:lr-tb;fill:#000000;fill-opacity:1;fill-rule:nonzero;stroke:none" transform="matrix(1,0,0,-1,371.45,284.04)"><tspan id="tspan226" y="0" x="0 6.3342962 12.800832 15.829128 18.989664 25.601664">Jul-22</tspan></text>
</g>
    </g>
    <g id="g228">
      <g clip-path="url(#clipPath232)" id="g230"><text id="text236" style="font-variant:normal;font-weight:normal;font-size:13.22399998px;font-family:'Roboto Condensed';-inkscape-font-specification:RobotoCondensed-Regular;writing-mode:lr-tb;fill:#000000;fill-opacity:1;fill-rule:nonzero;stroke:none" transform="matrix(1,0,0,-1,418.63,284.04)"><tspan id="tspan238" y="0" x="0 7.9476242 13.964544 17.865623 21.145176 27.677832">Oct-23</tspan></text>
</g>
    </g>
    <g id="g240">
      <g clip-path="url(#clipPath244)" id="g242"><text id="text248" style="font-variant:normal;font-weight:normal;font-size:13.22399998px;font-family:'Roboto Condensed';-inkscape-font-specification:RobotoCondensed-Regular;writing-mode:lr-tb;fill:#000000;fill-opacity:1;fill-rule:nonzero;stroke:none" transform="matrix(1,0,0,-1,466.32,284.04)"><tspan id="tspan250" y="0" x="0 6.3342962 12.668592 19.135128 22.308887 28.920889">Jan-25</tspan></text>
</g>
    </g>
    <g id="g252">
      <g clip-path="url(#clipPath256)" id="g254"><text id="text260" style="font-variant:normal;font-weight:normal;font-size:13.22399998px;font-family:'Roboto Condensed';-inkscape-font-specification:RobotoCondensed-Regular;writing-mode:lr-tb;fill:#000000;fill-opacity:1;fill-rule:nonzero;stroke:none" transform="matrix(1,0,0,-1,515.04,284.04)"><tspan id="tspan262" y="0" x="0 7.6170239 14.136456 18.156551 21.436104 27.96876">Apr-26</tspan></text>
</g>
    </g>
    <g id="g264">
      <g clip-path="url(#clipPath268)" id="g266"><text id="text272" style="font-variant:normal;font-weight:bold;font-size:15.81599998px;font-family:'Roboto Condensed';-inkscape-font-specification:RobotoCondensed-Bold;writing-mode:lr-tb;fill:#000000;fill-opacity:1;fill-rule:nonzero;stroke:none" transform="matrix(1,0,0,-1,136.61,509.9)"><tspan id="tspan274" y="0" x="0 9.0309362 17.524128 21.256704 30.28764 39.318577 43.604713 47.938297 51.417816 59.183472 63.216553 70.839867 78.162674 83.018181 88.269096 96.145462 103.92693 107.91257 115.26701 118.73071 127.74583 135.65384 147.42093 155.20241 163.07878 170.86024 178.48357 186.26503 191.12054 198.33264 201.79634 209.24568 217.02715 224.93515 228.57283 238.01498 245.3378 252.6606 260.28391 267.46439 274.64484 282.56866 287.75632 291.74194 299.39688 306.57733 309.91452 315.08636 325.14532 333.71759">US PPI: Electronic Components and Accessories (%Y)</tspan></text>
</g>
    </g>
  </g>
</svg>
