<?xml version="1.0" encoding="UTF-8" standalone="no"?>
<svg xmlns:dc="http://purl.org/dc/elements/1.1/" xmlns:cc="http://creativecommons.org/ns#" xmlns:rdf="http://www.w3.org/1999/02/22-rdf-syntax-ns#" xmlns:svg="http://www.w3.org/2000/svg" xmlns="http://www.w3.org/2000/svg" viewBox="63.07375 331.6 639 326.7" height="326.7" width="639" xml:space="preserve" version="1.1" id="svg2">
  <metadata id="metadata8">
    <rdf:RDF>
      <cc:Work rdf:about="">
        <dc:format>image/svg+xml</dc:format>
        <dc:type rdf:resource="http://purl.org/dc/dcmitype/StillImage"/>
      </cc:Work>
    </rdf:RDF>
  </metadata>
  <defs id="defs6">
    <clipPath id="clipPath16" clipPathUnits="userSpaceOnUse">
      <path style="clip-rule:evenodd" id="path18" d="m 50.4,265.32 511.2,0 0,261.48 -511.2,0 0,-261.48 z"/>
    </clipPath>
    <clipPath id="clipPath30" clipPathUnits="userSpaceOnUse">
      <path style="clip-rule:evenodd" id="path32" d="m 50.419,265.47 511.05,0 0,261.22 -511.05,0 0,-261.22 z"/>
    </clipPath>
    <clipPath id="clipPath40" clipPathUnits="userSpaceOnUse">
      <path style="clip-rule:evenodd" id="path42" d="m 50.52,265.44 510.96,0 0,261.24 -510.96,0 0,-261.24 z"/>
    </clipPath>
    <clipPath id="clipPath52" clipPathUnits="userSpaceOnUse">
      <path style="clip-rule:evenodd" id="path54" d="m 50.52,265.44 510.96,0 0,261.24 -510.96,0 0,-261.24 z"/>
    </clipPath>
    <clipPath id="clipPath64" clipPathUnits="userSpaceOnUse">
      <path style="clip-rule:evenodd" id="path66" d="m 50.52,265.44 510.96,0 0,261.24 -510.96,0 0,-261.24 z"/>
    </clipPath>
    <clipPath id="clipPath76" clipPathUnits="userSpaceOnUse">
      <path style="clip-rule:evenodd" id="path78" d="m 50.52,265.44 510.96,0 0,261.24 -510.96,0 0,-261.24 z"/>
    </clipPath>
    <clipPath id="clipPath88" clipPathUnits="userSpaceOnUse">
      <path style="clip-rule:evenodd" id="path90" d="m 50.52,265.44 510.96,0 0,261.24 -510.96,0 0,-261.24 z"/>
    </clipPath>
    <clipPath id="clipPath100" clipPathUnits="userSpaceOnUse">
      <path style="clip-rule:evenodd" id="path102" d="m 50.52,265.44 510.96,0 0,261.24 -510.96,0 0,-261.24 z"/>
    </clipPath>
    <clipPath id="clipPath112" clipPathUnits="userSpaceOnUse">
      <path style="clip-rule:evenodd" id="path114" d="m 50.52,265.44 510.96,0 0,261.24 -510.96,0 0,-261.24 z"/>
    </clipPath>
    <clipPath id="clipPath124" clipPathUnits="userSpaceOnUse">
      <path style="clip-rule:evenodd" id="path126" d="m 50.52,265.44 510.96,0 0,261.24 -510.96,0 0,-261.24 z"/>
    </clipPath>
    <clipPath id="clipPath136" clipPathUnits="userSpaceOnUse">
      <path style="clip-rule:evenodd" id="path138" d="m 50.52,265.44 510.96,0 0,261.24 -510.96,0 0,-261.24 z"/>
    </clipPath>
    <clipPath id="clipPath148" clipPathUnits="userSpaceOnUse">
      <path style="clip-rule:evenodd" id="path150" d="m 50.52,265.44 510.96,0 0,261.24 -510.96,0 0,-261.24 z"/>
    </clipPath>
    <clipPath id="clipPath160" clipPathUnits="userSpaceOnUse">
      <path style="clip-rule:evenodd" id="path162" d="m 50.52,265.44 510.96,0 0,261.24 -510.96,0 0,-261.24 z"/>
    </clipPath>
  </defs>
  <g transform="matrix(1.25,0,0,-1.25,0,990)" id="g10">
    <g id="g12">
      <g clip-path="url(#clipPath16)" id="g14">
        <path id="path20" style="fill:none;stroke:#000000;stroke-width:0.14;stroke-linecap:butt;stroke-linejoin:miter;stroke-miterlimit:10;stroke-dasharray:none;stroke-opacity:0" d="m 50.529,265.43 511.06,0 0,261.22 -511.06,0 0,-261.22 z"/>
      </g>
    </g>
    <path id="path22" style="fill:#ffffff;fill-opacity:1;fill-rule:evenodd;stroke:none" d="m 50.529,265.43 511.06,0 0,261.22 -511.06,0 0,-261.22 z"/>
    <path id="path24" style="fill:#2f5597;fill-opacity:1;fill-rule:nonzero;stroke:none" d="m 69.464,308.36 63.286,0 0,-5.98 -63.286,0 0,5.98 z m 101.366,3.6 63.29,0 0,-9.58 -63.29,0 0,9.58 z m 101.22,2.25 63.29,0 0,-11.83 -63.29,0 0,11.83 z m 101.22,54.58 63.44,0 0,-66.41 -63.44,0 0,66.41 z m 101.37,112.92 63.29,0 0,-179.33 -63.29,0 0,179.33 z"/>
    <g id="g26">
      <g clip-path="url(#clipPath30)" id="g28">
        <path id="path34" style="fill:none;stroke:#808080;stroke-width:1.24960005;stroke-linecap:butt;stroke-linejoin:round;stroke-miterlimit:10;stroke-dasharray:none;stroke-opacity:1" d="m 50.529,302.38 506.361,0"/>
      </g>
    </g>
    <g id="g36">
      <g clip-path="url(#clipPath40)" id="g38"><text id="text44" style="font-variant:normal;font-weight:normal;font-size:13.80000019px;font-family:Arial;-inkscape-font-specification:Arial;writing-mode:lr-tb;fill:#000000;fill-opacity:1;fill-rule:nonzero;stroke:none" transform="matrix(1,0,0,-1,91.608,316.78)"><tspan id="tspan46" y="0" x="0 7.6560001 15.312 22.968">123 </tspan></text>
</g>
    </g>
    <g id="g48">
      <g clip-path="url(#clipPath52)" id="g50"><text id="text56" style="font-variant:normal;font-weight:normal;font-size:13.80000019px;font-family:Arial;-inkscape-font-specification:Arial;writing-mode:lr-tb;fill:#000000;fill-opacity:1;fill-rule:nonzero;stroke:none" transform="matrix(1,0,0,-1,192.91,320.45)"><tspan id="tspan58" y="0" x="0 7.632 15.264 22.896">199 </tspan></text>
</g>
    </g>
    <g id="g60">
      <g clip-path="url(#clipPath64)" id="g62"><text id="text68" style="font-variant:normal;font-weight:normal;font-size:13.80000019px;font-family:Arial;-inkscape-font-specification:Arial;writing-mode:lr-tb;fill:#000000;fill-opacity:1;fill-rule:nonzero;stroke:none" transform="matrix(1,0,0,-1,294.19,322.68)"><tspan id="tspan70" y="0" x="0 7.6560001 15.312 22.968">245 </tspan></text>
</g>
    </g>
    <g id="g72">
      <g clip-path="url(#clipPath76)" id="g74"><text id="text80" style="font-variant:normal;font-weight:normal;font-size:13.80000019px;font-family:Arial;-inkscape-font-specification:Arial;writing-mode:lr-tb;fill:#000000;fill-opacity:1;fill-rule:nonzero;stroke:none" transform="matrix(1,0,0,-1,389.64,377.28)"><tspan id="tspan82" y="0" x="0 7.6728001 11.5506 19.2234 26.8962 34.513802">1,376 </tspan></text>
</g>
    </g>
    <g id="g84">
      <g clip-path="url(#clipPath88)" id="g86"><text id="text92" style="font-variant:normal;font-weight:normal;font-size:13.80000019px;font-family:Arial;-inkscape-font-specification:Arial;writing-mode:lr-tb;fill:#000000;fill-opacity:1;fill-rule:nonzero;stroke:none" transform="matrix(1,0,0,-1,490.92,490.15)"><tspan id="tspan94" y="0" x="0 7.6728001 11.5506 19.2234 26.8962 34.513802">3,714 </tspan></text>
</g>
    </g>
    <g id="g96">
      <g clip-path="url(#clipPath100)" id="g98"><text id="text104" style="font-variant:normal;font-weight:normal;font-size:13.80000019px;font-family:Arial;-inkscape-font-specification:Arial;writing-mode:lr-tb;fill:#000000;fill-opacity:1;fill-rule:nonzero;stroke:none" transform="matrix(1,0,0,-1,81.312,281.57)"><tspan id="tspan106" y="0" x="0 7.632 15.264 22.896 30.528">2024A</tspan></text>
</g>
    </g>
    <g id="g108">
      <g clip-path="url(#clipPath112)" id="g110"><text id="text116" style="font-variant:normal;font-weight:normal;font-size:13.80000019px;font-family:Arial;-inkscape-font-specification:Arial;writing-mode:lr-tb;fill:#000000;fill-opacity:1;fill-rule:nonzero;stroke:none" transform="matrix(1,0,0,-1,182.59,281.57)"><tspan id="tspan118" y="0" x="0 7.6560001 15.312 22.968 30.624001">2025A</tspan></text>
</g>
    </g>
    <g id="g120">
      <g clip-path="url(#clipPath124)" id="g122"><text id="text128" style="font-variant:normal;font-weight:normal;font-size:13.80000019px;font-family:Arial;-inkscape-font-specification:Arial;writing-mode:lr-tb;fill:#000000;fill-opacity:1;fill-rule:nonzero;stroke:none" transform="matrix(1,0,0,-1,284.64,281.57)"><tspan id="tspan130" y="0" x="0 7.6560001 15.312 22.968 30.624001">2026e</tspan></text>
</g>
    </g>
    <g id="g132">
      <g clip-path="url(#clipPath136)" id="g134"><text id="text140" style="font-variant:normal;font-weight:normal;font-size:13.80000019px;font-family:Arial;-inkscape-font-specification:Arial;writing-mode:lr-tb;fill:#000000;fill-opacity:1;fill-rule:nonzero;stroke:none" transform="matrix(1,0,0,-1,385.94,281.57)"><tspan id="tspan142" y="0" x="0 7.632 15.264 22.896 30.528">2027e</tspan></text>
</g>
    </g>
    <g id="g144">
      <g clip-path="url(#clipPath148)" id="g146"><text id="text152" style="font-variant:normal;font-weight:normal;font-size:13.80000019px;font-family:Arial;-inkscape-font-specification:Arial;writing-mode:lr-tb;fill:#000000;fill-opacity:1;fill-rule:nonzero;stroke:none" transform="matrix(1,0,0,-1,487.22,281.57)"><tspan id="tspan154" y="0" x="0 7.6560001 15.312 22.968 30.624001">2028e</tspan></text>
</g>
    </g>
    <g id="g156">
      <g clip-path="url(#clipPath160)" id="g158"><text id="text164" style="font-variant:normal;font-weight:bold;font-size:15px;font-family:Arial;-inkscape-font-specification:'Arial Bold';writing-mode:lr-tb;fill:#000000;fill-opacity:1;fill-rule:nonzero;stroke:none" transform="matrix(1,0,0,-1,54.288,510.65)"><tspan id="tspan166" y="0" x="0 10.83 19.950001 25.785 34.185001 38.355 50.084999 55.919998 65.084999 73.470001 81.855003 85.769997 95.805 101.64 110.805 115.755 119.925 124.92 129.09 134.08501 142.425 154.92">Core Gross Profit ($M)</tspan></text>
</g>
    </g>
  </g>
</svg>
