<?xml version="1.0" encoding="UTF-8" standalone="no"?>
<svg xmlns:dc="http://purl.org/dc/elements/1.1/" xmlns:cc="http://creativecommons.org/ns#" xmlns:rdf="http://www.w3.org/1999/02/22-rdf-syntax-ns#" xmlns:svg="http://www.w3.org/2000/svg" xmlns="http://www.w3.org/2000/svg" viewBox="68.47875 196.7875 939.125 475.4375" height="475.4375" width="939.125" xml:space="preserve" version="1.1" id="svg2">
  <metadata id="metadata8">
    <rdf:RDF>
      <cc:Work rdf:about="">
        <dc:format>image/svg+xml</dc:format>
        <dc:type rdf:resource="http://purl.org/dc/dcmitype/StillImage"/>
      </cc:Work>
    </rdf:RDF>
  </metadata>
  <defs id="defs6">
    <clipPath id="clipPath16" clipPathUnits="userSpaceOnUse">
      <path style="clip-rule:evenodd" id="path18" d="m 54.783,127.44 751.3,0 0,380.35 -751.3,0 0,-380.35 z"/>
    </clipPath>
    <clipPath id="clipPath26" clipPathUnits="userSpaceOnUse">
      <path style="clip-rule:evenodd" id="path28" d="m 54.783,127.44 751.3,0 0,380.35 -751.3,0 0,-380.35 z"/>
    </clipPath>
    <clipPath id="clipPath52" clipPathUnits="userSpaceOnUse">
      <path style="clip-rule:evenodd" id="path54" d="m 54.913,127.57 751.17,0 0,380.22 -751.17,0 0,-380.22 z"/>
    </clipPath>
    <clipPath id="clipPath64" clipPathUnits="userSpaceOnUse">
      <path style="clip-rule:evenodd" id="path66" d="m 54.913,127.57 751.17,0 0,380.22 -751.17,0 0,-380.22 z"/>
    </clipPath>
    <clipPath id="clipPath76" clipPathUnits="userSpaceOnUse">
      <path style="clip-rule:evenodd" id="path78" d="m 54.913,127.57 751.17,0 0,380.22 -751.17,0 0,-380.22 z"/>
    </clipPath>
    <clipPath id="clipPath88" clipPathUnits="userSpaceOnUse">
      <path style="clip-rule:evenodd" id="path90" d="m 54.913,127.57 751.17,0 0,380.22 -751.17,0 0,-380.22 z"/>
    </clipPath>
    <clipPath id="clipPath100" clipPathUnits="userSpaceOnUse">
      <path style="clip-rule:evenodd" id="path102" d="m 54.913,127.57 751.17,0 0,380.22 -751.17,0 0,-380.22 z"/>
    </clipPath>
    <clipPath id="clipPath112" clipPathUnits="userSpaceOnUse">
      <path style="clip-rule:evenodd" id="path114" d="m 54.913,127.57 751.17,0 0,380.22 -751.17,0 0,-380.22 z"/>
    </clipPath>
    <clipPath id="clipPath124" clipPathUnits="userSpaceOnUse">
      <path style="clip-rule:evenodd" id="path126" d="m 54.913,127.57 751.17,0 0,380.22 -751.17,0 0,-380.22 z"/>
    </clipPath>
    <clipPath id="clipPath136" clipPathUnits="userSpaceOnUse">
      <path style="clip-rule:evenodd" id="path138" d="m 54.913,127.57 751.17,0 0,380.22 -751.17,0 0,-380.22 z"/>
    </clipPath>
    <clipPath id="clipPath148" clipPathUnits="userSpaceOnUse">
      <path style="clip-rule:evenodd" id="path150" d="m 54.913,127.57 751.17,0 0,380.22 -751.17,0 0,-380.22 z"/>
    </clipPath>
    <clipPath id="clipPath160" clipPathUnits="userSpaceOnUse">
      <path style="clip-rule:evenodd" id="path162" d="m 54.913,127.57 751.17,0 0,380.22 -751.17,0 0,-380.22 z"/>
    </clipPath>
    <clipPath id="clipPath172" clipPathUnits="userSpaceOnUse">
      <path style="clip-rule:evenodd" id="path174" d="m 54.913,127.57 751.17,0 0,380.22 -751.17,0 0,-380.22 z"/>
    </clipPath>
    <clipPath id="clipPath184" clipPathUnits="userSpaceOnUse">
      <path style="clip-rule:evenodd" id="path186" d="m 54.913,127.57 751.17,0 0,380.22 -751.17,0 0,-380.22 z"/>
    </clipPath>
    <clipPath id="clipPath196" clipPathUnits="userSpaceOnUse">
      <path style="clip-rule:evenodd" id="path198" d="m 54.913,127.57 751.17,0 0,380.22 -751.17,0 0,-380.22 z"/>
    </clipPath>
    <clipPath id="clipPath208" clipPathUnits="userSpaceOnUse">
      <path style="clip-rule:evenodd" id="path210" d="m 54.913,127.57 751.17,0 0,380.22 -751.17,0 0,-380.22 z"/>
    </clipPath>
    <clipPath id="clipPath220" clipPathUnits="userSpaceOnUse">
      <path style="clip-rule:evenodd" id="path222" d="m 54.913,127.57 751.17,0 0,380.22 -751.17,0 0,-380.22 z"/>
    </clipPath>
    <clipPath id="clipPath232" clipPathUnits="userSpaceOnUse">
      <path style="clip-rule:evenodd" id="path234" d="m 54.913,127.57 751.17,0 0,380.22 -751.17,0 0,-380.22 z"/>
    </clipPath>
    <clipPath id="clipPath244" clipPathUnits="userSpaceOnUse">
      <path style="clip-rule:evenodd" id="path246" d="m 54.913,127.57 751.17,0 0,380.22 -751.17,0 0,-380.22 z"/>
    </clipPath>
    <clipPath id="clipPath256" clipPathUnits="userSpaceOnUse">
      <path style="clip-rule:evenodd" id="path258" d="m 54.913,127.57 751.17,0 0,380.22 -751.17,0 0,-380.22 z"/>
    </clipPath>
    <clipPath id="clipPath268" clipPathUnits="userSpaceOnUse">
      <path style="clip-rule:evenodd" id="path270" d="m 54.913,127.57 751.17,0 0,380.22 -751.17,0 0,-380.22 z"/>
    </clipPath>
    <clipPath id="clipPath280" clipPathUnits="userSpaceOnUse">
      <path style="clip-rule:evenodd" id="path282" d="m 54.913,127.57 751.17,0 0,380.22 -751.17,0 0,-380.22 z"/>
    </clipPath>
    <clipPath id="clipPath292" clipPathUnits="userSpaceOnUse">
      <path style="clip-rule:evenodd" id="path294" d="m 54.913,127.57 751.17,0 0,380.22 -751.17,0 0,-380.22 z"/>
    </clipPath>
    <clipPath id="clipPath304" clipPathUnits="userSpaceOnUse">
      <path style="clip-rule:evenodd" id="path306" d="m 54.913,127.57 751.17,0 0,380.22 -751.17,0 0,-380.22 z"/>
    </clipPath>
    <clipPath id="clipPath316" clipPathUnits="userSpaceOnUse">
      <path style="clip-rule:evenodd" id="path318" d="m 54.913,127.57 751.17,0 0,380.22 -751.17,0 0,-380.22 z"/>
    </clipPath>
    <clipPath id="clipPath328" clipPathUnits="userSpaceOnUse">
      <path style="clip-rule:evenodd" id="path330" d="m 54.913,127.57 751.17,0 0,380.22 -751.17,0 0,-380.22 z"/>
    </clipPath>
    <clipPath id="clipPath340" clipPathUnits="userSpaceOnUse">
      <path style="clip-rule:evenodd" id="path342" d="m 54.913,127.57 751.17,0 0,380.22 -751.17,0 0,-380.22 z"/>
    </clipPath>
    <clipPath id="clipPath352" clipPathUnits="userSpaceOnUse">
      <path style="clip-rule:evenodd" id="path354" d="m 54.913,127.57 751.17,0 0,380.22 -751.17,0 0,-380.22 z"/>
    </clipPath>
    <clipPath id="clipPath364" clipPathUnits="userSpaceOnUse">
      <path style="clip-rule:evenodd" id="path366" d="m 54.913,127.57 751.17,0 0,380.22 -751.17,0 0,-380.22 z"/>
    </clipPath>
    <clipPath id="clipPath376" clipPathUnits="userSpaceOnUse">
      <path style="clip-rule:evenodd" id="path378" d="m 54.913,127.57 751.17,0 0,380.22 -751.17,0 0,-380.22 z"/>
    </clipPath>
    <clipPath id="clipPath392" clipPathUnits="userSpaceOnUse">
      <path style="clip-rule:evenodd" id="path394" d="m 54.913,127.57 751.17,0 0,380.22 -751.17,0 0,-380.22 z"/>
    </clipPath>
    <clipPath id="clipPath406" clipPathUnits="userSpaceOnUse">
      <path style="clip-rule:evenodd" id="path408" d="m 54.913,127.57 751.17,0 0,380.22 -751.17,0 0,-380.22 z"/>
    </clipPath>
    <clipPath id="clipPath420" clipPathUnits="userSpaceOnUse">
      <path style="clip-rule:evenodd" id="path422" d="m 54.913,127.57 751.17,0 0,380.22 -751.17,0 0,-380.22 z"/>
    </clipPath>
  </defs>
  <g transform="matrix(1.25,0,0,-1.25,0,831.525)" id="g10">
    <g id="g12">
      <g clip-path="url(#clipPath16)" id="g14">
        <path id="path20" style="fill:none;stroke:#000000;stroke-width:0.14;stroke-linecap:butt;stroke-linejoin:miter;stroke-miterlimit:10;stroke-dasharray:none;stroke-opacity:0" d="m 54.808,127.4 751.3,0 0,380.34 -751.3,0 0,-380.34 z"/>
      </g>
    </g>
    <g id="g22">
      <g clip-path="url(#clipPath26)" id="g24">
        <path id="path30" style="fill:#ffffff;fill-opacity:1;fill-rule:evenodd;stroke:none" d="m 54.808,127.4 751.3,0 0,380.34 -751.3,0 0,-380.34 z"/>
      </g>
    </g>
    <path id="path32" style="fill:#ffffff;fill-opacity:1;fill-rule:evenodd;stroke:none" d="m 122.62,184.06 617.04,0 0,264.24 -617.04,0 0,-264.24 z"/>
    <path id="path34" style="fill:none;stroke:#c0c0c0;stroke-width:0.73413002;stroke-linecap:round;stroke-linejoin:round;stroke-miterlimit:10;stroke-dasharray:none;stroke-opacity:1" d="m 122.62,213.46 617.04,0 m -617.04,29.31 617.04,0 m -617.04,29.31 617.04,0 m -617.04,29.51 617.04,0 m -617.04,29.31 617.04,0 m -617.04,29.31 617.04,0 m -617.04,29.31 617.04,0 m -617.04,29.5 617.04,0 m -617.04,29.29 617.04,0"/>
    <path id="path36" style="fill:#005aa4;fill-opacity:1;fill-rule:nonzero;stroke:none" d="m 149.12,211.55 35.25,0 0,-27.49 -35.25,0 0,27.49 z m 88.12,11.49 35.25,0 0,-38.98 -35.25,0 0,38.98 z m 88.12,43.68 35.25,0 0,-82.66 -35.25,0 0,82.66 z m 88.12,22.03 35.25,0 0,-104.69 -35.25,0 0,104.69 z m 88.12,32.57 35.25,0 0,-137.26 -35.25,0 0,137.26 z m 88.13,18.58 35.44,0 0,-155.84 -35.44,0 0,155.84 z m 88.31,31.61 35.25,0 0,-187.45 -35.25,0 0,187.45 z"/>
    <path id="path38" style="fill:#c6d9f1;fill-opacity:1;fill-rule:nonzero;stroke:none" d="m 237.24,227.45 35.25,0 0,-4.41 -35.25,0 0,4.41 z m 88.12,48.47 35.25,0 0,-9.2 -35.25,0 0,9.2 z m 88.12,31.41 35.25,0 0,-18.58 -35.25,0 0,18.58 z m 88.12,38.12 35.25,0 0,-24.13 -35.25,0 0,24.13 z m 88.13,33.53 35.44,0 0,-39.08 -35.44,0 0,39.08 z m 88.31,39.27 35.25,0 0,-46.74 -35.25,0 0,46.74 z"/>
    <path id="path40" style="fill:#226b5a;fill-opacity:1;fill-rule:nonzero;stroke:none" d="m 122.62,225.34 29.37,0 0,-41.28 -29.37,0 0,41.28 z m 88.18,23.76 29.31,0 0,-65.04 -29.31,0 0,65.04 z m 88.13,26.82 29.31,0 0,-91.86 -29.31,0 0,91.86 z m 88.12,31.41 29.31,0 0,-123.27 -29.31,0 0,123.27 z m 88.12,8.81 29.5,0 0,-132.08 -29.5,0 0,132.08 z m 88.12,-2.1 29.5,0 0,-129.98 -29.5,0 0,129.98 z m 88.31,-3.83 29.31,0 0,-126.15 -29.31,0 0,126.15 z"/>
    <path id="path42" style="fill:none;stroke:#868686;stroke-width:0.73413002;stroke-linecap:round;stroke-linejoin:round;stroke-miterlimit:10;stroke-dasharray:none;stroke-opacity:1" d="m 739.66,184.06 0,264.25"/>
    <path id="path44" style="fill:none;stroke:#868686;stroke-width:0.73413002;stroke-linecap:round;stroke-linejoin:round;stroke-miterlimit:10;stroke-dasharray:none;stroke-opacity:1" d="m 739.66,184.06 4.19,0 m -4.19,29.4 4.19,0 m -4.19,29.31 4.19,0 m -4.19,29.31 4.19,0 m -4.19,29.51 4.19,0 m -4.19,29.31 4.19,0 m -4.19,29.31 4.19,0 m -4.19,29.31 4.19,0 m -4.19,29.5 4.19,0 m -4.19,29.29 4.19,0"/>
    <path id="path46" style="fill:none;stroke:#808080;stroke-width:1.83529997;stroke-linecap:round;stroke-linejoin:round;stroke-miterlimit:10;stroke-dasharray:none;stroke-opacity:1" d="m 122.62,184.06 617.04,0"/>
    <g id="g48">
      <g clip-path="url(#clipPath52)" id="g50"><text id="text56" style="font-variant:normal;font-weight:normal;font-size:13.21700001px;font-family:'Roboto Condensed';-inkscape-font-specification:RobotoCondensed-Regular;writing-mode:lr-tb;fill:#000000;fill-opacity:1;fill-rule:nonzero;stroke:none" transform="matrix(1,0,0,-1,754.95509,179.91)"><tspan id="tspan58" y="0" x="0">-</tspan></text>
</g>
    </g>
    <g id="g60">
      <g clip-path="url(#clipPath64)" id="g62"><text id="text68" style="font-variant:normal;font-weight:normal;font-size:13.21700001px;font-family:'Roboto Condensed';-inkscape-font-specification:RobotoCondensed-Regular;writing-mode:lr-tb;fill:#000000;fill-opacity:1;fill-rule:nonzero;stroke:none" transform="matrix(1,0,0,-1,754.91669,209.28)"><tspan id="tspan70" y="0" x="0 6.5291982 13.058396 15.582843 22.283861 28.813061">50,000</tspan></text>
</g>
    </g>
    <g id="g72">
      <g clip-path="url(#clipPath76)" id="g74"><text id="text80" style="font-variant:normal;font-weight:normal;font-size:13.21700001px;font-family:'Roboto Condensed';-inkscape-font-specification:RobotoCondensed-Regular;writing-mode:lr-tb;fill:#000000;fill-opacity:1;fill-rule:nonzero;stroke:none" transform="matrix(1,0,0,-1,754.91669,238.63)"><tspan id="tspan82" y="0" x="0 6.5291982 13.058396 19.587593 22.283861 28.813061 35.342258">100,000</tspan></text>
</g>
    </g>
    <g id="g84">
      <g clip-path="url(#clipPath88)" id="g86"><text id="text92" style="font-variant:normal;font-weight:normal;font-size:13.21700001px;font-family:'Roboto Condensed';-inkscape-font-specification:RobotoCondensed-Regular;writing-mode:lr-tb;fill:#000000;fill-opacity:1;fill-rule:nonzero;stroke:none" transform="matrix(1,0,0,-1,754.91669,268)"><tspan id="tspan94" y="0" x="0 6.5291982 13.058396 19.587593 22.283861 28.813061 35.342258">150,000</tspan></text>
</g>
    </g>
    <g id="g96">
      <g clip-path="url(#clipPath100)" id="g98"><text id="text104" style="font-variant:normal;font-weight:normal;font-size:13.21700001px;font-family:'Roboto Condensed';-inkscape-font-specification:RobotoCondensed-Regular;writing-mode:lr-tb;fill:#000000;fill-opacity:1;fill-rule:nonzero;stroke:none" transform="matrix(1,0,0,-1,754.91669,297.37)"><tspan id="tspan106" y="0" x="0 6.5291982 13.058396 19.587593 22.283861 28.813061 35.342258">200,000</tspan></text>
</g>
    </g>
    <g id="g108">
      <g clip-path="url(#clipPath112)" id="g110"><text id="text116" style="font-variant:normal;font-weight:normal;font-size:13.21700001px;font-family:'Roboto Condensed';-inkscape-font-specification:RobotoCondensed-Regular;writing-mode:lr-tb;fill:#000000;fill-opacity:1;fill-rule:nonzero;stroke:none" transform="matrix(1,0,0,-1,754.91669,326.74)"><tspan id="tspan118" y="0" x="0 6.5291982 13.058396 19.587593 22.283861 28.813061 35.342258">250,000</tspan></text>
</g>
    </g>
    <g id="g120">
      <g clip-path="url(#clipPath124)" id="g122"><text id="text128" style="font-variant:normal;font-weight:normal;font-size:13.21700001px;font-family:'Roboto Condensed';-inkscape-font-specification:RobotoCondensed-Regular;writing-mode:lr-tb;fill:#000000;fill-opacity:1;fill-rule:nonzero;stroke:none" transform="matrix(1,0,0,-1,754.91669,356.11)"><tspan id="tspan130" y="0" x="0 6.5291982 13.058396 19.587593 22.283861 28.813061 35.342258">300,000</tspan></text>
</g>
    </g>
    <g id="g132">
      <g clip-path="url(#clipPath136)" id="g134"><text id="text140" style="font-variant:normal;font-weight:normal;font-size:13.21700001px;font-family:'Roboto Condensed';-inkscape-font-specification:RobotoCondensed-Regular;writing-mode:lr-tb;fill:#000000;fill-opacity:1;fill-rule:nonzero;stroke:none" transform="matrix(1,0,0,-1,754.91669,385.48)"><tspan id="tspan142" y="0" x="0 6.5291982 13.058396 19.587593 22.283861 28.813061 35.342258">350,000</tspan></text>
</g>
    </g>
    <g id="g144">
      <g clip-path="url(#clipPath148)" id="g146"><text id="text152" style="font-variant:normal;font-weight:normal;font-size:13.21700001px;font-family:'Roboto Condensed';-inkscape-font-specification:RobotoCondensed-Regular;writing-mode:lr-tb;fill:#000000;fill-opacity:1;fill-rule:nonzero;stroke:none" transform="matrix(1,0,0,-1,754.91669,414.85)"><tspan id="tspan154" y="0" x="0 6.5291982 13.058396 19.587593 22.283861 28.813061 35.342258">400,000</tspan></text>
</g>
    </g>
    <g id="g156">
      <g clip-path="url(#clipPath160)" id="g158"><text id="text164" style="font-variant:normal;font-weight:normal;font-size:13.21700001px;font-family:'Roboto Condensed';-inkscape-font-specification:RobotoCondensed-Regular;writing-mode:lr-tb;fill:#000000;fill-opacity:1;fill-rule:nonzero;stroke:none" transform="matrix(1,0,0,-1,754.91669,444.22)"><tspan id="tspan166" y="0" x="0 6.5291982 13.058396 19.587593 22.283861 28.813061 35.342258">450,000</tspan></text>
</g>
    </g>
    <g id="g168">
      <g clip-path="url(#clipPath172)" id="g170"><text id="text176" style="font-variant:normal;font-weight:normal;font-size:13.21700001px;font-family:'Roboto Condensed';-inkscape-font-specification:RobotoCondensed-Regular;writing-mode:lr-tb;fill:#000000;fill-opacity:1;fill-rule:nonzero;stroke:none" transform="matrix(1,0,0,-1,104,179.91)"><tspan id="tspan178" y="0" x="0">0</tspan></text>
</g>
    </g>
    <g id="g180">
      <g clip-path="url(#clipPath184)" id="g182"><text id="text188" style="font-variant:normal;font-weight:normal;font-size:13.21700001px;font-family:'Roboto Condensed';-inkscape-font-specification:RobotoCondensed-Regular;writing-mode:lr-tb;fill:#000000;fill-opacity:1;fill-rule:nonzero;stroke:none" transform="matrix(1,0,0,-1,75.304,209.28)"><tspan id="tspan190" y="0" x="0 6.5291982 13.005528 15.662145 22.191343 28.667673">50,000</tspan></text>
</g>
    </g>
    <g id="g192">
      <g clip-path="url(#clipPath196)" id="g194"><text id="text200" style="font-variant:normal;font-weight:normal;font-size:13.21700001px;font-family:'Roboto Condensed';-inkscape-font-specification:RobotoCondensed-Regular;writing-mode:lr-tb;fill:#000000;fill-opacity:1;fill-rule:nonzero;stroke:none" transform="matrix(1,0,0,-1,68.761,238.63)"><tspan id="tspan202" y="0" x="0 6.5291982 13.058396 19.587593 22.244211 28.773409 35.302608">100,000</tspan></text>
</g>
    </g>
    <g id="g204">
      <g clip-path="url(#clipPath208)" id="g206"><text id="text212" style="font-variant:normal;font-weight:normal;font-size:13.21700001px;font-family:'Roboto Condensed';-inkscape-font-specification:RobotoCondensed-Regular;writing-mode:lr-tb;fill:#000000;fill-opacity:1;fill-rule:nonzero;stroke:none" transform="matrix(1,0,0,-1,68.761,268)"><tspan id="tspan214" y="0" x="0 6.5291982 13.058396 19.587593 22.244211 28.773409 35.302608">150,000</tspan></text>
</g>
    </g>
    <g id="g216">
      <g clip-path="url(#clipPath220)" id="g218"><text id="text224" style="font-variant:normal;font-weight:normal;font-size:13.21700001px;font-family:'Roboto Condensed';-inkscape-font-specification:RobotoCondensed-Regular;writing-mode:lr-tb;fill:#000000;fill-opacity:1;fill-rule:nonzero;stroke:none" transform="matrix(1,0,0,-1,68.761,297.37)"><tspan id="tspan226" y="0" x="0 6.5291982 13.058396 19.587593 22.244211 28.773409 35.302608">200,000</tspan></text>
</g>
    </g>
    <g id="g228">
      <g clip-path="url(#clipPath232)" id="g230"><text id="text236" style="font-variant:normal;font-weight:normal;font-size:13.21700001px;font-family:'Roboto Condensed';-inkscape-font-specification:RobotoCondensed-Regular;writing-mode:lr-tb;fill:#000000;fill-opacity:1;fill-rule:nonzero;stroke:none" transform="matrix(1,0,0,-1,68.761,326.74)"><tspan id="tspan238" y="0" x="0 6.5291982 13.058396 19.587593 22.244211 28.773409 35.302608">250,000</tspan></text>
</g>
    </g>
    <g id="g240">
      <g clip-path="url(#clipPath244)" id="g242"><text id="text248" style="font-variant:normal;font-weight:normal;font-size:13.21700001px;font-family:'Roboto Condensed';-inkscape-font-specification:RobotoCondensed-Regular;writing-mode:lr-tb;fill:#000000;fill-opacity:1;fill-rule:nonzero;stroke:none" transform="matrix(1,0,0,-1,68.761,356.11)"><tspan id="tspan250" y="0" x="0 6.5291982 13.058396 19.587593 22.244211 28.773409 35.302608">300,000</tspan></text>
</g>
    </g>
    <g id="g252">
      <g clip-path="url(#clipPath256)" id="g254"><text id="text260" style="font-variant:normal;font-weight:normal;font-size:13.21700001px;font-family:'Roboto Condensed';-inkscape-font-specification:RobotoCondensed-Regular;writing-mode:lr-tb;fill:#000000;fill-opacity:1;fill-rule:nonzero;stroke:none" transform="matrix(1,0,0,-1,68.761,385.48)"><tspan id="tspan262" y="0" x="0 6.5291982 13.058396 19.587593 22.244211 28.773409 35.302608">350,000</tspan></text>
</g>
    </g>
    <g id="g264">
      <g clip-path="url(#clipPath268)" id="g266"><text id="text272" style="font-variant:normal;font-weight:normal;font-size:13.21700001px;font-family:'Roboto Condensed';-inkscape-font-specification:RobotoCondensed-Regular;writing-mode:lr-tb;fill:#000000;fill-opacity:1;fill-rule:nonzero;stroke:none" transform="matrix(1,0,0,-1,68.761,414.85)"><tspan id="tspan274" y="0" x="0 6.5291982 13.058396 19.587593 22.244211 28.773409 35.302608">400,000</tspan></text>
</g>
    </g>
    <g id="g276">
      <g clip-path="url(#clipPath280)" id="g278"><text id="text284" style="font-variant:normal;font-weight:normal;font-size:13.21700001px;font-family:'Roboto Condensed';-inkscape-font-specification:RobotoCondensed-Regular;writing-mode:lr-tb;fill:#000000;fill-opacity:1;fill-rule:nonzero;stroke:none" transform="matrix(1,0,0,-1,68.761,444.22)"><tspan id="tspan286" y="0" x="0 6.5291982 13.058396 19.587593 22.244211 28.773409 35.302608">450,000</tspan></text>
</g>
    </g>
    <g id="g288">
      <g clip-path="url(#clipPath292)" id="g290"><text id="text296" style="font-variant:normal;font-weight:normal;font-size:13.21700001px;font-family:'Roboto Condensed';-inkscape-font-specification:RobotoCondensed-Regular;writing-mode:lr-tb;fill:#000000;fill-opacity:1;fill-rule:nonzero;stroke:none" transform="matrix(1,0,0,-1,153.67,162.93)"><tspan id="tspan298" y="0" x="0 6.4997978 12.999596 19.499393">2024</tspan></text>
</g>
    </g>
    <g id="g300">
      <g clip-path="url(#clipPath304)" id="g302"><text id="text308" style="font-variant:normal;font-weight:normal;font-size:13.21700001px;font-family:'Roboto Condensed';-inkscape-font-specification:RobotoCondensed-Regular;writing-mode:lr-tb;fill:#000000;fill-opacity:1;fill-rule:nonzero;stroke:none" transform="matrix(1,0,0,-1,241.83,162.93)"><tspan id="tspan310" y="0" x="0 6.5215478 13.043096 19.564644">2025</tspan></text>
</g>
    </g>
    <g id="g312">
      <g clip-path="url(#clipPath316)" id="g314"><text id="text320" style="font-variant:normal;font-weight:normal;font-size:13.21700001px;font-family:'Roboto Condensed';-inkscape-font-specification:RobotoCondensed-Regular;writing-mode:lr-tb;fill:#000000;fill-opacity:1;fill-rule:nonzero;stroke:none" transform="matrix(1,0,0,-1,326.72,162.93)"><tspan id="tspan322" y="0" x="0 6.4997978 12.999596 19.499393 25.999191">2026E</tspan></text>
</g>
    </g>
    <g id="g324">
      <g clip-path="url(#clipPath328)" id="g326"><text id="text332" style="font-variant:normal;font-weight:normal;font-size:13.21700001px;font-family:'Roboto Condensed';-inkscape-font-specification:RobotoCondensed-Regular;writing-mode:lr-tb;fill:#000000;fill-opacity:1;fill-rule:nonzero;stroke:none" transform="matrix(1,0,0,-1,414.87,162.93)"><tspan id="tspan334" y="0" x="0 6.5215478 13.043096 19.564644 26.086191">2027E</tspan></text>
</g>
    </g>
    <g id="g336">
      <g clip-path="url(#clipPath340)" id="g338"><text id="text344" style="font-variant:normal;font-weight:normal;font-size:13.21700001px;font-family:'Roboto Condensed';-inkscape-font-specification:RobotoCondensed-Regular;writing-mode:lr-tb;fill:#000000;fill-opacity:1;fill-rule:nonzero;stroke:none" transform="matrix(1,0,0,-1,503.04,162.93)"><tspan id="tspan346" y="0" x="0 6.4997978 12.999596 19.499393 25.999191">2028E</tspan></text>
</g>
    </g>
    <g id="g348">
      <g clip-path="url(#clipPath352)" id="g350"><text id="text356" style="font-variant:normal;font-weight:normal;font-size:13.21700001px;font-family:'Roboto Condensed';-inkscape-font-specification:RobotoCondensed-Regular;writing-mode:lr-tb;fill:#000000;fill-opacity:1;fill-rule:nonzero;stroke:none" transform="matrix(1,0,0,-1,591.2,162.93)"><tspan id="tspan358" y="0" x="0 6.5215478 13.043096 19.564644 26.086191">2029E</tspan></text>
</g>
    </g>
    <g id="g360">
      <g clip-path="url(#clipPath364)" id="g362"><text id="text368" style="font-variant:normal;font-weight:normal;font-size:13.21700001px;font-family:'Roboto Condensed';-inkscape-font-specification:RobotoCondensed-Regular;writing-mode:lr-tb;fill:#000000;fill-opacity:1;fill-rule:nonzero;stroke:none" transform="matrix(1,0,0,-1,679.37,162.93)"><tspan id="tspan370" y="0" x="0 6.4997978 12.999596 19.499393 25.999191">2030E</tspan></text>
</g>
    </g>
    <g id="g372">
      <g clip-path="url(#clipPath376)" id="g374"><text id="text380" style="font-style:italic;font-variant:normal;font-weight:bold;font-size:13.21700001px;font-family:'Roboto Condensed';-inkscape-font-specification:RobotoCondensed-BoldItalic;writing-mode:lr-tb;fill:#000000;fill-opacity:1;fill-rule:nonzero;stroke:none" transform="matrix(1,0,0,-1,70.022,464.02)"><tspan id="tspan382" y="0" x="0 7.4676051 14.353662 17.380356 23.935987 33.505096">US $mn</tspan></text>
</g>
    </g>
    <path id="path384" style="fill:#ffffff;fill-opacity:1;fill-rule:evenodd;stroke:none" d="m 305.25,474.42 250.41,0 0,24.508 -250.41,0 0,-24.508 z"/>
    <path id="path386" style="fill:#005aa4;fill-opacity:1;fill-rule:evenodd;stroke:none" d="m 320.36,483.11 7.1358,0 0,7.1358 -7.1358,0 0,-7.1358 z"/>
    <g id="g388">
      <g clip-path="url(#clipPath392)" id="g390"><text id="text396" style="font-variant:normal;font-weight:normal;font-size:13.21700001px;font-family:'Roboto Condensed';-inkscape-font-specification:RobotoCondensed-Regular;writing-mode:lr-tb;fill:#000000;fill-opacity:1;fill-rule:nonzero;stroke:none" transform="matrix(1,0,0,-1,330.57,482.59)"><tspan id="tspan398" y="0" x="0 3.2645991 9.7673626 13.785331 20.103058 24.121025 30.253714 36.756477 42.69091">Inference</tspan></text>
</g>
    </g>
    <path id="path400" style="fill:#c6d9f1;fill-opacity:1;fill-rule:evenodd;stroke:none" d="m 394.03,483.11 7.1358,0 0,7.1358 -7.1358,0 0,-7.1358 z"/>
    <g id="g402">
      <g clip-path="url(#clipPath406)" id="g404"><text id="text410" style="font-variant:normal;font-weight:normal;font-size:13.21700001px;font-family:'Roboto Condensed';-inkscape-font-specification:RobotoCondensed-Regular;writing-mode:lr-tb;fill:#000000;fill-opacity:1;fill-rule:nonzero;stroke:none" transform="matrix(1,0,0,-1,404.24,482.59)"><tspan id="tspan412" y="0" x="0 6.3441601 12.675103 18.768141 22.614286 25.64098 28.733759 35.064701 39.267708 45.400394 49.418362 55.551052 62.053814 68.160072">Fast inference</tspan></text>
</g>
    </g>
    <path id="path414" style="fill:#226b5a;fill-opacity:1;fill-rule:evenodd;stroke:none" d="m 493.05,483.11 7.1358,0 0,7.1358 -7.1358,0 0,-7.1358 z"/>
    <g id="g416">
      <g clip-path="url(#clipPath420)" id="g418"><text id="text424" style="font-variant:normal;font-weight:normal;font-size:13.21700001px;font-family:'Roboto Condensed';-inkscape-font-specification:RobotoCondensed-Regular;writing-mode:lr-tb;fill:#000000;fill-opacity:1;fill-rule:nonzero;stroke:none" transform="matrix(1,0,0,-1,503.28,482.59)"><tspan id="tspan426" y="0" x="0 6.8860569 10.904025 17.234968 20.288095 26.619038 29.645731 36.042759">Training</tspan></text>
</g>
    </g>
  </g>
</svg>
