<?xml version="1.0" encoding="UTF-8" standalone="no"?>
<svg xmlns:dc="http://purl.org/dc/elements/1.1/" xmlns:cc="http://creativecommons.org/ns#" xmlns:rdf="http://www.w3.org/1999/02/22-rdf-syntax-ns#" xmlns:svg="http://www.w3.org/2000/svg" xmlns="http://www.w3.org/2000/svg" viewBox="63 377.85 639.00125 234.15" height="234.15" width="639.00125" xml:space="preserve" version="1.1" id="svg2">
  <metadata id="metadata8">
    <rdf:RDF>
      <cc:Work rdf:about="">
        <dc:format>image/svg+xml</dc:format>
        <dc:type rdf:resource="http://purl.org/dc/dcmitype/StillImage"/>
      </cc:Work>
    </rdf:RDF>
  </metadata>
  <defs id="defs6">
    <clipPath id="clipPath16" clipPathUnits="userSpaceOnUse">
      <path style="clip-rule:evenodd" id="path18" d="m 50.399,302.4 511.2,0 0,187.32 -511.2,0 0,-187.32 z"/>
    </clipPath>
    <clipPath id="clipPath26" clipPathUnits="userSpaceOnUse">
      <path style="clip-rule:evenodd" id="path28" d="m 50.4,302.4 511.2,0 0,187.32 -511.2,0 0,-187.32 z"/>
    </clipPath>
    <clipPath id="clipPath42" clipPathUnits="userSpaceOnUse">
      <path style="clip-rule:evenodd" id="path44" d="m 83.268,318.24 451.2,0 0,152.2 -451.2,0 0,-152.2 z"/>
    </clipPath>
    <clipPath id="clipPath52" clipPathUnits="userSpaceOnUse">
      <path style="clip-rule:evenodd" id="path54" d="m 83.268,318.24 451.2,0 0,152.2 -451.2,0 0,-152.2 z"/>
    </clipPath>
    <clipPath id="clipPath62" clipPathUnits="userSpaceOnUse">
      <path style="clip-rule:evenodd" id="path64" d="m 83.268,318.24 451.2,0 0,152.2 -451.2,0 0,-152.2 z"/>
    </clipPath>
    <clipPath id="clipPath72" clipPathUnits="userSpaceOnUse">
      <path style="clip-rule:evenodd" id="path74" d="m 50.52,302.4 511.08,0 0,187.2 -511.08,0 0,-187.2 z"/>
    </clipPath>
    <clipPath id="clipPath84" clipPathUnits="userSpaceOnUse">
      <path style="clip-rule:evenodd" id="path86" d="m 50.52,302.4 511.08,0 0,187.2 -511.08,0 0,-187.2 z"/>
    </clipPath>
    <clipPath id="clipPath96" clipPathUnits="userSpaceOnUse">
      <path style="clip-rule:evenodd" id="path98" d="m 50.52,302.4 511.08,0 0,187.2 -511.08,0 0,-187.2 z"/>
    </clipPath>
    <clipPath id="clipPath108" clipPathUnits="userSpaceOnUse">
      <path style="clip-rule:evenodd" id="path110" d="m 50.52,302.4 511.08,0 0,187.2 -511.08,0 0,-187.2 z"/>
    </clipPath>
    <clipPath id="clipPath120" clipPathUnits="userSpaceOnUse">
      <path style="clip-rule:evenodd" id="path122" d="m 50.52,302.4 511.08,0 0,187.2 -511.08,0 0,-187.2 z"/>
    </clipPath>
    <clipPath id="clipPath132" clipPathUnits="userSpaceOnUse">
      <path style="clip-rule:evenodd" id="path134" d="m 50.52,302.4 511.08,0 0,187.2 -511.08,0 0,-187.2 z"/>
    </clipPath>
    <clipPath id="clipPath144" clipPathUnits="userSpaceOnUse">
      <path style="clip-rule:evenodd" id="path146" d="m 50.52,302.4 511.08,0 0,187.2 -511.08,0 0,-187.2 z"/>
    </clipPath>
    <clipPath id="clipPath156" clipPathUnits="userSpaceOnUse">
      <path style="clip-rule:evenodd" id="path158" d="m 50.52,302.4 511.08,0 0,187.2 -511.08,0 0,-187.2 z"/>
    </clipPath>
    <clipPath id="clipPath168" clipPathUnits="userSpaceOnUse">
      <path style="clip-rule:evenodd" id="path170" d="m 50.52,302.4 511.08,0 0,187.2 -511.08,0 0,-187.2 z"/>
    </clipPath>
    <clipPath id="clipPath180" clipPathUnits="userSpaceOnUse">
      <path style="clip-rule:evenodd" id="path182" d="m 50.52,302.4 511.08,0 0,187.2 -511.08,0 0,-187.2 z"/>
    </clipPath>
    <clipPath id="clipPath192" clipPathUnits="userSpaceOnUse">
      <path style="clip-rule:evenodd" id="path194" d="m 50.52,302.4 511.08,0 0,187.2 -511.08,0 0,-187.2 z"/>
    </clipPath>
    <clipPath id="clipPath204" clipPathUnits="userSpaceOnUse">
      <path style="clip-rule:evenodd" id="path206" d="m 50.52,302.4 511.08,0 0,187.2 -511.08,0 0,-187.2 z"/>
    </clipPath>
    <clipPath id="clipPath216" clipPathUnits="userSpaceOnUse">
      <path style="clip-rule:evenodd" id="path218" d="m 50.52,302.4 511.08,0 0,187.2 -511.08,0 0,-187.2 z"/>
    </clipPath>
    <clipPath id="clipPath228" clipPathUnits="userSpaceOnUse">
      <path style="clip-rule:evenodd" id="path230" d="m 50.52,302.4 511.08,0 0,187.2 -511.08,0 0,-187.2 z"/>
    </clipPath>
    <clipPath id="clipPath240" clipPathUnits="userSpaceOnUse">
      <path style="clip-rule:evenodd" id="path242" d="m 50.52,302.4 511.08,0 0,187.2 -511.08,0 0,-187.2 z"/>
    </clipPath>
    <clipPath id="clipPath252" clipPathUnits="userSpaceOnUse">
      <path style="clip-rule:evenodd" id="path254" d="m 50.52,302.4 511.08,0 0,187.2 -511.08,0 0,-187.2 z"/>
    </clipPath>
    <clipPath id="clipPath264" clipPathUnits="userSpaceOnUse">
      <path style="clip-rule:evenodd" id="path266" d="m 50.52,302.4 511.08,0 0,187.2 -511.08,0 0,-187.2 z"/>
    </clipPath>
    <clipPath id="clipPath276" clipPathUnits="userSpaceOnUse">
      <path style="clip-rule:evenodd" id="path278" d="m 50.52,302.4 511.08,0 0,187.2 -511.08,0 0,-187.2 z"/>
    </clipPath>
    <clipPath id="clipPath288" clipPathUnits="userSpaceOnUse">
      <path style="clip-rule:evenodd" id="path290" d="m 50.52,302.4 511.08,0 0,187.2 -511.08,0 0,-187.2 z"/>
    </clipPath>
    <clipPath id="clipPath300" clipPathUnits="userSpaceOnUse">
      <path style="clip-rule:evenodd" id="path302" d="m 50.52,302.4 511.08,0 0,187.2 -511.08,0 0,-187.2 z"/>
    </clipPath>
    <clipPath id="clipPath312" clipPathUnits="userSpaceOnUse">
      <path style="clip-rule:evenodd" id="path314" d="m 50.52,302.4 511.08,0 0,187.2 -511.08,0 0,-187.2 z"/>
    </clipPath>
    <clipPath id="clipPath324" clipPathUnits="userSpaceOnUse">
      <path style="clip-rule:evenodd" id="path326" d="m 50.52,302.4 511.08,0 0,187.2 -511.08,0 0,-187.2 z"/>
    </clipPath>
    <clipPath id="clipPath336" clipPathUnits="userSpaceOnUse">
      <path style="clip-rule:evenodd" id="path338" d="m 50.52,302.4 511.08,0 0,187.2 -511.08,0 0,-187.2 z"/>
    </clipPath>
    <clipPath id="clipPath348" clipPathUnits="userSpaceOnUse">
      <path style="clip-rule:evenodd" id="path350" d="m 50.52,302.4 511.08,0 0,187.2 -511.08,0 0,-187.2 z"/>
    </clipPath>
    <clipPath id="clipPath360" clipPathUnits="userSpaceOnUse">
      <path style="clip-rule:evenodd" id="path362" d="m 50.52,302.4 511.08,0 0,187.2 -511.08,0 0,-187.2 z"/>
    </clipPath>
    <clipPath id="clipPath372" clipPathUnits="userSpaceOnUse">
      <path style="clip-rule:evenodd" id="path374" d="m 50.52,302.4 511.08,0 0,187.2 -511.08,0 0,-187.2 z"/>
    </clipPath>
    <clipPath id="clipPath384" clipPathUnits="userSpaceOnUse">
      <path style="clip-rule:evenodd" id="path386" d="m 50.52,302.4 511.08,0 0,187.2 -511.08,0 0,-187.2 z"/>
    </clipPath>
    <clipPath id="clipPath396" clipPathUnits="userSpaceOnUse">
      <path style="clip-rule:evenodd" id="path398" d="m 50.52,302.4 511.08,0 0,187.2 -511.08,0 0,-187.2 z"/>
    </clipPath>
    <clipPath id="clipPath408" clipPathUnits="userSpaceOnUse">
      <path style="clip-rule:evenodd" id="path410" d="m 50.52,302.4 511.08,0 0,187.2 -511.08,0 0,-187.2 z"/>
    </clipPath>
    <clipPath id="clipPath420" clipPathUnits="userSpaceOnUse">
      <path style="clip-rule:evenodd" id="path422" d="m 50.52,302.4 511.08,0 0,187.2 -511.08,0 0,-187.2 z"/>
    </clipPath>
    <clipPath id="clipPath432" clipPathUnits="userSpaceOnUse">
      <path style="clip-rule:evenodd" id="path434" d="m 50.52,302.4 511.08,0 0,187.2 -511.08,0 0,-187.2 z"/>
    </clipPath>
    <clipPath id="clipPath444" clipPathUnits="userSpaceOnUse">
      <path style="clip-rule:evenodd" id="path446" d="m 50.52,302.4 511.08,0 0,187.2 -511.08,0 0,-187.2 z"/>
    </clipPath>
    <clipPath id="clipPath460" clipPathUnits="userSpaceOnUse">
      <path style="clip-rule:evenodd" id="path462" d="m 50.52,302.4 511.08,0 0,187.2 -511.08,0 0,-187.2 z"/>
    </clipPath>
    <clipPath id="clipPath474" clipPathUnits="userSpaceOnUse">
      <path style="clip-rule:evenodd" id="path476" d="m 50.52,302.4 511.08,0 0,187.2 -511.08,0 0,-187.2 z"/>
    </clipPath>
    <clipPath id="clipPath488" clipPathUnits="userSpaceOnUse">
      <path style="clip-rule:evenodd" id="path490" d="m 50.52,302.4 511.08,0 0,187.2 -511.08,0 0,-187.2 z"/>
    </clipPath>
  </defs>
  <g transform="matrix(1.25,0,0,-1.25,0,990)" id="g10">
    <g id="g12">
      <g clip-path="url(#clipPath16)" id="g14">
        <path id="path20" style="fill:none;stroke:#000000;stroke-width:0.14;stroke-linecap:butt;stroke-linejoin:miter;stroke-miterlimit:10;stroke-dasharray:none;stroke-opacity:0" d="m 50.448,302.31 511.16,0 0,187.35 -511.16,0 0,-187.35 z"/>
      </g>
    </g>
    <g id="g22">
      <g clip-path="url(#clipPath26)" id="g24">
        <path id="path30" style="fill:#ffffff;fill-opacity:1;fill-rule:evenodd;stroke:none" d="m 50.448,302.31 511.16,0 0,187.35 -511.16,0 0,-187.35 z"/>
      </g>
    </g>
    <path id="path32" style="fill:none;stroke:#868686;stroke-width:0.38883001;stroke-linecap:round;stroke-linejoin:round;stroke-miterlimit:10;stroke-dasharray:none;stroke-opacity:1" d="m 533.93,318.81 0,151.61"/>
    <path id="path34" style="fill:none;stroke:#868686;stroke-width:0.38883001;stroke-linecap:round;stroke-linejoin:round;stroke-miterlimit:10;stroke-dasharray:none;stroke-opacity:1" d="m 533.93,318.81 2.22,0 m -2.22,21.64 2.22,0 m -2.22,21.65 2.22,0 m -2.22,21.65 2.22,0 m -2.22,21.65 2.22,0 m -2.22,21.74 2.22,0 m -2.22,21.65 2.22,0 m -2.22,21.63 2.22,0"/>
    <path id="path36" style="fill:none;stroke:#808080;stroke-width:0.97206998;stroke-linecap:round;stroke-linejoin:round;stroke-miterlimit:10;stroke-dasharray:none;stroke-opacity:1" d="m 83.301,352.5 450.629,0"/>
    <g id="g38">
      <g clip-path="url(#clipPath42)" id="g40">
        <path id="path46" style="fill:none;stroke:#005aa4;stroke-width:1.16649997;stroke-linecap:round;stroke-linejoin:round;stroke-miterlimit:10;stroke-dasharray:none;stroke-opacity:1" d="m 83.348,359.58 2.907,-4.39 2.613,1.68 2.893,4.3 2.799,-1.59 2.986,2.89 2.804,8.03 2.89,-2.61 2.89,2.42 2.8,-4.01 2.89,0.28 2.8,2.15 2.99,-0.28 2.89,6.81 2.62,-12.69 2.89,-1.68 2.8,1.68 2.89,0.84 2.8,-1.12 2.89,1.96 2.99,-1.22 2.8,2.06 2.89,2.05 2.8,-7.93 2.89,-0.47 2.9,-1.68 2.61,-0.75 2.99,-2.33 2.8,1.96 2.89,-5.22 2.8,-2.15 2.89,3.26 2.89,-2.05 2.8,-2.24 2.99,-1.77 2.8,-4.2 2.89,1.4 2.9,-1.77 2.7,3.64 2.89,-1.22 2.8,1.31 2.99,3.55 2.8,2.89 2.89,-2.52 2.9,2.15 2.8,4.47 2.89,2.52 2.8,16.15 2.98,-2.71 2.9,4.67 2.61,2.89 2.89,3.64 2.8,-7.47 2.9,6.44 2.79,0 2.9,-0.84 2.98,1.03 2.9,-4.48 2.89,-0.65 2.89,-0.1 2.9,-2.8 2.89,-0.93 2.89,-0.09 2.99,-2.15 2.89,1.22 2.89,-3.74 2.9,-4.48 2.89,1.22 2.89,2.24 2.89,-8.96 2.99,0.37 2.89,-13.06 2.9,-3.36 2.89,1.86 2.89,-0.09 2.9,-8.21 2.89,5.32 2.98,-0.94 2.9,-2.7 2.89,1.02 2.89,-0.37 2.9,0.84 2.89,0.75 2.89,6.9 2.99,0.28 2.89,0.1 2.89,3.82 2.9,11.29 2.89,-8.21 2.89,1.77 2.89,-2.05 2.99,2.43 2.89,2.7 2.9,-3.08 2.89,0.75 2.89,-6.81 2.9,17.08 2.89,-4.3 2.98,-1.4 2.9,6.82 2.89,-2.43 2.89,-0.19 2.9,10.83 2.89,-1.78 2.89,-13.9 2.99,5.97 2.89,4.2 2.89,11.11 2.9,-24.64 1.96,10.17 2.89,-6.34 2.89,-7.66 2.9,6.72 2.98,-16.05 2.89,-2.98 2.9,0.09 2.89,4.01 2.89,-7.18 2.9,-3.18 2.89,2.8 2.98,-4.66 2.9,-2.27 2.89,4.97 2.89,-4.1 2.9,-0.56 2.8,16.8 2.89,-7.38 2.98,-2.52 2.8,16.33 2.9,-0.56 2.8,7.75 2.89,17.64 2.89,-3.83 2.52,15.87 2.99,-14.84 2.89,1.86 2.89,26.88 2.9,-28.09 2.89,7.19 2.89,31.35 2.8,-44.42 2.99,3.92 2.8,12.6 2.8,-22.86 2.89,7.93 2.71,-5.13 2.8,1.77 2.8,9.05 2.89,-13.62 2.8,-0.84 2.8,8.68 2.8,-6.72 2.8,8.49 2.8,8.3 2.8,-2.42 2.8,1.21 3.54,31.08 2.59,38.35"/>
      </g>
    </g>
    <g id="g48">
      <g clip-path="url(#clipPath52)" id="g50">
        <path id="path56" style="fill:none;stroke:#eadfbc;stroke-width:1.16649997;stroke-linecap:round;stroke-linejoin:round;stroke-miterlimit:10;stroke-dasharray:none;stroke-opacity:1" d="m 83.348,354.73 2.907,-2.43 2.613,-1.21 2.893,-3.17 2.799,11.57 2.986,5.22 2.804,6.91 2.89,-10.83 2.89,-3.08 2.8,-1.58 2.89,-7.65 2.8,-0.47 2.99,5.88 2.89,2.24 2.62,-2.9 2.89,-3.45 2.8,0.38 2.89,2.33 2.8,-0.1 2.89,1.4 2.99,-0.84 2.8,2.06 2.89,1.68 2.8,-1.31 2.89,2.61 2.9,-6.16 2.61,4.67 2.99,2.24 2.8,-1.59 2.89,-5.32 2.8,-3.63 2.89,1.86 2.89,3.45 2.8,-1.58 2.99,2.89 2.8,-6.34 2.89,2.52 2.9,2.14 2.7,-3.82 2.89,0.18 2.8,0.56 2.99,3.45 2.8,4.39 2.89,-0.19 2.9,-1.4 2.8,4.3 2.89,2.14 2.8,12.6 2.98,-11.85 2.9,2.33 2.61,3.92 2.89,1.68 2.8,-1.21 2.9,3.26 2.79,-3.35 2.9,1.12 2.98,-4.02 2.9,4.11 2.89,-3.36 2.89,-5.69 2.9,5.5 2.89,-3.45 2.89,-0.37 2.99,-2.34 2.89,0.94 2.89,0 2.9,-5.51 2.89,-1.21 2.89,6.06 2.89,-11.1 2.99,-1.87 2.89,-5.88 2.9,-3.17 2.89,3.36 2.89,-0.93 2.9,-1.5 2.89,0.75 2.98,-0.47 2.9,0.66 2.89,2.8 2.89,-4.02 2.9,6.54 2.89,3.26 2.89,6.35 2.99,13.44 2.89,-7.66 2.89,1.68 2.9,-2.8 2.89,4.2 2.89,-4.01 2.89,-1.68 2.99,1.4 2.89,1.68 2.9,-10.45 2.89,-0.94 2.89,2.62 2.9,-7 2.89,3.64 2.98,0.19 2.9,5.13 2.89,-0.66 2.89,1.87 2.9,4.01 2.89,-0.84 2.89,-5.13 2.99,0.37 2.89,13.35 2.89,-3.08 2.9,-8.49 1.96,6.62 2.89,-2.98 2.89,-2.34 2.9,-0.93 2.98,-9.7 2.89,-10.08 2.9,0.28 2.89,4.38 2.89,-0.56 2.9,-6.81 2.89,0.37 2.98,-4.1 2.9,-0.75 2.89,7 2.89,-1.03 2.9,0 2.8,13.63 2.89,3.92 2.98,-4.11 2.8,-1.21 2.9,8.02 2.8,4.76 2.89,6.72 2.89,33.5 2.52,-4.66 2.99,-21.56 2.89,12.97 2.89,-4.1 2.9,-9.06 2.89,7.38 2.89,11.47 2.8,-15.86 2.99,-11.66 2.8,11.19 2.8,-9.05 2.89,-16.98 2.71,1.68 2.8,-7.75 2.8,-0.65 2.89,4.67 2.8,-2.34 2.8,0.56 2.8,0.19 2.8,8.49 2.8,2.43 2.8,1.96 2.8,4.66 3.54,34.81 2.59,24.76"/>
      </g>
    </g>
    <g id="g58">
      <g clip-path="url(#clipPath62)" id="g60">
        <path id="path66" style="fill:none;stroke:#226b5a;stroke-width:1.16649997;stroke-linecap:round;stroke-linejoin:round;stroke-miterlimit:10;stroke-dasharray:none;stroke-opacity:1" d="m 83.348,370.41 2.907,-12.42 2.613,3.36 2.893,-0.56 2.799,7.75 2.986,-4.48 2.804,6.72 2.89,3.73 2.89,-6.16 2.8,-0.46 2.89,3.82 2.8,0.19 2.99,-0.84 2.89,12.78 2.62,-14.09 2.89,1.78 2.8,1.77 2.89,1.4 2.8,-3.36 2.89,1.58 2.99,-1.86 2.8,2.7 2.89,-1.12 2.8,-2.23 2.89,1.4 2.9,-6.54 2.61,3.36 2.99,-1.21 2.8,-1.68 2.89,-5.41 2.8,-2.9 2.89,2.99 2.89,-1.12 2.8,-0.37 2.99,-0.56 2.8,-5.98 2.89,4.58 2.9,1.02 2.7,-4.38 2.89,1.77 2.8,-1.77 2.99,4.94 2.8,7.47 2.89,0.19 2.9,-0.28 2.8,4.85 2.89,3.54 2.8,7.1 2.98,-5.51 2.9,6.91 2.61,3.36 2.89,-0.47 2.8,3.55 2.9,-0.84 2.79,-1.59 2.9,2.05 2.98,-5.78 2.9,2.7 2.89,1.59 2.89,-1.12 2.9,0.37 2.89,-5.13 2.89,2.15 2.99,2.33 2.89,-1.49 2.89,-2.06 2.9,-6.53 2.89,-0.09 2.89,5.13 2.89,-11.85 2.99,-3.27 2.89,-12.04 2.9,-5.69 2.89,1.68 2.89,-0.46 2.9,-6.63 2.89,3.83 2.98,-2.62 2.9,3.46 2.89,2.7 2.89,-3.08 2.9,5.51 2.89,1.12 2.89,9.8 2.99,6.34 2.89,0.38 2.89,-1.31 2.9,-2.15 2.89,-1.02 2.89,4.2 2.89,-2.8 2.99,-0.19 2.89,4.01 2.9,0 2.89,3.83 2.89,-2.8 2.9,11.38 2.89,-3.82 2.98,1.96 2.9,15.58 2.89,-2.71 2.89,-3.91 2.9,5.78 2.89,0 2.89,-11.57 2.99,-0.37 2.89,10.91 2.89,2.24 2.9,-16.51 1.96,13.06 2.89,-6.72 2.89,-10.82 2.9,7.46 2.98,-14.83 2.89,-8.31 2.9,-3.27 2.89,2.52 2.89,-4.2 2.9,-13.34 2.89,0.19 2.98,-2.24 2.9,-4.38 2.89,4.94 2.89,-0.56 2.9,-1.96 2.8,17.07 2.89,-1.21 2.98,0.28 2.8,7.93 2.9,5.42 2.8,6.9 2.89,8.4 2.89,-1.4 2.52,-0.75 2.99,1.22 2.89,-1.68 2.89,6.34 2.9,-7.18 2.89,2.52 2.89,10.73 2.8,-5.23 2.99,-8.21 2.8,7.75 2.8,-8.4 2.89,-0.75 2.71,6.44 2.8,-2.15 2.8,4.58 2.89,-4.86 2.8,-0.46 2.8,8.58 2.8,-4.57 2.8,6.25 2.8,5.88 2.8,4.11 2.8,4.85 3.54,18.29 2.59,30.11"/>
      </g>
    </g>
    <g id="g68">
      <g clip-path="url(#clipPath72)" id="g70"><text id="text76" style="font-variant:normal;font-weight:normal;font-size:6.98400021px;font-family:'Roboto Condensed';-inkscape-font-specification:RobotoCondensed-Regular;writing-mode:lr-tb;fill:#000000;fill-opacity:1;fill-rule:nonzero;stroke:none" transform="matrix(1,0,0,-1,540.43,316.66)"><tspan id="tspan78" y="0" x="0 1.766952 5.2170482 8.6671438 10.455048 13.905144">-40.0%</tspan></text>
</g>
    </g>
    <g id="g80">
      <g clip-path="url(#clipPath84)" id="g82"><text id="text88" style="font-variant:normal;font-weight:normal;font-size:7.0079999px;font-family:'Roboto Condensed';-inkscape-font-specification:RobotoCondensed-Regular;writing-mode:lr-tb;fill:#000000;fill-opacity:1;fill-rule:nonzero;stroke:none" transform="matrix(1,0,0,-1,540.43,338.33)"><tspan id="tspan90" y="0" x="0 1.766016 5.2279682 8.6899204 10.455936 13.917888">-20.0%</tspan></text>
</g>
    </g>
    <g id="g92">
      <g clip-path="url(#clipPath96)" id="g94"><text id="text100" style="font-variant:normal;font-weight:normal;font-size:7.0079999px;font-family:'Roboto Condensed';-inkscape-font-specification:RobotoCondensed-Regular;writing-mode:lr-tb;fill:#000000;fill-opacity:1;fill-rule:nonzero;stroke:none" transform="matrix(1,0,0,-1,540.43,360)"><tspan id="tspan102" y="0" x="0 3.461952 5.3190718 8.781024">0.0%</tspan></text>
</g>
    </g>
    <g id="g104">
      <g clip-path="url(#clipPath108)" id="g106"><text id="text112" style="font-variant:normal;font-weight:normal;font-size:7.0079999px;font-family:'Roboto Condensed';-inkscape-font-specification:RobotoCondensed-Regular;writing-mode:lr-tb;fill:#000000;fill-opacity:1;fill-rule:nonzero;stroke:none" transform="matrix(1,0,0,-1,540.43,381.65)"><tspan id="tspan114" y="0" x="0 3.461952 6.9239039 8.7670078 12.22896">20.0%</tspan></text>
</g>
    </g>
    <g id="g116">
      <g clip-path="url(#clipPath120)" id="g118"><text id="text124" style="font-variant:normal;font-weight:normal;font-size:7.0079999px;font-family:'Roboto Condensed';-inkscape-font-specification:RobotoCondensed-Regular;writing-mode:lr-tb;fill:#000000;fill-opacity:1;fill-rule:nonzero;stroke:none" transform="matrix(1,0,0,-1,540.43,403.32)"><tspan id="tspan126" y="0" x="0 3.461952 6.9239039 8.7670078 12.22896">40.0%</tspan></text>
</g>
    </g>
    <g id="g128">
      <g clip-path="url(#clipPath132)" id="g130"><text id="text136" style="font-variant:normal;font-weight:normal;font-size:7.0079999px;font-family:'Roboto Condensed';-inkscape-font-specification:RobotoCondensed-Regular;writing-mode:lr-tb;fill:#000000;fill-opacity:1;fill-rule:nonzero;stroke:none" transform="matrix(1,0,0,-1,540.43,424.97)"><tspan id="tspan138" y="0" x="0 3.461952 6.9239039 8.7670078 12.22896">60.0%</tspan></text>
</g>
    </g>
    <g id="g140">
      <g clip-path="url(#clipPath144)" id="g142"><text id="text148" style="font-variant:normal;font-weight:normal;font-size:7.0079999px;font-family:'Roboto Condensed';-inkscape-font-specification:RobotoCondensed-Regular;writing-mode:lr-tb;fill:#000000;fill-opacity:1;fill-rule:nonzero;stroke:none" transform="matrix(1,0,0,-1,540.43,446.64)"><tspan id="tspan150" y="0" x="0 3.461952 6.9239039 8.7670078 12.22896">80.0%</tspan></text>
</g>
    </g>
    <g id="g152">
      <g clip-path="url(#clipPath156)" id="g154"><text id="text160" style="font-variant:normal;font-weight:normal;font-size:7.0079999px;font-family:'Roboto Condensed';-inkscape-font-specification:RobotoCondensed-Regular;writing-mode:lr-tb;fill:#000000;fill-opacity:1;fill-rule:nonzero;stroke:none" transform="matrix(1,0,0,-1,540.43,468.29)"><tspan id="tspan162" y="0" x="0 3.461952 6.9239039 10.385856 12.22896 15.690912">100.0%</tspan></text>
</g>
    </g>
    <g id="g164">
      <g clip-path="url(#clipPath168)" id="g166"><text id="text172" style="font-variant:normal;font-weight:normal;font-size:6.98400021px;font-family:'Roboto Condensed';-inkscape-font-specification:RobotoCondensed-Regular;writing-mode:lr-tb;fill:#000000;fill-opacity:1;fill-rule:nonzero;stroke:none" transform="matrix(1,0,0,-1,60.36,316.66)"><tspan id="tspan174" y="0" x="0 1.766952 5.2170482 8.6671438 12.11724">-100%</tspan></text>
</g>
    </g>
    <g id="g176">
      <g clip-path="url(#clipPath180)" id="g178"><text id="text184" style="font-variant:normal;font-weight:normal;font-size:6.98400021px;font-family:'Roboto Condensed';-inkscape-font-specification:RobotoCondensed-Regular;writing-mode:lr-tb;fill:#000000;fill-opacity:1;fill-rule:nonzero;stroke:none" transform="matrix(1,0,0,-1,63.816,333.5)"><tspan id="tspan186" y="0" x="0 1.766952 5.2170482 8.6671438">-50%</tspan></text>
</g>
    </g>
    <g id="g188">
      <g clip-path="url(#clipPath192)" id="g190"><text id="text196" style="font-variant:normal;font-weight:normal;font-size:6.98400021px;font-family:'Roboto Condensed';-inkscape-font-specification:RobotoCondensed-Regular;writing-mode:lr-tb;fill:#000000;fill-opacity:1;fill-rule:nonzero;stroke:none" transform="matrix(1,0,0,-1,69.024,350.35)"><tspan id="tspan198" y="0" x="0 3.455996">0%</tspan></text>
</g>
    </g>
    <g id="g200">
      <g clip-path="url(#clipPath204)" id="g202"><text id="text208" style="font-variant:normal;font-weight:normal;font-size:6.98400021px;font-family:'Roboto Condensed';-inkscape-font-specification:RobotoCondensed-Regular;writing-mode:lr-tb;fill:#000000;fill-opacity:1;fill-rule:nonzero;stroke:none" transform="matrix(1,0,0,-1,65.568,367.2)"><tspan id="tspan210" y="0" x="0 3.455996 6.9119921">50%</tspan></text>
</g>
    </g>
    <g id="g212">
      <g clip-path="url(#clipPath216)" id="g214"><text id="text220" style="font-variant:normal;font-weight:normal;font-size:6.98400021px;font-family:'Roboto Condensed';-inkscape-font-specification:RobotoCondensed-Regular;writing-mode:lr-tb;fill:#000000;fill-opacity:1;fill-rule:nonzero;stroke:none" transform="matrix(1,0,0,-1,62.112,384.05)"><tspan id="tspan222" y="0" x="0 3.4319961 6.8639922 10.295988">100%</tspan></text>
</g>
    </g>
    <g id="g224">
      <g clip-path="url(#clipPath228)" id="g226"><text id="text232" style="font-variant:normal;font-weight:normal;font-size:6.98400021px;font-family:'Roboto Condensed';-inkscape-font-specification:RobotoCondensed-Regular;writing-mode:lr-tb;fill:#000000;fill-opacity:1;fill-rule:nonzero;stroke:none" transform="matrix(1,0,0,-1,62.112,400.9)"><tspan id="tspan234" y="0" x="0 3.4319961 6.8639922 10.295988">150%</tspan></text>
</g>
    </g>
    <g id="g236">
      <g clip-path="url(#clipPath240)" id="g238"><text id="text244" style="font-variant:normal;font-weight:normal;font-size:6.98400021px;font-family:'Roboto Condensed';-inkscape-font-specification:RobotoCondensed-Regular;writing-mode:lr-tb;fill:#000000;fill-opacity:1;fill-rule:nonzero;stroke:none" transform="matrix(1,0,0,-1,62.112,417.74)"><tspan id="tspan246" y="0" x="0 3.4319961 6.8639922 10.295988">200%</tspan></text>
</g>
    </g>
    <g id="g248">
      <g clip-path="url(#clipPath252)" id="g250"><text id="text256" style="font-variant:normal;font-weight:normal;font-size:6.98400021px;font-family:'Roboto Condensed';-inkscape-font-specification:RobotoCondensed-Regular;writing-mode:lr-tb;fill:#000000;fill-opacity:1;fill-rule:nonzero;stroke:none" transform="matrix(1,0,0,-1,62.112,434.59)"><tspan id="tspan258" y="0" x="0 3.4319961 6.8639922 10.295988">250%</tspan></text>
</g>
    </g>
    <g id="g260">
      <g clip-path="url(#clipPath264)" id="g262"><text id="text268" style="font-variant:normal;font-weight:normal;font-size:6.98400021px;font-family:'Roboto Condensed';-inkscape-font-specification:RobotoCondensed-Regular;writing-mode:lr-tb;fill:#000000;fill-opacity:1;fill-rule:nonzero;stroke:none" transform="matrix(1,0,0,-1,62.112,451.44)"><tspan id="tspan270" y="0" x="0 3.4319961 6.8639922 10.295988">300%</tspan></text>
</g>
    </g>
    <g id="g272">
      <g clip-path="url(#clipPath276)" id="g274"><text id="text280" style="font-variant:normal;font-weight:normal;font-size:7.0079999px;font-family:'Roboto Condensed';-inkscape-font-specification:RobotoCondensed-Regular;writing-mode:lr-tb;fill:#000000;fill-opacity:1;fill-rule:nonzero;stroke:none" transform="matrix(1,0,0,-1,62.112,468.29)"><tspan id="tspan282" y="0" x="0 3.431952 6.863904 10.295856">350%</tspan></text>
</g>
    </g>
    <g id="g284">
      <g clip-path="url(#clipPath288)" id="g286"><text id="text292" style="font-variant:normal;font-weight:normal;font-size:7.0079999px;font-family:'Roboto Condensed';-inkscape-font-specification:RobotoCondensed-Regular;writing-mode:lr-tb;fill:#000000;fill-opacity:1;fill-rule:nonzero;stroke:none" transform="matrix(1,0,0,-1,73.992,341.38)"><tspan id="tspan294" y="0" x="0 3.356832 6.7136641 10.077504 11.815488 15.27744">Jan-13</tspan></text>
</g>
    </g>
    <g id="g296">
      <g clip-path="url(#clipPath300)" id="g298"><text id="text304" style="font-variant:normal;font-weight:normal;font-size:7.0079999px;font-family:'Roboto Condensed';-inkscape-font-specification:RobotoCondensed-Regular;writing-mode:lr-tb;fill:#000000;fill-opacity:1;fill-rule:nonzero;stroke:none" transform="matrix(1,0,0,-1,108.22,341.38)"><tspan id="tspan306" y="0" x="0 3.356832 6.7136641 10.077504 11.815488 15.27744">Jan-14</tspan></text>
</g>
    </g>
    <g id="g308">
      <g clip-path="url(#clipPath312)" id="g310"><text id="text316" style="font-variant:normal;font-weight:normal;font-size:7.0079999px;font-family:'Roboto Condensed';-inkscape-font-specification:RobotoCondensed-Regular;writing-mode:lr-tb;fill:#000000;fill-opacity:1;fill-rule:nonzero;stroke:none" transform="matrix(1,0,0,-1,142.42,341.38)"><tspan id="tspan318" y="0" x="0 3.356832 6.7136641 10.077504 11.84352 15.305472">Jan-15</tspan></text>
</g>
    </g>
    <g id="g320">
      <g clip-path="url(#clipPath324)" id="g322"><text id="text328" style="font-variant:normal;font-weight:normal;font-size:7.0079999px;font-family:'Roboto Condensed';-inkscape-font-specification:RobotoCondensed-Regular;writing-mode:lr-tb;fill:#000000;fill-opacity:1;fill-rule:nonzero;stroke:none" transform="matrix(1,0,0,-1,176.64,341.38)"><tspan id="tspan330" y="0" x="0 3.356832 6.7136641 10.077504 11.84352 15.305472">Jan-16</tspan></text>
</g>
    </g>
    <g id="g332">
      <g clip-path="url(#clipPath336)" id="g334"><text id="text340" style="font-variant:normal;font-weight:normal;font-size:7.0079999px;font-family:'Roboto Condensed';-inkscape-font-specification:RobotoCondensed-Regular;writing-mode:lr-tb;fill:#000000;fill-opacity:1;fill-rule:nonzero;stroke:none" transform="matrix(1,0,0,-1,210.96,341.38)"><tspan id="tspan342" y="0" x="0 3.356832 6.7136641 10.077504 11.84352 15.305472">Jan-17</tspan></text>
</g>
    </g>
    <g id="g344">
      <g clip-path="url(#clipPath348)" id="g346"><text id="text352" style="font-variant:normal;font-weight:normal;font-size:7.0079999px;font-family:'Roboto Condensed';-inkscape-font-specification:RobotoCondensed-Regular;writing-mode:lr-tb;fill:#000000;fill-opacity:1;fill-rule:nonzero;stroke:none" transform="matrix(1,0,0,-1,245.18,341.38)"><tspan id="tspan354" y="0" x="0 3.356832 6.7136641 10.077504 11.84352 15.305472">Jan-18</tspan></text>
</g>
    </g>
    <g id="g356">
      <g clip-path="url(#clipPath360)" id="g358"><text id="text364" style="font-variant:normal;font-weight:normal;font-size:7.0079999px;font-family:'Roboto Condensed';-inkscape-font-specification:RobotoCondensed-Regular;writing-mode:lr-tb;fill:#000000;fill-opacity:1;fill-rule:nonzero;stroke:none" transform="matrix(1,0,0,-1,279.41,341.38)"><tspan id="tspan366" y="0" x="0 3.356832 6.7136641 10.077504 11.84352 15.305472">Jan-19</tspan></text>
</g>
    </g>
    <g id="g368">
      <g clip-path="url(#clipPath372)" id="g370"><text id="text376" style="font-variant:normal;font-weight:normal;font-size:7.0079999px;font-family:'Roboto Condensed';-inkscape-font-specification:RobotoCondensed-Regular;writing-mode:lr-tb;fill:#000000;fill-opacity:1;fill-rule:nonzero;stroke:none" transform="matrix(1,0,0,-1,313.63,341.38)"><tspan id="tspan378" y="0" x="0 3.356832 6.7136641 10.077504 11.84352 15.305472">Jan-20</tspan></text>
</g>
    </g>
    <g id="g380">
      <g clip-path="url(#clipPath384)" id="g382"><text id="text388" style="font-variant:normal;font-weight:normal;font-size:7.0079999px;font-family:'Roboto Condensed';-inkscape-font-specification:RobotoCondensed-Regular;writing-mode:lr-tb;fill:#000000;fill-opacity:1;fill-rule:nonzero;stroke:none" transform="matrix(1,0,0,-1,347.95,341.38)"><tspan id="tspan390" y="0" x="0 3.356832 6.7136641 10.077504 11.84352 15.305472">Jan-21</tspan></text>
</g>
    </g>
    <g id="g392">
      <g clip-path="url(#clipPath396)" id="g394"><text id="text400" style="font-variant:normal;font-weight:normal;font-size:7.0079999px;font-family:'Roboto Condensed';-inkscape-font-specification:RobotoCondensed-Regular;writing-mode:lr-tb;fill:#000000;fill-opacity:1;fill-rule:nonzero;stroke:none" transform="matrix(1,0,0,-1,382.18,341.38)"><tspan id="tspan402" y="0" x="0 3.356832 6.7136641 10.077504 11.84352 15.305472">Jan-22</tspan></text>
</g>
    </g>
    <g id="g404">
      <g clip-path="url(#clipPath408)" id="g406"><text id="text412" style="font-variant:normal;font-weight:normal;font-size:7.0079999px;font-family:'Roboto Condensed';-inkscape-font-specification:RobotoCondensed-Regular;writing-mode:lr-tb;fill:#000000;fill-opacity:1;fill-rule:nonzero;stroke:none" transform="matrix(1,0,0,-1,416.4,341.38)"><tspan id="tspan414" y="0" x="0 3.356832 6.7136641 10.077504 11.84352 15.305472">Jan-23</tspan></text>
</g>
    </g>
    <g id="g416">
      <g clip-path="url(#clipPath420)" id="g418"><text id="text424" style="font-variant:normal;font-weight:normal;font-size:7.0079999px;font-family:'Roboto Condensed';-inkscape-font-specification:RobotoCondensed-Regular;writing-mode:lr-tb;fill:#000000;fill-opacity:1;fill-rule:nonzero;stroke:none" transform="matrix(1,0,0,-1,450.62,341.38)"><tspan id="tspan426" y="0" x="0 3.356832 6.7136641 10.077504 11.84352 15.305472">Jan-24</tspan></text>
</g>
    </g>
    <g id="g428">
      <g clip-path="url(#clipPath432)" id="g430"><text id="text436" style="font-variant:normal;font-weight:normal;font-size:7.0079999px;font-family:'Roboto Condensed';-inkscape-font-specification:RobotoCondensed-Regular;writing-mode:lr-tb;fill:#000000;fill-opacity:1;fill-rule:nonzero;stroke:none" transform="matrix(1,0,0,-1,484.94,341.38)"><tspan id="tspan438" y="0" x="0 3.356832 6.7136641 10.077504 11.815488 15.27744">Jan-25</tspan></text>
</g>
    </g>
    <g id="g440">
      <g clip-path="url(#clipPath444)" id="g442"><text id="text448" style="font-variant:normal;font-weight:normal;font-size:7.0079999px;font-family:'Roboto Condensed';-inkscape-font-specification:RobotoCondensed-Regular;writing-mode:lr-tb;fill:#000000;fill-opacity:1;fill-rule:nonzero;stroke:none" transform="matrix(1,0,0,-1,519.14,341.38)"><tspan id="tspan450" y="0" x="0 3.356832 6.7136641 10.077504 11.84352 15.305472">Jan-26</tspan></text>
</g>
    </g>
    <path id="path452" style="fill:#ffffff;fill-opacity:1;fill-rule:evenodd;stroke:none" d="m 205,472.02 202.05,0 0,12.981 -202.05,0 0,-12.981 z"/>
    <path id="path454" style="fill:none;stroke:#005aa4;stroke-width:1.16649997;stroke-linecap:round;stroke-linejoin:round;stroke-miterlimit:10;stroke-dasharray:none;stroke-opacity:1" d="m 215.87,478.51 14.93,0"/>
    <g id="g456">
      <g clip-path="url(#clipPath460)" id="g458"><text id="text464" style="font-variant:normal;font-weight:normal;font-size:6.98400021px;font-family:'Roboto Condensed';-inkscape-font-specification:RobotoCondensed-Regular;writing-mode:lr-tb;fill:#000000;fill-opacity:1;fill-rule:nonzero;stroke:none" transform="matrix(1,0,0,-1,232.42,476.38)"><tspan id="tspan466" y="0" x="0 3.987864 7.7452559 11.76804">DRAM</tspan></text>
</g>
    </g>
    <path id="path468" style="fill:none;stroke:#eadfbc;stroke-width:1.16649997;stroke-linecap:round;stroke-linejoin:round;stroke-miterlimit:10;stroke-dasharray:none;stroke-opacity:1" d="m 259.98,478.51 14.93,0"/>
    <g id="g470">
      <g clip-path="url(#clipPath474)" id="g472"><text id="text478" style="font-variant:normal;font-weight:normal;font-size:6.98400021px;font-family:'Roboto Condensed';-inkscape-font-specification:RobotoCondensed-Regular;writing-mode:lr-tb;fill:#000000;fill-opacity:1;fill-rule:nonzero;stroke:none" transform="matrix(1,0,0,-1,276.53,476.38)"><tspan id="tspan480" y="0" x="0 4.2951598 8.41572 12.71088">NAND</tspan></text>
</g>
    </g>
    <path id="path482" style="fill:none;stroke:#226b5a;stroke-width:1.16649997;stroke-linecap:round;stroke-linejoin:round;stroke-miterlimit:10;stroke-dasharray:none;stroke-opacity:1" d="m 303.75,478.51 14.93,0"/>
    <g id="g484">
      <g clip-path="url(#clipPath488)" id="g486"><text id="text492" style="font-variant:normal;font-weight:normal;font-size:6.98400021px;font-family:'Roboto Condensed';-inkscape-font-specification:RobotoCondensed-Regular;writing-mode:lr-tb;fill:#000000;fill-opacity:1;fill-rule:nonzero;stroke:none" transform="matrix(1,0,0,-1,320.33,476.38)"><tspan id="tspan494" y="0" x="0 4.1065922 5.7059278 9.2118959 12.655008 16.000343 17.59968 19.199017 22.816729 26.085239 31.365145 32.964481 36.205055 39.634201 43.056358 46.485504 49.858776 53.099354 55.159634 58.574806 60.697945 62.297279 64.518188 68.226692 72.507889 76.125603">Global Semiconductor (RHS)</tspan></text>
</g>
    </g>
  </g>
</svg>
