<svg version="1.1" width="100%" height="100%" viewBox="0 0 355 225" xmlns="http://www.w3.org/2000/svg" xmlns:xlink="http://www.w3.org/1999/xlink"><style type="text/css" /><defs><clipPath id="clip001"><path d="M0,0 L2761.333,0 L2761.333,1874.667 L0,1874.667 Z" clip-rule="evenodd" /></clipPath><clipPath id="clip002"><path d="M0,0 L2761.333,0 L2761.333,1874.667 L0,1874.667 Z" clip-rule="evenodd" /></clipPath><clipPath id="clip003"><path d="M0,0 L2761.333,0 L2761.333,1874.667 L0,1874.667 Z" clip-rule="evenodd" /></clipPath><clipPath id="clip004"><path d="M0,0 L5200,0 L5200,1982.667 L0,1982.667 Z" clip-rule="evenodd" /></clipPath><clipPath id="clip005"><path d="M-800,0 L6000,0 L6000,1982.667 L-800,1982.667 Z" clip-rule="evenodd" /></clipPath><clipPath id="clip006"><path d="M0,0 L2753.333,0 L2753.333,1873.333 L0,1873.333 Z" clip-rule="evenodd" /></clipPath><clipPath id="clip007"><path d="M373.3333,221.3333 L2709.333,221.3333 L2709.333,1641.333 L373.3333,1641.333 Z" clip-rule="evenodd" /></clipPath><clipPath id="clip008"><path d="M373.3333,221.3333 L2709.333,221.3333 L2709.333,1641.333 L373.3333,1641.333 Z" clip-rule="evenodd" /></clipPath><clipPath id="clip009"><path d="M0,0 L2753.333,0 L2753.333,1873.333 L0,1873.333 Z" clip-rule="evenodd" /></clipPath><clipPath id="clip010"><path d="M0,0 L2753.333,0 L2753.333,1873.333 L0,1873.333 Z" clip-rule="evenodd" /></clipPath><clipPath id="clip011"><path d="M0,0 L2753.333,0 L2753.333,1873.333 L0,1873.333 Z" clip-rule="evenodd" /></clipPath><clipPath id="clip012"><path d="M0,0 L2753.333,0 L2753.333,1873.333 L0,1873.333 Z" clip-rule="evenodd" /></clipPath><clipPath id="clip013"><path d="M0,0 L2753.333,0 L2753.333,1873.333 L0,1873.333 Z" clip-rule="evenodd" /></clipPath><clipPath id="clip014"><path d="M0,0 L2753.333,0 L2753.333,1873.333 L0,1873.333 Z" clip-rule="evenodd" /></clipPath><clipPath id="clip015"><path d="M0,0 L2753.333,0 L2753.333,1873.333 L0,1873.333 Z" clip-rule="evenodd" /></clipPath><clipPath id="clip016"><path d="M0,0 L2753.333,0 L2753.333,1873.333 L0,1873.333 Z" clip-rule="evenodd" /></clipPath><clipPath id="clip017"><path d="M0,0 L2753.333,0 L2753.333,1873.333 L0,1873.333 Z" clip-rule="evenodd" /></clipPath><clipPath id="clip018"><path d="M0,0 L2753.333,0 L2753.333,1873.333 L0,1873.333 Z" clip-rule="evenodd" /></clipPath><clipPath id="clip019"><path d="M0,0 L2753.333,0 L2753.333,1873.333 L0,1873.333 Z" clip-rule="evenodd" /></clipPath><clipPath id="clip020"><path d="M0,0 L2753.333,0 L2753.333,1873.333 L0,1873.333 Z" clip-rule="evenodd" /></clipPath><clipPath id="clip021"><path d="M0,0 L2753.333,0 L2753.333,1873.333 L0,1873.333 Z" clip-rule="evenodd" /></clipPath><clipPath id="clip022"><path d="M0,0 L2753.333,0 L2753.333,1873.333 L0,1873.333 Z" clip-rule="evenodd" /></clipPath><clipPath id="clip023"><path d="M0,0 L2753.333,0 L2753.333,1873.333 L0,1873.333 Z" clip-rule="evenodd" /></clipPath><clipPath id="clip024"><path d="M0,0 L2753.333,0 L2753.333,1873.333 L0,1873.333 Z" clip-rule="evenodd" /></clipPath><clipPath id="clip025"><path d="M0,0 L2753.333,0 L2753.333,1873.333 L0,1873.333 Z" clip-rule="evenodd" /></clipPath><clipPath id="clip026"><path d="M0,0 L2753.333,0 L2753.333,1873.333 L0,1873.333 Z" clip-rule="evenodd" /></clipPath><clipPath id="clip027"><path d="M0,0 L2753.333,0 L2753.333,1873.333 L0,1873.333 Z" clip-rule="evenodd" /></clipPath><clipPath id="clip028"><path d="M0,0 L2753.333,0 L2753.333,1873.333 L0,1873.333 Z" clip-rule="evenodd" /></clipPath><clipPath id="clip029"><path d="M0,0 L2753.333,0 L2753.333,1873.333 L0,1873.333 Z" clip-rule="evenodd" /></clipPath><clipPath id="clip030"><path d="M0,0 L2753.333,0 L2753.333,1873.333 L0,1873.333 Z" clip-rule="evenodd" /></clipPath><clipPath id="clip031"><path d="M0,0 L2753.333,0 L2753.333,1873.333 L0,1873.333 Z" clip-rule="evenodd" /></clipPath><clipPath id="clip032"><path d="M0,0 L2753.333,0 L2753.333,1873.333 L0,1873.333 Z" clip-rule="evenodd" /></clipPath><clipPath id="clip033"><path d="M0,0 L2753.333,0 L2753.333,1873.333 L0,1873.333 Z" clip-rule="evenodd" /></clipPath><clipPath id="clip034"><path d="M0,0 L2753.333,0 L2753.333,1873.333 L0,1873.333 Z" clip-rule="evenodd" /></clipPath><clipPath id="clip035"><path d="M0,0 L2753.333,0 L2753.333,1873.333 L0,1873.333 Z" clip-rule="evenodd" /></clipPath><clipPath id="clip036"><path d="M0,0 L2753.333,0 L2753.333,1873.333 L0,1873.333 Z" clip-rule="evenodd" /></clipPath><clipPath id="clip037"><path d="M0,0 L2753.333,0 L2753.333,1873.333 L0,1873.333 Z" clip-rule="evenodd" /></clipPath></defs><clipPath id="page-clip-path-1"><rect x="0" y="0" width="354.67" height="225.33" /></clipPath><g clip-path="url(#page-clip-path-1)" transform="translate(0.17,0)"><g transform="translate(1,1)"><g><g transform="matrix(0.1197006,0,0,0.1199502,0,0)" clip-path="url(#clip001)"><g><g clip-path="url(#clip002)"><g><g clip-path="url(#clip003)"><g transform="matrix(1.000214,0,0,1.0004,0.00016276,0)"><g><g><g clip-path="url(#clip004)"><g transform="translate(2753.333,1874.667)" /></g></g></g><g clip-path="url(#clip005)"><g transform="matrix(0.000656168,0,0,0.000656168,0,0)"><path d="M0,0 L4198112,0 L4198112,2854960 L0,2854960 Z" fill="#ffffff" fill-opacity="0" fill-rule="evenodd" /></g></g><g clip-path="url(#clip006)"><g transform="matrix(0.000656168,0,0,0.000656168,373.3333,222.6667)"><path d="M0,1792224 L3547872,1792224 M0,1432560 L3547872,1432560 M0,1074928 L3547872,1074928 M0,717296 L3547872,717296 M0,357632 L3547872,357632 M0,0 L3547872,0 " stroke-width="12700" stroke-linejoin="round" stroke-miterlimit="13.33333" stroke="#bababa" stroke-dashoffset="0" stroke-dasharray="12700" fill="none" fill-rule="nonzero" /></g></g><g clip-path="url(#clip007)"><g transform="matrix(0.000656168,0,0,0.000656168,373.3333,222.6667)"><path d="M99568,2147824 L493776,2147824 L493776,2147824 L493776,2149856 L493776,2149856 L99568,2149856 ZM690880,2133600 L1085088,2133600 L1085088,2133600 L1085088,2149856 L1085088,2149856 L690880,2149856 ZM1282192,2111248 L1676400,2111248 L1676400,2111248 L1676400,2149856 L1676400,2149856 L1282192,2149856 ZM1873504,2011680 L2267712,2011680 L2267712,2011680 L2267712,2149856 L2267712,2149856 L1873504,2149856 ZM2464816,1836928 L2859024,1836928 L2859024,1836928 L2859024,2149856 L2859024,2149856 L2464816,2149856 ZM3056128,1467104 L3450336,1467104 L3450336,1467104 L3450336,2149856 L3450336,2149856 L3056128,2149856 Z" fill="#012169" fill-rule="nonzero" /><path d="M99568,2147824 L493776,2147824 L493776,2147824 L493776,2149856 L493776,2149856 L99568,2149856 ZM690880,2133600 L1085088,2133600 L1085088,2133600 L1085088,2149856 L1085088,2149856 L690880,2149856 ZM1282192,2111248 L1676400,2111248 L1676400,2111248 L1676400,2149856 L1676400,2149856 L1282192,2149856 ZM1873504,2011680 L2267712,2011680 L2267712,2011680 L2267712,2149856 L2267712,2149856 L1873504,2149856 ZM2464816,1836928 L2859024,1836928 L2859024,1836928 L2859024,2149856 L2859024,2149856 L2464816,2149856 ZM3056128,1467104 L3450336,1467104 L3450336,1467104 L3450336,2149856 L3450336,2149856 L3056128,2149856 Z" stroke-width="8466.667" stroke-linejoin="round" stroke-miterlimit="13.33333" stroke="#ffffff" fill="none" fill-rule="nonzero" /></g></g><g clip-path="url(#clip008)"><g transform="matrix(0.000656168,0,0,0.000656168,373.3333,222.6667)"><path d="M99568,2147824 L493776,2147824 L493776,2147824 L493776,2149856 L493776,2149856 L99568,2149856 ZM690880,2127504 L1085088,2127504 L1085088,2127504 L1085088,2133600 L1085088,2133600 L690880,2133600 ZM1282192,2092960 L1676400,2092960 L1676400,2092960 L1676400,2111248 L1676400,2111248 L1282192,2111248 ZM1873504,1875536 L2267712,1875536 L2267712,1875536 L2267712,2011680 L2267712,2011680 L1873504,2011680 ZM2464816,1300480 L2859024,1300480 L2859024,1300480 L2859024,1836928 L2859024,1836928 L2464816,1836928 ZM3056128,144272 L3450336,144272 L3450336,144272 L3450336,1467104 L3450336,1467104 L3056128,1467104 Z" fill="#009cde" fill-rule="nonzero" /><path d="M99568,2147824 L493776,2147824 L493776,2147824 L493776,2149856 L493776,2149856 L99568,2149856 ZM690880,2127504 L1085088,2127504 L1085088,2127504 L1085088,2133600 L1085088,2133600 L690880,2133600 ZM1282192,2092960 L1676400,2092960 L1676400,2092960 L1676400,2111248 L1676400,2111248 L1282192,2111248 ZM1873504,1875536 L2267712,1875536 L2267712,1875536 L2267712,2011680 L2267712,2011680 L1873504,2011680 ZM2464816,1300480 L2859024,1300480 L2859024,1300480 L2859024,1836928 L2859024,1836928 L2464816,1836928 ZM3056128,144272 L3450336,144272 L3450336,144272 L3450336,1467104 L3450336,1467104 L3056128,1467104 Z" stroke-width="8466.667" stroke-linejoin="round" stroke-miterlimit="13.33333" stroke="#ffffff" fill="none" fill-rule="nonzero" /></g></g><g clip-path="url(#clip009)"><g transform="matrix(0.000656168,0,0,0.000656168,373.3333,1633.333)"><g><path d="M0.002545501,-6773.333 L3547872,-6772 " stroke-width="3386.667" stroke-linejoin="round" stroke-miterlimit="13.33333" stroke="#000000" fill="none" fill-rule="evenodd" /><path d="M-0.00127275,3386.667 L3547872,3388 " stroke-width="10160" stroke-linejoin="round" stroke-miterlimit="13.33333" stroke="#000000" fill="none" fill-rule="evenodd" /></g></g></g><g><g clip-path="url(#clip010)"><g><g transform="translate(541.7419,1597.973)"><text><tspan x="0" y="0" font-family="Connections Cond Light,Arial Narrow" font-weight="normal" font-style="normal" font-size="105.3333" fill="#000000">3</tspan></text></g></g></g></g><g><g clip-path="url(#clip011)"><g><g transform="translate(1665.774,1621.567)"><text><tspan x="0" y="0" font-family="Connections Cond Light,Arial Narrow" font-weight="normal" font-style="normal" font-size="105.3333" fill="#ffffff">192 </tspan></text></g></g></g></g><g><g clip-path="url(#clip012)"><g><g transform="translate(2053.775,1563.874)"><text><tspan x="0" y="0" font-family="Connections Cond Light,Arial Narrow" font-weight="normal" font-style="normal" font-size="105.3333" fill="#ffffff">437 </tspan></text></g></g></g></g><g><g clip-path="url(#clip013)"><g><g transform="translate(2441.777,1442.408)"><text><tspan x="0" y="0" font-family="Connections Cond Light,Arial Narrow" font-weight="normal" font-style="normal" font-size="105.3333" fill="#ffffff">954 </tspan></text></g></g></g></g><g><g clip-path="url(#clip014)"><g><g transform="translate(904.4103,1585.845)"><text><tspan x="0" y="0" font-family="Connections Cond Light,Arial Narrow" font-weight="normal" font-style="normal" font-size="105.3333" fill="#000000">31</tspan></text></g></g></g></g><g><g clip-path="url(#clip015)"><g><g transform="translate(1292.411,1567.081)"><text><tspan x="0" y="0" font-family="Connections Cond Light,Arial Narrow" font-weight="normal" font-style="normal" font-size="105.3333" fill="#000000">79</tspan></text></g></g></g></g><g><g clip-path="url(#clip016)"><g><g transform="translate(1665.774,1531.419)"><text><tspan x="0" y="0" font-family="Connections Cond Light,Arial Narrow" font-weight="normal" font-style="normal" font-size="105.3333" fill="#ffffff">192 </tspan></text></g></g></g></g><g><g clip-path="url(#clip017)"><g><g transform="translate(2053.775,1285.354)"><text><tspan x="0" y="0" font-family="Connections Cond Light,Arial Narrow" font-weight="normal" font-style="normal" font-size="105.3333" fill="#ffffff">747 </tspan></text></g></g></g></g><g><g clip-path="url(#clip018)"><g><g transform="translate(2407.11,784.084)"><text><tspan x="0" y="0" font-family="Connections Cond Light,Arial Narrow" font-weight="normal" font-style="normal" font-size="105.3333" fill="#ffffff">1,846 </tspan></text></g></g></g></g><g><g clip-path="url(#clip019)"><g><g transform="translate(170.5179,1663.015)"><text><tspan x="0" y="0" font-family="Connections Cond Light,Arial Narrow" font-weight="normal" font-style="normal" font-size="105.3333" fill="#000000" style="white-space: pre"> -</tspan></text></g></g></g></g><g><g clip-path="url(#clip020)"><g><g transform="translate(89.29659,1427.838)"><text><tspan x="0" y="0" font-family="Connections Cond Light,Arial Narrow" font-weight="normal" font-style="normal" font-size="105.3333" fill="#000000" style="white-space: pre"> 500</tspan></text></g></g></g></g><g><g clip-path="url(#clip021)"><g><g transform="translate(21.62992,1192.661)"><text><tspan x="0" y="0" font-family="Connections Cond Light,Arial Narrow" font-weight="normal" font-style="normal" font-size="105.3333" fill="#000000" style="white-space: pre"> 1,000</tspan></text></g></g></g></g><g><g clip-path="url(#clip022)"><g><g transform="translate(21.62992,957.4847)"><text><tspan x="0" y="0" font-family="Connections Cond Light,Arial Narrow" font-weight="normal" font-style="normal" font-size="105.3333" fill="#000000" style="white-space: pre"> 1,500</tspan></text></g></g></g></g><g><g clip-path="url(#clip023)"><g><g transform="translate(21.62992,722.3088)"><text><tspan x="0" y="0" font-family="Connections Cond Light,Arial Narrow" font-weight="normal" font-style="normal" font-size="105.3333" fill="#000000" style="white-space: pre"> 2,000</tspan></text></g></g></g></g><g><g clip-path="url(#clip024)"><g><g transform="translate(21.62992,487.1321)"><text><tspan x="0" y="0" font-family="Connections Cond Light,Arial Narrow" font-weight="normal" font-style="normal" font-size="105.3333" fill="#000000" style="white-space: pre"> 2,500</tspan></text></g></g></g></g><g><g clip-path="url(#clip025)"><g><g transform="translate(21.62992,251.9554)"><text><tspan x="0" y="0" font-family="Connections Cond Light,Arial Narrow" font-weight="normal" font-style="normal" font-size="105.3333" fill="#000000" style="white-space: pre"> 3,000</tspan></text></g></g></g></g><g><g clip-path="url(#clip026)"><g><g transform="translate(466.5205,1789.264)"><text><tspan x="0" y="0" font-family="Connections Cond Light,Arial Narrow" font-weight="normal" font-style="normal" font-size="105.3333" fill="#000000">2023</tspan></text></g></g></g></g><g><g clip-path="url(#clip027)"><g><g transform="translate(854.5214,1789.264)"><text><tspan x="0" y="0" font-family="Connections Cond Light,Arial Narrow" font-weight="normal" font-style="normal" font-size="105.3333" fill="#000000">2024</tspan></text></g></g></g></g><g><g clip-path="url(#clip028)"><g><g transform="translate(1242.522,1789.264)"><text><tspan x="0" y="0" font-family="Connections Cond Light,Arial Narrow" font-weight="normal" font-style="normal" font-size="105.3333" fill="#000000">2025</tspan></text></g></g></g></g><g><g clip-path="url(#clip029)"><g><g transform="translate(1606.358,1789.264)"><text><tspan x="0" y="0" font-family="Connections Cond Light,Arial Narrow" font-weight="normal" font-style="normal" font-size="105.3333" fill="#000000">2026E</tspan></text></g></g></g></g><g><g clip-path="url(#clip030)"><g><g transform="translate(1994.359,1789.264)"><text><tspan x="0" y="0" font-family="Connections Cond Light,Arial Narrow" font-weight="normal" font-style="normal" font-size="105.3333" fill="#000000">2027E</tspan></text></g></g></g></g><g><g clip-path="url(#clip031)"><g><g transform="translate(2382.36,1789.264)"><text><tspan x="0" y="0" font-family="Connections Cond Light,Arial Narrow" font-weight="normal" font-style="normal" font-size="105.3333" fill="#000000">2028E</tspan></text></g></g></g></g><g><g clip-path="url(#clip032)"><g><g transform="translate(77.38889,114.0529)"><text><tspan x="0" y="0" font-family="Connections Cond Light,Arial Narrow" font-weight="normal" font-style="normal" font-size="105.3333" fill="#000000">USDmn</tspan></text></g></g></g></g><g clip-path="url(#clip033)"><g transform="matrix(0.000656168,0,0,0.000656168,316,44)"><path d="M0,0 L3251200,0 L3251200,294640 L0,294640 Z" fill="#156082" fill-opacity="0" fill-rule="evenodd" /></g></g><g clip-path="url(#clip034)"><g transform="matrix(0.000656168,0,0,0.000656168,524,113.3333)"><path d="M0,0 L83312,0 L83312,83312 L0,83312 Z" fill="#012169" fill-rule="evenodd" /><path d="M0,0 L83312,0 L83312,0 L83312,83312 L83312,83312 L0,83312 Z" stroke-width="8466.667" stroke-linejoin="round" stroke-miterlimit="13.33333" stroke="#ffffff" fill="none" fill-rule="evenodd" /></g></g><g><g clip-path="url(#clip035)"><g><g transform="translate(600.993,170.0954)"><text><tspan x="0" y="0" font-family="Connections Cond Light,Arial Narrow" font-weight="normal" font-style="normal" font-size="105.3333" fill="#000000">AI native products</tspan></text></g></g></g></g><g clip-path="url(#clip036)"><g transform="matrix(0.000656168,0,0,0.000656168,1496,113.3333)"><path d="M0,0 L81280.01,0 L81280.01,83312 L0,83312 Z" fill="#009cde" fill-rule="evenodd" /><path d="M0,0 L81280.01,0 L81280.01,0 L81280.01,83312 L81280.01,83312 L0,83312 Z" stroke-width="8466.667" stroke-linejoin="round" stroke-miterlimit="13.33333" stroke="#ffffff" fill="none" fill-rule="evenodd" /></g></g><g><g clip-path="url(#clip037)"><g><g transform="translate(1572.64,170.0954)"><text><tspan x="0" y="0" font-family="Connections Cond Light,Arial Narrow" font-weight="normal" font-style="normal" font-size="105.3333" fill="#000000">Open API platform</tspan></text></g></g></g></g><g /></g></g></g></g></g></g></g></g></g></svg>