<?xml version="1.0" encoding="UTF-8" standalone="no"?>
<svg xmlns:dc="http://purl.org/dc/elements/1.1/" xmlns:cc="http://creativecommons.org/ns#" xmlns:rdf="http://www.w3.org/1999/02/22-rdf-syntax-ns#" xmlns:svg="http://www.w3.org/2000/svg" xmlns="http://www.w3.org/2000/svg" viewBox="63 286.4875 639 417.0125" height="417.0125" width="639" xml:space="preserve" version="1.1" id="svg2">
  <metadata id="metadata8">
    <rdf:RDF>
      <cc:Work rdf:about="">
        <dc:format>image/svg+xml</dc:format>
        <dc:type rdf:resource="http://purl.org/dc/dcmitype/StillImage"/>
      </cc:Work>
    </rdf:RDF>
  </metadata>
  <defs id="defs6">
    <clipPath id="clipPath16" clipPathUnits="userSpaceOnUse">
      <path style="clip-rule:evenodd" id="path18" d="m 50.4,229.2 511.2,0 0,333.72 -511.2,0 0,-333.72 z"/>
    </clipPath>
    <clipPath id="clipPath26" clipPathUnits="userSpaceOnUse">
      <path style="clip-rule:evenodd" id="path28" d="m 50.4,229.2 511.2,0 0,333.72 -511.2,0 0,-333.72 z"/>
    </clipPath>
    <clipPath id="clipPath44" clipPathUnits="userSpaceOnUse">
      <path style="clip-rule:evenodd" id="path46" d="m 50.4,229.2 511.08,0 0,333.6 -511.08,0 0,-333.6 z"/>
    </clipPath>
    <clipPath id="clipPath56" clipPathUnits="userSpaceOnUse">
      <path style="clip-rule:evenodd" id="path58" d="m 50.4,229.2 511.08,0 0,333.6 -511.08,0 0,-333.6 z"/>
    </clipPath>
    <clipPath id="clipPath68" clipPathUnits="userSpaceOnUse">
      <path style="clip-rule:evenodd" id="path70" d="m 50.4,229.2 511.08,0 0,333.6 -511.08,0 0,-333.6 z"/>
    </clipPath>
    <clipPath id="clipPath80" clipPathUnits="userSpaceOnUse">
      <path style="clip-rule:evenodd" id="path82" d="m 50.4,229.2 511.08,0 0,333.6 -511.08,0 0,-333.6 z"/>
    </clipPath>
    <clipPath id="clipPath92" clipPathUnits="userSpaceOnUse">
      <path style="clip-rule:evenodd" id="path94" d="m 50.4,229.2 511.08,0 0,333.6 -511.08,0 0,-333.6 z"/>
    </clipPath>
    <clipPath id="clipPath104" clipPathUnits="userSpaceOnUse">
      <path style="clip-rule:evenodd" id="path106" d="m 50.4,229.2 511.08,0 0,333.6 -511.08,0 0,-333.6 z"/>
    </clipPath>
    <clipPath id="clipPath116" clipPathUnits="userSpaceOnUse">
      <path style="clip-rule:evenodd" id="path118" d="m 50.4,229.2 511.08,0 0,333.6 -511.08,0 0,-333.6 z"/>
    </clipPath>
    <clipPath id="clipPath128" clipPathUnits="userSpaceOnUse">
      <path style="clip-rule:evenodd" id="path130" d="m 50.4,229.2 511.08,0 0,333.6 -511.08,0 0,-333.6 z"/>
    </clipPath>
    <clipPath id="clipPath140" clipPathUnits="userSpaceOnUse">
      <path style="clip-rule:evenodd" id="path142" d="m 50.4,229.2 511.08,0 0,333.6 -511.08,0 0,-333.6 z"/>
    </clipPath>
    <clipPath id="clipPath152" clipPathUnits="userSpaceOnUse">
      <path style="clip-rule:evenodd" id="path154" d="m 50.4,229.2 511.08,0 0,333.6 -511.08,0 0,-333.6 z"/>
    </clipPath>
    <clipPath id="clipPath164" clipPathUnits="userSpaceOnUse">
      <path style="clip-rule:evenodd" id="path166" d="m 50.4,229.2 511.08,0 0,333.6 -511.08,0 0,-333.6 z"/>
    </clipPath>
    <clipPath id="clipPath176" clipPathUnits="userSpaceOnUse">
      <path style="clip-rule:evenodd" id="path178" d="m 50.4,229.2 511.08,0 0,333.6 -511.08,0 0,-333.6 z"/>
    </clipPath>
    <clipPath id="clipPath188" clipPathUnits="userSpaceOnUse">
      <path style="clip-rule:evenodd" id="path190" d="m 50.4,229.2 511.08,0 0,333.6 -511.08,0 0,-333.6 z"/>
    </clipPath>
    <clipPath id="clipPath200" clipPathUnits="userSpaceOnUse">
      <path style="clip-rule:evenodd" id="path202" d="m 50.4,229.2 511.08,0 0,333.6 -511.08,0 0,-333.6 z"/>
    </clipPath>
    <clipPath id="clipPath212" clipPathUnits="userSpaceOnUse">
      <path style="clip-rule:evenodd" id="path214" d="m 50.4,229.2 511.08,0 0,333.6 -511.08,0 0,-333.6 z"/>
    </clipPath>
    <clipPath id="clipPath224" clipPathUnits="userSpaceOnUse">
      <path style="clip-rule:evenodd" id="path226" d="m 50.4,229.2 511.08,0 0,333.6 -511.08,0 0,-333.6 z"/>
    </clipPath>
    <clipPath id="clipPath236" clipPathUnits="userSpaceOnUse">
      <path style="clip-rule:evenodd" id="path238" d="m 50.4,229.2 511.08,0 0,333.6 -511.08,0 0,-333.6 z"/>
    </clipPath>
    <clipPath id="clipPath248" clipPathUnits="userSpaceOnUse">
      <path style="clip-rule:evenodd" id="path250" d="m 50.4,229.2 511.08,0 0,333.6 -511.08,0 0,-333.6 z"/>
    </clipPath>
    <clipPath id="clipPath260" clipPathUnits="userSpaceOnUse">
      <path style="clip-rule:evenodd" id="path262" d="m 50.4,229.2 511.08,0 0,333.6 -511.08,0 0,-333.6 z"/>
    </clipPath>
    <clipPath id="clipPath272" clipPathUnits="userSpaceOnUse">
      <path style="clip-rule:evenodd" id="path274" d="m 50.4,229.2 511.08,0 0,333.6 -511.08,0 0,-333.6 z"/>
    </clipPath>
    <clipPath id="clipPath284" clipPathUnits="userSpaceOnUse">
      <path style="clip-rule:evenodd" id="path286" d="m 50.4,229.2 511.08,0 0,333.6 -511.08,0 0,-333.6 z"/>
    </clipPath>
    <clipPath id="clipPath296" clipPathUnits="userSpaceOnUse">
      <path style="clip-rule:evenodd" id="path298" d="m 50.4,229.2 511.08,0 0,333.6 -511.08,0 0,-333.6 z"/>
    </clipPath>
    <clipPath id="clipPath308" clipPathUnits="userSpaceOnUse">
      <path style="clip-rule:evenodd" id="path310" d="m 50.4,229.2 511.08,0 0,333.6 -511.08,0 0,-333.6 z"/>
    </clipPath>
    <clipPath id="clipPath320" clipPathUnits="userSpaceOnUse">
      <path style="clip-rule:evenodd" id="path322" d="m 50.4,229.2 511.08,0 0,333.6 -511.08,0 0,-333.6 z"/>
    </clipPath>
    <clipPath id="clipPath332" clipPathUnits="userSpaceOnUse">
      <path style="clip-rule:evenodd" id="path334" d="m 50.4,229.2 511.08,0 0,333.6 -511.08,0 0,-333.6 z"/>
    </clipPath>
    <clipPath id="clipPath344" clipPathUnits="userSpaceOnUse">
      <path style="clip-rule:evenodd" id="path346" d="m 50.4,229.2 511.08,0 0,333.6 -511.08,0 0,-333.6 z"/>
    </clipPath>
    <clipPath id="clipPath356" clipPathUnits="userSpaceOnUse">
      <path style="clip-rule:evenodd" id="path358" d="m 50.4,229.2 511.08,0 0,333.6 -511.08,0 0,-333.6 z"/>
    </clipPath>
    <clipPath id="clipPath368" clipPathUnits="userSpaceOnUse">
      <path style="clip-rule:evenodd" id="path370" d="m 50.4,229.2 511.08,0 0,333.6 -511.08,0 0,-333.6 z"/>
    </clipPath>
    <clipPath id="clipPath380" clipPathUnits="userSpaceOnUse">
      <path style="clip-rule:evenodd" id="path382" d="m 50.4,229.2 511.08,0 0,333.6 -511.08,0 0,-333.6 z"/>
    </clipPath>
    <clipPath id="clipPath392" clipPathUnits="userSpaceOnUse">
      <path style="clip-rule:evenodd" id="path394" d="m 50.4,229.2 511.08,0 0,333.6 -511.08,0 0,-333.6 z"/>
    </clipPath>
    <clipPath id="clipPath404" clipPathUnits="userSpaceOnUse">
      <path style="clip-rule:evenodd" id="path406" d="m 50.4,229.2 511.08,0 0,333.6 -511.08,0 0,-333.6 z"/>
    </clipPath>
    <clipPath id="clipPath416" clipPathUnits="userSpaceOnUse">
      <path style="clip-rule:evenodd" id="path418" d="m 50.4,229.2 511.08,0 0,333.6 -511.08,0 0,-333.6 z"/>
    </clipPath>
    <clipPath id="clipPath428" clipPathUnits="userSpaceOnUse">
      <path style="clip-rule:evenodd" id="path430" d="m 50.4,229.2 511.08,0 0,333.6 -511.08,0 0,-333.6 z"/>
    </clipPath>
    <clipPath id="clipPath440" clipPathUnits="userSpaceOnUse">
      <path style="clip-rule:evenodd" id="path442" d="m 50.4,229.2 511.08,0 0,333.6 -511.08,0 0,-333.6 z"/>
    </clipPath>
    <clipPath id="clipPath452" clipPathUnits="userSpaceOnUse">
      <path style="clip-rule:evenodd" id="path454" d="m 50.4,229.2 511.08,0 0,333.6 -511.08,0 0,-333.6 z"/>
    </clipPath>
    <clipPath id="clipPath464" clipPathUnits="userSpaceOnUse">
      <path style="clip-rule:evenodd" id="path466" d="m 50.4,229.2 511.08,0 0,333.6 -511.08,0 0,-333.6 z"/>
    </clipPath>
    <clipPath id="clipPath476" clipPathUnits="userSpaceOnUse">
      <path style="clip-rule:evenodd" id="path478" d="m 50.4,229.2 511.08,0 0,333.6 -511.08,0 0,-333.6 z"/>
    </clipPath>
  </defs>
  <g transform="matrix(1.25,0,0,-1.25,0,990)" id="g10">
    <g id="g12">
      <g clip-path="url(#clipPath16)" id="g14">
        <path id="path20" style="fill:none;stroke:#000000;stroke-width:0.14;stroke-linecap:butt;stroke-linejoin:miter;stroke-miterlimit:10;stroke-dasharray:none;stroke-opacity:0" d="m 50.446,229.19 511.1,0 0,333.55 -511.1,0 0,-333.55 z"/>
      </g>
    </g>
    <g id="g22">
      <g clip-path="url(#clipPath26)" id="g24">
        <path id="path30" style="fill:#ffffff;fill-opacity:1;fill-rule:evenodd;stroke:none" d="m 50.446,229.19 511.1,0 0,333.55 -511.1,0 0,-333.55 z"/>
      </g>
    </g>
    <path id="path32" style="fill:none;stroke:#c0c0c0;stroke-width:0.64409;stroke-linecap:round;stroke-linejoin:round;stroke-miterlimit:10;stroke-dasharray:none;stroke-opacity:1" d="m 89.427,312.93 463.683,0 m -463.683,46.84 463.683,0 m -463.683,46.84 463.683,0 m -463.683,46.83 463.683,0 m -463.683,46.84 463.683,0 m -463.683,46.8 463.683,0"/>
    <path id="path34" style="fill:#005aa4;fill-opacity:1;fill-rule:evenodd;stroke:none" d="m 435.01,266.02 19.815,0 0,179.05 -19.815,0 0,-179.05 z"/>
    <path id="path36" style="fill:#005aa4;fill-opacity:1;fill-rule:nonzero;stroke:none" d="m 94.922,300.1 19.938,0 0,-34.08 -19.938,0 0,34.08 z m 30.918,27.67 19.94,0 0,-61.75 -19.94,0 0,61.75 z m 30.91,44.21 19.79,0 0,-105.96 -19.79,0 0,105.96 z m 30.92,2.63 19.79,0 0,-108.59 -19.79,0 0,108.59 z m 30.92,-42.67 19.78,0 0,-65.92 -19.78,0 0,65.92 z m 30.91,-28.29 19.79,0 0,-37.63 -19.79,0 0,37.63 z m 30.92,39.42 19.79,0 0,-77.05 -19.79,0 0,77.05 z m 30.92,10.67 19.78,0 0,-87.72 -19.78,0 0,87.72 z m 30.91,49.93 19.79,0 0,-137.65 -19.79,0 0,137.65 z m 30.92,-57.97 19.78,0 0,-79.68 -19.78,0 0,79.68 z m 30.91,172.2 19.79,0 0,-251.88 -19.79,0 0,251.88 z m 61.84,-246.4 19.78,0 0,-5.48 -19.78,0 0,5.48 z m 30.91,47.92 19.79,0 0,-53.4 -19.79,0 0,53.4 z m 30.92,31.54 19.79,0 0,-84.94 -19.79,0 0,84.94 z"/>
    <path id="path38" style="fill:none;stroke:#808080;stroke-width:1.61020005;stroke-linecap:round;stroke-linejoin:round;stroke-miterlimit:10;stroke-dasharray:none;stroke-opacity:1" d="m 89.427,266.02 463.683,0"/>
    <g id="g40">
      <g clip-path="url(#clipPath44)" id="g42"><text id="text48" style="font-variant:normal;font-weight:normal;font-size:11.59200001px;font-family:'Roboto Condensed';-inkscape-font-specification:RobotoCondensed-Regular;writing-mode:lr-tb;fill:#000000;fill-opacity:1;fill-rule:nonzero;stroke:none" transform="matrix(1,0,0,-1,98.328,308.71)"><tspan id="tspan50" y="0" x="0 5.7120481">4%</tspan></text>
</g>
    </g>
    <g id="g52">
      <g clip-path="url(#clipPath56)" id="g54"><text id="text60" style="font-variant:normal;font-weight:normal;font-size:11.61600018px;font-family:'Roboto Condensed';-inkscape-font-specification:RobotoCondensed-Regular;writing-mode:lr-tb;fill:#000000;fill-opacity:1;fill-rule:nonzero;stroke:none" transform="matrix(1,0,0,-1,129.24,336.43)"><tspan id="tspan62" y="0" x="0 5.7120042">7%</tspan></text>
</g>
    </g>
    <g id="g64">
      <g clip-path="url(#clipPath68)" id="g66"><text id="text72" style="font-variant:normal;font-weight:normal;font-size:11.59200001px;font-family:'Roboto Condensed';-inkscape-font-specification:RobotoCondensed-Regular;writing-mode:lr-tb;fill:#000000;fill-opacity:1;fill-rule:nonzero;stroke:none" transform="matrix(1,0,0,-1,157.37,380.71)"><tspan id="tspan74" y="0" x="0 5.7359982 11.471996">11%</tspan></text>
</g>
    </g>
    <g id="g76">
      <g clip-path="url(#clipPath80)" id="g78"><text id="text84" style="font-variant:normal;font-weight:normal;font-size:11.59200001px;font-family:'Roboto Condensed';-inkscape-font-specification:RobotoCondensed-Regular;writing-mode:lr-tb;fill:#000000;fill-opacity:1;fill-rule:nonzero;stroke:none" transform="matrix(1,0,0,-1,188.28,383.3)"><tspan id="tspan86" y="0" x="0 5.7359982 11.471996">12%</tspan></text>
</g>
    </g>
    <g id="g88">
      <g clip-path="url(#clipPath92)" id="g90"><text id="text96" style="font-variant:normal;font-weight:normal;font-size:11.59200001px;font-family:'Roboto Condensed';-inkscape-font-specification:RobotoCondensed-Regular;writing-mode:lr-tb;fill:#000000;fill-opacity:1;fill-rule:nonzero;stroke:none" transform="matrix(1,0,0,-1,221.98,340.66)"><tspan id="tspan98" y="0" x="0 5.7359982">7%</tspan></text>
</g>
    </g>
    <g id="g100">
      <g clip-path="url(#clipPath104)" id="g102"><text id="text108" style="font-variant:normal;font-weight:normal;font-size:11.59200001px;font-family:'Roboto Condensed';-inkscape-font-specification:RobotoCondensed-Regular;writing-mode:lr-tb;fill:#000000;fill-opacity:1;fill-rule:nonzero;stroke:none" transform="matrix(1,0,0,-1,252.91,312.36)"><tspan id="tspan110" y="0" x="0 5.7120481">4%</tspan></text>
</g>
    </g>
    <g id="g112">
      <g clip-path="url(#clipPath116)" id="g114"><text id="text120" style="font-variant:normal;font-weight:normal;font-size:11.59200001px;font-family:'Roboto Condensed';-inkscape-font-specification:RobotoCondensed-Regular;writing-mode:lr-tb;fill:#000000;fill-opacity:1;fill-rule:nonzero;stroke:none" transform="matrix(1,0,0,-1,283.82,351.74)"><tspan id="tspan122" y="0" x="0 5.7120481">8%</tspan></text>
</g>
    </g>
    <g id="g124">
      <g clip-path="url(#clipPath128)" id="g126"><text id="text132" style="font-variant:normal;font-weight:normal;font-size:11.59200001px;font-family:'Roboto Condensed';-inkscape-font-specification:RobotoCondensed-Regular;writing-mode:lr-tb;fill:#000000;fill-opacity:1;fill-rule:nonzero;stroke:none" transform="matrix(1,0,0,-1,314.74,362.45)"><tspan id="tspan134" y="0" x="0 5.7120481">9%</tspan></text>
</g>
    </g>
    <g id="g136">
      <g clip-path="url(#clipPath140)" id="g138"><text id="text144" style="font-variant:normal;font-weight:normal;font-size:11.59200001px;font-family:'Roboto Condensed';-inkscape-font-specification:RobotoCondensed-Regular;writing-mode:lr-tb;fill:#000000;fill-opacity:1;fill-rule:nonzero;stroke:none" transform="matrix(1,0,0,-1,342.86,412.34)"><tspan id="tspan146" y="0" x="0 5.7359982 11.471996">15%</tspan></text>
</g>
    </g>
    <g id="g148">
      <g clip-path="url(#clipPath152)" id="g150"><text id="text156" style="font-variant:normal;font-weight:normal;font-size:11.61600018px;font-family:'Roboto Condensed';-inkscape-font-specification:RobotoCondensed-Regular;writing-mode:lr-tb;fill:#000000;fill-opacity:1;fill-rule:nonzero;stroke:none" transform="matrix(1,0,0,-1,376.58,354.46)"><tspan id="tspan158" y="0" x="0 5.7120042">9%</tspan></text>
</g>
    </g>
    <g id="g160">
      <g clip-path="url(#clipPath164)" id="g162"><text id="text168" style="font-variant:normal;font-weight:normal;font-size:11.59200001px;font-family:'Roboto Condensed';-inkscape-font-specification:RobotoCondensed-Regular;writing-mode:lr-tb;fill:#000000;fill-opacity:1;fill-rule:nonzero;stroke:none" transform="matrix(1,0,0,-1,404.71,526.68)"><tspan id="tspan170" y="0" x="0 5.7120481 11.424096">27%</tspan></text>
</g>
    </g>
    <g id="g172">
      <g clip-path="url(#clipPath176)" id="g174"><text id="text180" style="font-variant:normal;font-weight:normal;font-size:11.61600018px;font-family:'Roboto Condensed';-inkscape-font-specification:RobotoCondensed-Regular;writing-mode:lr-tb;fill:#000000;fill-opacity:1;fill-rule:nonzero;stroke:none" transform="matrix(1,0,0,-1,435.62,453.77)"><tspan id="tspan182" y="0" x="0 5.7360039 11.472008">19%</tspan></text>
</g>
    </g>
    <g id="g184">
      <g clip-path="url(#clipPath188)" id="g186"><text id="text192" style="font-variant:normal;font-weight:normal;font-size:11.59200001px;font-family:'Roboto Condensed';-inkscape-font-specification:RobotoCondensed-Regular;writing-mode:lr-tb;fill:#000000;fill-opacity:1;fill-rule:nonzero;stroke:none" transform="matrix(1,0,0,-1,469.32,280.1)"><tspan id="tspan194" y="0" x="0 5.7359982">1%</tspan></text>
</g>
    </g>
    <g id="g196">
      <g clip-path="url(#clipPath200)" id="g198"><text id="text204" style="font-variant:normal;font-weight:normal;font-size:11.59200001px;font-family:'Roboto Condensed';-inkscape-font-specification:RobotoCondensed-Regular;writing-mode:lr-tb;fill:#000000;fill-opacity:1;fill-rule:nonzero;stroke:none" transform="matrix(1,0,0,-1,500.23,328.1)"><tspan id="tspan206" y="0" x="0 5.7359982">6%</tspan></text>
</g>
    </g>
    <g id="g208">
      <g clip-path="url(#clipPath212)" id="g210"><text id="text216" style="font-variant:normal;font-weight:normal;font-size:11.59200001px;font-family:'Roboto Condensed';-inkscape-font-specification:RobotoCondensed-Regular;writing-mode:lr-tb;fill:#000000;fill-opacity:1;fill-rule:nonzero;stroke:none" transform="matrix(1,0,0,-1,531.17,359.57)"><tspan id="tspan218" y="0" x="0 5.7120481">9%</tspan></text>
</g>
    </g>
    <g id="g220">
      <g clip-path="url(#clipPath224)" id="g222"><text id="text228" style="font-variant:normal;font-weight:normal;font-size:11.59200001px;font-family:'Roboto Condensed';-inkscape-font-specification:RobotoCondensed-Regular;writing-mode:lr-tb;fill:#000000;fill-opacity:1;fill-rule:nonzero;stroke:none" transform="matrix(1,0,0,-1,75.936,262.51)"><tspan id="tspan230" y="0" x="0">-</tspan></text>
</g>
    </g>
    <g id="g232">
      <g clip-path="url(#clipPath236)" id="g234"><text id="text240" style="font-variant:normal;font-weight:normal;font-size:11.59200001px;font-family:'Roboto Condensed';-inkscape-font-specification:RobotoCondensed-Regular;writing-mode:lr-tb;fill:#000000;fill-opacity:1;fill-rule:nonzero;stroke:none" transform="matrix(1,0,0,-1,65.76,309.36)"><tspan id="tspan242" y="0" x="0 5.7120481">5%</tspan></text>
</g>
    </g>
    <g id="g244">
      <g clip-path="url(#clipPath248)" id="g246"><text id="text252" style="font-variant:normal;font-weight:normal;font-size:11.59200001px;font-family:'Roboto Condensed';-inkscape-font-specification:RobotoCondensed-Regular;writing-mode:lr-tb;fill:#000000;fill-opacity:1;fill-rule:nonzero;stroke:none" transform="matrix(1,0,0,-1,60.024,356.21)"><tspan id="tspan254" y="0" x="0 5.7120481 11.424096">10%</tspan></text>
</g>
    </g>
    <g id="g256">
      <g clip-path="url(#clipPath260)" id="g258"><text id="text264" style="font-variant:normal;font-weight:normal;font-size:11.59200001px;font-family:'Roboto Condensed';-inkscape-font-specification:RobotoCondensed-Regular;writing-mode:lr-tb;fill:#000000;fill-opacity:1;fill-rule:nonzero;stroke:none" transform="matrix(1,0,0,-1,60.024,403.06)"><tspan id="tspan266" y="0" x="0 5.7120481 11.424096">15%</tspan></text>
</g>
    </g>
    <g id="g268">
      <g clip-path="url(#clipPath272)" id="g270"><text id="text276" style="font-variant:normal;font-weight:normal;font-size:11.59200001px;font-family:'Roboto Condensed';-inkscape-font-specification:RobotoCondensed-Regular;writing-mode:lr-tb;fill:#000000;fill-opacity:1;fill-rule:nonzero;stroke:none" transform="matrix(1,0,0,-1,60.024,449.9)"><tspan id="tspan278" y="0" x="0 5.7120481 11.424096">20%</tspan></text>
</g>
    </g>
    <g id="g280">
      <g clip-path="url(#clipPath284)" id="g282"><text id="text288" style="font-variant:normal;font-weight:normal;font-size:11.59200001px;font-family:'Roboto Condensed';-inkscape-font-specification:RobotoCondensed-Regular;writing-mode:lr-tb;fill:#000000;fill-opacity:1;fill-rule:nonzero;stroke:none" transform="matrix(1,0,0,-1,60.024,496.75)"><tspan id="tspan290" y="0" x="0 5.7120481 11.424096">25%</tspan></text>
</g>
    </g>
    <g id="g292">
      <g clip-path="url(#clipPath296)" id="g294"><text id="text300" style="font-variant:normal;font-weight:normal;font-size:11.59200001px;font-family:'Roboto Condensed';-inkscape-font-specification:RobotoCondensed-Regular;writing-mode:lr-tb;fill:#000000;fill-opacity:1;fill-rule:nonzero;stroke:none" transform="matrix(1,0,0,-1,60.024,543.6)"><tspan id="tspan302" y="0" x="0 5.7120481 11.424096">30%</tspan></text>
</g>
    </g>
    <g id="g304">
      <g clip-path="url(#clipPath308)" id="g306"><text id="text312" style="font-variant:normal;font-weight:normal;font-size:11.61600018px;font-family:'Roboto Condensed';-inkscape-font-specification:RobotoCondensed-Regular;writing-mode:lr-tb;fill:#000000;fill-opacity:1;fill-rule:nonzero;stroke:none" transform="matrix(-4.4e-8,-1,-1,4.4e-8,100.9,258.6)"><tspan id="tspan314" y="0" x="0 5.7120042 11.424008 17.136011">2011</tspan></text>
</g>
    </g>
    <g id="g316">
      <g clip-path="url(#clipPath320)" id="g318"><text id="text324" style="font-variant:normal;font-weight:normal;font-size:11.59200001px;font-family:'Roboto Condensed';-inkscape-font-specification:RobotoCondensed-Regular;writing-mode:lr-tb;fill:#000000;fill-opacity:1;fill-rule:nonzero;stroke:none" transform="matrix(-4.4e-8,-1,-1,4.4e-8,131.81,258.6)"><tspan id="tspan326" y="0" x="0 5.7120481 11.424096 17.136145">2012</tspan></text>
</g>
    </g>
    <g id="g328">
      <g clip-path="url(#clipPath332)" id="g330"><text id="text336" style="font-variant:normal;font-weight:normal;font-size:11.59200001px;font-family:'Roboto Condensed';-inkscape-font-specification:RobotoCondensed-Regular;writing-mode:lr-tb;fill:#000000;fill-opacity:1;fill-rule:nonzero;stroke:none" transform="matrix(-4.4e-8,-1,-1,4.4e-8,162.72,258.6)"><tspan id="tspan338" y="0" x="0 5.7120481 11.424096 17.136145">2013</tspan></text>
</g>
    </g>
    <g id="g340">
      <g clip-path="url(#clipPath344)" id="g342"><text id="text348" style="font-variant:normal;font-weight:normal;font-size:11.59200001px;font-family:'Roboto Condensed';-inkscape-font-specification:RobotoCondensed-Regular;writing-mode:lr-tb;fill:#000000;fill-opacity:1;fill-rule:nonzero;stroke:none" transform="matrix(-4.4e-8,-1,-1,4.4e-8,193.63,258.6)"><tspan id="tspan350" y="0" x="0 5.7120481 11.424096 17.136145">2014</tspan></text>
</g>
    </g>
    <g id="g352">
      <g clip-path="url(#clipPath356)" id="g354"><text id="text360" style="font-variant:normal;font-weight:normal;font-size:11.61600018px;font-family:'Roboto Condensed';-inkscape-font-specification:RobotoCondensed-Regular;writing-mode:lr-tb;fill:#000000;fill-opacity:1;fill-rule:nonzero;stroke:none" transform="matrix(-4.4e-8,-1,-1,4.4e-8,224.57,258.6)"><tspan id="tspan362" y="0" x="0 5.7120042 11.424008 17.136011">2015</tspan></text>
</g>
    </g>
    <g id="g364">
      <g clip-path="url(#clipPath368)" id="g366"><text id="text372" style="font-variant:normal;font-weight:normal;font-size:11.59200001px;font-family:'Roboto Condensed';-inkscape-font-specification:RobotoCondensed-Regular;writing-mode:lr-tb;fill:#000000;fill-opacity:1;fill-rule:nonzero;stroke:none" transform="matrix(-4.4e-8,-1,-1,4.4e-8,255.48,258.6)"><tspan id="tspan374" y="0" x="0 5.7120481 11.424096 17.136145">2016</tspan></text>
</g>
    </g>
    <g id="g376">
      <g clip-path="url(#clipPath380)" id="g378"><text id="text384" style="font-variant:normal;font-weight:normal;font-size:11.59200001px;font-family:'Roboto Condensed';-inkscape-font-specification:RobotoCondensed-Regular;writing-mode:lr-tb;fill:#000000;fill-opacity:1;fill-rule:nonzero;stroke:none" transform="matrix(-4.4e-8,-1,-1,4.4e-8,286.39,258.6)"><tspan id="tspan386" y="0" x="0 5.7120481 11.424096 17.136145">2017</tspan></text>
</g>
    </g>
    <g id="g388">
      <g clip-path="url(#clipPath392)" id="g390"><text id="text396" style="font-variant:normal;font-weight:normal;font-size:11.59200001px;font-family:'Roboto Condensed';-inkscape-font-specification:RobotoCondensed-Regular;writing-mode:lr-tb;fill:#000000;fill-opacity:1;fill-rule:nonzero;stroke:none" transform="matrix(-4.4e-8,-1,-1,4.4e-8,317.3,258.6)"><tspan id="tspan398" y="0" x="0 5.7120481 11.424096 17.136145">2018</tspan></text>
</g>
    </g>
    <g id="g400">
      <g clip-path="url(#clipPath404)" id="g402"><text id="text408" style="font-variant:normal;font-weight:normal;font-size:11.59200001px;font-family:'Roboto Condensed';-inkscape-font-specification:RobotoCondensed-Regular;writing-mode:lr-tb;fill:#000000;fill-opacity:1;fill-rule:nonzero;stroke:none" transform="matrix(-4.4e-8,-1,-1,4.4e-8,348.22,258.6)"><tspan id="tspan410" y="0" x="0 5.7120481 11.424096 17.136145">2019</tspan></text>
</g>
    </g>
    <g id="g412">
      <g clip-path="url(#clipPath416)" id="g414"><text id="text420" style="font-variant:normal;font-weight:normal;font-size:11.59200001px;font-family:'Roboto Condensed';-inkscape-font-specification:RobotoCondensed-Regular;writing-mode:lr-tb;fill:#000000;fill-opacity:1;fill-rule:nonzero;stroke:none" transform="matrix(-4.4e-8,-1,-1,4.4e-8,379.15,258.6)"><tspan id="tspan422" y="0" x="0 5.7120481 11.424096 17.136145">2020</tspan></text>
</g>
    </g>
    <g id="g424">
      <g clip-path="url(#clipPath428)" id="g426"><text id="text432" style="font-variant:normal;font-weight:normal;font-size:11.59200001px;font-family:'Roboto Condensed';-inkscape-font-specification:RobotoCondensed-Regular;writing-mode:lr-tb;fill:#000000;fill-opacity:1;fill-rule:nonzero;stroke:none" transform="matrix(-4.4e-8,-1,-1,4.4e-8,410.06,258.6)"><tspan id="tspan434" y="0" x="0 5.7120481 11.424096 17.136145">2021</tspan></text>
</g>
    </g>
    <g id="g436">
      <g clip-path="url(#clipPath440)" id="g438"><text id="text444" style="font-variant:normal;font-weight:normal;font-size:11.59200001px;font-family:'Roboto Condensed';-inkscape-font-specification:RobotoCondensed-Regular;writing-mode:lr-tb;fill:#000000;fill-opacity:1;fill-rule:nonzero;stroke:none" transform="matrix(-4.4e-8,-1,-1,4.4e-8,440.98,258.6)"><tspan id="tspan446" y="0" x="0 5.7120481 11.424096 17.136145">2022</tspan></text>
</g>
    </g>
    <g id="g448">
      <g clip-path="url(#clipPath452)" id="g450"><text id="text456" style="font-variant:normal;font-weight:normal;font-size:11.59200001px;font-family:'Roboto Condensed';-inkscape-font-specification:RobotoCondensed-Regular;writing-mode:lr-tb;fill:#000000;fill-opacity:1;fill-rule:nonzero;stroke:none" transform="matrix(-4.4e-8,-1,-1,4.4e-8,471.89,258.6)"><tspan id="tspan458" y="0" x="0 5.7120481 11.424096 17.136145">2023</tspan></text>
</g>
    </g>
    <g id="g460">
      <g clip-path="url(#clipPath464)" id="g462"><text id="text468" style="font-variant:normal;font-weight:normal;font-size:11.61600018px;font-family:'Roboto Condensed';-inkscape-font-specification:RobotoCondensed-Regular;writing-mode:lr-tb;fill:#000000;fill-opacity:1;fill-rule:nonzero;stroke:none" transform="matrix(-4.4e-8,-1,-1,4.4e-8,502.82,258.6)"><tspan id="tspan470" y="0" x="0 5.7120042 11.424008 17.136011">2024</tspan></text>
</g>
    </g>
    <g id="g472">
      <g clip-path="url(#clipPath476)" id="g474"><text id="text480" style="font-variant:normal;font-weight:normal;font-size:11.59200001px;font-family:'Roboto Condensed';-inkscape-font-specification:RobotoCondensed-Regular;writing-mode:lr-tb;fill:#000000;fill-opacity:1;fill-rule:nonzero;stroke:none" transform="matrix(-4.4e-8,-1,-1,4.4e-8,533.74,258.6)"><tspan id="tspan482" y="0" x="0 5.7120481 11.424096 17.136145">2025</tspan></text>
</g>
    </g>
  </g>
</svg>
