<svg version="1.1" width="100%" height="100%" viewBox="0 0 500 228" xmlns="http://www.w3.org/2000/svg" xmlns:xlink="http://www.w3.org/1999/xlink"><style type="text/css" /><defs><clipPath id="clip001"><path d="M0,0 L3969.333,0 L3969.333,1900 L0,1900 Z" clip-rule="evenodd" /></clipPath><clipPath id="clip002"><path d="M0,0 L3969.333,0 L3969.333,1900 L0,1900 Z" clip-rule="evenodd" /></clipPath><clipPath id="clip003"><path d="M0,0 L3969.333,0 L3969.333,1900 L0,1900 Z" clip-rule="evenodd" /></clipPath><clipPath id="clip004"><path d="M0,0 L5200,0 L5200,2008 L0,2008 Z" clip-rule="evenodd" /></clipPath><clipPath id="clip005"><path d="M-800,0 L6000,0 L6000,2008 L-800,2008 Z" clip-rule="evenodd" /></clipPath><clipPath id="clip006"><path d="M0,0 L3960,0 L3960,1900 L0,1900 Z" clip-rule="evenodd" /></clipPath><clipPath id="clip007"><path d="M0,0 L3960,0 L3960,1900 L0,1900 Z" clip-rule="evenodd" /></clipPath><clipPath id="clip008"><path d="M260,60 L3960,60 L3960,1670.667 L260,1670.667 Z" clip-rule="evenodd" /></clipPath><clipPath id="clip009"><path d="M260,60 L3960,60 L3960,1670.667 L260,1670.667 Z" clip-rule="evenodd" /></clipPath><clipPath id="clip010"><path d="M0,0 L3960,0 L3960,1900 L0,1900 Z" clip-rule="evenodd" /></clipPath><clipPath id="clip011"><path d="M1801.333,617.3333 L1802.667,617.3333 L1802.667,1568 L1801.333,1568 Z" clip-rule="evenodd" /></clipPath><clipPath id="clip012"><path d="M0,0 L3960,0 L3960,1900 L0,1900 Z" clip-rule="evenodd" /></clipPath><clipPath id="clip013"><path d="M3034.667,45.33333 L3036,45.33333 L3036,996 L3034.667,996 Z" clip-rule="evenodd" /></clipPath><clipPath id="clip014"><path d="M0,0 L3960,0 L3960,1900 L0,1900 Z" clip-rule="evenodd" /></clipPath><clipPath id="clip015"><path d="M0,0 L3960,0 L3960,1900 L0,1900 Z" clip-rule="evenodd" /></clipPath><clipPath id="clip016"><path d="M0,0 L3960,0 L3960,1900 L0,1900 Z" clip-rule="evenodd" /></clipPath><clipPath id="clip017"><path d="M2417.333,726.6667 L2418.667,726.6667 L2418.667,1678.667 L2417.333,1678.667 Z" clip-rule="evenodd" /></clipPath><clipPath id="clip018"><path d="M0,0 L3960,0 L3960,1900 L0,1900 Z" clip-rule="evenodd" /></clipPath><clipPath id="clip019"><path d="M0,0 L3960,0 L3960,1900 L0,1900 Z" clip-rule="evenodd" /></clipPath><clipPath id="clip020"><path d="M0,0 L3960,0 L3960,1900 L0,1900 Z" clip-rule="evenodd" /></clipPath><clipPath id="clip021"><path d="M0,0 L3960,0 L3960,1900 L0,1900 Z" clip-rule="evenodd" /></clipPath><clipPath id="clip022"><path d="M0,0 L3960,0 L3960,1900 L0,1900 Z" clip-rule="evenodd" /></clipPath><clipPath id="clip023"><path d="M0,0 L3960,0 L3960,1900 L0,1900 Z" clip-rule="evenodd" /></clipPath><clipPath id="clip024"><path d="M0,0 L3960,0 L3960,1900 L0,1900 Z" clip-rule="evenodd" /></clipPath><clipPath id="clip025"><path d="M0,0 L3960,0 L3960,1900 L0,1900 Z" clip-rule="evenodd" /></clipPath><clipPath id="clip026"><path d="M0,0 L3960,0 L3960,1900 L0,1900 Z" clip-rule="evenodd" /></clipPath><clipPath id="clip027"><path d="M0,0 L3960,0 L3960,1900 L0,1900 Z" clip-rule="evenodd" /></clipPath><clipPath id="clip028"><path d="M0,0 L3960,0 L3960,1900 L0,1900 Z" clip-rule="evenodd" /></clipPath><clipPath id="clip029"><path d="M0,0 L3960,0 L3960,1900 L0,1900 Z" clip-rule="evenodd" /></clipPath><clipPath id="clip030"><path d="M0,0 L3960,0 L3960,1900 L0,1900 Z" clip-rule="evenodd" /></clipPath><clipPath id="clip031"><path d="M0,0 L3960,0 L3960,1900 L0,1900 Z" clip-rule="evenodd" /></clipPath><clipPath id="clip032"><path d="M0,0 L3960,0 L3960,1900 L0,1900 Z" clip-rule="evenodd" /></clipPath><clipPath id="clip033"><path d="M0,0 L3960,0 L3960,1900 L0,1900 Z" clip-rule="evenodd" /></clipPath><clipPath id="clip034"><path d="M0,0 L3960,0 L3960,1900 L0,1900 Z" clip-rule="evenodd" /></clipPath></defs><clipPath id="page-clip-path-1"><rect x="0" y="0" width="500" height="228" /></clipPath><g clip-path="url(#page-clip-path-1)"><g transform="translate(1,1)"><g><g transform="matrix(0.1197178,0,0,0.12,0,0)" clip-path="url(#clip001)"><g><g clip-path="url(#clip002)"><g><g clip-path="url(#clip003)"><g transform="matrix(1.000214,0,0,1.000659,0.00016276,0)"><g><g><g clip-path="url(#clip004)"><g transform="translate(3966.667,1900)" /></g></g></g><g clip-path="url(#clip005)"><g transform="matrix(0.000656168,0,0,0.000656168,0,0)"><path d="M0,0 L6035040,0 L6035040,2895600 L0,2895600 Z" fill="#ffffff" fill-opacity="0" fill-rule="evenodd" /></g></g><g clip-path="url(#clip006)"><g transform="matrix(0.000656168,0,0,0.000656168,260,60)"><path d="M0,1629664 L5638800,1629664 M0,814832 L5638800,814832 M0,0 L5638800,0 " stroke-width="12700" stroke-linejoin="round" stroke-miterlimit="13.33333" stroke="#bababa" stroke-dashoffset="0" stroke-dasharray="12700" fill="none" fill-rule="nonzero" /></g></g><g clip-path="url(#clip007)"><g transform="matrix(0.000656168,0,0,0.000656168,260,1664)"><g><path d="M0.001601601,-6773.333 L5638800,-6772 " stroke-width="3386.667" stroke-linejoin="round" stroke-miterlimit="13.33333" stroke="#000000" fill="none" fill-rule="evenodd" /><path d="M-0.000800801,3386.667 L5638800,3388 " stroke-width="10160" stroke-linejoin="round" stroke-miterlimit="13.33333" stroke="#000000" fill="none" fill-rule="evenodd" /></g></g></g><g clip-path="url(#clip008)"><g transform="matrix(0.000656168,0,0,0.000656168,568.6667,327.3333)"><path d="M0,1743456 L1879600,1379728 L1879600,1379728 L2818384,1018032 L2818384,1018032 L3759200,510032 L3759200,510032 L4697984,0 " stroke-width="33866.67" stroke-linecap="round" stroke-linejoin="round" stroke-miterlimit="13.33333" stroke="#012169" fill="none" fill-rule="nonzero" /></g></g><g clip-path="url(#clip009)"><g transform="matrix(0.000656168,0,0,0.000656168,568.6667,594)"><path d="M0,1223264 L1879600,1020064 L1879600,1020064 L2818384,713232 L2818384,713232 L3759200,408432 L3759200,408432 L4697984,0 " stroke-width="33866.67" stroke-linecap="round" stroke-linejoin="round" stroke-miterlimit="13.33333" stroke="#009cde" fill="none" fill-rule="nonzero" /></g></g><g><g clip-path="url(#clip010)"><g><g transform="translate(515.0551,1591.142)"><text><tspan x="0" y="0" font-family="Connections Cond Bld,Arial Narrow" font-weight="normal" font-style="normal" font-size="105.3333" fill="#012169">72</tspan></text></g></g></g></g><g><g clip-path="url(#clip011)"><g><g transform="translate(1801.639,1128.897)"><text><tspan x="0" y="0" font-family="Arial" font-weight="normal" font-style="normal" font-size="105.3333" fill="#000000">​</tspan></text></g></g></g></g><g><g clip-path="url(#clip012)"><g><g transform="translate(2342.333,890.8779)"><text><tspan x="0" y="0" font-family="Connections Cond Light,Arial Narrow" font-weight="normal" font-style="normal" font-size="105.3333" fill="#000000">250</tspan></text></g></g></g></g><g><g clip-path="url(#clip013)"><g><g transform="translate(3034.972,556.9803)"><text><tspan x="0" y="0" font-family="Arial" font-weight="normal" font-style="normal" font-size="105.3333" fill="#000000">​</tspan></text></g></g></g></g><g><g clip-path="url(#clip014)"><g><g transform="translate(3387.694,222.7511)"><text><tspan x="0" y="0" font-family="Connections Cond Light,Arial Narrow" font-weight="normal" font-style="normal" font-size="105.3333" fill="#000000">~500 (BofA e)</tspan></text></g></g></g></g><g><g clip-path="url(#clip015)"><g><g transform="translate(460.2599,1322.938)"><text><tspan x="0" y="0" font-family="Connections Cond Bld,Arial Narrow" font-weight="normal" font-style="normal" font-size="105.3333" fill="#000000">100</tspan></text></g></g></g></g><g><g clip-path="url(#clip016)"><g><g transform="translate(1725.667,1433.795)"><text><tspan x="0" y="0" font-family="Connections Cond Light,Arial Narrow" font-weight="normal" font-style="normal" font-size="105.3333" fill="#000000">150</tspan></text></g></g></g></g><g><g clip-path="url(#clip017)"><g><g transform="translate(2418.305,1238.69)"><text><tspan x="0" y="0" font-family="Arial" font-weight="normal" font-style="normal" font-size="105.3333" fill="#000000">​</tspan></text></g></g></g></g><g><g clip-path="url(#clip018)"><g><g transform="translate(2959,1032.919)"><text><tspan x="0" y="0" font-family="Connections Cond Light,Arial Narrow" font-weight="normal" font-style="normal" font-size="105.3333" fill="#000000">300</tspan></text></g></g></g></g><g><g clip-path="url(#clip019)"><g><g transform="translate(3347.472,836.3687)"><text><tspan x="0" y="0" font-family="Connections Cond Light,Arial Narrow" font-weight="normal" font-style="normal" font-size="105.3333" fill="#000000">~400 (BofA e)</tspan></text></g></g></g></g><g><g clip-path="url(#clip020)"><g><g transform="translate(118,1693.198)"><text><tspan x="0" y="0" font-family="Connections Cond Light,Arial Narrow" font-weight="normal" font-style="normal" font-size="105.3333" fill="#000000">0</tspan></text></g></g></g></g><g><g clip-path="url(#clip021)"><g><g transform="translate(16.66667,1158.696)"><text><tspan x="0" y="0" font-family="Connections Cond Light,Arial Narrow" font-weight="normal" font-style="normal" font-size="105.3333" fill="#000000">200</tspan></text></g></g></g></g><g><g clip-path="url(#clip022)"><g><g transform="translate(16.66667,624.196)"><text><tspan x="0" y="0" font-family="Connections Cond Light,Arial Narrow" font-weight="normal" font-style="normal" font-size="105.3333" fill="#000000">400</tspan></text></g></g></g></g><g><g clip-path="url(#clip023)"><g><g transform="translate(16.66667,89.69466)"><text><tspan x="0" y="0" font-family="Connections Cond Light,Arial Narrow" font-weight="normal" font-style="normal" font-size="105.3333" fill="#000000">600</tspan></text></g></g></g></g><g><g clip-path="url(#clip024)"><g><g transform="translate(430.7498,1819.447)"><text><tspan x="0" y="0" font-family="Connections Cond Light,Arial Narrow" font-weight="normal" font-style="normal" font-size="105.3333" fill="#000000">Dec-25</tspan></text></g></g></g></g><g><g clip-path="url(#clip025)"><g><g transform="translate(1061.75,1819.447)"><text><tspan x="0" y="0" font-family="Connections Cond Light,Arial Narrow" font-weight="normal" font-style="normal" font-size="105.3333" fill="#000000">Jan-26</tspan></text></g></g></g></g><g><g clip-path="url(#clip026)"><g><g transform="translate(1665.583,1819.447)"><text><tspan x="0" y="0" font-family="Connections Cond Light,Arial Narrow" font-weight="normal" font-style="normal" font-size="105.3333" fill="#000000">Feb-26</tspan></text></g></g></g></g><g><g clip-path="url(#clip027)"><g><g transform="translate(2277.833,1819.447)"><text><tspan x="0" y="0" font-family="Connections Cond Light,Arial Narrow" font-weight="normal" font-style="normal" font-size="105.3333" fill="#000000">Mar-26</tspan></text></g></g></g></g><g><g clip-path="url(#clip028)"><g><g transform="translate(2903.083,1819.447)"><text><tspan x="0" y="0" font-family="Connections Cond Light,Arial Narrow" font-weight="normal" font-style="normal" font-size="105.3333" fill="#000000">Apr-26</tspan></text></g></g></g></g><g><g clip-path="url(#clip029)"><g><g transform="translate(3505.305,1819.447)"><text><tspan x="0" y="0" font-family="Connections Cond Light,Arial Narrow" font-weight="normal" font-style="normal" font-size="105.3333" fill="#000000">May-26</tspan></text></g></g></g></g><g clip-path="url(#clip030)"><g transform="matrix(0.000656168,0,0,0.000656168,325.3333,46.66667)"><path d="M0,0 L4401312,0 L4401312,223520 L0,223520 Z" fill="#156082" fill-opacity="0" fill-rule="evenodd" /></g></g><g clip-path="url(#clip031)"><g transform="matrix(0.000656168,0,0,0.000656168,807.3333,119.3333)"><path d="M0,0 L325120,1.333333 " stroke-width="33866.67" stroke-linecap="round" stroke-linejoin="round" stroke-miterlimit="13.33333" stroke="#012169" fill="none" fill-rule="evenodd" /></g></g><g><g clip-path="url(#clip032)"><g><g transform="translate(1042.714,149.4812)"><text><tspan x="0" y="0" font-family="Connections Cond Light,Arial Narrow" font-weight="normal" font-style="normal" font-size="105.3333" fill="#000000">Zhipu (LHS)</tspan></text></g></g></g></g><g clip-path="url(#clip033)"><g transform="matrix(0.000656168,0,0,0.000656168,1971.333,119.3333)"><path d="M0,0 L325120,1.333333 " stroke-width="33866.67" stroke-linecap="round" stroke-linejoin="round" stroke-miterlimit="13.33333" stroke="#009cde" fill="none" fill-rule="evenodd" /></g></g><g><g clip-path="url(#clip034)"><g><g transform="translate(2207.617,149.4812)"><text><tspan x="0" y="0" font-family="Connections Cond Light,Arial Narrow" font-weight="normal" font-style="normal" font-size="105.3333" fill="#000000">MiniMax (LHS)</tspan></text></g></g></g></g><g /></g></g></g></g></g></g></g></g></g></svg>