<?xml version="1.0" encoding="UTF-8" standalone="no"?>
<svg xmlns:dc="http://purl.org/dc/elements/1.1/" xmlns:cc="http://creativecommons.org/ns#" xmlns:rdf="http://www.w3.org/1999/02/22-rdf-syntax-ns#" xmlns:svg="http://www.w3.org/2000/svg" xmlns="http://www.w3.org/2000/svg" viewBox="63.03125 233.875 638.875 522.125" height="522.125" width="638.875" xml:space="preserve" version="1.1" id="svg2">
  <metadata id="metadata8">
    <rdf:RDF>
      <cc:Work rdf:about="">
        <dc:format>image/svg+xml</dc:format>
        <dc:type rdf:resource="http://purl.org/dc/dcmitype/StillImage"/>
      </cc:Work>
    </rdf:RDF>
  </metadata>
  <defs id="defs6">
    <clipPath id="clipPath16" clipPathUnits="userSpaceOnUse">
      <path style="clip-rule:evenodd" id="path18" d="m 50.4,187.2 511.2,0 0,417.72 -511.2,0 0,-417.72 z"/>
    </clipPath>
    <clipPath id="clipPath34" clipPathUnits="userSpaceOnUse">
      <path style="clip-rule:evenodd" id="path36" d="m 108.14,259.43 403.61,0 0,299.85 -403.61,0 0,-299.85 z"/>
    </clipPath>
    <clipPath id="clipPath44" clipPathUnits="userSpaceOnUse">
      <path style="clip-rule:evenodd" id="path46" d="m 108.14,259.43 403.61,0 0,299.85 -403.61,0 0,-299.85 z"/>
    </clipPath>
    <clipPath id="clipPath54" clipPathUnits="userSpaceOnUse">
      <path style="clip-rule:evenodd" id="path56" d="m 108.14,259.43 403.61,0 0,299.85 -403.61,0 0,-299.85 z"/>
    </clipPath>
    <clipPath id="clipPath64" clipPathUnits="userSpaceOnUse">
      <path style="clip-rule:evenodd" id="path66" d="m 108.14,259.43 403.61,0 0,299.85 -403.61,0 0,-299.85 z"/>
    </clipPath>
    <clipPath id="clipPath74" clipPathUnits="userSpaceOnUse">
      <path style="clip-rule:evenodd" id="path76" d="m 108.14,259.43 403.61,0 0,299.85 -403.61,0 0,-299.85 z"/>
    </clipPath>
    <clipPath id="clipPath84" clipPathUnits="userSpaceOnUse">
      <path style="clip-rule:evenodd" id="path86" d="m 108.14,259.43 403.61,0 0,299.85 -403.61,0 0,-299.85 z"/>
    </clipPath>
    <clipPath id="clipPath94" clipPathUnits="userSpaceOnUse">
      <path style="clip-rule:evenodd" id="path96" d="m 108.14,259.43 403.61,0 0,299.85 -403.61,0 0,-299.85 z"/>
    </clipPath>
    <clipPath id="clipPath104" clipPathUnits="userSpaceOnUse">
      <path style="clip-rule:evenodd" id="path106" d="m 108.14,259.43 403.61,0 0,299.85 -403.61,0 0,-299.85 z"/>
    </clipPath>
    <clipPath id="clipPath114" clipPathUnits="userSpaceOnUse">
      <path style="clip-rule:evenodd" id="path116" d="m 50.52,187.32 510.96,0 0,417.48 -510.96,0 0,-417.48 z"/>
    </clipPath>
    <clipPath id="clipPath126" clipPathUnits="userSpaceOnUse">
      <path style="clip-rule:evenodd" id="path128" d="m 50.52,187.32 510.96,0 0,417.48 -510.96,0 0,-417.48 z"/>
    </clipPath>
    <clipPath id="clipPath138" clipPathUnits="userSpaceOnUse">
      <path style="clip-rule:evenodd" id="path140" d="m 50.52,187.32 510.96,0 0,417.48 -510.96,0 0,-417.48 z"/>
    </clipPath>
    <clipPath id="clipPath150" clipPathUnits="userSpaceOnUse">
      <path style="clip-rule:evenodd" id="path152" d="m 50.52,187.32 510.96,0 0,417.48 -510.96,0 0,-417.48 z"/>
    </clipPath>
    <clipPath id="clipPath162" clipPathUnits="userSpaceOnUse">
      <path style="clip-rule:evenodd" id="path164" d="m 50.52,187.32 510.96,0 0,417.48 -510.96,0 0,-417.48 z"/>
    </clipPath>
    <clipPath id="clipPath174" clipPathUnits="userSpaceOnUse">
      <path style="clip-rule:evenodd" id="path176" d="m 50.52,187.32 510.96,0 0,417.48 -510.96,0 0,-417.48 z"/>
    </clipPath>
    <clipPath id="clipPath186" clipPathUnits="userSpaceOnUse">
      <path style="clip-rule:evenodd" id="path188" d="m 50.52,187.32 510.96,0 0,417.48 -510.96,0 0,-417.48 z"/>
    </clipPath>
    <clipPath id="clipPath198" clipPathUnits="userSpaceOnUse">
      <path style="clip-rule:evenodd" id="path200" d="m 50.52,187.32 510.96,0 0,417.48 -510.96,0 0,-417.48 z"/>
    </clipPath>
    <clipPath id="clipPath210" clipPathUnits="userSpaceOnUse">
      <path style="clip-rule:evenodd" id="path212" d="m 50.52,187.32 510.96,0 0,417.48 -510.96,0 0,-417.48 z"/>
    </clipPath>
    <clipPath id="clipPath222" clipPathUnits="userSpaceOnUse">
      <path style="clip-rule:evenodd" id="path224" d="m 50.52,187.32 510.96,0 0,417.48 -510.96,0 0,-417.48 z"/>
    </clipPath>
    <clipPath id="clipPath234" clipPathUnits="userSpaceOnUse">
      <path style="clip-rule:evenodd" id="path236" d="m 50.52,187.32 510.96,0 0,417.48 -510.96,0 0,-417.48 z"/>
    </clipPath>
    <clipPath id="clipPath246" clipPathUnits="userSpaceOnUse">
      <path style="clip-rule:evenodd" id="path248" d="m 50.52,187.32 510.96,0 0,417.48 -510.96,0 0,-417.48 z"/>
    </clipPath>
    <clipPath id="clipPath258" clipPathUnits="userSpaceOnUse">
      <path style="clip-rule:evenodd" id="path260" d="m 50.52,187.32 510.96,0 0,417.48 -510.96,0 0,-417.48 z"/>
    </clipPath>
    <clipPath id="clipPath270" clipPathUnits="userSpaceOnUse">
      <path style="clip-rule:evenodd" id="path272" d="m 50.52,187.32 510.96,0 0,417.48 -510.96,0 0,-417.48 z"/>
    </clipPath>
    <clipPath id="clipPath282" clipPathUnits="userSpaceOnUse">
      <path style="clip-rule:evenodd" id="path284" d="m 50.52,187.32 510.96,0 0,417.48 -510.96,0 0,-417.48 z"/>
    </clipPath>
    <clipPath id="clipPath294" clipPathUnits="userSpaceOnUse">
      <path style="clip-rule:evenodd" id="path296" d="m 50.52,187.32 510.96,0 0,417.48 -510.96,0 0,-417.48 z"/>
    </clipPath>
    <clipPath id="clipPath306" clipPathUnits="userSpaceOnUse">
      <path style="clip-rule:evenodd" id="path308" d="m 50.52,187.32 510.96,0 0,417.48 -510.96,0 0,-417.48 z"/>
    </clipPath>
    <clipPath id="clipPath318" clipPathUnits="userSpaceOnUse">
      <path style="clip-rule:evenodd" id="path320" d="m 50.52,187.32 510.96,0 0,417.48 -510.96,0 0,-417.48 z"/>
    </clipPath>
    <clipPath id="clipPath330" clipPathUnits="userSpaceOnUse">
      <path style="clip-rule:evenodd" id="path332" d="m 50.52,187.32 510.96,0 0,417.48 -510.96,0 0,-417.48 z"/>
    </clipPath>
    <clipPath id="clipPath342" clipPathUnits="userSpaceOnUse">
      <path style="clip-rule:evenodd" id="path344" d="m 50.52,187.32 510.96,0 0,417.48 -510.96,0 0,-417.48 z"/>
    </clipPath>
    <clipPath id="clipPath354" clipPathUnits="userSpaceOnUse">
      <path style="clip-rule:evenodd" id="path356" d="m 50.52,187.32 510.96,0 0,417.48 -510.96,0 0,-417.48 z"/>
    </clipPath>
    <clipPath id="clipPath366" clipPathUnits="userSpaceOnUse">
      <path style="clip-rule:evenodd" id="path368" d="m 50.52,187.32 510.96,0 0,417.48 -510.96,0 0,-417.48 z"/>
    </clipPath>
    <clipPath id="clipPath378" clipPathUnits="userSpaceOnUse">
      <path style="clip-rule:evenodd" id="path380" d="m 50.52,187.32 510.96,0 0,417.48 -510.96,0 0,-417.48 z"/>
    </clipPath>
    <clipPath id="clipPath392" clipPathUnits="userSpaceOnUse">
      <path style="clip-rule:evenodd" id="path394" d="m 50.52,187.32 510.96,0 0,417.48 -510.96,0 0,-417.48 z"/>
    </clipPath>
    <clipPath id="clipPath406" clipPathUnits="userSpaceOnUse">
      <path style="clip-rule:evenodd" id="path408" d="m 50.52,187.32 510.96,0 0,417.48 -510.96,0 0,-417.48 z"/>
    </clipPath>
    <clipPath id="clipPath420" clipPathUnits="userSpaceOnUse">
      <path style="clip-rule:evenodd" id="path422" d="m 50.52,187.32 510.96,0 0,417.48 -510.96,0 0,-417.48 z"/>
    </clipPath>
    <clipPath id="clipPath434" clipPathUnits="userSpaceOnUse">
      <path style="clip-rule:evenodd" id="path436" d="m 50.52,187.32 510.96,0 0,417.48 -510.96,0 0,-417.48 z"/>
    </clipPath>
    <clipPath id="clipPath448" clipPathUnits="userSpaceOnUse">
      <path style="clip-rule:evenodd" id="path450" d="m 50.52,187.32 510.96,0 0,417.48 -510.96,0 0,-417.48 z"/>
    </clipPath>
    <clipPath id="clipPath462" clipPathUnits="userSpaceOnUse">
      <path style="clip-rule:evenodd" id="path464" d="m 50.52,187.32 510.96,0 0,417.48 -510.96,0 0,-417.48 z"/>
    </clipPath>
    <clipPath id="clipPath476" clipPathUnits="userSpaceOnUse">
      <path style="clip-rule:evenodd" id="path478" d="m 50.52,187.32 510.96,0 0,417.48 -510.96,0 0,-417.48 z"/>
    </clipPath>
    <clipPath id="clipPath490" clipPathUnits="userSpaceOnUse">
      <path style="clip-rule:evenodd" id="path492" d="m 50.52,187.32 510.96,0 0,417.48 -510.96,0 0,-417.48 z"/>
    </clipPath>
    <clipPath id="clipPath502" clipPathUnits="userSpaceOnUse">
      <path style="clip-rule:evenodd" id="path504" d="m 50.52,565.8 366.48,0 0,31.68 -366.48,0 0,-31.68 z"/>
    </clipPath>
  </defs>
  <g transform="matrix(1.25,0,0,-1.25,0,990)" id="g10">
    <g id="g12">
      <g clip-path="url(#clipPath16)" id="g14">
        <path id="path20" style="fill:none;stroke:#000000;stroke-width:0.14;stroke-linecap:butt;stroke-linejoin:miter;stroke-miterlimit:10;stroke-dasharray:none;stroke-opacity:0" d="m 50.495,187.27 510.96,0 0,417.56 -510.96,0 0,-417.56 z"/>
      </g>
    </g>
    <path id="path22" style="fill:#ffffff;fill-opacity:1;fill-rule:evenodd;stroke:none" d="m 50.496,187.27 510.96,0 0,417.56 -510.96,0 0,-417.56 z"/>
    <path id="path24" style="fill:#ffffff;fill-opacity:1;fill-rule:evenodd;stroke:none" d="m 108.18,260.62 402.32,0 0,298.56 -402.32,0 0,-298.56 z"/>
    <path id="path26" style="fill:none;stroke:#c0c0c0;stroke-width:0.93585002;stroke-linecap:butt;stroke-linejoin:round;stroke-miterlimit:10;stroke-dasharray:none;stroke-opacity:1" d="m 108.18,293.79 402.32,0 m -402.32,33.24 402.32,0 m -402.32,33.02 402.32,0 m -402.32,33.24 402.32,0 m -402.32,33.24 402.32,0 m -402.32,33.02 402.32,0 m -402.32,33.24 402.32,0 m -402.32,33.24 402.32,0 m -402.32,33.15 402.32,0"/>
    <path id="path28" style="fill:none;stroke:#969696;stroke-width:0.93585002;stroke-linecap:butt;stroke-linejoin:round;stroke-miterlimit:10;stroke-dasharray:none;stroke-opacity:1" d="m 108.18,260.62 402.32,0"/>
    <g id="g30">
      <g clip-path="url(#clipPath34)" id="g32">
        <path id="path38" style="fill:none;stroke:#d0b86a;stroke-width:3.7434001;stroke-linecap:round;stroke-linejoin:round;stroke-miterlimit:10;stroke-dasharray:none;stroke-opacity:1" d="m 110.01,260.62 3.75,0.83 3.59,0 3.59,0.22 3.6,0.45 3.82,0.23 3.59,0.67 3.59,0.45 3.82,1.12 3.59,1.8 3.6,26.73 3.59,0.89 3.82,0.23 3.59,0.22 3.6,0.23 3.82,0 3.59,0.45 3.59,0.45 3.6,0.89 3.81,0 3.6,0.23 3.59,0 3.82,0.22 3.59,0 3.6,0 3.59,0.23 3.82,0 3.59,0.22 3.6,0.23 3.82,0.45 3.59,2.69 3.59,2.47 3.6,0.23 3.81,0.22 3.6,0 3.59,0 3.82,0.23 3.59,0 3.6,0.45 3.59,0.22 3.82,0 3.59,0.23 3.6,0 3.82,0.22 3.59,0.22 3.59,0.45 3.6,0.45 3.81,0.23 3.6,1.57 3.59,7.41 3.82,3.82 3.59,0.45 3.6,0.22 3.59,0.23 3.82,0.67 3.59,0.23 3.6,0.22 3.59,0 3.82,1.12 3.59,0.9 3.6,0.23 3.81,0.22 3.6,0.23 3.59,0.22 3.6,0.45 3.81,0.9 3.6,1.12 3.59,0.9 3.82,2.02 3.59,8.54 3.6,11.23 3.59,19.99 3.82,53 3.59,2.7 3.6,2.92 3.81,0.9 3.6,0.22 3.59,0 3.6,0.23 3.81,0 3.6,0.22 3.59,0.23 3.82,0 3.59,0.89 3.6,0.23 3.59,0 3.82,0.22 3.59,0.23 3.6,0 3.81,0.9 3.6,0.22 3.59,0.9 3.6,0.45 3.81,1.35 3.6,13.7 3.59,0 3.82,0.22 3.59,0 3.6,0.23 3.59,0.22 3.82,0.23 3.59,0 3.6,0 3.81,1.12 3.6,0 3.59,0.22 3.59,0.23 3.82,0.45 3.6,0.67 3.65,1.97"/>
      </g>
    </g>
    <g id="g40">
      <g clip-path="url(#clipPath44)" id="g42">
        <path id="path48" style="fill:none;stroke:#005aa4;stroke-width:3.7434001;stroke-linecap:round;stroke-linejoin:round;stroke-miterlimit:10;stroke-dasharray:none;stroke-opacity:1" d="m 110.01,260.62 3.75,0.38 3.59,0.22 3.59,0.45 3.6,0 3.82,0.45 3.59,0.23 3.59,0.44 3.82,2.25 3.59,2.25 3.6,18.64 3.59,0.67 3.82,0.23 3.59,0.22 3.6,0.23 3.82,0.22 3.59,0.45 3.59,0.22 3.6,0.23 3.81,0.22 3.6,1.13 3.59,1.79 3.82,4.05 3.59,0.67 3.6,0.23 3.59,0.22 3.82,0.22 3.59,0.23 3.6,0.45 3.82,0.22 3.59,0.23 3.59,2.69 3.6,2.92 3.81,0 3.6,0.23 3.59,0 3.82,0.22 3.59,0 3.6,0.45 3.59,0 3.82,0.23 3.59,0 3.6,0.22 3.82,0 3.59,0.22 3.59,0.45 3.6,0.68 3.81,0.45 3.6,1.57 3.59,1.57 3.82,8.09 3.59,6.06 3.6,0.45 3.59,0.45 3.82,0 3.59,0.45 3.6,1.12 3.59,0.45 3.82,0.45 3.59,0.23 3.6,0.89 3.81,0.68 3.6,0.22 3.59,0.45 3.6,0.23 3.81,0.89 3.6,0.68 3.59,1.12 3.82,2.02 3.59,11.01 3.6,15.05 3.59,31.44 3.82,85.8 3.59,2.92 3.6,0 3.81,0.45 3.6,1.57 3.59,0.23 3.6,1.34 3.81,0.68 3.6,0.22 3.59,0.45 3.82,0.23 3.59,1.79 3.6,9.89 3.59,0.22 3.82,0.22 3.59,0 3.6,0.23 3.81,0.22 3.6,0.9 3.59,0.45 3.6,0.68 3.81,1.34 3.6,12.36 3.59,0.67 3.82,0.22 3.59,0 3.6,0 3.59,0.23 3.82,0 3.59,0.22 3.6,0 3.81,0.23 3.6,0.22 3.59,0 3.59,0.23 3.82,0.22 3.6,0.45 3.65,0.46"/>
      </g>
    </g>
    <g id="g50">
      <g clip-path="url(#clipPath54)" id="g52">
        <path id="path58" style="fill:none;stroke:#3bc3a3;stroke-width:3.7434001;stroke-linecap:round;stroke-linejoin:round;stroke-miterlimit:10;stroke-dasharray:none;stroke-opacity:1" d="m 110.01,260.62 3.75,0.38 3.59,0.45 3.59,1.12 3.6,0.22 3.82,0.23 3.59,0.22 3.59,0.45 3.82,1.13 3.59,4.26 3.6,16.85 3.59,1.12 3.82,0.23 3.59,0 3.6,0.45 3.82,0.22 3.59,0 3.59,0.22 3.6,0.23 3.81,0 3.6,0.45 3.59,0 3.82,0.22 3.59,0 3.6,0 3.59,0.23 3.82,0 3.59,0 3.6,0.22 3.82,0.68 3.59,0.45 3.59,1.57 3.6,5.84 3.81,0.45 3.6,0 3.59,0.22 3.82,0 3.59,0 3.6,0.23 3.59,0 3.82,0.22 3.59,0 3.6,0.22 3.82,0 3.59,0.23 3.59,0 3.6,0.22 3.81,0.68 3.6,0.67 3.59,0.68 3.82,1.34 3.59,3.6 3.6,11.68 3.59,0.22 3.82,0.23 3.59,0.22 3.6,0 3.59,0.45 3.82,0.45 3.59,0 3.6,0.9 3.81,0.9 3.6,1.12 3.59,0.22 3.6,0.23 3.81,0.45 3.6,0.22 3.59,1.12 3.82,1.35 3.59,1.8 3.6,3.37 3.59,10.11 3.82,35.48 3.59,84.23 3.6,2.92 3.81,0.9 3.6,2.92 3.59,0.22 3.6,0 3.81,0.23 3.6,0.22 3.59,0 3.82,0.23 3.59,0 3.6,0.45 3.59,0.67 3.82,0 3.59,0.22 3.6,0.23 3.81,0 3.6,0.22 3.59,0 3.6,0.68 3.81,0.45 3.6,1.34 3.59,9.66 3.82,0.45 3.59,0.23 3.6,0 3.59,0 3.82,0 3.59,0.22 3.6,0.22 3.81,0 3.6,0.23 3.59,0 3.59,0 3.82,0.22 3.6,0.45 3.65,0.34"/>
      </g>
    </g>
    <g id="g60">
      <g clip-path="url(#clipPath64)" id="g62">
        <path id="path68" style="fill:none;stroke:#00a1e2;stroke-width:3.7434001;stroke-linecap:round;stroke-linejoin:round;stroke-miterlimit:10;stroke-dasharray:none;stroke-opacity:1" d="m 110.01,260.62 3.75,0.6 3.59,0.23 3.59,0.67 3.6,0.23 3.82,0.22 3.59,0.22 3.59,0.45 3.82,1.13 3.59,3.81 3.6,9.21 3.59,0.68 3.82,-0.23 3.59,0.23 3.6,0.67 3.82,0.23 3.59,0 3.59,0.22 3.6,0.23 3.81,0 3.6,0.44 3.59,0.23 3.82,0.22 3.59,0.23 3.6,0 3.59,0.22 3.82,0 3.59,0.23 3.6,0.67 3.82,2.25 3.59,1.79 3.59,4.27 3.6,0.23 3.81,0.22 3.6,0 3.59,0.23 3.82,0 3.59,0.22 3.6,0 3.59,0 3.82,0.22 3.59,0.23 3.6,0 3.82,0 3.59,0.45 3.59,0.22 3.6,0.23 3.81,0.67 3.6,0.9 3.59,3.82 3.82,7.86 3.59,0.45 3.6,0.22 3.59,0.23 3.82,0.22 3.59,0 3.6,0.45 3.59,0.23 3.82,0.22 3.59,0.23 3.6,1.12 3.81,0.22 3.6,0.45 3.59,0.45 3.6,0.23 3.81,0.67 3.6,3.14 3.59,0.68 3.82,2.92 3.59,1.57 3.6,4.94 3.59,11.23 3.82,29.2 3.59,25.61 3.6,32.56 3.81,3.37 3.6,2.47 3.59,1.57 3.6,0.23 3.81,0.45 3.6,1.35 3.59,0 3.82,0.45 3.59,0 3.6,0.22 3.59,0 3.82,0.22 3.59,0.23 3.6,0 3.81,0.22 3.6,0 3.59,0.45 3.6,2.25 3.81,6.74 3.6,0.45 3.59,0.22 3.82,0.23 3.59,0.22 3.6,0.22 3.59,0 3.82,0 3.59,0.23 3.6,0.45 3.81,0.22 3.6,0 3.59,0.23 3.59,0.22 3.82,0.23 3.6,0.22 3.65,0.9"/>
      </g>
    </g>
    <g id="g70">
      <g clip-path="url(#clipPath74)" id="g72">
        <path id="path78" style="fill:none;stroke:#6769b5;stroke-width:3.7434001;stroke-linecap:round;stroke-linejoin:round;stroke-miterlimit:10;stroke-dasharray:none;stroke-opacity:1" d="m 110.01,260.62 3.75,0.6 3.59,0 3.59,0.23 3.6,0.22 3.82,0.9 3.59,0.22 3.59,0.45 3.82,0.68 3.59,0.9 3.6,4.04 3.59,6.96 3.82,1.12 3.59,0 3.6,0.23 3.82,0 3.59,0 3.59,0.22 3.6,0 3.81,0.23 3.6,0.22 3.59,0.23 3.82,0 3.59,0.22 3.6,0 3.59,0 3.82,0.23 3.59,0 3.6,0.67 3.82,0.23 3.59,1.57 3.59,4.04 3.6,0 3.81,0.22 3.6,0 3.59,0.23 3.82,0 3.59,0.22 3.6,0 3.59,0.68 3.82,0 3.59,0.22 3.6,0 3.82,0.23 3.59,0.22 3.59,0 3.6,0.45 3.81,1.35 3.6,1.12 3.59,3.37 3.82,8.54 3.59,0.44 3.6,0.23 3.59,0.22 3.82,0 3.59,0.23 3.6,0 3.59,0.22 3.82,0.23 3.59,0.22 3.6,0.23 3.81,1.34 3.6,0.45 3.59,0.68 3.6,0.22 3.81,0.68 3.6,3.81 3.59,0.9 3.82,1.57 3.59,1.35 3.6,3.15 3.59,8.08 3.82,31.45 3.59,33.69 3.6,30.32 3.81,1.12 3.6,0.68 3.59,2.24 3.6,0.23 3.81,0.22 3.6,0.23 3.59,0.22 3.82,0.67 3.59,0 3.6,0.68 3.59,0.45 3.82,0.22 3.59,0 3.6,0.23 3.81,0.22 3.6,0 3.59,0.23 3.6,0.67 3.81,3.37 3.6,4.04 3.59,0.23 3.82,0 3.59,0.22 3.6,0 3.59,0.23 3.82,0.22 3.59,0.23 3.6,0 3.81,0.22 3.6,0.45 3.59,-0.23 3.59,0.23 3.82,0.22 3.6,0.45 3.65,0.42"/>
      </g>
    </g>
    <g id="g80">
      <g clip-path="url(#clipPath84)" id="g82">
        <path id="path88" style="fill:none;stroke:#93959b;stroke-width:3.7434001;stroke-linecap:round;stroke-linejoin:round;stroke-miterlimit:10;stroke-dasharray:none;stroke-opacity:1" d="m 110.01,260.62 3.75,0.15 3.59,0 3.59,0.23 3.6,0 3.82,0.22 3.59,0.68 3.59,0 3.82,0.89 3.59,1.8 3.6,14.6 3.59,0.45 3.82,0 3.59,0.22 3.6,0 3.82,0.23 3.59,0.22 3.59,0.23 3.6,0.22 3.81,0.68 3.6,0 3.59,0 3.82,0.45 3.59,0 3.6,0.22 3.59,0.45 3.82,0 3.59,0.45 3.6,0.45 3.82,1.57 3.59,1.8 3.59,0 3.6,0.22 3.81,0 3.6,0.23 3.59,0 3.82,0 3.59,0.22 3.6,0 3.59,0.23 3.82,0 3.59,0.22 3.6,0 3.82,0.22 3.59,0.23 3.59,0 3.6,0.45 3.81,0.9 3.6,4.26 3.59,9.21 3.82,1.13 3.59,0.22 3.6,0 3.59,0 3.82,0.23 3.59,0 3.6,0.22 3.59,0.45 3.82,0.22 3.59,1.13 3.6,0.22 3.81,4.04 3.6,0.68 3.59,0.22 3.6,0.45 3.81,0.23 3.6,2.92 3.59,1.12 3.82,2.02 3.59,5.39 3.6,6.29 3.59,18.87 3.82,57.72 3.59,4.04 3.6,0 3.81,1.8 3.6,0.22 3.59,0 3.6,0.23 3.81,0.22 3.6,0.23 3.59,0.45 3.82,0.22 3.59,0.23 3.6,0 3.59,0.22 3.82,0 3.59,0.23 3.6,0 3.81,0.22 3.6,0.45 3.59,0.22 3.6,0.45 3.81,2.7 3.6,6.74 3.59,0.22 3.82,0.23 3.59,0 3.6,0.22 3.59,0 3.82,0.23 3.59,0.22 3.6,0.22 3.81,6.29 3.6,0 3.59,0.23 3.59,0.67 3.82,0.45 3.6,0.45 3.65,0.55"/>
      </g>
    </g>
    <g id="g90">
      <g clip-path="url(#clipPath94)" id="g92">
        <path id="path98" style="fill:none;stroke:#97d0ff;stroke-width:3.7434001;stroke-linecap:round;stroke-linejoin:round;stroke-miterlimit:10;stroke-dasharray:none;stroke-opacity:1" d="m 110.01,260.62 3.75,0.15 3.59,0.45 3.59,0.23 3.6,0 3.82,0.22 3.59,0.23 3.59,0.22 3.82,0.9 3.59,1.12 3.6,8.09 3.59,0.45 3.82,0 3.59,0.22 3.6,0 3.82,0.23 3.59,0 3.59,0 3.6,0 3.81,0.22 3.6,0.23 3.59,0.67 3.82,0.22 3.59,0 3.6,0 3.59,0.23 3.82,0 3.59,0 3.6,0.22 3.82,0 3.59,0.45 3.59,3.15 3.6,0.9 3.81,0.22 3.6,0 3.59,0 3.82,0 3.59,0 3.6,0.22 3.59,0 3.82,0.23 3.59,0 3.6,0 3.82,0.22 3.59,0 3.59,0 3.6,0.23 3.81,0.22 3.6,0.23 3.59,1.12 3.82,6.51 3.59,4.72 3.6,0.23 3.59,0.22 3.82,0 3.59,0 3.6,0.22 3.59,0.68 3.82,0.22 3.59,0 3.6,0 3.81,0.23 3.6,0 3.59,0 3.6,0.22 3.81,0 3.6,0 3.59,0.23 3.82,0 3.59,0.22 3.6,0.23 3.59,0.45 3.82,0.89 3.59,3.37 3.6,0.23 3.81,2.24 3.6,0 3.59,0.23 3.6,0 3.81,0 3.6,0 3.59,0 3.82,0.22 3.59,0 3.6,0 3.59,0.23 3.82,0 3.59,0 3.6,0 3.81,0 3.6,0 3.59,0.22 3.6,0 3.81,0 3.6,0.45 3.59,1.57 3.82,0 3.59,0 3.6,0 3.59,0.23 3.82,0.22 3.59,0 3.6,0 3.81,0 3.6,0.23 3.59,0 3.59,0 3.82,0 3.6,0.22 3.65,-0.01"/>
      </g>
    </g>
    <g id="g100">
      <g clip-path="url(#clipPath104)" id="g102">
        <path id="path108" style="fill:none;stroke:#a9a9a9;stroke-width:3.7434001;stroke-linecap:round;stroke-linejoin:round;stroke-miterlimit:10;stroke-dasharray:none;stroke-opacity:1" d="m 110.01,260.62 3.75,0.15 3.59,0.45 3.59,0 3.6,0.23 3.82,0.22 3.59,0 3.59,0.23 3.82,0.67 3.59,1.57 3.6,6.29 3.59,0 3.82,0 3.59,0.23 3.6,0 3.82,0.22 3.59,0.22 3.59,0 3.6,0 3.81,0 3.6,0.23 3.59,0 3.82,0.22 3.59,0 3.6,0.23 3.59,0 3.82,0 3.59,0 3.6,0.22 3.82,0.23 3.59,0.22 3.59,0.45 3.6,2.02 3.81,0 3.6,0.23 3.59,0 3.82,0 3.59,0 3.6,0.45 3.59,0.22 3.82,0 3.59,0.23 3.6,0 3.82,0 3.59,0.22 3.59,0 3.6,0.23 3.81,0.22 3.6,0.22 3.59,0.45 3.82,2.03 3.59,9.65 3.6,0.23 3.59,0 3.82,0.22 3.59,0 3.6,0 3.59,0.23 3.82,0.9 3.59,0 3.6,0.89 3.81,0.9 3.6,1.13 3.59,0.22 3.6,0.22 3.81,0.23 3.6,0.22 3.59,0.45 3.82,0.9 3.59,1.57 3.6,5.17 3.59,12.35 3.82,40.43 3.59,1.35 3.6,0.9 3.81,0.45 3.6,0.22 3.59,0 3.6,0.23 3.81,0 3.6,0.22 3.59,0 3.82,0.23 3.59,0 3.6,0 3.59,0 3.82,0.22 3.59,0 3.6,0 3.81,0 3.6,0.22 3.59,0 3.6,0.68 3.81,0.9 3.6,4.71 3.59,0 3.82,0.23 3.59,0 3.6,0 3.59,0 3.82,0.22 3.59,0 3.6,0 3.81,0 3.6,0.23 3.59,0 3.59,0.22 3.82,0 3.6,0.23 3.65,0.12"/>
      </g>
    </g>
    <g id="g110">
      <g clip-path="url(#clipPath114)" id="g112"><text id="text118" style="font-variant:normal;font-weight:normal;font-size:18.64800072px;font-family:'Roboto Condensed';-inkscape-font-specification:RobotoCondensed-Regular;writing-mode:lr-tb;fill:#000000;fill-opacity:1;fill-rule:nonzero;stroke:none" transform="matrix(1,0,0,-1,81.792,254.98)"><tspan id="tspan120" y="0" x="0">0</tspan></text>
</g>
    </g>
    <g id="g122">
      <g clip-path="url(#clipPath126)" id="g124"><text id="text130" style="font-variant:normal;font-weight:normal;font-size:18.64800072px;font-family:'Roboto Condensed';-inkscape-font-specification:RobotoCondensed-Regular;writing-mode:lr-tb;fill:#000000;fill-opacity:1;fill-rule:nonzero;stroke:none" transform="matrix(1,0,0,-1,72.576,288.14)"><tspan id="tspan132" y="0" x="0 9.1920118">25</tspan></text>
</g>
    </g>
    <g id="g134">
      <g clip-path="url(#clipPath138)" id="g136"><text id="text142" style="font-variant:normal;font-weight:normal;font-size:18.64800072px;font-family:'Roboto Condensed';-inkscape-font-specification:RobotoCondensed-Regular;writing-mode:lr-tb;fill:#000000;fill-opacity:1;fill-rule:nonzero;stroke:none" transform="matrix(1,0,0,-1,72.576,321.31)"><tspan id="tspan144" y="0" x="0 9.1920118">50</tspan></text>
</g>
    </g>
    <g id="g146">
      <g clip-path="url(#clipPath150)" id="g148"><text id="text154" style="font-variant:normal;font-weight:normal;font-size:18.64800072px;font-family:'Roboto Condensed';-inkscape-font-specification:RobotoCondensed-Regular;writing-mode:lr-tb;fill:#000000;fill-opacity:1;fill-rule:nonzero;stroke:none" transform="matrix(1,0,0,-1,72.576,354.5)"><tspan id="tspan156" y="0" x="0 9.1920118">75</tspan></text>
</g>
    </g>
    <g id="g158">
      <g clip-path="url(#clipPath162)" id="g160"><text id="text166" style="font-variant:normal;font-weight:normal;font-size:18.64800072px;font-family:'Roboto Condensed';-inkscape-font-specification:RobotoCondensed-Regular;writing-mode:lr-tb;fill:#000000;fill-opacity:1;fill-rule:nonzero;stroke:none" transform="matrix(1,0,0,-1,63.336,387.67)"><tspan id="tspan168" y="0" x="0 9.1920118 18.384024">100</tspan></text>
</g>
    </g>
    <g id="g170">
      <g clip-path="url(#clipPath174)" id="g172"><text id="text178" style="font-variant:normal;font-weight:normal;font-size:18.64800072px;font-family:'Roboto Condensed';-inkscape-font-specification:RobotoCondensed-Regular;writing-mode:lr-tb;fill:#000000;fill-opacity:1;fill-rule:nonzero;stroke:none" transform="matrix(1,0,0,-1,63.336,420.86)"><tspan id="tspan180" y="0" x="0 9.1920118 18.384024">125</tspan></text>
</g>
    </g>
    <g id="g182">
      <g clip-path="url(#clipPath186)" id="g184"><text id="text190" style="font-variant:normal;font-weight:normal;font-size:18.64800072px;font-family:'Roboto Condensed';-inkscape-font-specification:RobotoCondensed-Regular;writing-mode:lr-tb;fill:#000000;fill-opacity:1;fill-rule:nonzero;stroke:none" transform="matrix(1,0,0,-1,63.336,454.03)"><tspan id="tspan192" y="0" x="0 9.1920118 18.384024">150</tspan></text>
</g>
    </g>
    <g id="g194">
      <g clip-path="url(#clipPath198)" id="g196"><text id="text202" style="font-variant:normal;font-weight:normal;font-size:18.64800072px;font-family:'Roboto Condensed';-inkscape-font-specification:RobotoCondensed-Regular;writing-mode:lr-tb;fill:#000000;fill-opacity:1;fill-rule:nonzero;stroke:none" transform="matrix(1,0,0,-1,63.336,487.2)"><tspan id="tspan204" y="0" x="0 9.1920118 18.384024">175</tspan></text>
</g>
    </g>
    <g id="g206">
      <g clip-path="url(#clipPath210)" id="g208"><text id="text214" style="font-variant:normal;font-weight:normal;font-size:18.64800072px;font-family:'Roboto Condensed';-inkscape-font-specification:RobotoCondensed-Regular;writing-mode:lr-tb;fill:#000000;fill-opacity:1;fill-rule:nonzero;stroke:none" transform="matrix(1,0,0,-1,63.336,520.39)"><tspan id="tspan216" y="0" x="0 9.1920118 18.384024">200</tspan></text>
</g>
    </g>
    <g id="g218">
      <g clip-path="url(#clipPath222)" id="g220"><text id="text226" style="font-variant:normal;font-weight:normal;font-size:18.64800072px;font-family:'Roboto Condensed';-inkscape-font-specification:RobotoCondensed-Regular;writing-mode:lr-tb;fill:#000000;fill-opacity:1;fill-rule:nonzero;stroke:none" transform="matrix(1,0,0,-1,63.336,553.56)"><tspan id="tspan228" y="0" x="0 9.1920118 18.384024">225</tspan></text>
</g>
    </g>
    <g id="g230">
      <g clip-path="url(#clipPath234)" id="g232"><text id="text238" style="font-variant:normal;font-weight:normal;font-size:18.64800072px;font-family:'Roboto Condensed';-inkscape-font-specification:RobotoCondensed-Regular;writing-mode:lr-tb;fill:#000000;fill-opacity:1;fill-rule:nonzero;stroke:none" transform="matrix(1,0,0,-1,105.41,230.95)"><tspan id="tspan240" y="0" x="0">0</tspan></text>
</g>
    </g>
    <g id="g242">
      <g clip-path="url(#clipPath246)" id="g244"><text id="text250" style="font-variant:normal;font-weight:normal;font-size:18.64800072px;font-family:'Roboto Condensed';-inkscape-font-specification:RobotoCondensed-Regular;writing-mode:lr-tb;fill:#000000;fill-opacity:1;fill-rule:nonzero;stroke:none" transform="matrix(1,0,0,-1,138.34,230.95)"><tspan id="tspan252" y="0" x="0">9</tspan></text>
</g>
    </g>
    <g id="g254">
      <g clip-path="url(#clipPath258)" id="g256"><text id="text262" style="font-variant:normal;font-weight:normal;font-size:18.64800072px;font-family:'Roboto Condensed';-inkscape-font-specification:RobotoCondensed-Regular;writing-mode:lr-tb;fill:#000000;fill-opacity:1;fill-rule:nonzero;stroke:none" transform="matrix(1,0,0,-1,166.63,230.95)"><tspan id="tspan264" y="0" x="0 9.2160025">18</tspan></text>
</g>
    </g>
    <g id="g266">
      <g clip-path="url(#clipPath270)" id="g268"><text id="text274" style="font-variant:normal;font-weight:normal;font-size:18.64800072px;font-family:'Roboto Condensed';-inkscape-font-specification:RobotoCondensed-Regular;writing-mode:lr-tb;fill:#000000;fill-opacity:1;fill-rule:nonzero;stroke:none" transform="matrix(1,0,0,-1,199.56,230.95)"><tspan id="tspan276" y="0" x="0 9.2160025">27</tspan></text>
</g>
    </g>
    <g id="g278">
      <g clip-path="url(#clipPath282)" id="g280"><text id="text286" style="font-variant:normal;font-weight:normal;font-size:18.64800072px;font-family:'Roboto Condensed';-inkscape-font-specification:RobotoCondensed-Regular;writing-mode:lr-tb;fill:#000000;fill-opacity:1;fill-rule:nonzero;stroke:none" transform="matrix(1,0,0,-1,232.49,230.95)"><tspan id="tspan288" y="0" x="0 9.2160025">36</tspan></text>
</g>
    </g>
    <g id="g290">
      <g clip-path="url(#clipPath294)" id="g292"><text id="text298" style="font-variant:normal;font-weight:normal;font-size:18.64800072px;font-family:'Roboto Condensed';-inkscape-font-specification:RobotoCondensed-Regular;writing-mode:lr-tb;fill:#000000;fill-opacity:1;fill-rule:nonzero;stroke:none" transform="matrix(1,0,0,-1,265.42,230.95)"><tspan id="tspan300" y="0" x="0 9.1920118">45</tspan></text>
</g>
    </g>
    <g id="g302">
      <g clip-path="url(#clipPath306)" id="g304"><text id="text310" style="font-variant:normal;font-weight:normal;font-size:18.64800072px;font-family:'Roboto Condensed';-inkscape-font-specification:RobotoCondensed-Regular;writing-mode:lr-tb;fill:#000000;fill-opacity:1;fill-rule:nonzero;stroke:none" transform="matrix(1,0,0,-1,298.32,230.95)"><tspan id="tspan312" y="0" x="0 9.2160025">54</tspan></text>
</g>
    </g>
    <g id="g314">
      <g clip-path="url(#clipPath318)" id="g316"><text id="text322" style="font-variant:normal;font-weight:normal;font-size:18.64800072px;font-family:'Roboto Condensed';-inkscape-font-specification:RobotoCondensed-Regular;writing-mode:lr-tb;fill:#000000;fill-opacity:1;fill-rule:nonzero;stroke:none" transform="matrix(1,0,0,-1,331.25,230.95)"><tspan id="tspan324" y="0" x="0 9.2160025">63</tspan></text>
</g>
    </g>
    <g id="g326">
      <g clip-path="url(#clipPath330)" id="g328"><text id="text334" style="font-variant:normal;font-weight:normal;font-size:18.64800072px;font-family:'Roboto Condensed';-inkscape-font-specification:RobotoCondensed-Regular;writing-mode:lr-tb;fill:#000000;fill-opacity:1;fill-rule:nonzero;stroke:none" transform="matrix(1,0,0,-1,364.18,230.95)"><tspan id="tspan336" y="0" x="0 9.2160025">72</tspan></text>
</g>
    </g>
    <g id="g338">
      <g clip-path="url(#clipPath342)" id="g340"><text id="text346" style="font-variant:normal;font-weight:normal;font-size:18.64800072px;font-family:'Roboto Condensed';-inkscape-font-specification:RobotoCondensed-Regular;writing-mode:lr-tb;fill:#000000;fill-opacity:1;fill-rule:nonzero;stroke:none" transform="matrix(1,0,0,-1,397.1,230.95)"><tspan id="tspan348" y="0" x="0 9.1920118">81</tspan></text>
</g>
    </g>
    <g id="g350">
      <g clip-path="url(#clipPath354)" id="g352"><text id="text358" style="font-variant:normal;font-weight:normal;font-size:18.64800072px;font-family:'Roboto Condensed';-inkscape-font-specification:RobotoCondensed-Regular;writing-mode:lr-tb;fill:#000000;fill-opacity:1;fill-rule:nonzero;stroke:none" transform="matrix(1,0,0,-1,430.01,230.95)"><tspan id="tspan360" y="0" x="0 9.2160025">90</tspan></text>
</g>
    </g>
    <g id="g362">
      <g clip-path="url(#clipPath366)" id="g364"><text id="text370" style="font-variant:normal;font-weight:normal;font-size:18.64800072px;font-family:'Roboto Condensed';-inkscape-font-specification:RobotoCondensed-Regular;writing-mode:lr-tb;fill:#000000;fill-opacity:1;fill-rule:nonzero;stroke:none" transform="matrix(1,0,0,-1,462.94,230.95)"><tspan id="tspan372" y="0" x="0 9.2160025">99</tspan></text>
</g>
    </g>
    <g id="g374">
      <g clip-path="url(#clipPath378)" id="g376"><text id="text382" style="font-variant:normal;font-weight:normal;font-size:18.64800072px;font-family:'Roboto Condensed';-inkscape-font-specification:RobotoCondensed-Regular;writing-mode:lr-tb;fill:#000000;fill-opacity:1;fill-rule:nonzero;stroke:none" transform="matrix(1,0,0,-1,491.26,230.95)"><tspan id="tspan384" y="0" x="0 9.1920118 18.384024">108</tspan></text>
</g>
    </g>
    <path id="path386" style="fill:none;stroke:#d0b86a;stroke-width:3.7434001;stroke-linecap:round;stroke-linejoin:round;stroke-miterlimit:10;stroke-dasharray:none;stroke-opacity:1" d="m 79.327,217.16 35.933,0"/>
    <g id="g388">
      <g clip-path="url(#clipPath392)" id="g390"><text id="text396" style="font-variant:normal;font-weight:normal;font-size:18.64800072px;font-family:'Roboto Condensed';-inkscape-font-specification:RobotoCondensed-Regular;writing-mode:lr-tb;fill:#000000;fill-opacity:1;fill-rule:nonzero;stroke:none" transform="matrix(1,0,0,-1,119.09,211.49)"><tspan id="tspan398" y="0" x="0 9.1920118 18.384024 27.576036">2026</tspan></text>
</g>
    </g>
    <path id="path400" style="fill:none;stroke:#005aa4;stroke-width:3.7434001;stroke-linecap:round;stroke-linejoin:round;stroke-miterlimit:10;stroke-dasharray:none;stroke-opacity:1" d="m 207.07,217.16 35.93,0"/>
    <g id="g402">
      <g clip-path="url(#clipPath406)" id="g404"><text id="text410" style="font-variant:normal;font-weight:normal;font-size:18.64800072px;font-family:'Roboto Condensed';-inkscape-font-specification:RobotoCondensed-Regular;writing-mode:lr-tb;fill:#000000;fill-opacity:1;fill-rule:nonzero;stroke:none" transform="matrix(1,0,0,-1,246.84,211.49)"><tspan id="tspan412" y="0" x="0 9.2160025 18.432005 27.648006">2025</tspan></text>
</g>
    </g>
    <path id="path414" style="fill:none;stroke:#3bc3a3;stroke-width:3.7434001;stroke-linecap:round;stroke-linejoin:round;stroke-miterlimit:10;stroke-dasharray:none;stroke-opacity:1" d="m 334.8,217.16 35.94,0"/>
    <g id="g416">
      <g clip-path="url(#clipPath420)" id="g418"><text id="text424" style="font-variant:normal;font-weight:normal;font-size:18.64800072px;font-family:'Roboto Condensed';-inkscape-font-specification:RobotoCondensed-Regular;writing-mode:lr-tb;fill:#000000;fill-opacity:1;fill-rule:nonzero;stroke:none" transform="matrix(1,0,0,-1,374.59,211.49)"><tspan id="tspan426" y="0" x="0 9.2160025 18.432005 27.648006">2024</tspan></text>
</g>
    </g>
    <path id="path428" style="fill:none;stroke:#00a1e2;stroke-width:3.7434001;stroke-linecap:round;stroke-linejoin:round;stroke-miterlimit:10;stroke-dasharray:none;stroke-opacity:1" d="m 462.54,217.16 35.94,0"/>
    <g id="g430">
      <g clip-path="url(#clipPath434)" id="g432"><text id="text438" style="font-variant:normal;font-weight:normal;font-size:18.64800072px;font-family:'Roboto Condensed';-inkscape-font-specification:RobotoCondensed-Regular;writing-mode:lr-tb;fill:#000000;fill-opacity:1;fill-rule:nonzero;stroke:none" transform="matrix(1,0,0,-1,502.37,211.49)"><tspan id="tspan440" y="0" x="0 9.1920118 18.384024 27.576036">2023</tspan></text>
</g>
    </g>
    <path id="path442" style="fill:none;stroke:#6769b5;stroke-width:3.7434001;stroke-linecap:round;stroke-linejoin:round;stroke-miterlimit:10;stroke-dasharray:none;stroke-opacity:1" d="m 79.327,197.23 35.933,0"/>
    <g id="g444">
      <g clip-path="url(#clipPath448)" id="g446"><text id="text452" style="font-variant:normal;font-weight:normal;font-size:18.64800072px;font-family:'Roboto Condensed';-inkscape-font-specification:RobotoCondensed-Regular;writing-mode:lr-tb;fill:#000000;fill-opacity:1;fill-rule:nonzero;stroke:none" transform="matrix(1,0,0,-1,119.09,191.57)"><tspan id="tspan454" y="0" x="0 9.1920118 18.384024 27.576036">2022</tspan></text>
</g>
    </g>
    <path id="path456" style="fill:none;stroke:#93959b;stroke-width:3.7434001;stroke-linecap:round;stroke-linejoin:round;stroke-miterlimit:10;stroke-dasharray:none;stroke-opacity:1" d="m 207.07,197.23 35.93,0"/>
    <g id="g458">
      <g clip-path="url(#clipPath462)" id="g460"><text id="text466" style="font-variant:normal;font-weight:normal;font-size:18.64800072px;font-family:'Roboto Condensed';-inkscape-font-specification:RobotoCondensed-Regular;writing-mode:lr-tb;fill:#000000;fill-opacity:1;fill-rule:nonzero;stroke:none" transform="matrix(1,0,0,-1,246.84,191.57)"><tspan id="tspan468" y="0" x="0 9.2160025 18.432005 27.648006">2021</tspan></text>
</g>
    </g>
    <path id="path470" style="fill:none;stroke:#97d0ff;stroke-width:3.7434001;stroke-linecap:round;stroke-linejoin:round;stroke-miterlimit:10;stroke-dasharray:none;stroke-opacity:1" d="m 334.8,197.23 35.94,0"/>
    <g id="g472">
      <g clip-path="url(#clipPath476)" id="g474"><text id="text480" style="font-variant:normal;font-weight:normal;font-size:18.64800072px;font-family:'Roboto Condensed';-inkscape-font-specification:RobotoCondensed-Regular;writing-mode:lr-tb;fill:#000000;fill-opacity:1;fill-rule:nonzero;stroke:none" transform="matrix(1,0,0,-1,374.59,191.57)"><tspan id="tspan482" y="0" x="0 9.2160025 18.432005 27.648006">2020</tspan></text>
</g>
    </g>
    <path id="path484" style="fill:none;stroke:#a9a9a9;stroke-width:3.7434001;stroke-linecap:round;stroke-linejoin:round;stroke-miterlimit:10;stroke-dasharray:none;stroke-opacity:1" d="m 462.54,197.23 35.94,0"/>
    <g id="g486">
      <g clip-path="url(#clipPath490)" id="g488"><text id="text494" style="font-variant:normal;font-weight:normal;font-size:18.64800072px;font-family:'Roboto Condensed';-inkscape-font-specification:RobotoCondensed-Regular;writing-mode:lr-tb;fill:#000000;fill-opacity:1;fill-rule:nonzero;stroke:none" transform="matrix(1,0,0,-1,502.37,191.57)"><tspan id="tspan496" y="0" x="0 9.1920118 18.384024 27.576036">2019</tspan></text>
</g>
    </g>
    <g id="g498">
      <g clip-path="url(#clipPath502)" id="g500"><text id="text506" style="font-variant:normal;font-weight:normal;font-size:18.64800072px;font-family:'Roboto Condensed';-inkscape-font-specification:RobotoCondensed-Regular;writing-mode:lr-tb;fill:#000000;fill-opacity:1;fill-rule:nonzero;stroke:none" transform="matrix(1,0,0,-1,68.616,579.62)"><tspan id="tspan508" y="0" x="0 10.53612 20.195784 29.407896 33.678288 42.871754 47.142143 51.412537 55.682926 59.95332 69.40786 78.433487">US$ billions</tspan></text>
</g>
    </g>
  </g>
</svg>
