<?xml version="1.0" encoding="UTF-8" standalone="no"?>
<svg xmlns:dc="http://purl.org/dc/elements/1.1/" xmlns:cc="http://creativecommons.org/ns#" xmlns:rdf="http://www.w3.org/1999/02/22-rdf-syntax-ns#" xmlns:svg="http://www.w3.org/2000/svg" xmlns="http://www.w3.org/2000/svg" viewBox="63.0425 313.8 639 362.4" height="362.4" width="639" xml:space="preserve" version="1.1" id="svg2">
  <metadata id="metadata8">
    <rdf:RDF>
      <cc:Work rdf:about="">
        <dc:format>image/svg+xml</dc:format>
        <dc:type rdf:resource="http://purl.org/dc/dcmitype/StillImage"/>
      </cc:Work>
    </rdf:RDF>
  </metadata>
  <defs id="defs6">
    <clipPath id="clipPath16" clipPathUnits="userSpaceOnUse">
      <path style="clip-rule:evenodd" id="path18" d="m 50.4,251.04 511.2,0 0,289.92 -511.2,0 0,-289.92 z"/>
    </clipPath>
    <clipPath id="clipPath36" clipPathUnits="userSpaceOnUse">
      <path style="clip-rule:evenodd" id="path38" d="m 50.4,251.04 511.08,0 0,289.8 -511.08,0 0,-289.8 z"/>
    </clipPath>
    <clipPath id="clipPath48" clipPathUnits="userSpaceOnUse">
      <path style="clip-rule:evenodd" id="path50" d="m 50.4,251.04 511.08,0 0,289.8 -511.08,0 0,-289.8 z"/>
    </clipPath>
    <clipPath id="clipPath60" clipPathUnits="userSpaceOnUse">
      <path style="clip-rule:evenodd" id="path62" d="m 50.4,251.04 511.08,0 0,289.8 -511.08,0 0,-289.8 z"/>
    </clipPath>
    <clipPath id="clipPath72" clipPathUnits="userSpaceOnUse">
      <path style="clip-rule:evenodd" id="path74" d="m 50.4,251.04 511.08,0 0,289.8 -511.08,0 0,-289.8 z"/>
    </clipPath>
    <clipPath id="clipPath84" clipPathUnits="userSpaceOnUse">
      <path style="clip-rule:evenodd" id="path86" d="m 50.4,251.04 511.08,0 0,289.8 -511.08,0 0,-289.8 z"/>
    </clipPath>
    <clipPath id="clipPath96" clipPathUnits="userSpaceOnUse">
      <path style="clip-rule:evenodd" id="path98" d="m 50.4,251.04 511.08,0 0,289.8 -511.08,0 0,-289.8 z"/>
    </clipPath>
    <clipPath id="clipPath108" clipPathUnits="userSpaceOnUse">
      <path style="clip-rule:evenodd" id="path110" d="m 50.4,251.04 511.08,0 0,289.8 -511.08,0 0,-289.8 z"/>
    </clipPath>
    <clipPath id="clipPath120" clipPathUnits="userSpaceOnUse">
      <path style="clip-rule:evenodd" id="path122" d="m 50.4,251.04 511.08,0 0,289.8 -511.08,0 0,-289.8 z"/>
    </clipPath>
    <clipPath id="clipPath132" clipPathUnits="userSpaceOnUse">
      <path style="clip-rule:evenodd" id="path134" d="m 50.4,251.04 511.08,0 0,289.8 -511.08,0 0,-289.8 z"/>
    </clipPath>
    <clipPath id="clipPath144" clipPathUnits="userSpaceOnUse">
      <path style="clip-rule:evenodd" id="path146" d="m 50.4,251.04 511.08,0 0,289.8 -511.08,0 0,-289.8 z"/>
    </clipPath>
    <clipPath id="clipPath156" clipPathUnits="userSpaceOnUse">
      <path style="clip-rule:evenodd" id="path158" d="m 50.4,251.04 511.08,0 0,289.8 -511.08,0 0,-289.8 z"/>
    </clipPath>
    <clipPath id="clipPath168" clipPathUnits="userSpaceOnUse">
      <path style="clip-rule:evenodd" id="path170" d="m 50.4,251.04 511.08,0 0,289.8 -511.08,0 0,-289.8 z"/>
    </clipPath>
    <clipPath id="clipPath180" clipPathUnits="userSpaceOnUse">
      <path style="clip-rule:evenodd" id="path182" d="m 50.4,251.04 511.08,0 0,289.8 -511.08,0 0,-289.8 z"/>
    </clipPath>
    <clipPath id="clipPath192" clipPathUnits="userSpaceOnUse">
      <path style="clip-rule:evenodd" id="path194" d="m 50.4,251.04 511.08,0 0,289.8 -511.08,0 0,-289.8 z"/>
    </clipPath>
    <clipPath id="clipPath204" clipPathUnits="userSpaceOnUse">
      <path style="clip-rule:evenodd" id="path206" d="m 50.4,251.04 511.08,0 0,289.8 -511.08,0 0,-289.8 z"/>
    </clipPath>
    <clipPath id="clipPath216" clipPathUnits="userSpaceOnUse">
      <path style="clip-rule:evenodd" id="path218" d="m 50.4,251.04 511.08,0 0,289.8 -511.08,0 0,-289.8 z"/>
    </clipPath>
    <clipPath id="clipPath228" clipPathUnits="userSpaceOnUse">
      <path style="clip-rule:evenodd" id="path230" d="m 50.4,251.04 511.08,0 0,289.8 -511.08,0 0,-289.8 z"/>
    </clipPath>
    <clipPath id="clipPath240" clipPathUnits="userSpaceOnUse">
      <path style="clip-rule:evenodd" id="path242" d="m 50.4,251.04 511.08,0 0,289.8 -511.08,0 0,-289.8 z"/>
    </clipPath>
    <clipPath id="clipPath252" clipPathUnits="userSpaceOnUse">
      <path style="clip-rule:evenodd" id="path254" d="m 50.4,251.04 511.08,0 0,289.8 -511.08,0 0,-289.8 z"/>
    </clipPath>
    <clipPath id="clipPath264" clipPathUnits="userSpaceOnUse">
      <path style="clip-rule:evenodd" id="path266" d="m 50.4,251.04 511.08,0 0,289.8 -511.08,0 0,-289.8 z"/>
    </clipPath>
    <clipPath id="clipPath276" clipPathUnits="userSpaceOnUse">
      <path style="clip-rule:evenodd" id="path278" d="m 50.4,251.04 511.08,0 0,289.8 -511.08,0 0,-289.8 z"/>
    </clipPath>
    <clipPath id="clipPath288" clipPathUnits="userSpaceOnUse">
      <path style="clip-rule:evenodd" id="path290" d="m 50.4,251.04 511.08,0 0,289.8 -511.08,0 0,-289.8 z"/>
    </clipPath>
    <clipPath id="clipPath300" clipPathUnits="userSpaceOnUse">
      <path style="clip-rule:evenodd" id="path302" d="m 50.4,251.04 511.08,0 0,289.8 -511.08,0 0,-289.8 z"/>
    </clipPath>
    <clipPath id="clipPath312" clipPathUnits="userSpaceOnUse">
      <path style="clip-rule:evenodd" id="path314" d="m 50.4,251.04 511.08,0 0,289.8 -511.08,0 0,-289.8 z"/>
    </clipPath>
    <clipPath id="clipPath324" clipPathUnits="userSpaceOnUse">
      <path style="clip-rule:evenodd" id="path326" d="m 50.4,251.04 511.08,0 0,289.8 -511.08,0 0,-289.8 z"/>
    </clipPath>
    <clipPath id="clipPath336" clipPathUnits="userSpaceOnUse">
      <path style="clip-rule:evenodd" id="path338" d="m 50.4,251.04 511.08,0 0,289.8 -511.08,0 0,-289.8 z"/>
    </clipPath>
    <clipPath id="clipPath348" clipPathUnits="userSpaceOnUse">
      <path style="clip-rule:evenodd" id="path350" d="m 50.4,251.04 511.08,0 0,289.8 -511.08,0 0,-289.8 z"/>
    </clipPath>
    <clipPath id="clipPath360" clipPathUnits="userSpaceOnUse">
      <path style="clip-rule:evenodd" id="path362" d="m 50.4,251.04 511.08,0 0,289.8 -511.08,0 0,-289.8 z"/>
    </clipPath>
    <clipPath id="clipPath376" clipPathUnits="userSpaceOnUse">
      <path style="clip-rule:evenodd" id="path378" d="m 50.4,251.04 511.08,0 0,289.8 -511.08,0 0,-289.8 z"/>
    </clipPath>
    <clipPath id="clipPath390" clipPathUnits="userSpaceOnUse">
      <path style="clip-rule:evenodd" id="path392" d="m 50.4,251.04 511.08,0 0,289.8 -511.08,0 0,-289.8 z"/>
    </clipPath>
  </defs>
  <g transform="matrix(1.25,0,0,-1.25,0,990)" id="g10">
    <g id="g12">
      <g clip-path="url(#clipPath16)" id="g14">
        <path id="path20" style="fill:none;stroke:#000000;stroke-width:0.14;stroke-linecap:butt;stroke-linejoin:miter;stroke-miterlimit:10;stroke-dasharray:none;stroke-opacity:0" d="m 50.504,251.09 511.02,0 0,289.8 -511.02,0 0,-289.8 z"/>
      </g>
    </g>
    <path id="path22" style="fill:#ffffff;fill-opacity:1;fill-rule:evenodd;stroke:none" d="m 50.504,251.09 511.02,0 0,289.8 -511.02,0 0,-289.8 z"/>
    <path id="path24" style="fill:none;stroke:#c0c0c0;stroke-width:0.51536;stroke-linecap:round;stroke-linejoin:round;stroke-miterlimit:10;stroke-dasharray:none;stroke-opacity:1" d="m 93.682,331.03 464.538,0 m -464.538,20.16 464.538,0 m -464.538,20.04 464.538,0 m -464.538,20.16 464.538,0 m -464.538,20.03 464.538,0 m -464.538,20.17 464.538,0 m -464.538,20.16 464.538,0 m -464.538,20.03 464.538,0 m -464.538,20.16 464.538,0 m -464.538,20.09 464.538,0"/>
    <path id="path26" style="fill:#005aa4;fill-opacity:1;fill-rule:nonzero;stroke:none" d="m 101.98,494.05 11.01,0 0,-183.12 -11.01,0 0,183.12 z m 38.71,-43.91 11.01,0 0,-139.21 -11.01,0 0,139.21 z m 38.72,-19.54 11.01,0 0,-119.67 -11.01,0 0,119.67 z m 38.71,-24 11.01,0 0,-95.67 -11.01,0 0,95.67 z m 38.72,-48.11 11,0 0,-47.56 -11,0 0,47.56 z m 38.71,53.8 11.01,0 0,-101.36 -11.01,0 0,101.36 z m 38.71,-21.4 11.01,0 0,-79.96 -11.01,0 0,79.96 z m 38.72,-40.32 11.01,0 0,-39.64 -11.01,0 0,39.64 z m 38.71,-6.8 11.01,0 0,-32.84 -11.01,0 0,32.84 z m 38.72,-10.76 11,0 0,-22.08 -11,0 0,22.08 z m 38.71,-1.36 11.01,0 0,-20.72 -11.01,0 0,20.72 z m 38.71,-4.95 11.01,0 0,-15.77 -11.01,0 0,15.77 z"/>
    <path id="path28" style="fill:#eadfbc;fill-opacity:1;fill-rule:nonzero;stroke:none" d="m 112.99,470.67 11.13,0 0,-159.74 -11.13,0 0,159.74 z m 77.43,9.52 11.13,0 0,-169.26 -11.13,0 0,169.26 z m 38.71,-148.3 11.13,0 0,-20.96 -11.13,0 0,20.96 z m 38.71,28.45 11.14,0 0,-49.41 -11.14,0 0,49.41 z m 38.72,34.39 11.13,0 0,-83.8 -11.13,0 0,83.8 z m 38.71,-19.18 11.13,0 0,-64.62 -11.13,0 0,64.62 z m 38.72,-41.8 11.13,0 0,-22.82 -11.13,0 0,22.82 z m 38.71,15.83 11.13,0 0,-38.65 -11.13,0 0,38.65 z m 38.71,-21.89 11.14,0 0,-16.76 -11.14,0 0,16.76 z m 38.72,3.09 11.13,0 0,-19.85 -11.13,0 0,19.85 z m 38.71,-12.62 11.13,0 0,-7.23 -11.13,0 0,7.23 z"/>
    <path id="path30" style="fill:none;stroke:#808080;stroke-width:1.28840005;stroke-linecap:round;stroke-linejoin:round;stroke-miterlimit:10;stroke-dasharray:none;stroke-opacity:1" d="m 93.682,310.93 464.538,0"/>
    <g id="g32">
      <g clip-path="url(#clipPath36)" id="g34"><text id="text40" style="font-variant:normal;font-weight:normal;font-size:9.28800011px;font-family:'Roboto Condensed';-inkscape-font-specification:RobotoCondensed-Regular;writing-mode:lr-tb;fill:#000000;fill-opacity:1;fill-rule:nonzero;stroke:none" transform="matrix(1,0,0,-1,76.511952,308.11)"><tspan id="tspan42" y="0" x="0">-</tspan></text>
</g>
    </g>
    <g id="g44">
      <g clip-path="url(#clipPath48)" id="g46"><text id="text52" style="font-variant:normal;font-weight:normal;font-size:9.28800011px;font-family:'Roboto Condensed';-inkscape-font-specification:RobotoCondensed-Regular;writing-mode:lr-tb;fill:#000000;fill-opacity:1;fill-rule:nonzero;stroke:none" transform="matrix(1,0,0,-1,69.326952,328.22)"><tspan id="tspan54" y="0" x="0 4.5882721 9.1765442">500</tspan></text>
</g>
    </g>
    <g id="g56">
      <g clip-path="url(#clipPath60)" id="g58"><text id="text64" style="font-variant:normal;font-weight:normal;font-size:9.28800011px;font-family:'Roboto Condensed';-inkscape-font-specification:RobotoCondensed-Regular;writing-mode:lr-tb;fill:#000000;fill-opacity:1;fill-rule:nonzero;stroke:none" transform="matrix(1,0,0,-1,62.918952,348.34)"><tspan id="tspan66" y="0" x="0 4.5882721 6.4272962 11.015568 15.60384">1,000</tspan></text>
</g>
    </g>
    <g id="g68">
      <g clip-path="url(#clipPath72)" id="g70"><text id="text76" style="font-variant:normal;font-weight:normal;font-size:9.28800011px;font-family:'Roboto Condensed';-inkscape-font-specification:RobotoCondensed-Regular;writing-mode:lr-tb;fill:#000000;fill-opacity:1;fill-rule:nonzero;stroke:none" transform="matrix(1,0,0,-1,62.918952,368.45)"><tspan id="tspan78" y="0" x="0 4.5882721 6.4272962 11.015568 15.60384">1,500</tspan></text>
</g>
    </g>
    <g id="g80">
      <g clip-path="url(#clipPath84)" id="g82"><text id="text88" style="font-variant:normal;font-weight:normal;font-size:9.28800011px;font-family:'Roboto Condensed';-inkscape-font-specification:RobotoCondensed-Regular;writing-mode:lr-tb;fill:#000000;fill-opacity:1;fill-rule:nonzero;stroke:none" transform="matrix(1,0,0,-1,62.918952,388.56)"><tspan id="tspan90" y="0" x="0 4.5882721 6.4272962 11.015568 15.60384">2,000</tspan></text>
</g>
    </g>
    <g id="g92">
      <g clip-path="url(#clipPath96)" id="g94"><text id="text100" style="font-variant:normal;font-weight:normal;font-size:9.28800011px;font-family:'Roboto Condensed';-inkscape-font-specification:RobotoCondensed-Regular;writing-mode:lr-tb;fill:#000000;fill-opacity:1;fill-rule:nonzero;stroke:none" transform="matrix(1,0,0,-1,62.918952,408.67)"><tspan id="tspan102" y="0" x="0 4.5882721 6.4272962 11.015568 15.60384">2,500</tspan></text>
</g>
    </g>
    <g id="g104">
      <g clip-path="url(#clipPath108)" id="g106"><text id="text112" style="font-variant:normal;font-weight:normal;font-size:9.26399994px;font-family:'Roboto Condensed';-inkscape-font-specification:RobotoCondensed-Regular;writing-mode:lr-tb;fill:#000000;fill-opacity:1;fill-rule:nonzero;stroke:none" transform="matrix(1,0,0,-1,62.913456,428.78)"><tspan id="tspan114" y="0" x="0 4.576416 6.4384799 11.014896 15.591312">3,000</tspan></text>
</g>
    </g>
    <g id="g116">
      <g clip-path="url(#clipPath120)" id="g118"><text id="text124" style="font-variant:normal;font-weight:normal;font-size:9.26399994px;font-family:'Roboto Condensed';-inkscape-font-specification:RobotoCondensed-Regular;writing-mode:lr-tb;fill:#000000;fill-opacity:1;fill-rule:nonzero;stroke:none" transform="matrix(1,0,0,-1,62.913456,448.9)"><tspan id="tspan126" y="0" x="0 4.576416 6.4384799 11.014896 15.591312">3,500</tspan></text>
</g>
    </g>
    <g id="g128">
      <g clip-path="url(#clipPath132)" id="g130"><text id="text136" style="font-variant:normal;font-weight:normal;font-size:9.26399994px;font-family:'Roboto Condensed';-inkscape-font-specification:RobotoCondensed-Regular;writing-mode:lr-tb;fill:#000000;fill-opacity:1;fill-rule:nonzero;stroke:none" transform="matrix(1,0,0,-1,62.913456,469.01)"><tspan id="tspan138" y="0" x="0 4.576416 6.4384799 11.014896 15.591312">4,000</tspan></text>
</g>
    </g>
    <g id="g140">
      <g clip-path="url(#clipPath144)" id="g142"><text id="text148" style="font-variant:normal;font-weight:normal;font-size:9.26399994px;font-family:'Roboto Condensed';-inkscape-font-specification:RobotoCondensed-Regular;writing-mode:lr-tb;fill:#000000;fill-opacity:1;fill-rule:nonzero;stroke:none" transform="matrix(1,0,0,-1,62.913456,489.12)"><tspan id="tspan150" y="0" x="0 4.576416 6.4384799 11.014896 15.591312">4,500</tspan></text>
</g>
    </g>
    <g id="g152">
      <g clip-path="url(#clipPath156)" id="g154"><text id="text160" style="font-variant:normal;font-weight:normal;font-size:9.26399994px;font-family:'Roboto Condensed';-inkscape-font-specification:RobotoCondensed-Regular;writing-mode:lr-tb;fill:#000000;fill-opacity:1;fill-rule:nonzero;stroke:none" transform="matrix(1,0,0,-1,62.913456,509.23)"><tspan id="tspan162" y="0" x="0 4.576416 6.4384799 11.014896 15.591312">5,000</tspan></text>
</g>
    </g>
    <g id="g164">
      <g clip-path="url(#clipPath168)" id="g166"><text id="text172" style="font-variant:normal;font-weight:normal;font-size:9.28800011px;font-family:'Roboto Condensed';-inkscape-font-specification:RobotoCondensed-Regular;writing-mode:lr-tb;fill:#000000;fill-opacity:1;fill-rule:nonzero;stroke:none" transform="matrix(1,0,0,-1,102,296.21)"><tspan id="tspan174" y="0" x="0 5.4520559 11.034144 16.588367">GOOG</tspan></text>
</g>
    </g>
    <g id="g176">
      <g clip-path="url(#clipPath180)" id="g178"><text id="text184" style="font-variant:normal;font-weight:normal;font-size:9.28800011px;font-family:'Roboto Condensed';-inkscape-font-specification:RobotoCondensed-Regular;writing-mode:lr-tb;fill:#000000;fill-opacity:1;fill-rule:nonzero;stroke:none" transform="matrix(1,0,0,-1,140.88,296.21)"><tspan id="tspan186" y="0" x="0 7.049592 11.637864 16.476912">META</tspan></text>
</g>
    </g>
    <g id="g188">
      <g clip-path="url(#clipPath192)" id="g190"><text id="text196" style="font-variant:normal;font-weight:normal;font-size:9.28800011px;font-family:'Roboto Condensed';-inkscape-font-specification:RobotoCondensed-Regular;writing-mode:lr-tb;fill:#000000;fill-opacity:1;fill-rule:nonzero;stroke:none" transform="matrix(1,0,0,-1,179.71,296.21)"><tspan id="tspan198" y="0" x="0 5.6842561 10.885536 16.188984">NVDA</tspan></text>
</g>
    </g>
    <g id="g200">
      <g clip-path="url(#clipPath204)" id="g202"><text id="text208" style="font-variant:normal;font-weight:normal;font-size:9.28800011px;font-family:'Roboto Condensed';-inkscape-font-specification:RobotoCondensed-Regular;writing-mode:lr-tb;fill:#000000;fill-opacity:1;fill-rule:nonzero;stroke:none" transform="matrix(1,0,0,-1,217.75,296.21)"><tspan id="tspan210" y="0" x="0 5.3034482 12.35304 17.201376">AMZN</tspan></text>
</g>
    </g>
    <g id="g212">
      <g clip-path="url(#clipPath216)" id="g214"><text id="text220" style="font-variant:normal;font-weight:normal;font-size:9.28800011px;font-family:'Roboto Condensed';-inkscape-font-specification:RobotoCondensed-Regular;writing-mode:lr-tb;fill:#000000;fill-opacity:1;fill-rule:nonzero;stroke:none" transform="matrix(1,0,0,-1,256.22,296.21)"><tspan id="tspan222" y="0" x="0 5.582088 10.885536 16.467625">QCOM</tspan></text>
</g>
    </g>
    <g id="g224">
      <g clip-path="url(#clipPath228)" id="g226"><text id="text232" style="font-variant:normal;font-weight:normal;font-size:9.28800011px;font-family:'Roboto Condensed';-inkscape-font-specification:RobotoCondensed-Regular;writing-mode:lr-tb;fill:#000000;fill-opacity:1;fill-rule:nonzero;stroke:none" transform="matrix(1,0,0,-1,289.42,296.21)"><tspan id="tspan234" y="0" x="0 2.3405759 6.808104 9.7709761 14.359248 16.579081 21.418127 25.764912 29.944511">Info Tech</tspan></text>
</g>
    </g>
    <g id="g236">
      <g clip-path="url(#clipPath240)" id="g238"><text id="text244" style="font-variant:normal;font-weight:normal;font-size:9.28800011px;font-family:'Roboto Condensed';-inkscape-font-specification:RobotoCondensed-Regular;writing-mode:lr-tb;fill:#000000;fill-opacity:1;fill-rule:nonzero;stroke:none" transform="matrix(1,0,0,-1,333.43,296.21)"><tspan id="tspan246" y="0" x="0 5.795712 10.142496 14.554296 16.644096 19.356192">Health</tspan></text>
</g>
    </g>
    <g id="g248">
      <g clip-path="url(#clipPath252)" id="g250"><text id="text256" style="font-variant:normal;font-weight:normal;font-size:9.28800011px;font-family:'Roboto Condensed';-inkscape-font-specification:RobotoCondensed-Regular;writing-mode:lr-tb;fill:#000000;fill-opacity:1;fill-rule:nonzero;stroke:none" transform="matrix(1,0,0,-1,336.94,285.07)"><tspan id="tspan258" y="0" x="0 5.3220239 9.6409435 12.483072">Care</tspan></text>
</g>
    </g>
    <g id="g260">
      <g clip-path="url(#clipPath264)" id="g262"><text id="text268" style="font-variant:normal;font-weight:normal;font-size:9.28800011px;font-family:'Roboto Condensed';-inkscape-font-specification:RobotoCondensed-Regular;writing-mode:lr-tb;fill:#000000;fill-opacity:1;fill-rule:nonzero;stroke:none" transform="matrix(1,0,0,-1,364.78,296.21)"><tspan id="tspan270" y="0" x="0 2.3405759 6.808104 11.414952 15.966072 20.201401 22.94136 25.764912 27.891865 32.340816 34.46777">Industrials</tspan></text>
</g>
    </g>
    <g id="g272">
      <g clip-path="url(#clipPath276)" id="g274"><text id="text280" style="font-variant:normal;font-weight:normal;font-size:9.28800011px;font-family:'Roboto Condensed';-inkscape-font-specification:RobotoCondensed-Regular;writing-mode:lr-tb;fill:#000000;fill-opacity:1;fill-rule:nonzero;stroke:none" transform="matrix(1,0,0,-1,410.88,296.21)"><tspan id="tspan282" y="0" x="0 5.2941599 9.8545675 16.876295">Comm</tspan></text>
</g>
    </g>
    <g id="g284">
      <g clip-path="url(#clipPath288)" id="g286"><text id="text292" style="font-variant:normal;font-weight:normal;font-size:9.28800011px;font-family:'Roboto Condensed';-inkscape-font-specification:RobotoCondensed-Regular;writing-mode:lr-tb;fill:#000000;fill-opacity:1;fill-rule:nonzero;stroke:none" transform="matrix(1,0,0,-1,414.17,285.07)"><tspan id="tspan294" y="0" x="0 4.8111839 8.7864475 13.077504">Svcs</tspan></text>
</g>
    </g>
    <g id="g296">
      <g clip-path="url(#clipPath300)" id="g298"><text id="text304" style="font-variant:normal;font-weight:normal;font-size:9.28800011px;font-family:'Roboto Condensed';-inkscape-font-specification:RobotoCondensed-Regular;writing-mode:lr-tb;fill:#000000;fill-opacity:1;fill-rule:nonzero;stroke:none" transform="matrix(1,0,0,-1,443.18,296.21)"><tspan id="tspan306" y="0" x="0 5.3220239 9.9102964 14.34996 18.659592 20.786545 26.089993 28.216944 32.415119">Cons Disc</tspan></text>
</g>
    </g>
    <g id="g308">
      <g clip-path="url(#clipPath312)" id="g310"><text id="text316" style="font-variant:normal;font-weight:normal;font-size:9.28800011px;font-family:'Roboto Condensed';-inkscape-font-specification:RobotoCondensed-Regular;writing-mode:lr-tb;fill:#000000;fill-opacity:1;fill-rule:nonzero;stroke:none" transform="matrix(1,0,0,-1,481.63,296.21)"><tspan id="tspan318" y="0" x="0 4.45824 6.5851922 11.154888 15.501672 20.080656 24.306696 26.526527 30.873312 33.093143">Financials</tspan></text>
</g>
    </g>
    <g id="g320">
      <g clip-path="url(#clipPath324)" id="g322"><text id="text328" style="font-variant:normal;font-weight:normal;font-size:9.28800011px;font-family:'Roboto Condensed';-inkscape-font-specification:RobotoCondensed-Regular;writing-mode:lr-tb;fill:#000000;fill-opacity:1;fill-rule:nonzero;stroke:none" transform="matrix(1,0,0,-1,524.42,296.21)"><tspan id="tspan330" y="0" x="0 4.8111839 7.5511441 12.000096 16.53264 18.62244 22.969225 27.139536">Staples,</tspan></text>
</g>
    </g>
    <g id="g332">
      <g clip-path="url(#clipPath336)" id="g334"><text id="text340" style="font-variant:normal;font-weight:normal;font-size:9.28800011px;font-family:'Roboto Condensed';-inkscape-font-specification:RobotoCondensed-Regular;writing-mode:lr-tb;fill:#000000;fill-opacity:1;fill-rule:nonzero;stroke:none" transform="matrix(1,0,0,-1,520.92,285.07)"><tspan id="tspan342" y="0" x="0 7.0124402 11.461392 14.201352 18.501696 21.325249 23.424335 27.873287 29.9538 34.151978">Materials,</tspan></text>
</g>
    </g>
    <g id="g344">
      <g clip-path="url(#clipPath348)" id="g346"><text id="text352" style="font-variant:normal;font-weight:normal;font-size:9.28800011px;font-family:'Roboto Condensed';-inkscape-font-specification:RobotoCondensed-Regular;writing-mode:lr-tb;fill:#000000;fill-opacity:1;fill-rule:nonzero;stroke:none" transform="matrix(1,0,0,-1,526.61,273.94)"><tspan id="tspan354" y="0" x="0 4.5882721 9.1672564 13.51404 16.337591 20.80512">Energy</tspan></text>
</g>
    </g>
    <g id="g356">
      <g clip-path="url(#clipPath360)" id="g358"><text id="text364" style="font-variant:normal;font-weight:bold;font-size:11.39999962px;font-family:'Roboto Condensed';-inkscape-font-specification:RobotoCondensed-Bold;writing-mode:lr-tb;fill:#000000;fill-opacity:1;fill-rule:nonzero;stroke:none" transform="matrix(1,0,0,-1,153.34,522.36)"><tspan id="tspan366" y="0" x="0 5.8253999 8.2992001 11.3886 19.847401 25.4904 30.8598 36.046799 39.5466 42.168598 47.845798 51.584999 54.1614 59.587799 64.957199 70.030197 75.707397 79.549202 84.873001 90.550201 93.422997 98.883598 101.3232 107.5134 112.8486 118.047 120.5208 126.1182 131.28239 136.97099 142.43159 147.9834 153.159 158.6196 161.1162 167.43179 172.7556 176.2554 181.716 184.3038 189.981 195.5898 198.1776 203.604 209.2812 213.1458 218.6064 221.4792 227.13361 232.69679 235.17059 241.6116 247.0722 250.85699 253.7298 258.84839 264.30899 269.96341 272.32321 275.4126 280.98721 286.19699 291.87421 300.33301">$ Impact of Favorable Tax Expense Rate on Foreign Derived Income</tspan></text>
</g>
    </g>
    <path id="path368" style="fill:#ffffff;fill-opacity:1;fill-rule:evenodd;stroke:none" d="m 272,494.61 68.028,0 0,17.205 -68.028,0 0,-17.205 z"/>
    <path id="path370" style="fill:#005aa4;fill-opacity:1;fill-rule:evenodd;stroke:none" d="m 279.06,500.71 5.0093,0 0,5.0093 -5.0093,0 0,-5.0093 z"/>
    <g id="g372">
      <g clip-path="url(#clipPath376)" id="g374"><text id="text380" style="font-variant:normal;font-weight:normal;font-size:9.28800011px;font-family:'Roboto Condensed';-inkscape-font-specification:RobotoCondensed-Regular;writing-mode:lr-tb;fill:#000000;fill-opacity:1;fill-rule:nonzero;stroke:none" transform="matrix(1,0,0,-1,286.25,500.42)"><tspan id="tspan382" y="0" x="0 4.5599718 9.1199436 13.679916">2024</tspan></text>
</g>
    </g>
    <path id="path384" style="fill:#eadfbc;fill-opacity:1;fill-rule:evenodd;stroke:none" d="m 311.18,500.71 5.0093,0 0,5.0093 -5.0093,0 0,-5.0093 z"/>
    <g id="g386">
      <g clip-path="url(#clipPath390)" id="g388"><text id="text394" style="font-variant:normal;font-weight:normal;font-size:9.28800011px;font-family:'Roboto Condensed';-inkscape-font-specification:RobotoCondensed-Regular;writing-mode:lr-tb;fill:#000000;fill-opacity:1;fill-rule:nonzero;stroke:none" transform="matrix(1,0,0,-1,318.36,500.42)"><tspan id="tspan396" y="0" x="0 4.584002 9.168004 13.752006">2025</tspan></text>
</g>
    </g>
  </g>
</svg>
