<svg version="1.1" width="100%" height="100%" viewBox="0 0 235 145" xmlns="http://www.w3.org/2000/svg" xmlns:xlink="http://www.w3.org/1999/xlink"><style type="text/css" /><defs><clipPath id="clip001"><path d="M0,0 L1754.667,0 L1754.667,1208 L0,1208 Z" clip-rule="evenodd" /></clipPath><clipPath id="clip002"><path d="M0,0 L1754.667,0 L1754.667,1208 L0,1208 Z" clip-rule="evenodd" /></clipPath><clipPath id="clip003"><path d="M0,0 L1754.667,0 L1754.667,1208 L0,1208 Z" clip-rule="evenodd" /></clipPath><clipPath id="clip004"><path d="M0,0 L5200,0 L5200,1316 L0,1316 Z" clip-rule="evenodd" /></clipPath><clipPath id="clip005"><path d="M-800,0 L6000,0 L6000,1316 L-800,1316 Z" clip-rule="evenodd" /></clipPath><clipPath id="clip006"><path d="M0,0 L1749.333,0 L1749.333,1206.667 L0,1206.667 Z" clip-rule="evenodd" /></clipPath><clipPath id="clip007"><path d="M201.3333,44 L1569.333,44 L1569.333,904 L201.3333,904 Z" clip-rule="evenodd" /></clipPath><clipPath id="clip008"><path d="M0,0 L1749.333,0 L1749.333,1206.667 L0,1206.667 Z" clip-rule="evenodd" /></clipPath><clipPath id="clip009"><path d="M201.3333,44 L1569.333,44 L1569.333,904 L201.3333,904 Z" clip-rule="evenodd" /></clipPath><clipPath id="clip010"><path d="M0,0 L1749.333,0 L1749.333,1206.667 L0,1206.667 Z" clip-rule="evenodd" /></clipPath><clipPath id="clip011"><path d="M0,0 L1749.333,0 L1749.333,1206.667 L0,1206.667 Z" clip-rule="evenodd" /></clipPath><clipPath id="clip012"><path d="M0,0 L1749.333,0 L1749.333,1206.667 L0,1206.667 Z" clip-rule="evenodd" /></clipPath><clipPath id="clip013"><path d="M0,0 L1749.333,0 L1749.333,1206.667 L0,1206.667 Z" clip-rule="evenodd" /></clipPath><clipPath id="clip014"><path d="M0,0 L1749.333,0 L1749.333,1206.667 L0,1206.667 Z" clip-rule="evenodd" /></clipPath><clipPath id="clip015"><path d="M0,0 L1749.333,0 L1749.333,1206.667 L0,1206.667 Z" clip-rule="evenodd" /></clipPath><clipPath id="clip016"><path d="M0,0 L1749.333,0 L1749.333,1206.667 L0,1206.667 Z" clip-rule="evenodd" /></clipPath><clipPath id="clip017"><path d="M0,0 L1749.333,0 L1749.333,1206.667 L0,1206.667 Z" clip-rule="evenodd" /></clipPath><clipPath id="clip018"><path d="M0,0 L1749.333,0 L1749.333,1206.667 L0,1206.667 Z" clip-rule="evenodd" /></clipPath><clipPath id="clip019"><path d="M0,0 L1749.333,0 L1749.333,1206.667 L0,1206.667 Z" clip-rule="evenodd" /></clipPath><clipPath id="clip020"><path d="M0,0 L1749.333,0 L1749.333,1206.667 L0,1206.667 Z" clip-rule="evenodd" /></clipPath><clipPath id="clip021"><path d="M0,0 L1749.333,0 L1749.333,1206.667 L0,1206.667 Z" clip-rule="evenodd" /></clipPath><clipPath id="clip022"><path d="M0,0 L1749.333,0 L1749.333,1206.667 L0,1206.667 Z" clip-rule="evenodd" /></clipPath><clipPath id="clip023"><path d="M0,0 L1749.333,0 L1749.333,1206.667 L0,1206.667 Z" clip-rule="evenodd" /></clipPath><clipPath id="clip024"><path d="M0,0 L1749.333,0 L1749.333,1206.667 L0,1206.667 Z" clip-rule="evenodd" /></clipPath><clipPath id="clip025"><path d="M0,0 L1749.333,0 L1749.333,1206.667 L0,1206.667 Z" clip-rule="evenodd" /></clipPath><clipPath id="clip026"><path d="M0,0 L1749.333,0 L1749.333,1206.667 L0,1206.667 Z" clip-rule="evenodd" /></clipPath><clipPath id="clip027"><path d="M0,0 L1749.333,0 L1749.333,1206.667 L0,1206.667 Z" clip-rule="evenodd" /></clipPath><clipPath id="clip028"><path d="M0,0 L1749.333,0 L1749.333,1206.667 L0,1206.667 Z" clip-rule="evenodd" /></clipPath><clipPath id="clip029"><path d="M0,0 L1749.333,0 L1749.333,1206.667 L0,1206.667 Z" clip-rule="evenodd" /></clipPath><clipPath id="clip030"><path d="M0,0 L1749.333,0 L1749.333,1206.667 L0,1206.667 Z" clip-rule="evenodd" /></clipPath><clipPath id="clip031"><path d="M0,0 L1749.333,0 L1749.333,1206.667 L0,1206.667 Z" clip-rule="evenodd" /></clipPath><clipPath id="clip032"><path d="M0,0 L1749.333,0 L1749.333,1206.667 L0,1206.667 Z" clip-rule="evenodd" /></clipPath><clipPath id="clip033"><path d="M0,0 L1749.333,0 L1749.333,1206.667 L0,1206.667 Z" clip-rule="evenodd" /></clipPath><clipPath id="clip034"><path d="M0,0 L1749.333,0 L1749.333,1206.667 L0,1206.667 Z" clip-rule="evenodd" /></clipPath><clipPath id="clip035"><path d="M0,0 L1749.333,0 L1749.333,1206.667 L0,1206.667 Z" clip-rule="evenodd" /></clipPath><clipPath id="clip036"><path d="M0,0 L1749.333,0 L1749.333,1206.667 L0,1206.667 Z" clip-rule="evenodd" /></clipPath><clipPath id="clip037"><path d="M0,0 L1749.333,0 L1749.333,1206.667 L0,1206.667 Z" clip-rule="evenodd" /></clipPath><clipPath id="clip038"><path d="M0,0 L1749.333,0 L1749.333,1206.667 L0,1206.667 Z" clip-rule="evenodd" /></clipPath><clipPath id="clip039"><path d="M0,0 L1749.333,0 L1749.333,1206.667 L0,1206.667 Z" clip-rule="evenodd" /></clipPath><clipPath id="clip040"><path d="M0,0 L1749.333,0 L1749.333,1206.667 L0,1206.667 Z" clip-rule="evenodd" /></clipPath><clipPath id="clip041"><path d="M0,0 L1749.333,0 L1749.333,1206.667 L0,1206.667 Z" clip-rule="evenodd" /></clipPath></defs><clipPath id="page-clip-path-1"><rect x="0" y="0" width="234.67" height="145.33" /></clipPath><g clip-path="url(#page-clip-path-1)" transform="translate(0.17,0)"><g transform="translate(1,1)"><g><g transform="matrix(0.1197188,0,0,0.1199779,0,0)" clip-path="url(#clip001)"><g><g clip-path="url(#clip002)"><g><g clip-path="url(#clip003)"><g transform="matrix(1.000214,0,0,1.000852,0.00016276,0)"><g><g><g clip-path="url(#clip004)"><g transform="translate(1749.333,1208)" /></g></g></g><g clip-path="url(#clip005)"><g transform="matrix(0.000656168,0,0,0.000656168,0,0)"><path d="M0,0 L2668016,0 L2668016,1840992 L0,1840992 Z" fill="#ffffff" fill-opacity="0" fill-rule="evenodd" /></g></g><g clip-path="url(#clip006)"><g transform="matrix(0.000656168,0,0,0.000656168,202.6667,44)"><path d="M0,0 L2070608,0 L2070608,1298448 L0,1298448 Z" fill="#ffffff" fill-opacity="0" fill-rule="evenodd" /></g></g><g clip-path="url(#clip007)"><g transform="matrix(0.000656168,0,0,0.000656168,202.2231,303.3919)"><path d="M676,177710.7 L4740,171614.7 L4740,171614.7 L8804,202094.7 L8804,202094.7 L12868,230542.7 L12868,230542.7 L16932,295566.7 L16932,295566.7 L20996,307758.7 L20996,307758.7 L25060,338238.7 L25060,338238.7 L31156,324014.7 L31156,324014.7 L35220,299630.7 L35220,299630.7 L39284,295566.7 L39284,295566.7 L43348,307758.7 L43348,307758.7 L47412,293534.7 L47412,293534.7 L51476,293534.7 L51476,293534.7 L55540,291502.7 L55540,291502.7 L59604,277278.7 L59604,277278.7 L63668,269150.7 L63668,269150.7 L69764,236638.7 L69764,236638.7 L73828,222414.7 L73828,222414.7 L77892,198030.7 L77892,198030.7 L81956,191934.7 L81956,191934.7 L86020,151294.7 L86020,151294.7 L90084,222414.7 L90084,222414.7 L94148,200062.7 L94148,200062.7 L98212,173646.7 L98212,173646.7 L104308,208190.7 L104308,208190.7 L108372,218350.7 L108372,218350.7 L112436,214286.7 L112436,214286.7 L116500,224446.7 L116500,224446.7 L120564,208190.7 L120564,208190.7 L124628,185838.7 L124628,185838.7 L128692,214286.7 L128692,214286.7 L132756,228510.7 L132756,228510.7 L136820,206158.7 L136820,206158.7 L142916,226478.7 L142916,226478.7 L146980,212254.7 L146980,212254.7 L151044,218350.7 L151044,218350.7 L155108,232574.7 L155108,232574.7 L159172,234606.7 L159172,234606.7 L163236,250862.7 L163236,250862.7 L167300,252894.7 L167300,252894.7 L171364,230542.7 L171364,230542.7 L177460,252894.7 L177460,252894.7 L181524,248830.7 L181524,248830.7 L185588,226478.7 L185588,226478.7 L189652,246798.7 L189652,246798.7 L193716,281342.7 L193716,281342.7 L197780,271182.7 L197780,271182.7 L201844,265086.7 L201844,265086.7 L205908,242734.7 L205908,242734.7 L212004,230542.7 L212004,230542.7 L216068,208190.7 L216068,208190.7 L220132,216318.7 L220132,216318.7 L224196,244766.7 L224196,244766.7 L228260,234606.7 L228260,234606.7 L232324,240702.7 L232324,240702.7 L236388,279310.7 L236388,279310.7 L240452,301662.7 L240452,301662.7 L244516,319950.7 L244516,319950.7 L250612,326046.7 L250612,326046.7 L254676,303694.7 L254676,303694.7 L258740,279310.7 L258740,279310.7 L262804,305726.7 L262804,305726.7 L266868,334174.7 L266868,334174.7 L270932,334174.7 L270932,334174.7 L274996,293534.7 L274996,293534.7 L279060,295566.7 L279060,295566.7 L285156,326046.7 L285156,326046.7 L289220,328078.7 L289220,328078.7 L293284,332142.7 L293284,332142.7 L297348,330110.7 L297348,330110.7 L301412,350430.7 L301412,350430.7 L305476,342302.7 L305476,342302.7 L309540,326046.7 L309540,326046.7 L313604,326046.7 L313604,326046.7 L317668,334174.7 L317668,334174.7 L323764,338238.7 L323764,338238.7 L327828,346366.7 L327828,346366.7 L331892,346366.7 L331892,346366.7 L335956,362622.7 L335956,362622.7 L340020,368718.7 L340020,368718.7 L344084,336206.7 L344084,336206.7 L348148,340270.7 L348148,340270.7 L352212,328078.7 L352212,328078.7 L358308,305726.7 L358308,305726.7 L362372,313854.7 L362372,313854.7 L366436,289470.7 L366436,289470.7 L370500,283374.7 L370500,283374.7 L374564,250862.7 L374564,250862.7 L378628,248830.7 L378628,248830.7 L382692,242734.7 L382692,242734.7 L386756,220382.7 L386756,220382.7 L392852,220382.7 L392852,220382.7 L396916,234606.7 L396916,234606.7 L400980,234606.7 L400980,234606.7 L405044,218350.7 L405044,218350.7 L409108,193966.7 L409108,193966.7 L413172,189902.7 L413172,189902.7 L417236,171614.7 L417236,171614.7 L421300,147230.7 L421300,147230.7 L425364,181774.7 L425364,181774.7 L431460,185838.7 L431460,185838.7 L435524,198030.7 L435524,198030.7 L439588,198030.7 L439588,198030.7 L443652,206158.7 L443652,206158.7 L447716,216318.7 L447716,216318.7 L451780,226478.7 L451780,226478.7 L455844,248830.7 L455844,248830.7 L459908,214286.7 L459908,214286.7 L466004,226478.7 L466004,226478.7 L470068,206158.7 L470068,206158.7 L474132,189902.7 L474132,189902.7 L478196,181774.7 L478196,181774.7 L482260,189902.7 L482260,189902.7 L486324,198030.7 L486324,198030.7 L490388,181774.7 L490388,181774.7 L494452,198030.7 L494452,198030.7 L500548,212254.7 L500548,212254.7 L504612,208190.7 L504612,208190.7 L508676,177710.7 L508676,177710.7 L512740,181774.7 L512740,181774.7 L516804,198030.7 L516804,198030.7 L520868,200062.7 L520868,200062.7 L524932,189902.7 L524932,189902.7 L528996,195998.7 L528996,195998.7 L533060,202094.7 L533060,202094.7 L539156,208190.7 L539156,208190.7 L543220,212254.7 L543220,212254.7 L547284,191934.7 L547284,191934.7 L551348,183806.7 L551348,183806.7 L555412,198030.7 L555412,198030.7 L559476,200062.7 L559476,200062.7 L563540,210222.7 L563540,210222.7 L567604,236638.7 L567604,236638.7 L573700,246798.7 L573700,246798.7 L577764,232574.7 L577764,232574.7 L581828,246798.7 L581828,246798.7 L585892,236638.7 L585892,236638.7 L589956,236638.7 L589956,236638.7 L594020,248830.7 L594020,248830.7 L598084,261022.7 L598084,261022.7 L602148,269150.7 L602148,269150.7 L606212,309790.7 L606212,309790.7 L612308,291502.7 L612308,291502.7 L616372,299630.7 L616372,299630.7 L620436,297598.7 L620436,297598.7 L624500,315886.7 L624500,315886.7 L628564,309790.7 L628564,309790.7 L632628,340270.7 L632628,340270.7 L636692,350430.7 L636692,350430.7 L640756,366686.7 L640756,366686.7 L646852,399198.7 L646852,399198.7 L650916,368718.7 L650916,368718.7 L654980,391070.7 L654980,391070.7 L659044,387006.7 L659044,387006.7 L663108,407326.7 L663108,407326.7 L667172,415454.7 L667172,415454.7 L671236,437806.7 L671236,437806.7 L675300,423582.7 L675300,423582.7 L681396,429678.7 L681396,429678.7 L685460,389038.7 L685460,389038.7 L689524,387006.7 L689524,387006.7 L693588,368718.7 L693588,368718.7 L697652,370750.7 L697652,370750.7 L701716,366686.7 L701716,366686.7 L705780,348398.7 L705780,348398.7 L709844,376846.7 L709844,376846.7 L713908,423582.7 L713908,423582.7 L720004,387006.7 L720004,387006.7 L724068,433742.7 L724068,433742.7 L728132,452030.7 L728132,452030.7 L732196,425614.7 L732196,425614.7 L736260,380910.7 L736260,380910.7 L740324,360590.7 L740324,360590.7 L744388,405294.7 L744388,405294.7 L748452,393102.7 L748452,393102.7 L754548,360590.7 L754548,360590.7 L758612,328078.7 L758612,328078.7 L762676,303694.7 L762676,303694.7 L766740,269150.7 L766740,269150.7 L770804,281342.7 L770804,281342.7 L774868,350430.7 L774868,350430.7 L778932,265086.7 L778932,265086.7 L782996,311822.7 L782996,311822.7 L787060,281342.7 L787060,281342.7 L793156,254926.7 L793156,254926.7 L797220,279310.7 L797220,279310.7 L801284,307758.7 L801284,307758.7 L805348,297598.7 L805348,297598.7 L809412,309790.7 L809412,309790.7 L813476,307758.7 L813476,307758.7 L817540,311822.7 L817540,311822.7 L821604,289470.7 L821604,289470.7 L827700,336206.7 L827700,336206.7 L831764,305726.7 L831764,305726.7 L835828,332142.7 L835828,332142.7 L839892,364654.7 L839892,364654.7 L843956,332142.7 L843956,332142.7 L848020,317918.7 L848020,317918.7 L852084,212254.7 L852084,212254.7 L856148,244766.7 L856148,244766.7 L862244,258990.7 L862244,258990.7 L866308,287438.7 L866308,287438.7 L870372,244766.7 L870372,244766.7 L874436,218350.7 L874436,218350.7 L878500,238670.7 L878500,238670.7 L882564,222414.7 L882564,222414.7 L886628,244766.7 L886628,244766.7 L890692,212254.7 L890692,212254.7 L894756,232574.7 L894756,232574.7 L900852,226478.7 L900852,226478.7 L904916,208190.7 L904916,208190.7 L908980,173646.7 L908980,173646.7 L913044,191934.7 L913044,191934.7 L917108,191934.7 L917108,191934.7 L921172,171614.7 L921172,171614.7 L925236,147230.7 L925236,147230.7 L929300,151294.7 L929300,151294.7 L935396,177710.7 L935396,177710.7 L939460,173646.7 L939460,173646.7 L943524,149262.7 L943524,149262.7 L947588,147230.7 L947588,147230.7 L951652,102526.7 L951652,102526.7 L955716,94398.66 L955716,94398.66 L959780,120814.7 L959780,120814.7 L963844,112686.7 L963844,112686.7 L969940,114718.7 L969940,114718.7 L974004,102526.7 L974004,102526.7 L978068,112686.7 L978068,112686.7 L982132,124878.7 L982132,124878.7 L986196,139102.7 L986196,139102.7 L990260,108622.7 L990260,108622.7 L994324,126910.7 L994324,126910.7 L998388,145198.7 L998388,145198.7 L1002452,179742.7 L1002452,179742.7 L1008548,173646.7 L1008548,173646.7 L1012612,204126.7 L1012612,204126.7 L1016676,189902.7 L1016676,189902.7 L1020740,171614.7 L1020740,171614.7 L1024804,157390.7 L1024804,157390.7 L1028868,143166.7 L1028868,143166.7 L1032932,177710.7 L1032932,177710.7 L1036996,159422.7 L1036996,159422.7 L1043092,122846.7 L1043092,122846.7 L1047156,124878.7 L1047156,124878.7 L1051220,120814.7 L1051220,120814.7 L1055284,124878.7 L1055284,124878.7 L1059348,191934.7 L1059348,191934.7 L1063412,200062.7 L1063412,200062.7 L1067476,191934.7 L1067476,191934.7 L1071540,204126.7 L1071540,204126.7 L1075604,198030.7 L1075604,198030.7 L1081700,204126.7 L1081700,204126.7 L1085764,212254.7 L1085764,212254.7 L1089828,214286.7 L1089828,214286.7 L1093892,216318.7 L1093892,216318.7 L1097956,208190.7 L1097956,208190.7 L1102020,198030.7 L1102020,198030.7 L1106084,173646.7 L1106084,173646.7 L1110148,118782.7 L1110148,118782.7 L1116244,145198.7 L1116244,145198.7 L1120308,147230.7 L1120308,147230.7 L1124372,165518.7 L1124372,165518.7 L1128436,173646.7 L1128436,173646.7 L1132500,181774.7 L1132500,181774.7 L1136564,179742.7 L1136564,179742.7 L1140628,195998.7 L1140628,195998.7 L1144692,163486.7 L1144692,163486.7 L1150788,191934.7 L1150788,191934.7 L1154852,206158.7 L1154852,206158.7 L1158916,246798.7 L1158916,246798.7 L1162980,216318.7 L1162980,216318.7 L1167044,238670.7 L1167044,238670.7 L1171108,279310.7 L1171108,279310.7 L1175172,293534.7 L1175172,293534.7 L1179236,326046.7 L1179236,326046.7 L1183300,307758.7 L1183300,307758.7 L1189396,356526.7 L1189396,356526.7 L1193460,456094.7 L1193460,456094.7 L1197524,425614.7 L1197524,425614.7 L1201588,321982.7 L1201588,321982.7 L1205652,307758.7 L1205652,307758.7 L1209716,283374.7 L1209716,283374.7 L1213780,236638.7 L1213780,236638.7 L1217844,195998.7 L1217844,195998.7 L1223940,155358.7 L1223940,155358.7 L1228004,161454.7 L1228004,161454.7 L1232068,110654.7 L1232068,110654.7 L1236132,116750.7 L1236132,116750.7 L1240196,88302.66 L1240196,88302.66 L1244260,78142.66 L1244260,78142.66 L1248324,63918.67 L1248324,63918.67 L1252388,37502.67 L1252388,37502.67 L1256452,82206.66 L1256452,82206.66 L1262548,110654.7 L1262548,110654.7 L1266612,82206.66 L1266612,82206.66 L1270676,130974.7 L1270676,130974.7 L1274740,108622.7 L1274740,108622.7 L1278804,124878.7 L1278804,124878.7 L1282868,126910.7 L1282868,126910.7 L1286932,120814.7 L1286932,120814.7 L1290996,90334.66 L1290996,90334.66 L1297092,118782.7 L1297092,118782.7 L1301156,92366.66 L1301156,92366.66 L1305220,96430.66 L1305220,96430.66 L1309284,126910.7 L1309284,126910.7 L1313348,126910.7 L1313348,126910.7 L1317412,200062.7 L1317412,200062.7 L1321476,206158.7 L1321476,206158.7 L1325540,236638.7 L1325540,236638.7 L1331636,216318.7 L1331636,216318.7 L1335700,202094.7 L1335700,202094.7 L1339764,206158.7 L1339764,206158.7 L1343828,189902.7 L1343828,189902.7 L1347892,214286.7 L1347892,214286.7 L1351956,236638.7 L1351956,236638.7 L1356020,234606.7 L1356020,234606.7 L1360084,246798.7 L1360084,246798.7 L1364148,256958.7 L1364148,256958.7 L1370244,271182.7 L1370244,271182.7 L1374308,279310.7 L1374308,279310.7 L1378372,283374.7 L1378372,283374.7 L1382436,261022.7 L1382436,261022.7 L1386500,236638.7 L1386500,236638.7 L1390564,218350.7 L1390564,218350.7 L1394628,212254.7 L1394628,212254.7 L1398692,214286.7 L1398692,214286.7 L1404788,230542.7 L1404788,230542.7 L1408852,252894.7 L1408852,252894.7 L1412916,220382.7 L1412916,220382.7 L1416980,214286.7 L1416980,214286.7 L1421044,202094.7 L1421044,202094.7 L1425108,200062.7 L1425108,200062.7 L1429172,181774.7 L1429172,181774.7 L1433236,173646.7 L1433236,173646.7 L1439332,165518.7 L1439332,165518.7 L1443396,149262.7 L1443396,149262.7 L1447460,161454.7 L1447460,161454.7 L1451524,177710.7 L1451524,177710.7 L1455588,183806.7 L1455588,183806.7 L1459652,179742.7 L1459652,179742.7 L1463716,183806.7 L1463716,183806.7 L1467780,208190.7 L1467780,208190.7 L1471844,238670.7 L1471844,238670.7 L1477940,236638.7 L1477940,236638.7 L1482004,236638.7 L1482004,236638.7 L1486068,222414.7 L1486068,222414.7 L1490132,228510.7 L1490132,228510.7 L1494196,248830.7 L1494196,248830.7 L1498260,273214.7 L1498260,273214.7 L1502324,281342.7 L1502324,281342.7 L1506388,328078.7 L1506388,328078.7 L1512484,332142.7 L1512484,332142.7 L1516548,301662.7 L1516548,301662.7 L1520612,299630.7 L1520612,299630.7 L1524676,305726.7 L1524676,305726.7 L1528740,297598.7 L1528740,297598.7 L1532804,311822.7 L1532804,311822.7 L1536868,301662.7 L1536868,301662.7 L1540932,283374.7 L1540932,283374.7 L1544996,291502.7 L1544996,291502.7 L1551092,311822.7 L1551092,311822.7 L1555156,287438.7 L1555156,287438.7 L1559220,287438.7 L1559220,287438.7 L1563284,275246.7 L1563284,275246.7 L1567348,301662.7 L1567348,301662.7 L1571412,279310.7 L1571412,279310.7 L1575476,281342.7 L1575476,281342.7 L1579540,261022.7 L1579540,261022.7 L1585636,258990.7 L1585636,258990.7 L1589700,250862.7 L1589700,250862.7 L1593764,177710.7 L1593764,177710.7 L1597828,185838.7 L1597828,185838.7 L1601892,195998.7 L1601892,195998.7 L1605956,210222.7 L1605956,210222.7 L1610020,222414.7 L1610020,222414.7 L1614084,218350.7 L1614084,218350.7 L1620180,232574.7 L1620180,232574.7 L1624244,230542.7 L1624244,230542.7 L1628308,252894.7 L1628308,252894.7 L1632372,256958.7 L1632372,256958.7 L1636436,228510.7 L1636436,228510.7 L1640500,238670.7 L1640500,238670.7 L1644564,191934.7 L1644564,191934.7 L1648628,179742.7 L1648628,179742.7 L1652692,193966.7 L1652692,193966.7 L1658788,210222.7 L1658788,210222.7 L1662852,220382.7 L1662852,220382.7 L1666916,250862.7 L1666916,250862.7 L1670980,240702.7 L1670980,240702.7 L1675044,281342.7 L1675044,281342.7 L1679108,240702.7 L1679108,240702.7 L1683172,275246.7 L1683172,275246.7 L1687236,261022.7 L1687236,261022.7 L1693332,299630.7 L1693332,299630.7 L1697396,275246.7 L1697396,275246.7 L1701460,309790.7 L1701460,309790.7 L1705524,295566.7 L1705524,295566.7 L1709588,279310.7 L1709588,279310.7 L1713652,311822.7 L1713652,311822.7 L1717716,295566.7 L1717716,295566.7 L1721780,305726.7 L1721780,305726.7 L1725844,303694.7 L1725844,303694.7 L1731940,313854.7 L1731940,313854.7 L1736004,311822.7 L1736004,311822.7 L1740068,303694.7 L1740068,303694.7 L1744132,311822.7 L1744132,311822.7 L1748196,307758.7 L1748196,307758.7 L1752260,330110.7 L1752260,330110.7 L1756324,324014.7 L1756324,324014.7 L1760388,287438.7 L1760388,287438.7 L1766484,338238.7 L1766484,338238.7 L1770548,240702.7 L1770548,240702.7 L1774612,157390.7 L1774612,157390.7 L1778676,177710.7 L1778676,177710.7 L1782740,202094.7 L1782740,202094.7 L1786804,185838.7 L1786804,185838.7 L1790868,185838.7 L1790868,185838.7 L1794932,165518.7 L1794932,165518.7 L1801028,130974.7 L1801028,130974.7 L1805092,204126.7 L1805092,204126.7 L1809156,236638.7 L1809156,236638.7 L1813220,141134.7 L1813220,141134.7 L1817284,96430.66 L1817284,96430.66 L1821348,116750.7 L1821348,116750.7 L1825412,94398.66 L1825412,94398.66 L1829476,163486.7 L1829476,163486.7 L1833540,193966.7 L1833540,193966.7 L1839636,230542.7 L1839636,230542.7 L1843700,258990.7 L1843700,258990.7 L1847764,254926.7 L1847764,254926.7 L1851828,281342.7 L1851828,281342.7 L1855892,279310.7 L1855892,279310.7 L1859956,275246.7 L1859956,275246.7 L1864020,228510.7 L1864020,228510.7 L1868084,228510.7 L1868084,228510.7 L1874180,216318.7 L1874180,216318.7 L1878244,236638.7 L1878244,236638.7 L1882308,230542.7 L1882308,230542.7 L1886372,230542.7 L1886372,230542.7 L1890436,224446.7 L1890436,224446.7 L1894500,240702.7 L1894500,240702.7 L1898564,175678.7 L1898564,175678.7 L1902628,159422.7 L1902628,159422.7 L1908724,139102.7 L1908724,139102.7 L1912788,193966.7 L1912788,193966.7 L1916852,179742.7 L1916852,179742.7 L1920916,224446.7 L1920916,224446.7 L1924980,269150.7 L1924980,269150.7 L1929044,313854.7 L1929044,313854.7 L1933108,275246.7 L1933108,275246.7 L1937172,287438.7 L1937172,287438.7 L1941236,287438.7 L1941236,287438.7 L1947332,293534.7 L1947332,293534.7 L1951396,289470.7 L1951396,289470.7 L1955460,289470.7 L1955460,289470.7 L1959524,234606.7 L1959524,234606.7 L1963588,265086.7 L1963588,265086.7 L1967652,242734.7 L1967652,242734.7 L1971716,226478.7 L1971716,226478.7 L1975780,208190.7 L1975780,208190.7 L1981876,240702.7 L1981876,240702.7 L1985940,279310.7 L1985940,279310.7 L1990004,236638.7 L1990004,236638.7 L1994068,226478.7 L1994068,226478.7 L1998132,212254.7 L1998132,212254.7 L2002196,210222.7 L2002196,210222.7 L2006260,189902.7 L2006260,189902.7 L2010324,252894.7 L2010324,252894.7 L2014388,228510.7 L2014388,228510.7 L2020484,212254.7 L2020484,212254.7 L2024548,185838.7 L2024548,185838.7 L2028612,163486.7 L2028612,163486.7 L2032676,141134.7 L2032676,141134.7 L2036740,163486.7 L2036740,163486.7 L2040804,155358.7 L2040804,155358.7 L2044868,171614.7 L2044868,171614.7 L2048932,189902.7 L2048932,189902.7 L2055028,206158.7 L2055028,206158.7 L2059092,202094.7 L2059092,202094.7 L2063156,171614.7 L2063156,171614.7 L2067220,108622.7 L2067220,108622.7 L2071284,926.6667 L2071284,926.6667 L2075348,9054.667 L2075348,9054.667 L2079412,4990.667 L2079412,4990.667 L2083476,61886.67 L2083476,61886.67 L2083476,903134.7 L2083476,903134.7 L2079412,903134.7 L2079412,903134.7 L2075348,903134.7 L2075348,903134.7 L2071284,903134.7 L2071284,903134.7 L2067220,903134.7 L2067220,903134.7 L2063156,903134.7 L2063156,903134.7 L2059092,903134.7 L2059092,903134.7 L2055028,903134.7 L2055028,903134.7 L2048932,903134.7 L2048932,903134.7 L2044868,903134.7 L2044868,903134.7 L2040804,903134.7 L2040804,903134.7 L2036740,903134.7 L2036740,903134.7 L2032676,903134.7 L2032676,903134.7 L2028612,903134.7 L2028612,903134.7 L2024548,903134.7 L2024548,903134.7 L2020484,903134.7 L2020484,903134.7 L2014388,903134.7 L2014388,903134.7 L2010324,903134.7 L2010324,903134.7 L2006260,903134.7 L2006260,903134.7 L2002196,903134.7 L2002196,903134.7 L1998132,903134.7 L1998132,903134.7 L1994068,903134.7 L1994068,903134.7 L1990004,903134.7 L1990004,903134.7 L1985940,903134.7 L1985940,903134.7 L1981876,903134.7 L1981876,903134.7 L1975780,903134.7 L1975780,903134.7 L1971716,903134.7 L1971716,903134.7 L1967652,903134.7 L1967652,903134.7 L1963588,903134.7 L1963588,903134.7 L1959524,903134.7 L1959524,903134.7 L1955460,903134.7 L1955460,903134.7 L1951396,903134.7 L1951396,903134.7 L1947332,903134.7 L1947332,903134.7 L1941236,903134.7 L1941236,903134.7 L1937172,903134.7 L1937172,903134.7 L1933108,903134.7 L1933108,903134.7 L1929044,903134.7 L1929044,903134.7 L1924980,903134.7 L1924980,903134.7 L1920916,903134.7 L1920916,903134.7 L1916852,903134.7 L1916852,903134.7 L1912788,903134.7 L1912788,903134.7 L1908724,903134.7 L1908724,903134.7 L1902628,903134.7 L1902628,903134.7 L1898564,903134.7 L1898564,903134.7 L1894500,903134.7 L1894500,903134.7 L1890436,903134.7 L1890436,903134.7 L1886372,903134.7 L1886372,903134.7 L1882308,903134.7 L1882308,903134.7 L1878244,903134.7 L1878244,903134.7 L1874180,903134.7 L1874180,903134.7 L1868084,903134.7 L1868084,903134.7 L1864020,903134.7 L1864020,903134.7 L1859956,903134.7 L1859956,903134.7 L1855892,903134.7 L1855892,903134.7 L1851828,903134.7 L1851828,903134.7 L1847764,903134.7 L1847764,903134.7 L1843700,903134.7 L1843700,903134.7 L1839636,903134.7 L1839636,903134.7 L1833540,903134.7 L1833540,903134.7 L1829476,903134.7 L1829476,903134.7 L1825412,903134.7 L1825412,903134.7 L1821348,903134.7 L1821348,903134.7 L1817284,903134.7 L1817284,903134.7 L1813220,903134.7 L1813220,903134.7 L1809156,903134.7 L1809156,903134.7 L1805092,903134.7 L1805092,903134.7 L1801028,903134.7 L1801028,903134.7 L1794932,903134.7 L1794932,903134.7 L1790868,903134.7 L1790868,903134.7 L1786804,903134.7 L1786804,903134.7 L1782740,903134.7 L1782740,903134.7 L1778676,903134.7 L1778676,903134.7 L1774612,903134.7 L1774612,903134.7 L1770548,903134.7 L1770548,903134.7 L1766484,903134.7 L1766484,903134.7 L1760388,903134.7 L1760388,903134.7 L1756324,903134.7 L1756324,903134.7 L1752260,903134.7 L1752260,903134.7 L1748196,903134.7 L1748196,903134.7 L1744132,903134.7 L1744132,903134.7 L1740068,903134.7 L1740068,903134.7 L1736004,903134.7 L1736004,903134.7 L1731940,903134.7 L1731940,903134.7 L1725844,903134.7 L1725844,903134.7 L1721780,903134.7 L1721780,903134.7 L1717716,903134.7 L1717716,903134.7 L1713652,903134.7 L1713652,903134.7 L1709588,903134.7 L1709588,903134.7 L1705524,903134.7 L1705524,903134.7 L1701460,903134.7 L1701460,903134.7 L1697396,903134.7 L1697396,903134.7 L1693332,903134.7 L1693332,903134.7 L1687236,903134.7 L1687236,903134.7 L1683172,903134.7 L1683172,903134.7 L1679108,903134.7 L1679108,903134.7 L1675044,903134.7 L1675044,903134.7 L1670980,903134.7 L1670980,903134.7 L1666916,903134.7 L1666916,903134.7 L1662852,903134.7 L1662852,903134.7 L1658788,903134.7 L1658788,903134.7 L1652692,903134.7 L1652692,903134.7 L1648628,903134.7 L1648628,903134.7 L1644564,903134.7 L1644564,903134.7 L1640500,903134.7 L1640500,903134.7 L1636436,903134.7 L1636436,903134.7 L1632372,903134.7 L1632372,903134.7 L1628308,903134.7 L1628308,903134.7 L1624244,903134.7 L1624244,903134.7 L1620180,903134.7 L1620180,903134.7 L1614084,903134.7 L1614084,903134.7 L1610020,903134.7 L1610020,903134.7 L1605956,903134.7 L1605956,903134.7 L1601892,903134.7 L1601892,903134.7 L1597828,903134.7 L1597828,903134.7 L1593764,903134.7 L1593764,903134.7 L1589700,903134.7 L1589700,903134.7 L1585636,903134.7 L1585636,903134.7 L1579540,903134.7 L1579540,903134.7 L1575476,903134.7 L1575476,903134.7 L1571412,903134.7 L1571412,903134.7 L1567348,903134.7 L1567348,903134.7 L1563284,903134.7 L1563284,903134.7 L1559220,903134.7 L1559220,903134.7 L1555156,903134.7 L1555156,903134.7 L1551092,903134.7 L1551092,903134.7 L1544996,903134.7 L1544996,903134.7 L1540932,903134.7 L1540932,903134.7 L1536868,903134.7 L1536868,903134.7 L1532804,903134.7 L1532804,903134.7 L1528740,903134.7 L1528740,903134.7 L1524676,903134.7 L1524676,903134.7 L1520612,903134.7 L1520612,903134.7 L1516548,903134.7 L1516548,903134.7 L1512484,903134.7 L1512484,903134.7 L1506388,903134.7 L1506388,903134.7 L1502324,903134.7 L1502324,903134.7 L1498260,903134.7 L1498260,903134.7 L1494196,903134.7 L1494196,903134.7 L1490132,903134.7 L1490132,903134.7 L1486068,903134.7 L1486068,903134.7 L1482004,903134.7 L1482004,903134.7 L1477940,903134.7 L1477940,903134.7 L1471844,903134.7 L1471844,903134.7 L1467780,903134.7 L1467780,903134.7 L1463716,903134.7 L1463716,903134.7 L1459652,903134.7 L1459652,903134.7 L1455588,903134.7 L1455588,903134.7 L1451524,903134.7 L1451524,903134.7 L1447460,903134.7 L1447460,903134.7 L1443396,903134.7 L1443396,903134.7 L1439332,903134.7 L1439332,903134.7 L1433236,903134.7 L1433236,903134.7 L1429172,903134.7 L1429172,903134.7 L1425108,903134.7 L1425108,903134.7 L1421044,903134.7 L1421044,903134.7 L1416980,903134.7 L1416980,903134.7 L1412916,903134.7 L1412916,903134.7 L1408852,903134.7 L1408852,903134.7 L1404788,903134.7 L1404788,903134.7 L1398692,903134.7 L1398692,903134.7 L1394628,903134.7 L1394628,903134.7 L1390564,903134.7 L1390564,903134.7 L1386500,903134.7 L1386500,903134.7 L1382436,903134.7 L1382436,903134.7 L1378372,903134.7 L1378372,903134.7 L1374308,903134.7 L1374308,903134.7 L1370244,903134.7 L1370244,903134.7 L1364148,903134.7 L1364148,903134.7 L1360084,903134.7 L1360084,903134.7 L1356020,903134.7 L1356020,903134.7 L1351956,903134.7 L1351956,903134.7 L1347892,903134.7 L1347892,903134.7 L1343828,903134.7 L1343828,903134.7 L1339764,903134.7 L1339764,903134.7 L1335700,903134.7 L1335700,903134.7 L1331636,903134.7 L1331636,903134.7 L1325540,903134.7 L1325540,903134.7 L1321476,903134.7 L1321476,903134.7 L1317412,903134.7 L1317412,903134.7 L1313348,903134.7 L1313348,903134.7 L1309284,903134.7 L1309284,903134.7 L1305220,903134.7 L1305220,903134.7 L1301156,903134.7 L1301156,903134.7 L1297092,903134.7 L1297092,903134.7 L1290996,903134.7 L1290996,903134.7 L1286932,903134.7 L1286932,903134.7 L1282868,903134.7 L1282868,903134.7 L1278804,903134.7 L1278804,903134.7 L1274740,903134.7 L1274740,903134.7 L1270676,903134.7 L1270676,903134.7 L1266612,903134.7 L1266612,903134.7 L1262548,903134.7 L1262548,903134.7 L1256452,903134.7 L1256452,903134.7 L1252388,903134.7 L1252388,903134.7 L1248324,903134.7 L1248324,903134.7 L1244260,903134.7 L1244260,903134.7 L1240196,903134.7 L1240196,903134.7 L1236132,903134.7 L1236132,903134.7 L1232068,903134.7 L1232068,903134.7 L1228004,903134.7 L1228004,903134.7 L1223940,903134.7 L1223940,903134.7 L1217844,903134.7 L1217844,903134.7 L1213780,903134.7 L1213780,903134.7 L1209716,903134.7 L1209716,903134.7 L1205652,903134.7 L1205652,903134.7 L1201588,903134.7 L1201588,903134.7 L1197524,903134.7 L1197524,903134.7 L1193460,903134.7 L1193460,903134.7 L1189396,903134.7 L1189396,903134.7 L1183300,903134.7 L1183300,903134.7 L1179236,903134.7 L1179236,903134.7 L1175172,903134.7 L1175172,903134.7 L1171108,903134.7 L1171108,903134.7 L1167044,903134.7 L1167044,903134.7 L1162980,903134.7 L1162980,903134.7 L1158916,903134.7 L1158916,903134.7 L1154852,903134.7 L1154852,903134.7 L1150788,903134.7 L1150788,903134.7 L1144692,903134.7 L1144692,903134.7 L1140628,903134.7 L1140628,903134.7 L1136564,903134.7 L1136564,903134.7 L1132500,903134.7 L1132500,903134.7 L1128436,903134.7 L1128436,903134.7 L1124372,903134.7 L1124372,903134.7 L1120308,903134.7 L1120308,903134.7 L1116244,903134.7 L1116244,903134.7 L1110148,903134.7 L1110148,903134.7 L1106084,903134.7 L1106084,903134.7 L1102020,903134.7 L1102020,903134.7 L1097956,903134.7 L1097956,903134.7 L1093892,903134.7 L1093892,903134.7 L1089828,903134.7 L1089828,903134.7 L1085764,903134.7 L1085764,903134.7 L1081700,903134.7 L1081700,903134.7 L1075604,903134.7 L1075604,903134.7 L1071540,903134.7 L1071540,903134.7 L1067476,903134.7 L1067476,903134.7 L1063412,903134.7 L1063412,903134.7 L1059348,903134.7 L1059348,903134.7 L1055284,903134.7 L1055284,903134.7 L1051220,903134.7 L1051220,903134.7 L1047156,903134.7 L1047156,903134.7 L1043092,903134.7 L1043092,903134.7 L1036996,903134.7 L1036996,903134.7 L1032932,903134.7 L1032932,903134.7 L1028868,903134.7 L1028868,903134.7 L1024804,903134.7 L1024804,903134.7 L1020740,903134.7 L1020740,903134.7 L1016676,903134.7 L1016676,903134.7 L1012612,903134.7 L1012612,903134.7 L1008548,903134.7 L1008548,903134.7 L1002452,903134.7 L1002452,903134.7 L998388,903134.7 L998388,903134.7 L994324,903134.7 L994324,903134.7 L990260,903134.7 L990260,903134.7 L986196,903134.7 L986196,903134.7 L982132,903134.7 L982132,903134.7 L978068,903134.7 L978068,903134.7 L974004,903134.7 L974004,903134.7 L969940,903134.7 L969940,903134.7 L963844,903134.7 L963844,903134.7 L959780,903134.7 L959780,903134.7 L955716,903134.7 L955716,903134.7 L951652,903134.7 L951652,903134.7 L947588,903134.7 L947588,903134.7 L943524,903134.7 L943524,903134.7 L939460,903134.7 L939460,903134.7 L935396,903134.7 L935396,903134.7 L929300,903134.7 L929300,903134.7 L925236,903134.7 L925236,903134.7 L921172,903134.7 L921172,903134.7 L917108,903134.7 L917108,903134.7 L913044,903134.7 L913044,903134.7 L908980,903134.7 L908980,903134.7 L904916,903134.7 L904916,903134.7 L900852,903134.7 L900852,903134.7 L894756,903134.7 L894756,903134.7 L890692,903134.7 L890692,903134.7 L886628,903134.7 L886628,903134.7 L882564,903134.7 L882564,903134.7 L878500,903134.7 L878500,903134.7 L874436,903134.7 L874436,903134.7 L870372,903134.7 L870372,903134.7 L866308,903134.7 L866308,903134.7 L862244,903134.7 L862244,903134.7 L856148,903134.7 L856148,903134.7 L852084,903134.7 L852084,903134.7 L848020,903134.7 L848020,903134.7 L843956,903134.7 L843956,903134.7 L839892,903134.7 L839892,903134.7 L835828,903134.7 L835828,903134.7 L831764,903134.7 L831764,903134.7 L827700,903134.7 L827700,903134.7 L821604,903134.7 L821604,903134.7 L817540,903134.7 L817540,903134.7 L813476,903134.7 L813476,903134.7 L809412,903134.7 L809412,903134.7 L805348,903134.7 L805348,903134.7 L801284,903134.7 L801284,903134.7 L797220,903134.7 L797220,903134.7 L793156,903134.7 L793156,903134.7 L787060,903134.7 L787060,903134.7 L782996,903134.7 L782996,903134.7 L778932,903134.7 L778932,903134.7 L774868,903134.7 L774868,903134.7 L770804,903134.7 L770804,903134.7 L766740,903134.7 L766740,903134.7 L762676,903134.7 L762676,903134.7 L758612,903134.7 L758612,903134.7 L754548,903134.7 L754548,903134.7 L748452,903134.7 L748452,903134.7 L744388,903134.7 L744388,903134.7 L740324,903134.7 L740324,903134.7 L736260,903134.7 L736260,903134.7 L732196,903134.7 L732196,903134.7 L728132,903134.7 L728132,903134.7 L724068,903134.7 L724068,903134.7 L720004,903134.7 L720004,903134.7 L713908,903134.7 L713908,903134.7 L709844,903134.7 L709844,903134.7 L705780,903134.7 L705780,903134.7 L701716,903134.7 L701716,903134.7 L697652,903134.7 L697652,903134.7 L693588,903134.7 L693588,903134.7 L689524,903134.7 L689524,903134.7 L685460,903134.7 L685460,903134.7 L681396,903134.7 L681396,903134.7 L675300,903134.7 L675300,903134.7 L671236,903134.7 L671236,903134.7 L667172,903134.7 L667172,903134.7 L663108,903134.7 L663108,903134.7 L659044,903134.7 L659044,903134.7 L654980,903134.7 L654980,903134.7 L650916,903134.7 L650916,903134.7 L646852,903134.7 L646852,903134.7 L640756,903134.7 L640756,903134.7 L636692,903134.7 L636692,903134.7 L632628,903134.7 L632628,903134.7 L628564,903134.7 L628564,903134.7 L624500,903134.7 L624500,903134.7 L620436,903134.7 L620436,903134.7 L616372,903134.7 L616372,903134.7 L612308,903134.7 L612308,903134.7 L606212,903134.7 L606212,903134.7 L602148,903134.7 L602148,903134.7 L598084,903134.7 L598084,903134.7 L594020,903134.7 L594020,903134.7 L589956,903134.7 L589956,903134.7 L585892,903134.7 L585892,903134.7 L581828,903134.7 L581828,903134.7 L577764,903134.7 L577764,903134.7 L573700,903134.7 L573700,903134.7 L567604,903134.7 L567604,903134.7 L563540,903134.7 L563540,903134.7 L559476,903134.7 L559476,903134.7 L555412,903134.7 L555412,903134.7 L551348,903134.7 L551348,903134.7 L547284,903134.7 L547284,903134.7 L543220,903134.7 L543220,903134.7 L539156,903134.7 L539156,903134.7 L533060,903134.7 L533060,903134.7 L528996,903134.7 L528996,903134.7 L524932,903134.7 L524932,903134.7 L520868,903134.7 L520868,903134.7 L516804,903134.7 L516804,903134.7 L512740,903134.7 L512740,903134.7 L508676,903134.7 L508676,903134.7 L504612,903134.7 L504612,903134.7 L500548,903134.7 L500548,903134.7 L494452,903134.7 L494452,903134.7 L490388,903134.7 L490388,903134.7 L486324,903134.7 L486324,903134.7 L482260,903134.7 L482260,903134.7 L478196,903134.7 L478196,903134.7 L474132,903134.7 L474132,903134.7 L470068,903134.7 L470068,903134.7 L466004,903134.7 L466004,903134.7 L459908,903134.7 L459908,903134.7 L455844,903134.7 L455844,903134.7 L451780,903134.7 L451780,903134.7 L447716,903134.7 L447716,903134.7 L443652,903134.7 L443652,903134.7 L439588,903134.7 L439588,903134.7 L435524,903134.7 L435524,903134.7 L431460,903134.7 L431460,903134.7 L425364,903134.7 L425364,903134.7 L421300,903134.7 L421300,903134.7 L417236,903134.7 L417236,903134.7 L413172,903134.7 L413172,903134.7 L409108,903134.7 L409108,903134.7 L405044,903134.7 L405044,903134.7 L400980,903134.7 L400980,903134.7 L396916,903134.7 L396916,903134.7 L392852,903134.7 L392852,903134.7 L386756,903134.7 L386756,903134.7 L382692,903134.7 L382692,903134.7 L378628,903134.7 L378628,903134.7 L374564,903134.7 L374564,903134.7 L370500,903134.7 L370500,903134.7 L366436,903134.7 L366436,903134.7 L362372,903134.7 L362372,903134.7 L358308,903134.7 L358308,903134.7 L352212,903134.7 L352212,903134.7 L348148,903134.7 L348148,903134.7 L344084,903134.7 L344084,903134.7 L340020,903134.7 L340020,903134.7 L335956,903134.7 L335956,903134.7 L331892,903134.7 L331892,903134.7 L327828,903134.7 L327828,903134.7 L323764,903134.7 L323764,903134.7 L317668,903134.7 L317668,903134.7 L313604,903134.7 L313604,903134.7 L309540,903134.7 L309540,903134.7 L305476,903134.7 L305476,903134.7 L301412,903134.7 L301412,903134.7 L297348,903134.7 L297348,903134.7 L293284,903134.7 L293284,903134.7 L289220,903134.7 L289220,903134.7 L285156,903134.7 L285156,903134.7 L279060,903134.7 L279060,903134.7 L274996,903134.7 L274996,903134.7 L270932,903134.7 L270932,903134.7 L266868,903134.7 L266868,903134.7 L262804,903134.7 L262804,903134.7 L258740,903134.7 L258740,903134.7 L254676,903134.7 L254676,903134.7 L250612,903134.7 L250612,903134.7 L244516,903134.7 L244516,903134.7 L240452,903134.7 L240452,903134.7 L236388,903134.7 L236388,903134.7 L232324,903134.7 L232324,903134.7 L228260,903134.7 L228260,903134.7 L224196,903134.7 L224196,903134.7 L220132,903134.7 L220132,903134.7 L216068,903134.7 L216068,903134.7 L212004,903134.7 L212004,903134.7 L205908,903134.7 L205908,903134.7 L201844,903134.7 L201844,903134.7 L197780,903134.7 L197780,903134.7 L193716,903134.7 L193716,903134.7 L189652,903134.7 L189652,903134.7 L185588,903134.7 L185588,903134.7 L181524,903134.7 L181524,903134.7 L177460,903134.7 L177460,903134.7 L171364,903134.7 L171364,903134.7 L167300,903134.7 L167300,903134.7 L163236,903134.7 L163236,903134.7 L159172,903134.7 L159172,903134.7 L155108,903134.7 L155108,903134.7 L151044,903134.7 L151044,903134.7 L146980,903134.7 L146980,903134.7 L142916,903134.7 L142916,903134.7 L136820,903134.7 L136820,903134.7 L132756,903134.7 L132756,903134.7 L128692,903134.7 L128692,903134.7 L124628,903134.7 L124628,903134.7 L120564,903134.7 L120564,903134.7 L116500,903134.7 L116500,903134.7 L112436,903134.7 L112436,903134.7 L108372,903134.7 L108372,903134.7 L104308,903134.7 L104308,903134.7 L98212,903134.7 L98212,903134.7 L94148,903134.7 L94148,903134.7 L90084,903134.7 L90084,903134.7 L86020,903134.7 L86020,903134.7 L81956,903134.7 L81956,903134.7 L77892,903134.7 L77892,903134.7 L73828,903134.7 L73828,903134.7 L69764,903134.7 L69764,903134.7 L63668,903134.7 L63668,903134.7 L59604,903134.7 L59604,903134.7 L55540,903134.7 L55540,903134.7 L51476,903134.7 L51476,903134.7 L47412,903134.7 L47412,903134.7 L43348,903134.7 L43348,903134.7 L39284,903134.7 L39284,903134.7 L35220,903134.7 L35220,903134.7 L31156,903134.7 L31156,903134.7 L25060,903134.7 L25060,903134.7 L20996,903134.7 L20996,903134.7 L16932,903134.7 L16932,903134.7 L12868,903134.7 L12868,903134.7 L8804,903134.7 L8804,903134.7 L4740,903134.7 L4740,903134.7 L676,903134.7 Z" fill="#012169" fill-rule="nonzero" /></g></g><g clip-path="url(#clip008)"><g transform="matrix(0.000656168,0,0,0.000656168,202.6667,896)"><g><path d="M0.004361574,-6773.333 L2070608,-6772 " stroke-width="3386.667" stroke-linejoin="round" stroke-miterlimit="13.33333" stroke="#000000" fill="none" fill-rule="evenodd" /><path d="M-0.002180787,3386.667 L2070608,3388 " stroke-width="10160" stroke-linejoin="round" stroke-miterlimit="13.33333" stroke="#000000" fill="none" fill-rule="evenodd" /></g></g></g><g clip-path="url(#clip009)"><g transform="matrix(0.000656168,0,0,0.000656168,202.2231,167.0604)"><path d="M-340,864016 L3724,817280 L3724,817280 L7788,792896 L7788,792896 L13884,813216 L13884,813216 L17948,798992 L17948,798992 L22012,801024 L22012,801024 L26076,851824 L26076,851824 L30140,796960 L30140,796960 L34204,839632 L34204,839632 L38268,807120 L38268,807120 L42332,801024 L42332,801024 L46396,815248 L46396,815248 L52492,736000 L52492,736000 L56556,711616 L56556,711616 L60620,689264 L60620,689264 L64684,703488 L64684,703488 L68748,695360 L68748,695360 L72812,652688 L72812,652688 L76876,603920 L76876,603920 L80940,589696 L80940,589696 L87036,595792 L87036,595792 L91100,829472 L91100,829472 L95164,872144 L95164,872144 L99228,821344 L99228,821344 L103292,819312 L103292,819312 L107356,807120 L107356,807120 L111420,831504 L111420,831504 L115484,843696 L115484,843696 L121580,851824 L121580,851824 L125644,823376 L125644,823376 L129708,851824 L129708,851824 L133772,890432 L133772,890432 L137836,861984 L137836,861984 L141900,866048 L141900,866048 L145964,878240 L145964,878240 L150028,876208 L150028,876208 L154092,851824 L154092,851824 L160188,876208 L160188,876208 L164252,878240 L164252,878240 L168316,851824 L168316,851824 L172380,823376 L172380,823376 L176444,843696 L176444,843696 L180508,792896 L180508,792896 L184572,770544 L184572,770544 L188636,786800 L188636,786800 L194732,819312 L194732,819312 L198796,798992 L198796,798992 L202860,786800 L202860,786800 L206924,815248 L206924,815248 L210988,798992 L210988,798992 L215052,770544 L215052,770544 L219116,792896 L219116,792896 L223180,752256 L223180,752256 L227244,760384 L227244,760384 L233340,770544 L233340,770544 L237404,855888 L237404,855888 L241468,896528 L241468,896528 L245532,902624 L245532,902624 L249596,864016 L249596,864016 L253660,829472 L253660,829472 L257724,786800 L257724,786800 L261788,748192 L261788,748192 L267884,742096 L267884,742096 L271948,736000 L271948,736000 L276012,679104 L276012,679104 L280076,719744 L280076,719744 L284140,711616 L284140,711616 L288204,703488 L288204,703488 L292268,727872 L292268,727872 L296332,723808 L296332,723808 L302428,768512 L302428,768512 L306492,685200 L306492,685200 L310556,683168 L310556,683168 L314620,673008 L314620,673008 L318684,703488 L318684,703488 L322748,695360 L322748,695360 L326812,711616 L326812,711616 L330876,733968 L330876,733968 L334940,725840 L334940,725840 L341036,748192 L341036,748192 L345100,725840 L345100,725840 L349164,725840 L349164,725840 L353228,691296 L353228,691296 L357292,668944 L357292,668944 L361356,675040 L361356,675040 L365420,650656 L365420,650656 L369484,636432 L369484,636432 L375580,634400 L375580,634400 L379644,626272 L379644,626272 L383708,630336 L383708,630336 L387772,622208 L387772,622208 L391836,601888 L391836,601888 L395900,626272 L395900,626272 L399964,620176 L399964,620176 L404028,626272 L404028,626272 L408092,603920 L408092,603920 L414188,581568 L414188,581568 L418252,603920 L418252,603920 L422316,636432 L422316,636432 L426380,656752 L426380,656752 L430444,664880 L430444,664880 L434508,701456 L434508,701456 L438572,685200 L438572,685200 L442636,679104 L442636,679104 L448732,719744 L448732,719744 L452796,721776 L452796,721776 L456860,776640 L456860,776640 L460924,756320 L460924,756320 L464988,754288 L464988,754288 L469052,725840 L469052,725840 L473116,705520 L473116,705520 L477180,691296 L477180,691296 L483276,685200 L483276,685200 L487340,683168 L487340,683168 L491404,656752 L491404,656752 L495468,673008 L495468,673008 L499532,664880 L499532,664880 L503596,673008 L503596,673008 L507660,624240 L507660,624240 L511724,618144 L511724,618144 L515788,597824 L515788,597824 L521884,595792 L521884,595792 L525948,583600 L525948,583600 L530012,581568 L530012,581568 L534076,575472 L534076,575472 L538140,585632 L538140,585632 L542204,634400 L542204,634400 L546268,612048 L546268,612048 L550332,567344 L550332,567344 L556428,567344 L556428,567344 L560492,512480 L560492,512480 L564556,551088 L564556,551088 L568620,532800 L568620,532800 L572684,544992 L572684,544992 L576748,577504 L576748,577504 L580812,551088 L580812,551088 L584876,500288 L584876,500288 L590972,457616 L590972,457616 L595036,404784 L595036,404784 L599100,482000 L599100,482000 L603164,447456 L603164,447456 L607228,522640 L607228,522640 L611292,467776 L611292,467776 L615356,463712 L615356,463712 L619420,461680 L619420,461680 L623484,404784 L623484,404784 L629580,345856 L629580,345856 L633644,372272 L633644,372272 L637708,412912 L637708,412912 L641772,394624 L641772,394624 L645836,443392 L645836,443392 L649900,571408 L649900,571408 L653964,547024 L653964,547024 L658028,455584 L658028,455584 L664124,410880 L664124,410880 L668188,362112 L668188,362112 L672252,343824 L672252,343824 L676316,372272 L676316,372272 L680380,337728 L680380,337728 L684444,260512 L684444,260512 L688508,313344 L688508,313344 L692572,242224 L692572,242224 L696636,288960 L696636,288960 L702732,311312 L702732,311312 L706796,329600 L706796,329600 L710860,303184 L710860,303184 L714924,343824 L714924,343824 L718988,240192 L718988,240192 L723052,370240 L723052,370240 L727116,429168 L727116,429168 L731180,309280 L731180,309280 L737276,307248 L737276,307248 L741340,327568 L741340,327568 L745404,368208 L745404,368208 L749468,368208 L749468,368208 L753532,266608 L753532,266608 L757596,295056 L757596,295056 L761660,266608 L761660,266608 L765724,315376 L765724,315376 L771820,297088 L771820,297088 L775884,319440 L775884,319440 L779948,323504 L779948,323504 L784012,425104 L784012,425104 L788076,290992 L788076,290992 L792140,258480 L792140,258480 L796204,307248 L796204,307248 L800268,327568 L800268,327568 L804332,382432 L804332,382432 L810428,469808 L810428,469808 L814492,402752 L814492,402752 L818556,313344 L818556,313344 L822620,290992 L822620,290992 L826684,368208 L826684,368208 L830748,380400 L830748,380400 L834812,388528 L834812,388528 L838876,488096 L838876,488096 L844972,477936 L844972,477936 L849036,540928 L849036,540928 L853100,524672 L853100,524672 L857164,542960 L857164,542960 L861228,646592 L861228,646592 L865292,589696 L865292,589696 L869356,508416 L869356,508416 L873420,538896 L873420,538896 L879516,585632 L879516,585632 L883580,583600 L883580,583600 L887644,601888 L887644,601888 L891708,516544 L891708,516544 L895772,494192 L895772,494192 L899836,488096 L899836,488096 L903900,465744 L903900,465744 L907964,433232 L907964,433232 L912028,473872 L912028,473872 L918124,433232 L918124,433232 L922188,416976 L922188,416976 L926252,356016 L926252,356016 L930316,358048 L930316,358048 L934380,388528 L934380,388528 L938444,416976 L938444,416976 L942508,431200 L942508,431200 L946572,449488 L946572,449488 L952668,408848 L952668,408848 L956732,447456 L956732,447456 L960796,477936 L960796,477936 L964860,469808 L964860,469808 L968924,471840 L968924,471840 L972988,435264 L972988,435264 L977052,421040 L977052,421040 L981116,461680 L981116,461680 L985180,465744 L985180,465744 L991276,471840 L991276,471840 L995340,516544 L995340,516544 L999404,514512 L999404,514512 L1003468,549056 L1003468,549056 L1007532,528736 L1007532,528736 L1011596,579536 L1011596,579536 L1015660,579536 L1015660,579536 L1019724,595792 L1019724,595792 L1025820,559216 L1025820,559216 L1029884,559216 L1029884,559216 L1033948,569376 L1033948,569376 L1038012,561248 L1038012,561248 L1042076,532800 L1042076,532800 L1046140,530768 L1046140,530768 L1050204,567344 L1050204,567344 L1054268,579536 L1054268,579536 L1060364,630336 L1060364,630336 L1064428,628304 L1064428,628304 L1068492,605952 L1068492,605952 L1072556,593760 L1072556,593760 L1076620,581568 L1076620,581568 L1080684,581568 L1080684,581568 L1084748,579536 L1084748,579536 L1088812,599856 L1088812,599856 L1092876,599856 L1092876,599856 L1098972,567344 L1098972,567344 L1103036,547024 L1103036,547024 L1107100,557184 L1107100,557184 L1111164,555152 L1111164,555152 L1115228,575472 L1115228,575472 L1119292,553120 L1119292,553120 L1123356,557184 L1123356,557184 L1127420,599856 L1127420,599856 L1133516,607984 L1133516,607984 L1137580,650656 L1137580,650656 L1141644,681136 L1141644,681136 L1145708,662848 L1145708,662848 L1149772,640496 L1149772,640496 L1153836,642528 L1153836,642528 L1157900,742096 L1157900,742096 L1161964,727872 L1161964,727872 L1166028,725840 L1166028,725840 L1172124,813216 L1172124,813216 L1176188,896528 L1176188,896528 L1180252,900592 L1180252,900592 L1184316,841664 L1184316,841664 L1188380,896528 L1188380,896528 L1192444,947328 L1192444,947328 L1196508,874176 L1196508,874176 L1200572,746160 L1200572,746160 L1206668,701456 L1206668,701456 L1210732,713648 L1210732,713648 L1214796,646592 L1214796,646592 L1218860,614080 L1218860,614080 L1222924,565312 L1222924,565312 L1226988,607984 L1226988,607984 L1231052,557184 L1231052,557184 L1235116,561248 L1235116,561248 L1241212,589696 L1241212,589696 L1245276,587664 L1245276,587664 L1249340,530768 L1249340,530768 L1253404,518576 L1253404,518576 L1257468,656752 L1257468,656752 L1261532,723808 L1261532,723808 L1265596,666912 L1265596,666912 L1269660,744128 L1269660,744128 L1273724,675040 L1273724,675040 L1279820,664880 L1279820,664880 L1283884,675040 L1283884,675040 L1287948,634400 L1287948,634400 L1292012,616112 L1292012,616112 L1296076,620176 L1296076,620176 L1300140,620176 L1300140,620176 L1304204,610016 L1304204,610016 L1308268,660816 L1308268,660816 L1314364,681136 L1314364,681136 L1318428,744128 L1318428,744128 L1322492,794928 L1322492,794928 L1326556,855888 L1326556,855888 L1330620,774608 L1330620,774608 L1334684,770544 L1334684,770544 L1338748,770544 L1338748,770544 L1342812,731936 L1342812,731936 L1348908,721776 L1348908,721776 L1352972,719744 L1352972,719744 L1357036,736000 L1357036,736000 L1361100,790864 L1361100,790864 L1365164,772576 L1365164,772576 L1369228,772576 L1369228,772576 L1373292,764448 L1373292,764448 L1377356,756320 L1377356,756320 L1381420,758352 L1381420,758352 L1387516,738032 L1387516,738032 L1391580,725840 L1391580,725840 L1395644,691296 L1395644,691296 L1399708,687232 L1399708,687232 L1403772,675040 L1403772,675040 L1407836,683168 L1407836,683168 L1411900,646592 L1411900,646592 L1415964,662848 L1415964,662848 L1422060,624240 L1422060,624240 L1426124,650656 L1426124,650656 L1430188,618144 L1430188,618144 L1434252,581568 L1434252,581568 L1438316,555152 L1438316,555152 L1442380,522640 L1442380,522640 L1446444,569376 L1446444,569376 L1450508,544992 L1450508,544992 L1454572,547024 L1454572,547024 L1460668,542960 L1460668,542960 L1464732,542960 L1464732,542960 L1468796,551088 L1468796,551088 L1472860,595792 L1472860,595792 L1476924,573440 L1476924,573440 L1480988,589696 L1480988,589696 L1485052,561248 L1485052,561248 L1489116,538896 L1489116,538896 L1495212,549056 L1495212,549056 L1499276,587664 L1499276,587664 L1503340,530768 L1503340,530768 L1507404,591728 L1507404,591728 L1511468,589696 L1511468,589696 L1515532,561248 L1515532,561248 L1519596,585632 L1519596,585632 L1523660,581568 L1523660,581568 L1529756,628304 L1529756,628304 L1533820,658784 L1533820,658784 L1537884,583600 L1537884,583600 L1541948,569376 L1541948,569376 L1546012,589696 L1546012,589696 L1550076,646592 L1550076,646592 L1554140,616112 L1554140,616112 L1558204,563280 L1558204,563280 L1562268,557184 L1562268,557184 L1568364,571408 L1568364,571408 L1572428,559216 L1572428,559216 L1576492,534832 L1576492,534832 L1580556,524672 L1580556,524672 L1584620,530768 L1584620,530768 L1588684,547024 L1588684,547024 L1592748,463712 L1592748,463712 L1596812,463712 L1596812,463712 L1602908,463712 L1602908,463712 L1606972,439328 L1606972,439328 L1611036,453552 L1611036,453552 L1615100,451520 L1615100,451520 L1619164,463712 L1619164,463712 L1623228,465744 L1623228,465744 L1627292,471840 L1627292,471840 L1631356,484032 L1631356,484032 L1635420,449488 L1635420,449488 L1641516,445424 L1641516,445424 L1645580,384464 L1645580,384464 L1649644,372272 L1649644,372272 L1653708,376336 L1653708,376336 L1657772,475904 L1657772,475904 L1661836,518576 L1661836,518576 L1665900,551088 L1665900,551088 L1669964,542960 L1669964,542960 L1676060,579536 L1676060,579536 L1680124,524672 L1680124,524672 L1684188,538896 L1684188,538896 L1688252,530768 L1688252,530768 L1692316,628304 L1692316,628304 L1696380,597824 L1696380,597824 L1700444,693328 L1700444,693328 L1704508,616112 L1704508,616112 L1710604,577504 L1710604,577504 L1714668,591728 L1714668,591728 L1718732,549056 L1718732,549056 L1722796,622208 L1722796,622208 L1726860,567344 L1726860,567344 L1730924,567344 L1730924,567344 L1734988,583600 L1734988,583600 L1739052,567344 L1739052,567344 L1743116,557184 L1743116,557184 L1749212,518576 L1749212,518576 L1753276,516544 L1753276,516544 L1757340,518576 L1757340,518576 L1761404,567344 L1761404,567344 L1765468,689264 L1765468,689264 L1769532,376336 L1769532,376336 L1773596,165008 L1773596,165008 L1777660,179232 L1777660,179232 L1783756,162976 L1783756,162976 L1787820,114208 L1787820,114208 L1791884,193456 L1791884,193456 L1795948,230032 L1795948,230032 L1800012,104048 L1800012,104048 L1804076,144688 L1804076,144688 L1808140,223936 L1808140,223936 L1812204,142656 L1812204,142656 L1818300,67472 L1818300,67472 L1822364,55280 L1822364,55280 L1826428,104048 L1826428,104048 L1830492,169072 L1830492,169072 L1834556,195488 L1834556,195488 L1838620,248320 L1838620,248320 L1842684,343824 L1842684,343824 L1846748,272704 L1846748,272704 L1850812,329600 L1850812,329600 L1856908,295056 L1856908,295056 L1860972,364144 L1860972,364144 L1865036,370240 L1865036,370240 L1869100,347888 L1869100,347888 L1873164,443392 L1873164,443392 L1877228,475904 L1877228,475904 L1881292,559216 L1881292,559216 L1885356,475904 L1885356,475904 L1891452,500288 L1891452,500288 L1895516,601888 L1895516,601888 L1899580,473872 L1899580,473872 L1903644,386496 L1903644,386496 L1907708,435264 L1907708,435264 L1911772,416976 L1911772,416976 L1915836,421040 L1915836,421040 L1919900,431200 L1919900,431200 L1923964,457616 L1923964,457616 L1930060,504352 L1930060,504352 L1934124,412912 L1934124,412912 L1938188,398688 L1938188,398688 L1942252,437296 L1942252,437296 L1946316,502320 L1946316,502320 L1950380,524672 L1950380,524672 L1954444,447456 L1954444,447456 L1958508,358048 L1958508,358048 L1964604,376336 L1964604,376336 L1968668,311312 L1968668,311312 L1972732,274736 L1972732,274736 L1976796,313344 L1976796,313344 L1980860,313344 L1980860,313344 L1984924,327568 L1984924,327568 L1988988,280832 L1988988,280832 L1993052,254416 L1993052,254416 L1999148,223936 L1999148,223936 L2003212,240192 L2003212,240192 L2007276,156880 L2007276,156880 L2011340,266608 L2011340,266608 L2015404,219872 L2015404,219872 L2019468,221904 L2019468,221904 L2023532,272704 L2023532,272704 L2027596,256448 L2027596,256448 L2031660,160944 L2031660,160944 L2037756,134528 L2037756,134528 L2041820,112176 L2041820,112176 L2045884,130464 L2045884,130464 L2049948,120304 L2049948,120304 L2054012,128432 L2054012,128432 L2058076,158912 L2058076,158912 L2062140,148752 L2062140,148752 L2066204,79664 L2066204,79664 L2072300,416 L2072300,416 L2076364,126400 L2076364,126400 L2080428,45120 L2080428,45120 L2084492,87792 " stroke-width="33866.67" stroke-linecap="round" stroke-linejoin="round" stroke-miterlimit="13.33333" stroke="#009cde" fill="none" fill-rule="nonzero" /></g></g><g><g clip-path="url(#clip010)"><g><g transform="translate(1628.722,918.3841)"><text><tspan x="0" y="0" font-family="Connections Cond Light,Arial Narrow" font-weight="normal" font-style="normal" font-size="77.33334" fill="#000000">6x</tspan></text></g></g></g></g><g><g clip-path="url(#clip011)"><g><g transform="translate(1628.722,741.0149)"><text><tspan x="0" y="0" font-family="Connections Cond Light,Arial Narrow" font-weight="normal" font-style="normal" font-size="77.33334" fill="#000000">11x</tspan></text></g></g></g></g><g><g clip-path="url(#clip012)"><g><g transform="translate(1628.722,563.6457)"><text><tspan x="0" y="0" font-family="Connections Cond Light,Arial Narrow" font-weight="normal" font-style="normal" font-size="77.33334" fill="#000000">16x</tspan></text></g></g></g></g><g><g clip-path="url(#clip013)"><g><g transform="translate(1628.722,386.2765)"><text><tspan x="0" y="0" font-family="Connections Cond Light,Arial Narrow" font-weight="normal" font-style="normal" font-size="77.33334" fill="#000000">21x</tspan></text></g></g></g></g><g><g clip-path="url(#clip014)"><g><g transform="translate(1628.722,208.9064)"><text><tspan x="0" y="0" font-family="Connections Cond Light,Arial Narrow" font-weight="normal" font-style="normal" font-size="77.33334" fill="#000000">26x</tspan></text></g></g></g></g><g><g clip-path="url(#clip015)"><g><g transform="translate(16.66667,918.3841)"><text><tspan x="0" y="0" font-family="Connections Cond Light,Arial Narrow" font-weight="normal" font-style="normal" font-size="77.33334" fill="#000000">0.4x</tspan></text></g></g></g></g><g><g clip-path="url(#clip016)"><g><g transform="translate(16.66667,776.4891)"><text><tspan x="0" y="0" font-family="Connections Cond Light,Arial Narrow" font-weight="normal" font-style="normal" font-size="77.33334" fill="#000000">0.6x</tspan></text></g></g></g></g><g><g clip-path="url(#clip017)"><g><g transform="translate(16.66667,634.5932)"><text><tspan x="0" y="0" font-family="Connections Cond Light,Arial Narrow" font-weight="normal" font-style="normal" font-size="77.33334" fill="#000000">0.8x</tspan></text></g></g></g></g><g><g clip-path="url(#clip018)"><g><g transform="translate(16.66667,492.6982)"><text><tspan x="0" y="0" font-family="Connections Cond Light,Arial Narrow" font-weight="normal" font-style="normal" font-size="77.33334" fill="#000000">1.0x</tspan></text></g></g></g></g><g><g clip-path="url(#clip019)"><g><g transform="translate(16.66667,350.8023)"><text><tspan x="0" y="0" font-family="Connections Cond Light,Arial Narrow" font-weight="normal" font-style="normal" font-size="77.33334" fill="#000000">1.2x</tspan></text></g></g></g></g><g><g clip-path="url(#clip020)"><g><g transform="translate(16.66667,208.9073)"><text><tspan x="0" y="0" font-family="Connections Cond Light,Arial Narrow" font-weight="normal" font-style="normal" font-size="77.33334" fill="#000000">1.4x</tspan></text></g></g></g></g><g><g clip-path="url(#clip021)"><g><g transform="translate(16.66667,67.01138)"><text><tspan x="0" y="0" font-family="Connections Cond Light,Arial Narrow" font-weight="normal" font-style="normal" font-size="77.33334" fill="#000000">1.6x</tspan></text></g></g></g></g><g><g clip-path="url(#clip022)"><g><g transform="translate(164.8898,1011.453)"><text><tspan x="0" y="0" font-family="Connections Cond Light,Arial Narrow" font-weight="normal" font-style="normal" font-size="77.33334" fill="#000000">86</tspan></text></g></g></g></g><g><g clip-path="url(#clip023)"><g><g transform="translate(258.1382,1011.453)"><text><tspan x="0" y="0" font-family="Connections Cond Light,Arial Narrow" font-weight="normal" font-style="normal" font-size="77.33334" fill="#000000">88</tspan></text></g></g></g></g><g><g clip-path="url(#clip024)"><g><g transform="translate(351.3867,1011.453)"><text><tspan x="0" y="0" font-family="Connections Cond Light,Arial Narrow" font-weight="normal" font-style="normal" font-size="77.33334" fill="#000000">91</tspan></text></g></g></g></g><g><g clip-path="url(#clip025)"><g><g transform="translate(444.6352,1011.453)"><text><tspan x="0" y="0" font-family="Connections Cond Light,Arial Narrow" font-weight="normal" font-style="normal" font-size="77.33334" fill="#000000">94</tspan></text></g></g></g></g><g><g clip-path="url(#clip026)"><g><g transform="translate(537.8828,1011.453)"><text><tspan x="0" y="0" font-family="Connections Cond Light,Arial Narrow" font-weight="normal" font-style="normal" font-size="77.33334" fill="#000000">97</tspan></text></g></g></g></g><g><g clip-path="url(#clip027)"><g><g transform="translate(631.1312,1011.453)"><text><tspan x="0" y="0" font-family="Connections Cond Light,Arial Narrow" font-weight="normal" font-style="normal" font-size="77.33334" fill="#000000">99</tspan></text></g></g></g></g><g><g clip-path="url(#clip028)"><g><g transform="translate(724.3797,1011.453)"><text><tspan x="0" y="0" font-family="Connections Cond Light,Arial Narrow" font-weight="normal" font-style="normal" font-size="77.33334" fill="#000000">02</tspan></text></g></g></g></g><g><g clip-path="url(#clip029)"><g><g transform="translate(817.6282,1011.453)"><text><tspan x="0" y="0" font-family="Connections Cond Light,Arial Narrow" font-weight="normal" font-style="normal" font-size="77.33334" fill="#000000">05</tspan></text></g></g></g></g><g><g clip-path="url(#clip030)"><g><g transform="translate(910.8766,1011.453)"><text><tspan x="0" y="0" font-family="Connections Cond Light,Arial Narrow" font-weight="normal" font-style="normal" font-size="77.33334" fill="#000000">08</tspan></text></g></g></g></g><g><g clip-path="url(#clip031)"><g><g transform="translate(1004.125,1011.453)"><text><tspan x="0" y="0" font-family="Connections Cond Light,Arial Narrow" font-weight="normal" font-style="normal" font-size="77.33334" fill="#000000">10</tspan></text></g></g></g></g><g><g clip-path="url(#clip032)"><g><g transform="translate(1097.374,1011.453)"><text><tspan x="0" y="0" font-family="Connections Cond Light,Arial Narrow" font-weight="normal" font-style="normal" font-size="77.33334" fill="#000000">13</tspan></text></g></g></g></g><g><g clip-path="url(#clip033)"><g><g transform="translate(1190.622,1011.453)"><text><tspan x="0" y="0" font-family="Connections Cond Light,Arial Narrow" font-weight="normal" font-style="normal" font-size="77.33334" fill="#000000">16</tspan></text></g></g></g></g><g><g clip-path="url(#clip034)"><g><g transform="translate(1283.87,1011.453)"><text><tspan x="0" y="0" font-family="Connections Cond Light,Arial Narrow" font-weight="normal" font-style="normal" font-size="77.33334" fill="#000000">19</tspan></text></g></g></g></g><g><g clip-path="url(#clip035)"><g><g transform="translate(1377.118,1011.453)"><text><tspan x="0" y="0" font-family="Connections Cond Light,Arial Narrow" font-weight="normal" font-style="normal" font-size="77.33334" fill="#000000">21</tspan></text></g></g></g></g><g><g clip-path="url(#clip036)"><g><g transform="translate(1470.367,1011.453)"><text><tspan x="0" y="0" font-family="Connections Cond Light,Arial Narrow" font-weight="normal" font-style="normal" font-size="77.33334" fill="#000000">24</tspan></text></g></g></g></g><g clip-path="url(#clip037)"><g transform="matrix(0.000656168,0,0,0.000656168,0,1097.333)"><path d="M0,0 L2668016,0 L2668016,162560 L0,162560 Z" fill="#4f81bd" fill-opacity="0" fill-rule="evenodd" /></g></g><g clip-path="url(#clip038)"><g transform="matrix(0.000656168,0,0,0.000656168,105.3333,1130.667)"><path d="M0,0 L325120,0 L325120,60960 L0,60960 Z" fill="#012169" fill-rule="evenodd" /></g></g><g><g clip-path="url(#clip039)"><g><g transform="translate(340.8478,1172.728)"><text><tspan x="0" y="0" font-family="Connections Cond Light,Arial Narrow" font-weight="normal" font-style="normal" font-size="77.33334" fill="#000000">Relative Fwd. P/E (lhs)</tspan></text></g></g></g></g><g clip-path="url(#clip040)"><g transform="matrix(0.000656168,0,0,0.000656168,1060.667,1150)"><path d="M0,0 L325120,1.333333 " stroke-width="33866.67" stroke-linecap="round" stroke-linejoin="round" stroke-miterlimit="13.33333" stroke="#009cde" fill="none" fill-rule="evenodd" /></g></g><g><g clip-path="url(#clip041)"><g><g transform="translate(1296.423,1172.728)"><text><tspan x="0" y="0" font-family="Connections Cond Light,Arial Narrow" font-weight="normal" font-style="normal" font-size="77.33334" fill="#000000">Fwd. P/E (rhs)</tspan></text></g></g></g></g><g /></g></g></g></g></g></g></g></g></g></svg>