<svg version="1.1" width="100%" height="100%" viewBox="0 0 355 251" xmlns="http://www.w3.org/2000/svg" xmlns:xlink="http://www.w3.org/1999/xlink"><style type="text/css" /><defs><clipPath id="clip001"><path d="M0,0 L2753.333,0 L2753.333,2081.333 L0,2081.333 Z" clip-rule="evenodd" /></clipPath><clipPath id="clip002"><path d="M0,0 L2753.333,0 L2753.333,2081.333 L0,2081.333 Z" clip-rule="evenodd" /></clipPath><clipPath id="clip003"><path d="M0,0 L2753.333,0 L2753.333,2081.333 L0,2081.333 Z" clip-rule="evenodd" /></clipPath><clipPath id="clip004"><path d="M0,0 L5200,0 L5200,2186.667 L0,2186.667 Z" clip-rule="evenodd" /></clipPath><clipPath id="clip005"><path d="M-800,0 L6000,0 L6000,2186.667 L-800,2186.667 Z" clip-rule="evenodd" /></clipPath><clipPath id="clip006"><path d="M0,0 L2753.333,0 L2753.333,2077.333 L0,2077.333 Z" clip-rule="evenodd" /></clipPath><clipPath id="clip007"><path d="M338.6667,60 L2753.333,60 L2753.333,1838.667 L338.6667,1838.667 Z" clip-rule="evenodd" /></clipPath><clipPath id="clip008"><path d="M338.6667,60 L2753.333,60 L2753.333,1838.667 L338.6667,1838.667 Z" clip-rule="evenodd" /></clipPath><clipPath id="clip009"><path d="M0,0 L2753.333,0 L2753.333,2077.333 L0,2077.333 Z" clip-rule="evenodd" /></clipPath><clipPath id="clip010"><path d="M0,0 L2753.333,0 L2753.333,2077.333 L0,2077.333 Z" clip-rule="evenodd" /></clipPath><clipPath id="clip011"><path d="M0,0 L2753.333,0 L2753.333,2077.333 L0,2077.333 Z" clip-rule="evenodd" /></clipPath><clipPath id="clip012"><path d="M0,0 L2753.333,0 L2753.333,2077.333 L0,2077.333 Z" clip-rule="evenodd" /></clipPath><clipPath id="clip013"><path d="M0,0 L2753.333,0 L2753.333,2077.333 L0,2077.333 Z" clip-rule="evenodd" /></clipPath><clipPath id="clip014"><path d="M0,0 L2753.333,0 L2753.333,2077.333 L0,2077.333 Z" clip-rule="evenodd" /></clipPath><clipPath id="clip015"><path d="M0,0 L2753.333,0 L2753.333,2077.333 L0,2077.333 Z" clip-rule="evenodd" /></clipPath><clipPath id="clip016"><path d="M0,0 L2753.333,0 L2753.333,2077.333 L0,2077.333 Z" clip-rule="evenodd" /></clipPath><clipPath id="clip017"><path d="M0,0 L2753.333,0 L2753.333,2077.333 L0,2077.333 Z" clip-rule="evenodd" /></clipPath><clipPath id="clip018"><path d="M0,0 L2753.333,0 L2753.333,2077.333 L0,2077.333 Z" clip-rule="evenodd" /></clipPath><clipPath id="clip019"><path d="M0,0 L2753.333,0 L2753.333,2077.333 L0,2077.333 Z" clip-rule="evenodd" /></clipPath><clipPath id="clip020"><path d="M0,0 L2753.333,0 L2753.333,2077.333 L0,2077.333 Z" clip-rule="evenodd" /></clipPath><clipPath id="clip021"><path d="M0,0 L2753.333,0 L2753.333,2077.333 L0,2077.333 Z" clip-rule="evenodd" /></clipPath><clipPath id="clip022"><path d="M0,0 L2753.333,0 L2753.333,2077.333 L0,2077.333 Z" clip-rule="evenodd" /></clipPath><clipPath id="clip023"><path d="M0,0 L2753.333,0 L2753.333,2077.333 L0,2077.333 Z" clip-rule="evenodd" /></clipPath><clipPath id="clip024"><path d="M0,0 L2753.333,0 L2753.333,2077.333 L0,2077.333 Z" clip-rule="evenodd" /></clipPath><clipPath id="clip025"><path d="M0,0 L2753.333,0 L2753.333,2077.333 L0,2077.333 Z" clip-rule="evenodd" /></clipPath><clipPath id="clip026"><path d="M0,0 L2753.333,0 L2753.333,2077.333 L0,2077.333 Z" clip-rule="evenodd" /></clipPath><clipPath id="clip027"><path d="M0,0 L2753.333,0 L2753.333,2077.333 L0,2077.333 Z" clip-rule="evenodd" /></clipPath><clipPath id="clip028"><path d="M0,0 L2753.333,0 L2753.333,2077.333 L0,2077.333 Z" clip-rule="evenodd" /></clipPath><clipPath id="clip029"><path d="M0,0 L2753.333,0 L2753.333,2077.333 L0,2077.333 Z" clip-rule="evenodd" /></clipPath><clipPath id="clip030"><path d="M0,0 L2753.333,0 L2753.333,2077.333 L0,2077.333 Z" clip-rule="evenodd" /></clipPath><clipPath id="clip031"><path d="M0,0 L2753.333,0 L2753.333,2077.333 L0,2077.333 Z" clip-rule="evenodd" /></clipPath><clipPath id="clip032"><path d="M0,0 L2753.333,0 L2753.333,2077.333 L0,2077.333 Z" clip-rule="evenodd" /></clipPath><clipPath id="clip033"><path d="M0,0 L2753.333,0 L2753.333,2077.333 L0,2077.333 Z" clip-rule="evenodd" /></clipPath><clipPath id="clip034"><path d="M0,0 L2753.333,0 L2753.333,2077.333 L0,2077.333 Z" clip-rule="evenodd" /></clipPath><clipPath id="clip035"><path d="M0,0 L2753.333,0 L2753.333,2077.333 L0,2077.333 Z" clip-rule="evenodd" /></clipPath><clipPath id="clip036"><path d="M0,0 L2753.333,0 L2753.333,2077.333 L0,2077.333 Z" clip-rule="evenodd" /></clipPath><clipPath id="clip037"><path d="M0,0 L2753.333,0 L2753.333,2077.333 L0,2077.333 Z" clip-rule="evenodd" /></clipPath><clipPath id="clip038"><path d="M0,0 L2753.333,0 L2753.333,2077.333 L0,2077.333 Z" clip-rule="evenodd" /></clipPath><clipPath id="clip039"><path d="M0,0 L2753.333,0 L2753.333,2077.333 L0,2077.333 Z" clip-rule="evenodd" /></clipPath><clipPath id="clip040"><path d="M0,0 L2753.333,0 L2753.333,2077.333 L0,2077.333 Z" clip-rule="evenodd" /></clipPath><clipPath id="clip041"><path d="M0,0 L2753.333,0 L2753.333,2077.333 L0,2077.333 Z" clip-rule="evenodd" /></clipPath></defs><clipPath id="page-clip-path-1"><rect x="0" y="0" width="354.67" height="250.67" /></clipPath><g clip-path="url(#page-clip-path-1)" transform="translate(0.17,0)"><g transform="translate(1,1)"><g><g transform="matrix(0.1200484,0,0,0.119827,0,0)" clip-path="url(#clip001)"><g><g clip-path="url(#clip002)"><g><g clip-path="url(#clip003)"><g transform="matrix(1.000207,0,0,1.000812,-0.00016276,-0.00008138)"><g><g><g clip-path="url(#clip004)"><g transform="translate(2753.333,2078.667)" /></g></g></g><g clip-path="url(#clip005)"><g transform="matrix(0.000656168,0,0,0.000656168,0,0)"><path d="M0,0 L4198112,0 L4198112,3167888 L0,3167888 Z" fill="#ffffff" fill-opacity="0" fill-rule="evenodd" /></g></g><g clip-path="url(#clip006)"><g transform="matrix(0.000656168,0,0,0.000656168,340,60)"><path d="M0,2160016 L3667760,2160016 M0,1619504 L3667760,1619504 M0,1078992 L3667760,1078992 M0,540512 L3667760,540512 M0,0 L3667760,0 " stroke-width="16933.33" stroke-linejoin="round" stroke-miterlimit="13.33333" stroke="#bababa" fill="none" fill-rule="nonzero" /></g></g><g clip-path="url(#clip007)"><g transform="matrix(0.000656168,0,0,0.000656168,340,60)"><path d="M87376,363728 L434848,363728 L434848,363728 L434848,2698496 L434848,2698496 L87376,2698496 ZM609600,524256 L959104,524256 L959104,524256 L959104,2698496 L959104,2698496 L609600,2698496 ZM1133856,701040 L1483360,701040 L1483360,701040 L1483360,2698496 L1483360,2698496 L1133856,2698496 ZM1658112,1011936 L2007616,1011936 L2007616,1011936 L2007616,2698496 L2007616,2698496 L1658112,2698496 ZM2182368,1881632 L2531872,1881632 L2531872,1881632 L2531872,2698496 L2531872,2698496 L2182368,2698496 ZM2706624,2273808 L3056128,2273808 L3056128,2273808 L3056128,2698496 L3056128,2698496 L2706624,2698496 ZM3230880,2288032 L3580384,2288032 L3580384,2288032 L3580384,2698496 L3580384,2698496 L3230880,2698496 Z" fill="#012169" fill-rule="nonzero" /><path d="M87376,363728 L434848,363728 L434848,363728 L434848,2698496 L434848,2698496 L87376,2698496 ZM609600,524256 L959104,524256 L959104,524256 L959104,2698496 L959104,2698496 L609600,2698496 ZM1133856,701040 L1483360,701040 L1483360,701040 L1483360,2698496 L1483360,2698496 L1133856,2698496 ZM1658112,1011936 L2007616,1011936 L2007616,1011936 L2007616,2698496 L2007616,2698496 L1658112,2698496 ZM2182368,1881632 L2531872,1881632 L2531872,1881632 L2531872,2698496 L2531872,2698496 L2182368,2698496 ZM2706624,2273808 L3056128,2273808 L3056128,2273808 L3056128,2698496 L3056128,2698496 L2706624,2698496 ZM3230880,2288032 L3580384,2288032 L3580384,2288032 L3580384,2698496 L3580384,2698496 L3230880,2698496 Z" stroke-width="8466.667" stroke-linejoin="round" stroke-miterlimit="13.33333" stroke="#ffffff" fill="none" fill-rule="nonzero" /></g></g><g clip-path="url(#clip008)"><g transform="matrix(0.000656168,0,0,0.000656168,340,60)"><path d="M87376,0 L434848,0 L434848,0 L434848,363728 L434848,363728 L87376,363728 ZM609600,0 L959104,0 L959104,0 L959104,524256 L959104,524256 L609600,524256 ZM1133856,0 L1483360,0 L1483360,0 L1483360,701040 L1483360,701040 L1133856,701040 ZM1658112,0 L2007616,0 L2007616,0 L2007616,1011936 L2007616,1011936 L1658112,1011936 ZM2182368,0 L2531872,0 L2531872,0 L2531872,1881632 L2531872,1881632 L2182368,1881632 ZM2706624,0 L3056128,0 L3056128,0 L3056128,2273808 L3056128,2273808 L2706624,2273808 ZM3230880,0 L3580384,0 L3580384,0 L3580384,2288032 L3580384,2288032 L3230880,2288032 Z" fill="#009cde" fill-rule="nonzero" /><path d="M87376,0 L434848,0 L434848,0 L434848,363728 L434848,363728 L87376,363728 ZM609600,0 L959104,0 L959104,0 L959104,524256 L959104,524256 L609600,524256 ZM1133856,0 L1483360,0 L1483360,0 L1483360,701040 L1483360,701040 L1133856,701040 ZM1658112,0 L2007616,0 L2007616,0 L2007616,1011936 L2007616,1011936 L1658112,1011936 ZM2182368,0 L2531872,0 L2531872,0 L2531872,1881632 L2531872,1881632 L2182368,1881632 ZM2706624,0 L3056128,0 L3056128,0 L3056128,2273808 L3056128,2273808 L2706624,2273808 ZM3230880,0 L3580384,0 L3580384,0 L3580384,2288032 L3580384,2288032 L3230880,2288032 Z" stroke-width="8466.667" stroke-linejoin="round" stroke-miterlimit="13.33333" stroke="#ffffff" fill="none" fill-rule="nonzero" /></g></g><g clip-path="url(#clip009)"><g transform="matrix(0.000656168,0,0,0.000656168,340,1830.667)"><g><path d="M0.002462296,-6773.333 L3667760,-6772 " stroke-width="3386.667" stroke-linejoin="round" stroke-miterlimit="13.33333" stroke="#000000" fill="none" fill-rule="evenodd" /><path d="M-0.001231148,3386.667 L3667760,3388 " stroke-width="10160" stroke-linejoin="round" stroke-miterlimit="13.33333" stroke="#000000" fill="none" fill-rule="evenodd" /></g></g></g><g><g clip-path="url(#clip010)"><g><g transform="translate(421.2638,1097.933)"><text><tspan x="0" y="0" font-family="Connections Cond Light,Arial Narrow" font-weight="normal" font-style="normal" font-size="105.3333" fill="#ffffff">87%</tspan></text></g></g></g></g><g><g clip-path="url(#clip011)"><g><g transform="translate(765.179,1150.691)"><text><tspan x="0" y="0" font-family="Connections Cond Light,Arial Narrow" font-weight="normal" font-style="normal" font-size="105.3333" fill="#ffffff">81%</tspan></text></g></g></g></g><g><g clip-path="url(#clip012)"><g><g transform="translate(1109.094,1208.425)"><text><tspan x="0" y="0" font-family="Connections Cond Light,Arial Narrow" font-weight="normal" font-style="normal" font-size="105.3333" fill="#ffffff">74%</tspan></text></g></g></g></g><g><g clip-path="url(#clip013)"><g><g transform="translate(1453.009,1310.975)"><text><tspan x="0" y="0" font-family="Connections Cond Light,Arial Narrow" font-weight="normal" font-style="normal" font-size="105.3333" fill="#ffffff">62%</tspan></text></g></g></g></g><g><g clip-path="url(#clip014)"><g><g transform="translate(1796.924,1596.242)"><text><tspan x="0" y="0" font-family="Connections Cond Light,Arial Narrow" font-weight="normal" font-style="normal" font-size="105.3333" fill="#ffffff">30%</tspan></text></g></g></g></g><g><g clip-path="url(#clip015)"><g><g transform="translate(2140.84,1724.431)"><text><tspan x="0" y="0" font-family="Connections Cond Light,Arial Narrow" font-weight="normal" font-style="normal" font-size="105.3333" fill="#ffffff">16%</tspan></text></g></g></g></g><g><g clip-path="url(#clip016)"><g><g transform="translate(2484.756,1729.693)"><text><tspan x="0" y="0" font-family="Connections Cond Light,Arial Narrow" font-weight="normal" font-style="normal" font-size="105.3333" fill="#ffffff">15%</tspan></text></g></g></g></g><g><g clip-path="url(#clip017)"><g><g transform="translate(421.2638,212.5162)"><text><tspan x="0" y="0" font-family="Connections Cond Light,Arial Narrow" font-weight="normal" font-style="normal" font-size="105.3333" fill="#000000">13%</tspan></text></g></g></g></g><g><g clip-path="url(#clip018)"><g><g transform="translate(765.179,265.2738)"><text><tspan x="0" y="0" font-family="Connections Cond Light,Arial Narrow" font-weight="normal" font-style="normal" font-size="105.3333" fill="#000000">19%</tspan></text></g></g></g></g><g><g clip-path="url(#clip019)"><g><g transform="translate(1109.094,323.0079)"><text><tspan x="0" y="0" font-family="Connections Cond Light,Arial Narrow" font-weight="normal" font-style="normal" font-size="105.3333" fill="#000000">26%</tspan></text></g></g></g></g><g><g clip-path="url(#clip020)"><g><g transform="translate(1453.009,425.5573)"><text><tspan x="0" y="0" font-family="Connections Cond Light,Arial Narrow" font-weight="normal" font-style="normal" font-size="105.3333" fill="#000000">38%</tspan></text></g></g></g></g><g><g clip-path="url(#clip021)"><g><g transform="translate(1796.924,710.825)"><text><tspan x="0" y="0" font-family="Connections Cond Light,Arial Narrow" font-weight="normal" font-style="normal" font-size="105.3333" fill="#000000">70%</tspan></text></g></g></g></g><g><g clip-path="url(#clip022)"><g><g transform="translate(2140.84,839.014)"><text><tspan x="0" y="0" font-family="Connections Cond Light,Arial Narrow" font-weight="normal" font-style="normal" font-size="105.3333" fill="#000000">84%</tspan></text></g></g></g></g><g><g clip-path="url(#clip023)"><g><g transform="translate(2484.756,844.2756)"><text><tspan x="0" y="0" font-family="Connections Cond Light,Arial Narrow" font-weight="normal" font-style="normal" font-size="105.3333" fill="#000000">85%</tspan></text></g></g></g></g><g><g clip-path="url(#clip024)"><g><g transform="translate(118,1860.529)"><text><tspan x="0" y="0" font-family="Connections Cond Light,Arial Narrow" font-weight="normal" font-style="normal" font-size="105.3333" fill="#000000">0%</tspan></text></g></g></g></g><g><g clip-path="url(#clip025)"><g><g transform="translate(67.33334,1506.362)"><text><tspan x="0" y="0" font-family="Connections Cond Light,Arial Narrow" font-weight="normal" font-style="normal" font-size="105.3333" fill="#000000">20%</tspan></text></g></g></g></g><g><g clip-path="url(#clip026)"><g><g transform="translate(67.33334,1152.195)"><text><tspan x="0" y="0" font-family="Connections Cond Light,Arial Narrow" font-weight="normal" font-style="normal" font-size="105.3333" fill="#000000">40%</tspan></text></g></g></g></g><g><g clip-path="url(#clip027)"><g><g transform="translate(67.33334,798.0289)"><text><tspan x="0" y="0" font-family="Connections Cond Light,Arial Narrow" font-weight="normal" font-style="normal" font-size="105.3333" fill="#000000">60%</tspan></text></g></g></g></g><g><g clip-path="url(#clip028)"><g><g transform="translate(67.33334,443.8618)"><text><tspan x="0" y="0" font-family="Connections Cond Light,Arial Narrow" font-weight="normal" font-style="normal" font-size="105.3333" fill="#000000">80%</tspan></text></g></g></g></g><g><g clip-path="url(#clip029)"><g><g transform="translate(16.66667,89.69466)"><text><tspan x="0" y="0" font-family="Connections Cond Light,Arial Narrow" font-weight="normal" font-style="normal" font-size="105.3333" fill="#000000">100%</tspan></text></g></g></g></g><g><g clip-path="url(#clip030)"><g><g transform="translate(410.014,1986.779)"><text><tspan x="0" y="0" font-family="Connections Cond Light,Arial Narrow" font-weight="normal" font-style="normal" font-size="105.3333" fill="#000000">2019</tspan></text></g></g></g></g><g><g clip-path="url(#clip031)"><g><g transform="translate(753.9291,1986.779)"><text><tspan x="0" y="0" font-family="Connections Cond Light,Arial Narrow" font-weight="normal" font-style="normal" font-size="105.3333" fill="#000000">2020</tspan></text></g></g></g></g><g><g clip-path="url(#clip032)"><g><g transform="translate(1097.844,1986.779)"><text><tspan x="0" y="0" font-family="Connections Cond Light,Arial Narrow" font-weight="normal" font-style="normal" font-size="105.3333" fill="#000000">2021</tspan></text></g></g></g></g><g><g clip-path="url(#clip033)"><g><g transform="translate(1441.759,1986.779)"><text><tspan x="0" y="0" font-family="Connections Cond Light,Arial Narrow" font-weight="normal" font-style="normal" font-size="105.3333" fill="#000000">2022</tspan></text></g></g></g></g><g><g clip-path="url(#clip034)"><g><g transform="translate(1785.674,1986.779)"><text><tspan x="0" y="0" font-family="Connections Cond Light,Arial Narrow" font-weight="normal" font-style="normal" font-size="105.3333" fill="#000000">2023</tspan></text></g></g></g></g><g><g clip-path="url(#clip035)"><g><g transform="translate(2129.59,1986.779)"><text><tspan x="0" y="0" font-family="Connections Cond Light,Arial Narrow" font-weight="normal" font-style="normal" font-size="105.3333" fill="#000000">2024</tspan></text></g></g></g></g><g><g clip-path="url(#clip036)"><g><g transform="translate(2473.505,1986.779)"><text><tspan x="0" y="0" font-family="Connections Cond Light,Arial Narrow" font-weight="normal" font-style="normal" font-size="105.3333" fill="#000000">2025</tspan></text></g></g></g></g><g clip-path="url(#clip037)"><g transform="matrix(0.000656168,0,0,0.000656168,272,48)"><path d="M0,0 L2119376,0 L2119376,245872 L0,245872 Z" fill="#5b9bd5" fill-opacity="0" fill-rule="evenodd" /></g></g><g clip-path="url(#clip038)"><g transform="matrix(0.000656168,0,0,0.000656168,444,101.3333)"><path d="M0,0 L81280.01,0 L81280.01,83312 L0,83312 Z" fill="#012169" fill-rule="evenodd" /><path d="M0,0 L81280.01,0 L81280.01,0 L81280.01,83312 L81280.01,83312 L0,83312 Z" stroke-width="8466.667" stroke-linejoin="round" stroke-miterlimit="13.33333" stroke="#ffffff" fill="none" fill-rule="evenodd" /></g></g><g><g clip-path="url(#clip039)"><g><g transform="translate(520.538,158.0997)"><text><tspan x="0" y="0" font-family="Connections Cond Light,Arial Narrow" font-weight="normal" font-style="normal" font-size="105.3333" fill="#000000">CPUs</tspan></text></g></g></g></g><g clip-path="url(#clip040)"><g transform="matrix(0.000656168,0,0,0.000656168,888,101.3333)"><path d="M0,0 L83312,0 L83312,83312 L0,83312 Z" fill="#009cde" fill-rule="evenodd" /><path d="M0,0 L83312,0 L83312,0 L83312,83312 L83312,83312 L0,83312 Z" stroke-width="8466.667" stroke-linejoin="round" stroke-miterlimit="13.33333" stroke="#ffffff" fill="none" fill-rule="evenodd" /></g></g><g><g clip-path="url(#clip041)"><g><g transform="translate(965.4112,158.0997)"><text><tspan x="0" y="0" font-family="Connections Cond Light,Arial Narrow" font-weight="normal" font-style="normal" font-size="105.3333" fill="#000000">AI Accelerators</tspan></text></g></g></g></g><g /></g></g></g></g></g></g></g></g></g></svg>