<?xml version="1.0" encoding="UTF-8" standalone="no"?>
<svg xmlns:dc="http://purl.org/dc/elements/1.1/" xmlns:cc="http://creativecommons.org/ns#" xmlns:rdf="http://www.w3.org/1999/02/22-rdf-syntax-ns#" xmlns:svg="http://www.w3.org/2000/svg" xmlns="http://www.w3.org/2000/svg" viewBox="1.78125 2.70625 506.1375 269.1125" height="269.1125" width="506.1375" xml:space="preserve" version="1.1" id="svg2">
  <metadata id="metadata8">
    <rdf:RDF>
      <cc:Work rdf:about="">
        <dc:format>image/svg+xml</dc:format>
        <dc:type rdf:resource="http://purl.org/dc/dcmitype/StillImage"/>
      </cc:Work>
    </rdf:RDF>
  </metadata>
  <defs id="defs6">
    <clipPath id="clipPath34" clipPathUnits="userSpaceOnUse">
      <path style="clip-rule:evenodd" id="path36" d="m 1.8,394.92 404.16,0 0,214.56 -404.16,0 0,-214.56 z"/>
    </clipPath>
    <clipPath id="clipPath46" clipPathUnits="userSpaceOnUse">
      <path style="clip-rule:evenodd" id="path48" d="m 1.8,394.92 404.16,0 0,214.56 -404.16,0 0,-214.56 z"/>
    </clipPath>
    <clipPath id="clipPath58" clipPathUnits="userSpaceOnUse">
      <path style="clip-rule:evenodd" id="path60" d="m 1.8,394.92 404.16,0 0,214.56 -404.16,0 0,-214.56 z"/>
    </clipPath>
    <clipPath id="clipPath70" clipPathUnits="userSpaceOnUse">
      <path style="clip-rule:evenodd" id="path72" d="m 1.8,394.92 404.16,0 0,214.56 -404.16,0 0,-214.56 z"/>
    </clipPath>
    <clipPath id="clipPath82" clipPathUnits="userSpaceOnUse">
      <path style="clip-rule:evenodd" id="path84" d="m 1.8,394.92 404.16,0 0,214.56 -404.16,0 0,-214.56 z"/>
    </clipPath>
    <clipPath id="clipPath94" clipPathUnits="userSpaceOnUse">
      <path style="clip-rule:evenodd" id="path96" d="m 1.8,394.92 404.16,0 0,214.56 -404.16,0 0,-214.56 z"/>
    </clipPath>
    <clipPath id="clipPath106" clipPathUnits="userSpaceOnUse">
      <path style="clip-rule:evenodd" id="path108" d="m 1.8,394.92 404.16,0 0,214.56 -404.16,0 0,-214.56 z"/>
    </clipPath>
    <clipPath id="clipPath118" clipPathUnits="userSpaceOnUse">
      <path style="clip-rule:evenodd" id="path120" d="m 1.8,394.92 404.16,0 0,214.56 -404.16,0 0,-214.56 z"/>
    </clipPath>
    <clipPath id="clipPath130" clipPathUnits="userSpaceOnUse">
      <path style="clip-rule:evenodd" id="path132" d="m 1.8,394.92 404.16,0 0,214.56 -404.16,0 0,-214.56 z"/>
    </clipPath>
    <clipPath id="clipPath142" clipPathUnits="userSpaceOnUse">
      <path style="clip-rule:evenodd" id="path144" d="m 1.8,394.92 404.16,0 0,214.56 -404.16,0 0,-214.56 z"/>
    </clipPath>
    <clipPath id="clipPath154" clipPathUnits="userSpaceOnUse">
      <path style="clip-rule:evenodd" id="path156" d="m 1.8,394.92 404.16,0 0,214.56 -404.16,0 0,-214.56 z"/>
    </clipPath>
    <clipPath id="clipPath166" clipPathUnits="userSpaceOnUse">
      <path style="clip-rule:evenodd" id="path168" d="m 1.8,394.92 404.16,0 0,214.56 -404.16,0 0,-214.56 z"/>
    </clipPath>
    <clipPath id="clipPath178" clipPathUnits="userSpaceOnUse">
      <path style="clip-rule:evenodd" id="path180" d="m 1.8,394.92 404.16,0 0,214.56 -404.16,0 0,-214.56 z"/>
    </clipPath>
    <clipPath id="clipPath190" clipPathUnits="userSpaceOnUse">
      <path style="clip-rule:evenodd" id="path192" d="m 1.8,394.92 404.16,0 0,214.56 -404.16,0 0,-214.56 z"/>
    </clipPath>
    <clipPath id="clipPath202" clipPathUnits="userSpaceOnUse">
      <path style="clip-rule:evenodd" id="path204" d="m 1.8,394.92 404.16,0 0,214.56 -404.16,0 0,-214.56 z"/>
    </clipPath>
    <clipPath id="clipPath216" clipPathUnits="userSpaceOnUse">
      <path style="clip-rule:evenodd" id="path218" d="m 1.8,394.92 404.16,0 0,214.56 -404.16,0 0,-214.56 z"/>
    </clipPath>
    <clipPath id="clipPath230" clipPathUnits="userSpaceOnUse">
      <path style="clip-rule:evenodd" id="path232" d="m 1.8,394.92 404.16,0 0,214.56 -404.16,0 0,-214.56 z"/>
    </clipPath>
    <clipPath id="clipPath244" clipPathUnits="userSpaceOnUse">
      <path style="clip-rule:evenodd" id="path246" d="m 1.8,394.92 404.16,0 0,214.56 -404.16,0 0,-214.56 z"/>
    </clipPath>
    <clipPath id="clipPath258" clipPathUnits="userSpaceOnUse">
      <path style="clip-rule:evenodd" id="path260" d="m 1.8,394.92 404.16,0 0,214.56 -404.16,0 0,-214.56 z"/>
    </clipPath>
    <clipPath id="clipPath272" clipPathUnits="userSpaceOnUse">
      <path style="clip-rule:evenodd" id="path274" d="m 1.8,394.92 404.16,0 0,214.56 -404.16,0 0,-214.56 z"/>
    </clipPath>
    <clipPath id="clipPath286" clipPathUnits="userSpaceOnUse">
      <path style="clip-rule:evenodd" id="path288" d="m 1.8,394.92 404.16,0 0,214.56 -404.16,0 0,-214.56 z"/>
    </clipPath>
  </defs>
  <g transform="matrix(1.25,0,0,-1.25,0,765)" id="g10">
    <path id="path12" style="fill:#ffffff;fill-opacity:1;fill-rule:evenodd;stroke:none" d="m 1.8,394.92 404.16,0 0,214.54 -404.16,0 0,-214.54 z"/>
    <path id="path14" style="fill:none;stroke:#d9d9d9;stroke-width:0.75;stroke-linecap:butt;stroke-linejoin:round;stroke-miterlimit:10;stroke-dasharray:none;stroke-opacity:1" d="m 51.221,450.36 347.999,0 m -347.999,22.56 347.999,0 m -347.999,22.56 347.999,0 m -347.999,22.44 347.999,0 m -347.999,22.56 347.999,0 m -347.999,22.56 347.999,0 m -347.999,22.59 347.999,0"/>
    <path id="path16" style="fill:#2673b2;fill-opacity:1;fill-rule:nonzero;stroke:none" d="m 59.16,495.48 7.32,0 0,-67.71 -7.32,0 0,67.71 z m 69.6,22.44 7.32,0 0,-90.15 -7.32,0 0,90.15 z m 69.6,22.56 7.32,0 0,-112.71 -7.32,0 0,112.71 z m 69.6,22.56 7.32,0 0,-135.27 -7.32,0 0,135.27 z m 69.6,22.59 7.32,0 0,-157.86 -7.32,0 0,157.86 z"/>
    <path id="path18" style="fill:#d0b86a;fill-opacity:1;fill-rule:nonzero;stroke:none" d="m 68.52,490.44 7.2,0 0,-62.67 -7.2,0 0,62.67 z m 69.6,18.96 7.2,0 0,-81.63 -7.2,0 0,81.63 z m 69.6,18 7.2,0 0,-99.63 -7.2,0 0,99.63 z m 69.6,17.16 7.2,0 0,-116.79 -7.2,0 0,116.79 z m 69.6,16.44 7.2,0 0,-133.23 -7.2,0 0,133.23 z"/>
    <path id="path20" style="fill:#38957f;fill-opacity:1;fill-rule:nonzero;stroke:none" d="m 77.76,486.24 7.32,0 0,-58.47 -7.32,0 0,58.47 z m 69.6,16.08 7.32,0 0,-74.55 -7.32,0 0,74.55 z m 69.6,14.76 7.32,0 0,-89.31 -7.32,0 0,89.31 z m 69.6,13.56 7.32,0 0,-102.87 -7.32,0 0,102.87 z m 69.6,12.6 7.32,0 0,-115.47 -7.32,0 0,115.47 z"/>
    <path id="path22" style="fill:#40b9e9;fill-opacity:1;fill-rule:nonzero;stroke:none" d="m 87,479.4 7.32,0 0,-51.63 -7.32,0 0,51.63 z m 69.6,12.12 7.32,0 0,-63.75 -7.32,0 0,63.75 z m 69.6,10.44 7.32,0 0,-74.19 -7.32,0 0,74.19 z m 69.6,9.12 7.32,0 0,-83.31 -7.32,0 0,83.31 z m 69.6,8.04 7.32,0 0,-91.35 -7.32,0 0,91.35 z"/>
    <path id="path24" style="fill:#ddaab6;fill-opacity:1;fill-rule:nonzero;stroke:none" d="m 96.24,474 7.32,0 0,-46.23 -7.32,0 0,46.23 z m 69.6,9.48 7.32,0 0,-55.71 -7.32,0 0,55.71 z m 69.6,7.92 7.32,0 0,-63.63 -7.32,0 0,63.63 z m 69.6,6.6 7.32,0 0,-70.23 -7.32,0 0,70.23 z m 69.6,5.64 7.32,0 0,-75.87 -7.32,0 0,75.87 z"/>
    <path id="path26" style="fill:#7072bb;fill-opacity:1;fill-rule:nonzero;stroke:none" d="m 105.48,469.8 7.32,0 0,-42.03 -7.32,0 0,42.03 z m 69.6,7.68 7.32,0 0,-49.71 -7.32,0 0,49.71 z m 69.6,6.12 7.32,0 0,-55.83 -7.32,0 0,55.83 z m 69.6,5.04 7.32,0 0,-60.87 -7.32,0 0,60.87 z m 69.6,4.2 7.32,0 0,-65.07 -7.32,0 0,65.07 z"/>
    <path id="path28" style="fill:none;stroke:#d9d9d9;stroke-width:0.75;stroke-linecap:butt;stroke-linejoin:round;stroke-miterlimit:10;stroke-dasharray:none;stroke-opacity:1" d="m 51.221,427.77 347.999,0"/>
    <g id="g30">
      <g clip-path="url(#clipPath34)" id="g32"><text id="text38" style="font-variant:normal;font-weight:normal;font-size:9px;font-family:'Daytona Condensed';-inkscape-font-specification:'Daytona Condensed';writing-mode:lr-tb;fill:#595959;fill-opacity:1;fill-rule:nonzero;stroke:none" transform="matrix(1,0,0,-1,33.579,424.99)"><tspan id="tspan40" y="0" x="0 4.428">$-</tspan></text>
</g>
    </g>
    <g id="g42">
      <g clip-path="url(#clipPath46)" id="g44"><text id="text50" style="font-variant:normal;font-weight:normal;font-size:9px;font-family:'Daytona Condensed';-inkscape-font-specification:'Daytona Condensed';writing-mode:lr-tb;fill:#595959;fill-opacity:1;fill-rule:nonzero;stroke:none" transform="matrix(1,0,0,-1,31.611,447.55)"><tspan id="tspan52" y="0" x="0 4.428">$5</tspan></text>
</g>
    </g>
    <g id="g54">
      <g clip-path="url(#clipPath58)" id="g56"><text id="text62" style="font-variant:normal;font-weight:normal;font-size:9px;font-family:'Daytona Condensed';-inkscape-font-specification:'Daytona Condensed';writing-mode:lr-tb;fill:#595959;fill-opacity:1;fill-rule:nonzero;stroke:none" transform="matrix(1,0,0,-1,27.267,470.11)"><tspan id="tspan64" y="0" x="0 4.428 8.7480001">$10</tspan></text>
</g>
    </g>
    <g id="g66">
      <g clip-path="url(#clipPath70)" id="g68"><text id="text74" style="font-variant:normal;font-weight:normal;font-size:9px;font-family:'Daytona Condensed';-inkscape-font-specification:'Daytona Condensed';writing-mode:lr-tb;fill:#595959;fill-opacity:1;fill-rule:nonzero;stroke:none" transform="matrix(1,0,0,-1,27.267,492.65)"><tspan id="tspan76" y="0" x="0 4.428 8.7480001">$15</tspan></text>
</g>
    </g>
    <g id="g78">
      <g clip-path="url(#clipPath82)" id="g80"><text id="text86" style="font-variant:normal;font-weight:normal;font-size:9px;font-family:'Daytona Condensed';-inkscape-font-specification:'Daytona Condensed';writing-mode:lr-tb;fill:#595959;fill-opacity:1;fill-rule:nonzero;stroke:none" transform="matrix(1,0,0,-1,27.267,515.21)"><tspan id="tspan88" y="0" x="0 4.428 8.7480001">$20</tspan></text>
</g>
    </g>
    <g id="g90">
      <g clip-path="url(#clipPath94)" id="g92"><text id="text98" style="font-variant:normal;font-weight:normal;font-size:9px;font-family:'Daytona Condensed';-inkscape-font-specification:'Daytona Condensed';writing-mode:lr-tb;fill:#595959;fill-opacity:1;fill-rule:nonzero;stroke:none" transform="matrix(1,0,0,-1,27.267,537.77)"><tspan id="tspan100" y="0" x="0 4.428 8.7480001">$25</tspan></text>
</g>
    </g>
    <g id="g102">
      <g clip-path="url(#clipPath106)" id="g104"><text id="text110" style="font-variant:normal;font-weight:normal;font-size:9px;font-family:'Daytona Condensed';-inkscape-font-specification:'Daytona Condensed';writing-mode:lr-tb;fill:#595959;fill-opacity:1;fill-rule:nonzero;stroke:none" transform="matrix(1,0,0,-1,27.267,560.33)"><tspan id="tspan112" y="0" x="0 4.428 8.7480001">$30</tspan></text>
</g>
    </g>
    <g id="g114">
      <g clip-path="url(#clipPath118)" id="g116"><text id="text122" style="font-variant:normal;font-weight:normal;font-size:9px;font-family:'Daytona Condensed';-inkscape-font-specification:'Daytona Condensed';writing-mode:lr-tb;fill:#595959;fill-opacity:1;fill-rule:nonzero;stroke:none" transform="matrix(1,0,0,-1,27.267,582.89)"><tspan id="tspan124" y="0" x="0 4.428 8.7480001">$35</tspan></text>
</g>
    </g>
    <g id="g126">
      <g clip-path="url(#clipPath130)" id="g128"><text id="text134" style="font-variant:normal;font-weight:normal;font-size:9px;font-family:'Daytona Condensed';-inkscape-font-specification:'Daytona Condensed';writing-mode:lr-tb;fill:#595959;fill-opacity:1;fill-rule:nonzero;stroke:none" transform="matrix(1,0,0,-1,79.944,412.51)"><tspan id="tspan136" y="0" x="0 4.3200002 8.6400003">15x</tspan></text>
</g>
    </g>
    <g id="g138">
      <g clip-path="url(#clipPath142)" id="g140"><text id="text146" style="font-variant:normal;font-weight:normal;font-size:9px;font-family:'Daytona Condensed';-inkscape-font-specification:'Daytona Condensed';writing-mode:lr-tb;fill:#595959;fill-opacity:1;fill-rule:nonzero;stroke:none" transform="matrix(1,0,0,-1,149.57,412.51)"><tspan id="tspan148" y="0" x="0 4.3200002 8.6400003">20x</tspan></text>
</g>
    </g>
    <g id="g150">
      <g clip-path="url(#clipPath154)" id="g152"><text id="text158" style="font-variant:normal;font-weight:normal;font-size:9px;font-family:'Daytona Condensed';-inkscape-font-specification:'Daytona Condensed';writing-mode:lr-tb;fill:#595959;fill-opacity:1;fill-rule:nonzero;stroke:none" transform="matrix(1,0,0,-1,219.17,412.51)"><tspan id="tspan160" y="0" x="0 4.3200002 8.6400003">25x</tspan></text>
</g>
    </g>
    <g id="g162">
      <g clip-path="url(#clipPath166)" id="g164"><text id="text170" style="font-variant:normal;font-weight:normal;font-size:9px;font-family:'Daytona Condensed';-inkscape-font-specification:'Daytona Condensed';writing-mode:lr-tb;fill:#595959;fill-opacity:1;fill-rule:nonzero;stroke:none" transform="matrix(1,0,0,-1,288.77,412.51)"><tspan id="tspan172" y="0" x="0 4.3200002 8.6400003">30x</tspan></text>
</g>
    </g>
    <g id="g174">
      <g clip-path="url(#clipPath178)" id="g176"><text id="text182" style="font-variant:normal;font-weight:normal;font-size:9px;font-family:'Daytona Condensed';-inkscape-font-specification:'Daytona Condensed';writing-mode:lr-tb;fill:#595959;fill-opacity:1;fill-rule:nonzero;stroke:none" transform="matrix(1,0,0,-1,358.39,412.51)"><tspan id="tspan184" y="0" x="0 4.3200002 8.6400003">35x</tspan></text>
</g>
    </g>
    <g id="g186">
      <g clip-path="url(#clipPath190)" id="g188"><text id="text194" style="font-variant:normal;font-weight:normal;font-size:9.96000004px;font-family:'Daytona Condensed';-inkscape-font-specification:'Daytona Condensed';writing-mode:lr-tb;fill:#595959;fill-opacity:1;fill-rule:nonzero;stroke:none" transform="matrix(-4.4e-8,1,1,4.4e-8,19.632,479.3)"><tspan id="tspan196" y="0" x="0 5.0696402 9.4819202 11.88228 16.683001 21.00564 23.51556 26.86212 31.21464 35.0592 39.351959 41.632801 45.48732 49.790039">Value received</tspan></text>
</g>
    </g>
    <g id="g198">
      <g clip-path="url(#clipPath202)" id="g200"><text id="text206" style="font-variant:normal;font-weight:normal;font-size:9.96000004px;font-family:'Daytona Condensed';-inkscape-font-specification:'Daytona Condensed';writing-mode:lr-tb;fill:#595959;fill-opacity:1;fill-rule:nonzero;stroke:none" transform="matrix(1,0,0,-1,181.68,399.26)"><tspan id="tspan208" y="0" x="0 4.3226399 9.1333199 13.446 15.95592 23.037479 27.8382 30.23856 33.216599 35.49744 40.308121 42.708481 47.03112 49.541039 54.331799 58.77396 61.054798">FCF multiple paid</tspan></text>
</g>
    </g>
    <path id="path210" style="fill:#2673b2;fill-opacity:1;fill-rule:evenodd;stroke:none" d="m 107.39,594.4 5.1772,0 0,5.1772 -5.1772,0 0,-5.1772 z"/>
    <g id="g212">
      <g clip-path="url(#clipPath216)" id="g214"><text id="text220" style="font-variant:normal;font-weight:normal;font-size:9px;font-family:'Daytona Condensed';-inkscape-font-specification:'Daytona Condensed';writing-mode:lr-tb;fill:#595959;fill-opacity:1;fill-rule:nonzero;stroke:none" transform="matrix(1,0,0,-1,114.79,594.24)"><tspan id="tspan222" y="0" x="0 4.3200002 6.1110001 10.458">0.0%</tspan></text>
</g>
    </g>
    <path id="path224" style="fill:#d0b86a;fill-opacity:1;fill-rule:evenodd;stroke:none" d="m 143.19,594.4 5.1772,0 0,5.1772 -5.1772,0 0,-5.1772 z"/>
    <g id="g226">
      <g clip-path="url(#clipPath230)" id="g228"><text id="text234" style="font-variant:normal;font-weight:normal;font-size:9px;font-family:'Daytona Condensed';-inkscape-font-specification:'Daytona Condensed';writing-mode:lr-tb;fill:#595959;fill-opacity:1;fill-rule:nonzero;stroke:none" transform="matrix(1,0,0,-1,150.6,594.24)"><tspan id="tspan236" y="0" x="0 4.3200002 6.1110001 10.458">0.5%</tspan></text>
</g>
    </g>
    <path id="path238" style="fill:#38957f;fill-opacity:1;fill-rule:evenodd;stroke:none" d="m 179,594.4 5.1772,0 0,5.1772 -5.1772,0 0,-5.1772 z"/>
    <g id="g240">
      <g clip-path="url(#clipPath244)" id="g242"><text id="text248" style="font-variant:normal;font-weight:normal;font-size:9px;font-family:'Daytona Condensed';-inkscape-font-specification:'Daytona Condensed';writing-mode:lr-tb;fill:#595959;fill-opacity:1;fill-rule:nonzero;stroke:none" transform="matrix(1,0,0,-1,186.41,594.24)"><tspan id="tspan250" y="0" x="0 4.3200002 6.1110001 10.458">1.0%</tspan></text>
</g>
    </g>
    <path id="path252" style="fill:#40b9e9;fill-opacity:1;fill-rule:evenodd;stroke:none" d="m 214.8,594.4 5.1772,0 0,5.1772 -5.1772,0 0,-5.1772 z"/>
    <g id="g254">
      <g clip-path="url(#clipPath258)" id="g256"><text id="text262" style="font-variant:normal;font-weight:normal;font-size:9px;font-family:'Daytona Condensed';-inkscape-font-specification:'Daytona Condensed';writing-mode:lr-tb;fill:#595959;fill-opacity:1;fill-rule:nonzero;stroke:none" transform="matrix(1,0,0,-1,222.22,594.24)"><tspan id="tspan264" y="0" x="0 4.3200002 6.1110001 10.458">2.0%</tspan></text>
</g>
    </g>
    <path id="path266" style="fill:#ddaab6;fill-opacity:1;fill-rule:evenodd;stroke:none" d="m 250.6,594.4 5.1772,0 0,5.1772 -5.1772,0 0,-5.1772 z"/>
    <g id="g268">
      <g clip-path="url(#clipPath272)" id="g270"><text id="text276" style="font-variant:normal;font-weight:normal;font-size:9px;font-family:'Daytona Condensed';-inkscape-font-specification:'Daytona Condensed';writing-mode:lr-tb;fill:#595959;fill-opacity:1;fill-rule:nonzero;stroke:none" transform="matrix(1,0,0,-1,258.02,594.24)"><tspan id="tspan278" y="0" x="0 4.3200002 6.1110001 10.458">3.0%</tspan></text>
</g>
    </g>
    <path id="path280" style="fill:#7072bb;fill-opacity:1;fill-rule:evenodd;stroke:none" d="m 286.41,594.4 5.1772,0 0,5.1772 -5.1772,0 0,-5.1772 z"/>
    <g id="g282">
      <g clip-path="url(#clipPath286)" id="g284"><text id="text290" style="font-variant:normal;font-weight:normal;font-size:9px;font-family:'Daytona Condensed';-inkscape-font-specification:'Daytona Condensed';writing-mode:lr-tb;fill:#595959;fill-opacity:1;fill-rule:nonzero;stroke:none" transform="matrix(1,0,0,-1,293.83,594.24)"><tspan id="tspan292" y="0" x="0 4.3200002 6.1110001 10.458">4.0%</tspan></text>
</g>
    </g>
    <path id="path294" style="fill:none;stroke:#d9d9d9;stroke-width:0.75;stroke-linecap:butt;stroke-linejoin:round;stroke-miterlimit:10;stroke-dasharray:none;stroke-opacity:1" d="m 1.8,394.92 404.16,0 0,214.54 -404.16,0 0,-214.54 z"/>
  </g>
</svg>
