<svg version="1.1" width="100%" height="100%" viewBox="0 0 355 220" xmlns="http://www.w3.org/2000/svg" xmlns:xlink="http://www.w3.org/1999/xlink"><style type="text/css" /><defs><clipPath id="clip001"><path d="M0,0 L2761.333,0 L2761.333,1832 L0,1832 Z" clip-rule="evenodd" /></clipPath><clipPath id="clip002"><path d="M0,0 L2761.333,0 L2761.333,1832 L0,1832 Z" clip-rule="evenodd" /></clipPath><clipPath id="clip003"><path d="M0,0 L2761.333,0 L2761.333,1832 L0,1832 Z" clip-rule="evenodd" /></clipPath><clipPath id="clip004"><path d="M0,0 L5200,0 L5200,1940 L0,1940 Z" clip-rule="evenodd" /></clipPath><clipPath id="clip005"><path d="M-800,0 L6000,0 L6000,1940 L-800,1940 Z" clip-rule="evenodd" /></clipPath><clipPath id="clip006"><path d="M0,0 L2753.333,0 L2753.333,1830.667 L0,1830.667 Z" clip-rule="evenodd" /></clipPath><clipPath id="clip007"><path d="M0,0 L2753.333,0 L2753.333,1830.667 L0,1830.667 Z" clip-rule="evenodd" /></clipPath><clipPath id="clip008"><path d="M0,0 L2753.333,0 L2753.333,1830.667 L0,1830.667 Z" clip-rule="evenodd" /></clipPath><clipPath id="clip009"><path d="M0,0 L2753.333,0 L2753.333,1830.667 L0,1830.667 Z" clip-rule="evenodd" /></clipPath><clipPath id="clip010"><path d="M0,0 L2753.333,0 L2753.333,1830.667 L0,1830.667 Z" clip-rule="evenodd" /></clipPath><clipPath id="clip011"><path d="M0,0 L2753.333,0 L2753.333,1830.667 L0,1830.667 Z" clip-rule="evenodd" /></clipPath><clipPath id="clip012"><path d="M0,0 L2753.333,0 L2753.333,1830.667 L0,1830.667 Z" clip-rule="evenodd" /></clipPath><clipPath id="clip013"><path d="M0,0 L2753.333,0 L2753.333,1830.667 L0,1830.667 Z" clip-rule="evenodd" /></clipPath><clipPath id="clip014"><path d="M0,0 L2753.333,0 L2753.333,1830.667 L0,1830.667 Z" clip-rule="evenodd" /></clipPath></defs><clipPath id="page-clip-path-1"><rect x="0" y="0" width="354.67" height="220" /></clipPath><g clip-path="url(#page-clip-path-1)" transform="translate(0.17,0)"><g transform="translate(1,1)"><g><g transform="matrix(0.1197006,0,0,0.1199782,0,0)" clip-path="url(#clip001)"><g><g clip-path="url(#clip002)"><g><g clip-path="url(#clip003)"><g transform="matrix(1.000214,0,0,1.000852,0.00016276,0.00008138)"><g><g><g clip-path="url(#clip004)"><g transform="translate(2753.333,1832)" /></g></g></g><g clip-path="url(#clip005)"><g transform="matrix(0.000656168,0,0,0.000656168,0,0)"><path d="M0,0 L4198112,0 L4198112,2791968 L0,2791968 Z" fill="#ffffff" fill-opacity="0" fill-rule="evenodd" /></g></g><g clip-path="url(#clip006)"><g transform="matrix(0.000656168,0,0,0.000656168,583.6115,122.2222)"><path d="M1209463,0 C1877430,0 2418925,541494.9 2418925,1209463 L2418925,1209463 C2418925,1877430 1877430,2418925 1209463,2418925 L1209463,2418925 C559072.3,2418925 25135.24,1904571 843.8594,1254635 L843.8594,1254635 L1209463,1209463 Z" fill="#012169" fill-rule="evenodd" /><path d="M1209463,0 C1877430,0 2418925,541494.9 2418925,1209463 L2418925,1209463 C2418925,1877430 1877430,2418925 1209463,2418925 L1209463,2418925 C559072.3,2418925 25135.24,1904571 843.8594,1254635 L843.8594,1254635 L1209463,1209463 Z" stroke-width="8466.667" stroke-linejoin="round" stroke-miterlimit="13.33333" stroke="#ffffff" fill="none" fill-rule="evenodd" /></g></g><g clip-path="url(#clip007)"><g transform="matrix(0.000656168,0,0,0.000656168,583.6115,122.2222)"><path d="M843.8726,1254635 C-15046.02,829487.4 193609.6,427257.4 550321.1,195395.6 L550321.1,195395.6 L1209463,1209463 Z" fill="#009cde" fill-rule="evenodd" /><path d="M843.8726,1254635 C-15046.02,829487.4 193609.6,427257.4 550321.1,195395.6 L550321.1,195395.6 L1209463,1209463 Z" stroke-width="8466.667" stroke-linejoin="round" stroke-miterlimit="13.33333" stroke="#ffffff" fill="none" fill-rule="evenodd" /></g></g><g clip-path="url(#clip008)"><g transform="matrix(0.000656168,0,0,0.000656168,583.6115,122.2222)"><path d="M550321.4,195394.9 C746508.3,67873.79 975473.8,-0.5617704 1209463,-0.5617704 L1209463,-0.5617704 L1209463,1209463 Z" fill="#e56200" fill-rule="evenodd" /><path d="M550321.4,195394.9 C746508.3,67873.79 975473.8,-0.5617704 1209463,-0.5617704 L1209463,-0.5617704 L1209463,1209463 Z" stroke-width="8466.667" stroke-linejoin="round" stroke-miterlimit="13.33333" stroke="#ffffff" fill="none" fill-rule="evenodd" /></g></g><g><g clip-path="url(#clip009)"><g><g transform="translate(1704.275,1288.594)"><text><tspan x="0" y="0" font-family="Connections Cond Bld,Arial Narrow" font-weight="normal" font-style="normal" font-size="105.3333" fill="#ffffff">R&amp;D</tspan></text></g></g></g></g><g><g clip-path="url(#clip010)"><g><g transform="translate(1700.275,1420.595)"><text><tspan x="0" y="0" font-family="Connections Cond Bld,Arial Narrow" font-weight="normal" font-style="normal" font-size="105.3333" fill="#ffffff">74%</tspan></text></g></g></g></g><g><g clip-path="url(#clip011)"><g><g transform="translate(731.5184,602.1631)"><text><tspan x="0" y="0" font-family="Connections Cond Bld,Arial Narrow" font-weight="normal" font-style="normal" font-size="105.3333" fill="#ffffff">S&amp;M</tspan></text></g></g></g></g><g><g clip-path="url(#clip012)"><g><g transform="translate(736.8517,734.1631)"><text><tspan x="0" y="0" font-family="Connections Cond Bld,Arial Narrow" font-weight="normal" font-style="normal" font-size="105.3333" fill="#ffffff">17%</tspan></text></g></g></g></g><g><g clip-path="url(#clip013)"><g><g transform="translate(1111.22,299.7975)"><text><tspan x="0" y="0" font-family="Connections Cond Bld,Arial Narrow" font-weight="normal" font-style="normal" font-size="105.3333" fill="#ffffff">G&amp;A</tspan></text></g></g></g></g><g><g clip-path="url(#clip014)"><g><g transform="translate(1133.886,431.7975)"><text><tspan x="0" y="0" font-family="Connections Cond Bld,Arial Narrow" font-weight="normal" font-style="normal" font-size="105.3333" fill="#ffffff">9%</tspan></text></g></g></g></g><g /></g></g></g></g></g></g></g></g></g></svg>