<svg version="1.1" width="100%" height="100%" viewBox="0 0 355 223" xmlns="http://www.w3.org/2000/svg" xmlns:xlink="http://www.w3.org/1999/xlink"><style type="text/css" /><defs><clipPath id="clip001"><path d="M0,0 L2761.333,0 L2761.333,1848 L0,1848 Z" clip-rule="evenodd" /></clipPath><clipPath id="clip002"><path d="M0,0 L2761.333,0 L2761.333,1848 L0,1848 Z" clip-rule="evenodd" /></clipPath><clipPath id="clip003"><path d="M0,0 L2761.333,0 L2761.333,1848 L0,1848 Z" clip-rule="evenodd" /></clipPath><clipPath id="clip004"><path d="M0,0 L5200,0 L5200,1956 L0,1956 Z" clip-rule="evenodd" /></clipPath><clipPath id="clip005"><path d="M-800,0 L6000,0 L6000,1956 L-800,1956 Z" clip-rule="evenodd" /></clipPath><clipPath id="clip006"><path d="M0,0 L2753.333,0 L2753.333,1846.667 L0,1846.667 Z" clip-rule="evenodd" /></clipPath><clipPath id="clip007"><path d="M334.6667,284 L2298.667,284 L2298.667,1653.333 L334.6667,1653.333 Z" clip-rule="evenodd" /></clipPath><clipPath id="clip008"><path d="M0,0 L2753.333,0 L2753.333,1846.667 L0,1846.667 Z" clip-rule="evenodd" /></clipPath><clipPath id="clip009"><path d="M334.6667,284 L2298.667,284 L2298.667,1653.333 L334.6667,1653.333 Z" clip-rule="evenodd" /></clipPath><clipPath id="clip010"><path d="M0,0 L2753.333,0 L2753.333,1846.667 L0,1846.667 Z" clip-rule="evenodd" /></clipPath><clipPath id="clip011"><path d="M0,0 L2753.333,0 L2753.333,1846.667 L0,1846.667 Z" clip-rule="evenodd" /></clipPath><clipPath id="clip012"><path d="M0,0 L2753.333,0 L2753.333,1846.667 L0,1846.667 Z" clip-rule="evenodd" /></clipPath><clipPath id="clip013"><path d="M0,0 L2753.333,0 L2753.333,1846.667 L0,1846.667 Z" clip-rule="evenodd" /></clipPath><clipPath id="clip014"><path d="M0,0 L2753.333,0 L2753.333,1846.667 L0,1846.667 Z" clip-rule="evenodd" /></clipPath><clipPath id="clip015"><path d="M0,0 L2753.333,0 L2753.333,1846.667 L0,1846.667 Z" clip-rule="evenodd" /></clipPath><clipPath id="clip016"><path d="M0,0 L2753.333,0 L2753.333,1846.667 L0,1846.667 Z" clip-rule="evenodd" /></clipPath><clipPath id="clip017"><path d="M0,0 L2753.333,0 L2753.333,1846.667 L0,1846.667 Z" clip-rule="evenodd" /></clipPath><clipPath id="clip018"><path d="M0,0 L2753.333,0 L2753.333,1846.667 L0,1846.667 Z" clip-rule="evenodd" /></clipPath><clipPath id="clip019"><path d="M0,0 L2753.333,0 L2753.333,1846.667 L0,1846.667 Z" clip-rule="evenodd" /></clipPath><clipPath id="clip020"><path d="M0,0 L2753.333,0 L2753.333,1846.667 L0,1846.667 Z" clip-rule="evenodd" /></clipPath><clipPath id="clip021"><path d="M0,0 L2753.333,0 L2753.333,1846.667 L0,1846.667 Z" clip-rule="evenodd" /></clipPath><clipPath id="clip022"><path d="M0,0 L2753.333,0 L2753.333,1846.667 L0,1846.667 Z" clip-rule="evenodd" /></clipPath><clipPath id="clip023"><path d="M0,0 L2753.333,0 L2753.333,1846.667 L0,1846.667 Z" clip-rule="evenodd" /></clipPath><clipPath id="clip024"><path d="M0,0 L2753.333,0 L2753.333,1846.667 L0,1846.667 Z" clip-rule="evenodd" /></clipPath><clipPath id="clip025"><path d="M0,0 L2753.333,0 L2753.333,1846.667 L0,1846.667 Z" clip-rule="evenodd" /></clipPath><clipPath id="clip026"><path d="M0,0 L2753.333,0 L2753.333,1846.667 L0,1846.667 Z" clip-rule="evenodd" /></clipPath><clipPath id="clip027"><path d="M0,0 L2753.333,0 L2753.333,1846.667 L0,1846.667 Z" clip-rule="evenodd" /></clipPath><clipPath id="clip028"><path d="M0,0 L2753.333,0 L2753.333,1846.667 L0,1846.667 Z" clip-rule="evenodd" /></clipPath><clipPath id="clip029"><path d="M0,0 L2753.333,0 L2753.333,1846.667 L0,1846.667 Z" clip-rule="evenodd" /></clipPath><clipPath id="clip030"><path d="M0,0 L2753.333,0 L2753.333,1846.667 L0,1846.667 Z" clip-rule="evenodd" /></clipPath></defs><clipPath id="page-clip-path-1"><rect x="0" y="0" width="354.67" height="222.67" /></clipPath><g clip-path="url(#page-clip-path-1)" transform="translate(0.17,0)"><g transform="translate(1,1)"><g><g transform="matrix(0.1197006,0,0,0.1199495,0,0)" clip-path="url(#clip001)"><g><g clip-path="url(#clip002)"><g><g clip-path="url(#clip003)"><g transform="matrix(1.000214,0,0,1.000976,0.00016276,-0.00008138)"><g><g><g clip-path="url(#clip004)"><g transform="translate(2753.333,1848)" /></g></g></g><g clip-path="url(#clip005)"><g transform="matrix(0.000656168,0,0,0.000656168,0,0)"><path d="M0,0 L4198112,0 L4198112,2814320 L0,2814320 Z" fill="#ffffff" fill-opacity="0" fill-rule="evenodd" /></g></g><g clip-path="url(#clip006)"><g transform="matrix(0.000656168,0,0,0.000656168,334.6667,285.3333)"><path d="M0,2074672 L2980944,2074672 M0,1554480 L2980944,1554480 M0,1036320 L2980944,1036320 M0,518160 L2980944,518160 " stroke-width="12700" stroke-linejoin="round" stroke-miterlimit="13.33333" stroke="#bababa" stroke-dashoffset="0" stroke-dasharray="12700" fill="none" fill-rule="nonzero" /></g></g><g clip-path="url(#clip007)"><g transform="matrix(0.000656168,0,0,0.000656168,334.6667,285.3333)"><path d="M99568,843280 L497840,843280 L497840,843280 L497840,0 L497840,0 L99568,0 ZM694944,865632 L1093216,865632 L1093216,865632 L1093216,0 L1093216,0 L694944,0 ZM1292352,1753616 L1688592,1753616 L1688592,1753616 L1688592,0 L1688592,0 L1292352,0 ZM1887728,1928368 L2286000,1928368 L2286000,1928368 L2286000,0 L2286000,0 L1887728,0 ZM2483104,680720 L2881376,680720 L2881376,680720 L2881376,0 L2881376,0 L2483104,0 Z" fill="#012169" fill-rule="nonzero" /><path d="M99568,843280 L497840,843280 L497840,843280 L497840,0 L497840,0 L99568,0 ZM694944,865632 L1093216,865632 L1093216,865632 L1093216,0 L1093216,0 L694944,0 ZM1292352,1753616 L1688592,1753616 L1688592,1753616 L1688592,0 L1688592,0 L1292352,0 ZM1887728,1928368 L2286000,1928368 L2286000,1928368 L2286000,0 L2286000,0 L1887728,0 ZM2483104,680720 L2881376,680720 L2881376,680720 L2881376,0 L2881376,0 L2483104,0 Z" stroke-width="8466.667" stroke-linejoin="round" stroke-miterlimit="13.33333" stroke="#ffffff" fill="none" fill-rule="nonzero" /></g></g><g clip-path="url(#clip008)"><g transform="matrix(0.000656168,0,0,0.000656168,334.6667,285.3333)"><g><path d="M0.003029614,-6773.333 L2980944,-6772 " stroke-width="3386.667" stroke-linejoin="round" stroke-miterlimit="13.33333" stroke="#000000" fill="none" fill-rule="evenodd" /><path d="M-0.001514807,3386.667 L2980944,3388 " stroke-width="10160" stroke-linejoin="round" stroke-miterlimit="13.33333" stroke="#000000" fill="none" fill-rule="evenodd" /></g></g></g><g clip-path="url(#clip009)"><g transform="matrix(0.000656168,0,0,0.000656168,530,294)"><path d="M0,1645920 L597408,644144 L597408,644144 L1192784,260096 L1192784,260096 L1788160,83312 L1788160,83312 L2385568,0 " stroke-width="33866.67" stroke-linecap="round" stroke-linejoin="round" stroke-miterlimit="13.33333" stroke="#009cde" fill="none" fill-rule="nonzero" /></g></g><g><g clip-path="url(#clip010)"><g><g transform="translate(2381.722,1675.761)"><text><tspan x="0" y="0" font-family="Connections Cond Light,Arial Narrow" font-weight="normal" font-style="normal" font-size="105.3333" fill="#000000">-1000%</tspan></text></g></g></g></g><g><g clip-path="url(#clip011)"><g><g transform="translate(2381.722,1335.4)"><text><tspan x="0" y="0" font-family="Connections Cond Light,Arial Narrow" font-weight="normal" font-style="normal" font-size="105.3333" fill="#000000">-750%</tspan></text></g></g></g></g><g><g clip-path="url(#clip012)"><g><g transform="translate(2381.722,995.0385)"><text><tspan x="0" y="0" font-family="Connections Cond Light,Arial Narrow" font-weight="normal" font-style="normal" font-size="105.3333" fill="#000000">-500%</tspan></text></g></g></g></g><g><g clip-path="url(#clip013)"><g><g transform="translate(2381.722,654.678)"><text><tspan x="0" y="0" font-family="Connections Cond Light,Arial Narrow" font-weight="normal" font-style="normal" font-size="105.3333" fill="#000000">-250%</tspan></text></g></g></g></g><g><g clip-path="url(#clip014)"><g><g transform="translate(2381.722,314.3167)"><text><tspan x="0" y="0" font-family="Connections Cond Light,Arial Narrow" font-weight="normal" font-style="normal" font-size="105.3333" fill="#000000">0%</tspan></text></g></g></g></g><g><g clip-path="url(#clip015)"><g><g transform="translate(16.66667,1675.761)"><text><tspan x="0" y="0" font-family="Connections Cond Light,Arial Narrow" font-weight="normal" font-style="normal" font-size="105.3333" fill="#000000" style="white-space: pre"> (600)</tspan></text></g></g></g></g><g><g clip-path="url(#clip016)"><g><g transform="translate(16.66667,1335.4)"><text><tspan x="0" y="0" font-family="Connections Cond Light,Arial Narrow" font-weight="normal" font-style="normal" font-size="105.3333" fill="#000000" style="white-space: pre"> (450)</tspan></text></g></g></g></g><g><g clip-path="url(#clip017)"><g><g transform="translate(16.66667,995.0385)"><text><tspan x="0" y="0" font-family="Connections Cond Light,Arial Narrow" font-weight="normal" font-style="normal" font-size="105.3333" fill="#000000" style="white-space: pre"> (300)</tspan></text></g></g></g></g><g><g clip-path="url(#clip018)"><g><g transform="translate(16.66667,654.678)"><text><tspan x="0" y="0" font-family="Connections Cond Light,Arial Narrow" font-weight="normal" font-style="normal" font-size="105.3333" fill="#000000" style="white-space: pre"> (150)</tspan></text></g></g></g></g><g><g clip-path="url(#clip019)"><g><g transform="translate(131.6098,314.3167)"><text><tspan x="0" y="0" font-family="Connections Cond Light,Arial Narrow" font-weight="normal" font-style="normal" font-size="105.3333" fill="#000000" style="white-space: pre"> -</tspan></text></g></g></g></g><g><g clip-path="url(#clip020)"><g><g transform="translate(429.1557,1802.011)"><text><tspan x="0" y="0" font-family="Connections Cond Light,Arial Narrow" font-weight="normal" font-style="normal" font-size="105.3333" fill="#000000">2024</tspan></text></g></g></g></g><g><g clip-path="url(#clip021)"><g><g transform="translate(820.2449,1802.011)"><text><tspan x="0" y="0" font-family="Connections Cond Light,Arial Narrow" font-weight="normal" font-style="normal" font-size="105.3333" fill="#000000">2025</tspan></text></g></g></g></g><g><g clip-path="url(#clip022)"><g><g transform="translate(1187.167,1802.011)"><text><tspan x="0" y="0" font-family="Connections Cond Light,Arial Narrow" font-weight="normal" font-style="normal" font-size="105.3333" fill="#000000">2026E</tspan></text></g></g></g></g><g><g clip-path="url(#clip023)"><g><g transform="translate(1578.255,1802.011)"><text><tspan x="0" y="0" font-family="Connections Cond Light,Arial Narrow" font-weight="normal" font-style="normal" font-size="105.3333" fill="#000000">2027E</tspan></text></g></g></g></g><g><g clip-path="url(#clip024)"><g><g transform="translate(1969.345,1802.011)"><text><tspan x="0" y="0" font-family="Connections Cond Light,Arial Narrow" font-weight="normal" font-style="normal" font-size="105.3333" fill="#000000">2028E</tspan></text></g></g></g></g><g><g clip-path="url(#clip025)"><g><g transform="translate(77.38889,143.381)"><text><tspan x="0" y="0" font-family="Connections Cond Light,Arial Narrow" font-weight="normal" font-style="normal" font-size="105.3333" fill="#000000">USDmn</tspan></text></g></g></g></g><g clip-path="url(#clip026)"><g transform="matrix(0.000656168,0,0,0.000656168,289.3333,42.66667)"><path d="M0,0 L2643632,0 L2643632,308864 L0,308864 Z" fill="#156082" fill-opacity="0" fill-rule="evenodd" /></g></g><g clip-path="url(#clip027)"><g transform="matrix(0.000656168,0,0,0.000656168,450.6667,117.3333)"><path d="M0,0 L325120,0 L325120,81280.01 L0,81280.01 Z" fill="#012169" fill-rule="evenodd" /><path d="M0,0 L325120,0 L325120,0 L325120,81280.01 L325120,81280.01 L0,81280.01 Z" stroke-width="8466.667" stroke-linejoin="round" stroke-miterlimit="13.33333" stroke="#ffffff" fill="none" fill-rule="evenodd" /></g></g><g><g clip-path="url(#clip028)"><g><g transform="translate(686.0744,173.4751)"><text><tspan x="0" y="0" font-family="Connections Cond Light,Arial Narrow" font-weight="normal" font-style="normal" font-size="105.3333" fill="#000000">Adj NP</tspan></text></g></g></g></g><g clip-path="url(#clip029)"><g transform="matrix(0.000656168,0,0,0.000656168,1099.333,143.3333)"><path d="M0,0 L325120,1.333333 " stroke-width="33866.67" stroke-linecap="round" stroke-linejoin="round" stroke-miterlimit="13.33333" stroke="#009cde" fill="none" fill-rule="evenodd" /></g></g><g><g clip-path="url(#clip030)"><g><g transform="translate(1335.486,173.4751)"><text><tspan x="0" y="0" font-family="Connections Cond Light,Arial Narrow" font-weight="normal" font-style="normal" font-size="105.3333" fill="#000000">Adj net margin</tspan></text></g></g></g></g><g /></g></g></g></g></g></g></g></g></g></svg>