<svg version="1.1" width="100%" height="100%" viewBox="0 0 235 145" xmlns="http://www.w3.org/2000/svg" xmlns:xlink="http://www.w3.org/1999/xlink"><style type="text/css" /><defs><clipPath id="clip001"><path d="M0,0 L1754.667,0 L1754.667,1208 L0,1208 Z" clip-rule="evenodd" /></clipPath><clipPath id="clip002"><path d="M0,0 L1754.667,0 L1754.667,1208 L0,1208 Z" clip-rule="evenodd" /></clipPath><clipPath id="clip003"><path d="M0,0 L1754.667,0 L1754.667,1208 L0,1208 Z" clip-rule="evenodd" /></clipPath><clipPath id="clip004"><path d="M0,0 L5200,0 L5200,1316 L0,1316 Z" clip-rule="evenodd" /></clipPath><clipPath id="clip005"><path d="M-800,0 L6000,0 L6000,1316 L-800,1316 Z" clip-rule="evenodd" /></clipPath><clipPath id="clip006"><path d="M0,0 L1749.333,0 L1749.333,1206.667 L0,1206.667 Z" clip-rule="evenodd" /></clipPath><clipPath id="clip007"><path d="M201.3333,44 L1569.333,44 L1569.333,920 L201.3333,920 Z" clip-rule="evenodd" /></clipPath><clipPath id="clip008"><path d="M0,0 L1749.333,0 L1749.333,1206.667 L0,1206.667 Z" clip-rule="evenodd" /></clipPath><clipPath id="clip009"><path d="M201.3333,44 L1569.333,44 L1569.333,920 L201.3333,920 Z" clip-rule="evenodd" /></clipPath><clipPath id="clip010"><path d="M0,0 L1749.333,0 L1749.333,1206.667 L0,1206.667 Z" clip-rule="evenodd" /></clipPath><clipPath id="clip011"><path d="M0,0 L1749.333,0 L1749.333,1206.667 L0,1206.667 Z" clip-rule="evenodd" /></clipPath><clipPath id="clip012"><path d="M0,0 L1749.333,0 L1749.333,1206.667 L0,1206.667 Z" clip-rule="evenodd" /></clipPath><clipPath id="clip013"><path d="M0,0 L1749.333,0 L1749.333,1206.667 L0,1206.667 Z" clip-rule="evenodd" /></clipPath><clipPath id="clip014"><path d="M0,0 L1749.333,0 L1749.333,1206.667 L0,1206.667 Z" clip-rule="evenodd" /></clipPath><clipPath id="clip015"><path d="M0,0 L1749.333,0 L1749.333,1206.667 L0,1206.667 Z" clip-rule="evenodd" /></clipPath><clipPath id="clip016"><path d="M0,0 L1749.333,0 L1749.333,1206.667 L0,1206.667 Z" clip-rule="evenodd" /></clipPath><clipPath id="clip017"><path d="M0,0 L1749.333,0 L1749.333,1206.667 L0,1206.667 Z" clip-rule="evenodd" /></clipPath><clipPath id="clip018"><path d="M0,0 L1749.333,0 L1749.333,1206.667 L0,1206.667 Z" clip-rule="evenodd" /></clipPath><clipPath id="clip019"><path d="M0,0 L1749.333,0 L1749.333,1206.667 L0,1206.667 Z" clip-rule="evenodd" /></clipPath><clipPath id="clip020"><path d="M0,0 L1749.333,0 L1749.333,1206.667 L0,1206.667 Z" clip-rule="evenodd" /></clipPath><clipPath id="clip021"><path d="M0,0 L1749.333,0 L1749.333,1206.667 L0,1206.667 Z" clip-rule="evenodd" /></clipPath><clipPath id="clip022"><path d="M0,0 L1749.333,0 L1749.333,1206.667 L0,1206.667 Z" clip-rule="evenodd" /></clipPath><clipPath id="clip023"><path d="M0,0 L1749.333,0 L1749.333,1206.667 L0,1206.667 Z" clip-rule="evenodd" /></clipPath><clipPath id="clip024"><path d="M0,0 L1749.333,0 L1749.333,1206.667 L0,1206.667 Z" clip-rule="evenodd" /></clipPath><clipPath id="clip025"><path d="M0,0 L1749.333,0 L1749.333,1206.667 L0,1206.667 Z" clip-rule="evenodd" /></clipPath><clipPath id="clip026"><path d="M0,0 L1749.333,0 L1749.333,1206.667 L0,1206.667 Z" clip-rule="evenodd" /></clipPath><clipPath id="clip027"><path d="M0,0 L1749.333,0 L1749.333,1206.667 L0,1206.667 Z" clip-rule="evenodd" /></clipPath><clipPath id="clip028"><path d="M0,0 L1749.333,0 L1749.333,1206.667 L0,1206.667 Z" clip-rule="evenodd" /></clipPath><clipPath id="clip029"><path d="M0,0 L1749.333,0 L1749.333,1206.667 L0,1206.667 Z" clip-rule="evenodd" /></clipPath><clipPath id="clip030"><path d="M0,0 L1749.333,0 L1749.333,1206.667 L0,1206.667 Z" clip-rule="evenodd" /></clipPath><clipPath id="clip031"><path d="M0,0 L1749.333,0 L1749.333,1206.667 L0,1206.667 Z" clip-rule="evenodd" /></clipPath><clipPath id="clip032"><path d="M0,0 L1749.333,0 L1749.333,1206.667 L0,1206.667 Z" clip-rule="evenodd" /></clipPath><clipPath id="clip033"><path d="M0,0 L1749.333,0 L1749.333,1206.667 L0,1206.667 Z" clip-rule="evenodd" /></clipPath><clipPath id="clip034"><path d="M0,0 L1749.333,0 L1749.333,1206.667 L0,1206.667 Z" clip-rule="evenodd" /></clipPath><clipPath id="clip035"><path d="M0,0 L1749.333,0 L1749.333,1206.667 L0,1206.667 Z" clip-rule="evenodd" /></clipPath><clipPath id="clip036"><path d="M0,0 L1749.333,0 L1749.333,1206.667 L0,1206.667 Z" clip-rule="evenodd" /></clipPath><clipPath id="clip037"><path d="M0,0 L1749.333,0 L1749.333,1206.667 L0,1206.667 Z" clip-rule="evenodd" /></clipPath><clipPath id="clip038"><path d="M0,0 L1749.333,0 L1749.333,1206.667 L0,1206.667 Z" clip-rule="evenodd" /></clipPath></defs><clipPath id="page-clip-path-1"><rect x="0" y="0" width="234.67" height="145.33" /></clipPath><g clip-path="url(#page-clip-path-1)" transform="translate(0.17,0)"><g transform="translate(1,1)"><g><g transform="matrix(0.1197188,0,0,0.1199779,0,0)" clip-path="url(#clip001)"><g><g clip-path="url(#clip002)"><g><g clip-path="url(#clip003)"><g transform="matrix(1.000214,0,0,1.000852,0.00016276,0)"><g><g><g clip-path="url(#clip004)"><g transform="translate(1749.333,1208)" /></g></g></g><g clip-path="url(#clip005)"><g transform="matrix(0.000656168,0,0,0.000656168,0,0)"><path d="M0,0 L2668016,0 L2668016,1840992 L0,1840992 Z" fill="#ffffff" fill-opacity="0" fill-rule="evenodd" /></g></g><g clip-path="url(#clip006)"><g transform="matrix(0.000656168,0,0,0.000656168,202.6667,44)"><path d="M0,0 L2070608,0 L2070608,1322832 L0,1322832 Z" fill="#ffffff" fill-opacity="0" fill-rule="evenodd" /></g></g><g clip-path="url(#clip007)"><g transform="matrix(0.000656168,0,0,0.000656168,202.2231,180.2362)"><path d="M676,351176 L4740,353208 L4740,353208 L8804,316632 L8804,316632 L12868,251608 L12868,251608 L16932,208936 L16932,208936 L20996,178456 L20996,178456 L25060,162200 L25060,162200 L31156,221128 L31156,221128 L35220,292248 L35220,292248 L39284,235352 L39284,235352 L43348,241448 L43348,241448 L47412,158136 L47412,158136 L51476,221128 L51476,221128 L55540,233320 L55540,233320 L59604,261768 L59604,261768 L63668,304440 L63668,304440 L69764,292248 L69764,292248 L73828,282088 L73828,282088 L77892,304440 L77892,304440 L81956,288184 L81956,288184 L86020,231288 L86020,231288 L90084,172360 L90084,172360 L94148,170328 L94148,170328 L98212,241448 L98212,241448 L104308,227224 L104308,227224 L108372,235352 L108372,235352 L112436,194712 L112436,194712 L116500,259736 L116500,259736 L120564,280056 L120564,280056 L124628,381656 L124628,381656 L128692,359304 L128692,359304 L132756,316632 L132756,316632 L136820,351176 L136820,351176 L142916,371496 L142916,371496 L146980,371496 L146980,371496 L151044,275992 L151044,275992 L155108,213000 L155108,213000 L159172,210968 L159172,210968 L163236,109368 L163236,109368 L167300,143912 L167300,143912 L171364,99208 L171364,99208 L177460,121560 L177460,121560 L181524,19960 L181524,19960 L185588,68728 L185588,68728 L189652,111400 L189652,111400 L193716,82952 L193716,82952 L197780,78888 L197780,78888 L201844,198776 L201844,198776 L205908,239416 L205908,239416 L212004,253640 L212004,253640 L216068,243480 L216068,243480 L220132,186584 L220132,186584 L224196,164232 L224196,164232 L228260,129688 L228260,129688 L232324,109368 L232324,109368 L236388,72792 L236388,72792 L240452,58568 L240452,58568 L244516,17928 L244516,17928 L250612,-360 L250612,-360 L254676,34184 L254676,34184 L258740,44344 L258740,44344 L262804,26056 L262804,26056 L266868,66696 L266868,66696 L270932,97176 L270932,97176 L274996,107336 L274996,107336 L279060,115464 L279060,115464 L285156,109368 L285156,109368 L289220,52472 L289220,52472 L293284,137816 L293284,137816 L297348,129688 L297348,129688 L301412,56536 L301412,56536 L305476,3704 L305476,3704 L309540,56536 L309540,56536 L313604,62632 L313604,62632 L317668,28088 L317668,28088 L323764,70760 L323764,70760 L327828,76856 L327828,76856 L331892,127656 L331892,127656 L335956,107336 L335956,107336 L340020,56536 L340020,56536 L344084,48408 L344084,48408 L348148,40280 L348148,40280 L352212,52472 L352212,52472 L358308,36216 L358308,36216 L362372,58568 L362372,58568 L366436,95144 L366436,95144 L370500,176424 L370500,176424 L374564,269896 L374564,269896 L378628,282088 L378628,282088 L382692,275992 L382692,275992 L386756,330856 L386756,330856 L392852,338984 L392852,338984 L396916,375560 L396916,375560 L400980,381656 L400980,381656 L405044,357272 L405044,357272 L409108,355240 L409108,355240 L413172,389784 L413172,389784 L417236,355240 L417236,355240 L421300,373528 L421300,373528 L425364,383688 L425364,383688 L431460,416200 L431460,416200 L435524,393848 L435524,393848 L439588,379624 L439588,379624 L443652,347112 L443652,347112 L447716,308504 L447716,308504 L451780,302408 L451780,302408 L455844,282088 L455844,282088 L459908,306472 L459908,306472 L466004,310536 L466004,310536 L470068,322728 L470068,322728 L474132,275992 L474132,275992 L478196,263800 L478196,263800 L482260,239416 L482260,239416 L486324,243480 L486324,243480 L490388,298344 L490388,298344 L494452,308504 L494452,308504 L500548,243480 L500548,243480 L504612,227224 L504612,227224 L508676,206904 L508676,206904 L512740,196744 L512740,196744 L516804,223160 L516804,223160 L520868,213000 L520868,213000 L524932,282088 L524932,282088 L528996,334920 L528996,334920 L533060,298344 L533060,298344 L539156,251608 L539156,251608 L543220,225192 L543220,225192 L547284,241448 L547284,241448 L551348,233320 L551348,233320 L555412,247544 L555412,247544 L559476,286152 L559476,286152 L563540,275992 L563540,275992 L567604,294280 L567604,294280 L573700,239416 L573700,239416 L577764,267864 L577764,267864 L581828,243480 L581828,243480 L585892,243480 L585892,243480 L589956,290216 L589956,290216 L594020,324760 L594020,324760 L598084,379624 L598084,379624 L602148,359304 L602148,359304 L606212,369464 L606212,369464 L612308,338984 L612308,338984 L616372,347112 L616372,347112 L620436,395880 L620436,395880 L624500,391816 L624500,391816 L628564,385720 L628564,385720 L632628,412136 L632628,412136 L636692,363368 L636692,363368 L640756,353208 L640756,353208 L646852,371496 L646852,371496 L650916,349144 L650916,349144 L654980,458872 L654980,458872 L659044,373528 L659044,373528 L663108,395880 L663108,395880 L667172,353208 L667172,353208 L671236,452776 L671236,452776 L675300,450744 L675300,450744 L681396,544216 L681396,544216 L685460,560472 L685460,560472 L689524,552344 L689524,552344 L693588,580792 L693588,580792 L697652,597048 L697652,597048 L701716,605176 L701716,605176 L705780,645816 L705780,645816 L709844,621432 L709844,621432 L713908,623464 L713908,623464 L720004,627528 L720004,627528 L724068,670200 L724068,670200 L728132,739288 L728132,739288 L732196,792120 L732196,792120 L736260,771800 L736260,771800 L740324,696616 L740324,696616 L744388,655976 L744388,655976 L748452,668168 L748452,668168 L754548,753512 L754548,753512 L758612,680360 L758612,680360 L762676,623464 L762676,623464 L766740,479192 L766740,479192 L770804,467000 L770804,467000 L774868,544216 L774868,544216 L778932,469032 L778932,469032 L782996,410104 L782996,410104 L787060,475128 L787060,475128 L793156,458872 L793156,458872 L797220,475128 L797220,475128 L801284,448712 L801284,448712 L805348,401976 L805348,401976 L809412,351176 L809412,351176 L813476,367432 L813476,367432 L817540,418232 L817540,418232 L821604,412136 L821604,412136 L827700,375560 L827700,375560 L831764,320696 L831764,320696 L835828,361336 L835828,361336 L839892,320696 L839892,320696 L843956,330856 L843956,330856 L848020,397912 L848020,397912 L852084,393848 L852084,393848 L856148,365400 L856148,365400 L862244,324760 L862244,324760 L866308,361336 L866308,361336 L870372,442616 L870372,442616 L874436,404008 L874436,404008 L878500,436520 L878500,436520 L882564,444648 L882564,444648 L886628,383688 L886628,383688 L890692,401976 L890692,401976 L894756,397912 L894756,397912 L900852,351176 L900852,351176 L904916,371496 L904916,371496 L908980,393848 L908980,393848 L913044,416200 L913044,416200 L917108,424328 L917108,424328 L921172,422296 L921172,422296 L925236,454808 L925236,454808 L929300,489352 L929300,489352 L935396,440584 L935396,440584 L939460,422296 L939460,422296 L943524,393848 L943524,393848 L947588,414168 L947588,414168 L951652,436520 L951652,436520 L955716,448712 L955716,448712 L959780,418232 L959780,418232 L963844,444648 L963844,444648 L969940,464968 L969940,464968 L974004,469032 L974004,469032 L978068,469032 L978068,469032 L982132,424328 L982132,424328 L986196,448712 L986196,448712 L990260,438552 L990260,438552 L994324,444648 L994324,444648 L998388,452776 L998388,452776 L1002452,462936 L1002452,462936 L1008548,473096 L1008548,473096 L1012612,493416 L1012612,493416 L1016676,462936 L1016676,462936 L1020740,448712 L1020740,448712 L1024804,487320 L1024804,487320 L1028868,467000 L1028868,467000 L1032932,507640 L1032932,507640 L1036996,497480 L1036996,497480 L1043092,473096 L1043092,473096 L1047156,483256 L1047156,483256 L1051220,446680 L1051220,446680 L1055284,460904 L1055284,460904 L1059348,440584 L1059348,440584 L1063412,434488 L1063412,434488 L1067476,450744 L1067476,450744 L1071540,469032 L1071540,469032 L1075604,493416 L1075604,493416 L1081700,450744 L1081700,450744 L1085764,460904 L1085764,460904 L1089828,450744 L1089828,450744 L1093892,469032 L1093892,469032 L1097956,495448 L1097956,495448 L1102020,521864 L1102020,521864 L1106084,485288 L1106084,485288 L1110148,499512 L1110148,499512 L1116244,487320 L1116244,487320 L1120308,454808 L1120308,454808 L1124372,462936 L1124372,462936 L1128436,395880 L1128436,395880 L1132500,365400 L1132500,365400 L1136564,336952 L1136564,336952 L1140628,326792 L1140628,326792 L1144692,387752 L1144692,387752 L1150788,444648 L1150788,444648 L1154852,460904 L1154852,460904 L1158916,377592 L1158916,377592 L1162980,338984 L1162980,338984 L1167044,328824 L1167044,328824 L1171108,290216 L1171108,290216 L1175172,208936 L1175172,208936 L1179236,182520 L1179236,182520 L1183300,251608 L1183300,251608 L1189396,308504 L1189396,308504 L1193460,269896 L1193460,269896 L1197524,355240 L1197524,355240 L1201588,408072 L1201588,408072 L1205652,404008 L1205652,404008 L1209716,440584 L1209716,440584 L1213780,458872 L1213780,458872 L1217844,475128 L1217844,475128 L1223940,489352 L1223940,489352 L1228004,487320 L1228004,487320 L1232068,519832 L1232068,519832 L1236132,544216 L1236132,544216 L1240196,517800 L1240196,517800 L1244260,515768 L1244260,515768 L1248324,532024 L1248324,532024 L1252388,546248 L1252388,546248 L1256452,509672 L1256452,509672 L1262548,448712 L1262548,448712 L1266612,479192 L1266612,479192 L1270676,454808 L1270676,454808 L1274740,446680 L1274740,446680 L1278804,464968 L1278804,464968 L1282868,467000 L1282868,467000 L1286932,448712 L1286932,448712 L1290996,467000 L1290996,467000 L1297092,487320 L1297092,487320 L1301156,428392 L1301156,428392 L1305220,424328 L1305220,424328 L1309284,387752 L1309284,387752 L1313348,406040 L1313348,406040 L1317412,389784 L1317412,389784 L1321476,330856 L1321476,330856 L1325540,300376 L1325540,300376 L1331636,361336 L1331636,361336 L1335700,334920 L1335700,334920 L1339764,336952 L1339764,336952 L1343828,389784 L1343828,389784 L1347892,389784 L1347892,389784 L1351956,365400 L1351956,365400 L1356020,397912 L1356020,397912 L1360084,338984 L1360084,338984 L1364148,336952 L1364148,336952 L1370244,312568 L1370244,312568 L1374308,336952 L1374308,336952 L1378372,357272 L1378372,357272 L1382436,367432 L1382436,367432 L1386500,361336 L1386500,361336 L1390564,406040 L1390564,406040 L1394628,383688 L1394628,383688 L1398692,365400 L1398692,365400 L1404788,359304 L1404788,359304 L1408852,357272 L1408852,357272 L1412916,395880 L1412916,395880 L1416980,367432 L1416980,367432 L1421044,375560 L1421044,375560 L1425108,395880 L1425108,395880 L1429172,410104 L1429172,410104 L1433236,385720 L1433236,385720 L1439332,389784 L1439332,389784 L1443396,438552 L1443396,438552 L1447460,460904 L1447460,460904 L1451524,471064 L1451524,471064 L1455588,430424 L1455588,430424 L1459652,410104 L1459652,410104 L1463716,426360 L1463716,426360 L1467780,448712 L1467780,448712 L1471844,462936 L1471844,462936 L1477940,454808 L1477940,454808 L1482004,440584 L1482004,440584 L1486068,442616 L1486068,442616 L1490132,412136 L1490132,412136 L1494196,416200 L1494196,416200 L1498260,434488 L1498260,434488 L1502324,444648 L1502324,444648 L1506388,456840 L1506388,456840 L1512484,479192 L1512484,479192 L1516548,481224 L1516548,481224 L1520612,481224 L1520612,481224 L1524676,460904 L1524676,460904 L1528740,462936 L1528740,462936 L1532804,379624 L1532804,379624 L1536868,434488 L1536868,434488 L1540932,440584 L1540932,440584 L1544996,428392 L1544996,428392 L1551092,373528 L1551092,373528 L1555156,373528 L1555156,373528 L1559220,412136 L1559220,412136 L1563284,432456 L1563284,432456 L1567348,444648 L1567348,444648 L1571412,412136 L1571412,412136 L1575476,477160 L1575476,477160 L1579540,479192 L1579540,479192 L1585636,521864 L1585636,521864 L1589700,503576 L1589700,503576 L1593764,560472 L1593764,560472 L1597828,525928 L1597828,525928 L1601892,534056 L1601892,534056 L1605956,527960 L1605956,527960 L1610020,538120 L1610020,538120 L1614084,540152 L1614084,540152 L1620180,527960 L1620180,527960 L1624244,556408 L1624244,556408 L1628308,570632 L1628308,570632 L1632372,588920 L1632372,588920 L1636436,580792 L1636436,580792 L1640500,607208 L1640500,607208 L1644564,580792 L1644564,580792 L1648628,534056 L1648628,534056 L1652692,556408 L1652692,556408 L1658788,586888 L1658788,586888 L1662852,546248 L1662852,546248 L1666916,576728 L1666916,576728 L1670980,609240 L1670980,609240 L1675044,562504 L1675044,562504 L1679108,566568 L1679108,566568 L1683172,588920 L1683172,588920 L1687236,560472 L1687236,560472 L1693332,477160 L1693332,477160 L1697396,477160 L1697396,477160 L1701460,471064 L1701460,471064 L1705524,493416 L1705524,493416 L1709588,495448 L1709588,495448 L1713652,491384 L1713652,491384 L1717716,487320 L1717716,487320 L1721780,456840 L1721780,456840 L1725844,469032 L1725844,469032 L1731940,471064 L1731940,471064 L1736004,440584 L1736004,440584 L1740068,430424 L1740068,430424 L1744132,438552 L1744132,438552 L1748196,462936 L1748196,462936 L1752260,479192 L1752260,479192 L1756324,491384 L1756324,491384 L1760388,501544 L1760388,501544 L1766484,469032 L1766484,469032 L1770548,566568 L1770548,566568 L1774612,592984 L1774612,592984 L1778676,649880 L1778676,649880 L1782740,668168 L1782740,668168 L1786804,690520 L1786804,690520 L1790868,688488 L1790868,688488 L1794932,692552 L1794932,692552 L1801028,704744 L1801028,704744 L1805092,747416 L1805092,747416 L1809156,792120 L1809156,792120 L1813220,806344 L1813220,806344 L1817284,765704 L1817284,765704 L1821348,749448 L1821348,749448 L1825412,739288 L1825412,739288 L1829476,729128 L1829476,729128 L1833540,714904 L1833540,714904 L1839636,718968 L1839636,718968 L1843700,704744 L1843700,704744 L1847764,735224 L1847764,735224 L1851828,749448 L1851828,749448 L1855892,708808 L1855892,708808 L1859956,653944 L1859956,653944 L1864020,641752 L1864020,641752 L1868084,627528 L1868084,627528 L1874180,469032 L1874180,469032 L1878244,513736 L1878244,513736 L1882308,432456 L1882308,432456 L1886372,501544 L1886372,501544 L1890436,471064 L1890436,471064 L1894500,432456 L1894500,432456 L1898564,410104 L1898564,410104 L1902628,387752 L1902628,387752 L1908724,298344 L1908724,298344 L1912788,408072 L1912788,408072 L1916852,428392 L1916852,428392 L1920916,422296 L1920916,422296 L1924980,469032 L1924980,469032 L1929044,532024 L1929044,532024 L1933108,588920 L1933108,588920 L1937172,599080 L1937172,599080 L1941236,627528 L1941236,627528 L1947332,617368 L1947332,617368 L1951396,586888 L1951396,586888 L1955460,639720 L1955460,639720 L1959524,688488 L1959524,688488 L1963588,704744 L1963588,704744 L1967652,712872 L1967652,712872 L1971716,716936 L1971716,716936 L1975780,686456 L1975780,686456 L1981876,710840 L1981876,710840 L1985940,739288 L1985940,739288 L1990004,721000 L1990004,721000 L1994068,690520 L1994068,690520 L1998132,672232 L1998132,672232 L2002196,700680 L2002196,700680 L2006260,696616 L2006260,696616 L2010324,704744 L2010324,704744 L2014388,686456 L2014388,686456 L2020484,639720 L2020484,639720 L2024548,554376 L2024548,554376 L2028612,532024 L2028612,532024 L2032676,576728 L2032676,576728 L2036740,623464 L2036740,623464 L2040804,668168 L2040804,668168 L2044868,668168 L2044868,668168 L2048932,710840 L2048932,710840 L2055028,757576 L2055028,757576 L2059092,725064 L2059092,725064 L2063156,712872 L2063156,712872 L2067220,674264 L2067220,674264 L2071284,607208 L2071284,607208 L2075348,633624 L2075348,633624 L2079412,694584 L2079412,694584 L2083476,763672 L2083476,763672 L2083476,1115208 L2083476,1115208 L2079412,1115208 L2079412,1115208 L2075348,1115208 L2075348,1115208 L2071284,1115208 L2071284,1115208 L2067220,1115208 L2067220,1115208 L2063156,1115208 L2063156,1115208 L2059092,1115208 L2059092,1115208 L2055028,1115208 L2055028,1115208 L2048932,1115208 L2048932,1115208 L2044868,1115208 L2044868,1115208 L2040804,1115208 L2040804,1115208 L2036740,1115208 L2036740,1115208 L2032676,1115208 L2032676,1115208 L2028612,1115208 L2028612,1115208 L2024548,1115208 L2024548,1115208 L2020484,1115208 L2020484,1115208 L2014388,1115208 L2014388,1115208 L2010324,1115208 L2010324,1115208 L2006260,1115208 L2006260,1115208 L2002196,1115208 L2002196,1115208 L1998132,1115208 L1998132,1115208 L1994068,1115208 L1994068,1115208 L1990004,1115208 L1990004,1115208 L1985940,1115208 L1985940,1115208 L1981876,1115208 L1981876,1115208 L1975780,1115208 L1975780,1115208 L1971716,1115208 L1971716,1115208 L1967652,1115208 L1967652,1115208 L1963588,1115208 L1963588,1115208 L1959524,1115208 L1959524,1115208 L1955460,1115208 L1955460,1115208 L1951396,1115208 L1951396,1115208 L1947332,1115208 L1947332,1115208 L1941236,1115208 L1941236,1115208 L1937172,1115208 L1937172,1115208 L1933108,1115208 L1933108,1115208 L1929044,1115208 L1929044,1115208 L1924980,1115208 L1924980,1115208 L1920916,1115208 L1920916,1115208 L1916852,1115208 L1916852,1115208 L1912788,1115208 L1912788,1115208 L1908724,1115208 L1908724,1115208 L1902628,1115208 L1902628,1115208 L1898564,1115208 L1898564,1115208 L1894500,1115208 L1894500,1115208 L1890436,1115208 L1890436,1115208 L1886372,1115208 L1886372,1115208 L1882308,1115208 L1882308,1115208 L1878244,1115208 L1878244,1115208 L1874180,1115208 L1874180,1115208 L1868084,1115208 L1868084,1115208 L1864020,1115208 L1864020,1115208 L1859956,1115208 L1859956,1115208 L1855892,1115208 L1855892,1115208 L1851828,1115208 L1851828,1115208 L1847764,1115208 L1847764,1115208 L1843700,1115208 L1843700,1115208 L1839636,1115208 L1839636,1115208 L1833540,1115208 L1833540,1115208 L1829476,1115208 L1829476,1115208 L1825412,1115208 L1825412,1115208 L1821348,1115208 L1821348,1115208 L1817284,1115208 L1817284,1115208 L1813220,1115208 L1813220,1115208 L1809156,1115208 L1809156,1115208 L1805092,1115208 L1805092,1115208 L1801028,1115208 L1801028,1115208 L1794932,1115208 L1794932,1115208 L1790868,1115208 L1790868,1115208 L1786804,1115208 L1786804,1115208 L1782740,1115208 L1782740,1115208 L1778676,1115208 L1778676,1115208 L1774612,1115208 L1774612,1115208 L1770548,1115208 L1770548,1115208 L1766484,1115208 L1766484,1115208 L1760388,1115208 L1760388,1115208 L1756324,1115208 L1756324,1115208 L1752260,1115208 L1752260,1115208 L1748196,1115208 L1748196,1115208 L1744132,1115208 L1744132,1115208 L1740068,1115208 L1740068,1115208 L1736004,1115208 L1736004,1115208 L1731940,1115208 L1731940,1115208 L1725844,1115208 L1725844,1115208 L1721780,1115208 L1721780,1115208 L1717716,1115208 L1717716,1115208 L1713652,1115208 L1713652,1115208 L1709588,1115208 L1709588,1115208 L1705524,1115208 L1705524,1115208 L1701460,1115208 L1701460,1115208 L1697396,1115208 L1697396,1115208 L1693332,1115208 L1693332,1115208 L1687236,1115208 L1687236,1115208 L1683172,1115208 L1683172,1115208 L1679108,1115208 L1679108,1115208 L1675044,1115208 L1675044,1115208 L1670980,1115208 L1670980,1115208 L1666916,1115208 L1666916,1115208 L1662852,1115208 L1662852,1115208 L1658788,1115208 L1658788,1115208 L1652692,1115208 L1652692,1115208 L1648628,1115208 L1648628,1115208 L1644564,1115208 L1644564,1115208 L1640500,1115208 L1640500,1115208 L1636436,1115208 L1636436,1115208 L1632372,1115208 L1632372,1115208 L1628308,1115208 L1628308,1115208 L1624244,1115208 L1624244,1115208 L1620180,1115208 L1620180,1115208 L1614084,1115208 L1614084,1115208 L1610020,1115208 L1610020,1115208 L1605956,1115208 L1605956,1115208 L1601892,1115208 L1601892,1115208 L1597828,1115208 L1597828,1115208 L1593764,1115208 L1593764,1115208 L1589700,1115208 L1589700,1115208 L1585636,1115208 L1585636,1115208 L1579540,1115208 L1579540,1115208 L1575476,1115208 L1575476,1115208 L1571412,1115208 L1571412,1115208 L1567348,1115208 L1567348,1115208 L1563284,1115208 L1563284,1115208 L1559220,1115208 L1559220,1115208 L1555156,1115208 L1555156,1115208 L1551092,1115208 L1551092,1115208 L1544996,1115208 L1544996,1115208 L1540932,1115208 L1540932,1115208 L1536868,1115208 L1536868,1115208 L1532804,1115208 L1532804,1115208 L1528740,1115208 L1528740,1115208 L1524676,1115208 L1524676,1115208 L1520612,1115208 L1520612,1115208 L1516548,1115208 L1516548,1115208 L1512484,1115208 L1512484,1115208 L1506388,1115208 L1506388,1115208 L1502324,1115208 L1502324,1115208 L1498260,1115208 L1498260,1115208 L1494196,1115208 L1494196,1115208 L1490132,1115208 L1490132,1115208 L1486068,1115208 L1486068,1115208 L1482004,1115208 L1482004,1115208 L1477940,1115208 L1477940,1115208 L1471844,1115208 L1471844,1115208 L1467780,1115208 L1467780,1115208 L1463716,1115208 L1463716,1115208 L1459652,1115208 L1459652,1115208 L1455588,1115208 L1455588,1115208 L1451524,1115208 L1451524,1115208 L1447460,1115208 L1447460,1115208 L1443396,1115208 L1443396,1115208 L1439332,1115208 L1439332,1115208 L1433236,1115208 L1433236,1115208 L1429172,1115208 L1429172,1115208 L1425108,1115208 L1425108,1115208 L1421044,1115208 L1421044,1115208 L1416980,1115208 L1416980,1115208 L1412916,1115208 L1412916,1115208 L1408852,1115208 L1408852,1115208 L1404788,1115208 L1404788,1115208 L1398692,1115208 L1398692,1115208 L1394628,1115208 L1394628,1115208 L1390564,1115208 L1390564,1115208 L1386500,1115208 L1386500,1115208 L1382436,1115208 L1382436,1115208 L1378372,1115208 L1378372,1115208 L1374308,1115208 L1374308,1115208 L1370244,1115208 L1370244,1115208 L1364148,1115208 L1364148,1115208 L1360084,1115208 L1360084,1115208 L1356020,1115208 L1356020,1115208 L1351956,1115208 L1351956,1115208 L1347892,1115208 L1347892,1115208 L1343828,1115208 L1343828,1115208 L1339764,1115208 L1339764,1115208 L1335700,1115208 L1335700,1115208 L1331636,1115208 L1331636,1115208 L1325540,1115208 L1325540,1115208 L1321476,1115208 L1321476,1115208 L1317412,1115208 L1317412,1115208 L1313348,1115208 L1313348,1115208 L1309284,1115208 L1309284,1115208 L1305220,1115208 L1305220,1115208 L1301156,1115208 L1301156,1115208 L1297092,1115208 L1297092,1115208 L1290996,1115208 L1290996,1115208 L1286932,1115208 L1286932,1115208 L1282868,1115208 L1282868,1115208 L1278804,1115208 L1278804,1115208 L1274740,1115208 L1274740,1115208 L1270676,1115208 L1270676,1115208 L1266612,1115208 L1266612,1115208 L1262548,1115208 L1262548,1115208 L1256452,1115208 L1256452,1115208 L1252388,1115208 L1252388,1115208 L1248324,1115208 L1248324,1115208 L1244260,1115208 L1244260,1115208 L1240196,1115208 L1240196,1115208 L1236132,1115208 L1236132,1115208 L1232068,1115208 L1232068,1115208 L1228004,1115208 L1228004,1115208 L1223940,1115208 L1223940,1115208 L1217844,1115208 L1217844,1115208 L1213780,1115208 L1213780,1115208 L1209716,1115208 L1209716,1115208 L1205652,1115208 L1205652,1115208 L1201588,1115208 L1201588,1115208 L1197524,1115208 L1197524,1115208 L1193460,1115208 L1193460,1115208 L1189396,1115208 L1189396,1115208 L1183300,1115208 L1183300,1115208 L1179236,1115208 L1179236,1115208 L1175172,1115208 L1175172,1115208 L1171108,1115208 L1171108,1115208 L1167044,1115208 L1167044,1115208 L1162980,1115208 L1162980,1115208 L1158916,1115208 L1158916,1115208 L1154852,1115208 L1154852,1115208 L1150788,1115208 L1150788,1115208 L1144692,1115208 L1144692,1115208 L1140628,1115208 L1140628,1115208 L1136564,1115208 L1136564,1115208 L1132500,1115208 L1132500,1115208 L1128436,1115208 L1128436,1115208 L1124372,1115208 L1124372,1115208 L1120308,1115208 L1120308,1115208 L1116244,1115208 L1116244,1115208 L1110148,1115208 L1110148,1115208 L1106084,1115208 L1106084,1115208 L1102020,1115208 L1102020,1115208 L1097956,1115208 L1097956,1115208 L1093892,1115208 L1093892,1115208 L1089828,1115208 L1089828,1115208 L1085764,1115208 L1085764,1115208 L1081700,1115208 L1081700,1115208 L1075604,1115208 L1075604,1115208 L1071540,1115208 L1071540,1115208 L1067476,1115208 L1067476,1115208 L1063412,1115208 L1063412,1115208 L1059348,1115208 L1059348,1115208 L1055284,1115208 L1055284,1115208 L1051220,1115208 L1051220,1115208 L1047156,1115208 L1047156,1115208 L1043092,1115208 L1043092,1115208 L1036996,1115208 L1036996,1115208 L1032932,1115208 L1032932,1115208 L1028868,1115208 L1028868,1115208 L1024804,1115208 L1024804,1115208 L1020740,1115208 L1020740,1115208 L1016676,1115208 L1016676,1115208 L1012612,1115208 L1012612,1115208 L1008548,1115208 L1008548,1115208 L1002452,1115208 L1002452,1115208 L998388,1115208 L998388,1115208 L994324,1115208 L994324,1115208 L990260,1115208 L990260,1115208 L986196,1115208 L986196,1115208 L982132,1115208 L982132,1115208 L978068,1115208 L978068,1115208 L974004,1115208 L974004,1115208 L969940,1115208 L969940,1115208 L963844,1115208 L963844,1115208 L959780,1115208 L959780,1115208 L955716,1115208 L955716,1115208 L951652,1115208 L951652,1115208 L947588,1115208 L947588,1115208 L943524,1115208 L943524,1115208 L939460,1115208 L939460,1115208 L935396,1115208 L935396,1115208 L929300,1115208 L929300,1115208 L925236,1115208 L925236,1115208 L921172,1115208 L921172,1115208 L917108,1115208 L917108,1115208 L913044,1115208 L913044,1115208 L908980,1115208 L908980,1115208 L904916,1115208 L904916,1115208 L900852,1115208 L900852,1115208 L894756,1115208 L894756,1115208 L890692,1115208 L890692,1115208 L886628,1115208 L886628,1115208 L882564,1115208 L882564,1115208 L878500,1115208 L878500,1115208 L874436,1115208 L874436,1115208 L870372,1115208 L870372,1115208 L866308,1115208 L866308,1115208 L862244,1115208 L862244,1115208 L856148,1115208 L856148,1115208 L852084,1115208 L852084,1115208 L848020,1115208 L848020,1115208 L843956,1115208 L843956,1115208 L839892,1115208 L839892,1115208 L835828,1115208 L835828,1115208 L831764,1115208 L831764,1115208 L827700,1115208 L827700,1115208 L821604,1115208 L821604,1115208 L817540,1115208 L817540,1115208 L813476,1115208 L813476,1115208 L809412,1115208 L809412,1115208 L805348,1115208 L805348,1115208 L801284,1115208 L801284,1115208 L797220,1115208 L797220,1115208 L793156,1115208 L793156,1115208 L787060,1115208 L787060,1115208 L782996,1115208 L782996,1115208 L778932,1115208 L778932,1115208 L774868,1115208 L774868,1115208 L770804,1115208 L770804,1115208 L766740,1115208 L766740,1115208 L762676,1115208 L762676,1115208 L758612,1115208 L758612,1115208 L754548,1115208 L754548,1115208 L748452,1115208 L748452,1115208 L744388,1115208 L744388,1115208 L740324,1115208 L740324,1115208 L736260,1115208 L736260,1115208 L732196,1115208 L732196,1115208 L728132,1115208 L728132,1115208 L724068,1115208 L724068,1115208 L720004,1115208 L720004,1115208 L713908,1115208 L713908,1115208 L709844,1115208 L709844,1115208 L705780,1115208 L705780,1115208 L701716,1115208 L701716,1115208 L697652,1115208 L697652,1115208 L693588,1115208 L693588,1115208 L689524,1115208 L689524,1115208 L685460,1115208 L685460,1115208 L681396,1115208 L681396,1115208 L675300,1115208 L675300,1115208 L671236,1115208 L671236,1115208 L667172,1115208 L667172,1115208 L663108,1115208 L663108,1115208 L659044,1115208 L659044,1115208 L654980,1115208 L654980,1115208 L650916,1115208 L650916,1115208 L646852,1115208 L646852,1115208 L640756,1115208 L640756,1115208 L636692,1115208 L636692,1115208 L632628,1115208 L632628,1115208 L628564,1115208 L628564,1115208 L624500,1115208 L624500,1115208 L620436,1115208 L620436,1115208 L616372,1115208 L616372,1115208 L612308,1115208 L612308,1115208 L606212,1115208 L606212,1115208 L602148,1115208 L602148,1115208 L598084,1115208 L598084,1115208 L594020,1115208 L594020,1115208 L589956,1115208 L589956,1115208 L585892,1115208 L585892,1115208 L581828,1115208 L581828,1115208 L577764,1115208 L577764,1115208 L573700,1115208 L573700,1115208 L567604,1115208 L567604,1115208 L563540,1115208 L563540,1115208 L559476,1115208 L559476,1115208 L555412,1115208 L555412,1115208 L551348,1115208 L551348,1115208 L547284,1115208 L547284,1115208 L543220,1115208 L543220,1115208 L539156,1115208 L539156,1115208 L533060,1115208 L533060,1115208 L528996,1115208 L528996,1115208 L524932,1115208 L524932,1115208 L520868,1115208 L520868,1115208 L516804,1115208 L516804,1115208 L512740,1115208 L512740,1115208 L508676,1115208 L508676,1115208 L504612,1115208 L504612,1115208 L500548,1115208 L500548,1115208 L494452,1115208 L494452,1115208 L490388,1115208 L490388,1115208 L486324,1115208 L486324,1115208 L482260,1115208 L482260,1115208 L478196,1115208 L478196,1115208 L474132,1115208 L474132,1115208 L470068,1115208 L470068,1115208 L466004,1115208 L466004,1115208 L459908,1115208 L459908,1115208 L455844,1115208 L455844,1115208 L451780,1115208 L451780,1115208 L447716,1115208 L447716,1115208 L443652,1115208 L443652,1115208 L439588,1115208 L439588,1115208 L435524,1115208 L435524,1115208 L431460,1115208 L431460,1115208 L425364,1115208 L425364,1115208 L421300,1115208 L421300,1115208 L417236,1115208 L417236,1115208 L413172,1115208 L413172,1115208 L409108,1115208 L409108,1115208 L405044,1115208 L405044,1115208 L400980,1115208 L400980,1115208 L396916,1115208 L396916,1115208 L392852,1115208 L392852,1115208 L386756,1115208 L386756,1115208 L382692,1115208 L382692,1115208 L378628,1115208 L378628,1115208 L374564,1115208 L374564,1115208 L370500,1115208 L370500,1115208 L366436,1115208 L366436,1115208 L362372,1115208 L362372,1115208 L358308,1115208 L358308,1115208 L352212,1115208 L352212,1115208 L348148,1115208 L348148,1115208 L344084,1115208 L344084,1115208 L340020,1115208 L340020,1115208 L335956,1115208 L335956,1115208 L331892,1115208 L331892,1115208 L327828,1115208 L327828,1115208 L323764,1115208 L323764,1115208 L317668,1115208 L317668,1115208 L313604,1115208 L313604,1115208 L309540,1115208 L309540,1115208 L305476,1115208 L305476,1115208 L301412,1115208 L301412,1115208 L297348,1115208 L297348,1115208 L293284,1115208 L293284,1115208 L289220,1115208 L289220,1115208 L285156,1115208 L285156,1115208 L279060,1115208 L279060,1115208 L274996,1115208 L274996,1115208 L270932,1115208 L270932,1115208 L266868,1115208 L266868,1115208 L262804,1115208 L262804,1115208 L258740,1115208 L258740,1115208 L254676,1115208 L254676,1115208 L250612,1115208 L250612,1115208 L244516,1115208 L244516,1115208 L240452,1115208 L240452,1115208 L236388,1115208 L236388,1115208 L232324,1115208 L232324,1115208 L228260,1115208 L228260,1115208 L224196,1115208 L224196,1115208 L220132,1115208 L220132,1115208 L216068,1115208 L216068,1115208 L212004,1115208 L212004,1115208 L205908,1115208 L205908,1115208 L201844,1115208 L201844,1115208 L197780,1115208 L197780,1115208 L193716,1115208 L193716,1115208 L189652,1115208 L189652,1115208 L185588,1115208 L185588,1115208 L181524,1115208 L181524,1115208 L177460,1115208 L177460,1115208 L171364,1115208 L171364,1115208 L167300,1115208 L167300,1115208 L163236,1115208 L163236,1115208 L159172,1115208 L159172,1115208 L155108,1115208 L155108,1115208 L151044,1115208 L151044,1115208 L146980,1115208 L146980,1115208 L142916,1115208 L142916,1115208 L136820,1115208 L136820,1115208 L132756,1115208 L132756,1115208 L128692,1115208 L128692,1115208 L124628,1115208 L124628,1115208 L120564,1115208 L120564,1115208 L116500,1115208 L116500,1115208 L112436,1115208 L112436,1115208 L108372,1115208 L108372,1115208 L104308,1115208 L104308,1115208 L98212,1115208 L98212,1115208 L94148,1115208 L94148,1115208 L90084,1115208 L90084,1115208 L86020,1115208 L86020,1115208 L81956,1115208 L81956,1115208 L77892,1115208 L77892,1115208 L73828,1115208 L73828,1115208 L69764,1115208 L69764,1115208 L63668,1115208 L63668,1115208 L59604,1115208 L59604,1115208 L55540,1115208 L55540,1115208 L51476,1115208 L51476,1115208 L47412,1115208 L47412,1115208 L43348,1115208 L43348,1115208 L39284,1115208 L39284,1115208 L35220,1115208 L35220,1115208 L31156,1115208 L31156,1115208 L25060,1115208 L25060,1115208 L20996,1115208 L20996,1115208 L16932,1115208 L16932,1115208 L12868,1115208 L12868,1115208 L8804,1115208 L8804,1115208 L4740,1115208 L4740,1115208 L676,1115208 Z" fill="#012169" fill-rule="nonzero" /></g></g><g clip-path="url(#clip008)"><g transform="matrix(0.000656168,0,0,0.000656168,202.6667,912)"><g><path d="M0.004361574,-6773.333 L2070608,-6772 " stroke-width="3386.667" stroke-linejoin="round" stroke-miterlimit="13.33333" stroke="#000000" fill="none" fill-rule="evenodd" /><path d="M-0.002180787,3386.667 L2070608,3388 " stroke-width="10160" stroke-linejoin="round" stroke-miterlimit="13.33333" stroke="#000000" fill="none" fill-rule="evenodd" /></g></g></g><g clip-path="url(#clip009)"><g transform="matrix(0.000656168,0,0,0.000656168,202.2231,94.63955)"><path d="M-340,1155233 L3724,1120689 L3724,1120689 L7788,1090209 L7788,1090209 L13884,1057697 L13884,1057697 L17948,1004865 L17948,1004865 L22012,980481.3 L22012,980481.3 L26076,1012993 L26076,1012993 L30140,998769.3 L30140,998769.3 L34204,1086145 L34204,1086145 L38268,1025185 L38268,1025185 L42332,1015025 L42332,1015025 L46396,964225.3 L46396,964225.3 L52492,913425.3 L52492,913425.3 L56556,895137.3 L56556,895137.3 L60620,899201.3 L60620,899201.3 L64684,931713.3 L64684,931713.3 L68748,919521.3 L68748,919521.3 L72812,866689.3 L72812,866689.3 L76876,842305.3 L76876,842305.3 L80940,799633.3 L80940,799633.3 L87036,789473.3 L87036,789473.3 L91100,950001.3 L91100,950001.3 L95164,1008929 L95164,1008929 L99228,1000801 L99228,1000801 L103292,972353.3 L103292,972353.3 L107356,950001.3 L107356,950001.3 L111420,992673.3 L111420,992673.3 L115484,1021121 L115484,1021121 L121580,1035345 L121580,1035345 L125644,1082081 L125644,1082081 L129708,1073953 L129708,1073953 L133772,1078017 L133772,1078017 L137836,1104433 L137836,1104433 L141900,1108497 L141900,1108497 L145964,1120689 L145964,1120689 L150028,1053633 L150028,1053633 L154092,976417.3 L154092,976417.3 L160188,998769.3 L160188,998769.3 L164252,964225.3 L164252,964225.3 L168316,952033.3 L168316,952033.3 L172380,903265.3 L172380,903265.3 L176444,927649.3 L176444,927649.3 L180508,787441.3 L180508,787441.3 L184572,807761.3 L184572,807761.3 L188636,824017.3 L188636,824017.3 L194732,819953.3 L194732,819953.3 L198796,803697.3 L198796,803697.3 L202860,830113.3 L202860,830113.3 L206924,911393.3 L206924,911393.3 L210988,915457.3 L210988,915457.3 L215052,884977.3 L215052,884977.3 L219116,868721.3 L219116,868721.3 L223180,781345.3 L223180,781345.3 L227244,775249.3 L227244,775249.3 L233340,767121.3 L233340,767121.3 L237404,830113.3 L237404,830113.3 L241468,884977.3 L241468,884977.3 L245532,862625.3 L245532,862625.3 L249596,809793.3 L249596,809793.3 L253660,828081.3 L253660,828081.3 L257724,803697.3 L257724,803697.3 L261788,732577.3 L261788,732577.3 L267884,716321.3 L267884,716321.3 L271948,738673.3 L271948,738673.3 L276012,714289.3 L276012,714289.3 L280076,767121.3 L280076,767121.3 L284140,724449.3 L284140,724449.3 L288204,665521.3 L288204,665521.3 L292268,756961.3 L292268,756961.3 L296332,736641.3 L296332,736641.3 L302428,722417.3 L302428,722417.3 L306492,580177.3 L306492,580177.3 L310556,639105.3 L310556,639105.3 L314620,635041.3 L314620,635041.3 L318684,657393.3 L318684,657393.3 L322748,657393.3 L322748,657393.3 L326812,665521.3 L326812,665521.3 L330876,734609.3 L330876,734609.3 L334940,681777.3 L334940,681777.3 L341036,663489.3 L341036,663489.3 L345100,633009.3 L345100,633009.3 L349164,624881.3 L349164,624881.3 L353228,604561.3 L353228,604561.3 L357292,600497.3 L357292,600497.3 L361356,616753.3 L361356,616753.3 L365420,639105.3 L365420,639105.3 L369484,698033.3 L369484,698033.3 L375580,793537.3 L375580,793537.3 L379644,781345.3 L379644,781345.3 L383708,765089.3 L383708,765089.3 L387772,815889.3 L387772,815889.3 L391836,793537.3 L391836,793537.3 L395900,858561.3 L395900,858561.3 L399964,826049.3 L399964,826049.3 L404028,813857.3 L404028,813857.3 L408092,828081.3 L408092,828081.3 L414188,832145.3 L414188,832145.3 L418252,826049.3 L418252,826049.3 L422316,856529.3 L422316,856529.3 L426380,864657.3 L426380,864657.3 L430444,882945.3 L430444,882945.3 L434508,915457.3 L434508,915457.3 L438572,876849.3 L438572,876849.3 L442636,815889.3 L442636,815889.3 L448732,840273.3 L448732,840273.3 L452796,817921.3 L452796,817921.3 L456860,834177.3 L456860,834177.3 L460924,860593.3 L460924,860593.3 L464988,842305.3 L464988,842305.3 L469052,824017.3 L469052,824017.3 L473116,785409.3 L473116,785409.3 L477180,742737.3 L477180,742737.3 L483276,693969.3 L483276,693969.3 L487340,679745.3 L487340,679745.3 L491404,700065.3 L491404,700065.3 L495468,718353.3 L495468,718353.3 L499532,655361.3 L499532,655361.3 L503596,643169.3 L503596,643169.3 L507660,584241.3 L507660,584241.3 L511724,598465.3 L511724,598465.3 L515788,590337.3 L515788,590337.3 L521884,576113.3 L521884,576113.3 L525948,578145.3 L525948,578145.3 L530012,618785.3 L530012,618785.3 L534076,561889.3 L534076,561889.3 L538140,570017.3 L538140,570017.3 L542204,604561.3 L542204,604561.3 L546268,594401.3 L546268,594401.3 L550332,580177.3 L550332,580177.3 L556428,584241.3 L556428,584241.3 L560492,543601.3 L560492,543601.3 L564556,596433.3 L564556,596433.3 L568620,559857.3 L568620,559857.3 L572684,507025.3 L572684,507025.3 L576748,588305.3 L576748,588305.3 L580812,502961.3 L580812,502961.3 L584876,427777.3 L584876,427777.3 L590972,435905.3 L590972,435905.3 L595036,391201.3 L595036,391201.3 L599100,515153.3 L599100,515153.3 L603164,468417.3 L603164,468417.3 L607228,521249.3 L607228,521249.3 L611292,435905.3 L611292,435905.3 L615356,448097.3 L615356,448097.3 L619420,482641.3 L619420,482641.3 L623484,401361.3 L623484,401361.3 L629580,305857.3 L629580,305857.3 L633644,334305.3 L633644,334305.3 L637708,297729.3 L637708,297729.3 L641772,212385.3 L641772,212385.3 L645836,257089.3 L645836,257089.3 L649900,413553.3 L649900,413553.3 L653964,442001.3 L653964,442001.3 L658028,234737.3 L658028,234737.3 L664124,165649.3 L664124,165649.3 L668188,-974.6667 L668188,-974.6667 L672252,53889.33 L672252,53889.33 L676316,116881.3 L676316,116881.3 L680380,206289.3 L680380,206289.3 L684444,185969.3 L684444,185969.3 L688508,208321.3 L688508,208321.3 L692572,273345.3 L692572,273345.3 L696636,334305.3 L696636,334305.3 L702732,346497.3 L702732,346497.3 L706796,466385.3 L706796,466385.3 L710860,368849.3 L710860,368849.3 L714924,328209.3 L714924,328209.3 L718988,322113.3 L718988,322113.3 L723052,464353.3 L723052,464353.3 L727116,580177.3 L727116,580177.3 L731180,578145.3 L731180,578145.3 L737276,570017.3 L737276,570017.3 L741340,492801.3 L741340,492801.3 L745404,399329.3 L745404,399329.3 L749468,442001.3 L749468,442001.3 L753532,519217.3 L753532,519217.3 L757596,486705.3 L757596,486705.3 L761660,401361.3 L761660,401361.3 L765724,303825.3 L765724,303825.3 L771820,285537.3 L771820,285537.3 L775884,342433.3 L775884,342433.3 L779948,368849.3 L779948,368849.3 L784012,372913.3 L784012,372913.3 L788076,358689.3 L788076,358689.3 L792140,342433.3 L792140,342433.3 L796204,439969.3 L796204,439969.3 L800268,423713.3 L800268,423713.3 L804332,452161.3 L804332,452161.3 L810428,502961.3 L810428,502961.3 L814492,494833.3 L814492,494833.3 L818556,460289.3 L818556,460289.3 L822620,458257.3 L822620,458257.3 L826684,442001.3 L826684,442001.3 L830748,411521.3 L830748,411521.3 L834812,431841.3 L834812,431841.3 L838876,482641.3 L838876,482641.3 L844972,496865.3 L844972,496865.3 L849036,598465.3 L849036,598465.3 L853100,669585.3 L853100,669585.3 L857164,641137.3 L857164,641137.3 L861228,744769.3 L861228,744769.3 L865292,691937.3 L865292,691937.3 L869356,716321.3 L869356,716321.3 L873420,718353.3 L873420,718353.3 L879516,775249.3 L879516,775249.3 L883580,789473.3 L883580,789473.3 L887644,777281.3 L887644,777281.3 L891708,736641.3 L891708,736641.3 L895772,679745.3 L895772,679745.3 L899836,633009.3 L899836,633009.3 L903900,647233.3 L903900,647233.3 L907964,643169.3 L907964,643169.3 L912028,673649.3 L912028,673649.3 L918124,637073.3 L918124,637073.3 L922188,626913.3 L922188,626913.3 L926252,641137.3 L926252,641137.3 L930316,667553.3 L930316,667553.3 L934380,606593.3 L934380,606593.3 L938444,618785.3 L938444,618785.3 L942508,600497.3 L942508,600497.3 L946572,612689.3 L946572,612689.3 L952668,643169.3 L952668,643169.3 L956732,693969.3 L956732,693969.3 L960796,673649.3 L960796,673649.3 L964860,710225.3 L964860,710225.3 L968924,716321.3 L968924,716321.3 L972988,685841.3 L972988,685841.3 L977052,673649.3 L977052,673649.3 L981116,657393.3 L981116,657393.3 L985180,655361.3 L985180,655361.3 L991276,659425.3 L991276,659425.3 L995340,693969.3 L995340,693969.3 L999404,673649.3 L999404,673649.3 L1003468,696001.3 L1003468,696001.3 L1007532,667553.3 L1007532,667553.3 L1011596,696001.3 L1011596,696001.3 L1015660,673649.3 L1015660,673649.3 L1019724,691937.3 L1019724,691937.3 L1025820,696001.3 L1025820,696001.3 L1029884,673649.3 L1029884,673649.3 L1033948,691937.3 L1033948,691937.3 L1038012,685841.3 L1038012,685841.3 L1042076,669585.3 L1042076,669585.3 L1046140,677713.3 L1046140,677713.3 L1050204,671617.3 L1050204,671617.3 L1054268,702097.3 L1054268,702097.3 L1060364,685841.3 L1060364,685841.3 L1064428,655361.3 L1064428,655361.3 L1068492,675681.3 L1068492,675681.3 L1072556,667553.3 L1072556,667553.3 L1076620,675681.3 L1076620,675681.3 L1080684,653329.3 L1080684,653329.3 L1084748,647233.3 L1084748,647233.3 L1088812,661457.3 L1088812,661457.3 L1092876,673649.3 L1092876,673649.3 L1098972,657393.3 L1098972,657393.3 L1103036,653329.3 L1103036,653329.3 L1107100,651297.3 L1107100,651297.3 L1111164,691937.3 L1111164,691937.3 L1115228,669585.3 L1115228,669585.3 L1119292,628945.3 L1119292,628945.3 L1123356,616753.3 L1123356,616753.3 L1127420,588305.3 L1127420,588305.3 L1133516,622849.3 L1133516,622849.3 L1137580,675681.3 L1137580,675681.3 L1141644,683809.3 L1141644,683809.3 L1145708,781345.3 L1145708,781345.3 L1149772,799633.3 L1149772,799633.3 L1153836,793537.3 L1153836,793537.3 L1157900,781345.3 L1157900,781345.3 L1161964,769153.3 L1161964,769153.3 L1166028,742737.3 L1166028,742737.3 L1172124,799633.3 L1172124,799633.3 L1176188,884977.3 L1176188,884977.3 L1180252,911393.3 L1180252,911393.3 L1184316,929681.3 L1184316,929681.3 L1188380,1010961 L1188380,1010961 L1192444,1057697 L1192444,1057697 L1196508,1029249 L1196508,1029249 L1200572,1010961 L1200572,1010961 L1206668,982513.3 L1206668,982513.3 L1210732,1002833 L1210732,1002833 L1214796,964225.3 L1214796,964225.3 L1218860,964225.3 L1218860,964225.3 L1222924,945937.3 L1222924,945937.3 L1226988,960161.3 L1226988,960161.3 L1231052,943905.3 L1231052,943905.3 L1235116,960161.3 L1235116,960161.3 L1241212,974385.3 L1241212,974385.3 L1245276,952033.3 L1245276,952033.3 L1249340,945937.3 L1249340,945937.3 L1253404,943905.3 L1253404,943905.3 L1257468,974385.3 L1257468,974385.3 L1261532,984545.3 L1261532,984545.3 L1265596,958129.3 L1265596,958129.3 L1269660,970321.3 L1269660,970321.3 L1273724,905297.3 L1273724,905297.3 L1279820,887009.3 L1279820,887009.3 L1283884,893105.3 L1283884,893105.3 L1287948,846369.3 L1287948,846369.3 L1292012,846369.3 L1292012,846369.3 L1296076,834177.3 L1296076,834177.3 L1300140,795569.3 L1300140,795569.3 L1304204,761025.3 L1304204,761025.3 L1308268,740705.3 L1308268,740705.3 L1314364,805729.3 L1314364,805729.3 L1318428,813857.3 L1318428,813857.3 L1322492,811825.3 L1322492,811825.3 L1326556,882945.3 L1326556,882945.3 L1330620,850433.3 L1330620,850433.3 L1334684,832145.3 L1334684,832145.3 L1338748,842305.3 L1338748,842305.3 L1342812,850433.3 L1342812,850433.3 L1348908,821985.3 L1348908,821985.3 L1352972,787441.3 L1352972,787441.3 L1357036,817921.3 L1357036,817921.3 L1361100,824017.3 L1361100,824017.3 L1365164,789473.3 L1365164,789473.3 L1369228,752897.3 L1369228,752897.3 L1373292,758993.3 L1373292,758993.3 L1377356,754929.3 L1377356,754929.3 L1381420,791505.3 L1381420,791505.3 L1387516,783377.3 L1387516,783377.3 L1391580,838241.3 L1391580,838241.3 L1395644,783377.3 L1395644,783377.3 L1399708,756961.3 L1399708,756961.3 L1403772,716321.3 L1403772,716321.3 L1407836,700065.3 L1407836,700065.3 L1411900,724449.3 L1411900,724449.3 L1415964,724449.3 L1415964,724449.3 L1422060,689905.3 L1422060,689905.3 L1426124,738673.3 L1426124,738673.3 L1430188,736641.3 L1430188,736641.3 L1434252,663489.3 L1434252,663489.3 L1438316,645201.3 L1438316,645201.3 L1442380,689905.3 L1442380,689905.3 L1446444,744769.3 L1446444,744769.3 L1450508,714289.3 L1450508,714289.3 L1454572,685841.3 L1454572,685841.3 L1460668,651297.3 L1460668,651297.3 L1464732,645201.3 L1464732,645201.3 L1468796,649265.3 L1468796,649265.3 L1472860,681777.3 L1472860,681777.3 L1476924,639105.3 L1476924,639105.3 L1480988,651297.3 L1480988,651297.3 L1485052,635041.3 L1485052,635041.3 L1489116,576113.3 L1489116,576113.3 L1495212,594401.3 L1495212,594401.3 L1499276,643169.3 L1499276,643169.3 L1503340,602529.3 L1503340,602529.3 L1507404,620817.3 L1507404,620817.3 L1511468,633009.3 L1511468,633009.3 L1515532,630977.3 L1515532,630977.3 L1519596,663489.3 L1519596,663489.3 L1523660,624881.3 L1523660,624881.3 L1529756,691937.3 L1529756,691937.3 L1533820,618785.3 L1533820,618785.3 L1537884,588305.3 L1537884,588305.3 L1541948,598465.3 L1541948,598465.3 L1546012,604561.3 L1546012,604561.3 L1550076,594401.3 L1550076,594401.3 L1554140,598465.3 L1554140,598465.3 L1558204,561889.3 L1558204,561889.3 L1562268,590337.3 L1562268,590337.3 L1568364,586273.3 L1568364,586273.3 L1572428,525313.3 L1572428,525313.3 L1576492,563921.3 L1576492,563921.3 L1580556,578145.3 L1580556,578145.3 L1584620,633009.3 L1584620,633009.3 L1588684,639105.3 L1588684,639105.3 L1592748,691937.3 L1592748,691937.3 L1596812,641137.3 L1596812,641137.3 L1602908,628945.3 L1602908,628945.3 L1606972,584241.3 L1606972,584241.3 L1611036,602529.3 L1611036,602529.3 L1615100,596433.3 L1615100,596433.3 L1619164,565953.3 L1619164,565953.3 L1623228,618785.3 L1623228,618785.3 L1627292,614721.3 L1627292,614721.3 L1631356,639105.3 L1631356,639105.3 L1635420,626913.3 L1635420,626913.3 L1641516,639105.3 L1641516,639105.3 L1645580,580177.3 L1645580,580177.3 L1649644,543601.3 L1649644,543601.3 L1653708,513121.3 L1653708,513121.3 L1657772,604561.3 L1657772,604561.3 L1661836,598465.3 L1661836,598465.3 L1665900,635041.3 L1665900,635041.3 L1669964,651297.3 L1669964,651297.3 L1676060,626913.3 L1676060,626913.3 L1680124,600497.3 L1680124,600497.3 L1684188,596433.3 L1684188,596433.3 L1688252,590337.3 L1688252,590337.3 L1692316,578145.3 L1692316,578145.3 L1696380,563921.3 L1696380,563921.3 L1700444,681777.3 L1700444,681777.3 L1704508,624881.3 L1704508,624881.3 L1710604,592369.3 L1710604,592369.3 L1714668,572049.3 L1714668,572049.3 L1718732,533441.3 L1718732,533441.3 L1722796,578145.3 L1722796,578145.3 L1726860,521249.3 L1726860,521249.3 L1730924,515153.3 L1730924,515153.3 L1734988,490769.3 L1734988,490769.3 L1739052,472481.3 L1739052,472481.3 L1743116,458257.3 L1743116,458257.3 L1749212,448097.3 L1749212,448097.3 L1753276,444033.3 L1753276,444033.3 L1757340,462321.3 L1757340,462321.3 L1761404,574081.3 L1761404,574081.3 L1765468,655361.3 L1765468,655361.3 L1769532,639105.3 L1769532,639105.3 L1773596,616753.3 L1773596,616753.3 L1777660,655361.3 L1777660,655361.3 L1783756,633009.3 L1783756,633009.3 L1787820,590337.3 L1787820,590337.3 L1791884,626913.3 L1791884,626913.3 L1795948,661457.3 L1795948,661457.3 L1800012,584241.3 L1800012,584241.3 L1804076,590337.3 L1804076,590337.3 L1808140,665521.3 L1808140,665521.3 L1812204,677713.3 L1812204,677713.3 L1818300,616753.3 L1818300,616753.3 L1822364,539537.3 L1822364,539537.3 L1826428,527345.3 L1826428,527345.3 L1830492,537505.3 L1830492,537505.3 L1834556,472481.3 L1834556,472481.3 L1838620,444033.3 L1838620,444033.3 L1842684,531409.3 L1842684,531409.3 L1846748,496865.3 L1846748,496865.3 L1850812,519217.3 L1850812,519217.3 L1856908,454193.3 L1856908,454193.3 L1860972,446065.3 L1860972,446065.3 L1865036,466385.3 L1865036,466385.3 L1869100,415585.3 L1869100,415585.3 L1873164,297729.3 L1873164,297729.3 L1877228,366817.3 L1877228,366817.3 L1881292,366817.3 L1881292,366817.3 L1885356,340401.3 L1885356,340401.3 L1891452,360721.3 L1891452,360721.3 L1895516,456225.3 L1895516,456225.3 L1899580,344465.3 L1899580,344465.3 L1903644,246929.3 L1903644,246929.3 L1907708,226609.3 L1907708,226609.3 L1911772,289601.3 L1911772,289601.3 L1915836,352593.3 L1915836,352593.3 L1919900,275377.3 L1919900,275377.3 L1923964,342433.3 L1923964,342433.3 L1930060,413553.3 L1930060,413553.3 L1934124,431841.3 L1934124,431841.3 L1938188,425745.3 L1938188,425745.3 L1942252,486705.3 L1942252,486705.3 L1946316,565953.3 L1946316,565953.3 L1950380,553761.3 L1950380,553761.3 L1954444,533441.3 L1954444,533441.3 L1958508,572049.3 L1958508,572049.3 L1964604,586273.3 L1964604,586273.3 L1968668,537505.3 L1968668,537505.3 L1972732,521249.3 L1972732,521249.3 L1976796,531409.3 L1976796,531409.3 L1980860,515153.3 L1980860,515153.3 L1984924,511089.3 L1984924,511089.3 L1988988,482641.3 L1988988,482641.3 L1993052,407457.3 L1993052,407457.3 L1999148,346497.3 L1999148,346497.3 L2003212,421681.3 L2003212,421681.3 L2007276,348529.3 L2007276,348529.3 L2011340,409489.3 L2011340,409489.3 L2015404,350561.3 L2015404,350561.3 L2019468,299761.3 L2019468,299761.3 L2023532,277409.3 L2023532,277409.3 L2027596,248961.3 L2027596,248961.3 L2031660,226609.3 L2031660,226609.3 L2037756,261153.3 L2037756,261153.3 L2041820,301793.3 L2041820,301793.3 L2045884,279441.3 L2045884,279441.3 L2049948,358689.3 L2049948,358689.3 L2054012,409489.3 L2054012,409489.3 L2058076,358689.3 L2058076,358689.3 L2062140,397297.3 L2062140,397297.3 L2066204,320081.3 L2066204,320081.3 L2072300,214417.3 L2072300,214417.3 L2076364,370881.3 L2076364,370881.3 L2080428,326177.3 L2080428,326177.3 L2084492,391201.3 " stroke-width="33866.67" stroke-linecap="round" stroke-linejoin="round" stroke-miterlimit="13.33333" stroke="#009cde" fill="none" fill-rule="nonzero" /></g></g><g><g clip-path="url(#clip010)"><g><g transform="translate(1628.722,934.2065)"><text><tspan x="0" y="0" font-family="Connections Cond Light,Arial Narrow" font-weight="normal" font-style="normal" font-size="77.33334" fill="#000000">6x</tspan></text></g></g></g></g><g><g clip-path="url(#clip011)"><g><g transform="translate(1628.722,645.0219)"><text><tspan x="0" y="0" font-family="Connections Cond Light,Arial Narrow" font-weight="normal" font-style="normal" font-size="77.33334" fill="#000000">12x</tspan></text></g></g></g></g><g><g clip-path="url(#clip012)"><g><g transform="translate(1628.722,355.8373)"><text><tspan x="0" y="0" font-family="Connections Cond Light,Arial Narrow" font-weight="normal" font-style="normal" font-size="77.33334" fill="#000000">18x</tspan></text></g></g></g></g><g><g clip-path="url(#clip013)"><g><g transform="translate(1628.722,66.65267)"><text><tspan x="0" y="0" font-family="Connections Cond Light,Arial Narrow" font-weight="normal" font-style="normal" font-size="77.33334" fill="#000000">24x</tspan></text></g></g></g></g><g><g clip-path="url(#clip014)"><g><g transform="translate(16.66667,934.2065)"><text><tspan x="0" y="0" font-family="Connections Cond Light,Arial Narrow" font-weight="normal" font-style="normal" font-size="77.33334" fill="#000000">0.4x</tspan></text></g></g></g></g><g><g clip-path="url(#clip015)"><g><g transform="translate(16.66667,717.3176)"><text><tspan x="0" y="0" font-family="Connections Cond Light,Arial Narrow" font-weight="normal" font-style="normal" font-size="77.33334" fill="#000000">0.8x</tspan></text></g></g></g></g><g><g clip-path="url(#clip016)"><g><g transform="translate(16.66667,500.4296)"><text><tspan x="0" y="0" font-family="Connections Cond Light,Arial Narrow" font-weight="normal" font-style="normal" font-size="77.33334" fill="#000000">1.2x</tspan></text></g></g></g></g><g><g clip-path="url(#clip017)"><g><g transform="translate(16.66667,283.5407)"><text><tspan x="0" y="0" font-family="Connections Cond Light,Arial Narrow" font-weight="normal" font-style="normal" font-size="77.33334" fill="#000000">1.6x</tspan></text></g></g></g></g><g><g clip-path="url(#clip018)"><g><g transform="translate(16.66667,66.65267)"><text><tspan x="0" y="0" font-family="Connections Cond Light,Arial Narrow" font-weight="normal" font-style="normal" font-size="77.33334" fill="#000000">2.0x</tspan></text></g></g></g></g><g><g clip-path="url(#clip019)"><g><g transform="translate(164.8898,1027.276)"><text><tspan x="0" y="0" font-family="Connections Cond Light,Arial Narrow" font-weight="normal" font-style="normal" font-size="77.33334" fill="#000000">86</tspan></text></g></g></g></g><g><g clip-path="url(#clip020)"><g><g transform="translate(258.1382,1027.276)"><text><tspan x="0" y="0" font-family="Connections Cond Light,Arial Narrow" font-weight="normal" font-style="normal" font-size="77.33334" fill="#000000">88</tspan></text></g></g></g></g><g><g clip-path="url(#clip021)"><g><g transform="translate(351.3867,1027.276)"><text><tspan x="0" y="0" font-family="Connections Cond Light,Arial Narrow" font-weight="normal" font-style="normal" font-size="77.33334" fill="#000000">91</tspan></text></g></g></g></g><g><g clip-path="url(#clip022)"><g><g transform="translate(444.6352,1027.276)"><text><tspan x="0" y="0" font-family="Connections Cond Light,Arial Narrow" font-weight="normal" font-style="normal" font-size="77.33334" fill="#000000">94</tspan></text></g></g></g></g><g><g clip-path="url(#clip023)"><g><g transform="translate(537.8828,1027.276)"><text><tspan x="0" y="0" font-family="Connections Cond Light,Arial Narrow" font-weight="normal" font-style="normal" font-size="77.33334" fill="#000000">97</tspan></text></g></g></g></g><g><g clip-path="url(#clip024)"><g><g transform="translate(631.1312,1027.276)"><text><tspan x="0" y="0" font-family="Connections Cond Light,Arial Narrow" font-weight="normal" font-style="normal" font-size="77.33334" fill="#000000">99</tspan></text></g></g></g></g><g><g clip-path="url(#clip025)"><g><g transform="translate(724.3797,1027.276)"><text><tspan x="0" y="0" font-family="Connections Cond Light,Arial Narrow" font-weight="normal" font-style="normal" font-size="77.33334" fill="#000000">02</tspan></text></g></g></g></g><g><g clip-path="url(#clip026)"><g><g transform="translate(817.6282,1027.276)"><text><tspan x="0" y="0" font-family="Connections Cond Light,Arial Narrow" font-weight="normal" font-style="normal" font-size="77.33334" fill="#000000">05</tspan></text></g></g></g></g><g><g clip-path="url(#clip027)"><g><g transform="translate(910.8766,1027.276)"><text><tspan x="0" y="0" font-family="Connections Cond Light,Arial Narrow" font-weight="normal" font-style="normal" font-size="77.33334" fill="#000000">08</tspan></text></g></g></g></g><g><g clip-path="url(#clip028)"><g><g transform="translate(1004.125,1027.276)"><text><tspan x="0" y="0" font-family="Connections Cond Light,Arial Narrow" font-weight="normal" font-style="normal" font-size="77.33334" fill="#000000">10</tspan></text></g></g></g></g><g><g clip-path="url(#clip029)"><g><g transform="translate(1097.374,1027.276)"><text><tspan x="0" y="0" font-family="Connections Cond Light,Arial Narrow" font-weight="normal" font-style="normal" font-size="77.33334" fill="#000000">13</tspan></text></g></g></g></g><g><g clip-path="url(#clip030)"><g><g transform="translate(1190.622,1027.276)"><text><tspan x="0" y="0" font-family="Connections Cond Light,Arial Narrow" font-weight="normal" font-style="normal" font-size="77.33334" fill="#000000">16</tspan></text></g></g></g></g><g><g clip-path="url(#clip031)"><g><g transform="translate(1283.87,1027.276)"><text><tspan x="0" y="0" font-family="Connections Cond Light,Arial Narrow" font-weight="normal" font-style="normal" font-size="77.33334" fill="#000000">19</tspan></text></g></g></g></g><g><g clip-path="url(#clip032)"><g><g transform="translate(1377.118,1027.276)"><text><tspan x="0" y="0" font-family="Connections Cond Light,Arial Narrow" font-weight="normal" font-style="normal" font-size="77.33334" fill="#000000">21</tspan></text></g></g></g></g><g><g clip-path="url(#clip033)"><g><g transform="translate(1470.367,1027.276)"><text><tspan x="0" y="0" font-family="Connections Cond Light,Arial Narrow" font-weight="normal" font-style="normal" font-size="77.33334" fill="#000000">24</tspan></text></g></g></g></g><g clip-path="url(#clip034)"><g transform="matrix(0.000656168,0,0,0.000656168,29.33333,1100)"><path d="M0,0 L2521712,0 L2521712,144272 L0,144272 Z" fill="#4f81bd" fill-opacity="0" fill-rule="evenodd" /></g></g><g clip-path="url(#clip035)"><g transform="matrix(0.000656168,0,0,0.000656168,146.6667,1128)"><path d="M0,0 L325120,0 L325120,60960 L0,60960 Z" fill="#012169" fill-rule="evenodd" /></g></g><g><g clip-path="url(#clip036)"><g><g transform="translate(382.776,1170.032)"><text><tspan x="0" y="0" font-family="Connections Cond Light,Arial Narrow" font-weight="normal" font-style="normal" font-size="77.33334" fill="#000000">Relative P/OCF (lhs)</tspan></text></g></g></g></g><g clip-path="url(#clip037)"><g transform="matrix(0.000656168,0,0,0.000656168,1047.333,1147.333)"><path d="M0,0 L325120,1.333333 " stroke-width="33866.67" stroke-linecap="round" stroke-linejoin="round" stroke-miterlimit="13.33333" stroke="#009cde" fill="none" fill-rule="evenodd" /></g></g><g><g clip-path="url(#clip038)"><g><g transform="translate(1283.823,1170.032)"><text><tspan x="0" y="0" font-family="Connections Cond Light,Arial Narrow" font-weight="normal" font-style="normal" font-size="77.33334" fill="#000000">P/OCF (rhs)</tspan></text></g></g></g></g><g /></g></g></g></g></g></g></g></g></g></svg>