<svg version="1.1" width="100%" height="100%" viewBox="0 0 355 204" xmlns="http://www.w3.org/2000/svg" xmlns:xlink="http://www.w3.org/1999/xlink"><style type="text/css" /><defs><clipPath id="clip001"><path d="M0,0 L2761.333,0 L2761.333,1697.333 L0,1697.333 Z" clip-rule="evenodd" /></clipPath><clipPath id="clip002"><path d="M0,0 L2761.333,0 L2761.333,1697.333 L0,1697.333 Z" clip-rule="evenodd" /></clipPath><clipPath id="clip003"><path d="M0,0 L2761.333,0 L2761.333,1697.333 L0,1697.333 Z" clip-rule="evenodd" /></clipPath><clipPath id="clip004"><path d="M0,0 L5200,0 L5200,1808 L0,1808 Z" clip-rule="evenodd" /></clipPath><clipPath id="clip005"><path d="M-800,0 L6000,0 L6000,1808 L-800,1808 Z" clip-rule="evenodd" /></clipPath><clipPath id="clip006"><path d="M368,316 L2717.333,316 L2717.333,1505.333 L368,1505.333 Z" clip-rule="evenodd" /></clipPath><clipPath id="clip007"><path d="M0,0 L2753.333,0 L2753.333,1696 L0,1696 Z" clip-rule="evenodd" /></clipPath><clipPath id="clip008"><path d="M368,316 L2717.333,316 L2717.333,1505.333 L368,1505.333 Z" clip-rule="evenodd" /></clipPath><clipPath id="clip009"><path d="M368,316 L2717.333,316 L2717.333,1505.333 L368,1505.333 Z" clip-rule="evenodd" /></clipPath><clipPath id="clip010"><path d="M0,0 L2753.333,0 L2753.333,1696 L0,1696 Z" clip-rule="evenodd" /></clipPath><clipPath id="clip011"><path d="M0,0 L2753.333,0 L2753.333,1696 L0,1696 Z" clip-rule="evenodd" /></clipPath><clipPath id="clip012"><path d="M0,0 L2753.333,0 L2753.333,1696 L0,1696 Z" clip-rule="evenodd" /></clipPath><clipPath id="clip013"><path d="M0,0 L2753.333,0 L2753.333,1696 L0,1696 Z" clip-rule="evenodd" /></clipPath><clipPath id="clip014"><path d="M0,0 L2753.333,0 L2753.333,1696 L0,1696 Z" clip-rule="evenodd" /></clipPath><clipPath id="clip015"><path d="M0,0 L2753.333,0 L2753.333,1696 L0,1696 Z" clip-rule="evenodd" /></clipPath><clipPath id="clip016"><path d="M0,0 L2753.333,0 L2753.333,1696 L0,1696 Z" clip-rule="evenodd" /></clipPath><clipPath id="clip017"><path d="M0,0 L2753.333,0 L2753.333,1696 L0,1696 Z" clip-rule="evenodd" /></clipPath><clipPath id="clip018"><path d="M0,0 L2753.333,0 L2753.333,1696 L0,1696 Z" clip-rule="evenodd" /></clipPath><clipPath id="clip019"><path d="M0,0 L2753.333,0 L2753.333,1696 L0,1696 Z" clip-rule="evenodd" /></clipPath><clipPath id="clip020"><path d="M0,0 L2753.333,0 L2753.333,1696 L0,1696 Z" clip-rule="evenodd" /></clipPath><clipPath id="clip021"><path d="M0,0 L2753.333,0 L2753.333,1696 L0,1696 Z" clip-rule="evenodd" /></clipPath><clipPath id="clip022"><path d="M0,0 L2753.333,0 L2753.333,1696 L0,1696 Z" clip-rule="evenodd" /></clipPath><clipPath id="clip023"><path d="M0,0 L2753.333,0 L2753.333,1696 L0,1696 Z" clip-rule="evenodd" /></clipPath><clipPath id="clip024"><path d="M0,0 L2753.333,0 L2753.333,1696 L0,1696 Z" clip-rule="evenodd" /></clipPath><clipPath id="clip025"><path d="M0,0 L2753.333,0 L2753.333,1696 L0,1696 Z" clip-rule="evenodd" /></clipPath><clipPath id="clip026"><path d="M0,0 L2753.333,0 L2753.333,1696 L0,1696 Z" clip-rule="evenodd" /></clipPath><clipPath id="clip027"><path d="M0,0 L2753.333,0 L2753.333,1696 L0,1696 Z" clip-rule="evenodd" /></clipPath><clipPath id="clip028"><path d="M0,0 L2753.333,0 L2753.333,1696 L0,1696 Z" clip-rule="evenodd" /></clipPath><clipPath id="clip029"><path d="M0,0 L2753.333,0 L2753.333,1696 L0,1696 Z" clip-rule="evenodd" /></clipPath><clipPath id="clip030"><path d="M0,0 L2753.333,0 L2753.333,1696 L0,1696 Z" clip-rule="evenodd" /></clipPath><clipPath id="clip031"><path d="M0,0 L2753.333,0 L2753.333,1696 L0,1696 Z" clip-rule="evenodd" /></clipPath><clipPath id="clip032"><path d="M0,0 L2753.333,0 L2753.333,1696 L0,1696 Z" clip-rule="evenodd" /></clipPath><clipPath id="clip033"><path d="M0,0 L2753.333,0 L2753.333,1696 L0,1696 Z" clip-rule="evenodd" /></clipPath><clipPath id="clip034"><path d="M0,0 L2753.333,0 L2753.333,1696 L0,1696 Z" clip-rule="evenodd" /></clipPath><clipPath id="clip035"><path d="M0,0 L2753.333,0 L2753.333,1696 L0,1696 Z" clip-rule="evenodd" /></clipPath><clipPath id="clip036"><path d="M0,0 L2753.333,0 L2753.333,1696 L0,1696 Z" clip-rule="evenodd" /></clipPath><clipPath id="clip037"><path d="M0,0 L2753.333,0 L2753.333,1696 L0,1696 Z" clip-rule="evenodd" /></clipPath><clipPath id="clip038"><path d="M0,0 L2753.333,0 L2753.333,1696 L0,1696 Z" clip-rule="evenodd" /></clipPath><clipPath id="clip039"><path d="M0,0 L2753.333,0 L2753.333,1696 L0,1696 Z" clip-rule="evenodd" /></clipPath><clipPath id="clip040"><path d="M0,0 L2753.333,0 L2753.333,1696 L0,1696 Z" clip-rule="evenodd" /></clipPath><clipPath id="clip041"><path d="M0,0 L2753.333,0 L2753.333,1696 L0,1696 Z" clip-rule="evenodd" /></clipPath><clipPath id="clip042"><path d="M0,332 L2190.667,332 L2190.667,509.3333 L0,509.3333 Z" clip-rule="evenodd" /></clipPath><clipPath id="clip043"><path d="M0,0 L2754.667,0 L2754.667,1697.333 L0,1697.333 Z" clip-rule="evenodd" /></clipPath></defs><clipPath id="page-clip-path-1"><rect x="0" y="0" width="354.67" height="204" /></clipPath><g clip-path="url(#page-clip-path-1)" transform="translate(0.17,0)"><g transform="translate(1,1)"><g><g transform="matrix(0.1197006,0,0,0.1199529,0,0)" clip-path="url(#clip001)"><g><g clip-path="url(#clip002)"><g><g clip-path="url(#clip003)"><g transform="matrix(1.000214,0,0,1.000705,0.00016276,0)"><g><g><g clip-path="url(#clip004)"><g transform="translate(2753.333,1700)" /></g></g></g><g clip-path="url(#clip005)"><g transform="matrix(0.000656168,0,0,0.000656168,0,0)"><path d="M0,0 L4198112,0 L4198112,2584704 L0,2584704 Z" fill="#ffffff" fill-opacity="0" fill-rule="evenodd" /></g></g><g clip-path="url(#clip006)"><g transform="matrix(0.000656168,0,0,0.000656168,1188,316)"><path d="M0,0 L6096,0 L6096,1800352 L0,1800352 Z" fill="#a6a6a6" fill-rule="evenodd" /><path d="M0,0 L6096,0 L6096,0 L6096,1800352 L6096,1800352 L0,1800352 Z" stroke-width="12700" stroke-linejoin="round" stroke-miterlimit="13.33333" stroke="#a6a6a6" fill="none" fill-rule="evenodd" /></g></g><g clip-path="url(#clip007)"><g transform="matrix(0.000656168,0,0,0.000656168,369.3333,1005.333)"><g><path d="M0.002532447,-6773.333 L3566160,-6772 " stroke-width="3386.667" stroke-linejoin="round" stroke-miterlimit="13.33333" stroke="#000000" fill="none" fill-rule="evenodd" /><path d="M-0.001266223,3386.667 L3566160,3388 " stroke-width="10160" stroke-linejoin="round" stroke-miterlimit="13.33333" stroke="#000000" fill="none" fill-rule="evenodd" /></g></g></g><g clip-path="url(#clip008)"><g transform="matrix(0.000656168,0,0,0.000656168,371.3333,419.3333)"><path d="M0,629920 L8128,664464 L8128,664464 L14224,731520 L14224,731520 L22352,638048 L22352,638048 L28448,690880 L28448,690880 L36576,701040 L36576,701040 L44704,865632 L44704,865632 L50800,851408 L50800,851408 L58928,849376 L58928,849376 L67056,719328 L67056,719328 L73152,804672 L73152,804672 L81280,729488 L81280,729488 L87376,503936 L87376,503936 L95504,428752 L95504,428752 L103632,449072 L103632,449072 L109728,625856 L109728,625856 L117856,776224 L117856,776224 L123952,727456 L123952,727456 L132080,798576 L132080,798576 L140208,725424 L140208,725424 L146304,658368 L146304,658368 L154432,965200 L154432,965200 L160528,1095248 L160528,1095248 L168656,955040 L168656,955040 L176784,723392 L176784,723392 L182880,568960 L182880,568960 L191008,727456 L191008,727456 L199136,713232 L199136,713232 L205232,768096 L205232,768096 L213360,670560 L213360,670560 L219456,786384 L219456,786384 L227584,818896 L227584,818896 L235712,857504 L235712,857504 L241808,875792 L241808,875792 L249936,792480 L249936,792480 L256032,784352 L256032,784352 L264160,707136 L264160,707136 L272288,713232 L272288,713232 L278384,814832 L278384,814832 L286512,808736 L286512,808736 L292608,654304 L292608,654304 L300736,703072 L300736,703072 L308864,699008 L308864,699008 L314960,719328 L314960,719328 L323088,723392 L323088,723392 L331216,766064 L331216,766064 L337312,814832 L337312,814832 L345440,831088 L345440,831088 L351536,766064 L351536,766064 L359664,759968 L359664,759968 L367792,735584 L367792,735584 L373888,749808 L373888,749808 L382016,648208 L382016,648208 L388112,711200 L388112,711200 L396240,735584 L396240,735584 L404368,942848 L404368,942848 L410464,963168 L410464,963168 L418592,922528 L418592,922528 L426720,745744 L426720,745744 L432816,629920 L432816,629920 L440944,290576 L440944,290576 L447040,373888 L447040,373888 L455168,266192 L455168,266192 L463296,406400 L463296,406400 L469392,605536 L469392,605536 L477520,786384 L477520,786384 L483616,816864 L483616,816864 L491744,715264 L491744,715264 L499872,692912 L499872,692912 L505968,743712 L505968,743712 L514096,802640 L514096,802640 L520192,542544 L520192,542544 L528320,538480 L528320,538480 L536448,333248 L536448,333248 L542544,583184 L542544,583184 L550672,723392 L550672,723392 L558800,845312 L558800,845312 L564896,796544 L564896,796544 L573024,707136 L573024,707136 L579120,672592 L579120,672592 L587248,636016 L587248,636016 L595376,654304 L595376,654304 L601472,609600 L601472,609600 L609600,579120 L609600,579120 L615696,540512 L615696,540512 L623824,583184 L623824,583184 L631952,652272 L631952,652272 L638048,739648 L638048,739648 L646176,609600 L646176,609600 L652272,652272 L652272,652272 L660400,623824 L660400,623824 L668528,709168 L668528,709168 L674624,678688 L674624,678688 L682752,713232 L682752,713232 L690880,721360 L690880,721360 L696976,692912 L696976,692912 L705104,690880 L705104,690880 L711200,617728 L711200,617728 L719328,670560 L719328,670560 L727456,757936 L727456,757936 L733552,745744 L733552,745744 L741680,729488 L741680,729488 L747776,747776 L747776,747776 L755904,678688 L755904,678688 L764032,575056 L764032,575056 L770128,566928 L770128,566928 L778256,694944 L778256,694944 L786384,699008 L786384,699008 L792480,802640 L792480,802640 L800608,713232 L800608,713232 L806704,633984 L806704,633984 L814832,514096 L814832,514096 L822960,552704 L822960,552704 L829056,516128 L829056,516128 L837184,575056 L837184,575056 L843280,605536 L843280,605536 L851408,701040 L851408,701040 L859536,629920 L859536,629920 L865632,593344 L865632,593344 L873760,658368 L873760,658368 L879856,633984 L879856,633984 L887984,699008 L887984,699008 L896112,680720 L896112,680720 L902208,623824 L902208,623824 L910336,654304 L910336,654304 L918464,633984 L918464,633984 L924560,847344 L924560,847344 L932688,845312 L932688,845312 L938784,668528 L938784,668528 L946912,566928 L946912,566928 L955040,451104 L955040,451104 L961136,617728 L961136,617728 L969264,426720 L969264,426720 L975360,686816 L975360,686816 L983488,688848 L983488,688848 L991616,782320 L991616,782320 L997712,658368 L997712,658368 L1005840,518160 L1005840,518160 L1011936,375920 L1011936,375920 L1020064,526288 L1020064,526288 L1028192,447040 L1028192,447040 L1034288,800608 L1034288,800608 L1042416,766064 L1042416,766064 L1050544,812800 L1050544,812800 L1056640,713232 L1056640,713232 L1064768,650240 L1064768,650240 L1070864,550672 L1070864,550672 L1078992,550672 L1078992,550672 L1087120,749808 L1087120,749808 L1093216,664464 L1093216,664464 L1101344,707136 L1101344,707136 L1107440,831088 L1107440,831088 L1115568,753872 L1115568,753872 L1123696,664464 L1123696,664464 L1129792,274320 L1129792,274320 L1137920,363728 L1137920,363728 L1146048,266192 L1146048,266192 L1152144,544576 L1152144,544576 L1160272,566928 L1160272,566928 L1166368,782320 L1166368,782320 L1174496,573024 L1174496,573024 L1182624,510032 L1182624,510032 L1188720,577088 L1188720,577088 L1196848,510032 L1196848,510032 L1202944,613664 L1202944,613664 L1211072,564896 L1211072,564896 L1219200,428752 L1219200,428752 L1225296,158496 L1225296,158496 L1233424,172720 L1233424,172720 L1239520,0 L1239520,0 L1247648,345440 L1247648,345440 L1255776,382016 L1255776,382016 L1261872,627888 L1261872,627888 L1270000,642112 L1270000,642112 L1278128,646176 L1278128,646176 L1284224,369824 L1284224,369824 L1292352,676656 L1292352,676656 L1298448,613664 L1298448,613664 L1306576,940816 L1306576,940816 L1314704,768096 L1314704,768096 L1320800,633984 L1320800,633984 L1328928,745744 L1328928,745744 L1335024,672592 L1335024,672592 L1343152,841248 L1343152,841248 L1351280,668528 L1351280,668528 L1357376,530352 L1357376,530352 L1365504,790448 L1365504,790448 L1371600,759968 L1371600,759968 L1379728,997712 L1379728,997712 L1387856,894080 L1387856,894080 L1393952,674624 L1393952,674624 L1402080,91440 L1402080,91440 L1410208,530352 L1410208,530352 L1416304,792480 L1416304,792480 L1424432,751840 L1424432,751840 L1430528,833120 L1430528,833120 L1438656,727456 L1438656,727456 L1446784,967232 L1446784,967232 L1452880,957072 L1452880,957072 L1461008,930656 L1461008,930656 L1467104,967232 L1467104,967232 L1475232,743712 L1475232,743712 L1483360,489712 L1483360,489712 L1489456,345440 L1489456,345440 L1497584,532384 L1497584,532384 L1503680,883920 L1503680,883920 L1511808,778256 L1511808,778256 L1519936,605536 L1519936,605536 L1526032,430784 L1526032,430784 L1534160,373888 L1534160,373888 L1542288,420624 L1542288,420624 L1548384,497840 L1548384,497840 L1556512,522224 L1556512,522224 L1562608,508000 L1562608,508000 L1570736,613664 L1570736,613664 L1578864,619760 L1578864,619760 L1584960,611632 L1584960,611632 L1593088,658368 L1593088,658368 L1599184,717296 L1599184,717296 L1607312,833120 L1607312,833120 L1615440,824992 L1615440,824992 L1621536,782320 L1621536,782320 L1629664,810768 L1629664,810768 L1637792,851408 L1637792,851408 L1643888,839216 L1643888,839216 L1652016,672592 L1652016,672592 L1658112,552704 L1658112,552704 L1666240,546608 L1666240,546608 L1674368,749808 L1674368,749808 L1680464,766064 L1680464,766064 L1688592,861568 L1688592,861568 L1694688,833120 L1694688,833120 L1702816,794512 L1702816,794512 L1710944,739648 L1710944,739648 L1717040,603504 L1717040,603504 L1725168,711200 L1725168,711200 L1731264,652272 L1731264,652272 L1739392,768096 L1739392,768096 L1747520,709168 L1747520,709168 L1753616,753872 L1753616,753872 L1761744,627888 L1761744,627888 L1769872,670560 L1769872,670560 L1775968,558800 L1775968,558800 L1784096,723392 L1784096,723392 L1790192,806704 L1790192,806704 L1798320,849376 L1798320,849376 L1806448,865632 L1806448,865632 L1812544,792480 L1812544,792480 L1820672,713232 L1820672,713232 L1826768,670560 L1826768,670560 L1834896,690880 L1834896,690880 L1843024,751840 L1843024,751840 L1849120,764032 L1849120,764032 L1857248,804672 L1857248,804672 L1863344,784352 L1863344,784352 L1871472,768096 L1871472,768096 L1879600,741680 L1879600,741680 L1885696,690880 L1885696,690880 L1893824,723392 L1893824,723392 L1901952,780288 L1901952,780288 L1908048,766064 L1908048,766064 L1916176,747776 L1916176,747776 L1922272,766064 L1922272,766064 L1930400,806704 L1930400,806704 L1938528,926592 L1938528,926592 L1944624,863600 L1944624,863600 L1952752,861568 L1952752,861568 L1958848,735584 L1958848,735584 L1966976,650240 L1966976,650240 L1975104,768096 L1975104,768096 L1981200,757936 L1981200,757936 L1989328,859536 L1989328,859536 L1997456,881888 L1997456,881888 L2003552,1009904 L2003552,1009904 L2011680,1091184 L2011680,1091184 L2017776,973328 L2017776,973328 L2025904,857504 L2025904,857504 L2034032,772160 L2034032,772160 L2040128,666496 L2040128,666496 L2048256,520192 L2048256,520192 L2054352,296672 L2054352,296672 L2062480,558800 L2062480,558800 L2070608,656336 L2070608,656336 L2076704,617728 L2076704,617728 L2084832,552704 L2084832,552704 L2090928,662432 L2090928,662432 L2099056,703072 L2099056,703072 L2107184,676656 L2107184,676656 L2113280,743712 L2113280,743712 L2121408,725424 L2121408,725424 L2129536,729488 L2129536,729488 L2135632,577088 L2135632,577088 L2143760,707136 L2143760,707136 L2149856,859536 L2149856,859536 L2157984,822960 L2157984,822960 L2166112,776224 L2166112,776224 L2172208,644144 L2172208,644144 L2180336,676656 L2180336,676656 L2186432,589280 L2186432,589280 L2194560,701040 L2194560,701040 L2202688,688848 L2202688,688848 L2208784,640080 L2208784,640080 L2216912,721360 L2216912,721360 L2223008,755904 L2223008,755904 L2231136,774192 L2231136,774192 L2239264,818896 L2239264,818896 L2245360,861568 L2245360,861568 L2253488,890016 L2253488,890016 L2261616,916432 L2261616,916432 L2267712,790448 L2267712,790448 L2275840,715264 L2275840,715264 L2281936,707136 L2281936,707136 L2290064,749808 L2290064,749808 L2298192,668528 L2298192,668528 L2304288,589280 L2304288,589280 L2312416,790448 L2312416,790448 L2318512,894080 L2318512,894080 L2326640,898144 L2326640,898144 L2334768,871728 L2334768,871728 L2340864,707136 L2340864,707136 L2348992,725424 L2348992,725424 L2357120,804672 L2357120,804672 L2363216,829056 L2363216,829056 L2371344,790448 L2371344,790448 L2377440,629920 L2377440,629920 L2385568,674624 L2385568,674624 L2393696,696976 L2393696,696976 L2399792,749808 L2399792,749808 L2407920,701040 L2407920,701040 L2414016,737616 L2414016,737616 L2422144,709168 L2422144,709168 L2430272,792480 L2430272,792480 L2436368,731520 L2436368,731520 L2444496,749808 L2444496,749808 L2450592,713232 L2450592,713232 L2458720,694944 L2458720,694944 L2466848,672592 L2466848,672592 L2472944,717296 L2472944,717296 L2481072,764032 L2481072,764032 L2489200,774192 L2489200,774192 L2495296,790448 L2495296,790448 L2503424,751840 L2503424,751840 L2509520,766064 L2509520,766064 L2517648,768096 L2517648,768096 L2525776,802640 L2525776,802640 L2531872,810768 L2531872,810768 L2540000,792480 L2540000,792480 L2546096,774192 L2546096,774192 L2554224,831088 L2554224,831088 L2562352,782320 L2562352,782320 L2568448,766064 L2568448,766064 L2576576,743712 L2576576,743712 L2582672,772160 L2582672,772160 L2590800,820928 L2590800,820928 L2598928,812800 L2598928,812800 L2605024,898144 L2605024,898144 L2613152,881888 L2613152,881888 L2621280,768096 L2621280,768096 L2627376,688848 L2627376,688848 L2635504,664464 L2635504,664464 L2641600,849376 L2641600,849376 L2649728,873760 L2649728,873760 L2657856,808736 L2657856,808736 L2663952,768096 L2663952,768096 L2672080,729488 L2672080,729488 L2678176,822960 L2678176,822960 L2686304,682752 L2686304,682752 L2694432,694944 L2694432,694944 L2700528,678688 L2700528,678688 L2708656,723392 L2708656,723392 L2714752,749808 L2714752,749808 L2722880,762000 L2722880,762000 L2731008,731520 L2731008,731520 L2737104,739648 L2737104,739648 L2745232,688848 L2745232,688848 L2753360,753872 L2753360,753872 L2759456,719328 L2759456,719328 L2767584,794512 L2767584,794512 L2773680,794512 L2773680,794512 L2781808,798576 L2781808,798576 L2789936,747776 L2789936,747776 L2796032,694944 L2796032,694944 L2804160,725424 L2804160,725424 L2810256,737616 L2810256,737616 L2818384,717296 L2818384,717296 L2826512,741680 L2826512,741680 L2832608,723392 L2832608,723392 L2840736,816864 L2840736,816864 L2848864,776224 L2848864,776224 L2854960,762000 L2854960,762000 L2863088,727456 L2863088,727456 L2869184,729488 L2869184,729488 L2877312,725424 L2877312,725424 L2885440,818896 L2885440,818896 L2891536,875792 L2891536,875792 L2899664,940816 L2899664,940816 L2905760,745744 L2905760,745744 L2913888,764032 L2913888,764032 L2922016,605536 L2922016,605536 L2928112,690880 L2928112,690880 L2936240,814832 L2936240,814832 L2942336,790448 L2942336,790448 L2950464,818896 L2950464,818896 L2958592,713232 L2958592,713232 L2964688,794512 L2964688,794512 L2972816,776224 L2972816,776224 L2980944,682752 L2980944,682752 L2987040,660400 L2987040,660400 L2995168,660400 L2995168,660400 L3001264,814832 L3001264,814832 L3009392,896112 L3009392,896112 L3017520,843280 L3017520,843280 L3023616,713232 L3023616,713232 L3031744,558800 L3031744,558800 L3037840,599440 L3037840,599440 L3045968,581152 L3045968,581152 L3054096,713232 L3054096,713232 L3060192,794512 L3060192,794512 L3068320,660400 L3068320,660400 L3074416,554736 L3074416,554736 L3082544,520192 L3082544,520192 L3090672,654304 L3090672,654304 L3096768,688848 L3096768,688848 L3104896,676656 L3104896,676656 L3113024,721360 L3113024,721360 L3119120,713232 L3119120,713232 L3127248,694944 L3127248,694944 L3133344,633984 L3133344,633984 L3141472,798576 L3141472,798576 L3149600,721360 L3149600,721360 L3155696,709168 L3155696,709168 L3163824,609600 L3163824,609600 L3169920,757936 L3169920,757936 L3178048,829056 L3178048,829056 L3186176,877824 L3186176,877824 L3192272,900176 L3192272,900176 L3200400,857504 L3200400,857504 L3208528,959104 L3208528,959104 L3214624,741680 L3214624,741680 L3222752,798576 L3222752,798576 L3228848,772160 L3228848,772160 L3236976,849376 L3236976,849376 L3245104,770128 L3245104,770128 L3251200,725424 L3251200,725424 L3259328,696976 L3259328,696976 L3265424,804672 L3265424,804672 L3273552,609600 L3273552,609600 L3281680,759968 L3281680,759968 L3287776,682752 L3287776,682752 L3295904,733552 L3295904,733552 L3302000,621792 L3302000,621792 L3310128,759968 L3310128,759968 L3318256,818896 L3318256,818896 L3324352,875792 L3324352,875792 L3332480,762000 L3332480,762000 L3340608,662432 L3340608,662432 L3346704,591312 L3346704,591312 L3354832,658368 L3354832,658368 L3360928,713232 L3360928,713232 L3369056,735584 L3369056,735584 L3377184,676656 L3377184,676656 L3383280,735584 L3383280,735584 L3391408,678688 L3391408,678688 L3397504,721360 L3397504,721360 L3405632,743712 L3405632,743712 L3413760,782320 L3413760,782320 L3419856,711200 L3419856,711200 L3427984,741680 L3427984,741680 L3434080,686816 L3434080,686816 L3442208,790448 L3442208,790448 L3450336,833120 L3450336,833120 L3456432,861568 L3456432,861568 L3464560,774192 L3464560,774192 L3472688,514096 L3472688,514096 L3478784,497840 L3478784,497840 L3486912,629920 L3486912,629920 L3493008,575056 L3493008,575056 L3501136,420624 L3501136,420624 L3509264,475488 L3509264,475488 L3515360,684784 L3515360,684784 L3523488,644144 L3523488,644144 L3529584,475488 L3529584,475488 L3537712,579120 L3537712,579120 L3545840,392176 L3545840,392176 L3551936,83312 " stroke-width="33866.67" stroke-linecap="round" stroke-linejoin="round" stroke-miterlimit="13.33333" stroke="#012169" fill="none" fill-rule="nonzero" /></g></g><g clip-path="url(#clip009)"><g transform="matrix(0.000656168,0,0,0.000656168,371.3333,948.6667)"><path d="M0,172720 L8128,142240 L8128,142240 L14224,191008 L14224,191008 L22352,130048 L22352,130048 L28448,223520 L28448,223520 L36576,245872 L36576,245872 L44704,351536 L44704,351536 L50800,288544 L50800,288544 L58928,304800 L58928,304800 L67056,207264 L67056,207264 L73152,231648 L73152,231648 L81280,207264 L81280,207264 L87376,62992 L87376,62992 L95504,16256 L95504,16256 L103632,28448 L103632,28448 L109728,142240 L109728,142240 L117856,178816 L117856,178816 L123952,191008 L123952,191008 L132080,217424 L132080,217424 L140208,130048 L140208,130048 L146304,140208 L146304,140208 L154432,384048 L154432,384048 L160528,475488 L160528,475488 L168656,410464 L168656,410464 L176784,239776 L176784,239776 L182880,58928 L182880,58928 L191008,209296 L191008,209296 L199136,199136 L199136,199136 L205232,231648 L205232,231648 L213360,134112 L213360,134112 L219456,207264 L219456,207264 L227584,264160 L227584,264160 L235712,290576 L235712,290576 L241808,245872 L241808,245872 L249936,223520 L249936,223520 L256032,188976 L256032,188976 L264160,154432 L264160,154432 L272288,146304 L272288,146304 L278384,227584 L278384,227584 L286512,201168 L286512,201168 L292608,160528 L292608,160528 L300736,138176 L300736,138176 L308864,191008 L308864,191008 L314960,215392 L314960,215392 L323088,225552 L323088,225552 L331216,233680 L331216,233680 L337312,278384 L337312,278384 L345440,256032 L345440,256032 L351536,288544 L351536,288544 L359664,237744 L359664,237744 L367792,231648 L367792,231648 L373888,211328 L373888,211328 L382016,146304 L382016,146304 L388112,205232 L388112,205232 L396240,256032 L396240,256032 L404368,453136 L404368,453136 L410464,501904 L410464,501904 L418592,528320 L418592,528320 L426720,329184 L426720,329184 L432816,213360 L432816,213360 L440944,93472 L440944,93472 L447040,56896 L447040,56896 L455168,48768 L455168,48768 L463296,121920 L463296,121920 L469392,211328 L469392,211328 L477520,247904 L477520,247904 L483616,239776 L483616,239776 L491744,286512 L491744,286512 L499872,262128 L499872,262128 L505968,243840 L505968,243840 L514096,327152 L514096,327152 L520192,243840 L520192,243840 L528320,233680 L528320,233680 L536448,158496 L536448,158496 L542544,174752 L542544,174752 L550672,239776 L550672,239776 L558800,304800 L558800,304800 L564896,351536 L564896,351536 L573024,316992 L573024,316992 L579120,282448 L579120,282448 L587248,188976 L587248,188976 L595376,223520 L595376,223520 L601472,166624 L601472,166624 L609600,160528 L609600,160528 L615696,134112 L615696,134112 L623824,207264 L623824,207264 L631952,188976 L631952,188976 L638048,223520 L638048,223520 L646176,195072 L646176,195072 L652272,245872 L652272,245872 L660400,264160 L660400,264160 L668528,270256 L668528,270256 L674624,229616 L674624,229616 L682752,174752 L682752,174752 L690880,207264 L690880,207264 L696976,205232 L696976,205232 L705104,148336 L705104,148336 L711200,191008 L711200,191008 L719328,221488 L719328,221488 L727456,280416 L727456,280416 L733552,268224 L733552,268224 L741680,325120 L741680,325120 L747776,223520 L747776,223520 L755904,132080 L755904,132080 L764032,146304 L764032,146304 L770128,128016 L770128,128016 L778256,197104 L778256,197104 L786384,195072 L786384,195072 L792480,172720 L792480,172720 L800608,144272 L800608,144272 L806704,158496 L806704,158496 L814832,95504 L814832,95504 L822960,136144 L822960,136144 L829056,103632 L829056,103632 L837184,172720 L837184,172720 L843280,140208 L843280,140208 L851408,235712 L851408,235712 L859536,298704 L859536,298704 L865632,270256 L865632,270256 L873760,367792 L873760,367792 L879856,296672 L879856,296672 L887984,294640 L887984,294640 L896112,258064 L896112,258064 L902208,186944 L902208,186944 L910336,207264 L910336,207264 L918464,221488 L918464,221488 L924560,388112 L924560,388112 L932688,308864 L932688,308864 L938784,193040 L938784,193040 L946912,197104 L946912,197104 L955040,152400 L955040,152400 L961136,191008 L961136,191008 L969264,146304 L969264,146304 L975360,276352 L975360,276352 L983488,268224 L983488,268224 L991616,314960 L991616,314960 L997712,217424 L997712,217424 L1005840,249936 L1005840,249936 L1011936,99568 L1011936,99568 L1020064,152400 L1020064,152400 L1028192,144272 L1028192,144272 L1034288,335280 L1034288,335280 L1042416,396240 L1042416,396240 L1050544,394208 L1050544,394208 L1056640,235712 L1056640,235712 L1064768,176784 L1064768,176784 L1070864,101600 L1070864,101600 L1078992,186944 L1078992,186944 L1087120,284480 L1087120,284480 L1093216,249936 L1093216,249936 L1101344,363728 L1101344,363728 L1107440,451104 L1107440,451104 L1115568,418592 L1115568,418592 L1123696,288544 L1123696,288544 L1129792,46736 L1129792,46736 L1137920,97536 L1137920,97536 L1146048,91440 L1146048,91440 L1152144,249936 L1152144,249936 L1160272,298704 L1160272,298704 L1166368,351536 L1166368,351536 L1174496,231648 L1174496,231648 L1182624,191008 L1182624,191008 L1188720,103632 L1188720,103632 L1196848,195072 L1196848,195072 L1202944,280416 L1202944,280416 L1211072,353568 L1211072,353568 L1219200,221488 L1219200,221488 L1225296,65024 L1225296,65024 L1233424,184912 L1233424,184912 L1239520,197104 L1239520,197104 L1247648,227584 L1247648,227584 L1255776,296672 L1255776,296672 L1261872,485648 L1261872,485648 L1270000,388112 L1270000,388112 L1278128,434848 L1278128,434848 L1284224,288544 L1284224,288544 L1292352,430784 L1292352,430784 L1298448,377952 L1298448,377952 L1306576,544576 L1306576,544576 L1314704,501904 L1314704,501904 L1320800,406400 L1320800,406400 L1328928,465328 L1328928,465328 L1335024,542544 L1335024,542544 L1343152,536448 L1343152,536448 L1351280,327152 L1351280,327152 L1357376,225552 L1357376,225552 L1365504,445008 L1365504,445008 L1371600,493776 L1371600,493776 L1379728,589280 L1379728,589280 L1387856,432816 L1387856,432816 L1393952,209296 L1393952,209296 L1402080,10160 L1402080,10160 L1410208,144272 L1410208,144272 L1416304,414528 L1416304,414528 L1424432,359664 L1424432,359664 L1430528,414528 L1430528,414528 L1438656,351536 L1438656,351536 L1446784,505968 L1446784,505968 L1452880,538480 L1452880,538480 L1461008,489712 L1461008,489712 L1467104,508000 L1467104,508000 L1475232,284480 L1475232,284480 L1483360,79248 L1483360,79248 L1489456,85344 L1489456,85344 L1497584,197104 L1497584,197104 L1503680,329184 L1503680,329184 L1511808,245872 L1511808,245872 L1519936,188976 L1519936,188976 L1526032,48768 L1526032,48768 L1534160,42672 L1534160,42672 L1542288,117856 L1542288,117856 L1548384,144272 L1548384,144272 L1556512,148336 L1556512,148336 L1562608,103632 L1562608,103632 L1570736,138176 L1570736,138176 L1578864,97536 L1578864,97536 L1584960,146304 L1584960,146304 L1593088,182880 L1593088,182880 L1599184,209296 L1599184,209296 L1607312,316992 L1607312,316992 L1615440,237744 L1615440,237744 L1621536,211328 L1621536,211328 L1629664,280416 L1629664,280416 L1637792,371856 L1637792,371856 L1643888,375920 L1643888,375920 L1652016,164592 L1652016,164592 L1658112,97536 L1658112,97536 L1666240,109728 L1666240,109728 L1674368,201168 L1674368,201168 L1680464,260096 L1680464,260096 L1688592,302768 L1688592,302768 L1694688,274320 L1694688,274320 L1702816,229616 L1702816,229616 L1710944,225552 L1710944,225552 L1717040,111760 L1717040,111760 L1725168,166624 L1725168,166624 L1731264,132080 L1731264,132080 L1739392,264160 L1739392,264160 L1747520,195072 L1747520,195072 L1753616,186944 L1753616,186944 L1761744,119888 L1761744,119888 L1769872,156464 L1769872,156464 L1775968,172720 L1775968,172720 L1784096,191008 L1784096,191008 L1790192,247904 L1790192,247904 L1798320,278384 L1798320,278384 L1806448,375920 L1806448,375920 L1812544,229616 L1812544,229616 L1820672,180848 L1820672,180848 L1826768,97536 L1826768,97536 L1834896,146304 L1834896,146304 L1843024,219456 L1843024,219456 L1849120,174752 L1849120,174752 L1857248,209296 L1857248,209296 L1863344,209296 L1863344,209296 L1871472,160528 L1871472,160528 L1879600,186944 L1879600,186944 L1885696,176784 L1885696,176784 L1893824,193040 L1893824,193040 L1901952,182880 L1901952,182880 L1908048,211328 L1908048,211328 L1916176,174752 L1916176,174752 L1922272,276352 L1922272,276352 L1930400,300736 L1930400,300736 L1938528,357632 L1938528,357632 L1944624,312928 L1944624,312928 L1952752,288544 L1952752,288544 L1958848,182880 L1958848,182880 L1966976,128016 L1966976,128016 L1975104,191008 L1975104,191008 L1981200,316992 L1981200,316992 L1989328,321056 L1989328,321056 L1997456,329184 L1997456,329184 L2003552,463296 L2003552,463296 L2011680,532384 L2011680,532384 L2017776,430784 L2017776,430784 L2025904,290576 L2025904,290576 L2034032,294640 L2034032,294640 L2040128,217424 L2040128,217424 L2048256,101600 L2048256,101600 L2054352,0 L2054352,0 L2062480,89408 L2062480,89408 L2070608,105664 L2070608,105664 L2076704,113792 L2076704,113792 L2084832,87376 L2084832,87376 L2090928,166624 L2090928,166624 L2099056,158496 L2099056,158496 L2107184,113792 L2107184,113792 L2113280,117856 L2113280,117856 L2121408,134112 L2121408,134112 L2129536,152400 L2129536,152400 L2135632,67056 L2135632,67056 L2143760,160528 L2143760,160528 L2149856,260096 L2149856,260096 L2157984,254000 L2157984,254000 L2166112,272288 L2166112,272288 L2172208,107696 L2172208,107696 L2180336,105664 L2180336,105664 L2186432,65024 L2186432,65024 L2194560,119888 L2194560,119888 L2202688,148336 L2202688,148336 L2208784,138176 L2208784,138176 L2216912,188976 L2216912,188976 L2223008,164592 L2223008,164592 L2231136,209296 L2231136,209296 L2239264,231648 L2239264,231648 L2245360,312928 L2245360,312928 L2253488,339344 L2253488,339344 L2261616,357632 L2261616,357632 L2267712,231648 L2267712,231648 L2275840,199136 L2275840,199136 L2281936,162560 L2281936,162560 L2290064,164592 L2290064,164592 L2298192,97536 L2298192,97536 L2304288,77216 L2304288,77216 L2312416,174752 L2312416,174752 L2318512,302768 L2318512,302768 L2326640,284480 L2326640,284480 L2334768,249936 L2334768,249936 L2340864,142240 L2340864,142240 L2348992,174752 L2348992,174752 L2357120,211328 L2357120,211328 L2363216,245872 L2363216,245872 L2371344,197104 L2371344,197104 L2377440,79248 L2377440,79248 L2385568,97536 L2385568,97536 L2393696,128016 L2393696,128016 L2399792,188976 L2399792,188976 L2407920,142240 L2407920,142240 L2414016,193040 L2414016,193040 L2422144,115824 L2422144,115824 L2430272,176784 L2430272,176784 L2436368,113792 L2436368,113792 L2444496,178816 L2444496,178816 L2450592,148336 L2450592,148336 L2458720,136144 L2458720,136144 L2466848,130048 L2466848,130048 L2472944,111760 L2472944,111760 L2481072,142240 L2481072,142240 L2489200,136144 L2489200,136144 L2495296,158496 L2495296,158496 L2503424,125984 L2503424,125984 L2509520,132080 L2509520,132080 L2517648,125984 L2517648,125984 L2525776,158496 L2525776,158496 L2531872,113792 L2531872,113792 L2540000,130048 L2540000,130048 L2546096,115824 L2546096,115824 L2554224,188976 L2554224,188976 L2562352,152400 L2562352,152400 L2568448,217424 L2568448,217424 L2576576,136144 L2576576,136144 L2582672,193040 L2582672,193040 L2590800,197104 L2590800,197104 L2598928,184912 L2598928,184912 L2605024,237744 L2605024,237744 L2613152,231648 L2613152,231648 L2621280,235712 L2621280,235712 L2627376,215392 L2627376,215392 L2635504,186944 L2635504,186944 L2641600,272288 L2641600,272288 L2649728,231648 L2649728,231648 L2657856,162560 L2657856,162560 L2663952,174752 L2663952,174752 L2672080,123952 L2672080,123952 L2678176,182880 L2678176,182880 L2686304,97536 L2686304,97536 L2694432,123952 L2694432,123952 L2700528,123952 L2700528,123952 L2708656,142240 L2708656,142240 L2714752,128016 L2714752,128016 L2722880,125984 L2722880,125984 L2731008,105664 L2731008,105664 L2737104,123952 L2737104,123952 L2745232,125984 L2745232,125984 L2753360,134112 L2753360,134112 L2759456,172720 L2759456,172720 L2767584,170688 L2767584,170688 L2773680,138176 L2773680,138176 L2781808,132080 L2781808,132080 L2789936,119888 L2789936,119888 L2796032,101600 L2796032,101600 L2804160,132080 L2804160,132080 L2810256,140208 L2810256,140208 L2818384,128016 L2818384,128016 L2826512,138176 L2826512,138176 L2832608,146304 L2832608,146304 L2840736,178816 L2840736,178816 L2848864,162560 L2848864,162560 L2854960,209296 L2854960,209296 L2863088,176784 L2863088,176784 L2869184,180848 L2869184,180848 L2877312,186944 L2877312,186944 L2885440,262128 L2885440,262128 L2891536,258064 L2891536,258064 L2899664,312928 L2899664,312928 L2905760,176784 L2905760,176784 L2913888,109728 L2913888,109728 L2922016,56896 L2922016,56896 L2928112,67056 L2928112,67056 L2936240,223520 L2936240,223520 L2942336,150368 L2942336,150368 L2950464,178816 L2950464,178816 L2958592,142240 L2958592,142240 L2964688,176784 L2964688,176784 L2972816,164592 L2972816,164592 L2980944,134112 L2980944,134112 L2987040,107696 L2987040,107696 L2995168,142240 L2995168,142240 L3001264,231648 L3001264,231648 L3009392,351536 L3009392,351536 L3017520,282448 L3017520,282448 L3023616,223520 L3023616,223520 L3031744,52832 L3031744,52832 L3037840,111760 L3037840,111760 L3045968,154432 L3045968,154432 L3054096,162560 L3054096,162560 L3060192,207264 L3060192,207264 L3068320,140208 L3068320,140208 L3074416,79248 L3074416,79248 L3082544,42672 L3082544,42672 L3090672,142240 L3090672,142240 L3096768,148336 L3096768,148336 L3104896,111760 L3104896,111760 L3113024,148336 L3113024,148336 L3119120,123952 L3119120,123952 L3127248,136144 L3127248,136144 L3133344,148336 L3133344,148336 L3141472,195072 L3141472,195072 L3149600,170688 L3149600,170688 L3155696,211328 L3155696,211328 L3163824,117856 L3163824,117856 L3169920,254000 L3169920,254000 L3178048,282448 L3178048,282448 L3186176,276352 L3186176,276352 L3192272,270256 L3192272,270256 L3200400,229616 L3200400,229616 L3208528,304800 L3208528,304800 L3214624,152400 L3214624,152400 L3222752,243840 L3222752,243840 L3228848,235712 L3228848,235712 L3236976,254000 L3236976,254000 L3245104,144272 L3245104,144272 L3251200,119888 L3251200,119888 L3259328,111760 L3259328,111760 L3265424,184912 L3265424,184912 L3273552,113792 L3273552,113792 L3281680,201168 L3281680,201168 L3287776,162560 L3287776,162560 L3295904,138176 L3295904,138176 L3302000,109728 L3302000,109728 L3310128,138176 L3310128,138176 L3318256,209296 L3318256,209296 L3324352,282448 L3324352,282448 L3332480,195072 L3332480,195072 L3340608,87376 L3340608,87376 L3346704,26416 L3346704,26416 L3354832,113792 L3354832,113792 L3360928,146304 L3360928,146304 L3369056,197104 L3369056,197104 L3377184,217424 L3377184,217424 L3383280,197104 L3383280,197104 L3391408,148336 L3391408,148336 L3397504,182880 L3397504,182880 L3405632,195072 L3405632,195072 L3413760,229616 L3413760,229616 L3419856,235712 L3419856,235712 L3427984,251968 L3427984,251968 L3434080,180848 L3434080,180848 L3442208,237744 L3442208,237744 L3450336,294640 L3450336,294640 L3456432,288544 L3456432,288544 L3464560,180848 L3464560,180848 L3472688,105664 L3472688,105664 L3478784,134112 L3478784,134112 L3486912,172720 L3486912,172720 L3493008,191008 L3493008,191008 L3501136,217424 L3501136,217424 L3509264,215392 L3509264,215392 L3515360,209296 L3515360,209296 L3523488,288544 L3523488,288544 L3529584,294640 L3529584,294640 L3537712,331216 L3537712,331216 L3545840,270256 L3545840,270256 L3551936,170688 " stroke-width="38100" stroke-linecap="round" stroke-linejoin="round" stroke-miterlimit="13.33333" stroke="#009cde" fill="none" fill-rule="nonzero" /></g></g><g><g clip-path="url(#clip010)"><g><g transform="translate(16.66667,1526.972)"><text><tspan x="0" y="0" font-family="Connections Cond Light,Arial Narrow" font-weight="normal" font-style="normal" font-size="105.3333" fill="#000000">-100%</tspan></text></g></g></g></g><g><g clip-path="url(#clip011)"><g><g transform="translate(67.33334,1330.183)"><text><tspan x="0" y="0" font-family="Connections Cond Light,Arial Narrow" font-weight="normal" font-style="normal" font-size="105.3333" fill="#000000">-60%</tspan></text></g></g></g></g><g><g clip-path="url(#clip012)"><g><g transform="translate(67.33334,1133.394)"><text><tspan x="0" y="0" font-family="Connections Cond Light,Arial Narrow" font-weight="normal" font-style="normal" font-size="105.3333" fill="#000000">-20%</tspan></text></g></g></g></g><g><g clip-path="url(#clip013)"><g><g transform="translate(96.88889,936.6046)"><text><tspan x="0" y="0" font-family="Connections Cond Light,Arial Narrow" font-weight="normal" font-style="normal" font-size="105.3333" fill="#000000">20%</tspan></text></g></g></g></g><g><g clip-path="url(#clip014)"><g><g transform="translate(96.88889,739.8162)"><text><tspan x="0" y="0" font-family="Connections Cond Light,Arial Narrow" font-weight="normal" font-style="normal" font-size="105.3333" fill="#000000">60%</tspan></text></g></g></g></g><g><g clip-path="url(#clip015)"><g><g transform="translate(46.22223,543.0272)"><text><tspan x="0" y="0" font-family="Connections Cond Light,Arial Narrow" font-weight="normal" font-style="normal" font-size="105.3333" fill="#000000">100%</tspan></text></g></g></g></g><g><g clip-path="url(#clip016)"><g><g transform="translate(46.22223,346.2379)"><text><tspan x="0" y="0" font-family="Connections Cond Light,Arial Narrow" font-weight="normal" font-style="normal" font-size="105.3333" fill="#000000">140%</tspan></text></g></g></g></g><g><g clip-path="url(#clip017)"><g><g transform="translate(320.6859,1653.221)"><text><tspan x="0" y="0" font-family="Connections Cond Light,Arial Narrow" font-weight="normal" font-style="normal" font-size="105.3333" fill="#000000">86</tspan></text></g></g></g></g><g><g clip-path="url(#clip018)"><g><g transform="translate(445.9064,1653.221)"><text><tspan x="0" y="0" font-family="Connections Cond Light,Arial Narrow" font-weight="normal" font-style="normal" font-size="105.3333" fill="#000000">88</tspan></text></g></g></g></g><g><g clip-path="url(#clip019)"><g><g transform="translate(571.126,1653.221)"><text><tspan x="0" y="0" font-family="Connections Cond Light,Arial Narrow" font-weight="normal" font-style="normal" font-size="105.3333" fill="#000000">90</tspan></text></g></g></g></g><g><g clip-path="url(#clip020)"><g><g transform="translate(696.3464,1653.221)"><text><tspan x="0" y="0" font-family="Connections Cond Light,Arial Narrow" font-weight="normal" font-style="normal" font-size="105.3333" fill="#000000">92</tspan></text></g></g></g></g><g><g clip-path="url(#clip021)"><g><g transform="translate(821.5661,1653.221)"><text><tspan x="0" y="0" font-family="Connections Cond Light,Arial Narrow" font-weight="normal" font-style="normal" font-size="105.3333" fill="#000000">94</tspan></text></g></g></g></g><g><g clip-path="url(#clip022)"><g><g transform="translate(946.7866,1653.221)"><text><tspan x="0" y="0" font-family="Connections Cond Light,Arial Narrow" font-weight="normal" font-style="normal" font-size="105.3333" fill="#000000">96</tspan></text></g></g></g></g><g><g clip-path="url(#clip023)"><g><g transform="translate(1072.006,1653.221)"><text><tspan x="0" y="0" font-family="Connections Cond Light,Arial Narrow" font-weight="normal" font-style="normal" font-size="105.3333" fill="#000000">99</tspan></text></g></g></g></g><g><g clip-path="url(#clip024)"><g><g transform="translate(1197.227,1653.221)"><text><tspan x="0" y="0" font-family="Connections Cond Light,Arial Narrow" font-weight="normal" font-style="normal" font-size="105.3333" fill="#000000">01</tspan></text></g></g></g></g><g><g clip-path="url(#clip025)"><g><g transform="translate(1322.446,1653.221)"><text><tspan x="0" y="0" font-family="Connections Cond Light,Arial Narrow" font-weight="normal" font-style="normal" font-size="105.3333" fill="#000000">03</tspan></text></g></g></g></g><g><g clip-path="url(#clip026)"><g><g transform="translate(1447.667,1653.221)"><text><tspan x="0" y="0" font-family="Connections Cond Light,Arial Narrow" font-weight="normal" font-style="normal" font-size="105.3333" fill="#000000">05</tspan></text></g></g></g></g><g><g clip-path="url(#clip027)"><g><g transform="translate(1572.886,1653.221)"><text><tspan x="0" y="0" font-family="Connections Cond Light,Arial Narrow" font-weight="normal" font-style="normal" font-size="105.3333" fill="#000000">07</tspan></text></g></g></g></g><g><g clip-path="url(#clip028)"><g><g transform="translate(1698.107,1653.221)"><text><tspan x="0" y="0" font-family="Connections Cond Light,Arial Narrow" font-weight="normal" font-style="normal" font-size="105.3333" fill="#000000">09</tspan></text></g></g></g></g><g><g clip-path="url(#clip029)"><g><g transform="translate(1823.326,1653.221)"><text><tspan x="0" y="0" font-family="Connections Cond Light,Arial Narrow" font-weight="normal" font-style="normal" font-size="105.3333" fill="#000000">12</tspan></text></g></g></g></g><g><g clip-path="url(#clip030)"><g><g transform="translate(1948.547,1653.221)"><text><tspan x="0" y="0" font-family="Connections Cond Light,Arial Narrow" font-weight="normal" font-style="normal" font-size="105.3333" fill="#000000">14</tspan></text></g></g></g></g><g><g clip-path="url(#clip031)"><g><g transform="translate(2073.766,1653.221)"><text><tspan x="0" y="0" font-family="Connections Cond Light,Arial Narrow" font-weight="normal" font-style="normal" font-size="105.3333" fill="#000000">16</tspan></text></g></g></g></g><g><g clip-path="url(#clip032)"><g><g transform="translate(2198.986,1653.221)"><text><tspan x="0" y="0" font-family="Connections Cond Light,Arial Narrow" font-weight="normal" font-style="normal" font-size="105.3333" fill="#000000">18</tspan></text></g></g></g></g><g><g clip-path="url(#clip033)"><g><g transform="translate(2324.207,1653.221)"><text><tspan x="0" y="0" font-family="Connections Cond Light,Arial Narrow" font-weight="normal" font-style="normal" font-size="105.3333" fill="#000000">20</tspan></text></g></g></g></g><g><g clip-path="url(#clip034)"><g><g transform="translate(2449.426,1653.221)"><text><tspan x="0" y="0" font-family="Connections Cond Light,Arial Narrow" font-weight="normal" font-style="normal" font-size="105.3333" fill="#000000">22</tspan></text></g></g></g></g><g><g clip-path="url(#clip035)"><g><g transform="translate(2574.646,1653.221)"><text><tspan x="0" y="0" font-family="Connections Cond Light,Arial Narrow" font-weight="normal" font-style="normal" font-size="105.3333" fill="#000000">25</tspan></text></g></g></g></g><g clip-path="url(#clip036)"><g transform="matrix(0.000656168,0,0,0.000656168,297.3333,36)"><path d="M0,0 L325120,0 L325120,69088 L0,69088 Z" fill="#a6a6a6" fill-rule="evenodd" /></g></g><g><g clip-path="url(#clip037)"><g><g transform="translate(533.6649,83.32108)"><text><tspan x="0" y="0" font-family="Connections Cond Light,Arial Narrow" font-weight="normal" font-style="normal" font-size="89.33334" fill="#000000">Tech bubble peak (March 24, 2000)</tspan></text></g></g></g></g><g clip-path="url(#clip038)"><g transform="matrix(0.000656168,0,0,0.000656168,298,170)"><path d="M0,0 L325120,1.333333 " stroke-width="33866.67" stroke-linecap="round" stroke-linejoin="round" stroke-miterlimit="13.33333" stroke="#012169" fill="none" fill-rule="evenodd" /></g></g><g><g clip-path="url(#clip039)"><g><g transform="translate(533.6649,195.1969)"><text><tspan x="0" y="0" font-family="Connections Cond Light,Arial Narrow" font-weight="normal" font-style="normal" font-size="89.33334" fill="#000000">Tech (top quintile)</tspan></text></g></g></g></g><g clip-path="url(#clip040)"><g transform="matrix(0.000656168,0,0,0.000656168,298,282)"><path d="M0,0 L325120,1.333333 " stroke-width="38100" stroke-linecap="round" stroke-linejoin="round" stroke-miterlimit="13.33333" stroke="#009cde" fill="none" fill-rule="evenodd" /></g></g><g><g clip-path="url(#clip041)"><g><g transform="translate(533.6649,307.0726)"><text><tspan x="0" y="0" font-family="Connections Cond Light,Arial Narrow" font-weight="normal" font-style="normal" font-size="89.33334" fill="#000000">Tech (bottom quintile)</tspan></text></g></g></g></g><g><g clip-path="url(#clip042)"><g><g transform="translate(731.6465,465.8626)"><text><tspan x="0" y="0" font-family="Connections Cond Light,Arial Narrow" font-weight="normal" font-style="normal" font-size="105.3333" fill="#000000">Feb 2000</tspan></text></g></g></g></g><g clip-path="url(#clip043)"><g transform="matrix(0.000656168,0,0,0.000656168,1142,380.6667)"><path d="M0,60960 C0,27292.72 35025.66,0 78232,0 L78232,0 C121438.3,0 156464,27292.72 156464,60960 L156464,60960 C156464,94627.28 121438.3,121920 78232,121920 L78232,121920 C35025.66,121920 0,94627.28 0,60960 Z" stroke-width="33866.67" stroke-linejoin="round" stroke-miterlimit="13.33333" stroke="#ff0000" fill="none" fill-rule="evenodd" /></g></g><g /></g></g></g></g></g></g></g></g></g></svg>