<svg version="1.1" width="100%" height="100%" viewBox="0 0 332 209" xmlns="http://www.w3.org/2000/svg" xmlns:xlink="http://www.w3.org/1999/xlink"><style type="text/css" /><defs><clipPath id="clip001"><path d="M0,0 L2568,0 L2568,1742.667 L0,1742.667 Z" clip-rule="evenodd" /></clipPath><clipPath id="clip002"><path d="M0,0 L2568,0 L2568,1742.667 L0,1742.667 Z" clip-rule="evenodd" /></clipPath><clipPath id="clip003"><path d="M0,0 L2568,0 L2568,1742.667 L0,1742.667 Z" clip-rule="evenodd" /></clipPath><clipPath id="clip004"><path d="M0,0 L5200,0 L5200,1850.667 L0,1850.667 Z" clip-rule="evenodd" /></clipPath><clipPath id="clip005"><path d="M-800,0 L6000,0 L6000,1850.667 L-800,1850.667 Z" clip-rule="evenodd" /></clipPath><clipPath id="clip006"><path d="M0,0 L2561.333,0 L2561.333,1741.333 L0,1741.333 Z" clip-rule="evenodd" /></clipPath><clipPath id="clip007"><path d="M0,0 L2561.333,0 L2561.333,1741.333 L0,1741.333 Z" clip-rule="evenodd" /></clipPath><clipPath id="clip008"><path d="M0,0 L2561.333,0 L2561.333,1741.333 L0,1741.333 Z" clip-rule="evenodd" /></clipPath><clipPath id="clip009"><path d="M0,0 L2561.333,0 L2561.333,1741.333 L0,1741.333 Z" clip-rule="evenodd" /></clipPath><clipPath id="clip010"><path d="M0,0 L2561.333,0 L2561.333,1741.333 L0,1741.333 Z" clip-rule="evenodd" /></clipPath><clipPath id="clip011"><path d="M0,0 L2561.333,0 L2561.333,1741.333 L0,1741.333 Z" clip-rule="evenodd" /></clipPath><clipPath id="clip012"><path d="M0,0 L2561.333,0 L2561.333,1741.333 L0,1741.333 Z" clip-rule="evenodd" /></clipPath><clipPath id="clip013"><path d="M0,0 L2561.333,0 L2561.333,1741.333 L0,1741.333 Z" clip-rule="evenodd" /></clipPath><clipPath id="clip014"><path d="M0,0 L2561.333,0 L2561.333,1741.333 L0,1741.333 Z" clip-rule="evenodd" /></clipPath></defs><clipPath id="page-clip-path-1"><rect x="0" y="0" width="332" height="209.33" /></clipPath><g clip-path="url(#page-clip-path-1)"><g transform="translate(1,1)"><g><g transform="matrix(0.1197041,0,0,0.1199694,0,0)" clip-path="url(#clip001)"><g><g clip-path="url(#clip002)"><g><g clip-path="url(#clip003)"><g transform="matrix(1.000214,0,0,1.000944,0.00016276,0)"><g><g><g clip-path="url(#clip004)"><g transform="translate(2561.333,1742.667)" /></g></g></g><g clip-path="url(#clip005)"><g transform="matrix(0.000656168,0,0,0.000656168,0,0)"><path d="M0,0 L3903472,0 L3903472,2655824 L0,2655824 Z" fill="#ffffff" fill-opacity="0" fill-rule="evenodd" /></g></g><g clip-path="url(#clip006)"><g transform="matrix(0.000656168,0,0,0.000656168,531.944,122.2222)"><path d="M1141307,0 C1771633,0 2282613,510980.4 2282613,1141307 L2282613,1141307 C2282613,1771633 1771633,2282613 1141307,2282613 L1141307,2282613 C545260.8,2282613 49586.72,1823948 3427.535,1229692 L3427.535,1229692 L1141307,1141307 Z" fill="#012169" fill-rule="evenodd" /><path d="M1141307,0 C1771633,0 2282613,510980.4 2282613,1141307 L2282613,1141307 C2282613,1771633 1771633,2282613 1141307,2282613 L1141307,2282613 C545260.8,2282613 49586.72,1823948 3427.535,1229692 L3427.535,1229692 L1141307,1141307 Z" stroke-width="8466.667" stroke-linejoin="round" stroke-miterlimit="13.33333" stroke="#ffffff" fill="none" fill-rule="evenodd" /></g></g><g clip-path="url(#clip007)"><g transform="matrix(0.000656168,0,0,0.000656168,531.944,122.2222)"><path d="M3427.415,1229693 C-16471.99,973506.9 50662.27,718101.7 193964.6,504813.8 L193964.6,504813.8 L1141307,1141307 Z" fill="#009cde" fill-rule="evenodd" /><path d="M3427.415,1229693 C-16471.99,973506.9 50662.27,718101.7 193964.6,504813.8 L193964.6,504813.8 L1141307,1141307 Z" stroke-width="8466.667" stroke-linejoin="round" stroke-miterlimit="13.33333" stroke="#ffffff" fill="none" fill-rule="evenodd" /></g></g><g clip-path="url(#clip008)"><g transform="matrix(0.000656168,0,0,0.000656168,531.944,122.2222)"><path d="M193964.7,504813.5 C405967.7,189273.4 761160.8,0.5809892 1141307,0.5809892 L1141307,0.5809892 L1141307,1141307 Z" fill="#e56200" fill-rule="evenodd" /><path d="M193964.7,504813.5 C405967.7,189273.4 761160.8,0.5809892 1141307,0.5809892 L1141307,0.5809892 L1141307,1141307 Z" stroke-width="8466.667" stroke-linejoin="round" stroke-miterlimit="13.33333" stroke="#ffffff" fill="none" fill-rule="evenodd" /></g></g><g><g clip-path="url(#clip009)"><g><g transform="translate(1586.089,1208.424)"><text><tspan x="0" y="0" font-family="Connections Cond Bld,Arial Narrow" font-weight="normal" font-style="normal" font-size="105.3333" fill="#ffffff">R&amp;D</tspan></text></g></g></g></g><g><g clip-path="url(#clip010)"><g><g transform="translate(1582.089,1340.424)"><text><tspan x="0" y="0" font-family="Connections Cond Bld,Arial Narrow" font-weight="normal" font-style="normal" font-size="105.3333" fill="#ffffff">74%</tspan></text></g></g></g></g><g><g clip-path="url(#clip011)"><g><g transform="translate(616.6548,691.5346)"><text><tspan x="0" y="0" font-family="Connections Cond Bld,Arial Narrow" font-weight="normal" font-style="normal" font-size="105.3333" fill="#ffffff">S&amp;M</tspan></text></g></g></g></g><g><g clip-path="url(#clip012)"><g><g transform="translate(620.6548,823.5346)"><text><tspan x="0" y="0" font-family="Connections Cond Bld,Arial Narrow" font-weight="normal" font-style="normal" font-size="105.3333" fill="#ffffff">11%</tspan></text></g></g></g></g><g><g clip-path="url(#clip013)"><g><g transform="translate(927.2427,351.3456)"><text><tspan x="0" y="0" font-family="Connections Cond Bld,Arial Narrow" font-weight="normal" font-style="normal" font-size="105.3333" fill="#ffffff">G&amp;A</tspan></text></g></g></g></g><g><g clip-path="url(#clip014)"><g><g transform="translate(923.2427,483.3456)"><text><tspan x="0" y="0" font-family="Connections Cond Bld,Arial Narrow" font-weight="normal" font-style="normal" font-size="105.3333" fill="#ffffff">15%</tspan></text></g></g></g></g><g /></g></g></g></g></g></g></g></g></g></svg>