<svg version="1.1" width="100%" height="100%" viewBox="0 0 355 241" xmlns="http://www.w3.org/2000/svg" xmlns:xlink="http://www.w3.org/1999/xlink"><style type="text/css" /><defs><clipPath id="clip001"><path d="M0,0 L2761.333,0 L2761.333,2010.667 L0,2010.667 Z" clip-rule="evenodd" /></clipPath><clipPath id="clip002"><path d="M0,0 L2761.333,0 L2761.333,2010.667 L0,2010.667 Z" clip-rule="evenodd" /></clipPath><clipPath id="clip003"><path d="M0,0 L2761.333,0 L2761.333,2010.667 L0,2010.667 Z" clip-rule="evenodd" /></clipPath><clipPath id="clip004"><path d="M0,0 L5200,0 L5200,2120 L0,2120 Z" clip-rule="evenodd" /></clipPath><clipPath id="clip005"><path d="M-800,0 L6000,0 L6000,2120 L-800,2120 Z" clip-rule="evenodd" /></clipPath><clipPath id="clip006"><path d="M0,0 L2753.333,0 L2753.333,2010.667 L0,2010.667 Z" clip-rule="evenodd" /></clipPath><clipPath id="clip007"><path d="M0,0 L2753.333,0 L2753.333,2010.667 L0,2010.667 Z" clip-rule="evenodd" /></clipPath><clipPath id="clip008"><path d="M0,0 L2753.333,0 L2753.333,2010.667 L0,2010.667 Z" clip-rule="evenodd" /></clipPath><clipPath id="clip009"><path d="M0,0 L2753.333,0 L2753.333,2010.667 L0,2010.667 Z" clip-rule="evenodd" /></clipPath><clipPath id="clip010"><path d="M0,0 L2753.333,0 L2753.333,2010.667 L0,2010.667 Z" clip-rule="evenodd" /></clipPath><clipPath id="clip011"><path d="M0,0 L2753.333,0 L2753.333,2010.667 L0,2010.667 Z" clip-rule="evenodd" /></clipPath><clipPath id="clip012"><path d="M0,0 L2753.333,0 L2753.333,2010.667 L0,2010.667 Z" clip-rule="evenodd" /></clipPath><clipPath id="clip013"><path d="M0,0 L2753.333,0 L2753.333,2010.667 L0,2010.667 Z" clip-rule="evenodd" /></clipPath><clipPath id="clip014"><path d="M0,0 L2753.333,0 L2753.333,2010.667 L0,2010.667 Z" clip-rule="evenodd" /></clipPath><clipPath id="clip015"><path d="M0,0 L2753.333,0 L2753.333,2010.667 L0,2010.667 Z" clip-rule="evenodd" /></clipPath><clipPath id="clip016"><path d="M0,0 L2753.333,0 L2753.333,2010.667 L0,2010.667 Z" clip-rule="evenodd" /></clipPath><clipPath id="clip017"><path d="M0,0 L2753.333,0 L2753.333,2010.667 L0,2010.667 Z" clip-rule="evenodd" /></clipPath><clipPath id="clip018"><path d="M0,0 L2753.333,0 L2753.333,2010.667 L0,2010.667 Z" clip-rule="evenodd" /></clipPath><clipPath id="clip019"><path d="M0,0 L2753.333,0 L2753.333,2010.667 L0,2010.667 Z" clip-rule="evenodd" /></clipPath><clipPath id="clip020"><path d="M0,0 L2753.333,0 L2753.333,2010.667 L0,2010.667 Z" clip-rule="evenodd" /></clipPath><clipPath id="clip021"><path d="M0,0 L2753.333,0 L2753.333,2010.667 L0,2010.667 Z" clip-rule="evenodd" /></clipPath><clipPath id="clip022"><path d="M0,0 L2753.333,0 L2753.333,2010.667 L0,2010.667 Z" clip-rule="evenodd" /></clipPath><clipPath id="clip023"><path d="M0,0 L2753.333,0 L2753.333,2010.667 L0,2010.667 Z" clip-rule="evenodd" /></clipPath><clipPath id="clip024"><path d="M0,0 L2753.333,0 L2753.333,2010.667 L0,2010.667 Z" clip-rule="evenodd" /></clipPath><clipPath id="clip025"><path d="M0,0 L2753.333,0 L2753.333,2010.667 L0,2010.667 Z" clip-rule="evenodd" /></clipPath><clipPath id="clip026"><path d="M0,0 L2753.333,0 L2753.333,2010.667 L0,2010.667 Z" clip-rule="evenodd" /></clipPath><clipPath id="clip027"><path d="M0,0 L2753.333,0 L2753.333,2010.667 L0,2010.667 Z" clip-rule="evenodd" /></clipPath><clipPath id="clip028"><path d="M0,0 L2753.333,0 L2753.333,2010.667 L0,2010.667 Z" clip-rule="evenodd" /></clipPath></defs><clipPath id="page-clip-path-1"><rect x="0" y="0" width="354.67" height="241.33" /></clipPath><g clip-path="url(#page-clip-path-1)" transform="translate(0.17,0)"><g transform="translate(1,1)"><g><g transform="matrix(0.1197006,0,0,0.1200265,0,0)" clip-path="url(#clip001)"><g><g clip-path="url(#clip002)"><g><g clip-path="url(#clip003)"><g transform="matrix(1.000214,0,0,1.000395,0.00016276,0)"><g><g><g clip-path="url(#clip004)"><g transform="translate(2753.333,2012)" /></g></g></g><g clip-path="url(#clip005)"><g transform="matrix(0.000656168,0,0,0.000656168,0,0)"><path d="M0,0 L4198112,0 L4198112,3064256 L0,3064256 Z" fill="#ffffff" fill-opacity="0" fill-rule="evenodd" /></g></g><g clip-path="url(#clip006)"><g transform="matrix(0.000656168,0,0,0.000656168,493.8889,122.2222)"><path d="M1346200,0 C2089686,0 2692400,602714.3 2692400,1346200 L2692400,1346200 C2692400,1382388 2690941,1418561 2688026,1454631 L2688026,1454631 L1346200,1346200 Z" fill="#012169" fill-rule="evenodd" /><path d="M1346200,0 C2089686,0 2692400,602714.3 2692400,1346200 L2692400,1346200 C2692400,1382388 2690941,1418561 2688026,1454631 L2688026,1454631 L1346200,1346200 Z" stroke-width="8466.667" stroke-linejoin="round" stroke-miterlimit="13.33333" stroke="#ffffff" fill="none" fill-rule="evenodd" /></g></g><g clip-path="url(#clip007)"><g transform="matrix(0.000656168,0,0,0.000656168,493.8889,122.2222)"><path d="M2688027,1454629 C2633723,2126643 2090674,2654850 1417413,2690514 L1417413,2690514 L1346200,1346200 Z" fill="#009cde" fill-rule="evenodd" /><path d="M2688027,1454629 C2633723,2126643 2090674,2654850 1417413,2690514 L1417413,2690514 L1346200,1346200 Z" stroke-width="8466.667" stroke-linejoin="round" stroke-miterlimit="13.33333" stroke="#ffffff" fill="none" fill-rule="evenodd" /></g></g><g clip-path="url(#clip008)"><g transform="matrix(0.000656168,0,0,0.000656168,493.8889,122.2222)"><path d="M1417411,2690516 C674966.6,2729844 41213.77,2159857 1884.83,1417412 L1884.83,1417412 C-37444.11,674966.8 532543.9,41214.05 1274989,1885.106 L1274989,1885.106 C1288815,1152.688 1302652,633.6236 1316495,328.0989 L1316495,328.0989 L1346200,1346200 Z" fill="#e56200" fill-rule="evenodd" /><path d="M1417411,2690516 C674966.6,2729844 41213.77,2159857 1884.83,1417412 L1884.83,1417412 C-37444.11,674966.8 532543.9,41214.05 1274989,1885.106 L1274989,1885.106 C1288815,1152.688 1302652,633.6236 1316495,328.0989 L1316495,328.0989 L1346200,1346200 Z" stroke-width="8466.667" stroke-linejoin="round" stroke-miterlimit="13.33333" stroke="#ffffff" fill="none" fill-rule="evenodd" /></g></g><g clip-path="url(#clip009)"><g transform="matrix(0.000656168,0,0,0.000656168,493.8889,122.2222)"><path d="M1316493,326.8333 C1326394,108.3184 1336296,-0.9491001 1346199,-0.9491001 L1346199,-0.9491001 L1346200,1346200 Z" fill="#006980" fill-rule="evenodd" /><path d="M1316493,326.8333 C1326394,108.3184 1336296,-0.9491001 1346199,-0.9491001 L1346199,-0.9491001 L1346200,1346200 Z" stroke-width="8466.667" stroke-linejoin="round" stroke-miterlimit="13.33333" stroke="#ffffff" fill="none" fill-rule="evenodd" /></g></g><g><g clip-path="url(#clip010)"><g><g transform="translate(1651.337,530.8101)"><text><tspan x="0" y="0" font-family="Connections Cond Bld,Arial Narrow" font-weight="normal" font-style="normal" font-size="89.33334" fill="#ffffff">Open </tspan></text></g></g></g></g><g><g clip-path="url(#clip011)"><g><g transform="translate(1515.337,641.4768)"><text><tspan x="0" y="0" font-family="Connections Cond Bld,Arial Narrow" font-weight="normal" font-style="normal" font-size="89.33334" fill="#ffffff">platform and </tspan></text></g></g></g></g><g><g clip-path="url(#clip012)"><g><g transform="translate(1684.671,752.1435)"><text><tspan x="0" y="0" font-family="Connections Cond Bld,Arial Narrow" font-weight="normal" font-style="normal" font-size="89.33334" fill="#ffffff">API</tspan></text></g></g></g></g><g><g clip-path="url(#clip013)"><g><g transform="translate(1660.671,862.8101)"><text><tspan x="0" y="0" font-family="Connections Cond Bld,Arial Narrow" font-weight="normal" font-style="normal" font-size="89.33334" fill="#ffffff">26%</tspan></text></g></g></g></g><g><g clip-path="url(#clip014)"><g><g transform="translate(1594.284,1351.474)"><text><tspan x="0" y="0" font-family="Connections Cond Bld,Arial Narrow" font-weight="normal" font-style="normal" font-size="89.33334" fill="#ffffff">Enterprise</tspan></text></g></g></g></g><g><g clip-path="url(#clip015)"><g><g transform="translate(1959.618,1351.474)"><text><tspan x="0" y="0" font-family="Connections Cond Bld,Arial Narrow" font-weight="normal" font-style="normal" font-size="89.33334" fill="#ffffff">-</tspan></text></g></g></g></g><g><g clip-path="url(#clip016)"><g><g transform="translate(1582.284,1462.141)"><text><tspan x="0" y="0" font-family="Connections Cond Bld,Arial Narrow" font-weight="normal" font-style="normal" font-size="89.33334" fill="#ffffff">level agents</tspan></text></g></g></g></g><g><g clip-path="url(#clip017)"><g><g transform="translate(1708.951,1572.807)"><text><tspan x="0" y="0" font-family="Connections Cond Bld,Arial Narrow" font-weight="normal" font-style="normal" font-size="89.33334" fill="#ffffff">23%</tspan></text></g></g></g></g><g><g clip-path="url(#clip018)"><g><g transform="translate(602.0963,835.4667)"><text><tspan x="0" y="0" font-family="Connections Cond Bld,Arial Narrow" font-weight="normal" font-style="normal" font-size="89.33334" fill="#ffffff">Enterprise</tspan></text></g></g></g></g><g><g clip-path="url(#clip019)"><g><g transform="translate(967.4296,835.4667)"><text><tspan x="0" y="0" font-family="Connections Cond Bld,Arial Narrow" font-weight="normal" font-style="normal" font-size="89.33334" fill="#ffffff">-</tspan></text></g></g></g></g><g><g clip-path="url(#clip020)"><g><g transform="translate(560.7629,946.1334)"><text><tspan x="0" y="0" font-family="Connections Cond Bld,Arial Narrow" font-weight="normal" font-style="normal" font-size="89.33334" fill="#ffffff">level general</tspan></text></g></g></g></g><g><g clip-path="url(#clip021)"><g><g transform="translate(1008.763,946.1334)"><text><tspan x="0" y="0" font-family="Connections Cond Bld,Arial Narrow" font-weight="normal" font-style="normal" font-size="89.33334" fill="#ffffff">-</tspan></text></g></g></g></g><g><g clip-path="url(#clip022)"><g><g transform="translate(559.4296,1056.8)"><text><tspan x="0" y="0" font-family="Connections Cond Bld,Arial Narrow" font-weight="normal" font-style="normal" font-size="89.33334" fill="#ffffff">purpose large </tspan></text></g></g></g></g><g><g clip-path="url(#clip023)"><g><g transform="translate(672.7629,1167.467)"><text><tspan x="0" y="0" font-family="Connections Cond Bld,Arial Narrow" font-weight="normal" font-style="normal" font-size="89.33334" fill="#ffffff">models</tspan></text></g></g></g></g><g><g clip-path="url(#clip024)"><g><g transform="translate(716.7629,1278.133)"><text><tspan x="0" y="0" font-family="Connections Cond Bld,Arial Narrow" font-weight="normal" font-style="normal" font-size="89.33334" fill="#ffffff">51%</tspan></text></g></g></g></g><g><g clip-path="url(#clip025)"><g><g transform="translate(1205.68,220.0735)"><text><tspan x="0" y="0" font-family="Connections Cond Bld,Arial Narrow" font-weight="normal" font-style="normal" font-size="89.33334" fill="#ffffff">Technical </tspan></text></g></g></g></g><g><g clip-path="url(#clip026)"><g><g transform="translate(1172.347,330.7401)"><text><tspan x="0" y="0" font-family="Connections Cond Bld,Arial Narrow" font-weight="normal" font-style="normal" font-size="89.33334" fill="#ffffff">service and </tspan></text></g></g></g></g><g><g clip-path="url(#clip027)"><g><g transform="translate(1256.347,441.4068)"><text><tspan x="0" y="0" font-family="Connections Cond Bld,Arial Narrow" font-weight="normal" font-style="normal" font-size="89.33334" fill="#ffffff">others</tspan></text></g></g></g></g><g><g clip-path="url(#clip028)"><g><g transform="translate(1311.014,552.0735)"><text><tspan x="0" y="0" font-family="Connections Cond Bld,Arial Narrow" font-weight="normal" font-style="normal" font-size="89.33334" fill="#ffffff">0%</tspan></text></g></g></g></g><g /></g></g></g></g></g></g></g></g></g></svg>