<?xml version="1.0" encoding="UTF-8" standalone="no"?>
<svg xmlns:dc="http://purl.org/dc/elements/1.1/" xmlns:cc="http://creativecommons.org/ns#" xmlns:rdf="http://www.w3.org/1999/02/22-rdf-syntax-ns#" xmlns:svg="http://www.w3.org/2000/svg" xmlns="http://www.w3.org/2000/svg" viewBox="63 313.8 639 362.4" height="362.4" width="639" xml:space="preserve" version="1.1" id="svg2">
  <metadata id="metadata8">
    <rdf:RDF>
      <cc:Work rdf:about="">
        <dc:format>image/svg+xml</dc:format>
        <dc:type rdf:resource="http://purl.org/dc/dcmitype/StillImage"/>
      </cc:Work>
    </rdf:RDF>
  </metadata>
  <defs id="defs6">
    <clipPath id="clipPath16" clipPathUnits="userSpaceOnUse">
      <path style="clip-rule:evenodd" id="path18" d="m 50.4,251.04 511.2,0 0,289.92 -511.2,0 0,-289.92 z"/>
    </clipPath>
    <clipPath id="clipPath26" clipPathUnits="userSpaceOnUse">
      <path style="clip-rule:evenodd" id="path28" d="m 50.4,251.04 511.2,0 0,289.92 -511.2,0 0,-289.92 z"/>
    </clipPath>
    <clipPath id="clipPath36" clipPathUnits="userSpaceOnUse">
      <path style="clip-rule:evenodd" id="path38" d="m 50.4,519.6 508.44,0 0,21.36 -508.44,0 0,-21.36 z"/>
    </clipPath>
    <clipPath id="clipPath48" clipPathUnits="userSpaceOnUse">
      <path style="clip-rule:evenodd" id="path50" d="m 50.4,519.6 508.44,0 0,21.36 -508.44,0 0,-21.36 z"/>
    </clipPath>
    <clipPath id="clipPath60" clipPathUnits="userSpaceOnUse">
      <path style="clip-rule:evenodd" id="path62" d="m 50.4,519.6 508.44,0 0,21.36 -508.44,0 0,-21.36 z"/>
    </clipPath>
    <clipPath id="clipPath72" clipPathUnits="userSpaceOnUse">
      <path style="clip-rule:evenodd" id="path74" d="m 50.4,251.04 511.2,0 0,289.92 -511.2,0 0,-289.92 z"/>
    </clipPath>
    <clipPath id="clipPath90" clipPathUnits="userSpaceOnUse">
      <path style="clip-rule:evenodd" id="path92" d="m 50.42,251.12 511.04,0 0,289.83 -511.04,0 0,-289.83 z"/>
    </clipPath>
    <clipPath id="clipPath100" clipPathUnits="userSpaceOnUse">
      <path style="clip-rule:evenodd" id="path102" d="m 50.52,251.04 510.96,0 0,289.8 -510.96,0 0,-289.8 z"/>
    </clipPath>
    <clipPath id="clipPath112" clipPathUnits="userSpaceOnUse">
      <path style="clip-rule:evenodd" id="path114" d="m 50.52,251.04 510.96,0 0,289.8 -510.96,0 0,-289.8 z"/>
    </clipPath>
    <clipPath id="clipPath124" clipPathUnits="userSpaceOnUse">
      <path style="clip-rule:evenodd" id="path126" d="m 50.52,251.04 510.96,0 0,289.8 -510.96,0 0,-289.8 z"/>
    </clipPath>
    <clipPath id="clipPath136" clipPathUnits="userSpaceOnUse">
      <path style="clip-rule:evenodd" id="path138" d="m 50.52,251.04 510.96,0 0,289.8 -510.96,0 0,-289.8 z"/>
    </clipPath>
    <clipPath id="clipPath148" clipPathUnits="userSpaceOnUse">
      <path style="clip-rule:evenodd" id="path150" d="m 50.52,251.04 510.96,0 0,289.8 -510.96,0 0,-289.8 z"/>
    </clipPath>
    <clipPath id="clipPath160" clipPathUnits="userSpaceOnUse">
      <path style="clip-rule:evenodd" id="path162" d="m 50.52,251.04 510.96,0 0,289.8 -510.96,0 0,-289.8 z"/>
    </clipPath>
    <clipPath id="clipPath172" clipPathUnits="userSpaceOnUse">
      <path style="clip-rule:evenodd" id="path174" d="m 50.52,251.04 510.96,0 0,289.8 -510.96,0 0,-289.8 z"/>
    </clipPath>
    <clipPath id="clipPath184" clipPathUnits="userSpaceOnUse">
      <path style="clip-rule:evenodd" id="path186" d="m 50.52,251.04 510.96,0 0,289.8 -510.96,0 0,-289.8 z"/>
    </clipPath>
    <clipPath id="clipPath196" clipPathUnits="userSpaceOnUse">
      <path style="clip-rule:evenodd" id="path198" d="m 50.52,251.04 510.96,0 0,289.8 -510.96,0 0,-289.8 z"/>
    </clipPath>
    <clipPath id="clipPath208" clipPathUnits="userSpaceOnUse">
      <path style="clip-rule:evenodd" id="path210" d="m 50.52,251.04 510.96,0 0,289.8 -510.96,0 0,-289.8 z"/>
    </clipPath>
    <clipPath id="clipPath220" clipPathUnits="userSpaceOnUse">
      <path style="clip-rule:evenodd" id="path222" d="m 50.52,251.04 510.96,0 0,289.8 -510.96,0 0,-289.8 z"/>
    </clipPath>
    <clipPath id="clipPath232" clipPathUnits="userSpaceOnUse">
      <path style="clip-rule:evenodd" id="path234" d="m 50.52,251.04 510.96,0 0,289.8 -510.96,0 0,-289.8 z"/>
    </clipPath>
    <clipPath id="clipPath244" clipPathUnits="userSpaceOnUse">
      <path style="clip-rule:evenodd" id="path246" d="m 50.52,251.04 510.96,0 0,289.8 -510.96,0 0,-289.8 z"/>
    </clipPath>
    <clipPath id="clipPath256" clipPathUnits="userSpaceOnUse">
      <path style="clip-rule:evenodd" id="path258" d="m 50.52,251.04 510.96,0 0,289.8 -510.96,0 0,-289.8 z"/>
    </clipPath>
    <clipPath id="clipPath268" clipPathUnits="userSpaceOnUse">
      <path style="clip-rule:evenodd" id="path270" d="m 50.52,251.04 510.96,0 0,289.8 -510.96,0 0,-289.8 z"/>
    </clipPath>
    <clipPath id="clipPath280" clipPathUnits="userSpaceOnUse">
      <path style="clip-rule:evenodd" id="path282" d="m 50.52,251.04 510.96,0 0,289.8 -510.96,0 0,-289.8 z"/>
    </clipPath>
    <clipPath id="clipPath292" clipPathUnits="userSpaceOnUse">
      <path style="clip-rule:evenodd" id="path294" d="m 50.52,251.04 510.96,0 0,289.8 -510.96,0 0,-289.8 z"/>
    </clipPath>
    <clipPath id="clipPath304" clipPathUnits="userSpaceOnUse">
      <path style="clip-rule:evenodd" id="path306" d="m 50.52,251.04 510.96,0 0,289.8 -510.96,0 0,-289.8 z"/>
    </clipPath>
    <clipPath id="clipPath316" clipPathUnits="userSpaceOnUse">
      <path style="clip-rule:evenodd" id="path318" d="m 50.52,251.04 510.96,0 0,289.8 -510.96,0 0,-289.8 z"/>
    </clipPath>
    <clipPath id="clipPath328" clipPathUnits="userSpaceOnUse">
      <path style="clip-rule:evenodd" id="path330" d="m 50.52,251.04 510.96,0 0,289.8 -510.96,0 0,-289.8 z"/>
    </clipPath>
    <clipPath id="clipPath340" clipPathUnits="userSpaceOnUse">
      <path style="clip-rule:evenodd" id="path342" d="m 50.52,251.04 510.96,0 0,289.8 -510.96,0 0,-289.8 z"/>
    </clipPath>
    <clipPath id="clipPath352" clipPathUnits="userSpaceOnUse">
      <path style="clip-rule:evenodd" id="path354" d="m 50.52,251.04 510.96,0 0,289.8 -510.96,0 0,-289.8 z"/>
    </clipPath>
    <clipPath id="clipPath364" clipPathUnits="userSpaceOnUse">
      <path style="clip-rule:evenodd" id="path366" d="m 50.52,251.04 510.96,0 0,289.8 -510.96,0 0,-289.8 z"/>
    </clipPath>
    <clipPath id="clipPath376" clipPathUnits="userSpaceOnUse">
      <path style="clip-rule:evenodd" id="path378" d="m 50.52,251.04 510.96,0 0,289.8 -510.96,0 0,-289.8 z"/>
    </clipPath>
    <clipPath id="clipPath388" clipPathUnits="userSpaceOnUse">
      <path style="clip-rule:evenodd" id="path390" d="m 50.52,251.04 510.96,0 0,289.8 -510.96,0 0,-289.8 z"/>
    </clipPath>
    <clipPath id="clipPath404" clipPathUnits="userSpaceOnUse">
      <path style="clip-rule:evenodd" id="path406" d="m 50.52,251.04 510.96,0 0,289.8 -510.96,0 0,-289.8 z"/>
    </clipPath>
    <clipPath id="clipPath418" clipPathUnits="userSpaceOnUse">
      <path style="clip-rule:evenodd" id="path420" d="m 50.52,251.04 510.96,0 0,289.8 -510.96,0 0,-289.8 z"/>
    </clipPath>
    <clipPath id="clipPath432" clipPathUnits="userSpaceOnUse">
      <path style="clip-rule:evenodd" id="path434" d="m 50.52,251.04 510.96,0 0,289.8 -510.96,0 0,-289.8 z"/>
    </clipPath>
  </defs>
  <g transform="matrix(1.25,0,0,-1.25,0,990)" id="g10">
    <g id="g12">
      <g clip-path="url(#clipPath16)" id="g14">
        <path id="path20" style="fill:none;stroke:#000000;stroke-width:0.14;stroke-linecap:butt;stroke-linejoin:miter;stroke-miterlimit:10;stroke-dasharray:none;stroke-opacity:0" d="m 47.726,519.69 511.04,0 0,289.83 -511.04,0 0,-289.83 z"/>
      </g>
    </g>
    <g id="g22">
      <g clip-path="url(#clipPath26)" id="g24">
        <path id="path30" style="fill:#ffffff;fill-opacity:1;fill-rule:evenodd;stroke:none" d="m 47.726,519.69 511.04,0 0,289.83 -511.04,0 0,-289.83 z"/>
      </g>
    </g>
    <g id="g32">
      <g clip-path="url(#clipPath36)" id="g34"><text id="text40" style="font-variant:normal;font-weight:normal;font-size:11.88000011px;font-family:'Roboto Condensed';-inkscape-font-specification:RobotoCondensed-Regular;writing-mode:lr-tb;fill:#000000;fill-opacity:1;fill-rule:nonzero;stroke:none" transform="matrix(1,0,0,-1,155.26,543.67)"><tspan id="tspan42" y="0" x="0 5.85602 11.71204 17.56806">2023</tspan></text>
</g>
    </g>
    <g id="g44">
      <g clip-path="url(#clipPath48)" id="g46"><text id="text52" style="font-variant:normal;font-weight:normal;font-size:11.88000011px;font-family:'Roboto Condensed';-inkscape-font-specification:RobotoCondensed-Regular;writing-mode:lr-tb;fill:#000000;fill-opacity:1;fill-rule:nonzero;stroke:none" transform="matrix(1,0,0,-1,312,543.67)"><tspan id="tspan54" y="0" x="0 5.85602 11.71204 17.56806">2024</tspan></text>
</g>
    </g>
    <g id="g56">
      <g clip-path="url(#clipPath60)" id="g58"><text id="text64" style="font-variant:normal;font-weight:normal;font-size:11.88000011px;font-family:'Roboto Condensed';-inkscape-font-specification:RobotoCondensed-Regular;writing-mode:lr-tb;fill:#000000;fill-opacity:1;fill-rule:nonzero;stroke:none" transform="matrix(1,0,0,-1,468.74,543.67)"><tspan id="tspan66" y="0" x="0 5.8800201 11.76004 17.64006">2025</tspan></text>
</g>
    </g>
    <g id="g68">
      <g clip-path="url(#clipPath72)" id="g70">
        <path id="path76" style="fill:none;stroke:#000000;stroke-width:0.14;stroke-linecap:butt;stroke-linejoin:miter;stroke-miterlimit:10;stroke-dasharray:none;stroke-opacity:0" d="m 50.44,251.1 511.04,0 0,289.83 -511.04,0 0,-289.83 z"/>
      </g>
    </g>
    <path id="path78" style="fill:#ffffff;fill-opacity:1;fill-rule:evenodd;stroke:none" d="m 50.44,251.1 511.04,0 0,289.83 -511.04,0 0,-289.83 z"/>
    <path id="path80" style="fill:#005aa4;fill-opacity:1;fill-rule:nonzero;stroke:none" d="m 110.95,478.04 26.15,0 0,-184.14 -26.15,0 0,184.14 z m 117.42,-45.8 26.15,0 0,-138.34 -26.15,0 0,138.34 z m 117.58,-0.48 26.15,0 0,-137.86 -26.15,0 0,137.86 z m 117.58,-51.65 26.15,0 0,-86.21 -26.15,0 0,86.21 z"/>
    <path id="path82" style="fill:#eadfbc;fill-opacity:1;fill-rule:nonzero;stroke:none" d="m 137.1,404.98 25.99,0 0,-111.08 -25.99,0 0,111.08 z m 117.42,30.27 26.15,0 0,-141.35 -26.15,0 0,141.35 z m 117.58,2.85 26.15,0 0,-144.2 -26.15,0 0,144.2 z m 117.58,-51.81 26.14,0 0,-92.39 -26.14,0 0,92.39 z"/>
    <path id="path84" style="fill:#226b5a;fill-opacity:1;fill-rule:nonzero;stroke:none" d="m 163.09,346.67 26.14,0 0,-52.77 -26.14,0 0,52.77 z m 117.58,31.06 26.14,0 0,-83.83 -26.14,0 0,83.83 z m 117.58,27.41 26.14,0 0,-111.24 -26.14,0 0,111.24 z m 117.57,-56.73 25.99,0 0,-54.51 -25.99,0 0,54.51 z"/>
    <g id="g86">
      <g clip-path="url(#clipPath90)" id="g88">
        <path id="path94" style="fill:none;stroke:#808080;stroke-width:1.65069997;stroke-linecap:round;stroke-linejoin:round;stroke-miterlimit:10;stroke-dasharray:none;stroke-opacity:1" d="m 91.311,293.9 470.169,0"/>
      </g>
    </g>
    <g id="g96">
      <g clip-path="url(#clipPath100)" id="g98"><text id="text104" style="font-variant:normal;font-weight:normal;font-size:11.88000011px;font-family:'Roboto Condensed';-inkscape-font-specification:RobotoCondensed-Regular;writing-mode:lr-tb;fill:#ffffff;fill-opacity:1;fill-rule:nonzero;stroke:none" transform="matrix(1,0,0,-1,114.41,460.87)"><tspan id="tspan106" y="0" x="0 5.85602 11.71204">30%</tspan></text>
</g>
    </g>
    <g id="g108">
      <g clip-path="url(#clipPath112)" id="g110"><text id="text116" style="font-variant:normal;font-weight:normal;font-size:11.88000011px;font-family:'Roboto Condensed';-inkscape-font-specification:RobotoCondensed-Regular;writing-mode:lr-tb;fill:#ffffff;fill-opacity:1;fill-rule:nonzero;stroke:none" transform="matrix(1,0,0,-1,231.96,415.01)"><tspan id="tspan118" y="0" x="0 5.8800201 11.76004">22%</tspan></text>
</g>
    </g>
    <g id="g120">
      <g clip-path="url(#clipPath124)" id="g122"><text id="text128" style="font-variant:normal;font-weight:normal;font-size:11.88000011px;font-family:'Roboto Condensed';-inkscape-font-specification:RobotoCondensed-Regular;writing-mode:lr-tb;fill:#ffffff;fill-opacity:1;fill-rule:nonzero;stroke:none" transform="matrix(1,0,0,-1,349.54,414.46)"><tspan id="tspan130" y="0" x="0 5.85602 11.71204">22%</tspan></text>
</g>
    </g>
    <g id="g132">
      <g clip-path="url(#clipPath136)" id="g134"><text id="text140" style="font-variant:normal;font-weight:normal;font-size:11.88000011px;font-family:'Roboto Condensed';-inkscape-font-specification:RobotoCondensed-Regular;writing-mode:lr-tb;fill:#ffffff;fill-opacity:1;fill-rule:nonzero;stroke:none" transform="matrix(1,0,0,-1,467.09,362.86)"><tspan id="tspan142" y="0" x="0 5.85602 11.71204">14%</tspan></text>
</g>
    </g>
    <g id="g144">
      <g clip-path="url(#clipPath148)" id="g146"><text id="text152" style="font-variant:normal;font-weight:normal;font-size:11.90400028px;font-family:'Roboto Condensed';-inkscape-font-specification:RobotoCondensed-Regular;writing-mode:lr-tb;fill:#000000;fill-opacity:1;fill-rule:nonzero;stroke:none" transform="matrix(1,0,0,-1,140.52,387.67)"><tspan id="tspan154" y="0" x="0 5.8800001 11.76">18%</tspan></text>
</g>
    </g>
    <g id="g156">
      <g clip-path="url(#clipPath160)" id="g158"><text id="text164" style="font-variant:normal;font-weight:normal;font-size:11.88000011px;font-family:'Roboto Condensed';-inkscape-font-specification:RobotoCondensed-Regular;writing-mode:lr-tb;fill:#000000;fill-opacity:1;fill-rule:nonzero;stroke:none" transform="matrix(1,0,0,-1,258.1,417.94)"><tspan id="tspan166" y="0" x="0 5.85602 11.71204">23%</tspan></text>
</g>
    </g>
    <g id="g168">
      <g clip-path="url(#clipPath172)" id="g170"><text id="text176" style="font-variant:normal;font-weight:normal;font-size:11.88000011px;font-family:'Roboto Condensed';-inkscape-font-specification:RobotoCondensed-Regular;writing-mode:lr-tb;fill:#000000;fill-opacity:1;fill-rule:nonzero;stroke:none" transform="matrix(1,0,0,-1,375.65,420.91)"><tspan id="tspan178" y="0" x="0 5.8800201 11.76004">23%</tspan></text>
</g>
    </g>
    <g id="g180">
      <g clip-path="url(#clipPath184)" id="g182"><text id="text188" style="font-variant:normal;font-weight:normal;font-size:11.88000011px;font-family:'Roboto Condensed';-inkscape-font-specification:RobotoCondensed-Regular;writing-mode:lr-tb;fill:#000000;fill-opacity:1;fill-rule:nonzero;stroke:none" transform="matrix(1,0,0,-1,493.22,369.07)"><tspan id="tspan190" y="0" x="0 5.85602 11.71204">15%</tspan></text>
</g>
    </g>
    <g id="g192">
      <g clip-path="url(#clipPath196)" id="g194"><text id="text200" style="font-variant:normal;font-weight:normal;font-size:11.90400028px;font-family:'Roboto Condensed';-inkscape-font-specification:RobotoCondensed-Regular;writing-mode:lr-tb;fill:#ffffff;fill-opacity:1;fill-rule:nonzero;stroke:none" transform="matrix(1,0,0,-1,169.51,329.4)"><tspan id="tspan202" y="0" x="0 5.8559761">9%</tspan></text>
</g>
    </g>
    <g id="g204">
      <g clip-path="url(#clipPath208)" id="g206"><text id="text212" style="font-variant:normal;font-weight:normal;font-size:11.90400028px;font-family:'Roboto Condensed';-inkscape-font-specification:RobotoCondensed-Regular;writing-mode:lr-tb;fill:#ffffff;fill-opacity:1;fill-rule:nonzero;stroke:none" transform="matrix(1,0,0,-1,284.21,360.53)"><tspan id="tspan214" y="0" x="0 5.8800001 11.76">14%</tspan></text>
</g>
    </g>
    <g id="g216">
      <g clip-path="url(#clipPath220)" id="g218"><text id="text224" style="font-variant:normal;font-weight:normal;font-size:11.88000011px;font-family:'Roboto Condensed';-inkscape-font-specification:RobotoCondensed-Regular;writing-mode:lr-tb;fill:#ffffff;fill-opacity:1;fill-rule:nonzero;stroke:none" transform="matrix(1,0,0,-1,401.78,387.84)"><tspan id="tspan226" y="0" x="0 5.85602 11.71204">18%</tspan></text>
</g>
    </g>
    <g id="g228">
      <g clip-path="url(#clipPath232)" id="g230"><text id="text236" style="font-variant:normal;font-weight:normal;font-size:11.90400028px;font-family:'Roboto Condensed';-inkscape-font-specification:RobotoCondensed-Regular;writing-mode:lr-tb;fill:#ffffff;fill-opacity:1;fill-rule:nonzero;stroke:none" transform="matrix(1,0,0,-1,522.19,331.22)"><tspan id="tspan238" y="0" x="0 5.8559761">9%</tspan></text>
</g>
    </g>
    <g id="g240">
      <g clip-path="url(#clipPath244)" id="g242"><text id="text248" style="font-variant:normal;font-weight:normal;font-size:11.90400028px;font-family:'Roboto Condensed';-inkscape-font-specification:RobotoCondensed-Regular;writing-mode:lr-tb;fill:#000000;fill-opacity:1;fill-rule:nonzero;stroke:none" transform="matrix(1,0,0,-1,67.032,290.3)"><tspan id="tspan250" y="0" x="0 5.8800001">0%</tspan></text>
</g>
    </g>
    <g id="g252">
      <g clip-path="url(#clipPath256)" id="g254"><text id="text260" style="font-variant:normal;font-weight:normal;font-size:11.88000011px;font-family:'Roboto Condensed';-inkscape-font-specification:RobotoCondensed-Regular;writing-mode:lr-tb;fill:#000000;fill-opacity:1;fill-rule:nonzero;stroke:none" transform="matrix(1,0,0,-1,67.032,321.24)"><tspan id="tspan262" y="0" x="0 5.8800201">5%</tspan></text>
</g>
    </g>
    <g id="g264">
      <g clip-path="url(#clipPath268)" id="g266"><text id="text272" style="font-variant:normal;font-weight:normal;font-size:11.88000011px;font-family:'Roboto Condensed';-inkscape-font-specification:RobotoCondensed-Regular;writing-mode:lr-tb;fill:#000000;fill-opacity:1;fill-rule:nonzero;stroke:none" transform="matrix(1,0,0,-1,61.176,352.2)"><tspan id="tspan274" y="0" x="0 5.85602 11.71204">10%</tspan></text>
</g>
    </g>
    <g id="g276">
      <g clip-path="url(#clipPath280)" id="g278"><text id="text284" style="font-variant:normal;font-weight:normal;font-size:11.88000011px;font-family:'Roboto Condensed';-inkscape-font-specification:RobotoCondensed-Regular;writing-mode:lr-tb;fill:#000000;fill-opacity:1;fill-rule:nonzero;stroke:none" transform="matrix(1,0,0,-1,61.176,383.14)"><tspan id="tspan286" y="0" x="0 5.85602 11.71204">15%</tspan></text>
</g>
    </g>
    <g id="g288">
      <g clip-path="url(#clipPath292)" id="g290"><text id="text296" style="font-variant:normal;font-weight:normal;font-size:11.88000011px;font-family:'Roboto Condensed';-inkscape-font-specification:RobotoCondensed-Regular;writing-mode:lr-tb;fill:#000000;fill-opacity:1;fill-rule:nonzero;stroke:none" transform="matrix(1,0,0,-1,61.176,414.1)"><tspan id="tspan298" y="0" x="0 5.85602 11.71204">20%</tspan></text>
</g>
    </g>
    <g id="g300">
      <g clip-path="url(#clipPath304)" id="g302"><text id="text308" style="font-variant:normal;font-weight:normal;font-size:11.90400028px;font-family:'Roboto Condensed';-inkscape-font-specification:RobotoCondensed-Regular;writing-mode:lr-tb;fill:#000000;fill-opacity:1;fill-rule:nonzero;stroke:none" transform="matrix(1,0,0,-1,61.176,445.06)"><tspan id="tspan310" y="0" x="0 5.8559761 11.711952">25%</tspan></text>
</g>
    </g>
    <g id="g312">
      <g clip-path="url(#clipPath316)" id="g314"><text id="text320" style="font-variant:normal;font-weight:normal;font-size:11.88000011px;font-family:'Roboto Condensed';-inkscape-font-specification:RobotoCondensed-Regular;writing-mode:lr-tb;fill:#000000;fill-opacity:1;fill-rule:nonzero;stroke:none" transform="matrix(1,0,0,-1,61.176,475.99)"><tspan id="tspan322" y="0" x="0 5.85602 11.71204">30%</tspan></text>
</g>
    </g>
    <g id="g324">
      <g clip-path="url(#clipPath328)" id="g326"><text id="text332" style="font-variant:normal;font-weight:normal;font-size:11.90400028px;font-family:'Roboto Condensed';-inkscape-font-specification:RobotoCondensed-Regular;writing-mode:lr-tb;fill:#000000;fill-opacity:1;fill-rule:nonzero;stroke:none" transform="matrix(1,0,0,-1,61.176,506.95)"><tspan id="tspan334" y="0" x="0 5.8559761 11.711952">35%</tspan></text>
</g>
    </g>
    <g id="g336">
      <g clip-path="url(#clipPath340)" id="g338"><text id="text344" style="font-variant:normal;font-weight:normal;font-size:11.88000011px;font-family:'Roboto Condensed';-inkscape-font-specification:RobotoCondensed-Regular;writing-mode:lr-tb;fill:#000000;fill-opacity:1;fill-rule:nonzero;stroke:none" transform="matrix(1,0,0,-1,135.41,275.04)"><tspan id="tspan346" y="0" x="0 6.8428798 15.84792 22.04928">AMZN</tspan></text>
</g>
    </g>
    <g id="g348">
      <g clip-path="url(#clipPath352)" id="g350"><text id="text356" style="font-variant:normal;font-weight:normal;font-size:11.88000011px;font-family:'Roboto Condensed';-inkscape-font-specification:RobotoCondensed-Regular;writing-mode:lr-tb;fill:#000000;fill-opacity:1;fill-rule:nonzero;stroke:none" transform="matrix(1,0,0,-1,250.7,275.04)"><tspan id="tspan358" y="0" x="0 6.9616799 14.10156 21.24144 28.333799">GOOGL</tspan></text>
</g>
    </g>
    <g id="g360">
      <g clip-path="url(#clipPath364)" id="g362"><text id="text368" style="font-variant:normal;font-weight:normal;font-size:11.88000011px;font-family:'Roboto Condensed';-inkscape-font-specification:RobotoCondensed-Regular;writing-mode:lr-tb;fill:#000000;fill-opacity:1;fill-rule:nonzero;stroke:none" transform="matrix(1,0,0,-1,371.71,275.04)"><tspan id="tspan370" y="0" x="0 9.0406799 15.21828 20.920679">MSFT</tspan></text>
</g>
    </g>
    <g id="g372">
      <g clip-path="url(#clipPath376)" id="g374"><text id="text380" style="font-variant:normal;font-weight:normal;font-size:11.88000011px;font-family:'Roboto Condensed';-inkscape-font-specification:RobotoCondensed-Regular;writing-mode:lr-tb;fill:#000000;fill-opacity:1;fill-rule:nonzero;stroke:none" transform="matrix(1,0,0,-1,488.83,275.04)"><tspan id="tspan382" y="0" x="0 9.0406799 14.94504 21.13452">META</tspan></text>
</g>
    </g>
    <g id="g384">
      <g clip-path="url(#clipPath388)" id="g386"><text id="text392" style="font-variant:normal;font-weight:bold;font-size:14.59200001px;font-family:'Roboto Condensed';-inkscape-font-specification:RobotoCondensed-Bold;writing-mode:lr-tb;fill:#000000;fill-opacity:1;fill-rule:nonzero;stroke:none" transform="matrix(1,0,0,-1,233.42,517.2)"><tspan id="tspan394" y="0" x="0 7.1646719 11.950848 16.737024 23.726591 30.365952 34.845695 38.449921 44.957951 51.947521 55.435009 63.69408 70.508545 77.162498 84.341759 87.654144 95.577599 102.45043 109.06061 112.25626 120.34023 127.15469 131.63443 138.58023">Effective Cash Tax Rates</tspan></text>
</g>
    </g>
    <path id="path396" style="fill:#ffffff;fill-opacity:1;fill-rule:evenodd;stroke:none" d="m 240.59,481.64 130.73,0 0,22.042 -130.73,0 0,-22.042 z"/>
    <path id="path398" style="fill:#005aa4;fill-opacity:1;fill-rule:evenodd;stroke:none" d="m 250.24,489.46 6.4177,0 0,6.4177 -6.4177,0 0,-6.4177 z"/>
    <g id="g400">
      <g clip-path="url(#clipPath404)" id="g402"><text id="text408" style="font-variant:normal;font-weight:normal;font-size:11.88000011px;font-family:'Roboto Condensed';-inkscape-font-specification:RobotoCondensed-Regular;writing-mode:lr-tb;fill:#000000;fill-opacity:1;fill-rule:nonzero;stroke:none" transform="matrix(1,0,0,-1,259.42,489.1)"><tspan id="tspan410" y="0" x="0 5.8800201 11.76004 17.64006">2023</tspan></text>
</g>
    </g>
    <path id="path412" style="fill:#eadfbc;fill-opacity:1;fill-rule:evenodd;stroke:none" d="m 292,489.46 6.4177,0 0,6.4177 -6.4177,0 0,-6.4177 z"/>
    <g id="g414">
      <g clip-path="url(#clipPath418)" id="g416"><text id="text422" style="font-variant:normal;font-weight:normal;font-size:11.88000011px;font-family:'Roboto Condensed';-inkscape-font-specification:RobotoCondensed-Regular;writing-mode:lr-tb;fill:#000000;fill-opacity:1;fill-rule:nonzero;stroke:none" transform="matrix(1,0,0,-1,301.2,489.1)"><tspan id="tspan424" y="0" x="0 5.85602 11.71204 17.56806">2024</tspan></text>
</g>
    </g>
    <path id="path426" style="fill:#226b5a;fill-opacity:1;fill-rule:evenodd;stroke:none" d="m 333.76,489.46 6.4177,0 0,6.4177 -6.4177,0 0,-6.4177 z"/>
    <g id="g428">
      <g clip-path="url(#clipPath432)" id="g430"><text id="text436" style="font-variant:normal;font-weight:normal;font-size:11.88000011px;font-family:'Roboto Condensed';-inkscape-font-specification:RobotoCondensed-Regular;writing-mode:lr-tb;fill:#000000;fill-opacity:1;fill-rule:nonzero;stroke:none" transform="matrix(1,0,0,-1,342.96,489.1)"><tspan id="tspan438" y="0" x="0 5.85602 11.71204 17.56806">2025</tspan></text>
</g>
    </g>
  </g>
</svg>
