<svg version="1.1" width="100%" height="100%" viewBox="0 0 299 216" xmlns="http://www.w3.org/2000/svg" xmlns:xlink="http://www.w3.org/1999/xlink"><style type="text/css" /><defs><clipPath id="clip001"><path d="M0,0 L2290.667,0 L2290.667,1797.333 L0,1797.333 Z" clip-rule="evenodd" /></clipPath><clipPath id="clip002"><path d="M0,0 L2290.667,0 L2290.667,1797.333 L0,1797.333 Z" clip-rule="evenodd" /></clipPath><clipPath id="clip003"><path d="M0,0 L2290.667,0 L2290.667,1797.333 L0,1797.333 Z" clip-rule="evenodd" /></clipPath><clipPath id="clip004"><path d="M0,0 L5200,0 L5200,1905.333 L0,1905.333 Z" clip-rule="evenodd" /></clipPath><clipPath id="clip005"><path d="M-800,0 L6000,0 L6000,1905.333 L-800,1905.333 Z" clip-rule="evenodd" /></clipPath><clipPath id="clip006"><path d="M0,0 L2285.333,0 L2285.333,1796 L0,1796 Z" clip-rule="evenodd" /></clipPath><clipPath id="clip007"><path d="M0,0 L2285.333,0 L2285.333,1796 L0,1796 Z" clip-rule="evenodd" /></clipPath><clipPath id="clip008"><path d="M0,0 L2285.333,0 L2285.333,1796 L0,1796 Z" clip-rule="evenodd" /></clipPath><clipPath id="clip009"><path d="M0,0 L2285.333,0 L2285.333,1796 L0,1796 Z" clip-rule="evenodd" /></clipPath><clipPath id="clip010"><path d="M0,0 L2285.333,0 L2285.333,1796 L0,1796 Z" clip-rule="evenodd" /></clipPath><clipPath id="clip011"><path d="M0,0 L2285.333,0 L2285.333,1796 L0,1796 Z" clip-rule="evenodd" /></clipPath><clipPath id="clip012"><path d="M0,0 L2285.333,0 L2285.333,1796 L0,1796 Z" clip-rule="evenodd" /></clipPath><clipPath id="clip013"><path d="M0,0 L2285.333,0 L2285.333,1796 L0,1796 Z" clip-rule="evenodd" /></clipPath><clipPath id="clip014"><path d="M0,0 L2285.333,0 L2285.333,1796 L0,1796 Z" clip-rule="evenodd" /></clipPath><clipPath id="clip015"><path d="M0,0 L2285.333,0 L2285.333,1796 L0,1796 Z" clip-rule="evenodd" /></clipPath><clipPath id="clip016"><path d="M0,0 L2285.333,0 L2285.333,1796 L0,1796 Z" clip-rule="evenodd" /></clipPath><clipPath id="clip017"><path d="M0,0 L2285.333,0 L2285.333,1796 L0,1796 Z" clip-rule="evenodd" /></clipPath><clipPath id="clip018"><path d="M0,0 L2285.333,0 L2285.333,1796 L0,1796 Z" clip-rule="evenodd" /></clipPath><clipPath id="clip019"><path d="M0,0 L2285.333,0 L2285.333,1796 L0,1796 Z" clip-rule="evenodd" /></clipPath><clipPath id="clip020"><path d="M0,0 L2285.333,0 L2285.333,1796 L0,1796 Z" clip-rule="evenodd" /></clipPath><clipPath id="clip021"><path d="M0,0 L2285.333,0 L2285.333,1796 L0,1796 Z" clip-rule="evenodd" /></clipPath><clipPath id="clip022"><path d="M0,0 L2285.333,0 L2285.333,1796 L0,1796 Z" clip-rule="evenodd" /></clipPath><clipPath id="clip023"><path d="M0,0 L2285.333,0 L2285.333,1796 L0,1796 Z" clip-rule="evenodd" /></clipPath><clipPath id="clip024"><path d="M0,0 L2285.333,0 L2285.333,1796 L0,1796 Z" clip-rule="evenodd" /></clipPath><clipPath id="clip025"><path d="M0,0 L2285.333,0 L2285.333,1796 L0,1796 Z" clip-rule="evenodd" /></clipPath><clipPath id="clip026"><path d="M0,0 L2285.333,0 L2285.333,1796 L0,1796 Z" clip-rule="evenodd" /></clipPath><clipPath id="clip027"><path d="M0,0 L2285.333,0 L2285.333,1796 L0,1796 Z" clip-rule="evenodd" /></clipPath><clipPath id="clip028"><path d="M0,0 L2285.333,0 L2285.333,1796 L0,1796 Z" clip-rule="evenodd" /></clipPath><clipPath id="clip029"><path d="M0,0 L2285.333,0 L2285.333,1796 L0,1796 Z" clip-rule="evenodd" /></clipPath><clipPath id="clip030"><path d="M0,0 L2285.333,0 L2285.333,1796 L0,1796 Z" clip-rule="evenodd" /></clipPath></defs><clipPath id="page-clip-path-1"><rect x="0" y="0" width="298.67" height="216" /></clipPath><g clip-path="url(#page-clip-path-1)" transform="translate(0.17,0)"><g transform="translate(1,1)"><g><g transform="matrix(0.1197322,0,0,0.1199926,0,0)" clip-path="url(#clip001)"><g><g clip-path="url(#clip002)"><g><g clip-path="url(#clip003)"><g transform="matrix(1.000214,0,0,1.000687,0.00016276,0)"><g><g><g clip-path="url(#clip004)"><g transform="translate(2285.333,1797.333)" /></g></g></g><g clip-path="url(#clip005)"><g transform="matrix(0.000656168,0,0,0.000656168,0,0)"><path d="M0,0 L3482848,0 L3482848,2739136 L0,2739136 Z" fill="#ffffff" fill-opacity="0" fill-rule="evenodd" /></g></g><g clip-path="url(#clip006)"><g transform="matrix(0.000656168,0,0,0.000656168,366.3893,122.2222)"><path d="M1183216,0 C1836688,0 2366432,529743.8 2366432,1183216 L2366432,1183216 C2366432,1670580 2067601,2108087 1613626,2285372 L1613626,2285372 L1183216,1183216 Z" fill="#012169" fill-rule="evenodd" /><path d="M1183216,0 C1836688,0 2366432,529743.8 2366432,1183216 L2366432,1183216 C2366432,1670580 2067601,2108087 1613626,2285372 L1613626,2285372 L1183216,1183216 Z" stroke-width="8466.667" stroke-linejoin="round" stroke-miterlimit="13.33333" stroke="#ffffff" fill="none" fill-rule="evenodd" /></g></g><g clip-path="url(#clip007)"><g transform="matrix(0.000656168,0,0,0.000656168,366.3893,122.2222)"><path d="M1613625,2285372 C1009487,2521297 328020.7,2226905 85692.5,1625306 L85692.5,1625306 L1183216,1183216 Z" fill="#009cde" fill-rule="evenodd" /><path d="M1613625,2285372 C1009487,2521297 328020.7,2226905 85692.5,1625306 L85692.5,1625306 L1183216,1183216 Z" stroke-width="8466.667" stroke-linejoin="round" stroke-miterlimit="13.33333" stroke="#ffffff" fill="none" fill-rule="evenodd" /></g></g><g clip-path="url(#clip008)"><g transform="matrix(0.000656168,0,0,0.000656168,366.3893,122.2222)"><path d="M85692.59,1625307 C11975.84,1442300 -14808,1243764 7778.22,1047764 L7778.22,1047764 L1183216,1183216 Z" fill="#e56200" fill-rule="evenodd" /><path d="M85692.59,1625307 C11975.84,1442300 -14808,1243764 7778.22,1047764 L7778.22,1047764 L1183216,1183216 Z" stroke-width="8466.667" stroke-linejoin="round" stroke-miterlimit="13.33333" stroke="#ffffff" fill="none" fill-rule="evenodd" /></g></g><g clip-path="url(#clip009)"><g transform="matrix(0.000656168,0,0,0.000656168,366.3893,122.2222)"><path d="M7779.412,1047762 C22116.02,923351.4 56112.75,802005.7 108500.3,688255.5 L108500.3,688255.5 L1183216,1183216 Z" fill="#006980" fill-rule="evenodd" /><path d="M7779.412,1047762 C22116.02,923351.4 56112.75,802005.7 108500.3,688255.5 L108500.3,688255.5 L1183216,1183216 Z" stroke-width="8466.667" stroke-linejoin="round" stroke-miterlimit="13.33333" stroke="#ffffff" fill="none" fill-rule="evenodd" /></g></g><g clip-path="url(#clip010)"><g transform="matrix(0.000656168,0,0,0.000656168,366.3893,122.2222)"><path d="M108500.3,688255.4 C149348.1,599561.8 201018.1,516265.6 262331.8,440267.3 L262331.8,440267.3 L1183216,1183216 Z" fill="#279f00" fill-rule="evenodd" /><path d="M108500.3,688255.4 C149348.1,599561.8 201018.1,516265.6 262331.8,440267.3 L262331.8,440267.3 L1183216,1183216 Z" stroke-width="8466.667" stroke-linejoin="round" stroke-miterlimit="13.33333" stroke="#ffffff" fill="none" fill-rule="evenodd" /></g></g><g clip-path="url(#clip011)"><g transform="matrix(0.000656168,0,0,0.000656168,366.3893,122.2222)"><path d="M262331.3,440269.2 C300619.5,392811 342519,348383.6 387655.4,307384 L387655.4,307384 L1183216,1183216 Z" fill="#bb8099" fill-rule="evenodd" /><path d="M262331.3,440269.2 C300619.5,392811 342519,348383.6 387655.4,307384 L387655.4,307384 L1183216,1183216 Z" stroke-width="8466.667" stroke-linejoin="round" stroke-miterlimit="13.33333" stroke="#ffffff" fill="none" fill-rule="evenodd" /></g></g><g clip-path="url(#clip012)"><g transform="matrix(0.000656168,0,0,0.000656168,366.3893,122.2222)"><path d="M387655.9,307382.5 C410687.4,286462 434535,266458.1 459143.3,247417.4 L459143.3,247417.4 L1183216,1183216 Z" fill="#5f2167" fill-rule="evenodd" /><path d="M387655.9,307382.5 C410687.4,286462 434535,266458.1 459143.3,247417.4 L459143.3,247417.4 L1183216,1183216 Z" stroke-width="8466.667" stroke-linejoin="round" stroke-miterlimit="13.33333" stroke="#ffffff" fill="none" fill-rule="evenodd" /></g></g><g clip-path="url(#clip013)"><g transform="matrix(0.000656168,0,0,0.000656168,366.3893,122.2222)"><path d="M459143.2,247416.9 C482703.5,229187.1 506943.9,211853.5 531812.6,195453.3 L531812.6,195453.3 L1183216,1183216 Z" fill="#908484" fill-rule="evenodd" /><path d="M459143.2,247416.9 C482703.5,229187.1 506943.9,211853.5 531812.6,195453.3 L531812.6,195453.3 L1183216,1183216 Z" stroke-width="8466.667" stroke-linejoin="round" stroke-miterlimit="13.33333" stroke="#ffffff" fill="none" fill-rule="evenodd" /></g></g><g clip-path="url(#clip014)"><g transform="matrix(0.000656168,0,0,0.000656168,366.3893,122.2222)"><path d="M531813.2,195453.2 C547979.9,184791.6 564406,174528.6 581076.5,164673.3 L581076.5,164673.3 L1183216,1183216 Z" fill="#c41230" fill-rule="evenodd" /><path d="M531813.2,195453.2 C547979.9,184791.6 564406,174528.6 581076.5,164673.3 L581076.5,164673.3 L1183216,1183216 Z" stroke-width="8466.667" stroke-linejoin="round" stroke-miterlimit="13.33333" stroke="#ffffff" fill="none" fill-rule="evenodd" /></g></g><g clip-path="url(#clip015)"><g transform="matrix(0.000656168,0,0,0.000656168,366.3893,122.2222)"><path d="M581075,164674.6 C763428.5,56870.95 971379.8,0.06698322 1183216,0.06698322 L1183216,0.06698322 L1183216,1183216 Z" fill="#149a85" fill-rule="evenodd" /><path d="M581075,164674.6 C763428.5,56870.95 971379.8,0.06698322 1183216,0.06698322 L1183216,0.06698322 L1183216,1183216 Z" stroke-width="8466.667" stroke-linejoin="round" stroke-miterlimit="13.33333" stroke="#ffffff" fill="none" fill-rule="evenodd" /></g></g><g><g clip-path="url(#clip016)"><g><g transform="translate(1729.331,757.6755)"><text><tspan x="0" y="0" font-family="Connections Cond Bld,Arial Narrow" font-weight="normal" font-style="normal" font-size="77.33334" fill="#ffffff">US</tspan></text></g></g></g></g><g><g clip-path="url(#clip017)"><g><g transform="translate(1701.331,853.6755)"><text><tspan x="0" y="0" font-family="Connections Cond Bld,Arial Narrow" font-weight="normal" font-style="normal" font-size="77.33334" fill="#ffffff">44%</tspan></text></g></g></g></g><g><g clip-path="url(#clip018)"><g><g transform="translate(809.5035,1448.938)"><text><tspan x="0" y="0" font-family="Connections Cond Bld,Arial Narrow" font-weight="normal" font-style="normal" font-size="77.33334" fill="#ffffff">China</tspan></text></g></g></g></g><g><g clip-path="url(#clip019)"><g><g transform="translate(824.1702,1544.938)"><text><tspan x="0" y="0" font-family="Connections Cond Bld,Arial Narrow" font-weight="normal" font-style="normal" font-size="77.33334" fill="#ffffff">25%</tspan></text></g></g></g></g><g><g clip-path="url(#clip020)"><g><g transform="translate(468.5276,904.8123)"><text><tspan x="0" y="0" font-family="Connections Cond Bld,Arial Narrow" font-weight="normal" font-style="normal" font-size="77.33334" fill="#ffffff">United </tspan></text></g></g></g></g><g><g clip-path="url(#clip021)"><g><g transform="translate(435.1942,1000.812)"><text><tspan x="0" y="0" font-family="Connections Cond Bld,Arial Narrow" font-weight="normal" font-style="normal" font-size="77.33334" fill="#ffffff">Kingdom</tspan></text></g></g></g></g><g><g clip-path="url(#clip022)"><g><g transform="translate(520.5275,1098.146)"><text><tspan x="0" y="0" font-family="Connections Cond Bld,Arial Narrow" font-weight="normal" font-style="normal" font-size="77.33334" fill="#ffffff">8%</tspan></text></g></g></g></g><g><g clip-path="url(#clip023)"><g><g transform="translate(455.8688,722.4602)"><text><tspan x="0" y="0" font-family="Connections Cond Bld,Arial Narrow" font-weight="normal" font-style="normal" font-size="77.33334" fill="#ffffff">Germany</tspan></text></g></g></g></g><g><g clip-path="url(#clip024)"><g><g transform="translate(542.5355,818.4602)"><text><tspan x="0" y="0" font-family="Connections Cond Bld,Arial Narrow" font-weight="normal" font-style="normal" font-size="77.33334" fill="#ffffff">5%</tspan></text></g></g></g></g><g><g clip-path="url(#clip025)"><g><g transform="translate(200.0849,465.5153)"><text><tspan x="0" y="0" font-family="Connections Cond Bld,Arial Narrow" font-weight="normal" font-style="normal" font-size="77.33334" fill="#000000">Canada</tspan></text></g></g></g></g><g><g clip-path="url(#clip026)"><g><g transform="translate(261.4182,561.5153)"><text><tspan x="0" y="0" font-family="Connections Cond Bld,Arial Narrow" font-weight="normal" font-style="normal" font-size="77.33334" fill="#000000">4%</tspan></text></g></g></g></g><g><g clip-path="url(#clip027)"><g><g transform="translate(320.9191,305.5162)"><text><tspan x="0" y="0" font-family="Connections Cond Bld,Arial Narrow" font-weight="normal" font-style="normal" font-size="77.33334" fill="#000000">Australia</tspan></text></g></g></g></g><g><g clip-path="url(#clip028)"><g><g transform="translate(407.5857,401.5162)"><text><tspan x="0" y="0" font-family="Connections Cond Bld,Arial Narrow" font-weight="normal" font-style="normal" font-size="77.33334" fill="#000000">2%</tspan></text></g></g></g></g><g><g clip-path="url(#clip029)"><g><g transform="translate(872.0906,268.7926)"><text><tspan x="0" y="0" font-family="Connections Cond Bld,Arial Narrow" font-weight="normal" font-style="normal" font-size="77.33334" fill="#ffffff">Others</tspan></text></g></g></g></g><g><g clip-path="url(#clip030)"><g><g transform="translate(925.4239,364.7926)"><text><tspan x="0" y="0" font-family="Connections Cond Bld,Arial Narrow" font-weight="normal" font-style="normal" font-size="77.33334" fill="#ffffff">9%</tspan></text></g></g></g></g><g /></g></g></g></g></g></g></g></g></g></svg>