<svg version="1.1" width="100%" height="100%" viewBox="0 0 340 197" xmlns="http://www.w3.org/2000/svg" xmlns:xlink="http://www.w3.org/1999/xlink"><style type="text/css" /><defs><clipPath id="clip001"><path d="M0,0 L2634.667,0 L2634.667,1641.333 L0,1641.333 Z" clip-rule="evenodd" /></clipPath><clipPath id="clip002"><path d="M0,0 L2634.667,0 L2634.667,1641.333 L0,1641.333 Z" clip-rule="evenodd" /></clipPath><clipPath id="clip003"><path d="M0,0 L2634.667,0 L2634.667,1641.333 L0,1641.333 Z" clip-rule="evenodd" /></clipPath><clipPath id="clip004"><path d="M0,0 L5200,0 L5200,1749.333 L0,1749.333 Z" clip-rule="evenodd" /></clipPath><clipPath id="clip005"><path d="M-800,0 L6000,0 L6000,1749.333 L-800,1749.333 Z" clip-rule="evenodd" /></clipPath><clipPath id="clip006"><path d="M0,0 L2628,0 L2628,1640 L0,1640 Z" clip-rule="evenodd" /></clipPath><clipPath id="clip007"><path d="M209.3333,289.3333 L2613.333,289.3333 L2613.333,1449.333 L209.3333,1449.333 Z" clip-rule="evenodd" /></clipPath><clipPath id="clip008"><path d="M209.3333,289.3333 L2613.333,289.3333 L2613.333,1449.333 L209.3333,1449.333 Z" clip-rule="evenodd" /></clipPath><clipPath id="clip009"><path d="M209.3333,289.3333 L2613.333,289.3333 L2613.333,1449.333 L209.3333,1449.333 Z" clip-rule="evenodd" /></clipPath><clipPath id="clip010"><path d="M209.3333,289.3333 L2613.333,289.3333 L2613.333,1449.333 L209.3333,1449.333 Z" clip-rule="evenodd" /></clipPath><clipPath id="clip011"><path d="M209.3333,289.3333 L2613.333,289.3333 L2613.333,1449.333 L209.3333,1449.333 Z" clip-rule="evenodd" /></clipPath><clipPath id="clip012"><path d="M0,0 L2628,0 L2628,1640 L0,1640 Z" clip-rule="evenodd" /></clipPath><clipPath id="clip013"><path d="M0,0 L2628,0 L2628,1640 L0,1640 Z" clip-rule="evenodd" /></clipPath><clipPath id="clip014"><path d="M0,0 L2628,0 L2628,1640 L0,1640 Z" clip-rule="evenodd" /></clipPath><clipPath id="clip015"><path d="M0,0 L2628,0 L2628,1640 L0,1640 Z" clip-rule="evenodd" /></clipPath><clipPath id="clip016"><path d="M0,0 L2628,0 L2628,1640 L0,1640 Z" clip-rule="evenodd" /></clipPath><clipPath id="clip017"><path d="M0,0 L2628,0 L2628,1640 L0,1640 Z" clip-rule="evenodd" /></clipPath><clipPath id="clip018"><path d="M0,0 L2628,0 L2628,1640 L0,1640 Z" clip-rule="evenodd" /></clipPath><clipPath id="clip019"><path d="M0,0 L2628,0 L2628,1640 L0,1640 Z" clip-rule="evenodd" /></clipPath><clipPath id="clip020"><path d="M0,0 L2628,0 L2628,1640 L0,1640 Z" clip-rule="evenodd" /></clipPath><clipPath id="clip021"><path d="M0,0 L2628,0 L2628,1640 L0,1640 Z" clip-rule="evenodd" /></clipPath><clipPath id="clip022"><path d="M0,0 L2628,0 L2628,1640 L0,1640 Z" clip-rule="evenodd" /></clipPath><clipPath id="clip023"><path d="M0,0 L2628,0 L2628,1640 L0,1640 Z" clip-rule="evenodd" /></clipPath><clipPath id="clip024"><path d="M0,0 L2628,0 L2628,1640 L0,1640 Z" clip-rule="evenodd" /></clipPath><clipPath id="clip025"><path d="M0,0 L2628,0 L2628,1640 L0,1640 Z" clip-rule="evenodd" /></clipPath><clipPath id="clip026"><path d="M0,0 L2628,0 L2628,1640 L0,1640 Z" clip-rule="evenodd" /></clipPath><clipPath id="clip027"><path d="M0,0 L2628,0 L2628,1640 L0,1640 Z" clip-rule="evenodd" /></clipPath><clipPath id="clip028"><path d="M0,0 L2628,0 L2628,1640 L0,1640 Z" clip-rule="evenodd" /></clipPath><clipPath id="clip029"><path d="M0,0 L2628,0 L2628,1640 L0,1640 Z" clip-rule="evenodd" /></clipPath><clipPath id="clip030"><path d="M0,0 L2628,0 L2628,1640 L0,1640 Z" clip-rule="evenodd" /></clipPath><clipPath id="clip031"><path d="M0,0 L2628,0 L2628,1640 L0,1640 Z" clip-rule="evenodd" /></clipPath><clipPath id="clip032"><path d="M0,0 L2628,0 L2628,1640 L0,1640 Z" clip-rule="evenodd" /></clipPath><clipPath id="clip033"><path d="M0,0 L2628,0 L2628,1640 L0,1640 Z" clip-rule="evenodd" /></clipPath></defs><clipPath id="page-clip-path-1"><rect x="0" y="0" width="340" height="197.33" /></clipPath><g clip-path="url(#page-clip-path-1)"><g transform="translate(1,1)"><g><g transform="matrix(0.1197115,0,0,0.1199837,0,0)" clip-path="url(#clip001)"><g><g clip-path="url(#clip002)"><g><g clip-path="url(#clip003)"><g transform="matrix(1.000214,0,0,1.000852,0.00016276,0)"><g><g><g clip-path="url(#clip004)"><g transform="translate(2633.333,1641.333)" /></g></g></g><g clip-path="url(#clip005)"><g transform="matrix(0.000656168,0,0,0.000656168,0,0)"><path d="M0,0 L4005072,0 L4005072,2501392 L0,2501392 Z" fill="#ffffff" fill-opacity="0" fill-rule="evenodd" /></g></g><g clip-path="url(#clip006)"><g transform="matrix(0.000656168,0,0,0.000656168,209.3333,290.6667)"><path d="M0,1314704 L3651504,1314704 M0,877824 L3651504,877824 M0,438912 L3651504,438912 M0,0 L3651504,0 " stroke-width="12700" stroke-linejoin="round" stroke-miterlimit="13.33333" stroke="#bababa" stroke-dashoffset="0" stroke-dasharray="12700" fill="none" fill-rule="nonzero" /></g></g><g clip-path="url(#clip007)"><g transform="matrix(0.000656168,0,0,0.000656168,209.3333,290.6667)"><path d="M54864,1688592 L276352,1688592 L276352,1688592 L276352,1753616 L276352,1753616 L54864,1753616 ZM1272032,46736 L1493520,46736 L1493520,46736 L1493520,1753616 L1493520,1753616 L1272032,1753616 ZM2489200,109728 L2710688,109728 L2710688,109728 L2710688,1753616 L2710688,1753616 L2489200,1753616 Z" fill="#012169" fill-rule="nonzero" /><path d="M54864,1688592 L276352,1688592 L276352,1688592 L276352,1753616 L276352,1753616 L54864,1753616 ZM1272032,46736 L1493520,46736 L1493520,46736 L1493520,1753616 L1493520,1753616 L1272032,1753616 ZM2489200,109728 L2710688,109728 L2710688,109728 L2710688,1753616 L2710688,1753616 L2489200,1753616 Z" stroke-width="8466.667" stroke-linejoin="round" stroke-miterlimit="13.33333" stroke="#ffffff" fill="none" fill-rule="nonzero" /></g></g><g clip-path="url(#clip008)"><g transform="matrix(0.000656168,0,0,0.000656168,209.3333,290.6667)"><path d="M1493520,1548384 L1715008,1548384 L1715008,1548384 L1715008,1753616 L1715008,1753616 L1493520,1753616 ZM2710688,221488 L2932176,221488 L2932176,221488 L2932176,1753616 L2932176,1753616 L2710688,1753616 Z" fill="#009cde" fill-rule="nonzero" /><path d="M1493520,1548384 L1715008,1548384 L1715008,1548384 L1715008,1753616 L1715008,1753616 L1493520,1753616 ZM2710688,221488 L2932176,221488 L2932176,221488 L2932176,1753616 L2932176,1753616 L2710688,1753616 Z" stroke-width="8466.667" stroke-linejoin="round" stroke-miterlimit="13.33333" stroke="#ffffff" fill="none" fill-rule="nonzero" /></g></g><g clip-path="url(#clip009)"><g transform="matrix(0.000656168,0,0,0.000656168,209.3333,290.6667)"><path d="M497840,1517904 L719328,1517904 L719328,1517904 L719328,1753616 L719328,1753616 L497840,1753616 ZM1715008,989584 L1936496,989584 L1936496,989584 L1936496,1753616 L1936496,1753616 L1715008,1753616 ZM2932176,402336 L3153664,402336 L3153664,402336 L3153664,1753616 L3153664,1753616 L2932176,1753616 Z" fill="#e56200" fill-rule="nonzero" /><path d="M497840,1517904 L719328,1517904 L719328,1517904 L719328,1753616 L719328,1753616 L497840,1753616 ZM1715008,989584 L1936496,989584 L1936496,989584 L1936496,1753616 L1936496,1753616 L1715008,1753616 ZM2932176,402336 L3153664,402336 L3153664,402336 L3153664,1753616 L3153664,1753616 L2932176,1753616 Z" stroke-width="8466.667" stroke-linejoin="round" stroke-miterlimit="13.33333" stroke="#ffffff" fill="none" fill-rule="nonzero" /></g></g><g clip-path="url(#clip010)"><g transform="matrix(0.000656168,0,0,0.000656168,209.3333,290.6667)"><path d="M3153664,1662176 L3375152,1662176 L3375152,1753616 L3153664,1753616 Z" fill="#006980" fill-rule="evenodd" /><path d="M3153664,1662176 L3375152,1662176 L3375152,1662176 L3375152,1753616 L3375152,1753616 L3153664,1753616 Z" stroke-width="8466.667" stroke-linejoin="round" stroke-miterlimit="13.33333" stroke="#ffffff" fill="none" fill-rule="nonzero" /></g></g><g clip-path="url(#clip011)"><g transform="matrix(0.000656168,0,0,0.000656168,209.3333,290.6667)"><path d="M3375152,1688592 L3596640,1688592 L3596640,1753616 L3375152,1753616 Z" fill="#279f00" fill-rule="evenodd" /><path d="M3375152,1688592 L3596640,1688592 L3596640,1688592 L3596640,1753616 L3596640,1753616 L3375152,1753616 Z" stroke-width="8466.667" stroke-linejoin="round" stroke-miterlimit="13.33333" stroke="#ffffff" fill="none" fill-rule="nonzero" /></g></g><g clip-path="url(#clip012)"><g transform="matrix(0.000656168,0,0,0.000656168,209.3333,1441.333)"><g><path d="M0.002473258,-6773.333 L3651504,-6772 " stroke-width="3386.667" stroke-linejoin="round" stroke-miterlimit="13.33333" stroke="#000000" fill="none" fill-rule="evenodd" /><path d="M-0.001236629,3386.667 L3651504,3388 " stroke-width="10160" stroke-linejoin="round" stroke-miterlimit="13.33333" stroke="#000000" fill="none" fill-rule="evenodd" /></g></g></g><g><g clip-path="url(#clip013)"><g><g transform="translate(67.33334,1471.417)"><text><tspan x="0" y="0" font-family="Connections Cond Light,Arial Narrow" font-weight="normal" font-style="normal" font-size="105.3333" fill="#000000">0</tspan></text></g></g></g></g><g><g clip-path="url(#clip014)"><g><g transform="translate(67.33334,1183.575)"><text><tspan x="0" y="0" font-family="Connections Cond Light,Arial Narrow" font-weight="normal" font-style="normal" font-size="105.3333" fill="#000000">5</tspan></text></g></g></g></g><g><g clip-path="url(#clip015)"><g><g transform="translate(16.66667,895.7341)"><text><tspan x="0" y="0" font-family="Connections Cond Light,Arial Narrow" font-weight="normal" font-style="normal" font-size="105.3333" fill="#000000">10</tspan></text></g></g></g></g><g><g clip-path="url(#clip016)"><g><g transform="translate(16.66667,607.8924)"><text><tspan x="0" y="0" font-family="Connections Cond Light,Arial Narrow" font-weight="normal" font-style="normal" font-size="105.3333" fill="#000000">15</tspan></text></g></g></g></g><g><g clip-path="url(#clip017)"><g><g transform="translate(16.66667,320.0516)"><text><tspan x="0" y="0" font-family="Connections Cond Light,Arial Narrow" font-weight="normal" font-style="normal" font-size="105.3333" fill="#000000">20</tspan></text></g></g></g></g><g><g clip-path="url(#clip018)"><g><g transform="translate(507.4095,1597.666)"><text><tspan x="0" y="0" font-family="Connections Cond Light,Arial Narrow" font-weight="normal" font-style="normal" font-size="105.3333" fill="#000000">2023</tspan></text></g></g></g></g><g><g clip-path="url(#clip019)"><g><g transform="translate(1306.229,1597.666)"><text><tspan x="0" y="0" font-family="Connections Cond Light,Arial Narrow" font-weight="normal" font-style="normal" font-size="105.3333" fill="#000000">2024</tspan></text></g></g></g></g><g><g clip-path="url(#clip020)"><g><g transform="translate(2091.799,1597.666)"><text><tspan x="0" y="0" font-family="Connections Cond Light,Arial Narrow" font-weight="normal" font-style="normal" font-size="105.3333" fill="#000000">9M25</tspan></text></g></g></g></g><g><g clip-path="url(#clip021)"><g><g transform="translate(78,125.4904)"><text><tspan x="0" y="0" font-family="Connections Cond Light,Arial Narrow" font-weight="normal" font-style="normal" font-size="105.3333" fill="#000000">USD</tspan></text></g></g></g></g><g><g clip-path="url(#clip022)"><g><g transform="translate(247.3333,125.4904)"><text><tspan x="0" y="0" font-family="Connections Cond Light,Arial Narrow" font-weight="normal" font-style="normal" font-size="105.3333" fill="#000000">mn</tspan></text></g></g></g></g><g clip-path="url(#clip023)"><g transform="matrix(0.000656168,0,0,0.000656168,266.6667,37.33333)"><path d="M0,0 L3295904,0 L3295904,388112 L0,388112 Z" fill="#156082" fill-opacity="0" fill-rule="evenodd" /></g></g><g clip-path="url(#clip024)"><g transform="matrix(0.000656168,0,0,0.000656168,318.6667,74.66666)"><path d="M0,0 L83312,0 L83312,81280.01 L0,81280.01 Z" fill="#012169" fill-rule="evenodd" /><path d="M0,0 L83312,0 L83312,0 L83312,81280.01 L83312,81280.01 L0,81280.01 Z" stroke-width="8466.667" stroke-linejoin="round" stroke-miterlimit="13.33333" stroke="#ffffff" fill="none" fill-rule="evenodd" /></g></g><g><g clip-path="url(#clip025)"><g><g transform="translate(396.2082,131.1785)"><text><tspan x="0" y="0" font-family="Connections Cond Light,Arial Narrow" font-weight="normal" font-style="normal" font-size="105.3333" fill="#000000">Talkie/Xingye</tspan></text></g></g></g></g><g clip-path="url(#clip026)"><g transform="matrix(0.000656168,0,0,0.000656168,1040,74.66666)"><path d="M0,0 L83312,0 L83312,81280.01 L0,81280.01 Z" fill="#009cde" fill-rule="evenodd" /><path d="M0,0 L83312,0 L83312,0 L83312,81280.01 L83312,81280.01 L0,81280.01 Z" stroke-width="8466.667" stroke-linejoin="round" stroke-miterlimit="13.33333" stroke="#ffffff" fill="none" fill-rule="evenodd" /></g></g><g><g clip-path="url(#clip027)"><g><g transform="translate(1117.115,131.1785)"><text><tspan x="0" y="0" font-family="Connections Cond Light,Arial Narrow" font-weight="normal" font-style="normal" font-size="105.3333" fill="#000000">Hailuo AI</tspan></text></g></g></g></g><g clip-path="url(#clip028)"><g transform="matrix(0.000656168,0,0,0.000656168,1761.333,74.66666)"><path d="M0,0 L81280.01,0 L81280.01,81280.01 L0,81280.01 Z" fill="#e56200" fill-rule="evenodd" /><path d="M0,0 L81280.01,0 L81280.01,0 L81280.01,81280.01 L81280.01,81280.01 L0,81280.01 Z" stroke-width="8466.667" stroke-linejoin="round" stroke-miterlimit="13.33333" stroke="#ffffff" fill="none" fill-rule="evenodd" /></g></g><g><g clip-path="url(#clip029)"><g><g transform="translate(1838.023,131.1785)"><text><tspan x="0" y="0" font-family="Connections Cond Light,Arial Narrow" font-weight="normal" font-style="normal" font-size="105.3333" fill="#000000">Open platform</tspan></text></g></g></g></g><g clip-path="url(#clip030)"><g transform="matrix(0.000656168,0,0,0.000656168,318.6667,201.3333)"><path d="M0,0 L83312,0 L83312,83312 L0,83312 Z" fill="#006980" fill-rule="evenodd" /><path d="M0,0 L83312,0 L83312,0 L83312,83312 L83312,83312 L0,83312 Z" stroke-width="8466.667" stroke-linejoin="round" stroke-miterlimit="13.33333" stroke="#ffffff" fill="none" fill-rule="evenodd" /></g></g><g><g clip-path="url(#clip031)"><g><g transform="translate(396.2082,258.2809)"><text><tspan x="0" y="0" font-family="Connections Cond Light,Arial Narrow" font-weight="normal" font-style="normal" font-size="105.3333" fill="#000000">Minimax Audio</tspan></text></g></g></g></g><g clip-path="url(#clip032)"><g transform="matrix(0.000656168,0,0,0.000656168,1040,201.3333)"><path d="M0,0 L83312,0 L83312,83312 L0,83312 Z" fill="#279f00" fill-rule="evenodd" /><path d="M0,0 L83312,0 L83312,0 L83312,83312 L83312,83312 L0,83312 Z" stroke-width="8466.667" stroke-linejoin="round" stroke-miterlimit="13.33333" stroke="#ffffff" fill="none" fill-rule="evenodd" /></g></g><g><g clip-path="url(#clip033)"><g><g transform="translate(1117.115,258.2809)"><text><tspan x="0" y="0" font-family="Connections Cond Light,Arial Narrow" font-weight="normal" font-style="normal" font-size="105.3333" fill="#000000">Minimax</tspan></text></g></g></g></g><g /></g></g></g></g></g></g></g></g></g></svg>