<svg version="1.1" width="100%" height="100%" viewBox="0 0 355 172" xmlns="http://www.w3.org/2000/svg" xmlns:xlink="http://www.w3.org/1999/xlink"><style type="text/css" /><defs><clipPath id="clip001"><path d="M0,0 L2753.333,0 L2753.333,1429.333 L0,1429.333 Z" clip-rule="evenodd" /></clipPath><clipPath id="clip002"><path d="M0,0 L2753.333,0 L2753.333,1429.333 L0,1429.333 Z" clip-rule="evenodd" /></clipPath><clipPath id="clip003"><path d="M0,0 L2753.333,0 L2753.333,1429.333 L0,1429.333 Z" clip-rule="evenodd" /></clipPath><clipPath id="clip004"><path d="M0,0 L5200,0 L5200,1534.667 L0,1534.667 Z" clip-rule="evenodd" /></clipPath><clipPath id="clip005"><path d="M-800,0 L6000,0 L6000,1534.667 L-800,1534.667 Z" clip-rule="evenodd" /></clipPath><clipPath id="clip006"><path d="M0,0 L2753.333,0 L2753.333,1426.667 L0,1426.667 Z" clip-rule="evenodd" /></clipPath><clipPath id="clip007"><path d="M269.3333,104 L2689.333,104 L2689.333,1022.667 L269.3333,1022.667 Z" clip-rule="evenodd" /></clipPath><clipPath id="clip008"><path d="M0,0 L2753.333,0 L2753.333,1426.667 L0,1426.667 Z" clip-rule="evenodd" /></clipPath><clipPath id="clip009"><path d="M0,0 L2753.333,0 L2753.333,1426.667 L0,1426.667 Z" clip-rule="evenodd" /></clipPath><clipPath id="clip010"><path d="M2324,69.33334 L2753.333,69.33334 L2753.333,180 L2324,180 Z" clip-rule="evenodd" /></clipPath><clipPath id="clip011"><path d="M0,0 L2753.333,0 L2753.333,1426.667 L0,1426.667 Z" clip-rule="evenodd" /></clipPath><clipPath id="clip012"><path d="M0,0 L2753.333,0 L2753.333,1426.667 L0,1426.667 Z" clip-rule="evenodd" /></clipPath><clipPath id="clip013"><path d="M0,0 L2753.333,0 L2753.333,1426.667 L0,1426.667 Z" clip-rule="evenodd" /></clipPath><clipPath id="clip014"><path d="M0,0 L2753.333,0 L2753.333,1426.667 L0,1426.667 Z" clip-rule="evenodd" /></clipPath><clipPath id="clip015"><path d="M0,0 L2753.333,0 L2753.333,1426.667 L0,1426.667 Z" clip-rule="evenodd" /></clipPath><clipPath id="clip016"><path d="M0,0 L2753.333,0 L2753.333,1426.667 L0,1426.667 Z" clip-rule="evenodd" /></clipPath><clipPath id="clip017"><path d="M0,0 L2753.333,0 L2753.333,1426.667 L0,1426.667 Z" clip-rule="evenodd" /></clipPath><clipPath id="clip018"><path d="M0,0 L2753.333,0 L2753.333,1426.667 L0,1426.667 Z" clip-rule="evenodd" /></clipPath><clipPath id="clip019"><path d="M0,0 L2753.333,0 L2753.333,1426.667 L0,1426.667 Z" clip-rule="evenodd" /></clipPath><clipPath id="clip020"><path d="M0,0 L2753.333,0 L2753.333,1426.667 L0,1426.667 Z" clip-rule="evenodd" /></clipPath><clipPath id="clip021"><path d="M0,0 L2753.333,0 L2753.333,1426.667 L0,1426.667 Z" clip-rule="evenodd" /></clipPath><clipPath id="clip022"><path d="M0,0 L2753.333,0 L2753.333,1426.667 L0,1426.667 Z" clip-rule="evenodd" /></clipPath><clipPath id="clip023"><path d="M0,0 L2753.333,0 L2753.333,1426.667 L0,1426.667 Z" clip-rule="evenodd" /></clipPath><clipPath id="clip024"><path d="M0,0 L2753.333,0 L2753.333,1426.667 L0,1426.667 Z" clip-rule="evenodd" /></clipPath><clipPath id="clip025"><path d="M0,0 L2753.333,0 L2753.333,1426.667 L0,1426.667 Z" clip-rule="evenodd" /></clipPath><clipPath id="clip026"><path d="M0,0 L2753.333,0 L2753.333,1426.667 L0,1426.667 Z" clip-rule="evenodd" /></clipPath><clipPath id="clip027"><path d="M0,0 L2753.333,0 L2753.333,1426.667 L0,1426.667 Z" clip-rule="evenodd" /></clipPath><clipPath id="clip028"><path d="M0,0 L2753.333,0 L2753.333,1426.667 L0,1426.667 Z" clip-rule="evenodd" /></clipPath><clipPath id="clip029"><path d="M0,0 L2753.333,0 L2753.333,1426.667 L0,1426.667 Z" clip-rule="evenodd" /></clipPath><clipPath id="clip030"><path d="M0,0 L2753.333,0 L2753.333,1426.667 L0,1426.667 Z" clip-rule="evenodd" /></clipPath><clipPath id="clip031"><path d="M0,0 L2753.333,0 L2753.333,1426.667 L0,1426.667 Z" clip-rule="evenodd" /></clipPath><clipPath id="clip032"><path d="M0,0 L2753.333,0 L2753.333,1426.667 L0,1426.667 Z" clip-rule="evenodd" /></clipPath><clipPath id="clip033"><path d="M0,0 L2753.333,0 L2753.333,1426.667 L0,1426.667 Z" clip-rule="evenodd" /></clipPath><clipPath id="clip034"><path d="M0,0 L2753.333,0 L2753.333,1426.667 L0,1426.667 Z" clip-rule="evenodd" /></clipPath><clipPath id="clip035"><path d="M0,0 L2754.667,0 L2754.667,1426.667 L0,1426.667 Z" clip-rule="evenodd" /></clipPath><clipPath id="clip036"><path d="M0,0 L2754.667,0 L2754.667,1426.667 L0,1426.667 Z" clip-rule="evenodd" /></clipPath><clipPath id="clip037"><path d="M0,0 L2754.667,0 L2754.667,1426.667 L0,1426.667 Z" clip-rule="evenodd" /></clipPath><clipPath id="clip038"><path d="M0,0 L2754.667,0 L2754.667,1426.667 L0,1426.667 Z" clip-rule="evenodd" /></clipPath><clipPath id="clip039"><path d="M0,0 L2754.667,0 L2754.667,1426.667 L0,1426.667 Z" clip-rule="evenodd" /></clipPath><clipPath id="clip040"><path d="M0,0 L2754.667,0 L2754.667,1426.667 L0,1426.667 Z" clip-rule="evenodd" /></clipPath><clipPath id="clip041"><path d="M0,0 L2754.667,0 L2754.667,1426.667 L0,1426.667 Z" clip-rule="evenodd" /></clipPath><clipPath id="clip042"><path d="M0,0 L2754.667,0 L2754.667,1426.667 L0,1426.667 Z" clip-rule="evenodd" /></clipPath><clipPath id="clip043"><path d="M0,0 L2754.667,0 L2754.667,1426.667 L0,1426.667 Z" clip-rule="evenodd" /></clipPath><clipPath id="clip044"><path d="M0,0 L2754.667,0 L2754.667,1426.667 L0,1426.667 Z" clip-rule="evenodd" /></clipPath></defs><clipPath id="page-clip-path-1"><rect x="0" y="0" width="354.67" height="172" /></clipPath><g clip-path="url(#page-clip-path-1)" transform="translate(0.17,0)"><g transform="translate(1,1)"><g><g transform="matrix(0.1200484,0,0,0.1197761,0,0)" clip-path="url(#clip001)"><g><g clip-path="url(#clip002)"><g><g clip-path="url(#clip003)"><g transform="matrix(1.000207,0,0,1.000671,-0.00016276,0)"><g><g><g clip-path="url(#clip004)"><g transform="translate(2753.333,1426.667)" /></g></g></g><g clip-path="url(#clip005)"><g transform="matrix(0.000656168,0,0,0.000656168,0,0)"><path d="M0,0 L4198112,0 L4198112,2174240 L0,2174240 Z" fill="#ffffff" fill-opacity="0" fill-rule="evenodd" /></g></g><g clip-path="url(#clip006)"><g transform="matrix(0.000656168,0,0,0.000656168,269.3333,1016)"><g><path d="M0.002456852,-6773.333 L3675888,-6772 " stroke-width="3386.667" stroke-linejoin="round" stroke-miterlimit="13.33333" stroke="#000000" fill="none" fill-rule="evenodd" /><path d="M-0.001228426,3386.667 L3675888,3388 " stroke-width="10160" stroke-linejoin="round" stroke-miterlimit="13.33333" stroke="#000000" fill="none" fill-rule="evenodd" /></g></g></g><g clip-path="url(#clip007)"><g transform="matrix(0.000656168,0,0,0.000656168,-479.3333,191.3333)"><path d="M0,1162304 L4064,1162304 L4064,1162304 L8128,1162304 L8128,1162304 L12192,1162304 L12192,1162304 L22352,1164336 L22352,1164336 L26416,1164336 L26416,1164336 L30480,1164336 L30480,1164336 L34544,1164336 L34544,1164336 L38608,1166368 L38608,1166368 L48768,1166368 L48768,1166368 L52832,1168400 L52832,1168400 L56896,1168400 L56896,1168400 L60960,1168400 L60960,1168400 L65024,1168400 L65024,1168400 L101600,1170432 L101600,1170432 L105664,1170432 L105664,1170432 L109728,1170432 L109728,1170432 L113792,1170432 L113792,1170432 L117856,1172464 L117856,1172464 L128016,1172464 L128016,1172464 L132080,1174496 L132080,1174496 L136144,1176528 L136144,1176528 L140208,1178560 L140208,1178560 L144272,1178560 L144272,1178560 L154432,1180592 L154432,1180592 L158496,1182624 L158496,1182624 L162560,1182624 L162560,1182624 L166624,1182624 L166624,1182624 L168656,1182624 L168656,1182624 L180848,1182624 L180848,1182624 L184912,1184656 L184912,1184656 L188976,1184656 L188976,1184656 L193040,1186688 L193040,1186688 L195072,1186688 L195072,1186688 L207264,1188720 L207264,1188720 L211328,1188720 L211328,1188720 L215392,1188720 L215392,1188720 L219456,1190752 L219456,1190752 L221488,1190752 L221488,1190752 L233680,1190752 L233680,1190752 L237744,1192784 L237744,1192784 L241808,1192784 L241808,1192784 L243840,1192784 L243840,1192784 L247904,1194816 L247904,1194816 L260096,1194816 L260096,1194816 L264160,1194816 L264160,1194816 L268224,1194816 L268224,1194816 L270256,1194816 L270256,1194816 L274320,1196848 L274320,1196848 L286512,1196848 L286512,1196848 L290576,1196848 L290576,1196848 L294640,1196848 L294640,1196848 L296672,1196848 L296672,1196848 L300736,1196848 L300736,1196848 L312928,1196848 L312928,1196848 L316992,1198880 L316992,1198880 L319024,1198880 L319024,1198880 L323088,1200912 L323088,1200912 L327152,1200912 L327152,1200912 L339344,1200912 L339344,1200912 L343408,1202944 L343408,1202944 L349504,1202944 L349504,1202944 L353568,1202944 L353568,1202944 L365760,1202944 L365760,1202944 L369824,1202944 L369824,1202944 L371856,1202944 L371856,1202944 L375920,1202944 L375920,1202944 L379984,1202944 L379984,1202944 L392176,1202944 L392176,1202944 L394208,1202944 L394208,1202944 L398272,1202944 L398272,1202944 L402336,1202944 L402336,1202944 L406400,1202944 L406400,1202944 L418592,1202944 L418592,1202944 L420624,1202944 L420624,1202944 L424688,1202944 L424688,1202944 L428752,1202944 L428752,1202944 L432816,1202944 L432816,1202944 L447040,1200912 L447040,1200912 L451104,1200912 L451104,1200912 L455168,1200912 L455168,1200912 L459232,1198880 L459232,1198880 L469392,1198880 L469392,1198880 L473456,1198880 L473456,1198880 L477520,1196848 L477520,1196848 L481584,1196848 L481584,1196848 L485648,1194816 L485648,1194816 L495808,1194816 L495808,1194816 L499872,1194816 L499872,1194816 L503936,1192784 L503936,1192784 L508000,1192784 L508000,1192784 L512064,1194816 L512064,1194816 L522224,1194816 L522224,1194816 L526288,1194816 L526288,1194816 L530352,1194816 L530352,1194816 L534416,1194816 L534416,1194816 L538480,1194816 L538480,1194816 L548640,1194816 L548640,1194816 L552704,1194816 L552704,1194816 L556768,1194816 L556768,1194816 L560832,1194816 L560832,1194816 L564896,1194816 L564896,1194816 L575056,1194816 L575056,1194816 L579120,1196848 L579120,1196848 L583184,1196848 L583184,1196848 L587248,1196848 L587248,1196848 L591312,1196848 L591312,1196848 L601472,1196848 L601472,1196848 L605536,1196848 L605536,1196848 L609600,1196848 L609600,1196848 L613664,1196848 L613664,1196848 L617728,1196848 L617728,1196848 L627888,1196848 L627888,1196848 L631952,1196848 L631952,1196848 L636016,1196848 L636016,1196848 L654304,1196848 L654304,1196848 L658368,1196848 L658368,1196848 L662432,1196848 L662432,1196848 L666496,1196848 L666496,1196848 L670560,1196848 L670560,1196848 L680720,1196848 L680720,1196848 L684784,1196848 L684784,1196848 L688848,1196848 L688848,1196848 L692912,1196848 L692912,1196848 L694944,1198880 L694944,1198880 L707136,1198880 L707136,1198880 L711200,1198880 L711200,1198880 L715264,1198880 L715264,1198880 L719328,1198880 L719328,1198880 L721360,1198880 L721360,1198880 L733552,1198880 L733552,1198880 L737616,1198880 L737616,1198880 L741680,1198880 L741680,1198880 L745744,1198880 L745744,1198880 L747776,1198880 L747776,1198880 L759968,1198880 L759968,1198880 L764032,1198880 L764032,1198880 L768096,1198880 L768096,1198880 L770128,1198880 L770128,1198880 L774192,1198880 L774192,1198880 L786384,1198880 L786384,1198880 L790448,1198880 L790448,1198880 L794512,1198880 L794512,1198880 L796544,1198880 L796544,1198880 L800608,1198880 L800608,1198880 L812800,1198880 L812800,1198880 L816864,1198880 L816864,1198880 L818896,1198880 L818896,1198880 L822960,1198880 L822960,1198880 L827024,1200912 L827024,1200912 L839216,1200912 L839216,1200912 L843280,1202944 L843280,1202944 L845312,1202944 L845312,1202944 L849376,1202944 L849376,1202944 L853440,1202944 L853440,1202944 L865632,1204976 L865632,1204976 L869696,1202944 L869696,1202944 L871728,1202944 L871728,1202944 L875792,1202944 L875792,1202944 L879856,1202944 L879856,1202944 L892048,1202944 L892048,1202944 L894080,1202944 L894080,1202944 L898144,1202944 L898144,1202944 L902208,1200912 L902208,1200912 L906272,1200912 L906272,1200912 L918464,1200912 L918464,1200912 L920496,1200912 L920496,1200912 L924560,1200912 L924560,1200912 L928624,1200912 L928624,1200912 L932688,1200912 L932688,1200912 L944880,1200912 L944880,1200912 L946912,1200912 L946912,1200912 L950976,1198880 L950976,1198880 L955040,1198880 L955040,1198880 L959104,1198880 L959104,1198880 L969264,1198880 L969264,1198880 L973328,1198880 L973328,1198880 L977392,1198880 L977392,1198880 L981456,1198880 L981456,1198880 L985520,1196848 L985520,1196848 L995680,1196848 L995680,1196848 L999744,1196848 L999744,1196848 L1003808,1196848 L1003808,1196848 L1007872,1196848 L1007872,1196848 L1022096,1196848 L1022096,1196848 L1026160,1196848 L1026160,1196848 L1030224,1196848 L1030224,1196848 L1034288,1196848 L1034288,1196848 L1038352,1196848 L1038352,1196848 L1048512,1196848 L1048512,1196848 L1052576,1196848 L1052576,1196848 L1056640,1196848 L1056640,1196848 L1060704,1196848 L1060704,1196848 L1064768,1196848 L1064768,1196848 L1074928,1196848 L1074928,1196848 L1078992,1196848 L1078992,1196848 L1083056,1196848 L1083056,1196848 L1087120,1196848 L1087120,1196848 L1091184,1196848 L1091184,1196848 L1101344,1196848 L1101344,1196848 L1105408,1196848 L1105408,1196848 L1109472,1196848 L1109472,1196848 L1113536,1196848 L1113536,1196848 L1117600,1196848 L1117600,1196848 L1127760,1196848 L1127760,1196848 L1131824,1196848 L1131824,1196848 L1135888,1196848 L1135888,1196848 L1139952,1196848 L1139952,1196848 L1144016,1196848 L1144016,1196848 L1154176,1196848 L1154176,1196848 L1158240,1196848 L1158240,1196848 L1162304,1196848 L1162304,1196848 L1166368,1196848 L1166368,1196848 L1170432,1196848 L1170432,1196848 L1180592,1196848 L1180592,1196848 L1184656,1196848 L1184656,1196848 L1188720,1196848 L1188720,1196848 L1192784,1196848 L1192784,1196848 L1194816,1196848 L1194816,1196848 L1207008,1196848 L1207008,1196848 L1211072,1196848 L1211072,1196848 L1215136,1196848 L1215136,1196848 L1219200,1196848 L1219200,1196848 L1221232,1194816 L1221232,1194816 L1233424,1194816 L1233424,1194816 L1237488,1194816 L1237488,1194816 L1241552,1194816 L1241552,1194816 L1245616,1194816 L1245616,1194816 L1247648,1194816 L1247648,1194816 L1259840,1194816 L1259840,1194816 L1263904,1194816 L1263904,1194816 L1267968,1194816 L1267968,1194816 L1270000,1194816 L1270000,1194816 L1274064,1194816 L1274064,1194816 L1286256,1194816 L1286256,1194816 L1290320,1194816 L1290320,1194816 L1294384,1194816 L1294384,1194816 L1296416,1194816 L1296416,1194816 L1300480,1194816 L1300480,1194816 L1312672,1194816 L1312672,1194816 L1316736,1194816 L1316736,1194816 L1320800,1194816 L1320800,1194816 L1322832,1194816 L1322832,1194816 L1326896,1194816 L1326896,1194816 L1339088,1194816 L1339088,1194816 L1343152,1194816 L1343152,1194816 L1345184,1194816 L1345184,1194816 L1349248,1194816 L1349248,1194816 L1353312,1192784 L1353312,1192784 L1369568,1192784 L1369568,1192784 L1371600,1192784 L1371600,1192784 L1375664,1192784 L1375664,1192784 L1379728,1192784 L1379728,1192784 L1391920,1192784 L1391920,1192784 L1395984,1192784 L1395984,1192784 L1398016,1192784 L1398016,1192784 L1402080,1192784 L1402080,1192784 L1406144,1192784 L1406144,1192784 L1418336,1192784 L1418336,1192784 L1420368,1192784 L1420368,1192784 L1424432,1190752 L1424432,1190752 L1428496,1188720 L1428496,1188720 L1432560,1188720 L1432560,1188720 L1444752,1188720 L1444752,1188720 L1446784,1186688 L1446784,1186688 L1450848,1186688 L1450848,1186688 L1454912,1186688 L1454912,1186688 L1458976,1186688 L1458976,1186688 L1471168,1184656 L1471168,1184656 L1473200,1184656 L1473200,1184656 L1477264,1184656 L1477264,1184656 L1481328,1184656 L1481328,1184656 L1485392,1182624 L1485392,1182624 L1495552,1182624 L1495552,1182624 L1499616,1182624 L1499616,1182624 L1503680,1182624 L1503680,1182624 L1507744,1182624 L1507744,1182624 L1534160,1182624 L1534160,1182624 L1538224,1182624 L1538224,1182624 L1548384,1182624 L1548384,1182624 L1552448,1180592 L1552448,1180592 L1556512,1180592 L1556512,1180592 L1560576,1180592 L1560576,1180592 L1564640,1180592 L1564640,1180592 L1574800,1180592 L1574800,1180592 L1578864,1180592 L1578864,1180592 L1582928,1180592 L1582928,1180592 L1586992,1180592 L1586992,1180592 L1591056,1180592 L1591056,1180592 L1601216,1180592 L1601216,1180592 L1605280,1180592 L1605280,1180592 L1609344,1180592 L1609344,1180592 L1613408,1180592 L1613408,1180592 L1617472,1180592 L1617472,1180592 L1627632,1180592 L1627632,1180592 L1631696,1180592 L1631696,1180592 L1635760,1180592 L1635760,1180592 L1639824,1180592 L1639824,1180592 L1643888,1180592 L1643888,1180592 L1654048,1180592 L1654048,1180592 L1658112,1180592 L1658112,1180592 L1662176,1180592 L1662176,1180592 L1666240,1180592 L1666240,1180592 L1670304,1180592 L1670304,1180592 L1680464,1180592 L1680464,1180592 L1684528,1180592 L1684528,1180592 L1688592,1180592 L1688592,1180592 L1692656,1180592 L1692656,1180592 L1696720,1180592 L1696720,1180592 L1706880,1180592 L1706880,1180592 L1710944,1180592 L1710944,1180592 L1715008,1180592 L1715008,1180592 L1733296,1180592 L1733296,1180592 L1737360,1180592 L1737360,1180592 L1741424,1180592 L1741424,1180592 L1745488,1180592 L1745488,1180592 L1747520,1180592 L1747520,1180592 L1759712,1180592 L1759712,1180592 L1763776,1180592 L1763776,1180592 L1767840,1180592 L1767840,1180592 L1769872,1178560 L1769872,1178560 L1773936,1178560 L1773936,1178560 L1786128,1178560 L1786128,1178560 L1790192,1176528 L1790192,1176528 L1794256,1176528 L1794256,1176528 L1796288,1176528 L1796288,1176528 L1800352,1176528 L1800352,1176528 L1812544,1176528 L1812544,1176528 L1816608,1176528 L1816608,1176528 L1822704,1176528 L1822704,1176528 L1826768,1176528 L1826768,1176528 L1838960,1174496 L1838960,1174496 L1843024,1174496 L1843024,1174496 L1845056,1174496 L1845056,1174496 L1849120,1174496 L1849120,1174496 L1853184,1174496 L1853184,1174496 L1865376,1174496 L1865376,1174496 L1869440,1174496 L1869440,1174496 L1871472,1174496 L1871472,1174496 L1875536,1174496 L1875536,1174496 L1879600,1176528 L1879600,1176528 L1891792,1176528 L1891792,1176528 L1895856,1176528 L1895856,1176528 L1897888,1176528 L1897888,1176528 L1901952,1176528 L1901952,1176528 L1906016,1176528 L1906016,1176528 L1918208,1176528 L1918208,1176528 L1920240,1176528 L1920240,1176528 L1924304,1176528 L1924304,1176528 L1928368,1176528 L1928368,1176528 L1932432,1176528 L1932432,1176528 L1944624,1176528 L1944624,1176528 L1946656,1176528 L1946656,1176528 L1950720,1176528 L1950720,1176528 L1954784,1176528 L1954784,1176528 L1958848,1176528 L1958848,1176528 L1973072,1176528 L1973072,1176528 L1977136,1176528 L1977136,1176528 L1981200,1176528 L1981200,1176528 L1985264,1176528 L1985264,1176528 L1995424,1176528 L1995424,1176528 L1999488,1178560 L1999488,1178560 L2003552,1178560 L2003552,1178560 L2007616,1178560 L2007616,1178560 L2011680,1176528 L2011680,1176528 L2021840,1176528 L2021840,1176528 L2025904,1176528 L2025904,1176528 L2029968,1176528 L2029968,1176528 L2034032,1176528 L2034032,1176528 L2038096,1176528 L2038096,1176528 L2048256,1176528 L2048256,1176528 L2052320,1176528 L2052320,1176528 L2056384,1174496 L2056384,1174496 L2060448,1174496 L2060448,1174496 L2064512,1174496 L2064512,1174496 L2074672,1174496 L2074672,1174496 L2078736,1174496 L2078736,1174496 L2082800,1174496 L2082800,1174496 L2086864,1174496 L2086864,1174496 L2090928,1174496 L2090928,1174496 L2101088,1172464 L2101088,1172464 L2105152,1172464 L2105152,1172464 L2109216,1172464 L2109216,1172464 L2113280,1172464 L2113280,1172464 L2117344,1172464 L2117344,1172464 L2127504,1172464 L2127504,1172464 L2131568,1170432 L2131568,1170432 L2135632,1170432 L2135632,1170432 L2139696,1170432 L2139696,1170432 L2143760,1170432 L2143760,1170432 L2153920,1170432 L2153920,1170432 L2157984,1170432 L2157984,1170432 L2162048,1168400 L2162048,1168400 L2166112,1168400 L2166112,1168400 L2170176,1168400 L2170176,1168400 L2180336,1168400 L2180336,1168400 L2184400,1168400 L2184400,1168400 L2188464,1168400 L2188464,1168400 L2192528,1168400 L2192528,1168400 L2196592,1168400 L2196592,1168400 L2206752,1168400 L2206752,1168400 L2210816,1168400 L2210816,1168400 L2214880,1168400 L2214880,1168400 L2218944,1168400 L2218944,1168400 L2220976,1168400 L2220976,1168400 L2233168,1168400 L2233168,1168400 L2237232,1168400 L2237232,1168400 L2241296,1168400 L2241296,1168400 L2245360,1168400 L2245360,1168400 L2247392,1168400 L2247392,1168400 L2259584,1168400 L2259584,1168400 L2263648,1168400 L2263648,1168400 L2267712,1170432 L2267712,1170432 L2271776,1170432 L2271776,1170432 L2273808,1170432 L2273808,1170432 L2286000,1170432 L2286000,1170432 L2290064,1170432 L2290064,1170432 L2294128,1170432 L2294128,1170432 L2296160,1170432 L2296160,1170432 L2300224,1170432 L2300224,1170432 L2312416,1170432 L2312416,1170432 L2316480,1172464 L2316480,1172464 L2320544,1172464 L2320544,1172464 L2322576,1174496 L2322576,1174496 L2326640,1174496 L2326640,1174496 L2338832,1174496 L2338832,1174496 L2346960,1174496 L2346960,1174496 L2348992,1174496 L2348992,1174496 L2353056,1174496 L2353056,1174496 L2365248,1174496 L2365248,1174496 L2369312,1172464 L2369312,1172464 L2371344,1172464 L2371344,1172464 L2375408,1174496 L2375408,1174496 L2379472,1174496 L2379472,1174496 L2391664,1174496 L2391664,1174496 L2395728,1174496 L2395728,1174496 L2397760,1174496 L2397760,1174496 L2401824,1174496 L2401824,1174496 L2405888,1174496 L2405888,1174496 L2418080,1174496 L2418080,1174496 L2422144,1174496 L2422144,1174496 L2424176,1174496 L2424176,1174496 L2428240,1174496 L2428240,1174496 L2432304,1174496 L2432304,1174496 L2444496,1176528 L2444496,1176528 L2446528,1176528 L2446528,1176528 L2450592,1176528 L2450592,1176528 L2454656,1176528 L2454656,1176528 L2458720,1176528 L2458720,1176528 L2470912,1176528 L2470912,1176528 L2472944,1176528 L2472944,1176528 L2477008,1178560 L2477008,1178560 L2481072,1178560 L2481072,1178560 L2485136,1178560 L2485136,1178560 L2497328,1178560 L2497328,1178560 L2499360,1180592 L2499360,1180592 L2503424,1180592 L2503424,1180592 L2507488,1180592 L2507488,1180592 L2511552,1178560 L2511552,1178560 L2521712,1178560 L2521712,1178560 L2525776,1178560 L2525776,1178560 L2529840,1178560 L2529840,1178560 L2533904,1178560 L2533904,1178560 L2537968,1178560 L2537968,1178560 L2548128,1178560 L2548128,1178560 L2552192,1178560 L2552192,1178560 L2556256,1178560 L2556256,1178560 L2560320,1178560 L2560320,1178560 L2564384,1178560 L2564384,1178560 L2574544,1178560 L2574544,1178560 L2578608,1178560 L2578608,1178560 L2582672,1178560 L2582672,1178560 L2586736,1178560 L2586736,1178560 L2590800,1178560 L2590800,1178560 L2600960,1178560 L2600960,1178560 L2605024,1178560 L2605024,1178560 L2609088,1178560 L2609088,1178560 L2613152,1180592 L2613152,1180592 L2617216,1180592 L2617216,1180592 L2627376,1180592 L2627376,1180592 L2631440,1180592 L2631440,1180592 L2635504,1180592 L2635504,1180592 L2639568,1180592 L2639568,1180592 L2643632,1180592 L2643632,1180592 L2653792,1180592 L2653792,1180592 L2657856,1180592 L2657856,1180592 L2661920,1180592 L2661920,1180592 L2665984,1180592 L2665984,1180592 L2670048,1180592 L2670048,1180592 L2680208,1180592 L2680208,1180592 L2684272,1180592 L2684272,1180592 L2688336,1180592 L2688336,1180592 L2692400,1180592 L2692400,1180592 L2696464,1180592 L2696464,1180592 L2706624,1180592 L2706624,1180592 L2710688,1180592 L2710688,1180592 L2714752,1182624 L2714752,1182624 L2718816,1182624 L2718816,1182624 L2720848,1182624 L2720848,1182624 L2733040,1182624 L2733040,1182624 L2737104,1182624 L2737104,1182624 L2745232,1182624 L2745232,1182624 L2747264,1182624 L2747264,1182624 L2759456,1182624 L2759456,1182624 L2763520,1182624 L2763520,1182624 L2767584,1182624 L2767584,1182624 L2771648,1182624 L2771648,1182624 L2773680,1182624 L2773680,1182624 L2785872,1182624 L2785872,1182624 L2789936,1182624 L2789936,1182624 L2794000,1182624 L2794000,1182624 L2796032,1182624 L2796032,1182624 L2800096,1182624 L2800096,1182624 L2812288,1182624 L2812288,1182624 L2816352,1182624 L2816352,1182624 L2820416,1182624 L2820416,1182624 L2822448,1180592 L2822448,1180592 L2826512,1180592 L2826512,1180592 L2838704,1180592 L2838704,1180592 L2865120,1180592 L2865120,1180592 L2869184,1180592 L2869184,1180592 L2871216,1180592 L2871216,1180592 L2875280,1180592 L2875280,1180592 L2879344,1180592 L2879344,1180592 L2891536,1180592 L2891536,1180592 L2895600,1180592 L2895600,1180592 L2897632,1180592 L2897632,1180592 L2901696,1178560 L2901696,1178560 L2905760,1178560 L2905760,1178560 L2917952,1178560 L2917952,1178560 L2922016,1178560 L2922016,1178560 L2924048,1178560 L2924048,1178560 L2928112,1178560 L2928112,1178560 L2932176,1178560 L2932176,1178560 L2944368,1178560 L2944368,1178560 L2946400,1178560 L2946400,1178560 L2950464,1176528 L2950464,1176528 L2954528,1176528 L2954528,1176528 L2958592,1176528 L2958592,1176528 L2970784,1174496 L2970784,1174496 L2972816,1174496 L2972816,1174496 L2976880,1174496 L2976880,1174496 L2980944,1174496 L2980944,1174496 L2985008,1172464 L2985008,1172464 L2997200,1172464 L2997200,1172464 L2999232,1172464 L2999232,1172464 L3003296,1170432 L3003296,1170432 L3007360,1170432 L3007360,1170432 L3011424,1170432 L3011424,1170432 L3021584,1170432 L3021584,1170432 L3025648,1170432 L3025648,1170432 L3029712,1170432 L3029712,1170432 L3033776,1168400 L3033776,1168400 L3037840,1168400 L3037840,1168400 L3048000,1168400 L3048000,1168400 L3052064,1166368 L3052064,1166368 L3056128,1166368 L3056128,1166368 L3060192,1164336 L3060192,1164336 L3064256,1164336 L3064256,1164336 L3074416,1164336 L3074416,1164336 L3078480,1164336 L3078480,1164336 L3082544,1164336 L3082544,1164336 L3086608,1164336 L3086608,1164336 L3100832,1164336 L3100832,1164336 L3104896,1164336 L3104896,1164336 L3108960,1164336 L3108960,1164336 L3113024,1164336 L3113024,1164336 L3117088,1164336 L3117088,1164336 L3127248,1164336 L3127248,1164336 L3131312,1164336 L3131312,1164336 L3135376,1164336 L3135376,1164336 L3139440,1162304 L3139440,1162304 L3143504,1162304 L3143504,1162304 L3153664,1160272 L3153664,1160272 L3157728,1160272 L3157728,1160272 L3161792,1158240 L3161792,1158240 L3165856,1158240 L3165856,1158240 L3169920,1158240 L3169920,1158240 L3180080,1158240 L3180080,1158240 L3184144,1158240 L3184144,1158240 L3188208,1158240 L3188208,1158240 L3196336,1158240 L3196336,1158240 L3206496,1158240 L3206496,1158240 L3210560,1158240 L3210560,1158240 L3214624,1158240 L3214624,1158240 L3218688,1158240 L3218688,1158240 L3222752,1158240 L3222752,1158240 L3232912,1158240 L3232912,1158240 L3236976,1158240 L3236976,1158240 L3241040,1158240 L3241040,1158240 L3245104,1158240 L3245104,1158240 L3247136,1158240 L3247136,1158240 L3259328,1160272 L3259328,1160272 L3263392,1160272 L3263392,1160272 L3267456,1160272 L3267456,1160272 L3271520,1160272 L3271520,1160272 L3273552,1160272 L3273552,1160272 L3285744,1158240 L3285744,1158240 L3289808,1158240 L3289808,1158240 L3293872,1158240 L3293872,1158240 L3297936,1158240 L3297936,1158240 L3299968,1158240 L3299968,1158240 L3312160,1158240 L3312160,1158240 L3316224,1158240 L3316224,1158240 L3320288,1156208 L3320288,1156208 L3322320,1156208 L3322320,1156208 L3326384,1154176 L3326384,1154176 L3338576,1152144 L3338576,1152144 L3342640,1152144 L3342640,1152144 L3346704,1152144 L3346704,1152144 L3348736,1152144 L3348736,1152144 L3352800,1150112 L3352800,1150112 L3364992,1148080 L3364992,1148080 L3369056,1148080 L3369056,1148080 L3373120,1148080 L3373120,1148080 L3375152,1146048 L3375152,1146048 L3379216,1144016 L3379216,1144016 L3391408,1144016 L3391408,1144016 L3395472,1144016 L3395472,1144016 L3397504,1144016 L3397504,1144016 L3401568,1144016 L3401568,1144016 L3405632,1144016 L3405632,1144016 L3417824,1141984 L3417824,1141984 L3421888,1141984 L3421888,1141984 L3423920,1141984 L3423920,1141984 L3427984,1141984 L3427984,1141984 L3432048,1141984 L3432048,1141984 L3444240,1141984 L3444240,1141984 L3448304,1141984 L3448304,1141984 L3450336,1144016 L3450336,1144016 L3454400,1144016 L3454400,1144016 L3458464,1144016 L3458464,1144016 L3470656,1144016 L3470656,1144016 L3472688,1144016 L3472688,1144016 L3476752,1144016 L3476752,1144016 L3480816,1141984 L3480816,1141984 L3484880,1141984 L3484880,1141984 L3497072,1139952 L3497072,1139952 L3499104,1139952 L3499104,1139952 L3503168,1139952 L3503168,1139952 L3507232,1139952 L3507232,1139952 L3511296,1141984 L3511296,1141984 L3523488,1141984 L3523488,1141984 L3525520,1141984 L3525520,1141984 L3529584,1141984 L3529584,1141984 L3533648,1141984 L3533648,1141984 L3537712,1139952 L3537712,1139952 L3547872,1139952 L3547872,1139952 L3551936,1139952 L3551936,1139952 L3556000,1139952 L3556000,1139952 L3560064,1139952 L3560064,1139952 L3564128,1139952 L3564128,1139952 L3574288,1139952 L3574288,1139952 L3578352,1139952 L3578352,1139952 L3582416,1139952 L3582416,1139952 L3586480,1139952 L3586480,1139952 L3590544,1139952 L3590544,1139952 L3600704,1139952 L3600704,1139952 L3604768,1141984 L3604768,1141984 L3608832,1141984 L3608832,1141984 L3612896,1141984 L3612896,1141984 L3616960,1144016 L3616960,1144016 L3627120,1144016 L3627120,1144016 L3631184,1146048 L3631184,1146048 L3635248,1146048 L3635248,1146048 L3639312,1144016 L3639312,1144016 L3643376,1144016 L3643376,1144016 L3653536,1144016 L3653536,1144016 L3657600,1144016 L3657600,1144016 L3661664,1144016 L3661664,1144016 L3665728,1144016 L3665728,1144016 L3669792,1144016 L3669792,1144016 L3679952,1144016 L3679952,1144016 L3684016,1144016 L3684016,1144016 L3688080,1144016 L3688080,1144016 L3692144,1141984 L3692144,1141984 L3696208,1139952 L3696208,1139952 L3706368,1139952 L3706368,1139952 L3710432,1137920 L3710432,1137920 L3714496,1129792 L3714496,1129792 L3718560,1125728 L3718560,1125728 L3722624,1121664 L3722624,1121664 L3732784,1119632 L3732784,1119632 L3736848,1117600 L3736848,1117600 L3740912,1111504 L3740912,1111504 L3744976,1105408 L3744976,1105408 L3747008,1103376 L3747008,1103376 L3759200,1103376 L3759200,1103376 L3763264,1099312 L3763264,1099312 L3767328,1093216 L3767328,1093216 L3771392,1089152 L3771392,1089152 L3773424,1085088 L3773424,1085088 L3789680,1083056 L3789680,1083056 L3793744,1081024 L3793744,1081024 L3797808,1076960 L3797808,1076960 L3799840,1072896 L3799840,1072896 L3812032,1064768 L3812032,1064768 L3816096,1062736 L3816096,1062736 L3820160,1052576 L3820160,1052576 L3822192,1040384 L3822192,1040384 L3826256,1024128 L3826256,1024128 L3838448,1022096 L3838448,1022096 L3842512,1013968 L3842512,1013968 L3846576,999744 L3846576,999744 L3848608,981456 L3848608,981456 L3852672,961136 L3852672,961136 L3864864,942848 L3864864,942848 L3868928,922528 L3868928,922528 L3872992,904240 L3872992,904240 L3875024,890016 L3875024,890016 L3879088,881888 L3879088,881888 L3891280,879856 L3891280,879856 L3895344,863600 L3895344,863600 L3897376,831088 L3897376,831088 L3901440,780288 L3901440,780288 L3905504,729488 L3905504,729488 L3917696,699008 L3917696,699008 L3921760,672592 L3921760,672592 L3923792,650240 L3923792,650240 L3927856,642112 L3927856,642112 L3931920,631952 L3931920,631952 L3944112,623824 L3944112,623824 L3948176,621792 L3948176,621792 L3950208,621792 L3950208,621792 L3954272,617728 L3954272,617728 L3958336,615696 L3958336,615696 L3970528,595376 L3970528,595376 L3972560,585216 L3972560,585216 L3976624,566928 L3976624,566928 L3980688,556768 L3980688,556768 L3984752,556768 L3984752,556768 L3996944,556768 L3996944,556768 L3998976,556768 L3998976,556768 L4003040,556768 L4003040,556768 L4007104,562864 L4007104,562864 L4011168,581152 L4011168,581152 L4023360,581152 L4023360,581152 L4025392,581152 L4025392,581152 L4029456,583184 L4029456,583184 L4033520,589280 L4033520,589280 L4037584,585216 L4037584,585216 L4047744,583184 L4047744,583184 L4051808,581152 L4051808,581152 L4055872,579120 L4055872,579120 L4059936,579120 L4059936,579120 L4064000,577088 L4064000,577088 L4074160,568960 L4074160,568960 L4078224,568960 L4078224,568960 L4082288,552704 L4082288,552704 L4086352,548640 L4086352,548640 L4090416,538480 L4090416,538480 L4100576,528320 L4100576,528320 L4104640,518160 L4104640,518160 L4108704,501904 L4108704,501904 L4116832,483616 L4116832,483616 L4126992,463296 L4126992,463296 L4131056,449072 L4131056,449072 L4135120,436880 L4135120,436880 L4139184,432816 L4139184,432816 L4143248,428752 L4143248,428752 L4153408,408432 L4153408,408432 L4157472,384048 L4157472,384048 L4161536,365760 L4161536,365760 L4165600,353568 L4165600,353568 L4169664,339344 L4169664,339344 L4179824,331216 L4179824,331216 L4183888,302768 L4183888,302768 L4187952,292608 L4187952,292608 L4192016,292608 L4192016,292608 L4196080,292608 L4196080,292608 L4206240,292608 L4206240,292608 L4210304,294640 L4210304,294640 L4214368,294640 L4214368,294640 L4218432,296672 L4218432,296672 L4222496,280416 L4222496,280416 L4232656,251968 L4232656,251968 L4236720,256032 L4236720,256032 L4240784,258064 L4240784,258064 L4244848,258064 L4244848,258064 L4248912,256032 L4248912,256032 L4259072,260096 L4259072,260096 L4263136,256032 L4263136,256032 L4267200,256032 L4267200,256032 L4271264,256032 L4271264,256032 L4273296,254000 L4273296,254000 L4285488,254000 L4285488,254000 L4289552,254000 L4289552,254000 L4293616,254000 L4293616,254000 L4297680,254000 L4297680,254000 L4299712,254000 L4299712,254000 L4311904,254000 L4311904,254000 L4315968,251968 L4315968,251968 L4320032,237744 L4320032,237744 L4324096,219456 L4324096,219456 L4326128,215392 L4326128,215392 L4338320,219456 L4338320,219456 L4342384,223520 L4342384,223520 L4346448,223520 L4346448,223520 L4348480,215392 L4348480,215392 L4352544,209296 L4352544,209296 L4364736,209296 L4364736,209296 L4368800,209296 L4368800,209296 L4372864,213360 L4372864,213360 L4374896,223520 L4374896,223520 L4378960,219456 L4378960,219456 L4391152,215392 L4391152,215392 L4395216,209296 L4395216,209296 L4399280,205232 L4399280,205232 L4401312,205232 L4401312,205232 L4405376,223520 L4405376,223520 L4417568,237744 L4417568,237744 L4421632,251968 L4421632,251968 L4423664,251968 L4423664,251968 L4427728,262128 L4427728,262128 L4431792,272288 L4431792,272288 L4443984,272288 L4443984,272288 L4448048,272288 L4448048,272288 L4450080,282448 L4450080,282448 L4454144,284480 L4454144,284480 L4458208,284480 L4458208,284480 L4474464,284480 L4474464,284480 L4476496,284480 L4476496,284480 L4480560,284480 L4480560,284480 L4484624,282448 L4484624,282448 L4496816,282448 L4496816,282448 L4498848,278384 L4498848,278384 L4502912,272288 L4502912,272288 L4506976,264160 L4506976,264160 L4511040,241808 L4511040,241808 L4523232,237744 L4523232,237744 L4525264,233680 L4525264,233680 L4529328,233680 L4529328,233680 L4533392,237744 L4533392,237744 L4537456,241808 L4537456,241808 L4549648,243840 L4549648,243840 L4551680,241808 L4551680,241808 L4555744,231648 L4555744,231648 L4559808,229616 L4559808,229616 L4574032,233680 L4574032,233680 L4578096,233680 L4578096,233680 L4582160,233680 L4582160,233680 L4586224,229616 L4586224,229616 L4590288,205232 L4590288,205232 L4600448,195072 L4600448,195072 L4604512,193040 L4604512,193040 L4608576,191008 L4608576,191008 L4612640,180848 L4612640,180848 L4616704,168656 L4616704,168656 L4626864,166624 L4626864,166624 L4630928,170688 L4630928,170688 L4634992,168656 L4634992,168656 L4639056,164592 L4639056,164592 L4643120,158496 L4643120,158496 L4653280,154432 L4653280,154432 L4657344,154432 L4657344,154432 L4661408,154432 L4661408,154432 L4665472,150368 L4665472,150368 L4669536,148336 L4669536,148336 L4679696,138176 L4679696,138176 L4683760,130048 L4683760,130048 L4687824,121920 L4687824,121920 L4691888,111760 L4691888,111760 L4695952,105664 L4695952,105664 L4706112,101600 L4706112,101600 L4710176,89408 L4710176,89408 L4714240,75184 L4714240,75184 L4718304,71120 L4718304,71120 L4722368,67056 L4722368,67056 L4732528,62992 L4732528,62992 L4736592,54864 L4736592,54864 L4740656,50800 L4740656,50800 L4744720,34544 L4744720,34544 L4758944,30480 L4758944,30480 L4763008,20320 L4763008,20320 L4767072,16256 L4767072,16256 L4771136,14224 L4771136,14224 L4773168,14224 L4773168,14224 L4785360,14224 L4785360,14224 L4789424,10160 L4789424,10160 L4793488,10160 L4793488,10160 L4797552,16256 L4797552,16256 L4799584,16256 L4799584,16256 L4811776,6096 L4811776,6096 L4815840,0 " stroke-width="33866.67" stroke-linecap="round" stroke-linejoin="round" stroke-miterlimit="13.33333" stroke="#012169" fill="none" fill-rule="nonzero" /></g></g><g><g clip-path="url(#clip008)"><g><g transform="translate(935.6601,876.6413)"><text><tspan x="0" y="0" font-family="Connections Cond Light,Arial Narrow" font-weight="normal" font-style="normal" font-size="89.33334" fill="#000000">5.2</tspan></text></g></g></g></g><g><g clip-path="url(#clip009)"><g><g transform="translate(1462.822,1020.051)"><text><tspan x="0" y="0" font-family="Connections Cond Light,Arial Narrow" font-weight="normal" font-style="normal" font-size="89.33334" fill="#000000">4.7</tspan></text></g></g></g></g><g><g clip-path="url(#clip010)"><g><g transform="translate(2581.057,152.7922)"><text><tspan x="0" y="0" font-family="Connections Cond Light,Arial Narrow" font-weight="normal" font-style="normal" font-size="89.33334" fill="#000000">48</tspan></text></g></g></g></g><g><g clip-path="url(#clip011)"><g><g transform="translate(127.5398,1045.25)"><text><tspan x="0" y="0" font-family="Connections Cond Light,Arial Narrow" font-weight="normal" font-style="normal" font-size="105.3333" fill="#000000">2</tspan></text></g></g></g></g><g><g clip-path="url(#clip012)"><g><g transform="translate(76.87314,863.028)"><text><tspan x="0" y="0" font-family="Connections Cond Light,Arial Narrow" font-weight="normal" font-style="normal" font-size="105.3333" fill="#000000">12</tspan></text></g></g></g></g><g><g clip-path="url(#clip013)"><g><g transform="translate(76.87314,680.8058)"><text><tspan x="0" y="0" font-family="Connections Cond Light,Arial Narrow" font-weight="normal" font-style="normal" font-size="105.3333" fill="#000000">22</tspan></text></g></g></g></g><g><g clip-path="url(#clip014)"><g><g transform="translate(76.87314,498.5835)"><text><tspan x="0" y="0" font-family="Connections Cond Light,Arial Narrow" font-weight="normal" font-style="normal" font-size="105.3333" fill="#000000">32</tspan></text></g></g></g></g><g><g clip-path="url(#clip015)"><g><g transform="translate(76.87314,316.3613)"><text><tspan x="0" y="0" font-family="Connections Cond Light,Arial Narrow" font-weight="normal" font-style="normal" font-size="105.3333" fill="#000000">42</tspan></text></g></g></g></g><g><g clip-path="url(#clip016)"><g><g transform="translate(76.87314,134.1391)"><text><tspan x="0" y="0" font-family="Connections Cond Light,Arial Narrow" font-weight="normal" font-style="normal" font-size="105.3333" fill="#000000">52</tspan></text></g></g></g></g><g><g clip-path="url(#clip017)"><g><g transform="matrix(0,-1,1,0,303.2187,1342.203)"><text><tspan x="0" y="0" font-family="Connections Cond Light,Arial Narrow" font-weight="normal" font-style="normal" font-size="100" fill="#000000">Nov-23</tspan></text></g></g></g></g><g><g clip-path="url(#clip018)"><g><g transform="matrix(0,-1,1,0,453.6693,1308.37)"><text><tspan x="0" y="0" font-family="Connections Cond Light,Arial Narrow" font-weight="normal" font-style="normal" font-size="100" fill="#000000">Jan-24</tspan></text></g></g></g></g><g><g clip-path="url(#clip019)"><g><g transform="matrix(0,-1,1,0,601.6526,1341.092)"><text><tspan x="0" y="0" font-family="Connections Cond Light,Arial Narrow" font-weight="normal" font-style="normal" font-size="100" fill="#000000">Mar-24</tspan></text></g></g></g></g><g><g clip-path="url(#clip020)"><g><g transform="matrix(0,-1,1,0,752.1033,1352.203)"><text><tspan x="0" y="0" font-family="Connections Cond Light,Arial Narrow" font-weight="normal" font-style="normal" font-size="100" fill="#000000">May-24</tspan></text></g></g></g></g><g><g clip-path="url(#clip021)"><g><g transform="matrix(0,-1,1,0,902.5538,1286.37)"><text><tspan x="0" y="0" font-family="Connections Cond Light,Arial Narrow" font-weight="normal" font-style="normal" font-size="100" fill="#000000">Jul-24</tspan></text></g></g></g></g><g><g clip-path="url(#clip022)"><g><g transform="matrix(0,-1,1,0,1055.471,1335.593)"><text><tspan x="0" y="0" font-family="Connections Cond Light,Arial Narrow" font-weight="normal" font-style="normal" font-size="100" fill="#000000">Sep-24</tspan></text></g></g></g></g><g><g clip-path="url(#clip023)"><g><g transform="matrix(0,-1,1,0,1205.921,1342.203)"><text><tspan x="0" y="0" font-family="Connections Cond Light,Arial Narrow" font-weight="normal" font-style="normal" font-size="100" fill="#000000">Nov-24</tspan></text></g></g></g></g><g><g clip-path="url(#clip024)"><g><g transform="matrix(0,-1,1,0,1356.372,1308.37)"><text><tspan x="0" y="0" font-family="Connections Cond Light,Arial Narrow" font-weight="normal" font-style="normal" font-size="100" fill="#000000">Jan-25</tspan></text></g></g></g></g><g><g clip-path="url(#clip025)"><g><g transform="matrix(0,-1,1,0,1501.89,1341.092)"><text><tspan x="0" y="0" font-family="Connections Cond Light,Arial Narrow" font-weight="normal" font-style="normal" font-size="100" fill="#000000">Mar-25</tspan></text></g></g></g></g><g><g clip-path="url(#clip026)"><g><g transform="matrix(0,-1,1,0,1652.34,1352.203)"><text><tspan x="0" y="0" font-family="Connections Cond Light,Arial Narrow" font-weight="normal" font-style="normal" font-size="100" fill="#000000">May-25</tspan></text></g></g></g></g><g><g clip-path="url(#clip027)"><g><g transform="matrix(0,-1,1,0,1802.791,1286.37)"><text><tspan x="0" y="0" font-family="Connections Cond Light,Arial Narrow" font-weight="normal" font-style="normal" font-size="100" fill="#000000">Jul-25</tspan></text></g></g></g></g><g><g clip-path="url(#clip028)"><g><g transform="matrix(0,-1,1,0,1955.708,1335.593)"><text><tspan x="0" y="0" font-family="Connections Cond Light,Arial Narrow" font-weight="normal" font-style="normal" font-size="100" fill="#000000">Sep-25</tspan></text></g></g></g></g><g><g clip-path="url(#clip029)"><g><g transform="matrix(0,-1,1,0,2106.158,1342.203)"><text><tspan x="0" y="0" font-family="Connections Cond Light,Arial Narrow" font-weight="normal" font-style="normal" font-size="100" fill="#000000">Nov-25</tspan></text></g></g></g></g><g><g clip-path="url(#clip030)"><g><g transform="matrix(0,-1,1,0,2256.609,1308.37)"><text><tspan x="0" y="0" font-family="Connections Cond Light,Arial Narrow" font-weight="normal" font-style="normal" font-size="100" fill="#000000">Jan-26</tspan></text></g></g></g></g><g><g clip-path="url(#clip031)"><g><g transform="matrix(0,-1,1,0,2402.127,1341.092)"><text><tspan x="0" y="0" font-family="Connections Cond Light,Arial Narrow" font-weight="normal" font-style="normal" font-size="100" fill="#000000">Mar-26</tspan></text></g></g></g></g><g><g clip-path="url(#clip032)"><g><g transform="matrix(0,-1,1,0,2552.577,1352.203)"><text><tspan x="0" y="0" font-family="Connections Cond Light,Arial Narrow" font-weight="normal" font-style="normal" font-size="100" fill="#000000">May-26</tspan></text></g></g></g></g><g><g clip-path="url(#clip033)"><g><g transform="matrix(0,-1,1,0,2703.028,1286.37)"><text><tspan x="0" y="0" font-family="Connections Cond Light,Arial Narrow" font-weight="normal" font-style="normal" font-size="100" fill="#000000">Jul-26</tspan></text></g></g></g></g><g><g clip-path="url(#clip034)"><g><g transform="translate(282.248,132.8666)"><text><tspan x="0" y="0" font-family="Connections Cond Light,Arial Narrow" font-weight="normal" font-style="normal" font-size="105.3333" fill="#000000">US$</tspan></text></g></g></g></g><g clip-path="url(#clip035)"><g transform="matrix(0.000656168,0,0,0.000656168,272,924)"><g><path d="M0,0 L301814,93191.63 " stroke-width="16933.33" stroke-linejoin="round" stroke-miterlimit="13.33333" stroke="#ff0000" fill="none" fill-rule="evenodd" /><path d="M300621.8,39657.01 L382712,118170.7 L270646.9,136734.7 Z" fill="#ff0000" fill-rule="nonzero" /></g></g></g><g clip-path="url(#clip036)"><g transform="matrix(0.000656168,0,0,0.000656168,1068,866.6667)"><g><path d="M0,0 L608125.3,105694 " stroke-width="16933.33" stroke-linejoin="round" stroke-miterlimit="13.33333" stroke="#ff0000" fill="none" fill-rule="evenodd" /><path d="M600140.8,52744.75 L691541.4,120192 L582743.2,152844.1 Z" fill="#ff0000" fill-rule="nonzero" /></g></g></g><g clip-path="url(#clip037)"><g transform="matrix(0.000656168,0,0,-0.000656168,1629.333,982.0823)"><g><path d="M0,0 L1220253,1316737 " stroke-width="16933.33" stroke-linejoin="round" stroke-miterlimit="13.33333" stroke="#00b050" fill="none" fill-rule="evenodd" /><path d="M1246003,1269787 L1277803,1378837 L1171483,1338847 Z" fill="#00b050" fill-rule="nonzero" /></g></g></g><g clip-path="url(#clip038)"><g transform="matrix(0.000656168,0,0,-0.000656168,484,975.3307)"><g><path d="M0,0 L594422,131111.5 " stroke-width="16933.33" stroke-linejoin="round" stroke-miterlimit="13.33333" stroke="#00b050" fill="none" fill-rule="evenodd" /><path d="M588828.1,77856.55 L677101.3,149348 L566944.2,177071.8 Z" fill="#00b050" fill-rule="nonzero" /></g></g></g><g><g clip-path="url(#clip039)"><g><g transform="translate(1840.916,371.2274)"><text><tspan x="0" y="0" font-family="Calibri" font-weight="normal" font-style="normal" font-size="89.33334" fill="#000000">+1000%</tspan></text></g></g></g></g><g><g clip-path="url(#clip040)"><g><g transform="translate(632.4593,850.0735)"><text><tspan x="0" y="0" font-family="Calibri" font-weight="normal" font-style="normal" font-size="89.33334" fill="#000000">+33%</tspan></text></g></g></g></g><g><g clip-path="url(#clip041)"><g><g transform="translate(1240.861,797.4724)"><text><tspan x="0" y="0" font-family="Calibri" font-weight="normal" font-style="normal" font-size="89.33334" fill="#000000">-</tspan></text></g></g></g></g><g><g clip-path="url(#clip042)"><g><g transform="translate(1268.861,797.4724)"><text><tspan x="0" y="0" font-family="Calibri" font-weight="normal" font-style="normal" font-size="89.33334" fill="#000000">10%</tspan></text></g></g></g></g><g><g clip-path="url(#clip043)"><g><g transform="translate(317.2677,894.7996)"><text><tspan x="0" y="0" font-family="Calibri" font-weight="normal" font-style="normal" font-size="89.33334" fill="#000000">-</tspan></text></g></g></g></g><g><g clip-path="url(#clip044)"><g><g transform="translate(345.2677,894.7996)"><text><tspan x="0" y="0" font-family="Calibri" font-weight="normal" font-style="normal" font-size="89.33334" fill="#000000">27%</tspan></text></g></g></g></g><g /></g></g></g></g></g></g></g></g></g></svg>