<svg version="1.1" width="100%" height="100%" viewBox="0 0 355 185" xmlns="http://www.w3.org/2000/svg" xmlns:xlink="http://www.w3.org/1999/xlink"><style type="text/css" /><defs><clipPath id="clip001"><path d="M0,0 L2753.333,0 L2753.333,1544 L0,1544 Z" clip-rule="evenodd" /></clipPath><clipPath id="clip002"><path d="M0,0 L2753.333,0 L2753.333,1544 L0,1544 Z" clip-rule="evenodd" /></clipPath><clipPath id="clip003"><path d="M0,0 L2753.333,0 L2753.333,1544 L0,1544 Z" clip-rule="evenodd" /></clipPath><clipPath id="clip004"><path d="M0,0 L5200,0 L5200,1650.667 L0,1650.667 Z" clip-rule="evenodd" /></clipPath><clipPath id="clip005"><path d="M-800,0 L6000,0 L6000,1650.667 L-800,1650.667 Z" clip-rule="evenodd" /></clipPath><clipPath id="clip006"><path d="M0,0 L2753.333,0 L2753.333,1541.333 L0,1541.333 Z" clip-rule="evenodd" /></clipPath><clipPath id="clip007"><path d="M338.6667,89.33334 L2725.333,89.33334 L2725.333,1206.667 L338.6667,1206.667 Z" clip-rule="evenodd" /></clipPath><clipPath id="clip008"><path d="M338.6667,89.33334 L2725.333,89.33334 L2725.333,1206.667 L338.6667,1206.667 Z" clip-rule="evenodd" /></clipPath><clipPath id="clip009"><path d="M0,0 L2753.333,0 L2753.333,1541.333 L0,1541.333 Z" clip-rule="evenodd" /></clipPath><clipPath id="clip010"><path d="M0,0 L2753.333,0 L2753.333,1541.333 L0,1541.333 Z" clip-rule="evenodd" /></clipPath><clipPath id="clip011"><path d="M0,0 L2753.333,0 L2753.333,1541.333 L0,1541.333 Z" clip-rule="evenodd" /></clipPath><clipPath id="clip012"><path d="M0,0 L2753.333,0 L2753.333,1541.333 L0,1541.333 Z" clip-rule="evenodd" /></clipPath><clipPath id="clip013"><path d="M0,0 L2753.333,0 L2753.333,1541.333 L0,1541.333 Z" clip-rule="evenodd" /></clipPath><clipPath id="clip014"><path d="M0,0 L2753.333,0 L2753.333,1541.333 L0,1541.333 Z" clip-rule="evenodd" /></clipPath><clipPath id="clip015"><path d="M0,0 L2753.333,0 L2753.333,1541.333 L0,1541.333 Z" clip-rule="evenodd" /></clipPath><clipPath id="clip016"><path d="M0,0 L2753.333,0 L2753.333,1541.333 L0,1541.333 Z" clip-rule="evenodd" /></clipPath><clipPath id="clip017"><path d="M0,0 L2753.333,0 L2753.333,1541.333 L0,1541.333 Z" clip-rule="evenodd" /></clipPath><clipPath id="clip018"><path d="M0,0 L2753.333,0 L2753.333,1541.333 L0,1541.333 Z" clip-rule="evenodd" /></clipPath><clipPath id="clip019"><path d="M0,0 L2753.333,0 L2753.333,1541.333 L0,1541.333 Z" clip-rule="evenodd" /></clipPath><clipPath id="clip020"><path d="M0,0 L2753.333,0 L2753.333,1541.333 L0,1541.333 Z" clip-rule="evenodd" /></clipPath><clipPath id="clip021"><path d="M0,0 L2753.333,0 L2753.333,1541.333 L0,1541.333 Z" clip-rule="evenodd" /></clipPath><clipPath id="clip022"><path d="M0,0 L2753.333,0 L2753.333,1541.333 L0,1541.333 Z" clip-rule="evenodd" /></clipPath><clipPath id="clip023"><path d="M0,0 L2753.333,0 L2753.333,1541.333 L0,1541.333 Z" clip-rule="evenodd" /></clipPath><clipPath id="clip024"><path d="M0,0 L2753.333,0 L2753.333,1541.333 L0,1541.333 Z" clip-rule="evenodd" /></clipPath><clipPath id="clip025"><path d="M0,0 L2753.333,0 L2753.333,1541.333 L0,1541.333 Z" clip-rule="evenodd" /></clipPath><clipPath id="clip026"><path d="M0,0 L2753.333,0 L2753.333,1541.333 L0,1541.333 Z" clip-rule="evenodd" /></clipPath><clipPath id="clip027"><path d="M0,0 L2753.333,0 L2753.333,1541.333 L0,1541.333 Z" clip-rule="evenodd" /></clipPath><clipPath id="clip028"><path d="M0,0 L2753.333,0 L2753.333,1541.333 L0,1541.333 Z" clip-rule="evenodd" /></clipPath><clipPath id="clip029"><path d="M0,0 L2753.333,0 L2753.333,1541.333 L0,1541.333 Z" clip-rule="evenodd" /></clipPath><clipPath id="clip030"><path d="M0,0 L2753.333,0 L2753.333,1541.333 L0,1541.333 Z" clip-rule="evenodd" /></clipPath><clipPath id="clip031"><path d="M0,0 L2753.333,0 L2753.333,1541.333 L0,1541.333 Z" clip-rule="evenodd" /></clipPath><clipPath id="clip032"><path d="M0,0 L2753.333,0 L2753.333,1541.333 L0,1541.333 Z" clip-rule="evenodd" /></clipPath><clipPath id="clip033"><path d="M0,0 L2753.333,0 L2753.333,1541.333 L0,1541.333 Z" clip-rule="evenodd" /></clipPath><clipPath id="clip034"><path d="M0,0 L2753.333,0 L2753.333,1541.333 L0,1541.333 Z" clip-rule="evenodd" /></clipPath><clipPath id="clip035"><path d="M0,0 L2753.333,0 L2753.333,1541.333 L0,1541.333 Z" clip-rule="evenodd" /></clipPath><clipPath id="clip036"><path d="M0,0 L2753.333,0 L2753.333,1541.333 L0,1541.333 Z" clip-rule="evenodd" /></clipPath><clipPath id="clip037"><path d="M0,0 L2753.333,0 L2753.333,1541.333 L0,1541.333 Z" clip-rule="evenodd" /></clipPath><clipPath id="clip038"><path d="M0,0 L2753.333,0 L2753.333,1541.333 L0,1541.333 Z" clip-rule="evenodd" /></clipPath><clipPath id="clip039"><path d="M0,0 L2753.333,0 L2753.333,1541.333 L0,1541.333 Z" clip-rule="evenodd" /></clipPath><clipPath id="clip040"><path d="M0,0 L2753.333,0 L2753.333,1541.333 L0,1541.333 Z" clip-rule="evenodd" /></clipPath><clipPath id="clip041"><path d="M0,0 L2753.333,0 L2753.333,1541.333 L0,1541.333 Z" clip-rule="evenodd" /></clipPath></defs><clipPath id="page-clip-path-1"><rect x="0" y="0" width="354.67" height="185.33" /></clipPath><g clip-path="url(#page-clip-path-1)" transform="translate(0.17,0)"><g transform="translate(1,1)"><g><g transform="matrix(0.1200484,0,0,0.1198187,0,0)" clip-path="url(#clip001)"><g><g clip-path="url(#clip002)"><g><g clip-path="url(#clip003)"><g transform="matrix(1.000207,0,0,1.001154,-0.00016276,0)"><g><g><g clip-path="url(#clip004)"><g transform="translate(2753.333,1542.667)" /></g></g></g><g clip-path="url(#clip005)"><g transform="matrix(0.000656168,0,0,0.000656168,0,0)"><path d="M0,0 L4198112,0 L4198112,2348992 L0,2348992 Z" fill="#ffffff" fill-opacity="0" fill-rule="evenodd" /></g></g><g clip-path="url(#clip006)"><g transform="matrix(0.000656168,0,0,0.000656168,340,1060)"><g><path d="M0.002492678,-6773.333 L3623056,-6772 " stroke-width="3386.667" stroke-linejoin="round" stroke-miterlimit="13.33333" stroke="#000000" fill="none" fill-rule="evenodd" /><path d="M-0.001246339,3386.667 L3623056,3388 " stroke-width="10160" stroke-linejoin="round" stroke-miterlimit="13.33333" stroke="#000000" fill="none" fill-rule="evenodd" /></g></g></g><g clip-path="url(#clip007)"><g transform="matrix(0.000656168,0,0,0.000656168,374,244.6667)"><path d="M0,1267968 L101600,1223264 L101600,1223264 L205232,1217168 L205232,1217168 L308864,1241552 L308864,1241552 L412496,1223264 L412496,1223264 L516128,1204976 L516128,1204976 L619760,1172464 L619760,1172464 L723392,1237488 L723392,1237488 L827024,1225296 L827024,1225296 L930656,1219200 L930656,1219200 L1034288,1253744 L1034288,1253744 L1137920,1209040 L1137920,1209040 L1241552,1213104 L1241552,1213104 L1345184,1274064 L1345184,1274064 L1448816,1270000 L1448816,1270000 L1552448,1261872 L1552448,1261872 L1656080,1257808 L1656080,1257808 L1759712,1251712 L1759712,1251712 L1863344,1223264 L1863344,1223264 L1966976,1170432 L1966976,1170432 L2070608,1180592 L2070608,1180592 L2174240,1221232 L2174240,1221232 L2277872,1178560 L2277872,1178560 L2381504,1196848 L2381504,1196848 L2485136,1241552 L2485136,1241552 L2588768,1166368 L2588768,1166368 L2692400,585216 L2692400,585216 L2794000,0 L2794000,0 L2897632,1072896 L2897632,1072896 L3001264,953008 L3001264,953008 L3104896,1123696 L3104896,1123696 L3208528,1221232 L3208528,1221232 L3312160,1274064 L3312160,1274064 L3415792,1166368 L3415792,1166368 L3519424,1131824 " stroke-width="33866.67" stroke-linecap="round" stroke-linejoin="round" stroke-miterlimit="13.33333" stroke="#012169" fill="none" fill-rule="nonzero" /></g></g><g clip-path="url(#clip008)"><g transform="matrix(0.000656168,0,0,0.000656168,374,199.3333)"><path d="M0,1235456 L101600,1312672 L101600,1312672 L205232,1188720 L205232,1188720 L308864,1284224 L308864,1284224 L412496,1286256 L412496,1286256 L516128,1286256 L516128,1286256 L619760,1312672 L619760,1312672 L723392,1312672 L723392,1312672 L827024,1170432 L827024,1170432 L930656,1312672 L930656,1312672 L1034288,1312672 L1034288,1312672 L1137920,1312672 L1137920,1312672 L1241552,1347216 L1241552,1347216 L1345184,1418336 L1345184,1418336 L1448816,1312672 L1448816,1312672 L1552448,1351280 L1552448,1351280 L1656080,1312672 L1656080,1312672 L1759712,1353312 L1759712,1353312 L1863344,1298448 L1863344,1298448 L1966976,1186688 L1966976,1186688 L2070608,1225296 L2070608,1225296 L2174240,1265936 L2174240,1265936 L2277872,1245616 L2277872,1245616 L2381504,1282192 L2381504,1282192 L2485136,1312672 L2485136,1312672 L2588768,1141984 L2588768,1141984 L2692400,861568 L2692400,861568 L2794000,0 L2794000,0 L2897632,1241552 L2897632,1241552 L3001264,920496 L3001264,920496 L3104896,1257808 L3104896,1257808 L3208528,1278128 L3208528,1278128 L3312160,1176528 L3312160,1176528 L3415792,1237488 L3415792,1237488 L3519424,1241552 " stroke-width="33866.67" stroke-linecap="round" stroke-linejoin="round" stroke-miterlimit="13.33333" stroke="#009cde" fill="none" fill-rule="nonzero" /></g></g><g><g clip-path="url(#clip009)"><g><g transform="translate(37.77778,1228.935)"><text><tspan x="0" y="0" font-family="Connections Cond Light,Arial Narrow" font-weight="normal" font-style="normal" font-size="105.3333" fill="#000000">-20%</tspan></text></g></g></g></g><g><g clip-path="url(#clip010)"><g><g transform="translate(118,1090.248)"><text><tspan x="0" y="0" font-family="Connections Cond Light,Arial Narrow" font-weight="normal" font-style="normal" font-size="105.3333" fill="#000000">0%</tspan></text></g></g></g></g><g><g clip-path="url(#clip011)"><g><g transform="translate(67.33334,951.5608)"><text><tspan x="0" y="0" font-family="Connections Cond Light,Arial Narrow" font-weight="normal" font-style="normal" font-size="105.3333" fill="#000000">20%</tspan></text></g></g></g></g><g><g clip-path="url(#clip012)"><g><g transform="translate(67.33334,812.874)"><text><tspan x="0" y="0" font-family="Connections Cond Light,Arial Narrow" font-weight="normal" font-style="normal" font-size="105.3333" fill="#000000">40%</tspan></text></g></g></g></g><g><g clip-path="url(#clip013)"><g><g transform="translate(67.33334,674.1872)"><text><tspan x="0" y="0" font-family="Connections Cond Light,Arial Narrow" font-weight="normal" font-style="normal" font-size="105.3333" fill="#000000">60%</tspan></text></g></g></g></g><g><g clip-path="url(#clip014)"><g><g transform="translate(67.33334,535.5004)"><text><tspan x="0" y="0" font-family="Connections Cond Light,Arial Narrow" font-weight="normal" font-style="normal" font-size="105.3333" fill="#000000">80%</tspan></text></g></g></g></g><g><g clip-path="url(#clip015)"><g><g transform="translate(16.66667,396.8136)"><text><tspan x="0" y="0" font-family="Connections Cond Light,Arial Narrow" font-weight="normal" font-style="normal" font-size="105.3333" fill="#000000">100%</tspan></text></g></g></g></g><g><g clip-path="url(#clip016)"><g><g transform="translate(16.66667,258.126)"><text><tspan x="0" y="0" font-family="Connections Cond Light,Arial Narrow" font-weight="normal" font-style="normal" font-size="105.3333" fill="#000000">120%</tspan></text></g></g></g></g><g><g clip-path="url(#clip017)"><g><g transform="translate(16.66667,119.4392)"><text><tspan x="0" y="0" font-family="Connections Cond Light,Arial Narrow" font-weight="normal" font-style="normal" font-size="105.3333" fill="#000000">140%</tspan></text></g></g></g></g><g><g clip-path="url(#clip018)"><g><g transform="matrix(0,-1,1,0,405.808,1525)"><text><tspan x="0" y="0" font-family="Connections Cond Light,Arial Narrow" font-weight="normal" font-style="normal" font-size="100" fill="#000000">Aug-23</tspan></text></g></g></g></g><g><g clip-path="url(#clip019)"><g><g transform="matrix(0,-1,1,0,541.7039,1510.334)"><text><tspan x="0" y="0" font-family="Connections Cond Light,Arial Narrow" font-weight="normal" font-style="normal" font-size="100" fill="#000000">Oct-23</tspan></text></g></g></g></g><g><g clip-path="url(#clip020)"><g><g transform="matrix(0,-1,1,0,677.5997,1519.279)"><text><tspan x="0" y="0" font-family="Connections Cond Light,Arial Narrow" font-weight="normal" font-style="normal" font-size="100" fill="#000000">Dec-23</tspan></text></g></g></g></g><g><g clip-path="url(#clip021)"><g><g transform="matrix(0,-1,1,0,813.4948,1516.501)"><text><tspan x="0" y="0" font-family="Connections Cond Light,Arial Narrow" font-weight="normal" font-style="normal" font-size="100" fill="#000000">Feb-24</tspan></text></g></g></g></g><g><g clip-path="url(#clip022)"><g><g transform="matrix(0,-1,1,0,949.3906,1508.445)"><text><tspan x="0" y="0" font-family="Connections Cond Light,Arial Narrow" font-weight="normal" font-style="normal" font-size="100" fill="#000000">Apr-24</tspan></text></g></g></g></g><g><g clip-path="url(#clip023)"><g><g transform="matrix(0,-1,1,0,1085.286,1499.056)"><text><tspan x="0" y="0" font-family="Connections Cond Light,Arial Narrow" font-weight="normal" font-style="normal" font-size="100" fill="#000000">Jun-24</tspan></text></g></g></g></g><g><g clip-path="url(#clip024)"><g><g transform="matrix(0,-1,1,0,1221.182,1525)"><text><tspan x="0" y="0" font-family="Connections Cond Light,Arial Narrow" font-weight="normal" font-style="normal" font-size="100" fill="#000000">Aug-24</tspan></text></g></g></g></g><g><g clip-path="url(#clip025)"><g><g transform="matrix(0,-1,1,0,1357.078,1510.334)"><text><tspan x="0" y="0" font-family="Connections Cond Light,Arial Narrow" font-weight="normal" font-style="normal" font-size="100" fill="#000000">Oct-24</tspan></text></g></g></g></g><g><g clip-path="url(#clip026)"><g><g transform="matrix(0,-1,1,0,1492.973,1519.279)"><text><tspan x="0" y="0" font-family="Connections Cond Light,Arial Narrow" font-weight="normal" font-style="normal" font-size="100" fill="#000000">Dec-24</tspan></text></g></g></g></g><g><g clip-path="url(#clip027)"><g><g transform="matrix(0,-1,1,0,1628.868,1516.501)"><text><tspan x="0" y="0" font-family="Connections Cond Light,Arial Narrow" font-weight="normal" font-style="normal" font-size="100" fill="#000000">Feb-25</tspan></text></g></g></g></g><g><g clip-path="url(#clip028)"><g><g transform="matrix(0,-1,1,0,1764.764,1508.445)"><text><tspan x="0" y="0" font-family="Connections Cond Light,Arial Narrow" font-weight="normal" font-style="normal" font-size="100" fill="#000000">Apr-25</tspan></text></g></g></g></g><g><g clip-path="url(#clip029)"><g><g transform="matrix(0,-1,1,0,1900.66,1499.056)"><text><tspan x="0" y="0" font-family="Connections Cond Light,Arial Narrow" font-weight="normal" font-style="normal" font-size="100" fill="#000000">Jun-25</tspan></text></g></g></g></g><g><g clip-path="url(#clip030)"><g><g transform="matrix(0,-1,1,0,2036.555,1525)"><text><tspan x="0" y="0" font-family="Connections Cond Light,Arial Narrow" font-weight="normal" font-style="normal" font-size="100" fill="#000000">Aug-25</tspan></text></g></g></g></g><g><g clip-path="url(#clip031)"><g><g transform="matrix(0,-1,1,0,2172.451,1510.334)"><text><tspan x="0" y="0" font-family="Connections Cond Light,Arial Narrow" font-weight="normal" font-style="normal" font-size="100" fill="#000000">Oct-25</tspan></text></g></g></g></g><g><g clip-path="url(#clip032)"><g><g transform="matrix(0,-1,1,0,2308.347,1519.279)"><text><tspan x="0" y="0" font-family="Connections Cond Light,Arial Narrow" font-weight="normal" font-style="normal" font-size="100" fill="#000000">Dec-25</tspan></text></g></g></g></g><g><g clip-path="url(#clip033)"><g><g transform="matrix(0,-1,1,0,2444.242,1516.501)"><text><tspan x="0" y="0" font-family="Connections Cond Light,Arial Narrow" font-weight="normal" font-style="normal" font-size="100" fill="#000000">Feb-26</tspan></text></g></g></g></g><g><g clip-path="url(#clip034)"><g><g transform="matrix(0,-1,1,0,2580.138,1508.445)"><text><tspan x="0" y="0" font-family="Connections Cond Light,Arial Narrow" font-weight="normal" font-style="normal" font-size="100" fill="#000000">Apr-26</tspan></text></g></g></g></g><g><g clip-path="url(#clip035)"><g><g transform="matrix(0,-1,1,0,2716.034,1499.056)"><text><tspan x="0" y="0" font-family="Connections Cond Light,Arial Narrow" font-weight="normal" font-style="normal" font-size="100" fill="#000000">Jun-26</tspan></text></g></g></g></g><g><g clip-path="url(#clip036)"><g><g transform="translate(339.0031,247.1737)"><text><tspan x="0" y="0" font-family="Connections Cond Bld,Arial Narrow" font-weight="normal" font-style="normal" font-size="105.3333" fill="#000000">MoM</tspan></text></g></g></g></g><g clip-path="url(#clip037)"><g transform="matrix(0.000656168,0,0,0.000656168,354.6667,0)"><path d="M0,0 L3515360,0 L3515360,233680 L0,233680 Z" fill="#4f81bd" fill-opacity="0" fill-rule="evenodd" /></g></g><g clip-path="url(#clip038)"><g transform="matrix(0.000656168,0,0,0.000656168,507.3333,76.66666)"><path d="M0,0 L325120,1.333333 " stroke-width="33866.67" stroke-linecap="round" stroke-linejoin="round" stroke-miterlimit="13.33333" stroke="#012169" fill="none" fill-rule="evenodd" /></g></g><g><g clip-path="url(#clip039)"><g><g transform="translate(743.0061,106.6229)"><text><tspan x="0" y="0" font-family="Connections Cond Light,Arial Narrow" font-weight="normal" font-style="normal" font-size="105.3333" fill="#000000">16Gb DDR5 spot</tspan></text></g></g></g></g><g clip-path="url(#clip040)"><g transform="matrix(0.000656168,0,0,0.000656168,1528.667,76.66666)"><path d="M0,0 L325120,1.333333 " stroke-width="33866.67" stroke-linecap="round" stroke-linejoin="round" stroke-miterlimit="13.33333" stroke="#009cde" fill="none" fill-rule="evenodd" /></g></g><g><g clip-path="url(#clip041)"><g><g transform="translate(1764.266,106.6229)"><text><tspan x="0" y="0" font-family="Connections Cond Light,Arial Narrow" font-weight="normal" font-style="normal" font-size="105.3333" fill="#000000">16Gb DDR5 contract</tspan></text></g></g></g></g><g /></g></g></g></g></g></g></g></g></g></svg>