<svg version="1.1" width="100%" height="100%" viewBox="0 0 500 211" xmlns="http://www.w3.org/2000/svg" xmlns:xlink="http://www.w3.org/1999/xlink"><style type="text/css" /><defs><clipPath id="clip001"><path d="M0,0 L3958.667,0 L3958.667,1753.333 L0,1753.333 Z" clip-rule="evenodd" /></clipPath><clipPath id="clip002"><path d="M0,0 L3958.667,0 L3958.667,1753.333 L0,1753.333 Z" clip-rule="evenodd" /></clipPath><clipPath id="clip003"><path d="M0,0 L3958.667,0 L3958.667,1753.333 L0,1753.333 Z" clip-rule="evenodd" /></clipPath><clipPath id="clip004"><path d="M0,0 L5200,0 L5200,1858.667 L0,1858.667 Z" clip-rule="evenodd" /></clipPath><clipPath id="clip005"><path d="M-800,0 L6000,0 L6000,1858.667 L-800,1858.667 Z" clip-rule="evenodd" /></clipPath><clipPath id="clip006"><path d="M0,0 L3960,0 L3960,1749.333 L0,1749.333 Z" clip-rule="evenodd" /></clipPath><clipPath id="clip007"><path d="M0,0 L3960,0 L3960,1749.333 L0,1749.333 Z" clip-rule="evenodd" /></clipPath><clipPath id="clip008"><path d="M266.6667,157.3333 L3588,157.3333 L3588,1410.667 L266.6667,1410.667 Z" clip-rule="evenodd" /></clipPath><clipPath id="clip009"><path d="M266.6667,157.3333 L3588,157.3333 L3588,1410.667 L266.6667,1410.667 Z" clip-rule="evenodd" /></clipPath><clipPath id="clip010"><path d="M0,0 L3960,0 L3960,1749.333 L0,1749.333 Z" clip-rule="evenodd" /></clipPath><clipPath id="clip011"><path d="M0,0 L3960,0 L3960,1749.333 L0,1749.333 Z" clip-rule="evenodd" /></clipPath><clipPath id="clip012"><path d="M0,0 L3960,0 L3960,1749.333 L0,1749.333 Z" clip-rule="evenodd" /></clipPath><clipPath id="clip013"><path d="M0,0 L3960,0 L3960,1749.333 L0,1749.333 Z" clip-rule="evenodd" /></clipPath><clipPath id="clip014"><path d="M0,0 L3960,0 L3960,1749.333 L0,1749.333 Z" clip-rule="evenodd" /></clipPath><clipPath id="clip015"><path d="M0,0 L3960,0 L3960,1749.333 L0,1749.333 Z" clip-rule="evenodd" /></clipPath><clipPath id="clip016"><path d="M0,0 L3960,0 L3960,1749.333 L0,1749.333 Z" clip-rule="evenodd" /></clipPath><clipPath id="clip017"><path d="M0,0 L3960,0 L3960,1749.333 L0,1749.333 Z" clip-rule="evenodd" /></clipPath><clipPath id="clip018"><path d="M0,0 L3960,0 L3960,1749.333 L0,1749.333 Z" clip-rule="evenodd" /></clipPath><clipPath id="clip019"><path d="M0,0 L3960,0 L3960,1749.333 L0,1749.333 Z" clip-rule="evenodd" /></clipPath><clipPath id="clip020"><path d="M0,0 L3960,0 L3960,1749.333 L0,1749.333 Z" clip-rule="evenodd" /></clipPath><clipPath id="clip021"><path d="M0,0 L3960,0 L3960,1749.333 L0,1749.333 Z" clip-rule="evenodd" /></clipPath><clipPath id="clip022"><path d="M0,0 L3960,0 L3960,1749.333 L0,1749.333 Z" clip-rule="evenodd" /></clipPath><clipPath id="clip023"><path d="M0,0 L3960,0 L3960,1749.333 L0,1749.333 Z" clip-rule="evenodd" /></clipPath><clipPath id="clip024"><path d="M0,0 L3960,0 L3960,1749.333 L0,1749.333 Z" clip-rule="evenodd" /></clipPath><clipPath id="clip025"><path d="M0,0 L3960,0 L3960,1749.333 L0,1749.333 Z" clip-rule="evenodd" /></clipPath><clipPath id="clip026"><path d="M0,0 L3960,0 L3960,1749.333 L0,1749.333 Z" clip-rule="evenodd" /></clipPath><clipPath id="clip027"><path d="M0,0 L3960,0 L3960,1749.333 L0,1749.333 Z" clip-rule="evenodd" /></clipPath><clipPath id="clip028"><path d="M0,0 L3960,0 L3960,1749.333 L0,1749.333 Z" clip-rule="evenodd" /></clipPath><clipPath id="clip029"><path d="M0,0 L3960,0 L3960,1749.333 L0,1749.333 Z" clip-rule="evenodd" /></clipPath><clipPath id="clip030"><path d="M0,0 L3960,0 L3960,1749.333 L0,1749.333 Z" clip-rule="evenodd" /></clipPath><clipPath id="clip031"><path d="M0,0 L3960,0 L3960,1749.333 L0,1749.333 Z" clip-rule="evenodd" /></clipPath><clipPath id="clip032"><path d="M0,0 L3960,0 L3960,1749.333 L0,1749.333 Z" clip-rule="evenodd" /></clipPath><clipPath id="clip033"><path d="M0,0 L3960,0 L3960,1749.333 L0,1749.333 Z" clip-rule="evenodd" /></clipPath><clipPath id="clip034"><path d="M0,0 L3960,0 L3960,1749.333 L0,1749.333 Z" clip-rule="evenodd" /></clipPath><clipPath id="clip035"><path d="M0,0 L3960,0 L3960,1749.333 L0,1749.333 Z" clip-rule="evenodd" /></clipPath><clipPath id="clip036"><path d="M0,0 L3960,0 L3960,1749.333 L0,1749.333 Z" clip-rule="evenodd" /></clipPath><clipPath id="clip037"><path d="M0,0 L3960,0 L3960,1749.333 L0,1749.333 Z" clip-rule="evenodd" /></clipPath><clipPath id="clip038"><path d="M0,0 L3960,0 L3960,1749.333 L0,1749.333 Z" clip-rule="evenodd" /></clipPath><clipPath id="clip039"><path d="M0,0 L3960,0 L3960,1749.333 L0,1749.333 Z" clip-rule="evenodd" /></clipPath><clipPath id="clip040"><path d="M0,0 L3960,0 L3960,1749.333 L0,1749.333 Z" clip-rule="evenodd" /></clipPath><clipPath id="clip041"><path d="M0,0 L3960,0 L3960,1749.333 L0,1749.333 Z" clip-rule="evenodd" /></clipPath><clipPath id="clip042"><path d="M0,0 L3960,0 L3960,1749.333 L0,1749.333 Z" clip-rule="evenodd" /></clipPath><clipPath id="clip043"><path d="M0,0 L3960,0 L3960,1749.333 L0,1749.333 Z" clip-rule="evenodd" /></clipPath><clipPath id="clip044"><path d="M0,0 L3960,0 L3960,1749.333 L0,1749.333 Z" clip-rule="evenodd" /></clipPath><clipPath id="clip045"><path d="M0,0 L3960,0 L3960,1749.333 L0,1749.333 Z" clip-rule="evenodd" /></clipPath><clipPath id="clip046"><path d="M0,0 L3960,0 L3960,1749.333 L0,1749.333 Z" clip-rule="evenodd" /></clipPath><clipPath id="clip047"><path d="M0,0 L3960,0 L3960,1749.333 L0,1749.333 Z" clip-rule="evenodd" /></clipPath><clipPath id="clip048"><path d="M0,0 L3960,0 L3960,1749.333 L0,1749.333 Z" clip-rule="evenodd" /></clipPath><clipPath id="clip049"><path d="M0,0 L3960,0 L3960,1749.333 L0,1749.333 Z" clip-rule="evenodd" /></clipPath><clipPath id="clip050"><path d="M0,0 L3960,0 L3960,1749.333 L0,1749.333 Z" clip-rule="evenodd" /></clipPath><clipPath id="clip051"><path d="M0,0 L3960,0 L3960,1749.333 L0,1749.333 Z" clip-rule="evenodd" /></clipPath><clipPath id="clip052"><path d="M0,0 L3960,0 L3960,1749.333 L0,1749.333 Z" clip-rule="evenodd" /></clipPath><clipPath id="clip053"><path d="M0,0 L3960,0 L3960,1749.333 L0,1749.333 Z" clip-rule="evenodd" /></clipPath><clipPath id="clip054"><path d="M0,0 L3960,0 L3960,1749.333 L0,1749.333 Z" clip-rule="evenodd" /></clipPath><clipPath id="clip055"><path d="M0,0 L3960,0 L3960,1749.333 L0,1749.333 Z" clip-rule="evenodd" /></clipPath><clipPath id="clip056"><path d="M0,0 L3960,0 L3960,1749.333 L0,1749.333 Z" clip-rule="evenodd" /></clipPath><clipPath id="clip057"><path d="M0,0 L3960,0 L3960,1749.333 L0,1749.333 Z" clip-rule="evenodd" /></clipPath><clipPath id="clip058"><path d="M0,0 L3960,0 L3960,1749.333 L0,1749.333 Z" clip-rule="evenodd" /></clipPath><clipPath id="clip059"><path d="M0,0 L3960,0 L3960,1749.333 L0,1749.333 Z" clip-rule="evenodd" /></clipPath><clipPath id="clip060"><path d="M0,0 L3960,0 L3960,1749.333 L0,1749.333 Z" clip-rule="evenodd" /></clipPath><clipPath id="clip061"><path d="M0,0 L3960,0 L3960,1749.333 L0,1749.333 Z" clip-rule="evenodd" /></clipPath><clipPath id="clip062"><path d="M0,0 L3960,0 L3960,1749.333 L0,1749.333 Z" clip-rule="evenodd" /></clipPath><clipPath id="clip063"><path d="M0,0 L3960,0 L3960,1749.333 L0,1749.333 Z" clip-rule="evenodd" /></clipPath><clipPath id="clip064"><path d="M0,0 L3960,0 L3960,1750.667 L0,1750.667 Z" clip-rule="evenodd" /></clipPath><clipPath id="clip065"><path d="M0,0 L3960,0 L3960,1750.667 L0,1750.667 Z" clip-rule="evenodd" /></clipPath></defs><clipPath id="page-clip-path-1"><rect x="0" y="0" width="500" height="210.67" /></clipPath><g clip-path="url(#page-clip-path-1)"><g transform="translate(1,1)"><g><g transform="matrix(0.1200404,0,0,0.1198099,0,0)" clip-path="url(#clip001)"><g><g clip-path="url(#clip002)"><g><g clip-path="url(#clip003)"><g transform="matrix(1.000207,0,0,1.000424,-0.00016276,0)"><g><g><g clip-path="url(#clip004)"><g transform="translate(3960,1750.667)" /></g></g></g><g clip-path="url(#clip005)"><g transform="matrix(0.000656168,0,0,0.000656168,0,0)"><path d="M0,0 L6035040,0 L6035040,2668016 L0,2668016 Z" fill="#ffffff" fill-opacity="0" fill-rule="evenodd" /></g></g><g clip-path="url(#clip006)"><g transform="matrix(0.000656168,0,0,0.000656168,268,157.3333)"><path d="M0,0 L5047488,0 L5047488,1899920 L0,1899920 Z" fill="#ebf1de" fill-rule="evenodd" /></g></g><g clip-path="url(#clip007)"><g transform="matrix(0.000656168,0,0,0.000656168,268,1404)"><g><path d="M0.001789229,-6773.333 L5047488,-6772 " stroke-width="3386.667" stroke-linejoin="round" stroke-miterlimit="13.33333" stroke="#000000" fill="none" fill-rule="evenodd" /><path d="M-0.000894614,3386.667 L5047488,3388 " stroke-width="10160" stroke-linejoin="round" stroke-miterlimit="13.33333" stroke="#000000" fill="none" fill-rule="evenodd" /></g></g></g><g clip-path="url(#clip008)"><g transform="matrix(0.000656168,0,0,0.000656168,-332.6667,258)"><path d="M0,1233424 L14224,1253744 L14224,1253744 L26416,1300480 L26416,1300480 L40640,1272032 L40640,1272032 L54864,1270000 L54864,1270000 L69088,1280160 L69088,1280160 L83312,1286256 L83312,1286256 L97536,1272032 L97536,1272032 L111760,1247648 L111760,1247648 L125984,1286256 L125984,1286256 L138176,1243584 L138176,1243584 L152400,1235456 L152400,1235456 L166624,1225296 L166624,1225296 L180848,1243584 L180848,1243584 L195072,1245616 L195072,1245616 L209296,1217168 L209296,1217168 L223520,1227328 L223520,1227328 L237744,1211072 L237744,1211072 L249936,1196848 L249936,1196848 L264160,1215136 L264160,1215136 L278384,1188720 L278384,1188720 L292608,1172464 L292608,1172464 L306832,1174496 L306832,1174496 L321056,1146048 L321056,1146048 L335280,1180592 L335280,1180592 L349504,1152144 L349504,1152144 L363728,1119632 L363728,1119632 L375920,1097280 L375920,1097280 L390144,1066800 L390144,1066800 L404368,1064768 L404368,1064768 L418592,1028192 L418592,1028192 L432816,987552 L432816,987552 L447040,1026160 L447040,1026160 L461264,965200 L461264,965200 L475488,979424 L475488,979424 L487680,993648 L487680,993648 L501904,1022096 L501904,1022096 L516128,1024128 L516128,1024128 L530352,997712 L530352,997712 L544576,1024128 L544576,1024128 L558800,1036320 L558800,1036320 L573024,1050544 L573024,1050544 L587248,1097280 L587248,1097280 L601472,1052576 L601472,1052576 L613664,1044448 L613664,1044448 L627888,1032256 L627888,1032256 L642112,1050544 L642112,1050544 L656336,1062736 L656336,1062736 L670560,1038352 L670560,1038352 L684784,1038352 L684784,1038352 L699008,1048512 L699008,1048512 L713232,1026160 L713232,1026160 L725424,1016000 L725424,1016000 L739648,1003808 L739648,1003808 L753872,967232 L753872,967232 L768096,1030224 L768096,1030224 L782320,1070864 L782320,1070864 L796544,1048512 L796544,1048512 L810768,1030224 L810768,1030224 L824992,1078992 L824992,1078992 L839216,1127760 L839216,1127760 L851408,1182624 L851408,1182624 L865632,1282192 L865632,1282192 L879856,1369568 L879856,1369568 L894080,1424432 L894080,1424432 L908304,1473200 L908304,1473200 L922528,1493520 L922528,1493520 L936752,1507744 L936752,1507744 L950976,1507744 L950976,1507744 L963168,1515872 L963168,1515872 L977392,1526032 L977392,1526032 L991616,1521968 L991616,1521968 L1005840,1521968 L1005840,1521968 L1020064,1507744 L1020064,1507744 L1034288,1461008 L1034288,1461008 L1048512,1416304 L1048512,1416304 L1062736,1353312 L1062736,1353312 L1074928,1286256 L1074928,1286256 L1089152,1249680 L1089152,1249680 L1103376,1241552 L1103376,1241552 L1117600,1247648 L1117600,1247648 L1131824,1300480 L1131824,1300480 L1146048,1324864 L1146048,1324864 L1160272,1351280 L1160272,1351280 L1174496,1347216 L1174496,1347216 L1188720,1361440 L1188720,1361440 L1200912,1410208 L1200912,1410208 L1215136,1424432 L1215136,1424432 L1229360,1467104 L1229360,1467104 L1243584,1477264 L1243584,1477264 L1257808,1477264 L1257808,1477264 L1272032,1450848 L1272032,1450848 L1286256,1428496 L1286256,1428496 L1300480,1373632 L1300480,1373632 L1312672,1312672 L1312672,1312672 L1326896,1265936 L1326896,1265936 L1341120,1276096 L1341120,1276096 L1355344,1270000 L1355344,1270000 L1369568,1247648 L1369568,1247648 L1383792,1239520 L1383792,1239520 L1398016,1190752 L1398016,1190752 L1412240,1217168 L1412240,1217168 L1426464,1204976 L1426464,1204976 L1438656,1215136 L1438656,1215136 L1452880,1162304 L1452880,1162304 L1467104,1137920 L1467104,1137920 L1481328,1123696 L1481328,1123696 L1495552,1166368 L1495552,1166368 L1509776,1064768 L1509776,1064768 L1524000,1131824 L1524000,1131824 L1538224,1121664 L1538224,1121664 L1550416,1062736 L1550416,1062736 L1564640,969264 L1564640,969264 L1578864,780288 L1578864,780288 L1593088,755904 L1593088,755904 L1607312,715264 L1607312,715264 L1621536,981456 L1621536,981456 L1635760,1139952 L1635760,1139952 L1649984,1280160 L1649984,1280160 L1664208,1306576 L1664208,1306576 L1676400,1379728 L1676400,1379728 L1690624,1379728 L1690624,1379728 L1704848,1363472 L1704848,1363472 L1719072,1412240 L1719072,1412240 L1733296,1456944 L1733296,1456944 L1747520,1501648 L1747520,1501648 L1761744,1526032 L1761744,1526032 L1775968,1534160 L1775968,1534160 L1788160,1526032 L1788160,1526032 L1802384,1524000 L1802384,1524000 L1816608,1501648 L1816608,1501648 L1830832,1454912 L1830832,1454912 L1845056,1359408 L1845056,1359408 L1859280,1253744 L1859280,1253744 L1873504,1253744 L1873504,1253744 L1887728,1231392 L1887728,1231392 L1899920,1227328 L1899920,1227328 L1914144,1144016 L1914144,1144016 L1928368,875792 L1928368,875792 L1942592,869696 L1942592,869696 L1956816,855472 L1956816,855472 L1971040,688848 L1971040,688848 L1985264,713232 L1985264,713232 L1999488,971296 L1999488,971296 L2013712,1158240 L2013712,1158240 L2025904,1320800 L2025904,1320800 L2040128,1357376 L2040128,1357376 L2054352,1324864 L2054352,1324864 L2068576,1267968 L2068576,1267968 L2082800,1237488 L2082800,1237488 L2097024,1237488 L2097024,1237488 L2111248,1182624 L2111248,1182624 L2125472,1148080 L2125472,1148080 L2137664,1166368 L2137664,1166368 L2151888,1207008 L2151888,1207008 L2166112,1172464 L2166112,1172464 L2180336,1209040 L2180336,1209040 L2194560,1022096 L2194560,1022096 L2208784,985520 L2208784,985520 L2223008,922528 L2223008,922528 L2237232,928624 L2237232,928624 L2251456,983488 L2251456,983488 L2263648,1083056 L2263648,1083056 L2277872,1133856 L2277872,1133856 L2292096,1152144 L2292096,1152144 L2306320,1152144 L2306320,1152144 L2320544,1144016 L2320544,1144016 L2334768,1202944 L2334768,1202944 L2348992,1178560 L2348992,1178560 L2363216,1241552 L2363216,1241552 L2375408,1265936 L2375408,1265936 L2389632,1306576 L2389632,1306576 L2403856,1282192 L2403856,1282192 L2418080,1270000 L2418080,1270000 L2432304,1233424 L2432304,1233424 L2446528,1209040 L2446528,1209040 L2460752,1204976 L2460752,1204976 L2474976,1202944 L2474976,1202944 L2487168,1204976 L2487168,1204976 L2501392,1178560 L2501392,1178560 L2515616,1180592 L2515616,1180592 L2529840,1198880 L2529840,1198880 L2544064,1200912 L2544064,1200912 L2558288,1215136 L2558288,1215136 L2572512,1176528 L2572512,1176528 L2586736,1170432 L2586736,1170432 L2600960,1211072 L2600960,1211072 L2613152,1217168 L2613152,1217168 L2627376,1150112 L2627376,1150112 L2641600,1158240 L2641600,1158240 L2655824,1127760 L2655824,1127760 L2670048,1123696 L2670048,1123696 L2684272,1229360 L2684272,1229360 L2698496,1274064 L2698496,1274064 L2712720,1292352 L2712720,1292352 L2724912,1302512 L2724912,1302512 L2739136,1353312 L2739136,1353312 L2753360,1318768 L2753360,1318768 L2767584,1288288 L2767584,1288288 L2781808,1263904 L2781808,1263904 L2796032,1337056 L2796032,1337056 L2810256,1355344 L2810256,1355344 L2824480,1389888 L2824480,1389888 L2838704,1385824 L2838704,1385824 L2850896,1357376 L2850896,1357376 L2865120,1335024 L2865120,1335024 L2879344,1318768 L2879344,1318768 L2893568,1355344 L2893568,1355344 L2907792,1304544 L2907792,1304544 L2922016,1332992 L2922016,1332992 L2936240,1379728 L2936240,1379728 L2950464,1412240 L2950464,1412240 L2962656,1410208 L2962656,1410208 L2976880,1430528 L2976880,1430528 L2991104,1456944 L2991104,1456944 L3005328,1465072 L3005328,1465072 L3019552,1424432 L3019552,1424432 L3033776,1381760 L3033776,1381760 L3048000,1408176 L3048000,1408176 L3062224,1326896 L3062224,1326896 L3076448,1328928 L3076448,1328928 L3088640,1312672 L3088640,1312672 L3102864,1247648 L3102864,1247648 L3117088,1194816 L3117088,1194816 L3131312,1109472 L3131312,1109472 L3145536,928624 L3145536,928624 L3159760,776224 L3159760,776224 L3173984,680720 L3173984,680720 L3188208,686816 L3188208,686816 L3200400,804672 L3200400,804672 L3214624,692912 L3214624,692912 L3228848,853440 L3228848,853440 L3243072,879856 L3243072,879856 L3257296,914400 L3257296,914400 L3271520,977392 L3271520,977392 L3285744,1024128 L3285744,1024128 L3299968,1097280 L3299968,1097280 L3312160,1221232 L3312160,1221232 L3326384,1249680 L3326384,1249680 L3340608,1180592 L3340608,1180592 L3354832,1231392 L3354832,1231392 L3369056,1251712 L3369056,1251712 L3383280,1251712 L3383280,1251712 L3397504,1251712 L3397504,1251712 L3411728,1296416 L3411728,1296416 L3425952,1312672 L3425952,1312672 L3438144,1345184 L3438144,1345184 L3452368,1349248 L3452368,1349248 L3466592,1302512 L3466592,1302512 L3480816,1278128 L3480816,1278128 L3495040,1306576 L3495040,1306576 L3509264,1318768 L3509264,1318768 L3523488,1326896 L3523488,1326896 L3537712,1310640 L3537712,1310640 L3549904,1316736 L3549904,1316736 L3564128,1300480 L3564128,1300480 L3578352,1328928 L3578352,1328928 L3592576,1322832 L3592576,1322832 L3606800,1308608 L3606800,1308608 L3621024,1270000 L3621024,1270000 L3635248,1286256 L3635248,1286256 L3649472,1255776 L3649472,1255776 L3663696,1188720 L3663696,1188720 L3675888,1150112 L3675888,1150112 L3690112,1184656 L3690112,1184656 L3704336,1168400 L3704336,1168400 L3718560,1172464 L3718560,1172464 L3732784,1148080 L3732784,1148080 L3747008,1052576 L3747008,1052576 L3761232,1040384 L3761232,1040384 L3775456,959104 L3775456,959104 L3787648,1011936 L3787648,1011936 L3801872,1026160 L3801872,1026160 L3816096,1044448 L3816096,1044448 L3830320,1109472 L3830320,1109472 L3844544,1123696 L3844544,1123696 L3858768,1111504 L3858768,1111504 L3872992,1099312 L3872992,1099312 L3887216,1170432 L3887216,1170432 L3899408,1202944 L3899408,1202944 L3913632,1209040 L3913632,1209040 L3927856,1190752 L3927856,1190752 L3942080,1198880 L3942080,1198880 L3956304,1184656 L3956304,1184656 L3970528,1196848 L3970528,1196848 L3984752,1192784 L3984752,1192784 L3998976,1176528 L3998976,1176528 L4013200,1196848 L4013200,1196848 L4025392,1192784 L4025392,1192784 L4039616,1227328 L4039616,1227328 L4053840,1202944 L4053840,1202944 L4068064,1196848 L4068064,1196848 L4082288,1200912 L4082288,1200912 L4096512,1233424 L4096512,1233424 L4110736,1255776 L4110736,1255776 L4124960,1245616 L4124960,1245616 L4137152,1235456 L4137152,1235456 L4151376,1253744 L4151376,1253744 L4165600,1249680 L4165600,1249680 L4179824,1288288 L4179824,1288288 L4194048,1274064 L4194048,1274064 L4208272,1282192 L4208272,1282192 L4222496,1302512 L4222496,1302512 L4236720,1306576 L4236720,1306576 L4250944,1294384 L4250944,1294384 L4263136,1280160 L4263136,1280160 L4277360,1253744 L4277360,1253744 L4291584,1241552 L4291584,1241552 L4305808,1247648 L4305808,1247648 L4320032,1196848 L4320032,1196848 L4334256,1152144 L4334256,1152144 L4348480,1064768 L4348480,1064768 L4362704,1070864 L4362704,1070864 L4374896,1005840 L4374896,1005840 L4389120,971296 L4389120,971296 L4403344,922528 L4403344,922528 L4417568,942848 L4417568,942848 L4431792,908304 L4431792,908304 L4446016,910336 L4446016,910336 L4460240,934720 L4460240,934720 L4474464,928624 L4474464,928624 L4488688,928624 L4488688,928624 L4500880,961136 L4500880,961136 L4515104,985520 L4515104,985520 L4529328,989584 L4529328,989584 L4543552,1044448 L4543552,1044448 L4557776,1044448 L4557776,1044448 L4572000,1076960 L4572000,1076960 L4586224,1072896 L4586224,1072896 L4600448,1097280 L4600448,1097280 L4612640,1150112 L4612640,1150112 L4626864,1146048 L4626864,1146048 L4641088,1156208 L4641088,1156208 L4655312,1245616 L4655312,1245616 L4669536,1261872 L4669536,1261872 L4683760,1330960 L4683760,1330960 L4697984,1385824 L4697984,1385824 L4712208,1383792 L4712208,1383792 L4724400,1393952 L4724400,1393952 L4738624,1418336 L4738624,1418336 L4752848,1420368 L4752848,1420368 L4767072,1424432 L4767072,1424432 L4781296,1422400 L4781296,1422400 L4795520,1414272 L4795520,1414272 L4809744,1418336 L4809744,1418336 L4823968,1379728 L4823968,1379728 L4838192,1369568 L4838192,1369568 L4850384,1318768 L4850384,1318768 L4864608,1209040 L4864608,1209040 L4878832,1198880 L4878832,1198880 L4893056,1182624 L4893056,1182624 L4907280,1146048 L4907280,1146048 L4921504,1127760 L4921504,1127760 L4935728,1133856 L4935728,1133856 L4949952,1148080 L4949952,1148080 L4962144,1146048 L4962144,1146048 L4976368,1133856 L4976368,1133856 L4990592,1160272 L4990592,1160272 L5004816,1158240 L5004816,1158240 L5019040,1146048 L5019040,1146048 L5033264,1188720 L5033264,1188720 L5047488,1180592 L5047488,1180592 L5061712,1176528 L5061712,1176528 L5075936,1127760 L5075936,1127760 L5088128,1133856 L5088128,1133856 L5102352,1109472 L5102352,1109472 L5116576,1042416 L5116576,1042416 L5130800,1042416 L5130800,1042416 L5145024,1099312 L5145024,1099312 L5159248,1091184 L5159248,1091184 L5173472,1044448 L5173472,1044448 L5187696,1056640 L5187696,1056640 L5199888,1111504 L5199888,1111504 L5214112,1074928 L5214112,1074928 L5228336,1095248 L5228336,1095248 L5242560,1154176 L5242560,1154176 L5256784,1150112 L5256784,1150112 L5271008,1198880 L5271008,1198880 L5285232,1255776 L5285232,1255776 L5299456,1332992 L5299456,1332992 L5313680,1343152 L5313680,1343152 L5325872,1377696 L5325872,1377696 L5340096,1412240 L5340096,1412240 L5354320,1428496 L5354320,1428496 L5368544,1456944 L5368544,1456944 L5382768,1469136 L5382768,1469136 L5396992,1456944 L5396992,1456944 L5411216,1467104 L5411216,1467104 L5425440,1463040 L5425440,1463040 L5437632,1408176 L5437632,1408176 L5451856,1420368 L5451856,1420368 L5466080,1359408 L5466080,1359408 L5480304,1290320 L5480304,1290320 L5494528,1223264 L5494528,1223264 L5508752,1135888 L5508752,1135888 L5522976,1013968 L5522976,1013968 L5537200,877824 L5537200,877824 L5549392,827024 L5549392,827024 L5563616,833120 L5563616,833120 L5577840,764032 L5577840,764032 L5592064,737616 L5592064,737616 L5606288,808736 L5606288,808736 L5620512,786384 L5620512,786384 L5634736,745744 L5634736,745744 L5648960,892048 L5648960,892048 L5663184,930656 L5663184,930656 L5675376,957072 L5675376,957072 L5689600,1052576 L5689600,1052576 L5703824,1125728 L5703824,1125728 L5718048,1168400 L5718048,1168400 L5732272,1186688 L5732272,1186688 L5746496,1168400 L5746496,1168400 L5760720,1176528 L5760720,1176528 L5774944,1180592 L5774944,1180592 L5787136,1141984 L5787136,1141984 L5801360,1150112 L5801360,1150112 L5815584,1093216 L5815584,1093216 L5829808,985520 L5829808,985520 L5844032,733552 L5844032,733552 L5858256,603504 L5858256,603504 L5872480,282448 L5872480,282448 L5886704,36576 L5886704,36576 L5900928,0 L5900928,0 L5913120,0 L5913120,0 L5927344,71120 " stroke-width="33866.67" stroke-linecap="round" stroke-linejoin="round" stroke-miterlimit="13.33333" stroke="#012169" fill="none" fill-rule="nonzero" /></g></g><g clip-path="url(#clip009)"><g transform="matrix(0.000656168,0,0,0.000656168,-332.6667,291.3333)"><path d="M0,1491488 L14224,1477264 L14224,1477264 L26416,1477264 L26416,1477264 L40640,1456944 L40640,1456944 L54864,1495552 L54864,1495552 L69088,1497584 L69088,1497584 L83312,1483360 L83312,1483360 L97536,1416304 L97536,1416304 L111760,1387856 L111760,1387856 L125984,1365504 L125984,1365504 L138176,1418336 L138176,1418336 L152400,1461008 L152400,1461008 L166624,1414272 L166624,1414272 L180848,1420368 L180848,1420368 L195072,1485392 L195072,1485392 L209296,1513840 L209296,1513840 L223520,1505712 L223520,1505712 L237744,1497584 L237744,1497584 L249936,1491488 L249936,1491488 L264160,1495552 L264160,1495552 L278384,1497584 L278384,1497584 L292608,1485392 L292608,1485392 L306832,1446784 L306832,1446784 L321056,1436624 L321056,1436624 L335280,1446784 L335280,1446784 L349504,1465072 L349504,1465072 L363728,1430528 L363728,1430528 L375920,1393952 L375920,1393952 L390144,1343152 L390144,1343152 L404368,1294384 L404368,1294384 L418592,1235456 L418592,1235456 L432816,1207008 L432816,1207008 L447040,1160272 L447040,1160272 L461264,1274064 L461264,1274064 L475488,1306576 L475488,1306576 L487680,1241552 L487680,1241552 L501904,1237488 L501904,1237488 L516128,1190752 L516128,1190752 L530352,1107440 L530352,1107440 L544576,1064768 L544576,1064768 L558800,1121664 L558800,1121664 L573024,1198880 L573024,1198880 L587248,1229360 L587248,1229360 L601472,1194816 L601472,1194816 L613664,1131824 L613664,1131824 L627888,1135888 L627888,1135888 L642112,1156208 L642112,1156208 L656336,1243584 L656336,1243584 L670560,1306576 L670560,1306576 L684784,1300480 L684784,1300480 L699008,1267968 L699008,1267968 L713232,1245616 L713232,1245616 L725424,1247648 L725424,1247648 L739648,1194816 L739648,1194816 L753872,1150112 L753872,1150112 L768096,1180592 L768096,1180592 L782320,1076960 L782320,1076960 L796544,1111504 L796544,1111504 L810768,1237488 L810768,1237488 L824992,1290320 L824992,1290320 L839216,1351280 L839216,1351280 L851408,1387856 L851408,1387856 L865632,1479296 L865632,1479296 L879856,1485392 L879856,1485392 L894080,1507744 L894080,1507744 L908304,1550416 L908304,1550416 L922528,1582928 L922528,1582928 L936752,1586992 L936752,1586992 L950976,1609344 L950976,1609344 L963168,1595120 L963168,1595120 L977392,1580896 L977392,1580896 L991616,1570736 L991616,1570736 L1005840,1554480 L1005840,1554480 L1020064,1540256 L1020064,1540256 L1034288,1495552 L1034288,1495552 L1048512,1509776 L1048512,1509776 L1062736,1497584 L1062736,1497584 L1074928,1440688 L1074928,1440688 L1089152,1365504 L1089152,1365504 L1103376,1363472 L1103376,1363472 L1117600,1410208 L1117600,1410208 L1131824,1487424 L1131824,1487424 L1146048,1532128 L1146048,1532128 L1160272,1528064 L1160272,1528064 L1174496,1448816 L1174496,1448816 L1188720,1452880 L1188720,1452880 L1200912,1483360 L1200912,1483360 L1215136,1521968 L1215136,1521968 L1229360,1542288 L1229360,1542288 L1243584,1568704 L1243584,1568704 L1257808,1560576 L1257808,1560576 L1272032,1558544 L1272032,1558544 L1286256,1536192 L1286256,1536192 L1300480,1495552 L1300480,1495552 L1312672,1383792 L1312672,1383792 L1326896,1322832 L1326896,1322832 L1341120,1347216 L1341120,1347216 L1355344,1412240 L1355344,1412240 L1369568,1420368 L1369568,1420368 L1383792,1377696 L1383792,1377696 L1398016,1387856 L1398016,1387856 L1412240,1312672 L1412240,1312672 L1426464,1219200 L1426464,1219200 L1438656,1097280 L1438656,1097280 L1452880,965200 L1452880,965200 L1467104,1144016 L1467104,1144016 L1481328,1221232 L1481328,1221232 L1495552,1245616 L1495552,1245616 L1509776,1292352 L1509776,1292352 L1524000,1310640 L1524000,1310640 L1538224,1194816 L1538224,1194816 L1550416,1182624 L1550416,1182624 L1564640,1135888 L1564640,1135888 L1578864,1089152 L1578864,1089152 L1593088,1233424 L1593088,1233424 L1607312,1353312 L1607312,1353312 L1621536,1479296 L1621536,1479296 L1635760,1528064 L1635760,1528064 L1649984,1554480 L1649984,1554480 L1664208,1562608 L1664208,1562608 L1676400,1546352 L1676400,1546352 L1690624,1546352 L1690624,1546352 L1704848,1589024 L1704848,1589024 L1719072,1591056 L1719072,1591056 L1733296,1580896 L1733296,1580896 L1747520,1607312 L1747520,1607312 L1761744,1621536 L1761744,1621536 L1775968,1621536 L1775968,1621536 L1788160,1619504 L1788160,1619504 L1802384,1591056 L1802384,1591056 L1816608,1544320 L1816608,1544320 L1830832,1473200 L1830832,1473200 L1845056,1440688 L1845056,1440688 L1859280,1434592 L1859280,1434592 L1873504,1454912 L1873504,1454912 L1887728,1465072 L1887728,1465072 L1899920,1503680 L1899920,1503680 L1914144,1493520 L1914144,1493520 L1928368,1440688 L1928368,1440688 L1942592,1444752 L1942592,1444752 L1956816,1410208 L1956816,1410208 L1971040,1393952 L1971040,1393952 L1985264,1452880 L1985264,1452880 L1999488,1550416 L1999488,1550416 L2013712,1591056 L2013712,1591056 L2025904,1611376 L2025904,1611376 L2040128,1609344 L2040128,1609344 L2054352,1605280 L2054352,1605280 L2068576,1580896 L2068576,1580896 L2082800,1530096 L2082800,1530096 L2097024,1517904 L2097024,1517904 L2111248,1503680 L2111248,1503680 L2125472,1483360 L2125472,1483360 L2137664,1471168 L2137664,1471168 L2151888,1503680 L2151888,1503680 L2166112,1483360 L2166112,1483360 L2180336,1406144 L2180336,1406144 L2194560,1322832 L2194560,1322832 L2208784,1261872 L2208784,1261872 L2223008,1239520 L2223008,1239520 L2237232,1310640 L2237232,1310640 L2251456,1398016 L2251456,1398016 L2263648,1465072 L2263648,1465072 L2277872,1493520 L2277872,1493520 L2292096,1469136 L2292096,1469136 L2306320,1438656 L2306320,1438656 L2320544,1450848 L2320544,1450848 L2334768,1440688 L2334768,1440688 L2348992,1465072 L2348992,1465072 L2363216,1467104 L2363216,1467104 L2375408,1499616 L2375408,1499616 L2389632,1526032 L2389632,1526032 L2403856,1489456 L2403856,1489456 L2418080,1471168 L2418080,1471168 L2432304,1432560 L2432304,1432560 L2446528,1398016 L2446528,1398016 L2460752,1416304 L2460752,1416304 L2474976,1444752 L2474976,1444752 L2487168,1420368 L2487168,1420368 L2501392,1373632 L2501392,1373632 L2515616,1349248 L2515616,1349248 L2529840,1381760 L2529840,1381760 L2544064,1395984 L2544064,1395984 L2558288,1357376 L2558288,1357376 L2572512,1371600 L2572512,1371600 L2586736,1414272 L2586736,1414272 L2600960,1442720 L2600960,1442720 L2613152,1428496 L2613152,1428496 L2627376,1414272 L2627376,1414272 L2641600,1420368 L2641600,1420368 L2655824,1422400 L2655824,1422400 L2670048,1446784 L2670048,1446784 L2684272,1477264 L2684272,1477264 L2698496,1491488 L2698496,1491488 L2712720,1469136 L2712720,1469136 L2724912,1479296 L2724912,1479296 L2739136,1487424 L2739136,1487424 L2753360,1463040 L2753360,1463040 L2767584,1454912 L2767584,1454912 L2781808,1489456 L2781808,1489456 L2796032,1519936 L2796032,1519936 L2810256,1521968 L2810256,1521968 L2824480,1542288 L2824480,1542288 L2838704,1540256 L2838704,1540256 L2850896,1548384 L2850896,1548384 L2865120,1532128 L2865120,1532128 L2879344,1538224 L2879344,1538224 L2893568,1519936 L2893568,1519936 L2907792,1501648 L2907792,1501648 L2922016,1524000 L2922016,1524000 L2936240,1570736 L2936240,1570736 L2950464,1566672 L2950464,1566672 L2962656,1570736 L2962656,1570736 L2976880,1578864 L2976880,1578864 L2991104,1597152 L2991104,1597152 L3005328,1607312 L3005328,1607312 L3019552,1586992 L3019552,1586992 L3033776,1586992 L3033776,1586992 L3048000,1576832 L3048000,1576832 L3062224,1564640 L3062224,1564640 L3076448,1582928 L3076448,1582928 L3088640,1570736 L3088640,1570736 L3102864,1517904 L3102864,1517904 L3117088,1475232 L3117088,1475232 L3131312,1422400 L3131312,1422400 L3145536,1391920 L3145536,1391920 L3159760,1282192 L3159760,1282192 L3173984,1154176 L3173984,1154176 L3188208,1170432 L3188208,1170432 L3200400,1280160 L3200400,1280160 L3214624,1249680 L3214624,1249680 L3228848,1326896 L3228848,1326896 L3243072,1345184 L3243072,1345184 L3257296,1337056 L3257296,1337056 L3271520,1393952 L3271520,1393952 L3285744,1452880 L3285744,1452880 L3299968,1489456 L3299968,1489456 L3312160,1479296 L3312160,1479296 L3326384,1479296 L3326384,1479296 L3340608,1491488 L3340608,1491488 L3354832,1497584 L3354832,1497584 L3369056,1454912 L3369056,1454912 L3383280,1485392 L3383280,1485392 L3397504,1493520 L3397504,1493520 L3411728,1481328 L3411728,1481328 L3425952,1517904 L3425952,1517904 L3438144,1521968 L3438144,1521968 L3452368,1540256 L3452368,1540256 L3466592,1532128 L3466592,1532128 L3480816,1534160 L3480816,1534160 L3495040,1532128 L3495040,1532128 L3509264,1540256 L3509264,1540256 L3523488,1538224 L3523488,1538224 L3537712,1532128 L3537712,1532128 L3549904,1515872 L3549904,1515872 L3564128,1530096 L3564128,1530096 L3578352,1538224 L3578352,1538224 L3592576,1524000 L3592576,1524000 L3606800,1515872 L3606800,1515872 L3621024,1471168 L3621024,1471168 L3635248,1473200 L3635248,1473200 L3649472,1483360 L3649472,1483360 L3663696,1483360 L3663696,1483360 L3675888,1448816 L3675888,1448816 L3690112,1450848 L3690112,1450848 L3704336,1483360 L3704336,1483360 L3718560,1471168 L3718560,1471168 L3732784,1420368 L3732784,1420368 L3747008,1353312 L3747008,1353312 L3761232,1318768 L3761232,1318768 L3775456,1339088 L3775456,1339088 L3787648,1357376 L3787648,1357376 L3801872,1312672 L3801872,1312672 L3816096,1253744 L3816096,1253744 L3830320,1231392 L3830320,1231392 L3844544,1294384 L3844544,1294384 L3858768,1310640 L3858768,1310640 L3872992,1312672 L3872992,1312672 L3887216,1381760 L3887216,1381760 L3899408,1395984 L3899408,1395984 L3913632,1383792 L3913632,1383792 L3927856,1371600 L3927856,1371600 L3942080,1330960 L3942080,1330960 L3956304,1328928 L3956304,1328928 L3970528,1385824 L3970528,1385824 L3984752,1416304 L3984752,1416304 L3998976,1393952 L3998976,1393952 L4013200,1393952 L4013200,1393952 L4025392,1420368 L4025392,1420368 L4039616,1428496 L4039616,1428496 L4053840,1406144 L4053840,1406144 L4068064,1430528 L4068064,1430528 L4082288,1477264 L4082288,1477264 L4096512,1511808 L4096512,1511808 L4110736,1548384 L4110736,1548384 L4124960,1554480 L4124960,1554480 L4137152,1542288 L4137152,1542288 L4151376,1530096 L4151376,1530096 L4165600,1548384 L4165600,1548384 L4179824,1554480 L4179824,1554480 L4194048,1570736 L4194048,1570736 L4208272,1570736 L4208272,1570736 L4222496,1566672 L4222496,1566672 L4236720,1566672 L4236720,1566672 L4250944,1562608 L4250944,1562608 L4263136,1542288 L4263136,1542288 L4277360,1497584 L4277360,1497584 L4291584,1465072 L4291584,1465072 L4305808,1454912 L4305808,1454912 L4320032,1456944 L4320032,1456944 L4334256,1442720 L4334256,1442720 L4348480,1412240 L4348480,1412240 L4362704,1355344 L4362704,1355344 L4374896,1337056 L4374896,1337056 L4389120,1335024 L4389120,1335024 L4403344,1312672 L4403344,1312672 L4417568,1280160 L4417568,1280160 L4431792,1294384 L4431792,1294384 L4446016,1292352 L4446016,1292352 L4460240,1324864 L4460240,1324864 L4474464,1298448 L4474464,1298448 L4488688,1261872 L4488688,1261872 L4500880,1259840 L4500880,1259840 L4515104,1335024 L4515104,1335024 L4529328,1353312 L4529328,1353312 L4543552,1367536 L4543552,1367536 L4557776,1328928 L4557776,1328928 L4572000,1347216 L4572000,1347216 L4586224,1351280 L4586224,1351280 L4600448,1375664 L4600448,1375664 L4612640,1412240 L4612640,1412240 L4626864,1428496 L4626864,1428496 L4641088,1483360 L4641088,1483360 L4655312,1524000 L4655312,1524000 L4669536,1528064 L4669536,1528064 L4683760,1530096 L4683760,1530096 L4697984,1526032 L4697984,1526032 L4712208,1499616 L4712208,1499616 L4724400,1530096 L4724400,1530096 L4738624,1515872 L4738624,1515872 L4752848,1538224 L4752848,1538224 L4767072,1540256 L4767072,1540256 L4781296,1509776 L4781296,1509776 L4795520,1497584 L4795520,1497584 L4809744,1458976 L4809744,1458976 L4823968,1440688 L4823968,1440688 L4838192,1438656 L4838192,1438656 L4850384,1395984 L4850384,1395984 L4864608,1377696 L4864608,1377696 L4878832,1412240 L4878832,1412240 L4893056,1461008 L4893056,1461008 L4907280,1477264 L4907280,1477264 L4921504,1456944 L4921504,1456944 L4935728,1434592 L4935728,1434592 L4949952,1467104 L4949952,1467104 L4962144,1473200 L4962144,1473200 L4976368,1489456 L4976368,1489456 L4990592,1475232 L4990592,1475232 L5004816,1458976 L5004816,1458976 L5019040,1422400 L5019040,1422400 L5033264,1418336 L5033264,1418336 L5047488,1412240 L5047488,1412240 L5061712,1326896 L5061712,1326896 L5075936,1326896 L5075936,1326896 L5088128,1367536 L5088128,1367536 L5102352,1383792 L5102352,1383792 L5116576,1395984 L5116576,1395984 L5130800,1400048 L5130800,1400048 L5145024,1412240 L5145024,1412240 L5159248,1444752 L5159248,1444752 L5173472,1444752 L5173472,1444752 L5187696,1471168 L5187696,1471168 L5199888,1493520 L5199888,1493520 L5214112,1497584 L5214112,1497584 L5228336,1497584 L5228336,1497584 L5242560,1532128 L5242560,1532128 L5256784,1515872 L5256784,1515872 L5271008,1534160 L5271008,1534160 L5285232,1536192 L5285232,1536192 L5299456,1524000 L5299456,1524000 L5313680,1534160 L5313680,1534160 L5325872,1517904 L5325872,1517904 L5340096,1526032 L5340096,1526032 L5354320,1552448 L5354320,1552448 L5368544,1542288 L5368544,1542288 L5382768,1538224 L5382768,1538224 L5396992,1530096 L5396992,1530096 L5411216,1503680 L5411216,1503680 L5425440,1493520 L5425440,1493520 L5437632,1452880 L5437632,1452880 L5451856,1438656 L5451856,1438656 L5466080,1446784 L5466080,1446784 L5480304,1414272 L5480304,1414272 L5494528,1426464 L5494528,1426464 L5508752,1424432 L5508752,1424432 L5522976,1385824 L5522976,1385824 L5537200,1402080 L5537200,1402080 L5549392,1412240 L5549392,1412240 L5563616,1377696 L5563616,1377696 L5577840,1363472 L5577840,1363472 L5592064,1377696 L5592064,1377696 L5606288,1377696 L5606288,1377696 L5620512,1385824 L5620512,1385824 L5634736,1434592 L5634736,1434592 L5648960,1467104 L5648960,1467104 L5663184,1452880 L5663184,1452880 L5675376,1479296 L5675376,1479296 L5689600,1503680 L5689600,1503680 L5703824,1495552 L5703824,1495552 L5718048,1497584 L5718048,1497584 L5732272,1509776 L5732272,1509776 L5746496,1546352 L5746496,1546352 L5760720,1530096 L5760720,1530096 L5774944,1509776 L5774944,1509776 L5787136,1501648 L5787136,1501648 L5801360,1461008 L5801360,1461008 L5815584,1373632 L5815584,1373632 L5829808,1249680 L5829808,1249680 L5844032,1103376 L5844032,1103376 L5858256,991616 L5858256,991616 L5872480,678688 L5872480,678688 L5886704,611632 L5886704,611632 L5900928,741680 L5900928,741680 L5913120,534416 L5913120,534416 L5927344,101600 L5927344,101600 L5941568,0 L5941568,0 L5955792,93472 " stroke-width="33866.67" stroke-linecap="round" stroke-linejoin="round" stroke-miterlimit="13.33333" stroke="#009cde" fill="none" fill-rule="nonzero" /></g></g><g><g clip-path="url(#clip010)"><g><g transform="translate(3671.309,1433.248)"><text><tspan x="0" y="0" font-family="Connections Cond Light,Arial Narrow" font-weight="normal" font-style="normal" font-size="105.3333" fill="#000000">-100%</tspan></text></g></g></g></g><g><g clip-path="url(#clip011)"><g><g transform="translate(3671.309,1294.79)"><text><tspan x="0" y="0" font-family="Connections Cond Light,Arial Narrow" font-weight="normal" font-style="normal" font-size="105.3333" fill="#000000">0%</tspan></text></g></g></g></g><g><g clip-path="url(#clip012)"><g><g transform="translate(3671.309,1156.332)"><text><tspan x="0" y="0" font-family="Connections Cond Light,Arial Narrow" font-weight="normal" font-style="normal" font-size="105.3333" fill="#000000">100%</tspan></text></g></g></g></g><g><g clip-path="url(#clip013)"><g><g transform="translate(3671.309,1017.875)"><text><tspan x="0" y="0" font-family="Connections Cond Light,Arial Narrow" font-weight="normal" font-style="normal" font-size="105.3333" fill="#000000">200%</tspan></text></g></g></g></g><g><g clip-path="url(#clip014)"><g><g transform="translate(3671.309,879.4173)"><text><tspan x="0" y="0" font-family="Connections Cond Light,Arial Narrow" font-weight="normal" font-style="normal" font-size="105.3333" fill="#000000">300%</tspan></text></g></g></g></g><g><g clip-path="url(#clip015)"><g><g transform="translate(3671.309,740.9606)"><text><tspan x="0" y="0" font-family="Connections Cond Light,Arial Narrow" font-weight="normal" font-style="normal" font-size="105.3333" fill="#000000">400%</tspan></text></g></g></g></g><g><g clip-path="url(#clip016)"><g><g transform="translate(3671.309,602.5031)"><text><tspan x="0" y="0" font-family="Connections Cond Light,Arial Narrow" font-weight="normal" font-style="normal" font-size="105.3333" fill="#000000">500%</tspan></text></g></g></g></g><g><g clip-path="url(#clip017)"><g><g transform="translate(3671.309,464.0455)"><text><tspan x="0" y="0" font-family="Connections Cond Light,Arial Narrow" font-weight="normal" font-style="normal" font-size="105.3333" fill="#000000">600%</tspan></text></g></g></g></g><g><g clip-path="url(#clip018)"><g><g transform="translate(3671.309,325.5879)"><text><tspan x="0" y="0" font-family="Connections Cond Light,Arial Narrow" font-weight="normal" font-style="normal" font-size="105.3333" fill="#000000">700%</tspan></text></g></g></g></g><g><g clip-path="url(#clip019)"><g><g transform="translate(3671.309,187.1304)"><text><tspan x="0" y="0" font-family="Connections Cond Light,Arial Narrow" font-weight="normal" font-style="normal" font-size="105.3333" fill="#000000">800%</tspan></text></g></g></g></g><g><g clip-path="url(#clip020)"><g><g transform="translate(75.14086,1433.248)"><text><tspan x="0" y="0" font-family="Connections Cond Light,Arial Narrow" font-weight="normal" font-style="normal" font-size="105.3333" fill="#000000">60</tspan></text></g></g></g></g><g><g clip-path="url(#clip021)"><g><g transform="translate(75.14086,1255.231)"><text><tspan x="0" y="0" font-family="Connections Cond Light,Arial Narrow" font-weight="normal" font-style="normal" font-size="105.3333" fill="#000000">80</tspan></text></g></g></g></g><g><g clip-path="url(#clip022)"><g><g transform="translate(24.47419,1077.214)"><text><tspan x="0" y="0" font-family="Connections Cond Light,Arial Narrow" font-weight="normal" font-style="normal" font-size="105.3333" fill="#000000">100</tspan></text></g></g></g></g><g><g clip-path="url(#clip023)"><g><g transform="translate(24.47419,899.1978)"><text><tspan x="0" y="0" font-family="Connections Cond Light,Arial Narrow" font-weight="normal" font-style="normal" font-size="105.3333" fill="#000000">120</tspan></text></g></g></g></g><g><g clip-path="url(#clip024)"><g><g transform="translate(24.47419,721.1802)"><text><tspan x="0" y="0" font-family="Connections Cond Light,Arial Narrow" font-weight="normal" font-style="normal" font-size="105.3333" fill="#000000">140</tspan></text></g></g></g></g><g><g clip-path="url(#clip025)"><g><g transform="translate(24.47419,543.1636)"><text><tspan x="0" y="0" font-family="Connections Cond Light,Arial Narrow" font-weight="normal" font-style="normal" font-size="105.3333" fill="#000000">160</tspan></text></g></g></g></g><g><g clip-path="url(#clip026)"><g><g transform="translate(24.47419,365.147)"><text><tspan x="0" y="0" font-family="Connections Cond Light,Arial Narrow" font-weight="normal" font-style="normal" font-size="105.3333" fill="#000000">180</tspan></text></g></g></g></g><g><g clip-path="url(#clip027)"><g><g transform="translate(24.47419,187.1304)"><text><tspan x="0" y="0" font-family="Connections Cond Light,Arial Narrow" font-weight="normal" font-style="normal" font-size="105.3333" fill="#000000">200</tspan></text></g></g></g></g><g><g clip-path="url(#clip028)"><g><g transform="matrix(0,-1,1,0,304.8399,1674.368)"><text><tspan x="0" y="0" font-family="Connections Cond Light,Arial Narrow" font-weight="normal" font-style="normal" font-size="100" fill="#000000">Jul-96</tspan></text></g></g></g></g><g><g clip-path="url(#clip029)"><g><g transform="matrix(0,-1,1,0,414.9396,1674.368)"><text><tspan x="0" y="0" font-family="Connections Cond Light,Arial Narrow" font-weight="normal" font-style="normal" font-size="100" fill="#000000">Jul-97</tspan></text></g></g></g></g><g><g clip-path="url(#clip030)"><g><g transform="matrix(0,-1,1,0,525.0394,1674.368)"><text><tspan x="0" y="0" font-family="Connections Cond Light,Arial Narrow" font-weight="normal" font-style="normal" font-size="100" fill="#000000">Jul-98</tspan></text></g></g></g></g><g><g clip-path="url(#clip031)"><g><g transform="matrix(0,-1,1,0,635.1391,1674.368)"><text><tspan x="0" y="0" font-family="Connections Cond Light,Arial Narrow" font-weight="normal" font-style="normal" font-size="100" fill="#000000">Jul-99</tspan></text></g></g></g></g><g><g clip-path="url(#clip032)"><g><g transform="matrix(0,-1,1,0,745.2388,1674.368)"><text><tspan x="0" y="0" font-family="Connections Cond Light,Arial Narrow" font-weight="normal" font-style="normal" font-size="100" fill="#000000">Jul-00</tspan></text></g></g></g></g><g><g clip-path="url(#clip033)"><g><g transform="matrix(0,-1,1,0,855.3386,1674.368)"><text><tspan x="0" y="0" font-family="Connections Cond Light,Arial Narrow" font-weight="normal" font-style="normal" font-size="100" fill="#000000">Jul-01</tspan></text></g></g></g></g><g><g clip-path="url(#clip034)"><g><g transform="matrix(0,-1,1,0,965.4383,1674.368)"><text><tspan x="0" y="0" font-family="Connections Cond Light,Arial Narrow" font-weight="normal" font-style="normal" font-size="100" fill="#000000">Jul-02</tspan></text></g></g></g></g><g><g clip-path="url(#clip035)"><g><g transform="matrix(0,-1,1,0,1075.538,1674.368)"><text><tspan x="0" y="0" font-family="Connections Cond Light,Arial Narrow" font-weight="normal" font-style="normal" font-size="100" fill="#000000">Jul-03</tspan></text></g></g></g></g><g><g clip-path="url(#clip036)"><g><g transform="matrix(0,-1,1,0,1185.638,1674.368)"><text><tspan x="0" y="0" font-family="Connections Cond Light,Arial Narrow" font-weight="normal" font-style="normal" font-size="100" fill="#000000">Jul-04</tspan></text></g></g></g></g><g><g clip-path="url(#clip037)"><g><g transform="matrix(0,-1,1,0,1295.738,1674.368)"><text><tspan x="0" y="0" font-family="Connections Cond Light,Arial Narrow" font-weight="normal" font-style="normal" font-size="100" fill="#000000">Jul-05</tspan></text></g></g></g></g><g><g clip-path="url(#clip038)"><g><g transform="matrix(0,-1,1,0,1405.837,1674.368)"><text><tspan x="0" y="0" font-family="Connections Cond Light,Arial Narrow" font-weight="normal" font-style="normal" font-size="100" fill="#000000">Jul-06</tspan></text></g></g></g></g><g><g clip-path="url(#clip039)"><g><g transform="matrix(0,-1,1,0,1515.937,1674.368)"><text><tspan x="0" y="0" font-family="Connections Cond Light,Arial Narrow" font-weight="normal" font-style="normal" font-size="100" fill="#000000">Jul-07</tspan></text></g></g></g></g><g><g clip-path="url(#clip040)"><g><g transform="matrix(0,-1,1,0,1626.037,1674.368)"><text><tspan x="0" y="0" font-family="Connections Cond Light,Arial Narrow" font-weight="normal" font-style="normal" font-size="100" fill="#000000">Jul-08</tspan></text></g></g></g></g><g><g clip-path="url(#clip041)"><g><g transform="matrix(0,-1,1,0,1736.137,1674.368)"><text><tspan x="0" y="0" font-family="Connections Cond Light,Arial Narrow" font-weight="normal" font-style="normal" font-size="100" fill="#000000">Jul-09</tspan></text></g></g></g></g><g><g clip-path="url(#clip042)"><g><g transform="matrix(0,-1,1,0,1846.236,1674.368)"><text><tspan x="0" y="0" font-family="Connections Cond Light,Arial Narrow" font-weight="normal" font-style="normal" font-size="100" fill="#000000">Jul-10</tspan></text></g></g></g></g><g><g clip-path="url(#clip043)"><g><g transform="matrix(0,-1,1,0,1956.336,1674.368)"><text><tspan x="0" y="0" font-family="Connections Cond Light,Arial Narrow" font-weight="normal" font-style="normal" font-size="100" fill="#000000">Jul-11</tspan></text></g></g></g></g><g><g clip-path="url(#clip044)"><g><g transform="matrix(0,-1,1,0,2066.436,1674.368)"><text><tspan x="0" y="0" font-family="Connections Cond Light,Arial Narrow" font-weight="normal" font-style="normal" font-size="100" fill="#000000">Jul-12</tspan></text></g></g></g></g><g><g clip-path="url(#clip045)"><g><g transform="matrix(0,-1,1,0,2176.535,1674.368)"><text><tspan x="0" y="0" font-family="Connections Cond Light,Arial Narrow" font-weight="normal" font-style="normal" font-size="100" fill="#000000">Jul-13</tspan></text></g></g></g></g><g><g clip-path="url(#clip046)"><g><g transform="matrix(0,-1,1,0,2286.635,1674.368)"><text><tspan x="0" y="0" font-family="Connections Cond Light,Arial Narrow" font-weight="normal" font-style="normal" font-size="100" fill="#000000">Jul-14</tspan></text></g></g></g></g><g><g clip-path="url(#clip047)"><g><g transform="matrix(0,-1,1,0,2396.735,1674.368)"><text><tspan x="0" y="0" font-family="Connections Cond Light,Arial Narrow" font-weight="normal" font-style="normal" font-size="100" fill="#000000">Jul-15</tspan></text></g></g></g></g><g><g clip-path="url(#clip048)"><g><g transform="matrix(0,-1,1,0,2506.835,1674.368)"><text><tspan x="0" y="0" font-family="Connections Cond Light,Arial Narrow" font-weight="normal" font-style="normal" font-size="100" fill="#000000">Jul-16</tspan></text></g></g></g></g><g><g clip-path="url(#clip049)"><g><g transform="matrix(0,-1,1,0,2616.934,1674.368)"><text><tspan x="0" y="0" font-family="Connections Cond Light,Arial Narrow" font-weight="normal" font-style="normal" font-size="100" fill="#000000">Jul-17</tspan></text></g></g></g></g><g><g clip-path="url(#clip050)"><g><g transform="matrix(0,-1,1,0,2727.034,1674.368)"><text><tspan x="0" y="0" font-family="Connections Cond Light,Arial Narrow" font-weight="normal" font-style="normal" font-size="100" fill="#000000">Jul-18</tspan></text></g></g></g></g><g><g clip-path="url(#clip051)"><g><g transform="matrix(0,-1,1,0,2837.134,1674.368)"><text><tspan x="0" y="0" font-family="Connections Cond Light,Arial Narrow" font-weight="normal" font-style="normal" font-size="100" fill="#000000">Jul-19</tspan></text></g></g></g></g><g><g clip-path="url(#clip052)"><g><g transform="matrix(0,-1,1,0,2947.234,1674.368)"><text><tspan x="0" y="0" font-family="Connections Cond Light,Arial Narrow" font-weight="normal" font-style="normal" font-size="100" fill="#000000">Jul-20</tspan></text></g></g></g></g><g><g clip-path="url(#clip053)"><g><g transform="matrix(0,-1,1,0,3057.333,1674.368)"><text><tspan x="0" y="0" font-family="Connections Cond Light,Arial Narrow" font-weight="normal" font-style="normal" font-size="100" fill="#000000">Jul-21</tspan></text></g></g></g></g><g><g clip-path="url(#clip054)"><g><g transform="matrix(0,-1,1,0,3167.433,1674.368)"><text><tspan x="0" y="0" font-family="Connections Cond Light,Arial Narrow" font-weight="normal" font-style="normal" font-size="100" fill="#000000">Jul-22</tspan></text></g></g></g></g><g><g clip-path="url(#clip055)"><g><g transform="matrix(0,-1,1,0,3277.533,1674.368)"><text><tspan x="0" y="0" font-family="Connections Cond Light,Arial Narrow" font-weight="normal" font-style="normal" font-size="100" fill="#000000">Jul-23</tspan></text></g></g></g></g><g><g clip-path="url(#clip056)"><g><g transform="matrix(0,-1,1,0,3387.633,1674.368)"><text><tspan x="0" y="0" font-family="Connections Cond Light,Arial Narrow" font-weight="normal" font-style="normal" font-size="100" fill="#000000">Jul-24</tspan></text></g></g></g></g><g><g clip-path="url(#clip057)"><g><g transform="matrix(0,-1,1,0,3497.732,1674.368)"><text><tspan x="0" y="0" font-family="Connections Cond Light,Arial Narrow" font-weight="normal" font-style="normal" font-size="100" fill="#000000">Jul-25</tspan></text></g></g></g></g><g><g clip-path="url(#clip058)"><g><g transform="matrix(0,-1,1,0,3607.832,1674.368)"><text><tspan x="0" y="0" font-family="Connections Cond Light,Arial Narrow" font-weight="normal" font-style="normal" font-size="100" fill="#000000">Jul-26</tspan></text></g></g></g></g><g clip-path="url(#clip059)"><g transform="matrix(0.000656168,0,0,0.000656168,713.3333,0)"><path d="M0,0 L4484624,0 L4484624,270256 L0,270256 Z" fill="#5b9bd5" fill-opacity="0" fill-rule="evenodd" /></g></g><g clip-path="url(#clip060)"><g transform="matrix(0.000656168,0,0,0.000656168,855.3333,88.66666)"><path d="M0,0 L325120,1.333333 " stroke-width="33866.67" stroke-linecap="round" stroke-linejoin="round" stroke-miterlimit="13.33333" stroke="#012169" fill="none" fill-rule="evenodd" /></g></g><g><g clip-path="url(#clip061)"><g><g transform="translate(1090.973,118.3018)"><text><tspan x="0" y="0" font-family="Connections Cond Light,Arial Narrow" font-weight="normal" font-style="normal" font-size="105.3333" fill="#000000">Memory indicator</tspan></text></g></g></g></g><g clip-path="url(#clip062)"><g transform="matrix(0.000656168,0,0,0.000656168,1911.333,88.66666)"><path d="M0,0 L325120,1.333333 " stroke-width="33866.67" stroke-linecap="round" stroke-linejoin="round" stroke-miterlimit="13.33333" stroke="#009cde" fill="none" fill-rule="evenodd" /></g></g><g><g clip-path="url(#clip063)"><g><g transform="translate(2147.403,118.3018)"><text><tspan x="0" y="0" font-family="Connections Cond Light,Arial Narrow" font-weight="normal" font-style="normal" font-size="105.3333" fill="#000000">Memory companies' share price (RH)</tspan></text></g></g></g></g><g clip-path="url(#clip064)"><g transform="matrix(0.000656168,0,0,0.000656168,270.6667,1046.667)"><path d="M0,0 L5062795,1.333333 " stroke-width="12700" stroke-linejoin="round" stroke-miterlimit="13.33333" stroke="#000000" stroke-dashoffset="0" stroke-dasharray="50800 38100 12700 38100" fill="none" fill-rule="evenodd" /></g></g><g clip-path="url(#clip065)"><g transform="matrix(0.000656168,0,0,0.000656168,3046.667,158.6667)"><path d="M0,0 L814832,0 L814832,1908048 L0,1908048 Z" fill="#4f81bd" fill-opacity="0.5019608" fill-rule="evenodd" /></g></g><g /></g></g></g></g></g></g></g></g></g></svg>