<svg version="1.1" width="100%" height="100%" viewBox="0 0 355 189" xmlns="http://www.w3.org/2000/svg" xmlns:xlink="http://www.w3.org/1999/xlink"><style type="text/css" /><defs><clipPath id="clip001"><path d="M0,0 L2753.333,0 L2753.333,1577.333 L0,1577.333 Z" clip-rule="evenodd" /></clipPath><clipPath id="clip002"><path d="M0,0 L2753.333,0 L2753.333,1577.333 L0,1577.333 Z" clip-rule="evenodd" /></clipPath><clipPath id="clip003"><path d="M0,0 L2753.333,0 L2753.333,1577.333 L0,1577.333 Z" clip-rule="evenodd" /></clipPath><clipPath id="clip004"><path d="M0,0 L5200,0 L5200,1682.667 L0,1682.667 Z" clip-rule="evenodd" /></clipPath><clipPath id="clip005"><path d="M-800,0 L6000,0 L6000,1682.667 L-800,1682.667 Z" clip-rule="evenodd" /></clipPath><clipPath id="clip006"><path d="M0,0 L2753.333,0 L2753.333,1573.333 L0,1573.333 Z" clip-rule="evenodd" /></clipPath><clipPath id="clip007"><path d="M209.3333,162.6667 L2692,162.6667 L2692,1216 L209.3333,1216 Z" clip-rule="evenodd" /></clipPath><clipPath id="clip008"><path d="M209.3333,162.6667 L2692,162.6667 L2692,1216 L209.3333,1216 Z" clip-rule="evenodd" /></clipPath><clipPath id="clip009"><path d="M0,0 L2753.333,0 L2753.333,1573.333 L0,1573.333 Z" clip-rule="evenodd" /></clipPath><clipPath id="clip010"><path d="M0,0 L2753.333,0 L2753.333,1573.333 L0,1573.333 Z" clip-rule="evenodd" /></clipPath><clipPath id="clip011"><path d="M0,0 L2753.333,0 L2753.333,1573.333 L0,1573.333 Z" clip-rule="evenodd" /></clipPath><clipPath id="clip012"><path d="M0,0 L2753.333,0 L2753.333,1573.333 L0,1573.333 Z" clip-rule="evenodd" /></clipPath><clipPath id="clip013"><path d="M0,0 L2753.333,0 L2753.333,1573.333 L0,1573.333 Z" clip-rule="evenodd" /></clipPath><clipPath id="clip014"><path d="M0,0 L2753.333,0 L2753.333,1573.333 L0,1573.333 Z" clip-rule="evenodd" /></clipPath><clipPath id="clip015"><path d="M0,0 L2753.333,0 L2753.333,1573.333 L0,1573.333 Z" clip-rule="evenodd" /></clipPath><clipPath id="clip016"><path d="M0,0 L2753.333,0 L2753.333,1573.333 L0,1573.333 Z" clip-rule="evenodd" /></clipPath><clipPath id="clip017"><path d="M0,0 L2753.333,0 L2753.333,1573.333 L0,1573.333 Z" clip-rule="evenodd" /></clipPath><clipPath id="clip018"><path d="M0,0 L2753.333,0 L2753.333,1573.333 L0,1573.333 Z" clip-rule="evenodd" /></clipPath><clipPath id="clip019"><path d="M0,0 L2753.333,0 L2753.333,1573.333 L0,1573.333 Z" clip-rule="evenodd" /></clipPath><clipPath id="clip020"><path d="M0,0 L2753.333,0 L2753.333,1573.333 L0,1573.333 Z" clip-rule="evenodd" /></clipPath><clipPath id="clip021"><path d="M0,0 L2753.333,0 L2753.333,1573.333 L0,1573.333 Z" clip-rule="evenodd" /></clipPath><clipPath id="clip022"><path d="M0,0 L2753.333,0 L2753.333,1573.333 L0,1573.333 Z" clip-rule="evenodd" /></clipPath><clipPath id="clip023"><path d="M0,0 L2753.333,0 L2753.333,1573.333 L0,1573.333 Z" clip-rule="evenodd" /></clipPath><clipPath id="clip024"><path d="M0,0 L2753.333,0 L2753.333,1573.333 L0,1573.333 Z" clip-rule="evenodd" /></clipPath><clipPath id="clip025"><path d="M0,0 L2753.333,0 L2753.333,1573.333 L0,1573.333 Z" clip-rule="evenodd" /></clipPath><clipPath id="clip026"><path d="M0,0 L2753.333,0 L2753.333,1573.333 L0,1573.333 Z" clip-rule="evenodd" /></clipPath><clipPath id="clip027"><path d="M0,0 L2753.333,0 L2753.333,1573.333 L0,1573.333 Z" clip-rule="evenodd" /></clipPath><clipPath id="clip028"><path d="M0,0 L2753.333,0 L2753.333,1573.333 L0,1573.333 Z" clip-rule="evenodd" /></clipPath><clipPath id="clip029"><path d="M0,0 L2753.333,0 L2753.333,1573.333 L0,1573.333 Z" clip-rule="evenodd" /></clipPath><clipPath id="clip030"><path d="M0,0 L2753.333,0 L2753.333,1573.333 L0,1573.333 Z" clip-rule="evenodd" /></clipPath><clipPath id="clip031"><path d="M0,0 L2753.333,0 L2753.333,1573.333 L0,1573.333 Z" clip-rule="evenodd" /></clipPath><clipPath id="clip032"><path d="M0,0 L2753.333,0 L2753.333,1573.333 L0,1573.333 Z" clip-rule="evenodd" /></clipPath><clipPath id="clip033"><path d="M0,0 L2753.333,0 L2753.333,1573.333 L0,1573.333 Z" clip-rule="evenodd" /></clipPath><clipPath id="clip034"><path d="M0,0 L2753.333,0 L2753.333,1573.333 L0,1573.333 Z" clip-rule="evenodd" /></clipPath><clipPath id="clip035"><path d="M0,0 L2753.333,0 L2753.333,1573.333 L0,1573.333 Z" clip-rule="evenodd" /></clipPath><clipPath id="clip036"><path d="M0,0 L2753.333,0 L2753.333,1573.333 L0,1573.333 Z" clip-rule="evenodd" /></clipPath><clipPath id="clip037"><path d="M0,0 L2753.333,0 L2753.333,1573.333 L0,1573.333 Z" clip-rule="evenodd" /></clipPath><clipPath id="clip038"><path d="M0,0 L2753.333,0 L2753.333,1573.333 L0,1573.333 Z" clip-rule="evenodd" /></clipPath><clipPath id="clip039"><path d="M0,0 L2753.333,0 L2753.333,1573.333 L0,1573.333 Z" clip-rule="evenodd" /></clipPath><clipPath id="clip040"><path d="M0,0 L2753.333,0 L2753.333,1573.333 L0,1573.333 Z" clip-rule="evenodd" /></clipPath><clipPath id="clip041"><path d="M0,0 L2753.333,0 L2753.333,1573.333 L0,1573.333 Z" clip-rule="evenodd" /></clipPath><clipPath id="clip042"><path d="M0,0 L2753.333,0 L2753.333,1573.333 L0,1573.333 Z" clip-rule="evenodd" /></clipPath><clipPath id="clip043"><path d="M0,0 L2753.333,0 L2753.333,1573.333 L0,1573.333 Z" clip-rule="evenodd" /></clipPath><clipPath id="clip044"><path d="M0,0 L2753.333,0 L2753.333,1573.333 L0,1573.333 Z" clip-rule="evenodd" /></clipPath><clipPath id="clip045"><path d="M0,0 L2753.333,0 L2753.333,1573.333 L0,1573.333 Z" clip-rule="evenodd" /></clipPath></defs><clipPath id="page-clip-path-1"><rect x="0" y="0" width="354.67" height="189.33" /></clipPath><g clip-path="url(#page-clip-path-1)" transform="translate(0.17,0)"><g transform="translate(1,1)"><g><g transform="matrix(0.1200484,0,0,0.1197379,0,0)" clip-path="url(#clip001)"><g><g clip-path="url(#clip002)"><g><g clip-path="url(#clip003)"><g transform="matrix(1.000207,0,0,1.00103,-0.00016276,0)"><g><g><g clip-path="url(#clip004)"><g transform="translate(2753.333,1574.667)" /></g></g></g><g clip-path="url(#clip005)"><g transform="matrix(0.000656168,0,0,0.000656168,0,0)"><path d="M0,0 L4198112,0 L4198112,2397760 L0,2397760 Z" fill="#ffffff" fill-opacity="0" fill-rule="evenodd" /></g></g><g clip-path="url(#clip006)"><g transform="matrix(0.000656168,0,0,0.000656168,209.3333,1209.333)"><g><path d="M0.002394636,-6773.333 L3771392,-6772 " stroke-width="3386.667" stroke-linejoin="round" stroke-miterlimit="13.33333" stroke="#000000" fill="none" fill-rule="evenodd" /><path d="M-0.001197318,3386.667 L3771392,3388 " stroke-width="10160" stroke-linejoin="round" stroke-miterlimit="13.33333" stroke="#000000" fill="none" fill-rule="evenodd" /></g></g></g><g clip-path="url(#clip007)"><g transform="matrix(0.000656168,0,0,0.000656168,-303.3333,279.3333)"><path d="M0,1109472 L91440,1109472 L91440,1109472 L182880,1168400 L182880,1168400 L276352,1170432 L276352,1170432 L367792,1170432 L367792,1170432 L459232,1237488 L459232,1237488 L550672,1237488 L550672,1237488 L644144,1237488 L644144,1237488 L735584,1274064 L735584,1274064 L827024,1274064 L827024,1274064 L918464,1274064 L918464,1274064 L1011936,1304544 L1011936,1304544 L1103376,1304544 L1103376,1304544 L1194816,1304544 L1194816,1304544 L1286256,1304544 L1286256,1304544 L1379728,1296416 L1379728,1296416 L1471168,1296416 L1471168,1296416 L1562608,1282192 L1562608,1282192 L1654048,1278128 L1654048,1278128 L1747520,1274064 L1747520,1274064 L1838960,1272032 L1838960,1272032 L1930400,1272032 L1930400,1272032 L2023872,1272032 L2023872,1272032 L2115312,1251712 L2115312,1251712 L2206752,1251712 L2206752,1251712 L2298192,1251712 L2298192,1251712 L2391664,1251712 L2391664,1251712 L2483104,1257808 L2483104,1257808 L2574544,1274064 L2574544,1274064 L2665984,1274064 L2665984,1274064 L2759456,1278128 L2759456,1278128 L2850896,1278128 L2850896,1278128 L2942336,1284224 L2942336,1284224 L3033776,1282192 L3033776,1282192 L3127248,1265936 L3127248,1265936 L3218688,1253744 L3218688,1253744 L3310128,1245616 L3310128,1245616 L3401568,1235456 L3401568,1235456 L3495040,1231392 L3495040,1231392 L3586480,1231392 L3586480,1231392 L3677920,1200912 L3677920,1200912 L3771392,1107440 L3771392,1107440 L3862832,725424 L3862832,725424 L3954272,680720 L3954272,680720 L4045712,406400 L4045712,406400 L4139184,353568 L4139184,353568 L4230624,319024 L4230624,319024 L4322064,176784 L4322064,176784 L4413504,87376 L4413504,87376 L4506976,0 " stroke-width="33866.67" stroke-linecap="round" stroke-linejoin="round" stroke-miterlimit="13.33333" stroke="#012169" fill="none" fill-rule="nonzero" /></g></g><g clip-path="url(#clip008)"><g transform="matrix(0.000656168,0,0,0.000656168,-303.3333,232.6667)"><path d="M0,1241552 L91440,1241552 L91440,1241552 L182880,1280160 L182880,1280160 L276352,1280160 L276352,1280160 L367792,1280160 L367792,1280160 L459232,1326896 L459232,1326896 L550672,1326896 L550672,1326896 L644144,1326896 L644144,1326896 L735584,1355344 L735584,1355344 L827024,1355344 L827024,1355344 L918464,1355344 L918464,1355344 L1011936,1379728 L1011936,1379728 L1103376,1383792 L1103376,1383792 L1194816,1385824 L1194816,1385824 L1286256,1387856 L1286256,1387856 L1379728,1391920 L1379728,1391920 L1471168,1391920 L1471168,1391920 L1562608,1381760 L1562608,1381760 L1654048,1377696 L1654048,1377696 L1747520,1373632 L1747520,1373632 L1838960,1359408 L1838960,1359408 L1930400,1359408 L1930400,1359408 L2023872,1359408 L2023872,1359408 L2115312,1339088 L2115312,1339088 L2206752,1339088 L2206752,1339088 L2298192,1339088 L2298192,1339088 L2391664,1339088 L2391664,1339088 L2483104,1343152 L2483104,1343152 L2574544,1373632 L2574544,1373632 L2665984,1373632 L2665984,1373632 L2759456,1398016 L2759456,1398016 L2850896,1398016 L2850896,1398016 L2942336,1398016 L2942336,1398016 L3033776,1398016 L3033776,1398016 L3127248,1398016 L3127248,1398016 L3218688,1373632 L3218688,1373632 L3310128,1359408 L3310128,1359408 L3401568,1292352 L3401568,1292352 L3495040,1204976 L3495040,1204976 L3586480,1062736 L3586480,1062736 L3677920,1020064 L3677920,1020064 L3771392,963168 L3771392,963168 L3862832,849376 L3862832,849376 L3954272,743712 L3954272,743712 L4045712,566928 L4045712,566928 L4139184,442976 L4139184,442976 L4230624,442976 L4230624,442976 L4322064,300736 L4322064,300736 L4413504,71120 L4413504,71120 L4506976,0 " stroke-width="33866.67" stroke-linecap="round" stroke-linejoin="round" stroke-miterlimit="13.33333" stroke="#009cde" fill="none" fill-rule="nonzero" /></g></g><g><g clip-path="url(#clip009)"><g><g transform="translate(67.33334,1238.458)"><text><tspan x="0" y="0" font-family="Connections Cond Light,Arial Narrow" font-weight="normal" font-style="normal" font-size="105.3333" fill="#000000">0</tspan></text></g></g></g></g><g><g clip-path="url(#clip010)"><g><g transform="translate(67.33334,1122.237)"><text><tspan x="0" y="0" font-family="Connections Cond Light,Arial Narrow" font-weight="normal" font-style="normal" font-size="105.3333" fill="#000000">5</tspan></text></g></g></g></g><g><g clip-path="url(#clip011)"><g><g transform="translate(16.66667,1006.017)"><text><tspan x="0" y="0" font-family="Connections Cond Light,Arial Narrow" font-weight="normal" font-style="normal" font-size="105.3333" fill="#000000">10</tspan></text></g></g></g></g><g><g clip-path="url(#clip012)"><g><g transform="translate(16.66667,889.7961)"><text><tspan x="0" y="0" font-family="Connections Cond Light,Arial Narrow" font-weight="normal" font-style="normal" font-size="105.3333" fill="#000000">15</tspan></text></g></g></g></g><g><g clip-path="url(#clip013)"><g><g transform="translate(16.66667,773.5757)"><text><tspan x="0" y="0" font-family="Connections Cond Light,Arial Narrow" font-weight="normal" font-style="normal" font-size="105.3333" fill="#000000">20</tspan></text></g></g></g></g><g><g clip-path="url(#clip014)"><g><g transform="translate(16.66667,657.3561)"><text><tspan x="0" y="0" font-family="Connections Cond Light,Arial Narrow" font-weight="normal" font-style="normal" font-size="105.3333" fill="#000000">25</tspan></text></g></g></g></g><g><g clip-path="url(#clip015)"><g><g transform="translate(16.66667,541.1356)"><text><tspan x="0" y="0" font-family="Connections Cond Light,Arial Narrow" font-weight="normal" font-style="normal" font-size="105.3333" fill="#000000">30</tspan></text></g></g></g></g><g><g clip-path="url(#clip016)"><g><g transform="translate(16.66667,424.9151)"><text><tspan x="0" y="0" font-family="Connections Cond Light,Arial Narrow" font-weight="normal" font-style="normal" font-size="105.3333" fill="#000000">35</tspan></text></g></g></g></g><g><g clip-path="url(#clip017)"><g><g transform="translate(16.66667,308.6947)"><text><tspan x="0" y="0" font-family="Connections Cond Light,Arial Narrow" font-weight="normal" font-style="normal" font-size="105.3333" fill="#000000">40</tspan></text></g></g></g></g><g><g clip-path="url(#clip018)"><g><g transform="translate(16.66667,192.4742)"><text><tspan x="0" y="0" font-family="Connections Cond Light,Arial Narrow" font-weight="normal" font-style="normal" font-size="105.3333" fill="#000000">45</tspan></text></g></g></g></g><g><g clip-path="url(#clip019)"><g><g transform="matrix(0,-1,1,0,272.7861,1543.541)"><text><tspan x="0" y="0" font-family="Connections Cond Light,Arial Narrow" font-weight="normal" font-style="normal" font-size="105.3333" fill="#000000">Feb-23</tspan></text></g></g></g></g><g><g clip-path="url(#clip020)"><g><g transform="matrix(0,-1,1,0,393.4868,1535.208)"><text><tspan x="0" y="0" font-family="Connections Cond Light,Arial Narrow" font-weight="normal" font-style="normal" font-size="105.3333" fill="#000000">Apr-23</tspan></text></g></g></g></g><g><g clip-path="url(#clip021)"><g><g transform="matrix(0,-1,1,0,514.1877,1525.264)"><text><tspan x="0" y="0" font-family="Connections Cond Light,Arial Narrow" font-weight="normal" font-style="normal" font-size="105.3333" fill="#000000">Jun-23</tspan></text></g></g></g></g><g><g clip-path="url(#clip022)"><g><g transform="matrix(0,-1,1,0,634.8885,1552.597)"><text><tspan x="0" y="0" font-family="Connections Cond Light,Arial Narrow" font-weight="normal" font-style="normal" font-size="105.3333" fill="#000000">Aug-23</tspan></text></g></g></g></g><g><g clip-path="url(#clip023)"><g><g transform="matrix(0,-1,1,0,755.5893,1537.153)"><text><tspan x="0" y="0" font-family="Connections Cond Light,Arial Narrow" font-weight="normal" font-style="normal" font-size="105.3333" fill="#000000">Oct-23</tspan></text></g></g></g></g><g><g clip-path="url(#clip024)"><g><g transform="matrix(0,-1,1,0,876.29,1546.541)"><text><tspan x="0" y="0" font-family="Connections Cond Light,Arial Narrow" font-weight="normal" font-style="normal" font-size="105.3333" fill="#000000">Dec-23</tspan></text></g></g></g></g><g><g clip-path="url(#clip025)"><g><g transform="matrix(0,-1,1,0,996.9899,1543.541)"><text><tspan x="0" y="0" font-family="Connections Cond Light,Arial Narrow" font-weight="normal" font-style="normal" font-size="105.3333" fill="#000000">Feb-24</tspan></text></g></g></g></g><g><g clip-path="url(#clip026)"><g><g transform="matrix(0,-1,1,0,1117.691,1535.208)"><text><tspan x="0" y="0" font-family="Connections Cond Light,Arial Narrow" font-weight="normal" font-style="normal" font-size="105.3333" fill="#000000">Apr-24</tspan></text></g></g></g></g><g><g clip-path="url(#clip027)"><g><g transform="matrix(0,-1,1,0,1238.391,1525.264)"><text><tspan x="0" y="0" font-family="Connections Cond Light,Arial Narrow" font-weight="normal" font-style="normal" font-size="105.3333" fill="#000000">Jun-24</tspan></text></g></g></g></g><g><g clip-path="url(#clip028)"><g><g transform="matrix(0,-1,1,0,1359.092,1552.597)"><text><tspan x="0" y="0" font-family="Connections Cond Light,Arial Narrow" font-weight="normal" font-style="normal" font-size="105.3333" fill="#000000">Aug-24</tspan></text></g></g></g></g><g><g clip-path="url(#clip029)"><g><g transform="matrix(0,-1,1,0,1479.793,1537.153)"><text><tspan x="0" y="0" font-family="Connections Cond Light,Arial Narrow" font-weight="normal" font-style="normal" font-size="105.3333" fill="#000000">Oct-24</tspan></text></g></g></g></g><g><g clip-path="url(#clip030)"><g><g transform="matrix(0,-1,1,0,1600.494,1546.541)"><text><tspan x="0" y="0" font-family="Connections Cond Light,Arial Narrow" font-weight="normal" font-style="normal" font-size="105.3333" fill="#000000">Dec-24</tspan></text></g></g></g></g><g><g clip-path="url(#clip031)"><g><g transform="matrix(0,-1,1,0,1721.195,1543.541)"><text><tspan x="0" y="0" font-family="Connections Cond Light,Arial Narrow" font-weight="normal" font-style="normal" font-size="105.3333" fill="#000000">Feb-25</tspan></text></g></g></g></g><g><g clip-path="url(#clip032)"><g><g transform="matrix(0,-1,1,0,1841.896,1535.208)"><text><tspan x="0" y="0" font-family="Connections Cond Light,Arial Narrow" font-weight="normal" font-style="normal" font-size="105.3333" fill="#000000">Apr-25</tspan></text></g></g></g></g><g><g clip-path="url(#clip033)"><g><g transform="matrix(0,-1,1,0,1962.596,1525.264)"><text><tspan x="0" y="0" font-family="Connections Cond Light,Arial Narrow" font-weight="normal" font-style="normal" font-size="105.3333" fill="#000000">Jun-25</tspan></text></g></g></g></g><g><g clip-path="url(#clip034)"><g><g transform="matrix(0,-1,1,0,2083.296,1552.597)"><text><tspan x="0" y="0" font-family="Connections Cond Light,Arial Narrow" font-weight="normal" font-style="normal" font-size="105.3333" fill="#000000">Aug-25</tspan></text></g></g></g></g><g><g clip-path="url(#clip035)"><g><g transform="matrix(0,-1,1,0,2203.997,1537.153)"><text><tspan x="0" y="0" font-family="Connections Cond Light,Arial Narrow" font-weight="normal" font-style="normal" font-size="105.3333" fill="#000000">Oct-25</tspan></text></g></g></g></g><g><g clip-path="url(#clip036)"><g><g transform="matrix(0,-1,1,0,2324.698,1546.541)"><text><tspan x="0" y="0" font-family="Connections Cond Light,Arial Narrow" font-weight="normal" font-style="normal" font-size="105.3333" fill="#000000">Dec-25</tspan></text></g></g></g></g><g><g clip-path="url(#clip037)"><g><g transform="matrix(0,-1,1,0,2445.398,1543.541)"><text><tspan x="0" y="0" font-family="Connections Cond Light,Arial Narrow" font-weight="normal" font-style="normal" font-size="105.3333" fill="#000000">Feb-26</tspan></text></g></g></g></g><g><g clip-path="url(#clip038)"><g><g transform="matrix(0,-1,1,0,2566.099,1535.208)"><text><tspan x="0" y="0" font-family="Connections Cond Light,Arial Narrow" font-weight="normal" font-style="normal" font-size="105.3333" fill="#000000">Apr-26</tspan></text></g></g></g></g><g><g clip-path="url(#clip039)"><g><g transform="matrix(0,-1,1,0,2686.8,1525.264)"><text><tspan x="0" y="0" font-family="Connections Cond Light,Arial Narrow" font-weight="normal" font-style="normal" font-size="105.3333" fill="#000000">Jun-26</tspan></text></g></g></g></g><g><g clip-path="url(#clip040)"><g><g transform="translate(233.0888,193.7835)"><text><tspan x="0" y="0" font-family="Connections Cond Light,Arial Narrow" font-weight="normal" font-style="normal" font-size="100" fill="#000000">US$</tspan></text></g></g></g></g><g clip-path="url(#clip041)"><g transform="matrix(0.000656168,0,0,0.000656168,332,16)"><path d="M0,0 L3352800,0 L3352800,251968 L0,251968 Z" fill="#4f81bd" fill-opacity="0" fill-rule="evenodd" /></g></g><g clip-path="url(#clip042)"><g transform="matrix(0.000656168,0,0,0.000656168,394,98)"><path d="M0,0 L325120,1.333333 " stroke-width="33866.67" stroke-linecap="round" stroke-linejoin="round" stroke-miterlimit="13.33333" stroke="#012169" fill="none" fill-rule="evenodd" /></g></g><g><g clip-path="url(#clip043)"><g><g transform="translate(629.8478,127.6264)"><text><tspan x="0" y="0" font-family="Connections Cond Light,Arial Narrow" font-weight="normal" font-style="normal" font-size="100" fill="#000000">16Gb DDR5 (contract)</tspan></text></g></g></g></g><g clip-path="url(#clip044)"><g transform="matrix(0.000656168,0,0,0.000656168,1480.667,98)"><path d="M0,0 L325120,1.333333 " stroke-width="33866.67" stroke-linecap="round" stroke-linejoin="round" stroke-miterlimit="13.33333" stroke="#009cde" fill="none" fill-rule="evenodd" /></g></g><g><g clip-path="url(#clip045)"><g><g transform="translate(1716.496,127.6264)"><text><tspan x="0" y="0" font-family="Connections Cond Light,Arial Narrow" font-weight="normal" font-style="normal" font-size="100" fill="#000000">16Gb DDR4 (contract)</tspan></text></g></g></g></g><g /></g></g></g></g></g></g></g></g></g></svg>