<svg version="1.1" width="100%" height="100%" viewBox="0 0 355 225" xmlns="http://www.w3.org/2000/svg" xmlns:xlink="http://www.w3.org/1999/xlink"><style type="text/css" /><defs><clipPath id="clip001"><path d="M0,0 L2761.333,0 L2761.333,1869.333 L0,1869.333 Z" clip-rule="evenodd" /></clipPath><clipPath id="clip002"><path d="M0,0 L2761.333,0 L2761.333,1869.333 L0,1869.333 Z" clip-rule="evenodd" /></clipPath><clipPath id="clip003"><path d="M0,0 L2761.333,0 L2761.333,1869.333 L0,1869.333 Z" clip-rule="evenodd" /></clipPath><clipPath id="clip004"><path d="M0,0 L5200,0 L5200,1977.333 L0,1977.333 Z" clip-rule="evenodd" /></clipPath><clipPath id="clip005"><path d="M-800,0 L6000,0 L6000,1977.333 L-800,1977.333 Z" clip-rule="evenodd" /></clipPath><clipPath id="clip006"><path d="M0,0 L2753.333,0 L2753.333,1868 L0,1868 Z" clip-rule="evenodd" /></clipPath><clipPath id="clip007"><path d="M0,0 L2753.333,0 L2753.333,1868 L0,1868 Z" clip-rule="evenodd" /></clipPath><clipPath id="clip008"><path d="M452,60 L2686.667,60 L2686.667,1621.333 L452,1621.333 Z" clip-rule="evenodd" /></clipPath><clipPath id="clip009"><path d="M452,60 L2686.667,60 L2686.667,1621.333 L452,1621.333 Z" clip-rule="evenodd" /></clipPath><clipPath id="clip010"><path d="M452,60 L2686.667,60 L2686.667,1621.333 L452,1621.333 Z" clip-rule="evenodd" /></clipPath><clipPath id="clip011"><path d="M452,60 L2686.667,60 L2686.667,1621.333 L452,1621.333 Z" clip-rule="evenodd" /></clipPath><clipPath id="clip012"><path d="M452,60 L2686.667,60 L2686.667,1621.333 L452,1621.333 Z" clip-rule="evenodd" /></clipPath><clipPath id="clip013"><path d="M452,60 L2686.667,60 L2686.667,1621.333 L452,1621.333 Z" clip-rule="evenodd" /></clipPath><clipPath id="clip014"><path d="M452,60 L2686.667,60 L2686.667,1621.333 L452,1621.333 Z" clip-rule="evenodd" /></clipPath><clipPath id="clip015"><path d="M0,0 L2753.333,0 L2753.333,1868 L0,1868 Z" clip-rule="evenodd" /></clipPath><clipPath id="clip016"><path d="M0,0 L2753.333,0 L2753.333,1868 L0,1868 Z" clip-rule="evenodd" /></clipPath><clipPath id="clip017"><path d="M0,0 L2753.333,0 L2753.333,1868 L0,1868 Z" clip-rule="evenodd" /></clipPath><clipPath id="clip018"><path d="M0,0 L2753.333,0 L2753.333,1868 L0,1868 Z" clip-rule="evenodd" /></clipPath><clipPath id="clip019"><path d="M0,0 L2753.333,0 L2753.333,1868 L0,1868 Z" clip-rule="evenodd" /></clipPath><clipPath id="clip020"><path d="M0,0 L2753.333,0 L2753.333,1868 L0,1868 Z" clip-rule="evenodd" /></clipPath><clipPath id="clip021"><path d="M0,0 L2753.333,0 L2753.333,1868 L0,1868 Z" clip-rule="evenodd" /></clipPath><clipPath id="clip022"><path d="M0,0 L2753.333,0 L2753.333,1868 L0,1868 Z" clip-rule="evenodd" /></clipPath><clipPath id="clip023"><path d="M0,0 L2753.333,0 L2753.333,1868 L0,1868 Z" clip-rule="evenodd" /></clipPath><clipPath id="clip024"><path d="M0,0 L2753.333,0 L2753.333,1868 L0,1868 Z" clip-rule="evenodd" /></clipPath><clipPath id="clip025"><path d="M0,0 L2753.333,0 L2753.333,1868 L0,1868 Z" clip-rule="evenodd" /></clipPath><clipPath id="clip026"><path d="M0,0 L2753.333,0 L2753.333,1868 L0,1868 Z" clip-rule="evenodd" /></clipPath><clipPath id="clip027"><path d="M0,0 L2753.333,0 L2753.333,1868 L0,1868 Z" clip-rule="evenodd" /></clipPath><clipPath id="clip028"><path d="M0,0 L2753.333,0 L2753.333,1868 L0,1868 Z" clip-rule="evenodd" /></clipPath><clipPath id="clip029"><path d="M0,0 L2753.333,0 L2753.333,1868 L0,1868 Z" clip-rule="evenodd" /></clipPath><clipPath id="clip030"><path d="M0,0 L2753.333,0 L2753.333,1868 L0,1868 Z" clip-rule="evenodd" /></clipPath><clipPath id="clip031"><path d="M0,0 L2753.333,0 L2753.333,1868 L0,1868 Z" clip-rule="evenodd" /></clipPath><clipPath id="clip032"><path d="M0,0 L2753.333,0 L2753.333,1868 L0,1868 Z" clip-rule="evenodd" /></clipPath><clipPath id="clip033"><path d="M0,0 L2753.333,0 L2753.333,1868 L0,1868 Z" clip-rule="evenodd" /></clipPath><clipPath id="clip034"><path d="M0,0 L2753.333,0 L2753.333,1868 L0,1868 Z" clip-rule="evenodd" /></clipPath><clipPath id="clip035"><path d="M0,0 L2753.333,0 L2753.333,1868 L0,1868 Z" clip-rule="evenodd" /></clipPath><clipPath id="clip036"><path d="M0,0 L2753.333,0 L2753.333,1868 L0,1868 Z" clip-rule="evenodd" /></clipPath><clipPath id="clip037"><path d="M0,0 L2753.333,0 L2753.333,1868 L0,1868 Z" clip-rule="evenodd" /></clipPath><clipPath id="clip038"><path d="M0,0 L2753.333,0 L2753.333,1868 L0,1868 Z" clip-rule="evenodd" /></clipPath><clipPath id="clip039"><path d="M0,0 L2753.333,0 L2753.333,1868 L0,1868 Z" clip-rule="evenodd" /></clipPath></defs><clipPath id="page-clip-path-1"><rect x="0" y="0" width="354.67" height="225.33" /></clipPath><g clip-path="url(#page-clip-path-1)" transform="translate(0.17,0)"><g transform="translate(1,1)"><g><g transform="matrix(0.1197006,0,0,0.1199715,0,0)" clip-path="url(#clip001)"><g><g clip-path="url(#clip002)"><g><g clip-path="url(#clip003)"><g transform="matrix(1.000214,0,0,1.000767,0.00016276,0)"><g><g><g clip-path="url(#clip004)"><g transform="translate(2753.333,1869.333)" /></g></g></g><g clip-path="url(#clip005)"><g transform="matrix(0.000656168,0,0,0.000656168,0,0)"><path d="M0,0 L4198112,0 L4198112,2848864 L0,2848864 Z" fill="#ffffff" fill-opacity="0" fill-rule="evenodd" /></g></g><g clip-path="url(#clip006)"><g transform="matrix(0.000656168,0,0,0.000656168,452,60)"><path d="M0,0 L3395472,0 L3395472,2367280 L0,2367280 Z" fill="#ffffff" fill-opacity="0" fill-rule="evenodd" /></g></g><g clip-path="url(#clip007)"><g transform="matrix(0.000656168,0,0,0.000656168,452,60)"><path d="M0,2070608 L3395472,2070608 M0,1775968 L3395472,1775968 M0,1479296 L3395472,1479296 M0,1182624 L3395472,1182624 M0,887984 L3395472,887984 M0,591312 L3395472,591312 M0,296672 L3395472,296672 M0,0 L3395472,0 " stroke-width="16933.33" stroke-linejoin="round" stroke-miterlimit="13.33333" stroke="#bababa" fill="none" fill-rule="nonzero" /></g></g><g clip-path="url(#clip008)"><g transform="matrix(0.000656168,0,0,0.000656168,452,60)"><path d="M566928,2220976 L890016,2220976 L890016,2220976 L890016,2367280 L890016,2367280 L566928,2367280 ZM1050544,1918208 L1373632,1918208 L1373632,1918208 L1373632,2367280 L1373632,2367280 L1050544,2367280 ZM1536192,1621536 L1859280,1621536 L1859280,1621536 L1859280,2367280 L1859280,2367280 L1536192,2367280 ZM2021840,1509776 L2344928,1509776 L2344928,1509776 L2344928,2367280 L2344928,2367280 L2021840,2367280 ZM2505456,1617472 L2828544,1617472 L2828544,1617472 L2828544,2367280 L2828544,2367280 L2505456,2367280 ZM2991104,8136128 L3314192,8136128 L3314192,8136128 L3314192,2367280 L3314192,2367280 L2991104,2367280 Z" stroke-width="8466.667" stroke-linejoin="round" stroke-miterlimit="13.33333" stroke="#ffffff" fill="none" fill-rule="nonzero" /></g></g><g clip-path="url(#clip009)"><g transform="matrix(0.000656168,0,0,0.000656168,824,1318.667)"><path d="M0,0 L323088,0 L323088,302768 L0,302768 Z" fill="#00b050" fill-rule="evenodd" /><path d="M0,0 L323088,0 L323088,0 L323088,302768 L323088,302768 L0,302768 Z" stroke-width="8466.667" stroke-linejoin="round" stroke-miterlimit="13.33333" stroke="#ffffff" fill="none" fill-rule="nonzero" /></g></g><g clip-path="url(#clip010)"><g transform="matrix(0.000656168,0,0,0.000656168,1141.333,1124)"><path d="M0,0 L323088,0 L323088,296672 L0,296672 Z" fill="#00b050" fill-rule="evenodd" /><path d="M0,0 L323088,0 L323088,0 L323088,296672 L323088,296672 L0,296672 Z" stroke-width="8466.667" stroke-linejoin="round" stroke-miterlimit="13.33333" stroke="#ffffff" fill="none" fill-rule="nonzero" /></g></g><g clip-path="url(#clip011)"><g transform="matrix(0.000656168,0,0,0.000656168,1460,998.6667)"><path d="M0,0 L323088,0 L323088,191008 L0,191008 Z" fill="#00b050" fill-rule="evenodd" /><path d="M0,0 L323088,0 L323088,0 L323088,191008 L323088,191008 L0,191008 Z" stroke-width="8466.667" stroke-linejoin="round" stroke-miterlimit="13.33333" stroke="#ffffff" fill="none" fill-rule="nonzero" /></g></g><g clip-path="url(#clip012)"><g transform="matrix(0.000656168,0,0,0.000656168,1778.667,998.6667)"><path d="M0,0 L323088,0 L323088,79248 L0,79248 Z" fill="#ff0000" fill-rule="evenodd" /><path d="M0,0 L323088,0 L323088,0 L323088,79248 L323088,79248 L0,79248 Z" stroke-width="8466.667" stroke-linejoin="round" stroke-miterlimit="13.33333" stroke="#ffffff" fill="none" fill-rule="nonzero" /></g></g><g clip-path="url(#clip013)"><g transform="matrix(0.000656168,0,0,0.000656168,2096,1050.667)"><path d="M0,0 L323088,0 L323088,107696 L0,107696 Z" fill="#ff0000" fill-rule="evenodd" /><path d="M0,0 L323088,0 L323088,0 L323088,107696 L323088,107696 L0,107696 Z" stroke-width="8466.667" stroke-linejoin="round" stroke-miterlimit="13.33333" stroke="#ffffff" fill="none" fill-rule="nonzero" /></g></g><g clip-path="url(#clip014)"><g transform="matrix(0.000656168,0,0,0.000656168,452,60)"><path d="M81280,2220976 L404368,2220976 L404368,2220976 L404368,8136128 L404368,8136128 L81280,8136128 ZM2991104,1617472 L3314192,1617472 L3314192,1617472 L3314192,8136128 L3314192,8136128 L2991104,8136128 Z" fill="#009cde" fill-rule="nonzero" /><path d="M81280,2220976 L404368,2220976 L404368,2220976 L404368,8136128 L404368,8136128 L81280,8136128 ZM2991104,1617472 L3314192,1617472 L3314192,1617472 L3314192,8136128 L3314192,8136128 L2991104,8136128 Z" stroke-width="8466.667" stroke-linejoin="round" stroke-miterlimit="13.33333" stroke="#ffffff" fill="none" fill-rule="nonzero" /></g></g><g clip-path="url(#clip015)"><g transform="matrix(0.000656168,0,0,0.000656168,452,1613.333)"><g><path d="M0.002659751,-6773.333 L3395472,-6772 " stroke-width="3386.667" stroke-linejoin="round" stroke-miterlimit="13.33333" stroke="#000000" fill="none" fill-rule="evenodd" /><path d="M-0.001329876,3386.667 L3395472,3388 " stroke-width="10160" stroke-linejoin="round" stroke-miterlimit="13.33333" stroke="#000000" fill="none" fill-rule="evenodd" /></g></g></g><g><g clip-path="url(#clip016)"><g><g transform="translate(501.5341,1598.872)"><text><tspan x="0" y="0" font-family="Connections Cond Light,Arial Narrow" font-weight="normal" font-style="normal" font-size="105.3333" fill="#000000">3,998</tspan></text></g></g></g></g><g><g clip-path="url(#clip017)"><g><g transform="translate(852.979,1262.189)"><text><tspan x="0" y="0" font-family="Connections Cond Light,Arial Narrow" font-weight="normal" font-style="normal" font-size="105.3333" fill="#000000">206</tspan></text></g></g></g></g><g><g clip-path="url(#clip018)"><g><g transform="translate(1171.09,1065.217)"><text><tspan x="0" y="0" font-family="Connections Cond Light,Arial Narrow" font-weight="normal" font-style="normal" font-size="105.3333" fill="#000000">200</tspan></text></g></g></g></g><g><g clip-path="url(#clip019)"><g><g transform="translate(1489.202,952.2874)"><text><tspan x="0" y="0" font-family="Connections Cond Light,Arial Narrow" font-weight="normal" font-style="normal" font-size="105.3333" fill="#000000">130</tspan></text></g></g></g></g><g><g clip-path="url(#clip020)"><g><g transform="translate(1843.557,1186.731)"><text><tspan x="0" y="0" font-family="Connections Cond Light,Arial Narrow" font-weight="normal" font-style="normal" font-size="105.3333" fill="#000000">54</tspan></text></g></g></g></g><g><g clip-path="url(#clip021)"><g><g transform="translate(2150.758,1247.809)"><text><tspan x="0" y="0" font-family="Connections Cond Light,Arial Narrow" font-weight="normal" font-style="normal" font-size="105.3333" fill="#000000">73</tspan></text></g></g></g></g><g><g clip-path="url(#clip022)"><g><g transform="translate(2410.203,1400.623)"><text><tspan x="0" y="0" font-family="Connections Cond Light,Arial Narrow" font-weight="normal" font-style="normal" font-size="105.3333" fill="#000000">4,407</tspan></text></g></g></g></g><g><g clip-path="url(#clip023)"><g><g transform="translate(141.5897,1642.862)"><text><tspan x="0" y="0" font-family="Connections Cond Light,Arial Narrow" font-weight="normal" font-style="normal" font-size="105.3333" fill="#000000">3,900</tspan></text></g></g></g></g><g><g clip-path="url(#clip024)"><g><g transform="translate(141.5897,1448.716)"><text><tspan x="0" y="0" font-family="Connections Cond Light,Arial Narrow" font-weight="normal" font-style="normal" font-size="105.3333" fill="#000000">4,100</tspan></text></g></g></g></g><g><g clip-path="url(#clip025)"><g><g transform="translate(141.5897,1254.57)"><text><tspan x="0" y="0" font-family="Connections Cond Light,Arial Narrow" font-weight="normal" font-style="normal" font-size="105.3333" fill="#000000">4,300</tspan></text></g></g></g></g><g><g clip-path="url(#clip026)"><g><g transform="translate(141.5897,1060.424)"><text><tspan x="0" y="0" font-family="Connections Cond Light,Arial Narrow" font-weight="normal" font-style="normal" font-size="105.3333" fill="#000000">4,500</tspan></text></g></g></g></g><g><g clip-path="url(#clip027)"><g><g transform="translate(141.5897,866.2783)"><text><tspan x="0" y="0" font-family="Connections Cond Light,Arial Narrow" font-weight="normal" font-style="normal" font-size="105.3333" fill="#000000">4,700</tspan></text></g></g></g></g><g><g clip-path="url(#clip028)"><g><g transform="translate(141.5897,672.1321)"><text><tspan x="0" y="0" font-family="Connections Cond Light,Arial Narrow" font-weight="normal" font-style="normal" font-size="105.3333" fill="#000000">4,900</tspan></text></g></g></g></g><g><g clip-path="url(#clip029)"><g><g transform="translate(141.5897,477.986)"><text><tspan x="0" y="0" font-family="Connections Cond Light,Arial Narrow" font-weight="normal" font-style="normal" font-size="105.3333" fill="#000000">5,100</tspan></text></g></g></g></g><g><g clip-path="url(#clip030)"><g><g transform="translate(141.5897,283.8408)"><text><tspan x="0" y="0" font-family="Connections Cond Light,Arial Narrow" font-weight="normal" font-style="normal" font-size="105.3333" fill="#000000">5,300</tspan></text></g></g></g></g><g><g clip-path="url(#clip031)"><g><g transform="translate(141.5897,89.69466)"><text><tspan x="0" y="0" font-family="Connections Cond Light,Arial Narrow" font-weight="normal" font-style="normal" font-size="105.3333" fill="#000000">5,500</tspan></text></g></g></g></g><g><g clip-path="url(#clip032)"><g><g transform="translate(463.0341,1769.111)"><text><tspan x="0" y="0" font-family="Connections Cond Light,Arial Narrow" font-weight="normal" font-style="normal" font-size="105.3333" fill="#000000" style="white-space: pre"> 2020A</tspan></text></g></g></g></g><g><g clip-path="url(#clip033)"><g><g transform="translate(840.6457,1769.111)"><text><tspan x="0" y="0" font-family="Connections Cond Light,Arial Narrow" font-weight="normal" font-style="normal" font-size="105.3333" fill="#000000" style="white-space: pre"> Gas</tspan></text></g></g></g></g><g><g clip-path="url(#clip034)"><g><g transform="translate(1131.84,1769.111)"><text><tspan x="0" y="0" font-family="Connections Cond Light,Arial Narrow" font-weight="normal" font-style="normal" font-size="105.3333" fill="#000000" style="white-space: pre"> Solar</tspan></text></g></g></g></g><g><g clip-path="url(#clip035)"><g><g transform="translate(1444.285,1769.111)"><text><tspan x="0" y="0" font-family="Connections Cond Light,Arial Narrow" font-weight="normal" font-style="normal" font-size="105.3333" fill="#000000" style="white-space: pre"> Wind</tspan></text></g></g></g></g><g><g clip-path="url(#clip036)"><g><g transform="translate(1783.507,1769.111)"><text><tspan x="0" y="0" font-family="Connections Cond Light,Arial Narrow" font-weight="normal" font-style="normal" font-size="105.3333" fill="#000000" style="white-space: pre"> Coal</tspan></text></g></g></g></g><g><g clip-path="url(#clip037)"><g><g transform="translate(2070.341,1769.111)"><text><tspan x="0" y="0" font-family="Connections Cond Light,Arial Narrow" font-weight="normal" font-style="normal" font-size="105.3333" fill="#000000" style="white-space: pre"> Other</tspan></text></g></g></g></g><g><g clip-path="url(#clip038)"><g><g transform="translate(2371.702,1769.111)"><text><tspan x="0" y="0" font-family="Connections Cond Light,Arial Narrow" font-weight="normal" font-style="normal" font-size="105.3333" fill="#000000" style="white-space: pre"> 2025A</tspan></text></g></g></g></g><g><g clip-path="url(#clip039)"><g><g transform="matrix(0,-1,1,0,161.1116,1270.861)"><text><tspan x="0" y="0" font-family="Connections Cond Bld,Arial Narrow" font-weight="normal" font-style="normal" font-size="105.3333" fill="#000000">US generation (TWh)</tspan></text></g></g></g></g><g /></g></g></g></g></g></g></g></g></g></svg>