<?xml version="1.0" encoding="UTF-8" standalone="no"?>
<svg xmlns:dc="http://purl.org/dc/elements/1.1/" xmlns:cc="http://creativecommons.org/ns#" xmlns:rdf="http://www.w3.org/1999/02/22-rdf-syntax-ns#" xmlns:svg="http://www.w3.org/2000/svg" xmlns="http://www.w3.org/2000/svg" viewBox="63 346.5125 639.2475 297" height="297" width="639.2475" xml:space="preserve" version="1.1" id="svg2">
  <metadata id="metadata8">
    <rdf:RDF>
      <cc:Work rdf:about="">
        <dc:format>image/svg+xml</dc:format>
        <dc:type rdf:resource="http://purl.org/dc/dcmitype/StillImage"/>
      </cc:Work>
    </rdf:RDF>
  </metadata>
  <defs id="defs6">
    <clipPath id="clipPath16" clipPathUnits="userSpaceOnUse">
      <path style="clip-rule:evenodd" id="path18" d="m 50.28,277.2 511.44,0 0,237.6 -511.44,0 0,-237.6 z"/>
    </clipPath>
    <clipPath id="clipPath26" clipPathUnits="userSpaceOnUse">
      <path style="clip-rule:evenodd" id="path28" d="m 50.28,277.2 511.44,0 0,237.6 -511.44,0 0,-237.6 z"/>
    </clipPath>
    <clipPath id="clipPath50" clipPathUnits="userSpaceOnUse">
      <path style="clip-rule:evenodd" id="path52" d="m 50.4,277.2 511.32,0 0,237.48 -511.32,0 0,-237.48 z"/>
    </clipPath>
    <clipPath id="clipPath62" clipPathUnits="userSpaceOnUse">
      <path style="clip-rule:evenodd" id="path64" d="m 50.4,277.2 511.32,0 0,237.48 -511.32,0 0,-237.48 z"/>
    </clipPath>
    <clipPath id="clipPath74" clipPathUnits="userSpaceOnUse">
      <path style="clip-rule:evenodd" id="path76" d="m 50.4,277.2 511.32,0 0,237.48 -511.32,0 0,-237.48 z"/>
    </clipPath>
    <clipPath id="clipPath86" clipPathUnits="userSpaceOnUse">
      <path style="clip-rule:evenodd" id="path88" d="m 50.4,277.2 511.32,0 0,237.48 -511.32,0 0,-237.48 z"/>
    </clipPath>
    <clipPath id="clipPath98" clipPathUnits="userSpaceOnUse">
      <path style="clip-rule:evenodd" id="path100" d="m 50.4,277.2 511.32,0 0,237.48 -511.32,0 0,-237.48 z"/>
    </clipPath>
    <clipPath id="clipPath110" clipPathUnits="userSpaceOnUse">
      <path style="clip-rule:evenodd" id="path112" d="m 50.4,277.2 511.32,0 0,237.48 -511.32,0 0,-237.48 z"/>
    </clipPath>
    <clipPath id="clipPath122" clipPathUnits="userSpaceOnUse">
      <path style="clip-rule:evenodd" id="path124" d="m 50.4,277.2 511.32,0 0,237.48 -511.32,0 0,-237.48 z"/>
    </clipPath>
    <clipPath id="clipPath134" clipPathUnits="userSpaceOnUse">
      <path style="clip-rule:evenodd" id="path136" d="m 50.4,277.2 511.32,0 0,237.48 -511.32,0 0,-237.48 z"/>
    </clipPath>
    <clipPath id="clipPath146" clipPathUnits="userSpaceOnUse">
      <path style="clip-rule:evenodd" id="path148" d="m 50.4,277.2 511.32,0 0,237.48 -511.32,0 0,-237.48 z"/>
    </clipPath>
    <clipPath id="clipPath158" clipPathUnits="userSpaceOnUse">
      <path style="clip-rule:evenodd" id="path160" d="m 50.4,277.2 511.32,0 0,237.48 -511.32,0 0,-237.48 z"/>
    </clipPath>
    <clipPath id="clipPath170" clipPathUnits="userSpaceOnUse">
      <path style="clip-rule:evenodd" id="path172" d="m 50.4,277.2 511.32,0 0,237.48 -511.32,0 0,-237.48 z"/>
    </clipPath>
    <clipPath id="clipPath182" clipPathUnits="userSpaceOnUse">
      <path style="clip-rule:evenodd" id="path184" d="m 50.4,277.2 511.32,0 0,237.48 -511.32,0 0,-237.48 z"/>
    </clipPath>
    <clipPath id="clipPath194" clipPathUnits="userSpaceOnUse">
      <path style="clip-rule:evenodd" id="path196" d="m 50.4,277.2 511.32,0 0,237.48 -511.32,0 0,-237.48 z"/>
    </clipPath>
    <clipPath id="clipPath206" clipPathUnits="userSpaceOnUse">
      <path style="clip-rule:evenodd" id="path208" d="m 50.4,277.2 511.32,0 0,237.48 -511.32,0 0,-237.48 z"/>
    </clipPath>
    <clipPath id="clipPath218" clipPathUnits="userSpaceOnUse">
      <path style="clip-rule:evenodd" id="path220" d="m 50.4,277.2 511.32,0 0,237.48 -511.32,0 0,-237.48 z"/>
    </clipPath>
    <clipPath id="clipPath230" clipPathUnits="userSpaceOnUse">
      <path style="clip-rule:evenodd" id="path232" d="m 50.4,277.2 511.32,0 0,237.48 -511.32,0 0,-237.48 z"/>
    </clipPath>
    <clipPath id="clipPath242" clipPathUnits="userSpaceOnUse">
      <path style="clip-rule:evenodd" id="path244" d="m 50.4,277.2 511.32,0 0,237.48 -511.32,0 0,-237.48 z"/>
    </clipPath>
    <clipPath id="clipPath254" clipPathUnits="userSpaceOnUse">
      <path style="clip-rule:evenodd" id="path256" d="m 50.4,277.2 511.32,0 0,237.48 -511.32,0 0,-237.48 z"/>
    </clipPath>
    <clipPath id="clipPath266" clipPathUnits="userSpaceOnUse">
      <path style="clip-rule:evenodd" id="path268" d="m 50.4,277.2 511.32,0 0,237.48 -511.32,0 0,-237.48 z"/>
    </clipPath>
    <clipPath id="clipPath278" clipPathUnits="userSpaceOnUse">
      <path style="clip-rule:evenodd" id="path280" d="m 50.4,277.2 511.32,0 0,237.48 -511.32,0 0,-237.48 z"/>
    </clipPath>
    <clipPath id="clipPath290" clipPathUnits="userSpaceOnUse">
      <path style="clip-rule:evenodd" id="path292" d="m 50.4,277.2 511.32,0 0,237.48 -511.32,0 0,-237.48 z"/>
    </clipPath>
    <clipPath id="clipPath302" clipPathUnits="userSpaceOnUse">
      <path style="clip-rule:evenodd" id="path304" d="m 50.4,277.2 511.32,0 0,237.48 -511.32,0 0,-237.48 z"/>
    </clipPath>
    <clipPath id="clipPath314" clipPathUnits="userSpaceOnUse">
      <path style="clip-rule:evenodd" id="path316" d="m 50.4,277.2 511.32,0 0,237.48 -511.32,0 0,-237.48 z"/>
    </clipPath>
    <clipPath id="clipPath326" clipPathUnits="userSpaceOnUse">
      <path style="clip-rule:evenodd" id="path328" d="m 50.4,277.2 511.32,0 0,237.48 -511.32,0 0,-237.48 z"/>
    </clipPath>
    <clipPath id="clipPath338" clipPathUnits="userSpaceOnUse">
      <path style="clip-rule:evenodd" id="path340" d="m 50.4,277.2 511.32,0 0,237.48 -511.32,0 0,-237.48 z"/>
    </clipPath>
    <clipPath id="clipPath350" clipPathUnits="userSpaceOnUse">
      <path style="clip-rule:evenodd" id="path352" d="m 50.4,277.2 511.32,0 0,237.48 -511.32,0 0,-237.48 z"/>
    </clipPath>
    <clipPath id="clipPath362" clipPathUnits="userSpaceOnUse">
      <path style="clip-rule:evenodd" id="path364" d="m 50.4,277.2 511.32,0 0,237.48 -511.32,0 0,-237.48 z"/>
    </clipPath>
    <clipPath id="clipPath374" clipPathUnits="userSpaceOnUse">
      <path style="clip-rule:evenodd" id="path376" d="m 50.4,277.2 511.32,0 0,237.48 -511.32,0 0,-237.48 z"/>
    </clipPath>
    <clipPath id="clipPath386" clipPathUnits="userSpaceOnUse">
      <path style="clip-rule:evenodd" id="path388" d="m 50.4,277.2 511.32,0 0,237.48 -511.32,0 0,-237.48 z"/>
    </clipPath>
    <clipPath id="clipPath398" clipPathUnits="userSpaceOnUse">
      <path style="clip-rule:evenodd" id="path400" d="m 50.4,277.2 511.32,0 0,237.48 -511.32,0 0,-237.48 z"/>
    </clipPath>
    <clipPath id="clipPath410" clipPathUnits="userSpaceOnUse">
      <path style="clip-rule:evenodd" id="path412" d="m 50.4,277.2 511.32,0 0,237.48 -511.32,0 0,-237.48 z"/>
    </clipPath>
    <clipPath id="clipPath422" clipPathUnits="userSpaceOnUse">
      <path style="clip-rule:evenodd" id="path424" d="m 50.4,277.2 511.32,0 0,237.48 -511.32,0 0,-237.48 z"/>
    </clipPath>
    <clipPath id="clipPath434" clipPathUnits="userSpaceOnUse">
      <path style="clip-rule:evenodd" id="path436" d="m 50.4,277.2 511.32,0 0,237.48 -511.32,0 0,-237.48 z"/>
    </clipPath>
    <clipPath id="clipPath446" clipPathUnits="userSpaceOnUse">
      <path style="clip-rule:evenodd" id="path448" d="m 50.4,277.2 511.32,0 0,237.48 -511.32,0 0,-237.48 z"/>
    </clipPath>
    <clipPath id="clipPath458" clipPathUnits="userSpaceOnUse">
      <path style="clip-rule:evenodd" id="path460" d="m 50.4,277.2 511.32,0 0,237.48 -511.32,0 0,-237.48 z"/>
    </clipPath>
    <clipPath id="clipPath470" clipPathUnits="userSpaceOnUse">
      <path style="clip-rule:evenodd" id="path472" d="m 50.4,277.2 511.32,0 0,237.48 -511.32,0 0,-237.48 z"/>
    </clipPath>
    <clipPath id="clipPath482" clipPathUnits="userSpaceOnUse">
      <path style="clip-rule:evenodd" id="path484" d="m 50.4,277.2 511.32,0 0,237.48 -511.32,0 0,-237.48 z"/>
    </clipPath>
    <clipPath id="clipPath494" clipPathUnits="userSpaceOnUse">
      <path style="clip-rule:evenodd" id="path496" d="m 50.4,277.2 511.32,0 0,237.48 -511.32,0 0,-237.48 z"/>
    </clipPath>
    <clipPath id="clipPath506" clipPathUnits="userSpaceOnUse">
      <path style="clip-rule:evenodd" id="path508" d="m 50.4,277.2 511.32,0 0,237.48 -511.32,0 0,-237.48 z"/>
    </clipPath>
    <clipPath id="clipPath518" clipPathUnits="userSpaceOnUse">
      <path style="clip-rule:evenodd" id="path520" d="m 50.4,277.2 511.32,0 0,237.48 -511.32,0 0,-237.48 z"/>
    </clipPath>
    <clipPath id="clipPath530" clipPathUnits="userSpaceOnUse">
      <path style="clip-rule:evenodd" id="path532" d="m 50.4,277.2 511.32,0 0,237.48 -511.32,0 0,-237.48 z"/>
    </clipPath>
    <clipPath id="clipPath542" clipPathUnits="userSpaceOnUse">
      <path style="clip-rule:evenodd" id="path544" d="m 50.4,277.2 511.32,0 0,237.48 -511.32,0 0,-237.48 z"/>
    </clipPath>
    <clipPath id="clipPath554" clipPathUnits="userSpaceOnUse">
      <path style="clip-rule:evenodd" id="path556" d="m 50.4,277.2 511.32,0 0,237.48 -511.32,0 0,-237.48 z"/>
    </clipPath>
    <clipPath id="clipPath566" clipPathUnits="userSpaceOnUse">
      <path style="clip-rule:evenodd" id="path568" d="m 50.4,277.2 511.32,0 0,237.48 -511.32,0 0,-237.48 z"/>
    </clipPath>
    <clipPath id="clipPath578" clipPathUnits="userSpaceOnUse">
      <path style="clip-rule:evenodd" id="path580" d="m 256.68,463.68 305.04,0 0,20.76 -305.04,0 0,-20.76 z"/>
    </clipPath>
    <clipPath id="clipPath590" clipPathUnits="userSpaceOnUse">
      <path style="clip-rule:evenodd" id="path592" d="m 50.4,277.2 511.32,0 0,237.48 -511.32,0 0,-237.48 z"/>
    </clipPath>
    <clipPath id="clipPath602" clipPathUnits="userSpaceOnUse">
      <path style="clip-rule:evenodd" id="path604" d="m 50.4,277.2 511.32,0 0,237.48 -511.32,0 0,-237.48 z"/>
    </clipPath>
  </defs>
  <g transform="matrix(1.25,0,0,-1.25,0,990)" id="g10">
    <g id="g12">
      <g clip-path="url(#clipPath16)" id="g14">
        <path id="path20" style="fill:none;stroke:#000000;stroke-width:0.14;stroke-linecap:butt;stroke-linejoin:miter;stroke-miterlimit:10;stroke-dasharray:none;stroke-opacity:0" d="m 50.392,277.19 511.29,0 0,237.53 -511.29,0 0,-237.53 z"/>
      </g>
    </g>
    <g id="g22">
      <g clip-path="url(#clipPath26)" id="g24">
        <path id="path30" style="fill:#ffffff;fill-opacity:1;fill-rule:evenodd;stroke:none" d="m 50.392,277.19 511.29,0 0,237.53 -511.29,0 0,-237.53 z"/>
      </g>
    </g>
    <path id="path32" style="fill:#4aac6b;fill-opacity:1;fill-rule:nonzero;stroke:none" d="m 93.049,389.42 7.011,0 0,26.87 -7.011,0 0,-26.87 z m 17.601,-3.17 7.15,0 0,30.04 -7.15,0 0,-30.04 z m 17.74,-2.38 7.01,0 0,32.42 -7.01,0 0,-32.42 z m 17.6,-5.3 7.15,0 0,37.72 -7.15,0 0,-37.72 z m 17.74,32.56 7.01,0 0,5.16 -7.01,0 0,-5.16 z m 17.6,-5.03 7.15,0 0,10.19 -7.15,0 0,-10.19 z m 17.74,17.87 7.01,0 0,-7.68 -7.01,0 0,7.68 z m 17.6,12.31 7.15,0 0,-19.99 -7.15,0 0,19.99 z m 17.74,30.71 7.01,0 0,-50.7 -7.01,0 0,50.7 z m 17.6,-56.65 7.15,0 0,5.95 -7.15,0 0,-5.95 z m 17.74,-47.52 7.02,0 0,53.47 -7.02,0 0,-53.47 z m 17.6,-17.47 7.02,0 0,70.94 -7.02,0 0,-70.94 z m 17.74,25.01 7.02,0 0,45.93 -7.02,0 0,-45.93 z m 17.6,8.74 7.02,0 0,37.19 -7.02,0 0,-37.19 z m 17.74,11.25 7.02,0 0,25.94 -7.02,0 0,-25.94 z m 17.6,9.13 7.02,0 0,16.81 -7.02,0 0,-16.81 z m 17.61,3.45 7.15,0 0,13.36 -7.15,0 0,-13.36 z m 17.73,-12.71 7.02,0 0,26.07 -7.02,0 0,-26.07 z m 17.61,-27.66 7.15,0 0,53.73 -7.15,0 0,-53.73 z m 17.73,-21.58 7.02,0 0,75.31 -7.02,0 0,-75.31 z m 17.61,42.89 7.15,0 0,32.42 -7.15,0 0,-32.42 z m 17.73,-6.62 7.02,0 0,39.04 -7.02,0 0,-39.04 z m 17.61,-1.99 7.15,0 0,41.03 -7.15,0 0,-41.03 z m 17.74,10.06 7.01,0 0,30.97 -7.01,0 0,-30.97 z"/>
    <path id="path34" style="fill:none;stroke:#868686;stroke-width:0.82725;stroke-linecap:butt;stroke-linejoin:round;stroke-miterlimit:10;stroke-dasharray:none;stroke-opacity:1" d="m 511.73,312.36 0.01,181.84"/>
    <path id="path36" style="fill:none;stroke:#868686;stroke-width:0.82725;stroke-linecap:butt;stroke-linejoin:round;stroke-miterlimit:10;stroke-dasharray:none;stroke-opacity:1" d="m 511.73,312.36 2.8,0 m -2.8,18.16 2.8,0 m -2.8,18.27 2.8,0 m -2.8,18.13 2.8,0 m -2.8,18.14 2.8,0 m -2.8,18.26 2.8,0 m -2.8,18.14 2.8,0 m -2.8,18.13 2.8,0 m -2.8,18.27 2.8,0 m -2.8,18.13 2.8,0 m -2.8,18.21 2.8,0"/>
    <path id="path38" style="fill:none;stroke:#808080;stroke-width:0.82725;stroke-linecap:butt;stroke-linejoin:round;stroke-miterlimit:10;stroke-dasharray:none;stroke-opacity:1" d="m 87.735,416.27 423.995,0"/>
    <path id="path40" style="fill:none;stroke:#808080;stroke-width:0.82725;stroke-linecap:butt;stroke-linejoin:round;stroke-miterlimit:10;stroke-dasharray:none;stroke-opacity:1" d="m 87.735,416.27 0,-2.8 m 17.625,2.8 0,-2.8 m 17.73,2.8 0,-2.8 m 17.61,2.8 0,-2.8 m 17.74,2.8 0,-2.8 m 17.6,2.8 0,-2.8 m 17.74,2.8 0,-2.8 m 17.6,2.8 0,-2.8 m 17.74,2.8 0,-2.8 m 17.6,2.8 0,-2.8 m 17.74,2.8 0,-2.8 m 17.6,2.8 0,-2.8 m 17.74,2.8 0,-2.8 m 17.6,2.8 0,-2.8 m 17.6,2.8 0,-2.8 m 17.74,2.8 0,-2.8 m 17.6,2.8 0,-2.8 m 17.74,2.8 0,-2.8 m 17.6,2.8 0,-2.8 m 17.74,2.8 0,-2.8 m 17.6,2.8 0,-2.8 m 17.74,2.8 0,-2.8 m 17.6,2.8 0,-2.8 m 17.74,2.8 0,-2.8 m 17.63,2.8 0,-2.8"/>
    <path id="path42" style="fill:none;stroke:#e7c97a;stroke-width:2.48180008;stroke-linecap:round;stroke-linejoin:round;stroke-miterlimit:10;stroke-dasharray:none;stroke-opacity:1" d="m 96.568,361.44 17.662,1.65 17.73,2.64 17.61,4.63 17.6,5.3 17.74,2.91 17.6,3.58 17.74,2.91 17.6,-0.14 17.74,-6.88 17.6,-8.07 17.74,1.45 17.6,7.02 17.74,9.79 17.6,6.36 17.74,11.78 17.6,2.64 17.74,7.15 17.6,4.1 17.74,-11.25 17.6,24.23 17.74,5.95 17.6,5.3 17.67,11"/>
    <path id="path44" style="fill:none;stroke:#137cb1;stroke-width:2.48180008;stroke-linecap:round;stroke-linejoin:round;stroke-miterlimit:10;stroke-dasharray:none;stroke-opacity:1" d="m 96.568,370.23 17.662,3.05 17.73,3.97 17.61,7.67 17.6,-7.54 17.74,5.03 17.6,-3.18 17.74,-1.32 17.6,-9.26 17.74,11.64 17.6,11.65 17.74,11.91 17.6,-5.29 17.74,7.01 17.6,1.06 17.74,8.08 17.6,1.05 17.74,14.96 17.6,24.75 17.74,4.11 17.6,-5.17 17.74,11.92 17.6,8.07 17.67,4.12"/>
    <g id="g46">
      <g clip-path="url(#clipPath50)" id="g48"><text id="text54" style="font-variant:normal;font-weight:bold;font-size:8.88000011px;font-family:Calibri;-inkscape-font-specification:Calibri-Bold;writing-mode:lr-tb;fill:#000000;fill-opacity:1;fill-rule:nonzero;stroke:none" transform="matrix(1,0,0,-1,522.00136,309.82)"><tspan id="tspan56" y="0" x="0 4.5021601 8.9776802 11.20656 15.70872 20.059919">15,000</tspan></text>
</g>
    </g>
    <g id="g58">
      <g clip-path="url(#clipPath62)" id="g60"><text id="text66" style="font-variant:normal;font-weight:bold;font-size:8.88000011px;font-family:Calibri;-inkscape-font-specification:Calibri-Bold;writing-mode:lr-tb;fill:#000000;fill-opacity:1;fill-rule:nonzero;stroke:none" transform="matrix(1,0,0,-1,522.00136,328.01)"><tspan id="tspan68" y="0" x="0 4.5021601 8.9776802 11.20656 15.70872 20.059919">25,000</tspan></text>
</g>
    </g>
    <g id="g70">
      <g clip-path="url(#clipPath74)" id="g72"><text id="text78" style="font-variant:normal;font-weight:bold;font-size:8.88000011px;font-family:Calibri;-inkscape-font-specification:Calibri-Bold;writing-mode:lr-tb;fill:#000000;fill-opacity:1;fill-rule:nonzero;stroke:none" transform="matrix(1,0,0,-1,522.00136,346.2)"><tspan id="tspan80" y="0" x="0 4.5021601 8.9776802 11.20656 15.70872 20.059919">35,000</tspan></text>
</g>
    </g>
    <g id="g82">
      <g clip-path="url(#clipPath86)" id="g84"><text id="text90" style="font-variant:normal;font-weight:bold;font-size:8.88000011px;font-family:Calibri;-inkscape-font-specification:Calibri-Bold;writing-mode:lr-tb;fill:#000000;fill-opacity:1;fill-rule:nonzero;stroke:none" transform="matrix(1,0,0,-1,522.00136,364.39)"><tspan id="tspan92" y="0" x="0 4.5021601 8.9776802 11.20656 15.70872 20.059919">45,000</tspan></text>
</g>
    </g>
    <g id="g94">
      <g clip-path="url(#clipPath98)" id="g96"><text id="text102" style="font-variant:normal;font-weight:bold;font-size:8.85599995px;font-family:Calibri;-inkscape-font-specification:Calibri-Bold;writing-mode:lr-tb;fill:#000000;fill-opacity:1;fill-rule:nonzero;stroke:none" transform="matrix(1,0,0,-1,521.99603,382.56)"><tspan id="tspan104" y="0" x="0 4.4899921 8.9799843 11.211696 15.701688 20.067696">55,000</tspan></text>
</g>
    </g>
    <g id="g106">
      <g clip-path="url(#clipPath110)" id="g108"><text id="text114" style="font-variant:normal;font-weight:bold;font-size:8.85599995px;font-family:Calibri;-inkscape-font-specification:Calibri-Bold;writing-mode:lr-tb;fill:#000000;fill-opacity:1;fill-rule:nonzero;stroke:none" transform="matrix(1,0,0,-1,521.99603,400.75)"><tspan id="tspan116" y="0" x="0 4.4899921 8.9799843 11.211696 15.701688 20.067696">65,000</tspan></text>
</g>
    </g>
    <g id="g118">
      <g clip-path="url(#clipPath122)" id="g120"><text id="text126" style="font-variant:normal;font-weight:bold;font-size:8.88000011px;font-family:Calibri;-inkscape-font-specification:Calibri-Bold;writing-mode:lr-tb;fill:#000000;fill-opacity:1;fill-rule:nonzero;stroke:none" transform="matrix(1,0,0,-1,522.00136,418.94)"><tspan id="tspan128" y="0" x="0 4.5021601 8.9776802 11.20656 15.70872 20.059919">75,000</tspan></text>
</g>
    </g>
    <g id="g130">
      <g clip-path="url(#clipPath134)" id="g132"><text id="text138" style="font-variant:normal;font-weight:bold;font-size:8.88000011px;font-family:Calibri;-inkscape-font-specification:Calibri-Bold;writing-mode:lr-tb;fill:#000000;fill-opacity:1;fill-rule:nonzero;stroke:none" transform="matrix(1,0,0,-1,522.00136,437.14)"><tspan id="tspan140" y="0" x="0 4.5021601 8.9776802 11.20656 15.70872 20.059919">85,000</tspan></text>
</g>
    </g>
    <g id="g142">
      <g clip-path="url(#clipPath146)" id="g144"><text id="text150" style="font-variant:normal;font-weight:bold;font-size:8.88000011px;font-family:Calibri;-inkscape-font-specification:Calibri-Bold;writing-mode:lr-tb;fill:#000000;fill-opacity:1;fill-rule:nonzero;stroke:none" transform="matrix(1,0,0,-1,522.00136,455.33)"><tspan id="tspan152" y="0" x="0 4.5021601 8.9776802 11.20656 15.70872 20.059919">95,000</tspan></text>
</g>
    </g>
    <g id="g154">
      <g clip-path="url(#clipPath158)" id="g156"><text id="text162" style="font-variant:normal;font-weight:bold;font-size:8.85599995px;font-family:Calibri;-inkscape-font-specification:Calibri-Bold;writing-mode:lr-tb;fill:#000000;fill-opacity:1;fill-rule:nonzero;stroke:none" transform="matrix(1,0,0,-1,521.99603,473.5)"><tspan id="tspan164" y="0" x="0 4.4899921 8.9799843 13.345992 15.710544 20.076551 24.566544">105,000</tspan></text>
</g>
    </g>
    <g id="g166">
      <g clip-path="url(#clipPath170)" id="g168"><text id="text174" style="font-variant:normal;font-weight:bold;font-size:8.85599995px;font-family:Calibri;-inkscape-font-specification:Calibri-Bold;writing-mode:lr-tb;fill:#000000;fill-opacity:1;fill-rule:nonzero;stroke:none" transform="matrix(1,0,0,-1,521.99603,491.69)"><tspan id="tspan176" y="0" x="0 4.4899921 8.9799843 13.345992 15.710544 20.076551 24.566544">115,000</tspan></text>
</g>
    </g>
    <g id="g178">
      <g clip-path="url(#clipPath182)" id="g180"><text id="text186" style="font-variant:normal;font-weight:bold;font-size:8.88000011px;font-family:Calibri;-inkscape-font-specification:Calibri-Bold;writing-mode:lr-tb;fill:#000000;fill-opacity:1;fill-rule:nonzero;stroke:none" transform="matrix(1,0,0,-1,61.488,309.82)"><tspan id="tspan188" y="0" x="0 2.6373601 7.1395202 11.61504">-40%</tspan></text>
</g>
    </g>
    <g id="g190">
      <g clip-path="url(#clipPath194)" id="g192"><text id="text198" style="font-variant:normal;font-weight:bold;font-size:8.88000011px;font-family:Calibri;-inkscape-font-specification:Calibri-Bold;writing-mode:lr-tb;fill:#000000;fill-opacity:1;fill-rule:nonzero;stroke:none" transform="matrix(1,0,0,-1,61.488,335.81)"><tspan id="tspan200" y="0" x="0 2.6373601 7.1395202 11.61504">-30%</tspan></text>
</g>
    </g>
    <g id="g202">
      <g clip-path="url(#clipPath206)" id="g204"><text id="text210" style="font-variant:normal;font-weight:bold;font-size:8.85599995px;font-family:Calibri;-inkscape-font-specification:Calibri-Bold;writing-mode:lr-tb;fill:#000000;fill-opacity:1;fill-rule:nonzero;stroke:none" transform="matrix(1,0,0,-1,61.488,361.78)"><tspan id="tspan212" y="0" x="0 2.6390879 7.1290798 11.619072">-20%</tspan></text>
</g>
    </g>
    <g id="g214">
      <g clip-path="url(#clipPath218)" id="g216"><text id="text222" style="font-variant:normal;font-weight:bold;font-size:8.88000011px;font-family:Calibri;-inkscape-font-specification:Calibri-Bold;writing-mode:lr-tb;fill:#000000;fill-opacity:1;fill-rule:nonzero;stroke:none" transform="matrix(1,0,0,-1,61.488,387.77)"><tspan id="tspan224" y="0" x="0 2.6373601 7.1395202 11.61504">-10%</tspan></text>
</g>
    </g>
    <g id="g226">
      <g clip-path="url(#clipPath230)" id="g228"><text id="text234" style="font-variant:normal;font-weight:bold;font-size:8.85599995px;font-family:Calibri;-inkscape-font-specification:Calibri-Bold;writing-mode:lr-tb;fill:#000000;fill-opacity:1;fill-rule:nonzero;stroke:none" transform="matrix(1,0,0,-1,68.664,413.74)"><tspan id="tspan236" y="0" x="0 4.4880018">0%</tspan></text>
</g>
    </g>
    <g id="g238">
      <g clip-path="url(#clipPath242)" id="g240"><text id="text246" style="font-variant:normal;font-weight:bold;font-size:8.85599995px;font-family:Calibri;-inkscape-font-specification:Calibri-Bold;writing-mode:lr-tb;fill:#000000;fill-opacity:1;fill-rule:nonzero;stroke:none" transform="matrix(1,0,0,-1,64.176,439.73)"><tspan id="tspan248" y="0" x="0 4.511992 9.023984">10%</tspan></text>
</g>
    </g>
    <g id="g250">
      <g clip-path="url(#clipPath254)" id="g252"><text id="text258" style="font-variant:normal;font-weight:bold;font-size:8.88000011px;font-family:Calibri;-inkscape-font-specification:Calibri-Bold;writing-mode:lr-tb;fill:#000000;fill-opacity:1;fill-rule:nonzero;stroke:none" transform="matrix(1,0,0,-1,64.176,465.72)"><tspan id="tspan260" y="0" x="0 4.5120001 9.0240002">20%</tspan></text>
</g>
    </g>
    <g id="g262">
      <g clip-path="url(#clipPath266)" id="g264"><text id="text270" style="font-variant:normal;font-weight:bold;font-size:8.85599995px;font-family:Calibri;-inkscape-font-specification:Calibri-Bold;writing-mode:lr-tb;fill:#000000;fill-opacity:1;fill-rule:nonzero;stroke:none" transform="matrix(1,0,0,-1,64.176,491.69)"><tspan id="tspan272" y="0" x="0 4.511992 9.023984">30%</tspan></text>
</g>
    </g>
    <g id="g274">
      <g clip-path="url(#clipPath278)" id="g276"><text id="text282" style="font-variant:normal;font-weight:bold;font-size:8.88000011px;font-family:Calibri;-inkscape-font-specification:Calibri-Bold;writing-mode:lr-tb;fill:#000000;fill-opacity:1;fill-rule:nonzero;stroke:none" transform="matrix(-4.4e-8,1,1,4.4e-8,99.528,285.19136)"><tspan id="tspan284" y="0" x="0 4.5021601 10.55832 14.92728">1Q21</tspan></text>
</g>
    </g>
    <g id="g286">
      <g clip-path="url(#clipPath290)" id="g288"><text id="text294" style="font-variant:normal;font-weight:bold;font-size:8.85599995px;font-family:Calibri;-inkscape-font-specification:Calibri-Bold;writing-mode:lr-tb;fill:#000000;fill-opacity:1;fill-rule:nonzero;stroke:none" transform="matrix(-4.4e-8,1,1,4.4e-8,117.22,285.18603)"><tspan id="tspan296" y="0" x="0 4.4899921 10.565208 14.931216">2Q21</tspan></text>
</g>
    </g>
    <g id="g298">
      <g clip-path="url(#clipPath302)" id="g300"><text id="text306" style="font-variant:normal;font-weight:bold;font-size:8.85599995px;font-family:Calibri;-inkscape-font-specification:Calibri-Bold;writing-mode:lr-tb;fill:#000000;fill-opacity:1;fill-rule:nonzero;stroke:none" transform="matrix(-4.4e-8,1,1,4.4e-8,134.88,285.18603)"><tspan id="tspan308" y="0" x="0 4.4899921 10.565208 14.931216">3Q21</tspan></text>
</g>
    </g>
    <g id="g310">
      <g clip-path="url(#clipPath314)" id="g312"><text id="text318" style="font-variant:normal;font-weight:bold;font-size:8.88000011px;font-family:Calibri;-inkscape-font-specification:Calibri-Bold;writing-mode:lr-tb;fill:#000000;fill-opacity:1;fill-rule:nonzero;stroke:none" transform="matrix(-4.4e-8,1,1,4.4e-8,152.54,285.19136)"><tspan id="tspan320" y="0" x="0 4.5021601 10.55832 14.92728">4Q21</tspan></text>
</g>
    </g>
    <g id="g322">
      <g clip-path="url(#clipPath326)" id="g324"><text id="text330" style="font-variant:normal;font-weight:bold;font-size:8.88000011px;font-family:Calibri;-inkscape-font-specification:Calibri-Bold;writing-mode:lr-tb;fill:#000000;fill-opacity:1;fill-rule:nonzero;stroke:none" transform="matrix(-4.4e-8,1,1,4.4e-8,170.21,285.19136)"><tspan id="tspan332" y="0" x="0 4.5021601 10.55832 14.92728">1Q22</tspan></text>
</g>
    </g>
    <g id="g334">
      <g clip-path="url(#clipPath338)" id="g336"><text id="text342" style="font-variant:normal;font-weight:bold;font-size:8.85599995px;font-family:Calibri;-inkscape-font-specification:Calibri-Bold;writing-mode:lr-tb;fill:#000000;fill-opacity:1;fill-rule:nonzero;stroke:none" transform="matrix(-4.4e-8,1,1,4.4e-8,187.9,285.18603)"><tspan id="tspan344" y="0" x="0 4.4899921 10.565208 14.931216">2Q22</tspan></text>
</g>
    </g>
    <g id="g346">
      <g clip-path="url(#clipPath350)" id="g348"><text id="text354" style="font-variant:normal;font-weight:bold;font-size:8.85599995px;font-family:Calibri;-inkscape-font-specification:Calibri-Bold;writing-mode:lr-tb;fill:#000000;fill-opacity:1;fill-rule:nonzero;stroke:none" transform="matrix(-4.4e-8,1,1,4.4e-8,205.56,285.18603)"><tspan id="tspan356" y="0" x="0 4.4899921 10.565208 14.931216">3Q22</tspan></text>
</g>
    </g>
    <g id="g358">
      <g clip-path="url(#clipPath362)" id="g360"><text id="text366" style="font-variant:normal;font-weight:bold;font-size:8.88000011px;font-family:Calibri;-inkscape-font-specification:Calibri-Bold;writing-mode:lr-tb;fill:#000000;fill-opacity:1;fill-rule:nonzero;stroke:none" transform="matrix(-4.4e-8,1,1,4.4e-8,223.22,285.19136)"><tspan id="tspan368" y="0" x="0 4.5021601 10.55832 14.92728">4Q22</tspan></text>
</g>
    </g>
    <g id="g370">
      <g clip-path="url(#clipPath374)" id="g372"><text id="text378" style="font-variant:normal;font-weight:bold;font-size:8.88000011px;font-family:Calibri;-inkscape-font-specification:Calibri-Bold;writing-mode:lr-tb;fill:#000000;fill-opacity:1;fill-rule:nonzero;stroke:none" transform="matrix(-4.4e-8,1,1,4.4e-8,240.89,285.19136)"><tspan id="tspan380" y="0" x="0 4.5021601 10.55832 14.92728">1Q23</tspan></text>
</g>
    </g>
    <g id="g382">
      <g clip-path="url(#clipPath386)" id="g384"><text id="text390" style="font-variant:normal;font-weight:bold;font-size:8.85599995px;font-family:Calibri;-inkscape-font-specification:Calibri-Bold;writing-mode:lr-tb;fill:#000000;fill-opacity:1;fill-rule:nonzero;stroke:none" transform="matrix(-4.4e-8,1,1,4.4e-8,258.58,285.18603)"><tspan id="tspan392" y="0" x="0 4.4899921 10.565208 14.931216">2Q23</tspan></text>
</g>
    </g>
    <g id="g394">
      <g clip-path="url(#clipPath398)" id="g396"><text id="text402" style="font-variant:normal;font-weight:bold;font-size:8.88000011px;font-family:Calibri;-inkscape-font-specification:Calibri-Bold;writing-mode:lr-tb;fill:#000000;fill-opacity:1;fill-rule:nonzero;stroke:none" transform="matrix(-4.4e-8,1,1,4.4e-8,276.24,285.19136)"><tspan id="tspan404" y="0" x="0 4.5021601 10.55832 14.92728">3Q23</tspan></text>
</g>
    </g>
    <g id="g406">
      <g clip-path="url(#clipPath410)" id="g408"><text id="text414" style="font-variant:normal;font-weight:bold;font-size:8.88000011px;font-family:Calibri;-inkscape-font-specification:Calibri-Bold;writing-mode:lr-tb;fill:#000000;fill-opacity:1;fill-rule:nonzero;stroke:none" transform="matrix(-4.4e-8,1,1,4.4e-8,293.9,285.19136)"><tspan id="tspan416" y="0" x="0 4.5021601 10.55832 14.92728">4Q23</tspan></text>
</g>
    </g>
    <g id="g418">
      <g clip-path="url(#clipPath422)" id="g420"><text id="text426" style="font-variant:normal;font-weight:bold;font-size:8.85599995px;font-family:Calibri;-inkscape-font-specification:Calibri-Bold;writing-mode:lr-tb;fill:#000000;fill-opacity:1;fill-rule:nonzero;stroke:none" transform="matrix(-4.4e-8,1,1,4.4e-8,311.59,285.18603)"><tspan id="tspan428" y="0" x="0 4.4899921 10.565208 14.931216">1Q24</tspan></text>
</g>
    </g>
    <g id="g430">
      <g clip-path="url(#clipPath434)" id="g432"><text id="text438" style="font-variant:normal;font-weight:bold;font-size:8.85599995px;font-family:Calibri;-inkscape-font-specification:Calibri-Bold;writing-mode:lr-tb;fill:#000000;fill-opacity:1;fill-rule:nonzero;stroke:none" transform="matrix(-4.4e-8,1,1,4.4e-8,329.26,285.18603)"><tspan id="tspan440" y="0" x="0 4.4899921 10.565208 14.931216">2Q24</tspan></text>
</g>
    </g>
    <g id="g442">
      <g clip-path="url(#clipPath446)" id="g444"><text id="text450" style="font-variant:normal;font-weight:bold;font-size:8.88000011px;font-family:Calibri;-inkscape-font-specification:Calibri-Bold;writing-mode:lr-tb;fill:#000000;fill-opacity:1;fill-rule:nonzero;stroke:none" transform="matrix(-4.4e-8,1,1,4.4e-8,346.92,285.19136)"><tspan id="tspan452" y="0" x="0 4.5021601 10.55832 14.92728">3Q24</tspan></text>
</g>
    </g>
    <g id="g454">
      <g clip-path="url(#clipPath458)" id="g456"><text id="text462" style="font-variant:normal;font-weight:bold;font-size:8.88000011px;font-family:Calibri;-inkscape-font-specification:Calibri-Bold;writing-mode:lr-tb;fill:#000000;fill-opacity:1;fill-rule:nonzero;stroke:none" transform="matrix(-4.4e-8,1,1,4.4e-8,364.58,285.19136)"><tspan id="tspan464" y="0" x="0 4.5021601 10.55832 14.92728">4Q24</tspan></text>
</g>
    </g>
    <g id="g466">
      <g clip-path="url(#clipPath470)" id="g468"><text id="text474" style="font-variant:normal;font-weight:bold;font-size:8.85599995px;font-family:Calibri;-inkscape-font-specification:Calibri-Bold;writing-mode:lr-tb;fill:#000000;fill-opacity:1;fill-rule:nonzero;stroke:none" transform="matrix(-4.4e-8,1,1,4.4e-8,382.27,285.18603)"><tspan id="tspan476" y="0" x="0 4.4899921 10.565208 14.931216">1Q25</tspan></text>
</g>
    </g>
    <g id="g478">
      <g clip-path="url(#clipPath482)" id="g480"><text id="text486" style="font-variant:normal;font-weight:bold;font-size:8.85599995px;font-family:Calibri;-inkscape-font-specification:Calibri-Bold;writing-mode:lr-tb;fill:#000000;fill-opacity:1;fill-rule:nonzero;stroke:none" transform="matrix(-4.4e-8,1,1,4.4e-8,399.94,285.18603)"><tspan id="tspan488" y="0" x="0 4.4899921 10.565208 14.931216">2Q25</tspan></text>
</g>
    </g>
    <g id="g490">
      <g clip-path="url(#clipPath494)" id="g492"><text id="text498" style="font-variant:normal;font-weight:bold;font-size:8.88000011px;font-family:Calibri;-inkscape-font-specification:Calibri-Bold;writing-mode:lr-tb;fill:#000000;fill-opacity:1;fill-rule:nonzero;stroke:none" transform="matrix(-4.4e-8,1,1,4.4e-8,417.6,285.19136)"><tspan id="tspan500" y="0" x="0 4.5021601 10.55832 14.92728">3Q25</tspan></text>
</g>
    </g>
    <g id="g502">
      <g clip-path="url(#clipPath506)" id="g504"><text id="text510" style="font-variant:normal;font-weight:bold;font-size:8.88000011px;font-family:Calibri;-inkscape-font-specification:Calibri-Bold;writing-mode:lr-tb;fill:#000000;fill-opacity:1;fill-rule:nonzero;stroke:none" transform="matrix(-4.4e-8,1,1,4.4e-8,435.26,280.75136)"><tspan id="tspan512" y="0" x="0 4.5021601 10.55832 14.92728 19.42944">4Q25e</tspan></text>
</g>
    </g>
    <g id="g514">
      <g clip-path="url(#clipPath518)" id="g516"><text id="text522" style="font-variant:normal;font-weight:bold;font-size:8.85599995px;font-family:Calibri;-inkscape-font-specification:Calibri-Bold;writing-mode:lr-tb;fill:#000000;fill-opacity:1;fill-rule:nonzero;stroke:none" transform="matrix(-4.4e-8,1,1,4.4e-8,452.95,280.74603)"><tspan id="tspan524" y="0" x="0 4.4899921 10.565208 14.931216 19.421207">1Q26e</tspan></text>
</g>
    </g>
    <g id="g526">
      <g clip-path="url(#clipPath530)" id="g528"><text id="text534" style="font-variant:normal;font-weight:bold;font-size:8.85599995px;font-family:Calibri;-inkscape-font-specification:Calibri-Bold;writing-mode:lr-tb;fill:#000000;fill-opacity:1;fill-rule:nonzero;stroke:none" transform="matrix(-4.4e-8,1,1,4.4e-8,470.62,280.74603)"><tspan id="tspan536" y="0" x="0 4.4899921 10.565208 14.931216 19.421207">2Q26e</tspan></text>
</g>
    </g>
    <g id="g538">
      <g clip-path="url(#clipPath542)" id="g540"><text id="text546" style="font-variant:normal;font-weight:bold;font-size:8.88000011px;font-family:Calibri;-inkscape-font-specification:Calibri-Bold;writing-mode:lr-tb;fill:#000000;fill-opacity:1;fill-rule:nonzero;stroke:none" transform="matrix(-4.4e-8,1,1,4.4e-8,488.28,280.75136)"><tspan id="tspan548" y="0" x="0 4.5021601 10.55832 14.92728 19.42944">3Q26e</tspan></text>
</g>
    </g>
    <g id="g550">
      <g clip-path="url(#clipPath554)" id="g552"><text id="text558" style="font-variant:normal;font-weight:bold;font-size:8.88000011px;font-family:Calibri;-inkscape-font-specification:Calibri-Bold;writing-mode:lr-tb;fill:#000000;fill-opacity:1;fill-rule:nonzero;stroke:none" transform="matrix(-4.4e-8,1,1,4.4e-8,505.94,280.75136)"><tspan id="tspan560" y="0" x="0 4.5021601 10.55832 14.92728 19.42944">4Q26e</tspan></text>
</g>
    </g>
    <g id="g562">
      <g clip-path="url(#clipPath566)" id="g564"><text id="text570" style="font-variant:normal;font-weight:bold;font-size:15.47999954px;font-family:Arial;-inkscape-font-specification:'Arial Bold';writing-mode:lr-tb;fill:#333333;fill-opacity:1;fill-rule:nonzero;stroke:none" transform="matrix(1,0,0,-1,209.42,491.98)"><tspan id="tspan572" y="0" x="0 11.17656 22.275721 33.003361 46.114922 50.604118 60.929279 70.387558 79.76844 89.180283 93.561119 101.64168 106.54884 110.92968 115.03188 126.20844 134.81532 148.57704 157.18391 166.58028 175.99213 180.37296">DRAM Supply / Demand %</tspan></text>
</g>
    </g>
    <g id="g574">
      <g clip-path="url(#clipPath578)" id="g576"><text id="text582" style="font-variant:normal;font-weight:bold;font-size:10.99199963px;font-family:Calibri;-inkscape-font-specification:Calibri-Bold;writing-mode:lr-tb;fill:#000000;fill-opacity:1;fill-rule:nonzero;stroke:none" transform="matrix(1,0,0,-1,413.5,469.87)"><tspan id="tspan584" y="0" x="0 7.4305921 12.574848 18.136801 22.082928 26.468737 32.371441 38.340096 44.275776 46.913857">Oversupply</tspan></text>
</g>
    </g>
    <g id="g586">
      <g clip-path="url(#clipPath590)" id="g588"><text id="text594" style="font-variant:normal;font-weight:bold;font-size:10.96800041px;font-family:Calibri;-inkscape-font-specification:Calibri-Bold;writing-mode:lr-tb;fill:#000000;fill-opacity:1;fill-rule:nonzero;stroke:none" transform="matrix(1,0,0,-1,459,333.07)"><tspan id="tspan596" y="0" x="0 5.1878638 11.099616 17.044271 22.988928 25.632215">Supply</tspan></text>
</g>
    </g>
    <g id="g598">
      <g clip-path="url(#clipPath602)" id="g600"><text id="text606" style="font-variant:normal;font-weight:bold;font-size:10.99199963px;font-family:Calibri;-inkscape-font-specification:Calibri-Bold;writing-mode:lr-tb;fill:#000000;fill-opacity:1;fill-rule:nonzero;stroke:none" transform="matrix(1,0,0,-1,453.96,319.58)"><tspan id="tspan608" y="0" x="0 5.1552482 11.090928 17.026608 20.99472 24.808945 30.238993 35.4492">Shortage</tspan></text>
</g>
    </g>
  </g>
</svg>
