<?xml version="1.0" encoding="UTF-8" standalone="no"?>
<svg xmlns:dc="http://purl.org/dc/elements/1.1/" xmlns:cc="http://creativecommons.org/ns#" xmlns:rdf="http://www.w3.org/1999/02/22-rdf-syntax-ns#" xmlns:svg="http://www.w3.org/2000/svg" xmlns="http://www.w3.org/2000/svg" viewBox="63 121.8 926.4025 500.4" height="500.4" width="926.4025" xml:space="preserve" version="1.1" id="svg2">
  <metadata id="metadata8">
    <rdf:RDF>
      <cc:Work rdf:about="">
        <dc:format>image/svg+xml</dc:format>
        <dc:type rdf:resource="http://purl.org/dc/dcmitype/StillImage"/>
      </cc:Work>
    </rdf:RDF>
  </metadata>
  <defs id="defs6">
    <clipPath id="clipPath16" clipPathUnits="userSpaceOnUse">
      <path style="clip-rule:evenodd" id="path18" d="m 50.398,97.56 741.12,0 0,400.32 -741.12,0 0,-400.32 z"/>
    </clipPath>
    <clipPath id="clipPath26" clipPathUnits="userSpaceOnUse">
      <path style="clip-rule:evenodd" id="path28" d="m 50.4,97.56 741.12,0 0,400.32 -741.12,0 0,-400.32 z"/>
    </clipPath>
    <clipPath id="clipPath42" clipPathUnits="userSpaceOnUse">
      <path style="clip-rule:evenodd" id="path44" d="m 117.73,203.24 654.02,0 0,273.7 -654.02,0 0,-273.7 z"/>
    </clipPath>
    <clipPath id="clipPath52" clipPathUnits="userSpaceOnUse">
      <path style="clip-rule:evenodd" id="path54" d="m 117.73,203.24 654.02,0 0,273.7 -654.02,0 0,-273.7 z"/>
    </clipPath>
    <clipPath id="clipPath62" clipPathUnits="userSpaceOnUse">
      <path style="clip-rule:evenodd" id="path64" d="m 117.73,203.24 654.02,0 0,273.7 -654.02,0 0,-273.7 z"/>
    </clipPath>
    <clipPath id="clipPath74" clipPathUnits="userSpaceOnUse">
      <path style="clip-rule:evenodd" id="path76" d="m 50.4,97.56 741.12,0 0,400.2 -741.12,0 0,-400.2 z"/>
    </clipPath>
    <clipPath id="clipPath86" clipPathUnits="userSpaceOnUse">
      <path style="clip-rule:evenodd" id="path88" d="m 50.4,97.56 741.12,0 0,400.2 -741.12,0 0,-400.2 z"/>
    </clipPath>
    <clipPath id="clipPath98" clipPathUnits="userSpaceOnUse">
      <path style="clip-rule:evenodd" id="path100" d="m 50.4,97.56 741.12,0 0,400.2 -741.12,0 0,-400.2 z"/>
    </clipPath>
    <clipPath id="clipPath110" clipPathUnits="userSpaceOnUse">
      <path style="clip-rule:evenodd" id="path112" d="m 50.4,97.56 741.12,0 0,400.2 -741.12,0 0,-400.2 z"/>
    </clipPath>
    <clipPath id="clipPath122" clipPathUnits="userSpaceOnUse">
      <path style="clip-rule:evenodd" id="path124" d="m 50.4,97.56 741.12,0 0,400.2 -741.12,0 0,-400.2 z"/>
    </clipPath>
    <clipPath id="clipPath134" clipPathUnits="userSpaceOnUse">
      <path style="clip-rule:evenodd" id="path136" d="m 50.4,97.56 741.12,0 0,400.2 -741.12,0 0,-400.2 z"/>
    </clipPath>
    <clipPath id="clipPath146" clipPathUnits="userSpaceOnUse">
      <path style="clip-rule:evenodd" id="path148" d="m 50.4,97.56 741.12,0 0,400.2 -741.12,0 0,-400.2 z"/>
    </clipPath>
    <clipPath id="clipPath158" clipPathUnits="userSpaceOnUse">
      <path style="clip-rule:evenodd" id="path160" d="m 50.4,97.56 741.12,0 0,400.2 -741.12,0 0,-400.2 z"/>
    </clipPath>
    <clipPath id="clipPath170" clipPathUnits="userSpaceOnUse">
      <path style="clip-rule:evenodd" id="path172" d="m 50.4,97.56 741.12,0 0,400.2 -741.12,0 0,-400.2 z"/>
    </clipPath>
    <clipPath id="clipPath182" clipPathUnits="userSpaceOnUse">
      <path style="clip-rule:evenodd" id="path184" d="m 50.4,97.56 741.12,0 0,400.2 -741.12,0 0,-400.2 z"/>
    </clipPath>
    <clipPath id="clipPath194" clipPathUnits="userSpaceOnUse">
      <path style="clip-rule:evenodd" id="path196" d="m 50.4,97.56 741.12,0 0,400.2 -741.12,0 0,-400.2 z"/>
    </clipPath>
    <clipPath id="clipPath206" clipPathUnits="userSpaceOnUse">
      <path style="clip-rule:evenodd" id="path208" d="m 50.4,97.56 741.12,0 0,400.2 -741.12,0 0,-400.2 z"/>
    </clipPath>
    <clipPath id="clipPath218" clipPathUnits="userSpaceOnUse">
      <path style="clip-rule:evenodd" id="path220" d="m 50.4,97.56 741.12,0 0,400.2 -741.12,0 0,-400.2 z"/>
    </clipPath>
    <clipPath id="clipPath230" clipPathUnits="userSpaceOnUse">
      <path style="clip-rule:evenodd" id="path232" d="m 50.4,97.56 741.12,0 0,400.2 -741.12,0 0,-400.2 z"/>
    </clipPath>
    <clipPath id="clipPath242" clipPathUnits="userSpaceOnUse">
      <path style="clip-rule:evenodd" id="path244" d="m 50.4,97.56 741.12,0 0,400.2 -741.12,0 0,-400.2 z"/>
    </clipPath>
    <clipPath id="clipPath254" clipPathUnits="userSpaceOnUse">
      <path style="clip-rule:evenodd" id="path256" d="m 50.4,97.56 741.12,0 0,400.2 -741.12,0 0,-400.2 z"/>
    </clipPath>
    <clipPath id="clipPath266" clipPathUnits="userSpaceOnUse">
      <path style="clip-rule:evenodd" id="path268" d="m 50.4,97.56 741.12,0 0,400.2 -741.12,0 0,-400.2 z"/>
    </clipPath>
    <clipPath id="clipPath278" clipPathUnits="userSpaceOnUse">
      <path style="clip-rule:evenodd" id="path280" d="m 50.4,97.56 741.12,0 0,400.2 -741.12,0 0,-400.2 z"/>
    </clipPath>
    <clipPath id="clipPath290" clipPathUnits="userSpaceOnUse">
      <path style="clip-rule:evenodd" id="path292" d="m 50.4,97.56 741.12,0 0,400.2 -741.12,0 0,-400.2 z"/>
    </clipPath>
    <clipPath id="clipPath302" clipPathUnits="userSpaceOnUse">
      <path style="clip-rule:evenodd" id="path304" d="m 50.4,97.56 741.12,0 0,400.2 -741.12,0 0,-400.2 z"/>
    </clipPath>
    <clipPath id="clipPath314" clipPathUnits="userSpaceOnUse">
      <path style="clip-rule:evenodd" id="path316" d="m 50.4,97.56 741.12,0 0,400.2 -741.12,0 0,-400.2 z"/>
    </clipPath>
    <clipPath id="clipPath326" clipPathUnits="userSpaceOnUse">
      <path style="clip-rule:evenodd" id="path328" d="m 50.4,97.56 741.12,0 0,400.2 -741.12,0 0,-400.2 z"/>
    </clipPath>
    <clipPath id="clipPath338" clipPathUnits="userSpaceOnUse">
      <path style="clip-rule:evenodd" id="path340" d="m 50.4,97.56 741.12,0 0,400.2 -741.12,0 0,-400.2 z"/>
    </clipPath>
    <clipPath id="clipPath350" clipPathUnits="userSpaceOnUse">
      <path style="clip-rule:evenodd" id="path352" d="m 50.4,97.56 741.12,0 0,400.2 -741.12,0 0,-400.2 z"/>
    </clipPath>
    <clipPath id="clipPath362" clipPathUnits="userSpaceOnUse">
      <path style="clip-rule:evenodd" id="path364" d="m 50.4,97.56 741.12,0 0,400.2 -741.12,0 0,-400.2 z"/>
    </clipPath>
    <clipPath id="clipPath374" clipPathUnits="userSpaceOnUse">
      <path style="clip-rule:evenodd" id="path376" d="m 50.4,97.56 741.12,0 0,400.2 -741.12,0 0,-400.2 z"/>
    </clipPath>
    <clipPath id="clipPath386" clipPathUnits="userSpaceOnUse">
      <path style="clip-rule:evenodd" id="path388" d="m 50.4,97.56 741.12,0 0,400.2 -741.12,0 0,-400.2 z"/>
    </clipPath>
    <clipPath id="clipPath398" clipPathUnits="userSpaceOnUse">
      <path style="clip-rule:evenodd" id="path400" d="m 50.4,97.56 741.12,0 0,400.2 -741.12,0 0,-400.2 z"/>
    </clipPath>
    <clipPath id="clipPath410" clipPathUnits="userSpaceOnUse">
      <path style="clip-rule:evenodd" id="path412" d="m 50.4,97.56 741.12,0 0,400.2 -741.12,0 0,-400.2 z"/>
    </clipPath>
    <clipPath id="clipPath422" clipPathUnits="userSpaceOnUse">
      <path style="clip-rule:evenodd" id="path424" d="m 50.4,97.56 741.12,0 0,400.2 -741.12,0 0,-400.2 z"/>
    </clipPath>
    <clipPath id="clipPath434" clipPathUnits="userSpaceOnUse">
      <path style="clip-rule:evenodd" id="path436" d="m 50.4,97.56 741.12,0 0,400.2 -741.12,0 0,-400.2 z"/>
    </clipPath>
    <clipPath id="clipPath448" clipPathUnits="userSpaceOnUse">
      <path style="clip-rule:evenodd" id="path450" d="m 50.4,97.56 741.12,0 0,400.2 -741.12,0 0,-400.2 z"/>
    </clipPath>
    <clipPath id="clipPath462" clipPathUnits="userSpaceOnUse">
      <path style="clip-rule:evenodd" id="path464" d="m 50.4,97.56 741.12,0 0,400.2 -741.12,0 0,-400.2 z"/>
    </clipPath>
    <clipPath id="clipPath476" clipPathUnits="userSpaceOnUse">
      <path style="clip-rule:evenodd" id="path478" d="m 50.4,97.56 741.12,0 0,400.2 -741.12,0 0,-400.2 z"/>
    </clipPath>
    <clipPath id="clipPath490" clipPathUnits="userSpaceOnUse">
      <path style="clip-rule:evenodd" id="path492" d="m 50.4,97.56 741.12,0 0,400.2 -741.12,0 0,-400.2 z"/>
    </clipPath>
    <clipPath id="clipPath504" clipPathUnits="userSpaceOnUse">
      <path style="clip-rule:evenodd" id="path506" d="m 50.4,97.56 741.12,0 0,400.2 -741.12,0 0,-400.2 z"/>
    </clipPath>
  </defs>
  <g transform="matrix(1.25,0,0,-1.25,0,744.15)" id="g10">
    <g id="g12">
      <g clip-path="url(#clipPath16)" id="g14">
        <path id="path20" style="fill:none;stroke:#000000;stroke-width:0.14;stroke-linecap:butt;stroke-linejoin:miter;stroke-miterlimit:10;stroke-dasharray:none;stroke-opacity:0" d="m 50.399,97.525 741.12,0 0,400.32 -741.12,0 0,-400.32 z"/>
      </g>
    </g>
    <g id="g22">
      <g clip-path="url(#clipPath26)" id="g24">
        <path id="path30" style="fill:#ffffff;fill-opacity:1;fill-rule:evenodd;stroke:none" d="m 50.4,97.525 741.12,0 0,400.32 -741.12,0 0,-400.32 z"/>
      </g>
    </g>
    <path id="path32" style="fill:none;stroke:#d9d9d9;stroke-width:1.43630004;stroke-linecap:butt;stroke-linejoin:round;stroke-miterlimit:10;stroke-dasharray:none;stroke-opacity:1" d="m 117.9,204.57 652.55,0 m -652.55,41.87 652.55,0 m -652.55,83.88 652.55,0 m -652.55,41.82 652.55,0 m -652.55,41.83 652.55,0 m -652.55,41.87 652.55,0"/>
    <path id="path34" style="fill:none;stroke:#d9d9d9;stroke-width:1.43630004;stroke-linecap:butt;stroke-linejoin:round;stroke-miterlimit:10;stroke-dasharray:none;stroke-opacity:1" d="m 117.9,288.32 652.55,0"/>
    <path id="path36" style="fill:none;stroke:#005aa4;stroke-width:4.30880022;stroke-linecap:round;stroke-linejoin:round;stroke-miterlimit:10;stroke-dasharray:none;stroke-opacity:1" d="m 122.43,304.12 9.09,4.14 8.96,1.83 9.2,-0.68 8.96,5.28 9.19,2.07 8.96,3.91 9.19,0.68 8.97,1.84 8.96,-0.23 9.19,1.38 8.96,-6.66 9.2,3.67 8.96,-4.36 9.19,-10.8 8.96,3.22 8.97,5.51 9.19,3.22 8.96,0.23 9.19,-5.98 8.96,3.91 9.2,5.51 8.96,-10.8 9.19,13.56 8.96,4.83 8.97,7.12 9.19,0.92 8.96,-1.15 9.19,6.21 8.97,-0.92 9.19,2.99 8.96,-18.16 8.96,-13.1 9.19,-0.46 8.97,1.84 9.19,-1.38 8.96,-0.69 9.19,7.82 8.97,6.43 9.19,-7.81 8.96,-0.69 8.96,11.26 9.2,3.44 8.96,-6.89 9.19,0.23 8.96,0.23 9.19,-8.73 8.97,-16.78 9.19,-10.7 8.96,0.23 8.96,5.19 9.2,1.15 8.96,10.57 9.19,10.34 8.96,-5.29 9.19,-6.43 8.97,-0.23 8.96,-4.6 9.19,16.32 8.96,15.62 9.2,44.59 8.96,31.48 9.19,5.52 8.96,3.67 9.2,-2.07 8.96,3.7 8.96,-0.71 9.19,-0.23 8.96,-3.68 9.2,-2.98 8.96,0.23 9.1,-1.84"/>
    <g id="g38">
      <g clip-path="url(#clipPath42)" id="g40">
        <path id="path46" style="fill:none;stroke:#00a1e2;stroke-width:4.30880022;stroke-linecap:round;stroke-linejoin:round;stroke-miterlimit:10;stroke-dasharray:none;stroke-opacity:1" d="m 122.43,289.41 9.09,18.39 8.96,-46.19 9.2,32.63 8.96,-28.96 9.19,23.44 8.96,-2.53 9.19,6.44 8.97,19.53 8.96,35.39 9.19,0.46 8.96,-10.8 9.2,10.34 8.96,-1.38 9.19,5.29 8.96,4.6 8.97,1.37 9.19,-7.12 8.96,-3.22 9.19,-11.95 8.96,-14.7 9.2,-8.05 8.96,11.72 9.19,24.36 8.96,22.06 8.97,13.33 9.19,1.15 8.96,6.89 9.19,1.38 8.97,7.59 9.19,6.2 8.96,-25.51 8.96,-51.01 9.19,-21.6 8.97,-6.21 9.19,-7.12 8.96,16.08 9.19,24.13 8.97,-14.02 9.19,-8.27 8.96,7.36 8.96,22.06 9.2,19.3 8.96,-2.53 9.19,-22.06 8.96,14.25 9.19,-31.94 8.97,-83.88 9.19,-87.79 8.96,57.45 8.96,41.14 9.2,47.8 8.96,42.28 9.19,21.14 8.96,14.02 9.19,1.84 8.97,2.76 8.96,-1.61 9.19,10.8 8.96,24.59 9.2,27.58 8.96,19.07 9.19,2.3 8.96,0.23 9.2,0.69 8.96,0.25 8.96,-1.63 9.19,-2.76 8.96,-0.69 9.2,-0.92 8.96,-1.84 9.1,-3.67"/>
      </g>
    </g>
    <g id="g48">
      <g clip-path="url(#clipPath52)" id="g50">
        <path id="path56" style="fill:none;stroke:#3bc3a3;stroke-width:4.30880022;stroke-linecap:round;stroke-linejoin:round;stroke-miterlimit:10;stroke-dasharray:none;stroke-opacity:1" d="m 122.43,305.04 9.09,6.43 8.96,-28.03 9.2,-3.22 8.96,-13.33 9.19,2.99 8.96,3.45 9.19,-2.99 8.97,15.62 8.96,15.86 9.19,1.84 8.96,13.1 9.2,15.86 8.96,-0.23 9.19,-2.99 8.96,8.5 8.97,-6.66 9.19,-8.74 8.96,-9.42 9.19,-10.34 8.96,-14.71 9.2,-1.61 8.96,-0.23 9.19,21.15 8.96,28.03 8.97,26.89 9.19,11.49 8.96,9.88 9.19,6.21 8.97,4.59 9.19,2.53 8.96,-9.19 8.96,-29.19 9.19,-26.19 8.97,-16.09 9.19,-6.89 8.96,-1.84 9.19,14.93 8.97,5.75 9.19,-8.5 8.96,-9.2 8.96,28.5 9.2,24.13 8.96,-3.22 9.19,-3.22 8.96,4.37 9.19,-24.82 8.97,-58.6 9.19,-119.95 8.96,32.4 8.96,21.37 9.2,26.89 8.96,56.76 9.19,15.16 8.96,19.08 9.19,11.26 8.97,-6.21 8.96,2.76 9.19,18.85 8.96,26.42 9.2,47.34 8.96,26.89 9.19,4.14 8.96,4.59 9.2,2.07 8.96,1.61 8.96,2.31 9.19,-2.08 8.96,-5.98 9.2,-7.35 9,-8.96"/>
      </g>
    </g>
    <g id="g58">
      <g clip-path="url(#clipPath62)" id="g60">
        <path id="path66" style="fill:none;stroke:#6769b5;stroke-width:4.30880022;stroke-linecap:round;stroke-linejoin:round;stroke-miterlimit:10;stroke-dasharray:none;stroke-opacity:1" d="m 122.43,141.65 9.09,30.1 8.96,-164.0248 9.2,19.0198 8.96,59.75 9.19,91.005 8.96,-154.891 9.19,57.451 8.97,228.66 8.96,1.83 9.19,-12.18 8.96,9.66 9.2,51.24 8.96,3.68 9.19,12.64 8.96,-0.23 8.97,-4.14 9.19,-9.65 8.96,-13.56 9.19,-22.06 8.96,15.4 9.2,-14.25 8.96,-3.91 9.19,9.66 8.96,21.37 8.97,3.21 9.19,-2.29 8.96,14.7 9.19,11.26 8.97,5.29 9.19,8.73 8.96,-19.3 8.96,-31.94 9.19,-8.28 8.97,-15.39 9.19,-8.97 8.96,3.68 9.19,14.48 8.97,-12.87 9.19,-9.65 8.96,17.23 8.96,29.65 9.2,14.25 8.96,-1.15 9.19,-12.87 8.96,-3.45 9.19,-44.81 8.97,-58.14 9.19,-53.32 8.96,-0.92 8.96,-22.52 9.2,20 8.96,33.09 9.19,15.39 8.96,-15.39 9.19,-25.05 8.97,-2.53 8.96,2.53 9.19,102.03 8.96,69.4 9.2,46.42 8.96,23.9 9.19,5.29 8.96,0.2 9.2,-3.88 8.96,-2.53 8.96,-5.97 9.19,-31.71 8.96,11.26 9.2,-9.2 8.96,-19.3 9.1,-15.63"/>
      </g>
    </g>
    <path id="path68" style="fill:none;stroke:#d0b86a;stroke-width:4.30880022;stroke-linecap:round;stroke-linejoin:round;stroke-miterlimit:10;stroke-dasharray:none;stroke-opacity:1" d="m 122.43,294.93 9.09,2.98 8.96,-10.34 9.2,-41.84 8.96,17.25 9.19,10.81 8.96,4.13 9.19,-6.66 8.97,10.11 8.96,19.3 9.19,-4.59 8.96,-2.76 9.2,7.58 8.96,6.67 9.19,4.13 8.96,1.38 8.97,2.53 9.19,-4.83 8.96,-4.36 9.19,3.9 8.96,-1.14 9.2,-3.22 8.96,-0.46 9.19,0.92 8.96,0.46 8.97,7.12 9.19,9.42 8.96,0.23 9.19,-0.46 8.97,3.22 9.19,-4.14 8.96,-12.18 8.96,-9.19 9.19,-8.27 8.97,3.45 9.19,-10.12 8.96,2.99 9.19,13.79 8.97,-12.87 9.19,4.6 8.96,16.31 8.96,15.86 9.2,7.81 8.96,-1.38 9.19,5.06 8.96,-4.14 9.19,-12.86 8.97,-22.3 9.19,-23.67 8.96,9.66 8.96,5.74 9.2,-6.89 8.96,2.75 9.19,13.33 8.96,-8.73 9.19,-11.03 8.97,-1.84 8.96,-2.76 9.19,48.49 8.96,-3.44 9.2,36.53 8.96,18.39 9.19,9.65 8.96,4.6 9.2,2.29 8.96,0.46 8.96,-0.46 9.19,0.46 8.96,2.76 9.2,0.08 8.96,-0.77 9.1,-0.46"/>
    <g id="g70">
      <g clip-path="url(#clipPath74)" id="g72"><text id="text78" style="font-variant:normal;font-weight:normal;font-size:17.23200035px;font-family:Arial;-inkscape-font-specification:Arial;writing-mode:lr-tb;fill:#595959;fill-opacity:1;fill-rule:nonzero;stroke:none" transform="matrix(1,0,0,-1,62.856,198.98)"><tspan id="tspan80" y="0" x="0 5.738256 15.388176 24.814079">-40%</tspan></text>
</g>
    </g>
    <g id="g82">
      <g clip-path="url(#clipPath86)" id="g84"><text id="text90" style="font-variant:normal;font-weight:normal;font-size:17.25600052px;font-family:Arial;-inkscape-font-specification:Arial;writing-mode:lr-tb;fill:#595959;fill-opacity:1;fill-rule:nonzero;stroke:none" transform="matrix(1,0,0,-1,62.856,240.89)"><tspan id="tspan92" y="0" x="0 5.7462478 15.392352 24.831385">-20%</tspan></text>
</g>
    </g>
    <g id="g94">
      <g clip-path="url(#clipPath98)" id="g96"><text id="text102" style="font-variant:normal;font-weight:normal;font-size:17.23200035px;font-family:Arial;-inkscape-font-specification:Arial;writing-mode:lr-tb;fill:#595959;fill-opacity:1;fill-rule:nonzero;stroke:none" transform="matrix(1,0,0,-1,78.192,282.77)"><tspan id="tspan104" y="0" x="0 9.6479921">0%</tspan></text>
</g>
    </g>
    <g id="g106">
      <g clip-path="url(#clipPath110)" id="g108"><text id="text114" style="font-variant:normal;font-weight:normal;font-size:17.23200035px;font-family:Arial;-inkscape-font-specification:Arial;writing-mode:lr-tb;fill:#595959;fill-opacity:1;fill-rule:nonzero;stroke:none" transform="matrix(1,0,0,-1,68.592,324.65)"><tspan id="tspan116" y="0" x="0 9.6326876 19.058592">20%</tspan></text>
</g>
    </g>
    <g id="g118">
      <g clip-path="url(#clipPath122)" id="g120"><text id="text126" style="font-variant:normal;font-weight:normal;font-size:17.23200035px;font-family:Arial;-inkscape-font-specification:Arial;writing-mode:lr-tb;fill:#595959;fill-opacity:1;fill-rule:nonzero;stroke:none" transform="matrix(1,0,0,-1,68.592,366.53)"><tspan id="tspan128" y="0" x="0 9.6326876 19.058592">40%</tspan></text>
</g>
    </g>
    <g id="g130">
      <g clip-path="url(#clipPath134)" id="g132"><text id="text138" style="font-variant:normal;font-weight:normal;font-size:17.23200035px;font-family:Arial;-inkscape-font-specification:Arial;writing-mode:lr-tb;fill:#595959;fill-opacity:1;fill-rule:nonzero;stroke:none" transform="matrix(1,0,0,-1,68.592,408.43)"><tspan id="tspan140" y="0" x="0 9.6326876 19.058592">60%</tspan></text>
</g>
    </g>
    <g id="g142">
      <g clip-path="url(#clipPath146)" id="g144"><text id="text150" style="font-variant:normal;font-weight:normal;font-size:17.23200035px;font-family:Arial;-inkscape-font-specification:Arial;writing-mode:lr-tb;fill:#595959;fill-opacity:1;fill-rule:nonzero;stroke:none" transform="matrix(1,0,0,-1,68.592,450.31)"><tspan id="tspan152" y="0" x="0 9.6326876 19.058592">80%</tspan></text>
</g>
    </g>
    <g id="g154">
      <g clip-path="url(#clipPath158)" id="g156"><text id="text162" style="font-variant:normal;font-weight:normal;font-size:17.23200035px;font-family:Arial;-inkscape-font-specification:Arial;writing-mode:lr-tb;fill:#595959;fill-opacity:1;fill-rule:nonzero;stroke:none" transform="matrix(-4.4e-8,1,1,4.4e-8,128.45,151.92)"><tspan id="tspan164" y="0" x="0 9.6326876 22.953024 32.585712">1Q11</tspan></text>
</g>
    </g>
    <g id="g166">
      <g clip-path="url(#clipPath170)" id="g168"><text id="text174" style="font-variant:normal;font-weight:normal;font-size:17.23200035px;font-family:Arial;-inkscape-font-specification:Arial;writing-mode:lr-tb;fill:#595959;fill-opacity:1;fill-rule:nonzero;stroke:none" transform="matrix(-4.4e-8,1,1,4.4e-8,155.64,151.92)"><tspan id="tspan176" y="0" x="0 9.6326876 22.953024 32.585712">4Q11</tspan></text>
</g>
    </g>
    <g id="g178">
      <g clip-path="url(#clipPath182)" id="g180"><text id="text186" style="font-variant:normal;font-weight:normal;font-size:17.23200035px;font-family:Arial;-inkscape-font-specification:Arial;writing-mode:lr-tb;fill:#595959;fill-opacity:1;fill-rule:nonzero;stroke:none" transform="matrix(-4.4e-8,1,1,4.4e-8,182.83,151.92)"><tspan id="tspan188" y="0" x="0 9.6326876 22.953024 32.585712">3Q12</tspan></text>
</g>
    </g>
    <g id="g190">
      <g clip-path="url(#clipPath194)" id="g192"><text id="text198" style="font-variant:normal;font-weight:normal;font-size:17.25600052px;font-family:Arial;-inkscape-font-specification:Arial;writing-mode:lr-tb;fill:#595959;fill-opacity:1;fill-rule:nonzero;stroke:none" transform="matrix(-4.4e-8,1,1,4.4e-8,210.02,151.92)"><tspan id="tspan200" y="0" x="0 9.6288481 22.95048 32.579327">2Q13</tspan></text>
</g>
    </g>
    <g id="g202">
      <g clip-path="url(#clipPath206)" id="g204"><text id="text210" style="font-variant:normal;font-weight:normal;font-size:17.25600052px;font-family:Arial;-inkscape-font-specification:Arial;writing-mode:lr-tb;fill:#595959;fill-opacity:1;fill-rule:nonzero;stroke:none" transform="matrix(-4.4e-8,1,1,4.4e-8,237.22,151.92)"><tspan id="tspan212" y="0" x="0 9.6288481 22.95048 32.579327">1Q14</tspan></text>
</g>
    </g>
    <g id="g214">
      <g clip-path="url(#clipPath218)" id="g216"><text id="text222" style="font-variant:normal;font-weight:normal;font-size:17.25600052px;font-family:Arial;-inkscape-font-specification:Arial;writing-mode:lr-tb;fill:#595959;fill-opacity:1;fill-rule:nonzero;stroke:none" transform="matrix(-4.4e-8,1,1,4.4e-8,264.41,151.92)"><tspan id="tspan224" y="0" x="0 9.6288481 22.95048 32.579327">4Q14</tspan></text>
</g>
    </g>
    <g id="g226">
      <g clip-path="url(#clipPath230)" id="g228"><text id="text234" style="font-variant:normal;font-weight:normal;font-size:17.25600052px;font-family:Arial;-inkscape-font-specification:Arial;writing-mode:lr-tb;fill:#595959;fill-opacity:1;fill-rule:nonzero;stroke:none" transform="matrix(-4.4e-8,1,1,4.4e-8,291.6,151.92)"><tspan id="tspan236" y="0" x="0 9.6288481 22.95048 32.579327">3Q15</tspan></text>
</g>
    </g>
    <g id="g238">
      <g clip-path="url(#clipPath242)" id="g240"><text id="text246" style="font-variant:normal;font-weight:normal;font-size:17.23200035px;font-family:Arial;-inkscape-font-specification:Arial;writing-mode:lr-tb;fill:#595959;fill-opacity:1;fill-rule:nonzero;stroke:none" transform="matrix(-4.4e-8,1,1,4.4e-8,318.82,151.92)"><tspan id="tspan248" y="0" x="0 9.6326876 22.953024 32.585712">2Q16</tspan></text>
</g>
    </g>
    <g id="g250">
      <g clip-path="url(#clipPath254)" id="g252"><text id="text258" style="font-variant:normal;font-weight:normal;font-size:17.23200035px;font-family:Arial;-inkscape-font-specification:Arial;writing-mode:lr-tb;fill:#595959;fill-opacity:1;fill-rule:nonzero;stroke:none" transform="matrix(-4.4e-8,1,1,4.4e-8,346.01,151.92)"><tspan id="tspan260" y="0" x="0 9.6326876 22.953024 32.585712">1Q17</tspan></text>
</g>
    </g>
    <g id="g262">
      <g clip-path="url(#clipPath266)" id="g264"><text id="text270" style="font-variant:normal;font-weight:normal;font-size:17.23200035px;font-family:Arial;-inkscape-font-specification:Arial;writing-mode:lr-tb;fill:#595959;fill-opacity:1;fill-rule:nonzero;stroke:none" transform="matrix(-4.4e-8,1,1,4.4e-8,373.2,151.92)"><tspan id="tspan272" y="0" x="0 9.6326876 22.953024 32.585712">4Q17</tspan></text>
</g>
    </g>
    <g id="g274">
      <g clip-path="url(#clipPath278)" id="g276"><text id="text282" style="font-variant:normal;font-weight:normal;font-size:17.23200035px;font-family:Arial;-inkscape-font-specification:Arial;writing-mode:lr-tb;fill:#595959;fill-opacity:1;fill-rule:nonzero;stroke:none" transform="matrix(-4.4e-8,1,1,4.4e-8,400.39,151.92)"><tspan id="tspan284" y="0" x="0 9.6326876 22.953024 32.585712">3Q18</tspan></text>
</g>
    </g>
    <g id="g286">
      <g clip-path="url(#clipPath290)" id="g288"><text id="text294" style="font-variant:normal;font-weight:normal;font-size:17.23200035px;font-family:Arial;-inkscape-font-specification:Arial;writing-mode:lr-tb;fill:#595959;fill-opacity:1;fill-rule:nonzero;stroke:none" transform="matrix(-4.4e-8,1,1,4.4e-8,427.58,151.92)"><tspan id="tspan296" y="0" x="0 9.6326876 22.953024 32.585712">2Q19</tspan></text>
</g>
    </g>
    <g id="g298">
      <g clip-path="url(#clipPath302)" id="g300"><text id="text306" style="font-variant:normal;font-weight:normal;font-size:17.23200035px;font-family:Arial;-inkscape-font-specification:Arial;writing-mode:lr-tb;fill:#595959;fill-opacity:1;fill-rule:nonzero;stroke:none" transform="matrix(-4.4e-8,1,1,4.4e-8,454.78,151.92)"><tspan id="tspan308" y="0" x="0 9.6326876 22.953024 32.585712">1Q20</tspan></text>
</g>
    </g>
    <g id="g310">
      <g clip-path="url(#clipPath314)" id="g312"><text id="text318" style="font-variant:normal;font-weight:normal;font-size:17.23200035px;font-family:Arial;-inkscape-font-specification:Arial;writing-mode:lr-tb;fill:#595959;fill-opacity:1;fill-rule:nonzero;stroke:none" transform="matrix(-4.4e-8,1,1,4.4e-8,481.97,151.92)"><tspan id="tspan320" y="0" x="0 9.6326876 22.953024 32.585712">4Q20</tspan></text>
</g>
    </g>
    <g id="g322">
      <g clip-path="url(#clipPath326)" id="g324"><text id="text330" style="font-variant:normal;font-weight:normal;font-size:17.23200035px;font-family:Arial;-inkscape-font-specification:Arial;writing-mode:lr-tb;fill:#595959;fill-opacity:1;fill-rule:nonzero;stroke:none" transform="matrix(-4.4e-8,1,1,4.4e-8,509.16,151.92)"><tspan id="tspan332" y="0" x="0 9.6326876 22.953024 32.585712">3Q21</tspan></text>
</g>
    </g>
    <g id="g334">
      <g clip-path="url(#clipPath338)" id="g336"><text id="text342" style="font-variant:normal;font-weight:normal;font-size:17.23200035px;font-family:Arial;-inkscape-font-specification:Arial;writing-mode:lr-tb;fill:#595959;fill-opacity:1;fill-rule:nonzero;stroke:none" transform="matrix(-4.4e-8,1,1,4.4e-8,536.35,151.92)"><tspan id="tspan344" y="0" x="0 9.6326876 22.953024 32.585712">2Q22</tspan></text>
</g>
    </g>
    <g id="g346">
      <g clip-path="url(#clipPath350)" id="g348"><text id="text354" style="font-variant:normal;font-weight:normal;font-size:17.23200035px;font-family:Arial;-inkscape-font-specification:Arial;writing-mode:lr-tb;fill:#595959;fill-opacity:1;fill-rule:nonzero;stroke:none" transform="matrix(-4.4e-8,1,1,4.4e-8,563.54,151.92)"><tspan id="tspan356" y="0" x="0 9.6326876 22.953024 32.585712">1Q23</tspan></text>
</g>
    </g>
    <g id="g358">
      <g clip-path="url(#clipPath362)" id="g360"><text id="text366" style="font-variant:normal;font-weight:normal;font-size:17.23200035px;font-family:Arial;-inkscape-font-specification:Arial;writing-mode:lr-tb;fill:#595959;fill-opacity:1;fill-rule:nonzero;stroke:none" transform="matrix(-4.4e-8,1,1,4.4e-8,590.74,151.92)"><tspan id="tspan368" y="0" x="0 9.6326876 22.953024 32.585712">4Q23</tspan></text>
</g>
    </g>
    <g id="g370">
      <g clip-path="url(#clipPath374)" id="g372"><text id="text378" style="font-variant:normal;font-weight:normal;font-size:17.23200035px;font-family:Arial;-inkscape-font-specification:Arial;writing-mode:lr-tb;fill:#595959;fill-opacity:1;fill-rule:nonzero;stroke:none" transform="matrix(-4.4e-8,1,1,4.4e-8,617.93,151.92)"><tspan id="tspan380" y="0" x="0 9.6326876 22.953024 32.585712">3Q24</tspan></text>
</g>
    </g>
    <g id="g382">
      <g clip-path="url(#clipPath386)" id="g384"><text id="text390" style="font-variant:normal;font-weight:normal;font-size:17.25600052px;font-family:Arial;-inkscape-font-specification:Arial;writing-mode:lr-tb;fill:#595959;fill-opacity:1;fill-rule:nonzero;stroke:none" transform="matrix(-4.4e-8,1,1,4.4e-8,645.12,151.92)"><tspan id="tspan392" y="0" x="0 9.6288481 22.95048 32.579327">2Q25</tspan></text>
</g>
    </g>
    <g id="g394">
      <g clip-path="url(#clipPath398)" id="g396"><text id="text402" style="font-variant:normal;font-weight:normal;font-size:17.25600052px;font-family:Arial;-inkscape-font-specification:Arial;writing-mode:lr-tb;fill:#595959;fill-opacity:1;fill-rule:nonzero;stroke:none" transform="matrix(-4.4e-8,1,1,4.4e-8,672.31,151.92)"><tspan id="tspan404" y="0" x="0 9.6288481 22.95048 32.579327">1Q26</tspan></text>
</g>
    </g>
    <g id="g406">
      <g clip-path="url(#clipPath410)" id="g408"><text id="text414" style="font-variant:normal;font-weight:normal;font-size:17.25600052px;font-family:Arial;-inkscape-font-specification:Arial;writing-mode:lr-tb;fill:#595959;fill-opacity:1;fill-rule:nonzero;stroke:none" transform="matrix(-4.4e-8,1,1,4.4e-8,699.5,151.92)"><tspan id="tspan416" y="0" x="0 9.6288481 22.95048 32.579327">4Q26</tspan></text>
</g>
    </g>
    <g id="g418">
      <g clip-path="url(#clipPath422)" id="g420"><text id="text426" style="font-variant:normal;font-weight:normal;font-size:17.25600052px;font-family:Arial;-inkscape-font-specification:Arial;writing-mode:lr-tb;fill:#595959;fill-opacity:1;fill-rule:nonzero;stroke:none" transform="matrix(-4.4e-8,1,1,4.4e-8,726.7,151.92)"><tspan id="tspan428" y="0" x="0 9.6288481 22.95048 32.579327">3Q27</tspan></text>
</g>
    </g>
    <g id="g430">
      <g clip-path="url(#clipPath434)" id="g432"><text id="text438" style="font-variant:normal;font-weight:normal;font-size:17.23200035px;font-family:Arial;-inkscape-font-specification:Arial;writing-mode:lr-tb;fill:#595959;fill-opacity:1;fill-rule:nonzero;stroke:none" transform="matrix(-4.4e-8,1,1,4.4e-8,753.91,151.92)"><tspan id="tspan440" y="0" x="0 9.6326876 22.953024 32.585712">2Q28</tspan></text>
</g>
    </g>
    <path id="path442" style="fill:none;stroke:#005aa4;stroke-width:4.30880022;stroke-linecap:round;stroke-linejoin:round;stroke-miterlimit:10;stroke-dasharray:none;stroke-opacity:1" d="m 107.44,124.29 36.77,0"/>
    <g id="g444">
      <g clip-path="url(#clipPath448)" id="g446"><text id="text452" style="font-variant:normal;font-weight:normal;font-size:17.25600052px;font-family:Arial;-inkscape-font-specification:Arial;writing-mode:lr-tb;fill:#595959;fill-opacity:1;fill-rule:nonzero;stroke:none" transform="matrix(1,0,0,-1,148.1,118.7)"><tspan id="tspan454" y="0" x="0 11.509752 21.104088 35.392056 44.106335 53.545368 63.174217">Samsung</tspan></text>
</g>
    </g>
    <path id="path456" style="fill:none;stroke:#00a1e2;stroke-width:4.30880022;stroke-linecap:round;stroke-linejoin:round;stroke-miterlimit:10;stroke-dasharray:none;stroke-opacity:1" d="m 240.16,124.29 36.77,0"/>
    <g id="g458">
      <g clip-path="url(#clipPath462)" id="g460"><text id="text466" style="font-variant:normal;font-weight:normal;font-size:17.25600052px;font-family:Arial;-inkscape-font-specification:Arial;writing-mode:lr-tb;fill:#595959;fill-opacity:1;fill-rule:nonzero;stroke:none" transform="matrix(1,0,0,-1,280.85,118.7)"><tspan id="tspan468" y="0" x="0 11.509752 23.019505 27.816671 37.445518 45.935471 55.56432 59.464176">SK hynix</tspan></text>
</g>
    </g>
    <path id="path470" style="fill:none;stroke:#3bc3a3;stroke-width:4.30880022;stroke-linecap:round;stroke-linejoin:round;stroke-miterlimit:10;stroke-dasharray:none;stroke-opacity:1" d="m 368.1,124.29 36.77,0"/>
    <g id="g472">
      <g clip-path="url(#clipPath476)" id="g474"><text id="text480" style="font-variant:normal;font-weight:normal;font-size:17.25600052px;font-family:Arial;-inkscape-font-specification:Arial;writing-mode:lr-tb;fill:#595959;fill-opacity:1;fill-rule:nonzero;stroke:none" transform="matrix(1,0,0,-1,408.79,118.7)"><tspan id="tspan482" y="0" x="0 14.253456 18.153313 26.867592 32.613838 42.052872">Micron</tspan></text>
</g>
    </g>
    <path id="path484" style="fill:none;stroke:#6769b5;stroke-width:4.30880022;stroke-linecap:round;stroke-linejoin:round;stroke-miterlimit:10;stroke-dasharray:none;stroke-opacity:1" d="m 479.72,124.29 36.77,0"/>
    <g id="g486">
      <g clip-path="url(#clipPath490)" id="g488"><text id="text494" style="font-variant:normal;font-weight:normal;font-size:17.25600052px;font-family:Arial;-inkscape-font-specification:Arial;writing-mode:lr-tb;fill:#595959;fill-opacity:1;fill-rule:nonzero;stroke:none" transform="matrix(1,0,0,-1,520.44,118.7)"><tspan id="tspan496" y="0" x="0 12.458832 22.053167 31.682016 40.171967 49.800816 54.597984 64.968842 74.597687 83.311966">Nanya Tech</tspan></text>
</g>
    </g>
    <path id="path498" style="fill:none;stroke:#d0b86a;stroke-width:4.30880022;stroke-linecap:round;stroke-linejoin:round;stroke-miterlimit:10;stroke-dasharray:none;stroke-opacity:1" d="m 632.56,124.29 36.77,0"/>
    <g id="g500">
      <g clip-path="url(#clipPath504)" id="g502"><text id="text508" style="font-variant:normal;font-weight:normal;font-size:17.25600052px;font-family:Arial;-inkscape-font-specification:Arial;writing-mode:lr-tb;fill:#595959;fill-opacity:1;fill-rule:nonzero;stroke:none" transform="matrix(1,0,0,-1,673.3,118.7)"><tspan id="tspan510" y="0" x="0 16.289663 19.999704 29.628551 39.257401 48.88625 58.325279">Winbond</tspan></text>
</g>
    </g>
  </g>
</svg>
