<svg version="1.1" width="100%" height="100%" viewBox="0 0 355 209" xmlns="http://www.w3.org/2000/svg" xmlns:xlink="http://www.w3.org/1999/xlink"><style type="text/css" /><defs><clipPath id="clip001"><path d="M0,0 L2761.333,0 L2761.333,1734.667 L0,1734.667 Z" clip-rule="evenodd" /></clipPath><clipPath id="clip002"><path d="M0,0 L2761.333,0 L2761.333,1734.667 L0,1734.667 Z" clip-rule="evenodd" /></clipPath><clipPath id="clip003"><path d="M0,0 L2761.333,0 L2761.333,1734.667 L0,1734.667 Z" clip-rule="evenodd" /></clipPath><clipPath id="clip004"><path d="M0,0 L5200,0 L5200,1844 L0,1844 Z" clip-rule="evenodd" /></clipPath><clipPath id="clip005"><path d="M-800,0 L6000,0 L6000,1844 L-800,1844 Z" clip-rule="evenodd" /></clipPath><clipPath id="clip006"><path d="M0,0 L2753.333,0 L2753.333,1734.667 L0,1734.667 Z" clip-rule="evenodd" /></clipPath><clipPath id="clip007"><path d="M0,0 L2753.333,0 L2753.333,1734.667 L0,1734.667 Z" clip-rule="evenodd" /></clipPath><clipPath id="clip008"><path d="M0,0 L2753.333,0 L2753.333,1734.667 L0,1734.667 Z" clip-rule="evenodd" /></clipPath><clipPath id="clip009"><path d="M374.6667,60 L2752,60 L2752,1410.667 L374.6667,1410.667 Z" clip-rule="evenodd" /></clipPath><clipPath id="clip010"><path d="M374.6667,60 L2752,60 L2752,1410.667 L374.6667,1410.667 Z" clip-rule="evenodd" /></clipPath><clipPath id="clip011"><path d="M374.6667,60 L2752,60 L2752,1410.667 L374.6667,1410.667 Z" clip-rule="evenodd" /></clipPath><clipPath id="clip012"><path d="M0,0 L2753.333,0 L2753.333,1734.667 L0,1734.667 Z" clip-rule="evenodd" /></clipPath><clipPath id="clip013"><path d="M0,0 L2753.333,0 L2753.333,1734.667 L0,1734.667 Z" clip-rule="evenodd" /></clipPath><clipPath id="clip014"><path d="M0,0 L2753.333,0 L2753.333,1734.667 L0,1734.667 Z" clip-rule="evenodd" /></clipPath><clipPath id="clip015"><path d="M0,0 L2753.333,0 L2753.333,1734.667 L0,1734.667 Z" clip-rule="evenodd" /></clipPath><clipPath id="clip016"><path d="M0,0 L2753.333,0 L2753.333,1734.667 L0,1734.667 Z" clip-rule="evenodd" /></clipPath><clipPath id="clip017"><path d="M0,0 L2753.333,0 L2753.333,1734.667 L0,1734.667 Z" clip-rule="evenodd" /></clipPath><clipPath id="clip018"><path d="M0,0 L2753.333,0 L2753.333,1734.667 L0,1734.667 Z" clip-rule="evenodd" /></clipPath><clipPath id="clip019"><path d="M0,0 L2753.333,0 L2753.333,1734.667 L0,1734.667 Z" clip-rule="evenodd" /></clipPath><clipPath id="clip020"><path d="M0,0 L2753.333,0 L2753.333,1734.667 L0,1734.667 Z" clip-rule="evenodd" /></clipPath><clipPath id="clip021"><path d="M0,0 L2753.333,0 L2753.333,1734.667 L0,1734.667 Z" clip-rule="evenodd" /></clipPath><clipPath id="clip022"><path d="M0,0 L2753.333,0 L2753.333,1734.667 L0,1734.667 Z" clip-rule="evenodd" /></clipPath><clipPath id="clip023"><path d="M0,0 L2753.333,0 L2753.333,1734.667 L0,1734.667 Z" clip-rule="evenodd" /></clipPath><clipPath id="clip024"><path d="M0,0 L2753.333,0 L2753.333,1734.667 L0,1734.667 Z" clip-rule="evenodd" /></clipPath><clipPath id="clip025"><path d="M0,0 L2753.333,0 L2753.333,1734.667 L0,1734.667 Z" clip-rule="evenodd" /></clipPath><clipPath id="clip026"><path d="M0,0 L2753.333,0 L2753.333,1734.667 L0,1734.667 Z" clip-rule="evenodd" /></clipPath><clipPath id="clip027"><path d="M0,0 L2753.333,0 L2753.333,1734.667 L0,1734.667 Z" clip-rule="evenodd" /></clipPath><clipPath id="clip028"><path d="M0,0 L2753.333,0 L2753.333,1734.667 L0,1734.667 Z" clip-rule="evenodd" /></clipPath><clipPath id="clip029"><path d="M0,0 L2753.333,0 L2753.333,1734.667 L0,1734.667 Z" clip-rule="evenodd" /></clipPath><clipPath id="clip030"><path d="M0,0 L2753.333,0 L2753.333,1734.667 L0,1734.667 Z" clip-rule="evenodd" /></clipPath><clipPath id="clip031"><path d="M0,0 L2753.333,0 L2753.333,1734.667 L0,1734.667 Z" clip-rule="evenodd" /></clipPath><clipPath id="clip032"><path d="M0,0 L2753.333,0 L2753.333,1734.667 L0,1734.667 Z" clip-rule="evenodd" /></clipPath><clipPath id="clip033"><path d="M0,0 L2753.333,0 L2753.333,1734.667 L0,1734.667 Z" clip-rule="evenodd" /></clipPath><clipPath id="clip034"><path d="M0,0 L2753.333,0 L2753.333,1734.667 L0,1734.667 Z" clip-rule="evenodd" /></clipPath><clipPath id="clip035"><path d="M0,0 L2753.333,0 L2753.333,1734.667 L0,1734.667 Z" clip-rule="evenodd" /></clipPath><clipPath id="clip036"><path d="M0,0 L2753.333,0 L2753.333,1734.667 L0,1734.667 Z" clip-rule="evenodd" /></clipPath><clipPath id="clip037"><path d="M0,0 L2753.333,0 L2753.333,1734.667 L0,1734.667 Z" clip-rule="evenodd" /></clipPath><clipPath id="clip038"><path d="M0,0 L2753.333,0 L2753.333,1734.667 L0,1734.667 Z" clip-rule="evenodd" /></clipPath><clipPath id="clip039"><path d="M0,0 L2753.333,0 L2753.333,1734.667 L0,1734.667 Z" clip-rule="evenodd" /></clipPath><clipPath id="clip040"><path d="M0,0 L2753.333,0 L2753.333,1734.667 L0,1734.667 Z" clip-rule="evenodd" /></clipPath><clipPath id="clip041"><path d="M0,0 L2753.333,0 L2753.333,1734.667 L0,1734.667 Z" clip-rule="evenodd" /></clipPath><clipPath id="clip042"><path d="M0,0 L2753.333,0 L2753.333,1734.667 L0,1734.667 Z" clip-rule="evenodd" /></clipPath></defs><clipPath id="page-clip-path-1"><rect x="0" y="0" width="354.67" height="209.33" /></clipPath><g clip-path="url(#page-clip-path-1)" transform="translate(0.17,0)"><g transform="translate(1,1)"><g><g transform="matrix(0.1197006,0,0,0.1200231,0,0)" clip-path="url(#clip001)"><g><g clip-path="url(#clip002)"><g><g clip-path="url(#clip003)"><g transform="matrix(1.000214,0,0,1.000366,0.00016276,0)"><g><g><g clip-path="url(#clip004)"><g transform="translate(2753.333,1736)" /></g></g></g><g clip-path="url(#clip005)"><g transform="matrix(0.000656168,0,0,0.000656168,0,0)"><path d="M0,0 L4198112,0 L4198112,2643632 L0,2643632 Z" fill="#ffffff" fill-opacity="0" fill-rule="evenodd" /></g></g><g clip-path="url(#clip006)"><g transform="matrix(0.000656168,0,0,0.000656168,374.6667,60)"><path d="M0,0 L3610864,0 L3610864,2046224 L0,2046224 Z" fill="#ffffff" fill-opacity="0" fill-rule="evenodd" /></g></g><g clip-path="url(#clip007)"><g transform="matrix(0.000656168,0,0,0.000656168,374.6667,60)"><path d="M0,1887728 L3610864,1887728 M0,1731264 L3610864,1731264 M0,1574800 L3610864,1574800 M0,1416304 L3610864,1416304 M0,1259840 L3610864,1259840 M0,1101344 L3610864,1101344 M0,944880 L3610864,944880 M0,786384 L3610864,786384 M0,629920 L3610864,629920 M0,471424 L3610864,471424 M0,314960 L3610864,314960 M0,156464 L3610864,156464 M0,0 L3610864,0 " stroke-width="16933.33" stroke-linejoin="round" stroke-miterlimit="13.33333" stroke="#bababa" fill="none" fill-rule="nonzero" /></g></g><g clip-path="url(#clip008)"><g transform="matrix(0.000656168,0,0,0.000656168,374.6667,1402.667)"><g><path d="M0.002501094,-6773.333 L3610864,-6772 " stroke-width="3386.667" stroke-linejoin="round" stroke-miterlimit="13.33333" stroke="#000000" fill="none" fill-rule="evenodd" /><path d="M-0.001250547,3386.667 L3610864,3388 " stroke-width="10160" stroke-linejoin="round" stroke-miterlimit="13.33333" stroke="#000000" fill="none" fill-rule="evenodd" /></g></g></g><g clip-path="url(#clip009)"><g transform="matrix(0.000656168,0,0,0.000656168,494,1003.333)"><path d="M0,307793 C120339.2,312383 240678.4,316775.3 361019,321563.2 L361019,321563.2 C481358.2,326349.7 601697.4,327147.7 722037.9,336513.7 L722037.9,336513.7 C842377.2,345878.4 962715,382016 1083056,377753.9 L1083056,377753.9 C1203395,373490.5 1323734,329800.6 1444075,310938.4 L1444075,310938.4 C1564414,292076.3 1684753,268560.4 1805094,264581.1 L1805094,264581.1 C1925433,260601.8 2045772,306522.3 2166113,287062.7 L2166113,287062.7 C2286452,267601.7 2406791,185114.8 2527131,147816.7 L2527131,147816.7 C2647471,110517.3 2767809,87904.24 2888149,63269.02 L2888149,63269.02 C3008488,38632.46 3128827,21088.79 3249168,0 " stroke-width="33866.67" stroke-linecap="round" stroke-linejoin="round" stroke-miterlimit="13.33333" stroke="#012169" fill="none" fill-rule="nonzero" /></g></g><g clip-path="url(#clip010)"><g transform="matrix(0.000656168,0,0,0.000656168,494,718)"><path d="M0,753068 C120339.2,751634.3 240678.4,766064 361019,748768.4 L361019,748768.4 C481358.2,731471.5 601697.4,677562.3 722037.9,649290.6 L722037.9,649290.6 C842377.2,621018.9 962715,602116.5 1083056,579138.4 L1083056,579138.4 C1203395,556160.2 1323734,534491.8 1444075,511421.7 L1444075,511421.7 C1564414,488351.6 1684753,454535.9 1805094,440717.9 L1805094,440717.9 C1925433,426898.5 2045772,457902.8 2166113,428508 L2166113,428508 C2286452,399111.8 2406791,315397.3 2527131,264342 L2527131,264342 C2647471,213285.4 2767809,166229.8 2888149,122173.5 L2888149,122173.5 C3008488,78115.85 3128827,40724.06 3249168,0 " stroke-width="33866.67" stroke-linecap="round" stroke-linejoin="round" stroke-miterlimit="13.33333" stroke="#009cde" fill="none" fill-rule="nonzero" /></g></g><g clip-path="url(#clip011)"><g transform="matrix(0.000656168,0,0,0.000656168,494,206)"><path d="M0,1719072 L359664,1717040 L359664,1717040 L721360,1666240 L721360,1666240 L1083056,1631696 L1083056,1631696 L1442720,1593088 L1442720,1593088 L1804416,1377696 L1804416,1377696 L2166112,461264 L2166112,461264 L2525776,229616 L2525776,229616 L2887472,0 L2887472,0 L3249168,81280 " stroke-width="33866.67" stroke-linecap="round" stroke-linejoin="round" stroke-miterlimit="13.33333" stroke="#e56200" fill="none" fill-rule="nonzero" /></g></g><g><g clip-path="url(#clip012)"><g><g transform="translate(84.33334,1432.147)"><text><tspan x="0" y="0" font-family="Connections Cond Light,Arial Narrow" font-weight="normal" font-style="normal" font-size="105.3333" fill="#000000">$150</tspan></text></g></g></g></g><g><g clip-path="url(#clip013)"><g><g transform="translate(84.33334,1328.881)"><text><tspan x="0" y="0" font-family="Connections Cond Light,Arial Narrow" font-weight="normal" font-style="normal" font-size="105.3333" fill="#000000">$450</tspan></text></g></g></g></g><g><g clip-path="url(#clip014)"><g><g transform="translate(84.33334,1225.616)"><text><tspan x="0" y="0" font-family="Connections Cond Light,Arial Narrow" font-weight="normal" font-style="normal" font-size="105.3333" fill="#000000">$750</tspan></text></g></g></g></g><g><g clip-path="url(#clip015)"><g><g transform="translate(16.66667,1122.35)"><text><tspan x="0" y="0" font-family="Connections Cond Light,Arial Narrow" font-weight="normal" font-style="normal" font-size="105.3333" fill="#000000">$1,050</tspan></text></g></g></g></g><g><g clip-path="url(#clip016)"><g><g transform="translate(16.66667,1019.085)"><text><tspan x="0" y="0" font-family="Connections Cond Light,Arial Narrow" font-weight="normal" font-style="normal" font-size="105.3333" fill="#000000">$1,350</tspan></text></g></g></g></g><g><g clip-path="url(#clip017)"><g><g transform="translate(16.66667,915.8189)"><text><tspan x="0" y="0" font-family="Connections Cond Light,Arial Narrow" font-weight="normal" font-style="normal" font-size="105.3333" fill="#000000">$1,650</tspan></text></g></g></g></g><g><g clip-path="url(#clip018)"><g><g transform="translate(16.66667,812.5538)"><text><tspan x="0" y="0" font-family="Connections Cond Light,Arial Narrow" font-weight="normal" font-style="normal" font-size="105.3333" fill="#000000">$1,950</tspan></text></g></g></g></g><g><g clip-path="url(#clip019)"><g><g transform="translate(16.66667,709.2878)"><text><tspan x="0" y="0" font-family="Connections Cond Light,Arial Narrow" font-weight="normal" font-style="normal" font-size="105.3333" fill="#000000">$2,250</tspan></text></g></g></g></g><g><g clip-path="url(#clip020)"><g><g transform="translate(16.66667,606.0228)"><text><tspan x="0" y="0" font-family="Connections Cond Light,Arial Narrow" font-weight="normal" font-style="normal" font-size="105.3333" fill="#000000">$2,550</tspan></text></g></g></g></g><g><g clip-path="url(#clip021)"><g><g transform="translate(16.66667,502.7568)"><text><tspan x="0" y="0" font-family="Connections Cond Light,Arial Narrow" font-weight="normal" font-style="normal" font-size="105.3333" fill="#000000">$2,850</tspan></text></g></g></g></g><g><g clip-path="url(#clip022)"><g><g transform="translate(16.66667,399.4917)"><text><tspan x="0" y="0" font-family="Connections Cond Light,Arial Narrow" font-weight="normal" font-style="normal" font-size="105.3333" fill="#000000">$3,150</tspan></text></g></g></g></g><g><g clip-path="url(#clip023)"><g><g transform="translate(16.66667,296.2257)"><text><tspan x="0" y="0" font-family="Connections Cond Light,Arial Narrow" font-weight="normal" font-style="normal" font-size="105.3333" fill="#000000">$3,450</tspan></text></g></g></g></g><g><g clip-path="url(#clip024)"><g><g transform="translate(16.66667,192.9606)"><text><tspan x="0" y="0" font-family="Connections Cond Light,Arial Narrow" font-weight="normal" font-style="normal" font-size="105.3333" fill="#000000">$3,750</tspan></text></g></g></g></g><g><g clip-path="url(#clip025)"><g><g transform="translate(16.66667,89.69466)"><text><tspan x="0" y="0" font-family="Connections Cond Light,Arial Narrow" font-weight="normal" font-style="normal" font-size="105.3333" fill="#000000">$4,050</tspan></text></g></g></g></g><g><g clip-path="url(#clip026)"><g><g transform="matrix(0,-1,1,0,526.6785,1667.73)"><text><tspan x="0" y="0" font-family="Connections Cond Light,Arial Narrow" font-weight="normal" font-style="normal" font-size="105.3333" fill="#000000">2019</tspan></text></g></g></g></g><g><g clip-path="url(#clip027)"><g><g transform="matrix(0,-1,1,0,763.5901,1667.73)"><text><tspan x="0" y="0" font-family="Connections Cond Light,Arial Narrow" font-weight="normal" font-style="normal" font-size="105.3333" fill="#000000">2020</tspan></text></g></g></g></g><g><g clip-path="url(#clip028)"><g><g transform="matrix(0,-1,1,0,1000.502,1667.73)"><text><tspan x="0" y="0" font-family="Connections Cond Light,Arial Narrow" font-weight="normal" font-style="normal" font-size="105.3333" fill="#000000">2021</tspan></text></g></g></g></g><g><g clip-path="url(#clip029)"><g><g transform="matrix(0,-1,1,0,1237.412,1667.73)"><text><tspan x="0" y="0" font-family="Connections Cond Light,Arial Narrow" font-weight="normal" font-style="normal" font-size="105.3333" fill="#000000">2022</tspan></text></g></g></g></g><g><g clip-path="url(#clip030)"><g><g transform="matrix(0,-1,1,0,1474.324,1667.73)"><text><tspan x="0" y="0" font-family="Connections Cond Light,Arial Narrow" font-weight="normal" font-style="normal" font-size="105.3333" fill="#000000">2023</tspan></text></g></g></g></g><g><g clip-path="url(#clip031)"><g><g transform="matrix(0,-1,1,0,1711.236,1667.73)"><text><tspan x="0" y="0" font-family="Connections Cond Light,Arial Narrow" font-weight="normal" font-style="normal" font-size="105.3333" fill="#000000">2024</tspan></text></g></g></g></g><g><g clip-path="url(#clip032)"><g><g transform="matrix(0,-1,1,0,1948.147,1667.73)"><text><tspan x="0" y="0" font-family="Connections Cond Light,Arial Narrow" font-weight="normal" font-style="normal" font-size="105.3333" fill="#000000">2025</tspan></text></g></g></g></g><g><g clip-path="url(#clip033)"><g><g transform="matrix(0,-1,1,0,2185.059,1667.73)"><text><tspan x="0" y="0" font-family="Connections Cond Light,Arial Narrow" font-weight="normal" font-style="normal" font-size="105.3333" fill="#000000">2026</tspan></text></g></g></g></g><g><g clip-path="url(#clip034)"><g><g transform="matrix(0,-1,1,0,2421.97,1667.73)"><text><tspan x="0" y="0" font-family="Connections Cond Light,Arial Narrow" font-weight="normal" font-style="normal" font-size="105.3333" fill="#000000">2027</tspan></text></g></g></g></g><g><g clip-path="url(#clip035)"><g><g transform="matrix(0,-1,1,0,2658.882,1667.73)"><text><tspan x="0" y="0" font-family="Connections Cond Light,Arial Narrow" font-weight="normal" font-style="normal" font-size="105.3333" fill="#000000">2028</tspan></text></g></g></g></g><g clip-path="url(#clip036)"><g transform="matrix(0.000656168,0,0,0.000656168,398.6667,50.66667)"><path d="M0,0 L2700528,0 L2700528,266192 L0,266192 Z" fill="#4f81bd" fill-opacity="0" fill-rule="evenodd" /></g></g><g clip-path="url(#clip037)"><g transform="matrix(0.000656168,0,0,0.000656168,486,138)"><path d="M0,0 L325120,1.333333 " stroke-width="33866.67" stroke-linecap="round" stroke-linejoin="round" stroke-miterlimit="13.33333" stroke="#012169" fill="none" fill-rule="evenodd" /></g></g><g><g clip-path="url(#clip038)"><g><g transform="translate(722.4016,167.5197)"><text><tspan x="0" y="0" font-family="Connections Cond Light,Arial Narrow" font-weight="normal" font-style="normal" font-size="105.3333" fill="#000000">INTC</tspan></text></g></g></g></g><g clip-path="url(#clip039)"><g transform="matrix(0.000656168,0,0,0.000656168,986,138)"><path d="M0,0 L325120,1.333333 " stroke-width="33866.67" stroke-linecap="round" stroke-linejoin="round" stroke-miterlimit="13.33333" stroke="#009cde" fill="none" fill-rule="evenodd" /></g></g><g><g clip-path="url(#clip040)"><g><g transform="translate(1221.316,167.5197)"><text><tspan x="0" y="0" font-family="Connections Cond Light,Arial Narrow" font-weight="normal" font-style="normal" font-size="105.3333" fill="#000000">AMD</tspan></text></g></g></g></g><g clip-path="url(#clip041)"><g transform="matrix(0.000656168,0,0,0.000656168,1494,138)"><path d="M0,0 L325120,1.333333 " stroke-width="33866.67" stroke-linecap="round" stroke-linejoin="round" stroke-miterlimit="13.33333" stroke="#e56200" fill="none" fill-rule="evenodd" /></g></g><g><g clip-path="url(#clip042)"><g><g transform="translate(1729.341,167.5197)"><text><tspan x="0" y="0" font-family="Connections Cond Light,Arial Narrow" font-weight="normal" font-style="normal" font-size="105.3333" fill="#000000">ARM (est.)</tspan></text></g></g></g></g><g /></g></g></g></g></g></g></g></g></g></svg>