<svg xmlns="http://www.w3.org/2000/svg" width="920" height="420" viewBox="0 0 920 420">
<rect width="100%" height="100%" fill="#f8fafc"/>
<text x="28" y="38" font-size="24" font-family="-apple-system,BlinkMacSystemFont,Segoe UI,sans-serif" font-weight="700" fill="#0f172a">Folder distribution / 来源文件夹分布</text>
<g font-family="-apple-system,BlinkMacSystemFont,Segoe UI,sans-serif"><text x="28" y="91" font-size="16" fill="#334155">Investment</text><rect x="300" y="70" width="610" height="28" rx="9" fill="#3b82f6" opacity="0.82"/><text x="918" y="90" font-size="15" fill="#0f172a">19</text><text x="28" y="135" font-size="16" fill="#334155">smart prompts</text><rect x="300" y="114" width="224" height="28" rx="9" fill="#3b82f6" opacity="0.82"/><text x="532" y="134" font-size="15" fill="#0f172a">7</text><text x="28" y="179" font-size="16" fill="#334155">.</text><rect x="300" y="158" width="128" height="28" rx="9" fill="#3b82f6" opacity="0.82"/><text x="436" y="178" font-size="15" fill="#0f172a">4</text><text x="28" y="223" font-size="16" fill="#334155">Dayflow</text><rect x="300" y="202" width="64" height="28" rx="9" fill="#3b82f6" opacity="0.82"/><text x="372" y="222" font-size="15" fill="#0f172a">2</text><text x="28" y="267" font-size="16" fill="#334155">※INBOX</text><rect x="300" y="246" width="32" height="28" rx="9" fill="#3b82f6" opacity="0.82"/><text x="340" y="266" font-size="15" fill="#0f172a">1</text><text x="28" y="311" font-size="16" fill="#334155">Python</text><rect x="300" y="290" width="32" height="28" rx="9" fill="#3b82f6" opacity="0.82"/><text x="340" y="310" font-size="15" fill="#0f172a">1</text></g>
<text x="28" y="395" font-size="13" fill="#64748b">Generated from read-only collector JSON · 2026-06-18</text>
</svg>