<svg xmlns="http://www.w3.org/2000/svg" width="980" height="520" viewBox="0 0 980 520">
<rect width="100%" height="100%" fill="#fbfbfd"/><rect x="12" y="12" width="956" height="496" rx="26" fill="#ffffff" stroke="#e5e7eb"/>
<text x="28" y="50" font-family="-apple-system,BlinkMacSystemFont,Segoe UI,sans-serif" font-size="26" font-weight="700" fill="#111827">文件夹分布：变更集中在 Investment 与 Copilot</text>
<g font-family="-apple-system,BlinkMacSystemFont,Segoe UI,sans-serif"><text x="24" y="108" font-size="18" fill="#1f2937">Copilot</text><rect x="250" y="88" width="610.0" height="28" rx="8" fill="#3b82f6" opacity="0.82"/><text x="872.0" y="108" font-size="18" fill="#374151">5</text><text x="24" y="158" font-size="18" fill="#1f2937">Investment</text><rect x="250" y="138" width="610.0" height="28" rx="8" fill="#3b82f6" opacity="0.82"/><text x="872.0" y="158" font-size="18" fill="#374151">5</text><text x="24" y="208" font-size="18" fill="#1f2937">※INBOX</text><rect x="250" y="188" width="122.0" height="28" rx="8" fill="#3b82f6" opacity="0.82"/><text x="384.0" y="208" font-size="18" fill="#374151">1</text><text x="24" y="258" font-size="18" fill="#1f2937">Dayflow</text><rect x="250" y="238" width="122.0" height="28" rx="8" fill="#3b82f6" opacity="0.82"/><text x="384.0" y="258" font-size="18" fill="#374151">1</text><text x="24" y="308" font-size="18" fill="#1f2937">.</text><rect x="250" y="288" width="122.0" height="28" rx="8" fill="#3b82f6" opacity="0.82"/><text x="384.0" y="308" font-size="18" fill="#374151">1</text><text x="24" y="358" font-size="18" fill="#1f2937">smart prompts</text><rect x="250" y="338" width="122.0" height="28" rx="8" fill="#3b82f6" opacity="0.82"/><text x="384.0" y="358" font-size="18" fill="#374151">1</text></g>
</svg>