<svg xmlns="http://www.w3.org/2000/svg" width="980" height="352" viewBox="0 0 980 352">
<rect width="100%" height="100%" fill="#fbfbf8"/>
<text x="40" y="48" font-family="-apple-system,BlinkMacSystemFont,Segoe UI,sans-serif" font-size="28" font-weight="700" fill="#24323a">Miyo cross-check · 日期级索引补盲</text>
<text x="40" y="74" font-family="-apple-system,BlinkMacSystemFont,Segoe UI,sans-serif" font-size="13" fill="#6a747c">窗口 2026-07-09T02:00:30+08:00 → 2026-07-10T02:00:30+08:00</text>
<text x="40" y="109" font-family="-apple-system,BlinkMacSystemFont,Segoe UI,sans-serif" font-size="16" fill="#34434c">Prompt source-of-truth candidates</text>
<rect x="280" y="86" width="630" height="34" rx="10" fill="#ece7df"/>
<rect x="280" y="86" width="630" height="34" rx="10" fill="#9a704f"/>
<text x="922" y="109" font-family="-apple-system,BlinkMacSystemFont,Segoe UI,sans-serif" font-size="15" fill="#24323a" font-weight="700">37</text>
<text x="40" y="158" font-family="-apple-system,BlinkMacSystemFont,Segoe UI,sans-serif" font-size="16" fill="#34434c">Miyo returned total</text>
<rect x="280" y="135" width="630" height="34" rx="10" fill="#ece7df"/>
<rect x="280" y="135" width="612" height="34" rx="10" fill="#9a704f"/>
<text x="904" y="158" font-family="-apple-system,BlinkMacSystemFont,Segoe UI,sans-serif" font-size="15" fill="#24323a" font-weight="700">36</text>
<text x="40" y="207" font-family="-apple-system,BlinkMacSystemFont,Segoe UI,sans-serif" font-size="16" fill="#34434c">Miyo vault-current matched</text>
<rect x="280" y="184" width="630" height="34" rx="10" fill="#ece7df"/>
<rect x="280" y="184" width="578" height="34" rx="10" fill="#9a704f"/>
<text x="870" y="207" font-family="-apple-system,BlinkMacSystemFont,Segoe UI,sans-serif" font-size="15" fill="#24323a" font-weight="700">34</text>
<text x="40" y="256" font-family="-apple-system,BlinkMacSystemFont,Segoe UI,sans-serif" font-size="16" fill="#34434c">Miyo outside-vault chats excluded</text>
<rect x="280" y="233" width="630" height="34" rx="10" fill="#ece7df"/>
<rect x="280" y="233" width="34" height="34" rx="10" fill="#9a704f"/>
<text x="326" y="256" font-family="-apple-system,BlinkMacSystemFont,Segoe UI,sans-serif" font-size="15" fill="#24323a" font-weight="700">2</text>
</svg>